<svg xmlns="http://www.w3.org/2000/svg" viewBox="0 0 512 512" style="enable-background:new 0 0 512 512" xml:space="preserve"><path d="M417.4 19v474c0 10.5 -8.5 19 -19 19h-284.8c-10.5 0 -19 -8.5 -19 -19v-474c0 -10.5 8.5 -19 19 -19h284.8c10.5 0 19 8.5 19 19z" style="opacity:.1;fill:#fff"/><path d="M354.6 412.5c0.5 -0.7 1.2 -1.2 1.8 -1.7c2.9 -2.2 4.2 -3.6 7.4 -7.1c3.4 -3.8 5.9 -10.7 5.9 -10.7s2.5 6.9 5.9 10.7c3.2 3.5 4.5 4.9 7.4 7.1c0.7 0.5 1.3 1.1 1.8 1.7c6.8 8.1 -3.4 20.2 -15.1 7.4c-11.7 12.8 -21.9 0.7 -15.1 -7.4zm32.9 21.1h-8.5v43.2h0.9l17.8 -6.4v-7l-10.2 3.2v-33zm29.9 -414.6v474c0 10.5 -8.5 19 -19 19h-284.8c-10.5 0 -19 -8.5 -19 -19v-474c0 -10.5 8.5 -19 19 -19h284.8c10.5 0 19 8.5 19 19zm-16 0c0 -1.7 -1.3 -3 -3 -3h-284.8c-1.7 0 -3 1.3 -3 3v474c0 1.7 1.3 3 3 3h284.8c1.7 0 3 -1.3 3 -3v-474zm-268.4 59.4v-43.2h-0.9l-17.8 6.4v7l10.2 -3.2v33h8.5zm33.3 -39c2.5 3.1 3.8 7.5 3.8 13.3v7.9c0 6 -1.2 10.5 -3.7 13.7s-6.1 4.7 -10.8 4.7c-4.7 0 -8.3 -1.5 -10.8 -4.6c-2.5 -3.1 -3.8 -7.5 -3.8 -13.3v-7.9c0 -6 1.2 -10.6 3.7 -13.7s6.1 -4.7 10.8 -4.7s8.3 1.5 10.8 4.6zm-4.8 12.5c0 -3.6 -0.5 -6.2 -1.5 -7.8c-1 -1.6 -2.5 -2.4 -4.6 -2.4c-2 0 -3.5 0.8 -4.5 2.3c-1 1.6 -1.5 4 -1.5 7.3v10.5c0 3.5 0.5 6.1 1.4 7.8c1 1.7 2.5 2.6 4.6 2.6c2.1 0 3.6 -0.8 4.5 -2.5c0.9 -1.6 1.4 -4.1 1.5 -7.5l0.1 -10.3zm-19.3 40.2c-11.7 -12.8 -21.8 -0.7 -15.1 7.4c0.5 0.6 1.1 1.2 1.8 1.7c2.9 2.2 4.2 3.6 7.4 7.1c3.4 3.8 5.9 10.7 5.9 10.7s2.5 -6.9 5.9 -10.7c3.2 -3.5 4.5 -4.9 7.4 -7.1c0.6 -0.5 1.3 -1 1.8 -1.7c6.7 -8.1 -3.4 -20.2 -15.1 -7.4zm56.8 -13.8c-17.6 -19.3 -33 -1.1 -22.8 11.1c0.8 0.9 1.7 1.8 2.7 2.5c4.4 3.4 6.4 5.4 11.1 10.7c5.1 5.7 8.9 16.1 8.9 16.1s3.8 -10.4 8.9 -16.1c4.8 -5.4 6.7 -7.4 11.1 -10.7c1 -0.7 1.9 -1.6 2.7 -2.5c10.4 -12.2 -5 -30.4 -22.6 -11.1zm114 0c-17.6 -19.3 -33 -1.1 -22.8 11.1c0.8 0.9 1.7 1.8 2.7 2.5c4.4 3.4 6.4 5.4 11.1 10.7c5.1 5.7 8.9 16.1 8.9 16.1s3.8 -10.4 8.9 -16.1c4.8 -5.4 6.7 -7.4 11.1 -10.7c1 -0.7 1.9 -1.6 2.7 -2.5c10.4 -12.2 -5 -30.4 -22.6 -11.1zm-57 53.9c-17.6 -19.3 -33 -1.1 -22.8 11.1c0.8 0.9 1.7 1.8 2.7 2.5c4.4 3.4 6.4 5.4 11.1 10.7c5.1 5.7 8.9 16.1 8.9 16.1s3.8 -10.4 8.9 -16.1c4.8 -5.4 6.7 -7.4 11.1 -10.7c1 -0.7 1.9 -1.6 2.7 -2.5c10.4 -12.2 -5 -30.4 -22.6 -11.1zm-57 53.9c-17.6 -19.3 -33 -1.1 -22.8 11.1c0.8 0.9 1.7 1.8 2.7 2.5c4.4 3.4 6.4 5.4 11.1 10.7c5.1 5.7 8.9 16.1 8.9 16.1s3.8 -10.4 8.9 -16.1c4.8 -5.4 6.7 -7.4 11.1 -10.7c1 -0.7 1.9 -1.6 2.7 -2.5c10.4 -12.2 -5 -30.5 -22.6 -11.1zm114 0c-17.6 -19.3 -33 -1.1 -22.8 11.1c0.8 0.9 1.7 1.8 2.7 2.5c4.4 3.4 6.4 5.4 11.1 10.7c5.1 5.7 8.9 16.1 8.9 16.1s3.8 -10.4 8.9 -16.1c4.8 -5.4 6.7 -7.4 11.1 -10.7c1 -0.7 1.9 -1.6 2.7 -2.5c10.4 -12.2 -5 -30.5 -22.6 -11.1zm-93.9 234c-4.4 -3.4 -6.4 -5.4 -11.1 -10.7c-5.1 -5.7 -8.9 -16.1 -8.9 -16.1s-3.8 10.4 -8.9 16.1c-4.8 5.4 -6.7 7.4 -11.1 10.7c-1 0.7 -1.9 1.6 -2.7 2.5c-10.2 12.3 5.1 30.5 22.8 11.1c17.6 19.3 33 1.1 22.8 -11.1c-1 -1 -2 -1.8 -2.9 -2.5zm114 0c-4.4 -3.4 -6.4 -5.4 -11.1 -10.7c-5.1 -5.7 -8.9 -16.1 -8.9 -16.1s-3.8 10.4 -8.9 16.1c-4.8 5.4 -6.7 7.4 -11.1 10.7c-1 0.7 -1.9 1.6 -2.7 2.5c-10.2 12.3 5.1 30.5 22.8 11.1c17.6 19.3 33 1.1 22.8 -11.1c-1 -1 -2 -1.8 -2.9 -2.5zm-114 -107.8c-4.4 -3.4 -6.4 -5.4 -11.1 -10.7c-5.1 -5.7 -8.9 -16.1 -8.9 -16.1s-3.8 10.4 -8.9 16.1c-4.8 5.4 -6.7 7.4 -11.1 10.7c-1 0.7 -1.9 1.6 -2.7 2.5c-10.2 12.3 5.1 30.5 22.8 11.1c17.6 19.3 33 1.1 22.8 -11.1c-1 -1 -2 -1.8 -2.9 -2.5zm114 0c-4.4 -3.4 -6.4 -5.4 -11.1 -10.7c-5.1 -5.7 -8.9 -16.1 -8.9 -16.1s-3.8 10.4 -8.9 16.1c-4.8 5.4 -6.7 7.4 -11.1 10.7c-1 0.7 -1.9 1.6 -2.7 2.5c-10.2 12.3 5.1 30.5 22.8 11.1c17.6 19.3 33 1.1 22.8 -11.1c-1 -1 -2 -1.8 -2.9 -2.5zm-57 53.9c-4.4 -3.4 -6.4 -5.4 -11.1 -10.7c-5.1 -5.7 -8.9 -16.1 -8.9 -16.1s-3.8 10.4 -8.9 16.1c-4.8 5.4 -6.7 7.4 -11.1 10.7c-1 0.7 -1.9 1.6 -2.7 2.5c-10.2 12.3 5.1 30.5 22.8 11.1c17.6 19.3 33 1.1 22.8 -11.1c-1 -1 -2 -1.8 -2.9 -2.5zm91.1 71c2.5 3.1 3.8 7.5 3.8 13.3v7.9c0 6 -1.2 10.6 -3.7 13.7s-6.1 4.7 -10.8 4.7s-8.3 -1.5 -10.8 -4.6c-2.5 -3.1 -3.8 -7.5 -3.8 -13.3v-7.9c0 -6 1.2 -10.5 3.7 -13.7s6.1 -4.7 10.8 -4.7c4.7 0 8.3 1.5 10.8 4.6zm-4.6 12.6c0 -3.5 -0.5 -6.1 -1.4 -7.8c-1 -1.7 -2.5 -2.6 -4.6 -2.6c-2.1 0 -3.6 0.8 -4.5 2.5c-0.9 1.6 -1.4 4.1 -1.5 7.5v10.3h-0.1c0 3.6 0.5 6.2 1.5 7.8c1 1.6 2.5 2.4 4.6 2.4c2 0 3.5 -0.8 4.5 -2.3c1 -1.6 1.5 -4 1.5 -7.3v-10.5z" style="fill:#fff"/></svg>