<svg version="1.1" xmlns="http://www.w3.org/2000/svg" x="0" y="0" viewBox="0 0 1024 1024" xml:space="preserve"><path d="M717.9 967.6v-88h-8v-33.8h-58v-24.2h8v-14h-8V611.8h-21V383.9l-9-18h7v-8h3v-12h-22l-22-40v-6h6.4l-70-98-8.2-12-2-141.7c2-.6 3.4-2.4 3.8-4.4.2 0 .2.4.4.6.2.2.2.4.6.6 0-.2-.2-.6 0-.8.2-.2.6 0 .8-.4.2.4.4.6.8.8h.2v.2c0 .2 0 .4.2.4.2.2.2.2.2 0 .2-.2.2-.4.2-.6v-.4l.2-.2c.2-.2.2-.4.2-.6.4 0 .8.2 1.2.2.2 0 .6 0 .8-.4 0-.4-.2-1-.2-1.4v-5c.2-.6.2-1.2 0-1.6-.2-.6-.8-.8-1.2-1-.6 0-1.2 0-1.6-.2-.2 0-.4-.2-.6-.4-.4-.4-.6-1-.8-1.6-.2-1.2-.2-2.2-.2-3.4V28h.2c.2 0 .4-.2.8-.2.4-.2 1-.4 1.2-.6.8-.6 1.4-1.6 1.6-2.6.2-.6.2-1.2.2-1.8 0-.6-.2-1.4 0-2 .2.2.6.4 1 .4-.4-.4-.8-.8-1-1.4-.2-.2-.4-1-.2-1.2.2-.4.4.8.4.8.2.6.4 1 .8 1.4-.4-.8-.2-1.6-.4-2.4 0-.8-.4-1.2-1.2-1.2h-.5c-.2 0-.2-.4-.2-.6-.2-.6-.4-1.2-.4-1.8 0-1 .4-1.8 1-2.6.4.6.6 1.2 1.2 1.6.4.2 1 .4 1.6.4.8 0 1.4-.6 1.6-1.4.2-.8.2-1.6-.4-2.2-.8-.8-1.8-.8-2.8-.4-.2 0-.4.2-.4.2-.2 0-.6-.2-.6-.4-.4-.2-.8-.2-1.4 0-.4.2-.8.4-1 .6-.2.2-.6.6-.6.8.6-.4 1.4-.8 2-.4l.2.2c.2.2 0 .2-.2.4-.4.4-.6.8-.8 1.4-.8 1.6-.8 3.2 0 4.8-.4.2-.6.6-.6 1s.2.6.4 1c.4.8.8 1.6.6 2.6.4 0 .8-.4 1-.8.4 1.2.4 2.4 0 3.6-.4.8-1 1.2-1.8 1.6-.2 0-.2 0-.4.2h-.2c0-.4 0-.6-.2-1-.4-1-1.4-1.2-2.2-1.6-1-.4-1.8-1-2.2-2-.2-.6-.2-1-.2-1.6V19h.2c-.2-.2-.4-.6-.4-.8v-.8c0-.2.2-.6.4-.6-.2 1-.4 2.6.4 3.4.2.2 1 .6 1.2.2-1.2-.2-.8-2.6-.4-3.4.2.6.2 1.6.8 2.2.4.2.6.2.8-.2-.8.4-.8-1.2-.8-1.6 0-1 .2-2 .2-3 0-1.6 0-3-.4-4.6-.4-1.4-1-3.4-2.6-4-.2-.2-.6-.2-.8-.2h-.8c.2-.6-.8-1.2-1.4-1-.2 0-.4.2-.4.4s-.2.4-.2.4c0 .2-.2.2-.2.2-.4 0-2.6.2-2.2.8-.6.2-1.2.4-2 .6h-.4c-.2 0 0 0-.2.2v.2s0 .2.2.2v1.2c0 .2 0 .4.2.4.2.2.4 0 .6 0h1.4c.4 0 1 .2 1 .8-.8 0-1.6 0-2.4-.2-.6 0-1.8-.2-2.2.2.8-.2 1.6-.2 2.6 0 .4 0 .8.2 1.2.2h.8c-.2.4-.8.6-1.2.6-.4 0-1.2-.4-1.4 0-.2.2 0 .4 0 .6v.8c0 .4.2.4.6.4.4 0 .8 0 .6.4 0 .2-.4.2-.6.4-.2 0-.2.2-.4.2h-.2c-.2-.2-.4-.4-.8-.4-1-.8-2-1.6-3.2-2.4-.4-.4-.8-.6-1.4-1l-.2-.1c-.2-.2-.4-.4-.4-.6s.2-.4.4-.4l.8-.8c.4-.4.6-.8 1-1.2.2.2.4.6.8.8.2 0 .2 0 .2-.2l.4-.4c-.2-.2-.6-.4-.8-.8v-.2c0-.2.2-.2.4-.4l1.4-1.4 1.2 1.2c.2-.4.8-.8 1-1.2.4-.6 1-1.2 1.2-1.8.2-.8.4-1.4 0-2.2-.2-.2-.2-.4-.6-.4-.2 0-.6-.2-.8-.2-.6 0-1 .2-1.4.4-1 .6-1.6 1.4-2.4 2.2.4.4.8.8 1.4 1.2L503 5.1l-.8-.8c-.2.2-.4.4-.4.6 0 .2.2.2.2.4l.4.4-.2.2-1.2 1.2c-.2.2-.4.6-.8.8-.2.2 0 0-.2 0-.2-.2-.4-.2-.8-.2-.2 0-.4 0-.4.2-.2.2-.2.6-.2.6-.2 0-.4 0-.6.2 0 0-.2.6 0 .6-.2 0-.6.4-.6.6s0 .2.2.4c0 0 .2.2.2.4l-.4.4-1.6 1.6c-.8.8-1.6 1.6-2.2 2.4l-1 1-.6.6v.2l-.4-.4-.2-.2h-.2c-.2 0-.4.4-.6.6l.8.8.6.6.4.4.2-.2.2-.2v-.2c-.2-.2-.8-.6-.6-.8l.2-.2.4-.4 1.2-1.2c.8-1 1.8-1.8 2.6-2.8l1.6-1.6c.4.4.8.8 1.4.8-.2-.2-.6-.4-.2-.6h.6c.2 0 .4 0 .6.2.2 0 .4 0 .6.2.2.2.4.6.6.8.4.6 1 1.4 1.6 2 .4.4.6.8 1 1.2l.2.2s0 .2-.2.4-.2.6-.4.8c-.2.4-.2 1-.4 1.4-.2.4-.6.4-1 .4.6.4 1.2.2 1.8-.4.2-.2.2-.4.4-.8 0-.2 0-.4.2-.4-.2.4.2 1.2.6 1.6-1 .4-2 .6-3 1.2-.2 0-.4.2-.4.4-.2.2-.6 0-.8.2-.6.2-1 .8-1.4 1-.2-.2-.2-.4-.4-.6-.2-.2-.2-.2 0-.4s.4-.4.4-.8c.4-.8.2-1.8-.4-2.6-1-1.6-3.4-2.2-4.8-.6-.6.6-1 1.8-.8 2.8 0-1 .4-1.8 1.4-2.4.6-.4 1.6-.4 2.2-.2 1.6.8 1.6 3.2 0 4 .2.2.4.6.6.8.2 0 .2-.2.4-.2s.2.4.2.4l.2.2c0 .2 0 .2-.2.2-.2.2-.6.4-.8.8-.2.4-.4.8-.2 1.2.2.2.4.6.8.6-.2-.2-.2-.6 0-1 0-.2.2-.2.2-.2v.4c0 .2 0 .6.2.8.2.4.6.4 1 .6-.2-.2-.4-.6-.4-1h.4c.2 0 .2.2.4.2s.4 0 .6.2c.2.2.4.6.6.8 0-.2-.2-.6-.2-1 0-.2.4-.2.4-.4.2-.2.4-.4.6-.8 0-.2 0-.6.2-.8.2-.2.6-.4.8-.4.2 0 .2-.2.4-.2h1c.6 0 1.2-.2 1.8-.2h.4c.2 0 .2 0 .2.2.2.2.2.6.4.8.6 1 1.6 1.6 2.8 2 .6.2 1.4.4 2 .4.6 0 1.4.2 1.4 1-2.4.2-4.6.2-6.8.8l-1.8.6c-.2.2-.6.2-.8.4-.2 0-.2 0-.4.2-.2.4 0 .8.2 1.2.2.2.4.2.4.4.2.2.2.6.4.8.4 1 .8 1.8 1.6 2.6.6.6 1.2 1 1.8 1.6.4.2.6.4.4 1-.2.4-.4.8-.8 1-.4.2-.6.6-1 .8-.2.2-.2.2-.4.2h-1.2c-.2 0-.4.2-.4.2-.2 0-.4 0-.6-.2-.6-.2-1-.4-1.6 0-.4.4-.8 1-.8 1.6 0 .2-.2.8 0 1 .2-.2.4-.4.6-.4 0 0 .2-.4.4-.4l.2.4h.2c.2 0 .4.2.4.2.2.2.2.4.2.6.2.2.2.4.4.6 0 0 .6.4.6.2l-.2-.4c-.2-.2-.2-.6-.2-1h.8c.2-.2 0-.4.4 0 .2.2.8.8 1.2.6 0 .2.2.4.2.8 0-.2 0-.2.2-.4 0 2.6 1.6 4.8 4 5.6l-2 141.7-8.2 12-70 98h6.4v6l-22 40h-22v12h3v8h7l-9 18v227.9H372v195.9h-8v14h8v24.2h-58v33.8h-8v88h-14v57.8h439.8v-56.4h-13.9zM525.2 11.9c.4.2.6.6.4 1 0 .4-.6.6-1 .4-.6-.2-.8-.8-1-1.4.4 0 1-.4 1.6 0zm-14.6 20.4c.4-.2.8-.2 1.2-.4h.4c.2 0 .2 0 .2.2.4.8 1 1.4 1.6 2l.8.8.6.6.2.2c.2.2.2.2.2.4 0 .8.6 1 1.2.8.4 0 .6-.2 1 0s.6.2.8.4c.2.2.6.4 1 .4.2 0 .4 0 .4.2h.4c.2 0 .2 0 .2.2.2.8.6 1.6.6 2.4v.6c0 .2-.4.2-.4.2l-.2.2s-.2.2-.2.4h-.4c-.2 0-.6 0-.8.2-.2 0-.4.2-.6 0-.2-.2-.4-.2-.6-.2-.6-2.8-3-5-5.8-5-.4 0-.8 0-1.2.2.2-.2.4-.4.4-.6 0-.6-.6-1.2-1-1.4-.4-.4-1-.6-1-1-.8-1.2.4-1.6 1-1.8zM412 503.9c0-55.2 44.8-100 100-100s100 44.8 100 100-44.8 100-100 100-100-44.9-100-100zm267.9 346.8h24v24h-24v-24zm-6 0v24h-22v-24h22zm-323.8 0h22v24h-22v-24zm-30 0h24v24h-24v-24zm142.7-393l9 8-2 2.2-9-8 2-2.2zm-5.4 36.4l-11.8-2.6.6-2.8 11.8 2.6-.6 2.8zm-5.6-27l16.8 9.6-1.8 3.2-16.8-9.6 1.8-3.2zm9 58.5l1.2 2.6-11 5-1.2-2.6 11-5zm1.2-45.3l-1.2 2.6-11-5 1.2-2.6 11 5zm-3.8-17.2l9.8 7.2-1.8 2.4-9.8-7.2 1.8-2.4zm20.2-21.2l9.6 16.8-3.2 1.8-9.6-16.8 3.2-1.8zm15.4 9.8l-3.8-11.4 2.8-.8 3.8 11.4-2.8.8zm-25.8 1.2l8 9-2.2 2-8-9 2.2-2zm10.4 95.7l2.4 1.8-7.2 9.8-2.4-1.8 7.2-9.8zm-7.2-98.5l2.4-1.8 7.2 9.8-2.4 1.8-7.2-9.8zm-29.8 52.4h19.4v3.6h-19.4v-3.6zm16.8 42.9l-1.8-2.4 9.8-7.2 1.8 2.4-9.8 7.2zM445 495.7l12 1.2-.4 3-12-1.2.4-3zm23.6 35.9l-16.8 9.6-1.8-3 16.8-9.6 1.8 3zm-20 36c-.8-.8-.8-2.2 0-3.2s2.2-.8 3.2 0 .8 2.2 0 3.2-2.2.8-3.2 0zm-5.8-17.4c3 0 4.6-1.6 4.6-3.4 0-2-1.2-3-2.6-3.8 1-.6 2.2-1.4 2.2-2.8 0-1.8-1.6-3-3.8-3-2.4 0-4 1.4-4 3.4 0 1.4.8 2.4 2.2 3-1.6.8-2.6 1.8-2.6 3.2-.4 2.2 1.6 3.2 4 3.4zm0-12.2c.8 0 1.6.8 1.6 2.2 0 1-.4 1.8-1 2.2-1.6-.8-2.4-1.6-2.4-2.4.2-1.2 1-2 1.8-2zm-.8 6.2c1.6.8 2.8 1.6 2.8 3.2 0 1.2-.8 1.8-1.6 1.8-1.2 0-2.2-1.2-2.2-2.6 0-.8.2-1.8 1-2.4zm6.2-17.6l-.8-2.8 11.4-3.8.8 2.8-11.4 3.8zm10.6-38.1l-11.4-3.8.8-2.8 11.4 3.8-.8 2.8zm-7-48.2c.8.8.8 2.2 0 3.2s-2.2.8-3.2 0-.8-2.2 0-3.2 2.4-1 3.2 0zm-9.2 23c0 3.2 1.4 6.4 4.6 6.4s4.6-3.2 4.6-6.4c0-3-1.4-6.4-4.6-6.4s-4.6 3.4-4.6 6.4zm6.2 0c0 1.8-.2 5.6-1.6 5.6-1.4 0-1.6-3.8-1.6-5.6s.2-5.6 1.6-5.6c1.4 0 1.6 3.8 1.6 5.6zm37.4-21.6l5 11-2.6 1.2-5-11 2.6-1.2zm-41.6 68.2l12-1.2.4 3-12 1.2-.4-3zm13.4 7.3l-11.8 2.6-.6-2.8 11.8-2.6.6 2.8zm90.4 63.4c-.2-.2-.4-.8-.2-1 1.4 0 3-.4 4-.8 1.2-.6 1.8-1.6 1.8-2.6 0-2.8-3-3.2-5-3.2-.6 0-.8-.2-.6-.6l1.2-4.6c.2-.6.2-.6.8-.6l5.2-.6c.2 0 .2 0 .2.2-.2.8-.6 1.6-1 2l-4.4.6c-.2 0-.4.2-.4.6l-.2.4c-.2.4.2.6.6.6 1 .2 2.8.4 4 1 1.2.6 2.2 1.6 2.2 3.4 0 2-1.2 3.4-2.8 4.2-1.6.4-3.6.8-5.4 1zm2.8-20.6l-7.2-9.8 2.4-1.8 7.2 9.8-2.4 1.8zm10.6-9.2l-9-8 2-2.2 9 8-2 2.2zm-86.4-113.3v-6.4c0-1.2 0-1.6-1-1.8l-.8-.2c-.2-.2-.2-.6 0-.8.8-.2 1.8-.4 2.6-.6.8-.2 1.6-.6 1.8-.6 0 0 .2 0 .2.2v10c0 1.6.2 1.8 1 1.8h.8c.2.2.2.6 0 .8h-6.4c-.2 0-.2-.6 0-.8h.8c.8.2 1 0 1-1.6zM532 569.2l-3.8-11.4 2.8-.8 3.8 11.4-2.8.8zm11.8-37.8l1.6 1 2-3.4 2 1.2c.2 2.2 1.4 4.2 3.4 5.6 1.6 1 3.4 1.2 5 .8l-1.2 1.6 9.8 7.2 1.8-2.4-9.2-6.8c.6-.2 1.2-.6 1.6-1l9.4 5.4-1 1.8 1.6 1 1.2-2 6.4 2.4-1 1.6c0 .2 0 .6.2.6h4.6c.4 0 .4 0 .4.6v.6c0 1.6-.2 1.8-1 1.8h-.8c-.2.2-.2.6 0 .8h5.8c.2 0 .2-.6 0-.8h-.4c-.8 0-1-.2-1-1.8v-.8l1 .4-.8-.6h1.4c.4-.2.4-1 0-1h-1.2c-.4 0-.4 0-.4-.6v-3.8c0-.2 0-.4-.2-.4-.4 0-1.4.4-2 .6-.4.2-.4.2-.4.8v2.2l-1.8-1.4 4.4-6.2c.4-.4.2-.6-.2-.6h-.6c-.2 0-.4.2-.6.4l-3.8 5.4-5.4-4.4 1.2-2-1.6-1-1 1.8-9.4-5.4c.2-.8 0-1.6 0-2.4l10.6 4.8 1.2-2.6-11-5-1 2.2c-.4-1.6-1.6-3-3.2-4-2-1.2-4.4-1.2-6.4-.2l-2-1.2 2-3.4-1.6-1-2 3.4-28.2-16.3v-.6c0-1.4-.4-2.8-1-4l26.8-33.2 1-1.2-2.8-2.2 1-1.2c1 .6 2 .6 3 .2l1.2 1 8-9-2.2-2-5 5.6-.6-1.2 2.2-2.8-.8-.8-2.2 2.8c-.4-.2-.6-.2-1-.4l4.4-6-2.4-1.8-7.6 10.2 1 .8c-.2 1 0 2 .8 2.8l-1 1.2-2.8-2.2-1 1.2-27 33.2c-.6-.2-1.2-.2-1.8-.2-1.8 0-3.6.6-5 1.6l-11.4-6.6c-.4-1.4-1.2-2.6-2.6-3.2-2.2-1.2-4.6-.8-6.4.6l-.6-2c2.4-1.6 5.4-1.8 8-.2l1-1.6c-4.4-2.6-10.2-1-12.8 3.4-2.6 4.4-1 10.2 3.4 12.8l1-1.6c-2.6-1.4-3.8-4.2-3.6-7l2-.6c-.6 2.2.4 4.6 2.6 5.8 1.2.8 2.8.8 4.2.6l11.4 6.6v.8c0 1.2.2 2.4.8 3.6l-2.6 3.2c-3.4-.8-7 .4-9.4 3.2l1.6 1.2c2.4-3 6.6-3.6 9.6-1.6l-2.8 3.4c-1.4-.6-3-.2-4.2 1-1.2 1.6-1 3.8.6 5 1.6 1.2 3.8 1 5-.6 1-1.2 1-3 .2-4.2l2.8-3.4c2.6 2.6 2.8 6.8.4 9.8l1.6 1.2c2.4-2.8 2.6-6.8 1.2-9.8l2.6-3c.6.2 1.4.2 2.2.2 2 0 3.8-.6 5.2-1.6l28 16.4-2.4 2.9zm35.2 13.2l.2-.2 2 .8h-1.8c-.6-.2-.6-.4-.4-.6zm-93-55.9l-.2.2-2.4.6c.2-.6.4-1.2.8-1.8.4-.6.8-1 1.2-1.6l.6 2.6c.2-.2 0 0 0 0zm7.8 4.6c-1 1.6-3.2 2.2-4.8 1.2-1.6-1-2.2-3.2-1.2-4.8 1-1.6 3.2-2.2 4.8-1.2 1.6 1 2.2 3.2 1.2 4.8zm1 1.8c.2-.2.6-.6.8-1s.4-.8.4-1l9.4 5.4c-.4.6-1 1.2-1.2 2l-9.4-5.4zm9.6 17.1c-.4-.2-.8-.4-1-.6l1.8-2.2c.2.4.4.6.8 1l-1.6 1.8zm2.2 2.2c-.2-.4-.6-.6-.8-.8l1.4-1.8c.4.2.6.4 1 .6l-1.6 2zm43.4 10.2l1 .6c-.2.4-.4.6-.6 1-.2.4-.4.8-.6 1l-1-.6 1.2-2zm-32.8-28.1c-.4-.2-.6-.4-1-.6l26.4-32.6.8.8-26.2 32.4zm1.6 1.2l26.4-32.4.8.8-26.4 32.6c-.4-.4-.6-.6-.8-1zm.8 12c.4-.6.8-1.2 1.2-2l27.4 16-1.2 2-27.4-16zm16.8 44.9l5 11-2.6 1.2-5-11 2.6-1.2zm11.4-133.9c-3.4-1.4-7-2.6-10.6-3.8l.8-2.8c15 4.2 28.6 12.2 39.4 22.8l-2.2 2.2c-8-8-17.2-14-27.4-18.4zm32.6 45.4c1.4-1.4 2.6-3.2 2.6-5.2 0-1.4-.8-2.4-2.2-2.4-1.2 0-2 .8-2.6 1.8-.2.2-.6 0-.6-.2.8-2 2.6-3 4.6-3 2.4 0 3.8 1.4 3.8 3.4 0 1.6-.6 2.6-3 4.8l-1 .8c-.8.8-1 1-1 1.2 0 .2.2.2.4.2h2.4c1.4 0 1.6 0 2.2-1 .2-.2.6-.2.6.2-.2 1.2-.6 2.6-1 3h-8.2c-.2 0-.2-.2-.2-.4.8-.8 2-1.8 3.2-3.2zm-4.2 98.3c.8.8.8 2.2 0 3.2s-2.2.8-3.2 0-.8-2.2 0-3.2 2.2-.8 3.2 0zm-53.6-5.2l2.8-.6 2.6 11.8-2.8.6-2.6-11.8zm34.2-3.6l-8-9 2.2-2 8 9-2.2 2zm-131.4-74.9c.4-1.2 1.6-1.8 2.6-1.6s1.8 1.6 1.6 2.6-1.6 1.8-2.6 1.6c-1-.2-2-1.6-1.6-2.6zm8.4 27.4c-1.6 1.6-4.2 2.6-6 2.8-.2-.2-.2-.6 0-.6 3.8-1 5.8-4.2 5.8-7.8 0-1.6-.4-4.4-2.2-4.4-.8 0-1.4 1.2-1.4 2.4 0 1.6.6 3.4 2 3.6h.6s.2.2.2.4c-.4.4-1.2.6-2 .6-1.8 0-3.4-1.6-3.4-3.6 0-2.6 2-4.4 4.4-4.4 3 0 4.6 2.4 4.6 5 .2 2.4-1 4.6-2.6 6zm-6.8 16.3c1.2-.4 2.4.4 2.6 1.6.2 1.2-.4 2.4-1.6 2.6s-2.4-.4-2.6-1.6c-.2-1.2.4-2.2 1.6-2.6zm80.8 60.4c0-2.2 1-4.4 2.6-6 1.6-1.4 4-2.6 6.2-2.6.2.2.2.4 0 .8-2.4.6-3.4 1.4-4.6 2.8-1 1.2-1.4 3.2-1.4 5 0 2.2.8 4.6 2.2 4.6 1.2 0 1.4-1.2 1.4-2.2 0-1.4-.6-3.8-2.2-3.8h-.4c-.2 0-.2-.2-.2-.4.4-.4 1.2-.8 2-.8 2.4 0 3.6 1.8 3.6 3.8 0 2.6-1.8 4.4-4.6 4.4-2.8-.2-4.6-2.4-4.6-5.6zm-41.2-147.3v-6.4c0-1.2 0-1.6-1-1.8l-.8-.2c-.2-.2-.2-.6 0-.8.8-.2 1.8-.4 2.6-.6.8-.2 1.6-.6 1.8-.6 0 0 .2 0 .2.2v10c0 1.6.2 1.8 1 1.8h.8c.2.2.2.6 0 .8h-6.4c-.2 0-.2-.6 0-.8h.8c.8.2 1 0 1-1.6zm-28.2 32h-3.2c-.2 0-.2-.6 0-.8h.8c1 0 1-.2 1-1.8v-6.4c0-1.2 0-1.6-1-1.8l-.8-.2c-.2-.2-.2-.6 0-.8.8-.2 1.8-.4 2.6-.6.8-.2 1.6-.6 1.8-.6 0 0 .2 0 .2.2v10c0 1.6.2 1.8 1 1.8h.8c.2.2.2.6 0 .8-.6.2-2 .2-3.2.2zm66.6 90.1l3 .4-1.2 12-3-.4 1.2-12zm-31.2 11.2c.4-.8.6-1.2.6-1.6 0-.2-.2-.4-.6-.4h-4.2c-1.2 0-1.4.2-1.8 1-.2.2-.6 0-.6-.2.4-1 .6-2.2.8-3h9c.2 0 .2.2.2.4-.6.8-1.2 1.8-2 3.2l-5.8 10c-.4 0-.8-.2-1-.6l5.4-8.8zm40.4-15v19.4h-3.6v-19.4h3.6zM518 572l-1.2-12 3-.4 1.2 12-3 .4zm-18.6-13.6l2.8.6-2.6 11.8-2.8-.6 2.6-11.8zm47 8.2l-9.6-16.8 3.2-1.8 9.6 16.8-3.2 1.8zm-97-127.7l-2.2-2.2c11-10.6 24.4-18.4 39.4-22.8l.8 2.8c-3.6 1-7 2.2-10.6 3.8-10 4.6-19.2 10.6-27.4 18.4zm39.6-22c1.2-.4 2.4.4 2.6 1.6.2 1.2-.4 2.4-1.6 2.6-1.2.2-2.4-.4-2.6-1.6-.2-1.2.4-2.2 1.6-2.6zm1.4-.6l-.8-2.8c7.4-1.8 15-2.8 22.8-2.8 7.8 0 15.4 1 22.8 2.8l-.8 2.8c-7.2-1.8-14.4-2.6-22-2.6s-14.8.8-22 2.6zm-65.2 62.8l-2.8-.8c4.4-15 12.4-28.6 23-39.4l2.2 2.2c-8 8.2-14.2 17.6-18.6 28-1.6 3.2-2.8 6.6-3.8 10zm-1 46.9l-2.8.8c-1.8-7.2-2.8-14.8-2.8-22.6 0-8 1-15.8 2.8-23.2l2.8.8c-1.8 7.2-2.8 14.8-2.8 22.4.2 7.5 1.2 14.6 2.8 21.8zm111.6-109.1c1.2.4 1.8 1.6 1.6 2.6s-1.6 1.8-2.6 1.6-1.8-1.6-1.6-2.6c.2-1 1.4-1.8 2.6-1.6zm26 40.8l2 2.2-9 8-2-2.2 9-8zm14.8 24.2l.8 2.8-11.4 3.8-.8-2.8 11.4-3.8zm2 6.8l.6 2.8-11.8 2.6-.6-2.8 11.8-2.6zm-22.4-11.8l16.8-9.6 1.8 3.2-16.8 9.6-1.8-3.2zM447 567.2l-2.2 2.2c-10.6-11-18.6-24.6-22.8-39.8l2.8-.8c1 3.6 2.4 7.2 3.8 10.8 4.4 10.2 10.6 19.4 18.4 27.6zm15.8-16.4l-2-2.2 9-8 2 2.2-9 8zm113.4-110.5c.8.8.8 2.2 0 3.2s-2.2.8-3.2 0-.8-2.2 0-3.2 2.2-1 3.2 0zm23.2 86.9c-.4 1.2-1.6 1.8-2.6 1.6-1-.2-1.8-1.6-1.6-2.6s1.6-1.8 2.6-1.6 2 1.4 1.6 2.6zm-5.2-20.9c0-1.8-.8-3-2.4-3-.8 0-1.4.4-2 .8-.4 0-.6-.4-.4-1 .8-.4 2.4-1 3.2-1.6.4-.4.8-.8.8-1.8 0-.8-.6-1.4-1.6-1.4s-1.8.8-2.4 1.6c-.2 0-.6-.2-.6-.4.8-1.6 2.4-2.6 4.2-2.6 2 0 3.2 1 3.2 2.2 0 .8-.4 1.6-2.6 2.6-.2.2 0 .2.2.2 1.8 0 3.4 1.2 3.4 3 0 1.4-.6 2.8-2.2 4-1.8 1.2-3.4 1.6-4.6 1.6-1.2 0-2.2-.4-2.2-1.4 0-.6.4-1 1.2-1 .8 0 1.2.8 1.4 1 .2.4.6.4.8.4.8.4 2.6-.8 2.6-3.2zm3.6-23c-1.2.4-2.4-.4-2.6-1.6s.4-2.4 1.6-2.6c1.2-.2 2.4.4 2.6 1.6.2 1.2-.4 2.4-1.6 2.6zm2.6-1.4l2.8-.8c1.8 7.4 2.8 15.2 2.8 23.2 0 7.8-1 15.2-2.8 22.6l-2.8-.8c1.8-7 2.6-14.2 2.6-21.8.2-7.6-.8-15.2-2.6-22.4zm-23-41l2.2-2.2c10.6 10.8 18.6 24.4 23 39.4l-2.8.8c-1-3.4-2.2-6.8-3.6-10-4.6-10.4-10.8-19.8-18.8-28zM477 587.8c3.4 1.4 6.8 2.6 10.4 3.6l-.8 2.8c-15.2-4.4-28.6-12.4-39.6-23l2.2-2.2c8 8.2 17.4 14.4 27.8 18.8zm35.4 10.2c-7.8 0-15.6-1-23-2.8l.8-2.8c7.2 1.8 14.6 2.8 22.2 2.8s15-1 22.2-2.8l.8 2.8c-7.4 1.8-15.2 2.8-23 2.8zm-23.4-7.2c-1.2-.4-1.8-1.6-1.6-2.6s1.6-1.8 2.6-1.6c1 .2 1.8 1.6 1.6 2.6s-1.4 2-2.6 1.6zm86.8-21.6l2.2 2.2c-11 10.8-24.6 18.8-39.6 23l-.8-2.8c3.4-1 7-2.2 10.4-3.6 10.2-4.6 19.6-10.8 27.8-18.8zm24-40.4l2.8.8c-4.2 15.2-12.2 28.8-22.8 39.8l-2.2-2.2c7.8-8 14-17.4 18.2-27.6 1.8-3.6 3-7.2 4-10.8zm-62.6 59.4c.4 1.2-.4 2.4-1.6 2.6-1.2.2-2.4-.4-2.6-1.6-.2-1.2.4-2.4 1.6-2.6 1.2-.2 2.4.4 2.6 1.6zm29.2-125.1l1.8 2.4-9.8 7.2-1.8-2.4 9.8-7.2zM506 426.7v-6.4c0-1.2 0-1.6-1-1.8l-.8-.2c-.2-.2-.2-.6 0-.8.8-.2 1.8-.4 2.6-.6.8-.2 1.6-.6 1.8-.6 0 0 .2 0 .2.2v10c0 1.6.2 1.8 1 1.8h.8c.2.2.2.6 0 .8h-6.4c-.2 0-.2-.6 0-.8h.8c1 .2 1 0 1-1.6zm-3.8 22.6l-2.8.6-2.6-11.8 2.8-.6 2.6 11.8zm13.6-23.4c1.4-1.4 2.6-3.2 2.6-5.2 0-1.4-.8-2.4-2.2-2.4-1.2 0-2 .8-2.6 1.8-.2.2-.6 0-.6-.2.8-2 2.6-3 4.6-3 2.4 0 3.8 1.4 3.8 3.4 0 1.6-.6 2.6-3 4.8l-1 .8c-.8.8-1 1-1 1.2s.2.2.4.2h2.4c1.4 0 1.6 0 2.2-1 .2-.2.6-.2.6.2-.2 1.2-.6 2.6-1 3h-8.2c-.2 0-.2-.2-.2-.4 1-.8 2-2 3.2-3.2zm2.2 10.6l3 .4-1.2 12-3-.4 1.2-12zm-7.4-3.2h3.6v19.4h-3.6v-19.4zm-24.4 133.5l-2.6-1.2 5-11 2.6 1.2-5 11zm6.6 2.4l-2.8-.8 3.8-11.4 2.8.8-3.8 11.4zM468 555.6l-2.2-2 8-9 2.2 2-8 9zm10.4 11l-3.2-1.8 9.6-16.8 3.2 1.8-9.6 16.8zm25.4-129.7l3-.4 1.2 12-3 .4-1.2-12zm74.8 82.9l-11.8-2.6.6-2.8 11.8 2.6-.6 2.8zm1.2-7l-12-1.2.4-3 12 1.2-.4 3zM566 520l11.4 3.8-.8 2.8-11.4-3.8.8-2.8zm9-41.9l-11 5-1.2-2.6 11-5 1.2 2.6zm-7 21.8l-.4-3 12-1.2.4 3-12 1.2zm-40-61.8l-2.6 11.8-2.8-.6 2.6-11.8 2.8.6zm55.4 68H564v-3.6h19.4v3.6zm-32-68.6v-6.4c0-1.2 0-1.6-1-1.8l-.8-.2c-.2-.2-.2-.6 0-.8.8-.2 1.8-.4 2.6-.6.8-.2 1.6-.6 1.8-.6 0 0 .2 0 .2.2v10c0 1.6.2 1.8 1 1.8h.8c.2.2.2.6 0 .8h-6.4c-.2 0-.2-.6 0-.8h.8c.8.2 1 0 1-1.6zm-5.2 4.4l3.2 1.8-9.6 16.8-3.2-1.8 9.6-16.8zm-7.6-.2l2.6 1.2-5 11-2.6-1.2 5-11zm-6.6-2.4l2.8.8-3.8 11.4-2.8-.8 3.8-11.4z" fill="#36434f"/></svg>