<svg version="1.1" xmlns="http://www.w3.org/2000/svg" x="0" y="0" viewBox="0 0 512 512" xml:space="preserve"><path d="m512 229-6.9 14.4L256 123.5 6.9 243.5 0 229l237.6-114.4 18.4-8.9 18.4 8.9L512 229zm-86.5 97.3h-149v6h149v-6zm0-40h-149v6h149v-6zm0 20h-149v6h149v-6zm0-10h-149v6h149v-6zm0 20h-149v6h149v-6zm0 60h-149v6h149v-6zm0-10h-149v6h149v-6zm0-30h-149v6h149v-6zm0 20h-149v6h149v-6zm0-10h-149v6h149v-6zm-339-24h149v-6h-149v6zm0 60h149v-6h-149v6zm0-80h149v-6h-149v6zm0-16v6h149v-6h-149zm0 46h149v-6h-149v6zm0-20h149v-6h-149v6zm0 50h149v-6h-149v6zm0 10h149v-6h-149v6zm0-20h149v-6h-149v6zm0-10h149v-6h-149v6zM256 132.4l220 106v167.9H36v-168l220-105.9zM78.5 391.3h165v-115h-165v115zm190-115v115h165v-115h-165zm-12.5-74c-6.6 0-12 5.4-12 12s5.4 12 12 12 12-5.4 12-12c0-6.7-5.4-12-12-12z" fill="#36434f"/></svg>