<svg version="1.1" xmlns="http://www.w3.org/2000/svg" x="0" y="0" viewBox="0 0 512 512" xml:space="preserve"><path d="M256 277c-48.9 0-97 5.4-143.8 16.1.6-4.2 1.2-8.5 1.8-13.1 2.6-21.9 5.7-47.4 8.5-70.6 4.8-40.2 38.9-70.4 79.4-70.4 0 0 27.1 5 54.1 5s54.1-5 54.1-5c40.5 0 74.6 30.2 79.4 70.4 2.8 23.2 5.9 48.7 8.5 70.6.6 4.6 1.2 8.9 1.8 13.1C353 282.4 304.9 277 256 277zm254.3 91c-26.3-5.1-73.1-15.7-132-36-84.8-20-159.8-20-244.6 0-58.8 20.3-105.7 31-132 36-2.6.5-2.2 4 .5 4l47.8 1 206-1 206 1 47.8-1c2.6 0 3-3.5.5-4z" fill="#36434f"/></svg>