<svg xmlns="http://www.w3.org/2000/svg" viewBox="0 0 512 512" xml:space="preserve"><path d="M261.3 282.2c-.3-.5-1.2-.4-1.2.2v58.3c0 6.6 7.4 10.3 12.7 6.3l1.5-1.1c3.5-2.7 4.9-7.2 3.6-11.4l-16.6-52.3zm93.4-63.8-15.2 2c7 4.7 11.7 12.6 11.7 21.8 0 14.3-11.7 26-26 26s-26-11.7-26-26c0-6.6 2.4-12.5 6.5-17.2l-13.2 1.8c-6.4.8-11.9 5-14.4 10.9-5.3 12.2-.2 26.5 11.7 32.6l3.6 1.8c16.7 8.6 35.6 11.8 54.1 9.2 13.4-1.9 23.8-12.7 24.9-26.3l1.6-18.4c.9-10.8-8.4-19.7-19.3-18.2zm-45.1 23.7c0-8.6 7-15.6 15.6-15.6s15.6 7 15.6 15.6-7 15.6-15.6 15.6-15.6-7-15.6-15.6zm7.6 0c0 4.5 3.6 8.1 8.1 8.1s8.1-3.6 8.1-8.1-3.6-8.1-8.1-8.1-8.1 3.7-8.1 8.1zM285.6 415zm-19.1-4.1zM133.7 122.3c-1.7.2-3 1.7-2.9 3.5.6 6.8 1 13.7 1 20.7 0 3 0 5.8-.1 8.7 0 1.8 1.3 3.2 3.1 3.3h.1c1.7 0 3.1-1.4 3.2-3.1 0-3 .1-5.9.1-8.9 0-7.2-.3-14.3-1-21.3-.2-1.7-1.8-3.1-3.5-2.9zm243.4 36.2c1.9-.1 3.3-1.5 3.2-3.3-.1-2.9-.1-5.7-.1-8.7 0-7 .3-13.9 1-20.7.1-1.8-1.2-3.3-2.9-3.5-1.7-.2-3.3 1.2-3.5 2.9-.6 7-1 14.1-1 21.3 0 3 0 5.9.1 8.9.2 1.7 1.5 3.1 3.2 3.1zM217.4 394.8zm-46.2-152.7c0-8.6 7-15.6 15.6-15.6s15.6 7 15.6 15.6-7 15.6-15.6 15.6c-8.6.1-15.6-7-15.6-15.6zm7.5 0c0 4.5 3.6 8.1 8.1 8.1s8.1-3.6 8.1-8.1-3.6-8.1-8.1-8.1-8.1 3.7-8.1 8.1zm55.2-4.4c-2.5-5.9-8.1-10.1-14.4-10.9l-13.2-1.8c4 4.6 6.5 10.6 6.5 17.2 0 14.3-11.7 26-26 26s-26-11.7-26-26c0-9.1 4.7-17.1 11.7-21.8l-15.2-2c-10.7-1.5-20.2 7.4-19.2 18.3l1.6 18.4c1.2 13.5 11.6 24.4 24.9 26.3 18.6 2.7 37.5-.6 54.1-9.2l3.6-1.8c11.8-6.3 16.9-20.5 11.6-32.7zm16.8 44.5L234 334.5c-1.3 4.1.1 8.7 3.6 11.4l1.5 1.1c5.2 4 12.7.3 12.7-6.3v-58.3c.1-.7-.8-.8-1.1-.2zM109 271.3c-5.4-18.7-7.5-38.3-6.1-58 .5-6.6 2.5-12.8 5.8-18.4V140c0-1 .1-2 .1-3v-.4c.7-14.9 3.7-29.2 8.7-42.5v.1C138.1 39.3 191 0 253.1 0h5.6c62.1 0 115 39.2 135.4 94.2.1.1.1.3.1.4s.1.2.1.4c5.6 15.4 8.7 32.1 8.7 49.4v50.3c3.4 5.6 5.5 12 6.1 18.7 1.5 19.9-.7 39.8-6.4 58.8-.2 4.1-.4 8.3-.7 12.4l-8.7 111.9c-.1 1.4-.2 2.7-.4 4-1.2 9.3-3.8 18.5-7.9 27-.5 1.2-1.2 2.4-1.8 3.6-2.5 4.7-5.4 9.2-8.8 13.4-2.5 3.2-5.2 6.2-8.2 8.9l-37.8 36.2c-1 .8-1.9 1.8-2.9 2.7-1.9 1.7-3.9 3.3-6.1 4.8-3.1 2.2-6.4 4.2-9.8 5.9-2.2 1.2-4.6 2.2-6.9 3.2-3.5 1.4-7.2 2.5-10.8 3.5-2.4.6-5 1.1-7.5 1.5-3.8.5-7.6.8-11.6.8h-34.1c-20.7 0-40.6-8-55.5-22.3l-37.8-36.2c-15.7-15.1-25.3-35.4-27-57l-8.7-111.9c-.3-4.4-.5-8.9-.7-13.3zm282-78.4-3-3c-8-8-18.9-12.4-30.1-12.4-3.3 0-6.6.4-9.8 1.2l-58.9 14c-10.8 2.5-22 3.9-33.1 3.9s-22.3-1.3-33.2-3.9l-58.9-14c-3.2-.7-6.5-1.2-9.9-1.2-11.1 0-22.2 4.6-30 12.5l-3 3c-5.6 5.6-9 13.1-9.7 21-1.4 18.6.5 37.2 5.8 55.1l.3 1v1.1c.2 3.8.3 8.4.7 12.7l.1 1.1 19.6 36.1c3.9 7.2 11.5 11.7 19.6 11.7 3.2 0 6.3-.6 9.1-2l40.1-17.9c2.2-1 4.5-1.5 6.9-1.5 9.3 0 16.9 7.5 16.9 16.9v26.8c0 8-4.1 17-8.9 24.6.6.2 1.2.5 1.7 1l1.5 1.2c.3-.2.6-.4 1-.5 1-.5 2.1-.7 3.3-.7 1.5 0 2.9.4 4.1 1.3h.2l2.8 2.1.3-.3c1.6-1.5 3.6-2.3 5.7-2.3h2.7c4.1 0 8 1.8 10.7 4.9l.3.3.3-.3c2.8-3.2 6.5-4.9 10.7-4.9h2.6c2.1 0 4.2.8 5.7 2.3l.3.3 2.8-2.1h.2c1.2-.8 2.7-1.3 4.1-1.3 1.2 0 2.2.3 3.3.7.3.2.6.3 1 .5l1.5-1.2c.5-.4 1.2-.8 1.9-1.1-5.9-9.6-8.9-17.6-8.9-24.5V328c0-9.3 7.5-16.9 16.9-16.9 2.3 0 4.7.5 6.8 1.5l40.1 17.9c3 1.3 6.1 2 9.1 2 8.1 0 15.5-4.4 19.4-11.4l19.3-34.3.2-3c.3-4.1.5-8.4.7-12.1v-1.1l.3-1c5.4-18.2 7.4-36.9 6.1-55.7-.4-5.2-2-10.3-4.8-14.9l-1.3-2c-.7-1.4-1.9-2.7-3.2-4.1zm-4.4 179.9-1.2-1.7c-3.4 24.7-14.4 48.2-31.4 66.3l-23.2 24.8c-2.9 3-6.7 4.7-10.8 4.7-4.2 0-8.3-1.8-11.1-4.9-2.9-3.1-4.1-7.1-3.8-11.4l2.9-30.7c.2-2.7-.1-5.4-1.1-7.9l-3.4 1.7c-.1 0-.1.1-.2.1l-3.7 2.5c-.7.5-1.6.8-2.5 1.1-.7.6-1.6 1.2-2.5 1.6l-5 1.7c-.5.2-1.1.3-1.6.3-.5.4-1.3.7-1.9 1l-6.6 2.2h-.5c-.5.1-1.1.2-1.7.2h-.2c-.7.3-1.6.5-2.4.5h-6.3c-.6 0-1.3-.1-1.9-.3-.6.2-1.3.3-2 .3h-6.4c-.7 0-1.5-.1-2.1-.3-.6.2-1.4.3-2.1.3h-6.3c-.6 0-1.4-.1-2-.3-.6.2-1.3.3-1.9.3h-6.3c-.8 0-1.7-.2-2.4-.5h-.2c-.5 0-1.2-.1-1.7-.2h-.2l-6.6-2.2c-.6-.2-1.3-.5-1.9-.8-.5 0-1.1-.1-1.7-.3l-5-1.7c-1-.3-1.8-.8-2.5-1.6-1-.1-1.8-.5-2.5-1.1l-3.7-2.4c-.1-.1-.2-.2-.4-.3l-3.1-1.5c-1 2.4-1.4 5.2-1.2 7.9l2.9 30.6c.3 4.2-1 8.3-3.8 11.5-2.9 3.1-6.9 4.9-11.1 4.9-4.1 0-8.1-1.7-10.9-4.9l-23.2-24.8c-17.1-18.3-28.2-41.7-31.5-66.3l-1.3 1.8 1.8 22.8c1.6 19.6 10.2 37.9 24.3 51.4l37.8 36.2c13.4 12.8 31.1 20 49.7 20h34.4c.8 0 1.7 0 2.5-.1.5 0 1.1 0 1.6-.1.4 0 .7 0 1.2-.1 1-.1 1.8-.2 2.8-.3.3 0 .6-.1 1-.1.4-.1 1-.1 1.4-.2.8-.1 1.8-.3 2.7-.4.1 0 .2 0 .3-.1 1.1-.2 2.1-.4 3.2-.7 3.3-.8 6.6-1.8 9.8-3.1 2.1-.8 4.1-1.8 6.2-2.9 3.1-1.6 5.9-3.4 8.7-5.3 1.9-1.4 3.7-2.8 5.4-4.2.8-.7 1.7-1.6 2.5-2.3l37.8-36.2c2.7-2.5 5.1-5.2 7.4-8.1 3-3.8 5.6-7.9 8-12.1.5-1.1 1.1-2.1 1.6-3.2 3.6-7.6 6.1-15.8 7.1-24.3.1-1.2.3-2.4.3-3.6l1.7-23.2zm-215 .2-12 3.1-9.1-35.9c-8.2-2-15.5-7.3-19.9-15.2l3.8 40.6c2.3 24.7 12.8 48 29.8 66.1l13.2 14.1-1.5-5.9 12-3.1 5.6 21.7c3-.6 5.4-3.3 5.1-6.9l-2.9-30.7c-.3-4.6.4-9.1 2.3-13.3-1.6-1.5-2.5-3.5-2.5-5.7v-1.7c0-1.6.5-3.1 1.5-4.2-1-1.4-1.5-3.1-1.5-4.9v-4.9c0-2.2 1.1-4.4 3-5.6 1.3-1 2.8-1.4 4.4-1.4.7 0 1.6.1 2.3.4l.3.1.2.1 1 .4c.4-.3.8-.6 1.3-1 1.1-.5 2.1-.8 3.3-.8.3 0 .7 0 1.1.1 4.9-7.2 9.9-16.5 9.9-23.6v-26.8c0-1.4-.3-2.7-1-3.8l-31 63.7-10 28.5 4.8 18.8-7.4 1.9-15.3-59.7 7.4-1.9 3.9 15.2 11.5-9.8 29.8-61.4c-.4-.1-.7-.1-1.2-.1-1.2 0-2.2.2-3.4.7l-40.1 17.9c-2.3 1.1-4.7 1.7-7 2.2l8.3 32.7zm102.3 18v-1.3c0-.2 0-.5-.1-.7 0-.1 0-.2-.1-.3 0-.1-.1-.2-.1-.3-.1-.2-.2-.5-.3-.7-.2-.4-.4-.7-.8-1.1-.7-.7-1.8-1.2-2.9-1.2h-2.7c-3 0-5.6 1.3-7.5 3.5l-.8 1-.1.1c-.6.7-1.2 1.5-1.6 2.2-.2.4-.4.7-.5 1.2-.2.4-.3.8-.4 1.3-.1-.4-.3-.8-.4-1.3l-.6-1.2c-.4-.8-1-1.6-1.6-2.3l-.8-1c-1.9-2.2-4.6-3.5-7.5-3.5h-2.7c-1.1 0-2 .4-2.9 1.2-.3.3-.5.6-.7 1.1-.1.2-.2.5-.3.7 0 .1-.1.2-.1.2 0 .1 0 .2-.1.3 0 .2-.1.4-.1.7v1.3c-.3-.5-.7-1-1.3-1.4l-5.9-4.6c-.5-.3-1.1-.5-1.6-.5-.4 0-.8.1-1.3.3-.4.2-.8.6-1.1 1l-.3.6c-.1.2-.1.5-.1.7v1.3c-.4-.6-1-1.2-1.6-1.7l-3.9-3.1c-.4-.3-1-.5-1.5-.5-.4 0-.7 0-1.2.2-1 .4-1.5 1.3-1.5 2.3v.7c-.5-.7-1.2-1.5-1.9-2l-2.3-1.5c-.2-.1-.4-.2-.6-.2h-.2c-.1 0-.3-.1-.4-.1h-.6c-.2.1-.4.1-.6.2-.7.4-1.2 1.2-1.2 2.1v1.2c-.3-.3-.6-.5-1.1-.7l-4-1.9c-.3-.1-.6-.2-1.1-.2-.6 0-1.3.2-1.8.5-.7.5-1.2 1.4-1.2 2.2v4.9c0 1 .3 1.9 1 2.7l.6.6.1.1c.2.2.4.3.6.4l.1.1c.2.1.4.2.7.2.1 0 .1 0 .2.1.3.1.6.1 1 .1h3c.1 0 .2 0 .2-.1.2-.1.4-.1.6-.2.2-.1.5-.3.7-.4 0 .2.1.5.1.7 0 .1.1.2.1.2 0 .1.1.3.1.4s.1.2.1.3c.1.1.1.2.2.3.1.1.1.2.2.2.1.1.1.2.2.3l.2.2c.1.1.2.2.3.2.1.1.2.1.2.2.1.1.2.1.3.2.1 0 .2.1.2.1.1.1.3.1.4.1.1 0 .1 0 .2.1.2 0 .4.1.7.1h1.8c.2 0 .4 0 .6-.1.2 0 .3-.1.5-.1.5-.2 1.1-.5 1.4-1 .6 1.7 2.2 3 4.1 3h2.1c1.6 0 3-1 3.6-2.3 1 2 3 3.3 5.4 3.3h2.5c1.3 0 2.4-.5 3.2-1.5.4 2.1 1.9 3.8 3.8 4.6.3.1.6.2 1.1.3.3.1.7.1 1.2.1h6.9c.3 0 .6 0 1-.1h.2c.2-.1.5-.1.7-.2h.1c.6-.2 1.2-.6 1.6-1.1.5-.4.8-1 1.2-1.5v.2-.2c.3.5.7 1.1 1.2 1.5s1.1.7 1.7 1.1h.1c.2.1.5.2.7.2h.2c.3.1.6.1 1 .1h6.9c.4 0 .7 0 1.2-.1.3-.1.7-.2 1.1-.3 1.9-.7 3.4-2.4 3.8-4.6.7 1 1.9 1.5 3.2 1.5h2.5c2.4 0 4.5-1.4 5.4-3.3.6 1.4 2 2.3 3.6 2.3h2.1c1.9 0 3.6-1.3 4.1-3 .3.4.8.7 1.4 1 .2.1.3.1.5.1s.4.1.6.1h1.8c.2 0 .5 0 .7-.1.1 0 .1 0 .2-.1.1 0 .3-.1.4-.1s.2-.1.2-.1c.1-.1.2-.1.3-.2.1-.1.2-.1.2-.2.1-.1.2-.1.3-.2.1-.1.2-.1.2-.2.1-.1.1-.2.2-.2.1-.1.1-.2.2-.3.1-.1.1-.2.2-.3.1-.3.3-.5.3-.8.1-.3.1-.5.1-.8.2.2.5.4.7.5l.6.3c.1 0 .1 0 .2.1h.2c.2 0 .4.1.5.1h2.3c.3 0 .6 0 1-.1.1 0 .1 0 .2-.1.2-.1.4-.1.6-.2l.1-.1c.2-.1.4-.3.6-.4h.1l.6-.6c.5-.7.8-1.6.8-2.7v-4.9c0-.8-.4-1.7-1.2-2.2-.5-.3-1.2-.5-1.7-.5-.3 0-.6.1-1 .2l-3.5 1.7-.5.2c-.4.2-.8.5-1.2.8v-1.3c0-.8-.4-1.7-1.2-2.1-.2-.1-.4-.2-.6-.2h-.6c-.1 0-.3 0-.4.1h-.2c-.2.1-.4.1-.6.2l-2.3 1.5c-.7.5-1.5 1.2-1.9 2v-.6c0-1.1-.5-1.9-1.5-2.3-.1-.1-.3-.1-.4-.1s-.3 0-.4-.1h-.2c-.5 0-1.1.2-1.5.5l-1.9 1.5-2 1.6c-.6.4-1.2 1.1-1.6 1.7v-1.3c0-.2 0-.5-.1-.7l-.3-.6c-.2-.4-.6-.7-1.2-1.1-.4-.2-.8-.3-1.3-.3s-1.2.2-1.7.5l-5.9 4.6c1.3.1.9.5.5 1.1zm53 44.4 4.8-18.7-10-28.7-30.9-63.6c-.5 1.1-.7 2.2-.7 3.5v26.9c0 7.1 5 16.2 9.9 23.6.3 0 .5-.1.8-.1 1.2 0 2.3.3 3.3.8.5.3 1 .6 1.3 1l1.1-.5.2-.1.2-.1c.7-.3 1.6-.4 2.4-.4 1.5 0 3 .4 4.1 1.3 1.9 1.3 3 3.5 3 5.7v4.9c0 1.8-.5 3.5-1.5 4.9 1 1.2 1.5 2.7 1.5 4.2v1.7c0 2.1-1 4.1-2.4 5.6 1.9 4.1 2.8 8.7 2.3 13.4l-2.9 30.7c-.3 3.5 2.1 6.2 5 6.9l5.6-21.7 12 3.1-1.6 6.1 13.4-14.2c17-18.2 27.4-41.4 29.7-66.1l3.8-40.2c-4.4 7.6-11.6 12.8-19.7 14.8l-9.2 35.9-12-3.1 8.3-32.6c-2.3-.4-4.6-1.2-6.8-2.1L301.8 320c-1.2-.5-2.2-.7-3.4-.7-.5 0-1 0-1.4.1l29.8 61.4 11.5 9.8 3.9-15.3 7.4 1.9-15.3 59.7-7.4-1.5zm-126.5-31.6c.3.5.7 1 1.4 1.3l5.6 3.1c.5.3 1.3.3 1.8-.1h.1c.4 1.1 1.1 1.9 2 2.7l3.8 2.5c.5.4 1.3.5 1.8.2.1 0 .1-.1.2-.1.3 1 1.2 1.7 2.1 2l5 1.7c.6.2 1.3.1 1.8-.3.3.7.8 1.3 1.6 1.5l6.7 2.2c.5.1 1.1.1 1.5-.2.3.5 1 .8 1.6.8h6.3c.7 0 1.5-.4 1.9-1 .5.6 1.3 1 2 1h6.3c.8 0 1.6-.4 2.1-1.1.5.6 1.3 1.1 2.1 1.1h6.3c.8 0 1.6-.4 2-1 .4.5 1.2 1 1.9 1h6.3c.6 0 1.3-.3 1.6-.8.4.3 1 .4 1.5.2l6.7-2.2c.7-.2 1.3-.7 1.6-1.5.5.4 1.3.5 1.8.3l5-1.7c1.1-.3 1.8-1.1 2.1-2 .1 0 .1.1.2.1.6.3 1.3.2 1.8-.1l3.8-2.5c1-.6 1.7-1.6 2-2.7h.1c.5.3 1.2.3 1.8 0l5.6-3.1c.8-.5 1.5-1.3 1.7-2.2 0-.1.1-.2.1-.4v-2.2c0-.2 0-.3-.1-.5v-.2c0-.1-.1-.2-.1-.3 0-.1-.1-.1-.1-.2-.1-.1-.1-.2-.2-.3-.1-.2-.3-.3-.4-.4-.6-.5-1.5-.6-2.2-.5l-4.6 1.4c-1 .2-1.7 1-2 1.9 0 0-.1 0-.1-.1-.5-.4-1.3-.4-2-.2l-3.7 1.6c-1 .4-1.7 1.2-2.1 2.1l-.1-.1c-.2-.1-.3-.2-.5-.2h-.2c-.1 0-.3-.1-.4-.1h-.3c-.1 0-.3 0-.4.1l-5 2.1c-.8.3-1.5 1-1.9 1.8l-.1-.1c-.1-.1-.2-.2-.3-.2 0 0-.1 0-.1-.1-.1 0-.2-.1-.3-.1h-.2c-.1 0-.2 0-.3-.1h-.6l-5.2.5c-1 .1-1.8.6-2.3 1.5-.5-.7-1.3-1.2-2.2-1.2h-4.9c-.5 0-1.1.1-1.5.4-.1.1-.2.2-.4.3-.3-1.1-1.4-1.8-2.5-1.8h-6.2c-.8 0-1.6.4-2.1 1.1-.5-.6-1.3-1.1-2.1-1.1H248c-1.2 0-2.1.7-2.5 1.8-.1-.1-.2-.2-.4-.3-.4-.3-1-.4-1.5-.4h-5.1c-1 0-1.8.4-2.2 1.2-.5-.8-1.4-1.4-2.3-1.5l-5.2-.5h-.6c-.1 0-.2 0-.3.1h-.2c-.1 0-.2.1-.3.1 0 0-.1 0-.1.1-.1.1-.2.2-.3.2l-.1.1c-.4-.7-1.1-1.4-1.9-1.8l-5-2.1c-.2-.1-.4-.1-.6-.1h-.2c-.1 0-.3 0-.4.1h-.2c-.2.1-.3.1-.5.2l-.1.1c-.4-1-1.2-1.7-2-2l-3.7-1.6c-.6-.3-1.4-.2-1.9.2 0 0-.1 0-.1.1-.4-.8-1.2-1.6-2-1.9l-4.6-1.4c-.7-.2-1.6 0-2.2.5-.2.1-.3.3-.4.4s-.2.2-.2.3c0 .1-.1.1-.1.2s-.1.2-.1.3v.2c0 .2-.1.3-.1.5v2.3c0 .1 0 .3.1.4-.6.1-.5.4-.3.7zM253.2 8.5h-.5c-1.4 0-2.8 0-4.2.1-.7 0-1.5.1-2.1.1-.7 0-1.6.1-2.3.1-.8.1-1.8.1-2.7.2-.5 0-1.1.1-1.7.1-1.7.2-3.4.3-5 .6h-.2c-1.7.2-3.5.5-5.2.8h-.2c-1.5.3-3.1.5-4.6 1-.4.1-.7.2-1.2.2-1.3.3-2.5.6-3.8 1-.2.1-.4.1-.7.2-1.6.4-3.1.8-4.7 1.3-.1 0-.2 0-.2.1-1.5.4-3 1-4.4 1.4-.2.1-.4.1-.5.2-19.3 6.6-37 17.6-51.9 32.5-17.7 17.6-29.8 39.2-35.7 62.6 1.8 10.9 2.9 22.9 2.9 35.6 0 12.1-1 23.6-2.7 34.2 9.2-7.5 20.7-11.7 32.5-11.7 3.9 0 7.9.4 11.8 1.4l58.9 14c10.3 2.4 20.8 3.7 31.2 3.7 10.5 0 20.9-1.2 31.2-3.7l58.9-14c3.9-1 7.9-1.4 11.7-1.4 11.7 0 23.1 4 32.3 11.5-1.7-10.5-2.7-22-2.8-34 0-12.5 1.1-24.5 2.9-35.5-1.1-4.4-2.4-8.7-4-13l-.3-1c-9.6-25.7-26.4-47.8-48.9-63.7-1.3-1-2.5-1.8-3.9-2.7-.7-.4-1.4-.8-2.1-1.4-17.2-10.8-36.4-17.6-56.5-20h-.2c-1.6-.2-3.3-.3-4.9-.4h-.3c-1.7-.1-3.3-.2-5-.3h-.2c-1.7-.1-3.5-.1-5.3-.1h-5.4z" fill="#36434f"/></svg>