<svg version="1.1" xmlns="http://www.w3.org/2000/svg" x="0" y="0" viewBox="0 0 512 512" xml:space="preserve"><path d="M274 437.3h-36.2c-3 0-5 3-4 5.7l10.7 29.6c1.2 3.4 4.4 5.6 8 5.6h6.9c3.6 0 6.8-2.2 8-5.6L278 443c1-2.8-1-5.7-4-5.7zm2 5l-10.7 29.6c-.8 2.5-3.3 4.2-5.9 4.2h-6.9c-2.7 0-5.1-1.7-5.9-4.2l-10.7-29.6c-.2-.6-.1-1.4.3-2 .2-.3.7-.8 1.7-.8H274c1 0 1.5.5 1.7.8.4.6.5 1.3.3 2zm49.2-184.5c8.6 0 15.6-7 15.6-15.6s-7-15.6-15.6-15.6-15.6 7-15.6 15.6c0 8.5 7 15.6 15.6 15.6zm0-23.7c4.5 0 8.1 3.6 8.1 8.1s-3.6 8.1-8.1 8.1-8.1-3.6-8.1-8.1 3.6-8.1 8.1-8.1zm-47.2 3.6c2.5-5.9 8.1-10.1 14.4-10.9l13.2-1.8c-4 4.7-6.5 10.6-6.5 17.2 0 14.3 11.7 26 26 26s26-11.7 26-26c0-9.1-4.7-17.1-11.7-21.8l15.2-2c10.8-1.5 20.2 7.4 19.3 18.3l-1.6 18.4c-1.2 13.6-11.6 24.4-24.9 26.3-18.6 2.5-37.5-.6-54.1-9.2l-3.6-1.8c-11.9-6.2-17-20.5-11.7-32.7zm7.7 40l3.6 1.8c8.4 4.4 17.4 7.4 26.8 9.2 2.2.4 4.5 1.1 6.6 1.9l29.6 11.3c1.8.6 3.6 1 5.3 1 6.5 0 12.4-4.2 14.3-10.8l5.1-17.5c1.6-5.4 2.8-11 3.4-16.7.1-.7.2-1.5.3-2.2l1.6-18.4c.6-7.1-1.8-14.1-6.6-19.4-4.8-5.1-11.6-8.2-18.7-8.2-1.2 0-2.3.1-3.4.2l-15.3 2-33.9 4.6-13 1.7c-8.9 1.2-16.9 6.6-20.8 14.8-7.9 16.5-1.1 36.3 15.1 44.7zm-12.9-43.8c3.5-7.3 10.7-12.4 19.1-13.6l12.8-1.6 33.9-4.6 15.3-2c1-.2 2-.3 3.1-.3 6.5 0 12.7 2.8 17.2 7.5 4.4 4.8 6.6 11.3 6.1 17.8l-1.6 18.4c0 .6-.1 1.3-.2 2.1-.6 5.5-1.8 11-3.3 16.3l-5.1 17.5c-1.6 5.4-6.7 9.2-12.3 9.2-1.6 0-3.1-.3-4.6-.8l-29.7-11.1c-2.3-.8-4.7-1.6-6.9-2-9.1-1.8-17.9-4.8-26.1-9l-3.6-1.8c-15.2-7.9-21.5-26.6-14.1-42zm-86.1 23.9c8.6 0 15.6-7 15.6-15.6s-7-15.6-15.6-15.6-15.6 7-15.6 15.6c0 8.5 7 15.6 15.6 15.6zm0-23.7c4.5 0 8.1 3.6 8.1 8.1s-3.6 8.1-8.1 8.1-8.1-3.6-8.1-8.1 3.7-8.1 8.1-8.1zM230.8 445c-.2-.6-.6-1.3-1.2-1.7l-15-12.8c-.7-.5-1.5-.8-2.3-.8-2 0-3.9 1.7-3.7 3.9l1.6 17.1c0 .4 4.1 18 6.3 27.2.7 3.2 3.2 5.7 6.4 6.5.7.2 1.5.3 2.2.3 3.6 0 7-2.1 8.7-5.5l1.3-2.7c2.5-5.3 2.9-11.5.8-17-1.9-5.5-4.3-12-5.1-14.5zm2.4 30.6l-1.3 2.7c-1.3 2.7-3.9 4.2-6.8 4.2-.6 0-1.2-.1-1.8-.2-2.3-.5-4.2-2.4-4.8-4.9-.4-2-1-4.4-1.6-6.9-1.9-8-4.5-18.9-4.7-20.1l-1.6-17.1c-.1-.4 0-.7.3-1.1s.8-.5 1.3-.5c.3 0 .6.1 1 .3l15 13c.2.2.4.4.5.7.6 1.6 1.8 5 3.1 8.6l2 5.8c1.9 5.1 1.7 10.6-.6 15.5zm.8-141.1l16.7-52.3c.3-.5 1.2-.4 1.2.2v58.3c0 6.6-7.5 10.3-12.7 6.3l-1.5-1.1c-3.6-2.7-5-7.3-3.7-11.4zm6.6 31.2c0 2-1.7 3.7-3.7 3.7s-3.7-1.7-3.7-3.7 1.7-3.7 3.7-3.7 3.7 1.7 3.7 3.7zm19.5-25v-58.3c0-.6.8-.7 1.2-.2l16.7 52.3c1.3 4.1-.1 8.7-3.6 11.4l-1.5 1.1c-5.4 4-12.8.2-12.8-6.3zM366.4 84.9c-7.9-6.5-16.9-12-26.8-16l-2.1 19.3c9 4.4 17.3 9.9 24.4 16.2l4.5-19.5zm-26.7 2l1.7-15c8.2 3.6 15.8 8.3 22.6 13.8l-3.4 14.8c-6.3-5.3-13.4-9.8-20.9-13.6zM256 79.6c-18.2 0-34.9 4.7-48 12.4-2.2 1.3-4.5 2.8-6.5 4.2l15.7 60.9c1.7 6.5 6.8 11.6 13.3 13.3l5.3 1.4c6.6 1.7 13.4 2.5 20.2 2.5 6.8 0 13.6-.8 20.2-2.5l5.3-1.4c6.5-1.7 11.6-6.8 13.3-13.3l15.7-60.9c-1.9-1.6-4.1-3-6.4-4.2-13.2-7.7-30-12.4-48.1-12.4zm36.8 77.1c-1.6 5.7-6.1 10.3-11.8 11.8l-5.3 1.4c-6.5 1.6-13.1 2.4-19.7 2.4s-13.2-.8-19.6-2.4l-5.3-1.4c-5.7-1.6-10.3-6.1-11.8-11.8l-15.4-59.6c1.7-1.3 3.4-2.3 5.1-3.3 13.3-7.7 30-12.1 47-12.1s33.8 4.4 47 12.2c1.5.8 3.3 1.9 5 3.2l-15.2 59.6zm81.1-1.3c-.1-3-.1-5.9-.1-8.9 0-7.2.3-14.3 1-21.3.2-1.7 1.8-3.1 3.5-2.9 1.7.2 3 1.7 2.9 3.5-.6 6.8-1 13.7-1 20.7 0 3 0 5.8.1 8.7.1 1.8-1.3 3.2-3.2 3.3-1.7 0-3.1-1.4-3.2-3.1zm14.2 77.1c0-6.5 2.3-11.7 5.3-11.7s5.3 5.2 5.3 11.7c0 6.5-2.3 11.7-5.3 11.7s-5.3-5.2-5.3-11.7zM138 236.6c-1-10.8 8.5-19.7 19.2-18.3l15.2 2c-7 4.7-11.7 12.6-11.7 21.8 0 14.3 11.7 26 26 26s26-11.7 26-26c0-6.6-2.4-12.6-6.5-17.2l13.2 1.8c6.4.8 11.9 5 14.4 10.9 5.3 12.2.2 26.4-11.6 32.6l-3.6 1.8c-16.7 8.6-35.6 11.9-54.1 9.2-13.4-1.9-23.8-12.8-24.9-26.3l-1.6-18.3zm76.7-164.9c15.3-1.6 31.1-2 46.9-1.2l1.9-14.5 1 .1c14.9 1 29.5 3 43.5 6.1l-.4 2.1c-13.6-3-27.7-5-42.1-5.9l-2 14.4h-1c-16-1-32.1-.5-47.6 1.1l-.2-2.2zm-83 74.8c0-7-.3-13.9-1-20.7-.1-1.8 1.2-3.3 2.9-3.5 1.7-.2 3.3 1.2 3.5 2.9.6 7 1 14.1 1 21.3 0 3-.1 5.9-.1 8.9-.1 1.7-1.5 3.1-3.2 3.1h-.1c-1.8-.1-3.1-1.5-3.1-3.3.1-2.9.1-5.7.1-8.7zm147.1 219.2c0 2-1.7 3.7-3.7 3.7s-3.7-1.7-3.7-3.7 1.7-3.7 3.7-3.7 3.7 1.7 3.7 3.7zm20.8 63.9c-.7 0-1.6.2-2.3.8l-15 12.8c-.5.4-1 1.1-1.2 1.7-.8 2.4-3.2 9-5.1 14.4-2 5.5-1.7 11.7.8 17l1.3 2.7c1.7 3.5 5.1 5.5 8.7 5.5.7 0 1.5-.1 2.2-.3 3.2-.7 5.6-3.3 6.4-6.5 2.1-9.1 6.3-26.8 6.3-27.2l1.6-17.1c.2-2.1-1.7-3.8-3.7-3.8zm-.1 20.8c-.2 1.2-2.8 12.1-4.7 20.1-.5 2.5-1.2 4.9-1.6 6.9-.5 2.4-2.4 4.4-4.8 4.9-.5.1-1.1.2-1.7.2-2.9 0-5.5-1.6-6.8-4.2l-1.3-2.7c-2.2-4.8-2.5-10.4-.7-15.4l2-5.8c1.3-3.6 2.5-7 3.1-8.6.1-.3.3-.6.5-.7l15-12.8c.3-.3.7-.4 1.1-.4.5 0 1 .2 1.3.5.2.3.3.6.3 1.1l-1.7 16.9zM178 55.6c-1.3-3.1 3.2-7.9 10-10.6 6.8-2.8 13.3-2.7 14.5.4 1.3 3.1-3.2 7.9-10 10.6-6.6 2.8-13.2 2.6-14.5-.4zm-5.2 19.2c7.5 0 16.9-1.9 26.3-5.8 20.1-8.3 33.2-22.3 29.5-31.3-1.9-4.8-8.2-7.2-16.7-7.2-7.5 0-16.9 1.9-26.3 5.8-20.1 8.3-33.2 22.3-29.5 31.3 2.1 4.8 8.3 7.2 16.7 7.2zm13.7-36.5c8.8-3.7 17.9-5.7 25.5-5.7 7.9 0 13.2 2.1 14.8 5.8 2.9 6.9-7.9 20.1-28.3 28.6-8.8 3.7-17.9 5.7-25.5 5.7-7.9 0-13.2-2.1-14.8-5.8-2.9-6.9 7.8-20.1 28.3-28.6zm-55.3 217.4c.1.7.1 1.5.3 2.2.6 5.6 1.8 11.3 3.4 16.7l5.1 17.5c1.9 6.6 8 10.8 14.4 10.8 1.8 0 3.6-.3 5.3-1l29.6-11.3c2.1-.8 4.4-1.5 6.6-1.9 9.2-1.8 18.3-4.9 26.8-9.2l3.6-1.8c16.1-8.4 22.9-28.2 15-44.8-3.9-8.1-11.9-13.6-20.8-14.8l-13-1.7-33.9-4.6-15.3-2c-1.3-.2-2.3-.3-3.5-.3-7.1 0-13.9 3-18.7 8.3-4.8 5.2-7.2 12.3-6.6 19.4l1.7 18.5zm6.7-36.2c4.2-5 10.5-7.7 17-7.7 1.1 0 2.1.1 3.2.2l15.3 2 33.8 4.7 13 1.7c8.4 1.2 15.6 6.3 19.1 13.6 7.4 15.4 1.1 34.2-14 42l-3.6 1.8c-8.2 4.2-17 7.2-26.1 9-2.2.4-4.6 1.1-6.9 2l-29.6 11.3c-1.5.5-3.1.8-4.6.8-5.7 0-10.7-3.8-12.3-9.2l-5.1-17.5c-1.6-5.3-2.7-10.8-3.3-16.3-.1-.8-.2-1.5-.2-2.1l-1.6-18.4c-.7-6.5 1.6-13 5.9-17.9zm-28.1 65.2l8.7 111.9a88.1 88.1 0 0027 56.9l37.8 36.2c15 14.3 34.8 22.3 55.5 22.3h34.1c3.9 0 7.7-.3 11.6-.8 2.5-.4 5.1-.8 7.5-1.5 3.6-1 7.3-2.1 10.8-3.5 2.3-1 4.7-2 6.9-3.2 3.4-1.7 6.7-3.7 9.8-5.9 2.1-1.5 4.1-3.1 6.1-4.8 1-.8 1.9-1.8 2.9-2.7l37.8-36.2c3-2.8 5.6-5.7 8.2-8.9 3.4-4.1 6.3-8.7 8.8-13.4.6-1.2 1.3-2.4 1.8-3.6 4-8.5 6.7-17.6 7.9-27 .2-1.4.3-2.7.4-4l8.7-111.9c.3-4.1.5-8.3.7-12.4 5.6-19 7.9-39 6.4-58.8-.5-6.7-2.7-13.1-6.1-18.7v-50.3c0-17.3-3.1-34-8.7-49.4 0-.2-.1-.3-.1-.4 0-.1 0-.3-.1-.4C373.7 39.2 320.8 0 258.7 0h-5.5c-62.1 0-115.1 39.3-135.6 94.3v-.1c-5 13.3-8 27.6-8.7 42.5v.4c0 1-.1 2-.1 3V195c-3.3 5.5-5.3 11.8-5.8 18.4-1.5 19.6.6 39.3 6.1 58 .1 4.3.4 8.8.7 13.3zm275 111.2c-1.5 19.6-10.2 37.9-24.3 51.4l-37.8 36.2c-13.5 12.8-31.1 20-49.7 20h-34.3c-18.6 0-36.3-7.1-49.7-20l-37.8-36.2c-14.1-13.5-22.7-31.7-24.3-51.4l-1.8-22.8 1.3-1.8c3.3 24.6 14.4 48.1 31.5 66.3l23.2 24.8c2.9 3.2 6.8 4.9 10.9 4.9 4.2 0 8.3-1.8 11.1-4.9 2.9-3.2 4.1-7.2 3.8-11.5l-2.9-30.6c-.2-2.7.2-5.4 1.2-7.9l3.1 1.5c.2.1.3.2.4.3l3.7 2.4c.7.5 1.6 1 2.5 1.1.7.7 1.6 1.3 2.5 1.6l5 1.7c.6.2 1.2.3 1.7.3.6.3 1.3.6 1.9.8l6.6 2.2h.2c.5.1 1.2.2 1.7.2h.2c.7.3 1.6.5 2.4.5h6.3c.6 0 1.3-.1 1.9-.3.6.2 1.4.3 2 .3h6.3c.7 0 1.5-.1 2.1-.3.6.2 1.4.3 2.1.3h6.4c.7 0 1.4-.1 2-.3.6.2 1.3.3 1.9.3h6.3c.8 0 1.7-.2 2.4-.5h.2c.6 0 1.2-.1 1.7-.2h.2l6.6-2.2c.6-.2 1.4-.5 1.9-1 .5 0 1.1-.1 1.6-.3l5-1.7c1-.4 1.8-1 2.5-1.6 1-.2 1.8-.5 2.5-1.1l3.7-2.5c.1 0 .1-.1.2-.1l3.4-1.7c1 2.4 1.3 5.2 1.1 7.9l-2.9 30.7c-.3 4.2 1 8.3 3.8 11.4 2.9 3.1 6.9 4.9 11.1 4.9 4.1 0 8-1.7 10.8-4.7l23.2-24.8c17-18.2 28-41.6 31.4-66.3l1.3 1.8-1.3 22.9zm-221.5-55.3c2.3-.5 4.7-1.2 7-2.2l40.1-17.9c1.2-.5 2.2-.7 3.4-.7.4 0 .7 0 1.2.1l-29.8 61.4-11.5 9.8-3.9-15.2-7.4 1.9 15.3 59.7 7.4-1.9-4.8-18.8 10-28.5 31-63.7c.6 1.2 1 2.4 1 3.8V355c0 7.1-5 16.3-9.9 23.6-.3-.1-.7-.1-1.1-.1-1.2 0-2.2.3-3.3.8-.4.3-.8.6-1.3 1l-1-.4-.2-.1-.3-.1c-.7-.3-1.6-.4-2.3-.4-1.6 0-3.1.4-4.4 1.4-1.9 1.3-3 3.4-3 5.6v4.9c0 1.8.5 3.5 1.5 4.9-1 1.2-1.5 2.7-1.5 4.2v1.7c0 2.2 1 4.2 2.5 5.7-1.9 4.1-2.7 8.7-2.3 13.3l2.9 30.7c.3 3.6-2.1 6.3-5.1 6.9l-5.6-21.7-12 3.1 1.5 5.9-13.2-14.1c-17-18.2-27.5-41.4-29.8-66.1l-3.8-40.6c4.2 7.9 11.6 13.2 19.9 15.1l9.1 35.9 12-3.1-8.3-32.4zm21.5 51.7c0 1.5-1.2 2.7-2.7 2.7-1.5 0-2.7-1.2-2.7-2.7 0-1.5 1.2-2.7 2.7-2.7 1.6 0 2.7 1.2 2.7 2.7zm89.1-2.5l5.9-4.6c.5-.3 1.2-.5 1.7-.5.4 0 .8.1 1.3.3.5.3 1 .6 1.2 1.1l.3.6c.1.2.1.5.1.7v1.3c.4-.6 1-1.3 1.6-1.7l2-1.6 1.9-1.5c.4-.3 1-.5 1.5-.5h.2c.1.1.3.1.4.1.1 0 .3 0 .4.1 1 .4 1.5 1.3 1.5 2.3v.7c.4-.8 1.2-1.5 1.9-2l2.3-1.5c.2-.1.4-.1.6-.2h.2c.1-.1.3-.1.4-.1h.6c.2 0 .4.1.6.2.7.4 1.2 1.3 1.2 2.1v1.3c.3-.3.7-.6 1.2-.8l.5-.2 3.5-1.7c.3-.1.6-.2 1-.2.5 0 1.2.2 1.7.5.7.5 1.2 1.4 1.2 2.2v4.9c0 1.1-.3 1.9-.8 2.7l-.6.6h-.1c-.2.1-.4.3-.6.4l-.1.1c-.2.1-.4.1-.6.2-.1.1-.1.1-.2.1-.3.1-.6.1-1 .1h-2.3c-.1 0-.3-.1-.5-.1h-.2c-.1-.1-.1-.1-.2-.1l-.6-.3c-.2-.1-.5-.3-.7-.5 0 .3 0 .5-.1.8 0 .3-.2.5-.3.8-.1.1-.1.2-.2.3-.1.1-.1.2-.2.3-.1 0-.1.1-.2.2 0 .1-.1.1-.2.2s-.2.1-.3.2c0 .1-.1.1-.2.2s-.2.1-.3.2c0 0-.1.1-.2.1s-.3.1-.4.1c-.1.1-.1.1-.2.1-.2.1-.5.1-.7.1H297c-.2 0-.4-.1-.6-.1-.2 0-.3 0-.5-.1-.5-.2-1.1-.5-1.4-1-.5 1.7-2.2 3-4.1 3h-2.1c-1.6 0-3-1-3.6-2.3-1 1.9-3 3.3-5.4 3.3h-2.5c-1.3 0-2.4-.5-3.2-1.5-.4 2.1-1.9 3.8-3.8 4.6-.3.1-.7.2-1.1.3-.4.1-.7.1-1.2.1h-6.9c-.3 0-.6 0-1-.1h-.2c-.2 0-.5-.1-.7-.2h-.1c-.6-.3-1.2-.6-1.7-1.1-.4-.4-.8-1-1.2-1.5-.3.5-.6 1.1-1.2 1.5-.4.4-1 .8-1.6 1.1h-.1c-.2.1-.5.1-.7.2h-.2c-.3.1-.6.1-1 .1H244c-.4 0-.8 0-1.2-.1-.4-.1-.7-.2-1.1-.3-1.9-.7-3.4-2.4-3.8-4.6-.7 1-1.9 1.5-3.2 1.5h-2.5c-2.4 0-4.5-1.3-5.4-3.3-.6 1.4-2 2.3-3.6 2.3h-2.1c-1.9 0-3.5-1.3-4.1-3-.3.4-.8.7-1.4 1-.2 0-.3.1-.5.1-.2.1-.4.1-.6.1h-1.8c-.3 0-.5-.1-.7-.1-.1-.1-.1-.1-.2-.1s-.3 0-.4-.1c0 0-.1-.1-.2-.1-.1-.1-.2-.1-.3-.2 0-.1-.1-.1-.2-.2-.1 0-.2-.1-.3-.2l-.2-.2c-.1-.1-.1-.2-.2-.3-.1 0-.1-.1-.2-.2s-.1-.2-.2-.3c0-.1-.1-.2-.1-.3 0-.1-.1-.3-.1-.4 0 0-.1-.1-.1-.2 0-.2-.1-.5-.1-.7-.2.1-.5.3-.7.4-.2.1-.4.1-.6.2 0 .1-.1.1-.2.1h-3c-.3 0-.6 0-1-.1-.1-.1-.1-.1-.2-.1-.3 0-.5-.1-.7-.2l-.1-.1c-.2-.1-.4-.2-.6-.4l-.1-.1-.6-.6c-.6-.7-1-1.7-1-2.7v-4.9c0-.8.4-1.7 1.2-2.2.5-.3 1.2-.5 1.8-.5.4 0 .7.1 1.1.2l4 1.9c.4.2.7.4 1.1.7v-1.2c0-1 .4-1.7 1.2-2.1.2-.1.4-.1.6-.2h.6c.1 0 .3.1.4.1h.2c.2 0 .4.1.6.2l2.3 1.5c.7.5 1.4 1.3 1.9 2v-.7c0-1.1.5-1.9 1.5-2.3.4-.2.7-.2 1.2-.2s1.1.2 1.5.5l3.9 3.1c.6.5 1.2 1.1 1.6 1.7V387c0-.2 0-.5.1-.7l.3-.6c.2-.3.6-.7 1.1-1 .4-.2.8-.3 1.3-.3s1.1.2 1.6.5l5.9 4.6c.5.4 1 .8 1.3 1.4v-1.3c0-.3.1-.5.1-.7.1-.1.1-.2.1-.3 0 0 .1-.1.1-.2.1-.2.2-.5.3-.7.2-.4.4-.7.7-1.1.8-.7 1.8-1.2 2.9-1.2h2.7c3 0 5.6 1.3 7.5 3.5l.8 1c.6.7 1.2 1.5 1.6 2.3.2.3.4.7.6 1.2.1.4.3.8.4 1.3.1-.4.2-.8.4-1.3.1-.4.3-.7.5-1.2.4-.7 1-1.5 1.6-2.2l.1-.1.8-1c1.9-2.2 4.6-3.5 7.5-3.5h2.7c1.1 0 2.1.4 2.9 1.2.4.3.6.6.8 1.1.1.2.2.5.3.7 0 .1.1.2.1.3.1.1.1.2.1.3.1.2.1.5.1.7v1.3c-.2-.6.2-1-.5-1.2zm57.6 26.4l-4.8 18.7 7.4 1.9 15.3-59.7-7.4-1.9-3.9 15.3-11.5-9.8-29.8-61.4c.4-.1.8-.1 1.4-.1 1.2 0 2.2.2 3.4.7l40.1 17.9c2.2 1 4.5 1.7 6.8 2.1l-8.3 32.6 12 3.1 9.2-35.9c8.2-1.9 15.4-7.1 19.7-14.8l-3.8 40.2c-2.3 24.7-12.7 48-29.7 66.1l-13.4 14.2 1.6-6.1-12-3.1-5.6 21.7c-2.9-.7-5.3-3.4-5-6.9l2.9-30.7c.4-4.7-.4-9.2-2.3-13.4 1.5-1.5 2.4-3.5 2.4-5.6V400c0-1.6-.5-3.1-1.5-4.2 1-1.4 1.5-3.1 1.5-4.9V386c0-2.2-1.1-4.5-3-5.7-1.2-.8-2.7-1.3-4.1-1.3-.8 0-1.7.1-2.4.4l-.2.1-.2.1-1.1.5c-.3-.3-.7-.6-1.3-1-1-.5-2.1-.8-3.3-.8-.3 0-.5.1-.8.1-4.9-7.3-9.9-16.5-9.9-23.6v-27.4c0-1.3.2-2.4.7-3.5l30.9 63.6 10 28.7zm-4.4-23.9c0-1.5 1.2-2.7 2.7-2.7 1.5 0 2.7 1.2 2.7 2.7 0 1.5-1.2 2.7-2.7 2.7-1.6-.1-2.7-1.3-2.7-2.7zm-15.1 7.9v2.2c0 .2-.1.3-.1.4-.2 1-.8 1.7-1.7 2.2l-5.6 3.1c-.6.3-1.3.3-1.8 0h-.1c-.3 1.1-1.1 2-2 2.7l-3.8 2.5c-.5.3-1.2.4-1.8.1-.1 0-.1-.1-.2-.1-.3 1-1.1 1.7-2.1 2l-5 1.7c-.5.2-1.3.1-1.8-.3-.3.7-.8 1.3-1.6 1.5l-6.7 2.2c-.5.2-1.1.1-1.5-.2-.3.5-1 .8-1.6.8h-6.3c-.7 0-1.5-.4-1.9-1-.4.5-1.2 1-2 1h-6.3c-.8 0-1.6-.4-2.1-1.1-.5.6-1.3 1.1-2.1 1.1h-6.3c-.7 0-1.5-.3-2-1-.4.5-1.2 1-1.9 1h-6.3c-.6 0-1.3-.3-1.6-.8-.4.3-1 .3-1.5.2l-6.7-2.2c-.7-.2-1.3-.7-1.6-1.5-.5.4-1.2.5-1.8.3l-5-1.7c-1-.3-1.8-1.1-2.1-2-.1 0-.1.1-.2.1-.5.3-1.3.2-1.8-.2l-3.8-2.5c-1-.7-1.6-1.6-2-2.7h-.1c-.5.4-1.3.4-1.8.1l-5.6-3.1c-.6-.3-1.1-.7-1.4-1.3-.2-.3-.3-.6-.5-.7-.1-.1-.1-.3-.1-.4v-2.3c0-.2.1-.3.1-.5v-.2c0-.1.1-.2.1-.3 0-.1.1-.1.1-.2s.1-.2.2-.3c.1-.1.2-.3.4-.4.6-.5 1.5-.7 2.2-.5l4.6 1.4c.8.3 1.6 1.1 2 1.9 0-.1.1-.1.1-.1.5-.4 1.3-.5 1.9-.2l3.7 1.6c.8.3 1.6 1.1 2 2l.1-.1c.2-.1.3-.1.5-.2h.2c.1-.1.3-.1.4-.1h.2c.2 0 .4 0 .6.1l5 2.1c.8.4 1.5 1.1 1.9 1.8l.1-.1c.1 0 .2-.1.3-.2 0-.1.1-.1.1-.1.1 0 .2-.1.3-.1h.2c.1-.1.2-.1.3-.1h.6l5.2.5c1 .1 1.8.6 2.3 1.5.4-.7 1.3-1.2 2.2-1.2h5.1c.5 0 1.1.1 1.5.4.2.1.3.2.4.3.4-1.1 1.4-1.8 2.5-1.8h6.3c.8 0 1.6.4 2.1 1.1.5-.6 1.3-1.1 2.1-1.1h6.2c1.2 0 2.2.7 2.5 1.8.2-.1.3-.2.4-.3.4-.3 1-.4 1.5-.4h4.9c1 0 1.7.4 2.2 1.2.5-.8 1.4-1.4 2.3-1.5l5.2-.5h.6c.1.1.2.1.3.1h.2c.1 0 .2.1.3.1 0 .1.1.1.1.1.1 0 .2.1.3.2l.1.1c.4-.8 1.1-1.5 1.9-1.8l5-2.1c.1-.1.3-.1.4-.1h.3c.1 0 .3.1.4.1h.2c.2 0 .3.1.5.2l.1.1c.4-1 1.2-1.7 2.1-2.1l3.7-1.6c.7-.2 1.5-.2 2 .2 0 .1.1.1.1.1.3-1 1.1-1.7 2-1.9l4.6-1.4c.7-.1 1.6 0 2.2.5.1.1.3.2.4.4.1.1.1.2.2.3 0 .1.1.1.1.2s.1.2.1.3v.2c.9.2.9.3.9.5zM253.2 8.5h5.5c26 0 50.8 7.2 72.3 20.8l-.6 24.5c-18.6-8.8-39.8-13.5-61.7-13.5-8.2 0-16.5.6-24.5 2l-7.4-32.9c5.4-.6 10.9-.9 16.4-.9zm-96.1 39.8c21.2-21.2 48.2-34.6 77.5-38.5l7.9 35 1-.2c8.3-1.4 16.7-2.1 25.1-2.1 22.3 0 43.8 4.8 62.3 13.9l1.5.7.7-26.5c7.7 5.1 15 11 21.7 17.7 17.5 17.5 29.6 39.1 35.6 62.5-1.8 11-2.9 23-2.9 35.7.1 12 1.1 23.5 2.8 34-9.3-7.5-20.8-11.5-32.4-11.5-3.8 0-7.7.4-11.7 1.4l-58.9 14c-10.3 2.5-20.7 3.7-31.2 3.7-10.4 0-20.9-1.3-31.2-3.7l-58.9-14c-3.9-1-7.9-1.4-11.8-1.4-11.8 0-23.2 4.1-32.5 11.7 1.7-10.6 2.7-22.1 2.7-34.2 0-12.6-1.1-24.6-2.9-35.6 5.9-23.4 18-45 35.6-62.6zm-45.4 165.8c.6-8 4-15.4 9.7-21l3-3c7.9-8 18.9-12.5 30-12.5 3.4 0 6.7.4 9.9 1.2l58.9 14c10.9 2.7 22.1 3.9 33.2 3.9 11.1 0 22.3-1.4 33.1-3.9l58.9-14c3.2-.7 6.5-1.2 9.8-1.2 11.3 0 22.2 4.5 30.1 12.4l3 3c5.6 5.8 9 13.3 9.7 21.1 1.4 18.8-.6 37.6-6.1 55.7l-.3 1v1.1c-.2 3.7-.4 8-.7 12.1l-.2 2.8-19.4 34.5c-3.9 7-11.4 11.4-19.4 11.4-3.1 0-6.2-.7-9.1-2l-40.1-17.9c-2.1-1-4.5-1.5-6.8-1.5-9.3 0-16.9 7.5-16.9 16.9v26.9c0 6.9 3 15 8.9 24.5-.7.2-1.4.6-1.9 1.1l-1.5 1.2c-.3-.2-.6-.3-1-.5-1.1-.4-2.1-.7-3.3-.7-1.5 0-3 .4-4.1 1.3h-.2l-2.8 2.1-.3-.3c-1.5-1.5-3.6-2.3-5.7-2.3h-2.6c-4.2 0-8 1.7-10.7 4.9l-.3.3-.5-.7c-2.8-3.1-6.6-4.9-10.7-4.9h-2.7c-2.1 0-4.1.8-5.7 2.3l-.3.3-2.8-2.1h-.2c-1.3-.8-2.7-1.3-4.1-1.3-1.2 0-2.3.2-3.3.7-.3.1-.6.3-1 .5l-1.5-1.2c-.5-.4-1.1-.7-1.7-1 4.8-7.6 8.9-16.7 8.9-24.6v-26.8c0-9.3-7.5-16.9-16.9-16.9-2.4 0-4.7.5-6.9 1.5L167 330.4c-2.9 1.4-5.9 2-9.1 2-8.2 0-15.7-4.5-19.6-11.7l-19.6-36.1-.1-1.1c-.4-4.4-.5-8.9-.7-12.7v-1.1l-.3-1c-5.6-17.5-7.5-36.1-5.9-54.6zm6.8 30.1c-3 0-5.3-5.2-5.3-11.7 0-6.5 2.3-11.7 5.3-11.7s5.3 5.2 5.3 11.7c0 6.5-2.3 11.7-5.3 11.7z" fill="#36434f"/></svg>