<svg xmlns="http://www.w3.org/2000/svg" viewBox="0 0 512 512" xml:space="preserve"><path d="M256 51.5c28.7 0 56.1 8 77.3 22.5 19.2 13.2 31.9 30.8 35.6 49.6l4.2 21.3 21.3 4c23.8 4.5 47.1 10 69.7 16.6-65.9 19.2-135.8 29-208.1 29-72.4 0-142.3-9.8-208.2-29 22.5-6.6 45.9-12.1 69.7-16.5l21.4-3.9 4.2-21.4c3.7-18.8 16.3-36.4 35.6-49.6 21.2-14.6 48.6-22.6 77.3-22.6m16.5 222.8 37.7 182.3c-17.8 2.6-36 3.9-54.2 3.9s-36.4-1.3-54.2-3.9l37.7-182.3c5.6.1 11.1.2 16.5.2s10.9-.1 16.5-.2M256 19.5c-73 0-133.4 42.5-144.3 98-32.6 6-64.1 14-94.2 23.9-23.3 7.6-23.3 40.6 0 48.2 72.6 23.7 153.4 36.9 238.5 36.9s165.9-13.2 238.5-36.9c23.3-7.6 23.3-40.6 0-48.2-30.1-9.8-61.6-17.8-94.2-23.9-10.9-55.6-71.3-98-144.3-98zm42.4 221.9c-14 .7-28.2 1.1-42.4 1.1s-28.4-.4-42.4-1.1L163.9 482c29.6 6.9 60.4 10.5 92.1 10.5s62.5-3.6 92.1-10.5l-49.7-240.6zM256 114.5c-17.1 0-31 13.9-31 31s13.9 31 31 31 31-13.9 31-31-13.9-31-31-31zm70 3.1c-15.4 0-27.9 12.5-27.9 27.9s12.5 27.9 27.9 27.9 27.9-12.5 27.9-27.9-12.5-27.9-27.9-27.9zm-140 0c-15.4 0-27.9 12.5-27.9 27.9s12.5 27.9 27.9 27.9 27.9-12.5 27.9-27.9-12.5-27.9-27.9-27.9z" fill="#36434f"/></svg>