<svg xmlns="http://www.w3.org/2000/svg" viewBox="0 0 512 512" style="enable-background:new 0 0 512 512" xml:space="preserve"><path d="M256 0C114.6 0 0 114.6 0 256s114.6 256 256 256 256-114.6 256-256S397.4 0 256 0zM49.6 168.8c11.3-26.7 27.4-50.6 48-71.2s44.5-36.7 71.2-48C196.4 37.9 225.7 32 256 32s59.6 5.9 87.2 17.6c26.7 11.3 50.6 27.4 71.2 48s36.7 44.5 48 71.2c11.7 27.6 17.6 56.9 17.6 87.2 0 13.6-1.2 26.9-3.6 40-49.3-13.5-131.2-31.2-220.4-31.2-89.6 0-172 18.1-220.4 31.4C33.2 283 32 269.6 32 256c0-30.3 5.9-59.6 17.6-87.2zm364.8 245.6c-20.6 20.6-44.5 36.7-71.2 48-27.6 11.7-56.9 17.6-87.2 17.6s-59.6-5.9-87.2-17.6c-26.7-11.3-50.6-27.4-71.2-48s-36.7-44.5-48-71.2c-2.2-5.3-4.2-10.6-6-16 10.7-3 23.2-6.2 37.2-9.3l52.2 50.6 26.4-40.5 17.3-26.5c25.2-2.8 51.9-4.6 79.3-4.6 26.7 0 52.8 1.7 77.5 4.4l43.9 67.2 31.1-30.2 21.5-20.8c14.4 3.3 27.3 6.5 38.5 9.6-1.8 5.4-3.8 10.8-6.1 16.1-11.3 26.7-27.4 50.6-48 71.2z" style="fill:#36434f"/></svg>