<svg version="1.1" xmlns="http://www.w3.org/2000/svg" x="0" y="0" viewBox="0 0 512 512" style="enable-background:new 0 0 512 512" xml:space="preserve"><path d="M256 27.5c33.5 0 65.8 9.5 90.9 26.7C371.4 71 387.5 94 392.4 119l1 5.3 5.3 1c32.1 6 63.5 14 93.2 23.6 8.8 2.9 12 10.4 12 16.5s-3.1 13.6-12 16.5c-74.2 24.2-153.6 36.5-236 36.5S94.2 206.2 20 182c-8.8-2.9-12-10.4-12-16.5s3.1-13.6 12-16.5c29.7-9.8 61.1-17.7 93.1-23.6l5.4-1 1-5.3c4.9-25 21.1-48 45.5-64.8 25.3-17.3 57.5-26.8 91-26.8m35.9 222.2 46.7 226.2c-26.9 5.7-54.7 8.6-82.7 8.6s-55.7-2.9-82.7-8.6l46.7-226.2c12.3.5 24.4.8 35.9.8s23.8-.3 36.1-.8M256 19.5c-73 0-133.4 42.5-144.3 98-32.6 6-64.1 14-94.2 23.9-23.3 7.6-23.3 40.6 0 48.2 72.6 23.7 153.4 36.9 238.5 36.9s165.9-13.2 238.5-36.9c23.3-7.6 23.3-40.6 0-48.2-30.1-9.8-61.6-17.8-94.2-23.9-10.9-55.6-71.3-98-144.3-98zm42.4 221.9c-14 .7-28.2 1.1-42.4 1.1s-28.4-.4-42.4-1.1L163.9 482c29.6 6.9 60.4 10.5 92.1 10.5s62.5-3.6 92.1-10.5l-49.7-240.6zM256 142.5c12.7 0 23 10.3 23 23s-10.3 23-23 23-23-10.3-23-23 10.3-23 23-23m100 3.1c11 0 19.9 8.9 19.9 19.9s-8.9 19.9-19.9 19.9-19.9-8.9-19.9-19.9 8.9-19.9 19.9-19.9m-200 0c11 0 19.9 8.9 19.9 19.9s-8.9 19.9-19.9 19.9-19.9-8.9-19.9-19.9 8.9-19.9 19.9-19.9m100-11.1c-17.1 0-31 13.9-31 31s13.9 31 31 31 31-13.9 31-31-13.9-31-31-31zm100 3.1c-15.4 0-27.9 12.5-27.9 27.9s12.5 27.9 27.9 27.9 27.9-12.5 27.9-27.9-12.5-27.9-27.9-27.9zm-200 0c-15.4 0-27.9 12.5-27.9 27.9s12.5 27.9 27.9 27.9 27.9-12.5 27.9-27.9-12.5-27.9-27.9-27.9z" style="fill:#36434f"/></svg>