<svg version="1.1" xmlns="http://www.w3.org/2000/svg" x="0" y="0" viewBox="0 0 512 512" xml:space="preserve"><path d="M256 168.5c31.9 0 62.6 9 86.4 25.3 22.7 15.6 37.7 36.8 42.2 59.7l2.1 10.7 10.7 2c31.8 5.9 62.8 13.8 92.2 23.4 5.8 1.9 6.4 6.8 6.4 8.9 0 2.1-.6 7-6.4 8.9-73.4 24-152 36.1-233.5 36.1S95.9 331.4 22.5 307.4c-5.8-1.9-6.4-6.8-6.4-8.9s.6-7 6.5-8.9c29.4-9.7 60.4-17.5 92.1-23.4l10.7-2 2.1-10.7c4.5-22.9 19.5-44.1 42.2-59.7 23.8-16.3 54.4-25.3 86.3-25.3m0-16c-73 0-133.4 42.5-144.3 98-32.6 6-64.1 14-94.2 23.9-23.3 7.6-23.3 40.6 0 48.2 72.6 23.7 153.4 36.9 238.5 36.9s165.9-13.2 238.5-36.9c23.3-7.6 23.3-40.6 0-48.2-30.1-9.8-61.6-17.8-94.2-23.9-10.9-55.6-71.3-98-144.3-98zm0 131c8.3 0 15 6.7 15 15s-6.7 15-15 15-15-6.7-15-15 6.7-15 15-15m100 3.1c6.6 0 11.9 5.3 11.9 11.9s-5.3 11.9-11.9 11.9-11.9-5.3-11.9-11.9 5.3-11.9 11.9-11.9m-200 0c6.6 0 11.9 5.3 11.9 11.9s-5.3 11.9-11.9 11.9-11.9-5.3-11.9-11.9 5.3-11.9 11.9-11.9m100-19.1c-17.1 0-31 13.9-31 31s13.9 31 31 31 31-13.9 31-31-13.9-31-31-31zm100 3.1c-15.4 0-27.9 12.5-27.9 27.9s12.5 27.9 27.9 27.9 27.9-12.5 27.9-27.9-12.5-27.9-27.9-27.9zm-200 0c-15.4 0-27.9 12.5-27.9 27.9s12.5 27.9 27.9 27.9 27.9-12.5 27.9-27.9-12.5-27.9-27.9-27.9z" fill="#36434f"/></svg>