<svg version="1.1" xmlns="http://www.w3.org/2000/svg" x="0" y="0" viewBox="0 0 512 512" style="enable-background:new 0 0 512 512" xml:space="preserve"><path d="M256 0C114.6 0 0 114.6 0 256s114.6 256 256 256 256-114.6 256-256S397.4 0 256 0zM27.5 159.5C40 130 57.9 103.4 80.7 80.7 103.5 57.9 130 40 159.5 27.5 190 14.6 222.5 8 256 8s66 6.6 96.5 19.5C382 40 408.6 57.9 431.3 80.7c22.8 22.8 40.7 49.3 53.2 78.8 12.9 30.6 19.5 63 19.5 96.5 0 19.9-2.3 39.5-6.9 58.5-40.6-12.5-135.6-37.7-241.1-37.7S55.2 302.2 15 314.6c-4.6-19-7-38.6-7-58.6 0-33.5 6.6-66 19.5-96.5zM431 305.3l-52.2 50.6-43.5-66.6c35.6 3.9 68.3 9.9 95.7 16zm-256.1-15.7L131.5 356l-51.8-50.2c27.2-6.2 59.7-12.3 95.2-16.2zm256.5 141.8c-22.8 22.8-49.3 40.7-78.8 53.2C322 497.4 289.5 504 256 504s-66-6.6-96.5-19.5c-29.5-12.5-56.1-30.4-78.8-53.2C57.9 408.5 40 382 27.5 352.5c-4.2-9.8-7.7-19.9-10.5-30.1 12.7-3.9 31-9.2 53.4-14.5l62.5 60.5 52.2-80c22.7-2.3 46.5-3.6 70.8-3.6 23.7 0 46.9 1.3 69 3.4l52.4 80.2 62.9-60.9c23 5.4 41.8 10.8 54.8 14.8-2.8 10.3-6.4 20.4-10.5 30.3-12.5 29.5-30.4 56-53.1 78.8z" style="fill:#36434f"/></svg>