<svg version="1.1" xmlns="http://www.w3.org/2000/svg" x="0" y="0" viewBox="0 0 512 512" xml:space="preserve"><path d="M268.6 511.7c.9 0 1.8-.1 2.7-.2 1.2-.1 2.4-.1 3.6-.2 1-.1 1.9-.2 2.9-.2l3.3-.3c1-.1 2.1-.2 3.1-.3l3-.3c1.1-.1 2.2-.3 3.2-.4.9-.1 1.9-.3 2.8-.4 1.1-.2 2.3-.3 3.4-.5.8-.1 1.7-.3 2.5-.4l3.6-.6c.7-.1 1.5-.3 2.2-.4 1.3-.2 2.6-.5 3.9-.8.6-.1 1.2-.3 1.7-.4 1.4-.3 2.8-.6 4.3-1 .3-.1.6-.1.9-.2 11.1-2.7 21.9-6 32.4-10.1 1.8-.7 3.5-1.4 5.2-2.1.1 0 .1 0 .2-.1 1.7-.7 3.4-1.4 5.1-2.2 0 0 .1 0 .1-.1C449 450.9 512 360.8 512 256c0-2 0-3.9-.1-5.9v-1.3c-.1-1.9-.1-3.8-.2-5.7 0-.3 0-.7-.1-1-.1-1.7-.2-3.3-.3-5 0-.4-.1-.8-.1-1.2-.1-1.8-.3-3.6-.5-5.3-.1-.6-.1-1.2-.2-1.8-.1-1.4-.3-2.8-.5-4.2l-.3-2.7c-.1-1.1-.3-2.2-.5-3.4-.1-.9-.3-1.9-.4-2.8-.1-.6-.2-1.2-.3-1.9-.3-2-.7-4-1.1-6 0-.2-.1-.4-.1-.5C485.7 94.6 390.1 8.3 273 .6c-.6 0-1.2-.1-1.8-.1-1-.1-2-.1-3-.2-1.6-.1-3.2-.1-4.9-.2h-1.7c-1.8-.1-3.7-.1-5.6-.1-2 0-4.1 0-6.1.1-.6 0-1.2 0-1.8.1-1.5 0-2.9.1-4.4.2-.7 0-1.3.1-2 .1-1.5.1-3 .2-4.4.3-.5 0-1.1.1-1.6.1-1.9.1-3.8.3-5.7.5h-.3c-4.3.4-8.5 1-12.7 1.6h-.3c-2 .3-4.1.6-6.1 1h-.1c-12.9 2.3-25.4 5.5-37.5 9.7l-.1.1c-11.8 4.1-23.3 9-34.3 14.6-.8.4-1.6.8-2.4 1.3-1 .5-2 1.1-3 1.6s-2 1.1-2.9 1.6c-.9.5-1.7 1-2.6 1.5-.9.5-1.8 1.1-2.8 1.6-.9.6-1.9 1.1-2.8 1.7-.8.5-1.5 1-2.3 1.4-1.1.7-2.2 1.4-3.2 2.1-.6.4-1.2.8-1.9 1.2l-3.6 2.4c-.5.4-1.1.8-1.6 1.1-1.2.8-2.3 1.6-3.5 2.5-.6.5-1.3.9-1.9 1.4-.9.7-1.8 1.3-2.7 2-.5.4-1 .7-1.5 1.1-42.2 32.5-74 77.8-89.5 130.1-.1.4-.3.8-.4 1.3-.3 1-.6 1.9-.8 2.9-.3.9-.5 1.9-.8 2.8-.3 1.3-.7 2.6-1 3.9-.2.8-.4 1.7-.6 2.5-.2 1-.5 1.9-.7 2.9-.2 1-.4 2-.7 3.1-.3 1.3-.5 2.5-.8 3.8-.2.8-.3 1.7-.5 2.5-.2.9-.3 1.8-.5 2.7-.3 1.5-.5 2.9-.7 4.4-.1.8-.2 1.5-.4 2.3-.2 1.3-.4 2.7-.6 4-.1.7-.2 1.3-.3 2-.2 1.5-.4 3-.5 4.5-.1.6-.1 1.1-.2 1.7-.2 1.8-.3 3.6-.5 5.4 0 .4-.1.8-.1 1.2-.1 1.7-.2 3.3-.3 5 0 .3 0 .7-.1 1-.1 1.9-.2 3.8-.2 5.7v1.3c0 2-.1 3.9-.1 5.9 0 2 0 3.9.1 5.9v1.3c.1 1.9.1 3.8.2 5.7 0 .3 0 .7.1 1 .1 1.7.2 3.3.3 5 0 .4.1.8.1 1.2.1 1.8.3 3.6.5 5.3.1.6.1 1.2.2 1.8.1 1.4.3 2.8.5 4.2l.3 2.7c.1 1.1.3 2.2.5 3.4.1.9.3 1.9.4 2.8.1.6.2 1.3.3 1.9.3 2 .7 4 1.1 6 0 .2.1.4.1.5 2.1 10.9 4.9 21.5 8.3 31.9 0 .1.1.2.1.2.4 1.1.7 2.2 1.1 3.2.2.6.4 1.3.7 1.9.4 1 .7 2 1.1 2.9l1.5 3.9 1.2 3c.3.7.5 1.3.8 2 .4 1 .8 2 1.3 3 .1.3.3.7.4 1C46.5 416.7 93.9 464.2 153 490.1c0 0 .1 0 .1.1 1.7.7 3.4 1.5 5.1 2.2.1 0 .1 0 .2.1 1.7.7 3.5 1.4 5.2 2.1 10.5 4 21.3 7.4 32.4 10.1.3.1.6.1.9.2 1.4.3 2.8.6 4.3 1 .6.1 1.2.3 1.7.4 1.3.3 2.6.5 3.8.8.7.1 1.5.3 2.2.4l3.6.6c.8.1 1.7.3 2.5.4 1.1.2 2.3.4 3.4.5.9.1 1.9.3 2.8.4 1.1.1 2.2.3 3.2.4l3 .3c1 .1 2.1.2 3.1.3l3.3.3c1 .1 1.9.2 2.9.2 1.2.1 2.4.2 3.6.2.9.1 1.8.1 2.7.2 1.4.1 2.7.1 4.1.2.7 0 1.5.1 2.2.1 2.1.1 4.2.1 6.3.1s4.2 0 6.3-.1c.7 0 1.5-.1 2.2-.1 1.8.3 3.2.3 4.5.2zM491.5 320H288v-64h212c0 21.9-2.9 43.3-8.5 64zm-247.7 37.6L224 343.2l-19.8 14.4 7.6-23.2L192 320h24.4l7.6-23.2 7.6 23.2H256l-19.8 14.4 7.6 23.2zm-64-64L160 279.2l-19.8 14.4 7.6-23.2L128 256h24.4l7.6-23.2 7.6 23.2H192l-19.8 14.4 7.6 23.2zm-64 64L96 343.2l-19.8 14.4 7.6-23.2L64 320h24.4l7.6-23.2 7.6 23.2H128l-19.8 14.4 7.6 23.2zm0-128L96 215.2l-19.8 14.4 7.6-23.2L64 192h24.4l7.6-23.2 7.6 23.2H128l-19.8 14.4 7.6 23.2zm-64-64l-17.1-12.4c4-8.7 8.5-17.1 13.5-25.2H64l-19.8 14.4 7.6 23.2zm31.7-82.1c7-7 14.3-13.5 21.9-19.5H128l-19.8 14.4 7.6 23.2L96 87.2l-19.8 14.4 5.3-16.1c.6-.7 1.3-1.4 2-2zm96.3 82.1L160 151.2l-19.8 14.4 7.6-23.2L128 128h24.4l7.6-23.2 7.6 23.2H192l-19.8 14.4 7.6 23.2zm64 64L224 215.2l-19.8 14.4 7.6-23.2L192 192h24.4l7.6-23.2 7.6 23.2H256l-19.8 14.4 7.6 23.2zm0-128L224 87.2l-19.8 14.4 7.6-23.2L192 64h24.4l7.6-23.2 7.6 23.2H256l-19.8 14.4 7.6 23.2zm-64-64.1l-12.4-8.9c2.8-1.1 5.6-2.1 8.4-3.1l4 12zM491.5 192H288v-64h175.8c6.5 10.5 12.2 21.5 17.1 33 4.2 10.1 7.8 20.5 10.6 31zM406.6 64H288V14.1c21.7 2.8 42.7 8.5 63 17.1 20 8.4 38.6 19.4 55.6 32.8zM12 256h12.4l7.6-23.2 7.6 23.2H64l-19.8 14.4 7.6 23.2L32 279.2l-17.4 12.6c-.2-1.3-.4-2.6-.5-3.9l5.7-17.5-7.6-5.5c-.1-3-.2-5.9-.2-8.9zm36.2 128h415.6c-9.9 16.1-21.7 31-35.2 44.5-7 7-14.3 13.5-21.9 19.5H105.4c-7.6-6-15-12.5-21.9-19.5C69.9 415 58.1 400.1 48.2 384z" fill="#36434f"/></svg>