<svg version="1.1" xmlns="http://www.w3.org/2000/svg" x="0" y="0" viewBox="0 0 512 512" style="enable-background:new 0 0 512 512" xml:space="preserve"><path d="M256 32c20.8 0 39.5 3.6 55.7 10.6 16.9 7.4 31.6 18.8 43.6 34 13.7 17.4 24.5 40.1 31.9 67.6 8.4 31.2 12.7 68.8 12.7 111.8 0 58.4-7.9 106.5-23.3 142.8-7.7 18.1-17.4 33.2-28.9 45.3-5.6-9.9-11.6-20.7-17.5-31.7-34.3-64.2-37.9-84.5-38.2-86.9.1-30.5 8-50.3 8.1-50.5 0 0-.3.8-.9 1.9.2-.3 16.8-35.1 16.8-90.8 0-11.6 0-38.9-49.7-131.8-4.1-7.7-8.2-15.2-12.1-22.2.6-.1 1.2-.1 1.8-.1m-91.8 35.9c6.3 11.1 12.1 21.6 17.5 31.7 34.2 64.1 37.9 84.4 38.2 86.9-.1 29.4-7.4 48.8-8 50.4l-.1.2c-3.7 8.8-15.9 41.2-15.9 88.9 0 11.6 0 38.9 49.7 131.8 4.1 7.7 8.2 15.1 12.1 22.1h-1.8c-20.8 0-39.5-3.6-55.7-10.6-16.9-7.4-31.6-18.8-43.6-34-13.7-17.4-24.5-40.1-31.9-67.6C116.3 336.6 112 299 112 256c0-58.5 7.8-106.5 23.3-142.8 7.7-18.1 17.4-33.2 28.9-45.3M256 0c-18.4 0-36.2 2.4-52.8 7.5 8.6 14.5 21.8 37.3 34.9 61.8C284 155.1 284 178.4 284 186c0 45.9-12.8 75.3-13.4 76.5-.1.2-10.6 24.9-10.6 63.5 0 6.9 4.1 30.5 42 101.4 14 26.2 28.2 50.5 36.4 64.3 55.6-31.8 93.5-104 93.5-235.7C432 66 353.2 0 256 0zm-82.5 20.3C117.9 52.1 80 124.2 80 256c0 190 78.8 256 176 256 18.4 0 36.1-2.4 52.8-7.5-8.6-14.5-21.8-37.3-35-61.8-45.9-85.8-45.9-109.1-45.9-116.7 0-45.9 12.9-75.3 13.4-76.5.1-.2 10.6-24.9 10.6-63.5 0-6.8-4.1-30.5-42-101.4-14-26.3-28.2-50.5-36.4-64.3z" style="fill:#36434f"/></svg>