<svg version="1.1" xmlns="http://www.w3.org/2000/svg" x="0" y="0" viewBox="0 0 512 512" xml:space="preserve"><path d="M149.5 138v4c0 1.7-1.3 3-3 3h-29c-1.7 0-3-1.3-3-3v-4c0-1.7 1.3-3 3-3h29c1.7 0 3 1.3 3 3zM512 78v356h-8.5v-18H8.5v18H0V78h512zM8.5 188.5h245v-102H8.5v102zm0 5v102h245v-102H8.5zm245 209v-102H8.5v102h245zm250-102h-245v102h245v-102zm0-107h-245v102h245v-102zm0-107h-245v102h245v-102zM117.5 252h29c1.7 0 3-1.3 3-3v-4c0-1.7-1.3-3-3-3h-29c-1.7 0-3 1.3-3 3v4c0 1.7 1.3 3 3 3zm29 97h-29c-1.7 0-3 1.3-3 3v4c0 1.7 1.3 3 3 3h29c1.7 0 3-1.3 3-3v-4c0-1.7-1.3-3-3-3zM365 145h29c1.7 0 3-1.3 3-3v-4c0-1.7-1.3-3-3-3h-29c-1.7 0-3 1.3-3 3v4c0 1.7 1.3 3 3 3zm0 107h29c1.7 0 3-1.3 3-3v-4c0-1.7-1.3-3-3-3h-29c-1.7 0-3 1.3-3 3v4c0 1.7 1.3 3 3 3zm0 107h29c1.7 0 3-1.3 3-3v-4c0-1.7-1.3-3-3-3h-29c-1.7 0-3 1.3-3 3v4c0 1.7 1.3 3 3 3z" fill="#36434f"/></svg>