<svg version="1.1" xmlns="http://www.w3.org/2000/svg" x="0" y="0" viewBox="0 0 512 512" xml:space="preserve"><path d="M0 78v356h8.5v-18h495v18h8.5V78H0zm362 60c0-1.7 1.3-3 3-3h29c1.7 0 3 1.3 3 3v4c0 1.7-1.3 3-3 3h-29c-1.7 0-3-1.3-3-3v-4zm-247.5 0c0-1.7 1.3-3 3-3h29c1.7 0 3 1.3 3 3v4c0 1.7-1.3 3-3 3h-29c-1.7 0-3-1.3-3-3v-4zm389 55.5h-245v102h245v5h-245v102h245v5H8v-5h245.5v-102H8v-5h245.5v-102H8v-5h245.5v-102h5v102h245v5zM397 245v4c0 1.7-1.3 3-3 3h-29c-1.7 0-3-1.3-3-3v-4c0-1.7 1.3-3 3-3h29c1.7 0 3 1.3 3 3zm0 107v4c0 1.7-1.3 3-3 3h-29c-1.7 0-3-1.3-3-3v-4c0-1.7 1.3-3 3-3h29c1.7 0 3 1.3 3 3zm-282.5 4v-4c0-1.7 1.3-3 3-3h29c1.7 0 3 1.3 3 3v4c0 1.7-1.3 3-3 3h-29c-1.7 0-3-1.3-3-3zm0-107v-4c0-1.7 1.3-3 3-3h29c1.7 0 3 1.3 3 3v4c0 1.7-1.3 3-3 3h-29c-1.7 0-3-1.3-3-3z" fill="#36434f"/></svg>