<svg version="1.1" xmlns="http://www.w3.org/2000/svg" x="0" y="0" viewBox="0 0 512 512" xml:space="preserve"><path d="M380.2 29c-39.5 0-83.1 17-124.2 58.1-41-41-84.7-58.1-124.2-58.1C19.2 29-59 168 58 285l99 99 99 99 99-99 99-99c117-117 38.8-256-73.8-256zm68.1 250.3l-99 99-93.3 93.4-93.3-93.3-99-99c-27.2-27.2-44.7-56.6-52-87.4-6.4-27.1-4.4-54.3 5.7-78.8C36.6 66.9 81.5 37 131.8 37c41.1 0 82.1 19.3 118.5 55.7l5.7 5.7 5.7-5.7C298.1 56.3 339.1 37 380.2 37c50.4 0 95.3 29.9 114.4 76.1 10.2 24.5 12.1 51.8 5.7 78.8-7.2 30.8-24.7 60.2-52 87.4zm-140.6 67.8c-4.3 0-8.3 1.7-11.3 4.7L268 380c-3 3-4.7 7-4.7 11.3 0 4.3 1.7 8.3 4.7 11.3s7 4.7 11.3 4.7c4.3 0 8.3-1.7 11.3-4.7l28.3-28.3c3-3 4.7-7 4.7-11.3s-1.7-8.3-4.7-11.3c-2.9-3-7-4.6-11.2-4.6zm5.6 21.6L285 397c-1.5 1.5-3.6 2.3-5.7 2.3-2 0-4.1-.8-5.6-2.3-3.1-3.1-3.1-8.2 0-11.3l28.3-28.3c1.5-1.5 3.6-2.3 5.6-2.3s4.1.8 5.7 2.3c3.1 3.1 3.1 8.2 0 11.3zm145-172.2c-4.3 0-8.3 1.7-11.3 4.7L327.4 320.6c-3 3-4.7 7-4.7 11.3s1.7 8.3 4.7 11.3 7 4.7 11.3 4.7c4.3 0 8.3-1.7 11.3-4.7l119.5-119.5c3-3 4.7-7 4.7-11.3 0-4.3-1.7-8.3-4.7-11.3-2.9-3-7-4.6-11.2-4.6zm5.6 21.6L344.4 337.6c-1.5 1.5-3.6 2.3-5.7 2.3-2 0-4.1-.8-5.6-2.3-3.1-3.1-3.1-8.2 0-11.3l119.5-119.5c1.6-1.5 3.6-2.3 5.7-2.3s4.1.8 5.6 2.3c3.1 3.1 3.1 8.2 0 11.3z" fill="#36434f"/></svg>