<svg version="1.1" xmlns="http://www.w3.org/2000/svg" x="0" y="0" viewBox="0 0 512 512" xml:space="preserve"><path d="M315.1 483.8c2.4-9.2.2-19-5.8-26.3l-6.1-7.3c-2.8-3.3-4.4-7.4-4.8-11.7-1.7-20.7-6.6-89.6-7.4-207.4-.8-75.5.5-136.7.9-153.5.1-2.9 1.2-5.8 3.2-7.9 7-7.5 8.2-18.7 2.8-27.5l-10.1-16.5c-3-4.8-8.1-7.9-13.8-8.3h-.2c-3.4-.2-5.7 3.4-4 6.3l1.7 3c1.5 2.6-.6 5.9-3.6 5.7l-5.4-.4c-9.1-.7-16.6-7.4-18.3-16.4l-.4-2.4c-.2-.9-.6-1.6-1.1-2.1-.4-.4-.9-1-1.4-1.5l-.1-.1C236.4 4.7 230.6 0 223.4 0c-15.2 0-27.5 12.3-27.5 27.5 0 9.8 5.1 18.4 12.8 23.2.2.1.6.4.8.5 1.3.8 2.9.8 4.2.3l1.6-.7c5.6-2.3 12.1-.6 16 4.1L244 70.5c.7.9.6 2.3-.3 3-3.7 3.3-2.8 10.4 2.1 15.9.2.3.5.5.7.8 4.4 4.4 7.3 10 8 16.2 2.9 25.4 6.6 68.2 8.4 127.6 2.3 79.5-6.3 156.6-10.2 186.8-1.1 8.6-4.6 16.7-10 23.5l-8.6 10.8c-7 8.7-8.9 20.5-5.1 30.9l6.2 16.9c.5 1.5 1.3 2.8 2.2 3.9 4.6 5.7 13.3 7 19.4 2l9-7.4 4.5-3.6c2.8-2.3 6.6-2.7 9.8-1l6.5 3.3 2.8 1.5c5.4 2.8 11.4 3.9 17.3 3.5h.4c4.3-.6 7.3-5.1 7.9-9.7.1-1.1.2-2.2 0-3.2-.4-3.9.1-8.4.1-8.4z" fill="#36434f"/></svg>