<svg version="1.1" xmlns="http://www.w3.org/2000/svg" x="0" y="0" viewBox="0 0 512 512" style="enable-background:new 0 0 512 512" xml:space="preserve"><path d="M217.1 512c-1.9 0-3.8-.1-5.6-.3-26.5-2.5-48-23.7-51-50.6-2-17.2 3.7-34.3 15.7-46.8 20.8-21.7 32.3-49.3 32.3-77.6V175.2c0-28.4-11.5-56-32.3-77.6-11.9-12.4-17.6-29.4-15.7-46.7 3-26.8 24.5-48.1 51.1-50.6C225.9-1.1 240 3 251.2 11.6c2.8 2.1 6.7 2.1 9.5 0C271.9 3 286-1.1 300.6.3c26.5 2.5 48 23.7 51 50.6 2 17.2-3.7 34.3-15.7 46.8-20.8 21.7-32.3 49.3-32.3 77.6v161.5c0 28.4 11.5 56.1 32.3 77.7 11.9 12.4 17.6 29.4 15.7 46.7-3 26.8-24.5 48.1-51.1 50.6-14.5 1.4-28.5-2.7-39.8-11.3-2.8-2.1-6.7-2.1-9.5.1a56.63 56.63 0 0 1-34.1 11.4zm32.5-32.4c3.2-4.2 9.5-4.3 12.7 0 8.7 11.6 22.5 17.6 36.7 16.2 19.1-1.8 34.6-17.1 36.8-36.4 1.4-12.6-2.7-24.9-11.3-33.8-23.7-24.7-36.7-56.2-36.7-88.9V175.2c0-32.6 13-64.1 36.7-88.8 8.7-9 12.8-21.3 11.3-33.8-2.2-19.3-17.6-34.7-36.7-36.5-14.3-1.4-28.1 4.7-36.7 16.2-3.2 4.2-9.5 4.3-12.7 0-8.7-11.6-22.4-17.6-36.7-16.2-19.1 1.8-34.6 17.1-36.8 36.4-1.4 12.6 2.7 24.9 11.3 33.8 23.7 24.7 36.7 56.2 36.7 88.8v161.6c0 32.5-13 64.1-36.7 88.8-8.7 9-12.8 21.3-11.3 33.8 2.2 19.3 17.6 34.7 36.7 36.4 14.4 1.5 28.1-4.6 36.7-16.1z" style="fill:#36434f"/></svg>