<svg xmlns="http://www.w3.org/2000/svg" viewBox="0 0 512 512" xml:space="preserve"><path d="M496.5 404c7.1-13.6 7.6-30.3-.4-44.8-8.6-15.6-24.7-24.4-41.3-24.4-7.7 0-15.5 1.9-22.7 5.9-9.6 5.3-16.6 13.4-20.6 22.8l-14.4-6.9c5.4-12.3 14.7-23 27.3-29.9 9.3-5.1 19.8-7.9 30.4-7.9 18.9 0 36.5 8.4 48.4 22.6 10.2-14.3 11.9-33.7 2.9-50.1-2.6-4.8-6-8.9-9.8-12.3 11.4-14.4 13.8-34.9 4.3-52-4.4-8.1-10.9-14.3-18.4-18.4 9-14.1 10.2-32.5 1.6-48.2-3.2-5.8-7.4-10.6-12.3-14.4-5 14-14.9 26.3-28.9 34-9.3 5.1-19.8 7.9-30.4 7.9-23 0-44.2-12.5-55.3-32.6-.1-.1-.1-.2-.2-.4 4.3-2.5 9-5.3 13.8-8.1.1.2.2.5.4.7 8.6 15.6 24.7 24.4 41.3 24.4 7.7 0 15.5-1.9 22.7-5.9 22.8-12.6 31.1-41.2 18.5-64-3.6-6.5-8.5-11.8-14.2-15.8-7-4.9-15.3-7.8-23.8-8.4 0-7.7-1.8-15.6-5.8-22.9-10.1-18.4-30.8-27.4-50.3-23.5-.8-2.4-1.9-4.7-3.1-7-12.5-22.8-41.1-31.1-63.9-18.5-15.5 8.6-24.3 24.7-24.3 41.3v85.9l2.1-.9c6-3.1 10.8-7.9 13.7-13.9l16.1 3c-4 10.5-11.8 19.6-22.6 25.1-3 1.6-6.2 2.7-9.4 3.6v215.6c5 .1 10.1-1 14.7-3.4 6-3.1 10.8-7.9 13.7-13.9l16.1 3c-4 10.5-11.8 19.6-22.6 25.1-7.1 3.6-14.6 5.2-22 5.1v83.4c0 7.7 1.9 15.5 5.9 22.7 12.5 22.8 41.2 31.1 63.9 18.5 3.8-2.1 7.1-4.6 10.1-7.5 13.2 6.3 29.2 6.4 43-1.3 7.9-4.4 14-10.7 18.2-18 11.6 3.3 24.4 2.3 35.7-4 17.7-9.8 26.6-29.3 23.8-48.3 3.1-.9 6.2-2.2 9.1-3.9 8.5-4.5 14.9-11.2 19-19.1zM298 59.5c6.7-3.3 13.8-4.9 20.8-4.9 16.6 0 32.7 8.8 41.3 24.4 10.1 18.3 6.7 40.4-6.8 54.9l-10.7-12c2.8-3.3 4.9-7.2 6.1-11.4 2.3-8 1.4-16.4-2.6-23.7-5.5-9.9-15.9-16.1-27.3-16.1-4 0-8.1.8-11.8 2.4l-9-13.6zm8.1 249.5c-5.2-2.9-9.6-6.6-13.3-10.9l11.7-11c2.5 3.1 5.6 5.8 9.3 7.8 4.7 2.6 9.7 3.9 15 3.9 11.4 0 21.8-6.2 27.3-16.1 2.2-4 3.5-8.3 3.8-12.9.4-6.4 4.6-11.8 10.6-14 7.1-2.6 13.1-7.6 16.8-14.3 7.3-13.2 3.9-29.5-7.3-38.9l9.8-12.7c13.2 10.8 19.5 27.8 16.7 44.3 4.6 2.1 8.8 4.9 12.5 8.3 5.6 5.2 10.1 11.9 12.7 19.7 4.7 14.2 2.3 29-5.4 40.7l-12.6-9.9c4.3-7.4 5.6-16.7 2.7-25.5-1.6-5-4.5-9.5-8.4-13-2.1-2-4.5-3.6-7-4.8a47.15 47.15 0 0 1-25.2 21.3c-.4 6.7-2.3 13.3-5.7 19.5-8.6 15.6-24.7 24.4-41.3 24.4-7.7 0-15.5-1.9-22.7-5.9zm94 116.8c-8.6 15.6-24.7 24.4-41.3 24.4-7.7 0-15.5-1.9-22.7-5.9-13.1-7.2-21.4-19.8-23.7-33.5l16.1-1.1c1.9 8.4 7.2 16 15.3 20.5 4.6 2.5 9.8 3.9 15 3.9 11.4 0 21.8-6.2 27.3-16.1 3.3-5.9 4.5-12.6 3.6-19.2l15-6.5c2.6 11 1.3 22.9-4.6 33.5zM219.7 5.9C197-6.7 168.3 1.6 155.8 24.4c-1.3 2.3-2.3 4.6-3.1 7-19.6-3.9-40.2 5-50.3 23.5-4 7.3-5.9 15.1-5.8 22.9-15.4 1-30 9.7-38.1 24.2-3.6 6.5-5.4 13.4-5.8 20.3 5.4-1.5 11.1-2.3 16.8-2.3 10.6 0 21.1 2.7 30.4 7.9 15.7 8.6 26.2 23 30.5 39.1l-15.3 4.7c-3.1-12.2-11-23.2-22.9-29.8-7.2-4-15-5.9-22.7-5.9-16.6 0-32.7 8.8-41.3 24.4-6.8 12.4-7.5 26.5-3 38.9 1.2 3.3 2.7 6.4 4.6 9.3-7.5 4.1-13.9 10.4-18.4 18.4-9.4 17.1-7.1 37.6 4.3 52-3.8 3.4-7.2 7.6-9.8 12.3-11.7 21.3-5.2 47.8 14.3 61.4-1.6 2-3 4.2-4.3 6.5-12.5 22.8-4.3 51.4 18.5 64 3 1.6 6 2.9 9.1 3.9-1.9 12.9 1.6 26 9.6 36.2 3.8 4.8 8.6 9 14.3 12.1 7.1 3.9 14.9 5.8 22.5 5.9h.8c.6 0 1.2 0 1.8-.1.5 0 1-.1 1.4-.1.3 0 .6-.1.8-.1 2.8-.3 5.6-.8 8.3-1.6 11.7-3.3 22-11.1 28.4-22.5 12.6-22.8 4.3-51.4-18.5-64-.3-.1-.5-.3-.8-.4l6.7-14.6c.6.3 1.3.7 1.9 1 30.5 16.8 41.6 55.3 24.8 85.7-7.1 12.8-18.2 22.5-31.3 27.9 2.2 1.8 4.6 3.4 7.1 4.9 13.8 7.6 29.7 7.6 43 1.3 3 2.9 6.3 5.4 10.1 7.5 22.7 12.6 51.4 4.3 63.9-18.5 4-7.2 5.9-15 5.9-22.7v-19c-2.5.9-5.1 1.5-7.7 2-10.4 1.7-21.4-.3-30.6-5.5-4.5-2.5-8.5-5.8-11.9-9.6-1.7-1.9-3.3-4-4.6-6.1-.3-.4-1.6-2-1.4-2.4 0-.1.5-.3.6-.4 4.3-2.8 8.5-5.7 12.8-8.5 7 14 23.9 20.7 38.6 15.2 1.5-.6 3-1.3 4.4-2.1V295.7c-8.8.4-17.6-1.7-25.3-6-6.1-3.4-11.5-8.3-15.7-14.4l14.4-7.4c2.5 3.2 5.6 5.9 9.1 7.8 5.4 3 11.5 4.3 17.4 3.9V47.2c-.3-16.6-9.1-32.7-24.6-41.3zM199 211.1c-.3.6-.5 1-1.2 1-.6 0-1.4-.5-1.9-.8-1.7-.8-3.5-1.4-5.4-1.8-7.8-1.6-16-.1-22.8 4.2-5.3 3.4-9.5 8.3-12.1 14-1.3 2.9-2.1 6-2.4 9.2-.4 3.9.7 7.9 0 11.8-.6 3.7-2.6 7.1-5.4 9.6-3.1 2.6-6.7 3.6-10.6 3.8-4.2.3-8.2 1-12.1 2.7-3.2 1.5-6.2 3.5-8.7 5.9-9.6 9.4-12.4 24.4-6.2 36.5 6 11.7 19.3 18.7 32.3 16.7-.6 3.8-1.1 7.5-1.7 11.3-.2 1.3-.2 2.7-.5 4-.2 1.2-.7 1.2-1.8 1.1-6.5-.2-12.9-1.2-18.9-3.7-20.4-8.5-32.3-31-27.9-52.6 1.2-5.8 3.4-11.2 6.5-16-.6-3-1.7-6-3.2-8.8-5.5-9.9-15.9-16.1-27.3-16.1-4 0-8.1.8-11.8 2.4l-9-13.5c6.7-3.3 13.8-4.9 20.8-4.9 16.6 0 32.7 8.8 41.3 24.4.6 1.1 1.2 2.3 1.7 3.5 7.6-5.5 16.9-8.7 26.7-8.8-1.1-8.3.1-16.8 3.4-24.5 4.9-11.4 14.2-20.6 25.7-25.3 12.9-5.3 27.9-4.4 40.2 2.3-2.5 4-5.4 8.1-7.7 12.4zM205 73c-3.7-1.5-7.8-2.4-11.8-2.4-11.4 0-21.8 6.2-27.3 16.1-4 7.3-5 15.7-2.6 23.7 1.2 4.3 3.3 8.1 6.1 11.4l-10.7 12c-13.5-14.5-16.9-36.6-6.8-54.9 8.6-15.6 24.7-24.4 41.3-24.4 7 0 14.1 1.6 20.8 4.9L205 73z" fill="#36434f"/></svg>