<svg version="1.1" xmlns="http://www.w3.org/2000/svg" x="0" y="0" viewBox="0 0 512 512" xml:space="preserve"><path d="M490.4 344.3l-19-101.8c-3-18.6-7.2-36.5-12.4-53.6-.1-.2-.1-.4-.2-.6-.5-1.6-1-3.1-1.5-4.7-.1-.2-.2-.5-.2-.7-.5-1.5-1-3.1-1.5-4.6-.1-.2-.1-.4-.2-.6-3.4-10.1-7.2-19.9-11.4-29.3-.1-.2-.2-.4-.2-.5-.6-1.4-1.3-2.8-1.9-4.2-.1-.3-.2-.5-.4-.8-.6-1.4-1.3-2.7-1.9-4.1-.1-.2-.2-.5-.4-.7-.7-1.4-1.3-2.8-2-4.2-.1-.1-.1-.2-.2-.4-3.7-7.5-7.7-14.7-11.8-21.7-.1-.2-.3-.5-.4-.7-.7-1.2-1.4-2.4-2.1-3.5-.2-.3-.4-.7-.6-1-.7-1.1-1.4-2.3-2.1-3.4-.2-.3-.4-.7-.7-1-.7-1.1-1.4-2.2-2.2-3.3l-.6-.9c-.8-1.2-1.5-2.3-2.3-3.4-.1-.1-.1-.2-.2-.3-2.7-3.9-5.5-7.8-8.4-11.5l-.1-.1c-.8-1-1.6-2-2.4-3.1-.3-.3-.5-.7-.8-1-.7-.9-1.5-1.8-2.2-2.7-.3-.4-.7-.8-1-1.2-.7-.9-1.4-1.7-2.2-2.6-.4-.4-.7-.8-1.1-1.3-.7-.8-1.5-1.7-2.2-2.5-.4-.4-.7-.8-1.1-1.2-.7-.8-1.5-1.7-2.2-2.5-.3-.4-.7-.7-1-1.1-.8-.9-1.6-1.7-2.4-2.6-1.9-2-3.9-4-5.9-5.9l-.7-.7c-.7-.7-1.5-1.4-2.3-2.1-.4-.4-.9-.8-1.3-1.2-.7-.7-1.4-1.3-2.1-2-.5-.4-1-.9-1.5-1.3l-2.1-1.8c-.5-.5-1-.9-1.6-1.3-.7-.6-1.4-1.2-2.1-1.7-.5-.5-1.1-.9-1.6-1.3-.7-.6-1.4-1.1-2.1-1.7-.6-.4-1.1-.9-1.7-1.3-.7-.5-1.4-1.1-2.1-1.6-.6-.4-1.2-.9-1.8-1.3-1.2-.9-2.4-1.8-3.6-2.6-.7-.5-1.4-1-2-1.4-.6-.4-1.3-.9-2-1.3s-1.3-.9-2-1.3-1.3-.8-2-1.3c-.7-.4-1.3-.9-2-1.3s-1.3-.8-2-1.2l-2.1-1.2c-.7-.4-1.3-.8-2-1.1l-2.1-1.2c-.6-.4-1.3-.7-1.9-1.1-.7-.4-1.5-.8-2.3-1.2-.6-.3-1.2-.6-1.9-1-.9-.4-1.7-.9-2.6-1.3-.5-.2-1-.5-1.5-.7-1.4-.6-2.7-1.3-4.1-1.9l-1.5-.6-2.7-1.2c-.6-.2-1.2-.5-1.8-.7-.8-.3-1.7-.7-2.5-1-.6-.2-1.2-.5-1.9-.7-.8-.3-1.6-.6-2.5-.9-.6-.2-1.3-.4-1.9-.6-.8-.3-1.7-.6-2.5-.8-.6-.2-1.2-.4-1.9-.6-.9-.3-1.8-.5-2.6-.8-.6-.2-1.2-.3-1.8-.5-1-.3-2-.5-3-.8-.5-.1-.9-.2-1.4-.4-1.5-.4-2.9-.7-4.4-1-.3-.1-.6-.1-.9-.2-1.2-.3-2.4-.5-3.6-.7-.5-.1-1.1-.2-1.6-.3-1-.2-1.9-.3-2.9-.5l-1.8-.3c-.9-.1-1.8-.3-2.7-.4-.6-.1-1.2-.2-1.9-.2l-2.7-.3c-.6-.1-1.2-.1-1.9-.2-.9-.1-1.9-.2-2.8-.2-.6 0-1.2-.1-1.8-.1-1-.1-2.1-.1-3.1-.1-.5 0-1 0-1.5-.1-1.2-.4-2.8-.4-4.3-.4-1.6 0-3.1 0-4.7.1-.5 0-1 0-1.6.1-1 0-2.1.1-3.1.1-.6 0-1.2.1-1.8.1-.9.1-1.9.1-2.8.2-.7.1-1.3.1-2 .2l-2.7.3c-.7.1-1.3.2-2 .3-.9.1-1.7.2-2.6.4-.7.1-1.4.2-2 .3-.9.1-1.7.3-2.6.4-.7.1-1.4.2-2 .4-.9.2-1.7.3-2.6.5-.7.1-1.3.3-2 .4-.9.2-1.7.4-2.6.6-.6.2-1.3.3-1.9.5-.9.2-1.8.5-2.6.7-.6.2-1.2.3-1.8.5-1 .3-1.9.6-2.9.8-.5.2-1.1.3-1.6.5-1.5.5-2.9.9-4.3 1.4-.4.2-.9.3-1.3.5-1 .4-2 .7-3.1 1.1-.6.2-1.2.5-1.9.7-.8.3-1.7.6-2.5 1-.7.3-1.3.6-2 .8-.8.3-1.5.6-2.3 1l-2.1.9c-.7.3-1.5.7-2.2 1-.7.3-1.4.7-2.1 1-.7.3-1.4.7-2.1 1-.7.4-1.4.7-2.1 1.1-.7.4-1.4.7-2 1.1l-2.1 1.2c-.7.4-1.3.7-2 1.1-.7.4-1.4.8-2.2 1.2-.6.4-1.3.8-1.9 1.1-.7.4-1.5.9-2.2 1.3-.6.4-1.2.8-1.8 1.1-.8.5-1.5.9-2.2 1.4-.5.3-1 .7-1.5 1-3 2-6 4.1-8.9 6.3-.4.3-.8.6-1.1.8-.8.6-1.7 1.3-2.5 1.9-.5.4-.9.7-1.4 1.1-.8.6-1.6 1.3-2.4 1.9-.5.4-.9.8-1.4 1.1-.8.7-1.6 1.3-2.4 2-.5.4-.9.8-1.4 1.2l-2.4 2.1c-.4.4-.9.8-1.3 1.2-.8.7-1.6 1.4-2.4 2.2l-1.2 1.2c-.8.8-1.6 1.5-2.4 2.3l-1.1 1.1-2.5 2.5-.9.9c-.9.9-1.7 1.8-2.6 2.7-.2.2-.3.4-.5.5-5.4 5.7-10.5 11.7-15.5 18.1-.1.1-.2.2-.2.3-.9 1.2-1.8 2.3-2.7 3.5-.2.2-.3.4-.5.6-.9 1.1-1.7 2.3-2.5 3.4-.2.2-.4.5-.5.7-.8 1.2-1.7 2.3-2.5 3.5-.2.2-.3.5-.5.7-.8 1.2-1.7 2.4-2.5 3.6-.1.2-.3.4-.4.7-.8 1.3-1.7 2.5-2.5 3.8-.1.1-.2.3-.3.4-8.4 13-16 26.9-22.7 41.7 0 0 0 .1-.1.1-.7 1.6-1.5 3.3-2.2 4.9 0 .1 0 .1-.1.2-.7 1.7-1.4 3.3-2.1 5-11.4 27.2-19.9 57-25 88.6L21.6 344c-4.7 25.1 6 50.5 27.1 64.8 18.6 12.5 40.6 27.3 60 40.2 10.5 7 22.9 10.7 35.5 10.7h16.6c4.7 5.2 9.9 10.1 15.5 14.6l25.4 20.5c13.4 10.9 30.9 16.9 49 16.9h10.6c18.1 0 35.5-6 49-16.9l25.4-20.5c5.6-4.5 10.8-9.4 15.5-14.6h16.6c12.6 0 25-3.7 35.5-10.7 19.4-12.9 41.4-27.7 60-40.2 21.1-14 31.8-39.5 27.1-64.5zM330.6 468.4l-25.4 20.5c-12 9.7-27.6 15.1-43.9 15.1h-10.6c-16.3 0-31.9-5.4-43.9-15.1l-25.4-20.5c-26.7-21.6-43.1-51.1-46.1-83.2l-14.6-154.6c3.8.3 7.5.4 11.4.4 65.9 0 122.7-38.6 149.2-94.4 26.7 34.7 66.9 58.5 112.8 63.5v2.7l-17.3 182.6c-3.1 31.9-19.5 61.4-46.2 83zm-135.9-208c-12.9 0-26.4 11.8-26.4 26.4s13.5 26.4 26.4 26.4 26.4-11.8 26.4-26.4-13.5-26.4-26.4-26.4zm14.6 30c-4.1 0-7.5-3.8-7.5-8.5s3.4-8.5 7.5-8.5 7.5 3.8 7.5 8.5-3.3 8.5-7.5 8.5zm108-30c-12.9 0-26.4 11.8-26.4 26.4s13.5 26.4 26.4 26.4 26.4-11.8 26.4-26.4-13.5-26.4-26.4-26.4zm22.1 21.5c0 4.7-3.4 8.5-7.5 8.5s-7.5-3.8-7.5-8.5 3.4-8.5 7.5-8.5 7.5 3.8 7.5 8.5zm-57 128.1h-52.7c-7.9 0-14.4 6.4-14.4 14.4s6.4 14.4 14.4 14.4h52.7c7.9 0 14.4-6.4 14.4-14.4s-6.5-14.4-14.4-14.4zm0 20.8h-52.7c-3.5 0-6.4-2.9-6.4-6.4s2.9-6.4 6.4-6.4h52.7c3.5 0 6.4 2.9 6.4 6.4s-2.9 6.4-6.4 6.4z" fill="#36434f"/></svg>