<svg xmlns="http://www.w3.org/2000/svg" viewBox="0 0 512 512" xml:space="preserve"><path d="M256 0C145.5 0 56 85.7 56 191.3l13.3 130.8c3.2 31.4 26.4 57 57.3 63.5l8.6 1.8c9.4 2 15.7 10.9 14.5 20.4l-5.3 39.6c-3.9 29.4 17.1 56.2 46.6 59.6l25.2 2.8c26.5 3 53.2 3 79.7 0l25.2-2.8c29.5-3.3 50.5-30.2 46.6-59.6l-5.3-39.6c-1.3-9.5 5-18.4 14.5-20.4l8.6-1.8c30.9-6.4 54.1-32.1 57.3-63.5L456 191.3C456 85.7 366.5 0 256 0zm-30.6 316.6c-.1.7-.2 1.2-.3 1.5-3.9 13.6-14.4 24.8-28.4 29.4l-28.7 9.4c-21.7 7.2-43.8-10-42-32.8l1.8-23.6c1.3-16.7 16.4-28.9 33-26.7l34.8 4.6c18.8 2.5 32.2 19.5 29.8 38.2zM256 429.9c-14.1 0-25.5-8.9-25.5-19.9s21.6-51.1 25.5-51.1 25.5 40.1 25.5 51.1-11.4 19.9-25.5 19.9zm87.9-73-28.7-9.4c-14-4.6-24.4-15.8-28.4-29.4-.1-.3-.2-.8-.3-1.5-2.4-18.7 11-35.7 29.7-38.2l34.8-4.6c16.6-2.2 31.7 10 33 26.7l1.8 23.6c1.9 22.8-20.2 40-41.9 32.8z" fill="#36434f"/></svg>