<svg xmlns="http://www.w3.org/2000/svg" viewBox="0 0 512 512" xml:space="preserve"><path d="M297.4 339.3V172.6c0-32.3 13.5-62.7 36-85.9 10.2-10.5 16-25.4 14.1-41.6-2.7-23.7-22-42.7-45.8-44.9-18.6-1.8-35.5 6.5-45.7 20-10.3-13.5-27.1-21.8-45.7-20-23.8 2.2-43.1 21.2-45.8 44.9-1.8 16.2 3.9 31.1 14.1 41.6 22.5 23.2 36 53.6 36 85.9v166.8c0 32.3-13.5 62.7-36 85.9-10.2 10.5-16 25.4-14.1 41.6 2.7 23.7 22 42.7 45.8 44.9 18.6 1.8 35.5-6.5 45.7-20 10.3 13.5 27.1 21.8 45.7 20 23.8-2.2 43.1-21.2 45.8-44.9 1.8-16.2-3.9-31.1-14.1-41.6-22.5-23.2-36-53.7-36-86z" fill="#36434f"/></svg>