<svg version="1.1" xmlns="http://www.w3.org/2000/svg" x="0" y="0" viewBox="0 0 512 512" xml:space="preserve"><path d="M188.7 249.4c-14.6 0-26.4 11.8-26.4 26.4 0 14.6 11.8 26.4 26.4 26.4s26.4-11.8 26.4-26.4c0-14.6-11.8-26.4-26.4-26.4zm22.1 21.5c0 4.7-3.4 8.5-7.5 8.5s-7.5-3.8-7.5-8.5 3.4-8.5 7.5-8.5 7.5 3.8 7.5 8.5zm112.5-21.5c-14.6 0-26.4 11.8-26.4 26.4 0 14.6 11.8 26.4 26.4 26.4 14.6 0 26.4-11.8 26.4-26.4 0-14.6-11.8-26.4-26.4-26.4zm22.1 21.5c0 4.7-3.4 8.5-7.5 8.5s-7.5-3.8-7.5-8.5 3.4-8.5 7.5-8.5 7.5 3.8 7.5 8.5zm79.2-3.1c-1-.2-1.9-.3-2.9-.3-3.9 0-8 1.8-12 4.9l23.1-139.5C432.2 59.4 353.3 0 256 0S79.8 59.4 79.2 132.9l23.1 139.5c-4-3.1-8.1-4.8-12-4.8-.9 0-1.9.1-2.8.3-13.9 3.3-19.8 29.2-13 57.9 6.2 26.7 21.2 46.4 34.4 46.4 1 0 2-.1 3-.3.8-.2 1.7-.5 2.4-.8l1.2 11.5c4.1 40.6 27.1 77.3 62.6 100.2l27 17.4c11.9 7.7 26 11.8 40.4 11.8h21c14.4 0 28.5-4.1 40.4-11.8l27-17.4c35.5-22.9 58.5-59.6 62.6-100.2l1.2-11.7c.8.4 1.7.7 2.5.9 1 .2 2 .3 3 .3 13.2 0 28.2-19.8 34.4-46.4 6.7-28.7.9-54.6-13-57.9zm5.2 56.1c-6.1 25.9-19.6 40.3-26.6 40.3-.4 0-.7 0-1.1-.1-.4-.1-.7-.2-.8-.3l-10.4-5.2-1.2 11.5-1.2 11.7c-3.9 38.2-25.4 72.6-59 94.3l-27 17.4c-10.6 6.9-23.1 10.5-36.1 10.5h-20.9c-13 0-25.4-3.6-36.1-10.5l-27-17.4c-33.6-21.7-55.1-56.1-59-94.3l-1.2-11.5-1.1-10.8-10 4.3c-.3.1-.7.3-1.1.4-.4.1-.7.1-1.1.1-7 0-20.6-14.3-26.6-40.3-6.4-26.9-.1-46.5 7-48.3.3-.1.7-.1 1-.1 2.4 0 5.5 1.6 8.7 4.5l15.5 14.1-2.1-20.8-2.6-25.6 5.6-112.8c36 16.1 85.7 26.1 140.7 26.1s104.7-10 140.7-26.1l5.6 112.8-2.6 25.6-2.2 21.1 15.6-14.4c3.2-3 6.3-4.6 8.6-4.6.4 0 .7 0 1.1.1 6.9 1.7 13.2 21.3 6.9 48.3zm-149.1 79.6h-49.5c-8.8 0-16 7.2-16 16v3.2c0 8.8 7.2 16 16 16h49.5c8.8 0 16-7.2 16-16v-3.2c0-8.8-7.1-16-16-16zm8 19.2c0 4.4-3.6 8-8 8h-49.5c-4.4 0-8-3.6-8-8v-3.2c0-4.4 3.6-8 8-8h49.5c4.4 0 8 3.6 8 8v3.2z" fill="#36434f"/></svg>