<svg version="1.1" xmlns="http://www.w3.org/2000/svg" x="0" y="0" viewBox="0 0 512 512" xml:space="preserve"><path d="M380.2 45c47.1 0 89.1 27.9 107 71.2 9.5 23 11.4 48.5 5.3 73.9-6.9 29.3-23.7 57.4-49.9 83.6l-99 99-87.6 87.7-87.7-87.7-99-99c-26.2-26.2-42.9-54.3-49.9-83.6-6-25.4-4.2-51 5.3-73.9C42.7 73 84.7 45 131.8 45c38.9 0 77.9 18.5 112.9 53.4l11.3 11.3 11.3-11.3c34.9-34.9 74-53.4 112.9-53.4m0-16c-39.5 0-83.1 17-124.2 58.1-41-41-84.7-58.1-124.2-58.1C19.2 29-59 168 58 285l99 99 99 99 99-99 99-99c117-117 38.8-256-73.8-256z" fill="#36434f"/></svg>