<svg version="1.1" xmlns="http://www.w3.org/2000/svg" x="0" y="0" viewBox="0 0 512 512" xml:space="preserve"><path d="M380.2 61c40.6 0 76.8 24.1 92.2 61.3 8.2 19.8 9.8 42 4.6 64.1-6.2 26.4-21.6 51.9-45.6 75.9l-99 99-76.4 76.4-76.4-76.4-99-99c-24-24-39.4-49.6-45.6-75.9-5.2-22.1-3.7-44.3 4.6-64.1C55 85.1 91.2 61 131.8 61c34.6 0 69.7 16.8 101.5 48.7l22.6 22.6 22.6-22.6c32-31.8 67.1-48.7 101.7-48.7m0-32c-39.5 0-83.1 17-124.2 58.1-41-41-84.7-58.1-124.2-58.1C19.2 29-59 168 58 285l99 99 99 99 99-99 99-99c117-117 38.8-256-73.8-256z" fill="#36434f"/></svg>