<svg version="1.1" xmlns="http://www.w3.org/2000/svg" x="0" y="0" viewBox="0 0 512 512" xml:space="preserve"><path d="M256 0C114.6 0 0 114.6 0 256s114.6 256 256 256 256-114.6 256-256S397.4 0 256 0zm-4.1 227.6c0 15.7-12.7 28.4-28.4 28.4s-28.4-12.7-28.4-28.4c0-5.3 1.4-10.2 3.9-14.4h49c2.5 4.2 3.9 9.1 3.9 14.4zm4.1 233.6c-113.3 0-205.2-91.9-205.2-205.2 0-14.7 1.6-29 4.5-42.8h122.2c-6.9 12.7-10.9 27.3-10.9 42.8 0 49.4 40 89.4 89.4 89.4s89.4-40 89.4-89.4c0-15.5-3.9-30.1-10.9-42.8h122.2c2.9 13.8 4.5 28.1 4.5 42.8 0 113.3-91.9 205.2-205.2 205.2z" fill="#36434f"/></svg>