<svg version="1.1" xmlns="http://www.w3.org/2000/svg" x="0" y="0" viewBox="0 0 512 512" style="enable-background:new 0 0 512 512" xml:space="preserve"><path d="M297.5 512H161.3c-2.2 0-4-1.8-4-4v-19.5c.1-16.7.1-33.9-.2-50.8-.1-6.5-1.2-13.3-3.3-19.8-2.5-8-5.3-16.2-8.1-24-4.1-11.7-8.3-23.9-11.6-36.1-4.9-17.9-7.7-33.8-8.6-48.7-2.5-42.5-13-82.9-24.5-124-.6-2-1.1-4-1.6-6-1.7-6.5-3.3-12.7-5.9-18.4-5.7-12.7-7.2-26-8.5-38.9-.4-4-.9-8.2-1.5-12.3-1.2-8.6 2.4-15.8 9.7-19.2 7-3.3 17.3.1 22.5 7.4 4 5.6 6.7 10.8 8.2 15.7 3.8 13 7.1 26.4 10.2 39.3l.6 2.4c1.8 7.5 5 14.8 10.4 23.6 3.9 6.4 5.8 13.6 7.7 20.5.3 1.2.6 2.4 1 3.6.6 2.2 1.2 4.8 1.9 7.5.9 3.8 2.4 9.5 3.5 13 .8-1.4 1.6-3.3 2-4.9.7-3.2.1-6.6-.4-10.2-.2-1-.3-2-.5-3-.5-3.5-1-7-1.4-10.4l-.8-6c-1.5-10.9-3-21.9-4.5-32.8l-9-65.7c-1.8-13.1-3.6-26.3-5.4-39.4l-.1-.6c-.4-3.2-.9-6.8-.1-10.3 2.5-10.3 12.2-18.8 21.1-18.7 9.1.1 17.7 8.9 19.6 20 1.4 8 2.5 16 3.7 23.9 1.5 9.9 3 20.2 4.8 30.2 1.6 8.9 3.8 17.9 5.9 26.6 1.4 5.6 2.8 11.5 4 17.3 2.2 10 4.4 20.5 6.7 32.1-.8-8.7-1.5-16.7-1.9-24.7-.4-7.6.1-15.3.5-22.7.2-2.8.3-5.7.4-8.5.1-1.8.3-3.6.4-5.4.2-2.2.4-4.2.4-6.3.1-18.5.1-37.4 0-55.6v-22c0-2-.1-4.1.1-6.3 1.1-11.7 9.1-20.2 19.2-20.3 14-.1 23.8 8.2 24.5 20.7 1.8 30.9 3.4 62.2 4.7 93 .8 18.6 1.3 37.6 1.8 55.9.2 6 .3 12 .5 18.1v.9c.2 6.6.7 7.1 4 7.2h.1c3.6 0 9.4-5 9.7-8.5.8-8.6 1.5-17.4 2.2-25.9.7-8.7 1.5-17.6 2.3-26.4l1.2-12.6c2.4-25.8 5-52.6 7.9-78.8.8-7.2 4.5-13.4 10.2-17.2 5.2-3.4 11.5-4.4 17.4-2.7 8.7 2.6 14 10.1 14.1 20.2.2 21.2 0 42.8-.2 63.7-.1 14-.2 28.4-.2 42.6 0 6.5 0 13-.1 19.5-.1 24.4-.3 49.6 1.1 74.3.6 11.3 6.6 29 9.2 33.4 1.3-.4 3.6-1.8 4.9-2.6 1.1-.7 2.2-1.3 3.3-1.9.1-.1.2-.1.4-.2.1 0 .2-.1.3-.1 0 0 0-.1.1-.1.7-1.4 1.3-2.8 2-4.3 2.3-5 4.8-10.3 7.5-15.3 1.1-2 2.2-3.9 3.3-5.8 4.6-7.9 9-15.3 9.4-25 .4-9.4 7.3-18.9 12.5-25.3 8.3-10.2 18.4-21.5 33.9-25 5.8-1.3 11.4.4 14.4 4.4 2.5 3.3 2.6 7.7.3 11.6-9 15.5-10.9 32.2-13 49.9-.4 3.1-.7 6.3-1.1 9.4-.5 4.2-2.3 8.7-4.8 12.7-9.8 15.4-15.5 33-21 50-1.5 4.7-3.1 9.5-4.7 14.2-2.4 7.1-5.4 13.1-8.7 17.9-19.7 28.2-35.1 49.7-50 69.8-8.5 11.4-13.3 24.5-14.9 39.8-1.3 13.3-3.1 26.8-4.9 39.8-.8 5.7-1.5 11.4-2.3 17.1 0 2.5-1.7 4-3.7 4zm-132.2-8H294c.6-4.5 1.2-9.1 1.8-13.6 1.8-13 3.6-26.4 4.9-39.5 1.7-16.8 7-31.1 16.4-43.8 14.9-20.1 30.2-41.5 49.9-69.6 2.9-4.2 5.5-9.6 7.7-15.9 1.6-4.7 3.1-9.4 4.6-14.1 5.6-17.5 11.5-35.6 21.8-51.8 1.9-3 3.2-6.4 3.6-9.4.4-3.1.8-6.2 1.1-9.3 2.1-17.8 4.2-36.1 14-53 1-1.7.4-2.6.2-2.8-.8-1.1-3.1-2-6.1-1.4-13 3-21.7 12.6-29.5 22.2-4.5 5.5-10.4 13.6-10.7 20.6-.5 11.6-5.6 20.3-10.4 28.7-1.1 1.8-2.2 3.7-3.2 5.6-2.6 4.8-5 9.9-7.2 14.8-.7 1.4-1.3 2.9-2 4.3-.3.6-.7 1.5-1.5 2.4-1 1-2.1 1.5-2.8 1.8-.8.4-1.7 1-2.7 1.6-4.1 2.5-8.8 5.3-12.9 3.2-1.1-.6-3.7-1.9-8.3-16.6-2.8-8.9-4.7-17.7-5-23.8-1.4-24.9-1.2-50.3-1.1-74.8 0-6.5.1-13 .1-19.5 0-14.2.1-28.7.2-42.7.2-20.8.3-42.4.2-63.5 0-3.8-1.1-10.4-8.3-12.5-3.6-1.1-7.4-.5-10.7 1.7-3.7 2.4-6.1 6.6-6.6 11.4-2.9 26.2-5.5 52.9-7.9 78.7l-1.2 12.6c-.8 8.8-1.6 17.7-2.3 26.3-.7 8.5-1.4 17.3-2.2 26-.7 7.8-10.2 16-18 15.8-11.4-.4-11.7-9.9-11.8-15v-.9c-.2-6-.3-12.1-.5-18.1-.5-18.3-1-37.2-1.8-55.8-1.3-30.8-2.9-62-4.7-92.8-.6-8.5-7-13.5-16.7-13.5-6 0-10.6 5.4-11.3 13-.2 1.7-.1 3.5-.1 5.4v77.8c0 2.4-.2 4.8-.5 7-.2 1.7-.3 3.3-.4 4.9-.1 2.9-.3 5.8-.5 8.6-.4 7.2-.8 14.6-.5 21.8.4 8.6 1.2 17.2 2.1 26.7.2 1.9.4 3.8.7 5.9.8 6.7 1.7 13.6.5 20.3-.2 1.3-.6 2.8-1.7 4.1-1.8 2.2-4.8 2.8-7.2 1.4-2.3-1.3-2.8-3.7-2.9-4.6-4.7-23.8-8.4-42-12.1-59.2-1.2-5.7-2.6-11.5-4-17.1-2.1-8.8-4.3-17.9-6-27-1.9-10.2-3.4-20.5-4.9-30.5-1.1-7.8-2.3-15.8-3.7-23.7-1.3-7.9-7.2-13.3-11.8-13.4h-.1c-4.7 0-11.4 5.4-13.1 12.6-.5 2-.1 4.7.2 7.3l.1.6c1.8 13.1 3.6 26.3 5.4 39.4l9 65.7c1.5 10.9 3 21.9 4.5 32.8l.8 6c.5 3.5 1 7 1.4 10.4.1.9.3 1.9.4 2.8.7 4.2 1.4 8.5.4 13.1-.7 3.1-3.7 10.7-8.1 12.7-1.7.8-3.6.7-5.1-.2-2.9-1.7-4.4-6.1-7.9-20.3-.7-2.7-1.3-5.2-1.9-7.3-.3-1.2-.7-2.4-1-3.7-1.8-6.6-3.4-12.9-6.8-18.4-5.8-9.5-9.4-17.5-11.4-25.9l-.6-2.4c-3.1-12.8-6.3-26.1-10.1-39-1.2-4.1-3.5-8.4-7-13.3-3.3-4.5-9.5-6.3-12.7-4.8-5.2 2.4-5.7 7.2-5.2 10.8.6 4.2 1.1 8.4 1.5 12.5 1.4 12.8 2.7 24.9 7.9 36.5 2.9 6.4 4.6 13.1 6.4 19.7.5 2 1 3.9 1.6 5.8 11.6 41.5 22.2 82.3 24.8 125.6.9 14.3 3.6 29.7 8.3 47 3.3 12 7.4 24 11.4 35.6 2.7 7.9 5.6 16.1 8.1 24.3 2.2 7.2 3.5 14.8 3.6 22 .3 17 .2 34.3.2 51 .3 5.4.2 10.5.2 15.7zm178.2-231.2z" style="fill:#36434f"/></svg>