<svg version="1.1" xmlns="http://www.w3.org/2000/svg" x="0" y="0" viewBox="0 0 512 512" xml:space="preserve"><path d="M225.3 226.2c-4 13.9-14.6 25.2-28.8 29.9l-29.1 9.6c-22.1 7.3-44.4-10.2-42.6-33.4l1.8-24c1.3-17 16.6-29.4 33.5-27.1l35.3 4.7c19 2.5 32.6 19.8 30.2 38.8-.2.6-.2 1.2-.3 1.5zm160.1-17.9c-1.3-17-16.6-29.4-33.5-27.1l-35.3 4.7c-19 2.5-32.6 19.8-30.2 38.8.1.7.2 1.2.3 1.5 4 13.9 14.6 25.2 28.8 29.9l29.1 9.6c22.1 7.3 44.4-10.2 42.6-33.4l-1.8-24zM256 234c-5 0-32.5 51.4-32.5 65.5S238.1 325 256 325s32.5-11.4 32.5-25.5S261 234 256 234zm169 35.9v1.7c0 2.8-1.1 5.5-3 7.6l-20.9 22.2c-2.3 2.5-5.1 4.5-8.1 5.9V328c0 2.2-1.8 4-4 4h-6c-1.1 0-1.9.9-1.8 2l5.8 67.3c1.3 15.1-3.9 30-14.2 41l-22 23.4c-1.4 1.5-2.8 3.1-4.1 4.7-18.9 25-52.5 41.6-90.7 41.6s-71.8-16.6-90.7-41.6c-1.3-1.7-2.6-3.2-4.1-4.7l-22-23.4c-10.4-11-15.5-25.9-14.2-41l5.8-67.3c.1-1.1-.8-2-1.8-2h-6c-2.2 0-4-1.8-4-4v-20.6c-3-1.4-5.8-3.4-8.1-5.9L90 279.2c-1.9-2.1-3-4.8-3-7.6v-1.7c0-2.5 1.2-4.8 3.1-6.3l3.4-2.6c-2.3-16.3-4.1-32.9-5.2-49.7-.9-14.1-1.4-28.3-1.4-42.8 0-23.4 1.2-46.5 3.6-69C116.8 41.2 181 0 256 0s139.2 41.2 165.4 99.5c2.4 22.5 3.6 45.6 3.6 69 0 14.4-.5 28.7-1.4 42.8-1.1 16.8-2.8 33.4-5.2 49.7l3.4 2.6c2 1.5 3.2 3.9 3.2 6.3zm-40 39.8c-1.3.2-2.5.3-3.8.3h-6.6c-1.1 14.8-5 49.8-17.1 70.1-.4.7-.8 1.3-1.3 2 .2.6.4 1.2.4 1.8v3.1c0 3-.8 5.9-2.4 8.5l-3.6 5.7c-.4.6-.9 1.2-1.5 1.6-.2 3.8-2.1 7.3-5.3 9.3l-2.4 1.5c-1.1.7-2.4 1.1-3.6 1.1h-.3c-1.5 3.1-3.9 5.7-7 7.4l-6.7 3.7c-1.2.7-2.5 1-3.8 1-.7 0-1.4-.1-2.1-.3-1.5 2.3-3.6 4.1-6.2 5.3l-1.5.7c-1.4.6-2.9.9-4.3.9-1.6 0-3.2-.4-4.7-1.1-1.9 3-5 5.2-8.8 5.8l-2.2.4c-.6.1-1.2.2-1.8.2-2.6 0-5.1-.9-7.1-2.6-2.4 2.4-5.7 3.9-9.4 3.9h-4.6c-4.4 0-8.3-1.9-11.1-4.9-2.8 3-6.7 4.9-11.1 4.9h-4.6c-3.7 0-7-1.5-9.4-3.9-2 1.7-4.5 2.6-7.1 2.6-.6 0-1.2 0-1.9-.2l-2.2-.4c-3.8-.6-6.9-2.8-8.8-5.8-1.5.7-3.1 1.1-4.7 1.1-1.5 0-2.9-.3-4.3-.9l-1.5-.7c-2.6-1.1-4.7-3-6.2-5.3-.7.2-1.4.3-2.1.3-1.3 0-2.6-.3-3.8-1l-6.7-3.7c-3.1-1.7-5.5-4.3-7-7.4h-.3c-1.3 0-2.5-.4-3.6-1.1l-2.4-1.5c-3.2-2.1-5.2-5.5-5.3-9.3-.6-.4-1.1-.9-1.5-1.6l-3.6-5.7c-1.6-2.6-2.4-5.5-2.4-8.5v-3.1c0-.6.1-1.3.4-1.8-.5-.7-.9-1.4-1.3-2-12.1-20.2-16-55.3-17.1-70.1h-6.6c-1.3 0-2.5-.1-3.8-.3V324h2c2.7 0 5.4 1.2 7.2 3.2 1.9 2 2.8 4.8 2.6 7.5L133 402c-1.1 12.8 3.3 25.5 12.1 34.8l22 23.4c1.8 2 3.3 3.7 4.6 5.4 8.7 11.4 20.8 21 35.1 27.7 14.9 7 31.9 10.7 49.2 10.7 17.3 0 34.3-3.7 49.2-10.7 14.3-6.7 26.5-16.3 35.1-27.7 1.3-1.7 2.8-3.4 4.6-5.4l22-23.4c8.8-9.4 13.2-22.1 12.1-34.8l-5.8-67.3c-.2-2.7.7-5.5 2.6-7.5 1.9-2 4.5-3.2 7.2-3.2h2v-14.3zm-225.8 54.1.6-8.5c.1-1.8 1-3.4 2.4-4.5 1.3-1 2.9-1.4 4.6-1.2l.5-1.6c2.9-8.8 1.6-18.4-3.5-26.1l-1.7-2.5c-3.7-5.6-10-9-16.7-9.2 1.2 14.5 5 47.6 16 65.9 2 3.3 5 7 9.1 11.1 1.1.2 2.2.7 3 1.5l4.1 3.7c.8.7 1.5 1.6 2 2.5 1.2-.1 2.3.1 3.4.5l7.9 3.3c2.4 1 4.4 2.6 5.9 4.6 1.8-.8 3.7-.9 5.6-.4l6.5 1.9c2 .6 3.7 1.7 5 3.2 1.7-.9 3.7-1.3 5.7-1.1l4.9.5c2.7.3 5.2 1.5 7 3.4 1.1-.8 2.3-1.5 3.6-2-3.8-.8-7.1-3.2-9.1-6.4-1.1.5-2.4.7-3.6.7H215c-3.4 0-6.6-1.5-8.8-4.1-.4-.4-.7-.9-1-1.4-1.8.9-3.7 1.3-5.6 1.3-1.9 0-3.9-.5-5.7-1.4l-1.5-.7c-3-1.5-5.3-4-6.5-7-.7.2-1.5.3-2.2.3-1.9 0-3.7-.5-5.3-1.6l-.6-.4c-1.8-1.2-3.3-2.9-4.1-4.9-1.5-.1-3-.8-4.1-1.9l-2.2-2.2c-1.5-1.5-2.5-3.2-3.2-5.1-1.1-.4-2.1-1.1-2.8-2.2-1.6-2.4-2.4-5.2-2.2-8zm13.8 9.5.2.2 1.1-7.5c.3-1.9-.5-3.7-2-4.8l-.8 7.8c-.2 1.6.3 3.2 1.5 4.3zm9.2 8 .6.4c.7.4 1.3.3 1.6.1.3-.1.8-.5 1-1.3l1.5-10.1v-.2c.3-2.2-1.2-4.2-3.3-4.5l-1.2-.2-1.8 12.3c-.2 1.4.4 2.8 1.6 3.5zm13.8 8.2 1.5.7c1.3.7 2.9.7 4.2 0 1.3-.7 2.3-1.9 2.6-3.4l.1-.3 1.8-9.2c.7-3.6-1.6-7.2-5.1-8l-2-.5c-.3-.1-.6-.1-.8-.1-.7 0-1.3.2-1.9.6-.8.5-1.3 1.4-1.5 2.3l-1.5 9.8-.3 2.2c-.5 2.5.7 4.9 2.9 5.9zm16.3 4.3c.4.5 1.2 1.2 2.6 1.2h7.5c.8 0 1.5-.7 1.5-1.5v-13.2c0-4.6-3.7-8.3-8.3-8.3-.2 0-.4.2-.4.4l-1.3 6.6-1.4 7-1 5c-.1 1.3.5 2.3.8 2.8zm73.6 8.5c-2 3.2-5.2 5.6-9.1 6.4 1.3.5 2.5 1.1 3.6 2 1.8-1.8 4.2-3.1 7-3.4l4.9-.5c2-.2 4 .2 5.7 1.1 1.3-1.5 3.1-2.6 5-3.2l6.5-1.9c1.9-.6 3.9-.4 5.6.4 1.5-2 3.5-3.5 5.9-4.6l7.9-3.3c1.1-.5 2.3-.6 3.4-.5.5-.9 1.2-1.8 2-2.5l4.1-3.7c.9-.8 1.9-1.3 3-1.5 4.1-4.1 7.1-7.8 9.1-11.1 11-18.3 14.8-51.4 16-65.9-6.7.2-13 3.6-16.7 9.2l-1.7 2.5c-5.1 7.7-6.4 17.3-3.5 26.1l.5 1.6c1.6-.2 3.3.2 4.6 1.2 1.4 1.1 2.3 2.7 2.4 4.5l.6 8.5c.2 2.8-.5 5.6-2.1 7.9-.7 1.1-1.7 1.8-2.8 2.2-.6 1.9-1.7 3.7-3.2 5.1l-2.2 2.2c-1.1 1.1-2.6 1.8-4.1 1.9-.9 2-2.3 3.7-4.1 4.9l-.6.4c-1.6 1.1-3.5 1.6-5.3 1.6-.8 0-1.5-.1-2.2-.3-1.2 3-3.5 5.5-6.5 7l-1.5.7c-1.8.9-3.8 1.4-5.7 1.4-1.9 0-3.8-.4-5.6-1.3-.3.5-.6 1-1 1.4-2.2 2.6-5.4 4.1-8.8 4.1h-7.5c-1.3.1-2.5-.2-3.6-.6zm3.6-7.3h7.5c1.4 0 2.2-.8 2.6-1.2.4-.5 1-1.4.7-2.8l-.5-2.5-1.6-8.2-1.5-7.9c0-.2-.2-.4-.4-.4-4.6 0-8.3 3.7-8.3 8.3v13.2c0 .8.7 1.5 1.5 1.5zm16.4-17.6 1.8 9.5c.3 1.5 1.2 2.7 2.6 3.3 1.3.7 2.9.7 4.2 0l1.5-.7c2.2-1.1 3.4-3.4 3-5.9l-.3-1.9-1.5-10.1c-.1-1-.7-1.8-1.5-2.3-.6-.4-1.2-.6-1.9-.6-.3 0-.6 0-.8.1l-2 .5c-3.5 1-5.8 4.5-5.1 8.1zm19.2-7.1v.2l1.5 10.1c.1.8.7 1.1 1 1.3.3.1.9.3 1.6-.1l.6-.4c1.1-.8 1.7-2.1 1.5-3.5l-.1-.4-1.5-10.3-.2-1.5-1.2.2c-2 .2-3.5 2.2-3.2 4.4zm12.7-4.3 1.1 7.5.2-.2c1.1-1.1 1.7-2.7 1.5-4.3l-.8-7.8c-1.6 1.1-2.3 2.9-2 4.8zm1.9 32.1c-.5.4-.7 1-.7 1.6v5.9l.3-.2c1.1-.7 1.7-1.9 1.7-3.2V397l-1.3 1.1zm-15.6 7.8c-2.5 1-4.1 3.5-4.1 6.1v6.6l6.4-3.5c2.8-1.6 4.6-4.6 4.6-7.8V403l-6.9 2.9zm-12.2 4.6c-.1-.1-.2-.1-.2 0l-6.5 1.9c-1.3.4-2.2 1.6-2.2 2.9v7.5c0 1.3.9 2 1.2 2.2.4.2 1.3.7 2.5.2l1.5-.7c2.3-1 3.7-3.2 3.7-5.7v-8.2c.1 0 .1 0 0-.1zm-17.5 4.6c-.2-.2-.7-.5-1.3-.4l-4.9.5c-1.8.2-3.2 1.8-3.2 3.6v8.6c0 1.3.7 2.1 1.1 2.4.4.4 1.3.9 2.6.7l2.2-.4c2.4-.4 4.1-2.4 4.1-4.8v-9.1c0-.5-.4-.9-.6-1.1zm-21.6.9H265c-2.8 0-5 2.2-5 5v3.9c0 3.9 3.2 7.1 7.1 7.1h4.6c2.9 0 5.3-2.4 5.3-5.3v-6.5c0-2.3-1.9-4.2-4.2-4.2zm7.2-38c0-2.2-1.8-4-4-4h-4.6c-6.3 0-11.4 5.1-11.4 11.4v8.2c0 4.1 3.3 7.4 7.4 7.4h6.4c3.4 0 6.2-2.8 6.2-6.2V378zm-24 25.9c-1.8 2-4.1 3.5-6.6 4.3 2.6.5 4.8 1.7 6.6 3.4 1.8-1.7 4.1-2.9 6.6-3.4-2.5-.8-4.8-2.3-6.6-4.3zm-9 12.1h-7.8c-2.3 0-4.2 1.9-4.2 4.2v6.5c0 2.9 2.4 5.3 5.3 5.3h4.6c3.9 0 7.1-3.2 7.1-7.1V421c0-2.8-2.2-5-5-5zm5-30.6c0-6.3-5.1-11.4-11.4-11.4H236c-2.2 0-4 1.8-4 4v16.8c0 3.4 2.8 6.2 6.2 6.2h6.4c4.1 0 7.4-3.3 7.4-7.4v-8.2zm-28.2 29.8-4.9-.5h-.2c-.6 0-.9.3-1.1.4-.2.2-.6.6-.6 1.3v9.1c0 2.4 1.7 4.4 4.1 4.8l2.2.4c1.3.2 2.2-.4 2.6-.7.4-.4 1.1-1.2 1.1-2.4V419c0-2-1.4-3.6-3.2-3.8zm-17-2.9-6.5-1.9h-.1s-.1 0-.1.1c-.1.1-.1.2-.1.2v8.2c0 2.5 1.5 4.7 3.7 5.7l1.5.7c1.2.5 2.2 0 2.5-.2s1.2-.9 1.2-2.2v-7.5c.1-1.5-.8-2.7-2.1-3.1zm-34.5-14.2L171 397v5.3c0 1.3.6 2.5 1.7 3.2l.3.2v-5.9c0-.7-.3-1.3-.7-1.7zm8.7 9.3c0 3.2 1.8 6.2 4.6 7.8l6.4 3.5v-6.6c0-2.7-1.6-5.1-4.1-6.1l-6.9-3v4.4zm228.9-142.9.7-4.6c2.3-16.2 4-32.8 5.1-49.1.9-14 1.4-28.2 1.4-42.2 0-22.3-1.2-44.8-3.4-66.9-12.4-27.1-33.4-50.2-60.7-66.9C324.3 17.2 290.8 8 256 8s-68.3 9.2-96.8 26.7c-27.3 16.7-48.3 39.9-60.7 66.9-2.3 22-3.4 44.5-3.4 66.9 0 14.1.5 28.3 1.4 42.2 1.1 16.3 2.8 32.9 5.1 49.1l.7 4.6-3.7 2.8-3.4 2.6v1.7c0 .8.3 1.5.8 2.1l20.9 22.2c3.6 3.9 8.8 6.1 14.1 6.1h14.1c9.7 0 18.6 4.8 24 12.8l1.7 2.5c6.5 9.8 8.2 21.9 4.4 33.1l-.8 2.3s.1 0 .1.1l2.4 1.7c1.3.9 2.4 2.1 3.3 3.4 1.1-.3 2.2-.4 3.4-.2l1.4.2c3.1.5 5.8 2.2 7.6 4.5 2.6-1.5 5.6-2 8.5-1.2l2 .5c2.9.7 5.4 2.3 7.3 4.4 1.5-1.2 3.4-2 5.4-2 4.8 0 9.1 2.1 12 5.3 2.2-2.1 5.1-3.3 8.3-3.3h4.6c6.3 0 11.8 3 15.4 7.6 3.5-4.6 9.1-7.6 15.4-7.6h4.6c3.2 0 6.1 1.3 8.3 3.3 3-3.3 7.3-5.3 12-5.3 2 0 3.9.7 5.4 2 1.9-2.1 4.4-3.6 7.3-4.4l2-.5c2.9-.7 5.9-.3 8.5 1.2 1.8-2.3 4.5-4 7.6-4.5l1.4-.2c1.2-.2 2.3-.1 3.4.2.9-1.3 2-2.4 3.3-3.4l2.4-1.7s.1 0 .1-.1l-.8-2.3c-3.7-11.2-2.1-23.2 4.4-33.1l1.7-2.5c5.4-8 14.3-12.8 24-12.8h14.1c5.3 0 10.4-2.2 14.1-6.1l20.9-22.2c.5-.6.8-1.3.8-2.1v-1.7l-3.4-2.6-3.7-2.7z" fill="#36434f"/></svg>