<svg version="1.1" xmlns="http://www.w3.org/2000/svg" x="0" y="0" viewBox="0 0 512 512" xml:space="preserve"><path d="M339.9 246.2c1.7-11-1.1-21.8-7.5-28.9-7.8-8.5-17-7.6-24.9-6.1-1.1-8-.9-15.9 4.4-23.6 3.7-5.3 9.1-9.6 16-9.6 1.6 0 3.4.2 5.2.7.4.1.7.1 1.1.1h.3c3.8.8 7.4 2.4 10.7 4.6 1.9 1.3 3.8 2.8 5.4 4.5 4.4 4.5 7.6 10.3 8.7 16.3.1 2.4.2 4.9.3 7.3v.5c-.1 1.1-.2 2.3-.3 3.4 0 .3 0 .5-.1.8-.1 1.1-.2 2.3-.2 3.4-.6 1.6-1.3 3.3-1.7 5-1 4.6-1.4 9.4-2.4 14-2.3 11.4 1.7 25.1-9.6 33.3-2.5 1.8-6.4 2.7-10.1 2.7-1.7 0-3.4-.2-4.9-.6-2.2-.6-4.7-2.1-6.7-4.1.7-.4 1.4-.7 2-1.1 7.5-4.1 12.7-12.4 14.3-22.6zm10.1 32.4c-5 3.7-11.4 4.2-14.8 4.2-2.4 0-4.7-.3-6.8-.8-4.5-1.1-9.1-4.3-12.2-8.1-5.3 2.4-10.6 4.6-15.9 6.7l-2.8 1.1c-4.2 1.7-8.5 3.2-12.7 4.6-5 1.7-10.2 3.5-15 5.6-.7.3-1.3.6-1.9 1 6.5 22.1 8.4 46.8 8.5 48.3.2 2.2-1.5 4.1-3.7 4.3h-.3c-2.1 0-3.8-1.6-4-3.7 0-.3-1.8-22.8-7.3-43.4-.3.3-.6.5-.9.8l-.5.5c-3.9 3.7-7.9 7.9-12.9 13.6-2.6 3-5.1 6.1-7.6 9.1-4.8 5.9-9.8 12.1-15.5 17.4-6.2 5.8-13.2 10.9-19.9 15.9-3.3 2.4-6.7 4.9-9.9 7.4-.7.6-1.6.8-2.5.8-1.2 0-2.4-.5-3.2-1.5-1.4-1.7-1.1-4.3.7-5.6 3.3-2.6 6.8-5.1 10.1-7.6 6.5-4.8 13.3-9.8 19.2-15.3 5.3-5 9.9-10.6 14.7-16.6 2.5-3.1 5.1-6.3 7.8-9.4 5.2-5.9 9.3-10.3 13.4-14.2l.5-.5c3.4-3.2 7.2-6.9 11.9-8.9 5.1-2.2 10.5-4 15.6-5.8 4.1-1.4 8.3-2.8 12.3-4.4l2.8-1.1c8.2-3.3 16.7-6.7 24.3-11.1 5.4-3.1 9.1-9.4 10.3-17.1 1.3-8.5-.8-17.1-5.5-22.3-5.5-6-12-4.7-19.6-3.3-.9.2-1.8.3-2.6.5-6 1.1-11.8 2.9-18 4.9-5.9 1.9-11.9 3.8-18.1 4.9-.9.2-1.9.3-2.8.5-9 1.7-16.9 3.1-23.6 8.9-6.7 5.7-13.8 11.2-20.6 16.4-5.1 3.9-10.4 8-15.5 12.2-11.5 9.4-22 18.4-32 27.5-1.7 1.5-3 3.7-4.4 6-.8 1.4-1.7 2.9-2.7 4.3-.4.5-.5.6-4.4 3.5-1.3 19.1-2.8 38.1-3.4 57.2-.4 12.1 1.8 24.3 2.3 36.4.7 16.8 1.5 33.6 1.2 50.3-.2 11.8-1.3 23.4 1.5 35.3 1.7 7.5-.1 15.8-.4 23.7h151c1.2-16.3 2.1-32.7 3.8-49 1.3-12.1 3-24.2 5.7-36 3.2-13.8 11.7-27 16.5-40.4 5.1-14.3 9.1-28.9 12.1-43.8 5.2-25.6 7.5-51.8 7.5-77.9-1.5 5.2-4.4 10-9.8 14zM154.8 124.4c1.3 18.4 3.5 36.9 5.8 55.2 2 15.6 6.6 31.1 6.7 46.7.1 23.3-2.8 46.6-4.4 69.9 1.5-2.4 3-4.8 5.3-6.8 10.1-9.2 20.7-18.3 32.3-27.8 5.2-4.2 10.5-8.3 15.7-12.3.6-.5 1.2-.9 1.8-1.4-13.1-7-24.8-11.5-25-11.6-2.1-.8-3.1-3.1-2.3-5.2.8-2.1 3.1-3.1 5.2-2.3 1 .4 14.5 5.6 29 13.7 3.9-3.1 7.8-6.2 11.6-9.4 8.4-7.2 18.1-9 27.4-10.7.9-.2 1.8-.3 2.7-.5 5.8-1.1 11.3-2.9 17.2-4.7 5.1-1.6 10.4-3.3 15.8-4.5-1.4-9.3-1.3-19.7 5.7-29.7 5.8-8.4 13.9-13 22.6-13h.2c.2-.9.4-1.9.6-3 1.4-6.8 2.8-13.6 4.1-20.4 2.8-14.6 5.4-29.3 8-43.9 2.7-15 5.8-30 7.7-45.2.7-6 .6-13.9-2.7-18.1-8.1-10.2-20.7-10.8-27-1.9-3.9 5.5-4.9 13.2-6.6 20-2.8 11-4.5 22.3-7.7 33.2-4.8 16.7-10.8 33.2-15.6 49.9-2.4 8.4-4.1 17.1-6 25.7-.4 1.7-.6 8.3-3 8.9-1.7.4-5.8-3.2-6.1-4.7-2.2-9.3-4.5-18.7-5.1-28.1-1.2-19-1.8-38-1.7-57 .1-17 1.8-33.9 2.5-50.8.3-7.6.9-15.4-.6-22.6C267.2 4 259.7.8 252.4.2c-7-.6-14.3 2.1-16.6 9.1-2.9 8.9-4.2 18.4-5.5 27.8-2.3 16.9-3.9 34-6.1 50.9-1.5 11.2-4.9 22.3-5.2 33.4-.3 13.5 1.7 27 2.8 40.5.3 3.4.5 6.9.7 10.3 0 .2-.3.6-.4.6-.5-.2-1.3-.4-1.5-.8-2.9-7-6.1-13.9-8.4-21.1-2.6-8.2-4.7-16.5-6.4-24.9-3.1-15.7-6.2-31.3-8.5-47.1-2.2-15.1-2.7-30.5-5.1-45.5-1.2-7.6-2.9-16.3-11.9-19.5-4.3-1.5-9.4-3.2-13.7-2.4-7.9 1.4-14.6 6.6-14.6 15.1-.1 18.4 1.3 36.7 1.8 55.1.5 14.1-.1 28.5 1 42.7z" fill="#36434f"/></svg>