<svg version="1.1" xmlns="http://www.w3.org/2000/svg" x="0" y="0" viewBox="0 0 512 512" xml:space="preserve"><path d="M157.1 467.6l10.1-5.8-8.7 14.4-1.4-8.6zm-43.4-441v.1c0 .2.1.4.2.6.1.2.5.2.8.2s.5-.1.7-.2c.2-.1.4-.3.5-.5v-1.2h-.7c-.9 0-1.4.3-1.5 1zm307.3 450l7.3-7.3c.2-.2.4-.3.7-.3s.5.1.7.3l7.3 7.3V460h-16v16.6zM150.3 460l5.8 5.8 10.1-5.8h-15.9zm-20.6 9c.2-5-3.8-9-8.8-9s-9 4-9 9 4 9 9 9c1.6 0 3.2-.5 4.6-1.3.3-.2.6-.2.8-.1l2.4.8-.8-2.3c-.1-.3-.1-.6.1-.9 1.1-1.5 1.7-3.4 1.7-5.2zm-38 31.3h2V497l-.1.2-1.9 3.1zm44.1-472.9c.4 0 .8-.2 1-.5.2-.3.4-.9.4-1.6 0-.6-.1-1.1-.4-1.5-.2-.4-.6-.5-1.1-.5-.4 0-.8.2-1 .5s-.4.8-.4 1.6c0 .7.1 1.2.4 1.5.3.3.6.5 1.1.5zM454 0v512H58V0h396zm-24.5 19c0 .8.7 1.5 1.5 1.5s1.5-.7 1.5-1.5-.7-1.5-1.5-1.5-1.5.7-1.5 1.5zm0 6c0 .8.7 1.5 1.5 1.5s1.5-.7 1.5-1.5-.7-1.5-1.5-1.5-1.5.7-1.5 1.5zm0 6c0 .8.7 1.5 1.5 1.5s1.5-.7 1.5-1.5-.7-1.5-1.5-1.5-1.5.7-1.5 1.5zm-275.6-7.7h1V27c.1 1.3.7 1.9 2 1.9.4 0 .7-.1 1.1-.2v-1.4h-.5c-.3 0-.5-.1-.6-.2-.1-.1-.1-.2-.1-.5v-3.4h1.2v-1.3h-1.2v-1.6h-1.9V22h-1v1.3zm-6.6 5.4h1.8v-4.8c.3-.5.7-.7 1.2-.7.3 0 .6.1.8.3.2.1.3.4.3.8v4.4h1.8v-4.4c0-.8-.2-1.5-.5-1.9-.3-.4-.9-.6-1.6-.6-.9 0-1.5.3-2 .9l-.1-.8v-.1h-1.7v6.9zm-7.3-2.3c0 .9.2 1.5.6 1.9.4.4 1 .6 1.7.6.8 0 1.4-.2 1.9-.8v.7h1.7v-6.9h-1.8v4.9c-.3.4-.7.6-1.3.6-.7 0-1-.4-1-1.1v-4.4H140v4.5zm-7.6-1.1c0 1.1.3 2 .8 2.8.6.7 1.4 1 2.4 1s1.8-.4 2.4-1c.6-.6.9-1.4.9-2.5v-.5c-.1-1-.4-1.7-1-2.3-.6-.6-1.4-.9-2.3-.9-.6 0-1.2.1-1.7.4s-.8.7-1.1 1.2-.4 1.1-.4 1.8zm-6.8.1c0 1.1.3 2 .9 2.6.5.6 1.3.9 2.3.9.5 0 1-.1 1.4-.3.4-.2.8-.5 1-.9.3-.4.4-.8.4-1.3h-1.7c0 .3-.1.5-.3.7-.2.2-.5.3-.8.3-.4 0-.8-.2-.9-.3-.2-.3-.3-.8-.3-1.5v-.2c0-.7.1-1.2.3-1.5.2-.3.6-.5 1-.5.3 0 .6.1.8.3.2.3.3.5.3.9h1.6c0-.9-.3-1.5-.8-2-.6-.5-1.2-.7-2.1-.7-1 0-1.8.3-2.3.9-.5.6-.8 1.4-.8 2.5v.1zm-6.8 0c0 1.1.3 2 .9 2.6.5.6 1.3.9 2.3.9.5 0 1-.1 1.4-.3.4-.2.8-.5 1-.9.3-.4.4-.8.4-1.3h-1.7c0 .3-.1.5-.3.7-.2.2-.5.3-.8.3-.4 0-.7-.2-1-.3-.2-.3-.3-.8-.3-1.5v-.2c0-.7.1-1.2.3-1.5.2-.3.6-.5 1-.5.3 0 .6.1.8.3.2.3.3.5.3.9h1.7c0-.9-.3-1.5-.8-2-.6-.5-1.2-.7-2.1-.7-1 0-1.8.3-2.3.9-.5.6-.8 1.4-.8 2.5v.1zm-3-1.3v.4h-.8c-1 0-1.8.2-2.3.6-.5.4-.8 1-.8 1.7 0 .6.3 1.1.7 1.5.5.4 1 .6 1.7.6s1.3-.2 1.7-.7c.1.2.1.4.2.6v-.2h1.7v-.1c-.2-.4-.3-.8-.3-1.5v-3c0-.8-.2-1.4-.7-1.8-.5-.4-1.2-.6-2-.6-.5 0-1.1.1-1.5.3-.4.2-.7.5-1 .8s-.4.7-.4 1.1h1.8c0-.2.1-.5.3-.6.1-.1.4-.2.7-.2.4 0 .6.1.8.3.1.2.2.5.2.8zm-44.8.4c0 8 6.5 14.5 14.5 14.5S100 32.5 100 24.5 93.5 10 85.5 10 71 16.5 71 24.5zm7.2 476.7c0-.5-.1-.9-.4-1.3-.3-.3-.7-.6-1.2-.8.4-.2.7-.4 1-.8.3-.4.4-.8.4-1.2 0-.8-.2-1.4-.8-1.9-.6-.5-1.3-.7-2.3-.7-.5 0-1 .1-1.5.3s-.8.5-1.1.9c-.3.4-.4.8-.4 1.3h1.8c0-.4.2-.6.4-.8.3-.2.5-.3.9-.3s.7.1.9.3c.2.2.3.5.3.9s-.1.7-.3.9c-.2.2-.5.3-1 .3h-1.1v1.6h1c1 0 1.5.5 1.5 1.4 0 .4-.2.7-.4.9-.2.2-.6.3-1 .3s-.7-.1-1-.3c-.3-.3-.4-.6-.4-.9h-1.8c0 .8.3 1.4.9 1.9.6.5 1.4.7 2.3.7 1 0 1.8-.2 2.4-.7.6-.5.9-1.2.9-2zm2.9 1.1h-1.5v1.4c0 .5-.1 1-.4 1.5l-.2.4 1 .5c.4-.3.4-.6.7-1.1s.4-.9.4-1.4v-1.3zm1.4-22.3c.3 0 .5-.1.7-.3l8.7-8.7c2.6-2.4 3.5-5.3 2.8-8-.6-2.3-2.5-4.2-4.8-4.8-2.4-.6-5 .1-7.3 2-2.2-1.9-4.8-2.6-7.3-2-2.3.6-4.2 2.5-4.8 4.8-.7 2.7.2 5.6 2.6 8l8.7 8.7c.2.2.4.3.7.3zm4.6 14.5h-.2l-3.8 1.4v1.5l2.2-.7v7.1h1.8v-9.3zm9.4 5.8h-.9v-5.8h-1.9l-3.9 6.1.1 1.2h3.8v2h1.8v-2h1v-1.5zm5.5-5.8h-.2l-3.8 1.4v1.5l2.2-.7v7.1h1.8v-9.3zm8.3-.5h-1.8v9.8h1.8V494zm19.8-19c1.2-1.8 1.8-3.9 1.8-6 0-6.1-4.9-11-11-11s-11 4.9-11 11 4.9 11 11 11c1.9 0 3.7-.5 5.3-1.4l3.9 1.3c.1.1.2.1.3.1.3 0 .6-.1.7-.3.2-.2.3-.6.2-1l-1.2-3.7zm-16.4 21.9h-1.8v6.9h1.8v-6.9zm.2-1.8c0-.3-.2-.5-.3-.7-.1-.2-.4-.3-.7-.3-.4 0-.6.1-.8.3-.2.2-.3.4-.3.7s.1.5.4.7c.1.2.4.3.7.3s.5-.1.7-.3c.2-.2.3-.4.3-.7zm7.7 8.6l-2.7-4 2.5-2.9h-2.2l-1.8 2.1-.4.5V494h-1.8v9.8h1.8v-2.1l.7-.7 1.8 2.7h2.1zm6.4-3.5c0-1.1-.3-1.9-.8-2.5-.5-.6-1.3-.9-2.2-.9-.7 0-1.2.1-1.7.4s-.8.8-1.1 1.3-.4 1.1-.4 1.8v.2c0 1.1.3 1.9.9 2.5.7.6 1.5.9 2.5.9.6 0 1-.2 1.5-.4s.8-.5 1.1-.9l-.9-1c-.4.5-1 .8-1.7.8-.4 0-.8-.1-1.1-.4-.3-.3-.4-.7-.5-1.1h4.4v-.7zm6.7 1.5c0-.8-.5-1.4-1.5-1.8-.4-.1-.7-.2-1.2-.3-.5-.1-.8-.2-1-.3-.2-.1-.3-.3-.3-.5s.1-.4.3-.5c.2-.1.4-.2.7-.2.4 0 .6.1.8.3s.3.4.3.7h1.8c0-.7-.3-1.2-.8-1.6-.5-.4-1.2-.6-2.1-.6-.8 0-1.5.2-2 .6-.5.4-.8.9-.8 1.5 0 1.1.9 1.8 2.5 2.1.5.1.9.2 1.1.3.2.1.3.3.3.5s-.1.3-.2.4c-.2.1-.4.2-.8.2s-.6-.2-.9-.3c-.3-.1-.4-.4-.4-.7h-1.7c0 .5.1.9.4 1.2.3.3.7.6 1.1.8.4.2.9.3 1.5.3.9 0 1.6-.2 2.1-.6.5-.4.8-.9.8-1.5zm36.2-42.8c0-.1-.1-.2-.1-.3-.1-.1-.1-.2-.2-.3l-.1-.1c-.2-.1-.4-.2-.6-.2h-22c-.4 0-.8.2-.9.6-.1.4-.1.8.2 1.1l7.8 7.8 1.9 11.7c.1.4.4.7.8.8h.2c.3 0 .7-.2.9-.5l12-20c0-.1.1-.1.1-.2v-.4zm268.1.1c0-.6-.4-1-1-1h-18c-.6 0-1 .4-1 1v20c0 .4.2.7.6.9.4.2.8.1 1.1-.2l8.3-8.3 8.3 8.3c.2.2.4.3.7.3.1 0 .3 0 .4-.1.4-.1.6-.5.6-.9v-20zm5-408.5H68v396h376v-396zM125 498.2c-.4 0-.7.1-.9.4-.2.2-.4.6-.4 1.1h2.6v-.1c0-.4-.1-.7-.3-.9-.3-.4-.6-.5-1-.5z" fill="#36434f"/></svg>