<svg version="1.1" xmlns="http://www.w3.org/2000/svg" x="0" y="0" viewBox="0 0 512 512" xml:space="preserve"><path d="M322.3 16c5.1 0 9.3 4.2 9.3 9.4v32.8h126.1c5.1 0 9.3 4.2 9.3 9.4v32.9c0 5.2-4.2 9.4-9.3 9.4h-31.6l-2.4 37.3-20.3 311.4c-1.3 20.5-19.1 37.4-39.6 37.4H148.2c-20.4 0-38.3-16.9-39.6-37.4L88.3 147.2l-2.4-37.3H54.3c-5.1 0-9.3-4.2-9.3-9.4V67.6c0-5.2 4.2-9.4 9.3-9.4h126.1V25.4c0-5.2 4.2-9.4 9.3-9.4h132.6m-110 42.2h87.4V46c0-5.2-4.2-9.4-9.3-9.4h-68.8c-5.1 0-9.3 4.2-9.3 9.4v12.2m15.9 399.3h.2c5.1-.1 9.1-4.5 8.9-9.7l-9.1-262.3c-.1-5-4.3-9-9.2-9h-.3c-5.1.1-9.1 4.5-8.9 9.7l9.1 262.3c0 5.1 4.3 9 9.3 9m55.8 0c5 0 9-4 9.2-9l9.1-262.3c.2-5.2-3.8-9.5-8.9-9.7h-.3c-5 0-9 4-9.2 9l-9.1 262.3c-.2 5.2 3.8 9.5 8.9 9.7h.3m-116.6-.2h.7c5.1-.4 9-4.9 8.6-10l-18-261.9c-.4-4.9-4.4-8.7-9.3-8.7h-.7c-5.1.4-9 4.9-8.6 10l18 261.9c.4 4.9 4.5 8.7 9.3 8.7m177.1 0c4.8 0 8.9-3.8 9.3-8.7l18.1-261.8c.4-5.2-3.5-9.7-8.6-10h-.7c-4.8 0-8.9 3.8-9.3 8.7l-18.1 261.8c-.4 5.2 3.5 9.7 8.6 10h.7M322.3 0H189.7c-13.9 0-25.3 11.4-25.3 25.4v16.8H54.3c-14 0-25.3 11.4-25.3 25.4v32.9c0 14 11.3 25.4 25.3 25.4h16.6l1.4 22.3 20.3 311.4c1.8 28.9 26.8 52.4 55.6 52.4h215.6c28.8 0 53.7-23.5 55.6-52.4l20.3-311.4 1.4-22.4h16.6c13.9 0 25.3-11.4 25.3-25.4V67.6c0-14-11.3-25.4-25.3-25.4H347.6V25.4c0-14-11.4-25.4-25.3-25.4z" fill="#36434f"/></svg>