<svg xmlns="http://www.w3.org/2000/svg" viewBox="0 0 512 512" style="enable-background:new 0 0 512 512" xml:space="preserve"><path d="M500 8c2.2 0 4 1.8 4 4v56c0 2.2-1.8 4-4 4h-56c-2.2 0-4-1.8-4-4V12c0-2.2 1.8-4 4-4h56M392 8c2.2 0 4 1.8 4 4v56c0 2.2-1.8 4-4 4h-56c-2.2 0-4-1.8-4-4V12c0-2.2 1.8-4 4-4h56M284 8c2.2 0 4 1.8 4 4v56c0 2.2-1.8 4-4 4h-56c-2.2 0-4-1.8-4-4V12c0-2.2 1.8-4 4-4h56M176 8c2.2 0 4 1.8 4 4v56c0 2.2-1.8 4-4 4h-56c-2.2 0-4-1.8-4-4V12c0-2.2 1.8-4 4-4h56M68 8c2.2 0 4 1.8 4 4v56c0 2.2-1.8 4-4 4H12c-2.2 0-4-1.8-4-4V12c0-2.2 1.8-4 4-4h56m432 108c2.2 0 4 1.8 4 4v56c0 2.2-1.8 4-4 4h-56c-2.2 0-4-1.8-4-4v-56c0-2.2 1.8-4 4-4h56m-108 0c2.2 0 4 1.8 4 4v56c0 2.2-1.8 4-4 4h-56c-2.2 0-4-1.8-4-4v-56c0-2.2 1.8-4 4-4h56m-108 0c2.2 0 4 1.8 4 4v56c0 2.2-1.8 4-4 4h-56c-2.2 0-4-1.8-4-4v-56c0-2.2 1.8-4 4-4h56m-108 0c2.2 0 4 1.8 4 4v56c0 2.2-1.8 4-4 4h-56c-2.2 0-4-1.8-4-4v-56c0-2.2 1.8-4 4-4h56m-108 0c2.2 0 4 1.8 4 4v56c0 2.2-1.8 4-4 4H12c-2.2 0-4-1.8-4-4v-56c0-2.2 1.8-4 4-4h56m432 108c2.2 0 4 1.8 4 4v56c0 2.2-1.8 4-4 4h-56c-2.2 0-4-1.8-4-4v-56c0-2.2 1.8-4 4-4h56m-108 0c2.2 0 4 1.8 4 4v56c0 2.2-1.8 4-4 4h-56c-2.2 0-4-1.8-4-4v-56c0-2.2 1.8-4 4-4h56m-108 0c2.2 0 4 1.8 4 4v56c0 2.2-1.8 4-4 4h-56c-2.2 0-4-1.8-4-4v-56c0-2.2 1.8-4 4-4h56m-108 0c2.2 0 4 1.8 4 4v56c0 2.2-1.8 4-4 4h-56c-2.2 0-4-1.8-4-4v-56c0-2.2 1.8-4 4-4h56m-108 0c2.2 0 4 1.8 4 4v56c0 2.2-1.8 4-4 4H12c-2.2 0-4-1.8-4-4v-56c0-2.2 1.8-4 4-4h56m432 108c2.2 0 4 1.8 4 4v56c0 2.2-1.8 4-4 4h-56c-2.2 0-4-1.8-4-4v-56c0-2.2 1.8-4 4-4h56m-108 0c2.2 0 4 1.8 4 4v56c0 2.2-1.8 4-4 4h-56c-2.2 0-4-1.8-4-4v-56c0-2.2 1.8-4 4-4h56m-108 0c2.2 0 4 1.8 4 4v56c0 2.2-1.8 4-4 4h-56c-2.2 0-4-1.8-4-4v-56c0-2.2 1.8-4 4-4h56m-108 0c2.2 0 4 1.8 4 4v56c0 2.2-1.8 4-4 4h-56c-2.2 0-4-1.8-4-4v-56c0-2.2 1.8-4 4-4h56m-108 0c2.2 0 4 1.8 4 4v56c0 2.2-1.8 4-4 4H12c-2.2 0-4-1.8-4-4v-56c0-2.2 1.8-4 4-4h56m432 108c2.2 0 4 1.8 4 4v56c0 2.2-1.8 4-4 4h-56c-2.2 0-4-1.8-4-4v-56c0-2.2 1.8-4 4-4h56m-108 0c2.2 0 4 1.8 4 4v56c0 2.2-1.8 4-4 4h-56c-2.2 0-4-1.8-4-4v-56c0-2.2 1.8-4 4-4h56m-108 0c2.2 0 4 1.8 4 4v56c0 2.2-1.8 4-4 4h-56c-2.2 0-4-1.8-4-4v-56c0-2.2 1.8-4 4-4h56m-108 0c2.2 0 4 1.8 4 4v56c0 2.2-1.8 4-4 4h-56c-2.2 0-4-1.8-4-4v-56c0-2.2 1.8-4 4-4h56m-108 0c2.2 0 4 1.8 4 4v56c0 2.2-1.8 4-4 4H12c-2.2 0-4-1.8-4-4v-56c0-2.2 1.8-4 4-4h56M500 0h-56c-6.6 0-12 5.4-12 12v56c0 6.6 5.4 12 12 12h56c6.6 0 12-5.4 12-12V12c0-6.6-5.4-12-12-12zM392 0h-56c-6.6 0-12 5.4-12 12v56c0 6.6 5.4 12 12 12h56c6.6 0 12-5.4 12-12V12c0-6.6-5.4-12-12-12zM284 0h-56c-6.6 0-12 5.4-12 12v56c0 6.6 5.4 12 12 12h56c6.6 0 12-5.4 12-12V12c0-6.6-5.4-12-12-12zM176 0h-56c-6.6 0-12 5.4-12 12v56c0 6.6 5.4 12 12 12h56c6.6 0 12-5.4 12-12V12c0-6.6-5.4-12-12-12zM68 0H12C5.4 0 0 5.4 0 12v56c0 6.6 5.4 12 12 12h56c6.6 0 12-5.4 12-12V12c0-6.6-5.4-12-12-12zm432 108h-56c-6.6 0-12 5.4-12 12v56c0 6.6 5.4 12 12 12h56c6.6 0 12-5.4 12-12v-56c0-6.6-5.4-12-12-12zm-108 0h-56c-6.6 0-12 5.4-12 12v56c0 6.6 5.4 12 12 12h56c6.6 0 12-5.4 12-12v-56c0-6.6-5.4-12-12-12zm-108 0h-56c-6.6 0-12 5.4-12 12v56c0 6.6 5.4 12 12 12h56c6.6 0 12-5.4 12-12v-56c0-6.6-5.4-12-12-12zm-108 0h-56c-6.6 0-12 5.4-12 12v56c0 6.6 5.4 12 12 12h56c6.6 0 12-5.4 12-12v-56c0-6.6-5.4-12-12-12zm-108 0H12c-6.6 0-12 5.4-12 12v56c0 6.6 5.4 12 12 12h56c6.6 0 12-5.4 12-12v-56c0-6.6-5.4-12-12-12zm432 108h-56c-6.6 0-12 5.4-12 12v56c0 6.6 5.4 12 12 12h56c6.6 0 12-5.4 12-12v-56c0-6.6-5.4-12-12-12zm-108 0h-56c-6.6 0-12 5.4-12 12v56c0 6.6 5.4 12 12 12h56c6.6 0 12-5.4 12-12v-56c0-6.6-5.4-12-12-12zm-108 0h-56c-6.6 0-12 5.4-12 12v56c0 6.6 5.4 12 12 12h56c6.6 0 12-5.4 12-12v-56c0-6.6-5.4-12-12-12zm-108 0h-56c-6.6 0-12 5.4-12 12v56c0 6.6 5.4 12 12 12h56c6.6 0 12-5.4 12-12v-56c0-6.6-5.4-12-12-12zm-108 0H12c-6.6 0-12 5.4-12 12v56c0 6.6 5.4 12 12 12h56c6.6 0 12-5.4 12-12v-56c0-6.6-5.4-12-12-12zm432 108h-56c-6.6 0-12 5.4-12 12v56c0 6.6 5.4 12 12 12h56c6.6 0 12-5.4 12-12v-56c0-6.6-5.4-12-12-12zm-108 0h-56c-6.6 0-12 5.4-12 12v56c0 6.6 5.4 12 12 12h56c6.6 0 12-5.4 12-12v-56c0-6.6-5.4-12-12-12zm-108 0h-56c-6.6 0-12 5.4-12 12v56c0 6.6 5.4 12 12 12h56c6.6 0 12-5.4 12-12v-56c0-6.6-5.4-12-12-12zm-108 0h-56c-6.6 0-12 5.4-12 12v56c0 6.6 5.4 12 12 12h56c6.6 0 12-5.4 12-12v-56c0-6.6-5.4-12-12-12zm-108 0H12c-6.6 0-12 5.4-12 12v56c0 6.6 5.4 12 12 12h56c6.6 0 12-5.4 12-12v-56c0-6.6-5.4-12-12-12zm432 108h-56c-6.6 0-12 5.4-12 12v56c0 6.6 5.4 12 12 12h56c6.6 0 12-5.4 12-12v-56c0-6.6-5.4-12-12-12zm-108 0h-56c-6.6 0-12 5.4-12 12v56c0 6.6 5.4 12 12 12h56c6.6 0 12-5.4 12-12v-56c0-6.6-5.4-12-12-12zm-108 0h-56c-6.6 0-12 5.4-12 12v56c0 6.6 5.4 12 12 12h56c6.6 0 12-5.4 12-12v-56c0-6.6-5.4-12-12-12zm-108 0h-56c-6.6 0-12 5.4-12 12v56c0 6.6 5.4 12 12 12h56c6.6 0 12-5.4 12-12v-56c0-6.6-5.4-12-12-12zm-108 0H12c-6.6 0-12 5.4-12 12v56c0 6.6 5.4 12 12 12h56c6.6 0 12-5.4 12-12v-56c0-6.6-5.4-12-12-12z" style="fill:#36434f"/></svg>