<svg version="1.1" xmlns="http://www.w3.org/2000/svg" x="0" y="0" viewBox="0 0 512 512" xml:space="preserve"><path d="M311.5 0h-30.8c-4.4 0-8.7 1-12.7 2.6-3.7 1.5-7.7 2.4-12 2.4s-8.3-.8-12-2.4C240 1 235.7 0 231.3 0h-30.8c-8.8 0-16 7.2-16 16v480c0 8.8 7.2 16 16 16h111c8.8 0 16-7.2 16-16V16c0-8.8-7.2-16-16-16zm-33 27c0-2.8 2.3-5 5-5h21c2.8 0 5 2.3 5 5v16c0 2.8-2.3 5-5 5h-21c-2.8 0-5-2.3-5-5V27zm0 35c0-2.8 2.3-5 5-5h21c2.8 0 5 2.3 5 5v12c0 2.8-2.3 5-5 5h-21c-2.8 0-5-2.3-5-5V62zm0 28.3c0-2.8 2.3-5 5-5h21c2.8 0 5 2.3 5 5v12c0 2.8-2.3 5-5 5h-21c-2.8 0-5-2.3-5-5v-12zm0 28.4c0-2.8 2.3-5 5-5h21c2.8 0 5 2.3 5 5v12c0 2.8-2.3 5-5 5h-21c-2.8 0-5-2.3-5-5v-12zm0 28.3c0-2.8 2.3-5 5-5h21c2.8 0 5 2.3 5 5v12c0 2.8-2.3 5-5 5h-21c-2.8 0-5-2.3-5-5v-12zm-4 32c0-2.8 2.3-5 5-5h25c2.8 0 5 2.3 5 5v66c0 2.8-2.3 5-5 5h-25c-2.8 0-5-2.3-5-5v-66zm35 83v12c0 2.8-2.3 5-5 5h-21c-2.8 0-5-2.3-5-5v-12c0-2.8 2.3-5 5-5h21c2.8 0 5 2.3 5 5zm-69-200c0-2.8 2.3-5 5-5h21c2.8 0 5 2.3 5 5v12c0 2.8-2.3 5-5 5h-21c-2.8 0-5-2.3-5-5V62zm0 28.3c0-2.8 2.3-5 5-5h21c2.8 0 5 2.3 5 5v12c0 2.8-2.3 5-5 5h-21c-2.8 0-5-2.3-5-5v-12zm0 28.4c0-2.8 2.3-5 5-5h21c2.8 0 5 2.3 5 5v12c0 2.8-2.3 5-5 5h-21c-2.8 0-5-2.3-5-5v-12zm0 28.3c0-2.8 2.3-5 5-5h21c2.8 0 5 2.3 5 5v12c0 2.8-2.3 5-5 5h-21c-2.8 0-5-2.3-5-5v-12zm9 175h13c2.8 0 5 2.3 5 5v10c0 2.8-2.3 5-5 5h-13c-2.8 0-5-2.3-5-5v-10c0-2.7 2.3-5 5-5zm-3.5-12l2-18c0-2.8 2.3-5 5-5h6c2.8 0 5 2.3 5 5l2 18c0 2.8-2.3 5-5 5h-10c-2.7 0-5-2.2-5-5zm18.5-31h-17c-2.8 0-5-2.3-5-5v-18c0-2.8 2.3-5 5-5h17c2.8 0 5 2.3 5 5v18c0 2.8-2.2 5-5 5zm-14-67h11c2.8 0 5 2.3 5 5v18c0 2.8-2.3 5-5 5h-11c-2.8 0-5-2.3-5-5v-18c0-2.7 2.3-5 5-5zm-5-12v-18c0-2.8 2.3-5 5-5h11c2.8 0 5 2.3 5 5v18c0 2.8-2.3 5-5 5h-11c-2.7 0-5-2.2-5-5zm-28-180c8.3 0 15 6.7 15 15s-6.7 15-15 15-15-6.7-15-15 6.7-15 15-15zm-15 42c0-2.8 2.3-5 5-5h21c2.8 0 5 2.3 5 5v12c0 2.8-2.3 5-5 5h-21c-2.8 0-5-2.3-5-5V62zm0 28.3c0-2.8 2.3-5 5-5h21c2.8 0 5 2.3 5 5v12c0 2.8-2.3 5-5 5h-21c-2.8 0-5-2.3-5-5v-12zm0 28.4c0-2.8 2.3-5 5-5h21c2.8 0 5 2.3 5 5v12c0 2.8-2.3 5-5 5h-21c-2.8 0-5-2.3-5-5v-12zm0 28.3c0-2.8 2.3-5 5-5h21c2.8 0 5 2.3 5 5v12c0 2.8-2.3 5-5 5h-21c-2.8 0-5-2.3-5-5v-12zm0 32c0-2.8 2.3-5 5-5h25c2.8 0 5 2.3 5 5v66c0 2.8-2.3 5-5 5h-25c-2.8 0-5-2.3-5-5v-66zm21.1 130h-16c-2.8 0-5-2.3-5-5v-12c0-2.8 2.3-5 5-5h21c2.8 0 5 2.3 5 5v7c0 5.5-4.5 10-10 10zm9.4 18v10c0 2.8-2.3 5-5 5l-18-2c-2.8 0-5-2.3-5-5v-6c0-2.8 2.3-5 5-5l18-2c2.8 0 5 2.3 5 5zm-30.5-65c0-2.8 2.3-5 5-5h21c2.8 0 5 2.3 5 5v12c0 2.8-2.3 5-5 5h-21c-2.8 0-5-2.3-5-5v-12zM225 458c0 2.8-2.3 5-5 5h-10c-2.8 0-5-2.3-5-5v-5c0-2.8 2.3-5 5-5h10c2.8 0 5 2.3 5 5v5zm0-21c0 2.8-2.3 5-5 5h-10c-2.8 0-5-2.3-5-5v-5c0-2.8 2.3-5 5-5h10c2.8 0 5 2.3 5 5v5zm0-21c0 2.8-2.3 5-5 5h-10c-2.8 0-5-2.3-5-5v-5c0-2.8 2.3-5 5-5h10c2.8 0 5 2.3 5 5v5zm0-21c0 2.8-2.3 5-5 5h-10c-2.8 0-5-2.3-5-5v-5c0-2.8 2.3-5 5-5h10c2.8 0 5 2.3 5 5v5zm3.4-18h-21c-2.8 0-5-2.3-5-5v-12c0-2.8 2.3-5 5-5h16c5.5 0 10 4.5 10 10v7c0 2.8-2.3 5-5 5zm23.9 81c0 2.8-2.3 5-5 5h-10c-2.8 0-5-2.3-5-5v-5c0-2.8 2.3-5 5-5h10c2.8 0 5 2.3 5 5v5zm0-21c0 2.8-2.3 5-5 5h-10c-2.8 0-5-2.3-5-5v-5c0-2.8 2.3-5 5-5h10c2.8 0 5 2.3 5 5v5zm0-21c0 2.8-2.3 5-5 5h-10c-2.8 0-5-2.3-5-5v-5c0-2.8 2.3-5 5-5h10c2.8 0 5 2.3 5 5v5zm0-21c0 2.8-2.3 5-5 5h-10c-2.8 0-5-2.3-5-5v-5c0-2.8 2.3-5 5-5h10c2.8 0 5 2.3 5 5v5zm.7-18c-2.8 0-5-2.3-5-5l-2-18c0-2.8 2.3-5 5-5h10c2.8 0 5 2.3 5 5l-2 18c0 2.8-2.3 5-5 5h-6zm26.7 81c0 2.8-2.3 5-5 5h-10c-2.8 0-5-2.3-5-5v-5c0-2.8 2.3-5 5-5h10c2.8 0 5 2.3 5 5v5zm0-21c0 2.8-2.3 5-5 5h-10c-2.8 0-5-2.3-5-5v-5c0-2.8 2.3-5 5-5h10c2.8 0 5 2.3 5 5v5zm0-21c0 2.8-2.3 5-5 5h-10c-2.8 0-5-2.3-5-5v-5c0-2.8 2.3-5 5-5h10c2.8 0 5 2.3 5 5v5zm0-21c0 2.8-2.3 5-5 5h-10c-2.8 0-5-2.3-5-5v-5c0-2.8 2.3-5 5-5h10c2.8 0 5 2.3 5 5v5zm27.3 63c0 2.8-2.3 5-5 5h-10c-2.8 0-5-2.3-5-5v-5c0-2.8 2.3-5 5-5h10c2.8 0 5 2.3 5 5v5zm0-21c0 2.8-2.3 5-5 5h-10c-2.8 0-5-2.3-5-5v-5c0-2.8 2.3-5 5-5h10c2.8 0 5 2.3 5 5v5zm0-21c0 2.8-2.3 5-5 5h-10c-2.8 0-5-2.3-5-5v-5c0-2.8 2.3-5 5-5h10c2.8 0 5 2.3 5 5v5zm0-21c0 2.8-2.3 5-5 5h-10c-2.8 0-5-2.3-5-5v-5c0-2.8 2.3-5 5-5h10c2.8 0 5 2.3 5 5v5zm2.4-23c0 2.8-2.3 5-5 5h-21c-2.8 0-5-2.3-5-5v-7c0-5.5 4.5-10 10-10h16c2.8 0 5 2.3 5 5v12zM279 337v-10c0-2.8 2.3-5 5-5l18 2c2.8 0 5 2.3 5 5v6c0 2.8-2.3 5-5 5l-18 2c-2.7 0-5-2.2-5-5zm30.6-33c0 2.8-2.3 5-5 5h-16c-5.5 0-10-4.5-10-10v-7c0-2.8 2.3-5 5-5h21c2.8 0 5 2.3 5 5v12zm-9.6 28l-12 5v-10l12 5zM286.1 38.6c.5.3 1.1.5 1.7.5.6 0 1.2-.2 1.7-.5s.9-.8 1.1-1.3c.3-.6.4-1.3.4-2v-.4c0-.8-.1-1.4-.4-2-.3-.6-.6-1-1.1-1.3-.5-.3-1.1-.5-1.7-.5s-1.2.2-1.7.5-.9.8-1.1 1.3-.4 1.3-.4 2v.4c0 .7.1 1.4.4 2s.6.9 1.1 1.3zm-.2-3.8c0-.8.2-1.5.5-2s.8-.7 1.4-.7c.6 0 1.1.2 1.4.7.3.5.5 1.1.5 2v.4c0 .9-.2 1.6-.5 2s-.8.7-1.4.7c-.6 0-1.1-.2-1.4-.7s-.5-1.1-.5-2v-.4zM212 332l12-5v10l-12-5zm87.8-293.1h-1.4v-7.8h5v1.1h-3.6v2.3h3.1v1.1h-3.1v3.3zm-6 0h-1.4v-7.8h5v1.1h-3.6v2.3h3.1v1.1h-3.1v3.3zM292 239l-10.9-7.6 1.7-2.5 9.1 6.4 9.1-6.4 1.7 2.5L292 239zM208.2 35c0-3.6 2.1-6.8 5.1-8.3.3-.2.7.1.7.4v1.5c0 .6-.2 1.1-.7 1.4-.1.1-.3.2-.4.4-1.2 1.2-1.9 2.9-1.9 4.6 0 1.7.7 3.3 1.8 4.5 1.3 1.3 2.9 2 4.7 2 1.6 0 3.2-.7 4.4-1.8 1.3-1.3 2-3 2-4.8 0-1.5-.6-3-1.6-4.1-.2-.3-.5-.5-.7-.7-.4-.4-.7-.9-.7-1.4v-1.5c0-.3.4-.6.7-.4 3 1.5 5.1 4.7 5.1 8.3 0 5.1-4.2 9.3-9.3 9.3s-9.2-4.3-9.2-9.4zM256 306h-5l5-12 5 12h-5zM216.1 34.8v-10c0-.5.4-.9.9-.9h.9c.5 0 .9.4.9.9v10c0 .5-.4.9-.9.9h-.9c-.5.1-.9-.4-.9-.9zM256 358h5l-5 12-5-12h5zm-37.5-162h-7v-3h7v-7h3v7h7v3h-7v7h-3v-7zm64.4-1l-1.7-2.5L292 185l10.9 7.6-1.7 2.5-9.1-6.4-9.2 6.3zm-54.4 42h-17v-3h17v3z" fill="#36434f"/></svg>