<svg xmlns="http://www.w3.org/2000/svg" viewBox="0 0 512 512" xml:space="preserve"><path d="M0 211v-10c0-1.1.9-2 2-2h49.5v14H2c-1.1 0-2-.9-2-2zm2-18h49.5v-14H2c-1.1 0-2 .9-2 2v10c0 1.1.9 2 2 2zm0 60h49.5v-14H2c-1.1 0-2 .9-2 2v10c0 1.1.9 2 2 2zm0-20h49.5v-14H2c-1.1 0-2 .9-2 2v10c0 1.1.9 2 2 2zm49.5 179.5V399H2c-1.1 0-2 .9-2 2v10c0 1.1.9 2 2 2h49.5v-.5zM2 113h49.5V99H2c-1.1 0-2 .9-2 2v10c0 1.1.9 2 2 2zm0 40h49.5v-14H2c-1.1 0-2 .9-2 2v10c0 1.1.9 2 2 2zm0-20h49.5v-14H2c-1.1 0-2 .9-2 2v10c0 1.1.9 2 2 2zm0 240h49.5v-14H2c-1.1 0-2 .9-2 2v10c0 1.1.9 2 2 2zm0-20h49.5v-14H2c-1.1 0-2 .9-2 2v10c0 1.1.9 2 2 2zM99.5 51.5H113V2c0-1.1-.9-2-2-2h-10c-1.1 0-2 .9-2 2v49.5h.5zM2 393h49.5v-14H2c-1.1 0-2 .9-2 2v10c0 1.1.9 2 2 2zm0-80h49.5v-14H2c-1.1 0-2 .9-2 2v10c0 1.1.9 2 2 2zm0-20h49.5v-14H2c-1.1 0-2 .9-2 2v10c0 1.1.9 2 2 2zm0-20h49.5v-14H2c-1.1 0-2 .9-2 2v10c0 1.1.9 2 2 2zm0 60h49.5v-14H2c-1.1 0-2 .9-2 2v10c0 1.1.9 2 2 2zm0-160h49.5v-14H2c-1.1 0-2 .9-2 2v10c0 1.1.9 2 2 2zM333 51.5V2c0-1.1-.9-2-2-2h-10c-1.1 0-2 .9-2 2v49.5h14zm-200 0V2c0-1.1-.9-2-2-2h-10c-1.1 0-2 .9-2 2v49.5h14zm220 0V2c0-1.1-.9-2-2-2h-10c-1.1 0-2 .9-2 2v49.5h14zm-40 0V2c0-1.1-.9-2-2-2h-10c-1.1 0-2 .9-2 2v49.5h14zm99.5 0h.5V2c0-1.1-.9-2-2-2h-10c-1.1 0-2 .9-2 2v49.5h13.5zm-39.5 0V2c0-1.1-.9-2-2-2h-10c-1.1 0-2 .9-2 2v49.5h14zm20 0V2c0-1.1-.9-2-2-2h-10c-1.1 0-2 .9-2 2v49.5h14zm-100 0V2c0-1.1-.9-2-2-2h-10c-1.1 0-2 .9-2 2v49.5h14zm-120 0V2c0-1.1-.9-2-2-2h-10c-1.1 0-2 .9-2 2v49.5h14zm-20 0V2c0-1.1-.9-2-2-2h-10c-1.1 0-2 .9-2 2v49.5h14zm120 0V2c0-1.1-.9-2-2-2h-10c-1.1 0-2 .9-2 2v49.5h14zm-80 0V2c0-1.1-.9-2-2-2h-10c-1.1 0-2 .9-2 2v49.5h14zm20 0V2c0-1.1-.9-2-2-2h-10c-1.1 0-2 .9-2 2v49.5h14zm40 0V2c0-1.1-.9-2-2-2h-10c-1.1 0-2 .9-2 2v49.5h14zm-20 0V2c0-1.1-.9-2-2-2h-10c-1.1 0-2 .9-2 2v49.5h14zm211.5 48V99c-.3-17.3-14.2-31.2-31.5-31.5H99c-17.3.3-31.2 14.2-31.5 31.5v314c.3 17.3 14.2 31.2 31.5 31.5h314c17.3-.3 31.2-14.2 31.5-31.5V99.5zM510 279h-49.5v14H510c1.1 0 2-.9 2-2v-10c0-1.1-.9-2-2-2zm0-40h-49.5v14H510c1.1 0 2-.9 2-2v-10c0-1.1-.9-2-2-2zm0 60h-49.5v14H510c1.1 0 2-.9 2-2v-10c0-1.1-.9-2-2-2zm0-40h-49.5v14H510c1.1 0 2-.9 2-2v-10c0-1.1-.9-2-2-2zm0 60h-49.5v14H510c1.1 0 2-.9 2-2v-10c0-1.1-.9-2-2-2zm0 20h-49.5v14H510c1.1 0 2-.9 2-2v-10c0-1.1-.9-2-2-2zm0 40h-49.5v14H510c1.1 0 2-.9 2-2v-10c0-1.1-.9-2-2-2zm0-20h-49.5v14H510c1.1 0 2-.9 2-2v-10c0-1.1-.9-2-2-2zm0-180h-49.5v14H510c1.1 0 2-.9 2-2v-10c0-1.1-.9-2-2-2zm0-60h-49.5v14H510c1.1 0 2-.9 2-2v-10c0-1.1-.9-2-2-2zm0 100h-49.5v14H510c1.1 0 2-.9 2-2v-10c0-1.1-.9-2-2-2zm0-120h-49.5v14H510c1.1 0 2-.9 2-2v-10c0-1.1-.9-2-2-2zm0 40h-49.5v14H510c1.1 0 2-.9 2-2v-10c0-1.1-.9-2-2-2zm0 20h-49.5v14H510c1.1 0 2-.9 2-2v-10c0-1.1-.9-2-2-2zm0 40h-49.5v14H510c1.1 0 2-.9 2-2v-10c0-1.1-.9-2-2-2zm0 200h-49.5v14H510c1.1 0 2-.9 2-2v-10c0-1.1-.9-2-2-2zm-271 61.5V510c0 1.1.9 2 2 2h10c1.1 0 2-.9 2-2v-49.5h-14zm-40 0V510c0 1.1.9 2 2 2h10c1.1 0 2-.9 2-2v-49.5h-14zm20 0V510c0 1.1.9 2 2 2h10c1.1 0 2-.9 2-2v-49.5h-14zm-119.5 0H99V510c0 1.1.9 2 2 2h10c1.1 0 2-.9 2-2v-49.5H99.5zm79.5 0V510c0 1.1.9 2 2 2h10c1.1 0 2-.9 2-2v-49.5h-14zm-60 0V510c0 1.1.9 2 2 2h10c1.1 0 2-.9 2-2v-49.5h-14zm20 0V510c0 1.1.9 2 2 2h10c1.1 0 2-.9 2-2v-49.5h-14zm20 0V510c0 1.1.9 2 2 2h10c1.1 0 2-.9 2-2v-49.5h-14zm180 0V510c0 1.1.9 2 2 2h10c1.1 0 2-.9 2-2v-49.5h-14zm73.5 0H399V510c0 1.1.9 2 2 2h10c1.1 0 2-.9 2-2v-49.5h-.5zm-53.5 0V510c0 1.1.9 2 2 2h10c1.1 0 2-.9 2-2v-49.5h-14zm20 0V510c0 1.1.9 2 2 2h10c1.1 0 2-.9 2-2v-49.5h-14zm-80 0V510c0 1.1.9 2 2 2h10c1.1 0 2-.9 2-2v-49.5h-14zm-20 0V510c0 1.1.9 2 2 2h10c1.1 0 2-.9 2-2v-49.5h-14zm40 0V510c0 1.1.9 2 2 2h10c1.1 0 2-.9 2-2v-49.5h-14zm-60 0V510c0 1.1.9 2 2 2h10c1.1 0 2-.9 2-2v-49.5h-14z" fill="#36434f"/></svg>