<svg version="1.1" xmlns="http://www.w3.org/2000/svg" x="0" y="0" viewBox="0 0 512 512" xml:space="preserve"><path d="M426.4 211.1h24v89.8H306c-1.6-1.9-3.1-4-4.5-6.1-7.4-11.1-11.7-24.5-11.7-38.8s4.3-27.7 11.7-38.8c1.4-2.1 2.9-4.1 4.5-6.1h120.4zM406 309.4h-96.9c-.4 2.4-.8 4.7-1.3 7.1-11 57.3-37.2 97.6-67.7 97.6h179.3c17 0 30.9-13.8 30.9-30.9v-73.8H406zm-233.5 7.1c-.4-2.3-.9-4.7-1.3-7.1H30v73.8c0 17 13.8 30.9 30.9 30.9h179.3c-30.5 0-56.7-40.3-67.7-97.6zM66 300.9h108.4c1.6-1.9 3.1-4 4.5-6.1 7.4-11.1 11.7-24.5 11.7-38.9s-4.3-27.7-11.7-38.9c-1.4-2.1-2.9-4.1-4.5-6.1H30v89.8h36zm120.4 0c-1.7 2.5-3.6 5-5.6 7.3.1.4.1.8.2 1.2 3.5 20.2 8.9 38.7 16.2 54.3 12 25.9 27.7 40.7 43.1 40.7 15.4 0 31.1-14.8 43.1-40.7 7.2-15.6 12.7-34.1 16.2-54.3.1-.4.2-.8.2-1.2-2-2.3-3.9-4.7-5.6-7.3a79.72 79.72 0 0 1-13.8-44.9c0-16.6 5.1-32.1 13.8-44.9 1.7-2.5 3.6-5 5.6-7.3-.1-.4-.1-.8-.2-1.2-3.5-20.2-8.9-38.7-16.2-54.3-12-25.9-27.7-40.7-43.1-40.7-15.4 0-31.1 14.8-43.1 40.7-7.2 15.6-12.7 34.1-16.2 54.3-.1.4-.2.8-.2 1.2 2 2.3 3.9 4.7 5.6 7.3a79.72 79.72 0 0 1 13.8 44.9c0 16.6-5.1 32.1-13.8 44.9zM30 128.7v73.8h141.3c.4-2.4.8-4.7 1.3-7.1 11-57.3 37.2-97.6 67.7-97.6H60.9c-17.1.1-30.9 13.9-30.9 30.9zm482-29.9V365l-79.1 79h-402C13.8 444 0 430.2 0 413.2V98.8C0 81.8 13.8 68 30.9 68h450.3c17 0 30.8 13.8 30.8 30.8zm-52 29.9c0-22.3-18.2-40.5-40.5-40.5H60.9c-22.3 0-40.5 18.2-40.5 40.5v254.6c0 22.3 18.2 40.5 40.5 40.5h358.7c22.3 0 40.5-18.2 40.5-40.5V128.7zm-40.5-30.8H240.2c30.5 0 56.7 40.3 67.7 97.6.4 2.3.9 4.7 1.3 7.1h141.1v-73.8c.1-17.1-13.7-30.9-30.8-30.9z" fill="#36434f"/></svg>