<svg version="1.1" xmlns="http://www.w3.org/2000/svg" x="0" y="0" viewBox="0 0 512 512" xml:space="preserve"><path d="M507.5 375.4l-52-23.8c-1.8-.8-4.5-1.5-6.9-1.9 1.4-.9 2.4-2.5 2.4-4.2v-224c0-2.8-2.3-5-5-5H66c-2.8 0-5 2.3-5 5v224c0 1.8.9 3.3 2.3 4.2-2.4.3-5 1-6.8 1.9l-52 23.8C2 376.6 0 379.8 0 382.5v7c0 2.8 2.3 5 5 5h502c2.8 0 5-2.3 5-5v-7c0-2.8-2-5.9-4.5-7.1zM256 119c2.8 0 5 2.2 5 5s-2.2 5-5 5-5-2.2-5-5 2.2-5 5-5zM78 137.5c0-2.8 2.3-5 5-5h345.9c2.8 0 5 2.3 5 5l.1 190c0 2.8-2.3 5-5 5H83c-2.8 0-5-2.3-5-5v-190zm360.2 236.1H73.9c-1.1 0-1.2-.4-.3-1l18.3-10.8c.9-.5 2.6-1 3.7-1h320.8c1.1 0 2.8.4 3.7 1l18.4 10.8c.9.5.8 1-.3 1z" fill="#36434f"/></svg>