<svg version="1.1" xmlns="http://www.w3.org/2000/svg" x="0" y="0" viewBox="0 0 512 512" xml:space="preserve"><path d="M313 97V0l129 129h-97c-17.7 0-32-14.3-32-32zm32 46h97v337c0 17.7-14.3 32-32 32H102c-17.7 0-32-14.3-32-32V32c0-17.7 14.3-32 32-32h197v97c0 25.4 20.6 46 46 46zm-168 60c0 4.4 3.6 8 8 8h142c4.4 0 8-3.6 8-8v-44c0-4.4-3.6-8-8-8H185c-4.4 0-8 3.6-8 8v44zm229 222H106v14h300v-14zm0-32H106v14h300v-14zm0-32H106v14h300v-14zm0-32H106v14h300v-14zm0-32H106v14h300v-14zm0-32H106v14h300v-14zm0-32H106v14h300v-14z" fill="#36434f"/></svg>