<svg version="1.1" xmlns="http://www.w3.org/2000/svg" x="0" y="0" viewBox="0 0 500 500" xml:space="preserve"><path d="M493.6 201.6c-2.6-8.2-8.5-18.8-14.2-24.5-5.8-5.6-8.2-11.1-20.2-15.4-9.8-3.5-29.4-6.1-49.6-9.4v-23.2h-20.2l-3.6 5.8v-14.6s-21.3-5.8-43.1-5.8-47.9 5.8-47.8 5.8v11.4c-3.6-1-6.1-2-7.4-3-9-6.7-27.6-54.3-37.2-60.1-9.6-5.8-45.2-7.4-63.3-7.4s-49.8 3.5-61.7 9-27.9 53.6-40.9 68c-13.1 14.4-37.8 18.9-51.6 30.3C19 180 .4 207.6.4 216.9v187.6c0 6.2 4.5 16.8 11.7 22.9 7.2 6.2 20.2 11.2 31.9 11.2s425.5 0 432.1-.5 14.8-2.2 17.5-4.8c2.7-2.6 2.9-5.7 3.2-7.4.3-1.6 3.2-125.9 3.2-157.3 0-31.4-3.7-58.8-6.4-67zm-186-43c6.5 0 11.7 5.2 11.7 11.7s-5.2 11.7-11.7 11.7-11.7-5.2-11.7-11.7 5.2-11.7 11.7-11.7zm-13-5.1c2.4 0 4.3 1.9 4.3 4.3s-1.9 4.3-4.3 4.3-4.3-1.9-4.3-4.3 1.9-4.3 4.3-4.3zm-38-33.4c8.6 0 15.6 7 15.6 15.6 0 5.4-2.8 10.2-6.9 13-1.2-5.5-2.2-9.2-2.2-9.2s-4.3-10.8-8.7-14.4c-1.6-1.3-3.3-2.4-4.9-3.3 2.2-1.1 4.6-1.7 7.1-1.7zm-87.2 31h42.5v30.3h-42.5v-30.3zm-96.8 12.8c6.5 0 11.7 5.2 11.7 11.7s-5.2 11.7-11.7 11.7-11.7-5.2-11.7-11.7 5.2-11.7 11.7-11.7zm-29.5 36.2c-4 0-7.2-3.2-7.2-7.2s3.2-7.2 7.2-7.2 7.2 3.2 7.2 7.2-3.2 7.2-7.2 7.2zM54 175.6c-2.4 0-4.3-1.9-4.3-4.3s1.9-4.3 4.3-4.3 4.3 1.9 4.3 4.3-1.9 4.3-4.3 4.3zm278 249c0 1-.8 1.9-1.8 1.9h-269c-1 0-1.9-.8-1.9-1.9V226.4c0-1 .8-1.9 1.9-1.9h268.9c1 0 1.9.8 1.9 1.9v198.2zM378.2 147zm-32.4 30.2c0-6.5 5.2-11.7 11.7-11.7s11.7 5.2 11.7 11.7-5.2 11.7-11.7 11.7-11.7-5.2-11.7-11.7zM373 422.8c-6.5 0-11.7-5.2-11.7-11.7s5.2-11.7 11.7-11.7 11.7 5.2 11.7 11.7-5.2 11.7-11.7 11.7zm0-40.4c-6.5 0-11.7-5.2-11.7-11.7S366.5 359 373 359s11.7 5.2 11.7 11.7-5.2 11.7-11.7 11.7zm-3.6-69.1l6.6-5v9.9l-6.6-4.9zm4.1-48.9c-6.5 0-11.7-5.2-11.7-11.7S367 241 373.5 241s11.7 5.2 11.7 11.7c0 6.5-5.2 11.7-11.7 11.7zm16.1 49.2c0-6.5 5.2-11.7 11.7-11.7s11.7 5.2 11.7 11.7-5.2 11.7-11.7 11.7-11.7-5.2-11.7-11.7zm6.9-25.9l5-6.5 4.9 6.5h-9.9zm5 57.6l-5-6.5h9.9l-4.9 6.5zm18.8 60.4c-6.5 0-11.7-5.2-11.7-11.7s5.2-11.7 11.7-11.7S432 387.5 432 394s-5.2 11.7-11.7 11.7zm-.5-44.9c0-2.8 2.2-5 5-5s5 2.2 5 5-2.2 5-5 5-5-2.2-5-5zm7.2-42.6v-9.9l6.6 5-6.6 4.9zm33.3-128.3H393v-12.4h67.3v12.4zm-332.8 58.7c0 5.6 3.2 9.2 8.8 9.2 1.8 0 3.6-.4 4.8-1l.6 2.4c-1.1.5-3.3 1.1-6.1 1.1-6.5 0-11.3-4.1-11.3-11.6 0-7.2 4.9-12 12-12 2.9 0 4.7.6 5.4 1l-.7 2.4c-1.1-.5-2.7-1-4.6-1-5.4 0-8.9 3.4-8.9 9.5zm-15.6 8.9h9.9v2.5h-12.9v-23h12.4v2.5h-9.4v7.2h8.9v2.5h-8.9v8.3zM85.4 250c0 4.1-3.3 7.4-7.4 7.4s-7.4-3.3-7.4-7.4 3.3-7.4 7.4-7.4 7.4 3.3 7.4 7.4zm15-1v-.1c2.4-.8 4.3-2.8 4.3-5.8 0-1.8-.6-3.4-1.8-4.4-1.4-1.3-3.4-1.9-6.6-1.9-2.1 0-4.2.2-5.7.5v22.5h3v-9.9h2.8c2.7.1 3.9 1.3 4.6 4.5.6 2.9 1.1 4.9 1.5 5.5h3.1c-.5-.9-1.1-3.1-1.8-6.3-.6-2.4-1.6-4-3.4-4.6zm-3.8-1.2h-3v-8.4c.5-.2 1.5-.3 2.9-.3 3.2 0 5.3 1.3 5.3 4.3 0 2.7-2 4.4-5.2 4.4z" fill="#36434f"/></svg>