<svg version="1.1" xmlns="http://www.w3.org/2000/svg" x="0" y="0" viewBox="0 0 512 512" xml:space="preserve"><path d="M422.2 0v15.5h-226V0h226zm-226 51h226.1V35.5H196.2V51zm0 35.4h226.1V70.9H196.2v15.5zM89.8 121.9h332.5v-15.5H89.8v15.5zm0 35.5h332.5v-15.5H89.8v15.5zm0 35.4h332.5v-15.5H89.8v15.5zm0 35.5h332.5v-15.5H89.8v15.5zm0 35.5h332.5v-15.5H89.8v15.5zm0 35.4h332.5v-15.5H89.8v15.5zm0 35.5h332.5v-15.5H89.8v15.5zm0 35.4h332.5v-15.5H89.8v15.5zm0 35.5h332.5v-15.5H89.8v15.5zm0 35.5h332.5v-15.5H89.8v15.5zm0 35.4h332.5V461H89.8v15.5zm0 35.5h332.5v-15.5H89.8V512zm86.4-425.6H89.8V0h86.4v86.4zm-23.5-66.8h-11.3v18.7h-16.7V19.6h-11.4v47.2h11.4V47.1h16.7v19.7h11.3V19.6z" fill="#36434f"/></svg>