<svg version="1.1" xmlns="http://www.w3.org/2000/svg" x="0" y="0" viewBox="0 0 512 512" xml:space="preserve"><path d="M80 68c0 6.6-5.4 12-12 12H12C5.4 80 0 74.6 0 68V12C0 5.4 5.4 0 12 0h56c6.6 0 12 5.4 12 12v56zm108 0c0 6.6-5.4 12-12 12h-56c-6.6 0-12-5.4-12-12V12c0-6.6 5.4-12 12-12h56c6.6 0 12 5.4 12 12v56zm108 0c0 6.6-5.4 12-12 12h-56c-6.6 0-12-5.4-12-12V12c0-6.6 5.4-12 12-12h56c6.6 0 12 5.4 12 12v56zm108 0c0 6.6-5.4 12-12 12h-56c-6.6 0-12-5.4-12-12V12c0-6.6 5.4-12 12-12h56c6.6 0 12 5.4 12 12v56zm108 0c0 6.6-5.4 12-12 12h-56c-6.6 0-12-5.4-12-12V12c0-6.6 5.4-12 12-12h56c6.6 0 12 5.4 12 12v56zM80 176c0 6.6-5.4 12-12 12H12c-6.6 0-12-5.4-12-12v-56c0-6.6 5.4-12 12-12h56c6.6 0 12 5.4 12 12v56zm108 0c0 6.6-5.4 12-12 12h-56c-6.6 0-12-5.4-12-12v-56c0-6.6 5.4-12 12-12h56c6.6 0 12 5.4 12 12v56zm108 0c0 6.6-5.4 12-12 12h-56c-6.6 0-12-5.4-12-12v-56c0-6.6 5.4-12 12-12h56c6.6 0 12 5.4 12 12v56zm108 0c0 6.6-5.4 12-12 12h-56c-6.6 0-12-5.4-12-12v-56c0-6.6 5.4-12 12-12h56c6.6 0 12 5.4 12 12v56zm108 0c0 6.6-5.4 12-12 12h-56c-6.6 0-12-5.4-12-12v-56c0-6.6 5.4-12 12-12h56c6.6 0 12 5.4 12 12v56zM80 284c0 6.6-5.4 12-12 12H12c-6.6 0-12-5.4-12-12v-56c0-6.6 5.4-12 12-12h56c6.6 0 12 5.4 12 12v56zm108 0c0 6.6-5.4 12-12 12h-56c-6.6 0-12-5.4-12-12v-56c0-6.6 5.4-12 12-12h56c6.6 0 12 5.4 12 12v56zm108 0c0 6.6-5.4 12-12 12h-56c-6.6 0-12-5.4-12-12v-56c0-6.6 5.4-12 12-12h56c6.6 0 12 5.4 12 12v56zm108 0c0 6.6-5.4 12-12 12h-56c-6.6 0-12-5.4-12-12v-56c0-6.6 5.4-12 12-12h56c6.6 0 12 5.4 12 12v56zm108 0c0 6.6-5.4 12-12 12h-56c-6.6 0-12-5.4-12-12v-56c0-6.6 5.4-12 12-12h56c6.6 0 12 5.4 12 12v56zM80 392c0 6.6-5.4 12-12 12H12c-6.6 0-12-5.4-12-12v-56c0-6.6 5.4-12 12-12h56c6.6 0 12 5.4 12 12v56zm108 0c0 6.6-5.4 12-12 12h-56c-6.6 0-12-5.4-12-12v-56c0-6.6 5.4-12 12-12h56c6.6 0 12 5.4 12 12v56zm108 0c0 6.6-5.4 12-12 12h-56c-6.6 0-12-5.4-12-12v-56c0-6.6 5.4-12 12-12h56c6.6 0 12 5.4 12 12v56zm108 0c0 6.6-5.4 12-12 12h-56c-6.6 0-12-5.4-12-12v-56c0-6.6 5.4-12 12-12h56c6.6 0 12 5.4 12 12v56zm108 0c0 6.6-5.4 12-12 12h-56c-6.6 0-12-5.4-12-12v-56c0-6.6 5.4-12 12-12h56c6.6 0 12 5.4 12 12v56zM80 500c0 6.6-5.4 12-12 12H12c-6.6 0-12-5.4-12-12v-56c0-6.6 5.4-12 12-12h56c6.6 0 12 5.4 12 12v56zm108 0c0 6.6-5.4 12-12 12h-56c-6.6 0-12-5.4-12-12v-56c0-6.6 5.4-12 12-12h56c6.6 0 12 5.4 12 12v56zm108 0c0 6.6-5.4 12-12 12h-56c-6.6 0-12-5.4-12-12v-56c0-6.6 5.4-12 12-12h56c6.6 0 12 5.4 12 12v56zm108 0c0 6.6-5.4 12-12 12h-56c-6.6 0-12-5.4-12-12v-56c0-6.6 5.4-12 12-12h56c6.6 0 12 5.4 12 12v56zm108 0c0 6.6-5.4 12-12 12h-56c-6.6 0-12-5.4-12-12v-56c0-6.6 5.4-12 12-12h56c6.6 0 12 5.4 12 12v56z" fill="#36434f"/></svg>