<svg version="1.1" xmlns="http://www.w3.org/2000/svg" x="0" y="0" viewBox="0 0 512 512" xml:space="preserve"><path d="M319 69h-4V58c0-1.7-1.3-3-3-3h-28.3V1.8c0-1-.8-1.8-1.8-1.8h-51.7c-1.1 0-1.9.8-1.9 1.8V55H200c-1.7 0-3 1.3-3 3v11h-4c-4.4 0-8 3.6-8 8v341c0 4.4 3.6 8 8 8h13.2v86h99.7v-86H319c4.4 0 8-3.6 8-8V77c0-4.4-3.6-8-8-8zm-77.7 404.9c0 1.4-1.1 2.5-2.5 2.5h-15.5c-1.4 0-2.5-1.1-2.5-2.5v-10.6c0-1.4 1.1-2.5 2.5-2.5h15.5c1.4 0 2.5 1.1 2.5 2.5v10.6zm49.8 0c0 1.4-1.1 2.5-2.5 2.5h-15.5c-1.4 0-2.5-1.1-2.5-2.5v-10.6c0-1.4 1.1-2.5 2.5-2.5h15.5c1.5 0 2.5 1.1 2.5 2.5v10.6z" fill="#36434f"/></svg>