<svg version="1.1" xmlns="http://www.w3.org/2000/svg" x="0" y="0" viewBox="0 0 512 512" xml:space="preserve"><path d="M283 162V24h67v138h-67zM501.5 24v476c0 6.6-5.4 12-12 12h-467c-6.6 0-12-5.4-12-12V12c0-6.6 5.4-12 12-12h35l8 8h10l5-5H127v155c0 6.6 5.4 12 12 12h236c6.6 0 12-5.4 12-12V9h16.5l6-6h44l3-3h21l24 24zm-475 38v10h14V62h6l-13-29-13 29h6zM47 451H23v24h24v-24zM437 77.9c6.2-.7 11-6 11-12.4s-4.8-11.7-11-12.4v3c4.5.7 8 4.6 8 9.4s-3.5 8.6-8 9.4v3zm-6 6.1h3V47h-3v37zm-14-20h11V47h-3v14h-5V47h-3v17zm0 20h3V70h5v14h3V67h-11v17zm-6 0h3V47h-3v37zm34.5 150.5c0-6.6-5.4-12-12-12h-355c-6.6 0-12 5.4-12 12v253c0 6.6 5.4 12 12 12h355c6.6 0 12-5.4 12-12v-253zm8.5-169c0-9.7-7.5-17.7-17-18.4v3c7.8.8 14 7.4 14 15.4s-6.2 14.7-14 15.4v3c9.5-.7 17-8.7 17-18.4zM489 451h-24v24h24v-24z" fill="#36434f"/></svg>