<svg version="1.1" xmlns="http://www.w3.org/2000/svg" x="0" y="0" viewBox="0 0 512 512" xml:space="preserve"><path d="M414.8 490.4c.2-.6-.1-.8-.6-.6-.6.2-1.3 0-1.7-.4-.4-.5-.7-.4-.8.2-.1.6-.6 1.1-1.2 1.2-.6.1-.7.5-.2.8.5.4.7 1.1.4 1.7-.3.6.1.8.6.6.5-.2 1.3 0 1.7.4.4.5.7.4.8-.2s.6-1.1 1.2-1.2.7-.5.2-.8c-.4-.4-.6-1.2-.4-1.7zM97 21.6c-.2.6.1.8.6.6.6-.2 1.3 0 1.7.4.4.5.7.4.8-.2.1-.6.6-1.1 1.2-1.2s.7-.5.2-.8c-.5-.4-.7-1.1-.4-1.7.2-.6-.1-.8-.6-.6-.6.2-1.3 0-1.7-.4-.4-.5-.7-.4-.8.2-.1.6-.6 1.1-1.2 1.2s-.7.5-.2.8c.4.4.6 1.2.4 1.7zm4.3 469.2c-.6-.1-1.1-.6-1.2-1.2-.1-.6-.5-.7-.8-.2-.4.5-1.1.7-1.7.4-.6-.2-.8.1-.6.6.2.6 0 1.3-.4 1.7-.5.4-.4.7.2.8s1.1.6 1.2 1.2c.1.6.5.7.8.2.4-.5 1.1-.7 1.7-.4.6.3.8-.1.6-.6s0-1.3.4-1.7c.5-.3.4-.7-.2-.8zM410.5 21.2c.6.1 1.1.6 1.2 1.2s.5.7.8.2c.4-.5 1.1-.7 1.7-.4.6.2.8-.1.6-.6-.2-.6 0-1.3.4-1.7.5-.4.4-.7-.2-.8-.6-.1-1.1-.6-1.2-1.2s-.5-.7-.8-.2c-.4.5-1.1.7-1.7.4-.6-.2-.8.1-.6.6.2.6 0 1.3-.4 1.7-.5.3-.4.7.2.8zm9.7 249.3c-.2.5-.9.9-1.5.9-.6-.1-.8.3-.4.8s.3 1.3 0 1.7c-.3.4-.2.8.4.8.6-.1 1.3.3 1.5.9.2.5.6.5.9 0 .2-.5.9-.9 1.5-.9.6.1.8-.3.4-.8s-.3-1.3 0-1.7c.3-.4.2-.8-.4-.8-.6.1-1.3-.3-1.5-.9-.3-.5-.6-.5-.9 0zm-313.5-31.4c-8.4-16.9-12.8-35.8-12.8-54.6v-80c0-15.8 6.1-30.6 17.3-41.7l26.5-26.5c11.1-11.1 26-17.3 41.7-17.3h153c15.8 0 30.6 6.1 41.7 17.3l26.5 26.5c11.1 11.1 17.3 26 17.3 41.7v80c0 18.9-4.4 37.7-12.8 54.6l-8 16.1c-7.3 14.7-3.9 32.7 8.2 43.8l3.7 3.4c5.6 5.1 8.8 12.4 8.8 20v85.2c0 15.8-6.1 30.6-17.3 41.7L374 475.8c-11.1 11.1-26 17.3-41.7 17.3h-153c-15.8 0-30.6-6.1-41.7-17.3l-26.5-26.5c-11.1-11.1-17.3-26-17.3-41.7v-85.2c0-7.6 3.2-14.9 8.8-20l3.7-3.4c12.1-11.1 15.5-29.1 8.2-43.8l-7.8-16.1zm18.6 123.6c3.1 38.7 26.9 71.6 60.3 87.7 4.2 2 9.3.1 11-4.3l5-13.1c1.5-3.8-.2-8.2-3.8-10-23.3-11.6-40-34.6-42.5-61.7-.4-4.1-3.8-7.3-8-7.3h-14.1c-4.7 0-8.3 4-7.9 8.7zm-55.1-91.8l.9-1.5c.5-.9 1.4-1.6 2.5-1.8l5.3-1.3V26l7.9-7.9-3.9-6.6c-.5-.9-.7-2-.5-3l.4-1.7c.4-1.4 1.5-2.6 2.9-2.9l1.7-.4c1-.3 2.1-.1 3 .5L97 7.9l7.9-7.9h302l7.9 7.9 6.6-3.9c.9-.5 2-.7 3-.5l1.7.4c1.4.4 2.6 1.5 2.9 2.9l.4 1.7c.3 1 .1 2.1-.5 3l-3.9 6.6 7.9 7.9v240.3l5.3 1.3c1 .3 1.9.9 2.5 1.8l.9 1.5c.8 1.3.8 2.8 0 4.1l-.9 1.5c-.5.9-1.4 1.6-2.5 1.8l-5.3 1.3V486l-7.9 7.9 3.9 6.6c.5.9.7 2 .5 3l-.4 1.7c-.4 1.4-1.5 2.6-2.9 2.9l-1.7.4c-1 .3-2.1.1-3-.5l-6.6-3.9-7.9 7.9h-302l-7.9-7.9-6.6 3.9c-.9.5-2 .7-3 .5l-1.7-.4c-1.4-.4-2.6-1.5-2.9-2.9l-.4-1.7c-.3-1-.1-2.1.5-3l3.9-6.6-7.9-7.9V279.7l-5.3-1.3c-1-.3-1.9-.9-2.5-1.8l-.9-1.5c-.7-1.3-.7-2.9 0-4.2zm35.2 214.6c-3.5-3.5-9.2-3.5-12.7 0s-3.5 9.2 0 12.7 9.2 3.5 12.7 0 3.5-9.2 0-12.7zm17.3 5.3l-22.6-22.6c-.8-.8-2-.8-2.8 0-.8.8-.8 2 0 2.8l22.6 22.6c.8.8 2 .8 2.8 0 .8-.8.8-2 0-2.8zm269.2 2.8l22.6-22.6c.8-.8.8-2 0-2.8-.8-.8-2-.8-2.8 0l-22.6 22.6c-.8.8-.8 2 0 2.8.7.8 2 .8 2.8 0zm27.2-8.1c-3.5-3.5-9.2-3.5-12.7 0s-3.5 9.2 0 12.7 9.2 3.5 12.7 0 3.5-9.2 0-12.7zm1.5-221.5c-5 0-9 4-9 9s4 9 9 9 9-4 9-9-4-9-9-9zM406.4 26.5c3.5 3.5 9.2 3.5 12.7 0s3.5-9.2 0-12.7-9.2-3.5-12.7 0-3.5 9.2 0 12.7zm-17.3-5.3l22.6 22.6c.8.8 2 .8 2.8 0 .8-.8.8-2 0-2.8l-22.6-22.6c-.8-.8-2-.8-2.8 0-.8.8-.8 2 0 2.8zm-269.2-2.8L97.3 41c-.8.8-.8 2 0 2.8s2 .8 2.8 0l22.6-22.6c.8-.8.8-2 0-2.8-.7-.8-2-.8-2.8 0zm-27.2 8.1c3.5 3.5 9.2 3.5 12.7 0s3.5-9.2 0-12.7-9.2-3.5-12.7 0-3.5 9.2 0 12.7zm-3.8 158c0 19.7 4.6 39.2 13.3 56.9l8 16.1c6.3 12.8 3.4 28.2-7.1 37.9l-3.7 3.4c-6.7 6.1-10.4 14.7-10.4 23.7v85.2c0 17 6.7 33.3 18.7 45.3l26.5 26.5c12 12 28.3 18.7 45.3 18.7h153c17 0 33.3-6.7 45.3-18.7l26.5-26.5c12-12 18.7-28.3 18.7-45.3v-85.2c0-9-3.8-17.6-10.4-23.7l-3.7-3.4c-10.6-9.6-13.5-25.1-7.1-37.9l8-16.1c8.5-17.7 13.1-37.2 13.1-56.9v-80c0-17-6.7-33.3-18.7-45.3l-26.5-26.5c-12-12-28.3-18.7-45.3-18.7h-153c-17 0-33.3 6.7-45.3 18.7l-26.5 26.5c-12 12-18.7 28.3-18.7 45.3v80zM82.1 273c0 5 4 9 9 9s9-4 9-9-4-9-9-9c-4.9 0-9 4-9 9zm7.1 1.6c.6-.1 1.3.3 1.5.9.2.5.6.5.9 0 .2-.5.9-.9 1.5-.9.6.1.8-.3.4-.8s-.3-1.3 0-1.7.2-.8-.4-.8c-.6.1-1.3-.3-1.5-.9-.2-.5-.6-.5-.9 0-.2.5-.9.9-1.5.9-.6-.1-.8.3-.4.8s.3 1.3 0 1.7c-.3.4-.2.9.4.8z" fill="#36434f"/></svg>