<svg version="1.1" xmlns="http://www.w3.org/2000/svg" x="0" y="0" viewBox="0 0 512 512" xml:space="preserve"><path d="M10 10h32v9H10zm40 0h56v9H50zm64 0h48v9h-48zm56 0h32v9h-32zM10 46h32v9H10zm40 0h8v9h-8zm16 0h16v9H66zM10 82h80v9H10zm88 0h8v9h-8zm16 0h16v9h-16zM10 100h24v9H10zm32 0h8v9h-8zm16 0h16v9H58zm24 0h64v9H82zm-40 18h32v9H42zm40 0h8v9h-8zm16 0h16v9H98zm-56 18h16v9H42zm24 0h48v9H66zm56 0h8v9h-8zm16 0h88v9h-88zm-64 18h80v9H74zm88 0h8v9h-8zm16 0h48v9h-48zM42 172h24v9H42zm32 0h48v9H74zm56 0h16v9h-16zm24 0h16v9h-16zm-80 18h16v9H74zm24 0h48v9H98zm56 0h16v9h-16zm24 0h112v9H178zm-72 18h112v9H106zm-32 18h40v9H74zm32 18h112v9H106zm-64 18h136v9H42zm-32 36h40v9H10zm48 0h8v9h-8zm16 0h80v9H74zm88 0h8v9h-8zm16 0h96v9h-96zm104 0h8v9h-8zm16 0h8v9h-8zm16 0h8v9h-8zm16 0h48v9h-48zM10 334h24v9H10zm32 0h8v9h-8zm16 0h16v9H58zm24 0h136v9H82zm-40 18h16v9H42zm24 0h8v9h-8zm16 0h8v9h-8zm-40 18h96v9H42zm104 0h8v9h-8zm16 0h8v9h-8zM42 388h32v9H42zm40 0h8v9h-8zm16 0h40v9H98zm-56 18h56v9H42zm64 0h8v9h-8zm16 0h8v9h-8zM10 442h48v9H10zm56 0h16v9H66zm24 0h392v9H90zm-80 36h32v9H10zm40 0h144v9H50zm152 0h32v9h-32zm40 0h16v9h-16zm24 0h40v9h-40zM42 496h144v9H42z" fill="#36434f"/></svg>