<svg version="1.1" xmlns="http://www.w3.org/2000/svg" x="0" y="0" viewBox="0 0 512 512" xml:space="preserve"><path d="M257 0h1-1zm-2 0h-1 1zm115 42C353.5 14.8 283 .8 258 0v16.1c9.8 1.3 18.7 11.9 25.1 30.2 6.4 18.3 9.9 42.5 9.9 68.1s-3.5 49.9-9.9 68.1c-6.4 18.3-15.3 29-25.1 30.2V234h-4v-21.1c-9.8-1.3-18.7-11.9-25.1-30.2-6.4-18.3-9.9-42.5-9.9-68.1s3.5-49.9 9.9-68.1c6.4-18.3 15.3-29 25.1-30.2V0c-25 .7-95.5 14.7-112 42-17 28-22 220-22 282s26 122 46 142c16 17 62 46 90 46s74-29 90-46c20-20 46-80 46-142s-5-254-22-282zM240.5 73.5v55c0 6.6 5.4 12 12 12h7c6.6 0 12-5.4 12-12v-55c0-6.6-5.4-12-12-12h-7c-6.6 0-12 5.4-12 12z" fill="#36434f"/></svg>