<svg version="1.1" xmlns="http://www.w3.org/2000/svg" x="0" y="0" viewBox="0 0 512 512" xml:space="preserve"><path d="M324 348h-39V198h39v150zm-41-150h-39v150h39V198zm-92.7 141c-2.8 0-5-2.2-5-5V143c0-2.8 2.2-5 5-5h16c2.8 0 5 2.2 5 5v191c0 2.8-2.2 5-5 5h-16zm1-172c0 1.1.9 2 2 2h10c1.1 0 2-.9 2-2v-21c0-1.1-.9-2-2-2h-10c-1.1 0-2 .9-2 2v21zm0 94c0 1.1.9 2 2 2h10c1.1 0 2-.9 2-2v-45c0-1.1-.9-2-2-2h-10c-1.1 0-2 .9-2 2v45zm0 70c0 1.1.9 2 2 2h10c1.1 0 2-.9 2-2v-14c0-1.1-.9-2-2-2h-10c-1.1 0-2 .9-2 2v14zm101-161c-1.7 0-3 1.3-3 3s1.3 3 3 3 3-1.3 3-3-1.4-3-3-3zm0-19c-1.7 0-3 1.3-3 3s1.3 3 3 3 3-1.3 3-3-1.4-3-3-3zM361 16v480l-16 16H167l-16-16V16l16-16h178l16 16zm-28.5 472h-153v14h153v-14zm0-20h-153v14h153v-14zm0-20h-153v14h153v-14zm0-20h-153v14h153v-14zm0-20h-153v14h153v-14zm0-20h-153v14h153v-14zm0-20h-153v14h153v-14zm0-258h-153v14H242v224h-62.5v14h153v-14H326V196h-82v-72h88.5v-14zm-4.7 44v-9h-20v9h20zm-20 5v9h20v-9h-20zm-9.5-5c0-3.3-2.7-6-6-6s-6 2.7-6 6 2.7 6 6 6 6-2.7 6-6zm-6 13c-3.3 0-6 2.7-6 6s2.7 6 6 6 6-2.7 6-6-2.7-6-6-6zm-15.5-13v-9h-20v9h20zm-20 5v9h20v-9h-20zm-66.5 182h16c3.9 0 7-3.1 7-7V143c0-3.9-3.1-7-7-7h-16c-3.9 0-7 3.1-7 7v191c0 3.9 3.1 7 7 7zm27-177c1.1 0 2-.9 2-2s-.9-2-2-2-2 .9-2 2 .8 2 2 2zm13.5-3v-16c0-1.7-1.3-3-3-3s-3 1.3-3 3v16c0 1.7 1.3 3 3 3s3-1.3 3-3zm-2.5 31c-1.1 0-2 .9-2 2v7c0 1.1.9 2 2 2s2-.9 2-2v-7c0-1.1-.9-2-2-2zM332.5 90h-153v14h153V90zm0-20h-153v14h153V70zm0-20h-153v14h153V50zm0-20h-153v14h153V30zm0-20h-153v14h153V10z" fill="#36434f"/></svg>