<svg version="1.1" xmlns="http://www.w3.org/2000/svg" x="0" y="0" viewBox="0 0 512 512" xml:space="preserve"><path d="M496 16v48h-48V16h48m-108 0v48h-48V16h48m-108 0v48h-48V16h48m-108 0v48h-48V16h48M64 16v48H16V16h48m432 108v48h-48v-48h48m-108 0v48h-48v-48h48m-108 0v48h-48v-48h48m-108 0v48h-48v-48h48m-108 0v48H16v-48h48m432 108v48h-48v-48h48m-108 0v48h-48v-48h48m-108 0v48h-48v-48h48m-108 0v48h-48v-48h48m-108 0v48H16v-48h48m432 108v48h-48v-48h48m-108 0v48h-48v-48h48m-108 0v48h-48v-48h48m-108 0v48h-48v-48h48m-108 0v48H16v-48h48m432 108v48h-48v-48h48m-108 0v48h-48v-48h48m-108 0v48h-48v-48h48m-108 0v48h-48v-48h48m-108 0v48H16v-48h48M500 0h-56c-6.6 0-12 5.4-12 12v56c0 6.6 5.4 12 12 12h56c6.6 0 12-5.4 12-12V12c0-6.6-5.4-12-12-12zM392 0h-56c-6.6 0-12 5.4-12 12v56c0 6.6 5.4 12 12 12h56c6.6 0 12-5.4 12-12V12c0-6.6-5.4-12-12-12zM284 0h-56c-6.6 0-12 5.4-12 12v56c0 6.6 5.4 12 12 12h56c6.6 0 12-5.4 12-12V12c0-6.6-5.4-12-12-12zM176 0h-56c-6.6 0-12 5.4-12 12v56c0 6.6 5.4 12 12 12h56c6.6 0 12-5.4 12-12V12c0-6.6-5.4-12-12-12zM68 0H12C5.4 0 0 5.4 0 12v56c0 6.6 5.4 12 12 12h56c6.6 0 12-5.4 12-12V12c0-6.6-5.4-12-12-12zm432 108h-56c-6.6 0-12 5.4-12 12v56c0 6.6 5.4 12 12 12h56c6.6 0 12-5.4 12-12v-56c0-6.6-5.4-12-12-12zm-108 0h-56c-6.6 0-12 5.4-12 12v56c0 6.6 5.4 12 12 12h56c6.6 0 12-5.4 12-12v-56c0-6.6-5.4-12-12-12zm-108 0h-56c-6.6 0-12 5.4-12 12v56c0 6.6 5.4 12 12 12h56c6.6 0 12-5.4 12-12v-56c0-6.6-5.4-12-12-12zm-108 0h-56c-6.6 0-12 5.4-12 12v56c0 6.6 5.4 12 12 12h56c6.6 0 12-5.4 12-12v-56c0-6.6-5.4-12-12-12zm-108 0H12c-6.6 0-12 5.4-12 12v56c0 6.6 5.4 12 12 12h56c6.6 0 12-5.4 12-12v-56c0-6.6-5.4-12-12-12zm432 108h-56c-6.6 0-12 5.4-12 12v56c0 6.6 5.4 12 12 12h56c6.6 0 12-5.4 12-12v-56c0-6.6-5.4-12-12-12zm-108 0h-56c-6.6 0-12 5.4-12 12v56c0 6.6 5.4 12 12 12h56c6.6 0 12-5.4 12-12v-56c0-6.6-5.4-12-12-12zm-108 0h-56c-6.6 0-12 5.4-12 12v56c0 6.6 5.4 12 12 12h56c6.6 0 12-5.4 12-12v-56c0-6.6-5.4-12-12-12zm-108 0h-56c-6.6 0-12 5.4-12 12v56c0 6.6 5.4 12 12 12h56c6.6 0 12-5.4 12-12v-56c0-6.6-5.4-12-12-12zm-108 0H12c-6.6 0-12 5.4-12 12v56c0 6.6 5.4 12 12 12h56c6.6 0 12-5.4 12-12v-56c0-6.6-5.4-12-12-12zm432 108h-56c-6.6 0-12 5.4-12 12v56c0 6.6 5.4 12 12 12h56c6.6 0 12-5.4 12-12v-56c0-6.6-5.4-12-12-12zm-108 0h-56c-6.6 0-12 5.4-12 12v56c0 6.6 5.4 12 12 12h56c6.6 0 12-5.4 12-12v-56c0-6.6-5.4-12-12-12zm-108 0h-56c-6.6 0-12 5.4-12 12v56c0 6.6 5.4 12 12 12h56c6.6 0 12-5.4 12-12v-56c0-6.6-5.4-12-12-12zm-108 0h-56c-6.6 0-12 5.4-12 12v56c0 6.6 5.4 12 12 12h56c6.6 0 12-5.4 12-12v-56c0-6.6-5.4-12-12-12zm-108 0H12c-6.6 0-12 5.4-12 12v56c0 6.6 5.4 12 12 12h56c6.6 0 12-5.4 12-12v-56c0-6.6-5.4-12-12-12zm432 108h-56c-6.6 0-12 5.4-12 12v56c0 6.6 5.4 12 12 12h56c6.6 0 12-5.4 12-12v-56c0-6.6-5.4-12-12-12zm-108 0h-56c-6.6 0-12 5.4-12 12v56c0 6.6 5.4 12 12 12h56c6.6 0 12-5.4 12-12v-56c0-6.6-5.4-12-12-12zm-108 0h-56c-6.6 0-12 5.4-12 12v56c0 6.6 5.4 12 12 12h56c6.6 0 12-5.4 12-12v-56c0-6.6-5.4-12-12-12zm-108 0h-56c-6.6 0-12 5.4-12 12v56c0 6.6 5.4 12 12 12h56c6.6 0 12-5.4 12-12v-56c0-6.6-5.4-12-12-12zm-108 0H12c-6.6 0-12 5.4-12 12v56c0 6.6 5.4 12 12 12h56c6.6 0 12-5.4 12-12v-56c0-6.6-5.4-12-12-12z" fill="#36434f"/></svg>