<svg version="1.1" xmlns="http://www.w3.org/2000/svg" x="0" y="0" viewBox="0 0 512 512" xml:space="preserve"><path d="M480 32v16h-16V32h16m-108 0v16h-16V32h16m-108 0v16h-16V32h16m-108 0v16h-16V32h16M48 32v16H32V32h16m432 108v16h-16v-16h16m-108 0v16h-16v-16h16m-108 0v16h-16v-16h16m-108 0v16h-16v-16h16m-108 0v16H32v-16h16m432 108v16h-16v-16h16m-108 0v16h-16v-16h16m-108 0v16h-16v-16h16m-108 0v16h-16v-16h16m-108 0v16H32v-16h16m432 108v16h-16v-16h16m-108 0v16h-16v-16h16m-108 0v16h-16v-16h16m-108 0v16h-16v-16h16m-108 0v16H32v-16h16m432 108v16h-16v-16h16m-108 0v16h-16v-16h16m-108 0v16h-16v-16h16m-108 0v16h-16v-16h16m-108 0v16H32v-16h16M500 0h-56c-6.6 0-12 5.4-12 12v56c0 6.6 5.4 12 12 12h56c6.6 0 12-5.4 12-12V12c0-6.6-5.4-12-12-12zM392 0h-56c-6.6 0-12 5.4-12 12v56c0 6.6 5.4 12 12 12h56c6.6 0 12-5.4 12-12V12c0-6.6-5.4-12-12-12zM284 0h-56c-6.6 0-12 5.4-12 12v56c0 6.6 5.4 12 12 12h56c6.6 0 12-5.4 12-12V12c0-6.6-5.4-12-12-12zM176 0h-56c-6.6 0-12 5.4-12 12v56c0 6.6 5.4 12 12 12h56c6.6 0 12-5.4 12-12V12c0-6.6-5.4-12-12-12zM68 0H12C5.4 0 0 5.4 0 12v56c0 6.6 5.4 12 12 12h56c6.6 0 12-5.4 12-12V12c0-6.6-5.4-12-12-12zm432 108h-56c-6.6 0-12 5.4-12 12v56c0 6.6 5.4 12 12 12h56c6.6 0 12-5.4 12-12v-56c0-6.6-5.4-12-12-12zm-108 0h-56c-6.6 0-12 5.4-12 12v56c0 6.6 5.4 12 12 12h56c6.6 0 12-5.4 12-12v-56c0-6.6-5.4-12-12-12zm-108 0h-56c-6.6 0-12 5.4-12 12v56c0 6.6 5.4 12 12 12h56c6.6 0 12-5.4 12-12v-56c0-6.6-5.4-12-12-12zm-108 0h-56c-6.6 0-12 5.4-12 12v56c0 6.6 5.4 12 12 12h56c6.6 0 12-5.4 12-12v-56c0-6.6-5.4-12-12-12zm-108 0H12c-6.6 0-12 5.4-12 12v56c0 6.6 5.4 12 12 12h56c6.6 0 12-5.4 12-12v-56c0-6.6-5.4-12-12-12zm432 108h-56c-6.6 0-12 5.4-12 12v56c0 6.6 5.4 12 12 12h56c6.6 0 12-5.4 12-12v-56c0-6.6-5.4-12-12-12zm-108 0h-56c-6.6 0-12 5.4-12 12v56c0 6.6 5.4 12 12 12h56c6.6 0 12-5.4 12-12v-56c0-6.6-5.4-12-12-12zm-108 0h-56c-6.6 0-12 5.4-12 12v56c0 6.6 5.4 12 12 12h56c6.6 0 12-5.4 12-12v-56c0-6.6-5.4-12-12-12zm-108 0h-56c-6.6 0-12 5.4-12 12v56c0 6.6 5.4 12 12 12h56c6.6 0 12-5.4 12-12v-56c0-6.6-5.4-12-12-12zm-108 0H12c-6.6 0-12 5.4-12 12v56c0 6.6 5.4 12 12 12h56c6.6 0 12-5.4 12-12v-56c0-6.6-5.4-12-12-12zm432 108h-56c-6.6 0-12 5.4-12 12v56c0 6.6 5.4 12 12 12h56c6.6 0 12-5.4 12-12v-56c0-6.6-5.4-12-12-12zm-108 0h-56c-6.6 0-12 5.4-12 12v56c0 6.6 5.4 12 12 12h56c6.6 0 12-5.4 12-12v-56c0-6.6-5.4-12-12-12zm-108 0h-56c-6.6 0-12 5.4-12 12v56c0 6.6 5.4 12 12 12h56c6.6 0 12-5.4 12-12v-56c0-6.6-5.4-12-12-12zm-108 0h-56c-6.6 0-12 5.4-12 12v56c0 6.6 5.4 12 12 12h56c6.6 0 12-5.4 12-12v-56c0-6.6-5.4-12-12-12zm-108 0H12c-6.6 0-12 5.4-12 12v56c0 6.6 5.4 12 12 12h56c6.6 0 12-5.4 12-12v-56c0-6.6-5.4-12-12-12zm432 108h-56c-6.6 0-12 5.4-12 12v56c0 6.6 5.4 12 12 12h56c6.6 0 12-5.4 12-12v-56c0-6.6-5.4-12-12-12zm-108 0h-56c-6.6 0-12 5.4-12 12v56c0 6.6 5.4 12 12 12h56c6.6 0 12-5.4 12-12v-56c0-6.6-5.4-12-12-12zm-108 0h-56c-6.6 0-12 5.4-12 12v56c0 6.6 5.4 12 12 12h56c6.6 0 12-5.4 12-12v-56c0-6.6-5.4-12-12-12zm-108 0h-56c-6.6 0-12 5.4-12 12v56c0 6.6 5.4 12 12 12h56c6.6 0 12-5.4 12-12v-56c0-6.6-5.4-12-12-12zm-108 0H12c-6.6 0-12 5.4-12 12v56c0 6.6 5.4 12 12 12h56c6.6 0 12-5.4 12-12v-56c0-6.6-5.4-12-12-12z" fill="#36434f"/></svg>