<svg version="1.1" xmlns="http://www.w3.org/2000/svg" x="0" y="0" viewBox="0 0 512 512" xml:space="preserve"><path d="M381 160v-29c0-1.7-1.3-3-3-3V30c0-16.6-13.4-30-30-30H164c-16.6 0-30 13.4-30 30v452c0 16.6 13.4 30 30 30h184c16.6 0 30-13.4 30-30V262c1.7 0 3-1.3 3-3v-61c0-1.7-1.3-3-3-3v-32c1.7 0 3-1.3 3-3zM232 16h48c1.7 0 3 1.3 3 3s-1.3 3-3 3h-48c-1.7 0-3-1.3-3-3s1.3-3 3-3zm-46.5-1c2.5 0 4.5 2 4.5 4.5s-2 4.5-4.5 4.5-4.5-2-4.5-4.5 2-4.5 4.5-4.5zM366 457c0 6.6-5.4 12-12 12H158c-6.6 0-12-5.4-12-12V47c0-6.6 5.4-12 12-12h196c6.6 0 12 5.4 12 12v410zM183 19.5c0-1.4 1.1-2.5 2.5-2.5s2.5 1.1 2.5 2.5-1.1 2.5-2.5 2.5-2.5-1.1-2.5-2.5z" fill="#36434f"/></svg>