<svg xmlns="http://www.w3.org/2000/svg" viewBox="0 0 512 512" xml:space="preserve"><path d="M484.5 280.7c26.2 0 27.5-9.4 27.5-21s-1.3-21-27.5-21c-12.6 0-28.8 2.2-42.1 5.8-.8-9.5-2.2-18.8-4.4-27.8 13.8-.7 29.8-3.6 41.8-7.5 24.9-8.1 23.2-17.4 19.7-28.5s-7.7-19.6-32.6-11.5c-12 3.9-26.7 11-38.2 18.5-3.6-8.7-7.9-17.1-12.8-25.1 12.9-5 27.2-12.7 37.4-20.1 21.2-15.4 16.7-23.8 9.9-33.2s-13.4-16.2-34.6-.8c-10.2 7.4-22 18.7-30.7 29.4-7.5-8.7-15.8-16.7-24.7-23.9 4-7.1 7.5-14.2 9.3-19.4 12 6.6 25.2 5.9 31.2-2.3 6.7-9.2 1.5-24.2-11.4-33.6-13-9.4-28.9-9.6-35.5-.5-6.2 8.5-2.2 22.2 8.9 31.7-4.3 3.3-9.9 8.7-15.3 14.6-10-6.7-20.8-12.5-32.1-17.3 7.5-11.6 14.6-26.2 18.5-38.2 8.1-24.9-.4-29.1-11.5-32.6s-20.4-5.3-28.5 19.7c-3.9 12-6.8 28-7.5 41.8-9-2.1-18.3-3.6-27.8-4.4 3.6-13.3 5.8-29.5 5.8-42.1 0-26.2-9.4-27.5-21-27.5S235 5 235 31.2c0 12.6 2.2 28.8 5.8 42.1-9.5.8-18.8 2.2-27.8 4.4-.7-13.8-3.6-29.8-7.5-41.8-8.1-24.9-17.4-23.2-28.5-19.7s-19.6 7.7-11.5 32.6c3.9 12 11 26.7 18.5 38.2-10.7 4.5-20.8 9.9-30.4 16.2-5.5-6-11.2-11.5-15.6-14.8 10-9.4 13.4-22.2 7.5-30.4-6.7-9.2-22.6-9-35.5.5C97 67.9 91.9 83 98.6 92.1c6.2 8.5 20.5 8.9 32.9 1.3 1.8 5.2 5.2 12.1 9.1 19.1-9.6 7.5-18.4 16-26.3 25.2-8.7-10.7-20.5-22-30.7-29.4-21.2-15.4-27.8-8.6-34.6.8s-11.3 17.7 9.9 33.2c10.2 7.4 24.6 15.1 37.4 20.1-4.9 8-9.2 16.4-12.8 25.1-11.6-7.5-26.2-14.6-38.2-18.5-24.9-8.1-29.1.4-32.6 11.5S7.2 201 32.2 209.1c12 3.9 28 6.8 41.8 7.5-2.1 9-3.6 18.3-4.4 27.8-13.3-3.6-29.5-5.8-42.1-5.8-26.2 0-27.5 9.4-27.5 21s1.3 21 27.5 21c12.6 0 28.8-2.2 42.1-5.8.9 11.6 2.9 23 5.9 33.9-7.4 3.4-14.3 7.1-18.8 10.2-5.8-12.4-17-19.6-26.6-16.5-10.8 3.5-15.5 18.7-10.5 33.9 4.9 15.2 17.7 24.7 28.5 21.2 10-3.3 14.8-16.7 11.4-30.9 5.5-.1 13.1-1.2 20.9-2.8 4.2 11.5 9.5 22.5 15.8 32.8-12.9 5-27.2 12.7-37.4 20.1-21.2 15.4-16.7 23.8-9.9 33.2 6.8 9.4 13.4 16.2 34.6.8 10.2-7.4 22-18.7 30.7-29.4 6.1 7.1 12.8 13.8 19.9 19.9-10.7 8.7-22 20.5-29.4 30.7-15.4 21.2-8.6 27.8.8 34.6 9.4 6.8 17.7 11.3 33.2-9.9 7.4-10.2 15.1-24.6 20.1-37.4 8 4.9 16.4 9.2 25.1 12.8-7.5 11.6-14.6 26.2-18.5 38.2-8.1 24.9.4 29.1 11.5 32.6s20.4 5.3 28.5-19.7c3.9-12 6.8-28 7.5-41.8 11 2.6 22.4 4.2 34.1 4.8.9 8.1 2.3 15.8 3.9 21.1-13.6 1.7-23.9 10.1-23.9 20.2 0 11.3 13 20.5 29 20.5s29-9.2 29-20.5c0-10.6-11.3-19.3-25.8-20.4 1.6-5.2 2.9-12.9 3.8-20.8 12.4-.5 24.4-2.1 36.1-4.9.7 13.8 3.6 29.8 7.5 41.8 8.1 24.9 17.4 23.2 28.5 19.7s19.6-7.7 11.5-32.6c-3.9-12-11-26.7-18.5-38.2 8.7-3.6 17.1-7.9 25.1-12.8 5 12.9 12.7 27.2 20.1 37.4 15.4 21.2 23.8 16.7 33.2 9.9 9.4-6.8 16.2-13.4.8-34.6-7.4-10.2-18.7-22-29.4-30.7 7.1-6.1 13.8-12.8 19.9-19.9 8.7 10.7 20.5 22 30.7 29.4 21.2 15.4 27.8 8.6 34.6-.8 6.8-9.4 11.3-17.7-9.9-33.2-10.2-7.4-24.6-15.1-37.4-20.1 6-9.8 11-20.1 15.1-30.9 8 1.6 15.7 2.7 21.2 2.8-2.6 13.4 2.2 25.8 11.8 28.9 10.8 3.5 23.5-6 28.5-21.2 4.9-15.2.2-30.4-10.5-33.9-10-3.3-21.8 4.8-27.4 18.3-4.5-3.1-11.3-6.7-18.6-10.1 3.3-11.5 5.5-23.5 6.4-35.9 13.4 3.9 29.6 6.1 42.2 6.1zM425 227.5c1 5.4-2.5 10.7-7.9 11.7s-10.7-2.5-11.7-7.9 2.5-10.7 7.9-11.7c5.4-1.1 10.6 2.5 11.7 7.9zm-5.4-20.9c1.7 5.3-1.2 10.9-6.4 12.6-5.3 1.7-10.9-1.2-12.6-6.4s1.2-10.9 6.4-12.6c5.2-1.8 10.9 1.1 12.6 6.4zm-8-20.1c2.4 5 .2 11-4.8 13.3-5 2.4-11 .2-13.3-4.8-2.4-5-.2-11 4.8-13.3 5-2.4 11-.2 13.3 4.8zm-10.4-18.9c3 4.7 1.6 10.8-3.1 13.8s-10.8 1.6-13.8-3.1-1.6-10.8 3.1-13.8 10.9-1.6 13.8 3.1zM242.6 349.9c-2.7-.4-4.6-2.9-4.2-5.7.4-2.7 2.9-4.6 5.7-4.2 25.6 3.7 50.7-4.6 69-22.9 18.3-18.3 26.6-43.4 22.9-69-.4-2.7 1.5-5.3 4.2-5.7s5.3 1.5 5.7 4.2c4.2 28.7-5.2 57-25.7 77.5-20.6 20.6-48.8 29.9-77.6 25.8zm20.8 30.4c0 4.1-3.3 7.4-7.4 7.4s-7.4-3.3-7.4-7.4c0-4.1 3.3-7.4 7.4-7.4s7.4 3.3 7.4 7.4zm56.7-184.8c8.8 8.8 15.6 19.2 20.2 30.7.8 1.9.3 4-1.1 5.4-.5.5-1 .9-1.7 1.1-2.6 1-5.5-.2-6.5-2.8-4.1-10.3-10.1-19.5-18-27.4-29.1-29.1-75.3-31.8-107.5-6.3-2.2 1.7-5.3 1.4-7-.8-1.7-2.2-1.4-5.3.8-7 36.2-28.6 88.2-25.6 120.8 7.1zm-71.5-56.3c0-4.1 3.3-7.4 7.4-7.4s7.4 3.3 7.4 7.4c0 4.1-3.3 7.4-7.4 7.4s-7.4-3.3-7.4-7.4zM373 229.5c-3.9 1.3-8.1-.9-9.4-4.8-1.3-3.9.9-8.1 4.8-9.4 3.9-1.3 8.1.9 9.4 4.8 1.2 4-.9 8.2-4.8 9.4zm8.7 6.2c.8 4-1.9 7.9-5.9 8.7s-7.9-1.9-8.7-5.9 1.9-7.9 5.9-8.7 8 1.9 8.7 5.9zm-13.4-20.6c-3.7 1.7-8.2.2-9.9-3.6-1.7-3.7-.2-8.2 3.6-9.9 3.7-1.7 8.2-.2 9.9 3.6 1.7 3.7.1 8.2-3.6 9.9zm-6.5-13.7c-3.5 2.2-8.1 1.2-10.3-2.3-2.2-3.5-1.2-8.1 2.3-10.3s8.1-1.2 10.3 2.3 1.1 8.1-2.3 10.3zm-8.2-12.8c-3.2 2.6-7.9 2.2-10.5-1s-2.2-7.9 1-10.5c3.2-2.6 7.9-2.2 10.5 1 2.6 3.2 2.2 7.9-1 10.5zm-9.6-11.7c-2.8 3-7.5 3.1-10.5.3-3-2.8-3.1-7.5-.3-10.5 2.8-3 7.5-3.1 10.5-.3 2.9 2.8 3.1 7.5.3 10.5zm-11.1-10.3c-2.4 3.3-7.1 4.1-10.4 1.6s-4.1-7.1-1.6-10.4c2.4-3.3 7.1-4.1 10.4-1.6 3.3 2.4 4 7 1.6 10.4zm-12.3-8.9c-2 3.6-6.5 4.9-10.1 2.9-3.6-2-4.9-6.5-2.9-10.1 2-3.6 6.5-4.9 10.1-2.9 3.6 1.9 4.9 6.5 2.9 10.1zm-13.3-7.3c-1.5 3.8-5.8 5.7-9.7 4.2s-5.7-5.8-4.2-9.7 5.8-5.7 9.7-4.2 5.7 5.8 4.2 9.7zm-14.1-5.6c-1 4-5.1 6.4-9.1 5.4s-6.4-5.1-5.4-9.1 5.1-6.4 9.1-5.4c4 1.1 6.4 5.1 5.4 9.1zm-15.3 93c-9.7-9.7-24.9-11.9-36.9-5.2-2.4 1.3-5.5.5-6.8-2-1.3-2.4-.5-5.5 2-6.8 15.9-8.8 36-5.9 48.8 6.9 12.8 12.8 15.7 32.9 6.9 48.8-.2.4-.5.8-.8 1.1-1.5 1.5-4 1.9-6 .8-2.4-1.3-3.3-4.4-2-6.8 6.7-11.9 4.5-27.1-5.2-36.8zm17.9-24.7c-1.6 2.2-4.7 2.8-7 1.2-22.3-16-52.7-13.5-72.2 6-4.8 4.8-8.6 10.3-11.4 16.4-1.1 2.5-4.1 3.6-6.6 2.5-.6-.3-1.1-.6-1.5-1-1.4-1.4-1.9-3.7-1-5.6 3.3-7.2 7.8-13.7 13.4-19.4 22.9-22.9 58.7-25.9 85.1-7 2.3 1.6 2.8 4.7 1.2 6.9zm-75.7 26.8c1.3-2.4 4.4-3.3 6.8-2 2.4 1.3 3.3 4.4 2 6.8-6.6 12-4.5 27.2 5.2 36.9s24.9 11.9 36.9 5.2c2.4-1.3 5.5-.5 6.8 2 1.1 2 .7 4.4-.8 6-.3.3-.7.6-1.1.8-15.9 8.8-36 5.9-48.8-6.9-12.9-12.8-15.8-32.9-7-48.8zm59.4 70.9c6.1-2.8 11.7-6.6 16.4-11.4 19.5-19.5 22-49.8 6-72.2-1.6-2.2-1.1-5.4 1.2-7 2.2-1.6 5.4-1.1 7 1.2 18.9 26.3 15.9 62.1-7 85.1a65.36 65.36 0 0 1-19.4 13.4c-2 .9-4.2.4-5.6-1-.4-.4-.8-.9-1-1.5-1.3-2.5-.2-5.4 2.4-6.6zm-51.6-160.6c-4 1-8-1.4-9.1-5.4-1-4 1.4-8 5.4-9.1 4-1 8 1.4 9.1 5.4.9 4-1.4 8-5.4 9.1zm-13.5 4.3c-3.8 1.5-8.1-.4-9.7-4.2s.4-8.1 4.2-9.7 8.1.4 9.7 4.2-.4 8.2-4.2 9.7zm-10-4c2 3.6.7 8.1-2.9 10.1-3.6 2-8.1.7-10.1-2.9-2-3.6-.7-8.1 2.9-10.1 3.6-2 8.2-.7 10.1 2.9zm-12.2 59.1c-25.5 32.2-22.8 78.4 6.3 107.5 7.9 7.9 17.1 13.9 27.4 18 2.6 1 3.8 3.9 2.8 6.5-.3.7-.6 1.2-1.1 1.7-1.4 1.4-3.5 1.9-5.4 1.1-11.6-4.6-21.9-11.4-30.7-20.2-32.7-32.7-35.7-84.6-7-120.8 1.7-2.2 4.9-2.5 7-.8 2.1 1.7 2.5 4.8.7 7zm-1-51.8c2.4 3.3 1.7 8-1.6 10.4s-8 1.7-10.4-1.6c-2.4-3.3-1.7-8 1.6-10.4 3.3-2.5 7.9-1.7 10.4 1.6zm-12.3 8.9c2.8 3 2.7 7.7-.3 10.5s-7.7 2.7-10.5-.3-2.7-7.7.3-10.5 7.7-2.7 10.5.3zm-11 10.4c3.2 2.6 3.6 7.3 1 10.5s-7.3 3.6-10.5 1-3.6-7.3-1-10.5c2.6-3.1 7.3-3.6 10.5-1zm-9.7 11.7c3.5 2.2 4.5 6.8 2.3 10.3-2.2 3.5-6.8 4.5-10.3 2.3-3.5-2.2-4.5-6.8-2.3-10.3s6.8-4.5 10.3-2.3zm-8.1 12.9c3.7 1.7 5.3 6.2 3.6 9.9-1.8 3.7-6.2 5.3-9.9 3.6-3.7-1.8-5.3-6.2-3.6-9.9 1.7-3.8 6.2-5.4 9.9-3.6zm-6.5 13.7c3.9 1.3 6 5.5 4.8 9.4-1.3 3.9-5.5 6-9.4 4.8s-6-5.5-4.8-9.4c1.3-3.9 5.5-6.1 9.4-4.8zm-4.6 14.4c4 .8 6.7 4.7 5.9 8.7s-4.7 6.7-8.7 5.9-6.7-4.7-5.9-8.7 4.6-6.7 8.7-5.9zm-2.9 14.9c4.1.3 7.2 3.8 7 7.9-.3 4.1-3.8 7.2-7.9 7-4.1-.3-7.2-3.8-7-7.9s3.8-7.2 7.9-7zm-.9 15.2c4.1-.3 7.6 2.9 7.9 7 .3 4.1-2.9 7.6-7 7.9s-7.6-2.9-7.9-7 2.9-7.7 7-7.9zm1 15.1c4-.8 7.9 1.9 8.7 5.9s-1.9 7.9-5.9 8.7-7.9-1.9-8.7-5.9 1.8-7.9 5.9-8.7zm2.8 14.9c3.9-1.3 8.1.9 9.4 4.8 1.3 3.9-.9 8.1-4.8 9.4-3.9 1.3-8.1-.9-9.4-4.8s.9-8.1 4.8-9.4zm4.7 14.4c3.7-1.7 8.2-.2 9.9 3.6 1.7 3.7.2 8.2-3.6 9.9-3.7 1.7-8.2.2-9.9-3.6-1.7-3.7-.1-8.1 3.6-9.9zm6.5 13.7c3.5-2.2 8.1-1.2 10.3 2.3 2.2 3.5 1.2 8.1-2.3 10.3s-8.1 1.2-10.3-2.3-1.1-8.1 2.3-10.3zm8.2 12.8c3.2-2.6 7.9-2.2 10.5 1s2.2 7.9-1 10.5c-3.2 2.6-7.9 2.2-10.5-1-2.6-3.2-2.2-7.8 1-10.5zm9.6 11.7c2.8-3 7.5-3.1 10.5-.3 3 2.8 3.1 7.5.3 10.5-2.8 3-7.5 3.1-10.5.3-2.9-2.8-3.1-7.5-.3-10.5zm11.1 10.4c2.4-3.3 7.1-4.1 10.4-1.6s4.1 7.1 1.6 10.4c-2.4 3.3-7.1 4.1-10.4 1.6-3.3-2.4-4-7.1-1.6-10.4zm12.3 8.9c2-3.6 6.5-4.9 10.1-2.9 3.6 2 4.9 6.5 2.9 10.1-2 3.6-6.5 4.9-10.1 2.9-3.6-2-4.9-6.5-2.9-10.1zm13.3 7.3c1.5-3.8 5.8-5.7 9.7-4.2s5.7 5.8 4.2 9.7-5.8 5.7-9.7 4.2-5.7-5.9-4.2-9.7zm14.1 5.5c1-4 5.1-6.4 9.1-5.4s6.4 5.1 5.4 9.1-5.1 6.4-9.1 5.4-6.4-5.1-5.4-9.1zm-9.2-68.1c-14-14-20.9-33.3-19-53.1.3-2.7 2.7-4.8 5.5-4.5 2.7.3 4.8 2.7 4.5 5.5-1.6 16.7 4.3 33.2 16.1 45s28.3 17.8 45 16.1c2.7-.3 5.2 1.7 5.5 4.5.3 2.7-1.7 5.2-4.5 5.5-19.7 1.9-39.1-5-53.1-19zm74.5 62.8c4-1 8 1.4 9.1 5.4 1 4-1.4 8-5.4 9.1-4 1-8-1.4-9.1-5.4-.9-4 1.4-8.1 5.4-9.1zm13.5-4.4c3.8-1.5 8.1.4 9.7 4.2s-.4 8.1-4.2 9.7-8.1-.4-9.7-4.2.4-8.2 4.2-9.7zm10 4c-2-3.6-.7-8.1 2.9-10.1 3.6-2 8.1-.7 10.1 2.9 2 3.6.7 8.1-2.9 10.1-3.6 2.1-8.2.8-10.1-2.9zm13.2-7.3c-2.4-3.3-1.7-8 1.6-10.4s8-1.7 10.4 1.6c2.4 3.3 1.7 8-1.6 10.4-3.3 2.5-7.9 1.8-10.4-1.6zm12.3-8.9c-2.8-3-2.7-7.7.3-10.5s7.7-2.7 10.5.3 2.7 7.7-.3 10.5-7.7 2.7-10.5-.3zm11-10.4c-3.2-2.6-3.6-7.3-1-10.5s7.3-3.6 10.5-1 3.6 7.3 1 10.5-7.3 3.6-10.5 1zm9.7-11.7c-3.5-2.2-4.5-6.8-2.3-10.3 2.2-3.5 6.8-4.5 10.3-2.3 3.5 2.2 4.5 6.8 2.3 10.3s-6.8 4.5-10.3 2.3zm8.1-12.8c-3.7-1.7-5.3-6.2-3.6-9.9 1.8-3.7 6.2-5.3 9.9-3.6 3.7 1.8 5.3 6.2 3.6 9.9-1.7 3.7-6.2 5.3-9.9 3.6zm6.5-13.7c-3.9-1.3-6-5.5-4.8-9.4 1.3-3.9 5.5-6 9.4-4.8s6 5.5 4.8 9.4-5.5 6-9.4 4.8zm4.6-14.5c-4-.8-6.7-4.7-5.9-8.7s4.7-6.7 8.7-5.9 6.7 4.7 5.9 8.7-4.6 6.7-8.7 5.9zm2.9-14.9c-4.1-.3-7.2-3.8-7-7.9.3-4.1 3.8-7.2 7.9-7 4.1.3 7.2 3.8 7 7.9s-3.8 7.3-7.9 7zm.9-15.1c-4.1.3-7.6-2.9-7.9-7-.3-4.1 2.9-7.6 7-7.9s7.6 2.9 7.9 7-2.9 7.6-7 7.9zm11.7-109.5c3.5 4.3 2.9 10.6-1.3 14.1s-10.6 2.9-14.1-1.3c-3.5-4.3-2.9-10.6 1.3-14.1s10.6-3 14.1 1.3zm-14.8-15.8c4 3.8 4.2 10.1.4 14.1-3.8 4-10.1 4.2-14.1.4-4-3.8-4.2-10.1-.4-14.1 3.8-3.9 10.1-4.1 14.1-.4zm-16.6-13.7c4.5 3.2 5.5 9.5 2.2 14-3.2 4.5-9.5 5.5-14 2.2s-5.5-9.5-2.2-14 9.5-5.5 14-2.2zM338.9 109c4.8 2.7 6.6 8.7 3.9 13.6-2.7 4.8-8.7 6.6-13.6 3.9s-6.6-8.7-3.9-13.6c2.6-4.8 8.7-6.6 13.6-3.9zm-19.6-9.2c5.1 2 7.6 7.8 5.6 13-2 5.1-7.8 7.6-13 5.6-5.1-2-7.6-7.8-5.6-13 2.1-5.1 7.9-7.6 13-5.6zm-20.5-6.7c5.3 1.4 8.6 6.8 7.2 12.2-1.4 5.3-6.8 8.6-12.2 7.2-5.3-1.4-8.6-6.8-7.2-12.2 1.4-5.3 6.8-8.6 12.2-7.2zm-32.4 4.6c.7-5.5 5.7-9.4 11.2-8.7s9.4 5.7 8.7 11.2c-.7 5.5-5.7 9.4-11.2 8.7s-9.4-5.7-8.7-11.2zm5.6 35c4.1.5 7 4.2 6.5 8.3-.5 4.1-4.2 7-8.3 6.5-4.1-.5-7-4.2-6.5-8.3.5-4.1 4.3-7 8.3-6.5zm-16-45c5.5 0 10 4.5 10 10s-4.5 10-10 10-10-4.5-10-10 4.5-10 10-10zm-7.7 51.5c.5 4.1-2.4 7.8-6.5 8.3-4.1.5-7.8-2.4-8.3-6.5-.5-4.1 2.4-7.8 6.5-8.3 4-.5 7.8 2.4 8.3 6.5zm-13.9-50.1c5.5-.7 10.5 3.2 11.2 8.7.7 5.5-3.2 10.5-8.7 11.2s-10.5-3.2-11.2-8.7c-.6-5.5 3.3-10.5 8.7-11.2zm-21.2 4c5.3-1.4 10.8 1.8 12.2 7.2 1.4 5.3-1.8 10.8-7.2 12.2-5.3 1.4-10.8-1.8-12.2-7.2-1.3-5.4 1.9-10.8 7.2-12.2zm-20.5 6.7c5.1-2 10.9.5 13 5.6 2 5.1-.5 10.9-5.6 13-5.1 2-10.9-.5-13-5.6-2.1-5.2.4-11 5.6-13zm-19.6 9.2c4.8-2.7 10.9-.9 13.6 3.9 2.7 4.8.9 10.9-3.9 13.6s-10.9.9-13.6-3.9c-2.7-4.9-.9-10.9 3.9-13.6zm-18.2 11.6c4.5-3.2 10.7-2.3 14 2.2s2.3 10.7-2.2 14-10.7 2.3-14-2.2c-3.3-4.5-2.3-10.8 2.2-14zm-16.6 13.7c4-3.8 10.4-3.6 14.1.4 3.8 4 3.6 10.4-.4 14.1-4 3.8-10.4 3.6-14.1-.4-3.9-4-3.7-10.3.4-14.1zm-14.8 15.8c3.5-4.3 9.8-4.9 14.1-1.3s4.9 9.8 1.3 14.1c-3.5 4.3-9.8 4.9-14.1 1.3s-4.8-9.9-1.3-14.1zm-12.7 17.5c3-4.7 9.1-6 13.8-3.1s6 9.1 3.1 13.8-9.1 6-13.8 3.1-6.1-9.2-3.1-13.8zm-10.4 18.9c2.4-5 8.3-7.1 13.3-4.8 5 2.4 7.1 8.3 4.8 13.3-2.4 5-8.3 7.1-13.3 4.8-5-2.4-7.2-8.3-4.8-13.3zm-8 20.1c1.7-5.3 7.3-8.1 12.6-6.4 5.3 1.7 8.1 7.3 6.4 12.6s-7.3 8.1-12.6 6.4c-5.2-1.7-8.1-7.4-6.4-12.6zM87 227.5c1-5.4 6.3-9 11.7-7.9 5.4 1 9 6.3 7.9 11.7-1 5.4-6.3 9-11.7 7.9-5.3-1-8.9-6.3-7.9-11.7zm-2.7 21.4c.3-5.5 5.1-9.7 10.6-9.4 5.5.3 9.7 5.1 9.4 10.6-.3 5.5-5.1 9.7-10.6 9.4-5.5-.3-9.7-5.1-9.4-10.6zm9.4 11c5.5-.3 10.3 3.8 10.6 9.4.3 5.5-3.8 10.3-9.4 10.6s-10.3-3.8-10.6-9.4c-.3-5.5 3.9-10.2 9.4-10.6zm-6.7 32c-1-5.4 2.5-10.7 7.9-11.7s10.7 2.5 11.7 7.9-2.5 10.7-7.9 11.7c-5.4 1.1-10.6-2.4-11.7-7.9zm5.4 21c-1.7-5.3 1.2-10.9 6.4-12.6 5.3-1.7 10.9 1.2 12.6 6.4s-1.2 10.9-6.4 12.6c-5.2 1.7-10.9-1.2-12.6-6.4zm8 20.1c-2.4-5-.2-11 4.8-13.3 5-2.4 11-.2 13.3 4.8 2.4 5 .2 11-4.8 13.3-5 2.3-11 .2-13.3-4.8zm10.4 18.9c-3-4.7-1.6-10.8 3.1-13.8s10.8-1.6 13.8 3.1 1.6 10.8-3.1 13.8-10.9 1.5-13.8-3.1zm12.7 17.5c-3.5-4.3-2.9-10.6 1.3-14.1s10.6-2.9 14.1 1.3c3.5 4.3 2.9 10.6-1.3 14.1s-10.6 2.9-14.1-1.3zm14.8 15.7c-4-3.8-4.2-10.1-.4-14.1 3.8-4 10.1-4.2 14.1-.4 4 3.8 4.2 10.1.4 14.1-3.8 4-10.1 4.2-14.1.4zm16.6 13.8c-4.5-3.2-5.5-9.5-2.2-14 3.2-4.5 9.5-5.5 14-2.2 4.5 3.2 5.5 9.5 2.2 14s-9.5 5.4-14 2.2zm18.2 11.5c-4.8-2.7-6.6-8.7-3.9-13.6 2.7-4.8 8.7-6.6 13.6-3.9s6.6 8.7 3.9 13.6-8.7 6.6-13.6 3.9zm19.6 9.2c-5.1-2-7.6-7.8-5.6-13 2-5.1 7.8-7.6 13-5.6 5.1 2 7.6 7.8 5.6 13-2.1 5.2-7.9 7.7-13 5.6zm20.5 6.7c-5.3-1.4-8.6-6.8-7.2-12.2 1.4-5.3 6.8-8.6 12.2-7.2 5.3 1.4 8.6 6.8 7.2 12.2-1.4 5.4-6.8 8.6-12.2 7.2zm32.4-4.6c-.7 5.5-5.7 9.4-11.2 8.7s-9.4-5.7-8.7-11.2c.7-5.5 5.7-9.4 11.2-8.7s9.4 5.7 8.7 11.2zm-5.6-35c-4.1-.5-7-4.2-6.5-8.3.5-4.1 4.2-7 8.3-6.5 4.1.5 7 4.2 6.5 8.3-.5 4.1-4.3 7-8.3 6.5zm16 45c-5.5 0-10-4.5-10-10s4.5-10 10-10 10 4.5 10 10-4.5 10-10 10zm7.7-51.4c-.5-4.1 2.4-7.8 6.5-8.3 4.1-.5 7.8 2.4 8.3 6.5.5 4.1-2.4 7.8-6.5 8.3-4 .4-7.8-2.5-8.3-6.5zm13.9 50.1c-5.5.7-10.5-3.2-11.2-8.7-.7-5.5 3.2-10.5 8.7-11.2s10.5 3.2 11.2 8.7c.6 5.5-3.3 10.5-8.7 11.2zm21.2-4.1c-5.3 1.4-10.8-1.8-12.2-7.2-1.4-5.3 1.8-10.8 7.2-12.2 5.3-1.4 10.8 1.8 12.2 7.2 1.3 5.4-1.9 10.8-7.2 12.2zm20.5-6.7c-5.1 2-10.9-.5-13-5.6-2-5.1.5-10.9 5.6-13 5.1-2 10.9.5 13 5.6 2.1 5.2-.4 11-5.6 13zm19.6-9.2c-4.8 2.7-10.9.9-13.6-3.9s-.9-10.9 3.9-13.6 10.9-.9 13.6 3.9c2.7 4.9.9 11-3.9 13.6zm18.2-11.5c-4.5 3.2-10.7 2.3-14-2.2s-2.3-10.7 2.2-14c4.5-3.2 10.7-2.3 14 2.2 3.3 4.5 2.3 10.7-2.2 14zm16.6-13.8c-4 3.8-10.4 3.6-14.1-.4-3.8-4-3.6-10.4.4-14.1 4-3.8 10.4-3.6 14.1.4 3.9 4 3.7 10.3-.4 14.1zm14.8-15.7c-3.5 4.3-9.8 4.9-14.1 1.3s-4.9-9.8-1.3-14.1c3.5-4.3 9.8-4.9 14.1-1.3s4.8 9.8 1.3 14.1zm12.7-17.5c-3 4.7-9.1 6-13.8 3.1s-6-9.1-3.1-13.8 9.1-6 13.8-3.1 6.1 9.1 3.1 13.8zm10.4-18.9c-2.4 5-8.3 7.1-13.3 4.8-5-2.4-7.1-8.3-4.8-13.3 2.4-5 8.3-7.1 13.3-4.8s7.2 8.3 4.8 13.3zm8-20.1c-1.7 5.3-7.3 8.1-12.6 6.4-5.3-1.7-8.1-7.3-6.4-12.6s7.3-8.1 12.6-6.4c5.2 1.7 8.1 7.3 6.4 12.6zm5.4-21c-1 5.4-6.3 9-11.7 7.9-5.4-1-9-6.3-7.9-11.7 1-5.4 6.3-9 11.7-7.9 5.3 1.1 8.9 6.3 7.9 11.7zm2.7-21.4c-.3 5.5-5.1 9.7-10.6 9.4s-9.7-5.1-9.4-10.6c.3-5.5 5.1-9.7 10.6-9.4 5.5.4 9.7 5.1 9.4 10.6zm-9.4-11c-5.5.3-10.3-3.8-10.6-9.4-.3-5.5 3.8-10.3 9.4-10.6 5.5-.3 10.3 3.8 10.6 9.4.3 5.5-3.9 10.3-9.4 10.6z" fill="#36434f"/></svg>