<svg version="1.1" xmlns="http://www.w3.org/2000/svg" x="0" y="0" viewBox="0 0 512 512" xml:space="preserve"><path d="M511.6 261.4c-.4-1.6-.7-3.4-.7-5.3s.2-3.7.7-5.3c1.7-5.9-1.5-12.1-7.4-14.3-2.6-1-5.3-1.5-8.2-1.5-4.3 0-19.2 9-33.8 11-11.3 1.6-23.2 2.3-33.3 3.2-.2-5.3-.6-10.6-1.3-15.8l9.6-1.5c1.2 1.1 2.8 1.7 4.6 1.7 3.9 0 7-3.1 7-7s-3.1-7-7-7c-2.5 0-4.7 1.4-6 3.4l-9.6 1.5c-1-5.2-2.1-10.3-3.5-15.3 9.9-2.4 21.4-5.3 32.5-7.4 14.6-2.6 31.5 1.3 35.6 0 2.7-.9 5.2-2.2 7.3-3.9 5-3.9 6-10.8 2.6-15.8-.9-1.4-1.7-3-2.3-4.8-.6-1.8-.9-3.5-.9-5.2-.2-6.1-5.1-11-11.4-11.3-2.7-.1-5.5.2-8.2 1.1-4.1 1.3-15.5 14.5-28.8 20.9-10.1 4.9-21.2 9.2-30.7 13.1-1.8-4.9-3.9-9.7-6.1-14.4l8.6-4.4c.8.4 1.8.6 2.7.6 3.9 0 7-3.1 7-7s-3.1-7-7-7c-3.3 0-6.1 2.3-6.8 5.4l-8.6 4.4c-2.5-4.6-5.2-9.1-8.1-13.4 8.6-5.3 18.7-11.8 28.7-17.1 13-7 30.3-8.5 33.8-11 2.3-1.7 4.2-3.7 5.7-6 3.5-5.3 2.4-12.2-2.4-15.9-1.3-1-2.6-2.3-3.7-3.8s-1.9-3.1-2.5-4.7c-2-5.7-8.2-8.9-14.3-7.2-2.6.7-5.2 1.9-7.5 3.6-3.5 2.6-10.2 18.6-20.9 28.8-8.2 7.9-17.4 15.4-25.1 22.1-3.3-4.1-6.7-8.1-10.3-11.9l6.8-6.8h.6c3.9 0 7-3.1 7-7s-3.1-7-7-7-7 3.1-7 7v.6l-6.8 6.8c-3.8-3.6-7.8-7-11.9-10.3 6.6-7.7 14.2-17 22-25.2 10.2-10.6 26.3-17.4 28.8-20.9 1.7-2.4 2.9-4.9 3.6-7.5 1.7-6.1-1.5-12.3-7.2-14.3-1.6-.6-3.2-1.4-4.7-2.5s-2.8-2.4-3.8-3.7c-3.7-4.8-10.6-5.9-15.9-2.4-2.3 1.4-4.3 3.4-6 5.7-2.5 3.5-4 20.8-11 33.8-5.4 10-11.8 20.1-17.1 28.8-4.4-2.9-8.9-5.7-13.5-8.2l4.4-8.6c3.1-.7 5.5-3.5 5.5-6.8 0-3.9-3.1-7-7-7s-7 3.1-7 7c0 .9.2 1.8.5 2.7l-4.4 8.7c-4.7-2.3-9.6-4.3-14.6-6.2 4-9.4 8.3-20.6 13.3-30.8 6.4-13.3 19.6-24.7 20.9-28.8.9-2.7 1.2-5.5 1.1-8.2-.3-6.3-5.2-11.2-11.3-11.4-1.6 0-3.4-.3-5.2-.9-1.8-.6-3.4-1.4-4.8-2.3-5-3.4-11.8-2.4-15.8 2.6-1.7 2.1-3 4.6-3.9 7.3-1.3 4.1 2.6 21.1 0 35.6-2 11.2-5 22.9-7.5 32.6-5-1.4-10-2.6-15.2-3.5l1.5-9.6c2-1.2 3.4-3.4 3.4-6 0-3.9-3.1-7-7-7s-7 3.1-7 7c0 1.8.7 3.4 1.7 4.6l-1.5 9.6c-5.1-.7-10.4-1.1-15.6-1.3.8-10.1 1.5-22.1 3-33.4 2-14.6 11-29.5 11-33.8 0-2.9-.5-5.6-1.5-8.2-2.2-5.9-8.4-9.1-14.3-7.4-1.6.5-3.4.7-5.3.7s-3.7-.3-5.3-.7c-5.8-1.7-12 1.4-14.3 7.4-1 2.5-1.5 5.3-1.5 8.2 0 4.3 9 19.2 11 33.8 1.6 11.2 2.3 23.2 3 33.4-5.2.2-10.4.7-15.5 1.3l-1.5-9.5c1.1-1.2 1.8-2.9 1.8-4.6 0-3.9-3.1-7-7-7s-7 3.1-7 7c0 2.5 1.3 4.7 3.3 5.9l1.5 9.6c-5.1.9-10.2 2.1-15.1 3.5-2.5-9.7-5.5-21.4-7.5-32.6-2.6-14.5 1.3-31.5 0-35.6-.9-2.7-2.2-5.2-3.9-7.3-4-5-10.8-6-15.8-2.6-1.4.9-3 1.7-4.8 2.3-1.8.6-3.6.9-5.2.9-6.1.2-11 5.1-11.3 11.4-.1 2.7.2 5.5 1.1 8.2 1.3 4.1 14.5 15.5 20.9 28.8 5 10.2 9.3 21.3 13.3 30.8-5 1.8-9.8 3.9-14.5 6.1l-4.4-8.7c.3-.8.5-1.7.5-2.6 0-3.9-3.1-7-7-7s-7 3.1-7 7c0 3.4 2.4 6.2 5.5 6.8l4.4 8.6c-4.6 2.5-9.2 5.3-13.5 8.2-5.2-8.6-11.7-18.8-17.1-28.8-7-13-8.4-30.3-11-33.8-1.7-2.3-3.7-4.3-6-5.7-5.3-3.5-12.2-2.4-15.9 2.4-1 1.3-2.3 2.6-3.8 3.7s-3.1 1.9-4.7 2.5c-5.7 2-8.9 8.2-7.2 14.3.7 2.6 1.9 5.1 3.6 7.5 2.5 3.5 18.6 10.3 28.8 20.9 7.9 8.2 15.5 17.5 22 25.2a145 145 0 00-11.8 10.3l-6.8-6.8v-.6c0-3.9-3.1-7-7-7s-7 3.1-7 7 3.1 7 7 7h.6l6.8 6.8c-3.6 3.8-7.1 7.8-10.3 11.9-7.7-6.7-17-14.2-25.1-22.1-10.7-10.2-17.4-26.2-20.9-28.8-2.3-1.7-4.9-2.9-7.5-3.6-6.1-1.7-12.3 1.5-14.3 7.2-.6 1.6-1.4 3.2-2.5 4.7s-2.4 2.8-3.7 3.8c-4.8 3.7-5.9 10.6-2.4 15.9 1.5 2.3 3.4 4.3 5.7 6 3.5 2.5 20.8 4 33.8 11 10 5.3 20.1 11.8 28.7 17.1-2.9 4.4-5.6 8.8-8.1 13.5l-8.6-4.4c-.7-3.2-3.5-5.5-6.8-5.5-3.9 0-7 3.1-7 7s3.1 7 7 7c.9 0 1.8-.2 2.6-.5l8.7 4.4c-2.2 4.6-4.2 9.4-6 14.3-9.6-3.8-20.6-8.1-30.8-13-13.3-6.4-24.7-19.6-28.8-20.9-2.7-.9-5.5-1.2-8.2-1.1-6.4.1-11.3 5.1-11.5 11.1 0 1.7-.3 3.4-.9 5.2-.6 1.8-1.4 3.4-2.3 4.8C8 187 9 193.9 14 197.8c2.1 1.7 4.6 3 7.3 3.9 4.1 1.3 21-2.6 35.6 0 11.1 2 22.7 5 32.5 7.4-1.4 5.1-2.6 10.2-3.6 15.4l-9.6-1.5c-1.2-2-3.4-3.4-6-3.4-3.9 0-7 3.1-7 7s3.1 7 7 7c1.8 0 3.4-.7 4.6-1.7l9.6 1.5c-.7 5.2-1.1 10.5-1.3 15.8-10.1-1-22.1-1.7-33.3-3.2-14.6-2-29.5-11-33.8-11-2.9 0-5.6.5-8.2 1.5-5.9 2.2-9.1 8.4-7.4 14.3.5 1.6.7 3.4.7 5.3s-.3 3.7-.7 5.3c-1.7 5.8 1.4 12 7.4 14.3 2.5 1 5.3 1.5 8.2 1.5 4.3 0 19.2-9 33.8-11 11.2-1.6 23.2-2.3 33.4-3 .2 5.2.6 10.4 1.3 15.5l-9.6 1.5c-1.2-1.1-2.8-1.7-4.6-1.7-3.9 0-7 3.1-7 7s3.1 7 7 7c2.5 0 4.7-1.3 6-3.4l9.6-1.5c.9 5.1 2.1 10.2 3.5 15.2-9.7 2.5-21.4 5.5-32.6 7.5-14.5 2.6-31.5-1.3-35.6 0-2.7.9-5.2 2.2-7.3 3.9-5 4-6 10.8-2.6 15.8.9 1.4 1.7 3 2.3 4.8.6 1.8.9 3.6.9 5.2.2 6.1 5.1 11 11.4 11.3 2.7.1 5.5-.2 8.2-1.1 4.1-1.3 15.5-14.5 28.8-20.9 10.2-5 21.3-9.3 30.8-13.3 1.8 5 3.9 9.9 6.2 14.6l-8.6 4.4c-.8-.4-1.8-.5-2.7-.5-3.9 0-7 3.1-7 7s3.1 7 7 7c3.3 0 6.1-2.3 6.8-5.4l8.6-4.4c2.5 4.6 5.2 9.1 8.1 13.5-8.6 5.2-18.8 11.7-28.8 17.1-13 7-30.3 8.4-33.8 11-2.3 1.7-4.3 3.7-5.7 6-3.5 5.3-2.4 12.2 2.4 15.9 1.3 1 2.6 2.3 3.7 3.8s1.9 3.1 2.5 4.7c2 5.7 8.2 8.9 14.3 7.2 2.6-.7 5.1-1.9 7.5-3.6 3.5-2.5 10.3-18.6 20.9-28.8 8.2-7.9 17.5-15.5 25.2-22a145 145 0 0010.3 11.8l-6.8 6.8h-.6c-3.9 0-7 3.1-7 7s3.1 7 7 7 7-3.1 7-7v-.6l6.8-6.8c3.8 3.6 7.8 7.1 11.9 10.3-6.7 7.7-14.2 17-22.1 25.1-10.2 10.7-26.2 17.4-28.8 20.9-1.7 2.3-2.9 4.9-3.6 7.5-1.7 6.1 1.5 12.3 7.2 14.3 1.6.6 3.2 1.4 4.7 2.5s2.8 2.4 3.8 3.7c3.7 4.8 10.6 5.9 15.9 2.4 2.3-1.5 4.3-3.4 6-5.7 2.5-3.5 4-20.8 11-33.8 5.3-10 11.8-20.1 17.1-28.7 4.3 2.9 8.8 5.6 13.4 8.1l-4.4 8.6c-3.1.7-5.4 3.5-5.4 6.8 0 3.9 3.1 7 7 7s7-3.1 7-7c0-1-.2-1.9-.5-2.7l4.4-8.6c4.7 2.2 9.5 4.3 14.4 6.1-3.9 9.6-8.2 20.6-13.1 30.7-6.4 13.3-19.6 24.7-20.9 28.8-.9 2.7-1.2 5.5-1.1 8.2.3 6.3 5.2 11.2 11.3 11.4 1.7 0 3.4.3 5.2.9 1.8.6 3.4 1.4 4.8 2.3 5 3.4 11.9 2.4 15.8-2.6 1.7-2.1 3-4.6 3.9-7.3 1.3-4.1-2.6-21 0-35.6 2-11.1 5-22.6 7.4-32.5 5 1.4 10.2 2.6 15.4 3.6l-1.5 9.6c-2 1.2-3.4 3.5-3.4 6 0 3.9 3.1 7 7 7s7-3.1 7-7c0-1.7-.6-3.3-1.7-4.6l1.5-9.6c5.1.7 10.2 1.1 15.4 1.3-.8 10.1-1.5 22.2-3 33.4-2 14.6-11 29.5-11 33.8 0 2.9.5 5.7 1.5 8.2 2.3 6 8.5 9.1 14.3 7.4 1.6-.4 3.4-.7 5.3-.7s3.7.2 5.3.7c5.9 1.7 12.1-1.5 14.3-7.4 1-2.6 1.5-5.3 1.5-8.2 0-4.3-9-19.2-11-33.8-1.6-11.3-2.3-23.2-3-33.4 5.3-.2 10.5-.6 15.6-1.3l1.5 9.6c-1.1 1.2-1.7 2.8-1.7 4.6 0 3.9 3.1 7 7 7s7-3.1 7-7c0-2.5-1.4-4.8-3.4-6l-1.5-9.6c5.2-1 10.3-2.1 15.4-3.6 2.4 9.9 5.3 21.4 7.4 32.5 2.6 14.6-1.3 31.5 0 35.6.9 2.7 2.2 5.2 3.9 7.3 3.9 5 10.8 6 15.8 2.6 1.4-.9 3-1.7 4.8-2.3 1.8-.6 3.5-.9 5.2-.9 6.1-.2 11-5.1 11.3-11.4.1-2.7-.2-5.5-1.1-8.2-1.3-4.1-14.5-15.5-20.9-28.8-4.9-10.1-9.2-21.2-13.1-30.7 4.9-1.8 9.7-3.9 14.4-6.1l4.4 8.6c-.3.8-.5 1.7-.5 2.7 0 3.9 3.1 7 7 7s7-3.1 7-7c0-3.3-2.3-6.1-5.5-6.8l-4.4-8.6c4.6-2.5 9.1-5.2 13.4-8.1 5.3 8.6 11.8 18.7 17.1 28.7 7 13 8.5 30.3 11 33.8 1.7 2.3 3.7 4.2 6 5.7 5.3 3.5 12.2 2.4 15.9-2.4 1-1.3 2.3-2.6 3.8-3.7s3.1-1.9 4.7-2.5c5.7-2 8.9-8.2 7.2-14.3-.7-2.6-1.9-5.2-3.6-7.5-2.6-3.5-18.6-10.2-28.8-20.9-7.9-8.2-15.4-17.4-22.1-25.1 4.1-3.3 8.1-6.7 11.9-10.3l6.8 6.8v.6c0 3.9 3.1 7 7 7s7-3.1 7-7-3.1-7-7-7h-.6l-6.8-6.8c3.6-3.8 7-7.8 10.3-11.9 7.7 6.6 17 14.2 25.2 22 10.6 10.2 17.4 26.3 20.9 28.8 2.4 1.7 4.9 2.9 7.5 3.6 6.1 1.7 12.3-1.5 14.3-7.2.6-1.6 1.4-3.2 2.5-4.7s2.4-2.8 3.7-3.8c4.8-3.7 5.9-10.6 2.4-15.9-1.4-2.3-3.4-4.3-5.7-6-3.5-2.6-20.8-4-33.8-11-10-5.4-20.1-11.8-28.8-17.1 2.9-4.4 5.7-8.9 8.2-13.5l8.6 4.4c.7 3.2 3.5 5.5 6.8 5.5 3.9 0 7-3.1 7-7s-3.1-7-7-7c-.9 0-1.8.2-2.6.5l-8.7-4.4c2.3-4.7 4.3-9.6 6.1-14.5 9.4 4 20.6 8.3 30.8 13.3 13.3 6.4 24.7 19.6 28.8 20.9 2.7.9 5.5 1.2 8.2 1.1 6.3-.3 11.2-5.2 11.4-11.3 0-1.6.3-3.4.9-5.2s1.4-3.4 2.3-4.8c3.4-5 2.4-11.8-2.6-15.8-2.1-1.7-4.6-3-7.3-3.9-4.1-1.3-21.1 2.6-35.6 0-11.2-2-22.9-5-32.6-7.5 1.4-5 2.6-10.1 3.5-15.2l9.6 1.5c1.2 2 3.5 3.4 6 3.4 3.9 0 7-3.1 7-7s-3.1-7-7-7c-1.7 0-3.3.6-4.6 1.7l-9.6-1.5c.7-5.1 1.1-10.2 1.3-15.4 10.1.8 22.2 1.5 33.4 3 14.6 2 29.5 11 33.8 11 2.9 0 5.7-.5 8.2-1.5 5.7-2.5 8.8-8.7 7.1-14.5z" fill="#36434f"/></svg>