<svg version="1.1" xmlns="http://www.w3.org/2000/svg" x="0" y="0" viewBox="0 0 512 512" xml:space="preserve"><path d="M94.3 66.7c-1.7-6.1 1.5-12.3 7.2-14.3 1.6-.6 3.2-1.4 4.7-2.5s2.8-2.4 3.8-3.7c3.7-4.8 10.6-5.9 15.9-2.4 2.3 1.5 4.3 3.4 6 5.7 2.5 3.5 4 20.8 11 33.8 5.5 10.3 12.2 20.7 17.6 29.5 3.3 5.4 6 10.2 7.8 14.1l.1-.1c1.3-1 3.2-.7 4.2.7l1.2 1.6c1 1.3.7 3.2-.7 4.2l-8.1 5.9c-1.3 1-3.2.7-4.2-.7l-1.2-1.6c-1-1.3-.7-3.2.7-4.2l.1-.1c-3.2-2.8-6.9-7-11-11.7-6.8-7.9-14.6-17.4-22.6-25.8-10.2-10.7-26.2-17.4-28.8-20.9-1.8-2.4-3-4.9-3.7-7.5zm85.1 54.4c1.8 3.4 6 4.8 9.4 3.1 3.4-1.8 4.8-6 3.1-9.4-1-1.9-2.7-3.2-4.7-3.6l-10.1-19.9c.8-1.8.8-4-.2-5.9-1.8-3.4-6-4.8-9.4-3.1s-4.8 6-3.1 9.4c1 1.9 2.7 3.2 4.7 3.6l10.1 19.9c-.8 1.8-.8 4 .2 5.9zm3.4-58.1c5.1 10.5 9.5 22 13.6 31.6 2.4 5.8 4.7 10.9 6.8 14.5h-.1c-1.6.5-2.4 2.2-1.9 3.8l.6 1.9c.5 1.6 2.2 2.4 3.8 1.9l9.5-3.1c1.6-.5 2.4-2.2 1.9-3.8l-.6-1.9c-.5-1.6-2.2-2.4-3.8-1.9h-.1c-.4-4.2-1.6-9.7-3-15.8-2.4-10.1-5.5-22-7.6-33.5-2.6-14.5 1.3-31.5 0-35.6-.9-2.7-2.2-5.2-3.9-7.3-4-5-10.8-6-15.8-2.6-1.4.9-3 1.7-4.8 2.3s-3.6.9-5.2.9c-6.1.2-11 5.1-11.3 11.4-.1 2.7.2 5.5 1.1 8.2 1.2 4.4 14.3 15.7 20.8 29zM63.4 225.5c-.6 3.8 2 7.4 5.8 8 2.1.3 4.2-.3 5.7-1.6l22 3.5c1 1.7 2.8 3 4.9 3.3 3.8.6 7.4-2 8-5.8.6-3.8-2-7.4-5.8-8-2.1-.3-4.2.3-5.7 1.6l-22-3.5c-1-1.7-2.8-3-4.9-3.3-3.8-.6-7.4 2-8 5.8zM128 118.1c-2.7-2.7-7.2-2.7-9.9 0s-2.7 7.2 0 9.9c1.5 1.5 3.6 2.2 5.6 2l15.8 15.8c-.2 2 .5 4 2 5.6 2.7 2.7 7.2 2.7 9.9 0s2.7-7.2 0-9.9c-1.5-1.5-3.6-2.2-5.6-2L130 123.7c.2-2-.5-4.1-2-5.6zM13.9 197.9c2.1 1.7 4.6 3 7.3 3.9 4.1 1.3 21-2.6 35.6 0 11.5 2.1 23.4 5.2 33.5 7.6 6.1 1.4 11.5 2.6 15.8 3v.1c-.5 1.6.4 3.3 1.9 3.8l1.9.6c1.6.5 3.3-.4 3.8-1.9l3.1-9.5c.5-1.6-.4-3.3-1.9-3.8l-1.9-.6c-1.6-.5-3.3.4-3.8 1.9v.1c-3.7-2.1-8.7-4.4-14.5-6.8-9.6-4-21.1-8.5-31.6-13.6-13.3-6.4-24.7-19.6-28.8-20.9-2.7-.9-5.5-1.2-8.2-1.1-6.4.3-11.3 5.3-11.5 11.3 0 1.7-.3 3.4-.9 5.2s-1.4 3.4-2.3 4.8c-3.5 5-2.4 11.9 2.5 15.9zm68.4-30.4c-1.8 3.4-.4 7.7 3.1 9.4 1.9 1 4.1 1 5.9.2l19.9 10.1c.5 1.9 1.7 3.7 3.6 4.7 3.4 1.8 7.7.4 9.4-3.1 1.8-3.4.4-7.7-3.1-9.4-1.9-1-4.1-1-5.9-.2l-19.9-10.1c-.5-1.9-1.7-3.7-3.6-4.7-3.5-1.7-7.7-.4-9.4 3.1zm-32.8-35.6c3.5 2.5 20.8 4 33.8 11 10.3 5.5 20.7 12.2 29.5 17.6 5.4 3.3 10.2 6 14.1 7.8l-.1.1c-1 1.3-.7 3.2.7 4.2l1.6 1.2c1.3 1 3.2.7 4.2-.7l5.9-8.1c1-1.3.7-3.2-.7-4.2l-1.6-1.2c-1.3-1-3.2-.7-4.2.7l-.1.1c-2.8-3.2-7-6.9-11.7-11-7.9-6.8-17.4-14.6-25.8-22.6-10.7-10.2-17.4-26.2-20.9-28.8-2.3-1.7-4.9-2.9-7.5-3.6-6.1-1.7-12.3 1.5-14.3 7.2-.6 1.6-1.4 3.2-2.5 4.7s-2.4 2.8-3.7 3.8c-4.8 3.7-5.9 10.6-2.4 15.9 1.4 2.2 3.4 4.2 5.7 5.9zm.3 134.1c11.5-1.6 23.9-2.3 34.2-3.1 6.3-.5 11.8-1.1 15.9-2v.1c0 1.7 1.3 3 3 3h2c1.7 0 3-1.3 3-3v-10c0-1.7-1.3-3-3-3h-2c-1.7 0-3 1.3-3 3v.1c-4.2-.9-9.7-1.5-15.9-2-10.3-.9-22.7-1.5-34.2-3.1-14.6-2-29.5-11-33.8-11-2.9 0-5.6.5-8.2 1.5-5.9 2.2-9.1 8.4-7.4 14.3.5 1.6.7 3.4.7 5.3s-.3 3.7-.7 5.3c-1.7 5.8 1.4 12 7.4 14.3 2.5 1 5.3 1.5 8.2 1.5 4.3-.2 19.2-9.2 33.8-11.2zm390.8-46.3c-2.1.3-3.9 1.6-4.9 3.3l-22 3.5c-1.5-1.3-3.6-2-5.7-1.6-3.8.6-6.4 4.2-5.8 8 .6 3.8 4.2 6.4 8 5.8 2.1-.3 3.9-1.6 4.9-3.3l22-3.5c1.5 1.3 3.6 2 5.7 1.6 3.8-.6 6.4-4.2 5.8-8-.6-3.8-4.2-6.4-8-5.8zm-13.9-42.8c3.4-1.8 4.8-6 3.1-9.4-1.8-3.4-6-4.8-9.4-3.1-1.9 1-3.2 2.7-3.6 4.7l-19.9 10.1c-1.8-.8-4-.8-5.9.2-3.4 1.8-4.8 6-3.1 9.4s6 4.8 9.4 3.1c1.9-1 3.2-2.7 3.6-4.7l19.9-10.1c1.8.8 4 .8 5.9-.2zm-9.8-50.2c-8.4 8.1-18 15.9-25.8 22.6-4.8 4.1-8.9 7.8-11.7 11l-.1-.1c-1-1.3-2.8-1.6-4.2-.7l-1.6 1.2c-1.3 1-1.6 2.8-.7 4.2l5.9 8.1c1 1.3 2.8 1.6 4.2.7l1.6-1.2c1.3-1 1.6-2.8.7-4.2l-.1-.1c3.9-1.7 8.7-4.5 14.1-7.8 8.9-5.4 19.3-12.1 29.5-17.6 13-7 30.3-8.5 33.8-11 2.3-1.7 4.3-3.7 5.7-6 3.5-5.3 2.4-12.2-2.4-15.9-1.3-1-2.6-2.3-3.7-3.8s-1.9-3.1-2.5-4.7c-2-5.7-8.2-8.9-14.3-7.2-2.6.7-5.1 1.9-7.5 3.6-3.5 2.7-10.2 18.7-20.9 28.9zm.5 69.6c-5.8 2.4-10.9 4.7-14.5 6.8v-.1c-.5-1.6-2.2-2.4-3.8-1.9l-1.9.6c-1.6.5-2.4 2.2-1.9 3.8l3.1 9.5c.5 1.6 2.2 2.4 3.8 1.9l1.9-.6c1.6-.5 2.4-2.2 1.9-3.8v-.1c4.2-.4 9.7-1.6 15.8-3 10.1-2.4 22-5.5 33.5-7.6 14.5-2.6 31.5 1.3 35.6 0 2.7-.9 5.2-2.2 7.3-3.9 5-4 6-10.8 2.6-15.8-.9-1.4-1.7-3-2.3-4.8s-.9-3.6-.9-5.2c-.2-6.1-5.1-11-11.4-11.3-2.7-.1-5.5.2-8.2 1.1-4.1 1.3-15.5 14.5-28.8 20.9-10.7 5.1-22.2 9.5-31.8 13.5zm-354 90.2c.6 3.8 4.2 6.4 8 5.8 2.1-.3 3.9-1.6 4.9-3.3l22-3.5c1.5 1.3 3.6 2 5.7 1.6 3.8-.6 6.4-4.2 5.8-8-.6-3.8-4.2-6.4-8-5.8-2.1.3-3.9 1.6-4.9 3.3l-22 3.5c-1.5-1.3-3.6-2-5.7-1.6-3.8.6-6.4 4.2-5.8 8zM347.6 91.7c1.8-3.4.4-7.7-3.1-9.4s-7.7-.4-9.4 3.1c-1 1.9-1 4.1-.2 5.9l-10.1 19.9c-1.9.5-3.7 1.7-4.7 3.6-1.8 3.4-.4 7.7 3.1 9.4s7.7.4 9.4-3.1c1-1.9 1-4.1.2-5.9l10.1-19.9c2-.4 3.7-1.7 4.7-3.6zm46.3 36.3c2.7-2.7 2.7-7.2 0-9.9s-7.2-2.7-9.9 0c-1.5 1.5-2.2 3.6-2 5.6l-15.8 15.8c-2-.2-4 .5-5.6 2-2.7 2.7-2.7 7.2 0 9.9s7.2 2.7 9.9 0c1.5-1.5 2.2-3.6 2-5.6l15.8-15.8c2 .2 4.1-.5 5.6-2zM249.1 84.1c.5 6.3 1.1 11.8 2 15.9h-.1c-1.7 0-3 1.3-3 3v2c0 1.7 1.3 3 3 3h10c1.7 0 3-1.3 3-3v-2c0-1.7-1.3-3-3-3h-.1c.9-4.2 1.5-9.7 2-15.9.9-10.3 1.5-22.7 3.1-34.2 2-14.6 11-29.5 11-33.8 0-2.9-.5-5.6-1.5-8.2-2.2-5.9-8.4-9.1-14.3-7.4-1.6.5-3.4.7-5.3.7s-3.7-.3-5.3-.7c-5.8-1.7-12 1.4-14.3 7.4-1 2.5-1.5 5.3-1.5 8.2 0 4.3 9 19.2 11 33.8 1.8 11.5 2.5 23.8 3.3 34.2zm27.5 12.8c-1.7 1-3 2.8-3.3 4.9-.6 3.8 2 7.4 5.8 8 3.8.6 7.4-2 8-5.8.3-2.1-.3-4.2-1.6-5.7l3.5-22c1.7-1 3-2.8 3.3-4.9.6-3.8-2-7.4-5.8-8-3.8-.6-7.4 2-8 5.8-.3 2.1.3 4.2 1.6 5.7l-3.5 22zm67 30c-1.3-1-3.2-.7-4.2.7l-1.2 1.6c-1 1.3-.7 3.2.7 4.2l8.1 5.9c1.3 1 3.2.7 4.2-.7l1.2-1.6c1-1.3.7-3.2-.7-4.2l-.1-.1c3.2-2.8 6.9-7 11-11.7 6.8-7.9 14.6-17.4 22.6-25.8 10.2-10.7 26.2-17.4 28.8-20.9 1.7-2.3 2.9-4.9 3.6-7.5 1.7-6.1-1.5-12.3-7.2-14.3-1.6-.6-3.2-1.4-4.7-2.5s-2.8-2.4-3.8-3.7c-3.7-4.8-10.6-5.9-15.9-2.4-2.3 1.5-4.3 3.4-6 5.7-2.5 3.5-4 20.8-11 33.8-5.5 10.3-12.2 20.7-17.6 29.5-3.2 5.3-5.9 10.1-7.8 14zM295.7 108l-.6 1.9c-.5 1.6.4 3.3 1.9 3.8l9.5 3.1c1.6.5 3.3-.4 3.8-1.9l.6-1.9c.5-1.6-.4-3.3-1.9-3.8h-.1c2.1-3.7 4.4-8.7 6.8-14.5 4-9.6 8.5-21.1 13.6-31.6 6.4-13.3 19.6-24.7 20.9-28.8.9-2.7 1.2-5.5 1.1-8.2-.3-6.4-5.3-11.3-11.3-11.5-1.7 0-3.4-.3-5.2-.9-1.8-.6-3.4-1.4-4.8-2.3C325 8 318.1 9 314.2 14c-1.7 2.1-3 4.6-3.9 7.3-1.3 4.1 2.6 21 0 35.6-2.1 11.5-5.2 23.4-7.6 33.5-1.4 6.1-2.6 11.5-3 15.8h-.1c-1.7-.6-3.4.2-3.9 1.8zM223 76.3l3.5 22c-1.3 1.5-2 3.6-1.6 5.7.6 3.8 4.2 6.4 8 5.8 3.8-.6 6.4-4.2 5.8-8-.3-2.1-1.6-3.9-3.3-4.9l-3.5-22c1.3-1.5 2-3.6 1.6-5.7-.6-3.8-4.2-6.4-8-5.8-3.8.6-6.4 4.2-5.8 8 .3 2.1 1.6 3.9 3.3 4.9zM329.2 449c-5.1-10.5-9.5-22-13.6-31.6-2.4-5.8-4.7-10.9-6.8-14.5h.1c1.6-.5 2.4-2.2 1.9-3.8l-.6-1.9c-.5-1.6-2.2-2.4-3.8-1.9l-9.5 3.1c-1.6.5-2.4 2.2-1.9 3.8l.6 1.9c.5 1.6 2.2 2.4 3.8 1.9h.1c.4 4.2 1.6 9.7 3 15.8 2.4 10.1 5.5 22 7.6 33.5 2.6 14.5-1.3 31.5 0 35.6.9 2.7 2.2 5.2 3.9 7.3 4 5 10.8 6 15.8 2.6 1.4-.9 3-1.7 4.8-2.3 1.8-.6 3.6-.9 5.2-.9 6.1-.2 11-5.1 11.3-11.4.1-2.7-.2-5.5-1.1-8.2-1.2-4.4-14.3-15.7-20.8-29zm133.3-68.9c-3.5-2.5-20.8-4-33.8-11-10.3-5.5-20.7-12.2-29.5-17.6-5.4-3.3-10.2-6-14.1-7.8l.1-.1c1-1.3.7-3.2-.7-4.2l-1.6-1.2c-1.3-1-3.2-.7-4.2.7l-5.9 8.1c-1 1.3-.7 3.2.7 4.2l1.6 1.2c1.3 1 3.2.7 4.2-.7l.1-.1c2.8 3.2 7 6.9 11.7 11 7.9 6.8 17.4 14.6 25.8 22.6 10.7 10.2 17.4 26.2 20.9 28.8 2.3 1.7 4.9 2.9 7.5 3.6 6.1 1.7 12.3-1.5 14.3-7.2.6-1.6 1.4-3.2 2.5-4.7s2.4-2.8 3.7-3.8c4.8-3.7 5.9-10.6 2.4-15.9-1.4-2.2-3.4-4.2-5.7-5.9zM510.8 256c0-1.9.3-3.7.7-5.3 1.7-5.8-1.4-12-7.4-14.3-2.5-1-5.3-1.5-8.2-1.5-4.3 0-19.2 9-33.8 11-11.5 1.6-23.9 2.3-34.2 3.1-6.3.5-11.8 1.1-15.9 2 0-1.7-1.3-3-3-3h-2c-1.7 0-3 1.3-3 3v10c0 1.7 1.3 3 3 3h2c1.7 0 3-1.3 3-3v-.1c4.2.9 9.7 1.5 15.9 2 10.3.9 22.7 1.5 34.2 3.1 14.6 2 29.5 11 33.8 11 2.9 0 5.6-.5 8.2-1.5 5.9-2.2 9.1-8.4 7.4-14.3-.4-1.5-.7-3.3-.7-5.2zm-12.7 58.1c-2.1-1.7-4.6-3-7.3-3.9-4.1-1.3-21 2.6-35.6 0-11.5-2.1-23.4-5.2-33.5-7.6-6.1-1.4-11.5-2.6-15.8-3v-.1c.5-1.6-.4-3.3-1.9-3.8l-1.9-.6c-1.6-.5-3.3.4-3.8 1.9l-3.1 9.5c-.5 1.6.4 3.3 1.9 3.8l1.9.6c1.6.5 3.3-.4 3.8-1.9v-.1c3.7 2.1 8.7 4.4 14.5 6.8 9.6 4 21.1 8.5 31.6 13.6 13.3 6.4 24.7 19.6 28.8 20.9 2.7.9 5.5 1.2 8.2 1.1 6.3-.3 11.2-5.2 11.4-11.3 0-1.7.3-3.4.9-5.2s1.4-3.4 2.3-4.8c3.6-5 2.5-11.9-2.4-15.9zm-84 123.7c-2.5-3.5-18.6-10.3-28.8-20.9-8.1-8.4-15.9-18-22.6-25.8-4.1-4.8-7.8-8.9-11-11.7l.1-.1c1.3-1 1.6-2.8.7-4.2l-1.2-1.6c-1-1.3-2.8-1.6-4.2-.7l-8.1 5.9c-1.3 1-1.6 2.8-.7 4.2l1.2 1.6c1 1.3 2.8 1.6 4.2.7l.1-.1c1.7 3.9 4.5 8.7 7.8 14.1 5.4 8.9 12.1 19.3 17.6 29.5 7 13 8.5 30.3 11 33.8 1.7 2.3 3.7 4.3 6 5.7 5.3 3.5 12.2 2.4 15.9-2.4 1-1.3 2.3-2.6 3.8-3.7s3.1-1.9 4.7-2.5c5.7-2 8.9-8.2 7.2-14.3-.8-2.6-2-5.1-3.7-7.5zm-3.9-164.5c-3.8-.6-7.4 2-8 5.8s2 7.4 5.8 8c2.1.3 4.2-.3 5.7-1.6l22 3.5c1 1.7 2.8 3 4.9 3.3 3.8.6 7.4-2 8-5.8.6-3.8-2-7.4-5.8-8-2.1-.3-4.2.3-5.7 1.6l-22-3.5c-1-1.7-2.8-2.9-4.9-3.3zm-12.9 46.8c-3.4-1.8-7.7-.4-9.4 3.1s-.4 7.7 3.1 9.4c1.9 1 4.1 1 5.9.2l19.9 10.1c.5 1.9 1.7 3.7 3.6 4.7 3.4 1.8 7.7.4 9.4-3.1 1.8-3.4.4-7.7-3.1-9.4-1.9-1-4.1-1-5.9-.2l-19.9-10.1c-.4-2-1.7-3.7-3.6-4.7zm-62.2 106.6c1.8 3.4 6 4.8 9.4 3.1s4.8-6 3.1-9.4c-1-1.9-2.7-3.2-4.7-3.6l-10.1-19.9c.8-1.8.8-4-.2-5.9-1.8-3.4-6-4.8-9.4-3.1-3.4 1.8-4.8 6-3.1 9.4 1 1.9 2.7 3.2 4.7 3.6l10.1 19.9c-.8 1.8-.8 4 .2 5.9zm48.9-32.8c2.7 2.7 7.2 2.7 9.9 0s2.7-7.2 0-9.9c-1.5-1.5-3.6-2.2-5.6-2l-15.8-15.8c.2-2-.5-4-2-5.6-2.7-2.7-7.2-2.7-9.9 0s-2.7 7.2 0 9.9c1.5 1.5 3.6 2.2 5.6 2l15.8 15.8c-.2 2 .5 4.1 2 5.6zm-215.6-8.8c1.3 1 3.2.7 4.2-.7l1.2-1.6c1-1.3.7-3.2-.7-4.2l-8.1-5.9c-1.3-1-3.2-.7-4.2.7l-1.2 1.6c-1 1.3-.7 3.2.7 4.2l.1.1c-3.2 2.8-6.9 7-11 11.7-6.8 7.9-14.6 17.4-22.6 25.8-10.2 10.7-26.2 17.4-28.8 20.9-1.7 2.3-2.9 4.9-3.6 7.5-1.7 6.1 1.5 12.3 7.2 14.3 1.6.6 3.2 1.4 4.7 2.5s2.8 2.4 3.8 3.7c3.7 4.8 10.6 5.9 15.9 2.4 2.3-1.5 4.3-3.4 6-5.7 2.5-3.5 4-20.8 11-33.8 5.5-10.3 12.2-20.7 17.6-29.5 3.2-5.3 5.9-10.1 7.8-14zm-73.8-69.4c5.8-2.4 10.9-4.7 14.5-6.8v.1c.5 1.6 2.2 2.4 3.8 1.9l1.9-.6c1.6-.5 2.4-2.2 1.9-3.8l-3.1-9.5c-.5-1.6-2.2-2.4-3.8-1.9l-1.9.6c-1.6.5-2.4 2.2-1.9 3.8v.1c-4.2.4-9.7 1.6-15.8 3-10.1 2.4-22 5.5-33.5 7.6-14.5 2.6-31.5-1.3-35.6 0-2.7.9-5.2 2.2-7.3 3.9-5 4-6 10.8-2.6 15.8.9 1.4 1.7 3 2.3 4.8.6 1.8.9 3.6.9 5.2.2 6.1 5.1 11 11.4 11.3 2.7.1 5.5-.2 8.2-1.1 4.1-1.3 15.5-14.5 28.8-20.9 10.7-5.1 22.2-9.5 31.8-13.5zm194.4 120l-3.5-22c1.3-1.5 2-3.6 1.6-5.7-.6-3.8-4.2-6.4-8-5.8-3.8.6-6.4 4.2-5.8 8 .3 2.1 1.6 3.9 3.3 4.9l3.5 22c-1.3 1.5-2 3.6-1.6 5.7.6 3.8 4.2 6.4 8 5.8 3.8-.6 6.4-4.2 5.8-8-.3-2.1-1.6-3.9-3.3-4.9zM118.1 384c-2.7 2.7-2.7 7.2 0 9.9s7.2 2.7 9.9 0c1.5-1.5 2.2-3.6 2-5.6l15.8-15.8c2 .2 4-.5 5.6-2 2.7-2.7 2.7-7.2 0-9.9s-7.2-2.7-9.9 0c-1.5 1.5-2.2 3.6-2 5.6L123.7 382c-2-.2-4.1.5-5.6 2zm-32.8-48.9c-3.4 1.8-4.8 6-3.1 9.4s6 4.8 9.4 3.1c1.9-1 3.2-2.7 3.6-4.7l19.9-10.1c1.8.8 4 .8 5.9-.2 3.4-1.8 4.8-6 3.1-9.4-1.8-3.4-6-4.8-9.4-3.1-1.9 1-3.2 2.7-3.6 4.7l-19.9 10.1c-1.8-.8-4-.8-5.9.2zm9.8 50.2c8.4-8.1 18-15.9 25.8-22.6 4.8-4.1 8.9-7.8 11.7-11l.1.1c1 1.3 2.8 1.6 4.2.7l1.6-1.2c1.3-1 1.6-2.8.7-4.2l-5.9-8.1c-1-1.3-2.8-1.6-4.2-.7l-1.6 1.2c-1.3 1-1.6 2.8-.7 4.2l.1.1c-3.9 1.7-8.7 4.5-14.1 7.8-8.9 5.4-19.3 12.1-29.5 17.6-13 7-30.3 8.4-33.8 11-2.3 1.7-4.3 3.7-5.7 6-3.5 5.3-2.4 12.2 2.4 15.9 1.3 1 2.6 2.3 3.7 3.8s1.9 3.1 2.5 4.7c2 5.7 8.2 8.9 14.3 7.2 2.6-.7 5.1-1.9 7.5-3.6 3.5-2.7 10.2-18.7 20.9-28.9zm167.8 42.6c-.5-6.3-1.1-11.8-2-15.9h.1c1.7 0 3-1.3 3-3v-2c0-1.7-1.3-3-3-3h-10c-1.7 0-3 1.3-3 3v2c0 1.7 1.3 3 3 3h.1c-.9 4.2-1.5 9.7-2 15.9-.9 10.3-1.5 22.7-3.1 34.2-2 14.6-11 29.5-11 33.8 0 2.9.5 5.6 1.5 8.2 2.2 5.9 8.4 9.1 14.3 7.4 1.6-.5 3.4-.7 5.3-.7s3.7.3 5.3.7c5.8 1.7 12-1.4 14.3-7.4 1-2.5 1.5-5.3 1.5-8.2 0-4.3-9-19.2-11-33.8-1.8-11.5-2.5-23.8-3.3-34.2zm-27.5-12.8c1.7-1 3-2.8 3.3-4.9.6-3.8-2-7.4-5.8-8-3.8-.6-7.4 2-8 5.8-.3 2.1.3 4.2 1.6 5.7l-3.5 22c-1.7 1-3 2.8-3.3 4.9-.6 3.8 2 7.4 5.8 8 3.8.6 7.4-2 8-5.8.3-2.1-.3-4.2-1.6-5.7l3.5-22zm-71 5.2c-1.8 3.4-.4 7.7 3.1 9.4s7.7.4 9.4-3.1c1-1.9 1-4.1.2-5.9l10.1-19.9c1.9-.5 3.7-1.7 4.7-3.6 1.8-3.4.4-7.7-3.1-9.4s-7.7-.4-9.4 3.1c-1 1.9-1 4.1-.2 5.9l-10.1 19.9c-2 .4-3.7 1.7-4.7 3.6zm51.9-16.3l.6-1.9c.5-1.6-.4-3.3-1.9-3.8l-9.5-3.1c-1.6-.5-3.3.4-3.8 1.9l-.6 1.9c-.5 1.6.4 3.3 1.9 3.8h.1c-2.1 3.7-4.4 8.7-6.8 14.5-4 9.6-8.5 21.1-13.6 31.6-6.4 13.3-19.6 24.7-20.9 28.8-.9 2.7-1.2 5.5-1.1 8.2.3 6.3 5.2 11.2 11.3 11.4 1.7 0 3.4.3 5.2.9 1.8.6 3.4 1.4 4.8 2.3 5 3.4 11.9 2.4 15.8-2.6 1.7-2.1 3-4.6 3.9-7.3 1.3-4.1-2.6-21 0-35.6 2.1-11.5 5.2-23.4 7.6-33.5 1.4-6.1 2.6-11.5 3-15.8h.1c1.7.7 3.4-.1 3.9-1.7zm82.4 18.6c.1.3.2.7.3 1.1-2.5.6-5 1.2-7.5 1.7l-1.7-10.7c1.3-2.2 1.8-4.7 1.4-7.3-.9-5.4-5.4-9.3-10.9-9.3-.6 0-1.2 0-1.7.1-6 .9-10.1 6.6-9.1 12.6.4 2.5 1.7 4.8 3.6 6.5l1.7 10.7c-2.5.3-5.1.5-7.7.6 0-.3-.1-.7-.1-1-.4-4.3-.8-9-1.5-13.2 1.6-1.3 2.6-3.2 2.6-5.4v-2c0-3.9-3.1-7-7-7h-10c-3.9 0-7 3.1-7 7v2c0 2.2 1 4.2 2.6 5.4-.7 4.1-1.1 8.9-1.5 13.2 0 .3-.1.7-.1 1-2.6-.2-5.1-.4-7.7-.6l1.7-10.7c1.9-1.7 3.2-4 3.6-6.5.9-6-3.2-11.6-9.1-12.6-.6-.1-1.2-.1-1.7-.1-5.4 0-10 3.9-10.9 9.3-.4 2.5.1 5.1 1.4 7.3l-1.7 10.7c-2.5-.5-5-1.1-7.5-1.7.1-.4.2-.7.3-1.1 1-4.2 2-8.8 2.7-13 1.9-.7 3.5-2.3 4.2-4.4l.6-1.9c1.2-3.7-.8-7.6-4.5-8.8l-9.5-3.1c-.7-.2-1.4-.3-2.2-.3-3 0-5.7 1.9-6.7 4.8l-.6 1.9c-.7 2.1-.3 4.3.8 6-1.9 3.7-3.8 8.1-5.5 12.1-.1.3-.3.7-.4 1-2.4-1-4.8-2-7.1-3l4.9-9.7c2.3-1 4.2-2.8 5.4-5.1 1.3-2.6 1.6-5.6.7-8.4-.9-2.8-2.8-5.1-5.5-6.4-1.5-.8-3.3-1.2-5-1.2-4.2 0-7.9 2.3-9.8 6-1.2 2.3-1.5 4.9-.9 7.4l-4.9 9.7c-2.2-1.3-4.4-2.6-6.6-4l.6-.9c2.2-3.7 4.7-7.8 6.6-11.5 2.1-.1 4.1-1.2 5.3-2.9l1.2-1.6c1.1-1.5 1.5-3.4 1.3-5.2-.3-1.8-1.3-3.5-2.8-4.6l-8.1-5.9c-1.2-.9-2.6-1.3-4.1-1.3-2.2 0-4.4 1.1-5.7 2.9l-1.2 1.6c-1.1 1.5-1.5 3.4-1.3 5.2 0 .2.1.5.2.7-3 3-6.1 6.5-8.9 9.8-.2.3-.5.5-.7.8-2-1.6-3.9-3.3-5.8-5.1l7.6-7.6c2.5-.2 4.9-1.3 6.7-3.2 2.1-2.1 3.2-4.8 3.2-7.8 0-2.9-1.1-5.7-3.2-7.8-2.1-2.1-4.8-3.2-7.8-3.2s-5.7 1.1-7.8 3.2c-1.8 1.8-2.9 4.2-3.2 6.7l-7.6 7.6c-1.7-1.9-3.4-3.9-5.1-5.8.3-.2.5-.5.8-.7 3.3-2.8 6.8-6 9.8-8.9.6.2 1.2.2 1.8.2 1.5 0 2.9-.5 4.1-1.3l1.6-1.2c3.1-2.3 3.8-6.7 1.5-9.8l-5.9-8.1a7.01 7.01 0 00-5.7-2.9c-1.5 0-2.9.5-4.1 1.3l-1.6 1.2c-1.5 1.1-2.5 2.7-2.8 4.6 0 .2-.1.5-.1.7-3.7 1.9-7.8 4.3-11.5 6.6l-.9.6c-1.4-2.2-2.7-4.4-4-6.6l9.7-4.9c.8.2 1.6.3 2.4.3 1.7 0 3.4-.4 5-1.2 5.4-2.8 7.6-9.4 4.8-14.8-1.9-3.7-5.6-6-9.8-6-1.7 0-3.4.4-5 1.2-2.3 1.2-4.1 3.1-5.1 5.4l-9.7 4.9c-1.1-2.3-2.1-4.7-3-7.1.3-.1.7-.3 1-.4 4-1.7 8.3-3.5 12.1-5.4 1.1.7 2.4 1.1 3.8 1.1.7 0 1.5-.1 2.2-.3l1.9-.6c1.8-.6 3.2-1.8 4.1-3.5.8-1.7 1-3.6.4-5.3l-3.1-9.5c-.9-2.9-3.6-4.8-6.7-4.8-.7 0-1.5.1-2.2.3l-1.9.6c-2.1.7-3.6 2.3-4.4 4.2-4.1.7-8.8 1.7-13 2.7-.3.1-.7.2-1.1.3-.6-2.5-1.2-5-1.7-7.5l10.7-1.7c1.7 1 3.6 1.5 5.6 1.5.6 0 1.2 0 1.7-.1 6-.9 10.1-6.6 9.1-12.6-.9-5.4-5.4-9.3-10.9-9.3-.6 0-1.2 0-1.7.1-2.5.4-4.8 1.7-6.5 3.6L84 274.6c-.3-2.5-.5-5.1-.6-7.7.3 0 .7-.1 1-.1 4.3-.4 9-.8 13.2-1.5 1.3 1.6 3.2 2.6 5.4 2.6h2c3.9 0 7-3.1 7-7v-10c0-3.9-3.1-7-7-7h-2c-2.2 0-4.2 1-5.4 2.6-4.1-.7-8.9-1.1-13.2-1.5-.3 0-.7-.1-1-.1.2-2.6.4-5.1.6-7.7l10.7 1.7c1.7 1.9 4 3.2 6.5 3.6.6.1 1.2.1 1.7.1 5.4 0 10-3.9 10.9-9.3.5-2.9-.2-5.8-2-8.2-1.7-2.4-4.3-3.9-7.2-4.4-.6-.1-1.2-.1-1.7-.1-2 0-3.9.5-5.6 1.5l-10.7-1.7c.5-2.5 1.1-5 1.7-7.5.3.1.7.2 1.1.3 4.2 1 8.8 2 13 2.7.7 1.9 2.3 3.5 4.4 4.2l1.9.6c.7.2 1.4.3 2.2.3 3 0 5.7-1.9 6.7-4.8l3.1-9.5c.6-1.8.4-3.7-.4-5.3-.8-1.7-2.3-2.9-4.1-3.5l-1.9-.6c-.7-.2-1.4-.3-2.2-.3-1.4 0-2.7.4-3.8 1.1-3.7-1.9-8.1-3.8-12.1-5.4-.3-.1-.7-.3-1-.4 1-2.4 2-4.8 3-7.1l9.7 4.9c1 2.3 2.8 4.2 5.1 5.4 1.5.8 3.3 1.2 5 1.2 4.2 0 7.9-2.3 9.8-6 2.8-5.4.6-12-4.8-14.8-1.5-.8-3.3-1.2-5-1.2-.8 0-1.6.1-2.4.3l-9.7-4.9c1.3-2.2 2.6-4.4 4-6.6l.9.6c3.7 2.2 7.8 4.7 11.5 6.6 0 .2 0 .5.1.7.3 1.8 1.3 3.5 2.8 4.6l1.6 1.2c1.2.9 2.6 1.3 4.1 1.3 2.2 0 4.4-1.1 5.7-2.9l5.9-8.1c1.1-1.5 1.5-3.4 1.3-5.2-.3-1.8-1.3-3.5-2.8-4.6l-1.6-1.2c-1.2-.9-2.6-1.3-4.1-1.3-.6 0-1.2.1-1.8.2-3-3-6.5-6.1-9.8-8.9-.3-.2-.5-.5-.8-.7 1.6-2 3.3-3.9 5.1-5.8l7.6 7.6c.2 2.5 1.3 4.9 3.2 6.7 2.1 2.1 4.8 3.2 7.8 3.2 2.9 0 5.7-1.1 7.8-3.2 2.1-2.1 3.2-4.8 3.2-7.8s-1.1-5.7-3.2-7.8c-1.8-1.8-4.2-2.9-6.7-3.2l-7.6-7.6c1.9-1.7 3.9-3.4 5.8-5.1.2.3.5.5.7.8 2.8 3.3 6 6.8 8.9 9.8-.1.2-.1.5-.2.7-.3 1.8.2 3.7 1.3 5.2l1.2 1.6c1.3 1.8 3.4 2.9 5.7 2.9 1.5 0 2.9-.5 4.1-1.3l8.1-5.9c1.5-1.1 2.5-2.7 2.8-4.6.3-1.8-.2-3.7-1.3-5.2l-1.2-1.6c-1.2-1.7-3.2-2.8-5.3-2.9-1.9-3.7-4.3-7.8-6.6-11.5l-.6-.9c2.2-1.4 4.4-2.7 6.6-4l4.9 9.7c-.5 2.5-.2 5.1.9 7.4 1.9 3.7 5.6 6 9.8 6 1.7 0 3.4-.4 5-1.2 2.6-1.3 4.6-3.6 5.5-6.4.9-2.8.7-5.8-.7-8.4-1.2-2.3-3.1-4.1-5.4-5.1l-4.9-9.7c2.3-1.1 4.7-2.1 7.1-3 .1.3.3.7.4 1 1.7 4 3.5 8.3 5.5 12.1-1.1 1.7-1.5 3.9-.8 6l.6 1.9c.9 2.9 3.6 4.8 6.7 4.8.7 0 1.5-.1 2.2-.3l9.5-3.1c3.7-1.2 5.7-5.1 4.5-8.8l-.6-1.9c-.7-2.1-2.2-3.6-4.2-4.4-.7-4.1-1.7-8.8-2.7-13-.1-.3-.2-.7-.3-1.1 2.5-.6 5-1.2 7.5-1.7l1.7 10.7c-1.3 2.2-1.8 4.7-1.4 7.3.9 5.4 5.4 9.3 10.9 9.3.6 0 1.2 0 1.7-.1 6-.9 10.1-6.6 9.1-12.6-.4-2.5-1.7-4.8-3.6-6.5L237.4 84c2.5-.3 5.1-.5 7.7-.6 0 .3.1.7.1 1 .4 4.3.8 9 1.5 13.2-1.6 1.3-2.6 3.2-2.6 5.4v2c0 3.9 3.1 7 7 7h10c3.9 0 7-3.1 7-7v-2c0-2.2-1-4.2-2.6-5.4.7-4.1 1.1-8.9 1.5-13.2 0-.3.1-.7.1-1 2.6.2 5.1.4 7.7.6l-1.7 10.7c-1.9 1.7-3.2 4-3.6 6.5-.9 6 3.2 11.6 9.1 12.6.6.1 1.2.1 1.7.1 5.4 0 10-3.9 10.9-9.3.4-2.5-.1-5.1-1.4-7.3l1.7-10.7c2.5.5 5 1.1 7.5 1.7-.1.3-.2.7-.3 1.1-1 4.2-2 8.8-2.7 13-1.9.7-3.5 2.3-4.2 4.4l-.6 1.9c-.6 1.8-.4 3.7.4 5.3.8 1.7 2.3 2.9 4.1 3.5l9.5 3.1c.7.2 1.4.3 2.2.3 3 0 5.7-1.9 6.7-4.8l.6-1.9c.7-2.1.3-4.3-.8-6 1.9-3.7 3.8-8.1 5.5-12.1.1-.3.3-.7.4-1 2.4 1 4.8 2 7.1 3l-4.9 9.7c-2.3 1-4.2 2.8-5.4 5.1-1.3 2.6-1.6 5.6-.7 8.4.9 2.8 2.8 5.1 5.5 6.4 1.5.8 3.3 1.2 5 1.2 4.2 0 7.9-2.3 9.8-6 1.2-2.3 1.5-4.9.9-7.4l4.9-9.7c2.2 1.3 4.4 2.6 6.6 4l-.6.9c-2.2 3.7-4.7 7.8-6.6 11.5-2.1.1-4.1 1.2-5.3 2.9l-1.2 1.6c-2.3 3.1-1.6 7.5 1.5 9.8l8.1 5.9c1.2.9 2.6 1.3 4.1 1.3 2.2 0 4.4-1.1 5.7-2.9l1.2-1.6c1.1-1.5 1.5-3.4 1.3-5.2 0-.2-.1-.5-.2-.7 3-3 6.1-6.5 8.9-9.8.2-.3.5-.5.7-.8 2 1.6 3.9 3.3 5.8 5.1l-7.6 7.6c-2.5.2-4.9 1.3-6.7 3.2-2.1 2.1-3.2 4.8-3.2 7.8s1.1 5.7 3.2 7.8c2.1 2.1 4.8 3.2 7.8 3.2 2.9 0 5.7-1.1 7.8-3.2 1.8-1.8 2.9-4.2 3.2-6.7l7.6-7.6c1.7 1.9 3.4 3.9 5.1 5.8-.3.2-.5.5-.8.7-3.3 2.8-6.8 6-9.8 8.9-.6-.2-1.2-.2-1.8-.2-1.5 0-2.9.5-4.1 1.3l-1.6 1.2c-1.5 1.1-2.5 2.7-2.8 4.6-.3 1.8.2 3.7 1.3 5.2l5.9 8.1c1.3 1.8 3.4 2.9 5.7 2.9 1.5 0 2.9-.5 4.1-1.3l1.6-1.2c1.5-1.1 2.5-2.7 2.8-4.6 0-.2.1-.5.1-.7 3.7-1.9 7.8-4.3 11.5-6.6l.9-.6c1.4 2.2 2.7 4.4 4 6.6l-9.7 4.9c-.8-.2-1.6-.3-2.4-.3-1.7 0-3.4.4-5 1.2-5.4 2.8-7.6 9.4-4.8 14.8 1.9 3.7 5.6 6 9.8 6 1.7 0 3.4-.4 5-1.2 2.3-1.2 4.1-3.1 5.1-5.4l9.7-4.9c1.1 2.3 2.1 4.7 3 7.1-.3.1-.7.3-1 .4-4 1.7-8.3 3.5-12.1 5.4-1.1-.7-2.4-1.1-3.8-1.1-.7 0-1.5.1-2.2.3l-1.9.6c-1.8.6-3.2 1.8-4.1 3.5-.8 1.7-1 3.6-.4 5.3l3.1 9.5c.9 2.9 3.6 4.8 6.7 4.8.7 0 1.5-.1 2.2-.3l1.9-.6c2.1-.7 3.6-2.3 4.4-4.2 4.1-.7 8.8-1.7 13-2.7.3-.1.7-.2 1.1-.3.6 2.5 1.2 5 1.7 7.5l-10.7 1.7c-1.7-1-3.6-1.5-5.6-1.5-.6 0-1.2 0-1.7.1-6 .9-10.1 6.6-9.1 12.6.9 5.4 5.4 9.3 10.9 9.3.6 0 1.2 0 1.7-.1 2.5-.4 4.8-1.7 6.5-3.6l10.7-1.7c.3 2.5.5 5.1.6 7.7-.3 0-.7.1-1 .1-4.3.4-9 .8-13.2 1.5-1.3-1.6-3.2-2.6-5.4-2.6h-2c-3.9 0-7 3.1-7 7v10c0 3.9 3.1 7 7 7h2c2.2 0 4.2-1 5.4-2.6 4.1.7 8.9 1.1 13.2 1.5.3 0 .7.1 1 .1-.2 2.6-.4 5.1-.6 7.7l-10.7-1.7c-1.7-1.9-4-3.2-6.5-3.6-.6-.1-1.2-.1-1.7-.1-5.4 0-10 3.9-10.9 9.3-.9 6 3.2 11.6 9.1 12.6.6.1 1.2.1 1.7.1 2 0 3.9-.5 5.6-1.5l10.7 1.7c-.5 2.5-1.1 5-1.7 7.5-.3-.1-.7-.2-1.1-.3-4.2-1-8.8-2-13-2.7-.1-.2-.2-.5-.3-.7-.8-1.7-2.3-2.9-4.1-3.5l-1.9-.6c-.7-.2-1.4-.3-2.2-.3-3 0-5.7 1.9-6.7 4.8l-3.1 9.5c-1.2 3.7.8 7.6 4.5 8.8l1.9.6c.7.2 1.4.3 2.2.3 1.4 0 2.7-.4 3.8-1.1 3.7 1.9 8.1 3.8 12.1 5.4.3.1.7.3 1 .4-1 2.4-2 4.8-3 7.1l-9.7-4.9c-1-2.3-2.8-4.2-5.1-5.4-1.5-.8-3.3-1.2-5-1.2-4.2 0-7.9 2.3-9.8 6-2.8 5.4-.6 12 4.8 14.8 1.5.8 3.3 1.2 5 1.2.8 0 1.6-.1 2.4-.3l9.7 4.9c-1.3 2.2-2.6 4.4-4 6.6l-.9-.6c-3.7-2.2-7.8-4.7-11.5-6.6 0-.2 0-.5-.1-.7-.3-1.8-1.3-3.5-2.8-4.6l-1.6-1.2c-1.2-.9-2.6-1.3-4.1-1.3-2.2 0-4.4 1.1-5.7 2.9l-5.9 8.1c-1.1 1.5-1.5 3.4-1.3 5.2.3 1.8 1.3 3.5 2.8 4.6l1.6 1.2c1.2.9 2.6 1.3 4.1 1.3.6 0 1.2-.1 1.8-.2 3 3 6.5 6.1 9.8 8.9.3.2.5.5.8.7-1.6 2-3.3 3.9-5.1 5.8l-7.6-7.6c-.2-2.5-1.3-4.9-3.2-6.7-2.1-2.1-4.8-3.2-7.8-3.2s-5.7 1.1-7.8 3.2c-4.3 4.3-4.3 11.3 0 15.6 1.8 1.8 4.2 2.9 6.7 3.2l7.6 7.6c-1.9 1.7-3.9 3.4-5.8 5.1-.2-.3-.5-.5-.7-.8-2.8-3.3-6-6.8-8.9-9.8.1-.2.1-.5.2-.7.3-1.8-.2-3.7-1.3-5.2l-1.2-1.6a7.01 7.01 0 00-5.7-2.9c-1.5 0-2.9.5-4.1 1.3l-8.1 5.9c-3.1 2.3-3.8 6.7-1.5 9.8l1.2 1.6c1.2 1.7 3.2 2.8 5.3 2.9 1.9 3.7 4.3 7.8 6.6 11.5l.6.9c-2.2 1.4-4.4 2.7-6.6 4l-4.9-9.7c.5-2.5.2-5.1-.9-7.4-1.9-3.7-5.6-6-9.8-6-1.7 0-3.4.4-5 1.2-5.4 2.8-7.6 9.4-4.8 14.8 1.2 2.3 3.1 4.1 5.4 5.1l4.9 9.7c-2.3 1.1-4.7 2.1-7.1 3-.1-.3-.3-.7-.4-1-1.7-4-3.5-8.3-5.5-12.1.1-.2.3-.4.4-.6.8-1.7 1-3.6.4-5.3l-.6-1.9c-.9-2.9-3.6-4.8-6.7-4.8-.7 0-1.5.1-2.2.3l-9.5 3.1c-3.7 1.2-5.7 5.1-4.5 8.8l.6 1.9c.7 2.1 2.2 3.6 4.2 4.4.7 4.4 1.7 9.1 2.7 13.3zM218.2 145l9.9 38 5.6 10.2v-20L218.2 145zm-12.6-2.6l15.6 60.1c.2-.1.4-.3.7-.4.6-.4 1.2-.8 1.8-1.1l2.7-1.5c.8-.4 1.5-.8 2.3-1.1l1.2-.6-10.1-38.8-5.3-20.2c-3 1.1-6 2.3-8.9 3.6zm-14 15.6l19.1 34.3 8 8.5-5-19.3-22.1-23.5zm-12.8.6l21.2 38 9 16.2c.2-.3.5-.5.7-.8.2-.3.5-.5.7-.7l.8-.8.3-.3.8-.8.3-.3c1.1-1 2.3-2.1 3.5-3l-29.6-53.3c-2.6 1.7-5.1 3.6-7.5 5.5h-.1c0 .2-.1.2-.1.3zm-9.6 18.6l27.1 28.5 9.8 6.2-9.7-17.4-27.2-17.3zm-12.2 3.6l-.2.2 42.8 45c.2-.5.5-.9.8-1.4 0 0 0-.1.1-.1 0 0 0-.1.1-.1.3-.6.7-1.2 1.1-1.8.1-.1.1-.2.2-.4.3-.5.7-1.1 1-1.6.1-.1.2-.3.3-.4 0 0 0-.1.1-.1.3-.5.7-1 1.1-1.5l.6-.9-15.7-16.5-10.1-10.6-16.2-17.1c-1 1.1-1.9 2.2-2.8 3.3l-.2.2c-.6.7-1.1 1.4-1.7 2.2-.5.5-.9 1-1.3 1.6zm-4.7 20.5l33.4 20.8 11.1 3.6-13.8-14.5-30.7-9.9zm-10.9 6.6c0 .1-.1.2-.1.2L194 241c.1-.3.1-.6.2-.8l.3-1.2c.1-.4.3-.9.4-1.3.1-.3.2-.6.3-1 .2-.5.4-1.1.5-1.6.1-.2.1-.4.2-.6.2-.6.5-1.2.7-1.9.1-.3.2-.6.4-.9l-19.3-12-23.5-14.7-8.9-5.5c-.6 1.1-1.1 2.2-1.6 3.4-.1.3-.3.5-.4.8-.3.6-.6 1.3-.8 1.9-.4.7-.7 1.5-1.1 2.3zm32.7 23l-32.2-1.9 37.5 11.8 11.6.7-16.9-10.6zm-41.1 7.4l59.3 18.6v-2.7c0-.5 0-1 .1-1.6v-1.1c0-.6.1-1.2.1-1.7 0-.3.1-.6.1-.9.1-.6.1-1.2.2-1.8l-25-7.8-33.2-10.4c-.5 3.1-1.1 6.2-1.6 9.4zm37.4 13.8l-31.6 6.2 39.2 2 11.4-2.2-19-6zm5.6 19.7l18.6.9v-.2l-.6-2.1c0-.1 0-.2-.1-.2-.1-.3-.1-.6-.2-.9-.1-.4-.2-.8-.3-1.3v-.1c-.1-.8-.3-1.5-.4-2.3l-.3-2.4L170 262l-38.2-1.9c0 1.2.1 2.4.2 3.7 0 .3 0 .7.1 1 0 .6.1 1.3.2 1.9.1.6.1 1.3.2 1.9 0 .3.1.7.1 1l43.4 2.2zm-3.8 1.8l-29 13.9 38.5-7.9 10.5-5-20-1zm10.4 17.7l18.2-3.7c-.4-.8-.9-1.5-1.3-2.3v-.1c-.6-1.1-1.1-2.1-1.6-3.2 0 0 0-.1-.1-.1-.5-1.1-.9-2.1-1.3-3.2l-22.3 4.6-37.4 7.7c.2.5.3 1.1.5 1.6.3 1 .6 1.9.9 2.9l.6 1.8c.3.9.6 1.7.9 2.6 0 .1.1.2.1.3l42.8-8.9zm-3.2 2.7l-24.6 20.8 35.3-17.3 8.9-7.5-19.6 4zm14.4 14.5l16.7-8.2c-.1-.1-.2-.2-.3-.4-.1-.2-.3-.3-.4-.5-.3-.3-.5-.6-.8-.9-.1-.1-.2-.3-.3-.4-.5-.5-.9-1-1.3-1.5l-.1-.1c-1-1.2-2-2.5-2.9-3.8l-54.7 26.8c.3.4.5.8.8 1.2.2.2.3.5.5.7.7 1.1 1.4 2.3 2.2 3.4.6.8 1.1 1.7 1.7 2.5.1.1.1.2.2.2l38.7-19zm-2.4 3.4l-18.6 26.3 29.8-25.6 6.7-9.5-17.9 8.8zm17.6 10.4l14.1-12.1c-.5-.3-1-.6-1.5-1-.6-.4-1.1-.7-1.6-1.1-.2-.1-.3-.2-.5-.4-.4-.3-.8-.6-1.2-.8-.3-.2-.6-.5-1-.7-.3-.2-.5-.4-.8-.6-.5-.4-.9-.7-1.4-1.1l-39 33.4-7.3 6.2c.5.4.9.9 1.4 1.3.4.4.8.7 1.2 1.1 1.5 1.4 3 2.7 4.5 4l33.1-28.2zm-1.5 3.9L196 356.3l22.5-32.2 4.1-10.9-15.1 13zm30.3-9.5c-3.1-.9-6.2-2.1-9.2-3.5l-34.9 50c.8.5 1.7.9 2.5 1.4.5.3 1 .6 1.6.9.8.4 1.7.8 2.5 1.3.6.3 1.1.6 1.7.8.1 0 .2.1.2.1l35.6-51zm7.4-123.5v-61c-.4 0-.8.1-1.2.1-.5 0-1 .1-1.4.2-2.3.2-4.6.5-6.9.9l.1 62.1c.2-.1.4-.1.6-.2.5-.2 1.1-.4 1.6-.5.2-.1.4-.1.6-.2.5-.2 1.1-.3 1.6-.4.1 0 .2-.1.3-.1.1 0 .2 0 .2-.1 1.4-.2 2.9-.6 4.5-.8zm72.4 170.1l-21.8-58.1c-.5.4-1.1.8-1.6 1.3-.3.3-.7.5-1.1.8-.3.2-.7.5-1 .7-.3.2-.5.3-.8.5l-.9.6c-.2.1-.3.2-.5.3-.2.1-.3.2-.5.3-.6.4-1.2.7-1.8 1.1l21.4 57c.4-.2.7-.3 1-.5.3-.2.6-.3 1-.5.7-.4 1.4-.7 2.1-1.1 1.4-.7 2.7-1.5 4.1-2.2.2-.1.3-.2.4-.2zm12.2-16.9l-22.6-32.2-8.8-7.6 7 18.7 24.4 21.1zm12.8-2l-25-35.6-10.7-15.2c-.4.5-.7 1-1.1 1.4-.4.6-.9 1.1-1.3 1.6-.1.1-.2.2-.3.4-.4.4-.8.9-1.1 1.3l-.6.6c-.3.4-.7.7-1 1l-1 1 35 49.9c.6-.5 1.1-1 1.7-1.5.6-.5 1.2-1.1 1.8-1.6.6-.6 1.3-1.2 1.9-1.8l.3-.3c.4-.3.9-.8 1.4-1.2zm7.6-19.4l-29.9-25.5-10.4-5.2 11.5 16.3 28.8 14.4zm11.8-5.1l-47.3-40.3c-.3.6-.5 1.3-.8 1.9-.2.5-.5 1.1-.7 1.6-.1.2-.2.4-.3.5-.3.6-.6 1.2-.9 1.9 0 .1-.1.2-.1.3-.4.7-.7 1.4-1.1 2-.1.2-.2.4-.4.6l37.5 32 8.9 7.6c.5-.8 1.1-1.6 1.6-2.3.2-.4.5-.7.7-1.1.9-1.6 1.9-3.2 2.9-4.7zm2.5-20.8l-35.3-17.2-11.4-2.4 15.2 12.9 31.5 6.7zm10.1-7.9L318.7 264v.3c-.1.7-.2 1.3-.3 2 0 .2-.1.4-.1.6-.1.6-.2 1.1-.3 1.7-.1.3-.1.6-.2 1-.1.5-.2.9-.3 1.3l-.3 1.2c-.1.5-.3 1-.4 1.5l20.5 10 34.3 16.7c.3-.9.6-1.7.9-2.6.2-.6.4-1.2.7-1.8.2-.7.5-1.5.7-2.2.2-.7.4-1.4.7-2-.1-.2 0-.3 0-.5zM339.7 272l32.2-1.5-38.5-7.8-11.6.5 17.9 8.8zm40-11.7L318.8 248v.1c.1.8.2 1.6.2 2.3v1c0 .5.1 1 .1 1.5v.2c0 .7 0 1.5.1 2.2v2.6l22.3 4.5 37.4 7.6c.1-.8.2-1.7.2-2.6 0-.2 0-.4.1-.6.2-1.9.3-3.8.4-5.7v-.5c.1-.1.1-.2.1-.3zm-38.6-9.8l30.8-9.5-39.2 2.1-11.1 3.4 19.5 4zm-26.2-18c.1.3.2.7.4 1 0 0 0 .1.1.2l.3.9c.1.3.2.7.4 1 .2.5.3 1 .5 1.4.1.2.1.4.2.6.2.6.4 1.3.6 1.9v.1c.2.8.4 1.5.6 2.3l60.9-3.3c-.1-.5-.2-1.1-.3-1.6-.2-1-.3-2-.5-3-.1-.7-.3-1.3-.4-2-.2-.8-.3-1.7-.5-2.5 0-.1 0-.2-.1-.3l-62.2 3.3zm22.1-3.2l27.4-16.9-37.4 11.9-9.9 6.1 19.9-1.1zm-29.8-10.8c.1.2.2.3.4.5l.9 1.2c.2.3.4.6.5.8l.6.9c0 .1.1.1.1.2.3.4.5.9.8 1.3.1.2.3.4.4.7l1.2 2.1v.1c.1.2.2.3.2.5l36.8-11.7 21.3-6.7c-.3-.6-.6-1.3-.8-1.9-.3-.8-.7-1.6-1-2.3-.3-.7-.7-1.4-1-2.1-.3-.7-.7-1.4-1-2.1 0-.1-.1-.2-.1-.3l-59.3 18.8zm20.6-8.7l22.3-23.2-33.3 20.9-8.1 8.4 19.1-6.1zm-31.6-3c.5.4.9.8 1.4 1.2.5.4 1 .9 1.4 1.3.2.2.4.3.5.5.3.3.6.6.9.8l1.1 1.1c.1.1.2.3.4.4.5.5 1 1 1.4 1.5l19.3-12.1 16.8-10.5 15.5-9.7-1.2-1.5c-.4-.5-.8-1.1-1.2-1.6-1.2-1.5-2.4-2.9-3.6-4.4l-52.7 33zm17.8-13.5l15.8-28.1-27 28.5-5.7 10.1 16.9-10.5zm-31.4 5c.6.3 1.2.6 1.7.8.6.3 1.3.6 1.9 1 .1 0 .2.1.2.1l2.1 1.2c.7.4 1.4.8 2.1 1.3.2.1.4.2.6.4l15.6-16.5 16.8-17.7 9.5-10c-.7-.6-1.5-1.1-2.2-1.7-.5-.4-1-.8-1.5-1.1-.9-.6-1.8-1.3-2.7-1.9-.4-.3-.8-.6-1.2-.8l-.2-.2-42.7 45.1zm13.9-17.6l8.3-31.1-19 34.4-3 11.2 13.7-14.5zM255 170.4l-7.9-31.2.1 39.3 2.8 11.3 5-19.4zm11.9.1l9.5-37c-2.6-.4-5.3-.8-8-1.1-.4 0-.9-.1-1.3-.1h-.3L256 174.4l-4.6 18h.1c1-.1 2-.1 3-.1h4.7c.7 0 1.4.1 2 .1l5.7-21.9zm-.2 19.9l9.7-17.5.2-32.2-9.8 38.1-.1 11.6zm6.5 4.3c.3.1.6.2 1 .3.5.2 1 .3 1.6.5.4.1.8.2 1.2.4l11-19.9 18.5-33.4c-.4-.2-.8-.3-1.2-.5-1.1-.5-2.1-.9-3.2-1.3-.5-.2-1.1-.4-1.6-.6-.9-.3-1.8-.7-2.7-1-.1 0-.2-.1-.3-.1l-21 38.1-9 16.3c.2 0 .4.1.6.1.5.1 1 .2 1.6.3.3.1.7.2 1 .2.2 0 .4.1.6.1.2.1.5.1.7.2.3.1.7.2 1.2.3zM304.8 362L291 325.2l-8.3-12c-3 1.4-6.1 2.6-9.2 3.5l31.3 45.3z" fill="#36434f"/></svg>