<svg xmlns="http://www.w3.org/2000/svg" viewBox="0 0 512 512" xml:space="preserve"><path d="M302.6 10c2.3 5.3 4.8 15.6 3.2 23.3-1.7 8.6-5 8.6-6.8 8.6-.8 0-1.7-.1-2.7-.3-2.5-.5-4.2-1.4-5-2.6-1.1-1.6-1.3-4.8-.5-8.8 1.6-7.7 7.7-16.3 11.8-20.2m-125.8 3.6c3.3 4.7 7.7 14.3 7.7 22.1 0 4.1-.8 7.2-2.2 8.6-1 1-2.9 1.5-5.5 1.5s-4.5-.5-5.5-1.5c-1.4-1.4-2.2-4.4-2.2-8.6 0-7.8 4.4-17.5 7.7-22.1m226 69.1c.2 3.4 0 7.5-1.2 10.6-.8 2.1-1.8 3.5-2.4 3.5-.2 0-.8-.1-1.8-.5-1.3-.5-1.7-1-1.8-1.1-.1-.3-.2-1.5.8-4 1.3-3 3.9-6.2 6.4-8.5M67.4 96.8c3.3 4.7 7.7 14.3 7.7 22.2 0 4.1-.8 7.2-2.2 8.6-1 1-2.9 1.5-5.5 1.5s-4.4-.5-5.5-1.6c-1.4-1.4-2.2-4.4-2.2-8.5 0-7.9 4.5-17.5 7.7-22.2m210.9 2c.6 0 1.3 0 1.9.1 8.8.9 17.3 8.8 23.1 21.5 6.3 13.7 8.9 31.2 7.2 48.1-3 29.6-19.2 50.3-39.5 50.3-1 0-2.1-.1-3.1-.2-9.9-1-18.7-6.9-24.7-16.6-6.7-10.7-9.4-25.4-7.8-41.3 3.4-32.4 23.9-61.9 42.9-61.9m-107 9.8c8.9 0 18.5 6.7 26.3 18.5 8.3 12.5 13.8 29.3 15 46.1 1.2 16.4-2 31.2-8.9 41.8-6.2 9.5-15.1 15.2-25.2 15.9-.7.1-1.5.1-2.2.1-9.7 0-19-4.7-26.2-13.3-8.1-9.7-13-23.2-14.1-39.1-1.2-17.1 2.2-34.7 9.3-48.5 6.6-12.8 15.7-20.6 24.8-21.2.3-.3.7-.3 1.2-.3m204.5 16.8c1.3 0 2.7.2 3.9.5 7.6 2 13.9 10.3 17.3 22.9 3.7 13.7 3.5 30.6-.6 46.3-3.4 13.2-9.2 24.2-16.8 31.8-6.7 6.7-14.4 10.3-22.1 10.3-2.1 0-4.3-.3-6.4-.8-7-1.8-12.8-6.4-16.9-13.4-6.6-11.3-7.9-27.7-3.3-45 3.6-14 10.9-27.8 19.8-37.8 8.2-9.5 17.4-14.8 25.1-14.8M73.5 177.9v8c19.1 0 39.3 27.1 44 59.2 2.9 19.7-.5 37.8-9.3 49.7-5.2 7-12.1 11.3-19.8 12.4-1.4.2-2.7.3-4.1.3-20.5 0-38.5-21.5-42.9-51.2-3.2-21.7 1.4-44.6 11.7-58.5 3.5-4.7 9.4-10.6 17.4-11.7 1-.1 2-.2 3-.2v-8m373.4 18.8c1.5 0 2.9.2 4.3.5 14.1 3.6 22 26.4 16.6 47.7-4.2 16.2-15.6 26.7-29 26.7-2.2 0-4.5-.3-6.7-.9-7.4-2-13.5-6.8-17.1-13.6-3.9-7.5-4.7-16.7-2.1-26.5 2.4-9.3 7.5-18 14.2-24.5 6.3-6 13.3-9.4 19.8-9.4m-203.1 72.5c22.8 0 48 3.7 72.9 10.6 6.4 1.7 12.3 3.6 18.2 5.7 39.6 13.6 74.6 34.1 98.6 57.8 8 7.9 12.4 19 11.9 30.3s-5.6 21.9-14.3 29.2c-22.2 18.6-77.9 33.6-109.3 33.6-2.6 0-5.1-.1-7.3-.3-8.4-.8-15.6-2-21.9-3.1-8.3-1.4-15.4-2.6-22.9-2.6-9.7 0-18.8 2.2-28.6 6.8-20.3 9.5-36.5 25.5-44.4 43.9-1.6 3.9-3.9 7.1-6.7 9.4-10.4 8.7-24 13.4-38.3 13.4-19.1 0-36.7-8.5-47-22.7l-29.1-40.1c-12.4-17.1-20.2-37.3-20.2-52.6 0-22 16.2-42.2 42.2-52.7 1.3-.5 30.8-12.7 42.4-20.8 6.2-4.4 14.8-11.8 25.4-22l.3-.3.3-.3c.3-.4.7-.8 1.1-1.1l.1-.1.1-.1c15.3-14.1 42.5-21.9 76.5-21.9M304.1 0c-5.5 0-18.5 15.4-21.1 28.6-2.7 13.6 3.3 19.1 11.8 20.8 1.5.3 2.9.5 4.3.5 6.7 0 12.4-3.8 14.6-15.1 2.7-13.6-4-33.6-9.1-34.7-.2 0-.3-.1-.5-.1zM176.8 3.5c-5.2 0-15.7 18.3-15.7 32.2 0 13.9 7 18.1 15.7 18.1s15.7-4.2 15.7-18.1c0-13.9-10.5-32.2-15.7-32.2zm229.7 68c-4 0-14.2 8.5-17.5 16.8-3.5 8.8-.1 13.3 5.5 15.5 1.6.6 3.2 1 4.7 1 3.8 0 7.4-2.3 9.9-8.6 3.5-8.9 1.4-23.3-1.9-24.6-.2-.1-.5-.1-.7-.1zM67.4 86.8c-5.2 0-15.7 18.3-15.7 32.2s7.1 18.1 15.7 18.1c8.7 0 15.7-4.2 15.7-18.1S72.7 86.8 67.4 86.8zm210.9 4c-24.1 0-47 33.1-50.8 69.1-3.9 37.4 14.5 64.1 39.6 66.7 1.3.1 2.6.2 3.9.2 23.5 0 43.9-22 47.5-57.5 3.8-37.5-12.4-75.8-37.5-78.4-.9-.1-1.8-.1-2.7-.1zm-107 9.8c-.6 0-1.2 0-1.9.1-25.6 1.8-44.2 40.2-41.5 78.3 2.6 36.7 23.9 59.9 48.4 59.9.9 0 1.8 0 2.7-.1 25.6-1.8 44.2-28.1 41.5-66.2-2.6-37.2-24.4-72-49.2-72zm204.5 16.8c-21.1 0-44.6 26.9-52.8 58.5-9.1 34.8 3.6 62.3 26 68.1 2.8.7 5.6 1.1 8.4 1.1 19.7 0 38.8-17.6 46.7-48.1 9-34.8 0-73.1-22.4-78.9-1.9-.5-3.9-.7-5.9-.7zm97.4 44c-2.6 0-9.1 4.8-11.5 9.6-2.5 5.5-.6 8.4 2.8 10 1.1.5 2.2.8 3.3.8 2.2 0 4.3-1.3 6.1-4.9 2.6-5.4 1.9-14.4-.1-15.4-.2-.1-.4-.1-.6-.1zM73.5 177.9c-1.4 0-2.8.1-4.2.3-25.4 3.7-41.4 41.5-35.8 79.3 5.2 35.2 27.3 58 50.8 58 1.7 0 3.5-.1 5.3-.4 25.4-3.7 41.4-33.4 35.8-71.2-5.3-35.7-28-66-51.9-66zm373.4 10.8c-17.7 0-36 18-41.8 40-6.4 24.6 5.5 44.8 24.9 49.9 2.9.7 5.8 1.1 8.7 1.1 16.3 0 31.3-11.8 36.7-32.7 6.3-24.6-2.9-52.5-22.3-57.5-2.1-.5-4.1-.8-6.2-.8zm-203.1 72.5c-35.5 0-64.9 8.4-82 24.2-.7.6-1.4 1.3-2 2-4.6 4.4-16 15.2-24.5 21.2-10.9 7.6-40.8 19.9-40.8 19.9-28.1 11.3-47.2 34-47.2 60.1 0 17.1 8.2 38.7 21.7 57.3L98.1 486c11.4 15.7 31.1 26 53.5 26 16.8 0 32-5.8 43.4-15.3 4-3.3 7-7.7 9-12.5 6.9-16 21.1-30.7 40.5-39.8 9.5-4.5 17.4-6 25.2-6 12.4 0 24.8 3.8 44.1 5.6 2.5.2 5.2.3 8 .3 33.5 0 91-15.7 114.5-35.4 21.7-18.2 23-51.4 2.8-71.3-23.9-23.6-59.4-45.2-101.6-59.7-6.3-2.2-12.5-4.1-18.7-5.8-26.4-7.4-51.9-10.9-75-10.9z" fill="#36434f"/></svg>