<svg version="1.1" xmlns="http://www.w3.org/2000/svg" x="0" y="0" viewBox="0 0 512 512" xml:space="preserve"><path d="M479.5 294c-4-3-5-11-11-12s-7 0-12 1c-3.6.7-10.5.4-13.9.2 11-6.1 20-11.3 20.2-11.4.1 0 .1-.1.2-.1 1.8-1 4.6-2.5 7.6-3.7 5-2 6-5 6-6s0-2-2-3c-1.9-1-9.3-1.9-13.5-1.1.5-1.6.7-2.7.5-2.9-1-1-5-5-10-6-1.8-.4-4.3-.9-6.8-1.2-1.4-1.4-3.2-2.5-5.2-2.8-8-1-6 0-12 0h-5.8c1.7-.4 3.2-.8 4.4-1.2 1.8-.5 3-.8 3.3-.9.1 0 .2-.1.3-.1 2.1-.6 4.8-1.3 6.8-1.8 4-1 14-18 12-14s5-6 4-8-28-1-29 2 3 8 4 13c.5 2.3.2 4.6-.2 6.4-6.2 1.7-32.8 8.7-41.4 9.6-3.2.3-9.4.5-16.5.8-2.4.1-4.6.2-6.9.3-.3-1.9-.6-3.7-1-5.5 2.7.3 5.6.4 8 .4 8 0 11 1 17 0s32-14 32-14-18.1-9.8-34-11.1c-4.8-7.8-11.6-16.8-19-19.9-2.5-1.1-4.9-1.8-7.1-2.4-.7-3.6-1.6-7.2-2.7-10.8 4.1-5.2 8.3-11.9 8.7-17.8 1-12-14-27-28-26s-14 7-24 14c-7.4 5.2-14.3 9.8-17.3 11.9-.3-7.5-.5-14.2-.6-17.4l.9-.5s.7-.8 1.8-2c2.6.6 4.2 1 4.2 1s-.5-1.6-1.3-4.3c3.9-4.3 9.7-10.2 14.3-13.7 8-6 51-20 58-21s14-3 14-3-12-2-17-4-10-4-15-4-9 5-18 7c-8.3 1.8-16.6 1.1-21 2.6.6-5.3 1.5-11.9 2-15.6 1-7 6-17 5-23s-10-9-13-9c-2.6 0-8.1 3-11.5 5.7.8-3.2 1.2-6.7.7-9.5 3.3-2.4 7.1-4.7 9.8-5.2 6-1 14 1 14 1s-6-8-9-9-10 0-13 3c-1 1-2.4 3.3-3.8 5.7-2.2-3-5.9-5.7-9.1-7.8-.9-2.4-1.9-4.9-2.7-7.6 1-1.7 3.8-6.1 8.6-9.3 6-4 12-6 18-6s27 6 27 6-12-15-15-17-8-2-14-2-18 9-20 13c-1.6 3.3-4 12-4.7 15-.5-1.5-.9-3.1-1.3-4.8-.7-3.1-1.1-6-1.3-8.7.1-.1 3.3-5.5 6.3-9.5s9-10 9-12-3-4-3-4-6 5.1-9.2 6.7c-.1-.2-.3-.3-.5-.5-.2-.1-.4-.2-.7-.2-.1-.8-.3-1.5-.6-2-1-2-5-4-5-4s-2 5 0 8c.7 1.1 1.7 1.8 2.7 2.2-.4 1.1-.8 2.4-1.1 3.9-1.3-.6-3.1-1.1-5.6-1.1-6 0-20 5-20 5s12 2 16 2 5-1 7-2c.6-.3 1.3-.6 2-.9-.6 4.6-.7 10.5 1 17.7.8 3.6 1.9 6.8 2.9 9.7-1.4-.8-2.5-1.3-2.8-1.4h-.1s0-.1-.1-.1c-.3-.6-.3-.6-.2-.2.1.1.1.2.2.2h-.1c0-.1 0-.1-.1-.2-1.3-1.9-7.1-11-8.8-11.8-2-1-5-3-12 0s-8 12-8 17 11 21 11 21 5-10 9-14c3.2-3.2 7.6-7 9.3-8.4 1.2.6 2.7 1.5 4.3 2.4.3.6.5 1.3.8 1.9 2.9 7.4 5.5 14 5.7 23.5l-.1.1s-.7.2-1.6.5c-.5-.9-1.4-2-1.4-2s-18-1-23-1-17 3-20 17 0 28 0 28 3-24 14-30c10.3-5.6 23.1-12.1 28.1-11.3-2.7.9-6 2.2-7.1 3.3-2 2-7 4-4 13 .9 2.6 4.5 6 9.1 9.5-1.3.8-2.6 1.6-4.1 2.5-10 6-15 8-19 13-2.5 3.1-2.7 8.2-1.2 13-5.5-.7-11.5-.2-15.8 1-7 2-15 8-21 17s-12 29-12 29 19-22 41-25 37 8 37 8l1.3 1.3c.1 3.3.3 7.1.4 11.1-2.1-2.4-5.4-5.4-8.7-5.4-5 0-13 9-13 15 0 1.4.5 2.7 1.3 3.8-12.7.1-16.9 16.9-18 22.4-10.4 6.3-24.8 15.6-29.3 23.8-2.1 3.9-1.7 12-.3 20.8-3.5 3.6-5.7 6.2-5.7 6.2s1.8 3.1 7.7 4.6c2 9.2 4.5 17.6 5.6 21.4-4.9 2.8-8.4 5-8.4 5s7.7 5.8 17.9 9.1c-2.9 2.5-5.1 6.2-6.7 9.9h-48.9c0-5.5-.2-12.1-.8-18.5 14.9 9 30.6 15.5 30.6 15.5s7-35 0-56c-1.5-4.4-4.6-7.9-8.6-10.8 1-6.7 3.6-23.6 3.6-29.2 0-7-10-23-15-28-1.1-1.1-2.9-2.2-5.2-3.4 7.6-.1 14.2-.6 14.2-.6s-9-14-15-20c-3.7-3.7-14.5-6.2-22.3-7.7-1.1-3.9-2.3-7.6-3.7-10.3-5-10-20-14-27-14s-14 14-14 14-1.5.3-3 .9c-2.1-15.2-3-26.9-2.5-33.8.1-1.5.3-3 .5-4.6 2.3 1.1 8.4 3.7 17 4.5 11 1 18 0 20-2s0-13-3-16-9-8-13-8-7 3-11 8c-2.9 3.6-7.4 8.9-9.6 11.4 1.4-7.4 3.9-15.3 6.1-22 1.2-3.8 2.3-7.1 3.1-9.9 2.1.7 6.4 1.8 12.4 2.5 9 1 14 4 17 1s1-8-1-12-12-7-17-6c-3.6.7-8.2 6.6-10.6 9.9 0-.3.1-.6.1-.9 0-2.5-.6-5.3-1.3-8.1 1.4-.2 3.8-.6 5.8-1.9 3-2 3-12 3-12s-6 4-7 6c-.6 1.3-1.7 4.2-2.4 6.1 0-.1-.1-.2-.1-.3.7-1.5 1.8-4.1 2.4-6.8 1-4 1-11 1-11s-3 2-4 8c-.4 2.6-.5 5-.4 6.9-.2-.6-.4-1.1-.6-1.6V39c0-5-1-11-1-11s-1.3 1.8-2.7 4c-1.3-2.6-3.3-4-3.3-4s-1.7 6-2 10c-.8-.9-1.5-1.7-2-2-3-2-8 0-8 0l4 6c1.5 2.3 8.6 5.6 12.1 7.2.2.4.3.8.5 1.2-2.4-.5-6.1-1-8.6-.4-1.6.4-3.6 1.3-5.5 2.5-1.3-2.5-2.5-5.3-2.5-7.5V32c-1 1-4 7-4 11 0 1.9 0 3.6.2 5.1-3-3.7-7.2-12.1-7.2-12.1s-3 10-2 14c1 3.9 6.8 5 9.8 6.9-.7.7-1.3 1.4-1.8 2.1-3 4-4 10-4 10s6.3-5.2 10.9-8.9c.7.4 1.4.9 2.1 1.3-2.5 1.3-4.3 4-6 7.6-2 4-6 10-6 10s9-8 13-9 7-1 8 0 2 3 2 3l1.4 2.1c-.3.8-.5 1.6-.8 2.4-2.9 8.9-6.5 20-7.1 29.4-.5 7.2.5 19.6 2.7 35.7-.1.1-.2.2-.2.4-1 2-3 10-2 14 .5 2 2.5 6 6 9.8 1.2 6.7 2.4 13.8 3.9 21.2l-17.1-27.2c-.3-.6-1-.8-1.6-.7-1.4-1.4-3.4-3.3-5.8-5 1-.7 1.9-1.4 2.6-2 7-6 13-10 13-11s0-4-10-7c-5.2-1.5-12.2 7-17.8 15.7l-1.2.3c-9 3-16 21-15 27 .7 4 7.4 6.2 11.9 7.2-2.3 1.7-4.5 3.7-6.3 5.6-1.9-2.9-3.5-5.3-4.7-7l-8.9-31.7c-.1-.2-.2-.5-.4-.6-.6-2.2-1.6-6.1-1.6-7.5 0-2 2-11 2-11s-1 2-3 4-8 1-10 3-1 4-3 6-9 8-9 8 9-4 13-4 10 6.3 10 6.3l6.3 22.4c-7.2-6.8-16.3-10.6-20.3-12V161c0-4-2.8-8.9-2.8-8.9s-3 4.9-2.7 8.9c-.5-.8-1.1-1.5-1.5-2-2-2-9-7-11-6-1.9.9-.2 5.4.8 7.6-.9.3-1.8.7-2.8 1.4-3 2-5 5-5 5s6-1 9-1c.5 0 1.4.1 2.4.2-1.4.8-2.9 1.8-4.4 2.8-3 2-8 10-8 10s7-6 10-8 12.4-2.5 12.4-2.5c.2.2.4.4.7.4.1 0 9.7 2.9 18 9.3-2.9.3-6.8 1.1-10.1 2.7-6 3-12 15-13 24s10 19 10 19 3-10 3-15c0-.8 0-1.8.1-3 2.2-1 4.9-2 6.9-2 2.4 0 12.1 3.1 19.4 5.5-4.6 13.4-7.4 32.5-7.4 32.5s15.7-4.4 27.6-9.1c3.2 5.4 6.1 10.4 8.4 14.4-.2 3.9.1 7.9 1 11.8 3.8 16.2 23.9 36.8 25.8 38.8 0 1.1 0 2.1.2 3.2.2 1.3.7 2.6 1.4 3.7l-27.4-32.6V267c0-4-2.8-8.9-2.8-8.9s-4.2 6.9-2.2 10.9c.3.5.5 1 .8 1.4-1.5-.2-3-.4-3.8-.4-2 0-5 2-8 4s-8 10-8 10 7-6 10-8c2.4-1.6 8.7-2.2 11.3-2.4l4 4.8S94.3 282 90.3 285s-6 5-8 10-2 18-2 18 3-10 5-14 9-12 12-14 12.3-6.6 12.3-6.6l14.3 17-.1.1h.1l11.5 13.7h-19.2c1.3-3.9 1.7-8.5 3.1-10 1.6-1.6 3.9-3.3 4.5-3.6-1.1.4-11.6 1.7-15.5 3.6-4 2-8 4-13 15s8 30 8 30 0-10 2-16c.1-.4.3-.8.4-1.2.3.1.7.2 1.1.2h4.5s.5 8.5 3.3 24c.8 4.7 1.9 10 3.2 16 .3 1.3.6 2.5.9 3.8l.3 1.5c.1.5.2.9.3 1.4.2 1.1.5 2.1.8 3.2 2.6 10.6 5.9 22.7 10.2 36.1 11.4 35.9 29.6 59 41.5 76.5.9 1.4 1.8 2.7 2.7 4 .1.1.2.3.3.4.3.5.6.9.9 1.4.1.2.3.4.4.6.2.4.5.8.7 1.2.1.2.3.5.4.7.2.4.4.8.7 1.1.1.2.3.4.4.7.2.4.4.8.7 1.2l.3.6c.3.6.6 1.1.9 1.7 2.7 5.5 8.3 9 14.4 9h122.8c6.1 0 11.7-3.5 14.4-9 .3-.6.6-1.1.9-1.7l.3-.6c.2-.4.4-.8.7-1.2.1-.2.3-.4.4-.7.2-.4.4-.7.7-1.1.1-.2.3-.5.4-.7.2-.4.5-.8.7-1.2.1-.2.3-.4.4-.6.3-.5.6-.9.9-1.4.1-.1.2-.3.3-.4.8-1.3 1.7-2.6 2.7-4 11.9-17.5 30.1-40.6 41.5-76.5 4.3-13.4 7.6-25.5 10.2-36.1.3-1.1.5-2.2.8-3.2.1-.5.2-.9.3-1.4l.3-1.5c.3-1.3.6-2.6.9-3.8.5-2.1.9-4.1 1.3-6 4.5-21.8 5.3-34 5.3-34h4.5c1.3 0 2.4-.6 3.1-1.5 2.2 2 3.7 3.3 3.7 3.3s2.5-4.6 5.1-9.8c1.8 2.7 3.6 5.2 5.5 7.1 7 7 25 10 25 10s6-9 7-17-13-25-24-27c-1.1-.2-2.1-.3-3.1-.5 1-.6 2.1-1.1 3.1-1.7 5.1 1.8 9 3.2 9 3.2s-1.3-3.1-3-6.5c1-.6 2-1.1 3.1-1.7l-.1.2s14-1 18 0 11 5 12 7 2 11 6 14 8 6 9 8 2 3 2 4-2 5-2 5 6-5 6-8-7.2-18.3-11.2-21.3zm-368-237c3-2 6-3 9-3 1.2 0 2.4 1 3.4 2.1.6 2.4 1.1 4.8 1.1 6.9 0 1.1-.3 2.7-.8 4.7l-2.7-2.7c-1.5-.5-3-1.2-4.4-2.1-.5-.4-1.1-.8-1.7-1.1-1.4-1-2.8-2.1-4-3.3-.1-.3-.3-.6-.5-1 .2-.2.4-.4.6-.5zm8.7 11c2 1.2 3.3 2 3.3 2l.1-.1c-.3 1.1-.7 2.2-1.1 3.5V73s-1.2-2.5-2.3-5zm338.1 202.9c-.8.4-1.7 1-2.8 1.6.7-1.6 1.6-3.8 2.4-6.1.2 1.7.3 3.4.4 4.5zm-88.8-17.1c7.2-.3 13.4-.5 16.7-.8 5.2-.5 16.2-3.1 25.9-5.5 0 0 10.5-.5 14.5-.5 2.6 0 6 1.7 9.2 3.4.9 2.5 3.4 6.3 4.8 10.6 1.6 4.7 6.9 12 9.1 14.8-4.2 2.4-9.3 5.2-14.5 8.1-2.4-4.1-3.6-11.9-5.6-14.9-2-3-6-6-14-5-.5.1-.9.1-1.3.2-.4-3.3.3-6.2.3-6.2s-3 4-4.7 7.2c-3.8 1.2-5.3 2.8-5.3 2.8s-.2 1.7-.1 3.9c-2.2 2.8-4.4 6.2-4.9 10.1-.7 5.7 2.5 11.1 4.4 13.8-.3.1-.4.2-.4.2s-9-2-10 0c-.7 1.5-2 2.9-2.2 5.9-6.8 2-13.7 4-20.2 5.7-.2-.3-.4-.5-.6-.6-.1-.1-.3-.2-.4-.2.5-3.5.9-7.5 1.2-11.4 13.3.1 27.3-1.3 27.3-1.3s-2-22-18-27c-4.7-1.5-10.5-1.6-16.3-1.1-.2-3.3-.6-7.5-1.2-11.8 2-.3 4.2-.3 6.3-.4zm22 52.2c.1.8.6 1.8 1.4 3h-15.3c4.5-1.2 9.2-2.6 13.9-3.9-.1.3-.1.6 0 .9zm-100.6-32.5c2.8 4.9 5.8 9.3 7.7 12-2.6 1.3-5.4 3.2-8.1 5.6-3.2 2.8-5.6 7.1-7.4 11.2l-1.1-2.2c1.7-4.5 2.5-8 2.5-8s-1.1-.1-2.9-.3c2.7-7.3 4.8-14.6 6.9-16.7.6-.7 1.4-1.2 2.4-1.6zm2.7-78.7c.3 3.3.6 6.1 1 8 .3 1.7.9 3.3 1.8 4.8-3.7 1.2-14.8 3.9-23.2 8.1 1.1-1.2 1.9-2.1 2.4-2.6 3-3 11-4 11-4s-10-2-13-1-14 7-16 13c-1.2 3.7-1.7 8.5-1.9 11.7-3.8.7-7.6 2.2-11.2 4.2 6.6-16 14.8-26.3 21.1-30.9 7-5 28-11 28-11v-.3zm21.9 76.6c-.1 1.4-.1 2.9-.1 4.4l-3.7-3.7c2.1-3.6 3.9-7.3 4.8-10.8-.5 3.1-.8 6.4-1 10.1zm-.1 7.9v2.9c-1.6-.1-3-.2-3.9-.2-2 0-4.4.3-7.1 1.1 1.7-2.2 3.7-5 5.6-8 2.2 1.7 4 3.2 5.4 4.2zm29.9 29.4c.2.1.4.2.7.3h-.7v-.3zm-64.6.3h-2.8c.8-1.4 1.6-2.9 2.2-4.4.7.1 1.4.1 2 .2-.5 1.5-1 2.9-1.4 4.2zm61.6-38.8c-7.1-.4-12.8-.2-12.8-.2s0 2.8.1 6.8c-2 1.3-4.2 3.7-6 6.1-1.7-.2-3.5-.3-5.2-.5 0-1.8-.1-3.6-.1-5.3.2-.1.4-.3.5-.6 1.5-3.1 5.1-9.7 8.7-14.5 3.4 3.4 10.7 5.8 17.9 7.3-1.1.3-2.2.6-3.1.9zm-23.7.4c.4-6.7 1.3-11.9 2.2-16.4 1.1 1.7 2.7 3.5 4.6 5.7-2.6 3.3-5.1 7.5-6.8 10.7zm-13-53c4.7 4.1 9.6 8.4 12 14.4.9 2.4 1.4 4.5 1.7 6.6-1.8-3.8-6-10-15.8-14.6-2.8-.8-5.5-.8-8.2-.4 1.5-5.1 2-11.1 2.1-14.3 2.2 3 5.1 5.6 8.2 8.3zM291.5 240c16.1-8.9 25.1-2.2 28 .8v2.5c-1.1.8-1.9 1.7-1.9 2.7 0 1.1.3 2.5 1 4.1-.2.9-.3 1.8-.5 2.8-.3 1.5-.6 3-.9 4.7.4-11.6-16.6-17.6-16.6-17.6s-7.4 1.7-12.3 6.8c-1-1.1-2-2.3-3.1-3.3 1.9-1.1 4-2.2 6.3-3.5zm14.7-68c-2.2 1.1-3.9 2.2-4.7 3-3 3-7 19 8 34 10.8 10.8 32.4 18.5 43.7 21.9-.2.1-.4.3-.5.4-5.7-3.2-11.1-2.9-15.2-1.3-5 2-13 11-13 11l-2.1.7c0-3.4-.5-6.8-2-10.8-2.6-6.7-8-11.5-12.8-15.6-4.7-4.1-9.2-8-10.1-13.1-1-5.6-1.8-19.3-2.3-31.1 2.2.1 6.4.4 11 .9zm-11.7-22.4v-.3h.2c-.1.1-.2.2-.2.3zm15.9-32.8c-3.3 6.7-6.8 17-8.9 21.2-.8 1.5-1.7 3.1-2.6 4.6-1.7-6-3.9-14.2-4.8-21.1 0-3.4 0-6.8-.1-10.3.1-.4.3-.9.4-1.2.4-.7.7-1.3 1-1.8 5.7 3.5 11.3 6.6 15 8.6zm-16-46.3c-.2-2.5-.6-4.8-1.1-7 .7-.6 1.6-1.4 2.6-2.2.1 2.8-.6 6.2-1.5 9.2zm.7-12.8c-.8 1.5-1.6 3-2.2 4.3-.9-3.5-2.1-6.8-3.4-10.1 2.4 1.9 4.6 3.9 5.6 5.8zM282.5 152c-1.4-.9-2.7-4-4.3-7.6 4.4 1.5 9.2 2.9 13.3 4v2.1c0 .4.1 2.7.2 6.1-2-.8-6.8-3-9.2-4.6zm-4 25c5-5 8-5 10-4 1 .5 2.6 1 3.8 1.4.2 5.5.6 11.2.9 16.2-2.9-1.5-8.4-3.9-16.2-4.6-.8-3-.9-6.6 1.5-9zm-6 19c5.4-2.3 16.3-3.4 20.9-3.8v.1l-9.9 2.7s-13 3-21 8c-.8.5-1.8 1.1-2.9 1.8 4-3.3 9.2-7.2 12.9-8.8zm-36.2 68.2c.7-.1 1.4-.1 2.2-.2 16-2 33-11 41-9 1.2.3 2.8 1.1 4.8 2.2.3 2.3 1.2 5 2.3 7.7-3.1.3-6.1.7-8.1 1.1-3.1.6-9.3 3.6-15.2 10-.9-.5-1.9-.9-2.8-1-6.7-1.2-19.1 4.7-27.7 9.4.5-3.8 1.7-11.5 3.5-20.2zm-78.2-1.4c-1 0-1.9.1-2.7.2-2.8-5.9-5.6-12-8.3-18.1.3-4.2.2-7.9-.5-10.9-.9-3.8-2.2-7.2-3.8-10 4.4 2.2 11.4 4.6 19.2 7-2.3 6.1-6 18.8-3.9 31.8zm-6 .5c-2.8.3-4.6.7-4.6.7.5 1-3 5.9-6.5 12.5 2.2-8.1 4.3-17.3 5.4-25.5l5.7 12.3zM135.5 175c2.6.4 5.7.5 8.9.5-4.4 2.2-8.6 5.3-11.9 9.5-2 2.6-3.3 5.4-4.1 8-1.6-8-3-15.7-4.3-22.9 3.1 2.3 6.9 4.2 11.4 4.9zm-43-13s9 1.9 13.1 1.7l19.2 30.5-17.9-2.1c-3.1-3.6-10.3-10.8-16.4-10.1-.4.1-.9.2-1.3.3 1.7-4.3 3.9-11.9 3.3-20.3zm-8.9 37.6c-.2.2-.3.5-.5.7-.2-.4-.4-.7-.7-1.1.4.2.8.3 1.2.4zM62.5 202c-3.5-.7-6.4-7.1-8-11 .7-2.8 1.7-5 3-6 4-3 9-3 9-3v-.3c1.2 1.2 2.3 2.4 3.3 3.7 1.3 1.7 3.1 4.3 5.2 7.7-1.5 1.7-2.5 2.9-2.5 2.9s2.3.8 5.5 1.9c1.1 1.7 2.2 3.5 3.4 5.5-.5 1-.9 2-1.4 3.1-5.2-1.4-14.1-3.8-17.5-4.5zm39.4 29.7c3.8-1.6 6.9-3.2 8.6-4.7 7-6 4-26 4-26s-4.1-1.7-9.5-3.2c1.1-1 1.9-1.9 2.5-2.6l18.7 2.2c.3 1.3.6 2.7 1 4.1 0 2.2.3 3.5.3 3.5s.5 2.1 2.1 5.2c-1.3-.8-2.1-1.2-2.1-1.2s-3 3-9 8c-4 3.4-9 13.6-10.6 25.1-1.8-3.2-3.8-6.7-6-10.4zm36.2 75.6c.6.6 1.3 1.2 2.1 1.7h-.6l-1.5-1.7zm284.8-16.8l-1.2.6c-5.7-.1-9 1-9 1-.7.2-1.5.4-2.4.7 2.5-2.5 5.3-5.5 6.9-8.1 3 1.3 6.3 2.5 9.5 3.7-1.3.8-2.5 1.5-3.8 2.1z" fill="#36434f"/></svg>