<svg xmlns="http://www.w3.org/2000/svg" viewBox="0 0 512 512" xml:space="preserve"><path d="M501.2 289.2c-3 .3-5.9.5-8.7.5-17.4 0-31.1-6.2-32-15.4-.3-3 .7-5.9 2.9-8.7-16.1 7.6-29.1 11.9-36.6 11.9-3.3 0-5.6-.8-6.7-2.6-5.2-8.3 19.8-35 58.4-63.9-3.4.9-6.7 1.4-9.9 1.4-7.1 0-13.3-2.4-17.6-7.2-9.1-10.3-6.5-28.8 5.1-44.4-3.3-.2-6.4-1.2-9-3.1-10.7-7.5-11.2-26.3-1.6-42.8-7.8 9.4-17.8 14.8-26.5 14.8-3.8 0-7.3-1-10.3-3.2-1.5-1.1-2.8-2.4-4-3.9-2.2 11-10.4 19.2-20.1 19.2-8.1 0-15.1-5.6-18.5-13.9-17.1 44.9-34.9 77.1-43.4 77.1-.4 0-.7-.1-1-.2-8.5-3.1-1.9-45.8 14.7-98.4-5.4 3.7-11.2 5.7-16.6 5.7-3.4 0-6.6-.8-9.7-2.4-13.8-7.4-16.9-29.5-7-49.5.4-.9.9-1.7 1.4-2.6-5.3 5.5-12.3 8.8-20 8.8-13.6 0-25.1-10.4-28.5-24.6-3.4 14.2-14.9 24.6-28.5 24.6-7.7 0-14.7-3.4-20-8.8.5.8.9 1.7 1.4 2.6 9.9 20 6.8 42.2-7 49.5-3 1.6-6.3 2.4-9.7 2.4-5.5 0-11.3-2-16.6-5.7 16.5 52.6 23.1 95.3 14.7 98.4-.3.1-.7.2-1 .2-8.4 0-26.3-32.2-43.4-77.1-3.4 8.2-10.4 13.9-18.5 13.9-9.7 0-17.9-8.2-20.1-19.2-1.1 1.5-2.4 2.8-4 3.9-3 2.1-6.6 3.2-10.3 3.2-8.7 0-18.7-5.4-26.5-14.8 9.6 16.6 9.1 35.3-1.6 42.8-2.7 1.9-5.7 2.9-9 3.1 11.7 15.6 14.3 34.1 5.1 44.4-4.3 4.8-10.5 7.2-17.6 7.2-3.2 0-6.5-.5-9.9-1.4 38.6 28.8 63.6 55.5 58.4 63.9-1.1 1.7-3.4 2.5-6.7 2.5-7.6 0-20.6-4.2-36.6-11.8 2.1 2.8 3.2 5.8 2.9 8.7-.9 9.2-14.6 15.4-31.9 15.4-2.9 0-5.8-.2-8.8-.5-3.8-.4-7.4-1.1-10.8-2 3.1 1.3 6.3 3 9.4 5.1 15.3 10.1 23.4 25.1 18.2 33.6-1.3 2.1-3.2 3.6-5.6 4.5 19.1 1.5 33.8 12.4 33.8 25.7 0 8.1-5.6 15.4-14.3 20.1 15.7-5.1 30.8-7.6 44-7.6 21.3 0 37.4 6.6 42.3 19.4 5.4 14.2-4.2 32.5-23.3 49 18.9-10.1 36.3-15.7 47.7-15.7 6.1 0 10.5 1.6 12.5 5 1.1 1.9 1.4 4.3 1 7 11.2-30.2 39.6-53.1 74.3-58.7v79.6c0 8.8 7.2 16 16 16s16-7.2 16-16v-79.6c34.7 5.6 63 28.4 74.1 58.7-.4-2.7-.2-5.1 1-7 2-3.4 6.4-5 12.6-5 11.4 0 28.8 5.6 47.6 15.7-19.1-16.4-28.7-34.8-23.3-49 4.9-12.8 21-19.4 42.3-19.4 13.1 0 28.3 2.5 44 7.6-8.7-4.7-14.3-12-14.3-20.1 0-13.2 14.8-24.1 33.8-25.7-2.4-.9-4.4-2.4-5.6-4.5-5.2-8.5 2.9-23.6 18.2-33.6 3.1-2.1 6.3-3.7 9.4-5.1-3.2.9-6.8 1.6-10.6 2zm-73.3 47.4h-1.6c-36.2 0-62.5 14.6-72.2 40-.8 2.1-1.5 4.2-2 6.4-23.7-25.8-58.4-41.5-96-41.7h-.4c-37.5.2-72.3 16-96 41.8-.5-2.2-1.2-4.4-2-6.5-9.7-25.4-36-40-72.2-40H84c-4.3-10.3-11.9-19.2-22-25.8 1.9-1.2 3.7-2.5 5.4-3.9 8.2 2.1 13.9 2.5 17.9 2.5 14.5 0 26.8-6.4 33.8-17.6v-.2c12.7-20.6 4.5-43.8-27.7-74.4 7.5-13.4 9-30 4.6-46.6 1.2-1.8 2.3-3.7 3.3-5.7 8.2 5.5 17.8 8.7 28.1 8.7 1 0 1.9 0 2.9-.1 4.3 9.4 8.5 17.9 12.6 25.2 11.1 19.8 24.4 38.1 46.3 38.1 4.1 0 8.2-.7 12.1-2.1 30.7-11.3 25-49.2 22.5-65.4-1.4-9.4-3.6-20.1-6.4-31.8 15.6-8.5 25.3-24 28.2-42.1 3.6-1.2 7-2.7 10.2-4.5 3.3 1.8 6.7 3.3 10.3 4.5 2.9 18 12.6 33.6 28.1 42.1-2.8 11.6-5 22.4-6.4 31.8-1.7 11.3-2.3 20.5-1.9 28.1 1.5 25.3 16.1 34.3 24.6 37.4 3.8 1.4 7.8 2.1 11.9 2.1 22 0 35.3-18.3 46.4-38.1 4.1-7.3 8.3-15.8 12.6-25.2 1 .1 1.9.1 2.9.1 10.3 0 20-3.1 28.1-8.7 1 2 2.1 4 3.4 5.8-4.4 16.5-2.9 33.1 4.6 46.5-32.2 30.6-40.5 53.9-27.8 74.4 7 11.2 19.3 17.7 33.9 17.7 4.1 0 9.7-.4 18-2.6 1.7 1.4 3.4 2.7 5.3 3.8-9.9 6.8-17.6 15.7-21.9 26z" fill="#36434f"/></svg>