<svg version="1.1" xmlns="http://www.w3.org/2000/svg" x="0" y="0" viewBox="0 0 512 512" xml:space="preserve"><path d="M173 264.1c-7.9 0-14.4 6.4-14.4 14.4s6.4 14.4 14.4 14.4c7.9 0 14.4-6.4 14.4-14.4s-6.4-14.4-14.4-14.4zm-5.2 14.4c-2.5 0-4.6-2-4.6-4.6s2-4.6 4.6-4.6c2.5 0 4.6 2 4.6 4.6s-2.1 4.6-4.6 4.6zm185.5 0c0-7.9-6.4-14.4-14.4-14.4-7.9 0-14.4 6.4-14.4 14.4s6.4 14.4 14.4 14.4 14.4-6.5 14.4-14.4zm-19.6 0c-2.5 0-4.6-2-4.6-4.6s2-4.6 4.6-4.6 4.6 2 4.6 4.6-2 4.6-4.6 4.6zM512 256c0-53.6-23.8-102.6-63.1-140l11.8-12.4c3.5-3.7 6.1-8.1 7.5-12.9 7.4-26.3-10.6-59.4-44.1-77.9-33.5-18.6-71.1-16.3-89.5 3.9-3.4 3.7-5.7 8.3-7 13.2l-5.3 20.5C301.1 45.5 278.9 43 256 43s-45.1 2.5-66.3 7.2l-5.3-20.5c-1.3-4.9-3.6-9.4-7-13.2-18.4-20.2-56-22.4-89.5-3.9-33.4 18.7-51.4 51.7-44.1 78 1.4 4.9 4 9.3 7.5 12.9L63.1 116C23.8 153.4 0 202.4 0 256c0 98.7 80.6 181.6 190 205.8l2.7 4.8c2.6 7.8 6.7 14.9 11.8 21.1 2.3 2.8 4.8 5.4 7.6 7.7 11.7 10.2 27.1 16.4 43.9 16.4 16.8 0 32.1-6.2 43.9-16.4 2.7-2.4 5.3-5 7.6-7.7 5.1-6.2 9.2-13.4 11.8-21.1l2.7-4.8C431.4 437.6 512 354.7 512 256zm-339 55.5c-18.2 0-33-14.8-33-33s14.8-33 33-33 33 14.8 33 33-14.8 33-33 33zm132.3 147.4l-.7 1.3-.5 1.4c-2 5.9-5 11.3-9 16.1-1.7 2.1-3.7 4-5.8 5.9-9.3 8.1-21.1 12.5-33.4 12.5s-24.1-4.4-33.4-12.5c-2.1-1.8-4.1-3.8-5.8-5.9-4-4.8-7-10.2-9-16.1l-.5-1.4-.7-1.3-15.8-28.3c-9.3-16.6-9.1-37.1.4-53.6l61.4-105.7c.3-.5.8-.8 1.3-.8h4c.5 0 1 .3 1.3.8L320.7 377c9.6 16.5 9.7 37 .4 53.6l-15.8 28.3zm.7-180.4c0-18.2 14.8-33 33-33s33 14.8 33 33-14.8 33-33 33-33-14.8-33-33zm26.7 164.2l2.4-4.2c9.3-16.7 11.3-36.1 6.1-54h21c16.4 0 31.4-9.6 38.3-24.5l13.6-29.5c4.9-10.6 3.6-23.1-3.5-32.4l-46.8-61.6c-11.2-14.8-32.7-16.8-46.4-4.4l-41 36.9-3.3-5.7c-3.1-5.4-8.9-8.7-15.2-8.7h-4c-6.2 0-12 3.3-15.2 8.7l-3.3 5.7-40.7-37c-13.8-12.4-35.2-10.4-46.4 4.4L101.4 298c-7.1 9.3-8.4 21.8-3.5 32.4l13.6 29.5c6.9 14.9 21.9 24.5 38.3 24.5h21c-5.3 17.9-3.2 37.4 6.1 54l2.4 4.2C84.5 416.3 16 342.6 16 256c0-49 21.9-93.9 58.1-128.4l2.5 2.6c5 5.3 13 6.5 19.4 3l45-24.9 45-24.9c6.3-3.5 9.4-10.7 7.8-17.6 19.9-4.4 40.7-6.7 62.2-6.7s42.4 2.4 62.2 6.7c-1.6 6.9 1.5 14.2 7.8 17.6l45 24.9 45 24.9c6.4 3.5 14.3 2.3 19.4-3l2.5-2.6C474.1 162.1 496 207 496 256c0 86.6-68.5 160.3-163.3 186.7zM302 440c-8.6 16.6-26 28-46 28s-37.4-11.4-46-28c-2.6-5 1.1-11 6.8-11h78.5c5.6 0 9.3 6 6.7 11z" fill="#36434f"/></svg>