<svg xmlns="http://www.w3.org/2000/svg" viewBox="0 0 512 512" xml:space="preserve"><path d="M501.2 289.2c-3 .3-5.9.5-8.7.5-17.4 0-31.1-6.2-32-15.4-.3-3 .7-5.9 2.9-8.7-16.1 7.6-29.1 11.9-36.6 11.9-3.3 0-5.6-.8-6.7-2.6-5.2-8.3 19.8-35 58.4-63.9-3.4.9-6.7 1.4-9.9 1.4-7.1 0-13.3-2.4-17.6-7.2-9.1-10.3-6.5-28.8 5.1-44.4-3.3-.2-6.4-1.2-9-3.1-10.7-7.5-11.2-26.3-1.6-42.8-7.8 9.4-17.8 14.8-26.5 14.8-3.8 0-7.3-1-10.3-3.2-1.5-1.1-2.8-2.4-4-3.9-2.2 11-10.4 19.2-20.1 19.2-8.1 0-15.1-5.6-18.5-13.9-17.1 44.9-34.9 77.1-43.4 77.1-.4 0-.7-.1-1-.2-8.5-3.1-1.9-45.8 14.7-98.4-5.4 3.7-11.2 5.7-16.6 5.7-3.4 0-6.6-.8-9.7-2.4-13.8-7.4-16.9-29.5-7-49.5.4-.9.9-1.7 1.4-2.6-5.3 5.5-12.3 8.8-20 8.8-13.6 0-25.1-10.4-28.5-24.6-3.4 14.2-14.9 24.6-28.5 24.6-7.7 0-14.7-3.4-20-8.8.5.8.9 1.7 1.4 2.6 9.9 20 6.8 42.2-7 49.5-3 1.6-6.3 2.4-9.7 2.4-5.5 0-11.3-2-16.6-5.7 16.5 52.6 23.1 95.3 14.7 98.4-.3.1-.7.2-1 .2-8.4 0-26.3-32.2-43.4-77.1-3.4 8.2-10.4 13.9-18.5 13.9-9.7 0-17.9-8.2-20.1-19.2-1.1 1.5-2.4 2.8-4 3.9-3 2.1-6.6 3.2-10.3 3.2-8.7 0-18.7-5.4-26.5-14.8 9.6 16.6 9.1 35.3-1.6 42.8-2.7 1.9-5.7 2.9-9 3.1 11.7 15.6 14.3 34.1 5.1 44.4-4.3 4.8-10.5 7.2-17.6 7.2-3.2 0-6.5-.5-9.9-1.4 38.6 28.8 63.6 55.5 58.4 63.9-1.1 1.7-3.4 2.5-6.7 2.5-7.6 0-20.6-4.2-36.6-11.8 2.1 2.8 3.2 5.8 2.9 8.7-.9 9.2-14.6 15.4-31.9 15.4-2.9 0-5.8-.2-8.8-.5-3.8-.4-7.4-1.1-10.8-2 3.1 1.3 6.3 3 9.4 5.1 15.3 10.1 23.4 25.1 18.2 33.6-1.3 2.1-3.2 3.6-5.6 4.5 19.1 1.5 33.8 12.4 33.8 25.7 0 8.1-5.6 15.4-14.3 20.1 15.7-5.1 30.8-7.6 44-7.6 21.3 0 37.4 6.6 42.3 19.4 5.4 14.2-4.2 32.5-23.3 49 18.9-10.1 36.3-15.7 47.7-15.7 6.1 0 10.5 1.6 12.5 5 1.1 1.9 1.4 4.3 1 7 12.1-32.5 44-56.6 82.3-59.7v88.6c0 4.4 3.6 8 8 8s8-3.6 8-8v-88.5c38.2 3.2 70.1 27.1 82.1 59.6-.4-2.7-.2-5.1 1-7 2-3.4 6.4-5 12.6-5 11.4 0 28.8 5.6 47.6 15.7-19.1-16.4-28.7-34.8-23.3-49 4.9-12.8 21-19.4 42.3-19.4 13.1 0 28.3 2.5 44 7.6-8.7-4.7-14.3-12-14.3-20.1 0-13.2 14.8-24.1 33.8-25.7-2.4-.9-4.4-2.4-5.6-4.5-5.2-8.5 2.9-23.6 18.2-33.6 3.1-2.1 6.3-3.7 9.4-5.1-3.2.9-6.8 1.6-10.6 2zm-34.5 30.7c-15.3 6.8-25.4 19-26.5 33.4-4.7-.5-9.3-.7-13.8-.7-29.2 0-50.1 10.8-57.3 29.7-2.8 7.4-3.3 15.4-1.6 23.5-2.7-.4-5.4-.5-7.8-.5-3.6 0-6.7.4-9.5 1.1-20-29.9-55.4-48.8-94.2-49h-.2c-38.7.2-74 19.2-94.1 49-2.8-.7-5.9-1.1-9.5-1.1-2.5 0-5.1.2-7.9.6 1.8-8.2 1.3-16.1-1.5-23.5-7.2-18.9-28.1-29.7-57.3-29.7-4.5 0-9.1.3-13.8.7-1.1-14.5-11.3-26.7-26.5-33.5 0-5.5-1.5-11.2-4.5-17 9.7-2.9 17.2-7.8 21.9-14.2 9.1 3.1 16.7 4.7 22.7 4.7 12.2 0 17.9-6.3 20.3-10 10.2-16.6-7.8-36.2-14.6-43.6-5.9-6.4-13.1-13.3-21.4-20.5 1.2-1.1 2.4-2.2 3.5-3.4 10.8-12.1 12.3-30.4 5.1-48.3 5.9-5.7 9.5-13.4 10.7-22.1 1.4.2 2.8.2 4.2.2 2.6 0 5.1-.3 7.6-.8 6.7 8.1 16.3 13 26.8 13 4.3 0 8.4-.8 12.3-2.4 5.8 13.8 11.7 25.9 17.2 35.7 12.1 21.5 21.1 29.9 32.4 29.9 2.2 0 4.4-.4 6.6-1.2 5.9-2.2 13.1-8 14-23.4.4-6.3-.2-14.6-1.7-24.7-1.9-12.5-5.2-27.7-9.7-44.2 3.8-.6 7.5-1.9 10.9-3.7 14.3-7.5 21.8-23.5 21.3-41.6 9.4-.7 18.2-4.6 25.3-10.7 7.1 6.2 15.9 10 25.3 10.7-.4 18 7.1 33.9 21.2 41.5 3.4 1.8 7.1 3.1 10.9 3.7-4.5 16.5-7.8 31.7-9.7 44.2-1.5 10.1-2.1 18.4-1.7 24.7.9 15.4 8.2 21.2 14.1 23.4 2.1.8 4.3 1.1 6.5 1.1 11.1 0 20.5-8.7 32.4-29.9 5.5-9.8 11.3-21.9 17.1-35.7 3.9 1.6 8 2.4 12.3 2.4 10.5 0 20.1-4.9 26.8-13 2.5.5 5 .8 7.6.8 1.4 0 2.8-.1 4.2-.2 1.3 8.7 4.9 16.5 10.8 22.2-7.2 17.8-5.7 36.1 5 48.2 1.1 1.3 2.3 2.4 3.6 3.5-8.4 7.3-15.6 14.2-21.5 20.5-6.8 7.4-24.9 27-14.6 43.5 2.4 3.8 8.1 10.1 20.3 10.1 6 0 13.5-1.6 22.7-4.8 2.8 4 7.2 8 14 11.2 2.4 1.1 5 2.1 7.7 2.9-2.8 5.9-4.4 11.7-4.4 17.3z" fill="#36434f"/></svg>