<svg xmlns="http://www.w3.org/2000/svg" viewBox="0 0 512 512" xml:space="preserve"><path d="M256 0C132.3 0 32 62 32 138.5V149c0 17.7 14.3 32 32 32h115.8c-23.5 67.3-38.3 154.8-38.3 218.8 0 106.7 41.1 112.3 95 112.3 6.3 0 12.8-.1 19.5-.1 6.7 0 13.3.1 19.7.1 53.8 0 94.8-5.7 94.8-112.3 0-64.1-14.8-151.5-38.3-218.8H448c17.7 0 32-14.3 32-32v-10.5C480 62 379.7 0 256 0zm65.7 200c19.9 62.5 32.8 140.9 32.8 199.8 0 43.9-7.1 71.4-21.7 84-11.8 10.3-29.2 12.2-57.1 12.2h-39.2c-28 0-45.4-1.9-57.3-12.2-14.6-12.7-21.8-40.2-21.8-84 0-58.8 12.9-137.2 32.8-199.7 2.1-6.7 4.3-13.1 6.5-19.1h118.5c2.2 6 4.4 12.3 6.5 19zM464 149c0 8.8-7.2 16-16 16H64c-8.8 0-16-7.2-16-16v-10.5c0-31.2 20.6-61.2 58-84.3 19.2-11.9 41.7-21.2 66.8-27.8C199.2 19.5 227.1 16 256 16s56.8 3.5 83.1 10.4c25.1 6.6 47.6 15.9 66.8 27.8 37.4 23.1 58 53.1 58 84.3V149z" fill="#36434f"/></svg>