<svg version="1.1" xmlns="http://www.w3.org/2000/svg" x="0" y="0" viewBox="0 0 512 512" xml:space="preserve"><path d="M256 477c7.4 0 14.1 2.7 19.2 7.1-6.2 1.2-12.7 1.9-19.2 1.9s-13-.6-19.2-1.9c5.1-4.4 11.8-7.1 19.2-7.1zm0-110c-35.6 0-64.5 19.7-64.5 44 0 13.5 8.9 25.6 22.9 33.6 3 12.1 20.4 21.4 41.6 21.4s38.6-9.3 41.6-21.4c14-8.1 22.9-20.1 22.9-33.6 0-24.3-28.9-44-64.5-44zm256-69c0 25.5-2.3 50.4-6.7 74.7-3.5 19.2-8.4 38-14.4 56.2-5.3 16-11.6 31.6-18.8 46.6-6.2 13-19.1 21.9-33.5 22.4h-1.5c-21.7 0-40.5-17.9-49-43.6-1.3-3.8-2.1-7.6-2.6-11.5-1.6-12.2.5-24.6 5.9-35.8 5.9-12.1 11.1-24.6 15.8-37.4 1.5-4.2 3-8.5 4.4-12.8C424.8 316.3 432 273 432 228c0-17.4-1.1-34.6-3.2-51.5l-62 269.6c-3.6 15.6-12.8 29.3-26 38.3-18.4 12.7-48 27.5-84.8 27.5s-66.4-14.9-84.8-27.5c-13.2-9-22.4-22.7-26-38.3l-24.7-107.2-16.3-71.1-21-91.4c-2.1 17-3.2 34.2-3.2 51.6 0 45 7.2 88.3 20.5 128.9 1.4 4.3 2.9 8.6 4.4 12.8 4.7 12.8 9.9 25.2 15.8 37.4 5.4 11.2 7.5 23.7 5.9 35.8-.5 3.9-1.4 7.7-2.6 11.5-8.6 25.7-27.3 43.6-49 43.6h-1.5c-14.4-.6-27.3-9.4-33.5-22.4-7.2-15.1-13.5-30.6-18.8-46.6-6.1-18.2-10.9-37-14.4-56.2C2.3 348.4 0 323.5 0 298c0-71.1 18-138 49.6-196.4 14.8-27.3 40.6-46.9 71-53.3.2 0 .3-.1.5-.1 5.9-1.2 11.9-2.2 18-2.9 8.6-7.9 18.1-14.9 28.2-20.9h.1c1.2-.7 2.5-1.4 3.7-2.1.1 0 .1-.1.2-.1 1.2-.7 2.4-1.3 3.6-2 .1-.1.2-.1.3-.2l3.6-1.8c.1-.1.3-.1.4-.2 1.2-.6 2.4-1.2 3.6-1.7.1-.1.3-.1.4-.2 1.2-.6 2.4-1.1 3.6-1.6.1-.1.3-.1.4-.2 1.2-.5 2.5-1 3.7-1.6.1 0 .2-.1.4-.2l3.9-1.5c.1 0 .2-.1.2-.1 1.4-.5 2.8-1 4.1-1.5C217.2 3.3 236.2 0 256 0s38.8 3.3 56.5 9.4c1.4.5 2.8 1 4.1 1.5.1 0 .2.1.2.1l3.9 1.5c.1 0 .2.1.4.2 1.2.5 2.5 1 3.7 1.6.1.1.3.1.4.2 1.2.5 2.4 1.1 3.6 1.6.1.1.3.1.4.2 1.2.6 2.4 1.1 3.6 1.7.1.1.3.1.4.2l3.6 1.8c.1.1.2.1.3.2 1.2.6 2.4 1.3 3.6 2 .1 0 .1.1.2.1 1.2.7 2.5 1.4 3.7 2.1h.1c10.1 6 19.6 13 28.2 20.9 6.1.7 12.1 1.6 18 2.9.2 0 .3.1.5.1 30.3 6.4 56.2 26 71 53.3C494 160 512 226.9 512 298zM351.9 112.4c5.6 3.8 10.9 8.1 15.7 12.9 5.2 5.3 13.2 6.1 19.3 2.6 1.2-.7 2.3-1.5 3.3-2.5 6.3-6.2 6.3-16.4.1-22.6-6.3-6.3-13.2-12-20.5-16.9-7.3-4.9-17.3-3-22.2 4.3-5 7.3-3 17.3 4.3 22.2zm7.4 51.6c-1.8-1.3-4.3-.8-5.6 1-3 4.3-4.9 9.4-5.5 14.6-.3 2.2 1.3 4.2 3.5 4.4h.5c2 0 3.7-1.5 4-3.5.5-3.9 1.9-7.7 4.2-11 1.2-1.7.8-4.2-1.1-5.5zm-39.8 32.7c0 6.3 1.1 12.4 3.1 18.1 8.9 6.4 19.9 10.2 31.7 10.2-11.8-5.5-20.3-21.8-20.3-41 0-13.2 4-24.9 10.3-32.8-14.9 9.7-24.8 26.4-24.8 45.5zm-151.8-45.5c6.3 7.9 10.3 19.7 10.3 32.8 0 19.3-8.5 35.5-20.3 41 11.8 0 22.8-3.8 31.7-10.2 2-5.7 3.1-11.7 3.1-18.1 0-19.1-9.9-35.8-24.8-45.5zm-16 18.4c2.3 3.3 3.7 7.1 4.2 11 .2 2 2 3.5 4 3.5h.5c2.2-.3 3.8-2.3 3.5-4.4-.6-5.2-2.5-10.3-5.5-14.6-1.3-1.8-3.7-2.3-5.6-1-1.9 1.2-2.4 3.7-1.1 5.5zm-19.9-44.2c1 1 2.1 1.8 3.3 2.5 6.1 3.5 14.1 2.7 19.3-2.6 4.8-4.8 10.1-9.2 15.7-12.9 7.3-4.9 9.3-14.9 4.3-22.2-4.9-7.3-14.9-9.3-22.2-4.3-7.4 5-14.3 10.7-20.5 16.9-6.2 6.3-6.2 16.4.1 22.6zm-.3 92.8c-7-7.9-11.5-20.3-11.5-34.2 0-19.8 9-36.4 21.3-41.4-1-.1-2-.1-3-.1-11.8 0-22.8 3.8-31.7 10.2-2 5.7-3.1 11.7-3.1 18.1 0 20.4 11.3 38.2 28 47.4zM377.6 328c-56.9-48.1-93.1-120.1-93.1-200.5 0-36.8 7.6-71.8 21.2-103.5-15.8-5.2-32.6-8-49.7-8-17.2 0-33.9 2.7-49.7 8 13.7 31.8 21.2 66.8 21.2 103.5 0 80.4-36.1 152.3-93.1 200.5l26.4 114.6c2.7 11.8 9.6 22 19.4 28.7 16.5 11.3 43 24.7 75.8 24.7s59.3-13.5 75.8-24.7c9.8-6.7 16.7-16.9 19.4-28.7L377.6 328zm30.9-157.2c0-6.3-1.1-12.4-3.1-18.1-8.9-6.4-19.9-10.2-31.7-10.2-1 0-2 0-3 .1 12.3 5 21.3 21.7 21.3 41.4 0 14-4.5 26.4-11.5 34.2 16.7-9.2 28-27 28-47.4z" fill="#36434f"/></svg>