<svg version="1.1" xmlns="http://www.w3.org/2000/svg" x="0" y="0" viewBox="0 0 512 512" xml:space="preserve"><path d="M278.3 106.8c.4 0 .7 0 1.1.1 13.1 1.4 26.4 29.7 23.2 60.9-2.6 25.4-15.5 43.1-31.5 43.1-.8 0-1.5 0-2.3-.1-9.5-1-15.4-7.5-18.7-12.8-5.7-9.2-8.1-22.1-6.6-36.3 1.5-14.7 6.9-29.5 14.8-40.4 6.4-9.2 13.9-14.5 20-14.5m-107 9.8c13.2 0 31 25.5 33.3 57.1 1 14.6-1.7 27.7-7.6 36.9-3.4 5.2-9.4 11.6-19.1 12.2-.5 0-1.1.1-1.6.1-16.9 0-30.5-18.9-32.4-45-1.1-15.6 2-31.8 8.4-44.3 5.2-10.1 12.1-16.5 18.3-16.9.2-.1.4-.1.7-.1m204.5 16.8c.7 0 1.3.1 1.9.2 9.7 2.5 18.7 29.1 10.9 59.4-3.1 11.9-8.2 21.6-14.7 28.1-3.6 3.6-9.4 7.9-16.5 7.9-1.5 0-2.9-.2-4.4-.6-5-1.3-9-4.5-12-9.7-5.6-9.5-6.5-23.7-2.5-38.9 3.3-12.8 9.9-25.4 18-34.5 6.6-7.3 14-11.9 19.3-11.9M73.5 193.9c13.4 0 31.7 22.4 36.1 52.4 2.6 17.6-.2 33.6-7.8 43.7-4 5.3-8.9 8.5-14.5 9.3-1 .1-2 .2-3 .2-7 0-14.3-3.7-20.4-10.5-7.4-8.2-12.6-20.2-14.6-33.8-2.9-19.7 1.1-40.3 10.2-52.5 2.6-3.5 6.8-7.8 12.1-8.6.7-.2 1.3-.2 1.9-.2m373.4 10.8c.8 0 1.5.1 2.3.3 8.7 2.2 15.3 20.2 10.8 38-3.3 12.8-11.5 20.7-21.2 20.7-1.5 0-3.1-.2-4.7-.6-11.8-3.1-17.3-15.6-13.4-30.4 4.1-16 17.2-28 26.2-28m-203.1 72.5c22.1 0 46.5 3.6 70.7 10.3 6.2 1.7 12 3.5 17.7 5.5 38.5 13.2 72.4 33.1 95.6 56 6.5 6.4 9.9 15.1 9.6 24.3-.4 9.2-4.4 17.5-11.4 23.4-20.3 17.1-74.3 31.7-104.2 31.7-2.4 0-4.6-.1-6.5-.3-8.1-.8-14.9-1.9-21.4-3-8.3-1.4-16.1-2.7-24.2-2.7-10.9 0-21.1 2.4-32 7.5-22.1 10.4-39.7 27.8-48.4 47.9v.2c-1.1 2.7-2.6 4.8-4.4 6.3-9 7.5-20.7 11.6-33.2 11.6-16.6 0-31.7-7.3-40.6-19.4L82 436.4c-11.5-15.8-18.6-34.2-18.6-47.9 0-18.7 14.2-36 37.2-45.3h.2c3.2-1.3 31.9-13.2 43.9-21.6 6.6-4.6 15.4-12.3 26.3-22.7l.6-.5.5-.6.3-.3.2-.2.2-.2c13.6-12.6 39.5-19.9 71-19.9M304.1 0c-5.5 0-18.5 15.4-21.1 28.6-2.7 13.6 3.3 19.1 11.8 20.8 1.5.3 2.9.5 4.3.5 6.7 0 12.4-3.8 14.6-15.1 2.7-13.6-4-33.6-9.1-34.7-.2 0-.3-.1-.5-.1zM176.8 3.5c-5.2 0-15.7 18.3-15.7 32.2 0 13.9 7 18.1 15.7 18.1s15.7-4.2 15.7-18.1c0-13.9-10.5-32.2-15.7-32.2zm229.7 68c-4 0-14.2 8.5-17.5 16.8-3.5 8.8-.1 13.3 5.5 15.5 1.6.6 3.2 1 4.7 1 3.8 0 7.4-2.3 9.9-8.6 3.5-8.9 1.4-23.3-1.9-24.6-.2-.1-.5-.1-.7-.1zM67.4 86.8c-5.2 0-15.7 18.3-15.7 32.2s7.1 18.1 15.7 18.1c8.7 0 15.7-4.2 15.7-18.1S72.7 86.8 67.4 86.8zm210.9 4c-24.1 0-47 33.1-50.8 69.1-3.9 37.4 14.5 64.1 39.6 66.7 1.3.1 2.6.2 3.9.2 23.5 0 43.9-22 47.5-57.5 3.8-37.5-12.4-75.8-37.5-78.4-.9-.1-1.8-.1-2.7-.1zm-107 9.8c-.6 0-1.2 0-1.9.1-25.6 1.8-44.2 40.2-41.5 78.3 2.6 36.7 23.9 59.9 48.4 59.9.9 0 1.8 0 2.7-.1 25.6-1.8 44.2-28.1 41.5-66.2-2.6-37.2-24.4-72-49.2-72zm204.5 16.8c-21.1 0-44.6 26.9-52.8 58.5-9.1 34.8 3.6 62.3 26 68.1 2.8.7 5.6 1.1 8.4 1.1 19.7 0 38.8-17.6 46.7-48.1 9-34.8 0-73.1-22.4-78.9-1.9-.5-3.9-.7-5.9-.7zm97.4 44c-2.6 0-9.1 4.8-11.5 9.6-2.5 5.5-.6 8.4 2.8 10 1.1.5 2.2.8 3.3.8 2.2 0 4.3-1.3 6.1-4.9 2.6-5.4 1.9-14.4-.1-15.4-.2-.1-.4-.1-.6-.1zM73.5 177.9c-1.4 0-2.8.1-4.2.3-25.4 3.7-41.4 41.5-35.8 79.3 5.2 35.2 27.3 58 50.8 58 1.7 0 3.5-.1 5.3-.4 25.4-3.7 41.4-33.4 35.8-71.2-5.3-35.7-28-66-51.9-66zm373.4 10.8c-17.7 0-36 18-41.8 40-6.4 24.6 5.5 44.8 24.9 49.9 2.9.7 5.8 1.1 8.7 1.1 16.3 0 31.3-11.8 36.7-32.7 6.3-24.6-2.9-52.5-22.3-57.5-2.1-.5-4.1-.8-6.2-.8zm-203.1 72.5c-35.5 0-64.9 8.4-82 24.2-.7.6-1.4 1.3-2 2-4.6 4.4-16 15.2-24.5 21.2-10.9 7.6-40.8 19.9-40.8 19.9-28.1 11.3-47.2 34-47.2 60.1 0 17.1 8.2 38.7 21.7 57.3L98.1 486c11.4 15.7 31.1 26 53.5 26 16.8 0 32-5.8 43.4-15.3 4-3.3 7-7.7 9-12.5 6.9-16 21.1-30.7 40.5-39.8 9.5-4.5 17.4-6 25.2-6 12.4 0 24.8 3.8 44.1 5.6 2.5.2 5.2.3 8 .3 33.5 0 91-15.7 114.5-35.4 21.7-18.2 23-51.4 2.8-71.3-23.9-23.6-59.4-45.2-101.6-59.7-6.3-2.2-12.5-4.1-18.7-5.8-26.4-7.4-51.9-10.9-75-10.9z" fill="#36434f"/></svg>