<svg xmlns="http://www.w3.org/2000/svg" viewBox="0 0 512 512" style="enable-background:new 0 0 512 512" xml:space="preserve"><path d="M509 92.9c-4.6-24.2-23.8-43-48.1-47l-16.2-2.7c-30.5-5.1-60.8 10.6-74.2 38.5l-21.4 42.5c-31-18.4-64.7-27.8-98.3-27.8-30.7 0-61.4 7.8-89.9 23.7l-19.4-38.4c-13.4-28-43.6-43.7-74.2-38.6l-16.2 2.7C26.8 49.9 7.6 68.7 3 92.9c-4.3 22.6-4 45.9.9 68.4L9 184.6c5.8 26.8 29.6 46 57.1 46h7.7C8.7 388.9 137.4 469.8 262.7 469.8c123.4 0 243.3-78.6 171.2-239.2h12c27.5 0 51.2-19.1 57.1-46l5.1-23.4c4.9-22.5 5.2-45.7.9-68.3zM66.1 211.4c-8.9 0-17.6-3.1-24.6-8.7-6.9-5.6-11.8-13.5-13.7-22.2l-5.1-23.4c-4.4-20.1-4.7-40.5-.8-60.7C25 80.2 38 67.5 54.2 64.8l16.2-2.7c2.7-.5 5.5-.7 8.3-.7 19.2 0 37 11.2 45.4 28.6l.1.2.1.2 20.1 40c-8.6 6-17 12.7-25.1 20.3-15.3 21.3-27.4 41.6-36.9 60.8H66.1zm361.1 163.3c-12.6 24.5-35.1 44.8-65.1 58.7-28.8 13.3-63.2 20.4-99.5 20.4-37.7 0-75.4-8-106.2-22.4-32.7-15.3-57.2-37.5-70.9-64.1-27.7-53.8-11.8-125.1 45.9-206.2 34.6-32 75.9-48.9 119.3-48.9 22.3 0 44.5 4.5 65.9 13.4 21.5 8.9 41.8 22.1 60.1 39.1 60.3 84.3 77.7 156.9 50.5 210zm62.1-217.6-5.1 23.4c-1.9 8.7-6.8 16.6-13.7 22.2-6.9 5.6-15.7 8.7-24.6 8.7h-21.4c-9.5-18.1-21.3-37.2-35.7-57.2-7.6-7.1-15.5-13.6-23.6-19.4l22.4-44.4.1-.2.1-.2c8.3-17.3 26.1-28.6 45.4-28.6 2.8 0 5.6.2 8.3.7l16.2 2.7C474 67.5 487 80.2 490 96.4c3.9 20.2 3.6 40.7-.7 60.7zm-324.1 89.2c-16.3 0-29.5 13.2-29.5 29.5s13.2 29.5 29.5 29.5 29.5-13.2 29.5-29.5-13.2-29.5-29.5-29.5zm-11 24.4c-2.9 0-5.2-2.3-5.2-5.2 0-2.9 2.3-5.2 5.2-5.2 2.9 0 5.2 2.3 5.2 5.2 0 2.9-2.3 5.2-5.2 5.2zm192.6-24.4c-16.3 0-29.5 13.2-29.5 29.5s13.2 29.5 29.5 29.5 29.5-13.2 29.5-29.5-13.2-29.5-29.5-29.5zm-11 24.4c-2.9 0-5.2-2.3-5.2-5.2 0-2.9 2.3-5.2 5.2-5.2 2.9 0 5.2 2.3 5.2 5.2 0 2.9-2.3 5.2-5.2 5.2zm-27.4 67.8c1.1 4.3 1.7 8.9 1.7 13.6 0 29.9-24.2 54.1-54.1 54.1s-54.1-24.2-54.1-54.1c0-4.7.6-9.2 1.7-13.6l14-54.1c4.4-17.1 19.9-29.7 38.4-29.7s34 12.6 38.4 29.7l14 54.1z" style="fill:#36434f"/></svg>