<svg version="1.1" xmlns="http://www.w3.org/2000/svg" x="0" y="0" viewBox="0 0 512 512" xml:space="preserve"><path d="M510 288.1c.7-.3 1.4-.6 2-.9-1.6.4-3.3.8-5.1 1.2-1.9.4-3.8.6-5.7.9-21.4 2.4-39.6-4.2-40.7-14.9-.2-1.8.1-3.5.8-5.2.1-.3.2-.5.3-.8 0-.1.1-.2.1-.2l.3-.6c.1-.1.2-.3.3-.4.1-.2.2-.3.3-.5.2-.3.4-.6.7-.9-.3.2-.7.3-1 .5-22 10.3-37.9 14.2-42 9.3-.1-.1-.2-.3-.3-.4-.1-.2-.2-.4-.3-.5-3.9-8.9 20.8-35.1 58.6-63.3l-2.4.6c-10.1 2.1-19.3.2-25.1-6.4-9.1-10.3-6.5-28.8 5.1-44.4h-.2c-.4 0-.9-.1-1.3-.1-2.7-.4-5.3-1.3-7.5-2.9-10-7-11.1-23.9-3.3-39.6.3-.5.5-1.1.8-1.6v-.1c.3-.5.6-1.1.9-1.6-.5.6-.9 1.1-1.4 1.6l-.2.2c-.5.6-1.1 1.1-1.6 1.7-10.8 10.8-24.5 14.5-33.6 8.1-1.4-1-2.5-2.1-3.6-3.4-.1-.2-.3-.3-.4-.5-.1.5-.2 1-.4 1.6-.1.4-.2.8-.3 1.1-2.9 9.6-10.5 16.5-19.4 16.5-7.7 0-14.5-5.2-18-12.8-.2-.3-.3-.7-.5-1.1-.2.5-.4.9-.5 1.4-17.2 45.1-35.1 76.9-43.3 75.6-.2 0-.4-.1-.5-.1l-.6-.3c-7.5-4.7-1.1-45.5 14.5-95.8.2-.8.5-1.5.7-2.3-8.7 5.9-18.4 7.5-26.3 3.3-11.6-6.2-15.6-22.9-10.7-40 .2-.7.4-1.5.7-2.2.1-.2.1-.4.2-.6.2-.5.4-1.1.6-1.6.1-.2.2-.5.3-.7.2-.5.4-1 .6-1.6.1-.2.2-.4.3-.7.3-.7.7-1.4 1-2.2.4-.9.9-1.7 1.4-2.6-.3.4-.7.7-1 1-5.1 4.9-11.7 7.8-19 7.8-13 0-24.1-9.5-28-22.7-.2-.6-.4-1.2-.5-1.9-.2.6-.3 1.3-.5 1.9-3.9 13.2-15 22.7-28 22.7-7.2 0-13.8-2.9-19-7.8-.4-.3-.7-.7-1-1 .5.8.9 1.7 1.4 2.6.4.7.7 1.4 1 2.2.1.2.2.4.3.7.2.5.4 1 .6 1.6.1.2.2.5.3.7.2.5.4 1.1.6 1.6.1.2.1.4.2.6.2.7.5 1.5.7 2.2 5 17.1.9 33.8-10.7 40-7.9 4.2-17.6 2.6-26.3-3.3.2.8.5 1.6.7 2.3 15.6 50.3 22 91.1 14.5 95.8l-.6.3c-.2.1-.4.1-.5.1-8.1 1.3-26-30.5-43.3-75.6-.2-.5-.4-.9-.5-1.4-.1.4-.3.7-.5 1.1-3.6 7.6-10.3 12.8-18 12.8-8.9 0-16.5-6.9-19.4-16.5-.1-.4-.2-.7-.3-1.1-.1-.5-.3-1-.4-1.6-.1.2-.3.3-.4.5-1 1.3-2.2 2.5-3.6 3.4-9.1 6.4-22.7 2.7-33.6-8.1-.5-.5-1.1-1.1-1.6-1.7l-.2-.2c-.5-.5-1-1.1-1.4-1.6.3.5.6 1.1.9 1.6v.1c.3.5.6 1.1.8 1.6 7.8 15.7 6.7 32.6-3.3 39.6-2.3 1.6-4.8 2.5-7.5 2.9-.4.1-.9.1-1.3.1h-.2c11.7 15.6 14.3 34.1 5.1 44.4-5.8 6.5-15 8.5-25.1 6.4-.8-.2-1.6-.3-2.4-.6 37.8 28.2 62.5 54.5 58.6 63.3-.1.2-.2.4-.3.5-.1.2-.2.3-.3.4-4.1 4.9-20 1-42-9.3-.3-.2-.7-.3-1-.5.2.3.5.6.7.9.1.2.2.3.3.5.1.1.2.3.3.4l.3.6c0 .1.1.2.1.2.1.3.2.5.3.8.7 1.7 1 3.5.8 5.2-1.1 10.7-19.4 17.4-40.7 14.9-1.9-.2-3.8-.5-5.7-.9-1.7-.3-3.4-.7-5.1-1.2.7.3 1.4.6 2 .9.7.3 1.3.6 2 1 1.8.9 3.6 2 5.4 3.1 15.3 10.1 23.4 25.1 18.2 33.6-.9 1.4-2.1 2.6-3.5 3.4-.3.2-.6.4-1 .5h-.1c-.3.2-.7.3-1.1.5 19.1 1.5 33.8 12.4 33.8 25.7 0 7.2-4.3 13.6-11.3 18.3-.5.3-.9.6-1.4.9-.3.2-.6.4-.9.5l-.6.3c1-.3 2-.6 2.9-.9.7-.2 1.5-.4 2.2-.7 39.1-11.4 73.6-6.4 81.2 13.4 4.7 12.2-1.9 27.6-16.1 42.2l-1.7 1.7c-.5.5-1.1 1.1-1.7 1.6l-.1.1c-.5.5-1 1-1.6 1.4-.1.1-.2.2-.3.2-.6.5-1.2 1.1-1.8 1.6.7-.4 1.4-.7 2.1-1.1 28.1-14.6 52.5-19.1 58.1-9.6 1.1 1.9 1.4 4.3 1 7 12.3-33.2 45.2-57.5 84.6-59.8l3.6 1.2-.1 42V443l.1 24.8c0 1.1.9 2 2 2s2-.9 2-2l.1-24.8v-26.8l-.1-42 3.5-1.2h.1c39.4 2.3 72.3 26.6 84.6 59.8-.4-2.7-.2-5.1 1-7 5.6-9.5 30-5.1 58.1 9.6.7.4 1.4.7 2.1 1.1-.6-.5-1.2-1.1-1.8-1.6-.1-.1-.2-.2-.3-.2-.5-.5-1.1-1-1.6-1.4l-.1-.1c-.6-.5-1.1-1.1-1.7-1.6l-1.7-1.7c-14.2-14.6-20.8-30-16.1-42.2 7.5-19.8 42-24.8 81.2-13.4.7.2 1.5.4 2.2.7 1 .3 2 .6 2.9.9l-.6-.3c-.3-.2-.6-.4-.9-.5-.5-.3-1-.6-1.4-.9-7-4.7-11.3-11.1-11.3-18.3 0-13.2 14.8-24.1 33.8-25.7-.4-.1-.7-.3-1.1-.5h-.1c-.3-.2-.7-.3-1-.5-1.4-.9-2.6-2-3.5-3.4-5.2-8.5 2.9-23.6 18.2-33.6 1.8-1.2 3.6-2.2 5.4-3.1 1.2-.3 1.9-.7 2.6-1z" fill="#36434f"/></svg>