<svg version="1.1" xmlns="http://www.w3.org/2000/svg" x="0" y="0" viewBox="0 0 512 512" xml:space="preserve"><path d="M506 210h-18.5v-22.6c0-2.1-1.1-4.1-2.9-5.2l-19.2-11.4c-.9-.6-2-.8-3.1-.8H320.5v-34c0-6.6-5.4-12-12-12h-105c-6.6 0-12 5.4-12 12v34H49.7c-1.1 0-2.1.3-3.1.8l-19.2 11.4c-1.8 1.1-2.9 3-2.9 5.2V210H6c-3.3 0-6 2.7-6 6v19h512v-19c0-3.3-2.7-6-6-6zm-302-58c0-3.3 2.7-6 6-6h92c3.3 0 6 2.7 6 6v18H204v-18zM5.1 251H507l-3.5 19.5c-.3 1.5-1.5 2.5-3 2.5H494l-10 104.1c-.5 6.2-5.7 10.9-11.9 10.9H39.9c-6.1 0-11.3-4.7-11.9-10.9L18 273h-6.4c-1.5 0-2.7-1.1-3-2.5L5.1 251z" fill="#36434f"/></svg>