<svg xmlns="http://www.w3.org/2000/svg" viewBox="0 0 512 512" style="enable-background:new 0 0 512 512" xml:space="preserve"><path d="M256 8c39.1 0 71 43.1 71 96v1.7l-.1 6.9 6.8 1.1c37.5 5.9 76.7 20.4 107.8 39.8 28.3 17.7 45.9 37.4 45.9 51.5 0 25.4-37.7 50-93.8 61.1l-11.8 2.3 6.7 10 105.9 157c6.3 9.3 9.6 20.1 9.6 31.3V480c0 13.2-10.8 24-24 24H360.6c-18.6 0-36-9.2-46.4-24.7l-51.5-76.4-6.6-9.8-6.6 9.8-51.5 76.4c-10.4 15.5-27.8 24.7-46.4 24.7H32c-13.2 0-24-10.8-24-24v-13.3c0-11.2 3.3-22 9.6-31.3l105.9-157 6.7-10-11.8-2.3C62.3 255 24.6 230.5 24.6 205c0-14.1 17.6-33.8 45.9-51.5 31-19.4 70.3-33.9 107.8-39.8l6.8-1.1-.1-6.9V104c0-52.9 31.9-96 71-96m0-8c-43.6 0-79 46.6-79 104v1.8C95.5 118.7 16.6 169 16.6 205c0 30.8 41.2 57.2 100.2 68.9l-105.9 157C3.8 441.5 0 454 0 466.7V480c0 17.7 14.3 32 32 32h119.4c21.3 0 41.2-10.6 53.1-28.2l51.5-76.4 51.5 76.4a64.13 64.13 0 0 0 53.1 28.2H480c17.7 0 32-14.3 32-32v-13.3c0-12.8-3.8-25.2-10.9-35.8L395.2 274c59-11.7 100.2-38.2 100.2-68.9 0-36-78.9-86.4-160.4-99.3V104c0-57.4-35.4-104-79-104z" style="fill:#36434f"/></svg>