<svg xmlns="http://www.w3.org/2000/svg" viewBox="0 0 512 512" xml:space="preserve"><path d="M367 323h-2V96c0-53-43-96-96-96h-22c-53 0-96 43-96 96v227h-2c-8.8 0-16 7.2-16 16v25c0 8.8 7.2 16 16 16h36.3l6.3 3.8c.3.2.6.3.9.5V512h20V384.3c.3-.2.6-.3.9-.5l6.3-3.8h72.6l6.3 3.8c.3.2.6.3.9.5V512h20V384.3c.3-.2.6-.3.9-.5l6.3-3.8H367c8.8 0 16-7.2 16-16v-25c0-8.8-7.2-16-16-16zm0 41h-44.7l-3.8 2.3-6.3 3.8c-.8.5-1.7.7-2.6.7s-1.8-.3-2.6-.7l-6.3-3.8-3.8-2.3h-81.4l-3.8 2.3-6.3 3.8c-.8.5-1.7.7-2.6.7s-1.8-.3-2.6-.7l-6.3-3.8-3.8-2.3H149v-25h18V96c0-44.1 35.9-80 80-80h22c44.1 0 80 35.9 80 80v243h18v25zM240.4 226l-6.6 7.2c-1 1.1-2.5 1.8-4 1.8h-5c-3 0-5.4 2.4-5.4 5.4v84.1c0 3-2.4 5.4-5.4 5.4h-22c-3 0-5.4-2.4-5.4-5.4V210.4c0-3 2.4-5.4 5.4-5.4h24.1c1 0 1.9.3 2.8.8l20.3 12c2.9 1.6 3.5 5.7 1.2 8.2zm85-15.6v114.2c0 3-2.4 5.4-5.4 5.4h-30.3c-1.4 0-2.8-.6-3.8-1.6L258 300.6c-1-1-1.6-2.4-1.6-3.8v-55c0-1 .3-1.9.7-2.8l8.5-14.5c1.5-2.6.7-5.9-1.9-7.4l-3.4-2c-4.8-2.8-2.8-10.1 2.8-10.1H320c3 0 5.4 2.4 5.4 5.4z" fill="#36434f"/></svg>