<svg version="1.1" xmlns="http://www.w3.org/2000/svg" x="0" y="0" viewBox="0 0 512 512" xml:space="preserve"><path d="M287.5 410h3v16h-3v-16zM379 147v365h-45v-8h21v-34H157v34h21v8h-45V147h12v-16c0-61.3 49.7-111 111-111s111 49.7 111 111v16h12zm-25.5 16c0-5-4-9-9-9h-45c-4.5 0-8.1 3.3-8.9 7.5h-3.3c-.7-4.2-4.4-7.5-8.9-7.5h-45c-4.5 0-8.1 3.3-8.9 7.5h-2.8c-.7-4.2-4.4-7.5-8.9-7.5h-45c-5 0-9 4-9 9v291c0 5 4 9 9 9h45c4.5 0 8.1-3.3 8.9-7.5h2.8c.7 4.2 4.4 7.5 8.9 7.5h45c4.5 0 8.1-3.3 8.9-7.5h3.3c.7 4.2 4.4 7.5 8.9 7.5h45c5 0 9-4 9-9V163zm5.5-32c0-56.8-46.2-103-103-103S153 74.2 153 131h206zm-137 76h2.5v-16H222v16zm0 219h2.5v-16H222v16zm-7.1-265.3c.7.6 1.1 1.4 1.1 2.3v291c0 .5-.2 1.1-.4 1.5-.2.3-.4.6-.7.8l-.1.1-.2.2c-.1.1-.2.1-.3.2-.1 0-.1.1-.2.1-.1.1-.3.1-.4.1h-.1c-.2 0-.3.1-.5.1h-45c-.2 0-.4 0-.5-.1h-.1c-.1 0-.3-.1-.4-.1-.1 0-.1-.1-.2-.1s-.2-.1-.3-.2c-.1 0-.2-.1-.2-.2l-.1-.1c-.3-.2-.5-.5-.7-.8-.3-.4-.4-1-.4-1.5V163c0-.5.2-1.1.4-1.5.2-.3.4-.6.7-.8l.1-.1.2-.2c.1-.1.2-.1.3-.2.1 0 .1-.1.2-.1.1-.1.3-.1.4-.1h.1c.2 0 .3-.1.5-.1h45c.2 0 .4 0 .5.1h.1c.1 0 .3.1.4.1.1 0 .1.1.2.1s.2.1.3.2c.1 0 .2.1.2.2l.1.1zM195.5 418c0-2.8-2.3-5-5-5s-5 2.3-5 5 2.3 5 5 5 5-2.2 5-5zm0-219c0-2.8-2.3-5-5-5s-5 2.3-5 5 2.3 5 5 5 5-2.2 5-5zm84.9-38.3c.7.6 1.1 1.4 1.1 2.3v291c0 .5-.2 1.1-.4 1.5-.2.3-.4.6-.7.8l-.1.1-.2.2c-.1.1-.2.1-.3.2-.1 0-.1.1-.2.1-.1.1-.3.1-.4.1h-.1c-.2 0-.3.1-.5.1h-45c-.2 0-.4 0-.5-.1h-.1c-.1 0-.3-.1-.4-.1-.1 0-.1-.1-.2-.1s-.2-.1-.3-.2c-.1 0-.2-.1-.2-.2l-.1-.1c-.3-.2-.5-.5-.7-.8-.3-.4-.4-1-.4-1.5V163c0-.5.2-1.1.4-1.5.2-.3.4-.6.7-.8l.1-.1.2-.2c.1-.1.2-.1.3-.2.1 0 .1-.1.2-.1.1-.1.3-.1.4-.1h.1c.2 0 .3-.1.5-.1h45c.2 0 .4 0 .5.1h.1c.1 0 .3.1.4.1.1 0 .1.1.2.1s.2.1.3.2c.1 0 .2.1.2.2l.1.1zM261 418c0-2.8-2.3-5-5-5s-5 2.3-5 5 2.3 5 5 5 5-2.2 5-5zm0-219c0-2.8-2.3-5-5-5s-5 2.3-5 5 2.3 5 5 5 5-2.2 5-5zm26.5 8h3v-16h-3v16zm58.9-46.3c.7.6 1.1 1.4 1.1 2.3v291c0 .5-.2 1.1-.4 1.5-.2.3-.4.6-.7.8l-.1.1-.2.2c-.1.1-.2.1-.3.2-.1 0-.1.1-.2.1-.1.1-.3.1-.4.1h-.1c-.2 0-.3.1-.5.1h-45c-.2 0-.4 0-.5-.1h-.1c-.1 0-.3-.1-.4-.1-.1 0-.1-.1-.2-.1s-.2-.1-.3-.2c-.1 0-.2-.1-.2-.2l-.1-.1c-.3-.2-.5-.5-.7-.8-.3-.4-.4-1-.4-1.5V163c0-.5.2-1.1.4-1.5.2-.3.4-.6.7-.8l.1-.1.2-.2c.1-.1.2-.1.3-.2.1 0 .1-.1.2-.1.1-.1.3-.1.4-.1h.1c.2 0 .3-.1.5-.1h45c.2 0 .4 0 .5.1h.1c.1 0 .3.1.4.1.1 0 .1.1.2.1s.2.1.3.2c.1 0 .2.1.2.2l.1.1zM327 418c0-2.8-2.3-5-5-5s-5 2.3-5 5 2.3 5 5 5 5-2.2 5-5zm0-219c0-2.8-2.3-5-5-5s-5 2.3-5 5 2.3 5 5 5 5-2.2 5-5z" fill="#36434f"/></svg>