<svg xmlns="http://www.w3.org/2000/svg" viewBox="0 0 512 512" style="enable-background:new 0 0 512 512" xml:space="preserve"><path d="M256 0C114.6 0 0 114.6 0 256s114.6 256 256 256 256-114.6 256-256S397.4 0 256 0zm228.5 159.5c12.4 29.3 18.9 60.5 19.4 92.5H364.1c1-65.5 27.2-125.1 69.3-169.4 21.8 22.4 39 48.2 51.1 76.9zm-56.9-82.6C382.3 124.5 357 186.3 356 252h-96V8c32.1.5 63.2 7 92.5 19.4 27.9 11.9 53.1 28.5 75.1 49.5zM252 8v244h-96c-1-65.7-26.2-127.5-71.5-175.1 21.9-21 47.1-37.6 75-49.4C188.8 15.1 219.9 8.6 252 8zM78.7 82.6c42.1 44.3 68.2 103.8 69.3 169.4H8c.5-32.1 7-63.2 19.4-92.5 12.2-28.7 29.4-54.5 51.3-76.9zM27.5 352.5C15.1 323.2 8.6 292.1 8 260h139.9c-1 65.5-27.2 125.1-69.3 169.4-21.8-22.4-39-48.2-51.1-76.9zm56.9 82.6C129.7 387.5 155 325.7 156 260h96v244c-32.1-.5-63.2-7-92.5-19.4-27.9-11.9-53.1-28.5-75.1-49.5zM260 504V260h96c1 65.7 26.2 127.5 71.5 175.1-21.9 21-47.1 37.6-75 49.4-29.3 12.4-60.4 18.9-92.5 19.5zm173.3-74.6C391.2 385.1 365.1 325.6 364 260h140c-.5 32.1-7 63.2-19.4 92.5-12.2 28.7-29.4 54.5-51.3 76.9z" style="fill:#36434f"/></svg>