<svg version="1.1" xmlns="http://www.w3.org/2000/svg" x="0" y="0" viewBox="0 0 512 512" xml:space="preserve"><path d="M508 239.1c-.6-.3-1.2-.6-1.8-.8h-.2c-.3-.1-.5-.1-.8-.2h-.2c-.3 0-.6-.1-1-.1h-20v-10.5h-12v-5c0-4.4-3.6-8-8-8h-14c-4.4 0-8 2.9-8 6.4v-18.4c0-4.4-3.6-8-8-8h-14c-4.4 0-8 2.9-8 6.4v-18.4c0-4.4-3.6-8-8-8h-14c-4.4 0-8 2.9-8 6.4v-18.4c0-4.4-3.6-8-8-8h-14c-4.4 0-8 2.9-8 6.4v1.6c0-4.4-3.6-8-8-8h-14c-4.4 0-8 2.9-8 6.4v70.6h-8v6.5H198v-6.5h-8v-70.6c0-3.5-3.6-6.4-8-6.4h-14c-4.4 0-8 3.6-8 8v-1.6c0-3.5-3.6-6.4-8-6.4h-14c-4.4 0-8 3.6-8 8v18.4c0-3.5-3.6-6.4-8-6.4h-14c-4.4 0-8 3.6-8 8v18.4c0-3.5-3.6-6.4-8-6.4H78c-4.4 0-8 3.6-8 8v18.4c0-3.5-3.6-6.4-8-6.4H48c-4.4 0-8 3.6-8 8v5H28V238H8c-.3 0-.7 0-1 .1h-.2c-.3 0-.5.1-.8.2h-.2c-.6.2-1.3.4-1.8.8-2.4 1.4-4 4-4 6.9v20c0 3 1.6 5.5 4 6.9.6.3 1.2.6 1.8.8H6c.3.1.5.1.8.2H7c.3 0 .6.1 1 .1h20v10.5h12v2c0 4.4 3.6 8 8 8h14c4.4 0 8-2.9 8-6.4v18.4c0 4.4 3.6 8 8 8h14c4.4 0 8-2.9 8-6.4v18.4c0 4.4 3.6 8 8 8h14c4.4 0 8-2.9 8-6.4v18.4c0 4.4 3.6 8 8 8h14c4.4 0 8-2.9 8-6.4v-1.6c0 4.4 3.6 8 8 8h14c4.4 0 8-2.9 8-6.4v-67.6h8V274h116v6.5h8v67.6c0 3.5 3.6 6.4 8 6.4h14c4.4 0 8-3.6 8-8v1.6c0 3.5 3.6 6.4 8 6.4h14c4.4 0 8-3.6 8-8v-18.4c0 3.5 3.6 6.4 8 6.4h14c4.4 0 8-3.6 8-8v-18.4c0 3.5 3.6 6.4 8 6.4h14c4.4 0 8-3.6 8-8v-18.4c0 3.5 3.6 6.4 8 6.4h14c4.4 0 8-3.6 8-8v-2h12V274h20c.3 0 .7 0 1-.1h.2c.3 0 .5-.1.8-.2h.2c.6-.2 1.3-.4 1.8-.8 2.4-1.4 4-4 4-6.9v-20c0-3-1.6-5.5-4-6.9z" fill="#36434f"/></svg>