<svg xmlns="http://www.w3.org/2000/svg" viewBox="0 0 512 512" xml:space="preserve"><path d="M445.5 221.5c0 29.3-30.6 20.7-77.7 9.1 6.4-9.8 16.1-20 17.2-24.2 1.6-6.3.2-12.8-3.7-17.9-3.9-5.1-9.9-8.1-16.4-8.1H147.1c-6.5 0-12.5 3-16.4 8-4 5.1-5.3 11.7-3.7 17.9 1.1 4.2 10.8 14.4 17.2 24.2-47.1 11.6-77.7 20.3-77.7-9 0-48.9 84.8-88.5 189.5-88.5s189.5 39.6 189.5 88.5zm-60 266.9c4 11.5-4.6 23.6-16.8 23.6H143.3c-3.4 0-6.6-1-9.2-2.6l-.9-.6c-.6-.4-1.1-.8-1.6-1.3-.2-.2-.5-.4-.7-.7-.5-.5-1-1-1.4-1.6-3.6-4.5-5-10.8-2.9-17 11-31.5 28.1-90.2 28.1-149.5 0-4.7-.1-9.4-.1-14-.1-4.5-.2-9-.4-13.4-.7-13.5-1.7-26.1-3-37.8-.1-1-.2-2-.4-3-.7-6.1-1.4-11.8-2.2-17.2-.1-.9-.2-1.8-.4-2.7-.4-2.6-.8-5.2-1.3-7.7s-.8-5-1.3-7.3c-.4-2.3-.8-4.6-1.3-6.7-.1-.9-.4-1.8-.5-2.6-.2-1.1-.4-2.2-.7-3.3-.1-.2-.1-.5-.1-.7-.2-1.1-.4-2.1-.7-3.2-.5-2.6-1.1-5-1.6-7.3-.2-1-.5-2.1-.7-3.1-.3-1-.5-2-.7-2.9-.2-.9-.4-1.8-.7-2.6-1.5-5.6 2.8-11.1 8.6-11.1H365c.7 0 1.4.1 2.1.2.7.1 1.3.4 1.9.7.3.1.6.4.9.5.6.4 1.1.8 1.6 1.3s.8 1 1.2 1.6c.5.8.9 1.8 1.1 2.7.3 1.3.3 2.7-.1 4.1-.2.8-.4 1.7-.7 2.6-.3 1-.5 1.9-.7 2.9-.2 1-.5 2-.7 3.1-1.6 6.5-3.3 14.5-5 23.8-2 10.9-3.9 23.6-5.5 37.8-1.3 11.6-2.4 24.2-3 37.8-.1 2.2-.2 4.4-.3 6.7-.2 6.7-.4 13.6-.4 20.7 0 59.6 17.1 118.3 28.1 149.8zM355 273.6H157c1.3 12.3 2.3 24.9 2.9 37.5v.3h192.3v-.3c.5-12.5 1.5-25.2 2.8-37.5zM337.2 28.2c2.3-13.1-6.4-25.5-19.5-27.8-13.1-2.3-25.5 6.4-27.8 19.5l-19.3 109.4c16.5.6 32.6 2.1 47.9 4.6l18.7-105.7zM186.6 135c15.3-2.8 31.3-4.6 47.8-5.5L215 19.8C212.7 6.7 200.3-2 187.2.3c-13.1 2.3-21.8 14.7-19.5 27.8L186.6 135z" fill="#36434f"/></svg>