<svg xmlns="http://www.w3.org/2000/svg" viewBox="0 0 512 512" style="enable-background:new 0 0 512 512" xml:space="preserve"><path d="M256 0c-81.7 0-148 69.2-148 154.5C108 210 166 283 174 304s5 34 8 46c2.4 9.7 13 31.3 17 39.3v10.9c-7.4 1.9-9.1 3.9-9 6.5v.5c0 .1 0 .2.1.3v.1c0 .1.1.3.1.4v.1c0 .1.1.2.2.3v.1c.1.3.3.5.5.7.1.1.2.2.4.3.3.2.6.5 1 .7.4.2.8.4 1.3.6.8.3 1.7.6 2.8.9.7.2 1.5.4 2.4.5v5.4c-7.4 1.9-9.1 3.9-9 6.5v.5c0 .1 0 .2.1.3v.1c0 .1.1.3.1.4v.1c0 .1.1.2.2.3v.1c.1.3.3.5.5.7.1.1.2.2.4.3.3.2.6.5 1 .7.4.2.8.4 1.3.6.8.3 1.7.6 2.8.9.7.2 1.5.4 2.4.5v5.4c-7.4 1.9-9.1 3.9-9 6.5v.5c0 .1 0 .2.1.3v.1c0 .1.1.3.1.4v.1c0 .1.1.2.2.3v.1c.1.3.3.5.5.7.1.1.2.2.4.3.3.2.6.5 1 .7.4.2.8.4 1.3.6.8.3 1.7.6 2.8.9.7.2 1.5.4 2.4.5v5.4c-7.4 1.9-9.1 3.9-9 6.5v.5c0 .1 0 .2.1.3v.1c0 .1.1.3.1.4v.1c0 .1.1.2.2.3v.1c.1.3.3.5.5.7.1.1.2.2.4.3.3.2.6.5 1 .7.4.2.8.4 1.3.6.8.3 1.7.6 2.8.9.7.2 1.5.4 2.4.5v1.7c0 3.4 1.4 6.7 4 9l17 15.5 14.5 13.2c.3.3.5.8.5 1.2 0 3.6 2.9 6.4 6.4 6.4h30c3.6 0 6.4-2.9 6.4-6.4 0-.5.2-.9.5-1.2l14.5-13.2 17-15.5c2.5-2.3 4-5.6 4-9v-5.9c7.4-1.9 9.1-3.9 9-6.5-.1-2.5-1.9-4.3-9-5.7v-5.4c7.4-1.9 9.1-3.9 9-6.5-.1-2.5-1.9-4.3-9-5.7V425c7.4-1.9 9.1-3.9 9-6.5-.1-2.5-1.9-4.3-9-5.7v-5.4c7.4-1.9 9.1-3.9 9-6.5-.1-2.5-1.9-4.3-9-5.7v-6.7c4-8 14.6-29.6 17-39.3 3-12 0-25 8-46s66-94 66-149.5C404 69.2 337.7 0 256 0zm14 290h-5v-76h6c1.7 0 3-1.3 3-3 0-3.5-2.2-6.4-5.3-7.5l15-37.8c3.3 3.7 8.2 7.1 14.6 7.3h.7c4.1 0 7.9-1.1 11-2.6l-33.7 120.8c-2-.7-4.1-1.2-6.3-1.2zm-5.4-87h-17.3l-15.1-38.2c5.1 1.1 12.8 2.1 23.8 2.1s18.7-1 23.8-2.1L264.6 203zm-21.2.9c-2.6 1.3-4.4 4-4.4 7.1 0 1.7 1.3 3 3 3h6v76h-6c-2.2 0-4.3.5-6.2 1.3L202 170.5c3.3 1.5 7.3 2.7 11.7 2.6 6.3-.2 11.2-3.6 14.6-7.3l15.1 38.1zm96.7 64c-8.3 13.5-14.3 23.2-17.1 30.4-5.9 15.6-6.7 27.3-7.3 36.7-.3 4.3-.5 8.1-1.3 11.1-1.4 5.5-7.4 18.9-12.9 30.2H286V306c0-5.1-2.4-9.7-6.2-12.6l35.1-125.7c2.4-1.6 3.9-3 4.3-3.4 2.4-2.3 2.4-6.1.1-8.5-2.3-2.4-6.1-2.4-8.5-.2-1.6 1.5-6.7 5.4-11.8 5.4h-.3c-5.1-.2-8.2-6.5-8.2-6.5-.7-1.5-1.9-2.6-3.4-3.2-1.5-.5-3.1-.5-4.6.2-.1 0-7.6 3.3-26.5 3.3s-26.4-3.3-26.4-3.3c-1.4-.7-3.1-.8-4.6-.2-1.5.5-2.7 1.7-3.4 3.1 0 .1-3.1 6.4-8.2 6.6-5.2.2-10.5-3.8-12.1-5.3-2.4-2.3-6.2-2.3-8.5.1s-2.3 6.2.1 8.5c.4.4 1.9 1.8 4.3 3.4l35.1 125.7c-3.8 2.9-6.2 7.5-6.2 12.6v70.3h-15.6c-5.5-11.3-11.5-24.7-12.9-30.2-.7-3-1-6.7-1.3-11.1-.6-9.4-1.4-21.2-7.3-36.7-2.7-7.2-8.7-16.9-17.1-30.4-9.8-15.9-22-35.7-31.7-56.3-10.7-22.8-16.2-42-16.2-57.1 0-37.1 13.8-72 38.9-98.2 24.9-26 58-40.3 93.1-40.3s68.2 14.3 93.1 40.3c25.1 26.2 38.9 61.1 38.9 98.2 0 15.1-5.4 34.3-16.2 57.1-9.7 20.6-21.9 40.4-31.7 56.3z" style="fill:#36434f"/></svg>