<svg xmlns="http://www.w3.org/2000/svg" viewBox="0 0 512 512" xml:space="preserve"><path d="M6.5 401.2c-2.3 2.3-4.4 5-6.1 7.9-.3-1.7-.4-3.4-.4-5.1V108c0-1.7.1-3.4.4-5.1 1.7 2.9 3.7 5.5 6.1 7.9L151.7 256 6.5 401.2zm348.2-139.5L284.3 332c-7.6 7.6-17.6 11.7-28.3 11.7s-20.7-4.2-28.3-11.7l-70.4-70.4L12.1 406.9c-3.7 3.7-6.4 8.1-7.9 13.1 1 1.8 2.2 3.5 3.6 5 1.3 1.5 2.8 2.9 4.4 4.2l.1.1c1 .8 2.1 1.6 3.3 2.2.1 0 .1.1.2.1.5.3 1 .6 1.5.8.1.1.2.1.3.2 1.2.6 2.3 1.1 3.6 1.5.1 0 .3.1.4.1.5.2 1 .3 1.5.5.2 0 .3.1.5.1.6.2 1.2.3 1.8.4h.1c.6.1 1.3.2 1.9.3.2 0 .4 0 .5.1.5.1 1 .1 1.5.2h.6c.7 0 1.3.1 2 .1h448c.7 0 1.3 0 2-.1h.6c.5 0 1-.1 1.5-.2.2 0 .4 0 .5-.1.6-.1 1.3-.2 1.9-.3h.1c.6-.1 1.2-.3 1.8-.4.2 0 .3-.1.5-.1.5-.1 1-.3 1.5-.5.1 0 .3-.1.4-.1 1.2-.4 2.4-.9 3.6-1.5.1-.1.2-.1.3-.2.5-.3 1-.5 1.5-.8.1 0 .1-.1.2-.1 1.1-.7 2.2-1.4 3.3-2.2l.1-.1c1.6-1.3 3.1-2.6 4.4-4.2 1.3-1.6 2.5-3.2 3.6-5-1.5-4.9-4.2-9.4-7.9-13.1L354.7 261.7zm-197.4-11.4 1.9 1.9 74.1 74.1c6.2 6.2 14.4 9.4 22.6 9.4s16.4-3.1 22.6-9.4L349 256l5.7-5.7 145.2-145.2c3.7-3.7 6.4-8.1 7.9-13.1-1-1.8-2.2-3.5-3.6-5-1.3-1.5-2.8-2.9-4.4-4.2l-.1-.1c-1-.8-2.1-1.6-3.3-2.2-.1 0-.1-.1-.2-.1-.5-.3-1-.6-1.5-.8-.1-.1-.2-.1-.3-.2-1.2-.6-2.3-1.1-3.6-1.5-.1 0-.3-.1-.4-.1-.5-.2-1-.3-1.5-.5-.2 0-.3-.1-.5-.1-.6-.2-1.2-.3-1.8-.4h-.1c-.6-.1-1.3-.2-1.9-.3-.2 0-.4 0-.5-.1-.5-.1-1-.1-1.5-.2h-.6c-.7 0-1.3-.1-2-.1H32c-.7 0-1.3 0-2 .1h-.6c-.5 0-1 .1-1.5.2-.2 0-.4 0-.5.1-.6.1-1.3.2-1.9.3h-.1c-.6.1-1.2.3-1.8.4-.2 0-.3.1-.5.1-.5.1-1 .3-1.5.5-.1 0-.3.1-.4.1-1.2.4-2.4.9-3.6 1.5-.1.1-.2.1-.3.2-.5.3-1 .5-1.5.8-.1 0-.1.1-.2.1-1.1.7-2.2 1.4-3.3 2.2l-.1.1c-1.6 1.3-3.1 2.6-4.4 4.2-1.3 1.6-2.5 3.2-3.6 5 1.5 4.9 4.2 9.4 7.9 13.1l145.2 145.2zM512 108c0-1.7-.1-3.4-.4-5.1-1.7 2.9-3.7 5.5-6.1 7.9L360.3 256l145.2 145.2c2.3 2.3 4.4 5 6.1 7.9.3-1.6.4-3.3.4-5.1V108z" fill="#36434f"/></svg>