<svg version="1.1" xmlns="http://www.w3.org/2000/svg" x="0" y="0" viewBox="0 0 512 512" xml:space="preserve"><path d="M177.7 186.7h-57.2c-5 0-9 4-9 9v260c0 5 4 9 9 9h57.2c5 0 9-4 9-9v-260c0-5-4-9-9-9zm-47.2 59.2h17.7c.6 0 1-.4 1-1V222c0-1.7 1.3-3 3-3h15.5c1.7 0 3 1.3 3 3v135.4c0 1.7-1.3 3-3 3h-37.1c-1.7 0-3-1.3-3-3V248.9h-.1c0-1.7 1.3-3 3-3zm44.7 197.9v7H123v-8h52.2v1zm-37.2-17v-21.1c0-1.7 1.3-3 3-3h16.1c1.7 0 3 1.3 3 3v21.1c0 1.7-1.3 3-3 3H141c-1.7 0-3-1.3-3-3zm37.2-39.6c0 1.7-1.3 3-3 3H126c-1.7 0-3-1.3-3-3v-2c0-1.7 1.3-3 3-3h46.2c1.7 0 3 1.3 3 3v2zm-74.8-171.4H86.3c-5 0-9 4-9 9v230.9c0 5 4 9 9 9h14.1c5 0 9-4 9-9V224.9c0-5-4-9.1-9-9.1zm-7 234c-5.5 0-10-4.5-10-10s4.5-10 10-10 10 4.5 10 10-4.5 10-10 10zm9-31H85.6c-1.7 0-3-1.3-3-3v-90.3c0-1.7 1.3-3 3-3h4c.6 0 1-.4 1-1v-85.1c0-1.7 1.3-3 3-3h8.7c1.7 0 3 1.3 3 3v179.4h.1c0 1.7-1.3 3-3 3zM390.5 95.4c5 0 9.1 4 9.1 9v5c0 5-4 9-9 9H170.7c-5 0-9-4-9-9v-5c0-5 4-9 9-9h219.8zM209.8 224.9v59.4h-21.1v-59.4c0-5 4-9 9-9h3c5.1-.1 9.1 4 9.1 9zm-21.2 126.7h21.1v104.2c0 5-4 9-9 9h-3c-5 0-9-4-9-9h-.1V351.6zm-122.3-198H9c-5 0-9 4-9 9v293.1c0 5 4 9 9 9h57.2c5 0 9-4 9-9V162.6c.1-5-3.9-9-8.9-9zm-4 273.4c-.1 1.7-1.4 3-3.1 3H16.1c-1.7 0-3-1.3-3-3V300.5c0-1.7 1.3-3 3-3h43.2c1.7 0 3 1.3 3 3V427zm0-146.8c-.1 1.7-1.4 3-3.1 3H16.1c-1.7 0-3-1.3-3-3v-6c0-1.7 1.3-3 3-3h43.2c1.7 0 3 1.3 3 3v6zm419.6-40.3v56.6h-15.1v-56.6c0-5 3.4-9 7.5-9s7.6 4 7.6 9zM466.7 409h15.1v46.8c0 5-3.4 9-7.5 9s-7.5-4-7.5-9h-.1V409zM163.6 93.3h238.9c5 0 9-4 9-9V56.2c.1-5-3.9-9-8.9-9h-239c-5 0-9 4-9 9v28.1c0 5 4 9 9 9zm227.5-30.1c0-1.7 1.3-3 3-3h4c1.7 0 3 1.3 3 3v14.1c0 1.7-1.3 3-3 3h-4c-1.7 0-3-1.3-3-3V63.2zm-146.2 0c0-1.7 1.3-3 3-3h124.5c1.7 0 3 1.3 3 3v14.1c0 1.7-1.3 3-3 3H247.9c-1.7 0-3-1.3-3-3V63.2zm-79.1 0c0-1.7 1.3-3 3-3H223c1.7 0 3 1.3 3 3v14.1c0 1.7-1.3 3-3 3h-54.2c-1.7 0-3-1.3-3-3V63.2zm246.8 147.6h-17.1c-5 0-9 4-9 9v235.9c0 5 4 9 9 9h17.1c5 0 9-4 9-9V219.9c0-5.1-4-9.1-9-9.1zm2.5 204.4c0 1.7-1.3 3-3 3H396c-1.7 0-3-1.3-3-3V349c0-1.7 1.3-3 3-3h16.1c1.7 0 3 1.3 3 3v66.2zm0-103c0 1.7-1.3 3-3 3H396c-1.7 0-3-1.3-3-3V258c0-1.7 1.3-3 3-3h16.1c1.7 0 3 1.3 3 3v54.2zm49.7-116.4c0-5.1-4-9.1-9.1-9h-23.1c-5 0-9 4-9 9v218.7h41.2V195.8zm-7 197.8c0 1.7-1.3 3-3 3h-21.1c-1.7 0-3-1.3-3-3V216.9c0-1.7 1.3-3 3-3h21.1c1.7 0 3 1.3 3 3v176.7zm-34 40.9h41.1v21.3c0 5-4 9-9 9h-23.1c-5 0-9-4-9-9v-21.3zM503 234.9h-10c-5 0-9 4-9 9v211.8c0 5 4 9 9 9h10c5 0 9-4 9-9V244c0-5.1-4-9.1-9-9.1zm6 218.5c0 1.7-1.3 3-3 3h-16.1c-1.7 0-3-1.3-3-3v-78.3c0-1.7 1.3-3 3-3H506c1.7 0 3 1.3 3 3v78.3zm0-142.6c0 1.7-1.3 3-3 3h-16.1c-1.7 0-3-1.3-3-3v-62.2c0-1.7 1.3-3 3-3H506c1.7 0 3 1.3 3 3v62.2zm-239.9-106h-48.2c-5 0-9 4-9 9v241.9c0 5 4 9 9 9h48.2c5 0 9-4 9-9V213.8c0-5-4-9-9-9zM266 412.6c0 1.7-1.3 3-3 3h-36.1c-1.7 0-3-1.3-3-3v-86.3c0-1.7 1.3-3 3-3H263c1.7 0 3 1.3 3 3v86.3zm0-112.2c0 1.7-1.3 3-3 3h-36.1c-1.7 0-3-1.3-3-3v-69.3c0-1.7 1.3-3 3-3H263c1.7 0 3 1.3 3 3v69.3zm46.2-81.5h-23.1c-5 0-9 4-9 9v227.9c0 5 4 9 9 9h23.1c5 0 9-4 9-9V227.9c.1-5-4-9-9-9zm3 225.7c0 1.7-1.3 3-3 3h-23.1c-1.7 0-3-1.3-3-3v-60.2c0-1.7 1.3-3 3-3h23.1c1.7 0 3 1.3 3 3v60.2zm0-85.8c0 1.7-1.3 3-3 3h-23.1c-1.7 0-3-1.3-3-3v-26.1c0-1.7 1.3-3 3-3h23.1c1.7 0 3 1.3 3 3v26.1zm0-51c0 1.7-1.3 3-3 3h-23.1c-1.7 0-3-1.3-3-3v-68.3c0-1.7 1.3-3 3-3h23.1c1.7 0 3 1.3 3 3v68.3zm60.3-112h-43.2c-5 0-9 4-9 9v251c0 5 4 9 9 9h43.2c5 0 9-4 9-9v-251c0-5-4-9-9-9zm-3 247.1c0 1.7-1.3 3-3 3h-31.1c-1.7 0-3-1.3-3-3v-96.4c0-1.7 1.3-3 3-3h31.1c1.7 0 3 1.3 3 3v96.4zm0-120.2c0 1.7-1.3 3-3 3h-31.1c-1.7 0-3-1.3-3-3V220.3c0-1.7 1.3-3 3-3h31.1c1.7 0 3 1.3 3 3v102.4zM160.8 141.6c-5 0-9 4-9 9v25.1c0 5 4 9 9 9h271.1c5 0 9-4 9-9v-25.1c0-5-4-9-9-9H160.8zm28.1 36.6c-8.3 0-15.1-6.7-15.1-15.1s6.7-15.1 15.1-15.1c8.4 0 15.1 6.7 15.1 15.1s-6.7 15.1-15.1 15.1zm93.6-8c0 1.7-1.3 3-3 3h-44.2c-1.7 0-3-1.3-3-3v-14.1c0-1.7 1.3-3 3-3h44.2c1.7 0 3 1.3 3 3v14.1zm21.9 5c0 1.7-1.3 3-3 3h-2c-1.7 0-3-1.3-3-3v-24.1c0-1.7 1.3-3 3-3h2c1.7 0 3 1.3 3 3v24.1zm74.7-5c0 1.7-1.3 3-3 3h-50.2c-1.7 0-3-1.3-3-3v-14.1c0-1.7 1.3-3 3-3h50.2c1.7 0 3 1.3 3 3v14.1zm21 5c0 1.7-1.3 3-3 3h-2c-1.7 0-3-1.3-3-3v-24.1c0-1.7 1.3-3 3-3h2c1.7 0 3 1.3 3 3v24.1zm-246.5-35.7h292.1c5 0 9-4 9-9v-1c.1-5-3.9-9-9-9H153.6c-5 0-9 4-9 9v1c0 5 4 9 9 9zm188.2-17.4c4.4 0 7.9 3.5 7.9 7.9.1 4.4-3.4 7.9-7.9 7.9-4.4 0-7.9-3.5-7.9-7.9s3.5-7.9 7.9-7.9zm-177.9 6.4c0-1.7 1.3-3 3-3h149.6c1.7 0 3 1.3 3 3v3h-.1c0 1.7-1.3 3-3 3H166.9c-1.7 0-3-1.3-3-3v-3z" fill="#36434f"/></svg>