<svg version="1.1" xmlns="http://www.w3.org/2000/svg" x="0" y="0" viewBox="0 0 512 512" xml:space="preserve"><path d="M293.5 0h-75c-11 0-20 9-20 20v46.6c0 6 2.7 11.6 7.3 15.4l27.2 22.4c3.6 3 8.1 4.6 12.7 4.6h.3v317h-20.5v11h4v8h-14v10h-9v8h11v10h-7v9h8v10H246v12c0 4.4 3.6 8 8 8h4c4.4 0 8-3.6 8-8v-12h39.5v-12h-10v-10h-7v-9h13v-10h-18v-8h6v-8h-8v-9H266V109h.3c4.6 0 9.1-1.6 12.7-4.6L306.2 82c4.6-3.8 7.3-9.5 7.3-15.4V20c0-11-9-20-20-20zM256 44c-8 0-14.5-6.5-14.5-14.5S248 15 256 15s14.5 6.5 14.5 14.5S264 44 256 44z" fill="#36434f"/></svg>