<svg xmlns="http://www.w3.org/2000/svg" viewBox="0 0 512 512" style="enable-background:new 0 0 512 512" xml:space="preserve"><path d="M288.9 8c3.5 0 6.6 2.4 7.6 5.9l18.6 66.4 1.1 3.9 3.8 1.4c18.7 7 36.1 17.1 51.5 29.8l3.1 2.6 3.9-1 66.8-17.1c.6-.2 1.3-.2 1.9-.2 2.8 0 5.5 1.5 6.9 4l32.9 56.9c1.8 3.1 1.3 7-1.2 9.6l-48.2 49.3-2.8 2.9.6 4c1.6 10.2 2.4 19.9 2.4 29.7 0 10.4-.8 20.1-2.4 29.7l-.7 4 2.9 2.9 48.3 49.3c2.5 2.5 3 6.5 1.2 9.6l-32.9 56.9c-1.4 2.5-4.1 4-6.9 4-.7 0-1.3-.1-2-.3L378.7 395l-3.9-1-3.1 2.6c-15.6 12.8-33 22.8-51.5 29.8l-3.8 1.4-1.1 3.9-18.6 66.4c-.9 3.4-4.1 5.8-7.7 5.8h-65.7c-3.6 0-6.7-2.4-7.7-5.9L197 431.6l-1.1-3.9-3.8-1.4c-18.8-7.1-36.1-17-51.4-29.7l-3.1-2.6-3.9 1-66.9 17.1c-.7.2-1.3.3-2 .3-2.8 0-5.4-1.5-6.9-4L25 351.5c-1.8-3.1-1.3-7 1.2-9.6l48.2-49.3 2.8-2.9-.6-4c-1.8-9.9-2.6-20-2.6-29.7s.8-19.8 2.4-29.8l.6-4-2.8-2.9L26 170c-2.5-2.5-3-6.5-1.2-9.6l32.9-56.9c1.4-2.5 4.1-4 6.9-4 .7 0 1.3.1 2 .3l66.9 17.1 3.9 1 3.1-2.6c15.5-12.7 32.8-22.7 51.5-29.7l3.8-1.4 1.1-3.9 18.6-66.4c.9-3.4 4.1-5.8 7.7-5.8h65.7M256 304c26.5 0 48-21.5 48-48s-21.5-48-48-48-48 21.5-48 48 21.5 48 48 48M288.9 0h-65.7c-7.2 0-13.5 4.8-15.4 11.7l-18.6 66.4c-19.6 7.4-37.7 17.9-53.7 31L68.6 92c-1.3-.3-2.7-.5-4-.5-5.6 0-10.9 3-13.8 8l-32.9 56.9c-3.6 6.2-2.6 14.1 2.4 19.2l48.2 49.3C66.9 235 66 245.4 66 256s.9 21 2.5 31.1l-48.2 49.3c-5 5.1-6 13-2.4 19.2l32.9 56.9c2.9 5 8.2 8 13.8 8 1.3 0 2.7-.2 4-.5l66.9-17.1c15.9 13.1 34 23.6 53.7 31l18.6 66.4c1.9 6.9 8.2 11.7 15.4 11.7h65.7c7.2 0 13.5-4.8 15.4-11.7l18.6-66.4c19.7-7.4 37.8-18 53.8-31.1l66.8 17.1c1.3.3 2.6.5 4 .5 5.6 0 10.9-3 13.8-8l32.9-56.9c3.6-6.2 2.6-14.1-2.4-19.2L443.5 287c1.7-10.1 2.5-20.4 2.5-31s-.9-20.9-2.5-31l48.2-49.3c5-5.1 6-13 2.4-19.2l-32.9-56.9c-2.9-5-8.3-8-13.8-8-1.3 0-2.6.2-4 .5l-66.8 17.1c-16.1-13.3-34.3-23.8-53.8-31.1l-18.6-66.4C302.3 4.8 296 0 288.9 0zM256 296c-22.1 0-40-17.9-40-40s17.9-40 40-40 40 17.9 40 40-17.9 40-40 40z" style="fill:#36434f"/></svg>