<svg version="1.1" xmlns="http://www.w3.org/2000/svg" x="0" y="0" viewBox="0 0 512 512" xml:space="preserve"><path d="M398.4 0H113.6c-10.5 0-19 8.5-19 19v474c0 10.5 8.5 19 19 19h284.8c10.5 0 19-8.5 19-19V19c0-10.5-8.5-19-19-19zm3 493c0 1.7-1.3 3-3 3H113.6c-1.7 0-3-1.3-3-3V19c0-1.7 1.3-3 3-3h284.8c1.7 0 3 1.3 3 3v474zm-23.8-49.9H362l-3.1-9h-9.4l16.2 43.2h8.2l16-43.1h-9.4l-2.9 8.9zm-7.8 23.3l-5.4-16.1h10.8l-5.4 16.1zM351.2 406c0-3.2 2.6-5.8 5.8-5.8 3 0 8.5 3.9 9.5 5.4h2.9v-.6c-.3-5.3-3.5-9.9-8-11.9h16.8c-4.7 2.1-7.7 6.6-8 11.9v.6h2.9c1-1.6 6.6-5.4 9.5-5.4 3.2 0 5.8 2.6 5.8 5.8s-2.6 5.8-5.8 5.8c-3 0-8.5-3.9-9.5-5.4h-2.9v3.9c1.6 1 5.4 6.6 5.4 9.5 0 3.2-2.6 5.8-5.8 5.8s-5.8-2.6-5.8-5.8c0-3 3.9-8.5 5.4-9.5v-3.9h-2.9c-1 1.6-6.6 5.4-9.5 5.4-3.2-.1-5.8-2.7-5.8-5.8zM160.8 106c0 3.2-2.6 5.8-5.8 5.8-3 0-8.5-3.9-9.5-5.4h-2.9v.6c.3 5.3 3.5 9.9 8 11.9h-16.8c4.7-2.1 7.7-6.6 8-11.9v-.6H139c-1 1.6-6.6 5.4-9.5 5.4-3.2 0-5.8-2.6-5.8-5.8 0-3.2 2.6-5.8 5.8-5.8 3 0 8.5 3.9 9.5 5.4h2.9v-3.9c-1.6-1-5.4-6.6-5.4-9.5 0-3.2 2.6-5.8 5.8-5.8 3.2 0 5.8 2.6 5.8 5.8 0 3-3.9 8.5-5.4 9.5v3.9h2.9c1-1.6 6.6-5.4 9.5-5.4 3.2.1 5.7 2.7 5.7 5.8zM299 263.8c0 7.5-6.1 13.4-13.4 13.4-6.6 0-19.5-9-21.9-12.5H257v1.2c.7 12.3 7.9 22.8 18.6 27.6h-39c10.7-4.8 17.9-15.3 18.6-27.6v-1.2h-6.7c-2.3 3.5-15.2 12.5-21.9 12.5-7.5 0-13.4-6.1-13.4-13.4 0-7.5 6.1-13.4 13.4-13.4 6.6 0 19.5 9 21.9 12.5h6.7v-9c-3.5-2.3-12.5-15.2-12.5-21.9 0-7.5 6-13.4 13.4-13.4s13.4 6.1 13.4 13.4c0 6.6-9 19.5-12.5 21.9v9h6.8c2.3-3.5 15.2-12.5 21.9-12.5 7.3 0 13.4 6 13.3 13.4zM138 34.7l-16 43.1h9.4l3-8.9H150l3.1 9h9.4l-16.2-43.2H138zm-1.2 27l5.4-16.1 5.4 16.1h-10.8z" fill="#36434f"/></svg>