<svg xmlns="http://www.w3.org/2000/svg" viewBox="0 0 512 512" style="enable-background:new 0 0 512 512" xml:space="preserve"><path d="M319.8 279.7c-.6-1.8-1.2-3.6-1.8-5.3-1.9-5.3-4.1-10.4-6.4-15.2-8.9-19.9-22.1-50.5-26.5-85.2l-.3-3c-.1-1-.2-2-.3-3.1l-.3-3.9-.3-4.8c-.1-1.4-.1-2.8-.2-4.2 0-1-.1-2-.1-3-.2-8.6 0-17.4.5-26 .2-2.7.3-5.4.5-8l.3-3.9v-.1c.1-1.3.2-2.6.4-3.9v-.1c.1-1.3.3-2.6.4-3.9v-.1c.1-1.3.3-2.6.4-3.9.3-2.7.6-5.4 1-8 2.6-20.1 5.9-37 7.9-46.2 2.9-13.5-1.2-27.7-11.3-37.1C276.3 4.1 266.6 0 256 0s-20.3 4.1-27.5 10.8c-10.1 9.4-14.2 23.6-11.3 37.1 2 9.1 5.3 26.1 7.9 46.2.3 2.6.7 5.3 1 8 .3 2.6.6 5.2.8 7.9.1 1.3.2 2.7.4 4 .1 1.3.2 2.7.3 4 .2 2.6.4 5.3.5 8 .5 8.6.7 17.4.5 26 0 1-.1 2-.1 3 0 1.4-.1 2.8-.2 4.2l-.3 4.8-.3 3.9c-.1 1-.2 2-.3 3.1l-.3 3c-4.3 34.7-17.6 65.3-26.5 85.2-1.6 3.2-3.1 6.6-4.5 10-1.4 3.4-2.6 6.9-3.8 10.5-6.5 19.9-10.2 43-10.2 67.8 0 54.9 22.8 129.9 48 164.5h52c25.3-34.6 48-109.6 48-164.5-.1-24.7-3.8-47.9-10.3-67.8zM244 125.1c-.1-2.3-.3-4.7-.5-7.1h24.9c-.2 2.4-.3 4.8-.5 7.1-.5 9.5-.7 18.7-.5 27.3 0 .9 0 1.8.1 2.6h-23.1c0-.9.1-1.8.1-2.6.2-8.6.1-17.8-.5-27.3zM240.9 92c-2.7-21.1-6.2-38.8-8.1-47.5-1.8-8.2.8-16.6 6.6-22 4.5-4.2 10.4-6.5 16.6-6.5 6.2 0 12.1 2.3 16.6 6.5 5.8 5.4 8.3 13.8 6.6 22-1.9 8.7-5.4 26.4-8.1 47.5-.4 3.4-.8 6.7-1.2 10h-27.8c-.4-3.3-.8-6.7-1.2-10zm59.2 340.8c-7.4 25.2-17 47.7-26.6 63.2h-35c-9.7-15.5-19.2-38-26.6-63.2-9-30.3-13.9-60.6-13.9-85.3 0-22.2 3.3-43.9 9.4-62.8 1.1-3.3 2.2-6.5 3.5-9.5 1.2-3.1 2.6-6.1 4-9l.1-.3.1-.3c8-18 23-51.4 27.8-89.7.2-1.7.4-3.3.6-5h25.1c.2 1.6.4 3.3.6 5 4.8 38.3 19.7 71.8 27.8 89.7l.1.3.1.3c2.1 4.3 4 8.9 5.8 13.6.6 1.6 1.1 3.2 1.7 4.9 6.2 18.9 9.4 40.6 9.4 62.8-.1 24.7-5 55-14 85.3z" style="fill:#36434f"/></svg>