<svg xmlns="http://www.w3.org/2000/svg" viewBox="0 0 512 512" xml:space="preserve"><path d="M448 0H64C28.7 0 0 28.7 0 64v384c0 35.3 28.7 64 64 64h384c35.3 0 64-28.7 64-64V64c0-35.3-28.7-64-64-64zm48 448c0 26.5-21.5 48-48 48H64c-26.5 0-48-21.5-48-48V64c0-26.5 21.5-48 48-48h384c26.5 0 48 21.5 48 48v384zM170 120c0 27.6-22.4 50-50 50s-50-22.4-50-50 22.4-50 50-50 50 22.4 50 50zm0 272c0 27.6-22.4 50-50 50s-50-22.4-50-50 22.4-50 50-50 50 22.4 50 50zM392 70c27.6 0 50 22.4 50 50s-22.4 50-50 50-50-22.4-50-50 22.4-50 50-50zm0 272c27.6 0 50 22.4 50 50s-22.4 50-50 50-50-22.4-50-50 22.4-50 50-50z" fill="#36434f"/></svg>