<svg version="1.1" xmlns="http://www.w3.org/2000/svg" x="0" y="0" viewBox="0 0 512 512" xml:space="preserve"><path d="M403 319c.8 9.3-6.1 17.5-15.3 18.3l-260.5 22.8c-9.3.8-17.5-6.1-18.3-15.3-.8-9.3 6.1-17.5 15.3-18.3l260.5-22.8c9.4-.8 17.5 6.1 18.3 15.3zm-18.2-116.5l-260.5 22.8c-9.3.8-16.1 9-15.3 18.3.8 9.3 9 16.1 18.3 15.3l260.5-22.8c9.3-.8 16.1-9 15.3-18.3-.9-9.2-9-16.1-18.3-15.3zm0 151.8l-260.5 22.8c-9.3.8-16.1 9-15.3 18.3.8 9.3 9 16.1 18.3 15.3l260.5-22.8c9.3-.8 16.1-9 15.3-18.3-.9-9.2-9-16.1-18.3-15.3zm0-101.2l-260.5 22.8c-9.3.8-16.1 9-15.3 18.3.8 9.3 9 16.1 18.3 15.3l260.5-22.8c9.3-.8 16.1-9 15.3-18.3-.9-9.2-9-16.1-18.3-15.3zm0 202.4l-260.5 22.8c-9.3.8-16.1 9-15.3 18.3.8 9.3 9 16.1 18.3 15.3l260.5-22.8c9.3-.8 16.1-9 15.3-18.3-.9-9.2-9-16.1-18.3-15.3zm0-50.6l-260.5 22.8c-9.3.8-16.1 9-15.3 18.3.8 9.3 9 16.1 18.3 15.3l260.5-22.8c9.3-.8 16.1-9 15.3-18.3-.9-9.2-9-16.1-18.3-15.3zM127.2 56.5l260.5-22.8c9.3-.8 16.1-9 15.3-18.3-.8-9.3-9-16.1-18.3-15.3L124.3 22.9c-9.3.8-16.1 9-15.3 18.3.8 9.2 8.9 16.1 18.2 15.3zm257.6-5.8L124.3 73.5c-9.3.8-16.1 9-15.3 18.3.8 9.3 9 16.1 18.3 15.3l260.5-22.8c9.3-.8 16.1-9 15.3-18.3-.9-9.3-9-16.1-18.3-15.3zm0 50.6l-260.5 22.8c-9.3.8-16.1 9-15.3 18.3.8 9.3 9 16.1 18.3 15.3l260.5-22.8c9.3-.8 16.1-9 15.3-18.3-.9-9.3-9-16.1-18.3-15.3zm0 50.6l-260.5 22.8c-9.3.8-16.1 9-15.3 18.3.8 9.3 9 16.1 18.3 15.3l260.5-22.8c9.3-.8 16.1-9 15.3-18.3-.9-9.3-9-16.1-18.3-15.3zM172.4 512H365c9.5 0 17.1-7.6 17.1-16.9 0-.5 0-1-.1-1.5L172.4 512zm146.3-265.8l-168.6 14.7 43.2 4.9 168.6-14.7-43.2-4.9zm0-50.6l-168.6 14.7 43.2 4.9 168.6-14.7-43.2-4.9zm0 101.2l-168.6 14.7 43.2 4.9 168.6-14.7-43.2-4.9zm0 50.6l-168.6 14.7 43.2 4.9 168.6-14.7-43.2-4.9zm0-202.5l-168.6 14.7 43.2 4.9 168.6-14.7-43.2-4.9zm0 303.7l-168.6 14.7 43.2 4.9 168.6-14.7-43.2-4.9zm0-354.3L150.1 109l43.2 4.9 168.6-14.7-43.2-4.9zM339.6 0H147.1C137.6 0 130 7.6 130 16.9c0 .5 0 1 .1 1.5L339.6 0zm-20.9 398l-168.6 14.7 43.2 4.9 168.6-14.7-43.2-4.9zM193.3 63.4l168.6-14.7-43.2-4.9-168.6 14.7 43.2 4.9z" fill="#36434f"/></svg>