<svg version="1.1" xmlns="http://www.w3.org/2000/svg" x="0" y="0" viewBox="0 0 512 512" xml:space="preserve"><path d="M275.5 256c0 10.8-8.7 19.5-19.5 19.5s-19.5-8.7-19.5-19.5 8.7-19.5 19.5-19.5 19.5 8.7 19.5 19.5zm103 224.8c-1.3.7-2.7 1.4-4 2.1-.3.2-.7.4-1 .5-.9.5-1.8.9-2.7 1.4-.8.4-1.5.8-2.3 1.1-2.6 1.3-5.3 2.5-8 3.7-.4.2-.7.3-1.1.5-2.7 1.2-5.4 2.3-8.1 3.4-.2.1-.5.2-.7.3-1.2.5-2.5 1-3.7 1.4-.5.2-1 .4-1.6.6-1.1.4-2.1.8-3.2 1.2-.7.3-1.4.5-2.2.8-1.1.4-2.2.7-3.2 1.1-.3.1-.6.2-.8.3-1.8.6-3.6 1.1-5.4 1.7-.2.1-.5.1-.7.2-2.6.8-5.2 1.5-7.8 2.2-.2 0-.3.1-.5.1l-6 1.5h-.1c-19 4.5-38.9 6.9-59.3 6.9-9.6 0-19.1-.6-28.5-1.6-.4 0-.7-.1-1.1-.1-2.1-.2-4.2-.5-6.4-.8-.4-.1-.8-.1-1.2-.2-3.7-.5-7.4-1.2-11.1-1.9-.5-.1-.9-.2-1.4-.3-1-.2-2-.4-3.1-.6-.7-.2-1.5-.3-2.2-.5-1.5-.3-3.1-.7-4.6-1-.9-.2-1.7-.4-2.6-.6-.9-.2-1.8-.4-2.7-.7-1.4-.4-2.8-.7-4.2-1.1-2.8-.8-5.5-1.6-8.3-2.5-.7-.2-1.5-.5-2.2-.7-1.2-.4-2.3-.8-3.5-1.2-1.5-.5-3-1-4.5-1.6-22.5-8.2-43.5-19.5-62.6-33.3-1.7-1.3-3.4-2.5-5.1-3.8-.1-.1-.2-.1-.3-.2-1.7-1.3-3.3-2.6-5-3.9-1.6-1.3-3.3-2.7-4.9-4l-.2-.2c-4.4-3.7-8.6-7.5-12.7-11.5l-.1-.1-4.5-4.5c-3-3.1-6-6.3-8.9-9.6-1.4-1.6-2.8-3.2-4.2-4.9-20-23.8-35.7-51.2-46-81.2l-.3-.9c-.4-1.2-.8-2.3-1.1-3.5-.2-.8-.5-1.5-.7-2.3-.3-1.1-.7-2.2-1-3.3-.1-.4-.3-.8-.4-1.3-.4-1.5-.9-3-1.3-4.5 0-.1-.1-.2-.1-.4-.7-2.6-1.4-5.2-2-7.8 0-.2-.1-.3-.1-.5-1.2-5-2.2-10-3.1-15.2l-.3-1.8c-.6-3.9-1.2-7.9-1.7-11.9-.1-.6-.1-1.3-.2-1.9-.2-1.4-.3-2.8-.4-4.2-.1-.7-.1-1.4-.2-2.1-.1-.9-.2-1.8-.2-2.8-.1-1.2-.2-2.5-.2-3.7-.1-.9-.1-1.7-.2-2.6-.1-1.4-.1-2.8-.2-4.2 0-.7-.1-1.4-.1-2.1-.2-1.9-.2-4.1-.2-6.2 0-2.7.1-5.3.1-8v-.4c.1-4 .3-8 .7-12 0-.4.1-.9.1-1.3.1-1.5.3-3.1.4-4.6.2-2 .4-3.9.7-5.9.1-1.2.3-2.4.5-3.5l.3-2.4c.4-2.7.8-5.4 1.3-8.1.2-1.4.5-2.7.8-4.1.6-3 1.2-5.9 1.9-8.8.3-1.4.7-2.8 1-4.2l.6-2.1c.3-1.2.6-2.4 1-3.6.7-2.6 1.5-5.2 2.3-7.7.1-.5.3-.9.4-1.3 1.6-4.9 3.3-9.8 5.1-14.6.6-1.6 1.3-3.2 1.9-4.8 0-.1.1-.2.1-.3.7-1.6 1.3-3.2 2-4.8.1-.3.3-.6.4-.9.7-1.6 1.4-3.2 2.2-4.8.1-.2.2-.3.2-.5 1.5-3.2 3.1-6.3 4.7-9.4.1-.2.3-.5.4-.7 1.9-3.6 3.8-7.1 5.8-10.5.1-.1.2-.3.2-.4l3.3-5.4c.1-.2.2-.3.3-.5 1.1-1.8 2.3-3.6 3.4-5.3.1-.1.2-.3.3-.4 4.2-6.4 8.8-12.6 13.5-18.5.3-.4.6-.8 1-1.2 3.3-4.1 6.7-8.1 10.3-11.9l.2-.2c1.2-1.3 2.5-2.7 3.7-4l.5-.5c4.8-5 9.8-9.7 14.9-14.3.3-.3.7-.6 1-.9 1-.9 2-1.7 3-2.6.5-.4.9-.8 1.4-1.2 1-.8 2-1.6 2.9-2.4l.3-.3c4.4-3.6 9-7 13.6-10.3.6-.4 1.1-.8 1.7-1.2 1.1-.7 2.2-1.5 3.3-2.2.5-.3 1-.7 1.5-1 1-.7 2.1-1.4 3.1-2 .5-.3 1-.6 1.6-1 1.1-.7 2.3-1.4 3.4-2.1.1 0 .1-.1.2-.1 3.2-1.9 6.3-3.7 9.6-5.5 26.8-14.6 56.5-24.6 88-28.8.2 0 .5-.1.7-.1 1.3-.2 2.7-.3 4-.5l2.4-.3c1.5-.2 3.1-.3 4.6-.4.5 0 1-.1 1.5-.1 1-.1 2-.2 3-.2 1.1-.1 2.2-.1 3.3-.2.9-.1 1.8-.1 2.7-.1.7 0 1.5-.1 2.2-.1 3.3-.1 6.7-.2 10-.2 2.1 0 4.2 0 6.3.1 1.7 0 3.4.1 5.1.2h.5C293.9 1.8 319.3 7 343 15.7c.6.2 1.2.4 1.8.7l1.5.6 3.9 1.5c1.5.6 2.9 1.2 4.3 1.8l2.1.9.6.3c4.1 1.8 8.1 3.6 12 5.6.3.2.6.3.9.5 1.9.9 3.8 1.9 5.6 2.9l.6.3c1 .5 2 1.1 3 1.6.4.2.8.5 1.2.7 1.6.9 3.2 1.8 4.7 2.7 0 0 .1 0 .1.1 1.6.9 3.1 1.9 4.7 2.8.2.1.3.2.5.3 23 14.3 43.6 32.2 61 52.9 6.5 7.8 12.6 16 18.2 24.5.1.2.3.4.4.6.8 1.3 1.6 2.5 2.4 3.8l.6.9c1.7 2.7 3.3 5.4 4.9 8.2.1.1.1.3.2.4 1.5 2.6 2.9 5.1 4.2 7.8 0 .1.1.2.1.3 2.7 5.2 5.2 10.5 7.6 15.8.1.3.2.5.3.8.4.9.8 1.8 1.1 2.6.4 1 .8 1.9 1.2 2.9 12 29.6 18.6 62 18.6 95.9.7 96.6-53.3 181-132.8 224.4zm44.4-57.9c21.7-21.7 38.7-46.9 50.6-75 12.3-29.1 18.5-60 18.5-91.9 0-21.7-2.9-42.9-8.6-63.4-.2-.7-.4-1.5-.6-2.2-.3-.9-.5-1.8-.8-2.6-.2-.7-.4-1.4-.7-2.2-.4-1.4-.9-2.8-1.3-4.2l-.6-1.8-1.2-3.6c-.1-.4-.3-.8-.4-1.2-.6-1.6-1.2-3.1-1.8-4.6-.2-.4-.3-.8-.5-1.2-.6-1.6-1.3-3.2-2-4.8-.9-2.1-1.8-4.1-2.7-6.1-.3-.6-.5-1.2-.8-1.7-.7-1.5-1.4-3-2.2-4.5-.3-.6-.6-1.1-.8-1.7-.9-1.8-1.9-3.6-2.8-5.4-.1-.2-.2-.3-.2-.5-1.1-2.1-2.3-4.2-3.5-6.2-.1-.1-.1-.2-.2-.3-1.1-1.9-2.3-3.8-3.4-5.7-.1-.2-.3-.5-.4-.7-3.8-6.1-7.9-12-12.2-17.7-6.5-8.5-13.6-16.7-21.2-24.3-9.1-9.1-18.8-17.3-29-24.7-5.3-3.9-10.8-7.5-16.5-10.9h-.1c-1.7-1-3.5-2.1-5.3-3.1-.4-.2-.7-.4-1.1-.6-1.4-.8-2.9-1.6-4.3-2.3-.5-.3-1.1-.6-1.6-.8-1.3-.7-2.6-1.4-4-2l-1.8-.9c-1.3-.7-2.7-1.3-4.1-1.9-.6-.3-1.1-.5-1.7-.8-1.9-.9-3.8-1.7-5.7-2.5-1.8-.8-3.7-1.5-5.5-2.3-1.8-.7-3.7-1.4-5.6-2.1-21.9-8-44.7-12.6-68.2-13.8-.6 0-1.2-.1-1.9-.1-1.2-.1-2.4-.1-3.7-.1h-1.7c-1.8 0-3.5-.1-5.3-.1-2.1 0-4.2 0-6.3.1-.7 0-1.3.1-2 .1-1.4 0-2.9.1-4.3.2-.8 0-1.6.1-2.3.1-1.3.1-2.7.2-4 .3-.8.1-1.6.1-2.4.2-1.3.1-2.6.2-3.9.4l-2.4.3c-1.3.2-2.7.3-4 .5-.8.1-1.5.2-2.3.3l-4.2.6c-.7.1-1.4.2-2 .3-1.5.3-3.1.5-4.6.8l-1.5.3c-2 .4-4.1.8-6.1 1.3-13.4 3.1-26.6 7.3-39.4 12.7-14.7 6.2-28.6 13.8-41.6 22.8-3 2-5.9 4.2-8.8 6.3l-4.2 3.3c-.1.1-.2.1-.3.2-1.3 1-2.6 2.1-3.9 3.2-.2.2-.4.4-.6.5-1.2 1-2.3 2-3.5 3-.4.3-.8.7-1.1 1-1 .9-2 1.7-2.9 2.6-.6.6-1.3 1.2-1.9 1.8-.7.7-1.4 1.3-2.1 2-1.3 1.3-2.7 2.6-4 3.9-21.7 21.7-38.7 46.9-50.6 75C26.2 193.2 20 224.1 20 256c0 1.8 0 3.5.1 5.3v1.4c0 1.6.1 3.1.2 4.7v.6l.3 5.1c0 .5.1 1.1.1 1.6.1 1.4.2 2.7.4 4 0 .4.1.8.1 1.3.2 1.6.3 3.2.5 4.8.1.6.2 1.2.2 1.9.1 1.1.3 2.3.5 3.4l.3 1.8c.2 1.5.5 3 .7 4.5.1.7.3 1.4.4 2.2.2 1 .4 1.9.5 2.9.1.7.3 1.5.4 2.2.3 1.4.6 2.8.9 4.3l.6 2.4c.2.8.4 1.7.6 2.5.2.8.4 1.6.6 2.5 2.9 11.1 6.5 21.9 11 32.6 7.7 18.2 17.5 35.1 29.4 50.7 3.2 4.2 6.6 8.4 10.1 12.4.1.1.1.2.2.2 1.5 1.7 3.1 3.5 4.6 5.1.4.4.8.8 1.1 1.2 1.7 1.8 3.4 3.6 5.1 5.3 1.2 1.2 2.5 2.5 3.8 3.7.5.5 1 .9 1.5 1.4.8.7 1.6 1.5 2.3 2.2.6.6 1.3 1.1 1.9 1.7.6.6 1.2 1.1 1.9 1.7.7.7 1.5 1.3 2.3 2 .5.4.9.8 1.4 1.2.9.8 1.8 1.5 2.7 2.3l.1.1c3.7 3 7.4 5.9 11.2 8.6 14.3 10.3 29.6 19 46 25.9 5.2 2.2 10.5 4.2 15.9 6 .5.2 1 .4 1.6.5 1.3.4 2.6.8 3.8 1.2.4.1.8.3 1.2.4 1.6.5 3.2 1 4.8 1.4.5.1 1 .3 1.6.4 1.2.3 2.5.7 3.7 1 .5.1 1 .3 1.5.4l4.8 1.2 1.5.3c1.2.3 2.4.5 3.6.8.6.1 1.1.2 1.7.3l4.8.9c.5.1.9.2 1.4.2 1.2.2 2.5.4 3.7.6l1.8.3 4.5.6c.5.1 1 .1 1.5.2 1.3.2 2.7.3 4 .4.6.1 1.3.1 1.9.2l3.9.3c.4 0 .9.1 1.3.1 5.8.4 11.7.6 17.6.6 17.8 0 35.4-2 52.4-5.8.8-.2 1.7-.4 2.5-.6 1-.2 1.9-.5 2.9-.7.9-.2 1.7-.5 2.6-.7.9-.2 1.8-.5 2.8-.7.9-.2 1.7-.5 2.6-.7.9-.3 1.9-.5 2.8-.8.8-.3 1.7-.5 2.5-.8 1-.3 1.9-.6 2.9-.9.8-.3 1.6-.5 2.4-.8 1-.3 2-.7 3.1-1.1.7-.3 1.4-.5 2.2-.8 1.1-.4 2.3-.9 3.4-1.3.6-.2 1.2-.4 1.8-.7 1.7-.7 3.4-1.4 5.2-2.1 1.8-.8 3.6-1.5 5.4-2.4.4-.2.8-.4 1.2-.5 1.4-.6 2.8-1.3 4.2-2 .3-.2.7-.3 1-.5 1.4-.7 2.9-1.4 4.3-2.1.3-.1.5-.3.8-.4l4.5-2.4c.2-.1.3-.2.5-.3 1.6-.9 3.2-1.8 4.7-2.7.1 0 .1-.1.2-.1 1.7-1 3.3-1.9 4.9-2.9 3.4-2.1 6.7-4.2 9.9-6.4 11.6-8.3 22.7-17.6 33.1-27.9zM213.4 186l54.5-149.7c-4-.2-7.9-.3-11.9-.3-20.2 0-40 2.7-59.1 8L74.5 380.4c7.6 11.1 16.3 21.5 25.9 31.2 7.4 7.4 15.2 14.2 23.4 20.4l54.5-149.7c-2.8-8.2-4.3-17.1-4.3-26.3 0-29.6 15.8-55.6 39.4-70zm-113-85.6c-20.2 20.2-36.1 43.7-47.2 69.9C41.8 197.5 36 226.3 36 256c0 11.9 1 23.7 2.8 35.3l73.5-201.9c-4.1 3.5-8 7.2-11.9 11zm233.3 129.3L388.2 80c-14.3-10.8-29.9-19.8-46.5-26.8-3.4-1.4-6.9-2.8-10.4-4.1L284 178.9c23.3 8.5 41.7 27.3 49.7 50.8zM228 333.1l-47.2 129.7c20.4 7.4 41.6 11.7 63.4 12.9L298.6 326c-12.4 7.6-27 12-42.6 12-9.8 0-19.3-1.7-28-4.9zm81.2-38c-.2.3-.4.5-.6.8-.5.7-1 1.3-1.5 2-.2.2-.3.4-.5.6-.4.5-.9 1-1.3 1.5-.2.2-.4.4-.6.7-.6.6-1.1 1.2-1.7 1.8l-.6.6c-.5.5-1 1-1.6 1.5-.2.1-.3.3-.5.4-.6.6-1.3 1.1-1.9 1.7-.2.2-.4.4-.7.6-.7.5-1.3 1.1-2 1.6-.2.1-.4.3-.5.4-.6.4-1.2.9-1.8 1.3-.2.1-.4.3-.6.4-.7.5-1.5 1-2.2 1.4-.2.1-.4.3-.7.4l-2.1 1.2c-.1.1-.2.1-.3.2l-2.4 1.2c-.2.1-.4.2-.7.3-.8.4-1.6.8-2.5 1.1-.2.1-.3.1-.5.2-.8.3-1.5.6-2.3.9-.2.1-.4.1-.6.2-.9.3-1.7.6-2.6.9-.2.1-.4.1-.6.2-.9.3-1.8.5-2.6.8h-.1c-.9.2-1.9.4-2.8.6-.2 0-.4.1-.6.1-.9.2-1.9.4-2.8.5-.2 0-.3 0-.5.1-.9.1-1.8.2-2.6.3-.2 0-.3 0-.5.1-1 .1-1.9.2-2.9.2h-.6c-1 0-2 .1-3 .1-1.1 0-2.1 0-3.2-.1-.4 0-.7 0-1.1-.1-.7 0-1.4-.1-2.1-.2-.4 0-.8-.1-1.3-.1-.6-.1-1.2-.1-1.9-.2-.4-.1-.9-.1-1.3-.2-.6-.1-1.2-.2-1.7-.3-.5-.1-.9-.2-1.3-.3-.6-.1-1.1-.3-1.7-.4-.4-.1-.9-.2-1.3-.3-.6-.2-1.2-.3-1.7-.5-.4-.1-.8-.2-1.2-.4-.9-.3-1.8-.6-2.8-.9-25.3-9.2-43.4-33.5-43.4-62 0-2.3.1-4.5.3-6.7v-.1c.1-.9.2-1.9.4-2.8 0-.2.1-.5.1-.7.1-.9.3-1.9.5-2.8 0-.2.1-.4.1-.6l.6-2.4c.1-.2.1-.4.2-.6.2-.9.5-1.8.7-2.6.1-.2.2-.5.2-.7.2-.8.5-1.6.8-2.3.1-.1.1-.3.2-.4.3-.8.6-1.6 1-2.5.1-.3.2-.5.3-.8.3-.8.7-1.6 1.1-2.4.1-.2.2-.4.3-.7.3-.6.6-1.3 1-1.9.1-.3.3-.5.4-.8.4-.7.8-1.5 1.3-2.2.2-.3.3-.5.5-.8.4-.6.7-1.2 1.1-1.7.1-.2.3-.4.4-.6 11.9-17.5 31.9-28.9 54.6-28.9 7.9 0 15.5 1.4 22.6 4 .3.1.5.2.8.3.6.2 1.3.5 1.9.8.4.2.7.3 1.1.5.5.2 1.1.5 1.6.7.4.2.7.3 1.1.5.6.3 1.1.6 1.7.9.3.2.6.3.9.5.8.4 1.6.9 2.4 1.4.3.2.6.4.9.5.5.3 1 .7 1.6 1 .3.2.7.4 1 .7.5.3 1 .7 1.5 1 .3.2.6.4.9.7.6.5 1.2 1 1.8 1.4.2.2.4.4.7.5.6.5 1.2 1.1 1.8 1.6.3.2.5.5.8.7.4.4.9.8 1.3 1.3l.8.8c.5.5.9.9 1.3 1.4.2.2.4.5.6.7l1.8 2.1c.2.2.3.4.5.6.4.5.9 1.1 1.3 1.6l.6.9c.4.5.7 1 1.1 1.6l.6.9c.4.6.8 1.3 1.3 2 .1.2.2.3.3.5.5.8 1 1.6 1.4 2.5.1.3.3.5.4.8l.9 1.8c.2.3.3.6.4.9.3.6.6 1.2.8 1.9.1.3.2.5.4.8.4.9.7 1.8 1.1 2.7.1.1.1.3.1.4.3.8.5 1.6.8 2.4l.3.9c.2.7.4 1.3.6 2 .1.3.2.6.3 1 .2.8.4 1.5.5 2.3 0 .2.1.4.1.6.2 1 .4 2 .5 2.9 0 .3.1.5.1.8.1.7.2 1.5.3 2.3 0 .3.1.7.1 1 .1.7.1 1.4.2 2.2 0 .3 0 .6.1.9 0 1 .1 2.1.1 3.1 0 1.1 0 2.3-.1 3.4s-.1 2.1-.2 3.2v.1c-1.1 11.2-5 21.5-11 30.3-1 .4-1.5 1.1-2 1.8zm2.1-35c.2-.2.4-.3.6-.5l.1-.1c.4-.4.7-.9 1-1.4 0-.1.1-.2.1-.2.1-.2.1-.4.2-.6 0-.1 0-.2.1-.3.1-.3.1-.6.1-.9 0-.3 0-.7-.1-1-.1-.7-.4-1.3-.8-1.8s-.8-1-1.4-1.4c-.5-.4-1.1-.6-1.8-.8-.3-.1-.7-.1-1-.1-.3 0-.5 0-.8.1-.2 0-.4.1-.5.1-.3.1-.5.2-.8.3-.3.1-.5.2-.7.4-.5.4-1 .8-1.4 1.4-.4.5-.6 1.1-.8 1.8-.1.3-.1.7-.1 1 0 .3 0 .6.1.9 0 .1 0 .2.1.3.1.2.1.4.2.6 0 .1.1.2.1.2.1.3.3.5.4.8.4.5.8 1 1.4 1.4.2.2.5.3.8.4.1 0 .2.1.2.1.2.1.4.1.6.2.1 0 .2 0 .3.1.3.1.6.1.9.1.3 0 .6 0 .9-.1h.2c.3-.1.6-.1.8-.3 0 0 .1 0 .1-.1.2-.1.5-.2.7-.4.2-.1.2-.2.2-.2zm-5 21v-.2c-.1-.3-.2-.5-.3-.8 0 0 0-.1-.1-.1-.1-.2-.3-.4-.4-.7l-.1-.1-.6-.6-.1-.1c-.2-.2-.5-.4-.7-.5-.3-.2-.5-.3-.8-.4-.1 0-.1 0-.2-.1-.2 0-.3-.1-.5-.1-.1 0-.2-.1-.4-.1h-1c-.2 0-.3.1-.5.1-.1 0-.2 0-.4.1-.1 0-.3.1-.4.2-.1 0-.2.1-.3.1-.1 0-.1.1-.2.1-.3.1-.5.3-.7.4l-.6.6c-.1.1-.1.1-.1.2-.2.2-.4.5-.5.7-.2.3-.3.6-.4.9-.2.6-.3 1.3-.2 1.9 0 .3.1.6.1.8v.2c.1.3.2.5.3.8 0 0 0 .1.1.1.1.2.3.4.4.7l.1.1.6.6.1.1c.2.2.5.4.7.5.3.2.5.3.8.4.1 0 .1 0 .2.1.2 0 .3.1.5.1.1 0 .3.1.4.1h1c.3 0 .6-.1.8-.1.2-.1.4-.1.5-.2.1 0 .2-.1.2-.1.1 0 .1-.1.2-.1.3-.1.5-.3.7-.4l.6-.6c.1-.1.1-.1.1-.2.2-.2.3-.4.5-.6 0 0 0-.1.1-.1.2-.3.3-.6.4-.8 0-.1.1-.2.1-.3.1-.2.1-.4.1-.6v-.3c.1-.6 0-1.2-.1-1.7zm-21.6 24.7c2.4-1.4 3.2-4.4 1.8-6.8-.2-.3-.3-.5-.5-.7 0-.1-.1-.1-.1-.2l-.2-.2-.4-.4c-.2-.2-.5-.3-.7-.4-.1 0-.1-.1-.2-.1-.2-.1-.5-.2-.8-.3-.3-.1-.6-.1-.8-.1h-1c-.3 0-.6.1-.8.2-.1 0-.1 0-.2.1-.3.1-.6.2-.8.4-.3.2-.5.3-.7.5l-.1.1-.6.6-.1.1c-.2.2-.3.4-.4.7 0 0 0 .1-.1.1-.1.3-.2.5-.3.8v.2c-.1.6-.2 1.1-.1 1.7v.3c0 .2.1.4.1.6 0 .1 0 .2.1.3.1.3.2.6.4.8.2.3.3.5.5.7 0 .1.1.1.1.2l.1.1.5.5c.2.2.4.3.7.4h.1c.1 0 .1.1.2.1s.1 0 .2.1c.2.1.4.2.6.2.3.1.6.1.8.1h1c.3 0 .6-.1.8-.2.1 0 .1 0 .2-.1.2-.1.5-.3.7-.4zm11.8-49.8v-2.5c0-.4-.1-.9-.1-1.3 0-.2 0-.4-.1-.6-.1-.5-.1-.9-.2-1.4 0-.2 0-.3-.1-.5l-.3-1.8c0-.1-.1-.3-.1-.4-.1-.3-.1-.7-.2-1 0-.1-.1-.3-.1-.4 0-.2-.1-.4-.2-.6v-.1c-.1-.4-.2-.7-.3-1.1-.1-.2-.1-.4-.2-.6-.1-.3-.2-.7-.3-1 0-.1-.1-.3-.1-.4 0-.1-.1-.2-.1-.3-.1-.2-.2-.4-.2-.6-.1-.4-.3-.7-.4-1.1-.1-.2-.1-.3-.2-.5-.2-.4-.3-.8-.5-1.1l-.3-.6c-.2-.4-.4-.7-.6-1.1-.1-.2-.2-.3-.3-.5l-.9-1.5c-.1-.1-.1-.2-.2-.3-.2-.4-.5-.8-.8-1.2-.1-.2-.2-.3-.4-.5-.2-.3-.4-.6-.7-.9-.1-.2-.3-.4-.4-.5-.3-.3-.5-.7-.8-1-.1-.1-.2-.3-.3-.4-.4-.4-.7-.9-1.1-1.3l-.4-.4c-.3-.3-.5-.6-.8-.9l-.5-.5-.8-.8c-.2-.1-.3-.3-.5-.4l-.5-.5c-.2-.2-.4-.4-.6-.5-.1-.1-.3-.2-.4-.3-.2-.2-.4-.4-.7-.5-.2-.1-.3-.2-.5-.4-.2-.1-.4-.3-.6-.4l-.9-.6c-.2-.1-.4-.3-.6-.4-.3-.2-.6-.4-1-.6-.2-.1-.4-.2-.5-.3-.5-.3-1-.6-1.5-.8-.2-.1-.4-.2-.5-.3-.3-.2-.7-.4-1-.5-.2-.1-.4-.2-.7-.3-.3-.2-.7-.3-1-.4-.2-.1-.4-.2-.7-.3-.4-.2-.8-.3-1.2-.5-.2-.1-.3-.1-.5-.2-4.3-1.6-9-2.4-13.9-2.4-22.4 0-40.5 18.1-40.5 40.5 0 18.1 11.9 33.5 28.3 38.6.2.1.5.1.7.2.1 0 .2 0 .2.1.3.1.5.2.8.2.3.1.5.1.8.2.3.1.7.2 1 .2.3.1.5.1.8.2.4.1.7.1 1.1.2.3 0 .5.1.8.1.4.1.8.1 1.1.1.3 0 .5.1.8.1.4 0 .9.1 1.3.1h2.7c22.8 0 40.9-18.1 40.9-40.5zM261 308.5c0-.3 0-.7-.1-1-.1-.7-.4-1.3-.8-1.8s-.8-1-1.4-1.4c-.5-.4-1.1-.6-1.8-.8-.3-.1-.7-.1-1-.1-.3 0-.5 0-.8.1-.2 0-.4.1-.5.1-.3.1-.5.2-.8.3-.3.1-.5.2-.7.4-.5.4-1 .8-1.4 1.4-.4.5-.6 1.1-.8 1.8-.1.3-.1.7-.1 1 0 .3 0 .6.1.9 0 .1 0 .2.1.3.1.2.1.4.2.6 0 .1.1.2.1.2.1.3.3.5.4.8.4.5.8 1 1.4 1.4.2.2.5.3.8.4.1 0 .2.1.2.1.2.1.4.1.6.2.1 0 .2 0 .3.1.3.1.6.1.9.1.3 0 .6 0 .9-.1h.2c.3-.1.6-.1.8-.3 0 0 .1 0 .1-.1.2-.1.5-.2.7-.4 0 0 .1 0 .1-.1.2-.2.4-.3.6-.5l.1-.1c.4-.4.7-.9 1-1.4 0-.1.1-.2.1-.2.1-.2.1-.4.2-.6 0-.1 0-.2.1-.3.2-.4.2-.7.2-1zm16.4-96.8v.2c.1.3.2.5.3.8 0 0 0 .1.1.1.1.2.3.4.4.7l.1.1.6.6.1.1c.2.2.5.4.7.5.3.2.5.3.8.4.1 0 .1 0 .2.1.3.1.6.2.8.2h1c.3 0 .6-.1.8-.1.1 0 .2-.1.3-.1.1-.1.3-.1.4-.2.1 0 .1-.1.2-.1.3-.1.5-.3.7-.4l.6-.6c.1-.1.1-.1.1-.2.2-.2.4-.5.5-.7 1.4-2.4.6-5.4-1.8-6.8-.3-.2-.5-.3-.8-.4-.1 0-.1 0-.2-.1-.2 0-.3-.1-.5-.1-.1 0-.2-.1-.4-.1h-1c-.2 0-.3.1-.5.1-.1 0-.2 0-.4.1-.3.1-.5.2-.8.3-.1 0-.1.1-.2.1s-.2.1-.3.2c-.2.1-.3.2-.5.3-.2.2-.4.3-.6.5l-.1.1c-.1.1-.1.1-.1.2-.2.2-.4.5-.5.7-.2.3-.3.5-.4.8 0 .1-.1.2-.1.3-.1.2-.1.4-.1.6v.3c.4.4.5 1 .6 1.5zm19.6 15.9c-.1.3-.3.6-.3.9-.3 1.2-.2 2.6.5 3.8.2.3.3.5.5.7 0 .1.1.1.1.2.1.1.3.2.4.4l.2.2c.2.2.5.3.7.4.1 0 .1.1.2.1.2.1.5.2.8.3.3.1.6.1.8.1h1.1c.2 0 .5-.1.7-.2.1 0 .1 0 .2-.1.3-.1.6-.2.8-.4.3-.2.5-.3.7-.5l.1-.1.6-.6.1-.1c.2-.2.3-.4.4-.7 0 0 0-.1.1-.1.1-.3.2-.5.3-.8v-.2c.1-.3.1-.6.1-.8 0-.6 0-1.3-.2-1.9-.1-.3-.2-.6-.4-.9-.2-.3-.3-.5-.5-.7 0-.1-.1-.1-.1-.2l-.6-.6c-.2-.2-.5-.3-.7-.4-.1 0-.1-.1-.2-.1-.1-.1-.3-.1-.4-.1-.1 0-.3-.1-.4-.1-.3-.1-.6-.1-.8-.1h-1c-.2 0-.4.1-.6.1-.1 0-.2 0-.3.1-.1 0-.1 0-.2.1-.3.1-.6.2-.8.4-.8.2-1.5 1-1.9 1.9zm-46-24.1c0 2.8 2.2 5 5 5s5-2.2 5-5-2.2-5-5-5-5 2.2-5 5zm-25.6 9.5c1.4 2.4 4.4 3.2 6.8 1.8 2.4-1.4 3.2-4.4 1.8-6.8-1.4-2.4-4.4-3.2-6.8-1.8s-3.2 4.4-1.8 6.8zM208 234.1c2.4 1.4 5.4.6 6.8-1.8 1.4-2.4.6-5.4-1.8-6.8-2.4-1.4-5.4-.6-6.8 1.8-1.4 2.3-.6 5.4 1.8 6.8zm-4.5 26.9c2.8 0 5-2.2 5-5s-2.2-5-5-5-5 2.2-5 5 2.2 5 5 5zm11.4 18.8c-1.4-2.4-4.4-3.2-6.8-1.8-2.4 1.4-3.2 4.4-1.8 6.8 1.4 2.4 4.4 3.2 6.8 1.8 2.3-1.4 3.1-4.5 1.8-6.8zm19.2 24.2c1.4-2.4.6-5.4-1.8-6.8s-5.4-.6-6.8 1.8c-1.4 2.4-.6 5.4 1.8 6.8 2.3 1.4 5.4.6 6.8-1.8zm203.4-172.4L315.1 468c9-2.5 17.9-5.6 26.6-9.3 21.2-9 40.7-21.1 58.1-36.1l73.5-201.9c-2.8-17.3-7.6-34.1-14.5-50.3-5.9-13.7-13-26.7-21.3-38.8z" fill="#36434f"/></svg>