<svg version="1.1" xmlns="http://www.w3.org/2000/svg" x="0" y="0" viewBox="0 0 512 512" xml:space="preserve"><path d="M512 404V108c0-5.8-1.6-11.2-4.2-15.9-1-1.8-2.2-3.5-3.6-5-1.3-1.5-2.8-2.9-4.4-4.2l-.1-.1c-1-.8-2.1-1.6-3.3-2.2-.1 0-.1-.1-.2-.1-.5-.3-1-.6-1.5-.8-.1-.1-.2-.1-.3-.2-1.2-.6-2.3-1.1-3.6-1.5-.1 0-.3-.1-.4-.1-.5-.2-1-.3-1.5-.5-.2 0-.3-.1-.5-.1-.6-.2-1.2-.3-1.8-.4h-.1c-.6-.1-1.3-.2-1.9-.3-.2 0-.4 0-.5-.1-.5-.1-1-.1-1.5-.1h-.6c-.7 0-1.3-.1-2-.1H32c-.7 0-1.3 0-2 .1h-.6c-.5 0-1 .1-1.5.1-.2 0-.4 0-.5.1-.6.1-1.3.2-1.9.3h-.1c-.6.1-1.2.3-1.8.4-.2 0-.3.1-.5.1-.5.1-1 .3-1.5.5-.1 0-.3.1-.4.1-1.2.4-2.4.9-3.6 1.5-.1.1-.2.1-.3.2-.5.3-1 .5-1.5.8-.1 0-.1.1-.2.1-1.1.7-2.2 1.4-3.3 2.2l-.1.1c-1.6 1.3-3.1 2.7-4.4 4.2C3 92.7 0 100 0 108v296c0 8 3 15.3 7.8 21 1.3 1.5 2.8 2.9 4.4 4.2l.1.1c1 .8 2.1 1.6 3.3 2.2.1 0 .1.1.2.1.5.3 1 .6 1.5.8.1.1.2.1.3.2 1.2.6 2.3 1.1 3.6 1.5.1 0 .3.1.4.1.5.2 1 .3 1.5.5.2 0 .3.1.5.1.6.2 1.2.3 1.8.4h.1c.6.1 1.3.2 1.9.3.2 0 .4 0 .5.1.5.1 1 .1 1.5.1h.6c.7 0 1.3.1 2 .1h448c.7 0 1.3 0 2-.1h.6c.5 0 1-.1 1.5-.1.2 0 .4 0 .5-.1.6-.1 1.3-.2 1.9-.3h.1c.6-.1 1.2-.3 1.8-.4.2 0 .3-.1.5-.1.5-.1 1-.3 1.5-.5.1 0 .3-.1.4-.1 1.2-.4 2.4-.9 3.6-1.5.1-.1.2-.1.3-.2.5-.3 1-.5 1.5-.8.1 0 .1-.1.2-.1 1.1-.7 2.2-1.4 3.3-2.2l.1-.1c1.6-1.3 3.1-2.7 4.4-4.2 4.8-5.7 7.8-13 7.8-21zM32 125l131 131L32 387V125zm419.7-17L256 303.7 60.3 108h391.4zm-205 296H60.3l125.4-125.4 47.7 47.7c6.2 6.2 14.4 9.4 22.6 9.4s16.4-3.1 22.6-9.4l47.7-47.7L451.7 404h-205zM349 256l131-131v262L349 256z" fill="#36434f"/></svg>