<svg xmlns="http://www.w3.org/2000/svg" viewBox="0 0 512 512" style="enable-background:new 0 0 512 512" xml:space="preserve"><path d="M255.5 34.4C308.3 54.9 363.2 70 419 79.6v2.1c0 72.2-8.1 144.2-24.2 213.9-9.3 40.3-29.6 77.2-58.7 106.4-25.1 25.3-52.1 48.9-80.6 70.3-28.5-21.4-55.5-45-80.6-70.3-1.9-1.9-3.8-3.9-5.6-5.9-12.1-13.1-22.7-27.8-31.3-43.5-8.8-16-15.6-33.2-20.3-50.9-.5-2.1-1.1-4.1-1.5-6.2-4-17.5-7.6-35.4-10.6-53.1-3.2-18.9-5.9-38.3-8-57.4-2.2-20.3-3.8-41-4.7-61.4-.6-13.9-.9-28-.9-41.9v-2.1c15.3-2.6 30.6-5.7 45.6-9.1 20.6-4.7 41.3-10.3 61.5-16.5 18.9-5.8 37.9-12.4 56.4-19.6m0-34.4C234 8.7 212 16.5 189.7 23.4c-19.4 6-39.2 11.3-59.2 15.9-23 5.3-46.4 9.6-70 12.8-.3 9.9-.5 19.7-.5 29.6 0 14.5.3 29 .9 43.3.9 21.3 2.5 42.5 4.8 63.5 2.2 20 4.9 39.8 8.3 59.3 3.2 18.5 6.8 36.8 11 54.9.5 2.4 1.1 4.8 1.7 7.1 5.3 20.4 13.1 39.9 23.2 58.2 9.8 17.9 21.9 34.6 35.8 49.8 2.1 2.3 4.2 4.5 6.4 6.7 31.8 32 66.4 61.3 103.3 87.4 36.9-26.1 71.5-55.4 103.3-87.4 33.3-33.5 56.6-75.8 67.2-121.8 16.4-71 25-145 25-221.1 0-9.9-.2-19.7-.5-29.5C382.5 42.7 317.2 25 255.5 0z" style="fill:#36434f"/></svg>