<svg version="1.1" xmlns="http://www.w3.org/2000/svg" x="0" y="0" viewBox="0 0 512 512" xml:space="preserve"><path d="M443.5 287c1.7-10.1 2.5-20.4 2.5-31s-.9-20.9-2.5-31l48.2-49.3c5-5.1 6-13 2.4-19.2l-32.9-56.9c-3.6-6.2-10.9-9.3-17.8-7.5l-66.8 17.1a189.56 189.56 0 0 0-53.8-31.1l-18.6-66.4C302.3 4.8 296 0 288.9 0h-65.7c-7.2 0-13.5 4.8-15.4 11.7l-18.6 66.4c-19.6 7.4-37.7 17.9-53.7 31L68.6 92c-7-1.8-14.2 1.3-17.8 7.5l-32.9 56.9c-3.6 6.2-2.6 14.1 2.4 19.2l48.2 49.3C66.9 235 66 245.4 66 256s.9 21 2.5 31.1l-48.2 49.3c-5 5.1-6 13-2.4 19.2l32.9 56.9c3.6 6.2 10.8 9.3 17.8 7.5l66.9-17.1c15.9 13.1 34 23.6 53.7 31l18.6 66.4c1.9 6.9 8.2 11.7 15.4 11.7h65.7c7.2 0 13.5-4.8 15.4-11.7l18.6-66.4c19.7-7.4 37.8-18 53.8-31.1l66.8 17.1c6.9 1.8 14.2-1.3 17.8-7.5l32.9-56.9c3.6-6.2 2.6-14.1-2.4-19.2L443.5 287zM256 296c-22.1 0-40-17.9-40-40s17.9-40 40-40 40 17.9 40 40-17.9 40-40 40z" fill="#36434f"/></svg>