<svg version="1.1" xmlns="http://www.w3.org/2000/svg" x="0" y="0" viewBox="0 0 512 512" xml:space="preserve"><path d="M353.9 435.4c-1.4-36.9-31.9-62-31.9-76.4 0-14.7 11-33.9 11-60 0-1.4-.1-2.7-.3-4.1-3-19.7-27.8-35.7-60.3-39.9l-3.3-167.3c0-2.5.3-4.9.7-7.3.4-1.9 1-3.8 1.8-5.6l1.2-2.8c.8-1.9 1.2-4 1.2-6.2V58c0 1.1.9 2 2 2h1c1.1 0 2-.9 2-2v-5c0-1.1-.9-2-2-2h-1c-1.1 0-2 .9-2 2v-8c0 1.1.9 2 2 2h1c1.1 0 2-.9 2-2v-5c0-1.1-.9-2-2-2h-1c-1.1 0-2 .9-2 2v-8c0 1.1.9 2 2 2h1c1.1 0 2-.9 2-2v-5c0-1.1-.9-2-2-2h-1c-1.1 0-2 .9-2 2V14.1c0-2.6-1.2-5-3.4-6.5L261 .7c-.7-.5-1.5-.7-2.3-.7h-5.4c-.8 0-1.6.3-2.3.7l-9.6 6.9c-2.1 1.5-3.4 3.9-3.4 6.5V27c0-1.1-.9-2-2-2h-1c-1.1 0-2 .9-2 2v5c0 1.1.9 2 2 2h1c1.1 0 2-.9 2-2v8c0-1.1-.9-2-2-2h-1c-1.1 0-2 .9-2 2v5c0 1.1.9 2 2 2h1c1.1 0 2-.9 2-2v8c0-1.1-.9-2-2-2h-1c-1.1 0-2 .9-2 2v5c0 1.1.9 2 2 2h1c1.1 0 2-.9 2-2v7.8c0 2.1.4 4.2 1.2 6.2l1.2 2.8c.7 1.7 1.3 3.4 1.7 5.2h-.1c.6 2.5.9 5.1.8 7.7L239.5 255c-32.4 4.1-57.2 20.2-60.2 39.9-.2 1.3-.3 2.7-.3 4.1 0 26.1 11 45.3 11 60 0 14.3-30.5 39.5-31.9 76.4 0 .9-.1 1.8-.1 2.6 0 40.9 43.9 74 98 74s98-33.1 98-74c0-.9 0-1.8-.1-2.6zM261 23c0-2.2 1.8-4 4-4s4 1.8 4 4v4h-8v-4zm0 9h8v8h-8v-8zm0 13h8v8h-8v-8zm0 13h8v4c0 2.2-1.8 4-4 4s-4-1.8-4-4v-4zm-18-35c0-2.2 1.8-4 4-4s4 1.8 4 4v4h-8v-4zm0 9h8v8h-8v-8zm0 13h8v8h-8v-8zm0 13h8v4c0 2.2-1.8 4-4 4s-4-1.8-4-4v-4zm13 299c-12.4 0-22.5-10.1-22.5-22.5S243.6 312 256 312s22.5 10.1 22.5 22.5S268.4 357 256 357z" fill="#36434f"/></svg>