<svg xmlns="http://www.w3.org/2000/svg" viewBox="0 0 512 512" xml:space="preserve"><path d="m146.8 369.6 77.4-59.2c-1.2-7.5-3.4-14.2-6.4-19.4-1.8-3.1-2.7-6.7-2.7-10.5v-.9l-85.6 65.6c-6.5 5-14.1 8.5-22.2 9.8-.4.1-.7.1-1.1.2-6.5-11.6-15.2-26.6-20.6-33.7-7.1-9.2-21.6-21.7-28.7-27.6-2.3-1.9-5.6-1.5-7.4.9l-2.5 3.3c-3.1 4.1-3.4 9.8-.6 14.2 5.4 8.7 14.6 23 20.5 30.7 3.6 4.7 10 11.9 16.4 18.8L3.5 347.9l-.9 4c-6.9 31.4-.2 63.9 18.2 89.9l-.1.1 2.6 3.4 2.6 3.4.1-.1c20.3 24.6 50 39.5 82.1 41l4.1.2 7.6-82.7c5.9 10.3 12.6 21.5 17.1 27.4 7.1 9.2 21.6 21.7 28.7 27.6 2.3 1.9 5.6 1.5 7.4-.9l2.5-3.3c3.1-4.1 3.4-9.8.6-14.2-5.4-8.7-14.6-23-20.5-30.7-4.9-6.4-14.9-17.2-22.9-25.7 3.4-6.9 8.1-13.1 14.1-17.7zm-33.9 27.5c-.3 0-.5 0-.8.1-4.7.2-9.4-1.3-13.2-4.4-.5-.4-1-.9-1.5-1.4l-.1-.1c-.5-.5-1-1.1-1.4-1.6-.3-.4-.7-.9-.9-1.4-.1-.1-.2-.3-.3-.4-.2-.4-.4-.7-.6-1.1-.1-.3-.3-.5-.4-.8-2-4.4-2.3-9.4-.8-13.9v-.1c2.9 3 5.3 5.5 6.9 7.1.2 2 1 4.1 2.3 5.8 2 2.6 4.9 4.1 8 4.4 1.1 2 2.5 4.6 4.1 7.6-.2 0-.3 0-.5.1-.3.1-.5.1-.8.1zm3.2-12.8c-3.5 2.7-8.6 2-11.3-1.5-2.7-3.5-2-8.6 1.5-11.3s8.6-2 11.3 1.5 2 8.6-1.5 11.3zM4.7 354.4c-.9-1.2-.7-2.9.5-3.8s2.9-.7 3.8.5.7 2.9-.5 3.8c-1.2.9-2.9.7-3.8-.5zm5.5 3.3 78.2 13.6c-1 3.2-1.3 6.7-.8 10 .4 3.1 0 6.2-1.2 9-.2.6-.4 1.1-.5 1.7l-36.2 27.7-22 16.9c-16.2-22.9-22.4-51.3-17.5-78.9zm18.2 87.1c-1.2.9-2.9.7-3.8-.5-.9-1.2-.7-2.9.5-3.8s2.9-.7 3.8.5.7 2.9-.5 3.8zm4.5-1.4 58.2-44.6c.6.1 1.1.1 1.7 0 3.1-.4 6.2 0 9 1.1 3.1 1.3 6.5 1.9 9.8 1.8l-7.2 79.1c-27.9-2.5-53.6-15.9-71.5-37.4zm77.1 44c-1.2.9-2.9.7-3.8-.5-.9-1.2-.7-2.9.5-3.8s2.9-.7 3.8.5c.9 1.3.6 2.9-.5 3.8zm12.7-110.7c-.2-2-1-4.1-2.3-5.8-2-2.6-4.9-4.1-8-4.4-1.1-2-2.5-4.6-4.1-7.6 6.7-1 13.8 1.5 18.2 7.3 4 5.2 4.9 11.8 3 17.6-2.8-2.9-5.2-5.4-6.8-7.1zm172.3-145c.1.5.2 1.1.3 1.6l87.2-66.8c6.5-5 14.1-8.5 22.2-9.8.4-.1.7-.1 1.1-.2 6.5 11.6 15.2 26.6 20.6 33.7 7.1 9.2 21.6 21.7 28.7 27.6 2.3 1.9 5.6 1.5 7.4-.9l2.5-3.3c3.1-4.1 3.4-9.8.6-14.2-5.4-8.7-14.6-23-20.5-30.7-3.6-4.7-10-11.9-16.4-18.8l79.7 13.9.9-4c6.9-31.4.2-63.9-18.2-89.9l.1-.1-2.6-3.4L486 63l-.1.1c-20.3-24.6-50-39.5-82.1-41l-4.1-.2-7.6 82.7c-5.9-10.3-12.6-21.5-17.1-27.4-7.1-9.2-21.6-21.7-28.7-27.6-2.3-1.9-5.6-1.5-7.4.9l-2.5 3.3c-3.1 4.1-3.4 9.8-.6 14.2 5.4 8.7 14.6 23 20.5 30.7 4.9 6.4 14.9 17.2 22.9 25.7-3.4 6.9-8 13-14.1 17.6L291 198.8v12.4c0 2.3.3 4.6.8 6.9l3.2 13.6zm104.1-117.2c.3 0 .5 0 .8-.1 4.7-.2 9.4 1.3 13.2 4.4.5.4 1 .9 1.5 1.4l.1.1c.5.5 1 1.1 1.4 1.6.3.4.7.9.9 1.4.1.1.2.3.3.4.2.4.4.7.6 1.1.1.3.3.5.4.8 2 4.4 2.3 9.4.8 13.9v.1c-2.9-3-5.3-5.5-6.9-7.1-.2-2-1-4.1-2.3-5.8-2-2.6-4.9-4.1-8-4.4-1.1-2-2.5-4.6-4.1-7.6.2 0 .3 0 .5-.1.3 0 .5-.1.8-.1zm-3.2 12.8c3.5-2.7 8.6-2 11.3 1.5s2 8.6-1.5 11.3-8.6 2-11.3-1.5-2-8.6 1.5-11.3zm111.4 29.9c.9 1.2.7 2.9-.5 3.8-1.2.9-2.9.7-3.8-.5-.9-1.2-.7-2.9.5-3.8 1.2-.9 2.9-.6 3.8.5zm-5.5-3.3-78.2-13.6c1-3.2 1.3-6.7.8-10-.4-3.1 0-6.2 1.2-9 .2-.6.4-1.1.5-1.7L484.3 75c16.2 23 22.4 51.3 17.5 78.9zm-18.2-87c1.2-.9 2.9-.7 3.8.5.9 1.2.7 2.9-.5 3.8-1.2.9-2.9.7-3.8-.5-.9-1.2-.7-2.9.5-3.8zm-4.5 1.4-28.9 22.1-29.3 22.4c-.6-.1-1.1-.1-1.7 0-3.1.4-6.2 0-9-1.1-3.1-1.3-6.5-1.9-9.8-1.8l7.2-79.1c27.9 2.5 53.6 15.9 71.5 37.5zM402 24.2c1.2-.9 2.9-.7 3.8.5.9 1.2.7 2.9-.5 3.8-1.2.9-2.9.7-3.8-.5s-.6-2.9.5-3.8zm-12.7 110.7c.2 2 1 4.1 2.3 5.8 2 2.6 4.9 4.1 8 4.4 1.1 2 2.5 4.6 4.1 7.6-6.7 1-13.8-1.5-18.2-7.3-4-5.2-4.9-11.8-3-17.6 2.8 3 5.2 5.5 6.8 7.1zm120 217-.9-4-79.7 13.9c6.4-6.9 12.8-14 16.4-18.8 5.9-7.7 15-22 20.5-30.7 2.8-4.4 2.5-10.1-.6-14.2l-2.5-3.3c-1.8-2.3-5.1-2.8-7.4-.9-7.1 5.9-21.7 18.3-28.7 27.6-5.4 7.1-14.1 22-20.6 33.7-.4-.1-.7-.1-1.1-.2-8.1-1.3-15.7-4.8-22.2-9.8l-85.6-65.6v.9c0 3.8-.9 7.4-2.7 10.5-3 5.2-5.2 11.9-6.4 19.4l77.4 59.2c6.1 4.6 10.7 10.8 14.1 17.6-8 8.5-18.1 19.4-22.9 25.7-5.9 7.7-15 22-20.5 30.7-2.8 4.4-2.5 10.1.6 14.2l2.5 3.3c1.8 2.3 5.1 2.8 7.4.9 7.1-5.9 21.7-18.3 28.7-27.6 4.5-5.9 11.2-17.1 17.1-27.4l7.6 82.7 4.1-.2c32.1-1.5 61.7-16.4 82.1-41l.1.1 2.6-3.4 2.6-3.4-.1-.1c18.4-26 25-58.5 18.1-89.8zm-91 34.1c-.1.3-.3.5-.4.8-.2.4-.4.8-.6 1.1-.1.1-.2.3-.3.4-.3.5-.6.9-.9 1.4-.4.6-.9 1.1-1.4 1.6l-.1.1c-.5.5-1 1-1.5 1.4-3.7 3.1-8.5 4.6-13.2 4.4-.3 0-.6 0-.8-.1-.2 0-.5 0-.7-.1-.2 0-.3 0-.5-.1 1.6-2.9 3-5.5 4.1-7.6 3-.3 6-1.8 8-4.4 1.3-1.7 2.1-3.8 2.3-5.8 1.6-1.6 4-4.1 6.9-7.1v.1c1.3 4.5 1.1 9.5-.9 13.9zm-11.2-3.2c-2.7 3.5-7.7 4.2-11.3 1.5s-4.2-7.7-1.5-11.3 7.7-4.2 11.3-1.5 4.2 7.8 1.5 11.3zm-21.6-16.6c4.4-5.8 11.5-8.4 18.2-7.3-1.6 2.9-3 5.5-4.1 7.6-3 .3-6 1.8-8 4.4-1.3 1.7-2.1 3.8-2.3 5.8-1.6 1.6-4 4.1-6.9 7.1-1.8-5.7-.9-12.3 3.1-17.6zm20.3 120.7c-.9 1.2-2.6 1.4-3.8.5-1.2-.9-1.4-2.6-.5-3.8.9-1.2 2.6-1.4 3.8-.5 1.2 1 1.4 2.7.5 3.8zm1.7-6.1-7.2-79.1c3.3.1 6.7-.5 9.8-1.8 2.9-1.2 6-1.6 9-1.1.6.1 1.2.1 1.7 0l35.3 27.1 22.9 17.5c-17.8 21.5-43.5 35-71.5 37.4zm79.8-36.5c-.9 1.2-2.6 1.4-3.8.5s-1.4-2.6-.5-3.8 2.6-1.4 3.8-.5c1.2.9 1.4 2.6.5 3.8zm-2.9-7.7L426.1 392c-.1-.6-.2-1.1-.5-1.7-1.2-2.8-1.7-5.9-1.2-9 .4-3.4.2-6.8-.8-10l78.2-13.6c4.9 27.6-1.3 56-17.4 78.9zm22.9-82.2c-.9 1.2-2.6 1.4-3.8.5-1.2-.9-1.4-2.6-.5-3.8s2.6-1.4 3.8-.5c1.2 1 1.4 2.6.5 3.8zM2.7 159.8l.9 4 79.7-13.9c-6.4 6.9-12.8 14-16.4 18.8-5.9 7.7-15 22-20.5 30.7-2.8 4.4-2.5 10.1.6 14.2l2.5 3.3c1.8 2.3 5.1 2.8 7.4.9 7.1-5.9 21.7-18.3 28.7-27.6 5.4-7.1 14.1-22 20.6-33.7.4.1.7.1 1.1.2 8.1 1.3 15.7 4.8 22.2 9.8l87.2 66.8c.1-.5.2-1.1.3-1.6l3.2-13.6c.5-2.3.8-4.6.8-6.9v-12.4L146.9 142c-6.1-4.6-10.7-10.8-14.1-17.6 8-8.5 18.1-19.4 22.9-25.7 5.9-7.7 15-22 20.5-30.7 2.8-4.4 2.5-10.1-.6-14.2l-2.5-3.3c-1.8-2.3-5.1-2.8-7.4-.9-7.1 5.9-21.7 18.3-28.7 27.6-4.5 5.9-11.2 17.1-17.1 27.4l-7.6-82.7-4.1.2c-32.1 1.5-61.7 16.4-82.1 41L26 63l-2.6 3.4-2.6 3.4.1.1c-18.5 26-25.1 58.5-18.2 89.9zm91-34.1c.1-.3.3-.5.4-.8.2-.4.4-.8.6-1.1.1-.1.2-.3.3-.4.3-.5.6-.9.9-1.4.4-.6.9-1.1 1.4-1.6l.1-.1c.5-.5 1-1 1.5-1.4 3.7-3.1 8.5-4.6 13.2-4.4.3 0 .5 0 .8.1.2 0 .5 0 .7.1.2 0 .3 0 .5.1-1.6 2.9-3 5.5-4.1 7.6-3 .3-6 1.8-8 4.4-1.3 1.7-2.1 3.8-2.3 5.8-1.6 1.6-4 4.1-6.9 7.1v-.1c-1.3-4.6-1.1-9.5.9-13.9zm11.2 3.1c2.7-3.5 7.7-4.2 11.3-1.5 3.5 2.7 4.2 7.7 1.5 11.3s-7.7 4.2-11.3 1.5-4.2-7.8-1.5-11.3zm21.6 16.6c-4.4 5.8-11.5 8.4-18.2 7.3 1.6-2.9 3-5.5 4.1-7.6 3-.3 6-1.8 8-4.4 1.3-1.7 2.1-3.8 2.3-5.8 1.6-1.6 4-4.1 6.9-7.1 1.8 5.8.9 12.4-3.1 17.6zM106.2 24.7c.9-1.2 2.6-1.4 3.8-.5s1.4 2.6.5 3.8-2.6 1.4-3.8.5-1.4-2.6-.5-3.8zm-1.7 6.2 7.2 79.1c-3.3-.1-6.7.5-9.8 1.8-2.9 1.2-6 1.6-9 1.1-.6-.1-1.2-.1-1.7 0L32.9 68.3c17.9-21.6 43.6-35 71.6-37.4zM24.7 67.4c.9-1.2 2.6-1.4 3.8-.5 1.2.9 1.4 2.6.5 3.8-.9 1.2-2.6 1.4-3.8.5s-1.4-2.6-.5-3.8zm3 7.7 58.2 44.6c.1.6.2 1.1.5 1.7 1.2 2.8 1.7 5.9 1.2 9-.4 3.4-.2 6.8.8 10L10.2 154c-4.9-27.7 1.3-56 17.5-78.9zm-23 82.1c.9-1.2 2.6-1.4 3.8-.5 1.2.9 1.4 2.6.5 3.8-.9 1.2-2.6 1.4-3.8.5s-1.4-2.6-.5-3.8zm237.8 24.9v-4c0-2.2 1.8-4 4-4h19c2.2 0 4 1.8 4 4v4c0 2.2-1.8 4-4 4H262v4h1.5c2.2 0 4 1.8 4 4v4c-2.9 3-7 4.9-11.5 4.9s-8.6-1.9-11.5-4.9v-4c0-2.2 1.8-4 4-4h1.5v-4h-3.5c-2.2 0-4-1.8-4-4zm17.4 152.4c.5-.5 1.2-1 2.1-1.5v151.1c0 3.3-2.7 6-6 6s-6-2.7-6-6V333c.9.5 1.6 1 2.1 1.5l.9.9h6l.9-.9zm30.8-45.5c1.5-2.6 2.2-5.5 2.2-8.5v-32.3c0-5.3-.6-10.5-1.8-15.6l-3.2-13.6c-.6-2.6-.9-5.2-.9-7.8v-28.7c0-3-2.4-5.4-5.4-5.4h-1.1c-3 0-5.4 2.4-5.4 5.4v3.7c0 10.9-8.6 19.8-19.3 19.8-10.6 0-19.3-8.9-19.3-19.8v-3.7c0-3-2.4-5.4-5.4-5.4H230c-3 0-5.4 2.4-5.4 5.4v28.7c0 2.6-.3 5.2-.9 7.8l-3.2 13.6c-1.2 5.1-1.8 10.4-1.8 15.6v32.3c0 3 .7 5.9 2.2 8.5 4.9 8.4 8 20.9 8 34.8v.9c0 2.8 2.6 4.9 5.3 4.2 2-.5 4.1-.8 6.5-.8 5.7 0 10.7 1.7 13.3 4.3h3.5c2.5-2.5 7.5-4.3 13.3-4.3 2.3 0 4.5.3 6.5.8 2.7.7 5.3-1.4 5.3-4.2v-.9c.2-13.9 3.3-26.4 8.1-34.8zm-62.8-13.4c0 1.2-1 2.1-2.1 2.1s-2.1-1-2.1-2.1v-26.8c0-1.2 1-2.1 2.1-2.1s2.1 1 2.1 2.1v26.8zm56.2-26.7c0-1.2 1-2.1 2.1-2.1s2.1 1 2.1 2.1v26.8c0 1.2-1 2.1-2.1 2.1s-2.1-1-2.1-2.1v-26.8zm-5.6-51.4c0-1.3 1.2-2.3 2.5-2.1 1.1.2 1.8 1.2 1.8 2.2v11.7c0 1.2-1 2.1-2.1 2.1s-2.1-1-2.1-2.1v-11.8zm-38.2 14.4c.6-1 1.9-1.4 2.9-.8 3.9 2.3 8.3 3.5 12.8 3.5s8.9-1.2 12.8-3.5c1-.6 2.3-.3 2.9.8.6 1 .3 2.3-.8 2.9-4.5 2.7-9.7 4.1-14.9 4.1-5.3 0-10.4-1.4-14.9-4.1-1.1-.6-1.4-1.9-.8-2.9zm-11.1-14.4c0-1.3 1.2-2.3 2.5-2.1 1.1.2 1.8 1.2 1.8 2.2v11.7c0 1.2-1 2.1-2.1 2.1s-2.1-1-2.1-2.1v-11.8zm0 35.3v-6.4c0-1.3 1.2-2.3 2.5-2.1 1.1.2 1.8 1.2 1.8 2.2v6.3c0 1.2-1 2.1-2.1 2.1s-2.2-.9-2.2-2.1zm7.5 81.4c0 1.3-1.2 2.3-2.5 2.1-1.1-.2-1.8-1.2-1.8-2.2v-6.3c0-1.2 1-2.1 2.1-2.1s2.1 1 2.1 2.1v6.4zM240 296c0 1.3-1.2 2.3-2.5 2.1-1.1-.2-1.8-1.2-1.8-2.2v-6.3c0-1.2 1-2.1 2.1-2.1s2.1 1 2.1 2.1v6.4zm0-20.4c0 1.3-1.2 2.3-2.5 2.1-1.1-.2-1.8-1.2-1.8-2.2v-6.3c0-1.2 1-2.1 2.1-2.1s2.1 1 2.1 2.1v6.4zm0-20.3c0 1.2-1 2.1-2.1 2.1s-2.1-1-2.1-2.1v-6.4c0-1.3 1.2-2.3 2.5-2.1 1.1.2 1.8 1.2 1.8 2.2v6.3zm7.4 58.9c0 1.3-1.2 2.3-2.5 2.1-1.1-.2-1.8-1.2-1.8-2.2v-6.3c0-1.2 1-2.1 2.1-2.1s2.1 1 2.1 2.1v6.4zm.4-18.3v-6.3c0-1.2 1-2.1 2.1-2.1 1.2 0 2.1 1 2.1 2.1v6.4c0 1.3-1.2 2.3-2.5 2.1-1-.2-1.7-1.2-1.7-2.2zm4.3-40.6c0 1.2-1 2.1-2.1 2.1-1.2 0-2.1-1-2.1-2.1v-6.4c0-1.3 1.2-2.3 2.5-2.1 1.1.2 1.8 1.2 1.8 2.2v6.3zm-2.1 11.8c1.2 0 2.1 1 2.1 2.1v6.4c0 1.3-1.2 2.3-2.5 2.1-1.1-.2-1.8-1.2-1.8-2.2v-6.3c0-1.2 1-2.1 2.2-2.1zm14.2 28.9c0 1.3-1.2 2.3-2.5 2.1-1.1-.2-1.8-1.2-1.8-2.2v-6.3c0-1.2 1-2.1 2.1-2.1s2.1 1 2.1 2.1v6.4zm0-20.4c0 1.3-1.2 2.3-2.5 2.1-1.1-.2-1.8-1.2-1.8-2.2v-6.3c0-1.2 1-2.1 2.1-2.1s2.1 1 2.1 2.1v6.4zm0-20.3c0 1.2-1 2.1-2.1 2.1s-2.1-1-2.1-2.1v-6.4c0-1.3 1.2-2.3 2.5-2.1 1.1.2 1.8 1.2 1.8 2.2v6.3zm4.6 58.9c0 1.3-1.2 2.3-2.5 2.1-1.1-.2-1.8-1.2-1.8-2.2v-6.3c0-1.2 1-2.1 2.1-2.1s2.1 1 2.1 2.1v6.4zM256 230.1c-7.3 0-14.4-2.7-19.9-7.6-.9-.8-1-2.1-.2-3 .8-.9 2.1-1 3-.2a25.6 25.6 0 0 0 17 6.5c6.3 0 12.3-2.3 17-6.5.9-.8 2.2-.7 3 .2.8.9.7 2.2-.2 3-5.3 5-12.4 7.6-19.7 7.6zm18.1 27.3c-1.2 0-2.1-1-2.1-2.1v-6.4c0-1.3 1.2-2.3 2.5-2.1 1.1.2 1.8 1.2 1.8 2.2v6.3c0 1.2-1 2.1-2.2 2.1zm2.2 11.8v6.4c0 1.3-1.2 2.3-2.5 2.1-1.1-.2-1.8-1.2-1.8-2.2v-6.3c0-1.2 1-2.1 2.1-2.1s2.2.9 2.2 2.1zm-2.5 28.9c-1.1-.2-1.8-1.2-1.8-2.2v-6.3c0-1.2 1-2.1 2.1-2.1s2.1 1 2.1 2.1v6.4c.1 1.3-1.1 2.3-2.4 2.1zm5.8 16.1c0 1.3-1.2 2.3-2.5 2.1-1.1-.2-1.8-1.2-1.8-2.2v-6.3c0-1.2 1-2.1 2.1-2.1s2.1 1 2.1 2.1v6.4zm1-79.3c-1.2 0-2.1-1-2.1-2.1v-6.4c0-1.3 1.2-2.3 2.5-2.1 1.1.2 1.8 1.2 1.8 2.2v6.3c0 1.2-1 2.1-2.2 2.1z" fill="#36434f"/></svg>