<svg version="1.1" xmlns="http://www.w3.org/2000/svg" x="0" y="0" viewBox="0 0 512 512" xml:space="preserve"><path d="M195.5 0v512h121V0h-121zM216 74V53c0-2.2 1.8-4 4-4h72c2.2 0 4 1.8 4 4v50h-80V74zm80 59h-80v-26h80v26zm0 30h-80v-26h80v26zm0 30h-80v-26h80v26zm0 33.5h-80V197h80v29.5zM256 395c-14.9 0-27-12.1-27-27s12.1-27 27-27 27 12.1 27 27-12.1 27-27 27zm40-112c0 2.2-1.8 4-4 4h-72c-2.2 0-4-1.8-4-4v-40.5h80V283zm-17 85c0 12.7-10.3 23-23 23s-23-10.3-23-23 10.3-23 23-23 23 10.3 23 23z" fill="#36434f"/></svg>