<svg version="1.1" xmlns="http://www.w3.org/2000/svg" x="0" y="0" viewBox="0 0 512 512" xml:space="preserve"><path d="M409.1 0v5c0 3.2-2.6 5.8-5.8 5.8h-16.7c-3.2 0-5.8-2.6-5.8-5.8V0h-6.2v61.3H137.4V0h-6.2v5c0 3.2-2.6 5.8-5.8 5.8h-16.7c-3.2 0-5.8-2.6-5.8-5.8V0H86.5v512h16.4v-5c0-3.2 2.6-5.8 5.8-5.8h16.7c3.2 0 5.8 2.6 5.8 5.8v5h6.2v-61.3h237.2V512h6.2v-5c0-3.2 2.6-5.8 5.8-5.8h16.7c3.2 0 5.8 2.6 5.8 5.8v5h16.4V0h-16.4zM131.2 469.9c0 3.2-2.6 5.8-5.8 5.8h-16.7c-3.2 0-5.8-2.6-5.8-5.8v-9.4c0-3.2 2.6-5.8 5.8-5.8h16.7c3.2 0 5.8 2.6 5.8 5.8v9.4zm277.9 0c0 3.2-2.6 5.8-5.8 5.8h-16.7c-3.2 0-5.8-2.6-5.8-5.8v-9.4c0-3.2 2.6-5.8 5.8-5.8h16.7c3.2 0 5.8 2.6 5.8 5.8v9.4zm-5.8-87.1h-16.7c-3.2 0-5.8-2.6-5.8-5.8v-9.4c0-3.2 2.6-5.8 5.8-5.8h16.7c3.2 0 5.8 2.6 5.8 5.8v9.4c0 3.2-2.6 5.8-5.8 5.8zm5.8 31.2v9.5c0 3.2-2.6 5.8-5.8 5.8h-16.7c-3.2 0-5.8-2.6-5.8-5.8V414c0-3.2 2.6-5.8 5.8-5.8h16.7c3.2 0 5.8 2.6 5.8 5.8zm-5.8-77.7h-16.7c-3.2 0-5.8-2.6-5.8-5.8V321c0-3.2 2.6-5.8 5.8-5.8h16.7c3.2 0 5.8 2.6 5.8 5.8v9.5c0 3.2-2.6 5.8-5.8 5.8zm0-46.5h-16.7c-3.2 0-5.8-2.6-5.8-5.8v-9.4c0-3.2 2.6-5.8 5.8-5.8h16.7c3.2 0 5.8 2.6 5.8 5.8v9.4c0 3.2-2.6 5.8-5.8 5.8zm0-46.5h-16.7c-3.2 0-5.8-2.6-5.8-5.8V228c0-3.2 2.6-5.8 5.8-5.8h16.7c3.2 0 5.8 2.6 5.8 5.8v9.5c0 3.2-2.6 5.8-5.8 5.8zm0-46.5h-16.7c-3.2 0-5.8-2.6-5.8-5.8v-9.4c0-3.2 2.6-5.8 5.8-5.8h16.7c3.2 0 5.8 2.6 5.8 5.8v9.4c0 3.2-2.6 5.8-5.8 5.8zm0-46.5h-16.7c-3.2 0-5.8-2.6-5.8-5.8V135c0-3.2 2.6-5.8 5.8-5.8h16.7c3.2 0 5.8 2.6 5.8 5.8v9.5c0 3.2-2.6 5.8-5.8 5.8zm0-46.5h-16.7c-3.2 0-5.8-2.6-5.8-5.8v-9.4c0-3.2 2.6-5.8 5.8-5.8h16.7c3.2 0 5.8 2.6 5.8 5.8V98c0 3.2-2.6 5.8-5.8 5.8zm-28.7 329.5H137.4V78.7h237.2v354.6zm-249.2-50.5h-16.7c-3.2 0-5.8-2.6-5.8-5.8v-9.4c0-3.2 2.6-5.8 5.8-5.8h16.7c3.2 0 5.8 2.6 5.8 5.8v9.4c0 3.2-2.6 5.8-5.8 5.8zm5.8 31.2v9.5c0 3.2-2.6 5.8-5.8 5.8h-16.7c-3.2 0-5.8-2.6-5.8-5.8V414c0-3.2 2.6-5.8 5.8-5.8h16.7c3.2 0 5.8 2.6 5.8 5.8zm-5.8-77.7h-16.7c-3.2 0-5.8-2.6-5.8-5.8V321c0-3.2 2.6-5.8 5.8-5.8h16.7c3.2 0 5.8 2.6 5.8 5.8v9.5c0 3.2-2.6 5.8-5.8 5.8zm0-46.5h-16.7c-3.2 0-5.8-2.6-5.8-5.8v-9.4c0-3.2 2.6-5.8 5.8-5.8h16.7c3.2 0 5.8 2.6 5.8 5.8v9.4c0 3.2-2.6 5.8-5.8 5.8zm0-46.5h-16.7c-3.2 0-5.8-2.6-5.8-5.8V228c0-3.2 2.6-5.8 5.8-5.8h16.7c3.2 0 5.8 2.6 5.8 5.8v9.5c0 3.2-2.6 5.8-5.8 5.8zm0-46.5h-16.7c-3.2 0-5.8-2.6-5.8-5.8v-9.4c0-3.2 2.6-5.8 5.8-5.8h16.7c3.2 0 5.8 2.6 5.8 5.8v9.4c0 3.2-2.6 5.8-5.8 5.8zm0-46.5h-16.7c-3.2 0-5.8-2.6-5.8-5.8V135c0-3.2 2.6-5.8 5.8-5.8h16.7c3.2 0 5.8 2.6 5.8 5.8v9.5c0 3.2-2.6 5.8-5.8 5.8zm0-46.5h-16.7c-3.2 0-5.8-2.6-5.8-5.8v-9.4c0-3.2 2.6-5.8 5.8-5.8h16.7c3.2 0 5.8 2.6 5.8 5.8V98c0 3.2-2.6 5.8-5.8 5.8zM380.8 42c0-3.2 2.6-5.8 5.8-5.8h16.7c3.2 0 5.8 2.6 5.8 5.8v9.5c0 3.2-2.6 5.8-5.8 5.8h-16.7c-3.2 0-5.8-2.6-5.8-5.8V42zm-277.9 0c0-3.2 2.6-5.8 5.8-5.8h16.7c3.2 0 5.8 2.6 5.8 5.8v9.5c0 3.2-2.6 5.8-5.8 5.8h-16.7c-3.2 0-5.8-2.6-5.8-5.8V42z" fill="#36434f"/></svg>