<svg version="1.1" xmlns="http://www.w3.org/2000/svg" x="0" y="0" viewBox="0 0 512 512" xml:space="preserve"><path d="M456.9 171.1c-11-26-26.7-49.3-46.7-69.3s-43.3-35.7-69.3-46.7C314 43.8 285.4 38 256 38s-58 5.8-84.9 17.1c-26 11-49.3 26.7-69.3 46.7s-35.7 43.3-46.7 69.3C43.8 198 38 226.6 38 256s5.8 58 17.1 84.9c11 26 26.7 49.3 46.7 69.3s43.3 35.7 69.3 46.7C198 468.2 226.6 474 256 474s58-5.8 84.9-17.1c26-11 49.3-26.7 69.3-46.7 20-20 35.7-43.3 46.7-69.3C468.2 314 474 285.4 474 256s-5.8-58-17.1-84.9zM74.8 212.2c4.4 0 8 3.6 8 8s-3.6 8-8 8-8-3.6-8-8 3.6-8 8-8zM63 256c0-4.4 3.6-8 8-8s8 3.6 8 8-3.6 8-8 8-8-3.6-8-8zm3.6 36.1c0-4.4 3.6-8 8-8s8 3.6 8 8-3.6 8-8 8-8-3.6-8-8zm18.5 42.7c-4.4 0-8-3.6-8-8s3.6-8 8-8 8 3.6 8 8-3.6 8-8 8zm.2-141.3c-4.4 0-8-3.6-8-8s3.6-8 8-8 8 3.6 8 8-3.6 8-8 8zm17 173.3c-4.4 0-8-3.6-8-8s3.6-8 8-8 8 3.6 8 8-3.6 8-8 8zm.1-205.2c-4.4 0-8-3.6-8-8s3.6-8 8-8 8 3.6 8 8-3.6 8-8 8zm15.4-38.6c1.4-4.2 6-6.4 10.2-5s6.4 6 5 10.2-6 6.4-10.2 5-6.4-6-5-10.2zm7.6 271.8c-4.4 0-8-3.6-8-8s3.6-8 8-8 8 3.6 8 8-3.6 8-8 8zm27.8-300.6c4.4 0 8 3.6 8 8s-3.6 8-8 8-8-3.6-8-8 3.6-8 8-8zm6.9 320c-2.4 3.7-7.4 4.7-11.1 2.2-3.7-2.4-4.7-7.4-2.2-11.1 2.4-3.7 7.4-4.7 11.1-2.2 3.6 2.5 4.6 7.5 2.2 11.1zm285.3-194.3c0 4.4-3.6 8-8 8s-8-3.6-8-8 3.6-8 8-8 8 3.6 8 8zm-18.5-42.7c4.4 0 8 3.6 8 8s-3.6 8-8 8-8-3.6-8-8 3.6-8 8-8zm-68.2-82.6c4.4 0 8 3.6 8 8s-3.6 8-8 8-8-3.6-8-8 3.6-8 8-8zm-32-17.1c4.4 0 8 3.6 8 8s-3.6 8-8 8-8-3.6-8-8 3.6-8 8-8zm-42.5-4c.8-4.3 5-7.2 9.4-6.3 4.3.8 7.2 5 6.3 9.4-.8 4.3-5 7.2-9.4 6.3-4.3-.9-7.2-5.1-6.3-9.4zM256 63c4.4 0 8 3.6 8 8s-3.6 8-8 8-8-3.6-8-8 3.6-8 8-8zm-36.1 3.6c4.4 0 8 3.6 8 8s-3.6 8-8 8-8-3.6-8-8 3.6-8 8-8zm-37.7 11.1c4.1-1.7 8.8.3 10.5 4.4s-.3 8.8-4.4 10.5c-4.1 1.6-8.8-.3-10.5-4.4s.3-8.8 4.4-10.5zm3.1 357.2c-4.4 0-8-3.6-8-8s3.6-8 8-8 8 3.6 8 8-3.6 8-8 8zm42.6 4c-.8 4.3-5 7.2-9.4 6.3-4.3-.8-7.2-5-6.3-9.4.8-4.3 5-7.2 9.4-6.3 4.3.9 7.1 5.1 6.3 9.4zM256 449c-4.4 0-8-3.6-8-8s3.6-8 8-8 8 3.6 8 8-3.6 8-8 8zm36.1-3.6c-4.4 0-8-3.6-8-8s3.6-8 8-8 8 3.6 8 8-3.6 8-8 8zm34.7-10.6c-4.4 0-8-3.6-8-8s3.6-8 8-8 8 3.6 8 8-3.6 8-8 8zM295.3 288H256v13.8h63v23.8h-63v14l24.9 4.8v28h-96.4v-28l24.8-4.8v-14h-24.8v-23.8h24.8V172.5l-24.8-4.8v-28.1h110.8c26.7 0 47.7 6.8 63.1 20.5s23.1 31.7 23.1 53.9c0 22.3-7.7 40.2-23.1 53.7-15.4 13.5-36.5 20.3-63.1 20.3zm63.5 129.8c-4.4 0-8-3.6-8-8s3.6-8 8-8 8 3.6 8 8-3.6 8-8 8zm27.8-22.9c-4.4 0-8-3.6-8-8s3.6-8 8-8 8 3.6 8 8-3.6 8-8 8zm0-261.3c-4.4 0-8-3.6-8-8s3.6-8 8-8 8 3.6 8 8-3.6 8-8 8zm23.1 233.2c-4.4 0-8-3.6-8-8s3.6-8 8-8 8 3.6 8 8-3.6 8-8 8zm.1-205.6c-4.4 0-8-3.6-8-8s3.6-8 8-8 8 3.6 8 8-3.6 8-8 8zm16.9 173.7c-4.4 0-8-3.6-8-8s3.6-8 8-8 8 3.6 8 8-3.6 8-8 8zm10.5-34.7c-4.4 0-8-3.6-8-8s3.6-8 8-8 8 3.6 8 8-3.6 8-8 8zM441 264c-4.4 0-8-3.6-8-8s3.6-8 8-8 8 3.6 8 8-3.6 8-8 8zm-116.2-77.4c6.7 7.3 10 16.5 10 27.7 0 10.9-3.3 20-10 27.1S308.3 252 295.3 252H256v-76.4h39.3c13 0 22.8 3.7 29.5 11zM256 0C114.6 0 0 114.6 0 256s114.6 256 256 256 256-114.6 256-256S397.4 0 256 0zm0 490C126.8 490 22 385.2 22 256S126.8 22 256 22s234 104.8 234 234-104.8 234-234 234z" fill="#36434f"/></svg>