<svg version="1.1" xmlns="http://www.w3.org/2000/svg" x="0" y="0" viewBox="0 0 512 512" xml:space="preserve"><path fill="#36434F" d="M512 424.5v-10H298v-10.1h-39.8c-2.1 0-3.3-1.1-3.9-1.8-.6-.6-1.5-2.1-1.1-4.1l15.7-81c.9-4.8-.6-9.7-3.9-13.2l-1.2-1.3 1.1-.1c1.6-.2 2.8-1.7 2.6-3.4l-1.1-9.5 229.9-25.5c6.1-.6 10.7-5.8 10.7-11.9V91.1c0-6.4-5.1-11.7-11.5-12L65.7 60l-6.9-25.1c-2.5-9.4-10.5-16.4-19.9-18-.3-1.3-1.5-2.4-2.9-2.4H3c-1.3 0-2.4.9-2.8 2H0v10h.2c.4 1.1 1.6 2 2.8 2h33c1.1 0 2.1-.6 2.6-1.5 5.1 1.3 9.2 5.3 10.6 10.5l72.3 264.7-72.3 80.6c-6.7 7.5-8.3 17.8-4.2 26.9 2.8 6.2 7.7 10.8 13.6 13.1l-14.1 19.5c-3.8-1.8-8-2.8-12.5-2.8-16 0-29 13-29 29s13 29 29 29 29-13 29-29c0-4.2-.9-8.2-2.5-11.9l51.6-32.1h337.3l-12.9 17.8c-3.8-1.8-8-2.8-12.5-2.8-16 0-29 13-29 29s13 29 29 29 29-13 29-29c0-4.2-.9-8.2-2.5-11.9l51.6-32.1H512zm-459 44c0 11.6-9.4 21-21 21s-21-9.4-21-21 9.4-21 21-21c2.7 0 5.3.5 7.7 1.5l-7.5 10.3c0 .1-.1.1-.1.2H32c-5 0-9 4-9 9s4 9 9 9 9-4 9-9v-.9c.1-.1.2-.1.2-.2l10.4-6.5c.9 2.4 1.4 4.9 1.4 7.6zm14.8-54c-6.1 0-11.2-3.3-13.7-8.9-2.5-5.5-1.6-11.6 2.5-16.1l60.2-67.2 134.7-17.7 6.2 6.5c1.1 1.2 1.6 2.8 1.3 4.4l-15.7 81c-.8 4.4.3 8.9 3.2 12.4 2.9 3.5 7.1 5.5 11.6 5.5H67.8zm375.2 54c0 11.6-9.4 21-21 21s-21-9.4-21-21 9.4-21 21-21c2.7 0 5.3.5 7.7 1.5l-7.5 10.3c0 .1-.1.1-.1.2h-.1c-5 0-9 4-9 9s4 9 9 9 9-4 9-9v-.9c.1-.1.2-.1.2-.2l10.4-6.5c.9 2.4 1.4 4.9 1.4 7.6z"/></svg>