<svg version="1.1" xmlns="http://www.w3.org/2000/svg" x="0" y="0" viewBox="0 0 512 512" xml:space="preserve"><path d="M479.3 189.5c.5 0 1 .2 1.4.4.3.2.5.4.7.7.3.4.4.9.4 1.4 0 .5-.2 1-.4 1.4-.2.3-.4.5-.7.7-.4.3-.9.4-1.4.4s-1-.2-1.4-.4c-.3-.2-.5-.4-.7-.7-.3-.4-.4-.9-.4-1.4 0-.5.2-1 .4-1.4.2-.3.4-.5.7-.7.4-.2.8-.4 1.4-.4zM454 229c2.8 0 5-2.2 5-5s-2.2-5-5-5-5 2.2-5 5 2.2 5 5 5zm-23.2-41.2l-4 2v4.4l4 2v-8.4zM477 219c-2.8 0-5 2.2-5 5s2.2 5 5 5 5-2.2 5-5-2.2-5-5-5zm-21-27c0-1.7-1.3-3-3-3v6c1.7 0 3-1.3 3-3zm-33.2 2h3v-4h-3v4zm-.8-35.1c.4 0 .7-.2.9-.6v-.8c0-.5-.1-1-.3-1.2s-.4-.4-.7-.4c-.3 0-.5.1-.7.4s-.3.7-.3 1.1c0 .4.1.8.3 1.1s.5.4.8.4zM512 77v358H0V77h512zm-96 44.5h26v-2h-26v2zm40.1 7l1.1-1.3c.6-.6 1-1.1 1.3-1.4s.5-.7.6-1 .2-.6.2-1c0-.8-.2-1.4-.7-1.8s-1.2-.6-2.1-.6c-.6 0-1.1.1-1.6.4s-.8.6-1.1 1-.4.9-.4 1.5h2c0-.4.1-.7.3-1s.4-.4.7-.4c.3 0 .5.1.7.3s.2.5.2.8c0 .5-.3 1.1-1 1.8l-2.7 2.9v1.3h6v-1.5h-3.5zM450 135v1h1l1.6 3.1c.2.4.7.4.9 0l1.6-3.1h1v-1H450zm.9-13.5h-.2l-3.7 1.3v1.5l1.9-.6v6.3h2v-8.5zm-10.9 38c0 6.5 4.8 11.9 11 12.8v3.3c0 1 .9 1.8 2 1.8s2-.8 2-1.8v-3.3c6.2-1 11-6.3 11-12.8s-4.8-11.9-11-12.8v-3.3c0-1-.9-1.8-2-1.8s-2 .8-2 1.8v3.3c-6.2.9-11 6.3-11 12.8zm9.3 30.9c-.2.5-.3 1-.3 1.6 0 .6.1 1.1.3 1.6.2.5.5.9.9 1.3.2.2.4.3.6.5.4.3.9.5 1.4.6.3.1.5.1.8.1 2.2 0 4-1.8 4-4s-1.8-4-4-4c-.3 0-.5 0-.8.1-.5.1-1 .3-1.4.6-.2.1-.4.3-.6.5-.4.2-.7.7-.9 1.1zm6.7-6.4v-1h-1l-1.6-3.1c-.2-.4-.7-.4-.9 0L451 183h-1v1h6zm-12 40c0 5.5 4.5 10 10 10s10-4.5 10-10-4.5-10-10-10-10 4.5-10 10zm23.8-44.8l-.5-.9-.9.5-2.9-1.9c-.3-.2-.8 0-.8.4l.2 3.5-.9.5.5.9 5.3-3zm0-39.4l-5.2-3-.5.9.9.5-.2 3.5c0 .4.4.7.8.4l2.9-1.9.9.5.4-.9zm-38.3 17.7v-1h-1v6h1v-1l3.1-1.6c.4-.2.4-.7 0-.9l-3.1-1.5zm4.1-11.5l.5-.9-.9-.5-3 5.2.9.5.5-.9 3.5.2c.4 0 .7-.4.4-.8l-1.9-2.8zm0 27l1.9-2.9c.2-.3 0-.8-.4-.8l-3.5.2-.5-.9-.9.5 3 5.2.9-.5-.5-.8zm-7.5 16h-4.4v6h4.4l5.7 2.9v-11.7l-5.7 2.8zm-7.1 35c0 5.5 4.5 10 10 10s10-4.5 10-10-4.5-10-10-10-10 4.5-10 10zm24.3-41.8l.5-.9-.9-.5.2-3.5c0-.4-.4-.7-.8-.4l-2.9 1.9-.9-.5-.5.9 5.3 3zm-.3-44.1l.9-.5-.5-.9-5.2 3 .5.9.9-.5 2.9 1.9c.3.2.8 0 .8-.4l-.3-3.5zM388 259c0-34.8-2-69.6-5.8-103.5-1.6-14.4-12.9-26-27.3-28.1-48.2-6.9-98.1-10.5-148.4-10.5-47 0-93.8 3.1-139 9.1-14.5 1.9-25.9 13.5-27.5 28-4 34.3-6 69.6-6 104.8 0 33.1 1.8 66.2 5.3 98.5 1.6 14.7 12.9 26.3 27.5 28.2 45.4 6.1 92.4 9.2 139.7 9.2 50.5 0 100.7-3.6 149.1-10.6 14.5-2.1 25.7-13.7 27.3-28.2 3.4-31.6 5.1-64.3 5.1-96.9zm28-133.5h26v-2h-26v2zm3 31.9c0 .9.2 1.6.7 2.1s1.1.8 1.8.8c.5 0 1-.2 1.4-.6-.2 1.2-.9 1.8-2.3 1.8h-.4v1.6h.1c.9 0 1.7-.2 2.4-.6s1.2-.9 1.6-1.6.6-1.5.6-2.4v-.8c0-.7-.1-1.3-.4-1.8s-.6-.9-1.1-1.2-1-.4-1.5-.4c-.6 0-1.1.1-1.5.4s-.8.6-1.1 1.1-.3 1-.3 1.6zm3 114.6h-2v126h2V272zm4 0h-2v126h2V272zm4 0h-2v126h2V272zm4 0h-2v126h2V272zm4 0h-2v126h2V272zm4 118.8h-2v7.2h2v-7.2zm4 0h-2v7.2h2v-7.2zm4 0h-2v7.2h2v-7.2zm4 0h-2v7.2h2v-7.2zm4 0h-2v7.2h2v-7.2zm4 0h-2v7.2h2v-7.2zm1.9-5.6c.2-2.1.3-4.2.3-6.4 0-2.3-.1-4.6-.4-6.9-.1-.7-.6-1.3-1.4-1.4-3.1-.5-6.4-.7-9.8-.7-3.2 0-6.3.2-9.2.6-.7.1-1.3.7-1.4 1.4-.3 2.2-.4 4.6-.4 6.9 0 2.2.1 4.4.3 6.5.1.7.6 1.3 1.4 1.4 3 .4 6.1.6 9.3.6 3.4 0 6.7-.2 9.9-.7.8 0 1.4-.6 1.4-1.3zM442 366.3V272h-2v94.3h2zm4 0V272h-2v94.3h2zm4 0V272h-2v94.3h2zm4 0V272h-2v94.3h2zm4 0V272h-2v94.3h2zm4 0V272h-2v94.3h2zm4 24.5h-2v7.2h2v-7.2zm0-118.8h-2v94.3h2V272zm4 0h-2v126h2V272zm4 0h-2v126h2V272zm4 0h-2v126h2V272zm4 0h-2v126h2V272zm4 0h-2v126h2V272zm1-5.5h-68v2h68v-2zm-2-3v-8h-64v8h64zm2-13h-68v2h68v-2zm0-26.5c0-5.5-4.5-10-10-10s-10 4.5-10 10 4.5 10 10 10 10-4.5 10-10zm-14.6-78l-1.9 2.9c-.2.3 0 .8.4.8l3.5-.2.5.9.9-.5-3-5.2-.9.5.5.8zm7.4 42.6V187h-1v1.6c-.6.1-1.1.3-1.6.7l-1.1-1.1-.7.7 1.1 1.1c-.3.5-.6 1-.7 1.6h-1.6v1h1.6c.1.6.3 1.1.7 1.6l-1.1 1.1.7.7 1.1-1.1c.5.3 1 .6 1.6.7v1.6h1v-1.6c.6-.1 1.1-.3 1.6-.7l1.1 1.1.7-.7-1.1-1.1c.3-.5.6-1 .7-1.6h1.6v-1h-1.6c-.1-.6-.3-1.1-.7-1.6l1.1-1.1-.7-.7-1.1 1.1c-.5-.4-1.1-.7-1.6-.7zm-2.3-32.1h-1v1l-3.1 1.6c-.4.2-.4.7 0 .9l3.1 1.6v1h1v-6.1zm-7.1 13.6l1.9 2.9-.5.9.9.5 3-5.2-.9-.5-.5.9-3.5-.2c-.3-.1-.6.3-.4.7zm16.6-9.5c0-.5-.1-.9-.4-1.2s-.6-.6-1.1-.7c.4-.2.8-.5 1-.8s.3-.7.3-1c0-.8-.3-1.4-.8-1.8s-1.3-.7-2.2-.7c-.5 0-1 .1-1.5.3s-.8.5-1 .8-.4.8-.4 1.2h2c0-.2.1-.4.3-.6s.4-.2.7-.2c.3 0 .6.1.7.3s.3.4.3.7c0 .7-.4 1.1-1.1 1.1h-.9v1.5h1c.4 0 .7.1.9.3s.3.5.3.9c0 .3-.1.5-.3.7s-.5.3-.8.3c-.3 0-.6-.1-.8-.3s-.3-.4-.3-.7h-2c0 .5.1.9.4 1.3s.6.7 1.1.9 1 .3 1.6.3c1 0 1.7-.2 2.3-.7s.7-1.1.7-1.9zm3-37.1h-26v2h26v-2zm0-4h-26v2h26v-2zm0-4h-74v2h74v-2zm0-4h-74v2h74v-2zm0-4h-74v2h74v-2zm0-4h-74v2h74v-2zM429 229c2.8 0 5-2.2 5-5s-2.2-5-5-5-5 2.2-5 5 2.2 5 5 5z" fill="#36434f"/></svg>