<svg version="1.1" xmlns="http://www.w3.org/2000/svg" x="0" y="0" viewBox="0 0 512 512" style="enable-background:new 0 0 512 512" xml:space="preserve"><path d="M312.4 16c-10.4 28-24.8 72.4-24.8 105.6 0 60.4 30.8 97.9 58 130.9 21.1 25.7 39.3 47.9 39.3 76.3 0 23.9-13.8 57-39.8 95.9-22.1 32.9-46.9 60.8-56.5 71.3h-65.2c-9.6-10.5-34.4-38.4-56.5-71.3-26-38.8-39.8-72-39.8-95.9 0-28.4 18.2-50.6 39.3-76.3 27.2-33.1 58-70.6 58-130.9 0-33.2-14.3-77.6-24.8-105.6h112.8m17.5-16H182.1c-2.8 0-4.8 2.9-3.7 5.5 7.4 18.1 30 77.1 30 116.1 0 101.4-97.3 133.1-97.3 207.3 0 64.6 79.9 155.5 100.5 178 3 3.3 7.3 5.2 11.8 5.2h65.2c4.5 0 8.7-1.9 11.8-5.2 20.7-22.5 100.5-113.4 100.5-178 0-74.1-97.3-105.9-97.3-207.3 0-39 22.7-98 30-116.1 1.1-2.6-.9-5.5-3.7-5.5z" style="fill:#36434f"/></svg>