<svg version="1.1" xmlns="http://www.w3.org/2000/svg" x="0" y="0" viewBox="0 0 512 512" xml:space="preserve"><path d="M220.1 301.7c-1-23.8-3.6-93.9-3.6-148.7 0-38.5 8.2-83.2 15.3-114.4 5.2-23 9.7-38.6 9.7-38.6s30 44 42 111c11.5 64.1 12 195 12 206.2-8.5.7-16.3 3.6-23 8-1 .7-2 1.4-3 2.2-1-1.4-2.2-2.5-3.8-3.3L226.8 303c-1.6-.9-3.4-1.3-5.2-1.3-.5-.1-1-.1-1.5 0zm54.2 175.1c.5-1.3.7-2.7.6-4s-.4-2.7-1-3.9c-1.6-3.4-4-8.7-5.7-13.9-.8-2.4-1.4-4.7-1.8-6.8-.6-3.7-.6-8.3-.4-13.4v-.3c.5-8.6 1.5-18.6 1.2-28.2-.2-6.3-1.6-16.8-3.2-27.4-.1-.8-.2-1.6-.4-2.5-.5-3.3-1-6.5-1.5-9.7-.1-.8-.2-1.6-.4-2.3-.4-2.3-.7-4.5-1-6.6-.1-.7-.2-1.4-.3-2-.2-1.3-.4-2.6-.5-3.7-.1-.6-.1-1.1-.2-1.7-.4-3.2-.6-5.6-.5-6.8 0-.4.1-.8.1-1.2s.2-.8.3-1.1c.3-1.1.8-2.1 1.3-3s1.1-1.7 1.7-2.4c.2-.2.3-.4.4-.6 0 0 0-.1.1-.2.1-.2.1-.4.2-.6v-.1c0-.2.1-.4 0-.7 0-.2-.1-.5-.1-.7-.2-.7-.7-1.4-1.5-1.8L222.9 310c-.5-.3-.9-.4-1.4-.4-.4 0-.7.1-1 .2-.1 0-.2.1-.3.1-.1 0-.1.1-.2.1s-.2.1-.2.2c-.1 0-.1.1-.2.2l-.2.2c-.1.1-.2.2-.3.4l-.1.1c-.1.1-.1.2-.2.3 0 .1-.1.1-.1.2s-.1.2-.1.4v.2c0 .2-.1.4-.1.6 0 5 .1 13.3.2 23.6 0 2.2.1 4.5.1 6.9 0 1.6 0 3.2.1 4.9 0 1.6 0 3.3.1 5 .1 5.1.2 10.5.3 15.9 0 .9 0 1.8.1 2.7.1 2.8.1 5.6.2 8.4 0 1.8.1 3.7.1 5.5 0 1.9.1 3.7.1 5.6.1 3.7.2 7.5.3 11.1 0 1 .1 1.9.1 2.8.3 8.2.6 16.1.9 23.4.1 1.7.2 3.4.3 5 .1 2.3.2 4.5.4 6.6.1 2.2.3 4.4.4 6.4.3 4.6.7 8.7 1.1 11.9 1.4 11 3.1 20.7 4.9 28.9.5 2.5 1.1 4.8 1.6 7 .4 1.7.8 3.2 1.2 4.7.8 3.3 1.6 6.1 2.3 8.4l.3.9c0 .1.1.2.1.2.1.2.3.5.4.7l.1.1c.2.2.4.5.6.7l.2.2c.2.2.4.3.5.5.1 0 .1.1.2.1.2.2.5.3.7.5.1 0 .1 0 .2.1.2.1.4.2.7.3.1 0 .1.1.2.1.3.1.6.2.9.2h.1c.3 0 .5.1.8.1h1.1c.2 0 .3-.1.5-.1.1 0 .2 0 .3-.1.2 0 .3-.1.5-.2.1 0 .2-.1.2-.1.2-.1.5-.2.7-.4 5.3-3 11.3-7.2 16.1-11 .7-.5 1.3-1.1 2-1.6 2.2-1.8 4.4-4.5 6.4-7.5.7-1 1.3-2 1.9-3l.9-1.5c1.8-3.8 3.5-7.3 4.4-9.9z" fill="#36434f"/></svg>