<svg version="1.1" xmlns="http://www.w3.org/2000/svg" x="0" y="0" viewBox="0 0 512 512" xml:space="preserve"><path d="M247 512l3-87 6 66 6-66 3 87 6-63 1-54 3 24-2 76 9-44 4-51 3 51 4-57-10.7-48.2L267 314v-5l7-15-9 6 1-13-3 3.9V5c0-2.7-2.2-5-5-5h-4c-.3 0-.7 0-1 .1s-.5.1-.8.2h-.1c-.2.1-.5.2-.7.4-.1 0-.1.1-.2.1-.2.1-.3.2-.5.4-.1.1-.2.2-.3.2-.1.1-.2.2-.2.3-.1.2-.3.3-.4.5 0 .1-.1.1-.1.2-.1.2-.3.4-.4.7v.1c-.1.3-.2.5-.2.8-.1.3-.1.7-.1 1v285.9l-3-3.9 1 13-9-6 7 15v5l-15.3 31.8L219 394l4 57 3-51 4 51 9 44-2-76 3-24 1 54 6 63z" fill="#36434f"/></svg>