<svg version="1.1" xmlns="http://www.w3.org/2000/svg" x="0" y="0" viewBox="0 0 512 512" style="enable-background:new 0 0 512 512" xml:space="preserve"><path d="M325.9 362.9c-.6-26.4-4.2-174-6.9-234.9-2.1-47.3-6.2-91.7-8.5-113.6-.8-8.2-7.7-14.4-15.9-14.4h-77.2c-8.2 0-15.1 6.2-15.9 14.4-2.2 21.9-6.3 66.3-8.5 113.6-2.7 60.9-6.3 208.5-6.9 234.9-.1 2.2 1.8 4.1 4 4.1-.2 0-.4 0-.6-.1v2.1c0 2.2 1.8 4 4 4h3.5v3.3c0 2.7 1.5 5.3 3.8 6.7 21.1 13 35.2 36.4 35.2 63v23c0 2.2 1.8 4 4 4h3v37c0 1.2.9 2 2 2 .3 0 .5-.1.8-.2l18.3-7.8c3-1.3 4.9-4.2 4.9-7.4V473h3c2.2 0 4-1.8 4-4v-23c0-26.6 14.1-50 35.2-63 2.3-1.4 3.8-3.9 3.8-6.7V373h3.5c2.2 0 4-1.8 4-4v-2.1c-.2 0-.4.1-.6.1 2.3 0 4.1-1.8 4-4.1zM225 129.4c1.7-37.8 4.7-73.6 6.9-97.4h48.2c2.3 23.8 5.2 59.7 6.9 97.4 2.2 48.5 4.9 152 6.2 205.6h-74.4c1.3-53.5 4-157.1 6.2-205.6zm36.9 257.5c-2.8 4.2-9 4.2-11.8 0-3.1-4.6-6.6-9-10.5-13.1-2.4-2.6-.6-6.7 2.9-6.7h27c3.5 0 5.3 4.2 2.9 6.7-3.9 4-7.4 8.4-10.5 13.1z" style="fill:#36434f"/></svg>