<svg version="1.1" xmlns="http://www.w3.org/2000/svg" x="0" y="0" viewBox="0 0 512 512" xml:space="preserve"><path d="M343 122h-81.9V91.1c0-3.5 4.1-8.7 5.9-10.9 2-2.5 5.5-4.6 9.3-6.8 8.9-5.2 21-12.2 21.8-31.2.4-10.8-3.6-21.1-11.2-29.1-8-8.3-19.2-13.1-30.8-13.1-23.2 0-42 18.8-42 42 0 5.3 2.8 16.9 3.1 18.2l9.7-2.4c-1.1-4.5-2.9-12.7-2.9-15.8 0-17.6 14.4-32 32-32 8.9 0 17.5 3.7 23.6 10.1 5.8 6 8.7 13.7 8.4 21.7-.6 13.5-8.5 18.1-16.8 22.9-4.4 2.6-8.9 5.2-12.1 9.2-4.2 5.2-8.1 10.9-8.1 17.1v31h-82c-17.7 0-32 14.3-32 32v326c0 17.7 14.3 32 32 32h174c17.7 0 32-14.3 32-32V154c0-17.7-14.3-32-32-32z" fill="#36434f"/></svg>