<svg version="1.1" xmlns="http://www.w3.org/2000/svg" x="0" y="0" viewBox="0 0 512 512" xml:space="preserve"><path d="M399.6 419.3l.1.2c-.1-9.2-.4-19.1-1.2-29.6-4-52-59-126-65-160.2-3.9-20 1.2-43.1 3.7-52.6.7-2.6-.4-5.3-2.8-6.7l-19.2-11v.1l-12-6.9c-2.7-1.6-6.2-.8-7.9 1.9l-8.9 13c-1.5-10.8-3.2-23.7-4.4-32.4V125c0-1.4.3-3.4.7-5.6 1.5-8.1 5-20.2 5.3-28.1v-1.2c0-10-12-90-12-90h-7l-8.8 82-2.2 20.6-1 9.4h-2l-3.2-30L243 0h-7s-12 80-12 90v1.3c.4 9.9 5.7 25.9 6 33v10.8c-1.2 8.5-2.9 21.3-4.3 32l-8.8-12.8c-1.8-2.6-5.2-3.4-7.9-1.8h-.1s-.1 0-.1.1l-12 6.9v-.1l-19.2 11c-2.4 1.4-3.5 4.1-2.8 6.7 2.5 9.5 7.6 32.6 3.7 52.6-6 34.2-61 108.2-65 160.2-.8 10.5-1.1 20.4-1.2 29.6l.1-.2c-.1 26.9 2.6 48.1 4.7 63.6.7 5.5 1.4 10.4 1.9 14.5.4 3.5 2.2 6.6 5.1 8.6l5.7 4c2.2 1.5 4.8 2.2 7.4 2.1 1.7 0 3.3-.4 4.9-1.2l13.4-6.4c3.4-1.6 5.8-4.7 6.5-8.3l2.2-10.4c.1-.4.2-.8.2-1.3v-1.2c0-.4 0-.8-.1-1.2l-.3-1.8c-3-11.4-13.8-59.6-4.3-101.3 5.2-22.7 27.1-63.7 46-102 1.9-3.9 3.9-7.9 5.7-11.7l22.9-23.6c1-1 1.1-2.4.4-3.6-.2-.4-.5-.8-.9-1.1l-3.2-2.4 25.5-17.5v-.2l25.6 17.6-3.5 2.6c-1.5 1.1-1.7 3.2-.4 4.5l23 23.7c1.9 3.8 3.8 7.7 5.7 11.7 18.9 38.3 40.8 79.3 46 102 9.5 41.7-1.3 89.9-4.3 101.3-.3 1.5-.4 3-.2 4.5 0 .4.1.7.1 1.1l2.2 10.4c.7 3.6 3.1 6.7 6.5 8.3l13.4 6.4c3.9 1.9 8.5 1.5 12-.9l5.7-4c2.9-2 4.7-5.1 5.1-8.6.4-4.1 1.1-8.9 1.9-14.4 2-15.7 4.7-36.9 4.7-63.8zM262.5 175h.5l6.3 17.3c-1.1 1.7-1.3 3.9-.4 5.7 2.6 5.4 8.3 17.7 15.8 33.6l-25.1-17.2 1.1-.8c.9-.6 1.1-1.9.5-2.8-.6-.9-1.9-1.1-2.8-.5l-2.4 1.6-.1-.1-2.3-1.6c-.8-.5-1.9-.4-2.6.3l-.3.3c-.6.9-.4 2.2.5 2.8l1.1.8-25 17.1c.6-1.2 1.2-2.4 1.7-3.6 5.6-11.8 10-21.3 12.7-27.1.5-1.1 1-2.1 1.3-2.9.5-1 .6-2 .5-3v-.2c0-.2 0-.3-.1-.5-.1-.7-.4-1.4-.8-2l4.9-13.4 1.4-3.8h13.6z" fill="#36434f"/></svg>