<svg version="1.1" xmlns="http://www.w3.org/2000/svg" x="0" y="0" viewBox="0 0 512 512" xml:space="preserve"><path d="M367 323h-2V96c0-53-43-96-96-96h-22c-53 0-96 43-96 96v227h-2c-8.8 0-16 7.2-16 16v25c0 8.8 7.2 16 16 16h36.3l6.3 3.8c.3.2.6.3.9.5V512h20V384.3c.3-.2.6-.3.9-.5l6.3-3.8h72.6l6.3 3.8c.3.2.6.3.9.5V512h20V384.3c.3-.2.6-.3.9-.5l6.3-3.8H367c8.8 0 16-7.2 16-16v-25c0-8.8-7.2-16-16-16zm0 41h-44.7l-3.8 2.3-6.3 3.8c-.8.5-1.7.7-2.6.7s-1.8-.3-2.6-.7l-6.3-3.8-3.8-2.3h-81.4l-3.8 2.3-6.3 3.8c-.8.5-1.7.7-2.6.7s-1.8-.3-2.6-.7l-6.3-3.8-3.8-2.3H149v-25h18V96c0-44.1 35.9-80 80-80h22c44.1 0 80 35.9 80 80v243h18v25z"/></svg>