<svg xmlns="http://www.w3.org/2000/svg" viewBox="0 0 512 512" style="enable-background:new 0 0 512 512" xml:space="preserve"><path d="M289.8 32c-9.1 27.6-18.2 61.9-18.2 89.6 0 66.1 34.2 107.7 61.6 141.1 22.1 26.9 35.7 44.5 35.7 66.1 0 20.4-13.2 51.3-37.1 87-18.5 27.6-39 51.6-50.3 64.2h-51c-11.3-12.6-31.8-36.6-50.3-64.2-23.9-35.7-37.1-66.5-37.1-87 0-21.6 13.6-39.2 35.7-66.1 27.5-33.4 61.6-75 61.6-141.1 0-27.7-9.1-62-18.2-89.6h67.6m40.1-32H182.1c-2.8 0-4.8 2.9-3.7 5.5 7.4 18.1 30 77.1 30 116.1 0 101.4-97.3 133.1-97.3 207.3 0 64.6 79.9 155.5 100.5 178 3 3.3 7.3 5.2 11.8 5.2h65.2c4.5 0 8.7-1.9 11.8-5.2 20.7-22.5 100.5-113.4 100.5-178 0-74.1-97.3-105.9-97.3-207.3 0-39 22.7-98 30-116.1 1.1-2.6-.9-5.5-3.7-5.5z" style="fill:#36434f"/></svg>