<svg version="1.1" xmlns="http://www.w3.org/2000/svg" x="0" y="0" viewBox="0 0 512 512" xml:space="preserve"><path d="M277.7 265.8l70.3 41.1-3 5.2-70.2-41.1c1.2-1.6 2.2-3.3 2.9-5.2zm71.6 48.8l2.8 1.7c.3-.9.8-1.8 1.3-2.7s1.1-1.7 1.7-2.5l-2.8-1.7-3 5.2zm-15.9-162.4l-67.7 83.5c.9.4 1.8.9 2.7 1.4l67.3-83-2.3-1.9zm-248.6-.1c0 4.5.5 14.2 4.3 14.2s4.3-9.7 4.3-14.2-.5-14.2-4.3-14.2c-3.9 0-4.3 9.7-4.3 14.2zm154.6 128.7c.7.7 1.4 1.5 2 2.3l4.2-5.1c-.9-.5-1.8-1-2.6-1.5l-3.6 4.3zm187.2 79.6c-.5.7-.5 1.1 1.1 1.1h4.3l-4.9-1.8-.5.7zm-346.8-5.7c1.6-1 2.4-3.1 2.4-5.5 0-3.5-2.2-5.5-4.2-5.5-2.3 0-4.1 2-4.1 4.7 0 2.4 1.8 4.5 5.9 6.3zm-1.5 17.4c2.2 0 4.2-1.7 4.2-4.8 0-4-2.8-6.1-7-8.1-1.8 1.8-2.6 4-2.6 6.4.1 3.6 2.2 6.5 5.4 6.5zm261.3-214.9l-67.3 82.9c.7.7 1.4 1.5 2 2.3l67.6-83.3-2.3-1.9zm-155.4 57.4c-.9 1.5-1.5 3.1-1.9 4.7l5.9-1.6.3-.6c.1-.2.2-.4.4-.6l-1.6-5.9c-1.1 1.2-2.2 2.5-3.1 4zm48.6 61.6c.9.4 1.8.9 2.7 1.5l3.6-4.5c-.7-.7-1.4-1.5-2-2.3l-4.3 5.3zM511 256c0 141.4-114.6 256-256 256S-1 397.4-1 256 113.6 0 255 0s256 114.6 256 256zM427.9 89.5l-5.4 5.4c20.3 20.8 36.3 44.9 47.6 71.7 3.6 8.5 6.6 17.1 9.1 25.8l7.4-2c-11.1-38.5-31.5-73-58.7-100.9zm37.5 172.6c0 6.2-4.6 9.1-6.8 9.1-.7 0-1.6-.3-2.2-1.2-.5-.7-1.6-2.7-3.4-2.7-2 0-3 1.4-3 2.8 0 2.6 2.7 3.6 5.5 3.6s7.3-.9 11.7-4c4.1-3 5.8-6.7 5.8-10.3 0-4.9-3.9-8-8.5-7.8-.7 0-1-.4-.5-.7 5.5-2.4 6.4-4.5 6.4-6.5 0-3.4-3.1-5.8-8-5.8-4.6 0-8.6 2.3-10.6 6.4 0 .6.7 1.2 1.4 1 1.5-2.3 3.8-4.2 6.2-4.2 2.5 0 4.2 1.8 4.2 3.7 0 2.3-1.2 3.8-2.1 4.6-2 1.7-6.1 3.3-8.2 4.1-.5 1.2.2 2.2 1.2 2.4 1.3-1.2 2.9-2.1 5-2.1 3.5-.2 5.9 3 5.9 7.6zm6.5 57.6c3 .8 6.1-1 6.9-4 .8-3-1-6.1-4-6.9-3-.8-6.1 1-6.9 4-.8 3 1 6.1 4 6.9zm6.9-123.3c-.8-3-3.9-4.8-6.9-4s-4.8 3.9-4 6.9c.8 3 3.9 4.8 6.9 4 3-.8 4.8-3.9 4-6.9zm-36.6 168c.2-.1.4-.1.7-.1h3.3c.8-.5.8-2.4 0-2.8h-3.3c-1.1 0-1.2-.2-1.2-1.5v-9.6c0-.5-.2-.9-.7-.9-.9 0-3.6 1-4.9 1.6-.8.3-1.1.7-1.1 1.8v5.8l-4.6-3.7 11.3-15.7c.8-1 .4-1.4-.5-1.4h-1.5c-.7 0-1.1.4-1.7 1.2l-9.9 14.1-14-11.2 3-5.1-4.3-2.5-2.8 4.7-24-14c.3-2.1.3-4.2-.1-6.2l27.2 12.1 3.1-6.9-28.3-12.6-2.5 5.5c-1.3-4.1-4-7.7-8-10.1-5.3-3.1-11.4-3.1-16.6-.7l-5.3-3.1 5-8.6-4.3-2.5-5 8.6-72.2-42.2c0-.6.1-1.1.1-1.7 0-3.6-.8-7-2.3-10.1l68.7-84.6 2.5-3.1-7-5.7 2.6-3.2c2.4 1.4 5.3 1.5 7.8.5l2.7 2.4 20.7-23-5.6-5-12.7 14.2c-.4-1-.9-2-1.7-2.9l5.8-7.1-2.3-1.9-5.8 7.1c-.8-.5-1.7-.8-2.6-1l11-15.2-6.1-4.4-18.2 25 2.5 1.8c-.4 2.6.3 5.4 2.1 7.4l-2.6 3.2-7-5.7-2.5 3.1-68.9 85c-1.5-.3-3-.5-4.6-.5-4.8 0-9.2 1.4-12.9 3.9l-29-16.9c-.9-3.4-3.1-6.5-6.4-8.4-5.4-3.1-12-2.3-16.4 1.7l-1.4-5.2c5.9-4 13.8-4.6 20.3-.7l2.5-4.3c-11.4-6.7-26.1-2.8-32.8 8.6-6.7 11.4-2.8 26.1 8.6 32.8l2.5-4.3c-6.5-3.8-9.9-11-9.3-18.1l5.2-1.4c-1.3 5.8 1.2 12 6.6 15.1 3.3 1.9 7 2.3 10.5 1.5l28.7 16.8c-.1.8-.1 1.6-.1 2.5 0 3.3.7 6.4 1.9 9.2l-6.6 8.2c-8.7-2-18.1.9-24.1 8.3l3.9 3.1c6.1-7.5 16.7-9.1 24.7-4.2l-7 8.7c-3.6-1.5-7.9-.6-10.5 2.6-3.1 3.9-2.5 9.5 1.3 12.7s9.5 2.5 12.7-1.3c2.6-3.2 2.6-7.6.4-10.8l7-8.7c6.4 6.8 7 17.5 1 25l3.9 3.1c6-7.4 6.9-17.2 3.1-25.3l6.4-7.9c1.8.4 3.6.7 5.5.7 5.1 0 9.7-1.6 13.6-4.3l71.9 42-5 8.6 4.3 2.5 5-8.6 5.3 3.1c.4 5.7 3.5 11 8.7 14.1 4 2.3 8.6 2.9 12.8 2l-3.1 4.2 25 18.2 4.4-6.1-23.5-16.7c1.6-.6 3.1-1.5 4.4-2.5l24 14-2.8 4.7 4.3 2.5 3-5.2 16.3 6.1-2.8 4c-.2.7-.1 1.4.6 1.6h11.7c1.1 0 1.2.2 1.2 1.5v1.4c0 4.2-.3 4.6-2.8 4.8l-2.1.2c-.5.3-.4 1.6.1 1.8 1.7-.1 4.8-.2 8.1-.2 2.3 0 5 .1 6.8.2.5-.2.6-1.5.1-1.8l-1.1-.1c-2.2-.2-2.5-.7-2.5-4.8v-2l2.5 1-2-1.8zm-23.1 46.8c-2.2-2.2-5.8-2.2-8 0s-2.2 5.8 0 8 5.8 2.2 8 0c2.2-2.3 2.2-5.8 0-8zm-95.8 6.2l6.9-3.1-12.6-28.3-6.9 3.1 12.6 28.3zm-19.6-25.6l-7.1 2.3 9.6 29.4 7.1-2.3-9.6-29.4zm39.2 25.1l8.1-4.7-24.8-43-8.1 4.7 24.8 43zm12.3-17l6.1-4.4-18.2-25-6.1 4.4 18.2 25zm-6.8 52.5c4.3-.1 9.5-1.1 13.7-3.3 4.2-2.3 7.3-5.7 7.3-10.9 0-4.2-2.5-7-5.4-8.5-2.9-1.5-7.6-2.2-10.3-2.5-1-.1-1.7-.3-1.4-1.5l.3-1.2c.2-.9.5-1.4 1.2-1.5l11.4-1.3c1.3-1.2 2.3-3.3 2.8-5.2 0-.4-.2-.6-.6-.6l-13.4 1.6c-1.6.2-1.9.2-2.3 1.5l-3 11.6c-.3 1.2-.1 1.6 1.5 1.7 5.1.4 12.7 1.2 12.7 8.4 0 2.7-1.7 5.1-4.7 6.8-2.4 1.4-6.5 2.1-10.1 2.3-.6.6-.4 2.2.3 2.6zm21.2-63.7l5.6-5-20.7-23-5.6 5 20.7 23zm13.1-12.5l5-5.6-23-20.7-5 5.6 23 20.7zm-93.3 19.9l-7.3 1.6 6.4 30.3 7.3-1.6-6.4-30.3zm-45.1 67.7c0 7.9 4.4 13.6 12.1 13.6 7 0 11.6-4.6 11.6-11.2 0-4.9-2.8-9.6-9.1-9.6-1.8 0-4.2 1.2-5.1 2.2-.1.4.1.7.4.9.5-.1.8-.1 1.2-.1 4.4 0 5.8 6.2 5.8 9.6 0 2.4-.8 5.7-3.8 5.7-3.8 0-5.6-6.3-5.6-11.7 0-4.7 1.1-9.6 3.8-12.9 2.8-3.5 5.5-5.6 11.7-7.1.5-.6.4-1.5-.2-1.8-6.1.3-12.2 3.2-16.1 6.9-4.1 4.1-6.7 9.8-6.7 15.5zm.5-64.2l-7.5-.8-3.2 30.8 7.5.8 3.2-30.8zm15.9 39.3v-49.7h-9.4v49.7h9.4zm9.7-8.6l7.5-.8-3.2-30.8-7.5.8 3.2 30.8zm-47.8-34.2l-6.4 30.3 7.3 1.6 6.4-30.3-7.3-1.6zM159 423.5c0 .9-.6 2-1.7 4L144 450.6c.1 1.1 1.6 1.7 2.4 1.6l14.6-25.8c2.1-3.7 3.7-6.5 5-8.4.1-.3-.1-.7-.5-.8-.7.1-4.2.2-7.3.2h-9.7c-3.2 0-4.4-.1-6.1-.2-.5 1.9-1.1 5.1-2 7.6.2.6 1.3.8 1.7.4 1.2-2.1 1.7-2.5 4.6-2.5h10.7c.9 0 1.6.1 1.6.8zM33.2 315.8c.8 3 3.9 4.8 6.9 4 3-.8 4.8-3.9 4-6.9-.8-3-3.9-4.8-6.9-4s-4.8 3.9-4 6.9zm4-112.5c3 .8 6.1-1 6.9-4 .8-3-1-6.1-4-6.9-3-.8-6.1 1-6.9 4-.8 3 1 6.1 4 6.9zm17.6 63.6c4.3-3.9 7-9.3 7-15.4 0-7-4.3-13-12-13-6.3 0-11.2 4.6-11.2 11.1 0 5.1 3.8 9 8.6 9 2.1 0 4.2-.7 5-1.6.1-.4-.1-.9-.3-1.1-.5 0-.8 0-1.4-.1-3.4-.6-5.1-5-5.1-9.1 0-3 1.4-5.9 3.7-5.9 4.3 0 5.4 7.3 5.4 11.2 0 9.3-5.1 17.8-15 20.2-.5.4-.4 1.4.2 1.7 4.1-.2 10.9-3.1 15.1-7zm12-98.9c3.1 0 6.2.1 8 .2.5-.2.6-1.5.1-1.8l-2.1-.2c-2.5-.2-2.8-.7-2.8-4.8v-19.3c0-2.5.1-4.9.2-6-.1-.4-.5-.6-.7-.6-.4 0-2.3 1-4.5 1.6-2 .6-4.4 1.1-6.5 1.4-.4.3-.4 1.5.1 1.8l2.3.3c2.2.3 2.4 1.1 2.4 4.4v16.4c0 4.1-.3 4.6-2.8 4.8l-2.1.2c-.5.3-.4 1.6.1 1.8 1.9-.2 5-.2 8.3-.2zm71.9-98.2v16.4c0 4.1-.3 4.6-2.8 4.8l-2.1.2c-.5.3-.4 1.6.1 1.8 1.8-.1 4.9-.2 8.2-.2 3.1 0 6.2.1 8 .2.5-.2.6-1.5.1-1.8l-2.1-.2c-2.5-.2-2.8-.7-2.8-4.8V66.8c0-2.5.1-4.9.2-6-.1-.4-.5-.6-.7-.6-.4 0-2.3 1-4.5 1.6-2 .6-4.4 1.1-6.5 1.4-.4.3-.4 1.5.1 1.8l2.3.3c2.3.4 2.5 1.1 2.5 4.5zm22.6 0v16.4c0 4.1-.3 4.6-2.8 4.8l-2.1.2c-.5.3-.4 1.6.1 1.8 1.8-.1 4.9-.2 8.2-.2 3.1 0 6.2.1 8 .2.5-.2.6-1.5.1-1.8l-2.1-.2c-2.5-.2-2.8-.7-2.8-4.8V66.8c0-2.5.1-4.9.2-6-.1-.4-.5-.6-.7-.6-.4 0-2.3 1-4.5 1.6-2 .6-4.4 1.1-6.5 1.4-.4.3-.4 1.5.1 1.8l2.3.3c2.3.4 2.5 1.1 2.5 4.5zm27.4 26.8l-6.9 3.1 12.6 28.3 6.9-3.1-12.6-28.3zm19.6 25.6l7.1-2.3-9.6-29.4-7.1 2.3 9.6 29.4zm-39.2-25.1l-8.1 4.7 24.8 43 8.1-4.7-24.8-43zm-18.4 21.4l18.2 25 6.1-4.4-18.2-25-6.1 4.4zm18.2 252l-18.2 25 6.1 4.4 18.2-25-6.1-4.4zm-26.5-245.2l-5.6 5 20.7 23 5.6-5-20.7-23zm-13.1 12.5l-5 5.6 23 20.7 5-5.6-23-20.7zm-11.8 13.9l-4.4 6.1 25 18.2 4.4-6.1-25-18.2zM100.8 162l-4.7 8.1 43 24.8 4.7-8.1-43-24.8zm26.1 33.4l-28.3-12.6-3.1 6.9 28.3 12.6 3.1-6.9zm-3 116.3l-28.3 12.6 3.1 6.9 28.3-12.6-3.1-6.9zm-8.5-80.8l1.6-7.3-30.3-6.4-1.6 7.3 30.3 6.4zm-32 4.2l-.8 7.5 30.8 3.2.8-7.5-30.8-3.2zm35.5-18.7l2.3-7.1-29.4-9.6-2.3 7.1 29.4 9.6zM100.9 93c-2.2-2.2-5.8-2.2-8 0s-2.2 5.8 0 8 5.8 2.2 8 0c2.2-2.3 2.2-5.8 0-8zm-11.8 42.6c-8.2 0-11.7 8.7-11.7 16.6 0 8.2 3.5 16.6 11.7 16.6s11.7-8.4 11.7-16.6c0-7.9-3.5-16.6-11.7-16.6zm-15 116.7v9.4h49.7v-9.4H74.1zm39.3 15.9l-30.8 3.2.8 7.5 30.8-3.2-.8-7.5zm-47 98.1c0 5.5 5.2 8.2 11.1 8.2 7.9 0 11.6-4 11.6-8.8 0-4.9-3-7.5-6.8-9.5 2.7-1.5 5.5-3.4 5.5-7 0-4.8-4.1-7.9-9.8-7.9-6.3 0-10.4 3.7-10.4 8.7 0 3.6 2.2 6.1 5.4 7.8-3.9 2.1-6.6 4.7-6.6 8.5zm50.5-75.9l-1.6-7.3-30.3 6.4 1.6 7.3 30.3-6.4zm-27.5 16.8l2.3 7.1 29.4-9.6-2.3-7.1-29.4 9.6zm3.5 111.9c2.2 2.2 5.8 2.2 8 0s2.2-5.8 0-8-5.8-2.2-8 0c-2.2 2.3-2.2 5.8 0 8zm51-91.9l-4.7-8.1-43 24.8 4.7 8.1 43-24.8zm-30.8 29l4.4 6.1 25-18.2-4.4-6.1-25 18.2zm11.2 14.4l5 5.6 23-20.7-5-5.6-23 20.7zm12.5 13.1l5.6 5 20.7-23-5.6-5-20.7 23zm32.3 33.2l24.8-43-8.1-4.7-24.8 43 8.1 4.7zm12.7-2.6l6.9 3.1 12.6-28.3-6.9-3.1-12.6 28.3zm16.9 6.9l7.1 2.3 9.6-29.4-7.1-2.3-9.6 29.4zm23.9-303.3l7.3-1.6-6.4-30.3-7.3 1.6 6.4 30.3zm17.1-75.7v16.4c0 4.1-.3 4.6-2.8 4.8l-2.1.2c-.5.3-.4 1.6.1 1.8 1.8-.1 4.9-.2 8.2-.2 3.1 0 6.2.1 8 .2.5-.2.6-1.5.1-1.8l-2.1-.2c-2.5-.2-2.8-.7-2.8-4.8V39.3c0-2.5.1-4.9.2-6-.1-.4-.5-.6-.7-.6-.4 0-2.3 1-4.5 1.6-2 .6-4.4 1.1-6.5 1.4-.4.3-.4 1.5.1 1.8l2.3.3c2.3.3 2.5 1.1 2.5 4.4zm31.8.6c0 5.4-3.1 9.7-6.6 13.5-3 3.3-5.9 6-7.8 7.8-.1.5.1 1 .5 1.1.9-.1 3-.2 5.7-.2h8c3.2 0 5.1.1 7.1.2.9-1.2 2-4.7 2.5-7.8-.2-.7-1.4-.7-1.7-.3-1.5 2.7-2.1 2.8-5.8 2.8h-6.1c-.7 0-1-.3-1-.6 0-.4.5-1.1 2.7-3.2l2.4-2.3c6.1-5.7 7.6-8.6 7.6-12.5 0-4.8-3.6-8.6-9.6-8.6-4.9 0-9.6 2.8-11.6 7.9.1.8 1.1 1.1 1.7.7 1.6-2.8 3.6-4.7 6.5-4.7 3.4 0 5.5 2.7 5.5 6.2zm-1.1 40.9l-3.2 30.8 7.5.8 3.2-30.8-7.5-.8zm-19.1-8.6v49.7h9.4V75.1h-9.4zm-17.2 9.3l3.2 30.8 7.5-.8-3.2-30.8-7.5.8zm55.3 33.5l6.4-30.3-7.3-1.6-6.4 30.3 7.3 1.6zm66.4-48.1v16.4c0 4.1-.3 4.6-2.8 4.8l-2.1.2c-.5.3-.4 1.6.1 1.8 1.8-.1 4.9-.2 8.2-.2 3.1 0 6.2.1 8 .2.5-.2.6-1.5.1-1.8l-2.1-.2c-2.5-.2-2.8-.7-2.8-4.8V66.8c0-2.5.1-4.9.2-6-.1-.4-.5-.6-.7-.6-.4 0-2.3 1-4.5 1.6-2 .6-4.4 1.1-6.5 1.4-.4.3-.4 1.5.1 1.8l2.3.3c2.3.4 2.5 1.1 2.5 4.5zm-12.9 27.3l-24.8 43 8.1 4.7 24.8-43-8.1-4.7zm-12.7 2.6l-6.9-3.1-12.6 28.3 6.9 3.1 12.6-28.3zm-16.9-6.9l-7.1-2.3-9.6 29.4 7.1 2.3 9.6-29.4zm123.2 52.9c0 5.4-3.1 9.7-6.6 13.5-3 3.3-5.9 6-7.8 7.8-.1.5.1 1 .5 1.1.9-.1 3-.2 5.7-.2h8c3.2 0 5.1.1 7.1.2.9-1.2 2-4.7 2.5-7.8-.2-.7-1.4-.7-1.7-.3-1.5 2.7-2.1 2.8-5.8 2.8h-6.1c-.7 0-1-.3-1-.6 0-.4.5-1.1 2.7-3.2l2.4-2.3c6.1-5.7 7.6-8.6 7.6-12.5 0-4.8-3.6-8.6-9.6-8.6-4.9 0-9.6 2.8-11.6 7.9.1.8 1.1 1.1 1.7.7 1.6-2.8 3.6-4.7 6.5-4.7 3.4 0 5.5 2.7 5.5 6.2zm-11.2 151.1l1.6-7.3-30.3-6.4-1.6 7.3 30.3 6.4zm-32.2.8l-2.3 7.1 29.4 9.6 2.3-7.1-29.4-9.6zm35.5-18.7l.8-7.5-30.8-3.2-.8 7.5 30.8 3.2zm9.3-17.2v-9.4h-49.7v9.4h49.7zm-21.5-72l-3.1-6.9-28.3 12.6 3.1 6.9 28.3-12.6zm10.5 34.8l-1.6-7.3-30.3 6.4 1.6 7.3 30.3-6.4zm-29.1 13.8l.8 7.5 30.8-3.2-.8-7.5-30.8 3.2zm22.4-38.6l-29.4 9.6 2.3 7.1 29.4-9.6-2.3-7.1zM419.1 93c-2.2-2.2-5.8-2.2-8 0s-2.2 5.8 0 8 5.8 2.2 8 0c2.2-2.3 2.2-5.8 0-8zm-51 93.8l4.7 8.1 43-24.8-4.7-8.1-43 24.8zm30.8-29l-4.4-6.1-25 18.2 4.4 6.1 25-18.2zm-11.2-14.4l-5-5.6-23 20.7 5 5.6 23-20.7zm-68.2-110c9.1 2.6 18.1 5.7 26.9 9.5 26.3 11.1 50.1 26.8 70.7 46.7l5.4-5.4c-28-27-62.6-47.3-101-58.2l-2 7.4zm-3.8-.1c-3-.8-6.1 1-6.9 4-.8 3 1 6.1 4 6.9 3 .8 6.1-1 6.9-4 .8-3-1-6.1-4-6.9zm-118-9.2l2 7.4c18.3-4.6 37.1-6.9 56.3-6.9 19.2 0 38 2.3 56.3 6.9l2-7.4C295.6 19.5 276.1 17 256 17c-20.1 0-39.6 2.5-58.3 7.1zm-5.4 16.1c.8 3 3.9 4.8 6.9 4 3-.8 4.8-3.9 4-6.9-.8-3-3.9-4.8-6.9-4-3 .8-4.8 3.9-4 6.9zm-102.8 44l5.4 5.4c20.6-19.9 44.4-35.6 70.7-46.7 8.8-3.7 17.8-6.9 26.9-9.5l-2-7.4c-38.5 10.9-73 31.2-101 58.2zM25.4 190.4l7.4 2c2.5-8.7 5.6-17.4 9.1-25.8 11.3-26.7 27.3-50.8 47.6-71.7l-5.4-5.4c-27.2 27.9-47.6 62.4-58.7 100.9zM23 314.6l7.4-2c-4.4-18.1-6.7-36.7-6.7-55.6 0-19.6 2.4-38.8 7.1-57.4l-7.4-2c-4.8 19-7.4 38.9-7.4 59.4 0 19.9 2.4 39.2 7 57.6zm60.2 108.9l5.4-5.4c-19.9-20.6-35.6-44.4-46.7-70.7-3.8-9-7-18.2-9.7-27.5l-7.4 2c10.9 38.7 31.3 73.5 58.4 101.6zM192 480.4c-9-2.6-17.8-5.7-26.4-9.3-26.7-11.3-50.8-27.3-71.7-47.6l-5.4 5.4c28.1 27.4 62.8 47.9 101.5 59l2-7.5zm4.3-1.6c3 .8 6.1-1 6.9-4 .8-3-1-6.1-4-6.9-3-.8-6.1 1-6.9 4-.8 3 1 6.1 4 6.9zm118.4 10.9l-2-7.4c-18.4 4.6-37.4 7-56.8 7s-38.3-2.3-56.8-7l-2 7.4c18.8 4.7 38.5 7.3 58.7 7.3s40.1-2.5 58.9-7.3zm5-17.8c-.8-3-3.9-4.8-6.9-4-3 .8-4.8 3.9-4 6.9.8 3 3.9 4.8 6.9 4 3-.8 4.8-3.9 4-6.9zm103.8-43l-5.4-5.4c-20.8 20.3-44.9 36.3-71.7 47.6-8.7 3.7-17.5 6.8-26.4 9.3l2 7.4c38.7-11 73.4-31.6 101.5-58.9zm63.6-107l-7.4-2c-2.6 9.3-5.8 18.5-9.7 27.5-11.1 26.3-26.8 50.1-46.7 70.7l5.4 5.4c27.2-28.1 47.6-62.9 58.4-101.6zm1.9-7.3c4.5-18.5 7-37.8 7-57.6 0-20.5-2.6-40.4-7.4-59.4l-7.4 2c4.7 18.6 7.1 37.8 7.1 57.4 0 19-2.3 37.6-6.7 55.6l7.4 2zm-283.8-98.2c-4.3-2.5-9.8-1.1-12.3 3.2-2.5 4.3-1.1 9.8 3.2 12.3 4.3 2.5 9.8 1.1 12.3-3.2 2.5-4.2 1-9.8-3.2-12.3zm32.5 26L214 228.5c-.3.9-.7 1.9-1.2 2.8s-1.1 1.7-1.8 2.4l23.7 13.8c.7-1.8 1.7-3.5 3-5.1z" fill="#36434f"/></svg>