<svg xmlns="http://www.w3.org/2000/svg" viewBox="0 0 512 512" xml:space="preserve"><path d="M306 256c0 27.6-22.4 50-50 50s-50-22.4-50-50 22.4-50 50-50 50 22.4 50 50zm-186 86c-27.6 0-50 22.4-50 50s22.4 50 50 50 50-22.4 50-50-22.4-50-50-50zM512 64v384c0 35.3-28.7 64-64 64H64c-35.3 0-64-28.7-64-64V64C0 28.7 28.7 0 64 0h384c35.3 0 64 28.7 64 64zm-32 0c0-17.6-14.4-32-32-32H64c-17.6 0-32 14.4-32 32v384c0 17.6 14.4 32 32 32h384c17.6 0 32-14.4 32-32V64zm-88 6c-27.6 0-50 22.4-50 50s22.4 50 50 50 50-22.4 50-50-22.4-50-50-50z" fill="#36434f"/></svg>