<svg xmlns="http://www.w3.org/2000/svg" viewBox="0 0 512 512" style="enable-background:new 0 0 512 512" xml:space="preserve"><path d="M428 212.7c-2.5-5.9-8.3-9.7-14.7-9.7h-9.8v-56C403.2 65.8 337.3 0 256 0S108.8 65.8 108.5 147v56h-9.8c-6.4 0-12.2 3.8-14.7 9.7-18.4 43.8-29 88.2-29 121.8 0 98 90 177.5 201 177.5s201-79.5 201-177.5c0-33.6-10.6-78-29-121.8zm-311.5-63.8V147c.1-37.2 14.7-72.1 41-98.3C183.8 22.5 218.8 8 256 8s72.2 14.5 98.5 40.7c26.3 26.2 40.9 61.2 41 98.3v56h-39v-55.8c-.1-26.8-10.6-51.9-29.5-70.8-19-19-44.2-29.4-71-29.4-26.8 0-52 10.4-70.9 29.3-19 18.9-29.5 44.1-29.5 70.8v55.8h-39v-54zm232 54.1h-32.7c-6.2 0-11.8 3.5-14.4 9.1-8 17.1-25.3 28.9-45.3 28.9s-37.4-11.8-45.3-28.9c-2.6-5.6-8.3-9.1-14.4-9.1h-32.7v-55.8c.1-24.6 9.7-47.8 27.2-65.2 17.5-17.4 40.6-27 65.3-27 24.7 0 47.8 9.6 65.3 27s27.1 40.6 27.2 65.2V203zm44.3 251c-17.7 15.7-38.4 27.9-61.4 36.5-23.9 8.9-49.3 13.4-75.4 13.4s-51.6-4.5-75.4-13.4c-23-8.6-43.7-20.9-61.4-36.5C82.9 422 63 379.6 63 334.5c0-32.5 10.3-75.8 28.3-118.7 1.2-2.9 4.1-4.8 7.3-4.8h97.6c3.1 0 5.9 1.8 7.2 4.5 9.5 20.4 30.1 33.5 52.6 33.5s43.1-13.2 52.6-33.5c1.3-2.7 4.1-4.5 7.2-4.5h97.6c3.2 0 6.1 1.9 7.3 4.8 18 42.9 28.3 86.2 28.3 118.7 0 45.1-19.9 87.5-56.2 119.5zM256 384c-17.4 0-31.5 14.1-31.5 31.5 0 12 6.7 22.4 16.5 27.7V478c0 4.4 3.6 8 8 8h14c4.4 0 8-3.6 8-8v-34.8c9.8-5.3 16.5-15.7 16.5-27.7 0-17.4-14.1-31.5-31.5-31.5zm11.2 52.2-4.2 2.3V478h-14v-39.6l-4.2-2.3c-7.6-4.1-12.3-12-12.3-20.7 0-13 10.5-23.5 23.5-23.5s23.5 10.5 23.5 23.5c0 8.7-4.7 16.7-12.3 20.8zM256 401c-8 0-14.5 6.5-14.5 14.5S248 430 256 430s14.5-6.5 14.5-14.5S264 401 256 401zm0 21c-3.6 0-6.5-2.9-6.5-6.5s2.9-6.5 6.5-6.5 6.5 2.9 6.5 6.5-2.9 6.5-6.5 6.5z" style="fill:#36434f"/></svg>