<svg version="1.1" xmlns="http://www.w3.org/2000/svg" x="0" y="0" viewBox="0 0 512 512" xml:space="preserve"><path d="M381.8 23.2C341.6 7.8 299.3 0 256 0s-85.6 7.8-125.8 23.2c-35.5 13.6-58.2 48.1-56.6 86 .8 18.7 1.8 32.3 3.1 40.4 5.2 33.5 14.8 65.9 28.4 96.7-1.9 2.6-3.8 5.2-5.5 7.9-3.1 4.7-3.5 10.8-.9 15.9 1.5 3.1 3.1 6.2 4.8 9.2-12 23.4-18.8 50-18.8 78.2 0 60.9 31.7 114.3 79.5 144.7 10.1 6.5 22 9.8 34 9.8H314c12.2 0 24.2-3.5 34.5-10.1 47.2-30.3 78.5-83.1 78.9-143.3.2-28.5-6.7-55.4-18.9-79.1 1.6-3.1 3.2-6.1 4.8-9.2 2.5-5.1 2.2-11.2-.9-15.9-1.8-2.7-3.6-5.3-5.5-7.9 13.6-30.8 23.2-63.3 28.4-96.9 1.3-8.1 2.3-21.7 3.1-40.4 1.6-37.9-21.1-72.5-56.6-86zM256 429c-39.5 0-71.5-32-71.5-71.5s32-71.5 71.5-71.5 71.5 32 71.5 71.5-32 71.5-71.5 71.5zm134.5-321.9c-.7 16.2-1.6 29-2.6 35-3.6 23.2-9.6 45.8-17.8 67.6-6.7-2.7-14.6-.6-18.9 5.3-27.2-18.3-59.8-29-94.9-29-35.4-.1-68.3 10.6-95.6 28.9-4.3-5.9-12.2-8-18.9-5.3-8.2-21.7-14.2-44.3-17.8-67.4-.9-6.1-1.9-18.8-2.6-35-.7-17.2 9.7-33 25.8-39.1C182 54.7 218.6 48 256 48s74 6.7 108.6 20c16.2 6.2 26.6 21.9 25.9 39.1zM236.1 325.3h1.4v64.1h-12.7v-49l-15.2 4.7v-10.3l26.5-9.5zm66.3 43c0 4.2-.9 7.9-2.7 11.3-1.8 3.4-4.4 6-7.6 7.9-3.3 1.9-7 2.8-11.2 2.8-6.7 0-12.2-2.3-16.3-7-4.1-4.7-6.2-10.9-6.2-18.8v-4.6c0-6.9 1.3-13.1 3.9-18.4 2.6-5.3 6.4-9.4 11.3-12.3s10.6-4.4 17.1-4.4h2.1v10.5h-1.2c-5.7.1-10.4 1.6-13.9 4.5s-5.6 6.9-6.3 12.1c3.4-3.5 7.7-5.2 12.9-5.2 5.6 0 10 2 13.3 6s4.8 9.1 4.8 15.6zm-12.7.1c0-3.5-.8-6.3-2.5-8.4s-4-3.2-6.9-3.2c-2.1 0-3.9.5-5.6 1.6-1.7 1.1-2.9 2.5-3.7 4.2v3.9c0 4.2.8 7.6 2.5 9.9s4 3.6 7 3.6c2.7 0 4.9-1.1 6.6-3.2 1.8-2.2 2.6-4.9 2.6-8.4z" fill="#36434f"/></svg>