<svg version="1.1" xmlns="http://www.w3.org/2000/svg" x="0" y="0" viewBox="0 0 512 512" xml:space="preserve"><path d="M97 326c0 5 4 9 9 9s9-4 9-9-4-9-9-9-9 4-9 9zm9-5c2.8 0 5 2.2 5 5s-2.2 5-5 5-5-2.2-5-5 2.2-5 5-5zm0 14h81l-2.3 7.9c-1.5 5.3-4.4 10-8.2 13.7-.7.7-1.4 1.3-2.1 1.9-.2.1-.3.3-.5.4-.6.5-1.1.9-1.7 1.3-.2.1-.4.3-.6.4-.3.2-.7.4-1 .7-.3.2-.7.4-1 .6-.4.2-.9.5-1.3.7-.4.2-.7.4-1.1.5-.3.1-.5.3-.8.4-.6.2-1.2.5-1.8.7-.2.1-.5.2-.7.2-.6.2-1.3.4-2 .6-.1 0-.3.1-.4.1-.6.2-1.3.3-1.9.4-.2 0-.3.1-.5.1-.7.1-1.5.2-2.2.3h-.5c-.8.1-1.6.1-2.4.1H58c-.8 0-1.6 0-2.4-.1h-.5c-.7-.1-1.5-.2-2.2-.3-.2 0-.3-.1-.5-.1-.6-.1-1.3-.2-1.9-.4-.1 0-.3-.1-.4-.1-.7-.2-1.3-.4-2-.6-.2-.1-.5-.2-.7-.2-.6-.2-1.2-.4-1.8-.7-.3-.1-.6-.2-.8-.4-.4-.2-.7-.3-1.1-.5-.4-.2-.9-.5-1.3-.7-.3-.2-.7-.4-1-.6-.3-.2-.7-.4-1-.7-.2-.1-.4-.3-.6-.4-.6-.4-1.2-.8-1.7-1.3-.2-.1-.3-.3-.5-.4-.7-.6-1.4-1.2-2.1-1.9-3.8-3.7-6.6-8.4-8.2-13.7L25 335h81zm300 0h81l-2.3 7.9c-1.5 5.3-4.4 10-8.2 13.7-.7.7-1.4 1.3-2.1 1.9-.2.1-.3.3-.5.4-.6.5-1.1.9-1.7 1.3-.2.1-.4.3-.6.4-.3.2-.7.4-1 .7-.3.2-.7.4-1 .6-.4.2-.9.5-1.3.7-.4.2-.7.4-1.1.5-.3.1-.5.3-.8.4-.6.2-1.2.5-1.8.7-.2.1-.5.2-.7.2-.6.2-1.3.4-2 .6-.1 0-.3.1-.4.1-.6.2-1.3.3-1.9.4-.2 0-.3.1-.5.1-.7.1-1.5.2-2.2.3h-.5c-.8.1-1.6.1-2.4.1h-96c-.8 0-1.6 0-2.4-.1h-.5c-.7-.1-1.5-.2-2.2-.3-.2 0-.3-.1-.5-.1-.6-.1-1.3-.2-1.9-.4-.1 0-.3-.1-.4-.1-.7-.2-1.3-.4-2-.6-.2-.1-.5-.2-.7-.2-.6-.2-1.2-.4-1.8-.7-.3-.1-.6-.2-.8-.4-.4-.2-.7-.3-1.1-.5-.4-.2-.9-.5-1.3-.7-.3-.2-.7-.4-1-.6-.3-.2-.7-.4-1-.7-.2-.1-.4-.3-.6-.4-.6-.4-1.2-.8-1.7-1.3-.2-.1-.3-.3-.5-.4-.7-.6-1.4-1.2-2.1-1.9-3.8-3.7-6.6-8.4-8.2-13.7L325 335h81zm87.5-9c0-4.5-3.3-8.2-7.5-8.9l-77.5-215.6v-39c3.2-1.1 5.5-4.1 5.5-7.6 0-4.4-3.6-8-8-8-3.5 0-6.5 2.3-7.6 5.5h-10.7c-1.1-4-4.8-7-9.2-7-3.8 0-7.1 2.3-8.6 5.5h-28.1c-1.7-4.9-6.3-8.5-11.8-8.5-4.9 0-9.2 2.9-11.2 7h-33.9l-23.3-13.3c7.5-2.4 13-9.4 13-17.7C274.5 8.3 266.2 0 256 0s-18.5 8.3-18.5 18.5c0 8.3 5.5 15.3 13 17.7l-23.3 13.3h-33.9c-2-4.1-6.3-7-11.2-7-5.5 0-10.2 3.6-11.8 8.5h-28.1c-1.5-3.2-4.8-5.5-8.6-5.5-4.4 0-8.1 3-9.2 7h-10.7c-1.1-3.2-4.1-5.5-7.6-5.5-4.4 0-8 3.6-8 8 0 3.5 2.3 6.5 5.5 7.6v39L26 317.1c-4.3.7-7.5 4.4-7.5 8.9 0 5 4 9 9 9s9-4 9-9c0-3.7-2.2-6.9-5.4-8.2L104 115v202h4V115l72.9 202.8c-3.2 1.4-5.4 4.6-5.4 8.2 0 5 4 9 9 9s9-4 9-9c0-4.5-3.3-8.2-7.5-8.9l-77.5-215.6v-39c2.4-.8 4.3-2.7 5.1-5.1h10.7c1.1 4 4.8 7 9.2 7 3.8 0 7.1-2.3 8.6-5.5h28.1c1.7 4.9 6.3 8.5 11.8 8.5 4.9 0 9.2-2.9 11.2-7h33.9L244 70v359h-10l-6.3 14h-9.5c-9.4 26.5-29.6 47.9-55.3 58.9V512h186v-10.1c-25.7-11-45.9-32.4-55.3-58.9h-9.5l-6.3-14h-10V70.1l16.9-9.6h33.9c2 4.1 6.3 7 11.2 7 5.5 0 10.2-3.6 11.8-8.5h28.1c1.5 3.2 4.8 5.5 8.6 5.5 4.4 0 8.1-3 9.2-7h10.7c.8 2.4 2.7 4.3 5.1 5.1v39L326 317.1c-4.3.7-7.5 4.4-7.5 8.9 0 5 4 9 9 9s9-4 9-9c0-3.7-2.2-6.9-5.4-8.2L404 115v202h4V115l72.9 202.8c-3.2 1.4-5.4 4.6-5.4 8.2 0 5 4 9 9 9s9-4 9-9zm-461 0c0 2.8-2.2 5-5 5s-5-2.2-5-5 2.2-5 5-5 5 2.2 5 5zm152-5c2.8 0 5 2.2 5 5s-2.2 5-5 5-5-2.2-5-5 2.2-5 5-5zM106 59c-2.2 0-4-1.8-4-4s1.8-4 4-4 4 1.8 4 4-1.8 4-4 4zm27.5 1.5c-3 0-5.5-2.5-5.5-5.5s2.5-5.5 5.5-5.5S139 52 139 55s-2.5 5.5-5.5 5.5zm48.5 3c-4.7 0-8.5-3.8-8.5-8.5s3.8-8.5 8.5-8.5 8.5 3.8 8.5 8.5-3.8 8.5-8.5 8.5zm148 0c-4.7 0-8.5-3.8-8.5-8.5s3.8-8.5 8.5-8.5 8.5 3.8 8.5 8.5-3.8 8.5-8.5 8.5zm48.5-3c-3 0-5.5-2.5-5.5-5.5s2.5-5.5 5.5-5.5S384 52 384 55s-2.5 5.5-5.5 5.5zm-46 265.5c0 2.8-2.2 5-5 5s-5-2.2-5-5 2.2-5 5-5 5 2.2 5 5zM406 59c-2.2 0-4-1.8-4-4s1.8-4 4-4 4 1.8 4 4-1.8 4-4 4zm78.5 272c-2.8 0-5-2.2-5-5s2.2-5 5-5 5 2.2 5 5-2.2 5-5 5zm-87.5-5c0 5 4 9 9 9s9-4 9-9-4-9-9-9-9 4-9 9zm9-5c2.8 0 5 2.2 5 5s-2.2 5-5 5-5-2.2-5-5 2.2-5 5-5z" fill="#36434f"/></svg>