<svg version="1.1" xmlns="http://www.w3.org/2000/svg" x="0" y="0" viewBox="0 0 512 512" xml:space="preserve"><path d="M264 256c0 4.4-3.6 8-8 8s-8-3.6-8-8 3.6-8 8-8 8 3.6 8 8zm248 0c0 141.4-114.6 256-256 256S0 397.4 0 256 114.6 0 256 0s256 114.6 256 256zm-85-87.2-116.6 67.3c1.2 3.2 2 6.5 2.6 9.9h134.6c-1.3-27.7-8.6-53.8-20.6-77.2zM286 256c0-16.6-13.4-30-30-30s-30 13.4-30 30 13.4 30 30 30 30-13.4 30-30zm-10.1-54.5L343.2 85c-23.4-12-49.5-19.3-77.2-20.7v134.6c3.4.6 6.7 1.4 9.9 2.6zM246 64.3c-27.7 1.4-53.8 8.7-77.2 20.7l67.3 116.6c3.2-1.2 6.5-2 9.9-2.6V64.3zm-9.9 246.2L168.8 427c23.4 11.9 49.5 19.2 77.2 20.7V313.1c-3.4-.6-6.7-1.4-9.9-2.6zM266 447.7c27.7-1.4 53.8-8.7 77.2-20.7l-67.3-116.6c-3.2 1.2-6.5 2-9.9 2.6v134.7zm151-296.2c-14.7-22.6-34-41.8-56.5-56.5l-67.3 116.5c2.6 2.2 5 4.6 7.2 7.2L417 151.5zm-322 0 116.5 67.3c2.2-2.6 4.6-5 7.2-7.2L151.5 95c-22.6 14.7-41.8 33.9-56.5 56.5zm-10 17.3c-12 23.4-19.3 49.5-20.7 77.2h134.6c.6-3.4 1.5-6.7 2.6-9.9L85 168.8zm0 174.4 116.6-67.3c-1.2-3.2-2-6.5-2.6-9.9H64.3c1.4 27.7 8.7 53.8 20.7 77.2zm10 17.3c14.7 22.6 34 41.8 56.5 56.5l67.3-116.5c-2.6-2.2-5-4.6-7.2-7.2L95 360.5zm322 0-116.5-67.3c-2.2 2.6-4.6 5-7.2 7.2L360.5 417c22.6-14.7 41.8-33.9 56.5-56.5zm10-17.3c11.9-23.4 19.2-49.5 20.7-77.2H313.1c-.6 3.4-1.5 6.7-2.6 9.9L427 343.2z" fill="#36434f"/></svg>