<svg xmlns="http://www.w3.org/2000/svg" viewBox="0 0 512 512" style="enable-background:new 0 0 512 512" xml:space="preserve"><path d="M256 32c14.7 0 25.3 11.2 30.4 17.8C296.9 63.7 303 83.5 303 104v1.3c-.2 15.9 11.3 29.5 27 32 32.2 5.1 66.5 17.4 94.1 33.6 12.3 7.3 22.7 15 30.1 22.4 6.1 6.1 8.5 10.4 9.1 12.1-.4 2.1-3.4 7.6-13.8 14.6-14.1 9.5-35.6 17.5-60.6 22.5-10.5 2.1-19.3 9.3-23.4 19.2-4.1 9.9-2.9 21.2 3.1 30.1l105.9 157c3.6 5.3 5.5 11.5 5.5 17.9V480H360.6c-10.7 0-20.6-5.3-26.5-14.1l-51.5-76.4c-5.9-8.8-15.9-14.1-26.5-14.1s-20.6 5.3-26.5 14.1l-51.5 76.4c-6 8.8-15.9 14.1-26.5 14.1H32v-13.3c0-6.4 1.9-12.6 5.5-17.9l105.9-157c6-8.9 7.1-20.2 3.1-30.1-4.1-9.9-12.9-17.1-23.4-19.2-24.9-4.9-46.4-12.9-60.6-22.5-10.4-7-13.4-12.5-13.8-14.6.6-1.7 3-6 9.1-12.1 7.4-7.4 17.8-15.2 30.1-22.4 27.6-16.3 61.9-28.6 94.1-33.6 15.7-2.5 27.2-16.1 27-32V104c0-20.5 6.1-40.3 16.6-54.2C230.7 43.2 241.3 32 256 32m0-32c-43.6 0-79 46.6-79 104v1.8C95.5 118.7 16.6 169 16.6 205c0 30.8 41.2 57.2 100.2 68.9l-105.9 157C3.8 441.5 0 454 0 466.7V480c0 17.7 14.3 32 32 32h119.4c21.3 0 41.2-10.6 53.1-28.2l51.5-76.4 51.5 76.4a64.13 64.13 0 0 0 53.1 28.2H480c17.7 0 32-14.3 32-32v-13.3c0-12.8-3.8-25.2-10.9-35.8L395.2 274c59-11.7 100.2-38.2 100.2-68.9 0-36-78.9-86.4-160.4-99.3V104c0-57.4-35.4-104-79-104z" style="fill:#36434f"/></svg>