<svg xmlns="http://www.w3.org/2000/svg" viewBox="0 0 512 512" xml:space="preserve"><path d="M416.6 186.76c.45 1.59 1.96 6.69.16 7.1-.3-1.52-.04-3.31-1.43-4.42.18-.84.35-1.56.53-2.39.11-.04.42-.16.74-.29zm-74.56 105.08c.67 1.02.49 2.18 1.16 3.05-1.14 1.75 1.43 2.06 1.99 3.18-.13 1.72-.24 3.15-.33 4.42 1.83 1.43 2.31 5.95 1.69 8.22.96 3.36 2.87 5.6 4.68 8.55.39-1.24 1.01-.48 1.57-.43.6.06 1.2.01 1.91.01.65-2.78 2.72-4.9 3.78-7.54.5.15.87.27 1.36.41.75-1.35-.3-2.7.25-4.15-.84.26-1.37.42-1.75.54-.21.49-.36.84-.56 1.3.36-.12.58-.18.82-.26.03.49.06.97.07 1.59-.86-.08-.98-1.71-2.06-.85-.12-1.33-.5-2.53.33-3.81-.81.02-1.32.03-1.79.03-.17-.42-.29-.73-.34-.87.66-.87 1.23-1.53 1.93-2.31.07-1.17-1.18-1.84-1.15-2.99-.19.05-.4.1-.58.16-.18-.44-.32-.82-.46-1.17-.37.04-.74.08-1.13.12-.02-.5-.03-.87-.04-1.06-.51-.41-.9-.75-1.72-1.42-.06.07-.37.45-.67.84-.9-4.1-5.01-5.67-5.33-9.96-2.06-.07-3.97.18-5.04-1.58-3.06.05-.43 6.15 1.41 5.98zm-130.2-63.78c.56.47 1 .84 1.55 1.29.34-.07.88-.18 1.4-.3.01-.18.02-.36.02-.54-1.03-.43-1.86-1.21-2.97-.45zM201.28 57.31c.52-.47.89-.8 1.47-1.33-.54-.24-1.03-.61-1.22-.5-1.13.55-2.47.11-3.6.24-1.46 1.58-3.99 1.3-5.38 2.71.62.27 1.2.52 1.77.77 2.77-.08 4.47-2.2 6.96-1.89zm-27.97 239.63c.53.97-.06 1.52-.28 2.02-.77.16-1.42.3-1.9.39-.41-.28-.73-.5-1.16-.79.11.53.17.83.19.94-.58.65-1.02 1.16-1.48 1.66-3.28 1.06-6.36-.2-9.48-.78-.97 1.86-2.72 3-1.78 5.23.1 1.19 1.38 3.49.21 4.22-1 .3-1.34 1.36-2.18 1.69-.89.35-1.14 1.01-1.33 1.77 1.41 6.35 2.15 9.66 9.57 10.76.72-1.07 1.11-2.15 1.88-2.66.84-.55.03-1.46.8-1.92.64-.38 1.33-.92 1.6-1.56 1.11-3 4.35-4.85 4.65-8.02 1.08-1.06 1.36-2.24 1.2-3.72.31-.12.53-.21 1.08-.42.14.69.27 1.37.41 2.12l.95-.81c-.19-3.66.04-6.73-1.21-10.22-.5.02-1.09.06-1.74.1zm123.2-32.01c.08.92.13 1.77-.44 2.28-2.28 1.62-1.8 5.02-3.08 7.15.12 1.19.23 2.24.37 3.49 8.73 1.19 7.35-8.45 3.15-12.92zM234.78 43.57c-1.27-.81-1.88-.83-2.89-.1.88.62 1.68 1.11 2.89.1zm-53.84 78.14c-1.02-1.48-2-2.18-3.02-2.83.95.8.62 2.79 3.02 2.83zm16.15 9.22c-1.35-1.03-3.08-1.13-4.48-.17 2.26 1.19 2.26 1.19 4.03 1.2.14-.34.29-.68.45-1.03zm-27.15-28.54c-.66-.75-.94-1.86-2.32-1.77-.15 1.74-.04 3.46.16 5.34 1.53-.97 2.33-2.72 4.34-2.88-1.33-.74-1.33-.74-2.18-.69zm125.83-32.97c-.24-2.92 1.6-2.54 3.44-3.96.02.02.02.04.02.05 1.48-.3 3.02-.6 4.57-.91-.48-.5-1.08-.8-1.43-.63-.94.57-1.59-.26-2.42-.18-.33.31-.64.6-.88.82.05.29.08.5.14.79-1.44-.16-3.87.5-5.96 1.56.27.68.53 1.36.84 2.14.49.04 1.23.62 1.68.32zM171.92 91.85c.25-.56.46-1.06.75-1.71-.76.01-1.35.02-1.85.03-1.49 1.26-2.94 2.49-4.71 4 2.47.26 3.72-1.58 5.81-2.32zm4.83-4.65c-1.9-.44-2 1.25-2.91 1.82 1.31 0 2.16-.64 2.91-1.82zm16.95-21.26c1.74-.82 3.49-1.39 5.39-1.69.07-.68.13-1.17.18-1.67 4.13-1.78 7.4-6.26 12.12-6.57.59-.84.98-1.38 1.56-2.19-4.5-.18-7.99 2.8-11.36 5.25-1.24.45-2.37.96-3.83.89-1.34-.06-2.46 1.47-3.99 1.5-.66.93-1.84.86-2.71 1.44.32 1.45 1.45 2.24 2.64 3.04zm214.23 152.55c-2.01 3.65-3.13 6.85-1.46 10.26 1.47-2.81 2.05-7.38 1.46-10.26zm-4.07 35.68c.24-.22.49-.44.88-.79-.69 2.08-.69 2.08-.18 3.19 2.67-1.27.49-6.48 2.02-8.07 1-.71 1.23-1.8 1.67-2.76-.27-1.36-.69-2.69.06-3.97-.77-.32-1.36-.58-2.08-.89-2.01 2.86-.54 6.21-2.67 8.9.27 1.28-.31 2.88.3 4.39zm1.01 15.54c.53-1.86 1-3.49 1.48-5.15-.22-.77-.41-1.48-.7-2.3-1.25 1.07-.67 2.38-1.15 3.51.4-.1.59-.16.8-.21.16 1.37-1.74 2.4-.43 4.15zm3.78-6.53c.57-1.61 2.29-3.88.77-5.34l-.65 1.5c.18.44.32.81.52 1.31-.31.72-.66 1.53-1.01 2.32.12.08.25.14.37.21zm10.48-91.31c.17 1.69-.62 3.27-.17 4.96.36 1.32-.19 2.51-1.33 3.14-1.95 1.34-1.05 3.99-1.8 5.91 1.43-.06 1.25-1.48 1.95-2.26 1.48 1.54-1.3 2.7.01 4.15 1.74-1.83.99-3.83.4-5.85.42.01.65.01 1.1.01-.29.96.11 1.71.59 2.64.89-1.48.25-2.76.3-4.05.14-.06.36-.16.45-.19 1.01-2.78 1.08-5.22-.05-7.95-1.5-3.99-1.13-8.77-3.68-12.25-.02 4.01 2.46 7.56 2.23 11.74zm-3.18-17.54c-.3-2.19-.06-4.67-2.86-5.73.39 2.32.9 4.39 2.86 5.73zm-11.01 143.83c.92-.77 1.65-1.39 2.27-1.92-.27-.67-.44-1.12-.6-1.53.58-1.34 1.12-2.58 1.76-4.05-3.19.99-2.5 4.68-3.43 7.5zm-11.68-2.03c.89-.32 1.76-.65 2.61-.95.12-.45.22-.79.28-1.03-.65-.07-1.17-.13-1.9-.2-.27.73-1.65.86-.99 2.18zm-21.66 13.71c-.03.47-.05.77-.06 1.07h1.28c.49-.44 1-.9 1.58-1.43.31.37.6.71.89 1.04.44-.02.89-.03 1.47-.05-.16.59-.27 1.03-.4 1.49.9-.43 1.8-.67 2.41-1.22.61-.56 2.42-.3 1.6-2.02-.05-.1.06-.39.16-.42 1.2-.53 1.22-1.82 1.7-2.78 1.2-2.6 3.99-3.96 4.63-6.9.73-.96 1.48-2.63 3.1-2.19.15-.34.28-.65.41-.93-.34-.5-.67-1-.89-1.31.24-.91.33-1.64.63-2.27.38-.8-.46-1.74.51-2.54 1.3-1.15 1.81-3.17 2.83-4.54.59-.63 1.24-1.15 1.25-2.07-1.38-.8-.95-2.16-1.96-3.23-1.95 2-3.4 4.15-4.74 6.46-4.55 1.17-5.44 7.52-10.65 7.7-.95 2.78-2.49 4.96-4.87 2.96-2.42 2.25-3.36 5.79-3.49 9.04.43-.12.63-.18.95-.26-.39 1.69-1.67 3.03-1.22 4.8.91-.11 1.86-.25 2.88-.4zm16.52-69.3c.6-.5.03-1.32-.15-1.79-1.19.47-2.21.87-3.36 1.32.47 1.29-2.55.57-.72 4.9 3.24-.16 2.89-2.33 4.23-4.43zm15.96 16.86c-.18.05-.34.1-.5.15.03 1 .05 1.99.08 3.37.44-1 .74-1.7 1.09-2.49-.18-.29-.42-.66-.67-1.03zm-49.17 62.12c-.84.19-1.32 1.26-1.95 1.94.41.26.78.51 1.15.74-.03.33-.05.64-.06.9 1.28.14 2.38.75 3.62.57 1.5-.11 3.05-.77 4.51.3 2.36-.2 5.08-.24 7.43-.62.24-.54.48-1.1.71-1.62-.89 0-1.95.71-2.61.16.16-.58.36-1.06 1.02-1.19-.03-.12-.06-.26-.08-.38-1.08-.12-2.15-.24-3.2-.36-.08-.18-.15-.31-.27-.58-.74.58-1.46 1.13-2.12 1.66-.97-.01-2.35.4-3.13-.17-1.23-2.13-3.36-.88-5.02-1.35zm50.13-46c.48 1.68-.95 2.8-.59 4.52 1.8-.53 1.77-1.83 1.75-3.21l1.6-.75c.41-2.45 1.82-4.67.86-7.28-.61 2.26-1.74 2.98-2.7 4.79-.42.06-.96.13-1.59.21-.22.87-.77 1.4-1.56 2.01 1.16 1.17 1.4-.96 2.23-.29zm-14.76 26.61c-1.82.49-1.44 2.71-2.92 3.48-.27 1.66-2.19 2.5-2.21 4.23.27.19.45.31.79.55-.87 1.57-1.71 3.08-2.55 4.62.34.11.49.17.65.21 2.65-2.23 2.31-6.63 5.35-8.25-.31.72-.6 1.37-.85 1.95.2.49.35.87.49 1.24-.18.57-.36 1.14-.61 1.97.5-.42.76-.65 1.21-1.04-.18.66-.29 1.11-.41 1.54.13.06.25.11.37.17.61-1.92 1.22-3.85 1.87-5.92-1.36-3.31 2.9-3.21 2.95-5.89-1.18.89-2.26 1.7-3.44 2.59-.32-.64-.54-1.1-.69-1.45zm86.11-78.85c-1.89 27-8.45 53.56-19.5 78.96-11.04 25.39-25.99 48.29-44.45 68.09-19.24 20.63-41.42 36.93-65.94 48.45-23.17 10.89-47.63 17.13-72.86 18.76l12.82 27.58c2.45 5.28 7.05 9.24 12.63 10.88l40.04 11.78a21.437 21.437 0 0 1 14.39 14.07l3.87 12.15H154.61l3.86-12.15a21.476 21.476 0 0 1 14.39-14.07L212.9 474a20.224 20.224 0 0 0 12.63-10.88l13.12-28.23c-20.98-2.1-42.32-7.26-63.74-15.47l-1.69 3.88a4.002 4.002 0 0 1-5.26 2.07l-7.34-3.19a3.994 3.994 0 0 1-2.07-5.26l14.95-34.38c-62.84-30.61-106.15-95.09-106.15-169.69C67.35 108.66 151.81 24.2 256 24.2c23.91 0 46.78 4.46 67.84 12.58l14.94-34.37a3.994 3.994 0 0 1 5.26-2.07l7.34 3.19c2.03.88 2.95 3.24 2.07 5.26l-1.7 3.9c57.59 28.13 97.32 72.01 115.11 127.32 8.3 25.79 11.5 53.13 9.53 81.27zM133.92 90.77c-2.96 2.96-5.8 6.02-8.52 9.16 1.23-.93 2.39-1.77 3.43-2.51.23.1.59.26.77.33 5.33-.93 7.11-6.46 12.21-7.38 2.54-.06 4.08-2.02 6.46-2.93-1.47 2.47-.41 2.42.04 4.45-.01.08.78.47 1.01.34.77-.41 1.53-.07 2.28-.14 2.36-.66 3.1 1.52 5.38 2.03.08.51.18 1.1.29 1.72 1.17.53 2.45.89 3.15 2.25.55.63 2.08.71 2.98.89-.18.85-.35 1.59-.53 2.42-.41.16-1.01.4-1.6.63-.9 2.77-3.05 4.05-5.91 4.43.12 2.1-.57 3.84-.1 5.98.18.3 1.01.47 1.14.58.4 1.22.74 2.26 1.13 3.49-.41.93-.88 2.03-1.34 3.06 1.83 2.32 2.54 4.37 2.58 7.38 2.33-.15 3.96-1.25 4.9-3.65.99-.3 2.1-.64 3.13-.94 1.03.44 1.92.84 2.9 1.26.15.45.31 1 .53 1.65-.14.37-.32.89-.53 1.44.4.22.73.41 1.11.63-.02.28-.04.58-.06.97.47.2.97.42 1.45.63-.03.92-.7 1.95.49 2.3 1.18.36 1.38 1.65 2.34 2.16.47 1.9 2 3.07 3.12 4.59 1.83-.43 3.62-.35 5.47.15.5.88 1 1.75 1.68 2.97.32.32 1.24.31 1.85 1.12.67.88 1.98.92 3.04.37 4.91-3.42 10.19-6.68 13.11-12.14.8.27 1.2-.54 1.81-.87-.64-.89-1.38-.48-2.22-.13-.21-.46-.42-.91-.74-1.57-2.23.37-4.06.37-6.4-.99.14-.36.27-.72.38-1.01-1.56-2.85-1.37-3.69-4.26-1.78-.56-.25-1.22-.53-1.9-.83.76-1.84-.79-3-1.34-4.8.32-.49 1.23-1.24 1.22-1.95.21-2.03 2.02-2.83 2.7-4.7-.17-.17-.38-.37-.67-.64.54-1.2 1.71-1.42 2.78-1.88 1.12 1.61 2.63 3.01 4.91 2.52.11-.26.24-.54.39-.89-.33-1.32-2.3-1.94-3.59-1.59-2.56-.3-1.83-2.96-5.49-3.68-.56.34-1.07.65-1.75 1.07-.29-.65-.51-1.13-.6-1.36-.62.13-1.24.27-1.87.41-.07.8-.14 1.48-.21 2.22-.52.25-1 .48-1.63.78-.03.68-.06 1.41-.08 2 .53.08.92.15 1.72.27-1.05.71-1.73 1.17-2.42 1.64-.08-.6-1-.79-.77-1.71.18-.62-.77-1.36-1.48-1.07.25.6.5 1.2.76 1.82-.22.51-.44 1.01-.75 1.72-.18-.29-.27-.44-.46-.77-.8.61-1.43 1.69-2.77 1.26.07-.34.18-.83.32-1.49-.42.38-.7.62-.96.85-.06-.05-.13-.08-.2-.12.65-1.01 1.3-2.03 2.05-3.2.25-.1.69-.3 1.24-.53-.59-1.82 1.42-3.09.98-4.91.5-.62 1.57-.98.92-2.09 1.26-1.41 2.46-2.39 4.2-3.35.01-2.66.68-5.49-.36-8.06.42-1.38 1.81-2.7 2.36-4.03-.26-.3-.51-.57-.8-.91.41-.37.78-.71 1.28-1.17l-1.3-.56c-3.41 1.3-4.42 2.38-4.6 5.1-1.74.74-2.04 2.54-2.83 4.15.25.41.53.86.91 1.46-.2.47-.49 1.12-.67 1.54.27 1.24.48 2.23.7 3.25-.19.44-.41.94-.62 1.43-.36-.69-.7-1.36-1.01-1.96-.89.42-1.67.79-2.7 1.28-.02.14-.09.81-.17 1.48-1.7.38-3.05 1.54-4.76 1.47.87-.34 1.72-.68 2.57-1.01 1.98-2.98 2.69-6.35 2.5-9.81.88-1.94.67-4.64 2.46-5.97.95-.51 1.31-1.5 1.6-2.5-.98-2.28-4.45-.64-6.68-1.26.98-1.77-.28-3.48-2.34-2.37-2.03 1.84-4.03 3.06-7.19 1.94-1.09.62-2.66.66-3.67 1.83-3.46.4-6.24 5.77-9.57 2.52-.55-.42-1.32-.56-2.13-.89-.04-1.52 2.81-2.17 1.69-4.21 5.22-4.07 10.45-7.71 16.36-10.65.41.66.81 1.3 1.3 2.08-.06.16-.41.89-.2 1.15.93.28.53 1.93 1.7 1.78 3.16-1.53 7.12-3.02 9.11-5.98 1.99-.55 2.42-2.34 3.12-3.87.66-.02 1.25-.04 1.87-.06.02.47.04.84.06 1.41.83-.26 1.58-.49 2.2-.69 1 1.2 2.71.77 3.98.56 3.18-1.49 6.58.77 9.71-1.17.07.18.14.34.14.35.85-.34 1.71-.68 2.45-.97 1.05.85 2.34.67 2.75 1.76 4.78-.18 7.27-5.38 12.56-3.93-1.76.59-2.94 2.43-5.13 2.03.1.35.15.55.21.77-1.34.84-1.83-.63-3.49 1.07-.01.42-.02.85-.03 1.48.79.25 1.63.52 2.63.83-.17.39-.41.93-.67 1.56 2.35.34 4.39 1.36 6.88 1.03-.3.9-.48 1.48-.67 2.06 1.31 1.12 2.88-.81 4.36.47 2.53-1.45 5.24-4.28 8.34-3.26-.06.76-.65 1.55.26 2.22 1.6.11 2.39-1.71 3.75-1.64.12-.69.21-1.21.29-1.66 2.17-.83 3.83.07 5.34 1.25 1.49 1.46 3.52.21 5.34 1.18-.17-.17-.34-.33-.62-.61.06-.3.17-.75.3-1.37-1.66-.36-2.93-1.71-4.87-1.61-.87.05-1.78-.7-2.64-1.07-.03-.59-.04-1.12-.07-1.82 2.42-.44 4.51-3.49 7.05-3.02 1.78.16 3.23-.23 5.01-.06.83.05 1.64-.76 2.48-.04.81-.42 1.61-.85 2.78-1.46-2.09-.77-3.81-1.83-5.89-1.01-4.95 1.95-11.16-.75-15.5 3.18-.02.43-.04.88-.06 1.12-.89.35-1.63.64-2.78 1.08-3.02-1.06-6.68 1.93-9.83 2.72-1.46-.8-3.08-1.3-5.03-.24.01-.86.03-1.05-.17-1.75 3.82-.13 5.47-4.2 9.14-5.17-1.64-1.95-5.64 1.14-6.02-2.35 7.85-4.54 11.03-3.52 19.5-3.13 3.77-.23 7.54-.49 11.29-.86 1.35-.18 2.79.41 4.01-.56 1.05.77 2.18.65 3.2.34 1.08-.32 1.92.8 2.94.27.64 1.29 1.81.68 2.78.76 1.02.07 1.77.88 2.93.81.88-.06 1.4 1.73 2.69 1.08.29.36.59.7.97 1.16-.27.23-.53.47-.83.74-.05 1.09 1.06 1.12 1.63 1.46.11.5.06 1.02.28 1.15 1.94 1.24 2.89 3.15 3.71 5.12-1.95 2.99-5.78.93-7.49-1.2.05-.14.09-.29.18-.53-.49-.21-.99-.42-1.48-.65-.01-.46-.03-.83-.04-1.21-.57.22-.96 1.37-.94 2.89-1.34.51-2.24.98-2.98 2.21-.11 1.28 1.32 1.69 2.06 2.69.41-.18.82-.37 1.46-.66-.41-.42-.65-.66-1.09-1.12.47-.06.84-.12.99-.14 1.23.68 2.37 1.31 3.64 2.02.36-2.54 6.2-2.48 6.68-.15.6-.36 1.09-.65 1.79-1.08-.08-1.34 2.06-1.13 2.33-2.59.94.26 1.83.42 1.93 1.7-.38-.13-.74-.24-1.12-.37-.55.34-1.13.7-1.83 1.13.14 1.18 1.71 1.38 2.47 1.79 2.94-1.69 5.85-.67 8.78-.47.22.47.45.96.75 1.59.58-.2 1.09-.39 1.36-.48 1.62.47 3.04.89 4.46 1.29 0 .36 0 .71.02 1.31 1.07-.39 1.94-.71 2.89-1.06-.07-.4-.12-.69-.2-1.11 3.33.76 5.59 3.03 8.07 5.59.26-.12.67-.29 1.38-.61-.79-.78-1.04-.92-.88-1.88-.32-.18-.66-.39-1-.58.35-2.07 1.7-3.45 3.16-4.86 1.51.53 2.28 1.09 3 2.06-.53.3-.78.44-1.09.62 1.62 2.22-.8 4.9 1.47 7.01-1.09.98-2.09 1.88-3.12 2.81.3.38.58.72.89 1.11 1.17-.94 3.1-.71 4.03-2.68-.1-.28-.29-.85-.57-1.67.93-.01 1.65-.02 2.54-.02.3.97.58 1.88.96 3.07.39-.55.64-.9.87-1.23-.24-.59-.45-1.12-.67-1.67-1.32-.57-2.66-1.15-3.71-1.61-.36-.52-.59-.85-.81-1.17.45-.35.75-.58 1.16-.9-.24-.7-.5-1.45-.8-2.33.39-.21.77-.42 1.27-.69.09.61.18 1.14.27 1.7.64.28 1.34.58 2.52 1.1-.62-.56-.84-.77-1.29-1.18.51.01.8.02 1.12.02.25-.37.51-.75.75-1.12 1.33.74 2.26 2.4 3.72 2.36-.06-.45-.13-.89-.19-1.32-.55-.27-1.04-.52-1.48-.74-.01-.52-.03-.95-.05-1.47 1.35.15 2.68.3 4.15.46.08-.63.15-1.13.23-1.77 1.33-.4 2.84-.84 4.37-1.3 4.08 1.09 4.6 5.1 9.42 6.14 1.67-.33 2.76.96 4.32 1.22-.13-.38-.19-.59-.35-1.03 1.14.5 2.16.94 3.14 1.36.24-.32.38-.51.57-.77 1.37.6 2.77 1.2 4.07 1.77 4.56-2.16 5.94 3.33 10 4.05-.41-.63-.72-1.12-1-1.56.53-.08 1.12-.18 1.75-.3.17-1.27-.92-1.8-1.59-2.98 2.14.91 4.57.56 6.34 2.53.24-.16.52-.35.82-.55C335.98 54.47 297.09 40.2 256 40.2c-46.12 0-89.47 17.96-122.08 50.57zm234.37 41.09c.31.02.62.04.9.06 2.85-2.59 1.71-6.56.42-9.66-.09-.18-.5-.22-.88-.39.96 4.31-.05 7.04-2.04 10.98-.28 0-.78-.01-1.54-.02.48.89.73 1.33.82 1.5.99-.39 1.8-.71 2.72-1.07-.1-.35-.25-.86-.4-1.4zm-22.16 3.51c.4.18.68.3.97.42.72-1.12.72-1.12-.11-2.19-.28.13-.56.25-.91.39.23.42.15.94.05 1.38zM307 140.49c1.17-.83 1.82-2.36 3.48-2.43.89-.02 1.67 1.32 2.67.16-2.41-1.91-6.96-2.09-7.48 1.86.43.38.89.8 1.69 1.49-.22-.68-.41-1.05-.36-1.08zm3.67 11.35c1.13.49 2.28.99 3.38 1.48.46-.45.88-.85 1.33-1.3-1.57-1.23-3.11-1.06-4.71-.18zm7.28-11.21c.39-.2.73-.38 1.52-.78-.82-.36-1.18-.52-1.78-.77-.18.11-.58.34-.66.4-.75-.4-1.23-.66-1.82-.99-.08.46-.12.68-.16.89 1.01.42 1.97.84 2.9 1.25zm-42.07-12.36c-.81-.26-1.35-.65-2-1.32-.22.51-.38.86-.49 1.12-.52-.36-.97-.68-1.45-1.01-1.22 1.23-2.33 2.34-3.5 3.52.37.54.65.95 1.11 1.61.56-1.29 1-2.3 1.44-3.31.56-.03.98-.04 1.5-.06-.3 1.57-1.37 2.33-2.25 3.23.21 1.23 1.36 1.19 2.08 1.59.64-.22 1.17-.41 1.82-.64.08-.57.34-1.22.2-1.77-.18-.73 1.03-.61.66-1.45-.13-.3.52-.93.88-1.51zm1.6.12c.15-.19.28-.37.5-.67-.92-.5-1.24-2.19-2.8-1.02.73.53 1.49 1.09 2.3 1.69zm-27.14-4.92c1.29-.65 1.38.9 2.42 1.01l.05-1.12c.75-.34 1.48-.68 2.2-1.02 3.25 1.89 3.01.1 4.84-2.03-.73-1.36-2.23-1.17-3.08-2.43-1.59-1.13-3.99.26-5.86-.28-3.13 1.41-4.83.01-8.14 2.69.17.91.32 1.82.48 2.73-3 1.98-.72 5.93-.66 8.62-.67 1.32.18 2.14.87 3.09-2.68-.49-3.14 3.17-5.65 3.3-.6 1.38-1.12 2.56-1.69 3.88.67.62 1.24 1.4 2.02 1.78 1.04.51-.09 2.01 1.21 2.24 1.67 3.21 5.38 2.14 8.35 3.48.65-2.63 3.84-5.73 2.07-8.37.42-.53.84-1.03 1.41-1.72-.79-.35-1.36-.59-1.97-.86.61-.71 1.1-1.28 1.66-1.94 1.29 1.26 2.9 1.83 4.66 1.97 1.5-1.65-1.17-2.07-.16-4.72-2.78-1.28-2.18-1.17-3.65.99-.68-.89-.36-1.83.34-2.31.87-.59.77-1.49 1.3-2.09-1.24-.71-2.02-1.44-2.53-2.65.5-1.6.47-2.87-.49-4.24zm.58-52.94c-.78.31-1.54.61-2.26.89-.34.78-.69 1.59-1 2.3.49.93 1.64.03 1.93.65.76-.31 1.49-.6 2.37-.95-.06-.95.67-2.32-1.04-2.89zm2.32 11.75c1.45.2 1.87-.9 1.7-1.88-.82.14-1.36.23-1.8.3.03.59.06 1.04.1 1.58zm5.87-9.7c-.14-.3-.28-.58-.6-1.24-2.07 1.24-3.2 1.61-2.93 4.25.91-.31 1.54-.53 2-.69-.3-1.47.98-1.39 1.53-2.32zm-34.39-8.76c.36.2.75.42.81.46 1-.4 1.72-.67 2.34-.9-1.39-.46-2.81-.35-3.15.44zm3.79 42.52c1.18-.06 2.24-.11 3.48-.17-1.75-1.33-3.6-1.57-5.48-1.55-1.88-.94-3.76-.53-5.49-.14.05.89.09 1.71.14 2.58.76.18 1.7-.09 2.17.86-.53.26-.92.46-1.55.77-.75-2.85-3.58-.05-5.31-1.64.38-.5.72-.95 1.14-1.48-.23-.5-.5-1.08-.78-1.68 1.02-.05 1.7.07 2.56-.54-2.05-1.19-2.05-1.19-1.69-3.01-.65-.28-1.29-.56-2.01-.88-1.26.96-3.01.76-4.21 1.42-.92.66-1.67 1.36-2.96.8-1.36-.13-2.7 1.71-3.62 2.46-.72.01-1.32.02-1.66.03-1.05.73-1.93 1.34-2.89 1.99.58 1.07-.12 1.68-.98 2.19.36 2.58 2.71 3.05 4.45 4.54 2.3-.2 4.67-.21 6.94.35.48 1.22 1.87 1.08 2.67 1.79-.02.31-.04.62-.06.9.39.2.72.39 1.06.57-.12.52-.23.95-.29 1.21 2.34 1.12 2.72 4.15 5.62 3.76 1.49.15 2.07 2.42 3.88 1.69.26-.05.6.25.9.38.75-.31 1.49-.62 2.17-.89.5-1.14.98-2.24 1.28-2.95-1.28-3.18-2.2-5.81-3.15-8.89-.45-.19-.74-.32-1.02-.44.08-.63.16-1.21.24-1.94.26.1.62.23.97.36 1.16-.39 2.32-.77 3.5-1.16.02-.41 0-.85-.02-1.29zm-.19 29.46c-.39.15-.68.27-.94.37-.23 1.08-.45 2.12-.67 3.14.36.16.72.31 1.14.5.74-1.31.85-2.61.47-4.01zm-6.62-4.03c.58.71 1.09 1.34 1.54 1.9.75-.62 1.38-1.14 2.12-1.74-1.14-.01-2.22-.92-3.66-.16zm-69.24 95.73c-.39-.13-.59-.2-.86-.3-.54 1.27-1.08 2.51-1.6 3.68.28 1.35.54 2.66.8 3.95.28-.01.42-.02.98-.06-1.26-2.67-.49-4.99.68-7.27zm-13.56 16.2c1.16-1.25 2.67-1.87 3.43-3.48.43.11.87.22 1.35.34.06-.35.1-.57.14-.8-.54-.27-1.04-.51-1.39-.68.03-1.33-.58-1.79-1.4-2.55-.39-.61-1.13-.13-1.16-.2-.32-1.13-1.66-.97-2.45-.79-.8.82-1.84 1.41-1.39 2.78.11.33-.26.99-.6 1.24-.77.73-.2 2.15-.6 3.2 1.59-.5 2.57 1.47 3.97 2.19.2-.07.5-.18.99-.35-.31-.31-.52-.52-.89-.9zm-2 29.46c-.99-1.4-.62-2.93-.3-4.52-.52-.67-.35-1.83-1.94-2.55 1.28 2.18.06 4.05.61 5.97-1.46 2.35-1.17 7.95 1.16 8.94-.95-2.78-.79-5.33.47-7.84zm.68-44.58c.14-.01.25-.66.37-1-.92-.32-1.88.44-2.89.57-.1.46-.18.88-.29 1.36 1.25.2 1.85-.89 2.81-.93zm-10.62 18.51c-1.13 1.44-.77 3.01-.06 4.6 1.28 2.56.32 5.25 2.14 7.78.16-.61.48-1.15.33-1.44-1.15-2.8-.18-5.94-1.99-8.41 1.81-1.15.41-3.25.93-4.78.33-1.21-.1-2.64-.2-4.02-.19 0-.41 0-.77-.01.14 1.77-.04 3.45-.93 4.89.2.5.35.88.55 1.39zm-4.2 8.64c-.01.64-.01 1.01-.02 1.45.59-.22 1.15-.43 1.7-.64.13-.42.24-.78.48-1.54-1 .34-1.66.57-2.16.73zm11.16 79.2c32.61 32.61 75.97 50.57 122.08 50.57 27.03 0 53.11-6.18 76.64-17.85-.55-.01-1.04.09-1.39.41-.92.89-2.49 1.09-4.2 1.76 2.66-2.89 6.57-4.1 8.63-7.65 1.3-1.76 3.68-2.31 4.66-4.28 1.02-1.78 3.15-2.93 4.82-4.06 5.82-3.26 11.74-6.31 17.67-9.33 7.04-4.55 12.35-11.44 19.29-16.16.17.42.23.57.38.96 3.62-3.36 6.67-7.17 9.62-10.91.16.05.29.12.4.2 23.44-30.13 36.14-66.96 36.14-105.74 0-40.26-13.69-78.42-38.87-109.16-.37-.09-.75-.17-1.27-.29.51.84.9 1.51 1.33 2.21-.23.11-.44.21-.64.3.06.2.14.42.2.61-.27.16-.53.31-.75.44 1.12 4.31 3.96 8.14 4.85 12.58.15 1.12.59 2.4 1.64 3.04 1.17.75 1.37 2.13 3.01 2.08-.28-.38-.53-.76-.89-1.23 1.6-.37 1.95 2.07 3.55.93 1.02 2.51 6.56 8.15 5.53 10.14-1.18-2.13-2.31-4.2-3.93-6.24-.2 1.64.82 2.71 1.48 4.04 1.41 2.77 2.9 5.39 3.48 8.52 1 2.84 5.1 15.43 1.75 16.64-.09-.2-.19-.41-.29-.63-1.72 3.55 1.51 8.65-.59 11.87-.22 2.3 1.67 3.33 2.07 5.05 2.24 2.76 3.01 6.02 3.27 9.29-.79 1.24-1.53 2.36-2.34 3.6-.16-.18-.57-.46-.55-.72.07-1-.78-1.9-.21-2.96-.75-2.34-1.02-4.85-1.95-7.27-.45.06-.83.11-1.33.18-1.37-1.69-.17-7.89-4.19-5.2.05.44.08.81.16 1.56-.37.08-.81.18-1.48.31-.74-1.84.62-3.41-.58-5.14l-1.28.08c-.59 1.95-1.15 3.78-1.8 5.88-.28.24-1.25.08-1.37 1.05.6 2.07.6 2.07 2.15 1.98.29.96.58 1.93.91 3.01.17.07.52.22.95.41.3-.71.59-1.36.96-2.21 1.01.7 2.43.53 2.85 2.07-.41.98-1.7 1.36-1.81 2.76-.09 1.14-.89 2.23-1.37 3.35.21.93.42 1.83.62 2.66.58.25 1.02.44 1.36.59.97 2.76 1.41 5.34 3.41 7.58-.07.2-.18.49-.34.91.28.54.6 1.19.85 1.66-.43 1-.76 1.74-1.13 2.62.53.3 1.05.61 1.3.75.95 1.98-.44 3.76.16 5.59.06.18-.07.53-.25.65-1.36.96-.65 2.82-1.69 3.89-.49.5.6 1.23-.38 1.7-.33.16-.38 1-.46 1.54.23 4.85-3.58 8.07-5.39 12.29l-3.15 1.16c-.14.31-.27.62-.49 1.12-.37-.31-.67-.58-1.12-.96-.16.49-.32 1.01-.54 1.7-1.12-.21-1.12 2.16-2.75 1.6l-3.33 1.81c-.25 1.02-.56 2.3-.89 3.69-1.05-1.64-1.11-1.89-.7-3.98-.39 0-.74-.01-1.15-.02-.1-.15-.26-.39-.35-.54-.85.38-1.65.74-2.44 1.1 0-.06-.01-.14-.01-.21-.8.68-1.61 1.36-2.41 2.05l-.18-.18c-.37 1.6-2.09 3.01-2.78 4.13.03.97-.45 1.64-.73 2.66.44.9 1.46 2.08 1.72 3.15-.69 3.95 4.7 5.62 4.04 11.44.21 3.03-1.16 5.63-1.5 8.34-.76 2.36-3.77 4.39-6.22 5.04-1.05 1.71-2.17 3.23-4.11 3.97-1.06.51-1.25 1.68-2.63 1.97.35-1.89 1.31-3.23 1.75-4.73-1.98-1.49-1.98-1.49-3-1.47.28-.63.52-1.19.76-1.74-.08-.09-.17-.19-.25-.29-.36.28-.73.56-1.09.85-.78-1.47.42-3.13-.89-4.32-1.02-.6-1.73-1.86-3.23-1.46-.89-.81.06-1.58.13-2.35-.9-1.08-1.74-.23-2.59.04.04 2.8-4.38 8.46-5.23 11.99l.36 1.2c.39-.05.75-.08.98-.11 1.05.87-.48 1.95.05 2.39 1.07 1.2.34 2.44-.21 3.62 1.07.42.71 2.61 2.55 1.93 1.05 1.87 2.1 3.76 3.09 5.51-.67 2.19-1.31 4.21-1.98 6.41.78 1.25.73 2.79.47 4.39-.49.1-1.12.24-1.76.38-1.33-1.42-2.69-2.89-4.15-4.44.18-.41.4-.91.59-1.36-1.26-2.07-.77-3.84-.56-5.72l-.23-.03c1.28-1.98.96-4.4-.3-6.28-.57-.58.3-1.38-.58-1.93-.5-.3-.61-1.24-.92-1.94-.22.24-.43.46-.77.83-.61-3.19 2.62-5.57 2.41-8.71 1-.44 1.08-1.48 1.5-2.19-.19-.5-.34-.88-.52-1.3.96-1.91 1.71-3.95.95-6.03-1.12-4.11.84-8.49-1.32-12.45-.4.77-.81 1.59-1.23 2.41-.99.13-2.27.89-3.61 2.2-1-.18-2.05-.35-3.11-.53-.25-5.18 3.24-2.09 1.28-10.42-.5.06-.85.08-1.21.12-.28-1.68 1.24-4.28-1.56-4.87-.77-1.98-1.68-3.96-1.83-6.12.08-2.16.08-2.16-.84-3.48-.5.04-.95.06-1.52.1.02.43.04.89.05 1.14l-2.27.89.12.3c-2.14-.63-3.81.65-5.94.28-.2-.28-.42-.57-.72-.97-1.21.4-2.42.78-3.6 1.17.06.87.1 1.52.15 2.18-1.6 2.05-3.12 2.92-5.92 2.64-2.93 2.92-6.57 5.38-10.77 6.73-.58.46-.59 1.16-.99 1.87-2.3 1.17-2.59-.6-4.8 1.89-4.55-1.14-3.81 5.49-4.55 8.4-.25 2.65-3.95 3.77-3.49 6.88.07.85-.43 1.75-.69 2.65-1.32-.22-1.32-.22-3.89 1.78.06.26.13.54.22.97-.85.07-1.68.15-2.78.23-.45.55-1.07 1.32-1.79 2.2-.61.06-1.36.14-2.07.21-4.18-3.79-.69-9.63-3.04-14.29-1.33-3.38.16-7.1-.8-10.62-.95-3.41-1.06-6.86-.47-10.37.4-3.05-.78-8.63 2.03-10.49-.36-2.06-.1-4.16.46-6.5-.56.26-.89.41-1.2.54-.06 1.81-.06 1.81-1.35 3.07-1.14.17-2.13.3-3.34.48-.51-.22-1.25-.54-2.01-.88-1.01-2.31-2.95-4.22-2.95-7.08.18.24.37.48.65.84l4.59-.64c-4.13-1.54-4.9-.65-6.37-5.32-.83-.64-1.49-1.16-2.14-1.66.17-2.77-1.52-4.14-1.8-7-.4.32-.71.58-.76.61-5.17-.76-8.6-3.77-13.58-3.47-1.06-.3-2-1.25-2.98-1.82-.77-.52-1.83-.47-2.41-1.46-1.09-1-3.19-.92-4-2.39-.63-.06-1.36.4-1.71-.7-.18-.54-1-.88-1.52-1.28-.33-1.54.83-3.02 0-4.66-.54-.24-1.2-.52-1.92-.84-.2.08-.51.2-.83.33.07.22.15.43.22.65-1.14.18-2.07-.9-3.37-.74-.76.03-1.44-.77-2.13-1.3-2.78-1.47-2.68-4.58-5.18-6.55-2.41-2.07.08-5.66-1.5-8.27-.18-.37-.07-.89-.11-1.46-.95.01-1.94.12-2.04-1.04-1.02.03-1.98-.2-2.65.14-.67.34-1.17.97-2.05.68.3 3.48-.85 6.89.84 10.14.19 1.2 1.22 3.25-.6 3.52.14 1.79.28 3.43.42 5.24.92-1.48 1.08-3.5 3.15-3.99.23.53.47 1.08.75 1.71-.34.23-.59.41-1 .67.32 1.26-.38 2.16-1.58 2.75-.41 1.26.72 1.98.98 2.83 5.13 2.08 7.65 2.7 12.46-.68.1-.1.32-.21.44-.17 1.28.37 1.89-.92 3.1-1.2-1.35 3.07-2.25 5.44-.81 8.7 4.18 1.89 4.46 4.38 6.44 8.02-1.71 2.43-4.79 3.13-6.8 5.36-.27-.28-.47-.5-.83-.87-1.15.22-2.69 1.61-2.76 3.11.15 1.27-.66 1.5-2.55.83-.91.45-2.19.42-2.78 1.77-.18.39-.98.51-1.38.69-.91-.4-1.65-.72-2.42-1.05l-2.28 2.25c-1.84-1.16-3.81-1.42-5.73-.97-1.6-.97-3.06-.24-4.65.41-.34 1.18-.96 2.12-2.5 1.35-2.51.18-5.32.17-7.63-.71-1.09.43-2.16.85-3.21 1.27-.75-.32-1.49-.65-2.24-.98-3.23.45-5.1.13-6.24-1.18-2.53.45-4.47 1.07-7.24-.01-.31-.52-.84-1.36-1.32-2.15.39-.89.71-1.63 1.03-2.38-.8-1.91.35-4.34.66-6.38.26-1.36 1.72-2.59 1.23-4.02 1-.06.29-.83.46-1.24.6-2.78-1.78-5.4-.62-8.35 1.49-3.67-2.66-6.63-1.38-10.13 1.09-3.12 4.19-8.68.88-11.18-.75-2.29.27-4.17.76-6.46-.09-.24-.24-.62-.44-1.12.75-1.15.61-2.43.03-3.7.22-.1.44-.19.87-.38-.23-1.46-.47-2.97-.71-4.47.84-.92 1.79-1.96 2.74-3.01-.06-.09-.14-.2-.2-.3-1.71 1.1-2.74 2.82-4.35 3.97-1.36-1.71-1.42-2.88-.3-5.08-.29-1.17.66-2.01.89-3.58-2.6 2.11-2.21 5.02-2.63 8.12-.48 4.64-2.87 9.23-1.98 13.94-1.24.62-1.14 2.03-1.92 3.1l1.36 4.21c-.19.45-.48 1.1-.73 1.68.9 3.36-2.11 6.35-2.96 9.46 2.69 4.28 1.33 8.68.66 13.13-.22.63-.06 1.19.47 1.43.97.46-.16 2.06 1.27 2.19 1.26 2.74 2.15 5.6 2.79 8.54.27 1.65 1.75 3.22.81 5.03-.89.28-1.42.36-2.48.44 1.02 1.08 2.69 1.7 1.84 3.49.54 3.41 3.42 4.26 6.33 3.59 1.34 2.13 3.71 1.23 5.68 1.91 3.01.58 6.08 2.67 9.19 2.07.89-.45 1.54-.04 2.33.3-.05 1.59-1.59 2.78-1.32 4.56-.3.06-.68.15-1.06.23-1.52 3.83-5.2 5.22-7.94 7.83-2.19 1.48-3.56 4.08-6.14 5.3-6.78 5.5-15.83 4.01-23.08 8.3-1.17.75-2.51 1.21-3.57 2.16-1.01.25-1.89.32-2.96 1.05-2.19-.88-3.27 3.37-5.39 4.08-3.12 2.88-3.28 3.84-1.43 7.65-.85.7-.68.73-1.23 3.88-.24 1.41.86 2.76-.09 4.08.69 1.33 1.39 2.66 2.04 3.92-1.23 3.16-2 7.22-1.3 10.3-.31.72-.64 1.47-.96 2.21-.39.15-.9.19-1.12.47-1.83 1.87-4.4.48-6.54.23-.85-.05-1.77-.3-2.55.58-1 1.09-3.23.29-4.54 1.1-1.3 2.38 2.39 6.91.93 11.32-1.82-.05-3.31-.46-4.77-1.35-.19.45-.35.8-.55 1.28.79 1.48.8 3.12-.08 4.78-.49.06-.94.12-1.53.21-1.11 2.46-2.75 2.32-5.13 2.9-.45-.19-.89-.39-1.35-.58 0-.15.06-.41 0-.43-1.95-.85-2.97-2.86-4.83-3.82-5.79-3.88-7.97-10.69-10.77-16.9-2.78-5.51-5.49-11.11-6.83-17.19-1.8-11.05-8.02-22.44-3.86-33.5 2.5-1.4.77-6.18 1.14-8.63 1.4-10.48-.5-21.26-.56-31.87.89-.81 1.97-2.07 1.48-3.4 1.64-.36.3-1.95 1.23-2.7 2.9-2.89 3.35-9.05.6-12.22-.4-.44-1.4-.29-1.42-1.11.41-4.91 3.16-12.51-4.53-12.29-.95-2.3-.45-5.27-2.95-6.64-4.85 16.06-7.37 32.92-7.37 50.17.03 46.23 17.99 89.58 50.6 122.19zM345.36 27.39l-6.86 15.77c62.84 30.61 106.14 95.09 106.14 169.69 0 104.19-84.46 188.65-188.65 188.65-23.91 0-46.78-4.46-67.83-12.58l-6.87 15.8c243.38 92.52 397.73-262.4 164.07-377.33z" fill="#36434f"/></svg>