<svg version="1.1" xmlns="http://www.w3.org/2000/svg" x="0" y="0" viewBox="0 0 512 512" xml:space="preserve"><path d="M254.3 62.9c-67.2 0-128.4 19.3-174.3 50.9-7.8 5.4-45 26.5-45 49.6s35.3 46.2 35.3 68.4-31.2 21.6-48.3 36.3C4.8 282.8 1.8 302.3 1.8 302.3s-7.9 33.7 9.1 59.3c42 63.9 142 87.5 243.5 87.5C396.6 449.1 512 362.6 512 256S396.5 62.9 254.3 62.9zm123.8 59.9c21.5 0 39 17.5 39 39s-17.5 39-39 39-39-17.5-39-39 17.4-39 39-39zM84.2 165.6c3.1-17.4 31.6-26.9 63.6-21.3 32.1 5.7 55.5 24.4 52.4 41.7-3.1 17.4-31.6 26.9-63.6 21.3-31.9-5.7-55.4-24.4-52.4-41.7zm-7.9 191.9c-21.5 0-39-17.5-39-39s17.5-39 39-39 39 17.5 39 39-17.4 39-39 39zm96.9 44c-21.5 0-39-17.5-39-39s17.5-39 39-39 39 17.5 39 39-17.4 39-39 39zm102 2c-21.5 0-39-17.5-39-39s17.5-39 39-39 39 17.5 39 39-17.5 39-39 39zm98.9-37c-21.5 0-39-17.5-39-39s17.5-39 39-39 39 17.5 39 39-17.6 39-39 39zm58.9-82.9c-21.5 0-39-17.5-39-39s17.5-39 39-39 39 17.5 39 39-17.5 39-39 39z" fill="#36434f"/></svg>