<svg version="1.1" xmlns="http://www.w3.org/2000/svg" x="0" y="0" viewBox="0 0 512 512" style="enable-background:new 0 0 512 512" xml:space="preserve"><path d="M324 8c-10 25.4-28.4 77-28.4 113.6 0 57.5 29.8 93.8 56.2 125.9 22.1 26.9 41.1 50.1 41.1 81.4 0 25.5-14.2 60.2-41.2 100.3-22.4 33.4-47.5 61.6-57.3 72.2-1.5 1.6-3.7 2.6-5.9 2.6h-65.1c-2.2 0-4.4-.9-5.9-2.6-9.8-10.6-34.9-38.9-57.3-72.2-26.9-40.1-41.2-74.8-41.2-100.3 0-31.3 19.1-54.5 41.1-81.4 26.3-32 56.2-68.3 56.2-125.9C216.4 85 198 33.4 188 8h136m5.9-8H182.1c-2.8 0-4.8 2.9-3.7 5.5 7.4 18.1 30 77.1 30 116.1 0 101.4-97.3 133.1-97.3 207.3 0 64.6 79.9 155.5 100.5 178 3 3.3 7.3 5.2 11.8 5.2h65.2c4.5 0 8.7-1.9 11.8-5.2 20.7-22.5 100.5-113.4 100.5-178 0-74.1-97.3-105.9-97.3-207.3 0-39 22.7-98 30-116.1 1.1-2.6-.9-5.5-3.7-5.5z" style="fill:#36434f"/></svg>