<svg xmlns="http://www.w3.org/2000/svg" viewBox="0 0 512 512" xml:space="preserve"><path d="M381.8 23.2C341.6 7.8 299.3 0 256 0s-85.6 7.8-125.8 23.2c-35.5 13.6-58.2 48.1-56.6 86 .8 18.7 1.8 32.3 3.1 40.4 5.2 33.5 14.8 65.9 28.4 96.7-1.9 2.6-3.8 5.2-5.5 7.9-3.1 4.7-3.5 10.8-.9 15.9 1.5 3.1 3.1 6.2 4.8 9.2-12 23.4-18.8 50-18.8 78.2 0 60.9 31.7 114.3 79.5 144.7 10.1 6.5 22 9.8 34 9.8H314c12.2 0 24.2-3.5 34.5-10.1 47.2-30.3 78.5-83.1 78.9-143.3.2-28.5-6.7-55.4-18.9-79.1 1.6-3.1 3.2-6.1 4.8-9.2 2.5-5.1 2.2-11.2-.9-15.9-1.8-2.7-3.6-5.3-5.5-7.9 13.6-30.8 23.2-63.3 28.4-96.9 1.3-8.1 2.3-21.7 3.1-40.4 1.6-37.9-21.1-72.5-56.6-86zm8.7 83.9c-.7 16.2-1.6 29-2.6 35-3.6 23.2-9.6 45.8-17.8 67.6-6.7-2.7-14.6-.6-18.9 5.3-27.2-18.3-59.8-29-94.9-29-35.4-.1-68.3 10.6-95.6 28.9-4.3-5.9-12.2-8-18.9-5.3-8.2-21.7-14.2-44.3-17.8-67.4-.9-6.1-1.9-18.8-2.6-35-.7-17.2 9.7-33 25.8-39.1C182 54.7 218.6 48 256 48s74 6.7 108.6 20c16.2 6.2 26.6 21.9 25.9 39.1z" fill="#36434f"/></svg>