<svg xmlns="http://www.w3.org/2000/svg" viewBox="0 0 512 512" style="enable-background:new 0 0 512 512" xml:space="preserve"><path d="M184.1 90.2 150.5.1l78.3-.1 20 45.1L238.6 68c-10 22.5-15.1 46.5-15.1 71.1V156l-11-14.4c-12-15.6-21.5-33-28.4-51.4zm242.4 251.3c0 94.2-76.3 170.5-170.5 170.5S85.5 435.7 85.5 341.5 161.8 171 256 171s170.5 76.3 170.5 170.5zm-16 0c0-41.3-16.1-80.1-45.3-109.2C336 203.1 297.2 187 256 187s-80.1 16.1-109.2 45.3c-29.2 29.2-45.3 68-45.3 109.2s16.1 80.1 45.3 109.2S214.7 496 256 496s80.1-16.1 109.2-45.3c29.2-29.1 45.3-67.9 45.3-109.2zM236.5 156c6.4-.7 12.9-1 19.5-1 10.6 0 21.1.9 31.3 2.6l12.2-16c12-15.6 21.5-33 28.4-51.4L361.5.1 283.2 0 250 74.8c-8.9 20-13.5 41.7-13.5 63.6V156zm55.4 180.4c9.4-4.4 16.5-10.2 21.4-17.3 4.9-7.1 7.3-14.7 7.3-22.7 0-16.5-5.9-29.5-17.7-38.9-11.8-9.4-28.1-14.2-48.7-14.2-11.6 0-22.2 2.1-31.8 6.4-9.7 4.3-17.2 10.3-22.7 17.9-5.4 7.7-8.2 16.4-8.2 26.2h43c0-4.9 2.1-9.1 6.3-12.4 4.2-3.3 9.2-5 14.9-5 7 0 12.4 1.9 16.2 5.8 3.8 3.9 5.7 8.9 5.7 15 0 15.7-8 23.6-24.1 23.6h-20.3v32h20.9c8.3 0 14.7 2 19.4 5.9 4.7 3.9 7 10.5 7 19.9 0 6.6-2.3 11.9-6.8 16.1-4.5 4.2-10.5 6.3-18.1 6.3-6.7 0-12.4-2.1-17-6.3-4.6-4.2-6.9-9.1-6.9-14.8h-43.3c0 10.5 2.7 19.8 8 28 5.4 8.2 13.2 14.6 23.7 19.3 10.4 4.6 21.7 7 33.9 7 20.8 0 37.5-5 50.3-14.9 12.8-10 19.1-23.2 19.1-39.8 0-10.7-2.8-19.7-8.4-27-5.5-7.1-13.3-12.5-23.1-16.1z" style="fill:#36434f"/></svg>