<svg version="1.1" xmlns="http://www.w3.org/2000/svg" x="0" y="0" viewBox="0 0 512 512" style="enable-background:new 0 0 512 512" xml:space="preserve"><path d="M266.9 0h-22c-6.6 0-12 5.4-12 12v371.5c0 10.9 1.5 21.8 4.4 32.4l5.1 18.3c2.9 10.5 4.4 21.4 4.4 32.4V504c0 4.4 3.6 8 8 8h2c4.4 0 8-3.6 8-8v-37.5c0-10.9 1.5-21.8 4.4-32.4l5.1-18.3c2.9-10.5 4.4-21.4 4.4-32.4V12c.2-6.6-5.2-12-11.8-12zm-5.5 504c0 2.2-1.8 4-4 4h-3c-2.2 0-4-1.8-4-4v-39c0-1.7 1-3.1 2.5-3.7h6c1.5.6 2.5 2 2.5 3.7v39zm13.5-119c0 1.1-.9 2-2 2h-14v-80h12.5c.6 0 1-.4 1-1s-.4-1-1-1h-12.5v-12h7.5c.6 0 1-.4 1-1s-.4-1-1-1h-7.5v-12h12.5c.6 0 1-.4 1-1s-.4-1-1-1h-12.5v-12h7.5c.6 0 1-.4 1-1s-.4-1-1-1h-7.5v-12h12.5c.6 0 1-.4 1-1s-.4-1-1-1h-12.5v-12h7.5c.6 0 1-.4 1-1s-.4-1-1-1h-7.5v-12h12.5c.6 0 1-.4 1-1s-.4-1-1-1h-12.5v-12h7.5c.6 0 1-.4 1-1s-.4-1-1-1h-7.5v-12h12.5c.6 0 1-.4 1-1s-.4-1-1-1h-12.5v-12h7.5c.6 0 1-.4 1-1s-.4-1-1-1h-7.5v-12h12.5c.6 0 1-.4 1-1s-.4-1-1-1h-12.5v-12h7.5c.6 0 1-.4 1-1s-.4-1-1-1h-7.5v-12h12.5c.6 0 1-.4 1-1s-.4-1-1-1h-12.5v-12h7.5c.6 0 1-.4 1-1s-.4-1-1-1h-7.5v-12h12.5c.6 0 1-.4 1-1s-.4-1-1-1h-12.5V77c0-1.1-.9-2-2-2h-2c-1.1 0-2 .9-2 2v32h-12.5c-.6 0-1 .4-1 1s.4 1 1 1h12.5v12h-9.5c-.6 0-1 .4-1 1s.4 1 1 1h9.5v12h-12.5c-.6 0-1 .4-1 1s.4 1 1 1h12.5v12h-9.5c-.6 0-1 .4-1 1s.4 1 1 1h9.5v12h-12.5c-.6 0-1 .4-1 1s.4 1 1 1h12.5v12h-9.5c-.6 0-1 .4-1 1s.4 1 1 1h9.5v12h-12.5c-.6 0-1 .4-1 1s.4 1 1 1h12.5v12h-9.5c-.6 0-1 .4-1 1s.4 1 1 1h9.5v12h-12.5c-.6 0-1 .4-1 1s.4 1 1 1h12.5v12h-9.5c-.6 0-1 .4-1 1s.4 1 1 1h9.5v12H244l-5-2.6v7.2l5-2.6h8.9v12h-9.5c-.6 0-1 .4-1 1s.4 1 1 1h9.5v12h-12.5c-.6 0-1 .4-1 1s.4 1 1 1h12.5v12h-9.5c-.6 0-1 .4-1 1s.4 1 1 1h9.5v12h-12.5c-.6 0-1 .4-1 1s.4 1 1 1h12.5v80h-14c-1.1 0-2-.9-2-2V72c0-1.1.9-2 2-2h34c1.1 0 2 .9 2 2v313z" style="fill:#36434f"/></svg>