<svg xmlns="http://www.w3.org/2000/svg" viewBox="0 0 512 512" style="enable-background:new 0 0 512 512" xml:space="preserve"><path d="M437.4 11.6C431.6 2 424.8 0 420 0c-19 0-26.1 14.4-30.8 24-1.8 3.7-3.5 7.2-5.3 9-1.2 1.2-4.1 2.6-8.3 4 .4-8.8.8-17.8 1.1-26.9H135.3c.3 9.1.6 18.1 1.1 26.9-4.1-1.4-7.1-2.8-8.3-4-1.8-1.8-3.5-5.3-5.3-9C118.1 14.4 111 0 92 0c-4.8 0-11.6 2-17.4 11.6-7.9 13.1-12 37.2-10.9 64.4 1.3 31.2 9.2 62.3 22.5 87.6 32.2 61.5 92.2 87 105.2 92 10 11.7 21.5 20.2 34.9 25.2 9.4 19 14.8 40.5 14.8 63.2 0 29.9-9.2 57.7-25 80.6-13 10.7-21.7 26.5-22.9 44.4h-.2v11h-8.2c-5.5 0-10.5 2.8-13.5 7.4L155.6 512h200.8l-15.7-24.6c-2.9-4.6-8-7.4-13.5-7.4H319v-11h-.1c-1.2-17.9-9.8-33.7-22.9-44.4-15.8-22.9-25-50.7-25-80.6 0-22.7 5.3-44.1 14.8-63.2 13.4-5 24.9-13.6 34.9-25.2 13-4.9 73-30.4 105.2-92 13.2-25.3 21.2-56.4 22.5-87.6 1-27.2-3-51.3-11-64.4zm-94 30.4c-3.7 68.1-12.3 119-26 155-7.7 20.2-17 35.2-27.6 44.6-9.7 8.4-20.4 12.4-33.8 12.4-13.4 0-24.1-4-33.7-12.4-10.6-9.4-19.9-24.3-27.6-44.6-13.8-36-22.4-86.9-26-155h174.7zM114.5 148.8c-11.1-21.2-17.8-47.5-18.9-74.1-.5-12.3.3-22.6 1.6-30.5 2.1 3.8 4.7 7.7 8.2 11.3 6.2 6.2 14.5 10.2 29.7 14.5 1.1.3 2.2.6 3.4.9 4.1 52.1 11.8 97.4 24.5 132.7-21.1-15.2-37.4-33.6-48.5-54.8zm157.7 297.6 3.5 2.9c6.7 5.5 10.7 13.3 11.3 21.8l.1 1.1v7.8h-62v-7.8l.1-1.1c.6-8.6 4.6-16.3 11.3-21.8l3.5-2.9 2.6-3.7c5.2-7.5 9.7-15.4 13.6-23.5 3.9 8.1 8.4 16 13.6 23.5l2.4 3.7zM416.4 74.7c-1.1 26.6-7.8 52.9-18.9 74.1-11.1 21.2-27.4 39.6-48.5 54.9 12.7-35.4 20.4-80.6 24.5-132.7 1.1-.3 2.3-.6 3.4-.9 15.2-4.3 23.5-8.3 29.7-14.5 3.6-3.6 6.1-7.5 8.2-11.3 1.3 7.8 2.1 18.1 1.6 30.4z" style="fill:#36434f"/></svg>