<svg xmlns="http://www.w3.org/2000/svg" viewBox="0 0 512 512" style="enable-background:new 0 0 512 512" xml:space="preserve"><path d="M509.4 262.9c.3-.3.5-.6.6-.8v-.1c.2-.3.4-.5.5-.8.9-1.6 1.4-3.4 1.4-5.3 0-5.8-4.7-10.5-10.5-10.5-.9 0-1.7.1-2.5.3-6.3 1.5-12.8 2.7-19.3 2.7h-28.9c-.4-1.7-2-3-3.9-3h-8.1c-1.3-43.3-17.6-82.9-44-113.6l3.5-3.5c.2-.2.3-.4.5-.6 0-.1.1-.1.1-.2.1-.1.2-.3.2-.4 0-.1.1-.2.1-.3 0-.1.1-.2.1-.4 0-.1.1-.2.1-.4v-.9c0-.6-.2-1.2-.5-1.8l20.4-20.4c4.6-4.6 10-8.3 15.5-11.7.7-.4 1.4-.9 2-1.5.3-.3.5-.5.7-.8.1-.1.1-.2.2-.3.1-.2.3-.4.4-.5.1-.1.2-.3.2-.4.1-.2.2-.3.3-.5.1-.2.2-.3.2-.5.1-.1.1-.3.2-.4.1-.2.1-.4.2-.6 0-.1.1-.2.1-.4.1-.2.1-.4.2-.6 0-.1.1-.2.1-.3 0-.2.1-.5.1-.7v-.2c0-.3 0-.5.1-.8v-1.2c0-.3-.1-.6-.1-.9v-.1c-.1-.3-.1-.6-.2-.9-.5-1.7-1.4-3.4-2.7-4.7-4.1-4.1-10.7-4.1-14.8 0-.6.6-1.1 1.3-1.5 2-3.4 5.6-7.1 10.9-11.7 15.5L391.4 110l-2.9 2.9c-1.5-.9-3.5-.7-4.8.6l-3.3 3.3c-30.3-28-70-46-113.9-48.5V65c0-.3 0-.5-.1-.7 0-.1 0-.2-.1-.3 0-.1-.1-.3-.1-.4 0-.1-.1-.2-.1-.3-.1-.1-.1-.2-.2-.3-.1-.1-.1-.2-.2-.3l-.2-.2-.3-.3s-.1 0-.1-.1c-.5-.4-1-.7-1.6-.9V32.3c0-6.5 1.2-12.9 2.7-19.3.2-.8.3-1.6.3-2.5 0-.4 0-.7-.1-1.1 0-.1 0-.2-.1-.4 0-.2-.1-.4-.1-.7 0-.2-.1-.3-.1-.5s-.1-.4-.1-.5c-.1-.2-.1-.3-.2-.5-.1-.1-.1-.3-.2-.4l-.3-.6c-.1-.1-.1-.2-.2-.3l-.3-.6c-.1-.1-.1-.2-.2-.3-.1-.2-.3-.4-.4-.6 0-.1-.1-.1-.1-.2-.2-.2-.3-.4-.5-.6l-.1-.1-.6-.6-.1-.1c-.2-.2-.5-.4-.7-.6h-.1c-.3-.2-.5-.4-.8-.5C259.7.5 257.9 0 256 0c-5.8 0-10.5 4.7-10.5 10.5 0 .9.1 1.7.3 2.5 1.5 6.3 2.7 12.8 2.7 19.3v28.9c-1.7.4-3 2-3 3.9v3.3c-43.9 2.5-83.6 20.4-113.9 48.5l-3.3-3.3c-.2-.2-.4-.3-.6-.5-.1 0-.2-.1-.2-.1-.1-.1-.3-.2-.4-.2-.1 0-.2-.1-.3-.1-.1 0-.2-.1-.4-.1-.1 0-.2-.1-.4-.1h-.9c-.6 0-1.2.2-1.8.5l-2.9-2.9-17.5-17.5c-4.6-4.6-8.3-10-11.7-15.5-.4-.7-.9-1.4-1.5-2-.3-.3-.5-.5-.8-.7-.1-.1-.2-.1-.3-.2-.2-.1-.4-.3-.5-.4-.1-.1-.3-.2-.4-.2-.2-.1-.3-.2-.5-.3 0-.3-.2-.3-.4-.4-.1-.1-.3-.1-.4-.2-.2-.1-.4-.1-.6-.2-.1 0-.2-.1-.4-.1-.2-.1-.4-.1-.6-.2-.1 0-.2-.1-.3-.1-.2 0-.5-.1-.7-.1h-.2c-.3 0-.5 0-.8-.1h-1.2c-.3.1-.6.1-.9.1h-.1c-.3.1-.6.1-.9.2-1.7.5-3.4 1.4-4.7 2.8-4.1 4.1-4.1 10.7 0 14.8.6.6 1.3 1.1 2 1.5 5.6 3.4 10.9 7.1 15.5 11.7l20.4 20.4c-.9 1.5-.7 3.5.6 4.8l3.5 3.5C90.6 162.4 74.3 202 73 245.3h-8c-.3 0-.5 0-.7.1-.1 0-.2 0-.3.1-.1 0-.3.1-.4.1-.1 0-.2.1-.3.1-.1.1-.2.1-.3.2-.1.1-.2.1-.3.2l-.2.2-.3.3s0 .1-.1.1c-.4.5-.7 1-.9 1.6H32.3c-6.5 0-12.9-1.2-19.3-2.7-.8-.2-1.6-.3-2.5-.3-.4 0-.7 0-1.1.1-.1 0-.2 0-.4.1-.2 0-.4.1-.7.1-.2 0-.3.1-.5.1s-.4.1-.5.1c-.2.1-.3.1-.5.2-.1.1-.3.1-.4.2l-.6.3c-.1.1-.2.1-.3.2l-.6.3c-.1.1-.2.1-.3.2-.2.1-.4.3-.6.4-.1 0-.1.1-.2.1-.2.2-.4.3-.6.5l-.1.1-.6.6-.1.1c-.2.2-.4.5-.6.7v.1c-.2.3-.4.5-.5.8-.8 1.7-1.3 3.5-1.3 5.4 0 5.8 4.7 10.5 10.5 10.5.9 0 1.7-.1 2.5-.3 6.3-1.5 12.8-2.7 19.3-2.7h28.9c.4 1.7 2 3 3.9 3h8.7c3.5 41.9 21.1 79.8 48.1 108.9l-8.3 8.3c-.2.2-.3.4-.5.6 0 .1-.1.1-.1.2-.1.1-.2.3-.2.4 0 .1-.1.2-.1.3 0 .1-.1.2-.1.4 0 .1-.1.2-.1.4v.9c0 .6.2 1.2.5 1.8l-2.9 2.9-17.5 17.5c-4.6 4.6-10 8.3-15.5 11.7-.7.4-1.4.9-2 1.5-.3.3-.5.5-.7.8-.1.1-.2.2-.2.3-.1.2-.3.3-.4.5-.1.1-.2.3-.2.4-.1.2-.2.3-.3.5-.1.2-.2.3-.2.5-.1.1-.1.3-.2.4-.1.2-.1.4-.2.6 0 .1-.1.2-.1.4-.1.2-.1.4-.2.6 0 .1-.1.2-.1.3 0 .2-.1.5-.1.7v.2c0 .3 0 .5-.1.8v1.2c0 .3.1.6.1.9v.1c.1.3.1.6.2.9.5 1.7 1.4 3.4 2.7 4.7 4.1 4.1 10.7 4.1 14.8 0 .6-.6 1.1-1.3 1.5-2 3.4-5.6 7.1-10.9 11.7-15.5l17.5-17.5 2.9-2.9c1.5.9 3.5.7 4.8-.6l8.5-8.5c29.5 25.3 67.2 41.4 108.6 43.8V447c0 .3 0 .5.1.7 0 .1 0 .2.1.3 0 .1.1.3.1.4 0 .1.1.2.1.3.1.1.1.2.2.3.1.1.1.2.2.3l.2.2.3.3s.1 0 .1.1c.5.4 1 .7 1.6.9v28.9c0 6.5-1.2 12.9-2.7 19.3-.2.8-.3 1.6-.3 2.5 0 .4 0 .7.1 1.1 0 .1 0 .2.1.4 0 .2.1.4.1.7 0 .2.1.3.1.5s.1.4.1.5c.1.2.1.3.2.5.1.1.1.3.2.4l.3.6c.1.1.1.2.2.3l.3.6c.1.1.1.2.2.3.1.2.3.4.4.6 0 .1.1.1.1.2.2.2.3.4.5.6l.1.1.6.6.1.1c.2.2.5.4.7.6h.1c.3.2.5.4.8.5 1.6.9 3.4 1.4 5.3 1.4 5.8 0 10.5-4.7 10.5-10.5 0-.9-.1-1.7-.3-2.5-1.5-6.3-2.7-12.8-2.7-19.3v-28.9c1.7-.4 3-2 3-3.9v-13.3c41.4-2.3 79.1-18.4 108.6-43.8l8.5 8.5c.2.2.4.3.6.5.1 0 .2.1.2.1.1.1.3.2.4.2.1 0 .2.1.3.1.1 0 .2.1.4.1.1 0 .2.1.4.1h.9c.6 0 1.2-.2 1.8-.5l2.9 2.9 17.5 17.5c4.6 4.6 8.3 10 11.7 15.5.4.7.9 1.4 1.5 2 .3.3.5.5.8.7.1.1.2.1.3.2.2.1.4.3.5.4.1.1.3.2.4.2.2.1.3.2.5.3.2.1.3.2.5.2.1.1.3.1.4.2.2.1.4.1.6.2.1 0 .2.1.4.1.2.1.4.1.6.2.1 0 .2.1.3.1.2 0 .5.1.7.1h.2c.3 0 .5 0 .8.1h1.1c.3 0 .6-.1.9-.1h.1c.3-.1.6-.1.9-.2 1.7-.5 3.4-1.4 4.7-2.7 4.1-4.1 4.1-10.7 0-14.8-.6-.6-1.3-1.1-2-1.5-5.6-3.4-10.9-7.1-15.5-11.7L402 391.4l-2.9-2.9c.9-1.5.7-3.5-.6-4.8l-8.3-8.3c27-29.1 44.6-67 48.1-108.9h8.7c.3 0 .5 0 .7-.1.1 0 .2 0 .3-.1.1 0 .3-.1.4-.1.1 0 .2-.1.3-.1.1-.1.2-.1.3-.2.1-.1.2-.1.3-.2l.2-.2.3-.3s0-.1.1-.1c.4-.5.7-1 .9-1.6h28.9c6.5 0 12.9 1.2 19.3 2.7.8.2 1.6.3 2.5.3.4 0 .7 0 1.1-.1.1 0 .2 0 .4-.1.2 0 .4-.1.7-.1.2 0 .3-.1.5-.1s.4-.1.5-.1c.2-.1.3-.1.5-.2.1-.1.3-.1.4-.2l.6-.3c.1-.1.2-.1.3-.2l.6-.3c.1-.1.2-.1.3-.2.2-.1.4-.3.6-.4.1 0 .1-.1.2-.1.2-.2.4-.3.6-.5l.1-.1c.1-.1.3-.3.5-.6zm-168.2-107c-1.4 1.4-1.5 3.7-.3 5.2l-3.3 2.3-3.7 2.5c-1.4.9-1.9 2.5-1.7 4-.1.1-.2.1-.3.2l-.6.3-1.2.6c-.2.1-.4.3-.7.4-.3.2-.6.3-.8.5-3.2 2-6.5 4.6-9.7 7.7-3.2 3.2-5.8 6.5-7.7 9.7-.2.3-.3.6-.5.8-.1.2-.3.4-.4.7l-.6 1.2-.3.6c-.1.1-.1.2-.2.3-1.5-.3-3.1.3-4 1.7l-2.5 3.7-2.3 3.3c-1.6-1.2-3.8-1.1-5.2.3L278 219.1c-3.6-2.1-7.4-3.8-11.6-4.8V190c0-.2 0-.5-.1-.7 0-.1 0-.1-.1-.2 0-.2-.1-.3-.1-.5 0-.1-.1-.1-.1-.2-.1-.2-.2-.3-.3-.5 0 0 0-.1-.1-.1-.1-.2-.3-.3-.4-.5l-.2-.2c-.1-.1-.2-.2-.3-.2-.1-.1-.2-.1-.3-.2-.1-.1-.2-.1-.3-.2-.1 0-.2-.1-.3-.1l.4-2 1.2-6.5c.1-.3.1-.5.1-.8v-.2c0-.2 0-.5-.1-.7 0-.1 0-.1-.1-.2-.1-.2-.1-.3-.2-.5 0-.1-.1-.2-.2-.3-.1-.1-.1-.2-.2-.3-.1-.2-.3-.4-.5-.5l-.1-.1c-.1-.1-.2-.2-.4-.3.1-.4.3-.8.4-1.2.3-.9.5-1.8.8-2.7.4-1.8.8-3.7 1-5.8v-.1c.1-1 .2-2 .3-3.1v-.2c.1-1.1.1-2.1.1-3.2s0-2.2-.1-3.2v-.2c-.1-1-.1-2.1-.3-3.1v-.1c-.2-2-.6-4-1-5.8-.2-1-.5-1.9-.8-2.7-.1-.4-.3-.8-.4-1.2.1-.1.3-.2.4-.3l.1-.1c.2-.2.3-.3.4-.5.1-.1.1-.2.2-.3.1-.1.1-.2.2-.3.1-.2.1-.3.2-.5 0-.1 0-.1.1-.2.1-.2.1-.5.1-.7v-.2c0-.3 0-.5-.1-.8l-1.6-8.5c.1 0 .2-.1.3-.1.1-.1.2-.1.3-.2.1-.1.2-.1.3-.2l.3-.3.2-.2c.2-.2.3-.3.4-.5 0 0 0-.1.1-.1.1-.2.2-.3.3-.5 0-.1.1-.1.1-.2.1-.2.1-.3.1-.5 0-.1 0-.1.1-.2 0-.2.1-.5.1-.7v-14.6c31.4 2.3 60.8 14.9 84.2 36.1l-9.3 9.1zm-92.2-27-1.6 8.3c-.3 1.6.4 3.1 1.6 4-.1.4-.3.8-.4 1.2-.3.9-.5 1.8-.8 2.7-.9 3.6-1.4 7.8-1.4 12.3s.5 8.7 1.4 12.3c.2 1 .5 1.9.8 2.7.1.4.3.8.4 1.2-1.2.9-1.9 2.4-1.6 4l1.5 7.9.1.4c-1.9.3-3.5 1.9-3.5 3.9v24.3c-4.1 1-8 2.7-11.6 4.8l-17.2-17.2c-.2-.2-.4-.3-.6-.5-.1 0-.1-.1-.2-.1-.1-.1-.3-.2-.4-.2-.1 0-.1-.1-.2-.1-.2-.1-.3-.1-.5-.2h-.1c-.2 0-.4-.1-.6-.1h-.7c-.1 0-.2 0-.3.1-.1 0-.3.1-.4.1-.1 0-.2.1-.3.1l-4.9-7.2c-.2-.2-.3-.4-.5-.6-.1 0-.1-.1-.2-.1-.2-.2-.4-.3-.6-.4-.1 0-.1-.1-.2-.1-.2-.1-.3-.1-.5-.2-.1 0-.2-.1-.3-.1-.1 0-.2 0-.3-.1-.2 0-.5-.1-.7-.1h-.7c-.1-.1-.1-.2-.2-.4s-.2-.4-.3-.5c0-.1-.1-.1-.1-.2-.2-.3-.3-.6-.5-.9-.1-.2-.3-.4-.4-.7-.1-.2-.2-.4-.4-.6 0-.1-.1-.1-.1-.2-.1-.1-.1-.2-.2-.3-.1-.2-.3-.4-.4-.6-.3-.4-.5-.8-.8-1.2-.1-.2-.2-.3-.4-.5-.3-.5-.7-.9-1-1.4-.1-.2-.3-.3-.4-.5l-1.2-1.5-.2-.2c-.4-.5-.9-1-1.4-1.6l-.4-.4c-.5-.5-1-1.1-1.5-1.6s-1.1-1-1.6-1.5l-.4-.4c-.5-.5-1-.9-1.6-1.4l-.2-.2-1.5-1.2c-.2-.1-.3-.3-.5-.4-.5-.3-.9-.7-1.4-1-.2-.1-.3-.2-.5-.4-.4-.3-.8-.5-1.2-.8-.2-.1-.4-.3-.6-.4-.1-.1-.2-.1-.3-.2-.2-.1-.4-.3-.7-.4-.1 0-.1-.1-.2-.1-.2-.1-.4-.3-.7-.4-.3-.2-.6-.3-.9-.5h-.2c-.1 0-.1-.1-.2-.1-.2-.1-.4-.2-.5-.3-.1-.1-.2-.1-.4-.2v-.7c0-.2 0-.5-.1-.7 0-.1 0-.2-.1-.3 0-.1-.1-.2-.1-.3-.1-.2-.1-.3-.2-.5 0-.1-.1-.1-.1-.2-.1-.2-.3-.4-.4-.6 0-.1-.1-.1-.1-.2-.2-.2-.4-.4-.6-.5l-4.2-2.9-2.9-2c0-.1.1-.2.1-.3 0-.1.1-.3.1-.4 0-.1 0-.2.1-.3v-.7c0-.2 0-.4-.1-.6v-.1c0-.2-.1-.4-.2-.5 0-.1-.1-.1-.1-.2-.1-.2-.1-.3-.2-.4 0-.1-.1-.1-.1-.2-.1-.2-.3-.4-.5-.6l-9.5-9.5c23.4-21.2 52.8-33.8 84.2-36.1V125c.5 2 2 3.7 4 3.9zm-93.1 41.9c1.4 1.4 3.7 1.5 5.2.3l4.8 7c.9 1.4 2.5 1.9 4 1.7.1.1.1.2.2.3l.3.6.6 1.2c.1.2.3.4.4.7.2.3.3.6.5.8 2 3.2 4.6 6.5 7.7 9.7 3.2 3.2 6.5 5.8 9.7 7.7.3.2.6.3.8.5.2.1.5.3.7.4l1.2.6.6.3c.1.1.2.1.3.2-.3 1.5.3 3.1 1.7 4l7 4.8c-1.2 1.6-1.1 3.8.3 5.2l17.2 17.2c-2.1 3.6-3.8 7.4-4.8 11.6H190c-.2 0-.5 0-.7.1-.1 0-.1 0-.2.1-.2 0-.3.1-.5.1-.1 0-.1.1-.2.1-.2.1-.3.2-.5.3 0 0-.1 0-.1.1-.2.1-.3.3-.5.4l-.2.2c-.1.1-.2.2-.2.3-.1.1-.1.2-.2.3-.1.1-.1.2-.2.3 0 .1-.1.2-.1.3l-2-.4-6.5-1.2c-.3-.1-.5-.1-.8-.1h-.2c-.2 0-.5 0-.7.1-.1 0-.1 0-.2.1-.2.1-.3.1-.5.2-.1 0-.2.1-.3.2-.1.1-.2.1-.3.2-.2.1-.4.3-.5.5l-.1.1c-.1.1-.2.2-.3.4-.4-.1-.8-.3-1.2-.4-2.5-.8-5.4-1.4-8.5-1.7h-.1c-1-.1-2-.2-3.1-.3h-.2c-1.1-.1-2.1-.1-3.2-.1s-2.2 0-3.2.1h-.2c-1 .1-2.1.1-3.1.3h-.1c-3.1.4-6 1-8.5 1.7-.4.1-.8.3-1.2.4-.1-.1-.2-.3-.3-.4l-.1-.1-.5-.5c-.1-.1-.2-.1-.3-.2-.1-.1-.2-.1-.3-.2-.2-.1-.3-.1-.5-.2-.1 0-.1 0-.2-.1-.2-.1-.5-.1-.7-.1h-.2c-.3 0-.5 0-.8.1l-8.5 1.6c0-.1-.1-.2-.1-.3-.1-.1-.1-.2-.2-.3-.1-.1-.1-.2-.2-.3-.1-.1-.2-.2-.2-.3l-.2-.2c-.2-.2-.3-.3-.5-.4 0 0-.1 0-.1-.1-.2-.1-.3-.2-.5-.3-.1 0-.1-.1-.2-.1-.2-.1-.3-.1-.5-.1-.1 0-.1 0-.2-.1-.2 0-.5-.1-.7-.1h-9.9c1.2-30.9 12.3-60.1 31.7-83.8l8.7 9zM125 266.5c2 0 3.7-1.5 3.9-3.5l.4.1 7.9 1.5c1.6.3 3.1-.4 4-1.6.4.1.8.3 1.2.4.9.3 1.8.5 2.7.8 3.6.9 7.8 1.4 12.3 1.4s8.7-.5 12.3-1.4c1-.2 1.9-.5 2.7-.8.4-.1.8-.3 1.2-.4.9 1.2 2.4 1.9 4 1.6l8.3-1.6c.3 1.9 1.9 3.5 3.9 3.5h24.3c1 4.1 2.7 8 4.8 11.6l-17.2 17.2c-.2.2-.3.4-.5.6 0 .1-.1.1-.1.2-.1.1-.2.3-.2.4 0 .1-.1.1-.1.2-.1.2-.1.3-.2.5v.1c0 .2-.1.4-.1.6v.7c0 .1 0 .2.1.3 0 .1.1.3.1.4 0 .1.1.2.1.3l-7.2 4.9c-.2.2-.4.3-.6.5 0 .1-.1.1-.1.2-.2.2-.3.4-.4.6 0 .1-.1.1-.1.2-.1.2-.1.3-.2.5 0 .1-.1.2-.1.3 0 .1 0 .2-.1.3 0 .2-.1.5-.1.7v.7c-.1.1-.2.1-.4.2s-.4.2-.5.3c-.1 0-.1.1-.2.1-.3.2-.7.4-1 .5-.2.1-.4.2-.7.4-.3.2-.6.3-.9.5-.1.1-.2.1-.3.2-.2.1-.4.3-.6.4-.4.3-.8.5-1.2.8-.2.1-.3.2-.5.4-.5.3-.9.7-1.4 1-.2.1-.3.3-.5.4l-1.5 1.2-.2.2c-.5.4-1 .9-1.6 1.4l-.4.4c-.5.5-1.1 1-1.6 1.5s-1 1.1-1.5 1.6l-.4.4c-.5.5-.9 1-1.4 1.6 0 .1-.1.1-.1.2l-1.2 1.5c-.1.2-.3.3-.4.5-.3.5-.7.9-1 1.4-.1.2-.2.3-.4.5-.3.4-.6.8-.8 1.2-.1.2-.3.4-.4.6-.1.1-.1.2-.2.3-.1.1-.1.2-.1.2-.1.2-.2.4-.4.6-.1.2-.3.4-.4.7-.1.2-.3.5-.4.7 0 .1-.1.2-.1.2 0 .1-.1.1-.1.2-.1.2-.2.4-.3.5-.1.1-.1.2-.2.4h-.7c-.2 0-.5 0-.7.1-.1 0-.2 0-.3.1-.1 0-.2.1-.3.1-.2.1-.3.1-.5.2-.1 0-.1.1-.2.1-.2.1-.4.3-.6.4-.1 0-.1.1-.2.1-.2.2-.4.4-.5.6l-2.6 3.8-2.3 3.3c-.1 0-.2-.1-.3-.1-.1 0-.3-.1-.4-.1-.1 0-.2 0-.3-.1h-.7c-.2 0-.4 0-.6.1h-.1c-.2 0-.4.1-.5.2-.1 0-.1.1-.2.1-.2.1-.3.1-.4.2-.1 0-.1.1-.2.1-.2.1-.4.3-.6.5l-4.5 4.5c-20.1-22.1-32.4-49.6-35.6-79.2h9.7zm45.8 89.6c1.4-1.4 1.5-3.7.3-5.2l7-4.8c1.4-.9 1.9-2.5 1.7-4 .1-.1.2-.1.3-.2l.6-.3 1.2-.6c.2-.1.4-.3.7-.4.3-.2.6-.3.8-.5 3.2-2 6.5-4.6 9.7-7.7 3.2-3.2 5.8-6.5 7.7-9.7.2-.3.3-.6.5-.8.1-.2.3-.5.4-.7l.6-1.2.3-.6c.1-.1.1-.2.2-.3 1.5.3 3.1-.3 4-1.7l2.5-3.7 2.3-3.3c1.6 1.2 3.8 1.1 5.2-.3l17.2-17.2c3.6 2.1 7.4 3.8 11.6 4.8V322c0 .2 0 .5.1.7 0 .1 0 .1.1.2 0 .2.1.3.1.5 0 .1.1.1.1.2.1.2.2.3.3.5 0 0 0 .1.1.1.1.2.3.3.4.5l.2.2.3.3c.1.1.2.1.3.2.1.1.2.1.3.2.1 0 .2.1.3.1l-1.6 8.5c-.1.3-.1.5-.1.8v.2c0 .2 0 .5.1.7 0 .1 0 .1.1.2.1.2.1.3.2.5 0 .1.1.2.2.3.1.1.1.2.2.3.1.2.3.4.5.5l.1.1c.1.1.2.2.4.3-.1.4-.3.8-.4 1.2-.3.9-.5 1.8-.8 2.7-.4 1.8-.8 3.7-1 5.8v.1c-.1 1-.2 2-.3 3.1v.2c-.1 1.1-.1 2.1-.1 3.2s0 2.2.1 3.2v.2c.1 1 .1 2.1.3 3.1v.1c.2 2 .6 4 1 5.8.2 1 .5 1.9.8 2.7.1.4.3.8.4 1.2-.1.1-.3.2-.4.3l-.1.1-.5.5c-.1.1-.1.2-.2.3-.1.1-.1.2-.2.3-.1.2-.1.3-.2.5 0 .1 0 .1-.1.2-.1.2-.1.5-.1.7v.2c0 .3 0 .5.1.8l1.6 8.5c-.1 0-.2.1-.3.1-.1.1-.2.1-.3.2-.1.1-.2.1-.3.2-.1.1-.2.2-.3.2l-.2.2c-.2.2-.3.3-.4.5 0 0 0 .1-.1.1-.1.2-.2.3-.3.5 0 .1-.1.1-.1.2-.1.2-.1.3-.1.5 0 .1 0 .1-.1.2 0 .2-.1.5-.1.7v4.6c-29-2.1-56.3-13-78.8-31.5l4-3.7zm92.2 27 .1-.4 1.5-7.9c.3-1.6-.4-3.1-1.6-4 .1-.4.3-.8.4-1.2.3-.9.5-1.8.8-2.7.9-3.6 1.4-7.8 1.4-12.3s-.5-8.7-1.4-12.3c-.2-1-.5-1.9-.8-2.7-.1-.4-.3-.8-.4-1.2 1.2-.9 1.9-2.4 1.6-4l-1.6-8.3c1.9-.3 3.5-1.9 3.5-3.9v-24.3c4.1-1 8-2.7 11.6-4.8l17.2 17.2c.2.2.4.3.6.5.1 0 .1.1.2.1.1.1.3.2.4.2.1 0 .1.1.2.1.2.1.3.1.5.2h.1c.2 0 .4.1.6.1h.7c.1 0 .2 0 .3-.1.1 0 .3-.1.4-.1.1 0 .2-.1.3-.1l.6.9 4.3 6.3c.2.2.3.4.5.6.1 0 .1.1.2.1.2.2.4.3.6.4.1 0 .1.1.2.1.2.1.3.1.5.2.1 0 .2.1.3.1.1 0 .2 0 .3.1.2 0 .5.1.7.1h.7c.1.1.1.2.2.4s.2.4.3.5c0 .1.1.1.1.2 0 0 0 .1.1.1.1.3.3.6.5.8.1.2.3.4.4.7.2.3.3.6.5.9.1.1.1.2.2.3.1.2.3.4.4.6.3.4.5.8.8 1.2.1.2.2.3.4.5.3.4.7.9 1 1.4.1.2.3.3.4.5l1.2 1.5.2.2c.4.5.9 1 1.4 1.6l.4.4c.5.5 1 1.1 1.5 1.6s1.1 1 1.6 1.5l.4.4c.5.5 1 .9 1.6 1.4.1 0 .1.1.2.1l1.5 1.2c.2.1.3.3.5.4.5.3.9.7 1.4 1 .2.1.3.2.5.4.4.3.8.5 1.2.8.2.1.4.3.6.4.1.1.2.1.3.2.1.1.3.2.4.2.1.1.3.2.4.3.2.1.4.3.7.4.3.2.6.3.9.5h.2c.1 0 .1.1.2.1.2.1.4.2.5.3.1.1.2.1.4.2v.7c0 .2 0 .5.1.7 0 .1 0 .2.1.3 0 .1.1.2.1.3.1.2.1.3.2.5 0 .1.1.1.1.2.1.2.3.4.4.6 0 .1.1.1.1.2.2.2.4.4.6.5l6.3 4.3.9.6c0 .1-.1.2-.1.3 0 .1-.1.3-.1.4 0 .1 0 .2-.1.3v.7c0 .2 0 .4.1.6v.1c0 .2.1.4.2.5 0 .1.1.1.1.2.1.2.1.3.2.4 0 .1.1.1.1.2.1.2.3.4.5.6l4.1 4.1c-22.4 18.4-49.7 29.4-78.8 31.5V387c-.6-2-2.1-3.7-4.1-3.9zm93.1-41.9c-1.4-1.4-3.7-1.5-5.2-.3l-4.8-7c-.9-1.4-2.5-1.9-4-1.7-.1-.1-.1-.2-.2-.3l-.3-.6-.6-1.2c-.1-.2-.3-.4-.4-.7-.2-.3-.3-.6-.5-.8-2-3.2-4.6-6.5-7.7-9.7-3.2-3.2-6.5-5.8-9.7-7.7-.3-.2-.6-.3-.8-.5-.2-.1-.5-.3-.7-.4l-1.2-.6-.6-.3c-.1-.1-.2-.1-.3-.2.3-1.5-.3-3.1-1.7-4l-3.7-2.5-3.3-2.3c1.2-1.6 1.1-3.8-.3-5.2L292.9 278c2.1-3.6 3.8-7.4 4.8-11.6H322c.2 0 .5 0 .7-.1.1 0 .1 0 .2-.1.2 0 .3-.1.5-.1.1 0 .1-.1.2-.1.2-.1.3-.2.5-.3 0 0 .1 0 .1-.1.2-.1.3-.3.5-.4l.2-.2c.1-.1.2-.2.2-.3.1-.1.1-.2.2-.3.1-.1.1-.2.2-.3 0-.1.1-.2.1-.3l8.5 1.6c.3.1.5.1.8.1h.2c.2 0 .5 0 .7-.1.1 0 .1 0 .2-.1.2-.1.3-.1.5-.2.1 0 .2-.1.3-.2.1-.1.2-.1.3-.2.2-.1.4-.3.5-.5l.1-.1c.1-.1.2-.2.3-.4.4.1.8.3 1.2.4.9.3 1.8.5 2.7.8 1.8.4 3.7.8 5.8 1h.1c1 .1 2 .2 3.1.3h.2c1.1.1 2.1.1 3.2.1s2.2 0 3.2-.1h.2c1-.1 2.1-.1 3.1-.3h.1c2-.2 4-.6 5.8-1 1-.2 1.9-.5 2.7-.8.4-.1.8-.3 1.2-.4.1.1.2.3.3.4l.1.1.5.5c.1.1.2.1.3.2.1.1.2.1.3.2.2.1.3.1.5.2.1 0 .1 0 .2.1.2.1.5.1.7.1h.2c.3 0 .5 0 .8-.1l8.5-1.6c0 .1.1.2.1.3.1.1.1.2.2.3.1.1.1.2.2.3.1.1.2.2.2.3l.2.2c.2.2.3.3.5.4 0 0 .1 0 .1.1.2.1.3.2.5.3.1 0 .1.1.2.1.2.1.3.1.5.1.1 0 .1 0 .2.1.2 0 .5.1.7.1h9.2c-3.2 29.5-15.5 57-35.6 79.2l-4.1-4.4zm30.9-95.7c-2 0-3.7 1.5-3.9 3.5l-8.3-1.6c-1.6-.3-3.1.4-4 1.6-.4-.1-.8-.3-1.2-.4-.9-.3-1.8-.5-2.7-.8-3.6-.9-7.8-1.4-12.3-1.4s-8.7.5-12.3 1.4c-1 .2-1.9.5-2.7.8-.4.1-.8.3-1.2.4-.9-1.2-2.4-1.9-4-1.6l-8.3 1.6c-.3-1.9-1.9-3.5-3.9-3.5h-24.3c-1-4.1-2.7-8-4.8-11.6l17.2-17.2c.2-.2.3-.4.5-.6 0-.1.1-.1.1-.2.1-.1.2-.3.2-.4 0-.1.1-.1.1-.2.1-.2.1-.3.2-.5v-.1c0-.2.1-.4.1-.6v-.7c0-.1 0-.2-.1-.3 0-.1-.1-.3-.1-.4 0-.1-.1-.2-.1-.3l3.3-2.3 3.8-2.6c.2-.2.4-.3.6-.5 0-.1.1-.1.1-.2.2-.2.3-.4.4-.6 0-.1.1-.1.1-.2.1-.2.1-.3.2-.5 0-.1.1-.2.1-.3 0-.1 0-.2.1-.3 0-.2.1-.5.1-.7v-.7c.1-.1.2-.1.4-.2s.4-.2.5-.3c.1 0 .1-.1.2-.1 0 0 .1 0 .1-.1.3-.1.6-.3.8-.5.2-.1.4-.3.7-.4.3-.2.6-.3.9-.5.1-.1.2-.1.3-.2.2-.1.4-.3.6-.4.4-.3.8-.5 1.2-.8.2-.1.3-.2.5-.4.5-.3.9-.7 1.4-1 .2-.1.3-.3.5-.4l1.5-1.2c.1 0 .1-.1.2-.1.5-.4 1-.9 1.6-1.4l.4-.4c.5-.5 1.1-1 1.6-1.5s1-1.1 1.5-1.6l.4-.4c.5-.5.9-1 1.4-1.6 0-.1.1-.1.1-.2l1.2-1.5c.1-.2.3-.3.4-.5.3-.5.7-.9 1-1.4.1-.2.2-.3.4-.5.3-.4.5-.8.8-1.2.1-.2.3-.4.4-.6.1-.1.1-.2.2-.3.2-.3.3-.6.5-.9.1-.2.3-.4.4-.7.1-.3.3-.5.4-.8 0 0 .1-.1.1-.2s.1-.1.1-.2c.1-.2.2-.4.3-.5.1-.1.1-.2.2-.4h.7c.2 0 .5 0 .7-.1.1 0 .2 0 .3-.1.1 0 .2-.1.3-.1.2-.1.3-.1.5-.2.1 0 .1-.1.2-.1.2-.1.4-.3.6-.4.1 0 .1-.1.2-.1.2-.2.4-.4.5-.6l2.6-3.8 2.3-3.3c.1 0 .2.1.3.1.1 0 .3.1.4.1.1 0 .2 0 .3.1h.7c.2 0 .4 0 .6-.1h.1c.2 0 .4-.1.5-.2.1 0 .1-.1.2-.1.2-.1.3-.1.4-.2.1 0 .1-.1.2-.1.2-.1.4-.3.6-.5l9.1-9.1c19.5 23.7 30.6 52.9 31.7 83.8H387z" style="fill:#36434f"/></svg>