<svg xmlns="http://www.w3.org/2000/svg" viewBox="0 0 512 512" xml:space="preserve"><path d="M367 323h-2V96c0-53-43-96-96-96h-22c-53 0-96 43-96 96v227h-2c-8.8 0-16 7.2-16 16v25c0 8.8 7.2 16 16 16h36.3l6.3 3.8c.3.2.6.3.9.5V512h20V384.3c.3-.2.6-.3.9-.5l6.3-3.8h72.6l6.3 3.8c.3.2.6.3.9.5V512h20V384.3c.3-.2.6-.3.9-.5l6.3-3.8H367c8.8 0 16-7.2 16-16v-25c0-8.8-7.2-16-16-16zm0 41h-44.7l-2.8 1.7V330h.5c3 0 5.4-2.4 5.4-5.4V210.4c0-3-2.4-5.4-5.4-5.4h-56.9c-5.5 0-7.5 7.3-2.8 10.1l3.4 2c2.6 1.5 3.4 4.8 1.9 7.4l-8.5 14.5c-.5.8-.7 1.8-.7 2.8v55c0 1.4.6 2.8 1.6 3.8l27.8 27.8c1 1 2.4 1.6 3.8 1.6h9.9v35.7l-2.8-1.7h-81.4l-2.8 1.7V330h1.5c3 0 5.4-2.4 5.4-5.4v-84.1c0-3 2.4-5.4 5.4-5.4h5c1.5 0 3-.6 4-1.8l6.6-7.2c2.3-2.5 1.7-6.6-1.3-8.3l-20.3-12c-.8-.5-1.8-.8-2.8-.8h-24c-3 0-5.4 2.4-5.4 5.4v114.2c0 3 2.4 5.4 5.4 5.4h.5v35.7l-2.8-1.7H149v-25h18V96c0-44.1 35.9-80 80-80h22c44.1 0 80 35.9 80 80v243h18v25z" fill="#36434f"/></svg>