<svg version="1.1" xmlns="http://www.w3.org/2000/svg" x="0" y="0" viewBox="0 0 512 512" xml:space="preserve"><path d="M410.8 492.3c.1-.5.1-1 .2-1.5 0-.4.1-.8.2-1.2.1-.4.1-.8.2-1.2.1-.5.1-1.1.2-1.6 0-.3.1-.5.1-.8 1.6-11.8 3.8-27.3 5.2-46.4.9-13.7 1.4-29.3.8-46.7 0-.5 0-1-.1-1.5 0-.8-.1-1.7-.1-2.5s-.1-1.6-.1-2.4c0-.7-.1-1.5-.1-2.2-.1-1-.1-2-.2-3 0-.6-.1-1.2-.1-1.8-.1-1.6-.2-3.3-.4-5-4.5-58.6-66.5-142-73.3-180.5-4.4-22.5 1.4-48.6 4.2-59.3.8-3-.5-6.1-3.2-7.6l-21.6-12.4-13.5-7.7c-3.1-1.8-6.9-.9-8.9 2l-13.2 19-4.3-47.8v-.1l1.2-14.4 1.1-12.7 1.4-17.3.5-6.1c0-12.1-5.8-22.9-14.7-29.6l-8.8 45.9-1.2 6.3h3.4V59h-19.1v-6.8h3.4l-1.2-6.3L239.7 0c-9 6.8-14.7 17.5-14.7 29.6l.5 6.1 1.4 17.3 2.3 27.2-4.3 47.8-13.2-19c-2-2.9-5.9-3.8-8.9-2l-13.5 7.7-21.6 12.4c-2.7 1.5-3.9 4.6-3.2 7.6 2.8 10.7 8.6 36.8 4.2 59.3-6.7 38.5-68.7 121.9-73.2 180.5-.1 1.7-.2 3.3-.4 5 0 .6-.1 1.2-.1 1.8-.1 1-.1 2-.2 3 0 .7-.1 1.5-.1 2.2 0 .8-.1 1.6-.1 2.4 0 .8-.1 1.7-.1 2.5 0 .5 0 1-.1 1.5-.6 17.4-.2 33 .8 46.7 1.3 19.1 3.6 34.6 5.2 46.4 0 .2.1.5.1.7.1.5.1 1.1.2 1.6.1.4.1.8.2 1.2.1.4.1.8.2 1.2.1.5.1 1 .2 1.5 0 .3.1.6.1.9.1.8.2 1.5.2 2.2v.1c.4 3.9 2.5 7.5 5.8 9.7l6.5 4.5c.2.2.5.3.8.5.5.3 1 .6 1.6.8s1.1.4 1.7.6c.8.2 1.7.4 2.6.5h.9c.6 0 1.2 0 1.8-.1 1.5-.2 2.9-.6 4.3-1.2l15.1-7.3c1.2-.6 2.2-1.3 3.2-2.1 1.3-1.2 2.5-2.7 3.2-4.3.4-.9.8-1.9 1-2.9l2.5-11.7c.1-.5.2-1 .2-1.4v-1.4c0-.4 0-.9-.1-1.3-.1-.7-.2-1.4-.4-2-3.4-12.9-15.6-67.2-4.8-114.2 5.9-25.6 30.6-71.7 51.8-115 2.2-4.4 4.3-8.9 6.5-13.2l25.8-26.6c1.4-1.5 1.2-3.9-.4-5.1l-3.9-2.8 28.9-19.8 28.9 19.8-4.1 2.6c-1.7 1.2-1.9 3.6-.4 5.1l25.8 26.6c2.1 4.3 4.3 8.8 6.5 13.2 21.3 43.2 46 89.4 51.8 115 10.8 47-1.4 101.3-4.8 114.2-.2.7-.3 1.3-.4 2 0 .4-.1.9-.1 1.3v1.4c0 .5.1 1 .2 1.4l2.5 11.7c.2 1 .5 2 1 2.9.8 1.6 1.9 3.1 3.2 4.3.9.8 2 1.6 3.2 2.1l15.1 7.3c1.4.7 2.8 1.1 4.3 1.2.6.1 1.2.1 1.8.1h.9c2-.2 4-.8 5.9-1.9.3-.2.5-.3.8-.5l6.5-4.5c3.3-2.2 5.4-5.8 5.8-9.7v-.1c.1-.7.2-1.5.2-2.2-.1 0-.1-.3 0-.6zM261.9 172.6c-.7-1-2.1-1.3-3.1-.6l-2.8 1.9-2.8-1.9c-1-.7-2.4-.4-3.1.6-.7 1-.4 2.4.6 3.1l1.3.9-28.3 19.4c8.5-17.9 14.9-31.8 17.8-38 1-2.2.8-4.7-.6-6.7l-2-2.9 4.1-19.6h26l4.1 19.6-2 2.9c-1.4 2-1.6 4.5-.6 6.7 2.8 6.2 9.3 20.1 17.8 38L260 176.7l1.3-.9c1-.7 1.3-2.1.6-3.2z" fill="#36434f"/></svg>