<svg version="1.1" xmlns="http://www.w3.org/2000/svg" x="0" y="0" viewBox="0 0 512 512" xml:space="preserve"><path d="M0 0v512h512V0H0zm496 496H16V16h480v480zM158.4 353.6c3.3 3.2 8.5 3.2 11.7 0l27.2-27.2c15 12.5 34 20.3 54.7 21.2 1.3.1 2.7.1 4 .1 22.3 0 42.8-8 58.7-21.3l27.2 27.2c3.3 3.2 8.5 3.2 11.7 0 3.2-3.3 3.2-8.5 0-11.7l-27.2-27.2c13.3-15.9 21.3-36.4 21.3-58.7 0-22.3-8-42.8-21.3-58.7l27.2-27.2c3.2-3.3 3.2-8.5 0-11.7-3.2-3.2-8.4-3.2-11.7 0l-27.2 27.2c-15-12.5-33.9-20.3-54.7-21.2-1.3-.1-2.7-.1-4-.1-22.3 0-42.8 8-58.7 21.3l-27.2-27.2c-3.3-3.2-8.5-3.2-11.7 0-3.2 3.3-3.2 8.5 0 11.7l27.2 27.2c-13.3 15.9-21.3 36.4-21.3 58.7 0 22.3 8 42.8 21.3 58.7l-27.2 27.2c-3.2 3.3-3.2 8.5 0 11.7zM260 331.1c-.5 0-1 0-1.4.1-.8 0-1.7.1-2.6.1-.9 0-1.7 0-2.6-.1-.5 0-1 0-1.4-.1-16.2-.9-31.1-6.9-43-16.4l43-43 4-4 4 4 43 43c-11.9 9.5-26.8 15.5-43 16.4zm71.2-75.1c0 17.8-6.2 34.1-16.5 47l-47-47 47-47c10.3 12.9 16.5 29.2 16.5 47zM252 180.9c.5 0 1 0 1.4-.1.8 0 1.7-.1 2.6-.1.9 0 1.7 0 2.6.1.5 0 1 0 1.4.1 16.2.9 31.1 6.9 43 16.4l-43 43-4 4-4-4-43-43c11.9-9.5 26.8-15.5 43-16.4zM180.8 256c0-17.8 6.2-34.1 16.5-47l47 47-47 47c-10.3-12.9-16.5-29.2-16.5-47zm241.2 6c-2.2 0-4-1.8-4-4s1.8-4 4-4h52c2.2 0 4 1.8 4 4s-1.8 4-4 4h-52zm-384 0c-2.2 0-4-1.8-4-4s1.8-4 4-4h52c2.2 0 4 1.8 4 4s-1.8 4-4 4H38zm432 129.1h-44c-2.2 0-4 1.8-4 4v12h-57.4c-.3-2-1.9-3.5-3.9-3.5h-41.5c-2 0-3.7 1.5-3.9 3.5h-29.7L260 363.7v-8.1c-1.3.1-2.7.1-4 .1s-2.7 0-4-.1v8.3l-25.3 42.9h-30c-.3-2-1.9-3.5-3.9-3.5h-41.5c-2 0-3.7 1.5-3.9 3.5H90v-12c0-2.2-1.8-4-4-4H42c-2.2 0-4 1.8-4 4v32c0 2.3 1.8 4 4 4h44c2.2 0 4-1.8 4-4v-12h57.3v.5c0 2.3 1.8 4 4 4h41.5c2.2 0 4-1.8 4-4v-.5h30l25.9 43.9c.7 1.3 2 2 3.4 2s2.7-.7 3.4-2l25.7-43.6h30.1v.5c0 2.2 1.8 4 4 4h41.5c2.2 0 4-1.8 4-4v-.5H422v12c0 2.2 1.8 4 4 4h44c2.2 0 4-1.8 4-4v-32c0-2.2-1.7-4-4-4zM44.5 427.2c-1.9 0-3.5-1.6-3.5-3.6s1.6-3.6 3.5-3.6 3.5 1.6 3.5 3.6-1.6 3.6-3.5 3.6zm0-25.7c-1.9 0-3.5-1.6-3.5-3.6s1.6-3.6 3.5-3.6 3.5 1.6 3.5 3.6-1.6 3.6-3.5 3.6zm39 25.7c-1.9 0-3.5-1.6-3.5-3.6s1.6-3.6 3.5-3.6 3.5 1.6 3.5 3.6-1.6 3.6-3.5 3.6zm0-25.7c-1.9 0-3.5-1.6-3.5-3.6s1.6-3.6 3.5-3.6 3.5 1.6 3.5 3.6-1.6 3.6-3.5 3.6zM256 364.1c1.9 0 3.5 1.6 3.5 3.6s-1.6 3.6-3.5 3.6-3.5-1.6-3.5-3.6 1.6-3.6 3.5-3.6zm-26.5 50.2c-1.9 0-3.5-1.6-3.5-3.6s1.6-3.6 3.5-3.6 3.5 1.6 3.5 3.6-1.6 3.6-3.5 3.6zm26.5 43c-1.9 0-3.5-1.6-3.5-3.6s1.6-3.6 3.5-3.6 3.5 1.6 3.5 3.6-1.6 3.6-3.5 3.6zm0-8.5-22.4-38 22.4-38 22.4 38-22.4 38zm26.5-34.5c-1.9 0-3.5-1.6-3.5-3.6s1.6-3.6 3.5-3.6 3.5 1.6 3.5 3.6-1.6 3.6-3.5 3.6zm146 13.1c-1.9 0-3.5-1.6-3.5-3.6s1.6-3.6 3.5-3.6 3.5 1.6 3.5 3.6-1.5 3.6-3.5 3.6zm0-25.6c-1.9 0-3.5-1.6-3.5-3.6s1.6-3.6 3.5-3.6 3.5 1.6 3.5 3.6-1.5 3.6-3.5 3.6zm39 25.6c-1.9 0-3.5-1.6-3.5-3.6s1.6-3.6 3.5-3.6 3.5 1.6 3.5 3.6-1.5 3.6-3.5 3.6zm0-25.6c-1.9 0-3.5-1.6-3.5-3.6s1.6-3.6 3.5-3.6 3.5 1.6 3.5 3.6-1.5 3.6-3.5 3.6zM256 233l-4-4v-40.1c1.3-.1 2.7-.1 4-.1s2.7 0 4 .1V229l-4 4zm0 46 4 4v40.1c-1.3.1-2.7.1-4 .1s-2.7 0-4-.1V283l4-4zM42 121.4h44c2.2 0 4-1.8 4-4v-12h57.4c.3 2 1.9 3.5 3.9 3.5h41.5c2 0 3.7-1.5 3.9-3.5h30.1l25.2 42.7v8.3c1.3-.1 2.7-.1 4-.1s2.7 0 4 .1v-8.1l25.5-43.2h29.8c.3 2 1.9 3.5 3.9 3.5h41.5c2 0 3.7-1.5 3.9-3.5H422v12c0 2.2 1.8 4 4 4h44c2.2 0 4-1.8 4-4v-32c0-2.2-1.8-4-4-4h-44c-2.2 0-4 1.8-4 4v12h-57.3v-.5c0-2.2-1.8-4-4-4h-41.5c-2.2 0-4 1.8-4 4v.5h-29.9l-25.9-43.8c-.7-1.3-2-2-3.4-2s-2.7.8-3.4 2l-26 44.1h-29.9v-.5c0-2.2-1.8-4-4-4h-41.5c-2.2 0-4 1.7-4 4v.5H90v-12c0-2.2-1.8-4-4-4H42c-2.2 0-4 1.7-4 4v32c0 2.2 1.8 4 4 4zm425.5-36.8c1.9 0 3.5 1.6 3.5 3.6s-1.6 3.6-3.5 3.6-3.5-1.6-3.5-3.6 1.6-3.6 3.5-3.6zm0 25.6c1.9 0 3.5 1.6 3.5 3.6s-1.6 3.6-3.5 3.6-3.5-1.6-3.5-3.6 1.6-3.6 3.5-3.6zm-39-25.6c1.9 0 3.5 1.6 3.5 3.6s-1.6 3.6-3.5 3.6-3.5-1.6-3.5-3.6 1.6-3.6 3.5-3.6zm0 25.6c1.9 0 3.5 1.6 3.5 3.6s-1.6 3.6-3.5 3.6-3.5-1.6-3.5-3.6 1.6-3.6 3.5-3.6zM256 147.9c-1.9 0-3.5-1.6-3.5-3.6s1.6-3.6 3.5-3.6 3.5 1.6 3.5 3.6-1.6 3.6-3.5 3.6zm26.5-50.2c1.9 0 3.5 1.6 3.5 3.6s-1.6 3.6-3.5 3.6-3.5-1.6-3.5-3.6 1.6-3.6 3.5-3.6zm-26.5-43c1.9 0 3.5 1.6 3.5 3.6s-1.6 3.6-3.5 3.6-3.5-1.6-3.5-3.6 1.6-3.6 3.5-3.6zm0 8.7 22.4 38-22.4 38-22.4-38 22.4-38zm-26.5 34.3c1.9 0 3.5 1.6 3.5 3.6s-1.6 3.6-3.5 3.6-3.5-1.6-3.5-3.6 1.6-3.6 3.5-3.6zm-146-12.9c1.9 0 3.5 1.6 3.5 3.6S85.4 92 83.5 92 80 90.4 80 88.4s1.5-3.6 3.5-3.6zm0 25.7c1.9 0 3.5 1.6 3.5 3.6s-1.6 3.6-3.5 3.6-3.5-1.6-3.5-3.6 1.5-3.6 3.5-3.6zm-39-25.7c1.9 0 3.5 1.6 3.5 3.6S46.4 92 44.5 92 41 90.4 41 88.4s1.5-3.6 3.5-3.6zm0 25.7c1.9 0 3.5 1.6 3.5 3.6s-1.6 3.6-3.5 3.6-3.5-1.6-3.5-3.6 1.5-3.6 3.5-3.6zM30.5 34c0-2 1.6-3.6 3.5-3.6s3.5 1.6 3.5 3.6-1.6 3.6-3.5 3.6-3.5-1.6-3.5-3.6zm0 444c0-2 1.6-3.6 3.5-3.6s3.5 1.6 3.5 3.6-1.6 3.6-3.5 3.6-3.5-1.6-3.5-3.6zm451 0c0 2-1.6 3.6-3.5 3.6s-3.5-1.6-3.5-3.6 1.6-3.6 3.5-3.6 3.5 1.6 3.5 3.6zm-7-444c0-2 1.6-3.6 3.5-3.6s3.5 1.6 3.5 3.6-1.6 3.6-3.5 3.6-3.5-1.6-3.5-3.6z" fill="#36434f"/></svg>