<svg version="1.1" xmlns="http://www.w3.org/2000/svg" x="0" y="0" viewBox="0 0 512 512" xml:space="preserve"><path d="M311.3 8.8c-9.5-3.1-19.4-5.5-29.6-6.9L256 0l-25.7 1.9c-10.2 1.5-20.1 3.8-29.6 6.9-8.2 2.7-13.7 10.4-13.7 19V73c0 11 9 20 20 20 19.3 0 35 15.7 35 35v221.5h-20v10h-16.7v10H197v10h25v20h-16.7v10H197v10h8.3v10H197v10h25v20h-16.7v10h8.3v10h28.3V504c0 4.4 3.6 8 8 8h12c4.4 0 8-3.6 8-8v-24.5h20v-10h8.3v-10H315v-10h-8.3v-10h-8.3v-20H290v-10h8.3v-10H315v-10h-16.7v-10h8.3v-10H290v-10h16.7v-10H270V128c0-19.3 15.7-35 35-35 11 0 20-9 20-20V27.8c0-8.6-5.5-16.3-13.7-19zM223 30c0-6.6 5.4-12 12-12h42c6.6 0 12 5.4 12 12v3c0 6.6-5.4 12-12 12h-42c-6.6 0-12-5.4-12-12v-3z" fill="#36434f"/></svg>