<svg version="1.1" xmlns="http://www.w3.org/2000/svg" x="0" y="0" viewBox="0 0 512 512" xml:space="preserve"><path d="M294.4 407.5c-3.2-3.1-5.9-6.6-7.8-10.7l-5.1-9c-3.6-6.3-5.5-13.4-5.5-20.7V128.3c0-6.2 1.4-12.3 4-17.9l9.4-19.9c.8-1.8 1.8-3.5 3-5.1 7.3-10 11.6-22.6 11.6-36.4 0-26.2-13.4-41.8-35-49l6.2 26.8c3.5 13.5 1.8 24.2-18.9 30.5-2.1.6-4.2.6-6.3.8-16 1-22.3-7.6-25.2-19.1L218 11c-10.6 10.6-19 21-19 38 0 17.6 7.1 33.4 18.3 44 2.9 2.7 5.3 5.9 7 9.5l2.7 5.8c2.6 5.6 4 11.7 4 17.9v240.6c0 6.8-1.7 13.6-4.9 19.6l-12.7 24c-.9 2-2.1 3.9-3.4 5.7-8.2 11.2-13.1 25.4-13.1 40.9 0 29.5 15 47 39.3 55.1l-7-30.1c-3.9-15.1-2-27.3 21.3-34.3 2.3-.7 4.8-.7 7.1-.9 18-1.1 25 8.6 28.3 21.4l7.6 31.4c11.9-11.9 21.4-23.5 21.4-42.7.1-19.7-7.9-37.5-20.5-49.4z" fill="#36434f"/></svg>