<svg version="1.1" xmlns="http://www.w3.org/2000/svg" x="0" y="0" viewBox="0 0 512 512" xml:space="preserve"><path d="M222 191.5c0 16.8-13.7 30.5-30.5 30.5S161 208.3 161 191.5s13.7-30.5 30.5-30.5 30.5 13.7 30.5 30.5zM191.5 32C174.7 32 161 45.7 161 62.5S174.7 93 191.5 93 222 79.3 222 62.5 208.3 32 191.5 32zm129 258c-16.8 0-30.5 13.7-30.5 30.5s13.7 30.5 30.5 30.5 30.5-13.7 30.5-30.5-13.7-30.5-30.5-30.5zm0 129c-16.8 0-30.5 13.7-30.5 30.5s13.7 30.5 30.5 30.5 30.5-13.7 30.5-30.5-13.7-30.5-30.5-30.5zm-129 0c-16.8 0-30.5 13.7-30.5 30.5s13.7 30.5 30.5 30.5 30.5-13.7 30.5-30.5-13.7-30.5-30.5-30.5zm0-129c-16.8 0-30.5 13.7-30.5 30.5s13.7 30.5 30.5 30.5 30.5-13.7 30.5-30.5-13.7-30.5-30.5-30.5zM383 0v512H129V0h254zM230 449.5c0-21.3-17.2-38.5-38.5-38.5S153 428.2 153 449.5s17.2 38.5 38.5 38.5 38.5-17.2 38.5-38.5zm0-129c0-21.3-17.2-38.5-38.5-38.5S153 299.2 153 320.5s17.2 38.5 38.5 38.5 38.5-17.2 38.5-38.5zm0-129c0-21.3-17.2-38.5-38.5-38.5S153 170.2 153 191.5s17.2 38.5 38.5 38.5 38.5-17.2 38.5-38.5zm0-129c0-21.3-17.2-38.5-38.5-38.5S153 41.2 153 62.5s17.2 38.5 38.5 38.5S230 83.8 230 62.5zm129 387c0-21.3-17.2-38.5-38.5-38.5S282 428.2 282 449.5s17.2 38.5 38.5 38.5 38.5-17.2 38.5-38.5zm0-129c0-21.3-17.2-38.5-38.5-38.5S282 299.2 282 320.5s17.2 38.5 38.5 38.5 38.5-17.2 38.5-38.5zm0-129c0-21.3-17.2-38.5-38.5-38.5S282 170.2 282 191.5s17.2 38.5 38.5 38.5 38.5-17.2 38.5-38.5zm0-129c0-21.3-17.2-38.5-38.5-38.5S282 41.2 282 62.5s17.2 38.5 38.5 38.5S359 83.8 359 62.5zM320.5 32C303.7 32 290 45.7 290 62.5S303.7 93 320.5 93 351 79.3 351 62.5 337.3 32 320.5 32zm0 129c-16.8 0-30.5 13.7-30.5 30.5s13.7 30.5 30.5 30.5 30.5-13.7 30.5-30.5-13.7-30.5-30.5-30.5z" fill="#36434f"/></svg>