<svg version="1.1" xmlns="http://www.w3.org/2000/svg" x="0" y="0" viewBox="0 0 512 512" xml:space="preserve"><path d="M342.2 32.4c-5-8.2-12.5-14.6-21.2-18.6C301.1 4.9 279.1 0 256 0s-45.1 4.9-65 13.8a47.28 47.28 0 0 0-21.2 18.6c-14.2 23.2-22.3 50.4-22.3 79.6 0 45.3 19.7 86 51 114H215v71c0 2.2 1.8 4 4 4h3c2.2 0 4 1.8 4 4v193c0 2.2 1.8 4 4 4h22c2.2 0 4 1.8 4 4v2c0 2.2 1.8 4 4 4h22c2.2 0 4-1.8 4-4V305c0-2.2 1.8-4 4-4h3c2.2 0 4-1.8 4-4v-71h16.5c31.3-28 51-68.7 51-114 0-29.2-8.2-56.4-22.3-79.6zM201 52.3c0-6.1 3.4-11.6 8.8-14.3 13.9-7 29.6-11 46.2-11s32.3 3.9 46.2 11c5.4 2.7 8.8 8.3 8.8 14.3V54c0 8.8-7.2 16-16 16h-78c-8.8 0-16-7.2-16-16v-1.7z" fill="#36434f"/></svg>