<svg version="1.1" xmlns="http://www.w3.org/2000/svg" x="0" y="0" viewBox="0 0 512 512" style="enable-background:new 0 0 512 512" xml:space="preserve"><path d="M437.4 11.6C431.6 2 424.8 0 420 0c-19 0-26.1 14.4-30.8 24-1.8 3.7-3.5 7.2-5.3 9-1.2 1.2-4.1 2.6-8.3 4 .4-8.8.8-17.8 1.1-26.9H135.3c.3 9.1.6 18.1 1.1 26.9-4.1-1.4-7.1-2.8-8.3-4-1.8-1.8-3.5-5.3-5.3-9C118.1 14.4 111 0 92 0c-4.8 0-11.6 2-17.4 11.6-7.9 13.1-12 37.2-10.9 64.4 1.3 31.2 9.2 62.3 22.5 87.6 32.2 61.5 92.2 87 105.2 92 10 11.7 21.5 20.2 34.9 25.2 9.4 19 14.8 40.5 14.8 63.2 0 29.9-9.2 57.7-25 80.6-13 10.7-21.7 26.5-22.9 44.4h-.2v27h-8.2c-5.5 0-10.5 2.8-13.5 7.4l-5.5 8.6h180.4l-5.5-8.6c-2.9-4.6-8-7.4-13.5-7.4H319v-27h-.1c-1.2-17.9-9.8-33.7-22.9-44.4-15.8-22.9-25-50.7-25-80.6 0-22.7 5.3-44.1 14.8-63.2 13.3-5 24.9-13.6 34.9-25.2 13-4.9 73-30.4 105.2-92 13.2-25.3 21.2-56.4 22.5-87.6 1-27.2-3-51.3-11-64.4zM161 221.7c-26.8-17.7-47.2-39.7-60.7-65.5-12.2-23.3-19.5-52-20.7-80.8-1.2-28.6 3.9-47.8 8.6-55.5C90 17 91.4 16 92 16c7.6 0 10.9 3.9 16.4 15 2.3 4.7 4.7 9.5 8.4 13.2 2.8 2.8 7.2 5.9 20.5 9.8 4.7 73.6 15.7 134.8 37.1 175.8-4.2-2.2-8.7-4.9-13.4-8.1zm121.8 212 1.3 1.9 1.7 1.4c10 8.2 16.2 20.3 17.1 33.1l.1 1.6V496h-94v-24.3l.1-1.6c.9-12.8 7.1-24.9 17.1-33.1l1.7-1.4 1.3-1.9c14.8-21.5 23.9-46 26.8-71.8 2.9 25.7 12 50.2 26.8 71.8zM266 286c-5.1 12.9-8.4 26.4-10 40.2-1.6-13.8-4.9-27.3-10-40.2h20zm34.3-32.4c-12.5 11.1-27 16.4-44.3 16.4-17.3 0-31.8-5.4-44.3-16.4-12.5-11.1-23.3-28.2-31.9-50.8-15.5-40.5-24.7-98.4-27.9-176.7h208.3c-3.2 78.3-12.4 136.2-27.9 176.7-8.7 22.6-19.4 39.7-32 50.8zM432.4 75.4c-1.2 28.9-8.5 57.6-20.7 80.8-13.5 25.8-33.9 47.8-60.7 65.5-4.7 3.1-9.2 5.8-13.3 8.1 21.3-41 32.4-102.2 37.1-175.8 13.3-3.9 17.7-7 20.5-9.8 3.7-3.7 6.1-8.5 8.4-13.2 5.5-11.1 8.8-15 16.4-15 .6 0 2 1 3.8 3.9 4.5 7.7 9.6 26.9 8.5 55.5z" style="fill:#36434f"/></svg>