<svg version="1.1" xmlns="http://www.w3.org/2000/svg" x="0" y="0" viewBox="0 0 512 512" xml:space="preserve"><path d="M502.4 433c-6.1-11.8-22.8-29.6-71.1-62.2-39.4-26.6-109.3-53.5-133.5-62.4a41.87 41.87 0 0 0-18.9-21.5c10.6-8.2 24-19.4 26.9-25.3 5.1-10.2 3.1-85.5-2-103.8-5.1-18.3-8.1-37.7-15.3-64.1s-7.1-63.1-22.4-63.1-27.5 16.3-34.6 27.5c-7.1 11.2-14.2 34.6-18.3 92.6-3.3 47.4 8.3 121.4 12.7 146.8-5.8 7.2-9.2 16.3-9.2 26.2v.9c-12.4-5.1-28.8-11.1-35.4-10.7-11.4.7-75.6 40.1-88.9 53.7-13.3 13.6-28.5 25.9-47.9 45.3S-6.6 450.6 1 463.8C8.8 477 29 479.5 42.3 480s37.1-5 89.4-30.4c42.7-20.8 101-67.9 120.8-84.4 2.1.3 4.2.5 6.3.5 8 0 15.4-2.2 21.7-6.1 1.8 13.3 4.8 30.4 8.4 36 6.3 9.5 72.5 45.4 90.9 50.1 18.4 4.8 36.7 11.8 63.2 18.8 26.5 7.1 58.2 25.4 65.8 12.2s-.3-31.9-6.4-43.7zm-243.6-89.2c-11.1 0-20.1-9-20.1-20.1 0-11.1 9-20.1 20.1-20.1s20.1 9 20.1 20.1c0 11.1-9 20.1-20.1 20.1z" fill="#36434f"/></svg>