<svg version="1.1" xmlns="http://www.w3.org/2000/svg" x="0" y="0" viewBox="0 0 512 512" xml:space="preserve"><path d="M352 0H160c-17.7 0-32 14.3-32 32v448c0 17.7 14.3 32 32 32h192c17.7 0 32-14.3 32-32V32c0-17.7-14.3-32-32-32zm-26 29c16 0 29 13 29 29s-13 29-29 29-29-13-29-29 13-29 29-29zm0 140c16 0 29 13 29 29s-13 29-29 29-29-13-29-29 13-29 29-29zM186 29c16 0 29 13 29 29s-13 29-29 29-29-13-29-29 13-29 29-29zm0 140c16 0 29 13 29 29s-13 29-29 29-29-13-29-29 13-29 29-29zm0 314c-16 0-29-13-29-29s13-29 29-29 29 13 29 29-13 29-29 29zm140-140c-16 0-29-13-29-29s13-29 29-29 29 13 29 29-13 29-29 29zm37-81c0 2.2-1.8 4-4 4H153c-2.2 0-4-1.8-4-4v-12c0-2.2 1.8-4 4-4h206c2.2 0 4 1.8 4 4v12z" fill="#36434f"/></svg>