<svg version="1.1" xmlns="http://www.w3.org/2000/svg" x="0" y="0" viewBox="0 0 512 512" style="enable-background:new 0 0 512 512" xml:space="preserve"><path d="M256 0C114.6 0 0 114.6 0 256s114.6 256 256 256 256-114.6 256-256S397.4 0 256 0zm169.7 425.7c-22 22-47.7 39.4-76.3 51.4-29.6 12.5-61 18.9-93.4 18.9s-63.8-6.3-93.4-18.9c-28.6-12.1-54.2-29.4-76.3-51.4-22-22-39.4-47.7-51.4-76.3C22.3 319.8 16 288.4 16 256s6.3-63.8 18.9-93.4C47 134 64.3 108.4 86.3 86.3c22-22 47.7-39.4 76.3-51.4C192.2 22.3 223.6 16 256 16s63.8 6.3 93.4 18.9C378 47 403.6 64.3 425.7 86.3c22 22 39.4 47.7 51.4 76.3 12.5 29.6 18.9 61 18.9 93.4s-6.3 63.8-18.9 93.4c-12 28.6-29.3 54.3-51.4 76.3zM306.9 130.6c-2-.4-4-.5-6-.5-16.7 0-31.4 11.9-34.5 28.9-3.3 19 9.4 37.1 28.4 40.5 2 .4 4 .5 6 .5 16.7 0 31.4-11.9 34.5-28.9 3.3-19.1-9.4-37.2-28.4-40.5zm12.6 37.7c-1.6 9.1-9.5 15.7-18.7 15.7-1.1 0-2.2-.1-3.2-.3-10.3-1.9-17.2-11.7-15.4-22 1.6-9.1 9.5-15.7 18.7-15.7 1.1 0 2.2.1 3.3.3 10.2 1.8 17.1 11.7 15.3 22zM256 361c-19.3 0-35 15.7-35 35s15.7 35 35 35 35-15.7 35-35-15.7-35-35-35zm0 54c-10.5 0-19-8.5-19-19s8.5-19 19-19 19 8.5 19 19-8.5 19-19 19zm-10.4-256c-2.9-16.9-17.7-28.9-34.4-28.9-2 0-4.1.2-6.1.5-19 3.3-31.8 21.5-28.4 40.5 3 17 17.8 28.9 34.5 28.9 2 0 4-.2 6-.5 19-3.3 31.8-21.5 28.4-40.5zm-18.9 16.9c-2.9 4.2-7.3 6.9-12.3 7.8-1.1.2-2.2.3-3.3.3-9.2 0-17.1-6.6-18.7-15.7-.9-4.9.2-10 3.1-14.1 2.9-4.2 7.3-6.9 12.3-7.8 1.1-.2 2.2-.3 3.3-.3 9 0 17 6.7 18.6 15.7 1 5-.1 10-3 14.1z" style="fill:#36434f"/></svg>