<svg xmlns="http://www.w3.org/2000/svg" viewBox="0 0 512 512" xml:space="preserve"><path d="M456.9 171.1c-11-26-26.7-49.3-46.7-69.3s-43.3-35.7-69.3-46.7C314 43.8 285.4 38 256 38s-58 5.8-84.9 17.1c-26 11-49.3 26.7-69.3 46.7s-35.7 43.3-46.7 69.3C43.8 198 38 226.6 38 256s5.8 58 17.1 84.9c11 26 26.7 49.3 46.7 69.3s43.3 35.7 69.3 46.7C198 468.2 226.6 474 256 474s58-5.8 84.9-17.1c26-11 49.3-26.7 69.3-46.7 20-20 35.7-43.3 46.7-69.3C468.2 314 474 285.4 474 256s-5.8-58-17.1-84.9zM74.8 212.2c4.4 0 8 3.6 8 8s-3.6 8-8 8-8-3.6-8-8 3.6-8 8-8zM63 256c0-4.4 3.6-8 8-8s8 3.6 8 8-3.6 8-8 8-8-3.6-8-8zm3.6 36.1c0-4.4 3.6-8 8-8s8 3.6 8 8-3.6 8-8 8-8-3.6-8-8zm18.5 42.7c-4.4 0-8-3.6-8-8s3.6-8 8-8 8 3.6 8 8-3.6 8-8 8zm.2-141.3c-4.4 0-8-3.6-8-8s3.6-8 8-8 8 3.6 8 8-3.6 8-8 8zm17 173.3c-4.4 0-8-3.6-8-8s3.6-8 8-8 8 3.6 8 8-3.6 8-8 8zm.1-205.2c-4.4 0-8-3.6-8-8s3.6-8 8-8 8 3.6 8 8-3.6 8-8 8zm23 233.2c-4.4 0-8-3.6-8-8s3.6-8 8-8 8 3.6 8 8-3.6 8-8 8zm8-268.5c-.4 4.4-4.2 7.7-8.6 7.3s-7.7-4.2-7.3-8.6c.4-4.4 4.2-7.7 8.6-7.3 4.4.4 7.6 4.2 7.3 8.6zm19.8-32.1c4.4 0 8 3.6 8 8s-3.6 8-8 8-8-3.6-8-8 3.6-8 8-8zm6.9 320c-2.4 3.7-7.4 4.7-11.1 2.2-3.7-2.4-4.7-7.4-2.2-11.1 2.4-3.7 7.4-4.7 11.1-2.2 3.6 2.5 4.6 7.5 2.2 11.1zM326.7 77.5c4.4 0 8 3.6 8 8s-3.6 8-8 8-8-3.6-8-8 3.6-8 8-8zm-42.5-4c.8-4.3 5-7.2 9.4-6.3 4.3.8 7.2 5 6.3 9.4-.8 4.3-5 7.2-9.4 6.3-4.3-.9-7.2-5.1-6.3-9.4zM256 63c4.4 0 8 3.6 8 8s-3.6 8-8 8-8-3.6-8-8 3.6-8 8-8zm-36.1 3.6c4.4 0 8 3.6 8 8s-3.6 8-8 8-8-3.6-8-8 3.6-8 8-8zm-37.7 11.1c4.1-1.7 8.8.3 10.5 4.4s-.3 8.8-4.4 10.5c-4.1 1.6-8.8-.3-10.5-4.4s.3-8.8 4.4-10.5zm3.1 357.2c-4.4 0-8-3.6-8-8s3.6-8 8-8 8 3.6 8 8-3.6 8-8 8zm42.6 4c-.8 4.3-5 7.2-9.4 6.3-4.3-.8-7.2-5-6.3-9.4.8-4.3 5-7.2 9.4-6.3 4.3.9 7.1 5.1 6.3 9.4zM256 449c-4.4 0-8-3.6-8-8s3.6-8 8-8 8 3.6 8 8-3.6 8-8 8zm36.1-3.6c-4.4 0-8-3.6-8-8s3.6-8 8-8 8 3.6 8 8-3.6 8-8 8zm34.7-10.6c-4.4 0-8-3.6-8-8s3.6-8 8-8 8 3.6 8 8-3.6 8-8 8zm12.7-62.5H182.4V337h1.6c4.9-1.3 8.6-6.2 11.1-14.9s3.7-17.7 3.7-27l-.6-15.4h-25.7v-35.5h24.4l-1.3-33.7c0-22.1 6.3-39.4 19-52 12.7-12.6 29.6-18.9 50.8-18.9 22.6 0 40.1 5.9 52.6 17.6s18.5 27.2 18 46.4l-.3.9h-44.9c0-10.1-2.4-17.5-7.3-22.3-4.8-4.8-10.9-7.2-18.3-7.2-7.5 0-13.3 3.1-17.5 9.3s-6.3 14.9-6.3 26.2l1.6 33.7h56.1v35.5h-54.4l.6 13.4c0 8.2-1.6 16.1-4.7 23.6-3.2 7.6-7.7 14.3-13.6 20.3h75.5l1.9-22.7h35.1v58zm105.9-152.4c0 4.4-3.6 8-8 8s-8-3.6-8-8 3.6-8 8-8 8 3.6 8 8zm-18.5-42.7c4.4 0 8 3.6 8 8s-3.6 8-8 8-8-3.6-8-8 3.6-8 8-8zm-68.2-82.6c4.4 0 8 3.6 8 8s-3.6 8-8 8-8-3.6-8-8 3.6-8 8-8zm.1 323.2c-4.4 0-8-3.6-8-8s3.6-8 8-8 8 3.6 8 8-3.6 8-8 8zm27.8-22.9c-4.4 0-8-3.6-8-8s3.6-8 8-8 8 3.6 8 8-3.6 8-8 8zm0-261.3c-4.4 0-8-3.6-8-8s3.6-8 8-8 8 3.6 8 8-3.6 8-8 8zm23.1 233.2c-4.4 0-8-3.6-8-8s3.6-8 8-8 8 3.6 8 8-3.6 8-8 8zm.1-205.6c-4.4 0-8-3.6-8-8s3.6-8 8-8 8 3.6 8 8-3.6 8-8 8zm16.9 173.7c-4.4 0-8-3.6-8-8s3.6-8 8-8 8 3.6 8 8-3.6 8-8 8zm10.5-34.7c-4.4 0-8-3.6-8-8s3.6-8 8-8 8 3.6 8 8-3.6 8-8 8zM441 264c-4.4 0-8-3.6-8-8s3.6-8 8-8 8 3.6 8 8-3.6 8-8 8zM256 0C114.6 0 0 114.6 0 256s114.6 256 256 256 256-114.6 256-256S397.4 0 256 0zm0 490C126.8 490 22 385.2 22 256S126.8 22 256 22s234 104.8 234 234-104.8 234-234 234z" fill="#36434f"/></svg>