<svg version="1.1" xmlns="http://www.w3.org/2000/svg" x="0" y="0" viewBox="0 0 512 512" style="enable-background:new 0 0 512 512" xml:space="preserve"><path d="M256 16c16 0 31.3 8.6 43.1 24.1C311.9 57 319 79.7 319 104v1.6c-.1 7.9 5.6 14.8 13.5 16 36.4 5.8 74.6 19.9 104.8 38.7 13.7 8.6 24.9 17.7 32.4 26.3 6.2 7.1 9.7 13.8 9.7 18.4 0 12.4-13.1 23.1-20.9 28.4-16.1 10.9-39 19.5-66.4 24.9-5.3 1-9.6 4.6-11.7 9.6-2 5-1.5 10.6 1.5 15l105.9 157c5.4 8 8.2 17.2 8.2 26.8V480c0 8.8-7.2 16-16 16H360.6c-16 0-30.9-7.9-39.8-21.2l-51.5-76.4c-3-4.4-7.9-7.1-13.3-7.1s-10.3 2.6-13.3 7.1l-51.5 76.4c-8.9 13.2-23.8 21.2-39.8 21.2H32c-8.8 0-16-7.2-16-16v-13.3c0-9.6 2.8-18.9 8.2-26.8l105.9-157c3-4.4 3.6-10.1 1.5-15-2-5-6.4-8.6-11.7-9.6-27.3-5.4-50.3-14-66.4-24.9-7.8-5.3-20.9-16-20.9-28.4 0-4.6 3.5-11.3 9.7-18.4 7.5-8.7 18.7-17.8 32.4-26.3 30.1-18.8 68.3-33 104.8-38.7 7.9-1.2 13.6-8.1 13.5-16V104c0-24.3 7.1-47 19.9-63.9C224.7 24.6 240 16 256 16m0-16c-43.6 0-79 46.6-79 104v1.8C95.5 118.7 16.6 169 16.6 205c0 30.8 41.2 57.2 100.2 68.9l-105.9 157C3.8 441.5 0 454 0 466.7V480c0 17.7 14.3 32 32 32h119.4c21.3 0 41.2-10.6 53.1-28.2l51.5-76.4 51.5 76.4a64.13 64.13 0 0 0 53.1 28.2H480c17.7 0 32-14.3 32-32v-13.3c0-12.8-3.8-25.2-10.9-35.8L395.2 274c59-11.7 100.2-38.2 100.2-68.9 0-36-78.9-86.4-160.4-99.3V104c0-57.4-35.4-104-79-104z" style="fill:#36434f"/></svg>