<svg version="1.1" xmlns="http://www.w3.org/2000/svg" x="0" y="0" viewBox="0 0 512 512" xml:space="preserve"><path d="M405 296H100v152c0 35.3 28.7 64 64 64h184c35.3 0 64-28.7 64-64V296h-7zm-234 60c0 4.4-3.6 8-8 8h-24c-4.4 0-8-3.6-8-8v-13c0-4.4 3.6-8 8-8h24c4.4 0 8 3.6 8 8v13zm210 0c0 4.4-3.6 8-8 8h-24c-4.4 0-8-3.6-8-8v-13c0-4.4 3.6-8 8-8h24c4.4 0 8 3.6 8 8v13zm24-230c0-7.9-1-15.7-2.8-23-.3-1.3-.7-2.6-1-3.8-.7-2.6-1.6-5.1-2.6-7.6l-1.5-3.6v-.1c-1.6-3.6-3.3-7.1-5.3-10.4 0-.1-.1-.1-.1-.2-2-3.3-4.1-6.5-6.5-9.6 0-.1-.1-.1-.1-.2-.8-1-1.5-2-2.4-2.9l-.1-.1c-1.6-1.9-3.3-3.8-5.1-5.6l-.2-.2-2.6-2.6c-.1-.1-.2-.2-.3-.2-1.8-1.7-3.7-3.3-5.7-4.9-.1 0-.1-.1-.2-.1-.9-.7-1.9-1.5-2.9-2.2-.1-.1-.2-.2-.4-.3l-3-2.1c-.1-.1-.2-.1-.2-.1-1-.7-2-1.3-3.1-2 0 0-.1 0-.1-.1-1-.6-2.1-1.2-3.1-1.8-.2-.1-.3-.2-.5-.3-1-.6-2.1-1.1-3.1-1.7-.1-.1-.3-.1-.4-.2-2.2-1.1-4.4-2.1-6.7-3-.2-.1-.3-.1-.5-.2l-3.3-1.2c-.2-.1-.4-.1-.6-.2-1.1-.4-2.3-.8-3.4-1.1-.1 0-.2-.1-.3-.1-1.1-.3-2.2-.7-3.4-1-.2 0-.3-.1-.5-.1-1.1-.3-2.3-.6-3.5-.8-.2 0-.4-.1-.7-.1-1.2-.2-2.3-.5-3.5-.7-.2 0-.3-.1-.5-.1-1.2-.2-2.3-.4-3.5-.5h-.3c-1.2-.2-2.4-.3-3.6-.4-.2 0-.5 0-.7-.1-1.2-.1-2.4-.2-3.6-.2h-.6c-1.3 0-2.5-.1-3.8-.1h-11.1C296.9 13.3 283 0 266 0h-21c-17 0-30.9 13.3-31.9 30H203c-1.3 0-2.5 0-3.8.1h-.6c-1.2.1-2.4.1-3.6.2-.2 0-.5 0-.7.1-1.2.1-2.4.2-3.6.4h-.3c-1.2.2-2.3.3-3.5.5-.2 0-.3.1-.5.1-1.2.2-2.3.4-3.5.7-.2 0-.4.1-.7.1-1.2.3-2.3.5-3.5.8-.2 0-.3.1-.5.1-1.1.3-2.3.6-3.4 1-.1 0-.2.1-.3.1-1.1.4-2.3.7-3.4 1.1-.2.1-.4.1-.6.2l-3.3 1.2c-.2.1-.3.1-.5.2-2.3.9-4.5 1.9-6.7 3-.1.1-.3.1-.4.2-1.1.5-2.1 1.1-3.1 1.7-.2.1-.3.2-.5.3-1.1.6-2.1 1.2-3.1 1.8 0 0-.1 0-.1.1-1 .6-2.1 1.3-3.1 2-.1 0-.1.1-.2.1l-3 2.1c-.1.1-.2.2-.4.3-1 .7-1.9 1.4-2.9 2.2-.1 0-.1.1-.2.1-2 1.6-3.9 3.2-5.7 4.9l-.2.2c-.9.8-1.8 1.7-2.6 2.6l-.2.2c-1.8 1.8-3.5 3.7-5.1 5.6l-.1.1c-.8 1-1.6 1.9-2.4 2.9 0 .1-.1.1-.1.2-2.3 3.1-4.5 6.3-6.5 9.6 0 .1-.1.1-.1.2-2 3.4-3.8 6.8-5.3 10.4v.1l-1.5 3.6c-1 2.5-1.8 5-2.6 7.6-.4 1.3-.7 2.6-1 3.8-1.8 7.4-2.8 15.1-2.8 23v154h298V126zM246.4 24.4l-3 9.9c1.5.6 2.5 2 2.5 3.7v15c0 2.2-1.8 4-4 4s-4-1.8-4-4V38c0-1.7 1.1-3.1 2.5-3.7v-.7l3-10c.2-.8 1.1-1.2 1.9-1 .9.2 1.4 1 1.1 1.8zM274 53c0 2.2-1.8 4-4 4s-4-1.8-4-4V38c0-1.7 1-3.1 2.5-3.7l-3-9.9c-.2-.8.2-1.6 1-1.9.8-.2 1.6.2 1.9 1l3 10c.1.2.1.5 0 .7 1.5.6 2.5 2 2.5 3.7V53zm2-23-3.8-6.7c-2.3-4.1-8.2-4.1-10.5 0L258 30h-4l-3.8-6.7c-2.3-4.1-8.2-4.1-10.5 0L236 30h-12.9c1-11.2 10.4-20 21.9-20h21c11.5 0 20.9 8.8 21.9 20H276z" fill="#36434f"/></svg>