<svg version="1.1" xmlns="http://www.w3.org/2000/svg" x="0" y="0" viewBox="0 0 512 512" xml:space="preserve"><path d="M512 404V108c0-8-3-15.3-7.8-21-1.3-1.5-2.8-2.9-4.4-4.2l-.1-.1c-1-.8-2.1-1.6-3.3-2.2-.1 0-.1-.1-.2-.1-.5-.3-1-.6-1.5-.8-.1-.1-.2-.1-.3-.2-1.2-.6-2.3-1.1-3.6-1.5-.1 0-.3-.1-.4-.1-.5-.2-1-.3-1.5-.5-.2 0-.3-.1-.5-.1-.6-.2-1.2-.3-1.8-.4h-.1c-.6-.1-1.3-.2-1.9-.3-.2 0-.4 0-.5-.1-.5-.1-1-.1-1.5-.1h-.6c-.7 0-1.3-.1-2-.1H32c-.7 0-1.3 0-2 .1h-.6c-.5 0-1 .1-1.5.1-.2 0-.4 0-.5.1-.6.1-1.3.2-1.9.3h-.1c-.6.1-1.2.3-1.8.4-.2 0-.3.1-.5.1-.5.1-1 .3-1.5.5-.1 0-.3.1-.4.1-1.2.4-2.4.9-3.6 1.5-.1.1-.2.1-.3.2-.5.3-1 .5-1.5.8-.1 0-.1.1-.2.1-1.1.7-2.2 1.4-3.3 2.2l-.1.1c-1.6 1.3-3.1 2.7-4.4 4.2C3 92.7 0 100 0 108v296c0 8 3 15.3 7.8 21 1.3 1.5 2.8 2.9 4.4 4.2l.1.1c1 .8 2.1 1.6 3.3 2.2.1 0 .1.1.2.1.5.3 1 .6 1.5.8.1.1.2.1.3.2 1.2.6 2.3 1.1 3.6 1.5.1 0 .3.1.4.1.5.2 1 .3 1.5.5.2 0 .3.1.5.1.6.2 1.2.3 1.8.4h.1c.6.1 1.3.2 1.9.3.2 0 .4 0 .5.1.5.1 1 .1 1.5.2h.6c.7 0 1.3.1 2 .1h448c.7 0 1.3 0 2-.1h.6c.5 0 1-.1 1.5-.2.2 0 .4 0 .5-.1.6-.1 1.3-.2 1.9-.3h.1c.6-.1 1.2-.3 1.8-.4.2 0 .3-.1.5-.1.5-.1 1-.3 1.5-.5.1 0 .3-.1.4-.1 1.2-.4 2.4-.9 3.6-1.5.1-.1.2-.1.3-.2.5-.3 1-.5 1.5-.8.1 0 .1-.1.2-.1 1.1-.7 2.2-1.4 3.3-2.2l.1-.1c1.6-1.3 3.1-2.7 4.4-4.2 4.8-5.7 7.8-13 7.8-21zM349 256l147-147v294L349 256zM16 403V109l147 147L16 403zm7.9-308.8c.1 0 .1-.1.2-.1.2-.1.4-.2.7-.4.2-.1.3-.2.5-.3.4-.2.7-.3 1.1-.5.2-.1.4-.2.6-.2.2-.1.4-.1.6-.2.3-.1.6-.2.9-.2.2 0 .4-.1.6-.1.4-.1.7-.1 1.1-.2H480c.5 0 1 0 1.4.1h.4c.4 0 .7.1 1.1.2.2 0 .4.1.6.1.3.1.6.1.9.2.2.1.4.1.6.2.2.1.4.1.6.2.4.1.7.3 1.1.5.2.1.3.2.5.3.2.1.4.2.7.4.1 0 .1.1.2.1L267.3 315.1c-3 3-7 4.7-11.3 4.7-4.3 0-8.3-1.7-11.3-4.7L23.9 94.2zM256 420H32c-.5 0-1 0-1.4-.1h-.4c-.4 0-.7-.1-1.1-.2-.2 0-.4-.1-.6-.1-.3-.1-.6-.1-.9-.2-.2-.1-.4-.1-.6-.2-.2-.1-.4-.1-.6-.2-.4-.1-.7-.3-1.1-.5-.2-.1-.3-.2-.5-.3-.2-.1-.4-.2-.7-.4-.1 0-.1-.1-.2-.1l150.4-150.4 59.1 59.1c6.2 6.2 14.4 9.4 22.6 9.4s16.4-3.1 22.6-9.4l59.1-59.1 150.4 150.4c-.1 0-.1.1-.2.1-.2.1-.4.2-.7.4-.2.1-.3.2-.5.2-.4.2-.7.3-1.1.5-.2.1-.4.2-.6.2-.2.1-.4.1-.6.2-.3.1-.6.2-.9.2-.2 0-.4.1-.6.1-.4.1-.7.1-1.1.2h-.4c-.5 0-.9.1-1.4.1H256z" fill="#36434f"/></svg>