<svg xmlns="http://www.w3.org/2000/svg" viewBox="0 0 512 512" xml:space="preserve"><path d="M148 179v333h216V179H148zm196 12.6c0 1-.7 1.8-1.7 2-9.7 1.6-19.7 2.4-29.8 2.4-15.5 0-30.6-1.9-45-5.6-.9-.2-1.5-1-1.5-1.9V187c0-1.1.9-2 2-2h13c0 1.1.9 2 2 2h39c1.1 0 2-.9 2-2h18c1.1 0 2 .9 2 2v4.6zm20-19.6V36c0-19.9-16.1-36-36-36H184c-19.9 0-36 16.1-36 36v136h216zm-98-9.5c0-.9.6-1.7 1.5-1.9 14.4-3.7 29.5-5.6 45-5.6 10.1 0 20.1.8 29.8 2.4 1 .2 1.7 1 1.7 2v4.6c0 1.1-.9 2-2 2h-18c0-1.1-.9-2-2-2h-39c-1.1 0-2 .9-2 2h-13c-1.1 0-2-.9-2-2v-1.5z" fill="#36434f"/></svg>