<svg version="1.1" xmlns="http://www.w3.org/2000/svg" x="0" y="0" viewBox="0 0 512 512" xml:space="preserve"><path d="M99 512h50V93h105v418h4V93h105v419h46V0H99v512zM200.5 37.8h111v31.5h-111V37.8zm80.3 4.5 9 22.5-9-6-9 6 9-22.5zm-49.5 6 9-6-9 22.5-9-22.5 9 6zm233.5 220c.6.6.6 1.5 0 2.1l-4.5 4.5c-.3.3-.7.4-1.1.4s-.8-.1-1.1-.4l-4.5-4.5c-.6-.6-.6-1.5 0-2.1s1.5-.6 2.1 0l3.4 3.4 3.4-3.4c.8-.5 1.7-.5 2.3 0zm7.6-40.2h-26.3c-1.7 0-3 1.3-3 3v49.5c0 1.7 1.3 3 3 3h26.3c1.7 0 3-1.3 3-3v-49.5c0-1.6-1.4-3-3-3zm-13.1 50.3c-4.1 0-7.5-3.4-7.5-7.5s3.4-7.5 7.5-7.5 7.5 3.4 7.5 7.5-3.4 7.5-7.5 7.5zm0-30c-4.1 0-7.5-3.4-7.5-7.5s3.4-7.5 7.5-7.5 7.5 3.4 7.5 7.5-3.4 7.5-7.5 7.5zm1-11.6 4.5 4.5c.6.6.6 1.5 0 2.1-.3.3-.7.4-1.1.4s-.8-.1-1.1-.4l-3.4-3.4-3.4 3.4c-.6.6-1.5.6-2.1 0-.6-.6-.6-1.5 0-2.1l4.5-4.5c.6-.5 1.5-.5 2.1 0z" fill="#36434f"/></svg>