<svg version="1.1" xmlns="http://www.w3.org/2000/svg" x="0" y="0" viewBox="0 0 512 512" style="enable-background:new 0 0 512 512" xml:space="preserve"><path d="M319.8 279.7c-.6-1.8-1.2-3.6-1.8-5.3-1.9-5.3-4.1-10.4-6.4-15.2-8.9-19.9-22.1-50.5-26.5-85.2-.4-3.3-.8-6.6-1-10-.3-4-.5-8-.5-12-.2-8.6 0-17.4.5-26 .2-2.8.3-5.5.6-8.3.1-1.4.2-2.7.3-4.1.6-6.8 1.3-13.4 2.1-19.7 2.6-20.1 5.9-37 7.9-46.2 2.9-13.5-1.2-27.7-11.3-37.1C276.3 4.1 266.6 0 256 0s-20.3 4.1-27.5 10.8c-10.1 9.4-14.2 23.6-11.3 37.1 2 9.1 5.3 26.1 7.9 46.2.2 1.3.3 2.5.5 3.8.8 6.4 1.5 13.1 2 19.9.2 2.7.4 5.5.6 8.3.5 8.6.7 17.4.5 26-.1 4-.3 8-.5 12-.2 3.4-.6 6.7-1 10-4.3 34.7-17.6 65.3-26.5 85.2-1.6 3.2-3.1 6.6-4.5 10-1.4 3.4-2.6 6.9-3.8 10.5-6.5 19.9-10.2 43-10.2 67.8 0 54.9 22.8 129.9 48 164.5h52c25.3-34.6 48-109.6 48-164.5-.2-24.8-3.9-48-10.4-67.9zM233 93c-2.7-20.8-6.1-38.3-8-46.8-2.3-10.9 1.1-22.2 8.9-29.5 6-5.6 13.9-8.7 22.1-8.7s16.1 3.1 22.1 8.7c7.9 7.3 11.3 18.6 8.9 29.5-1.8 8.6-5.3 26-8 46.8 0 .3-.1.7-.1 1h-45.8c-.1-.3-.1-.7-.1-1zm3.1 33H276c-.5 9.1-.7 17.8-.5 26h-38.9c.1-8.2 0-16.9-.5-26zm41.7 378h-43.6c-10.9-16.2-21.7-41-30-68.9-9.2-31-14.2-62.1-14.2-87.6 0-23 3.4-45.6 9.8-65.3 1.1-3.4 2.4-6.8 3.6-10 1.3-3.3 2.7-6.5 4.2-9.5l.1-.1.1-.1c7.9-17.6 22.5-50.3 27.1-87.4 0-.3.1-.7.1-1h41.9c0 .3.1.7.1 1 4.7 37.2 19.3 69.9 27.1 87.4l.1.1.1.1c2.2 4.5 4.3 9.4 6.1 14.4l1.8 5.1c6.4 19.7 9.8 42.2 9.8 65.3 0 25.5-5 56.6-14.2 87.6-8.3 27.9-19.1 52.7-30 68.9z" style="fill:#36434f"/></svg>