<svg version="1.1" xmlns="http://www.w3.org/2000/svg" x="0" y="0" viewBox="0 0 512 512" xml:space="preserve"><path d="M437.4 11.6C431.6 2 424.8 0 420 0c-15.1 0-22.7 9.1-27.5 17.7-.9 1.6-1.7 3.2-2.5 4.8 0 0 0 .1-.1.1-.2.5-.5.9-.7 1.4-1.8 3.7-3.5 7.2-5.3 9-.1.1-.3.3-.5.4-.1 0-.1.1-.2.1-.1.1-.3.2-.5.3-.1 0-.1.1-.2.1-.2.1-.5.3-.7.4-.3.2-.6.3-1 .5h-.1c-.3.1-.6.3-1 .4 0 0-.1 0-.1.1-1.2.5-2.5 1-4.1 1.6.4-8.8.8-17.8 1.1-26.9H135.3c.3 9.1.6 18.1 1.1 26.9-1.5-.5-2.9-1.1-4.1-1.6 0 0-.1 0-.1-.1-.3-.2-.7-.3-1-.5h-.1c-.3-.2-.7-.3-1-.5-.3-.1-.5-.3-.7-.4-.1 0-.1-.1-.2-.1-.2-.1-.3-.2-.5-.3-.1 0-.1-.1-.2-.1-.2-.1-.3-.3-.5-.4-1.8-1.8-3.5-5.3-5.3-9-.2-.5-.5-.9-.7-1.4 0 0 0-.1-.1-.1-.8-1.5-1.6-3.1-2.5-4.8C114.7 9.1 107.1 0 92 0c-4.8 0-11.6 2-17.4 11.6-7.9 13.1-12 37.2-10.9 64.4 1.3 31.2 9.2 62.3 22.5 87.6 21.3 40.6 54.7 65.6 78.7 79.2.1.1.2.1.3.2l2.1 1.2s.1 0 .1.1c1.5.9 3 1.7 4.5 2.4.1 0 .2.1.2.1.7.3 1.3.7 1.9 1 .1 0 .1.1.2.1 1.4.7 2.7 1.4 4 2 .1 0 .1.1.2.1.6.3 1.1.5 1.6.8.1 0 .2.1.2.1 1.2.6 2.3 1.1 3.4 1.5.1 0 .1 0 .2.1.5.2.9.4 1.3.6.1 0 .2.1.3.1.4.2.9.4 1.3.5h.1c.5.2.9.4 1.3.5h.1c.4.1.7.3 1 .4.1 0 .2.1.2.1.3.1.6.2.8.3.1 0 .1 0 .2.1l.9.3c5.2 6.1 10.8 11.3 16.9 15.6l.1.1c3 2.1 6 4 9.2 5.6.3.2.7.4 1 .5.6.3 1.1.6 1.7.8.4.2.9.4 1.3.6.5.2 1.1.5 1.6.7.5.2 1.1.4 1.6.6.5.2 1 .4 1.4.6.8 1.5 1.5 3.1 2.2 4.7 7.1 15.7 11.4 32.9 12.3 51.1-5.7 1.7-9.3 4.4-9.3 7.4s3.6 5.7 9.3 7.4c-1.2 24.1-8.5 46.6-20.2 66.1-1.5 2.4-3 4.8-4.6 7.1-.8.7-1.6 1.3-2.4 2.1l-.1.1c-10.7 9.8-18 23.2-20 38.3h-8.8c-5.5 0-10.5 2.8-13.5 7.4L146 512h220l-25.3-39.6c-2.9-4.6-8-7.4-13.5-7.4h-8.8c-2-15.1-9.3-28.5-20-38.3l-.1-.1-2.4-2.1c-1.6-2.3-3.1-4.7-4.6-7.1-11.7-19.5-19-42-20.2-66.1 5.7-1.7 9.3-4.4 9.3-7.4s-3.6-5.7-9.3-7.4c.9-18.1 5.3-35.3 12.3-51.1.7-1.6 1.4-3.1 2.2-4.7.5-.2 1-.4 1.4-.6.5-.2 1.1-.4 1.6-.6.5-.2 1.1-.5 1.6-.7.4-.2.9-.4 1.3-.6.6-.3 1.1-.5 1.7-.8.3-.2.7-.3 1-.5 3.2-1.7 6.3-3.5 9.2-5.6l.1-.1c6.1-4.3 11.7-9.5 16.9-15.6l.9-.3s.1 0 .2-.1l.9-.3c.1 0 .2-.1.2-.1.3-.1.7-.3 1-.4 0 0 .1 0 .1-.1.4-.2.8-.3 1.3-.5h.1c.4-.2.8-.4 1.3-.5.1 0 .2-.1.3-.1.4-.2.9-.4 1.3-.6.1 0 .1 0 .2-.1 1.1-.5 2.2-1 3.4-1.5.1 0 .2-.1.2-.1.5-.3 1.1-.5 1.7-.8.1 0 .1-.1.2-.1 1.3-.6 2.6-1.3 4-2 .1 0 .1-.1.2-.1.6-.3 1.3-.7 1.9-1 .1 0 .2-.1.2-.1 1.4-.8 2.9-1.6 4.5-2.4 0 0 .1 0 .1-.1l2.1-1.2c.1-.1.2-.1.3-.2 24-13.7 57.4-38.6 78.7-79.2 13.2-25.3 21.2-56.4 22.5-87.6 1.2-27.3-2.8-51.4-10.8-64.5zM103.9 154.4C86 120.2 83.4 84.9 83.5 66.8 83.6 37.5 90.1 23 93 20c5 .3 7.1 3.3 11.8 12.8 2.4 5 5 10.1 9.1 14.3 2.9 2.9 7.5 5.4 12.9 7.5 2 .8 4.1 1.6 6.2 2.3.1 0 .1 0 .2.1 1.4.5 2.9.9 4.4 1.3 4.6 67.9 14.7 125 33.5 165-.9-.5-1.8-1.1-2.7-1.6-.2-.1-.4-.3-.6-.4-.7-.4-1.4-.9-2.1-1.3-.3-.2-.5-.3-.8-.5-.7-.4-1.4-.9-2.1-1.4-.3-.2-.5-.4-.8-.5-.7-.5-1.4-1-2.2-1.5-.2-.2-.5-.3-.7-.5-.8-.5-1.6-1.1-2.4-1.7-.2-.1-.4-.3-.5-.4-1-.7-1.9-1.4-2.9-2.1-2.1-1.6-4.2-3.2-6.2-4.9-15.7-12.8-31.6-29.9-43.2-52.1zm304.2 0c-11.6 22.2-27.6 39.3-43.2 52-2.1 1.7-4.2 3.3-6.2 4.9-1 .7-1.9 1.4-2.9 2.1-.2.1-.4.3-.6.4-.8.6-1.6 1.1-2.4 1.7-.2.2-.5.3-.7.5l-2.1 1.5c-.3.2-.5.4-.8.5-.7.5-1.4.9-2.1 1.3-.3.2-.5.3-.8.5-.7.5-1.4.9-2.1 1.3-.2.1-.4.3-.6.4-.9.6-1.8 1.1-2.7 1.6 18.8-40 29-97.1 33.5-165 1.5-.4 2.9-.9 4.4-1.3.1 0 .1 0 .2-.1 2.2-.7 4.2-1.5 6.2-2.3 5.4-2.2 10-4.7 12.9-7.5 4.1-4.1 6.7-9.3 9.1-14.3 4.6-9.4 6.8-12.4 11.8-12.8 2.9 2.9 9.4 17.5 9.5 46.8.1 18.3-2.5 53.6-20.4 87.8z" fill="#36434f"/></svg>