<svg version="1.1" xmlns="http://www.w3.org/2000/svg" x="0" y="0" viewBox="0 0 512 512" style="enable-background:new 0 0 512 512" xml:space="preserve"><path d="M319.8 279.7c-.6-1.8-1.2-3.6-1.8-5.3-.9-2.7-2-5.2-3-7.8-1.1-2.5-2.2-5-3.3-7.4-8.9-19.9-22.1-50.5-26.5-85.2-.5-3.3-.9-6.6-1.1-10-.3-4-.5-8-.5-12h-.2c0-2.2-.1-4.3-.1-6.5 0-4.3.1-8.7.3-13 .1-2.2.2-4.3.3-6.5h.2c.6-11.1 1.7-21.9 3-32h-.1c.8-6.3 1.7-12.2 2.6-17.7.7-4.4 1.4-8.5 2.1-12.3.3-1.9.7-3.7 1-5.4.8-4.2 1.6-7.8 2.2-10.7.5-2.5.8-5.1.9-7.6.1-3.4-.3-6.8-1-10-.4-1.6-.9-3.2-1.4-4.8s-1.3-3.1-2-4.6c-2-3.7-4.5-7.1-7.7-10.1C276.3 4.1 266.6 0 256 0c-10.6 0-20.3 4.1-27.5 10.7-10.1 9.4-14.2 23.6-11.3 37.1.7 3.5 1.6 8 2.6 13.4.3 1.8.7 3.7 1 5.7.5 3 1.1 6.1 1.6 9.4.4 2.2.7 4.5 1 6.8.5 3.5 1 7.2 1.5 10.9 1.3 10.1 2.4 20.9 3 32 .5 8.6.7 17.4.5 26h.1c-.1 4-.3 8-.5 12-.2 3.4-.6 6.7-1 10h-.1c-4.3 34.7-17.6 65.3-26.5 85.2-.8 1.6-1.6 3.2-2.3 4.9-.8 1.7-1.5 3.4-2.2 5.1-1.4 3.4-2.6 6.9-3.8 10.5-6.5 19.9-10.2 43-10.2 67.8 0 4.3.1 8.7.4 13.2.4 6.3 1 12.8 1.9 19.4.4 2.8.8 5.7 1.2 8.5l.9 5.7c.2 1 .3 1.9.5 2.9.9 4.8 1.9 9.6 2.9 14.4.6 2.9 1.3 5.8 2 8.6 1.2 4.8 2.5 9.5 3.8 14.2.3.9.5 1.9.8 2.8 1.9 6.5 4 13 6.2 19.2.3.9.6 1.8 1 2.7 3.5 9.7 7.4 18.9 11.4 27.2 1.1 2.3 2.2 4.5 3.3 6.6 1.1 2.1 2.3 4.2 3.4 6.2s2.3 3.9 3.5 5.8c.8 1.2 1.6 2.4 2.3 3.6.8 1.2 1.6 2.3 2.4 3.4h52c.8-1.1 1.6-2.2 2.4-3.4.8-1.2 1.6-2.4 2.3-3.6 1.2-1.8 2.3-3.8 3.5-5.8 1.1-2 2.3-4.1 3.4-6.2 1.1-2.1 2.2-4.4 3.3-6.6 4-8.3 7.9-17.5 11.4-27.2.3-.9.6-1.8 1-2.7 2.2-6.2 4.3-12.7 6.2-19.2.3-.9.5-1.9.8-2.8 1.3-4.7 2.6-9.5 3.8-14.2.7-2.9 1.4-5.8 2-8.6 1.1-4.8 2-9.6 2.9-14.4.2-1 .3-1.9.5-2.9l.9-5.7c.4-2.9.9-5.7 1.2-8.5.9-6.6 1.5-13.1 1.9-19.4.3-4.5.4-8.9.4-13.2.3-24.7-3.4-47.9-9.9-67.8zm-44.5-127.5.2 7.8h.2l.3 4.5c.2 2.9.5 6 1 9.5h-41.9c.4-3.1.7-6.2.9-9.5.2-4 .4-8.1.5-12.2v-.2h38.7c.1 0 .1 0 .1.1zM236 125.6c-.5-10-1.5-20.3-2.9-31.6h45.8l-1 8h.2c-.6 5.5-1.1 10.8-1.5 16h-.2l-.4 7.5v.5h-40v-.4z" style="fill:#36434f"/></svg>