<svg version="1.1" xmlns="http://www.w3.org/2000/svg" x="0" y="0" viewBox="0 0 512 512" xml:space="preserve"><path d="M278.5 215v-2H444L347.8 14l-1.9-4L341 0H171l-4.8 10-1.9 4L68 213h165.5v2c0 6.6 5.4 12 12 12h5c-1.7 0-3 1.3-3 3v.5c0 1.4 1.1 2.5 2.5 2.5 1.1 0 2 .9 2 2s-.9 2-2 2h-.5c-1.1 0-2 .9-2 2v1c0 1.7-1.3 3-3 3h-5.8c-2.1 0-4 1.5-4.2 3.6-.2 2.4 1.6 4.4 4 4.4h-11c-2.2 0-4 1.8-4 4s-1.8 4-4 4h-3c-2.8 0-5.2 2-5.8 4.6 0 .1-.1.3-.1.5v2c0 .1 0 .2.1.3 0 .1 0 .2.1.3 0 .1.1.2.1.3 0 .1.1.2.1.3 0 .1.1.2.1.3 0 .1.1.2.1.3 0 .1.1.2.2.3 0 .1.1.2.1.2.1.1.1.2.2.3l.2.2c.1.1.1.2.2.2l.2.2.2.2.2.2c.1.1.2.1.3.2l.2.2c.1.1.2.1.3.2.1 0 .1.1.2.1.1.1.2.1.3.1.1 0 .2.1.2.1.1 0 .2.1.3.1.1 0 .2.1.2.1.1 0 .2.1.3.1.1 0 .2 0 .2.1.1 0 .3 0 .4.1h2.3s10 7 10 14-28 8-40 35c-16.4 42.4 33.7 124.4 40.4 149 .1.5.2.9.3 1.3v.1c.1.4.2.8.2 1.1v.2c0 .3.1.6.1.9v1.1c0 .2 0 .4-.1.6v.2c0 .2-.1.3-.2.5 0 .1 0 .1-.1.2s-.2.2-.2.4l-.1.1c-.1.1-.3.2-.5.3-.5.2-1 .4-1.5.7-.1 0-.2.1-.3.1-.5.2-1 .4-1.5.7h-.1c-.5.2-1 .5-1.6.7 0 0-.1 0-.1.1-.6.2-1.1.5-1.7.7-9.5 4.1-19.2 8-19.2 8-3.3 0-6 2.7-6 6s-2.7 6-6 6h-1c-3.3 0-6 2.7-6 6v7h146v-7c0-3.3-2.7-6-6-6h-1c-3.3 0-6-2.7-6-6s-2.7-6-6-6c0 0-9.7-3.9-19.2-8-.6-.2-1.1-.5-1.7-.7 0 0-.1 0-.1-.1-.5-.2-1-.5-1.5-.7 0 0-.1 0-.1-.1-.5-.2-1-.4-1.5-.7-.1 0-.2-.1-.3-.1-.5-.2-1-.4-1.5-.7-.2-.1-.3-.2-.5-.3l-.1-.1c-.1-.1-.2-.2-.2-.4 0-.1 0-.1-.1-.2s-.1-.3-.2-.5v-.2c0-.2-.1-.4-.1-.6v-1.1c0-.3.1-.6.1-.9v-.2c.1-.4.1-.7.2-1.1v-.1c.1-.4.2-.9.3-1.3 6.8-24.6 56.9-106.6 40.4-149-12-27-40-28-40-35s10-14 10-14h2.3c.1 0 .3 0 .4-.1.1 0 .2 0 .2-.1.1 0 .2-.1.3-.1.1 0 .2-.1.2-.1.1 0 .2-.1.3-.1.1 0 .2-.1.2-.1.1 0 .2-.1.3-.1.1 0 .2-.1.2-.1.1-.1.2-.1.3-.2l.2-.2c.1-.1.2-.1.3-.2l.2-.2c.1-.1.2-.1.2-.2l.2-.2c.1-.1.1-.2.2-.2l.2-.2c.1-.1.1-.2.2-.3.1-.1.1-.2.1-.2.1-.1.1-.2.2-.3 0-.1.1-.2.1-.3 0-.1.1-.2.1-.3 0-.1.1-.2.1-.3 0-.1.1-.2.1-.3 0-.1 0-.2.1-.3 0-.1.1-.2.1-.3v-2c0-.2-.1-.3-.1-.5-.6-2.6-3-4.6-5.8-4.6h-3c-2.2 0-4-1.8-4-4s-1.8-4-4-4h-11.2c2.1 0 4-1.5 4.2-3.6.2-2.4-1.6-4.4-4-4.4h-6c-1.7 0-3-1.3-3-3v-1c0-1.1-.9-2-2-2s-2-.9-2-2 .9-2 2-2c1.4 0 2.5-1.1 2.5-2.5v-.4c0-1.7-1.3-3-3-3h5c6.6 0 12-5.4 12-12z" fill="#36434f"/></svg>