<svg xmlns="http://www.w3.org/2000/svg" viewBox="0 0 512 512" style="enable-background:new 0 0 512 512" xml:space="preserve"><path d="M255.5 8.6c60.1 24.1 123.1 41.1 187.2 50.5.2 7.7.3 15.3.3 22.6 0 74-8.4 147.8-24.8 219.3-10.3 44.7-32.8 85.5-65 118-30.1 30.3-62.9 58.3-97.6 83.2-34.7-24.9-67.5-52.9-97.6-83.2-2.1-2.1-4.2-4.3-6.2-6.5-13.4-14.6-25.1-30.8-34.7-48.2-9.8-17.8-17.3-36.7-22.4-56.4-.6-2.3-1.2-4.6-1.7-6.9-4.1-17.9-7.8-36.3-10.9-54.4-3.3-19.4-6.1-39.2-8.2-58.9-2.3-20.8-3.9-42-4.8-63-.8-14.2-1.1-28.7-1.1-43 0-7.3.1-14.8.3-22.6 21.4-3.2 42.9-7.2 64-12 20-4.6 40.1-10 59.8-16 21.3-6.6 42.6-14.2 63.4-22.5m0-8.6C234 8.7 212 16.5 189.7 23.4c-19.4 6-39.2 11.3-59.2 15.9-23 5.3-46.4 9.6-70 12.8-.3 9.9-.5 19.7-.5 29.6 0 14.5.3 29 .9 43.3.9 21.3 2.5 42.5 4.8 63.5 2.2 20 4.9 39.8 8.3 59.3 3.2 18.5 6.8 36.8 11 54.9.5 2.4 1.1 4.8 1.7 7.1 5.3 20.4 13.1 39.9 23.2 58.2 9.8 17.9 21.9 34.6 35.8 49.8 2.1 2.3 4.2 4.5 6.4 6.7 31.8 32 66.4 61.3 103.3 87.4 36.9-26.1 71.5-55.4 103.3-87.4 33.3-33.5 56.6-75.8 67.2-121.8 16.4-71 25-145 25-221.1 0-9.9-.2-19.7-.5-29.5C382.5 42.7 317.2 25 255.5 0z" style="fill:#36434f"/></svg>