<svg version="1.1" xmlns="http://www.w3.org/2000/svg" x="0" y="0" viewBox="0 0 512 512" xml:space="preserve"><path d="M183.8 81.8v-18c8.5 21.7 37.6 37.7 72.3 37.7s63.8-16 72.3-37.7v18c0 26.6-32.4 48.3-72.3 48.3s-72.3-21.7-72.3-48.3zm159.8 0V99c0 4.2-.8 8.3-2.4 12.1l-5.6 13.5c-2.1 5.2-4.1 10.5-5.9 15.8l-4.2 12.6c-1.1 3.3-1.6 6.7-1.6 10.1V444c0 37.6-30.4 68-68 68s-68-30.4-68-68V163.2c0-3.4-.6-6.9-1.6-10.1l-4.2-12.6c-1.8-5.3-3.7-10.6-5.9-15.8l-5.6-13.5c-1.6-3.9-2.4-8-2.4-12.1V81.8c0-10.2 3.8-19.7 10.4-28.1v28.1c0 29.4 34.7 53.3 77.3 53.3s77.3-23.9 77.3-53.3V53.6c6.7 8.4 10.4 18 10.4 28.2zM287.5 444c0-17.4-14.1-31.5-31.5-31.5s-31.5 14.1-31.5 31.5 14.1 31.5 31.5 31.5 31.5-14.1 31.5-31.5zM256 0c-39 0-70.7 20.8-70.7 46.4S217 92.8 256 92.8s70.7-20.8 70.7-46.4S295 0 256 0z" fill="#36434f"/></svg>