<svg version="1.1" xmlns="http://www.w3.org/2000/svg" x="0" y="0" viewBox="0 0 512 512" xml:space="preserve"><path d="M256 0C114.6 0 0 114.6 0 256s114.6 256 256 256 256-114.6 256-256S397.4 0 256 0zm0 463c-56.9 0-108.3-22.9-145.8-60-1.3-1.3-2.4-2.7-3.3-4.2 37.6 39.2 90.5 63.7 149.1 63.7 58.5 0 111.4-24.4 149-63.6-.9 1.5-1.9 2.9-3.2 4.1-37.4 37.1-88.9 60-145.8 60zm94.7-194.6l-8.9-6.2c1.2-16.6-2.4-33.7-11.3-49.2s-22-27.1-36.9-34.4l-.9-10.8c34.5 14.4 58.8 48.5 58.8 88.2 0 4.2-.3 8.3-.8 12.4zM160.5 256c0-39.7 24.3-73.8 58.9-88.2l-.9 10.8c-15 7.2-28 18.9-36.9 34.4-8.9 15.5-12.5 32.6-11.3 49.2l-9 6.2c-.5-4-.8-8.2-.8-12.4zm106.7 0c0 5.5-4 10-9.2 11v8.8c0 1.1-.9 2-2 2s-2-.9-2-2V267c-5.2-.9-9.2-5.5-9.2-11 0-1.3.2-2.6.7-3.8l-7.6-4.4c-1-.6-1.3-1.8-.7-2.7.6-1 1.8-1.3 2.7-.7l7.6 4.4c2-2.4 5.1-3.9 8.5-3.9 3.4 0 6.5 1.5 8.5 3.9l7.6-4.4c1-.6 2.2-.2 2.7.7.6 1 .2 2.2-.7 2.7l-7.6 4.4c.4 1.2.7 2.5.7 3.8zm-37.5-4h-44.6c.6-10.8 3.6-21.5 9.4-31.5s13.6-18 22.6-23.9l22.3 38.6c-5.1 4.1-8.7 10-9.7 16.8zm0 8c1 6.8 4.6 12.7 9.7 16.8l-22.3 38.6c-9-5.9-16.8-13.9-22.6-23.9s-8.8-20.7-9.4-31.5h44.6zm16.6 20.8c3 1.2 6.3 1.8 9.7 1.8 3.4 0 6.7-.7 9.7-1.8l22.3 38.6c-9.6 4.9-20.5 7.6-32 7.6s-22.4-2.8-32-7.6l22.3-38.6zm26.3-4c5.1-4.1 8.7-10 9.7-16.8h44.6c-.6 10.8-3.6 21.5-9.4 31.5s-13.6 18-22.6 23.9l-22.3-38.6zm9.7-24.8c-1-6.8-4.6-12.7-9.7-16.8l22.3-38.6c9 5.9 16.8 13.9 22.6 23.9s8.8 20.7 9.4 31.5h-44.6zm-16.6-20.8c-3-1.2-6.3-1.8-9.7-1.8s-6.7.7-9.7 1.8L224 192.6c9.6-4.9 20.5-7.6 32-7.6s22.4 2.8 32 7.6l-22.3 38.6zm-58 96c13.8 9.3 30.4 14.8 48.2 14.8 17.8 0 34.5-5.5 48.2-14.8l9.9 4.7c-16.1 12.3-36.2 19.6-58 19.6-21.8 0-42-7.3-58.1-19.7l9.8-4.6zm11.8-160.5c-35.2 14.4-60 49-60 89.3 0 4.4.3 8.8.9 13.1l-8.2 5.7c-1.1-6.1-1.7-12.4-1.7-18.8 0-45.7 29.1-84.6 69.8-99.3l-.8 10zM197 332.3c16.3 12.7 36.8 20.2 59 20.2 22.2 0 42.6-7.5 59-20.2l9.1 4.3c-18.4 15.5-42.1 24.9-68 24.9s-49.7-9.4-68.1-25l9-4.2zM351.6 269c.6-4.3.9-8.6.9-13 0-40.2-24.8-74.8-59.9-89.3l-.8-10c40.6 14.7 69.7 53.6 69.7 99.3 0 6.4-.6 12.6-1.7 18.7l-8.2-5.7zM220.4 155.6c-41.3 14.7-70.9 54.1-70.9 100.4 0 6.6.6 13.1 1.8 19.4l-8.1 5.6c-1.8-8-2.7-16.4-2.7-25 0-51.6 34-95.4 80.7-110.1l-.8 9.7zM186.9 337c18.6 15.9 42.7 25.5 69.1 25.5 26.3 0 50.4-9.6 69-25.4l8.9 4.2C313.3 360 286 371.5 256 371.5c-30 0-57.4-11.5-77.9-30.3l8.8-4.2zm173.8-61.7c1.2-6.3 1.8-12.7 1.8-19.3 0-46.2-29.6-85.6-70.8-100.3l-.8-9.8c46.7 14.8 80.6 58.6 80.6 110.1 0 8.6-.9 16.9-2.7 24.9l-8.1-5.6zM221.3 144.8c-47.3 14.8-81.8 59.1-81.8 111.2 0 8.8 1 17.4 2.8 25.6l-7.9 5.5c-2.5-10-3.9-20.4-3.9-31.1 0-57.5 38.8-106 91.6-120.8l-.8 9.6zm-44.2 196.8c20.8 19.2 48.5 30.9 78.9 30.9 30.4 0 58-11.7 78.8-30.8l8.7 4.1c-22.6 22.1-53.5 35.7-87.6 35.7-34.1 0-65-13.6-87.6-35.7l8.8-4.2zm192.6-60.1c1.8-8.2 2.8-16.8 2.8-25.5 0-52.1-34.4-96.3-81.7-111.2l-.8-9.6c52.7 14.9 91.5 63.4 91.5 120.8 0 10.7-1.4 21.1-3.9 31l-7.9-5.5zM222.2 134.1c-53.4 14.8-92.7 63.8-92.7 121.9 0 11 1.4 21.6 4 31.7l-7.8 5.4c-3.4-11.8-5.2-24.3-5.2-37.2 0-63.3 43.7-116.6 102.5-131.4l-.8 9.6zm-54.8 212.1c22.8 22.4 54.1 36.3 88.6 36.3 34.5 0 65.7-13.8 88.5-36.2l8.6 4.1c-24.6 25.4-59.1 41.2-97.2 41.2s-72.6-15.8-97.2-41.2l8.7-4.2zm211.1-58.5c2.6-10.1 4-20.7 4-31.7 0-58.1-39.2-107-92.6-121.9l-.8-9.5c58.7 14.8 102.4 68.1 102.4 131.4 0 12.9-1.8 25.3-5.2 37.1l-7.8-5.4zM223.1 123.5C163.7 138.3 119.5 192 119.5 256c0 13.1 1.9 25.8 5.3 37.8l-7.8 5.4c-4.2-13.6-6.5-28.1-6.5-43.2 0-69.2 48.6-127.2 113.3-141.9l-.7 9.4zm-65.3 227.2c24.8 25.7 59.7 41.8 98.2 41.8s73.3-16 98.1-41.7l8.5 4c-26.6 28.7-64.6 46.7-106.7 46.7-42.1 0-80.1-18-106.7-46.7l8.6-4.1zm229.4-57c3.4-12 5.3-24.6 5.3-37.7 0-63.9-44.1-117.7-103.5-132.5l-.8-9.4C353 128.8 401.5 186.9 401.5 256c0 15-2.3 29.5-6.5 43.1l-7.8-5.4zM223.9 113c-65.4 14.7-114.4 73.2-114.4 143 0 15.2 2.3 29.9 6.7 43.8l-7.7 5.3c-5.2-15.4-8-32-8-49.1 0-75 53.4-137.8 124.2-152.3l-.8 9.3zm-75.6 242.2c26.8 29.1 65.1 47.3 107.7 47.3 42.5 0 80.9-18.2 107.6-47.2l8.5 4c-28.5 32-70 52.2-116.1 52.2-46.1 0-87.7-20.2-116.2-52.3l8.5-4zm247.5-55.5c4.3-13.8 6.7-28.5 6.7-43.7 0-69.7-49-128.2-114.3-142.9l-.8-9.4c70.7 14.6 124.1 77.4 124.1 152.3 0 17.1-2.8 33.6-7.9 49l-7.8-5.3zm-171-197.1C153.4 117.1 99.5 180.4 99.5 256c0 17.4 2.8 34.1 8.1 49.7l-7.7 5.3c-6.1-17.2-9.4-35.7-9.4-55 0-80.9 58.3-148.4 135.1-162.7l-.8 9.3zm-85.9 257.1c28.7 32.4 70.6 52.8 117.1 52.8s88.4-20.4 117.1-52.8l8.5 4c-30.4 35.3-75.4 57.8-125.6 57.8-50.2 0-95.2-22.4-125.6-57.8l8.5-4zm265.5-54.1c5.2-15.6 8.1-32.3 8.1-49.6 0-75.6-53.8-138.8-125.2-153.4l-.8-9.3c76.7 14.4 135 81.8 135 162.7 0 19.3-3.3 37.8-9.4 55l-7.7-5.4zM225.7 92.3C148.3 106.6 89.5 174.6 89.5 256c0 19.5 3.4 38.2 9.6 55.6l-7.7 5.3c-7-19-10.9-39.5-10.9-60.9 0-86.7 63.2-158.9 145.9-173l-.7 9.3zm-96.2 271.8c30.6 35.7 75.9 58.4 126.5 58.4 50.5 0 95.9-22.7 126.5-58.3l8.4 4c-32.2 38.7-80.7 63.4-134.9 63.4s-102.7-24.7-135-63.4l8.5-4.1zM413 311.6c6.2-17.4 9.5-36.1 9.5-55.6 0-81.4-58.7-149.3-136-163.7l-.8-9.3c82.7 14.1 145.8 86.3 145.8 173 0 21.4-3.9 41.9-10.9 60.9l-7.6-5.3zM226.9 77.2l-.4 4.8c-83.3 14.1-147 86.8-147 174 0 21.6 3.9 42.3 11.1 61.5l-3.9 2.7c-1.3.9-2.6 1.6-3.9 2.1-7.9-20.6-12.3-43-12.3-66.3 0-92.4 67.8-169.1 156.3-183.2.2 1.4.2 2.9.1 4.4zM115.7 370.6l4.4-2.1c32.4 39.1 81.3 64 135.9 64 54.6 0 103.4-24.9 135.8-63.9l4.3 2c1.4.6 2.7 1.4 3.8 2.3-34 41.8-85.9 68.6-143.9 68.6s-109.9-26.8-144-68.6c1.1-.9 2.4-1.7 3.7-2.3zm309.7-50.4l-4-2.7c7.1-19.1 11.1-39.9 11.1-61.5 0-87.2-63.6-159.9-146.9-174l-.4-4.8c-.1-1.5-.1-3 .1-4.4 88.4 14.1 156.2 90.8 156.2 183.2 0 23.3-4.3 45.7-12.2 66.3-1.4-.6-2.7-1.2-3.9-2.1zM226.6 71.8C137.7 86 69.5 163.2 69.5 256c0 23.5 4.4 45.9 12.3 66.7-3.1 1.1-6.2 1.3-9.3.9-7.8-21.1-12-43.8-12-67.5 0-96.5 70.2-176.8 162.2-192.7 1.9 2.4 3.3 5.3 3.9 8.4zM111.3 373.5c34.2 42.1 86.4 69 144.7 69 58.3 0 110.5-26.9 144.7-69 2.5 2.1 4.3 4.7 5.5 7.5-35.9 43-89.9 70.5-150.2 70.5-60.3 0-114.3-27.5-150.2-70.5 1.2-2.9 3-5.5 5.5-7.5zm318.9-50.9c8-20.7 12.3-43.2 12.3-66.6 0-92.8-68.2-170-157-184.2.6-3.2 1.9-6.1 3.8-8.5 92 15.8 162.2 96.2 162.2 192.7 0 23.7-4.3 46.5-12 67.6-3.1.4-6.3.1-9.3-1zM209.7 55.8c4.8.7 9.2 3.1 12.3 6.7C129.8 78.6 59.5 159.2 59.5 256c0 23.7 4.2 46.3 11.9 67.4-4.6-.9-8.9-3.5-11.9-7.3-5.8-19-9-39.2-9-60 0-97.5 68.1-179.3 159.2-200.3zM105.4 382.1c36.1 43 90.2 70.4 150.6 70.4 60.4 0 114.5-27.4 150.6-70.4 1.5 4.4 1.5 9.3-.2 13.7-37.5 40.4-91.1 65.7-150.4 65.7-59.4 0-113-25.3-150.5-65.8-1.7-4.4-1.7-9.3-.1-13.6zm335.2-58.7c7.7-21 11.9-43.7 11.9-67.4 0-96.8-70.3-177.4-162.5-193.5 3.1-3.6 7.5-6 12.3-6.7 91.1 21 159.2 102.8 159.2 200.2 0 20.9-3.1 41-9 60-3 3.9-7.2 6.4-11.9 7.4zm-239-267.1c1.5-.4 3.1-.6 4.6-.7C116.3 77.9 49.5 159.3 49.5 256c0 19.8 2.8 38.9 8 57.1-.7-1.3-1.3-2.8-1.7-4.4-13.4-50.9-7.5-107 20.9-156.2 28.4-49.2 74-82.4 124.9-96.2zM462.5 256c0-96.7-66.8-178.1-156.7-200.4 1.5.1 3 .3 4.6.7 50.8 13.8 96.4 47 124.9 96.2 28.4 49.2 34.3 105.3 20.9 156.2-.4 1.6-1 3-1.7 4.4 5.2-18.2 8-37.3 8-57.1z" fill="#36434f"/></svg>