<svg version="1.1" xmlns="http://www.w3.org/2000/svg" x="0" y="0" viewBox="0 0 512 512" xml:space="preserve"><path d="M305.5 159.7V70.1C312.7 67.8 317 65 317 62V42c7.3-3 11.5-6.7 11.5-10.5v-8C328.5 10.5 296 0 256 0s-72.5 10.5-72.5 23.5v8c0 3.9 4.2 7.5 11.5 10.5v20c0 3 4.3 5.8 11.5 8.1v89.6c0 8.8 1.8 17.4 5.3 25.5l30.7 70.8-30.7 70.8c-3.5 8-5.3 16.7-5.3 25.5v89.6c-7.2 2.3-11.5 5.1-11.5 8.1v20c-7.3 3-11.5 6.7-11.5 10.5v8c0 13 32.5 23.5 72.5 23.5s72.5-10.5 72.5-23.5v-8c0-3.9-4.2-7.5-11.5-10.5v-20c0-3-4.3-5.8-11.5-8.1v-89.6c0-8.8-1.8-17.4-5.3-25.5L269.5 256l30.7-70.8c3.5-8.1 5.3-16.7 5.3-25.5zm-10 0c0 7.4-1.5 14.7-4.5 21.5L260.3 252l-1.7 4v138.5c2 .3 4 1 5.8 2.2l31.1 19.2v25.5c-1.4 1-4.8 2.9-11.5 4.6-7.9 2-17.8 3.1-28 3.1s-20.1-1.1-28-3.1c-6.7-1.7-10.1-3.6-11.5-4.6v-25.5l31.1-19.2c1.8-1.1 3.8-1.8 5.8-2.2V256l-1.7-4-30.7-70.8c-3-6.8-4.5-14.1-4.5-21.5V142c0-2.6 17.7-4.8 39.5-4.8s39.5 2.1 39.5 4.8v17.7z" fill="#36434f"/></svg>