<svg xmlns="http://www.w3.org/2000/svg" viewBox="0 0 512 512" style="enable-background:new 0 0 512 512" xml:space="preserve"><path d="M325.9 362.9c-.6-26.4-4.2-174-6.9-234.9-2.1-47.3-6.2-91.7-8.5-113.6-.8-8.2-7.7-14.4-15.9-14.4h-77.2c-8.2 0-15.1 6.2-15.9 14.4-2.2 21.9-6.3 66.3-8.5 113.6-2.7 60.9-6.3 208.5-6.9 234.9-.1 2.2 1.8 4.1 4 4.1-.2 0-.4 0-.6-.1v2.1c0 2.2 1.8 4 4 4h3.5v3.3c0 2.7 1.5 5.3 3.8 6.7 21.1 13 35.2 36.4 35.2 63v23c0 2.2 1.8 4 4 4h3v37c0 1.2.9 2 2 2 .3 0 .5-.1.8-.2l18.3-7.8c3-1.3 4.9-4.2 4.9-7.4V473h3c2.2 0 4-1.8 4-4v-23c0-26.6 14.1-50 35.2-63 2.3-1.4 3.8-3.9 3.8-6.7V373h3.5c2.2 0 4-1.8 4-4v-2.1c-.2 0-.4.1-.6.1 2.3 0 4.1-1.8 4-4.1zM201 128.4c2.1-47 6.2-91.1 8.4-113.2.4-4.1 3.8-7.2 8-7.2h77.2c4.1 0 7.5 3.1 8 7.2 2.2 22.1 6.3 66.1 8.4 113.2 2.6 58 5.9 194.3 6.8 230.6H194.2c.9-36.3 4.2-172.6 6.8-230.6zm60 368.3-10 4.2V473h10v23.7zm46-120.5c-24.4 15.1-39 41.2-39 69.8v19h-24v-19c0-28.6-14.6-54.7-39-69.8V367h102v9.2z" style="fill:#36434f"/></svg>