<svg xmlns="http://www.w3.org/2000/svg" viewBox="0 0 512 512" xml:space="preserve"><path d="M500 0H12C5.4 0 0 5.4 0 12v488c0 6.6 5.4 12 12 12h488c6.6 0 12-5.4 12-12V12c0-6.6-5.4-12-12-12zM256 66c8.3 0 15 6.7 15 15s-6.7 15-15 15-15-6.7-15-15 6.7-15 15-15zm0 380c-8.3 0-15-6.7-15-15s6.7-15 15-15 15 6.7 15 15-6.7 15-15 15zm45.5-243.7v178.1c0 2.3-2 4.1-4.4 4.1h-82.2c-2.4 0-4.4-1.8-4.4-4.1V131.6c0-2.3 2-4.1 4.4-4.1h82.2c2.4 0 4.4 1.8 4.4 4.1v70.7zm-81 19.7h71v152.5h-71V222zm0-84.5h71V207h-71v-69.5z" fill="#36434f"/></svg>