<svg version="1.1" xmlns="http://www.w3.org/2000/svg" x="0" y="0" viewBox="0 0 512 512" xml:space="preserve"><path d="M268.6 511.7c.8 0 1.6-.1 2.4-.1 1.3-.1 2.6-.2 3.9-.2.8-.1 1.6-.1 2.5-.2 1.3-.1 2.5-.2 3.8-.3l2.4-.3c1.3-.1 2.5-.3 3.8-.4l2.4-.3c1.3-.2 2.6-.4 3.9-.5.7-.1 1.4-.2 2.2-.3 1.4-.2 2.8-.5 4.2-.7l1.8-.3c1.7-.3 3.4-.6 5.1-1 .3-.1.6-.1.8-.2 4.1-.8 8.1-1.8 12.1-2.8.3-.1.6-.2.9-.2 1.7-.4 3.3-.9 5-1.4.5-.1.9-.3 1.4-.4 1.5-.4 3-.9 4.4-1.3.5-.2 1.1-.3 1.6-.5 1.4-.4 2.8-.9 4.2-1.4.5-.2 1.1-.4 1.6-.5l4.2-1.5c.5-.2 1-.4 1.6-.6 1.4-.5 2.8-1.1 4.3-1.6.5-.2.9-.4 1.4-.5 1.5-.6 3-1.2 4.6-1.9.3-.1.7-.3 1-.4 5.6-2.4 11.1-4.9 16.4-7.7.5-.2.9-.5 1.4-.7 1.3-.7 2.6-1.3 3.8-2 .6-.3 1.3-.7 1.9-1.1 1.1-.6 2.1-1.2 3.2-1.8.8-.4 1.5-.9 2.2-1.3.9-.5 1.8-1.1 2.7-1.6.8-.5 1.7-1 2.5-1.5s1.6-1 2.3-1.5c.9-.6 1.8-1.2 2.8-1.8.6-.4 1.2-.8 1.9-1.2 1-.7 2.1-1.4 3.1-2.1.4-.3.7-.5 1.1-.8 25.6-17.7 47.9-39.9 65.6-65.6.3-.4.5-.8.8-1.1.7-1 1.4-2.1 2.1-3.1.4-.6.8-1.3 1.2-1.9l1.8-2.7c.5-.8 1-1.6 1.5-2.3.5-.8 1-1.7 1.5-2.5.5-.9 1.1-1.8 1.6-2.7.4-.7.9-1.5 1.3-2.2.6-1.1 1.2-2.1 1.8-3.2.4-.6.7-1.3 1.1-1.9.7-1.3 1.4-2.6 2-3.8.2-.4.5-.9.7-1.3 2.7-5.4 5.3-10.9 7.7-16.4.1-.3.3-.7.4-1 .6-1.5 1.3-3 1.9-4.6.2-.5.4-.9.5-1.4.6-1.4 1.1-2.8 1.6-4.3l.6-1.5 1.5-4.2c.2-.5.4-1.1.5-1.6.5-1.4.9-2.8 1.4-4.2.2-.5.3-1 .5-1.6.5-1.5.9-3 1.3-4.4.1-.5.3-.9.4-1.4.5-1.7.9-3.3 1.4-5 .1-.3.2-.6.2-.9 1-4 2-8 2.8-12.1.1-.3.1-.6.2-.8.3-1.7.7-3.4 1-5.1l.3-1.8c.2-1.4.5-2.8.7-4.2.1-.7.2-1.4.3-2.2.2-1.3.4-2.6.5-3.9l.3-2.4c.2-1.3.3-2.5.4-3.8l.3-2.4c.1-1.3.2-2.5.3-3.8.1-.8.1-1.6.2-2.5.1-1.3.2-2.6.2-3.9 0-.8.1-1.6.1-2.4.1-1.4.1-2.8.2-4.2 0-.7.1-1.4.1-2 .1-2.1.1-4.2.1-6.3s0-4.2-.1-6.3c0-.7 0-1.4-.1-2 0-1.4-.1-2.8-.2-4.2 0-.8-.1-1.6-.1-2.4-.1-1.3-.2-2.6-.2-3.9-.1-.8-.1-1.6-.2-2.5-.1-1.3-.2-2.5-.3-3.8l-.3-2.4c-.1-1.3-.3-2.5-.4-3.8l-.3-2.4c-.2-1.3-.4-2.6-.5-3.9-.1-.7-.2-1.4-.3-2.2-.2-1.4-.5-2.8-.7-4.2l-.3-1.8c-.3-1.7-.6-3.4-1-5.1-.1-.3-.1-.6-.2-.8-.8-4.1-1.8-8.1-2.8-12.1-.1-.3-.2-.6-.2-.9-.4-1.7-.9-3.3-1.4-5-.1-.5-.3-.9-.4-1.4-.4-1.5-.9-3-1.3-4.4-.2-.5-.3-1.1-.5-1.6-.4-1.4-.9-2.8-1.4-4.2-.2-.5-.4-1.1-.5-1.6l-1.5-4.2c-.2-.5-.4-1-.6-1.6-.5-1.4-1.1-2.8-1.6-4.3-.2-.5-.4-.9-.5-1.4-.6-1.5-1.2-3-1.9-4.6-.1-.3-.3-.7-.4-1-2.4-5.6-4.9-11.1-7.7-16.4-.2-.5-.5-.9-.7-1.4-.7-1.3-1.3-2.6-2-3.8-.3-.6-.7-1.3-1.1-1.9-.6-1.1-1.2-2.1-1.8-3.2-.4-.7-.9-1.5-1.3-2.2-.5-.9-1.1-1.8-1.6-2.7-.5-.8-1-1.7-1.5-2.5s-1-1.6-1.5-2.3c-.6-.9-1.2-1.8-1.8-2.8-.4-.6-.8-1.3-1.2-1.9-.7-1-1.4-2.1-2.1-3.1-.3-.4-.5-.7-.8-1.1-17.7-25.6-39.9-47.9-65.6-65.6-.4-.3-.7-.5-1.1-.8-1-.7-2.1-1.4-3.1-2.1-.6-.4-1.2-.8-1.9-1.2-.9-.6-1.8-1.2-2.8-1.8-.8-.5-1.6-1-2.3-1.5-.8-.5-1.7-1-2.5-1.5-.9-.5-1.8-1.1-2.7-1.6-.7-.4-1.5-.9-2.2-1.3-1-.6-2.1-1.2-3.2-1.8-.6-.4-1.3-.7-1.9-1.1-1.3-.7-2.5-1.4-3.8-2-.5-.2-.9-.5-1.4-.7-5.4-2.7-10.8-5.3-16.4-7.7-.3-.1-.7-.3-1-.4-1.5-.6-3-1.3-4.6-1.9-.5-.2-.9-.4-1.4-.5-1.4-.6-2.8-1.1-4.3-1.6-.5-.2-1-.4-1.6-.6l-4.2-1.5c-.5-.2-1.1-.4-1.6-.5-1.4-.5-2.8-.9-4.2-1.4-.5-.2-1-.3-1.6-.5-1.5-.5-2.9-.9-4.4-1.3-.5-.1-.9-.3-1.4-.4-1.7-.5-3.3-.9-5-1.4-.3-.1-.6-.2-.9-.2-4-1-8-2-12.1-2.8-.3-.1-.6-.1-.8-.2-1.7-.3-3.4-.7-5.1-1l-1.8-.3c-1.4-.2-2.8-.5-4.2-.7-.7-.1-1.4-.2-2.2-.3-1.3-.2-2.6-.4-3.9-.5l-2.4-.3c-1.3-.2-2.5-.3-3.8-.4l-2.4-.3c-1.3-.1-2.5-.2-3.8-.3-.8-.1-1.6-.1-2.5-.2-1.3-.1-2.6-.2-3.9-.2-.8 0-1.6-.1-2.4-.1-1.4-.1-2.8-.1-4.2-.2-.7 0-1.4-.1-2-.1-2.2-.1-4.3-.1-6.4-.1s-4.2 0-6.3.1c-.7 0-1.4 0-2 .1-1.4 0-2.8.1-4.2.2-.8 0-1.6.1-2.4.1-1.3.1-2.6.2-3.9.2-.8.1-1.6.1-2.5.2-1.3.1-2.5.2-3.8.3l-2.4.3c-1.3.1-2.5.3-3.8.4l-2.4.3c-1.3.2-2.6.4-3.9.5-.7.1-1.4.2-2.2.3-1.4.2-2.8.5-4.2.7l-1.8.3c-1.7.3-3.4.6-5.1 1-.3.1-.6.1-.8.2-4.1.8-8.1 1.8-12.1 2.8-.3.1-.6.2-.9.2-1.7.4-3.3.9-5 1.4-.5.1-.9.3-1.4.4-1.5.4-3 .9-4.4 1.3-.5.2-1.1.3-1.6.5-1.4.4-2.8.9-4.2 1.4-.5.2-1.1.4-1.6.5l-4.2 1.5-1.5.6c-1.4.5-2.8 1.1-4.3 1.6-.5.2-.9.4-1.4.5-1.5.6-3 1.2-4.6 1.9-.3.1-.7.3-1 .4-5.6 2.4-11.1 4.9-16.4 7.7-.5.2-.9.5-1.3.7-1.3.7-2.6 1.3-3.8 2-.6.3-1.3.7-1.9 1.1-1.1.6-2.1 1.2-3.2 1.8-.8.4-1.5.9-2.2 1.3-.9.5-1.8 1.1-2.7 1.6-.8.5-1.7 1-2.5 1.5s-1.6 1-2.3 1.5c-.9.6-1.8 1.2-2.8 1.8-.6.4-1.2.8-1.9 1.2-1 .7-2.1 1.4-3.1 2.1-.4.3-.8.5-1.1.8C85.3 63 63 85.2 45.3 110.9c-.3.4-.5.7-.8 1.1-.7 1-1.4 2.1-2.1 3.1-.4.6-.8 1.2-1.2 1.9-.6.9-1.2 1.8-1.8 2.8-.5.8-1 1.6-1.5 2.3-.5.8-1 1.7-1.5 2.5-.5.9-1.1 1.8-1.6 2.7-.4.7-.9 1.5-1.3 2.2-.6 1-1.2 2.1-1.8 3.2-.4.6-.7 1.3-1.1 1.9-.7 1.3-1.4 2.5-2 3.8-.2.5-.5.9-.7 1.4-2.7 5.4-5.3 10.8-7.7 16.4-.1.3-.3.7-.4 1-.6 1.5-1.3 3-1.9 4.6-.2.5-.4.9-.5 1.4-.6 1.4-1.1 2.8-1.6 4.3-.2.5-.4 1-.6 1.6l-1.5 4.2c-.2.5-.4 1.1-.5 1.6-.5 1.4-.9 2.8-1.4 4.2-.2.5-.3 1-.5 1.6-.5 1.5-.9 3-1.3 4.4-.1.5-.3.9-.4 1.4-.5 1.7-.9 3.3-1.4 5-.1.3-.2.6-.2.9-1 4-2 8-2.8 12.1-.1.3-.1.6-.2.8-.3 1.7-.7 3.4-1 5.1l-.3 1.8c-.2 1.4-.5 2.8-.7 4.2-.1.7-.2 1.4-.3 2.2-.2 1.3-.4 2.6-.5 3.9l-.3 2.4c-.2 1.3-.3 2.5-.4 3.8l-.3 2.4c-.1 1.3-.2 2.5-.3 3.8-.1.8-.1 1.6-.2 2.5-.1 1.3-.2 2.6-.2 3.9 0 .8-.1 1.6-.1 2.4-.1 1.4-.1 2.8-.2 4.2 0 .7-.1 1.4-.1 2-.1 1.9-.1 4-.1 6.1s0 4.2.1 6.3c0 .7 0 1.4.1 2 0 1.4.1 2.8.2 4.2 0 .8.1 1.6.1 2.4.1 1.3.2 2.6.2 3.9.1.8.1 1.6.2 2.5.1 1.3.2 2.5.3 3.8l.3 2.4c.1 1.3.3 2.5.4 3.8l.3 2.4c.2 1.3.4 2.6.5 3.9.1.7.2 1.4.3 2.2.2 1.4.5 2.8.7 4.2l.3 1.8c.3 1.7.6 3.4 1 5.1.1.3.1.6.2.8.8 4.1 1.8 8.1 2.8 12.1.1.3.2.6.2.9.4 1.7.9 3.3 1.4 5 .1.5.3.9.4 1.4.4 1.5.9 3 1.3 4.4.2.5.3 1.1.5 1.6.4 1.4.9 2.8 1.4 4.2.2.5.4 1.1.5 1.6l1.5 4.2c.2.5.4 1 .6 1.6.5 1.4 1.1 2.8 1.6 4.3.2.5.4.9.5 1.4.6 1.5 1.2 3 1.9 4.6.1.3.3.7.4 1 2.4 5.6 4.9 11.1 7.7 16.4.2.5.5.9.7 1.3.7 1.3 1.3 2.6 2 3.8.3.6.7 1.3 1.1 1.9.6 1.1 1.2 2.1 1.8 3.2.4.8.9 1.5 1.3 2.2.5.9 1.1 1.8 1.6 2.7.5.8 1 1.7 1.5 2.5s1 1.6 1.5 2.3c.6.9 1.2 1.8 1.8 2.8.4.6.8 1.2 1.2 1.9.7 1 1.4 2.1 2.1 3.1.3.4.5.8.8 1.1 17.7 25.6 39.9 47.9 65.6 65.6.4.3.7.5 1.1.8 1 .7 2.1 1.4 3.1 2.1.6.4 1.2.8 1.9 1.2.9.6 1.8 1.2 2.8 1.8.8.5 1.6 1 2.3 1.5.8.5 1.7 1 2.5 1.5.9.5 1.8 1.1 2.7 1.6.7.4 1.5.9 2.2 1.3 1 .6 2.1 1.2 3.2 1.8.6.4 1.3.7 1.9 1.1 1.3.7 2.6 1.4 3.8 2 .4.2.9.5 1.3.7 5.4 2.7 10.9 5.3 16.4 7.7.3.1.7.3 1 .4 1.5.6 3 1.3 4.6 1.9.5.2.9.4 1.4.5 1.4.6 2.8 1.1 4.3 1.6.5.2 1 .4 1.6.6l4.2 1.5c.5.2 1.1.4 1.6.5 1.4.5 2.8.9 4.2 1.4.5.2 1 .3 1.6.5 1.5.5 3 .9 4.4 1.3.5.1.9.3 1.4.4 1.7.5 3.3.9 5 1.4.3.1.6.2.9.2 4 1 8 2 12.1 2.8.3.1.5.1.8.2 1.7.3 3.4.7 5.1 1l1.8.3c1.4.2 2.8.5 4.2.7.7.1 1.4.2 2.2.3 1.3.2 2.6.4 3.9.5l2.4.3c1.3.2 2.5.3 3.8.4l2.4.3c1.3.1 2.5.2 3.8.3.8.1 1.6.1 2.5.2 1.3.1 2.6.2 3.9.2.8 0 1.6.1 2.4.1 1.4.1 2.8.1 4.2.2.7 0 1.4.1 2 .1 2.1.1 4.2.1 6.3.1s4.2 0 6.3-.1c.7 0 1.4 0 2-.1 1.3-.1 2.8-.1 4.2-.2zM252.5 402h-1.1c-.8 0-1.6-.1-2.4-.1-.4 0-.8 0-1.2-.1-.8 0-1.6-.1-2.3-.1-.4 0-.8-.1-1.1-.1-.9-.1-1.8-.2-2.7-.2-.2 0-.5 0-.7-.1-1.2-.1-2.3-.2-3.4-.4-.2 0-.3 0-.5-.1-1-.1-1.9-.3-2.9-.4-.3 0-.7-.1-1-.2-.8-.1-1.6-.3-2.4-.4-.3-.1-.7-.1-1-.2-.8-.1-1.6-.3-2.5-.5-.3-.1-.6-.1-.9-.2-1.1-.2-2.2-.5-3.3-.7-1.1-.3-2.2-.5-3.3-.8-.3-.1-.5-.1-.8-.2l-2.4-.6c-.4-.1-.7-.2-1.1-.3l-2.1-.6c-.4-.1-.8-.2-1.2-.4-.7-.2-1.4-.4-2.1-.7-.4-.1-.7-.2-1.1-.4-1-.3-2-.7-3-1-.4-.2-.8-.3-1.3-.5-.6-.2-1.2-.4-1.7-.7-.5-.2-1.1-.4-1.6-.7-.4-.2-.9-.4-1.3-.5-.6-.2-1.2-.5-1.8-.8-.3-.1-.7-.3-1-.4-.7-.3-1.3-.6-2-.9-.1-.1-.3-.1-.4-.2-9.6-4.4-18.6-9.9-26.9-16.2-10.7-8.1-20.2-17.6-28.3-28.3-6.3-8.3-11.8-17.4-16.2-26.9-.1-.1-.1-.3-.2-.4-.3-.7-.6-1.3-.9-2-.1-.3-.3-.7-.4-1-.3-.6-.5-1.2-.8-1.8-.2-.4-.4-.9-.5-1.3-.2-.5-.4-1.1-.7-1.6-.2-.6-.4-1.2-.7-1.7-.2-.4-.3-.8-.5-1.3-.4-1-.7-2-1-3-.1-.4-.2-.7-.4-1.1-.2-.7-.5-1.4-.7-2.1-.1-.4-.2-.8-.4-1.2l-.6-2.1c-.1-.4-.2-.7-.3-1.1l-.6-2.4c-.1-.3-.1-.5-.2-.8-.3-1.1-.6-2.2-.8-3.3-.3-1.1-.5-2.2-.7-3.3-.1-.3-.1-.6-.2-.9-.2-.8-.3-1.6-.5-2.5-.1-.3-.1-.7-.2-1-.1-.8-.3-1.6-.4-2.4-.1-.3-.1-.7-.2-1-.1-1-.3-1.9-.4-2.9 0-.2 0-.3-.1-.5-.1-1.1-.3-2.3-.4-3.4 0-.2 0-.5-.1-.7-.1-.9-.2-1.8-.2-2.7 0-.4-.1-.8-.1-1.1-.1-.8-.1-1.6-.1-2.3 0-.4 0-.8-.1-1.2 0-.8-.1-1.6-.1-2.4v-9.2c0-.8.1-1.6.1-2.4 0-.4 0-.8.1-1.2 0-.8.1-1.6.1-2.3 0-.4.1-.8.1-1.1.1-.9.2-1.8.2-2.7 0-.2 0-.5.1-.7.1-1.2.2-2.3.4-3.4 0-.2 0-.3.1-.5.1-1 .3-1.9.4-2.9 0-.3.1-.7.2-1 .1-.8.3-1.6.4-2.4.1-.3.1-.7.2-1 .1-.8.3-1.6.5-2.5.1-.3.1-.6.2-.9.2-1.1.5-2.2.7-3.3.3-1.1.5-2.2.8-3.3.1-.3.1-.5.2-.8l.6-2.4c.1-.4.2-.7.3-1.1l.6-2.1c.1-.4.2-.8.4-1.2.2-.7.4-1.4.7-2.1.1-.4.2-.7.4-1.1.3-1 .7-2 1-3 .2-.4.3-.8.5-1.3.2-.6.4-1.2.7-1.7.2-.5.4-1.1.7-1.6.2-.4.4-.9.5-1.3.2-.6.5-1.2.8-1.8.1-.3.3-.7.4-1 .3-.7.6-1.3.9-2 .1-.1.1-.3.2-.4 4.4-9.6 9.9-18.6 16.2-26.9 8.1-10.7 17.6-20.2 28.3-28.3 8.3-6.3 17.4-11.8 26.9-16.2.1-.1.3-.1.4-.2.7-.3 1.3-.6 2-.9.3-.1.7-.3 1-.4.6-.3 1.2-.5 1.8-.8.4-.2.9-.4 1.3-.5.5-.2 1.1-.4 1.6-.7.6-.2 1.1-.4 1.7-.7.4-.2.9-.3 1.3-.5 1-.4 2-.7 3-1 .4-.1.7-.2 1.1-.4.7-.2 1.4-.5 2.1-.7.4-.1.8-.2 1.2-.4l2.1-.6c.4-.1.7-.2 1.1-.3l2.4-.6c.3-.1.6-.1.8-.2 1.1-.3 2.2-.6 3.3-.8 1.1-.2 2.2-.5 3.3-.7.3-.1.6-.1.9-.2.8-.2 1.6-.3 2.5-.5.3-.1.7-.1 1-.2.8-.1 1.6-.3 2.4-.4.3-.1.7-.1 1-.2 1-.1 1.9-.3 2.9-.4.2 0 .3 0 .5-.1 1.1-.1 2.3-.3 3.4-.4.2 0 .5 0 .7-.1.9-.1 1.8-.2 2.7-.2.4 0 .8-.1 1.1-.1.8-.1 1.6-.1 2.3-.1.4 0 .8 0 1.2-.1.8 0 1.6-.1 2.4-.1h9.2c.8 0 1.6.1 2.4.1.4 0 .8 0 1.2.1.8 0 1.6.1 2.3.1.4 0 .8.1 1.1.1.9.1 1.8.2 2.7.2.2 0 .5 0 .7.1 1.2.1 2.3.2 3.4.4.2 0 .3 0 .5.1 1 .1 1.9.3 2.9.4.3 0 .7.1 1 .2.8.1 1.6.3 2.4.4.3.1.7.1 1 .2.8.1 1.6.3 2.5.5.3.1.6.1.9.2 1.1.2 2.2.5 3.3.7 1.1.3 2.2.5 3.3.8.3.1.6.1.8.2l2.4.6c.4.1.7.2 1.1.3l2.1.6c.4.1.8.2 1.2.4.7.2 1.4.4 2.1.7.4.1.7.2 1.1.4 1 .3 2 .7 3 1 .4.2.9.3 1.3.5.6.2 1.2.4 1.7.7.5.2 1.1.4 1.6.7.4.2.9.4 1.3.5.6.2 1.2.5 1.8.8.3.1.7.3 1 .4.7.3 1.3.6 2 .9.1.1.3.1.4.2 9.6 4.4 18.6 9.9 26.9 16.2 10.7 8.1 20.2 17.6 28.3 28.3 6.3 8.3 11.8 17.3 16.2 26.9.1.1.1.3.2.4.3.7.6 1.3.9 2 .2.3.3.7.5 1 .3.6.5 1.2.8 1.8.2.4.4.9.5 1.3.2.5.4 1.1.6 1.6.2.6.4 1.2.7 1.8.2.4.3.8.5 1.2.4 1 .7 2 1 3 .1.4.2.7.4 1.1.2.7.5 1.4.7 2.1.1.4.2.8.4 1.2l.6 2.1c.1.4.2.7.3 1.1.2.8.4 1.6.7 2.4.1.3.1.5.2.8.6 2.2 1.1 4.4 1.5 6.6.1.3.1.6.2.9.2.8.3 1.6.5 2.5.1.3.1.7.2 1 .1.8.3 1.6.4 2.4.1.3.1.6.2 1 .1 1 .3 1.9.4 2.9 0 .2 0 .3.1.5.1 1.1.3 2.3.4 3.5 0 .2 0 .5.1.7.1.9.2 1.8.2 2.7 0 .4.1.8.1 1.1.1.8.1 1.6.1 2.3 0 .4 0 .8.1 1.2 0 .8.1 1.6.1 2.4v9.2c0 .8-.1 1.6-.1 2.4 0 .4 0 .8-.1 1.2 0 .8-.1 1.6-.1 2.3 0 .4-.1.8-.1 1.1-.1.9-.2 1.8-.2 2.7 0 .2 0 .5-.1.7-.1 1.2-.2 2.3-.4 3.5 0 .2 0 .3-.1.5-.1 1-.3 1.9-.4 2.9 0 .3-.1.6-.2 1-.1.8-.3 1.6-.4 2.4-.1.3-.1.7-.2 1-.2.8-.3 1.6-.5 2.5-.1.3-.1.6-.2.9l-1.5 6.6c-.1.3-.1.5-.2.8-.2.8-.4 1.6-.7 2.4-.1.4-.2.7-.3 1.1l-.6 2.1c-.1.4-.2.8-.4 1.2-.2.7-.4 1.4-.7 2.1-.1.4-.2.7-.4 1.1-.3 1-.7 2-1 3-.2.4-.3.8-.5 1.2-.2.6-.4 1.2-.7 1.8-.2.5-.4 1.1-.6 1.6-.2.4-.4.9-.5 1.3-.2.6-.5 1.2-.8 1.8-.1.3-.3.7-.5 1-.3.7-.6 1.3-.9 2-.1.1-.1.3-.2.4-4.4 9.6-9.9 18.6-16.2 26.9-8.1 10.7-17.6 20.2-28.3 28.3-8.3 6.3-17.3 11.8-26.9 16.2-.1.1-.3.1-.4.2-.7.3-1.3.6-2 .9-.3.1-.7.3-1 .4-.6.3-1.2.5-1.8.8-.4.2-.9.4-1.3.5-.5.2-1.1.4-1.6.6-.6.2-1.2.4-1.7.7-.4.2-.8.3-1.3.5-1 .4-2 .7-3 1-.4.1-.7.2-1.1.4-.7.2-1.4.5-2.1.7-.4.1-.8.2-1.2.4l-2.1.6c-.4.1-.7.2-1.1.3l-2.4.6c-.3.1-.5.1-.8.2-1.1.3-2.2.6-3.3.8-1.1.3-2.2.5-3.3.7-.3.1-.6.1-.9.2-.8.2-1.6.3-2.5.5-.3.1-.7.1-1 .2-.8.1-1.6.3-2.4.4-.3.1-.7.1-1 .2-1 .1-1.9.3-2.9.4-.2 0-.3 0-.5.1-1.1.1-2.3.3-3.4.4-.2 0-.5 0-.7.1-.9.1-1.8.2-2.7.2-.4 0-.8.1-1.1.1-.8.1-1.6.1-2.3.1-.4 0-.8 0-1.2.1-.8 0-1.6.1-2.4.1H256c-1.2 0-2.3-.1-3.5-.1zm22-379c-3 0-5.5-2.5-5.5-5.5s2.5-5.5 5.5-5.5 5.5 2.5 5.5 5.5-2.5 5.5-5.5 5.5zm-37 0c-3 0-5.5-2.5-5.5-5.5s2.5-5.5 5.5-5.5 5.5 2.5 5.5 5.5-2.5 5.5-5.5 5.5zm0 466c3 0 5.5 2.5 5.5 5.5s-2.5 5.5-5.5 5.5-5.5-2.5-5.5-5.5 2.5-5.5 5.5-5.5zm37 0c3 0 5.5 2.5 5.5 5.5s-2.5 5.5-5.5 5.5-5.5-2.5-5.5-5.5 2.5-5.5 5.5-5.5zm155.4-59.1c-4.7 4.7-9.7 9.3-14.7 13.6l-64-64c10.6-8.2 20.1-17.7 28.3-28.3l64 64c-4.3 5.1-8.8 10-13.6 14.7zM494.5 280c-3 0-5.5-2.5-5.5-5.5s2.5-5.5 5.5-5.5 5.5 2.5 5.5 5.5-2.5 5.5-5.5 5.5zm0-37c-3 0-5.5-2.5-5.5-5.5s2.5-5.5 5.5-5.5 5.5 2.5 5.5 5.5-2.5 5.5-5.5 5.5zm-51-146.2l-64 64c-8.2-10.6-17.7-20.1-28.3-28.3l64-64c5.1 4.3 10 8.8 14.7 13.6s9.3 9.6 13.6 14.7zM82.1 82.1c4.7-4.7 9.7-9.3 14.7-13.6l64 64c-10.6 8.2-20.1 17.7-28.3 28.3l-64-64c4.3-5.1 8.8-10 13.6-14.7zM17.5 232c3 0 5.5 2.5 5.5 5.5s-2.5 5.5-5.5 5.5-5.5-2.5-5.5-5.5 2.5-5.5 5.5-5.5zm0 37c3 0 5.5 2.5 5.5 5.5s-2.5 5.5-5.5 5.5-5.5-2.5-5.5-5.5 2.5-5.5 5.5-5.5zm51 146.2l64-64c8.2 10.6 17.7 20.1 28.3 28.3l-64 64c-5.1-4.3-10-8.8-14.7-13.6s-9.3-9.6-13.6-14.7z" fill="#36434f"/></svg>