<svg xmlns="http://www.w3.org/2000/svg" viewBox="0 0 512 512" xml:space="preserve"><path d="M436 0H76v71h360V0zM301 61c-7.3 0-13.5-4.6-15.9-11h-58.2c-2.4 6.4-8.6 11-15.9 11-9.4 0-17-7.6-17-17s7.6-17 17-17c7.3 0 13.5 4.6 15.9 11h58.2c2.4-6.4 8.6-11 15.9-11 9.4 0 17 7.6 17 17s-7.6 17-17 17zm3.6 179c-3.1-3.6-4.6-8.4-4.6-14.4s1.5-10.7 4.6-14.2c3.1-3.4 7.4-5.1 12.9-5.1 5.6 0 9.9 1.8 13 5.3 3.1 3.5 4.6 8.2 4.6 14 0 5.9-1.5 10.7-4.6 14.4-3 3.6-7.4 5.4-13 5.4-5.5 0-9.8-1.8-12.9-5.4zm28 35.2c3.8 3.9 5.6 9.1 5.6 15.6 0 6.6-1.8 11.8-5.5 15.6-3.7 3.8-8.7 5.6-15.1 5.6-6.6 0-11.7-1.9-15.4-5.8s-5.5-9-5.5-15.4c0-6.6 1.9-11.8 5.6-15.6 3.8-3.9 8.8-5.8 15.1-5.8 6.4-.1 11.4 1.9 15.2 5.8zM76 79v433h360V79H76zm117 17h126v23H193V96zm-60.5 45h247v3h-247v-3zm77.3 71.1c-3.4-3.8-8.1-5.7-14.4-5.7-6.7 0-12 2.3-15.8 6.9-3.9 4.6-5.8 10.7-5.8 18.2H144c0-9.1 2.2-17.4 6.5-24.9s10.5-13.4 18.4-17.7c7.9-4.3 16.9-6.4 27-6.4 15.4 0 27.3 3.7 35.8 11.1s12.8 17.8 12.8 31.3c0 7.4-1.9 14.9-5.7 22.6-3.8 7.7-10.4 16.6-19.7 26.8l-33.9 35.8h64.2V334H147v-20.3l48.3-51.5c6.6-7.2 11.5-13.6 14.7-19 3.2-5.4 4.8-10.5 4.8-15.4 0-6.7-1.7-11.9-5-15.7zM158 427h56v14h-56v-14zm13 24h119v14H171v-14zm50-10v-14h8v14h-8zm15 0v-14h59v14h-59zm-64-37v-36h168v36H172zm145.6-68.1c-15.5 0-27.8-3.9-36.9-11.6-9.1-7.7-13.6-18.2-13.6-31.4 0-8.3 2.1-15.5 6.4-21.6 4.2-6.2 9.9-10.9 17.1-14.4-6.4-3.3-11.3-7.8-14.9-13.4-3.6-5.6-5.4-12-5.4-19.3 0-12.7 4.2-22.8 12.7-30.4 8.5-7.6 20-11.3 34.6-11.3 14.5 0 26 3.7 34.5 11.2 8.5 7.5 12.8 17.7 12.8 30.5 0 7.2-1.8 13.7-5.4 19.3-3.6 5.6-8.6 10.1-15 13.4 7.2 3.5 13 8.3 17.2 14.4 4.2 6.1 6.4 13.3 6.4 21.6 0 13.3-4.5 23.7-13.5 31.4-9.2 7.7-21.5 11.6-37 11.6zM129 427h22v14h-22v-14zm0 24h35v14h-35v-14zm45 38h-45v-14h45v14zm19 0h-12v-14h12v14zm78 0h-71v-14h71v14zm63 0h-56v-14h56v14zm3-24h-40v-14h40v14zm46 24h-42v-14h42v14zm0-24h-39v-14h39v14zm0-24h-81v-14h81v14z" fill="#36434f"/></svg>