<svg version="1.1" xmlns="http://www.w3.org/2000/svg" x="0" y="0" viewBox="0 0 512 512" style="enable-background:new 0 0 512 512" xml:space="preserve"><path d="M256 0C114.6 0 0 114.6 0 256s114.6 256 256 256 256-114.6 256-256S397.4 0 256 0zm206.4 168.8c9.6 22.7 15.3 46.6 17 71.2H376.5c3.2-48.8 21.1-93.6 49.2-130.1 15.3 17.6 27.6 37.4 36.7 58.9zm-59.5-81.9c-34.9 43.8-55.2 96.8-58.5 153.1H272V32.6c24.6 1.7 48.5 7.4 71.2 17 21.8 9.2 41.9 21.8 59.7 37.3zM240 32.6V240h-72.5c-3.2-56.3-23.6-109.3-58.5-153.1 17.9-15.6 37.9-28.1 59.7-37.3 22.8-9.6 46.7-15.3 71.3-17zM86.2 109.9c28.1 36.5 46 81.4 49.2 130.1H32.6c1.7-24.6 7.4-48.5 17-71.2 9.1-21.5 21.4-41.3 36.6-58.9zM49.6 343.2c-9.6-22.7-15.3-46.6-17-71.2h102.9c-3.2 48.8-21.1 93.6-49.2 130.1-15.3-17.6-27.6-37.4-36.7-58.9zm59.5 81.9c34.9-43.8 55.2-96.8 58.5-153.1H240v207.4c-24.6-1.7-48.5-7.4-71.2-17-21.8-9.2-41.9-21.8-59.7-37.3zM272 479.4V272h72.5c3.2 56.3 23.6 109.3 58.5 153.1-17.9 15.6-37.9 28.1-59.7 37.3-22.8 9.6-46.7 15.3-71.3 17zm153.8-77.3c-28.1-36.5-46-81.4-49.2-130.1h102.9c-1.7 24.6-7.4 48.5-17 71.2-9.2 21.5-21.5 41.3-36.7 58.9z" style="fill:#36434f"/></svg>