<svg version="1.1" xmlns="http://www.w3.org/2000/svg" x="0" y="0" viewBox="0 0 512 512" xml:space="preserve"><path d="M256 0C114.8 0 0 114.8 0 256s114.8 256 256 256 256-114.8 256-256S397.2 0 256 0zm0 480.2C132.4 480.2 31.8 379.6 31.8 256S132.4 31.8 256 31.8 480.2 132.4 480.2 256 379.6 480.2 256 480.2zM104.6 121.5l-6.6-6 1.7-1.9 6.6 6-1.7 1.9zM71.4 339.6l-8 3.6-1.1-2.3 8.1-3.6 1 2.3zm27.8-175.2l8-6.4h4.2v24.8h-5.2v-14.3l.1-2.4.1-2.6c-.9.9-1.5 1.4-1.8 1.7l-2.8 2.3-2.6-3.1zM91.4 138l-7.2-5.2 1.5-2.1 7.1 5.2-1.4 2.1zm-1.3 218.8L75 365.4l-4.4-7.5 15.1-8.7 4.4 7.6zm30.1-196.1c-1.3 2.1-2 5.3-2 9.7 0 4.2.7 7.4 2.1 9.5 1.4 2.1 3.6 3.2 6.4 3.2s5.1-1.1 6.5-3.1c1.4-2.1 2.1-5.3 2.1-9.6 0-4.1-.7-7.4-2.1-9.6-1.5-2.1-3.6-3.2-6.5-3.2-3 0-5.1 1.1-6.5 3.1zm3.9 3.1c.5-1.3 1.4-2 2.6-2s2.1.7 2.6 2c.6 1.3.8 3.5.8 6.5s-.2 5.2-.8 6.5c-.6 1.3-1.4 2-2.6 2s-2.1-.7-2.6-2c-.6-1.3-.8-3.5-.8-6.5s.3-5.2.8-6.5zm-4.7-57.5l-5.9-6.6 1.9-1.7 5.9 6.6-1.9 1.7zm-33.7 56.5l-15.1-8.7 4.4-7.5 15 8.6-4.3 7.6zM58 299.4l-8.7 1.8-.5-2.5 8.7-1.8.5 2.5zm33.3 74.7l1.5 2.1-7.2 5.2-1.5-2.1 7.2-5.2zm-36.7-95.6l-8.8.9-.2-2.6 8.8-.9.2 2.6zm-.2-42.4l-8.7-.9.2-2.6 8.8.9-.3 2.6zm8.5-41.5l-8.5-2.7.9-2.4 8.4 2.7-.8 2.4zm-5.3 20.5l-8.7-1.8.5-2.5 8.7 1.8-.5 2.5zm12.8-40.3l-8.1-3.6 1.1-2.3 8 3.6-1 2.3zm-6.7 145l-8.4 2.8-.9-2.4 8.5-2.8.8 2.4zm-1.8-59.5H44.5v-8.7h17.4v8.7zm275-152.1l-2.6-3.1 8-6.4h4.3v24.8h-5.3v-14.4l.1-2.4.1-2.6c-.9.9-1.5 1.4-1.8 1.7l-2.8 2.4zm-17-44.6l-2.4-.8 2.6-8.2 2.4.8-2.6 8.2zm-41.5-9.1l-2.5-.3 1-8.6 2.5.3-1 8.6zm20.9 3.4l-2.5-.5 1.9-8.5 2.4.5-1.8 8.5zm40.3 13.4l-2.3-1.1 3.6-7.9 2.3 1.1-3.6 7.9zm56.3 90.1c1.3-1 2.3-1.7 3.1-2.2.8-.5 1.6-.8 2.6-1s2-.3 3.2-.3c1.5 0 2.9.2 4.1.8 1.2.6 2.1 1.3 2.7 2.4.7 1 1 2.2 1 3.5 0 1.1-.2 2.2-.6 3.2-.4 1-1 2.1-1.9 3.1-.9 1-2.4 2.6-4.5 4.5l-3.2 3v.2h10.8v4.5h-17.4v-3.6l6.2-6.3c1.8-1.9 3-3.3 3.6-4 .5-.8 1-1.4 1.2-2.1s.4-1.2.4-1.9c0-1-.2-1.7-.8-2.2-.5-.5-1.3-.7-2.2-.7-1 0-1.9.3-2.8.7-.9.4-1.8 1.1-2.8 1.9l-2.7-3.5zm-3.3-55.2l-1.9-1.8 5.7-6.4 1.9 1.7-5.7 6.5zM260.1 75.3c.8-.5 1.6-.8 2.6-1 .9-.2 2-.3 3.2-.3 1.5 0 2.9.2 4.1.8 1.1.6 2.1 1.3 2.7 2.4.7 1 1 2.2 1 3.5 0 1.1-.2 2.2-.6 3.2-.4 1-1 2.1-1.9 3.1-.9 1.1-2.4 2.6-4.5 4.5l-3.2 3v.2h10.8v4.5h-17.4v-3.6l6.2-6.3c1.8-1.9 3-3.3 3.6-4 .5-.8 1-1.4 1.2-2.1.2-.7.4-1.2.4-1.9 0-1-.2-1.7-.8-2.2-.5-.5-1.3-.7-2.2-.7-1 0-1.9.3-2.8.7-.9.4-1.8 1.1-2.8 1.9l-2.8-3.4c1.2-1.1 2.4-1.8 3.2-2.3zm116.1 17.4l-2.1-1.5 5.2-7 2 1.5-5.1 7zm-19.5-2.6l-7.5-4.4 8.8-15.1 7.5 4.4-8.8 15.1zM179 108.2l-2.6-3.1 8-6.4h4.3v24.8h-5.3v-14.4l.1-2.4.1-2.6c-.9.9-1.5 1.4-1.8 1.7l-2.8 2.4zM260.3 62h-8.7V44.6h8.7V62zm-87.8 9.5l-3.7-8.1 2.3-1.1 3.7 8.1-2.3 1.1zm-15.9 33.6l8-6.4h4.3v24.9h-5.3v-14.4l.1-2.4.1-2.6c-.9.9-1.5 1.4-1.8 1.7l-2.8 2.3-2.6-3.1zm-1.4-14.9L146.4 75l7.6-4.3 8.7 15.2-7.5 4.3zm-19.3 2.6l-5.2-7.2 2-1.5 5.2 7.2-2 1.5zm56.2-29.1l-2.7-8.4 2.4-.8 2.7 8.4-2.4.8zM240.4 84l-2.6-3.1 8-6.4h4.3v24.8h-5.3V85l.1-2.4.1-2.6c-.9.9-1.5 1.4-1.8 1.7l-2.8 2.3zm-6.9-29.4l-.9-8.7 2.5-.3 1 8.8-2.6.2zM212.6 58l-1.8-8.6 2.5-.5 1.8 8.6-2.5.5zm-40.2 382.5l2.3 1.1-3.6 8.1-2.4-1.1 3.7-8.1zm268.2-268.1l8-3.5 1 2.3-7.9 3.5-1.1-2.3zm-8.2 88.2c0-1.2-.5-2-1.4-2.5-.9-.5-2.4-.7-4.5-.7h-1.9v-4h1.9c1.9 0 3.3-.2 4.2-.7.9-.5 1.3-1.4 1.3-2.6 0-1.9-1.2-2.8-3.6-2.8-.8 0-1.7.2-2.5.4s-1.8.7-2.8 1.4l-2.4-3.6c2.2-1.7 5-2.5 8.1-2.5 2.5 0 4.6.5 6.1 1.6s2.3 2.7 2.3 4.5c0 1.6-.5 3-1.4 4-.9 1-2.3 1.8-4 2.2v.1c1.9.2 3.5.8 4.5 1.8s1.6 2.2 1.6 3.9c0 2.4-.9 4.2-2.6 5.5-1.7 1.3-4.2 2-7.4 2-2.7 0-5.1-.4-7.2-1.3v-4.5c1 .5 1.9 1 3.1 1.2 1.2.3 2.3.5 3.4.5 1.7 0 3-.3 3.8-.9.8-.6 1.2-1.6 1.4-3zm15.9-68.5l8.3-2.7.8 2.4-8.3 2.7-.8-2.4zm-26.5-36.9l15.1-8.6 4.4 7.5-15.1 8.7-4.4-7.6zm32.2 57.4l8.5-1.9.5 2.5-8.5 1.8-.5-2.4zm-46.5 178.2l6.5 5.8-1.8 1.9-6.4-5.8 1.7-1.9zm3.3-39.4v-5.1h3.1v-4h-3v-15.6H406l-10.9 16v3.6h10.6v5.1h5.1zm-11-9.2l4.5-6.9c.6-.9 1.1-1.8 1.5-2.7h.2c-.1.2-.1 1-.2 2.3-.1 1.3-.1 2.4-.1 3.1v4.2h-5.9zm12.4-228.6l1.8 1.9-6.5 5.8-1.7-1.9 6.4-5.8zm45.4 119.9l8.6-.9.2 2.6-8.6.9-.2-2.6zm-36.9-95.6l-1.5-2.1 7.1-5.1 1.5 2.1-7.1 5.1zm37.1 138l8.6.9-.2 2.6-8.6-.9.2-2.6zm-3.3 21l8.5 1.8-.5 2.5-8.5-1.8.5-2.5zm-61.9 108.9l5.8 6.5-1.9 1.7-5.8-6.4 1.9-1.8zm56.6-88.4l8.3 2.7-.8 2.4-8.3-2.7.8-2.4zm18.3-65.7v8.7h-17.4v-8.7h17.4zm-46.8 122.4l7.1 5.1-1.5 2.1-7.1-5.1 1.5-2.1zm5.5-24.8l15.1 8.7-4.4 7.5-15.1-8.7 4.4-7.5zm15.6-12l7.9 3.5-1.1 2.3-7.9-3.5 1.1-2.3zM251.6 450h8.7v17.4h-8.7V450zm-59.5-1.7l2.4.8-2.7 8.4-2.4-.8 2.7-8.4zm184-29l5.2 7-2.1 1.5-5.1-7 2-1.5zm-271.5-28.7l1.7 1.9-6.6 6-1.7-1.9 6.6-6zm59.7-.6H182v3.4l-9.4 21.4h-5.4v-.1l9.3-20.3h-12.2V390zm69.3 67.4l2.5.2-.9 8.8-2.5-.3.9-8.7zM117.3 344.7c0-1.3-.5-2.5-1.2-3.6s-2.1-2.1-4-3.1c1.6-.7 2.7-1.7 3.4-2.6.7-1 1.1-2.1 1.1-3.4 0-1.8-.7-3.3-2.1-4.4-1.5-1.1-3.4-1.7-5.8-1.7-2.3 0-4.1.6-5.6 1.7s-2.2 2.6-2.2 4.3c0 1.2.2 2.3.9 3.3.7 1.1 1.7 2 3.1 2.9-1.7.8-2.9 1.8-3.6 2.9-.7 1.2-1.2 2.4-1.2 3.8 0 2.1.7 3.7 2.3 4.9 1.5 1.2 3.6 1.7 6.4 1.7 2.6 0 4.7-.6 6.3-1.8 1.4-1.3 2.2-2.8 2.2-4.9zm-10.8-14.2c.5-.4 1.2-.7 2.1-.7.8 0 1.6.2 2.2.7.6.4.8 1.1.8 1.8s-.2 1.3-.7 1.9c-.4.5-1.2 1.1-2.3 1.6-1.2-.6-2-1.1-2.4-1.7-.4-.5-.7-1.2-.7-1.8.1-.7.4-1.3 1-1.8zm4.9 16.4c-.6.6-1.6.8-2.9.8-1.2 0-2.1-.2-2.8-.8s-1-1.3-1-2.3c0-1.7 1.2-3.1 3.6-4.2 1.5.7 2.5 1.5 3.1 2.1.7.7 1 1.4 1 2.1 0 .9-.3 1.7-1 2.3zm8.1 58.8l1.9 1.8-5.9 6.6-1.9-1.8 5.9-6.6zm35.8 16.1l7.5 4.3-8.8 15.2-7.5-4.4 8.8-15.1zm-19.4-2.7l2 1.5-5.2 7.2-2-1.5 5.2-7.2zm76.8 34.8l2.5.5-1.9 8.7-2.4-.5 1.8-8.7zm126.8-13.1l3.6 7.9-2.3 1.1-3.6-8 2.3-1zm7.2-40.3c1.4 1.3 2.1 3.2 2.1 5.5 0 2.8-.9 4.9-2.6 6.4-1.8 1.5-4.2 2.2-7.4 2.2-2.7 0-5-.4-6.7-1.3v-4.5c.9.5 1.8.9 3.1 1.2s2.3.4 3.4.4c3.2 0 4.8-1.4 4.8-4 0-2.5-1.7-3.7-5-3.7-.6 0-1.3.1-2 .2s-1.3.2-1.7.4l-2.1-1.2.9-12.6H347v4.5h-8.8l-.5 4.9.6-.1c.7-.1 1.6-.2 2.6-.2 2.4 0 4.3.6 5.8 1.9zm-89 20.9c-2.5 0-4.2 1-5.4 2.9h-.2c.1-2 .4-3.5 1-4.5.6-1.1 1.4-1.8 2.6-2.4 1.1-.6 2.6-.8 4.4-.8 1 0 2 .1 3 .3v-4.2c-.7-.2-1.9-.2-3.3-.2-4.1 0-7.3 1.2-9.3 3.6-2 2.4-3.1 6.1-3.1 11 0 2.2.4 4.2 1.2 5.9.7 1.7 1.8 2.9 3.1 3.7 1.3.8 3 1.2 4.8 1.2 2.6 0 4.7-.7 6.2-2.3s2.2-3.6 2.2-6.3c0-2.5-.7-4.4-1.9-5.8-1.3-1.4-3.1-2.1-5.3-2.1zm1 11.1c-.6.7-1.4 1.2-2.6 1.2-1.1 0-2-.4-2.7-1.5-.7-.9-1.1-2.1-1.1-3.4 0-.9.4-1.7 1.2-2.4.7-.7 1.7-1.1 2.7-1.1 1.2 0 2 .4 2.6 1.1.6.7.8 1.7.8 2.9 0 1.4-.3 2.5-.9 3.2zm98-10.7l8.7 15.2-7.5 4.3-8.7-15.1 7.5-4.4zm-78.3 35.7l.9 8.6-2.5.3-.9-8.6 2.5-.3zm21-3.4l1.8 8.5-2.5.5-1.8-8.5 2.5-.5zm20.4-5.7l2.6 8.3-2.3.8-2.7-8.2 2.4-.9zm-8.6-135.5c-2.1-3.8-4.7-7.4-7.7-10.7l-32.8-36c2-2.9 3.2-6.4 3.2-10.2 0-3.8-1.2-7.3-3.2-10.2l126.5-104.7c.9-.7 1-2 .3-2.8-.7-.9-2-1-2.8-.3L268.2 242.8c-3.2-3-7.5-4.8-12.2-4.8-8.1 0-15 5.4-17.2 12.7l-79.5-7.5c-5.5-.5-11-.6-16.5-.2l-53.5 3.6c-.6-.8-1.3-1.4-2.1-1.9-1.3-.9-3-1.3-4.8-1.3-2.6 0-4.7.7-6.2 2.3-1.5 1.5-2.2 3.6-2.2 6.3 0 2.5.7 4.4 1.9 5.8 1.2 1.4 3 2.1 5.1 2.1 1.3 0 2.4-.2 3.2-.7.9-.4 1.7-1.2 2.3-2.2h.2c-.2 1.9-.5 3.5-1.1 4.5-.6 1.1-1.4 1.9-2.6 2.4-1.1.5-2.6.7-4.3.7-1 0-2.1-.1-3-.3v4.2c.7.2 1.8.2 3.3.2 4.1 0 7.3-1.2 9.3-3.6 2.1-2.4 3.1-6 3.1-10.9 0-.9-.1-1.7-.2-2.5l50.6 8.4c5.4.9 10.9 1.4 16.4 1.4l80.6.3c.4 1.3 1 2.5 1.8 3.7l-11.4 9.4c-.9.7-1 2-.3 2.8.4.5 1 .7 1.5.7.4 0 .9-.2 1.3-.5l11.3-9.3c3.3 3.3 7.8 5.3 12.8 5.3 1.8 0 3.5-.3 5.2-.8l28.2 40.4c2.5 3.6 5.4 6.9 8.7 9.9l31.1 28c1.3 1.2 3.3-.4 2.5-2l-20.3-36.5zm-226-58.2c-.7.7-1.7 1.1-2.7 1.1-1.2 0-2-.4-2.6-1.1-.6-.7-.8-1.6-.8-2.8 0-1.4.3-2.5.9-3.2.4-.5.9-.8 1.4-1-.6.9-.3 2.3 1 2.5l3.8.6c.1.5.2 1 .2 1.5 0 .9-.4 1.7-1.2 2.4z" fill="#36434f"/></svg>