<svg version="1.1" xmlns="http://www.w3.org/2000/svg" x="0" y="0" viewBox="0 0 512 512" xml:space="preserve"><path d="m387.4 466.5 10.2-3.2v7l-17.8 6.4h-.9v-43.2h8.6v33zm-20.2-28.9c2.5 3.1 3.8 7.5 3.8 13.3v7.9c0 6-1.2 10.6-3.7 13.7-2.5 3.1-6.1 4.7-10.8 4.7-4.7 0-8.3-1.5-10.8-4.6-2.5-3.1-3.8-7.5-3.8-13.3v-7.9c0-6 1.2-10.5 3.7-13.7 2.5-3.2 6.1-4.7 10.8-4.7 4.7 0 8.3 1.5 10.8 4.6zm-4.7 12.7c0-3.5-.5-6.1-1.4-7.8-1-1.7-2.5-2.6-4.6-2.6-2.1 0-3.6.8-4.5 2.5-.9 1.6-1.4 4.1-1.5 7.5v10.3c0 3.6.5 6.2 1.5 7.8 1 1.6 2.5 2.4 4.6 2.4 2 0 3.5-.8 4.5-2.3 1-1.6 1.5-4 1.5-7.3v-10.5zM133.1 78.4V35.3h-.9l-17.8 6.4v7l10.2-3.2v33h8.5zm33.3-4.1c-2.5 3.2-6.1 4.7-10.8 4.7-4.7 0-8.3-1.5-10.8-4.6-2.5-3.1-3.8-7.5-3.8-13.3v-7.9c0-6 1.2-10.6 3.7-13.7 2.5-3.1 6.1-4.7 10.8-4.7 4.7 0 8.3 1.5 10.8 4.6 2.5 3.1 3.8 7.5 3.8 13.3v7.9c0 6-1.2 10.5-3.7 13.7zm-4.9-22.4c0-3.6-.5-6.2-1.5-7.8-1-1.6-2.5-2.4-4.6-2.4-2 0-3.5.8-4.5 2.3-1 1.6-1.5 4-1.5 7.3v10.5c0 3.5.5 6.1 1.4 7.8 1 1.7 2.5 2.6 4.6 2.6 2.1 0 3.6-.8 4.5-2.5.9-1.6 1.4-4.1 1.5-7.5V51.9zm-5.8 48.8c-3-1.8-4.3-2.8-7.5-5.7-3.4-3-6-8.5-6-8.5s-2.6 5.5-6 8.5c-3.2 2.8-4.5 3.9-7.5 5.7-.7.4-1.3.8-1.8 1.3-6.8 6.4 3.2 15.9 14.9 6.2-.7 4.8-3.8 8.8-8.1 10.7h16.8c-4.3-1.9-7.4-5.9-8.1-10.7 11.7 9.7 21.7.2 14.9-6.2-.3-.5-.9-.9-1.6-1.3zM385.1 410c6.8-6.4-3.2-15.9-14.9-6.2.7-4.8 3.8-8.8 8.1-10.7h-16.8c4.3 1.9 7.4 5.9 8.1 10.7-11.7-9.7-21.7-.2-14.9 6.2.5.5 1.1.9 1.8 1.3 3 1.8 4.3 2.8 7.5 5.7 3.4 3 6 8.5 6 8.5s2.6-5.5 6-8.5c3.2-2.8 4.5-3.9 7.5-5.7.4-.4 1-.8 1.6-1.3zM199.4 108.1c-1.3 9.4-7.5 17.3-15.9 21.1h33.1c-8.4-3.8-14.5-11.7-15.9-21.1 23 19.2 42.8.5 29.4-12.1-1-1-2.3-1.8-3.5-2.6-5.8-3.5-8.4-5.6-14.7-11.2-6.8-6-11.8-16.7-11.8-16.7s-5.1 10.8-11.8 16.7c-6.3 5.6-8.9 7.7-14.7 11.2-1.3.8-2.5 1.6-3.5 2.6-13.5 12.5 6.2 31.2 29.3 12.1zm111.9 0c-1.3 9.4-7.5 17.3-15.9 21.1h33.1c-8.4-3.8-14.5-11.7-15.9-21.1 23 19.2 42.8.5 29.4-12.1-1-1-2.3-1.8-3.5-2.6-5.8-3.5-8.4-5.6-14.7-11.2-6.8-6-11.8-16.7-11.8-16.7s-5.1 10.8-11.8 16.7c-6.3 5.6-8.9 7.7-14.7 11.2-1.3.8-2.5 1.6-3.5 2.6-13.5 12.5 6.2 31.2 29.3 12.1zm-85.4 40.7c-13.4 12.6 6.4 31.3 29.4 12.1-1.3 9.4-7.5 17.3-15.9 21.1h33.1c-8.4-3.8-14.5-11.7-15.9-21.1 23 19.2 42.8.5 29.4-12.1-1-1-2.3-1.8-3.5-2.6-5.8-3.5-8.4-5.6-14.7-11.2-6.8-6-11.8-16.7-11.8-16.7s-5.1 10.8-11.8 16.7c-6.3 5.6-8.9 7.7-14.7 11.2-1.3.8-2.6 1.6-3.6 2.6zm4.2 52.9c-1-1-2.3-1.8-3.5-2.6-5.8-3.5-8.4-5.6-14.7-11.2-6.8-6-11.8-16.7-11.8-16.7S195 182 188.2 188c-6.3 5.6-8.9 7.7-14.7 11.2-1.3.8-2.5 1.6-3.5 2.6-13.4 12.6 6.4 31.3 29.4 12.1-1.3 9.4-7.5 17.3-15.9 21.1h33.1c-8.4-3.8-14.5-11.7-15.9-21.1 23.1 19.1 42.8.4 29.4-12.2zm112 0c-1-1-2.3-1.8-3.5-2.6-5.8-3.5-8.4-5.6-14.7-11.2-6.8-6-11.8-16.7-11.8-16.7s-5.1 10.8-11.8 16.7c-6.3 5.6-8.9 7.7-14.7 11.2-1.3.8-2.5 1.6-3.5 2.6-13.4 12.6 6.4 31.3 29.4 12.1-1.3 9.4-7.5 17.3-15.9 21.1h33.1c-8.4-3.8-14.5-11.7-15.9-21.1 22.9 19.2 42.6.5 29.3-12.1zm-29.5 202.2c1.3-9.4 7.5-17.3 15.9-21.1h-33.1c8.4 3.8 14.5 11.7 15.9 21.1-23-19.2-42.8-.5-29.4 12.1 1 1 2.3 1.8 3.5 2.6 5.8 3.5 8.4 5.6 14.7 11.2 6.8 6 11.8 16.7 11.8 16.7s5.1-10.8 11.8-16.7c6.3-5.6 8.9-7.7 14.7-11.2 1.3-.8 2.5-1.6 3.5-2.6 13.5-12.5-6.2-31.2-29.3-12.1zm-111.9 0c1.3-9.4 7.5-17.3 15.9-21.1h-33.1c8.4 3.8 14.5 11.7 15.9 21.1-23-19.2-42.8-.5-29.4 12.1 1 1 2.3 1.8 3.5 2.6 5.8 3.5 8.4 5.6 14.7 11.2 6.8 6 11.8 16.7 11.8 16.7s5.1-10.8 11.8-16.7c6.3-5.6 8.9-7.7 14.7-11.2 1.3-.8 2.5-1.6 3.5-2.6 13.5-12.5-6.2-31.2-29.3-12.1zm85.4-40.7c13.4-12.6-6.4-31.3-29.4-12.1 1.3-9.4 7.5-17.3 15.9-21.1h-33.1c8.4 3.8 14.5 11.7 15.9 21.1-23-19.2-42.8-.5-29.4 12.1 1 1 2.3 1.8 3.5 2.6 5.8 3.5 8.4 5.6 14.7 11.2 6.8 6 11.8 16.7 11.8 16.7s5.1-10.8 11.8-16.7c6.3-5.6 8.9-7.7 14.7-11.2 1.3-.8 2.6-1.6 3.6-2.6zm-4.2-52.9c1 1 2.3 1.8 3.5 2.6 5.8 3.5 8.4 5.6 14.7 11.2 6.8 6 11.8 16.7 11.8 16.7S317 330 323.8 324c6.3-5.6 8.9-7.7 14.7-11.2 1.3-.8 2.5-1.6 3.5-2.6 13.4-12.6-6.4-31.3-29.4-12.1 1.3-9.4 7.5-17.3 15.9-21.1h-33.1c8.4 3.8 14.5 11.7 15.9 21.1-23.1-19.1-42.8-.4-29.4 12.2zm-112 0c1 1 2.3 1.8 3.5 2.6 5.8 3.5 8.4 5.6 14.7 11.2 6.8 6 11.8 16.7 11.8 16.7s5.1-10.8 11.8-16.7c6.3-5.6 8.9-7.7 14.7-11.2 1.3-.8 2.5-1.6 3.5-2.6 13.4-12.6-6.4-31.3-29.4-12.1 1.3-9.4 7.5-17.3 15.9-21.1h-33.1c8.4 3.8 14.5 11.7 15.9 21.1-22.9-19.2-42.6-.5-29.3 12.1zM417.4 19v474c0 10.5-8.5 19-19 19H113.6c-10.5 0-19-8.5-19-19V19c0-10.5 8.5-19 19-19h284.8c10.5 0 19 8.5 19 19zm-16 0c0-1.7-1.3-3-3-3H113.6c-1.7 0-3 1.3-3 3v474c0 1.7 1.3 3 3 3h284.8c1.7 0 3-1.3 3-3V19z" fill="#36434f"/></svg>