<svg xmlns="http://www.w3.org/2000/svg" viewBox="0 0 512 512" xml:space="preserve"><path d="M215.3 292.5c6.3 6.4 13.5 11.9 21.4 16.4-15.3 8.7-27.9 21.3-36.6 36.6-8.7-15.3-21.3-27.9-36.6-36.6 15.2-8.7 27.9-21.3 36.6-36.5 4.2 7.3 9.3 14.1 15.2 20.1zM163.5 97.3c15.3 8.7 27.9 21.3 36.6 36.6 8.7-15.3 21.3-27.9 36.6-36.6-7.3-4.1-13.9-9.1-19.9-14.9-6.5-6.4-12.2-13.7-16.7-21.7-8.7 15.2-21.4 27.9-36.6 36.6zm52.9 90.4c-6.3-6.3-11.8-13.4-16.3-21.2-8.7 15.3-21.4 27.9-36.6 36.6 15.3 8.7 27.9 21.3 36.6 36.6 8.7-15.3 21.3-27.9 36.6-36.6-7.4-4.2-14.3-9.4-20.3-15.4zm95.7 84.6c-8.8 15.3-21.5 27.9-36.7 36.6 15.3 8.7 27.9 21.3 36.6 36.6 8.7-15.3 21.3-27.9 36.6-36.6-7.9-4.5-15-10-21.3-16.4-5.9-6-11.1-12.8-15.2-20.2zm-.1-138.4c8.7-15.3 21.3-27.9 36.6-36.6-7.2-4.1-13.9-9.1-19.8-14.9-6.6-6.4-12.2-13.7-16.8-21.7-8.7 15.2-21.4 27.9-36.6 36.6 15.3 8.7 27.9 21.3 36.6 36.6zm-92.6 16.3c15.3 8.7 27.9 21.3 36.6 36.6 8.7-15.3 21.3-27.9 36.6-36.6-7-4-13.5-8.8-19.3-14.4-6.8-6.5-12.6-14-17.3-22.2-8.7 15.3-21.3 27.9-36.6 36.6zm109.5 38.1c-6.6-6.4-12.3-13.7-16.8-21.8-8.8 15.3-21.5 27.9-36.7 36.6 15.3 8.7 27.9 21.3 36.6 36.6 8.7-15.3 21.3-27.9 36.6-36.6-7.2-4.1-13.8-9.1-19.7-14.8zM144.8 74.4c-2.5-3.1-3.8-7.5-3.8-13.3v-7.9c0-6 1.2-10.6 3.7-13.7 2.5-3.1 6.1-4.7 10.8-4.7 4.7 0 8.3 1.5 10.8 4.6s3.8 7.5 3.8 13.3v7.9c0 6-1.2 10.5-3.7 13.7-2.5 3.2-6.1 4.7-10.8 4.7s-8.3-1.5-10.8-4.6zm4.6-12.6c0 3.5.5 6.1 1.4 7.8 1 1.7 2.5 2.6 4.6 2.6 2.1 0 3.6-.8 4.5-2.5.9-1.6 1.4-4.1 1.5-7.5V51.9h.1c0-3.6-.5-6.2-1.5-7.8-1-1.6-2.5-2.4-4.6-2.4-2 0-3.5.8-4.5 2.3-1 1.6-1.5 4-1.5 7.3v10.5zM272 346.2c-6.2-6.2-11.6-13.2-16-21-8.7 15.3-21.3 28-36.6 36.6 15.3 8.7 27.9 21.3 36.6 36.6 8.7-15.3 21.3-27.9 36.6-36.6-7.5-4.3-14.5-9.6-20.6-15.6zm114 63.1c-3.3-1.9-6.3-4.1-8.9-6.7-2.8-2.8-5.3-6-7.3-9.5-3.8 6.8-9.4 12.4-16.2 16.2 6.8 3.8 12.4 9.4 16.2 16.2 3.8-6.8 9.4-12.4 16.2-16.2zM133 78.4V35.2h-.9l-17.8 6.4v7l10.2-3.2v33h8.5zM417.4 19v474c0 10.5-8.5 19-19 19H113.6c-10.5 0-19-8.5-19-19V19c0-10.5 8.5-19 19-19h284.8c10.5 0 19 8.5 19 19zm-16 0c0-1.7-1.3-3-3-3H113.6c-1.7 0-3 1.3-3 3v474c0 1.7 1.3 3 3 3h284.8c1.7 0 3-1.3 3-3V19zm-14 414.5h-8.6v43.2h1l17.8-6.4v-7l-10.2 3.2v-33zm-20.1 4.1c2.5 3.1 3.7 7.5 3.8 13.3v7.9c0 6-1.2 10.6-3.7 13.7-2.5 3.1-6.1 4.7-10.8 4.7s-8.3-1.5-10.8-4.6c-2.5-3.1-3.7-7.5-3.8-13.3v-7.9c0-6 1.2-10.5 3.7-13.7 2.4-3.1 6-4.7 10.8-4.7 4.7 0 8.3 1.5 10.8 4.6zm-4.8 12.6c0-3.5-.4-6.1-1.4-7.8s-2.5-2.6-4.6-2.6c-2.1 0-3.6.9-4.5 2.5-1 1.6-1.5 4.1-1.5 7.5h-.1v10.3c0 3.6.5 6.2 1.5 7.8 1 1.6 2.5 2.4 4.6 2.4 2.1 0 3.5-.7 4.5-2.3.9-1.6 1.4-4 1.5-7.3v-10.5zM142.2 86.5c-3.8 6.8-9.4 12.4-16.2 16.2 6.8 3.8 12.4 9.4 16.2 16.2 3.8-6.8 9.4-12.4 16.2-16.2-3.3-1.9-6.3-4.1-8.9-6.7-2.8-2.8-5.3-6-7.3-9.5zm57.9 291.6c-8.7 15.3-21.4 28-36.6 36.6 15.3 8.7 27.9 21.3 36.6 36.6 8.7-15.3 21.3-27.9 36.6-36.6-8.2-4.7-15.6-10.5-22.1-17.2-5.6-5.8-10.4-12.3-14.5-19.4zM330 401c-7.1-6.7-13.2-14.4-18-22.9-8.7 15.3-21.4 28-36.6 36.6 15.3 8.7 27.9 21.3 36.6 36.6 8.7-15.3 21.3-27.9 36.6-36.6-6.7-3.8-13-8.4-18.6-13.7z" fill="#36434f"/></svg>