<svg version="1.1" xmlns="http://www.w3.org/2000/svg" x="0" y="0" viewBox="0 0 512 512" xml:space="preserve"><path d="M398.4 16c1.7 0 3 1.3 3 3v474c0 1.7-1.3 3-3 3H113.6c-1.7 0-3-1.3-3-3V19c0-1.7 1.3-3 3-3h284.8m0-16H113.6c-10.5 0-19 8.5-19 19v474c0 10.5 8.5 19 19 19h284.8c10.5 0 19-8.5 19-19V19c0-10.5-8.5-19-19-19zM148.1 61.2c-2.2 2.1-4.8 3.3-7.8 3.3-3.8 0-6.9-1.3-9.1-3.9-2.3-2.6-3.5-6.2-3.5-10.5 0-2.8.7-5.4 1.9-7.7s3-4.2 5.1-5.5c2.2-1.3 4.7-2 7.5-2s5.4.7 7.6 2.1c2.2 1.4 3.9 3.5 5.1 6.2 1.2 2.7 1.9 5.7 1.9 9.1v3.2c0 7.2-1.8 12.9-5.3 17s-8.7 6.2-15.2 6.5H134v-7.1h1.9c7.5-.5 11.6-4 12.2-10.7zm-5.7-3.3c1.4 0 2.6-.4 3.5-1s1.8-1.6 2.2-2.6v-3.5c0-2.9-.6-5.1-1.7-6.7-1.1-1.6-2.6-2.4-4.5-2.4-1.7 0-3.2.7-4.2 2.3-1.1 1.6-1.7 3.5-1.7 5.9 0 2.3.6 4.3 1.6 5.8 1.3 1.5 2.9 2.2 4.8 2.2zm221.5 392.9c2.2-2.1 4.8-3.3 7.8-3.3 3.8 0 6.9 1.3 9.1 3.9 2.3 2.6 3.5 6.2 3.5 10.5 0 2.8-.7 5.4-1.9 7.7s-3 4.2-5.1 5.5c-2.2 1.3-4.7 2-7.5 2s-5.4-.7-7.6-2.1c-2.2-1.4-3.9-3.5-5.1-6.2-1.2-2.7-1.9-5.7-1.9-9.1v-3.2c0-7.2 1.8-12.9 5.3-17s8.7-6.2 15.2-6.5h2.1v7.1h-1.9c-7.3.5-11.3 4-12 10.7zm5.7 3.3c-1.4 0-2.6.4-3.5 1s-1.8 1.6-2.2 2.6v3.5c0 2.9.6 5.1 1.7 6.7 1.1 1.6 2.6 2.4 4.5 2.4 1.7 0 3.2-.7 4.2-2.3 1.1-1.6 1.7-3.5 1.7-5.9 0-2.3-.6-4.3-1.6-5.8-1.3-1.5-2.9-2.2-4.8-2.2zM155.8 100.7c-3-1.8-4.3-2.8-7.5-5.7-3.5-3.1-6-8.5-6-8.5s-2.6 5.5-6 8.5c-3.2 2.8-4.6 3.9-7.5 5.7-.7.4-1.3.8-1.8 1.3-6.8 6.4 3.3 15.9 14.9 6.2-.7 4.8-3.8 8.8-8 10.7h16.8c-4.3-2-7.4-6-8-10.7 11.8 9.7 21.7.3 14.9-6.2-.6-.4-1.2-.9-1.8-1.3zm214.3 303.1c.7-4.8 3.8-8.8 8-10.7h-16.8c4.3 2 7.4 6 8 10.7-11.8-9.7-21.7-.3-14.9 6.2.6.5 1.1.9 1.8 1.3 3 1.8 4.3 2.8 7.5 5.7 3.5 3.1 6 8.5 6 8.5s2.6-5.5 6-8.5c3.2-2.8 4.6-3.9 7.5-5.7.7-.4 1.3-.8 1.8-1.3 6.9-6.5-3.2-15.9-14.9-6.2zM230.2 95.9c-1-.9-2.2-1.9-3.5-2.6-5.8-3.5-8.4-5.6-14.7-11.2-6.7-6-11.8-16.8-11.8-16.8s-5 10.7-11.8 16.8c-6.3 5.6-9 7.6-14.7 11.2-1.3.7-2.5 1.6-3.5 2.6-13.3 12.6 6.3 31.3 29.4 12.1-1.3 9.4-7.5 17.3-15.9 21.1h33.1c-8.4-3.8-14.5-11.7-15.9-21.1 22.8 19.2 42.6.6 29.3-12.1zm111.9 0c-1-.9-2.2-1.9-3.5-2.6-5.8-3.5-8.4-5.6-14.7-11.2-6.7-6-11.8-16.8-11.8-16.8s-5 10.7-11.8 16.8c-6.3 5.6-9 7.6-14.7 11.2-1.3.7-2.5 1.6-3.5 2.6-13.3 12.6 6.3 31.3 29.4 12.1-1.3 9.4-7.5 17.3-15.9 21.1h33.1c-8.4-3.8-14.5-11.7-15.9-21.1 22.8 19.2 42.6.6 29.3-12.1zm-56 158.7c-1-.9-2.2-1.9-3.5-2.6-5.8-3.5-8.4-5.6-14.7-11.2-6.7-6-11.8-16.8-11.8-16.8s-5 10.7-11.8 16.8c-6.3 5.6-9 7.6-14.7 11.2-1.3.7-2.5 1.6-3.5 2.6-13.3 12.6 6.3 31.3 29.4 12.1-1.3 9.4-7.5 17.3-15.9 21.1h33.1c-8.4-3.8-14.5-11.7-15.9-21.1 22.9 19.2 42.7.6 29.3-12.1zm-55.9-52.9c-1-.9-2.2-1.9-3.5-2.6-5.8-3.5-8.4-5.6-14.7-11.2-6.7-6-11.8-16.8-11.8-16.8s-5 10.7-11.8 16.8c-6.3 5.6-9 7.6-14.7 11.2-1.3.7-2.5 1.6-3.5 2.6-13.3 12.6 6.3 31.3 29.4 12.1-1.3 9.4-7.5 17.3-15.9 21.1h33.1c-8.4-3.8-14.5-11.7-15.9-21.1 22.8 19.3 42.6.5 29.3-12.1zm111.9 0c-1-.9-2.2-1.9-3.5-2.6-5.8-3.5-8.4-5.6-14.7-11.2-6.7-6-11.8-16.8-11.8-16.8s-5 10.7-11.8 16.8c-6.3 5.6-9 7.6-14.7 11.2-1.3.7-2.5 1.6-3.5 2.6-13.3 12.6 6.3 31.3 29.4 12.1-1.3 9.4-7.5 17.3-15.9 21.1h33.1c-8.4-3.8-14.5-11.7-15.9-21.1 22.8 19.3 42.6.5 29.3-12.1zm-60.3 214.4c1 .9 2.2 1.9 3.5 2.6 5.8 3.5 8.4 5.6 14.7 11.2 6.7 6 11.8 16.8 11.8 16.8s5-10.7 11.8-16.8c6.3-5.6 9-7.6 14.7-11.2 1.3-.7 2.5-1.6 3.5-2.6 13.3-12.6-6.3-31.3-29.4-12.1 1.3-9.4 7.5-17.3 15.9-21.1h-33.1c8.4 3.8 14.5 11.7 15.9 21.1-22.8-19.2-42.6-.6-29.3 12.1zm-111.9 0c1 .9 2.2 1.9 3.5 2.6 5.8 3.5 8.4 5.6 14.7 11.2 6.7 6 11.8 16.8 11.8 16.8s5-10.7 11.8-16.8c6.3-5.6 9-7.6 14.7-11.2 1.3-.7 2.5-1.6 3.5-2.6 13.3-12.6-6.3-31.3-29.4-12.1 1.3-9.4 7.5-17.3 15.9-21.1h-33.1c8.4 3.8 14.5 11.7 15.9 21.1-22.8-19.2-42.6-.6-29.3 12.1zm111.9-105.8c1 .9 2.2 1.9 3.5 2.6 5.8 3.5 8.4 5.6 14.7 11.2 6.7 6 11.8 16.8 11.8 16.8s5-10.7 11.8-16.8c6.3-5.6 9-7.6 14.7-11.2 1.3-.7 2.5-1.6 3.5-2.6 13.3-12.6-6.3-31.3-29.4-12.1 1.3-9.4 7.5-17.3 15.9-21.1h-33.1c8.4 3.8 14.5 11.7 15.9 21.1-22.8-19.3-42.6-.5-29.3 12.1zm-111.9 0c1 .9 2.2 1.9 3.5 2.6 5.8 3.5 8.4 5.6 14.7 11.2 6.7 6 11.8 16.8 11.8 16.8s5-10.7 11.8-16.8c6.3-5.6 9-7.6 14.7-11.2 1.3-.7 2.5-1.6 3.5-2.6 13.3-12.6-6.3-31.3-29.4-12.1 1.3-9.4 7.5-17.3 15.9-21.1h-33.1c8.4 3.8 14.5 11.7 15.9 21.1-22.8-19.3-42.6-.5-29.3 12.1z" fill="#36434f"/></svg>