<svg xmlns="http://www.w3.org/2000/svg" viewBox="0 0 512 512" xml:space="preserve"><path d="M398.4 16c1.7 0 3 1.3 3 3v474c0 1.7-1.3 3-3 3H113.6c-1.7 0-3-1.3-3-3V19c0-1.7 1.3-3 3-3h284.8m0-16H113.6c-10.5 0-19 8.5-19 19v474c0 10.5 8.5 19 19 19h284.8c10.5 0 19-8.5 19-19V19c0-10.5-8.5-19-19-19zM150 68.9h-15.6l-3 8.9H122l16-43.1h8.2l16.2 43.2H153l-3-9zm-13.2-7.2h10.8l-5.4-16.1-5.4 16.1zM362 443.1h15.6l3-8.9h9.4l-16 43.1h-8.2l-16.2-43.2h9.4l3 9zm13.2 7.2h-10.8l5.4 16.1 5.4-16.1zm-83.8-195.9c-1.2-1.1-2.6-2.1-4.2-3.1-6.8-4.1-9.9-6.6-17.3-13.1-7.9-7-13.9-19.7-13.9-19.7s-6 12.7-13.9 19.7c-7.5 6.5-10.5 9-17.3 13.1-1.5.9-3 2-4.2 3.1-15.8 14.8 7.5 36.8 34.6 14.3-1.6 11.1-8.8 20.4-18.7 24.8h38.9c-9.9-4.5-17.1-13.7-18.7-24.8 27.2 22.6 50.4.5 34.7-14.3zM157.5 102c-.6-.5-1.1-.9-1.8-1.3-3-1.8-4.3-2.8-7.5-5.7-3.5-3.1-6-8.5-6-8.5s-2.6 5.5-6 8.5c-3.2 2.8-4.6 3.9-7.5 5.7-.7.4-1.3.8-1.8 1.3-6.8 6.4 3.3 15.9 14.9 6.2-.7 4.8-3.8 8.8-8 10.7h16.8c-4.3-2-7.4-6-8-10.7 11.7 9.7 21.7.3 14.9-6.2zm212.8 301.8c.7-4.8 3.7-8.8 8-10.7h-16.8c4.2 2 7.4 6 8 10.7-11.7-9.7-21.7-.3-14.9 6.2.5.5 1.1.9 1.8 1.3 2.9 1.8 4.3 2.9 7.5 5.7 3.4 3 6 8.5 6 8.5s2.5-5.4 6-8.5c3.2-2.9 4.5-3.9 7.5-5.7.7-.4 1.2-.8 1.8-1.3 6.7-6.5-3.4-16-14.9-6.2z" fill="#36434f"/></svg>