<svg version="1.1" xmlns="http://www.w3.org/2000/svg" x="0" y="0" viewBox="0 0 512 512" style="enable-background:new 0 0 512 512" xml:space="preserve"><path d="m415.77 426.78-111-308.94a182.176 182.176 0 0 1-10.72-61.56V55h19.45c2.21 0 4-1.79 4-4V4c0-2.21-1.79-4-4-4h-115c-2.21 0-4 1.79-4 4v47c0 2.21 1.79 4 4 4h19.46v1.28c0 20.99-3.63 41.81-10.72 61.56l-111 308.94C81.32 468.28 112.07 512 156.16 512h199.68c44.1 0 74.85-43.72 59.93-85.22zm-34.01 39.76c-6.01 8.55-15.46 13.46-25.92 13.46H156.16c-10.46 0-19.9-4.9-25.91-13.46-6.01-8.55-7.43-19.1-3.89-28.94l111-308.95c8.36-23.29 12.6-47.64 12.6-72.37V55h12.09v1.28c0 24.73 4.24 49.08 12.6 72.38l111 308.95c3.54 9.84 2.13 20.38-3.89 28.93z" style="fill:#36434f"/></svg>