<svg version="1.1" xmlns="http://www.w3.org/2000/svg" x="0" y="0" viewBox="0 0 512 512" xml:space="preserve"><path d="M452 152c-19.9 0-37.6 9.8-48.5 24.8l-98.9-72c7.2-9.9 11.5-22.1 11.5-35.2 0-33.1-26.9-60-60-60s-60 26.9-60 60c0 13.2 4.3 25.3 11.5 35.2l-99 71.9c-11-15-28.7-24.7-48.6-24.7-33.1 0-60 26.9-60 60s26.9 60 60 60c6.5 0 12.7-1 18.5-2.9l37.8 116.3c-24 7.8-41.5 30.4-41.5 57.1 0 33.1 26.9 60 60 60s60-26.9 60-60H317c0 33.1 26.9 60 60 60s60-26.9 60-60c0-26.6-17.4-49.2-41.4-57.1l37.8-116.3c5.8 1.9 12.1 2.9 18.5 2.9 33.1 0 60-26.9 60-60 .1-33.1-26.8-60-59.9-60zM256 41.6c15.4 0 28 12.6 28 28s-12.6 28-28 28-28-12.6-28-28 12.6-28 28-28zM32 212c0-15.4 12.6-28 28-28s28 12.6 28 28-12.6 28-28 28-28-12.6-28-28zm102.9 258.4c-15.4 0-28-12.6-28-28s12.5-28 28-28c15.4 0 28 12.6 28 28s-12.6 28-28 28zm191.5-60H185.6a60.52 60.52 0 0 0-36-26.2l-43.5-133.9c8.7-10.4 13.9-23.8 13.9-38.3 0-1.3-.1-2.6-.1-4l113.8-82.8c6.9 2.8 14.4 4.3 22.3 4.3s15.4-1.5 22.3-4.3L392.1 208c-.1 1.3-.1 2.6-.1 4 0 14.6 5.2 27.9 13.9 38.3l-43.5 133.9a60.52 60.52 0 0 0-36 26.2zm78.7 32c0 15.4-12.6 28-28 28s-28-12.6-28-28 12.6-28 28-28 28 12.6 28 28zM452 240c-15.4 0-28-12.6-28-28s12.6-28 28-28 28 12.6 28 28-12.6 28-28 28z" fill="#36434f"/></svg>