<svg version="1.1" xmlns="http://www.w3.org/2000/svg" x="0" y="0" viewBox="0 0 512 512" xml:space="preserve"><path d="M301.2 229.4c.9 1.9 1.7 3.8 2.3 5.8.6 2 1.2 4 1.6 6 .3 1.6.6 3.2-.6 4.6-2.1 2.6-6.5 1.4-7-1.9-.4-2.3-1-4.7-1.8-6.9-.4-1.1-.8-2.2-1.3-3.2-.4-1-1-1.9-1.4-2.9-1-3 2-6 5-5 1.8.4 2.5 2 3.2 3.5zm-26.6 65.5c1.5 1.2 3.3.9 4.9 0 1.7-.9 3.4-2 5.1-3.1 1.6-1.1 3.1-2.3 4.5-3.5 1.3-1.1 3-2.3 3.4-4.1 1-3.9-3.9-6.7-6.7-3.9-2.8 2.8-5.9 5.2-9.4 7.1-1.5.8-2.8 1.5-3.3 3.2-.3 1.7.3 3.3 1.5 4.3zm-26.7-85.5c.9.1 1.9-.1 2.8-.2 1.2-.1 2.3-.2 3.5-.3 2.1-.1 4.1 0 6.2.2 1.7.2 3.4.6 4.9-.5 1.1-.8 1.8-2.3 1.6-3.7-.5-4-5.3-3.8-8.3-4-2.2-.1-4.3-.1-6.5.1-1.8.1-4.1.1-5.6 1-3.2 1.8-2.2 6.8 1.4 7.4zm.7 90.8c2.1.4 4.3.5 6.5.5s4.3-.1 6.4-.3c1.7-.2 3.6-.2 4.8-1.6 2.5-2.7.1-7.3-3.6-6.7-4.3.7-8.6.6-12.9.1-3.1-.4-5.9 2.6-4.4 5.6.6 1.5 1.8 2.2 3.2 2.4zm26.2-87c3.5 1.8 6.8 4 9.7 6.7 1.4 1.3 2.6 2.4 4.6 2 1.6-.3 2.9-1.7 3.1-3.3.3-1.8-.7-3.1-1.9-4.2-1.4-1.4-3-2.6-4.5-3.8-1.6-1.2-3.3-2.3-5.1-3.3-1.4-.8-3-1.9-4.7-1.6-3.8.6-4.6 5.8-1.2 7.5zm-37.7 75.1c-3.5-1.8-6.8-4-9.7-6.7-1.3-1.2-2.4-2.3-4.2-2.1-1.6.2-2.9 1.3-3.4 2.8-.5 1.6.1 3.1 1.3 4.3 1.4 1.4 2.9 2.7 4.5 3.9 1.6 1.2 3.3 2.4 5 3.4 1.5.9 3.2 2.2 5.1 2 3.9-.4 4.9-5.8 1.4-7.6zm-.6-82c-1.6-.7-3-.2-4.5.6-3.5 1.9-6.8 4.3-9.8 7-1.4 1.3-3.1 2.6-3 4.6 0 1.9 1.5 3.6 3.4 3.9 2 .3 3.1-.9 4.5-2.1 1.4-1.4 2.9-2.6 4.6-3.7 1.6-1.1 3.3-2.1 5-3.1 1.3-.8 2.2-2.1 2.2-3.6-.1-1.5-1-2.9-2.4-3.6zm-26.6 41.5c1.5.2 3.1-.5 3.9-1.8 1-1.5 1-3.7 1.4-5.4.5-2.1 1.2-4.1 2-6 .7-1.6 1.8-3.2 1.6-4.9-.4-3.3-4.6-4.6-6.8-2.3-1.3 1.3-1.9 3.6-2.6 5.3-.7 1.9-1.4 3.9-1.9 5.9-.4 1.8-1.2 4-1 5.8.3 1.7 1.7 3.1 3.4 3.4zm-1.7 17.8c.6 2 1.4 3.9 2.2 5.8.7 1.6 1.4 3.4 3.1 4.2 3.1 1.3 6.5-1.8 5.3-5-.4-1-1-2-1.4-3-.5-1.1-.9-2.1-1.3-3.2-.7-2.2-1.3-4.4-1.7-6.7-.5-3.2-4.5-4.4-6.8-2.2-1.2 1.2-1.3 2.8-1 4.4.6 1.9 1 3.8 1.6 5.7zm97.3-8.4c-.2-1.8-1.6-3.2-3.4-3.5-1.5-.2-3.1.5-3.9 1.7-.9 1.4-.9 3.4-1.3 4.9-.5 2-1.1 3.9-1.8 5.8-.6 1.6-2 3.4-2 5.2-.1 3.5 4.2 5.4 6.7 3.1 1.4-1.3 2-3.6 2.7-5.3.8-2 1.4-4 2-6.1.4-1.7 1.2-3.9 1-5.8zm-67.7 169.4c-2 0-3.4 1.7-4.9 2.9-1.6 1.4-3.3 2.8-4.9 4.1-1.6 1.3-3.3 2.6-4.9 3.9-1.2 1-1.9 2.4-1.6 4 .3 1.6 1.6 2.9 3.2 3.2 2.1.4 3.5-1 5-2.2 3.3-2.7 6.6-5.4 9.8-8.2 1.4-1.2 2.5-2.5 2.2-4.5-.2-1.8-1.9-3.2-3.9-3.2zm-62.9-224c1.3-1.7 2.3-3.9 3.4-5.7 1.2-2 2.3-3.9 3.5-5.9 1-1.6 2.5-3.4 2.2-5.4-.4-2-2.1-3.5-4-3.5-2.1 0-3.1 1.4-4.1 3.1-1.2 1.9-2.4 3.9-3.5 5.9-1.1 1.9-2.3 3.8-3.4 5.8-.6 1.1-1.3 2-1.2 3.3.1 3.6 4.9 5.2 7.1 2.4zm95.6-124.9c2.1.3 3.4-1.1 4.9-2.4 3.2-2.8 6.4-5.6 9.7-8.2 1.4-1.2 2.5-2.5 2.1-4.5-.4-1.9-2.1-3.2-3.9-3.2-2 0-3.6 1.8-5.1 3-1.6 1.3-3.1 2.6-4.6 3.9-1.7 1.4-3.3 2.9-4.9 4.3-1.1 1-1.8 2.4-1.5 3.9.3 1.7 1.7 3 3.3 3.2zM107.9 360.5c-1.8 0-3.4 1.3-3.9 3.1-.5 2.1-.7 4.4-1.1 6.5-.3 2.3-.7 4.6-.9 7-.2 2-.8 4.1.5 5.8 1.1 1.3 3 1.9 4.6 1.2 2-.8 2.4-2.5 2.7-4.4.3-2.5.6-5 1-7.6l.6-4.2c.2-1.2.6-2.5.5-3.7-.1-2-1.9-3.7-4-3.7zM226 124.4c1.9.3 3.2-.8 4.3-2.2 2.7-3.3 5.5-6.6 8.4-9.8 1.3-1.4 2.7-2.8 2.3-4.9-.2-1.9-1.9-3.3-3.8-3.3-2.1 0-3.2 1.6-4.5 3-1.4 1.6-2.7 3.1-4.1 4.7-1.4 1.7-2.9 3.4-4.3 5.1-1 1.3-1.9 2.5-1.6 4.2.3 1.6 1.7 2.9 3.3 3.2zM106.3 415.7c1.8-.9 2.2-2.6 2.1-4.5-.1-2.5-.2-5-.2-7.4 0-1.4 0-2.8.1-4.2 0-1.2.2-2.6.1-3.8-.3-2-2-3.5-4-3.5-1.8 0-3.4 1.3-3.9 3-.2 1-.2 2.1-.2 3.1-.1 4.2-.1 8.3.1 12.5.1 1.5.1 2.9 1.2 4.1 1.2 1.2 3.2 1.5 4.7.7zM216.7 129c-2.1 0-3.2 1.5-4.3 3-1.3 1.6-2.5 3.3-3.8 4.9-1.3 1.8-2.7 3.5-4 5.3-1 1.3-1.9 2.6-1.6 4.4.3 1.6 1.7 2.9 3.3 3.2 1.8.3 3.2-.7 4.2-2.1 2.5-3.5 5.1-6.9 7.7-10.3 1.2-1.5 2.7-3 2.3-5.1-.2-1.8-1.9-3.3-3.8-3.3zM113.6 441.1c-.4-1.3-.8-2.5-1.2-3.8-.8-2.9-1.5-5.8-2.1-8.8-.2-1.2-.3-2.5-1.2-3.4-.7-.7-1.8-1.3-3-1.3-2 0-3.8 1.6-4 3.6-.1.9.2 1.9.3 2.8.7 3.8 1.6 7.6 2.8 11.2.7 2.2 1.3 4.8 3.9 5.3 2.1.4 4.2-.9 4.7-2.9.2-.9.1-1.8-.2-2.7zm71.5 21c-1 0-1.9.5-2.9.9s-2 .9-3 1.3c-1.9.8-3.9 1.5-5.9 2.2-2.8 1-7.5 1.6-6.9 5.7.2 1.6 1.4 2.9 2.9 3.3 1.8.5 3.9-.5 5.6-1.1 2.1-.7 4.1-1.4 6.2-2.2 2-.8 4.1-1.5 6-2.5 3.4-2.2 2-7.6-2-7.6zm-56.4 1.4c-2.2-1.6-4.2-3.6-6-5.6-1-1.1-1.8-2.4-2.7-3.6-.8-1.1-1.9-1.8-3.3-1.8-2.3 0-4.1 2-4 4.3.1 1.2.8 2.1 1.4 3l.9 1.2c1.3 1.7 2.7 3.3 4.2 4.8 1.7 1.7 3.6 3.6 5.7 4.8 2 1.2 4.7.4 5.7-1.8.9-2.1-.2-4-1.9-5.3zM245.5 93c-1.1 1.2-1.8 2.4-1.5 4.1.3 1.6 1.7 2.9 3.3 3.2 2 .3 3.2-.9 4.4-2.2 1.4-1.4 2.8-2.9 4.2-4.3l3 3c1.3 1.3 2.5 3.2 4.5 3.5 1.6.2 3.3-.6 4.1-2 .7-1.3.6-3-.2-4.2-1.1-1.7-2.9-3.1-4.3-4.6l-1.4-1.4c1-1.1 1.8-2.2 1.5-3.9-.1-2-1.8-3.4-3.8-3.4-1.4 0-2.4.7-3.3 1.6-1-.9-2-1.6-3.3-1.6-3.6 0-5.2 4.4-2.8 6.9l.4.4-.1.1c-1.6 1.6-3.1 3.2-4.7 4.8zm-32.9 353.3c-2.1 0-4 1.9-5.7 3-1.9 1.2-3.7 2.4-5.6 3.6-2.6 1.6-7.4 3.3-5.9 7.3.6 1.6 2.1 2.6 3.8 2.6 2 0 4-1.7 5.7-2.7 3.2-1.9 6.3-4 9.4-6.1 1.5-1 2.6-2.4 2.3-4.3-.3-1.9-2-3.4-4-3.4zm-55.8 24.3c-1.5-.6-3.5-.2-5.1-.2-2 0-3.9-.1-5.9-.3-.9-.1-1.9-.3-2.8-.4-.9-.3-1.8-.6-2.7-.6-2.4 0-4.3 2.2-4 4.6.4 2.9 3.2 3.4 5.7 3.9 2.8.5 5.7.8 8.6.8h2.6c1.6-.1 3.4 0 4.7-1.1 1-.9 1.5-2.3 1.3-3.7-.2-1.3-1.1-2.5-2.4-3zM399.6 61.1c-.6 1.7.1 3.3.6 4.9.2.9.5 1.7.7 2.6-1.8.6-3.2 1.8-3.1 4.1.1 1.6 1.2 3 2.7 3.5 1.7.6 3.7-.2 5.5-.3 2.1-.2 4.2-.1 6.3.2 1 .2 1.9.4 2.9.6 1.1.3 2 .7 3.1.4 3.9-.8 4.2-6.5.4-7.7-3.2-1-6.5-1.6-9.8-1.7-.5-2.1-1-4.2-1.6-6.2-.6-1.7-2-3.1-3.9-3.1-1.7.1-3.2 1.1-3.8 2.7zM344.9 295c2.1.7 4-.4 5-2.2 1.1-1.9 2.1-3.8 3.1-5.7.9-1.6 1.7-3.2 2.6-4.8.8-1.6 2.2-3.4 2.3-5.2 0-2.2-1.8-4.1-4-4.1-2.6 0-3.6 2.2-4.6 4.2-1.2 2.3-2.5 4.6-3.7 6.9-.6 1.1-1.3 2.3-1.9 3.4-.5.9-1.2 1.9-1.4 3-.3 1.9.8 3.8 2.6 4.5zm19.7-30.4c.8-1.5 1.5-3 2.2-4.5.5.6 1.2 1.1 2.2 1.3 2 .4 4-.7 4.6-2.6.7-2.1-.7-4.2-1.5-6-.3-.6-.6-1.3-.9-1.9.6-1.2 1-2.4.8-3.7-.3-1.8-2-3.2-3.9-3.2h-.2c-.1-.1-.1-.2-.1-.3-1-2.3-1.9-4.9-4.8-4.9-2.1 0-3.8 1.6-4 3.7-.1 1 .3 1.9.7 2.8.6 1.2 1.2 2.5 1.8 3.7l.9 1.8c-.3.6-.6 1.2-.9 1.9-.9 2-1.9 3.9-2.8 5.8-.8 1.6-1.9 3.2-1.4 5 .8 3.4 5.5 4.1 7.3 1.1zm16.1-50.3c-1.9 0-3.2 1.2-3.9 2.9-.9 2.2-1.8 4.5-2.7 6.7-.9 2.2-1.8 4.4-2.7 6.5-.7 1.7-1.3 3.2-.3 4.9.9 1.5 2.8 2.3 4.5 1.8 2-.6 2.6-2.3 3.4-4.1l3.9-9.6c.7-1.7 1.9-3.7 1.7-5.5-.1-2-1.8-3.6-3.9-3.6zm6.3-7.2c1.9-.3 2.9-1.7 3.5-3.4 1.6-4.4 3.1-8.9 4.5-13.3.3-1 .7-2.1.6-3.2-.5-1.8-2.2-3.3-4.1-3.3-1.6 0-3.1 1-3.7 2.5-.9 2.1-1.4 4.4-2.1 6.5-.7 2.2-1.5 4.5-2.3 6.7-.6 1.7-1.5 3.5-.6 5.3.7 1.6 2.4 2.5 4.2 2.2zM115.7 319.5c.9 1.6 2.8 2.5 4.6 2 2.1-.6 2.7-2.4 3.3-4.3.8-2.4 1.5-4.8 2.3-7.2.5-1.4.9-2.7 1.4-4.1.4-1.1 1-2.3 1-3.5 0-2.2-1.9-4.1-4-4.1-3.5 0-4.2 3.8-5.1 6.4-1 2.9-1.9 5.9-2.9 8.8-.6 1.9-1.7 4-.6 6zm225.8-12c1.5-2.6.1-6.3-3.3-6.3-1.8 0-3 1.2-3.8 2.6-1.1 1.8-2.1 3.6-3.2 5.4-1.1 1.8-2.2 3.6-3.3 5.3-.9 1.4-2.1 2.8-2 4.6.1 3.2 4 5 6.5 3 1.2-1 1.9-2.6 2.7-4 1.7-2.7 3.3-5.5 5-8.2.5-.8 1-1.6 1.4-2.4zm-183-92.1c-.5 1-1.1 2-1.6 3-.3.6-.6 1.1-.9 1.7-.6 1.2-1.2 2.3-1.8 3.5-.7 1.3-1.6 2.7-1.9 4.1-.5 2.4 1.4 4.8 3.9 4.8 3.3 0 4.4-3.7 5.6-6.1 1.8-3.4 3.7-6.8 5.5-10.2 1.3-2.8-.4-6.1-3.5-6.1-3 0-4.1 3.1-5.3 5.3zm-13.4 44.5c.5 1.1 1 2.2 1.6 3.2.8 1.6 1.5 3 3.4 3.4 1.7.3 3.4-.4 4.3-1.9.9-1.5.5-3-.2-4.5-1-2-1.9-4-2.9-6-.5-1.2-1.1-2.3-1.7-3.5.6-1.3 1.2-2.6 1.9-4 .5-1.1 1.3-2.2 1.4-3.4.3-2.3-1.6-4.4-3.9-4.4-2.9 0-3.9 2.9-5 5.2h-.1c-1.7 0-3.2 1.1-3.7 2.6-.6 1.5 0 2.8.6 4.2 0 .1-.1.2-.1.2-.5 1.1-1.1 2.3-1.6 3.4-.4 1-1 1.9-1 3.1 0 1.9 1.4 3.6 3.3 3.9 1.7.3 2.9-.4 3.7-1.5zM132 270.7c-.9 2-1.7 4.1-2.5 6.1s-1.6 4.1-2.4 6.1c-.6 1.6-1.7 3.4-1.3 5.2.8 3.4 5.4 4.2 7.3 1.3.5-.8.8-1.8 1.1-2.7.4-1.1.8-2.2 1.3-3.3.8-2.1 1.6-4.1 2.5-6.2.7-1.8 2.1-3.9 1.6-5.9-.4-1.8-2-3.1-3.9-3.1-1.6 0-3 1-3.7 2.5zm267.6-131.2c-.2.9-.4 1.8-.1 2.7.8 3.3 5.3 4.1 7.2 1.2.5-.8.6-1.6.8-2.5.2-1.2.4-2.3.6-3.5.1-.5.2-1.1.3-1.6.8 0 1.5 0 2.3-.1 1.7-.1 3.9-.2 5.4-1.2 3.4-2.4 1-8-3.1-7.2-4.3.8-8.8.6-13-.8-1.6-.5-3.1-.6-4.4.6-1.2 1-1.7 2.7-1.2 4.2.5 1.7 1.9 2.5 3.6 3 .8.3 1.7.5 2.5.7-.1.4-.1.8-.2 1.3l-.7 3.2zm-13.2-98.8c1.5 1.4 2.9 2.9 4.1 4.6 1.3 1.7 2.3 3.6 3.6 5.4 2.3 3.3 7.6 1.4 7.3-2.6-.2-1.9-1.8-3.8-2.9-5.4-.2-.3-.4-.5-.6-.8-1-1.3-2-2.6-3-3.8-.3-.3-.6-.6-.9-1-1.6-1.7-3.5-4.2-6-4.2-1.9 0-3.6 1.4-3.9 3.3-.3 2.1.9 3.3 2.3 4.5zm-90.6 16.9c2 .1 3.5-1.4 5-2.4 3.5-2.4 7.1-4.6 10.6-6.9 3.2-2.1 2-7.4-2.1-7.4-2 0-3.9 1.7-5.5 2.7-1.8 1.1-3.5 2.3-5.2 3.4-1.7 1.2-3.7 2.3-5.3 3.7-1.1 1-1.6 2.6-1.1 4 .5 1.6 1.9 2.8 3.6 2.9zm56.7-25.9c1.4.1 2.9-.3 4.3-.4 1.5-.1 2.9-.2 4.4-.1 3.1 0 6.2.4 9.2 1.1 2.5.6 5.4 2.3 7.7.2 1.7-1.6 1.7-4.5-.1-6-.5-.5-1.2-.7-1.8-.9-4.8-1.6-9.9-2.3-14.9-2.3-.3-.1-.5-.1-.6-.1-1.1 0-2.2 0-3.3.1-1.3.1-2.6.2-4 .3-2 .2-4 1-4.5 3.3s1.3 4.6 3.6 4.8zm-56.1 341.8c2.6-3.4 5.2-6.7 7.8-10.1 1.2-1.5 2.6-3 2.2-5.1-.3-1.8-1.9-3.3-3.8-3.3-2 0-3.1 1.4-4.2 2.9-1.3 1.7-2.5 3.3-3.8 5-1.3 1.8-2.7 3.5-4.1 5.2-1 1.3-2 2.5-1.8 4.3.3 1.7 1.6 3.1 3.3 3.3 1.9.3 3.3-.8 4.4-2.2zm26.3-332.3c2 .3 4-1.2 5.8-2 1.9-.9 3.9-1.7 5.9-2.4.9-.3 1.8-.7 2.7-1s1.9-.5 2.7-1c3.4-2 2-7.5-2-7.5-1.8 0-3.9 1.1-5.6 1.7-2 .8-4 1.6-6 2.5-2.8 1.2-7.9 2.6-6.8 6.7.4 1.6 1.7 2.8 3.3 3zm77.5 131.9c1.3-4.5 2.4-8.9 3.5-13.4.3-1.1.7-2.3.5-3.4-.5-1.9-2.2-3.4-4.1-3.4-1.6 0-3.1 1-3.7 2.6-.8 2-1.1 4.4-1.6 6.5-.2.9-.5 1.8-.7 2.7-1-.5-2.2-.7-3.3-1-2.4-.6-4.7-1.2-7.1-1.7-1.2-.3-2.4-.6-3.6-.8-1.2-.3-2.5-.7-3.6-.7-3.4 0-5.2 4.2-3 6.7 1.3 1.4 3.4 1.5 5.2 1.9 2.2.5 4.3 1 6.5 1.5 2.1.5 4.2 1.2 6.3 1.5h.7c-.1.7 0 1.4.4 2.1.7 1.5 2.4 2.5 4.2 2.2 1.8-.3 2.9-1.6 3.4-3.3zM277.8 396.2c2.2-2.5 4.3-4.9 6.4-7.4.6-.7 1.3-1.4 1.8-2.2 1.6-2.6-.3-6.2-3.4-6.2-1.5 0-2.5.8-3.4 1.9-1.1 1.4-2.3 2.7-3.4 4-2.2 2.6-4.6 5-6.7 7.7-1.6 2.1-1 5.2 1.5 6.2 3.3 1.4 5.4-1.9 7.2-4zM158.8 287c.8 1.4 1.5 2.8 2.3 4.2 1 1.9 1.9 3.9 4.3 4.1 2.1.1 3.9-1.4 4.2-3.4.3-2.2-1.4-4.2-2.4-6-1.4-2.6-2.9-5.3-4.3-7.9-.9-2.3-1.9-5-4.8-5-2 0-3.7 1.6-4 3.6-.2 2 1.2 3.8 2.1 5.5.9 1.6 1.7 3.3 2.6 4.9zm-42.1-100.5c-.4 1.1-.2 2.2.2 3.3 1.3 4 2.6 8.1 4 12.1.6 1.8 1 3.9 2.9 4.8 1.6.8 3.5.5 4.7-.8 1.2-1.3 1.3-2.9.8-4.5-.8-2.2-1.6-4.4-2.3-6.7-.8-2.4-1.6-4.9-2.4-7.4-.7-1.8-1.9-3.4-4.1-3.4-1.7 0-3.2 1.1-3.8 2.6zm24.5 45.4c-.7-2.2-1.8-4.3-2.7-6.4-1-2.4-2-4.8-2.9-7.2-.8-2-1.8-4-4.3-4-1.8 0-3.3 1.2-3.8 2.9-.6 1.9.6 3.9 1.3 5.6 1.1 2.9 2.3 5.7 3.5 8.6.7 1.8 1.3 4.2 3 5.3 1.5.9 3.5.7 4.8-.5 1.2-1.1 1.6-2.8 1.1-4.3zm40.3 78.7c-1.2-2-2.4-4-3.6-6.1-.8-1.7-1.9-3.3-4.1-3.3-3.2 0-4.9 3.5-3.4 6.1.4.6.7 1.2 1.1 1.9.8 1.3 1.5 2.6 2.3 3.9.9 1.6 1.9 3.1 2.8 4.7.5.8 1 1.6 1.4 2.3.9 1.5 1.8 2.7 3.6 2.9 1.6.2 3.1-.6 3.9-2 .8-1.5.6-3-.3-4.4-1.2-2-2.5-4-3.7-6zM134.9 33.2c1.2.6 2.3.4 3.5 0 1.3-.4 2.6-.8 4-1.1 2.9-.6 5.9-.9 8.9-.9 1.7 0 3.4.1 5.1.2 1.5.1 3.1.6 4.5-.1 2.5-1.2 3-4.7.9-6.6-1.1-1-2.6-1-4-1.2-1.4-.1-2.9-.3-4.3-.3h-2.2c-2.7 0-5.5.2-8.2.6-2.6.4-5.2 1-7.6 1.9-3.3 1.2-4 5.8-.6 7.5zm41.2 3c2 .7 4 1.5 6 2.4 3 1.3 7.8 4.7 10.1.6.8-1.3.7-3-.1-4.2-1-1.5-3.1-2.1-4.7-2.9-2.2-1-4.3-1.9-6.6-2.8-1.1-.4-2.3-.9-3.4-1.3-1-.2-2.1-.7-3.2-.7-3.4 0-5.3 4.2-2.9 6.7 1.2 1.3 3.2 1.6 4.8 2.2zm168 165c.5-1.6-.1-2.9-.9-4.2-.9-1.6-1.8-3.1-2.7-4.6-1.3-2.1-2.5-4.3-3.8-6.4-1.2-1.8-2.2-3.9-4.7-3.9-1.7 0-3.2 1.1-3.8 2.7-.6 1.8.3 3.2 1.2 4.7 2.4 3.8 4.7 7.7 6.9 11.6.9 1.6 2 2.8 4 2.8 1.7 0 3.3-1.1 3.8-2.7zm2.3 18l2.4 4.5c.8 1.6 1.6 3.1 2.5 4.7.7 1.3 1.2 2.7 2.5 3.4 2.3 1.3 5.3-.1 5.8-2.7.3-1.3-.2-2.4-.8-3.5-.8-1.5-1.5-2.9-2.3-4.4-.5-.9-.9-1.7-1.4-2.6-.5-1-1-2-1.6-2.9-1.1-2.3-2.2-5.6-5.3-5.6-2.6 0-4.5 2.6-3.9 5 .4 1.5 1.4 2.8 2.1 4.1zm31.9 68.7c.6 1.6 1.5 2.9 3.2 3.2 1.6.3 3.3-.4 4.2-1.8 1-1.6.5-3.1-.2-4.8-.8-2-1.6-4.1-2.4-6.1-.9-2.3-1.8-4.6-2.8-6.8-.7-1.9-1.9-3.4-4-3.4-1.6 0-3.1 1-3.7 2.5-.7 1.7.1 3.3.8 4.9 1.7 4.1 3.3 8.2 4.9 12.3zm-66.6-125.7c2.5 3.6 4.9 7.2 7.3 10.9 1 1.5 1.9 3.1 3.9 3.4 1.6.2 3.3-.6 4.1-2 .7-1.3.6-2.8-.1-4.1-1.1-1.9-2.4-3.7-3.7-5.5-1.2-1.7-2.3-3.5-3.5-5.2.6.1 1.2.1 1.8.2 2.3.2 4.5.6 6.8.8 1.5.1 2.9-.5 3.8-1.8.9-1.3.9-3.1 0-4.4-1-1.6-2.7-1.8-4.4-2-2.4-.3-4.9-.6-7.3-.8-2.5-.3-5.1-.8-7.7-.8-3.4 0-5.3 4.3-2.9 6.8.2.2.5.4.7.6-.3 1.4.4 2.7 1.2 3.9zm92.4 198.3c-1.8 0-3.5 1.3-3.9 3.1-.2.9 0 1.8.1 2.8l.6 3.9c.4 2.5.7 5.1 1.1 7.6.2 2 .1 4.2 1.8 5.6 1.3 1.1 3.3 1.2 4.7.3 1.7-1.1 1.9-2.9 1.7-4.7-.3-2.8-.7-5.7-1.1-8.5-.3-2-.6-4-1-6.1-.3-2.2-1.7-4-4-4zM385.4 308l2.4 7.2c.6 1.9.9 4.4 2.7 5.6 1.5 1 3.7.9 5-.4 1.5-1.5 1.3-3.3.7-5.2-.9-2.9-1.9-5.9-2.8-8.8-.6-1.7-1.1-3.4-1.7-5.1-.6-1.6-1.9-3-4-3-1.9 0-3.6 1.4-3.9 3.2-.2.9 0 1.8.3 2.6.4 1.3.9 2.6 1.3 3.9zM201.7 48.9c1 .6 1.9 1.2 2.8 1.8 1.8 1.1 3.5 2.3 5.3 3.5.9.6 1.7 1.2 2.6 1.8.9.6 1.7 1.3 2.7 1.6 1.6.4 3.3-.3 4.2-1.7.8-1.2.9-2.9.1-4.2-.9-1.6-3.1-2.7-4.6-3.7-2-1.4-4-2.7-6-4-.9-.6-1.9-1.2-2.8-1.8-1.1-.7-2-1.3-3.3-1.3-3.4 0-5.2 4.1-3 6.6.6.6 1.3 1 2 1.4zm28.9 21.2c1.6 1.3 3.2 2.7 4.7 4 1.4 1.3 3 3.3 5 3.6 1.7.3 3.4-.6 4.2-2.1 1.9-3.6-2.4-6.3-4.7-8.3-1.8-1.5-3.6-3.1-5.4-4.6-1.6-1.2-3.4-3.3-5.7-3.3-3.4 0-5.3 4.2-2.9 6.7 1.4 1.5 3.2 2.7 4.8 4zm49.3 37.7c-1.5-1.6-2.8-3.6-5.1-3.6-1.7 0-3.3 1.2-3.8 2.8-.5 1.5.1 2.9 1.1 4.1 2.8 3.2 5.6 6.5 8.4 9.8 1.2 1.4 2.3 3.2 4.3 3.5 1.6.2 3.3-.6 4.1-2 .7-1.3.6-3-.2-4.2-1.2-1.7-2.7-3.3-4.1-4.9-1.5-1.8-3.1-3.7-4.7-5.5zm20.5 38.5c1.1 1.5 2.1 3.2 4.1 3.5 1.6.2 3.3-.6 4.1-2.1.7-1.4.6-2.9-.3-4.2-1.2-1.8-2.6-3.5-3.8-5.2-1.4-1.9-2.9-3.8-4.3-5.7-1.4-1.6-2.5-3.6-4.9-3.6-1.7 0-3.3 1.2-3.8 2.8-.5 1.6.2 3 1.1 4.2 2.6 3.4 5.2 6.8 7.8 10.3zM241 391.7c-1.3-1.5-2.6-2.9-3.8-4.4-1.3-1.5-2.6-3-3.8-4.5-1.1-1.2-2.2-2.4-4-2.4-2.7 0-4.7 2.8-3.8 5.4.4 1 1.2 1.9 1.9 2.7 1.3 1.6 2.6 3.1 4 4.6.8.9 1.5 1.8 2.3 2.6.7.8 1.4 1.5 2 2.3 1 1.1 1.9 2.3 3.5 2.5 2.7.4 5.1-2.1 4.5-4.8-.3-1.6-1.8-2.8-2.8-4zm130.7 77.4c-.9 0-1.8.3-2.6.5-.9.2-1.9.3-2.8.4-2 .2-3.9.3-5.9.3-1.6 0-3.6-.5-5.1.2-1.3.5-2.2 1.7-2.4 3-.2 1.4.3 2.8 1.3 3.7 1.3 1.2 3.1 1.1 4.7 1.1h3.2c2.3-.1 4.5-.2 6.8-.6 2.4-.4 5.6-.6 6.7-3.2.8-2.5-1.1-5.4-3.9-5.4zm34.2-45.3c-2.2 0-3.6 1.7-4 3.7-.5 2.7-1 5.4-1.8 8-.3 1.3-.7 2.5-1.1 3.7-.3 1.1-.9 2.2-1 3.3-.1 2 1.3 3.9 3.3 4.2 2.4.4 4-1.2 4.7-3.3l.6-1.8c1.2-3.7 2.1-7.5 2.8-11.3.1-.7.3-1.5.4-2.2.3-2.2-1.6-4.3-3.9-4.3zm-65.7 43.1c-.7-.2-1.5-.5-2.2-.7.6-2.3.5-4.6-2.3-5.6-1.6-.5-3.3 0-4.4 1.2-.5.6-.8 1.4-1 2.2-.4 1-.8 2-1.3 3-.9 1.7-2 3.3-3.3 4.8-1.2 1.3-3.1 2.5-3.7 4.2-.6 1.7 0 3.6 1.5 4.6 1.7 1.2 3.7.8 5.2-.5 2.2-2 4.2-4.3 5.8-6.8.3.1.6.2.8.3 3 1 7.8 3.5 9.8-.3.7-1.4.6-3.1-.4-4.4-1.1-1.3-3-1.5-4.5-2zm-77-51.8c-.5-.5-1-1-1.6-1.5l1.5-1.5c1-1 2-2 2.1-3.6 0-2.2-1.9-4.1-4.1-4.1-2.2 0-3.8 2-5.1 3.5-.6-.6-1.2-1.3-1.9-1.9-.8-.9-1.8-1.6-3.2-1.6-2 0-3.7 1.5-4 3.5-.2 1.7.7 2.9 1.8 4 .5.5 1.1 1.1 1.6 1.7l-.2.2c-.9.8-1.7 1.7-2.6 2.5-.7.7-1.4 1.4-1.7 2.4-.5 1.9.5 3.8 2.2 4.6 2.2 1 3.9-.2 5.4-1.6.8-.8 1.7-1.7 2.6-2.5l1.2 1.2c1.5 1.5 3 3.5 5.3 3.3 1.9-.1 3.5-1.7 3.7-3.7.2-2.2-1.6-3.5-3-4.9zM411.6 396c-.3-2.1-1.9-3.7-4-3.7-1.7 0-3.3 1.2-3.8 2.8-.3.9-.1 1.9-.1 2.9 0 1.3.1 2.6.1 3.9 0 2.5 0 5-.1 7.5-.1 1.9-.5 4 1 5.5 1.2 1.2 3.1 1.6 4.7.8 1.8-.9 2.2-2.7 2.2-4.5.2-3.6.2-7.2.1-10.8 0-1.5 0-3-.1-4.4zm-188.8-22.4c.7-1.4.4-3-.5-4.2l-3.9-5.1c-1.5-1.9-2.9-3.8-4.4-5.8-1.2-1.6-2.3-3.5-4.6-3.5-1.7 0-3.3 1.1-3.8 2.8-.5 1.6.1 3 1 4.2 2.5 3.4 5.1 6.8 7.8 10.2 1.2 1.5 2.2 3.3 4.2 3.6 1.7.3 3.4-.7 4.2-2.2zm172.5 78.9c-2.7 0-3.9 2.7-5.4 4.5-1.6 2-3.4 3.8-5.4 5.4-1.6 1.3-3.5 2.3-3.5 4.7.1 2.3 2.1 4.1 4.3 3.9 1.2-.1 2.2-.8 3.1-1.5 1.1-.8 2.1-1.7 3.1-2.6 1.9-1.7 3.6-3.6 5.2-5.6.3-.4.7-.9 1-1.3.5-.8 1.2-1.5 1.4-2.4.7-2.6-1.2-5.1-3.8-5.1zM108.9 79.8c.5-.8.5-1.7.7-2.7.2-1.1.3-2.3.5-3.4.4-2 .8-4.1 1.3-6.1.3-1.1.6-2.3.9-3.4.3-.9.5-1.8.2-2.7-.3-1.7-1.9-3-3.8-3-1.7 0-3.1 1-3.7 2.6-.7 1.8-1.1 3.9-1.6 5.8-.5 2.2-.9 4.4-1.3 6.6-.3 1.7-1 3.9-.4 5.6 1.1 3.2 5.5 3.6 7.2.7zm3.3 63.4c1-1.7.4-3.5 0-5.3-.4-2.2-.8-4.5-1.1-6.7-.3-2.3-.4-4.7-1-6.9-.5-1.7-2.2-3-3.9-3-1.5 0-3 .9-3.6 2.3-.8 1.7-.1 3.8.1 5.6.3 2.2.6 4.3 1 6.5s.5 4.5 1.2 6.6c1 3.3 5.5 3.9 7.3.9zm-7.7-29.8c1.9 0 3.5-1.3 3.9-3.2.2-1.2 0-2.5-.1-3.6-.1-1.4-.1-2.8-.2-4.3-.1-3 .1-5.9 0-8.9.1-2.1-1.6-3.9-3.8-3.9-2 0-3.8 1.6-4 3.6-.1.7 0 1.5-.1 2.2 0 3.1 0 6.3.1 9.4.1 3.2-.4 8.7 4.2 8.7zM116 52.2c2.1-.7 2.9-3.2 4.1-4.9 1.3-2 2.8-3.8 4.5-5.5 1.4-1.5 3.4-2.6 3.4-4.9 0-2.2-1.8-4-4-4-2.5 0-4.3 2.5-5.9 4.1-.3.3-.5.6-.8.9l-1.5 1.8c-.5.6-1 1.3-1.5 2-.9 1.2-1.7 2.5-2.5 3.8-.9 1.6-1.6 3.2-.6 4.9.9 1.7 3 2.4 4.8 1.8zm226.9 110.1c.9.5 2 .5 3 .7 1.4.2 2.7.4 4.1.6 2.6.4 5.1.8 7.7 1.3 2 .4 4.1.9 5.7-.6 1.3-1.2 1.6-3.2.8-4.7-1-2-3.1-2.1-5.1-2.5-.9-.2-1.9-.3-2.8-.5-1.5-.2-2.9-.5-4.4-.7-1.4-.2-2.8-.5-4.3-.7-.9-.2-1.9-.4-2.8-.4-4.1 0-5.5 5.7-1.9 7.5zm168.9 84.3c-.1-1.4-.4-2.9-.6-4.3-.5-2.2-1.6-4.4-4.3-4.4-1.9 0-3.6 1.4-3.9 3.3-.2 1 .1 1.9.3 2.8.3 1.3.4 2.5.6 3.8.2 2.6.1 5.2-.2 7.7-.2 1.7.2 3.4 1.8 4.4 2.6 1.6 5.6-.2 6.1-3.1.3-1.7.4-3.4.4-5.1 0-1.7 0-3.4-.2-5.1zm-151 97.8c1.6-.3 3.5-.4 5-1 3.9-1.9 2.6-7.8-1.6-7.8-1.1 0-2.3.4-3.4.6-1.2.2-2.4.4-3.6.7l-7.2 1.2c-1.8.3-3.8.3-4.9 2-1 1.4-1 3.2-.1 4.6 1.1 1.6 2.9 1.9 4.7 1.6 2.3-.4 4.7-.8 7-1.2 1.4-.2 2.8-.5 4.1-.7zm142-77.9c-2.9 0-3.8 2.7-5 4.7-1.5 2.4-3.2 4.8-5.1 7-1.6 1.9-3.6 3.7-2.4 6.3 1.1 2.4 4.2 3.1 6.2 1.5.7-.6 1.3-1.3 1.9-2 1.2-1.4 2.3-2.7 3.3-4.2 1-1.3 1.9-2.6 2.7-4 .8-1.3 1.9-2.7 2.3-4.2.7-2.5-1.3-5.1-3.9-5.1zm-230.7 82.8c0-2.3-1.9-4.2-4.1-4.2-2.7 0-5.4.1-8.1.1s-5.4-.1-8 0c-4.4.2-5.5 6.4-1.2 7.8 1.5.5 3.4.2 4.9.2h2c3.4 0 6.8 0 10.2-.1 2.2-.1 4.2-1.4 4.3-3.8zm139.6-171.5c2.3.7 4.5 1.5 6.8 2.2 1.9.6 4.1 1.9 6.1 1 1.6-.7 2.6-2.4 2.4-4.2-.2-1.9-1.6-2.9-3.3-3.5-1.5-.5-2.9-1-4.4-1.5-1.3-.4-2.6-.9-3.9-1.3l-3.9-1.2c-1.3-.2-2.6-.8-3.8-.8-3.8 0-5.4 5-2.3 7.2.8.6 1.8.8 2.7 1 1.2.4 2.4.7 3.6 1.1zM294 149.5c-4.5-.2-9-.6-13.5-.6-3.5 0-5.3 4.5-2.8 6.9 1.4 1.4 3.5 1.1 5.3 1.2 2.4.1 4.7.2 7.1.3 2.2.1 4.6.5 6.8.4 1.5-.1 2.9-1.1 3.5-2.6.6-1.5.2-3.2-1-4.3-1.4-1.4-3.6-1.1-5.4-1.3zm36.1 199.3c1.1-.1 2.4-.1 3.5-.5 4.2-1.4 3.2-7.8-1.2-7.8-2.3 0-4.8.6-7.1.8-1.9.2-3.7.4-5.6.6 1-1.4 1.9-2.8 2.8-4.2 1.1-1.7 2.9-3.5 2.6-5.7-.3-1.9-2.1-3.4-4-3.4-2.1 0-3.1 1.5-4.2 3.1-1.3 1.9-2.5 3.8-3.8 5.7-1.3 1.9-2.6 3.8-3.9 5.6-1 1.4-1.6 2.9-.8 4.6.7 1.6 2.5 2.5 4.2 2.3.5-.1.9-.2 1.3-.5 1.7 1.2 4 .6 6 .5 2.2-.2 4.5-.5 6.7-.7 1.2-.1 2.3-.3 3.5-.4zm138.8-145.5c1.8 1.1 3.6 2.3 5.3 3.5 1.5 1 3.1 2.8 5 3.1 1.6.3 3.3-.6 4.1-2 2.1-3.7-2.2-6-4.7-7.8-1.9-1.3-3.9-2.6-5.8-3.9-1-.6-2-1.3-3.1-1.9-1.1-.6-2-1.1-3.1-1.1-3.5 0-5.3 4.3-2.9 6.8.7.7 1.6 1.1 2.4 1.6.9.6 1.9 1.1 2.8 1.7zm-83.6 135.9c2.1-.5 4.1-1 6.2-1.5.9-.2 1.7-.4 2.6-.6.2.9.5 1.8.7 2.7l1.8 7.5c.5 2 .7 4.1 2.8 5 1.8.8 3.9.1 4.9-1.5 1.2-1.9.3-4.2-.2-6.3-.5-2.3-1.1-4.6-1.7-6.9-.4-1.7-.9-3.4-1.3-5.2-.4-1.5-1.5-3-3.3-3.2-.6-.4-1.3-.7-2.2-.7-1 0-1.9.4-2.9.6-1.1.3-2.2.6-3.4.9-2.1.5-4.3 1.1-6.5 1.6-1.8.4-4.1.5-5.6 1.7-1.2 1-1.7 2.7-1.2 4.2.4 1.5 1.8 2.6 3.3 2.8.9.1 1.7-.1 2.6-.3 1.1-.3 2.3-.5 3.4-.8zm105.9-117.4c1.1 1.3 2.2 2.6 3.3 4 1 1.3 2 2.7 2.9 4.1.8 1.2 1.7 2.1 3.2 2.3 2.8.3 5.1-2.4 4.3-5.1-.5-1.7-2.1-3.5-3.1-5-.7-1-1.4-1.9-2.2-2.8-.8-1-1.6-1.9-2.4-2.9-.9-1-1.8-2-2.7-2.9-.8-.8-1.8-1.3-3-1.3-2.9 0-4.9 3.2-3.6 5.8.7 1.5 2.3 2.6 3.3 3.8zm-35.5 84.6c-1.9 0-3.9 1.5-5.6 2.3-1.9.9-3.8 1.8-5.8 2.7-2.8 1.3-7.9 2.4-7.1 6.6.3 1.6 1.6 2.8 3.1 3.1 2 .4 4-.9 5.8-1.7 2-.9 4.1-1.8 6.1-2.8 1.8-.9 3.8-1.7 5.6-2.8 3.4-2.1 1.9-7.4-2.1-7.4zM159.6 156c-2.1 0-4.4.7-6.4 1l-6.6 1.2c-1.7.3-4 .4-5.4 1.6-1.2 1.1-1.7 2.8-1.2 4.3 1.4 4.2 6.4 2.2 9.5 1.7 2.2-.4 4.4-.8 6.5-1.2 1-.2 2.1-.4 3.1-.5.9-.2 1.8-.2 2.6-.8 3.3-2 1.8-7.3-2.1-7.3zm286.8 35.2c1.2.6 2.4 1.1 3.6 1.7 1.2.6 2.4 1 3.8.5 2-.7 3.1-3 2.4-5.1-.6-1.8-2.2-2.4-3.8-3.1-1.9-.9-3.8-1.8-5.7-2.6l-4.8-2.1c-1.1-.6-2.5-1.4-4-1.4-2.3 0-4.2 2-4 4.3.2 2.7 2.5 3.4 4.6 4.3 2.7 1.1 5.3 2.3 7.9 3.5zM284.6 352.6c2.4-.1 4.9-.2 7.3-.4 1.2-.1 2.5-.1 3.7-.2 1.1-.1 2.2-.1 3.3-.2 1-.1 2.1 0 3.1-.5 3.7-1.9 2.3-7.6-1.8-7.6-2.4 0-4.7.3-7.1.4-2.3.1-4.7.3-7 .4-1.9.1-3.8 0-5.1 1.6-1 1.3-1.2 3.1-.4 4.5.9 1.5 2.4 2.1 4 2zM426.3 319c-1.3 0-2.6.7-3.9 1.1-1.4.5-2.9 1-4.4 1.5-2.8.9-5.7 1.6-8.5 2.7-1.9.8-3 2.9-2.4 4.9.6 2.1 2.8 3.2 4.8 2.7 3.9-1 7.7-2.4 11.5-3.8l2.7-.9c1.8-.7 3.6-1.4 4-3.5.6-2.4-1.3-4.7-3.8-4.7zm56.2-29.5c-1.4 0-2.3.7-3.3 1.5-1.1.9-2.3 1.8-3.5 2.6-2.3 1.6-4.6 3.2-6.9 4.7-1.8 1.2-3.5 2.4-3.2 4.9.4 2.2 2.5 3.7 4.7 3.3 1-.2 1.8-.8 2.6-1.3 1.7-1.1 3.3-2.1 4.9-3.3 2.3-1.6 4.6-3.3 6.8-5 .8-.6 1.5-1.4 1.7-2.4.7-2.5-1.2-5-3.8-5zm-458.1-5.7l-2.3-2.3c-1.6-1.7-3.1-3.4-4.5-5.2-1.2-1.8-2.2-3.6-4.5-3.6-1.6 0-3.2 1.1-3.7 2.6-.6 1.6-.1 3 .9 4.3 2.4 3.3 5.1 6.3 7.9 9.2 1.3 1.3 2.7 3.1 4.6 3.4 1.7.2 3.4-.6 4.2-2.1.7-1.3.5-3-.4-4.2-.6-.8-1.4-1.4-2.2-2.1zm187.1-125.9c2.4-.2 4.8-.3 7.2-.5 1.2-.1 2.4-.1 3.5-.2 1-.1 2 0 2.9-.4 4.1-1.5 2.9-7.6-1.4-7.6-3.4 0-6.9.4-10.3.6-1.2.1-2.3.2-3.5.2-1.1.1-2.3 0-3.4.3-1.6.4-2.8 1.8-3 3.4-.2 1.6.6 3.2 2 4 1.7 1 4.1.4 6 .2zm-160.6 145c-1.8-1.1-3.6-2.1-5.3-3.2-1.7-1-3.4-2.1-5-3.2-1.6-1-3.1-2.4-5-2.4-2.8 0-4.8 3-3.7 5.5.5 1.1 1.4 1.8 2.4 2.4.7.5 1.5 1 2.2 1.5.6.4 1.3.9 2 1.3 1.4.9 2.8 1.8 4.2 2.6 1.6.9 3.2 2.1 4.9 2.8 2.7 1.1 5.7-1.1 5.5-4-.1-1.4-1-2.5-2.2-3.3zm26.7 12.8l-7.2-3c-1.2-.5-2.4-1.1-3.6-1.6-1.2-.6-2.3-1.3-3.6-1.3-3.6 0-5.4 4.7-2.6 7 .7.6 1.7 1 2.6 1.4 1 .5 2 .9 3.1 1.4l6.3 2.7c2.4 1 5.5 2.9 7.9.9 1.3-1.1 1.8-2.9 1.2-4.4-.7-1.9-2.4-2.4-4.1-3.1zm139.7 35.8c1.6 1.1 4.1.8 6 .9 1.5.1 2.9.1 4.4.2 1.5.1 2.9.1 4.4.2 1.6.1 3.6.5 5.2-.2 3.6-1.5 2.9-7-.9-7.6-1.3-.2-2.7-.1-4.1-.2-1.4-.1-2.9-.1-4.3-.2-2.8-.1-5.7-.4-8.5-.4-3.9 0-5.4 5.2-2.2 7.3zm-32.6-199.1c-2.4.3-4.7.6-7.1.9-1 .1-2.1.2-3.2.5-1.6.4-2.7 1.8-2.9 3.4-.2 1.6.7 3.3 2.2 4 1.7.9 3.9.2 5.8-.1 2.3-.3 4.7-.6 7-.8 1.2-.1 2.3-.3 3.5-.4.8-.1 1.7-.1 2.5-.3-.9 1.3-1.7 2.5-2.6 3.8-1.2 1.8-2.5 3.7-3.7 5.5-.9 1.4-1.9 2.7-1.5 4.5.8 3.6 5.4 4.1 7.4 1.2 2.4-3.6 4.8-7.3 7.3-10.9 1.1-1.6 2.6-3.2 2.2-5.2-.4-2-2.1-3.4-4-3.4-.9 0-1.6.3-2.1.7 0-2-1.4-4.1-4-4.1-2.3 0-4.6.5-6.8.7zm-59.4 186.5c1.5.4 3.1.7 4.7 1.1l6.9 1.5c1.8.4 3.6.9 5.2-.4 1.3-1.1 1.8-2.9 1.2-4.5-.7-1.9-2.3-2.4-4.1-2.8-2.6-.5-5.1-1.1-7.7-1.7-1.3-.3-2.6-.6-4-.9-1.1-.3-2.4-.8-3.6-.8-3.6 0-5.3 4.6-2.7 7 1.1 1 2.7 1.1 4.1 1.5zm136.4-182.4c1.4 0 3.1.3 4.4-.4 2.3-1.2 2.9-4.3 1.2-6.3-1.8-1.9-4.9-1.3-7.2-1.3h-1.9c-.7-.1-1.5-.1-2.2-.1-3.8 0-7.6 0-11.5.1-1 0-2 0-3 .1-1.8 0-3.5 0-4.8 1.5-2.2 2.7-.1 6.5 3.2 6.6 5.3.1 10.7-.2 16.1-.2h5.7zM10.9 236.6c1-1.6 1.7-3.5 2.6-5.1 1-1.8 2.2-3.5 3.4-5.2 1.2-1.6 2.8-3 2.5-5.2-.2-1.9-1.9-3.4-3.9-3.4-1.8 0-2.8 1.1-3.9 2.4-1.3 1.7-2.6 3.4-3.7 5.3-1.1 1.7-2.1 3.4-3 5.2-.8 1.5-1.8 3.1-1.3 4.9.8 3.3 5.5 4.1 7.3 1.1zm-.9 25.8c-.6-2.5-1.4-4.8-1.7-7.4-.2-1.3-.2-2.6-.3-3.8 0-1 .2-2.1 0-3.1-.4-1.9-2.1-3.2-4-3.2-1.6 0-3.2 1.1-3.7 2.6-.4 1-.3 2.1-.3 3.1v1c0 .9.1 1.7.1 2.6.2 3 .8 5.9 1.7 8.8.1.5.3.9.4 1.4.8 2.4 3.4 3.8 5.8 2.5 1.6-.9 2.4-2.8 2-4.5zm114.3-99.5c-.9.2-1.9.5-2.8.7-.9.2-1.8.4-2.7.7-.3.1-.6.2-1 .2l-.2-.8-1.8-7.5c-.4-1.9-1.9-3.3-3.9-3.3-1.7 0-3.3 1.1-3.8 2.7-.3.9-.2 1.8 0 2.8.6 2.8 1.3 5.6 2.1 8.3-.1.1-.2.2-.4.3-3.1 2.4-.9 6.9 2.4 7.1.4.8.9 1.5 1.8 1.9 1.6.8 3.6.5 4.8-.8.8-.9 1-1.8 1-2.8 2.8-.7 5.6-1.5 8.5-2.2 2.1-.5 3.8-1.9 3.7-4.2-.2-2.1-2-3.8-4.1-3.8-1.2 0-2.5.5-3.6.7zM173 339.7c-1.2-.5-2.7-.5-3.9-.7-1.5-.2-3-.4-4.5-.7-1.5-.2-3.1-.5-4.6-.7s-3.1-.7-4.6-.7c-4.3 0-5.5 6.2-1.5 7.7 1.8.7 4 .8 5.9 1.1.5.1 1 .2 1.5.2 3.2.5 6.5 1.3 9.8 1.5 4.3.2 5.9-5.9 1.9-7.7zm-65.3-5.5c1 .2 2 0 2.8-.5-.2.7-.3 1.5-.5 2.1-.6 2.3-1.2 4.6-1.7 7-.3 1.2-.6 2.4-.8 3.6-.2 1.1-.6 2.1-.3 3.2.5 1.9 2.2 3.2 4.2 3.1 2-.1 3.3-1.6 3.7-3.5.6-2.5 1.1-5 1.7-7.5.4-1.5.7-2.9 1.1-4.4.3-1.3.9-2.7 1-4.1 0-2.1-1.8-4.1-4.1-4.1-1.1 0-1.8.3-2.4.9-.1-.7-.3-1.4-.7-2-1.1-1.5-3-1.8-4.7-2.3-2.4-.7-4.7-1.4-7.1-2.2-1.2-.4-2.3-.7-3.5-1.1-1.1-.3-2.3-.9-3.4-.9-3.4 0-5.2 4.1-3 6.6 1.2 1.4 3.3 1.7 5 2.2 2.1.7 4.2 1.3 6.3 2 2.1.6 4.2 1.5 6.4 1.9zm97.2 16.7c3.7-1.5 3-7-.9-7.7-.4-.1-.8-.1-1.1-.1-.3-.4-.6-.8-.9-1.3-.7-1-1.4-2-2.1-3.1-1.5-2.2-2.9-4.3-4.4-6.5-1.1-1.6-2.2-3.6-4.6-3.6-1.8 0-3.4 1.2-3.9 2.9-.5 1.9.5 3.2 1.5 4.7 1.3 2 2.6 3.9 4 5.9-.4 0-.7-.1-1.1-.1-1.3-.3-2.7-.5-4-.5-3.9 0-5.4 5.2-2.2 7.4.9.6 1.9.6 2.9.8 1.2.1 2.4.3 3.5.4.7.1 1.5.2 2.2.2 1.7.2 3.5.3 5.2.5 1.8.2 4.1.8 5.9.1zM311 480.3c-4.3.8-8.8.6-13-.8-1.6-.5-3.1-.6-4.4.6-1.2 1-1.7 2.7-1.2 4.2.5 1.7 1.9 2.5 3.6 3 2.1.7 4.2 1.1 6.4 1.3 2.1.2 4.3.3 6.4.1 1.7-.1 3.9-.2 5.4-1.2 3.3-2.4.9-8-3.2-7.2zm5.6-57.8c-4.1-1.3-8.4-1.9-12.7-1.6-3.1.2-8.5.5-8.2 4.9.1 1.6 1.2 3 2.7 3.5 1.7.6 3.7-.2 5.5-.3 2.1-.2 4.2-.1 6.3.2 1 .2 1.9.4 2.9.6 1.1.3 2 .7 3.1.4 3.9-.8 4.2-6.5.4-7.7zm-31.9 47.1c-.6-.9-1.2-1.9-1.7-2.9-1.1-2.1-1.9-4.3-2.4-6.6-.4-1.7-1.1-3.2-2.8-3.7-1.5-.5-3.3 0-4.3 1.2-1.2 1.5-1 3.1-.6 4.8.5 2 1.1 3.9 1.9 5.7.8 1.8 1.7 3.6 2.8 5.3 1 1.5 2.2 3.6 3.9 4.4 3.5 1.7 7.3-2.4 5.1-5.7-.6-.8-1.3-1.6-1.9-2.5zm-.6-40.8c-1 .8-1.9 1.7-2.8 2.7l-1.6-1.3c-1.5-1.4-3.2-3.6-5.5-3.6-3.5 0-5.3 4.3-2.8 6.8 1.5 1.5 3.2 2.8 4.8 4.2l.3.3c0 .1-.1.1-.1.2-1.5 2.7-4.3 7.1-1.3 9.7 1.4 1.2 3.6 1.3 5.1.1 1.4-1.1 1.8-3.2 2.6-4.8.9-1.7 2-3.4 3.2-4.9.6-.8 1.3-1.5 2-2.1.7-.7 1.5-1.2 2-2 2.4-3.9-2.6-8.1-5.9-5.3zm49.6 6.2c-1-1.4-2.2-3.3-3.9-3.9-3.7-1.4-6.9 3.1-4.6 6.2 1.4 1.8 2.7 3.4 3.8 5.5 1.1 2.1 1.9 4.3 2.4 6.6.7 3.5 5.3 4.7 7.3 1.6 1-1.5.6-3 .2-4.6-.5-2-1.2-4-2.1-5.9-.8-1.9-1.9-3.7-3.1-5.5zm97.4-345.2c1.1 2.1 1.9 4.3 2.4 6.6.7 3.5 5.3 4.7 7.3 1.6 1-1.5.6-3 .2-4.6-.5-2-1.2-4-2.1-5.9-.9-1.9-1.9-3.7-3.2-5.4-1-1.4-2.2-3.3-3.9-3.9-3.7-1.4-6.9 3.1-4.6 6.2 1.4 1.7 2.8 3.3 3.9 5.4zm6.6 17.8c-1.6-.5-3.3 0-4.4 1.2-.5.6-.8 1.4-1 2.2-.4 1-.8 2-1.3 3-.9 1.7-2 3.3-3.3 4.8-1.2 1.3-3.1 2.5-3.7 4.2-.6 1.7 0 3.6 1.5 4.6 1.7 1.2 3.7.8 5.2-.5 3-2.6 5.4-5.8 7.3-9.3 1.5-2.8 4.5-8.6-.3-10.2zm-60.6-12.9c1.4 1.2 3.6 1.3 5.1.1 1.4-1.1 1.8-3.2 2.6-4.8.9-1.7 2-3.4 3.2-4.9.6-.8 1.3-1.5 2-2.1.7-.7 1.5-1.2 2-2 2.3-3.8-2.6-8-6-5.2-3.1 2.6-5.7 5.7-7.6 9.2-1.5 2.7-4.3 7.2-1.3 9.7zm2.5 25.8c1 1.5 2.2 3.6 3.9 4.4 3.5 1.7 7.3-2.4 5.1-5.7-.6-.9-1.4-1.7-2-2.6-.6-.9-1.2-1.9-1.7-2.9-1.1-2.1-1.9-4.3-2.4-6.6-.4-1.7-1.1-3.2-2.8-3.7-1.5-.5-3.3 0-4.3 1.2-1.2 1.4-.9 3.1-.5 4.8.5 2 1.1 3.9 1.9 5.7.8 2 1.7 3.7 2.8 5.4zM62.7 223.7c1.7-.1 3.9-.2 5.4-1.2 3.4-2.4 1-8-3.1-7.2-4.3.8-8.8.6-13-.8-1.6-.5-3.1-.6-4.4.6-1.2 1-1.7 2.7-1.2 4.2.5 1.7 1.9 2.5 3.6 3 2.1.7 4.2 1.1 6.4 1.3 2 .2 4.2.3 6.3.1zm-10.3-59.5c1.7.6 3.7-.2 5.5-.3 2.1-.2 4.2-.1 6.3.2 1 .2 1.9.4 2.9.6 1.1.3 2 .7 3.1.4 3.9-.8 4.2-6.5.4-7.7-4.1-1.3-8.4-1.9-12.7-1.6-3.1.2-8.5.5-8.2 4.9.2 1.6 1.2 3 2.7 3.5zm37.3 31.4c-1.6-.5-3.3 0-4.4 1.2-.5.6-.8 1.4-1 2.2-.4 1-.8 2-1.4 3-.9 1.7-2 3.3-3.3 4.8-1.2 1.3-3.1 2.5-3.7 4.2-.6 1.7 0 3.6 1.5 4.6 1.7 1.2 3.7.8 5.2-.5 3-2.6 5.4-5.8 7.3-9.3 1.6-2.8 4.6-8.6-.2-10.2zm-55.4-12.8c1.4-1.1 1.8-3.2 2.6-4.8.9-1.7 2-3.4 3.2-4.9.6-.8 1.3-1.5 2-2.1.7-.7 1.5-1.2 2-2 2.3-3.8-2.6-8-6-5.2-3.1 2.6-5.7 5.7-7.6 9.2-1.5 2.7-4.3 7.1-1.3 9.7 1.4 1.3 3.6 1.3 5.1.1zm1.7 30.4c3.8 1.2 6.8-3.4 4.3-6.4-3.1-3.5-4.8-7.7-5.8-12.2-.8-3.4-5.3-4.5-7.3-1.4-1 1.6-.5 3.4-.1 5 .5 1.8 1.1 3.5 1.8 5.2-.6.5-1.3.9-1.9 1.4-1.7 1.3-4.2 2.8-4.6 5.1-.4 2.1 1 4.1 3 4.6 2.6.6 4.3-1.6 6.1-3 .5-.4.9-.7 1.4-1.1.8 1.2 1.8 2.3 3.1 2.8zm47.1-35.4c1.1 2.1 1.9 4.3 2.4 6.6.7 3.5 5.3 4.7 7.3 1.6 1-1.5.6-3 .2-4.6-.1-.3-.2-.7-.3-1 .2-.1.4-.1.5-.2 1.7-.6 3.5-1 5.1-1.7 1.1-.4 1.9-1.3 2.3-2.4 1-2.5-.9-5.3-3.7-5.3-1.6 0-3.3.9-4.8 1.4-.5.2-1 .3-1.4.5-.4.1-.7.2-1.1.4-.6-1-1.2-2.1-1.9-3-1-1.4-2.2-3.3-3.9-3.9-3.7-1.4-6.9 3.1-4.6 6.2 1.4 1.7 2.8 3.3 3.9 5.4z" fill="#36434f"/></svg>