<svg version="1.1" xmlns="http://www.w3.org/2000/svg" x="0" y="0" viewBox="0 0 512 512" xml:space="preserve"><path d="M306 256c0 27.6-22.4 50-50 50s-50-22.4-50-50 22.4-50 50-50 50 22.4 50 50zm206 0c0 141.4-114.6 256-256 256S0 397.4 0 256c0-58.4 19.5-112.2 52.4-155.2-5.9-7-9.4-16-9.4-25.8 0-22.1 17.9-40 40-40 10.5 0 20 4 27.1 10.6C151.5 16.9 201.8 0 256 0c141.4 0 256 114.6 256 256zm-34.9 93.4c12.6-29.6 18.9-61 18.9-93.4 0-32.4-6.4-63.8-18.9-93.4-12-28.6-29.4-54.3-51.4-76.3-22.1-22-47.7-39.3-76.3-51.4C319.8 22.3 288.4 16 256 16c-32.4 0-63.8 6.3-93.4 18.9-15.2 6.4-29.7 14.3-43.1 23.7 2.3 5 3.5 10.6 3.5 16.4 0 22.1-17.9 40-40 40-6.5 0-12.6-1.5-18-4.3-12.1 15.9-22.2 33.3-30.1 51.9C22.3 192.2 16 223.6 16 256c0 32.4 6.3 63.8 18.9 93.4 12 28.6 29.4 54.3 51.4 76.3 22.1 22 47.7 39.3 76.3 51.4 29.6 12.6 61 18.9 93.4 18.9 32.4 0 63.8-6.4 93.4-18.9 28.6-12 54.3-29.4 76.3-51.4 22-22.1 39.3-47.7 51.4-76.3zm-86.2-171.9c13.4 23 21.1 49.8 21.1 78.5 0 86.2-69.8 156-156 156-28.6 0-55.4-7.7-78.5-21.1-7 6.1-16.2 9.8-26.2 9.8-22.1 0-40-17.9-40-40 0-10 3.7-19.2 9.8-26.2-13.4-23-21.1-49.8-21.1-78.5 0-86.2 69.8-156 156-156 28.6 0 55.4 7.7 78.5 21.1 7-6.1 16.2-9.8 26.2-9.8 22.1 0 40 17.9 40 40 0 10-3.7 19.2-9.8 26.2zM396 256c0-24.4-6.2-47.9-17.9-68.7-5.3 2.5-11.1 4-17.4 4-22.1 0-40-17.9-40-40 0-6.2 1.4-12.1 4-17.4-20.8-11.7-44.3-17.9-68.7-17.9-37.4 0-72.6 14.6-99 41-26.4 26.4-41 61.6-41 99 0 24.4 6.2 47.9 17.9 68.7 5.3-2.5 11.1-4 17.4-4 22.1 0 40 17.9 40 40 0 6.2-1.4 12.1-4 17.4C208 389.8 231.5 396 256 396c37.4 0 72.6-14.6 99-41 26.4-26.4 41-61.6 41-99z" fill="#36434f"/></svg>