<svg version="1.1" xmlns="http://www.w3.org/2000/svg" x="0" y="0" viewBox="0 0 512 512" xml:space="preserve"><path d="M259 404h-21v-4h21v4zm21-23h-42v4h42v-4zm-21-19h-21v4h21v-4zm0 57h-21v4h21v-4zm0 19h-21v4h21v-4zm0 19h-21v4h21v-4zm21 19h-42v4h42v-4zm0-190h-42v4h42v-4zm-21-19h-21v4h21v-4zm253-80v19c0 3.3-2.7 6-6 6h-18.4c-5.9 13-19 22-34.1 22-9.8 0-18.8-3.8-25.5-10h-38v256c0 17.7-14.3 32-32 32H154c-17.7 0-32-14.3-32-32V171.7c0-12.6 4.9-24.7 13.8-33.7l48.6-49.2c8.4-8.5 11.3-21 7.7-32.3L180 19h-9c-1.7 0-3-1.3-3-3V3c0-1.7 1.3-3 3-3h170c1.7 0 3 1.3 3 3v13c0 1.7-1.3 3-3 3h-9l-12.1 37.5c-3.6 11.4-.6 23.8 7.8 32.3l48.5 49.2c8.2 8.4 13.1 19.4 13.7 31H428c6.7-6.2 15.6-10 25.5-10 15.2 0 28.2 9 34.1 22H506c3.3 0 6 2.7 6 6zm-274-87h42v-4h-42v4zm0 19h21v-4h-21v4zm0 19h21v-4h-21v4zm0 19h21v-4h-21v4zm0 19h21v-4h-21v4zm0 19h42v-4h-42v4zm0 19h21v-4h-21v4zm0 19h21v-4h-21v4zm0 19h21v-4h-21v4zm136 7H138v221c0 8.8 7.2 16 16 16h204c8.8 0 16-7.2 16-16V259zm46.1-60.5h4c-.1-.7-.1-1.3-.1-2s0-1.3.1-2h-4c0 .7-.1 1.3-.1 2s0 1.3.1 2zm6.9 11.1c-.2-.6-.5-1.2-.8-1.8s-.5-1.2-.7-1.9l-3.7 1.5c.4 1.3.9 2.5 1.5 3.7l3.7-1.5zm.1-26.2l-3.7-1.5c-.6 1.2-1.1 2.4-1.5 3.7l3.8 1.5c.3-1.3.8-2.5 1.4-3.7zm52.8 0c.3.6.6 1.2.8 1.8.3.6.5 1.2.7 1.9l3.8-1.5c-.4-1.3-.9-2.5-1.5-3.7l-3.8 1.5zm-28.4-16.3c.7-.1 1.3-.1 2-.1s1.3 0 2 .1v-4c-.7 0-1.3-.1-2-.1s-1.3 0-2 .1v4zm-17.4 51.6c-1-.9-1.9-1.8-2.8-2.8l-2.8 2.8c.9 1 1.8 1.9 2.8 2.8l2.8-2.8zm0-44.4l-2.8-2.8c-1 .9-1.9 1.8-2.8 2.8l2.8 2.8c.9-1 1.8-1.9 2.8-2.8zm10 50.1c-1.3-.4-2.5-.9-3.7-1.5l-1.5 3.7c1.2.6 2.4 1.1 3.7 1.5l1.5-3.7zm0-55.9l-1.5-3.7c-1.3.4-2.5.9-3.7 1.5l1.5 3.6c.6-.2 1.2-.5 1.8-.8.6-.2 1.2-.4 1.9-.6zm11.4 57.4c-.7.1-1.3.1-2 .1s-1.3 0-2-.1v4c.7 0 1.3.1 2 .1s1.3 0 2-.1v-4zm7-29.4c0-5-4-9-9-9s-9 4-9 9 4 9 9 9 9-4 9-9zm5.6 30.1l-1.5-3.6c-.6.2-1.2.5-1.8.8-.6.3-1.2.5-1.9.7l1.5 3.7c1.3-.5 2.5-1 3.7-1.6zm0-60.2c-1.2-.6-2.4-1.1-3.7-1.5l-1.5 3.8c1.3.4 2.5.9 3.7 1.5l1.5-3.8zm10.4 52.3l-2.8-2.8c-.9 1-1.8 1.9-2.8 2.8l2.8 2.8c1-.8 2-1.8 2.8-2.8zm0-44.4c-.9-1-1.8-1.9-2.8-2.8l-2.8 2.8c1 .9 1.9 1.8 2.8 2.8l2.8-2.8zm6.7 33.1l-3.8-1.5c-.4 1.3-.9 2.5-1.5 3.7l3.7 1.5c.6-1.2 1.1-2.4 1.6-3.7zm1.8-10.9c0-.7 0-1.3-.1-2h-4c0 .7.1 1.3.1 2s0 1.3-.1 2h4c.1-.7.1-1.3.1-2zM259 343h-21v4h21v-4zm0-19h-21v4h21v-4zm0-19h-21v4h21v-4z" fill="#36434f"/></svg>