<svg xmlns="http://www.w3.org/2000/svg" viewBox="0 0 512 512" xml:space="preserve"><path d="M408.2 0H101v512h309.9V0h-2.7zM389 20h2v24h-80v-5.5c0-4.4-3.6-8-8-8s-8 3.6-8 8V44h-3v-5.5c0-4.4-3.6-8-8-8s-8 3.6-8 8V44h-3v-5.5c0-4.4-3.6-8-8-8s-8 3.6-8 8V44h-3v-5.5c0-4.4-3.6-8-8-8s-8 3.6-8 8V44h-3v-5.5c0-4.4-3.6-8-8-8s-8 3.6-8 8V44h-3v-5.5c0-4.4-3.6-8-8-8s-8 3.6-8 8V44h-3v-5.5c0-4.4-3.6-8-8-8s-8 3.6-8 8V44h-3v-5.5c0-4.4-3.6-8-8-8s-8 3.6-8 8V44h-3v-5.5c0-4.4-3.6-8-8-8s-8 3.6-8 8V44h-3v-5.5c0-4.4-3.6-8-8-8s-8 3.6-8 8V44h-3V20h268zm2 444h-80v-5.5c0-4.4-3.6-8-8-8s-8 3.6-8 8v5.5h-3v-5.5c0-4.4-3.6-8-8-8s-8 3.6-8 8v5.5h-3v-5.5c0-4.4-3.6-8-8-8s-8 3.6-8 8v5.5h-3v-5.5c0-4.4-3.6-8-8-8s-8 3.6-8 8v5.5h-3v-5.5c0-4.4-3.6-8-8-8s-8 3.6-8 8v5.5h-3v-5.5c0-4.4-3.6-8-8-8s-8 3.6-8 8v5.5h-3v-5.5c0-4.4-3.6-8-8-8s-8 3.6-8 8v5.5h-3v-5.5c0-4.4-3.6-8-8-8s-8 3.6-8 8v5.5h-3v-5.5c0-4.4-3.6-8-8-8s-8 3.6-8 8v5.5h-3v-5.5c0-4.4-3.6-8-8-8s-8 3.6-8 8v5.5h-3v-38h3v5.5c0 4.4 3.6 8 8 8s8-3.6 8-8V426h3v5.5c0 4.4 3.6 8 8 8s8-3.6 8-8V426h3v5.5c0 4.4 3.6 8 8 8s8-3.6 8-8V426h3v5.5c0 4.4 3.6 8 8 8s8-3.6 8-8V426h3v5.5c0 4.4 3.6 8 8 8s8-3.6 8-8V426h3v5.5c0 4.4 3.6 8 8 8s8-3.6 8-8V426h3v5.5c0 4.4 3.6 8 8 8s8-3.6 8-8V426h3v5.5c0 4.4 3.6 8 8 8s8-3.6 8-8V426h3v5.5c0 4.4 3.6 8 8 8s8-3.6 8-8V426h3v5.5c0 4.4 3.6 8 8 8s8-3.6 8-8V426h80v38zm0-42h-80v-5.5c0-4.4-3.6-8-8-8s-8 3.6-8 8v5.5h-3v-5.5c0-4.4-3.6-8-8-8s-8 3.6-8 8v5.5h-3v-5.5c0-4.4-3.6-8-8-8s-8 3.6-8 8v5.5h-3v-5.5c0-4.4-3.6-8-8-8s-8 3.6-8 8v5.5h-3v-5.5c0-4.4-3.6-8-8-8s-8 3.6-8 8v5.5h-3v-5.5c0-4.4-3.6-8-8-8s-8 3.6-8 8v5.5h-3v-5.5c0-4.4-3.6-8-8-8s-8 3.6-8 8v5.5h-3v-5.5c0-4.4-3.6-8-8-8s-8 3.6-8 8v5.5h-3v-5.5c0-4.4-3.6-8-8-8s-8 3.6-8 8v5.5h-3v-5.5c0-4.4-3.6-8-8-8s-8 3.6-8 8v5.5h-3v-38h3v5.5c0 4.4 3.6 8 8 8s8-3.6 8-8V384h3v5.5c0 4.4 3.6 8 8 8s8-3.6 8-8V384h3v5.5c0 4.4 3.6 8 8 8s8-3.6 8-8V384h3v5.5c0 4.4 3.6 8 8 8s8-3.6 8-8V384h3v5.5c0 4.4 3.6 8 8 8s8-3.6 8-8V384h3v5.5c0 4.4 3.6 8 8 8s8-3.6 8-8V384h3v5.5c0 4.4 3.6 8 8 8s8-3.6 8-8V384h3v5.5c0 4.4 3.6 8 8 8s8-3.6 8-8V384h3v5.5c0 4.4 3.6 8 8 8s8-3.6 8-8V384h3v5.5c0 4.4 3.6 8 8 8s8-3.6 8-8V384h80v38zm0-42h-80v-5.5c0-4.4-3.6-8-8-8s-8 3.6-8 8v5.5h-3v-5.5c0-4.4-3.6-8-8-8s-8 3.6-8 8v5.5h-3v-5.5c0-4.4-3.6-8-8-8s-8 3.6-8 8v5.5h-3v-5.5c0-4.4-3.6-8-8-8s-8 3.6-8 8v5.5h-3v-5.5c0-4.4-3.6-8-8-8s-8 3.6-8 8v5.5h-3v-5.5c0-4.4-3.6-8-8-8s-8 3.6-8 8v5.5h-3v-5.5c0-4.4-3.6-8-8-8s-8 3.6-8 8v5.5h-3v-5.5c0-4.4-3.6-8-8-8s-8 3.6-8 8v5.5h-3v-5.5c0-4.4-3.6-8-8-8s-8 3.6-8 8v5.5h-3v-5.5c0-4.4-3.6-8-8-8s-8 3.6-8 8v5.5h-3v-38h3v5.5c0 4.4 3.6 8 8 8s8-3.6 8-8V342h3v5.5c0 4.4 3.6 8 8 8s8-3.6 8-8V342h3v5.5c0 4.4 3.6 8 8 8s8-3.6 8-8V342h3v5.5c0 4.4 3.6 8 8 8s8-3.6 8-8V342h194v38zm0-42H197v-5.5c0-4.4-3.6-8-8-8s-8 3.6-8 8v5.5h-3v-5.5c0-4.4-3.6-8-8-8s-8 3.6-8 8v5.5h-3v-5.5c0-4.4-3.6-8-8-8s-8 3.6-8 8v5.5h-3v-5.5c0-4.4-3.6-8-8-8s-8 3.6-8 8v5.5h-3v-38h3v5.5c0 4.4 3.6 8 8 8s8-3.6 8-8V300h3v5.5c0 4.4 3.6 8 8 8s8-3.6 8-8V300h3v5.5c0 4.4 3.6 8 8 8s8-3.6 8-8V300h3v5.5c0 4.4 3.6 8 8 8s8-3.6 8-8V300h3v5.5c0 4.4 3.6 8 8 8s8-3.6 8-8V300h3v5.5c0 4.4 3.6 8 8 8s8-3.6 8-8V300h3v5.5c0 4.4 3.6 8 8 8s8-3.6 8-8V300h3v5.5c0 4.4 3.6 8 8 8s8-3.6 8-8V300h3v5.5c0 4.4 3.6 8 8 8s8-3.6 8-8V300h3v5.5c0 4.4 3.6 8 8 8s8-3.6 8-8V300h80v38zm0-42h-80v-5.5c0-4.4-3.6-8-8-8s-8 3.6-8 8v5.5h-3v-5.5c0-4.4-3.6-8-8-8s-8 3.6-8 8v5.5h-3v-5.5c0-4.4-3.6-8-8-8s-8 3.6-8 8v5.5h-3v-5.5c0-4.4-3.6-8-8-8s-8 3.6-8 8v5.5h-3v-5.5c0-4.4-3.6-8-8-8s-8 3.6-8 8v5.5h-3v-5.5c0-4.4-3.6-8-8-8s-8 3.6-8 8v5.5h-3v-5.5c0-4.4-3.6-8-8-8s-8 3.6-8 8v5.5h-3v-5.5c0-4.4-3.6-8-8-8s-8 3.6-8 8v5.5h-3v-5.5c0-4.4-3.6-8-8-8s-8 3.6-8 8v5.5h-3v-5.5c0-4.4-3.6-8-8-8s-8 3.6-8 8v5.5h-3v-38h3v5.5c0 4.4 3.6 8 8 8s8-3.6 8-8V258h3v5.5c0 4.4 3.6 8 8 8s8-3.6 8-8V258h3v5.5c0 4.4 3.6 8 8 8s8-3.6 8-8V258h3v5.5c0 4.4 3.6 8 8 8s8-3.6 8-8V258h3v5.5c0 4.4 3.6 8 8 8s8-3.6 8-8V258h3v5.5c0 4.4 3.6 8 8 8s8-3.6 8-8V258h3v5.5c0 4.4 3.6 8 8 8s8-3.6 8-8V258h3v5.5c0 4.4 3.6 8 8 8s8-3.6 8-8V258h3v5.5c0 4.4 3.6 8 8 8s8-3.6 8-8V258h3v5.5c0 4.4 3.6 8 8 8s8-3.6 8-8V258h80v38zm0-42h-80v-5.5c0-4.4-3.6-8-8-8s-8 3.6-8 8v5.5h-3v-5.5c0-4.4-3.6-8-8-8s-8 3.6-8 8v5.5h-3v-5.5c0-4.4-3.6-8-8-8s-8 3.6-8 8v5.5h-3v-5.5c0-4.4-3.6-8-8-8s-8 3.6-8 8v5.5h-3v-5.5c0-4.4-3.6-8-8-8s-8 3.6-8 8v5.5h-3v-5.5c0-4.4-3.6-8-8-8s-8 3.6-8 8v5.5h-3v-5.5c0-4.4-3.6-8-8-8s-8 3.6-8 8v5.5h-3v-5.5c0-4.4-3.6-8-8-8s-8 3.6-8 8v5.5h-3v-5.5c0-4.4-3.6-8-8-8s-8 3.6-8 8v5.5h-3v-5.5c0-4.4-3.6-8-8-8s-8 3.6-8 8v5.5h-3v-38h3v5.5c0 4.4 3.6 8 8 8s8-3.6 8-8V216h3v5.5c0 4.4 3.6 8 8 8s8-3.6 8-8V216h3v5.5c0 4.4 3.6 8 8 8s8-3.6 8-8V216h3v5.5c0 4.4 3.6 8 8 8s8-3.6 8-8V216h3v5.5c0 4.4 3.6 8 8 8s8-3.6 8-8V216h3v5.5c0 4.4 3.6 8 8 8s8-3.6 8-8V216h3v5.5c0 4.4 3.6 8 8 8s8-3.6 8-8V216h3v5.5c0 4.4 3.6 8 8 8s8-3.6 8-8V216h3v5.5c0 4.4 3.6 8 8 8s8-3.6 8-8V216h3v5.5c0 4.4 3.6 8 8 8s8-3.6 8-8V216h80v38zm0-42h-80v-5.5c0-4.4-3.6-8-8-8s-8 3.6-8 8v5.5h-3v-5.5c0-4.4-3.6-8-8-8s-8 3.6-8 8v5.5h-3v-5.5c0-4.4-3.6-8-8-8s-8 3.6-8 8v5.5h-3v-5.5c0-4.4-3.6-8-8-8s-8 3.6-8 8v5.5h-3v-5.5c0-4.4-3.6-8-8-8s-8 3.6-8 8v5.5h-3v-5.5c0-4.4-3.6-8-8-8s-8 3.6-8 8v5.5h-3v-5.5c0-4.4-3.6-8-8-8s-8 3.6-8 8v5.5h-3v-5.5c0-4.4-3.6-8-8-8s-8 3.6-8 8v5.5h-3v-5.5c0-4.4-3.6-8-8-8s-8 3.6-8 8v5.5h-3v-5.5c0-4.4-3.6-8-8-8s-8 3.6-8 8v5.5h-3v-38h3v5.5c0 4.4 3.6 8 8 8s8-3.6 8-8V174h3v5.5c0 4.4 3.6 8 8 8s8-3.6 8-8V174h3v5.5c0 4.4 3.6 8 8 8s8-3.6 8-8V174h3v5.5c0 4.4 3.6 8 8 8s8-3.6 8-8V174h3v5.5c0 4.4 3.6 8 8 8s8-3.6 8-8V174h3v5.5c0 4.4 3.6 8 8 8s8-3.6 8-8V174h3v5.5c0 4.4 3.6 8 8 8s8-3.6 8-8V174h3v5.5c0 4.4 3.6 8 8 8s8-3.6 8-8V174h3v5.5c0 4.4 3.6 8 8 8s8-3.6 8-8V174h3v5.5c0 4.4 3.6 8 8 8s8-3.6 8-8V174h80v38zm0-42h-80v-5.5c0-4.4-3.6-8-8-8s-8 3.6-8 8v5.5h-3v-5.5c0-4.4-3.6-8-8-8s-8 3.6-8 8v5.5h-3v-5.5c0-4.4-3.6-8-8-8s-8 3.6-8 8v5.5h-3v-5.5c0-4.4-3.6-8-8-8s-8 3.6-8 8v5.5h-3v-5.5c0-4.4-3.6-8-8-8s-8 3.6-8 8v5.5h-3v-5.5c0-4.4-3.6-8-8-8s-8 3.6-8 8v5.5h-3v-5.5c0-4.4-3.6-8-8-8s-8 3.6-8 8v5.5h-3v-5.5c0-4.4-3.6-8-8-8s-8 3.6-8 8v5.5h-3v-5.5c0-4.4-3.6-8-8-8s-8 3.6-8 8v5.5h-3v-5.5c0-4.4-3.6-8-8-8s-8 3.6-8 8v5.5h-3v-38h3v5.5c0 4.4 3.6 8 8 8s8-3.6 8-8V132h3v5.5c0 4.4 3.6 8 8 8s8-3.6 8-8V132h3v5.5c0 4.4 3.6 8 8 8s8-3.6 8-8V132h3v5.5c0 4.4 3.6 8 8 8s8-3.6 8-8V132h3v5.5c0 4.4 3.6 8 8 8s8-3.6 8-8V132h3v5.5c0 4.4 3.6 8 8 8s8-3.6 8-8V132h3v5.5c0 4.4 3.6 8 8 8s8-3.6 8-8V132h3v5.5c0 4.4 3.6 8 8 8s8-3.6 8-8V132h3v5.5c0 4.4 3.6 8 8 8s8-3.6 8-8V132h3v5.5c0 4.4 3.6 8 8 8s8-3.6 8-8V132h80v38zm0-42h-80v-5.5c0-4.4-3.6-8-8-8s-8 3.6-8 8v5.5h-3v-5.5c0-4.4-3.6-8-8-8s-8 3.6-8 8v5.5h-3v-5.5c0-4.4-3.6-8-8-8s-8 3.6-8 8v5.5h-3v-5.5c0-4.4-3.6-8-8-8s-8 3.6-8 8v5.5h-3v-5.5c0-4.4-3.6-8-8-8s-8 3.6-8 8v5.5h-3v-5.5c0-4.4-3.6-8-8-8s-8 3.6-8 8v5.5h-3v-5.5c0-4.4-3.6-8-8-8s-8 3.6-8 8v5.5h-3v-5.5c0-4.4-3.6-8-8-8s-8 3.6-8 8v5.5h-3v-5.5c0-4.4-3.6-8-8-8s-8 3.6-8 8v5.5h-3v-5.5c0-4.4-3.6-8-8-8s-8 3.6-8 8v5.5h-3V90h3v5.5c0 4.4 3.6 8 8 8s8-3.6 8-8V90h3v5.5c0 4.4 3.6 8 8 8s8-3.6 8-8V90h3v5.5c0 4.4 3.6 8 8 8s8-3.6 8-8V90h3v5.5c0 4.4 3.6 8 8 8s8-3.6 8-8V90h3v5.5c0 4.4 3.6 8 8 8s8-3.6 8-8V90h3v5.5c0 4.4 3.6 8 8 8s8-3.6 8-8V90h3v5.5c0 4.4 3.6 8 8 8s8-3.6 8-8V90h3v5.5c0 4.4 3.6 8 8 8s8-3.6 8-8V90h3v5.5c0 4.4 3.6 8 8 8s8-3.6 8-8V90h3v5.5c0 4.4 3.6 8 8 8s8-3.6 8-8V90h80v38zm0-42h-80v-5.5c0-4.4-3.6-8-8-8s-8 3.6-8 8V86h-3v-5.5c0-4.4-3.6-8-8-8s-8 3.6-8 8V86h-3v-5.5c0-4.4-3.6-8-8-8s-8 3.6-8 8V86h-3v-5.5c0-4.4-3.6-8-8-8s-8 3.6-8 8V86h-3v-5.5c0-4.4-3.6-8-8-8s-8 3.6-8 8V86h-3v-5.5c0-4.4-3.6-8-8-8s-8 3.6-8 8V86h-3v-5.5c0-4.4-3.6-8-8-8s-8 3.6-8 8V86h-3v-5.5c0-4.4-3.6-8-8-8s-8 3.6-8 8V86h-3v-5.5c0-4.4-3.6-8-8-8s-8 3.6-8 8V86h-3v-5.5c0-4.4-3.6-8-8-8s-8 3.6-8 8V86h-3V48h3v5.5c0 4.4 3.6 8 8 8s8-3.6 8-8V48h3v5.5c0 4.4 3.6 8 8 8s8-3.6 8-8V48h3v5.5c0 4.4 3.6 8 8 8s8-3.6 8-8V48h3v5.5c0 4.4 3.6 8 8 8s8-3.6 8-8V48h3v5.5c0 4.4 3.6 8 8 8s8-3.6 8-8V48h3v5.5c0 4.4 3.6 8 8 8s8-3.6 8-8V48h3v5.5c0 4.4 3.6 8 8 8s8-3.6 8-8V48h3v5.5c0 4.4 3.6 8 8 8s8-3.6 8-8V48h3v5.5c0 4.4 3.6 8 8 8s8-3.6 8-8V48h3v5.5c0 4.4 3.6 8 8 8s8-3.6 8-8V48h80v38zM123 492h-2v-24h3v5.5c0 4.4 3.6 8 8 8s8-3.6 8-8V468h3v5.5c0 4.4 3.6 8 8 8s8-3.6 8-8V468h3v5.5c0 4.4 3.6 8 8 8s8-3.6 8-8V468h3v5.5c0 4.4 3.6 8 8 8s8-3.6 8-8V468h3v5.5c0 4.4 3.6 8 8 8s8-3.6 8-8V468h3v5.5c0 4.4 3.6 8 8 8s8-3.6 8-8V468h3v5.5c0 4.4 3.6 8 8 8s8-3.6 8-8V468h3v5.5c0 4.4 3.6 8 8 8s8-3.6 8-8V468h3v5.5c0 4.4 3.6 8 8 8s8-3.6 8-8V468h3v5.5c0 4.4 3.6 8 8 8s8-3.6 8-8V468h80v24H123z" fill="#36434f"/></svg>