<svg version="1.1" xmlns="http://www.w3.org/2000/svg" x="0" y="0" viewBox="0 0 512 512" xml:space="preserve"><path d="M256 306c-27.6 0-50-22.4-50-50s22.4-50 50-50 50 22.4 50 50-22.4 50-50 50zM199.9 21.7c1.8.4 3.4.1 5.2-.3 2.2-.5 4.4-.9 6.7-1.3 4.4-.8 8.9-1.5 13.3-2.1 4.5-.6 9-1 13.4-1.4 2.3-.2 4.5-.3 6.8-.4 1.9-.1 3.8.1 5.6-.5 6.4-2 7.5-11 1.7-14.5-1.3-.8-2.8-1.2-4.4-1.1-4.1.1-8.1.3-12.2.7-3.6.3-7.2.6-10.8 1.1-2.1.3-4.3.5-6.4.8-3.2.5-6.4 1-9.6 1.6-2.2.4-4.4.8-6.6 1.3-1.8.4-3.6.6-5.2 1.6-5.7 3.7-4.1 12.9 2.5 14.5zM93.1 432.3c-1.2-1.1-2.4-2.3-3.6-3.4-4.8-4.6-9.4-9.5-13.9-14.5-2.2-2.5-4.2-5.1-6.4-7.6-1.8-2.1-4.6-3.1-7.3-2.6-5.4.9-8.4 7.1-5.6 11.9 1.3 2.3 3.4 4.4 5.2 6.4 1.1 1.2 2.1 2.5 3.2 3.7 4.2 4.8 8.7 9.4 13.2 13.8 1.6 1.6 3.3 3.1 4.9 4.7 1.6 1.5 3.1 2.9 5.3 3.4 2.8.6 5.7-.4 7.6-2.5.8-.9 1.5-2 1.8-3.2.6-2.4.2-4.9-1.3-6.9-.8-1.4-2-2.3-3.1-3.2zm136.7 62.3c-6.3-.7-12.5-1.6-18.7-2.8-3-.6-6.1-1.2-9.1-1.9-3.1-.7-6.2-1.7-9.4-2.3-4.8-1-9.4 2.5-9.7 7.4-.1 2.3.7 4.5 2.3 6.1 1.9 1.9 4.4 2.3 6.9 2.9 9.8 2.5 19.8 4.5 29.8 5.8 1.7.2 3.3.4 5 .6 1.5.2 2.9.3 4.4-.2 2.3-.7 4.2-2.4 5.1-4.7 1.9-4.8-1.4-10.3-6.6-10.9zm54.9-477.1c1.1.4 2.3.5 3.5.6 1.5.2 3.1.4 4.6.7 2.9.5 5.9 1 8.8 1.5 5.7 1.1 11.3 2.4 16.9 3.9 2.8.7 5.7 2 8.6 1.3 2.4-.6 4.4-2.2 5.4-4.4 2-4.4-.4-9.7-5-11-12.6-3.7-25.5-6.3-38.5-8-4.1-.5-8.2 1.5-9.3 5.8-1.2 3.9 1 8.2 5 9.6zM157.7 475c-8.6-3.8-16.9-8.2-24.9-13-2-1.2-4-2.4-5.9-3.7-1.9-1.2-3.6-2.5-5.9-2.6-3.8-.2-7.3 2.3-8.2 6-.9 3.3.5 6.8 3.4 8.7 3.8 2.6 7.8 4.9 11.8 7.2 4 2.3 8.2 4.6 12.3 6.7 2.1 1 4.1 2.1 6.2 3.1 2.1 1 4.2 2.3 6.5 2.8 4.1.8 8.3-1.8 9.3-5.9.8-3.7-1.1-7.7-4.6-9.3zM21.3 310c.3-1.2.3-2.4.1-3.6-1.4-6.5-2.5-13.1-3.4-19.8-.4-3.4-.8-6.7-1.1-10.1-.1-1.7-.3-3.4-.4-5.1-.1-1.3-.1-2.6-.4-3.9-1.2-4.6-6.5-7.2-10.9-5.3-2.1.9-3.7 2.6-4.4 4.7-.6 1.7-.4 3.4-.3 5.2.2 3.2.5 6.3.8 9.4.8 7.6 1.9 15.2 3.3 22.7.8 4.2 1.2 9 5.6 11 4.5 2.2 9.9-.4 11.1-5.2zm30.2-194.5c-3.8-2.4-8.7-1.2-11.1 2.5-.6.9-1.2 1.9-1.8 2.8-5 8-9.5 16.3-13.6 24.8l-3.3 7.2c-.8 1.8-1.1 3.6-.6 5.5 1 4 5 6.7 9.1 6 1.8-.3 3.5-1.3 4.8-2.7 1.5-1.8 2.3-4.3 3.2-6.4 2.2-4.6 4.5-9.2 6.9-13.7 2.8-5.1 5.8-9.9 8.8-14.8 2.3-3.8 1.3-8.8-2.4-11.2zM4.4 237.4c1.2.9 2.5 1.4 4 1.5 3 .3 5.9-1.1 7.5-3.6.8-1.3 1.2-2.7 1.3-4.1.2-2 .4-4.1.7-6.1 1-8.1 2.5-16.2 4.4-24.2.5-1.9 1-3.9 1.4-5.8.4-1.5.4-2.9 0-4.4-.8-2.8-3.2-5-6-5.6-3.1-.7-6.4.6-8.2 3.2-1 1.4-1.3 3-1.7 4.6-.4 1.4-.7 2.9-1.1 4.3-.8 3.3-1.5 6.6-2.1 9.9-.6 3.2-1.2 6.5-1.7 9.8-.3 1.7-.5 3.5-.7 5.2-.4 2.6-.7 5.3-.9 7.9-.3 2.9.8 5.7 3.1 7.4zm40.2 132.4c-3.8-7.1-7.3-14.4-10.4-21.9-.8-1.9-1.5-3.7-2.2-5.6-2.4-6.3-11.4-6.8-14.5-.8-1.3 2.4-1.1 4.9-.1 7.3l.9 2.4c1.8 4.5 3.7 9 5.8 13.3 1.4 3 2.9 6 4.4 9 .8 1.5 1.5 2.9 2.3 4.4.8 1.5 1.7 3 2.5 4.5.9 1.6 1.7 3.1 3.2 4.2 2.7 1.9 6.3 2 9 .2 2.4-1.6 3.8-4.4 3.6-7.2-.1-1.7-.8-3-1.6-4.5-.9-1.7-1.9-3.5-2.9-5.3zm458.7-92.6c-3.6-.4-7 1.7-8.4 5-.8 1.9-.8 4.2-1 6.2-.3 2.4-.7 4.8-1.1 7.3-.8 4.7-1.7 9.4-2.8 14-.5 2.4-1.1 4.8-1.7 7.1-.5 2-1.4 4.1-1.4 6.2 0 3.5 2.3 6.6 5.6 7.7 3.5 1.1 7.3-.3 9.2-3.4 1.1-1.8 1.5-4.1 2-6.1.6-2.3 1.2-4.6 1.7-6.9 1.1-4.7 2.1-9.4 2.9-14.1.5-2.7.9-5.3 1.3-8 .3-2.4 1-5.1.8-7.5-.3-3.8-3.3-7-7.1-7.5zM457.7 98.4c-3.8-4.9-7.9-9.7-12-14.3-3.6-4-7.3-7.8-11.1-11.5-1.7-1.7-3.7-4-5.9-5.1-4-1.9-9 0-10.7 4.1-.8 1.8-.8 3.8-.2 5.6.7 2.2 2.4 3.6 4 5.1 7.6 7.2 14.7 14.9 21.2 23.1 1.6 2 3 4.3 5.6 5.3 2.4.9 5.1.7 7.3-.7 3.8-2.5 4.7-8 1.8-11.6zm-19.5 317.4c-2.6.2-4.4 1.6-6.1 3.4-1.9 2.1-3.9 4.1-5.9 6.2-3.9 4-8 7.8-12.2 11.4-2.1 1.9-4.3 3.7-6.5 5.5-1.9 1.5-3.7 2.8-4.6 5.2-1.5 4.2.8 9 5.1 10.3 2.3.7 4.9.4 6.9-1 .6-.4 1.2-.9 1.8-1.4 3.3-2.7 6.6-5.4 9.8-8.3 3-2.7 6-5.5 8.9-8.3 2.2-2.2 4.3-4.3 6.5-6.6 1.9-2 4.1-3.9 4.8-6.7.9-5.1-3.3-10.1-8.5-9.7zm53.3-206.2c1.2 6.3 2.2 12.6 2.9 19 .4 3.1.7 6.3.9 9.4.2 3.1.2 6.3.5 9.4.5 4.4 4.6 7.6 9 7.1 2.1-.3 4.1-1.4 5.4-3.2 1.6-2.1 1.6-4.5 1.5-7-.5-10.5-1.6-20.9-3.4-31.3-.3-1.7-.6-3.3-.9-4.9-.3-1.4-.5-2.8-1.3-4.1-1.2-2.1-3.4-3.5-5.7-3.8-5.3-.9-9.9 4.1-8.9 9.4zm-6.7 142.6c-2.2-1-4.9-1-7.1.2-2.1 1.1-3.2 3-4.2 5.1-2.4 5.1-4.9 10.1-7.7 15-2.7 4.9-5.6 9.7-8.7 14.5-1.2 1.9-2.5 3.6-2.6 5.9-.1 1.9.5 3.9 1.7 5.4 2.9 3.7 8.6 4 11.9.6.9-.9 1.5-2.1 2.2-3.1.8-1.2 1.6-2.5 2.4-3.7 1.5-2.5 3-4.9 4.5-7.4 1.4-2.4 2.7-4.8 4-7.2 2.3-4.3 4.6-8.8 6.7-13.2 1.1-2.3 1.8-4.5 1-7-.5-2.3-2-4.1-4.1-5.1zM129.7 50.3c2.3.1 4.1-.9 6-2 2-1.2 4-2.3 6-3.4 8.2-4.5 16.7-8.4 25.5-11.9 3.6-1.4 6.1-4.8 5.5-8.9-.6-4-4.3-7-8.4-6.8-2.3.1-4.5 1.4-6.6 2.2-2.2.9-4.4 1.9-6.6 2.8-4.2 1.9-8.4 3.9-12.5 6-4.2 2.2-8.3 4.4-12.4 6.8-2.9 1.7-4.7 4.9-4.1 8.3.7 3.9 3.9 6.7 7.6 6.9zm179.4 441.3c-1.1-.5-2.4-.7-3.6-.6-1.8.1-3.5.6-5.3 1-1.7.3-3.4.6-5.2.9-3.5.6-7.1 1.1-10.6 1.5-3.5.4-7 .8-10.5 1-1.8.1-3.5.2-5.3.3-1.3.1-2.6.1-3.9.6-4.8 1.8-6.7 7.7-3.9 11.9 1.4 2 3.6 3.4 6.1 3.5 1.7.1 3.5-.1 5.2-.2 2.6-.2 5.2-.4 7.7-.6 4.8-.5 9.7-1 14.5-1.8 3.4-.5 6.9-1.1 10.3-1.8 2.8-.5 5.6-1 7.5-3.3 3.5-4 1.9-10.4-3-12.4zm48.5-453.1c2.4 1.3 5 2.4 7.4 3.7 2.4 1.3 4.9 2.5 7.3 3.9 4.8 2.7 9.5 5.5 14.2 8.5 2.4 1.6 4.8 3.7 7.8 4 2.6.2 5.1-.8 6.8-2.7 3.1-3.6 2.4-9.2-1.6-11.9-10.8-7.3-22.2-13.9-34.1-19.5-2.3-1.1-4.6-1.5-7-.5-2 .8-3.6 2.3-4.4 4.3-1.6 3.8 0 8.2 3.6 10.2zm20.2 425.3c-2.8.2-5.3 2.1-7.7 3.4-2.6 1.4-5.1 2.7-7.7 4-5.1 2.5-10.3 4.9-15.5 7-4.2 1.7-9.6 2.7-11.1 7.5-1.3 4 .9 8.5 4.9 10 3.6 1.3 7.4-.7 10.8-2.1 7.9-3.1 15.6-6.7 23.1-10.6 2.8-1.4 5.6-2.8 8.3-4.5 1.9-1.2 3.2-3.2 3.6-5.5.5-4.9-3.7-9.5-8.7-9.2zm94-312.9c2.9 5.9 5.5 11.9 7.9 18 .6 1.5 1.2 3.1 1.7 4.6 1.8 4.9 8 6.8 12.2 3.7 1.9-1.3 3.1-3.5 3.3-5.8.3-2.8-1.2-5.6-2.2-8.2-1.4-3.5-2.8-7.1-4.4-10.5-2.7-6.2-5.7-12.3-8.9-18.2-1.3-2.5-2.6-5.1-5.3-6.3-4.9-2.2-10.7 1.2-11.2 6.5-.3 2.8 1.2 5 2.4 7.3 1.6 3 3.1 5.9 4.5 8.9zm-81.3 44.7c-3.5 1.8-5.2 6-3.9 9.7 1.9 5.7 3.9 11.2 5.4 17 1.5 5.9 2.5 12 3.2 18 .5 4.7 5.1 7.9 9.7 6.9 3.9-.8 6.5-4.5 6.3-8.4-.3-4.9-1.3-9.8-2.3-14.6-.6-3.1-1.4-6.1-2.2-9.2-1.4-5.2-3-10.6-5.1-15.6-1.9-4-7-5.8-11.1-3.8zM267.4 115c1.6 1.3 3.4 1.7 5.4 2 9.3 1.1 18.5 3.2 27.3 6.1 2.1.7 4.2 1.5 6.3 2.3 3.2 1.2 6.9.3 9-2.4 2.4-2.9 2.4-7.3 0-10.2-1.4-1.7-3.4-2.4-5.4-3.1-2.3-.9-4.7-1.7-7-2.4-1-.3-2.1-.6-3.1-1-2.6-.7-5.1-1.4-7.7-2-3.9-.9-7.8-1.7-11.8-2.3-3.4-.5-7.9-1.7-11.1-.3-3.2 1.4-5.1 4.9-4.6 8.3.2 1.9 1.2 3.8 2.7 5zm-66 12c9.9-4.2 20.3-7.2 31-9 2.2-.4 4.6-.4 6.6-1.7 1.6-1 2.9-2.6 3.5-4.5 1.3-4.2-1.2-8.8-5.4-10-2.4-.7-4.9 0-7.2.3l-4.8.9c-.5.1-1.1.2-1.6.3-8.7 1.8-17.2 4.4-25.4 7.7-2.3.9-4.6 1.7-6.1 3.8-1.2 1.7-1.8 3.9-1.4 6 .6 5.2 6.1 8.2 10.8 6.2zm-39.4 4.7c-2.2 1.1-4.1 3-5.9 4.6-.7.6-1.3 1.1-2 1.7-1.5 1.3-2.9 2.5-4.3 3.9-3.5 3.3-6.9 6.7-10.1 10.3-1.9 2.2-3.8 4.4-5.6 6.6-1.3 1.6-2.6 3.1-3 5.1-.4 1.7-.2 3.5.6 5.1 1.5 3.3 5.2 5.1 8.8 4.4 4-.8 6.1-4.7 8.5-7.5 3-3.5 6.1-6.9 9.4-10.1 3.3-3.3 6.9-6.4 10.5-9.3 1.5-1.2 3-2.2 3.9-3.9.8-1.5 1.1-3.2.9-4.9-.2-1.6-1-3.2-2.1-4.4-2.5-2.6-6.5-3.3-9.6-1.6zm151.8 252.6c-2.4 0-4.7 1.2-6.9 2.1-5 1.9-10.1 3.6-15.3 5-5.2 1.4-10.5 2.2-15.9 3.2-3.9.7-6.7 4.2-6.6 8.2.2 4.6 4.3 8.1 8.8 7.6 3.1-.3 6.2-1 9.3-1.6 5-1 10-2.3 14.9-3.8 2.9-.9 5.8-1.9 8.6-2.9 1.4-.5 2.8-1.1 4.2-1.7 1.2-.5 2.4-.9 3.4-1.7 3.8-2.8 4.3-8.5 1-11.9-1.2-1.5-3.3-2.4-5.5-2.5zm-73.5 10.8c-9.2-1-18.4-3-27.2-5.8-2.2-.7-4.4-1.5-6.5-2.3-1.8-.7-3.4-1.1-5.3-.8-3.4.6-6.1 3.4-6.6 6.9-.2 1.9.2 3.8 1.3 5.4 1.2 1.8 2.9 2.7 4.9 3.5 3.3 1.3 6.7 2.4 10.2 3.4 1 .3 2.1.6 3.1.9 4 1.1 8 2.1 12.1 2.9 2.5.5 5 .9 7.5 1.3l4.2.6c3.1.4 6-.6 7.9-3.1 2.3-3.1 2-7.4-.6-10.2-1.4-1.6-3.1-2.5-5-2.7zm169.8-114.7c.4-2.5.6-4.8-.7-7-1.2-2.1-3.4-3.6-5.8-3.9-3.7-.5-7.4 1.7-8.7 5.2-.8 2.1-.8 4.6-1.3 6.8-.5 2.5-1 4.9-1.5 7.3-1.2 4.8-2.6 9.6-4.2 14.3-.9 2.4-1.8 4.8-2.8 7.1-.9 2-1.2 4.1-.4 6.3 1.3 3.8 5.5 6.1 9.4 5.1 4.5-1.1 5.8-5.2 7.3-9.1 3.7-9.5 6.4-19.3 8.2-29.3.2-.9.3-1.8.5-2.8zm-32 59.8c-2.7-2.1-6.6-2.2-9.4-.3-1.7 1.2-2.8 3-4.1 4.6-1.4 1.7-2.9 3.4-4.3 5.1-3.1 3.4-6.3 6.7-9.7 9.8-1.8 1.6-3.6 3.2-5.5 4.7-1.6 1.3-3.5 2.4-4.8 4-2.2 2.6-2.5 6.4-.7 9.4s5.5 4.4 8.9 3.5c2.8-.8 5.2-3.2 7.4-5.1.3-.3.7-.6 1-.8 1.5-1.3 3-2.6 4.4-3.9 1.6-1.4 3.1-2.9 4.6-4.4 3.6-3.5 7-7.3 10.2-11.1 2.7-3.2 6.1-6.6 4.9-11.2-.5-1.7-1.5-3.3-2.9-4.3zm-256.6-23.8c3.5-1.8 5.2-6 3.9-9.7-1.9-5.7-3.9-11.2-5.4-17-1.5-5.9-2.5-12-3.2-18-.5-4.7-5.1-7.9-9.7-6.9-3.9.8-6.5 4.5-6.3 8.4.3 4.9 1.3 9.8 2.3 14.6.6 3.1 1.4 6.1 2.2 9.2 1.4 5.2 3 10.6 5.1 15.6 1.9 4 7 5.8 11.1 3.8zM114 192.6c-1.7 1.7-2.4 4.2-3.2 6.4-1.1 2.7-2 5.4-3 8.2-2.5 7.6-4.4 15.3-5.7 23.2-.4 2.2-.9 4.4-.2 6.6 1.2 4 5.4 6.4 9.5 5.5 1.8-.4 3.3-1.4 4.5-2.8 1.3-1.7 1.6-3.6 1.9-5.7.8-4.9 1.8-9.8 3.1-14.6 1.3-4.8 2.9-9.5 4.7-14.2.8-2.2 2.1-4.4 2.2-6.7.1-2.1-.7-4.2-2.2-5.7-3.1-3.4-8.5-3.4-11.6-.2zm-2.7-89.3c15.6-15.6 15.6-40.9 0-56.6s-40.9-15.6-56.6 0-15.6 40.9 0 56.6 40.9 15.6 56.6 0zm68.3 229.1c-15.6-15.6-40.9-15.6-56.6 0s-15.6 40.9 0 56.6 40.9 15.6 56.6 0 15.7-41 0-56.6zm209.3-152.8c15.6-15.6 15.6-40.9 0-56.6s-40.9-15.6-56.6 0-15.6 40.9 0 56.6 41 15.7 56.6 0z" fill="#36434f"/></svg>