<svg xmlns="http://www.w3.org/2000/svg" viewBox="0 0 512 512" style="enable-background:new 0 0 512 512" xml:space="preserve"><path d="M235 458.5h42v4h-42v-4zm0-95h42v4h-42v-4zm0-95h42v4h-42v-4zm0 171h21v4h-21v-4zm0-19h21v4h-21v-4zm0-19h21v4h-21v-4zm0-19h21v4h-21v-4zm0-38h21v4h-21v-4zm0-19h21v4h-21v-4zm0-19h21v4h-21v-4zm0-19h21v4h-21v-4zm0-38h21v4h-21v-4zm0-19h21v4h-21v-4zm172.77 196.29-111-308.94a181.973 181.973 0 0 1-10.72-61.56V23h-.01v-7h3.46c2.21 0 4-1.79 4-4V4c0-2.21-1.79-4-4-4h-67c-2.21 0-4 1.79-4 4v8c0 2.21 1.79 4 4 4h3.45v8h.01v32.28c0 20.99-3.63 41.81-10.72 61.56l-111 308.94C89.32 468.28 120.07 512 164.16 512h183.68c44.09 0 74.84-43.72 59.93-85.21zM235 173.5h42v4h-42v-4zm0 19h21v4h-21v-4zm0 19h21v4h-21v-4zm151.84 264.25c-9.05 12.87-23.27 20.25-39 20.25H164.16c-15.74 0-29.95-7.38-39-20.25-9.05-12.87-11.19-28.75-5.86-43.56L194.1 224h123.81l74.81 208.2c5.31 14.81 3.17 30.68-5.88 43.55z" style="fill:#36434f"/></svg>