<svg version="1.1" xmlns="http://www.w3.org/2000/svg" x="0" y="0" viewBox="0 0 512 512" xml:space="preserve"><path d="M306 256c0 27.6-22.4 50-50 50s-50-22.4-50-50 22.4-50 50-50 50 22.4 50 50zm95.8 84.2c17.3 66.9 12.4 120.1-17.8 137.5-6.9 4-14.7 5.9-23.3 5.9-10.3 0-21.7-2.8-33.9-8-11.7 11.3-30.5 11.2-42-.4-8.4-8.4-10.8-20.6-7.1-31.2-7.2-6-14.4-12.5-21.7-19.7-38.1 37.4-75.6 59.2-104.7 59.2-8.6 0-16.4-1.9-23.3-5.9-30.2-17.4-35.1-70.6-17.8-137.5C43.6 321.7 0 290.9 0 256c0-18 11.7-35 32.2-49.7-2.9-10.1-.4-21.5 7.6-29.5 11.7-11.7 30.7-11.7 42.4 0 1 1 1.9 2 2.7 3.1 8-2.9 16.5-5.6 25.3-8-17.3-67-12.4-120.2 17.8-137.6 6.9-4 14.7-5.9 23.3-5.9 29.1 0 66.6 21.9 104.7 59.2 38.1-37.4 75.6-59.2 104.7-59.2 8.6 0 16.4 1.9 23.3 5.9 11.5 6.6 19.3 18.4 23.6 34.1 6.1.9 11.9 3.7 16.6 8.4 11.7 11.7 11.7 30.7 0 42.4-4 4-8.8 6.6-13.9 7.9-1.6 14-4.4 29-8.5 44.7C468.4 190.3 512 221.1 512 256s-43.6 65.7-110.2 84.2zM277.9 89c-3.5 3.2-7.1 6.6-10.7 10.1 15.7 16.7 31.4 35.8 46.4 57.1 26 2.4 50.4 6.4 72.7 11.6 3.1-12 5.4-23.6 7.1-34.7.3-2.2.6-4.3.8-6.5-4.5-1.4-8.8-3.9-12.4-7.5-11.7-11.7-11.7-30.7 0-42.4 2.9-2.9 6.2-5 9.7-6.5-3.3-10.7-8.5-18.1-15.5-22.1-4.4-2.5-9.4-3.7-15.3-3.7-21.3 0-51.5 16.3-82.8 44.6zm75.7 167c-6.9-14.4-14.5-28.8-22.8-43.2-8.2-14.3-17-28.1-26.1-41.3-15.9-1.2-32.2-1.9-48.7-1.9-16.6 0-32.9.6-48.7 1.9-9.1 13.2-17.9 27-26.1 41.3-8.3 14.4-15.9 28.8-22.8 43.2 6.9 14.4 14.5 28.8 22.8 43.2 8.2 14.3 17 28.1 26.1 41.3 15.9 1.2 32.2 1.9 48.7 1.9 16.6 0 32.9-.6 48.7-1.9 9.1-13.2 17.9-27 26.1-41.3 8.3-14.4 15.9-28.8 22.8-43.2zm-8.9 51.2c-6.2 10.8-12.7 21.3-19.3 31.3 19.9-2.3 38.9-5.6 56.6-9.7-5.3-17.5-11.9-35.6-19.9-53.9-5.4 10.7-11.2 21.5-17.4 32.3zm-52 50.1c-12 .7-24.2 1.1-36.7 1.1-12.5 0-24.7-.4-36.7-1.1 11.9 16 24.2 30.8 36.7 44.1 12.5-13.2 24.8-28.1 36.7-44.1zm-125.4-50.1c-6.2-10.8-12.1-21.6-17.5-32.4-8 18.3-14.6 36.4-19.9 53.9 17.8 4.2 36.8 7.5 56.6 9.7-6.5-9.9-12.9-20.4-19.2-31.2zm0-102.4c6.2-10.8 12.7-21.3 19.3-31.3-19.9 2.3-38.9 5.6-56.6 9.7 5.3 17.5 11.9 35.6 19.9 53.9 5.4-10.7 11.2-21.5 17.4-32.3zm52-50.1c12-.7 24.2-1.1 36.7-1.1 12.5 0 24.7.4 36.7 1.1-11.9-16-24.2-30.8-36.7-44.1-12.5 13.2-24.8 28.1-36.7 44.1zm142.9 82.5c8-18.3 14.6-36.4 19.9-53.9-17.8-4.2-36.8-7.5-56.6-9.7 6.6 10.1 13.1 20.5 19.3 31.3 6.1 10.7 11.9 21.5 17.4 32.3zm-236.5-69.3c22.3-5.3 46.7-9.3 72.7-11.6 15-21.3 30.7-40.5 46.4-57.1-3.5-3.5-7.1-6.9-10.6-10.1-31.3-28.3-61.5-44.6-82.8-44.6-6 0-11 1.2-15.3 3.7-8 4.6-13.7 13.8-16.9 27.2-3.6 15.1-3.8 35.1-.5 57.8 1.5 11.1 3.9 22.7 7 34.7zm-11.2 156.9c6.6-21.9 15.4-45.1 26.3-68.8-10.9-23.7-19.7-46.9-26.3-68.8-8.2 2.3-16.1 4.8-23.7 7.5 1 8.7-1.9 17.8-8.6 24.5-11.5 11.5-29.9 11.7-41.6.7-3.5 2.6-6.7 5.2-9.5 7.8-10 9.5-15.1 19-15.1 28.2s5.1 18.8 15.1 28.2c11.3 10.6 28.5 20.8 49.8 29.3 10.5 4.3 21.7 8.1 33.6 11.4zM234.1 423c3.5-3.2 7.1-6.6 10.7-10.1-15.7-16.7-31.4-35.8-46.4-57.1-26-2.4-50.4-6.4-72.7-11.6-3.1 12-5.4 23.6-7.1 34.7-3.3 22.7-3.1 42.7.5 57.8 3.2 13.4 8.9 22.6 16.9 27.2 4.4 2.5 9.4 3.7 15.3 3.7 21.3 0 51.5-16.3 82.8-44.6zm152.2-78.9c-22.3 5.3-46.7 9.3-72.7 11.6-15 21.3-30.7 40.5-46.4 57.1 3.6 3.5 7.1 6.9 10.7 10.1 3 2.7 6 5.4 9 7.9 11.8-9.8 29.3-9.1 40.3 1.9 7.8 7.8 10.4 18.9 7.8 28.8 9.4 3.9 18.1 6 25.7 6 5.9 0 11-1.2 15.3-3.7 8-4.6 13.7-13.8 16.9-27.2 3.6-15.1 3.8-35.1.5-57.8-1.6-11.1-4-22.7-7.1-34.7zM496 256c0-9.3-5.1-18.8-15.1-28.2-11.3-10.6-28.5-20.8-49.8-29.3-10.4-4.2-21.7-7.9-33.6-11.2-6.6 21.9-15.4 45.1-26.3 68.8 10.9 23.7 19.7 46.9 26.3 68.8 11.9-3.3 23.1-7.1 33.6-11.2 21.3-8.5 38.5-18.7 49.8-29.3 10-9.6 15.1-19.1 15.1-28.4z" fill="#36434f"/></svg>