<svg version="1.1" xmlns="http://www.w3.org/2000/svg" x="0" y="0" viewBox="0 0 512 512" xml:space="preserve"><path d="M423.9 470.3L344 417 415 0H54.2c-5.7 0-8.2 7.2-3.7 10.7L72.2 28c5.7 4.5 9.7 10.8 11.3 17.9L168 417l-79.9 53.3c-4.5 3-7.1 8-7.1 13.3V512h350v-28.4c0-5.4-2.7-10.4-7.1-13.3zM235 115h21v4h-21v-4zm0 19h21v4h-21v-4zm0 19h21v4h-21v-4zm0 19h21v4h-21v-4zm0 38h21v4h-21v-4zm0 19h21v4h-21v-4zm0 19h21v4h-21v-4zm0 19h21v4h-21v-4zm0 38h21v4h-21v-4zm0 19h21v4h-21v-4zm0 19h21v4h-21v-4zm0 19h21v4h-21v-4zm42 23h-42v-4h42v4zm0-95h-42v-4h42v4zm0-95h-42v-4h42v4zm0-95h-42v-4h42v4z" fill="#36434f"/></svg>