<svg version="1.1" xmlns="http://www.w3.org/2000/svg" x="0" y="0" viewBox="0 0 512 512" style="enable-background:new 0 0 512 512" xml:space="preserve"><path d="m407.77 426.79-111-308.94a181.973 181.973 0 0 1-10.72-61.56V23h-.01v-7h3.46c2.21 0 4-1.79 4-4V4c0-2.21-1.79-4-4-4h-67c-2.21 0-4 1.79-4 4v8c0 2.21 1.79 4 4 4h3.45v8h.01v32.28c0 20.99-3.63 41.81-10.72 61.56l-111 308.94C89.32 468.28 120.07 512 164.16 512h183.68c44.09 0 74.84-43.72 59.93-85.21zM235 189.5h21v4h-21v-4zm0 19h21v4h-21v-4zm0 19h21v4h-21v-4zm0 19h21v4h-21v-4zm0 38h21v4h-21v-4zm0 19h21v4h-21v-4zm0 19h21v4h-21v-4zm0 19h21v4h-21v-4zm0 38h21v4h-21v-4zm0 19h21v4h-21v-4zm0 19h21v4h-21v-4zm0 19h21v4h-21v-4zm42 23h-42v-4h42v4zm0-95h-42v-4h42v4zm0-95h-42v-4h42v4zm0-95h-42v-4h42v4z" style="fill:#36434f"/></svg>