<svg version="1.1" xmlns="http://www.w3.org/2000/svg" x="0" y="0" viewBox="0 0 512 512" xml:space="preserve"><path d="M452 277.2v-42.4c33.1 0 60-26.9 60-60s-26.9-60-60-60c-16.6 0-31.6 6.7-42.4 17.6l-30-30c10.9-10.9 17.6-25.9 17.6-42.4 0-33.1-26.9-60-60-60s-60 26.9-60 60h-42.4c0-33.1-26.9-60-60-60s-60 26.9-60 60c0 16.6 6.7 31.6 17.6 42.4l-30 30c-10.9-10.9-25.9-17.6-42.4-17.6-33.1 0-60 26.9-60 60s26.9 60 60 60v42.4c-33.1 0-60 26.9-60 60s26.9 60 60 60c16.6 0 31.6-6.7 42.4-17.6l30 30c-10.9 10.9-17.6 25.9-17.6 42.4 0 33.1 26.9 60 60 60s60-26.9 60-60h42.4c0 33.1 26.9 60 60 60s60-26.9 60-60c0-16.6-6.7-31.6-17.6-42.4l30-30c10.9 10.9 25.9 17.6 42.4 17.6 33.1 0 60-26.9 60-60s-26.9-60-60-60zm0-130.4c15.4 0 28 12.6 28 28s-12.6 28-28 28-28-12.6-28-28 12.6-28 28-28zM337.2 32c15.4 0 28 12.6 28 28s-12.6 28-28 28-28-12.6-28-28 12.5-28 28-28zm-162.4 0c15.4 0 28 12.6 28 28s-12.6 28-28 28-28-12.6-28-28 12.6-28 28-28zM32 174.8c0-15.4 12.6-28 28-28s28 12.6 28 28-12.6 28-28 28-28-12.5-28-28zm28 190.4c-15.4 0-28-12.6-28-28s12.6-28 28-28 28 12.6 28 28-12.6 28-28 28zM174.8 480c-15.4 0-28-12.6-28-28s12.6-28 28-28 28 12.6 28 28-12.5 28-28 28zm162.4 0c-15.4 0-28-12.6-28-28s12.6-28 28-28 28 12.6 28 28-12.6 28-28 28zm13.2-86.5c-4.3-1-8.7-1.5-13.3-1.5-21.4 0-40.1 11.2-50.7 28h-60.9c-10.6-16.8-29.4-28-50.7-28-4.6 0-9 .5-13.3 1.5l-43-43c1-4.3 1.5-8.7 1.5-13.3 0-21.4-11.2-40.1-28-50.7v-60.9c16.8-10.6 28-29.4 28-50.7 0-4.6-.5-9-1.5-13.3l43-43c4.3 1 8.7 1.5 13.3 1.5 21.4 0 40.1-11.2 50.7-28h60.9c10.6 16.8 29.4 28 50.7 28 4.6 0 9-.5 13.3-1.5l43 43c-1 4.3-1.5 8.7-1.5 13.3 0 21.4 11.2 40.1 28 50.7v60.9c-16.8 10.6-28 29.4-28 50.7 0 4.6.5 9 1.5 13.3l-43 43zM452 365.2c-15.4 0-28-12.6-28-28s12.6-28 28-28 28 12.6 28 28-12.6 28-28 28z" fill="#36434f"/></svg>