<svg version="1.1" xmlns="http://www.w3.org/2000/svg" x="0" y="0" viewBox="0 0 512 512" style="enable-background:new 0 0 512 512" xml:space="preserve"><path d="M256 0C114.6 0 0 114.6 0 256s114.6 256 256 256 256-114.6 256-256S397.4 0 256 0zm137.5 49.5L260 243.1V8c32.1.5 63.2 7 92.5 19.4 14.4 6.2 28.1 13.6 41 22.1zM80.6 80.6c22.8-22.8 49.3-40.7 78.8-53.2C188.8 15.1 219.9 8.6 252 8v241.3l-213.8-112c11.3-20.8 25.5-39.7 42.4-56.7zM256 504c-33.5 0-66-6.6-96.5-19.5-29.5-12.5-56.1-30.4-78.8-53.2C57.9 408.5 40 382 27.5 352.5 14.6 322 8 289.5 8 256s6.6-66 19.5-96.5c2.2-5.1 4.5-10.1 7-15.1l219 114.8 164.4 184.7c-19.6 16.9-41.5 30.5-65.3 40.6C322 497.4 289.5 504 256 504zm175.4-72.6c-2.5 2.5-5 4.9-7.5 7.2L261.1 255.7l139-201.6c11.1 7.9 21.5 16.8 31.3 26.6 22.8 22.8 40.7 49.3 53.2 78.8 12.9 30.6 19.5 63 19.5 96.5s-6.6 66-19.5 96.5c-12.6 29.6-30.5 56.1-53.2 78.9z" style="fill:#36434f"/></svg>