<svg version="1.1" xmlns="http://www.w3.org/2000/svg" x="0" y="0" viewBox="0 0 512 512" xml:space="preserve"><path d="M506 181h-18.4c-5.9-13-19-22-34.1-22-9.8 0-18.8 3.8-25.5 10h-38.1c-.7-11.6-5.5-22.7-13.8-31l-48.5-49.2c-8.4-8.5-11.3-20.9-7.7-32.3L332 19h9c1.7 0 3-1.3 3-3V3c0-1.7-1.3-3-3-3H171c-1.7 0-3 1.3-3 3v13c0 1.7 1.3 3 3 3h9l12.1 37.5c3.6 11.3.7 23.8-7.7 32.3L135.8 138c-8.9 9-13.8 21.1-13.8 33.7V480c0 17.7 14.3 32 32 32h204c17.7 0 32-14.3 32-32V224h38c6.7 6.2 15.6 10 25.5 10 15.2 0 28.2-9 34.1-22H506c3.3 0 6-2.7 6-6v-19c0-3.3-2.7-6-6-6zm-268-66h21v4h-21v-4zm0 19h21v4h-21v-4zm0 19h21v4h-21v-4zm0 19h21v4h-21v-4zm0 38h21v4h-21v-4zm0 19h21v4h-21v-4zm0 19h21v4h-21v-4zm0 19h21v4h-21v-4zm0 38h21v4h-21v-4zm0 19h21v4h-21v-4zm0 19h21v4h-21v-4zm0 19h21v4h-21v-4zm0 38h21v4h-21v-4zm0 19h21v4h-21v-4zm0 19h21v4h-21v-4zm0 19h21v4h-21v-4zm42 23h-42v-4h42v4zm0-95h-42v-4h42v4zm0-95h-42v-4h42v4zm0-95h-42v-4h42v4zm0-95h-42v-4h42v4zm140 96.5c0-.7 0-1.3.1-2h4c0 .7-.1 1.3-.1 2s0 1.3.1 2h-4c-.1-.7-.1-1.3-.1-2zm3.4 14.6c-.6-1.2-1.1-2.4-1.5-3.7l3.7-1.5c.2.6.4 1.3.7 1.9.3.6.5 1.2.8 1.8l-3.7 1.5zm2.2-24l-3.7-1.5c.4-1.3.9-2.5 1.5-3.7l3.7 1.5c-.6 1.2-1.1 2.4-1.5 3.7zm58-5.2c.6 1.2 1.1 2.4 1.5 3.7l-3.7 1.5c-.2-.6-.4-1.3-.7-1.9s-.5-1.2-.8-1.8l3.7-1.5zm-32.1-18.8c.7 0 1.3-.1 2-.1s1.3 0 2 .1v4c-.7 0-1.3-.1-2-.1s-1.3 0-2 .1v-4zm-8.9 1.7l1.5 3.7c-.6.2-1.3.4-1.9.7-.6.3-1.2.5-1.8.8l-1.5-3.7c1.2-.5 2.4-1 3.7-1.5zm-11.3 56.7c-1-.9-1.9-1.8-2.8-2.8l2.8-2.8c.9 1 1.8 2 2.8 2.8l-2.8 2.8zm0-44.4l-2.8-2.8c.9-1 1.8-1.9 2.8-2.8l2.8 2.8c-1 .9-1.9 1.8-2.8 2.8zm11.3 51.1c-1.3-.4-2.5-.9-3.7-1.5l1.5-3.7c1.2.6 2.4 1.1 3.7 1.5l-1.5 3.7zm12.9 1.7c-.7 0-1.3.1-2 .1s-1.3 0-2-.1v-4c.7 0 1.3.1 2 .1s1.3 0 2-.1v4zm-2-24.4c-5 0-9-4-9-9s4-9 9-9 9 4 9 9-4 9-9 9zm10.9 22.7l-1.5-3.7c.6-.2 1.3-.4 1.9-.7.6-.3 1.2-.5 1.8-.8l1.5 3.7c-1.2.5-2.4 1-3.7 1.5zm2.2-58.1c-1.2-.6-2.4-1.1-3.7-1.5l1.5-3.7c1.3.4 2.5.9 3.7 1.5l-1.5 3.7zm9.1 51.4l-2.8-2.8c1-.9 2-1.8 2.8-2.8l2.8 2.8c-.8 1-1.8 2-2.8 2.8zm0-44.4c-.9-1-1.8-2-2.8-2.8l2.8-2.8c1 .9 1.9 1.8 2.8 2.8l-2.8 2.8zm7.9 34l-3.7-1.5c.6-1.2 1.1-2.4 1.5-3.7l3.7 1.5c-.4 1.3-.9 2.5-1.5 3.7zm3.3-12.6h-4c0-.7.1-1.3.1-2s0-1.3-.1-2h4c0 .7.1 1.3.1 2s0 1.3-.1 2z" fill="#36434f"/></svg>