<svg version="1.1" xmlns="http://www.w3.org/2000/svg" x="0" y="0" viewBox="0 0 512 512" xml:space="preserve"><style type="text/css">.st0{fill:#36434f}</style><path class="st0" d="M510 327H365v-1c0-1.1-.9-2-2-2h-1c0-1.1-.8-1.9-1.9-2l133.2-122.5c.8-.7.9-2 .1-2.8-.7-.8-2-.9-2.8-.1L354.2 322h-8.8l-.4-1 1-6-1-1-89 .3-89-.3-1 1 1 6-15.3 35H146c0-1.1-.9-2-2-2h-4c-1.1 0-2 .9-2 2v2h-7c-1.1 0-2 .9-2 2v4c0 1.1.9 2 2 2h13c1.1 0 2-.9 2-2h2.2l-4.5 10.3c-.5 1.1-.4 2.3.1 3.4l3.2 6.3 43 41.8c-1.5 1.6-2.5 3.8-2.5 6.2v71c0 5 4 9 9 9h1c3.7 0 6.9-2.6 7.7-6 4.1-.4 7.3-3.8 7.3-8v-50.2L224 459h6v7l9.9 18.9c.3.5.7 1 1.1 1.3v6.2c0 1.3-.1 2.6-.4 3.8l-.6 2.8h6l-.6-2.8c-.3-1.2-.4-2.5-.4-3.8V487h4v5c0 1.1.9 2 2 2h10c1.1 0 2-.9 2-2v-5h4v5.4c0 1.3-.1 2.6-.4 3.8l-.6 2.8h6l-.6-2.8c-.3-1.2-.4-2.5-.4-3.8v-6.2c.5-.3.8-.8 1.1-1.3L282 466v-7h6l11.5-11.2V498c0 4.2 3.2 7.6 7.3 8 .9 3.5 4 6 7.7 6h1c5 0 9-4 9-9v-71c0-2.4-.9-4.6-2.5-6.2l43-41.8 3.2-6.3c.3-.6.4-1.2.4-1.8.8-.2 1.4-1 1.4-1.9v-15c0-1.1-.9-2-2-2h-7.3l-3.9-9H368c1.1 0 2-.9 2-2v-5.6l130.7 112.2c.4.3.8.5 1.3.5.6 0 1.1-.2 1.5-.7.7-.8.6-2.1-.2-2.8L370 335.1v-.1c0-1.1-.9-2-2-2h-3v-2h145c1.1 0 2-.9 2-2s-.9-2-2-2zM201.5 501.6c-1.8-.8-3-2.5-3-4.6v-62.8l3 2.9v64.5zm-4 6.4h-1c-2.8 0-5-2.2-5-5v-71c0-1.3.5-2.5 1.3-3.4l1.7 1.6V497c0 4.1 2.8 7.6 6.6 8.7-.6 1.3-2 2.3-3.6 2.3zm11-10c0 1.9-1.3 3.4-3 3.9V441l3 2.9V498zm102-60.9 3-2.9V497c0 2-1.2 3.8-3 4.6v-64.5zm-7 60.9v-54.1l3-2.9v60.9c-1.7-.5-3-2-3-3.9zm17-66v71c0 2.8-2.2 5-5 5h-1c-1.6 0-3-1-3.6-2.3 3.8-1 6.6-4.5 6.6-8.7v-66.7l1.7-1.6c.8.8 1.3 2 1.3 3.3z"/><path class="st0" d="M146 192h1.1c-.1 1.7-.1 3.3-.1 5 0 28.5 10.9 54.4 28.9 73.9-.2.3-.4.7-.4 1.1v4c0 1.1.9 2 2 2h157c1.1 0 2-.9 2-2v-4c0-.4-.1-.8-.4-1.1C354 251.5 365 225.5 365 197c0-41-22.6-76.6-56-95.3V31c0-2.2 1.8-4 4-4s4 1.8 4 4v50c0 1.1.9 2 2 2s2-.9 2-2V31c0-4.4-3.6-8-8-8s-8 3.6-8 8v68.6c-9.1-4.6-18.9-7.9-29.2-9.8L273 78h-15V63h8.5c.6 0 1-.4 1-1v-1c0-.6-.4-1-1-1H258V2c0-1.1-.9-2-2-2s-2 .9-2 2v58h-.5c0-1.1-.9-2-2-2h-11c-1.1 0-2 .9-2 2h-13c-.6 0-1 .4-1 1v1c0 .6.4 1 1 1h13c0 1.1.9 2 2 2h1.5v13h-3l-2.8 11.8c-10.3 1.9-20.1 5.2-29.2 9.8V31c0-4.4-3.6-8-8-8s-8 3.6-8 8v50c0 1.1.9 2 2 2s2-.9 2-2V31c0-2.2 1.8-4 4-4s4 1.8 4 4v70.7c-24 13.4-42.5 35.6-50.9 62.3H146c-1.1 0-2 .9-2 2v24c0 1.1.9 2 2 2zM250 65h1.5c1.1 0 2-.9 2-2h.5v15h-4V65zm-91.5 248c1.4 0 2.7-.2 4-.5 1.3.3 2.6.5 4 .5 3.3 0 6.4-1 9-2.7.8.5 1.7 1 2.6 1.4 2 .8 4.1 1.3 6.4 1.3 5 0 9.5-2.2 12.5-5.7 2.4 2.8 5.8 4.8 9.6 5.5.9.2 1.9.3 2.9.3 6.7 0 12.4-4 15-9.7 2.6 5.7 8.3 9.7 15 9.7.4 0 .8 0 1.2-.1 8.3-.6 14.9-7.3 15.3-15.7v-.7c0-9-7.2-16.3-16.2-16.5h-.3c-6.7 0-12.4 4-15 9.7-2.6-5.7-8.3-9.7-15-9.7h-.6c-4.8.2-9 2.3-11.9 5.7-3-3.5-7.5-5.7-12.5-5.7-2.4 0-4.6.5-6.6 1.4-.5.2-1 .5-1.5.8-.3.2-.5.3-.8.5-2.6-1.7-5.7-2.7-9-2.7-1.1 0-2.2.1-3.3.3h-.2c-.2 0-.4.1-.6.1-1.3-.3-2.6-.5-4-.5-8.3 0-15.1 6.1-16.3 14.1-.1.8-.2 1.6-.2 2.4 0 9.1 7.4 16.5 16.5 16.5z"/><path class="st0" d="M256 297.2c.4 8.4 7 15.1 15.3 15.7.4 0 .8.1 1.2.1 6.7 0 12.4-4 15-9.7 2.6 5.7 8.3 9.7 15 9.7 1 0 2-.1 2.9-.3 3.8-.7 7.2-2.7 9.6-5.5 3 3.5 7.5 5.7 12.5 5.7 2.3 0 4.5-.5 6.4-1.3.9-.4 1.8-.9 2.6-1.4 2.6 1.7 5.7 2.7 9 2.7 1.4 0 2.7-.2 4-.5 1.3.3 2.6.5 4 .5 9.1 0 16.5-7.4 16.5-16.5 0-.8-.1-1.6-.2-2.4-1.2-8-8-14.1-16.3-14.1-1.4 0-2.7.2-4 .5-.2 0-.4-.1-.6-.1h-.2c-1.1-.2-2.2-.3-3.3-.3-3.3 0-6.4 1-9 2.7-.3-.2-.5-.3-.8-.5-.5-.3-1-.5-1.5-.8-2-.9-4.3-1.4-6.6-1.4-5 0-9.5 2.2-12.5 5.7-2.9-3.4-7.2-5.6-11.9-5.7h-.6c-6.7 0-12.4 4-15 9.7-2.6-5.7-8.3-9.7-15-9.7h-.3c-9 .2-16.2 7.5-16.2 16.5v.7z"/></svg>