<svg version="1.1" xmlns="http://www.w3.org/2000/svg" x="0" y="0" viewBox="0 0 512 512" xml:space="preserve"><path d="M142.3 333.5h4.9v4.8h-4.9v-4.8zm13.2 4.8h4.8v-4.8h-4.8v4.8zM144.3 322v-3.5h-2v13.1h4.9V324h-.9c-1.1 0-2-.9-2-2zm34.1 0c0 1.1-.9 2-2 2h-.9v7.6h4.8v-13.1h-1.9v3.5zm-16 16.3h4.8v-4.8h-4.8v4.8zm13.1 0h4.8v-4.8h-4.8v4.8zM158.4 322c0 1.1-.9 2-2 2h-.9v7.6h4.8v-13.1h-1.9v3.5zm24 16.3h4.8v-4.8h-4.8v4.8zm181.3-144.5c0-3 2.5-5.5 5.5-5.5s5.5 2.5 5.5 5.5-2.5 5.5-5.5 5.5-5.5-2.5-5.5-5.5zm4.2 0c0 .7.6 1.3 1.3 1.3.7 0 1.3-.6 1.3-1.3s-.6-1.3-1.3-1.3-1.3.6-1.3 1.3zm-221.6 13c0 3-2.5 5.5-5.5 5.5s-5.5-2.5-5.5-5.5 2.5-5.5 5.5-5.5 5.5 2.5 5.5 5.5zm-4.2 0c0-.7-.6-1.3-1.3-1.3s-1.3.6-1.3 1.3.6 1.3 1.3 1.3 1.3-.6 1.3-1.3zm221.6 0c0-3 2.5-5.5 5.5-5.5s5.5 2.5 5.5 5.5-2.5 5.5-5.5 5.5-5.5-2.5-5.5-5.5zm4.2 0c0 .7.6 1.3 1.3 1.3.7 0 1.3-.6 1.3-1.3s-.6-1.3-1.3-1.3-1.3.6-1.3 1.3zm-221.6-13c0 3-2.5 5.5-5.5 5.5s-5.5-2.5-5.5-5.5 2.5-5.5 5.5-5.5 5.5 2.5 5.5 5.5zm-4.2 0c0-.7-.6-1.3-1.3-1.3s-1.3.6-1.3 1.3.6 1.3 1.3 1.3 1.3-.6 1.3-1.3zM210.6 413c0 5.1-4.2 9.3-9.3 9.3s-9.3-4.2-9.3-9.3 4.2-9.3 9.3-9.3 9.3 4.2 9.3 9.3zm-2 0c0-4-3.3-7.3-7.3-7.3S194 409 194 413s3.3 7.3 7.3 7.3 7.3-3.3 7.3-7.3zm-184-65.8c-5.5 9.4-10 19.1-13.7 28.8l100 53h19.7c2.5-14.4 3.8-29.2 3.8-44.2 0-40.9-9.5-79.8-26.4-114.3-31.7 13.1-62.1 39.8-83.4 76.7zM-1 429h82L6.3 389.4C2.3 402.8-.1 416.1-1 429zm165.3-107v-3.5h-1.9v13.1h4.8V324h-.9c-1.1 0-2-.9-2-2zm166.9 14h10.4v-6.1h-10.4v6.1zm-28.7 42.1l13.5 8.2c.4.2 1 .1 1.2-.3l.9-1.5c.2-.4.1-1-.3-1.2l-13.5-8.2c-.4-.2-1-.1-1.2.3l-.9 1.5c-.2.4-.1 1 .3 1.2zm-9.5-13.2c-5.3-3.2-12.2-1.5-15.4 3.8-3.2 5.3-1.5 12.2 3.8 15.4 5.3 3.2 12.2 1.5 15.4-3.8 3.2-5.3 1.5-12.2-3.8-15.4zm25.7-19.9h10.4v-6.1h-10.4v6.1zm9.6-15.1h-22.1v6.1h22.1v-6.1zM353 210c0-48.6-43.9-88-98-88s-98 39.4-98 88 43.9 88 98 88 98-39.4 98-88zm18.6 174.8c0 15 1.3 29.7 3.7 44.2h-102c.5 0 1-.5 1-1v-15.2c0-.6-.5-1-1-1h-8c-.6 0-1 .4-1 1V428c0 .5.4 1 1 1H134.7c2.4-14.5 3.7-29.2 3.7-44.2 0-40.9-9.2-80.2-26.6-115.9.6-.2 1.1-.4 1.7-.6V151.5c0-14.6 23.7-27.5 60-35.3v-14.5c0-1.1.9-2 2-2h9c1.1 0 2 .9 2 2v5.1C204.6 92 228.6 83 255 83s50.4 9 68.5 23.8v-5.1c0-1.1.9-2 2-2h9c1.1 0 2 .9 2 2v14.5c36.3 7.8 60 20.7 60 35.3v116.8c.6.2 1.1.4 1.7.6-17.4 35.7-26.6 75.1-26.6 115.9zM361.1 213c0 1.1.9 2 2 2h12.3c1.1 0 2-.9 2-2v-25.5c0-1.1-.9-2-2-2h-12.3c-1.1 0-2 .9-2 2V213zM153 193c0 1.2.1 2.3.1 3.5 2-49.2 46.9-88.5 101.9-88.5s99.9 39.3 101.9 88.5c.1-1.2.1-2.3.1-3.5 0-50.8-45.7-92-102-92s-102 41.2-102 92zm-6.1 22c1.1 0 2-.9 2-2v-25.5c0-1.1-.9-2-2-2h-12.3c-1.1 0-2 .9-2 2V213c0 1.1.9 2 2 2h12.3zM217 413c0-8.7-7-15.7-15.7-15.7s-15.7 7-15.7 15.7 7 15.7 15.7 15.7 15.7-7 15.7-15.7zm5.5-63.8c0-2.2-1.8-4-4-4h-68.2c-2.2 0-4 1.8-4 4v41.3c0 2.2 1.8 4 4 4h68.2c2.2 0 4-1.8 4-4v-41.3zm39.9-30.7c0-1.1-.9-2-2-2h-2c-.1-1.1-.9-1.9-2-1.9h-10.1c-1.1 0-1.9.8-2 1.9h-2c-.3 0-.6.1-.9.3-.3-.2-.7-.3-1-.3h-2c-.1-1.1-.9-1.9-2-1.9h-10.1c-1.1 0-1.9.8-2 1.9h-2c-.3 0-.6.1-.9.3-.3-.2-.7-.3-1-.3h-2c-.1-1.1-.9-1.9-2-1.9h-10.1c-1.1 0-1.9.8-2 1.9h-2c-.3 0-.6.1-.9.3-.3-.2-.7-.3-1-.3h-2c-.1-1.1-.9-1.9-2-1.9h-10.1c-1.1 0-1.9.8-2 1.9h-2c-.3 0-.6.1-.9.3-.3-.2-.7-.3-1-.3h-2c-.1-1.1-.9-1.9-2-1.9h-10.1c-1.1 0-1.9.8-2 1.9h-2c-.3 0-.6.1-.9.3-.3-.2-.7-.3-1-.3h-2c-.1-1.1-.9-1.9-2-1.9h-10.1c-1.1 0-1.9.8-2 1.9h-2c-1.1 0-2 .9-2 2v19.8c0 1.1.9 2 2 2h18.1c.4 0 .7-.1 1-.3.2.2.6.3.9.3h18.1c.4 0 .7-.1 1-.3.2.2.6.3.9.3h18.1c.4 0 .7-.1 1-.3.2.2.6.3.9.3h18.1c.4 0 .7-.1 1-.3.2.2.6.3.9.3h18.1c.4 0 .7-.1 1-.3.2.2.6.3.9.3h18.1c1.1 0 2-.9 2-2v-19.8zm11.9 63.1c0-.5-.5-1-1-1h-8c-.6 0-1 .5-1 1v15.2c0 .5.4 1 1 1h8c.5 0 1-.5 1-1v-15.2zm0-31.1c0-.5-.5-1-1-1h-8c-.6 0-1 .5-1 1v15.2c0 .6.4 1 1 1h8c.5 0 1-.4 1-1v-15.2zm3.4-41.3c1.7 0 3.3-.7 4.4-1.9l11.6-12.5c36.8-13.9 62.7-46.7 62.7-84.9v-4c0-1.2-.1-2.3-.1-3.5 0-21.7-11.7-44.8-27.4-59.3-17.7-16.4-40.9-26.7-64.9-28.8-24.4-2.1-49.3 4.3-69.7 17.8-2.3 1.5-4.5 3.1-6.6 4.8-15.9 12.5-27.8 30.1-32.4 49.8-1.2 5.2-1.9 10.5-2.2 15.8-.1 1.2-.1 2.3-.1 3.5v4c0 38.3 26.1 71.2 63 85l11.5 12.4c1.1 1.2 2.7 1.9 4.4 1.9h31.3v-.1h14.5zm65.8 17.3h-39.3c-2.2 0-4 1.8-4 4v14c0 2.2 1.8 4 4 4h39.3c2.2 0 4-1.8 4-4v-14c0-2.2-1.8-4-4-4zm23.1 91.3l-25.5-15.4 3.7-6.2c.5-.8.2-1.9-.6-2.4l-50.3-30.4c-6.1-3.6-14-1.7-17.7 4.4s-1.7 14.1 4.4 17.8l50.3 30.4c.8.5 1.9.2 2.4-.6l3.7-6.2 25.5 15.4c.8.5 1.9.2 2.4-.6l2.3-3.8c.5-.8.2-1.9-.6-2.4zm118.8-70.6c-21.3-36.9-51.7-63.6-83.4-76.7-16.9 34.6-26.4 73.4-26.4 114.3 0 15 1.3 29.8 3.8 44.2h19.7l100-53c-3.7-9.7-8.3-19.3-13.7-28.8zm-173.9 46.6l-13.5-8.2c-.4-.2-1-.1-1.2.3l-.9 1.5c-.2.4-.1 1 .3 1.2l13.5 8.2c.4.2.9.1 1.2-.3l.9-1.5c.2-.4.1-1-.3-1.2zM258.4 322c0 1.1-.9 2-2 2h-.9v7.6h4.9v-13.1h-2v3.5zm245.3 67.4L429 429h82c-.8-12.9-3.3-26.2-7.3-39.6zm-190.5-1.8l-12-7.3c-.4-.2-1-.1-1.2.3l-.9 1.5c-.2.4-.1 1 .3 1.2l12 7.3c.4.3.9.1 1.2-.3l.9-1.5c.2-.4.1-1-.3-1.2zm22.6 10.1l-5.4 9c-.5.8-1.6 1.1-2.4.6l-8.8-5.3c-3.2-1.9-4.5-6-2.8-9.4 1.9-3.6 6.4-4.9 9.9-2.8l8.9 5.5c.8.5 1.1 1.6.6 2.4zm-10.2-6.8c-2.8-1.7-6.4-.8-8 2s-.7 6.3 2 8c2.8 1.6 6.3.7 8-2 1.6-2.8.7-6.3-2-8zm-130.1-52.6h4.8v-4.8h-4.8v4.8zm8.8-16.3v-3.5h-1.9v13.1h4.8V324h-.9c-1.1 0-2-.9-2-2zm14.1 0c0 1.1-.9 2-2 2h-.9v7.6h4.8v-13.1h-1.9v3.5zm37.1 16.3h4.9v-4.8h-4.9v4.8zm-40 0h4.8v-4.8h-4.8v4.8zM184.3 322v-3.5h-1.9v13.1h4.8V324h-.9c-1.1 0-2-.9-2-2zm14.1 0c0 1.1-.9 2-2 2h-.9v7.6h4.8v-13.1h-1.9v3.5zm4 16.3h4.8v-4.8h-4.8v4.8zm40 0h4.8v-4.8h-4.8v4.8zm-4-16.3c0 1.1-.9 2-2 2h-.9v7.6h4.8v-13.1h-1.9v3.5zm5.9 0v-3.5h-1.9v13.1h4.8V324h-.9c-1.1 0-2-.9-2-2zm-8.8 16.3h4.8v-4.8h-4.8v4.8zM224.3 322v-3.5h-1.9v13.1h4.8V324h-.9c-1.1 0-2-.9-2-2zm-1.9 16.3h4.8v-4.8h-4.8v4.8z" fill="#36434f"/></svg>