<svg version="1.1" xmlns="http://www.w3.org/2000/svg" x="0" y="0" viewBox="0 0 512 512" xml:space="preserve"><path d="M508.4 292L94.8 254.7c.8-3.5 1.2-7.1 1.2-10.7 0-13-5.2-24.8-13.6-33.5l166.7-48.7c2.1-.6 3.3-2.8 2.7-5s-2.8-3.3-5-2.7L75.1 204.4c-7.4-5.1-16.3-8.1-25.9-8.3l3.8-4.9L401.7 25.6c2-.9 2.8-3.3 1.9-5.3-.9-2-3.3-2.8-5.3-1.9l-352 167c-.3.2-.6.3-.9.6l-6.4 6-6.1 6.4C13.8 204.7 0 222.8 0 244c0 14.9 6.8 28.3 17.5 37.1l1.6 4.5c1.2 3.4 3.9 6.1 7.3 7.3L47 300l345 193.5c.6.3 1.3.5 2 .5 1.4 0 2.8-.7 3.5-2 1.1-1.9.4-4.4-1.5-5.4L52.2 293.8l-1.9-1.8c18.9-.9 35-12.8 42-29.4L507.7 300h.4c2 0 3.8-1.6 3.9-3.6.2-2.2-1.4-4.2-3.6-4.4z" fill="#36434f"/></svg>