<svg version="1.1" xmlns="http://www.w3.org/2000/svg" x="0" y="0" viewBox="0 0 512 512" xml:space="preserve"><path d="M262.4 305.7l9.3 131.5c.2 3.2.3 6.5.3 9.8v51h-32v-51c0-3.3.1-6.5.3-9.8l9.3-131.5c.3-3.6.7-7.2 1.3-10.9 1.6-13.7 3.6-28.5 5.1-36.5 1.5 8.1 3.5 22.8 5.1 36.6.6 3.5 1 7.2 1.3 10.8zm-24.4-4.6c-.3-16.9-1.2-35.2-2.3-43.9-2 7.3-5.1 21.5-7.7 34.7-1.4 5.7-2.6 11.4-3.6 17l-19.7 109.8c-2.4 13.6-3.7 27.5-3.7 41.3v38h35v-51c0-3.3.1-6.7.4-10.1l5-70.3-3.4-65.5zM311 498v-38c0-13.8-1.2-27.7-3.7-41.3l-19.7-109.8c-1-5.6-2.2-11.3-3.6-16.9-2.6-13.3-5.7-27.5-7.7-34.8-1.1 8.6-2 26.9-2.3 43.8l-3.3 65.5 5 70.3c.2 3.3.4 6.7.4 10.1v51H311zm-89.4 4c-.8 1.5-1.6 3.8-1.6 7h13c0-3.2-.8-5.5-1.6-7h-9.8zm-15.4 0c-.6 1.5-1.2 3.5-1.2 6h13c0-2.5-.5-4.5-1.2-6h-10.6zm-7.2 8.3h4V502h-4v8.3zm-11.6-18.1h9.6v-8.7l-10.1 6.8c-.8.6-.4 1.9.5 1.9zm52.5-233.6c.5 4.2.9 10 1.2 17.3.6 12.4.9 24.9.9 25.1l1.6 32.5 2-28.1c.3-3.7.7-7.5 1.3-11.2 0 0 1.3-10.9 2.8-21.7.9-6.3 1.7-11.4 2.4-15.1 1.2-6.6 1.9-8.4 3.9-8.4 2.1 0 2.7 1.8 3.9 8.4.7 3.6 1.5 8.7 2.4 15.1 1.5 10.8 2.8 21.7 2.8 21.8.6 3.6 1 7.4 1.3 11.1l2 28.1L270 301c0-.1.3-12.6.9-25 .4-7.3.8-13.1 1.2-17.3.7-6.8 1.4-9.6 3.9-9.6h.2l-.2-6-3-79v-55h.5c1.1 0 2-.9 2-2v-7c0-1.1-.9-2-2-2V39S260 0 256 0s-17.5 39-17.5 39v59c-1.1 0-2 .9-2 2v7c0 1.1.9 2 2 2h.5v55l-3 79-.2 6h.2c2.4 0 3.1 2.8 3.9 9.6zM236.8 512h4v-10h-4v10zm88.3-21.7l-10.1-6.8v8.7h9.6c.9 0 1.3-1.3.5-1.9zm-16.1 20h4V502h-4v8.3zm-44-8.3h-19.4c-.8 1.5-1.6 3.8-1.6 7h10v3h4v-3h10c0-3.2-.8-5.5-1.6-7H265zm30.2 0c-.6 1.5-1.2 3.5-1.2 6h13c0-2.5-.5-4.5-1.2-6h-10.6zm-14.6 0c-.8 1.5-1.6 3.8-1.6 7h13c0-3.2-.8-5.5-1.6-7h-9.8zm-9.3 10h4v-10h-4v10z" fill="#36434f"/></svg>