<svg version="1.1" xmlns="http://www.w3.org/2000/svg" x="0" y="0" viewBox="0 0 512 512" xml:space="preserve"><path d="M295 512h-35V348.4c0-10.2 4.7-20.4 8-30l2.5-7.1 19 112.2c.8 4.5 1.4 9 1.9 13.5.6 5.2 1 10.5 1.2 15.7l1.3 31.3 1.1 28zm-53.5-200.7l-19 112.2c-.8 4.5-1.4 9-1.9 13.5-.6 5.2-1 10.5-1.2 15.7l-1.3 31.3-1.1 28h35V348.4c0-10.2-4.7-20.4-8-30l-2.5-7.1zm20.7 11.5c-3 8.2-6.2 16.7-6.2 25.6 0-8.9-3.2-17.4-6.2-25.6-.7-2-1.4-3.9-2.1-5.7l-2.5-7.1-3.8-10.9V131h-.4c-1.1 0-2-.9-2-2v-16c0-1.1.9-2 2-2h.5V89.2c0-3.4.9-6.8 2.5-9.7l10-18.1V43h-2c-1.1 0-2-.9-2-2s.9-2 2-2h2V2c0-1.1.9-2 2-2s2 .9 2 2v37h2c1.1 0 2 .9 2 2s-.9 2-2 2h-2v18.4l10 18.1c1.6 2.9 2.5 6.3 2.5 9.7V111h.5c1.1 0 2 .9 2 2v16c0 1.1-.9 2-2 2h-.5v168.1l-3.8 10.9-2.5 7.1c-.6 1.9-1.3 3.8-2 5.7zM262 116c0-1.1-.9-2-2-2h-8c-1.1 0-2 .9-2 2v9c0 1.1.9 2 2 2h8c1.1 0 2-.9 2-2v-9z" fill="#36434f"/></svg>