<svg version="1.1" xmlns="http://www.w3.org/2000/svg" x="0" y="0" viewBox="0 0 512 512" style="enable-background:new 0 0 512 512" xml:space="preserve"><path d="M415.5 463v49h-319v-49c0-4.4 3.6-8 8-8H129v-15c0-4.4 3.6-8 8-8h238c4.4 0 8 3.6 8 8v15h24.5c4.4 0 8 3.6 8 8zM283.3 0c-39.9 14.3-77.4 151.4-43.4 250 .1.1.1.3.2.4.1.1.1.3.1.4 34 98.6 147.9 183.6 188.1 170.3l-72.5-210.6L283.3 0zm-87 310.7c2.9 1.6 6.4 1.9 9.6.8l12.8-4.4c2.1-.7 3.2-3 2.5-5.1l-7.3-21.2 18.4-6.3c-2.3-5.2-4.4-10.3-6.2-15.5l-.1-.1-1.2-3.5c-2.1-6-3.9-12.3-5.6-18.7l-18.4 6.3-7.3-21.3c-.7-2.1-3-3.2-5.1-2.5l-12.8 4.4c-3.2 1.1-5.7 3.4-7.1 6.5-6.1 14-7.2 30.2-1.8 45.7 5.4 15.5 16.2 27.7 29.6 34.9zm284.1-143.4c-.7-2.1-2.9-3.1-5-2.4l-24.3 8.4-101.2-28.9 3.1 9.1 65.1 18.6-3.2 13.5-45.5 15.7 2.6 7.6 45.5-15.6 10.8 8.6-39.9 54.7 3.2 9.2 61.9-85 24.3-8.4c2.2-.7 3.3-3 2.6-5.1zM285 416v-61.4c-19.5-21.9-35.9-45.7-47.8-69.7l-10.2 3.5V416h58z" style="fill:#36434f"/></svg>