<svg version="1.1" xmlns="http://www.w3.org/2000/svg" x="0" y="0" viewBox="0 0 512 512" style="enable-background:new 0 0 512 512" xml:space="preserve"><path d="m421.3 45.4 45.3 45.3-142.8 142.8-22.6 22.6 22.6 22.6 142.8 142.8-45.3 45.3L278.5 324l-22.6-22.6-22.7 22.6L90.4 466.9l-45.3-45.3L188 278.8l22.6-22.6-22.6-22.7L45.1 90.7l45.3-45.3 142.8 142.8 22.6 22.6 22.6-22.6L421.3 45.4m0-45.3L255.9 165.6 90.4.1-.1 90.7l165.5 165.5L-.1 421.6l90.5 90.5 165.5-165.5 165.5 165.5 90.5-90.5-165.5-165.5L511.9 90.7 421.3.1z" style="fill:#36434f"/></svg>