<svg xmlns="http://www.w3.org/2000/svg" viewBox="0 0 512 512" style="enable-background:new 0 0 512 512" xml:space="preserve"><path d="M256 8c24.8 0 48.9 4.9 71.6 14.5 21.9 9.3 41.6 22.5 58.5 39.4s30.2 36.6 39.4 58.5c9.6 22.7 14.5 46.8 14.5 71.6 0 34.7-8.1 72.4-24.2 112-13.6 33.5-33.1 68.5-56.4 101.1-19.9 27.9-42.4 53.7-63.1 72.6-21.3 19.4-35 26.3-40.2 26.3s-18.9-6.9-40.2-26.3c-20.8-18.9-43.2-44.7-63.1-72.6-23.3-32.6-42.8-67.6-56.4-101.1C80.1 264.4 72 226.7 72 192c0-24.8 4.9-48.9 14.5-71.6 9.3-21.9 22.5-41.6 39.4-58.5s36.6-30.2 58.5-39.4C207.1 12.9 231.2 8 256 8m0-8C150 0 64 86 64 192c0 154 155 320 192 320s192-166 192-320C448 86 362 0 256 0zm0 88c57.3 0 104 46.7 104 104s-46.7 104-104 104-104-46.7-104-104S198.7 88 256 88m0-8c-61.8 0-112 50.2-112 112s50.2 112 112 112 112-50.2 112-112S317.8 80 256 80z" style="fill:#36434f"/></svg>