<svg version="1.1" xmlns="http://www.w3.org/2000/svg" x="0" y="0" viewBox="0 0 512 512" xml:space="preserve"><path d="M512 173.3v-16c0-4.4-3.6-8-8-8H362.7V8c0-4.4-3.6-8-8-8h-16c-4.4 0-8 3.6-8 8v141.3H181.3V8c0-4.4-3.6-8-8-8h-16c-4.4 0-8 3.6-8 8v141.3H8c-4.4 0-8 3.6-8 8v16c0 4.4 3.6 8 8 8h141.3v149.3H8c-4.4 0-8 3.6-8 8v16c0 4.4 3.6 8 8 8h141.3V504c0 4.4 3.6 8 8 8h16c4.4 0 8-3.6 8-8V362.7h149.3V504c0 4.4 3.6 8 8 8h16c4.4 0 8-3.6 8-8V362.7H504c4.4 0 8-3.6 8-8v-16c0-4.4-3.6-8-8-8H362.7V181.3H504c4.4 0 8-3.5 8-8zM330.7 330.7H181.3V181.3h149.3v149.4zm-256-196.4c32.9 0 59.6-26.7 59.6-59.6s-26.7-59.6-59.6-59.6-59.6 26.7-59.6 59.6 26.7 59.6 59.6 59.6zm0-87.2c15.2 0 27.6 12.4 27.6 27.6 0 15.2-12.4 27.6-27.6 27.6-15.2 0-27.6-12.4-27.6-27.6 0-15.3 12.3-27.6 27.6-27.6zM256 315.6c32.9 0 59.6-26.7 59.6-59.6s-26.7-59.6-59.6-59.6-59.6 26.7-59.6 59.6 26.7 59.6 59.6 59.6zm0-87.2c15.2 0 27.6 12.4 27.6 27.6s-12.4 27.6-27.6 27.6-27.6-12.4-27.6-27.6 12.4-27.6 27.6-27.6zm125.1-120.1l33.6-33.6-33.6-33.6c-3.1-3.1-3.1-8.2 0-11.3l11.3-11.3c3.1-3.1 8.2-3.1 11.3 0L437.3 52l33.6-33.6c3.1-3.1 8.2-3.1 11.3 0l11.3 11.3c3.1 3.1 3.1 8.2 0 11.3L460 74.7l33.6 33.6c3.1 3.1 3.1 8.2 0 11.3l-11.3 11.3c-3.1 3.1-8.2 3.1-11.3 0l-33.6-33.6-33.6 33.6c-3.1 3.1-8.2 3.1-11.3 0l-11.3-11.3c-3.2-3.2-3.2-8.2-.1-11.3zm112.4 114.1L460 256l33.6 33.6c3.1 3.1 3.1 8.2 0 11.3l-11.3 11.3c-3.1 3.1-8.2 3.1-11.3 0l-33.6-33.6-33.6 33.6c-3.1 3.1-8.2 3.1-11.3 0l-11.3-11.3c-3.1-3.1-3.1-8.2 0-11.3l33.6-33.6-33.6-33.6c-3.1-3.1-3.1-8.2 0-11.3l11.3-11.3c3.1-3.1 8.2-3.1 11.3 0l33.6 33.6 33.6-33.6c3.1-3.1 8.2-3.1 11.3 0l11.3 11.3c3.1 3.1 3.1 8.2-.1 11.3zM130.9 403.7l-33.6 33.6 33.6 33.6c3.1 3.1 3.1 8.2 0 11.3l-11.3 11.3c-3.1 3.1-8.2 3.1-11.3 0L74.7 460l-33.6 33.6c-3.1 3.1-8.2 3.1-11.3 0l-11.3-11.3c-3.1-3.1-3.1-8.2 0-11.3L52 437.3l-33.6-33.6c-3.1-3.1-3.1-8.2 0-11.3l11.3-11.3c3.1-3.1 8.2-3.1 11.3 0l33.6 33.6 33.6-33.6c3.1-3.1 8.2-3.1 11.3 0l11.3 11.3c3.2 3.2 3.2 8.2.1 11.3z" fill-rule="evenodd" clip-rule="evenodd" fill="#36434f"/></svg>