<svg version="1.1" xmlns="http://www.w3.org/2000/svg" x="0" y="0" viewBox="0 0 512 512" xml:space="preserve"><path d="M502.6 99.8l-45.3-45.3c-6.3-6.3-14.5-9.4-22.7-9.4s-16.4 3.1-22.7 9.4L167.8 298.9 99.9 231c-6.3-6.3-14.5-9.4-22.7-9.4s-16.4 3.1-22.7 9.4L9.4 276.3c-1 1-1.9 2-2.7 3.1-9.7 12.6-8.8 30.7 2.7 42.2l67.9 67.9-.1.1 67.9 67.9c6.3 6.3 14.5 9.4 22.7 9.4s16.4-3.1 22.7-9.4l312.3-312.3c12.3-12.6 12.3-32.9-.2-45.4zM32 299zm0 0zm447.9-176.3L167.8 434.9l-45.3-45.3.1-.1-22.6-22.6L32 299l45.2-45.3 67.9 67.9 22.6 22.6 22.6-22.6L434.6 77.1l45.3 45.3c.1 0 .2.2 0 .3z" fill="#36434f"/></svg>