<svg version="1.1" xmlns="http://www.w3.org/2000/svg" x="0" y="0" viewBox="0 0 512 512" xml:space="preserve"><path d="M256 0C114.6 0 0 114.6 0 256s114.6 256 256 256 256-114.6 256-256S397.4 0 256 0zm-24 83c0-8.8 7.2-16 16-16h16c8.8 0 16 7.2 16 16v170c0 8.8-7.2 16-16 16h-16c-8.8 0-16-7.2-16-16V83zm24 331.5c-87.5 0-158.3-70.6-158.5-158.2-.1-61.9 35.2-115.5 86.8-141.7 5.3-2.7 11.7 1.1 11.7 7.1v25.5c0 9.4-4.1 18.3-11.3 24.4-2.4 2-4.6 4.1-6.8 6.3-21.1 21.1-32.7 49.3-32.4 79.3.3 28.3 11.5 55.7 31.3 76 21.3 21.9 50.1 33.8 80.7 33.4 28-.4 55-11.5 75.2-31 22.4-21.6 34.4-50.9 33.8-82-.6-25.9-10.3-50.9-27.3-70.3-3.8-4.3-7.8-8.2-12-11.8-7.1-6-11.1-14.9-11.1-24.3v-25.4c0-5.9 6.3-9.9 11.6-7.2 51.6 26.1 86.9 79.7 86.9 141.4-.1 87.5-71.1 158.5-158.6 158.5z" fill="#36434f"/></svg>