<?xml version="1.0" encoding="utf-8"?>
<!-- Generator: Adobe Illustrator 22.1.0, SVG Export Plug-In . SVG Version: 6.00 Build 0)  -->
<svg version="1.1" id="icon" xmlns="http://www.w3.org/2000/svg" xmlns:xlink="http://www.w3.org/1999/xlink" x="0px" y="0px"
	 viewBox="0 0 512 512" style="enable-background:new 0 0 512 512;" xml:space="preserve">
<style type="text/css">
	.st0{fill:#36434F;}
</style>
<path class="st0" d="M327.1,300.5c-15.8,0-28.6,12.8-28.6,28.6c0,15.8,12.8,28.6,28.6,28.6c15.7,0,28.5-12.9,28.6-28.6
	C355.7,313.3,342.9,300.5,327.1,300.5z M315.3,313l5.2,9c-0.2,0.2-0.4,0.4-0.6,0.6l-9-5.2C312.1,315.7,313.6,314.2,315.3,313z
	 M308.8,321l9,5.2c-0.1,0.3-0.1,0.5-0.2,0.8h-10.4C307.4,324.9,308,322.9,308.8,321z M307.2,331.2h10.4c0,0.3,0.1,0.5,0.2,0.8
	l-9,5.2C308,335.3,307.4,333.3,307.2,331.2z M310.9,340.8l9-5.2c0.2,0.2,0.4,0.4,0.6,0.6l-5.2,9C313.6,344,312.1,342.5,310.9,340.8z
	 M324.9,349c-2.1-0.2-4.1-0.7-6-1.6l5.2-9c0.3,0.1,0.5,0.1,0.8,0.2V349z M324.9,319.6c-0.3,0-0.5,0.1-0.8,0.2l-5.2-9
	c1.9-0.8,3.9-1.4,6-1.6V319.6z M343.2,317.3l-9,5.2c-0.2-0.2-0.4-0.4-0.6-0.6l5.2-9C340.5,314.1,342,315.6,343.2,317.3z
	 M329.2,309.2c2.1,0.2,4.1,0.7,6,1.6l-5.2,9c-0.2-0.1-0.5-0.1-0.8-0.2V309.2z M329.2,349v-10.4c0.3,0,0.5-0.1,0.8-0.2l5.2,9
	C333.3,348.2,331.3,348.8,329.2,349z M338.8,345.3l-5.2-9c0.2-0.2,0.4-0.4,0.6-0.6l9,5.2C342,342.6,340.5,344.1,338.8,345.3z
	 M345.3,337.2l-9-5.2c0.1-0.2,0.1-0.5,0.2-0.8h10.4C346.7,333.3,346.2,335.3,345.3,337.2z M336.5,327c0-0.3-0.1-0.5-0.2-0.8l9-5.2
	c0.8,1.9,1.4,3.9,1.6,6H336.5z M389.1,300.5c-15.8,0-28.6,12.8-28.6,28.6c0,15.8,12.8,28.6,28.6,28.6c15.7,0,28.5-12.9,28.6-28.6
	C417.7,313.3,404.9,300.5,389.1,300.5z M377.3,313l5.2,9c-0.2,0.2-0.4,0.4-0.6,0.6l-9-5.2C374.1,315.7,375.6,314.2,377.3,313z
	 M370.8,321l9,5.2c-0.1,0.3-0.1,0.5-0.2,0.8h-10.4C369.4,324.9,370,322.9,370.8,321z M369.2,331.2h10.4c0,0.3,0.1,0.5,0.2,0.8
	l-9,5.2C370,335.3,369.4,333.3,369.2,331.2z M372.9,340.8l9-5.2c0.2,0.2,0.4,0.4,0.6,0.6l-5.2,9C375.6,344,374.1,342.5,372.9,340.8z
	 M386.9,349c-2.1-0.2-4.1-0.7-6-1.6l5.2-9c0.3,0.1,0.5,0.1,0.8,0.2V349z M386.9,319.6c-0.3,0-0.5,0.1-0.8,0.2l-5.2-9
	c1.9-0.8,3.9-1.4,6-1.6V319.6z M405.2,317.3l-9,5.2c-0.2-0.2-0.4-0.4-0.6-0.6l5.2-9C402.5,314.1,404,315.6,405.2,317.3z
	 M391.2,309.2c2.1,0.2,4.1,0.7,6,1.6l-5.2,9c-0.2-0.1-0.5-0.1-0.8-0.2V309.2z M391.2,349v-10.4c0.3,0,0.5-0.1,0.8-0.2l5.2,9
	C395.3,348.2,393.3,348.8,391.2,349z M400.8,345.3l-5.2-9c0.2-0.2,0.4-0.4,0.6-0.6l9,5.2C404,342.6,402.5,344.1,400.8,345.3z
	 M407.3,337.2l-9-5.2c0.1-0.2,0.1-0.5,0.2-0.8h10.4C408.7,333.3,408.2,335.3,407.3,337.2z M398.5,327c0-0.3-0.1-0.5-0.2-0.8l9-5.2
	c0.8,1.9,1.4,3.9,1.6,6H398.5z M66.9,316.7c-11.3,0-20.5,9.2-20.5,20.5s9.2,20.5,20.5,20.5c11.3,0,20.5-9.2,20.5-20.5
	S78.2,316.7,66.9,316.7z M58.5,326.2l3.4,5.9l-0.1,0.1l-5.9-3.4C56.7,327.8,57.5,326.9,58.5,326.2z M54.1,331.9l5.9,3.4v0.1h-6.8
	C53.3,334.2,53.6,333,54.1,331.9z M53.2,339H60v0.1l-5.9,3.4C53.7,341.4,53.4,340.2,53.2,339z M56,345.6l5.9-3.4l0.1,0.1l-3.4,5.9
	C57.6,347.4,56.7,346.6,56,345.6z M65.1,350.9c-1.2-0.1-2.4-0.4-3.5-0.9l3.4-5.9h0.1V350.9z M65.1,330.3L65.1,330.3l-3.5-5.9
	c1.1-0.4,2.3-0.7,3.5-0.9V330.3z M77.9,328.8l-5.9,3.4c0,0,0,0-0.1-0.1l3.4-5.9C76.3,327,77.2,327.8,77.9,328.8z M68.8,323.5
	c1.2,0.1,2.4,0.4,3.5,0.9l-3.4,5.9c-0.1,0-0.1,0-0.1,0V323.5z M68.7,350.9v-6.8h0.1l3.4,5.9C71.1,350.4,69.9,350.7,68.7,350.9z
	 M75.3,348.2l-3.4-5.9l0.1-0.1l5.9,3.4C77.1,346.6,76.3,347.5,75.3,348.2z M79.7,342.5l-5.9-3.4V339h6.8
	C80.5,340.2,80.2,341.4,79.7,342.5z M73.8,335.4L73.8,335.4l5.9-3.5c0.4,1.1,0.7,2.3,0.9,3.5H73.8z M265.1,300.5
	c-15.8,0-28.6,12.8-28.6,28.6c0,15.8,12.8,28.6,28.6,28.6c15.7,0,28.5-12.9,28.6-28.6C293.7,313.3,280.9,300.5,265.1,300.5z
	 M253.3,313l5.2,9c-0.2,0.2-0.4,0.4-0.6,0.6l-9-5.2C250.1,315.7,251.6,314.2,253.3,313z M246.8,321l9,5.2c-0.1,0.3-0.1,0.5-0.2,0.8
	h-10.4C245.4,324.9,246,322.9,246.8,321z M245.2,331.2h10.4c0,0.3,0.1,0.5,0.2,0.8l-9,5.2C246,335.3,245.4,333.3,245.2,331.2z
	 M248.9,340.8l9-5.2c0.2,0.2,0.4,0.4,0.6,0.6l-5.2,9C251.6,344,250.1,342.5,248.9,340.8z M262.9,349c-2.1-0.2-4.1-0.7-6-1.6l5.2-9
	c0.3,0.1,0.5,0.1,0.8,0.2V349z M262.9,319.6c-0.3,0-0.5,0.1-0.8,0.2l-5.2-9c1.9-0.8,3.9-1.4,6-1.6V319.6z M281.2,317.3l-9,5.2
	c-0.2-0.2-0.4-0.4-0.6-0.6l5.2-9C278.5,314.1,280,315.6,281.2,317.3z M267.2,309.2c2.1,0.2,4.1,0.7,6,1.6l-5.2,9
	c-0.2-0.1-0.5-0.1-0.8-0.2V309.2z M267.2,349v-10.4c0.3,0,0.5-0.1,0.8-0.2l5.2,9C271.3,348.2,269.3,348.8,267.2,349z M276.8,345.3
	l-5.2-9c0.2-0.2,0.4-0.4,0.6-0.6l9,5.2C280,342.6,278.5,344.1,276.8,345.3z M283.3,337.2l-9-5.2c0.1-0.2,0.1-0.5,0.2-0.8h10.4
	C284.7,333.3,284.2,335.3,283.3,337.2z M274.5,327c0-0.3-0.1-0.5-0.2-0.8l9-5.2c0.8,1.9,1.4,3.9,1.6,6H274.5z M189.1,300.5
	c-15.8,0-28.6,12.8-28.6,28.6c0,15.8,12.8,28.6,28.6,28.6c15.7,0,28.5-12.9,28.6-28.6C217.7,313.3,204.9,300.5,189.1,300.5z
	 M177.3,313l5.2,9c-0.2,0.2-0.4,0.4-0.6,0.6l-9-5.2C174.1,315.7,175.6,314.2,177.3,313z M170.8,321l9,5.2c-0.1,0.3-0.1,0.5-0.2,0.8
	h-10.4C169.4,324.9,170,322.9,170.8,321z M169.2,331.2h10.4c0,0.3,0.1,0.5,0.2,0.8l-9,5.2C170,335.3,169.4,333.3,169.2,331.2z
	 M172.9,340.8l9-5.2c0.2,0.2,0.4,0.4,0.6,0.6l-5.2,9C175.6,344,174.1,342.5,172.9,340.8z M186.9,349c-2.1-0.2-4.1-0.7-6-1.6l5.2-9
	c0.3,0.1,0.5,0.1,0.8,0.2V349z M186.9,319.6c-0.3,0-0.5,0.1-0.8,0.2l-5.2-9c1.9-0.8,3.9-1.4,6-1.6V319.6z M205.2,317.3l-9,5.2
	c-0.2-0.2-0.4-0.4-0.6-0.6l5.2-9C202.5,314.1,204,315.6,205.2,317.3z M191.2,309.2c2.1,0.2,4.1,0.7,6,1.6l-5.2,9
	c-0.2-0.1-0.5-0.1-0.8-0.2V309.2z M191.2,349v-10.4c0.3,0,0.5-0.1,0.8-0.2l5.2,9C195.3,348.2,193.3,348.8,191.2,349z M200.8,345.3
	l-5.2-9c0.2-0.2,0.4-0.4,0.6-0.6l9,5.2C204,342.6,202.5,344.1,200.8,345.3z M207.3,337.2l-9-5.2c0.1-0.2,0.1-0.5,0.2-0.8h10.4
	C208.7,333.3,208.2,335.3,207.3,337.2z M198.5,327c0-0.3-0.1-0.5-0.2-0.8l9-5.2c0.8,1.9,1.4,3.9,1.6,6H198.5z M453,202h26.5v-9.5
	H512V187c0-4.4-3.6-8-8-8h-94.7v-3.1c0.3,0,0.5-0.2,0.5-0.5c0-0.3-0.2-0.5-0.5-0.5h-4.5c-0.3,0-0.5,0.2-0.5,0.5
	c0,0.3,0.2,0.5,0.5,0.5v3.1h-4.3c-4.4,0-8,3.6-8,8v5.5h-33.8V181c0-1.1-0.9-2-2-2h-6.5c-1.1,0-2,0.9-2,2v11.5H224.5v-14.8
	c0-1.1-0.9-2-2-2H169c-1.1,0-2,0.9-2,2v14.8h-7.8v-4c0-1.1-0.9-2-2-2H155c-1.1,0-2,0.9-2,2v4h-24.6l1.2-20.1h0.4c0.6,0,1-0.4,1-1
	c0-0.6-0.4-1-1-1h-0.3l0.9-14.1h0.3c0.6,0,1-0.4,1-1c0-0.6-0.4-1-1-1h-22.5c-0.6,0-1,0.4-1,1c0,0.6,0.4,1,1,1h0.3l0.9,14.1h-0.3
	c-0.6,0-1,0.4-1,1c0,0.6,0.4,1,1,1h0.4l1.2,20.1H84c-8.8,0-16,17.5-16,39c0,4,0.2,7.9,0.7,11.5H57.5c-1.1,0-2,0.9-2,2v1
	c0,1.1,0.9,2,2,2h12c1.3,7,3.5,12.9,6.2,16.9L58.4,281H55c-2.2,0-4,1.8-4,4v2.9l-14,13v-7h1c2.2,0,4-1.8,4-4v-8c0-2.2-1.8-4-4-4H27
	c-2.2,0-4,1.8-4,4v8c0,2.2,1.8,4,4,4h1v7h-4.3c-1.8,0-3.6,0.3-5.3,0.9L6.7,306c-0.4,0.2-0.7,0.5-0.7,1H3v-6c0-0.6-0.4-1-1-1H1
	c-0.6,0-1,0.4-1,1v14c0,0.6,0.4,1,1,1h1c0.6,0,1-0.4,1-1v-6h3c0,0.4,0.3,0.8,0.7,0.9l11.8,4.1c1.7,0.6,3.5,0.9,5.3,0.9H51v3.8
	c4.3-3.7,9.8-5.9,15.9-5.9c10.9,0,20.2,7.2,23.4,17.1H153v8c0,2.2,1.8,4,4,4h2.1c-1.7-3.9-2.6-8.3-2.6-12.8
	c0-18,14.6-32.6,32.6-32.6s32.6,14.6,32.6,32.6c0,4.5-0.9,8.9-2.6,12.8h16c-1.7-3.9-2.6-8.3-2.6-12.8c0-18,14.6-32.6,32.6-32.6
	c14.5,0,26.7,9.5,31,22.5c4.3-13,16.5-22.5,31-22.5c14.5,0,26.7,9.5,31,22.5c4.3-13,16.5-22.5,31-22.5c18,0,32.6,14.6,32.6,32.6
	c0,4.5-0.9,8.9-2.6,12.8h6.9c2.2,0,4-1.8,4-4v-4.1c0-2.9,2-5.3,4.8-5.9l24-4.8c4.1-0.8,8.3-1.2,12.6-1.2h8.2v-7v-17h3.8v1.3h-0.8
	c-0.6,0-1,0.4-1,1v1.5c0,0.6,0.4,1,1,1h0.8v14h-0.8c-0.6,0-1,0.4-1,1v1.5c0,0.6,0.4,1,1,1h0.8v14h-0.8c-0.6,0-1,0.4-1,1v1.5
	c0,0.6,0.4,1,1,1H498c0.6,0,1-0.4,1-1v-1.5c0-0.6-0.4-1-1-1h-0.8v-14h0.8c0.6,0,1-0.4,1-1v-1.5c0-0.6-0.4-1-1-1h-0.8v-14h0.8
	c0.6,0,1-0.4,1-1v-1.5c0-0.6-0.4-1-1-1h-0.8V298h4.8v-10.3h-22.5V286v-15.5H512V235h-32.5v-7H453c-2.2,0-4-1.8-4-4v-18
	C449,203.8,450.8,202,453,202z M51,301h-9.6l9.6-9V301z M87.8,281H62.9l14.7-13.7c2,2.1,4.1,3.2,6.4,3.2h3.8V281z M485.3,298h10v1.3
	h-10V298z M485.3,302.8h10v14h-10V302.8z M485.3,320.3h10v14h-10V320.3z M439,224c0,2.2-1.8,4-4,4h-18c-2.2,0-4-1.8-4-4v-18
	c0-2.2,1.8-4,4-4h18c2.2,0,4,1.8,4,4V224z"/>
</svg>
