<svg version="1.1" xmlns="http://www.w3.org/2000/svg" x="0" y="0" viewBox="0 0 512 512" xml:space="preserve"><path d="M452.7 69.3c-.5-10.1-3-20.1-7.4-29.2L430.1 8.4c-2-4.2-7.5-5.2-10.9-2.1l-1.4 1.3c3.5.4 6.7 2.7 7.8 6.2.4 1.2.6 2.4.7 3.7l5.2 131.8c.3 7.1.3 14.3.2 21.4l-4.1 165.1c-.2 6.8-5.7 12.3-12.6 12.3H96.9c-6.8 0-12.4-5.4-12.6-12.3l-4.1-165.1c-.2-7.1-.1-14.3.2-21.4l5.2-131.8c.1-1.3.3-2.5.7-3.7 1.1-3.5 4.3-5.8 7.8-6.2l-1.4-1.3c-3.4-3.1-8.9-2.1-10.9 2.1L66.6 40.2c-4.4 9.1-6.9 19.1-7.4 29.2L48.5 302v97.1c0 4.3.3 8.6.8 12.9v.1c.9 7.4 2.6 14.6 5.1 21.6l15.8 44.8c1.3 3.6 5.1 4.4 7.8 2.9h28.4c3.7 14.3 16 25.3 31.5 26.7l39.8 3.4c4.1.4 8.3.5 12.4.5h131.7c4.1 0 8.3-.2 12.4-.5L374 508c15.5-1.3 27.8-12.4 31.5-26.7h28.4c2.7 1.5 6.5.8 7.8-2.9l15.8-44.8c2.5-7 4.2-14.3 5.1-21.6v-.1c.5-4.3.8-8.6.8-12.9v-97L452.7 69.3zM418.2 478h-12c.4-2.6.5-5.3.3-8.1l-2.7-37.9c-.4-5.6-5.1-10-10.8-10h-4.3c-1.8 0-3.7-.4-5.4-1.2l-10.6-4.9c-2.5-1.2-5.2-1.8-8-1.8H147.2c-2.8 0-5.5.6-8 1.8l-10.6 4.9c-1.7.8-3.5 1.2-5.4 1.2h-4.3c-5.7 0-10.4 4.4-10.8 10l-2.7 37.9c-.2 2.7-.1 5.4.3 8.1h-12c-5.3 0-9.4-4.6-8.8-9.8l4.3-41.5c.9-8.9 8.5-15.7 17.5-15.7h298.5c9 0 16.5 6.8 17.5 15.7l4.3 41.5c.5 5.2-3.6 9.8-8.8 9.8zm2.3-14.4c.2 1.6-1 3.1-2.7 3.3h-.3c-1.5 0-2.8-1.1-3-2.7l-3.6-34.4c-.2-1.6 1-3.1 2.7-3.3 1.6-.2 3.1 1 3.3 2.7l3.6 34.4zm-319.4-33.8l-3.6 34.4c-.2 1.5-1.5 2.7-3 2.7h-.3c-1.6-.2-2.8-1.6-2.7-3.3l3.6-34.4c.2-1.6 1.6-2.8 3.3-2.7 1.6.1 2.8 1.6 2.7 3.3zM89.7 17.6l-5.2 131.8c-.3 7-.3 14.1-.2 21.1l4.1 165.1c.1 4.7 3.9 8.4 8.6 8.4h318.1c4.7 0 8.5-3.7 8.6-8.4l4.1-165.1c.2-7 .1-14.1-.2-21.1l-5.2-131.8c-.2-4.9-4.1-8.8-9-9.1C413.4 8.5 346 0 256 0S98.6 8.5 98.6 8.5c-4.9.3-8.7 4.2-8.9 9.1zm35.1 312.3c-2.2-.1-3.9-2-3.7-4.2.1-2.2 2-3.9 4.2-3.7 2.2.1 3.9 2 3.7 4.2s-2 3.8-4.2 3.7zm9 .5c-2.2-.1-3.9-2-3.7-4.2.1-2.2 2-3.9 4.2-3.7 2.2.1 3.9 2 3.7 4.2-.1 2.2-2 3.9-4.2 3.7zm8.9.6c-2.2-.1-3.9-2-3.7-4.2s2-3.9 4.2-3.7c2.2.1 3.9 2 3.7 4.2 0 2.2-1.9 3.8-4.2 3.7zm9 .6c-2.2-.1-3.9-2-3.7-4.2.1-2.2 2-3.9 4.2-3.7 2.2.1 3.9 2 3.7 4.2s-2 3.8-4.2 3.7zm9 .5c-2.2-.1-3.9-2-3.7-4.2.1-2.2 2-3.9 4.2-3.7 2.2.1 3.9 2 3.7 4.2s-2 3.9-4.2 3.7zm190.6 0c-2.2.1-4.1-1.5-4.2-3.7s1.5-4.1 3.7-4.2c2.2-.1 4.1 1.5 4.2 3.7.2 2.2-1.5 4.1-3.7 4.2zm9-.5c-2.2.1-4.1-1.5-4.2-3.7s1.5-4.1 3.7-4.2c2.2-.1 4.1 1.5 4.2 3.7.1 2.1-1.5 4-3.7 4.2zm9-.6c-2.2.1-4.1-1.5-4.2-3.7-.1-2.2 1.5-4.1 3.7-4.2 2.2-.1 4.1 1.5 4.2 3.7s-1.5 4.1-3.7 4.2zm8.9-.6c-2.2.1-4.1-1.5-4.2-3.7-.1-2.2 1.5-4.1 3.7-4.2 2.2-.1 4.1 1.5 4.2 3.7.2 2.2-1.5 4.1-3.7 4.2zm9-.5c-2.2.1-4.1-1.5-4.2-3.7s1.5-4.1 3.7-4.2c2.2-.1 4.1 1.5 4.2 3.7.2 2.1-1.5 4-3.7 4.2zm26.7-39.9c1.4 0 2.3 1.5 1.6 2.8l-8.9 15.8c-2.3 4.1-6.4 6.8-11 7.4l-43.4 5.7c-.9.1-1.8-.6-1.8-1.6 0-.5.4-.9.9-1l38.6-5c3.1-.4 5.9-2.2 7.4-4.9l9.6-16.5c.9-1.6 2.7-2.6 4.6-2.6h2.4zm-33.1 8.1l-7.4 11.8c-1.4 2.3-3.8 3.8-6.5 4.2l-10.9 1.4c-1.6.2-2.6-1.6-1.7-2.9l4.1-5.5c4.8-6.4 11.9-10.8 19.8-12.2h.3c1.9-.4 3.3 1.6 2.3 3.2zm4.2-1c1.5-2.4 4-4.1 6.8-4.6l7.4-1.3c2.3-.4 4 2.1 2.8 4.1l-7.2 12.3c-1.1 1.9-3 3.2-5.2 3.5l-10.9 1.4c-1.5.2-2.5-1.4-1.7-2.7l8-12.7zm-281.3-83.6l12-155.5c.5-6 5.5-10.6 11.5-10.6h257.6c6 0 11 4.6 11.5 10.6l11.9 155.5c.3 4.1-2.5 7.7-6.5 8.5-46.6 8.5-95.5 13-145.8 13s-99.1-4.5-145.8-13c-3.9-.7-6.7-4.4-6.4-8.5zm27.5 84.6c-1-1.6.4-3.6 2.2-3.3h.3c7.9 1.4 15 5.7 19.8 12.2l4.1 5.5c1 1.3-.1 3.1-1.7 2.9L145 314c-2.7-.3-5.1-1.9-6.5-4.2l-7.3-11.7zm2.1 14.4l-10.9-1.4c-2.2-.3-4.1-1.6-5.2-3.5l-7.2-12.3c-1.2-2 .5-4.5 2.8-4.1l7.4 1.3c2.8.5 5.3 2.2 6.8 4.6l8 12.7c.8 1.3-.3 2.9-1.7 2.7zM98.1 290h2.3c1.9 0 3.6 1 4.6 2.6l9.6 16.5c1.6 2.7 4.3 4.5 7.4 4.9l38.6 5c.5.1.9.5.9 1 0 1-.8 1.7-1.8 1.6l-43.4-5.7c-4.6-.6-8.7-3.3-11-7.4l-8.9-15.8c-.7-1.2.2-2.7 1.7-2.7z" fill="#36434f"/></svg>