<svg version="1.1" xmlns="http://www.w3.org/2000/svg" x="0" y="0" viewBox="0 0 512 512" xml:space="preserve"><path d="M256 0C110.1 0 63 79 63.5 144.5 64.1 227.6 91 278 211 407l12 32.9 18.5 28.2V483H240c-2.2 0-4 1.8-4 4v21c0 2.2 1.8 4 4 4h32c2.2 0 4-1.8 4-4v-21c0-2.2-1.8-4-4-4h-1.5v-14.9l18.5-28.2 12-32.9c120-129 146.9-179.4 147.5-262.5C449 79 401.9 0 256 0zm-31.7 439.9h31.2v15.2c-.9 1-2.7 3.2-3.1 5.9h-.9c-1.1 0-2 .9-2 2v3c0 .6.3 1.1.7 1.5h-7.9l-18-27.6zm18.2 43.1v-14.5h27V483h-27zm27.2-15.5h-7.9c.4-.4.7-.9.7-1.5v-3c0-1.1-.9-2-2-2h-.9c-.4-2.7-2.2-5-3.1-5.9v-15.2h31.2l-18 27.6z" fill="#36434f"/></svg>