<svg version="1.1" xmlns="http://www.w3.org/2000/svg" x="0" y="0" viewBox="0 0 512 512" xml:space="preserve"><path d="M107 202H84c-1.1 0-2 .9-2 2v111c0 1.1.9 2 2 2h23c1.1 0 2-.9 2-2V204c0-1.1-.9-2-2-2zm-2 88c0 1.1-.9 2-2 2H88c-1.1 0-2-.9-2-2v-80c0-1.1.9-2 2-2h15c1.1 0 2 .9 2 2v80zm156-88h-23c-1.1 0-2 .9-2 2v111c0 1.1.9 2 2 2h23c1.1 0 2-.9 2-2V204c0-1.1-.9-2-2-2zm-2 88c0 1.1-.9 2-2 2h-15c-1.1 0-2-.9-2-2v-80c0-1.1.9-2 2-2h15c1.1 0 2 .9 2 2v80zM76 202H53c-1.1 0-2 .9-2 2v111c0 1.1.9 2 2 2h23c1.1 0 2-.9 2-2V204c0-1.1-.9-2-2-2zm-2 88c0 1.1-.9 2-2 2H57c-1.1 0-2-.9-2-2v-80c0-1.1.9-2 2-2h15c1.1 0 2 .9 2 2v80zm218-88h-23c-1.1 0-2 .9-2 2v111c0 1.1.9 2 2 2h23c1.1 0 2-.9 2-2V204c0-1.1-.9-2-2-2zm-2 88c0 1.1-.9 2-2 2h-15c-1.1 0-2-.9-2-2v-80c0-1.1.9-2 2-2h15c1.1 0 2 .9 2 2v80zm163-88h-23c-1.1 0-2 .9-2 2v111c0 1.1.9 2 2 2h23c1.1 0 2-.9 2-2V204c0-1.1-.9-2-2-2zm-2 88c0 1.1-.9 2-2 2h-15c-1.1 0-2-.9-2-2v-80c0-1.1.9-2 2-2h15c1.1 0 2 .9 2 2v80zm33-88h-23c-1.1 0-2 .9-2 2v111c0 1.1.9 2 2 2h23c1.1 0 2-.9 2-2V204c0-1.1-.9-2-2-2zm-2 88c0 1.1-.9 2-2 2h-15c-1.1 0-2-.9-2-2v-80c0-1.1.9-2 2-2h15c1.1 0 2 .9 2 2v80zm-88.7.7c-13.3 0-24.1 10.8-24.1 24.1S380 339 393.3 339s24.1-10.8 24.1-24.1-10.8-24.2-24.1-24.2zm0 40.7c-9.1 0-16.5-7.4-16.5-16.5s7.4-16.5 16.5-16.5 16.5 7.4 16.5 16.5-7.4 16.5-16.5 16.5zm8-16.6c0 4.4-3.6 8-8 8s-8-3.6-8-8 3.6-8 8-8 8 3.6 8 8zm-257.6-24.1c-13.3 0-24.1 10.8-24.1 24.1s10.8 24.1 24.1 24.1 24.1-10.8 24.1-24.1-10.8-24.1-24.1-24.1zm0 40.7c-9.1 0-16.5-7.4-16.5-16.5s7.4-16.5 16.5-16.5 16.5 7.4 16.5 16.5c.1 9.1-7.4 16.5-16.5 16.5zm8.1-16.6c0 4.4-3.6 8-8 8s-8-3.6-8-8 3.6-8 8-8 8 3.6 8 8zM512 184.7c-.2-6.5-5.5-11.6-12-11.6H12c-6.6 0-12 5.4-12 12v127c0 6.6 5.4 12 12 12h106.7c-1.1-2.9-1.6-6-1.6-9.2 0-14.8 12-26.7 26.7-26.7s26.7 12 26.7 26.7c0 3.2-.6 6.3-1.6 9.2h199.3c-1.1-2.9-1.6-6-1.6-9.2 0-14.8 12-26.7 26.7-26.7s26.7 12 26.7 26.7c0 3.2-.6 6.3-1.6 9.2h81.7c6.6 0 12-5.4 12-12v-127l-.1-.4zM42.5 233c0 3.3-2.7 6-6 6H23c-3.3 0-6-2.7-6-6v-37c0-3.3 2.7-6 6-6h13.5c3.3 0 6 2.7 6 6v37zm69 87h-63V201c0-2.2 1.8-4 4-4h55c2.2 0 4 1.8 4 4v119zm116-70c0 3.3-2.7 6-6 6h-98c-3.3 0-6-2.7-6-6v-54c0-3.3 2.7-6 6-6h98c3.3 0 6 2.7 6 6v54zm69 70h-63V201c0-2.2 1.8-4 4-4h55c2.2 0 4 1.8 4 4v119zm123-70c0 3.3-2.7 6-6 6h-105c-3.3 0-6-2.7-6-6v-54c0-3.3 2.7-6 6-6h105c3.3 0 6 2.7 6 6v54zm69 70h-63V201c0-2.2 1.8-4 4-4h55c2.2 0 4 1.8 4 4v119zm19.5-57h-7c-3.3 0-6-2.7-6-6v-65c0-3.3 2.7-6 6-6h7v77z" fill="#36434f"/></svg>