<svg version="1.1" xmlns="http://www.w3.org/2000/svg" x="0" y="0" viewBox="0 0 512 512" style="enable-background:new 0 0 512 512" xml:space="preserve"><path d="M327.1 300.5c-15.8 0-28.6 12.8-28.6 28.6s12.8 28.6 28.6 28.6c15.7 0 28.5-12.9 28.6-28.6 0-15.8-12.8-28.6-28.6-28.6zM315.3 313l5.2 9-.6.6-9-5.2c1.2-1.7 2.7-3.2 4.4-4.4zm-6.5 8 9 5.2c-.1.3-.1.5-.2.8h-10.4c.2-2.1.8-4.1 1.6-6zm-1.6 10.2h10.4c0 .3.1.5.2.8l-9 5.2c-.8-1.9-1.4-3.9-1.6-6zm3.7 9.6 9-5.2.6.6-5.2 9c-1.7-1.2-3.2-2.7-4.4-4.4zm14 8.2c-2.1-.2-4.1-.7-6-1.6l5.2-9c.3.1.5.1.8.2V349zm0-29.4c-.3 0-.5.1-.8.2l-5.2-9c1.9-.8 3.9-1.4 6-1.6v10.4zm18.3-2.3-9 5.2-.6-.6 5.2-9c1.7 1.2 3.2 2.7 4.4 4.4zm-14-8.1c2.1.2 4.1.7 6 1.6l-5.2 9c-.2-.1-.5-.1-.8-.2v-10.4zm0 39.8v-10.4c.3 0 .5-.1.8-.2l5.2 9c-1.9.8-3.9 1.4-6 1.6zm9.6-3.7-5.2-9 .6-.6 9 5.2c-1.2 1.7-2.7 3.2-4.4 4.4zm6.5-8.1-9-5.2c.1-.2.1-.5.2-.8h10.4c-.2 2.1-.7 4.1-1.6 6zm-8.8-10.2c0-.3-.1-.5-.2-.8l9-5.2c.8 1.9 1.4 3.9 1.6 6h-10.4zm52.6-26.5c-15.8 0-28.6 12.8-28.6 28.6s12.8 28.6 28.6 28.6c15.7 0 28.5-12.9 28.6-28.6 0-15.8-12.8-28.6-28.6-28.6zM377.3 313l5.2 9-.6.6-9-5.2c1.2-1.7 2.7-3.2 4.4-4.4zm-6.5 8 9 5.2c-.1.3-.1.5-.2.8h-10.4c.2-2.1.8-4.1 1.6-6zm-1.6 10.2h10.4c0 .3.1.5.2.8l-9 5.2c-.8-1.9-1.4-3.9-1.6-6zm3.7 9.6 9-5.2.6.6-5.2 9c-1.7-1.2-3.2-2.7-4.4-4.4zm14 8.2c-2.1-.2-4.1-.7-6-1.6l5.2-9c.3.1.5.1.8.2V349zm0-29.4c-.3 0-.5.1-.8.2l-5.2-9c1.9-.8 3.9-1.4 6-1.6v10.4zm18.3-2.3-9 5.2-.6-.6 5.2-9c1.7 1.2 3.2 2.7 4.4 4.4zm-14-8.1c2.1.2 4.1.7 6 1.6l-5.2 9c-.2-.1-.5-.1-.8-.2v-10.4zm0 39.8v-10.4c.3 0 .5-.1.8-.2l5.2 9c-1.9.8-3.9 1.4-6 1.6zm9.6-3.7-5.2-9 .6-.6 9 5.2c-1.2 1.7-2.7 3.2-4.4 4.4zm6.5-8.1-9-5.2c.1-.2.1-.5.2-.8h10.4c-.2 2.1-.7 4.1-1.6 6zm-8.8-10.2c0-.3-.1-.5-.2-.8l9-5.2c.8 1.9 1.4 3.9 1.6 6h-10.4zM66.9 316.7c-11.3 0-20.5 9.2-20.5 20.5s9.2 20.5 20.5 20.5 20.5-9.2 20.5-20.5-9.2-20.5-20.5-20.5zm-8.4 9.5 3.4 5.9-.1.1-5.9-3.4c.8-1 1.6-1.9 2.6-2.6zm-4.4 5.7 5.9 3.4v.1h-6.8c.1-1.2.4-2.4.9-3.5zm-.9 7.1H60v.1l-5.9 3.4c-.4-1.1-.7-2.3-.9-3.5zm2.8 6.6 5.9-3.4.1.1-3.4 5.9c-1-.8-1.9-1.6-2.6-2.6zm9.1 5.3c-1.2-.1-2.4-.4-3.5-.9l3.4-5.9h.1v6.8zm0-20.6-3.5-5.9c1.1-.4 2.3-.7 3.5-.9v6.8zm12.8-1.5-5.9 3.4-.1-.1 3.4-5.9c1 .8 1.9 1.6 2.6 2.6zm-9.1-5.3c1.2.1 2.4.4 3.5.9l-3.4 5.9h-.1v-6.8zm-.1 27.4v-6.8h.1l3.4 5.9c-1.1.4-2.3.7-3.5.9zm6.6-2.7-3.4-5.9.1-.1 5.9 3.4c-.8 1-1.6 1.9-2.6 2.6zm4.4-5.7-5.9-3.4v-.1h6.8c-.1 1.2-.4 2.4-.9 3.5zm-5.9-7.1 5.9-3.5c.4 1.1.7 2.3.9 3.5h-6.8zm191.3-34.9c-15.8 0-28.6 12.8-28.6 28.6s12.8 28.6 28.6 28.6c15.7 0 28.5-12.9 28.6-28.6 0-15.8-12.8-28.6-28.6-28.6zM253.3 313l5.2 9-.6.6-9-5.2c1.2-1.7 2.7-3.2 4.4-4.4zm-6.5 8 9 5.2c-.1.3-.1.5-.2.8h-10.4c.2-2.1.8-4.1 1.6-6zm-1.6 10.2h10.4c0 .3.1.5.2.8l-9 5.2c-.8-1.9-1.4-3.9-1.6-6zm3.7 9.6 9-5.2.6.6-5.2 9c-1.7-1.2-3.2-2.7-4.4-4.4zm14 8.2c-2.1-.2-4.1-.7-6-1.6l5.2-9c.3.1.5.1.8.2V349zm0-29.4c-.3 0-.5.1-.8.2l-5.2-9c1.9-.8 3.9-1.4 6-1.6v10.4zm18.3-2.3-9 5.2-.6-.6 5.2-9c1.7 1.2 3.2 2.7 4.4 4.4zm-14-8.1c2.1.2 4.1.7 6 1.6l-5.2 9c-.2-.1-.5-.1-.8-.2v-10.4zm0 39.8v-10.4c.3 0 .5-.1.8-.2l5.2 9c-1.9.8-3.9 1.4-6 1.6zm9.6-3.7-5.2-9 .6-.6 9 5.2c-1.2 1.7-2.7 3.2-4.4 4.4zm6.5-8.1-9-5.2c.1-.2.1-.5.2-.8h10.4c-.2 2.1-.7 4.1-1.6 6zm-8.8-10.2c0-.3-.1-.5-.2-.8l9-5.2c.8 1.9 1.4 3.9 1.6 6h-10.4zm-85.4-26.5c-15.8 0-28.6 12.8-28.6 28.6s12.8 28.6 28.6 28.6c15.7 0 28.5-12.9 28.6-28.6 0-15.8-12.8-28.6-28.6-28.6zM177.3 313l5.2 9-.6.6-9-5.2c1.2-1.7 2.7-3.2 4.4-4.4zm-6.5 8 9 5.2c-.1.3-.1.5-.2.8h-10.4c.2-2.1.8-4.1 1.6-6zm-1.6 10.2h10.4c0 .3.1.5.2.8l-9 5.2c-.8-1.9-1.4-3.9-1.6-6zm3.7 9.6 9-5.2.6.6-5.2 9c-1.7-1.2-3.2-2.7-4.4-4.4zm14 8.2c-2.1-.2-4.1-.7-6-1.6l5.2-9c.3.1.5.1.8.2V349zm0-29.4c-.3 0-.5.1-.8.2l-5.2-9c1.9-.8 3.9-1.4 6-1.6v10.4zm18.3-2.3-9 5.2-.6-.6 5.2-9c1.7 1.2 3.2 2.7 4.4 4.4zm-14-8.1c2.1.2 4.1.7 6 1.6l-5.2 9c-.2-.1-.5-.1-.8-.2v-10.4zm0 39.8v-10.4c.3 0 .5-.1.8-.2l5.2 9c-1.9.8-3.9 1.4-6 1.6zm9.6-3.7-5.2-9 .6-.6 9 5.2c-1.2 1.7-2.7 3.2-4.4 4.4zm6.5-8.1-9-5.2c.1-.2.1-.5.2-.8h10.4c-.2 2.1-.7 4.1-1.6 6zm-8.8-10.2c0-.3-.1-.5-.2-.8l9-5.2c.8 1.9 1.4 3.9 1.6 6h-10.4zM453 202h26.5v-9.5H512V187c0-4.4-3.6-8-8-8h-94.7v-3.1c.3 0 .5-.2.5-.5s-.2-.5-.5-.5h-4.5c-.3 0-.5.2-.5.5s.2.5.5.5v3.1h-4.3c-4.4 0-8 3.6-8 8v5.5h-33.8V181c0-1.1-.9-2-2-2h-6.5c-1.1 0-2 .9-2 2v11.5H224.5v-14.8c0-1.1-.9-2-2-2H169c-1.1 0-2 .9-2 2v14.8h-7.8v-4c0-1.1-.9-2-2-2H155c-1.1 0-2 .9-2 2v4h-24.6l1.2-20.1h.4c.6 0 1-.4 1-1s-.4-1-1-1h-.3l.9-14.1h.3c.6 0 1-.4 1-1s-.4-1-1-1h-22.5c-.6 0-1 .4-1 1s.4 1 1 1h.3l.9 14.1h-.3c-.6 0-1 .4-1 1s.4 1 1 1h.4l1.2 20.1H84c-8.8 0-16 17.5-16 39 0 4 .2 7.9.7 11.5H57.5c-1.1 0-2 .9-2 2v1c0 1.1.9 2 2 2h12c1.3 7 3.5 12.9 6.2 16.9L58.4 281H55c-2.2 0-4 1.8-4 4v2.9l-14 13v-7h1c2.2 0 4-1.8 4-4v-8c0-2.2-1.8-4-4-4H27c-2.2 0-4 1.8-4 4v8c0 2.2 1.8 4 4 4h1v7h-4.3c-1.8 0-3.6.3-5.3.9L6.7 306c-.4.2-.7.5-.7 1H3v-6c0-.6-.4-1-1-1H1c-.6 0-1 .4-1 1v14c0 .6.4 1 1 1h1c.6 0 1-.4 1-1v-6h3c0 .4.3.8.7.9l11.8 4.1c1.7.6 3.5.9 5.3.9H51v3.8c4.3-3.7 9.8-5.9 15.9-5.9 10.9 0 20.2 7.2 23.4 17.1H153v8c0 2.2 1.8 4 4 4h2.1c-1.7-3.9-2.6-8.3-2.6-12.8 0-18 14.6-32.6 32.6-32.6s32.6 14.6 32.6 32.6c0 4.5-.9 8.9-2.6 12.8h16c-1.7-3.9-2.6-8.3-2.6-12.8 0-18 14.6-32.6 32.6-32.6 14.5 0 26.7 9.5 31 22.5 4.3-13 16.5-22.5 31-22.5s26.7 9.5 31 22.5c4.3-13 16.5-22.5 31-22.5 18 0 32.6 14.6 32.6 32.6 0 4.5-.9 8.9-2.6 12.8h6.9c2.2 0 4-1.8 4-4v-4.1c0-2.9 2-5.3 4.8-5.9l24-4.8c4.1-.8 8.3-1.2 12.6-1.2h8.2v-24h3.8v1.3h-.8c-.6 0-1 .4-1 1v1.5c0 .6.4 1 1 1h.8v14h-.8c-.6 0-1 .4-1 1v1.5c0 .6.4 1 1 1h.8v14h-.8c-.6 0-1 .4-1 1v1.5c0 .6.4 1 1 1H498c.6 0 1-.4 1-1v-1.5c0-.6-.4-1-1-1h-.8v-14h.8c.6 0 1-.4 1-1v-1.5c0-.6-.4-1-1-1h-.8v-14h.8c.6 0 1-.4 1-1v-1.5c0-.6-.4-1-1-1h-.8V298h4.8v-10.3h-22.5v-17.2H512V235h-32.5v-7H453c-2.2 0-4-1.8-4-4v-18c0-2.2 1.8-4 4-4zM51 301h-9.6l9.6-9v9zm36.8-20H62.9l14.7-13.7c2 2.1 4.1 3.2 6.4 3.2h3.8V281zm397.5 17h10v1.3h-10V298zm0 4.8h10v14h-10v-14zm0 17.5h10v14h-10v-14zM439 224c0 2.2-1.8 4-4 4h-18c-2.2 0-4-1.8-4-4v-18c0-2.2 1.8-4 4-4h18c2.2 0 4 1.8 4 4v18z" style="fill:#36434f"/></svg>