<svg xmlns="http://www.w3.org/2000/svg" viewBox="0 0 512 512" xml:space="preserve"><path d="M227 283.7v14.6c0 1-.7 1.8-1.7 2l-29.1 4.9c-3.5.6-7 .9-10.5.9h-9.3c-6.9 0-13.7-1.1-20.2-3.3l-.8-.3c-.8-.3-1.4-1-1.4-1.9v-19.2c0-.9.6-1.6 1.4-1.9l.8-.3c6.5-2.2 13.4-3.3 20.2-3.3h9.3c3.5 0 7 .3 10.5.9l29.1 4.9c1 .2 1.7 1 1.7 2zM512 242c0 9.5-32.8 16.2-55.3 22.8s-72.7 22.8-101.8 22.8h-107l1.8 6.2c.2.6-.3 1.3-1 1.3h-2c3.1 1.6 5.3 4.8 5.3 8.5 0 5.2-4.3 9.5-9.5 9.5s-9.5-4.3-9.5-9.5c0-3.7 2.2-7 5.3-8.5-.8 0-1.5-.5-1.8-1.2l-2.5-6.2h-6v-3.8c0-.4-.1-.8-.3-1.2h14.2l.3-.3 3.2-3.2h10.8l.2-.1 5.8-2.9h10.7c.7 0 1.4-.5 1.5-1.3.1-.7-.3-1.4-1-1.7l-.5-.2c-.9-.3-1.9-.6-2.8-.8l2.2-1.1h15.2c.8 0 1.4-.5 1.5-1.3s-.3-1.4-1.1-1.7l-5.9-1.7c-.1 0-.2-.1-.3-.1l2.6-1.3h13.9c.8 0 1.4-.5 1.5-1.3s-.4-1.4-1.1-1.6l-5.5-1.5 11.5-5.7c.6-.3.9-1 .8-1.7-.2-.7-.8-1.2-1.5-1.2h-20.8c-2.1 0-4.3.2-6.4.6L213.9 265c-3.4.7-6.8 1.1-10.2 1.2l-25.2.8v1l25.3-.8c3.5-.1 7-.5 10.4-1.2l62.8-12.4c2-.4 4.1-.6 6.2-.6H304c.5 0 .7.7.2.9l-14 7c.7.1 1.3.3 2 .4l6.2 1.7c.6.2.5 1-.1 1H284l-5.3 2.7c1 .2 2 .4 3 .7l5.9 1.7c.6.2.4 1-.1 1H272l-5 2.5c1.9.3 3.8.7 5.6 1.3l.5.2c.5.2.4 1-.2 1H262l-6 3h-11l-3.5 3.5h-13l-.8.8c-.4-.8-1.2-1.4-2.2-1.6l-29.1-4.9c-3.5-.6-7.1-.9-10.7-.9h-9.3c-7 0-13.9 1.1-20.6 3.3l-.8.3c-1.2.4-2.1 1.6-2.1 2.8v6.1h-50.5c-14.4 0-28.1-.2-40.5-.7v2.2c0 1.1-.9 2-2 2v6.7l3.1.2c.6 0 1 .5.9 1.1 0 .6-.5 1-1.1.9l-2.9-.2v2.1c1.8 1 3 3 3 5.2 0 3.3-2.7 6-6 6s-6-2.7-6-6c0-2.5 1.5-4.7 3.7-5.6l-1.1-2.2-1.7-.1c-.6 0-1-.5-.9-1.1 0-.6.5-1 1.1-.9h.5l-3.1-6.1H48c-1.1 0-2-.9-2-2v-3.1c-27.7-2-46-6.4-46-14.9 0-9.5 14-11.5 26-21.5l.3-.3c1.2.2 2.5.4 3.8.6.3 0 .7-.1.9-.3l6.5-7.2c.3-.3.1-.8-.3-.8-.6 0-1.1-.1-1.7-.1 16.7-11.4 42.3-16.8 67.1-16.8H355c11 0 21.8.1 32.2.4 4.8.1 9.3-1.9 12.5-5.5l65.4-75.2c4.9-5.6 12.1-8.7 19.5-8.2l7.1.4c1.3.1 2.1 1.3 1.8 2.5l-1.9 7.7h-6.2c-2.2 0-4.1 1.3-5 3.3l-33.1 74.6c-.2.5-.2 1 .1 1.4.3.4.7.7 1.3.7h22.9l-1 3.8c25.7 3 41.4 7.1 41.4 11.5zm-464.6.6c0-.6-.5-1-1-1h-5.1c-.3 0-.6.1-.8.3l-6.8 7.4c-.3.3-.1.8.3.8 3.2.3 6.6.4 10.1.4h2.3c.5 0 1-.5 1-1v-6.9zm11.5 7.1c.8-.1 1.2-1.1.6-1.7l-4.8-5.3c-.8-.9-2-1.4-3.2-1.3-.4 0-.8 0-1.2.1-.5 0-1 .5-1 1v7c0 .6.5 1 1.1 1 3-.2 5.9-.5 8.5-.8zM60 307c0-1.7-1.3-3-3-3s-3 1.3-3 3 1.3 3 3 3 3-1.3 3-3zm34.5-72c0-1.4-1.1-2.5-2.5-2.5H81c-1.4 0-2.5 1.1-2.5 2.5v27c0 1.4 1.1 2.5 2.5 2.5h11c1.4 0 2.5-1.1 2.5-2.5v-27zm15.8 13.5c0-1.8-1.2-3.3-2.8-3.3s-2.8 1.5-2.8 3.3 1.2 3.3 2.8 3.3 2.8-1.5 2.8-3.3zm8.5 0c0-1.8-1.2-3.3-2.8-3.3-1.5 0-2.8 1.5-2.8 3.3s1.2 3.3 2.8 3.3c1.6 0 2.8-1.5 2.8-3.3zm8.6 0c0-1.8-1.2-3.3-2.8-3.3-1.5 0-2.8 1.5-2.8 3.3s1.2 3.3 2.8 3.3c1.5 0 2.8-1.5 2.8-3.3zm8.5 0c0-1.8-1.2-3.3-2.8-3.3-1.5 0-2.8 1.5-2.8 3.3s1.2 3.3 2.8 3.3c1.5 0 2.8-1.5 2.8-3.3zm8.5 0c0-1.8-1.2-3.3-2.8-3.3-1.5 0-2.8 1.5-2.8 3.3s1.2 3.3 2.8 3.3c1.6 0 2.8-1.5 2.8-3.3zm8.5 0c0-1.8-1.2-3.3-2.8-3.3-1.5 0-2.8 1.5-2.8 3.3s1.2 3.3 2.8 3.3c1.6 0 2.8-1.5 2.8-3.3zm8.6 0c0-1.8-1.2-3.3-2.8-3.3-1.5 0-2.8 1.5-2.8 3.3s1.2 3.3 2.8 3.3c1.5 0 2.8-1.5 2.8-3.3zm8.5 0c0-1.8-1.2-3.3-2.8-3.3-1.5 0-2.8 1.5-2.8 3.3s1.2 3.3 2.8 3.3c1.5 0 2.8-1.5 2.8-3.3zm8.5 0c0-1.8-1.2-3.3-2.8-3.3-1.5 0-2.8 1.5-2.8 3.3s1.2 3.3 2.8 3.3c1.6 0 2.8-1.5 2.8-3.3zm8.5 0c0-1.8-1.2-3.3-2.8-3.3-1.5 0-2.8 1.5-2.8 3.3s1.2 3.3 2.8 3.3c1.6 0 2.8-1.5 2.8-3.3zm8.6 0c0-1.8-1.2-3.3-2.8-3.3-1.5 0-2.8 1.5-2.8 3.3s1.2 3.3 2.8 3.3c1.5 0 2.8-1.5 2.8-3.3zm8.5 0c0-1.8-1.2-3.3-2.8-3.3-1.5 0-2.8 1.5-2.8 3.3s1.2 3.3 2.8 3.3c1.5 0 2.8-1.5 2.8-3.3zm8.5 0c0-1.8-1.2-3.3-2.8-3.3-1.5 0-2.8 1.5-2.8 3.3s1.2 3.3 2.8 3.3c1.6 0 2.8-1.5 2.8-3.3zm8.5 0c0-1.8-1.2-3.3-2.8-3.3-1.5 0-2.8 1.5-2.8 3.3s1.2 3.3 2.8 3.3c1.6 0 2.8-1.5 2.8-3.3zm8.6 0c0-1.8-1.2-3.3-2.8-3.3-1.5 0-2.8 1.5-2.8 3.3s1.2 3.3 2.8 3.3c1.5 0 2.8-1.5 2.8-3.3zm8.5 0c0-1.8-1.2-3.3-2.8-3.3-1.5 0-2.8 1.5-2.8 3.3s1.2 3.3 2.8 3.3c1.5 0 2.8-1.5 2.8-3.3zm8.5 0c0-1.8-1.2-3.3-2.8-3.3s-2.8 1.5-2.8 3.3 1.2 3.3 2.8 3.3 2.8-1.5 2.8-3.3zm8.5 0c0-1.8-1.2-3.3-2.8-3.3-1.5 0-2.8 1.5-2.8 3.3s1.2 3.3 2.8 3.3c1.6 0 2.8-1.5 2.8-3.3zm8.5 0c0-1.8-1.2-3.3-2.8-3.3-1.5 0-2.8 1.5-2.8 3.3s1.2 3.3 2.8 3.3c1.6 0 2.8-1.5 2.8-3.3zm8.6 0c0-1.8-1.2-3.3-2.8-3.3-1.5 0-2.8 1.5-2.8 3.3s1.2 3.3 2.8 3.3c1.5 0 2.8-1.5 2.8-3.3zm8.5 0c0-1.8-1.2-3.3-2.8-3.3-1.5 0-2.8 1.5-2.8 3.3s1.2 3.3 2.8 3.3c1.6 0 2.8-1.5 2.8-3.3zM242.5 298c-3 0-5.5 2.5-5.5 5.5s2.5 5.5 5.5 5.5 5.5-2.5 5.5-5.5-2.5-5.5-5.5-5.5zm46.8-49.5c0-1.8-1.2-3.3-2.8-3.3-1.5 0-2.8 1.5-2.8 3.3s1.2 3.3 2.8 3.3c1.6 0 2.8-1.5 2.8-3.3zm8.5 0c0-1.8-1.2-3.3-2.8-3.3-1.5 0-2.8 1.5-2.8 3.3s1.2 3.3 2.8 3.3c1.6 0 2.8-1.5 2.8-3.3zm8.6 0c0-1.8-1.2-3.3-2.8-3.3-1.5 0-2.8 1.5-2.8 3.3s1.2 3.3 2.8 3.3c1.5 0 2.8-1.5 2.8-3.3zm8.5 0c0-1.8-1.2-3.3-2.8-3.3-1.5 0-2.8 1.5-2.8 3.3s1.2 3.3 2.8 3.3c1.5 0 2.8-1.5 2.8-3.3zm8.5 0c0-1.8-1.2-3.3-2.8-3.3-1.5 0-2.8 1.5-2.8 3.3s1.2 3.3 2.8 3.3c1.6 0 2.8-1.5 2.8-3.3zm8.5 0c0-1.8-1.2-3.3-2.8-3.3-1.5 0-2.8 1.5-2.8 3.3s1.2 3.3 2.8 3.3c1.6 0 2.8-1.5 2.8-3.3zm8.6 0c0-1.8-1.2-3.3-2.8-3.3-1.5 0-2.8 1.5-2.8 3.3s1.2 3.3 2.8 3.3c1.5 0 2.8-1.5 2.8-3.3zm8.5 0c0-1.8-1.2-3.3-2.8-3.3-1.5 0-2.8 1.5-2.8 3.3s1.2 3.3 2.8 3.3c1.5 0 2.8-1.5 2.8-3.3zm8.5 0c0-1.8-1.2-3.3-2.8-3.3-1.5 0-2.8 1.5-2.8 3.3s1.2 3.3 2.8 3.3c1.6 0 2.8-1.5 2.8-3.3zm8.5 0c0-1.8-1.2-3.3-2.8-3.3-1.5 0-2.8 1.5-2.8 3.3s1.2 3.3 2.8 3.3c1.6 0 2.8-1.5 2.8-3.3zm25.5-13.5c0-1.4-1.1-2.5-2.5-2.5h-11c-1.4 0-2.5 1.1-2.5 2.5v27c0 1.4 1.1 2.5 2.5 2.5h11c1.4 0 2.5-1.1 2.5-2.5v-27zm106.9.9-55.1 5.3c-.6.1-.6 1 0 1l33.9.7c3.8.1 7.6-.5 11.2-1.8l10.3-3.2c1.2-.4.9-2.1-.3-2zm-17.3-85.7L448 224.8c-.1.2-.1.3 0 .5s.2.2.4.2h23.2l19.5-78h-6c-1.6 0-3.2 1.1-4 2.7zM390.5 235v27c0 .8-.7 1.5-1.5 1.5h-11c-.8 0-1.5-.7-1.5-1.5v-27c0-.8.7-1.5 1.5-1.5h11c.8 0 1.5.7 1.5 1.5zm-4.5 15.5c0-1.4-1.1-2.5-2.5-2.5s-2.5 1.1-2.5 2.5 1.1 2.5 2.5 2.5 2.5-1.1 2.5-2.5zM93.5 235v27c0 .8-.7 1.5-1.5 1.5H81c-.8 0-1.5-.7-1.5-1.5v-27c0-.8.7-1.5 1.5-1.5h11c.8 0 1.5.7 1.5 1.5zM89 250.5c0-1.4-1.1-2.5-2.5-2.5s-2.5 1.1-2.5 2.5 1.1 2.5 2.5 2.5 2.5-1.1 2.5-2.5z" fill="#36434f"/></svg>