<svg version="1.1" xmlns="http://www.w3.org/2000/svg" x="0" y="0" viewBox="0 0 512 512" xml:space="preserve"><path d="M491.9 257c.9-.3.9-1.6 0-1.9-1.9-.6-4.7-1.4-8.1-2.4L512 163h-5.7c-7.7 0-15 3.7-19.5 10l-48.2 66.9c-18.2-4.8-35.7-8.8-43.1-8.8H278v-46l43.1-147.8c.6-2 2-3.7 3.8-4.8L340 24h-9.5c-12 0-23 6.7-28.4 17.3l-58.9 114.2c-4.5 8.6-9.2 17.2-14.1 25.5-10.9-.9-27.1-2.1-34-2.1-7.3 0-14.1 1.3-17.9 2.2h-.1c-.9.2-1.6.7-2.2 1.4-.1.2-.2.3-.3.5 0 0 0 .1-.1.2s-.1.3-.2.4c0 .1-.1.2-.1.3 0 .1-.1.2-.1.3 0 .2-.1.4-.1.7v15.8c0 .2 0 .5.1.7 0 .1.1.2.1.3 0 .1 0 .2.1.3.1.2.1.3.2.4 0 0 0 .1.1.2.1.2.2.3.3.5.5.7 1.3 1.2 2.2 1.4h.1c3.8.9 10.6 2.2 17.9 2.2 4 0 11-.4 18.3-.9-.5.8-1.1 1.6-1.6 2.4l-11.9 17.5-3.3 4.9H95.5C42.8 231 0 249.5 0 256s42.8 25 95.5 25h100.9l3.3 4.9 11.9 17.5c.6.8 1.1 1.6 1.6 2.4-7.2-.4-14.2-.8-18.2-.8-7.3 0-14.1 1.3-17.9 2.2-.9.2-1.7.7-2.2 1.4-.1.2-.2.3-.3.5 0 0 0 .1-.1.1-.1.1-.1.3-.2.4 0 .1-.1.2-.1.3 0 .1-.1.2-.1.3 0 .2-.1.4-.1.7v15.8c0 .2 0 .5.1.7 0 .1.1.2.1.3 0 .1 0 .2.1.3.1.2.1.3.2.4 0 .1 0 .1.1.2.1.2.2.3.3.5.5.7 1.3 1.2 2.2 1.4h.1c3.8.9 10.6 2.2 17.9 2.2 7 0 23.1-1.2 34-2.1 4.9 8.4 9.7 16.9 14.1 25.5l58.9 114.2c5.5 10.6 16.5 17.3 28.4 17.3h9.5l-15.1-8.4c-1.8-1-3.2-2.7-3.8-4.8L278 327v-46h117.5c7.4 0 24.8-4 43.1-8.8l48.2 66.9c4.5 6.3 11.8 10 19.5 10h5.7l-28.2-89.6c3.4-1.1 6.1-2 8.1-2.5z" fill="#36434f"/></svg>