<svg version="1.1" xmlns="http://www.w3.org/2000/svg" x="0" y="0" viewBox="0 0 512 512" xml:space="preserve"><path d="M256 0c130.7 0 172.9 79 172.5 144.5-.6 83.1-24.7 133.5-132.2 262.5h-5.8c91.9-129 112.5-179.4 113-262.5C403.9 79 367.8 0 256 0c89.1 0 117.8 79 117.4 144.5-.4 83.1-16.8 133.5-90 262.5h-10.5c45.2-129 55.4-179.4 55.6-262.5C328.7 79 310.9 0 256 0c20.8 0 27.6 79 27.5 144.5-.1 83.1-4 133.5-21.1 262.5h-12.8c-17.2-129-21-179.4-21.1-262.5C228.4 79 235.2 0 256 0c-54.9 0-72.7 79-72.6 144.5.3 83.1 10.4 133.5 55.6 262.5h-10.5c-73.2-129-89.6-179.4-90-262.5C138.2 79 166.9 0 256 0 144.2 0 108.1 79 108.5 144.5c.5 83.1 21.1 133.5 113 262.5h-5.8C108.1 278 84.1 227.6 83.5 144.5 83.1 79 125.3 0 256 0 110.1 0 63 79 63.5 144.5 64.1 227.6 91 278 211 407l12 32.9 18.5 28.2V483H240c-2.2 0-4 1.8-4 4v21c0 2.2 1.8 4 4 4h32c2.2 0 4-1.8 4-4v-21c0-2.2-1.8-4-4-4h-1.5v-14.9l18.5-28.2 12-32.9c120-129 146.9-179.4 147.5-262.5C449 79 401.9 0 256 0zm1.8 461h-3.7c0-.3-.1-.6-.1-.9 0-2 1.9-3.7 1.9-3.7s1.9 1.7 1.9 3.7c.1.3.1.6 0 .9zm-33.5-21.1h31.2v15.2c-.9 1-2.7 3.2-3.1 5.9h-.9c-1.1 0-2 .9-2 2v3c0 .6.3 1.1.7 1.5h-7.9l-18-27.6zm18.2 43.1v-14.5h27V483h-27zm27.2-15.5h-7.9c.4-.4.7-.9.7-1.5v-3c0-1.1-.9-2-2-2h-.9c-.4-2.7-2.2-5-3.1-5.9v-15.2h31.2l-18 27.6z" fill="#36434f"/></svg>