<svg version="1.1" xmlns="http://www.w3.org/2000/svg" x="0" y="0" viewBox="0 0 512 512" xml:space="preserve"><path d="M389 233.5h-11c-.8 0-1.5.7-1.5 1.5v27c0 .8.7 1.5 1.5 1.5h11c.8 0 1.5-.7 1.5-1.5v-27c0-.8-.7-1.5-1.5-1.5zm-5.5 19.5c-1.4 0-2.5-1.1-2.5-2.5s1.1-2.5 2.5-2.5 2.5 1.1 2.5 2.5-1.1 2.5-2.5 2.5zM227 283.7v14.6c0 1-.7 1.8-1.7 2l-29.1 4.9c-3.5.6-7 .9-10.5.9h-9.3c-6.9 0-13.7-1.1-20.2-3.3l-.8-.3c-.8-.3-1.4-1-1.4-1.9v-19.2c0-.9.6-1.6 1.4-1.9l.8-.3c6.5-2.2 13.4-3.3 20.2-3.3h9.3c3.5 0 7 .3 10.5.9l29.1 4.9c1 .2 1.7 1 1.7 2zm243.6-53.2l1-3.8h-22.9c-.6 0-1-.3-1.3-.7-.3-.4-.3-.9-.1-1.4l33.1-74.6c.9-2 2.8-3.3 5-3.3h6.2l1.9-7.7c.3-1.2-.5-2.4-1.8-2.5l-7.1-.4c-7.4-.5-14.6 2.6-19.5 8.2l-65.4 75.2c-3.2 3.6-7.7 5.6-12.5 5.5-10.4-.3-21.2-.4-32.2-.4H102.6c-24.8 0-50.4 5.4-67.1 16.8.6 0 1.1.1 1.7.1.4 0 .6.5.3.8l-6.5 7.2c-.2.2-.6.3-.9.3-1.3-.2-2.6-.4-3.8-.6l-.3.3c-12 10-26 12-26 21.5 0 8.5 18.3 12.9 46 14.9v3.1c0 1.1.9 2 2 2h1.4l3.1 6.1H52c-.6-.1-1.1.3-1.1.9-.1.6.3 1.1.9 1.1l1.7.1 1.1 2.2c-2.2.9-3.7 3.1-3.7 5.6 0 3.3 2.7 6 6 6s6-2.7 6-6c0-2.2-1.2-4.2-3-5.2v-2.1l2.9.2c.6.1 1.1-.3 1.1-.9.1-.6-.3-1.1-.9-1.1l-3.1-.2V291c1.1 0 2-.9 2-2v-2.2c12.4.5 26.1.7 40.5.7h50.5v-6.1c0-1.2.9-2.4 2.1-2.8l.8-.3c6.7-2.2 13.6-3.3 20.6-3.3h9.3c3.6 0 7.2.3 10.7.9l29.1 4.9c.7.1 1.3.5 1.8 1 .1.1.3.4.4.9.2.6.3 1.2.3 1.3v3.6h6l2.5 6.2c.3.7 1 1.2 1.8 1.2-3.1 1.5-5.3 4.8-5.3 8.5 0 5.2 4.3 9.5 9.5 9.5s9.5-4.3 9.5-9.5c0-3.7-2.2-6.9-5.3-8.5h2c.7 0 1.2-.7 1-1.3l-1.8-6.2h107c29.1 0 79.3-16.2 101.8-22.8S512 251.5 512 242c0-4.4-15.7-8.5-41.4-11.5zm-423.2 19c0 .5-.5 1-1 1h-2.3c-3.5 0-6.9-.1-10.1-.4-.4 0-.6-.5-.3-.8l6.8-7.4c.2-.2.5-.3.8-.3h5.1c.5 0 1 .4 1 1v6.9zm3 1c-.6 0-1.1-.4-1.1-1v-7c0-.5.5-1 1-1 .4-.1.8-.1 1.2-.1 1.2-.1 2.4.4 3.2 1.3l4.8 5.3c.6.6.2 1.6-.6 1.7-2.6.3-5.5.6-8.5.8zM60 307c0 1.7-1.3 3-3 3s-3-1.3-3-3 1.3-3 3-3 3 1.3 3 3zm34.5-45c0 1.4-1.1 2.5-2.5 2.5H81c-1.4 0-2.5-1.1-2.5-2.5v-27c0-1.4 1.1-2.5 2.5-2.5h11c1.4 0 2.5 1.1 2.5 2.5v27zm13-10.2c-1.6 0-2.8-1.5-2.8-3.3s1.2-3.3 2.8-3.3c1.6 0 2.8 1.5 2.8 3.3s-1.2 3.3-2.8 3.3zm8.5 0c-1.6 0-2.8-1.5-2.8-3.3s1.3-3.3 2.8-3.3c1.6 0 2.8 1.5 2.8 3.3s-1.2 3.3-2.8 3.3zm8.6 0c-1.6 0-2.8-1.5-2.8-3.3s1.3-3.3 2.8-3.3c1.6 0 2.8 1.5 2.8 3.3s-1.3 3.3-2.8 3.3zm8.5 0c-1.6 0-2.8-1.5-2.8-3.3s1.3-3.3 2.8-3.3c1.6 0 2.8 1.5 2.8 3.3s-1.3 3.3-2.8 3.3zm8.5 0c-1.6 0-2.8-1.5-2.8-3.3s1.3-3.3 2.8-3.3c1.6 0 2.8 1.5 2.8 3.3s-1.2 3.3-2.8 3.3zm8.5 0c-1.6 0-2.8-1.5-2.8-3.3s1.3-3.3 2.8-3.3c1.6 0 2.8 1.5 2.8 3.3s-1.2 3.3-2.8 3.3zm8.6 0c-1.6 0-2.8-1.5-2.8-3.3s1.3-3.3 2.8-3.3c1.6 0 2.8 1.5 2.8 3.3s-1.3 3.3-2.8 3.3zm8.5 0c-1.6 0-2.8-1.5-2.8-3.3s1.3-3.3 2.8-3.3c1.6 0 2.8 1.5 2.8 3.3s-1.3 3.3-2.8 3.3zm8.5 0c-1.6 0-2.8-1.5-2.8-3.3s1.3-3.3 2.8-3.3c1.6 0 2.8 1.5 2.8 3.3s-1.2 3.3-2.8 3.3zm8.5 0c-1.6 0-2.8-1.5-2.8-3.3s1.3-3.3 2.8-3.3c1.6 0 2.8 1.5 2.8 3.3s-1.2 3.3-2.8 3.3zm8.6 0c-1.6 0-2.8-1.5-2.8-3.3s1.3-3.3 2.8-3.3c1.6 0 2.8 1.5 2.8 3.3s-1.3 3.3-2.8 3.3zm8.5 0c-1.6 0-2.8-1.5-2.8-3.3s1.3-3.3 2.8-3.3c1.6 0 2.8 1.5 2.8 3.3s-1.3 3.3-2.8 3.3zm8.5 0c-1.6 0-2.8-1.5-2.8-3.3s1.3-3.3 2.8-3.3c1.6 0 2.8 1.5 2.8 3.3s-1.2 3.3-2.8 3.3zm8.5 0c-1.6 0-2.8-1.5-2.8-3.3s1.3-3.3 2.8-3.3c1.6 0 2.8 1.5 2.8 3.3s-1.2 3.3-2.8 3.3zm8.6 0c-1.6 0-2.8-1.5-2.8-3.3s1.3-3.3 2.8-3.3c1.6 0 2.8 1.5 2.8 3.3s-1.3 3.3-2.8 3.3zm8.5 0c-1.6 0-2.8-1.5-2.8-3.3s1.3-3.3 2.8-3.3c1.6 0 2.8 1.5 2.8 3.3s-1.3 3.3-2.8 3.3zm12.6 51.7c0 3-2.5 5.5-5.5 5.5s-5.5-2.5-5.5-5.5 2.5-5.5 5.5-5.5 5.5 2.5 5.5 5.5zm-4.1-51.7c-1.6 0-2.8-1.5-2.8-3.3s1.2-3.3 2.8-3.3c1.6 0 2.8 1.5 2.8 3.3s-1.2 3.3-2.8 3.3zm8.5 0c-1.6 0-2.8-1.5-2.8-3.3s1.3-3.3 2.8-3.3c1.6 0 2.8 1.5 2.8 3.3s-1.2 3.3-2.8 3.3zm8.5 0c-1.6 0-2.8-1.5-2.8-3.3s1.3-3.3 2.8-3.3c1.6 0 2.8 1.5 2.8 3.3s-1.2 3.3-2.8 3.3zm8.6 0c-1.6 0-2.8-1.5-2.8-3.3s1.3-3.3 2.8-3.3c1.6 0 2.8 1.5 2.8 3.3s-1.3 3.3-2.8 3.3zm8.5 0c-1.6 0-2.8-1.5-2.8-3.3s1.3-3.3 2.8-3.3c1.6 0 2.8 1.5 2.8 3.3s-1.2 3.3-2.8 3.3zm8.5 0c-1.6 0-2.8-1.5-2.8-3.3s1.3-3.3 2.8-3.3c1.6 0 2.8 1.5 2.8 3.3s-1.2 3.3-2.8 3.3zm8.5 0c-1.6 0-2.8-1.5-2.8-3.3s1.3-3.3 2.8-3.3c1.6 0 2.8 1.5 2.8 3.3s-1.2 3.3-2.8 3.3zm8.6 0c-1.6 0-2.8-1.5-2.8-3.3s1.3-3.3 2.8-3.3c1.6 0 2.8 1.5 2.8 3.3s-1.3 3.3-2.8 3.3zm8.5 0c-1.6 0-2.8-1.5-2.8-3.3s1.3-3.3 2.8-3.3c1.6 0 2.8 1.5 2.8 3.3s-1.3 3.3-2.8 3.3zm8.5 0c-1.6 0-2.8-1.5-2.8-3.3s1.3-3.3 2.8-3.3c1.6 0 2.8 1.5 2.8 3.3s-1.2 3.3-2.8 3.3zm8.5 0c-1.6 0-2.8-1.5-2.8-3.3s1.3-3.3 2.8-3.3c1.6 0 2.8 1.5 2.8 3.3s-1.2 3.3-2.8 3.3zm8.6 0c-1.6 0-2.8-1.5-2.8-3.3s1.3-3.3 2.8-3.3c1.6 0 2.8 1.5 2.8 3.3s-1.3 3.3-2.8 3.3zm8.5 0c-1.6 0-2.8-1.5-2.8-3.3s1.3-3.3 2.8-3.3c1.6 0 2.8 1.5 2.8 3.3s-1.3 3.3-2.8 3.3zm8.5 0c-1.6 0-2.8-1.5-2.8-3.3s1.3-3.3 2.8-3.3c1.6 0 2.8 1.5 2.8 3.3s-1.2 3.3-2.8 3.3zm8.5 0c-1.6 0-2.8-1.5-2.8-3.3s1.3-3.3 2.8-3.3c1.6 0 2.8 1.5 2.8 3.3s-1.2 3.3-2.8 3.3zm28.3 10.2c0 1.4-1.1 2.5-2.5 2.5h-11c-1.4 0-2.5-1.1-2.5-2.5v-27c0-1.4 1.1-2.5 2.5-2.5h11c1.4 0 2.5 1.1 2.5 2.5v27zm107.2-24.1l-10.3 3.2a30.6 30.6 0 0 1-11.2 1.8l-33.9-.7c-.6 0-.6-.9 0-1l55.1-5.3c1.2-.1 1.5 1.6.3 2zm-13.6-90.4h6l-19.5 78h-23.2c-.2 0-.3 0-.4-.2-.1-.2-.1-.3 0-.5l33.1-74.6c.8-1.6 2.4-2.7 4-2.7zM92 233.5H81c-.8 0-1.5.7-1.5 1.5v27c0 .8.7 1.5 1.5 1.5h11c.8 0 1.5-.7 1.5-1.5v-27c0-.8-.7-1.5-1.5-1.5zM86.5 253c-1.4 0-2.5-1.1-2.5-2.5s1.1-2.5 2.5-2.5 2.5 1.1 2.5 2.5-1.1 2.5-2.5 2.5z" fill="#36434f"/></svg>