<svg version="1.1" xmlns="http://www.w3.org/2000/svg" x="0" y="0" viewBox="0 0 512 512" xml:space="preserve"><path d="M158.9 199.3c-17.9 2.3-34.7 5-50.1 8.1l-7.6-5.4c-2.7-1.9-5.9-3-9.3-3H58.5c-3.6 0-6 3.6-4.6 6.9l5.6 13.5C21.8 230.9 0 244.2 0 256s21.8 25.1 59.4 36.6l-5.6 13.5c-1.4 3.3 1.1 6.9 4.6 6.9h33.4c3.3 0 6.6-1 9.3-3l7.6-5.4c15.4 3 32.2 5.8 50.1 8.1 30.4 3.9 61.2 6.4 91.3 7.6l6.5 14.7c.8 1.8 2.6 3 4.6 3h68.1c2.2 0 4.1-1.4 4.8-3.5l4.8-14.9C437.2 314.1 512 292 512 256c0-56.4-183.1-78.6-353.1-56.7zM296 330c0 1.1-.9 2-2 2h-6c-1.1 0-2-.9-2-2v-3c0-1.1.9-2 2-2h6c1.1 0 2 .9 2 2v3zm13 0c0 1.1-.9 2-2 2h-6c-1.1 0-2-.9-2-2v-3c0-1.1.9-2 2-2h6c1.1 0 2 .9 2 2v3zm13 0c0 1.1-.9 2-2 2h-6c-1.1 0-2-.9-2-2v-3c0-1.1.9-2 2-2h6c1.1 0 2 .9 2 2v3zm9.9 2H327c-1.1 0-2-.9-2-2v-3c0-1.1.9-2 2-2h6c.4 0 .8.1 1.1.3l-2.2 6.7z" fill="#36434f"/></svg>