<svg xmlns="http://www.w3.org/2000/svg" viewBox="0 0 512 512" xml:space="preserve"><path d="M439.9 279.2c-23.1 0-41.8 18.7-41.8 41.8 0 3.4.4 6.8 1.2 10 .1.5.3 1 .4 1.5 0 .1.1.2.1.3.1.5.3.9.4 1.4 0 .1.1.2.1.3.2.5.3.9.5 1.4 0 .1.1.1.1.2.8 2.1 1.8 4 2.9 5.9 0 .1.1.1.1.2.2.4.5.8.7 1.2.1.1.2.2.2.4.2.4.5.7.8 1.1.1.1.2.3.3.4.3.4.5.7.8 1.1.1.1.2.2.2.3.9 1.2 1.9 2.3 3 3.4l.2.2c.3.3.6.6.9.8.2.1.3.3.5.4.3.3.6.5.8.8.2.2.4.3.6.5.3.2.6.5.8.7.2.2.4.3.6.5.3.2.6.4.8.6.2.2.5.3.7.5.3.2.5.4.8.6l1.5.9c.2.1.5.3.7.4.3.2.6.4.9.5.3.1.5.3.8.4.3.2.6.3.9.5.3.1.5.3.8.4.3.1.6.3 1 .4.3.1.5.2.8.3.3.1.7.3 1 .4.2.1.5.2.7.3.4.2.9.3 1.3.4.2.1.3.1.5.2.6.2 1.2.4 1.8.5.2.1.4.1.6.1.4.1.9.2 1.3.3.2.1.5.1.7.1.4.1.8.2 1.2.2.3 0 .5.1.8.1.4.1.8.1 1.2.2.2 0 .5.1.7.1.4 0 .9.1 1.3.1h.6c.7 0 1.3.1 2 .1s1.3 0 2-.1h.6c.4 0 .9-.1 1.3-.1.3 0 .5-.1.7-.1.4 0 .8-.1 1.2-.2.3 0 .5-.1.8-.1.4-.1.8-.1 1.2-.2.2 0 .5-.1.7-.1.4-.1.9-.2 1.3-.3.2 0 .4-.1.6-.1.6-.2 1.2-.3 1.8-.5.2 0 .3-.1.5-.2.4-.1.9-.3 1.3-.4.2-.1.5-.2.7-.3.4-.1.7-.3 1-.4.3-.1.5-.2.8-.3.3-.1.6-.3 1-.4.3-.1.5-.2.8-.4.3-.2.6-.3.9-.5.3-.1.5-.3.8-.4.3-.2.6-.3.9-.5.2-.1.5-.3.7-.4l1.5-.9c.3-.2.5-.4.8-.6.2-.2.5-.3.7-.5.3-.2.6-.4.8-.6.2-.2.4-.3.6-.5.3-.2.6-.5.8-.7.2-.2.4-.3.6-.5.3-.2.6-.5.8-.8.2-.1.3-.3.5-.4.3-.3.6-.6.9-.8l.2-.2c1.1-1.1 2.1-2.2 3-3.4.1-.1.2-.2.2-.3.3-.4.5-.7.8-1.1.1-.1.2-.3.3-.4.3-.4.5-.7.8-1.1.1-.1.2-.2.2-.4.3-.4.5-.8.7-1.2 0-.1.1-.1.1-.2 1.1-1.9 2.1-3.9 2.9-5.9 0-.1.1-.1.1-.2.2-.5.3-.9.5-1.4 0-.1.1-.2.1-.3.2-.5.3-.9.4-1.4 0-.1.1-.2.1-.3.1-.5.3-1 .4-1.5.8-3.2 1.2-6.5 1.2-10 .5-23.1-18.2-41.8-41.4-41.8zM409.7 331h9.6l-7.8 4.5c-.7-1.5-1.3-2.9-1.8-4.5zm3.5 7.4L426 331h6.3l-9.7 16.7c-3.7-2.4-6.9-5.6-9.4-9.3zm25.1 14.4c-4.6-.2-8.9-1.5-12.8-3.4l10.6-18.4h2.2v21.8zm3.3 0V331h2.2l10.6 18.4c-3.9 2-8.2 3.2-12.8 3.4zm15.7-5.1-9.7-16.7h6.3l12.7 7.4c-2.4 3.7-5.6 6.9-9.3 9.3zm11-12.2-7.8-4.5h9.6c-.4 1.6-1 3-1.8 4.5zm-170.4-56.3c-11.8 0-22.5 4.9-30.1 12.8-2.4 2.5-4.5 5.2-6.2 8.3v.1c-1.3 2.2-2.3 4.6-3.2 7.1v.1c-.3.8-.5 1.6-.8 2.5-1 3.5-1.5 7.2-1.5 11 0 3.4.4 6.8 1.2 10 .1.5.3 1 .4 1.5 0 .1.1.2.1.3.1.5.3.9.4 1.4 0 .1.1.2.1.3.2.5.3.9.5 1.4 0 .1.1.1.1.2.8 2.1 1.8 4 2.9 5.9 0 .1.1.1.1.2.2.4.5.8.7 1.2.1.1.2.2.2.4.2.4.5.7.8 1.1.1.1.2.3.3.4.3.4.5.7.8 1.1.1.1.2.2.2.3.9 1.2 1.9 2.3 3 3.4l.2.2c.3.3.6.6.9.8.2.1.3.3.5.4.3.3.6.5.8.8.2.2.4.3.6.5.3.2.6.5.8.7.2.2.4.3.6.5.3.2.6.4.8.6.2.2.5.3.7.5.3.2.5.4.8.6l1.5.9c.2.1.5.3.7.4.3.2.6.4.9.5.3.1.5.3.8.4.3.2.6.3.9.5.3.1.5.3.8.4.3.1.6.3 1 .4.3.1.5.2.8.3.3.1.7.3 1 .4.2.1.5.2.7.3.4.2.9.3 1.3.4.2.1.3.1.5.2.6.2 1.2.4 1.8.5.2.1.4.1.6.1.4.1.9.2 1.3.3.2.1.5.1.7.1.4.1.8.2 1.2.2.3 0 .5.1.8.1.4.1.8.1 1.2.2.2 0 .5.1.7.1.4 0 .9.1 1.3.1h.6c.7 0 1.3.1 2 .1s1.3 0 2-.1h.6c.4 0 .9-.1 1.3-.1.3 0 .5-.1.7-.1.4 0 .8-.1 1.2-.2.3 0 .5-.1.8-.1.4-.1.8-.1 1.2-.2.2 0 .5-.1.7-.1.4-.1.9-.2 1.3-.3.2 0 .4-.1.6-.1.6-.2 1.2-.3 1.8-.5.2 0 .3-.1.5-.2.4-.1.9-.3 1.3-.4.2-.1.5-.2.7-.3.4-.1.7-.3 1-.4.3-.1.5-.2.8-.3.3-.1.6-.3 1-.4.3-.1.5-.2.8-.4.3-.2.6-.3.9-.5.3-.1.5-.3.8-.4.3-.2.6-.3.9-.5.2-.1.5-.3.7-.4l1.5-.9c.3-.2.5-.4.8-.6.2-.2.5-.3.7-.5.3-.2.6-.4.8-.6.2-.2.4-.3.6-.5.3-.2.6-.5.8-.7.2-.2.4-.3.6-.5.3-.2.6-.5.8-.8.2-.1.3-.3.5-.4.3-.3.6-.6.9-.8l.2-.2c1.1-1.1 2.1-2.2 3-3.4.1-.1.2-.2.2-.3.3-.4.5-.7.8-1.1.1-.1.2-.3.3-.4.3-.4.5-.7.8-1.1.1-.1.2-.2.2-.4.3-.4.5-.8.7-1.2 0-.1.1-.1.1-.2 1.1-1.9 2.1-3.9 2.9-5.9 0-.1.1-.1.1-.2.2-.5.3-.9.5-1.4 0-.1.1-.2.1-.3.2-.5.3-.9.4-1.4 0-.1.1-.2.1-.3.1-.5.3-1 .4-1.5.8-3.2 1.2-6.5 1.2-10 0-3.8-.5-7.5-1.5-11-.2-.8-.4-1.5-.7-2.2 0-.1-.1-.2-.1-.2-.2-.7-.5-1.3-.7-1.9 0-.1-.1-.2-.1-.4-.3-.6-.5-1.2-.8-1.8 0-.1-.1-.2-.1-.3-.3-.7-.7-1.4-1.1-2.1-6.6-13.2-20.4-22-36.3-22zm-17.3 15.1 9.1 15.7h-7.5l-11-6.3c2.4-3.8 5.6-7 9.4-9.4zm-11.1 12.2 6 3.5H268c.5-1.2 1-2.3 1.5-3.5zm-1.8 24.5h9.6l-7.8 4.5c-.7-1.5-1.3-2.9-1.8-4.5zm3.5 7.4L284 331h6.3l-9.7 16.7c-3.7-2.4-6.9-5.6-9.4-9.3zm25.1 14.4c-4.6-.2-8.9-1.5-12.8-3.4l10.6-18.4h2.2v21.8zm0-42.8h-2.8l-10-17.4c.4-.2.8-.4 1.3-.6h7.8c1.2 0 2.5.1 3.7.2V310zm19-12.6c2 .8 4.1 1.5 6.2 2 1.2 1.3 2.3 2.7 3.2 4.2l-11 6.3h-7.5l7.6-13.2 1.5.7zm-15.7-4.9c3.8.6 7.5 1.6 11.1 3l-8.3 14.4h-2.8v-17.4zm0 60.3V331h2.2l10.6 18.4c-3.9 2-8.2 3.2-12.8 3.4zm15.7-5.1-9.7-16.7h6.3l12.7 7.4c-2.4 3.7-5.6 6.9-9.3 9.3zm11-12.2-7.8-4.5h9.6c-.4 1.6-1 3-1.8 4.5zm-6-25.5 6-3.5c.6 1.1 1.1 2.3 1.5 3.5h-7.5zM387 171v9h7v31h-7.3v-.3c0-2.6-1-5.1-2.9-6.9l-1-1c-1.8-1.8-2.9-4.3-2.9-6.9v-13.8c0-1.5.4-3 1-4.4l2.4-4.7c.4-.8-.2-1.8-1.1-1.8h-2.3c-.3-7.8-7.2-14.1-15.9-14.6v-2.3c2.2-.5 3.8-2.5 3.8-4.8v-2H364V145h3.9v-15c0-1.1-.9-2-2-2h-6c-1.1 0-2 .9-2 2v15h3.6v2.5h-3.8v2c0 2.3 1.6 4.3 3.8 4.8v2.3c-8.7.5-15.5 6.8-15.9 14.6h-2.3c-.9 0-1.5 1-1.1 1.8l2.4 4.7c.7 1.4 1 2.9 1 4.4v13.8c0 2.6-1 5.1-2.9 6.9l-1 1c-1.8 1.8-2.9 4.3-2.9 6.9v.3h-5.6c-6.2 0-12.4 1.2-18.2 3.6l-4.5 1.9c-5.8 2.4-11.9 3.6-18.2 3.6H280v-.7c0-2.1-.8-4.2-2.3-5.7l-.8-.8c-1.5-1.5-2.3-3.5-2.3-5.7v-11.3c0-1.2.3-2.5.8-3.6l1.9-3.9c.3-.7-.2-1.4-.9-1.4h-1.9c-.3-6.4-5.9-11.5-13-12v-2.3c.6-.3 1-1 1-1.7v-3c0-1.1-.9-2-2-2s-2 .9-2 2v3c0 .7.4 1.4 1 1.7v2.3c-7.1.4-12.7 5.6-13 12h-1.9c-.7 0-1.2.8-.9 1.4l1.9 3.9c.6 1.1.8 2.3.8 3.6v11.3c0 2.1-.8 4.2-2.3 5.7l-.8.8c-1.5 1.5-2.3 3.5-2.3 5.7v.7h-77c-.3 0-7-.1-7-5 0-2.8 3.1-5 5.9-7 .3-.2.5-.4.8-.6l-.1.1-.1.1-.8.9-1.1 1.3-.5.6c-.1.1-.2.2-.2.3-.1.2-.2.5-.2.8v2.8c0 .4.4.8.8.8h9.3c.2 1.1 1.2 1.9 2.3 1.9 1.1 0 2.1-.8 2.3-1.9h9.3c.4 0 .8-.4.8-.8v-2.8c0-.3-.1-.5-.2-.8-.1-.1-.1-.2-.2-.3l-.5-.6-1.1-1.3-.8-.9-.1-.1c-.3-.4-.7-.8-1-1.3-.1-.1-.1-.2-.2-.3-.9-1.4-1.5-2.9-1.8-4.4l-1.2-5.8c-.1-.6-.5-1-1.1-1.2l-1.9-.6-.5-4.2c-.1-.4-.4-.7-.8-.7H172c-.4 0-.8.3-.8.7l-.1.4c-2.6.3-7.1 1.3-7.1 4.9 0 2.3.6 3.2 1.2 4.1.5.7.8 1.2.8 2.9 0 1.3-2.2 2.8-4.3 4.3-3.2 2.3-6.7 4.8-6.7 8.7 0 2.3 1 3.9 2.5 5H125v-10.3c0-1.1-.4-2.1-1.2-2.8l-2.8-3v-78.8c0-1.1.4-2.1 1.2-2.8l.2-.2c.8-.8 1.2-1.8 1.2-2.8v-2.7c0-1.1-.4-2.1-1.2-2.8l-.2-.2c-.8-.8-1.2-1.8-1.2-2.8V109c0-2.2-1.8-4-4-4h-15c-2.2 0-4 1.8-4 4v1.8c0 1.1-.4 2.1-1.2 2.8l-.2.2c-.8.8-1.2 1.8-1.2 2.8v2.7c0 1.1.4 2.1 1.2 2.8l.2.2c.8.8 1.2 1.8 1.2 2.8V204l-2.8 2.8c-.8.8-1.2 1.8-1.2 2.8V220H84v-36c0-2.2-1.8-4-4-4H57c-2.2 0-4 1.8-4 4v36h-3c-11 0-20 16.1-20 36s9 36 20 36h3v6H16c-8.8 0-16 7.2-16 16v14c0 3.8 1.3 7.2 3.5 10-.3 1.6-.5 3.3-.5 5h2.4c0-1 .1-1.9.2-2.8.4.4.9.7 1.4 1.1 0 .6-.1 1.2-.1 1.7 0 11.4 9.2 20.6 20.6 20.6 11 0 20-8.6 20.5-19.5h78.1c.5 10.9 9.5 19.5 20.5 19.5s20-8.6 20.5-19.5h3.9c7.8 0 14.3-5.6 15.7-13h66.5c-.7-3.2-1.1-6.6-1.1-10 0-25.3 20.6-45.8 45.8-45.8 25.3 0 45.8 20.6 45.8 45.8 0 3.4-.4 6.8-1.1 10h52.5c-.7-3.2-1.1-6.6-1.1-10 0-25.3 20.6-45.8 45.8-45.8 25.3 0 45.8 20.6 45.8 45.8 0 3.4-.4 6.8-1.1 10H505v-151h7v-9H387zm-214 21c.6 0 1-.4 1-1v-.1c.1.2.2.3.2.5 0 .6-.5 1-1 1-.3 0-.6-.2-.8-.4h.6zm-2.1.2-.2 1.7-1.9.6c-.6.2-1 .7-1.1 1.2l-.6 2.8c-.1-.2-.2-.4-.4-.6-.5-.7-.8-1.2-.8-2.9.1-1.8 2.8-2.5 5-2.8zM83 298H63v-6h20v6zm30 0H93v-6h20v6zm30 0h-20v-6h20v6zm30 .1c-.7-.1-1.3-.1-2-.1h-18v-6h20v6.1zm30 11.9h-16.5c-.6-2.5-1.8-4.7-3.5-6.6V292h20v18zm30 0h-20v-18h20v18zm15.6 0H243v-18h13.6c-3.8 5.3-6.5 11.4-8 18zm191.9-65h-36v-47c0-5 8.1-9 18-9s18 4 18 9v47zm54 0h-36v-47c0-5 8.1-9 18-9s18 4 18 9v47z" fill="#36434f"/></svg>