<svg xmlns="http://www.w3.org/2000/svg" viewBox="0 0 512 512" xml:space="preserve"><path d="M313.4 359.8c-9.7 8.2-22.2 13.2-35.9 13.2-.9 0-1.9 0-2.8-.1l7.7-366.4c.1-4.5-4.5-7.7-8.7-6.1l-7.9 3.1c-22.3 8.7-36.7 30.4-36.1 54.3l8.7 315c-1.3.1-2.6.1-3.9.1-13.7 0-26.2-5-35.9-13.2-1.4-1.2-3.5-.1-3.3 1.7l1.6 14.6c.2 1.6 1.2 2.9 2.7 3.4 13.8 4.4 28.6 7.4 44.2 8.7l.3 5.5 4.5 73.3.4 6.3c-7.6 2.8-13 10.1-13 18.7 0 11 9 20 20 20s20-9 20-20c0-8.6-5.4-15.9-13-18.7l.4-6.3 4.5-73.3.3-5.5c15.5-1.3 30.4-4.3 44.2-8.7 1.5-.5 2.6-1.8 2.7-3.4l1.6-14.6c.2-1.7-1.9-2.8-3.3-1.6z" fill="#36434f"/></svg>