<svg xmlns="http://www.w3.org/2000/svg" viewBox="0 0 512 512" xml:space="preserve"><path d="m504.3 248.1-97.6-20.2c-3.5-.7-7.2-.8-10.8-.1l-5.7 1.1c-3.2.6-6.5.4-9.6-.7l-15.3-5.3h-.3v-12.1c.2 0 .3.1.5.1 1.9 0 3.5-1.6 3.5-3.5s-1.6-3.5-3.5-3.5c-.2 0-.3 0-.5.1v-3.1c0-2.2-1.8-4-4-4h-5.4l-3-7.5c-1-2.1-3.1-3.5-5.5-3.5h-27.3c-2.4 0-4.5 1.4-5.5 3.5l-3 7.5H264c0-1.1-.9-2-2-2v-2c1.1 0 2-.9 2-2v-2c0-1.1-.9-2-2-2h-6c-1.1 0-2 .9-2 2v2c0 1.1.9 2 2 2v2c-1.1 0-2 .9-2 2h-48c-1.1 0-2 .9-2 2v6h-31v-6c0-1.1-.9-2-2-2h-21l-3.3.1h-.2l-3.8.1h-.3l-3.7.1h-.4l-3.5.1h-.5l-3.5.1h-.6l-3.3.1h-.8l-3.2.1h-.8l-3.1.1h-.9l-3 .1H114l-2.9.1h-1.2l-2.8.1h-1.3l-2.7.1h-1.4l-2.5.1h-1.5l-2.4.1h-9.8l-6.1.1h-.1l-4 .1h-.2l-3.9.1h-.3l-3.8.1h-.4l-3.6.1h-.5l-3.5.1h-.7l-43.4.8V195c0-.7-.2-1.5-.6-2.1l-2.7-4.3c-.8-1.3-2.6-1.3-3.4 0l-2.7 4.3c-.4.6-.6 1.4-.6 2.1v.9H2c-1.1 0-2 .9-2 2v13c0 1.1.9 2 2 2h5c1.1 0 2-.9 2-2v-2h17v10.4c0 4.3 3.4 7.8 7.6 8l107.4 5.2c4.9.2 8.9-3.6 8.9-8.5v-1h30c2.2 0 4 1.8 4 4v83c0 1.1.9 2 2 2h24c1.1 0 2-.9 2-2v-53h35.4c2.3 0 4.6 2 6.1 3.8 2.7 3.2 6.9 8.2 7.6 10.2.7 2.1.4 7.1.2 10-.1 1.3.4 2.6 1.4 3.4 1.7 1.5 4.4 3.7 5.4 4.7s1.1 6.8 1.1 10.3c0 1.3 1.3 2.3 2.6 1.9 4.8-1.4 14.9-4.8 19.4-9.3 6-6 7-12 7-16s-1-6-5-12c-2.1-3.1-5.5-6.7-8.3-9.5-3-3-4.7-7.1-4.7-11.3v-6.1c0-.7.2-1.4.5-2v-.1l3.4-6h22.3v7.7c0 5.9 4.3 10.9 10.1 11.9l49.8 7.3c4.7.7 9.1 2.3 13.2 4.7l112.8 64.8c4.3 2.4 9.7.6 11.5-4l2.8-7c2.5-6.2 3.9-12.8 4.1-19.4l1.3-36.8c.3-5-3-9.1-7.6-10.1zM241 246.8c0 4.4-3.6 8-8 8h-16c-2.2 0-4-1.8-4-4v-9c0-4.4 3.6-8 8-8h4.3c3 1.9 5.1 5 5.6 8.6.4 2.9-.1 5.6-1.4 7.9-.5.9.7 1.7 1.4 1 2.8-2.6 4.4-6.3 4.1-10.4.8-1.9 2.2-3.5 3.9-4.6 1.3 1.4 2.2 3.4 2.2 5.5v5z" fill="#36434f"/></svg>