<svg version="1.1" xmlns="http://www.w3.org/2000/svg" x="0" y="0" viewBox="0 0 512 512" xml:space="preserve"><path d="M512 167v185h-78v-6H78v6H0V167h36.5v-4h5v4H78v8h22.8v-10h5v10h12v-4h5v4h37v-10h5v10h27.5v-4h5v4h10.5v-10h5v10h37v-4h5v4h13v-4h5v4h37v-10h5v10h11.5v-4h5v4h26.5v-10h5v10h16v-4h5v4h34v-4h5v4H434v-8h36.5v-4h5v4H512zm-406.2-5h-5v2h5v-2zm59 0h-5v2h5v-2zm48 0h-5v2h5v-2zm102 0h-5v2h5v-2zm48 0h-5v2h5v-2zm-240 6h-5v2h5v-2zm74.5 0h-5v2h5v-2zm57.5 0h-5v2h5v-2zm18 0h-5v2h5v-2zm58.5 0h-5v2h5v-2zm52.5 0h-5v2h5v-2zm39 0h-5v2h5v-2zm-381.3-8h-5v2h5v-2zm434 0h-5v2h5v-2z" opacity=".1" fill="#fff"/><path d="M197.3 170h-5v-2h5v2zm-32.5-8h-5v2h5v-2zm48 0h-5v2h5v-2zm42 6h-5v2h5v-2zm-132 0h-5v2h5v-2zm-81.3-8h-5v2h5v-2zm64.3 2h-5v2h5v-2zm209 0h-5v2h5v-2zm69 6h-5v2h5v-2zm91.7-8h-5v2h5v-2zm-52.7 8h-5v2h5v-2zm-150 0h-5v2h5v-2zm239.2-1v185h-78v-6h-69.3v-15h-9v15h-5.5v-15h-27v15h-48.5v-15h-9v15h-51v-15h-9v15h-5.5v-15h-27v15h-65.5v-15h-9v15H78v6H0V167h36.5v-4h5v4H78v8h22.8v-10h5v10h12v-4h5v4h37v-10h5v10h27.5v-4h5v4h10.5v-10h5v10h37v-4h5v4h13v-4h5v4h37v-10h5v10h11.5v-4h5v4h26.5v-10h5v10h16v-4h5v4h34v-4h5v4H434v-8h36.5v-4h5v4H512zM91.8 319h-6v4h6v-4zm0-15h-6v4h6v-4zm0-15h-6v4h6v-4zm0-15h-6v4h6v-4zm0-15h-6v4h6v-4zm0-15h-6v4h6v-4zm0-15h-6v4h6v-4zm0-15h-6v4h6v-4zm0-15h-6v4h6v-4zm20.5 111h-18v9h18v-9zm0-15h-18v9h18v-9zm0-15h-18v9h18v-9zm0-15h-18v9h18v-9zm0-15h-18v9h18v-9zm0-15h-18v9h18v-9zm0-15h-18v9h18v-9zm0-15h-18v9h18v-9zm0-15h-18v9h18v-9zm11 137h-6v8h6v-8zm0-15h-6v8h6v-8zm0-15h-6v8h6v-8zm0-15h-6v8h6v-8zm0-15h-6v8h6v-8zm0-15h-6v8h6v-8zm0-15h-6v8h6v-8zm0-15h-6v8h6v-8zm0-15h-6v8h6v-8zm0-15h-6v8h6v-8zm24 135h-12v8h12v-8zm7-17h-26v9h26v-9zm0-15h-26v9h26v-9zm0-15h-26v9h26v-9zm0-15h-26v9h26v-9zm0-15h-26v9h26v-9zm0-15h-26v9h26v-9zm0-15h-26v9h26v-9zm0-15h-26v9h26v-9zm0-15h-26v9h26v-9zm11 137h-6v8h6v-8zm0-15h-6v8h6v-8zm0-15h-6v8h6v-8zm0-15h-6v8h6v-8zm0-15h-6v8h6v-8zm0-15h-6v8h6v-8zm0-15h-6v8h6v-8zm0-15h-6v8h6v-8zm0-15h-6v8h6v-8zm0-15h-6v8h6v-8zm16.5 127h-6v4h6v-4zm0-15h-6v4h6v-4zm0-15h-6v4h6v-4zm0-15h-6v4h6v-4zm0-15h-6v4h6v-4zm0-15h-6v4h6v-4zm0-15h-6v4h6v-4zm0-15h-6v4h6v-4zm0-15h-6v4h6v-4zm16 120h-6v4h6v-4zm0-15h-6v4h6v-4zm0-15h-6v4h6v-4zm0-15h-6v4h6v-4zm0-15h-6v4h6v-4zm0-15h-6v4h6v-4zm0-15h-6v4h6v-4zm0-15h-6v4h6v-4zm0-15h-6v4h6v-4zm15.5 113h-6v8h6v-8zm0-15h-6v8h6v-8zm0-15h-6v8h6v-8zm0-15h-6v8h6v-8zm0-15h-6v8h6v-8zm0-15h-6v8h6v-8zm0-15h-6v8h6v-8zm0-15h-6v8h6v-8zm0-15h-6v8h6v-8zm24 135h-12v8h12v-8zm7-17h-26v9h26v-9zm0-15h-26v9h26v-9zm0-15h-26v9h26v-9zm0-15h-26v9h26v-9zm0-15h-26v9h26v-9zm0-15h-26v9h26v-9zm0-15h-26v9h26v-9zm0-15h-26v9h26v-9zm0-15h-26v9h26v-9zm11 137h-6v8h6v-8zm0-15h-6v8h6v-8zm0-15h-6v8h6v-8zm0-15h-6v8h6v-8zm0-15h-6v8h6v-8zm0-15h-6v8h6v-8zm0-15h-6v8h6v-8zm0-15h-6v8h6v-8zm0-15h-6v8h6v-8zm0-15h-6v8h6v-8zm18 120h-6v8h6v-8zm0-15h-6v8h6v-8zm0-15h-6v8h6v-8zm0-15h-6v8h6v-8zm0-15h-6v8h6v-8zm0-15h-6v8h6v-8zm0-15h-6v8h6v-8zm0-15h-6v8h6v-8zm0-15h-6v8h6v-8zm24 135h-12v8h12v-8zm7-17h-26v9h26v-9zm0-15h-26v9h26v-9zm0-15h-26v9h26v-9zm0-15h-26v9h26v-9zm0-15h-26v9h26v-9zm0-15h-26v9h26v-9zm0-15h-26v9h26v-9zm0-15h-26v9h26v-9zm0-15h-26v9h26v-9zm11 137h-6v8h6v-8zm0-15h-6v8h6v-8zm0-15h-6v8h6v-8zm0-15h-6v8h6v-8zm0-15h-6v8h6v-8zm0-15h-6v8h6v-8zm0-15h-6v8h6v-8zm0-15h-6v8h6v-8zm0-15h-6v8h6v-8zm0-15h-6v8h6v-8zm16.5 127h-6v4h6v-4zm0-15h-6v4h6v-4zm0-15h-6v4h6v-4zm0-15h-6v4h6v-4zm0-15h-6v4h6v-4zm0-15h-6v4h6v-4zm0-15h-6v4h6v-4zm0-15h-6v4h6v-4zm0-15h-6v4h6v-4zm16 120h-6v4h6v-4zm0-15h-6v4h6v-4zm0-15h-6v4h6v-4zm0-15h-6v4h6v-4zm0-15h-6v4h6v-4zm0-15h-6v4h6v-4zm0-15h-6v4h6v-4zm0-15h-6v4h6v-4zm0-15h-6v4h6v-4zm15.5 113h-6v8h6v-8zm0-15h-6v8h6v-8zm0-15h-6v8h6v-8zm0-15h-6v8h6v-8zm0-15h-6v8h6v-8zm0-15h-6v8h6v-8zm0-15h-6v8h6v-8zm0-15h-6v8h6v-8zm0-15h-6v8h6v-8zm24 135h-12v8h12v-8zm7-17h-26v9h26v-9zm0-15h-26v9h26v-9zm0-15h-26v9h26v-9zm0-15h-26v9h26v-9zm0-15h-26v9h26v-9zm0-15h-26v9h26v-9zm0-15h-26v9h26v-9zm0-15h-26v9h26v-9zm0-15h-26v9h26v-9zm11 137h-6v8h6v-8zm0-15h-6v8h6v-8zm0-15h-6v8h6v-8zm0-15h-6v8h6v-8zm0-15h-6v8h6v-8zm0-15h-6v8h6v-8zm0-15h-6v8h6v-8zm0-15h-6v8h6v-8zm0-15h-6v8h6v-8zm0-15h-6v8h6v-8zm21 135h-12v8h12v-8zm0-15h-12v8h12v-8zm0-15h-12v8h12v-8zm0-15h-12v8h12v-8zm0-15h-12v8h12v-8zm0-15h-12v8h12v-8zm0-15h-12v8h12v-8zm0-15h-12v8h12v-8zm0-15h-12v8h12v-8zm0-15h-12v8h12v-8zm-63.5-30h-5v2h5v-2zm-31.5 6h-5v2h5v-2z" fill="#fff"/></svg>