<svg xmlns="http://www.w3.org/2000/svg" viewBox="0 0 512 512" xml:space="preserve"><path opacity=".1" fill="#fff" d="m497.8 316.2-237-310L256 0l-4.8 6.2-237 310-2.8 3.7H19l76.5 13.8V512h321V333.7l76.5-13.8h7.6z"/><path d="M163 512h186V360H163v152zm130.5-139.7H334v127.5h-40.5V372.3zm-60 0h45v127.5h-45V372.3zm-55.5 0h40.5v127.5H178V372.3zM252.5 237h-41v-39h41v39zm0-42h-41v-42.4h41V195zm245.3 121.2-237-310L256 0l-4.8 6.2-237 310-2.8 3.6H19l76.5 13.8V512H153v-8h-47.5v-2H153v-6h-47.5v-2H153v-6h-47.5v-2H153v-6h-47.5v-2H153v-6h-47.5v-2H153v-6h-47.5v-2H153v-6h-47.5v-2H153v-6h-47.5v-2H153v-6h-47.5v-2H153v-6h-47.5v-2H153v-6h-47.5v-2H153v-6h-47.5v-2H153v-6h-47.5v-2H153v-6h-47.5v-2H153v-6h-47.5v-2H153v-6h-47.5v-2H153v-6h-47.5v-2H153v-6h-47.5v-2H153v-6h-47.5v-2H153v-6h-47.5v-2h301v2H359v6h47.5v2H359v6h47.5v2H359v6h47.5v2H359v6h47.5v2H359v6h47.5v2H359v6h47.5v2H359v6h47.5v2H359v6h47.5v2H359v6h47.5v2H359v6h47.5v2H359v6h47.5v2H359v6h47.5v2H359v6h47.5v2H359v6h47.5v2H359v6h47.5v2H359v6h47.5v2H359v6h47.5v2H359v6h47.5v2H359v6h47.5v2H359v8h57.5V333.7l76.5-13.8h7.6l-2.8-3.7zM204.5 237v-91h103v97h-103v-6zm202 107h-301v-2h301v2zm0-8h-301v-2h301v2zm0-8h-301v-2h301v2zm-147-91v-39h41v39h-41zm41-42h-41v-42.4h41V195z" fill="#fff"/></svg>