<svg version="1.1" xmlns="http://www.w3.org/2000/svg" x="0" y="0" viewBox="0 0 512 512" xml:space="preserve"><path d="M499.4 102.2c-19.6-4.1-38.8-9.7-57.6-16.7L384 63.7c-17.1-6.4-32.6-16.4-45.6-29.3L332 28h-15.8c-1.5 4.4-3.8 8.5-6.9 12.1L256 102l-53.3-61.9c-3.1-3.6-5.4-7.7-6.9-12.1H180l-6.4 6.4c-12.9 12.9-28.5 22.9-45.6 29.3L70.1 85.4c-18.7 7-38 12.6-57.6 16.7-4.6 1-7.4 5.7-6 10.2L48 246.1c10.7 34.5 17.7 70 20.9 106L83 512h346l14.2-159.9c3.2-36 10.2-71.5 20.9-106l41.4-133.7c1.3-4.5-1.5-9.2-6.1-10.2z" opacity=".1" fill="#fff"/><path d="M231.8 436.1c0 .4-.4.8-.8.8-.5 0-.8-.4-.8-.8s.4-.8.8-.8.8.4.8.8zm89.2 2.1c-.4 0-.8.4-.8.8s.3.8.8.8c.4 0 .8-.4.8-.8s-.4-.8-.8-.8zm-93-2.9c-.4 0-.8.4-.8.8s.3.8.8.8.8-.4.8-.8-.4-.8-.8-.8zm0 2.9c-.4 0-.8.4-.8.8s.3.8.8.8.8-.4.8-.8-.4-.8-.8-.8zm3 0c-.4 0-.8.4-.8.8s.3.8.8.8c.4 0 .8-.4.8-.8s-.4-.8-.8-.8zm87-2.9c-.4 0-.8.4-.8.8s.3.8.8.8.8-.4.8-.8-.4-.8-.8-.8zm187.5-322.9-41.4 133.7c-10.7 34.5-17.7 70-20.9 106L429 512H83L68.9 352.1c-3.2-36-10.2-71.5-20.9-106L6.5 112.3c-1.4-4.5 1.4-9.2 6-10.2 19.6-4.1 38.9-9.7 57.6-16.7L128 63.7c5.2-1.9 10.2-4.2 15-6.8.3-.2.6-.3.9-.5.8-.5 1.7-.9 2.5-1.4.2-.1.3-.2.5-.3 6.5-3.7 12.6-8 18.3-12.8l-.1.1L194 0v16.6c0 8.6 3.1 17 8.7 23.5l37.4 43.4c5 1.6 10.4 2.5 15.9 2.5 5.6 0 10.9-.9 15.9-2.5l37.4-43.4c5.6-6.5 8.7-14.9 8.7-23.5V0l28.7 42-.1-.1c2.3 2 4.7 3.8 7.2 5.6 9.3 6.7 19.4 12.1 30.1 16.2l24.4 9.2 33.4 12.6c18.8 7 38 12.6 57.6 16.7 4.7 1 7.5 5.7 6.2 10.2zM282.4 83.7c.3.8.3 1.7 0 2.5L268 133v14l18.4 83.9c1.7 8.1 2.7 16.3 2.9 24.5l.6 26 34.3-67.2c6.5-12.7 10.8-26.5 12.8-40.6l9.6-69-1.2-50.4-20.1-29.4c-1.4 7.6-4.8 14.7-9.9 20.6l-33 38.3zM166.6 54.2l-1.3 49.6 9.7 69.8c2 14.2 6.3 27.9 12.8 40.6l34.3 67.2.6-26c.2-8.3 1.1-16.5 2.9-24.5L244 147v-14l-14.4-46.8c-.3-.9-.2-1.8 0-2.5l-33-38.3c-5.1-5.9-8.5-13-9.9-20.6l-20.1 29.4zm70.5 383.4c-.1-.2-.1-.4-.1-.5v-.8c0-.1 0-.2-.1-.4 0-.1-.1-.2-.1-.4-.3-1.1-.8-2.1-1.5-2.9l-.1-.1c-.1-.1-.2-.2-.2-.3s-.2-.2-.3-.3c-.1-.1-.2-.2-.3-.2l-.1-.1c-.8-.7-1.8-1.2-2.9-1.5-.1 0-.2-.1-.4-.1-.1 0-.2 0-.4-.1h-1.2c-.4 0-.8 0-1.1.1-.1 0-.2 0-.4.1-.1 0-.2.1-.4.1-.1 0-.2.1-.4.1-.5.2-1 .4-1.5.7-.1.1-.2.1-.3.2-.1.1-.2.1-.3.2-.1.1-.3.2-.4.3-.2.2-.5.4-.7.6-.1.1-.2.2-.2.3-.1.1-.2.3-.3.4-.6.8-1 1.7-1.3 2.6 0 .1-.1.2-.1.4 0 .1 0 .2-.1.4v1.2c0 4.1 3.4 7.5 7.5 7.5h1.2c.1 0 .2 0 .4-.1.1 0 .2-.1.4-.1 1-.2 1.8-.7 2.6-1.3.1-.1.3-.2.4-.3.1-.1.2-.2.3-.2.2-.2.4-.4.6-.7.1-.1.2-.3.3-.4.1-.1.1-.2.2-.3s.1-.2.2-.3c.3-.5.5-1 .7-1.5 0-.1.1-.2.1-.4 0-.1.1-.2.1-.4 0-.1 0-.2.1-.4.1-.4.1-.8.1-1.1zm90 0c-.1-.2-.1-.4-.1-.5v-.8c0-.1 0-.2-.1-.4 0-.1-.1-.2-.1-.4-.3-1.1-.8-2.1-1.5-2.9l-.1-.1c-.1-.1-.2-.2-.2-.3s-.2-.2-.3-.3-.2-.2-.3-.2l-.1-.1c-.8-.7-1.8-1.2-2.9-1.5-.1 0-.2-.1-.4-.1-.1 0-.2 0-.4-.1h-1.2c-.4 0-.8 0-1.1.1-.1 0-.2 0-.4.1-.1 0-.2.1-.4.1-.1 0-.2.1-.4.1-.5.2-1 .4-1.5.7-.1.1-.2.1-.3.2-.1.1-.2.1-.3.2-.1.1-.3.2-.4.3-.2.2-.5.4-.7.6-.1.1-.2.2-.2.3-.1.1-.2.3-.3.4-.6.8-1 1.7-1.3 2.6 0 .1-.1.2-.1.4 0 .1 0 .2-.1.4v1.2c0 4.1 3.4 7.5 7.5 7.5h1.2c.1 0 .2 0 .4-.1.1 0 .2-.1.4-.1 1-.2 1.8-.7 2.6-1.3.1-.1.3-.2.4-.3.1-.1.2-.2.3-.2.2-.2.4-.4.6-.7.1-.1.2-.3.3-.4.1-.1.1-.2.2-.3.1-.1.1-.2.2-.3.3-.5.5-1 .7-1.5 0-.1.1-.2.1-.4 0-.1.1-.2.1-.4 0-.1 0-.2.1-.4.1-.4.1-.8.1-1.1zm-6.1-2.3c-.4 0-.8.4-.8.8s.3.8.8.8c.4 0 .8-.4.8-.8s-.4-.8-.8-.8zm-3 2.9c-.4 0-.8.4-.8.8s.3.8.8.8.8-.4.8-.8-.4-.8-.8-.8z" fill="#fff"/></svg>