<svg version="1.1" xmlns="http://www.w3.org/2000/svg" x="0" y="0" viewBox="0 0 512 512" xml:space="preserve"><path d="M156.6 381.1c17.7-3.8 34.1-11.6 47.6-22.8l5-4.1c-2.3-12.1-3.7-24.4-4.1-36.7l-.1-3.8c-.4-12.5.2-25.1 1.8-37.5 2.3-17.9 2.4-36.3-.1-54.9-.7-5.5-1.7-11-2.8-16.5-6.2-29.1-18.1-55.5-34.2-78.3-5.5-7.7-14-12.8-23.4-13.8-8.5-1-17.3-.6-26.1 1.3-6.1 1.3-11.9 3.3-17.3 5.8-7.6 3.5-13.5 9.9-16.8 17.6-11.4 26.8-18.6 55.6-20.9 85.4-1.9 25.3-.4 51.3 5.2 77.3 4.9 22.8 15.7 38 25.6 58 3.6 7.2 6.7 14.7 9.3 22.3l6.4 1.3c14.7 2.7 29.8 2.6 44.9-.6zm80.5 59.6c-.7-3.4-1.7-6.6-3-9.7l-14.3-38.3c-3-8.1-5.6-16.4-7.7-24.7-14.6 12.1-32.6 21.1-53 25.4-17.2 3.6-34.1 3.6-50 .4 0 .1.1.2.1.4l11.8 68.7h.1c.1.8.3 1.5.4 2.3 6.8 31.9 38.1 52.3 70 45.5s52.4-38.1 45.6-70zm-87.3-29.8c-.1 0-.1 0 0 0zm203-129.5c-20.4-4.3-38.4-13.3-53-25.4-2.1 8.4-4.7 16.6-7.7 24.7L277.8 319c-1.2 3.1-2.2 6.3-3 9.7-6.8 31.9 13.6 63.3 45.5 70 31.9 6.8 63.3-13.6 70-45.5.2-.8.3-1.5.4-2.3h.1l11.8-68.7c0-.1.1-.2.1-.4-15.8 3.2-32.7 3.2-49.9-.4zm9.5 17.5zm84.5-188.4c-2.3-29.8-9.5-58.6-20.9-85.4-3.3-7.7-9.2-14-16.8-17.6-5.4-2.5-11.2-4.5-17.3-5.8-8.9-1.9-17.7-2.2-26.1-1.3-9.4 1.1-17.9 6.1-23.4 13.8-16.1 22.8-28 49.2-34.2 78.3-1.2 5.5-2.1 11-2.8 16.5-2.5 18.6-2.4 37-.1 54.9 1.6 12.4 2.2 25 1.8 37.5l-.1 3.8c-.4 12.3-1.8 24.6-4.1 36.7l5 4.1c13.4 11.2 29.9 19 47.6 22.8 15.1 3.2 30.2 3.3 44.9.4l6.4-1.3c2.6-7.6 5.7-15.1 9.3-22.3 9.9-20 20.8-35.2 25.6-58 5.6-25.8 7.2-51.8 5.2-77.1z" opacity=".1" fill="#fff"/><path d="M156.6 381.1c17.7-3.8 34.1-11.6 47.6-22.8l5-4.1c-2.3-12.1-3.7-24.4-4.1-36.7l-.1-3.8c-.4-12.5.2-25.1 1.8-37.5 2.3-17.9 2.4-36.3-.1-54.9-.7-5.5-1.7-11-2.8-16.5-6.2-29.1-18.1-55.5-34.2-78.3-5.5-7.7-14-12.8-23.4-13.8-8.5-1-17.3-.6-26.1 1.3-6.1 1.3-11.9 3.3-17.3 5.8-7.6 3.5-13.5 9.9-16.8 17.6-11.4 26.8-18.6 55.6-20.9 85.4-1.9 25.3-.4 51.3 5.2 77.3 4.9 22.8 15.7 38 25.6 58 3.6 7.2 6.7 14.7 9.3 22.3l6.4 1.3c14.7 2.7 29.8 2.6 44.9-.6zm-2.1-22.7c-4.7 1-9.3-2-10.3-6.7s2-9.3 6.7-10.3 9.3 2 10.3 6.7c.9 4.7-2.1 9.3-6.7 10.3zm-51.1-213.9c.4-1 .9-1.9 1.5-2.8l2 1.3 3.1-4.9h-.1l1-1.5c.8-.4 1.6-.7 2.4-1l7.1 4.6 3.1-4.9h-.1l2.1-3.3h.1l8.2 5.3 3.1-4.9h-.1l1-1.5c1.5 0 2.9.1 4.4.2l5.1 3.3 1.2-1.8c1.2.6 2.3 1.3 3.3 2.2l-3.3 5.2-8.2-5.3-5.3 8.2-8.2-5.3-5.3 8.2-8.2-5.3-5.3 8.2-5-3.2c.2-.4.3-.7.4-1zM96.8 162l3.2-4.8h-.1l2.2-3.3 8.3 5.4 3.1-4.9h-.1l2.2-3.3 8.3 5.4 3.1-4.9h-.1l2.2-3.3 8.3 5.4 3.1-4.9h-.1l2.2-3.3 8.3 5.4 3.1-4.9h-.1l2.2-3.3 2.7 1.8c1.7 2.6 3.3 5.2 4.8 7.9l-6.3-4.1-5.3 8.2-8.2-5.3-5.3 8.2-8.2-5.3-5.3 8.2-8.2-5.3-5.3 8.2-8.2-5.3-5.3 8.2-2.6-1.7c.5-1.8.9-3.1 1.4-4.4zm-3.7 11.6 7.2 4.7 3.1-4.9h-.1l2.2-3.3 8.3 5.4 3.1-4.9h-.1l2.2-3.3 8.3 5.4 3.1-4.9h-.1l2.2-3.3 8.3 5.4 3.1-4.9h-.1l2.2-3.3 8.3 5.4 3.1-4.9h-.1l2.2-3.3 8.3 5.4 1.3-1.9c.7 1.4 1.4 2.8 2 4.2l-2.1 3.3-8.2-5.3-5.3 8.2-8.2-5.3-5.3 8.2-8.2-5.3-5.3 8.2-8.2-5.3-5.3 8.2-8.2-5.3-5.3 8.2-8.2-5.3-2.5 3.8c.7-3.5 1.5-6.4 2.3-9.3zm-5.3 22.1 2.4 1.6 3.1-4.9h-.1l2.2-3.3 8.3 5.4 3.1-4.9h-.1l2.2-3.3 8.3 5.4 3.1-4.9h-.1l2.2-3.3 8.3 5.4 3.1-4.9h-.1l2.2-3.3 8.3 5.4 3.1-4.9h-.1l2.2-3.3 8.3 5.4 3.1-4.9h-.1l2.2-3.3 8.3 5.4 3.1-4.9h-.1l.5-.7c.6 1.5 1.3 3.1 1.9 4.6l-4.2 6.5-8.2-5.3-5.3 8.2-8.2-5.3-5.3 8.2-8.2-5.3-5.3 8.2-8.2-5.3-5.3 8.2-8.2-5.3-5.3 8.2-8.2-5.3-5.3 8.2L87 200c.3-1.4.5-2.8.8-4.3zm-2.1 12.6 7.9 5.2 3.1-4.9h-.1l2.2-3.3 8.3 5.4 3.1-4.9h-.1l2.2-3.3 8.3 5.4 3.1-4.9h-.1l2.2-3.3 8.3 5.4 3.1-4.9h-.1l2.2-3.3 8.3 5.4 3.1-4.9h-.1l2.2-3.3 8.3 5.4 3.1-4.9h-.1l2.2-3.3 8.3 5.4 3.1-4.9h-.1l2.1-3.2c.6 1.9 1.2 3.8 1.8 5.8l-.5-.3-5.3 8.2-8.2-5.3-5.3 8.2-8.2-5.3-5.3 8.2-8.2-5.3-5.3 8.2-8.2-5.3-5.3 8.2-8.2-5.3-5.3 8.2-8.2-5.3-5.3 8.2-8.2-5.3-1.9 3c.4-3.5.7-6.3 1.1-9.1zm-2.2 24.2 3.2-4.8h-.1l2.2-3.3 8.3 5.4 3.1-4.9h-.1l2.2-3.3 8.3 5.4 3.1-4.9h-.1l2.2-3.3 8.3 5.4 3.1-4.9h-.1l2.2-3.3 8.3 5.4 3.1-4.9h-.1l2.2-3.3 8.3 5.4 3.1-4.9h-.1l2.2-3.3 8.3 5.4 3.1-4.9h-.1l2.2-3.3 8.3 5.4 3.1-4.9h-.1l2.2-3.3 1.2.8c.3 1.2.6 2.4.8 3.6.1.6.3 1.3.4 1.9l-1.2-.7-5.3 8.2-8.2-5.3-5.3 8.2-8.2-5.3-5.3 8.2-8.2-5.3-5.3 8.2-8.2-5.3-5.3 8.2-8.2-5.3-5.3 8.2-8.2-5.3-5.3 8.2-8.2-5.3-5.3 8.2-1.4-.9c.1-2.4.2-4 .2-5.5zm-.2 13.8 3.7 2.4 3.2-4.9h-.1l2.2-3.3 8.3 5.4 3.1-4.9h-.1l2.2-3.3 8.3 5.4 3.1-4.9h-.1l2.2-3.3 8.3 5.4 3.1-4.9h-.1l2.2-3.3 8.3 5.4 3.1-4.9h-.1l2.2-3.3 8.3 5.4 3.1-4.9h-.1l2.2-3.3 8.3 5.4 3.1-4.9h-.1l2.2-3.3 8.3 5.4 3.1-4.9h-.1l2.2-3.3.8.5c.1.9.3 1.9.4 2.8l.3 2.4-.2-.1-5.3 8.2-8.2-5.3-5.3 8.2-8.2-5.3-5.3 8.2-8.2-5.3-5.3 8.2-8.2-5.3-5.3 8.2-8.2-5.3-5.3 8.2-8.2-5.3-5.3 8.2-8.2-5.3-5.3 8.2-4.8-3.1c-.1-2.4-.2-4-.2-5.6zm.6 14.3 6.6 4.3 3.1-4.9h-.1l2.2-3.3 8.3 5.4 3.1-4.9h-.1l2.2-3.3 8.3 5.4 3.1-4.9h-.1l2.2-3.3 8.3 5.4 3.1-4.9h-.1l2.2-3.3 8.3 5.4 3.1-4.9h-.1l2.2-3.3 8.3 5.4 3.1-4.9h-.1l2.2-3.3 8.3 5.4 3.1-4.9h-.1l2.2-3.3 8.3 5.4 3.1-4.9h-.1l1.2-1.9c.1 2.3.2 4.7.3 7l-3.4 5.3-8.1-5.8-5.3 8.2-8.2-5.3-5.3 8.2-8.2-5.3-5.3 8.2-8.2-5.3-5.3 8.2-8.2-5.3-5.3 8.2-8.2-5.3-5.3 8.2-8.2-5.3-5.3 8.2-7.3-4.8c-.3-1.9-.4-3.5-.5-5.2zm2.4 21.5c-.3-2-.6-4.1-.9-6.1l.2-.3 8.3 5.4 3.1-4.9h-.1l2.2-3.3 8.3 5.4 3.1-4.9h-.1l2.2-3.3 8.3 5.4 3.1-4.9h-.1l2.2-3.3 8.3 5.4 3.1-4.9h-.1l2.2-3.3 8.3 5.4 3.1-4.9h-.1l2.2-3.3 8.3 5.4 3.1-4.9h-.1l2.2-3.3 8.3 5.4 3.1-4.9h-.1l2.2-3.3 8.3 5.4.9-1.4c-.1 2.1-.3 4.3-.5 6.4l-7.4-4.8-5.3 8.2-8.2-5.3-5.3 8.2-8.2-5.3-5.3 8.2-8.2-5.3-5.3 8.2-8.2-5.3-5.3 8.2-8.2-5.3-5.3 8.2-8.2-5.3-5.3 8.2-8.2-5.3-.6.1zm4 15.3-.8 1.3c-.2-.9-.4-1.8-.6-2.8-.2-.9-.4-1.9-.6-2.8l.8-1.2 8.3 5.4 3.1-4.9h-.1l2.2-3.3 8.3 5.4 3.1-4.9h-.1l2.2-3.3 8.3 5.4 3.1-4.9h-.1l2.2-3.3 8.3 5.4 3.1-4.9h-.1l2.2-3.3 8.3 5.4 3.1-4.9h-.1l2.2-3.3 8.3 5.4 3.1-4.9h-.1l2.2-3.3 8.3 5.4 3.1-4.9h-.1l2.2-3.3 4.3 2.8c-.2 1.5-.4 2.9-.5 4.4l-2.6-1.7-5.3 8.2-8.2-5.3-5.3 8.2-8.2-5.3-5.3 8.2-8.2-5.3-5.3 8.2-8.2-5.3-5.3 8.2-8.2-5.3-5.3 8.2-8.2-5.3-5.3 8.2-8.2-6zm14.8 16.5c-1.4-.3-2.7-.6-4.1-1l2.9-4.4h-.1l2.2-3.3 8.3 5.4 3.1-4.9h-.1l2.2-3.3 8.3 5.4 3.1-4.9h-.1l2.2-3.3 8.3 5.4 3.1-4.9h-.1l2.2-3.3 8.3 5.4 3.1-4.9h-.1l2.2-3.3 8.3 5.4 3.1-4.9h-.1l2.2-3.3 8.3 5.4 3.1-4.9h-.1l1.7-2.6c-.2 2.7-.3 5.4-.4 8.1l-2.8 4.3c-.2.1-.4.2-.6.4l-7.9-5.2-5.3 8.2-8.2-5.3-5.3 8.2-8.2-5.3-5.3 8.2-8.2-5.3-5.3 8.2-8.2-5.3-5.2 7.9c-.2 0-.4 0-.7-.1l-7.7-5-2.1 2.8zm132 126.8c-.7-3.4-1.7-6.6-3-9.7l-14.3-38.3c-3-8.1-5.6-16.4-7.7-24.7-14.6 12.1-32.6 21.1-53 25.4-17.2 3.6-34.1 3.6-50 .4 0 .1.1.2.1.4l11.8 68.7h.1c.1.8.3 1.5.4 2.3 6.8 31.9 38.1 52.3 70 45.5s52.4-38.1 45.6-70zm-87.3-29.8c-.1 0-.1 0 0 0zm-19.1 14.9-1-5.9.5-.8 8.3 5.4 3.1-4.9h-.1l2.2-3.3 8.3 5.4 3.1-4.9h-.1l2.2-3.3 8.3 5.4 3.1-4.9h-.1l2.2-3.3 8.3 5.4 3.1-4.9h-.1l2.2-3.3 8.3 5.4 3.1-4.9h-.1l2.2-3.3 8.3 5.4 2.3-3.5 1.7 4.6-2.8 4.4-8.2-5.3-5.3 8.2-8.2-5.3-5.3 8.2-8.2-5.3-5.3 8.2-8.2-5.3-5.3 8.2-8.2-5.3-5.3 8.2-8.2-5.3-.8.6zm2.9 17-1-5.9 1-1.6 8.3 5.4 3.1-4.9h-.1l2.2-3.3 8.3 5.4 3.1-4.9h-.1l2.2-3.3 8.3 5.4 3.1-4.9h-.1l2.2-3.3 8.3 5.4 3.1-4.9h-.1l2.2-3.3 8.3 5.4 3.1-4.9h-.1l2.2-3.3 8.3 5.4 3.1-4.9h-.1l.8-1.2 1.2 3.2-.3.2.7 1.7-4.3 6.6-8.2-5.3-5.3 8.2-8.2-5.3-5.3 8.2-8.2-5.3-5.3 8.2-8.2-5.3-5.3 8.2-8.2-5.3-5.3 8.2-8.2-5.3-1.2 1.3zm3 16.9-1-5.9 1.5-2.3 8.3 5.4 3.1-4.9h-.1l2.2-3.3 8.3 5.4 3.1-4.9h-.1l2.2-3.3 8.3 5.4 3.1-4.9h-.1l2.2-3.3 8.3 5.4 3.1-4.9h-.1l2.2-3.3 8.3 5.4 3.1-4.9h-.1l2.2-3.3 8.3 5.4 3.1-4.9h-.1l2.2-3.3.5.3.9 2.3c.5 1.3 1 2.6 1.4 4l-1.5-1-5.3 8.2-8.2-5.3-5.3 8.2-8.2-5.3-5.3 8.2-8.2-5.3-5.3 8.2-8.2-5.3-5.3 8.2-8.2-5.3-5.3 8.2-8.2-5.3-1.8 2zm78.9 17.1-2.7-1.8-5.3 8.2-8.2-5.3-5.3 8.2-8.2-5.3-5.3 8.2-8.2-5.3-5.3 8.2-8.2-5.3-2.1 3.3c-1.1-.7-2.2-1.4-3.3-2.2l2.1-3.2h-.1l2.2-3.3 8.3 5.4 3.1-4.9h-.1l2.2-3.3 8.3 5.4 3.1-4.9h-.1l2.2-3.3 8.3 5.4 3.1-4.9h-.1l2.2-3.3 8.3 5.4 3.1-4.9h-.1l2.2-3.3 6 3.9c-.7.6-1.4 1.8-2.1 2.9zm7-20.4-5 7.7-8.2-5.3-5.3 8.2-8.2-5.3-5.3 8.2-8.2-5.3-5.3 8.2-8.2-5.3-5.3 8.2-8.2-5.3-5.3 8.2-8.2-5.3-.4.6c-.8-1.4-1.4-2.8-2.1-4.3l1.2-1.8 8.3 5.4 3.1-4.9h-.1l2.2-3.3 8.3 5.4 3.1-4.9h-.1l2.2-3.3 8.3 5.4 3.1-4.9h-.1l2.2-3.3 8.3 5.4 3.1-4.9h-.1l2.2-3.3 8.3 5.4 3.1-4.9h-.1l2.2-3.3 8.3 5.4 3.1-4.9h-.1l2.2-3.3 1 .7c.2 1.2.2 3 0 4.7zm130.3-175c-20.4-4.3-38.4-13.3-53-25.4-2.1 8.4-4.7 16.6-7.7 24.7L277.8 319c-1.2 3.1-2.2 6.3-3 9.7-6.8 31.9 13.6 63.3 45.5 70 31.9 6.8 63.3-13.6 70-45.5.2-.8.3-1.5.4-2.3h.1l11.8-68.7c0-.1.1-.2.1-.4-15.8 3.2-32.7 3.2-49.9-.4zm9.5 17.5zm-6.9 78.8-2.1-3.3-8.2 5.3-5.3-8.2-8.2 5.3-5.3-8.2-8.2 5.3-5.3-8.2-8.2 5.3-5.3-8.2-2.7 1.8c-.7-1.1-1.4-2.3-2-3.4l6-3.9 2.2 3.3h-.1l3.1 4.9 8.3-5.4 2.2 3.3h-.1l3.1 4.9 8.3-5.4 2.2 3.3h-.1l3.1 4.9 8.3-5.4 2.2 3.3h-.1l3.1 4.9 8.3-5.4 2.2 3.3h-.1l2.1 3.2c-1.2 1.3-2.3 2-3.4 2.7zm15.2-15.9-.4-.6-8.2 5.3-5.3-8.2-8.2 5.3-5.3-8.2-8.2 5.3-5.3-8.2-8.2 5.3-5.3-8.2-8.2 5.4-5.3-8.2-8.2 5.3-5-7.7c-.1-1.8-.2-3.6-.1-5.4l1-.7 2.2 3.3h-.1l3.1 4.9 8.3-5.4 2.2 3.3h-.1l3.1 4.9 8.3-5.4 2.2 3.3h-.1l3.1 4.9 8.3-5.4 2.2 3.3h-.1l3.1 4.9 8.3-5.4 2.2 3.3h-.1l3.1 4.9 8.3-5.4 2.2 3.3h-.1l3.1 4.9 8.3-5.4 1.2 1.8c-.6 2-1.3 3.5-2 4.9zm4.8-14.1-1.7-2.7-8.2 5.3-5.3-8.2-8.2 5.3-5.3-8.2-8.2 5.3-5.3-8.2-8.2 5.3-5.3-8.2-8.2 5.3-5.3-8.2-8.2 5.3-5.3-8.2-1.5 1c.4-1.3.8-2.7 1.4-4l.9-2.3.5-.3 2.2 3.3h-.1l3.1 4.9 8.3-5.4 2.2 3.3h-.1l3.1 4.9 8.3-5.4 2.2 3.3h-.1l3.1 4.9 8.3-5.4 2.2 3.3h-.1l3.1 4.9 8.3-5.4 2.2 3.3h-.1l3.1 4.9 8.3-5.4 2.2 3.3h-.1l3.1 4.9 8.3-5.4 1.5 2.3-1.1 6.6zm3-16.9-1.3-1.9-8.2 5.3-5.3-8.2-8.2 5.3-5.3-8.2-8.2 5.3-5.3-8.2-8.2 5.3-5.3-8.2-8.2 5.3-5.3-8.2-8.2 5.3-4.3-6.6.7-1.7-.3-.2 1.2-3.2.8 1.2h-.1l3.1 4.9 8.3-5.4 2.2 3.3h-.1l3.1 4.9 8.3-5.4 2.2 3.3h-.1l3.1 4.9 8.3-5.4 2.2 3.3h-.1l3.1 4.9 8.3-5.4 2.2 3.3h-.1l3.1 4.9 8.3-5.4 2.2 3.3h-.1l3.1 4.9 8.3-5.4 1 1.6-.9 6.5zm3.9-22.9-1 5.9-.7-1.1-8.2 5.3-5.3-8.2-8.2 5.3-5.3-8.2-8.2 5.3-5.3-8.2-8.2 5.3-5.3-8.2-8.2 5.3-5.3-8.2-8.2 5.3-2.8-4.4 1.7-4.6 2.3 3.5 8.3-5.4 2.2 3.3h-.1l3.1 4.9 8.3-5.4 2.2 3.3h-.1l3.1 4.9 8.3-5.4 2.2 3.3h-.1l3.1 4.9 8.3-5.4 2.2 3.3h-.1l3.1 4.9 8.3-5.4 2.2 3.3h-.1l3.1 4.9 8.3-5.4.4 1.3zm64.5-197.4c-2.3-29.8-9.5-58.6-20.9-85.4-3.3-7.7-9.2-14-16.8-17.6-5.4-2.5-11.2-4.5-17.3-5.8-8.9-1.9-17.7-2.2-26.1-1.3-9.4 1.1-17.9 6.1-23.4 13.8-16.1 22.8-28 49.2-34.2 78.3-1.2 5.5-2.1 11-2.8 16.5-2.5 18.6-2.4 37-.1 54.9 1.6 12.4 2.2 25 1.8 37.5l-.1 3.8c-.4 12.3-1.8 24.6-4.1 36.7l5 4.1c13.4 11.2 29.9 19 47.6 22.8 15.1 3.2 30.2 3.3 44.9.4l6.4-1.3c2.6-7.6 5.7-15.1 9.3-22.3 9.9-20 20.8-35.2 25.6-58 5.6-25.8 7.2-51.8 5.2-77.1zm-83.4-89.9 1.2 1.8 5.1-3.3c1.5-.1 2.9-.2 4.4-.2l1 1.5h-.1l3.1 4.9 8.2-5.3h.1l2.1 3.3h-.1l3.1 4.9 7.1-4.6c.8.3 1.6.7 2.4 1l1 1.5h-.1L405 31l2-1.3c.6.9 1.1 1.8 1.5 2.8.1.3.2.5.3.8l-5 3.2-5.3-8.2-8.2 5.3-5.3-8.2-8.2 5.3-5.3-8.2-8.2 5.3-3.3-5.2c1.1-.7 2.2-1.4 3.4-2zm-10.3 11.5 2.7-1.8 2.2 3.3h-.1l3.1 4.9 8.3-5.4 2.2 3.3h-.1l3.1 4.9 8.3-5.4 2.2 3.3h-.1l3.1 4.9 8.3-5.4 2.2 3.3h-.1l3.1 4.9 8.3-5.4 2.2 3.3h-.1l3.1 4.9.1-.1c.4 1.3.9 2.6 1.3 3.9l-2.6 1.7-5.3-8.2-8.2 5.3-5.3-8.2-8.2 5.3-5.3-8.2-8.2 5.3-5.3-8.2-8.2 5.3-5.3-8.2-6.3 4.1c1.7-2.1 3.3-4.8 4.9-7.4zM342.9 50l1.3 1.9 8.3-5.4 2.2 3.3h-.1l3.1 4.9 8.3-5.4 2.2 3.3h-.1l3.1 4.9 8.3-5.4 2.2 3.3h-.1l3.1 4.9 8.3-5.4 2.2 3.3h-.1l3.1 4.9 8.3-5.4 2.2 3.3h-.1l3.1 4.9 7.2-4.7c.8 2.9 1.6 5.8 2.3 8.7l-2.5-3.8-8.2 5.3-5.3-8.2-8.2 5.3-5.3-8.2-8.2 5.3-5.3-8.2-8.2 5.3-5.3-8.2-8.2 5.3-5.3-8.2-8.2 5.3-2.1-3.3c.7-.9 1.3-2.2 2-3.6zm-5.7 12.5.5.7h-.1l3.1 4.9 8.3-5.4 2.2 3.3h-.1l3.1 4.9 8.3-5.4 2.2 3.3h-.1l3.1 4.9 8.3-5.4 2.2 3.3h-.1l3.1 4.9 8.3-5.4 2.2 3.3h-.1l3.1 4.9 8.3-5.4 2.2 3.3h-.1l3.1 4.9 8.3-5.4 2.2 3.3h-.1l3.1 4.9 2.4-1.6c.3 1.4.5 2.8.8 4.2l-4.3 2.8-5.3-8.2-8.2 5.3-5.3-8.2-8.2 5.3-5.3-8.2-8.2 5.3-5.3-8.2-8.2 5.3-5.3-8.2-8.2 5.3-5.3-8.2-8.2 5.3-4.2-6.5c.6-.9 1.2-2.4 1.8-3.9zm-5.1 13.6 2.1 3.2h-.1l3.1 4.9 8.3-5.4 2.2 3.3h-.1l3.1 4.9 8.3-5.4 2.2 3.3h-.1l3.1 4.9 8.3-5.4 2.2 3.3h-.1l3.1 4.9 8.3-5.4 2.2 3.3h-.1l3.1 4.9 8.3-5.4 2.2 3.3h-.1l3.1 4.9 8.3-5.4 2.2 3.3h-.1l3.1 4.9 7.9-5.2c.4 2.8.7 5.5 1 8.3l-1.9-3-8.2 5.3-5.3-8.2-8.2 5.3-5.3-8.2-8.2 5.3-5.3-8.2-8.2 5.3-5.3-8.2-8.2 5.3-5.3-8.2-8.2 5.3-5.3-8.2L336 89l-5.3-8.2-.5.3c.7-1.2 1.3-3.1 1.9-5zm-5.5 20.5c.3-1.2.5-2.4.8-3.6l1.2-.8 2.2 3.3h-.1l3.1 4.9 8.3-5.4 2.2 3.3h-.1l3.1 4.9 8.3-5.4 2.2 3.3h-.1l3.1 4.9 8.3-5.4 2.2 3.3h-.1l3.1 4.9 8.3-5.4 2.2 3.3h-.1l3.1 4.9 8.3-5.4 2.2 3.3h-.1l3.1 4.9 8.3-5.4 2.2 3.3h-.1l3.1 4.9 8.3-5.4 2.2 3.3h-.1l3.2 4.9h.1c.1 1.5.1 3.1.2 4.6l-1.4.9-5.3-8.2-8.2 5.3-5.3-8.2-8.2 5.3-5.3-8.2-8.2 5.3-5.3-8.2-8.2 5.3-5.3-8.2-8.2 5.3-5.3-8.2-8.2 5.3-5.3-8.2-8.2 5.3-5.3-8.2-1.2.7c.1.2.2-.5.3-1.1zm41.2 143.2c-1 4.7-5.6 7.7-10.3 6.7-4.7-1-7.7-5.6-6.7-10.3 1-4.7 5.6-7.7 10.3-6.7s7.7 5.6 6.7 10.3zm39.1-37.9-2.1-3.2-7.7 5c-.2 0-.4.1-.7.1l-5.2-7.9-8.2 5.3-5.3-8.2-8.2 5.3-5.3-8.2-8.2 5.3-5.3-8.2-8.2 5.3-5.3-8.2-7.9 5.2c-.2-.1-.4-.2-.6-.4l-2.8-4.3c-.1-2.7-.2-5.4-.4-8.1l1.7 2.6h-.1l3.1 4.9 8.3-5.4 2.2 3.3h-.1l3.1 4.9 8.3-5.4 2.2 3.3h-.1l3.1 4.9 8.3-5.4 2.2 3.3h-.1l3.1 4.9 8.3-5.4 2.2 3.3h-.1l3.1 4.9 8.3-5.4 2.2 3.3h-.1l3.1 4.9 8.3-5.4 2.2 3.3h-.1l2.9 4.4c-1.4.8-2.8 1.1-4.1 1.4zm16.3-18c-.2.9-.4 1.8-.6 2.8l-.8-1.3-8.2 5.3-5.3-8.2-8.2 5.3-5.3-8.2-8.2 5.3-5.3-8.2-8.2 5.3-5.3-8.2-8.2 5.3-5.3-8.2-8.2 5.3-5.3-8.2-8.2 5.3-5.3-8.2-2.6 1.7c-.2-1.5-.3-2.9-.5-4.4l4.3-2.8 2.2 3.3h-.1l3.1 4.9 8.3-5.4 2.2 3.3h-.1l3.1 4.9 8.3-5.4 2.2 3.3h-.1l3.1 4.9 8.3-5.4 2.2 3.3h-.1l3.1 4.9 8.3-5.4 2.2 3.3h-.1l3.1 4.9 8.3-5.4 2.2 3.3h-.1l3.1 4.9 8.3-5.4 2.2 3.3h-.1l3.1 4.9 8.3-5.4.8 1.2c-.3 1.6-.4 2.6-.6 3.5zm2.5-13.8-.6-.9-8.2 5.3-5.3-8.2-8.2 5.3-5.3-8.2-8.2 5.3-5.3-8.2-8.2 5.3-5.3-8.2-8.2 5.3-5.3-8.2-8.2 5.3-5.3-8.2-8.2 5.3-5.3-8.2-7.4 4.8c-.2-2.1-.3-4.3-.5-6.4l.9 1.4 8.3-5.4 2.2 3.3h-.1l3.1 4.9 8.3-5.4 2.2 3.3h-.1l3.1 4.9 8.3-5.4 2.2 3.3h-.1l3.1 4.9 8.3-5.4 2.2 3.3h-.1l3.1 4.9 8.3-5.4 2.2 3.3h-.1l3.1 4.9 8.3-5.4 2.2 3.3h-.1l3.1 4.9 8.3-5.4 2.2 3.3h-.1l3.2 4.9 8.3-5.4.2.3c-.4 2.8-.7 4.8-1 6.9zm2-16.5-7.3 4.8-5.3-8.2-8.2 5.3-5.3-8.2-8.2 5.3-5.3-8.2-8.2 5.3-5.3-8.2-8.2 5.3-5.3-8.2-8.2 5.3-5.3-8.2-8.2 5.3-5.4-8-8.2 5.3-3.4-5.3c0-2.3.1-4.7.3-7l1.2 1.9h-.1l3.1 4.9 8.3-5.4 2.2 3.3h-.1l3.1 4.9 8.3-5.4 2.2 3.3h-.1l3.1 4.9 8.3-5.4 2.2 3.3h-.1l3.1 4.9 8.3-5.4 2.2 3.3h-.1l3.1 4.9 8.3-5.4 2.2 3.3h-.1l3.1 4.9 8.3-5.4 2.2 3.3h-.1l3.1 4.9 8.3-5.4 2.2 3.3h-.1l3.2 4.9 6.6-4.3c-.1 2.2-.2 3.8-.4 5.5zm.9-14.5-4.8 3.1-5.3-8.2-8.2 5.3-5.3-8.2-8.2 5.3-5.3-8.2-8.2 5.3-5.3-8.2-8.2 5.3-5.3-8.2-8.2 5.3-5.3-8.2-8.2 5.3-5.3-8.2-8.2 5.3-5.3-8.2-.2.1.3-2.4c.1-.9.3-1.9.4-2.8l.8-.5 2.2 3.3h-.1l3.1 4.9 8.3-5.4 2.2 3.3h-.1l3.1 4.9 8.3-5.4 2.2 3.3h-.1l3.1 4.9 8.3-5.4 2.2 3.3h-.1l3.1 4.9 8.3-5.4 2.2 3.3h-.1l3.1 4.9 8.3-5.4 2.2 3.3h-.1l3.1 4.9 8.3-5.4 2.2 3.3h-.1l3.1 4.9 8.3-5.4 2.2 3.3h-.1l3.2 4.9 3.7-2.4c-.1 2.4-.2 4-.2 5.6z" fill="#fff"/></svg>