<svg version="1.1" xmlns="http://www.w3.org/2000/svg" x="0" y="0" viewBox="0 0 512 512" xml:space="preserve"><path d="M512 296c0 33.7-27.3 61-61 61H61c-33.7 0-61-27.3-61-61 0-2.1.1-4.1.3-6.1.3-2.8 2.8-4.8 5.6-4.5 3.8.5 7.6.7 11.5.7 10.8 0 21.2-1.8 30.8-5.2 21-7.4 37.8-23.1 47.7-43C125.4 179.3 186 139 256 139s130.6 40.3 160 98.9c9.9 19.9 26.8 35.6 47.7 43 9.6 3.4 20 5.2 30.8 5.2 3.9 0 7.8-.2 11.5-.7 2.8-.3 5.4 1.7 5.6 4.5.3 2 .4 4 .4 6.1zM61 373c0 8.8 7.2 16 16 16h358c8.8 0 16-7.2 16-16v-8H61v8z" opacity=".1" fill="#fff"/><path d="M61 365h390v8c0 8.8-7.2 16-16 16H77c-8.8 0-16-7.2-16-16v-8zm195-123.2c2.7 0 4.8-1.7 4.8-3.8 0-2.1-4.1-9.7-4.8-9.7s-4.8 7.6-4.8 9.7c0 2.1 2.1 3.8 4.8 3.8zm5.8-21.3c.8 2.6 2.8 4.7 5.4 5.6l5.4 1.8c4.1 1.4 8.3-1.9 7.9-6.3l-.3-4.5c-.3-3.2-3.1-5.5-6.3-5.1l-6.6.9c-3.6.5-6.1 3.7-5.7 7.3.2.2.2.3.2.3zM512 296c0 33.7-27.3 61-61 61H61c-33.7 0-61-27.3-61-61 0-2.1.1-4.1.3-6.1.3-2.8 2.8-4.8 5.6-4.5 3.8.5 7.6.7 11.5.7 10.8 0 21.2-1.8 30.8-5.2 21-7.4 37.8-23.1 47.7-43C125.4 179.3 186 139 256 139s130.6 40.3 160 98.9c9.9 19.9 26.8 35.6 47.7 43 9.6 3.4 20 5.2 30.8 5.2 3.9 0 7.8-.2 11.5-.7 2.8-.3 5.4 1.7 5.6 4.5.3 2 .4 4 .4 6.1zm-294-99.6 2.5 24.9c.6 6 5 10.9 10.9 12.1l1.6.3c1.8.4 3 2.1 2.8 3.9l-1 7.5c-.8 5.6 3.3 10.7 8.8 11.3l4.8.5c5 .6 10.1.6 15.1 0l4.8-.5c5.6-.6 9.6-5.8 8.8-11.3l-1-7.5c-.3-1.8.9-3.5 2.8-3.9l1.6-.3c5.9-1.2 10.3-6.1 10.9-12.1l2.5-24.9c0-5.5-1.3-10.8-3.6-15.5-6.1-12.4-19.2-20.9-34.4-20.9-20.9 0-37.9 16.3-37.9 36.4zm35.5 90.1-12-7-25.2 14.6-2.2 1.3c-4.1 2.3-8.9 2.8-13.4 1.7-2.1-.5-4.4-.2-6.3 1.2-2.8 2.1-3.8 5.9-2.3 9 1.1 2.5 3.4 4 5.9 4.3-1 2.3-.8 5 .8 7.2 2 2.8 5.8 3.9 9 2.5 2.2-.9 3.6-2.8 4.2-4.8 1.3-4.5 4.1-8.4 8.2-10.8l2.2-1.3 31.1-17.9zm64.2 11.8c-1.9-1.4-4.2-1.8-6.3-1.2-4.6 1.1-9.4.6-13.5-1.7l-2.2-1.3-73.5-42.4-2.2-1.3c-4-2.4-6.9-6.3-8.2-10.8-.6-2.1-2-3.9-4.2-4.8-3.2-1.4-7-.3-9 2.5-1.6 2.2-1.7 4.9-.8 7.2-2.5.3-4.7 1.8-5.9 4.3-1.4 3.2-.4 7 2.3 9 1.9 1.4 4.2 1.8 6.3 1.2 4.6-1.1 9.4-.6 13.4 1.7l2.2 1.3 73.5 42.4 2.2 1.3c4 2.4 6.9 6.3 8.2 10.8.6 2.1 2 3.9 4.2 4.8 3.2 1.4 7 .3 9-2.5 1.6-2.2 1.7-4.9.8-7.2 2.5-.3 4.7-1.8 5.9-4.3 1.5-3.1.6-6.9-2.2-9zm2.3-49.5c-1.1-2.5-3.4-4-5.9-4.3 1-2.3.8-5-.8-7.2-2-2.8-5.8-3.9-9-2.5-2.2.9-3.6 2.8-4.2 4.8-1.3 4.5-4.1 8.4-8.2 10.8l-2.2 1.3-31.2 18 12.1 7 25.2-14.6 2.2-1.3c4.1-2.3 8.9-2.8 13.4-1.7 2.1.5 4.4.2 6.3-1.2 2.8-2.1 3.7-5.9 2.3-9.1zm-80.7-20.9 5.4-1.8c2.7-.9 4.7-3 5.4-5.6 0-.1 0-.2.1-.3.4-3.5-2.1-6.8-5.7-7.2l-6.6-.9c-3.2-.4-6 1.9-6.3 5.1l-.3 4.5c-.3 4.3 3.8 7.6 8 6.2z" fill="#fff"/></svg>