<svg version="1.1" xmlns="http://www.w3.org/2000/svg" x="0" y="0" viewBox="0 0 512 512" xml:space="preserve"><path d="M507.4 490.6l-124.6-97.1-18.1-77.5-56.4-242H338c8.9 0 17.1-3.2 23.5-8.4.9-.8 1.8-1.6 2.6-2.4.8-.8 1.6-1.7 2.4-2.6 5.3-6.4 8.4-14.6 8.4-23.5 0-20.4-16.6-37-37-37h-87.6c-5.9 0-11.6 1.4-16.6 3.9L231 5.5c-.9.5-1.7 1.1-2.5 1.7-.8.6-1.6 1.2-2.4 1.9-5.8 5-10 11.8-11.9 19.6L201.6 83l-54.4 233-18.1 77.5L4.6 490.6c-1.4 1.1-2.5 2.4-3.2 3.8-.2.3-.3.6-.4.8-.5 1.1-.8 2.3-.9 3.5-.1.9-.1 1.8 0 2.7.1.6.2 1.2.3 1.7.1.3.2.6.3.8 1.6 4.5 5.7 8.1 11.5 8.1H500c5.8 0 9.9-3.6 11.5-8.1.1-.3.2-.6.3-.8.2-.6.3-1.2.3-1.7.3-3.9-1.1-8-4.7-10.8z" opacity=".1" fill="#fff"/><path d="M507.4 490.6l-124.6-97.1-18.1-77.5-56.4-242H338c8.9 0 17.1-3.2 23.5-8.4.9-.8 1.8-1.6 2.6-2.4.8-.8 1.6-1.7 2.4-2.6 5.3-6.4 8.4-14.6 8.4-23.5 0-20.4-16.6-37-37-37h-87.6c-5.9 0-11.6 1.4-16.6 3.9L231 5.5c-.9.5-1.7 1.1-2.5 1.7-.8.6-1.6 1.2-2.4 1.9-5.8 5-10 11.8-11.9 19.6L201.6 83l-54.4 233-18.1 77.5L4.6 490.6c-1.4 1.1-2.5 2.4-3.2 3.8-.2.3-.3.6-.4.8-.5 1.1-.8 2.3-.9 3.5-.1.9-.1 1.8 0 2.7.1.6.2 1.2.3 1.7.1.3.2.6.3.8 1.6 4.5 5.7 8.1 11.5 8.1H500c5.8 0 9.9-3.6 11.5-8.1.1-.3.2-.6.3-.8.2-.6.3-1.2.3-1.7.3-3.9-1.1-8-4.7-10.8zm-133.1-98.1H137.7l17.4-74.7.2-.8h201.5l.2.8 17.3 74.7z" fill="#fff"/></svg>