<svg xmlns="http://www.w3.org/2000/svg" viewBox="0 0 512 512" xml:space="preserve"><path d="M510.3 368c-21.2-4.1-55.6-11.8-98.9-25.2-.4-1.3-.9-2.6-1.3-4.1v-.1c-.2-.7-.5-1.5-.7-2.3 0-.2-.1-.3-.1-.4-.2-.8-.5-1.6-.7-2.4 0-.2-.1-.3-.1-.5-.2-.8-.5-1.7-.7-2.5 0-.2-.1-.3-.1-.5-.2-.9-.5-1.8-.7-2.7 0-.1 0-.2-.1-.3-2.4-9.4-4.9-20.7-6.9-34-.6-4.2-1.3-8.6-1.8-13.1-2.6-21.9-5.7-47.4-8.5-70.6-4.8-40.2-38.9-70.4-79.4-70.4 0 0-27.1 5-54.1 5s-54.1-5-54.1-5c-40.5 0-74.6 30.2-79.4 70.4-2.8 23.2-5.9 48.7-8.5 70.6-.6 4.6-1.2 8.9-1.8 13.1-2 13.3-4.5 24.6-6.9 34 0 .1 0 .2-.1.3-.2.9-.5 1.9-.7 2.8 0 .1-.1.3-.1.4-.2.9-.5 1.7-.7 2.5 0 .2-.1.3-.1.5-.2.8-.5 1.6-.7 2.4 0 .2-.1.3-.1.4-.2.8-.5 1.6-.7 2.3v.1c-.4 1.4-.9 2.7-1.3 4C57.4 356.3 22.9 364 1.7 368c-2.6.5-2.2 4 .5 4l47.8 1 206-1 206 1 47.8-1c2.6 0 3-3.5.5-4z" opacity=".1" fill="#fff"/><path d="M256 277c-48.9 0-97 5.4-143.8 16.1.6-4.2 1.2-8.5 1.8-13.1 2.6-21.9 5.7-47.4 8.5-70.6 4.8-40.2 38.9-70.4 79.4-70.4 0 0 27.1 5 54.1 5s54.1-5 54.1-5c40.5 0 74.6 30.2 79.4 70.4 2.8 23.2 5.9 48.7 8.5 70.6.6 4.6 1.2 8.9 1.8 13.1C353 282.4 304.9 277 256 277zm254.3 91c-26.3-5.1-73.1-15.7-132-36-84.8-20-159.8-20-244.6 0-58.8 20.3-105.7 31-132 36-2.6.5-2.2 4 .5 4l47.8 1 206-1 206 1 47.8-1c2.6 0 3-3.5.5-4z" fill="#fff"/></svg>