<svg xmlns="http://www.w3.org/2000/svg" viewBox="0 0 512 512" xml:space="preserve"><path d="M510.3 368c-21.2-4.1-55.6-11.8-98.9-25.2-.4-1.3-.9-2.6-1.3-4.1v-.1c-.2-.7-.5-1.5-.7-2.3 0-.2-.1-.3-.1-.4-.2-.8-.5-1.6-.7-2.4 0-.2-.1-.3-.1-.5-.2-.8-.5-1.7-.7-2.5 0-.2-.1-.3-.1-.5-.2-.9-.5-1.8-.7-2.7 0-.1 0-.2-.1-.3-2.4-9.4-4.9-20.7-6.9-34-.6-4.2-1.3-8.6-1.8-13.1-2.6-21.9-5.7-47.4-8.5-70.6-4.8-40.2-38.9-70.4-79.4-70.4 0 0-27.1 5-54.1 5s-54.1-5-54.1-5c-40.5 0-74.6 30.2-79.4 70.4-2.8 23.2-5.9 48.7-8.5 70.6-.6 4.6-1.2 8.9-1.8 13.1-2 13.3-4.5 24.6-6.9 34 0 .1 0 .2-.1.3-.2.9-.5 1.9-.7 2.8 0 .1-.1.3-.1.4-.2.9-.5 1.7-.7 2.5 0 .2-.1.3-.1.5-.2.8-.5 1.6-.7 2.4 0 .2-.1.3-.1.4-.2.8-.5 1.6-.7 2.3v.1c-.4 1.4-.9 2.7-1.3 4C57.4 356.3 22.9 364 1.7 368c-2.6.5-2.2 4 .5 4l47.8 1 206-1 206 1 47.8-1c2.6 0 3-3.5.5-4z" opacity=".1" fill="#fff"/><path d="M511.9 369.5c-.1-.3-.3-.7-.5-.9-.3-.3-.7-.5-1.1-.5h-.2c-.7-.1-1.4-.3-2.1-.4-.3-.1-.6-.1-.9-.2-.5-.1-1-.2-1.6-.3-.3-.1-.7-.1-1-.2-.5-.1-1-.2-1.6-.3-.3-.1-.7-.1-1-.2-.6-.1-1.2-.2-1.8-.4-.4-.1-.9-.2-1.3-.3-.7-.1-1.4-.3-2.1-.4-.4-.1-.9-.2-1.3-.3l-1.5-.3-1.5-.3c-.5-.1-.9-.2-1.4-.3-.5-.1-1.1-.2-1.6-.4-.4-.1-.8-.2-1.3-.3-1.3-.3-2.7-.6-4.1-.9-.1 0-.2 0-.3-.1-.7-.2-1.4-.3-2.1-.5-.4-.1-.7-.2-1.1-.2-.7-.2-1.4-.3-2.1-.5-.3-.1-.7-.2-1-.2-.8-.2-1.5-.4-2.3-.5-.2 0-.4-.1-.6-.1-2.7-.7-5.6-1.4-8.5-2.1-.1 0-.3-.1-.4-.1-.9-.2-1.9-.5-2.8-.7-.2 0-.4-.1-.6-.1-1-.2-2-.5-3-.8h-.1c-4.3-1.1-8.8-2.3-13.5-3.6-.1 0-.3-.1-.4-.1-1.1-.3-2.2-.6-3.4-.9h-.1c-4.7-1.3-9.6-2.7-14.6-4.2-.2 0-.3-.1-.5-.1-1.2-.3-2.4-.7-3.6-1.1-.1 0-.2-.1-.3-.1-3.8-1.1-7.8-2.3-11.8-3.6-.4-1.3-.9-2.6-1.3-4.1v-.1c-.2-.7-.5-1.5-.7-2.3 0-.2-.1-.3-.1-.4-.2-.8-.5-1.6-.7-2.4 0-.2-.1-.3-.1-.5-.2-.8-.5-1.7-.7-2.5 0-.2-.1-.3-.1-.5-.2-.9-.5-1.8-.7-2.7 0-.1 0-.2-.1-.3-2.4-9.4-4.9-20.7-6.9-34-.6-4.2-1.3-8.6-1.8-13.1-1.7-13.7-3.5-28.8-5.3-43.8-1.1-9-2.2-18.1-3.2-26.8-.3-2.5-.7-5-1.2-7.4l-.9-3.6c-.6-2.4-1.4-4.7-2.2-7-.4-1.1-.9-2.3-1.3-3.4-3.3-7.8-7.8-15-13.2-21.3-3.1-3.6-6.5-6.9-10.2-9.9-8.3-6.7-17.9-11.8-28.4-14.8-2.3-.7-4.7-1.2-7.1-1.7-2.4-.5-4.9-.8-7.3-1s-5-.3-7.5-.3c0 0-27.1 5-54.1 5s-54.1-5-54.1-5c-24 0-45.8 10.7-60.6 27.7-5.4 6.3-9.9 13.5-13.2 21.3-.5 1.1-.9 2.2-1.3 3.4-.8 2.3-1.6 4.6-2.2 7l-.9 3.6c-.5 2.4-.9 4.9-1.2 7.4-.5 4.4-1.1 8.8-1.6 13.3-1.1 8.9-2.2 18.1-3.3 27-.5 4.5-1.1 8.9-1.6 13.3-.7 5.8-1.4 11.5-2.1 17-.4 3.3-.8 6.5-1.3 9.6-.2 1.2-.4 2.4-.5 3.6-2 13.3-4.5 24.6-6.9 34 0 .1 0 .2-.1.3-.2.9-.5 1.9-.7 2.8 0 .1-.1.3-.1.4-.2.9-.5 1.7-.7 2.5 0 .2-.1.3-.1.5-.2.8-.5 1.6-.7 2.4 0 .2-.1.3-.1.4-.2.8-.5 1.6-.7 2.3v.1c-.4 1.4-.9 2.7-1.3 4-4 1.2-7.9 2.4-11.8 3.6-.1 0-.2.1-.3.1-1.2.4-2.4.7-3.6 1.1-.2 0-.3.1-.5.1-6.2 1.8-12.3 3.5-18.1 5.1-.1 0-.3.1-.4.1-4.6 1.3-9.1 2.5-13.4 3.6h-.1c-1 .3-2 .5-3 .8-.2.1-.4.1-.6.2-.9.2-1.9.5-2.8.7-.1 0-.3.1-.4.1-2.9.7-5.7 1.4-8.5 2.1-.2 0-.4.1-.6.1-.8.2-1.5.4-2.3.5-.3.1-.7.2-1 .2-.7.2-1.4.3-2.1.5-.3.1-.7.2-1 .2-.7.2-1.4.3-2.1.5-.1 0-.2 0-.3.1l-4.2.9-1.2.3c-.5.1-1.1.2-1.6.4-.5.1-.9.2-1.4.3l-1.5.3-1.5.3c-.4.1-.9.2-1.3.3-.7.2-1.4.3-2.1.4-.4.1-.9.2-1.3.3-.6.1-1.2.3-1.8.4-.3.1-.7.1-1 .2-.5.1-1 .2-1.6.3-.3.1-.7.1-1 .2-.5.1-1 .2-1.6.3-.3.1-.6.1-.9.2-.7.1-1.4.3-2.1.4h-.2c-.5.1-.9.3-1.1.5-.3.3-.5.6-.5.9 0 .1 0 .2-.1.3s0 .2 0 .3c.1.9.9 1.8 2.2 1.8l47.8 1 206-1 206 1 47.8-1c.7 0 1.2-.2 1.6-.5s.6-.8.6-1.2v-.3c.4-.3.4-.4.3-.5zm-401.5-30.8.1-.2.1-.3c.2-.8.5-1.6.7-2.4l.1-.2.1-.4c.2-.8.5-1.7.7-2.6l.1-.5c.3-.9.5-1.9.8-2.9v-.2c2.8-10.8 5.2-22.5 7.1-34.8.2-1 .3-2.1.5-3.1 44-9.3 89.3-14.1 135.3-14.1 46 0 91.3 4.8 135.4 14.3.1 1 .3 2 .5 3.1 1.9 12.3 4.3 24 7.1 34.8v.1l.1.2c.3 1 .5 1.9.8 2.8l.1.4v.1c.2.9.5 1.7.7 2.6l.1.3.1.2c.2.8.5 1.6.7 2.4l.1.3.1.2c.1.4.2.8.4 1.2-7.7-2.5-15.6-5.1-23.7-7.9-84.8-20-159.8-20-244.6 0-8.1 2.8-16 5.4-23.7 7.9-.1-.5 0-.9.2-1.3z" fill="#fff"/></svg>