<svg version="1.1" xmlns="http://www.w3.org/2000/svg" x="0" y="0" viewBox="0 0 512 512" xml:space="preserve"><path d="M407.1 380.3c-.2-.4-.5-.8-.7-1.1-3-16-6.1-35.2-8.5-57.2-1.7-15.7-3.1-32.7-4-51-.5-11.9-.9-24.2-.9-37 0-80.3 23.1-159.6 37.9-202.1C436.3 16.3 424.8 0 408.3 0H103.7c-16.5 0-28 16.3-22.6 31.9C95.9 74.4 119 153.7 119 234c0 12.8-.3 25.1-.9 37-.8 18.3-2.2 35.3-4 51-2.4 21.9-5.5 41.2-8.5 57.2-.2.4-.5.8-.7 1.1C41.3 364.6 0 352.9 0 392.5 0 458.5 114.6 512 256 512s256-53.5 256-119.5c0-39.6-41.3-27.9-104.9-12.2z" opacity=".1" fill="#fff"/><path d="M512 392.5c0 66-114.6 119.5-256 119.5S0 458.5 0 392.5c0-39.6 41.3-27.9 104.9-12.2-8.6 13.2-21.7 27-23.2 32.7-2.2 8.4-.4 17.3 5 24.2C92 444 100.1 448 108.9 448h294.2c8.7 0 16.8-4 22.1-10.9 5.3-6.9 7.1-15.7 5-24.2-1.5-5.7-14.6-19.4-23.2-32.7 63.7-15.6 105-27.3 105 12.3zM81.1 31.9c-2.9-8.3-1-16.8 3.9-22.9.6-.7 1.2-1.4 1.9-2.1.3-.3.7-.6 1-.9.7-.6 1.4-1.2 2.2-1.7.4-.3.8-.5 1.2-.8C94.8 1.3 99.1 0 103.7 0h304.6c16.5 0 28.1 16.3 22.7 31.9-14.9 42.5-38 121.8-38 202.1 0 9.6.2 18.9.5 28 .1 3 .2 6 .4 9 .8 18.3 2.2 35.3 4 51 2.1 19.2 4.7 36.4 7.4 51.1 2.3 12.6 4.6 23.4 6.7 32.2.3 1.5.7 2.9 1 4.2.3 1.4.6 2.6 1 3.9.3 1.2.6 2.4.9 3.5.5 1.9.5 3.8.1 5.5-.3 1.3-.8 2.6-1.5 3.7-.5.8-1 1.5-1.6 2.1-.6.6-1.3 1.2-2.1 1.7-.4.2-.8.5-1.2.7-.8.4-1.7.7-2.6.9-.9.2-1.9.3-2.8.3H108.9c-7.8 0-13.6-7.4-11.6-15 .3-1.1.6-2.3.9-3.5.3-1.2.6-2.5 1-3.9.3-1.4.7-2.8 1-4.2.7-3.1 1.5-6.4 2.2-9.9.3-1.4.6-2.8.9-4.3.1-.3.1-.7.2-1 .3-1.4.6-2.9.9-4.4.2-1.1.5-2.3.7-3.5.6-2.9 1.1-6 1.7-9.1s1.1-6.4 1.7-9.8c.6-3.4 1.1-6.9 1.7-10.4.2-1.2.4-2.4.5-3.6 1.1-7.3 2.1-15 3-23.2.2-1.4.3-2.7.5-4.1 1.7-15.7 3.1-32.7 4-51 .3-5.9.5-12 .6-18.1.1-6.2.2-12.5.2-18.9 0-80.2-23.1-159.5-37.9-202zM385.9 271H126.1v.4c-.8 17-2.1 34-3.9 50.6h267.6c-1.8-16.6-3.1-33.7-3.9-50.6v-.4z" fill="#fff"/></svg>