<svg version="1.1" xmlns="http://www.w3.org/2000/svg" x="0" y="0" viewBox="0 0 512 512" xml:space="preserve"><path d="M156.6 381.1c17.7-3.8 34.1-11.6 47.6-22.8l5-4.1c-2.3-12.1-3.7-24.4-4.1-36.7l-.1-3.8c-.4-12.5.2-25.1 1.8-37.5 2.3-17.9 2.4-36.3-.1-54.9-.7-5.5-1.7-11-2.8-16.5-6.2-29.1-18.1-55.5-34.2-78.3-5.5-7.7-14-12.8-23.4-13.8-8.5-1-17.3-.6-26.1 1.3-6.1 1.3-11.9 3.3-17.3 5.8-7.6 3.5-13.5 9.9-16.8 17.6-11.4 26.8-18.6 55.6-20.9 85.4-1.9 25.3-.4 51.3 5.2 77.3 4.9 22.8 15.7 38 25.6 58 3.6 7.2 6.7 14.7 9.3 22.3l6.4 1.3c14.7 2.7 29.8 2.6 44.9-.6zm80.5 59.6c-.7-3.4-1.7-6.6-3-9.7l-14.3-38.3c-3-8.1-5.6-16.4-7.7-24.7-14.6 12.1-32.6 21.1-53 25.4-17.2 3.6-34.1 3.6-50 .4 0 .1.1.2.1.4l11.8 68.7h.1c.1.8.3 1.5.4 2.3 6.8 31.9 38.1 52.3 70 45.5s52.4-38.1 45.6-70zm-87.3-29.8c-.1 0-.1 0 0 0zm203-129.5c-20.4-4.3-38.4-13.3-53-25.4-2.1 8.4-4.7 16.6-7.7 24.7L277.8 319c-1.2 3.1-2.2 6.3-3 9.7-6.8 31.9 13.6 63.3 45.5 70 31.9 6.8 63.3-13.6 70-45.5.2-.8.3-1.5.4-2.3h.1l11.8-68.7c0-.1.1-.2.1-.4-15.8 3.2-32.7 3.2-49.9-.4zm9.5 17.5zm84.5-188.4c-2.3-29.8-9.5-58.6-20.9-85.4-3.3-7.7-9.2-14-16.8-17.6-5.4-2.5-11.2-4.5-17.3-5.8-8.9-1.9-17.7-2.2-26.1-1.3-9.4 1.1-17.9 6.1-23.4 13.8-16.1 22.8-28 49.2-34.2 78.3-1.2 5.5-2.1 11-2.8 16.5-2.5 18.6-2.4 37-.1 54.9 1.6 12.4 2.2 25 1.8 37.5l-.1 3.8c-.4 12.3-1.8 24.6-4.1 36.7l5 4.1c13.4 11.2 29.9 19 47.6 22.8 15.1 3.2 30.2 3.3 44.9.4l6.4-1.3c2.6-7.6 5.7-15.1 9.3-22.3 9.9-20 20.8-35.2 25.6-58 5.6-25.8 7.2-51.8 5.2-77.1z" fill="#fff"/></svg>