<svg version="1.1" xmlns="http://www.w3.org/2000/svg" x="0" y="0" viewBox="0 0 512 512" xml:space="preserve"><path d="M499.4 102.2c-19.6-4.1-38.8-9.7-57.6-16.7l-33.4-12.6-24.4-9.2c-13.6-5.1-26.2-12.5-37.3-21.8L318 0v16.6c0 7-2 13.8-5.8 19.6-.1.1-.1.2-.2.3-.2.3-.5.7-.7 1-.1.2-.3.4-.5.6-.2.2-.3.5-.5.7-.3.4-.7.9-1 1.3l-37.4 43.4c-5 1.6-10.4 2.5-15.9 2.5-5.6 0-10.9-.9-15.9-2.5l-37.4-43.4c-.4-.4-.7-.9-1.1-1.3-.2-.2-.3-.5-.5-.7-.2-.2-.3-.4-.5-.6-.2-.3-.5-.7-.7-1-.1-.1-.1-.2-.2-.3-3.7-5.8-5.8-12.6-5.8-19.6V0l-28.7 42c-5.7 4.8-11.8 9-18.3 12.8-.2.1-.3.2-.5.3-.8.5-1.7.9-2.5 1.4-.3.2-.6.3-.9.5-4.9 2.6-9.9 4.8-15 6.8L70.1 85.4c-18.7 7-38 12.6-57.6 16.7-4.6 1-7.4 5.7-6 10.2L48 246.1c10.7 34.5 17.7 70 20.9 106L83 512h346l14.2-159.9c3.2-36 10.2-71.5 20.9-106l41.4-133.7c1.3-4.5-1.5-9.2-6.1-10.2z" opacity=".1" fill="#fff"/><path d="M228.8 439c0 .4-.3.8-.8.8s-.8-.4-.8-.8.4-.8.8-.8.8.4.8.8zM165.3 42c-1.4 1.2-2.8 2.3-4.3 3.4 1.4-1.1 2.8-2.2 4.3-3.4zM231 439.8c.4 0 .8-.4.8-.8s-.4-.8-.8-.8-.8.4-.8.8.3.8.8.8zm0-4.5c-.4 0-.8.4-.8.8s.3.8.8.8c.4 0 .8-.4.8-.8s-.4-.8-.8-.8zM355.5 48.6c2.8 2 5.7 3.8 8.7 5.6-3-1.7-5.9-3.6-8.7-5.6zM222.6 377.8l-47.6-48c-12.3-12.3-22.1-26.6-29.2-42.5L73.3 125.6l-3.9-8.8 5.9-7.6 28.2-36.3-33.4 12.5c-18.7 7-38 12.6-57.6 16.7-4.6 1-7.4 5.7-6 10.2L48 246.1c10.7 34.5 17.7 70 20.9 106L83 512h113.9v-83.9l1.7-3.4 14.3-27.9 9.7-19zm95.4 60.4c-.4 0-.8.4-.8.8s.3.8.8.8.8-.4.8-.8-.4-.8-.8-.8zm-90-2.9c-.4 0-.8.4-.8.8s.3.8.8.8.8-.4.8-.8-.4-.8-.8-.8zm277.5-322.9-41.4 133.7c-10.7 34.5-17.7 70-20.9 106L429 512H212.9v-80l.2-.3 29.1-57-21.5-21.7h-.2v-.2l-34-34.3a126.26 126.26 0 0 1-26-37.8L88 119l44.2-56.9c11.9-5 23.1-11.7 33-19.9L194 0v16.6c0 6.4 1.7 12.7 5 18.2-.1-.2-.3-.4-.4-.6.4.8.9 1.5 1.4 2.3.4.6.8 1.1 1.2 1.6.1.1.2.2.3.4.4.6.9 1.1 1.3 1.6l37.4 43.4c1.8.6 3.6 1 5.4 1.4.3.1.5.1.8.1l1.5.3 2.1.3c.3 0 .6.1.9.1.6.1 1.2.1 1.8.2.3 0 .6 0 .8.1.9 0 1.7.1 2.6.1.9 0 1.7 0 2.6-.1h.8c.6 0 1.2-.1 1.8-.2.3 0 .6-.1.9-.1l2.1-.3 1.5-.3c.2 0 .5-.1.7-.1 1.8-.4 3.7-.9 5.4-1.4l37.4-43.4c.6-.7 1.2-1.5 1.8-2.3.2-.2.3-.4.4-.6.2-.2.3-.5.5-.7.5-.7 1-1.5 1.4-2.3-.1.2-.3.4-.4.6 3.2-5.5 5-11.8 5-18.2V0l28.7 41.9c.4.3.8.6 1.2 1l-1.2-.9.1.2c9.9 8.2 21 14.9 33 19.9L424 119l-72.4 161.7c-6.4 14-15.1 26.9-26 37.8l-34.1 34.4v.1h-.1L268 376.6l50.1-27.8 18.9-19c12.3-12.4 22.1-26.7 29.2-42.5l72.5-161.7 3.9-8.8-6-7.6-28.2-36.3 33.4 12.6c18.8 7 38 12.6 57.6 16.7 4.6 1 7.4 5.7 6.1 10.2zM268 147l18.4 83.9c1.7 8.1 2.7 16.3 2.9 24.5l.6 26 34.3-67.2c6.5-12.7 10.8-26.5 12.8-40.6l9.6-69-1.2-50.4-20.1-29.4c-1.4 7.6-4.8 14.7-9.9 20.6l-33 38.3c.3.8.3 1.7 0 2.5L268 133v14zm-30.9 290.6c-.1-.2-.1-.4-.1-.5v-.8c0-.1 0-.2-.1-.4 0-.1-.1-.2-.1-.4-.3-1.1-.8-2.1-1.5-2.9l-.1-.1c-.1-.1-.2-.2-.2-.3s-.2-.2-.3-.3c-.1-.1-.2-.2-.3-.2l-.1-.1c-.8-.7-1.8-1.2-2.9-1.5-.1 0-.2-.1-.4-.1-.1 0-.2 0-.4-.1h-1.2c-.4 0-.8 0-1.1.1-.1 0-.2 0-.4.1-.1 0-.2.1-.4.1-.1 0-.2.1-.4.1-.5.2-1 .4-1.5.7-.1.1-.2.1-.3.2-.1.1-.2.1-.3.2-.1.1-.3.2-.4.3-.2.2-.5.4-.7.6-.1.1-.2.2-.2.3-.1.1-.2.3-.3.4-.6.8-1 1.7-1.3 2.6 0 .1-.1.2-.1.4 0 .1 0 .2-.1.4v1.2c0 4.1 3.4 7.5 7.5 7.5h1.2c.1 0 .2 0 .4-.1.1 0 .2-.1.4-.1 1-.2 1.8-.7 2.6-1.3.1-.1.3-.2.4-.3.1-.1.2-.2.3-.2.2-.2.4-.4.6-.7.1-.1.2-.3.3-.4.1-.1.1-.2.2-.3s.1-.2.2-.3c.3-.5.5-1 .7-1.5 0-.1.1-.2.1-.4 0-.1.1-.2.1-.4 0-.1 0-.2.1-.4.1-.4.1-.8.1-1.1zM244 133l-14.4-46.8c-.3-.9-.2-1.8 0-2.5l-33-38.3c-5.1-5.9-8.5-13-9.9-20.6l-20.1 29.4-1.3 49.6 9.7 69.8c2 14.2 6.3 27.9 12.8 40.6l34.3 67.2.6-26c.2-8.3 1.1-16.5 2.9-24.5L244 147v-14zm83.1 304.6c-.1-.2-.1-.4-.1-.5v-.8c0-.1 0-.2-.1-.4 0-.1-.1-.2-.1-.4-.3-1.1-.8-2.1-1.5-2.9l-.1-.1c-.1-.1-.2-.2-.2-.3s-.2-.2-.3-.3-.2-.2-.3-.2l-.1-.1c-.8-.7-1.8-1.2-2.9-1.5-.1 0-.2-.1-.4-.1-.1 0-.2 0-.4-.1h-1.2c-.4 0-.8 0-1.1.1-.1 0-.2 0-.4.1-.1 0-.2.1-.4.1-.1 0-.2.1-.4.1-.5.2-1 .4-1.5.7-.1.1-.2.1-.3.2-.1.1-.2.1-.3.2-.1.1-.3.2-.4.3-.2.2-.5.4-.7.6-.1.1-.2.2-.2.3-.1.1-.2.3-.3.4-.6.8-1 1.7-1.3 2.6 0 .1-.1.2-.1.4 0 .1 0 .2-.1.4v1.2c0 4.1 3.4 7.5 7.5 7.5h1.2c.1 0 .2 0 .4-.1.1 0 .2-.1.4-.1 1-.2 1.8-.7 2.6-1.3.1-.1.3-.2.4-.3.1-.1.2-.2.3-.2.2-.2.4-.4.6-.7.1-.1.2-.3.3-.4.1-.1.1-.2.2-.3.1-.1.1-.2.2-.3.3-.5.5-1 .7-1.5 0-.1.1-.2.1-.4 0-.1.1-.2.1-.4 0-.1 0-.2.1-.4.1-.4.1-.8.1-1.1zm-6.1-2.3c-.4 0-.8.4-.8.8s.3.8.8.8c.4 0 .8-.4.8-.8s-.4-.8-.8-.8zm-3 0c-.4 0-.8.4-.8.8s.3.8.8.8.8-.4.8-.8-.4-.8-.8-.8zm3 4.5c.4 0 .8-.4.8-.8s-.4-.8-.8-.8-.8.4-.8.8.3.8.8.8z" fill="#fff"/></svg>