<svg version="1.1" xmlns="http://www.w3.org/2000/svg" x="0" y="0" viewBox="0 0 512 512" xml:space="preserve"><path d="m410.4 495.6-13.9 1.5-.4-4-.4-4 13.9-1.5.4 4 .4 4zm.7 5.9-.4-4-13.9 1.5.4 4 .4 4 13.9-1.5-.4-4zm-2.1-19.9-.4-4-13.9 1.5.4 4 .4 4 13.9-1.5-.4-4zm-1-9.9-.4-4-13.9 1.5.4 4 .4 4 13.9-1.5-.4-4zm-1.1-10-.4-4-13.9 1.5.4 4 .4 4 13.9-1.5-.4-4zm-1-9.9-.4-4-13.9 1.5.4 4 .4 4 13.9-1.5-.4-4zm6.2 59.7-.4-4-13.9 1.5.3 3h14.1l-.1-.5zm-9.4-89.5-.4-4-13.9 1.5.4 4 .4 4 13.9-1.5-.4-4zM102 491.6l-.4 4 13.9 1.5.4-4 .4-4-13.9-1.5-.4 4zm7.3-69.6-.4 4 13.9 1.5.4-4 .4-4-13.9-1.5-.4 4zm-1.1 9.9-.4 4 13.9 1.5.4-4 .4-4-13.9-1.5-.4 4zm-1 9.9-.4 4 13.9 1.5.4-4 .4-4-13.9-1.5-.4 4zm-4.2 39.8-.4 4 13.9 1.5.4-4 .4-4-13.9-1.5-.4 4zm2.1-19.9-.4 4 13.9 1.5.4-4 .4-4-13.9-1.5-.4 4zm-1.1 10-.4 4 13.9 1.5.4-4 .4-4-13.9-1.5-.4 4zm2.1-19.9-.4 4 13.9 1.5.4-4 .4-4-13.9-1.5-.4 4zm294.5-49.7-.4-4-12.5 1.3-1.2 3 .1 1.2.4 4 14-1.6-.4-3.9zm1.1 9.9-.4-4-13.9 1.5.4 4 .4 4 13.9-1.5-.4-4zm-36.1 20.8-6.1 5.8 6.6 73.3h20.1l-8.4-93.6c-3.6 5.3-7.6 10.1-12.2 14.5zm-253.8-34.7-.4 4-.4 4 13.9 1.5.4-4 .1-1.2c-.4-1-.8-2-1.1-3l-12.5-1.3zm-1.5 13.9-.4 4 13.9 1.5.4-4 .4-4-13.9-1.5-.4 4zm23.9 6.4-8.4 93.5h20.1l6.6-73.3-6.1-5.8c-4.6-4.4-8.6-9.2-12.2-14.4zm137.9 71.8h-32.2c-21.7 0-42.2-8.3-57.9-23.2l-21-20.1V512h190v-65.2L330 467c-15.6 15-36.2 23.2-57.9 23.2zM99.9 511.5l-.1.5h14.1l.3-3-13.9-1.5-.4 4zM396 358.3l-1.4.1-.6 8.1 2.8-.3-.4-4-.4-3.9zm-4.5 28.6 7.5-.8-.5-3.9-.4-4-5.2.5c-.4 2.8-.8 5.5-1.4 8.2zm-3 10.4 11.5-1.2-.4-4-.4-4-8.2.9c-.7 2.8-1.5 5.6-2.5 8.3zm-274-25-.4 4 4.7.5-.3-2.7-.4-5.5-3.2-.3-.4 4zm289.3 59.6-.4-4-13.9 1.5.4 4 .4 4 13.9-1.5-.4-4zM393.5 374l-.3 2.7 4.7-.5-.4-4-.4-4-3.2.3-.4 5.5zm-281.1 18.1-.4 4 11.5 1.2c-1-2.7-1.8-5.5-2.5-8.3l-8.2-.9-.4 4zm3.6-33.8-.4 4-.4 4 2.8.3-.6-8.1-1.4-.2zm-2.5 23.9-.4 4 7.5.8c-.6-2.7-1.1-5.4-1.4-8.2l-5.2-.5-.5 3.9zm-12.6 119.3-.4 4 13.9 1.5.4-4 .4-4-13.9-1.5-.4 4zm303.9-59.7-.4-4-13.9 1.5.4 4 .4 4 13.9-1.5-.4-4zM117.5 255.6c-5.1-17.6-7.1-36.1-5.7-54.6.5-6.2 2.4-12.1 5.5-17.3v-51.8c0-.9.1-1.9.1-2.8v-.4c.7-14 3.5-27.5 8.2-40v.1C144.9 37 194.8 0 253.3 0h5.3c58.5 0 108.3 36.9 127.5 88.7.1.1.1.3.1.4s.1.2.1.4c5.3 14.5 8.2 30.2 8.2 46.5v47.4c3.2 5.3 5.2 11.3 5.7 17.6 1.4 18.7-.7 37.5-6 55.4-.2 3.9-.4 7.8-.7 11.7l-8.2 105.4c-.1 1.3-.2 2.5-.4 3.8-1.1 8.8-3.6 17.4-7.4 25.4-.5 1.1-1.1 2.3-1.7 3.4-2.4 4.4-5.1 8.7-8.3 12.6-2.4 3-4.9 5.8-7.7 8.4l-35.6 34.1c-.9.8-1.8 1.7-2.7 2.5-1.8 1.6-3.7 3.1-5.7 4.5-2.9 2.1-6 4-9.2 5.6-2.1 1.1-4.3 2.1-6.5 3-3.3 1.3-6.8 2.4-10.2 3.3-2.3.6-4.7 1-7.1 1.4-3.6.5-7.2.8-10.9.8h-32.2c-19.5 0-38.2-7.5-52.3-21l-35.6-34.1C137 413 128 393.9 126.4 373.5l-8.2-105.4c-.3-4.2-.5-8.4-.7-12.5z" opacity=".1" fill="#fff"/><path d="m410.4 495.6-13.9 1.5-.4-4-.4-4 13.9-1.5.4 4 .4 4zm.7 5.9-.4-4-13.9 1.5.4 4 .4 4 13.9-1.5-.4-4zm-2.1-19.9-.4-4-13.9 1.5.4 4 .4 4 13.9-1.5-.4-4zM261 265.8c-.3-.5-1.1-.4-1.1.2v54.9c0 6.2 7 9.7 12 5.9l1.4-1c3.3-2.5 4.6-6.8 3.4-10.7L261 265.8zm88-60.1-14.3 1.9c6.6 4.4 11 11.9 11 20.5 0 13.5-11 24.5-24.5 24.5s-24.5-11-24.5-24.5c0-6.2 2.3-11.8 6.1-16.2l-12.4 1.7c-6 .8-11.2 4.7-13.6 10.3-5 11.5-.2 25 11 30.7l3.4 1.7c15.7 8.1 33.5 11.1 51 8.7 12.6-1.8 22.4-12 23.5-24.8l1.5-17.3c.8-10.2-8-18.6-18.2-17.2zm-42.5 22.4c0-8.1 6.6-14.7 14.7-14.7s14.7 6.6 14.7 14.7-6.6 14.7-14.7 14.7-14.7-6.6-14.7-14.7zm7.1 0c0 4.2 3.4 7.6 7.6 7.6s7.6-3.4 7.6-7.6-3.4-7.6-7.6-7.6-7.6 3.4-7.6 7.6zM408 471.7l-.4-4-13.9 1.5.4 4 .4 4 13.9-1.5-.4-4zm-124.1-80.8zm123 70.8-.4-4-13.9 1.5.4 4 .4 4 13.9-1.5-.4-4zm-141-74.6zM140.8 115.2c-1.6.2-2.8 1.6-2.7 3.3.6 6.4.9 12.9.9 19.5 0 2.8 0 5.5-.1 8.2 0 1.7 1.2 3 2.9 3.1h.1c1.6 0 2.9-1.3 3-2.9 0-2.8.1-5.6.1-8.4 0-6.8-.3-13.5-.9-20.1-.2-1.6-1.7-2.9-3.3-2.7zm229.3 34.1c1.8-.1 3.1-1.4 3-3.1-.1-2.7-.1-5.4-.1-8.2 0-6.6.3-13.1.9-19.5.1-1.7-1.1-3.1-2.7-3.3-1.6-.2-3.1 1.1-3.3 2.7-.6 6.6-.9 13.3-.9 20.1 0 2.8 0 5.6.1 8.4.1 1.6 1.4 2.9 3 2.9zm35.8 302.5-.4-4-13.9 1.5.4 4 .4 4 13.9-1.5-.4-4zm-186.3-79.9zm-43.5-143.8c0-8.1 6.6-14.7 14.7-14.7s14.7 6.6 14.7 14.7-6.6 14.7-14.7 14.7-14.7-6.6-14.7-14.7zm7.1 0c0 4.2 3.4 7.6 7.6 7.6 4.2 0 7.6-3.4 7.6-7.6s-3.4-7.6-7.6-7.6-7.6 3.4-7.6 7.6zm228.9 283.4-.4-4-13.9 1.5.3 3h14.1l-.1-.5zM235.2 223.9c-2.4-5.6-7.6-9.5-13.6-10.3l-12.4-1.7c3.8 4.3 6.1 10 6.1 16.2 0 13.5-11 24.5-24.5 24.5s-24.5-11-24.5-24.5c0-8.6 4.4-16.1 11-20.5l-14.3-1.9c-10.1-1.4-19 7-18.1 17.2l1.5 17.3c1.1 12.7 10.9 23 23.5 24.8 17.5 2.5 35.3-.6 51-8.7l3.4-1.7c11.1-5.8 15.9-19.2 10.9-30.7zM402.7 422l-.4-4-13.9 1.5.4 4 .4 4 13.9-1.5-.4-4zM251 265.8l-15.7 49.3c-1.2 3.9.1 8.2 3.4 10.7l1.4 1c4.9 3.8 12 .3 12-5.9V266c0-.6-.8-.7-1.1-.2zM102 491.6l-.4 4 13.9 1.5.4-4 .4-4-13.9-1.5-.4 4zm7.3-69.6-.4 4 13.9 1.5.4-4 .4-4-13.9-1.5-.4 4zm-1.1 9.9-.4 4 13.9 1.5.4-4 .4-4-13.9-1.5-.4 4zm-1 9.9-.4 4 13.9 1.5.4-4 .4-4-13.9-1.5-.4 4zm-4.2 39.8-.4 4 13.9 1.5.4-4 .4-4-13.9-1.5-.4 4zm2.1-19.9-.4 4 13.9 1.5.4-4 .4-4-13.9-1.5-.4 4zm-1.1 10-.4 4 13.9 1.5.4-4 .4-4-13.9-1.5-.4 4zm2.1-19.9-.4 4 13.9 1.5.4-4 .4-4-13.9-1.5-.4 4zm294.5-49.7-.4-4-12.5 1.3-1.2 3 .1 1.2.4 4 14-1.6-.4-3.9zm1.1 9.9-.4-4-13.9 1.5.4 4 .4 4 13.9-1.5-.4-4zm-36.1 20.8-6.1 5.8 6.6 73.3h20.1l-8.4-93.6c-3.6 5.3-7.6 10.1-12.2 14.5zm-253.8-34.7-.4 4-.4 4 13.9 1.5.4-4 .1-1.2c-.4-1-.8-2-1.1-3l-12.5-1.3zm-1.5 13.9-.4 4 13.9 1.5.4-4 .4-4-13.9-1.5-.4 4zm23.9 6.4-8.4 93.5h20.1l6.6-73.3-6.1-5.8c-4.6-4.4-8.6-9.2-12.2-14.4zm137.9 71.8h-32.2c-21.7 0-42.2-8.3-57.9-23.2l-21-20.1V512h190v-65.2L330 467c-15.6 15-36.2 23.2-57.9 23.2zM99.9 511.5l-.1.5h14.1l.3-3-13.9-1.5-.4 4zM396 358.3l-1.4.1-.6 8.1 2.8-.3-.4-4-.4-3.9zm-4.5 28.6 7.5-.8-.5-3.9-.4-4-5.2.5c-.4 2.8-.8 5.5-1.4 8.2zm-3 10.4 11.5-1.2-.4-4-.4-4-8.2.9c-.7 2.8-1.5 5.6-2.5 8.3zm-274-25-.4 4 4.7.5-.3-2.7-.4-5.5-3.2-.3-.4 4zm289.3 59.6-.4-4-13.9 1.5.4 4 .4 4 13.9-1.5-.4-4zM393.5 374l-.3 2.7 4.7-.5-.4-4-.4-4-3.2.3-.4 5.5zm-281.1 18.1-.4 4 11.5 1.2c-1-2.7-1.8-5.5-2.5-8.3l-8.2-.9-.4 4zm3.6-33.8-.4 4-.4 4 2.8.3-.6-8.1-1.4-.2zm-2.5 23.9-.4 4 7.5.8c-.6-2.7-1.1-5.4-1.4-8.2l-5.2-.5-.5 3.9zm-12.6 119.3-.4 4 13.9 1.5.4-4 .4-4-13.9-1.5-.4 4zm303.9-59.7-.4-4-13.9 1.5.4 4 .4 4 13.9-1.5-.4-4zM117.5 255.6c-5.1-17.6-7.1-36.1-5.7-54.6.5-6.2 2.4-12.1 5.5-17.3v-51.8c0-.9.1-1.9.1-2.8v-.4c.7-14 3.5-27.5 8.2-40v.1C144.9 37 194.8 0 253.3 0h5.3c58.5 0 108.3 36.9 127.5 88.7.1.1.1.3.1.4s.1.2.1.4c5.3 14.5 8.2 30.2 8.2 46.5v47.4c3.2 5.3 5.2 11.3 5.7 17.6 1.4 18.7-.7 37.5-6 55.4-.2 3.9-.4 7.8-.7 11.7l-8.2 105.4c-.1 1.3-.2 2.5-.4 3.8-1.1 8.8-3.6 17.4-7.4 25.4-.5 1.1-1.1 2.3-1.7 3.4-2.4 4.4-5.1 8.7-8.3 12.6-2.4 3-4.9 5.8-7.7 8.4l-35.6 34.1c-.9.8-1.8 1.7-2.7 2.5-1.8 1.6-3.7 3.1-5.7 4.5-2.9 2.1-6 4-9.2 5.6-2.1 1.1-4.3 2.1-6.5 3-3.3 1.3-6.8 2.4-10.2 3.3-2.3.6-4.7 1-7.1 1.4-3.6.5-7.2.8-10.9.8h-32.2c-19.5 0-38.2-7.5-52.3-21l-35.6-34.1C137 413 128 393.9 126.4 373.5l-8.2-105.4c-.3-4.2-.5-8.4-.7-12.5zm265.7-73.9-2.8-2.8c-7.5-7.5-17.8-11.7-28.4-11.7-3.1 0-6.2.4-9.2 1.1l-55.5 13.2c-10.2 2.4-20.7 3.7-31.2 3.7s-21-1.2-31.3-3.7l-55.5-13.2c-3-.7-6.1-1.1-9.3-1.1-10.5 0-20.9 4.3-28.3 11.8l-2.8 2.8c-5.3 5.3-8.5 12.3-9.1 19.8-1.3 17.5.5 35 5.5 51.9l.3.9v1c.2 3.6.3 7.9.7 12l.1 1 18.5 34c3.7 6.8 10.8 11 18.5 11 3 0 5.9-.6 8.6-1.9l37.8-16.9c2.1-.9 4.2-1.4 6.5-1.4 8.8 0 15.9 7.1 15.9 15.9v25.2c0 7.5-3.9 16-8.4 23.2.6.2 1.1.5 1.6.9l1.4 1.1c.3-.2.6-.4.9-.5.9-.5 2-.7 3.1-.7 1.4 0 2.7.4 3.9 1.2h.2l2.6 2 .3-.3c1.5-1.4 3.4-2.2 5.4-2.2h2.6c3.9 0 7.5 1.7 10.1 4.6l.3.3.3-.3c2.6-3 6.1-4.6 10.1-4.6h2.5c2 0 4 .8 5.4 2.2l.3.3 2.6-2h.2c1.1-.8 2.5-1.2 3.9-1.2 1.1 0 2.1.3 3.1.7.3.2.6.3.9.5l1.4-1.1c.5-.4 1.1-.8 1.8-1-5.6-9-8.4-16.6-8.4-23.1V309c0-8.8 7.1-15.9 15.9-15.9 2.2 0 4.4.5 6.4 1.4l37.8 16.9c2.8 1.2 5.7 1.9 8.6 1.9 7.6 0 14.6-4.1 18.3-10.7l18.2-32.3.2-2.8c.3-3.9.5-7.9.7-11.4v-1l.3-.9c5.1-17.1 7-34.8 5.7-52.5-.4-4.9-1.9-9.7-4.5-14l-1.2-1.9c-1.2-1.5-2.3-2.8-3.5-4.1zM379 351.2l-1.1-1.6c-3.2 23.3-13.6 45.4-29.6 62.5l-21.9 23.4c-2.7 2.8-6.3 4.4-10.2 4.4-4 0-7.8-1.7-10.5-4.6s-3.9-6.7-3.6-10.7l2.7-28.9c.2-2.5-.1-5.1-1-7.4l-3.2 1.6c-.1 0-.1.1-.2.1l-3.5 2.4c-.7.5-1.5.8-2.4 1-.7.6-1.5 1.1-2.4 1.5l-4.7 1.6c-.5.2-1 .3-1.5.3-.5.4-1.2.7-1.8.9l-6.2 2.1h-.2c-.5.1-1 .2-1.6.2h-.2c-.7.3-1.5.5-2.3.5h-5.9c-.6 0-1.2-.1-1.8-.3-.6.2-1.2.3-1.9.3h-6c-.7 0-1.4-.1-2-.3-.6.2-1.3.3-2 .3h-5.9c-.6 0-1.3-.1-1.9-.3-.6.2-1.2.3-1.8.3h-5.9c-.8 0-1.6-.2-2.3-.5h-.2c-.5 0-1.1-.1-1.6-.2h-.2l-6.2-2.1c-.6-.2-1.2-.5-1.8-.8-.5 0-1-.1-1.6-.3l-4.7-1.6c-.9-.3-1.7-.8-2.4-1.5-.9-.1-1.7-.5-2.4-1l-3.5-2.3c-.1-.1-.2-.2-.4-.3l-2.9-1.4c-.9 2.3-1.3 4.9-1.1 7.4l2.7 28.8c.3 4-.9 7.8-3.6 10.8-2.7 2.9-6.5 4.6-10.5 4.6-3.9 0-7.6-1.6-10.3-4.6l-21.9-23.4c-16.1-17.2-26.6-39.3-29.7-62.5l-1.2 1.7 1.7 21.5c1.5 18.5 9.6 35.7 22.9 48.4l35.6 34.1c12.6 12.1 29.3 18.8 46.8 18.8h32.7c.8 0 1.6 0 2.4-.1.5 0 1 0 1.5-.1.4 0 .7 0 1.1-.1.9-.1 1.7-.2 2.6-.3.3 0 .6-.1.9-.1.4-.1.9-.1 1.3-.2.8-.1 1.7-.3 2.5-.4.1 0 .2 0 .3-.1 1-.2 2-.4 3-.7 3.1-.8 6.2-1.7 9.2-2.9 2-.8 3.9-1.7 5.8-2.7 2.9-1.5 5.6-3.2 8.2-5 1.8-1.3 3.5-2.6 5.1-4 .8-.7 1.6-1.5 2.4-2.2l35.6-34.1c2.5-2.4 4.8-4.9 7-7.6 2.8-3.6 5.3-7.4 7.5-11.4l1.5-3c3.4-7.2 5.7-14.9 6.7-22.9.1-1.1.3-2.3.3-3.4l1.7-21.6zm-202.5.2-11.3 2.9-8.6-33.8c-7.7-1.9-14.6-6.9-18.7-14.3l3.6 38.2c2.2 23.3 12.1 45.2 28.1 62.3L182 420l-1.4-5.6 11.3-2.9 5.3 20.4c2.8-.6 5.1-3.1 4.8-6.5l-2.7-28.9c-.3-4.3.4-8.6 2.2-12.5-1.5-1.4-2.4-3.3-2.4-5.4V377c0-1.5.5-2.9 1.4-4-.9-1.3-1.4-2.9-1.4-4.6v-4.6c0-2.1 1-4.1 2.8-5.3 1.2-.9 2.6-1.3 4.1-1.3.7 0 1.5.1 2.2.4l.3.1.2.1.9.4 1.2-.9c1-.5 2-.8 3.1-.8.3 0 .7 0 1 .1 4.6-6.8 9.3-15.5 9.3-22.2v-25.2c0-1.3-.3-2.5-.9-3.6l-29.2 60-9.4 26.8 4.5 17.7-7 1.8-14.4-56.2 7-1.8 3.7 14.3 10.8-9.2 28.1-57.8c-.4-.1-.7-.1-1.1-.1-1.1 0-2.1.2-3.2.7l-37.8 16.9c-2.2 1-4.4 1.6-6.6 2.1l7.8 30.6zm96.4 16.9v-1.2c0-.2 0-.5-.1-.7 0-.1 0-.2-.1-.3 0-.1-.1-.2-.1-.3-.1-.2-.2-.5-.3-.7-.2-.4-.4-.7-.8-1-.7-.7-1.7-1.1-2.7-1.1h-2.6c-2.8 0-5.3 1.2-7.1 3.3l-.8.9-.1.1c-.6.7-1.1 1.4-1.5 2.1-.2.4-.4.7-.5 1.1-.2.4-.3.8-.4 1.2-.1-.4-.3-.8-.4-1.2-.2-.4-.4-.8-.6-1.1-.4-.8-.9-1.5-1.5-2.2l-.8-.9c-1.8-2.1-4.3-3.3-7.1-3.3h-2.6c-1 0-1.9.4-2.7 1.1-.3.3-.5.6-.7 1-.1.2-.2.5-.3.7 0 .1-.1.2-.1.2 0 .1 0 .2-.1.3 0 .2-.1.4-.1.7v1.2c-.3-.5-.7-.9-1.2-1.3l-5.6-4.3c-.5-.3-1-.5-1.5-.5-.4 0-.8.1-1.2.3-.4.2-.8.6-1 .9l-.3.6c-.1.2-.1.5-.1.7v1.2c-.4-.6-.9-1.1-1.5-1.6l-3.7-2.9c-.4-.3-.9-.5-1.4-.5-.4 0-.7 0-1.1.2-.9.4-1.4 1.2-1.4 2.2v.7c-.5-.7-1.1-1.4-1.8-1.9l-2.2-1.4c-.2-.1-.4-.2-.6-.2h-.2c-.1 0-.3-.1-.4-.1h-.6c-.2.1-.4.1-.6.2-.7.4-1.1 1.1-1.1 2v1.1c-.3-.3-.6-.5-1-.7l-3.8-1.8c-.3-.1-.6-.2-1-.2-.6 0-1.2.2-1.7.5-.7.5-1.1 1.3-1.1 2.1v4.6c0 .9.3 1.8.9 2.5l.6.6.1.1c.2.2.4.3.6.4l.1.1c.2.1.4.2.7.2.1 0 .1 0 .2.1.3.1.6.1.9.1h2.9c.1 0 .2 0 .2-.1.2-.1.4-.1.6-.2.2-.1.5-.3.7-.4 0 .2.1.5.1.7 0 .1.1.2.1.2 0 .1.1.3.1.4s.1.2.1.3c.1.1.1.2.2.3.1.1.1.2.2.2.1.1.1.2.2.3l.2.2c.1.1.2.2.3.2.1.1.2.1.2.2.1.1.2.1.3.2.1 0 .2.1.2.1.1.1.3.1.4.1.1 0 .1 0 .2.1.2 0 .4.1.7.1h1.7c.2 0 .4 0 .6-.1.2 0 .3-.1.5-.1.5-.2 1-.5 1.3-.9.6 1.6 2.1 2.8 3.9 2.8h2c1.5 0 2.8-.9 3.4-2.2.9 1.9 2.8 3.1 5.1 3.1h2.4c1.2 0 2.3-.5 3-1.4.4 2 1.8 3.6 3.6 4.3.3.1.6.2 1 .3.3.1.7.1 1.1.1h6.5c.3 0 .6 0 .9-.1h.2c.2-.1.5-.1.7-.2h.1c.6-.2 1.1-.6 1.5-1 .5-.4.8-.9 1.1-1.4v.2-.2c.3.5.7 1 1.1 1.4.5.4 1 .7 1.6 1h.1c.2.1.5.2.7.2h.2c.3.1.6.1.9.1h6.5c.4 0 .7 0 1.1-.1.3-.1.7-.2 1-.3 1.8-.7 3.2-2.3 3.6-4.3.7.9 1.8 1.4 3 1.4h2.4c2.3 0 4.2-1.3 5.1-3.1.6 1.3 1.9 2.2 3.4 2.2h2c1.8 0 3.4-1.2 3.9-2.8.3.4.8.7 1.3.9.2.1.3.1.5.1s.4.1.6.1h1.7c.2 0 .5 0 .7-.1.1 0 .1 0 .2-.1.1 0 .3-.1.4-.1s.2-.1.2-.1c.1-.1.2-.1.3-.2.1-.1.2-.1.2-.2.1-.1.2-.1.3-.2.1-.1.2-.1.2-.2.1-.1.1-.2.2-.2.1-.1.1-.2.2-.3.1-.1.1-.2.2-.3.1-.3.3-.5.3-.8.1-.3.1-.5.1-.8.2.2.5.4.7.5l.6.3c.1 0 .1 0 .2.1h.2c.2 0 .4.1.5.1h2.2c.3 0 .6 0 .9-.1.1 0 .1 0 .2-.1.2-.1.4-.1.6-.2l.1-.1c.2-.1.4-.3.6-.4h.1l.6-.6c.5-.7.8-1.5.8-2.5v-4.6c0-.8-.4-1.6-1.1-2.1-.5-.3-1.1-.5-1.6-.5-.3 0-.6.1-.9.2l-3.3 1.6-.5.2c-.4.2-.8.5-1.1.8v-1.2c0-.8-.4-1.6-1.1-2-.2-.1-.4-.2-.6-.2h-.6c-.1 0-.3 0-.4.1h-.2c-.2.1-.4.1-.6.2l-2.2 1.4c-.7.5-1.4 1.1-1.8 1.9v-.7c0-1-.5-1.8-1.4-2.2-.1-.1-.3-.1-.4-.1s-.3 0-.4-.1h-.2c-.5 0-1 .2-1.4.5l-1.8 1.4-1.9 1.5c-.6.4-1.1 1-1.5 1.6V365c0-.2 0-.5-.1-.7l-.3-.6c-.2-.4-.6-.7-1.1-1-.4-.2-.8-.3-1.2-.3-.5 0-1.1.2-1.6.5l-5.6 4.3c.7.2.3.6 0 1.1zm49.9 41.8 4.5-17.6-9.4-27-29.1-59.9c-.5 1-.7 2.1-.7 3.3v25.3c0 6.7 4.7 15.3 9.3 22.2.3 0 .5-.1.8-.1 1.1 0 2.2.3 3.1.8.5.3.9.6 1.2.9l1-.5.2-.1.2-.1c.7-.3 1.5-.4 2.3-.4 1.4 0 2.8.4 3.9 1.2 1.8 1.2 2.8 3.3 2.8 5.4v4.6c0 1.7-.5 3.3-1.4 4.6.9 1.1 1.4 2.5 1.4 4v1.6c0 2-.9 3.9-2.3 5.3 1.8 3.9 2.6 8.2 2.2 12.6l-2.7 28.9c-.3 3.3 2 5.8 4.7 6.5l5.3-20.4 11.3 2.9-1.5 5.7 12.6-13.4c16-17.1 25.8-39 28-62.3l3.6-37.9c-4.1 7.2-10.9 12.1-18.6 13.9l-8.7 33.8-11.3-2.9 7.8-30.7c-2.2-.4-4.3-1.1-6.4-2l-37.8-16.9c-1.1-.5-2.1-.7-3.2-.7-.5 0-.9 0-1.3.1l28.1 57.8 10.8 9.2 3.7-14.4 7 1.8-14.4 56.2-7-1.3zm-119.2-29.7c.3.5.7.9 1.3 1.2l5.3 2.9c.5.3 1.2.3 1.7-.1h.1c.4 1 1 1.8 1.9 2.5l3.6 2.4c.5.4 1.2.5 1.7.2.1 0 .1-.1.2-.1.3.9 1.1 1.6 2 1.9l4.7 1.6c.6.2 1.2.1 1.7-.3.3.7.8 1.2 1.5 1.4l6.3 2.1c.5.1 1 .1 1.4-.2.3.5.9.8 1.5.8h5.9c.7 0 1.4-.4 1.8-.9.5.6 1.2.9 1.9.9h5.9c.8 0 1.5-.4 2-1 .5.6 1.2 1 2 1h5.9c.8 0 1.5-.4 1.9-.9.4.5 1.1.9 1.8.9h5.9c.6 0 1.2-.3 1.5-.8.4.3.9.4 1.4.2l6.3-2.1c.7-.2 1.2-.7 1.5-1.4.5.4 1.2.5 1.7.3l4.7-1.6c1-.3 1.7-1 2-1.9.1 0 .1.1.2.1.6.3 1.2.2 1.7-.1l3.6-2.4c.9-.6 1.6-1.5 1.9-2.5h.1c.5.3 1.1.3 1.7 0l5.3-2.9c.8-.5 1.4-1.2 1.6-2.1 0-.1.1-.2.1-.4V377c0-.2 0-.3-.1-.5v-.2c0-.1-.1-.2-.1-.3 0-.1-.1-.1-.1-.2-.1-.1-.1-.2-.2-.3-.1-.2-.3-.3-.4-.4-.6-.5-1.4-.6-2.1-.5l-4.3 1.3c-.9.2-1.6.9-1.9 1.8 0 0-.1 0-.1-.1-.5-.4-1.2-.4-1.9-.2l-3.5 1.5c-.9.4-1.6 1.1-2 2l-.1-.1c-.2-.1-.3-.2-.5-.2h-.2c-.1 0-.3-.1-.4-.1h-.3c-.1 0-.3 0-.4.1l-4.7 2c-.8.3-1.4.9-1.8 1.7l-.1-.1c-.1-.1-.2-.2-.3-.2 0 0-.1 0-.1-.1-.1 0-.2-.1-.3-.1h-.2c-.1 0-.2 0-.3-.1h-.6l-4.9.5c-.9.1-1.7.6-2.2 1.4-.5-.7-1.2-1.1-2.1-1.1H268c-.5 0-1 .1-1.4.4-.1.1-.2.2-.4.3-.3-1-1.3-1.7-2.4-1.7H258c-.8 0-1.5.4-2 1-.5-.6-1.2-1-2-1h-5.9c-1.1 0-2 .7-2.4 1.7-.1-.1-.2-.2-.4-.3-.4-.3-.9-.4-1.4-.4h-4.8c-.9 0-1.7.4-2.1 1.1-.5-.8-1.3-1.3-2.2-1.4l-4.9-.5h-.6c-.1 0-.2 0-.3.1h-.2c-.1 0-.2.1-.3.1 0 0-.1 0-.1.1-.1.1-.2.2-.3.2l-.1.1c-.4-.7-1-1.3-1.8-1.7l-4.7-2c-.2-.1-.4-.1-.6-.1h-.2c-.1 0-.3 0-.4.1h-.2c-.2.1-.3.1-.5.2l-.1.1c-.4-.9-1.1-1.6-1.9-1.9l-3.5-1.5c-.6-.3-1.3-.2-1.8.2 0 0-.1 0-.1.1-.4-.8-1.1-1.5-1.9-1.8l-4.3-1.3c-.7-.2-1.5 0-2.1.5-.2.1-.3.3-.4.4-.1.1-.2.2-.2.3 0 .1-.1.1-.1.2s-.1.2-.1.3v.2c0 .2-.1.3-.1.5v2.2c0 .1 0 .3.1.4.2.1.3.4.5.7zM253.4 8h-.5c-1.3 0-2.6 0-4 .1-.7 0-1.4.1-2 .1-.7 0-1.5.1-2.2.1-.8.1-1.7.1-2.5.2-.5 0-1 .1-1.6.1-1.6.2-3.2.3-4.7.6h-.2c-1.6.2-3.3.5-4.9.8h-.2c-1.4.3-2.9.5-4.3.9-.4.1-.7.2-1.1.2l-3.6.9c-.2.1-.4.1-.7.2-1.5.4-2.9.8-4.4 1.2-.1 0-.2 0-.2.1-1.4.4-2.8.9-4.1 1.3-.2.1-.4.1-.5.2-18.2 6.2-34.9 16.6-48.9 30.6-16.6 16.6-28 36.9-33.6 59 1.7 10.3 2.7 21.6 2.7 33.5 0 11.4-.9 22.2-2.5 32.2 8.7-7.1 19.5-11 30.6-11 3.7 0 7.4.4 11.1 1.3l55.5 13.2c9.7 2.3 19.6 3.5 29.4 3.5 9.9 0 19.7-1.1 29.4-3.5l55.5-13.2c3.7-.9 7.4-1.3 11-1.3 11 0 21.8 3.8 30.4 10.8-1.6-9.9-2.5-20.7-2.6-32 0-11.8 1-23.1 2.7-33.4-1-4.1-2.3-8.2-3.8-12.2l-.3-.9c-9-24.2-24.9-45-46.1-60-1.2-.9-2.4-1.7-3.7-2.5-.7-.4-1.3-.8-2-1.3-16.2-10.2-34.3-16.6-53.2-18.8h-.2c-1.5-.2-3.1-.3-4.6-.4h-.3c-1.6-.1-3.1-.2-4.7-.3h-.2c-1.6-.1-3.3-.1-5-.1h-4.9V8z" fill="#fff"/></svg>