<svg xmlns="http://www.w3.org/2000/svg" viewBox="0 0 512 512" style="enable-background:new 0 0 512 512" xml:space="preserve"><path d="M256 0C114.6 0 0 114.6 0 256s114.6 256 256 256 256-114.6 256-256S397.4 0 256 0zM34.9 162.6C47 134 64.3 108.4 86.3 86.3c22-22 47.7-39.4 76.3-51.4C192.2 22.3 223.6 16 256 16s63.8 6.3 93.4 18.9C378 47 403.6 64.3 425.7 86.3c22 22 39.4 47.7 51.4 76.3 12.5 29.6 18.9 61 18.9 93.4 0 17.8-1.9 35.3-5.7 52.3-42-12.3-133.9-35.5-234.3-35.5-100.9 0-193.8 23.7-234.3 35.6-3.8-17-5.7-34.6-5.7-52.4 0-32.4 6.3-63.8 18.9-93.4zm383.2 144.1-37.9 36.7-31.7-48.4c25.3 3.2 48.8 7.3 69.6 11.7zm-256.5-11.4-31.5 48.2-37.5-36.3c20.6-4.5 43.9-8.7 69-11.9zm264.1 130.4c-22 22-47.7 39.4-76.3 51.4-29.6 12.5-61 18.9-93.4 18.9s-63.8-6.3-93.4-18.9c-28.6-12.1-54.2-29.4-76.3-51.4-22-22-39.4-47.7-51.4-76.3-3.5-8.3-6.5-16.8-9.1-25.5 11.8-3.5 28.2-8 48.1-12.7l59 57.1 49.4-75.6c23.6-2.5 48.4-4 73.7-4 24.7 0 48.8 1.4 71.8 3.8l49.5 75.8 59.5-57.6c20.2 4.7 37.1 9.3 49.5 13-2.6 8.7-5.6 17.2-9.1 25.6-12.1 28.7-29.4 54.4-51.5 76.4z" style="fill:#fff"/></svg>