<svg version="1.1" xmlns="http://www.w3.org/2000/svg" x="0" y="0" viewBox="0 0 512 512" xml:space="preserve"><path d="M436.5 311.1l-59.2 57.3-49.2-75.3c41 4.2 78.3 11.1 108.4 18zm-362.4.4l58.8 56.9 49.1-75.1c-40.9 4.3-78 11.3-107.9 18.2z" opacity=".1" fill="#fff"/><path d="M501.5 328.7C470.2 434.7 372.1 512 256 512S41.9 434.7 10.5 328.8c12.3-3.9 34.5-10.6 63.6-17.3l58.8 56.9 49.1-75.1c23.7-2.4 48.6-3.9 74-3.9 24.8 0 49.1 1.4 72.2 3.7l49.2 75.3 59.2-57.3c29.6 6.8 52.4 13.6 64.9 17.6zM256 280.8c114.6 0 217.9 30.4 247.7 40 5.4-20.7 8.3-42.4 8.3-64.8C512 114.6 397.4 0 256 0S0 114.6 0 256c0 22.4 2.9 44.2 8.3 64.9 29.5-9.5 132.8-40.1 247.7-40.1z" fill="#fff"/></svg>