<svg xmlns="http://www.w3.org/2000/svg" viewBox="0 0 512 512" style="enable-background:new 0 0 512 512" xml:space="preserve"><path d="M356 270.6c-15.4 0-27.9 12.5-27.9 27.9 0 15.4 12.5 27.9 27.9 27.9 15.4 0 27.9-12.5 27.9-27.9 0-15.4-12.5-27.9-27.9-27.9zm0 47.8c-11 0-19.9-8.9-19.9-19.9s8.9-19.9 19.9-19.9 19.9 8.9 19.9 19.9-8.9 19.9-19.9 19.9zm-200-47.8c-15.4 0-27.9 12.5-27.9 27.9 0 15.4 12.5 27.9 27.9 27.9 15.4 0 27.9-12.5 27.9-27.9 0-15.4-12.5-27.9-27.9-27.9zm0 47.8c-11 0-19.9-8.9-19.9-19.9s8.9-19.9 19.9-19.9 19.9 8.9 19.9 19.9-8.9 19.9-19.9 19.9zm100-50.9c-17.1 0-31 13.9-31 31s13.9 31 31 31 31-13.9 31-31-13.9-31-31-31zm0 54c-12.7 0-23-10.3-23-23s10.3-23 23-23 23 10.3 23 23-10.3 23-23 23zm238.5-47.1c-30.1-9.8-61.6-17.8-94.2-23.9-10.9-55.6-71.3-98-144.3-98s-133.4 42.5-144.3 98c-32.6 6-64.1 14-94.2 23.9-23.3 7.6-23.3 40.6 0 48.2 72.6 23.7 153.4 36.9 238.5 36.9s165.9-13.2 238.5-36.9c23.3-7.6 23.3-40.6 0-48.2zM492 315c-74.2 24.2-153.6 36.5-236 36.5S94.2 339.2 20 315c-8.8-2.9-12-10.4-12-16.5s3.1-13.6 12-16.5c29.7-9.8 61.1-17.7 93.1-23.6l5.4-1 1-5.3c4.9-25 21.1-48 45.5-64.8 25.2-17.3 57.4-26.8 90.9-26.8 33.5 0 65.8 9.5 90.9 26.7 24.5 16.8 40.6 39.8 45.5 64.8l1 5.3 5.3 1c32.1 6 63.5 14 93.2 23.6 8.8 2.9 12 10.4 12 16.5s-3 13.7-11.8 16.6z" style="fill:#fff"/></svg>