<svg version="1.1" xmlns="http://www.w3.org/2000/svg" x="0" y="0" viewBox="0 0 512 512" xml:space="preserve"><path d="M471.5 108.5c-12.7-7.1-28-7.9-41.5-2.4l-12.9 5.3C388.8 73.3 342.7 51.5 256 51.5S123.2 73.3 94.9 111.4L82 106.1c-13.5-5.5-28.8-4.7-41.5 2.4C16.3 122.1 0 147.9 0 177.5c0 13.7 3.5 26.6 9.7 37.7 5.3 9.6 13.7 17 23.8 21.2l27 11.1c6.7 59.4 33.4 127.3 71.9 167.1C180.2 464 256 460.5 256 460.5s75.8 3.5 123.5-45.9c38.6-39.8 65.2-107.7 72-167.1l27-11.1c10.1-4.2 18.5-11.6 23.8-21.2 6.2-11.1 9.7-24 9.7-37.7 0-29.6-16.3-55.4-40.5-69z" opacity=".1" fill="#fff"/><path d="M471.5 108.5c-12.7-7.1-28-7.9-41.5-2.4l-12.9 5.3C388.8 73.3 342.7 51.5 256 51.5S123.2 73.3 94.9 111.4L82 106.1c-13.5-5.5-28.8-4.7-41.5 2.4C16.3 122.1 0 147.9 0 177.5c0 13.7 3.5 26.6 9.7 37.7 5.3 9.6 13.7 17 23.8 21.2l27 11.1c6.7 59.4 33.4 127.3 71.9 167.1C180.2 464 256 460.5 256 460.5s75.8 3.5 123.5-45.9c38.6-39.8 65.2-107.7 72-167.1l27-11.1c10.1-4.2 18.5-11.6 23.8-21.2 6.2-11.1 9.7-24 9.7-37.7 0-29.6-16.3-55.4-40.5-69zm-160.1-5.8c1.5-2.3 4.7-2.9 6.9-1.3l31 21c2.3 1.5 2.9 4.7 1.3 6.9-.9 1.4-2.5 2.2-4.1 2.2-1 0-1.9-.3-2.8-.9l-31-21c-2.3-1.5-2.9-4.7-1.3-6.9zm-148.7 19.7l31-21c2.3-1.5 5.4-1 6.9 1.3s1 5.4-1.3 6.9l-31 21c-.9.6-1.8.9-2.8.9-1.6 0-3.2-.8-4.1-2.2-1.5-2.3-1-5.4 1.3-6.9zm-7.2 57.6c0-12.5 10.1-22.5 22.5-22.5s22.5 10.1 22.5 22.5-10.1 22.5-22.5 22.5-22.5-10.1-22.5-22.5zM256 449.5c-22 0-88-59.5-88-133 0-35.7 9.4-68.1 24.5-92 16-20.3 38.6-33 63.5-33s47.5 12.7 63.5 33c15.2 23.8 24.5 56.3 24.5 92 0 73.5-66 133-88 133zm78-247c-12.4 0-22.5-10.1-22.5-22.5s10.1-22.5 22.5-22.5 22.5 10 22.5 22.5c0 12.4-10.1 22.5-22.5 22.5zm10.9-22c-.3 0-.6-.1-.8-.1h-.2l-4.9-9.2c.2-.3.4-.6.5-.9.2-.7.1-1.3-.2-1.9-.3-.6-.9-1-1.5-1.2-.3 0-.6-.1-.8-.1-.4 0-.8.1-1.1.3-.6.3-1 .9-1.2 1.5-.1.3-.1.6-.1.9l-9.3 5c-.2-.2-.5-.3-.7-.4-.3 0-.6-.1-.8-.1-.4 0-.8.1-1.1.3-1.2.7-1.7 2.2-1 3.4.5.9 1.4 1.3 2.3 1.3l4.9 9.2c-.2.3-.4.5-.5.8-.2.7-.1 1.3.2 1.9.7 1.2 2.2 1.7 3.4 1 .6-.3 1-.9 1.2-1.5.1-.3.1-.6.1-.9l9.3-5c.8.6 1.8.7 2.7.2.5-.3 1-.8 1.2-1.5s.1-1.4-.2-1.9c-.2-.5-.8-.9-1.4-1.1zm-16.3-5l4.7-2.5c.8-.4 1.7.3 1.4 1.2l-1.4 4.6-4.6-1.4c-.8-.3-.9-1.5-.1-1.9zm-.3 3.8l4.5 1.3-1.4 4.6c-.3.9-1.4 1-1.8.2l-2.5-4.7c-.4-.8.3-1.7 1.2-1.4zm11.2 5.1l-4.7 2.5c-.8.4-1.7-.3-1.4-1.2l1.3-4.5 4.6 1.4c.9.3 1 1.4.2 1.8zm.2-3.8l-4.5-1.3 1.4-4.6c.3-.9 1.4-1 1.8-.2l2.5 4.7c.4.8-.3 1.7-1.2 1.4zm-161.2 9.3c0 .3 0 .6.1.9.2.7.6 1.2 1.2 1.5.6.3 1.3.4 1.9.2s1.2-.6 1.5-1.2c.5-.9.4-1.9-.2-2.7l4.9-9.2c1 .1 1.9-.4 2.3-1.3.3-.6.4-1.3.2-1.9-.2-.6-.6-1.2-1.2-1.5-.3-.2-.8-.3-1.2-.3-.6 0-1.1.2-1.5.5l-9.2-4.9c.1-1-.4-2-1.3-2.4-.3-.2-.8-.3-1.2-.3-.2 0-.5 0-.7.1-.6.2-1.2.6-1.5 1.2-.5.8-.3 1.9.3 2.7l-4.9 9.2h-.3c-.9 0-1.7.5-2.2 1.3-.3.6-.4 1.3-.2 1.9.2.7.6 1.2 1.2 1.5.9.5 2 .4 2.7-.2l9.3 4.9zm-1.2-2.9l-4.7-2.5c-.8-.4-.7-1.6.2-1.8l4.6-1.4 1.3 4.5c.3.9-.6 1.6-1.4 1.2zm7.7-6.3l-2.5 4.7c-.4.8-1.6.7-1.8-.2l-1.4-4.6 4.5-1.3c.9-.3 1.6.6 1.2 1.4zm-6.4-7.8l4.7 2.5c.9.5.8 1.7-.1 1.9l-4.6 1.4-1.4-4.6c-.3-.9.6-1.6 1.4-1.2zm-7.6 6.4l2.5-4.7c.4-.8 1.6-.7 1.8.2l1.4 4.6-4.5 1.3c-.9.3-1.6-.6-1.2-1.4zm148 80.8v1.3c0 6.7-4.1 12.6-10.3 15l-29.9 11.4c-5.8 2.2-11.8 3.5-17.8 4v45.6l50.9 9.3c2.7.5 4.5 3.1 4 5.8-.4 2.4-2.5 4.1-4.9 4.1-.3 0-.6 0-.9-.1l-54.1-9.8-54.1 9.8c-.3.1-.6.1-.9.1-2.4 0-4.5-1.7-4.9-4.1-.5-2.7 1.3-5.3 4-5.8l50.9-9.3v-45.6c-6-.5-12-1.8-17.8-4l-29.9-11.4c-6.2-2.4-10.3-8.4-10.3-15v-1.3c0-4.7 3.9-8.4 8.6-8l34.1 2.7c13.5 1.1 27.1 1.1 40.6 0l34.1-2.7c4.6-.3 8.6 3.3 8.6 8z" fill="#fff"/></svg>