<svg version="1.1" xmlns="http://www.w3.org/2000/svg" x="0" y="0" viewBox="0 0 512 512" xml:space="preserve"><path d="M494.5 274.4c-30.1-9.8-61.6-17.8-94.2-23.9-10.9-55.6-71.3-98-144.3-98s-133.4 42.5-144.3 98c-32.6 6-64.1 14-94.2 23.9-23.3 7.6-23.3 40.6 0 48.2 72.6 23.7 153.4 36.9 238.5 36.9s165.9-13.2 238.5-36.9c23.3-7.6 23.3-40.6 0-48.2z" opacity=".1" fill="#fff"/><path d="M494.5 274.4c-30.1-9.8-61.6-17.8-94.2-23.9-10.9-55.6-71.3-98-144.3-98s-133.4 42.5-144.3 98c-32.6 6-64.1 14-94.2 23.9-23.3 7.6-23.3 40.6 0 48.2 72.6 23.7 153.4 36.9 238.5 36.9s165.9-13.2 238.5-36.9c23.3-7.6 23.3-40.6 0-48.2zm-358.5 52c-15.4 0-27.9-12.5-27.9-27.9s12.5-27.9 27.9-27.9 27.9 12.5 27.9 27.9-12.5 27.9-27.9 27.9zm120 3.1c-17.1 0-31-13.9-31-31s13.9-31 31-31 31 13.9 31 31-13.9 31-31 31zm120-3.1c-15.4 0-27.9-12.5-27.9-27.9s12.5-27.9 27.9-27.9 27.9 12.5 27.9 27.9-12.5 27.9-27.9 27.9z" fill="#fff"/></svg>