<svg version="1.1" xmlns="http://www.w3.org/2000/svg" x="0" y="0" viewBox="0 0 512 512" xml:space="preserve"><circle cx="256" cy="256" r="256" opacity=".1" fill="#fff"/><path d="M507.5 304c.1-.4.1-.7.2-1.1.2-1 .4-2 .5-3 .2-1.4.5-2.8.7-4.1.1-.5.1-.9.2-1.4.3-1.8.5-3.6.8-5.4 0-.2 0-.4.1-.6.3-2 .5-4 .7-6v-.3c.2-2 .4-4 .5-6.1v-.4c.1-1.9.3-3.9.4-5.8v-.8c.1-1.8.2-3.6.2-5.5v-1.1c.1-2.1.1-4.3.1-6.5 0-2.1 0-4.2-.1-6.3 0-1.7-.1-3.3-.2-4.9v-1.1c-.6-11.9-1.9-23.5-4.1-34.9 0-.2-.1-.5-.1-.8-9.3-49.1-32.6-93.2-65.6-128l-.2-.2c-1.5-1.6-3.1-3.2-4.7-4.8-.8-.8-1.7-1.7-2.6-2.5-1-1-2-2-3.1-2.9-.5-.5-1-.9-1.5-1.4-7.4-6.8-15.2-13.3-23.4-19.2-.2-.1-.3-.2-.5-.3-1.8-1.3-3.6-2.6-5.4-3.8 0 0-.1 0-.1-.1C363.8 19.5 320.1 3.7 273 .6c-.6 0-1.2-.1-1.8-.1-1-.1-2-.1-3-.2-1.6-.1-3.2-.1-4.9-.2h-1.7c-1.8-.1-3.7-.1-5.6-.1s-3.8 0-5.7.1h-1.7c-1.6 0-3.2.1-4.9.2-1 0-2 .1-3 .2-.6 0-1.2.1-1.8.1-47.1 3.1-90.7 18.9-127.5 44.1l-.1.1c-1.8 1.2-3.6 2.5-5.4 3.8-.2.1-.3.2-.5.3C96.6 55.4 88 62.5 80 70.1l-.2.2c-1.6 1.5-3.2 3.1-4.8 4.7-.8.8-1.7 1.7-2.5 2.6-1 1-2 2-3 3.1-.5.5-.9 1-1.4 1.5-6.9 7.4-13.3 15.2-19.2 23.4-.2.2-.3.5-.5.7-.7.9-1.4 1.9-2 2.9-.4.5-.7 1-1.1 1.5-.7 1-1.4 2-2 3l-.6.9c-1.2 1.8-2.4 3.6-3.5 5.5-.5.9-1.1 1.7-1.6 2.6-.4.7-.8 1.3-1.2 2-.6 1.1-1.3 2.1-1.9 3.2-.3.5-.6 1-.9 1.6-.9 1.5-1.7 3-2.5 4.6 0 .1-.1.2-.1.2-7.2 13.3-13.4 27.4-18.2 42h.1c-3.4 10.4-6.2 21.1-8.3 32-.1.4-.1.7-.2 1.1-.2 1-.4 2-.5 3-.2 1.4-.5 2.8-.7 4.1-.1.5-.1.9-.2 1.4-.3 1.8-.5 3.6-.8 5.4 0 .2 0 .4-.1.6-.3 2-.5 4-.7 6v.3c-.2 2-.4 4-.5 6.1v.4c-.1 1.9-.3 3.9-.4 5.8v.8c-.1 1.8-.2 3.6-.2 5.5v1.1c-.3 1.8-.3 3.9-.3 6.1 0 2.1 0 4.2.1 6.3 0 1.7.1 3.3.2 4.9v1.1c.6 11.9 1.9 23.5 4.1 34.9 0 .3.1.5.1.8 9.3 49.1 32.6 93.2 65.6 128l.2.2c1.5 1.6 3.1 3.3 4.7 4.8.8.8 1.7 1.7 2.6 2.5 1 1 2 2 3.1 3 .5.5 1 .9 1.5 1.4 7.4 6.9 15.2 13.3 23.4 19.2.2.1.3.2.5.3 1.8 1.3 3.6 2.6 5.4 3.8l.1.1c36.7 25.2 80.4 41 127.5 44.1.6 0 1.2.1 1.8.1 1 .1 2 .1 3 .2 1.6.1 3.2.1 4.9.2h1.7c1.9 0 3.8.1 5.7.1s3.8 0 5.7-.1h1.7c1.6 0 3.2-.1 4.9-.2 1 0 2-.1 3-.2.6 0 1.2-.1 1.8-.1 47.1-3.1 90.7-18.9 127.5-44.1 0 0 .1 0 .1-.1 1.8-1.2 3.6-2.5 5.4-3.8.2-.1.3-.2.5-.3 9-6.5 17.5-13.6 25.5-21.2l.2-.2c1.6-1.5 3.3-3.1 4.8-4.7.8-.8 1.7-1.7 2.5-2.6 1-1 2-2 3-3.1.5-.5.9-1 1.4-1.5 6.8-7.4 13.3-15.2 19.2-23.4.2-.2.3-.5.5-.7.7-.9 1.4-1.9 2-2.8.4-.5.7-1 1.1-1.5.7-1 1.4-2 2-2.9.2-.3.4-.6.6-1 1.2-1.8 2.3-3.6 3.5-5.4.5-.9 1.1-1.7 1.6-2.6.4-.7.8-1.3 1.2-2 .6-1.1 1.3-2.1 1.9-3.2l.9-1.5c.9-1.5 1.7-3 2.6-4.6 0-.1.1-.1.1-.2 7.3-13.3 13.4-27.4 18.2-42h-.1c3.1-10.4 5.9-21.1 8-32zM410 66.7L300.6 176h45.3l87.5-87.5c7.6 8.1 14.7 16.6 21.1 25.5l-61.9 62h94c3.6 10.5 6.6 21.2 8.7 32H288V14.1c3.3.4 6.7.9 10 1.5v141.8l99.9-99.9c4.1 2.9 8.2 6 12.1 9.2zM25.4 176h94l-61.9-61.9c2.9-4.1 6-8.1 9.2-12.1l73.9 73.9h45.1L88.5 78.6c8.1-7.6 16.6-14.7 25.6-21.1l99.9 99.9V15.6c3.3-.6 6.7-1.1 10-1.5V208H16.7c2.2-10.8 5.1-21.5 8.7-32zM102 445.3L211.4 336h-45.3l-87.5 87.5c-7.6-8.1-14.7-16.6-21.1-25.5l62-62H25.4c-3.6-10.5-6.6-21.2-8.7-32H224v193.9c-3.3-.4-6.7-.9-10-1.5V354.6l-99.9 99.9c-4.1-2.9-8.2-6-12.1-9.2zM486.6 336h-94l61.9 61.9c-2.9 4.1-6 8.1-9.2 12.1l-73.9-74h-45.2l97.3 97.4c-8.1 7.6-16.6 14.7-25.6 21.1L298 354.6v141.8c-3.3.6-6.7 1.1-10 1.5V304h207.3c-2.2 10.8-5.1 21.5-8.7 32zM185.8 176l-.1-.1h.1v.1z" fill="#fff"/></svg>