<svg version="1.1" xmlns="http://www.w3.org/2000/svg" x="0" y="0" viewBox="0 0 512 512" xml:space="preserve"><circle cx="256" cy="256" r="256" opacity=".1" fill="#fff"/><path d="M240 416v-16h16v16h-16zm143.8 0v-16h-16v16h16zM160 416v16h16v-16h-16zm326.3-48c-2.7 5.4-5.5 10.8-8.5 16-3.2 5.5-6.5 10.8-10.1 16-4.9 7.2-10.1 14.1-15.7 20.7-1.3 1.6-2.6 3.1-4 4.6-2 2.3-4 4.5-6.1 6.7-3.2 3.4-6.5 6.7-9.9 9.9-3.7 3.5-7.4 6.8-11.3 10.1-1.6 1.3-3.1 2.6-4.7 3.9-15.6 12.5-32.8 23.3-51.1 31.9-.6.3-1.1.5-1.7.8-1.1.5-2.2 1-3.2 1.5-.1 0-.2.1-.3.1-6.1 2.7-12.3 5.2-18.7 7.4-.2.1-.4.2-.7.2-6.7 2.3-13.5 4.4-20.5 6.2-1.6.4-3.3.8-4.9 1.2-.8.2-1.6.4-2.4.5-.6.1-1.3.3-1.9.4-7.4 1.6-15 2.9-22.6 3.9-1.5.2-3 .4-4.5.5l-3 .3c-.5 0-.9.1-1.4.1-2.3.2-4.7.4-7.1.5-5.3.3-10.6.5-16 .5-1.8 0-3.6 0-5.4-.1-.8 0-1.5 0-2.3-.1-.7 0-1.4-.1-2.1-.1-2.1-.1-4.1-.2-6.2-.3-6.2-.4-12.3-1-18.3-1.8-.9-.1-1.9-.3-2.8-.4-3.6-.5-7.3-1.1-10.8-1.8-5.4-1-10.7-2.2-16-3.6-1.7-.4-3.4-.9-5.1-1.4-.8-.2-1.5-.4-2.3-.7-.7-.2-1.5-.4-2.2-.7-2.2-.6-4.3-1.3-6.5-2-11-3.6-21.7-8-32-13l-6-3h-.1c-5.8-3-11.6-6.3-17.1-9.8-.5-.3-.9-.6-1.4-.9-1-.7-2.1-1.3-3.1-2-.4-.3-.8-.6-1.3-.8-1.1-.7-2.1-1.4-3.2-2.1l-5.1-3.6c-1.8-1.3-3.7-2.7-5.5-4l-.1-.1c-5-3.8-9.8-7.7-14.5-11.9-5.8-5.1-11.3-10.4-16.6-16-2.1-2.3-4.2-4.5-6.3-6.9-2.6-3-5.2-6-7.7-9.1-1.4-1.7-2.8-3.5-4.1-5.3 0 0 0-.1-.1-.1-1.4-1.8-2.7-3.6-4-5.4-1.2-1.7-2.5-3.5-3.7-5.3-.7-1-1.3-2-2-3-.3-.5-.7-1-1-1.5-.6-.9-1.2-1.9-1.8-2.8-.4-.6-.8-1.2-1.1-1.8-.6-.9-1.1-1.8-1.7-2.7-.8-1.4-1.6-2.7-2.4-4.1-1.9-3.3-3.7-6.6-5.4-9.9v-.1l-3-6C10.1 336 1 300.2.1 262.4c-.1-2.1-.1-4.3-.1-6.4s0-4.3.1-6.4C3.5 111.2 116.8 0 256 0s252.5 111.2 255.9 249.6c.1 2.1.1 4.3.1 6.4 0 2.1 0 4.3-.1 6.4-.9 36-9.2 70.2-23.5 101-.2.5-.4.9-.6 1.4-.5 1.1-1 2.1-1.5 3.2zM29.4 160h453.1c-12.4-29.2-30.1-55.4-52.6-77.9-22.6-22.6-48.9-40.3-78.2-52.7C321.4 16.5 289.2 10 256 10s-65.4 6.5-95.8 19.3C131 41.7 104.6 59.5 82.1 82.1c-22.6 22.5-40.3 48.7-52.7 77.9zM32 352h-2.6c.8 2 1.7 3.9 2.6 5.8V352zm13.9 32H48v3.4c2.7 4.3 5.6 8.5 8.5 12.6h7.3v-16H48v-16h15.8v-16H48v16H36.9c2.8 5.5 5.8 10.8 9 16zM272 501.5V496h16v3.9c5.4-.7 10.7-1.6 16-2.6V496h6.3c3.2-.7 6.4-1.5 9.5-2.4V480H304v-16h15.8v-16H304v-16h15.8v-16H304v-16h15.8v-16H304v-16h15.8v-16H304v16h-16v-16h-16v16h-16v-16h-16v16h-16v-16h-16v16h-16v-16h-16v16h-16v-16h-16v16h-16v-16h-16.2v16h-16v-16h-16v16H64v16h15.8v16H64v9.8c1.7 2.1 3.4 4.2 5.1 6.2h10.7v11.7c.7.8 1.5 1.5 2.2 2.3l2.1 2.1h11.7v10.7c2.1 1.8 4.2 3.6 6.4 5.3h9.6v7.4c4.2 3 8.4 5.9 12.7 8.6h3.3v2c5.3 3.2 10.7 6.2 16.2 9.1V464h16v16h-5.8c1.9.9 3.9 1.7 5.8 2.6V480h16v8.7c5.3 1.8 10.6 3.4 16 4.9V480h16v16h-6.3c2.1.5 4.2.9 6.3 1.3V496h16v3.9c5.3.7 10.6 1.2 16 1.5V496h16v6c5.4 0 10.7-.2 16-.5zM466.1 384H464v-16h11.1c1.7-3.3 3.3-6.7 4.9-10.2V352h-16v16h-16v-16h-16v16h-16v-16h-16v16h-16v-16h-16.2v16h-16v-16h-16v16H320v16h15.8v16H320v16h15.8v16H320v16h15.8v-16h16v16h-16v16H320v16h15.8v8.8c5.4-1.8 10.7-3.9 15.9-6.1h.1V480h6c3.4-1.5 6.7-3.1 10-4.8V464h16v2.2c1.2-.7 2.4-1.5 3.6-2.2H384v-16h16v7.5c3.3-2.4 6.6-4.9 9.8-7.5H400v-16h16v10.9c4.1-3.5 8-7.1 11.8-10.9H416v-16h16v11.8c3.8-3.8 7.4-7.8 10.9-11.8H432v-16h16v9.8c2.6-3.2 5.1-6.5 7.5-9.8H448v-16h16v3.4c.7-1.1 1.4-2.3 2.1-3.4zm-50.1 0v-16h-16v16h16zm-32.2 0v-16h-16v16h16zM224 416v-16h-16v16h16zm-32 0v-16h-16v16h16zm240-48v16h16v-16h-16zm-224 48h-16v16h16v-16zm-80 0v16h16v-16h-16zm223.8 32v16h16v-16h-16zm0-32v-16h-16v16h16zm-16 48v16h16v-16h-16zm32-48h-16v16h16v-16zm48.2-32v16h16v-16h-16zm-32.2 64v-16h-16v16h16zm-32-48h16v-16h-16v16zM128 384v16h16v-16h-16zm272 16v16h16v-16h-16zm-288.2 16h-16v16h16v-16zm112.2 0v16h16v-16h-16zm127.8-48h-16v16h16v-16zm32.2 48v16h16v-16h-16zm-128 16h16v-16h-16v16zm32-48v-16h-16v16h16zm-32 0v-16h-16v16h16zm-80 80v16h16v-16h-16zm48-80v-16h-16v16h16zm64 80h16v-16h-16v16zm0-64h16v-16h-16v16zm0 32h16v-16h-16v16zm-112 16h-16v16h16v-16zm48 16h-16v16h16v-16zm-96.2-32h-16v16h16v-16zm-32-64h-16v16h16v-16zM384 384v16h16v-16h-16zM95.8 400h16v-16h-16v16zm0 16v-16h-16v16h16zm32-32v-16h-16v16h16zm32.2 0v-16h-16v16h16zm32 0v-16h-16v16h16zm-64.2 32v-16h-16v16h16zm.2 32v16h16v-16h-16zm96 32v16h16v-16h-16zm16-80v-16h-16v16h16zm32 0v-16h-16v16h16zm-64 0v-16h-16v16h16zm-32 0v-16h-16v16h16zm112 96h16v-16h-16v16zm-80-64v16h16v-16h-16zm64 16h16v-16h-16v16zm-16-16h-16v16h16v-16zm0 16v16h16v-16h-16zm16-32h16v-16h-16v16zm0 64h-16v16h16v-16zm-32-16v16h16v-16h-16zm48 0h-16v16h16v-16zm-128-64h-16v16h16v-16zm80 48h-16v16h16v-16zm-96-16v16h16v-16h-16zm48 16v16h16v-16h-16zm0-16h-16v16h16v-16z" fill="#fff"/></svg>