<svg version="1.1" xmlns="http://www.w3.org/2000/svg" x="0" y="0" viewBox="0 0 512 512" xml:space="preserve"><ellipse cx="256" cy="256" rx="176" ry="256" opacity=".1" fill="#fff"/><path d="M308.8 504.5c-16.7 5.1-34.4 7.5-52.8 7.5-97.2 0-176-66-176-256 0-131.8 37.9-203.9 93.5-235.7 8.2 13.8 22.4 38 36.4 64.3 37.9 70.9 42 94.6 42 101.4 0 38.6-10.5 63.3-10.6 63.5-.5 1.2-13.4 30.6-13.4 76.5 0 7.6 0 30.9 45.9 116.7 13.2 24.5 26.4 47.3 35 61.8zM256 0c-18.4 0-36.2 2.4-52.8 7.5 8.6 14.5 21.8 37.3 34.9 61.8C284 155.1 284 178.4 284 186c0 45.9-12.8 75.3-13.4 76.5-.1.2-10.6 24.9-10.6 63.5 0 6.9 4.1 30.5 42 101.4 14 26.2 28.2 50.5 36.4 64.3 55.6-31.8 93.5-104 93.5-235.7C432 66 353.2 0 256 0z" fill="#fff"/></svg>