<svg version="1.1" xmlns="http://www.w3.org/2000/svg" x="0" y="0" viewBox="0 0 512 512" xml:space="preserve"><style type="text/css">.st1{fill:#fff}</style><path class="st1" d="M510 358.7h-.5c-.1 0-.3-.1-.4-.1l-16.8-7.3c3.6-4.1 6.9-8.3 9.8-12.3.3.4.5.8.8 1.2l8.9 15.6c.1.2.2.3.2.5v.7c0 .2 0 .3-.1.4 0 .1-.1.3-.2.4v.1l-.3.3-.1.1-.3.3c-.1.1-.3.1-.4.2h-.1c-.2-.1-.3-.1-.5-.1zm-209-10.3l1.4-1.1c1.3-1.1 2.7-2.1 4.2-3-2.8-1.2-5.3-1.8-7.5-1.8-5.2 0-9.1 3.4-13.3 9.3l14.4 4.5c-.2-1.8-.1-3.9.5-6.2l.3-1.7zm99.1 12.3c-.6 0-1.2 0-1.9-.1-10.8-1.4-14.2-7.2-16.7-11.5-1.8-3.2-2.9-4.9-6.8-5.7-4-.8-7.3-1.2-9.8-1.2-4.4 0-5.3 1.1-7.6 3.6-2.6 3-6.2 7.1-15 9.5-.3.1-.9.4-1.5.7-6.2 3-13.5 6.2-20.1 8 8.3 3.8 16.1 8.5 23.4 14l49.9 37.6c.7.5 1.6.8 2.4.8 1.2 0 2.5-.6 3.3-1.7l31.5-44c3.6-5.1 8-9.5 12.9-13.3-1.9-.7-5.3-2.2-13.3-5.9-6.2-2.9-17-7.8-21.8-9.6 0 1 .2 2.2.2 3.1.4 4.5.9 9.5-2.2 13-1.1 1.1-3.3 2.7-6.9 2.7zm-255.7-10.6c-1.3.5-2.6.7-3.9.7-3.9 0-7.5-2.1-9.5-5.5-.4-.7-.7-1.4-1-2.1-5.4 0-12.1-1.7-16.5-2.8-.9-.2-1.9-.5-2.4-.6-1.6.2-2.3 1.2-4 5-2.2 4.8-5.6 11.9-16.6 11.9h-.8c-6.4-.2-11.1-5.4-15.2-10.1l-.5-.5c-.7 5.4-1.6 9.6-2.6 12.7-.2.4-.3.9-.5 1.3 3.6 3.2 6.8 6.7 9.6 10.6l31.5 44c.8 1.1 2 1.7 3.3 1.7.8 0 1.7-.3 2.4-.8l49.9-37.6c11.8-8.9 25-15.7 39.1-20l35.3-11h7.4c-.8-2.6-2.3-4.9-5.4-6.9-3.4 6.4-10 10.6-17.8 10.6-6.2 0-12-2.8-16-7.7-3.2-4-5.8-4-6.7-4-7.2 0-16.9 11.2-24.1 19.4-7.4 8.6-12.8 14.7-18.7 14.7-2.7 0-5.1-1.3-6.7-3.7-6-8.6-6.3-15.8-5.6-20.8-1.4.6-2.8 1.1-4 1.5zm354.2-14.9c.5-.7.9-1.3 1.4-2 .2-.2.3-.5.5-.7.3-.4.6-.8.8-1.3.4-.6.7-1.1 1.1-1.7v-.1c.4-.6.7-1.2 1.1-1.7.1-.2.2-.4.3-.5.2-.4.5-.8.7-1.2.1-.2.2-.4.4-.6.2-.3.4-.7.6-1 .1-.2.2-.4.3-.7.2-.3.3-.6.5-1l.3-.6c.2-.3.3-.6.4-1l.3-.6c.2-.4.3-.7.4-1.1 0-.1.1-.3.2-.4.2-.5.3-.9.5-1.4 0-.1.1-.2.1-.3.1-.3.2-.7.2-1 0-.2.1-.3.1-.5 0-.3.1-.5.1-.8v-1.6c0-.2 0-.4-.1-.7 0-.1 0-.3-.1-.4 0-.2-.1-.4-.2-.6 0-.1-.1-.2-.1-.3-.1-.3-.2-.6-.4-.8-.3-.4-.5-.7-.8-1.1l-.1-.1-.9-.9-.1-.1c-.3-.2-.6-.5-1-.7-.1 0-.1-.1-.2-.1-.3-.2-.7-.4-1-.5-.1 0-.1-.1-.2-.1-.4-.2-.7-.3-1.1-.4h-.2c-.4-.1-.8-.2-1.3-.3h-.1c-.4-.1-.9-.1-1.3-.2h-.1c-.4 0-.9 0-1.4-.1h-.2c-.6 0-1.3 0-1.9.1h-.1c-.6.1-1.3.1-1.9.2h-.2c-.6.1-1.2.2-1.9.3h-.2c-.7.1-1.3.3-2 .5h-.2c-.6.2-1.3.3-1.9.5-.1 0-.2.1-.4.1-.6.2-1.2.3-1.8.5-.1 0-.3.1-.4.1-.6.2-1.2.4-1.7.6-.2.1-.4.1-.7.2-6.3 2.1-12 4.4-15 4.4h-.1c-19.9-.4-31.7-8.7-45.5-11.4-4.8-.9-10.4-1.3-16.4-1.3-20.1 0-44.6 4.3-59.3 7.3-10 2-31.3 8-50.9 8-3.1 0-6.2-.2-9.2-.5-2.5-.3-5.1-.4-7.6-.4-4.8 0-9.5.5-14.2 1.6-1.3.3-2.5.5-3.5.5-4.1 0-6.1-2.4-6.1-7.2 2.8-10.7-2.5-16-11.8-21.9-.8-.3-1.5-.4-2.3-.4-6.9 0-14.5 9.5-20.5 9.6h-.2c-9.1 0-10.4-6.4-17.6-6.4-1.9 0-4.1.4-7 1.5-22.9 8.4-3.4 23-25.6 23-1.1 0-2.3 0-3.5-.1-11-.6-31.1-25.3-44.2-25.3-5.8 0-10.2 4.9-11.8 19.1-10.3-15-28.7-21.4-47.3-21.4-11.9 0-23.8 2.6-33.7 7.2-5.9 2.7-11 6.2-15 10.2l-.1.1-1.1 1.1-.1.1c-.4.4-.7.8-1.1 1.2 0 0 0 .1-.1.1-.3.4-.6.7-.9 1.1-.1.1-.1.2-.2.3-.3.4-.5.8-.8 1.1 0 0 0 .1-.1.1-.3.4-.5.8-.8 1.2-.1.1-.1.2-.2.4-.2.3-.3.6-.5.9-.1.1-.1.3-.2.4l-.6 1.2c-.1.1-.1.3-.2.4-.1.3-.2.6-.4.8-.1.2-.1.4-.2.5-.1.3-.2.6-.3.8-.1.2-.1.4-.2.6-.1.3-.2.7-.3 1-.1.2-.1.4-.1.6-.1.2-.1.5-.1.7 0 .2-.1.4-.1.6-.1.3-.1.6-.1 1 0 .3-.1.6-.1.9 0 .2 0 .5-.1.7v3.3c0 .3 0 .5.1.8 0 .2.1.4.1.7 0 .3.1.5.1.8 0 .3.1.5.2.8l.3 1.2c.1.2.1.5.2.7.1.3.1.5.2.8.1.2.2.5.2.7.1.2.2.5.3.7.3.8.6 1.5.9 2.3.1.2.2.3.2.5.1.3.2.5.4.8.2.5.5 1 .8 1.5.8 1.4 1.7 2.8 2.7 4.3 2.6 3.6 6.4 5.8 10.5 6.4.4.1.8.1 1.2.1h.4c.7 0 1.5 0 2.2-.1.3 0 .6-.1.9-.1.2 0 .3-.1.5-.1l1.2-.3c.4-.1.8-.2 1.1-.3.1 0 .2-.1.3-.1.3-.1.6-.2.9-.4.1 0 .2-.1.3-.1.4-.2.7-.4 1.1-.6 1.4-.8 2.9-1.2 4.3-1.2.7 0 1.4.1 2.1.3h.1l.9.3c.1 0 .1 0 .2.1.7.3 1.4.6 2.1 1 0 0 .1 0 .1.1.3.2.6.3.9.5.1 0 .1.1.2.1.3.2.5.4.8.6.1 0 .1.1.2.1.7.5 1.3 1 2 1.6 0 0 .1 0 .1.1.3.3.6.5.9.8l.1.1c5.2 4.7 10 10.8 13.8 10.8 1.1 0 2.1-.5 3-1.7.6-.7 1.2-1.8 1.7-3.1v-.1c.1-.2.2-.4.2-.6v-.1c.1-.2.1-.4.2-.6 1.4-4.2 2.5-11 3.3-21.1 7.2 4.2 12.5 15.8 19.8 16h.7c14.5 0 9.6-16 20.7-16.9h.1c1.4 0 12 3.4 18.9 3.4 2.2 0 4-.3 5-1.2-2.2 3.9 1 8.8 5.3 8.8.7 0 1.4-.1 2.1-.4 6.3-2.3 9.5-3.4 10.9-3.4 4.3 0-6.1 9.3 4.6 24.6.7 1 1.6 1.5 2.6 1.5 8.6 0 26.5-34.2 42.8-34.2 3.7 0 7.2 1.7 10.6 5.9 3.2 4 7.7 5.9 12.1 5.9 6.8 0 13.5-4.5 14.9-12.3 0-.1 0-.2.1-.3 8.9 3.7 12.3 8.6 13.4 14 .1.4.2.8.2 1.2.1.4.1.8.1 1.2v.1c0 .4.1.8.1 1.2v.1c.3 7.3-1.9 15.5.3 23.5.5 1.8 2.2 2.9 3.9 2.9.9 0 1.8-.3 2.5-.9 6.7-5.6 11.4-14.1 16.2-21.6 0-.1.1-.1.1-.2.4-.7.8-1.3 1.2-1.9 0-.1.1-.1.1-.2.4-.7.9-1.3 1.3-2l.1-.1c5-7.2 10.4-12.8 18.4-12.8 4.8 0 10.5 2 17.6 6.8-4 1.9-7.8 4.2-11.2 6.9-.8 3.3-.5 5.5.6 6.9.1.1.2.3.4.4l.1.1c.1.1.3.3.5.4l.1.1c.4.3.9.5 1.4.7.2.1.5.1.8.2h.2c.2 0 .5.1.7.1h1.9c10.2-.3 27.6-9.7 28.7-10C356.3 346.3 352 337 365 337c2.7 0 6.2.4 10.8 1.3 13 2.7 7.2 15.1 23.1 17.2.4.1.8.1 1.2.1 9.9 0-.9-19.1 7.1-19.5h.1c4 0 36.8 16.4 39.4 16.8.6.5 1.1 1 1.6 1.5l.2.2c5.7 5.4 9.1 11.5 18.8 12h.1c2.2 0 8.3-5 15.1-12.2.7-.7 1.4-1.4 2-2.2l.6-.6c.7-.8 1.5-1.6 2.3-2.5 3.9-4.4 7.8-9.2 11.2-13.9zM41.2 176.7C88.3 119.5 166.9 82 256 82s167.7 37.5 214.8 94.7c25.7 31.2 24.5 79.3-15 79.3H56.3c-39.6 0-40.7-48.1-15.1-79.3zm426.2 194.9h-.3c-9.8-.5-14.7-5.7-19-10.3l-.3-.3c-4.7 3.6-8.9 7.8-12.4 12.7l-31.5 44c-1.7 2.4-4.4 3.8-7.3 3.8-2 0-3.8-.6-5.4-1.8l-49.9-37.6c-9.2-6.9-19.2-12.4-29.9-16.5-3.5-.1-6.3-1-8.3-2.9l-20.4-6.3c-.9 1.3-1.7 2.7-2.7 4.2-4.4 7-8.9 14.3-15.3 19.7-1.6 1.3-3.6 2.1-5.7 2.1-4.1 0-7.7-2.7-8.7-6.7-1.6-5.9-1.1-11.7-.7-16.9.2-2.4.4-4.7.3-6.7h-7.3l-34.4 10.7c-13.6 4.2-26.3 10.7-37.6 19.3l-49.9 37.6c-1.6 1.2-3.4 1.8-5.4 1.8-2.9 0-5.6-1.4-7.3-3.8l-31.5-44c-2.4-3.3-5.1-6.3-8.1-9.1-1.8 2.3-4.1 3.4-6.9 3.4-4.9 0-8.9-4.1-13.2-8.3-3-3-6.7-6.6-9.6-7.6H36c-.2.1-.3.2-.5.3-1.9 1.1-4 1.9-6.1 2.3V366c0 35.3 28.7 64 64 64h325c35.3 0 64-28.7 64-64v-4.5c-10.2 10-13.6 10.1-15 10.1zm-459-25.3c-.5-.8-1-1.5-1.5-2.2L.3 355.7c-.1.2-.2.3-.2.5v.1c0 .2-.1.3 0 .5v.1c0 .2 0 .3.1.4 0 .1.1.3.2.4v.1l.3.3.1.1.3.3c.1.1.3.1.4.2h.1c.1 0 .3.1.4.1h.5c.1 0 .3-.1.4-.1L16 353c-3-1.7-5.6-3.9-7.6-6.7zM466.5 261h-421c-8.8 0-16 7.2-16 16v12.9c9.9-4.2 21.6-6.7 33.7-6.7 18 0 33.6 5.5 44.4 15.4 2.8-8.7 7.7-13.1 14.7-13.1 8.6 0 18.1 7.4 27.4 14.6 6 4.7 13.5 10.5 17.1 10.7 1.2.1 2.3.1 3.3.1 5.3 0 6.6-.9 6.8-1.1.4-.4.6-1.8.8-3.1.8-5 2.1-13.3 16.3-18.4 3.3-1.2 6.1-1.8 8.7-1.8 5 0 8.1 2.1 10.5 3.8 2.2 1.5 3.8 2.6 7.1 2.6h.2c1.4 0 4.5-2.1 6.7-3.7 4.1-2.8 8.7-5.9 13.8-5.9 1.4 0 2.7.2 4 .7l.5.2.5.3c8.6 5.5 17.4 12.5 14.1 26.7.1 1 .2 1.4.3 1.6.1 0 .4.1.8.1.6 0 1.4-.1 2.4-.3 4.9-1.2 10.1-1.8 15.3-1.8 2.7 0 5.5.2 8.2.5 2.7.3 5.5.5 8.6.5 15.2 0 31.7-3.8 42.6-6.3 2.8-.6 5.3-1.2 7.3-1.6 16.7-3.4 40.7-7.4 60.3-7.4 6.6 0 12.4.5 17.3 1.4 5.6 1.1 10.6 2.9 16 4.8 8.4 3.1 17.1 6.2 28.7 6.4 1.5 0 5.7-1.5 9.1-2.7 1.7-.6 3.6-1.3 5.5-1.9V277c0-8.8-7.2-16-16-16z" opacity=".1"/><path class="st1" d="M510 358.7h-.5c-.1 0-.3-.1-.4-.1l-16.8-7.3c3.6-4.1 6.9-8.3 9.8-12.3.3.4.5.8.8 1.2l8.9 15.6c.1.2.2.3.2.5v.7c0 .2 0 .3-.1.4 0 .1-.1.3-.2.4v.1l-.3.3-.1.1-.3.3c-.1.1-.3.1-.4.2h-.1c-.2-.1-.3-.1-.5-.1zm-209-10.3l1.4-1.1c1.3-1.1 2.7-2.1 4.2-3-2.8-1.2-5.3-1.8-7.5-1.8-5.2 0-9.1 3.4-13.3 9.3l14.4 4.5c-.2-1.8-.1-3.9.5-6.2l.3-1.7zm99.1 12.3c-.6 0-1.2 0-1.9-.1-10.8-1.4-14.2-7.2-16.7-11.5-1.8-3.2-2.9-4.9-6.8-5.7-4-.8-7.3-1.2-9.8-1.2-4.4 0-5.3 1.1-7.6 3.6-2.6 3-6.2 7.1-15 9.5-.3.1-.9.4-1.5.7-6.2 3-13.5 6.2-20.1 8 8.3 3.8 16.1 8.5 23.4 14l49.9 37.6c.7.5 1.6.8 2.4.8 1.2 0 2.5-.6 3.3-1.7l31.5-44c3.6-5.1 8-9.5 12.9-13.3-1.9-.7-5.3-2.2-13.3-5.9-6.2-2.9-17-7.8-21.8-9.6 0 1 .2 2.2.2 3.1.4 4.5.9 9.5-2.2 13-1.1 1.1-3.3 2.7-6.9 2.7zm-255.7-10.6c-1.3.5-2.6.7-3.9.7-3.9 0-7.5-2.1-9.5-5.5-.4-.7-.7-1.4-1-2.1-5.4 0-12.1-1.7-16.5-2.8-.9-.2-1.9-.5-2.4-.6-1.6.2-2.3 1.2-4 5-2.2 4.8-5.6 11.9-16.6 11.9h-.8c-6.4-.2-11.1-5.4-15.2-10.1l-.5-.5c-.7 5.4-1.6 9.6-2.6 12.7-.2.4-.3.9-.5 1.3 3.6 3.2 6.8 6.7 9.6 10.6l31.5 44c.8 1.1 2 1.7 3.3 1.7.8 0 1.7-.3 2.4-.8l49.9-37.6c11.8-8.9 25-15.7 39.1-20l35.3-11h7.4c-.8-2.6-2.3-4.9-5.4-6.9-3.4 6.4-10 10.6-17.8 10.6-6.2 0-12-2.8-16-7.7-3.2-4-5.8-4-6.7-4-7.2 0-16.9 11.2-24.1 19.4-7.4 8.6-12.8 14.7-18.7 14.7-2.7 0-5.1-1.3-6.7-3.7-6-8.6-6.3-15.8-5.6-20.8-1.4.6-2.8 1.1-4 1.5zm354.2-14.9c.5-.7.9-1.3 1.4-2 .2-.2.3-.5.5-.7.3-.4.6-.8.8-1.3.4-.6.7-1.1 1.1-1.7v-.1c.4-.6.7-1.2 1.1-1.7.1-.2.2-.4.3-.5.2-.4.5-.8.7-1.2.1-.2.2-.4.4-.6.2-.3.4-.7.6-1 .1-.2.2-.4.3-.7.2-.3.3-.6.5-1l.3-.6c.2-.3.3-.6.4-1l.3-.6c.2-.4.3-.7.4-1.1 0-.1.1-.3.2-.4.2-.5.3-.9.5-1.4 0-.1.1-.2.1-.3.1-.3.2-.7.2-1 0-.2.1-.3.1-.5 0-.3.1-.5.1-.8v-1.6c0-.2 0-.4-.1-.7 0-.1 0-.3-.1-.4 0-.2-.1-.4-.2-.6 0-.1-.1-.2-.1-.3-.1-.3-.2-.6-.4-.8-.3-.4-.5-.7-.8-1.1l-.1-.1-.9-.9-.1-.1c-.3-.2-.6-.5-1-.7-.1 0-.1-.1-.2-.1-.3-.2-.7-.4-1-.5-.1 0-.1-.1-.2-.1-.4-.2-.7-.3-1.1-.4h-.2c-.4-.1-.8-.2-1.3-.3h-.1c-.4-.1-.9-.1-1.3-.2h-.1c-.4 0-.9 0-1.4-.1h-.2c-.6 0-1.3 0-1.9.1h-.1c-.6.1-1.3.1-1.9.2h-.2c-.6.1-1.2.2-1.9.3h-.2c-.7.1-1.3.3-2 .5h-.2c-.6.2-1.3.3-1.9.5-.1 0-.2.1-.4.1-.6.2-1.2.3-1.8.5-.1 0-.3.1-.4.1-.6.2-1.2.4-1.7.6-.2.1-.4.1-.7.2-6.3 2.1-12 4.4-15 4.4h-.1c-19.9-.4-31.7-8.7-45.5-11.4-4.8-.9-10.4-1.3-16.4-1.3-20.1 0-44.6 4.3-59.3 7.3-10 2-31.3 8-50.9 8-3.1 0-6.2-.2-9.2-.5-2.5-.3-5.1-.4-7.6-.4-4.8 0-9.5.5-14.2 1.6-1.3.3-2.5.5-3.5.5-4.1 0-6.1-2.4-6.1-7.2 2.8-10.7-2.5-16-11.8-21.9-.8-.3-1.5-.4-2.3-.4-6.9 0-14.5 9.5-20.5 9.6h-.2c-9.1 0-10.4-6.4-17.6-6.4-1.9 0-4.1.4-7 1.5-22.9 8.4-3.4 23-25.6 23-1.1 0-2.3 0-3.5-.1-11-.6-31.1-25.3-44.2-25.3-5.8 0-10.2 4.9-11.8 19.1-10.3-15-28.7-21.4-47.3-21.4-11.9 0-23.8 2.6-33.7 7.2-5.9 2.7-11 6.2-15 10.2l-.1.1-1.1 1.1-.1.1c-.4.4-.7.8-1.1 1.2 0 0 0 .1-.1.1-.3.4-.6.7-.9 1.1-.1.1-.1.2-.2.3-.3.4-.5.8-.8 1.1 0 0 0 .1-.1.1-.3.4-.5.8-.8 1.2-.1.1-.1.2-.2.4-.2.3-.3.6-.5.9-.1.1-.1.3-.2.4l-.6 1.2c-.1.1-.1.3-.2.4-.1.3-.2.6-.4.8-.1.2-.1.4-.2.5-.1.3-.2.6-.3.8-.1.2-.1.4-.2.6-.1.3-.2.7-.3 1-.1.2-.1.4-.1.6-.1.2-.1.5-.1.7 0 .2-.1.4-.1.6-.1.3-.1.6-.1 1 0 .3-.1.6-.1.9 0 .2 0 .5-.1.7v3.3c0 .3 0 .5.1.8 0 .2.1.4.1.7 0 .3.1.5.1.8 0 .3.1.5.2.8l.3 1.2c.1.2.1.5.2.7.1.3.1.5.2.8.1.2.2.5.2.7.1.2.2.5.3.7.3.8.6 1.5.9 2.3.1.2.2.3.2.5.1.3.2.5.4.8.2.5.5 1 .8 1.5.8 1.4 1.7 2.8 2.7 4.3 2.6 3.6 6.4 5.8 10.5 6.4.4.1.8.1 1.2.1h.4c.7 0 1.5 0 2.2-.1.3 0 .6-.1.9-.1.2 0 .3-.1.5-.1l1.2-.3c.4-.1.8-.2 1.1-.3.1 0 .2-.1.3-.1.3-.1.6-.2.9-.4.1 0 .2-.1.3-.1.4-.2.7-.4 1.1-.6 1.4-.8 2.9-1.2 4.3-1.2.7 0 1.4.1 2.1.3h.1l.9.3c.1 0 .1 0 .2.1.7.3 1.4.6 2.1 1 0 0 .1 0 .1.1.3.2.6.3.9.5.1 0 .1.1.2.1.3.2.5.4.8.6.1 0 .1.1.2.1.7.5 1.3 1 2 1.6 0 0 .1 0 .1.1.3.3.6.5.9.8l.1.1c5.2 4.7 10 10.8 13.8 10.8 1.1 0 2.1-.5 3-1.7.6-.7 1.2-1.8 1.7-3.1v-.1c.1-.2.2-.4.2-.6v-.1c.1-.2.1-.4.2-.6 1.4-4.2 2.5-11 3.3-21.1 7.2 4.2 12.5 15.8 19.8 16h.7c14.5 0 9.6-16 20.7-16.9h.1c1.4 0 12 3.4 18.9 3.4 2.2 0 4-.3 5-1.2-2.2 3.9 1 8.8 5.3 8.8.7 0 1.4-.1 2.1-.4 6.3-2.3 9.5-3.4 10.9-3.4 4.3 0-6.1 9.3 4.6 24.6.7 1 1.6 1.5 2.6 1.5 8.6 0 26.5-34.2 42.8-34.2 3.7 0 7.2 1.7 10.6 5.9 3.2 4 7.7 5.9 12.1 5.9 6.8 0 13.5-4.5 14.9-12.3 0-.1 0-.2.1-.3 8.9 3.7 12.3 8.6 13.4 14 .1.4.2.8.2 1.2.1.4.1.8.1 1.2v.1c0 .4.1.8.1 1.2v.1c.3 7.3-1.9 15.5.3 23.5.5 1.8 2.2 2.9 3.9 2.9.9 0 1.8-.3 2.5-.9 6.7-5.6 11.4-14.1 16.2-21.6 0-.1.1-.1.1-.2.4-.7.8-1.3 1.2-1.9 0-.1.1-.1.1-.2.4-.7.9-1.3 1.3-2l.1-.1c5-7.2 10.4-12.8 18.4-12.8 4.8 0 10.5 2 17.6 6.8-4 1.9-7.8 4.2-11.2 6.9-.8 3.3-.5 5.5.6 6.9.1.1.2.3.4.4l.1.1c.1.1.3.3.5.4l.1.1c.4.3.9.5 1.4.7.2.1.5.1.8.2h.2c.2 0 .5.1.7.1h1.9c10.2-.3 27.6-9.7 28.7-10C356.3 346.3 352 337 365 337c2.7 0 6.2.4 10.8 1.3 13 2.7 7.2 15.1 23.1 17.2.4.1.8.1 1.2.1 9.9 0-.9-19.1 7.1-19.5h.1c4 0 36.8 16.4 39.4 16.8.6.5 1.1 1 1.6 1.5l.2.2c5.7 5.4 9.1 11.5 18.8 12h.1c2.2 0 8.3-5 15.1-12.2.7-.7 1.4-1.4 2-2.2l.6-.6c.7-.8 1.5-1.6 2.3-2.5 3.9-4.4 7.8-9.2 11.2-13.9zM41.2 176.7C88.3 119.5 166.9 82 256 82s167.7 37.5 214.8 94.7c25.7 31.2 24.5 79.3-15 79.3H56.3c-39.6 0-40.7-48.1-15.1-79.3zM470.1 205c1 4.1 3.5 7 5.7 6.5s3.1-4.2 2.1-8.3c-1-4.1-3.5-7-5.7-6.5-2.1.4-3 4.2-2.1 8.3zm-4.2 27.4c.9 2 4.7 2.3 8.6.7 3.9-1.7 6.3-4.6 5.4-6.7-.9-2-4.7-2.3-8.6-.7-3.8 1.7-6.3 4.7-5.4 6.7zm-184.4-50.6c1.5-3.9 1.1-7.7-.9-8.6-2.1-.8-5 1.7-6.5 5.6-1.5 3.9-1.1 7.7.9 8.6 2.1.9 5-1.7 6.5-5.6zm5.5 31.6c-.9-4.1-3.3-7.1-5.5-6.7s-3.2 4.2-2.4 8.3c.9 4.1 3.3 7.1 5.5 6.7 2.1-.5 3.2-4.2 2.4-8.3zm115.2 16.9c-2.4-3.4-5.9-5.2-7.7-3.9s-1.3 5.1 1.1 8.5 5.9 5.2 7.7 3.9c1.8-1.3 1.3-5.1-1.1-8.5zm33.7-29.1c-.6 4.2.6 7.8 2.8 8.1 2.2.3 4.5-2.8 5.1-6.9s-.6-7.8-2.8-8.1c-2.1-.4-4.4 2.7-5.1 6.9zm-6.1-40.2c3.3 2.6 7.1 3.3 8.5 1.5s-.2-5.3-3.6-7.8-7.1-3.3-8.5-1.5.2 5.2 3.6 7.8zm-4.1 83.5c1.6 1.5 5.3.2 8.1-2.9 2.9-3.1 3.9-6.8 2.2-8.3s-5.3-.2-8.1 2.9-3.9 6.8-2.2 8.3zm-30-56.7c2.9 3.1 6.5 4.3 8.1 2.8 1.6-1.5.6-5.2-2.3-8.3-2.9-3.1-6.5-4.3-8.1-2.8-1.6 1.5-.6 5.2 2.3 8.3zm-13.2-49.3c1 4.1 3.6 7 5.7 6.4 2.1-.5 3.1-4.3 2.1-8.4-1-4.1-3.6-7-5.7-6.4-2.2.6-3.1 4.3-2.1 8.4zm-28.1 55.3c-3.4 2.5-5.1 5.9-3.8 7.7 1.3 1.8 5.1 1.2 8.5-1.2 3.4-2.5 5.1-5.9 3.8-7.7s-5-1.2-8.5 1.2zm-7.3-54.2c1 2 4.9 2 8.6 0s5.9-5.1 4.9-7.1-4.9-2-8.6 0-5.9 5.1-4.9 7.1zm-21.6-12c1.5 1.7 5.2.8 8.4-2s4.6-6.4 3.1-8c-1.5-1.7-5.2-.8-8.4 2s-4.6 6.4-3.1 8zm-9.6 22.3c3.8 1.7 7.7 1.5 8.6-.5.9-2-1.5-5-5.3-6.8-3.8-1.7-7.7-1.5-8.6.5-.9 2 1.4 5.1 5.3 6.8zm-2.1 58.6c3.7 2 7.5 2.1 8.6.2 1.1-1.9-1.1-5.2-4.7-7.2-3.7-2-7.5-2.1-8.6-.2s1 5.1 4.7 7.2zm-8.1 24.8c2 1 5.1-1.4 6.9-5.2 1.8-3.8 1.7-7.7-.3-8.6-2-1-5.1 1.4-6.9 5.2-1.8 3.8-1.6 7.6.3 8.6zm-15.9-123.9c2.2.3 4.4-2.9 4.9-7.1.5-4.2-.9-7.8-3.1-8-2.2-.3-4.4 2.9-4.9 7.1-.4 4.1.9 7.7 3.1 8zM273 122.8c0 2.2 3.4 4 7.6 4 4.2 0 7.6-1.8 7.6-4s-3.4-4-7.6-4c-4.2 0-7.6 1.8-7.6 4zm-8.2 35.1c2.6 3.3 6.2 4.8 7.9 3.5 1.7-1.4 1-5.2-1.6-8.5s-6.2-4.8-7.9-3.5-1.1 5.2 1.6 8.5zm-187 66.5c-1-2-4.8-2.1-8.6-.3s-6.1 4.9-5.1 6.9 4.8 2.1 8.6.3 6.1-4.9 5.1-6.9zm84.5-26.4c-2.1-.6-4.8 2.2-5.9 6.3-1.1 4.1-.3 7.8 1.8 8.4s4.8-2.2 5.9-6.3c1.1-4.1.3-7.8-1.8-8.4zm72.4-.9c.3 4.2 2.4 7.5 4.6 7.3s3.7-3.7 3.4-7.9c-.3-4.2-2.4-7.5-4.6-7.3-2.2.2-3.7 3.7-3.4 7.9zm10.3 38.5c-3.5-2.4-7.3-2.8-8.6-.9-1.2 1.8.6 5.2 4.1 7.6 3.5 2.4 7.3 2.8 8.6.9 1.2-1.9-.6-5.2-4.1-7.6zM242 95c.6 4.2 2.9 7.3 5.1 6.9 2.2-.3 3.4-4 2.8-8.1-.6-4.2-2.9-7.3-5.1-6.9-2.1.3-3.4 4-2.8 8.1zm-9.2 21.6c1 2 4.8 2.1 8.6.3s6.1-4.9 5.1-6.9-4.8-2.1-8.6-.3c-3.7 1.8-6 4.9-5.1 6.9zM220 145.4c.6 4.2 2.9 7.3 5.1 6.9 2.2-.3 3.4-4 2.8-8.1-.6-4.2-2.9-7.3-5.1-6.9s-3.4 3.9-2.8 8.1zm-5.7 37.9c1.9 1.1 5.2-.9 7.3-4.5 2.2-3.6 2.4-7.5.5-8.6s-5.2.9-7.3 4.5c-2.2 3.7-2.4 7.5-.5 8.6zm-18.8-78.9c.8 2 4.7 2.4 8.6.8 3.9-1.6 6.4-4.5 5.6-6.6-.8-2-4.7-2.4-8.6-.8-4 1.6-6.5 4.6-5.6 6.6zm-6.7 97.3c-2.4 3.4-2.9 7.3-1.1 8.5 1.8 1.3 5.2-.5 7.6-4 2.4-3.4 2.9-7.3 1.1-8.5-1.8-1.2-5.2.6-7.6 4zm-2.8-38.8c2.2.3 4.4-2.9 4.9-7 .5-4.2-.8-7.8-3-8.1-2.2-.3-4.4 2.9-4.9 7-.5 4.2.8 7.8 3 8.1zm-6.9 77.1c1.2 1.9 5 1.6 8.6-.7 3.6-2.2 5.5-5.6 4.3-7.4-1.2-1.9-5-1.6-8.6.7-3.5 2.2-5.5 5.5-4.3 7.4zm-22.2-121.7c3.4 2.5 7.2 3 8.5 1.2s-.4-5.2-3.9-7.7c-3.4-2.5-7.2-3-8.5-1.2-1.3 1.8.4 5.2 3.9 7.7zm-5.4 58.7c1.5 1.6 5.2.6 8.3-2.2s4.4-6.5 2.9-8.1-5.2-.6-8.3 2.2-4.4 6.4-2.9 8.1zm-25.4 53.7c-4.1-.8-7.8.3-8.2 2.5s2.6 4.6 6.7 5.4c4.1.8 7.8-.3 8.2-2.5s-2.5-4.6-6.7-5.4zm-8.3-51.1c-4.2.3-7.5 2.3-7.3 4.5.1 2.2 3.7 3.8 7.9 3.5 4.2-.3 7.5-2.3 7.3-4.5-.2-2.2-3.7-3.8-7.9-3.5zm-12.2-27.4c1.1 1.9 4.9 1.8 8.6-.2 3.7-2 5.8-5.3 4.7-7.2s-4.9-1.8-8.6.2c-3.7 2-5.8 5.3-4.7 7.2zm-31 17.1c.3 4.2 2.4 7.5 4.6 7.3s3.7-3.7 3.4-7.9c-.3-4.2-2.4-7.5-4.6-7.3s-3.7 3.7-3.4 7.9zm-11.6 30c2.2 3.6 5.5 5.5 7.4 4.4 1.9-1.2 1.6-5-.6-8.6s-5.5-5.5-7.4-4.4c-1.9 1.1-1.6 5 .6 8.6zm-26.4 22.5c4-1.4 6.6-4.3 5.8-6.4-.8-2.1-4.6-2.6-8.5-1.2s-6.6 4.3-5.8 6.4c.7 2.1 4.5 2.6 8.5 1.2zm430.8 149.8h-.3c-9.8-.5-14.7-5.7-19-10.3l-.3-.3c-4.7 3.6-8.9 7.8-12.4 12.7l-31.5 44c-1.7 2.4-4.4 3.8-7.3 3.8-2 0-3.8-.6-5.4-1.8l-49.9-37.6c-9.2-6.9-19.2-12.4-29.9-16.5-3.5-.1-6.3-1-8.3-2.9l-20.4-6.3c-.9 1.3-1.7 2.7-2.7 4.2-4.4 7-8.9 14.3-15.3 19.7-1.6 1.3-3.6 2.1-5.7 2.1-4.1 0-7.7-2.7-8.7-6.7-1.6-5.9-1.1-11.7-.7-16.9.2-2.4.4-4.7.3-6.7h-7.3l-34.4 10.7c-13.6 4.2-26.3 10.7-37.6 19.3l-49.9 37.6c-1.6 1.2-3.4 1.8-5.4 1.8-2.9 0-5.6-1.4-7.3-3.8l-31.5-44c-2.4-3.3-5.1-6.3-8.1-9.1-1.8 2.3-4.1 3.4-6.9 3.4-4.9 0-8.9-4.1-13.2-8.3-3-3-6.7-6.6-9.6-7.6H36c-.2.1-.3.2-.5.3-1.9 1.1-4 1.9-6.1 2.3V366c0 35.3 28.7 64 64 64h325c35.3 0 64-28.7 64-64v-4.5c-10.2 10-13.6 10.1-15 10.1zm-459-25.3c-.5-.8-1-1.5-1.5-2.2L.3 355.7c-.1.2-.2.3-.2.5v.1c0 .2-.1.3 0 .5v.1c0 .2 0 .3.1.4 0 .1.1.3.2.4v.1l.3.3.1.1.3.3c.1.1.3.1.4.2h.1c.1 0 .3.1.4.1h.5c.1 0 .3-.1.4-.1L16 353c-3-1.7-5.6-3.9-7.6-6.7zM466.5 261h-421c-8.8 0-16 7.2-16 16v12.9c9.9-4.2 21.6-6.7 33.7-6.7 18 0 33.6 5.5 44.4 15.4 2.8-8.7 7.7-13.1 14.7-13.1 8.6 0 18.1 7.4 27.4 14.6 6 4.7 13.5 10.5 17.1 10.7 1.2.1 2.3.1 3.3.1 5.3 0 6.6-.9 6.8-1.1.4-.4.6-1.8.8-3.1.8-5 2.1-13.3 16.3-18.4 3.3-1.2 6.1-1.8 8.7-1.8 5 0 8.1 2.1 10.5 3.8 2.2 1.5 3.8 2.6 7.1 2.6h.2c1.4 0 4.5-2.1 6.7-3.7 4.1-2.8 8.7-5.9 13.8-5.9 1.4 0 2.7.2 4 .7l.5.2.5.3c8.6 5.5 17.4 12.5 14.1 26.7.1 1 .2 1.4.3 1.6.1 0 .4.1.8.1.6 0 1.4-.1 2.4-.3 4.9-1.2 10.1-1.8 15.3-1.8 2.7 0 5.5.2 8.2.5 2.7.3 5.5.5 8.6.5 15.2 0 31.7-3.8 42.6-6.3 2.8-.6 5.3-1.2 7.3-1.6 16.7-3.4 40.7-7.4 60.3-7.4 6.6 0 12.4.5 17.3 1.4 5.6 1.1 10.6 2.9 16 4.8 8.4 3.1 17.1 6.2 28.7 6.4 1.5 0 5.7-1.5 9.1-2.7 1.7-.6 3.6-1.3 5.5-1.9V277c0-8.8-7.2-16-16-16z"/></svg>