<svg xmlns="http://www.w3.org/2000/svg" viewBox="0 0 512 512" style="enable-background:new 0 0 512 512" xml:space="preserve"><path d="M256 16c47.6 0 85.3 17 111.9 50.7 31.9 40.3 48.1 104 48 189.3 0 60.6-8.3 110.8-24.6 149-11.7 27.5-27.7 49-47.6 64.1-8.2-14-18-31.3-27.6-49.2-39.6-74.2-40.1-93.1-40.1-93.9 0-34.6 9.2-56.9 9.3-57.2-.2.5-.4.8-.4.8.2-.3 15.1-32.5 15.1-83.7 0-9.5 0-34.9-47.8-124.2-8.6-16.1-17.2-31.4-24.2-43.5 8.9-1.5 18.3-2.2 28-2.2m-87.8 26.9c10.3 17.7 19.4 33.9 27.5 49.2 39.7 74.2 40.1 93.1 40.1 93.9 0 33.1-8.4 54.9-9.2 57l-.1.3v.1c-2.4 5.8-14.6 36.8-14.6 82.6 0 9.5 0 34.9 47.8 124.3 8.8 16.3 17.4 31.5 24.3 43.5-9 1.4-18.4 2.2-28 2.2-47.6 0-85.3-17.1-111.9-50.7C112.2 405 96 341.3 96 256c0-60.7 8.3-110.8 24.6-149.1 11.8-27.5 27.7-48.9 47.6-64M256 0c-18.4 0-36.2 2.4-52.8 7.5 8.6 14.5 21.8 37.3 34.9 61.8C284 155.1 284 178.4 284 186c0 45.9-12.8 75.3-13.4 76.5-.1.2-10.6 24.9-10.6 63.5 0 6.9 4.1 30.5 42 101.4 14 26.2 28.2 50.5 36.4 64.3 55.6-31.8 93.5-104 93.5-235.7C432 66 353.2 0 256 0zm-82.5 20.3C117.9 52.1 80 124.2 80 256c0 190 78.8 256 176 256 18.4 0 36.1-2.4 52.8-7.5-8.6-14.5-21.8-37.3-35-61.8-45.9-85.8-45.9-109.1-45.9-116.7 0-45.9 12.9-75.3 13.4-76.5.1-.2 10.6-24.9 10.6-63.5 0-6.8-4.1-30.5-42-101.4-14-26.3-28.2-50.5-36.4-64.3z" style="fill:#fff"/></svg>