<svg version="1.1" xmlns="http://www.w3.org/2000/svg" x="0" y="0" viewBox="0 0 512 512" xml:space="preserve"><path d="M303.8 497.5C287.5 507.7 269.6 512 256 512s-31.5-4.3-47.8-14.5C156.9 465.4-161 54 256 54s99.1 411.4 47.8 443.5z" opacity=".1" fill="#fff"/><path d="M367.5 74c-6.6-2.7-16.2-6.3-26.4-10 5 4.4 8.5 8.8 9.9 13 8 25-5 84-5 84s-7-28-24-57c-7.5-12.7-21.1-30.4-34-46.3 3.3 6.3 5.9 13.2 7 20.3 2.2 14.1-7.2 26.4-17 38-12.4 14.7-22 26-22 26s-9.6-11.3-22-26c-9.8-11.6-19.2-23.9-17-38 1.1-7.1 3.7-14 7-20.3-12.9 15.9-26.5 33.6-34 46.3-17 29-24 57-24 57s-13-59-5-84c1.3-4.2 4.9-8.6 9.9-13-10.2 3.7-19.8 7.3-26.4 10-21.4 8.7-65.4 27.9-67.9 29h-.1s33-29 55-42c1.3-.8 2.7-1.5 4.4-2.3 1.2-.6 2.5-1.2 3.9-1.8.5-.2.9-.4 1.4-.6-24 2.3-59.2 10.2-59.2 10.2s34-27.2 65.4-34c.8-.2 1.6-.3 2.4-.5 1.6-.3 3.4-.7 5.2-1s3.7-.6 5.7-1c2-.3 4-.6 6.1-.9 3.3-.5 6.7-1 10.3-1.4 2-.3 4-.5 6-.8 2.6-.3 5.2-.6 7.8-1 3.3-.4 6.5-.8 9.8-1.1 1.4-.2 2.8-.3 4.2-.5 4.4-.5 8.7-.9 12.9-1.4 1.3-.1 2.6-.3 3.8-.4l5.7-.6c.2 0 .4 0 .6-.1 2.9-.3 5.7-.5 8.3-.8 3.6-.3 6.8-.6 9.5-.9V6c0-3.3 2.7-6 6-6h9c3.3 0 6 2.7 6 6v14.4c6.3.6 14.8 1.3 24.4 2.3 2.1.2 4.3.4 6.5.7 2.2.2 4.5.5 6.7.7 11.4 1.2 23.3 2.6 34.2 4.1 2.2.3 4.3.6 6.4.9s4.1.6 6 .9c4.9.8 9.3 1.6 13 2.4 2 .4 3.9.9 5.9 1.5 3 .9 5.9 1.9 8.9 3 1 .4 2 .8 2.9 1.2 6.8 2.8 13.4 6.1 19.4 9.5.9.5 1.7 1 2.5 1.5 15 8.7 25.8 17.3 25.8 17.3s-3.3-.7-8.6-1.8c-1.6-.3-3.4-.7-5.3-1.1-3.8-.8-8.2-1.6-12.9-2.5-.8-.1-1.6-.3-2.3-.4-1.6-.3-3.2-.6-4.8-.8-.8-.1-1.6-.3-2.4-.4-7.3-1.2-14.9-2.3-21.6-3 .5.2.9.4 1.3.6.9.4 1.7.8 2.5 1.2 1.6.8 3.1 1.5 4.5 2.3.3.2.7.4 1 .6 22 13 55 42 55 42h-.1c-2.7-1.2-46.7-20.4-68.1-29.1zm76.6 41.5c90.2 116-101.5 357.7-140.3 382-16.3 10.2-34.2 14.5-47.8 14.5-13.6 0-31.5-4.3-47.8-14.5-38.8-24.3-230.5-266.1-140.3-382l11.8-5.1c.5-.2 46.2-20.1 67.8-28.9 1.4-.6 2.9-1.2 4.6-1.8-5.8 28.4 5.6 80.8 6.1 83.1l7.3 33.2 8.3-33c.1-.3 7-27.3 23.1-54.9 2.9-5 7.1-11.3 12.5-18.6 2.4 11.7 10.3 22 18.5 31.7 12.3 14.5 21.9 25.9 22 26l6.1 7.2 6.1-7.2c.1-.1 9.8-11.5 22-26 8.2-9.7 16.1-20 18.5-31.7 5.4 7.3 9.6 13.6 12.5 18.6 16.2 27.6 23.1 54.6 23.1 54.9l8.3 32.9 7.3-33.1c.5-2.3 11.9-54.7 6.1-83.1 1.7.7 3.2 1.3 4.6 1.8 21.7 8.9 67.4 28.7 67.8 28.9l11.8 5.1zM119.5 112c0 3.6 2.9 14.5 6.5 14.5s6.5-10.9 6.5-14.5-2.9-6.5-6.5-6.5-6.5 2.9-6.5 6.5zm10 140c0 3.6 2.9 14.5 6.5 14.5s6.5-10.9 6.5-14.5c0-3.6-2.9-6.5-6.5-6.5s-6.5 2.9-6.5 6.5zm-20-100c0 3.6 2.9 14.5 6.5 14.5s6.5-10.9 6.5-14.5c0-3.6-2.9-6.5-6.5-6.5s-6.5 2.9-6.5 6.5zm-3.5 43.5c-3.6 0-6.5 2.9-6.5 6.5s2.9 14.5 6.5 14.5 6.5-10.9 6.5-14.5c0-3.6-2.9-6.5-6.5-6.5zM89.5 112c0 3.6 2.9 14.5 6.5 14.5s6.5-10.9 6.5-14.5-2.9-6.5-6.5-6.5-6.5 2.9-6.5 6.5zm-21 40c0-3.6-2.9-6.5-6.5-6.5s-6.5 2.9-6.5 6.5 2.9 14.5 6.5 14.5 6.5-10.9 6.5-14.5zm14 100c0-3.6-2.9-6.5-6.5-6.5s-6.5 2.9-6.5 6.5 2.9 14.5 6.5 14.5 6.5-10.9 6.5-14.5zm0-50c0-3.6-2.9-6.5-6.5-6.5s-6.5 2.9-6.5 6.5 2.9 14.5 6.5 14.5 6.5-10.9 6.5-14.5zm10-50c0-3.6-2.9-6.5-6.5-6.5s-6.5 2.9-6.5 6.5 2.9 14.5 6.5 14.5 6.5-10.9 6.5-14.5zm10 150c0-3.6-2.9-6.5-6.5-6.5s-6.5 2.9-6.5 6.5 2.9 14.5 6.5 14.5 6.5-10.9 6.5-14.5zm10-50c0-3.6-2.9-6.5-6.5-6.5s-6.5 2.9-6.5 6.5 2.9 14.5 6.5 14.5 6.5-10.9 6.5-14.5zm10 90c0-3.6-2.9-6.5-6.5-6.5s-6.5 2.9-6.5 6.5 2.9 14.5 6.5 14.5 6.5-10.9 6.5-14.5zm10-40c0-3.6-2.9-6.5-6.5-6.5s-6.5 2.9-6.5 6.5 2.9 14.5 6.5 14.5 6.5-10.9 6.5-14.5zm10 80c0-3.6-2.9-6.5-6.5-6.5s-6.5 2.9-6.5 6.5 2.9 14.5 6.5 14.5 6.5-10.9 6.5-14.5zm10-40c0-3.6-2.9-6.5-6.5-6.5s-6.5 2.9-6.5 6.5 2.9 14.5 6.5 14.5 6.5-10.9 6.5-14.5zm0-140c0-3.6-2.9-6.5-6.5-6.5s-6.5 2.9-6.5 6.5 2.9 14.5 6.5 14.5 6.5-10.9 6.5-14.5zm0-50c0-3.6-2.9-6.5-6.5-6.5s-6.5 2.9-6.5 6.5 2.9 14.5 6.5 14.5 6.5-10.9 6.5-14.5zM336 245.5c-3.6 0-6.5 2.9-6.5 6.5s2.9 14.5 6.5 14.5 6.5-10.9 6.5-14.5c0-3.6-2.9-6.5-6.5-6.5zM319.5 152c0 3.6 2.9 14.5 6.5 14.5s6.5-10.9 6.5-14.5c0-3.6-2.9-6.5-6.5-6.5s-6.5 2.9-6.5 6.5zm-20-40c0 3.6 2.9 14.5 6.5 14.5s6.5-10.9 6.5-14.5-2.9-6.5-6.5-6.5-6.5 2.9-6.5 6.5zm0 190c0 3.6 2.9 14.5 6.5 14.5s6.5-10.9 6.5-14.5c0-3.6-2.9-6.5-6.5-6.5s-6.5 2.9-6.5 6.5zm-20-50c0 3.6 2.9 14.5 6.5 14.5s6.5-10.9 6.5-14.5c0-3.6-2.9-6.5-6.5-6.5s-6.5 2.9-6.5 6.5zm-10-100c0 3.6 2.9 14.5 6.5 14.5s6.5-10.9 6.5-14.5c0-3.6-2.9-6.5-6.5-6.5s-6.5 2.9-6.5 6.5zm0 190c0 3.6 2.9 14.5 6.5 14.5s6.5-10.9 6.5-14.5c0-3.6-2.9-6.5-6.5-6.5s-6.5 2.9-6.5 6.5zm-40-190c0 3.6 2.9 14.5 6.5 14.5s6.5-10.9 6.5-14.5c0-3.6-2.9-6.5-6.5-6.5s-6.5 2.9-6.5 6.5zm6.5 183.5c-3.6 0-6.5 2.9-6.5 6.5s2.9 14.5 6.5 14.5 6.5-10.9 6.5-14.5c0-3.6-2.9-6.5-6.5-6.5zM219.5 252c0 3.6 2.9 14.5 6.5 14.5s6.5-10.9 6.5-14.5c0-3.6-2.9-6.5-6.5-6.5s-6.5 2.9-6.5 6.5zm-20-140c0 3.6 2.9 14.5 6.5 14.5s6.5-10.9 6.5-14.5-2.9-6.5-6.5-6.5-6.5 2.9-6.5 6.5zm6.5 183.5c-3.6 0-6.5 2.9-6.5 6.5s2.9 14.5 6.5 14.5 6.5-10.9 6.5-14.5c0-3.6-2.9-6.5-6.5-6.5zM179.5 152c0 3.6 2.9 14.5 6.5 14.5s6.5-10.9 6.5-14.5c0-3.6-2.9-6.5-6.5-6.5s-6.5 2.9-6.5 6.5zm-10 100c0 3.6 2.9 14.5 6.5 14.5s6.5-10.9 6.5-14.5c0-3.6-2.9-6.5-6.5-6.5s-6.5 2.9-6.5 6.5zm3 50c0-3.6-2.9-6.5-6.5-6.5s-6.5 2.9-6.5 6.5 2.9 14.5 6.5 14.5 6.5-10.9 6.5-14.5zm10 120c0-3.6-2.9-6.5-6.5-6.5s-6.5 2.9-6.5 6.5 2.9 14.5 6.5 14.5 6.5-10.9 6.5-14.5zm0-40c0-3.6-2.9-6.5-6.5-6.5s-6.5 2.9-6.5 6.5 2.9 14.5 6.5 14.5 6.5-10.9 6.5-14.5zm10-40c0-3.6-2.9-6.5-6.5-6.5s-6.5 2.9-6.5 6.5 2.9 14.5 6.5 14.5 6.5-10.9 6.5-14.5zm10-140c0-3.6-2.9-6.5-6.5-6.5s-6.5 2.9-6.5 6.5 2.9 14.5 6.5 14.5 6.5-10.9 6.5-14.5zm9 260c0-3.6-2.9-6.5-6.5-6.5s-6.5 2.9-6.5 6.5 2.9 14.5 6.5 14.5 6.5-10.9 6.5-14.5zm2-40c0-3.6-2.9-6.5-6.5-6.5s-6.5 2.9-6.5 6.5 2.9 14.5 6.5 14.5 6.5-10.9 6.5-14.5zm9-40c0-3.6-2.9-6.5-6.5-6.5s-6.5 2.9-6.5 6.5 2.9 14.5 6.5 14.5 6.5-10.9 6.5-14.5zm13 80c0-3.6-2.9-6.5-6.5-6.5s-6.5 2.9-6.5 6.5 2.9 14.5 6.5 14.5 6.5-10.9 6.5-14.5zm11-40c0-3.6-2.9-6.5-6.5-6.5s-6.5 2.9-6.5 6.5 2.9 14.5 6.5 14.5 6.5-10.9 6.5-14.5zm16 40c0-3.6-2.9-6.5-6.5-6.5s-6.5 2.9-6.5 6.5 2.9 14.5 6.5 14.5 6.5-10.9 6.5-14.5zm0-80c0-3.6-2.9-6.5-6.5-6.5s-6.5 2.9-6.5 6.5 2.9 14.5 6.5 14.5 6.5-10.9 6.5-14.5zm0-80c0-3.6-2.9-6.5-6.5-6.5s-6.5 2.9-6.5 6.5 2.9 14.5 6.5 14.5 6.5-10.9 6.5-14.5zm0-100c0-3.6-2.9-6.5-6.5-6.5s-6.5 2.9-6.5 6.5 2.9 14.5 6.5 14.5 6.5-10.9 6.5-14.5zm16 220c0-3.6-2.9-6.5-6.5-6.5s-6.5 2.9-6.5 6.5 2.9 14.5 6.5 14.5 6.5-10.9 6.5-14.5zm11 40c0-3.6-2.9-6.5-6.5-6.5s-6.5 2.9-6.5 6.5 2.9 14.5 6.5 14.5 6.5-10.9 6.5-14.5zm13-80c0-3.6-2.9-6.5-6.5-6.5s-6.5 2.9-6.5 6.5 2.9 14.5 6.5 14.5 6.5-10.9 6.5-14.5zm-4 40c0 3.6 2.9 14.5 6.5 14.5s6.5-10.9 6.5-14.5c0-3.6-2.9-6.5-6.5-6.5s-6.5 2.9-6.5 6.5zm15 40c0-3.6-2.9-6.5-6.5-6.5s-6.5 2.9-6.5 6.5 2.9 14.5 6.5 14.5 6.5-10.9 6.5-14.5zm9-260c0-3.6-2.9-6.5-6.5-6.5s-6.5 2.9-6.5 6.5 2.9 14.5 6.5 14.5 6.5-10.9 6.5-14.5zm10 140c0-3.6-2.9-6.5-6.5-6.5s-6.5 2.9-6.5 6.5 2.9 14.5 6.5 14.5 6.5-10.9 6.5-14.5zm10 80c0-3.6-2.9-6.5-6.5-6.5s-6.5 2.9-6.5 6.5 2.9 14.5 6.5 14.5 6.5-10.9 6.5-14.5zm0-40c0-3.6-2.9-6.5-6.5-6.5s-6.5 2.9-6.5 6.5 2.9 14.5 6.5 14.5 6.5-10.9 6.5-14.5zm10-80c0-3.6-2.9-6.5-6.5-6.5s-6.5 2.9-6.5 6.5 2.9 14.5 6.5 14.5 6.5-10.9 6.5-14.5zm57-190c0 3.6 2.9 14.5 6.5 14.5s6.5-10.9 6.5-14.5-2.9-6.5-6.5-6.5-6.5 2.9-6.5 6.5zm-3.5 83.5c-3.6 0-6.5 2.9-6.5 6.5s2.9 14.5 6.5 14.5 6.5-10.9 6.5-14.5c0-3.6-2.9-6.5-6.5-6.5zm-10-50c-3.6 0-6.5 2.9-6.5 6.5s2.9 14.5 6.5 14.5 6.5-10.9 6.5-14.5c0-3.6-2.9-6.5-6.5-6.5zM379.5 112c0 3.6 2.9 14.5 6.5 14.5s6.5-10.9 6.5-14.5-2.9-6.5-6.5-6.5-6.5 2.9-6.5 6.5zM376 245.5c-3.6 0-6.5 2.9-6.5 6.5s2.9 14.5 6.5 14.5 6.5-10.9 6.5-14.5c0-3.6-2.9-6.5-6.5-6.5zM359.5 152c0 3.6 2.9 14.5 6.5 14.5s6.5-10.9 6.5-14.5c0-3.6-2.9-6.5-6.5-6.5s-6.5 2.9-6.5 6.5zm0 50c0 3.6 2.9 14.5 6.5 14.5s6.5-10.9 6.5-14.5c0-3.6-2.9-6.5-6.5-6.5s-6.5 2.9-6.5 6.5zm13 140c0-3.6-2.9-6.5-6.5-6.5s-6.5 2.9-6.5 6.5 2.9 14.5 6.5 14.5 6.5-10.9 6.5-14.5zm10 40c0-3.6-2.9-6.5-6.5-6.5s-6.5 2.9-6.5 6.5 2.9 14.5 6.5 14.5 6.5-10.9 6.5-14.5zm10-80c0-3.6-2.9-6.5-6.5-6.5s-6.5 2.9-6.5 6.5 2.9 14.5 6.5 14.5 6.5-10.9 6.5-14.5zm10 40c0-3.6-2.9-6.5-6.5-6.5s-6.5 2.9-6.5 6.5 2.9 14.5 6.5 14.5 6.5-10.9 6.5-14.5zm10-90c0-3.6-2.9-6.5-6.5-6.5s-6.5 2.9-6.5 6.5 2.9 14.5 6.5 14.5 6.5-10.9 6.5-14.5zm10 50c0-3.6-2.9-6.5-6.5-6.5s-6.5 2.9-6.5 6.5 2.9 14.5 6.5 14.5 6.5-10.9 6.5-14.5zm10-150c0-3.6-2.9-6.5-6.5-6.5s-6.5 2.9-6.5 6.5 2.9 14.5 6.5 14.5 6.5-10.9 6.5-14.5zm10 100c0-3.6-2.9-6.5-6.5-6.5s-6.5 2.9-6.5 6.5 2.9 14.5 6.5 14.5 6.5-10.9 6.5-14.5zm0-50c0-3.6-2.9-6.5-6.5-6.5s-6.5 2.9-6.5 6.5 2.9 14.5 6.5 14.5 6.5-10.9 6.5-14.5zm7.5-56.5c-3.6 0-6.5 2.9-6.5 6.5s2.9 14.5 6.5 14.5 6.5-10.9 6.5-14.5c0-3.6-2.9-6.5-6.5-6.5z" fill="#fff"/></svg>