<svg xmlns="http://www.w3.org/2000/svg" viewBox="0 0 512 512" xml:space="preserve"><path d="M431 130h-7.5c2.8-3.9 4.5-8.8 4.5-14 0-3.6-.8-7-2.2-10 1.4-3 2.2-6.4 2.2-10 0-13.3-10.7-24-24-24-1.7 0-3.4.2-5 .5 1.3-2.9 2-6.1 2-9.5 0-13.3-10.7-24-24-24-3.6 0-6.9.8-10 2.2-2.9-9.9-12.1-17.2-23-17.2-4.8 0-9.3 1.4-13 3.8-3-1.9-6.4-3.2-10.1-3.7C316.8 16.9 309 12 300 12c-5.3 0-10.2 1.7-14.2 4.6C282.7 7 273.7 0 263 0c-10 0-18.6 6.2-22.2 14.9C236.6 11.2 231 9 225 9c-9.3 0-17.4 5.3-21.3 13-3-1.3-6.2-2-9.7-2-13.3 0-24 10.7-24 24 0 4.6 1.3 8.9 3.5 12.6l-3.6 2.2c-2.8-1.1-5.8-1.7-9-1.7-9 0-16.8 4.9-20.9 12.2-4.3-3.9-9.9-6.2-16.1-6.2-13.3 0-24 10.7-24 24 0 2.1.3 4.1.8 6h-.8c-13.3 0-24 10.7-24 24 0 4.8 1.4 9.3 3.9 13.1-3.8.4-6.8 3.8-6.8 7.8 0 4.4 3.6 8 8 8h4.1l37.3 334c2 18.2 17.4 32 35.8 32h195.6c18.3 0 33.7-13.8 35.8-32l37.3-334h4.1c4.4 0 8-3.6 8-8s-3.6-8-8-8z" opacity=".1" fill="#fff"/><path d="M431 130h-7.5c2.8-3.9 4.5-8.8 4.5-14 0-3.6-.8-7-2.2-10 1.4-3 2.2-6.4 2.2-10 0-13.3-10.7-24-24-24-1.7 0-3.4.2-5 .5 1.3-2.9 2-6.1 2-9.5 0-13.3-10.7-24-24-24-3.6 0-6.9.8-10 2.2-2.9-9.9-12.1-17.2-23-17.2-4.8 0-9.3 1.4-13 3.8-3-1.9-6.4-3.2-10.1-3.6C316.7 16.9 309 12 300 12c-5.3 0-10.2 1.7-14.2 4.6C282.7 7 273.7 0 263 0c-10 0-18.6 6.2-22.2 14.9C236.6 11.2 231 9 225 9c-9.3 0-17.4 5.3-21.3 13-3-1.3-6.2-2-9.7-2-13.3 0-24 10.7-24 24 0 4.6 1.3 8.9 3.5 12.6l-3.6 2.2c-2.8-1.1-5.8-1.7-9-1.7-9 0-16.8 4.9-20.9 12.2-4.3-3.9-9.9-6.2-16.1-6.2-13.3 0-24 10.7-24 24 0 2.1.3 4.1.8 6h-.8c-13.3 0-24 10.7-24 24 0 4.8 1.4 9.3 3.9 13.1-3.8.4-6.8 3.8-6.8 7.8 0 4.4 3.6 8 8 8h4.1l37.3 334c2 18.2 17.4 32 35.8 32h195.6c18.3 0 33.7-13.8 35.8-32l37.3-334h4.1c4.4 0 8-3.6 8-8s-3.6-8-8-8zM331 37.4l4.3-2.8c2.6-1.7 5.6-2.6 8.7-2.6 7 0 13.3 4.7 15.3 11.4l2.6 8.8 8.4-3.8c2.1-1 4.3-1.5 6.7-1.5 8.8 0 16 7.2 16 16 0 2.2-.4 4.3-1.3 6.3l-6.1 14.2 15.1-3.2c1.1-.2 2.2-.3 3.3-.3 8.8 0 16 7.2 16 16 0 2.3-.5 4.6-1.5 6.7L417 106l1.5 3.3c1 2.1 1.5 4.3 1.5 6.7 0 8.8-7.2 16-16 16-4.3 0-8.3-1.7-11.3-4.7l-2.3-2.3h-12.1l-2.4 2.7c-3 3.4-7.4 5.3-11.9 5.3s-8.9-1.9-11.9-5.3l-2.4-2.7h-61.1l-2.3 2.3c-3 3-7 4.7-11.3 4.7-4.3 0-8.3-1.7-11.3-4.7l-2.3-2.3h-8.1l-2.4 2.7c-3 3.4-7.4 5.3-11.9 5.3-8.8 0-16-7.2-16-16 0-8 6-14.8 13.9-15.9l9-1.2-2.4-8.8c-.4-1.4-.5-2.8-.5-4.1 0-8.8 7.2-16 16-16 2.1 0 4.1.4 6 1.2l12 4.9-.9-12.9c0-.5-.1-.9-.1-1.2 0-8.8 7.2-16 16-16 .8 0 1.6.1 2.4.2l6.3 1 2.3-6c2.5-6.2 8.4-10.2 15-10.2 3.1 0 6.1.9 8.7 2.6l4.3 2.8zM100 101h.5l10.7.3-2.7-10.3c-.3-1.3-.5-2.7-.5-4 0-8.8 7.2-16 16-16 4 0 7.8 1.5 10.7 4.1l7.4 6.7 4.9-8.7c2.8-5 8.2-8.1 13.9-8.1 2.1 0 4.1.4 6 1.2l3.7 1.5 3.4-2.1 3.6-2.2 6.8-4.2-4.2-6.8c-1.5-2.5-2.4-5.4-2.4-8.4 0-8.8 7.2-16 16-16 2.2 0 4.4.5 6.4 1.4l6.9 3 3.4-6.7c2.8-5.4 8.2-8.7 14.2-8.7 3.9 0 7.6 1.4 10.5 4l8.4 7.4 4.2-10.4c2.5-6 8.3-10 14.8-10 7 0 13.1 4.5 15.2 11.1l3.4 10.5 8.9-6.5c2.8-2 6-3.1 9.4-3.1 4.5 0 8.6 1.9 11.5 4.9-7.3 2-13.2 7.4-15.9 14.4-1.2-.2-2.4-.3-3.6-.3-13.3 0-24 10.7-24 24 0 .6 0 1.2.1 1.8-2.8-1.1-5.9-1.8-9.1-1.8-13.3 0-24 10.7-24 24 0 2.2.3 4.2.8 6.2-11.2 1.6-20.3 11.6-20.3 23.8 0 3 .6 5.8 1.5 8.5l-29.9.6-3.2.1-2.3 2.2c-3 3-7 4.6-11.2 4.6-4 0-7.8-1.5-10.7-4.1l-2.4-2.1-3.2.1h-1.9l-3 .1-2.2 2c-2.9 2.6-6.7 4.1-10.7 4.1-3.7 0-7.3-1.3-10.1-3.6l-2.3-1.9-3 .1-5.7.1-2.7.1-2.1 1.7c-2.9 2.3-6.3 3.5-10 3.5-8.8 0-16-7.2-16-16S91.2 101 100 101zm41.2 393c-4.1 0-7.5-3.1-8-7.2L97.5 146h22.9L151 494h-9.8zm27.8 0-24.6-348h42.8L201 494h-32zm108 0h-42l-6.9-348h55.8L277 494zm66 0h-32l13.8-348h42.8L343 494zm35.8-7.2c-.4 4.1-3.9 7.2-8 7.2H361l30.6-348h22.9l-35.7 340.8z" fill="#fff"/></svg>