<svg version="1.1" xmlns="http://www.w3.org/2000/svg" x="0" y="0" viewBox="0 0 512 512" xml:space="preserve"><path d="M485.8 0h-121v32h-48.3V0h-121v32h-48.3V0h-121v32H63c-17.7 0-32 14.3-32 32s14.3 32 32 32h15.6l135.6 161.6L37.4 468.3c-10.9 13-9.7 32.1 2.4 43.7h44.3c.8-.8 1.6-1.6 2.4-2.5L256 307.4l169.6 202.1c.7.9 1.5 1.7 2.4 2.5h44.3c12.1-11.6 13.3-30.7 2.4-43.7L297.8 257.6 433.4 96H449c17.7 0 32-14.3 32-32s-14.3-32-32-32h36.8V0zM256 207.8L162.2 96h187.7L256 207.8z" opacity=".1" fill="#fff"/><path d="M485.8 0h-121v32h-48.3V0h-121v32h-48.3V0h-121v32H63c-17.7 0-32 14.3-32 32s14.3 32 32 32h15.6l135.6 161.6L37.4 468.3c-10.9 13-9.7 32.1 2.4 43.7h44.3c.8-.8 1.6-1.6 2.4-2.5L256 307.4l169.6 202.1c.7.9 1.5 1.7 2.4 2.5h44.3c12.1-11.6 13.3-30.7 2.4-43.7L297.8 257.6 433.4 96H449c17.7 0 32-14.3 32-32s-14.3-32-32-32h36.8V0zM97.5 74c-5.5 0-10-4.5-10-10s4.5-10 10-10 10 4.5 10 10-4.5 10-10 10zM256 266c-5.5 0-10-4.5-10-10s4.5-10 10-10 10 4.5 10 10-4.5 10-10 10zm0-58.2L162.2 96h187.7L256 207.8zM414.5 74c-5.5 0-10-4.5-10-10s4.5-10 10-10 10 4.5 10 10-4.5 10-10 10z" fill="#fff"/></svg>