<svg version="1.1" xmlns="http://www.w3.org/2000/svg" x="0" y="0" viewBox="0 0 512 512" xml:space="preserve"><path d="M298.6 281.3L398 512h22l-79.4-238.9 3.4-.7c1.6-.3 2.9-1.6 3.2-3.2 1.5-9.2 8.2-17.2 17.8-19.8 1.8-.5 3-2.3 2.5-4.2l-.1-.3 45.1-2.8c1.1-.1 1.9-1 1.9-2.1l-.8-12c-.1-1.1-1-1.9-2.1-1.9l-234 14.7c-1.1.1-1.9 1-1.9 2.1l.2 3.7c-8-4.6-14.2-12.3-16.7-21.8l-26.4-98.5c.3 1.1 1.4 1.7 2.4 1.4l11.6-3.1c1.1-.3 1.7-1.4 1.4-2.4L115.8 1.5c-.3-1.1-1.4-1.7-2.4-1.4l-11.6 3.1c-1.1.3-1.7 1.4-1.4 2.4l11.4 42.5-10.1 6.7c-.2.2-.5.3-.7.5-.4.4-.8.8-1.1 1.3-.7 1.2-1.1 2.6-.9 4l7.1 55.6 18.6 146c3.6 28.1 30.2 47.3 58 41.9l5.9-1.2L116.4 512h16.9l73.4-212.7 88-17.3 3.9-.7z" fill="#fff"/></svg>