<svg version="1.1" xmlns="http://www.w3.org/2000/svg" x="0" y="0" viewBox="0 0 512 512" xml:space="preserve"><path d="M367.2 412c15.4-4.6 29.9-13.6 42-26.9 9.3-10.2 16.2-22 20.8-34.7-19.7 8.7-41.4 9.9-61.6 3.4 8.5-4.6 16.4-10.7 23.5-18.5 8.5-9.4 14.9-20.3 19.2-32-20.6 9.2-43.7 9.3-64.4.4 8.6-4.3 16.7-10.3 23.8-18.1 7.8-8.6 13.7-18.6 17.6-29.3-19.1 8.5-40.6 8.5-59.7 0 7.4-3.8 14.4-9.1 20.5-15.9 7.1-7.9 12.4-16.9 16-26.6-16.8 7.5-35.6 7.7-52.6.7 7-3.5 13.6-8.4 19.4-14.8 6.4-7.1 11.2-15.2 14.4-23.9-14.5 6.5-30.7 6.9-45.5 1.4 6.6-3.1 12.8-7.6 18.1-13.5 5.7-6.3 9.9-13.5 12.8-21.3-12.8 5.7-27.1 6.1-40.1 1.3 5.6-2.7 10.9-6.6 15.4-11.6 5-5.5 8.7-11.8 11.2-18.6-11.1 4.9-23.4 5.3-34.7 1.3 4.7-2.3 9-5.6 12.9-9.8 4.3-4.7 7.4-10.1 9.5-15.9-9.3 4.1-19.5 4.6-29 1.3 3.8-1.9 7.3-4.6 10.4-8 3.5-3.9 6.2-8.4 7.9-13.2-7.4 3.3-15.6 3.8-23.3 1.4 2.9-1.5 5.6-3.6 7.9-6.2 2.8-3.1 4.9-6.7 6.3-10.5-5.5 2.5-11.6 2.9-17.3 1.4 2-1.1 3.9-2.6 5.6-4.4 2.1-2.3 3.7-5 4.7-7.9h-.1c-5.5 2.4-12 .5-15.5-4.3-.4-.6-.9-1.2-1.3-1.9-2.8-4.3-4.6-9.9-5.5-13l10.1 6.1-4.3-10.7 8.6-8.6h-10.7L256 0l-4.3 10.7H241l8.6 8.6-4.3 10.7 10.1-6.1c-.9 3.1-2.7 8.7-5.5 13-.4.7-.9 1.3-1.3 1.9-3.5 4.8-10 6.7-15.5 4.3h-.1c1 2.9 2.6 5.5 4.7 7.9 1.7 1.8 3.6 3.3 5.6 4.4-5.7 1.5-11.8 1-17.3-1.4 1.4 3.8 3.5 7.4 6.3 10.5 2.4 2.6 5.1 4.7 7.9 6.2-7.6 2.4-15.8 1.9-23.3-1.4 1.8 4.8 4.4 9.3 7.9 13.2 3.1 3.4 6.6 6.1 10.4 8-9.5 3.2-19.8 2.8-29-1.3 2.1 5.8 5.3 11.2 9.5 15.9 3.8 4.2 8.2 7.5 12.9 9.8-11.3 4-23.6 3.6-34.7-1.3 2.5 6.8 6.2 13.1 11.2 18.6 4.6 5.1 9.8 8.9 15.4 11.6-13 4.8-27.3 4.4-40.1-1.3 2.8 7.7 7.1 15 12.8 21.3 5.4 5.9 11.5 10.4 18.1 13.5-14.8 5.6-31 5.1-45.5-1.4 3.2 8.7 8 16.9 14.4 23.9 5.8 6.4 12.4 11.3 19.4 14.8-16.9 7-35.8 6.7-52.6-.7 3.5 9.7 8.9 18.8 16 26.6 6.1 6.8 13.1 12.1 20.5 15.9-19.1 8.5-40.6 8.5-59.7 0 3.9 10.7 9.8 20.7 17.6 29.3 7.1 7.8 15.2 13.8 23.8 18.1-20.7 8.9-43.8 8.8-64.4-.4 4.3 11.6 10.7 22.5 19.2 32 7 7.8 15 13.9 23.5 18.5-20.2 6.4-42 5.3-61.6-3.4 4.6 12.6 11.5 24.4 20.8 34.7 12.1 13.3 26.6 22.3 42 26.9-23.8 9.9-50.3 9.6-73.9-.9 5 13.6 12.4 26.3 22.4 37.3 20 22.1 46.4 33.1 72.6 32.9h77.8V506c0 3.3 2.7 6 6 6h12.6c3.3 0 6-2.7 6-6v-24.8H346c26.3.2 52.6-10.7 72.6-32.9 10-11 17.5-23.7 22.4-37.3-23.5 10.5-50 10.8-73.8 1z" opacity=".1" fill="#fff"/><path d="M367.2 412c15.4-4.6 29.9-13.6 42-26.9 9.3-10.2 16.2-22 20.8-34.7-19.7 8.7-41.4 9.9-61.6 3.4 8.5-4.6 16.4-10.7 23.5-18.5 8.5-9.4 14.9-20.3 19.2-32-20.6 9.2-43.7 9.3-64.4.4 8.6-4.3 16.7-10.3 23.8-18.1 7.8-8.6 13.7-18.6 17.6-29.3-19.1 8.5-40.6 8.5-59.7 0 7.4-3.8 14.4-9.1 20.5-15.9 7.1-7.9 12.4-16.9 16-26.6-16.8 7.5-35.6 7.7-52.6.7 7-3.5 13.6-8.4 19.4-14.8 6.4-7.1 11.2-15.2 14.4-23.9-14.5 6.5-30.7 6.9-45.5 1.4 6.6-3.1 12.8-7.6 18.1-13.5 5.7-6.3 9.9-13.5 12.8-21.3-12.8 5.7-27.1 6.1-40.1 1.3 5.6-2.7 10.9-6.6 15.4-11.6 5-5.5 8.7-11.8 11.2-18.6-11.1 4.9-23.4 5.3-34.7 1.3 4.7-2.3 9-5.6 12.9-9.8 4.3-4.7 7.4-10.1 9.5-15.9-9.3 4.1-19.5 4.6-29 1.3 3.8-1.9 7.3-4.6 10.4-8 3.5-3.9 6.2-8.4 7.9-13.2-7.4 3.3-15.6 3.8-23.3 1.4 2.9-1.5 5.6-3.6 7.9-6.2 2.8-3.1 4.9-6.7 6.3-10.5-5.5 2.5-11.6 2.9-17.3 1.4 2-1.1 3.9-2.6 5.6-4.4 2.1-2.3 3.7-5 4.7-7.9h-.1c-5.5 2.4-12 .5-15.5-4.3-.4-.6-.9-1.2-1.3-1.9-2.8-4.3-4.6-9.9-5.5-13l10.1 6.1-4.3-10.7 8.6-8.6h-10.7L256 0l-4.3 10.7H241l8.6 8.6-4.3 10.7 10.1-6.1c-.9 3.1-2.7 8.7-5.5 13-.4.7-.9 1.3-1.3 1.9-3.5 4.8-10 6.7-15.5 4.3h-.1c1 2.9 2.6 5.5 4.7 7.9 1.7 1.8 3.6 3.3 5.6 4.4-5.7 1.5-11.8 1-17.3-1.4 1.4 3.8 3.5 7.4 6.3 10.5 2.4 2.6 5.1 4.7 7.9 6.2-7.6 2.4-15.8 1.9-23.3-1.4 1.8 4.8 4.4 9.3 7.9 13.2 3.1 3.4 6.6 6.1 10.4 8-9.5 3.2-19.8 2.8-29-1.3 2.1 5.8 5.3 11.2 9.5 15.9 3.8 4.2 8.2 7.5 12.9 9.8-11.3 4-23.6 3.6-34.7-1.3 2.5 6.8 6.2 13.1 11.2 18.6 4.6 5.1 9.8 8.9 15.4 11.6-13 4.8-27.3 4.4-40.1-1.3 2.8 7.7 7.1 15 12.8 21.3 5.4 5.9 11.5 10.4 18.1 13.5-14.8 5.6-31 5.1-45.5-1.4 3.2 8.7 8 16.9 14.4 23.9 5.8 6.4 12.4 11.3 19.4 14.8-16.9 7-35.8 6.7-52.6-.7 3.5 9.7 8.9 18.8 16 26.6 6.1 6.8 13.1 12.1 20.5 15.9-19.1 8.5-40.6 8.5-59.7 0 3.9 10.7 9.8 20.7 17.6 29.3 7.1 7.8 15.2 13.8 23.8 18.1-20.7 8.9-43.8 8.8-64.4-.4 4.3 11.6 10.7 22.5 19.2 32 7 7.8 15 13.9 23.5 18.5-20.2 6.4-42 5.3-61.6-3.4 4.6 12.6 11.5 24.4 20.8 34.7 12.1 13.3 26.6 22.3 42 26.9-23.8 9.9-50.3 9.6-73.9-.9 5 13.6 12.4 26.3 22.4 37.3 20 22.1 46.4 33.1 72.6 32.9h77.8V506c0 3.3 2.7 6 6 6h12.6c3.3 0 6-2.7 6-6v-24.8H346c26.3.2 52.6-10.7 72.6-32.9 10-11 17.5-23.7 22.4-37.3-23.5 10.5-50 10.8-73.8 1zM137 456c-6.1 0-11-4.9-11-11s4.9-11 11-11 11 4.9 11 11-4.9 11-11 11zm15-62c-4.4 0-8-3.6-8-8s3.6-8 8-8 8 3.6 8 8-3.6 8-8 8zm155.7-137.8c2.1-.7 4.4.4 5.1 2.5.7 2.1-.4 4.4-2.5 5.1-2.1.7-4.4-.4-5.1-2.5-.7-2.1.4-4.4 2.5-5.1zm8.5 118.6c.9 2.7-.5 5.7-3.3 6.6-2.7.9-5.7-.5-6.6-3.3-.9-2.7.5-5.7 3.3-6.6 2.7-.8 5.7.6 6.6 3.3zm-15.7-118.5c.8 2.4-.5 5-2.9 5.8-2.4.8-5-.5-5.8-2.9-.8-2.4.5-5 2.9-5.8 2.4-.8 5 .5 5.8 2.9zM296 161c0 4.4-3.6 8-8 8s-8-3.6-8-8 3.6-8 8-8 8 3.6 8 8zm-12.1 98.4c-2.7.9-5.7-.5-6.6-3.3-.9-2.7.5-5.7 3.3-6.6 2.7-.9 5.7.5 6.6 3.3.9 2.8-.5 5.7-3.3 6.6zm-6.7-134.2c3.7-1 7.6 1.2 8.6 5 1 3.7-1.2 7.6-5 8.6-3.7 1-7.6-1.2-8.6-5-1-3.7 1.3-7.6 5-8.6zm-4.2 16.2c.9 3.4-1.1 6.9-4.6 7.8-3.4.9-6.9-1.1-7.8-4.6s1.1-6.9 4.6-7.8c3.4-.8 6.9 1.2 7.8 4.6zm-9.7 98.3c-.9 3.4-4.4 5.5-7.8 4.6-3.4-.9-5.5-4.4-4.6-7.8.9-3.4 4.4-5.5 7.8-4.6 3.5.9 5.5 4.4 4.6 7.8zM263 84c4.4 0 8 3.6 8 8s-3.6 8-8 8-8-3.6-8-8 3.6-8 8-8zm-9.8 62.5c3.1-.8 6.3 1 7.1 4.1s-1 6.3-4.1 7.1c-3.1.8-6.3-1-7.1-4.1-.8-3.1 1-6.2 4.1-7.1zm-1.4 82.3c-1 3.7-4.8 6-8.6 5-3.7-1-6-4.8-5-8.6 1-3.7 4.8-6 8.6-5 3.7 1 6 4.9 5 8.6zm-8.4-74.2c2.7.9 4.2 3.9 3.3 6.6-.9 2.7-3.9 4.2-6.6 3.3-2.7-.9-4.2-3.9-3.3-6.6.9-2.8 3.9-4.2 6.6-3.3zM233 121c4.4 0 8 3.6 8 8s-3.6 8-8 8-8-3.6-8-8 3.6-8 8-8zm-9.5 40.3c.8-2.4 3.4-3.7 5.8-2.9 2.4.8 3.7 3.4 2.9 5.8s-3.4 3.7-5.8 2.9c-2.4-.8-3.7-3.4-2.9-5.8zM233 187c6.1 0 11 4.9 11 11s-4.9 11-11 11-11-4.9-11-11 4.9-11 11-11zm6 124.4c.9 3.4-1.1 6.9-4.6 7.8-3.4.9-6.9-1.1-7.8-4.6s1.1-6.9 4.6-7.8c3.4-.8 6.9 1.2 7.8 4.6zm-27.8-147.7c.7-2.1 3-3.2 5.1-2.5s3.2 3 2.5 5.1c-.7 2.1-3 3.2-5.1 2.5-2.1-.7-3.2-3-2.5-5.1zm-21.7 167.6c.8-2.4 3.4-3.7 5.8-2.9 2.4.8 3.7 3.4 2.9 5.8s-3.4 3.7-5.8 2.9c-2.4-.8-3.7-3.4-2.9-5.8zM164 282c0-6.1 4.9-11 11-11s11 4.9 11 11-4.9 11-11 11-11-4.9-11-11zm20.8 54.3c-.7 2.1-3 3.2-5.1 2.5-2.1-.7-3.2-3-2.5-5.1s3-3.2 5.1-2.5 3.2 3 2.5 5.1zm-12.6 85.5c-3.7-1-6-4.8-5-8.6 1-3.7 4.8-6 8.6-5 3.7 1 6 4.8 5 8.6-1 3.7-4.9 6-8.6 5zm12.3 10.5c-3.4-.9-5.5-4.4-4.6-7.8.9-3.4 4.4-5.5 7.8-4.6 3.4.9 5.5 4.4 4.6 7.8-.9 3.4-4.4 5.5-7.8 4.6zm19.4 4.3c-.8 3.1-4 4.9-7.1 4.1-3.1-.8-4.9-4-4.1-7.1.8-3.1 4-4.9 7.1-4.1 3.1.9 4.9 4 4.1 7.1zm-1.1-108.8c.9-2.7 3.9-4.2 6.6-3.3 2.7.9 4.2 3.9 3.3 6.6-.9 2.7-3.9 4.2-6.6 3.3-2.8-.9-4.2-3.8-3.3-6.6zm10.1 119.6c-2.7.9-5.7-.5-6.6-3.3-.9-2.7.5-5.7 3.3-6.6 2.7-.9 5.7.5 6.6 3.3.9 2.8-.5 5.7-3.3 6.6zm2.2-123.8c-.8-3.1 1-6.3 4.1-7.1 3.1-.8 6.3 1 7.1 4.1s-1 6.3-4.1 7.1c-3.1.9-6.3-1-7.1-4.1zm11.5 126.5c-2.4.8-5-.5-5.8-2.9-.8-2.4.5-5 2.9-5.8 2.4-.8 5 .5 5.8 2.9s-.5 5-2.9 5.8zm12.7 1.7c-2.1.7-4.4-.4-5.1-2.5-.7-2.1.4-4.4 2.5-5.1 2.1-.7 4.4.4 5.1 2.5.7 2.1-.4 4.4-2.5 5.1zM233 405c-6.1 0-11-4.9-11-11s4.9-11 11-11 11 4.9 11 11-4.9 11-11 11zm13.8-96.2c-3.7 1-7.6-1.2-8.6-5-1-3.7 1.2-7.6 5-8.6 3.7-1 7.6 1.2 8.6 5 1 3.7-1.3 7.6-5 8.6zM256 279c-4.4 0-8-3.6-8-8s3.6-8 8-8 8 3.6 8 8-3.6 8-8 8zm7.7-33.3c.8-3.1 4-4.9 7.1-4.1 3.1.8 4.9 4 4.1 7.1-.8 3.1-4 4.9-7.1 4.1-3.1-.9-4.9-4-4.1-7.1zm8.5 110.1c-3.7-1-6-4.8-5-8.6 1-3.7 4.8-6 8.6-5 3.7 1 6 4.8 5 8.6-1 3.7-4.9 6-8.6 5zm12.3 10.5c-3.4-.9-5.5-4.4-4.6-7.8.9-3.4 4.4-5.5 7.8-4.6 3.4.9 5.5 4.4 4.6 7.8-.9 3.4-4.4 5.5-7.8 4.6zm12.3 8.5c-3.1-.8-4.9-4-4.1-7.1.8-3.1 4-4.9 7.1-4.1 3.1.8 4.9 4 4.1 7.1-.8 3-4 4.9-7.1 4.1zM310 441c-6.1 0-11-4.9-11-11s4.9-11 11-11 11 4.9 11 11-4.9 11-11 11zm16.6-56.9c-2.4.8-5-.5-5.8-2.9-.8-2.4.5-5 2.9-5.8 2.4-.8 5 .5 5.8 2.9s-.5 5-2.9 5.8zM326 330c-6.1 0-11-4.9-11-11s4.9-11 11-11 11 4.9 11 11-4.9 11-11 11zm13.3 55.8c-2.1.7-4.4-.4-5.1-2.5-.7-2.1.4-4.4 2.5-5.1 2.1-.7 4.4.4 5.1 2.5.7 2.1-.4 4.4-2.5 5.1zM362 383c0-4.4 3.6-8 8-8s8 3.6 8 8-3.6 8-8 8-8-3.6-8-8zm22 70c-4.4 0-8-3.6-8-8s3.6-8 8-8 8 3.6 8 8-3.6 8-8 8z" fill="#fff"/></svg>