<svg version="1.1" xmlns="http://www.w3.org/2000/svg" x="0" y="0" viewBox="0 0 512 512" xml:space="preserve"><path d="M346.4 214.4v-12.1c1.8-2.8 2.8-5.8 2.8-9s-1-6.2-2.8-9v-10.5c0-1.5-.7-3.1-1.8-4.2l-.1-.1.3-.6c8.6-15.1 15.2-31.3 19.7-48.2 2.5-9.5 1.4-19.4-3.1-27.7-2.4-4.4-5.1-8.6-7.9-12.5C344.9 34.6 304.7 0 256.4 0c-47.9 0-87.8 34-97 79.1-3.3 4.4-6.2 9-8.9 13.9-4.6 8.5-5.7 18.3-3.1 27.7 4.5 16.8 11.2 33.1 19.7 48.2l.3.6-.1.1c-1.1 1.1-1.8 2.7-1.8 4.2v11.9c-1.3 2.4-2 4.9-2 7.6s.7 5.2 2 7.6v13.5c-102 64.5 21.6 260.5 53.3 284.3 12.5 9.4 26.4 13.3 37.1 13.3s24.6-4 37.1-13.3c31.8-23.7 155.4-219.8 53.4-284.3z" opacity=".1" fill="#fff"/><path d="M310.7 144.5c1.9 1.9 1.9 5.1 0 7-.9.8-2.2 1.3-3.5 1.3s-2.5-.5-3.5-1.4c-2.6-2.6-10.7-9.4-17.4-10.1-10.7-1.2-16.8-4.8-17.5-5.2-2.3-1.4-3-4.5-1.6-6.8s4.5-3 6.8-1.6c.1.1 5 2.9 13.4 3.8 11.3 1.3 22.1 11.8 23.3 13zm-163.3-23.8c-2.6-9.4-1.5-19.2 3.1-27.7 2.7-4.9 5.6-9.5 8.9-13.9C168.6 34 208.5 0 256.4 0c48.3 0 88.5 34.6 97.1 80.5 2.8 3.9 5.5 8.1 7.9 12.5 4.5 8.3 5.6 18.2 3.1 27.7-4.5 16.9-11.1 33.1-19.7 48.2l-.3.6.1.1c1.1 1.1 1.8 2.7 1.8 4.2v8.2c-1.5-2.1-3.7-4.2-6.7-6.1l1.5-4.1-1-3.3c-9.7-34.1-40.4-53.7-84.3-53.7s-74.6 19.6-84.3 53.7l-.9 3.3 1.9 5.1c-2.7 1.9-5 4.3-6.9 7.2-.1.1-.1.2-.2.3V174c0-1.5.7-3.1 1.8-4.2l.1-.1-.3-.6c-8.5-15.3-15.2-31.6-19.7-48.4zm4.8-1.3c3.9 14.6 9.5 28.7 16.6 42.1 5.8-16.1 16.3-28.8 31.2-37.8 15.2-9.1 34.5-13.9 56.1-13.9s41 4.8 56.1 13.9c14.9 9 25.4 21.7 31.2 37.8 7.1-13.3 12.6-27.4 16.5-42 2.2-8.3 1.2-16.9-2.7-24.1l-2.1-3.6c-2.5-4.2-5.3-8.1-8.2-11.9-.1-.1-.3-.3-.4-.5-.5-.7-1.1-1.4-1.7-2.1-.2-.2-.5-.5-.7-.8-.5-.6-1-1.3-1.6-1.9-18.5-21-44.8-34.8-72.5-38.2-44.3-5.4-88.9 16.1-112.2 54.1-1 1.6-2 3.2-2.9 4.9-4 7.3-5 15.8-2.7 24zM293 498.7c-12.5 9.3-26.4 13.3-37.1 13.3s-24.6-3.9-37.1-13.3c-31.7-23.8-155.3-219.8-53.3-284.3v-10.9c.1.1.1.1.1.2 7.4 10 25.2 13.7 31.4 14.3 2.4.2 4.9.3 7.4.3 14.9 0 29.1-4.1 39.8-11.6 7.2-5 8.5-10.2 8.4-13.8 0-2.4-.9-4.8-2.5-7.3-3.9-5.7-9.9-9.6-16.4-12.2 2.4-7.7 11.7-13.5 22.8-13.5 11.3 0 20.7 6 23 14-.8.3-1.5.6-2.3.9-3.8 1.8-8.7 4.2-12.1 7.8-3.5 3.7-5.1 8.2-4.5 12.5.7 5.8 5.1 9.4 8.3 11.7 10.5 7.3 25 11.5 39.8 11.5h.8c2.9-.1 5.7-.3 8.5-.6h.2c11.1-1.5 22.7-5.8 28.5-13.4v10.1C448.4 278.9 324.8 475 293 498.7zm-22.6-286.4h-28.1c0 7.7 6.3 14 14.1 14s14-6.3 14-14zm5-57.8c0-4.1 3.8-7.5 8.5-7.5s8.5 3.4 8.5 7.5-3.8 7.5-8.5 7.5-8.5-3.4-8.5-7.5zm10.8-1.4c0 1.3 1.1 2.4 2.4 2.4s2.4-1.1 2.4-2.4-1.1-2.4-2.4-2.4-2.4 1.1-2.4 2.4zM168.6 192c-2.7 12.7 19.3 19.1 29 20 2.2.2 4.5.3 6.8.3 12.7 0 26.1-3.3 36.4-10.5 3-2.1 6-5.1 5.8-8.7 0-1.5-.7-2.9-1.5-4.1-7.8-11.6-28.7-14.7-41.3-14.7-11 0-26.6 2.8-33.1 12.9-1.1 1.7-1.8 3.3-2.1 4.8zm60.3-30c-4.7 0-8.5-3.4-8.5-7.5s3.8-7.5 8.5-7.5 8.5 3.4 8.5 7.5-3.8 7.5-8.5 7.5zm7.1-8.9c0-1.3-1.1-2.4-2.4-2.4-1.3 0-2.4 1.1-2.4 2.4s1.1 2.4 2.4 2.4 2.4-1.1 2.4-2.4zm9.4-23.9c-1.4-2.3-4.5-3-6.8-1.6 0 0-4.8 2.9-13.3 3.8-11.3 1.3-22.1 11.8-23.3 13-1.9 1.9-1.9 5.1 0 7 1 .9 2.2 1.4 3.5 1.4s2.5-.5 3.4-1.5c2.6-2.5 10.7-9.4 17.4-10.1 10.7-1.2 16.8-4.8 17.5-5.2 2.3-1.4 3-4.5 1.6-6.8zm21 65.2c.4 3.3 3.1 5.7 5.8 7.6 10.1 7.1 23.6 10.4 36.3 10.4h.6c2.7-.1 5.4-.3 8-.6 9.4-1.3 27.1-6.3 27-18.5 0-15.4-23.9-19-35.1-19-10.5 0-21.3 2.5-29.4 6.1-3.5 1.6-7.6 3.7-10.3 6.5-1.9 2-3.3 4.8-2.9 7.5z" fill="#fff"/></svg>