<svg version="1.1" xmlns="http://www.w3.org/2000/svg" x="0" y="0" viewBox="0 0 512 512" xml:space="preserve"><path d="M308.8 512H159.6c.2-9.9 2-20.1.1-29.6-2.1-10.9-.3-21.7.6-32.6 1-12.3.6-24.6-.4-36.8-1.9-25.2-6.4-50.2-7.4-75.6-1.3-33.9 7.6-65.7 9.9-99.2 4.3-64.3-3.8-128.7-.3-193 .4-6.7 2.8-13.6 5.8-19.6 2.9-5.7 9.2-7.3 15.5-6.6 6.4.7 12.4 3.8 14.2 10 5.4 18.3 3.8 39.3 6.1 58.3 3 24.6 6.3 50.1 14.9 73.3 1.9 5.2 6.9 6.8 11.9 6.5.8 0 1.2-4.8 1.9-7.3 0-.2.1-.4.1-.5 4.2-29.9 11.3-59.3 20-88.1 4.4-14.5 9.2-28.8 14.2-43 3.9-11.1 6.1-24.4 19.4-27.6 10-2.4 23.3 6.2 21.8 16.3-3.5 23.9-12.4 47.3-17.3 71.1-2.8 13.4-5.2 26.8-7.3 40.4-1.4 9.4-7.8 30.4-3.8 38.4 4.8-4 7.9-11.9 11.3-17.3 3.8-6 12.8-11 17.8-9.5 19.3 5.9 32.9 22.4 25.2 43.5-.9 2.3-3.8 6.5-3.6 9 .5 4.5.8 2.4 4.9 4.4 6.6 3.2 12.2 4.9 16.1 11.7 3.5 6 8.1 12.5 8.4 19 .6 11.8-3.7 23.2-4.8 34.7-1.4 13.7-.6 27.9-1.4 41.7-1.6 27.1-5.2 54.3-14.3 80-7.2 20.4-17.7 39.6-24.5 60.2-7.5 22.4-6.2 44.4-5.8 67.8z" opacity=".1" fill="#fff"/><path d="M302.9 307.9c.5-14.1 1.2-28.3 2-42.4.4-6.4.6-12.9 1.8-19.2.1-.3.1-.6.2-1 .4-1.9.8-3.8 1.4-5.7 1-3.5 2.2-7.1 3.3-10.6l.9-3c1.8-6 3.7-12 5.4-18.1 1.1-3.8 2.6-8 5.5-10.8 6.6-6.3 19.8 2.9 24.8 7.7 4 3.8 6.8 9.5 9.1 14.5.9 4.5 1.5 9 2.2 13.6-.1 1.9-.3 3.9-.6 5.8-.9 1.4-2.3 2.6-3.1 4.1-1.4 2.6-2.8 5.4-3.6 8.2-2.6 9.2-4.9 18.5-7.2 27.8-2.1 8.4-4.7 16.8-5.9 25.3-1.6 11.8-10 20-20.4 20-2.6 0-5.4-.5-8.2-1.6-5-2.1-7.8-8.4-7.6-14.6zm-27.1-106.2c5.8-.8 12.2-1.4 17.4 1.1 6.6 3.2 11.3 8 13.8 13.9 1.6-5.4 3.3-10.9 4.8-16.3 1.2-4.3 4.5-7.9 8.1-10.2 1.9-1.2 4-2.2 6.2-2.7 1.4-.3 4.7.3 5.7-.5.4-.3.6-.8.8-1.2 2-4.3 3.2-9 3.3-13.8.1-4.2-.8-8.1-2.3-11.7-1.3-3.1-3.2-5.9-5.4-8.4-3.8-4.2-8.5-7.4-13.6-9.7-5.1-2.3-9.8-3.3-15-.6-4.9 2.6-8.3 6.7-10.9 11.4-1.3 2.3-2.5 4.7-3.9 7-1.2 2-3.7 4-4.6 6-.6 1.3-1 2.6-1.2 4.2-.8 8.7-2.2 17.3-2.8 26-.2 1.8-.3 3.7-.4 5.5zm-113.4 36.5c-1 15.2-3.4 30.1-5.6 45.1.2-.3.5-.5.7-.8 3.5-3.9 6.8-7.6 8.3-9.5 4.9-6.1 9.4-12.8 13.8-19.2 3.4-5 7-10.2 10.7-15.2 1-1.4 2.1-2.8 3.1-4.2l1.5-2.1c-7.4-6.3-12.3-9.3-12.4-9.4-1.9-1.1-2.5-3.6-1.4-5.5s3.6-2.5 5.5-1.4c.5.3 5.7 3.5 13.2 9.8 3.9-5 8-9.7 12.9-13.8 4.1-3.5 10-3.8 15.6-4.1 2.1-.1 4.1-.2 5.9-.5 2.7-.4 5.5-.8 8.2-1.2 8.3-1.3 16.8-2.6 25.3-3.6.2-2.4.3-4.7.5-7.1.3-5.5 1-10.9 1.7-16.2.4-3.3.8-6.7 1.1-10.1.5-5.6 3.2-9.5 5.4-12.7.3-.5.7-1 1-1.5l.3-.5c.3-.4.6-.9.9-1.3 1-9 3.9-19.4 4.7-25.3 2.1-13.5 4.5-27 7.3-40.4 4.9-23.7 13.8-47.1 17.3-71.1 1.5-9.8-11.8-18.4-21.8-16-13.3 3.2-15.5 16.5-19.4 27.6-5 14.2-9.8 28.6-14.2 43-8.7 28.8-15.8 58.2-20 88.1 0 .2-.1.4-.1.5-.6 2.6-1.1 7.3-1.9 7.3-5 .3-10-1.3-11.9-6.5-8.6-23.2-12-48.7-14.9-73.3-2.3-19-.7-39.9-6.1-58.3-1.8-6.2-7.8-9.2-14.2-10-6.3-.7-12.6.8-15.5 6.6-3 6-5.5 13-5.8 19.6-3.6 64.5 4.6 128.9.3 193.2zm190.4 42.5c-.6 2.3-1.2 4.6-1.8 6.8-1.6 6.1-3.1 11.9-3.9 17.7-2.2 15.9-13.8 26.9-28.3 26.9-3.7 0-7.5-.7-11.2-2.2-7.9-3.2-13-12.1-12.7-22.2.4-10.5.9-21.8 1.6-34.9-2.9 1.2-5.8 2-8.7 2h-1c-3.5-.1-7.4-.1-11.3-1.2-2.7-.7-5.5-2.1-7.7-4.6-5.8 2.5-11.6 4.9-17.6 6.8-3.9 1.2-5.5 2-6.8 4.1 1.6 2.9 3.2 5.9 4.8 9 25.4 50.7 11.9 109.3 11.3 111.8-.4 1.8-2.1 3.1-3.9 3.1-.3 0-.6 0-.9-.1-2.1-.5-3.5-2.7-3-4.8.1-.6 13.4-58.3-10.7-106.4-.7-1.4-1.4-2.8-2.2-4.2-1 1.6-2.1 3.1-3.2 4.6-1.3 1.8-2.5 3.4-3.6 5.2-.6 1-1.1 2.3-1.6 3.7-.2.5-.3 1-.5 1.4-.3.7-.5 1.6-.8 2.4-.5 1.8-1.2 3.9-2.4 5.8-8.1 13-19.1 25.5-33.5 38-.8.7-1.7 1-2.6 1-1.1 0-2.2-.5-3-1.4-1.4-1.7-1.3-4.2.4-5.6 14-12.2 24.2-23.7 32-36.2.6-1 1-2.4 1.5-3.9.3-1 .6-2 1-3 .2-.4.3-.9.5-1.3.6-1.7 1.3-3.6 2.4-5.3 1.2-1.9 2.6-3.8 3.9-5.6 2.3-3.2 4.5-6.2 5.9-9.4 2.9-6.9 6.9-8.6 12.6-10.5 12.3-4 24.3-9.8 36-15.5 1.7-.8 3.5-1.7 5.2-2.5 8.4-4.1 12.8-16.2 12-25.1-.7-8.2-6.5-12.6-11.2-14.9-3.4-1.7-8.9-.9-14.2-.2-1.4.2-2.7.4-4 .5-9.3 1-18.7 2.5-27.8 3.9-2.8.4-5.5.8-8.3 1.3-2.2.3-4.5.4-6.7.6-4.3.2-8.8.5-10.9 2.2-6.8 5.7-12.5 13.5-18 20.9-1.1 1.4-2.1 2.9-3.2 4.3-3.6 4.9-7.1 10-10.5 14.9-4.5 6.5-9.1 13.3-14.1 19.6-1.7 2.1-4.9 5.7-8.7 9.9-2.7 3-5.8 6.4-8.6 9.6-1.7 13.1-2.8 26.3-2.2 39.9 1 25.3 5.5 50.3 7.4 75.6.9 12.2 1.3 24.6.4 36.8-.9 10.9-2.7 21.7-.6 32.6 1.9 9.5 0 19.7-.1 29.6h149.2c-.4-23.4-1.7-45.4 5.8-67.9 6.8-20.6 17.3-39.7 24.5-60.2 9.1-25.7 12.6-52.9 14.3-80 .5-9.2.4-18.5.6-27.8-.6 1.4-.9 2.9-1.3 4.4zm-65.6-20.9c-3.7 1.8-7.4 3.6-11.2 5.4.5.2 1.1.5 1.7.6 3.2.9 6.7.9 10 .9h.2c3 0 6.3-1.3 9.2-3.4v-.2c.2-3.1.3-6.3.6-9.4-1.6 1.4-3.4 2.6-5.3 3.5-1.8.9-3.5 1.7-5.2 2.6z" fill="#fff"/></svg>