<svg version="1.1" xmlns="http://www.w3.org/2000/svg" x="0" y="0" viewBox="0 0 512 512" xml:space="preserve"><path d="M278 420.3V91.7c0-17.2 7.2-33.3 19.1-45.6 5.4-5.6 8.5-13.5 7.5-22.1-1.4-12.6-11.7-22.7-24.3-23.9-9.9-.9-18.8 3.5-24.3 10.6C250.5 3.5 241.6-.9 231.7.1c-12.6 1.2-22.9 11.3-24.3 23.9-1 8.6 2.1 16.5 7.5 22.1 12 12.3 19.1 28.5 19.1 45.6v328.6c0 17.2-7.2 33.3-19.1 45.6-5.4 5.6-8.5 13.5-7.5 22.1 1.4 12.6 11.7 22.7 24.3 23.9 9.9.9 18.8-3.5 24.3-10.6 5.5 7.2 14.4 11.6 24.3 10.6 12.6-1.2 22.9-11.3 24.3-23.9 1-8.6-2.1-16.5-7.5-22.1-11.9-12.3-19.1-28.5-19.1-45.6z" fill="#fff"/></svg>