<svg version="1.1" xmlns="http://www.w3.org/2000/svg" x="0" y="0" viewBox="0 0 512 512" xml:space="preserve"><path d="M449.3 457.5c2.3 5.7-.4 12.8-6.7 15.4l-9.4 3.7-.3-.2-4.4 1.8c-2.9 1.2-4.8 3.9-4.9 7l-.2 6.3-.4-.2.5.4v2.7c-.3 5.3-1.9 10.3-4.7 14.6l-.2.3c-2.3 3-6.9 3.4-10.7 1.9-.9-.4-1.7-.8-2.4-1.3-2.7-2.1-6.3-3.5-6.3-3.5-8-2.1-14.5-7.8-17.5-15.4l-3-7.7c-1.3-3.5-3.8-6.4-6.8-8.6-15-10-65-42.7-153.9-92.8-56.8-32.3-103.7-57.1-116.6-63.8-2.2-1.1-4.9-1.5-7.3-.9-8.6 2.1-17.6-1.7-22-9.4l-8.2-14.6c-2.4-4.3-2.6-9.5-.5-13.9l.1-.2c1.3-2.7 5-2.9 6.4-.4l1.6 2.5c1.3 2.2 4.7 2 5.8-.3l2-4.3c3.3-7.2 1.4-15.7-4.7-20.7l-1.6-1.3c-.6-.5-1-1.1-1.1-1.7-.2-.5-.4-1.3-.6-1.8-1.7-5.7-2.8-12 .2-17.4 6.4-11.5 20.9-15.6 32.4-9.3 7.5 4.2 11.8 11.7 12.2 19.7-.1 0-.2-.1-.2-.1v.8c.1 1.3-.6 2.5-1.5 3.3l-1.2.9c-4.1 3.3-5.5 8.9-3.6 13.8l6.6 16.1c.4.9 1.5 1.4 2.4 1 4.1-1.4 9 2.3 11.2 8.3l.3.9c1.5 5.2 4.5 9.7 8.9 12.9 18 12.9 48.8 33.7 93.1 60 59.2 35.2 121.2 61 145.7 70.8 7 2.8 14.6 3.5 22 2.3l11.8-2c9.5-1.6 19.3 1.9 25.5 9.1l10.2 11.8c.9 1 1.6 2.2 2 3.3l-1.4-.9 1.4 1.1zm-184.9-86.7c8.6 4.6 17.1 9.1 25.5 13.3l4.2-2.4c56.8-32.3 103.7-57 116.6-63.8 2.2-1.1 4.9-1.5 7.3-.9 8.6 2.2 17.6-1.6 22-9.4l8.2-14.6c2.4-4.3 2.6-9.4.5-13.9l-.1-.2c-1.2-2.7-4.9-2.9-6.4-.4l-1.6 2.5c-1.3 2.3-4.7 2.1-5.8-.3l-2-4.3c-3.3-7.1-1.4-15.6 4.7-20.7l1.6-1.3c.6-.5.9-1.1 1.1-1.7.2-.5.4-1.3.6-1.8 1.8-5.7 2.8-11.9-.2-17.4-6.4-11.5-20.9-15.7-32.4-9.3-7.4 4.2-11.8 11.7-12.2 19.7 0 0 .1-.1.2-.1v.8c-.1 1.3.6 2.5 1.5 3.3l1.2.9c4.1 3.2 5.5 8.9 3.6 13.8l-6.6 16.1c-.4.9-1.5 1.4-2.4 1-4.1-1.4-9.1 2.3-11.2 8.3l-.3.9c-1.5 5.2-4.5 9.8-8.9 12.9-18.1 12.9-48.9 33.7-93.1 60-5.2 3.1-10.5 6.1-15.6 9zm-130.1 61.8c-7 2.8-14.6 3.5-22 2.3l-11.8-2c-9.5-1.7-19.2 1.9-25.5 9.1l-10.2 11.8c-.9 1-1.5 2.2-2 3.3l1.4-.9-1.4 1.1c-2.4 5.9.3 13 6.6 15.5l9.4 3.7.3-.2 4.4 1.8c2.9 1.2 4.8 3.9 4.9 7l.2 6.3.4-.2-.5.4v2.7c.2 5.3 1.8 10.3 4.7 14.6l.2.3c2.3 3 7 3.4 10.7 1.9.9-.3 1.7-.7 2.4-1.3 2.7-2.1 6.3-3.5 6.3-3.5 8-2 14.5-7.8 17.5-15.4l3-7.7c1.3-3.6 3.7-6.5 6.8-8.6 12.1-8.1 47.5-31.2 107.9-66.4-8.2-4.8-16.9-9.7-26-14.9-38 18.9-71.3 32.7-87.7 39.3zm17.4-257.1c-1.1-1.4-1.9-3-1.9-4.8v-1c0-1.5.7-3 2-4l2.2-1.7c-1.6-10.3-2.6-20.7-3.3-31.4-.5-8.9-.8-17.8-.8-26.9 0-14.7.8-29.2 2.3-43.3C168.6 25.9 208.9 0 256.1 0c47.1 0 87.5 25.9 103.8 62.6 1.6 14.1 2.3 28.6 2.3 43.3 0 9.1-.3 18-.8 26.9-.6 10.5-1.8 21-3.2 31.3l2.2 1.7c1.2.9 2 2.5 2 4v1c0 1.8-.7 3.4-1.9 4.8l-13.1 14c-1.5 1.5-3.2 2.7-5.1 3.6v13c0 1.4-1.1 2.5-2.5 2.5H336c-.6 0-1.3.5-1.1 1.2l3.6 42.3c.8 9.5-2.4 18.9-9 25.7l-13.9 14.7c-.9.9-1.8 1.9-2.6 2.9-11.9 15.7-33 26.1-57 26.1s-45.1-10.4-57-26.1c-.8-.9-1.8-2-2.6-2.9l-13.9-14.7c-6.5-6.9-9.8-16.3-9-25.7l3.6-42.3c0-.7-.4-1.3-1.1-1.3h-3.7c-1.4 0-2.5-1.1-2.5-2.5v-13c-1.9-.9-3.5-2.1-5-3.6l-13.1-14zM328.1 195h-2.2c-4.3 0-8.3 2.2-10.8 5.8l-1 1.6c-3.2 4.8-4 10.8-2.2 16.4l.7 2.2c.6 0 1.1.1 1.7.5.6.5.9 1.3 1 2l.4 5.3c.1 1.5-.3 3-1 4.2-.3.7-1 1-1.8 1-.3 1.3-.9 2.5-2 3.4l-1.4 1.4c-.4.5-1.1.8-1.9.8h-.5c-.4 1.4-1.3 2.5-2.5 3.3l-.4.2c-.8.6-1.7.8-2.6.8-.7 0-1.4-.1-2-.4 0 0-.1-.1-.2-.1-.5 2.1-1.9 3.9-3.9 4.9l-.9.4c-.9.5-2 .7-3 .7s-2-.3-3-.7c-.4-.2-.8-.4-1.1-.7-.2.6-.5 1.3-1 1.9-1 1.5-2.7 2.2-4.5 2.2h-4.7c-1 0-2-.3-2.8-.9-1.1 2.7-4 4.7-7.1 4.7h-4.1c-3 0-5.7-1.7-7.2-4.1-1.5 2.5-4.2 4.1-7.2 4.1h-4.1c-3.2 0-5.9-1.9-7.1-4.7-.8.6-1.8.9-2.8.9h-4.7c-1.7 0-3.4-.8-4.5-2.2-.5-.6-.8-1.2-1-1.9-.4.3-.7.5-1.1.7-1 .4-2 .6-3 .6s-2.1-.3-3-.7l-.9-.4c-2-1-3.4-2.9-3.9-5 0 0-.1.1-.2.1-.6.3-1.3.4-2 .4-.9 0-1.9-.3-2.6-.8l-.4-.2c-1.1-.8-2-2-2.4-3.3-.2.1-.4.1-.5.1-.7 0-1.5-.3-2-.8l-1.4-1.4c-.9-.9-1.6-2.2-1.9-3.4-.7-.1-1.5-.4-1.8-1-.8-1.3-1.1-2.7-1-4.2l.4-5.3c0-.8.4-1.5 1-2 .5-.3 1-.5 1.7-.5l.7-2.2c1.9-5.5 1-11.6-2.2-16.4l-1-1.6c-2.4-3.6-6.5-5.8-10.8-5.8h-2.2c.7 9.2 3.1 30.6 10.4 42.7.4.7.9 1.5 1.5 2.2.4 0 .8.2 1.1.5l2.9 3.5c.3.3.4.6.6 1 .8-.2 1.9-.1 2.5.5l2.6 2.3c.6.6 1 1.4 1.4 2.2.8-.4 1.8-.5 2.6-.1l5 2.1c1.7.7 3 2.1 3.9 3.6l.3-.3c.9-.6 2.1-.9 3.2-.5l4.1 1.1c1.5.4 2.6 1.4 3.2 2.6l.1-.1c.9-.9 2.2-1.4 3.5-1.1l3.1.3c1.8.1 3.3 1.3 4.3 2.7 1.3-1.6 3-2.5 5.1-2.5h4.9c2.3 0 4.4 1.1 5.6 2.9 1.3-1.8 3.2-2.9 5.6-2.9h4.9c2 0 3.9 1 5 2.5.9-1.5 2.5-2.5 4.3-2.7l3.1-.3c1.3-.1 2.5.3 3.5 1.1 0 .1.1.1.1.2.6-1.3 1.8-2.3 3.2-2.7l4.1-1.1c1-.3 2.3-.2 3.2.5.1 0 .1.1.2.2.8-1.6 2.2-2.8 3.9-3.5l5-2.1c.8-.3 1.8-.3 2.6.1.3-.9.7-1.7 1.5-2.3l2.6-2.3c.7-.6 1.7-.8 2.5-.5.1-.3.3-.6.5-.9l2.9-3.5c.3-.3.7-.5 1.1-.5.5-.7 1-1.5 1.5-2.2 7.5-12.2 9.9-33.5 10.7-42.6z" opacity=".1" fill="#fff"/><path d="M449.3 457.5c2.3 5.7-.4 12.8-6.7 15.4l-9.4 3.7-.3-.2-4.4 1.8c-2.9 1.2-4.8 3.9-4.9 7l-.2 6.3-.4-.2.5.4v2.7c-.3 5.3-1.9 10.3-4.7 14.6l-.2.3c-2.3 3-6.9 3.4-10.7 1.9-.9-.4-1.7-.8-2.4-1.3-2.7-2.1-6.3-3.5-6.3-3.5-8-2.1-14.5-7.8-17.5-15.4l-3-7.7c-1.3-3.5-3.8-6.4-6.8-8.6-15-10-65-42.7-153.9-92.8-56.8-32.3-103.7-57.1-116.6-63.8-2.2-1.1-4.9-1.5-7.3-.9-8.6 2.1-17.6-1.7-22-9.4l-8.2-14.6c-2.4-4.3-2.6-9.5-.5-13.9l.1-.2c1.3-2.7 5-2.9 6.4-.4l1.6 2.5c1.3 2.2 4.7 2 5.8-.3l2-4.3c3.3-7.2 1.4-15.7-4.7-20.7l-1.6-1.3c-.6-.5-1-1.1-1.1-1.7-.2-.5-.4-1.3-.6-1.8-1.7-5.7-2.8-12 .2-17.4 6.4-11.5 20.9-15.6 32.4-9.3 7.5 4.2 11.8 11.7 12.2 19.7-.1 0-.2-.1-.2-.1v.8c.1 1.3-.6 2.5-1.5 3.3l-1.2.9c-4.1 3.3-5.5 8.9-3.6 13.8l6.6 16.1c.4.9 1.5 1.4 2.4 1 4.1-1.4 9 2.3 11.2 8.3l.3.9c1.5 5.2 4.5 9.7 8.9 12.9 18 12.9 48.8 33.7 93.1 60 59.2 35.2 121.2 61 145.7 70.8 7 2.8 14.6 3.5 22 2.3l11.8-2c9.5-1.6 19.3 1.9 25.5 9.1l10.2 11.8c.9 1 1.6 2.2 2 3.3l-1.4-.9 1.4 1.1zm-184.9-86.7c8.6 4.6 17.1 9.1 25.5 13.3l4.2-2.4c56.8-32.3 103.7-57 116.6-63.8 2.2-1.1 4.9-1.5 7.3-.9 8.6 2.2 17.6-1.6 22-9.4l8.2-14.6c2.4-4.3 2.6-9.4.5-13.9l-.1-.2c-1.2-2.7-4.9-2.9-6.4-.4l-1.6 2.5c-1.3 2.3-4.7 2.1-5.8-.3l-2-4.3c-3.3-7.1-1.4-15.6 4.7-20.7l1.6-1.3c.6-.5.9-1.1 1.1-1.7.2-.5.4-1.3.6-1.8 1.8-5.7 2.8-11.9-.2-17.4-6.4-11.5-20.9-15.7-32.4-9.3-7.4 4.2-11.8 11.7-12.2 19.7 0 0 .1-.1.2-.1v.8c-.1 1.3.6 2.5 1.5 3.3l1.2.9c4.1 3.2 5.5 8.9 3.6 13.8l-6.6 16.1c-.4.9-1.5 1.4-2.4 1-4.1-1.4-9.1 2.3-11.2 8.3l-.3.9c-1.5 5.2-4.5 9.8-8.9 12.9-18.1 12.9-48.9 33.7-93.1 60-5.2 3.1-10.5 6.1-15.6 9zm-130.1 61.8c-7 2.8-14.6 3.5-22 2.3l-11.8-2c-9.5-1.7-19.2 1.9-25.5 9.1l-10.2 11.8c-.9 1-1.5 2.2-2 3.3l1.4-.9-1.4 1.1c-2.4 5.9.3 13 6.6 15.5l9.4 3.7.3-.2 4.4 1.8c2.9 1.2 4.8 3.9 4.9 7l.2 6.3.4-.2-.5.4v2.7c.2 5.3 1.8 10.3 4.7 14.6l.2.3c2.3 3 7 3.4 10.7 1.9.9-.3 1.7-.7 2.4-1.3 2.7-2.1 6.3-3.5 6.3-3.5 8-2 14.5-7.8 17.5-15.4l3-7.7c1.3-3.6 3.7-6.5 6.8-8.6 12.1-8.1 47.5-31.2 107.9-66.4-8.2-4.8-16.9-9.7-26-14.9-38 18.9-71.3 32.7-87.7 39.3zm17.4-257.1c-1.1-1.4-1.9-3-1.9-4.8v-1c0-1.5.7-3 2-4l2.2-1.7c-1.6-10.3-2.6-20.7-3.3-31.4-.5-8.9-.8-17.8-.8-26.9 0-14.7.8-29.2 2.3-43.3C168.6 25.9 208.9 0 256.1 0c47.1 0 87.5 25.9 103.8 62.6 1.6 14.1 2.3 28.6 2.3 43.3 0 9.1-.3 18-.8 26.9-.6 10.5-1.8 21-3.2 31.3l2.2 1.7c1.2.9 2 2.5 2 4v1c0 1.8-.7 3.4-1.9 4.8l-13.1 14c-1.5 1.5-3.2 2.7-5.1 3.6v13c0 1.4-1.1 2.5-2.5 2.5H336c-.6 0-1.3.5-1.1 1.2l3.6 42.3c.8 9.5-2.4 18.9-9 25.7l-13.9 14.7c-.9.9-1.8 1.9-2.6 2.9-11.9 15.7-33 26.1-57 26.1s-45.1-10.4-57-26.1c-.8-.9-1.8-2-2.6-2.9l-13.9-14.7c-6.5-6.9-9.8-16.3-9-25.7l3.6-42.3c0-.7-.4-1.3-1.1-1.3h-3.7c-1.4 0-2.5-1.1-2.5-2.5v-13c-1.9-.9-3.5-2.1-5-3.6l-13.1-14zm47.4 71.3c0-.6-.2-1.1-.6-1.6l-2.2-2.7v.8c0 1.3.4 2.5 1 3.5l1.7 2.7v-2.4s.1-.2.1-.3zm6.2 4.5c0-.8-.4-1.7-.9-2.2l-2.6-2.3c-.1-.1-.2-.1-.3-.1s-.1 0-.2.1c-.1 0-.2.2-.2.4v5.6c0 1.3.7 2.5 1.8 3.2l1.5.9c.3.2.6 0 .7 0 .1 0 .3-.2.3-.5v-5.1zm12.1 7c-.3-2-1.7-3.6-3.4-4.5l-5-2.1c-.3-.1-.4-.1-.5-.1-.1 0-.3.1-.5.2-.3.1-.4.4-.4.8v3.4c0 2.6 1.4 5 3.6 6.3l4.2 2.3c.4.2.9.2 1.4 0 .4-.2.6-.6.7-.8v-5.5zm10.5 2.5c0-1.5-1-2.8-2.5-3.2l-4.1-1.1c0 .1-.2 0-.4 0-.4 0-.7.1-1 .3-.5.3-.7.8-.7 1.4.1.3.1.5.1.8v4.6c.1 2 1.4 3.8 3.1 4.6l.9.4c1 .5 2.1.4 3-.2.9-.6 1.5-1.6 1.5-2.7l.1-4.9zm11.1 7.5v-4.1c0-.5.1-.9.2-1.5-.3-1.7-1.7-2.9-3.3-3.1l-3.1-.3c0-.1-.1-.1-.2-.1-.6 0-1.3.2-1.7.6-.5.5-.8 1.3-.8 2v5.8c0 2.2 1.7 4.1 3.9 4.5l1.4.2c1 .2 2.1-.1 2.8-.8.6-.5.9-1.1 1.1-1.9-.2-.4-.2-1-.3-1.3zm15.8-3.7c0-2.4-2-4.4-4.5-4.3h-4.9c-2.1 0-3.9 1.7-3.9 3.9v4.1c0 2.5 2.1 4.6 4.6 4.6h2.9c3.1 0 5.7-2.6 5.7-5.7v-2.6zm15.6 3.6l-.1-4.2c0-2.1-1.7-3.9-3.9-3.9h-4.9c-2.4 0-4.4 1.9-4.4 4.4v2.5c0 3.1 2.6 5.7 5.7 5.7h2.9c2.6.1 4.7-2 4.7-4.5zm11.6-2.5h-.1v-4.2c0-.8-.3-1.5-.8-2s-1.3-.7-2-.6l-3 .4c-1.8.2-3 1.5-3.3 3.1.1.5.2 1 .2 1.6v4.1c0 .5 0 .9-.1 1.4.2.6.5 1.3 1.1 1.8.8.7 1.8.9 2.8.8l1.4-.2c2.2-.3 3.9-2.2 3.9-4.5v-1.7zm10.6-7.4c0-.5-.3-1-.7-1.4-.3-.3-.8-.4-1.4-.3l-4.1 1.1c-1.5.4-2.5 1.8-2.5 3.2v4.7c0 1 .5 2.1 1.5 2.7.9.6 2 .6 3 .2l.9-.4c2-.9 3.2-2.8 3.2-5v-4.8zm12.1-5.8c0-.3-.2-.6-.4-.8-.2-.1-.4-.1-.6-.1-.1 0-.2 0-.4.1l-5 2.1c-2.1.9-3.4 3-3.4 5.3v4.4c0 .4.3.9.7 1.1.4.2.9.2 1.4 0l4.2-2.3c2.3-1.3 3.6-3.6 3.6-6.3v-3.5zm6.2-5.3c0-.2-.1-.3-.2-.4-.1-.1-.3-.2-.5 0l-2.6 2.3c-.6.6-.9 1.4-.9 2.2v5.3c0 .3.2.4.3.5.2.1.4.2.7 0l1.5-.9c1.1-.6 1.8-1.9 1.8-3.2v-5.8zm4.8-3.9h-.1v-.7l-2.2 2.7c-.3.4-.5.9-.5 1.5.1.1.1.3.1.4v2.4l1.7-2.7c.6-1.1 1-2.3 1-3.6zm12.4-48.3h-2.2c-4.3 0-8.3 2.2-10.8 5.8l-1 1.6c-3.2 4.8-4 10.8-2.2 16.4l.7 2.2c.6 0 1.1.1 1.7.5.6.5.9 1.3 1 2l.4 5.3c.1 1.5-.3 3-1 4.2-.3.7-1 1-1.8 1-.3 1.3-.9 2.5-2 3.4l-1.4 1.4c-.4.5-1.1.8-1.9.8h-.5c-.4 1.4-1.3 2.5-2.5 3.3l-.4.2c-.8.6-1.7.8-2.6.8-.7 0-1.4-.1-2-.4 0 0-.1-.1-.2-.1-.5 2.1-1.9 3.9-3.9 4.9l-.9.4c-.9.5-2 .7-3 .7s-2-.3-3-.7c-.4-.2-.8-.4-1.1-.7-.2.6-.5 1.3-1 1.9-1 1.5-2.7 2.2-4.5 2.2h-4.7c-1 0-2-.3-2.8-.9-1.1 2.7-4 4.7-7.1 4.7h-4.1c-3 0-5.7-1.7-7.2-4.1-1.5 2.5-4.2 4.1-7.2 4.1h-4.1c-3.2 0-5.9-1.9-7.1-4.7-.8.6-1.8.9-2.8.9h-4.7c-1.7 0-3.4-.8-4.5-2.2-.5-.6-.8-1.2-1-1.9-.4.3-.7.5-1.1.7-1 .4-2 .6-3 .6s-2.1-.3-3-.7l-.9-.4c-2-1-3.4-2.9-3.9-5 0 0-.1.1-.2.1-.6.3-1.3.4-2 .4-.9 0-1.9-.3-2.6-.8l-.4-.2c-1.1-.8-2-2-2.4-3.3-.2.1-.4.1-.5.1-.7 0-1.5-.3-2-.8l-1.4-1.4c-.9-.9-1.6-2.2-1.9-3.4-.7-.1-1.5-.4-1.8-1-.8-1.3-1.1-2.7-1-4.2l.4-5.3c0-.8.4-1.5 1-2 .5-.3 1-.5 1.7-.5l.7-2.2c1.9-5.5 1-11.6-2.2-16.4l-1-1.6c-2.4-3.6-6.5-5.8-10.8-5.8h-2.2c.7 9.2 3.1 30.6 10.4 42.7.4.7.9 1.5 1.5 2.2.4 0 .8.2 1.1.5l2.9 3.5c.3.3.4.6.6 1 .8-.2 1.9-.1 2.5.5l2.6 2.3c.6.6 1 1.4 1.4 2.2.8-.4 1.8-.5 2.6-.1l5 2.1c1.7.7 3 2.1 3.9 3.6l.3-.3c.9-.6 2.1-.9 3.2-.5l4.1 1.1c1.5.4 2.6 1.4 3.2 2.6l.1-.1c.9-.9 2.2-1.4 3.5-1.1l3.1.3c1.8.1 3.3 1.3 4.3 2.7 1.3-1.6 3-2.5 5.1-2.5h4.9c2.3 0 4.4 1.1 5.6 2.9 1.3-1.8 3.2-2.9 5.6-2.9h4.9c2 0 3.9 1 5 2.5.9-1.5 2.5-2.5 4.3-2.7l3.1-.3c1.3-.1 2.5.3 3.5 1.1 0 .1.1.1.1.2.6-1.3 1.8-2.3 3.2-2.7l4.1-1.1c1-.3 2.3-.2 3.2.5.1 0 .1.1.2.2.8-1.6 2.2-2.8 3.9-3.5l5-2.1c.8-.3 1.8-.3 2.6.1.3-.9.7-1.7 1.5-2.3l2.6-2.3c.7-.6 1.7-.8 2.5-.5.1-.3.3-.6.5-.9l2.9-3.5c.3-.3.7-.5 1.1-.5.5-.7 1-1.5 1.5-2.2 7.5-12.2 9.9-33.5 10.7-42.6zm-128.5 28.5h-.1c-.1 0-.1 0-.1.1l-.4 5.4c-.1.6 0 1.1.2 1.7l.4-3.9.3-2.8c0-.4-.1-.6-.3-.5zm3.2 11.9l1.4 1.4c.2.2.3.2.4.1.1 0 .2-.1.2-.2l1-7c.1-1.6-.6-3-1.9-3.9l-1.5-1s0-.1-.1 0l-.7 7.1c-.1.1-.1.1-.1.2.1 1.2.6 2.5 1.3 3.3zm6 5.3l.4.2c.7.4 1.5.5 2.2.2.8-.3 1.2-.9 1.4-1.8l.9-6.5c.3-2-1.1-4-3.1-4.3h-.8c0-.1 0-.1-.1-.1-.3 0-.5 0-.7.2-.2.2-.3.4-.4.7l-.1.6v.5l-.9 6.5c-.1.1-.1.1-.1.2-.4 1.5.1 2.9 1.3 3.6zm9 5.3l.9.4c1.1.6 2.6.6 3.7 0 1.3-.5 2.1-1.7 2.3-3l1.1-5.9c.5-3-1.2-5.8-4.2-6.6l-1.2-.3h-.8c-.7 0-1.4.1-1.9.5-.8.5-1.4 1.4-1.5 2.3l-.9 6.3-.2 1.3c-.3 2 .8 4.1 2.7 5zm9.8 2.4c.6.7 1.6 1.3 2.6 1.3h4.7c1.1 0 2.2-1 2.2-2.2v-8.3c0-3.6-2.9-6.6-6.5-6.6-.7 0-1.4.5-1.5 1.3l-.9 4.7-1 5.5c0 .1-.1.3-.1.4l-.2 1c-.1 1 .1 2 .7 2.9zm17.2 4.8h4.1c3.3 0 5.9-2.7 5.9-5.9v-5.1c0-4.7-3.8-8.4-8.4-8.4h-2.9c-2.1 0-3.8 1.7-3.8 3.8v10.6c0 2.7 2.3 5.1 5.1 5zm18.4.1h4.1c2.8 0 5.1-2.3 5.1-5.1v-10.6c0-2.1-1.7-3.7-3.8-3.7h-2.9c-4.7 0-8.4 3.7-8.4 8.4v5.1c0 3.2 2.6 5.9 5.9 5.9zm13.9-3.9h4.7c.9 0 1.9-.4 2.6-1.3.7-.8.9-1.8.7-2.8l-.2-1c0-.1-.1-.3-.1-.4l-1-5.5-.9-4.7c-.1-.6-.7-1.1-1.5-1.1-3.5 0-6.5 2.9-6.5 6.5v8.3a2 2 0 002.2 2zm9.1-11.9l1.1 5.9c.3 1.4 1.1 2.4 2.3 3 1.1.5 2.6.5 3.8 0l.9-.4c1.9-.9 2.9-3 2.6-5l-1.1-7.5c-.1-.9-.7-1.8-1.5-2.3-.5-.5-1.1-.7-1.9-.7-.3 0-.6 0-.8.1l-1.3.3c-2.9.9-4.7 3.7-4.1 6.6zm11.9-4.8c.1.1.1.2.1.3l1 6.8c.2.5.6 1 1.1 1.3.7.3 1.5.2 2.2-.2l.4-.2c1-.8 1.7-2.1 1.5-3.4l-1.1-7.8c0-.3-.2-.5-.4-.7-.1-.1-.3-.2-.5-.2h-.2l-.8.1c-2 .2-3.5 2-3.3 4zm8-2.8l.9 6.9c0 .1.1.2.2.2.2 0 .3 0 .4-.1l1.4-1.4c1-.9 1.5-2.3 1.4-3.6l-.7-7h-.1l-1.6 1c-1.3.9-2.1 2.4-1.9 4zm6.9.8c.1-.6.3-1.1.2-1.8l-.4-5.3-.1-.1-.1-.1c-.3 0-.4.3-.4.5l.8 6.8zm-38-89.2c.1.4.1.7.2.9 2.5 8.6 9.2 15.8 18.1 18.8l18.3 6c13.9 4.6 27.9-6.5 26.8-21l-1.1-15.1c-.8-10.7-10.4-18.5-21-17.1l-22.2 2.9c-11.9 1.5-20.4 12.4-19.1 24.6zm-39.4 46.7c0 8.9 9.2 16 20.4 16 11.3 0 20.4-7.2 20.4-16s-17.3-41.1-20.4-41.1-20.4 32.3-20.4 41.1zm-35.4-21.3l18.3-6c9-2.9 15.6-10 18.1-18.8.1-.2.1-.5.2-.9 1.6-12-7-22.8-19-24.4l-22.2-2.9c-10.6-1.4-20.2 6.4-21 17.1l-1.1 15.1c-1.1 14.5 13 25.5 26.7 20.8z" fill="#fff"/></svg>