<svg xmlns="http://www.w3.org/2000/svg" viewBox="0 0 512 512" style="enable-background:new 0 0 512 512" xml:space="preserve"><path d="M160.9 131.5c-2.6-8.7-1.6-18.1 2.9-26.3 6.1-11.1 17.8-17.9 30.4-17.9 4.3 0 8.8.9 13.1 2.7l-3 7.4c-3.3-1.4-6.8-2.1-10.1-2.1-9.7 0-18.6 5.3-23.4 13.8-3.5 6.3-4.2 13.5-2.2 20.2 1 3.6 2.8 6.9 5.2 9.8l-6.1 5.2c-3.2-3.8-5.5-8.1-6.8-12.8zm44.8 71.6 3.8-7c-13.2-7.2-29.3-8.1-43-2.5-12.2 5-22.2 14.8-27.5 27-3 7-4.3 14.4-4 21.9-7.2.7-14.1 2.9-20.4 6.6-8.9-15.8-25.7-25.6-43.9-25.6-7.7 0-15.2 1.8-22.2 5.2l3.5 7.2c5.9-2.9 12.2-4.4 18.7-4.4 15.5 0 29.7 8.4 37.1 21.9.1.2.2.3.3.5-3.6 3.3-7.3 7.8-10.2 12.8-12.1 20.1-8.1 47.2 9.3 63 4.7 4.2 10.4 7.6 17.5 10.4l2.9-7.4c-6.2-2.4-11.1-5.3-15.1-8.9-14.6-13.3-18-36-7.8-52.9 3.1-5.1 7.1-9.9 10.7-12.6 7-5.1 15.3-7.8 23.9-7.9 1.1 0 2.2-.5 3-1.4.8-.9 1.1-2 .9-3.1-1-7.4.1-15 3.1-22 4.4-10.3 12.8-18.6 23.1-22.8 11.7-4.8 25.2-4 36.3 2zm212 63c-1.8-5.6-5-10.6-9.4-14.5-1.3-1.3-2.8-2.4-4.3-3.4 6.8-14.9 5.7-32.5-3.1-47l-6.8 4.1c8 13.2 8.4 29.5 1.1 42.6-5 8.9-13 15.7-22.7 19.2-1.5.5-2.5 1.9-2.6 3.5-.4 6.1-2.1 12-5.1 17.5-7.5 13.5-21.7 21.9-37.1 21.9-7.1 0-14.2-1.8-20.4-5.3-4.5-2.5-8.6-5.8-12-9.8l-6.1 5.2c4.1 4.7 8.8 8.6 14.2 11.6 7.4 4.1 15.8 6.3 24.3 6.3 18.4 0 35.3-10 44.2-26.1 3.2-5.8 5.2-11.9 5.9-18.3 9.1-3.8 16.9-10.2 22.4-18.4 1 .7 1.9 1.4 2.8 2.2l.1.1c3.3 3 5.8 6.8 7.2 11.1 2.4 7.2 1.6 15.1-2.3 21.8l6.9 4c4.9-8.7 6-19 2.8-28.3zM317.8 95.4c9.8 0 18.7 5.3 23.4 13.9 3.4 6.2 4.2 13.4 2.2 20.3-1 3.5-2.8 6.9-5.2 9.7l6.1 5.2c3.1-3.7 5.5-8.1 6.8-12.7 2.6-8.9 1.5-18.3-2.9-26.3-6.1-11.1-17.7-18-30.4-18-4.6 0-9.1.9-13.2 2.7l3.2 7.3c3.1-1.4 6.5-2.1 10-2.1zm65.9 301.7c.8 5.7-.3 11.4-3.1 16.4-4.7 8.5-13.7 13.8-23.4 13.8-4.4 0-8.8-1.2-12.8-3.3-6.6-3.7-11.4-10.1-13.1-17.6l-7.8 1.8c2.2 9.7 8.4 18 17.1 22.8 5.2 2.8 11 4.3 16.7 4.3 12.6 0 24.2-6.9 30.4-17.9 3.6-6.5 5-13.9 4-21.4l-8 1.1zm112.2-41.4c7.3 13.2 8.2 29.3 2.6 43.1l-.1.2c-.5 1.4-1 2.6-1.6 3.5-4.5 9.1-11.6 16.5-20.5 21.4-2.1 1.2-4.3 2.3-6.6 3.1 1.6 19.6-8.5 38.7-25.8 48.3-7.4 4.1-15.8 6.3-24.3 6.3-3.8 0-7.5-.4-11-1.2-4.5 6.9-10.7 12.6-17.8 16.6-7.4 4.1-15.8 6.3-24.3 6.3-6.5 0-13.1-1.3-19.2-3.8-2.7 2.4-5.6 4.4-8.8 6.2-7.4 4.1-15.8 6.3-24.3 6.3-18.3 0-35.2-10-44.1-26.1-4.1-7.4-6.3-15.8-6.3-24.3V50.5c0-18.3 10-35.2 26-44.1 7.4-4.1 15.8-6.3 24.3-6.3 18.4 0 35.3 10 44.2 26.2.7 1.3 1.4 2.8 2.1 4.3 2.1-.3 4.3-.4 6.4-.4 18.3 0 35.2 10 44.1 26.1 3.5 6.4 5.6 13.5 6.1 20.8 15.7 2.1 29.4 11.5 37.1 25.5 6 10.9 7.8 23.3 5 35.3 10.5 4.4 19.2 12.1 24.8 22.2 8.2 15 8.3 33 .4 48 6.8 4.5 12.3 10.5 16.2 17.6 9.3 16.7 8.2 37-2.4 52.6 3.1 3.2 5.8 6.8 7.9 10.7 11.8 21.4 6.5 47.9-12.1 63.1.5 1.1 1.3 2.3 2 3.6zm-7 3.9c-1.3-2.3-2.6-4.2-3.8-5.8-8.4-9.9-20.6-15.3-33.5-14.8-15.8.7-29.6 10-36.1 24.4l-7.3-3.3c7.8-17.2 24.2-28.3 43.1-29.1 14.1-.6 27.5 4.8 37.4 14.9 15.6-12.9 20-35.1 10.1-53.1-2.2-4.1-5.2-7.8-8.8-11-1.6-1.4-1.8-3.8-.5-5.5 10.7-13.5 12.2-31.8 3.9-46.7-3.8-7-9.5-12.7-16.5-16.5-1-.5-1.7-1.4-2-2.5-.3-1.1-.1-2.2.5-3.1 8.4-13.1 8.9-29.7 1.4-43.4-4.6-8.3-11.8-14.7-20.4-18.4-7.8 17.1-25.1 28.3-44.1 28.3-16.7 0-31.9-8.4-40.9-22.5l6.8-4.3c7.4 11.8 20.2 18.8 34.1 18.8 17 0 32.3-10.7 38.1-26.7 3.3-11 2.1-22.5-3.4-32.6-7-12.7-19.8-20.8-34.3-21.8-2.1-.1-3.7-1.9-3.7-4 0-7.3-1.8-14.4-5.2-20.6-7.5-13.5-21.7-21.9-37-21.9-2.7 0-5.5.3-8.2.8-2 .4-3.9-.7-4.6-2.7-.8-2.3-1.8-4.5-2.8-6.3-7.4-13.5-21.6-22-37.1-22-7.1 0-14.2 1.8-20.4 5.3-13.5 7.5-21.9 21.7-21.9 37.1v83c9.2-.6 17.2-6.7 20.2-15.5l7.6 2.5c-4 12.1-15.1 20.4-27.8 21v218.6c.8.1 1.5.1 2.3.1 11.7 0 22.5-6.4 28.2-16.6l7 3.9c-7.1 12.8-20.6 20.7-35.2 20.7-.8 0-1.5 0-2.3-.1v93.6c0 7.1 1.8 14.2 5.3 20.4 7.5 13.5 21.7 22 37.1 22 7.1 0 14.2-1.8 20.4-5.3 3.3-1.8 6.3-4 9.1-6.8 1.2-1.2 3-1.5 4.5-.7 5.7 2.7 12 4.1 18.3 4.1 7.1 0 14.2-1.8 20.4-5.3 6.8-3.8 12.5-9.4 16.4-16.2.9-1.6 2.8-2.4 4.6-1.8 3.8 1.1 7.7 1.6 11.8 1.6 7.1 0 14.2-1.8 20.4-5.3 15.4-8.5 24-26 21.4-43.4-.3-2 .9-3.9 2.8-4.4 2.8-.8 5.6-2 8.1-3.4 0 0 .1 0 .1-.1 7.6-4.2 13.6-10.5 17.4-18.3.1-.3.3-.5.5-.8.2-.4.5-1.3.6-1.6l.1-.2v-.1c4.7-11.9 3.9-25.5-2.2-36.6zM248.4 50.5v411.3c0 8.5-2.2 16.8-6.3 24.3-8.8 16.1-25.6 26.1-44 26.1-8.5 0-16.9-2.2-24.3-6.3-3.1-1.7-6-3.8-8.8-6.2-6.1 2.5-12.7 3.8-19.2 3.8-8.5 0-16.9-2.2-24.3-6.3-7.3-4.1-13.4-9.8-17.9-16.6-1.7.4-3.5.7-5.2.9h-.7c-.4 0-.7.1-1 .1h-.2c-.3 0-.5.1-.8.1-.9.1-1.8.1-2.6.1h-.4c-8.5 0-16.9-2.2-24.3-6.3-17.3-9.6-27.4-28.7-25.8-48.3-2.2-.8-4.3-1.8-6.5-3-24.3-13.4-33.2-44.1-19.8-68.4.7-1.3 1.5-2.5 2.2-3.6C-.1 336.9-5.3 310.5 6.4 289c2.1-3.8 4.8-7.5 7.9-10.6-10.6-15.6-11.7-35.9-2.4-52.6 4-7.2 9.6-13.2 16.2-17.6-7.9-14.9-7.9-33 .4-48 5.5-10.1 14.3-17.8 24.8-22.2-2.7-12-1-24.4 5-35.3 7.8-14 21.5-23.3 37.1-25.5.4-7.2 2.5-14.2 6.1-20.8 8.8-16.1 25.7-26.1 44.1-26.1 2.1 0 4.3.1 6.4.4.6-1.5 1.3-3 2.2-4.4 8.7-16 25.6-26 44-26 8.5 0 16.9 2.2 24.3 6.3 15.6 8.6 25.7 25.5 25.9 43.9zm-8 411.3v-35.5c-6.5 4.7-14.3 7.4-22.6 7.4-13.4 0-25.9-7.1-32.8-18.6l6.9-4.1c5.5 9.2 15.2 14.7 26 14.7 8.7 0 16.8-3.7 22.6-10.1V282.8c-1.5.2-3 .3-4.6.3-11.5 0-22.5-5-30-13.8l6.1-5.2c6 7 14.8 11 24 11 1.5 0 3.1-.1 4.6-.3V50.5c-.2-15.4-8.6-29.7-22.1-37.1-6.2-3.5-13.3-5.3-20.4-5.3-15.5 0-29.7 8.4-37 21.9-1.1 2-2 4-2.8 6.2-.6 1.9-2.6 3.1-4.6 2.7-2.7-.5-5.4-.8-8.2-.8-15.5 0-29.7 8.4-37 21.9-3.6 6.5-5.3 13.4-5.2 20.6 0 2.1-1.6 3.9-3.7 4-14.4.9-27.2 9.1-34.3 21.8-4.9 8.9-6.4 19-4.4 28.8 4.4-1.2 8.8-1.8 13-1.8 23.2 0 43.6 15.6 49.6 37.9l-7.7 2.1c-5.1-18.9-22.3-32-41.9-32-4.7 0-9.6.9-14.5 2.6h-.1c-10.2 3.4-18.7 10.4-23.8 19.8-7.5 13.6-6.9 30.3 1.4 43.3.6.9.8 2.1.5 3.1-.3 1.1-1 2-2 2.5-6.8 3.7-12.5 9.5-16.5 16.6-8.2 15-6.7 33.3 3.9 46.7 1.3 1.7 1.1 4.1-.5 5.5-3.5 3.1-6.5 6.9-8.8 11.1-10.5 19.1-4.9 42.8 12.9 55.2.9.6 1.5 1.6 1.7 2.7.2 1.1-.1 2.2-.8 3.1-1.3 1.6-2.5 3.5-3.9 5.9-11.4 20.4-4 46.3 16.4 57.5 2.8 1.5 5.5 2.6 8.3 3.5 1.9.6 3 2.5 2.7 4.4-2.6 17.5 6 34.9 21.4 43.4 6.3 3.5 13.3 5.3 20.4 5.3h.4c.6 0 1.3 0 1.7-.1h.8c.4 0 .7-.1 1.1-.1h.1c.2 0 .5-.1.9-.1 2.3-.3 4.6-.7 6.8-1.3h.1c19.6-4.9 33.2-22.4 33.2-42.5 0-13.2-5.9-25.6-16.1-34l5.1-6.2c12.1 9.9 19 24.5 19 40.1 0 21.9-13.8 41.2-34 48.6 3.6 4.9 8.2 8.9 13.6 12 6.2 3.5 13.3 5.3 20.4 5.3 6.3 0 12.6-1.4 18.3-4.1.5-.3 1.1-.4 1.7-.4 1 0 2 .4 2.8 1.1 2.8 2.7 5.8 4.9 9.1 6.8 6.3 3.5 13.3 5.3 20.4 5.3 15.5 0 29.7-8.4 37-21.9 3.6-6.2 5.4-13.2 5.4-20.3z" style="fill:#fff"/></svg>