<svg xmlns="http://www.w3.org/2000/svg" viewBox="0 0 512 512" xml:space="preserve"><path d="M166.1 512s-1-7-1.5-13-.2-35.3-1.4-52.9c-.6-8.8-1.1-17.6-2-26.4-.7-7.4-4.3-15.1-6.8-22.2-4.8-13.5-10.9-26.6-16.7-39.7-6.1-14-13.4-28.2-15.3-43.5-2.1-17.3 4.9-28.1 15.9-40.3 11.1-12.3 9.2-37 8.4-52.4-1.2-20.8-5.2-41.2-8-61.8-4.9-35.2-6.1-70.9-7.1-106.4-.5-17.2 18.2-37.6 32.8-19 10 12.8 5.9 33 8.2 47.9 2.4 15.8 5.7 31.4 9.6 46.9 2.1 8.2 2.6 16.7 5.3 24.7 1.2 3.6 10.6 22 16.6 14.1 2.4-3.3-.4-14-.6-17.9-.5-7.9-1-15.9-.8-23.8.3-14.3 3.8-28.9 3.8-43.1 2.3-15.1 3.1-30.4 5.7-45.5 1.9-11.1 3.3-26.9 12.8-34.3 6.3-4.9 16-4.8 22.2.1 10.6 8.4 5.4 23.4 4.4 34.7-1.5 16.6-2.7 33.3-3.2 50-.7 23.4 1.1 46.7-.6 70-.3 3.7 2.6 11.2 7.3 10.8 3.8-.3 12.8-59.9 14.6-67.5 4.6-18.7 7.8-38 12.3-56.4 1.9-7.6 8.4-13.6 16.4-13.8 6-.1 11.9 3.2 14.9 8.3 3.8 6.5 2.8 14.5 1.8 21.9-5.7 40.6-11.4 81.1-17.1 121.7-.7 4.8-3.8 15 .6 18.8 5.3 4.6 10.4-1.5 13-5.7 9.7-16.1 19.1-32.4 28.3-48.8 7.3-13.1 18.1-53.2 40.3-42.9 4.3 2 7.7 6.1 8.8 10.7 3.4 13.6-7.2 28.3-12.6 40.1-7.9 17.1-15.3 34.3-23 51.5-3.7 8.3-7.4 16.6-9.7 25.4-5.4 20.7-3.2 41.6-3.7 62.6-.5 22.9-2.6 46.6-8.6 68.8-4 14.7-10 28.9-13.1 43.9-2.2 10.5-3 21.2-3.4 31.9-1 24.1-.3 48.3 2.1 72.3 0 .2-150.9.2-150.9.2z" opacity=".1" fill="#fff"/><path d="M389.2 115.6c-1.2-4.6-4.5-8.7-8.8-10.7-22.1-10.4-32.9 29.7-40.3 42.9-9.2 16.4-18.6 32.7-28.3 48.8-2.6 4.3-7.7 10.4-13 5.7-4.4-3.8-1.2-14-.6-18.8 5.7-40.6 11.4-81.1 17.1-121.7 1-7.4 2-15.5-1.8-21.9-3-5.2-8.9-8.5-14.9-8.3-8 .2-14.6 6.2-16.4 13.8-4.5 18.4-7.7 37.7-12.3 56.4-1.9 7.7-10.8 67.3-14.6 67.5-4.7.3-7.6-7.2-7.3-10.8 1.6-23.3-.2-46.6.6-70 .5-16.7 1.7-33.4 3.2-50 1-11.3 6.3-26.3-4.4-34.7-6.3-4.9-15.9-5-22.2-.1-9.5 7.4-11 23.2-12.8 34.3-2.5 15.1-3.4 30.4-5.7 45.5 0 14.2-3.5 28.7-3.8 43.1-.2 7.9.3 15.9.8 23.8.2 3.8 3 14.6.6 17.9-5.9 7.9-15.3-10.5-16.6-14.1-2.7-8-3.2-16.6-5.3-24.7-4-15.5-7.2-31.1-9.6-46.9-2.3-14.9 1.8-35.2-8.2-47.9-14.6-18.6-33.2 1.8-32.8 19 1 35.6 2.2 71.2 7.1 106.4 2.8 20.6 6.9 41 8 61.8.7 12.8 2.1 32-3.8 45.2 6.2-4.7 12.1-9.4 17.2-13.5 1.6-1.3 3.2-2.8 4.8-4.3.8-.8 1.6-1.5 2.4-2.3 2.1-2 4.2-4 6.4-5.9 4.9-4.6 9.9-9.3 15-13.8 7.1-6.4 17-12.8 29.5-6.5 1.6.8 3.1 1.5 4.8 2.3 1.6.7 3.3 1.5 4.9 2.4 13.3 6.7 28 7.2 42.2 7.6 9.8.3 18.8 9.7 19.5 20.5.7 10.9-5.3 16.7-11.4 20.9-11.5 8.1-24.3 10.9-36.7 13.7-2.1.5-4.2.9-6.2 1.4-.4.1-.8.2-1.2.2 3.9 10.9 7.6 24 11 38.9 11.3 50.5-13.9 78.4-15 79.6-.8.9-1.9 1.3-2.9 1.3s-1.9-.4-2.7-1.1c-1.6-1.5-1.7-4-.2-5.7 1-1 23.4-26.2 13-72.4-3.6-16.2-7.6-30.1-11.9-41.3-.9-.2-1.8-.4-2.7-.7-2.1-.5-4-1-5.8-1.2-.9-.1-2.3.3-2.8.7-4.3 3.7-7.6 6.9-10.2 10.2-1.5 1.8-3.1 3.8-4.9 6.2-.8 1-2 1.5-3.2 1.5-.9 0-1.7-.3-2.5-.8-1.7-1.4-2-3.9-.7-5.6 1.9-2.4 3.5-4.4 5.1-6.3 3-3.6 6.6-7.2 11.2-11.2 2.2-1.9 5.7-2.9 8.8-2.6 2.4.3 4.7.8 6.9 1.4 3.4.8 6.5 1.6 8.9 1.1l6.3-1.5c12.2-2.7 23.7-5.3 33.9-12.5 6.3-4.4 8.4-8 8-13.8-.5-7.5-6.6-12.9-11.8-13-14.4-.4-30.7-1-45.5-8.5-1.5-.8-3.1-1.5-4.7-2.2l-5.1-2.4c-6.8-3.4-12.3-2-20.6 5.3-5 4.5-10 9.1-14.8 13.6-2.1 2-4.3 4-6.4 6-.8.7-1.5 1.4-2.3 2.2-1.7 1.6-3.4 3.3-5.3 4.8-6 4.8-13.1 10.4-20.4 15.9-.9.6-6.4 3.2-12.6 6-7.2 9.5-11.3 19.1-9.7 32.8 1.9 15.3 9.2 29.5 15.3 43.5 5.7 13.2 11.8 26.2 16.7 39.7 2.5 7 6.1 14.7 6.8 22.2.9 8.8 1.4 17.6 2 26.4 1.2 17.6.9 46.9 1.4 52.9.5 6 1.5 13 1.5 13h151c-2.4-24-3.1-48.2-2.1-72.3.4-10.7 1.2-21.4 3.4-31.9 3.1-14.9 9.1-29.1 13.1-43.9 6.1-22.2 8.2-45.9 8.6-68.8.4-21-1.8-41.9 3.7-62.6 2.3-8.8 6-17.1 9.7-25.4 7.7-17.2 15.1-34.4 23-51.5 5.2-11.9 15.8-26.6 12.4-40.2z" fill="#fff"/></svg>