<svg version="1.1" xmlns="http://www.w3.org/2000/svg" x="0" y="0" viewBox="0 0 512 512" xml:space="preserve"><path d="M421.9 263.6l-3.4-2.6c2.3-16.3 4.1-32.9 5.2-49.7.9-14.1 1.4-28.3 1.4-42.8 0-23.4-1.2-46.5-3.6-69C395.2 41.2 331 0 256 0S116.8 41.2 90.6 99.5c-2.4 22.5-3.6 45.6-3.6 69 0 14.4.5 28.7 1.4 42.8 1.1 16.8 2.8 33.4 5.2 49.7l-3.4 2.6c-2 1.5-3.1 3.9-3.1 6.3v1.7c0 2.8 1.1 5.5 3 7.6l20.9 22.2c2.3 2.5 5.1 4.5 8.1 5.9V328c0 2.2 1.8 4 4 4h6c1.1 0 1.9.9 1.8 2l-5.8 67.3c-1.3 15.1 3.9 30 14.2 41l22 23.4c1.4 1.5 2.8 3.1 4.1 4.7 18.9 25 52.5 41.6 90.7 41.6s71.8-16.6 90.7-41.6c1.3-1.7 2.6-3.2 4.1-4.7l22-23.4c10.4-11 15.5-25.9 14.2-41l-5.8-67.3c-.1-1.1.8-2 1.8-2h6c2.2 0 4-1.8 4-4v-20.6c3-1.4 5.8-3.4 8.1-5.9l20.9-22.2c1.9-2.1 3-4.8 3-7.6V270c-.1-2.5-1.3-4.9-3.2-6.4zM354 378c-.7 1.1-1.5 2.3-2.4 3.5-.7 0-1.4.3-1.9.9l-4.7 5.7c-.4.5-.7 1-.9 1.5-1.4-.5-2.9-.3-4 .7L336 394c-1.1 1-1.8 2.2-2.2 3.5-1.2-.6-2.6-.6-3.9-.1l-7.9 3.3c-2.7 1.1-4.8 3.2-6.1 5.7-.2-.2-.3-.3-.5-.4-1.5-1.1-3.4-1.5-5.2-.9l-6.5 1.9c-2.3.7-4.1 2.2-5.2 4.2l-.3-.3c-1.5-1.4-3.6-2.1-5.7-1.8l-4.9.5c-2.9.3-5.3 1.9-6.8 4.3-1.9-2.4-4.8-3.9-8-3.9H265c-3.7 0-7 1.9-9 4.7-2-2.8-5.3-4.7-9-4.7h-7.8c-3.2 0-6.1 1.5-8 3.9-1.5-2.3-3.9-3.9-6.8-4.3l-4.9-.5c-2.1-.2-4.1.4-5.7 1.8l-.3.3c-1.1-2-2.9-3.6-5.2-4.2l-6.5-1.9c-1.8-.5-3.7-.2-5.2.9-.2.1-.4.3-.5.4-1.3-2.5-3.4-4.5-6.1-5.7l-7.9-3.3c-1.3-.5-2.7-.5-3.9.1-.4-1.3-1.2-2.6-2.2-3.5l-4.1-3.7c-1.1-1-2.7-1.3-4-.7-.2-.5-.5-1.1-.9-1.5l-4.7-5.7c-.5-.6-1.2-.9-1.9-.9-.9-1.2-1.7-2.4-2.4-3.5-11.6-19.3-15.4-53.4-16.6-68h3.4c7 0 13.4 3.5 17.3 9.3l1.7 2.5c5.1 7.7 6.4 17.3 3.5 26.1l-1.2 3.6c-1 0-1.9.3-2.7.8-1 .7-1.6 1.9-1.7 3.1l-.6 8.5c-.2 2.3.5 4.7 1.7 6.6.6 1 1.7 1.5 2.7 1.6.5 2 1.5 3.9 3 5.5l2.2 2.2c.9.9 2 1.3 3.2 1.3.3 0 .6 0 .8-.1.6 2.1 2 4 3.9 5.3l.6.4c1.3.9 2.8 1.3 4.2 1.3 1.1 0 2.1-.2 3.1-.7.1-.1.3-.1.4-.2.8 3.3 3 6.2 6.1 7.8l1.5.7c1.5.8 3.2 1.1 4.8 1.1 1.6 0 3.2-.4 4.8-1.1.6-.3 1.2-.7 1.7-1.1.4 1.1.9 2.1 1.7 3 1.8 2.2 4.4 3.4 7.2 3.4h7.5c1.7 0 3.2-.6 4.4-1.5 1.8 4.4 6.2 7.5 11.2 7.5h6.4c4.8 0 9.1-2.6 11.4-6.4 2.4 3.8 6.6 6.4 11.4 6.4h6.4c5.1 0 9.4-3.1 11.2-7.5 1.2.9 2.8 1.5 4.4 1.5h7.5c2.8 0 5.5-1.2 7.2-3.4.7-.9 1.3-1.9 1.7-3 .5.4 1.1.8 1.7 1.1 1.5.7 3.1 1.1 4.8 1.1 1.6 0 3.3-.4 4.8-1.1l1.5-.7c3.2-1.6 5.4-4.5 6.1-7.8.1.1.3.1.4.2 1 .4 2.1.7 3.1.7 1.5 0 3-.4 4.2-1.3l.6-.4c1.9-1.3 3.2-3.2 3.9-5.3.3.1.6.1.8.1 1.2 0 2.4-.5 3.2-1.3l2.2-2.2c1.5-1.5 2.6-3.4 3-5.5 1.1-.1 2.1-.6 2.7-1.6 1.3-1.9 1.9-4.3 1.7-6.6l-.6-8.5c-.1-1.2-.7-2.3-1.7-3.1-.8-.6-1.7-.9-2.7-.8l-1.2-3.6c-2.9-8.8-1.6-18.4 3.5-26.1l1.7-2.5c3.9-5.8 10.4-9.3 17.3-9.3h3.4c-.4 14.6-4.2 48.7-15.8 68z" opacity=".1" fill="#fff"/><path d="M421.9 263.6l-3.4-2.6c2.3-16.3 4.1-32.9 5.2-49.7.9-14.1 1.4-28.3 1.4-42.8 0-23.4-1.2-46.5-3.6-69C395.2 41.2 331 0 256 0S116.8 41.2 90.6 99.5c-2.4 22.5-3.6 45.6-3.6 69 0 14.4.5 28.7 1.4 42.8 1.1 16.8 2.8 33.4 5.2 49.7l-3.4 2.6c-2 1.5-3.1 3.9-3.1 6.3v1.7c0 2.8 1.1 5.5 3 7.6l20.9 22.2c2.3 2.5 5.1 4.5 8.1 5.9V328c0 2.2 1.8 4 4 4h6c1.1 0 1.9.9 1.8 2l-5.8 67.3c-1.3 15.1 3.9 30 14.2 41l22 23.4c1.4 1.5 2.8 3.1 4.1 4.7 18.9 25 52.5 41.6 90.7 41.6s71.8-16.6 90.7-41.6c1.3-1.7 2.6-3.2 4.1-4.7l22-23.4c10.4-11 15.5-25.9 14.2-41l-5.8-67.3c-.1-1.1.8-2 1.8-2h6c2.2 0 4-1.8 4-4v-20.6c3-1.4 5.8-3.4 8.1-5.9l20.9-22.2c1.9-2.1 3-4.8 3-7.6V270c-.1-2.5-1.3-4.9-3.2-6.4zM256 234c5 0 32.5 51.4 32.5 65.5S273.9 325 256 325s-32.5-11.4-32.5-25.5S251 234 256 234zm-90.2 121.7c0-.1 0-.1.1-.2h.2c.4.1.7.5.6.9l-1.1 10.7c-.3-.9-.5-1.8-.4-2.8l.6-8.6zm3.7 13.1l1.2-10.9s0-.1.1-.1h.2l2.4 1.7c2.2 1.5 3.3 4.2 3 6.8l-1.5 10.3c0 .3-.2.4-.4.5-.2.1-.4.1-.6-.1l-2.2-2.2c-1.7-1.6-2.5-3.8-2.2-6zm9.2 8.8l1.8-12.5c.1-.5.3-.9.7-1.2.3-.2.7-.4 1.1-.4h.3l1.4.2c3.2.5 5.5 3.5 5 6.8v.2l-.7 4.5-.8 5.7c-.2 1.3-1 2.3-2.1 2.8-1.2.5-2.4.4-3.5-.3l-.6-.4c-2-1.2-2.9-3.3-2.6-5.4zm12.3 5.8l1.1-7.6.7-4.5c.2-1.5 1.1-2.8 2.3-3.7.9-.6 1.9-.9 3-.9.4 0 .9.1 1.3.2l2 .5c4.6 1.2 7.5 5.7 6.6 10.4l-1.8 9.2-.1.3c-.4 2.1-1.7 3.8-3.6 4.8-1.9.9-4.1.9-6 0l-1.5-.7c-2.8-1.5-4.5-4.7-4-8zm18.7 7.2l.5-2.8 1.8-9.2 1.3-6.6c.2-1.1 1.2-2 2.4-2 5.7 0 10.3 4.6 10.3 10.3v13.2c0 1.9-1.6 3.5-3.5 3.5H215c-1.6 0-3.1-.7-4.2-2-1-1.2-1.4-2.8-1.1-4.4zm20.3 2.9V378c0-3.3 2.7-6 6-6h4.6c7.4 0 13.4 6 13.4 13.4v8.2c0 5.2-4.2 9.4-9.4 9.4h-6.4c-4.5 0-8.2-3.7-8.2-8.2v-1.3zm28-8.1c0-7.4 6-13.4 13.4-13.4h4.6c3.3 0 6 2.7 6 6v16.8c0 4.5-3.7 8.2-8.2 8.2h-6.4c-5.2 0-9.4-4.2-9.4-9.4v-8.2zm28-5.1c0-5.7 4.6-10.3 10.3-10.3 1.2 0 2.2.8 2.4 2l1.3 6.6 1.8 9.5.5 2.5c.3 1.6-.1 3.2-1.1 4.5s-2.5 2-4.2 2h-7.5c-1.9 0-3.5-1.6-3.5-3.5v-13.3zm24.5-12.9l2-.5c.4-.1.9-.2 1.3-.2 1 0 2.1.3 3 .9 1.3.9 2.1 2.2 2.3 3.7l1.5 10.1.3 1.9c.5 3.3-1.2 6.5-4.1 7.9l-1.5.7c-1.9 1-4.1 1-6 0-1.9-.9-3.2-2.7-3.6-4.8l-1.8-9.5c-.9-4.5 2-9 6.6-10.2zm17.6-3.6l1.4-.2h.3c.4 0 .8.1 1.1.4.4.3.6.7.7 1.2l.2 1.7 1.5 10.3.1.4c.3 2.1-.6 4.2-2.4 5.4l-.6.4c-1.1.7-2.3.8-3.5.3-1.2-.5-1.9-1.5-2.1-2.8l-1.5-10.1v-.2c-.6-3.3 1.6-6.3 4.8-6.8zm10.6-4.4l2.4-1.7h.2c.1 0 .1.1.1.1l.4 3.9.7 7c.2 2.2-.5 4.4-2.1 5.9l-2.2 2.2c-.2.2-.5.2-.6.1-.2-.1-.4-.2-.4-.5l-1.5-10.3c-.3-2.5.8-5.1 3-6.7zm7.2-3.9h.2c.1 0 .1.1.1.2l.6 8.5c.1 1-.1 1.9-.4 2.8l-.1-.6-.9-9-.1-1.1c-.1-.4.2-.8.6-.8zM124.7 232.3l1.8-24c1.3-17 16.6-29.4 33.5-27.1l35.3 4.7c19 2.5 32.6 19.8 30.2 38.8-.1.7-.2 1.2-.3 1.5-4 13.9-14.6 25.2-28.8 29.9l-29.1 9.6c-22 7.3-44.3-10.2-42.6-33.4zm221.8 160.3v-.2c0-.9.3-1.7.9-2.4l3.5-4.3v1.3c0 2-.6 3.9-1.6 5.6l-2.8 4.4v-3.8c.1-.2.1-.4 0-.6zm-3.1.6v9c0 2.1-1.1 4-2.8 5.2l-2.4 1.5c-.5.3-.9.1-1.1 0-.2-.1-.5-.4-.5-.9v-8.4c0-1.3.6-2.5 1.5-3.4l4.1-3.7c.3-.3.6-.2.8-.1s.4.4.4.8zm-10 14.2c0 4.1-2.2 7.9-5.8 9.9l-6.7 3.7c-.7.4-1.5.4-2.2 0-.7-.4-1.1-1.1-1.1-1.9v-7c0-3.7 2.2-6.9 5.5-8.4l7.9-3.3c.2-.1.4-.1.7-.1.3 0 .6.1.9.3.5.3.7.8.7 1.4v5.4zm-19 4.7v6.8c0 3.4-2 6.5-5.1 7.9l-1.5.7c-1.6.7-3.4.6-4.8-.4-1.5-1-2.3-2.5-2.3-4.3v-7.5c0-2.4 1.6-4.6 3.9-5.2l6.5-1.9c.8-.2 1.7-.1 2.3.4.7.5 1.1 1.3 1.1 2.1v1.4zm-17 10.7v2.7c0 3.6-2.6 6.6-6.1 7.2l-2.2.4c-1.6.3-3.3-.2-4.5-1.3-.9-.8-1.5-1.8-1.8-2.9.1-.7.2-1.5.2-2.2v-6.5c0-.8-.1-1.6-.3-2.4.5-2.6 2.6-4.6 5.3-4.9l4.9-.5c1.2-.1 2.3.2 3.2 1s1.4 1.9 1.4 3.1v6.3zm-18.4 3.9c0 4-3.3 7.3-7.3 7.3h-4.6c-5 0-9.1-4.1-9.1-9.1V421c0-3.9 3.1-7 7-7h7.8c3.4 0 6.2 2.8 6.2 6.2v6.5zm-25-1.8c0 5-4.1 9.1-9.1 9.1h-4.6c-4 0-7.3-3.3-7.3-7.3v-6.5c0-3.4 2.8-6.2 6.2-6.2h7.8c3.9 0 7 3.1 7 7v3.9zm-24.8 4c-.3 1.1-.9 2.1-1.8 2.9-1.3 1.1-2.9 1.5-4.5 1.3l-2.2-.4c-3.5-.6-6.1-3.6-6.1-7.2v-9.1c0-1.2.5-2.3 1.4-3.1.8-.7 1.7-1 2.7-1h.5l4.9.5c2.7.3 4.8 2.3 5.3 4.9-.2.8-.3 1.6-.3 2.4v6.5c-.1.8 0 1.6.1 2.3zm-17.8-12.5v6.4c0 1.7-.8 3.3-2.3 4.3s-3.2 1.1-4.8.4l-1.5-.7a8.68 8.68 0 01-5.1-7.9v-8.2c0-.8.4-1.6 1.1-2.1.5-.3 1-.5 1.6-.5.3 0 .5 0 .8.1l6.5 1.9c2.3.7 3.9 2.8 3.9 5.2v1.1zm-17 2.4v.2c0 .8-.4 1.5-1.1 1.9-.7.4-1.5.4-2.2 0l-6.7-3.7c-3.6-2-5.8-5.8-5.8-9.9v-5.5c0-.6.3-1.1.7-1.4.3-.2.6-.3.9-.3.2 0 .4 0 .7.1l7.9 3.3c3.4 1.4 5.5 4.7 5.5 8.4v6.9zm-33.4-33l3.5 4.3c.5.7.9 1.5.9 2.4v.2c0 .2-.1.4-.1.6v3.8l-2.8-4.4c-1-1.7-1.6-3.6-1.6-5.6v-1.3zm14.4 16.1v6.2c0 .6-.4.8-.5.9-.2.1-.6.3-1.1 0l-2.4-1.5c-1.8-1.1-2.8-3.1-2.8-5.2v-9c0-.4.3-.6.4-.7.1 0 .2-.1.3-.1.1 0 .3 0 .5.2l4.1 3.7c1 .9 1.5 2.1 1.5 3.4v2.1zM354 378c-.7 1.1-1.5 2.3-2.4 3.5-.7 0-1.4.3-1.9.9l-4.7 5.7c-.4.5-.7 1-.9 1.5-1.4-.5-2.9-.3-4 .7L336 394c-1.1 1-1.8 2.2-2.2 3.5-1.2-.6-2.6-.6-3.9-.1l-7.9 3.3c-2.7 1.1-4.8 3.2-6.1 5.7-.2-.2-.3-.3-.5-.4-1.5-1.1-3.4-1.5-5.2-.9l-6.5 1.9c-2.3.7-4.1 2.2-5.2 4.2l-.3-.3c-1.5-1.4-3.6-2.1-5.7-1.8l-4.9.5c-2.9.3-5.3 1.9-6.8 4.3-1.9-2.4-4.8-3.9-8-3.9H265c-3.7 0-7 1.9-9 4.7-2-2.8-5.3-4.7-9-4.7h-7.8c-3.2 0-6.1 1.5-8 3.9-1.5-2.3-3.9-3.9-6.8-4.3l-4.9-.5c-2.1-.2-4.1.4-5.7 1.8l-.3.3c-1.1-2-2.9-3.6-5.2-4.2l-6.5-1.9c-1.8-.5-3.7-.2-5.2.9-.2.1-.4.3-.5.4-1.3-2.5-3.4-4.5-6.1-5.7l-7.9-3.3c-1.3-.5-2.7-.5-3.9.1-.4-1.3-1.2-2.6-2.2-3.5l-4.1-3.7c-1.1-1-2.7-1.3-4-.7-.2-.5-.5-1.1-.9-1.5l-4.7-5.7c-.5-.6-1.2-.9-1.9-.9-.9-1.2-1.7-2.4-2.4-3.5-11.6-19.3-15.4-53.4-16.6-68h3.4c7 0 13.4 3.5 17.3 9.3l1.7 2.5c5.1 7.7 6.4 17.3 3.5 26.1l-1.2 3.6c-1 0-1.9.3-2.7.8-1 .7-1.6 1.9-1.7 3.1l-.6 8.5c-.2 2.3.5 4.7 1.7 6.6.6 1 1.7 1.5 2.7 1.6.5 2 1.5 3.9 3 5.5l2.2 2.2c.9.9 2 1.3 3.2 1.3.3 0 .6 0 .8-.1.6 2.1 2 4 3.9 5.3l.6.4c1.3.9 2.8 1.3 4.2 1.3 1.1 0 2.1-.2 3.1-.7.1-.1.3-.1.4-.2.8 3.3 3 6.2 6.1 7.8l1.5.7c1.5.8 3.2 1.1 4.8 1.1 1.6 0 3.2-.4 4.8-1.1.6-.3 1.2-.7 1.7-1.1.4 1.1.9 2.1 1.7 3 1.8 2.2 4.4 3.4 7.2 3.4h7.5c1.7 0 3.2-.6 4.4-1.5 1.8 4.4 6.2 7.5 11.2 7.5h6.4c4.8 0 9.1-2.6 11.4-6.4 2.4 3.8 6.6 6.4 11.4 6.4h6.4c5.1 0 9.4-3.1 11.2-7.5 1.2.9 2.8 1.5 4.4 1.5h7.5c2.8 0 5.5-1.2 7.2-3.4.7-.9 1.3-1.9 1.7-3 .5.4 1.1.8 1.7 1.1 1.5.7 3.1 1.1 4.8 1.1 1.6 0 3.3-.4 4.8-1.1l1.5-.7c3.2-1.6 5.4-4.5 6.1-7.8.1.1.3.1.4.2 1 .4 2.1.7 3.1.7 1.5 0 3-.4 4.2-1.3l.6-.4c1.9-1.3 3.2-3.2 3.9-5.3.3.1.6.1.8.1 1.2 0 2.4-.5 3.2-1.3l2.2-2.2c1.5-1.5 2.6-3.4 3-5.5 1.1-.1 2.1-.6 2.7-1.6 1.3-1.9 1.9-4.3 1.7-6.6l-.6-8.5c-.1-1.2-.7-2.3-1.7-3.1-.8-.6-1.7-.9-2.7-.8l-1.2-3.6c-2.9-8.8-1.6-18.4 3.5-26.1l1.7-2.5c3.9-5.8 10.4-9.3 17.3-9.3h3.4c-.4 14.6-4.2 48.7-15.8 68zm-9.4-112.3l-29.1-9.6c-14.2-4.7-24.8-16-28.8-29.9-.1-.3-.2-.9-.3-1.5-2.4-19 11.2-36.3 30.2-38.8l35.3-4.7c16.9-2.2 32.2 10.2 33.5 27.1l1.8 24c1.8 23.2-20.5 40.7-42.6 33.4z" fill="#fff"/></svg>