<svg version="1.1" xmlns="http://www.w3.org/2000/svg" x="0" y="0" viewBox="0 0 512 512" xml:space="preserve"><path d="M443.6 115.4c-5.6 8.6-10 17.9-15.2 26.8-11.1 18.9-22 37.8-33.7 56.3-3 4.7-6.2 12-14.3 10-8.1-2-9.9-7.6-8.1-18.4 2-12 3.1-24.2 4.3-36.4 2-20.7 4.1-41.5 5.7-62.2 1.1-14.5 2.4-29.1 2-43.6-.2-8.5-9.9-13.7-20.4-12.8-6.7.6-12.8 8.2-13.6 15.7-2.1 17.6-4.4 35.1-7.2 52.6-3.7 22.8-8 45.4-12.1 68.1-.3 1.9-1.2 3.7-1.8 5.6-1.9-2.2-5.4-4.4-5.4-6.7-.6-18.2-.6-36.4-.8-54.6-.2-14.3-1-28.6-.4-42.8.8-19 2.8-38 4.1-57 .8-12.6-17.1-19.7-26.8-14.1-8.8 5-12.4 17.3-13.3 26.7-2 18.9-4.1 37.9-6.3 56.8-1.6 14.2-4.3 28.4-4.6 42.7-.3 14.8 2 29.7 2.7 44.6.1 2.2-2.1 4.5-3.3 6.7-2.6-1.8-6.8-3.2-7.6-5.6-4.2-12.8-8.4-25.6-10.9-38.8-4.4-23.1-7.6-46.5-11.4-69.8-1.7-10.3-3.6-20.7-5.9-30.9-1.4-6.4-13.5-11.6-21-9.5-10.4 2.9-16.3 10.1-15.8 21 1.2 24.9 2.4 49.8 4.4 74.7 1.6 20.1 4.3 40.1 6.9 60.1 1.6 12.1 5.1 24 6 36.1 1.3 17.6-4 33.9-11.5 49.8-7.2 15.4-21.2 19.5-35.3 22.3-5 1-11.6-4-16.9-7.2-17.2-10.6-32.3-24.4-50.1-34.6-2.8-1.6-5.6-3.1-8.7-4.2-12.2-4.1-29.7-3.7-42.4-2.6-7.6.6-13.4 6-15.5 14.1v7c2 9.7 22.1 15.9 29.8 21.3 11.2 7.9 21.7 16.8 31.6 26.4 11.7 11.4 22.5 23.7 33.6 35.7 27.5 29.8 57 57.9 85.9 86.3 3.3 3.3 8.8 4.9 11.5 8.7 3.1 4.3 3.3 10.6 4.2 15.6 2.7 14.9 4.6 30 5.5 45.2.2 3.5 1.8 11.4 1.8 11.4s115.8-.1 153.2-.1c-1.3-25.6-3.2-51.1-3.5-76.7-.2-18.9 7.1-36 11.8-54 4.8-18.4 8.6-37.1 11.2-56 2.1-14.7 3.5-29.4 4.2-44.2.6-11.9-1.5-26.4 2.4-37.8 4.3-12.8 10.7-24.9 16.4-37.2 8.4-18.3 17.1-36.4 25.3-54.8 3.2-7.1 5.6-14.5 8.3-21.8v-9.7c-6.3-14.6-22.4-14.3-29-4.2z" fill="#fff"/></svg>