<svg version="1.1" xmlns="http://www.w3.org/2000/svg" x="0" y="0" viewBox="0 0 512 512" style="enable-background:new 0 0 512 512" xml:space="preserve"><path d="M504.1 281.3c-1-1.8-2.2-3.6-3.5-5.3 8.6-17.3 8.1-37.7-2-55-3.1-5.4-7.1-10.3-11.7-14.5 5.3-15.7 3.7-33.1-4.9-48a61.05 61.05 0 0 0-22-22c.7-11.3-2-22.7-7.8-32.6-8.1-14-21.4-24.1-37.1-28.4-1.3-5.5-3.4-10.8-6.3-15.8-11-18.9-31.7-30.7-54.1-30.8C343.5 11 323.3.1 301.6.1c-10.4 0-20.7 2.6-29.9 7.4-6.1 3.2-11.5 7.3-16.1 12.1-4.6-4.8-9.9-8.9-16-12.1-9.1-4.8-19.4-7.4-29.8-7.4-21.7 0-41.8 10.9-53 28.6-22.5.2-43.1 12-53.9 30.9-2.9 5-5 10.3-6.3 15.7-15.4 4.3-28.7 14.4-36.9 28.3-5.8 10-8.5 21.4-7.8 32.7-9.1 5.4-16.7 12.9-22 22.1-8.6 14.9-10.1 32.2-4.8 47.9-4.5 4.1-8.5 8.9-11.6 14.3l-.1.1c-10 17.3-10.5 37.7-2 55-1.2 1.7-2.4 3.5-3.4 5.3-7.6 13.2-9.8 28.6-6.1 43.3 2.3 9.4 7 18.1 13.4 25.3-5.8 12.8-6.9 26.9-3 40.5 4.6 15.8 15.3 28.8 30.2 36.6h.1c1.4 20.2 13.4 38.9 32.3 48.9 9.1 4.8 19.4 7.4 29.8 7.4h.4c.9 0 2.1 0 3.5-.1.3 0 .6 0 .9-.1.4 0 .8 0 1.1-.1 4.9 5.4 10.7 10.1 17.4 13.6 9.1 4.8 19.4 7.4 29.8 7.4 5.7 0 11.5-.8 17.1-2.3 1.7 1.1 3.5 2.2 5.4 3.2 9.1 4.8 19.4 7.4 29.8 7.4 17.7 0 34.3-7.2 45.9-19.5 11.7 12.2 28.3 19.4 45.9 19.4 10.4 0 20.7-2.6 29.8-7.4 1.9-1 3.7-2.1 5.4-3.2 5.6 1.5 11.4 2.3 17.1 2.3 10.4 0 20.7-2.6 29.9-7.4 6.6-3.5 12.5-8.1 17.4-13.6 2 .2 4 .3 6 .3 10.4 0 20.7-2.6 29.8-7.4 18.9-9.9 30.9-28.6 32.4-48.9.1 0 .2-.1.2-.1 10.8-5.7 19.5-14.2 25.1-24.7 1.2-1.8 1.9-3.6 2.6-5.3 6.3-15 6-32.1-.7-46.9 6.5-7.2 11.1-15.9 13.4-25.3 3.6-14.5 1.4-29.9-6.2-43zM236.6 465.2s0 .1-.1.1c-5.2 9.1-15.4 14.8-26.7 14.8-5.2 0-10.3-1.3-14.9-3.7-2.4-1.3-4.5-2.8-6.6-4.6-3-2.8-6.9-4.2-10.8-4.2-2.2 0-4.5.5-6.6 1.4-4.2 1.9-8.8 2.9-13.4 2.9-4.2 0-8.3-.8-12.1-2.4 14.9-11.4 24.1-28.9 24.1-48.1 0-18.7-8.6-36.1-23.7-47.9-7-5.4-17-4.2-22.5 2.7-5.4 7-4.2 17 2.7 22.5 7.2 5.7 11.4 13.9 11.4 22.7 0 13.4-9.9 25.2-24 28.6h-.4c-1.5.4-3.1.7-4.7.9-.3 0-.6 0-.9.1-.5 0-.9.1-1.3.1-.3 0-.6 0-1 .1h-.9c-5.2 0-10.3-1.3-14.9-3.7-10.8-5.7-16.9-17.2-15.1-28.7 1.2-7.9-3.5-15.4-11.1-17.8-2.1-.6-4.1-1.5-6.3-2.6-7.1-3.8-12.1-9.8-14.3-17.1-2-6.9-1.1-14.2 2.5-20.6 1-1.6 1.8-2.9 2.7-3.9 2.9-3.5 4.2-8.1 3.6-12.6s-3.2-8.5-7-11C32 325 28.1 309.4 35.2 297c1.6-2.7 3.7-5.3 6.2-7.4 6.7-5.7 7.5-15.7 1.9-22.4-7.3-8.7-8.3-20.7-2.7-30.4 2.8-4.8 6.9-8.6 11.7-11.1 4-2.1 7-5.8 8.1-10.2s.3-9.1-2.2-12.9c-5.7-8.6-6.1-19.4-1-28.3 3.6-6.3 9.7-11.1 17-13.4.1 0 .1 0 .2-.1h.2c3.7-1.3 7.2-1.9 10.7-1.9 14.3 0 26.7 8.9 30.4 21.7 2 7 8.4 11.6 15.4 11.6 1.4 0 2.9-.2 4.4-.6 8.5-2.4 13.4-11.3 11-19.8-7.5-26.5-32.7-45-61.2-45h-1.2c.6-2.5 1.6-5 2.9-7.3 5.1-8.6 14.3-14.2 24.7-14.8 8.5-.5 15.1-7.6 15-16.2-.1-4.6 1.1-9 3.6-13.3 5.2-9.1 15.4-14.8 26.7-14.8 2 0 4 .2 6 .6 7.8 1.5 15.5-3 18.1-10.4.5-1.3 1-2.5 1.7-3.7 0-.1.1-.1.1-.2 5.2-9.1 15.4-14.8 26.7-14.8 5.2 0 10.3 1.3 14.9 3.7 9.5 5 15.4 14.4 15.6 24.7v201.1c-1.3.2-2.6.4-3.9.4-5.9 0-11.4-2.4-15.1-6.5-5.9-6.6-16-7.1-22.6-1.1-6.6 5.9-7.1 16-1.1 22.6 9.8 10.8 24 17.1 38.9 17.1 1.3 0 2.6-.1 3.9-.2v105.6c-3.5 3.8-8.5 5.9-13.9 5.9-6.5 0-12.6-3.2-15.9-8.4-4.7-7.5-14.6-9.7-22.1-5-7.5 4.7-9.7 14.6-5 22.1 9.2 14.6 25.3 23.3 42.9 23.3 4.8 0 9.5-.7 13.9-1.9V452c.2 4.6-1.1 9-3.5 13.2zM468 384.4c-.1.1-.1.3-.2.4l-.1.3c-.2.4-.4.7-.6 1.1-2.7 5.2-6.9 9.4-12.3 12.3-.1.1-.2.1-.4.2-1.6.9-3.5 1.7-5.4 2.2-7.8 2.2-12.8 9.8-11.6 17.9 1.8 11.6-4.1 22.9-15.1 28.7-4.6 2.4-9.7 3.7-14.9 3.7-3 0-6-.4-8.7-1.1-6.9-1.9-14.2 1-17.9 7.2-2.8 4.7-6.8 8.4-11.7 11-4.6 2.4-9.7 3.7-14.9 3.7-4.6 0-9.3-1-13.4-2.9-5.8-2.6-12.7-1.5-17.4 2.8-2 1.9-4.2 3.4-6.6 4.7-4.6 2.4-9.7 3.7-14.9 3.7-11.2 0-21.5-5.7-26.8-14.9-1.3-2.3-2.3-4.7-2.9-7.2.2-2 .3-4 .3-5.9v-77.1c1.1.1 2.2.1 3.2.1 18.9 0 36.3-9.8 45.6-25.7 4.5-7.6 1.9-17.4-5.7-21.9s-17.4-1.9-21.9 5.7c-3.6 6.1-10.5 9.9-18 9.9-1.1 0-2.2-.1-3.2-.2V209.2h.5c18.4 0 34.7-11.3 40.6-28.2 2.9-8.3-1.5-17.5-9.8-20.4-8.3-2.9-17.5 1.5-20.4 9.8-1.4 4-5.7 6.8-10.4 6.8h-.5V60.1c0-1.9-.1-3.8-.4-5.7 1.8-7.8 7.1-14.6 14.7-18.6 4.6-2.4 9.7-3.7 14.9-3.7 11.2 0 21.5 5.7 26.8 14.8.7 1.2 1.4 2.7 1.9 4 2.6 7.5 10.3 11.9 18.1 10.4 1.9-.4 4-.6 6-.6 11.2 0 21.5 5.7 26.8 14.9 2.4 4.1 3.6 8.7 3.6 13.5 0 8.5 6.6 15.5 15 16 10.5.6 19.8 6.1 24.7 14.7 3.7 6.4 4.6 13.8 2.5 20.7-4.1 10.4-14.9 17.4-26.9 17.4-10 0-19-4.7-24.3-12.5-4.9-7.4-14.8-9.3-22.2-4.4-7.4 4.9-9.3 14.8-4.4 22.2 11.2 16.8 30.2 26.8 50.9 26.8 19.1 0 36.8-8.7 48.1-22.8 2.5 2.1 4.6 4.6 6.2 7.4 5.2 9 4.8 19.6-1 28.3-2.5 3.8-3.4 8.5-2.2 12.9s4.1 8.1 8.1 10.2c5 2.6 9 6.4 11.6 11l.1.1c5.7 9.7 4.6 21.6-2.7 30.4-5.6 6.7-4.8 16.8 1.9 22.4 2.6 2.2 4.6 4.6 6.2 7.3 5.2 9 4.6 19.7-.9 28.1-10.7-7-23.5-10.5-36.8-10-23.3.9-43.8 14.2-53.5 34.6-3.8 8-.4 17.5 7.6 21.3 2.2 1.1 4.6 1.6 6.9 1.6 6 0 11.7-3.4 14.5-9.1 4.6-9.6 14.5-15.9 25.9-16.4 9.3-.4 18 3.3 24.1 10 .8 1 1.6 2.2 2.5 3.7 3.9 7.1 4.5 15.9 1.2 23.4zM162 141.1c-3.6-11.7-2.2-24 4-34.8 8.3-14.3 23.9-23.1 40.7-23.1 5.7 0 11.7 1.1 17.4 3.3 8.2 3.2 12.3 12.4 9.2 20.7s-12.4 12.3-20.7 9.2c-2-.8-4-1.2-5.9-1.2-5.5 0-10.5 2.7-13 7.2-1.2 2-2.4 5.4-1.1 9.3 0 .1.1.2.1.3.5 1.6 1.3 3.1 2.6 4.5 5.9 6.6 5.3 16.7-1.3 22.6-3.1 2.7-6.9 4.1-10.6 4.1-4.4 0-8.8-1.8-12-5.4-4.5-5-7.6-10.6-9.4-16.7zm21.6 85.5c-7.4 2.9-13.4 8.5-16.5 15.4-2 4.5-2.7 9.4-2.1 14.2.6 4.6-.7 9.2-3.7 12.7s-7.4 5.5-12 5.6c-6.1.1-12.2 1.9-17.1 5.3-2.4 1.8-5.3 5.2-7.5 8.7-6.9 10.9-4.6 25.8 5.5 34.5 1.3 1.1 2.8 2.2 4.5 3.2 7.7 4.4 10.4 14.1 6 21.8-3 5.2-8.4 8.1-13.9 8.1-2.7 0-5.4-.7-7.9-2.1-3.5-2-6.7-4.3-9.6-6.7-22-19-27-51.6-11.6-75.9 1.1-1.7 2.6-3.9 4.5-6.4-5.6-5.3-13.3-8.3-21.6-8.3-8.8 0-16-7.2-16-16s7.2-16 16-16c18.6 0 36.1 8 47.8 21.5 1.6-.6 3.3-1.1 5-1.5.8-5.3 2.3-10.6 4.6-15.6 6.5-14.5 19-26.2 34.1-32.1 8-3.1 16.8-4.6 25.6-4.3 8.8.3 15.7 7.8 15.4 16.6s-7.8 15.7-16.6 15.4c-4.6-.4-9 .3-12.9 1.9zM313.5 99.3c-1.3 0-2.5.2-3.6.7-8.2 3.4-17.5-.5-20.9-8.7-3.4-8.2.5-17.5 8.7-20.9 4.9-2 10.3-3.1 15.7-3.1 15 0 28.9 7.9 36.2 20.6 5.5 9.5 6.7 20.5 3.6 31-1.6 5.4-4.5 10.6-8.4 14.9-3.2 3.5-7.5 5.3-11.9 5.3-3.8 0-7.6-1.3-10.7-4.1-6.6-5.9-7.2-16-1.3-22.6.7-.8 1.3-1.8 1.6-2.8.6-2 .4-4-.7-5.8-1.5-2.8-4.6-4.5-8.3-4.5zm39.4 193.8c-9.7 6-20.8 9-32.2 9-3.7 0-7.5-.3-11.2-1-8.7-1.6-14.5-9.9-12.9-18.6 1.6-8.7 9.9-14.5 18.6-12.9 7.4 1.3 14.9 0 21-3.8 3.5-2.2 6.4-5 8.4-8.3 3.4-5.5 9.8-8.4 16.2-7.3 7.2 1.2 14.5-.1 20.4-3.7 8.3-5.1 13-14.6 12.3-24.8-.6-8.8 6-16.5 14.8-17.1 8.8-.7 16.5 6 17.1 14.8 1.6 22.3-8.9 43.1-27.6 54.5h-.1c-9.7 5.8-20.8 8.8-32.2 8.8-3.6 4-7.8 7.5-12.6 10.4zm40.3 105.3c1.4 9.9-.5 19.7-5.6 28.4-8.3 14.2-23.9 23-40.7 23-7.6 0-15.2-1.9-22.1-5.4 0 0-.1 0-.1-.1-11.7-6.2-20.2-17-23.2-29.7-2-8.6 3.3-17.2 11.9-19.3 8.6-2 17.2 3.3 19.3 11.9.9 3.7 3.3 6.8 6.9 8.7 2.3 1.2 4.9 1.8 7.4 1.8 5.5 0 10.5-2.7 13.1-7.2 1.4-2.4 1.9-5 1.5-7.6-1.3-8.7 4.8-16.9 13.6-18.1 8.7-1.2 16.8 4.9 18 13.6z" style="fill:#fff"/></svg>