<svg version="1.1" xmlns="http://www.w3.org/2000/svg" x="0" y="0" viewBox="0 0 512 512" xml:space="preserve"><g fill="#fff"><path d="M462.5 139.1c0 27.1-22.1 49.1-49.2 49.1v12.9c0 7.1-5.8 12.9-12.9 12.9h-14.8l-12.8 77.4c3-2.4 6-3.7 9-3.7.8 0 1.5.1 2.3.3 10.5 2.4 14.9 22.1 9.8 43.9-4.7 20.2-16 35.2-26.1 35.2-.8 0-1.5-.1-2.3-.3-.7-.2-1.3-.4-1.9-.7l-.9 8.8.2-.1L351 450c-3.4 21.8-16.6 40.9-35.8 51.9-11.5 6.6-24.7 10.1-38 10.1h-42.4c-13.3 0-26.5-3.5-38-10.1-19.2-11-32.4-30.1-35.8-51.9l-11.8-75.2h.1l-.9-8.7c-.7.3-1.3.5-1.9.7-.7.2-1.5.2-2.2.2-10 0-21.4-14.9-26.2-35.2-5.1-21.8-.7-41.4 9.8-43.9.8-.2 1.5-.3 2.3-.3 3 0 6 1.3 9 3.7l-12.8-77.4h-14.8c-7.1 0-12.9-5.8-12.9-12.9v-12.9c-27.2 0-49.1-22-49.1-49.1h-.1v-17c0-2.3 1.9-4.3 4.3-4.3h.1c.7 0 1.4.1 2.1.2 2.6.3 5.1.5 7.7.5 7.1 0 13.9-1.1 20.5-3.5 13.4-4.7 24.5-14.7 31.2-28.2 12.8-25.7 32.5-47.3 56.8-62.6C197.5 8.3 226.3 0 256 0s58.7 8.3 83.7 24.1c24.4 15.3 44 36.9 56.8 62.6 6.8 13.5 17.8 23.6 31.2 28.2 6.5 2.3 13.4 3.5 20.5 3.5 2.6 0 5.1-.2 7.7-.5.6-.1 1.4-.2 2.1-.2 2.4 0 4.3 2 4.2 4.3v14.3c.3 1 .3 1.9.3 2.8z" opacity=".15"/><path d="M260.7 78.1c-.4-2.8 1.7-5.5 4.5-5.9l5.3-.7c2.6-.3 4.8 1.5 5.1 4.1l.2 3.6c.3 3.5-3.1 6.2-6.4 5.1l-4.3-1.4c-2.1-.7-3.7-2.4-4.3-4.5-.1-.1-.1-.2-.1-.3zm-18.1 6.2l4.3-1.4c2.2-.7 3.8-2.4 4.3-4.5 0-.1 0-.2.1-.2.3-2.8-1.7-5.5-4.6-5.8l-5.3-.7c-2.6-.3-4.8 1.5-5.1 4.1l-.2 3.6c-.2 3.4 3.1 6 6.5 4.9zm84.6 187.9c0 11.1-9 20-20 20-11.1 0-20-9-20-20 0-11.1 9-20 20-20 11-.1 20 8.9 20 20zm-8.9-10.2c-3.1 0-5.7 2.9-5.7 6.4s2.5 6.4 5.7 6.4c3.1 0 5.7-2.9 5.7-6.4-.1-3.5-2.6-6.4-5.7-6.4zM256 95.5c2.2 0 3.9-1.4 3.9-3.1s-3.3-7.8-3.9-7.8c-.6 0-3.9 6.1-3.9 7.8s1.8 3.1 3.9 3.1zm206.5 43.6c0 27.1-22.1 49.1-49.2 49.1v12.9c0 7.1-5.8 12.9-12.9 12.9h-14.8l-12.8 77.4c3-2.4 6-3.7 9-3.7.8 0 1.5.1 2.3.3 10.5 2.4 14.9 22.1 9.8 43.9-4.7 20.2-16 35.2-26.1 35.2-.8 0-1.5-.1-2.3-.3-.7-.2-1.3-.4-1.9-.7l-.9 8.8.2-.1L351 450c-3.4 21.8-16.6 40.9-35.8 51.9-11.5 6.6-24.7 10.1-38 10.1h-42.4c-13.3 0-26.5-3.5-38-10.1-19.2-11-32.4-30.1-35.8-51.9l-11.8-75.2h.1l-.9-8.7c-.7.3-1.3.5-1.9.7-.7.2-1.5.2-2.2.2-10 0-21.4-14.9-26.2-35.2-5.1-21.8-.7-41.4 9.8-43.9.8-.2 1.5-.3 2.3-.3 3 0 6 1.3 9 3.7l-12.8-77.4h-14.8c-7.1 0-12.9-5.8-12.9-12.9v-12.9c-27.2 0-49.1-22-49.1-49.1h-.1v-17c0-2.3 1.9-4.3 4.3-4.3h.1c.7 0 1.4.1 2.1.2 2.6.3 5.1.5 7.7.5 7.1 0 13.9-1.1 20.5-3.5 13.4-4.7 24.5-14.7 31.2-28.2 12.8-25.7 32.5-47.3 56.8-62.6C197.5 8.3 226.3 0 256 0s58.7 8.3 83.7 24.1c24.4 15.3 44 36.9 56.8 62.6 6.8 13.5 17.8 23.6 31.2 28.2 6.5 2.3 13.4 3.5 20.5 3.5 2.6 0 5.1-.2 7.7-.5.6-.1 1.4-.2 2.1-.2 2.4 0 4.3 2 4.2 4.3v14.3c.3 1 .3 1.9.3 2.8zM228.9 243.7l44.5-29.8H147.8l-2.2 45.9 3.3 32 .5 5 14.2-9.5c-1.9-4.7-3-9.8-3-15.2 0-22.1 17.9-40.1 40.2-40.1 10.9.1 20.9 4.5 28.1 11.7zm-19.6-92c-.8 1.9-.6 4 .6 5.8 1.6 2.3 4.7 3.1 7.2 2 1.8-.7 2.9-2.3 3.4-3.9 1-3.6 3.3-6.8 6.6-8.7l1.8-1 25.2-14.5-9.7-5.6-20.4 11.8-1.8 1c-3.3 1.9-7.2 2.3-10.8 1.4-1.7-.4-3.5-.2-5.1 1-2.3 1.7-3.1 4.7-1.9 7.2 1 2 2.9 3.2 4.9 3.5zm75.7-49.3l-1.8 1-25.2 14.5 9.7 5.6 20.3-11.7 1.8-1c3.2-1.9 7.1-2.3 10.8-1.4 1.7.5 3.5.2 5.1-1 2.3-1.6 3.1-4.7 1.9-7.2-1-2-2.8-3.2-4.7-3.5.8-1.9.6-4-.6-5.8-1.6-2.3-4.7-3.1-7.2-2-1.8.7-2.9 2.2-3.4 3.9-1.1 3.5-3.4 6.8-6.7 8.6zM225.4 59l2 20c.5 4.8 4 8.8 8.8 9.7l1.3.2c1.5.3 2.5 1.7 2.3 3.1l-.8 6c-.6 4.5 2.6 8.6 7.1 9.1l3.9.4c4 .5 8.1.5 12.1 0l3.9-.4c4.5-.5 7.7-4.6 7.1-9.1l-.8-6c-.2-1.4.8-2.8 2.3-3.1l1.3-.2c4.7-1 8.3-4.9 8.8-9.7l2-20c0-4.4-1-8.7-2.9-12.5-4.9-10-15.4-16.8-27.8-16.8-16.8 0-30.6 13.1-30.6 29.3zm-19.2 49.4c1.5 1.1 3.4 1.4 5.1 1 3.7-.9 7.6-.5 10.8 1.4l1.8 1 59.2 34.1 1.8 1c3.2 1.9 5.6 5.1 6.6 8.7.5 1.7 1.6 3.1 3.4 3.9 2.6 1.1 5.6.2 7.2-2 1.3-1.8 1.4-3.9.6-5.8 2-.2 3.8-1.4 4.7-3.5 1.2-2.5.5-5.6-1.8-7.2-1.5-1.1-3.4-1.4-5.1-1-3.7.9-7.6.5-10.9-1.4l-1.8-1-59.2-34.1-1.8-1c-3.2-1.9-5.6-5.1-6.6-8.7-.5-1.7-1.6-3.1-3.4-3.9-2.6-1.1-5.6-.2-7.2 2-1.3 1.8-1.4 3.9-.6 5.8-2 .2-3.8 1.4-4.7 3.5-1.1 2.5-.3 5.6 1.9 7.2zM287 404c0-7.3-6-13.3-13.3-13.3h-35.1c-7.3 0-13.3 6-13.3 13.3s6 13.3 13.3 13.3h35.1c7.3 0 13.3-6 13.3-13.3zm89.6-105.5l-15.5 14.3 2.1-21 3.3-32-2.2-45.9h-61.8l-64.5 43c1.9 4.7 3 9.8 3 15.2 0 22.1-17.9 40.1-40.2 40.1-11 0-21-4.4-28.3-11.6l-28.5 19-1.1-6.4.4-7.5-.4 7.5-1.5-9.3-6-5.5c-2.9-2.7-4.7-2.9-5.1-2.9h-.4c-1.5.4-3.6 3.2-4.8 8.7-1.6 7-1.2 16.4.9 25.6 4.5 19.3 14.2 29 18.3 29h.4c.1 0 .2-.1.2-.1l10.3-5.1 1.2 11.5.6 6c.7.7 1.5 1.6 2.2 2.3 5.1 5.3 6.2 6.4 6.4 8.7 12.4 5.7 26.5 6.3 39.4 2l11.3-3.8c11.1-3.8 22.7-5.7 34.4-5.7H261c11.7 0 23.4 1.9 34.4 5.7l11.3 3.8c12.9 4.4 27 3.7 39.4-1.9.2-2.4 1.2-3.4 6.4-8.8.7-.7 1.5-1.5 2.2-2.3l.6-6 1.1-10.8 10 4.3c.4.2.6.2.7.2h.4c4 0 13.8-10 18.2-29 3.5-14.9 1.8-26.8-1.5-32-.8-1.3-1.6-2.1-2.4-2.2h-.4c-.2 0-1.9.2-4.8 2.9z"/></g></svg>