<svg xmlns="http://www.w3.org/2000/svg" viewBox="0 0 512 512" style="enable-background:new 0 0 512 512" xml:space="preserve"><path d="M216.2 512c-1.8 0-3.6-.1-5.4-.3-25.2-2.3-45.6-22.4-48.5-47.7-1.9-16.3 3.5-32.4 14.9-44.2 22-22.8 34.1-51.8 34.1-81.8V173.9c0-29.9-12.1-59-34.2-81.8C166 80.5 160.6 64.4 162.4 48c2.9-25.3 23.3-45.4 48.5-47.7C228-1.4 244.5 5 256 17.7 267.4 5.1 284-1.4 301.2.3c25.2 2.3 45.6 22.4 48.5 47.7 1.9 16.3-3.5 32.4-14.9 44.2-22 22.8-34.1 51.8-34.1 81.8v164c0 30 12.1 59.1 34.2 81.9 11.3 11.7 16.7 27.8 14.9 44.2-2.9 25.3-23.3 45.4-48.5 47.7-17.1 1.7-33.6-4.8-45.1-17.4-10.4 11.2-24.8 17.6-40 17.6zm-.1-504c-1.5 0-3 .1-4.5.2-21.5 2-38.8 19.1-41.3 40.7-1.5 14 3.1 27.8 12.7 37.7 23.5 24.3 36.4 55.3 36.4 87.3v164.2c0 32-12.9 63-36.4 87.3-9.7 10-14.3 23.8-12.7 37.7 2.4 21.6 19.8 38.7 41.3 40.7 16.1 1.6 31.5-5.2 41.2-18.1l3.2-4.2 3.2 4.2c9.8 12.9 25.2 19.7 41.2 18.1 21.5-2 38.8-19.1 41.3-40.7 1.5-14-3.1-27.8-12.7-37.7-23.5-24.3-36.4-55.4-36.4-87.4V173.9c0-32 12.9-63 36.4-87.3 9.7-10 14.3-23.8 12.7-37.7-2.4-21.6-19.8-38.7-41.3-40.7-16.1-1.6-31.5 5.2-41.2 18.1l-3.2 4.2-3.2-4.2C243.9 14.7 230.5 8 216.1 8z" style="fill:#fff"/></svg>