<svg version="1.1" xmlns="http://www.w3.org/2000/svg" x="0" y="0" viewBox="0 0 512 512" xml:space="preserve"><path d="M244.1 47.2V465c0 7.7-1.9 15.5-5.9 22.7-12.5 22.8-41.2 31.1-63.9 18.5-3.8-2.1-7.1-4.6-10.1-7.5-13.2 6.3-29.2 6.4-43-1.3-7.9-4.4-14-10.7-18.2-18-11.6 3.3-24.4 2.3-35.7-4-17.7-9.8-26.6-29.3-23.8-48.3-3.1-.9-6.2-2.2-9.1-3.9-22.7-12.6-31-41.2-18.5-64 1.3-2.3 2.7-4.5 4.3-6.5-19.5-13.6-26-40.1-14.3-61.4 2.6-4.8 6-8.9 9.8-12.3-11.4-14.4-13.8-34.9-4.3-52 4.4-8.1 10.9-14.3 18.4-18.4-9-14.1-10.2-32.5-1.6-48.2 6-10.8 15.6-18.4 26.5-22-3.6-11.7-2.6-24.8 3.8-36.4 8-14.6 22.6-23.2 38.1-24.2 0-7.7 1.8-15.6 5.8-22.9 10.1-18.4 30.8-27.4 50.3-23.5.8-2.4 1.9-4.7 3.1-7C168.3 1.6 197-6.7 219.7 5.9c15.6 8.5 24.4 24.7 24.4 41.3zm247.7 305.6c19.5-13.6 26-40.1 14.3-61.4-2.6-4.8-6-8.9-9.8-12.3 11.4-14.4 13.8-34.9 4.3-52-4.4-8.1-10.9-14.3-18.4-18.4 9-14.1 10.2-32.5 1.6-48.2-6-10.8-15.6-18.4-26.5-22 3.6-11.7 2.6-24.8-3.8-36.4-8-14.6-22.6-23.2-38.1-24.2 0-7.7-1.8-15.6-5.8-22.9-10.1-18.4-30.8-27.4-50.3-23.5-.8-2.4-1.9-4.7-3.1-7-12.4-23-41.1-31.3-63.9-18.7-15.5 8.6-24.3 24.8-24.3 41.4V465c0 7.7 1.9 15.5 5.9 22.7 12.5 22.8 41.2 31.1 63.9 18.5 3.8-2.1 7.1-4.6 10.1-7.5 13.2 6.3 29.2 6.4 43-1.3 7.9-4.4 14-10.7 18.2-18 11.6 3.3 24.4 2.3 35.7-4 17.7-9.8 26.6-29.3 23.8-48.3 3.1-.9 6.2-2.2 9.1-3.9 22.7-12.6 31-41.2 18.5-64-1.3-2.3-2.8-4.4-4.4-6.4z" opacity=".1" fill="#fff"/><path d="M219.7 5.9C197-6.7 168.3 1.6 155.8 24.4c-1.3 2.3-2.3 4.6-3.1 7-19.6-3.9-40.2 5-50.3 23.5-4 7.3-5.9 15.1-5.8 22.9-15.4 1-30 9.7-38.1 24.2-6.4 11.6-7.4 24.7-3.8 36.4-10.9 3.6-20.5 11.1-26.5 22-8.6 15.7-7.4 34.1 1.6 48.2-7.5 4.1-13.9 10.4-18.4 18.4-9.4 17.1-7.1 37.6 4.3 52-3.8 3.4-7.2 7.6-9.8 12.3-11.7 21.3-5.2 47.8 14.3 61.4-1.6 2-3 4.2-4.3 6.5-12.5 22.8-4.3 51.4 18.5 64 3 1.6 6 2.9 9.1 3.9-2.8 18.9 6.1 38.5 23.8 48.3 11.4 6.3 24.2 7.3 35.7 4 4.1 7.3 10.3 13.6 18.2 18 13.8 7.6 29.7 7.6 43 1.3 3 2.9 6.3 5.4 10.1 7.5 22.7 12.6 51.4 4.3 63.9-18.5 4-7.2 5.9-15 5.9-22.7v-19c-2.5.9-5.1 1.5-7.7 2-10.4 1.7-21.4-.3-30.6-5.5-4.5-2.5-8.5-5.8-11.9-9.6-1.7-1.9-3.3-4-4.6-6.1-.3-.4-1.6-2-1.4-2.4 0-.1.5-.3.6-.4 4.3-2.8 8.5-5.7 12.8-8.5 7 14 23.9 20.7 38.6 15.2 1.5-.6 3-1.3 4.4-2.1V295.7c-8.8.4-17.6-1.7-25.3-6-6.1-3.4-11.5-8.3-15.7-14.4l14.4-7.4c2.5 3.2 5.6 5.9 9.1 7.8 5.4 3 11.5 4.3 17.4 3.9V47.2c-.2-16.6-9-32.7-24.5-41.3zM71.9 136.1c6.9.4 13.8 2.2 20.2 5.8 11.8 6.5 19.7 17.4 22.9 29.5l-15.4 4.5c-.1-.5-.2-.9-.4-1.4-2.3-8-7.6-14.6-14.9-18.6-4.6-2.5-9.8-3.9-15-3.9H69l2.9-15.9zm59.5 320.8c-3 5.4-6.9 10-11.5 13.7l-13.8-9.8c4.7-2.8 8.6-6.8 11.3-11.7 8.3-15 2.8-34-12.2-42.3 0 0-.1 0-.1-.1l6.5-14.6c.4.2.9.4 1.3.7 22.7 12.6 31 41.3 18.5 64.1zM199 211.1c-.3.6-.5 1-1.2 1-.6 0-1.4-.5-1.9-.8-1.7-.8-3.5-1.4-5.4-1.8-7.8-1.6-16-.1-22.8 4.2-5.3 3.4-9.5 8.3-12.1 14-1.3 2.9-2.1 6-2.4 9.2-.4 3.9.7 7.9 0 11.8-.6 3.7-2.6 7.1-5.4 9.6-3.1 2.6-6.7 3.6-10.6 3.8-4.2.3-8.2 1-12.1 2.7-3.2 1.5-6.2 3.5-8.7 5.9-9.6 9.4-12.4 24.4-6.2 36.5 6 11.7 19.3 18.7 32.3 16.7-.6 3.8-1.1 7.5-1.7 11.3-.2 1.3-.2 2.7-.5 4-.2 1.2-.7 1.2-1.8 1.1-6.5-.2-12.9-1.2-18.9-3.7-20.4-8.5-32.3-31-27.9-52.6 1.2-5.8 3.4-11.2 6.5-16-.6-3-1.7-6-3.2-8.8-5.5-9.9-15.9-16.1-27.3-16.1-4 0-8.1.8-11.8 2.4l-9-13.5c6.7-3.3 13.8-4.9 20.8-4.9 16.6 0 32.7 8.8 41.3 24.4.6 1.1 1.2 2.3 1.7 3.5 7.6-5.5 16.9-8.7 26.7-8.8-1.1-8.3.1-16.8 3.4-24.5 4.9-11.4 14.2-20.6 25.7-25.3 12.9-5.3 27.9-4.4 40.2 2.3-2.5 4-5.4 8.1-7.7 12.4zM205 91c-3.7-1.5-7.8-2.4-11.8-2.4-11.4 0-21.8 6.2-27.3 16.1-4 7.3-5 15.7-2.6 23.7 1.2 4.3 3.3 8.1 6.1 11.4l-10.7 12c-13.5-14.5-16.9-36.6-6.8-54.9 8.6-15.6 24.7-24.4 41.3-24.4 7 0 14.1 1.6 20.8 4.9L205 91zm286.8 261.8c19.5-13.6 26-40.1 14.3-61.4-2.6-4.8-6-8.9-9.8-12.3 11.4-14.4 13.8-34.9 4.3-52-4.4-8.1-10.9-14.3-18.4-18.4 9-14.1 10.2-32.5 1.6-48.2-6-10.8-15.6-18.4-26.5-22 3.6-11.7 2.6-24.8-3.8-36.4-8-14.6-22.6-23.2-38.1-24.2 0-7.7-1.8-15.6-5.8-22.9-10.1-18.4-30.8-27.4-50.3-23.5-.8-2.4-1.9-4.7-3.1-7-12.5-22.9-41.1-31.2-63.9-18.6-15.5 8.6-24.3 24.7-24.3 41.3v85.9l2.1-.9c6-3.1 10.8-7.9 13.7-13.9l16.1 3c-4 10.5-11.8 19.6-22.6 25.1-3 1.6-6.2 2.7-9.4 3.6v215.6c5 .1 10.1-1 14.7-3.4 6-3.1 10.8-7.9 13.7-13.9l16.1 3c-4 10.5-11.8 19.6-22.6 25.1-7.1 3.6-14.6 5.2-22 5.1v83.4c0 7.7 1.9 15.5 5.9 22.7 12.5 22.8 41.2 31.1 63.9 18.5 3.8-2.1 7.1-4.6 10.1-7.5 13.2 6.3 29.2 6.4 43-1.3 7.9-4.4 14-10.7 18.2-18 11.6 3.3 24.4 2.3 35.7-4 17.7-9.8 26.6-29.3 23.8-48.3 3.1-.9 6.2-2.2 9.1-3.9 22.7-12.6 31-41.2 18.5-64-1.1-2.2-2.6-4.3-4.2-6.3zM371.7 147.2c4.3-2.8 8.5-5.7 12.8-8.5 7 14 23.9 20.7 38.6 15.2 6.4-2.4 11.9-6.8 15.5-12.5l10.6 12.5c-7.2 9-17.5 15.4-29.4 17.4-10.4 1.7-21.4-.3-30.6-5.5-4.5-2.5-8.5-5.8-11.9-9.6-1.7-1.9-3.3-4-4.6-6.1-.3-.4-1.6-2-1.4-2.4-.1-.2.3-.4.4-.5zM298 77.5c6.7-3.3 13.8-4.9 20.8-4.9 16.6 0 32.7 8.8 41.3 24.4 10.1 18.3 6.7 40.4-6.8 54.9l-10.7-12c2.8-3.3 4.9-7.2 6.1-11.4 2.3-8 1.4-16.4-2.6-23.7-5.5-9.9-15.9-16.1-27.3-16.1-4 0-8.1.8-11.8 2.4l-9-13.6zm102.1 348.3c-8.6 15.6-24.7 24.4-41.3 24.4-7.7 0-15.5-1.9-22.7-5.9-13.1-7.2-21.4-19.8-23.7-33.5l16.1-1.1c1.9 8.4 7.2 16 15.3 20.5 4.6 2.5 9.8 3.9 15 3.9 11.4 0 21.8-6.2 27.3-16.1 3.3-5.9 4.5-12.6 3.6-19.2l15-6.5c2.6 11 1.3 22.9-4.6 33.5zm8-171.3c-2.1-2-4.5-3.6-7-4.8a47.15 47.15 0 0 1-25.2 21.3c-.4 6.7-2.3 13.3-5.7 19.5-8.6 15.6-24.7 24.4-41.3 24.4-7.7 0-15.5-1.9-22.7-5.9-5.2-2.9-9.6-6.6-13.3-10.9l11.7-11c2.5 3.1 5.6 5.8 9.3 7.8 4.7 2.6 9.7 3.9 15 3.9 11.4 0 21.8-6.2 27.3-16.1 2.2-4 3.5-8.3 3.8-12.9.4-6.4 4.6-11.8 10.6-14 7.1-2.6 13.1-7.6 16.8-14.3 7.3-13.2 3.9-29.5-7.3-38.9l9.8-12.7c13.2 10.8 19.5 27.8 16.7 44.3 4.6 2.1 8.8 4.9 12.5 8.3 5.6 5.2 10.1 11.9 12.7 19.7 4.7 14.2 2.3 29-5.4 40.7l-12.7-9.9c4.3-7.4 5.6-16.7 2.7-25.5-1.6-5-4.5-9.5-8.3-13zm62.7 100.8c-9.2-5.5-20.9-5.9-30.5-.8-6.3 3.3-11.2 8.8-14 15.3-2.8-1.3-5.7-2.7-8.5-4-1.7-.8-3.3-1.6-5-2.3-.2-.1-.9-.3-1-.5-.3-.5 1.5-3.2 1.8-3.8 6.9-12.6 19.6-21.4 33.7-23.7 11.1-1.8 22.6.6 32.1 6.4l-8.6 13.4z" fill="#fff"/></svg>