<svg xmlns="http://www.w3.org/2000/svg" viewBox="0 0 512 512" xml:space="preserve"><path d="M424.5 267.9c-1-.2-1.9-.3-2.9-.3-3.9 0-8 1.7-11.9 4.8l9.3-55.9 13.9-83.6C432.2 59.4 353.3 0 256 0S79.8 59.4 79.2 132.9L93 216l.1.6 9.3 55.8c-3.9-3.1-8-4.8-11.9-4.8-1 0-2 .1-2.9.3-13.9 3.3-19.7 29.2-13 57.9 6.3 26.7 21.2 46.4 34.4 46.4 1 0 2-.1 2.9-.3.8-.2 1.6-.5 2.4-.9l1.2 11.6c4.1 40.6 27.1 77.3 62.6 100.2l27 17.4c11.9 7.7 26 11.8 40.4 11.8h21c14.4 0 28.5-4.1 40.4-11.8l27-17.4c35.5-22.9 58.5-59.6 62.6-100.2l1.2-11.6c.8.4 1.6.7 2.4.9 1 .2 2 .3 2.9.3 13.3 0 28.2-19.7 34.4-46.4 6.9-28.8 1-54.7-12.9-57.9z" opacity=".1" fill="#fff"/><path d="M188.7 249.4c-12.9 0-26.4 11.8-26.4 26.4s13.5 26.4 26.4 26.4 26.4-11.8 26.4-26.4-13.5-26.4-26.4-26.4zm22.2 21.5c0 4.7-3.4 8.5-7.5 8.5s-7.5-3.8-7.5-8.5 3.4-8.5 7.5-8.5 7.5 3.8 7.5 8.5zm213.6-3c-1-.2-1.9-.3-2.9-.3-3.9 0-8 1.7-11.9 4.8l9.3-55.9 13.9-83.6C432.2 59.4 353.3 0 256 0S79.8 59.4 79.2 132.9L93 216l.1.6 9.3 55.8c-3.9-3.1-8-4.8-11.9-4.8-1 0-2 .1-2.9.3-13.9 3.3-19.7 29.2-13 57.9 6.3 26.7 21.2 46.4 34.4 46.4 1 0 2-.1 2.9-.3.8-.2 1.6-.5 2.4-.9l1.2 11.6c4.1 40.6 27.1 77.3 62.6 100.2l27 17.4c11.9 7.7 26 11.8 40.4 11.8h21c14.4 0 28.5-4.1 40.4-11.8l27-17.4c35.5-22.9 58.5-59.6 62.6-100.2l1.2-11.6c.8.4 1.6.7 2.4.9 1 .2 2 .3 2.9.3 13.3 0 28.2-19.7 34.4-46.4 6.9-28.8 1-54.7-12.9-57.9zm-209-152.6h28.4V87h24.3v28.4h28.4v24.3h-28.4V168h-24.3v-28.4h-28.4v-24.3zm214.3 208.6c-2.8 11.8-7.5 22.6-13.2 30.3-4.7 6.3-9.7 10-13.4 10-.4 0-.8 0-1.1-.1-.3-.1-.7-.2-1-.4l-9.7-4.7-.1.6C353.9 330.4 307 313 256 313s-97.9 17.4-135.2 46.6l-.1-.6-9.7 4.7c-.4.2-.7.3-1 .4-.4.1-.7.1-1.1.1-3.7 0-8.8-3.7-13.4-10-5.8-7.7-10.4-18.5-13.2-30.3-6.3-27 0-46.6 7.1-48.3.4-.1.7-.1 1.1-.1 2.4 0 5.4 1.6 8.5 4.5l15.5 14.3-2.1-21-2.5-25 1.4-28.6C156.9 227 205.6 231 256 231s99.1-4 144.8-11.3l1.4 28.6-2.5 25-2.1 21 15.5-14.3c3.1-2.9 6.1-4.5 8.5-4.5.4 0 .8 0 1.1.1 7.1 1.7 13.4 21.4 7.1 48.3zm-106.5-74.5c-12.9 0-26.4 11.8-26.4 26.4s13.5 26.4 26.4 26.4 26.4-11.8 26.4-26.4-13.5-26.4-26.4-26.4zm22.1 21.5c0 4.7-3.4 8.5-7.5 8.5s-7.5-3.8-7.5-8.5 3.4-8.5 7.5-8.5 7.5 3.8 7.5 8.5z" fill="#fff"/></svg>