<svg version="1.1" xmlns="http://www.w3.org/2000/svg" x="0" y="0" viewBox="0 0 512 512" xml:space="preserve"><path d="M159.8 512c0-23.9.3-47.7-.2-71.6-.1-7.1-1.4-14.4-3.5-21.2-6.4-20.4-14.3-40.3-19.9-60.9-4.3-15.8-7.6-32.3-8.6-48.6-2.6-43.5-13.4-85.2-25-126.8-2.4-8.5-4.2-17.3-7.8-25.4-7.3-16.3-7.4-33.8-9.8-50.9-.9-6.1 1-12.2 7.5-15.2 5.1-2.4 13.5.2 17.9 6.2 3.2 4.5 6.2 9.5 7.7 14.8 4.1 13.9 7.5 28.1 10.9 42.2 2.2 9.1 6.1 17 11.1 25.1 4.4 7.1 6.1 15.4 8.3 23.4 2.4 8.6 5.5 24.1 8 25.6s6.5-5.8 7.4-10c1.1-5-.2-9.8-.8-14.8-.8-5.6-1.5-11.1-2.3-16.7-1.5-11.1-3-22.2-4.6-33.4-3-22.2-6.1-44.5-9.1-66.7-1.8-13.3-3.6-26.7-5.4-40-.4-3.1-1-6.5-.2-9.5 2.1-8.8 10.4-16 17.4-15.9s14.3 7.3 16 17c3.1 18.3 5.3 36.8 8.6 55 2.8 15 6.9 29.8 10.1 44.7 4.4 20 8.4 40.1 12.4 60.2.1.7.4 1.6 1 2 .7.4 1.6.1 2.2-.6.5-.6.7-1.4.9-2.2 1.4-8.2-.5-17.3-1.3-25.5-.9-9.1-1.7-18.2-2.2-27.4-.5-10.4.5-20.8 1-31.3.2-4 .9-8 .9-12 .1-25.5 0-50.9 0-76.4 0-2.8-.2-5.7.1-8.5C209.3 7 215.8.1 223.9 0c11.8-.1 20.2 6.4 20.9 17.2 1.8 31.4 3.4 62.9 4.8 94.4 1.1 25 1.6 50.1 2.4 75.1.2 5.8-.1 11.9 8.1 12.2 5.8.2 13.6-6.5 14.1-12.3 1.7-17.7 2.9-35.4 4.6-53.1 2.9-31 5.8-61.9 9.2-92.8 1.4-12.4 12.4-19.8 22.8-16.7 8.3 2.4 11.3 9.6 11.4 16.6.3 36-.4 71.9-.4 107.9 0 31.9-.7 63.8 1 95.6.7 13 8.5 36.2 11.4 37.6 2.8 1.5 8.2-2.8 12.2-4.9.6-.2 1.2-.5 1.7-1 .4-.4.6-.8.8-1.3 3.1-6.6 6-13.3 9.5-19.6 5.7-10.5 12.8-19.7 13.4-33 .3-8 6.3-16.6 11.8-23.3 8.5-10.5 18-20.7 32.2-24 7.8-1.8 14.2 3.7 10.4 10.3-11.2 19.3-12.2 40.7-14.9 61.8-.5 3.9-2.2 7.9-4.3 11.2-13 20.4-18.8 43.6-26.5 66.1-2.1 6-4.8 12-8.4 17.2-16.7 23.8-33.5 47.5-50.8 70.8-9.5 12.8-14.3 26.7-15.9 42.4-1.9 19.3-4.8 38.5-7.3 57.7-46.1-.1-92.2-.1-138.3-.1z" fill="#fff"/></svg>