<svg xmlns="http://www.w3.org/2000/svg" viewBox="0 0 512 512" xml:space="preserve"><path d="M355.1 282.6 349 274l-23.6-42.7-5.4-7.3-6-23-27.5-17.4-6.5-7.6-2-8-44-9-10.2-8.2c-6.5-7.4-6.2-26.3-6.7-35.8-.8-13.5-.7-27-.2-40.5.4-11.2 3.2-22.3 3.9-33.6.7-10.6 5-21.8-1-31.8-2.4-4-8-7.4-12.8-8.6-13-3.3-21.2 7.8-23.4 19.4-2.7 14.1-4.5 28.4-6.9 42.6-1.9 11-4.4 21.9-6.4 32.9-4.9 26.9-5.6 55.9-7.9 83.3-2.4 29.2-4.2 58.5-5.5 87.8-1.2 27-1.9 54-2.1 81-.2 24.2 3.2 47.9 2.7 72-.2 12-1.7 23.9-2.1 35.9-.6 18.9.6 37.4-.2 56.3H308c0-13.1-.8-26.3.2-39.3 2.2-27.9 14.4-52.5 26.7-77.2 7.3-14.7 11.3-30.6 14.1-46.6 1.5-8.3 2.4-16.7 3.9-24.9 1.5-8.4 5-16.3 4.2-25-.5-5.4-1.5-10.7-2-16.1z" opacity=".1" fill="#fff"/><path d="M246 275.7c1.8.5 3.6.8 5.5.8-.1.6-.3 1.2-.4 1.8-.5 2-.9 4-1.4 6-1-2.5-2.1-5.1-3.2-7.7-.2-.3-.3-.6-.5-.9zm14.2 41.4c6.3.8 13.1-.1 19.5-1.1 3-.5 6.3-2.4 6.9-3.6 2.4-5 4.1-10.3 5.8-16 .9-2.7 1.7-5.5 2.7-8.3l.8-2.4c2.4-7 4.9-14.2 7.8-21.2 1.3-3.1 2.8-6.2 4.3-9.2 2.3-4.6 4.4-8.8 5.7-13.3.4-1.2.7-2.4 1-3.6 1.3-4.7 2.7-9.6 5.1-14.1.1-.9.4-1.5.6-1.8 5.2-10.1 14.9-35-6-47.5-4.3-2.6-7.9-3.8-11.5-3.8h-.8c-2.9.1-6.1.9-9.8 2.4-.4.2-1.2.5-1.5.8-.2.2-.6.9-.8 1.3-1.2 2.5-2.4 5-3.5 7.5 0 .1 0 .2-.1.4 9 13.6 8.7 25.6-.9 36.6-1.1 1.2-2.2 2.5-3.3 3.7-.9 9.7-1.9 19.6-3.4 29.3-.8 5.3-5.1 9.8-8.6 13.4l-.6.6c-3.1 3.3-6.4 5.7-9.6 7.3-.1.7-.3 1.3-.4 2-.3 1.2-.5 2.4-.8 3.6-.5 2.4-1.1 4.8-1.7 7.3-.9 3.6-1.7 7.2-2.5 10.8 1.9 5.8 3.6 11.5 5 17.2.3.5.4 1.1.6 1.7zm3.8-55.4.6-.6c2.7-2.8 6-6.3 6.4-9.1.9-6.1 1.7-12.2 2.3-18.4-9.7 10-20.2 18.8-33.2 24.7-.1.6-.2 1.3-.5 1.9-.3.6-.5 1.2-.6 1.7l.1.1c4.4 4.3 8.6 6.5 12.5 6.5 4-.1 8.1-2.4 12.4-6.8zm-104.6 15c1.2-3 2.2-5.6 2.9-7.6 1.7-4.6 3.2-9.5 4.6-14.3 2.4-8.1 5-16.5 8.9-24.3 1.6-3 2.7-6.4 3.8-10 2.6-8 5.6-17.1 14.5-22.7 3.5-2.2 7.2-3.7 10.8-5.1 2.3-.9 4.4-1.8 6.5-2.8 2.5-1.2 5.1-2.6 7.6-3.9-.4-3.2-.6-6.5-.6-9.8 0-5.8 1.9-18.5 3.7-27.6-4.9-8.4-4.7-24.9-5.2-33.6-.8-13.5-.7-27-.2-40.5.4-11.2 3.2-22.3 3.9-33.6.7-10.6 5-21.8-1-31.8-2.4-4-8-7.4-12.8-8.6-13-3.3-21.2 7.8-23.4 19.4-2.7 14.1-4.5 28.4-6.9 42.6-1.9 11-4.4 21.9-6.4 32.9-4.9 26.9-5.6 55.9-7.9 83.3-2.4 29.2-4.2 58.5-5.5 87.8-.3 6.2-.5 12.3-.7 18.5 1.3-2.8 2.4-5.7 3.4-8.3zm195.7 5.9c-.8 1.2-1.7 2.2-2.6 3.2-1.3 1.4-2.4 2.8-3 4.1-1.8 3.9-3.2 8.1-4.6 12.4l-2.1 6.3c-1.2 3.3-2.4 6.6-3.5 10-3.1 8.8-6.2 17.9-9.8 26.6-4 9.8-9.4 19.3-21.5 23-1.7.5-3.5.8-5.2.8-4.3 0-8.5-1.5-12.1-4.4-5.4-4.3-8.5-11.1-8-17.7.6-8.2 1.9-16.3 3.5-24.6-1.8.8-3.6 1.3-5.1 1.5-5 .8-10.3 1.5-15.6 1.5-1.1 0-2.2 0-3.3-.1 2.3 10.2 4.2 21.4 4.6 32.8.1 2.2-1.6 4.1-3.8 4.2h-.2c-2.1 0-3.9-1.7-4-3.8-.6-14.5-3.7-28.9-6.8-41.2-3-12.1-7.3-24.7-12.8-37.4-.4-1-1.1-2-1.8-3-2 9.4-5.7 23.4-12 34.2-2.9 4.9-7.6 10.4-14.1 16.5-.8.7-1.8 1.1-2.7 1.1-1.1 0-2.1-.4-2.9-1.3-1.5-1.6-1.4-4.1.2-5.7 5.9-5.6 10.2-10.5 12.7-14.7 8.6-14.6 12.1-36.7 12.7-40.9-.6-2.6-.4-5.6 1.1-9v-.4c0-1 .2-3.8 2.8-4.9 18-7.7 31.3-21.8 44.5-36.9 7.8-8.9 7.3-17.8-1.8-29.7-8.1-10.7-21.4-8-31.2-3.8-6.7 2.9-13.3 6.3-19.8 9.7-3.8 2-7.8 4.1-11.8 6-2.3 1.1-4.7 2.1-7 3-3.4 1.4-6.7 2.7-9.5 4.5-6.4 4-8.7 11-11.1 18.4-1.2 3.7-2.5 7.6-4.3 11.2-3.6 7.1-5.9 14.8-8.4 22.9-1.5 4.9-3 9.9-4.8 14.8-.8 2-1.8 4.7-3 7.7-3.2 8.2-7.7 20.1-11.5 31.2-.3 12.3-.5 24.6-.6 37-.2 24.2 3.2 47.9 2.7 72-.2 12-1.7 23.9-2.1 35.9-.6 18.9.6 37.4-.2 56.3h152.8c0-13.1-.8-26.3.2-39.3 2.2-27.9 14.4-52.5 26.7-77.2 7.3-14.7 11.3-30.6 14.1-46.6 1.5-8.3 2.4-16.7 3.9-24.9 1.5-8.4 5-16.3 4.2-25-.6-5.6-1.6-10.9-2.1-16.3zM243.4 174c14.7-6.3 27.6-5.5 36.4 1.9 5.8-28.7 6.5-34.3 6.5-35.3.3-10-4.5-17.8-14.1-23.3-7.8-4.5-22-2.4-29.1 4.3-5.6 5.3-8.6 13-11.2 19.9-1.1 3-5.6 26.5-5.5 34.8 0 1.9.1 3.9.3 5.8 5.5-2.8 11.1-5.6 16.7-8.1zm52.1 184.4c3 2.4 6.7 3.2 10 2.2 8.4-2.5 12.6-9.2 16.4-18.3 3.5-8.6 6.7-17.6 9.7-26.2 1.2-3.3 2.3-6.7 3.5-10 .7-2 1.4-4.1 2.1-6.1 1.4-4.4 2.9-8.9 5-13.3 1.1-2.4 2.8-4.3 4.3-6 1.4-1.6 2.7-3.2 3.2-4.6.4-1.3.8-2.7 1.1-4.2 0-.8.1-1.5.1-2.3.1-1.1.2-2.2.3-3.2.4-4.1.8-7.9.2-11.5-2.1-11.3-9.3-18.6-23.3-23.7-.9 0-1.8.1-2.6.2-1.2 2.9-2.1 6-3 9.3-.3 1.2-.7 2.5-1.1 3.7-1.5 5.2-3.9 10-6.2 14.7-1.5 3-2.9 5.8-4.1 8.6-2.8 6.8-5.3 13.9-7.7 20.7l-.8 2.4c-.9 2.6-1.8 5.4-2.6 8.1-1 3.2-2 6.4-3.2 9.6-.7 3.8-1.5 7.5-2.2 11.3-1.8 9.5-3.5 18.7-4.2 27.9-.2 3.8 1.7 7.9 5.1 10.7z" fill="#fff"/></svg>