<svg version="1.1" xmlns="http://www.w3.org/2000/svg" x="0" y="0" viewBox="0 0 512 512" xml:space="preserve"><path d="M369.5 285.7c12.9-7.4 21.9-19.8 25.9-34.1 1.8-6.5 6.4-12.2 13.3-15.2 10.1-4.4 22.1-1 28.4 7.9 5 7 5.6 15.6 2.5 22.8 7.7 1 14.9 5.8 18.5 13.6 4.7 10.1 1.6 22.1-7.2 28.6-6 4.5-13.3 5.6-19.8 3.9-14.4-3.6-29.6-2-42.5 5.4l-7 4-79.6 46-38.1-22 98.6-56.9 7-4zm-239 138.2l-7 4c-12.9 7.4-28.1 9-42.5 5.4-6.5-1.7-13.8-.6-19.8 3.9-8.9 6.6-12 18.6-7.4 28.6 3.6 7.8 10.8 12.6 18.5 13.6-3.1 7.2-2.5 15.8 2.5 22.8 6.3 8.9 18.3 12.3 28.4 7.9 6.9-3 11.5-8.7 13.3-15.2 4-14.3 13-26.7 25.9-34.1l7-4 98.6-56.9-37.9-22-79.6 46zm320.4 13.3c-6-4.4-13.3-5.6-19.8-3.9-14.4 3.6-29.6 2-42.6-5.4l-7-4-232.3-134.1-7-4c-12.8-7.5-21.9-19.8-25.9-34.1-1.8-6.5-6.4-12.2-13.3-15.2-10.1-4.4-22-1-28.4 7.9-4.9 7-5.5 15.6-2.5 22.8-7.8 1-14.9 5.8-18.5 13.6-4.5 10-1.4 22.1 7.4 28.6 6 4.4 13.3 5.6 19.8 3.9 14.4-3.6 29.6-2 42.5 5.4l7 4 232.4 134.1 7 4c12.8 7.5 21.9 19.8 25.9 34.1 1.8 6.5 6.4 12.2 13.3 15.2 10.1 4.4 22 1 28.4-7.9 4.9-7 5.5-15.6 2.5-22.8 7.8-1 14.9-5.8 18.5-13.6 4.5-10 1.4-22.1-7.4-28.6zM144 193.8l-8-78.7C136 51.5 189.7 0 256 0c48 0 89.3 27 108.6 66.1 7.4 14.8 11.5 31.5 11.5 49l-8 78.7c-2 18.9-15.9 34.3-34.4 38.2l-5.2 1.1c-5.7 1.2-9.5 6.6-8.7 12.3l3.2 23.8c2.4 17.6-10.2 33.8-27.9 35.8l-15.2 1.7c-15.9 1.8-31.9 1.8-47.8 0L217 305c-17.6-2-30.3-18.1-27.9-35.8l3.2-23.8c.8-5.8-3-11.1-8.7-12.3l-5.2-1.1c-18.6-3.9-32.5-19.3-34.4-38.2z" opacity=".1" fill="#fff"/><path d="M369.5 285.7c12.9-7.4 21.9-19.8 25.9-34.1 1.8-6.5 6.4-12.2 13.3-15.2 10.1-4.4 22.1-1 28.4 7.9 5 7 5.6 15.6 2.5 22.8 7.7 1 14.9 5.8 18.5 13.6 4.7 10.1 1.6 22.1-7.2 28.6-6 4.5-13.3 5.6-19.8 3.9-14.4-3.6-29.6-2-42.5 5.4l-7 4-79.6 46-38.1-22 98.6-56.9 7-4zm-239 138.2l-7 4c-12.9 7.4-28.1 9-42.5 5.4-6.5-1.7-13.8-.6-19.8 3.9-8.9 6.6-12 18.6-7.4 28.6 3.6 7.8 10.8 12.6 18.5 13.6-3.1 7.2-2.5 15.8 2.5 22.8 6.3 8.9 18.3 12.3 28.4 7.9 6.9-3 11.5-8.7 13.3-15.2 4-14.3 13-26.7 25.9-34.1l7-4 98.6-56.9-37.9-22-79.6 46zm320.4 13.3c-6-4.4-13.3-5.6-19.8-3.9-14.4 3.6-29.6 2-42.6-5.4l-7-4-232.3-134.1-7-4c-12.8-7.5-21.9-19.8-25.9-34.1-1.8-6.5-6.4-12.2-13.3-15.2-10.1-4.4-22-1-28.4 7.9-4.9 7-5.5 15.6-2.5 22.8-7.8 1-14.9 5.8-18.5 13.6-4.5 10-1.4 22.1 7.4 28.6 6 4.4 13.3 5.6 19.8 3.9 14.4-3.6 29.6-2 42.5 5.4l7 4 232.4 134.1 7 4c12.8 7.5 21.9 19.8 25.9 34.1 1.8 6.5 6.4 12.2 13.3 15.2 10.1 4.4 22 1 28.4-7.9 4.9-7 5.5-15.6 2.5-22.8 7.8-1 14.9-5.8 18.5-13.6 4.5-10 1.4-22.1-7.4-28.6zM144 193.8l-8-78.7C136 51.5 189.7 0 256 0c48 0 89.3 27 108.6 66.1 7.4 14.8 11.5 31.5 11.5 49l-8 78.7c-2 18.9-15.9 34.3-34.4 38.2l-5.2 1.1c-5.7 1.2-9.5 6.6-8.7 12.3l3.2 23.8c2.4 17.6-10.2 33.8-27.9 35.8l-15.2 1.7c-15.9 1.8-31.9 1.8-47.8 0L217 305c-17.6-2-30.3-18.1-27.9-35.8l3.2-23.8c.8-5.8-3-11.1-8.7-12.3l-5.2-1.1c-18.6-3.9-32.5-19.3-34.4-38.2zm130.2-3.4c.1.4.1.7.2.9 2.4 8.2 8.7 14.9 17.1 17.7l17.2 5.7c13 4.3 26.2-6 25.1-19.9l-1.1-14.2c-.8-10-9.9-17.3-19.8-16l-20.8 2.8c-11.3 1.5-19.3 11.8-17.9 23zm-33.5 56.2c0 6.6 6.8 12 15.3 12s15.3-5.4 15.3-12-13-30.7-15.3-30.7-15.3 24.1-15.3 30.7zm-37.6-31.9l17.2-5.7c8.4-2.8 14.7-9.5 17.1-17.7.1-.2.1-.5.2-.9 1.4-11.2-6.6-21.4-17.9-22.8l-20.8-2.8c-10.1-1.4-19 6-19.8 16L178 195c-1.1 13.7 12 24 25.1 19.7z" fill="#fff"/></svg>