<svg xmlns="http://www.w3.org/2000/svg" viewBox="0 0 512 512" style="enable-background:new 0 0 512 512" xml:space="preserve"><path d="M456 75c0-41.4-89.5-75-200-75S56 33.6 56 75c0 1 .1 2 .2 3H56v237c0 1.3.1 2.7.3 4H56v118c0 41.4 89.5 75 200 75s200-33.6 200-75V319h-.3c.2-1.3.3-2.7.3-4V78h-.2c.1-1 .2-2 .2-3zM117.4 29.5C154.3 15.6 203.5 8 256 8s101.7 7.6 138.6 21.5C428.5 42.2 448 58.8 448 75s-19.5 32.8-53.4 45.5C357.7 134.4 308.5 142 256 142s-101.7-7.6-138.6-21.5C83.5 107.8 64 91.2 64 75s19.5-32.8 53.4-45.5zM448 437c0 16.2-19.5 32.8-53.4 45.5C357.7 496.4 308.5 504 256 504s-101.7-7.6-138.6-21.5C83.5 469.8 64 453.2 64 437V336.1C88.3 367.2 165 390 256 390s167.7-22.8 192-53.9V437zm0-122c0 16.2-19.5 32.8-53.4 45.5C357.7 374.4 308.5 382 256 382s-101.7-7.6-138.6-21.5C83.5 347.8 64 331.2 64 315v-98.9C88.3 247.2 165 270 256 270s167.7-22.8 192-53.9V315zm0-130v10c0 16.2-19.5 32.8-53.4 45.5C357.7 254.4 308.5 262 256 262s-101.7-7.6-138.6-21.5C83.5 227.8 64 211.2 64 195V96.1C88.3 127.2 165 150 256 150s167.7-22.8 192-53.9V185z" style="fill:#fff"/></svg>