<svg version="1.1" xmlns="http://www.w3.org/2000/svg" x="0" y="0" viewBox="0 0 512 512" xml:space="preserve"><path d="M404.5 306.6l-53.3-21.5 37-59.4c2.1-3.2 6.8-3.2 8.8 0l39.5 63.2-27.3 17.2c-1.4 1-3.1 1.2-4.7.5zm42.6-.7l-27 17c-4 2.6-8.7 4-13.6 4-3.2 0-6.4-.6-9.4-1.8l-53.3-21.5-3.3-1.3-52.6 84.4-65.2-104.6-38.6 24.2c-4 2.6-8.7 4-13.5 4-3.2 0-6.4-.6-9.4-1.8l-75-30.2-3.3-1.3L0 410.1h512l-64.9-104.2zM168.6 290c1.6.6 3.3.5 4.7-.4l38.8-24.4-56.5-90.7c-2.1-3.2-6.8-3.2-8.8 0l-53.2 85.3 75 30.2zm-96.1-98.1c24.9 0 45.1-20.1 45.1-45s-20.2-45-45.1-45-45.1 20.1-45.1 45 20.2 45 45.1 45zm180.2 27.5h62c10.8 0 19.5-8.7 19.5-19.5 0-8.4-5.5-15.9-13.5-18.5-2.9-5.7-8.7-9.2-15.2-9.2-1.8 0-3.4.3-5.1.7-5.3-5.9-12.9-9.3-20.9-9.3-6.3 0-12.6 2.2-17.6 6.1-4.5 3.5-7.7 8.4-9.3 13.8-9.9 0-18 8.1-18 18 .1 9.8 8.2 17.9 18.1 17.9zM410 163h62c10.8 0 19.5-8.7 19.5-19.5 0-8.4-5.5-15.9-13.5-18.5-2.9-5.7-8.7-9.2-15.2-9.2-1.8 0-3.4.3-5.1.7-5.3-5.9-12.9-9.3-20.9-9.3-6.3 0-12.6 2.2-17.6 6.1-4.5 3.5-7.7 8.4-9.3 13.8-9.9 0-18 8.1-18 18S400.1 163 410 163z" fill="#fff"/></svg>