<svg xmlns="http://www.w3.org/2000/svg" viewBox="0 0 512 512" style="enable-background:new 0 0 512 512" xml:space="preserve"><path d="M463 97.6c0-12.7-4.3-31.5-24.5-49.5-11.8-10.4-27.7-19.5-47.5-26.9C354.4 7.5 306.5 0 256 0s-98.4 7.5-135 21.3c-19.8 7.4-35.7 16.5-47.5 26.9C53.3 66.1 49 85 49 97.6c0 7.9 1.7 18.3 7.9 29.4-5 5.7-7.9 13.2-7.9 21.1v54.5c0 7.9 1.7 18.3 7.9 29.4-5 5.7-7.9 13.2-7.9 21.1v54.5c0 7.9 1.7 18.3 7.9 29.4-5 5.7-7.9 13.2-7.9 21.1v56.3c0 12.7 4.3 31.5 24.5 49.5 11.8 10.4 27.7 19.5 47.5 26.9 36.6 13.7 84.5 21.3 135 21.3s98.4-7.5 135-21.3c19.8-7.4 35.7-16.5 47.5-26.9 20.3-18 24.5-36.8 24.5-49.5v-56.3c0-7.9-2.9-15.3-7.9-21.1 6.3-11.1 7.9-21.5 7.9-29.4v-54.5c0-7.9-2.9-15.3-7.9-21.1 6.3-11.1 7.9-21.5 7.9-29.4v-54.5c0-7.9-2.9-15.3-7.9-21.1 6.2-11 7.9-21.4 7.9-29.4zM121 174c36.6 13.7 84.5 21.3 135 21.3s98.4-7.5 135-21.3c15.8-5.9 29.3-12.9 40-20.9v49.5c0 6.8-2.7 13.3-7.8 19.5-.1.1-.2.3-.3.4-.3.3-.6.7-.9 1-.2.2-.3.4-.5.6-.3.3-.5.6-.8.8l-.6.6-.8.8-.6.6c-.3.3-.7.7-1.1 1l-.4.4c-.5.4-1 .9-1.5 1.3-.2.2-.4.3-.6.5-.3.3-.7.5-1 .8-.2.2-.5.4-.7.6-.3.3-.7.5-1 .8-.2.2-.5.4-.7.5-.4.3-.8.6-1.2.8-.2.2-.4.3-.6.5l-1.8 1.2c-.2.1-.4.3-.7.4-.4.3-.9.6-1.3.8-.3.2-.6.3-.8.5-.4.2-.8.5-1.2.7-.3.2-.6.3-.9.5-.4.3-.9.5-1.3.8-.3.2-.5.3-.8.5-.7.4-1.4.7-2.1 1.1l-.6.3c-.6.3-1.1.6-1.7.9-.3.2-.6.3-.9.5-.5.2-1 .5-1.4.7-.3.2-.7.3-1 .5-.5.2-1 .5-1.5.7-.3.1-.6.3-1 .4-.6.3-1.2.5-1.8.8l-.6.3c-.8.4-1.6.7-2.5 1-.3.1-.6.3-.9.4-.6.2-1.1.5-1.7.7-.4.1-.7.3-1.1.4-.5.2-1.1.4-1.6.6-.4.1-.7.3-1.1.4-.6.2-1.2.5-1.9.7l-.9.3c-.9.3-1.8.6-2.8 1-.3.1-.5.2-.8.3-.7.2-1.4.5-2.1.7-.4.1-.7.2-1.1.4-.6.2-1.2.4-1.9.6-.4.1-.8.2-1.2.4-.6.2-1.3.4-2 .6-.4.1-.7.2-1.1.3l-3 .9c-.2 0-.4.1-.5.1-.9.2-1.7.5-2.6.7-.4.1-.8.2-1.1.3-.7.2-1.4.4-2.1.5l-1.2.3c-.7.2-1.4.3-2.1.5l-1.2.3c-.8.2-1.7.4-2.6.6-.2.1-.5.1-.7.2-1.1.2-2.2.5-3.3.7-.3.1-.7.1-1.1.2-.8.2-1.6.3-2.4.5-.4.1-.8.2-1.3.3-.7.1-1.5.3-2.2.4-.4.1-.9.2-1.3.2-.8.2-1.7.3-2.5.5-.3.1-.7.1-1 .2-1.2.2-2.3.4-3.5.6-.3 0-.5.1-.8.1-.9.2-1.8.3-2.8.5-.4.1-.8.1-1.3.2-.8.1-1.6.2-2.4.4-.4.1-.9.1-1.3.2-.8.1-1.7.2-2.5.4-.4.1-.8.1-1.2.2-1.2.2-2.5.3-3.7.5h-.2c-1.2.1-2.4.3-3.5.4-.4 0-.8.1-1.2.1-.9.1-1.7.2-2.6.3-.5.1-.9.1-1.4.1-.8.1-1.7.2-2.6.3-.4 0-.9.1-1.3.1-1 .1-2.1.2-3.1.3-.2 0-.5 0-.7.1l-3.9.3c-.4 0-.7.1-1.1.1-.9.1-1.9.1-2.8.2-.5 0-.9.1-1.4.1-.9.1-1.8.1-2.6.2-.5 0-.9.1-1.4.1-1 .1-1.9.1-2.9.2-.4 0-.7 0-1.1.1-1.3.1-2.7.1-4 .2h-.8c-1.1 0-2.2.1-3.3.1h-1.4c-.9 0-1.8 0-2.8.1h-19.8c-.9 0-1.8 0-2.8-.1H242c-1.1 0-2.2-.1-3.3-.1h-.8c-1.3-.1-2.7-.1-4-.2-.4 0-.7 0-1.1-.1-1 0-1.9-.1-2.9-.2-.5 0-.9-.1-1.4-.1-.9-.1-1.8-.1-2.6-.2-.5 0-.9-.1-1.4-.1-.9-.1-1.9-.1-2.8-.2-.4 0-.7-.1-1.1-.1l-3.9-.3c-.2 0-.5 0-.7-.1-1.1-.1-2.1-.2-3.2-.3-.4 0-.9-.1-1.3-.1-.9-.1-1.7-.2-2.6-.3-.5 0-.9-.1-1.4-.1-.9-.1-1.7-.2-2.6-.3-.4 0-.8-.1-1.2-.1-1.2-.1-2.4-.3-3.5-.4h-.2c-1.2-.2-2.5-.3-3.7-.5-.4-.1-.8-.1-1.2-.2-.8-.1-1.7-.2-2.5-.4-.4-.1-.9-.1-1.3-.2-.8-.1-1.6-.2-2.4-.4-.4-.1-.8-.1-1.3-.2-.9-.1-1.9-.3-2.8-.5-.3 0-.5-.1-.8-.1-1.2-.2-2.3-.4-3.5-.6-.3-.1-.7-.1-1-.2-.8-.2-1.7-.3-2.5-.5-.4-.1-.9-.2-1.3-.2-.7-.1-1.5-.3-2.2-.4-.4-.1-.8-.2-1.3-.3-.8-.2-1.6-.3-2.4-.5-.3-.1-.7-.1-1-.2-1.1-.2-2.2-.5-3.3-.7-.2-.1-.5-.1-.7-.2-.9-.2-1.7-.4-2.6-.6l-1.2-.3c-.7-.2-1.4-.3-2.1-.5l-1.2-.3c-.7-.2-1.4-.4-2.1-.5-.4-.1-.7-.2-1.1-.3-.9-.2-1.8-.5-2.7-.7-.1 0-.3-.1-.4-.1l-3-.9c-.4-.1-.7-.2-1.1-.3-.7-.2-1.3-.4-2-.6-.4-.1-.8-.2-1.2-.4-.6-.2-1.3-.4-1.9-.6-.4-.1-.7-.2-1.1-.4-.7-.2-1.4-.5-2.1-.7-.3-.1-.5-.2-.8-.3-.9-.3-1.8-.6-2.8-1l-.9-.3c-.6-.2-1.3-.5-1.9-.7-.4-.1-.7-.3-1.1-.4-.6-.2-1.1-.4-1.7-.6-.4-.1-.7-.3-1.1-.4-.6-.2-1.1-.5-1.7-.7-.3-.1-.6-.3-.9-.4-.8-.3-1.7-.7-2.5-1l-.6-.3c-.6-.3-1.2-.5-1.9-.8-.3-.1-.6-.3-1-.4-.5-.2-1-.5-1.5-.7-.3-.2-.7-.3-1-.5-.5-.2-1-.5-1.5-.7-.3-.1-.6-.3-.9-.4-.6-.3-1.2-.6-1.7-.9l-.6-.3c-.7-.4-1.4-.7-2.1-1.1-.3-.2-.5-.3-.8-.5-.4-.3-.9-.5-1.3-.8-.3-.2-.6-.3-.9-.5-.4-.2-.8-.5-1.2-.7-.3-.2-.6-.3-.8-.5-.4-.3-.9-.6-1.3-.8-.2-.1-.4-.3-.7-.4l-1.8-1.2c-.2-.1-.4-.3-.6-.4-.4-.3-.8-.6-1.2-.8-.2-.2-.5-.4-.7-.5-.3-.3-.7-.5-1-.8-.2-.2-.5-.4-.7-.6-.3-.3-.7-.5-1-.8-.2-.2-.4-.3-.6-.5-.5-.4-1-.9-1.5-1.3-.1-.1-.3-.2-.4-.4-.4-.3-.7-.7-1.1-1l-.6-.6c-.3-.3-.6-.5-.8-.8l-.6-.6c-.3-.3-.5-.6-.8-.8-.2-.2-.3-.4-.5-.6-.3-.3-.6-.7-.9-1-.1-.1-.2-.2-.3-.4-5.1-6.2-7.8-12.7-7.8-19.5v-49.5c10.9 7.8 24.3 14.7 40.1 20.7zm302.2 153.1c-.1.1-.2.3-.3.4-.3.3-.6.7-.9 1-.2.2-.3.4-.5.6-.3.3-.5.6-.8.8l-.6.6-.8.8-.6.6c-.3.3-.7.7-1.1 1l-.4.4c-.5.4-1 .9-1.5 1.3-.2.2-.4.3-.6.5-.3.3-.7.5-1 .8-.2.2-.5.4-.7.6-.3.3-.7.5-1 .8-.2.2-.5.4-.7.5-.4.3-.8.6-1.2.8-.2.2-.4.3-.6.5l-1.8 1.2c-.2.1-.4.3-.7.4-.4.3-.9.6-1.3.8-.3.2-.6.3-.8.5-.4.2-.8.5-1.2.7-.3.2-.6.3-.9.5-.4.3-.9.5-1.3.8-.3.2-.5.3-.8.5-.7.4-1.4.7-2.1 1.1l-.6.3c-.6.3-1.1.6-1.7.9-.3.2-.6.3-.9.5-.5.2-1 .5-1.4.7-.3.2-.7.3-1 .5-.5.2-1 .5-1.5.7-.3.1-.6.3-1 .4-.6.3-1.2.5-1.8.8l-.6.3c-.8.4-1.6.7-2.5 1-.3.1-.6.3-.9.4-.6.2-1.1.5-1.7.7-.4.1-.7.3-1.1.4-.5.2-1.1.4-1.6.6-.4.1-.7.3-1.1.4-.6.2-1.2.5-1.9.7l-.9.3c-.9.3-1.8.6-2.8 1-.3.1-.5.2-.8.3-.7.2-1.4.5-2.1.7-.4.1-.7.2-1.1.4-.6.2-1.2.4-1.9.6-.4.1-.8.2-1.2.4-.6.2-1.3.4-2 .6-.4.1-.7.2-1.1.3l-3 .9c-.2 0-.4.1-.5.1-.9.2-1.7.5-2.6.7-.4.1-.8.2-1.1.3-.7.2-1.4.4-2.1.5l-1.2.3c-.7.2-1.4.3-2.1.5l-1.2.3c-.8.2-1.7.4-2.6.6-.2.1-.5.1-.7.2-1.1.2-2.2.5-3.3.7-.3.1-.7.1-1.1.2-.8.2-1.6.3-2.4.5-.4.1-.8.2-1.3.3-.7.1-1.5.3-2.2.4-.4.1-.9.2-1.3.2-.8.2-1.7.3-2.5.5-.3.1-.7.1-1 .2-1.2.2-2.3.4-3.5.6-.3 0-.5.1-.8.1-.9.2-1.8.3-2.8.5-.4.1-.8.1-1.3.2-.8.1-1.6.2-2.4.4-.4.1-.9.1-1.3.2-.8.1-1.7.2-2.5.4-.4.1-.8.1-1.2.2-1.2.2-2.5.3-3.7.5h-.2c-1.2.1-2.4.3-3.5.4-.4 0-.8.1-1.2.1-.9.1-1.7.2-2.6.3-.5.1-.9.1-1.4.1-.8.1-1.7.2-2.6.3-.4 0-.9.1-1.3.1-1 .1-2.1.2-3.1.3-.2 0-.5 0-.7.1l-3.9.3c-.4 0-.7.1-1.1.1-.9.1-1.9.1-2.8.2-.5 0-.9.1-1.4.1-.9.1-1.8.1-2.6.2-.5 0-.9.1-1.4.1-1 .1-1.9.1-2.9.2-.4 0-.7 0-1.1.1-1.3.1-2.7.1-4 .2h-.8c-1.1 0-2.2.1-3.3.1h-1.4c-.9 0-1.8 0-2.8.1h-19.8c-.9 0-1.8 0-2.8-.1H242c-1.1 0-2.2-.1-3.3-.1h-.8c-1.3-.1-2.7-.1-4-.2-.4 0-.7 0-1.1-.1-1 0-1.9-.1-2.9-.2-.5 0-.9-.1-1.4-.1-.9-.1-1.8-.1-2.6-.2-.5 0-.9-.1-1.4-.1-.9-.1-1.9-.1-2.8-.2-.4 0-.7-.1-1.1-.1l-3.9-.3c-.2 0-.5 0-.7-.1-1.1-.1-2.1-.2-3.2-.3-.4 0-.9-.1-1.3-.1-.9-.1-1.7-.2-2.6-.3-.5 0-.9-.1-1.4-.1-.9-.1-1.7-.2-2.6-.3-.4 0-.8-.1-1.2-.1-1.2-.1-2.4-.3-3.5-.4h-.2c-1.2-.2-2.5-.3-3.7-.5-.4-.1-.8-.1-1.2-.2-.8-.1-1.7-.2-2.5-.4-.4-.1-.9-.1-1.3-.2-.8-.1-1.6-.2-2.4-.4-.4-.1-.8-.1-1.3-.2-.9-.1-1.9-.3-2.8-.5-.3 0-.5-.1-.8-.1-1.2-.2-2.3-.4-3.5-.6-.3-.1-.7-.1-1-.2-.8-.2-1.7-.3-2.5-.5-.4-.1-.9-.2-1.3-.2-.7-.1-1.5-.3-2.2-.4-.4-.1-.8-.2-1.3-.3-.8-.2-1.6-.3-2.4-.5-.3-.1-.7-.1-1-.2-1.1-.2-2.2-.5-3.3-.7-.2-.1-.5-.1-.7-.2-.9-.2-1.7-.4-2.6-.6l-1.2-.3c-.7-.2-1.4-.3-2.1-.5l-1.2-.3c-.7-.2-1.4-.4-2.1-.5-.4-.1-.7-.2-1.1-.3-.9-.2-1.8-.5-2.7-.7-.1 0-.3-.1-.4-.1l-3-.9c-.4-.1-.7-.2-1.1-.3-.7-.2-1.3-.4-2-.6-.4-.1-.8-.2-1.2-.4-.6-.2-1.3-.4-1.9-.6-.4-.1-.7-.2-1.1-.4-.7-.2-1.4-.5-2.1-.7-.3-.1-.5-.2-.8-.3-.9-.3-1.8-.6-2.8-1l-.9-.3c-.6-.2-1.3-.5-1.9-.7-.4-.1-.7-.3-1.1-.4-.6-.2-1.1-.4-1.7-.6-.4-.1-.7-.3-1.1-.4-.6-.2-1.1-.5-1.7-.7-.3-.1-.6-.3-.9-.4-.8-.3-1.7-.7-2.5-1l-.6-.3c-.6-.3-1.2-.5-1.9-.8-.3-.1-.6-.3-1-.4-.5-.2-1-.5-1.5-.7-.3-.2-.7-.3-1-.5-.5-.2-1-.5-1.5-.7-.3-.1-.6-.3-.9-.4-.6-.3-1.2-.6-1.7-.9l-.6-.3c-.7-.4-1.4-.7-2.1-1.1-.3-.2-.5-.3-.8-.5-.4-.3-.9-.5-1.3-.8-.3-.2-.6-.3-.9-.5-.4-.2-.8-.5-1.2-.7-.3-.2-.6-.3-.8-.5-.4-.3-.9-.6-1.3-.8-.2-.1-.4-.3-.7-.4l-1.8-1.2c-.2-.1-.4-.3-.6-.4-.4-.3-.8-.6-1.2-.8-.2-.2-.5-.4-.7-.5-.3-.3-.7-.5-1-.8-.2-.2-.5-.4-.7-.6-.3-.3-.7-.5-1-.8-.2-.2-.4-.3-.6-.5-.5-.4-1-.9-1.5-1.3-.1-.1-.3-.2-.4-.4-.4-.3-.7-.7-1.1-1l-.6-.6c-.3-.3-.6-.5-.8-.8l-.6-.6c-.3-.3-.5-.6-.8-.8-.2-.2-.3-.4-.5-.6-.3-.3-.6-.7-.9-1-.1-.1-.2-.2-.3-.4-5.1-6.2-7.8-12.7-7.8-19.5v-49.5c10.8 7.9 24.2 14.9 40 20.9 36.6 13.7 84.5 21.3 135 21.3s98.4-7.5 135-21.3c15.8-5.9 29.3-12.9 40-20.9v49.5c.1 6.6-2.6 13.1-7.7 19.3zM256 32c96.6 0 175 29.4 175 65.6 0 6.8-2.7 13.3-7.8 19.5-.1.1-.2.3-.3.4-.3.3-.6.7-.9 1-.2.2-.3.4-.5.6-.3.3-.5.6-.8.8l-.6.6c-.3.3-.6.5-.8.8l-.6.6c-.3.3-.7.7-1.1 1l-.4.4c-.5.4-1 .9-1.5 1.3-.2.2-.4.3-.6.5-.3.3-.7.5-1 .8-.2.2-.5.4-.7.6-.3.3-.7.5-1 .8-.2.2-.5.4-.7.5-.4.3-.8.6-1.2.8-.2.1-.4.3-.6.4l-1.8 1.2c-.2.1-.4.3-.7.4-.4.3-.9.6-1.3.8-.3.2-.6.3-.8.5-.4.2-.8.5-1.2.7-.3.2-.6.3-.9.5-.4.3-.9.5-1.3.8-.3.2-.5.3-.8.5-.7.4-1.4.8-2.1 1.1l-.6.3c-.6.3-1.2.6-1.7.9-.3.2-.6.3-.9.5-.5.2-1 .5-1.4.7-.3.2-.7.3-1 .5-.5.2-1 .5-1.5.7-.3.1-.6.3-1 .4-.6.3-1.2.5-1.8.8l-.6.3c-.8.4-1.6.7-2.5 1-.3.1-.6.3-.9.4-.6.2-1.1.5-1.7.7-.4.1-.7.3-1.1.4-.5.2-1.1.4-1.7.6-.4.1-.7.3-1.1.4-.6.2-1.2.5-1.9.7l-.9.3c-.9.3-1.8.6-2.8 1-.3.1-.5.2-.8.3-.7.2-1.4.5-2.1.7-.4.1-.7.2-1.1.4-.6.2-1.2.4-1.9.6-.4.1-.8.2-1.2.4-.7.2-1.3.4-2 .6-.4.1-.7.2-1.1.3l-3 .9c-.2 0-.3.1-.5.1-.9.2-1.8.5-2.7.7-.4.1-.8.2-1.1.3-.7.2-1.4.4-2.1.5l-1.2.3c-.7.2-1.4.3-2.1.5l-1.2.3c-.9.2-1.7.4-2.6.6-.2.1-.5.1-.7.2-1.1.2-2.2.5-3.3.7-.3.1-.7.1-1.1.2-.8.2-1.6.3-2.4.5-.4.1-.8.2-1.3.3-.7.2-1.5.3-2.2.4-.4.1-.8.2-1.3.2-.8.2-1.7.3-2.5.5-.3.1-.6.1-1 .2-1.2.2-2.3.4-3.5.6-.3 0-.5.1-.8.1-.9.2-1.8.3-2.8.5-.4.1-.8.1-1.3.2-.8.1-1.6.2-2.4.4-.4.1-.9.1-1.3.2-.8.1-1.7.2-2.5.4-.4.1-.8.1-1.2.2-1.2.2-2.5.3-3.7.5h-.2c-1.2.1-2.4.3-3.5.4-.4 0-.8.1-1.2.1-.9.1-1.7.2-2.6.3-.5.1-.9.1-1.4.1-.8.1-1.7.2-2.6.3-.4 0-.9.1-1.3.1-1 .1-2.1.2-3.1.3-.2 0-.5 0-.7.1l-3.9.3c-.4 0-.7.1-1.1.1-1 .1-1.9.1-2.9.2-.5 0-.9.1-1.4.1-.9.1-1.8.1-2.7.2-.5 0-.9.1-1.4.1-1 .1-1.9.1-2.9.2-.4 0-.7 0-1.1.1-1.3.1-2.7.1-4 .2h-.8c-1.1 0-2.2.1-3.3.1h-1.4c-.9 0-1.8 0-2.8.1h-19.8c-.9 0-1.8 0-2.8-.1h-1.4c-1.1 0-2.2-.1-3.3-.1h-.8c-1.3-.1-2.7-.1-4-.2-.4 0-.7 0-1.1-.1-1 0-1.9-.1-2.9-.2-.5 0-.9-.1-1.4-.1-.9-.1-1.8-.1-2.7-.2-.5 0-.9-.1-1.4-.1-1-.1-1.9-.1-2.9-.2-.4 0-.7-.1-1.1-.1l-3.9-.3c-.2 0-.5 0-.7-.1-1.1-.1-2.1-.2-3.2-.3-.4 0-.9-.1-1.3-.1-.9-.1-1.7-.2-2.6-.3-.5 0-.9-.1-1.4-.1-.9-.1-1.7-.2-2.6-.3-.4 0-.8-.1-1.2-.1-1.2-.1-2.4-.3-3.5-.4h-.2c-1.2-.2-2.5-.3-3.7-.5-.4-.1-.8-.1-1.2-.2-.8-.1-1.7-.2-2.5-.4-.4-.1-.9-.1-1.3-.2-.8-.1-1.6-.2-2.4-.4-.4-.1-.8-.1-1.3-.2-.9-.1-1.9-.3-2.8-.5-.3 0-.5-.1-.8-.1-1.2-.2-2.3-.4-3.5-.6-.3-.1-.6-.1-1-.2-.8-.2-1.7-.3-2.5-.5-.4-.1-.8-.2-1.3-.2-.8-.1-1.5-.3-2.2-.4-.4-.1-.8-.2-1.3-.3-.8-.2-1.6-.3-2.4-.5-.3-.1-.7-.1-1-.2-1.1-.2-2.2-.5-3.3-.7-.2-.1-.4-.1-.7-.2-.9-.2-1.8-.4-2.6-.6l-1.2-.3c-.7-.2-1.4-.3-2.1-.5l-1.2-.3c-.7-.2-1.4-.4-2.1-.5-.4-.1-.7-.2-1.1-.3-.9-.2-1.8-.5-2.7-.7-.1 0-.3-.1-.4-.1l-3-.9c-.3-.1-.7-.2-1-.3-.7-.2-1.3-.4-2-.6-.4-.1-.8-.2-1.2-.4-.6-.2-1.3-.4-1.9-.6-.4-.1-.7-.2-1.1-.4-.7-.2-1.4-.5-2.1-.7-.3-.1-.5-.2-.8-.3-.9-.3-1.8-.6-2.8-1l-.9-.3c-.6-.2-1.3-.5-1.9-.7-.4-.1-.7-.3-1.1-.4-.6-.2-1.1-.4-1.7-.6-.4-.1-.7-.3-1.1-.4-.6-.2-1.1-.5-1.7-.7-.3-.1-.6-.3-.9-.4-.8-.3-1.7-.7-2.5-1l-.6-.3c-.6-.3-1.3-.6-1.9-.8-.3-.1-.6-.3-.9-.4-.5-.2-1-.5-1.5-.7-.3-.2-.7-.3-1-.5-.5-.2-1-.5-1.5-.7-.3-.1-.6-.3-.9-.4l-1.8-.9c-.2-.1-.4-.2-.5-.3-.7-.4-1.4-.8-2.1-1.1-.3-.1-.5-.3-.8-.5-.4-.3-.9-.5-1.3-.8-.3-.2-.6-.3-.9-.5-.4-.2-.8-.5-1.2-.7-.3-.2-.6-.3-.8-.5-.4-.3-.9-.6-1.3-.8-.2-.1-.4-.3-.7-.4l-1.8-1.2c-.2-.1-.4-.3-.6-.4-.4-.3-.8-.6-1.2-.8-.2-.2-.5-.4-.7-.5-.3-.3-.7-.5-1-.8-.2-.2-.5-.4-.7-.6-.3-.3-.7-.5-1-.8-.2-.2-.4-.3-.6-.5-.5-.4-1-.9-1.5-1.3-.1-.1-.3-.2-.4-.4-.4-.3-.7-.7-1.1-1l-.6-.6c-.3-.3-.6-.5-.8-.8l-.6-.6c-.3-.3-.5-.6-.8-.8-.2-.2-.3-.4-.5-.6-.3-.3-.6-.7-.9-1-.1-.1-.2-.2-.3-.4-5.1-6.2-7.8-12.7-7.8-19.5C81 61.4 159.4 32 256 32zm0 448c-96.6 0-175-29.4-175-65.6v-51.2c10.8 7.9 24.2 14.9 40 20.9 36.6 13.7 84.5 21.3 135 21.3s98.4-7.5 135-21.3c15.8-5.9 29.3-12.9 40-20.9v51.2c0 36.2-78.4 65.6-175 65.6z" style="fill:#fff"/></svg>