<svg version="1.1" xmlns="http://www.w3.org/2000/svg" x="0" y="0" viewBox="0 0 512 512" xml:space="preserve"><path d="M54 376h404c3.3 0 6-2.7 6-6V142c0-3.3-2.7-6-6-6H54c-3.3 0-6 2.7-6 6v228c0 3.3 2.7 6 6 6zm277-59c0 6.6-5.4 12-12 12H193c-6.6 0-12-5.4-12-12v-24c0-6.6 5.4-12 12-12h126c6.6 0 12 5.4 12 12v24zm53-121c0-6.6 5.4-12 12-12h24c6.6 0 12 5.4 12 12v24c0 6.6-5.4 12-12 12h-24c-6.6 0-12-5.4-12-12v-24zm-25 97c0-6.6 5.4-12 12-12h49c6.6 0 12 5.4 12 12v24c0 6.6-5.4 12-12 12h-49c-6.6 0-12-5.4-12-12v-24zm-51-97c0-6.6 5.4-12 12-12h24c6.6 0 12 5.4 12 12v24c0 6.6-5.4 12-12 12h-24c-6.6 0-12-5.4-12-12v-24zm-76 0c0-6.6 5.4-12 12-12h24c6.6 0 12 5.4 12 12v24c0 6.6-5.4 12-12 12h-24c-6.6 0-12-5.4-12-12v-24zm-76 0c0-6.6 5.4-12 12-12h24c6.6 0 12 5.4 12 12v24c0 6.6-5.4 12-12 12h-24c-6.6 0-12-5.4-12-12v-24zm-76 0c0-6.6 5.4-12 12-12h24c6.6 0 12 5.4 12 12v24c0 6.6-5.4 12-12 12H92c-6.6 0-12-5.4-12-12v-24zm0 96c0-6.6 5.4-12 12-12h49c6.6 0 12 5.4 12 12v24c0 6.6-5.4 12-12 12H92c-6.6 0-12-5.4-12-12v-24z" opacity=".1" fill="#fff"/><path d="M153 316c0 6.6-5.4 12-12 12H92c-6.6 0-12-5.4-12-12v-24c0-6.6 5.4-12 12-12h49c6.6 0 12 5.4 12 12v24zm178 1c0 6.6-5.4 12-12 12H193c-6.6 0-12-5.4-12-12v-24c0-6.6 5.4-12 12-12h126c6.6 0 12 5.4 12 12v24zm101 0c0 6.6-5.4 12-12 12h-49c-6.6 0-12-5.4-12-12v-24c0-6.6 5.4-12 12-12h49c6.6 0 12 5.4 12 12v24zm-304-97c0 6.6-5.4 12-12 12H92c-6.6 0-12-5.4-12-12v-24c0-6.6 5.4-12 12-12h24c6.6 0 12 5.4 12 12v24zm76 0c0 6.6-5.4 12-12 12h-24c-6.6 0-12-5.4-12-12v-24c0-6.6 5.4-12 12-12h24c6.6 0 12 5.4 12 12v24zm76 0c0 6.6-5.4 12-12 12h-24c-6.6 0-12-5.4-12-12v-24c0-6.6 5.4-12 12-12h24c6.6 0 12 5.4 12 12v24zm76 0c0 6.6-5.4 12-12 12h-24c-6.6 0-12-5.4-12-12v-24c0-6.6 5.4-12 12-12h24c6.6 0 12 5.4 12 12v24zm76 0c0 6.6-5.4 12-12 12h-24c-6.6 0-12-5.4-12-12v-24c0-6.6 5.4-12 12-12h24c6.6 0 12 5.4 12 12v24zm32-132H48c-26.4 0-48 21.6-48 48v240c0 26.4 21.6 48 48 48h416c26.4 0 48-21.6 48-48V136c0-26.4-21.6-48-48-48zm0 282c0 3.3-2.7 6-6 6H54c-3.3 0-6-2.7-6-6V142c0-3.3 2.7-6 6-6h404c3.3 0 6 2.7 6 6v228z" fill="#fff"/></svg>