<svg version="1.1" xmlns="http://www.w3.org/2000/svg" x="0" y="0" viewBox="0 0 512 512" xml:space="preserve"><path d="M477.5 0h-455c-6.6 0-12 5.4-12 12v488c0 6.6 5.4 12 12 12h467c6.6 0 12-5.4 12-12V24l-24-24z" opacity=".1" fill="#fff"/><path d="M477.5 0h-455c-6.6 0-12 5.4-12 12v488c0 6.6 5.4 12 12 12h467c6.6 0 12-5.4 12-12V24l-24-24zM127 12.5h260V158c0 6.6-5.4 12-12 12H139c-6.6 0-12-5.4-12-12V12.5zm318.5 255v220c0 6.6-5.4 12-12 12h-355c-6.6 0-12-5.4-12-12v-253c0-6.6 5.4-12 12-12h355c6.6 0 12 5.4 12 12v33zM350 162h-67V24h67v138z" fill="#fff"/></svg>