<svg version="1.1" xmlns="http://www.w3.org/2000/svg" x="0" y="0" viewBox="0 0 512 512" xml:space="preserve"><path d="M75 0v512h362V0H75z" opacity=".1" fill="#fff"/><path d="M75 0v512h362V0H75zm31 25h134.5v46H106V25zm79.3 462H106v-14h79.3v14zm0-32H106v-14h79.3v14zm0-32H106v-14h79.3v14zm0-32H106v-14h79.3v14zm0-32H106v-14h79.3v14zm0-32H106v-14h79.3v14zm0-32H106v-14h79.3v14zm0-32H106v-14h79.3v14zm0-32H106v-14h79.3v14zm0-32H106v-14h79.3v14zm0-32H106v-14h79.3v14zm0-32H106v-14h79.3v14zm0-32H106V89h79.3v14zm110.4 384h-79.3v-14h79.3v14zm0-32h-79.3v-14h79.3v14zm0-32h-79.3v-14h79.3v14zm0-32h-79.3v-14h79.3v14zm0-32h-79.3v-14h79.3v14zm0-32h-79.3v-14h79.3v14zm0-32h-79.3v-14h79.3v14zm0-32h-79.3v-14h79.3v14zm0-32h-79.3v-14h79.3v14zm0-32h-79.3v-14h79.3v14zm0-32h-79.3v-14h79.3v14zm0-32h-79.3v-14h79.3v14zm0-32h-79.3V89h79.3v14zM406 487h-79.3v-14H406v14zm0-32h-79.3v-14H406v14zm0-32h-79.3v-14H406v14zm0-32h-79.3v-14H406v14zm0-32h-79.3v-14H406v14zm0-32h-79.3v-14H406v14zm0-32h-79.3v-14H406v14zm0-32h-79.3v-14H406v14zm0-32h-79.3v-14H406v14zm0-32h-79.3v-14H406v14zm0-32h-79.3v-14H406v14zm0-32h-79.3v-14H406v14zm0-32h-79.3V89H406v14zm0-32H271.5V25H406v46z" fill="#fff"/></svg>