<svg version="1.1" xmlns="http://www.w3.org/2000/svg" x="0" y="0" viewBox="0 0 512 512" xml:space="preserve"><path d="M237.2 187.7l8.8 253.5c.1 4.6-1.6 9.1-4.7 12.4-3.1 3.3-7.3 5.1-11.8 5.2h-.3c-9.2 0-16.8-7.4-17-16.5l-8.8-253.5c-.1-4.6 1.6-9.1 4.7-12.4 3.1-3.2 7.3-5.1 11.7-5.2 9.4-.3 17.2 7.2 17.4 16.5zm55.2-16.5c-9.4-.3-17.2 7-17.5 16.4l-8.8 253.6c-.3 9.4 7 17.3 16.3 17.6h.6c9.1 0 16.5-7.2 16.9-16.4l8.8-253.6c.4-9.4-7-17.3-16.3-17.6zm-122.1 15.9c-.6-8.9-8.1-15.9-16.9-15.9h-1.2c-9.3.7-16.4 8.9-15.7 18.2l17.4 253.2c.6 8.9 8.1 15.9 16.9 15.9h1.2c9.3-.7 16.4-8.9 15.7-18.2l-17.4-253.2zm189.6-15.7c-9.4-.7-17.5 6.5-18.1 15.9l-17.4 253.1c-.7 9.4 6.4 17.6 15.7 18.3h1.2c8.8 0 16.3-7 16.9-15.9l17.4-253.1c.7-9.5-6.4-17.7-15.7-18.3zm123-97.6v31.8c0 18.3-14.7 33.1-32.9 33.1h-7.9l-.9 13.6-19.5 301.1c-2 32.3-29.8 58.6-62 58.6H152.2c-32.1 0-60-26.3-62-58.6L70.7 152.3l-.9-13.6h-7.9c-18.1 0-32.9-14.9-32.9-33.1V73.8c0-18.2 14.8-33 32.9-33h97.4v-7.7C159.3 14.8 174 0 192.2 0h127.7c18.1 0 32.9 14.9 32.9 33.1v7.7h97.4c18.1 0 32.9 14.8 32.7 33zm-32 .1c0-.6-.4-1.1-.9-1.1H320.6V33.1c0-.6-.4-1.1-.9-1.1H192.2c-.5 0-.9.5-.9 1.1v39.6H61.9c-.5 0-.9.5-.9 1.1v31.7c0 .6.4 1.1.9 1.1h38l2.8 43.6 19.5 301.2c1 15.6 14.8 28.7 30.1 28.7h207.5c15.4 0 29.2-13.1 30-28.5l19.5-301.2 2.8-43.6H450c.5 0 .9-.5.9-1.1V73.9z" fill="#fff"/></svg>