<svg version="1.1" xmlns="http://www.w3.org/2000/svg" x="0" y="0" viewBox="0 0 512 512" style="enable-background:new 0 0 512 512" xml:space="preserve"><path d="M452.1 110.9c5.9-9.4 7.4-18.1 7.4-24.6 0-9.8-3.5-24.6-20.1-39.3-10.9-9.7-26.1-18.2-45.2-25.4C357 7.7 308 0 256 0c-52 0-101 7.7-138.2 21.6C98.7 28.8 83.5 37.3 72.6 47 56 61.7 52.5 76.5 52.5 86.3c0 6.5 1.5 15.2 7.4 24.6-4.6 2.9-7.4 8-7.4 13.5v74.4c0 6.5 1.5 15.2 7.4 24.6-4.6 2.9-7.4 8-7.4 13.5v74.4c0 6.5 1.5 15.2 7.4 24.6-4.6 2.9-7.4 8-7.4 13.5v76.3c0 9.8 3.5 24.6 20.1 39.3 10.9 9.7 26.1 18.2 45.2 25.4C155 504.3 204 512 256 512c52 0 101-7.7 138.2-21.6 19.1-7.1 34.3-15.7 45.2-25.4 16.6-14.7 20.1-29.5 20.1-39.3v-76.3c0-5.5-2.8-10.6-7.4-13.5 5.9-9.4 7.4-18.1 7.4-24.6v-74.4c0-5.5-2.8-10.6-7.4-13.5 5.9-9.4 7.4-18.1 7.4-24.6v-74.4c0-5.5-2.8-10.6-7.4-13.5zm-8.6 200.4c0 13.8-10.6 26.7-28.9 37.5-6.4 3.3-13.4 6.4-21.1 9.3-36.9 13.9-85.8 21.5-137.5 21.5s-100.6-7.6-137.5-21.5c-7.7-2.9-14.7-6-21.1-9.3-18.3-10.9-28.9-23.7-28.9-37.5v-74.4c6.1 4.7 13.1 9.2 21 13.3 8.2 4.8 17.6 9.3 28.3 13.3C155 277.4 204 285.1 256 285.1c52 0 101-7.7 138.2-21.6 10.7-4 20.1-8.4 28.3-13.3 7.9-4.1 14.9-8.6 21-13.3v74.4zm-354-173.6c8.2 4.8 17.6 9.3 28.3 13.3C155 164.9 204 172.6 256 172.6c52 0 101-7.7 138.2-21.6 10.7-4 20.1-8.4 28.3-13.3 7.9-4.1 14.9-8.6 21-13.3v74.4c0 13.8-10.6 26.7-28.9 37.5-6.4 3.3-13.4 6.4-21.1 9.3-36.9 13.9-85.8 21.5-137.5 21.5s-100.6-7.6-137.5-21.5c-7.7-2.9-14.7-6-21.1-9.3-18.3-10.9-28.9-23.7-28.9-37.5v-74.4c6.1 4.8 13.1 9.2 21 13.3zM256 16c103.6 0 187.5 31.5 187.5 70.3 0 13.8-10.6 26.7-28.9 37.5-6.4 3.3-13.4 6.4-21.1 9.3-36.9 13.9-85.8 21.5-137.5 21.5s-100.6-7.6-137.5-21.5c-7.7-2.9-14.7-6-21.1-9.3-18.3-10.8-28.9-23.7-28.9-37.5C68.5 47.5 152.4 16 256 16zm187.5 409.7c0 38.8-83.9 70.3-187.5 70.3S68.5 464.5 68.5 425.7v-76.3c6.1 4.7 13.1 9.2 21 13.3 8.2 4.8 17.6 9.3 28.3 13.3C155 389.9 204 397.6 256 397.6c52 0 101-7.7 138.2-21.6 10.7-4 20.1-8.4 28.3-13.3 7.9-4.1 14.9-8.6 21-13.3v76.3z" style="fill:#fff"/></svg>