<svg version="1.1" xmlns="http://www.w3.org/2000/svg" x="0" y="0" viewBox="0 0 512 512" xml:space="preserve"><path d="M494.6 150.4H17.4c-9.6 0-17.4 7.8-17.4 17.4v326.9c0 9.6 7.8 17.4 17.4 17.4h477.3c9.6 0 17.4-7.8 17.4-17.4V167.8c-.1-9.6-7.9-17.4-17.5-17.4zM241 124h88c3.3 0 6-2.7 6-6V99c0-3.3-2.7-6-6-6h-13c-3.1-3.5-7.5-8-10.5-9.9-1.2-.7-2.7-1.4-4.5-2.1V0h-17v69.5c-1.1-1.2-2.1-2.5-3.2-4C272.1 52.8 273 .5 273 0h-1l-1-.1c-.5 6.4-3.9 18.7-7.5 31.7-4.2 15.1-8.5 30.7-8.5 38.4 0 9.7 11 18.3 18.6 23H241c-3.3 0-6 2.7-6 6v19c0 3.3 2.7 6 6 6zm60-40.8c1.4.6 2.6 1.1 3.5 1.7 2.5 1.5 6 5 8.8 8.1H301v-9.8zM257 70c0-7.4 4.3-22.9 8.5-37.8 2.1-7.6 4.1-14.9 5.6-21 .2 16.4 1.6 45.9 8.2 55.4 1.6 2.2 3.2 4.2 4.8 5.8V93h-6.5c-7-4-20.6-13.1-20.6-23z" opacity=".1" fill="#fff"/><path d="M494.6 150.4H17.4c-9.6 0-17.4 7.8-17.4 17.4v326.9c0 9.6 7.8 17.4 17.4 17.4h477.3c9.6 0 17.4-7.8 17.4-17.4V167.8c-.1-9.6-7.9-17.4-17.5-17.4zm-14.4 342.8H31.8v-324h448.4v324zM241 124h88c3.3 0 6-2.7 6-6V99c0-3.3-2.7-6-6-6h-13c-3.1-3.5-7.5-8-10.5-9.9-1.2-.7-2.7-1.4-4.5-2.1V0h-17v69.5c-1.1-1.2-2.1-2.5-3.2-4C272.1 52.8 273 .5 273 0h-1l-1-.1c-.5 6.4-3.9 18.7-7.5 31.7-4.2 15.1-8.5 30.7-8.5 38.4 0 9.7 11 18.3 18.6 23H241c-3.3 0-6 2.7-6 6v19c0 3.3 2.7 6 6 6zm79.5-13c1.4 0 2.5 1.1 2.5 2.5s-1.1 2.5-2.5 2.5-2.5-1.1-2.5-2.5 1.1-2.5 2.5-2.5zm-10 5c-1.4 0-2.5-1.1-2.5-2.5s1.1-2.5 2.5-2.5 2.5 1.1 2.5 2.5-1.1 2.5-2.5 2.5zM301 83.2c1.4.6 2.6 1.1 3.5 1.7 2.5 1.5 6 5 8.8 8.1H301v-9.8zM257 70c0-7.4 4.3-22.9 8.5-37.8 2.1-7.6 4.1-14.9 5.6-21 .2 16.4 1.6 45.9 8.2 55.4 1.6 2.2 3.2 4.2 4.8 5.8V93h-6.5c-7-4-20.6-13.1-20.6-23z" fill="#fff"/></svg>