<svg version="1.1" xmlns="http://www.w3.org/2000/svg" x="0" y="0" viewBox="0 0 512 512" xml:space="preserve"><path d="M333 242v-22c0-1.7-1.3-3-3-3h-1v-73c0-1.7-1.3-3-3-3h-9V0H195v141h-9c-1.7 0-3 1.3-3 3v73h-1c-1.7 0-3 1.3-3 3v22c-4.4 0-8 3.6-8 8v254c0 4.4 3.6 8 8 8h154c4.4 0 8-3.6 8-8V250c0-4.4-3.6-8-8-8z" opacity=".1" fill="#fff"/><path d="M333 242v-22c0-1.7-1.3-3-3-3h-1v-73c0-1.7-1.3-3-3-3h-9V0H195v141h-9c-1.7 0-3 1.3-3 3v73h-1c-1.7 0-3 1.3-3 3v22c-4.4 0-8 3.6-8 8v254c0 4.4 3.6 8 8 8h154c4.4 0 8-3.6 8-8V250c0-4.4-3.6-8-8-8zM274 54c0-1.7 1.3-3 3-3h19c1.7 0 3 1.3 3 3v13c0 1.7-1.3 3-3 3h-19c-1.7 0-3-1.3-3-3V54zm-61 0c0-1.7 1.3-3 3-3h19c1.7 0 3 1.3 3 3v13c0 1.7-1.3 3-3 3h-19c-1.7 0-3-1.3-3-3V54z" fill="#fff"/></svg>