<svg version="1.1" xmlns="http://www.w3.org/2000/svg" x="0" y="0" viewBox="0 0 512 512" xml:space="preserve"><path d="M341 149v355c0 4.4-3.6 8-8 8H179c-4.4 0-8-3.6-8-8V149c0-4.4 3.6-8 8-8h154c4.4 0 8 3.6 8 8zm-146-24V0h122v125H195z" opacity=".1" fill="#fff"/><path d="M341 149v355c0 4.4-3.6 8-8 8H179c-4.4 0-8-3.6-8-8V149c0-4.4 3.6-8 8-8h154c4.4 0 8 3.6 8 8zm-146-24V0h122v125H195zm79-58c0 1.7 1.3 3 3 3h19c1.7 0 3-1.3 3-3V54c0-1.7-1.3-3-3-3h-19c-1.7 0-3 1.3-3 3v13zm-61 0c0 1.7 1.3 3 3 3h19c1.7 0 3-1.3 3-3V54c0-1.7-1.3-3-3-3h-19c-1.7 0-3 1.3-3 3v13z" fill="#fff"/></svg>