<svg xmlns="http://www.w3.org/2000/svg" viewBox="0 0 512 512" xml:space="preserve"><path d="M256 176c-92.8 0-168 75.2-168 168 0 3.2.1 6.4.3 9.6 3.8 67.8 50.1 128.3 114.5 149.8 41.7 13.9 88.9 10.6 128.2-9 53.2-26.6 89.4-81.4 92.7-140.7.2-3.2.3-6.4.3-9.6 0-92.9-75.2-168.1-168-168.1zM480 0H32C14.3 0 0 14.3 0 32v66c0 16.5 12.4 30 28.4 31.8 4.7 62.9 20.8 130.3 45.1 190.4 2.1-16.5 6.4-32.5 12.9-47.8 9.3-21.9 22.5-41.6 39.4-58.5s36.6-30.2 58.5-39.4c22.7-9.6 46.8-14.5 71.6-14.5s48.9 4.9 71.6 14.5c21.9 9.3 41.6 22.5 58.5 39.4s30.2 36.6 39.4 58.5c6.5 15.4 10.8 31.4 12.9 47.8 24.4-60.1 40.5-127.5 45.1-190.4 16-1.8 28.4-15.3 28.4-31.8V32C512 14.3 497.7 0 480 0z" opacity=".1" fill="#fff"/><path d="M256 176c-92.8 0-168 75.2-168 168 0 3.2.1 6.4.3 9.6 3.8 67.8 50.1 128.3 114.5 149.8 41.7 13.9 88.9 10.6 128.2-9 53.2-26.6 89.4-81.4 92.7-140.7.2-3.2.3-6.4.3-9.6 0-92.9-75.2-168.1-168-168.1zm0 288c-66.3 0-120-53.7-120-120s53.7-120 120-120 120 53.7 120 120-53.7 120-120 120zM480 0H32C14.3 0 0 14.3 0 32v66c0 16.5 12.4 30 28.4 31.8 4.7 62.9 20.8 130.3 45.1 190.4 2.1-16.5 6.4-32.5 12.9-47.8 9.3-21.9 22.5-41.6 39.4-58.5s36.6-30.2 58.5-39.4c22.7-9.6 46.8-14.5 71.6-14.5s48.9 4.9 71.6 14.5c21.9 9.3 41.6 22.5 58.5 39.4s30.2 36.6 39.4 58.5c6.5 15.4 10.8 31.4 12.9 47.8 24.4-60.1 40.5-127.5 45.1-190.4 16-1.8 28.4-15.3 28.4-31.8V32C512 14.3 497.7 0 480 0zM24.4 105h-6V25h6v80zm17.4 0h-6V25h6v80zm17.3 0h-6V25h6v80zm17.4 0h-6V25h6v80zm17.4 0h-6V25h6v80zm17.4 0h-6V25h6v80zm17.4 0h-6V25h6v80zm17.3 0h-6V25h6v80zm17.4 0h-6V25h6v80zm17.4 0h-6V25h6v80zm17.4 0h-6V25h6v80zm17.4 0h-6V25h6v80zm17.3 0h-6V25h6v80zm17.4 0h-6V25h6v80zm17.4 0h-6V25h6v80zm17.4 0h-6V25h6v80zm17.3 0h-6V25h6v80zm17.4 0h-6V25h6v80zm17.4 0h-6V25h6v80zm17.4 0h-6V25h6v80zm17.4 0h-6V25h6v80zm17.3 0h-6V25h6v80zm17.4 0h-6V25h6v80zm17.4 0h-6V25h6v80zm17.4 0h-6V25h6v80zm17.4 0h-6V25h6v80zm17.3 0h-6V25h6v80zm17.4 0h-6V25h6v80zM270 248c0 7.7-6.3 14-14 14s-14-6.3-14-14 6.3-14 14-14 14 6.3 14 14zm-14 178c-7.7 0-14 6.3-14 14s6.3 14 14 14 14-6.3 14-14-6.3-14-14-14zm-96-96c-7.7 0-14 6.3-14 14s6.3 14 14 14 14-6.3 14-14-6.3-14-14-14zm192 0c-7.7 0-14 6.3-14 14s6.3 14 14 14 14-6.3 14-14-6.3-14-14-14zm-28.1-67.9c-7.7 0-14 6.3-14 14s6.3 14 14 14 14-6.3 14-14-6.3-14-14-14zM188.1 397.9c-7.7 0-14 6.3-14 14s6.3 14 14 14 14-6.3 14-14-6.3-14-14-14zm0-135.8c-7.7 0-14 6.3-14 14s6.3 14 14 14 14-6.3 14-14-6.3-14-14-14zm135.8 135.8c-7.7 0-14 6.3-14 14s6.3 14 14 14 14-6.3 14-14-6.3-14-14-14zM256 292c-28.7 0-52 23.3-52 52s23.3 52 52 52 52-23.3 52-52-23.3-52-52-52zm0 85c-18.2 0-33-14.8-33-33s14.8-33 33-33 33 14.8 33 33-14.8 33-33 33zm0-105c-39.8 0-72 32.2-72 72s32.2 72 72 72 72-32.2 72-72-32.2-72-72-72zm0 128c-30.9 0-56-25.1-56-56s25.1-56 56-56 56 25.1 56 56-25.1 56-56 56z" fill="#fff"/></svg>