<svg version="1.1" xmlns="http://www.w3.org/2000/svg" x="0" y="0" viewBox="0 0 512 512" xml:space="preserve"><path d="M434 317.8c0 2.8-2.3 5-5 5H83c-2.8 0-5-2.3-5-5V127.9c0-2.8 2.3-5 5-5h345.9c2.8 0 5 2.3 5 5l.1 189.9zm-323.1 78.1c0 1.1-.9 2-2 2h-98c-1.1 0-2-.9-2-2v-1c0-1.1.9-2 2-2h98c1.1 0 2 .9 2 2v1zm290.2 0c0 1.1.9 2 2 2h98c1.1 0 2-.9 2-2v-1c0-1.1-.9-2-2-2h-98c-1.1 0-2 .9-2 2v1zM248.6 106.8c-1.1 0-2 .9-2 2v2.9c0 1.1.9 2 2 2h14.8c1.1 0 2-.9 2-2v-2.9c0-1.1-.9-2-2-2h-14.8zm7.4 5.4c-1.1 0-2-.9-2-2s.9-2 2-2 2 .9 2 2-.9 2-2 2zm24.8-3.5c.8 0 1.5.7 1.5 1.5s-.7 1.5-1.5 1.5-1.5-.7-1.5-1.5.7-1.5 1.5-1.5zm-49.6 0c.8 0 1.5.7 1.5 1.5s-.7 1.5-1.5 1.5-1.5-.7-1.5-1.5.7-1.5 1.5-1.5zm188.9 253.6c-.9-.6-2.6-1-3.7-1H95.6c-1.1 0-2.8.5-3.7 1l-18.3 10.8c-.9.6-.8 1 .3 1h364.3c1.1 0 1.2-.5.3-1l-18.4-10.8z" opacity=".1" fill="#fff"/><path d="M256 108.2c1.1 0 2 .9 2 2s-.9 2-2 2-2-.9-2-2 .9-2 2-2zm251.5 273l-52.3-21c-1.5-.6-3.6-1.1-5.6-1.5.8-.9 1.4-2.1 1.4-3.4v-249c0-2.7-2.3-5-5-5.1l-185-3.8c-2.8-.1-7.3-.1-10 0l-185 3.7c-2.8.1-5 2.3-5 5.1v249.1c0 1.3.5 2.5 1.3 3.4-2 .3-4.1.9-5.5 1.5l-52.1 21c-2.6 1-4.6 4.1-4.6 6.9v8.8c0 2.8 2.1 5.9 4.6 6.9l21.5 9c2.5 1.1 6.9 1.9 9.6 1.9h440.6c2.8 0 7.1-.9 9.6-1.9l21.5-9c2.5-1.1 4.6-4.2 4.6-6.9v-8.8c0-2.8-2.1-5.8-4.6-6.9zM280.8 108.7c.8 0 1.5.7 1.5 1.5s-.7 1.5-1.5 1.5-1.5-.7-1.5-1.5.7-1.5 1.5-1.5zm-34.2.1c0-1.1.9-2 2-2h14.8c1.1 0 2 .9 2 2v2.9c0 1.1-.9 2-2 2h-14.8c-1.1 0-2-.9-2-2v-2.9zm-15.4-.1c.8 0 1.5.7 1.5 1.5s-.7 1.5-1.5 1.5-1.5-.7-1.5-1.5.7-1.5 1.5-1.5zM78 127.9c0-2.8 2.3-5 5-5h345.9c2.8 0 5 2.3 5 5l.1 189.9c0 2.8-2.3 5-5 5H83c-2.8 0-5-2.3-5-5V127.9zm32.9 268c0 1.1-.9 2-2 2h-98c-1.1 0-2-.9-2-2v-1c0-1.1.9-2 2-2h98c1.1 0 2 .9 2 2v1zm206.5-21.8H73.9c-1.1 0-1.2-.4-.3-1l18.3-10.8c.9-.5 2.6-1 3.7-1h320.8c1.1 0 2.8.4 3.7 1l18.4 10.8c.9.5.8 1-.3 1H317.4zm185.7 21.8c0 1.1-.9 2-2 2h-98c-1.1 0-2-.9-2-2v-1c0-1.1.9-2 2-2h98c1.1 0 2 .9 2 2v1z" fill="#fff"/></svg>