<svg version="1.1" xmlns="http://www.w3.org/2000/svg" x="0" y="0" viewBox="0 0 512 512" xml:space="preserve"><path d="M477.5 0h-21l-3 3h-44l-6 6H387V3H80.5l-5 5h-10l-8-8h-35c-6.6 0-12 5.4-12 12v488c0 6.6 5.4 12 12 12h467c6.6 0 12-5.4 12-12V24l-24-24z" opacity=".1" fill="#fff"/><path d="M283 162V24h67v138h-67zM501.5 24v476c0 6.6-5.4 12-12 12h-467c-6.6 0-12-5.4-12-12V12c0-6.6 5.4-12 12-12h35l8 8h10l5-5H127v155c0 6.6 5.4 12 12 12h236c6.6 0 12-5.4 12-12V9h16.5l6-6h44l3-3h21l24 24zM47 451H23v24h24v-24zm442 0h-24v24h24v-24z" fill="#fff"/></svg>