<svg version="1.1" xmlns="http://www.w3.org/2000/svg" x="0" y="0" viewBox="0 0 500 500" xml:space="preserve"><circle cx="311.7" cy="292.5" r="147.4" opacity=".1" fill="#fff"/><path d="M311.7 210.6c-45.2 0-81.9 36.7-81.9 81.9s36.7 81.9 81.9 81.9 81.9-36.7 81.9-81.9-36.7-81.9-81.9-81.9zm0 124.2c-23.4 0-42.3-18.9-42.3-42.3s18.9-42.3 42.3-42.3 42.3 18.9 42.3 42.3-18.9 42.3-42.3 42.3zm155.9-167.7c-13.9-11.5-38.5-16-51.6-30.3-13.1-14.4-29-62.5-41-68.1s-43.6-9.1-61.7-9.1-53.7 1.6-63.3 7.5c-9.6 5.9-28.1 53.5-37.2 60.1-1 .8-2.9 1.5-5.4 2.4v-6.8c.1 0-26.1-5.9-47.8-5.9-21.9 0-43.1 5.9-43.1 5.9v23.6c-4.8.8-8.9 1.5-12.2 2.1C79.6 153.1 53 156 41 160.2c-12 4.3-14.4 9.9-20.3 15.5-5.7 5.5-11.6 16-14.3 24.3-2.7 8.2-6.4 35.6-6.4 67s2.9 155.8 3.2 157.5.5 4.8 3.2 7.5 10.9 4.3 17.6 4.8c3.8.3 141 .4 259.8.5-68.1-13-119.5-72.9-119.5-144.8 0-81.4 66-147.4 147.4-147.4s147.4 66 147.4 147.4c0 71.9-51.5 131.8-119.7 144.8h117c11.6 0 24.8-5.1 31.9-11.2s11.7-16.8 11.7-22.9V215.5c0-9.3-18.7-36.9-32.4-48.4z" fill="#fff"/></svg>