<svg version="1.1" xmlns="http://www.w3.org/2000/svg" x="0" y="0" viewBox="0 0 500 500" xml:space="preserve"><path d="M90.5 152c20.5-2.5 37.8 1.4 38.7 8.6.9 7.2-15 15.1-35.5 17.6s-37.8-1.4-38.7-8.6 15-15.1 35.5-17.6zm348.2 27.7c0 1.2.9 2.1 2.1 2.1s2.1-.9 2.1-2.1c0-1.2-.9-2.1-2.1-2.1s-2.1.9-2.1 2.1zm-280-8c0 8.9 7.3 16.2 16.2 16.2s16.2-7.3 16.2-16.2-7.3-16.2-16.2-16.2-16.2 7.3-16.2 16.2zm285.5 8c0 1.2.9 2.1 2.1 2.1s2.1-.9 2.1-2.1c0-1.2-.9-2.1-2.1-2.1s-2.1.9-2.1 2.1zm5.2 0c0 1.2.9 2.1 2.1 2.1s2.1-.9 2.1-2.1c0-1.2-.9-2.1-2.1-2.1s-2.1.9-2.1 2.1zm-395.8 99c-.8 5.8 3.3 11.2 9.2 12 5.8.8 11.2-3.3 12-9.2.8-5.9-3.3-11.3-9.2-12-5.8-.8-11.2 3.4-12 9.2zm286.8 158.4c-9.3 1.8-18.9 2.8-28.7 2.8-67.4 0-124.2-45.2-141.8-107v-.1c-.3-1.1-.6-2.3-.9-3.4v-.1c-1.2-4.6-2.2-9.4-2.9-14.2 0-.2-.1-.5-.1-.7-.1-.9-.3-1.8-.4-2.7 0-.4-.1-.7-.1-1.1l-.3-2.4c0-.4-.1-.8-.1-1.3-.1-.8-.1-1.5-.2-2.3 0-.4-.1-.9-.1-1.3-.1-.8-.1-1.5-.1-2.3 0-.4-.1-.9-.1-1.3 0-.8-.1-1.6-.1-2.5v-4.7c0-2.1.1-4.3.1-6.4 3.3-78.4 68-141 147.3-141 81.4 0 147.4 66 147.4 147.4v4.8c0 .8-.1 1.6-.1 2.4 0 .5-.1.9-.1 1.4 0 .7-.1 1.4-.1 2.1 0 .5-.1 1-.1 1.5-.1.7-.1 1.4-.2 2.1 0 .5-.1 1-.2 1.5-.1.7-.2 1.4-.2 2-.1.5-.1 1-.2 1.5l-.3 2.1c-.1.5-.1.9-.2 1.4-.1.8-.2 1.5-.4 2.3-.1.4-.1.8-.2 1.2l-.6 3.3c-.1.4-.2.8-.3 1.3-.1.7-.3 1.4-.5 2.1-.1.5-.2 1-.4 1.5-.1.6-.3 1.2-.4 1.8-.1.5-.3 1.1-.4 1.6-.1.6-.3 1.1-.5 1.7s-.3 1.1-.5 1.7c-.2.5-.3 1.1-.5 1.6-.2.6-.3 1.1-.5 1.7-.2.5-.3 1-.5 1.5-.2.6-.4 1.2-.6 1.7s-.3.9-.5 1.4l-.6 1.8c-.1.4-.3.7-.4 1.1-.6 1.6-1.2 3.1-1.8 4.6 0 .1-.1.2-.1.3l-.9 2.1c-.1.3-.3.7-.4 1-.3.7-.6 1.3-.9 2-.2.3-.3.7-.5 1-.3.7-.6 1.3-1 2-.2.3-.3.7-.5 1-.3.7-.7 1.3-1 2-.2.3-.3.6-.5.9-.4.7-.7 1.4-1.1 2-.1.2-.3.5-.4.7-.4.7-.8 1.5-1.2 2.2-.1.1-.1.2-.2.3-2 3.5-4.2 6.9-6.6 10.2 0 .1-.1.1-.1.2-.5.8-1.1 1.5-1.6 2.3-.1.1-.2.2-.2.3-.5.7-1.1 1.5-1.7 2.2l-.3.3c-.6.7-1.2 1.5-1.7 2.2l-.2.2c-15.6 19.5-36.1 34.9-59.6 44.4h-.1c-.9.4-1.9.7-2.8 1.1-.1 0-.2.1-.3.1-.9.3-1.8.7-2.8 1-.1 0-.2.1-.3.1-.9.3-1.9.7-2.8 1h-.1c-3.8 1.2-7.6 2.3-11.5 3.3-.3.1-.7.2-1 .3-.7.2-1.3.3-2 .4l-1.5.3c-.6.3-1.1.4-1.7.5zM311.7 400c59.4 0 107.5-48.1 107.5-107.5S371.1 185 311.7 185s-107.5 48.1-107.5 107.5S252.3 400 311.7 400zM100.3 207c27.4-8.2 39.4-22.9 44.4-31.4-17.7 7.8-40.8 17.8-51.1 20.4-7.9 2.1-28.9 3.7-50 4.6 8.5 7.6 27.5 15.1 56.7 6.4zm211.4 167.4c-45.2 0-81.9-36.7-81.9-81.9s36.7-81.9 81.9-81.9 81.9 36.7 81.9 81.9-36.7 81.9-81.9 81.9zm0-39.6c23.4 0 42.3-18.9 42.3-42.3s-18.9-42.3-42.3-42.3-42.3 18.9-42.3 42.3 18.9 42.3 42.3 42.3z" opacity=".1" fill="#fff"/><path d="M467.6 167.1c-13.9-11.5-38.5-16-51.6-30.3-13.1-14.4-29-62.5-41-68.1s-43.6-9.1-61.7-9.1-53.7 1.6-63.3 7.5c-9.6 5.9-28.1 53.5-37.2 60.1-1 .8-2.9 1.5-5.4 2.4v-6.8c.1 0-26.1-5.9-47.8-5.9-21.9 0-43.1 5.9-43.1 5.9v23.6c-4.8.8-8.9 1.5-12.2 2.1C79.6 153.1 53 156 41 160.2c-12 4.3-14.4 9.9-20.3 15.5-5.7 5.5-11.6 16-14.3 24.3-2.7 8.2-6.4 35.6-6.4 67s2.9 155.8 3.2 157.5.5 4.8 3.2 7.5 10.9 4.3 17.6 4.8c3.8.3 141 .4 259.8.5-68.1-13-119.5-72.9-119.5-144.8 0-81.4 66-147.4 147.4-147.4s147.4 66 147.4 147.4c0 71.9-51.5 131.8-119.7 144.8h117c11.6 0 24.8-5.1 31.9-11.2s11.7-16.8 11.7-22.9V215.5c0-9.3-18.7-36.9-32.4-48.4zM90.5 152c20.5-2.5 37.8 1.4 38.7 8.6.9 7.2-15 15.1-35.5 17.6s-37.8-1.4-38.7-8.6 15-15.1 35.5-17.6zM74.8 281.5c-.8 5.9-6.2 10-12 9.2-5.9-.8-10-6.2-9.2-12s6.2-10 12-9.2c5.9.7 10 6.1 9.2 12zm25.5-74.5c-29.2 8.7-48.2 1.2-56.7-6.4 21.1-.9 42.1-2.5 50-4.6 10.3-2.6 33.4-12.6 51.1-20.4-5 8.5-17 23.2-44.4 31.4zm74.6-19.1c-8.9 0-16.2-7.3-16.2-16.2s7.3-16.2 16.2-16.2 16.2 7.3 16.2 16.2-7.3 16.2-16.2 16.2zm265.9-6.1c-1.2 0-2.1-.9-2.1-2.1s.9-2.1 2.1-2.1 2.1.9 2.1 2.1c0 1.2-.9 2.1-2.1 2.1zm5.5 0c-1.2 0-2.1-.9-2.1-2.1s.9-2.1 2.1-2.1 2.1.9 2.1 2.1c0 1.2-.9 2.1-2.1 2.1zm5.2 0c-1.2 0-2.1-.9-2.1-2.1s.9-2.1 2.1-2.1 2.1.9 2.1 2.1c0 1.2-.9 2.1-2.1 2.1zM354 292.5c0 23.4-18.9 42.3-42.3 42.3s-42.3-18.9-42.3-42.3 18.9-42.3 42.3-42.3 42.3 18.9 42.3 42.3zm65.2 0c0-59.4-48.1-107.5-107.5-107.5s-107.5 48.1-107.5 107.5S252.3 400 311.7 400s107.5-48.1 107.5-107.5zm-107.5 81.9c-45.2 0-81.9-36.7-81.9-81.9s36.7-81.9 81.9-81.9 81.9 36.7 81.9 81.9-36.7 81.9-81.9 81.9z" fill="#fff"/></svg>