<svg version="1.1" xmlns="http://www.w3.org/2000/svg" x="0" y="0" viewBox="0 0 512 512" xml:space="preserve"><path d="M265 376.8c0 1.1-.9 2-2 2h-14c-1.1 0-2-.9-2-2v-1c0-1.1.9-2 2-2h14c1.1 0 2 .9 2 2v1zm224.7-44.9c0 2.8-2.3 5-5 5H27.4c-2.8 0-5-2.3-5-5V79.3c0-2.8 2.3-5 5-5h457.3c2.8 0 5 2.3 5 5v252.6z" opacity=".1" fill="#fff"/><path d="M507 53.3H5c-2.8 0-5 2.3-5 5v297.2c0 2.8 2.3 5 5 5h223.5c-.3.4-.5.8-.5 1.3v9c0 1.1.9 2 2 2h4v64.9H108c-1.1 0-2.6.6-3.4 1.4l-18.2 18.2c-.8.8-.5 1.4.6 1.4h338c1.1 0 1.4-.6.6-1.4l-18.2-18.2c-.8-.8-2.3-1.4-3.4-1.4H278v-64.9h4c1.1 0 2-.9 2-2v-9c0-.5-.2-.9-.5-1.3H507c2.8 0 5-2.3 5-5V58.3c0-2.8-2.3-5-5-5zM265 376.8c0 1.1-.9 2-2 2h-14c-1.1 0-2-.9-2-2v-1c0-1.1.9-2 2-2h14c1.1 0 2 .9 2 2v1zm224.7-44.9c0 2.8-2.3 5-5 5H27.4c-2.8 0-5-2.3-5-5V79.3c0-2.8 2.3-5 5-5h457.3c2.8 0 5 2.3 5 5v252.6z" fill="#fff"/></svg>