<svg version="1.1" xmlns="http://www.w3.org/2000/svg" x="0" y="0" viewBox="0 0 512 512" style="enable-background:new 0 0 512 512" xml:space="preserve"><path d="m345.3 459.7 19.5-280c.2-2.2 2.1-3.9 4.3-3.7 2.2.2 3.9 2.1 3.7 4.3l-19.5 280c-.1 2.1-1.9 3.7-4 3.7h-.3c-2.2-.2-3.9-2.1-3.7-4.3zM162.7 464h.3c2.2-.2 3.9-2.1 3.7-4.3l-19.5-280c-.2-2.2-2.1-3.9-4.3-3.7-2.2.2-3.9 2.1-3.7 4.3l19.5 280c.2 2.1 2 3.7 4 3.7zm121.3 0h.1c2.1 0 3.9-1.7 4-3.9l9.8-280c.1-2.2-1.7-4.1-3.9-4.1-2.2-.1-4.1 1.6-4.1 3.9l-9.8 280c-.1 2.2 1.7 4 3.9 4.1zm-56.1 0h.1c2.2-.1 3.9-1.9 3.9-4.1l-9.8-280c-.1-2.2-1.9-3.9-4.1-3.9-2.2.1-3.9 1.9-3.9 4.1l9.8 280c.1 2.2 1.8 3.9 4 3.9zM483 55v35.1c0 5.5-4.5 10-10 10h-35.1l-1.5 39.8-21.8 332.2C413.2 494 394 512 372 512H140c-22 0-41.2-18-42.6-39.9L75.6 139.9l-1.5-39.8H39c-5.5 0-10-4.5-10-10V55c0-5.5 4.5-10 10-10h135.7V10c0-5.5 4.5-10 10-10h142.6c5.5 0 10 4.5 10 10v35H473c5.5 0 10 4.5 10 10zM182.7 45H201V32c0-9.9 8.1-18 18-18h74c9.9 0 18 8.1 18 18v13h18.3V10c0-1.1-.9-2-2-2H184.7c-1.1 0-2 .9-2 2v35zM303 32c0-5.5-4.5-10-10-10h-74c-5.5 0-10 4.5-10 10v13h94V32zm126.9 68.1H82.1l1.5 39.4 21.8 332.1c.6 8.6 4.5 16.7 11.1 22.9 6.6 6.2 14.9 9.6 23.5 9.6h232c8.6 0 17-3.4 23.5-9.6 6.6-6.2 10.5-14.3 11.1-22.9l21.8-332.1 1.5-39.4zM475 55c0-1.1-.9-2-2-2H39c-1.1 0-2 .9-2 2v35.1c0 1.1.9 2 2 2h434c1.1 0 2-.9 2-2V55z" style="fill:#fff"/></svg>