<svg xmlns="http://www.w3.org/2000/svg" viewBox="0 0 512 512" xml:space="preserve"><path d="M274.5 81V8c0-4.4 3.6-8 8-8h27c4.4 0 8 3.6 8 8v73h-43zm-37 0V8c0-4.4-3.6-8-8-8h-27c-4.4 0-8 3.6-8 8v73h43zm175.1 21.6c-.2-.8-.6-1.5-1-2.1-.6-.9-1.3-1.6-2.2-2.2-.6-.4-1.3-.8-2.1-1-.3-.1-.5-.1-.8-.2-.5-.1-1.1-.2-1.6-.2H107c-1.1 0-2.2.2-3.1.6-.5.2-.9.5-1.4.7-1.1.7-1.9 1.7-2.6 2.8-.2.5-.5.9-.6 1.4-.1.3-.1.5-.2.8-.1.5-.2 1.1-.2 1.6v302c0 4.4 3.6 8 8 8h298c.6 0 1.1-.1 1.6-.2.3-.1.5-.1.8-.2.5-.2 1-.4 1.4-.6 1.1-.6 2.1-1.5 2.8-2.6.3-.4.5-.9.7-1.4.4-1 .6-2 .6-3.1V105c0-.6-.1-1.1-.2-1.6.2-.3.1-.5 0-.8zM397.5 81V8c0-4.4-3.6-8-8-8h-27c-4.4 0-8 3.6-8 8v73h43zm-203 350v73c0 4.4 3.6 8 8 8h27c4.4 0 8-3.6 8-8v-73h-43zm160 0v73c0 4.4 3.6 8 8 8h27c4.4 0 8-3.6 8-8v-73h-43zm-80 0v73c0 4.4 3.6 8 8 8h27c4.4 0 8-3.6 8-8v-73h-43zm-117-350V8c0-4.4-3.6-8-8-8h-27c-4.4 0-8 3.6-8 8v73h43zm-43 350v73c0 4.4 3.6 8 8 8h27c4.4 0 8-3.6 8-8v-73h-43z" fill="#fff"/></svg>