<svg version="1.1" xmlns="http://www.w3.org/2000/svg" x="0" y="0" viewBox="0 0 512 512" xml:space="preserve"><path d="M490 76.5H134V76c0-1.1-.9-2-2-2H91c-1.1 0-2 .9-2 2v.5H69V76c0-1.1-.9-2-2-2H48c-1.1 0-2 .9-2 2v.5H22c-12.2 0-22 9.8-22 22v315c0 12.2 9.8 22 22 22h468c12.2 0 22-9.8 22-22v-315c0-12.2-9.8-22-22-22z" opacity=".1" fill="#fff"/><path d="M490 76.5H134V76c0-1.1-.9-2-2-2H91c-1.1 0-2 .9-2 2v.5H69V76c0-1.1-.9-2-2-2H48c-1.1 0-2 .9-2 2v.5H22c-12.2 0-22 9.8-22 22v315c0 12.2 9.8 22 22 22h468c12.2 0 22-9.8 22-22v-315c0-12.2-9.8-22-22-22zm-277.5 17c1.7 0 3 1.3 3 3s-1.3 3-3 3-3-1.3-3-3 1.3-3 3-3zm-16 .5c1.4 0 2.5 1.1 2.5 2.5s-1.1 2.5-2.5 2.5-2.5-1.1-2.5-2.5 1.1-2.5 2.5-2.5zm1.5 327.3h-6.3v-1h6.3v1zm0-2.3h-6.3v-1h6.3v1zm2.2-2v5h-1v-5h-8.9v5h-1v-5.3c0-.4.3-.7.7-.7h9.5c.4 0 .7.3.7.7v.3zm72.8 4c0 2.2-1.8 4-4 4h-26c-2.2 0-4-1.8-4-4v-4c0-2.2 1.8-4 4-4h26c2.2 0 4 1.8 4 4v4zm46.8 1.4h-6.4v-1h6.4c1 0 1.8-.8 1.8-1.8s-.8-1.8-1.8-1.8h-3.4v1.3l-4-1.5c-.3-.1-.3-.5 0-.6l4-1.5v1.4h3.4c1.6 0 2.8 1.2 2.8 2.7s-1.2 2.8-2.8 2.8zM484 398H28V114h456v284z" fill="#fff"/></svg>