<svg xmlns="http://www.w3.org/2000/svg" viewBox="0 0 512 512" xml:space="preserve"><path d="M93.5 337v-22c0-2.2 1.8-4 4-4h11v-6c0-2.2 1.8-4 4-4h22v50h-22c-2.2 0-4-1.8-4-4v-6h-11c-2.2 0-4-1.8-4-4zm4-136h11v6c0 2.2 1.8 4 4 4h22v-50h-22c-2.2 0-4 1.8-4 4v6h-11c-2.2 0-4 1.8-4 4v22c0 2.2 1.8 4 4 4zm0 210h11v6c0 2.2 1.8 4 4 4h22v-50h-22c-2.2 0-4 1.8-4 4v6h-11c-2.2 0-4 1.8-4 4v22c0 2.2 1.8 4 4 4zm37 30h-22c-2.2 0-4 1.8-4 4v6h-11c-2.2 0-4 1.8-4 4v22c0 2.2 1.8 4 4 4h11v6c0 2.2 1.8 4 4 4h22v-50zM361.4 3.2c-.3-1.6-1.6-2.8-3.1-3.1-.3-.1-.5-.1-.8-.1h-203c-.3 0-.5 0-.8.1-1.6.3-2.8 1.6-3.1 3.1-.1.3-.1.5-.1.8v504c0 .6.1 1.1.3 1.6.2.5.5.9.9 1.3.2.2.4.3.6.5.4.3.9.5 1.4.6.3.1.5.1.8.1h203c.3 0 .5 0 .8-.1.5-.1 1-.3 1.4-.6.2-.1.4-.3.6-.5.4-.4.7-.8.9-1.3.2-.5.3-1 .3-1.6V4c0-.3 0-.5-.1-.8zM97.5 61h11v6c0 2.2 1.8 4 4 4h22V21h-22c-2.2 0-4 1.8-4 4v6h-11c-2.2 0-4 1.8-4 4v22c0 2.2 1.8 4 4 4zm0 70h11v6c0 2.2 1.8 4 4 4h22V91h-22c-2.2 0-4 1.8-4 4v6h-11c-2.2 0-4 1.8-4 4v22c0 2.2 1.8 4 4 4zm0 140h11v6c0 2.2 1.8 4 4 4h22v-50h-22c-2.2 0-4 1.8-4 4v6h-11c-2.2 0-4 1.8-4 4v22c0 2.2 1.8 4 4 4zm317-170h-11v-6c0-2.2-1.8-4-4-4h-22v50h22c2.2 0 4-1.8 4-4v-6h11c2.2 0 4-1.8 4-4v-22c0-2.2-1.8-4-4-4zm0 70h-11v-6c0-2.2-1.8-4-4-4h-22v50h22c2.2 0 4-1.8 4-4v-6h11c2.2 0 4-1.8 4-4v-22c0-2.2-1.8-4-4-4zm0-140h-11v-6c0-2.2-1.8-4-4-4h-22v50h22c2.2 0 4-1.8 4-4v-6h11c2.2 0 4-1.8 4-4V35c0-2.2-1.8-4-4-4zm0 420h-11v-6c0-2.2-1.8-4-4-4h-22v50h22c2.2 0 4-1.8 4-4v-6h11c2.2 0 4-1.8 4-4v-22c0-2.2-1.8-4-4-4zm0-70h-11v-6c0-2.2-1.8-4-4-4h-22v50h22c2.2 0 4-1.8 4-4v-6h11c2.2 0 4-1.8 4-4v-22c0-2.2-1.8-4-4-4zm0-70h-11v-6c0-2.2-1.8-4-4-4h-22v50h22c2.2 0 4-1.8 4-4v-6h11c2.2 0 4-1.8 4-4v-22c0-2.2-1.8-4-4-4zm0-70h-11v-6c0-2.2-1.8-4-4-4h-22v50h22c2.2 0 4-1.8 4-4v-6h11c2.2 0 4-1.8 4-4v-22c0-2.2-1.8-4-4-4z" fill="#fff"/></svg>