<svg version="1.1" xmlns="http://www.w3.org/2000/svg" x="0" y="0" viewBox="0 0 512 512" xml:space="preserve"><path d="M333.7 293.5c.9 1.6 1.3 3.5 1.3 5.3V490c0 6.6-5.4 12-12 12h-51.5c-2.7 5.9-8.6 10-15.5 10s-12.8-4.1-15.5-10H189c-6.6 0-12-5.4-12-12V298.9c0-1.9.5-3.7 1.3-5.4l1.7-3.4v-23.3c-3.9-9.5-6-19.9-6-30.8s2.1-21.3 6-30.8V128c0-6.6 5.4-12 12-12h6V0h116v116h6c6.6 0 12 5.4 12 12v77.2c3.9 9.5 6 19.9 6 30.8s-2.1 21.3-6 30.8v23.3l1.7 3.4zm-66.7 201c-3.3-1.6-7-2.5-11-2.5s-7.7.9-11 2.5v.5c0 6.1 4.9 11 11 11s11-4.9 11-11v-.5z" opacity=".1" fill="#fff"/><path d="M310 236c0 29.8-24.2 54-54 54s-54-24.2-54-54 24.2-54 54-54 54 24.2 54 54zm23.7 57.5c.9 1.6 1.3 3.5 1.3 5.3V490c0 6.6-5.4 12-12 12h-51.5c-2.7 5.9-8.6 10-15.5 10s-12.8-4.1-15.5-10H189c-6.6 0-12-5.4-12-12V298.9c0-1.9.5-3.7 1.3-5.4l1.7-3.4v-23.3c-3.9-9.5-6-19.9-6-30.8s2.1-21.3 6-30.8V128c0-6.6 5.4-12 12-12h6V0h116v116h6c6.6 0 12 5.4 12 12v77.2c3.9 9.5 6 19.9 6 30.8s-2.1 21.3-6 30.8v23.3l1.7 3.4zm-60.6-230c0 1.7 1.3 3 3 3h17.8c1.6 0 3-1.3 3-2.9V51.5c0-1.7-1.3-3-3-3h-17.8c-1.7 0-3 1.3-3 3v12zM291 130v31.8c3.5 1.6 6.8 3.5 10 5.6V130h-10zm-20 25.4c3.4.6 6.8 1.5 10 2.5V130h-10v25.4zm-20-1.2c1.7-.1 3.3-.2 5-.2 1.7 0 3.3.1 5 .2V130h-10v24.2zm-35.9-90.7c0 1.7 1.3 3 3 3h17.8c1.6 0 3-1.3 3-2.9V51.5c0-1.7-1.3-3-3-3h-17.8c-1.7 0-3 1.3-3 3v12zM231 130v27.9c3.2-1 6.6-1.9 10-2.5V130h-10zm-20 37.5c3.2-2.1 6.5-4 10-5.6V130h-10v37.5zM191 186c3-3.9 6.3-7.5 10-10.8V130h-10v56zm40 143.8c-3.4-.9-6.7-2-10-3.3V483c3.3-1.3 6.6-2.3 10-3.3V329.8zm20 146.8V332.9c-3.4-.2-6.7-.5-10-1v145.7c3.3-.5 6.6-.9 10-1zm16 17.9c-3.3-1.6-7-2.5-11-2.5s-7.7.9-11 2.5v.5c0 6.1 4.9 11 11 11s11-4.9 11-11v-.5zm4-162.6c-3.3.5-6.6.9-10 1v143.7c3.4.2 6.7.5 10 1V331.9zm20-5.5c-3.3 1.3-6.6 2.4-10 3.3v149.9c3.4.9 6.7 2 10 3.3V326.4zm29-90.4c0-12-3.3-23.1-9-32.7-1.3-2.3-2.8-4.4-4.4-6.5-.1-.2-.2-.3-.4-.5-.7-.9-1.5-1.8-2.3-2.7-.1-.1-.1-.2-.2-.2-.9-1-1.8-1.9-2.7-2.9-3-3-6.4-5.7-10-8.1-3.1-2.1-6.5-3.9-10-5.3-3.2-1.4-6.6-2.5-10-3.3-3.2-.8-6.6-1.3-10-1.6-1.7-.1-3.3-.2-5-.2s-3.3.1-5 .2c-3.4.3-6.8.8-10 1.6-3.5.8-6.8 1.9-10 3.3-3.5 1.5-6.8 3.3-10 5.3-3.6 2.4-7 5.1-10 8.1-.9.9-1.8 1.9-2.7 2.9-.1.1-.1.2-.2.2-.8.9-1.5 1.8-2.3 2.7-.1.2-.2.3-.4.5-1.6 2.1-3.1 4.2-4.4 6.5-5.7 9.6-9 20.8-9 32.7 0 12 3.3 23.1 9 32.7 1.3 2.3 2.8 4.4 4.4 6.5.1.2.2.3.4.5.7.9 1.5 1.8 2.3 2.7.1.1.1.2.2.2.9 1 1.8 1.9 2.7 2.9 3 3 6.4 5.7 10 8.1 3.1 2.1 6.5 3.9 10 5.3.9.4 1.8.7 2.7 1.1.6.2 1.2.4 1.9.6l.9.3c.6.2 1.1.3 1.7.5l1.2.3c.5.1 1.1.3 1.6.4.4.1.9.2 1.3.3l1.5.3 1.5.3c.5.1 1 .2 1.5.2.6.1 1.1.1 1.7.2.4.1.9.1 1.3.2.7.1 1.3.1 2 .1.4 0 .7.1 1.1.1 1 0 2.1.1 3.1.1s2.1 0 3.1-.1c.4 0 .7-.1 1.1-.1.7 0 1.3-.1 2-.1.4 0 .9-.1 1.3-.2.6-.1 1.1-.1 1.7-.2.5-.1 1-.2 1.5-.2l1.5-.3 1.5-.3c.4-.1.9-.2 1.3-.3.5-.1 1.1-.3 1.6-.4l1.2-.3c.6-.2 1.1-.3 1.7-.5l.9-.3c.6-.2 1.3-.4 1.9-.6.9-.3 1.8-.7 2.7-1.1 3.5-1.5 6.8-3.3 10-5.3 3.6-2.4 7-5.1 10-8.1.9-.9 1.8-1.9 2.7-2.9.1-.1.1-.2.2-.2.8-.9 1.5-1.8 2.3-2.7.1-.2.2-.3.4-.5 1.6-2.1 3.1-4.2 4.4-6.5 5.7-9.6 9-20.7 9-32.7zm1-106h-10v45.2c3.7 3.3 7 6.9 10 10.8v-56z" fill="#fff"/></svg>