<svg version="1.1" xmlns="http://www.w3.org/2000/svg" x="0" y="0" viewBox="0 0 512 512" xml:space="preserve"><path d="M228.3 39V1.8c0-1 .8-1.8 1.9-1.8h51.7c1 0 1.8.8 1.8 1.8V39h-55.4zm-22.1 403h99.7v70h-99.7v-70zM319 69h-4V58c0-1.7-1.3-3-3-3H200c-1.7 0-3 1.3-3 3v11h-4c-4.4 0-8 3.6-8 8v341c0 4.4 3.6 8 8 8h126c4.4 0 8-3.6 8-8V77c0-4.4-3.6-8-8-8z" opacity=".1" fill="#fff"/><path d="M228.3 39V1.8c0-1 .8-1.8 1.9-1.8h51.7c1 0 1.8.8 1.8 1.8V39h-55.4zm-22.1 403h99.7v70h-99.7v-70zm64.4 31.9c0 1.4 1.1 2.5 2.5 2.5h15.5c1.4 0 2.5-1.1 2.5-2.5v-10.6c0-1.4-1-2.5-2.5-2.5h-15.5c-1.4 0-2.5 1.1-2.5 2.5v10.6zm-49.8 0c0 1.4 1.1 2.5 2.5 2.5h15.5c1.4 0 2.5-1.1 2.5-2.5v-10.6c0-1.4-1.1-2.5-2.5-2.5h-15.5c-1.4 0-2.5 1.1-2.5 2.5v10.6zM319 69h-4V58c0-1.7-1.3-3-3-3H200c-1.7 0-3 1.3-3 3v11h-4c-4.4 0-8 3.6-8 8v341c0 4.4 3.6 8 8 8h126c4.4 0 8-3.6 8-8V77c0-4.4-3.6-8-8-8z" fill="#fff"/></svg>