<svg version="1.1" xmlns="http://www.w3.org/2000/svg" x="0" y="0" viewBox="0 0 512 512" xml:space="preserve"><path d="m414.7 25.2-90.7-.1V8c0-1.1-.9-2-2-2h-12V0h-86v6h-10c-1.1 0-2 .9-2 2v17l-114.3-.1c-26.5 0-48 21.4-48 48l-.4 391c0 26.5 21.4 48 48 48l317 .3c26.5 0 48-21.4 48-48l.4-391c0-26.5-21.5-48-48-48zM105.8 449.4c-17.1 0-31-13.9-31-31s13.9-31 31-31 31 13.9 31 31-13.9 31-31 31zm.3-300c-17.1 0-31-13.9-31-31s13.9-31 31-31 31 13.9 31 31-13.9 31-31 31zm299.7 300.2c-17.1 0-31-13.9-31-31s13.9-31 31-31 31 13.9 31 31c0 17.2-13.9 31.1-31 31zm.3-300c-17.1 0-31-13.9-31-31s13.9-31 31-31 31 13.9 31 31c0 17.2-13.9 31.1-31 31z" opacity=".1" fill="#fff"/><path d="M462.7 73.2c0-26.5-21.5-48-48-48h-7l-83.7-.1V8c0-1.1-.9-2-2-2h-12V0h-86v6h-10c-1.1 0-2 .9-2 2v17H95.5c-.4 0-.7 0-1.1.1-.4 0-.7.1-1.1.1-.4 0-.7.1-1 .1-.6.1-1.1.1-1.7.2-.4.1-.8.1-1.2.2-.4.1-.7.1-1.1.2-.4.1-.7.1-1.1.2-.3.1-.7.1-1 .2-.4.1-.7.2-1.1.3-.4.1-.7.2-1.1.3l-1.8.6c-.2.1-.4.1-.5.2-11.1 3.8-20.3 11.6-26 21.6 0 0 0 .1-.1.1-1 1.7-1.8 3.4-2.6 5.2-.1.2-.1.3-.2.5-.3.7-.5 1.3-.8 2-.1.3-.2.7-.4 1-.2.5-.3 1-.5 1.5-.1.4-.3.9-.4 1.3-.1.3-.2.7-.2 1-.3 1.1-.5 2.2-.7 3.3 0 .2-.1.4-.1.6-.1.7-.2 1.4-.3 2 0 .2 0 .4-.1.5-.1 1.5-.2 3-.2 4.6l-.4 391v2.5C50 491.8 70.9 512 96.6 512l315 .3h4.4c.7 0 1.3-.1 1.9-.1h.5c23.3-2.3 41.7-21.3 43-44.9v-2.7l1.3-391.4zm-70.6-43.1c2.3 1.4 3.9 3.9 3.9 6.9v26c0 4.4-3.6 8-8 8h-10c-4.4 0-8-3.6-8-8V37c0-2.9 1.6-5.5 3.9-6.9h18.2zm65.5 156.8c-1 .4-2 .6-3.1.6h-11c-4.4 0-8-3.6-8-8v-2c0-4.4 3.6-8 8-8h11c1.1 0 2.2.2 3.1.6v16.8zm-14.1 17.8h11c1.1 0 2.1.2 3.1.6v16.8c-.9.4-2 .6-3.1.6h-11c-4.4 0-8-3.6-8-8v-2c0-4.4 3.6-8 8-8zm0 35.2h11c1.1 0 2.1.2 3 .6v16.8c-.9.4-2 .6-3 .6h-11c-4.4 0-8-3.6-8-8v-2c0-4.4 3.6-8 8-8zm0 35.2h11c1.1 0 2.1.2 3 .6v16.8c-.9.4-1.9.6-3 .6h-11c-4.4 0-8-3.6-8-8v-2c0-4.4 3.6-8 8-8zm0 35.2h11c1 0 2 .2 3 .6v16.9c-.9.4-1.9.6-3 .6h-11c-4.4 0-8-3.6-8-8v-2c0-4.5 3.6-8.1 8-8.1zm-37.4-160.7c-17.1 0-31-13.9-31-31s13.9-31 31-31 31 13.9 31 31c0 17.2-13.9 31.1-31 31zM429.5 468h-4c-1.1 0-2-.9-2-2v-4c0-1.1.9-2 2-2h4c1.1 0 2 .9 2 2v4c0 1.1-.9 2-2 2zm2 24v4c0 1.1-.9 2-2 2h-4c-1.1 0-2-.9-2-2v-4c0-1.1.9-2 2-2h4c1.1 0 2 .9 2 2zm-25.7-42.4c-17.1 0-31-13.9-31-31s13.9-31 31-31 31 13.9 31 31c0 17.2-13.9 31.1-31 31zM421 479c0 8.3-6.7 15-15 15s-15-6.7-15-15 6.7-15 15-15 15 6.7 15 15zm-34.5-11h-4c-1.1 0-2-.9-2-2v-4c0-1.1.9-2 2-2h4c1.1 0 2 .9 2 2v4c0 1.1-.9 2-2 2zm2 24v4c0 1.1-.9 2-2 2h-4c-1.1 0-2-.9-2-2v-4c0-1.1.9-2 2-2h4c1.1 0 2 .9 2 2zm-.5-210.9-.1 81h-26l.1-81h26zm-26-31 .1-81h26l-.1 81h-26zm2 230.4V464c0-1.1.9-2 2-2h7c1.1 0 2 .9 2 2v23c0 1.1-.9 2-2 2h-7c-1.1 0-2-.9-2-2v-6.5zm44-275.8h11c4.4 0 8 3.6 8 8v2c0 4.4-3.6 8-8 8h-11c-4.4 0-8-3.6-8-8v-2c0-4.4 3.6-8 8-8zm-8-25.2v-2c0-4.4 3.6-8 8-8h11c4.4 0 8 3.6 8 8v2c0 4.4-3.6 8-8 8h-11c-4.4 0-8-3.6-8-8zm8 60.4h11c4.4 0 8 3.6 8 8v2c0 4.4-3.6 8-8 8h-11c-4.4 0-8-3.6-8-8v-2c0-4.4 3.6-8 8-8zm0 35.2h11c4.4 0 8 3.6 8 8v2c0 4.4-3.6 8-8 8h-11c-4.4 0-8-3.6-8-8v-2c0-4.4 3.6-8 8-8zm0 35.2h11c4.4 0 8 3.6 8 8v2c0 4.4-3.6 8-8 8h-11c-4.4 0-8-3.6-8-8v-2c0-4.4 3.6-8 8-8zm0 35.2h11c4.4 0 8 3.6 8 8v2c0 4.4-3.6 8-8 8h-11c-4.4 0-8-3.6-8-8v-2c0-4.4 3.6-8 8-8zM329.3 481v22.9c0 1.1-.9 2.1-2.1 2.1h-7c-1.1 0-2.1-.9-2.1-2.1V481h-9.5v22.9c0 1.1-.9 2.1-2.1 2.1h-7c-1.1 0-2.1-.9-2.1-2.1V481h-9.5v22.9c0 1.1-.9 2.1-2.1 2.1h-7c-1.1 0-2.1-.9-2.1-2.1V481h-1.9c-1.1 0-2.1-.9-2.1-2.1V401c0-1.1.9-2.1 2.1-2.1h1.9V376c0-1.1.9-2.1 2.1-2.1h7c1.1 0 2.1.9 2.1 2.1v23h9.5v-22.9c0-1.1.9-2.1 2.1-2.1h7c1.1 0 2.1.9 2.1 2.1V399h9.5v-22.9c0-1.1.9-2.1 2.1-2.1h7c1.1 0 2.1.9 2.1 2.1V399h9.5v-22.9c0-1.1.9-2.1 2.1-2.1h7c1.1 0 2.1.9 2.1 2.1V399h1.9c1.1 0 2.1.9 2.1 2.1V479c0 1.1-.9 2.1-2.1 2.1H350V504c0 1.1-.9 2.1-2.1 2.1h-7c-1.1 0-2.1-.9-2.1-2.1v-23h-9.5zM257 152v14c0 1.7-1.3 3-3 3h-12c-1.7 0-3-1.3-3-3v-.5h-6c-1.7 0-3-1.3-3-3v-6c0-1.7 1.3-3 3-3h6v-9h-6c-1.7 0-3-1.3-3-3v-6c0-1.7 1.3-3 3-3h6v-.5c0-1.7 1.3-3 3-3h12c1.7 0 3 1.3 3 3v14h8v-1c0-1.1.9-2 2-2h7c1.1 0 2 .9 2 2v8c0 1.1-.9 2-2 2h-7c-1.1 0-2-.9-2-2v-1h-8zm4.5-70v18c0 1.1-.9 2-2 2h-3c-1.1 0-2-.9-2-2V82h-3v18c0 1.1-.9 2-2 2h-3c-1.1 0-2-.9-2-2V82H241v-3.5c0-1-.4-1.9-1-2.6l-3.1-3.6c-1.1-1.3-.2-3.3 1.5-3.3h9.6c1.1 0 2-.9 2-2s.9-2 2-2h4.5c1.1 0 2 .9 2 2v15h3zm8.5 35.5c0 4.7-3.8 8.5-8.5 8.5s-8.5-3.8-8.5-8.5 3.8-8.5 8.5-8.5 8.5 3.8 8.5 8.5zm-5.5-17.5V82h7v18c0 1.1-.9 2-2 2h-3c-1.1 0-2-.9-2-2zm-23 9c4.7 0 8.5 3.8 8.5 8.5s-3.8 8.5-8.5 8.5-8.5-3.8-8.5-8.5 3.8-8.5 8.5-8.5zm31.5 8.5c0-4.7 3.8-8.5 8.5-8.5s8.5 3.8 8.5 8.5-3.8 8.5-8.5 8.5-8.5-3.8-8.5-8.5zm38 48.5h23c1.1 0 2 .9 2 2v7c0 1.1-.9 2-2 2h-23c-1.1 0-2-.9-2-2v-7c0-1.1.9-2 2-2zm-1-10.5c0-4.7 3.8-8.5 8.5-8.5s8.5 3.8 8.5 8.5-3.8 8.5-8.5 8.5-8.5-3.8-8.5-8.5zM345.5 308c1.1 0 2 .9 2 2v7c0 1.1-.9 2-2 2h-8c-1.1 0-2-.9-2-2v-7c0-1.1.9-2 2-2h1v-8h-19v8h1c1.1 0 2 .9 2 2v7c0 1.1-.9 2-2 2h-8c-1.1 0-2-.9-2-2v-7c0-1.1.9-2 2-2h1v-8H312c-1.7 0-3-1.3-3-3v-12c0-1.7 1.3-3 3-3h11v-6c0-1.7 1.3-3 3-3h6c1.7 0 3 1.3 3 3v6h11c1.7 0 3 1.3 3 3v12c0 1.7-1.3 3-3 3h-1.5v8h1zM325 334.5V351c0 1.1-.9 2-2 2h-7c-1.1 0-2-.9-2-2v-23c0-1.1.9-2 2-2h7c1.1 0 2 .9 2 2v6.5zm9.5 24.5h6.5c1.1 0 2 .9 2 2v7c0 1.1-.9 2-2 2h-23c-1.1 0-2-.9-2-2v-7c0-1.1.9-2 2-2h16.5zm13.5-96h-23c-1.1 0-2-.9-2-2v-7c0-1.1.9-2 2-2h23c1.1 0 2 .9 2 2v7c0 1.1-.9 2-2 2zm1-40h-14v8h1c1.1 0 2 .9 2 2v7c0 1.1-.9 2-2 2h-8c-1.1 0-2-.9-2-2v-7c0-1.1.9-2 2-2h1v-8h-14c-1.7 0-3-1.3-3-3v-12c0-1.7 1.3-3 3-3h.5v-6c0-1.7 1.3-3 3-3h6c1.7 0 3 1.3 3 3v6h9v-6c0-1.7 1.3-3 3-3h6c1.7 0 3 1.3 3 3v6h.5c1.7 0 3 1.3 3 3v12c0 1.7-1.3 3-3 3zm1-30h-7c-1.1 0-2-.9-2-2v-23c0-1.1.9-2 2-2h7c1.1 0 2 .9 2 2v23c0 1.1-.9 2-2 2zm-8.5-29c-4.7 0-8.5-3.8-8.5-8.5s3.8-8.5 8.5-8.5 8.5 3.8 8.5 8.5-3.8 8.5-8.5 8.5zM311 181h23c1.1 0 2 .9 2 2v7c0 1.1-.9 2-2 2h-23c-1.1 0-2-.9-2-2v-7c0-1.1.9-2 2-2zm-.5 60c4.7 0 8.5 3.8 8.5 8.5s-3.8 8.5-8.5 8.5-8.5-3.8-8.5-8.5 3.8-8.5 8.5-8.5zm-2.5-87.3c0 1.1-.9 2-2 2h-23c-1.1 0-2-.9-2-2v-7c0-1.1.9-2 2-2h23c1.1 0 2 .9 2 2v7zm-9-81.4-3.1 3.6c-.6.7-1 1.7-1 2.6V82h-3.5v18c0 1.1-.9 2-2 2h-3c-1.1 0-2-.9-2-2V82h-3v18c0 1.1-.9 2-2 2h-3c-1.1 0-2-.9-2-2V82h3V67c0-1.1.9-2 2-2h4.5c1.1 0 2 .9 2 2s.9 2 2 2h9.6c1.8 0 2.7 2 1.5 3.3zM286.5 159c4.7 0 8.5 3.8 8.5 8.5s-3.8 8.5-8.5 8.5-8.5-3.8-8.5-8.5 3.8-8.5 8.5-8.5zm61 194H331c-1.1 0-2-.9-2-2v-7c0-1.1.9-2 2-2h23c1.1 0 2 .9 2 2v7c0 1.1-.9 2-2 2h-6.5zm4-219H335c-1.1 0-2-.9-2-2v-7c0-1.1.9-2 2-2h23c1.1 0 2 .9 2 2v7c0 1.1-.9 2-2 2h-6.5zm6.5-14.7h-23c-1.1 0-2-.9-2-2v-7c0-1.1.9-2 2-2h23c1.1 0 2 .9 2 2v7c0 1.1-.9 2-2 2zm0-14.6h-23c-1.1 0-2-.9-2-2v-7c0-1.1.9-2 2-2h23c1.1 0 2 .9 2 2v7c0 1.1-.9 2-2 2zm0-14.7h-23c-1.1 0-2-.9-2-2v-7c0-1.1.9-2 2-2h23c1.1 0 2 .9 2 2v7c0 1.1-.9 2-2 2zm-35 27.5c0 4.7-3.8 8.5-8.5 8.5s-8.5-3.8-8.5-8.5 3.8-8.5 8.5-8.5 8.5 3.8 8.5 8.5zM309.5 37v6c0 1.7-1.3 3-3 3h-7c-1.7 0-3-1.3-3-3V21c0-1.7 1.3-3 3-3h7c1.7 0 3 1.3 3 3v16zm-73-19c1.7 0 3 1.3 3 3v22c0 1.7-1.3 3-3 3h-7c-1.7 0-3-1.3-3-3V21c0-1.7 1.3-3 3-3h7zm-12.1 172.9v-18.2c0-.4.3-.8.8-.8h3.8c.4 0 .8.3.8.8v24.8h2.3v-24.8c0-.4.3-.8.8-.8h3.8c.4 0 .8.3.8.8v24.8h2.3v-24.8c0-.4.3-.8.8-.8h3.8c.4 0 .8.3.8.8v24.8h2.3v-24.8c0-.4.3-.8.8-.8h3.8c.4 0 .8.3.8.8v24.8c6.6.1 11.8 5.4 11.9 11.9h24.8c.4 0 .8.3.8.8v3.8c0 .4-.3.8-.8.8h-25.2v2.3h24.8c.4 0 .8.3.8.8v3.8c0 .4-.3.8-.8.8h-24.8v2.3h24.8c.4 0 .8.3.8.8v3.8c0 .4-.3.8-.8.8h-24.8v2.3h24.8c.4 0 .8.3.8.8v3.8c0 .4-.3.8-.8.8h-24.8v2.3h24.8c.4 0 .8.3.8.8v3.8c0 .4-.3.8-.8.8h-24.8v2.3h24.8c.4 0 .8.3.8.8v3.8c0 .4-.3.8-.8.8h-24.8v2.3h24.8c.4 0 .8.3.8.8v3.8c0 .4-.3.8-.8.8h-24.8v2.3h24.8c.4 0 .8.3.8.8v3.8c0 .4-.3.8-.8.8h-24.8v2.3h24.8c.4 0 .8.3.8.8v3.8c0 .4-.3.8-.8.8h-24.8v2.3h24.8c.4 0 .8.3.8.8v3.8c0 .4-.3.8-.8.8h-24.8v2.3h24.8c.4 0 .8.3.8.8v3.8c0 .4-.3.8-.8.8h-24.8v2.3h24.8c.4 0 .8.3.8.8v3.8c0 .4-.3.8-.8.8h-24.8v2.3h24.8c.4 0 .8.3.8.8v3.8c0 .4-.3.8-.8.8h-24.8v2.3h24.8c.4 0 .8.3.8.8v3.8c0 .4-.3.8-.8.8h-24.8v2.3h24.8c.4 0 .8.3.8.8v3.8c0 .4-.3.8-.8.8h-24.8v2.3h24.8c.4 0 .8.3.8.8v3.8c0 .4-.3.8-.8.8h-24.8c-.1 6.6-5.4 11.8-11.9 11.9V367c0 .4-.3.8-.8.8h-3.8c-.4 0-.8-.3-.8-.8v-26.5h-2.3v24.8c0 .4-.3.8-.8.8h-3.8c-.4 0-.8-.3-.8-.8v-24.8h-2.3v24.8c0 .4-.3.8-.8.8h-3.8c-.4 0-.8-.3-.8-.8v-24.8h-2.3v24.8c0 .4-.3.8-.8.8h-3.8c-.4 0-.8-.3-.8-.8v-24.8h-2.3v24.8c0 .4-.3.8-.8.8h-3.8c-.4 0-.8-.3-.8-.8v-24.8H214v24.8c0 .4-.3.8-.8.8h-3.8c-.4 0-.8-.3-.8-.8v-24.8H207v24.8c0 .4-.3.8-.8.8h-3.8c-.4 0-.8-.3-.8-.8v-24.8h-2.3v24.8c0 .4-.3.8-.8.8h-3.8c-.4 0-.8-.3-.8-.8v-24.8h-2.3v24.8c0 .4-.3.8-.8.8H187c-.4 0-.8-.3-.8-.8v-24.8h-2.3v24.8c0 .4-.3.8-.8.8h-3.8c-.4 0-.8-.3-.8-.8v-24.8h-2.3v24.8c0 .4-.3.8-.8.8h-3.8c-.4 0-.8-.3-.8-.8v-24.8h-2.3v24.8c0 .4-.3.8-.8.8h-3.8c-.4 0-.8-.3-.8-.8v-24.8h-2.3v24.8c0 .4-.3.8-.8.8h-3c-.4 0-.8-.3-.8-.8v-24.8H154v24.8c0 .4-.3.8-.8.8h-3.8c-.4 0-.8-.3-.8-.8v-24.8h-2.3v24.8c0 .4-.3.8-.8.8h-3.8c-.4 0-.8-.3-.8-.8v-24.8h-2.3v24.8c0 .4-.3.8-.8.8H134c-.4 0-.8-.3-.8-.8v-24.8c-6.6-.1-11.8-5.4-11.9-11.9H96.8c-.4 0-.8-.3-.8-.8V324c0-.4.3-.8.8-.8h24.8v-2.3H96.8c-.4 0-.8-.3-.8-.8v-3.8c0-.4.3-.8.8-.8h24.8v-2.3H96.8c-.4 0-.8-.3-.8-.8v-3.8c0-.4.3-.8.8-.8h24.8v-2.3H96.8c-.4 0-.8-.3-.8-.8v-3.8c0-.4.3-.8.8-.8h24.8v-2.3H96.8c-.4 0-.8-.3-.8-.8v-3.8c0-.4.3-.8.8-.8h24.8v-2.3H96.8c-.4 0-.8-.3-.8-.8v-3.8c0-.4.3-.8.8-.8h24.8V283H96.8c-.4 0-.8-.3-.8-.8v-3.8c0-.4.3-.8.8-.8h24.8v-2.3H96.8c-.4 0-.8-.3-.8-.8v-3.8c0-.4.3-.8.8-.8h24.8v-2.3H96.8c-.4 0-.8-.3-.8-.8V263c0-.4.3-.8.8-.8h24.8v-2.3H96.8c-.4 0-.8-.3-.8-.8v-3.8c0-.4.3-.8.8-.8h24.8v-2.3H96.8c-.4 0-.8-.3-.8-.8v-3.8c0-.4.3-.8.8-.8h24.8v-2.3H96.8c-.4 0-.8-.3-.8-.8v-3.8c0-.4.3-.8.8-.8h24.8v-2.3H96.8c-.4 0-.8-.3-.8-.8v-3c0-.4.3-.8.8-.8h24.8V230H96.8c-.4 0-.8-.3-.8-.8v-3.8c0-.4.3-.8.8-.8h24.8v-2.3H96.8c-.4 0-.8-.3-.8-.8v-3.8c0-.4.3-.8.8-.8h24.8v-2.3H96.8c-.4 0-.8-.3-.8-.8V210c0-.4.3-.8.8-.8h24.8c.1-6.6 5.4-11.8 11.9-11.9v-24.6c0-.4.3-.8.8-.8h3.8c.4 0 .8.3.8.8v24.8h2.3v-24.8c0-.4.3-.8.8-.8h3.8c.4 0 .8.3.8.8v24.8h2.3v-24.8c0-.4.3-.8.8-.8h3.8c.4 0 .8.3.8.8v24.8h2.3v-24.8c0-.4.3-.8.8-.8h3.8c.4 0 .8.3.8.8v24.8h2.3v-24.8c0-.4.3-.8.8-.8h3.8c.4 0 .8.3.8.8v24.8h2.3v-24.8c0-.4.3-.8.8-.8h3.8c.4 0 .8.3.8.8v24.8h2.3v-24.8c0-.4.3-.8.8-.8h3.8c.4 0 .8.3.8.8v24.8h2.3v-24.8c0-.4.3-.8.8-.8h3.8c.4 0 .8.3.8.8v24.8h2.3v-24.8c0-.4.3-.8.8-.8h3.8c.4 0 .8.3.8.8v24.8h2.3v-24.8c0-.4.3-.8.8-.8h3.8c.4 0 .8.3.8.8v24.8h2.3v-24.8c0-.4.3-.8.8-.8h3.8c.4 0 .8.3.8.8v24.8h2.3v-24.8c0-.4.3-.8.8-.8h3.8c.4 0 .8.3.8.8v24.8h2.3v-6.6zm35.7 233.3c.1 0 .2.3.2.7v3.6c0 .4-.1.7-.2.7H253v2.1h7.1c.1 0 .2.3.2.7v3.6c0 .4-.1.7-.2.7H253v2.1h7.1c.1 0 .2.3.2.7v3.6c0 .4-.1.7-.2.7H253v2.1h7.1c.1 0 .2.3.2.7v3.6c0 .4-.1.7-.2.7H253v2.1h7.1c.1 0 .2.3.2.7v3.6c0 .4-.1.7-.2.7H253v4.4c0 2.8-2.3 5-5 5h-4.4v7.1c0 .1-.3.2-.7.2h-3.6c-.4 0-.7-.1-.7-.2V467h-2.1v7.1c0 .1-.3.2-.7.2h-3.6c-.4 0-.7-.1-.7-.2V467h-2.1v7.1c0 .1-.3.2-.7.2h-3.6c-.4 0-.7-.1-.7-.2V467h-2.1v7.1c0 .1-.3.2-.7.2H218c-.4 0-.7-.1-.7-.2V467h-2.1v7.1c0 .1-.3.2-.7.2h-3.6c-.4 0-.7-.1-.7-.2V467H208v7.1c0 .1-.3.2-.7.2h-3.6c-.4 0-.7-.1-.7-.2V467h-4.4c-2.8 0-5-2.3-5-5v-4.4h-7.1c-.1 0-.2-.3-.2-.7v-3.6c0-.4.1-.7.2-.7h7.1v-2.1h-7.1c-.1 0-.2-.3-.2-.7v-3.6c0-.4.1-.7.2-.7h7.1v-2.1h-7.1c-.1 0-.2-.3-.2-.7v-3.6c0-.4.1-.7.2-.7h7.1v-2.1h-7.1c-.1 0-.2-.3-.2-.7V432c0-.4.1-.7.2-.7h7.1v-2.1h-7.1c-.1 0-.2-.3-.2-.7v-3.6c0-.4.1-.7.2-.7h7.1V422h-7.1c-.1 0-.2-.3-.2-.7v-3.6c0-.4.1-.7.2-.7h7.1v-4.4c0-2.8 2.3-5 5-5h4.4v-7.1c0-.1.3-.2.7-.2h3.6c.4 0 .7.1.7.2v7.1h2.1v-7.1c0-.1.3-.2.7-.2h3.6c.4 0 .7.1.7.2v7.1h2.1v-7.1c0-.1.3-.2.7-.2h3.6c.4 0 .7.1.7.2v7.1h2.1v-7.1c0-.1.3-.2.7-.2h3.6c.4 0 .7.1.7.2v7.1h2.1v-7.1c0-.1.3-.2.7-.2h3.6c.4 0 .7.1.7.2v7.1h2.1v-7.1c0-.1.3-.2.7-.2h3.6c.4 0 .7.1.7.2v7.1h4.4c2.8 0 5 2.3 5 5v4.4h7.1c.1 0 .2.3.2.7v3.6c0 .4-.1.7-.2.7h-7v2.1h7.1zM259 484v7c0 1.1-.9 2-2 2h-23c-1.1 0-2-.9-2-2v-7c0-1.1.9-2 2-2h23c1.1 0 2 .9 2 2zm-30 0v7c0 1.1-.9 2-2 2h-23c-1.1 0-2-.9-2-2v-7c0-1.1.9-2 2-2h23c1.1 0 2 .9 2 2zm-34-8v23c0 1.1-.9 2-2 2h-7c-1.1 0-2-.9-2-2v-23c0-1.1.9-2 2-2h7c1.1 0 2 .9 2 2zm16-84v-7c0-1.1.9-2 2-2h23c1.1 0 2 .9 2 2v7c0 1.1-.9 2-2 2h-23c-1.1 0-2-.9-2-2zm48.5 2H243c-1.1 0-2-.9-2-2v-7c0-1.1.9-2 2-2h23c1.1 0 2 .9 2 2v7c0 1.1-.9 2-2 2h-6.5zM160 490c-1.1 0-2-.9-2-2v-29c0-1.1.9-2 2-2h19c1.1 0 2 .9 2 2v29c0 1.1-.9 2-2 2h-2.5v6h-14v-6H160zm-19 0c1.1 0 2 .9 2 2v1c0 1.1-.9 2-2 2h-11c0 1.7-1.3 3-3 3h-11c-1.7 0-3-1.3-3-3h-11c-1.1 0-2-.9-2-2v-1c0-1.1.9-2 2-2h11v-10h-11c-1.1 0-2-.9-2-2v-1c0-1.1.9-2 2-2h11v-10h-11c-1.1 0-2-.9-2-2v-1c0-1.1.9-2 2-2h11c0-1.7 1.3-3 3-3h11c1.7 0 3 1.3 3 3h11c1.1 0 2 .9 2 2v1c0 1.1-.9 2-2 2h-11v25h11zm-72 0c-1.1 0-2-.9-2-2v-29c0-1.1.9-2 2-2h19c1.1 0 2 .9 2 2v29c0 1.1-.9 2-2 2h-2.5v6h-14v-6H69zm9-281c1.1 0 2 .9 2 2v1c0 1.1-.9 2-2 2h-1v10h1c1.1 0 2 .9 2 2v1c0 1.1-.9 2-2 2h-1c0 1.7-1.3 3-3 3H63c-1.7 0-3-1.3-3-3h-1c-1.1 0-2-.9-2-2v-1c0-1.1.9-2 2-2h1v-10h-1c-1.1 0-2-.9-2-2v-1c0-1.1.9-2 2-2h1v-10h-1c-1.1 0-2-.9-2-2v-1c0-1.1.9-2 2-2h1c0-1.7 1.3-3 3-3h11c1.7 0 3 1.3 3 3h1c1.1 0 2 .9 2 2v1c0 1.1-.9 2-2 2h-1v10h1zm-4.5-25.7H57c-1.1 0-2-.9-2-2v-7c0-1.1.9-2 2-2h23c1.1 0 2 .9 2 2v7c0 1.1-.9 2-2 2h-6.5zM57 242.7h23c1.1 0 2 .9 2 2v7c0 1.1-.9 2-2 2H57c-1.1 0-2-.9-2-2v-7c0-1.1.9-2 2-2zm0 14.6h23c1.1 0 2 .9 2 2v7c0 1.1-.9 2-2 2H57c-1.1 0-2-.9-2-2v-7c0-1.1.9-2 2-2zm0 14.7h23c1.1 0 2 .9 2 2v7c0 1.1-.9 2-2 2H57c-1.1 0-2-.9-2-2v-7c0-1.1.9-2 2-2zm0 30h23c1.1 0 2 .9 2 2v7c0 1.1-.9 2-2 2H57c-1.1 0-2-.9-2-2v-7c0-1.1.9-2 2-2zm17.9 116.3c0-17.1 13.9-31 31-31s31 13.9 31 31-13.9 31-31 31c-17.2 0-31.1-13.9-31-31zm63.6-39c-.8-.8-.8-2 0-2.8l4.9-4.9c.8-.8 2-.8 2.8 0l4.6 4.6 7.1 7.1 4.6 4.6c.8.8.8 2 0 2.8l-4.9 4.9c-.8.8-2 .8-2.8 0l-4.6-4.6-7.1-7.1-4.6-4.6zM166 426h7c1.1 0 2 .9 2 2v23c0 1.1-.9 2-2 2h-7c-1.1 0-2-.9-2-2v-23c0-1.1.9-2 2-2zm-2-6v-23c0-1.1.9-2 2-2h7c1.1 0 2 .9 2 2v23c0 1.1-.9 2-2 2h-7c-1.1 0-2-.9-2-2zm5.5-318.3H186c1.1 0 2 .9 2 2v7c0 1.1-.9 2-2 2h-23c-1.1 0-2-.9-2-2v-7c0-1.1.9-2 2-2h6.5zm-1.7-22.4v-11c0-4.4 3.6-8 8-8h2c4.4 0 8 3.6 8 8v11c0 4.4-3.6 8-8 8h-2c-4.4 0-8-3.5-8-8zm20.9 62.7v23c0 1.1-.9 2-2 2h-7c-1.1 0-2-.9-2-2v-23c0-1.1.9-2 2-2h7c1.1 0 2 .9 2 2zm-22.2-24.3H183c1.1 0 2 .9 2 2v7c0 1.1-.9 2-2 2h-23c-1.1 0-2-.9-2-2v-7c0-1.1.9-2 2-2h6.5zm-1 23h6.5c1.1 0 2 .9 2 2v7c0 1.1-.9 2-2 2h-23c-1.1 0-2-.9-2-2v-7c0-1.1.9-2 2-2h16.5zm8.5 16.6v7c0 1.1-.9 2-2 2h-23c-1.1 0-2-.9-2-2v-7c0-1.1.9-2 2-2h23c1.1 0 2 .9 2 2zm-20.3-78c0 4.4-3.6 8-8 8h-2c-4.4 0-8-3.6-8-8v-11c0-4.4 3.6-8 8-8h2c4.4 0 8 3.6 8 8v11zm40.6 60.7h7c1.1 0 2 .9 2 2v23c0 1.1-.9 2-2 2h-7c-1.1 0-2-.9-2-2v-23c0-1.1.9-2 2-2zm-.3-6.3v-7c0-1.1.9-2 2-2h23c1.1 0 2 .9 2 2v7c0 1.1-.9 2-2 2h-23c-1.1 0-2-.9-2-2zm28.3 14.8V165c0 1.1-.9 2-2 2h-7c-1.1 0-2-.9-2-2v-23c0-1.1.9-2 2-2h7c1.1 0 2 .9 2 2v6.5zm-1.3-45.8v7c0 1.1-.9 2-2 2h-23c-1.1 0-2-.9-2-2v-7c0-1.1.9-2 2-2h23c1.1 0 2 .9 2 2zm-35.2-69.9v11c0 4.4-3.6 8-8 8h-2c-4.4 0-8-3.6-8-8v-11c0-1 .2-2 .6-2.9h16.9c.4.9.5 1.9.5 2.9zm-32.1 0v11c0 4.4-3.6 8-8 8h-2c-4.4 0-8-3.6-8-8v-11c0-1 .2-2 .6-3h16.9c.3 1 .5 2 .5 3zm-16.6 85.6c0 17.1-13.9 31-31 31s-31-13.9-31-31 13.9-31 31-31c17.2 0 31.1 13.9 31 31zM80 157.7c1.1 0 2 .9 2 2v7c0 1.1-.9 2-2 2H57c-1.1 0-2-.9-2-2v-7c0-1.1.9-2 2-2h23zM445 472v-23c0-1.1.9-2 2-2h7c1.1 0 2 .9 2 2v23c0 1.1-.9 2-2 2h-7c-1.1 0-2-.9-2-2zm9.5-108.5h-11c-4.4 0-8-3.6-8-8v-2c0-4.4 3.6-8 8-8h11c1 0 2 .2 2.9.6V363c-.9.3-1.9.5-2.9.5zM432 33.8V71h-24V30.1h6.7c6.2.1 12 1.4 17.3 3.7zM97.7 29.9H120V71H96V29.9h1.7zM82 32.8V74H56V62.4c3.4-13.5 13.2-24.5 26-29.6z" fill="#fff"/></svg>