<svg version="1.1" xmlns="http://www.w3.org/2000/svg" x="0" y="0" viewBox="0 0 512 512" xml:space="preserve"><path d="M300 212.8v15.5h-88v-15.5h88zm-88-106.4v15.5h88v-15.5h-88zm0 35.5v15.5h88v-15.5h-88zm0 35.4v15.5h88v-15.5h-88zM177.7 70.9H89.8v15.5h87.9V70.9zm0 141.9H89.8v15.5h87.9v-15.5zm0 35.4H89.8v15.5h87.9v-15.5zm0-70.9H89.8v15.5h87.9v-15.5zm0-35.4H89.8v15.5h87.9v-15.5zM212 354.6v15.5h88v-15.5h-88zM300 512v-15.5h-88V512h88zm-88-51v15.5h88V461h-88zm88-374.6V70.9h-88v15.5h88zm-88 339.2v15.5h88v-15.5h-88zm0-177.4v15.5h88v-15.5h-88zm0 35.5v15.5h88v-15.5h-88zm0 106.4v15.5h88v-15.5h-88zm0-70.9v15.5h88v-15.5h-88zm-34.3-35.5H89.8v15.5h87.9v-15.5zm0-177.3H89.8v15.5h87.9v-15.5zm156.6 157.4h87.9v-15.5h-87.9v15.5zm0-35.5h87.9v-15.5h-87.9v15.5zm-156.6 90.9H89.8v15.5h87.9v-15.5zm156.6 50.9h87.9v-15.5h-87.9v15.5zm0-35.4h87.9v-15.5h-87.9v15.5zm0-212.8h87.9v-15.5h-87.9v15.5zm0-51v15.5h87.9V70.9h-87.9zm0 121.9h87.9v-15.5h-87.9v15.5zm0-35.4h87.9v-15.5h-87.9v15.5zm0 141.8h87.9v-15.5h-87.9v15.5zM177.7 425.6H89.8v15.5h87.9v-15.5zm0-35.5H89.8v15.5h87.9v-15.5zm0-35.5H89.8v15.5h87.9v-15.5zm0 106.4H89.8v15.5h87.9V461zm156.6-55.4h87.9v-15.5h-87.9v15.5zm-156.6 90.9H89.8V512h87.9v-15.5zm156.6-20h87.9V461h-87.9v15.5zm0-35.4h87.9v-15.5h-87.9v15.5zm0 70.9h87.9v-15.5h-87.9V512zM238.8 0h-149v51h149.1V0zm183.4 0h-149v51h149.1V0z" fill="#fff"/></svg>