<svg version="1.1" xmlns="http://www.w3.org/2000/svg" x="0" y="0" viewBox="0 0 512 512" xml:space="preserve"><path d="M512 126.5V345l-64.5 64.5H24c-13.3 0-24-10.7-24-24v-259c0-13.3 10.7-24 24-24h464c13.3 0 24 10.7 24 24z" opacity=".1" fill="#fff"/><path d="M274.1 252.7H290V291c0 8.8-7.2 16-16 16h-93c15.8 0 29.4-20.9 35.1-50.6.2-1.2.5-2.4.7-3.7h57.3zm-128.2 3.7c-.2-1.2-.5-2.4-.7-3.7H72V291c0 8.8 7.2 16 16 16h93c-15.8 0-29.4-20.9-35.1-50.6zm-55.2-8.1h56.2c.8-1 1.6-2.1 2.3-3.1 3.8-5.8 6.1-12.7 6.1-20.1s-2.2-14.4-6.1-20.1c-.7-1.1-1.5-2.1-2.3-3.1H72v46.6h18.7zm62.4 0c-.9 1.3-1.9 2.6-2.9 3.8 0 .2.1.4.1.6 1.8 10.5 4.6 20.1 8.4 28.2C164.9 294.3 173 302 181 302s16.1-7.7 22.3-21.1c3.8-8.1 6.6-17.7 8.4-28.2 0-.2.1-.4.1-.6-1-1.2-2-2.5-2.9-3.8-4.5-6.6-7.2-14.7-7.2-23.3s2.6-16.6 7.2-23.3c.9-1.3 1.9-2.6 2.9-3.8 0-.2-.1-.4-.1-.6-1.8-10.5-4.6-20.1-8.4-28.2C197.1 155.7 189 148 181 148s-16.1 7.7-22.3 21.1c-3.8 8.1-6.6 17.7-8.4 28.2 0 .2-.1.4-.1.6 1 1.2 2 2.5 2.9 3.8 4.5 6.6 7.2 14.7 7.2 23.3s-2.7 16.6-7.2 23.3zM274 143h-93c15.8 0 29.4 20.9 35.1 50.6.2 1.2.5 2.4.7 3.7H290V159c0-8.8-7.2-16-16-16zm-2.7 58.7h-56.2c-.8 1-1.6 2.1-2.3 3.1-3.8 5.8-6.1 12.7-6.1 20.1s2.2 14.4 6.1 20.1c.7 1.1 1.5 2.1 2.3 3.1H290v-46.6h-18.7zM512 126.5V345l-64.5 64.5H24c-13.3 0-24-10.7-24-24v-259c0-13.3 10.7-24 24-24h464c13.3 0 24 10.7 24 24zM295 159c0-11.6-9.4-21-21-21H88c-11.6 0-21 9.4-21 21v132c0 11.6 9.4 21 21 21h186c11.6 0 21-9.4 21-21V159zm-223 0v38.3h73.2c.2-1.2.4-2.5.7-3.7 5.7-29.7 19.3-50.6 35.1-50.6H88c-8.8 0-16 7.2-16 16z" fill="#fff"/></svg>