<svg version="1.1" xmlns="http://www.w3.org/2000/svg" x="0" y="0" viewBox="0 0 500 500" xml:space="preserve"><path d="M211.9 181.4h-42.5v-30.3h42.5v30.3zm120.1 45v198.2c0 1-.8 1.9-1.8 1.9h-269c-1 0-1.9-.8-1.9-1.9V226.4c0-1 .8-1.9 1.9-1.9h268.9c1 0 1.9.8 1.9 1.9zM85.4 250c0-4.1-3.3-7.4-7.4-7.4s-7.4 3.3-7.4 7.4 3.3 7.4 7.4 7.4 7.4-3.3 7.4-7.4zm20.2 9.9c-.5-.9-1.1-3.1-1.8-6.3-.6-2.4-1.6-4-3.4-4.6v-.1c2.4-.8 4.3-2.8 4.3-5.8 0-1.8-.6-3.4-1.8-4.4-1.4-1.3-3.4-1.9-6.6-1.9-2.1 0-4.2.2-5.7.5v22.5h3v-9.9h2.8c2.7.1 3.9 1.3 4.6 4.5.6 2.9 1.1 4.9 1.5 5.5h3.1zm16.2-2.4h-9.9v-8.3h8.9v-2.5h-8.9v-7.2h9.4V237h-12.4v23h12.9v-2.5zm5.7-8.9c0-6.1 3.5-9.5 8.9-9.5 1.9 0 3.5.5 4.6 1l.7-2.4c-.7-.4-2.5-1-5.4-1-7.1 0-12 4.8-12 12 0 7.5 4.8 11.6 11.3 11.6 2.8 0 5-.6 6.1-1.1l-.6-2.4c-1.2.6-3 1-4.8 1-5.6 0-8.8-3.6-8.8-9.2zm-31-9.5c-1.4 0-2.4.1-2.9.3v8.4h3c3.2 0 5.2-1.7 5.2-4.4 0-3-2.1-4.3-5.3-4.3z" opacity=".1" fill="#fff"/><path d="M493.6 201.6c-2.6-8.2-8.5-18.8-14.2-24.5-5.8-5.6-8.2-11.1-20.2-15.4-9.8-3.5-29.4-6.1-49.6-9.4v-23.2h-20.2l-3.6 5.8v-14.6s-21.3-5.8-43.1-5.8-47.9 5.8-47.8 5.8v11.4c-3.6-1-6.1-2-7.4-3-9-6.7-27.6-54.3-37.2-60.1-9.6-5.8-45.2-7.4-63.3-7.4s-49.8 3.5-61.7 9-27.9 53.6-40.9 68c-13.1 14.4-37.8 18.9-51.6 30.3C19 180 .4 207.6.4 216.9v187.6c0 6.2 4.5 16.8 11.7 22.9 7.2 6.2 20.2 11.2 31.9 11.2s425.5 0 432.1-.5 14.8-2.2 17.5-4.8c2.7-2.6 2.9-5.7 3.2-7.4.3-1.6 3.2-125.9 3.2-157.3s-3.7-58.8-6.4-67zm-324.2-50.5h42.5v30.3h-42.5v-30.3zM332 424.6c0 1-.8 1.9-1.8 1.9h-269c-1 0-1.9-.8-1.9-1.9V226.4c0-1 .8-1.9 1.9-1.9h268.9c1 0 1.9.8 1.9 1.9v198.2zm-204.5-176c0 5.6 3.2 9.2 8.8 9.2 1.8 0 3.6-.4 4.8-1l.6 2.4c-1.1.5-3.3 1.1-6.1 1.1-6.5 0-11.3-4.1-11.3-11.6 0-7.2 4.9-12 12-12 2.9 0 4.7.6 5.4 1l-.7 2.4c-1.1-.5-2.7-1-4.6-1-5.4 0-8.9 3.4-8.9 9.5zm-15.6 8.9h9.9v2.5h-12.9v-23h12.4v2.5h-9.4v7.2h8.9v2.5h-8.9v8.3zM85.4 250c0 4.1-3.3 7.4-7.4 7.4s-7.4-3.3-7.4-7.4 3.3-7.4 7.4-7.4 7.4 3.3 7.4 7.4zm15-1v-.1c2.4-.8 4.3-2.8 4.3-5.8 0-1.8-.6-3.4-1.8-4.4-1.4-1.3-3.4-1.9-6.6-1.9-2.1 0-4.2.2-5.7.5v22.5h3v-9.9h2.8c2.7.1 3.9 1.3 4.6 4.5.6 2.9 1.1 4.9 1.5 5.5h3.1c-.5-.9-1.1-3.1-1.8-6.3-.6-2.4-1.6-4-3.4-4.6zm-3.8-1.2h-3v-8.4c.5-.2 1.5-.3 2.9-.3 3.2 0 5.3 1.3 5.3 4.3 0 2.7-2 4.4-5.2 4.4z" fill="#fff"/></svg>