<svg version="1.1" xmlns="http://www.w3.org/2000/svg" x="0" y="0" viewBox="0 0 512 512" xml:space="preserve"><path d="M105.5 249c-1.1 0-2-.9-2-2v-17c0-1.1.9-2 2-2h17c1.1 0 2 .9 2 2v17c0 1.1-.9 2-2 2h-17zm-46 27h17c1.1 0 2-.9 2-2v-17c0-1.1-.9-2-2-2h-17c-1.1 0-2 .9-2 2v17c0 1.1.9 2 2 2zm11-27c1.1 0 2-.9 2-2v-17c0-1.1-.9-2-2-2h-17c-1.1 0-2 .9-2 2v17c0 1.1.9 2 2 2h17zm-60 0h34c1.1 0 2-.9 2-2v-17c0-1.1-.9-2-2-2h-34c-1.1 0-2 .9-2 2v17c0 1.1.9 2 2 2zm86 0c1.1 0 2-.9 2-2v-17c0-1.1-.9-2-2-2h-17c-1.1 0-2 .9-2 2v17c0 1.1.9 2 2 2h17zm-11 27h17c1.1 0 2-.9 2-2v-17c0-1.1-.9-2-2-2h-17c-1.1 0-2 .9-2 2v17c0 1.1.9 2 2 2zm288 33h-17c-1.1 0-2 .9-2 2v17c0 1.1.9 2 2 2h17c1.1 0 2-.9 2-2v-17c0-1.1-.9-2-2-2zm-139-35v-17c0-1.1-.9-2-2-2h-17c-1.1 0-2 .9-2 2v17c0 1.1.9 2 2 2h17c1.1 0 2-.9 2-2zm-169 27v-17c0-1.1-.9-2-2-2h-53c-1.1 0-2 .9-2 2v17c0 1.1.9 2 2 2h53c1.1 0 2-.9 2-2zM79 182H63.1c-1.1 0-2 .9-2 2v10c0 1.1.9 2 2 2h16c1.1 0 2-.9 2-2H81v-10c0-1.1-.9-2-2-2zm296.5 102c0-1.1-.9-2-2-2h-41c-1.1 0-2 .9-2 2v17c0 1.1.9 2 2 2h41c1.1 0 2-.9 2-2v-17zM103.7 182H87.8c-1.1 0-2 .9-2 2v10c0 1.1.9 2 2 2h16c1.1 0 2-.9 2-2h-.1v-10c0-1.1-.9-2-2-2zM8.5 274c0 1.1.9 2 2 2h40c1.1 0 2-.9 2-2v-17c0-1.1-.9-2-2-2h-40c-1.1 0-2 .9-2 2v17zm103 2h17c1.1 0 2-.9 2-2v-17c0-1.1-.9-2-2-2h-17c-1.1 0-2 .9-2 2v17c0 1.1.9 2 2 2zm65 27h17c1.1 0 2-.9 2-2v-17c0-1.1-.9-2-2-2h-17c-1.1 0-2 .9-2 2v17c0 1.1.9 2 2 2zm7-54h17c1.1 0 2-.9 2-2v-17c0-1.1-.9-2-2-2h-17c-1.1 0-2 .9-2 2v17c0 1.1.9 2 2 2zm26 0h17c1.1 0 2-.9 2-2v-17c0-1.1-.9-2-2-2h-17c-1.1 0-2 .9-2 2v17c0 1.1.9 2 2 2zm-7 54h17c1.1 0 2-.9 2-2v-17c0-1.1-.9-2-2-2h-17c-1.1 0-2 .9-2 2v17c0 1.1.9 2 2 2zm-20-29v-17c0-1.1-.9-2-2-2h-17c-1.1 0-2 .9-2 2v17c0 1.1.9 2 2 2h17c1.1 0 2-.9 2-2zm26 0v-17c0-1.1-.9-2-2-2h-17c-1.1 0-2 .9-2 2v17c0 1.1.9 2 2 2h17c1.1 0 2-.9 2-2zm-58 29h17c1.1 0 2-.9 2-2v-17c0-1.1-.9-2-2-2h-17c-1.1 0-2 .9-2 2v17c0 1.1.9 2 2 2zm-26 0h17c1.1 0 2-.9 2-2v-17c0-1.1-.9-2-2-2h-17c-1.1 0-2 .9-2 2v17c0 1.1.9 2 2 2zm7-54h17c1.1 0 2-.9 2-2v-17c0-1.1-.9-2-2-2h-17c-1.1 0-2 .9-2 2v17c0 1.1.9 2 2 2zm26 0h17c1.1 0 2-.9 2-2v-17c0-1.1-.9-2-2-2h-17c-1.1 0-2 .9-2 2v17c0 1.1.9 2 2 2zm-1 25v-17c0-1.1-.9-2-2-2h-17c-1.1 0-2 .9-2 2v17c0 1.1.9 2 2 2h17c1.1 0 2-.9 2-2zm-110 35h-36c-1.1 0-2 .9-2 2v17c0 1.1.9 2 2 2h36c1.1 0 2-.9 2-2v-17c0-1.1-.9-2-2-2zm430.3 0h-15.9c-1.1 0-2 .9-2 2v17c0 1.1.9 2 2 2h15.9c1.1 0 2-.9 2-2v-17c0-1.1-.9-2-2-2zm2-125c0-1.1-.9-2-2-2h-15.9c-1.1 0-2 .9-2 2v10c0 1.1.9 2 2 2h15.9c1.1 0 2-.9 2-2v-10zm0 73c0-1.1-.9-2-2-2h-15.9c-1.1 0-2 .9-2 2v17c0 1.1.9 2 2 2h15.9c1.1 0 2-.9 2-2v-17zm0-27c0-1.1-.9-2-2-2h-15.9c-1.1 0-2 .9-2 2v17c0 1.1.9 2 2 2h15.9c1.1 0 2-.9 2-2v-17zm-24.7 54c0-1.1-.9-2-2-2h-15.9c-1.1 0-2 .9-2 2v17c0 1.1.9 2 2 2h15.9c1.1 0 2-.9 2-2v-17zm-2 25h-15.9c-1.1 0-2 .9-2 2v17c0 1.1.9 2 2 2h15.9c1.1 0 2-.9 2-2v-17c0-1.1-.9-2-2-2zm49.4-27h-15.9c-1.1 0-2 .9-2 2v44c0 1.1.9 2 2 2h15.9c1.1 0 2-.9 2-2v-44c0-1.1-.9-2-2-2zm-22.7 2c0-1.1-.9-2-2-2h-15.9c-1.1 0-2 .9-2 2v17c0 1.1.9 2 2 2h15.9c1.1 0 2-.9 2-2v-17zm-24.7-27c0-1.1-.9-2-2-2h-15.9c-1.1 0-2 .9-2 2v17c0 1.1.9 2 2 2h15.9c1.1 0 2-.9 2-2v-17zm49.4-27c0-1.1-.9-2-2-2h-15.9c-1.1 0-2 .9-2 2v44c0 1.1.9 2 2 2h15.9c1.1 0 2-.9 2-2v-44zm0-46c0-1.1-.9-2-2-2h-15.9c-1.1 0-2 .9-2 2v10c0 1.1.9 2 2 2h15.9c1.1 0 2-.9 2-2v-10zm0 19c0-1.1-.9-2-2-2h-15.9c-1.1 0-2 .9-2 2v17c0 1.1.9 2 2 2h15.9c1.1 0 2-.9 2-2v-17zm-74.1 54c0-1.1-.9-2-2-2h-15.9c-1.1 0-2 .9-2 2v17c0 1.1.9 2 2 2h15.9c1.1 0 2-.9 2-2v-17zm0-54c0-1.1-.9-2-2-2h-15.9c-1.1 0-2 .9-2 2v17c0 1.1.9 2 2 2h15.9c1.1 0 2-.9 2-2v-17zm0-19c0-1.1-.9-2-2-2h-15.9c-1.1 0-2 .9-2 2v10c0 1.1.9 2 2 2h15.9c1.1 0 2-.9 2-2v-10zm-27.9 100c0-1.1-.9-2-2-2h-17c-1.1 0-2 .9-2 2v17c0 1.1.9 2 2 2h17c1.1 0 2-.9 2-2v-17zm-2 25h-17c-1.1 0-2 .9-2 2v17c0 1.1.9 2 2 2h17c1.1 0 2-.9 2-2v-17c0-1.1-.9-2-2-2zm29.9-79c0-1.1-.9-2-2-2h-15.9c-1.1 0-2 .9-2 2v17c0 1.1.9 2 2 2h15.9c1.1 0 2-.9 2-2v-17zm0 71v-17c0-1.1-.9-2-2-2h-15.9c-1.1 0-2 .9-2 2v17c0 1.1.9 2 2 2h15.9c1.1 0 2-.9 2-2zm-27.9-44c0-1.1-.9-2-2-2h-54c-1.1 0-2 .9-2 2v17c0 1.1.9 2 2 2h54c1.1 0 2-.9 2-2v-17zm52.6-73c0-1.1-.9-2-2-2h-15.9c-1.1 0-2 .9-2 2v10c0 1.1.9 2 2 2h15.9c1.1 0 2-.9 2-2v-10zm0 19c0-1.1-.9-2-2-2h-15.9c-1.1 0-2 .9-2 2v17c0 1.1.9 2 2 2h15.9c1.1 0 2-.9 2-2v-17zm-28.6 106h-17c-1.1 0-2 .9-2 2v17c0 1.1.9 2 2 2h17c1.1 0 2-.9 2-2v-17c0-1.1-.9-2-2-2zm28.6-79c0-1.1-.9-2-2-2h-15.9c-1.1 0-2 .9-2 2v17c0 1.1.9 2 2 2h15.9c1.1 0 2-.9 2-2v-17zm24.7-27c0-1.1-.9-2-2-2h-15.9c-1.1 0-2 .9-2 2v17c0 1.1.9 2 2 2h15.9c1.1 0 2-.9 2-2v-17zm-179.3 98v-17c0-1.1-.9-2-2-2h-17c-1.1 0-2 .9-2 2v17c0 1.1.9 2 2 2h17c1.1 0 2-.9 2-2zm-21 29h17c1.1 0 2-.9 2-2v-17c0-1.1-.9-2-2-2h-17c-1.1 0-2 .9-2 2v17c0 1.1.9 2 2 2zm3-127v17c0 1.1.9 2 2 2h17c1.1 0 2-.9 2-2v-17c0-1.1-.9-2-2-2h-17c-1.1 0-2 .9-2 2zm58 25c-1.1 0-2 .9-2 2v17c0 1.1.9 2 2 2h17c1.1 0 2-.9 2-2v-17c0-1.1-.9-2-2-2h-17zm-54 2v17c0 1.1.9 2 2 2h17c1.1 0 2-.9 2-2v-17c0-1.1-.9-2-2-2h-17c-1.1 0-2 .9-2 2zm27 44v-17c0-1.1-.9-2-2-2h-17c-1.1 0-2 .9-2 2v17c0 1.1.9 2 2 2h17c1.1 0 2-.9 2-2zm-26 0v-17c0-1.1-.9-2-2-2h-17c-1.1 0-2 .9-2 2v17c0 1.1.9 2 2 2h17c1.1 0 2-.9 2-2zm-34 56h17c1.1 0 2-.9 2-2v-17c0-1.1-.9-2-2-2h-17c-1.1 0-2 .9-2 2v17c0 1.1.9 2 2 2zm3-127v17c0 1.1.9 2 2 2h17c1.1 0 2-.9 2-2v-17c0-1.1-.9-2-2-2h-17c-1.1 0-2 .9-2 2zm18 98v-17c0-1.1-.9-2-2-2h-17c-1.1 0-2 .9-2 2v17c0 1.1.9 2 2 2h17c1.1 0 2-.9 2-2zm101.3-105c1.1 0 2-.9 2-2v-10c0-1.1-.9-2-2-2h-15.9c-1.1 0-2 .9-2 2v10c0 1.1.9 2 2 2h15.9zm-73-14h-15.9c-1.1 0-2 .9-2 2v10c0 1.1.9 2 2 2h15.9c1.1 0 2-.9 2-2v-10c0-1.1-.9-2-2-2zm48.3 0h-15.9c-1.1 0-2 .9-2 2v10c0 1.1.9 2 2 2h15.9c1.1 0 2-.9 2-2v-10c0-1.1-.9-2-2-2zm51.4 48c0-1.1-.9-2-2-2h-34c-1.1 0-2 .9-2 2v17c0 1.1.9 2 2 2h34c1.1 0 2-.9 2-2v-17zm-71 100h17c1.1 0 2-.9 2-2v-17c0-1.1-.9-2-2-2h-17c-1.1 0-2 .9-2 2v17c0 1.1.9 2 2 2zm8-56v-17c0-1.1-.9-2-2-2h-17c-1.1 0-2 .9-2 2v17c0 1.1.9 2 2 2h17c1.1 0 2-.9 2-2zm-13 27v-17c0-1.1-.9-2-2-2h-17c-1.1 0-2 .9-2 2v17c0 1.1.9 2 2 2h17c1.1 0 2-.9 2-2zm76-117c0-1.1-.9-2-2-2h-15.9c-1.1 0-2 .9-2 2v10c0 1.1.9 2 2 2h15.9c1.1 0 2-.9 2-2v-10zm0 19c0-1.1-.9-2-2-2h-38c-1.1 0-2 .9-2 2v17c0 1.1.9 2 2 2h38c1.1 0 2-.9 2-2v-17zm-97 127h17c1.1 0 2-.9 2-2v-17c0-1.1-.9-2-2-2h-17c-1.1 0-2 .9-2 2v17c0 1.1.9 2 2 2zm26-102h-17c-1.1 0-2 .9-2 2v17c0 1.1.9 2 2 2h17c1.1 0 2-.9 2-2v-17c0-1.1-.9-2-2-2zm-69 0c-1.1 0-2 .9-2 2v17c0 1.1.9 2 2 2h17c1.1 0 2-.9 2-2v-17c0-1.1-.9-2-2-2h-17zm91-27h-17c-1.1 0-2 .9-2 2v17c0 1.1.9 2 2 2h17c1.1 0 2-.9 2-2v-17c0-1.1-.9-2-2-2zm-45 2v17c0 1.1.9 2 2 2h17c1.1 0 2-.9 2-2v-17c0-1.1-.9-2-2-2h-17c-1.1 0-2 .9-2 2zm19-21h-15.9c-1.1 0-2 .9-2 2v10c0 1.1.9 2 2 2h15.9c1.1 0 2-.9 2-2v-10c0-1.1-.9-2-2-2zm-211 148h128c1.1 0 2-.9 2-2v-17c0-1.1-.9-2-2-2h-128c-1.1 0-2 .9-2 2v17c0 1.1.9 2 2 2zm36-127v17c0 1.1.9 2 2 2h17c1.1 0 2-.9 2-2v-17c0-1.1-.9-2-2-2h-17c-1.1 0-2 .9-2 2zm26 0v17c0 1.1.9 2 2 2h17c1.1 0 2-.9 2-2v-17c0-1.1-.9-2-2-2h-17c-1.1 0-2 .9-2 2zm-24.1-21h-15.9c-1.1 0-2 .9-2 2v10c0 1.1.9 2 2 2h15.9c1.1 0 2-.9 2-2v-10c0-1.1-.9-2-2-2zm24.7 0h-15.9c-1.1 0-2 .9-2 2v10c0 1.1.9 2 2 2h15.9c1.1 0 2-.9 2-2v-10c0-1.1-.9-2-2-2zm-78.6 21v17c0 1.1.9 2 2 2h17c1.1 0 2-.9 2-2v-17c0-1.1-.9-2-2-2h-17c-1.1 0-2 .9-2 2zm29-21h-15.9c-1.1 0-2 .9-2 2v10c0 1.1.9 2 2 2h15.9c1.1 0 2-.9 2-2v-10c0-1.1-.9-2-2-2zm-3 21v17c0 1.1.9 2 2 2h17c1.1 0 2-.9 2-2v-17c0-1.1-.9-2-2-2h-17c-1.1 0-2 .9-2 2zm126.9-21h-15.9c-1.1 0-2 .9-2 2v10c0 1.1.9 2 2 2h15.9c1.1 0 2-.9 2-2v-10c0-1.1-.9-2-2-2zm-22.9 21v17c0 1.1.9 2 2 2h17c1.1 0 2-.9 2-2v-17c0-1.1-.9-2-2-2h-17c-1.1 0-2 .9-2 2zm-26 0v17c0 1.1.9 2 2 2h17c1.1 0 2-.9 2-2v-17c0-1.1-.9-2-2-2h-17c-1.1 0-2 .9-2 2zm24-21h-15.9c-1.1 0-2 .9-2 2v10c0 1.1.9 2 2 2h15.9c1.1 0 2-.9 2-2v-10c0-1.1-.9-2-2-2zm-24.7 0h-15.9c-1.1 0-2 .9-2 2v10c0 1.1.9 2 2 2h15.9c1.1 0 2-.9 2-2v-10c0-1.1-.9-2-2-2zm57.7 92v-17c0-1.1-.9-2-2-2h-17c-1.1 0-2 .9-2 2v17c0 1.1.9 2 2 2h17c1.1 0 2-.9 2-2zm-143 27v-17c0-1.1-.9-2-2-2h-17c-1.1 0-2 .9-2 2v17c0 1.1.9 2 2 2h17c1.1 0 2-.9 2-2zm135-52c1.1 0 2-.9 2-2v-17c0-1.1-.9-2-2-2h-17c-1.1 0-2 .9-2 2v17c0 1.1.9 2 2 2h17zm-170 81h24c1.1 0 2-.9 2-2v-17c0-1.1-.9-2-2-2h-24c-1.1 0-2 .9-2 2v17c0 1.1.9 2 2 2zm194.6-148h-15.9c-1.1 0-2 .9-2 2v10c0 1.1.9 2 2 2h15.9c1.1 0 2-.9 2-2v-10c0-1.1-.9-2-2-2zM91.5 301v-17c0-1.1-.9-2-2-2h-17c-1.1 0-2 .9-2 2v17c0 1.1.9 2 2 2h17c1.1 0 2-.9 2-2zm156 0v-17c0-1.1-.9-2-2-2h-17c-1.1 0-2 .9-2 2v17c0 1.1.9 2 2 2h17c1.1 0 2-.9 2-2zM26.4 182H10.5c-1.1 0-2 .9-2 2v10c0 1.1.9 2 2 2h15.9c1.1 0 2-.9 2-2v-10c0-1.1-.9-2-2-2zm28 0H38.5c-1.1 0-2 .9-2 2v10c0 1.1.9 2 2 2h15.9c1.1 0 2-.9 2-2v-10c0-1.1-.9-2-2-2zm-6.9 21v17c0 1.1.9 2 2 2h17c1.1 0 2-.9 2-2v-17c0-1.1-.9-2-2-2h-17c-1.1 0-2 .9-2 2zm26 0v17c0 1.1.9 2 2 2h17c1.1 0 2-.9 2-2v-17c0-1.1-.9-2-2-2h-17c-1.1 0-2 .9-2 2zm-65 0v17c0 1.1.9 2 2 2h30c1.1 0 2-.9 2-2v-17c0-1.1-.9-2-2-2h-30c-1.1 0-2 .9-2 2zm47 127h18c1.1 0 2-.9 2-2v-17c0-1.1-.9-2-2-2h-18c-1.1 0-2 .9-2 2v17c0 1.1.9 2 2 2z" opacity=".1" fill="#fff"/><path d="M502 172H10c-5.5 0-10 4.5-10 10v148c0 5.5 4.5 10 10 10h492c5.5 0 10-4.5 10-10V182c0-5.5-4.5-10-10-10zm-145.1 12c0-1.1.9-2 2-2h15.9c1.1 0 2 .9 2 2v10c0 1.1-.9 2-2 2h-15.9c-1.1 0-2-.9-2-2v-10zm1.6 46v17c0 1.1-.9 2-2 2h-17c-1.1 0-2-.9-2-2v-17c0-1.1.9-2 2-2h17c1.1 0 2 .9 2 2zm-20 27v17c0 1.1-.9 2-2 2h-17c-1.1 0-2-.9-2-2v-17c0-1.1.9-2 2-2h17c1.1 0 2 .9 2 2zm16-54v17c0 1.1-.9 2-2 2h-17c-1.1 0-2-.9-2-2v-17c0-1.1.9-2 2-2h17c1.1 0 2 .9 2 2zm-22.3-19c0-1.1.9-2 2-2h15.9c1.1 0 2 .9 2 2v10c0 1.1-.9 2-2 2h-15.9c-1.1 0-2-.9-2-2v-10zm.3 46v17c0 1.1-.9 2-2 2h-17c-1.1 0-2-.9-2-2v-17c0-1.1.9-2 2-2h17c1.1 0 2 .9 2 2zm-20 27v17c0 1.1-.9 2-2 2h-17c-1.1 0-2-.9-2-2v-17c0-1.1.9-2 2-2h17c1.1 0 2 .9 2 2zm-3.9-73c0-1.1.9-2 2-2h15.9c1.1 0 2 .9 2 2v10c0 1.1-.9 2-2 2h-15.9c-1.1 0-2-.9-2-2v-10zm-1.1 19c0-1.1.9-2 2-2h17c1.1 0 2 .9 2 2v17c0 1.1-.9 2-2 2h-17c-1.1 0-2-.9-2-2v-17zm-1 27v17c0 1.1-.9 2-2 2h-17c-1.1 0-2-.9-2-2v-17c0-1.1.9-2 2-2h17c1.1 0 2 .9 2 2zm-20 27v17c0 1.1-.9 2-2 2h-17c-1.1 0-2-.9-2-2v-17c0-1.1.9-2 2-2h17c1.1 0 2 .9 2 2zm-2.6-73c0-1.1.9-2 2-2h15.9c1.1 0 2 .9 2 2v10c0 1.1-.9 2-2 2h-15.9c-1.1 0-2-.9-2-2v-10zm-2.4 19c0-1.1.9-2 2-2h17c1.1 0 2 .9 2 2v17c0 1.1-.9 2-2 2h-17c-1.1 0-2-.9-2-2v-17zm-1 27v17c0 1.1-.9 2-2 2h-17c-1.1 0-2-.9-2-2v-17c0-1.1.9-2 2-2h17c1.1 0 2 .9 2 2zm-20 27v17c0 1.1-.9 2-2 2h-17c-1.1 0-2-.9-2-2v-17c0-1.1.9-2 2-2h17c1.1 0 2 .9 2 2zm-1.3-73c0-1.1.9-2 2-2h15.9c1.1 0 2 .9 2 2v10c0 1.1-.9 2-2 2h-15.9c-1.1 0-2-.9-2-2v-10zm-3.7 19c0-1.1.9-2 2-2h17c1.1 0 2 .9 2 2v17c0 1.1-.9 2-2 2h-17c-1.1 0-2-.9-2-2v-17zm-1 44c0 1.1-.9 2-2 2h-17c-1.1 0-2-.9-2-2v-17c0-1.1.9-2 2-2h17c1.1 0 2 .9 2 2v17zm-244-19h34c1.1 0 2 .9 2 2v17c0 1.1-.9 2-2 2h-34c-1.1 0-2-.9-2-2v-17c0-1.1.9-2 2-2zm-2-8v-17c0-1.1.9-2 2-2h30c1.1 0 2 .9 2 2v17c0 1.1-.9 2-2 2h-30c-1.1 0-2-.9-2-2zm2 35h40c1.1 0 2 .9 2 2v17c0 1.1-.9 2-2 2h-40c-1.1 0-2-.9-2-2v-17c0-1.1.9-2 2-2zm37-35v-17c0-1.1.9-2 2-2h17c1.1 0 2 .9 2 2v17c0 1.1-.9 2-2 2h-17c-1.1 0-2-.9-2-2zm4 27v-17c0-1.1.9-2 2-2h17c1.1 0 2 .9 2 2v17c0 1.1-.9 2-2 2h-17c-1.1 0-2-.9-2-2zm6 10c0-1.1.9-2 2-2h17c1.1 0 2 .9 2 2v17c0 1.1-.9 2-2 2h-17c-1.1 0-2-.9-2-2v-17zm37-37c0 1.1-.9 2-2 2h-17c-1.1 0-2-.9-2-2v-17c0-1.1.9-2 2-2h17c1.1 0 2 .9 2 2v17zm2 8c1.1 0 2 .9 2 2v17c0 1.1-.9 2-2 2h-17c-1.1 0-2-.9-2-2v-17c0-1.1.9-2 2-2h17zm-26 56c0-1.1.9-2 2-2h17c1.1 0 2 .9 2 2v17c0 1.1-.9 2-2 2h-17c-1.1 0-2-.9-2-2v-17zm15-8c-1.1 0-2-.9-2-2v-17c0-1.1.9-2 2-2h17c1.1 0 2 .9 2 2v17c0 1.1-.9 2-2 2h-17zm35-56c0 1.1-.9 2-2 2h-17c-1.1 0-2-.9-2-2v-17c0-1.1.9-2 2-2h17c1.1 0 2 .9 2 2v17zm2 8c1.1 0 2 .9 2 2v17c0 1.1-.9 2-2 2h-17c-1.1 0-2-.9-2-2v-17c0-1.1.9-2 2-2h17zm-26 56c0-1.1.9-2 2-2h17c1.1 0 2 .9 2 2v17c0 1.1-.9 2-2 2h-17c-1.1 0-2-.9-2-2v-17zm15-8c-1.1 0-2-.9-2-2v-17c0-1.1.9-2 2-2h17c1.1 0 2 .9 2 2v17c0 1.1-.9 2-2 2h-17zm35-56c0 1.1-.9 2-2 2h-17c-1.1 0-2-.9-2-2v-17c0-1.1.9-2 2-2h17c1.1 0 2 .9 2 2v17zm2 8c1.1 0 2 .9 2 2v17c0 1.1-.9 2-2 2h-17c-1.1 0-2-.9-2-2v-17c0-1.1.9-2 2-2h17zm-26 56c0-1.1.9-2 2-2h17c1.1 0 2 .9 2 2v17c0 1.1-.9 2-2 2h-17c-1.1 0-2-.9-2-2v-17zm15-8c-1.1 0-2-.9-2-2v-17c0-1.1.9-2 2-2h17c1.1 0 2 .9 2 2v17c0 1.1-.9 2-2 2h-17zm35-56c0 1.1-.9 2-2 2h-17c-1.1 0-2-.9-2-2v-17c0-1.1.9-2 2-2h17c1.1 0 2 .9 2 2v17zm2 8c1.1 0 2 .9 2 2v17c0 1.1-.9 2-2 2h-17c-1.1 0-2-.9-2-2v-17c0-1.1.9-2 2-2h17zm-26 56c0-1.1.9-2 2-2h17c1.1 0 2 .9 2 2v17c0 1.1-.9 2-2 2h-17c-1.1 0-2-.9-2-2v-17zm15-8c-1.1 0-2-.9-2-2v-17c0-1.1.9-2 2-2h17c1.1 0 2 .9 2 2v17c0 1.1-.9 2-2 2h-17zm35-56c0 1.1-.9 2-2 2h-17c-1.1 0-2-.9-2-2v-17c0-1.1.9-2 2-2h17c1.1 0 2 .9 2 2v17zm2 8c1.1 0 2 .9 2 2v17c0 1.1-.9 2-2 2h-17c-1.1 0-2-.9-2-2v-17c0-1.1.9-2 2-2h17zm-26 56c0-1.1.9-2 2-2h17c1.1 0 2 .9 2 2v17c0 1.1-.9 2-2 2h-17c-1.1 0-2-.9-2-2v-17zm15-8c-1.1 0-2-.9-2-2v-17c0-1.1.9-2 2-2h17c1.1 0 2 .9 2 2v17c0 1.1-.9 2-2 2h-17zm18-29v-17c0-1.1.9-2 2-2h17c1.1 0 2 .9 2 2v17c0 1.1-.9 2-2 2h-17c-1.1 0-2-.9-2-2zm-7 37c0-1.1.9-2 2-2h17c1.1 0 2 .9 2 2v17c0 1.1-.9 2-2 2h-17c-1.1 0-2-.9-2-2v-17zm15-8c-1.1 0-2-.9-2-2v-17c0-1.1.9-2 2-2h17c1.1 0 2 .9 2 2v17c0 1.1-.9 2-2 2h-17zm19-92c0-1.1.9-2 2-2h15.9c1.1 0 2 .9 2 2v10c0 1.1-.9 2-2 2h-15.9c-1.1 0-2-.9-2-2v-10zm-3 17h17c1.1 0 2 .9 2 2v17c0 1.1-.9 2-2 2h-17c-1.1 0-2-.9-2-2v-17c0-1.1.9-2 2-2zm-21.9-17c0-1.1.9-2 2-2h15.9c1.1 0 2 .9 2 2v10c0 1.1-.9 2-2 2h-15.9c-1.1 0-2-.9-2-2v-10zm12.9 17c1.1 0 2 .9 2 2v17c0 1.1-.9 2-2 2h-17c-1.1 0-2-.9-2-2v-17c0-1.1.9-2 2-2h17zm-37.6-17c0-1.1.9-2 2-2h15.9c1.1 0 2 .9 2 2v10c0 1.1-.9 2-2 2h-15.9c-1.1 0-2-.9-2-2v-10zm-24.7 0c0-1.1.9-2 2-2h15.9c1.1 0 2 .9 2 2v10c0 1.1-.9 2-2 2h-15.9c-1.1 0-2-.9-2-2v-10zm-24.7 0c0-1.1.9-2 2-2h15.9c1.1 0 2 .9 2 2v10c0 1.1-.9 2-2 2h-15.9c-1.1 0-2-.9-2-2v-10zm-24.9 0c0-1.1.9-2 2-2h15.9c1.1 0 2 .9 2 2v10c0 1.1-.9 2-2 2h-15.9c-1.1 0-2-.9-2-2v-10zm-24.8 0c0-1.1.9-2 2-2h15.9c1.1 0 2 .9 2 2v10h.1c0 1.1-.9 2-2 2h-16c-1.1 0-2-.9-2-2v-10zm-24.7 0c0-1.1.9-2 2-2H79c1.1 0 2 .9 2 2v10h.1c0 1.1-.9 2-2 2h-16c-1.1 0-2-.9-2-2v-10zm-24.6 0c0-1.1.9-2 2-2h15.9c1.1 0 2 .9 2 2v10c0 1.1-.9 2-2 2H38.5c-1.1 0-2-.9-2-2v-10zm-28 0c0-1.1.9-2 2-2h15.9c1.1 0 2 .9 2 2v10c0 1.1-.9 2-2 2H10.5c-1.1 0-2-.9-2-2v-10zm0 100c0-1.1.9-2 2-2h53c1.1 0 2 .9 2 2v17c0 1.1-.9 2-2 2h-53c-1.1 0-2-.9-2-2v-17zm38 46h-36c-1.1 0-2-.9-2-2v-17c0-1.1.9-2 2-2h36c1.1 0 2 .9 2 2v17c0 1.1-.9 2-2 2zm29-2c0 1.1-.9 2-2 2h-18c-1.1 0-2-.9-2-2v-17c0-1.1.9-2 2-2h18c1.1 0 2 .9 2 2v17zm33 0c0 1.1-.9 2-2 2h-24c-1.1 0-2-.9-2-2v-17c0-1.1.9-2 2-2h24c1.1 0 2 .9 2 2v17zm137 0c0 1.1-.9 2-2 2h-128c-1.1 0-2-.9-2-2v-17c0-1.1.9-2 2-2h128c1.1 0 2 .9 2 2v17zm2-27c0 1.1-.9 2-2 2h-17c-1.1 0-2-.9-2-2v-17c0-1.1.9-2 2-2h17c1.1 0 2 .9 2 2v17zm24 27c0 1.1-.9 2-2 2h-17c-1.1 0-2-.9-2-2v-17c0-1.1.9-2 2-2h17c1.1 0 2 .9 2 2v17zm2-27c0 1.1-.9 2-2 2h-17c-1.1 0-2-.9-2-2v-17c0-1.1.9-2 2-2h17c1.1 0 2 .9 2 2v17zm24 27c0 1.1-.9 2-2 2h-17c-1.1 0-2-.9-2-2v-17c0-1.1.9-2 2-2h17c1.1 0 2 .9 2 2v17zm2-27c0 1.1-.9 2-2 2h-17c-1.1 0-2-.9-2-2v-17c0-1.1.9-2 2-2h17c1.1 0 2 .9 2 2v17zm24 27c0 1.1-.9 2-2 2h-17c-1.1 0-2-.9-2-2v-17c0-1.1.9-2 2-2h17c1.1 0 2 .9 2 2v17zm2-27c0 1.1-.9 2-2 2h-17c-1.1 0-2-.9-2-2v-17c0-1.1.9-2 2-2h17c1.1 0 2 .9 2 2v17zm24 27c0 1.1-.9 2-2 2h-17c-1.1 0-2-.9-2-2v-17c0-1.1.9-2 2-2h17c1.1 0 2 .9 2 2v17zm26 0c0 1.1-.9 2-2 2h-17c-1.1 0-2-.9-2-2v-17c0-1.1.9-2 2-2h17c1.1 0 2 .9 2 2v17zm0-27c0 1.1-.9 2-2 2h-41c-1.1 0-2-.9-2-2v-17c0-1.1.9-2 2-2h41c1.1 0 2 .9 2 2v17zm26 27c0 1.1-.9 2-2 2h-17c-1.1 0-2-.9-2-2v-17c0-1.1.9-2 2-2h17c1.1 0 2 .9 2 2v17zm0-27c0 1.1-.9 2-2 2h-17c-1.1 0-2-.9-2-2v-17c0-1.1.9-2 2-2h17c1.1 0 2 .9 2 2v17zm0-27c0 1.1-.9 2-2 2h-54c-1.1 0-2-.9-2-2v-17c0-1.1.9-2 2-2h54c1.1 0 2 .9 2 2v17zm0-27c0 1.1-.9 2-2 2h-34c-1.1 0-2-.9-2-2v-17c0-1.1.9-2 2-2h34c1.1 0 2 .9 2 2v17zm0-27c0 1.1-.9 2-2 2h-38c-1.1 0-2-.9-2-2v-17c0-1.1.9-2 2-2h38c1.1 0 2 .9 2 2v17zm0-26c0 1.1-.9 2-2 2h-15.9c-1.1 0-2-.9-2-2v-10c0-1.1.9-2 2-2h15.9c1.1 0 2 .9 2 2v10zm26 134c0 1.1-.9 2-2 2h-17c-1.1 0-2-.9-2-2v-17c0-1.1.9-2 2-2h17c1.1 0 2 .9 2 2v17zm1.9-27c0 1.1-.9 2-2 2h-15.9c-1.1 0-2-.9-2-2v-17c0-1.1.9-2 2-2h15.9c1.1 0 2 .9 2 2v17zm0-27c0 1.1-.9 2-2 2h-15.9c-1.1 0-2-.9-2-2v-17c0-1.1.9-2 2-2h15.9c1.1 0 2 .9 2 2v17zm0-27c0 1.1-.9 2-2 2h-15.9c-1.1 0-2-.9-2-2v-17c0-1.1.9-2 2-2h15.9c1.1 0 2 .9 2 2v17zm0-27c0 1.1-.9 2-2 2h-15.9c-1.1 0-2-.9-2-2v-17c0-1.1.9-2 2-2h15.9c1.1 0 2 .9 2 2v17zm0-26c0 1.1-.9 2-2 2h-15.9c-1.1 0-2-.9-2-2v-10c0-1.1.9-2 2-2h15.9c1.1 0 2 .9 2 2v10zm24.7 134c0 1.1-.9 2-2 2h-15.9c-1.1 0-2-.9-2-2v-17c0-1.1.9-2 2-2h15.9c1.1 0 2 .9 2 2v17zm0-27c0 1.1-.9 2-2 2h-15.9c-1.1 0-2-.9-2-2v-17c0-1.1.9-2 2-2h15.9c1.1 0 2 .9 2 2v17zm0-27c0 1.1-.9 2-2 2h-15.9c-1.1 0-2-.9-2-2v-17c0-1.1.9-2 2-2h15.9c1.1 0 2 .9 2 2v17zm0-27c0 1.1-.9 2-2 2h-15.9c-1.1 0-2-.9-2-2v-17c0-1.1.9-2 2-2h15.9c1.1 0 2 .9 2 2v17zm0-27c0 1.1-.9 2-2 2h-15.9c-1.1 0-2-.9-2-2v-17c0-1.1.9-2 2-2h15.9c1.1 0 2 .9 2 2v17zm0-26c0 1.1-.9 2-2 2h-15.9c-1.1 0-2-.9-2-2v-10c0-1.1.9-2 2-2h15.9c1.1 0 2 .9 2 2v10zm24.7 134c0 1.1-.9 2-2 2h-15.9c-1.1 0-2-.9-2-2v-17c0-1.1.9-2 2-2h15.9c1.1 0 2 .9 2 2v17zm0-27c0 1.1-.9 2-2 2h-15.9c-1.1 0-2-.9-2-2v-17c0-1.1.9-2 2-2h15.9c1.1 0 2 .9 2 2v17zm0-27c0 1.1-.9 2-2 2h-15.9c-1.1 0-2-.9-2-2v-17c0-1.1.9-2 2-2h15.9c1.1 0 2 .9 2 2v17zm0-27c0 1.1-.9 2-2 2h-15.9c-1.1 0-2-.9-2-2v-17c0-1.1.9-2 2-2h15.9c1.1 0 2 .9 2 2v17zm0-27c0 1.1-.9 2-2 2h-15.9c-1.1 0-2-.9-2-2v-17c0-1.1.9-2 2-2h15.9c1.1 0 2 .9 2 2v17zm0-26c0 1.1-.9 2-2 2h-15.9c-1.1 0-2-.9-2-2v-10c0-1.1.9-2 2-2h15.9c1.1 0 2 .9 2 2v10zm24.7 134c0 1.1-.9 2-2 2h-15.9c-1.1 0-2-.9-2-2v-44c0-1.1.9-2 2-2h15.9c1.1 0 2 .9 2 2v44zm0-54c0 1.1-.9 2-2 2h-15.9c-1.1 0-2-.9-2-2v-44c0-1.1.9-2 2-2h15.9c1.1 0 2 .9 2 2v44zm0-54c0 1.1-.9 2-2 2h-15.9c-1.1 0-2-.9-2-2v-17c0-1.1.9-2 2-2h15.9c1.1 0 2 .9 2 2v17zm0-26c0 1.1-.9 2-2 2h-15.9c-1.1 0-2-.9-2-2v-10c0-1.1.9-2 2-2h15.9c1.1 0 2 .9 2 2v10z" fill="#fff"/></svg>