<svg version="1.1" xmlns="http://www.w3.org/2000/svg" x="0" y="0" viewBox="0 0 512 512" xml:space="preserve"><path d="M376 85V22c0-12.2-9.8-22-22-22H158c-12.2 0-22 9.8-22 22v67c-1.1 0-2 .9-2 2v61c0 1.1.9 2 2 2v29c-1.1 0-2 .9-2 2v29c0 1.1.9 2 2 2v274c0 12.2 9.8 22 22 22h196c12.2 0 22-9.8 22-22V118c1.1 0 2-.9 2-2V87c0-1.1-.9-2-2-2z" opacity=".1" fill="#fff"/><path d="M376 85V22c0-12.2-9.8-22-22-22H158c-12.2 0-22 9.8-22 22v67c-1.1 0-2 .9-2 2v61c0 1.1.9 2 2 2v29c-1.1 0-2 .9-2 2v29c0 1.1.9 2 2 2v274c0 12.2 9.8 22 22 22h196c12.2 0 22-9.8 22-22V118c1.1 0 2-.9 2-2V87c0-1.1-.9-2-2-2zM236 3v1h1V3h1v1h1V3h1v1h1V3h1v1h1V3h1v1h1V3h1v1h1V3h1v1h1V3h1v1h1V3h1v1h1V3h1v1h1V3h1v1h1V3h1v1h1V3h1v1h1V3h1v1h1V3h1v1h1V3h1v1h1V3h1v1h1V3h1v1h1V3h1v1h1V3h1v1h1V3h1v1h1V3h1c0 .3 0 .7-.1 1h-.9v1h.6c-.2.3-.4.7-.6 1-.3.4-.6.7-1 1-.3.2-.7.4-1 .6V7h-1v.9c-.3.1-.7.1-1 .1V7h-1v1h-1V7h-1v1h-1V7h-1v1h-1V7h-1v1h-1V7h-1v1h-1V7h-1v1h-1V7h-1v1h-1V7h-1v1h-1V7h-1v1h-1V7h-1v1h-1V7h-1v1h-1V7h-1v1h-1V7h-1v1h-1V7h-1v1h-1V7h-1v1h-1V7h-1v1h-1V7h-1v1c-.3 0-.7 0-1-.1V7h-1v.6c-.3-.2-.7-.4-1-.6-.4-.3-.7-.6-1-1-.2-.3-.4-.7-.6-1h.6V4h-.9c-.1-.3-.1-.7-.1-1h1zm136 476c0 9.9-8.1 18-18 18H158c-9.9 0-18-8.1-18-18V29c0-9.9 8.1-18 18-18h196c9.9 0 18 8.1 18 18v450zM328 21.5c-2.5 0-4.5 2-4.5 4.5s2 4.5 4.5 4.5 4.5-2 4.5-4.5-2-4.5-4.5-4.5zm0 7.5c-1.7 0-3-1.3-3-3s1.3-3 3-3 3 1.3 3 3-1.3 3-3 3zm22-7.5c-2.5 0-4.5 2-4.5 4.5s2 4.5 4.5 4.5 4.5-2 4.5-4.5-2-4.5-4.5-4.5zm0 7.5c-1.7 0-3-1.3-3-3s1.3-3 3-3 3 1.3 3 3-1.3 3-3 3zm0-11h-22c-4.4 0-8 3.6-8 8s3.6 8 8 8h22c4.4 0 8-3.6 8-8s-3.6-8-8-8zm-22 13.5c-3 0-5.5-2.5-5.5-5.5s2.5-5.5 5.5-5.5 5.5 2.5 5.5 5.5-2.5 5.5-5.5 5.5zm22 0c-3 0-5.5-2.5-5.5-5.5s2.5-5.5 5.5-5.5 5.5 2.5 5.5 5.5-2.5 5.5-5.5 5.5zM254 6v1h-1V6h1zm-2 0v1h-1V6h1zm-2 0v1h-1V6h1zm6 0v1h-1V6h1zm2 0v1h-1V6h1zm2 0v1h-1V6h1zm-18 0v1h-1V6h1zm2 0v1h-1V6h1zm31-1V4h1v1h-1zm-27 1v1h-1V6h1zm14 0v1h-1V6h1zm14 0v1h-1V6h1zm-4 0v1h-1V6h1zm2 0v1h-1V6h1zm-34 0v1h-1V6h1zm36-1h1v1h-1V5zm-10 1v1h-1V6h1zm4 0v1h-1V6h1zm-6 0v1h-1V6h1zm4 0v1h-1V6h1zm-22 0v1h-1V6h1zm16 0V5h1v1h-1zm-8 0V5h1v1h-1zm2 0V5h1v1h-1zm8 0V5h1v1h-1zm-6 0V5h1v1h-1zm2 0V5h1v1h-1zm14 0V5h1v1h-1zm-4 0V5h1v1h-1zm-4 0V5h1v1h-1zm2 0V5h1v1h-1zm-30 0v1h-1V6h1zm4 0V5h1v1h-1zm-2 0V5h1v1h-1zm-2 0V5h1v1h-1zm-1 0h-1V5h1v1zm7 0V5h1v1h-1zm4 0V5h1v1h-1zm2 0V5h1v1h-1zm2 0V5h1v1h-1zm-6 0V5h1v1h-1zm26 0V5h1v1h-1zm-15-1V4h1v1h-1zm-2 0V4h1v1h-1zm-2 0V4h1v1h-1zm-2 0V4h1v1h-1zm12 0V4h1v1h-1zm2 0V4h1v1h-1zm-4 0V4h1v1h-1zm-2 0V4h1v1h-1zm-20 0V4h1v1h-1zm2 0V4h1v1h-1zm8 0V4h1v1h-1zm-2 0V4h1v1h-1zm-4 0V4h1v1h-1zm2 0V4h1v1h-1zm-8 0V4h1v1h-1zm30 0V4h1v1h-1zm2 0V4h1v1h-1zm4 0V4h1v1h-1zm-2 0V4h1v1h-1z" fill="#fff"/></svg>