<svg version="1.1" xmlns="http://www.w3.org/2000/svg" x="0" y="0" viewBox="0 0 512 512" xml:space="preserve"><path d="M470.5 241.7c9.3 3.7 38.9 26.6 39.2 26.8l2.4-3.2c-1.2-1-30.4-23.4-40.2-27.3-4.9-2-13-4.4-19.9-6.3.3-2.7.5-5.3.7-8 6.8 1.7 14.9 3.9 19.7 5.7 9.1 3.4 38 24.8 38.3 25l2.4-3.2c-1.2-.9-29.6-22-39.3-25.6-5.2-1.9-14-4.3-21-6 0-1.1.1-2.3.1-3.4 0-1.6 0-3.2-.1-4.8 6.8 1.5 15.5 3.5 20.5 5.2 8.9 3.1 37 23.1 37.3 23.3l2.3-3.3c-1.2-.8-28.9-20.6-38.4-23.8-5.5-1.9-14.9-4-22-5.5-.2-2.5-.4-4.9-.7-7.4 6.8 1.2 15.7 3 20.8 4.5 8.8 2.7 36.1 21.3 36.4 21.5l2.3-3.3c-1.1-.8-28.1-19.1-37.5-22-5.6-1.8-15.5-3.6-22.5-4.9-.3-2.4-.7-4.7-1.2-7 6.6 1 15.4 2.4 20.4 3.8 8.6 2.4 35.2 19.6 35.4 19.8l2.2-3.4c-1.1-.7-27.4-17.7-36.6-20.2-5.6-1.6-15.5-3.1-22.3-4.1-.5-2.3-1.1-4.5-1.7-6.7 6.4.7 14.7 1.7 19.5 2.9 8.4 2.1 34.2 17.8 34.5 18l2.1-3.4c-1.1-.7-26.6-16.3-35.6-18.5-5.5-1.3-15-2.5-21.6-3.2-.7-2.2-1.4-4.3-2.2-6.5 6.1.4 13.6 1.1 18.1 2.1 8.3 1.7 33.3 16.1 33.6 16.2l2-3.5c-1.1-.6-25.8-14.8-34.7-16.7-5.2-1.1-14-1.8-20.5-2.3-.8-2.1-1.7-4.2-2.7-6.2 5.7.2 12.3.6 16.4 1.3 8.1 1.4 32.4 14.4 32.6 14.5l1.9-3.5c-1-.5-25.1-13.4-33.8-14.9-4.8-.8-12.8-1.2-19-1.4-1-2-2-3.9-3.1-5.8 5.1 0 10.8.1 14.4.6 8 1.1 31.5 12.6 31.7 12.7l1.8-3.6c-1-.5-24.3-12-32.9-13.1-4.4-.6-11.4-.7-17.2-.6-1.1-1.8-2.2-3.6-3.4-5.3 4.4-.2 9-.2 12.1.1 7.8.7 30.5 10.9 30.8 11l1.6-3.6c-1-.4-23.6-10.5-32-11.3-3.9-.4-9.9-.2-15.2 0-1.2-1.7-2.4-3.3-3.7-4.9 3.6-.3 7.2-.4 9.7-.3 7.7.4 29.6 9.2 29.8 9.2l1.5-3.7c-.9-.4-22.8-9.1-31.1-9.5-3.4-.2-8.3.1-13 .5-1.3-1.6-2.6-3.1-4-4.6 2.7-.3 5.3-.5 7.3-.5 7.5.1 28.7 7.4 28.9 7.5l1.3-3.8c-.9-.3-22-7.6-30.2-7.7-2.9 0-6.8.4-10.8.8-1.4-1.4-2.8-2.8-4.3-4.2 1.9-.3 3.6-.4 5-.5 7.3-.3 27.8 5.7 28 5.8l1.1-3.8c-.9-.3-21.2-6.2-29.2-5.9-2.4.1-5.5.5-8.7 1-1.7-1.5-3.4-2.9-5.2-4.3 1.3-.2 2.5-.4 3.5-.5 7.2-.6 26.9 4 27.1 4l.9-3.9c-.8-.2-20.5-4.8-28.3-4.1-2.1.2-4.7.6-7.4 1.2-2-1.5-4.1-2.9-6.2-4.3 1.2-.3 2.3-.5 3.2-.6 7.1-.9 26 2.3 26.2 2.3l.7-3.9c-.8-.1-19.7-3.3-27.4-2.3-2.1.3-4.7.9-7.4 1.6-2.1-1.3-4.2-2.4-6.4-3.6 1.2-.3 2.3-.6 3.3-.8 6.9-1.2 25.1.5 25.3.6l.4-4c-.8-.1-18.9-1.9-26.4-.5-2.1.4-4.9 1.2-7.7 2.1-2-1-4-1.9-6-2.7 1.2-.4 2.4-.8 3.4-1 6.8-1.6 24.2-1.2 24.4-1.2l.1-4c-.7 0-18.1-.4-25.4 1.3-2.2.5-5.1 1.5-8 2.7-1.7-.6-3.4-1.2-5.2-1.8 1.1-.4 2.2-.8 3.1-1.1 6.7-1.9 23.4-2.9 23.6-2.9l-.2-4c-.7 0-17.3 1-24.4 3.1-2.2.6-5 1.8-7.9 3.1-4.3-1.2-8.6-2.2-13-3l4.7-28-3.9-.7-4.7 28c-4.2-.7-8.6-1.1-12.9-1.4l1.3-28.3-4-.2-1.3 28.3c-1.6-.1-3.2-.1-4.8-.1-2.7 0-5.4.1-8.1.2l-2-28.3-4 .3 2 28.3c-4.4.4-8.6.9-12.9 1.7L281 48.7l-3.9.8 5.4 27.9c-4.3.9-8.5 2-12.6 3.2l-8.7-27-3.8 1.2 8.7 27c-4.1 1.4-8.2 3-12.1 4.7l-11.9-25.8-3.6 1.7L250 87.9c-3.9 1.9-7.7 3.9-11.4 6.1l-14.9-24.2-3.4 2.1 14.9 24.2c-3.7 2.3-7.2 4.8-10.6 7.4L207 81.3l-3.1 2.5 17.6 22.2c-3.4 2.7-6.6 5.6-9.7 8.7l-20.1-20-2.8 2.8 20.1 20c-3 3.1-5.9 6.4-8.6 9.7L178 109.7l-2.5 3.2 22.4 17.5c-2.6 3.4-5 6.9-7.3 10.6 0 0 0 .1-.1.1l-23.9-15.3-2.2 3.4 23.9 15.3c-40.4 63-49.8 67.5-107.9 86.6C33.8 245.2 0 288.4 0 339.6c0 62.7 50.8 113.5 113.5 113.5 8 0 15.8-.8 23.4-2.4 51.2-9.8 56.3-10.9 118.4 8.2 14.1 4.7 29.1 7.2 44.7 7.2 68.9 0 126.3-49.1 139.3-114.2 14.1 11.3 42.5 38.8 42.8 39.1l2.8-2.9c-1.4-1.3-31.1-30.2-44.8-40.7.4-2.3.7-4.5 1-6.8 12.6 9.1 44.2 39.1 44.5 39.5l2.8-2.9c-1.5-1.4-35.3-33.7-46.8-41.1.2-2.8.4-5.5.5-8.4 1.4.8 2.7 1.5 3.9 2.2 10.4 6.1 45.5 38.9 45.8 39.2l2.7-2.9c-1.5-1.4-35.7-33.4-46.5-39.7-1.7-1-3.7-2.1-5.9-3.2v-1.5c-.1-4.1-.1-7.9-.1-11.6 4.6 2.1 9 4.3 12 6 10.2 5.8 44.5 37.1 44.9 37.4l2.7-3c-1.4-1.3-35-32-45.6-38-3.5-2-8.6-4.5-13.9-6.9.1-2.4.1-4.8.2-7.2 5.9 2.5 11.8 5.2 15.6 7.3 10.1 5.4 43.6 35.4 43.9 35.7l2.7-3c-1.4-1.2-34.2-30.5-44.7-36.2-4.3-2.3-10.9-5.3-17.3-8l.6-7.8c6.5 2.6 13.4 5.5 17.6 7.7 9.9 5.1 42.7 33.6 43 33.9l2.6-3c-1.4-1.2-33.5-29.1-43.8-34.4-4.7-2.4-12.2-5.5-19.1-8.3.3-2.8.6-5.5 1-8.3 6.7 2.5 14 5.3 18.5 7.5 9.7 4.8 41.7 31.8 42 32.1l2.6-3.1c-1.3-1.1-32.7-27.7-42.9-32.7-4.8-2.4-12.6-5.4-19.6-8 .5-2.9 1-5.8 1.5-8.8 6.6 2.3 14 4.9 18.5 7 9.6 4.4 40.8 30.1 41.1 30.3l2.5-3.1c-1.3-1.1-31.9-26.3-42-30.9-4.8-2.2-12.5-5-19.4-7.3.5-2.7 1.1-5.4 1.7-8.2.1-.3.1-.6.2-.9 6.6 2.1 13.8 4.5 18.3 6.4 9.4 4.1 39.9 28.3 40.2 28.6l2.5-3.1c-1.3-1-31.2-24.8-41.1-29.1-4.7-2-12.3-4.6-19-6.7.6-2.8 1.1-5.7 1.5-8.6 6.8 2 14.4 4.3 19 6.2z" opacity=".1" fill="#fff"/><path d="M470.5 241.7c9.3 3.7 38.9 26.6 39.2 26.8l2.4-3.2c-1.2-1-30.4-23.4-40.2-27.3-4.9-2-13-4.4-19.9-6.3.3-2.7.5-5.3.7-8 6.8 1.7 14.9 3.9 19.7 5.7 9.1 3.4 38 24.8 38.3 25l2.4-3.2c-1.2-.9-29.6-22-39.3-25.6-5.2-1.9-14-4.3-21-6 0-1.1.1-2.3.1-3.4 0-1.6 0-3.2-.1-4.8 6.8 1.5 15.5 3.5 20.5 5.2 8.9 3.1 37 23.1 37.3 23.3l2.3-3.3c-1.2-.8-28.9-20.6-38.4-23.8-5.5-1.9-14.9-4-22-5.5-.2-2.5-.4-4.9-.7-7.4 6.8 1.2 15.7 3 20.8 4.5 8.8 2.7 36.1 21.3 36.4 21.5l2.3-3.3c-1.1-.8-28.1-19.1-37.5-22-5.6-1.8-15.5-3.6-22.5-4.9-.3-2.4-.7-4.7-1.2-7 6.6 1 15.4 2.4 20.4 3.8 8.6 2.4 35.2 19.6 35.4 19.8l2.2-3.4c-1.1-.7-27.4-17.7-36.6-20.2-5.6-1.6-15.5-3.1-22.3-4.1-.5-2.3-1.1-4.5-1.7-6.7 6.4.7 14.7 1.7 19.5 2.9 8.4 2.1 34.2 17.8 34.5 18l2.1-3.4c-1.1-.7-26.6-16.3-35.6-18.5-5.5-1.3-15-2.5-21.6-3.2-.7-2.2-1.4-4.3-2.2-6.5 6.1.4 13.6 1.1 18.1 2.1 8.3 1.7 33.3 16.1 33.6 16.2l2-3.5c-1.1-.6-25.8-14.8-34.7-16.7-5.2-1.1-14-1.8-20.5-2.3-.8-2.1-1.7-4.2-2.7-6.2 5.7.2 12.3.6 16.4 1.3 8.1 1.4 32.4 14.4 32.6 14.5l1.9-3.5c-1-.5-25.1-13.4-33.8-14.9-4.8-.8-12.8-1.2-19-1.4-1-2-2-3.9-3.1-5.8 5.1 0 10.8.1 14.4.6 8 1.1 31.5 12.6 31.7 12.7l1.8-3.6c-1-.5-24.3-12-32.9-13.1-4.4-.6-11.4-.7-17.2-.6-1.1-1.8-2.2-3.6-3.4-5.3 4.4-.2 9-.2 12.1.1 7.8.7 30.5 10.9 30.8 11l1.6-3.6c-1-.4-23.6-10.5-32-11.3-3.9-.4-9.9-.2-15.2 0-1.2-1.7-2.4-3.3-3.7-4.9 3.6-.3 7.2-.4 9.7-.3 7.7.4 29.6 9.2 29.8 9.2l1.5-3.7c-.9-.4-22.8-9.1-31.1-9.5-3.4-.2-8.3.1-13 .5-1.3-1.6-2.6-3.1-4-4.6 2.7-.3 5.3-.5 7.3-.5 7.5.1 28.7 7.4 28.9 7.5l1.3-3.8c-.9-.3-22-7.6-30.2-7.7-2.9 0-6.8.4-10.8.8-1.4-1.4-2.8-2.8-4.3-4.2 1.9-.3 3.6-.4 5-.5 7.3-.3 27.8 5.7 28 5.8l1.1-3.8c-.9-.3-21.2-6.2-29.2-5.9-2.4.1-5.5.5-8.7 1-1.7-1.5-3.4-2.9-5.2-4.3 1.3-.2 2.5-.4 3.5-.5 7.2-.6 26.9 4 27.1 4l.9-3.9c-.8-.2-20.5-4.8-28.3-4.1-2.1.2-4.7.6-7.4 1.2-2-1.5-4.1-2.9-6.2-4.3 1.2-.3 2.3-.5 3.2-.6 7.1-.9 26 2.3 26.2 2.3l.7-3.9c-.8-.1-19.7-3.3-27.4-2.3-2.1.3-4.7.9-7.4 1.6-2.1-1.3-4.2-2.4-6.4-3.6 1.2-.3 2.3-.6 3.3-.8 6.9-1.2 25.1.5 25.3.6l.4-4c-.8-.1-18.9-1.9-26.4-.5-2.1.4-4.9 1.2-7.7 2.1-2-1-4-1.9-6-2.7 1.2-.4 2.4-.8 3.4-1 6.8-1.6 24.2-1.2 24.4-1.2l.1-4c-.7 0-18.1-.4-25.4 1.3-2.2.5-5.1 1.5-8 2.7-1.7-.6-3.4-1.2-5.2-1.8 1.1-.4 2.2-.8 3.1-1.1 6.7-1.9 23.4-2.9 23.6-2.9l-.2-4c-.7 0-17.3 1-24.4 3.1-2.2.6-5 1.8-7.9 3.1-4.3-1.2-8.6-2.2-13-3l4.7-28-3.9-.7-4.7 28c-4.2-.7-8.6-1.1-12.9-1.4l1.3-28.3-4-.2-1.3 28.3c-1.6-.1-3.2-.1-4.8-.1-2.7 0-5.4.1-8.1.2l-2-28.3-4 .3 2 28.3c-4.4.4-8.6.9-12.9 1.7L281 48.7l-3.9.8 5.4 27.9c-4.3.9-8.5 2-12.6 3.2l-8.7-27-3.8 1.2 8.7 27c-4.1 1.4-8.2 3-12.1 4.7l-11.9-25.8-3.6 1.7L250 87.9c-3.9 1.9-7.7 3.9-11.4 6.1l-14.9-24.2-3.4 2.1 14.9 24.2c-3.7 2.3-7.2 4.8-10.6 7.4L207 81.3l-3.1 2.5 17.6 22.2c-3.4 2.7-6.6 5.6-9.7 8.7l-20.1-20-2.8 2.8 20.1 20c-3 3.1-5.9 6.4-8.6 9.7L178 109.7l-2.5 3.2 22.4 17.5c-2.6 3.4-5 6.9-7.3 10.6 0 0 0 .1-.1.1l-23.9-15.3-2.2 3.4 23.9 15.3c-40.4 63-49.8 67.5-107.9 86.6C33.8 245.2 0 288.4 0 339.6c0 62.7 50.8 113.5 113.5 113.5 8 0 15.8-.8 23.4-2.4 51.2-9.8 56.3-10.9 118.4 8.2 14.1 4.7 29.1 7.2 44.7 7.2 68.9 0 126.3-49.1 139.3-114.2 14.1 11.3 42.5 38.8 42.8 39.1l2.8-2.9c-1.4-1.3-31.1-30.2-44.8-40.7.4-2.3.7-4.5 1-6.8 12.6 9.1 44.2 39.1 44.5 39.5l2.8-2.9c-1.5-1.4-35.3-33.7-46.8-41.1.2-2.8.4-5.5.5-8.4 1.4.8 2.7 1.5 3.9 2.2 10.4 6.1 45.5 38.9 45.8 39.2l2.7-2.9c-1.5-1.4-35.7-33.4-46.5-39.7-1.7-1-3.7-2.1-5.9-3.2v-1.5c-.1-4.1-.1-7.9-.1-11.6 4.6 2.1 9 4.3 12 6 10.2 5.8 44.5 37.1 44.9 37.4l2.7-3c-1.4-1.3-35-32-45.6-38-3.5-2-8.6-4.5-13.9-6.9.1-2.4.1-4.8.2-7.2 5.9 2.5 11.8 5.2 15.6 7.3 10.1 5.4 43.6 35.4 43.9 35.7l2.7-3c-1.4-1.2-34.2-30.5-44.7-36.2-4.3-2.3-10.9-5.3-17.3-8l.6-7.8c6.5 2.6 13.4 5.5 17.6 7.7 9.9 5.1 42.7 33.6 43 33.9l2.6-3c-1.4-1.2-33.5-29.1-43.8-34.4-4.7-2.4-12.2-5.5-19.1-8.3.3-2.8.6-5.5 1-8.3 6.7 2.5 14 5.3 18.5 7.5 9.7 4.8 41.7 31.8 42 32.1l2.6-3.1c-1.3-1.1-32.7-27.7-42.9-32.7-4.8-2.4-12.6-5.4-19.6-8 .5-2.9 1-5.8 1.5-8.8 6.6 2.3 14 4.9 18.5 7 9.6 4.4 40.8 30.1 41.1 30.3l2.5-3.1c-1.3-1.1-31.9-26.3-42-30.9-4.8-2.2-12.5-5-19.4-7.3.5-2.7 1.1-5.4 1.7-8.2.1-.3.1-.6.2-.9 6.6 2.1 13.8 4.5 18.3 6.4 9.4 4.1 39.9 28.3 40.2 28.6l2.5-3.1c-1.3-1-31.2-24.8-41.1-29.1-4.7-2-12.3-4.6-19-6.7.6-2.8 1.1-5.7 1.5-8.6 6.8 2 14.4 4.3 19 6.2zM28.8 327.6c-1.9-10.9 5.3-21.3 16.2-23.2 10.9-1.9 21.3 5.3 23.2 16.2s-5.3 21.3-16.2 23.2c-10.8 1.9-21.2-5.3-23.2-16.2zm31.7 64.5c-9.1 0-16.5-7.4-16.5-16.5s7.4-16.5 16.5-16.5S77 366.5 77 375.6s-7.4 16.5-16.5 16.5zm301-242c12.7 0 23 10.3 23 23s-10.3 23-23 23-23-10.3-23-23 10.3-23 23-23zm-1.5 60c12.7 0 23 10.3 23 23s-10.3 23-23 23-23-10.3-23-23 10.3-23 23-23zm27 82.5c0 8.8-7.2 16-16 16s-16-7.2-16-16 7.2-16 16-16 16 7.1 16 16zM246.4 158.9c8.8-8.9 20.5-13.8 33.1-13.8 12.5 0 24.3 4.9 33.1 13.8 8.7 8.8 13.4 20.4 13.4 32.7 0 12.3-4.8 24-13.4 32.7-6.8 6.8-15.3 11.3-24.5 13-2.8.5-5.6.8-8.5.8-12.5 0-24.3-4.9-33.1-13.8-8.7-8.8-13.4-20.4-13.4-32.7-.1-12.4 4.7-24 13.3-32.7zM295 357.6c7.7 0 14 6.3 14 14s-6.3 14-14 14-14-6.3-14-14 6.3-14 14-14zm-16-16.5c-9.9 0-18-8.1-18-18s8.1-18 18-18 18 8.1 18 18-8.1 18-18 18zm-91-162c8.8 0 16 7.2 16 16s-7.2 16-16 16-16-7.2-16-16 7.2-16 16-16zm-5 56.9c9.9 0 18 8.1 18 18s-8.1 18-18 18-18-8.1-18-18 8.1-18 18-18zm-72.5 28.6c12.4 0 22.5 10.1 22.5 22.5s-10.1 22.5-22.5 22.5S88 299.5 88 287.1c0-12.5 10.1-22.5 22.5-22.5zM121 438.1c-18.5 0-33.5-15-33.5-33.5s15-33.5 33.5-33.5 33.5 15 33.5 33.5-15 33.5-33.5 33.5zm22.5-114c0-12.4 10.1-22.5 22.5-22.5s22.5 10.1 22.5 22.5-10.1 22.5-22.5 22.5-22.5-10.1-22.5-22.5zM195 424.7c-12.4 0-22.5-10.1-22.5-22.5s10.1-22.5 22.5-22.5 22.5 10.1 22.5 22.5-10.1 22.5-22.5 22.5zm22-53.1c-9.9 0-18-8.1-18-18s8.1-18 18-18 18 8.1 18 18-8.1 18-18 18zm27-6c0-7.7 6.3-14 14-14s14 6.3 14 14-6.3 14-14 14-14-6.3-14-14zm43.5 81.5c-15.2 0-27.5-12.3-27.5-27.5s12.3-27.5 27.5-27.5 27.5 12.3 27.5 27.5-12.3 27.5-27.5 27.5zm40.5-70.5c-7.7 0-14-6.3-14-14s6.3-14 14-14 14 6.3 14 14-6.3 14-14 14zm36.5 61c-12.7 0-23-10.3-23-23s10.3-23 23-23 23 10.3 23 23-10.3 23-23 23zm45.4-151.5c-12.7 0-23-10.3-23-23s10.3-23 23-23 23 10.3 23 23-10.3 23-23 23z" fill="#fff"/></svg>