<svg version="1.1" xmlns="http://www.w3.org/2000/svg" x="0" y="0" viewBox="0 0 512 512" xml:space="preserve"><path d="M512 256c0-53.6-23.8-102.6-63.1-140l11.8-12.4c3.5-3.7 6.1-8.1 7.5-12.9 7.4-26.3-10.6-59.4-44.1-77.9C408.6 4.1 392.3 0 377.4 0c-17.4 0-32.9 5.7-42.9 16.6-3.4 3.7-5.7 8.3-7 13.2l-5.3 20.5C301.1 45.5 278.9 43 256 43s-45.1 2.5-66.3 7.2l-5.3-20.5c-1.3-4.9-3.6-9.4-7-13.2C167.5 5.7 152 0 134.6 0 119.7 0 103.4 4.1 88 12.7 54.5 31.3 36.5 64.3 43.8 90.6c1.4 4.9 4 9.3 7.5 12.9L63.1 116C23.8 153.4 0 202.4 0 256c0 98.7 80.6 181.6 190 205.8l2.7 4.8c2.6 7.8 6.7 14.9 11.8 21.1 2.3 2.8 4.8 5.4 7.6 7.7 11.7 10.2 27.1 16.4 43.9 16.4 16.8 0 32.1-6.2 43.9-16.4 2.7-2.4 5.3-5 7.6-7.7 5.1-6.2 9.2-13.4 11.8-21.1l2.7-4.8C431.4 437.6 512 354.7 512 256z" opacity=".1" fill="#fff"/><path d="M173 237.5c-22.6 0-41 18.4-41 41s18.4 41 41 41 41-18.4 41-41-18.4-41-41-41zm0 66c-13.8 0-25-11.2-25-25s11.2-25 25-25 25 11.2 25 25-11.2 25-25 25zm0-39.4c-7.9 0-14.4 6.4-14.4 14.4s6.4 14.4 14.4 14.4c7.9 0 14.4-6.4 14.4-14.4s-6.4-14.4-14.4-14.4zm-5.2 14.4c-2.5 0-4.6-2-4.6-4.6s2-4.6 4.6-4.6c2.5 0 4.6 2 4.6 4.6s-2.1 4.6-4.6 4.6zm171.2-41c-22.6 0-41 18.4-41 41s18.4 41 41 41 41-18.4 41-41c-.1-22.6-18.4-41-41-41zm0 66c-13.8 0-25-11.2-25-25s11.2-25 25-25 25 11.2 25 25-11.3 25-25 25zm0-39.4c-7.9 0-14.4 6.4-14.4 14.4s6.4 14.4 14.4 14.4c7.9 0 14.4-6.4 14.4-14.4s-6.5-14.4-14.4-14.4zm-5.3 14.4c-2.5 0-4.6-2-4.6-4.6s2-4.6 4.6-4.6 4.6 2 4.6 4.6-2 4.6-4.6 4.6zM512 256c0-53.6-23.8-102.6-63.1-140l11.8-12.4c3.5-3.7 6.1-8.1 7.5-12.9 7.4-26.3-10.6-59.4-44.1-77.9C408.6 4.1 392.3 0 377.4 0c-17.4 0-32.9 5.7-42.9 16.6-3.4 3.7-5.7 8.3-7 13.2l-5.3 20.5C301.1 45.5 278.9 43 256 43s-45.1 2.5-66.3 7.2l-5.3-20.5c-1.3-4.9-3.6-9.4-7-13.2C167.5 5.7 152 0 134.6 0 119.7 0 103.4 4.1 88 12.7 54.5 31.3 36.5 64.3 43.8 90.6c1.4 4.9 4 9.3 7.5 12.9L63.1 116C23.8 153.4 0 202.4 0 256c0 98.7 80.6 181.6 190 205.8l2.7 4.8c2.6 7.8 6.7 14.9 11.8 21.1 2.3 2.8 4.8 5.4 7.6 7.7 11.7 10.2 27.1 16.4 43.9 16.4 16.8 0 32.1-6.2 43.9-16.4 2.7-2.4 5.3-5 7.6-7.7 5.1-6.2 9.2-13.4 11.8-21.1l2.7-4.8C431.4 437.6 512 354.7 512 256zM305.3 458.9l-.7 1.3-.5 1.4c-2 5.9-5 11.3-9 16.1-1.7 2.1-3.7 4-5.8 5.9-9.3 8.1-21.1 12.5-33.4 12.5s-24.1-4.4-33.4-12.5c-2.1-1.8-4.1-3.8-5.8-5.9-4-4.8-7-10.2-9-16.1l-.5-1.4-.7-1.3-15.8-28.3c-9.3-16.6-9.1-37.1.4-53.6l61.4-105.7c.3-.5.8-.8 1.3-.8h4c.5 0 1 .3 1.3.8L320.7 377c9.6 16.5 9.7 37 .4 53.6l-15.8 28.3zm27.4-16.2 2.4-4.2c12.1-21.6 11.9-48-.6-69.4l-61.4-105.7c-3.1-5.4-8.9-8.7-15.2-8.7h-4c-6.2 0-12 3.3-15.2 8.7L177.5 369c-12.4 21.4-12.7 47.8-.6 69.4l2.4 4.2C84.5 416.3 16 342.6 16 256c0-23.9 5.2-47.2 15.4-69.4 9.9-21.6 24.3-41.5 42.8-59l11.6-11-11-11.6-11.9-12.5c-1.8-1.9-3.1-4-3.7-6.2-2.4-8.7-.6-19.2 5.3-29.7 6.6-11.8 17.7-22.4 31.2-29.9 12.6-7 26-10.7 38.9-10.7 13.2 0 24.5 4.1 31 11.3 1.5 1.7 2.7 3.9 3.4 6.4l5.3 20.5 3.9 15 15.1-3.4c20.4-4.5 41.5-6.8 62.8-6.8 21.3 0 42.4 2.3 62.8 6.8l15.1 3.4 3.9-15 5.3-20.5c.6-2.5 1.8-4.7 3.4-6.4C353 20 364.1 16 377.4 16c12.8 0 26.3 3.7 38.9 10.7 13.5 7.5 24.6 18.1 31.2 29.9 5.9 10.5 7.7 21 5.3 29.7-.6 2.2-1.9 4.4-3.7 6.2L437.3 105l-11 11.6 11.6 11c18.5 17.6 32.9 37.5 42.8 59 10.2 22.2 15.4 45.5 15.4 69.4-.1 86.6-68.6 160.3-163.4 186.7zm-28.3-3.1C295.3 457.1 277 469 256 469s-39.3-11.9-48.4-29.4c-2.7-5.3 1.2-11.6 7.1-11.6h82.5c6 0 9.9 6.3 7.2 11.6z" fill="#fff"/></svg>