<svg xmlns="http://www.w3.org/2000/svg" viewBox="0 0 512 512" xml:space="preserve"><path d="m368 152-3.1-23.8c-.8-6.4-3-12.6-6.2-18 15.7-.9 40.3-4.7 60.2-19 19.4-14 37-32 47.9-44 2.6-2.9 7.3-.1 6 3.5-6.3 18.2-18.3 47.3-35.9 65.5-17.9 18.6-49.7 30.1-68.9 35.8zM93 91.1c-19.4-14-37-32-47.9-44-2.6-2.9-7.3-.1-6 3.5 6.3 18.2 18.3 47.3 35.9 65.5 18 18.7 49.8 30.2 69 35.8l3.1-23.8c.8-6.4 3-12.6 6.2-18-15.8-.8-40.4-4.7-60.3-19zm415 62.1c-12.5-21.7-50.7-23.1-85.2-3.2-3 1.7-5.8 3.6-8.6 5.5-6.2 4.4-12.8 8.3-19.7 11.4l-23.4 10.7c1.4 17 .9 34.1-1.6 51l-1.7 11.7 2.8.7c7.4 1.9 15.1 2.4 22.7 1.2 5.9-.9 11.9-1 17.8-.2 16.6 2.3 37.4-2.1 57-13.5 34.6-19.9 52.4-53.6 39.9-75.3zm-367.2 24.4-23.4-10.7c-6.9-3.2-13.5-7.1-19.7-11.4-2.7-1.9-5.6-3.7-8.6-5.5-34.5-19.9-72.7-18.5-85.2 3.2s5.3 55.4 39.8 75.4c19.6 11.3 40.4 15.8 57 13.5 5.9-.8 11.9-.7 17.8.2 7.6 1.1 15.3.7 22.7-1.2l2.8-.7-1.7-11.7c-2.4-17-2.9-34.1-1.5-51.1zm221.4-8.9c2.5 19.5 2.4 39.3-.5 58.7l-7.1 47.6c-3 20-7.3 39.8-13 59.2l-15 51.4C313.8 358 287 339 256.1 339s-57.7 19-70.5 46.6l-15-51.4c-5.7-19.4-10-39.2-13-59.2l-7.1-47.6c-2.9-19.5-3.1-39.2-.5-58.7l5.2-39.5c1.9-14.3 11.2-26.5 24.5-32.1l7.3-3c12.7-5.3 26.3-8 40.1-8h58.1c13.7 0 27.4 2.7 40.1 8l7.3 3c13.3 5.5 22.7 17.8 24.5 32.1l5.1 39.5zM256 466.1c18.2 0 33.9-7.3 41.9-18h-83.8c8 10.7 23.7 18 41.9 18zm70.5-44c0 2.4-.1 4.8-.3 7.2-.6 6.1-5.8 10.8-11.9 10.8H197.8c-6.2 0-11.4-4.7-11.9-10.8-.2-2.4-.3-4.8-.3-7.2 0-41.4 31.6-75 70.5-75s70.4 33.6 70.4 75z" opacity=".1" fill="#fff"/><path d="m368 152-3.1-23.8c-.8-6.4-3-12.6-6.2-18 15.7-.9 40.3-4.7 60.2-19 19.4-14 37-32 47.9-44 2.6-2.9 7.3-.1 6 3.5-6.3 18.2-18.3 47.3-35.9 65.5-17.9 18.6-49.7 30.1-68.9 35.8zM93 91.1c-19.4-14-37-32-47.9-44-2.6-2.9-7.3-.1-6 3.5 6.3 18.2 18.3 47.3 35.9 65.5 18 18.7 49.8 30.2 69 35.8l3.1-23.8c.8-6.4 3-12.6 6.2-18-15.8-.8-40.4-4.7-60.3-19zm415 62.1c-12.5-21.7-50.7-23.1-85.2-3.2-3 1.7-5.8 3.6-8.6 5.5-6.2 4.4-12.8 8.3-19.7 11.4l-23.4 10.7c1.4 17 .9 34.1-1.6 51l-1.7 11.7 2.8.7c7.4 1.9 15.1 2.4 22.7 1.2 5.9-.9 11.9-1 17.8-.2 16.6 2.3 37.4-2.1 57-13.5 34.6-19.9 52.4-53.6 39.9-75.3zm-367.2 24.4-23.4-10.7c-6.9-3.2-13.5-7.1-19.7-11.4-2.7-1.9-5.6-3.7-8.6-5.5-34.5-19.9-72.7-18.5-85.2 3.2s5.3 55.4 39.8 75.4c19.6 11.3 40.4 15.8 57 13.5 5.9-.8 11.9-.7 17.8.2 7.6 1.1 15.3.7 22.7-1.2l2.8-.7-1.7-11.7c-2.4-17-2.9-34.1-1.5-51.1zm221.4-8.9c2.5 19.5 2.4 39.3-.5 58.7l-7.1 47.6c-3 20-7.3 39.8-13 59.2l-15 51.4C313.8 358 287 339 256.1 339s-57.7 19-70.5 46.6l-15-51.4c-5.7-19.4-10-39.2-13-59.2l-7.1-47.6c-2.9-19.5-3.1-39.2-.5-58.7l5.2-39.5c1.9-14.3 11.2-26.5 24.5-32.1l7.3-3c12.7-5.3 26.3-8 40.1-8h58.1c13.7 0 27.4 2.7 40.1 8l7.3 3c13.3 5.5 22.7 17.8 24.5 32.1l5.1 39.5zm-183.7 85.5s-.9-9-6.5-12.2c-5.6-3.1-11.8-2.7-13.8.9s.9 9 6.5 12.2c5.6 3.1 13.8-.9 13.8-.9zM353.8 243c-2-3.6-8.2-4-13.8-.9-5.6 3.1-6.5 12.2-6.5 12.2s8.2 4 13.8.9c5.6-3.2 8.5-8.6 6.5-12.2zM256 466.1c18.2 0 33.9-7.3 41.9-18h-83.8c8 10.7 23.7 18 41.9 18zm70.5-44c0 2.4-.1 4.8-.3 7.2-.6 6.1-5.8 10.8-11.9 10.8H197.8c-6.2 0-11.4-4.7-11.9-10.8-.2-2.4-.3-4.8-.3-7.2 0-41.4 31.6-75 70.5-75s70.4 33.6 70.4 75zm-101.3-26c-.6-.4-1.2-.7-1.9-1-2.2-1-4-2.5-5.2-4.6-.3-.5-.5-1-.7-1.5-1.2-3.1-1-7.6-.6-10.7.2-1.3-1.3-2.1-2.3-1.3-2.1 1.8-4.6 4.5-5.1 7.9-.4 2.5-.5 6.6-.4 10.5 0 1.7.3 3.3.9 4.9 1.5 3.9 3.7 7.1 6.4 9.6.1 0 .1.1.2.1 6.3 3.8 13.5 3.6 15.8-.5 2.3-3.7-.9-9.8-7.1-13.4zm77.4-11c-.6-3.4-3.1-6.2-5.1-7.9-1-.8-2.5 0-2.3 1.3.4 3.1.7 7.6-.6 10.7-.2.5-.4 1-.7 1.5-1.1 2.1-3 3.6-5.2 4.6-.6.3-1.3.6-1.9 1-6.2 3.6-9.4 9.7-7.1 13.7 2.3 4.1 9.5 4.3 15.8.5.1 0 .1-.1.2-.1 2.6-2.5 4.9-5.7 6.4-9.6.6-1.6.9-3.2.9-4.9.1-4.2 0-8.3-.4-10.8z" fill="#fff"/></svg>