<svg version="1.1" xmlns="http://www.w3.org/2000/svg" x="0" y="0" viewBox="0 0 512 512" style="enable-background:new 0 0 512 512" xml:space="preserve"><path d="M256 69.3c1.6 0 3.2.8 4.1 2.3l.4.7 84 132.7-58.4 35.2c-.6.4-1.4.6-2.3.6-.6 0-1.1-.1-1.7-.3l-109.7-43L252 71.7c.9-1.5 2.4-2.4 4-2.4m-99.8 153.6 5 1.9L270.9 268h.2c4 1.5 8.5 2.3 12.8 2.3 6.1 0 12.1-1.6 17.6-4.6l.1-.1.1-.1.5-.3 57.3-34.5.8-.5.1-.1 137.1 217h-483l141.7-224.2M256 61.3c-4.3 0-8.3 2.2-10.8 5.8l-84.8 134.1 118.7 46.6c1.5.6 3 .9 4.6.9 2.2 0 4.4-.5 6.4-1.7l65.4-39.4-88.6-140.3-.1-.1c-2.5-3.6-6.5-5.9-10.8-5.9zM153 213 0 455.2h512L361.8 217.5l-6.5 6.4-57.3 34.5-.5.3c-4.3 2.4-9.1 3.6-13.7 3.6-3.3 0-6.7-.6-10-1.8l-109.6-43.2L153 213z" style="fill:#fff"/></svg>