<svg xmlns="http://www.w3.org/2000/svg" viewBox="0 0 512 512" xml:space="preserve"><path d="M277.5 123.8c1.6 1.9 3.8 5.4 5.9 11.3 3.2 9.2 4.4 20.5 3.3 31-1.9 18.7-10.3 28.7-15.6 28.7h-.6c-3.1-.3-5.4-3.1-6.8-5.4-3.8-6.1-5.4-15.7-4.3-26.2 1.1-10.4 4.7-21.2 9.8-29.6 3.3-5.3 6.3-8.4 8.3-9.8m-105.9 9.7c1.9 1.5 5 4.7 8.2 10.5 4.8 8.7 8 20 8.8 30.8.8 11-1.1 20.9-5.1 27-3.1 4.7-5.9 4.9-6.8 5h-.5c-6 0-15-10.5-16.4-30.2-.8-10.8 1-22.3 4.8-31.7 2.5-6.1 5.3-9.7 7-11.4m201.2 18.3c2.5 7 4.6 20.8.3 37.2-4.4 17.2-12.9 24.1-15.7 24.1-.1 0-.2 0-.3-.1-.9-.2-1.8-1.5-2.2-2.3-2.6-4.5-4.2-13.8-.8-26.7 4.1-16.3 13-27.4 18.7-32.2M74 210.3c1.8 1 5.1 3.6 8.9 9.1 5.4 8 9.3 18.3 10.9 29.2 2.3 15.6-.9 26.7-4.8 31.8-2 2.7-3.5 2.9-4 3h-.6c-4.9 0-16-9.3-19.2-30.7-1.6-10.6-.7-22 2.5-31.1 2.1-6.5 4.8-9.9 6.3-11.3M444.2 223c1.1 3.7 1.8 9.6.2 16-1.6 5.9-4.3 8.7-5.7 8.7-.2 0-.4 0-.6-.1-3.1-.9-3.2-6.2-2-10.9 1.6-6 5.1-10.9 8.1-13.7m-200.4 70.2c20.6 0 43.6 3.4 66.4 9.7h.2c5.8 1.6 11.3 3.3 16.6 5.2h.2c36.2 12.5 68 31 89.5 52.2 4.4 4.4 4.9 9.5 4.8 12.3-.1 2.7-1 7.8-5.7 11.7-5.8 4.8-19.8 12.3-42 19-18.7 5.6-38.5 9-51.9 9-1.9 0-3.5-.1-5-.2-7.6-.7-14-1.8-20.3-2.8-8.9-1.5-17.4-2.9-26.9-2.9-13.4 0-25.7 2.9-38.8 9-26 12.2-45.9 32.1-56.3 56.1l-.1.2-.1.2c-.1.2-.2.3-.2.4-6.1 4.9-14.1 7.7-22.7 7.7-11.3 0-21.9-4.9-27.6-12.8l-29.1-40.1c-10.8-14.8-15.6-30-15.6-38.5 0-11.8 10.7-23.8 27.1-30.4h.2c7.8-3.2 34.1-14.3 46.9-23.2l.1-.1.1-.1c7.3-5.2 16.5-13.1 28.2-24.2l1.1-1.1.4-.5c10.9-9.9 33.4-15.8 60.5-15.8M304.1 0c-5.5 0-18.5 15.4-21.1 28.6-2.7 13.6 3.3 19.1 11.8 20.8 1.5.3 2.9.5 4.3.5 6.7 0 12.4-3.8 14.6-15.1 2.7-13.6-4-33.6-9.1-34.7-.2 0-.3-.1-.5-.1zM176.8 3.5c-5.2 0-15.7 18.3-15.7 32.2 0 13.9 7 18.1 15.7 18.1s15.7-4.2 15.7-18.1c0-13.9-10.5-32.2-15.7-32.2zm229.7 68c-4 0-14.2 8.5-17.5 16.8-3.5 8.8-.1 13.3 5.5 15.5 1.6.6 3.2 1 4.7 1 3.8 0 7.4-2.3 9.9-8.6 3.5-8.9 1.4-23.3-1.9-24.6-.2-.1-.5-.1-.7-.1zM67.4 86.8c-5.2 0-15.7 18.3-15.7 32.2s7.1 18.1 15.7 18.1c8.7 0 15.7-4.2 15.7-18.1S72.7 86.8 67.4 86.8zm210.9 4c-24.1 0-47 33.1-50.8 69.1-3.9 37.4 14.5 64.1 39.6 66.7 1.3.1 2.6.2 3.9.2 23.5 0 43.9-22 47.5-57.5 3.8-37.5-12.4-75.8-37.5-78.4-.9-.1-1.8-.1-2.7-.1zm-107 9.8c-.6 0-1.2 0-1.9.1-25.6 1.8-44.2 40.2-41.5 78.3 2.6 36.7 23.9 59.9 48.4 59.9.9 0 1.8 0 2.7-.1 25.6-1.8 44.2-28.1 41.5-66.2-2.6-37.2-24.4-72-49.2-72zm204.5 16.8c-21.1 0-44.6 26.9-52.8 58.5-9.1 34.8 3.6 62.3 26 68.1 2.8.7 5.6 1.1 8.4 1.1 19.7 0 38.8-17.6 46.7-48.1 9-34.8 0-73.1-22.4-78.9-1.9-.5-3.9-.7-5.9-.7zm97.4 44c-2.6 0-9.1 4.8-11.5 9.6-2.5 5.5-.6 8.4 2.8 10 1.1.5 2.2.8 3.3.8 2.2 0 4.3-1.3 6.1-4.9 2.6-5.4 1.9-14.4-.1-15.4-.2-.1-.4-.1-.6-.1zM73.5 177.9c-1.4 0-2.8.1-4.2.3-25.4 3.7-41.4 41.5-35.8 79.3 5.2 35.2 27.3 58 50.8 58 1.7 0 3.5-.1 5.3-.4 25.4-3.7 41.4-33.4 35.8-71.2-5.3-35.7-28-66-51.9-66zm373.4 10.8c-17.7 0-36 18-41.8 40-6.4 24.6 5.5 44.8 24.9 49.9 2.9.7 5.8 1.1 8.7 1.1 16.3 0 31.3-11.8 36.7-32.7 6.3-24.6-2.9-52.5-22.3-57.5-2.1-.5-4.1-.8-6.2-.8zm-203.1 72.5c-35.5 0-64.9 8.4-82 24.2-.7.6-1.4 1.3-2 2-4.6 4.4-16 15.2-24.5 21.2-10.9 7.6-40.8 19.9-40.8 19.9-28.1 11.3-47.2 34-47.2 60.1 0 17.1 8.2 38.7 21.7 57.3L98.1 486c11.4 15.7 31.1 26 53.5 26 16.8 0 32-5.8 43.4-15.3 4-3.3 7-7.7 9-12.5 6.9-16 21.1-30.7 40.5-39.8 9.5-4.5 17.4-6 25.2-6 12.4 0 24.8 3.8 44.1 5.6 2.5.2 5.2.3 8 .3 33.5 0 91-15.7 114.5-35.4 21.7-18.2 23-51.4 2.8-71.3-23.9-23.6-59.4-45.2-101.6-59.7-6.3-2.2-12.5-4.1-18.7-5.8-26.4-7.4-51.9-10.9-75-10.9z" fill="#fff"/></svg>