<svg version="1.1" xmlns="http://www.w3.org/2000/svg" x="0" y="0" viewBox="0 0 512 512" xml:space="preserve"><path d="M337.4 47.1c-25.8-25.3-57-36.4-81.4-36.4-24.4 0-55.6 11.1-81.4 36.4-44.2 43.2-112.1 197.6-87.4 307.1 2.3-7.2 5.3-14.3 9.2-21.3 8.9-16 21.6-30.3 37.7-42.6 32.7-24.9 76-38.6 122-38.6s89.3 13.7 122 38.6c16.1 12.3 28.8 26.6 37.7 42.6 3.8 6.9 6.9 14 9.1 21.2 24.5-109.5-43.3-263.8-87.5-307zM113 13.4l2.4-4.7c5.3-10.5 19.9-11.8 26.9-2.3L159.6 30c3.2 4.3 7.6 7.2 12.5 8.4-1.1 1-2.1 2-3.1 3-8.2 8-17.1 19.5-25.9 33.6l-.4-.2c-4.3-1.8-8.2-4.3-11.7-7.4l-9.1-8.1c-13-11.5-16.7-30.3-8.9-45.9zm230 28c-1-1-2.1-2-3.1-3 4.9-1.3 9.4-4.1 12.5-8.4l17.4-23.5c7-9.5 21.6-8.2 26.9 2.3l2.4 4.7c7.8 15.6 4.1 34.4-8.9 45.9l-9.1 8.1c-3.5 3.1-7.4 5.6-11.7 7.4l-.4.2c-8.9-14.1-17.8-25.7-26-33.7zm-87 218.4c-91.5 0-165.7 56.5-165.7 126.1S164.5 512 256 512s165.7-56.5 165.7-126.1S347.5 259.8 256 259.8z" opacity=".1" fill="#fff"/><path d="M337.4 47.1c-25.8-25.3-57-36.4-81.4-36.4-24.4 0-55.6 11.1-81.4 36.4-44.2 43.2-112.1 197.6-87.4 307.1 2.3-7.2 5.3-14.3 9.2-21.3 8.9-16 21.6-30.3 37.7-42.6 32.7-24.9 76-38.6 122-38.6s89.3 13.7 122 38.6c16.1 12.3 28.8 26.6 37.7 42.6 3.8 6.9 6.9 14 9.1 21.2 24.5-109.5-43.3-263.8-87.5-307zM159.2 147.8c-7.6-4.9-12.6-13.5-12.6-23.2 0-2.8.4-5.5 1.2-8.1 7.5 4.9 12.6 13.5 12.6 23.2 0 2.8-.4 5.5-1.2 8.1zm193.6 0c-.8-2.6-1.2-5.3-1.2-8.1 0-9.7 5.1-18.3 12.6-23.2.8 2.6 1.2 5.3 1.2 8.1 0 9.7-5 18.3-12.6 23.2zM113 13.4l2.4-4.7c5.3-10.5 19.9-11.8 26.9-2.3L159.6 30c3.2 4.3 7.6 7.2 12.5 8.4-1.1 1-2.1 2-3.1 3-8.2 8-17.1 19.5-25.9 33.6l-.4-.2c-4.3-1.8-8.2-4.3-11.7-7.4l-9.1-8.1c-13-11.5-16.7-30.3-8.9-45.9zm230 28c-1-1-2.1-2-3.1-3 4.9-1.3 9.4-4.1 12.5-8.4l17.4-23.5c7-9.5 21.6-8.2 26.9 2.3l2.4 4.7c7.8 15.6 4.1 34.4-8.9 45.9l-9.1 8.1c-3.5 3.1-7.4 5.6-11.7 7.4l-.4.2c-8.9-14.1-17.8-25.7-26-33.7zm-87 218.4c-91.5 0-165.7 56.5-165.7 126.1S164.5 512 256 512s165.7-56.5 165.7-126.1S347.5 259.8 256 259.8zm-75.4 67.4c-6.9-3.2-12.7-8.6-16.4-15.2-.6-1.1-.7-2.4-.3-3.6 2.6-7 7.3-12.9 13.3-17.1 2-1.3 4.6-.8 5.9 1.2 3.6 5.6 5.6 12.3 5.6 19.4 0 4.6-.8 9-2.4 13.1-.8 2.2-3.4 3.3-5.7 2.2zm146.3 132.7c-20 6-43.6 9.3-70.9 9.3s-50.8-3.3-70.9-9.3c-2.1-.6-1.9-3.6.2-4 21.8-4.1 45.7-6.4 70.7-6.4s48.8 2.2 70.7 6.4c2.1.4 2.3 3.4.2 4zM347.8 312c-3.7 6.6-9.5 12-16.4 15.2-2.3 1.1-4.9 0-5.7-2.2-1.6-4.1-2.4-8.5-2.4-13.1 0-7.1 2-13.8 5.6-19.4 1.3-2 3.9-2.5 5.9-1.2 6 4.2 10.7 10.1 13.3 17.1.4 1.2.3 2.5-.3 3.6z" fill="#fff"/></svg>