<svg version="1.1" xmlns="http://www.w3.org/2000/svg" x="0" y="0" viewBox="0 0 512 512" xml:space="preserve"><path d="M360.1 262.3c-3.5-10-8.2-19.5-14.4-28-19-26.1-45.4-46.4-76.2-57.8 3.6-11.6 5.6-23.9 5.5-36.8-.2-38.8-18.9-73.4-47.6-95.4h43.4c-6.6-16.4-22.6-28-41.3-28-11.7 0-22.3 4.5-30.2 11.9-14.3-5.8-30-9-46.4-8.8-15.6.1-30.6 3.2-44.3 8.8-7.9-7.4-18.5-11.9-30.1-11.9-18.7 0-34.8 11.6-41.3 28h43.2C51.6 66.4 33 101.2 33 140.3c0 25.4 7.8 49 21.2 68.4C20.9 238.9 0 282.4 0 330.8c0 90.9 73.6 164.5 164.5 164.5l347.5.3C444.4 431.8 391.3 352 360.1 262.3z" opacity=".1" fill="#fff"/><path d="M440.8 496h-10.9c-91.7-1.7-173.6-43.8-228.4-109.3-45.4-54.2-39.1-135.3 15.4-180.3 15.5-12.8 33.5-22.9 53-29.3 11.5 4.3 22.4 9.8 32.5 16.4 1.7 1.1 3.3 2.2 5 3.4.1 0 .1.1.2.1 1.6 1.1 3.1 2.3 4.7 3.4.1.1.3.2.4.3 1.5 1.1 2.9 2.2 4.3 3.4.2.2.4.4.7.6l3.9 3.3c.3.3.6.6.9.8 1.2 1.1 2.4 2.1 3.5 3.2l1.2 1.2c1 1 2.1 2 3.1 3 .5.5 1 1 1.5 1.6.9.9 1.8 1.9 2.6 2.8.6.6 1.1 1.3 1.7 2 .7.9 1.5 1.7 2.2 2.6.7.8 1.3 1.6 1.9 2.4.6.8 1.2 1.5 1.9 2.3.7.9 1.3 1.8 2 2.7.5.7 1.1 1.4 1.6 2.2.7 1 1.4 2 2 2.9.1.1.1.2.2.3 5.1 7.7 9.1 16.1 12.1 24.8.3.9.7 1.8 1 2.8.7 1.9 1.3 3.7 2 5.6.4 1.1.9 2.3 1.3 3.4.6 1.6 1.2 3.3 1.8 4.9.5 1.4 1.1 2.7 1.6 4.1s1.1 2.8 1.6 4.2l1.8 4.5c.5 1.2 1 2.5 1.5 3.7.7 1.6 1.4 3.3 2.1 4.9.5 1.1.9 2.2 1.4 3.2.8 1.7 1.5 3.5 2.3 5.2.4 1 .8 1.9 1.3 2.9.8 1.8 1.7 3.6 2.5 5.3l1.2 2.7c.9 1.9 1.8 3.7 2.7 5.6.4.8.7 1.6 1.1 2.3 1 1.9 1.9 3.9 2.9 5.8.4.7.7 1.4 1.1 2.1 1.1 2 2.1 4.1 3.2 6.1.3.6.6 1.1.9 1.7 1.1 2.1 2.3 4.2 3.4 6.4.3.5.5.9.7 1.4 1.2 2.1 2.4 4.3 3.6 6.4.2.4.5.9.7 1.3l3.9 6.6c.2.3.4.6.6 1 1.4 2.3 2.7 4.6 4.1 6.8.1.2.3.5.4.7 1.4 2.3 2.8 4.6 4.3 6.9l.3.6 4.5 6.9c.1.1.2.3.3.4 1.5 2.4 3.1 4.7 4.7 7 .1.1.1.2.2.3 1.6 2.4 3.2 4.7 4.9 7.1l.1.1c1.7 2.4 3.4 4.8 5.1 7.1 22.1 30.8 47.1 59.3 74.6 85.2h-62.8c-2.6-.1-5.4 0-8.1 0zM217.9 96.5c.8 4.4-14.3 19.3-23.2 20.9-1 .2-1.9.3-2.9.3-7.9 0-14.8-5.6-16.2-13.6-1.6-9 4.4-17.5 13.4-19.1.7-.1 1.5-.2 2.4-.2 9.5-.1 25.8 7.7 26.5 11.7zm-10.7 3.8c0-5.8-4.7-10.5-10.5-10.5s-10.5 4.7-10.5 10.5 4.7 10.5 10.5 10.5 10.5-4.7 10.5-10.5zm-9 0c0 1.9 1.6 3.5 3.5 3.5s3.5-1.6 3.5-3.5-1.6-3.5-3.5-3.5-3.5 1.5-3.5 3.5zm-76.7 3.5c1.9 0 3.5-1.6 3.5-3.5s-1.6-3.5-3.5-3.5-3.5 1.6-3.5 3.5 1.6 3.5 3.5 3.5zm-31.2-7.3c.7-4.1 17-11.8 26.6-11.8.8 0 1.6.1 2.4.2 9 1.6 15 10.1 13.4 19.1-1.4 8-8.4 13.6-16.2 13.6-1 0-1.9-.1-2.9-.3-9-1.5-24.1-16.3-23.3-20.8zm15.7 3.8c0 5.8 4.7 10.5 10.5 10.5s10.5-4.7 10.5-10.5-4.7-10.5-10.5-10.5-10.5 4.7-10.5 10.5zm-63.9 6c0-6.7 1.3-13.1 3.6-19C54 70.6 66 56.1 80.7 44.8H37.3l.6-1.5c.1-.2.2-.3.2-.5.1-.3.3-.6.4-1l.3-.6c.1-.3.3-.6.4-.8l.3-.6c.1-.3.3-.5.4-.8.1-.2.3-.4.4-.6.1-.2.3-.5.4-.7.1-.2.3-.4.4-.6.1-.2.3-.5.5-.7.1-.2.3-.4.4-.6.2-.2.3-.4.5-.6.2-.2.3-.4.5-.6.2-.2.3-.4.5-.6.2-.2.3-.4.5-.6.2-.2.3-.4.5-.6l.6-.6c.2-.2.3-.4.5-.5l.6-.6.5-.5c.2-.2.4-.4.6-.7.1-.1.3-.3.5-.4.2-.2.5-.4.7-.7l.4-.4c.3-.2.5-.5.8-.7.1-.1.3-.2.4-.3.3-.2.6-.5.8-.7.1-.1.2-.1.3-.2.3-.3.6-.5 1-.8h.1c2.5-1.8 5.1-3.4 7.9-4.7.4-.2.9-.4 1.3-.6h.1c.4-.2.9-.3 1.3-.5.1 0 .1 0 .2-.1.4-.2.9-.3 1.3-.5.1 0 .1 0 .2-.1.4-.1.9-.3 1.3-.4.1 0 .1 0 .2-.1.4-.1.9-.2 1.3-.4.1 0 .1 0 .2-.1.4-.1.9-.2 1.4-.3h.2c.5-.1.9-.2 1.4-.3h.2c.5-.1.9-.2 1.4-.2h.2c.5-.1 1-.1 1.5-.2h.1c.5-.1 1-.1 1.6-.1.5 0 1-.1 1.5-.1h1.5c.7 0 1.4 0 2.1.1h.9c.4 0 .8 0 1.2.1.3 0 .6.1.8.1h.3c.3 0 .6.1.9.1s.6.1.9.1c.2 0 .3.1.5.1s.4.1.7.1c.3.1.6.1.9.2.2 0 .4.1.6.1s.3.1.5.1c.3.1.6.2.9.2.3.1.5.1.7.2.1 0 .2.1.3.1l.9.3.9.3h.1l.9.3c.3.1.6.2.9.4.3.1.6.2.9.4.3.1.6.3.9.4s.6.3.9.4.6.3.9.4.6.3.9.5.6.3.9.5.6.3.9.5.6.3.8.5c.3.2.6.4.9.5.3.2.5.4.8.5.3.2.6.4.8.6.3.2.5.4.8.6s.5.4.8.6.5.4.7.6c.3.2.5.4.8.6.4.3.8.7 1.1 1l.3.3c.1 0 .2-.1.3-.1 22.7 15.4 38 44.5 38 77.8 0 29-23.5 52.5-52.5 52.5s-52.3-23.7-52.3-52.7zm54.8 3.2c2.2 2 9.8 8.7 16.3 9.9 1.1.2 2.2.3 3.2.3 9 0 16.6-6.4 18.2-15.3 1.8-10-5-19.7-15-21.4-.8-.1-1.7-.2-2.7-.2-4.7 0-11.2 1.7-17.5 4.6-3.9 1.8-10.5 5.3-11.1 8.9-.7 4 5.8 10.6 8.6 13.2zM385.2 496l-220.6-.2C73.7 495.8.1 422.1.1 331.3c0-48.4 20.9-91.9 54.2-122.1-13.4-19.5-21.2-43-21.2-68.4 0-12 1.8-23.6 5-34.5 0 31.2 25.3 56.5 56.5 56.5s56.5-25.4 56.5-56.5c0-16.7-3.8-33.1-10.9-47.4-6.5-13.1-15.7-24.2-26.7-32.2 12.4-4.4 25.6-6.8 39.5-7 14.6-.1 28.6 2.4 41.6 7-10.9 8-20.1 19-26.6 32.1-7.1 14.3-10.9 30.7-10.9 47.4 0 31.2 25.3 56.5 56.5 56.5 31.1 0 56.4-25.3 56.5-56.3 3.2 10.7 4.9 22 5 33.7.1 11.4-1.5 22.4-4.4 32.9l-.7-.3-1.3.4c-19.8 6.6-38.1 16.7-54.3 30-7.2 5.9-13.6 12.5-19.2 19.6v-.1c0-6.1-5-11.1-11.1-11.1s-11.1 5-11.1 11.1c0 5.1 7.6 14.9 10.2 18-3.3 6.1-6.2 12.5-8.5 19-1.3-4.7-5.6-8.1-10.7-8.1-6.1 0-11.1 5-11.1 11.1s11.1 19.1 11.1 19.1 3.8-4.4 6.9-9.3c-1.5 6.2-2.6 12.6-3.2 19.1-1.3 14.3-.3 28.5 2.9 42.4-1.9-1.4-4.2-2.2-6.7-2.2-6.1 0-11.1 5-11.1 11.1s11.1 19.1 11.1 19.1 7.6-8.9 10.2-15.5c5.3 15.6 13.4 30 24.1 42.8 27.8 33.2 63 60.7 101.7 79.6 27.3 13.3 55.8 22.3 85.3 27.2zM143 302.8c0 6.1 11.1 19.1 11.1 19.1s11.1-13 11.1-19.1-5-11.1-11.1-11.1-11.1 4.9-11.1 11.1zm3.4-167.6l6.7 30.2c.2 1 1.7 1 2 0l6.7-30.2c.2-.9.1-1.9-.4-2.8l-5.5-10.4c-.8-1.4-2.8-1.4-3.5 0l-5.5 10.4c-.6.9-.7 1.9-.5 2.8zm-3.4 87.6c0 6.1 11.1 19.1 11.1 19.1s11.1-13 11.1-19.1-5-11.1-11.1-11.1-11.1 5-11.1 11.1zm-8.9 29c-6.1 0-11.1 5-11.1 11.1s11.1 19.1 11.1 19.1 11.1-13 11.1-19.1-5-11.1-11.1-11.1zm-10 40c-6.1 0-11.1 5-11.1 11.1s11.1 19.1 11.1 19.1 11.1-13 11.1-19.1-5-11.1-11.1-11.1zm-11.1-69c0 6.1 11.1 19.1 11.1 19.1s11.1-13 11.1-19.1-5-11.1-11.1-11.1-11.1 5-11.1 11.1zm-8.9 29c-6.1 0-11.1 5-11.1 11.1s11.1 19.1 11.1 19.1 11.1-13 11.1-19.1-5-11.1-11.1-11.1zm-10 40c-6.1 0-11.1 5-11.1 11.1s11.1 19 11.1 19 11.1-13 11.1-19.1-5-11-11.1-11zm-11.1-69c0 6.1 11.1 19.1 11.1 19.1s11.1-13 11.1-19.1-5-11.1-11.1-11.1-11.1 5-11.1 11.1zm-8.9 29c-6.1 0-11.1 5-11.1 11.1s11.1 19 11.1 19 11.1-13 11.1-19.1-5-11-11.1-11zm-10 40c-6.1 0-11.1 5-11.1 11.1s11.1 19 11.1 19 11.1-13 11.1-19.1-5-11-11.1-11zm-11.1-69c0 6.1 11.1 19.1 11.1 19.1s11.1-13 11.1-19.1-5-11.1-11.1-11.1-11.1 5-11.1 11.1zm-20 40c0 6.1 11.1 19.1 11.1 19.1s11.1-13 11.1-19.1-5-11.1-11.1-11.1S33 256.6 33 262.8zm-10 40c0 6.1 11.1 19.1 11.1 19.1s11.1-13 11.1-19.1-5-11.1-11.1-11.1S23 296.6 23 302.8zm32.2 40c0-6.1-5-11.1-11.1-11.1s-11.1 5-11.1 11.1 11.1 19.1 11.1 19.1 11.1-13 11.1-19.1zm30 0c0-6.1-5-11.1-11.1-11.1s-11.1 5-11.1 11.1 11.1 19.1 11.1 19.1 11.1-13 11.1-19.1zm30 0c0-6.1-5-11.1-11.1-11.1s-11.1 5-11.1 11.1 11.1 19.1 11.1 19.1 11.1-13 11.1-19.1zm30 0c0-6.1-5-11.1-11.1-11.1s-11.1 5-11.1 11.1 11.1 19.1 11.1 19.1 11.1-13 11.1-19.1zM253.7 72.3c3.3 4.8 6.3 9.8 8.9 15 2.3 5.9 3.6 12.3 3.6 19 0 29-23.5 52.5-52.5 52.5s-52.6-23.5-52.6-52.5c0-33.3 15.3-62.3 38-77.8.1 0 .2.1.3.1.5-.4.9-.8 1.4-1.2.3-.3.7-.5 1-.8l.2-.2.3-.3c.3-.2.6-.5 1-.7.1-.1.3-.2.4-.3.1 0 .1-.1.2-.1.3-.2.6-.4 1-.7.2-.2.4-.3.7-.5s.6-.4 1-.6c.1-.1.2-.1.3-.2.2-.1.3-.2.5-.3.3-.2.6-.4 1-.5.1-.1.3-.2.4-.2.1-.1.2-.1.3-.2.3-.2.6-.3 1-.5l.6-.3c.1 0 .2-.1.3-.1.3-.2.6-.3 1-.4.1 0 .2-.1.3-.1.2-.1.4-.2.5-.2.3-.1.6-.3 1-.4l.9-.3c.3-.1.6-.2 1-.3.3-.1.6-.2 1-.3.3-.1.6-.2 1-.3.3-.1.7-.2 1-.3.3-.1.6-.2.9-.2.4-.1.7-.2 1.1-.2.3-.1.6-.1.9-.2.4-.1.7-.1 1.1-.2.3 0 .6-.1.9-.1.3 0 .6-.1.8-.1h.4c.3 0 .6-.1.8-.1.3 0 .6 0 .9-.1h1.1c.7 0 1.4-.1 2.1-.1h1.5c.5 0 1 0 1.5.1.5 0 1 .1 1.6.1h.1c.5.1 1 .1 1.5.2h.2c.5.1 1 .1 1.4.2h.2c.5.1.9.2 1.4.3h.2c.5.1.9.2 1.4.3.1 0 .1 0 .2.1.4.1.9.2 1.3.4.1 0 .1 0 .2.1.4.1.9.3 1.3.4.1 0 .1 0 .2.1.4.1.9.3 1.3.5.1 0 .1 0 .2.1.4.2.9.3 1.3.5h.1c.5.2.9.4 1.3.6 2.8 1.3 5.5 2.8 7.9 4.7h.1c.3.2.7.5 1 .8.1.1.2.1.3.2.3.2.6.5.8.7.1.1.3.2.4.3.3.2.5.4.8.7l.4.4c.2.2.5.4.7.7.2.1.3.3.5.4.2.2.4.4.6.7l.5.5.6.6c.2.2.3.4.5.5l.6.6c.2.2.3.4.5.6.2.2.3.4.5.6.2.2.3.4.5.6.2.2.3.4.5.6.2.2.3.4.5.6.2.2.3.4.4.6.2.2.3.5.5.7.1.2.3.4.4.6.2.2.3.5.4.7s.3.4.4.6c.1.3.3.5.4.8l.3.6c.1.3.3.6.4.8l.3.6c.2.3.3.6.4 1 .1.2.2.3.2.5l.6 1.5h-43.4l2.7 2.1c.2.2.5.4.7.6.6.5 1.3 1.1 1.9 1.6.2.2.5.4.7.6.6.5 1.2 1.1 1.9 1.6l.6.6c.6.6 1.3 1.2 1.9 1.8.2.2.4.4.6.5.6.6 1.3 1.2 1.9 1.9l.5.5c.6.7 1.3 1.3 1.9 2 .1.1.2.3.4.4.7.7 1.3 1.4 2 2.2l.3.3c.7.8 1.3 1.5 2 2.3.1.1.1.2.2.2.7.8 1.3 1.6 2 2.5l.1.1c.7.9 1.3 1.7 2 2.6 0 0 0 .1.1.1.4 1.1 1 2.1 1.7 3zm-33.8 23.9c-.6-3.6-7.2-7.1-11.1-8.9-6.3-2.9-12.8-4.6-17.5-4.6v2-2c-1 0-1.9.1-2.7.2-10 1.8-16.8 11.4-15 21.4 1.6 8.9 9.2 15.3 18.2 15.3 1.1 0 2.2-.1 3.2-.3 6.5-1.2 14.1-7.8 16.3-9.9 2.8-2.5 9.3-9.1 8.6-13.2z" fill="#fff"/></svg>