<svg xmlns="http://www.w3.org/2000/svg" viewBox="0 0 512 512" xml:space="preserve"><path d="M409.3 159.9c-24.9-4.8-48.6-7.2-69.1-7.5-4.4-13.3-17-22.9-31.8-22.9-8.5 0-16.3 3.2-22.3 8.5-16.7 1.7-32.8 6.6-47.5 14.6l-17 9.2c-9.4 5.1-19.8 7.7-30.5 7.7h-70.5c-15.7 0-30.8-5.7-42.5-16.1-8.8-7.8-20.6-12.4-33.5-11.8-24.3 1.1-43.9 21-44.7 45.3-.6 17.6 8.5 33.2 22.4 41.7 7.1 4.6 14.6 8.5 22.5 11.5l333.3 126c18 6.8 36.6 11.5 55.6 14.1 48.5-32.3 78.2-76 78.2-124.2 0-25.9-8.6-50.6-24.1-72.9-21.2-9.2-48.3-17.4-78.5-23.2z" opacity=".1" fill="#fff"/><path d="M413.4 160.7c-1.4-.3-2.8-.6-4.1-.8-3.1-.6-6.2-1.2-9.3-1.7-1.5-.3-3.1-.5-4.6-.8-4.6-.7-9.1-1.4-13.5-2-1.5-.2-3-.4-4.4-.5-2.9-.3-5.8-.7-8.7-.9-10-1-19.6-1.5-28.6-1.6-4.4-13.3-17-22.9-31.8-22.9-8.5 0-16.3 3.2-22.3 8.5-16.7 1.7-32.8 6.6-47.5 14.6l-17 9.2c-1.8 1-3.6 1.8-5.4 2.6-4.3 1.8-8.7 3.2-13.2 4-3.9.7-7.9 1.1-11.9 1.1h-70.5c-15.7 0-30.8-5.7-42.5-16.1-2.2-1.9-4.6-3.7-7.1-5.2-3.2-1.9-6.6-3.4-10.2-4.5-1.4-.4-2.9-.8-4.4-1.1s-3-.5-4.6-.7c-2.3-.2-4.7-.3-7.1-.2-.9 0-1.9.1-2.8.2-.3 0-.5.1-.8.1l-2.1.3c-.2 0-.5.1-.7.1l-2.7.6c-.2 0-.3.1-.5.1-.7.2-1.4.4-2.2.6-.3.1-.5.2-.8.2-.7.2-1.4.5-2.1.7-.2.1-.3.1-.5.2-.8.3-1.6.7-2.4 1.1l-.6.3-1.8.9c-.2.1-.4.2-.7.4-1.5.9-3 1.8-4.5 2.8-.2.1-.4.3-.6.4-.6.4-1.1.8-1.6 1.3-.2.1-.3.3-.5.4-.7.6-1.3 1.1-2 1.7l-.3.3c-.5.5-1.1 1-1.6 1.6-.2.2-.4.4-.5.6-.5.5-1 1.1-1.5 1.6-.1.1-.2.2-.3.4-.6.7-1.1 1.4-1.6 2.1-.1.2-.3.4-.4.5-.4.6-.8 1.1-1.2 1.7-.1.2-.3.4-.4.6-.5.7-.9 1.5-1.4 2.3 7.9 12.2 25.2 35.6 36.5 37.7 7.5 1.5 14.5-1.5 21.8-4.6 7.5-3.2 15.2-6.4 24.1-5.4 9.2 1.1 19 8.3 28.4 15.3 8.6 6.4 17.5 13 25.8 14.8 8.4 1.9 15.7.5 24.9-1.2 9.8-1.9 20.8-3.9 36.8-2.9 16.5 1.1 30.3 6.6 42.5 11.5 10.9 4.4 21.2 8.5 31.4 8.5 10.7 0 29.4-4.4 49.2-9 20.1-4.6 40.9-9.5 54.7-10 18.1-.7 31.9 3.2 46.5 7.2 7.6 2 15.3 4.2 24 5.8 1.1.2 1.8 1.3 1.5 2.4-.2 1.1-1.2 1.8-2.3 1.6-8.8-1.6-16.7-3.8-24.3-5.9-14.3-4-27.9-7.7-45.3-7.1-13.4.5-34.1 5.3-54 9.9-3.9.9-7.8 1.8-11.6 2.7l-1.5 4.6c-.7 2.1-3.7 1.9-4.1-.2l-.6-3-4.2.9-1.1 3.3c-.7 2.1-3.7 1.9-4.1-.2l-.4-1.9c-2.4.5-4.7.9-6.9 1.3l-1.6 4.9c-.7 2.1-3.7 1.9-4.1-.2l-.8-3.7c-2.2.3-4.2.5-6.1.6l-1.1 3.3c-.7 2.1-3.7 1.9-4.1-.2l-.6-3.1c-2.3-.1-4.6-.5-6.9-.9l-1.4 4.2c-.7 2.1-3.7 1.9-4.1-.2l-1.2-5.7c-2-.6-4.1-1.3-6.2-2.1l-2.5 8c-.7 2.1-3.7 1.9-4.1-.2l-2.3-11.2-1.5-.6c-1.2-.5-2.5-1-3.8-1.5l-4.3 13.5c-.7 2.1-3.7 1.9-4.1-.2l-3.7-17.8c-.6-.2-1.2-.4-1.9-.6l-5.3 16.6c-.7 2.1-3.7 1.9-4.1-.2l-4.1-19.8c-.8-.1-1.5-.3-2.3-.4l-5.9 12.5c-1 1.9-3.9 1.4-4.1-.8l-.9-12.7c-2.8-.1-5.4-.1-7.9-.1l-1.5 7.3c-.4 2.1-3.4 2.3-4.1.2l-2.2-7c-3.5.3-6.8.8-9.9 1.3l-1.8 8.5c-.4 2.1-3.4 2.3-4.1.2l-2.3-7.2c-3.2.6-6.3 1.2-9.4 1.5l-5.3 16.6c-.7 2.1-3.7 1.9-4.1-.2l-3.4-16.5c-.9-.1-1.9-.3-2.9-.5-2.6-.6-5.2-1.6-7.8-2.8l-3.8 12c-.7 2.1-3.7 1.9-4.1-.2l-4-18.9c-1.5-1.1-3.1-2.2-4.6-3.3l-5.4 8.2c-1.2 1.8-4 .9-3.9-1.3l.8-13.1c-2.2-1.5-4.3-3-6.5-4.4l-6.2 7.7c-1.3 1.7-3.9.4-3.5-1.7l2-10.2c-2.3-1-4.6-1.7-6.9-2-2.6-.3-5-.2-7.5.2L78 210.6c-.3 2.2-3.2 2.5-3.9.4l-3.7-10.5c-1.7.7-3.3 1.4-5 2.1-2.3 1-4.6 1.9-6.9 2.8l-5.9 22.1c-.7 2.5-3.7 2.3-4.1-.3l-3-19.2c-1.3 0-2.5-.2-3.9-.4-3.8-.7-8-3.3-12.2-6.9l-6 15.7c-1 2.7-3.8 2.1-3.8-.8v-24.7c-6.5-7.4-12.3-15.6-15.8-20.9-.8 2-1.6 4-2.1 6.1-.2.7-.4 1.4-.5 2v.2c-.1.6-.3 1.3-.4 1.9 0 .2-.1.3-.1.5-.1.5-.2 1.1-.3 1.7 0 .3-.1.7-.1 1 0 .4-.1.8-.1 1.2-.2.8-.2 1.6-.2 2.3v1.6c0 8.2 2.1 15.9 5.8 22.6.2.4.5.9.8 1.3 3.9 6.6 9.4 12.1 15.9 16.1.9.6 1.8 1.1 2.7 1.7.9.6 1.8 1.1 2.7 1.6 1.8 1.1 3.7 2.1 5.5 3 1.9 1 3.8 1.9 5.7 2.7 1.9.9 3.9 1.7 5.8 2.4l333.3 126c2 .8 4 1.5 6 2.2.9.3 1.7.6 2.6.9 1.2.4 2.4.8 3.5 1.2l3 .9c1.1.3 2.2.7 3.3 1l3 .9c1.3.4 2.6.7 3.9 1 1.2.3 2.3.6 3.5.9 1.7.4 3.3.8 5 1.2.8.2 1.5.3 2.3.5 1.5.3 2.9.6 4.4.9.7.1 1.3.3 2 .4 1.7.3 3.5.6 5.2.9.4.1.8.1 1.1.2 2.2.4 4.5.7 6.7 1 48.5-32.3 78.2-76 78.2-124.2 0-25.8-8.6-50.5-24-72.7-20.2-8.6-45.9-16.6-74.5-22.4zM278 156.6c-3.5 0-6.9.5-10.1 1.4 6.2-5.6 13.4-9.9 21.4-12.8-.1.8-.2 1.7-.2 2.5 0 4.6 1.6 8.9 4.3 12.2-4.7-2.1-9.9-3.3-15.4-3.3zm36.8 7.4c-2.4.4-4.8.6-7.3.6h-.6c-.7 0-1.3 0-2-.1-4-2.2-6.9-7.1-6.9-12.9 0-3.6 1.1-6.8 2.9-9.3 3.1-.4 6.3-.7 9.6-.7 2.5 0 5 .1 7.4.4 1.9 2.5 3.1 5.9 3.1 9.6 0 5.4-2.5 10.1-6.2 12.4zm8.8-2.3c-1 .4-2 .7-3 1 4.4-3.6 7.1-8.9 7.1-14.9.1-.6 0-1.2 0-1.8 3.9 4.9 2.8 13.1-4.1 15.7z" fill="#fff"/></svg>