<svg version="1.1" xmlns="http://www.w3.org/2000/svg" x="0" y="0" viewBox="0 0 512 512" xml:space="preserve"><path d="M435 210c-14.6 10.6-45.1 21.7-63.9 27.9l-2.5 7.9c.6.2 1.2.3 1.7.5 1.7.6 3.4 1.2 5 1.9 4.4 2 8.1 5.2 10.5 9.2 1.2 2 1.4 4.5.3 6.6v.1c-.5 1-1.9 1.3-2.7.4-4-4.3-10.2-7.9-17.6-10.1l-1 3.1-7.6 23.8-1.8 5.7L316 410.3c1.9 7.5 3 15.5 3 23.7 0 43.1-28.2 78-63 78s-63-34.9-63-78c0-8.2 1-16.1 3-23.6L156.6 287l-1.8-5.7-7.6-23.8-1-3.1c-7.4 2.1-13.6 5.8-17.6 10.1-.8.8-2.2.6-2.7-.4v-.1c-1-2.1-.9-4.6.3-6.6 2.4-4 6.1-7.2 10.5-9.2 1.6-.7 3.3-1.3 5-1.9.6-.2 1.2-.4 1.7-.5l-2.5-7.9c-18.8-6.2-49.3-17.3-63.9-27.9C55 194-3 104 9 90s82 11 101 25c15.5 11.4 53.7 43.6 67.2 54.9l1.8-2.2c3.5-4.3 5.5-9.8 5.5-15.3v-12.8c0-3-.5-6.1-1.5-8.9l-1.2-3.5c-2.2-6.5-1.7-13.7 1.2-19.9l4.4-9.3-9.3-64.1c-1.1-7.7.4-15.5 4.4-22.2C186.9 4.4 194.6 0 203 0h6.5c7.2 0 13 5.8 13 13v35.3c0 9.3 4.1 18.1 11.3 24l8.8 8.1c3.8 3.5 8.6 5.3 13.5 5.3s9.7-1.8 13.5-5.3l8.8-8.1c7.1-5.9 11.3-14.8 11.3-24V13c0-7.2 5.8-13 13-13h6.5c8.4 0 16.2 4.4 20.4 11.7 4 6.7 5.5 14.5 4.4 22.2L324.5 98l4.4 9.3c3 6.2 3.4 13.4 1.2 19.9l-1.2 3.5c-1 2.9-1.5 5.9-1.5 8.9v12.8c0 5.6 1.9 11 5.5 15.3l1.8 2.2c13.5-11.4 51.7-43.5 67.2-54.9 19-14 89-39 101-25S457 194 435 210z" opacity=".1" fill="#fff"/><path d="M294.4 421c0 8.8-3.8 16-8.4 16s-8.4-7.2-8.4-16 3.8-16 8.4-16 8.4 7.2 8.4 16zM226 405c-4.7 0-8.4 7.2-8.4 16s3.8 16 8.4 16 8.4-7.2 8.4-16-3.7-16-8.4-16zm209-195c-14.6 10.6-45.1 21.7-63.9 27.9l-2.5 7.9c.6.2 1.2.3 1.7.5 1.7.6 3.4 1.2 5 1.9 4.4 2 8.1 5.2 10.5 9.2 1.2 2 1.4 4.5.3 6.6v.1c-.5 1-1.9 1.3-2.7.4-4-4.3-10.2-7.9-17.6-10.1l-1 3.1-7.6 23.8-1.8 5.7L316 410.3c1.9 7.5 3 15.5 3 23.7 0 43.1-28.2 78-63 78s-63-34.9-63-78c0-8.2 1-16.1 3-23.6L156.6 287l-1.8-5.7-7.6-23.8-1-3.1c-7.4 2.1-13.6 5.8-17.6 10.1-.8.8-2.2.6-2.7-.4v-.1c-1-2.1-.9-4.6.3-6.6 2.4-4 6.1-7.2 10.5-9.2 1.6-.7 3.3-1.3 5-1.9.6-.2 1.2-.4 1.7-.5l-2.5-7.9c-18.8-6.2-49.3-17.3-63.9-27.9C55 194-3 104 9 90s82 11 101 25c15.5 11.4 53.7 43.6 67.2 54.9l1.8-2.2c3.5-4.3 5.5-9.8 5.5-15.3v-12.8c0-3-.5-6.1-1.5-8.9l-1.2-3.5c-2.2-6.5-1.7-13.7 1.2-19.9l4.4-9.3-9.3-64.1c-1.1-7.7.4-15.5 4.4-22.2C186.9 4.4 194.6 0 203 0h6.5c7.2 0 13 5.8 13 13v35.3c0 9.3 4.1 18.1 11.3 24l8.8 8.1c3.8 3.5 8.6 5.3 13.5 5.3s9.7-1.8 13.5-5.3l8.8-8.1c7.1-5.9 11.3-14.8 11.3-24V13c0-7.2 5.8-13 13-13h6.5c8.4 0 16.2 4.4 20.4 11.7 4 6.7 5.5 14.5 4.4 22.2L324.5 98l4.4 9.3c3 6.2 3.4 13.4 1.2 19.9l-1.2 3.5c-1 2.9-1.5 5.9-1.5 8.9v12.8c0 5.6 1.9 11 5.5 15.3l1.8 2.2c13.5-11.4 51.7-43.5 67.2-54.9 19-14 89-39 101-25S457 194 435 210zm-290-.6 23.9-29.2c-8.7-7.8-29-25.7-37.5-32.4-11-8.6-51.5-23.8-58.4-15.3-6.9 8.6 26.6 63.5 39.3 73.3 6.3 4.8 17.6 9.8 27.5 13.6 1-3.6 2.7-7 5.2-10zm27.1 73.5c7.9-6.5 12.3-15 11.8-17.4-.6-2.7-9.7-9.9-21.2-12l3.1 9.7 4.2 13.3 1.8 5.7.3.7zM303 434c0-12.3-2.8-24.2-8-34.4l-1.1-2.1-.4-2.3c-1.1-5.7-3.7-9.2-5.5-9.2-1.8 0-3.5 3.2-3.8 3.8l-6.7 13.6-13.9-5.9c-2.4-1-4.9-1.5-7.7-1.5-2.7 0-5.3.5-7.7 1.5l-13.9 5.9-6.7-13.6c-.3-.6-2-3.8-3.8-3.8-1.8 0-4.4 3.5-5.5 9.2l-.4 2.3-1.1 2.1c-5.2 10.2-8 22.1-8 34.4 0 17.2 5.3 33.2 14.9 45.1 9 10.9 20.4 16.9 32.3 16.9 11.9 0 23.3-6 32.1-16.9 9.6-11.9 14.9-27.9 14.9-45.1zm34-142c-3.3-2.3-6.3-5.1-9.1-8.2-3.1-3.6-10.2-12.7-8.6-20.2 1.9-8.9 18.1-18.3 33-19.6l2.3-7.2 2-6.4c1.2-3.8.4-7.8-2.1-10.9l-34.1-41.7c-5.9-7.2-9.1-16.2-9.1-25.5v-12.8c0-4.8.8-9.5 2.3-14l1.2-3.5c.9-2.6.7-5.5-.5-8l-4.4-9.3-2.1-4.4.7-4.8 9.3-64.1c.6-4.1-.2-8.3-2.3-11.8-1.4-2.3-3.9-3.8-6.7-3.8h-3.5v32.3c0 13.9-6.1 27-16.7 36l-8.5 7.9c-6.6 6.2-15.3 9.5-24.3 9.5s-17.7-3.4-24.3-9.5l-8.5-7.9c-10.6-9-16.7-22.1-16.7-36V16H203c-2.7 0-5.3 1.5-6.7 3.8-2.1 3.5-2.9 7.7-2.3 11.8l9.3 64.1.7 4.8-2.1 4.4-4.4 9.3c-1.2 2.5-1.4 5.3-.5 8l1.2 3.5c1.5 4.5 2.3 9.2 2.3 14v12.8c0 9.3-3.2 18.3-9.1 25.5l-34.1 41.7c-2.5 3.1-3.3 7.1-2.1 10.9l2 6.4 2.3 7.2c14.9 1.3 31.1 10.7 33 19.6 1.6 7.4-5.5 16.6-8.6 20.2-2.8 3.2-5.8 5.9-9.1 8.2l29.8 93.3c3.7-9.3 10.6-15.3 19.2-15.3 7.8 0 14.3 4.9 18.1 12.8 4.2-1.8 8.9-2.8 13.9-2.8s9.7 1 13.9 2.8c3.9-7.9 10.3-12.8 18.1-12.8 8.5 0 15.5 5.8 19.2 15.1l30-93.3zm9.2-28.9 3.1-9.7c-11.4 2.2-20.6 9.3-21.2 12-.5 2.4 3.9 10.9 11.8 17.4l.2-.7 1.8-5.7 4.3-13.3zm92.9-130.6c-6.9-8.6-47.4 6.7-58.4 15.3-8.5 6.6-28.8 24.6-37.5 32.4l23.9 29.2c2.4 3 4.2 6.4 5.2 10 9.9-3.8 21.2-8.8 27.5-13.6 12.7-9.7 46.2-64.7 39.3-73.3z" fill="#fff"/></svg>