<svg xmlns="http://www.w3.org/2000/svg" viewBox="0 0 512 512" xml:space="preserve"><path d="m428.9 310.9 9.9-29.3-8.9 1.2 1.3-30.3-8.5 3.1-2.8-28.9-.1-.9-.8.2-7.4 3.5-5-29.4-7.9 4.3-6.4-29.1-7.7 4.6-7.3-28.8-.6.4-6.9 4.4-8-28.6-7.5 5-8.6-28.4-7.4 5.2-8.8-27.3-.3-.9-.6.5-6.7 4.8-9.5-28.2-7.2 5.4-9.9-28-.6.5-6.5 5L278 13.1l-7.1 5.6C261.6 6.9 256 0 256 0s-5.6 6.9-14.9 18.6L234 13l-10.3 27.9-6.6-5-.6-.4-9.9 28-7.2-5.4-9.5 28.1-6.7-4.9-.6-.4-9.1 28.3-7.4-5.2-8.6 28.4-7.5-5-8 28.6-7.6-4.9-.3 1.3-7 27.5-7.7-4.6-6.4 29.1-7.9-4.3-5 29.4-8.1-3.9-2.9 29.8-7.8-2.8-.6-.2.1 1.5 1.2 28.8-8.9-1.2 9.9 29.3-8.9 1.5L91 337.9l-8.3 3.5 22 21.1-7.4 5.2 25.8 16.1-6.2 6.5 28.2 11.2-5 7.5 29.6 6.4-3.8 8.2 30.2 1.8-2.6 8.6 30.1-2.5-1.4 8.9 28.4-6.3-.9 74.8c0 1.7 1.3 3 3 3h6.6c1.7 0 3-1.4 3-3l-.9-74.8 28.4 6.3-1.4-8.9 30.1 2.5-2.6-8.6 30.2-1.8-3.8-8.2L372 409l-5-7.5 28.2-11.2-6.2-6.5 25.8-16.1-7.4-5.2 22-21.1-8.3-3.5 16.7-25.6-8.9-1.4z" fill="#fff"/></svg>