<svg xmlns="http://www.w3.org/2000/svg" viewBox="0 0 512 512" xml:space="preserve"><path d="M256 0C132.3 0 32 62 32 138.5V149c0 17.7 14.3 32 32 32h115.8c-23.5 67.3-38.3 154.8-38.3 218.8 0 106.7 41.1 112.3 95 112.3 6.3 0 12.8-.1 19.5-.1 6.7 0 13.3.1 19.7.1 53.8 0 94.8-5.7 94.8-112.3 0-64.1-14.8-151.5-38.3-218.8H448c17.7 0 32-14.3 32-32v-10.5C480 62 379.7 0 256 0zm52.4 210.9c18.3 59.8 30.1 133.9 30.1 188.9 0 47.8-8.8 65.5-16.2 72-8 7-23.1 8.3-46.6 8.3h-39.2c-23.5 0-38.7-1.4-46.8-8.3-7.4-6.4-16.2-24.1-16.2-72 0-54.9 11.8-129 30.1-188.8 3.3-10.6 6.7-20.7 10.2-30h84.3c3.6 9.3 7 19.3 10.3 29.9zM448 149H64v-10.5c0-12.1 4-24.2 12-35.8 8.6-12.6 21.9-24.7 38.4-34.9 17.9-11 38.9-19.8 62.5-25.9 25-6.5 51.6-9.8 79.1-9.8s54.1 3.3 79.1 9.8c23.6 6.2 44.6 14.9 62.5 25.9 16.5 10.2 29.8 22.3 38.4 34.9 8 11.7 12 23.7 12 35.8V149z" fill="#fff"/></svg>