<svg version="1.1" xmlns="http://www.w3.org/2000/svg" x="0" y="0" viewBox="0 0 512 512" xml:space="preserve"><path d="M463.5 328.3c-1.3 3-4.2 4.7-7.3 4.7-1.1 0-2.2-.2-3.3-.7l-78-35c-.8-.4-1.5-.8-2.2-1.4l-36.1-33.4-44.2 19.8c-1.9.8-4 .9-5.8.3l2.1 2.6 58.2 42.4c2.6 1.9 3.8 5.1 3.1 8.2l-15.5 69.7 35.2 95.8c1.5 4.1-.6 8.7-4.8 10.3-.9.3-1.8.5-2.8.5-3.3 0-6.3-2-7.5-5.2l-36-98c-.5-1.4-.6-3-.3-4.5l14.9-66.9-54.8-39.9c-.1-.1-.2-.2-.3-.2-.2-.2-.4-.3-.6-.5l-.6-.6-11.2-13.7c-1.3 1.7-2.7 3-4.3 4l14.5 22.1c9.8 5.6 17.5 15 21.3 26.5 0 .1.1.2.1.3.3.9.6 1.8.8 2.8.1.3.2.6.2.9.1.4.2.8.3 1.3.1.3.1.6.2.8.1.5.2.9.3 1.4 0 .2.1.5.1.7.1.5.2 1 .2 1.5 0 .2 0 .3.1.5.2 1.9.4 3.9.4 5.8v.5c0 5.4-.8 10.6-2.3 15.5-.7 2.2-1.5 4.4-2.5 6.4-.3.7-.7 1.4-1 2-.3.7-.7 1.3-1.1 2-.4.6-.8 1.3-1.2 1.9-.1.2-.3.4-.4.6-.3.4-.6.8-.8 1.2-.4.6-.9 1.2-1.3 1.8-.9 1.1-1.8 2.2-2.8 3.3l-.1.1-1.7 1.7-.2.2c-.6.5-1.2 1.1-1.8 1.6l-.1.1c-1.3 1.1-2.7 2.2-4.2 3.1l-.1.1c-.6.4-1.3.8-2 1.2-.2.1-.3.2-.5.3-.6.3-1.1.6-1.7.9l-.6.3c-.6.3-1.2.5-1.8.8-.2.1-.3.2-.5.2-1.5.6-3.1 1.2-4.7 1.6-.2.1-.4.1-.6.2-.6.2-1.2.3-1.8.4-.3.1-.6.1-.8.2-.5.1-1.1.2-1.6.3-.3 0-.6.1-.9.1-.6.1-1.2.1-1.7.2-.3 0-.5 0-.8.1-.8.1-1.7.1-2.6.1s-1.7 0-2.6-.1c-.3 0-.5 0-.8-.1-.6 0-1.2-.1-1.7-.2-.3 0-.6-.1-.9-.1-.6-.1-1.1-.2-1.6-.3-.3-.1-.6-.1-.8-.2-.6-.1-1.2-.3-1.8-.4-.2-.1-.4-.1-.6-.2-1.6-.4-3.2-1-4.7-1.6-.2-.1-.3-.1-.5-.2-.6-.3-1.2-.5-1.8-.8l-.6-.3c-.6-.3-1.2-.6-1.7-.9-.2-.1-.3-.2-.5-.3-.7-.4-1.3-.8-2-1.2l-.1-.1c-1.5-.9-2.9-2-4.2-3.1l-.1-.1c-.6-.5-1.2-1-1.8-1.6l-.2-.2c-.6-.5-1.1-1.1-1.7-1.7l-.1-.1c-1-1-1.9-2.1-2.8-3.3-.5-.6-.9-1.2-1.3-1.8-.3-.4-.6-.8-.8-1.2-.1-.2-.3-.4-.4-.6-.4-.6-.8-1.3-1.2-1.9-.4-.6-.7-1.3-1.1-2-.3-.7-.7-1.3-1-2-1-2.1-1.8-4.2-2.5-6.4-1.5-4.9-2.3-10.1-2.3-15.5v-.5c0-2 .1-3.9.4-5.8 0-.2 0-.3.1-.5.1-.5.1-1 .2-1.5 0-.2.1-.5.1-.7.1-.5.2-.9.3-1.4.1-.3.1-.6.2-.8.1-.4.2-.9.3-1.3.1-.3.2-.6.2-.9.2-.9.5-1.9.8-2.8 0-.1.1-.2.1-.3 4-12.1 12.3-21.9 22.8-27.4l14-21.3c-1.6-1-3-2.3-4.3-4L235 296.1l-.6.6c-.3.3-.6.5-.9.8l-54.8 39.9 14.9 66.9c.3 1.5.2 3.1-.3 4.5l-36 98c-1.2 3.2-4.3 5.2-7.5 5.2-.9 0-1.8-.2-2.8-.5-4.1-1.5-6.3-6.1-4.8-10.3l35.2-95.8-15.4-69.7c-.7-3.1.5-6.3 3.1-8.2l58.2-42.4 2.1-2.6c-1.9.6-4 .6-5.8-.3l-44.2-19.8-36.1 33.4c-.6.6-1.4 1.1-2.2 1.4l-78 35c-1.1.5-2.2.7-3.3.7-3.1 0-6-1.8-7.3-4.7-1.8-4 0-8.8 4-10.6l76.8-34.5 39-36.1c2.4-2.2 5.8-2.7 8.7-1.4l44.1 19.8 13.8-13.1 8.5-8c-1.2-1.4-2.3-3-3.4-4.7-1.1-.4-2.2-1.1-3.1-2l-48.6-52.2s0-.1-.1-.1L153.4 147l-62.3-44.5c-3.6-2.6-4.4-7.6-1.9-11.2 2.6-3.6 7.6-4.4 11.2-1.9l63 45c.5.3.9.7 1.3 1.1l35.4 39 24.9 26.8 8 8.6c0-17.4-1.2-27 11.7-30H228c-6.6 0-12-5.4-12-12V156c-.6-.8-1-1.9-1-3v-8c0-2.8 2.2-5 5-5 .7-1 1.4-2 2.2-2.9l8.6-9.5-35.1-39.3c-.5-.5-.9-1.1-1.2-1.8l-37-75c-2-4-.3-8.8 3.6-10.7 4-2 8.8-.3 10.7 3.6l36.5 74 33.2 37.3 2.1-2.4c6.5-7.2 17.8-7.2 24.4 0l2.1 2.4 33.2-37.3 36.5-74c2-4 6.8-5.6 10.7-3.6 4 2 5.6 6.8 3.6 10.7l-37 75c-.3.6-.7 1.2-1.2 1.8l-35.1 39.3 8.6 9.5c.8.9 1.5 1.9 2.2 2.9 2.8 0 5 2.2 5 5v8c0 1.1-.4 2.1-1 3v12c0 6.6-5.4 12-12 12h-16.7c12.9 3 11.7 12.6 11.7 30l8-8.6 24.9-26.8 35.4-39c.4-.4.8-.8 1.3-1.1l63-45c3.6-2.6 8.6-1.7 11.2 1.9 2.6 3.6 1.7 8.6-1.9 11.2L358.6 147l-34.8 38.4s0 .1-.1.1l-38.4 41.2-10.2 11c-.9 1-2 1.6-3.1 2-1 1.8-2.2 3.3-3.4 4.7l22.2 21.1 44.1-19.8c2.9-1.3 6.4-.8 8.7 1.4l39 36.1 76.8 34.5c4.1 1.8 5.9 6.5 4.1 10.6z" fill="#fff"/></svg>