<svg version="1.1" xmlns="http://www.w3.org/2000/svg" x="0" y="0" viewBox="0 0 512 512" xml:space="preserve"><path d="M454.7 394.3c23.3-23.9 41.1-52.9 50.4-85.1 8.6-29.8 9.1-62 1.6-92.1-6.9-28.1-20.6-54.2-38.9-76.6-4.8-5.8-9.8-11.4-15.1-16.7l-1.6-1.6c-.6-.6-1.6-1.2-2-1.9-.3-.6-.3-.3.2-.9 1.2-1.3 2.4-2.6 3.6-3.8 2.5-2.6 5-5.2 7.4-7.9 4.4-4.7 7.2-10.2 8.5-16.5 4.7-24.3-10.6-48.3-28.6-63.3-22-18.3-53.7-29.3-82.1-21.4-12.2 3.4-24.6 11-29.5 23.3-1.3 3.2-2 6.6-2.8 9.9-1 4.1-2.1 8.1-3.1 12.2-.1.6-.2 1.2-.4 1.7-.3.7.1.5-.7.5-1 0-2.1-.5-3-.6l-3-.6c-2.2-.4-4.4-.9-6.6-1.2-8.5-1.5-17-2.6-25.5-3.4-17.7-1.6-35.5-1.6-53.2-.1-8.6.7-17.1 1.8-25.6 3.2-4.3.7-8.5 1.5-12.7 2.5-.8.2-1.7.7-2.1.1-.3-.3-.3-1.2-.4-1.6-1-4-2.1-8-3.1-11.9-.8-3.3-1.5-6.6-2.7-9.8-4.6-12.3-16.6-20.2-28.7-23.8-13.4-4-27.9-3.5-41.4-.2C86.2 13.4 60 32 48 57.8c-4.7 10.1-7.1 21.6-5.2 32.7 1.1 6.5 3.9 12.3 8.5 17.1 2.4 2.5 4.8 5.1 7.2 7.6 1.3 1.3 2.6 2.7 3.8 4 .1.1.7.6.7.8 0 .2-1.1 1.1-1.3 1.3-.8.7-1.5 1.5-2.3 2.2-5.2 5.2-10.2 10.6-14.9 16.3-9.3 11.3-17.4 23.5-24.1 36.5C7.3 202 .1 230.6 0 259.6c-.1 33.4 9.4 66.1 26.4 94.7 16.9 28.4 40.7 52.5 68.1 70.9 26.2 17.7 55.6 30.5 86.2 38.4 4 1 8.1 2 12.2 2.8 2 .4 3.9.8 5.9 1.2.6.1 1.2.1 1.6.5.6.7.8 2.3 1.1 3.1 3 7.5 7.7 14.6 13.7 20.2 10.9 10.3 25.4 16.3 40.4 16.4 15.3.1 30.4-5.9 41.4-16.6 6-5.8 10.7-12.7 13.8-20.5.3-.7.5-2.2 1-2.7.4-.5 1.4-.5 2.1-.6 2-.4 3.9-.8 5.9-1.2 4.1-.9 8.1-1.8 12.1-2.9 30.6-7.9 60-20.8 86.2-38.6 13.1-8.7 25.5-19 36.6-30.4z" opacity=".1" fill="#fff"/><path d="M173 268.1c-8 0-14.4 6.4-14.4 14.4s6.4 14.4 14.4 14.4 14.4-6.4 14.4-14.4c0-7.9-6.4-14.4-14.4-14.4zm-5.2 14.4c-2.5 0-4.6-2.1-4.6-4.6 0-2.5 2.1-4.6 4.6-4.6 2.5 0 4.6 2.1 4.6 4.6 0 2.6-2.1 4.6-4.6 4.6zM339 268.1c-8 0-14.4 6.4-14.4 14.4s6.4 14.4 14.4 14.4 14.4-6.4 14.4-14.4c0-7.9-6.4-14.4-14.4-14.4zm-5.3 14.4c-2.5 0-4.6-2.1-4.6-4.6 0-2.5 2.1-4.6 4.6-4.6 2.5 0 4.6 2.1 4.6 4.6 0 2.6-2.1 4.6-4.6 4.6zM448.8 120l11.8-12.4c3.5-3.6 6.1-8 7.5-12.9 7.4-26.2-10.6-59.3-44.1-77.9-33.5-18.6-71.1-16.3-89.6 3.9-3.4 3.8-5.7 8.3-7 13.2l-5.3 20.4C301 49.6 278.9 47 256 47c-22.9 0-45.1 2.5-66.2 7.2l-5.3-20.4c-1.3-4.9-3.6-9.4-7-13.2C159.1.4 121.5-1.9 88 16.7S36.5 68.3 43.8 94.6c1.4 4.9 4 9.3 7.5 12.9L63.1 120C23.8 157.5 0 206.4 0 260c0 95.4 75.4 176.2 179.4 203.3l-9.5-17c-13.4-23.9-13.1-53.5.7-77.3l61.2-105.7c4.7-7.9 13.1-12.7 22.1-12.7h4c9.2 0 17.6 4.9 22.1 12.7L341.4 369c13.8 23.7 14.1 53.3.7 77.3l-9.5 17C436.6 436.2 512 355.5 512 260c0-53.6-23.8-102.6-63.2-140zM173 315.5c-18.2 0-33-14.8-33-33s14.8-33 33-33 33 14.8 33 33-14.8 33-33 33zm166 0c-18.2 0-33-14.8-33-33s14.8-33 33-33 33 14.8 33 33-14.8 33-33 33zm-11.4 61.6-61.4-105.7c-1.7-2.9-4.8-4.7-8.3-4.7h-4c-3.4 0-6.6 1.8-8.3 4.8l-61.2 105.6c-11 18.9-11.2 42.5-.5 61.5l16.2 29 .2.7c2.2 6.6 5.7 12.8 10.4 18.5 2.1 2.6 4.3 4.8 6.5 6.6l.2.2c10.7 9.3 24.4 14.4 38.6 14.4 14.1 0 27.9-5.1 38.6-14.4 2.5-2.3 4.8-4.6 6.7-6.8 4.6-5.6 8.1-12 10.4-18.5l.2-.7 16.2-28.9c10.7-19.2 10.5-42.8-.5-61.6zm-12.7 64.5c-11 21.3-33.3 35.8-58.9 35.8s-47.8-14.5-58.9-35.8c-3.3-6.4 1.4-14.1 8.7-14.1h100.4c7.2 0 12 7.7 8.7 14.1z" fill="#fff"/></svg>