<svg xmlns="http://www.w3.org/2000/svg" viewBox="0 0 512 512" xml:space="preserve"><path d="m508.2 366.3-198.1-7.7c11.7-10.6 19-25.9 19-42.9 0-1.4 0-2.8-.1-4.1v-.4c-.3-3.8-.9-7.4-1.9-11l-14.6-52.9c-11.6-42.2-50.2-73.1-96.1-73.1-17.7 0-34.3 4.6-48.8 12.7v-1.1c0-26.1-21.2-47.3-47.3-47.3-17.9 0-33.4 9.9-41.5 24.5-.4.6-.7 1.3-1 2v.1c-.3.6-.6 1.3-.9 2 0 .1-.1.1-.1.2-.3.6-.5 1.3-.8 1.9 0 .1-.1.2-.1.3-.2.6-.4 1.2-.6 1.9 0 .1-.1.2-.1.3-.2.6-.4 1.2-.5 1.8 0 .2-.1.3-.1.4-.2.6-.3 1.2-.4 1.8 0 .2-.1.4-.1.5-.1.6-.2 1.1-.3 1.7 0 .2-.1.4-.1.6-.1.6-.1 1.1-.2 1.7 0 .2-.1.5-.1.7-.1.6-.1 1.1-.1 1.7 0 .2 0 .5-.1.7 0 .8-.1 1.6-.1 2.4 0 .8 0 1.6.1 2.4 0 .3 0 .5.1.8 0 .5.1 1 .1 1.6 0 .3.1.6.1.9.1.5.1.9.2 1.4.1.3.1.7.2 1 .1.4.1.8.2 1.3.1.3.2.7.2 1l.3 1.2c.1.4.2.7.3 1.1.1.4.2.8.3 1.1.1.4.2.7.3 1.1.1.4.2.7.4 1.1.1.4.3.7.4 1.1.1.3.3.7.4 1 .1.4.3.7.5 1.1.1.3.3.6.4 1 .2.4.3.7.5 1.1.1.3.3.6.5.9.1.2.2.3.2.5-1.2.5-2.4 1-3.7 1.6-3.8-7.2-6-15.4-6-24.1 0-11.5 3.8-22.2 10.3-30.8C64.9 162 55 176.8 55 193.8c0 8.8 2.6 17 7.2 23.8-2.4 1.8-4.9 3.7-7.5 5.9C30.3 244.5 8 279 6.6 301.6 2.8 303 .1 306.7.1 311c0 5.6 4.5 10.1 10.1 10.1 1.4 0 2.8-.3 4-.8 13.8 9.1 43.9.6 70.5-14.8 1.9 3.1 4.1 6.1 6.5 8.8l-36 14.7c-3.6 1.5-5.3 5.6-3.8 9.3 1.4 3.5 5.5 5.3 9.2 3.8l42-17.1c1.9 1.4 3.9 2.7 5.9 3.9l-25.1 10.2c-3.6 1.5-5.3 5.6-3.8 9.3 1.4 3.5 5.5 5.3 9.2 3.8l38.7-15.8c4.1 1 8.4 1.5 12.8 1.7 7.1 8.4 15.6 15.6 25.1 21.3h-22.8c-3.8 0-7 3.1-7 7s3.1 7 7 7h366.3c1.7 0 3.2-1.4 3.2-3.2-.1-2-1.8-3.8-3.9-3.9z" opacity=".1" fill="#fff"/><path d="m508.2 366.3-198.1-7.7c11.7-10.6 19-25.9 19-42.9 0-1.4 0-2.8-.1-4.1v-.4c-.3-3.8-.9-7.4-1.9-11l-14.6-52.9c-11.6-42.2-50.2-73.1-96.1-73.1-17.7 0-34.3 4.6-48.8 12.7v-1.1c0-26.1-21.2-47.3-47.3-47.3-17.9 0-33.4 9.9-41.5 24.5-.4.6-.7 1.3-1 2v.1c-.3.6-.6 1.3-.9 2 0 .1-.1.1-.1.2-.3.6-.5 1.3-.8 1.9 0 .1-.1.2-.1.3-.2.6-.4 1.2-.6 1.9 0 .1-.1.2-.1.3-.2.6-.4 1.2-.5 1.8 0 .2-.1.3-.1.4-.2.6-.3 1.2-.4 1.8 0 .2-.1.4-.1.5-.1.6-.2 1.1-.3 1.7 0 .2-.1.4-.1.6-.1.6-.1 1.1-.2 1.7 0 .2-.1.5-.1.7-.1.6-.1 1.1-.1 1.7 0 .2 0 .5-.1.7 0 .8-.1 1.6-.1 2.4 0 .8 0 1.6.1 2.4 0 .3 0 .5.1.8 0 .5.1 1 .1 1.6 0 .3.1.6.1.9.1.5.1.9.2 1.4.1.3.1.7.2 1 .1.4.1.8.2 1.3.1.3.2.7.2 1l.3 1.2c.1.4.2.7.3 1.1.1.4.2.8.3 1.1.1.4.2.7.3 1.1.1.4.2.7.4 1.1.1.4.3.7.4 1.1.1.3.3.7.4 1 .1.4.3.7.5 1.1.1.3.3.6.4 1 .2.4.3.7.5 1.1.1.3.3.6.5.9.1.2.2.3.2.5-1.2.5-2.4 1-3.7 1.6-3.8-7.2-6-15.4-6-24.1 0-11.5 3.8-22.2 10.3-30.8C64.9 162 55 176.8 55 193.8c0 8.8 2.6 17 7.2 23.8-2.4 1.8-4.9 3.7-7.5 5.9C30.3 244.5 8 279 6.6 301.6 2.8 303 .1 306.7.1 311c0 5.6 4.5 10.1 10.1 10.1 1.4 0 2.8-.3 4-.8 13.8 9.1 43.9.6 70.5-14.8 1.9 3.1 4.1 6.1 6.5 8.8l-36 14.7c-3.6 1.5-5.3 5.6-3.8 9.3 1.4 3.5 5.5 5.3 9.2 3.8l42-17.1c1.9 1.4 3.9 2.7 5.9 3.9l-25.1 10.2c-3.6 1.5-5.3 5.6-3.8 9.3 1.4 3.5 5.5 5.3 9.2 3.8l38.7-15.8c4.1 1 8.4 1.5 12.8 1.7 7.1 8.4 15.6 15.6 25.1 21.3h-22.8c-3.8 0-7 3.1-7 7s3.1 7 7 7h366.3c1.7 0 3.2-1.4 3.2-3.2-.1-2-1.8-3.8-3.9-3.9zM63.9 279.9c-9.2 0-16.6-7.4-16.6-16.6 0-9.2 7.4-16.6 16.6-16.6s16.6 7.4 16.6 16.6-7.4 16.6-16.6 16.6zm-6.5-16.6c0 1.9-1.6 3.5-3.5 3.5s-3.5-1.6-3.5-3.5 1.6-3.5 3.5-3.5 3.5 1.6 3.5 3.5z" fill="#fff"/></svg>