<svg version="1.1" xmlns="http://www.w3.org/2000/svg" x="0" y="0" viewBox="0 0 512 512" xml:space="preserve"><path d="M511.6 421.2c-.5 3.1-1.5 6.4-2.8 9.4-1.4 3-3.2 5.8-5.2 8.3-4.2 4.9-9.2 8.7-14.5 11.5-10.6 5.7-21.8 8.5-32.8 10.2-11.1 1.7-22.2 2.2-33.3 2-11-.2-22-1.2-32.9-2.7-10.9-1.6-21.6-3.9-32.2-6.5-10.6-2.7-21-5.7-31.3-9s-20.5-6.8-30.6-10.2c-5-1.7-10.1-3.5-15.1-5.1-5-1.6-10-3.1-14.8-4.2-1.2-.2-2.3-.5-3.6-.7l-3.8-.6c-2.5-.4-5.1-.8-7.6-1.1-5.1-.7-10.2-1-15.4-1.3-10.3-.5-20.8-.3-31.2.4l-3.9.3-3.9.4c-2.6.2-5.3.6-7.9.9-5.2.7-10.5 1.5-15.8 2.6-.4.1-.7-.2-.8-.5-.1-.3.1-.6.3-.7 4.8-2.7 9.8-4.9 14.9-6.8 5.1-1.8 10.4-3.6 15.7-4.8 10.6-2.7 21.6-4.3 32.7-4.7 2.8-.1 5.5-.1 8.3-.1h2.1l2.1.1 4.2.2c2.8.1 5.5.4 8.3.8l4.2.5c1.4.2 2.9.5 4.3.8 5.6 1.2 11 2.6 16.2 4.1 5.3 1.5 10.4 3.1 15.5 4.7 10.2 3.3 20.3 6.6 30.5 9.7 10.1 3.2 20.2 6.2 30.4 8.8 10.2 2.7 20.4 4.9 30.6 6.7 10.3 1.7 20.6 2.8 31 3.2 10.3.4 20.7.1 30.8-1.2 10-1.4 20-3.8 28.3-8.2 4.2-2.2 7.8-5 10.6-8.2 2.7-3.3 4.5-6.9 5.2-11.1s.3-8.2-1.3-12c-1.6-3.8-4.4-7.2-7.8-10.3-3.5-3.1-7.6-5.8-11.9-8.1-4.4-2.4-9-4.4-13.8-6.2-9.6-3.6-19.7-6.3-29.9-8.5s-20.6-3.9-31.1-5.2c-5.2-.7-10.5-1.2-15.7-1.7s-10.6-.9-15.7-1.1h-.1c-.2 0-.4 0-.6-.1-1.6.1-3.2.2-4.9.2H192c-5.3 0-9.5-4.2-9.5-9.5 0-5.2 4.3-9.5 9.5-9.5h30.6c-12.8-7.7-24.2-17.4-33.8-28.7-5.9-.2-11.7-1-17.3-2.3l-52.1 21.2c-4.9 2-10.4-.4-12.3-5.2-2.1-4.8.2-10.3 5.1-12.4l33.8-13.8c-2.7-1.6-5.4-3.3-8-5.2l-56.7 23.1c-4.9 2-10.4-.4-12.3-5.2-2-4.8.3-10.4 5.1-12.4l48.4-19.7c-3.2-3.7-6.1-7.7-8.7-11.9-35.8 20.7-76.4 32.1-95 19.9-1.7.7-3.5 1.1-5.4 1.1C6.1 295.6 0 289.5 0 282c0-5.8 3.6-10.7 8.8-12.7 2-30.4 32.1-76.8 64.9-105.1 3.4-3 6.8-5.6 10.1-8-6.1-9.2-9.7-20.3-9.7-32.2 0-23.2 13.6-43.3 33.3-52.6-8.9 11.6-14.1 26-14.1 41.7 0 11.7 2.9 22.7 8.1 32.4 1.5-.7 3.1-1.4 4.6-2-4.9-9-7.7-19.4-7.7-30.4 0-17.7 7.2-33.7 18.9-45.3 4.3-4.3 9.3-8 14.7-10.9.9-.5 1.8-.9 2.7-1.4 0 0 .1 0 .1-.1l2.7-1.2c.1 0 .2-.1.3-.1.9-.4 1.7-.7 2.6-1 .1 0 .3-.1.4-.1.8-.3 1.7-.6 2.5-.9.2-.1.4-.1.6-.2.8-.2 1.6-.5 2.4-.7.3-.1.6-.1.9-.2.7-.2 1.5-.4 2.2-.5.4-.1.7-.1 1.1-.2.7-.1 1.3-.3 2-.4.5-.1.9-.1 1.4-.2.6-.1 1.2-.2 1.8-.2.6-.1 1.3-.1 1.9-.1.4 0 .9-.1 1.3-.1 1.1-.1 2.2-.1 3.3-.1 35.2 0 63.8 28.6 63.8 63.8v1.5c1-.5 1.9-1.1 2.9-1.6l1.8-.9c18.3-9.3 39-14.6 60.9-14.6 61.9 0 114 41.7 129.6 98.5l19.7 71.2c1.4 4.7 2.2 9.6 2.6 14.8v.5c.1 1.8.1 3.7.1 5.6 0 28.7-15.4 53.7-38.4 67.2 10.5 1.4 20.9 3 31.2 5.3 10.7 2.3 21.3 5.2 31.8 9.1 5.2 2 10.4 4.2 15.5 6.9 5 2.7 10 5.9 14.5 9.9s8.7 9 11.3 15.2c1.3 3.1 2.1 6.3 2.5 9.7.4 3.4.2 6.7-.3 9.9z" opacity=".1" fill="#fff"/><path d="M77.3 217.6c0 2.6-2.1 4.7-4.7 4.7s-4.7-2.1-4.7-4.7 2.1-4.7 4.7-4.7 4.7 2.1 4.7 4.7zm434.3 203.6c-.5 3.1-1.5 6.4-2.8 9.4-1.4 3-3.2 5.8-5.2 8.3-4.2 4.9-9.2 8.7-14.5 11.5-10.6 5.7-21.8 8.5-32.8 10.2-11.1 1.7-22.2 2.2-33.3 2-11-.2-22-1.2-32.9-2.7-10.9-1.6-21.6-3.9-32.2-6.5-10.6-2.7-21-5.7-31.3-9s-20.5-6.8-30.6-10.2c-5-1.7-10.1-3.5-15.1-5.1-5-1.6-10-3.1-14.8-4.2-1.2-.2-2.3-.5-3.6-.7l-3.8-.6c-2.5-.4-5.1-.8-7.6-1.1-5.1-.7-10.2-1-15.4-1.3-10.3-.5-20.8-.3-31.2.4l-3.9.3-3.9.4c-2.6.2-5.3.6-7.9.9-5.2.7-10.5 1.5-15.8 2.6-.4.1-.7-.2-.8-.5-.1-.3.1-.6.3-.7 4.8-2.7 9.8-4.9 14.9-6.8 5.1-1.8 10.4-3.6 15.7-4.8 10.6-2.7 21.6-4.3 32.7-4.7 2.8-.1 5.5-.1 8.3-.1h2.1l2.1.1 4.2.2c2.8.1 5.5.4 8.3.8l4.2.5c1.4.2 2.9.5 4.3.8 5.6 1.2 11 2.6 16.2 4.1 5.3 1.5 10.4 3.1 15.5 4.7 10.2 3.3 20.3 6.6 30.5 9.7 10.1 3.2 20.2 6.2 30.4 8.8 10.2 2.7 20.4 4.9 30.6 6.7 10.3 1.7 20.6 2.8 31 3.2 10.3.4 20.7.1 30.8-1.2 10-1.4 20-3.8 28.3-8.2 4.2-2.2 7.8-5 10.6-8.2 2.7-3.3 4.5-6.9 5.2-11.1s.3-8.2-1.3-12c-1.6-3.8-4.4-7.2-7.8-10.3-3.5-3.1-7.6-5.8-11.9-8.1-4.4-2.4-9-4.4-13.8-6.2-9.6-3.6-19.7-6.3-29.9-8.5s-20.6-3.9-31.1-5.2c-5.2-.7-10.5-1.2-15.7-1.7s-10.6-.9-15.7-1.1h-.1c-.2 0-.4 0-.6-.1-1.6.1-3.2.2-4.9.2H192c-5.3 0-9.5-4.2-9.5-9.5 0-5.2 4.3-9.5 9.5-9.5h30.6c-12.8-7.7-24.2-17.4-33.8-28.7-5.9-.2-11.7-1-17.3-2.3l-52.1 21.2c-4.9 2-10.4-.4-12.3-5.2-2.1-4.8.2-10.3 5.1-12.4l33.8-13.8c-2.7-1.6-5.4-3.3-8-5.2l-56.7 23.1c-4.9 2-10.4-.4-12.3-5.2-2-4.8.3-10.4 5.1-12.4l48.4-19.7c-3.2-3.7-6.1-7.7-8.7-11.9-35.8 20.7-76.4 32.1-95 19.9-1.7.7-3.5 1.1-5.4 1.1C6.1 295.6 0 289.5 0 282c0-5.8 3.6-10.7 8.8-12.7 2-30.4 32.1-76.8 64.9-105.1 3.4-3 6.8-5.6 10.1-8-6.1-9.2-9.7-20.3-9.7-32.2 0-23.2 13.6-43.3 33.3-52.6-8.9 11.6-14.1 26-14.1 41.7 0 11.7 2.9 22.7 8.1 32.4 1.5-.7 3.1-1.4 4.6-2-4.9-9-7.7-19.4-7.7-30.4 0-17.7 7.2-33.7 18.9-45.3 4.3-4.3 9.3-8 14.7-10.9.9-.5 1.8-.9 2.7-1.4 0 0 .1 0 .1-.1l2.7-1.2c.1 0 .2-.1.3-.1.9-.4 1.7-.7 2.6-1 .1 0 .3-.1.4-.1.8-.3 1.7-.6 2.5-.9.2-.1.4-.1.6-.2.8-.2 1.6-.5 2.4-.7.3-.1.6-.1.9-.2.7-.2 1.5-.4 2.2-.5.4-.1.7-.1 1.1-.2.7-.1 1.3-.3 2-.4.5-.1.9-.1 1.4-.2.6-.1 1.2-.2 1.8-.2.6-.1 1.3-.1 1.9-.1.4 0 .9-.1 1.3-.1 1.1-.1 2.2-.1 3.3-.1 35.2 0 63.8 28.6 63.8 63.8v1.5c1-.5 1.9-1.1 2.9-1.6l1.8-.9c18.3-9.3 39-14.6 60.9-14.6 61.9 0 114 41.7 129.6 98.5l19.7 71.2c1.4 4.7 2.2 9.6 2.6 14.8v.5c.1 1.8.1 3.7.1 5.6 0 28.7-15.4 53.7-38.4 67.2 10.5 1.4 20.9 3 31.2 5.3 10.7 2.3 21.3 5.2 31.8 9.1 5.2 2 10.4 4.2 15.5 6.9 5 2.7 10 5.9 14.5 9.9s8.7 9 11.3 15.2c1.3 3.1 2.1 6.3 2.5 9.7.4 3.4.2 6.7-.3 9.9zM108.5 217.6c0-12.4-10-22.4-22.4-22.4-12.4 0-22.4 10-22.4 22.4 0 12.4 10 22.4 22.4 22.4 12.4 0 22.4-10 22.4-22.4z" fill="#fff"/></svg>