<svg version="1.1" xmlns="http://www.w3.org/2000/svg" x="0" y="0" viewBox="0 0 512 512" xml:space="preserve"><path d="M372.1 407.6c16.1-4.8 31.2-14.1 43.8-28.1 9.7-10.7 16.9-23 21.7-36.2-20.5 9.1-43.2 10.3-64.3 3.6 8.8-4.8 17.1-11.2 24.5-19.3 8.9-9.8 15.6-21.2 20-33.4-21.5 9.6-45.6 9.7-67.2.4 9-4.4 17.5-10.7 24.9-18.9 8.2-9 14.3-19.5 18.4-30.6-19.9 8.9-42.4 8.9-62.3 0 7.8-4 15-9.5 21.4-16.6 7.4-8.2 13-17.7 16.7-27.8-17.5 7.8-37.2 8-54.9.8 7.3-3.6 14.2-8.8 20.3-15.4 6.7-7.4 11.7-15.9 15-25-15.2 6.7-32.1 7.2-47.5 1.4 6.9-3.2 13.3-7.9 18.9-14.1 5.9-6.5 10.4-14.1 13.3-22.2-13.4 5.9-28.3 6.4-41.9 1.4 5.8-2.8 11.3-6.9 16.1-12.2 5.2-5.7 9.1-12.3 11.6-19.4-11.5 5.1-24.4 5.6-36.2 1.4 4.9-2.4 9.4-5.8 13.4-10.2 4.4-4.9 7.8-10.6 10-16.6-9.7 4.3-20.4 4.8-30.3 1.4 3.9-2 7.6-4.8 10.8-8.3 3.7-4.1 6.5-8.8 8.3-13.8-7.7 3.4-16.3 3.9-24.3 1.4 3-1.6 5.8-3.7 8.3-6.5 2.9-3.2 5.1-7 6.6-11-5.8 2.6-12.1 3-18.1 1.5 2.1-1.2 4.1-2.7 5.8-4.6 2.2-2.4 3.8-5.2 4.9-8.2h-.1c-5.7 2.5-12.5.5-16.2-4.5-.5-.6-.9-1.3-1.4-2C258 9.4 256 0 256 0s-2 9.4-6.3 16.1c-.5.7-.9 1.4-1.4 2-3.7 5-10.4 7-16.2 4.5h-.1c1.1 3 2.7 5.8 4.9 8.2 1.7 1.9 3.7 3.4 5.8 4.6-6 1.5-12.3 1-18.1-1.5 1.5 4 3.7 7.8 6.6 11 2.5 2.7 5.3 4.9 8.3 6.5-8 2.5-16.5 2-24.3-1.4 1.8 5 4.6 9.7 8.3 13.8 3.2 3.6 6.9 6.3 10.8 8.3-9.9 3.4-20.6 2.9-30.3-1.4 2.2 6 5.5 11.7 10 16.6 4 4.4 8.6 7.8 13.4 10.2-11.8 4.2-24.6 3.8-36.2-1.4 2.6 7.1 6.5 13.7 11.6 19.4 4.8 5.3 10.3 9.3 16.1 12.2-13.6 5-28.5 4.6-41.9-1.4 3 8.1 7.4 15.6 13.3 22.2 5.6 6.2 12.1 10.9 18.9 14.1-15.4 5.8-32.3 5.3-47.5-1.4 3.3 9.1 8.3 17.6 15 25 6 6.6 12.9 11.8 20.3 15.4-17.7 7.3-37.3 7-54.9-.8 3.7 10.1 9.3 19.6 16.7 27.8 6.4 7.1 13.7 12.6 21.4 16.6-19.9 8.8-42.4 8.8-62.3 0 4.1 11.1 10.2 21.6 18.4 30.6 7.4 8.2 15.8 14.4 24.9 18.9-21.6 9.3-45.7 9.2-67.2-.4 4.4 12.1 11.1 23.5 20 33.4 7.3 8.1 15.6 14.5 24.5 19.3-21.1 6.7-43.8 5.5-64.3-3.6 4.8 13.2 12.1 25.5 21.7 36.2 12.6 13.9 27.8 23.3 43.8 28.1-24.9 10.3-52.5 10-77.2-1 5.2 14.2 13 27.5 23.4 39 20.9 23.1 48.4 34.5 75.8 34.3h81.2v26c0 3.3 2.7 6 6 6h13.7c3.3 0 6-2.7 6-6v-26.1h81.2c27.4.2 54.9-11.2 75.8-34.3 10.4-11.5 18.2-24.8 23.4-39-24.4 11-52 11.3-76.9 1z" fill="#fff"/></svg>