<svg version="1.1" xmlns="http://www.w3.org/2000/svg" x="0" y="0" viewBox="0 0 512 512" style="enable-background:new 0 0 512 512" xml:space="preserve"><path d="M184.1 90.2 150.5.1l78.3-.1 20 45.1L238.6 68c-10 22.5-15.1 46.5-15.1 71.1V156l-11-14.4c-12-15.6-21.5-33-28.4-51.4zm242.4 251.3c0 94.2-76.3 170.5-170.5 170.5S85.5 435.7 85.5 341.5 161.8 171 256 171s170.5 76.3 170.5 170.5zM236.5 156c6.4-.7 12.9-1 19.5-1 10.6 0 21.1.9 31.3 2.6l12.2-16c12-15.6 21.5-33 28.4-51.4L361.5.1 283.2 0 250 74.8c-8.9 20-13.5 41.7-13.5 63.6V156z" style="fill:#fff;fill-opacity:.1"/><path d="M184.1 90.2 150.5.1l78.3-.1 20 45.1L238.6 68c-10 22.5-15.1 46.5-15.1 71.1V156l-11-14.4c-12-15.6-21.5-33-28.4-51.4zm242.4 251.3c0 94.2-76.3 170.5-170.5 170.5S85.5 435.7 85.5 341.5 161.8 171 256 171s170.5 76.3 170.5 170.5zm-16 0c0-41.3-16.1-80.1-45.3-109.2C336 203.1 297.2 187 256 187s-80.1 16.1-109.2 45.3c-29.2 29.2-45.3 68-45.3 109.2s16.1 80.1 45.3 109.2S214.7 496 256 496s80.1-16.1 109.2-45.3c29.2-29.1 45.3-67.9 45.3-109.2zm-218.2-64.7v32.7l42.4-12.4v137.3h43.1V248.6h-4l-81.5 28.2zM236.5 156c6.4-.7 12.9-1 19.5-1 10.6 0 21.1.9 31.3 2.6l12.2-16c12-15.6 21.5-33 28.4-51.4L361.5.1 283.2 0 250 74.8c-8.9 20-13.5 41.7-13.5 63.6V156z" style="fill:#fff"/></svg>