<svg version="1.1" xmlns="http://www.w3.org/2000/svg" x="0" y="0" viewBox="0 0 512 512" xml:space="preserve"><path d="M486.5 118.8L384 484s-50.6-16.6-120.1-71.9c4.4-3.7 8.8-7.4 13.2-11.3 30.2-26.3 59.3-56.4 86.5-89.5 61-73.8 100.4-145.1 122.9-192.5zM203.1 456.6c-20.1 12.8-36.9 21.6-49.3 27.4h204.3c-12.3-5.8-29.2-14.7-49.3-27.4-17.7-11.3-35.4-24-52.9-38-17.3 13.9-35.1 26.7-52.8 38zM256 99c94.3 0 156.9-21.1 192.7-38.8 12.1-6 22.1-12 30-17.4C434.8 51.9 351.5 58 256 58c-95.5 0-178.8-6.1-222.8-15.2C67 65.7 136.6 99 256 99zm255.9-70.9C508.8 31.7 439.6 109 256 109S3.2 31.7.1 28.1L0 28s.2.7.6 2c0 0 0-.1-.1-.1l24.9 88.8L128 484s50.6-16.6 120.1-71.9c1.3-1 2.5-2 3.8-3.1.3-.3.7-.5 1-.8 1-.8 2.1-1.7 3.1-2.5 30.9-25.4 65.1-58.4 100-100.7C474 162 512 28 511.9 28.1c.1-.1.1-.1 0 0 .1 0 0 0 0 0z" fill="#fff"/></svg>