<svg version="1.1" xmlns="http://www.w3.org/2000/svg" x="0" y="0" viewBox="0 0 512 512" xml:space="preserve"><path d="M450.5 52.2c-68-9.4-133.4-27.2-195-52.2C234 8.7 212 16.5 189.7 23.4c-19.4 6-39.2 11.3-59.2 15.9-23 5.3-46.4 9.6-70 12.8-.3 9.9-.5 19.7-.5 29.6 0 14.5.3 29 .9 43.3.9 21.3 2.5 42.5 4.8 63.5 2.2 20 4.9 39.8 8.3 59.3 3.2 18.5 6.8 36.8 11 54.9.5 2.4 1.1 4.8 1.7 7.1 5.3 20.4 13.1 39.9 23.2 58.2 9.8 17.9 21.9 34.6 35.8 49.8 2.1 2.3 4.2 4.5 6.4 6.7 31.8 32 66.4 61.3 103.3 87.4 36.9-26.1 71.5-55.4 103.3-87.4 33.3-33.5 56.6-75.8 67.2-121.8 16.4-71 25-145 25-221.1.1-9.8-.1-19.6-.4-29.4z" opacity=".1" fill="#fff"/><path d="M450.5 52.2c-68-9.4-133.4-27.2-195-52.2C234 8.7 212 16.5 189.7 23.4c-19.4 6-39.2 11.3-59.2 15.9-23 5.3-46.4 9.6-70 12.8-.3 9.9-.5 19.7-.5 29.6 0 14.5.3 29 .9 43.3.9 21.3 2.5 42.5 4.8 63.5 2.2 20 4.9 39.8 8.3 59.3 3.2 18.5 6.8 36.8 11 54.9.5 2.4 1.1 4.8 1.7 7.1 5.3 20.4 13.1 39.9 23.2 58.2 9.8 17.9 21.9 34.6 35.8 49.8 2.1 2.3 4.2 4.5 6.4 6.7 31.8 32 66.4 61.3 103.3 87.4 36.9-26.1 71.5-55.4 103.3-87.4 33.3-33.5 56.6-75.8 67.2-121.8 16.4-71 25-145 25-221.1.1-9.8-.1-19.6-.4-29.4zm-11.7 6.3c3.3 0 6 2.7 6 6s-2.7 6-6 6c-3.4 0-6-2.7-6-6s2.7-6 6-6zM379 45.9c3.3 0 6 2.7 6 6s-2.7 6-6 6-6-2.7-6-6 2.7-6 6-6zm-60-16.1c3.3 0 6 2.7 6 6s-2.7 6-6 6-6-2.7-6-6 2.7-6 6-6zM256 7.9c3.3 0 6 2.7 6 6s-2.7 6-6 6-6-2.7-6-6 2.7-6 6-6zm-63 21.9c3.3 0 6 2.7 6 6s-2.7 6-6 6-6-2.7-6-6 2.7-6 6-6zm-60 16.1c3.3 0 6 2.7 6 6s-2.7 6-6 6-6-2.7-6-6 2.7-6 6-6zM73.2 58.5c3.3 0 6 2.7 6 6s-2.7 6-6 6-6-2.7-6-6 2.7-6 6-6zm-6.3 66c0-3.3 2.7-6 6-6s6 2.7 6 6-2.7 6-6 6-6-2.7-6-6zm4.5 62.8c0-3.3 2.7-6 6-6s6 2.7 6 6-2.7 6-6 6-6-2.7-6-6zm14.3 64.6c-3.3 0-6-2.7-6-6s2.7-6 6-6 6 2.7 6 6-2.7 6-6 6zm.8-98.6zm11.7 159.6c-3.3 0-6-2.7-6-6s2.7-6 6-6 6 2.7 6 6-2.7 6-6 6zm21.8 55.6c-3.3 0-6-2.7-6-6s2.7-6 6-6c3.4 0 6 2.7 6 6s-2.7 6-6 6zm34.1 47.6c-3.3 0-6-2.7-6-6s2.7-6 6-6 6 2.7 6 6-2.7 6-6 6zm48.1 45.7c-3.3 0-6-2.7-6-6s2.7-6 6-6 6 2.7 6 6-2.7 6-6 6zm53.8 42.3c-3.3 0-6-2.7-6-6s2.7-6 6-6 6 2.7 6 6-2.7 6-6 6zm53.8-42.3c-3.3 0-6-2.7-6-6s2.7-6 6-6 6 2.7 6 6-2.7 6-6 6zm48.1-45.7c-3.3 0-6-2.7-6-6s2.7-6 6-6 6 2.7 6 6-2.7 6-6 6zm34.1-47.6c-3.3 0-6-2.7-6-6s2.7-6 6-6 6 2.7 6 6-2.7 6-6 6zm-50.2 41c-26.8 27-55.7 52-86.3 74.7-1.4-1-2.8-2.1-4.2-3.2-4.2-3.2-8.5-6.5-12.7-9.8-.5-.4-.9-.7-1.4-1.1-3.7-2.9-7.4-5.9-11.1-8.9l-1.8-1.5-5.4-4.5c-1.5-1.2-2.9-2.4-4.3-3.7-2.3-2-4.6-3.9-6.8-5.9l-4.8-4.2c-1.4-1.2-2.8-2.4-4.1-3.7-10.2-9.2-20.1-18.6-29.7-28.3-30.1-30.4-51.2-68.5-60.8-110.3-9.1-39.4-15.7-79.5-19.7-120.1-.4-4.1-.8-8.3-1.1-12.4 0-.2 0-.4-.1-.6-.4-4.3-.7-8.7-1-13-1.7-23-2.5-46.2-2.5-69.4v-8.8l12.3-2.1c.1 0 .2 0 .4-.1 3.6-.7 7.3-1.3 10.9-2h.1c7.5-1.4 14.9-3 22.3-4.6 42.8-9.5 84.7-22.2 125.5-38.2 55.3 21.7 112.8 37.4 171.5 47v8.8c0 72.8-8.2 145.4-24.4 215.7-9.6 41.7-30.7 79.8-60.8 110.2zm72-96.6c-3.3 0-6-2.7-6-6s2.7-6 6-6 6 2.7 6 6-2.7 6-6 6zm12.5-61c-3.3 0-6-2.7-6-6s2.7-6 6-6 6 2.7 6 6-2.7 6-6 6zm8.3-58.6c-3.3 0-6-2.7-6-6s2.7-6 6-6 6 2.7 6 6-2.7 6-6 6zm4.5-62.8c-3.3 0-6-2.7-6-6s2.7-6 6-6 6 2.7 6 6-2.7 6-6 6zM332.7 70.3c20.7 5.7 41.6 10.7 62.7 14.9L258.2 462l-2.7 2.1c-17.6-13.5-34.5-27.8-50.7-42.6L332.7 70.3zM123.5 83.7l-21.6 59.4c-1.1-18.2-1.8-36.5-1.9-54.8 7.9-1.4 15.7-3 23.5-4.6zm148.2-32.8L156.1 368.7c-15.2-22.1-26.1-46.8-32.1-73.1l-3.6-16.2 78.3-215c19.2-5.9 38.1-12.4 56.8-19.5l16.2 6z" fill="#fff"/></svg>