<svg version="1.1" xmlns="http://www.w3.org/2000/svg" x="0" y="0" viewBox="0 0 512 512" xml:space="preserve"><path d="M398.4 0H113.6c-10.5 0-19 8.5-19 19v474c0 10.5 8.5 19 19 19h284.8c10.5 0 19-8.5 19-19V19c0-10.5-8.5-19-19-19z" opacity=".1" fill="#fff"/><path d="M398.4 0H113.6c-10.5 0-19 8.5-19 19v474c0 10.5 8.5 19 19 19h284.8c10.5 0 19-8.5 19-19V19c0-10.5-8.5-19-19-19zm3 493c0 1.7-1.3 3-3 3H113.6c-1.7 0-3-1.3-3-3V19c0-1.7 1.3-3 3-3h284.8c1.7 0 3 1.3 3 3v474zM149.2 95.8c2.8 2.7 5.9 5 9.2 7-6.8 3.8-12.4 9.5-16.2 16.2-3.8-6.8-9.5-12.4-16.2-16.2 6.8-3.8 12.4-9.5 16.2-16.2 2 3.3 4.3 6.4 7 9.2zm204.3 313.5c6.8-3.8 12.4-9.5 16.2-16.2 2 3.5 4.5 6.7 7.4 9.5 2.6 2.6 5.6 4.8 8.9 6.7-6.8 3.8-12.4 9.5-16.2 16.2-3.8-6.8-9.5-12.4-16.3-16.2zm24.1 33.8H362l-3.1-9h-9.4l16.2 43.2h8.2l16-43.1h-9.4l-2.9 8.9zm-7.8 23.3l-5.4-16.1h10.8l-5.4 16.1zM138 34.7l-16 43.1h9.4l3-8.9H150l3.1 9h9.4l-16.2-43.2H138zm-1.2 27l5.4-16.1 5.4 16.1h-10.8zm135.3 177.9c6.2 6.2 13.4 11.7 20.9 15.9-15.2 8.7-28.8 22.2-37.5 37.5-8.7-15.2-22.2-28.8-37.5-37.5 15.2-8.7 28.8-22.2 37.5-37.5 4.4 7.8 10.1 15.1 16.6 21.6z" fill="#fff"/></svg>