<svg xmlns="http://www.w3.org/2000/svg" viewBox="0 0 512 512" xml:space="preserve"><path d="M288.6 45.4 284.5 12h-.1l-.5-4c-.5-4.5-6-8-12.7-8h-30.5C234 0 228.5 3.5 228 8l-.5 4h-.1l-4.1 33.4c-1.6 13.1-2.4 26.2-2.4 39.3V211c0 1.1.9 2 2 2h4.4v136l3.2 94v3h6.4v8.5c0 7.1-.9 14.1-2.8 21l-1.8 6.7c12.5 7.8 21.1 18.2 23.6 29.7 2.5-11.6 11.1-21.9 23.6-29.7l-1.8-6.7c-1.8-7-2.8-14-2.8-21V446h6.4v-3l3.2-94V213h4.4c1.1 0 2-.9 2-2V84.7c.1-13.1-.7-26.2-2.3-39.3z" opacity=".1" fill="#fff"/><path d="M288.6 45.4 284.5 12h-.1l-.5-4c-.5-4.5-6-8-12.7-8h-30.5C234 0 228.5 3.5 228 8l-.5 4h-.1l-4.1 33.4c-1.6 13.1-2.4 26.2-2.4 39.3V211c0 1.1.9 2 2 2h4.4v136l3.2 94v3h6.4v8.5c0 7.1-.9 14.1-2.8 21l-1.8 6.7c12.5 7.8 21.1 18.2 23.6 29.7 2.5-11.6 11.1-21.9 23.6-29.7l-1.8-6.7c-1.8-7-2.8-14-2.8-21V446h6.4v-3l3.2-94V213h4.4c1.1 0 2-.9 2-2V84.7c.1-13.1-.7-26.2-2.3-39.3zM256 482c-2.8 0-5-2.2-5-5 0-2.2 1.4-4.1 3.4-4.7V446h3.2v26.3c2 .7 3.4 2.5 3.4 4.7 0 2.8-2.2 5-5 5zm12.7-433.1c0 4.5-1.3 9.1-4.4 13.2-2.4 3.2-3.6 6.6-3.6 10.1v53.3c0 1.7.4 3.4 1.3 5.1l2.1 3.9c1.9 3.6 1.7 7.6-.6 11.2l-3.1 4.8c-1.6 2.5-7.2 2.5-8.8 0l-3.1-4.8c-2.3-3.6-2.5-7.5-.6-11.2l2.1-3.9c.9-1.6 1.3-3.3 1.3-5.1V72.2c0-3.5-1.2-6.9-3.6-10.1-3.1-4.1-4.4-8.7-4.4-13.2V16h25.4v32.9z" fill="#fff"/></svg>