<svg version="1.1" xmlns="http://www.w3.org/2000/svg" x="0" y="0" viewBox="0 0 512 512" xml:space="preserve"><path d="M512 402.1c0-3.6-.4-7.1-1.3-10.5-2-8.2-7.3-15.1-14.5-19.5l-25.8-15.6c-1.6 2.4-4.4 4.1-7.5 4.1-5 0-9-4-9-9 0-1.6.4-3.1 1.1-4.4l-98.4-59.4-3.2-2.1c-24.5-16.2-44.7-38-59.3-63.4-3.8-6.7-8.3-12.6-13.4-15.7-6.8-4.3-14.6-7.2-22.9-8.4v-28.5c0-1.6 1-3.1 2.6-3.7 13.4-5.4 22.4-18.6 22.4-33.4 0-16.7-11.5-30.9-27-34.9-.7-.2-1.3-.3-2-.5-.2 0-.4-.1-.6-.1-.5-.1-1-.2-1.5-.2-.2 0-.5-.1-.7-.1-.5-.1-1-.1-1.5-.1h-.6c-.7 0-1.4-.1-2.1-.1-.9 0-1.8 0-2.7.1h-.1c-.9.1-1.8.2-2.6.3h-.1c-.8.1-1.7.3-2.5.5h-.2c-.8.2-1.6.4-2.4.7-.1 0-.1 0-.2.1-.8.3-1.6.5-2.3.8-.1 0-.1.1-.2.1-.8.3-1.5.6-2.3 1-.1 0-.1.1-.2.1-.7.4-1.5.8-2.2 1.2-.1 0-.1.1-.2.1-.7.4-1.4.9-2.1 1.3-.1 0-.1.1-.2.1-.7.5-1.3 1-2 1.5-.1 0-.1.1-.2.1-.6.5-1.3 1.1-1.9 1.6l-.1.1-1.8 1.8-.1.1c-.6.6-1.1 1.3-1.7 1.9l-.1.1-1.5 2.1s0 .1-.1.1c-.5.7-1 1.5-1.4 2.3v.1c-.4.8-.9 1.6-1.2 2.4-.4.8-.7 1.7-1.1 2.5-.2.1-.3.1-.5.2-.4.2-.8.5-1.1.9l-.1.1c-.1.1-.1.2-.2.3-.1.1-.1.2-.2.3 0 .1-.1.2-.1.2 0 .1-.1.3-.1.4 0 .1 0 .1-.1.2 0 .2-.1.4-.1.6 0 1.9 1.6 3.5 3.5 3.5s3.5-1.6 3.5-3.5c0-.2 0-.4-.1-.6 0-.1-.1-.2-.1-.3 0-.1 0-.2-.1-.2-.1-.1-.1-.3-.2-.4v-.1c-.1-.2-.2-.3-.3-.4.9-2.3 2-4.4 3.4-6.4.4-.6.9-1.3 1.4-1.9v-.1c.5-.6 1-1.2 1.5-1.7l.1-.1c.5-.5 1-1.1 1.6-1.5l.2-.2c.5-.5 1-.9 1.6-1.4.1-.1.2-.1.3-.2.5-.4 1.1-.8 1.6-1.2.1-.1.3-.2.4-.3.5-.3 1-.7 1.6-1 .2-.1.4-.2.5-.3.5-.3 1-.6 1.5-.8.2-.1.5-.2.7-.3.5-.2 1-.5 1.5-.7l.9-.3c.5-.2.9-.3 1.4-.5.3-.1.7-.2 1-.3.4-.1.9-.3 1.3-.4.4-.1.8-.2 1.2-.2.4-.1.8-.2 1.2-.2.5-.1 1-.1 1.5-.2.3 0 .6-.1.9-.1.8-.1 1.7-.1 2.5-.1.7 0 1.4 0 2.1.1h.5c.6.1 1.3.1 1.9.2h.1c.7.1 1.5.2 2.2.4.7.2 1.5.3 2.2.6 13.3 3.9 23 16.2 23 30.7 0 12.4-7.3 23.6-18.2 28.9-.5.2-1.4.5-2.3.8-1 .3-1.8.8-2.5 1.4l-.3.3-.3.3c-.1.1-.2.2-.2.3-.1.2-.3.4-.4.6-.1.1-.1.2-.1.3l-.3.6c0 .1-.1.1-.1.2-.1.3-.2.5-.2.8v.2c0 .3-.1.6-.1.9v30c-1 .1-2 .3-3.1.5h-.1c-1 .2-1.9.4-2.9.6-.1 0-.2 0-.3.1-.9.2-1.8.5-2.7.7-.2 0-.3.1-.5.1-.8.3-1.6.5-2.4.8-.2.1-.5.2-.7.3-.7.3-1.4.5-2.1.8-.3.1-.7.3-1 .5-.6.3-1.2.5-1.8.8-.5.2-1 .5-1.5.8-.4.2-.9.4-1.3.7-.9.5-1.8 1-2.7 1.6-5 3.2-9.5 9.1-13.4 15.7-14.6 25.4-34.8 47.3-59.3 63.4l-3.2 2.1L56.2 347c.7 1.3 1.1 2.8 1.1 4.4 0 5-4 9-9 9-3.1 0-5.9-1.6-7.5-4.1L15 371.9C7.8 376.2 2.5 383.2.5 391.4c-.8 3.4-1.3 6.9-1.3 10.5 0 4.6.7 9.1 2 13.3L34 395.4h443.2l32.8 19.8c1.3-4 2-8.5 2-13.1zm-71.8-19.5H56.4L256 261.9l199.6 120.6h-15.4z" fill="#fff"/></svg>