<svg version="1.1" xmlns="http://www.w3.org/2000/svg" x="0" y="0" viewBox="0 0 512 512" xml:space="preserve"><path d="M392 158s-13.3-9.7-22.5-24.2c-.4-.6-.7-1.1-1-1.7-.8-1.3-1.6-2.7-2.3-4.1-.1-.3-.3-.5-.4-.8-1-2.1-1.9-4.3-2.7-6.6v-.1c-.8-2.4-1.4-4.9-1.8-7.4 0-.2-.1-.4-.1-.6-.1-.6-.1-1.2-.2-1.8 0-.3 0-.5-.1-.8 0-.6-.1-1.1-.1-1.7v-.8c0-.8 0-1.6.1-2.5 2-29 35-49.5 35-49.5h.5c15.2 0 27.5-12.3 27.5-27.5 0-15.4-12.6-28-28-28L116-.5c-15.4 0-28 12.5-28 28s12.6 28 28 28c0 0 15.1 9.4 25.5 24.5h-.1c1.6 2.2 3.1 4.6 4.3 7 2.8 5.5 4.8 11.5 5.3 18 .1.8.1 1.7.1 2.5v.7c0 .6 0 1.2-.1 1.8v.6c-.1.7-.1 1.4-.2 2.1v.2c-.4 2.6-1 5.1-1.8 7.6-.7 2.1-1.6 4.2-2.5 6.3-1.2 2.4-2.5 4.7-3.8 6.9C133.3 148.3 120 158 120 158c-17.7 0-32 14.3-32 32v290c0 17.7 14.3 32 32 32h272c17.7 0 32-14.3 32-32V190c0-17.7-14.3-32-32-32z" fill="#fff"/></svg>