<svg version="1.1" xmlns="http://www.w3.org/2000/svg" x="0" y="0" viewBox="0 0 512 512" xml:space="preserve"><path d="M512 186.2c.1-1.7-.8-3.3-2.3-4l-7-3.2c-1.4-.6-3-.5-4.2.5-1.4 1.1-3.8 2.7-8.1 5-8.9 4.8-27.7-.5-40.1 26.3l22.1 10.2c3.1 1.4 4.4 5 3 8.1l-17 36.9c-.1.2-.1.3-.2.5-3.7 8.1-13.5 11.5-21.5 7.4-7.2-3.7-10.4-12.5-7.4-19.9.8-2.1 2.1-3.8 3.6-5.3 1.4-1.4 3-2.5 4.8-3.2 3.4-1.4 3.7-6.2.4-7.8 0 0-.1 0-.1-.1-1.1-.5-2.3-.4-3.4.2-1.7.9-3.3 2-4.8 3.1-5.4 4.1-10.3 10-14.7 17.9-9.5-31.3-51.6-169.7-66.9-202C330.9 20.3 294.8 0 294.8 0s-8.6 44.7 7.5 90.2c16.2 45.5 63.5 178.4 63.5 178.4.8 2.4 2.2 4.5 4 6.2l5.4 5.2-7.5 8.3c-1.5 1.6-2 4-1.2 6.1l3 8.4h-292c.1-.2.1-.5.2-.7 3.2-.4 5.6-3.3 5.2-6.6-.2-1.8-1.2-3.3-2.6-4.3 0-.1.1-.3.1-.4 10.2-43 23.8-100 26.8-112.7 5-21-1.7-59.5-1.7-59.5S71 144.1 65.3 168.1c-2.3 9.7-9.1 38.2-16.3 68.7h-.1c-1.3 5.6-2.7 11.2-4 16.8-6-3.3-11-9.3-12.2-20-3.3-29.9 8-37.2 6.3-52.1-1.1-10.3-4.4-21.9-6.2-28-.8-2.6-3.2-4.3-6-4.2l-19.5.7c-1.8.1-3.3 1.3-3.8 3.1-1.5 6.3-4.6 21.7-3.1 34.7l14.3 128.4c.4 3.3 3.3 5.7 6.6 5.3l6.9-.8c-4.8 6.8-7.6 15.1-7.6 24.1v12.5c0 23.2 18.8 42 42 42h349.3c23.2 0 42-18.8 41.9-42v-12.5c0-3.5-.4-6.9-1.2-10.2l46.6-101.3c9.7-21.2 12.2-40.1 12.8-47.1z" opacity=".1" fill="#fff"/><path d="M512 186.2c.1-1.7-.8-3.3-2.3-4l-7-3.2c-1.4-.6-3-.5-4.2.5-1.4 1.1-3.8 2.7-8.1 5-8.9 4.8-27.7-.5-40.1 26.3l22.1 10.2c3.1 1.4 4.4 5 3 8.1l-17 36.9c-.1.2-.1.3-.2.5-3.7 8.1-13.5 11.5-21.5 7.4-7.2-3.7-10.4-12.5-7.4-19.9.8-2.1 2.1-3.8 3.6-5.3 1.4-1.4 3-2.5 4.8-3.2 3.4-1.4 3.7-6.2.4-7.8 0 0-.1 0-.1-.1-1.1-.5-2.3-.4-3.4.2-1.7.9-3.3 2-4.8 3.1-5.4 4.1-10.3 10-14.7 17.9-9.5-31.3-51.6-169.7-66.9-202C330.9 20.3 294.8 0 294.8 0s-8.6 44.7 7.5 90.2c16.2 45.5 63.5 178.4 63.5 178.4.8 2.4 2.2 4.5 4 6.2l5.4 5.2-7.5 8.3c-1.5 1.6-2 4-1.2 6.1l3 8.4h-292c.1-.2.1-.5.2-.7 3.2-.4 5.6-3.3 5.2-6.6-.2-1.8-1.2-3.3-2.6-4.3 0-.1.1-.3.1-.4 10.2-43 23.8-100 26.8-112.7 5-21-1.7-59.5-1.7-59.5S71 144.1 65.3 168.1c-2.3 9.7-9.1 38.2-16.3 68.7h-.1c-1.3 5.6-2.7 11.2-4 16.8-6-3.3-11-9.3-12.2-20-3.3-29.9 8-37.2 6.3-52.1-1.1-10.3-4.4-21.9-6.2-28-.8-2.6-3.2-4.3-6-4.2l-19.5.7c-1.8.1-3.3 1.3-3.8 3.1-1.5 6.3-4.6 21.7-3.1 34.7l14.3 128.4c.4 3.3 3.3 5.7 6.6 5.3l6.9-.8c-4.8 6.8-7.6 15.1-7.6 24.1v12.5c0 23.2 18.8 42 42 42h349.3c23.2 0 42-18.8 41.9-42v-12.5c0-3.5-.4-6.9-1.2-10.2l46.6-101.3c9.7-21.2 12.2-40.1 12.8-47.1zM342.2 76.1c-3.1-8.6-4.9-17.3-5.6-25.8 8.1 11.6 14.7 24.5 19.7 38.5 2.5 7 4.5 14.2 6 21.3-8.6-9.7-15.5-21.1-20.1-34zM13.8 248.4c-2.3-11.1-4.1-22.3-5.4-33.8-1.4-13.1-2.2-26-2.2-38.9 5 10.8 8.4 22.5 9.8 35 1.4 13 .6 25.7-2.2 37.7zM367.7 358h-17.2v17.2h-13.8V358h-17.3v-13.8h17.3v-17.3h13.8v17.3h17.2V358zm107.7-87.9c.5-11.9 3.3-23.9 8.6-35.4 5.1-10.9 12-20.4 20.1-28.3-3.5 11.8-7.8 23.4-13.1 34.9-4.6 10.1-9.9 19.7-15.6 28.8z" fill="#fff"/></svg>