<svg version="1.1" xmlns="http://www.w3.org/2000/svg" x="0" y="0" viewBox="0 0 512 512" xml:space="preserve"><path d="M254.5 449.1zM512 256c0 52.5-27.4 101.6-77.3 138.1-48.3 35.5-112.3 55-180.2 55-68.3 0-190.5-11.3-241.5-87.3C-5.5 334.5.9 300.5 2 295.3c.8-4.4 5.4-24.7 24.4-40.5 7.9-6.7 17.3-10.4 25.6-13.6 4.4-1.7 12.5-4.9 13.9-6.9v-.5c0-4.5-7.4-14-12.9-20.8-9.5-12-20.2-25.6-20.2-41.9 0-27.6 32.4-48.1 46.2-56.8 1.2-.8 2.3-1.4 3-1.9C129.3 80.5 190.5 63 254.4 63c67.9 0 131.9 19.5 180.2 55 49.9 36.4 77.4 85.5 77.4 138zm-32 0c0-42-22.8-81.9-64.3-112.3-42.9-31.5-100.2-48.8-161.3-48.8-57.5 0-112.4 15.6-154.5 44-1 .7-2.2 1.5-3.8 2.4-5.3 3.3-14.1 8.9-21.4 15.5-9.5 8.7-10 13.4-10 14.2 0 5.1 7.4 14.5 13.4 22.1 9.3 11.7 19.7 25 19.7 40.7 0 23.7-20.6 31.8-34.2 37.2-6.3 2.5-12.8 5-16.8 8.4-11.1 9.2-13.4 21.5-13.4 21.6l-.1.6-.1.6c0 .2-5.4 24.5 6.2 41.7 31.3 46.6 109.6 73.2 215 73.2 61.1 0 118.4-17.3 161.3-48.8C457.2 337.9 480 298.1 480 256zm-330.9-42.8c28.6 5.1 54.1-3.4 56.9-19 2.7-15.5-18.2-32.2-46.9-37.3-28.6-5.1-54.1 3.4-56.9 19-2.6 15.5 18.4 32.2 46.9 37.3zm-53.9 64.5c-19.3 0-34.9 15.7-34.9 34.9 0 19.3 15.7 34.9 34.9 34.9 19.3 0 34.8-15.6 34.9-34.9 0-19.3-15.6-34.9-34.9-34.9zM365 207.5c19.3 0 34.9-15.6 34.9-34.9 0-19.3-15.7-34.9-34.9-34.9-19.3 0-34.9 15.6-34.9 34.9s15.7 34.9 34.9 34.9zm-3.5 78.3c-19.3 0-34.9 15.7-34.9 34.9 0 19.3 15.7 34.9 34.9 34.9 19.1 0 34.8-15.7 34.9-34.9 0-19.3-15.7-34.9-34.9-34.9zm-179.7 31.3c-19.3 0-34.9 15.7-34.9 34.9 0 19.3 15.7 34.9 34.9 34.9 19.3 0 34.9-15.7 34.9-34.9 0-19.3-15.6-34.9-34.9-34.9zm232.3-105.5c-19.3 0-34.9 15.6-34.9 34.9s15.7 34.9 34.9 34.9c19.3 0 34.9-15.6 34.9-34.9s-15.6-34.9-34.9-34.9zM273 318.8c-19.3 0-34.9 15.7-34.9 34.9 0 19.3 15.7 34.9 34.9 34.9 19.3 0 34.9-15.6 34.9-34.9s-15.7-34.9-34.9-34.9z" fill="#fff"/></svg>