<svg xmlns="http://www.w3.org/2000/svg" viewBox="0 0 512 512" xml:space="preserve"><path opacity=".1" fill="#fff" d="M489.1 228 267.5 0h-23L22.9 228l22.9 22.3 27.6-28.4L145 512h222l71.6-290.1 27.6 28.4z"/><path d="M267.5 0h-22.9L22.9 228l22.9 22.3 27.6-28.4L145 512h222l71.6-290.1 27.6 28.4 22.9-22.3L267.5 0zm-11.7 394c-9.1 0-16.5-7.4-16.5-16.5s7.4-16.5 16.5-16.5 16.5 7.4 16.5 16.5c-.1 9.1-7.4 16.5-16.5 16.5zm0-73c-30.9 0-56-25.1-56-56s25.1-56 56-56 56 25.1 56 56-25.1 56-56 56z" fill="#fff"/></svg>