<svg version="1.1" xmlns="http://www.w3.org/2000/svg" x="0" y="0" viewBox="0 0 512 512" xml:space="preserve"><path d="M256 0C142.2 0 50 192.2 50 306s92.2 206 206 206 206-92.2 206-206S369.8 0 256 0zm-54.9 59.6c16.7-9.3 35.7-14.1 54.9-14.1 19.2 0 38.2 4.9 54.9 14.1 10.9 6 14.8 19.7 8.8 30.6-4.1 7.4-11.8 11.6-19.7 11.6-3.7 0-7.4-.9-10.9-2.8-10.1-5.6-21.5-8.5-33.1-8.5s-23 2.9-33.1 8.5c-10.9 6-24.6 2.1-30.6-8.8s-2.1-24.5 8.8-30.6z" opacity=".15" fill="#fff"/><path d="M256 0C142.2 0 50 192.2 50 306s92.2 206 206 206 206-92.2 206-206S369.8 0 256 0zm-54.9 59.6c16.7-9.3 35.7-14.1 54.9-14.1 19.2 0 38.2 4.9 54.9 14.1 10.9 6 14.8 19.7 8.8 30.6-4.1 7.4-11.8 11.6-19.7 11.6-3.7 0-7.4-.9-10.9-2.8-10.1-5.6-21.5-8.5-33.1-8.5s-23 2.9-33.1 8.5c-10.9 6-24.6 2.1-30.6-8.8s-2.1-24.5 8.8-30.6zM256 440c-73.9 0-134-60.1-134-134s60.1-134 134-134 134 60.1 134 134-60.1 134-134 134zm124-134c0 68.4-55.6 124-124 124s-124-55.6-124-124 55.6-124 124-124 124 55.6 124 124z" fill="#fff"/></svg>