<svg version="1.1" xmlns="http://www.w3.org/2000/svg" x="0" y="0" viewBox="0 0 512 512" xml:space="preserve"><path d="M256 45c-32.9 0-63.7 12.8-87 36-23.2 23.2-36 54.1-36 87v299h246V168c0-32.9-12.8-63.7-36-87-23.3-23.2-54.1-36-87-36zm-26.8-12.4L224 3.1c9.1-1.8 18.4-2.8 28-3v30c-7.7.2-15.3 1-22.8 2.5zM200 41.8l-10.3-28.2C198.2 10 207 7 216.2 4.8l5.2 29.6c-7.4 1.8-14.5 4.3-21.4 7.4zm82.8-9.2c-7.4-1.5-15.1-2.3-22.8-2.5V.1c9.5.2 18.9 1.3 28 3l-5.2 29.5zM108 88.5l23.6 19.8c-2.9 6-5.3 12.2-7.3 18.5l-26.5-15.3c2.8-7.9 6.2-15.6 10.2-23zm204-46.7c-6.9-3.1-14.1-5.6-21.5-7.5l5.2-29.6c9.2 2.2 18 5.2 26.5 8.8L312 41.8zM173.8 57.1 158.7 31c7.5-5.3 15.4-10 23.7-14.1l10.3 28.4c-6.6 3.4-12.9 7.4-18.9 11.8zm-78.6 62.2 26.8 15.5c-1.5 6.1-2.6 12.3-3.2 18.5l-28.9-10.5c1.2-8.1 3-15.9 5.3-23.5zm40.1-18.3L112 81.4c4.5-7.5 9.6-14.6 15.2-21.3l19.6 23.4c-4.3 5.6-8.1 11.4-11.5 17.5zm286.8 41.8-28.9 10.5c-.7-6.3-1.7-12.5-3.2-18.5l26.8-15.5c2.3 7.6 4.1 15.4 5.3 23.5zm-77.6-80.7 15.2-26.3c7.1 5.6 13.7 11.7 19.8 18.3L360 77.3c-2.1-2.4-4.2-4.7-6.4-6.9-2.9-2.9-5.9-5.6-9.1-8.3zm-25.2-16.8L329.6 17c8.3 4 16.2 8.8 23.7 14.1l-15.1 26.1c-6-4.5-12.3-8.5-18.9-11.9zM152 77.3l-19.5-23.2c6.1-6.6 12.7-12.7 19.8-18.3l15.2 26.3c-3.1 2.6-6.1 5.4-9 8.3-2.3 2.3-4.5 4.6-6.5 6.9zm-63.1 73.6 29.3 10.7c-.1 2.1-.2 4.3-.2 6.4v11.1l-30-5.3V168c0-5.8.3-11.5.9-17.1zM424 168v5.8l-30 5.3V168c0-2.1-.1-4.3-.2-6.4l29.3-10.7c.6 5.6.9 11.3.9 17.1zm-58.8-84.4 19.6-23.4c5.6 6.7 10.7 13.8 15.2 21.3L376.7 101c-3.4-6.1-7.2-11.9-11.5-17.4zM88 181.9l30 5.3v16.3H88v-21.6zm326.3-70.4-26.5 15.3c-2-6.4-4.4-12.5-7.3-18.5L404 88.5c4 7.4 7.4 15.1 10.3 23zM88 451.5h30v32H88v-32zm306-160h30v32h-30v-32zm0-40h30v32h-30v-32zm0 80h30v32h-30v-32zm0-120h30v32h-30v-32zm0 160h30v32h-30v-32zm0 120h30V512h-30v-20.5zm0-304.3 30-5.3v21.6h-30v-16.3zM88 491.5h30V512H88v-20.5zm0-80h30v32H88v-32zm0-80h30v32H88v-32zm0-40h30v32H88v-32zm0-40h30v32H88v-32zm0-40h30v32H88v-32zm306 240h30v32h-30v-32zm0-40h30v32h-30v-32zm-306-40h30v32H88v-32z" opacity=".1" fill="#fff"/><path d="M256 45c-32.9 0-63.7 12.8-87 36-23.2 23.2-36 54.1-36 87v299h246V168c0-32.9-12.8-63.7-36-87-23.3-23.2-54.1-36-87-36zM153 168c0-16.1 3.7-31.7 10.7-45.8l31.3 31.3c-7.5 10.5-12.4 23-13.6 36.5H153v-22zm49.1-7.3 29.3 29.3h-40c1.1-10.8 4.9-20.8 10.7-29.3zM243 447h-90V344h90v103zm0-113h-90V225h90v109zm6-144h-3.4l-37.2-37.2c10.4-11.2 24.6-18.7 40.6-20.4V190zm0-67.7c-18.7 1.7-35.5 10.4-47.7 23.4l-32.6-32.6c4.1-6.4 8.9-12.5 14.4-18 17.8-17.8 41-28.3 65.8-29.9v57.1zm14 67.7v-57.6c16 1.7 30.2 9.3 40.6 20.4L266.4 190H263zm46.9-29.3c5.8 8.5 9.6 18.5 10.7 29.3h-40l29.3-29.3zM359 447h-90V344h90v103zm0-113h-90V225h90v109zm0-166v22h-28.3c-1.3-13.5-6.1-26-13.6-36.5l31.3-31.3c6.9 14.1 10.6 29.7 10.6 45.8zm-48.3-22.3c-12.2-13-28.9-21.7-47.7-23.4V65.2c24.9 1.7 48 12.1 65.8 29.9 5.5 5.5 10.3 11.6 14.4 18l-32.5 32.6zM229.2 32.6 224 3.1c9.1-1.8 18.4-2.8 28-3v30c-7.7.2-15.3 1-22.8 2.5zM200 41.8l-10.3-28.2C198.2 10 207 7 216.2 4.8l5.2 29.6c-7.4 1.8-14.5 4.3-21.4 7.4zm82.8-9.2c-7.4-1.5-15.1-2.3-22.8-2.5V.1c9.5.2 18.9 1.3 28 3l-5.2 29.5zM108 88.5l23.6 19.8c-2.9 6-5.3 12.2-7.3 18.5l-26.5-15.3c2.8-7.9 6.2-15.6 10.2-23zm204-46.7c-6.9-3.1-14.1-5.6-21.5-7.5l5.2-29.6c9.2 2.2 18 5.2 26.5 8.8L312 41.8zM173.8 57.1 158.7 31c7.5-5.3 15.4-10 23.7-14.1l10.3 28.4c-6.6 3.4-12.9 7.4-18.9 11.8zm-78.6 62.2 26.8 15.5c-1.5 6.1-2.6 12.3-3.2 18.5l-28.9-10.5c1.2-8.1 3-15.9 5.3-23.5zm40.1-18.3L112 81.4c4.5-7.5 9.6-14.6 15.2-21.3l19.6 23.4c-4.3 5.6-8.1 11.4-11.5 17.5zm286.8 41.8-28.9 10.5c-.7-6.3-1.7-12.5-3.2-18.5l26.8-15.5c2.3 7.6 4.1 15.4 5.3 23.5zm-77.6-80.7 15.2-26.3c7.1 5.6 13.7 11.7 19.8 18.3L360 77.3c-2.1-2.4-4.2-4.7-6.4-6.9-2.9-2.9-5.9-5.6-9.1-8.3zm-25.2-16.8L329.6 17c8.3 4 16.2 8.8 23.7 14.1l-15.1 26.1c-6-4.5-12.3-8.5-18.9-11.9zM152 77.3l-19.5-23.2c6.1-6.6 12.7-12.7 19.8-18.3l15.2 26.3c-3.1 2.6-6.1 5.4-9 8.3-2.3 2.3-4.5 4.6-6.5 6.9zm-63.1 73.6 29.3 10.7c-.1 2.1-.2 4.3-.2 6.4v11.1l-30-5.3V168c0-5.8.3-11.5.9-17.1zM424 168v5.8l-30 5.3V168c0-2.1-.1-4.3-.2-6.4l29.3-10.7c.6 5.6.9 11.3.9 17.1zm-58.8-84.4 19.6-23.4c5.6 6.7 10.7 13.8 15.2 21.3L376.7 101c-3.4-6.1-7.2-11.9-11.5-17.4zM88 181.9l30 5.3v16.3H88v-21.6zm326.3-70.4-26.5 15.3c-2-6.4-4.4-12.5-7.3-18.5L404 88.5c4 7.4 7.4 15.1 10.3 23zM88 451.5h30v32H88v-32zm306-160h30v32h-30v-32zm0-40h30v32h-30v-32zm0 80h30v32h-30v-32zm0-120h30v32h-30v-32zm0 160h30v32h-30v-32zm0 120h30V512h-30v-20.5zm0-304.3 30-5.3v21.6h-30v-16.3zM88 491.5h30V512H88v-20.5zm0-80h30v32H88v-32zm0-80h30v32H88v-32zm0-40h30v32H88v-32zm0-40h30v32H88v-32zm0-40h30v32H88v-32zm306 240h30v32h-30v-32zm0-40h30v32h-30v-32zm-306-40h30v32H88v-32z" fill="#fff"/></svg>