<svg xmlns="http://www.w3.org/2000/svg" viewBox="0 0 512 512" xml:space="preserve"><path d="M398.4 0H113.6c-10.5 0-19 8.5-19 19v474c0 10.5 8.5 19 19 19h284.8c10.5 0 19-8.5 19-19V19c0-10.5-8.5-19-19-19z" opacity=".1" fill="#fff"/><path d="M199.2 208.9v-7.6c-3-2.1-10.6-13-10.6-18.7 0-6.3 5.1-11.4 11.4-11.4s11.4 5.1 11.4 11.4c0 5.7-7.6 16.7-10.6 18.7v7.6h5.7c2.1-3 13-10.6 18.7-10.6 6.3 0 11.4 5.1 11.4 11.4 0 6.3-5.1 11.4-11.4 11.4-5.7 0-16.7-7.6-18.7-10.6h-5.7v1.1c.5 10.4 6.6 19.3 15.7 23.4h-33c9-4.1 15.1-12.9 15.7-23.4v-1.1h-5.7c-2.1 3-13 10.6-18.7 10.6-6.3 0-11.4-5.1-11.4-11.4s5.1-11.4 11.4-11.4c5.7 0 16.7 7.6 18.7 10.6h5.7zm-1.8-105.8h-3.9c-2-3-13-10.6-18.7-10.6-6.3 0-11.4 5.1-11.4 11.4 0 6.3 5.1 11.4 11.4 11.4 5.7 0 16.6-7.6 18.7-10.6h5.7v1.1c-.6 10.5-6.7 19.3-15.7 23.4h33c-9.1-4.1-15.2-13-15.7-23.4v-1.1h5.7c2 3 13 10.6 18.7 10.6 6.3 0 11.4-5.1 11.4-11.4 0-6.3-5.1-11.4-11.4-11.4-5.7 0-16.6 7.6-18.7 10.6h-5.7v-7.6c3-2 10.6-13 10.6-18.7 0-6.3-5.1-11.4-11.4-11.4s-11.4 5.1-11.4 11.4c0 5.7 7.6 16.6 10.6 18.7v7.6h-1.8zm117.2 200h3.9c2 3 13 10.6 18.7 10.6 6.2 0 11.3-5.1 11.3-11.4s-5.1-11.4-11.4-11.4c-5.7 0-16.6 7.6-18.7 10.6h-5.7v-1.1c.6-10.5 6.7-19.3 15.7-23.4h-32.9c9.1 4.1 15.2 13 15.7 23.4v1.1h-5.7c-2-3-13-10.6-18.7-10.6-6.3 0-11.4 5.1-11.4 11.4s5.1 11.4 11.4 11.4c5.7 0 16.6-7.6 18.7-10.6h5.7v7.6c-3 2-10.6 13-10.6 18.7 0 6.3 5.1 11.4 11.4 11.4s11.4-5.1 11.4-11.4c0-5.7-7.6-16.6-10.6-18.7v-7.6h1.8zm-112 0h3.9c2 3 13 10.6 18.7 10.6 6.3 0 11.4-5.1 11.4-11.4s-5.1-11.4-11.4-11.4c-5.7 0-16.6 7.6-18.7 10.6h-5.7v-1.1c.6-10.5 6.7-19.3 15.7-23.4h-33c9.1 4.1 15.2 13 15.7 23.4v1.1h-5.7c-2-3-13-10.6-18.7-10.6-6.3 0-11.4 5.1-11.4 11.4s5.1 11.4 11.4 11.4c5.7 0 16.6-7.6 18.7-10.6h5.7v7.6c-3 2-10.6 13-10.6 18.7 0 6.3 5.1 11.4 11.4 11.4s11.4-5.1 11.4-11.4c0-5.7-7.6-16.6-10.6-18.7v-7.6h1.8zm134.5-104.8c-5.7 0-16.6 7.6-18.7 10.6h-5.7v-7.6c3-2 10.6-13 10.6-18.7 0-6.3-5.1-11.4-11.4-11.4s-11.4 5.1-11.4 11.4c0 5.7 7.6 16.6 10.6 18.7v7.6h-5.7c-2-3-13-10.6-18.7-10.6-6.3 0-11.4 5.1-11.4 11.4s5.1 11.4 11.4 11.4c5.7 0 16.6-7.6 18.7-10.6h5.7v1.1c-.6 10.5-6.7 19.3-15.7 23.4h33.1c-9.1-4.1-15.2-13-15.7-23.4v-1.1h5.7c2 3 13 10.6 18.7 10.6 6.3 0 11.4-5.1 11.4-11.4-.1-6.3-5.2-11.4-11.5-11.4zm-50.4-83c5.7 0 16.6-7.6 18.7-10.6h5.7v1.1c-.6 10.5-6.7 19.3-15.7 23.4h33.1c-9.1-4.1-15.2-13-15.7-23.4v-1.1h5.7c2 3 13 10.6 18.7 10.6 6.3 0 11.4-5.1 11.4-11.4-.1-6.3-5.2-11.4-11.5-11.4-5.7 0-16.6 7.6-18.7 10.6h-5.7v-7.6c3-2 10.6-13 10.6-18.7 0-6.3-5.1-11.4-11.4-11.4s-11.4 5.1-11.4 11.4c0 5.7 7.6 16.6 10.6 18.7v7.6h-5.7c-2-3-13-10.6-18.7-10.6-6.3 0-11.4 5.1-11.4 11.4 0 6.3 5.1 11.4 11.4 11.4zm-31.5 33.1v7.6h-5.7c-2-3-13-10.6-18.7-10.6-6.3 0-11.4 5.1-11.4 11.4s5.1 11.4 11.4 11.4c5.7 0 16.6-7.6 18.7-10.6h5.7v1.1c-.6 10.5-6.7 19.3-15.7 23.4h33c-9.1-4.1-15.2-13-15.7-23.4v-1.1h5.7c2 3 13 10.6 18.7 10.6 6.3 0 11.4-5.1 11.4-11.4 0-6.3-5.1-11.4-11.4-11.4-5.7 0-16.6 7.6-18.7 10.6h-5.7v-7.6c3-2 10.6-13 10.6-18.7 0-6.3-5.1-11.4-11.4-11.4-6.3 0-11.4 5.1-11.4 11.4 0 5.7 7.6 16.6 10.6 18.7zm-110.4-74c-2.5-3.1-3.8-7.5-3.8-13.3v-7.9c0-6 1.2-10.6 3.7-13.7 2.5-3.1 6.1-4.7 10.8-4.7s8.3 1.5 10.8 4.6c2.5 3.1 3.8 7.5 3.8 13.3v7.9c0 6-1.2 10.5-3.7 13.7s-6.1 4.7-10.8 4.7c-4.7 0-8.3-1.5-10.8-4.6zm4.6-12.6c0 3.5.5 6.1 1.4 7.8 1 1.7 2.5 2.6 4.6 2.6 2.1 0 3.6-.8 4.5-2.5.9-1.6 1.4-4.1 1.5-7.5V51.9h.1c0-3.6-.5-6.2-1.5-7.8-1-1.6-2.5-2.4-4.6-2.4-2 0-3.5.8-4.5 2.3-1 1.6-1.5 4-1.5 7.3v10.5zm226.2 357.9c0-2.9-3.9-8.4-5.4-9.4v-4h3c1 1.5 6.6 5.4 9.4 5.4 3.1 0 5.8-2.6 5.8-5.8s-2.6-5.8-5.8-5.8c-2.9 0-8.4 3.9-9.4 5.4h-3v-.5c.3-5.3 3.4-9.8 8-11.9h-16.8c4.6 2.1 7.7 6.6 8 11.9v.5h-3c-1-1.5-6.6-5.4-9.4-5.4-3.1 0-5.8 2.6-5.8 5.8 0 3.2 2.6 5.8 5.8 5.8 2.9 0 8.4-3.9 9.4-5.4h3v4c-1.5 1-5.4 6.6-5.4 9.4 0 3.1 2.6 5.8 5.8 5.8 3.2 0 5.8-2.6 5.8-5.8zm11.8 13.8h-8.6v43.2h1l17.8-6.4v-7l-10.2 3.2v-33zm-30.9-.5c4.7 0 8.3 1.5 10.8 4.6 2.5 3.1 3.7 7.5 3.8 13.3v7.9c0 6-1.2 10.6-3.7 13.7-2.5 3.1-6.1 4.7-10.8 4.7-4.7 0-8.3-1.5-10.8-4.6s-3.7-7.5-3.8-13.3v-7.9c0-6 1.2-10.5 3.7-13.7 2.4-3.1 6-4.7 10.8-4.7zm-6.1 27.1c0 3.6.5 6.2 1.5 7.8 1 1.6 2.5 2.4 4.6 2.4 2.1 0 3.5-.7 4.5-2.3.9-1.6 1.4-4 1.5-7.3v-10.5c0-3.5-.4-6.1-1.4-7.8s-2.5-2.6-4.6-2.6c-2.1 0-3.6.9-4.5 2.5-1 1.6-1.5 4.1-1.5 7.5h-.1v10.3zm-35.8-51.2h3.9c2 3 13 10.6 18.7 10.6 6.2 0 11.3-5.1 11.3-11.4s-5.1-11.4-11.4-11.4c-5.7 0-16.6 7.6-18.7 10.6h-5.7v-1.1c.6-10.5 6.7-19.3 15.7-23.4h-32.9c9.1 4.1 15.2 13 15.7 23.4v1.1h-5.7c-2-3-13-10.6-18.7-10.6-6.3 0-11.4 5.1-11.4 11.4s5.1 11.4 11.4 11.4c5.7 0 16.6-7.6 18.7-10.6h5.7v7.6c-3 2-10.6 13-10.6 18.7 0 6.3 5.1 11.4 11.4 11.4s11.4-5.1 11.4-11.4c0-5.7-7.6-16.6-10.6-18.7v-7.6h1.8zM417.4 19v474c0 10.5-8.5 19-19 19H113.6c-10.5 0-19-8.5-19-19V19c0-10.5 8.5-19 19-19h284.8c10.5 0 19 8.5 19 19zm-16 0c0-1.7-1.3-3-3-3H113.6c-1.7 0-3 1.3-3 3v474c0 1.7 1.3 3 3 3h284.8c1.7 0 3-1.3 3-3V19zM225.2 396.7c-5.7 0-16.6 7.6-18.7 10.6h-5.7v-1.1c.6-10.5 6.7-19.3 15.7-23.4h-33c9.1 4.1 15.2 13 15.7 23.4v1.1h-5.7c-2-3-13-10.6-18.7-10.6-6.3 0-11.4 5.1-11.4 11.4s5.1 11.4 11.4 11.4c5.7 0 16.6-7.6 18.7-10.6h5.7v7.6c-3 2-10.6 13-10.6 18.7 0 6.3 5.1 11.4 11.4 11.4s11.4-5.1 11.4-11.4c0-5.7-7.6-16.6-10.6-18.7v-7.6h5.7c2 3 13 10.6 18.7 10.6 6.3 0 11.4-5.1 11.4-11.4s-5.1-11.4-11.4-11.4zM155 100.3c-2.9 0-8.4 3.9-9.4 5.4h-3v-4c1.5-1 5.4-6.6 5.4-9.4 0-3.1-2.6-5.8-5.8-5.8s-5.8 2.6-5.8 5.8c0 2.9 3.9 8.4 5.4 9.4v4h-3c-1-1.5-6.6-5.4-9.4-5.4-3.1 0-5.8 2.6-5.8 5.8 0 3.2 2.6 5.8 5.8 5.8 2.9 0 8.4-3.9 9.4-5.4h3v.5c-.3 5.3-3.4 9.8-8 11.9h16.8c-4.6-2.1-7.7-6.6-8-11.9v-.5h3c1 1.5 6.6 5.4 9.4 5.4 3.2 0 5.8-2.6 5.8-5.8 0-3.2-2.6-5.8-5.8-5.8zm-30.5-21.9h8.5V35.2h-.9l-17.8 6.4v7l10.2-3.2v33zm132.3 285.2V356h5.7c2 3 13 10.6 18.7 10.6 6.3 0 11.4-5.1 11.4-11.4s-5.1-11.4-11.4-11.4c-5.7 0-16.6 7.6-18.7 10.6h-5.7v-1.1c.6-10.5 6.7-19.3 15.7-23.4h-33c9.1 4.1 15.2 13 15.7 23.4v1.1h-5.7c-2-3-13-10.6-18.7-10.6-6.3 0-11.4 5.1-11.4 11.4s5.1 11.4 11.4 11.4c5.7 0 16.6-7.6 18.7-10.6h5.7v7.6c-3 2-10.6 13-10.6 18.7 0 6.3 5.1 11.4 11.4 11.4s11.4-5.1 11.4-11.4c0-5.7-7.6-16.6-10.6-18.7z" fill="#fff"/></svg>