<svg version="1.1" xmlns="http://www.w3.org/2000/svg" x="0" y="0" viewBox="0 0 512 512" xml:space="preserve"><path d="M512 148v332c0 17.7-14.3 32-32 32H32c-17.7 0-32-14.3-32-32V148c0-17.7 14.3-32 32-32h168.3c-8.9-9-16.3-21.7-17.1-41-.8-19.2 6.2-37.6 19.8-51.8C217.2 8.5 237 0 257.5 0c32.1 0 60.4 20.4 70.5 50.8l-30.4 10.1C291.9 43.6 275.8 32 257.5 32c-11.8 0-23.2 4.9-31.4 13.4-7.5 7.8-11.4 17.9-11 28.3.7 16.3 8.7 21.9 22.9 30.5 5.7 3.5 11.6 7 16.7 11.8H480c17.7 0 32 14.3 32 32z" opacity=".1" fill="#fff"/><path d="M215.7 285.3h1.2v57.3h-11.3v-43.7L192 303v-9.2l23.7-8.5zM512 148v332c0 17.7-14.3 32-32 32H32c-17.7 0-32-14.3-32-32V148c0-17.7 14.3-32 32-32h168.3c-8.9-9-16.3-21.7-17.1-41-.8-19.2 6.2-37.6 19.8-51.8C217.2 8.5 237 0 257.5 0c32.1 0 60.4 20.4 70.5 50.8l-30.4 10.1C291.9 43.6 275.8 32 257.5 32c-11.8 0-23.2 4.9-31.4 13.4-7.5 7.8-11.4 17.9-11 28.3.7 16.3 8.7 21.9 22.9 30.5 5.7 3.5 11.6 7 16.7 11.8H480c17.7 0 32 14.3 32 32zM359.5 314c0-57.2-46.3-103.5-103.5-103.5S152.5 256.8 152.5 314 198.8 417.5 256 417.5 359.5 371.2 359.5 314zm-90.7-23.3c3.3 4.1 5 10 5.1 17.6v10.6c0 7.9-1.6 13.9-4.9 18.1s-8.1 6.3-14.4 6.3c-6.2 0-11-2.1-14.3-6.2-3.3-4.1-5-10-5.1-17.7V309c0-8 1.7-14 5-18.2 3.3-4.1 8.1-6.2 14.3-6.2s11 2 14.3 6.1zm-6.2 16.7c0-4.7-.6-8.2-1.9-10.4-1.3-2.2-3.3-3.2-6.1-3.2-2.7 0-4.6 1-5.9 3.1-1.3 2.1-1.9 5.3-2 9.6v13.9c0 4.7.6 8.1 1.9 10.4s3.3 3.4 6.1 3.4 4.8-1.1 6-3.3 1.9-5.5 1.9-10v-13.5zm52.3-16.7c3.3 4.1 5 10 5.1 17.6v10.6c0 7.9-1.6 13.9-4.9 18.1s-8.1 6.3-14.4 6.3c-6.2 0-11-2.1-14.3-6.2-3.3-4.1-5-10-5.1-17.7V309c0-8 1.7-14 5-18.2s8.1-6.2 14.3-6.2 11 2 14.3 6.1zm-6.2 16.7c0-4.7-.6-8.2-1.9-10.4-1.3-2.2-3.3-3.2-6.1-3.2-2.7 0-4.6 1-5.9 3.1-1.3 2.1-1.9 5.3-2 9.6v13.9c0 4.7.6 8.1 1.9 10.4s3.3 3.4 6.1 3.4 4.8-1.1 6-3.3 1.9-5.5 1.9-10v-13.5z" fill="#fff"/></svg>