<svg xmlns="http://www.w3.org/2000/svg" viewBox="0 0 512 512" xml:space="preserve"><path d="M276.5 45.4 273.9 12h-.1l-.3-4c-.3-4.5-3.8-8-8-8h-19.2c-4.2 0-7.7 3.5-8 8l-.3 4h-.1l-2.6 33.4c-1 13.1-1.5 26.2-1.5 39.3V211c0 1.1.9 2 2 2h2v136l2 94v3h4v8.5c0 7.1-.6 14.1-1.7 21l-1.1 6.7c7.9 7.8 13.3 18.2 14.9 29.7 1.6-11.6 7-21.9 14.9-29.7l-1.1-6.7c-1.2-7-1.7-14-1.7-21V446h4v-3l2-94V213h2c1.1 0 2-.9 2-2V84.7c0-13.1-.5-26.2-1.5-39.3z" opacity=".1" fill="#fff"/><path d="M276.5 45.4 273.9 12h-.1l-.3-4c-.3-4.5-3.8-8-8-8h-19.2c-4.2 0-7.7 3.5-8 8l-.3 4h-.1l-2.6 33.4c-1 13.1-1.5 26.2-1.5 39.3V211c0 1.1.9 2 2 2h2v136l2 94v3h4v8.5c0 7.1-.6 14.1-1.7 21l-1.1 6.7c7.9 7.8 13.3 18.2 14.9 29.7 1.6-11.6 7-21.9 14.9-29.7l-1.1-6.7c-1.2-7-1.7-14-1.7-21V446h4v-3l2-94V213h2c1.1 0 2-.9 2-2V84.7c0-13.1-.5-26.2-1.5-39.3zM256 480c-1.7 0-3-1.3-3-3 0-1.3.8-2.4 2-2.8V446h2v28.2c1.2.4 2 1.5 2 2.8 0 1.7-1.3 3-3 3zm8-431.1c0 4.5-.8 9.1-2.8 13.2-1.5 3.2-2.2 6.6-2.2 10.1v53.3c0 1.7.3 3.4.8 5.1l1.3 3.9c1.2 3.6 1.1 7.6-.4 11.2l-2 4.8c-1 2.5-4.5 2.5-5.5 0l-2-4.8c-1.5-3.6-1.6-7.5-.4-11.2l1.3-3.9c.5-1.6.8-3.3.8-5.1V72.2c0-3.5-.8-6.9-2.2-10.1-1.9-4.1-2.8-8.7-2.8-13.2V13h16v35.9z" fill="#fff"/></svg>