<svg xmlns="http://www.w3.org/2000/svg" viewBox="0 0 512 512" xml:space="preserve"><circle cx="256" cy="256" r="256" opacity=".1" fill="#fff"/><path d="M505.3 314.8c4.4-18.8 6.7-38.4 6.7-58.6 0-43.8-11-85-30.4-121.1-.1-.2-.2-.3-.3-.5-.5-.9-1-1.8-1.5-2.8-.2-.3-.3-.6-.5-.9-33-58.7-88.5-103.1-154.8-121.5C302.7 3.4 279.7 0 256 0s-46.7 3.4-68.5 9.5c-65.1 18-119.7 61.1-152.9 118.1-.1.2-.2.3-.3.5-.5.9-1.1 1.8-1.6 2.8-.3.5-.5.9-.8 1.4-.5.8-.9 1.7-1.4 2.5-.1.1-.1.2-.2.3C11 171.1 0 212.4 0 256.2c0 20.1 2.3 39.6 6.7 58.3l.1.1c1.9 8 4.1 15.9 6.7 23.6v.2c.4 1.2.8 2.4 1.3 3.6h.1c7.6 21.4 18 41.4 30.7 59.7l-.1.1c8.1 11.7 17.2 22.8 27.1 33 .1.1.2.1.4.2l3.6 3.6.1.3C121 482.4 181.3 510 248 512.1c1 0 2 .1 2.9.1 1.7 0 3.3.1 5 .1 1.7 0 3.3 0 5-.1 1 0 2 0 3-.1 66.3-2 126.2-29.3 170.6-72.4l.1-.3c1.5-1.5 3-2.9 4.4-4.4.1-.1.3-.2.4-.2 9.9-10.2 19-21.2 27.1-33l-.1-.1c12.7-18.3 23.1-38.4 30.7-59.7h.1c.4-1.2.9-2.4 1.3-3.6v-.2c2.6-7.6 4.8-15.4 6.8-23.4zM346.3 445l-2.6.2-26-60.1 2.5-2.7.2-.2c.9-1 21-25.4 36.2-53.8 14.6-27.2 22.4-47 23.2-49l3.2-7.4c9.8-4 24.8-9.7 37.6-13.4 12.5-3.6 24.4-5.7 31.9-6.9l.6 1.7.2.5c.1.2 8 18 14.9 35.7 3.9 10 7.5 22.4 9.9 31.2l-1.4 1.5-1.1 2.4c-1.1 2.4-7.9 17.7-19.6 42.8-10.1 21.7-24.8 42.4-30.7 50.3l-.3.4-1.8 2.4-.8 2.9-.6 2.4c-6.8 3.2-16.2 7.2-25.6 10.2-17.5 5.3-47.6 8.7-49.9 8.9zM256 377h-47.4l-4.7-5.2c-1.5-1.8-20.4-25.1-34.3-51.1-14.6-27.2-22.4-47.2-22.4-47.4l-2.9-6.7c4.8-9.9 12.9-26.3 22.3-43.1 9.4-16.9 19.3-31.5 25.4-40h128.2c6.1 8.5 16 23.1 25.4 40 9.4 16.8 17.5 33.2 22.3 43.1l-2.8 6.5-.1.3c-.1.2-7.8 20.1-22.4 47.4-13.9 26-32.9 49.3-34.3 51.1l-4.7 5.2H256zm-87.6 68.2-2.6-.2c-2.3-.3-32.4-3.7-49.8-9.2-9.6-3-19.1-7.2-26-10.4l-.5-2.1-.8-3.2-2-2.7c-.8-1-19-25.8-30.8-51.2-12.1-26.1-19-41.8-19.8-43.5l-1.2-2.8-.5-.5c2.4-8.6 5.8-20.5 9.6-30.1 6.8-17.6 14.8-35.5 14.9-35.7l.8-2.1c7.5 1.2 19.3 3.3 31.9 6.9 12.7 3.6 27.7 9.4 37.6 13.4l3.2 7.4c.8 2 8.6 21.8 23.2 49 15.2 28.4 35.4 52.8 36.2 53.8l2.7 3-26.1 60.2zm33-408 5.8-.8c2.9-.4 28.6-3.8 47.6-3.8s44.7 3.4 47.6 3.8l6.3.9 1.1-.8c8.2 7.4 19.9 18.5 26.4 26.9 10.4 13.5 25.7 39.1 26.9 41.1l1.7 3.1-44.6 59.9H191.9l-44.6-59.9 1.7-3.1c1.2-1.9 16.4-27.6 26.9-41.1 6.2-8.1 17.4-18.8 25.5-26.2zm281.1 139.5c8.9 25.5 13.5 52.2 13.5 79.5 0 17-1.8 34-5.3 50.5-2.2-7.4-4.8-15.8-7.7-23.1-6.6-16.9-14.1-33.9-15-36.1l-9.5-25.6-4.7-63.3 4.2-3.3 11.2-9.6c5.1 10 9.6 20.4 13.3 31zm-37.3-68.2c5.8 7.4 11.1 15.1 15.9 23l-13.2 11.3-2.3 1.8-62.2-36.4-6.4-11.5-.1-.2c-.7-1.1-16.6-28.1-28.1-42.8-6.6-8.5-17.4-18.9-25.7-26.6l1.3-.9c22.7 6.7 44.3 16.8 64.2 30 21.5 14.2 40.6 31.9 56.6 52.3zM122.4 56.8c19.7-13.2 41-23.3 63.5-30.2l1.9 1.4c-8.2 7.6-18.4 17.5-24.7 25.6-11.4 14.7-27.4 41.7-28.1 42.8l-6.5 11.9-62.2 36.4-2.3-1.8-13.2-11.3c4.7-7.7 9.8-15.2 15.4-22.4 15.9-20.4 34.8-38 56.2-52.4zM29.3 177.1c3.8-10.8 8.3-21.3 13.5-31.4l10.9 9.3 4.5 3.5-4.7 63.3-9.5 25.6c-1 2.2-8.5 19.2-15 36.1-2.8 7.3-5.5 15.6-7.6 23l-.1-.1C17.8 290 16 273.1 16 256.2c0-27.1 4.5-53.7 13.3-79.1zm89.8 276.3c19.2 4.8 43.8 7.5 45 7.6l15.8 1.1c8.7 5.1 20.1 11.5 30.5 16.4 13.6 6.5 28.6 11.9 37.5 14.9v2.6c-46.6-1.5-91-16.3-128.8-42.6zm144.9 40c8.9-3 23.9-8.4 37.5-14.9 10.5-5 21.8-11.3 30.5-16.4l15.5-1.1h.3c1.2-.1 25.8-2.8 45-7.6-37.8 26.3-82.2 41.1-128.9 42.7v-2.7z" fill="#fff"/></svg>