<svg version="1.1" xmlns="http://www.w3.org/2000/svg" x="0" y="0" viewBox="0 0 512 512" xml:space="preserve"><path d="M475.5 391.3l-46.2-53a238.37 238.37 0 0 1-54-109.5L354 123.1c-2.1-10.5-9.7-19-19.8-22.4l-33.9-11.3-9.5-76.4c-1-7.4-7.4-13-14.9-13h-39.8c-7.5 0-13.9 5.6-14.8 13.1l-9.5 76.4-33.9 11.3c-10.1 3.4-17.7 11.9-19.8 22.4l-21.3 105.6c-8.2 40.6-26.8 78.3-54 109.5l-46.2 53c-4.7 5.4-7.3 12.4-7.3 19.6v51.2c0 8.2 6.7 14.9 14.9 14.9h169.7c3.8 19.9 21.2 35 42.2 35s38.5-15.1 42.2-35H468c8.2 0 14.9-6.7 14.9-14.9v-51.2c0-7.3-2.7-14.2-7.4-19.6zM256 25.2c10.5 0 19.1 8.6 19.1 19.1 0 10.5-8.6 19.1-19.1 19.1s-19.1-8.6-19.1-19.1c0-10.6 8.6-19.1 19.1-19.1z" fill="#fff"/></svg>