<svg xmlns="http://www.w3.org/2000/svg" viewBox="0 0 512 512" xml:space="preserve"><circle cx="256" cy="256" r="256" opacity=".1" fill="#fff"/><path d="M456.9 171.1c-11-26-26.7-49.3-46.7-69.3-20-20-43.3-35.7-69.3-46.7C314 43.8 285.4 38 256 38s-58 5.8-84.9 17.1c-26 11-49.3 26.7-69.3 46.7-20 20-35.7 43.3-46.7 69.3C43.8 198 38 226.6 38 256s5.8 58 17.1 84.9c11 26 26.7 49.3 46.7 69.3s43.3 35.7 69.3 46.7C198 468.2 226.6 474 256 474s58-5.8 84.9-17.1c26-11 49.3-26.7 69.3-46.7 20-20 35.7-43.3 46.7-69.3C468.2 314 474 285.4 474 256s-5.8-58-17.1-84.9zM67 218.6c.9-4.4 5.1-7.2 9.4-6.3 4.4.9 7.2 5.1 6.3 9.4-.9 4.4-5.1 7.2-9.4 6.3-4.4-.8-7.2-5.1-6.3-9.4zM63 256c0-4.4 3.6-8 8-8s8 3.6 8 8-3.6 8-8 8-8-3.6-8-8zm3.7 37.7c-.9-4.4 2-8.6 6.3-9.5s8.6 2 9.5 6.3-2 8.6-6.3 9.5-8.6-2-9.5-6.3zm21.5 40.5c-4.1 1.7-8.8-.2-10.5-4.4-1.7-4.1.2-8.8 4.4-10.5 4.1-1.7 8.8.2 10.5 4.4 1.6 4.1-.3 8.8-4.4 10.5zm4.5-145.6c-1.7 4.1-6.4 6-10.5 4.3-4.1-1.7-6-6.4-4.3-10.5 1.7-4.1 6.4-6 10.5-4.3 4.1 1.7 6 6.4 4.3 10.5zm14 176.8c-3.7 2.5-8.7 1.5-11.2-2.2s-1.5-8.7 2.2-11.2 8.7-1.5 11.2 2.2 1.5 8.8-2.2 11.2zm2.4-207.4c-2.5 3.7-7.5 4.7-11.1 2.2-3.7-2.5-4.7-7.5-2.2-11.1 2.5-3.7 7.5-4.7 11.1-2.2 3.7 2.4 4.7 7.4 2.2 11.1zm10.6-38.1c3.1-3.1 8.2-3.1 11.4 0 3.1 3.1 3.1 8.2 0 11.4-3.1 3.1-8.2 3.1-11.4 0-3.2-3.2-3.2-8.3 0-11.4zM131 392.5c-3.1 3.1-8.2 3.1-11.4 0s-3.1-8.2 0-11.4 8.2-3.1 11.4 0 3.2 8.3 0 11.4zm17.8-297c3.7-2.5 8.7-1.5 11.2 2.2s1.5 8.7-2.2 11.2-8.7 1.5-11.2-2.2-1.5-8.7 2.2-11.2zm11.3 318.8c-2.5 3.7-7.5 4.7-11.1 2.2-3.7-2.5-4.7-7.5-2.2-11.1 2.5-3.7 7.5-4.7 11.1-2.2 3.6 2.4 4.6 7.4 2.2 11.1zM319.3 82.4c1.7-4.1 6.4-6 10.5-4.3 4.1 1.7 6 6.4 4.3 10.5-1.7 4.1-6.4 6-10.5 4.3-4.1-1.7-6-6.4-4.3-10.5zm-35.1-9c.9-4.4 5.1-7.2 9.4-6.3 4.4.9 7.2 5.1 6.3 9.4-.9 4.4-5.1 7.2-9.4 6.3-4.3-.8-7.2-5-6.3-9.4zM256 63c4.4 0 8 3.6 8 8s-3.6 8-8 8-8-3.6-8-8 3.6-8 8-8zm-37.7 3.7c4.4-.9 8.6 2 9.5 6.3s-2 8.6-6.3 9.5-8.6-2-9.5-6.3 2-8.6 6.3-9.5zm-36.2 11c4.1-1.7 8.8.2 10.5 4.4s-.2 8.8-4.4 10.5-8.8-.2-10.5-4.4.3-8.8 4.4-10.5zM192.7 430c-1.7 4.1-6.4 6-10.5 4.3s-6-6.4-4.3-10.5c1.7-4.1 6.4-6 10.5-4.3 4.1 1.7 6 6.4 4.3 10.5zm.5-248v-26.7l86.3-15.7v200l39.3 4.8v28H193.7v-28l39.3-4.8V182h-39.8zm34.7 257c-.9 4.4-5.1 7.2-9.4 6.3-4.4-.9-7.2-5.1-6.3-9.4.9-4.4 5.1-7.2 9.4-6.3 4.3.8 7.1 5 6.3 9.4zm28.1 10c-4.4 0-8-3.6-8-8s3.6-8 8-8 8 3.6 8 8-3.6 8-8 8zm37.7-3.7c-4.4.9-8.6-2-9.5-6.3s2-8.6 6.3-9.5 8.6 2 9.5 6.3c.8 4.4-2 8.6-6.3 9.5zm36.2-11c-4.1 1.7-8.8-.2-10.5-4.4s.2-8.8 4.4-10.5c4.1-1.7 8.8.2 10.5 4.4 1.6 4.1-.3 8.8-4.4 10.5zm115.4-216c.9 4.4-2 8.6-6.3 9.5s-8.6-2-9.5-6.3c-.9-4.4 2-8.6 6.3-9.5s8.6 2 9.5 6.3zm-21.5-40.5c4.1-1.7 8.8.2 10.5 4.4 1.7 4.1-.2 8.8-4.4 10.5-4.1 1.7-8.8-.2-10.5-4.4-1.6-4.1.3-8.8 4.4-10.5zM352 98.1c2.5-3.7 7.5-4.7 11.1-2.2 3.7 2.5 4.7 7.5 2.2 11.1-2.5 3.7-7.5 4.7-11.1 2.2-3.7-2.4-4.7-7.4-2.2-11.1zm11.2 318.4c-3.7 2.5-8.7 1.5-11.2-2.2s-1.5-8.7 2.2-11.2 8.7-1.5 11.2 2.2 1.5 8.7-2.2 11.2zM381 119.9c3.1-3.1 8.2-3.1 11.4 0 3.1 3.1 3.1 8.2 0 11.4-3.1 3.1-8.2 3.1-11.4 0s-3.2-8.3 0-11.4zm11.3 272.6c-3.1 3.1-8.2 3.1-11.4 0-3.1-3.1-3.1-8.2 0-11.4 3.1-3.1 8.2-3.1 11.4 0 3.2 3.2 3.2 8.3 0 11.4zm24-29.2c-2.5 3.7-7.5 4.7-11.1 2.2-3.7-2.5-4.7-7.5-2.2-11.1 2.5-3.7 7.5-4.7 11.1-2.2 3.7 2.4 4.7 7.4 2.2 11.1zm-2-203.4c-3.7 2.5-8.7 1.5-11.2-2.2s-1.5-8.7 2.2-11.2 8.7-1.5 11.2 2.2c2.4 3.8 1.4 8.8-2.2 11.2zM434.1 330c-1.7 4.1-6.4 6-10.5 4.3-4.1-1.7-6-6.4-4.3-10.5 1.7-4.1 6.4-6 10.5-4.3 4.1 1.7 6 6.4 4.3 10.5zm11-36.2c-.9 4.4-5.1 7.2-9.4 6.3s-7.2-5.1-6.3-9.4c.9-4.4 5.1-7.2 9.4-6.3 4.4.8 7.2 5.1 6.3 9.4zM441 264c-4.4 0-8-3.6-8-8s3.6-8 8-8 8 3.6 8 8-3.6 8-8 8zM256 0C114.6 0 0 114.6 0 256s114.6 256 256 256 256-114.6 256-256S397.4 0 256 0zm0 490C126.8 490 22 385.2 22 256S126.8 22 256 22s234 104.8 234 234-104.8 234-234 234z" fill="#fff"/></svg>