<svg version="1.1" xmlns="http://www.w3.org/2000/svg" x="0" y="0" viewBox="0 0 512 512" xml:space="preserve"><path d="M330.6 489.3l-1.1-1.3-5.3-6.5c-.8-1-1.3-2.2-1.3-3.5l-2.4-46.5L304 107l-20-11h8.5V7c0-1.3-2-2.6-5.4-3.7-.3-.1-.6-.2-1-.3-3.3-.9-7.9-1.7-13.1-2.2-4.5-.5-9.6-.7-15-.8h-4c-5.4.1-10.5.3-15 .8-5.3.5-9.8 1.3-13.1 2.2-.3.1-.7.2-1 .3-3.4 1.1-5.4 2.3-5.4 3.7v89h8.5l-20 11-16.5 324.5-2.4 46.5c-.1 1.3-.5 2.5-1.3 3.5l-5.3 6.5-1.1 1.3c-.9 1.1-1.4 2.4-1.4 3.8V512h152v-18.9c0-1.3-.5-2.7-1.4-3.8z" fill="#fff"/></svg>