<svg xmlns="http://www.w3.org/2000/svg" viewBox="0 0 512 512" style="enable-background:new 0 0 512 512" xml:space="preserve"><path d="M370.5 142c15.8 0 28.6 12.4 28.6 27.7 0 15.3-12.8 27.7-28.6 27.7s-28.6-12.4-28.6-27.7c0-15.3 12.8-27.7 28.6-27.7m-233 18.1c5.1 0 10.3.5 15.6 1.4 17.9 3.1 33.6 11.1 40 20.3 2.2 3.1 3 6 2.5 8.6-1.5 8.2-16.4 14.4-34.7 14.4-5.5 0-10.6-.4-15.5-1.4-17.8-3.1-33.5-11.1-40-20.3-2.2-3.1-3.1-6-2.6-8.6 1.4-8.2 16.4-14.4 34.7-14.4m284.4 57.8c15.8 0 28.6 12.4 28.6 27.7s-12.8 27.7-28.6 27.7-28.6-12.4-28.6-27.7 12.8-27.7 28.6-27.7M87.5 285.6c15.8 0 28.6 12.4 28.6 27.7 0 15.3-12.8 27.7-28.6 27.7s-28.6-12.4-28.6-27.7c0-15.3 12.8-27.7 28.6-27.7m279.2 8.3c15.8 0 28.6 12.4 28.6 27.7s-12.8 27.7-28.6 27.7-28.6-12.4-28.6-27.7 12.8-27.7 28.6-27.7M178.4 326c15.8 0 28.6 12.4 28.6 27.7 0 15.3-12.8 27.7-28.6 27.7s-28.6-12.4-28.6-27.7 12.8-27.7 28.6-27.7m95.6 1.8c15.8 0 28.6 12.4 28.6 27.7s-12.8 27.7-28.6 27.7-28.6-12.4-28.6-27.7 12.8-27.7 28.6-27.7M370.5 134c-20.3 0-36.6 16-36.6 35.7 0 19.7 16.4 35.7 36.6 35.7 20.2 0 36.6-16 36.6-35.7 0-19.7-16.4-35.7-36.6-35.7zm-233 18.1c-22.5 0-40.3 8.1-42.6 21-2.8 15.9 19.2 33 49.1 38.2 5.9 1.1 11.6 1.5 17 1.5 22.5 0 40.3-8.1 42.6-21 2.9-15.9-19-33-49.1-38.2-5.8-1-11.5-1.5-17-1.5zm284.4 57.8c-20.2 0-36.6 16-36.6 35.7 0 19.7 16.5 35.7 36.6 35.7 20.2 0 36.6-16 36.6-35.7 0-19.7-16.4-35.7-36.6-35.7zM87.5 277.6c-20.2 0-36.6 16-36.6 35.7 0 19.7 16.5 35.7 36.6 35.7 20.3 0 36.6-16 36.6-35.7 0-19.7-16.4-35.7-36.6-35.7zm279.2 8.3c-20.2 0-36.6 16-36.6 35.7 0 19.7 16.5 35.7 36.6 35.7s36.6-16 36.6-35.7c0-19.7-16.4-35.7-36.6-35.7zM178.4 318c-20.2 0-36.6 16-36.6 35.7 0 19.6 16.4 35.7 36.6 35.7 20.3 0 36.6-16 36.6-35.7 0-19.7-16.4-35.7-36.6-35.7zm95.6 1.8c-20.2 0-36.6 16-36.6 35.7s16.4 35.7 36.6 35.7c20.2 0 36.6-16 36.6-35.7s-16.4-35.7-36.6-35.7zM254.4 71c66.1 0 128.5 18.9 175.6 53.3 23.1 16.9 41.2 36.7 54 58.7 13.3 23.1 20 47.6 20 72.9s-6.7 49.8-20 72.9c-12.8 22.1-30.9 41.8-54 58.8C383.1 422 320.8 441 254.5 441c-51.8 0-99.3-6.4-137.4-18.5-45.2-14.3-78-36.3-97.5-65.2C2.8 332.5 9.1 300.6 9.8 297v-.2c.6-3.5 4.6-21.5 21.6-35.7 6.8-5.8 15.1-9.1 23.1-12.3l.2-.1c12.1-4.7 15.4-7 17.4-9.5l1.6-2.1v-3.2c0-6.6-5.5-14.2-14-25l-.6-.8c-8.7-10.9-18.5-23.3-18.5-36.9 0-10.3 6-21.1 17.8-31.9 9.4-8.6 20.5-15.5 24.7-18.1 1.3-.8 2.5-1.6 3.3-2.1 46.1-31 105.7-48.1 168-48.1m0-8c-63.8 0-125 17.5-172.3 49.4-.6.4-1.7 1.1-3 1.9-5.8 3.6-16.5 10.4-25.9 19-13.5 12.4-20.4 25.1-20.4 37.8 0 16.2 10.7 29.9 20.2 41.9 5.4 6.9 12.9 16.3 12.9 20.8v.5c-1.5 2-9.5 5.2-13.9 6.9-8.3 3.3-17.7 7-25.6 13.7-19 15.8-23.6 36-24.4 40.4-1.1 5.1-7.6 39.1 11 66.4 20.5 30.5 54.7 53.5 101.7 68.4 39 12.4 87.3 18.9 139.8 18.9 67.9 0 131.9-19.5 180.2-55 24-17.6 42.9-38.2 56.2-61.2 14-24.3 21.1-50.2 21.1-76.9 0-26.7-7.1-52.6-21.1-76.9-13.3-23-32.2-43.6-56.2-61.2C386.3 82.5 322.3 63 254.4 63z" style="fill:#fff"/></svg>