<svg version="1.1" xmlns="http://www.w3.org/2000/svg" x="0" y="0" viewBox="0 0 512 512" xml:space="preserve"><path d="M254.4 79C387.7 79 496 158.3 496 256S387.8 433 254.5 433c-95.2 0-188.9-21.6-228.3-80.2-15.9-23.5-8.5-54.4-8.5-54.4s2.8-17.9 18.9-31.3c16-13.5 45.3-12.9 45.3-33.3s-33.1-41.5-33.1-62.7 34.9-40.5 42.2-45.5C134 96.7 191.4 79 254.4 79m116.1 126.4c20.2 0 36.6-16 36.6-35.7S390.7 134 370.5 134c-20.3 0-36.6 16-36.6 35.7s16.4 35.7 36.6 35.7M161 212.8c22.5 0 40.3-8.1 42.6-21 2.9-15.9-19-33-49.1-38.2-5.8-1-11.5-1.5-17-1.5-22.5 0-40.3 8.1-42.6 21-2.8 15.9 19.2 33 49.1 38.2 5.9 1.1 11.6 1.5 17 1.5m260.9 68.5c20.2 0 36.6-16 36.6-35.7s-16.4-35.7-36.6-35.7-36.6 16-36.6 35.7 16.5 35.7 36.6 35.7M87.5 349c20.3 0 36.6-16 36.6-35.7s-16.4-35.7-36.6-35.7-36.6 16-36.6 35.7S67.4 349 87.5 349m279.2 8.3c20.1 0 36.6-16 36.6-35.7s-16.4-35.7-36.6-35.7-36.6 16-36.6 35.7 16.5 35.7 36.6 35.7m-188.3 32.1c20.3 0 36.6-16 36.6-35.7S198.6 318 178.4 318s-36.6 16-36.6 35.7c0 19.6 16.4 35.7 36.6 35.7m95.6 1.8c20.2 0 36.6-16 36.6-35.7s-16.4-35.7-36.6-35.7-36.6 16-36.6 35.7 16.4 35.7 36.6 35.7M254.4 63c-63.8 0-125 17.5-172.3 49.4-.6.4-1.7 1.1-3 1.9-5.8 3.6-16.5 10.4-25.9 19-13.5 12.4-20.4 25.1-20.4 37.8 0 16.2 10.7 29.9 20.2 41.9 5.4 6.9 12.9 16.3 12.9 20.8v.5c-1.5 2-9.5 5.2-13.9 6.9-8.3 3.3-17.7 7-25.6 13.7-19 15.8-23.6 36-24.4 40.4-1.1 5.1-7.6 39.1 11 66.4 20.5 30.5 54.7 53.5 101.7 68.4 39 12.4 87.3 18.9 139.8 18.9 67.9 0 131.9-19.5 180.2-55 24-17.6 42.9-38.2 56.2-61.2 14-24.3 21.1-50.2 21.1-76.9s-7.1-52.6-21.1-76.9c-13.3-23-32.2-43.6-56.2-61.2C386.3 82.5 322.3 63 254.4 63zm116.1 126.4c-11.3 0-20.6-8.9-20.6-19.7 0-10.9 9.2-19.7 20.6-19.7s20.6 8.9 20.6 19.7c-.1 10.8-9.3 19.7-20.6 19.7zm-259.8-13.5c.7-1.7 8.6-7.8 26.9-7.8 4.7 0 9.5.4 14.3 1.2 11.3 2 21.5 5.9 28.7 11.1 6.1 4.4 7.4 7.8 7.4 8.5-.5 1.6-8.5 7.8-26.9 7.8-4.6 0-9.4-.4-14.2-1.2-11.2-2-21.4-5.9-28.6-11.2-6.1-4.2-7.5-7.6-7.6-8.4zm311.2 89.4c-11.3 0-20.6-8.9-20.6-19.7 0-10.9 9.2-19.7 20.6-19.7s20.6 8.9 20.6 19.7-9.2 19.7-20.6 19.7zM87.5 333c-11.3 0-20.6-8.9-20.6-19.7 0-10.9 9.2-19.7 20.6-19.7s20.6 8.9 20.6 19.7c0 10.9-9.2 19.7-20.6 19.7zm279.2 8.3c-11.3 0-20.6-8.9-20.6-19.7s9.2-19.7 20.6-19.7 20.6 8.9 20.6 19.7-9.2 19.7-20.6 19.7zm-188.3 32.1c-11.3 0-20.6-8.9-20.6-19.7 0-10.9 9.2-19.7 20.6-19.7s20.6 8.9 20.6 19.7c-.1 10.8-9.3 19.7-20.6 19.7zm95.6 1.8c-11.3 0-20.6-8.9-20.6-19.7 0-10.9 9.2-19.7 20.6-19.7 11.3 0 20.6 8.9 20.6 19.7 0 10.8-9.3 19.7-20.6 19.7z" fill="#fff"/></svg>