<svg xmlns="http://www.w3.org/2000/svg" viewBox="0 0 512 512" xml:space="preserve"><path d="m447.8 346.5-14.2-76.9-40.9 66.6 23-8.2c-17.2 40.6-51.1 72.4-93.1 86.7-23.4 8-47.6-9.4-47.6-34.1V155h34c4.2 0 7.7-3.3 8-7.5l31.6-2.4c4.2-.3 7.4-3.8 7.4-8v-12.2c0-4.2-3.2-7.7-7.4-8l-31.6-2.4c-.3-4.2-3.7-7.5-8-7.5h-34v-6.6c19.3-7.6 33-26.4 33-48.4 0-28.7-23.3-52-52-52s-52 23.3-52 52c0 22 13.7 40.8 33 48.4v6.6h-34c-4.2 0-7.7 3.3-8 7.5l-27.7 2.4c-4.1.4-7.3 3.8-7.3 8v12.3c0 4.2 3.2 7.6 7.3 8l27.7 2.4c.3 4.2 3.7 7.5 8 7.5h34v225.7c0 24.7-24.3 42-47.6 34.1-42-14.3-75.9-46.1-93.1-86.7l23 8.2-40.9-66.6-14.2 76.9 20.3-17.6C103 396.3 154 450.2 219.6 472.6 235.9 481 248.9 495 256 512c7.1-17 20.1-31 36.4-39.4C358 450.2 409 396.3 427.5 328.9l20.3 17.6zM220 52c0-19.9 16.1-36 36-36s36 16.1 36 36c0 12.9-6.8 24.2-17 30.6V69s-6-7-19-7-19 7-19 7v13.6c-10.2-6.4-17-17.7-17-30.6z" fill="#fff"/></svg>