<svg xmlns="http://www.w3.org/2000/svg" viewBox="0 0 512 512" xml:space="preserve"><path d="M284 0h-56c-2.2 0-4 1.8-4 4v6l6 3 9 4.5V56c-1.1 0-2 .9-2 2s.9 2 2 2v10c-1.1 0-2 .9-2 2s.9 2 2 2v10c-1.1 0-2 .9-2 2s.9 2 2 2v10c-1.1 0-2 .9-2 2s.9 2 2 2v10c-1.1 0-2 .9-2 2s.9 2 2 2v10c-1.1 0-2 .9-2 2s.9 2 2 2v10c-1.1 0-2 .9-2 2s.9 2 2 2v10c-1.1 0-2 .9-2 2s.9 2 2 2v315.6c0 5.5 1.4 11 4.2 15.8L256 512l12.8-22.7c2.7-4.8 4.2-10.2 4.2-15.8V158c1.1 0 2-.9 2-2s-.9-2-2-2v-10c1.1 0 2-.9 2-2s-.9-2-2-2v-10c1.1 0 2-.9 2-2s-.9-2-2-2v-10c1.1 0 2-.9 2-2s-.9-2-2-2v-10c1.1 0 2-.9 2-2s-.9-2-2-2V88c1.1 0 2-.9 2-2s-.9-2-2-2V74c1.1 0 2-.9 2-2s-.9-2-2-2V60c1.1 0 2-.9 2-2s-.9-2-2-2V17.5l9-4.5 6-3V4c0-2.2-1.8-4-4-4z" fill="#fff"/></svg>