<svg version="1.1" xmlns="http://www.w3.org/2000/svg" x="0" y="0" viewBox="0 0 512 512" xml:space="preserve"><path d="M256 406h22.1v18.9c0 4.8-.7 9.6-2 14.3l-12.8 45.2h-.3l-3.6 21.8c.3.6.5 1.2.5 1.9 0 2.2-1.8 4-4 4s-4-1.8-4-4c0-.7.2-1.3.5-1.9l-3.6-21.8h-.3l-12.8-45.2c-1.3-4.7-2-9.4-2-14.3V406H256zM283.7 8c0-4.4-3.6-8-8-8h-39.3c-4.4 0-8 3.6-8 8v50h55.3V8zm0 209.5h1.8v147h-1.8v29.3c0 2.2-1.8 3.9-4 3.9h-47.4c-2.2 0-4-1.7-4-3.9v-29.3h-1.8v-147h1.8V66h55.3v151.5z" opacity=".1" fill="#fff"/><path d="M256 406h22.1v18.9c0 4.8-.7 9.6-2 14.3l-12.8 45.2h-.3l-3.6 21.8c.3.6.5 1.2.5 1.9 0 2.2-1.8 4-4 4s-4-1.8-4-4c0-.7.2-1.3.5-1.9l-3.6-21.8h-.3l-12.8-45.2c-1.3-4.7-2-9.4-2-14.3V406H256zM283.7 8c0-4.4-3.6-8-8-8h-39.3c-4.4 0-8 3.6-8 8v50h55.3V8zm0 209.5h1.8v147h-1.8v29.3c0 2.2-1.8 3.9-4 3.9h-47.4c-2.2 0-4-1.7-4-3.9v-29.3h-1.8v-147h1.8V66h55.3v151.5zm-36 0h16.6v-97.8h-16.6v97.8zm16.6 147h-16.6v25.4h16.6v-25.4z" fill="#fff"/></svg>