<svg version="1.1" xmlns="http://www.w3.org/2000/svg" x="0" y="0" viewBox="0 0 512 512" xml:space="preserve"><path d="M382 0v512H130V0h252z" opacity=".1" fill="#fff"/><path d="M327.5 478.5h-143v-119h143v119zM256 48.4c-14.7 0-28.5 3.5-41.8 7-10.3 2.6-20.1 5.2-29.7 5.9v252.2h143V61.3c-9.6-.7-19.4-3.2-29.7-5.9-13.3-3.4-27.1-7-41.8-7zM382 0v512H130V0h252zM165 266c0-1.7-1.3-3-3-3h-4c-1.7 0-3 1.3-3 3v29c0 1.7 1.3 3 3 3h4c1.7 0 3-1.3 3-3v-29zm172.5 83.5h-163v139h163v-139zm0-298h-5c-9.9 0-20.8-2.8-32.2-5.7-13.2-3.4-28.2-7.3-44.3-7.3-16 0-31 3.9-44.3 7.3-11.5 2.9-22.3 5.7-32.2 5.7h-5v272h163v-272z" fill="#fff"/></svg>