<svg version="1.1" xmlns="http://www.w3.org/2000/svg" x="0" y="0" viewBox="0 0 512 512" xml:space="preserve"><path d="M0 480c0 17.6 14.4 32 32 32h448c17.6 0 32-14.4 32-32V32c0-17.6-14.4-32-32-32H32C14.4 0 0 14.4 0 32" opacity=".1" fill="#fff"/><path d="M480 0H32C14.4 0 0 14.4 0 32v448c0 17.6 14.4 32 32 32h448c17.6 0 32-14.4 32-32V32c0-17.6-14.4-32-32-32zm-25.5 411c0 12.1-9.9 22-22 22h-353c-12.1 0-22-9.9-22-22V101c0-12.1 9.9-22 22-22h353c12.1 0 22 9.9 22 22v310zm-22-316h-353c-3.3 0-6 2.7-6 6v310c0 3.3 2.7 6 6 6h353c3.3 0 6-2.7 6-6V101c0-3.3-2.7-6-6-6zm-78.6 258.9c-26.2 26.2-60.9 40.6-97.9 40.6s-71.8-14.4-97.9-40.6c-26.2-26.2-40.6-60.9-40.6-97.9s14.4-71.8 40.6-97.9c26.2-26.2 60.9-40.6 97.9-40.6s71.8 14.4 97.9 40.6c26.2 26.2 40.6 60.9 40.6 97.9s-14.4 71.8-40.6 97.9zM327.5 256c0 9.1-7.4 16.5-16.5 16.5s-16.5-7.4-16.5-16.5 7.4-16.5 16.5-16.5 16.5 7.4 16.5 16.5zm-110 0c0 9.1-7.4 16.5-16.5 16.5s-16.5-7.4-16.5-16.5 7.4-16.5 16.5-16.5 16.5 7.4 16.5 16.5z" fill="#fff"/></svg>