<svg version="1.1" xmlns="http://www.w3.org/2000/svg" x="0" y="0" viewBox="0 0 512 512" style="enable-background:new 0 0 512 512" xml:space="preserve"><path d="M256 0C114.6 0 0 114.6 0 256s114.6 256 256 256 256-114.6 256-256S397.4 0 256 0z" style="opacity:.1;fill:#fff"/><path d="M256 0C114.6 0 0 114.6 0 256s114.6 256 256 256 256-114.6 256-256S397.4 0 256 0zm-79.3 171.1c-3.4-19 9.4-37.2 28.4-40.5 19-3.4 37.2 9.4 40.5 28.4 3.4 19-9.4 37.2-28.4 40.5-19 3.3-37.1-9.4-40.5-28.4zM256 431c-19.3 0-35-15.7-35-35s15.7-35 35-35 35 15.7 35 35-15.7 35-35 35zm79.3-259.9c-3.4 19-21.5 31.7-40.5 28.4-19-3.4-31.7-21.5-28.4-40.5 3.4-19 21.5-31.7 40.5-28.4s31.7 21.4 28.4 40.5z" style="fill:#fff"/></svg>