<svg version="1.1" xmlns="http://www.w3.org/2000/svg" x="0" y="0" viewBox="0 0 512 512" style="enable-background:new 0 0 512 512" xml:space="preserve"><path d="M437.4 11.6C431.6 2 424.8 0 420 0c-19 0-26.1 14.4-30.8 24-1.8 3.7-3.5 7.2-5.3 9-1.2 1.2-4.1 2.6-8.3 4 .4-8.8.8-17.8 1.1-26.9H135.3c.3 9.1.6 18.1 1.1 26.9-4.1-1.4-7.1-2.8-8.3-4-1.8-1.8-3.5-5.3-5.3-9C118.1 14.4 111 0 92 0c-4.8 0-11.6 2-17.4 11.6-7.9 13.1-12 37.2-10.9 64.4 1.3 31.2 9.2 62.3 22.5 87.6 32.2 61.5 92.2 87 105.2 92 10 11.7 21.5 20.2 34.9 25.2 9.4 19 14.8 40.5 14.8 63.2 0 29.9-9.2 57.7-25 80.6-13 10.7-21.7 26.5-22.9 44.4h-.2v35h-20.5c-2.2 0-4 1.8-4 4s1.8 4 4 4h167c2.2 0 4-1.8 4-4s-1.8-4-4-4H319v-35h-.1c-1.2-17.9-9.8-33.7-22.9-44.4-15.8-22.9-25-50.7-25-80.6 0-22.7 5.3-44.1 14.8-63.2 13.3-5 24.9-13.6 34.9-25.2 13-4.9 73-30.4 105.2-92 13.2-25.3 21.2-56.4 22.5-87.6 1-27.2-3-51.3-11-64.4zM93.2 159.9c-12.7-24.3-20.4-54.2-21.6-84.2-1-25.4 2.7-48.3 9.7-60C84.5 10.6 88.1 8 92 8c13 0 18.1 8.5 23.6 19.5 2.1 4.3 4.1 8.4 6.8 11.1 2.6 2.6 8 4.9 14.4 6.9 4.8 85.7 17.9 155.4 45.1 197.3-22.1-10.5-63.9-35.6-88.7-82.9zM263 344c0 30.6 9.1 60 26.4 85.1l.6.9.9.7c11.7 9.6 19 23.7 20 38.8l.1 1.9V504H201v-32.6l.1-1.9c1-15 8.3-29.2 20-38.8l.9-.7.6-.9C239.9 404 249 374.6 249 344c0-20.8-4.3-41.2-12.5-60.1 6.2 1.4 12.7 2.1 19.5 2.1 6.9 0 13.4-.7 19.5-2.1-8.2 18.9-12.5 39.3-12.5 60.1zm-7-66c-37.7 0-65.1-23.7-83.7-72.4-16.4-42.7-25.8-104.2-28.7-187.6h224.9c-3 83.4-12.4 144.8-28.7 187.6-18.7 48.7-46.1 72.4-83.8 72.4zM440.3 75.7c-1.2 30-8.9 59.9-21.6 84.2-24.7 47.3-66.6 72.4-88.6 82.9 27.2-41.9 40.3-111.6 45.1-197.3 6.3-2 11.8-4.4 14.4-6.9 2.7-2.7 4.7-6.8 6.8-11.1C401.9 16.5 407 8 420 8c3.9 0 7.5 2.6 10.6 7.7 7 11.7 10.8 34.6 9.7 60z" style="fill:#fff"/></svg>