<svg version="1.1" xmlns="http://www.w3.org/2000/svg" x="0" y="0" viewBox="0 0 512 512" xml:space="preserve"><path d="M256 0C114.6 0 0 114.6 0 256s114.6 256 256 256 256-114.6 256-256S397.4 0 256 0zm0 262.5c-3.6 0-6.5-2.9-6.5-6.5s2.9-6.5 6.5-6.5 6.5 2.9 6.5 6.5-2.9 6.5-6.5 6.5z" opacity=".1" fill="#fff"/><path d="M256 91.8c-90.6 0-164.2 73.7-164.2 164.2S165.4 420.2 256 420.2 420.2 346.6 420.2 256 346.6 91.8 256 91.8zm0 322.3c-87.2 0-158.1-70.9-158.1-158.1S168.8 97.9 256 97.9 414.1 168.8 414.1 256 343.2 414.1 256 414.1zm0-308.1c-82.7 0-150 67.3-150 150s67.3 150 150 150 150-67.3 150-150-67.3-150-150-150zm0 293.9c-79.4 0-143.9-64.6-143.9-143.9S176.6 112.1 256 112.1 399.9 176.6 399.9 256 335.4 399.9 256 399.9zm0-301c-86.6 0-157.1 70.5-157.1 157.1S169.4 413.1 256 413.1 413.1 342.6 413.1 256 342.6 98.9 256 98.9zm0 308.1c-83.2 0-151-67.8-151-151s67.7-151 151-151 151 67.8 151 151-67.8 151-151 151zm0-322.3c-94.5 0-171.3 76.9-171.3 171.3S161.5 427.3 256 427.3 427.3 350.5 427.3 256 350.5 84.7 256 84.7zm0 336.5c-91.1 0-165.2-74.1-165.2-165.2S164.9 90.8 256 90.8 421.2 164.9 421.2 256 347.1 421.2 256 421.2zm0-343.6c-98.3 0-178.4 80-178.4 178.4 0 98.3 80 178.4 178.4 178.4s178.4-80 178.4-178.4c0-98.3-80-178.4-178.4-178.4zm0 350.7C161 428.3 83.7 351 83.7 256S161 83.7 256 83.7 428.3 161 428.3 256 351 428.3 256 428.3zm0-357.9C153.6 70.4 70.4 153.7 70.4 256c0 102.4 83.3 185.6 185.6 185.6S441.6 358.3 441.6 256c0-102.4-83.3-185.6-185.6-185.6zm0 365c-98.9 0-179.4-80.5-179.4-179.4S157.1 76.6 256 76.6 435.4 157.1 435.4 256 354.9 435.4 256 435.4zm0-315.2c-74.9 0-135.8 60.9-135.8 135.8S181.1 391.8 256 391.8 391.8 330.9 391.8 256 330.9 120.2 256 120.2zm0 265.5c-71.5 0-129.7-58.2-129.7-129.7S184.5 126.3 256 126.3 385.7 184.5 385.7 256 327.5 385.7 256 385.7zm0-251.3c-67.1 0-121.6 54.6-121.6 121.6S188.9 377.6 256 377.6 377.6 323.1 377.6 256 323.1 134.4 256 134.4zm0 237.1c-63.7 0-115.5-51.8-115.5-115.5S192.3 140.5 256 140.5 371.5 192.3 371.5 256 319.7 371.5 256 371.5zm0-258.4c-78.8 0-142.9 64.1-142.9 142.9S177.2 398.9 256 398.9 398.9 334.8 398.9 256 334.8 113.1 256 113.1zm0 279.7c-75.4 0-136.8-61.4-136.8-136.8S180.6 119.2 256 119.2 392.8 180.6 392.8 256 331.4 392.8 256 392.8zm0-222.8c-47.5 0-86 38.5-86 86s38.5 86 86 86 86-38.5 86-86-38.5-86-86-86zm0 11c23.1 0 43.7 10.4 57.5 26.9l-13.8 11.6c-10.5-12.5-26.1-20.4-43.7-20.4s-33.2 7.9-43.7 20.4l-13.8-11.6c13.8-16.5 34.4-26.9 57.5-26.9zm0 81.5c-3.6 0-6.5-2.9-6.5-6.5s2.9-6.5 6.5-6.5 6.5 2.9 6.5 6.5-2.9 6.5-6.5 6.5zM175.5 244v-3h161v3h-161zM256 141.5c-63.1 0-114.5 51.4-114.5 114.5S192.9 370.5 256 370.5 370.5 319.1 370.5 256 319.1 141.5 256 141.5zm0 205.5c-50.2 0-91-40.8-91-91s40.8-91 91-91 91 40.8 91 91-40.8 91-91 91zm0-219.7c-71 0-128.7 57.7-128.7 128.7S185 384.7 256 384.7 384.7 327 384.7 256 327 127.3 256 127.3zm0 251.3c-67.6 0-122.6-55-122.6-122.6s55-122.6 122.6-122.6 122.6 55 122.6 122.6-55 122.6-122.6 122.6zm0-315.3C149.7 63.3 63.3 149.8 63.3 256c0 106.3 86.5 192.7 192.7 192.7S448.7 362.2 448.7 256c0-106.3-86.5-192.7-192.7-192.7zm0 379.3c-102.9 0-186.6-83.7-186.6-186.6S153.1 69.4 256 69.4 442.6 153.1 442.6 256 358.9 442.6 256 442.6zm0-429C122.3 13.6 13.6 122.3 13.6 256S122.3 498.4 256 498.4 498.4 389.7 498.4 256 389.7 13.6 256 13.6zm167.1 409.5c-44.6 44.6-104 69.2-167.1 69.2s-122.5-24.6-167.1-69.2c-44.6-44.6-69.2-104-69.2-167.1S44.3 133.5 88.9 88.9c44.6-44.6 104-69.2 167.1-69.2s122.5 24.6 167.1 69.2c44.6 44.6 69.2 104 69.2 167.1s-24.6 122.5-69.2 167.1zM256 27.8C130.2 27.8 27.8 130.2 27.8 256S130.2 484.2 256 484.2 484.2 381.8 484.2 256 381.8 27.8 256 27.8zM413 413c-41.9 41.9-97.7 65-157 65s-115.1-23.1-157-65c-42-41.9-65-97.7-65-157S57.1 141 99 99s97.7-65 157-65 115.1 23.1 157 65c42 41.9 65 97.7 65 157s-23.1 115.1-65 157zM256 42C138 42 42 138 42 256s96 214 214 214 214-96 214-214S374 42 256 42zm0 421.9c-114.6 0-207.9-93.3-207.9-207.9S141.4 48.1 256 48.1 463.9 141.4 463.9 256 370.6 463.9 256 463.9zm0-443.2C126.3 20.7 20.7 126.3 20.7 256S126.3 491.3 256 491.3 491.3 385.7 491.3 256 385.7 20.7 256 20.7zm162.1 397.4c-43.3 43.3-100.9 67.1-162.1 67.1-61.3 0-118.8-23.8-162.1-67.1S26.8 317.2 26.8 256 50.6 137.2 93.9 93.9 194.8 26.8 256 26.8s118.8 23.9 162.1 67.1c43.2 43.3 67.1 100.9 67.1 162.1 0 61.3-23.8 118.8-67.1 162.1zM256 34.9C134.1 34.9 34.9 134.1 34.9 256S134.1 477.1 256 477.1 477.1 377.9 477.1 256 377.9 34.9 256 34.9zM408 408c-40.6 40.6-94.6 63-152 63-57.4 0-111.4-22.4-152-63-40.6-40.6-63-94.6-63-152 0-57.4 22.4-111.4 63-152 40.6-40.6 94.6-63 152-63 57.4 0 111.4 22.4 152 63 40.6 40.6 63 94.6 63 152 0 57.4-22.4 111.4-63 152zM256 49.1C141.9 49.1 49.1 141.9 49.1 256S141.9 462.9 256 462.9 462.9 370.1 462.9 256 370.1 49.1 256 49.1zm0 407.7c-110.7 0-200.8-90.1-200.8-200.8S145.3 55.2 256 55.2 456.8 145.3 456.8 256 366.7 456.8 256 456.8zM256 0C114.6 0 0 114.6 0 256s114.6 256 256 256 256-114.6 256-256S397.4 0 256 0zm177.1 433.1c-47.3 47.3-110.2 73.4-177.1 73.4s-129.8-26.1-177.1-73.4C31.6 385.8 5.5 322.9 5.5 256S31.6 126.2 78.9 78.9C126.2 31.6 189.1 5.5 256 5.5s129.8 26.1 177.1 73.4c47.3 47.3 73.4 110.2 73.4 177.1s-26.1 129.8-73.4 177.1zM256 6.5C118.4 6.5 6.5 118.4 6.5 256S118.4 505.5 256 505.5 505.5 393.6 505.5 256 393.6 6.5 256 6.5zm172.1 421.6c-46 46-107.1 71.3-172.1 71.3s-126.1-25.3-172.1-71.3S12.6 321 12.6 256 37.9 129.9 83.9 83.9 191 12.6 256 12.6s126.1 25.3 172.1 71.3S499.4 191 499.4 256s-25.3 126.1-71.3 172.1zM256 56.2C145.8 56.2 56.2 145.9 56.2 256c0 110.2 89.7 199.8 199.8 199.8S455.8 366.1 455.8 256c0-110.2-89.7-199.8-199.8-199.8zm0 393.5c-106.8 0-193.7-86.9-193.7-193.7S149.2 62.3 256 62.3 449.7 149.2 449.7 256 362.8 449.7 256 449.7z" fill="#fff"/></svg>