<svg version="1.1" xmlns="http://www.w3.org/2000/svg" x="0" y="0" viewBox="0 0 512 512" xml:space="preserve"><circle cx="255.5" cy="276.4" r="16.1" opacity=".1" fill="#fff"/><path d="M377.4 433.4c-.8-2-1.6-4.1-2.5-6.2-5.9-14-14.4-28.8-23.7-40.6-5.3-8.4-10.8-16.6-15.7-22.7-16.3-20.4-35.7-36.8-44-47.5-8-10.4-8.9-35.8-12.1-45.4-.1-1.7-.3-3.4-.6-5.1 3.7-19.8 12.7-68.5 22.2-125.4 12.4-74.3 13.4-120.7 13.4-120.7.1-5.7-.7-13.6-1.7-17.4s-3.1-2.4-4.6 3.1L256 199.6 203.9 5.3c-1.5-5.5-3.6-6.9-4.6-3.1s-1.8 11.7-1.7 17.4c0 0 1 46.4 13.4 120.7 9.4 56.6 18.4 105.2 22.2 125.1-.4 1.9-.6 3.9-.7 5.8-3.1 9.6-4 34.9-12.1 45.3-8.3 10.8-27.7 27.1-44 47.5-4.9 6.1-10.4 14.3-15.7 22.7-9.2 11.8-17.7 26.7-23.7 40.6-.9 2.1-1.7 4.2-2.5 6.2-14.7 39.2-5.3 69.9 21.4 77 26.7 7.1 50.1-14.8 57-56 .4-2.1.7-4.3 1-6.6.7-5.4 1.1-11.2 1.3-16.9 2-19.8 6.6-51.6 16.9-66.1 11.3-15.8 18.5-22.9 23.9-29.2 5.3 6.3 12.6 13.5 23.8 29.1 10.3 14.4 15 46.3 16.9 66.1.2 5.8.6 11.5 1.3 16.9.3 2.3.6 4.5 1 6.6 6.9 41.3 30.4 63.2 57 56 26.7-7.1 36-37.9 21.4-77zM203.3 444c-3.5 34.5-21.5 56.3-43 50.6-21.5-5.8-26.1-33.7-11.9-65.3 10.2-22.7 29.6-47.5 41.3-44.4 11.7 3.2 16.1 34.3 13.6 59.1zm52.2-151.5c-8.9 0-16.1-7.2-16.1-16.1s7.2-16.1 16.1-16.1c8.9 0 16.1 7.2 16.1 16.1s-7.2 16.1-16.1 16.1zm96.2 201.8c-21.5 5.8-39.5-16.1-43-50.6-2.5-24.8 1.9-55.9 13.6-59.1 11.7-3.1 31.1 21.6 41.3 44.4 14.2 31.6 9.6 59.5-11.9 65.3z" fill="#fff"/></svg>