<svg xmlns="http://www.w3.org/2000/svg" viewBox="0 0 512 512" xml:space="preserve"><path d="M256 0C114.6 0 0 114.6 0 256s114.6 256 256 256 256-114.6 256-256S397.4 0 256 0zm169.7 425.7c-22 22-47.7 39.4-76.3 51.4-29.6 12.5-61 18.9-93.4 18.9-32.4 0-63.8-6.3-93.4-18.9-28.6-12.1-54.2-29.4-76.3-51.4-22-22-39.4-47.7-51.4-76.3C22.3 319.8 16 288.4 16 256c0-32.4 6.3-63.8 18.9-93.4C47 134 64.3 108.4 86.3 86.3c22-22 47.7-39.4 76.3-51.4C192.2 22.3 223.6 16 256 16c32.4 0 63.8 6.3 93.4 18.9C378 47 403.6 64.3 425.7 86.3c22 22 39.4 47.7 51.4 76.3 12.5 29.6 18.9 61 18.9 93.4 0 32.4-6.3 63.8-18.9 93.4-12.1 28.6-29.4 54.2-51.4 76.3zM256 87c-93.3 0-169 75.7-169 169s75.7 169 169 169 169-75.7 169-169S349.3 87 256 87zm-113.8 55.2C172.7 111.8 213 95 256 95s83.4 16.7 113.8 47.2c14.3 14.3 25.6 30.9 33.5 48.8h-34.4c1.9-4.5 2.2-8.1.6-10.6-1.6-2.4-4.9-3.5-9.5-3.5-2.4 0-5.2.3-8.3.9 3.5-8.6 4-14.9.9-18-1.4-1.4-3.4-2-6-2-3.2 0-7.3 1-12 2.9 1.7-9.2 1-15.4-2.6-17.8-1.1-.7-2.4-1.1-3.9-1.1-3.5 0-8.1 1.9-13.6 5.5-.1-9.3-2.1-15.3-6.1-17-.7-.3-1.5-.5-2.4-.5-3.7 0-8.5 2.9-13.9 8.2-1.9-9.1-5-14.6-9.2-15.5-.4-.1-.8-.1-1.2-.1-4 0-8.5 3.9-13.3 10.8-3.7-8.6-7.8-13.3-12.1-13.3s-8.4 4.8-12.1 13.3c-4.8-7-9.3-10.9-13.3-10.9-.4 0-.8 0-1.2.1-4.2.8-7.3 6.3-9.2 15.5-5.4-5.3-10.1-8.2-13.9-8.2-.9 0-1.7.2-2.4.5-4 1.7-5.9 7.7-6.1 17-5.5-3.6-10.1-5.5-13.6-5.5-1.5 0-2.8.4-3.9 1.1-3.6 2.4-4.3 8.7-2.6 17.8-4.8-1.9-8.8-2.9-12-2.9-2.6 0-4.6.7-6 2-3.1 3.1-2.6 9.4.9 18-3.1-.6-5.9-.9-8.3-.9-4.7 0-7.9 1.1-9.5 3.5-1.6 2.5-1.3 6.1.7 10.7h-35.1c7.8-18 19.1-34.5 33.5-48.8zm151.4 43.5c.3-5.7.5-11.1.6-16.1 6.2-6.2 11.4-10.8 15.7-14.2-.4 5.1-1.2 11.2-2.7 18.6-.1.8-.3 1.6-.5 2.4-4.2 2.8-8.6 5.9-13.1 9.3zm12.3-3.5c-.6 2.9-1.4 5.8-2.1 8.8H294c4.1-3.2 8.1-6.2 11.9-8.8zM292.6 143c6.1-6.5 10.5-9.1 13-9.1.3 0 .6.1.9.2 1.7.7 3.8 5.1 3.5 16.1-4.8 3.6-10.2 8.2-15.9 13.9-.1-8.1-.6-15.2-1.5-21.1zm17.7 35.7c6.7-4.5 12.8-8.1 18.1-10.8-1.4 4.9-3.4 10.7-6.2 17.6-.3.7-.6 1.5-.9 2.2-2.4 1-4.9 2.1-7.5 3.3h-6.3c1.1-4.3 2-8.3 2.8-12.3zm1.1-5.5c1.4-7.9 2.3-15 2.6-21 8.1-5.7 12.2-6.4 13.7-6.4.7 0 1.3.1 1.7.4 1.6 1 2.8 5.8.3 16.5-5.4 2.6-11.6 6.1-18.3 10.5zm13.4 17.7c7.3-3.1 14-5.5 19.9-7.2-1.1 2.2-2.5 4.7-4 7.3h-15.9v-.1zm1.6-5.3c3-7.5 5.3-14.2 6.7-20 5.5-2.5 10-3.8 13.1-3.8 1 0 2.4.1 3.1.9 1.3 1.3 1.6 6.2-2.9 16.2-5.8 1.5-12.6 3.7-20 6.7zm23.4-3.2c3.9-.9 7.4-1.4 10.2-1.4 3.2 0 5.5.6 6.2 1.7.8 1.1.6 3.8-1.7 8.3h-19.2c1.7-3.1 3.3-5.9 4.5-8.6zm-70.7-2.6c-.8-5.6-1.7-10.9-2.6-15.9 4.7-7 8.9-12.7 12.6-17 .6 5 1 11.1 1 18.7v2.4c-3.5 3.6-7.2 7.6-11 11.8zm10.9-6c-.1 4.8-.3 9.9-.7 15.2-.8.7-1.7 1.3-2.6 2h-6.2c-.2-2-.5-4-.7-6 3.5-4 6.9-7.7 10.2-11.2zm-68.1-5.9v-2.4c0-7.5.4-13.6 1-18.7 3.7 4.4 7.9 10 12.6 17-.9 5-1.8 10.3-2.6 15.9-3.8-4.2-7.4-8.2-11-11.8zm10.3 17.1c-.3 1.9-.5 4-.8 6h-6.2c-.8-.7-1.7-1.3-2.5-2-.3-5.3-.6-10.3-.7-15.2 3.3 3.5 6.7 7.2 10.2 11.2zm-8.6-43.4c1.9-10.8 4.8-14.7 6.6-15.1h.4c2 0 6 2.8 11.5 11.4-2 5.7-3.9 12.5-5.6 20.4-4.5-6.6-8.9-12.2-12.9-16.7zm12.1 47.7c.6.6 1.1 1.1 1.5 1.7h-1.7c.1-.6.1-1.1.2-1.7zm.7-5.5c.7-5.2 1.4-10.2 2.3-15 2.6 4.1 5.2 8.4 7.8 13-1 2.9-2 6-3 9.2h-1c-2-2.5-4.1-4.9-6.1-7.2zm3.3-20.8c.2-.8.3-1.6.5-2.4 1.5-7.3 3.1-13.3 4.6-18.1 2.7 4.8 5.6 10.9 8.8 18.6.1.2.1.3.2.5-1.9 4.7-3.8 9.8-5.6 15.1-2.9-4.9-5.7-9.5-8.5-13.7zm6.9-25.5c3.9-10.3 7.5-13.5 9.4-13.5 1.9 0 5.5 3.2 9.4 13.5-3.1 5.2-6.3 11.5-9.4 18.9-3.2-7.4-6.3-13.8-9.4-18.9zm2.8 49.1c.8 1.4 1.6 2.9 2.4 4.4H248c.5-1.5 1-3 1.4-4.4zm1.4-5.3c1.7-5 3.4-9.7 5.2-14.3 1.7 4.5 3.5 9.3 5.2 14.3-1.8 3-3.5 6.1-5.2 9.3-1.7-3.2-3.4-6.3-5.2-9.3zm12.3 5.3c.5 1.5.9 2.9 1.4 4.4h-3.9c.9-1.5 1.7-3 2.5-4.4zm.7-9.9c-1.9-5.4-3.8-10.4-5.6-15.1.1-.2.1-.3.2-.5 3.2-7.7 6.1-13.8 8.8-18.6 1.5 4.8 3.1 10.8 4.6 18.1.2.8.3 1.6.5 2.4-2.8 4.2-5.6 8.8-8.5 13.7zm6.1-38.8c5.4-8.6 9.5-11.4 11.5-11.4h.4c1.8.4 4.8 4.3 6.6 15.1-4 4.5-8.4 10.1-12.9 16.7-1.7-7.9-3.5-14.7-5.6-20.4zm3.5 30.9c.8 4.8 1.6 9.8 2.3 15-2.1 2.2-4.1 4.7-6.2 7.2h-1c-1-3.2-1.9-6.3-2.9-9.2 2.6-4.6 5.2-8.9 7.8-13zm3.3 20.5c.1.6.1 1.1.2 1.7h-1.7c.5-.6 1-1.1 1.5-1.7zm-71.3-13c-.2-.8-.3-1.6-.5-2.4-1.4-7.4-2.2-13.5-2.7-18.6 4.3 3.4 9.5 8 15.7 14.2 0 5.1.2 10.5.6 16.1-4.6-3.3-9-6.4-13.1-9.3zm13.1 14.7h-9.8c-.8-3-1.4-6-2.1-8.8 3.8 2.6 7.8 5.6 11.9 8.8zm-52.9-12.1c-4.5-10.1-4.3-14.9-2.9-16.2.7-.7 2.1-.9 3.1-.9 3.1 0 7.6 1.3 13.1 3.8 1.5 5.8 3.7 12.6 6.7 20-7.5-3-14.2-5.2-20-6.7zm1.6 12.1H148c-2.3-4.6-2.5-7.2-1.7-8.3.7-1.1 3-1.7 6.2-1.7 2.9 0 6.3.5 10.2 1.4 1.3 2.7 2.8 5.6 4.5 8.6zm15.5-44.8c.4-.3.9-.4 1.7-.4 1.5 0 5.6.7 13.7 6.4.3 6 1.2 13.1 2.7 21-6.7-4.4-12.9-7.9-18.3-10.5-2.6-10.7-1.4-15.4.2-16.5zm5 44.7v.1h-15.9c-1.5-2.6-2.9-5.1-4-7.3 5.9 1.7 12.6 4.1 19.9 7.2zm-4-23c5.3 2.7 11.4 6.4 18.1 10.9.8 3.9 1.7 7.9 2.8 12.2h-6.3c-2.6-1.2-5.1-2.3-7.5-3.3-.3-.7-.6-1.5-.9-2.2-2.8-6.9-4.8-12.8-6.2-17.6zm34.2-4c-5.8-5.6-11.1-10.3-15.9-13.9-.3-10.9 1.8-15.2 3.5-16 .3-.1.5-.2.9-.2 2.6 0 7 2.6 13 9-.9 6-1.4 13.1-1.5 21.1zm151.9 205.9C339.3 400.2 299 417 256 417s-83.4-16.7-113.8-47.2c-14.3-14.3-25.6-30.9-33.5-48.8h34.9c-1.9 4.5-2.2 8.1-.6 10.6 1.6 2.4 4.9 3.5 9.5 3.5 2.4 0 5.2-.3 8.3-.9-3.5 8.6-4 14.9-.9 18 1.4 1.4 3.4 2 6 2 3.2 0 7.3-1 12-2.9-1.7 9.2-1 15.4 2.6 17.8 1.1.7 2.4 1.1 3.9 1.1 3.5 0 8.1-1.9 13.6-5.5.1 9.3 2.1 15.3 6.1 17 .7.3 1.5.5 2.4.5 3.7 0 8.5-2.9 13.9-8.2 1.9 9.1 5 14.6 9.2 15.5.4.1.8.1 1.2.1 4 0 8.5-3.9 13.3-10.9 3.7 8.6 7.8 13.3 12.1 13.3s8.4-4.8 12.1-13.3c4.8 7 9.3 10.8 13.3 10.8.4 0 .8 0 1.2-.1 4.2-.8 7.3-6.3 9.2-15.5 5.4 5.3 10.1 8.2 13.9 8.2.9 0 1.7-.2 2.4-.5 4-1.7 5.9-7.7 6.1-17 5.5 3.6 10.1 5.5 13.6 5.5 1.5 0 2.8-.4 3.9-1.1 3.6-2.4 4.3-8.7 2.6-17.8 4.8 1.9 8.8 2.9 12 2.9 2.6 0 4.6-.7 6-2 3.1-3.1 2.6-9.4-.9-18 3.1.6 5.9.9 8.3.9 4.7 0 7.9-1.1 9.5-3.5 1.6-2.4 1.3-6-.6-10.5h34.6c-7.9 18-19.2 34.5-33.6 48.8zm-151.4-43.5c-.3 5.7-.5 11.1-.6 16.1-6.2 6.2-11.4 10.8-15.7 14.2.4-5.1 1.2-11.2 2.7-18.6.1-.8.3-1.6.5-2.4 4.2-2.8 8.6-5.9 13.1-9.3zm-12.3 3.5c.6-2.9 1.4-5.8 2.1-8.8h9.8c-4.1 3.2-8.1 6.2-11.9 8.8zm13.3 39.2c-6.1 6.5-10.5 9.1-13 9.1-.3 0-.6-.1-.9-.2-1.7-.7-3.8-5.1-3.5-16.1 4.8-3.6 10.2-8.2 15.9-13.9.1 8.1.6 15.2 1.5 21.1zm-17.7-35.7c-6.7 4.5-12.8 8.1-18.1 10.8 1.4-4.9 3.4-10.7 6.2-17.6.3-.7.6-1.5.9-2.2 2.4-1 4.9-2.1 7.5-3.3h6.3c-1.1 4.3-2 8.3-2.8 12.3zm-1.1 5.5c-1.4 7.9-2.3 15-2.6 21-8.1 5.7-12.2 6.4-13.7 6.4-.7 0-1.3-.1-1.7-.4-1.6-1-2.8-5.8-.3-16.5 5.4-2.6 11.6-6.1 18.3-10.5zm-12.9-17.7c-7.3 3.1-14 5.5-19.9 7.2 1.1-2.2 2.5-4.7 4-7.3l15.9.1zm-2.1 5.3c-3 7.5-5.3 14.2-6.7 20-5.5 2.5-10 3.8-13.1 3.8-1 0-2.4-.1-3.1-.9-1.3-1.3-1.6-6.2 2.9-16.2 5.8-1.5 12.6-3.7 20-6.7zm-22.9 3.2c-3.9.9-7.4 1.4-10.2 1.4-3.2 0-5.5-.6-6.2-1.7-.8-1.1-.6-3.8 1.7-8.3h19.2c-1.7 3.1-3.3 5.9-4.5 8.6zm70.2 2.6c.8 5.6 1.7 10.9 2.6 15.9-4.7 7-8.9 12.7-12.6 17-.6-5-1-11.1-1-18.7V344c3.5-3.6 7.2-7.6 11-11.8zm-10.9 6c.1-4.8.3-9.9.7-15.2.8-.7 1.7-1.3 2.6-2h6.2c.2 2 .5 4 .7 6-3.5 4-6.9 7.7-10.2 11.2zm68.1 5.9v2.4c0 7.5-.4 13.6-1 18.7-3.7-4.4-7.9-10-12.6-17 .9-5 1.8-10.3 2.6-15.9 3.8 4.2 7.4 8.2 11 11.8zM279.8 327c.3-1.9.5-4 .8-6h6.2c.8.7 1.7 1.3 2.5 2 .3 5.3.6 10.3.7 15.2-3.3-3.5-6.7-7.2-10.2-11.2zm8.6 43.4c-1.9 10.8-4.8 14.7-6.6 15.1h-.4c-2 0-6-2.8-11.5-11.4 2-5.7 3.9-12.5 5.6-20.4 4.5 6.6 8.9 12.2 12.9 16.7zm-12.1-47.7c-.6-.6-1.1-1.1-1.5-1.7h1.7c-.1.6-.1 1.1-.2 1.7zm-.7 5.5c-.7 5.2-1.4 10.2-2.3 15-2.6-4.1-5.2-8.4-7.8-13 1-2.9 2-6 3-9.2h1c2 2.5 4.1 4.9 6.1 7.2zm-3.3 20.8c-.2.8-.3 1.6-.5 2.4-1.5 7.3-3.1 13.3-4.6 18.1-2.7-4.8-5.6-10.9-8.8-18.6-.1-.2-.1-.3-.2-.5 1.9-4.7 3.8-9.8 5.6-15.1 2.9 4.9 5.7 9.5 8.5 13.7zm-6.9 25.5c-3.9 10.3-7.5 13.5-9.4 13.5-1.9 0-5.5-3.2-9.4-13.5 3.1-5.2 6.3-11.5 9.4-18.9 3.2 7.4 6.3 13.8 9.4 18.9zm-2.7-49.1c-.9-1.4-1.7-2.9-2.5-4.4h3.9c-.5 1.5-1 3-1.4 4.4zm-1.5 5.3c-1.7 5-3.4 9.7-5.2 14.3-1.7-4.5-3.5-9.3-5.2-14.3 1.8-3 3.5-6.1 5.2-9.3 1.7 3.2 3.4 6.3 5.2 9.3zm-12.3-5.3c-.5-1.5-.9-2.9-1.4-4.4h3.9c-.9 1.5-1.7 3-2.5 4.4zm-.7 9.9c1.9 5.4 3.8 10.4 5.6 15.1-.1.2-.1.3-.2.5-3.2 7.7-6.1 13.8-8.8 18.6-1.5-4.8-3.1-10.8-4.6-18.1-.2-.8-.3-1.6-.5-2.4 2.8-4.2 5.6-8.8 8.5-13.7zm-6.1 38.8c-5.4 8.6-9.5 11.4-11.5 11.4h-.4c-1.8-.4-4.8-4.3-6.6-15.1 4-4.5 8.4-10.1 12.9-16.7 1.7 7.9 3.5 14.7 5.6 20.4zm-3.5-30.9c-.8-4.8-1.6-9.8-2.3-15 2.1-2.2 4.1-4.7 6.2-7.2h1c1 3.2 1.9 6.3 2.9 9.2-2.6 4.6-5.2 8.9-7.8 13zm-3.3-20.5c-.1-.6-.1-1.1-.2-1.7h1.7c-.5.6-1 1.1-1.5 1.7zm71.3 13c.2.8.3 1.6.5 2.4 1.4 7.4 2.2 13.5 2.7 18.6-4.3-3.4-9.5-8-15.7-14.2 0-5.1-.2-10.5-.6-16.1 4.6 3.3 9 6.4 13.1 9.3zM293.5 321h9.8c.8 3 1.4 6 2.1 8.8-3.8-2.6-7.8-5.6-11.9-8.8zm50.6 7.3c-5.9-1.7-12.6-4.1-19.9-7.2v-.1h15.9c1.5 2.6 2.9 5.1 4 7.3zm2.3 4.8c4.5 10.1 4.3 14.9 2.9 16.2-.7.7-2.1.9-3.1.9-3.1 0-7.6-1.3-13.1-3.8-1.5-5.8-3.7-12.6-6.7-20 7.5 3 14.2 5.2 20 6.7zm-1.6-12.1H364c2.3 4.6 2.5 7.2 1.7 8.3-.7 1.1-3 1.7-6.2 1.7-2.9 0-6.3-.5-10.2-1.4-1.3-2.7-2.8-5.6-4.5-8.6zm-15.5 44.8c-.4.3-.9.4-1.7.4-1.5 0-5.6-.7-13.7-6.4-.3-6-1.2-13.1-2.7-21 6.7 4.4 12.9 7.9 18.3 10.5 2.6 10.7 1.4 15.4-.2 16.5zm-1-21.7c-5.3-2.7-11.4-6.4-18.1-10.9-.8-3.9-1.7-7.9-2.8-12.2h6.3c2.6 1.2 5.1 2.3 7.5 3.3.3.7.6 1.5.9 2.2 2.8 6.9 4.8 12.8 6.2 17.6zm-34.2 4c5.8 5.6 11.1 10.3 15.9 13.9.3 10.9-1.8 15.2-3.5 16-.3.1-.5.2-.9.2-2.6 0-7-2.6-13-9 .9-6 1.4-13.1 1.5-21.1zM105.4 313C98.6 295 95 275.8 95 256s3.5-39 10.3-57h301.3c6.8 18 10.4 37.2 10.4 57s-3.5 39-10.3 57H105.4zM256 32C132.3 32 32 132.3 32 256s100.3 224 224 224 224-100.3 224-224S379.7 32 256 32zm152.8 376.9c-19.8 19.8-42.9 35.4-68.7 46.3-26.6 11.3-54.9 17-84.1 17s-57.5-5.7-84.1-17c-25.7-10.9-48.8-26.5-68.7-46.3-19.8-19.8-35.4-42.9-46.3-68.7-11.3-26.6-17-54.9-17-84.1s5.7-57.5 17-84.1c10.9-25.7 26.5-48.8 46.3-68.7C123 83.5 146.1 67.9 171.9 57c26.6-11.3 54.9-17 84.1-17s57.5 5.7 84.1 17c25.7 10.9 48.8 26.5 68.7 46.3 19.8 19.8 35.4 42.9 46.3 68.7 11.3 26.6 17 54.9 17 84.1s-5.7 57.5-17 84.1c-10.9 25.7-26.5 48.8-46.3 68.7zM188.6 88l-8.8-21.3c3.7-1.5 7.5-2.9 11.3-4.2l7.1 21.9c-3.3 1.1-6.4 2.3-9.6 3.6zm-13 5.9-10.4-20.5a216 216 0 0 1 10.9-5.1l8.8 21.3c-3.2 1.4-6.3 2.8-9.3 4.3zm68.2-18.5L242 52.5c4-.3 8-.5 12-.5v23c-3.4 0-6.8.2-10.2.4zm-28.1 4.1-5.4-22.4c3.9-.9 7.8-1.6 11.8-2.3l3.6 22.7c-3.4.6-6.7 1.2-10 2zM202 83.2l-7.2-21.9c3.8-1.2 7.7-2.3 11.6-3.3l5.4 22.4c-3.3.9-6.6 1.8-9.8 2.8zm27.7-6.3-3.6-22.7c3.9-.6 7.9-1 11.9-1.4l1.8 22.9c-3.4.3-6.7.7-10.1 1.2zM84.5 198.2l-21.8-7.1c1.3-3.8 2.7-7.6 4.2-11.3l21.2 8.8c-1.3 3.2-2.5 6.4-3.6 9.6zm35.2-61.2-17.6-15c2.7-3 5.4-5.9 8.2-8.8l16.3 16.3c-2.3 2.4-4.7 4.9-6.9 7.5zm20.3-19.9-14.9-17.4c3-2.6 6.2-5.1 9.4-7.5l13.5 18.6c-2.7 2-5.4 4.1-8 6.3zm-50.4 67.8-21.3-8.8a216 216 0 0 1 5.1-10.9l20.5 10.4c-1.5 3.1-3 6.2-4.3 9.3zm61.7-76.4-13.5-18.6c3.3-2.3 6.6-4.5 10-6.7l12 19.6c-2.9 1.8-5.7 3.7-8.5 5.7zm11.9-7.8-12-19.6c3.5-2.1 6.9-4 10.5-5.9l10.4 20.5c-3 1.6-6 3.3-8.9 5zm-33.7 26-16.2-16.2c2.8-2.8 5.8-5.6 8.8-8.2l14.9 17.5c-2.6 2.2-5.1 4.5-7.5 6.9zm-33.8 45.4-20.5-10.4c1.9-3.6 3.8-7.1 5.9-10.5l19.6 12c-1.7 2.9-3.4 5.9-5 8.9zm15.1-24.1-18.7-13.5c2.4-3.2 4.9-6.3 7.5-9.4l17.5 14.9c-2.1 2.6-4.3 5.3-6.3 8zm171.5-71.1c-3.3-.5-6.7-.9-10.1-1.2l1.8-22.9c4 .4 8 .8 11.9 1.4l-3.6 22.7zm-179.5 82.9-19.6-12c2.2-3.4 4.4-6.7 6.7-10l18.6 13.5c-2 2.8-3.9 5.6-5.7 8.5zm165.4-84.4c-3.4-.2-6.8-.4-10.2-.4V52c4 .1 8 .2 12 .5l-1.8 22.9zM424 188.6l21.3-8.8c1.5 3.7 2.9 7.5 4.2 11.3l-21.9 7.1c-1.1-3.3-2.3-6.4-3.6-9.6zm-12.7-25.4 19.6-12c2.1 3.5 4 6.9 5.9 10.5l-20.5 10.4c-1.6-3-3.3-6-5-8.9zm6.8 12.4 20.5-10.4a216 216 0 0 1 5.1 10.9l-21.3 8.8c-1.4-3.2-2.8-6.3-4.3-9.3zM394.9 140l17.4-14.9c2.6 3 5.1 6.2 7.5 9.4L401.2 148c-2-2.7-4.1-5.4-6.3-8zm8.6 11.3 18.6-13.5c2.3 3.3 4.6 6.6 6.7 10l-19.6 12c-1.8-2.9-3.7-5.7-5.7-8.5zm33.1 92.5 22.9-1.8c.3 4 .5 8 .5 12h-23c0-3.4-.2-6.8-.4-10.2zM296.3 79.5c-3.3-.8-6.6-1.4-10-2l3.6-22.7c4 .6 7.9 1.4 11.8 2.3l-5.4 22.4zM428.8 202l21.9-7.2c1.2 3.8 2.3 7.7 3.3 11.6l-22.4 5.4c-.9-3.3-1.8-6.6-2.8-9.8zm7.5 37.8c-.3-3.4-.7-6.7-1.2-10.1l22.7-3.6c.6 3.9 1 7.9 1.4 11.9l-22.9 1.8zM327.1 89.6l8.8-21.3a216 216 0 0 1 10.9 5.1l-10.4 20.5c-3.1-1.5-6.2-3-9.3-4.3zm12.8 6.1 10.4-20.5c3.6 1.9 7.1 3.8 10.5 5.9l-12 19.6c-2.9-1.7-5.9-3.4-8.9-5zm-26.1-11.2 7.1-21.8c3.8 1.3 7.6 2.7 11.3 4.2l-8.8 21.2c-3.2-1.3-6.4-2.5-9.6-3.6zm-13.6-4 5.3-22.4c3.9 1 7.8 2.1 11.6 3.3L310 83.3c-3.2-1-6.5-2-9.8-2.8zm52 22.3 12-19.6c3.4 2.2 6.7 4.4 10 6.7l-13.5 18.6c-2.8-2-5.6-3.9-8.5-5.7zm22.8 16.9 15-17.6c3 2.7 5.9 5.4 8.8 8.2l-16.3 16.3c-2.4-2.3-4.9-4.7-7.5-6.9zm-11-8.9 13.5-18.7c3.2 2.4 6.3 4.9 9.4 7.5L372 117.1c-2.6-2.1-5.3-4.3-8-6.3zm21.3 18.7 16.2-16.2c2.8 2.8 5.6 5.8 8.2 8.8L392.2 137c-2.2-2.6-4.5-5.1-6.9-7.5zM268.2 436.6l1.8 22.9c-4 .3-8 .5-12 .5v-23c3.4 0 6.8-.2 10.2-.4zm28.1-4.1 5.4 22.4c-3.9.9-7.8 1.6-11.8 2.3l-3.6-22.7c3.4-.6 6.7-1.2 10-2zm-66.6 2.6c3.3.5 6.7.9 10.1 1.2l-1.8 22.9c-4-.4-8-.8-11.9-1.4l3.6-22.7zm93.7-11.1 8.8 21.3c-3.7 1.5-7.5 2.9-11.3 4.2l-7.1-21.9c3.3-1.1 6.4-2.3 9.6-3.6zm13-5.9 10.4 20.5a216 216 0 0 1-10.9 5.1l-8.8-21.3c3.2-1.4 6.3-2.8 9.3-4.3zm-92.6 18.5c3.4.2 6.8.4 10.2.4v23c-4-.1-8-.2-12-.5l1.8-22.9zm38.5-1.5 3.6 22.7c-3.9.6-7.9 1-11.9 1.4l-1.8-22.9c3.4-.3 6.7-.7 10.1-1.2zm27.7-6.3 7.2 21.9c-3.8 1.2-7.7 2.3-11.6 3.3l-5.4-22.4c3.3-.9 6.6-1.8 9.8-2.8zm126.3-156.6 22.9 1.8c-.4 4-.8 8-1.4 11.9l-22.7-3.6c.5-3.3.9-6.7 1.2-10.1zm20.9-50.1-22.7 3.6c-.6-3.4-1.2-6.7-2-10l22.4-5.4c.9 3.9 1.6 7.8 2.3 11.8zM437 258h23c-.1 4-.2 8-.5 12l-22.9-1.8c.2-3.4.4-6.8.4-10.2zm-88.2 153.3 12 19.6c-3.5 2.1-6.9 4-10.5 5.9l-10.4-20.5c3-1.6 6-3.3 8.9-5zm11.9-7.8 13.5 18.6c-3.3 2.3-6.6 4.6-10 6.7l-12-19.6c2.9-1.8 5.7-3.7 8.5-5.7zm11.3-8.6 14.9 17.4c-3 2.6-6.2 5.1-9.4 7.5L364 401.2c2.7-2 5.4-4.1 8-6.3zm-199.9 21.4-10.4 20.5c-3.6-1.9-7.1-3.8-10.5-5.9l12-19.6c2.9 1.7 5.9 3.4 8.9 5zM54.2 226.1l22.7 3.6c-.5 3.3-.9 6.7-1.2 10.1L52.8 238c.4-4 .8-8 1.4-11.9zM148 401.2l-13.5 18.7c-3.2-2.4-6.3-4.9-9.4-7.5l14.9-17.5c2.6 2.1 5.3 4.3 8 6.3zM79.5 215.7c-.8 3.3-1.4 6.6-2 10l-22.7-3.6c.6-4 1.4-7.9 2.3-11.8l22.4 5.4zM75 254H52c.1-4 .2-8 .5-12l22.9 1.8c-.2 3.4-.4 6.8-.4 10.2zm.7 18.2c.3 3.4.7 6.7 1.2 10.1l-22.7 3.6c-.6-3.9-1-7.9-1.4-11.9l22.9-1.8zm-.3-4L52.5 270c-.3-4-.5-8-.5-12h23c0 3.4.2 6.8.4 10.2zm122.8 159.3-7.1 21.8c-3.8-1.3-7.6-2.7-11.3-4.2l8.8-21.2c3.2 1.3 6.4 2.5 9.6 3.6zm13.6 4-5.3 22.4c-3.9-1-7.8-2.1-11.6-3.3l7.1-21.9c3.2 1 6.5 2 9.8 2.8zm-26.9-9.1-8.8 21.3a216 216 0 0 1-10.9-5.1l10.4-20.5c3.1 1.5 6.2 3 9.3 4.3zm30.8 10.1c3.3.8 6.6 1.4 10 2l-3.6 22.7c-4-.6-7.9-1.4-11.8-2.3l5.4-22.4zm-55.9-23.3-12 19.6c-3.4-2.2-6.7-4.4-10-6.7l13.5-18.6c2.8 2 5.6 3.9 8.5 5.7zM80.5 211.8l-22.4-5.3c1-3.9 2.1-7.8 3.3-11.6l21.9 7.1c-1 3.2-2 6.5-2.8 9.8zM99 351c0 5.5-4.5 10-10 10s-10-4.5-10-10 4.5-10 10-10 10 4.5 10 10zm334 0c0 5.5-4.5 10-10 10s-10-4.5-10-10 4.5-10 10-10 10 4.5 10 10zM220.5 230.5h31v51h-31v-51zm-40 0h31v51h-31v-51zm-40 0h31v51h-31v-51zm200 0h31v51h-31v-51zm-40 0h31v51h-31v-51zm-40 0h31v51h-31v-51z" fill="#fff"/></svg>