<svg version="1.1" xmlns="http://www.w3.org/2000/svg" x="0" y="0" viewBox="0 0 512 512" xml:space="preserve"><path opacity=".1" fill="#fff" d="M0 224h512v64H0z"/><path d="M0 224v64h512v-64H0zm20.5 25h-4v-21h4v21zm19 0h-4v-10.5h4V249zm19 0h-4v-10.5h4V249zm19 0h-4v-10.5h4V249zm19 0h-4v-10.5h4V249zm19 0h-4v-21h4v21zm19 0h-4v-10.5h4V249zm19 0h-4v-10.5h4V249zm19 0h-4v-10.5h4V249zm19 0h-4v-10.5h4V249zm19 0h-4v-21h4v21zm19 0h-4v-10.5h4V249zm19 0h-4v-10.5h4V249zm19 0h-4v-10.5h4V249zm19 0h-4v-10.5h4V249zm19 0h-4v-21h4v21zm19 0h-4v-10.5h4V249zm19 0h-4v-10.5h4V249zm19 0h-4v-10.5h4V249zm19 0h-4v-10.5h4V249zm19 0h-4v-21h4v21zm19 0h-4v-10.5h4V249zm19 0h-4v-10.5h4V249zm19 0h-4v-10.5h4V249zm19 0h-4v-10.5h4V249zm19 0h-4v-21h4v21z" fill="#fff"/></svg>