<svg version="1.1" xmlns="http://www.w3.org/2000/svg" x="0" y="0" viewBox="0 0 512 512" xml:space="preserve"><path d="M275.4 348l-5-5.2c-4.9-5.1-7.8-11.7-8.3-18.6-.1-.7-.1-1.4-.1-2.2h-1V11.4c2.1-1.5 4.7-2.4 7.5-2.4 1.8 0 3.5.4 5.1 1.1 1 .4 1.8-.8 1.1-1.6C270.2 3.3 263.5 0 256 0s-14.2 3.3-18.7 8.5c-.7.8.2 2 1.1 1.6 1.6-.7 3.3-1.1 5.1-1.1 2.8 0 5.4.9 7.5 2.4V322h-1c0 .7 0 1.4-.1 2.2-.5 7-3.4 13.6-8.3 18.6l-5 5.2c-10 11.3-16.6 31-16.6 53.5 0 6.8.6 66.1 1.7 95.1.3 8.6 7.4 15.4 16 15.4h36.6c8.6 0 15.7-6.8 16-15.4 1.1-29 1.7-88.3 1.7-95.1 0-22.5-6.6-42.2-16.6-53.5z" fill="#fff"/></svg>