<svg version="1.1" xmlns="http://www.w3.org/2000/svg" x="0" y="0" viewBox="0 0 512 512" xml:space="preserve"><path d="M448 512H64c-35.3 0-64-28.7-64-64V64C0 28.7 28.7 0 64 0h384c35.3 0 64 28.7 64 64v384c0 35.3-28.7 64-64 64z" opacity=".1" fill="#fff"/><path d="M448 32c17.6 0 32 14.4 32 32v384c0 17.6-14.4 32-32 32H64c-17.6 0-32-14.4-32-32V64c0-17.6 14.4-32 32-32h384m0-32H64C28.7 0 0 28.7 0 64v384c0 35.3 28.7 64 64 64h384c35.3 0 64-28.7 64-64V64c0-35.3-28.7-64-64-64zM256 206c-27.6 0-50 22.4-50 50s22.4 50 50 50 50-22.4 50-50-22.4-50-50-50zM120 70c-27.6 0-50 22.4-50 50s22.4 50 50 50 50-22.4 50-50-22.4-50-50-50zm0 272c-27.6 0-50 22.4-50 50s22.4 50 50 50 50-22.4 50-50-22.4-50-50-50zm272 0c-27.6 0-50 22.4-50 50s22.4 50 50 50 50-22.4 50-50-22.4-50-50-50zm0-272c-27.6 0-50 22.4-50 50s22.4 50 50 50 50-22.4 50-50-22.4-50-50-50z" fill="#fff"/></svg>