<svg version="1.1" xmlns="http://www.w3.org/2000/svg" x="0" y="0" viewBox="0 0 512 512" xml:space="preserve"><circle cx="256" cy="256" r="255.9" opacity=".1" fill="#fff"/><path d="M264 .1c64.1 2 122.3 27.5 166.2 68.3l-.9.9c-48 48-75.2 111.2-77.2 178.7H264V.1zM368.1 264c2.1 65.7 29.9 125 73.5 168.2 41.9-44.1 68.2-103.1 70.2-168.2H368.1zm0-16h143.7c-2-65.1-28.3-124.1-70.2-168.2C398 123 370.2 182.3 368.1 248zm62.1 195.5l-.9-.9c-48-48-75.2-111.2-77.2-178.7H264v247.9c64.1-1.9 122.3-27.5 166.2-68.3zM143.9 248c-2.1-65.7-29.9-125-73.5-168.2C28.4 123.9 2.1 182.9.1 248h143.8zM248 264h-88.1c-2 67.5-29.2 130.7-77.2 178.7l-.9.9c43.9 40.8 102.1 66.3 166.2 68.3V264zM81.8 68.5l.9.9c48 48 75.2 111.2 77.2 178.7H248V.1c-64.1 2-122.3 27.6-166.2 68.4zM.1 264c2 65.1 28.3 124.1 70.2 168.2C114 389 141.8 329.7 143.9 264H.1z" fill="#fff"/></svg>