<svg xmlns="http://www.w3.org/2000/svg" viewBox="0 0 512 512" xml:space="preserve"><path d="M428 212.7c-2.5-5.9-8.3-9.7-14.7-9.7h-9.8v-56C403.2 65.8 337.3 0 256 0S108.8 65.8 108.5 147v56h-9.8c-6.4 0-12.2 3.8-14.7 9.7-18.4 43.8-29 88.2-29 121.8 0 98 90 177.5 201 177.5s201-79.5 201-177.5c0-33.6-10.6-78-29-121.8zm-126.7-.6c-8 17.1-25.3 28.9-45.3 28.9s-37.4-11.8-45.3-28.9c-2.6-5.6-8.3-9.1-14.4-9.1h-32.7v-55.8c.1-24.6 9.7-47.8 27.2-65.2 17.5-17.4 40.6-27 65.3-27 24.7 0 47.8 9.6 65.3 27s27.1 40.6 27.2 65.2V203h-32.7c-6.3 0-12 3.5-14.6 9.1z" opacity=".1" fill="#fff"/><path d="M428 212.7c-2.5-5.9-8.3-9.7-14.7-9.7h-9.8v-56C403.2 65.8 337.3 0 256 0S108.8 65.8 108.5 147v56h-9.8c-6.4 0-12.2 3.8-14.7 9.7-18.4 43.8-29 88.2-29 121.8 0 98 90 177.5 201 177.5s201-79.5 201-177.5c0-33.6-10.6-78-29-121.8zM271 443.2V478c0 4.4-3.6 8-8 8h-14c-4.4 0-8-3.6-8-8v-34.8c-9.8-5.3-16.5-15.7-16.5-27.7 0-17.4 14.1-31.5 31.5-31.5s31.5 14.1 31.5 31.5c0 12-6.7 22.4-16.5 27.7zm30.3-231.1c-8 17.1-25.3 28.9-45.3 28.9s-37.4-11.8-45.3-28.9c-2.6-5.6-8.3-9.1-14.4-9.1h-32.7v-55.8c.1-24.6 9.7-47.8 27.2-65.2 17.5-17.4 40.6-27 65.3-27 24.7 0 47.8 9.6 65.3 27s27.1 40.6 27.2 65.2V203h-32.7c-6.3 0-12 3.5-14.6 9.1zm-30.8 203.4c0 8-6.5 14.5-14.5 14.5s-14.5-6.5-14.5-14.5S248 401 256 401s14.5 6.5 14.5 14.5z" fill="#fff"/></svg>