<svg xmlns="http://www.w3.org/2000/svg" viewBox="0 0 512 512" xml:space="preserve"><path d="M404 67c2.2 0 4-1.8 4-4V47c0-2.2-1.8-4-4-4h-49V0h-18v43H175V0h-18v43h-49c-2.2 0-4 1.8-4 4v16c0 2.2 1.8 4 4 4h49v43h-49c-2.2 0-4 1.8-4 4v16c0 2.2 1.8 4 4 4h49v43h-49c-2.2 0-4 1.8-4 4v16c0 2.2 1.8 4 4 4h49v43h-49c-2.2 0-4 1.8-4 4v16c0 2.2 1.8 4 4 4h49v43h-49c-2.2 0-4 1.8-4 4v16c0 2.2 1.8 4 4 4h49v43h-49c-2.2 0-4 1.8-4 4v16c0 2.2 1.8 4 4 4h49v43h-49c-2.2 0-4 1.8-4 4v16c0 2.2 1.8 4 4 4h49v43h18v-43h162v43h18v-43h49c2.2 0 4-1.8 4-4v-16c0-2.2-1.8-4-4-4h-49v-43h49c2.2 0 4-1.8 4-4v-16c0-2.2-1.8-4-4-4h-49v-43h49c2.2 0 4-1.8 4-4v-16c0-2.2-1.8-4-4-4h-49v-43h49c2.2 0 4-1.8 4-4v-16c0-2.2-1.8-4-4-4h-49v-43h49c2.2 0 4-1.8 4-4v-16c0-2.2-1.8-4-4-4h-49v-43h49c2.2 0 4-1.8 4-4v-16c0-2.2-1.8-4-4-4h-49V67h49zm-67 378H175v-43h162v43zm0-67H175v-43h162v43zm0-67H175v-43h162v43zm0-67H175v-43h162v43zm0-67H175v-43h162v43zm0-67H175V67h162v43z" opacity=".1" fill="#fff"/><path d="M404 67c2.2 0 4-1.8 4-4V47c0-2.2-1.8-4-4-4h-49V0h-18v43H175V0h-18v43h-49c-2.2 0-4 1.8-4 4v16c0 2.2 1.8 4 4 4h49v43h-49c-2.2 0-4 1.8-4 4v16c0 2.2 1.8 4 4 4h49v43h-49c-2.2 0-4 1.8-4 4v16c0 2.2 1.8 4 4 4h49v43h-49c-2.2 0-4 1.8-4 4v16c0 2.2 1.8 4 4 4h49v43h-49c-2.2 0-4 1.8-4 4v16c0 2.2 1.8 4 4 4h49v43h-49c-2.2 0-4 1.8-4 4v16c0 2.2 1.8 4 4 4h49v43h-49c-2.2 0-4 1.8-4 4v16c0 2.2 1.8 4 4 4h49v43h18v-43h162v43h18v-43h49c2.2 0 4-1.8 4-4v-16c0-2.2-1.8-4-4-4h-49v-43h49c2.2 0 4-1.8 4-4v-16c0-2.2-1.8-4-4-4h-49v-43h49c2.2 0 4-1.8 4-4v-16c0-2.2-1.8-4-4-4h-49v-43h49c2.2 0 4-1.8 4-4v-16c0-2.2-1.8-4-4-4h-49v-43h49c2.2 0 4-1.8 4-4v-16c0-2.2-1.8-4-4-4h-49v-43h49c2.2 0 4-1.8 4-4v-16c0-2.2-1.8-4-4-4h-49V67h49zm-43.5-15c1.7 0 3 1.3 3 3s-1.3 3-3 3-3-1.3-3-3 1.3-3 3-3zm-209 6c-1.7 0-3-1.3-3-3s1.3-3 3-3 3 1.3 3 3-1.3 3-3 3zm0 67c-1.7 0-3-1.3-3-3s1.3-3 3-3 3 1.3 3 3-1.3 3-3 3zm0 67c-1.7 0-3-1.3-3-3s1.3-3 3-3 3 1.3 3 3-1.3 3-3 3zm0 67c-1.7 0-3-1.3-3-3s1.3-3 3-3 3 1.3 3 3-1.3 3-3 3zm0 67c-1.7 0-3-1.3-3-3s1.3-3 3-3 3 1.3 3 3-1.3 3-3 3zm0 67c-1.7 0-3-1.3-3-3s1.3-3 3-3 3 1.3 3 3-1.3 3-3 3zm0 67c-1.7 0-3-1.3-3-3s1.3-3 3-3 3 1.3 3 3-1.3 3-3 3zm180-408c1.7 0 3 1.3 3 3s-1.3 3-3 3-3-1.3-3-3 1.3-3 3-3zm-151 0c1.7 0 3 1.3 3 3s-1.3 3-3 3-3-1.3-3-3 1.3-3 3-3zm0 408c-1.7 0-3-1.3-3-3s1.3-3 3-3 3 1.3 3 3-1.3 3-3 3zm151 0c-1.7 0-3-1.3-3-3s1.3-3 3-3 3 1.3 3 3-1.3 3-3 3zm5.5-15H175v-43h162v43zm-159.5-55c0-1.7 1.3-3 3-3s3 1.3 3 3-1.3 3-3 3-3-1.3-3-3zm151 0c0-1.7 1.3-3 3-3s3 1.3 3 3-1.3 3-3 3-3-1.3-3-3zm8.5-12H175v-43h162v43zm-159.5-55c0-1.7 1.3-3 3-3s3 1.3 3 3-1.3 3-3 3-3-1.3-3-3zm151 0c0-1.7 1.3-3 3-3s3 1.3 3 3-1.3 3-3 3-3-1.3-3-3zm8.5-12H175v-43h162v43zm-159.5-55c0-1.7 1.3-3 3-3s3 1.3 3 3-1.3 3-3 3-3-1.3-3-3zm151 0c0-1.7 1.3-3 3-3s3 1.3 3 3-1.3 3-3 3-3-1.3-3-3zm8.5-12H175v-43h162v43zm-159.5-55c0-1.7 1.3-3 3-3s3 1.3 3 3-1.3 3-3 3-3-1.3-3-3zm151 0c0-1.7 1.3-3 3-3s3 1.3 3 3-1.3 3-3 3-3-1.3-3-3zm8.5-12H175v-43h162v43zm-159.5-55c0-1.7 1.3-3 3-3s3 1.3 3 3-1.3 3-3 3-3-1.3-3-3zm151 0c0-1.7 1.3-3 3-3s3 1.3 3 3-1.3 3-3 3-3-1.3-3-3zm8.5-12H175V67h162v43zm23.5 344c1.7 0 3 1.3 3 3s-1.3 3-3 3-3-1.3-3-3 1.3-3 3-3zm0-67c1.7 0 3 1.3 3 3s-1.3 3-3 3-3-1.3-3-3 1.3-3 3-3zm0-67c1.7 0 3 1.3 3 3s-1.3 3-3 3-3-1.3-3-3 1.3-3 3-3zm0-67c1.7 0 3 1.3 3 3s-1.3 3-3 3-3-1.3-3-3 1.3-3 3-3zm0-67c1.7 0 3 1.3 3 3s-1.3 3-3 3-3-1.3-3-3 1.3-3 3-3zm0-67c1.7 0 3 1.3 3 3s-1.3 3-3 3-3-1.3-3-3 1.3-3 3-3z" fill="#fff"/></svg>