<svg version="1.1" xmlns="http://www.w3.org/2000/svg" x="0" y="0" viewBox="0 0 512 512" xml:space="preserve"><path d="M510.2 457.3H486v-87.2h24.2v87.2zm-86.6-42.8v20h41.2v-20h-41.2zm43.1-5.5h15.1V296.5h-15.1V409zm-278.1-57.4h21.1v-67.3h-21.1v67.3zM372.4 60.2H247.9c-1.7 0-3 1.3-3 3v14.1c0 1.7 1.3 3 3 3h124.5c1.7 0 3-1.3 3-3V63.2c0-1.7-1.3-3-3-3zm28.7 17.1V63.2c0-1.7-1.3-3-3-3h-4c-1.7 0-3 1.3-3 3v14.1c0 1.7 1.3 3 3 3h4c1.7 0 3-1.3 3-3zm-175.1 0V63.2c0-1.7-1.3-3-3-3h-54.2c-1.7 0-3 1.3-3 3v14.1c0 1.7 1.3 3 3 3H223c1.7 0 3-1.3 3-3zM415.1 258c0-1.7-1.3-3-3-3H396c-1.7 0-3 1.3-3 3v54.2c0 1.7 1.3 3 3 3h16.1c1.7 0 3-1.3 3-3V258zm-3 88H396c-1.7 0-3 1.3-3 3v66.2c0 1.7 1.3 3 3 3h16.1c1.7 0 3-1.3 3-3V349c0-1.7-1.3-3-3-3zm42.7 50.6c1.7 0 3-1.3 3-3V216.9c0-1.7-1.3-3-3-3h-21.1c-1.7 0-3 1.3-3 3v176.7c0 1.7 1.3 3 3 3h21.1zm35.1-151c-1.7 0-3 1.3-3 3v62.2c0 1.7 1.3 3 3 3H506c1.7 0 3-1.3 3-3v-62.2c0-1.7-1.3-3-3-3h-16.1zM266 231.1c0-1.7-1.3-3-3-3h-36.1c-1.7 0-3 1.3-3 3v69.3c0 1.7 1.3 3 3 3H263c1.7 0 3-1.3 3-3v-69.3zm-3 92.2h-36.1c-1.7 0-3 1.3-3 3v86.3c0 1.7 1.3 3 3 3H263c1.7 0 3-1.3 3-3v-86.3c0-1.7-1.3-3-3-3zm52.2 9.4c0-1.7-1.3-3-3-3h-23.1c-1.7 0-3 1.3-3 3v26.1c0 1.7 1.3 3 3 3h23.1c1.7 0 3-1.3 3-3v-26.1zm0-93.2c0-1.7-1.3-3-3-3h-23.1c-1.7 0-3 1.3-3 3v68.3c0 1.7 1.3 3 3 3h23.1c1.7 0 3-1.3 3-3v-68.3zm-3 141.9h-23.1c-1.7 0-3 1.3-3 3v60.2c0 1.7 1.3 3 3 3h23.1c1.7 0 3-1.3 3-3v-60.2c0-1.7-1.3-3-3-3zm60.3-161.1c0-1.7-1.3-3-3-3h-31.1c-1.7 0-3 1.3-3 3v102.4c0 1.7 1.3 3 3 3h31.1c1.7 0 3-1.3 3-3V220.3zm-3 123.2h-31.1c-1.7 0-3 1.3-3 3v96.4c0 1.7 1.3 3 3 3h31.1c1.7 0 3-1.3 3-3v-96.4c0-1.7-1.3-3-3-3zM204 163.1c0-8.4-6.7-15.1-15.1-15.1-8.4 0-15.1 6.7-15.1 15.1s6.8 15.1 15.1 15.1c8.4 0 15.1-6.7 15.1-15.1zm75.5 10.1c1.7 0 3-1.3 3-3v-14.1c0-1.7-1.3-3-3-3h-44.2c-1.7 0-3 1.3-3 3v14.1c0 1.7 1.3 3 3 3h44.2zm117.6 5c1.7 0 3-1.3 3-3v-24.1c0-1.7-1.3-3-3-3h-2c-1.7 0-3 1.3-3 3v24.1c0 1.7 1.3 3 3 3h2zm-21-5c1.7 0 3-1.3 3-3v-14.1c0-1.7-1.3-3-3-3h-50.2c-1.7 0-3 1.3-3 3v14.1c0 1.7 1.3 3 3 3h50.2zm-74.7 5c1.7 0 3-1.3 3-3v-24.1c0-1.7-1.3-3-3-3h-2c-1.7 0-3 1.3-3 3v24.1c0 1.7 1.3 3 3 3h2zm32.5-48.2c0 4.4 3.5 7.9 7.9 7.9 4.5 0 8-3.5 7.9-7.9 0-4.4-3.5-7.9-7.9-7.9s-7.9 3.5-7.9 7.9zm-17.5 4.5c1.7 0 3-1.3 3-3h.1v-3c0-1.7-1.3-3-3-3H166.9c-1.7 0-3 1.3-3 3v3c0 1.7 1.3 3 3 3h149.5zM123 442.8v8h52.2v-8H123zm34.1-13c1.7 0 3-1.3 3-3v-21.1c0-1.7-1.3-3-3-3H141c-1.7 0-3 1.3-3 3v21.1c0 1.7 1.3 3 3 3h16.1zm-26.5-69.4h37.1c1.7 0 3-1.3 3-3V222c0-1.7-1.3-3-3-3h-15.5c-1.7 0-3 1.3-3 3v22.9c0 .6-.4 1-1 1h-17.7c-1.7 0-3 1.3-3 3h.1v108.5c0 1.7 1.3 3 3 3zm44.6 24.8c0-1.7-1.3-3-3-3H126c-1.7 0-3 1.3-3 3v2c0 1.7 1.3 3 3 3h46.2c1.7 0 3-1.3 3-3v-2zm-72.9-151.8h-8.7c-1.7 0-3 1.3-3 3v85.1c0 .6-.4 1-1 1h-4c-1.7 0-3 1.3-3 3v90.3c0 1.7 1.3 3 3 3h16.8c1.7 0 3-1.3 3-3h-.1V236.4c0-1.7-1.3-3-3-3zm1.1 206.4c0-5.5-4.5-10-10-10s-10 4.5-10 10 4.5 10 10 10 10-4.5 10-10zM59.3 297.5H16.1c-1.7 0-3 1.3-3 3V427c0 1.7 1.3 3 3 3h43.1c1.7 0 3-1.3 3-3h.1V300.5c0-1.7-1.3-3-3-3zm0-26.3H16.1c-1.7 0-3 1.3-3 3v6c0 1.7 1.3 3 3 3h43.1c1.7 0 3-1.3 3-3h.1v-6c0-1.7-1.3-3-3-3z" opacity=".1" fill="#fff"/><path d="M177.7 186.7h-57.2c-5 0-9 4-9 9v260c0 5 4 9 9 9h57.2c5 0 9-4 9-9v-260c0-5-4-9-9-9zm-50.2 62.2c0-1.7 1.3-3 3-3h17.7c.6 0 1-.4 1-1V222c0-1.7 1.3-3 3-3h15.5c1.7 0 3 1.3 3 3v135.4c0 1.7-1.3 3-3 3h-37.1c-1.7 0-3-1.3-3-3V248.9h-.1zm47.7 194.9v7H123v-8h52.2v1zm-37.2-17v-21.1c0-1.7 1.3-3 3-3h16.1c1.7 0 3 1.3 3 3v21.1c0 1.7-1.3 3-3 3H141c-1.7 0-3-1.3-3-3zm37.2-39.6c0 1.7-1.3 3-3 3H126c-1.7 0-3-1.3-3-3v-2c0-1.7 1.3-3 3-3h46.2c1.7 0 3 1.3 3 3v2zm-74.8-171.4H86.3c-5 0-9 4-9 9v230.9c0 5 4 9 9 9h14.1c5 0 9-4 9-9V224.9c0-5-4-9.1-9-9.1zm-7 234c-5.5 0-10-4.5-10-10s4.5-10 10-10 10 4.5 10 10-4.5 10-10 10zm12-34c0 1.7-1.3 3-3 3H85.6c-1.7 0-3-1.3-3-3v-90.3c0-1.7 1.3-3 3-3h4c.6 0 1-.4 1-1v-85.1c0-1.7 1.3-3 3-3h8.7c1.7 0 3 1.3 3 3l.1 179.4zM390.5 95.4H170.7c-5 0-9 4-9 9v5c0 5 4 9 9 9h219.9c5 0 9-4 9-9v-5c0-5-4.1-9-9.1-9zM209.8 224.9v59.4h-21.1v-59.4c0-5 4-9 9-9h3c5.1-.1 9.1 4 9.1 9zm-21.1 230.9c0 5 4 9 9 9h3c5 0 9-4 9-9V351.6h-21.1v104.2h.1zM66.3 153.6H9c-5 0-9 4-9 9v293.1c0 5 4 9 9 9h57.2c5 0 9-4 9-9V162.6c.1-5-3.9-9-8.9-9zM62.2 427c0 1.7-1.3 3-3 3H16.1c-1.7 0-3-1.3-3-3V300.5c0-1.7 1.3-3 3-3h43.2c1.7 0 3 1.3 3 3V427h-.1zm0-146.8c0 1.7-1.3 3-3 3H16.1c-1.7 0-3-1.3-3-3v-6c0-1.7 1.3-3 3-3h43.2c1.7 0 3 1.3 3 3v6h-.1zm419.7-40.3v56.6h-15.1v-56.6c0-5 3.4-9 7.5-9s7.6 4 7.6 9zm-15.1 215.9c0 5 3.4 9 7.5 9s7.5-4 7.5-9V409h-15.1v46.8h.1zM402.6 47.2h-239c-5 0-9 4-9 9v28.1c0 5 4 9 9 9h238.9c5 0 9-4 9-9V56.2c.1-5-3.9-9-8.9-9zM226 77.3c0 1.7-1.3 3-3 3h-54.2c-1.7 0-3-1.3-3-3V63.2c0-1.7 1.3-3 3-3H223c1.7 0 3 1.3 3 3v14.1zm149.4 0c0 1.7-1.3 3-3 3H247.9c-1.7 0-3-1.3-3-3V63.2c0-1.7 1.3-3 3-3h124.5c1.7 0 3 1.3 3 3v14.1zm25.7 0c0 1.7-1.3 3-3 3h-4c-1.7 0-3-1.3-3-3V63.2c0-1.7 1.3-3 3-3h4c1.7 0 3 1.3 3 3v14.1zm11.5 133.5h-17.1c-5 0-9 4-9 9v235.9c0 5 4 9 9 9h17.1c5 0 9-4 9-9V219.9c0-5.1-4-9.1-9-9.1zm2.5 204.4c0 1.7-1.3 3-3 3H396c-1.7 0-3-1.3-3-3V349c0-1.7 1.3-3 3-3h16.1c1.7 0 3 1.3 3 3v66.2zm0-103c0 1.7-1.3 3-3 3H396c-1.7 0-3-1.3-3-3V258c0-1.7 1.3-3 3-3h16.1c1.7 0 3 1.3 3 3v54.2zm8.6 122.3h41.2v21.3c0 5-4 9-9 9h-23.1c-5 0-9-4-9-9v-21.3h-.1zm41.1-238.7v218.7h-41.2V195.8c0-5 4-9 9-9h23.1c5.1-.1 9.1 3.9 9.1 9zm-7 21.1c0-1.7-1.3-3-3-3h-21.1c-1.7 0-3 1.3-3 3v176.7c0 1.7 1.3 3 3 3h21.1c1.7 0 3-1.3 3-3V216.9zm45.2 18h-10c-5 0-9 4-9 9v211.8c0 5 4 9 9 9h10c5 0 9-4 9-9V244c0-5.1-4-9.1-9-9.1zm6 218.5c0 1.7-1.3 3-3 3h-16.1c-1.7 0-3-1.3-3-3v-78.3c0-1.7 1.3-3 3-3H506c1.7 0 3 1.3 3 3v78.3zm0-142.6c0 1.7-1.3 3-3 3h-16.1c-1.7 0-3-1.3-3-3v-62.2c0-1.7 1.3-3 3-3H506c1.7 0 3 1.3 3 3v62.2zm-239.9-106h-48.2c-5 0-9 4-9 9v241.9c0 5 4 9 9 9h48.2c5 0 9-4 9-9V213.8c0-5-4-9-9-9zM266 412.6c0 1.7-1.3 3-3 3h-36.1c-1.7 0-3-1.3-3-3v-86.3c0-1.7 1.3-3 3-3H263c1.7 0 3 1.3 3 3v86.3zm0-112.2c0 1.7-1.3 3-3 3h-36.1c-1.7 0-3-1.3-3-3v-69.3c0-1.7 1.3-3 3-3H263c1.7 0 3 1.3 3 3v69.3zm46.2-81.5h-23.1c-5 0-9 4-9 9v227.9c0 5 4 9 9 9h23.1c5 0 9-4 9-9V227.9c.1-5-4-9-9-9zm3 225.7c0 1.7-1.3 3-3 3h-23.1c-1.7 0-3-1.3-3-3v-60.2c0-1.7 1.3-3 3-3h23.1c1.7 0 3 1.3 3 3v60.2zm0-85.8c0 1.7-1.3 3-3 3h-23.1c-1.7 0-3-1.3-3-3v-26.1c0-1.7 1.3-3 3-3h23.1c1.7 0 3 1.3 3 3v26.1zm0-51c0 1.7-1.3 3-3 3h-23.1c-1.7 0-3-1.3-3-3v-68.3c0-1.7 1.3-3 3-3h23.1c1.7 0 3 1.3 3 3v68.3zm60.3-112h-43.2c-5 0-9 4-9 9v251c0 5 4 9 9 9h43.2c5 0 9-4 9-9v-251c0-5-4-9-9-9zm-3 247.1c0 1.7-1.3 3-3 3h-31.1c-1.7 0-3-1.3-3-3v-96.4c0-1.7 1.3-3 3-3h31.1c1.7 0 3 1.3 3 3v96.4zm0-120.2c0 1.7-1.3 3-3 3h-31.1c-1.7 0-3-1.3-3-3V220.3c0-1.7 1.3-3 3-3h31.1c1.7 0 3 1.3 3 3v102.4zm59.4-181.1H160.8c-5 0-9 4-9 9v25.1c0 5 4 9 9 9h271.1c5 0 9-4 9-9v-25.1c0-5-4-9-9-9zm-243 36.6c-8.3 0-15.1-6.7-15.1-15.1s6.7-15.1 15.1-15.1 15.1 6.7 15.1 15.1-6.7 15.1-15.1 15.1zm93.6-8c0 1.7-1.3 3-3 3h-44.2c-1.7 0-3-1.3-3-3v-14.1c0-1.7 1.3-3 3-3h44.2c1.7 0 3 1.3 3 3v14.1zm21.9 5c0 1.7-1.3 3-3 3h-2c-1.7 0-3-1.3-3-3v-24.1c0-1.7 1.3-3 3-3h2c1.7 0 3 1.3 3 3v24.1zm74.7-5c0 1.7-1.3 3-3 3h-50.2c-1.7 0-3-1.3-3-3v-14.1c0-1.7 1.3-3 3-3h50.2c1.7 0 3 1.3 3 3v14.1zm21 5c0 1.7-1.3 3-3 3h-2c-1.7 0-3-1.3-3-3v-24.1c0-1.7 1.3-3 3-3h2c1.7 0 3 1.3 3 3v24.1zm45.6-54.7H153.6c-5 0-9 4-9 9v1c0 5 4 9 9 9h292.1c5 0 9-4 9-9v-1c.1-5-3.9-9-9-9zm-126.3 11c0 1.7-1.3 3-3 3H166.9c-1.7 0-3-1.3-3-3v-3c0-1.7 1.3-3 3-3h149.6c1.7 0 3 1.3 3 3v3h-.1zm22.4 6.4c-4.4 0-7.9-3.5-7.9-7.9s3.5-7.9 7.9-7.9 7.9 3.5 7.9 7.9c.1 4.4-3.4 7.9-7.9 7.9z" fill="#fff"/></svg>