<svg version="1.1" xmlns="http://www.w3.org/2000/svg" x="0" y="0" viewBox="0 0 512 512" xml:space="preserve"><path d="M198.7 115l-46 13.8 12.9-41.5 46-13.8-12.9 41.5zM65.5 129.6c-3 0-5.5 2.5-5.5 5.5s2.5 5.5 5.5 5.5 5.5-2.5 5.5-5.5-2.5-5.5-5.5-5.5zm353-118.2l-46 13.8-12.9 41.5 46-13.8 12.9-41.5zM280.6 52.8l-46 13.8-12.9 41.5 46-13.8 12.9-41.5zM65.5 185.5c-3 0-5.5 2.5-5.5 5.5s2.5 5.5 5.5 5.5S71 194 71 191s-2.5-5.5-5.5-5.5zm284-153.4l-46 13.8-12.9 41.5 46-13.8 12.9-41.5zm-47.3 140.8h-48l-24.3 36h48l24.3-36zm144 0h-48l-24.3 36h48l24.3-36zm-288.3 36h48l24.3-36h-48l-24.3 36zm216.3-36h-48l-24.3 36h48l24.3-36zm-246.7 23.6c3 0 5.5-2.5 5.5-5.5s-2.5-5.5-5.5-5.5-5.5 2.5-5.5 5.5 2.5 5.5 5.5 5.5zm238 17.4H76V482c0 2.7 2.2 5 5 5h350c2.7 0 5-2.2 5-5V213.9h-70.5z" opacity=".1" fill="#fff"/><path d="M469.5 168c-.3-.1-.7-.1-1-.1H132.6l-19-22.1 6.2-1.9 26.3-7.9 55.5-16.7 13.4-4 55.5-16.7 13.4-4 55.5-16.7 13.4-4 55.5-16.7 33.5-10.1 9.6-2.9c1.3-.4 2.4-1.3 3-2.4.6-1.1.8-2.5.4-3.8L444.7 3.6c-.7-2.3-3-3.7-5.2-3.5-.3 0-.7.1-1 .2l-9.6 2.9-3.9 1L162.6 83l-56 16.8-75.2 22.6c-.6.2-1.2.5-1.7.9-.2.2-.5.4-.7.7-1 1.2-1.4 2.9-.9 4.6l10.4 34.5c.8 2.6 3.5 4.2 6.2 3.4l4.5-1.3v2.8h-5.6c-.7 0-1.3.1-1.9.4-.3.1-.6.3-.8.5-1.3.9-2.2 2.4-2.2 4.2v36c0 2.7 2.2 5 5 5H45V507c0 2.7 2.2 5 5 5h412c2.7 0 5-2.2 5-5V213.9h1.5c1.4 0 2.6-.6 3.5-1.5s1.5-2.2 1.5-3.5v-36c0-2.5-1.8-4.4-4-4.9zm-97-142.8l46-13.8-12.9 41.5-46 13.8 12.9-41.5zm-69 20.7l46-13.8-12.9 41.5-46 13.8 12.9-41.5zm-68.9 20.7l46-13.8-12.9 41.5-46 13.8 12.9-41.5zm-69 20.7l46-13.8-12.9 41.5-46 13.8 12.9-41.5zM65.5 129.6c3 0 5.5 2.5 5.5 5.5s-2.5 5.5-5.5 5.5-5.5-2.5-5.5-5.5 2.5-5.5 5.5-5.5zm380.7 43.3l-24.3 36h-48l24.3-36h48zm-72 0l-24.3 36h-48l24.3-36h48zm-72 0l-24.3 36h-48l24.3-36h48zm-120 0h48l-24.3 36h-48l24.3-36zM60 191c0-3 2.5-5.5 5.5-5.5S71 188 71 191s-2.5 5.5-5.5 5.5S60 194 60 191zm62 0c0-3 2.5-5.5 5.5-5.5s5.5 2.5 5.5 5.5-2.5 5.5-5.5 5.5-5.5-2.5-5.5-5.5zm314 291c0 2.8-2.3 5-5 5H81c-2.8 0-5-2.3-5-5V213.9h360V482z" fill="#fff"/></svg>