<svg version="1.1" xmlns="http://www.w3.org/2000/svg" x="0" y="0" viewBox="0 0 512 512" xml:space="preserve"><path d="M496 0H16C7.2 0 0 7.2 0 16v480c0 8.8 7.2 16 16 16h480c8.8 0 16-7.2 16-16V16c0-8.8-7.2-16-16-16z" opacity=".1" fill="#fff"/><path d="M496 0H16C7.2 0 0 7.2 0 16v480c0 8.8 7.2 16 16 16h480c8.8 0 16-7.2 16-16V16c0-8.8-7.2-16-16-16zM179 29c0-4.4 3.6-8 8-8h138c4.4 0 8 3.6 8 8v53c0 4.4-3.6 8-8 8H187c-4.4 0-8-3.6-8-8V29zm89 45.6-7 9V59.2l2.3-2.3 4.7 4.7v13zm-4.7-20.5-2.3-2.3V27.4l7 9v13l-4.7 4.7zm6-19.3-7-9h23.4l-7 9h-9.4zm4.7 25.4h-4.6l-4.7-4.7 4.7-4.7h9.2l4.7 4.7-4.7 4.7H274zm4.7 16 7 9h-23.4l7-9h9.4zm6-19.3 2.3 2.3v24.4l-7-9v-13l4.7-4.7zM280 36.4l7-9v24.4l-2.3 2.3-4.7-4.7v-13zm-46.7-1.6-7-9h23.4l-7 9h-9.4zm15.4 22.1 2.3 2.3v24.4l-7-9v-13l4.7-4.7zM244 36.4l7-9v24.4l-2.3 2.3-4.7-4.7v-13zm55.3 17.7-2.3-2.3V27.4l7 9v13l-4.7 4.7zm6-19.3-7-9h23.4l-7 9h-9.4zm.1 25.4-4.7-4.7 4.7-4.7h9.2l4.7 4.7-4.7 4.7h-9.2zm9.3 16 7 9h-23.4l7-9h9.4zm6-19.3 2.3 2.3v24.4l-7-9v-13l4.7-4.7zM295 85.2h-6v-6h6v6z" fill="#fff"/></svg>