<svg version="1.1" xmlns="http://www.w3.org/2000/svg" x="0" y="0" viewBox="0 0 512 512" xml:space="preserve"><circle cx="256" cy="256" r="256" opacity=".1" fill="#fff"/><path d="M456.9 171.1c-11-26-26.7-49.3-46.7-69.3s-43.3-35.7-69.3-46.7C314 43.8 285.4 38 256 38c-29.4 0-58 5.8-84.9 17.1-26 11-49.3 26.7-69.3 46.7s-35.7 43.3-46.7 69.3C43.8 198 38 226.6 38 256c0 29.4 5.8 58 17.1 84.9 11 26 26.7 49.3 46.7 69.3s43.3 35.7 69.3 46.7C198 468.2 226.6 474 256 474c29.4 0 58-5.8 84.9-17.1 26-11 49.3-26.7 69.3-46.7 20-20 35.7-43.3 46.7-69.3C468.2 314 474 285.4 474 256c0-29.4-5.8-58-17.1-84.9zm-339.4-46.8c.7-4.4 4.8-7.3 9.2-6.6 4.4.7 7.3 4.8 6.6 9.2-.7 4.4-4.8 7.3-9.2 6.6s-7.3-4.9-6.6-9.2zm-42.7 87.9c4.4 0 8 3.6 8 8s-3.6 8-8 8-8-3.6-8-8 3.6-8 8-8zM63 256c0-4.4 3.6-8 8-8s8 3.6 8 8-3.6 8-8 8-8-3.6-8-8zm3.6 36.1c0-4.4 3.6-8 8-8s8 3.6 8 8-3.6 8-8 8-8-3.6-8-8zm18.5 42.7c-4.4 0-8-3.6-8-8s3.6-8 8-8 8 3.6 8 8-3.6 8-8 8zm.2-141.3c-4.4 0-8-3.6-8-8s3.6-8 8-8 8 3.6 8 8-3.6 8-8 8zm17 173.3c-4.4 0-8-3.6-8-8s3.6-8 8-8 8 3.6 8 8-3.6 8-8 8zm.1-205.2c-4.4 0-8-3.6-8-8s3.6-8 8-8 8 3.6 8 8-3.6 8-8 8zm23 233.2c-4.4 0-8-3.6-8-8s3.6-8 8-8 8 3.6 8 8-3.6 8-8 8zm27.8-300.6c4.4 0 8 3.6 8 8s-3.6 8-8 8-8-3.6-8-8 3.6-8 8-8zm6.9 320c-2.4 3.7-7.4 4.7-11.1 2.2-3.7-2.4-4.7-7.4-2.2-11.1 2.4-3.7 7.4-4.7 11.1-2.2 3.6 2.5 4.6 7.5 2.2 11.1zM326.7 77.5c4.4 0 8 3.6 8 8s-3.6 8-8 8-8-3.6-8-8 3.6-8 8-8zm-42.5-4c.8-4.3 5-7.2 9.4-6.3 4.3.8 7.2 5 6.3 9.4-.8 4.3-5 7.2-9.4 6.3-4.3-.9-7.2-5.1-6.3-9.4zM256 63c4.4 0 8 3.6 8 8s-3.6 8-8 8-8-3.6-8-8 3.6-8 8-8zm-36.1 3.6c4.4 0 8 3.6 8 8s-3.6 8-8 8-8-3.6-8-8 3.6-8 8-8zm-37.7 11.1c4.1-1.7 8.8.3 10.5 4.4 1.7 4.1-.3 8.8-4.4 10.5-4.1 1.6-8.8-.3-10.5-4.4-1.7-4.1.3-8.8 4.4-10.5zm3.1 357.2c-4.4 0-8-3.6-8-8s3.6-8 8-8 8 3.6 8 8-3.6 8-8 8zm42.6 4c-.8 4.3-5 7.2-9.4 6.3-4.3-.8-7.2-5-6.3-9.4.8-4.3 5-7.2 9.4-6.3 4.3.9 7.1 5.1 6.3 9.4zM256 449c-4.4 0-8-3.6-8-8s3.6-8 8-8 8 3.6 8 8-3.6 8-8 8zm36.1-3.6c-4.4 0-8-3.6-8-8s3.6-8 8-8 8 3.6 8 8-3.6 8-8 8zm-.9-73.1c-25.4 0-45.9-7-61.5-21-15.6-14-23.5-32.8-23.5-56.4v-1.2h-22.7V270h22.7v-23.3h-22.7v-23.8h22.7v-2c0-24.7 7.8-44.4 23.4-59.1 15.6-14.7 36-22.1 61.3-22.1 6.2 0 12.3.4 18.3 1.2s12.5 2 19.5 3.6l-3.3 35.6c-5.5-1.7-11.2-3-17-4-5.9-1-11.7-1.5-17.5-1.5-12.2 0-21.8 4.1-28.8 12.3s-10.5 19.4-10.5 33.7v2.3H318v23.8h-66.5V270H318v23.8h-66.5v1.2c0 13.7 3.5 24.2 10.5 31.5 7 7.4 16.7 11 29.1 11 6 0 11.9-.4 17.6-1.3 5.7-.9 11.3-2.2 16.6-4l3.3 35.3c-5.9 1.6-12 2.7-18.3 3.6-6.3.8-12.7 1.2-19.1 1.2zm35.6 62.5c-4.4 0-8-3.6-8-8s3.6-8 8-8 8 3.6 8 8-3.6 8-8 8zm118.6-214.9c0 4.4-3.6 8-8 8s-8-3.6-8-8 3.6-8 8-8 8 3.6 8 8zm-18.5-42.7c4.4 0 8 3.6 8 8s-3.6 8-8 8-8-3.6-8-8 3.6-8 8-8zm-68.2-82.6c4.4 0 8 3.6 8 8s-3.6 8-8 8-8-3.6-8-8 3.6-8 8-8zm.1 323.2c-4.4 0-8-3.6-8-8s3.6-8 8-8 8 3.6 8 8-3.6 8-8 8zm27.8-22.9c-4.4 0-8-3.6-8-8s3.6-8 8-8 8 3.6 8 8-3.6 8-8 8zm0-261.3c-4.4 0-8-3.6-8-8s3.6-8 8-8 8 3.6 8 8-3.6 8-8 8zm23.1 233.2c-4.4 0-8-3.6-8-8s3.6-8 8-8 8 3.6 8 8-3.6 8-8 8zm.1-205.6c-4.4 0-8-3.6-8-8s3.6-8 8-8 8 3.6 8 8-3.6 8-8 8zm16.9 173.7c-4.4 0-8-3.6-8-8s3.6-8 8-8 8 3.6 8 8-3.6 8-8 8zm10.5-34.7c-4.4 0-8-3.6-8-8s3.6-8 8-8 8 3.6 8 8-3.6 8-8 8zM441 264c-4.4 0-8-3.6-8-8s3.6-8 8-8 8 3.6 8 8-3.6 8-8 8zM256 0C114.6 0 0 114.6 0 256s114.6 256 256 256 256-114.6 256-256S397.4 0 256 0zm0 490C126.8 490 22 385.2 22 256S126.8 22 256 22s234 104.8 234 234-104.8 234-234 234z" fill="#fff"/></svg>