<svg xmlns="http://www.w3.org/2000/svg" viewBox="0 0 512 512" style="enable-background:new 0 0 512 512" xml:space="preserve"><path d="M184.1 90.2 150.5.1l78.3-.1 20 45.1L238.6 68c-10 22.5-15.1 46.5-15.1 71.1V156l-11-14.4c-12-15.6-21.5-33-28.4-51.4zm242.4 251.3c0 94.2-76.3 170.5-170.5 170.5S85.5 435.7 85.5 341.5 161.8 171 256 171s170.5 76.3 170.5 170.5zM236.5 156c6.4-.7 12.9-1 19.5-1 10.6 0 21.1.9 31.3 2.6l12.2-16c12-15.6 21.5-33 28.4-51.4L361.5.1 283.2 0 250 74.8c-8.9 20-13.5 41.7-13.5 63.6V156z" style="opacity:.1;fill:#fff"/><path d="M184.1 90.2 150.5.1l78.3-.1 20 45.1L238.6 68c-10 22.5-15.1 46.5-15.1 71.1V156l-11-14.4c-12-15.6-21.5-33-28.4-51.4zm242.4 251.3c0 94.2-76.3 170.5-170.5 170.5S85.5 435.7 85.5 341.5 161.8 171 256 171s170.5 76.3 170.5 170.5zm-16 0c0-41.3-16.1-80.1-45.3-109.2C336 203.1 297.2 187 256 187s-80.1 16.1-109.2 45.3c-29.2 29.2-45.3 68-45.3 109.2s16.1 80.1 45.3 109.2S214.7 496 256 496s80.1-16.1 109.2-45.3c29.2-29.1 45.3-67.9 45.3-109.2zM236.5 156c6.4-.7 12.9-1 19.5-1 10.6 0 21.1.9 31.3 2.6l12.2-16c12-15.6 21.5-33 28.4-51.4L361.5.1 283.2 0 250 74.8c-8.9 20-13.5 41.7-13.5 63.6V156zm37.1 217.5c12.8-12.8 22-22.9 27.8-30.6 5.7-7.6 10-14.9 12.7-21.8 2.7-6.9 4.1-14.1 4.1-21.4 0-17.4-5.4-30.7-16.3-39.9-10.8-9.3-26.3-13.9-46.4-13.9-12.5 0-23.8 2.7-33.9 8.2-10.1 5.4-18 13-23.7 22.7-5.7 9.7-8.6 20.2-8.6 31.6h43.1c0-8.3 2-15.3 6.1-20.9 4.1-5.6 9.4-8.4 16-8.4s11.7 2.1 15.2 6.3c3.5 4.2 5.2 10.3 5.2 18.2 0 9.9-7.4 23.2-22.1 39.9l-59.7 62.8v28.1h129.7v-33.2h-73.1l23.9-27.7z" style="fill:#fff"/></svg>