<svg version="1.1" xmlns="http://www.w3.org/2000/svg" x="0" y="0" viewBox="0 0 512 512" xml:space="preserve"><path d="M116 176c0-11 9-20 20-20h20v40h-20c-11 0-20-9-20-20zm185 220h-25v40h25c11 0 20-9 20-20s-9-20-20-20zm-90 0c-11 0-20 9-20 20s9 20 20 20h25v-40h-25zm-15-80v40h40v-40h-40zm180-120c11 0 20-9 20-20s-9-20-20-20h-20v40h20zm-165-80h25V76h-25c-11 0-20 9-20 20s9 20 20 20zm25 80v-40h-40v40h40zm65-80c11 0 20-9 20-20s-9-20-20-20h-25v40h25zm15 80v-40h-40v40h40zm-40 120v40h40v-40h-40zm-140 0c-11 0-20 9-20 20s9 20 20 20h20v-40h-20zm140-80v40h40v-40h-40zm80 0v40h40v-40h-40zm156 20c0 141.4-114.6 256-256 256S0 397.4 0 256 114.6 0 256 0s256 114.6 256 256zM181 96c0 16.5 13.5 30 30 30h90c16.5 0 30-13.5 30-30s-13.5-30-30-30h-90c-16.5 0-30 13.5-30 30zm-75 80c0 16.5 13.5 30 30 30h240c16.5 0 30-13.5 30-30s-13.5-30-30-30H136c-16.5 0-30 13.5-30 30zm225 240c0-16.5-13.5-30-30-30h-90c-16.5 0-30 13.5-30 30s13.5 30 30 30h90c16.5 0 30-13.5 30-30zm75-80c0-16.5-13.5-30-30-30H136c-16.5 0-30 13.5-30 30s13.5 30 30 30h240c16.5 0 30-13.5 30-30zm60-80c0-16.5-13.5-30-30-30H76c-16.5 0-30 13.5-30 30s13.5 30 30 30h360c16.5 0 30-13.5 30-30zm-30-20v40c11 0 20-9 20-20s-9-20-20-20zm-240 0v40h40v-40h-40zm180 80h-20v40h20c11 0 20-9 20-20s-9-20-20-20zm-260-80v40h40v-40h-40zm-60 20c0 11 9 20 20 20v-40c-11 0-20 9-20 20z" fill="#fff"/></svg>