<svg version="1.1" xmlns="http://www.w3.org/2000/svg" x="0" y="0" viewBox="0 0 512 512" xml:space="preserve"><path d="M404 67c2.2 0 4-1.8 4-4V47c0-2.2-1.8-4-4-4h-49V0h-18v43H175V0h-18v43h-49c-2.2 0-4 1.8-4 4v16c0 2.2 1.8 4 4 4h49v43h-49c-2.2 0-4 1.8-4 4v16c0 2.2 1.8 4 4 4h49v43h-49c-2.2 0-4 1.8-4 4v16c0 2.2 1.8 4 4 4h49v43h-49c-2.2 0-4 1.8-4 4v16c0 2.2 1.8 4 4 4h49v43h-49c-2.2 0-4 1.8-4 4v16c0 2.2 1.8 4 4 4h49v43h-49c-2.2 0-4 1.8-4 4v16c0 2.2 1.8 4 4 4h49v43h-49c-2.2 0-4 1.8-4 4v16c0 2.2 1.8 4 4 4h49v43h18v-43h162v43h18v-43h49c2.2 0 4-1.8 4-4v-16c0-2.2-1.8-4-4-4h-49v-43h49c2.2 0 4-1.8 4-4v-16c0-2.2-1.8-4-4-4h-49v-43h49c2.2 0 4-1.8 4-4v-16c0-2.2-1.8-4-4-4h-49v-43h49c2.2 0 4-1.8 4-4v-16c0-2.2-1.8-4-4-4h-49v-43h49c2.2 0 4-1.8 4-4v-16c0-2.2-1.8-4-4-4h-49v-43h49c2.2 0 4-1.8 4-4v-16c0-2.2-1.8-4-4-4h-49V67h49zm-67 378H175v-43h162v43zm0-67H175v-43h162v43zm0-67H175v-43h162v43zm0-67H175v-43h162v43zm0-67H175v-43h162v43zm0-67H175V67h162v43z" fill="#fff"/></svg>