<svg version="1.1" xmlns="http://www.w3.org/2000/svg" x="0" y="0" viewBox="0 0 512 512" xml:space="preserve"><path d="M496 29H325c-8.8 0-16 7.2-16 16v2c0-3.3-2.7-6-6-6h-58v7h-4v-7h-4v7h-3v-7h-4v7h-3v-7h-4v7h-3v-7h-4v7h-3v-7h-4v7h-3v-7h-4v7h-3v-7h-4v7h-3v-7h-4v7h-3v-7h-4v7c-1.1 0-2.1 0-3.2.1l-.4-7-4 .2.4 7-3.3.3-.7-7-4 .4.7 6.9c-1 .1-2.1.3-3.1.4l-1.1-6.9-4 .6 1.1 6.9c-1.1.2-2.2.4-3.2.6l-1.5-6.8-3.9.8 1.5 6.8c-1 .2-2.1.5-3.1.7l-1.8-6.8-3.9 1 1.8 6.8c-1 .3-2.1.6-3.1.9l-2.2-6.7-3.8 1.2 2.2 6.7c-1 .4-2.1.7-3.1 1.1l-2.5-6.5-3.7 1.4 2.5 6.5c-1 .4-2 .8-2.9 1.2l-2.9-6.4-3.7 1.6 2.9 6.5c-1 .5-1.9.9-2.9 1.4l-3.2-6.3-3.6 1.8 3.2 6.3c-1 .5-1.9 1-2.9 1.6l-3.5-6.1-3.5 2 3.5 6.1c-.9.6-1.8 1.1-2.8 1.7l-3.9-6-3.4 2.2 3.9 6c-.9.6-1.8 1.2-2.6 1.8l-4.1-5.7-3.2 2.4 4.2 5.7c-.9.6-1.7 1.3-2.6 2L93.3 72l-3.1 2.5 4.5 5.5c-.8.7-1.6 1.4-2.5 2.1l-4.7-5.3-3 2.7 4.7 5.3c-.8.7-1.6 1.5-2.4 2.2l-5-5-2.8 2.9 5 5c-.7.8-1.5 1.5-2.2 2.3l-5.3-4.7-2.7 3 5.3 4.7c-.7.8-1.4 1.6-2.1 2.5l-5.5-4.5-2.5 3.1 5.5 4.4c-.7.8-1.3 1.7-1.9 2.5L66.9 99l-2.4 3.2 5.7 4.2c-.6.9-1.2 1.8-1.9 2.7l-5.9-3.9-2.2 3.4 5.9 3.9c-.6.9-1.1 1.8-1.7 2.7l-6.1-3.5-2 3.5 6.1 3.5c-.5.9-1 1.9-1.6 2.9l-6.2-3.2-1.8 3.6 6.2 3.2c-.5 1-.9 1.9-1.4 2.9l-6.4-2.9-1.6 3.7 6.4 2.8c-.4 1-.8 1.9-1.2 2.9l-6.6-2.5-1.4 3.7 6.6 2.5c-.4 1-.7 2-1.1 3.1l-6.7-2.2-1.2 3.8 6.7 2.2c-.3 1-.6 2-.9 3.1l-6.7-1.8-1 3.9 6.7 1.8c-.3 1-.5 2.1-.8 3.1l-6.9-1.5-.8 3.9 6.9 1.5c-.2 1.1-.4 2.1-.6 3.2l-6.9-1.1-.6 4 6.9 1.1c-.2 1.1-.3 2.1-.4 3.2l-7-.7-.4 4 7 .7c-.1 1.1-.2 2.1-.3 3.2l-7-.4-.2 4 7 .4c0 1.1-.1 2.2-.1 3.3h-7v250c0 8.8-7.2 16-16 16h-6c-8.8 0-16 7.2-16 16v30c0 8.8 7.2 16 16 16h203c8.8 0 16-7.2 16-16v-30c0-8.8-7.2-16-16-16h-26v-14c0-3.3-2.7-6-6-6h-33c-3.3 0-6 2.7-6 6v14H98c-8.8 0-16-7.2-16-16V184h-7v-1.7l7 .4.2-4-7-.4c0-.6.1-1.1.1-1.6l6.9.7.4-4-6.9-.7c.1-.5.1-1.1.2-1.6l6.9 1.1.6-4-6.9-1.1c.1-.5.2-1.1.3-1.6l6.8 1.4.8-3.9-6.8-1.4c.1-.5.3-1.1.4-1.6l6.8 1.8 1-3.9-6.8-1.8c.2-.5.3-1 .5-1.6l6.7 2.2 1.2-3.8-6.7-2.2c.2-.5.4-1.1.6-1.6l6.5 2.5 1.4-3.7-6.5-2.5.6-1.5 6.4 2.8 1.6-3.7-6.4-2.8c.2-.5.5-1 .7-1.5l6.2 3.2 1.8-3.6-6.2-3.2c.3-.5.5-1 .8-1.5l6 3.5 2-3.5-6-3.5c.3-.5.6-.9.8-1.4l5.8 3.8 2.2-3.4-5.8-3.8c.3-.5.6-.9 1-1.4l5.6 4.1 2.4-3.2-5.6-4.1c.3-.4.7-.9 1-1.3l5.4 4.4 2.5-3.1-5.4-4.4c.4-.4.7-.9 1.1-1.3l5.1 4.6 2.7-3-5.1-4.6c.4-.4.7-.8 1.1-1.2l4.9 4.9 2.8-2.8-4.9-4.9 1.2-1.2 4.6 5.1 3-2.7-4.6-5.2c.4-.4.8-.7 1.3-1.1l4.3 5.4 3.1-2.5-4.4-5.4c.4-.3.9-.7 1.3-1l4.1 5.6 3.2-2.4-4.1-5.6c.4-.3.9-.6 1.3-.9l3.8 5.8 3.4-2.2-3.8-5.8c.5-.3.9-.6 1.4-.9l3.5 6 3.5-2-3.5-6c.5-.3 1-.5 1.5-.8l3.2 6.2 3.6-1.8-3.2-6.2c.5-.2 1-.5 1.5-.7l2.8 6.3 3.7-1.6-2.8-6.3 1.5-.6 2.5 6.5 3.7-1.4-2.5-6.5c.5-.2 1.1-.4 1.6-.6l2.2 6.6 3.8-1.2-2.2-6.6c.5-.2 1.1-.3 1.6-.5L155 89l3.9-1-1.8-6.8c.5-.1 1-.3 1.5-.4l1.5 6.8 3.9-.8-1.5-6.8c.6-.1 1.1-.2 1.7-.3l1.1 6.9 4-.6-1.1-6.9c.5-.1 1-.1 1.6-.2l.7 7 4-.4-.7-7c.6 0 1.2-.1 1.7-.1l.4 7 4-.2-.4-7h1.6v7h4v-7h3v7h4v-7h3v7h4v-7h3v7h4v-7h3v7h4v-7h3v7h4v-7h3v7h4v-7h3v7h4v-7h3v7h4v-7h4v7h58c3.3 0 6-2.7 6-6v-4h203V45c-.1-8.8-7.3-16-16.1-16z" fill="#fff"/></svg>