<svg version="1.1" xmlns="http://www.w3.org/2000/svg" x="0" y="0" viewBox="0 0 512 512" xml:space="preserve"><path d="M340.2 480.9c1-11 8-23 8-88s-44-169-46-193c-1.3-16 2.7-25.8 5.5-30.5l14.7-11.1c1.8-1.3 2.1-3.8.8-5.6l-1.3-1.7c-1.3-1.8-3.8-2.1-5.6-.8l-14.7 11.1-4.5-6c-1.3-1.8-3.8-2.1-5.6-.8l-.8.6-3.4-21.8c.8-2.4 1.3-5 1.6-7.7-.7.5-1.5.7-2.4.7-2.4 0-4.4-2-4.4-4.4 0-2.4 2-4.4 4.4-4.4.8 0 1.5.2 2.1.6-.1-.9-.3-1.9-.5-2.8L294 57 277 0h-9v8l1.1 1.9c1.6 2.4 1.3 5.6-.7 7.6l-2.5 2.5c-.4.5-.3 1.3.3 1.6L273 25l-3 3 4 3-4 4 4 3-4 3 3 4-4 2 3 4h-9l-3.4 36.2-.3 3c-1.1-.1-2.2-.2-3.3-.2-1.1 0-2.3.1-3.4.2L249 51h-9l3-4-4-2 3-4-4-3 4-3-4-4 4-3-3-3 6.8-3.4c.6-.3.7-1.1.3-1.6l-2.5-2.5c-2-2-2.3-5.2-.7-7.6L244 8V0h-9l-17 57 5.9 58.3c-.2.9-.4 1.8-.5 2.8.6-.4 1.4-.6 2.1-.6 2.4 0 4.4 2 4.4 4.4 0 2.4-2 4.4-4.4 4.4-.9 0-1.7-.3-2.4-.7.2 2.5.7 4.9 1.4 7.2l-.9 5.8-2.5 16.3-.6-.5c-1.8-1.3-4.3-1-5.6.8l-4.5 6-14.7-11.1c-1.8-1.3-4.3-1-5.6.8l-1.3 1.7c-1.3 1.8-1 4.3.8 5.6l14.7 11.1c2.8 4.7 6.8 14.5 5.5 30.5-2 24-46 128-46 193s7 77 8 88c.5 5.7-.3 10.3-1.2 13.4-.8 2.8.5 5.8 3.1 7l20 10c2.9 1.4 6.4.4 7.9-2.5l1.4-2.6c.5-.9.6-1.9.4-2.9-2.3-9.4-13.9-62.8-6.6-113.5 7.7-53.7 45.7-179 48.8-189.3l.1-.2c.9-3.4 1.8-6.8 2.4-9.7h.1c.3-1.8.5-3.4.7-4.7.4-4 .4-7.3.3-9.8l-1.2-.9 1.4-19.9c2.1.4 4.4.7 6.6.7 2.2 0 4.4-.2 6.4-.6l1.4 20-1 .8c-.1 2.5-.1 5.8.3 9.8.2 1.3.4 2.9.7 4.7h.1c.6 2.9 1.5 6.3 2.4 9.7l.1.2c3.1 10.3 41.1 135.6 48.8 189.3 7.3 50.7-4.3 104.1-6.6 113.5-.2 1-.1 2 .4 2.9l1.4 2.6c1.5 2.9 5 3.9 7.9 2.5l20-10c2.6-1.2 3.9-4.2 3.1-7-.9-3.1-1.7-7.7-1.2-13.4z" fill="#fff"/></svg>