<svg version="1.1" xmlns="http://www.w3.org/2000/svg" x="0" y="0" viewBox="0 0 512 512" xml:space="preserve"><path opacity=".1" fill="#fff" d="M95.7 10h320.7v502H95.7z"/><path d="M426 0v512h-18V18H258.5v494h-5V18H104v494H86V0h340zM221.5 49h5v408h-96V49h91zm-86 5v95.8h86V54h-86zm86 196.5v-95.7h-86v95.7h86zm-86 5v95.8h86v-95.8h-86zm86 196.5v-95.7h-86V452h86zM376.3 49h5v408h-96V49h91zm-86 5v95.8h86V54h-86zm86 196.5v-95.7h-86v95.7h86zm-86 5v95.8h86v-95.8h-86zm86 196.5v-95.7h-86V452h86z" fill="#fff"/></svg>