<svg version="1.1" xmlns="http://www.w3.org/2000/svg" x="0" y="0" viewBox="0 0 512 512" xml:space="preserve"><circle cx="256" cy="256" r="256" opacity=".1" fill="#fff"/><path d="M456.9 171.1c-11-26-26.7-49.3-46.7-69.3s-43.3-35.7-69.3-46.7C314 43.8 285.4 38 256 38c-29.4 0-58 5.8-84.9 17.1-26 11-49.3 26.7-69.3 46.7s-35.7 43.3-46.7 69.3C43.8 198 38 226.6 38 256c0 29.4 5.8 58 17.1 84.9 11 26 26.7 49.3 46.7 69.3s43.3 35.7 69.3 46.7C198 468.2 226.6 474 256 474c29.4 0 58-5.8 84.9-17.1 26-11 49.3-26.7 69.3-46.7 20-20 35.7-43.3 46.7-69.3C468.2 314 474 285.4 474 256c0-29.4-5.8-58-17.1-84.9zM74.8 212.2c4.4 0 8 3.6 8 8s-3.6 8-8 8-8-3.6-8-8 3.6-8 8-8zM63 256c0-4.4 3.6-8 8-8s8 3.6 8 8-3.6 8-8 8-8-3.6-8-8zm3.6 36.1c0-4.4 3.6-8 8-8s8 3.6 8 8-3.6 8-8 8-8-3.6-8-8zm18.5 42.7c-4.4 0-8-3.6-8-8s3.6-8 8-8 8 3.6 8 8-3.6 8-8 8zm.2-141.3c-4.4 0-8-3.6-8-8s3.6-8 8-8 8 3.6 8 8-3.6 8-8 8zm17 173.3c-4.4 0-8-3.6-8-8s3.6-8 8-8 8 3.6 8 8-3.6 8-8 8zm.1-205.2c-4.4 0-8-3.6-8-8s3.6-8 8-8 8 3.6 8 8-3.6 8-8 8zm23 233.2c-4.4 0-8-3.6-8-8s3.6-8 8-8 8 3.6 8 8-3.6 8-8 8zm8-268.5c-.4 4.4-4.2 7.7-8.6 7.3-4.4-.4-7.7-4.2-7.3-8.6.4-4.4 4.2-7.7 8.6-7.3s7.6 4.2 7.3 8.6zm19.8-32.1c4.4 0 8 3.6 8 8s-3.6 8-8 8-8-3.6-8-8 3.6-8 8-8zm6.9 320c-2.4 3.7-7.4 4.7-11.1 2.2-3.7-2.4-4.7-7.4-2.2-11.1 2.4-3.7 7.4-4.7 11.1-2.2 3.6 2.5 4.6 7.5 2.2 11.1zM284.2 73.5c.8-4.3 5-7.2 9.4-6.3 4.3.8 7.2 5 6.3 9.4-.8 4.3-5 7.2-9.4 6.3-4.3-.9-7.2-5.1-6.3-9.4zM256 63c4.4 0 8 3.6 8 8s-3.6 8-8 8-8-3.6-8-8 3.6-8 8-8zm-36.1 3.6c4.4 0 8 3.6 8 8s-3.6 8-8 8-8-3.6-8-8 3.6-8 8-8zm-34.6 368.3c-4.4 0-8-3.6-8-8s3.6-8 8-8 8 3.6 8 8-3.6 8-8 8zm3-342.3c-4.1 1.6-8.8-.3-10.5-4.4-1.7-4.1.3-8.8 4.4-10.5 4.1-1.7 8.8.3 10.5 4.4 1.7 4.1-.3 8.8-4.4 10.5zm39.6 346.3c-.8 4.3-5 7.2-9.4 6.3-4.3-.8-7.2-5-6.3-9.4.8-4.3 5-7.2 9.4-6.3 4.3.9 7.1 5.1 6.3 9.4zM256 449c-4.4 0-8-3.6-8-8s3.6-8 8-8 8 3.6 8 8-3.6 8-8 8zm36.1-3.6c-4.4 0-8-3.6-8-8s3.6-8 8-8 8 3.6 8 8-3.6 8-8 8zm10.8-112.2c-8.8 8.5-20.6 13.6-35.6 15.1v24.2h-19.5v-24.1c-15.3-1.6-27.9-7-37.8-16.2-10-9.3-14.8-22.9-14.4-40.8l.2-.6h34.8c0 10.9 2.5 18.8 7.6 23.5 5.1 4.7 11.4 7.1 19.1 7.1 7.4 0 13.1-2 17.1-5.9 4-3.9 6.1-9.5 6.1-16.2 0-6.6-1.9-12-5.7-16.2-3.8-4.2-10.3-8-19.5-11.6-18.1-6.6-31.5-14-40.3-22.1-8.7-8.1-13.1-19.6-13.1-34.3 0-13.7 4.4-24.9 13.2-33.7s20.6-13.9 35.4-15.5v-26.3H270v26.7c14.3 2.1 25.5 8.1 33.7 17.9s12.2 22.6 12.1 38.4l-.4.6h-34.8c0-9.6-2-17.1-6-22.3-4-5.2-9.4-7.8-16.2-7.8-7 0-12.3 2-15.7 6.1-3.5 4-5.2 9.4-5.2 16.1 0 6.4 1.8 11.5 5.4 15.5 3.6 4 10.3 7.9 20 11.7 18 7.1 31.4 14.7 40.1 22.8 8.7 8.1 13.1 19.4 13.1 33.9 0 14.1-4.4 25.4-13.2 34zm23.8-255.7c4.4 0 8 3.6 8 8s-3.6 8-8 8-8-3.6-8-8 3.6-8 8-8zm.1 357.3c-4.4 0-8-3.6-8-8s3.6-8 8-8 8 3.6 8 8-3.6 8-8 8zm118.6-214.9c0 4.4-3.6 8-8 8s-8-3.6-8-8 3.6-8 8-8 8 3.6 8 8zm-18.5-42.7c4.4 0 8 3.6 8 8s-3.6 8-8 8-8-3.6-8-8 3.6-8 8-8zm-68.2-82.6c4.4 0 8 3.6 8 8s-3.6 8-8 8-8-3.6-8-8 3.6-8 8-8zm.1 323.2c-4.4 0-8-3.6-8-8s3.6-8 8-8 8 3.6 8 8-3.6 8-8 8zm27.8-22.9c-4.4 0-8-3.6-8-8s3.6-8 8-8 8 3.6 8 8-3.6 8-8 8zm0-261.3c-4.4 0-8-3.6-8-8s3.6-8 8-8 8 3.6 8 8-3.6 8-8 8zm23.1 233.2c-4.4 0-8-3.6-8-8s3.6-8 8-8 8 3.6 8 8-3.6 8-8 8zm.1-205.6c-4.4 0-8-3.6-8-8s3.6-8 8-8 8 3.6 8 8-3.6 8-8 8zm16.9 173.7c-4.4 0-8-3.6-8-8s3.6-8 8-8 8 3.6 8 8-3.6 8-8 8zm10.5-34.7c-4.4 0-8-3.6-8-8s3.6-8 8-8 8 3.6 8 8-3.6 8-8 8zM441 264c-4.4 0-8-3.6-8-8s3.6-8 8-8 8 3.6 8 8-3.6 8-8 8zM256 0C114.6 0 0 114.6 0 256s114.6 256 256 256 256-114.6 256-256S397.4 0 256 0zm0 490C126.8 490 22 385.2 22 256S126.8 22 256 22s234 104.8 234 234-104.8 234-234 234z" fill="#fff"/></svg>