<svg version="1.1" xmlns="http://www.w3.org/2000/svg" x="0" y="0" viewBox="0 0 512 512" xml:space="preserve"><path d="M324 368h-2v-20c0-4.9-1.4-9.4-3.9-13.1-4.3-6.5-11.7-10.9-20.1-10.9l-.1-.1c-.3-.4-1.5-1.8-3.1-3.9-5.4-6.8-15.8-20.3-15.8-24 0-3.4 2.5-11.6 4.1-16.5.7-2.1 1.2-3.5 1.3-3.9h1.5c3.3 0 6-2.7 6-6s-2.7-6-6-6h-2.5v-8l-2.5-5.8c1.3-.6 2.2-2.2 2.2-4.2 0-2.5-1.5-4.5-3.4-4.5-1.2 0-2.2.7-2.8 1.9v-6s18-17 18-38-13-47-17-66-8-72-8-91V0h-28v42c0 19-4 72-8 91s-17 45-17 66 18 38 18 38v5.7c-.6-1-1.6-1.7-2.7-1.7-1.9 0-3.4 2-3.4 4.5 0 1.9.8 3.5 2.1 4.2l-2.5 5.8v8H226c-3.3 0-6 2.7-6 6s2.7 6 6 6h1.5s0 .1.1.3c.2.6.7 1.9 1.2 3.7 1.5 4.5 3.7 11.7 4.1 15.5H216v-5c0-1.1-.9-2-2-2s-2 .9-2 2v12c0 1.1.9 2 2 2s2-.9 2-2v-5h16.8c-1.4 4.7-10.6 16.7-15.6 23-1.6 2.1-2.8 3.5-3.1 3.9 0 .1-.1.1-.1.1-8.4 0-15.8 4.3-20.1 10.9-2.5 3.8-3.9 8.3-3.9 13.1v20.1h-2c-2.2 0-4 1.8-4 4v1c0 2.2 1.8 4 4 4h20.5v19c0 8.8 7.2 16 16 16h4v8c0 4.4 3.6 8 8 8h2.8l3.7 13c-1.7 0-3 1.3-3 3s1.3 3 3 3l-12 22h-4.5c-3.3 0-6 2.7-6 6v4H211c-4.4 0-8 3.6-8 8v9h-5.5c-4.4 0-8 3.6-8 8v8h133v-8c0-4.4-3.6-8-8-8H309v-9c0-4.4-3.6-8-8-8h-9.5v-4c0-3.3-2.7-6-6-6H281l-12-22c1.7 0 3-1.3 3-3s-1.3-3-3-3l3.7-13h2.8c4.4 0 8-3.6 8-8v-8h4c8.8 0 16-7.2 16-16v-19H324c2.2 0 4-1.8 4-4v-1c0-2.3-1.8-4.1-4-4.1zm-91.7-120c-.6 0-1.4-1.1-1.4-2.5s.7-2.5 1.4-2.5 1.4 1.1 1.4 2.5-.7 2.5-1.4 2.5zm2.7 5-1.4-3.3c.6-.3 1.1-.8 1.4-1.4v4.7zm44.8-10c.7 0 1.4 1.1 1.4 2.5s-.7 2.5-1.4 2.5-1.4-1.1-1.4-2.5.7-2.5 1.4-2.5zm-2.8 10v-4.9c.4.7.9 1.2 1.5 1.6L277 253z" opacity=".1" fill="#fff"/><path d="M324 368h-2v-20c0-4.9-1.4-9.4-3.9-13.1-4.3-6.5-11.7-10.9-20.1-10.9l-.1-.1c-.3-.4-1.5-1.8-3.1-3.9-5.4-6.8-15.8-20.3-15.8-24 0-3.4 2.5-11.6 4.1-16.5.7-2.1 1.2-3.5 1.3-3.9h1.5c3.3 0 6-2.7 6-6s-2.7-6-6-6h-2.5v-8l-2.5-5.8c1.3-.6 2.2-2.2 2.2-4.2 0-2.5-1.5-4.5-3.4-4.5-1.2 0-2.2.7-2.8 1.9v-6s18-17 18-38-13-47-17-66-8-72-8-91V0h-28v42c0 19-4 72-8 91s-17 45-17 66 18 38 18 38v5.7c-.6-1-1.6-1.7-2.7-1.7-1.9 0-3.4 2-3.4 4.5 0 1.9.8 3.5 2.1 4.2l-2.5 5.8v8H226c-3.3 0-6 2.7-6 6s2.7 6 6 6h1.5s0 .1.1.3c.2.6.7 1.9 1.2 3.7 1.5 4.5 3.7 11.7 4.1 15.5H216v-5c0-1.1-.9-2-2-2s-2 .9-2 2v12c0 1.1.9 2 2 2s2-.9 2-2v-5h16.8c-1.4 4.7-10.6 16.7-15.6 23-1.6 2.1-2.8 3.5-3.1 3.9 0 .1-.1.1-.1.1-8.4 0-15.8 4.3-20.1 10.9-2.5 3.8-3.9 8.3-3.9 13.1v20.1h-2c-2.2 0-4 1.8-4 4v1c0 2.2 1.8 4 4 4h20.5v19c0 8.8 7.2 16 16 16h4v8c0 4.4 3.6 8 8 8h2.8l3.7 13c-1.7 0-3 1.3-3 3s1.3 3 3 3l-12 22h-4.5c-3.3 0-6 2.7-6 6v4H211c-4.4 0-8 3.6-8 8v9h-5.5c-4.4 0-8 3.6-8 8v8h133v-8c0-4.4-3.6-8-8-8H309v-9c0-4.4-3.6-8-8-8h-9.5v-4c0-3.3-2.7-6-6-6H281l-12-22c1.7 0 3-1.3 3-3s-1.3-3-3-3l3.7-13h2.8c4.4 0 8-3.6 8-8v-8h4c8.8 0 16-7.2 16-16v-19H324c2.2 0 4-1.8 4-4v-1c0-2.3-1.8-4.1-4-4.1zm-91.7-120c-.6 0-1.4-1.1-1.4-2.5s.7-2.5 1.4-2.5 1.4 1.1 1.4 2.5-.7 2.5-1.4 2.5zm2.7 5-1.4-3.3c.6-.3 1.1-.8 1.4-1.4v4.7zm17-53c-6-.2-7.5 13-7.5 13s1.5-71 7.5-70 13.3 70 13.3 70-7.3-12.8-13.3-13zm27.8 43c.7 0 1.4 1.1 1.4 2.5s-.7 2.5-1.4 2.5-1.4-1.1-1.4-2.5.7-2.5 1.4-2.5zm-2.8 10v-4.9c.4.7.9 1.2 1.5 1.6L277 253z" fill="#fff"/></svg>