<svg version="1.1" xmlns="http://www.w3.org/2000/svg" x="0" y="0" viewBox="0 0 512 512" xml:space="preserve"><path d="M256 16c61.7 0 110.2 8.7 144.4 25.8 29 14.6 47.3 34.8 55.9 61.7 9.4 29.4 6.9 66.8-7.4 111.2-12.1 37.8-32.4 79.9-60.5 125.3-50.8 82.2-108.1 144.9-116.6 151.1-5.9 3.6-12 4.8-15.8 4.8-3.8 0-9.9-1.3-15.8-4.8-8.5-6.2-65.9-68.9-116.6-151.1-28-45.4-48.4-87.6-60.5-125.3-14.2-44.4-16.7-81.8-7.4-111.2 8.6-26.9 26.9-47.1 55.9-61.7C145.8 24.7 194.3 16 256 16m0-16c-469.2 0-52.5 487.4-24.3 504.7 8.5 5.2 17.5 7.3 24.3 7.3 6.8 0 15.8-2.1 24.3-7.3C308.5 487.4 725.2 0 256 0z" fill="#fff"/></svg>