<svg version="1.1" xmlns="http://www.w3.org/2000/svg" x="0" y="0" viewBox="0 0 512 512" xml:space="preserve"><path d="M325 71.5h-22V0h-98v71.5h-18c-6.6 0-12 5.4-12 12v345c0 6.6 5.4 12 12 12h18V512h98v-71.5h22c6.6 0 12-5.4 12-12v-345c0-6.6-5.4-12-12-12z" opacity=".1" fill="#fff"/><path d="M250.2 389.1L175 416.4v-16.2l52.9-19.2 22.3 8.1zm-50.5-18.4l-24.7 9V396l47-17.1-22.3-8.2zm-24.7-9v13.8l18.9-6.9-18.9-6.9zm2.6 74.3l100.7-36.6-22.3-8.1-81 29.5v7.8c0 4.5 2.5 8.4 6.1 10.5-1.3-.9-2.5-1.9-3.5-3.1zm-2.6-78.5l162 59v-16.2l-162-59v16.2zm102.7 83l56.8-20.7-22.3-8.1-79.1 28.8h-11.7l85-30.9-22.3-8.1-103 37.5c1.7 1 3.7 1.5 5.9 1.5h18V512h98v-71.5h22c6.6 0 12-5.4 12-12v-5.3l-47.6 17.3h-11.7zm-78-233.6l-24.7 9v16.2l47-17.1-22.3-8.1zM175 337l162 59v-16.2l-162-59V337zm0-139.1v13.8l18.9-6.9-18.9-6.9zM332.8 74.4c-2.1-1.8-4.8-2.9-7.8-2.9h-22V0h-98v71.5h-18c-6.6 0-12 5.4-12 12v5.3l47.6-17.3h11.7L175 93.1v16.2l103.9-37.8h11.7L175 113.6v16.2L330.9 73c.7.4 1.3.9 1.9 1.4zm-48.7 163.3L175 277.4v16.2l131.4-47.8-22.3-8.1zm-56.2-20.5L175 236.4v16.2l75.2-27.4-22.3-8zM334.5 256l-22.3-8.1L177.5 297l22.3 8.1L334.5 256zM256 227.4l-81 29.5v16.2l103.3-37.6-22.3-8.1zm0 98.1l81-29.5v-16.2l-103.3 37.6 22.3 8.1zm-81-9l162 59v-16.2l-162-59v16.2zM284.1 172l52.9-19.2v-16.2L261.8 164l22.3 8zm52.9 19.2v-13.8l-18.9 6.9 18.9 6.9zm-162-38.5l162 59v-16.2l-162-59v16.2zm81 9l81-29.5V116l-103.3 37.6 22.3 8.1zm76.8-87.3c.6.5 1.1 1.1 1.6 1.7l-156.9 57.1 22.3 8.1 137.3-50v-7.8c-.1-3.7-1.7-6.9-4.3-9.1zm-104.9 77.1L337 111.8V95.6l-131.4 47.8 22.3 8.1zm84.4 30.7l24.7-9V157l-47 17.1 22.3 8.1zm0 163.8l24.7-9v-16.2l-47 17.1 22.3 8.1zm24.7 9v-13.8l-18.9 6.9L337 355zM175 173.2l162 59V216l-162-59v16.2zm109.1 162.6l52.9-19.2v-16.2l-75.2 27.4 22.3 8zm-56.2-20.5L337 275.6v-16.2l-131.4 47.8 22.3 8.1zM175 193.7l162 59v-16.2l-162-59v16.2z" fill="#fff"/></svg>