<svg version="1.1" xmlns="http://www.w3.org/2000/svg" x="0" y="0" viewBox="0 0 512 512" xml:space="preserve"><path fill="#FFF" d="M377.4 433.4c-.8-2-1.6-4.1-2.5-6.2-5.9-14-14.4-28.8-23.7-40.6-5.3-8.4-10.8-16.6-15.7-22.7-16.3-20.4-35.7-36.8-44-47.5-8.1-10.5-8.9-36.4-12.2-45.7-.1-1.6-.3-3.1-.6-4.7 3.7-19.8 12.7-68.6 22.2-125.4 12.4-74.3 13.4-120.7 13.4-120.7.1-5.7-.6-13.6-1.7-17.4S309.5 0 308 5.6l-52 194.2L203.9 5.3c-1.5-5.5-3.6-6.9-4.6-3.1s-1.8 11.7-1.7 17.4c0 0 1 46.4 13.4 120.7 9.5 56.8 18.5 105.6 22.2 125.4-.3 1.8-.5 3.5-.6 5.3-3.2 9.4-4.1 35.1-12.2 45.6-8.3 10.7-27.7 27.1-44 47.5-4.9 6.1-10.4 14.3-15.7 22.7-9.2 11.8-17.7 26.7-23.7 40.6-.9 2.1-1.7 4.2-2.5 6.2-14.7 39.2-5.3 69.9 21.4 77 26.7 7.1 50.1-14.8 57-56 .4-2.1.7-4.3 1-6.6.7-5.4 1.1-11.2 1.3-16.9 2-19.8 6.6-51.6 16.9-66.1 11.3-15.8 18.6-23 23.9-29.3 5.3 6.2 12.5 13.4 23.7 29 10.3 14.4 15 46.3 16.9 66.1.2 5.8.6 11.5 1.3 16.9.3 2.3.6 4.5 1 6.6 6.9 41.3 30.4 63.2 57 56 26.8-7 36.1-37.8 21.5-76.9zM203.3 444c-3.5 34.5-21.5 56.3-43 50.6-21.5-5.8-26.1-33.7-11.9-65.3 10.2-22.7 29.6-47.5 41.3-44.4 11.7 3.2 16.1 34.3 13.6 59.1zm148.4 50.3c-21.5 5.8-39.5-16.1-43-50.6-2.5-24.8 1.9-55.9 13.6-59.1 11.7-3.1 31.1 21.6 41.3 44.4 14.2 31.6 9.6 59.5-11.9 65.3z"/></svg>