<svg version="1.1" xmlns="http://www.w3.org/2000/svg" x="0" y="0" viewBox="0 0 512 512" xml:space="preserve"><path d="M0 480c0 17.6 14.4 32 32 32h448c17.6 0 32-14.4 32-32V32c0-17.6-14.4-32-32-32H32C14.4 0 0 14.4 0 32" opacity=".1" fill="#fff"/><path d="M480 0H32C14.4 0 0 14.4 0 32v448c0 17.6 14.4 32 32 32h448c17.6 0 32-14.4 32-32V32c0-17.6-14.4-32-32-32zm-25.5 411c0 12.1-9.9 22-22 22h-353c-12.1 0-22-9.9-22-22V101c0-12.1 9.9-22 22-22h353c12.1 0 22 9.9 22 22v310zm-22-316h-353c-3.3 0-6 2.7-6 6v310c0 3.3 2.7 6 6 6h353c3.3 0 6-2.7 6-6V101c0-3.3-2.7-6-6-6zm-78.6 258.9c-26.2 26.2-60.9 40.6-97.9 40.6s-71.8-14.4-97.9-40.6c-26.2-26.2-40.6-60.9-40.6-97.9s14.4-71.8 40.6-97.9c26.2-26.2 60.9-40.6 97.9-40.6s71.8 14.4 97.9 40.6c26.2 26.2 40.6 60.9 40.6 97.9s-14.4 71.8-40.6 97.9zM327.5 256c0 9.1-7.4 16.5-16.5 16.5s-16.5-7.4-16.5-16.5 7.4-16.5 16.5-16.5 16.5 7.4 16.5 16.5zm-110 0c0 9.1-7.4 16.5-16.5 16.5s-16.5-7.4-16.5-16.5 7.4-16.5 16.5-16.5 16.5 7.4 16.5 16.5zm38.5 16.5c-9.1 0-16.5-7.4-16.5-16.5s7.4-16.5 16.5-16.5 16.5 7.4 16.5 16.5-7.4 16.5-16.5 16.5zM134.8 274H153v48.3c-9.3-14.3-15.6-30.7-18.2-48.3zm0-36c2.6-17.6 8.9-34 18.2-48.3V238h-18.2zm242.4 36c-2.6 17.6-8.9 34-18.2 48.3V274h18.2zm0-36H359v-48.3c9.3 14.3 15.6 30.7 18.2 48.3zM256 133.5c6.6 0 13.1.5 19.5 1.6V163H264v7h-16v-7h-11.5v-27.9c6.4-1.1 12.9-1.6 19.5-1.6zm8 215.5h11.5v27.9c-6.4 1-12.9 1.6-19.5 1.6s-13.1-.5-19.5-1.6V349H248v-7h16v7z" fill="#fff"/></svg>