<svg xmlns="http://www.w3.org/2000/svg" viewBox="0 0 512 512" style="enable-background:new 0 0 512 512" xml:space="preserve"><path d="M480 76H32C14.3 76 0 90.3 0 108v296c0 17.7 14.3 32 32 32h448c17.7 0 32-14.3 32-32V108c0-17.7-14.3-32-32-32zm24 32v297.4c-.4-.5-.8-.9-1.3-1.4l-148-148 148-148c.4-.4.9-.9 1.3-1.4v1.4zM32 84h448c9.2 0 17.2 5.2 21.2 12.8-1.2 2-2.6 3.8-4.2 5.5L275.8 323.5c-10.9 10.9-28.7 10.9-39.6 0L15 102.3c-1.6-1.6-3-3.5-4.2-5.5 4-7.6 12-12.8 21.2-12.8zM8 405.4V106.6c.4.5.8.9 1.3 1.4l148 148-148 148c-.4.5-.8.9-1.3 1.4zM480 428H32c-9.2 0-17.2-5.2-21.2-12.8 1.2-2 2.6-3.8 4.2-5.5l148-148 67.5 67.5c7 7 16.2 10.5 25.5 10.5s18.4-3.5 25.5-10.5l67.5-67.5 148 148c1.6 1.6 3 3.5 4.2 5.5-4 7.6-12 12.8-21.2 12.8z" style="fill:#fff"/></svg>