<svg version="1.1" xmlns="http://www.w3.org/2000/svg" x="0" y="0" viewBox="0 0 512 512" xml:space="preserve"><path d="M398 12V0H114v12h17.5v488H114v12h284v-12h-17.5V12H398zM163.5 457.5V500h-10V12h10v42.5h18.1c-.4.7-.8 1.5-1.1 2.2l-4.1 9.1c-8.4 18.4-7.6 39.6 2.1 57.4l55.3 119.4c4 8.5 4 18.4 0 26.9l-55.3 119.4c-9.7 17.7-10.5 39-2.1 57.4l4.1 9.1c.3.8.7 1.5 1.1 2.2h-18.1zm195 42.5h-10v-42.5h-18.1c.4-.7.8-1.5 1.1-2.2l4.1-9.1c8.4-18.4 7.6-39.6-2.1-57.4l-55.3-119.4c-4-8.5-4-18.4 0-26.9l55.3-119.4c9.7-17.7 10.5-39 2.1-57.4l-4.1-9.1c-.3-.8-.7-1.5-1.1-2.2h18.1V12h10v488z" fill="#fff"/></svg>