<svg version="1.1" xmlns="http://www.w3.org/2000/svg" x="0" y="0" viewBox="0 0 512 512" xml:space="preserve"><circle cx="256" cy="256" r="256" opacity=".1" fill="#fff"/><path d="M255 0C113.6 0-1 114.6-1 256s114.6 256 256 256 256-114.6 256-256S396.4 0 255 0zm173.9 429.9c-22.6 22.6-48.9 40.3-78.2 52.7-30.3 12.9-62.5 19.4-95.7 19.4s-65.4-6.5-95.8-19.3c-29.3-12.4-55.6-30.1-78.2-52.7s-40.3-48.9-52.7-78.2C15.5 321.4 9 289.2 9 256s6.5-65.4 19.3-95.8C40.7 130.9 58.4 104.6 81 82s48.9-40.3 78.2-52.7C189.6 16.5 221.8 10 255 10s65.4 6.5 95.8 19.3C380.1 41.7 406.4 59.4 429 82s40.3 48.9 52.7 78.2c12.8 30.3 19.3 62.5 19.3 95.8s-6.5 65.4-19.3 95.8c-12.4 29.2-30.2 55.6-52.8 78.1zM169.1 97.1l24.8 43-8.1 4.7-24.8-43 8.1-4.7zm-18.4 21.4l6.1-4.4 18.2 25-6.1 4.4-18.2-25zm18.2 252l6.1 4.4-18.2 25-6.1-4.4 18.2-25zm39.4-248.4l-9.6-29.4 7.1-2.3 9.6 29.4-7.1 2.3zm-65.9 3.2l20.7 23-5.6 5-20.7-23 5.6-5zm46.3-28.7l12.6 28.3-6.9 3.1-12.6-28.3 6.9-3.1zm-50.1-10.5V69.7c0-3.3-.2-4.1-2.4-4.4l-2.3-.3c-.5-.3-.5-1.5-.1-1.8 2.1-.3 4.5-.8 6.5-1.4 2.2-.6 4.1-1.6 4.5-1.6.2 0 .6.2.7.6-.1 1.1-.2 3.5-.2 6v19.3c0 4.1.3 4.6 2.8 4.8l2.1.2c.5.3.4 1.6-.1 1.8-1.8-.1-4.9-.2-8-.2-3.3 0-6.4.1-8.2.2-.5-.2-.6-1.5-.1-1.8l2.1-.2c2.5-.2 2.8-.7 2.7-4.8zm22.6 0V69.7c0-3.3-.2-4.1-2.4-4.4l-2.3-.3c-.5-.3-.5-1.5-.1-1.8 2.1-.3 4.5-.8 6.5-1.4 2.2-.6 4.1-1.6 4.5-1.6.2 0 .6.2.7.6-.1 1.1-.2 3.5-.2 6v19.3c0 4.1.3 4.6 2.8 4.8l2.1.2c.5.3.4 1.6-.1 1.8-1.8-.1-4.9-.2-8-.2-3.3 0-6.4.1-8.2.2-.5-.2-.6-1.5-.1-1.8l2.1-.2c2.5-.2 2.8-.7 2.7-4.8zm-94.5 81.8c-3.3 0-6.4.1-8.2.2-.5-.2-.6-1.5-.1-1.8l2.1-.2c2.5-.2 2.8-.7 2.8-4.8v-16.4c0-3.3-.2-4.1-2.4-4.4l-2.3-.3c-.5-.3-.5-1.5-.1-1.8 2.1-.3 4.5-.8 6.5-1.4 2.2-.6 4.1-1.6 4.5-1.6.2 0 .6.2.7.6-.1 1.1-.2 3.5-.2 6v19.3c0 4.1.3 4.6 2.8 4.8l2.1.2c.5.3.4 1.6-.1 1.8-1.8-.1-4.9-.1-8.1-.2zm48.6 63L85 224.5l1.6-7.3 30.3 6.4-1.6 7.3zM100.9 93c2.2 2.2 2.2 5.8 0 8s-5.8 2.2-8 0-2.2-5.8 0-8 5.8-2.2 8 0zM83.5 235.1l30.8 3.2-.8 7.5-30.8-3.2.8-7.5zm35.4-18.7l-29.4-9.6 2.3-7.1 29.4 9.6-2.3 7.1zm10.4-78.6l23 20.7-5 5.6-23-20.7 5-5.6zM100.8 162l43 24.8-4.7 8.1-43-24.8 4.7-8.1zm16.7-10.3l25 18.2-4.4 6.1-25-18.2 4.4-6.1zm9.5 43.7l-3.1 6.9-28.3-12.6 3.1-6.9 28.3 12.6zm-3.1 116.3l3.1 6.9-28.3 12.6-3.1-6.9 28.3-12.6zm-69-44.8c-4.2 3.9-10.9 6.8-15.2 7-.6-.3-.7-1.3-.2-1.7 9.9-2.4 15-10.9 15-20.2 0-3.9-1.1-11.2-5.4-11.2-2.3 0-3.7 2.9-3.7 5.9 0 4.1 1.7 8.5 5.1 9.1.6.1.9.1 1.4.1.2.2.4.7.3 1.1-.8.9-2.9 1.6-5 1.6-4.8 0-8.6-3.9-8.6-9 0-6.5 4.9-11.1 11.2-11.1 7.7 0 12 6 12 13 0 6.1-2.7 11.4-6.9 15.4zm248.8 125l9.6 29.4-7.1 2.3-9.6-29.4 7.1-2.3zM33.2 196.4c.8-3 3.9-4.8 6.9-4 3 .8 4.8 3.9 4 6.9-.8 3-3.9 4.8-6.9 4s-4.8-3.9-4-6.9zm309.7 220.5l-24.8-43 8.1-4.7 24.8 43-8.1 4.7zm12.3-17l-18.2-25 6.1-4.4 18.2 25-6.1 4.4zm63.9 11.2c2.2 2.2 2.2 5.8 0 8s-5.8 2.2-8 0-2.2-5.8 0-8 5.8-2.2 8 0zm3.3-316.2l5.4-5.4c27.2 27.9 47.7 62.4 58.8 100.9l-7.4 2c-2.5-8.7-5.5-17.3-9.1-25.8-11.3-26.8-27.3-50.9-47.7-71.7zm43 167.3c0-4.5-2.3-7.7-5.9-7.7-2.1 0-3.7.9-5 2.1-1-.2-1.7-1.2-1.2-2.4 2.1-.8 6.2-2.4 8.2-4.1.9-.8 2.1-2.3 2.1-4.6 0-1.9-1.7-3.7-4.2-3.7-2.4 0-4.7 1.9-6.2 4.2-.7.2-1.4-.4-1.4-1 2-4.1 6-6.4 10.6-6.4 4.9 0 8 2.4 8 5.8 0 2-.9 4.1-6.4 6.5-.5.3-.2.7.5.7 4.6-.2 8.5 2.9 8.5 7.8 0 3.6-1.7 7.3-5.8 10.3-4.4 3.1-8.9 4-11.7 4s-5.5-1-5.5-3.6c0-1.4 1-2.8 3-2.8 1.8 0 2.9 2 3.4 2.7.6.9 1.5 1.2 2.2 1.2 2.2 0 6.8-2.9 6.8-9zM348.1 449.8c3.6-.2 7.7-.9 10.1-2.3 3-1.7 4.7-4.1 4.7-6.8 0-7.2-7.6-8-12.7-8.4-1.6-.1-1.8-.5-1.5-1.7l3-11.6c.4-1.3.7-1.3 2.3-1.5l13.4-1.6c.4 0 .6.2.6.6-.5 1.9-1.5 4-2.8 5.2l-11.4 1.3c-.7.1-1 .6-1.2 1.5l-.3 1.2c-.3 1.2.4 1.4 1.4 1.5 2.7.3 7.4 1 10.3 2.5 2.9 1.5 5.4 4.3 5.4 8.5 0 5.2-3.1 8.6-7.3 10.9-4.2 2.2-9.4 3.2-13.7 3.3-.7-.4-.9-2-.3-2.6zm98.1-85.5c.8-.5.8-2.4 0-2.8h-3.3c-1.1 0-1.2-.2-1.2-1.5v-9.6c0-.5-.2-.9-.7-.9-.9 0-3.6 1-4.9 1.6-.8.3-1.1.7-1.1 1.8v5.8l-4.6-3.7 11.3-15.7c.8-1 .4-1.4-.5-1.4h-1.5c-.7 0-1.1.4-1.7 1.2l-9.9 14.1-13.8-11.1 3-5.1-4.3-2.5-2.8 4.7-24-14c.3-2 .3-4.1-.1-6.1l27.2 12.1 3.1-6.9-28.3-12.6-2.5 5.5c-1.3-4.1-4-7.7-8-10-5.3-3.1-11.4-3.1-16.6-.7l-5.3-3.1 5-8.6-4.3-2.5-5 8.6-72.1-42.2c0-.6.1-1.1.1-1.7 0-3.6-.8-7-2.3-10.1l68.7-84.7 2.5-3.1-7-5.7 2.6-3.2c2.5 1.4 5.3 1.5 7.8.5l2.8 2.5 20.7-23-5.6-5-12.8 14.2c-.4-1.1-.9-2.1-1.7-3l5.8-7.1-2.3-1.9-5.8 7.1c-.8-.4-1.6-.7-2.5-.9l11-15.1-6.1-4.4-18.2 25 2.5 1.8c-.4 2.6.3 5.3 2.1 7.4l-2.6 3.2-7-5.7-2.5 3.1-69 85.1c-1.5-.3-3-.4-4.5-.4-4.8 0-9.2 1.4-12.9 3.9l-29.1-17c-.9-3.4-3.1-6.5-6.4-8.4-5.4-3.1-12-2.3-16.4 1.7l-1.4-5.2c5.9-4 13.8-4.6 20.3-.7l2.5-4.3c-11.4-6.7-26.1-2.8-32.8 8.6-6.7 11.4-2.8 26.1 8.6 32.8l2.5-4.3c-6.5-3.8-9.9-11-9.3-18.1l5.2-1.4c-1.3 5.8 1.2 12 6.6 15.1 3.3 1.9 7 2.3 10.5 1.5l28.8 16.9c-.1.8-.1 1.5-.1 2.3 0 3.3.7 6.3 1.9 9.2l-6.7 8.2c-8.7-2-18.1.9-24.1 8.3l3.9 3.1c6.1-7.5 16.7-9.1 24.7-4.2l-7 8.7c-3.6-1.5-7.9-.6-10.5 2.6-3.1 3.9-2.5 9.5 1.3 12.7 3.9 3.1 9.5 2.5 12.7-1.3 2.6-3.2 2.6-7.6.4-10.8l7-8.7c6.4 6.8 7 17.5 1 25l3.9 3.1c5.9-7.4 6.8-17.2 3-25.3l6.4-7.9c1.8.4 3.6.7 5.5.7 5 0 9.6-1.6 13.4-4.3l71.9 42.1-5 8.6 4.3 2.5 5-8.6 5.3 3.1c.4 5.7 3.5 11 8.7 14.1 4.1 2.4 8.7 3 13 2l-3.1 4.2 25 18.2 4.4-6.1-23.6-17.2c1.5-.6 2.9-1.5 4.2-2.5l24 14-2.8 4.7 4.3 2.5 3-5.2 16.3 6.1-2.8 4c-.2.7-.1 1.4.6 1.6h11.7c1.1 0 1.2.2 1.2 1.5v1.4c0 4.2-.3 4.6-2.8 4.8l-2.1.2c-.5.3-.4 1.6.1 1.8 1.7-.1 4.8-.2 8.1-.2 2.3 0 5 .1 6.8.2.5-.2.6-1.5.1-1.8l-1.1-.1c-2.2-.2-2.5-.7-2.5-4.8v-1.4c0-.3.1-.5.1-.7l2.6 1-2.1-1.7c.2-.1.4-.1.7-.1h3.3zM188.5 217.1l-.3.6-5.9 1.6c.4-1.6 1.1-3.2 1.9-4.7.9-1.5 1.9-2.8 3.1-4l1.6 5.9c-.1.2-.3.4-.4.6zm19.9 11.7c-2.5 4.2-8 5.7-12.3 3.2-4.3-2.5-5.7-8-3.2-12.3 2.5-4.3 8-5.7 12.3-3.2s5.7 8 3.2 12.3zm2.5 4.9c.7-.7 1.3-1.5 1.8-2.4.5-.9.9-1.8 1.2-2.8l23.8 13.9c-1.2 1.6-2.3 3.3-3.1 5.1l-23.7-13.8zm24.6 44c-.9-.6-1.8-1.1-2.7-1.5l4.3-5.4c.6.8 1.3 1.6 2 2.4l-3.6 4.5zm5.8 5.4c-.6-.8-1.3-1.6-2-2.3l3.6-4.4c.8.6 1.7 1.1 2.6 1.5l-4.2 5.2zm27.1-45.9l-2.7-1.5 67.7-83.5 2.3 1.9-67.3 83.1zm3.9 3l67.3-83 2.3 1.9-67.6 83.3c-.6-.8-1.3-1.5-2-2.2zm72.7 71.9L274.7 271c1.2-1.6 2.2-3.4 3-5.2l70.3 41.1-3 5.2zm8.4 1.5c-.5.9-.9 1.8-1.3 2.7l-2.8-1.7 3-5.2 2.8 1.7c-.6.8-1.2 1.6-1.7 2.5zm74.2 47.9c-1.6 0-1.6-.4-1.1-1.1l.5-.8 5 1.9h-4.4zm40.3-48.7c.8-3 3.9-4.8 6.9-4s4.8 3.9 4 6.9-3.9 4.8-6.9 4c-3-.8-4.8-3.9-4-6.9zm6.9-109.5c-3 .8-6.1-1-6.9-4s1-6.1 4-6.9c3-.8 6.1 1 6.9 4 .8 3-1 6.1-4 6.9zM323.3 417.4l-12.6-28.3 6.9-3.1 12.6 28.3-6.9 3.1zm-62.6-28.2v49.7h-9.4v-49.7h9.4zm108.9-.5l-20.7-23 5.6-5 20.7 23-5.6 5zm-99.2 41.7l-3.2-30.8 7.5-.8 3.2 30.8-7.5.8zM37.2 308.9c3-.8 6.1 1 6.9 4 .8 3-1 6.1-4 6.9s-6.1-1-6.9-4 1-6.1 4-6.9zm120 118.6c1.1-2 1.7-3.1 1.7-4 0-.6-.7-.8-1.5-.8h-10.7c-2.9 0-3.4.4-4.6 2.5-.4.4-1.5.2-1.7-.4.9-2.5 1.5-5.7 2-7.6 1.7.1 2.9.2 6.1.2h9.7c3.1 0 6.6-.1 7.3-.2.4.1.6.5.5.8-1.3 1.9-2.9 4.7-5 8.4l-14.6 25.8c-.8.1-2.3-.5-2.4-1.6l13.2-23.1zm65.4-31.5l7.3 1.6-6.4 30.3-7.3-1.6 6.4-30.3zm59.5 1.6l7.3-1.6 6.4 30.3-7.3 1.6-6.4-30.3zm100.6-21.4l-23-20.7 5-5.6 23 20.7-5 5.6zm-138.3 87.3c0-5.7 2.5-11.4 6.6-15.3 3.9-3.7 10-6.6 16.1-6.9.6.3.7 1.2.2 1.8-6.2 1.5-8.9 3.6-11.7 7.1-2.7 3.3-3.8 8.2-3.8 12.9 0 5.4 1.8 11.7 5.6 11.7 3 0 3.8-3.3 3.8-5.7 0-3.4-1.4-9.6-5.8-9.6-.4 0-.7 0-1.2.1-.3-.2-.5-.5-.4-.9.9-1 3.3-2.2 5.1-2.2 6.3 0 9.1 4.7 9.1 9.6 0 6.6-4.6 11.2-11.6 11.2-7.7 0-12.1-5.6-12-13.8zm-7.1-64.7l7.5.8-3.2 30.8-7.5-.8 3.2-30.8zm14-323.7h9.4v49.7h-9.4V75.1zM419.1 93c2.2 2.2 2.2 5.8 0 8s-5.8 2.2-8 0-2.2-5.8 0-8 5.8-2.2 8 0zm-24.6 58.7l4.4 6.1-25 18.2-4.4-6.1 25-18.2zm-26.4 35.2l43-24.8 4.7 8.1-43 24.8-4.7-8.1zm14.6-49.1l5 5.6-23 20.7-5-5.6 23-20.7zm-67-104.5c3 .8 4.8 3.9 4 6.9s-3.9 4.8-6.9 4-4.8-3.9-4-6.9c.8-3 3.9-4.8 6.9-4zm30.7 9.6c-8.8-3.8-17.8-6.9-26.9-9.5l2-7.4c38.4 10.9 73 31.2 101 58.2l-5.4 5.4c-20.6-19.9-44.3-35.6-70.7-46.7zm82.1 236l-30.8-3.2.8-7.5 30.8 3.2-.8 7.5zM77.4 152.2c0 8.2 3.5 16.6 11.7 16.6s11.7-8.4 11.7-16.6c0-7.9-3.5-16.6-11.7-16.6s-11.7 8.7-11.7 16.6zm16-.1c0 4.5-.5 14.2-4.3 14.2s-4.3-9.7-4.3-14.2.5-14.2 4.3-14.2 4.3 9.7 4.3 14.2zM199.7 31.5l-2-7.4c18.7-4.6 38.2-7.1 58.3-7.1 20.1 0 39.6 2.5 58.3 7.1l-2 7.4c-18.3-4.6-37.1-6.9-56.3-6.9s-38 2.3-56.3 6.9zm216.7 158.2l-28.3 12.6-3.1-6.9 28.3-12.6 3.1 6.9zm21.5 72h-49.7v-9.4h49.7v9.4zm-39.4-15.9l-.8-7.5 30.8-3.2.8 7.5-30.8 3.2zm26.9-28.6l1.6 7.3-30.3 6.4-1.6-7.3 30.3-6.4zM496 257c0 19.8-2.5 39.1-7 57.6l-7.4-2c4.4-18 6.7-36.6 6.7-55.6 0-19.6-2.4-38.8-7.1-57.4l7.4-2c4.8 19 7.4 38.9 7.4 59.4zm-77.9 166.4l5.4 5.4c-28 27.4-62.8 47.9-101.5 59l-2-7.4c8.9-2.5 17.7-5.6 26.4-9.3 26.8-11.3 50.9-27.3 71.7-47.7zm-221.8 55.5c-3-.8-4.8-3.9-4-6.9s3.9-4.8 6.9-4 4.8 3.9 4 6.9-3.9 4.7-6.9 4zm0-445.6c3-.8 6.1 1 6.9 4s-1 6.1-4 6.9-6.1-1-6.9-4c-.8-3 1-6.1 4-6.9zM319.7 472c.8 3-1 6.1-4 6.9s-6.1-1-6.9-4 1-6.1 4-6.9 6.1.9 6.9 4zm160-152.2l7.4 2c-10.8 38.8-31.2 73.5-58.3 101.7l-5.4-5.4c19.9-20.6 35.6-44.4 46.7-70.7 3.8-9 7-18.2 9.6-27.6zm-86.6-22.2l29.4 9.6-2.3 7.1-29.4-9.6 2.3-7.1zm-80.5 184.8l2 7.4c-18.8 4.8-38.5 7.3-58.7 7.3-20.2 0-39.9-2.6-58.7-7.3l2-7.4c18.5 4.7 37.5 7 56.8 7s38.3-2.4 56.6-7zM94.9 89.6l-5.4-5.4c28-27 62.5-47.3 101-58.2l2 7.4c-9.1 2.6-18.1 5.8-26.9 9.5-26.4 11.1-50.1 26.8-70.7 46.7zM32.7 192.4l-7.4-2c11.1-38.5 31.6-73 58.8-100.9l5.4 5.4c-20.3 20.9-36.3 45-47.6 71.7-3.6 8.4-6.6 17-9.2 25.8zm55.8 225.8l-5.4 5.4c-27.1-28.2-47.4-63-58.3-101.7l7.4-2c2.7 9.3 5.9 18.5 9.7 27.5 11.1 26.4 26.8 50.1 46.6 70.8zM30.3 312.6l-7.4 2c-4.6-18.4-7-37.7-7-57.6 0-20.5 2.6-40.4 7.4-59.4l7.4 2c-4.7 18.6-7.1 37.8-7.1 57.4 0 19 2.3 37.6 6.7 55.6zm135.3 158.6c8.6 3.6 17.4 6.7 26.4 9.3l-2 7.4c-38.7-11.1-73.4-31.6-101.5-59l5.4-5.4c20.8 20.3 44.9 36.3 71.7 47.7zm254.6-271.5l2.3 7.1-29.4 9.6-2.3-7.1 29.4-9.6zM129.3 376.2l-5-5.6 23-20.7 5 5.6-23 20.7zm296.1-79.4l-30.3-6.4 1.6-7.3 30.3 6.4-1.6 7.3zm-281.5 30.3l-43 24.8-4.7-8.1 43-24.8 4.7 8.1zm-51 92c-2.2-2.2-2.2-5.8 0-8s5.8-2.2 8 0 2.2 5.8 0 8-5.8 2.2-8 0zm76.3-2.3l-8.1-4.7 24.8-43 8.1 4.7-24.8 43zm-26.8-28l-5.6-5 20.7-23 5.6 5-20.7 23zM74.1 252.3h49.7v9.4H74.1v-9.4zm8.5 19.1l30.8-3.2.8 7.5-30.8 3.2-.8-7.5zm106.1 146l-6.9-3.1 12.6-28.3 6.9 3.1-12.6 28.3zm-71.7-127l-30.3 6.4-1.6-7.3 30.3-6.4 1.6 7.3zm-25.2 23.9l-2.3-7.1 29.4-9.6 2.3 7.1-29.4 9.6zm-14.2 60.3c7.9 0 11.6-4 11.6-8.8 0-4.9-3-7.6-6.8-9.5 2.7-1.5 5.5-3.4 5.5-7 0-4.8-4.1-7.9-9.8-7.9-6.3 0-10.4 3.7-10.4 8.7 0 3.6 2.3 6.1 5.4 7.8-4 2-6.7 4.6-6.7 8.4 0 5.5 5.2 8.2 11.2 8.3zm.4-30.9c2 0 4.2 2 4.2 5.5 0 2.4-.8 4.5-2.4 5.5-4.2-1.8-5.9-3.9-5.9-6.3 0-2.7 1.8-4.7 4.1-4.7zm-2.4 15.5c4.2 2 7 4.1 7 8.1 0 3.1-2 4.8-4.2 4.8-3.3 0-5.4-2.9-5.4-6.4 0-2.4.7-4.6 2.6-6.5zm41.9 3.1l-4.4-6.1 25-18.2 4.4 6.1-25 18.2zM323.3 96.6l6.9 3.1-12.6 28.3-6.9-3.1 12.6-28.3zm19.5.6l8.1 4.7-24.8 43-8.1-4.7 24.8-43zm-137 326.3l-7.1-2.3 9.6-29.4 7.1 2.3-9.6 29.4zm224.1-264.3c3.5-3.8 6.6-8.1 6.6-13.5 0-3.5-2.1-6.2-5.5-6.2-2.9 0-4.9 1.9-6.5 4.7-.6.4-1.6.1-1.7-.7 2-5.1 6.7-7.9 11.6-7.9 6 0 9.6 3.8 9.6 8.6 0 3.9-1.5 6.8-7.6 12.5L434 159c-2.2 2.1-2.7 2.8-2.7 3.2 0 .3.3.6 1 .6h6.1c3.7 0 4.3-.1 5.8-2.8.3-.4 1.5-.4 1.7.3-.5 3.1-1.6 6.6-2.5 7.8-2-.1-3.9-.2-7.1-.2h-8c-2.7 0-4.8.1-5.7.2-.4-.1-.6-.6-.5-1.1 1.9-1.8 4.8-4.4 7.8-7.8zM295.8 87.7l-6.4 30.3-7.3-1.6 6.4-30.3 7.3 1.6zm10.4 2.8l7.1 2.3-9.6 29.4-7.1-2.3 9.6-29.4zm49.5-4.4V69.7c0-3.3-.2-4.1-2.4-4.4L351 65c-.5-.3-.5-1.5-.1-1.8 2.1-.3 4.5-.8 6.5-1.4 2.2-.6 4.1-1.6 4.5-1.6.2 0 .6.2.7.6-.1 1.1-.2 3.5-.2 6v19.3c0 4.1.3 4.6 2.8 4.8l2.1.2c.5.3.4 1.6-.1 1.8-1.8-.1-4.9-.2-8-.2-3.3 0-6.4.1-8.2.2-.5-.2-.6-1.5-.1-1.8l2.1-.2c2.5-.2 2.8-.7 2.7-4.8zm-125.8 30.3l-7.3 1.6-6.4-30.3 7.3-1.6 6.4 30.3zm9.7-57.8V42.2c0-3.3-.2-4.1-2.4-4.4l-2.3-.3c-.5-.3-.5-1.5-.1-1.8 2.1-.3 4.5-.8 6.5-1.4 2.2-.6 4.1-1.6 4.5-1.6.2 0 .6.2.7.6-.1 1.1-.2 3.5-.2 6v19.2c0 4.1.3 4.6 2.8 4.8l2.1.2c.5.3.4 1.6-.1 1.8-1.8-.1-4.9-.2-8-.2-3.3 0-6.4.1-8.2.2-.5-.2-.6-1.5-.1-1.8l2.1-.2c2.5-.2 2.8-.7 2.7-4.7zm30.8 25l7.5.8-3.2 30.8-7.5-.8 3.2-30.8zm-36.3.8l7.5-.8 3.2 30.8-7.5.8-3.2-30.8zm30.7-28.1c3.5-3.8 6.6-8.1 6.6-13.5 0-3.5-2.1-6.2-5.5-6.2-2.9 0-4.9 1.9-6.5 4.7-.6.4-1.6.1-1.7-.7 2-5.1 6.7-7.9 11.6-7.9 6 0 9.6 3.8 9.6 8.6 0 3.9-1.5 6.8-7.6 12.5l-2.4 2.3c-2.2 2.1-2.7 2.8-2.7 3.2 0 .3.3.6 1 .6h6.1c3.7 0 4.3-.1 5.8-2.8.3-.4 1.5-.4 1.7.3-.5 3.1-1.6 6.6-2.5 7.8-2-.1-3.9-.2-7.1-.2h-8c-2.7 0-4.8.1-5.7.2-.4-.1-.6-.6-.5-1.1 1.9-1.8 4.8-4.5 7.8-7.8z" fill="#fff"/></svg>