<svg version="1.1" xmlns="http://www.w3.org/2000/svg" x="0" y="0" viewBox="0 0 512 512" xml:space="preserve"><path d="M506.4 261.2L471.9 251c-.2-8.7-.9-17.3-2.1-25.7l32.3-15.7c3.2-1.7 4.9-5.5 4-9l-1.9-7.5-1.9-7.5c-.9-3.6-4.1-6-7.8-6l-35.8 1.6c-3-8.1-6.5-16-10.4-23.6l25.4-25.3c2.5-2.7 2.8-6.7.8-9.8l-4.2-6.5-4.2-6.5c-2-3.1-5.8-4.4-9.3-3.2l-33.4 13.1c-5.4-6.7-11.3-13-17.5-19l15.9-32.2c1.5-3.4.5-7.3-2.4-9.5l-6.1-4.8-6.1-4.8c-2.9-2.3-7-2.2-9.8 0L370 72.5c-7.3-4.5-14.9-8.6-22.7-12.3l4.5-35.6c.3-3.7-1.9-7.1-5.4-8.3l-7.3-2.5-7.3-2.5c-3.5-1.2-7.3.1-9.3 3.2l-18.3 30.8c-8.3-1.9-16.8-3.3-25.5-4.2L271.4 6c-.9-3.6-4.1-6.1-7.8-6.1h-15.4c-3.7 0-6.9 2.5-7.8 6.1l-7.3 35.1c-8.6.9-17.1 2.3-25.5 4.2l-18.3-30.8c-2-3.1-5.8-4.4-9.3-3.2l-7.3 2.5-7.3 2.5c-3.5 1.2-5.7 4.6-5.4 8.3l4.5 35.6c-7.8 3.7-15.4 7.8-22.7 12.3l-27.3-23.3c-2.9-2.3-6.9-2.3-9.8 0L98.8 54l-6.1 4.8c-2.9 2.3-3.9 6.2-2.4 9.5l15.9 32.2c-6.2 6-12 12.3-17.5 19l-33.4-13.1c-3.5-1.2-7.3.1-9.3 3.2l-4.2 6.5-4.2 6.5c-2 3.1-1.7 7.1.8 9.8l25.4 25.3c-3.9 7.6-7.4 15.5-10.4 23.6l-35.8-1.6c-3.7 0-6.9 2.5-7.8 6l-1.9 7.5-1.9 7.5c-.9 3.6.7 7.3 4 9l32.3 15.7c-1.2 8.4-1.9 17-2.1 25.7L5.6 261.2c-3.5 1.2-5.7 4.6-5.4 8.2l.6 7.7.6 7.7c.3 3.7 3.1 6.6 6.7 7.2l35.6 4.3c1.6 8.5 3.7 16.9 6.3 25L20.8 342c-2.9 2.2-3.9 6.2-2.4 9.5l3.1 7.1 3.1 7.1c1.5 3.4 5 5.3 8.7 4.7l35.1-7.5c4.3 7.5 9 14.7 14.1 21.6l-20.9 29.1c-2 3.1-1.7 7.1.8 9.8l5.3 5.7 5.3 5.7c2.5 2.7 6.5 3.4 9.7 1.6l30.8-18.5c6.5 5.7 13.2 11 20.3 15.9l-10.3 34.4c-.9 3.6.7 7.3 3.9 9l6.8 3.7 6.8 3.7c3.2 1.7 7.2 1.1 9.7-1.6l23.1-27.4c7.9 3.3 16.1 6.1 24.4 8.4l1.4 35.8c.3 3.7 3 6.7 6.7 7.3l7.6 1.3 7.6 1.3c3.6.6 7.2-1.3 8.7-4.7l12.9-33.5c4.3.3 8.6.4 12.9.4 4.3 0 8.6-.1 12.9-.4l12.9 33.5c1.5 3.4 5 5.3 8.7 4.7l7.6-1.3 7.6-1.3c3.6-.6 6.4-3.6 6.7-7.3l1.4-35.8c8.4-2.3 16.5-5.1 24.4-8.4l23.1 27.4c2.5 2.7 6.5 3.4 9.7 1.6l6.8-3.7 6.8-3.7c3.2-1.7 4.9-5.5 3.9-9l-10.3-34.4c7.1-4.9 13.9-10.2 20.3-15.9l30.8 18.5c3.2 1.8 7.2 1.1 9.7-1.6l5.3-5.7 5.3-5.7c2.5-2.7 2.8-6.7.8-9.8l-20.9-29.1c5.1-6.9 9.8-14.1 14.1-21.6l35.1 7.5c3.6.6 7.2-1.3 8.7-4.7l3.1-7.1 3.1-7.1c1.5-3.4.5-7.3-2.4-9.5L462 321.3c2.6-8.1 4.7-16.5 6.3-25l35.6-4.3c3.6-.6 6.4-3.6 6.7-7.2l.6-7.7.6-7.7c.3-3.6-2-7-5.4-8.2zM278.5 404.3v-69.5c13.2-3.7 25-10.7 34.5-19.9l60.2 34.7c-23.1 28.8-56.5 49-94.7 54.7zm-139.7-54.7l60.2-34.7c9.6 9.3 21.4 16.2 34.5 19.9v69.5c-38.2-5.7-71.6-25.9-94.7-54.7zM406 256c0 19.3-3.6 37.7-10.3 54.7L335.5 276c1.6-6.4 2.5-13.1 2.5-19.9 0-6.9-.9-13.6-2.5-19.9l60.2-34.7c6.7 16.8 10.3 35.2 10.3 54.5zm-300 0c0-19.3 3.6-37.7 10.3-54.7l60.2 34.7c-1.6 6.4-2.5 13.1-2.5 19.9 0 6.9.9 13.6 2.5 19.9l-60.2 34.7c-6.7-16.8-10.3-35.2-10.3-54.5zm267.2-93.6L313 197.1c-9.6-9.3-21.4-16.2-34.5-19.9v-69.5c38.2 5.7 71.6 25.9 94.7 54.7zm-139.7 14.8c-13.2 3.7-25 10.7-34.5 19.9l-60.2-34.7c23.1-28.8 56.5-48.9 94.7-54.7v69.5z" fill="#fff"/></svg>