<svg version="1.1" xmlns="http://www.w3.org/2000/svg" x="0" y="0" viewBox="0 0 512 512" xml:space="preserve"><path d="m503.6 40-52.3 104.2-5.1 5-86 84.2-113.7-22.2v-22.9c0-8.8-7.2-16-16-16H223c-16.8-32.5-55.6-69.3-100.3-79-32.5-7.1-63 1.4-88.3 24.6-17.2 15.7-28.1 36.9-32.3 63-3.5 21.3-2.5 46 2.8 73.4 9.1 46.8 28.2 88.4 36.5 105.1v98.9c0 8.8 7.2 16 16 16h173c8.8 0 16-7.2 16-16v-51.9l216.5-241.9 4.1-4.5 31.3-8.1c8.1-2.1 13.7-9 13.7-17V41.8c0-4.4-6.4-5.8-8.4-1.8zM57.4 172.4c-8.8 0-16 7.2-16 16v142.1c-21.4-50.7-54.4-153 1-203.7 22.7-20.7 48.8-28 77.7-21.7 37.3 8.1 72.1 38.6 89.2 67.3H57.4zM284 307.9l-37.7-5.9v-78.5l103.3 20.1-65.6 64.3z" fill="#fff"/></svg>