<svg version="1.1" xmlns="http://www.w3.org/2000/svg" x="0" y="0" viewBox="0 0 512 512" xml:space="preserve"><path d="M313 0H199c-24.9 0-45 20.1-45 45v137c0 24.9 20.1 45 45 45h1c3.9 0 7 3.1 7 7v66c0 3.9 3.1 7 7 7 3.3 0 6 2.7 6 6v11l8 8v11l-8 8v34.5l8 8v13.2l-8 8v13l8.2 8.2-8.2 8.1v25.9c0 6.6 2.7 12.9 7.5 17.4l18.8 17.8 5.5 5.2c2.3 2.2 5.9 2.2 8.2 0l2.9-2.7 14.3-13.5 7.1-6.7c4.8-4.5 7.5-10.8 7.5-17.4v-20.8l-8.5-8.5v-9l8.5-8.5v-9.8l-7.5-7.5 7.5-7.5v-7.6l-7.9-7.9v-7.4l7.9-7.9v-8.2l-8-8v-21.8l8-8v-9.4c0-.2 0-.3.1-.5v-.2c0-.1.1-.3.1-.4 0 0 0-.1.1-.1.1-.2.1-.3.2-.4 0 0 0-.1.1-.1.1-.2.2-.3.2-.5v-.1c.1-.2.2-.3.3-.5.1-.2.2-.3.4-.5l.4-.4c1.1-1 2.5-1.5 4-1.5 3.9 0 7-3.1 7-7v-66c0-3.9 3.1-7 7-7h1c24.9 0 45-20.1 45-45V45C358 20.1 337.9 0 313 0zm-57 40.5c13.8 0 25 11.2 25 25s-11.2 25-25 25-25-11.2-25-25 11.2-25 25-25z" fill="#fff"/></svg>