<svg version="1.1" xmlns="http://www.w3.org/2000/svg" x="0" y="0" viewBox="0 0 512 512" xml:space="preserve"><path d="M290.1 66.7l-9.2-5.4V27l-50-27v51.3l-9.7 7.9c-1.4 1.1-2.2 2.9-2.2 4.7v350l-.1.1v51.3c.3 2.9 2.9 27.2 11.8 39.5 3 4.2 6.7 7 11.3 7.3 17 .9 40.5-37.6 45.2-45.6.5-.9.8-2 .8-3V95.9c0-1.6.2-3.2.6-4.8l4.4-17.8c.5-2.5-.6-5.2-2.9-6.6z" opacity=".1" fill="#fff"/><path d="M290.1 66.7l-9.2-5.4V27l-50-27v51.3l-9.7 7.9c-1.4 1.1-2.2 2.9-2.2 4.7v350l-.1.1v51.3c.3 2.9 2.9 27.2 11.8 39.5 3 4.2 6.7 7 11.3 7.3 17 .9 40.5-37.6 45.2-45.6.5-.9.8-2 .8-3V95.9c0-1.6.2-3.2.6-4.8l4.4-17.8c.5-2.5-.6-5.2-2.9-6.6zM245 309.5c.5 1.8 2.6 2.9 4.4 1.8l5.6-3.3 6.8-4 8.6-5.1c.9-.5 1.5-1.5 1.5-2.6v151.5l-27 19.6V316m27-132.7c0-2.3-2.5-3.8-4.5-2.6l-21 12.4c-.9.6-1.5 1.5-1.5 2.6v-70c0-1.1.6-2 1.5-2.6l21-12.4c2-1.2 4.5.3 4.5 2.6v70z" fill="#fff"/></svg>