<svg version="1.1" xmlns="http://www.w3.org/2000/svg" x="0" y="0" viewBox="0 0 512 512" xml:space="preserve"><path d="m396.9 20.5-94.1 27.8c-3.4 1-5.7 4.1-5.7 7.7v4h-19c-1.1 0-2 .9-2 2v2h-6c.9-.7 1.6-1.7 1.9-2.8l2-8c.6-2.2-.4-4.6-2.5-5.7l-63.4-33.2L164.5.2c-2.8-.9-5.8.8-6.4 3.7-.6 2.5 1.1 5.1 3.5 5.9L204 23.6l27.2 14.3c1.7.9 3.1 2.4 3.8 4.3l3 7.8-4.4 5.6c-1.4 1.7-3.4 2.8-5.6 3l-59 5.5-23.5 7.1c-2.6.8-4.1 3.6-3.3 6.2.7 2.2 2.6 3.5 4.8 3.5.5 0 1-.1 1.5-.2l22.5-6.9 74-6.9V74h-10c-1.1 0-2 .9-2 2v1.5h-2c0-1.1-.9-2-2-2h-1c-1.1 0-2 .9-2 2v8c0 1.1.9 2 2 2h1c1.1 0 2-.9 2-2h2V87c0 1.1.9 2 2 2h10v9h-7v20l-22.4 14.4c-10.3 6.6-16.6 18-16.6 30.3V476c0 19.9 16.1 36 36 36h42c19.9 0 36-16.1 36-36V162.7c0-12.3-6.2-23.7-16.6-30.3L274 118V98h-10V83h12v2c0 1.1.9 2 2 2h19v4c0 3.5 2.3 6.7 5.7 7.7l94.1 27.8c2.6.8 5.1-1.2 5.1-3.8V24.4c.1-2.7-2.5-4.6-5-3.9z" opacity=".1" fill="#fff"/><path d="M279.5 304.1c0 8.4-4.5 15.8-11.1 20h-4c2.2-2.2 3.5-5.1 3.5-8.4 0-3.6-1.9-11-5.6-17.5-3.1-5.5-8.1-10.6-8.1-10.6s-1.5 5.6-4.1 11.9c-2.5 6.1-6 12.9-6 16.2 0 3.3 1.4 6.3 3.5 8.4h-4c-6.7-4.2-11.1-11.6-11.1-20 0-6.6 2.6-18.4 6.9-29.6v3.8c0 2.8 2.3 5.1 5.1 5.1s5.1-2.3 5.1-5.1V261c0-4.8 2.3-9.3 6.1-12h.1c-.7 1.3 4.1 16.9 9.4 27.3.2.3.3.6.5.9 2 3.7 3 7.7 3 11.9v4.6c0 1.9 1.5 3.5 3.5 3.5s3.5-1.5 3.5-3.5v-2c2.3 3.3 3.8 6.9 3.8 12.4zM402 24.4v98.2c0 2.7-2.6 4.6-5.1 3.8l-94.1-27.8c-3.4-1-5.7-4.1-5.7-7.7v-4h-19c-1.1 0-2-.9-2-2v-2h-12v15h10v20l22.4 14.4c10.3 6.6 16.6 18 16.6 30.3V476c0 19.9-16.1 36-36 36h-42c-19.9 0-36-16.1-36-36V162.7c0-12.3 6.2-23.7 16.6-30.3L238 118V98h7v-9h-10c-1.1 0-2-.9-2-2v-1.5h-2c0 1.1-.9 2-2 2h-1c-1.1 0-2-.9-2-2v-8c0-1.1.9-2 2-2h1c1.1 0 2 .9 2 2h2V76c0-1.1.9-2 2-2h10v-6.9L171 74l-22.5 6.9c-.5.1-1 .2-1.5.2-2.1 0-4.1-1.4-4.8-3.5-.8-2.6.7-5.4 3.3-6.2l23.5-7.1 59-5.5c2.2-.2 4.2-1.3 5.6-3L238 50l-2.9-7.8c-.7-1.8-2-3.4-3.8-4.3l-27.2-14.3-42.4-13.8c-2.5-.8-4.1-3.3-3.5-5.9.7-2.9 3.7-4.6 6.4-3.7L208 14.3l63.4 33.2c2.1 1.1 3.1 3.5 2.5 5.7l-2 8c-.3 1.1-1 2.1-1.9 2.8h6v-2c0-1.1.9-2 2-2h19v-4c0-3.5 2.3-6.7 5.7-7.7l94.1-27.8c2.6-.7 5.2 1.2 5.2 3.9zM222.5 217c-4.4 0-8 3.6-8 8v123c0 4.4 3.6 8 8 8h67c4.4 0 8-3.6 8-8V225c0-4.4-3.6-8-8-8h-67z" fill="#fff"/></svg>