<svg version="1.1" xmlns="http://www.w3.org/2000/svg" x="0" y="0" viewBox="0 0 512 512" xml:space="preserve"><path opacity=".1" fill="#fff" d="M93 12h326v488H93z"/><path d="M23 0v512h466V0H23zm61.5 486.5c0 4.4-3.6 8-8 8h-23c-4.4 0-8-3.6-8-8v-13c0-4.4 3.6-8 8-8h23c4.4 0 8 3.6 8 8v13zm0-64c0 4.4-3.6 8-8 8h-23c-4.4 0-8-3.6-8-8v-13c0-4.4 3.6-8 8-8h23c4.4 0 8 3.6 8 8v13zm0-64c0 4.4-3.6 8-8 8h-23c-4.4 0-8-3.6-8-8v-13c0-4.4 3.6-8 8-8h23c4.4 0 8 3.6 8 8v13zm0-64c0 4.4-3.6 8-8 8h-23c-4.4 0-8-3.6-8-8v-13c0-4.4 3.6-8 8-8h23c4.4 0 8 3.6 8 8v13zm0-64c0 4.4-3.6 8-8 8h-23c-4.4 0-8-3.6-8-8v-13c0-4.4 3.6-8 8-8h23c4.4 0 8 3.6 8 8v13zm0-64c0 4.4-3.6 8-8 8h-23c-4.4 0-8-3.6-8-8v-13c0-4.4 3.6-8 8-8h23c4.4 0 8 3.6 8 8v13zm0-64c0 4.4-3.6 8-8 8h-23c-4.4 0-8-3.6-8-8v-13c0-4.4 3.6-8 8-8h23c4.4 0 8 3.6 8 8v13zm0-64c0 4.4-3.6 8-8 8h-23c-4.4 0-8-3.6-8-8v-13c0-4.4 3.6-8 8-8h23c4.4 0 8 3.6 8 8v13zM419 500H93V12h326v488zm47.5-13.5c0 4.4-3.6 8-8 8h-23c-4.4 0-8-3.6-8-8v-13c0-4.4 3.6-8 8-8h23c4.4 0 8 3.6 8 8v13zm0-64c0 4.4-3.6 8-8 8h-23c-4.4 0-8-3.6-8-8v-13c0-4.4 3.6-8 8-8h23c4.4 0 8 3.6 8 8v13zm0-64c0 4.4-3.6 8-8 8h-23c-4.4 0-8-3.6-8-8v-13c0-4.4 3.6-8 8-8h23c4.4 0 8 3.6 8 8v13zm0-64c0 4.4-3.6 8-8 8h-23c-4.4 0-8-3.6-8-8v-13c0-4.4 3.6-8 8-8h23c4.4 0 8 3.6 8 8v13zm0-64c0 4.4-3.6 8-8 8h-23c-4.4 0-8-3.6-8-8v-13c0-4.4 3.6-8 8-8h23c4.4 0 8 3.6 8 8v13zm0-64c0 4.4-3.6 8-8 8h-23c-4.4 0-8-3.6-8-8v-13c0-4.4 3.6-8 8-8h23c4.4 0 8 3.6 8 8v13zm0-64c0 4.4-3.6 8-8 8h-23c-4.4 0-8-3.6-8-8v-13c0-4.4 3.6-8 8-8h23c4.4 0 8 3.6 8 8v13zm0-64c0 4.4-3.6 8-8 8h-23c-4.4 0-8-3.6-8-8v-13c0-4.4 3.6-8 8-8h23c4.4 0 8 3.6 8 8v13z" fill="#fff"/></svg>