<svg version="1.1" xmlns="http://www.w3.org/2000/svg" x="0" y="0" viewBox="0 0 512 512" style="enable-background:new 0 0 512 512" xml:space="preserve"><path d="M255.5 17.2c57.7 22.9 118 39.2 179.4 48.8.1 5.3.1 10.6.1 15.7 0 73.4-8.3 146.6-24.6 217.5-10 43.3-31.7 82.7-62.9 114.1-28.5 28.6-59.3 55.2-91.9 79-32.6-23.8-63.5-50.4-91.9-79-2-2.1-4.1-4.2-6-6.3-13-14.1-24.3-29.8-33.5-46.6-9.5-17.2-16.8-35.6-21.7-54.5-.6-2.2-1.1-4.4-1.6-6.7-4.1-17.8-7.7-36-10.8-54-3.3-19.3-6-38.9-8.1-58.4-2.2-20.6-3.8-41.6-4.7-62.5-1-14.1-1.3-28.4-1.3-42.6 0-5.1 0-10.3.1-15.7 19.4-3 38.9-6.7 57.9-11.1 20.2-4.6 40.5-10.1 60.3-16.2 20.6-6.3 41.2-13.5 61.2-21.5m0-17.2C234 8.7 212 16.5 189.7 23.4c-19.4 6-39.2 11.3-59.2 15.9-23 5.3-46.4 9.6-70 12.8-.3 9.9-.5 19.7-.5 29.6 0 14.5.3 29 .9 43.3.9 21.3 2.5 42.5 4.8 63.5 2.2 20 4.9 39.8 8.3 59.3 3.2 18.5 6.8 36.8 11 54.9.5 2.4 1.1 4.8 1.7 7.1 5.3 20.4 13.1 39.9 23.2 58.2 9.8 17.9 21.9 34.6 35.8 49.8 2.1 2.3 4.2 4.5 6.4 6.7 31.8 32 66.4 61.3 103.3 87.4 36.9-26.1 71.5-55.4 103.3-87.4 33.3-33.5 56.6-75.8 67.2-121.8 16.4-71 25-145 25-221.1 0-9.9-.2-19.7-.5-29.5C382.5 42.7 317.2 25 255.5 0z" style="fill:#fff"/></svg>