<svg version="1.1" xmlns="http://www.w3.org/2000/svg" x="0" y="0" viewBox="0 0 512 512" xml:space="preserve"><path d="M184.8 195.4V457c0 4.3-3.4 7.6-7.6 7.6h-57.6c-4.3 0-7.6-3.4-7.6-7.6V195.4c0-4.3 3.4-7.6 7.6-7.6h57.6c4.3 0 7.6 3.4 7.6 7.6zm-85.4 21.7H85.3c-4.2 0-7.6 3.3-7.6 7.6V457c0 4.2 3.3 7.6 7.6 7.6h14.1c4.2 0 7.6-3.3 7.6-7.6V224.7c0-4.2-3.3-7.6-7.6-7.6zM391.3 95.9H170.2c-4.2 0-7.6 3.3-7.6 7.6v5c0 4.2 3.3 7.6 7.6 7.6h221.2c4.2 0 7.6-3.3 7.6-7.6v-5h-.1c0-4.2-3.3-7.6-7.6-7.6zM200.4 217.1h-3c-4.2 0-7.6 3.3-7.6 7.6V457c0 4.2 3.3 7.6 7.6 7.6h3c4.2 0 7.6-3.3 7.6-7.6V224.7c0-4.2-3.3-7.6-7.6-7.6zM65.1 154.5H7.6c-4.2 0-7.6 3.3-7.6 7.6V457c0 4.2 3.3 7.6 7.6 7.6h57.6c4.2 0 7.6-3.3 7.6-7.6V162.1h-.1c0-4.2-3.3-7.6-7.6-7.6zm410.5 77.7c-3.3 0-6.1 3.4-6.1 7.6V457c0 4.2 2.7 7.6 6.1 7.6 3.3 0 6.1-3.4 6.1-7.6V239.8c0-4.2-2.7-7.6-6.1-7.6zM163.1 90.9h240.3c4.2 0 7.6-3.3 7.6-7.6V55c0-4.2-3.3-7.6-7.6-7.6H163.1c-4.2 0-7.6 3.3-7.6 7.6v28.3c0 4.2 3.3 7.6 7.6 7.6zM413.5 212h-17.2c-4.2 0-7.6 3.3-7.6 7.6V457c0 4.2 3.3 7.6 7.6 7.6h17.2c4.2 0 7.6-3.3 7.6-7.6V219.6c0-4.2-3.3-7.6-7.6-7.6zm43.4-24.2h-23.2c-4.2 0-7.6 3.3-7.6 7.6V457c0 4.2 3.3 7.6 7.6 7.6H457c4.2 0 7.6-3.3 7.6-7.6V195.4h-.1c0-4.2-3.3-7.6-7.6-7.6zm47.5 48.5h-10.1c-4.2 0-7.6 3.3-7.6 7.6V457c0 4.2 3.3 7.6 7.6 7.6h10.1c4.2 0 7.6-3.3 7.6-7.6V243.9c0-4.2-3.3-7.6-7.6-7.6zM269.1 206h-48.5c-4.2 0-7.6 3.3-7.6 7.6V457c0 4.2 3.3 7.6 7.6 7.6h48.5c4.2 0 7.6-3.3 7.6-7.6V213.6c0-4.2-3.3-7.6-7.6-7.6zm43.4 14.1h-23.2c-4.2 0-7.6 3.3-7.6 7.6V457c0 4.2 3.3 7.6 7.6 7.6h23.2c4.2 0 7.6-3.3 7.6-7.6V227.7c0-4.2-3.3-7.6-7.6-7.6zm63.6-23.2h-43.4c-4.2 0-7.6 3.3-7.6 7.6V457c0 4.2 3.3 7.6 7.6 7.6h43.4c4.2 0 7.6-3.3 7.6-7.6V204.5c0-4.2-3.3-7.6-7.6-7.6zm-215.8-54.5c-4.2 0-7.6 3.3-7.6 7.6v25.2c0 4.2 3.3 7.6 7.6 7.6H433c4.2 0 7.6-3.3 7.6-7.6V150c-.1-4.3-3.4-7.6-7.7-7.6H160.3zm-7.3-5h293.9c4.2 0 7.6-3.3 7.6-7.6v-1h-.1c0-4.2-3.3-7.6-7.6-7.6H153c-4.2 0-7.6 3.3-7.6 7.6v1c0 4.2 3.3 7.6 7.6 7.6z" fill="#fff"/></svg>