<svg version="1.1" xmlns="http://www.w3.org/2000/svg" x="0" y="0" viewBox="0 0 512 512" xml:space="preserve"><path d="M398 12V0H114v12h17.5v488H114v12h284v-12h-17.5V12H398zM163.5 457.5V500h-10V12h10v42.5h18.1c-.4.7-.8 1.5-1.1 2.2l-4.1 9.1c-8.4 18.4-7.6 39.6 2.1 57.4l55.3 119.4c4 8.5 4 18.4 0 26.9l-55.3 119.4c-9.7 17.7-10.5 39-2.1 57.4l4.1 9.1c.3.8.7 1.5 1.1 2.2h-18.1zm195 42.5h-10v-42.5h-18.1c.4-.7.8-1.5 1.1-2.2l4.1-9.1c8.4-18.4 7.6-39.6-2.1-57.4l-55.3-119.4c-4-8.5-4-18.4 0-26.9l55.3-119.4c9.7-17.7 10.5-39 2.1-57.4l-4.1-9.1c-.3-.8-.7-1.5-1.1-2.2h18.1V12h10v488z" opacity=".1" fill="#fff"/><path d="M398 12V0H114v12h17.5v488H114v12h284v-12h-17.5V12H398zM163.5 457.5V500h-10V12h10v42.5h18.1c-.4.7-.8 1.5-1.1 2.2l-4.1 9.1c-8.4 18.4-7.6 39.6 2.1 57.4l55.3 119.4c4 8.5 4 18.4 0 26.9l-55.3 119.4c-9.7 17.7-10.5 39-2.1 57.4l4.1 9.1c.3.8.7 1.5 1.1 2.2h-18.1zm157.6-17.9l-4.1 9.1c-2.6 5.7-8.3 9.4-14.6 9.4h-92.8c-6.3 0-12-3.7-14.6-9.4l-4.1-9.1c-6-13.2-5.7-28.6.9-41.6h12.6c6.4 0 12.6-1.9 17.9-5.4l16.3-11c8.8-5.9 14.1-15.9 14.1-26.6v-96.4c.4-7.8-1-15.6-4.4-22.8L203 138h106l-45.3 97.8c-3.4 7.2-4.8 15.1-4.4 22.8V355c0 10.7 5.3 20.6 14.1 26.6l16.3 11c5.3 3.6 11.5 5.4 17.9 5.4h12.6c6.6 12.9 7 28.3.9 41.6zm37.4 60.4h-10v-42.5h-18.1c.4-.7.8-1.5 1.1-2.2l4.1-9.1c8.4-18.4 7.6-39.6-2.1-57.4l-55.3-119.4c-4-8.5-4-18.4 0-26.9l55.3-119.4c9.7-17.7 10.5-39 2.1-57.4l-4.1-9.1c-.3-.8-.7-1.5-1.1-2.2h18.1V12h10v488z" fill="#fff"/></svg>