<svg xmlns="http://www.w3.org/2000/svg" viewBox="0 0 512 512" xml:space="preserve"><path d="M493.9 55.1c-23.5-19.6-55.8-23.3-82.7-11l-6.3-6.3-33.1-33.1c-6.3-6.3-16.4-6.3-22.7 0l-15.6 15.6c-6.2 6.2-6.2 16.4 0 22.6l9.2 9.2L208 102.5v-.1l-190.1 71c-4.8 1.8-8.5 5.8-9.8 10.8 0 .2-.1.3-.1.5-1.2 4.9-.1 10 3.1 13.9l182.4 223.9V480H142c-4.4 0-8 3.6-8 8v24h148v-24c0-4.4-3.6-8-8-8h-48.5v-63.2c0-3.7-1.3-7.2-3.6-10.1L50 195.7 367.6 77l5.4 5.4c-2 4.3-3.6 8.8-4.7 13.3 0 .1-.1.3-.1.4-.2.8-.4 1.6-.6 2.5-4.6 21.6.1 44.9 14 63.4.1.1.1.2.2.2.7.9 1.4 1.9 2.2 2.8l19.7-19.7 18.1-18.1c3.2 1.4 6.8 2.2 10.5 2.2 14.4 0 26-11.6 26-26 0-3.7-.8-7.3-2.2-10.5l37.8-37.8zM352 38.7c.8-.8 2-.8 2.8 0l13.4 13.4c.8.8.8 2 0 2.8-.8.8-2 .8-2.8 0L352 41.5c-.8-.8-.8-2 0-2.8zm15.6-15.6c.8-.8 2-.8 2.8 0l13.4 13.4c.8.8.8 2 0 2.8s-2 .8-2.8 0l-13.4-13.4c-.8-.8-.8-2 0-2.8zm-5 7.8L376 44.3c.8.8.8 2 0 2.8-.2.2-.4.4-.7.5-.5.2-1 .2-1.5 0-.2-.1-.5-.3-.7-.5l-13.4-13.4-.3-.3c-.2-.3-.3-.7-.3-1.1 0-.3 0-.5.1-.7.1-.2.3-.5.5-.7.9-.8 2.1-.8 2.9 0z" fill="#fff"/></svg>