<svg version="1.1" xmlns="http://www.w3.org/2000/svg" x="0" y="0" viewBox="0 0 512 512" style="enable-background:new 0 0 512 512" xml:space="preserve"><path d="M256 32c2.8 0 4.7 1.2 5.8 2.3 1.7 1.5 2.4 4.2 1.8 6.9-1.1 5-2.7 13-4.4 22.9h-6.3c-1.7-9.9-3.3-17.9-4.4-22.9-.6-2.6.1-5.3 1.8-6.9 1-1.1 2.9-2.3 5.7-2.3m7.5 192c6.4 20.6 14.1 37.7 18.8 48.2l.2.5.2.5c1.8 3.8 3.6 7.8 5.1 12.1.5 1.4 1 2.9 1.5 4.4C295 307 298 327 298 347.5c0 22.9-4.8 52.4-13.2 80.8-5.8 19.7-13.1 38-20.5 51.7h-16.5c-7.4-13.7-14.7-32-20.5-51.7-8.4-28.4-13.2-57.9-13.2-80.8 0-20.5 3-40.5 8.7-57.8 1-2.9 2-5.8 3.1-8.5s2.3-5.4 3.5-7.9l.2-.5.2-.5c4.7-10.5 12.3-27.6 18.8-48.2h14.9M256 0c-10.6 0-20.3 4.1-27.5 10.8-10.1 9.4-14.2 23.6-11.3 37.1 2 9.1 5.3 26.1 7.9 46.2.1.7.2 1.3.2 2h61.4c.1-.7.2-1.3.2-2 2.6-20.1 5.9-37 7.9-46.2 2.9-13.5-1.2-27.7-11.3-37.1C276.3 4.1 266.6 0 256 0zm27.9 128h-55.7c.4 8 .6 16 .4 24-.1 2.7-.2 5.3-.3 8h55.5c-.1-2.7-.3-5.3-.3-8-.2-8-.1-16 .4-24zm4.2 64H224c-5.8 27.2-16.1 50.8-23.4 67.2-1.6 3.2-3.1 6.6-4.5 10-1.4 3.4-2.6 6.9-3.8 10.5-6.5 19.9-10.2 43-10.2 67.8 0 54.9 22.8 129.9 48 164.5h52c25.3-34.6 48-109.6 48-164.5 0-24.7-3.7-47.9-10.2-67.8-.6-1.8-1.2-3.6-1.8-5.3-1.9-5.3-4.1-10.4-6.4-15.2-7.5-16.4-17.8-40-23.6-67.2z" style="fill:#fff"/></svg>