<svg version="1.1" xmlns="http://www.w3.org/2000/svg" x="0" y="0" viewBox="0 0 512 512" xml:space="preserve"><path d="M320 208c0-8.8-1.6-17.3-4.5-25V93c2.9-7.8 4.5-16.2 4.5-25s-1.6-17.3-4.5-25V28.5c0-8.8-7.2-16-16-16H293C282.5 4.6 269.8 0 256 0s-26.5 4.6-37 12.5h-6.5c-6.5 0-12.2 4-14.7 9.6l-82.2 4.5c-4.2.2-7.6 3.7-7.6 8v27.1c0 6.3 3.7 12 9.4 14.6l79.1 36.1v49.8l-80.9 4.4c-4.2.2-7.6 3.7-7.6 8v27.1c0 6.3 3.7 12 9.4 14.6l79.1 36.1v49.8l-80.9 4.4c-4.2.2-7.6 3.7-7.6 8v27.1c0 6.3 3.7 12 9.4 14.6l79.1 36.1v19.1c0 8.8 7.2 16 16 16H237V512h38v-84.5h24.5c8.8 0 16-7.2 16-16V373c2.9-7.8 4.5-16.2 4.5-25s-1.6-17.3-4.5-25v-90c2.9-7.7 4.5-16.2 4.5-25z" opacity=".1" fill="#fff"/><path d="M320 208c0-8.8-1.6-17.3-4.5-25V93c2.9-7.8 4.5-16.2 4.5-25s-1.6-17.3-4.5-25V28.5c0-8.8-7.2-16-16-16H293C282.5 4.6 269.8 0 256 0s-26.5 4.6-37 12.5h-6.5c-6.5 0-12.2 4-14.7 9.6l-82.2 4.5c-4.2.2-7.6 3.7-7.6 8v27.1c0 6.3 3.7 12 9.4 14.6l79.1 36.1v49.8l-80.9 4.4c-4.2.2-7.6 3.7-7.6 8v27.1c0 6.3 3.7 12 9.4 14.6l79.1 36.1v49.8l-80.9 4.4c-4.2.2-7.6 3.7-7.6 8v27.1c0 6.3 3.7 12 9.4 14.6l79.1 36.1v19.1c0 8.8 7.2 16 16 16H237V512h38v-84.5h24.5c8.8 0 16-7.2 16-16V373c2.9-7.8 4.5-16.2 4.5-25s-1.6-17.3-4.5-25v-90c2.9-7.7 4.5-16.2 4.5-25zm-64 202c-27.6 0-50-22.4-50-50s22.4-50 50-50 50 22.4 50 50-22.4 50-50 50zm0-140c-27.6 0-50-22.4-50-50s22.4-50 50-50 50 22.4 50 50-22.4 50-50 50zm0-140c-27.6 0-50-22.4-50-50s22.4-50 50-50 50 22.4 50 50-22.4 50-50 50z" fill="#fff"/></svg>