<svg version="1.1" xmlns="http://www.w3.org/2000/svg" x="0" y="0" viewBox="0 0 512 512" xml:space="preserve"><path d="M428.3 252.2c-9.4-22.3-22.9-42.3-40.1-59.4-13-13-27.7-23.9-43.7-32.5l10.7-24 1.7.7.7.3 1 .4c.5.2 1 .3 1.5.3l-.1.2c1.5.2 3-.5 3.6-1.9l.2-.4c0-.1.1-.2.1-.2l10.7-24c0-.1 0-.1.1-.2l.1-.3c.6-1.5.2-3.2-1-4.1v.1c-.3-.3-.7-.6-1.2-.8l-22.6-10-3.1-1.4-2.3-1-3.1-1.4-.9-.4c-.5-.2-1-.3-1.6-.3l.1-.2c-1.5-.2-3 .5-3.6 1.9l-11.2 25.1c-.6 1.4-.2 3.1 1 4v-.1c.3.4.8.7 1.3.9l3.3 1.4-10.6 23.9c-15.1-5.4-30.7-8.8-46.6-10.2v-13.9c27.1-7.3 47-31.9 47-61.3C319.5 28.4 291.1 0 256 0s-63.5 28.4-63.5 63.5c0 29.4 19.9 54.1 47 61.3v13.9c-19.4 1.7-38.3 6.3-56.3 14-22.3 9.4-42.3 22.9-59.4 40.1-17.2 17.2-30.6 37.2-40.1 59.4C73.9 275.3 69 299.8 69 325s4.9 49.7 14.7 72.8c9.4 22.3 22.9 42.3 40.1 59.4 17.2 17.2 37.2 30.6 59.4 40.1 23.1 9.8 47.6 14.7 72.8 14.7s49.7-4.9 72.8-14.7c22.3-9.4 42.3-22.9 59.4-40.1 17.2-17.2 30.6-37.2 40.1-59.4 9.8-23.1 14.7-47.6 14.7-72.8 0-25.2-4.9-49.7-14.7-72.8zM202.5 63.5c0-29.5 24-53.5 53.5-53.5s53.5 24 53.5 53.5c0 23.7-15.6 43.9-37 50.9V93.6h5c.3 0 .7-.1 1-.1.7-.2 1.3-.5 1.8-1l.1-.1.3-.3c.1-.1.1-.2.2-.3.1-.1.1-.2.2-.3.1-.1.1-.2.2-.4 0-.1.1-.2.1-.3 0-.1.1-.2.1-.3 0-.2.1-.5.1-.8V57c0-.2 0-.5-.1-.7 0-.2-.1-.3-.1-.4 0-.1 0-.1-.1-.2-.6-1.5-2-2.7-3.8-2.7h-43c-2 0-3.6 1.5-3.9 3.4v.1c0 .2-.1.3-.1.5v32.7c0 1.9 1.3 3.4 3 3.9v-.1c.3.1.7.1 1 .1h5v20.8c-21.4-7-37-27.2-37-50.9z" opacity=".1" fill="#fff"/><path d="M174.1 282.2c2.3 0 4.1-.7 5.2-2.3 1.1-1.5 1.7-3.8 1.7-6.9h.1v-3.8c-.1-3-.7-5.2-1.8-6.7s-2.9-2.2-5.2-2.2c-2.4 0-4.2.8-5.3 2.3-1.1 1.5-1.7 3.8-1.7 6.9v3.7c0 2.9.6 5.2 1.8 6.7s2.9 2.3 5.2 2.3zm-3.5-13.6c.1-1.8.4-3.2.9-4.1.6-.9 1.4-1.3 2.6-1.3 1.2 0 2.1.5 2.6 1.4.5.9.8 2.4.8 4.4h-.1v4.8c-.1 1.9-.4 3.3-.9 4.2-.5.9-1.4 1.4-2.5 1.4-1.2 0-2.1-.5-2.6-1.5s-.8-2.5-.8-4.5v-4.8zm18.7-29.4c-2 0-3.6-.6-4.9-1.7-1.3-1.1-2-2.6-2.1-4.4h3.4c.1 1 .5 1.8 1.1 2.4.6.6 1.4.8 2.4.8 1.1 0 1.9-.4 2.6-1.2.6-.8.9-1.8.9-3.2 0-1.3-.3-2.3-1-3.1-.7-.8-1.6-1.1-2.8-1.1-.6 0-1.2.1-1.6.3-.4.2-.9.5-1.5 1l-2.8-.6 1.2-10.8h11.5v3.1h-8.5l-.6 5.1c1-.6 2.1-.8 3.3-.8 2 0 3.6.6 4.7 1.9 1.1 1.3 1.7 3 1.7 5.2s-.6 3.9-1.9 5.2-3 1.9-5.1 1.9zm-13.2 127.1c-2.4 0-4.2.8-5.3 2.3-1.1 1.5-1.7 3.8-1.7 6.9v3.7c0 2.9.6 5.2 1.8 6.7s2.9 2.3 5.2 2.3c2.3 0 4.1-.7 5.2-2.3 1.1-1.5 1.7-3.8 1.7-6.9h.1v-3.8c-.1-3-.7-5.2-1.8-6.7s-2.9-2.2-5.2-2.2zm3.3 8.7v4.8c-.1 1.9-.4 3.3-.9 4.2-.5.9-1.4 1.4-2.5 1.4-1.2 0-2.1-.5-2.6-1.5s-.8-2.5-.8-4.5v-4.8c.1-1.8.4-3.2.9-4.1.6-.9 1.4-1.3 2.6-1.3 1.2 0 2.1.5 2.6 1.4.5.9.8 2.4.7 4.4zm-33.3-46.6v-13.7h-3.7l-9.2 14.4.1 2.2h9.2v4.7h3.6v-4.7h2.7v-2.9h-2.7zm-3.5 0H137l5.3-8.4.3-.5v8.9zm13.7-10.7l-.6 5.1c1-.6 2.1-.8 3.3-.8 2 0 3.6.6 4.7 1.9s1.7 3 1.7 5.2-.6 3.9-1.9 5.2c-1.3 1.3-3 1.9-5.1 1.9-2 0-3.6-.6-4.9-1.7-1.3-1.1-2-2.6-2.1-4.4h3.4c.1 1 .5 1.8 1.1 2.4.6.6 1.4.8 2.4.8 1.1 0 1.9-.4 2.6-1.2.6-.8.9-1.8.9-3.2 0-1.3-.3-2.3-1-3.1s-1.6-1.1-2.8-1.1c-.6 0-1.2.1-1.6.3-.4.2-.9.5-1.5 1l-2.8-.6 1.2-10.8h11.5v3.1h-8.5zm7.8 62.7v-13.7h-3.7l-9.2 14.4.1 2.2h9.2v4.7h3.6v-4.7h2.7v-2.9h-2.7zm-3.5 0H155l5.3-8.4.3-.5v8.9zm-.8-102.3c.6-.8.9-1.8.9-3.2 0-1.3-.3-2.3-1-3.1-.7-.8-1.6-1.1-2.8-1.1-.6 0-1.2.1-1.6.3-.4.2-.9.5-1.5 1l-2.8-.6 1.2-10.8h11.5v3.1h-8.5l-.6 5.1c1-.6 2.1-.8 3.3-.8 2 0 3.6.6 4.7 1.9 1.1 1.3 1.7 3 1.7 5.2s-.6 3.9-1.9 5.2c-1.3 1.3-3 1.9-5.1 1.9-2 0-3.6-.6-4.9-1.7-1.3-1.1-2-2.6-2.1-4.4h3.4c.1 1 .5 1.8 1.1 2.4.6.6 1.4.8 2.4.8 1.1 0 1.9-.4 2.6-1.2zm176.6 107.2h9.9v2.7h-14.2v-2.4l7.1-7.7c1-1.1 1.8-2.1 2.2-2.9s.7-1.5.7-2.3c0-1-.3-1.8-.9-2.5-.6-.6-1.3-.9-2.3-.9-1.2 0-2 .4-2.7 1.1s-1 1.7-1 2.9h-3.6c0-1.3.3-2.5.9-3.5.6-1 1.4-1.8 2.5-2.4 1.1-.6 2.4-.9 3.8-.9 2.1 0 3.7.5 4.9 1.6 1.2 1 1.8 2.5 1.8 4.3 0 1.1-.3 2.2-.9 3.3-.6 1.2-1.6 2.5-3 4l-5.2 5.6zm19.7-19c-2.4 0-4.2.8-5.3 2.3-1.1 1.5-1.7 3.8-1.7 6.9v3.7c0 2.9.6 5.2 1.8 6.7s2.9 2.3 5.2 2.3c2.3 0 4.1-.7 5.2-2.3 1.1-1.5 1.7-3.8 1.7-6.9h.1v-3.8c-.1-3-.7-5.2-1.8-6.7s-2.9-2.2-5.2-2.2zm3.3 8.7v4.8c-.1 1.9-.4 3.3-.9 4.2-.5.9-1.4 1.4-2.5 1.4-1.2 0-2.1-.5-2.6-1.5s-.8-2.5-.8-4.5v-4.8c.1-1.8.4-3.2.9-4.1.6-.9 1.4-1.3 2.6-1.3s2.1.5 2.6 1.4c.5.9.8 2.4.7 4.4zm-1.3-92.8c2.3 0 4.1-.7 5.2-2.3 1.1-1.5 1.7-3.8 1.7-6.9h.1v-3.8c-.1-3-.7-5.2-1.8-6.7s-2.9-2.2-5.2-2.2c-2.4 0-4.2.8-5.3 2.3-1.1 1.5-1.7 3.8-1.7 6.9v3.7c0 2.9.6 5.2 1.8 6.7s2.9 2.3 5.2 2.3zm-3.5-13.6c.1-1.8.4-3.2.9-4.1.6-.9 1.4-1.3 2.6-1.3s2.1.5 2.6 1.4c.5.9.8 2.4.8 4.4h-.1v4.8c-.1 1.9-.4 3.3-.9 4.2-.5.9-1.4 1.4-2.5 1.4-1.2 0-2.1-.5-2.6-1.5s-.8-2.5-.8-4.5v-4.8zm-3.6 49.1l8.3-3.1h.5V336h-3.6v-17.1l-5.2 1.8v-3zm-10.8-52.8l-5.2 1.8v-3l8.3-3.1h.5V282h-3.6v-17.1zm36.7 67.2c.6-.8.9-1.8.9-3.2 0-1.3-.3-2.3-1-3.1s-1.6-1.1-2.8-1.1c-.6 0-1.2.1-1.6.3-.4.2-.9.5-1.5 1l-2.8-.6 1.2-10.8h11.5v3.1h-8.5l-.6 5.1c1-.6 2.1-.8 3.3-.8 2 0 3.6.6 4.7 1.9 1.1 1.3 1.7 3 1.7 5.2s-.6 3.9-1.9 5.2c-1.3 1.3-3 1.9-5.1 1.9-2 0-3.6-.6-4.9-1.7-1.3-1.1-2-2.6-2.1-4.4h3.4c.1 1 .5 1.8 1.1 2.4.6.6 1.4.8 2.4.8 1.1 0 1.9-.4 2.6-1.2zm-176 87.9c.6.9.9 1.9.9 3.1 0 1.9-.7 3.4-2 4.6-1.3 1.1-3 1.7-5.2 1.7-2.1 0-3.7-.5-5-1.6-1.3-1.1-2-2.5-2-4.4h3.6c0 .9.3 1.7.9 2.3.6.6 1.5.9 2.5.9 1.1 0 2-.3 2.6-.9.6-.6 1-1.4 1-2.5s-.3-2-1-2.6c-.7-.6-1.7-.9-3-.9h-2.1v-3h2.3c1.1 0 2-.3 2.6-.8.6-.5 1-1.4 1-2.4s-.3-1.8-.8-2.4c-.5-.6-1.3-.8-2.4-.8-1 0-1.7.3-2.4.8-.6.6-.9 1.3-.9 2.2h-3.6c0-1.1.3-2.1.9-3 .6-.9 1.4-1.6 2.4-2.1s2.2-.8 3.5-.8c2.1 0 3.8.5 5 1.6 1.2 1.1 1.8 2.6 1.8 4.5 0 1-.3 1.9-.9 2.7-.6.8-1.4 1.5-2.4 1.9 1.2.4 2.1 1 2.7 1.9zm126.9-217.4l2.7-4.7-1.7-1-2.7 4.7c-20.4-11.6-44-18.4-69.1-18.5v-5.5h-.7v-2.5h-.6v2.5h-.7v5.5c-25.1.2-48.7 6.9-69.2 18.6l-2.8-4.8-1.7 1 2.8 4.8c-20.8 12.3-38.3 29.7-50.6 50.6l-4.8-2.7-1 1.7 4.8 2.7c-11.6 20.4-18.4 44-18.5 69.1h-5.5v2h5.5c.2 25.1 6.9 48.7 18.6 69.2l-4.8 2.8 1 1.7 4.8-2.8c12.3 20.8 29.7 38.3 50.6 50.6l-2.8 4.8 1.7 1 2.7-4.8c20.4 11.6 44 18.4 69.1 18.5v5.5h2V467c25.1-.2 48.7-6.9 69.2-18.6l2.8 4.8 1.7-1-2.8-4.8c20.8-12.3 38.3-29.7 50.6-50.6l4.8 2.7 1-1.7-4.7-2.7c11.6-20.4 18.4-44 18.5-69.1h5.5v-2H398c-.2-25.1-6.9-48.7-18.6-69.2l4.8-2.8-1-1.7-4.8 2.8c-12.3-20.8-29.7-38.3-50.6-50.5zM257 184h1.4l-.2 7.5h1l.2-7.5c.7 0 1.3 0 2 .1l-.3 7.4h1l.3-7.5c.7 0 1.3.1 2 .1l-.5 7.5 1 .1.5-7.5c.6 0 1.3.1 1.9.1l-.6 7.5 1 .1.6-7.5c.6.1 1.3.1 1.9.2l-1.1 10.3c-3.9-.9-7.9-1.4-12.1-1.5V184zm14.9 19.6l2-6.2c1.6.5 3.1 1.1 4.6 1.7l-2.6 5.9.9.4 2.6-5.9c1.4.6 2.7 1.3 4 2l-7 12.1 1.7 1 7-12.1c1.3.8 2.5 1.6 3.7 2.4l-3.8 5.3.8.6 3.8-5.3c1.3 1 2.6 2 3.8 3.1l-4.3 4.8.7.7 4.4-4.8c1.2 1.1 2.4 2.3 3.5 3.5l-4.8 4.3.7.7 4.8-4.3c1.1 1.2 2.1 2.5 3.1 3.9l-5.2 3.8.6.8 5.2-3.8 2.4 3.6-6.1 3.5 1 1.7 6.1-3.5c.7 1.3 1.4 2.6 2 3.9l-5.9 2.6.4.9 5.9-2.6c.7 1.5 1.3 3.1 1.8 4.7l-6.2 2 .3 1 6.2-2c.5 1.5.9 3.1 1.2 4.7l-6.4 1.4.2 1 6.4-1.4c.3 1.6.6 3.2.8 4.8l-6.5.7.1 1 6.5-.7c.1 1.5.2 2.9.2 4.4h-14v2h14c0 1.5-.1 3-.2 4.4l-6.5-.7-.1 1 6.5.7c-.2 1.7-.4 3.3-.8 4.9l-6.4-1.4-.2 1 6.4 1.4c-.4 1.6-.8 3.1-1.2 4.7l-6.2-2-.3 1 6.2 2c-.5 1.6-1.1 3.1-1.8 4.6l-5.9-2.6-.4.9 5.9 2.6c-.6 1.4-1.3 2.7-2 4l-6-3.5-1 1.7 6 3.5c-.8 1.2-1.6 2.5-2.4 3.6l-5.3-3.8-.6.8 5.3 3.8c-1 1.3-2 2.6-3.1 3.8l-4.8-4.3-.7.7 4.8 4.4c-1.1 1.2-2.3 2.4-3.5 3.5l-4.3-4.8-.7.7 4.3 4.8c-1.2 1.1-2.5 2.1-3.8 3.1l-3.8-5.2-.8.6 3.8 5.2c-1.2.8-2.4 1.7-3.6 2.4l-7-12.1-1.7 1 7 12.1c-1.3.7-2.6 1.4-3.9 2l-2.6-5.9-.9.4 2.6 5.9c-1.5.7-3.1 1.2-4.6 1.8l-2-6.1-1 .3 2 6.2c-1.6.5-3.1.9-4.8 1.3l-1.4-6.4-1 .2 1.4 6.4c-1.6.3-3.2.6-4.8.7l-.7-6.5-1 .1.7 6.5c-1.1.1-2.2.2-3.4.2l-.2-14.7c.5.5 1.2.8 2.2.8 1 0 1.9-.4 2.4-1.1s.8-1.8.8-3.2h.1v-1.8c0-1.4-.3-2.4-.8-3.1s-1.3-1-2.4-1c-1 0-1.8.4-2.4 1l-.2-18.4h1.5l-.3-7c3.3-1.1 5.8-4.3 5.8-8 0-3.9-2.7-7.3-6.3-8.2l-.9-24.9.3.6c.5.7 1.3 1.1 2.4 1.1 1 0 1.9-.4 2.4-1.1s.8-1.8.8-3.2h.1v-1.8c0-1.4-.3-2.4-.8-3.1-.5-.7-1.3-1-2.4-1-1.1 0-2 .4-2.5 1.1-.2.3-.4.7-.6 1.2l-.4-10.2h.3v-7c1.5 0 3 .1 4.4.2l-.7 6.5 1 .1.7-6.4c1.6.2 3.3.4 4.9.8l-1.4 6.4 1 .2 1.4-6.4c1.6.4 3.2.8 4.7 1.2l-2 6.2.8.3zm-21.6 97.1l-.7 6.4c-1.6-.2-3.3-.4-4.9-.8l1.4-6.4-1-.2-1.4 6.4c-1.6-.4-3.2-.8-4.7-1.2l2-6.2-1-.3-2 6.2c-1.6-.5-3.1-1.1-4.6-1.8l2.6-5.9-.9-.4-2.6 5.9c-1.3-.6-2.7-1.3-4-2l7-12.1-1.7-1-7 12.1c-1.3-.8-2.5-1.6-3.7-2.4l3.8-5.3-.8-.6-3.8 5.3c-1.3-1-2.6-2-3.8-3.1l4.3-4.8-.7-.7-4.3 4.8c-1.2-1.1-2.4-2.3-3.5-3.5l4.8-4.3-.7-.7-4.8 4.3c-1.1-1.2-2.1-2.5-3.1-3.8l5.2-3.8-.6-.8-5.2 3.8-2.4-3.6 6.1-3.5-1-1.7-6.1 3.5c-.7-1.3-1.4-2.6-2-4l5.9-2.6-.4-.9-5.9 2.6c-.7-1.5-1.2-3.1-1.8-4.6l6.2-2-.3-1-6.2 2c-.5-1.6-.9-3.2-1.3-4.8l6.4-1.4-.2-1-6.4 1.4c-.3-1.6-.6-3.2-.7-4.8l6.4-.7-.1-1-6.5.7c-.1-1.5-.2-2.9-.2-4.4h14v-2h-14c0-1.5.1-3 .2-4.4l6.4.7.1-1-6.4-.7c.2-1.6.4-3.3.8-4.9l6.4 1.4.2-1-6.4-1.4c.4-1.6.8-3.2 1.3-4.7l6.2 2 .3-1-6.2-2c.5-1.6 1.1-3.1 1.7-4.6l5.9 2.6.4-.9-5.9-2.6c.6-1.4 1.3-2.7 2-4l6 3.5 1-1.7-6-3.5 2.4-3.6 5.3 3.8.6-.8-5.3-3.8c1-1.3 2-2.6 3.1-3.8l4.8 4.3.7-.7-4.8-4.3c1.1-1.2 2.3-2.4 3.5-3.5l4.3 4.8.7-.7-4.3-4.8c1.2-1.1 2.5-2.1 3.9-3.1l3.8 5.2.8-.6-3.8-5.2c1.2-.8 2.4-1.7 3.6-2.4l7 12.1 1.7-1-7-12.1c1.3-.7 2.6-1.4 3.9-2l2.6 5.9.9-.4-2.6-5.9c1.5-.7 3.1-1.3 4.7-1.8l2 6.2 1-.3-2-6.2c1.5-.5 3.1-.9 4.7-1.3l1.4 6.4 1-.2-1.4-6.4c1.6-.3 3.2-.6 4.8-.7l.7 6.5 1-.1-.7-6.5c1.5-.1 2.9-.2 4.4-.2v7h.3l-.5 12.6c-.1-.1-.1-.2-.2-.2-.5-.6-1.2-.9-2.1-.9-.8 0-1.5.2-2 .8.1-.9.5-1.6 1-2.1s1.3-.8 2.2-.8h.2v-1.4c-1.6 0-2.8.5-3.7 1.5-.9 1-1.3 2.4-1.3 4.1v.6c0 1.2.3 2.2.9 2.9s1.4 1.1 2.4 1.1c.9 0 1.7-.3 2.3-.9l.1-.1-.9 24.1c-3.6 1-6.3 4.3-6.3 8.2 0 3.7 2.4 6.9 5.8 8l-.3 7h1.5l-.2 18.4-.3-.3c-.5-.4-1.3-.7-2.3-.7-.6 0-1.1.2-1.6.4-.5.3-.8.6-1.1 1-.3.4-.4.9-.4 1.4h1.7c0-.4.1-.7.4-1 .3-.3.7-.4 1.1-.4.5 0 .9.1 1.1.4.3.3.4.6.4 1.1s-.1.8-.4 1.1c-.3.3-.7.4-1.2.4h-1.3v1.3h1c.6 0 1.1.1 1.4.4.3.3.5.7.5 1.2s-.1.9-.4 1.2c-.3.3-.7.4-1.2.4s-.9-.1-1.2-.4-.4-.7-.4-1.1h-1.7c0 .8.2 1.5.9 2s1.4.8 2.4.8 1.8-.3 2.4-.8l.1-.1-.2 14.7c-1.1 0-2.3-.1-3.4-.2l.7-6.5-.7-.1zm-46.6-74.9l.6-5.1h2.9c-.1.2-.3.4-.4.7h-.1l-1 1.7h.1c-.4.8-.8 1.5-1.2 2.3-.4.1-.6.2-.9.4zm50.5 63.1c-.2-.2-.5-.3-.8-.5.3-.1.6-.4.8-.6v1.1zm-.4-72.6c0 .6-.1 1.1-.4 1.5-.3.4-.7.6-1.2.6s-.9-.2-1.2-.7-.5-1.1-.5-1.8v-.5c.2-.3.4-.6.7-.8.3-.2.6-.3 1-.3.5 0 .9.1 1.2.5.3.4.4.9.4 1.5zm4.6 73.2v-2.3c0-.8.1-1.5.4-1.9.3-.4.7-.6 1.2-.6s.9.3 1.2.7c.3.5.4 1.2.4 2.1v2.2c0 .9-.1 1.6-.4 2-.3.4-.7.6-1.2.6s-.9-.2-1.2-.7-.4-1.2-.4-2.1zm0-74v-2.3c0-.8.1-1.5.4-1.9.3-.4.7-.6 1.2-.6s.9.2 1.2.7.4 1.2.4 2.1v2.2c0 .9-.1 1.6-.4 2-.3.4-.7.6-1.2.6s-.9-.2-1.2-.7-.4-1.2-.4-2.1zm-14.7-31l.6 7.5 1-.1-.6-7.5c.7-.1 1.3-.1 2-.1l.5 7.5 1-.1-.5-7.5c.6 0 1.2-.1 1.9-.1l.3 7.5h1l-.3-7.5c.7 0 1.3-.1 2-.1l.2 7.5h1l-.2-7.5h1.5v9.5c-4.2.1-8.2.6-12.2 1.5l-1.1-10.3c.6 0 1.3-.1 1.9-.2zm108 47.5l5.3-5.2 1.4 1.4-5.4 5.1.7.7 5.4-5.1c.4.5.9.9 1.3 1.4l-9.3 8.3.7.7 9.2-8.3c.4.5.9 1 1.3 1.5l-5.6 4.8.7.8 5.6-4.8c.4.5.8 1 1.3 1.5l-5.8 4.8.6.8 5.8-4.8 1.2 1.5-5.8 4.6.6.8 5.8-4.6 1.2 1.5-5.9 4.5.6.8 5.9-4.5c.4.5.7 1 1.1 1.5l-10.1 7.3.6.8 10.1-7.3c.4.5.8 1.1 1.1 1.6l-6.1 4.2.6.8 6.1-4.2c.4.5.8 1.1 1.1 1.6l-6.2 4.1.6.8 6.2-4.1c.4.5.7 1.1 1.1 1.6l-6.3 4 .5.8 6.3-4c.4.6.7 1.1 1.1 1.7l-6.4 3.9.5.9 6.4-3.9c.2.4.5.8.7 1.2l-11.6 6.7 1 1.7 11.6-6.7c.3.4.5.9.8 1.3l-6.5 3.6.5.9 6.5-3.6c.3.6.6 1.1.9 1.7l-6.6 3.4.5.9 6.6-3.4.9 1.8-6.7 3.3.4.9 6.7-3.3c.3.6.6 1.2.9 1.7l-6.8 3.2.4.9 6.8-3.2c.3.6.5 1.2.8 1.7l-11.4 5.1.4.9 11.4-5.1c.3.6.5 1.2.8 1.8l-6.9 2.9.4.9 6.9-2.9c.3.6.5 1.2.8 1.8l-7 2.8.4.9 7-2.8c.2.6.5 1.2.7 1.8l-7 2.6.3.9 7-2.6c.2.6.4 1.2.7 1.8l-7 2.4.3.9 7-2.4c.2.6.4 1.2.6 1.9l-11.9 3.9.3 1 11.9-3.9c.2.6.4 1.2.6 1.9l-7.2 2.2.3 1 7.2-2.2c.2.6.4 1.2.5 1.8l-7.3 2 .3 1 7.3-2c.2.6.3 1.3.5 1.9l-7.2 1.9.2 1 7.2-1.9c.2.6.3 1.3.5 1.9l-7.2 1.7.2 1 7.3-1.7c.1.6.3 1.2.4 1.9l-12.3 2.6.2 1 12.3-2.6c.1.6.3 1.3.4 1.9l-7.3 1.4.2 1 7.3-1.4c.1.7.2 1.3.4 2l-7.4 1.2.2 1 7.4-1.2c.1.6.2 1.3.3 1.9L388 305l.1 1 7.4-1.1c.1.7.2 1.3.3 2l-7.5.9.1 1 7.5-.9c.1.6.2 1.3.2 1.9l-12.4 1.3.1 1 12.4-1.3c.1.6.1 1.3.2 1.9l-7.5.6.1 1 7.5-.6c.1.7.1 1.3.1 2l-7.5.5.1 1 7.5-.5c0 .6.1 1.2.1 1.9l-7.5.3v1l7.5-.3c0 .7.1 1.3.1 2l-7.5.2v1l7.5-.2v1.5h-13.5v2H397v1.4l-7.5-.2v1l7.5.2c0 .7 0 1.3-.1 2l-7.4-.3v1l7.5.3c0 .7-.1 1.3-.1 2l-7.5-.5-.1 1 7.5.5c0 .6-.1 1.3-.1 1.9l-7.5-.6-.1 1 7.5.6c-.1.6-.1 1.3-.2 1.9l-12.5-1.3-.1 1 12.5 1.3c-.1.7-.1 1.3-.2 2l-7.5-.9-.1 1 7.5.9c-.1.6-.2 1.3-.3 1.9l-7.4-1.1-.1 1 7.4 1.1c-.1.6-.2 1.3-.3 1.9l-7.4-1.3-.2 1 7.4 1.3c-.1.6-.2 1.3-.3 1.9l-7.3-1.4-.2 1 7.3 1.4c-.1.7-.3 1.3-.4 2l-12.2-2.6-.2 1L394 355c-.1.6-.3 1.2-.4 1.8l-7.3-1.7-.2 1 7.3 1.7c-.2.6-.3 1.3-.5 1.9l-7.3-1.9-.2 1 7.3 1.9c-.2.6-.3 1.3-.5 1.9l-7.2-2-.3 1 7.2 2c-.2.6-.4 1.3-.6 1.9l-7.2-2.2-.3 1 7.2 2.2-.6 1.8-11.9-3.9-.3 1 11.9 3.9-.6 1.8-7.1-2.5-.3.9 7.1 2.5c-.2.6-.4 1.2-.7 1.9l-7-2.6-.5.7 7 2.6c-.2.6-.5 1.3-.7 1.9l-7-2.8-.4.9 7 2.8c-.2.6-.5 1.1-.7 1.7l-6.9-2.9-.4.9 6.9 2.9c-.3.6-.5 1.3-.8 1.9l-11.4-5.1-.4.9 11.4 5.1c-.3.6-.5 1.2-.8 1.8l-6.8-3.2-.4.9 6.8 3.2c-.3.6-.5 1.1-.8 1.7l-6.7-3.3-.4.9 6.7 3.3c-.3.6-.6 1.2-.9 1.7l-6.6-3.5-.5.9 6.6 3.5-.9 1.8-6.5-3.6-.5.9 6.5 3.6c-.2.4-.5.8-.7 1.3L367 388l-1 1.7 11.7 6.7c-.2.4-.5.8-.7 1.2l-6.4-3.9-.5.9 6.4 3.9c-.3.6-.7 1.1-1 1.7l-6.3-4-.5.8 6.3 4c-.4.6-.7 1.1-1.1 1.7l-6.2-4.1-.6.8 6.2 4.1c-.4.5-.7 1.1-1.1 1.6l-6.1-4.2-.6.8 6.1 4.2c-.4.5-.8 1.1-1.1 1.6l-10-7.3-.6.8 10 7.3c-.4.5-.8 1.1-1.2 1.6l-5.9-4.5-.6.8 5.9 4.5c-.4.5-.8 1-1.1 1.5l-5.8-4.6-.6.8 5.8 4.6c-.4.5-.9 1.1-1.3 1.6l-5.8-4.8-.6.8 5.8 4.8c-.4.5-.8 1-1.2 1.4l-5.6-4.9-.7.8 5.7 4.9c-.4.5-.9 1-1.3 1.5l-9.3-8.3-.7.7 9.3 8.3c-.4.5-.9.9-1.3 1.4l-5.4-5.1-.7.7 5.4 5.1-1.4 1.4-5.3-5.2-.7.7 5.3 5.2c-.4.5-.9.9-1.3 1.3l-5.2-5.3-.7.7 5.2 5.3c-.5.5-1 .9-1.5 1.4L348 422l-.7.7 5.1 5.4c-.5.4-.9.9-1.4 1.3l-8.3-9.3-.7.7 8.3 9.3c-.5.4-1 .9-1.5 1.3l-4.8-5.6-.8.7 4.8 5.6c-.5.4-1 .8-1.5 1.3l-4.8-5.7-.8.6 4.8 5.8-1.5 1.2-4.6-5.8-.8.6 4.6 5.8-1.5 1.2-4.5-5.9-.8.6 4.5 5.9c-.5.4-1 .7-1.5 1.1l-7.3-10.1-.8.6 7.3 10.1c-.5.4-1.1.8-1.6 1.2l-4.3-6.1-.8.6 4.3 6.1c-.5.4-1.1.7-1.6 1.1l-4.1-6.2-.8.6 4.1 6.2c-.5.4-1.1.7-1.6 1.1l-4-6.3-.8.5 4 6.3c-.6.4-1.1.7-1.7 1.1l-3.8-6.4-.9.5 3.9 6.4c-.4.2-.8.5-1.2.7l-6.7-11.6-1.7 1 6.7 11.6c-.4.3-.9.5-1.3.7l-3.6-6.5-.9.5 3.6 6.5c-.6.3-1.1.6-1.7.9l-3.4-6.6-.9.5 3.4 6.6-1.8.9-3.3-6.6-.9.4 3.3 6.6c-.6.3-1.2.6-1.7.8l-3.2-6.8-.9.4 3.2 6.8c-.6.3-1.2.6-1.8.8l-5.1-11.4-.9.4 5.1 11.4c-.6.3-1.2.5-1.7.8l-2.9-6.8-.9.4 2.9 6.8c-.6.3-1.2.5-1.8.8l-2.8-7-.9.4 2.8 7c-.6.2-1.2.5-1.8.7l-2.6-7-.9.3 2.6 7c-.6.2-1.2.4-1.8.7l-2.4-7-.9.3 2.4 7c-.6.2-1.2.4-1.9.6l-3.8-11.8-1 .3 3.9 11.9c-.6.2-1.3.4-1.9.6l-2.2-7.2-1 .3 2.2 7.2c-.6.2-1.2.4-1.8.5l-2-7.2-1 .3 2 7.2c-.6.2-1.3.3-1.9.5l-1.9-7.2-1 .2 1.9 7.2c-.6.2-1.3.3-1.9.5l-1.7-7.3-1 .2 1.7 7.3c-.6.1-1.3.3-1.9.4l-2.6-12.3-1 .2 2.6 12.3c-.6.1-1.3.3-1.9.4l-1.4-7.3-1 .2 1.4 7.3c-.7.1-1.3.2-2 .4l-1.2-7.4-1 .2 1.2 7.4c-.6.1-1.3.2-1.9.3L276 457l-1 .1 1.1 7.4c-.7.1-1.3.2-2 .3l-.9-7.5-1 .1.9 7.5c-.6.1-1.3.2-1.9.2l-1.3-12.4-1 .1 1.3 12.4c-.6.1-1.3.1-1.9.2l-.6-7.5-1 .1.6 7.5c-.7.1-1.3.1-2 .1l-.5-7.5-1 .1.5 7.5c-.6 0-1.2.1-1.9.1l-.3-7.5h-1l.3 7.5c-.7 0-1.3.1-2 .1l-.2-7.5h-1l.2 7.4h-1.5v-13.5h-2V466h-1.4l.2-7.5h-1l-.2 7.5c-.7 0-1.3 0-2-.1l.3-7.4h-1l-.3 7.4c-.7 0-1.3-.1-2-.1l.5-7.5-1-.1-.5 7.5c-.6 0-1.3-.1-1.9-.1l.6-7.5-1-.1-.6 7.5c-.6-.1-1.3-.1-1.9-.2l1.3-12.5-1-.1-1.3 12.4c-.7-.1-1.3-.1-2-.2l.9-7.5-1-.1-.9 7.5c-.6-.1-1.3-.2-1.9-.3l1.1-7.4-1-.1-1.1 7.4c-.6-.1-1.3-.2-1.9-.3l1.3-7.4-1-.2-1.3 7.4c-.6-.1-1.3-.2-1.9-.3l1.4-7.3-1-.2-1.4 7.3c-.7-.1-1.4-.3-2-.4l2.6-12.2-1-.2-2.6 12.2c-.6-.1-1.2-.3-1.8-.4l1.7-7.3-1-.2-1.7 7.3c-.6-.2-1.3-.3-1.9-.5l1.9-7.3-1-.2-1.9 7.3c-.6-.2-1.3-.3-1.9-.5l2-7.2-1-.3-2 7.2c-.6-.2-1.3-.4-1.9-.6l2.2-7.2-1-.3-2.2 7.2-1.8-.6 3.9-11.9-1-.3-3.9 11.9-1.8-.6 2.5-7.1-.9-.3-2.5 7.1c-.6-.2-1.2-.4-1.9-.7l2.6-7-.9-.3-2.6 7c-.6-.2-1.3-.5-1.9-.7l2.8-7-.9-.4-2.8 7c-.6-.2-1.1-.5-1.7-.7l2.9-6.9-.9-.4-2.9 6.9c-.6-.3-1.3-.5-1.9-.8l5.1-11.4-.9-.4-5.1 11.4c-.6-.3-1.2-.5-1.7-.8l3.2-6.8-.9-.4-3.2 6.8c-.6-.3-1.1-.6-1.7-.8l3.3-6.7-.9-.4-3.3 6.7c-.6-.3-1.1-.6-1.7-.9l3.5-6.6-.9-.5-3.5 6.6c-.6-.3-1.2-.6-1.7-.9l3.6-6.6-.9-.5-3.6 6.5c-.4-.2-.9-.5-1.3-.7l6.7-11.7-1.7-1-6.7 11.7c-.4-.3-.9-.5-1.3-.8l3.9-6.4-.9-.5-3.9 6.4c-.6-.3-1.1-.7-1.7-1l4-6.3-.8-.5-4 6.3c-.6-.4-1.1-.7-1.6-1.1l4.1-6.2-.8-.6-4.1 6.2c-.5-.4-1.1-.7-1.6-1.1l4.2-6.1-.8-.6-4.2 6.1c-.5-.4-1.1-.7-1.6-1.1l7.3-10-.8-.6-7.3 10c-.5-.4-1.1-.8-1.6-1.2l4.5-5.9-.8-.6-4.5 5.9-1.5-1.2 4.6-5.8-.8-.6-4.6 5.8c-.5-.4-1.1-.8-1.6-1.3l4.8-5.7-.8-.6-4.8 5.7c-.5-.4-1-.8-1.4-1.2l4.9-5.6-.8-.7-4.9 5.6c-.5-.4-1-.9-1.5-1.3l8.3-9.2-.7-.7-8.3 9.2c-.5-.4-1-.9-1.4-1.3l5.1-5.4-.7-.7-5.1 5.4c-.5-.4-.9-.9-1.4-1.3l5.2-5.3-.7-.7-5.2 5.3c-.5-.4-.9-.9-1.4-1.4l5.3-5.2-.7-.7-5.3 5.2-1.4-1.4 5.4-5.1-.7-.7-5.4 5.1c-.5-.5-.9-1-1.4-1.5l9.2-8.3-.7-.7-9.2 8.3c-.4-.5-.9-1-1.3-1.5l5.6-4.8-.7-.8-5.6 4.8c-.4-.5-.8-1-1.3-1.5l5.7-4.7-.6-.8-5.7 4.7-1.2-1.5 5.8-4.6-.6-.8-5.8 4.6c-.4-.5-.8-1-1.2-1.6l5.9-4.5-.6-.8-5.9 4.5c-.4-.5-.7-1-1.1-1.5l10.1-7.3-.6-.8-10.1 7.3c-.4-.5-.8-1.1-1.2-1.6l6.1-4.2-.6-.8-5.8 4.3c-.4-.5-.7-1.1-1.1-1.6l6.2-4.1-.6-.8-6.2 4.1c-.4-.5-.7-1.1-1.1-1.6l6.3-4-.5-.8-6.3 4c-.4-.6-.7-1.1-1-1.7l6.4-3.9-.5-.9-6.4 3.9c-.2-.4-.5-.8-.7-1.2l11.6-6.7-1-1.7-11.6 6.7c-.3-.4-.5-.9-.7-1.3l6.5-3.6-.5-.9-6.5 3.6c-.3-.6-.6-1.1-.9-1.7l6.6-3.4-.5-.9-6.6 3.4-.9-1.8 6.6-3.3-.4-.9-6.6 3.3-.9-1.8 6.8-3.2-.4-.9-6.8 3.2c-.3-.6-.5-1.2-.8-1.7l11.4-5.1-.4-.9-11.4 5.1c-.3-.6-.5-1.2-.8-1.7l6.8-2.9-.4-.9-6.8 2.9c-.3-.6-.5-1.2-.8-1.8l7-2.8-.4-.9-7 2.8c-.2-.6-.5-1.2-.7-1.8l7-2.6-.3-.9-7 2.6c-.2-.6-.4-1.2-.7-1.8l7-2.5-.3-.9-7 2.5-.6-1.8 11.9-3.9-.3-1-11.9 3.9c-.2-.6-.4-1.3-.6-1.9l7.2-2.2-.3-1-7.2 2.2c-.2-.6-.4-1.2-.5-1.8l7.3-2-.3-1-7.2 2c-.2-.6-.4-1.3-.5-1.9l7.3-1.9-.2-1-7.3 1.9c-.2-.6-.3-1.3-.5-1.9l7.3-1.7-.2-1-7.3 1.7c-.1-.6-.3-1.3-.4-1.9l12.3-2.6-.2-1-12.3 2.6c-.1-.6-.3-1.3-.4-1.9l7.3-1.4-.2-1-7.3 1.4c-.1-.7-.2-1.3-.4-2l7.4-1.2-.2-1-7.4 1.2c-.1-.6-.2-1.2-.3-1.9l7.5-1.1-.1-1-7.5 1.1c-.1-.7-.2-1.3-.3-2l7.4-.9-.1-1-7.4.9c-.1-.6-.2-1.3-.2-1.9l12.4-1.3-.1-1-12.4 1.3c-.1-.6-.1-1.3-.2-1.9l7.5-.6-.1-1-7.5.6c-.1-.7-.1-1.3-.1-2l7.5-.5-.1-1-7.5.5c0-.6-.1-1.2-.1-1.9l7.5-.3v-1l-7.5.3c0-.7-.1-1.3-.1-2l7.5-.2v-1l-7.5.2V326h13.5v-2H115v-1.4l7.5.2v-1l-7.5-.2c0-.7 0-1.3.1-2l7.4.3v-1l-7.4-.3c0-.7.1-1.3.1-2l7.5.5.1-1-7.5-.5c0-.6.1-1.3.1-1.9l7.5.6.1-1-7.5-.6c.1-.6.1-1.3.2-1.9l12.4 1.3.1-1-12.4-1.3c.1-.7.1-1.3.2-2l7.5.9.1-1-7.5-.9c.1-.6.2-1.3.3-1.9l7.4 1.1.1-1-7.4-1.1c.1-.6.2-1.2.3-1.9l7.4 1.3.2-1-7.4-1.3c.1-.6.2-1.3.3-1.9l7.3 1.4.2-1-7.3-1.4c.1-.7.3-1.3.4-2l12.2 2.6.2-1-12.2-2.6c.1-.6.3-1.2.4-1.8l7.3 1.7.2-1-7.3-1.7c.2-.6.3-1.3.5-1.9l7.3 1.9.2-1-7.3-1.9c.2-.7.3-1.3.5-1.9l7.2 2 .3-1-7.2-2c.2-.6.4-1.2.6-1.9l7.2 2.2.3-1-7.2-2.2.6-1.8 11.9 3.9.3-1-11.9-3.9.6-1.8 7.1 2.5.3-.9-7.1-2.5c.2-.6.4-1.2.7-1.9l7.1 2.6.3-.9-7.1-2.6c.2-.6.5-1.3.7-1.9l7 2.8.4-.9-7-2.8c.2-.6.5-1.2.7-1.7l6.9 2.9.4-.9-6.9-2.9c.3-.6.5-1.2.8-1.8l11.4 5.1.4-.9-11.4-5.1c.3-.6.5-1.2.8-1.8l6.8 3.2.4-.9-6.8-3.2c.3-.6.6-1.1.8-1.7l6.7 3.3.4-.9-6.7-3.3c.3-.6.6-1.2.9-1.7l6.6 3.5.5-.9-6.6-3.5c.3-.6.6-1.2.9-1.7l6.6 3.6.5-.9-6.6-3.6c.2-.4.5-.8.7-1.3l11.7 6.7 1-1.7-11.7-6.7c.3-.4.5-.9.8-1.3l6.4 3.9.5-.9-6.4-3.9c.3-.5.7-1.1 1-1.6l6.2 4 .5-.8-6.3-4c.4-.6.7-1.1 1.1-1.7l6.2 4.1.6-.8-6.2-4.1c.4-.5.7-1.1 1.1-1.6l6.1 4.2.6-.8-6.1-4.2c.4-.5.8-1.1 1.1-1.6l10 7.3.6-.8-10-7.3c.4-.5.8-1 1.2-1.6l5.9 4.5.6-.8-5.9-4.5 1.2-1.5 5.8 4.6.6-.8-5.8-4.6c.4-.5.8-1.1 1.3-1.6l5.7 4.7.6-.8-5.7-4.7c.4-.5.8-1 1.2-1.4l5.6 4.9.7-.8-5.6-4.9c.4-.5.9-1 1.3-1.5l9.2 8.3.7-.7-9.2-8.3c.4-.5.9-1 1.3-1.5l5.4 5.1.7-.7-5.4-5.1c.4-.5.9-.9 1.4-1.4l5.3 5.2.7-.7-5.3-5.2c.4-.5.9-.9 1.4-1.4l5.2 5.3.7-.7-5.2-5.3 1.4-1.4 5.1 5.4.7-.7-5.1-5.4c.5-.4 1-.9 1.4-1.3l8.3 9.2.7-.7-8.3-9.2c.5-.4 1-.9 1.5-1.3l4.8 5.6.8-.7-4.8-5.6c.5-.4 1-.8 1.5-1.3l4.7 5.7.8-.6-4.8-5.7 1.5-1.2 4.6 5.8.8-.6-4.6-5.8c.5-.4 1-.8 1.6-1.2l4.5 5.9.8-.6-4.5-5.9c.5-.4 1-.7 1.5-1.1l7.3 10.1.8-.6-7.3-10.1c.5-.4 1.1-.8 1.6-1.1l4.2 6.1.8-.6-3.9-6c.5-.4 1.1-.8 1.6-1.1l4.1 6.2.8-.6-4.1-6.2c.5-.4 1.1-.7 1.6-1.1l4 6.3.8-.5-4-6.3c.6-.4 1.1-.7 1.7-1.1l3.9 6.4.9-.5-3.9-6.4c.4-.2.8-.5 1.2-.7l6.7 11.6 1.7-1-6.7-11.6c.5-.3.9-.5 1.4-.8l3.6 6.5.9-.5-3.6-6.5c.6-.3 1.1-.6 1.7-.9l3.4 6.6.9-.5-3.4-6.6 1.8-.9 3.3 6.6.9-.4-3.3-6.6 1.8-.9 3.2 6.8.9-.4-3.2-6.8c.6-.3 1.1-.5 1.7-.8l5.1 11.4.9-.4-5.1-11.4c.6-.3 1.2-.5 1.8-.8l2.9 6.9.9-.4-2.9-6.9c.6-.3 1.2-.5 1.8-.8l2.8 7 .9-.4-2.8-7c.6-.2 1.2-.5 1.8-.7l2.6 7 .9-.3-2.6-7c.6-.2 1.2-.4 1.8-.7l2.4 7 .9-.3-2.4-7 1.8-.6 3.9 11.9 1-.3-3.9-11.9c.6-.2 1.2-.4 1.9-.6l2.2 7.2 1-.3-2.2-7.2c.6-.2 1.2-.4 1.8-.5l2 7.3 1-.3-2-7.3c.6-.2 1.3-.4 1.9-.5l1.9 7.3 1-.2-1.9-7.3c.6-.2 1.3-.3 1.9-.5l1.7 7.3 1-.2-1.7-7.3c.6-.1 1.2-.3 1.9-.4l2.6 12.3 1-.2-2.6-12.3c.6-.1 1.3-.3 1.9-.4l1.4 7.3 1-.2-1.4-7.3c.7-.1 1.3-.2 2-.4l1.2 7.4 1-.2-1.2-7.4c.6-.1 1.3-.2 1.9-.3l1.1 7.5 1-.1-1.1-7.4c.7-.1 1.3-.2 2-.3l.9 7.5 1-.1-.9-7.5c.6-.1 1.3-.2 1.9-.2l1.1 10.4c-4.9 1.2-9.5 3.1-13.7 5.5l-1.7 1c-6.7 4.1-12.6 9.5-17.2 15.9h-7.9l-1.2 10.8 2.8.6c-.6 1.3-1.1 2.7-1.5 4.1h-2c.1 1.2.4 2.2 1 3.1-1.2 4.4-1.8 9-1.9 13.8v2c.2 9.7 2.8 18.9 7.2 26.9l1 1.7c4.9 8 11.6 14.8 19.6 19.6l1.7 1c7.7 4.3 16.5 6.9 25.8 7.2l-.1 8.3c-3.6 1-6.3 4.3-6.3 8.2 0 3.9 2.6 7.1 6.1 8.2L253 381h6l-.6-47.8c3.5-1 6.1-4.3 6.1-8.2 0-3.9-2.7-7.3-6.3-8.2l-.1-8.3c9.3-.3 18.1-2.9 25.8-7.2l1.7-1c8-4.8 14.8-11.6 19.6-19.6h.1l1-1.7h-.1c4.5-8 7.1-17.2 7.2-26.9v-2c-.4-20.5-11.4-38.4-27.9-48.3l-1.7-1c-4.3-2.4-8.9-4.2-13.8-5.5l1.1-10.4c.7.1 1.3.1 2 .2l-.9 7.5 1 .1.9-7.5c.7.1 1.3.2 2 .3l-1.1 7.4 1 .1 1.1-7.4c.6.1 1.3.2 1.9.3l-1.3 7.4 1 .2 1.3-7.4c.6.1 1.3.2 1.9.3l-1.4 7.3 1 .2 1.4-7.3c.7.1 1.3.3 2 .4l-2.6 12.2 1 .2 2.6-12.2c.6.1 1.2.3 1.9.4l-1.7 7.3 1 .2 1.7-7.3c.6.2 1.3.3 1.9.5l-1.9 7.3 1 .2 1.9-7.3c.6.2 1.3.3 1.9.5l-2 7.2 1 .3 2-7.2c.6.2 1.2.4 1.9.6l-2.2 7.2 1 .3 2.2-7.2 1.8.6-3.9 11.9 1 .3 3.9-11.9 1.8.6-2.5 7.1.9.3 2.5-7.1c.6.2 1.2.4 1.9.7l-2.6 7 .9.3 2.6-7c.6.2 1.3.5 1.9.7l-2.8 7 .9.4 2.8-7c.6.2 1.2.5 1.7.7l-2.9 6.9.9.4 2.9-6.9c.6.3 1.2.5 1.8.8l-5.1 11.4.9.4 5.1-11.4c.6.3 1.2.5 1.8.8l-3.2 6.8.9.4 3.2-6.8c.6.3 1.1.5 1.7.8l-3.3 6.7.9.4 3.3-6.7c.6.3 1.2.6 1.7.9l-3.5 6.6.9.5 3.5-6.6 1.8.9-3.6 6.6.9.5 3.6-6.6c.4.2.8.5 1.2.7l-6.8 11.7 1.7 1 6.7-11.7c.4.2.8.5 1.3.8l-3.9 6.4.9.5 3.9-6.4c.5.3 1.1.7 1.6 1l-4 6.3.8.5 4-6.3c.6.4 1.1.7 1.7 1.1l-4.1 6.2.8.6 4.1-6.2c.5.4 1.1.7 1.6 1.1l-4.2 6.1.8.6 4.2-6.1c.5.4 1.1.8 1.6 1.1l-7.3 10 .8.6 7.3-10c.5.4 1 .8 1.6 1.2l-4.5 5.9.8.6 4.5-5.9c.5.4 1 .8 1.5 1.1l-4.6 5.8.8.6 4.6-5.8c.5.4 1.1.9 1.6 1.3l-4.8 5.8.8.6 4.8-5.7c.5.4 1 .8 1.4 1.2l-4.9 5.6.8.7 4.9-5.6c.5.4 1 .9 1.5 1.3l-8.3 9.3.7.7 8.3-9.3c.5.4 1 .9 1.4 1.3l-5.1 5.4.7.7 5.1-5.4c.5.5 1 .9 1.4 1.4l-5.2 5.3.7.7 5.2-5.3c.5.4.9.9 1.3 1.4l-5.3 5.2.8.7zm-98.3 203c.6.9.9 1.9.9 3.1 0 1.9-.7 3.4-2 4.6-1.3 1.1-3 1.7-5.2 1.7-2.1 0-3.7-.5-5-1.6-1.3-1.1-2-2.5-2-4.4h3.6c0 .9.3 1.7.9 2.3.6.6 1.5.9 2.5.9 1.1 0 2-.3 2.6-.9.6-.6 1-1.4 1-2.5s-.3-2-1-2.6c-.7-.6-1.7-.9-3-.9h-2.1v-3h2.3c1.1 0 2-.3 2.6-.8.6-.5 1-1.4 1-2.4s-.3-1.8-.8-2.4c-.5-.6-1.3-.8-2.4-.8-1 0-1.7.3-2.4.8-.6.6-.9 1.3-.9 2.2h-3.6c0-1.1.3-2.1.9-3 .6-.9 1.4-1.6 2.4-2.1s2.2-.8 3.5-.8c2.1 0 3.8.5 5 1.6 1.2 1.1 1.8 2.6 1.8 4.5 0 1-.3 1.9-.9 2.7-.6.8-1.4 1.5-2.4 1.9 1.2.4 2.1 1 2.7 1.9zm11.2-12.7c-2.4 0-4.2.8-5.3 2.3-1.1 1.5-1.7 3.8-1.7 6.9v3.7c0 2.9.6 5.2 1.8 6.7s2.9 2.3 5.2 2.3c2.3 0 4.1-.7 5.2-2.3 1.1-1.5 1.7-3.8 1.7-6.9h.1v-3.8c-.1-3-.7-5.2-1.8-6.7s-2.9-2.2-5.2-2.2zm3.2 8.7v4.8c-.1 1.9-.4 3.3-.9 4.2-.5.9-1.4 1.4-2.5 1.4-1.2 0-2.1-.5-2.6-1.5s-.8-2.5-.8-4.5v-4.8c.1-1.8.4-3.2.9-4.1.6-.9 1.4-1.3 2.6-1.3s2.1.5 2.6 1.4c.5.9.8 2.4.8 4.4h-.1zm58.9-14.1c1.1 1.3 1.7 3 1.7 5.2s-.6 3.9-1.9 5.2c-1.3 1.3-3 1.9-5.1 1.9-2 0-3.6-.6-4.9-1.7-1.3-1.1-2-2.6-2.1-4.4h3.4c.1 1 .5 1.8 1.1 2.4.6.6 1.4.8 2.4.8 1.1 0 1.9-.4 2.6-1.2.6-.8.9-1.8.9-3.2 0-1.3-.3-2.3-1-3.1s-1.6-1.1-2.8-1.1c-.6 0-1.2.1-1.6.3-.4.2-.9.5-1.5 1l-2.8-.6 1.2-10.8h11.5v3.1h-8.5l-.6 5.1c1-.6 2.1-.8 3.3-.8 2 0 3.6.6 4.7 1.9zm-109 0c1.1 1.3 1.7 3 1.7 5.2s-.6 3.9-1.9 5.2c-1.3 1.3-3 1.9-5.1 1.9-2 0-3.6-.6-4.9-1.7-1.3-1.1-2-2.6-2.1-4.4h3.4c.1 1 .5 1.8 1.1 2.4.6.6 1.4.8 2.4.8 1.1 0 1.9-.4 2.6-1.2.6-.8.9-1.8.9-3.2 0-1.3-.3-2.3-1-3.1s-1.6-1.1-2.8-1.1c-.6 0-1.2.1-1.6.3-.4.2-.9.5-1.5 1l-2.8-.6 1.2-10.8h11.5v3.1h-8.5l-.6 5.1c1-.6 2.1-.8 3.3-.8 2 0 3.6.6 4.7 1.9zm96.7-179.4c-1.3-1.1-2-2.6-2.1-4.4h3.4c.1 1 .5 1.8 1.1 2.4.6.6 1.4.8 2.4.8 1.1 0 1.9-.4 2.6-1.2.6-.8.9-1.8.9-3.2 0-1.3-.3-2.3-1-3.1s-1.6-1.1-2.8-1.1c-.6 0-1.2.1-1.6.3-.4.2-.9.5-1.5 1l-2.8-.6 1.2-10.8h11.5v3.1h-8.5l-.6 5.1c1-.6 2.1-.8 3.3-.8 2 0 3.6.6 4.7 1.9 1.1 1.3 1.7 3 1.7 5.2s-.6 3.9-1.9 5.2-3 1.9-5.1 1.9c-2 0-3.6-.6-4.9-1.7zm-13 188.8h9.9v2.7h-14.2v-2.4l7.1-7.7c1-1.1 1.8-2.1 2.2-2.9s.7-1.5.7-2.3c0-1-.3-1.8-.9-2.5-.6-.6-1.3-.9-2.3-.9-1.2 0-2 .4-2.7 1.1s-1 1.7-1 2.9h-3.6c0-1.3.3-2.5.9-3.5.6-1 1.4-1.8 2.5-2.4 1.1-.6 2.4-.9 3.8-.9 2.1 0 3.7.5 4.9 1.6 1.2 1 1.8 2.5 1.8 4.3 0 1.1-.3 2.2-.9 3.3-.6 1.2-1.6 2.5-3 4l-5.2 5.6zm-16.7-194.8l-2.4.8v-1.4l3.9-1.4h.2v10h-1.7v-8zm8.5 8.1c1 0 1.9-.4 2.4-1.1s.8-1.8.8-3.2h.1v-1.8c0-1.4-.3-2.4-.8-3.1-.5-.7-1.3-1-2.4-1-1.1 0-2 .4-2.5 1.1s-.8 1.8-.8 3.2v1.7c0 1.3.3 2.4.8 3.1s1.3 1.1 2.4 1.1zm-1.7-6.4c0-.8.1-1.5.4-1.9.3-.4.7-.6 1.2-.6s.9.2 1.2.7.4 1.2.4 2.1v2.2c0 .9-.1 1.6-.4 2-.3.4-.7.6-1.2.6s-.9-.2-1.2-.7-.4-1.2-.4-2.1v-2.3zm-69.2 4.6c.3-.4.4-.9.4-1.5s-.2-1.1-.5-1.4-.7-.5-1.3-.5c-.3 0-.6 0-.8.1-.2.1-.4.2-.7.5l-1-.4.5-5h5.3v1.4h-4l-.3 2.4c.5-.3 1-.4 1.6-.4.9 0 1.7.3 2.2.9.5.6.8 1.4.8 2.4s-.3 1.8-.9 2.4c-.6.6-1.4.9-2.4.9-.9 0-1.7-.3-2.3-.8-.6-.5-.9-1.2-1-2h1.6c.1.5.2.9.5 1.1.3.2.7.4 1.1.4.5 0 .9-.2 1.2-.5zm7-8.4c-1.1 0-2 .4-2.5 1.1s-.8 1.8-.8 3.2v1.7c0 1.3.3 2.4.8 3.1s1.3 1.1 2.4 1.1c1 0 1.9-.4 2.4-1.1s.8-1.8.8-3.2h.1v-1.8c0-1.4-.3-2.4-.8-3.1-.5-.7-1.3-1-2.4-1zm1.4 6.3c0 .9-.1 1.6-.4 2-.3.4-.7.6-1.2.6s-.9-.2-1.2-.7-.4-1.2-.4-2.1v-2.3c0-.8.1-1.5.4-1.9s.7-.6 1.2-.6.9.2 1.2.7.4 1.2.4 2.1v2.2zm52.6 32h-1.7c0-.6.1-1.2.4-1.6.3-.5.7-.9 1.2-1.1.5-.3 1.1-.4 1.8-.4 1 0 1.7.2 2.3.7s.8 1.2.8 2c0 .5-.1 1-.4 1.6-.3.5-.7 1.2-1.4 1.9l-2.4 2.6h4.6v1.1h-6.6v-1.1l3.3-3.6c.5-.5.8-1 1-1.3.2-.4.3-.7.3-1.1 0-.5-.1-.9-.4-1.1-.3-.3-.6-.4-1.1-.4s-1 .2-1.3.5-.4.8-.4 1.3zm9.9 6.9c1 0 1.9-.4 2.4-1.1s.8-1.8.8-3.2h.1v-1.8c0-1.4-.3-2.4-.8-3.1s-1.3-1-2.4-1c-1.1 0-2 .4-2.5 1.1s-.8 1.8-.8 3.2v1.7c0 1.3.3 2.4.8 3.1s1.3 1.1 2.4 1.1zm-1.7-6.4c0-.8.1-1.5.4-1.9.3-.4.7-.6 1.2-.6s.9.3 1.2.7c.3.5.4 1.2.4 2.1v2.2c0 .9-.1 1.6-.4 2-.3.4-.7.6-1.2.6s-.9-.2-1.2-.7-.4-1.2-.4-2.1v-2.3zm-68-3.6h-1.7l-4.3 6.7v1h4.3v2.2h1.7v-2.2h1.2V271h-1.2v-6.4zm-1.6 6.4h-2.6l2.5-4 .1-.2v4.2zm7.4-6.6c-1.1 0-2 .4-2.5 1.1s-.8 1.8-.8 3.2v1.7c0 1.3.3 2.4.8 3.1s1.3 1.1 2.4 1.1c1 0 1.9-.4 2.4-1.1s.8-1.8.8-3.2h.1v-1.8c0-1.4-.3-2.4-.8-3.1s-1.3-1-2.4-1zm1.4 6.3c0 .9-.1 1.6-.4 2-.3.4-.7.6-1.2.6s-.9-.2-1.2-.7-.4-1.2-.4-2.1v-2.3c0-.8.1-1.5.4-1.9.3-.4.7-.6 1.2-.6s.9.3 1.2.7c.3.5.4 1.2.4 2.1v2.2zm23.3-61.2zm174.3 42.7c-9.4-22.3-22.9-42.3-40.1-59.4-13-13-27.7-23.9-43.7-32.5l10.7-24 1.7.7.7.3 1 .4c.5.2 1 .3 1.5.3l-.1.2c1.5.2 3-.5 3.6-1.9l.2-.4c0-.1.1-.2.1-.2l10.7-24c0-.1 0-.1.1-.2l.1-.3c.6-1.5.2-3.2-1-4.1v.1c-.3-.3-.7-.6-1.2-.8l-22.6-10-3.1-1.4-2.3-1-3.1-1.4-.9-.4c-.5-.2-1-.3-1.6-.3l.1-.2c-1.5-.2-3 .5-3.6 1.9l-11.2 25.1c-.6 1.4-.2 3.1 1 4v-.1c.3.4.8.7 1.3.9l3.3 1.4-10.6 23.9c-15.1-5.4-30.7-8.8-46.6-10.2v-13.9c27.1-7.3 47-31.9 47-61.3C319.5 28.4 291.1 0 256 0s-63.5 28.4-63.5 63.5c0 29.4 19.9 54.1 47 61.3v13.9c-19.4 1.7-38.3 6.3-56.3 14-22.3 9.4-42.3 22.9-59.4 40.1-17.2 17.2-30.6 37.2-40.1 59.4C73.9 275.3 69 299.8 69 325s4.9 49.7 14.7 72.8c9.4 22.3 22.9 42.3 40.1 59.4 17.2 17.2 37.2 30.6 59.4 40.1 23.1 9.8 47.6 14.7 72.8 14.7s49.7-4.9 72.8-14.7c22.3-9.4 42.3-22.9 59.4-40.1 17.2-17.2 30.6-37.2 40.1-59.4 9.8-23.1 14.7-47.6 14.7-72.8 0-25.2-4.9-49.7-14.7-72.8zM202.5 63.5c0-29.5 24-53.5 53.5-53.5s53.5 24 53.5 53.5c0 23.7-15.6 43.9-37 50.9V93.6h5c.3 0 .7-.1 1-.1.7-.2 1.3-.5 1.8-1l.1-.1.3-.3c.1-.1.1-.2.2-.3.1-.1.1-.2.2-.3.1-.1.1-.2.2-.4 0-.1.1-.2.1-.3 0-.1.1-.2.1-.3 0-.2.1-.5.1-.8V57c0-.2 0-.5-.1-.7 0-.2-.1-.3-.1-.4 0-.1 0-.1-.1-.2-.6-1.5-2-2.7-3.8-2.7h-43c-2 0-3.6 1.5-3.9 3.4v.1c0 .2-.1.3-.1.5v32.7c0 1.9 1.3 3.4 3 3.9v-.1c.3.1.7.1 1 .1h5v20.8c-21.4-7-37-27.2-37-50.9zM256 479c-84.9 0-154-69.1-154-154s69.1-154 154-154 154 69.1 154 154-69.1 154-154 154z" fill="#fff"/></svg>