<svg xmlns="http://www.w3.org/2000/svg" viewBox="0 0 512 512" xml:space="preserve"><path d="m448.8 81.2-6.7-16 2.5-17c.2-1.2-.8-2.3-2-2.3h-11.3l-5.3-39c-.6-4-4-6.9-8-6.9H94c-4 0-7.4 2.9-7.9 6.9L80.6 46H69.3c-1.2 0-2.2 1.1-2 2.3l2.5 17-6.7 16c-.5 1.2.5 2.7 1.9 2.7h20.2l7.1 60h-8.1l30.1 254h8.1L136 512h240l13.5-114h8.1l30.1-254h-8.1l7.1-60H447c1.4 0 2.4-1.5 1.8-2.8z" opacity=".1" fill="#fff"/><path d="M84.3 144h343.4l-30.1 254H114.4L84.3 144zm364.5-62.8-6.7-16 2.5-17c.2-1.2-.8-2.3-2-2.3h-11.3l-5.3-39c-.6-4-4-6.9-8-6.9H94c-4 0-7.4 2.9-7.9 6.9L80.6 46H69.3c-1.2 0-2.2 1.1-2 2.3l2.5 17-6.7 16c-.5 1.2.5 2.7 1.9 2.7h382c1.4 0 2.4-1.5 1.8-2.8zm-23 10.8H86.2l5.2 44h329.2l5.2-44zM136 512h240l12.6-106H123.4L136 512z" fill="#fff"/></svg>