<svg xmlns="http://www.w3.org/2000/svg" viewBox="0 0 512 512" xml:space="preserve"><path d="M256 32c58.2 0 103.8 7.9 135.6 23.3 25 12.2 40.9 28.8 48.6 50.7 8.9 25.5 7.2 59-5.2 99.5-11.1 36.2-30.3 77-57.2 121.2-26.4 43.4-54 80-72.5 103.1-22.5 28-38.1 44.2-42.7 48.2-3.1 1.7-5.8 2-6.6 2-.8 0-3.6-.4-6.6-2-4.6-4-20.2-20.1-42.7-48.2-18.5-23-46.1-59.6-72.5-103.1-26.9-44.2-46.1-85-57.2-121.2-12.4-40.5-14.2-74-5.2-99.5 7.7-21.9 23.6-38.5 48.6-50.7C152.2 39.9 197.8 32 256 32m0-32c-469.2 0-52.5 487.4-24.3 504.7 8.5 5.2 17.5 7.3 24.3 7.3 6.8 0 15.8-2.1 24.3-7.3C308.5 487.4 725.2 0 256 0z" fill="#fff"/></svg>