<svg xmlns="http://www.w3.org/2000/svg" viewBox="0 0 512 512" xml:space="preserve"><path d="M402.7 105c-27.5-43.9-68.1-78.7-116.4-98.9C267-2 245-2 225.6 6.1c-48.3 20.2-88.9 55-116.4 98.9-7.5 12-.4 27.3 12.7 30.1V146c0 4.4 3.6 8 8 8h9.8c5.8 3.7 16.3 5.6 27.8 7.7 12.5 2.3 26.8 4.9 35.4 10 13.8 8.3 19.7 28.2 22 39.3 1 4.6 5.1 8 9.8 8h6.8c1.6 2.7 3.2 5.8 4.4 9 3 8 4 15 4 15h-1c-4.4 0-8 3.6-8 8s3.6 8 8 8h-1.5c-9.1 0-16.5 7.2-16.5 16v106c0 8.8 7.4 16 16.5 16h1.5c-4.4 0-8 3.6-8 8s3.6 8 8 8v21c0 6.6-5.4 12-12 12h-1.5c-3.3 0-6 2.7-6 6v5.5c-32.3 3.9-55.5 14.5-55.5 27.1v27.3h164v-27.3c0-7.4-7.9-14.1-21-19.2V464c0-4.7-1.3-6-3-6h-1v-5c0-1.1-.9-2-2-2h-2c-1.1 0-2 .9-2 2v5h-1c-1.7 0-3 1.3-3 3v.2c-6.3-1.5-13.1-2.8-20.5-3.6V452c0-3.3-2.7-6-6-6H275c-6.6 0-12-5.4-12-12v-21c4.4 0 8-3.6 8-8s-3.6-8-8-8h1.5c9.1 0 16.5-7.2 16.5-16V275c0-8.8-7.4-16-16.5-16H263c4.4 0 8-3.6 8-8s-3.6-8-8-8h-1s1-7 4-15c1.2-3.2 2.8-6.3 4.4-9h6.8c4.7 0 8.8-3.4 9.8-8 2.3-11.1 8.2-31 22-39.3 8.6-5.2 22.8-7.8 35.4-10 11.5-2.1 22-4 27.8-7.7h9.8c4.4 0 8-3.6 8-8v-10.9c13.1-2.7 20.3-18 12.7-30.1zM234.8 215c-2.8 0-5.3-2-5.9-4.8-2.4-11.8-8.7-32.8-23.8-41.9-9.3-5.6-23.8-8.2-36.7-10.5-6.3-1.1-12.7-2.3-17.9-3.7H237v58s.9 1.1 2.1 3l-4.3-.1zm108.9-57.3c-12.9 2.3-27.5 5-36.7 10.5-15.1 9.1-21.4 30.1-23.8 41.9-.6 2.8-3 4.8-5.9 4.8H273c1.2-1.9 2.1-3 2.1-3v-58h86.6c-5.3 1.5-11.7 2.7-18 3.8z" fill="#fff"/></svg>