<svg xmlns="http://www.w3.org/2000/svg" viewBox="0 0 512 512" xml:space="preserve"><path d="M504 281.7H8c-4.4 0-8 3.6-8 8 0 8.3 6.7 15 15 15 4.8 0 8.8 3.5 9.5 8.2C33 368.6 67.9 415.5 116 440.8v15.9c0 8.8 7.2 16 16 16h250c8.8 0 16-7.2 16-16v-17c47-25.5 81.1-72 89.5-126.9.7-4.7 4.8-8.1 9.5-8.1 8.3 0 15-6.7 15-15 0-4.4-3.6-8-8-8zM260.7 125.1c-3.6 5.9-7.5 11.6-11.3 17.1-3.9 5.6-7.9 11.4-11.6 17.6-4.5 7.3-9.3 16.2-10.9 27.2-2.5 16 2.6 30.4 5.8 37.5 4.8 10.6 11.4 19.1 17.2 26.5 1.6 2 3.9 3.1 6.3 3.1 1.7 0 3.5-.6 4.9-1.7 3.5-2.7 4.1-7.8 1.4-11.2-5.5-7.1-11.3-14.4-15.2-23.2-4.2-9.4-5.9-19.8-4.5-28.6 1.2-8.1 5-15 8.8-21.3 3.5-5.8 7.4-11.4 11.1-16.8 3.9-5.7 8-11.6 11.8-17.8 4.4-7.3 9.2-16.2 10.9-27.1 2.5-16-2.5-30.4-5.7-37.5-4.8-10.6-11.4-19-17.2-26.5-2.7-3.5-7.8-4.1-11.2-1.4-3.5 2.7-4.1 7.8-1.4 11.2 5.5 7.1 11.2 14.4 15.2 23.2 4.2 9.4 5.9 19.8 4.5 28.5-1.5 8.1-5.1 15-8.9 21.2zm50 0c-3.6 5.9-7.5 11.6-11.3 17.1-3.9 5.6-7.9 11.4-11.6 17.5-4.5 7.3-9.3 16.3-10.9 27.2-2.5 16 2.6 30.4 5.8 37.5 4.8 10.6 11.4 19.1 17.2 26.5 1.6 2 3.9 3.1 6.3 3.1 1.7 0 3.5-.6 4.9-1.7 3.5-2.7 4.1-7.8 1.4-11.2-5.5-7.1-11.3-14.4-15.2-23.2-4.2-9.4-5.9-19.8-4.5-28.6 1.2-8.1 5-15 8.8-21.3 3.5-5.8 7.4-11.4 11.1-16.8 3.9-5.7 8-11.6 11.8-17.8 4.4-7.3 9.2-16.2 10.9-27.1 2.5-16-2.5-30.4-5.7-37.5-4.8-10.6-11.4-19-17.2-26.5-2.7-3.5-7.7-4.1-11.2-1.4-3.5 2.7-4.1 7.8-1.4 11.2 5.5 7.1 11.2 14.4 15.2 23.2 4.2 9.4 5.9 19.8 4.5 28.5-1.5 8.2-5.1 15.1-8.9 21.3zM199.8 251c1.6 2 3.9 3.1 6.3 3.1 1.7 0 3.5-.6 4.9-1.7 3.5-2.7 4.1-7.8 1.4-11.2-5.5-7.1-11.3-14.4-15.2-23.2-4.2-9.4-5.9-19.8-4.5-28.6 1.2-8.1 5-15 8.8-21.3 3.5-5.8 7.4-11.4 11.1-16.8 3.9-5.7 8-11.6 11.8-17.8 4.4-7.3 9.2-16.1 10.9-27.1 2.5-16-2.5-30.4-5.7-37.5-4.8-10.6-11.4-19-17.2-26.5-2.7-3.5-7.8-4.1-11.2-1.4-3.5 2.7-4.1 7.8-1.4 11.2 5.5 7.1 11.2 14.4 15.2 23.2 4.2 9.4 5.9 19.8 4.5 28.5-1.2 8.1-4.9 14.9-8.7 21.1-3.6 5.9-7.5 11.6-11.3 17.1-3.9 5.6-7.9 11.4-11.6 17.6-4.5 7.3-9.3 16.2-10.9 27.2-2.5 16 2.6 30.4 5.8 37.5 4.6 10.7 11.2 19.2 17 26.6z" fill="#fff"/></svg>