<svg version="1.1" xmlns="http://www.w3.org/2000/svg" x="0" y="0" viewBox="0 0 512 512" xml:space="preserve"><path d="M448 512H64c-35.3 0-64-28.7-64-64V64C0 28.7 28.7 0 64 0h384c35.3 0 64 28.7 64 64v384c0 35.3-28.7 64-64 64z" opacity=".1" fill="#fff"/><path d="M306 256c0 27.6-22.4 50-50 50s-50-22.4-50-50 22.4-50 50-50 50 22.4 50 50zM512 64v384c0 35.3-28.7 64-64 64H64c-35.3 0-64-28.7-64-64V64C0 28.7 28.7 0 64 0h384c35.3 0 64 28.7 64 64zm-16 0c0-26.5-21.5-48-48-48H64c-26.5 0-48 21.5-48 48v384c0 26.5 21.5 48 48 48h384c26.5 0 48-21.5 48-48V64z" fill="#fff"/></svg>