<svg xmlns="http://www.w3.org/2000/svg" viewBox="0 0 512 512" xml:space="preserve"><style>.st1{fill:#fff}</style><path class="st1" d="m324.6 344.3-9.6 18.3c-2.3 4.4-2.4 9.7-.3 14.2l1.4 3c1.7 3.6 2 7.8.8 11.6L295.2 461c-1.8 5.9-.1 12.4 4.5 16.6l25.6 23.3c8.7 7.9 22.6 4.1 26.1-7.1l40.5-130.1c1.3-4.2 5.8-6.6 10-5.3 2 .6 4.2-.5 4.8-2.5l10.2-32.7c-27.1 2.9-60.7 6.7-94.6 11 3 2.4 4.1 6.6 2.3 10.1zM82.8 363.5v.2C74.1 399.4 61.3 422 47 422c-26 0-47-74.3-47-166S21 90 47 90c14.3 0 27.1 22.6 35.8 58.3v.2c.2 1 .5 2.1.7 3.1 0 .1.1.2.1.4.2 1 .5 2 .7 3 0 .1.1.3.1.4.2 1 .4 2 .6 3.1 0 .1.1.3.1.4.2 1.1.4 2.1.6 3.2 0 .1 0 .2.1.3.9 4.8 1.8 9.8 2.6 15v.2c.2 1.2.4 2.4.5 3.6 0 .2.1.5.1.7.1 1 .3 2.1.4 3.1 0 .3.1.6.1 1 .1 1 .3 1.9.4 2.9 0 .4.1.7.1 1.1.1.9.2 1.9.3 2.8 0 .4.1.8.1 1.2.1.9.2 1.9.3 2.9 0 .4.1.8.1 1.2l.3 3c0 .4.1.8.1 1.1l.3 3.3c0 .3.1.6.1.8.2 2.8.5 5.6.7 8.5v.7c.1 1.2.2 2.3.2 3.5 0 .5.1.9.1 1.4.1 1 .1 1.9.2 2.9 0 .5.1 1.1.1 1.6 0 .9.1 1.8.1 2.7 0 .6.1 1.2.1 1.7 0 .9.1 1.7.1 2.6 0 .6 0 1.2.1 1.8 0 .9.1 1.7.1 2.6 0 .6 0 1.2.1 1.8 0 .9.1 1.8.1 2.6v1.8c0 .9 0 1.8.1 2.7v21.4c0 .9 0 1.8-.1 2.7v1.8c0 .9 0 1.8-.1 2.6 0 .6 0 1.2-.1 1.8 0 .9-.1 1.7-.1 2.6 0 .6 0 1.2-.1 1.8 0 .9-.1 1.7-.1 2.6 0 .6-.1 1.2-.1 1.7 0 .9-.1 1.8-.1 2.7 0 .5-.1 1.1-.1 1.6-.1 1-.1 1.9-.2 2.9 0 .5-.1.9-.1 1.4-.1 1.2-.2 2.4-.2 3.5v.7c-.2 2.9-.4 5.7-.7 8.5 0 .3-.1.6-.1.8l-.3 3.3c0 .4-.1.8-.1 1.1l-.3 3c0 .4-.1.8-.1 1.2-.1 1-.2 1.9-.3 2.9 0 .4-.1.8-.1 1.2-.1 1-.2 1.9-.3 2.8 0 .4-.1.7-.1 1.1-.1 1-.2 2-.4 2.9 0 .3-.1.6-.1 1-.1 1-.3 2.1-.4 3.1 0 .2-.1.5-.1.7-.2 1.2-.4 2.4-.5 3.6v.2c-.8 5.2-1.7 10.2-2.6 15 0 .1 0 .2-.1.3-.2 1.1-.4 2.2-.6 3.2 0 .1-.1.3-.1.4-.2 1-.4 2.1-.6 3.1 0 .1-.1.3-.1.4-.2 1-.4 2-.7 3 0 .1-.1.2-.1.4-.2 1.3-.4 2.3-.7 3.3zm400.7-152s-21.1-1.9-52.5-5.2c-4.2-.4-8.5-.9-13-1.4v-11.4c0-2.2-1.8-4-4-4h-25.7c-3.2 0-6.4 1-9 2.8l-10.5 7.2c-60.2-7-130.1-16.1-172.8-25.5-40.4-8.8-74.2-22.3-98.9-34.2 8.3 32 12.9 72.9 12.9 116.2s-4.6 84.2-12.9 116.2c24.6-11.9 58.5-25.3 98.9-34.2 24-5.2 56.5-10.4 91.2-15.2l4.2-.6c.2 0 .4-.1.6-.1 1.2-.2 2.4-.3 3.6-.5.3 0 .7-.1 1-.1 1.1-.1 2.2-.3 3.3-.4.3 0 .7-.1 1-.1 1.1-.1 2.2-.3 3.3-.4.4 0 .7-.1 1.1-.1 1.1-.1 2.1-.3 3.2-.4.4-.1.8-.1 1.2-.2 1.1-.1 2.2-.3 3.3-.4.3 0 .6-.1 1-.1 1.2-.2 2.4-.3 3.6-.5.2 0 .4-.1.6-.1 1.4-.2 2.8-.4 4.2-.5h.1c4.4-.6 8.8-1.1 13.2-1.7.1 0 .3 0 .4-.1 1.3-.2 2.6-.3 3.9-.5.2 0 .5-.1.7-.1 1.2-.1 2.4-.3 3.6-.4.3 0 .6-.1.8-.1 1.1-.1 2.3-.3 3.4-.4.3 0 .7-.1 1-.1 1.1-.1 2.2-.3 3.2-.4.4 0 .7-.1 1.1-.1 1.1-.1 2.1-.3 3.2-.4.3 0 .7-.1 1-.1 1.1-.1 2.2-.3 3.3-.4.3 0 .6-.1.9-.1 1.2-.1 2.4-.3 3.6-.4.2 0 .4 0 .5-.1 4.2-.5 8.4-1 12.6-1.4h.2c1.3-.1 2.6-.3 3.9-.4h.4c1.2-.1 2.4-.3 3.5-.4.3 0 .5-.1.8-.1 1.1-.1 2.1-.2 3.1-.4.3 0 .7-.1 1-.1 1-.1 1.9-.2 2.8-.3.4 0 .7-.1 1.1-.1.9-.1 1.9-.2 2.8-.3.3 0 .7-.1 1-.1 1-.1 1.9-.2 2.9-.3.3 0 .6-.1.9-.1 1.1-.1 2.1-.2 3.1-.3.2 0 .4 0 .6-.1 1.1-.1 2.2-.2 3.3-.4h.4c3.7-.4 7.3-.8 10.8-1.2 3.1-.3 6.1-.6 9-.9 31.4-3.3 52.5-5.2 52.5-5.2 15.7 0 28.5-20.1 28.5-44.5.5-24.7-12.3-44.8-28-44.8z" opacity=".1"/><path class="st1" d="M54 256c0 13.7-3.1 24.7-7 24.7s-7-11.1-7-24.7 3.1-24.7 7-24.7 7 11 7 24.7zm270.6 88.3-9.6 18.3c-2.3 4.4-2.4 9.7-.3 14.2l1.4 3c1.7 3.6 2 7.8.8 11.6L295.2 461c-1.8 5.9-.1 12.4 4.5 16.6l25.6 23.3c8.7 7.9 22.6 4.1 26.1-7.1l40.5-130.1c1.3-4.2 5.8-6.6 10-5.3 2 .6 4.2-.5 4.8-2.5l10.2-32.7c-27.1 2.9-60.7 6.7-94.6 11 3 2.4 4.1 6.6 2.3 10.1zM82.8 363.5v.2C74.1 399.4 61.3 422 47 422c-26 0-47-74.3-47-166S21 90 47 90c14.3 0 27.1 22.6 35.8 58.3v.2c.2 1 .5 2.1.7 3.1 0 .1.1.2.1.4.2 1 .5 2 .7 3 0 .1.1.3.1.4.2 1 .4 2 .6 3.1 0 .1.1.3.1.4.2 1.1.4 2.1.6 3.2 0 .1 0 .2.1.3.9 4.8 1.8 9.8 2.6 15v.2c.2 1.2.4 2.4.5 3.6 0 .2.1.5.1.7.1 1 .3 2.1.4 3.1 0 .3.1.6.1 1 .1 1 .3 1.9.4 2.9 0 .4.1.7.1 1.1.1.9.2 1.9.3 2.8 0 .4.1.8.1 1.2.1.9.2 1.9.3 2.9 0 .4.1.8.1 1.2l.3 3c0 .4.1.8.1 1.1l.3 3.3c0 .3.1.6.1.8.2 2.8.5 5.6.7 8.5v.7c.1 1.2.2 2.3.2 3.5 0 .5.1.9.1 1.4.1 1 .1 1.9.2 2.9 0 .5.1 1.1.1 1.6 0 .9.1 1.8.1 2.7 0 .6.1 1.2.1 1.7 0 .9.1 1.7.1 2.6 0 .6 0 1.2.1 1.8 0 .9.1 1.7.1 2.6 0 .6 0 1.2.1 1.8 0 .9.1 1.8.1 2.6v1.8c0 .9 0 1.8.1 2.7v21.4c0 .9 0 1.8-.1 2.7v1.8c0 .9 0 1.8-.1 2.6 0 .6 0 1.2-.1 1.8 0 .9-.1 1.7-.1 2.6 0 .6 0 1.2-.1 1.8 0 .9-.1 1.7-.1 2.6 0 .6-.1 1.2-.1 1.7 0 .9-.1 1.8-.1 2.7 0 .5-.1 1.1-.1 1.6-.1 1-.1 1.9-.2 2.9 0 .5-.1.9-.1 1.4-.1 1.2-.2 2.4-.2 3.5v.7c-.2 2.9-.4 5.7-.7 8.5 0 .3-.1.6-.1.8l-.3 3.3c0 .4-.1.8-.1 1.1l-.3 3c0 .4-.1.8-.1 1.2-.1 1-.2 1.9-.3 2.9 0 .4-.1.8-.1 1.2-.1 1-.2 1.9-.3 2.8 0 .4-.1.7-.1 1.1-.1 1-.2 2-.4 2.9 0 .3-.1.6-.1 1-.1 1-.3 2.1-.4 3.1 0 .2-.1.5-.1.7-.2 1.2-.4 2.4-.5 3.6v.2c-.8 5.2-1.7 10.2-2.6 15 0 .1 0 .2-.1.3-.2 1.1-.4 2.2-.6 3.2 0 .1-.1.3-.1.4-.2 1-.4 2.1-.6 3.1 0 .1-.1.3-.1.4-.2 1-.4 2-.7 3 0 .1-.1.2-.1.4-.2 1.3-.4 2.3-.7 3.3zm-16.4-.1c5.9-23.2 9.8-51.9 11.1-82.6h-22c4-7.5 4.5-19.8 4.5-24.7 0-4.9-.4-17.3-4.5-24.7h21.9c-1.3-30.8-5.2-59.5-11.1-82.6-7.6-29.7-16.2-40.3-19.4-42.4-3.2 2.1-11.8 12.7-19.4 42.4C20.1 177.9 16 216.1 16 256s4.1 78.1 11.6 107.4c7.6 29.7 16.2 40.3 19.4 42.4 3.2-2.1 11.8-12.7 19.4-42.4zm417.1-151.9s-21.1-1.9-52.5-5.2c-4.2-.4-8.5-.9-13-1.4v-11.4c0-2.2-1.8-4-4-4h-25.7c-3.2 0-6.4 1-9 2.8l-10.5 7.2c-60.2-7-130.1-16.1-172.8-25.5-40.4-8.8-74.2-22.3-98.9-34.2 8.3 32 12.9 72.9 12.9 116.2s-4.6 84.2-12.9 116.2c24.6-11.9 58.5-25.3 98.9-34.2 24-5.2 56.5-10.4 91.2-15.2l4.2-.6c.2 0 .4-.1.6-.1 1.2-.2 2.4-.3 3.6-.5.3 0 .7-.1 1-.1 1.1-.1 2.2-.3 3.3-.4.3 0 .7-.1 1-.1 1.1-.1 2.2-.3 3.3-.4.4 0 .7-.1 1.1-.1 1.1-.1 2.1-.3 3.2-.4.4-.1.8-.1 1.2-.2 1.1-.1 2.2-.3 3.3-.4.3 0 .6-.1 1-.1 1.2-.2 2.4-.3 3.6-.5.2 0 .4-.1.6-.1 1.4-.2 2.8-.4 4.2-.5h.1c4.4-.6 8.8-1.1 13.2-1.7.1 0 .3 0 .4-.1 1.3-.2 2.6-.3 3.9-.5.2 0 .5-.1.7-.1 1.2-.1 2.4-.3 3.6-.4.3 0 .6-.1.8-.1 1.1-.1 2.3-.3 3.4-.4.3 0 .7-.1 1-.1 1.1-.1 2.2-.3 3.2-.4.4 0 .7-.1 1.1-.1 1.1-.1 2.1-.3 3.2-.4.3 0 .7-.1 1-.1 1.1-.1 2.2-.3 3.3-.4.3 0 .6-.1.9-.1 1.2-.1 2.4-.3 3.6-.4.2 0 .4 0 .5-.1 4.2-.5 8.4-1 12.6-1.4h.2c1.3-.1 2.6-.3 3.9-.4h.4c1.2-.1 2.4-.3 3.5-.4.3 0 .5-.1.8-.1 1.1-.1 2.1-.2 3.1-.4.3 0 .7-.1 1-.1 1-.1 1.9-.2 2.8-.3.4 0 .7-.1 1.1-.1.9-.1 1.9-.2 2.8-.3.3 0 .7-.1 1-.1 1-.1 1.9-.2 2.9-.3.3 0 .6-.1.9-.1 1.1-.1 2.1-.2 3.1-.3.2 0 .4 0 .6-.1 1.1-.1 2.2-.2 3.3-.4h.4c3.7-.4 7.3-.8 10.8-1.2 3.1-.3 6.1-.6 9-.9 31.4-3.3 52.5-5.2 52.5-5.2 15.7 0 28.5-20.1 28.5-44.5.5-24.7-12.3-44.8-28-44.8z"/></svg>