<svg version="1.1" xmlns="http://www.w3.org/2000/svg" x="0" y="0" viewBox="0 0 512 512" xml:space="preserve"><path d="M61 468.5c0 16-13 29-29 29s-29-13-29-29 13-29 29-29 29 13 29 29zm361-29c-16 0-29 13-29 29s13 29 29 29 29-13 29-29-13-29-29-29z" opacity=".1" fill="#fff"/><path d="M512 424.5v-10H298v-10h-39.9c-2.1 0-3.3-1.1-3.9-1.8-.6-.7-1.4-2.1-1.1-4.1l15.7-81c.9-4.8-.5-9.7-3.9-13.2l-1.2-1.3 1-.1c1.6-.2 2.8-1.7 2.6-3.4l-1.1-9.5 230-25.6c6.1-.7 10.7-5.8 10.7-11.9V91.1c0-6.4-5-11.7-11.5-12L65.7 60l-6.8-25.1C56.3 25.4 48.4 18.5 39 16.8c-.3-1.3-1.5-2.4-2.9-2.4H3c-1.3 0-2.4.8-2.8 2H0v10h.2c.4 1.2 1.5 2 2.8 2h33c1.1 0 2.1-.6 2.6-1.5 5.1 1.4 9.2 5.3 10.6 10.5L121.5 302l-72.3 80.6c-6.7 7.4-8.3 17.7-4.2 26.9 2.8 6.2 7.7 10.8 13.6 13.1l-14.2 19.5c-3.8-1.8-8-2.8-12.5-2.8-16 0-29 13-29 29s13 29 29 29 29-13 29-29c0-4.2-.9-8.3-2.5-11.9l51.5-32.1h337.4l-12.9 17.8c-3.8-1.8-8-2.8-12.5-2.8-16 0-29 13-29 29s13 29 29 29 29-13 29-29c0-4.2-.9-8.3-2.5-11.9l51.5-32.1H512v.2zM476.8 188l-9.1.4-1.1-33.1 9.5-.1.7 32.8zm3.3-32.8l9.5-.1.4 32.4-9.1.4-.8-32.7zM119.4 256.8l5.4-.4 8.8 33.2-5.1.7-9.1-33.5zm48.7-51l8.9-.4 9.7 42.2-8.6.7-10-42.5zm6 42.8l-8.6.7-10.4-42.9 8.9-.4 10.1 42.6zm7-43.4l9-.4 9.2 41.8-8.6.7-9.6-42.1zm13-.6l9-.4 8.8 41.4-8.6.7-9.2-41.7zm13-.5l9-.4 8.4 41-8.6.7-8.8-41.3zm-.8-4l-8.8-41.1 9.4-.1 8.4 40.8-9 .4zm-4 .2l-9 .4-9.2-41.5 9.4-.1 8.8 41.2zm-13.1.6l-9 .4-9.6-41.9 9.4-.1 9.2 41.6zm-13 .5l-9 .4-10-42.3 9.4-.1 9.6 42zm-13.1.6l-9 .4-10.4-42.7 9.4-.1 10 42.4zm-13 .6l-9 .4-10.8-43.1 9.3-.1 10.5 42.8zm1 4l10.5 43-8.5.7-11-43.3 9-.4zm-2.2 43.9l-8.5.7-11.3-43.7 8.9-.4 10.9 43.4zm-12.5 1l-8.5.7-11.7-44.1 8.9-.4 11.3 43.8zm-12.6 1l-5.4.4-12.1-44.4 5.8-.3 11.7 44.3zm5.1 3.6l8.5-.7 8.4 32.6-8.2 1.1-8.7-33zm12.5-1l8.5-.7 8 32-8.2 1.1-8.3-32.4zm12.6-.9l8.5-.7 7.6 31.3-8.2 1.1-7.9-31.7zm12.5-1l8.5-.7 7.3 30.7-8.2 1.1-7.6-31.1zm12.6-1l8.5-.7 6.9 30.1-8.2 1.1-7.2-30.5zm12.6-1l8.5-.7 6.5 29.5-8.2 1.1-6.8-29.9zm12.5-.9l8.5-.7 6.1 28.8-8.2 1.1-6.4-29.2zm12.6-1l8.6-.7 5.8 28.2-8.2 1.1-6.2-28.6zm12.6-1l8.6-.7 5.4 27.6-8.3 1.1-5.7-28zm-.8-3.9l-8.4-40.9 9-.4 8 40.6-8.6.7zm-9.3-44.9l-8.4-40.7 9.4-.1 8 40.4-9 .4zm5.1-40.9l9.4-.1 7.6 40-9 .4-8-40.3zm13.5-.2l9.4-.1 7.2 39.6-9 .4-7.6-39.9zm13.4-.1l9.4-.1 6.8 39.2-9 .4-7.2-39.5zm13.5-.2l9.4-.1 6.4 38.8-9 .4-6.8-39.1zm185.8 31.1l-9.1.4-1.8-33.9 9.5-.1 1.4 33.6zm2.6-33.6l9.5-.1 1.1 33.2-9.1.4-1.5-33.5zm-15.7 34.2l-9.1.4-2.1-34.3 9.5-.1 1.7 34zm-13.1.6l-9.1.4-2.5-34.7 9.5-.1 2.1 34.4zm-13.1.6l-9.1.4-2.9-35.1 9.5-.1 2.5 34.8zm-13.1.5l-9.1.4-3.3-35.5 9.4-.1 3 35.2zm-13.1.6l-9.1.4-3.6-35.9 9.4-.1 3.3 35.6zm-13 .6l-9.1.4-4-36.3 9.4-.1 3.7 36zm-13.1.6l-9.1.4-4.4-36.7 9.4-.1 4.1 36.4zm-13.1.6l-9.1.4-4.8-37.1 9.4-.1 4.5 36.8zm-13.1.6l-9.1.4-5.2-37.5 9.4-.1 4.9 37.2zm-13 .5l-9 .4-5.6-37.9 9.4-.1 5.2 37.6zm-13.1.6l-9 .4-6-38.3 9.4-.1 5.6 38zm-13.1.6l-9 .4-6.4-38.7 9.4-.1 6 38.4zm-12.4 4.6l6.4 39-8.6.7-6.8-39.3 9-.4zm4-.2l9-.4 6 38.6-8.6.7-6.4-38.9zm13.1-.6l9-.4 5.6 38.2-8.6.7-6-38.5zm13-.6l9-.4 5.2 37.8-8.6.7-5.6-38.1zm13-.6l9-.4 4.8 37.4-8.6.7-5.2-37.7zm13.1-.5l9-.4 4.4 37-8.7.7-4.7-37.3zm13-.6l9-.4 4.1 36.6-8.7.7-4.4-36.9zm13-.6l9-.4 3.7 36.2-8.7.7-4-36.5zm13.1-.6l9-.4 3.3 35.8-8.7.7-3.6-36.1zm13-.6l9-.4 2.9 35.4-8.7.7-3.2-35.7zm13-.6l9-.4 2.5 35-8.7.7-2.8-35.3zm13.1-.5l9.1-.4 2.2 34.6-8.7.7-2.6-34.9zm13-.6l9.1-.4 1.8 34.2-8.7.7-2.2-34.5zm13.1-.6l9.1-.4 1.4 33.8-8.7.7-1.8-34.1zm13-.6l9.1-.4 1.1 33.4-8.7.7-1.5-33.7zm13.1-.6l9.1-.4.7 33-8.7.7-1.1-33.3zm-1.3-41l-1.1-32.9 9.9.2.7 32.6-9.5.1zm-4 0l-9.5.1-1.4-33.3 9.9.2 1 33zm-13.5.2l-9.5.1-1.8-33.7 9.9.2 1.4 33.4zm-13.5.2l-9.5.1-2.1-34.1 9.9.2 1.7 33.8zm-13.5.2l-9.5.1-2.5-34.5 9.9.2L422 152zm-13.5.2l-9.5.1-2.9-34.9 9.9.2 2.5 34.6zm-13.5.1l-9.5.1-3.2-35.3 9.8.2 2.9 35zm-13.5.2l-9.5.1-3.6-35.7 9.8.2 3.3 35.4zm-13.5.2l-9.5.1-4-36.1 9.8.2 3.7 35.8zm-13.5.2l-9.5.1-4.4-36.5 9.8.2 4.1 36.2zm-13.5.2l-9.5.1-4.8-36.9 9.8.2 4.5 36.6zm-13.5.1l-9.5.1-5.2-37.3 9.8.2 4.9 37zm-13.5.2l-9.5.1-5.5-37.7 9.8.2 5.2 37.4zm-13.5.2l-9.5.1-5.9-38.1 9.8.2 5.6 37.8zm-13.5.2l-9.4.1-6.3-38.5 9.8.2 5.9 38.2zm-13.5.2l-9.4.1-6.7-38.9 9.8.2 6.3 38.6zm-13.4.1l-9.4.1-7.1-39.3 9.8.2 6.7 39zm-13.5.2l-9.4.1-7.5-39.7 9.8.2 7.1 39.4zm-13.5.2l-9.4.1-7.9-40.1 9.8.2 7.5 39.8zm-13.5.2l-9.4.1-8.3-40.5 9.8.2 7.9 40.2zm-13.5.2l-9.4.1-8.7-40.9 9.8.2 8.3 40.6zm-13.5.2l-9.4.1-9.1-41.3 9.8.2 8.7 41zm-13.5.1l-9.4.1-9.5-41.7 9.8.2 9.1 41.4zm-13.5.2l-9.4.1-10-42.1 9.8.2 9.6 41.8zm-13.4.2l-9.4.1-10.4-42.5 9.8.2 10 42.2zm-13.5.2l-9.4.1-10.8-42.9 9.8.2 10.4 42.6zm-13.5.2l-9.4.1-11.2-43.3 9.8.2 10.8 43zm1 3.9l10.9 43.2-8.9.4L117 160l9.2-.1zm-2.2 43.9l-8.9.4-11.7-43.9 9.3-.1 11.3 43.6zm-13 .5l-5.8.3-12.1-44.2 6.2-.1 11.7 44zm136.3 70.4l-5.4-27.4 8.6-.7 5.1 27-8.3 1.1zm-6.1-31.3l-8-40.5 9-.4 7.6 40.2-8.6.7zm5-41.1l9-.4 7.2 39.8-8.6.7-7.6-40.1zm13-.6l9-.4 6.8 39.4-8.6.7-7.2-39.7zm16.5 43l6.8 39.5-8.2.9-7.2-39.7 8.6-.7zm4-.3l8.6-.7 6.4 39.1-8.2.9-6.8-39.3zm12.6-1l8.6-.7 6 38.7-8.2.9-6.4-38.9zm12.6-1l8.6-.7 5.6 38.4-8.2.9-6-38.6zm12.6-.9l8.6-.7 5.2 38-8.2.9-5.6-38.2zm12.6-1l8.6-.7 4.9 37.6-8.2.9-5.3-37.8zm12.6-1l8.6-.7 4.5 37.2-8.3.9-4.8-37.4zm12.6-1l8.6-.7 4.1 36.9-8.3.9-4.4-37.1zm12.6-1l8.6-.7 3.7 36.5-8.3.9-4-36.7zm12.6-.9l8.6-.7 3.3 36.1-8.3.9-3.6-36.3zm12.6-1l8.6-.7 2.9 35.7-8.3.9-3.2-35.9zm12.7-1l8.6-.7 2.6 35.3-8.3.9-2.9-35.5zm12.6-1l8.7-.7 2.2 35-8.3.9-2.6-35.2zm12.7-1l8.7-.7 1.8 34.6-8.3.9-2.2-34.8zm12.6-.9l8.7-.7 1.5 34.2-8.3.9-1.9-34.4zm12.6-1l8.7-.7 1.1 33.8-8.3.9-1.5-34zm12.7-1l8.7-.7.7 33.4-8.3.9-1.1-33.6zm12.7-1l8.7-.7.4 33-8.3.9-.8-33.2zm-.1-4l-.7-32.9 9.1-.4.4 32.6-8.8.7zm12.3-33.4l9.1-.4V223l-8.7.7-.4-32.4zm0-4l-.4-32.3 9.5-.1v32l-9.1.4zm-.4-36.3l-.3-32.1 9.9.2v31.8l-9.6.1zm-4 .1l-9.5.1-.7-32.5 9.9.2.3 32.2zm-10.3-36.4l-.7-32.4 10.2.5.3 32.1-9.8-.2zm-4-.1l-9.9-.2-1.1-32.8 10.2.5.8 32.5zm-13.9-.2l-9.9-.2-1.4-33.1 10.3.5 1 32.8zm-13.9-.2l-9.9-.2-1.8-33.6 10.3.5 1.4 33.3zm-13.9-.2l-9.9-.2-2.1-34 10.3.5 1.7 33.7zm-13.9-.2l-9.9-.2-2.5-34.4 10.3.5 2.1 34.1zm-13.9-.3l-9.9-.2-2.9-34.9 10.3.5 2.5 34.6zm-13.9-.2l-9.9-.2-3.2-35.3 10.3.5 2.8 35zm-13.9-.2l-9.9-.2-3.6-35.7 10.2.5 3.3 35.4zm-13.9-.2l-9.9-.2-4-36.1 10.2.5 3.7 35.8zm-14-.3l-9.9-.2-4.3-36.4 10.2.5 4 36.1zm-13.9-.2l-9.9-.2-4.8-36.9 10.2.5 4.5 36.6zm-13.9-.2l-9.9-.2-5.2-37.3 10.2.5 4.9 37zm-13.9-.2l-9.9-.2-5.5-37.7 10.2.5 5.2 37.4zm-13.9-.2l-9.9-.2-5.9-38.2 10.2.5 5.6 37.9zm-13.9-.3l-9.9-.2-6.3-38.6 10.2.5 6 38.3zm-14-.2l-9.8-.2-6.7-39 10.2.5 6.3 38.7zm-13.9-.2l-9.8-.2-7.1-39.4 10.2.5 6.7 39.1zm-13.9-.2l-9.8-.2-7.5-39.8 10.2.5 7.1 39.5zm-13.9-.2l-9.8-.2-8-40.2 10.2.5 7.6 39.9zm-13.9-.3l-9.8-.2-8.3-40.6 10.2.5 7.9 40.3zm-14-.2l-9.8-.2-8.7-41 10.2.5 8.3 40.7zM183 110l-9.8-.2-9.2-41.4 10.2.5L183 110zm-13.9-.2l-9.8-.2-9.6-41.9 10.2.5 9.2 41.6zm-13.9-.3l-9.8-.2-10-42.3 10.2.5 9.6 42zm-14-.2l-9.8-.2L121 66.5l10.2.5 10 42.3zm-13.9-.2l-9.8-.2-10.8-43.1 10.2.5 10.4 42.8zm-13.9-.2l-9.8-.2-11.3-43.5 10.2.5 10.9 43.2zm-14-.2l-9.8-.2-11.6-44 10.2.5 11.2 43.7zm1.1 4l11.2 43.5-9.4.1-11.6-43.7 9.8.1zm-2.3 43.6l-6.2.1-12-44.1 6.6.1 11.6 43.9zm166.4 119.2c-.2-1.6-1.7-2.8-3.3-2.6l-1.7.2-5.1-26.8 8.6-.7 7.2 39.9-4.4.5-1.3-10.5zm231.3-15l-1.2.1-.4-32.9 8.7-.7v25.5c0 4.1-3.1 7.5-7.1 8zM503 91.1v24l-9.9-.2-.3-32 2.6.1c4.2.3 7.6 3.8 7.6 8.1zM73.8 64.4l11.7 44.1-6.6-.1L66.8 64l7 .4zM53 468.5c0 11.6-9.4 21-21 21s-21-9.4-21-21 9.4-21 21-21c2.7 0 5.3.5 7.6 1.5l-7.5 10.3c-.1.1-.1.2-.1.2-5 0-9 4-9 9s4 9 9 9 9-4 9-9c0-.3 0-.7-.1-1 .1 0 .2-.1.3-.2l10.3-6.4c1 2.4 1.5 4.9 1.5 7.6zm14.8-54c-6.1 0-11.2-3.3-13.7-8.9s-1.5-11.6 2.5-16.1l60.2-67.2 134.8-17.7 6.2 6.6c1.1 1.2 1.6 2.8 1.3 4.4l-15.7 81c-.9 4.4.3 8.9 3.2 12.4s7.1 5.5 11.6 5.5H67.8zm375.2 54c0 11.6-9.4 21-21 21s-21-9.4-21-21 9.4-21 21-21c2.7 0 5.3.5 7.6 1.5l-7.5 10.3c-.1.1-.1.2-.1.2-5 0-9 4-9 9s4 9 9 9 9-4 9-9c0-.3 0-.7-.1-1 .1 0 .2-.1.3-.2l10.3-6.4c1 2.4 1.5 4.9 1.5 7.6z" fill="#fff"/></svg>