<svg xmlns="http://www.w3.org/2000/svg" viewBox="0 0 512 512" xml:space="preserve"><path d="M170.4 33.2c-10.1-12.3-1.9-30.8 14-31.7L211 .1c5.4-.3 10.4 2.9 12.4 7.9l3 7.7c.9 2.2 3.3 3.5 5.6 3l12.5-2.7c7.6-1.6 15.5-1.6 23.1 0l12.4 2.6c2.4.5 4.7-.8 5.6-3l3.1-7.7c2-5 7-8.2 12.4-7.9l26.6 1.5c15.9.8 24 19.4 13.9 31.7L292 94h-72l-49.6-60.8zM441.5 512h-371c-16.8 0-27.1-18.5-18.3-32.8l11.5-18.7c10.7-17.5 17.4-37.1 19.7-57.4L99 263.5c5-45.3 30.1-85.9 68.4-110.6L220 108h72l52.6 44.9c38.2 24.7 63.3 65.3 68.4 110.6l15.6 139.6c2.2 20.4 9 40 19.7 57.4l11.5 18.7c8.8 14.3-1.5 32.8-18.3 32.8z" opacity=".1" fill="#fff"/><path d="M170.4 33.2c-10.1-12.3-1.9-30.8 14-31.7L211 .1c5.4-.3 10.4 2.9 12.4 7.9l3 7.7c.9 2.2 3.3 3.5 5.6 3l12.5-2.7c7.6-1.6 15.5-1.6 23.1 0l12.4 2.6c2.4.5 4.7-.8 5.6-3l3.1-7.7c2-5 7-8.2 12.4-7.9l26.6 1.5c15.9.8 24 19.4 13.9 31.7L292 94h-72l-49.6-60.8zM441.5 512h-371c-16.8 0-27.1-18.5-18.3-32.8l11.5-18.7c10.7-17.5 17.4-37.1 19.7-57.4L99 263.5c5-45.3 30.1-85.9 68.4-110.6L220 108h72l52.6 44.9c38.2 24.7 63.3 65.3 68.4 110.6l15.6 139.6c2.2 20.4 9 40 19.7 57.4l11.5 18.7c8.8 14.3-1.5 32.8-18.3 32.8zM335 289.5c0-3.3-2.7-6-6-6H183c-3.3 0-6 2.7-6 6v73c0 3.3 2.7 6 6 6h146c3.3 0 6-2.7 6-6v-73z" fill="#fff"/></svg>