<svg xmlns="http://www.w3.org/2000/svg" viewBox="0 0 512 512" xml:space="preserve"><path d="M463 357h-93.2c2.9 0 5.2-2.3 5.2-5.2v-47.5c0-2.9-2.3-5.2-5.2-5.2 0 0-2.2-1.6-3.7-4-.2-.3-.4-.7-.6-1-.2-.3-.3-.7-.4-1.1 0-.1 0-.1-.1-.2-.1-.2-.1-.4-.2-.6 0-.1 0-.2-.1-.2 0-.2-.1-.4-.1-.6v-1c0-.3.1-.7.1-1 0-.1.1-.3.1-.4.1-.2.1-.4.2-.6.1-.4.3-.8.5-1.2.1-.3.3-.5.5-.8 1.7-2.6 4.3-4.2 4.3-4.2h.1c2.5 0 4.5-2 4.5-4.5s-2.1-4.6-4.6-4.6l-45.8-.1c-2.5 0-4.6 2-4.6 4.6 0 2.5 2.1 4.6 4.6 4.6 0 0 2.5 1.5 4.2 4 .1.2.3.4.4.6.1.2.2.3.3.5.2.3.3.7.5 1 .1.2.1.4.2.6 0 .1.1.3.1.4.1.3.1.6.1 1v1c0 .2 0 .4-.1.6v.2c0 .2-.1.4-.2.6 0 .1 0 .1-.1.2-.1.4-.3.7-.4 1.1-.2.4-.4.7-.6 1-1.5 2.4-3.7 4-3.7 4-2.9 0-5.2 2.3-5.2 5.2v47.5c0 2.9 2.3 5.2 5.2 5.2h-29.4l-.9-7v-4c0-.9-.6-1.7-1.5-1.9v-49c0-1.1-.9-2-2-2s-2 .9-2 2v49.1c-.9.2-1.5 1-1.5 1.9v4l-.9 7h-13c-2.2 0-4 1.8-4 4v12c0 2.2 1.8 4 4 4h41v33h-89.9v-18l.1-3.2c.3-10.2 4-20 10.1-28.1 12.2-16.2 19.9-39.7 19.9-65.9 0-7.2-.6-14.2-1.7-20.8-2.5-15.6 0-31.6 7.2-45.7L342.3 68c5.7-11.3 1.7-25-9.1-31.5C295 13.3 250.1 0 202 0S109.1 13.3 70.8 36.4C60 43 56 56.7 61.7 67.9l81.6 160.3c7.2 14.1 9.7 30.1 7.2 45.7-1.1 6.7-1.7 13.7-1.7 20.8 0 26.2 7.7 49.8 19.9 65.9 6.2 8.1 9.8 17.9 10.1 28.1l.1 3.2v18H124v-18h20c2.2 0 4-1.8 4-4v-12c0-2.2-1.8-4-4-4h-22.6c2.3 0 4.1-1.8 4.1-4.1v-37.1c0-2.3-1.8-4.1-4.1-4.1 0 0-1.7-1.2-2.9-3.1-.2-.3-.3-.5-.5-.8-.1-.3-.2-.5-.3-.8v-.1c0-.1-.1-.3-.1-.5v-.2c0-.1 0-.3-.1-.4v-.8c0-.3.1-.5.1-.8 0-.1.1-.2.1-.3 0-.2.1-.3.1-.5.1-.3.3-.6.4-.9.1-.2.2-.4.4-.6 1.3-2 3.4-3.3 3.4-3.3h.1c1.9 0 3.5-1.6 3.5-3.5 0-2-1.6-3.6-3.6-3.6l-35.8-.1c-2 0-3.6 1.6-3.6 3.6s1.6 3.6 3.6 3.6c0 0 1.9 1.2 3.3 3.1.1.1.2.3.3.4.1.1.2.3.2.4.1.3.3.5.4.8.1.1.1.3.1.5 0 .1.1.2.1.3.1.3.1.5.1.8v.8c0 .2 0 .3-.1.5v.2c0 .2-.1.3-.1.5v.1c-.1.3-.2.6-.3.8-.1.3-.3.6-.5.8-1.2 1.9-2.9 3.1-2.9 3.1-2.3 0-4.1 1.8-4.1 4.1v37.1c0 2.3 1.8 4.1 4.1 4.1H49c-2.2 0-4 1.8-4 4v12c0 2.2 1.8 4 4 4h35v18H73c-4.4 0-8 3.6-8 8v4h3v49c0 4.4 3.6 8 8 8h2.5v13h-5c-1.1 0-2 .9-2 2v3c0 1.1.9 2 2 2h.2l-4.2 5v6c0 1.1.9 2 2 2h20c1.1 0 2-.9 2-2v-6l-4.2-5h.2c1.1 0 2-.9 2-2v-3c0-1.1-.9-2-2-2h-5v-13h297v13h-5c-1.1 0-2 .9-2 2v3c0 1.1.9 2 2 2h.2l-4.2 5v6c0 1.1.9 2 2 2h20c1.1 0 2-.9 2-2v-6l-4.2-5h.2c1.1 0 2-.9 2-2v-3c0-1.1-.9-2-2-2h-5v-13h2.5c4.4 0 8-3.6 8-8v-49h3v-4c0-4.4-3.6-8-8-8h-25v-33h95c2.2 0 4-1.8 4-4v-12c0-2.1-1.8-3.9-4-3.9z" opacity=".1" fill="#fff"/><path d="M463 357h-93.2c2.9 0 5.2-2.3 5.2-5.2v-47.5c0-2.9-2.3-5.2-5.2-5.2 0 0-2.2-1.6-3.7-4-.2-.3-.4-.7-.6-1-.2-.3-.3-.7-.4-1.1 0-.1 0-.1-.1-.2-.1-.2-.1-.4-.2-.6 0-.1 0-.2-.1-.2 0-.2-.1-.4-.1-.6v-1c0-.3.1-.7.1-1 0-.1.1-.3.1-.4.1-.2.1-.4.2-.6.1-.4.3-.8.5-1.2.1-.3.3-.5.5-.8 1.7-2.6 4.3-4.2 4.3-4.2h.1c2.5 0 4.5-2 4.5-4.5s-2.1-4.6-4.6-4.6l-45.8-.1c-2.5 0-4.6 2-4.6 4.6 0 2.5 2.1 4.6 4.6 4.6 0 0 2.5 1.5 4.2 4 .1.2.3.4.4.6.1.2.2.3.3.5.2.3.3.7.5 1 .1.2.1.4.2.6 0 .1.1.3.1.4.1.3.1.6.1 1v1c0 .2 0 .4-.1.6v.2c0 .2-.1.4-.2.6 0 .1 0 .1-.1.2-.1.4-.3.7-.4 1.1-.2.4-.4.7-.6 1-1.5 2.4-3.7 4-3.7 4-2.9 0-5.2 2.3-5.2 5.2v47.5c0 2.9 2.3 5.2 5.2 5.2h-29.4l-.9-7v-4c0-.9-.6-1.7-1.5-1.9v-49c0-1.1-.9-2-2-2s-2 .9-2 2v49.1c-.9.2-1.5 1-1.5 1.9v4l-.9 7h-13c-2.2 0-4 1.8-4 4v12c0 2.2 1.8 4 4 4h41v33h-89.9v-18l.1-3.2c.3-10.2 4-20 10.1-28.1 12.2-16.2 19.9-39.7 19.9-65.9 0-7.2-.6-14.2-1.7-20.8-2.5-15.6 0-31.6 7.2-45.7L342.3 68c5.7-11.3 1.7-25-9.1-31.5C295 13.3 250.1 0 202 0S109.1 13.3 70.8 36.4C60 43 56 56.7 61.7 67.9l81.6 160.3c7.2 14.1 9.7 30.1 7.2 45.7-1.1 6.7-1.7 13.7-1.7 20.8 0 26.2 7.7 49.8 19.9 65.9 6.2 8.1 9.8 17.9 10.1 28.1l.1 3.2v18H124v-18h20c2.2 0 4-1.8 4-4v-12c0-2.2-1.8-4-4-4h-22.6c2.3 0 4.1-1.8 4.1-4.1v-37.1c0-2.3-1.8-4.1-4.1-4.1 0 0-1.7-1.2-2.9-3.1-.2-.3-.3-.5-.5-.8-.1-.3-.2-.5-.3-.8v-.1c0-.1-.1-.3-.1-.5v-.2c0-.1 0-.3-.1-.4v-.8c0-.3.1-.5.1-.8 0-.1.1-.2.1-.3 0-.2.1-.3.1-.5.1-.3.3-.6.4-.9.1-.2.2-.4.4-.6 1.3-2 3.4-3.3 3.4-3.3h.1c1.9 0 3.5-1.6 3.5-3.5 0-2-1.6-3.6-3.6-3.6l-35.8-.1c-2 0-3.6 1.6-3.6 3.6s1.6 3.6 3.6 3.6c0 0 1.9 1.2 3.3 3.1.1.1.2.3.3.4.1.1.2.3.2.4.1.3.3.5.4.8.1.1.1.3.1.5 0 .1.1.2.1.3.1.3.1.5.1.8v.8c0 .2 0 .3-.1.5v.2c0 .2-.1.3-.1.5v.1c-.1.3-.2.6-.3.8-.1.3-.3.6-.5.8-1.2 1.9-2.9 3.1-2.9 3.1-2.3 0-4.1 1.8-4.1 4.1v37.1c0 2.3 1.8 4.1 4.1 4.1H49c-2.2 0-4 1.8-4 4v12c0 2.2 1.8 4 4 4h35v18H73c-4.4 0-8 3.6-8 8v4h3v49c0 4.4 3.6 8 8 8h2.5v13h-5c-1.1 0-2 .9-2 2v3c0 1.1.9 2 2 2h.2l-4.2 5v6c0 1.1.9 2 2 2h20c1.1 0 2-.9 2-2v-6l-4.2-5h.2c1.1 0 2-.9 2-2v-3c0-1.1-.9-2-2-2h-5v-13h297v13h-5c-1.1 0-2 .9-2 2v3c0 1.1.9 2 2 2h.2l-4.2 5v6c0 1.1.9 2 2 2h20c1.1 0 2-.9 2-2v-6l-4.2-5h.2c1.1 0 2-.9 2-2v-3c0-1.1-.9-2-2-2h-5v-13h2.5c4.4 0 8-3.6 8-8v-49h3v-4c0-4.4-3.6-8-8-8h-25v-33h95c2.2 0 4-1.8 4-4v-12c0-2.1-1.8-3.9-4-3.9zm-265 28c0-2.2 1.8-4 4-4s4 1.8 4 4-1.8 4-4 4-4-1.8-4-4zm44.5-141c-2.2 0-4-1.8-4-4s1.8-4 4-4 4 1.8 4 4-1.8 4-4 4zm40-86c-2.2 0-4-1.8-4-4s1.8-4 4-4 4 1.8 4 4-1.8 4-4 4zm41-104c2.2 0 4 1.8 4 4s-1.8 4-4 4-4-1.8-4-4 1.8-4 4-4zM202 13c2.2 0 4 1.8 4 4s-1.8 4-4 4-4-1.8-4-4 1.8-4 4-4zM80.5 62c-2.2 0-4-1.8-4-4s1.8-4 4-4 4 1.8 4 4-1.8 4-4 4zm44 96c-2.2 0-4-1.8-4-4s1.8-4 4-4 4 1.8 4 4-1.8 4-4 4zm40 86c-2.2 0-4-1.8-4-4s1.8-4 4-4 4 1.8 4 4-1.8 4-4 4zm8.7-142.3-2-10.8 2-7c.3-1 .2-2.1-.4-3l-8.4-15.1-2.3 17.2c-.1 1.1.1 2.1.8 3l4.4 5.8 2 10.8c-16.1 3.4-31.2 9.4-45.1 17.4-2 1.1-4.5.4-5.6-1.6L90.1 62c-1-1.9-.2-4.3 1.6-5.3C125.3 37.9 163.3 28 202 28s76.7 9.9 110.3 28.7c1.9 1.1 2.6 3.4 1.6 5.3l-28.6 56.2c-1 2-3.6 2.8-5.6 1.6C256.9 106.6 230.4 99 202 99c-9.8 0-19.4.9-28.8 2.7zM202 60c-1.8 0-3.6 0-5.5.1h-.4c-2.5.1-5 .2-7.5.4-1.6.1-3.1.2-4.7.4-.4 0-.7.1-1.1.1-1.6.2-3.2.3-4.7.5-.2 0-.5.1-.7.1-4.2.5-8.3 1.2-12.4 2-.1 0-.2 0-.3.1-1.5.3-2.9.6-4.4.9-.4.1-.8.2-1.1.2l-5.1 1.2c-.1 0-.1 0-.2.1-4 1-8 2.2-11.9 3.5l-4.5 1.5-.9.3c-7.2 2.6-14.3 5.6-21.1 9-.1.1-.2.1-.4.2-1.6.8-3.3 1.7-4.9 2.5-.2.1-.5.3-.7.4l-3.5-6.6 1.8-.9 2.6 4.8c.8-.4 1.7-.9 2.5-1.3l-.7-1.3 1.8-.9.7 1.3c.8-.4 1.7-.8 2.5-1.2l-2.4-5c.6-.3 1.2-.6 1.8-.8l2.4 5c.9-.4 1.7-.8 2.6-1.2L121 74c.6-.3 1.2-.5 1.8-.8l.6 1.4c.8-.3 1.5-.7 2.3-1 .1 0 .2-.1.3-.1l-2.1-5.1c.6-.3 1.2-.5 1.9-.8l2.1 5.1c.9-.4 1.7-.7 2.6-1.1l-.5-1.4c.6-.2 1.2-.5 1.9-.7l.5 1.4c.9-.3 1.8-.7 2.6-1l-1.9-5.2c.6-.2 1.3-.4 1.9-.7l1.9 5.2 2.7-.9-.5-1.4c.6-.2 1.3-.4 1.9-.6l.5 1.4 2.7-.9-1.6-5.3c.6-.2 1.3-.4 1.9-.6l1.6 5.3c.9-.3 1.8-.5 2.7-.8l-.4-1.4c.6-.2 1.3-.3 1.9-.5l.4 1.4c.9-.2 1.8-.5 2.7-.7l-1.3-5.3c.6-.2 1.3-.3 1.9-.5l1.3 5.3c.9-.2 1.8-.5 2.7-.7l-.3-1.5c.6-.1 1.3-.3 2-.4l.3 1.5c.9-.2 1.8-.4 2.8-.6l-1.1-5.4c.7-.1 1.3-.3 2-.4l1.1 5.4c.9-.2 1.8-.4 2.8-.5l-.3-1.5c.7-.1 1.3-.2 2-.3l.3 1.5c.9-.2 1.9-.3 2.8-.5l-.8-5.4c.7-.1 1.3-.2 2-.3l.8 5.4c.9-.1 1.9-.3 2.8-.4l-.2-1.5c.7-.1 1.3-.2 2-.2l.2 1.5c.9-.1 1.9-.2 2.8-.3l-.5-5.5c.7-.1 1.3-.1 2-.2l.5 5.5c.9-.1 1.9-.2 2.8-.2l-.1-1.5c.7-.1 1.3-.1 2-.1l.1 1.5c.9-.1 1.9-.1 2.8-.2l-.3-5.5c.7 0 1.3-.1 2-.1l.3 5.5c.9 0 1.9-.1 2.8-.1v-1.5h2v1.5h2.8v-5.5h2V58h2.8v-1.5h2V58c.9 0 1.9.1 2.8.1l.3-5.5c.7 0 1.3.1 2 .1l-.3 5.5c.9 0 1.9.1 2.8.2l.1-1.5c.7 0 1.3.1 2 .1l-.1 1.5c.9.1 1.9.2 2.8.2l.5-5.5c.7.1 1.3.1 2 .2l-.5 5.5c.9.1 1.9.2 2.8.3l.2-1.5c.7.1 1.3.1 2 .2l-.2 1.5c.9.1 1.9.3 2.8.4l.8-5.4c.7.1 1.3.2 2 .3l-.8 5.4c.9.1 1.9.3 2.8.5l.3-1.5c.7.1 1.3.2 2 .3l-.3 1.5c.9.2 1.9.3 2.8.5l1.1-5.4c.7.1 1.3.2 2 .4l-1.1 5.4c.9.2 1.8.4 2.8.6l.3-1.5c.7.1 1.3.3 2 .4l-.3 1.4c.9.2 1.8.4 2.7.7l1.3-5.3c.6.2 1.3.3 1.9.5l-1.3 5.3c.9.2 1.8.5 2.7.7l.4-1.4c.6.2 1.3.3 1.9.5l-.4 1.4c.9.3 1.8.5 2.7.8l1.6-5.3c.6.2 1.3.4 1.9.6l-1.6 5.3 2.7.9.5-1.4c.6.2 1.3.4 1.9.6l-.5 1.4 2.7.9 1.9-5.2c.6.2 1.3.4 1.9.7l-1.9 5.2c.9.3 1.8.7 2.6 1l.5-1.4c.6.2 1.2.5 1.9.7l-.5 1.4c.9.3 1.7.7 2.6 1.1l2.1-5.1c.6.3 1.2.5 1.9.8l-2.1 5.1c.1.1.3.1.4.2.7.3 1.5.6 2.2 1l.6-1.4c.6.3 1.2.5 1.8.8l-.6 1.4c.9.4 1.7.8 2.6 1.2l2.4-5c.6.3 1.2.6 1.8.8l-2.4 5c.8.4 1.7.8 2.5 1.2l.7-1.3 1.8.9-.7 1.3c.8.4 1.7.9 2.5 1.3l2.6-4.8 1.8.9-3.5 6.6c-.2-.1-.5-.2-.7-.4-1.6-.9-3.3-1.7-4.9-2.5-.1-.1-.3-.1-.4-.2-6.8-3.4-13.8-6.4-21-9l-.9-.3-4.5-1.5h-.1c-3.9-1.3-7.9-2.4-11.9-3.4-.1 0-.2 0-.2-.1l-5.1-1.2-1.2-.3c-1.4-.3-2.9-.6-4.3-.9-.1 0-.3 0-.4-.1-4.1-.8-8.2-1.4-12.3-2-.2 0-.3 0-.5-.1-1.7-.2-3.3-.4-5-.6-.4 0-.7-.1-1.1-.1-1.5-.1-3.1-.3-4.6-.4h-.1c-2.5-.2-5-.3-7.5-.4h-.1c-2.3.2-4.2.2-6.1.2z" fill="#fff"/></svg>