<svg version="1.1" xmlns="http://www.w3.org/2000/svg" x="0" y="0" viewBox="0 0 512 512" xml:space="preserve"><circle cx="256" cy="256" r="256" opacity=".1" fill="#fff"/><path d="M460.1 101.4L101.4 460.1c-2.7-2-5.3-4.1-7.9-6.2L453.8 93.5c2.2 2.6 4.3 5.3 6.3 7.9zm9.9 14.1L115.5 470c99.3 65.4 234.2 54.3 321.5-33s98.4-222.2 33-321.5zM75 75c-87.4 87.4-98.4 222.2-33 321.5L396.5 42C297.2-23.4 162.4-12.4 75 75zm335.6-23.1L51.9 410.6c2 2.7 4.1 5.3 6.2 7.9L418.5 58.2c-2.6-2.2-5.3-4.3-7.9-6.3z" fill="#fff"/></svg>