<svg version="1.1" xmlns="http://www.w3.org/2000/svg" x="0" y="0" viewBox="0 0 512 512" xml:space="preserve"><path d="M256 0C114.6 0 0 114.6 0 256s114.6 256 256 256 256-114.6 256-256S397.4 0 256 0zM17.5 280c-3 0-5.5-2.5-5.5-5.5s2.5-5.5 5.5-5.5 5.5 2.5 5.5 5.5-2.5 5.5-5.5 5.5zm0-37c-3 0-5.5-2.5-5.5-5.5s2.5-5.5 5.5-5.5 5.5 2.5 5.5 5.5-2.5 5.5-5.5 5.5zm257-231c3 0 5.5 2.5 5.5 5.5s-2.5 5.5-5.5 5.5-5.5-2.5-5.5-5.5 2.5-5.5 5.5-5.5zm-37 0c3 0 5.5 2.5 5.5 5.5s-2.5 5.5-5.5 5.5-5.5-2.5-5.5-5.5 2.5-5.5 5.5-5.5zm0 488c-3 0-5.5-2.5-5.5-5.5s2.5-5.5 5.5-5.5 5.5 2.5 5.5 5.5-2.5 5.5-5.5 5.5zm37 0c-3 0-5.5-2.5-5.5-5.5s2.5-5.5 5.5-5.5 5.5 2.5 5.5 5.5-2.5 5.5-5.5 5.5zM256 402c-80.6 0-146-65.4-146-146s65.4-146 146-146 146 65.4 146 146-65.4 146-146 146zm238.5-170c3 0 5.5 2.5 5.5 5.5s-2.5 5.5-5.5 5.5-5.5-2.5-5.5-5.5 2.5-5.5 5.5-5.5zm0 48c-3 0-5.5-2.5-5.5-5.5s2.5-5.5 5.5-5.5 5.5 2.5 5.5 5.5-2.5 5.5-5.5 5.5z" opacity=".1" fill="#fff"/><path d="M450.6 89.7l-78.2 78.2c18.6 24.5 29.6 55 29.6 88.1s-11 63.6-29.6 88.1l78.2 78.2C488.9 377.6 512 319.5 512 256s-23.1-121.6-61.4-166.3zM494.5 232c3 0 5.5 2.5 5.5 5.5s-2.5 5.5-5.5 5.5-5.5-2.5-5.5-5.5 2.5-5.5 5.5-5.5zm0 48c-3 0-5.5-2.5-5.5-5.5s2.5-5.5 5.5-5.5 5.5 2.5 5.5 5.5-2.5 5.5-5.5 5.5zM167.9 139.6c24.5-18.6 55-29.6 88.1-29.6s63.6 11 88.1 29.6l78.2-78.2C377.6 23.1 319.5 0 256 0S134.4 23.1 89.7 61.4l78.2 78.2zM274.5 12c3 0 5.5 2.5 5.5 5.5s-2.5 5.5-5.5 5.5-5.5-2.5-5.5-5.5 2.5-5.5 5.5-5.5zm-37 0c3 0 5.5 2.5 5.5 5.5s-2.5 5.5-5.5 5.5-5.5-2.5-5.5-5.5 2.5-5.5 5.5-5.5zm106.6 360.4C319.6 391 289.1 402 256 402s-63.6-11-88.1-29.6l-78.2 78.2C134.4 488.9 192.5 512 256 512s121.6-23.1 166.3-61.4l-78.2-78.2zM237.5 500c-3 0-5.5-2.5-5.5-5.5s2.5-5.5 5.5-5.5 5.5 2.5 5.5 5.5-2.5 5.5-5.5 5.5zm37 0c-3 0-5.5-2.5-5.5-5.5s2.5-5.5 5.5-5.5 5.5 2.5 5.5 5.5-2.5 5.5-5.5 5.5zM139.6 344.1C121 319.6 110 289.1 110 256s11-63.6 29.6-88.1L61.4 89.7C23.1 134.4 0 192.5 0 256s23.1 121.6 61.4 166.3l78.2-78.2zM17.5 232c3 0 5.5 2.5 5.5 5.5s-2.5 5.5-5.5 5.5-5.5-2.5-5.5-5.5 2.5-5.5 5.5-5.5zm0 48c-3 0-5.5-2.5-5.5-5.5s2.5-5.5 5.5-5.5 5.5 2.5 5.5 5.5-2.5 5.5-5.5 5.5z" fill="#fff"/></svg>