<svg xmlns="http://www.w3.org/2000/svg" viewBox="0 0 512 512" xml:space="preserve"><path d="M342 512H170c-17.7 0-32-14.3-32-32V32c0-17.7 14.3-32 32-32h172c17.7 0 32 14.3 32 32v448c0 17.7-14.3 32-32 32z" opacity=".1" fill="#f4f4f4"/><path d="M342 0H170c-17.7 0-32 14.3-32 32v448c0 17.7 14.3 32 32 32h172c17.7 0 32-14.3 32-32V32c0-17.7-14.3-32-32-32zM193.4 474.2c-16-2-28.4-15.7-28.4-32.2s12.4-30.2 28.4-32.2v64.4zm0-93c-16-2-28.4-15.7-28.4-32.2s12.4-30.2 28.4-32.2v64.4zm0-93c-16-2-28.4-15.7-28.4-32.2s12.4-30.2 28.4-32.2v64.4zm0-93c-16-2-28.4-15.7-28.4-32.2s12.4-30.2 28.4-32.2v64.4zm0-93c-16-2-28.4-15.7-28.4-32.2s12.4-30.2 28.4-32.2v64.4zm8.2 372v-64.5c16 2 28.4 15.7 28.4 32.2 0 16.7-12.4 30.3-28.4 32.3zm0-93v-64.5c16 2 28.4 15.7 28.4 32.2 0 16.7-12.4 30.3-28.4 32.3zm0-93v-64.5c16 2 28.4 15.7 28.4 32.2 0 16.7-12.4 30.3-28.4 32.3zm0-93v-64.5c16 2 28.4 15.7 28.4 32.2 0 16.7-12.4 30.3-28.4 32.3zm0-93V37.8c16 2 28.4 15.7 28.4 32.2s-12.4 30.2-28.4 32.2zM266 471c0 3.3-2.7 6-6 6h-8c-3.3 0-6-2.7-6-6V47c0-3.3 2.7-6 6-6h8c3.3 0 6 2.7 6 6v424zm44.4 3.2c-16-2-28.4-15.7-28.4-32.2s12.4-30.2 28.4-32.2v64.4zm0-93c-16-2-28.4-15.7-28.4-32.2s12.4-30.2 28.4-32.2v64.4zm0-93c-16-2-28.4-15.7-28.4-32.2s12.4-30.2 28.4-32.2v64.4zm0-93c-16-2-28.4-15.7-28.4-32.2s12.4-30.2 28.4-32.2v64.4zm0-93c-16-2-28.4-15.7-28.4-32.2s12.4-30.2 28.4-32.2v64.4zm8.2 372v-64.5c16 2 28.4 15.7 28.4 32.2 0 16.7-12.4 30.3-28.4 32.3zm0-93v-64.5c16 2 28.4 15.7 28.4 32.2 0 16.7-12.4 30.3-28.4 32.3zm0-93v-64.5c16 2 28.4 15.7 28.4 32.2 0 16.7-12.4 30.3-28.4 32.3zm0-93v-64.5c16 2 28.4 15.7 28.4 32.2 0 16.7-12.4 30.3-28.4 32.3zm0-93V37.8c16 2 28.4 15.7 28.4 32.2s-12.4 30.2-28.4 32.2z" fill="#fff"/></svg>