<svg version="1.1" xmlns="http://www.w3.org/2000/svg" x="0" y="0" viewBox="0 0 512 512" xml:space="preserve"><path d="M419.5 375.6c9.3-21.9 14-45.2 14-69.1s-4.7-47.2-14-69.1c-8.9-21.1-21.7-40.1-38-56.4-10.7-10.7-22.5-19.8-35.3-27.4l5.1-8.8 51.1 29.5c3.8 2.2 8.7.9 10.9-2.9l6.9-12c1.8-3.1 2.5-6.6 2-10.1-2.6-19.7-13.2-38.9-34.6-54.3l11.8-20.4c1.1-1.9.4-4.4-1.5-5.5l-13.9-8c-1.9-1.1-4.4-.4-5.5 1.5L367.9 81c-10.5-8.6-9.5-15.8-9.4-15.8l.1-.4V46.4c0-15-9.4-28.4-23.5-33.4-16.6-5.9-43.5-13-77-13h-2c-33.6 0-60.4 7.1-77 13-14 5-23.5 18.4-23.5 33.4v18.4l.1.4c0 .1 1.1 7.9-10.8 16.9l-11.3-19.6c-1.1-1.9-3.6-2.6-5.5-1.5l-13.9 8c-1.9 1.1-2.6 3.6-1.5 5.5l11.8 20.4c-21.4 15.4-32 34.7-34.6 54.3-.5 3.5.2 7.1 2 10.1l6.9 12c2.2 3.8 7.1 5.1 10.9 2.9l51.1-29.5 5.1 8.8c-12.8 7.6-24.7 16.7-35.3 27.4-16.3 16.3-29.1 35.3-38 56.4-9.3 21.9-14 45.2-14 69.1s4.7 47.2 14 69.1c8.9 21.1 21.7 40.1 38 56.4 7 7 14.5 13.4 22.5 19.1l-10 17.3c-4.1 7.1-7.9 14.5-11.3 22l-5.5 12.1c-1.3 2.8-.2 6.1 2.5 7.7l1.8 1.1c2.7 1.5 6.1.8 7.9-1.7l7.8-10.9c4.8-6.7 9.2-13.6 13.4-20.8l9.6-16.6c5.8 3.2 11.7 6.2 17.8 8.8 21.9 9.3 45.2 14 69.1 14s47.2-4.7 69.1-14c6.1-2.6 12.1-5.5 17.8-8.8l9.6 16.6c4.1 7.1 8.6 14.1 13.4 20.8l7.8 10.9c1.8 2.5 5.2 3.3 7.9 1.7l1.8-1.1c2.7-1.5 3.7-4.9 2.5-7.7l-5.5-12.1c-3.4-7.5-7.2-14.8-11.3-22l-10-17.3c8-5.7 15.5-12.1 22.5-19.1 16-16.2 28.8-35.2 37.7-56.3zM170.3 139.3l51.1-29.5c3.8-2.2 5.1-7.1 2.9-10.9l-6.9-12c-1.8-3.1-4.5-5.5-7.8-6.8-14.9-6.1-32.2-7.6-51.1-2.1 4.5-6.7 4.3-12.1 4-13.7V46.4c0-12 7.6-22.8 18.8-26.8C197.4 13.8 223.4 7 256 7h2c32.6 0 58.6 6.8 74.7 12.6 11.3 4 18.8 14.8 18.8 26.8v17.9c-.2 1.7-.5 7.4 4.6 14.5-19.9-6.4-38.1-5.1-53.7 1.3-3.3 1.3-6 3.7-7.8 6.8l-6.9 12c-2.2 3.8-.9 8.7 2.9 10.9l51.1 29.5-5.2 9c-3.7-1.9-7.5-3.7-11.4-5.3-21.3-9-43.9-13.7-67.1-13.9v-17.5h9.7c4.4 0 8-3.6 8-8s-3.6-8-8-8h-23.5c-4.4 0-8 3.6-8 8s3.6 8 8 8h9.7V129c-23.2.3-45.8 4.9-67.1 13.9-3.9 1.6-7.7 3.4-11.4 5.3l-5.1-8.9z" opacity=".1" fill="#fff"/><path d="M419.5 375.6c9.3-21.9 14-45.2 14-69.1s-4.7-47.2-14-69.1c-8.9-21.1-21.7-40.1-38-56.4-10.7-10.7-22.5-19.8-35.3-27.4l5.1-8.8 51.1 29.5c3.8 2.2 8.7.9 10.9-2.9l6.9-12c1.8-3.1 2.5-6.6 2-10.1-2.6-19.7-13.2-38.9-34.6-54.3l11.8-20.4c1.1-1.9.4-4.4-1.5-5.5l-13.9-8c-1.9-1.1-4.4-.4-5.5 1.5L367.9 81c-10.5-8.6-9.5-15.8-9.4-15.8l.1-.4V46.4c0-15-9.4-28.4-23.5-33.4-16.6-5.9-43.5-13-77-13h-2c-33.6 0-60.4 7.1-77 13-14 5-23.5 18.4-23.5 33.4v18.4l.1.4c0 .1 1.1 7.9-10.8 16.9l-11.3-19.6c-1.1-1.9-3.6-2.6-5.5-1.5l-13.9 8c-1.9 1.1-2.6 3.6-1.5 5.5l11.8 20.4c-21.4 15.4-32 34.7-34.6 54.3-.5 3.5.2 7.1 2 10.1l6.9 12c2.2 3.8 7.1 5.1 10.9 2.9l51.1-29.5 5.1 8.8c-12.8 7.6-24.7 16.7-35.3 27.4-16.3 16.3-29.1 35.3-38 56.4-9.3 21.9-14 45.2-14 69.1s4.7 47.2 14 69.1c8.9 21.1 21.7 40.1 38 56.4 7 7 14.5 13.4 22.5 19.1l-10 17.3c-4.1 7.1-7.9 14.5-11.3 22l-5.5 12.1c-1.3 2.8-.2 6.1 2.5 7.7l1.8 1.1c2.7 1.5 6.1.8 7.9-1.7l7.8-10.9c4.8-6.7 9.2-13.6 13.4-20.8l9.6-16.6c5.8 3.2 11.7 6.2 17.8 8.8 21.9 9.3 45.2 14 69.1 14s47.2-4.7 69.1-14c6.1-2.6 12.1-5.5 17.8-8.8l9.6 16.6c4.1 7.1 8.6 14.1 13.4 20.8l7.8 10.9c1.8 2.5 5.2 3.3 7.9 1.7l1.8-1.1c2.7-1.5 3.7-4.9 2.5-7.7l-5.5-12.1c-3.4-7.5-7.2-14.8-11.3-22l-10-17.3c8-5.7 15.5-12.1 22.5-19.1 16-16.2 28.8-35.2 37.7-56.3zM170.3 139.3l51.1-29.5c3.8-2.2 5.1-7.1 2.9-10.9l-6.9-12c-1.8-3.1-4.5-5.5-7.8-6.8-14.9-6.1-32.2-7.6-51.1-2.1 4.5-6.7 4.3-12.1 4-13.7V46.4c0-12 7.6-22.8 18.8-26.8C197.4 13.8 223.4 7 256 7h2c32.6 0 58.6 6.8 74.7 12.6 11.3 4 18.8 14.8 18.8 26.8v17.9c-.2 1.7-.5 7.4 4.6 14.5-19.9-6.4-38.1-5.1-53.7 1.3-3.3 1.3-6 3.7-7.8 6.8l-6.9 12c-2.2 3.8-.9 8.7 2.9 10.9l51.1 29.5-5.2 9c-3.7-1.9-7.5-3.7-11.4-5.3-21.3-9-43.9-13.7-67.1-13.9v-17.5h9.7c4.4 0 8-3.6 8-8s-3.6-8-8-8h-23.5c-4.4 0-8 3.6-8 8s3.6 8 8 8h9.7V129c-23.2.3-45.8 4.9-67.1 13.9-3.9 1.6-7.7 3.4-11.4 5.3l-5.1-8.9zM256 454c-81.5 0-147.5-66-147.5-147.5S174.5 159 256 159s147.5 66 147.5 147.5S337.5 454 256 454zm-75.6-250.1l-3.3-4.5 1.3-.9 3.3 4.5-1.3.9zm-10.3 8.5l-3.7-4.2 1.2-1.1 3.7 4.2-1.2 1.1zM129.2 294l-5.5-.6.2-1.6 5.5.6-.2 1.6zm251.3-14.8l5.4-1.1.3 1.6-5.4 1.1-.3-1.6zm-20.2-36.1l9.5-5.5 2.8 4.7-9.5 5.5-2.8-4.7zm-156.8-52.6l-2.3-5.1 1.5-.7 2.3 5.1-1.5.7zm4.1 23l-1.6-2 5-4h2.7v15.6h-3.4v-9l.1-1.5.1-1.6-1.1 1.1-1.8 1.4zm-14.1-2l5-4h2.7v15.6h-3.4v-9l.1-1.5.1-1.6-1.1 1.1-1.8 1.5-1.6-2.1zm-.9-9.2l-5.5-9.6 4.7-2.8 5.5 9.6-4.7 2.8zm-58.1 65.6l-5.3-1.7.5-1.5 5.3 1.7-.5 1.5zm12.8 43.5c-.7.3-1.6.5-2.7.5-.6 0-1.3-.1-1.9-.2v2.6c.5.1 1.1.2 2.1.2 2.6 0 4.6-.8 5.9-2.3 1.3-1.5 1.9-3.8 1.9-6.9 0-1.5-.3-2.6-.7-3.6-.5-1-1.1-1.8-2-2.3-.8-.6-1.9-.8-3-.8-1.7 0-3 .5-3.9 1.5-.9.9-1.4 2.3-1.4 3.9s.4 2.8 1.2 3.6c.8.9 1.9 1.3 3.2 1.3.8 0 1.5-.2 2-.4.6-.3 1-.7 1.5-1.4h.1c-.1 1.2-.3 2.2-.7 2.9s-.9 1.1-1.6 1.4zm1.3-5.7c-.5.5-1 .7-1.7.7s-1.2-.3-1.6-.7c-.4-.4-.5-1-.5-1.8 0-.9.2-1.6.6-2 .4-.5.9-.7 1.6-.7.7 0 1.2.3 1.7.9.5.6.7 1.3.7 2.1-.1.5-.3 1.1-.8 1.5zm67.2-120.1l-1.7-5.3 1.5-.5 1.7 5.3-1.5.5zm-76.5 69.8l-5.1-2.3.7-1.5 5.1 2.3-.7 1.5zm-8.1 25.4l-5.5-1.1.3-1.6 5.5 1.1-.3 1.6zm26.2-31.9l5-4h2.6v15.5h-3.3v-9l.1-1.5.1-1.6-1.1 1.1-1.8 1.5-1.6-2zm214.7 5l5-2.2.7 1.5-5 2.2-.7-1.5zm-211.3-32l-4.2-3.7 1.1-1.2 4.2 3.7-1.1 1.2zm-11.9 26l-9.5-5.5 2.8-4.7 9.5 5.5-2.8 4.7zm79.8-65.9l-1.1-5.5 1.6-.3 1.1 5.5-1.6.3zm90.6 20.1l-4.7-2.8 5.5-9.5 4.7 2.8-5.5 9.5zm12.3 1.7l-1.3-.9 3.2-4.4 1.3.9-3.2 4.4zm-23-13.4l-1.5-.7 2.2-5 1.5.7-2.2 5zm51 41.8l-.9-1.3 4.4-3.2.9 1.3-4.4 3.2zm-15.7 14.9c.8-.7 1.4-1.1 1.9-1.4s1-.5 1.7-.6c.6-.2 1.2-.2 2-.2 1 0 1.8.2 2.6.5.8.4 1.4.8 1.7 1.5.4.6.6 1.4.6 2.2 0 .7-.1 1.4-.4 2-.3.6-.6 1.3-1.2 1.9s-1.5 1.6-2.8 2.8l-2 1.9v.2h6.8v2.9h-11v-2.3l3.9-3.9c1.1-1.2 1.9-2 2.3-2.5.4-.5.6-.9.8-1.3.2-.4.3-.8.3-1.2 0-.6-.2-1.1-.5-1.4s-.8-.5-1.4-.5c-.6 0-1.2.2-1.8.4s-1.1.7-1.8 1.2l-1.7-2.2zm7.4-25.3l-1.1-1.2 4.1-3.6 1.1 1.2-4.1 3.6zm31.5 70.6l5.4-.6.2 1.6-5.4.6-.2-1.6zm-75.9-78.9l-1.6-2 5-4h2.7v15.6h-3.3v-9l.1-1.5.1-1.6-1.1 1.1-1.9 1.4zm35-1.2l-1.2-1.1 3.6-4.1 1.2 1.1-3.6 4.1zm-95.7-13.9l-1.6-2 5-4h2.7v15.5H249v-9l.1-1.5.1-1.6-1.1 1.1-1.9 1.5zm12.5-13.9h-5.5v-11h5.5v11zm108.1 125c0-.7-.3-1.2-.9-1.6-.6-.3-1.6-.5-2.9-.5h-1.2v-2.5h1.2c1.2 0 2.1-.2 2.6-.5.6-.3.8-.9.8-1.6 0-1.2-.7-1.8-2.2-1.8-.5 0-1 .1-1.6.3-.5.2-1.1.5-1.8.9l-1.5-2.3c1.4-1 3.1-1.6 5.1-1.6 1.6 0 2.9.3 3.8 1 .9.7 1.5 1.7 1.5 2.8 0 1-.3 1.8-.9 2.5-.6.7-1.4 1.1-2.5 1.4v.1c1.2.2 2.2.5 2.9 1.1.6.6 1 1.4 1 2.4 0 1.5-.5 2.6-1.6 3.5-1.1.8-2.6 1.2-4.7 1.2-1.7 0-3.2-.3-4.5-.8v-2.8c.6.3 1.2.6 2 .7.7.2 1.5.3 2.1.3 1.1 0 1.9-.2 2.4-.6.7-.2.9-.8.9-1.6zm-125-129.6l-.6-5.5 1.6-.2.6 5.5-1.6.2zm54.4 5.6l-1.5-.5 1.7-5.2 1.5.5-1.7 5.2zm-13-3.6l-1.6-.3 1.1-5.4 1.6.3-1.1 5.4zm-13.1-2.1l-1.6-.2.6-5.4 1.6.2-.6 5.4zm-11.6 13.1c.5-.3 1-.5 1.7-.6.6-.2 1.2-.2 2-.2 1 0 1.8.2 2.6.5.7.4 1.4.8 1.7 1.5.4.6.6 1.4.6 2.2 0 .7-.1 1.4-.4 2-.3.6-.6 1.3-1.2 1.9-.5.7-1.5 1.6-2.8 2.8l-2 1.9v.2h6.8v2.9h-11v-2.3l3.9-3.9c1.1-1.2 1.9-2 2.3-2.5s.6-.9.8-1.3.3-.8.3-1.2c0-.6-.2-1.1-.5-1.4-.4-.3-.8-.5-1.4-.5-.6 0-1.2.2-1.8.4-.6.3-1.1.7-1.8 1.2l-1.8-2.1c.8-.8 1.4-1.2 2-1.5zm118.4 73.4l5.2-1.7.5 1.5-5.2 1.7-.5-1.5zm-68.4 156.4l2.2 5-1.5.7-2.2-5 1.5-.7zm10.8-11.9l5.5 9.5-4.7 2.8-5.5-9.5 4.7-2.8zm22.6-10.1l3.6 4.1-1.2 1.1-3.6-4.1 1.2-1.1zm-88.7 27.8h5.5v11h-5.5v-11zm59.8-31.1c.9.8 1.4 2 1.4 3.5 0 1.8-.5 3.1-1.6 4-1.1.9-2.6 1.4-4.6 1.4-1.7 0-3.1-.3-4.2-.8v-2.9c.6.3 1.2.5 2 .7.8.2 1.5.3 2.1.3 2 0 3-.8 3-2.5 0-1.6-1-2.3-3.1-2.3-.4 0-.8.1-1.2.1-.5.1-.8.2-1.1.3l-1.3-.7.6-7.9h8.5v2.8h-5.6l-.3 3.1.4-.1c.4-.1 1-.1 1.6-.1 1.3-.1 2.5.3 3.4 1.1zm-55.9 13.1c-1.6 0-2.6.6-3.4 1.8h-.2c.1-1.2.3-2.2.6-2.9.4-.7.9-1.1 1.6-1.5.7-.4 1.6-.5 2.8-.5.6 0 1.2.1 1.9.2V405c-.5-.1-1.2-.2-2.1-.2-2.6 0-4.6.8-5.9 2.3-1.3 1.5-2 3.8-2 6.9 0 1.4.3 2.6.8 3.7.5 1 1.1 1.8 2 2.3.8.5 1.9.8 3 .8 1.7 0 3-.5 3.9-1.5.9-1 1.4-2.3 1.4-3.9s-.4-2.8-1.2-3.6c-.7-.8-1.8-1.3-3.2-1.3zm.6 7c-.4.5-.9.7-1.6.7-.7 0-1.2-.3-1.7-.9-.5-.6-.7-1.3-.7-2.1 0-.6.3-1.1.7-1.5.5-.5 1-.7 1.7-.7s1.2.3 1.6.7c.4.5.5 1 .5 1.8.1.9-.1 1.5-.5 2zm12.4 15.7l.6 5.4-1.6.2-.6-5.4 1.6-.2zm26-5.7l1.7 5.2-1.5.5-1.7-5.2 1.5-.5zm-12.8 3.6l1.1 5.4-1.6.3-1.1-5.4 1.6-.3zm48.3-21.9l3.2 4.4-1.3.9-3.2-4.4 1.3-.9zm51.3-90.2l5.4.6-.2 1.6-5.4-.6.2-1.6zm-2.1 13.2l5.4 1.1-.3 1.6-5.4-1.1.3-1.6zm8.2-28.4v5.5h-11v-5.5h11zm-35.6 62.7v-3.2h2v-2.5h-1.9V351h-3.1l-6.9 10.1v2.3h6.6v3.2h3.3zm-7-5.8l2.9-4.3c.4-.6.7-1.1.9-1.7h.1c-.1.1-.1.6-.1 1.5-.1.8-.1 1.5-.1 1.9v2.6h-3.7zm31.1-15.6l5.2 1.7-.5 1.5-5.2-1.7.5-1.5zm-17.9 35.7l4.4 3.2-.9 1.3-4.4-3.2.9-1.3zm-8.3 10.5l4.1 3.6-1.1 1.2-4.1-3.6 1.1-1.2zm11.7-26.1l9.5 5.5-2.8 4.7-9.5-5.5 2.8-4.7zm9.8-7.6l5 2.2-.7 1.5-5-2.2.7-1.5zm-241.3-23.8l-5.5 1.1-.3-1.6 5.5-1.1.3 1.6zm17.4-106.1l4.5 3.3-.9 1.3-4.5-3.3.9-1.3zm3.5 153.1l.9 1.3-4.5 3.3-.9-1.3 4.5-3.3zm8.4 10.4l1.1 1.2-4.2 3.7-1.1-1.2 4.2-3.7zm81.1 41.9l1.6.2-.6 5.5-1.6-.2.6-5.5zM134 309.2h-11v-5.5h11v5.5zm-4.7 11.4l-5.5.6-.2-1.6 5.5-.6.2 1.6zm10.6 38.5l-5.1 2.3-.7-1.5 5.1-2.3.7 1.5zm28.9 3.2c0-.8-.3-1.6-.8-2.2-.5-.7-1.4-1.4-2.5-2 1-.5 1.7-1 2.1-1.7.5-.6.7-1.4.7-2.1 0-1.1-.4-2.1-1.4-2.8-.9-.7-2.1-1-3.6-1s-2.6.4-3.5 1-1.4 1.6-1.4 2.7c0 .7.2 1.5.6 2.1.4.7 1 1.2 1.9 1.8-1 .5-1.8 1.1-2.3 1.8-.5.7-.7 1.5-.7 2.4 0 1.3.5 2.3 1.5 3.1.9.7 2.3 1.1 4 1.1 1.6 0 3-.4 3.9-1.1.9-.8 1.5-1.8 1.5-3.1zm-6.8-8.9c.3-.3.8-.4 1.4-.4.5 0 1 .1 1.4.4.4.3.5.7.5 1.1 0 .5-.2.8-.4 1.2-.3.3-.8.7-1.5 1-.7-.4-1.2-.7-1.5-1-.3-.3-.4-.7-.4-1.1-.1-.6.1-.9.5-1.2zm3.1 10.2c-.4.4-1 .5-1.8.5s-1.4-.2-1.8-.5-.6-.8-.6-1.5c0-1.1.8-2 2.2-2.6.9.5 1.6.9 2 1.4.4.4.6.9.6 1.4 0 .5-.2 1-.6 1.3zm-30-17l-5.3 1.8-.5-1.5 5.3-1.8.5 1.5zm16.6 23.3l-9.5 5.5-2.8-4.7 9.5-5.5 2.8 4.7zm64.1 57.5l1.5.5-1.7 5.3-1.5-.5 1.7-5.3zm-17.5-36.6h11.2v2.1l-5.9 13.5h-3.4v-.1l5.9-12.8h-7.7v-2.7zm30.5 40.2l1.6.3-1.1 5.5-1.6-.3 1.1-5.5zm-25.4-8.5l1.5.7-2.3 5.1-1.5-.7 2.3-5.1zm-10.7-11.8l4.7 2.8-5.5 9.5-4.7-2.8 5.5-9.5zm-22.5-10l1.2 1.1-3.7 4.2-1.2-1.1 3.7-4.2zm8.6-142c.9-1.3 1.4-3.3 1.4-6 0-2.6-.5-4.6-1.3-6-.9-1.4-2.3-2-4.1-2-1.9 0-3.2.7-4.1 2s-1.4 3.3-1.4 6.1c0 2.6.4 4.6 1.4 6 .9 1.4 2.2 2 4.1 2 1.8-.2 3.2-.8 4-2.1zm-2.4-2c-.4.8-.9 1.2-1.7 1.2-.8 0-1.4-.4-1.7-1.2-.4-.8-.5-2.2-.5-4.1 0-1.9.2-3.3.5-4.1.3-.8.9-1.2 1.7-1.2.8 0 1.3.4 1.7 1.2s.5 2.2.5 4.1c0 2-.1 3.3-.5 4.1zm4 152.4l1.3.9-3.3 4.5-1.3-.9 3.3-4.5zm85.6-97.3c-1.9 3.6-5.7 6-10 6-5.6 0-10.2-4-11.1-9.3l-30.6-1.4c-2.8-.1-5.5-.6-8.2-1.3l-25.3-7.2c-1.1-.3-.9-1.9.2-2l26.3-1.4c2.8-.1 5.5 0 8.3.5l30.5 5.4c1.9-3.5 5.6-6 10-6 5.7 0 10.4 4.3 11.2 9.8l49.7 10c3.4.7 6.7 1.6 10 2.9l35.5 13.4c1.1.4.7 2.1-.5 1.9l-37.7-4.8c-3.4-.4-6.8-1.2-10.1-2.1L266 311.8z" fill="#fff"/></svg>