<svg version="1.1" xmlns="http://www.w3.org/2000/svg" x="0" y="0" viewBox="0 0 512 512" xml:space="preserve"><g fill="#fff"><path d="M509 306h-1.5V107c0-6.6-5.4-12-12-12h-479c-6.6 0-12 5.4-12 12v199H3c-1.7 0-3 1.3-3 3v78c0 1.7 1.3 3 3 3h1.5v15c0 6.6 5.4 12 12 12h479c6.6 0 12-5.4 12-12v-15h1.5c1.7 0 3-1.3 3-3v-78c0-1.7-1.3-3-3-3zm-222.5-26h-32.9c4.1-11.7 6.4-24.3 6.4-37.5 0-15.4-3.1-30.1-8.7-43.5h38.5c-7.5 12.8-11.7 27.6-11.7 43.5-.1 13.4 3 26.2 8.4 37.5zm-120.3-23.2c-3.7 4.9-9.3 8.2-15.7 9.1v-5.1c-1 .2-2 .3-3 .3s-2-.1-3-.3v5.1c-6.4-.8-12-4.2-15.7-9.1l4.4-2.5c-1.3-1.5-2.3-3.3-3-5.2l-4.4 2.5c-1.2-2.8-1.8-5.8-1.8-9.1 0-3.2.6-6.3 1.8-9.1l4.4 2.5c.7-1.9 1.7-3.7 3-5.2l-4.4-2.5c3.7-4.9 9.3-8.2 15.7-9.1v5.1c1-.2 2-.3 3-.3s2 .1 3 .3v-5.1c6.4.8 12 4.2 15.7 9.1l-4.4 2.5c1.3 1.5 2.3 3.3 3 5.2l4.4-2.5c1.2 2.8 1.8 5.8 1.8 9.1 0 3.2-.6 6.3-1.8 9.1l-4.4-2.5c-.7 1.9-1.7 3.7-3 5.2l4.4 2.5zM134.5 411c-6.4 0-11.5-5.1-11.5-11.5s5.1-11.5 11.5-11.5 11.5 5.1 11.5 11.5-5.1 11.5-11.5 11.5zm60.5-15c0 3.3-2.7 6-6 6h-9c-3.3 0-6-2.7-6-6v-7c0-3.3 2.7-6 6-6h9c3.3 0 6 2.7 6 6v7zm143 0c0 3.3-2.7 6-6 6h-9c-3.3 0-6-2.7-6-6v-7c0-3.3 2.7-6 6-6h9c3.3 0 6 2.7 6 6v7zm39.5 15c-6.4 0-11.5-5.1-11.5-11.5s5.1-11.5 11.5-11.5 11.5 5.1 11.5 11.5-5.1 11.5-11.5 11.5zm-31.7-182.8c3.7-4.9 9.3-8.2 15.7-9.1v5.1c1-.2 2-.3 3-.3s2 .1 3 .3v-5.1c6.4.8 12 4.2 15.7 9.1l-4.4 2.5c1.3 1.5 2.3 3.3 3 5.2l4.4-2.5c1.2 2.8 1.8 5.8 1.8 9.1 0 3.2-.6 6.3-1.8 9.1l-4.4-2.5c-.7 1.9-1.7 3.7-3 5.2l4.4 2.5c-3.7 4.9-9.3 8.2-15.7 9.1v-5.1c-1 .2-2 .3-3 .3s-2-.1-3-.3v5.1c-6.4-.8-12-4.2-15.7-9.1l4.4-2.5c-1.3-1.5-2.3-3.3-3-5.2l-4.4 2.5c-1.2-2.8-1.8-5.8-1.8-9.1 0-3.2.6-6.3 1.8-9.1l4.4 2.5c.7-1.9 1.7-3.7 3-5.2l-4.4-2.5z" opacity=".1"/><path d="M256 354c-5 0-9 4-9 9s4 9 9 9 9-4 9-9-4-9-9-9zm5 10h-1.8l-2.2 2.2v1.8c0 .6-.4 1-1 1s-1-.4-1-1v-1.8l-2.2-2.2H251c-.6 0-1-.4-1-1s.4-1 1-1h1.8l2.2-2.2V358c0-.6.4-1 1-1s1 .4 1 1v1.8l2.2 2.2h1.8c.6 0 1 .4 1 1s-.4 1-1 1zm174-165H289.7c-7.5 12.8-11.7 27.6-11.7 43.5 0 13.4 3.1 26.2 8.5 37.5H435c3.3 0 6-2.7 6-6v-69c0-3.3-2.7-6-6-6zm-48.8 52.6l-4.4-2.5c-.7 1.9-1.7 3.7-3 5.2l4.4 2.5c-3.7 4.9-9.3 8.2-15.7 9.1v-5.1c-1 .2-2 .3-3 .3s-2-.1-3-.3v5.1c-6.4-.8-12-4.2-15.7-9.1l4.4-2.5c-1.3-1.5-2.3-3.3-3-5.2l-4.4 2.5c-1.2-2.8-1.8-5.8-1.8-9.1 0-3.2.6-6.3 1.8-9.1l4.4 2.5c.7-1.9 1.7-3.7 3-5.2l-4.4-2.5c3.7-4.9 9.3-8.2 15.7-9.1v5.1c1-.2 2-.3 3-.3s2 .1 3 .3v-5.1c6.4.8 12 4.2 15.7 9.1l-4.4 2.5c1.3 1.5 2.3 3.3 3 5.2l4.4-2.5c1.2 2.8 1.8 5.8 1.8 9.1 0 3.2-.6 6.3-1.8 9.1zM509 306h-1.5V107c0-6.6-5.4-12-12-12h-479c-6.6 0-12 5.4-12 12v199H3c-1.7 0-3 1.3-3 3v78c0 1.7 1.3 3 3 3h1.5v15c0 6.6 5.4 12 12 12h479c6.6 0 12-5.4 12-12v-15h1.5c1.7 0 3-1.3 3-3v-78c0-1.7-1.3-3-3-3zM18 414c-6.1 0-11-4.9-11-11s4.9-11 11-11 11 4.9 11 11-4.9 11-11 11zm0-294c-6.1 0-11-4.9-11-11s4.9-11 11-11 11 4.9 11 11-4.9 11-11 11zm116.5 291c-6.4 0-11.5-5.1-11.5-11.5s5.1-11.5 11.5-11.5 11.5 5.1 11.5 11.5-5.1 11.5-11.5 11.5zm60.5-15c0 3.3-2.7 6-6 6h-9c-3.3 0-6-2.7-6-6v-7c0-3.3 2.7-6 6-6h9c3.3 0 6 2.7 6 6v7zm61-22c-6.1 0-11-4.9-11-11s4.9-11 11-11 11 4.9 11 11-4.9 11-11 11zm82 22c0 3.3-2.7 6-6 6h-9c-3.3 0-6-2.7-6-6v-7c0-3.3 2.7-6 6-6h9c3.3 0 6 2.7 6 6v7zm39.5 15c-6.4 0-11.5-5.1-11.5-11.5s5.1-11.5 11.5-11.5 11.5 5.1 11.5 11.5-5.1 11.5-11.5 11.5zM445 274c0 5.5-4.5 10-10 10H77c-5.5 0-10-4.5-10-10v-69c0-5.5 4.5-10 10-10h358c5.5 0 10 4.5 10 10v69zm48.5 140c-6.1 0-11-4.9-11-11s4.9-11 11-11 11 4.9 11 11-4.9 11-11 11zm0-294c-6.1 0-11-4.9-11-11s4.9-11 11-11 11 4.9 11 11-4.9 11-11 11zM77 199c-3.3 0-6 2.7-6 6v69c0 3.3 2.7 6 6 6h176.6c4.1-11.7 6.4-24.3 6.4-37.5 0-15.4-3.1-30.1-8.7-43.5H77zm92.2 52.6l-4.4-2.5c-.7 1.9-1.7 3.7-3 5.2l4.4 2.5c-3.7 4.9-9.3 8.2-15.7 9.1v-5.1c-1 .2-2 .3-3 .3s-2-.1-3-.3v5.1c-6.4-.8-12-4.2-15.7-9.1l4.4-2.5c-1.3-1.5-2.3-3.3-3-5.2l-4.4 2.5c-1.2-2.8-1.8-5.8-1.8-9.1 0-3.2.6-6.3 1.8-9.1l4.4 2.5c.7-1.9 1.7-3.7 3-5.2l-4.4-2.5c3.7-4.9 9.3-8.2 15.7-9.1v5.1c1-.2 2-.3 3-.3s2 .1 3 .3v-5.1c6.4.8 12 4.2 15.7 9.1l-4.4 2.5c1.3 1.5 2.3 3.3 3 5.2l4.4-2.5c1.2 2.8 1.8 5.8 1.8 9.1 0 3.2-.6 6.3-1.8 9.1zM18 394c-5 0-9 4-9 9s4 9 9 9 9-4 9-9-4-9-9-9zm5 10h-1.8l-2.2 2.2v1.8c0 .6-.4 1-1 1s-1-.4-1-1v-1.8l-2.2-2.2H13c-.6 0-1-.4-1-1s.4-1 1-1h1.8l2.2-2.2V398c0-.6.4-1 1-1s1 .4 1 1v1.8l2.2 2.2H23c.6 0 1 .4 1 1s-.4 1-1 1zm470.5-10c-5 0-9 4-9 9s4 9 9 9 9-4 9-9-4-9-9-9zm5 10h-1.8l-2.2 2.2v1.8c0 .6-.4 1-1 1s-1-.4-1-1v-1.8l-2.2-2.2h-1.8c-.6 0-1-.4-1-1s.4-1 1-1h1.8l2.2-2.2V398c0-.6.4-1 1-1s1 .4 1 1v1.8l2.2 2.2h1.8c.6 0 1 .4 1 1s-.4 1-1 1zM18 100c-5 0-9 4-9 9s4 9 9 9 9-4 9-9-4-9-9-9zm5 10h-1.8l-2.2 2.2v1.8c0 .6-.4 1-1 1s-1-.4-1-1v-1.8l-2.2-2.2H13c-.6 0-1-.4-1-1s.4-1 1-1h1.8l2.2-2.2V104c0-.6.4-1 1-1s1 .4 1 1v1.8l2.2 2.2H23c.6 0 1 .4 1 1s-.4 1-1 1zm470.5-10c-5 0-9 4-9 9s4 9 9 9 9-4 9-9-4-9-9-9zm5 10h-1.8l-2.2 2.2v1.8c0 .6-.4 1-1 1s-1-.4-1-1v-1.8l-2.2-2.2h-1.8c-.6 0-1-.4-1-1s.4-1 1-1h1.8l2.2-2.2V104c0-.6.4-1 1-1s1 .4 1 1v1.8l2.2 2.2h1.8c.6 0 1 .4 1 1s-.4 1-1 1z"/></g></svg>