<svg version="1.1" xmlns="http://www.w3.org/2000/svg" x="0" y="0" viewBox="0 0 512 512" xml:space="preserve"><path d="M507 373.5v64c0 1.1-.9 2-2 2h-6c-1.1 0-2-.9-2-2v-56h-13v2c0 .6-.4 1-1 1h-10c-.6 0-1-.4-1-1v-2h-23v2c0 .6-.4 1-1 1h-10c-.6 0-1-.4-1-1v-2h-23v2c0 .6-.4 1-1 1h-10c-.6 0-1-.4-1-1v-2h-69.5v16c0 6.6-5.4 12-12 12H295v12c0 3.3-2.7 6-6 6h-19c-3.3 0-6-2.7-6-6v-12h-16.4c.2-.1.5-.2.7-.3 20.9-8.8 39.7-21.5 55.8-37.6 11.2-11.2 20.7-23.6 28.4-37.2v39.1H507zm-159.5-126c0-90-71-163.4-160-167.3V80c0-4.1-3.4-7.5-7.5-7.5s-7.5 3.4-7.5 7.5v.2c-17.4.8-34 4.2-49.6 9.8v-.1c-1.6-3.8-6-5.6-9.8-4.1-3.8 1.6-5.6 6-4.1 9.8 0 0 0 .1.1.1-15.5 7.3-29.7 16.8-42.1 28.2l-.1-.1c-2.9-2.9-7.7-2.9-10.6 0-2.9 2.9-2.9 7.7 0 10.6l.1.1c-11.4 12.4-20.9 26.6-28.1 42.1 0 0-.1 0-.1-.1-3.8-1.6-8.2.2-9.8 4.1-1.6 3.8.2 8.2 4.1 9.8h.1c-5.7 15.6-9.1 32.3-9.8 49.6h-.2c-4.1 0-7.5 3.4-7.5 7.5s3.4 7.5 7.5 7.5h.2C16.6 344 90 415 180 415c92.5 0 167.5-75 167.5-167.5zM55.9 371.6c-11.2-11.2-20.7-23.6-28.4-37.2v63.1c0 6.6 5.4 12 12 12h72.9c-.2-.1-.5-.2-.7-.3-20.9-8.8-39.7-21.5-55.8-37.6z" fill="#fff"/></svg>