<svg xmlns="http://www.w3.org/2000/svg" viewBox="0 0 512 512" xml:space="preserve"><path d="M436 492v20H208v-20c0-4.4 3.6-8 8-8h30v-4c0-1.1.9-2 2-2h15c1.1 0 2 .9 2 2v4h72V253h5.5v-62.5c0-47-36-85.7-81.9-90.5-16.4 16.4-16.4 43 0 59.4l5.2 5.2c1.4 1.4 1.6 3.7.3 5.3L213 236.5c-18.8-10.5-37.5-23.7-55.7-39.2-1.8-1.5-3.5-3.1-5.3-4.6l-.5-.5c-1.6-1.4-3.1-2.8-4.7-4.2l-.9-.9c-1.4-1.3-2.8-2.6-4.2-4-.4-.4-.8-.7-1.1-1.1-1.7-1.7-3.4-3.3-5.1-5-1.7-1.7-3.4-3.4-5-5.1-.4-.4-.7-.8-1.1-1.1-1.3-1.4-2.7-2.8-4-4.2-.3-.3-.6-.6-.9-1-1.4-1.5-2.8-3.1-4.2-4.6l-.5-.5c-17.5-19.7-32.2-40.4-43.8-61l66.5-53.1c1.6-1.3 3.9-1.1 5.3.3l5.2 5.2c16.4 16.4 43 16.4 59.4 0l52-51.9c9.3 6 18.2 13.2 26.6 21.5 8.3 8.3 15.5 17.3 21.5 26.6l-38 38c48 10.7 84 53.5 84 104.4V253h5.5v231h64c4.4 0 8 3.6 8 8z" fill="#fff"/></svg>