<svg version="1.1" xmlns="http://www.w3.org/2000/svg" x="0" y="0" viewBox="0 0 512 512" xml:space="preserve"><path d="M142.5 305.7l360.5-40c5.1-.6 9-4.9 9-10.1v-164c0-5.5-4.3-10-9.7-10.2L82.4 62.7l-9.1-33.2C68.6 12.1 52.7 0 34.7 0H0v40h34.7l68.7 251.5c.9 3.3.1 6.8-2.2 9.3L38 371.3c-10.6 11.9-13.2 28.4-6.7 43 6.5 14.6 20.5 23.7 36.5 23.7H512v-40H67.8l63.2-70.5c5.7-6.3 9.6-13.8 11.5-21.8zM441.3 90.8c3.8-.2 7.2 2.7 7.4 6.6l8.5 151.2c.2 3.9-2.8 7.2-6.6 7.4h-.4c-3.7 0-6.8-2.9-7-6.6l-8.5-151.2c-.2-3.9 2.7-7.2 6.6-7.4zm-70.8-2.1c3.8-.4 7.3 2.4 7.7 6.2l17 158.3c.5 3.9-2.3 7.3-6.1 7.8h-.8c-3.5 0-6.6-2.7-7-6.3l-17-158.3c-.4-3.8 2.4-7.3 6.2-7.7zM300 86.6c3.8-.6 7.4 2 8 5.9L333.5 258c.5 3.8-2.1 7.3-5.9 7.9-.4.1-.7.1-1.1.1-3.4 0-6.4-2.5-6.9-5.9L294.1 94.6c-.6-3.8 2-7.4 5.9-8zm-70.8-2.1c3.8-.7 7.5 1.7 8.2 5.5l34 172.7c.9 3.7-1.6 7.4-5.4 8.2-.5.1-.9.1-1.4.1-3.3 0-6.2-2.3-6.9-5.6l-34-172.7c-.7-3.8 1.7-7.5 5.5-8.2zm-70.5-2.1c3.8-.9 7.5 1.4 8.4 5.2l42.5 179.8c.9 3.8-1.4 7.5-5.2 8.4-.5.1-1.1.2-1.6.2-3.2 0-6-2.2-6.8-5.4L153.5 90.8c-.9-3.8 1.4-7.5 5.2-8.4zM140 438c20.4 0 37 16.6 37 37s-16.6 37-37 37-37-16.6-37-37 16.6-37 37-37zm300 0c20.4 0 37 16.6 37 37s-16.6 37-37 37-37-16.6-37-37 16.6-37 37-37z" fill="#fff"/></svg>