<svg version="1.1" xmlns="http://www.w3.org/2000/svg" x="0" y="0" viewBox="0 0 512 512" xml:space="preserve"><path d="M400 0H112C94.3 0 80 14.3 80 32v448c0 17.7 14.3 32 32 32h288c17.7 0 32-14.3 32-32V32c0-17.7-14.3-32-32-32z" opacity=".1" fill="#fff"/><path d="M400 0H112C94.3 0 80 14.3 80 32v448c0 17.7 14.3 32 32 32h288c17.7 0 32-14.3 32-32V32c0-17.7-14.3-32-32-32zm-44.5 46H352c-3.3 0-6 2.7-6 6v19c0 3.3-2.7 6-6 6h-19c-3.3 0-6 2.7-6 6v1H197v-1c0-3.3-2.7-6-6-6h-19c-3.3 0-6-2.7-6-6V52c0-3.3-2.7-6-6-6h-3.5V33h199v13zm54 433h-307V33h50v13c-3.1.3-5.5 2.8-5.5 6v38c0 3.3 2.7 6 6 6h38c3.3 0 6-2.7 6-6v-2h118v2c0 3.3 2.7 6 6 6h38c3.3 0 6-2.7 6-6V52c0-3.1-2.4-5.7-5.5-6V33h50v446zM147 158.5h218v8H147v-8zm0 50h218v8H147v-8zm0 50h218v8H147v-8zm0 50h218v8H147v-8zm0 50h218v8H147v-8zm0 50h218v8H147v-8z" fill="#fff"/></svg>