<svg xmlns="http://www.w3.org/2000/svg" viewBox="0 0 512 512" xml:space="preserve"><path opacity=".1" fill="#fff" d="M489.1 228 267.5 0h-23L22.9 228l22.9 22.3 27.6-28.4L145 512h222l71.6-290.1 27.6 28.4z"/><path d="M255.8 209c30.9 0 56 25.1 56 56s-25.1 56-56 56-56-25.1-56-56 25-56 56-56zm210.4 41.3-27.6-28.4L367 512H145L73.4 221.9l-27.6 28.4L22.9 228 244.5 0h22.9l221.7 228-22.9 22.3zm-53.5-55L256 34.1 99.7 194.9 170.1 480h171.8l70.8-284.7zM255.8 361c-9.1 0-16.5 7.4-16.5 16.5s7.4 16.5 16.5 16.5 16.5-7.4 16.5-16.5c-.1-9.1-7.4-16.5-16.5-16.5z" fill="#fff"/></svg>