<svg version="1.1" xmlns="http://www.w3.org/2000/svg" x="0" y="0" viewBox="0 0 512 512" xml:space="preserve"><path d="M510 316.2l-1.1-.2c-.5-9.6-2.6-45.2-6.9-61.6-3.3-12.5-12.7-28.6-18.7-38-3.2-5.1-3.7-11.5-1.2-17l.2-.5 2.7-.2c1.2-.1 1.8-1.6 1-2.5l-5.5-6.1c-.9-1-2.3-1.6-3.7-1.5l-107.3 6.6c-2.3.1-4.4 1.2-5.8 2.9l-5.1 6.1c-1.7 2-2.6 4.6-2.6 7.2v52.7c0 3.3 1.4 6.5 3.8 8.8l40.6 38.1c3 2.8 6.8 4.5 10.9 4.8l98.9 7.4c1 .1 1.8-.7 1.8-1.7v-3.2c0-.9-.8-1.9-2-2.1zm-40.8-13.5l-18.5 5.5-5.3-.7c-4.7-.6-8.7-3.5-10.9-7.7l-29.1-56.6c-1.6-3.1-4.2-5.4-7.4-6.7l-14.8-5.9c-2.8-1.1-4.1-4.5-2.6-7.2l8.4-15.9 47.6-4.3 7.5 4.4c3 1.8 4.8 5 4.8 8.4 0 7.4.7 21.2 4.1 33.5 3.3 11.9 14 29.8 20.9 40.7 3 4.7.6 10.9-4.7 12.5z" opacity=".1" fill="#fff"/><path d="M348 264.3v-52.7c0-4.5 1.6-8.9 4.5-12.3l4-4.7H15.2c-4.2 0-7.8 3-8.5 7.1L0 230.5 4.7 242l7.8-8.2 4.2 10.5 7.8-8.2 4.2 10.5 7.8-8.2 4.2 10.5 7.8-8.2 4.2 10.5 7.8-8.2 4.2 10.5 7.8-8.2 4.2 10.5 7.8-8.2 4.2 10.5 7.8-8.2 4.2 10.5 7.8-8.2 4.2 10.5 7.8-8.2 4.2 10.5 7.8-8.2 4.2 10.5 7.8-8.2 4.2 10.5 7.8-8.2 4.2 10.5 7.8-8.2 4.2 10.5 7.8-8.2 4.2 10.5 7.8-8.2 4.2 10.5 7.8-8.2 4.2 10.5 7.8-8.2 4.2 10.5 7.8-8.2 4.2 10.5 7.8-8.2 4.2 10.5 7.8-8.2 4.2 10.5 7.8-8.2 4.2 10.5 7.8-8.2 4.2 10.5 7.8-8.2 4.2 10.5 7.8-8.2 4.2 10.5 7.8-8.2 4.2 10.5 7.8-8.2 4.2 10.5 7.8-8.2 4.2 10.5 7.8-8.2 4.2 10.5 7.8-8.2 4.2 10.5 7.8-8.2 4.2 10.5 6.8-7.2-28.4-26.6c-4.8-4.4-7.1-9.7-7.1-15.2zM49.5 229.5c-4.7 0-8.5-3.8-8.5-8.5s3.8-8.5 8.5-8.5 8.5 3.8 8.5 8.5-3.8 8.5-8.5 8.5zM510 316.2l-1.1-.2c-.5-9.6-2.6-45.2-6.9-61.6-3.3-12.5-12.7-28.6-18.7-38-3.2-5.1-3.7-11.5-1.2-17l.2-.5 2.7-.2c1.2-.1 1.8-1.6 1-2.5l-5.5-6.1c-.9-1-2.3-1.6-3.7-1.5l-107.3 6.6c-2.3.1-4.4 1.2-5.8 2.9l-5.1 6.1c-1.7 2-2.6 4.6-2.6 7.2v52.7c0 3.3 1.4 6.5 3.8 8.8l40.6 38.1c3 2.8 6.8 4.5 10.9 4.8l98.9 7.4c1 .1 1.8-.7 1.8-1.7v-3.2c0-.9-.8-1.9-2-2.1zm-142-59.7c-3.3 0-6-2.7-6-6s2.7-6 6-6 6 2.7 6 6-2.7 6-6 6zm0-32c-3.3 0-6-2.7-6-6s2.7-6 6-6 6 2.7 6 6-2.7 6-6 6zm33 78c-3.3 0-6-2.7-6-6s2.7-6 6-6 6 2.7 6 6-2.7 6-6 6zm68.2.2l-18.5 5.5-5.3-.7c-4.7-.6-8.7-3.5-10.9-7.7l-29.1-56.6c-1.6-3.1-4.2-5.4-7.4-6.7l-14.8-5.9c-2.8-1.1-4.1-4.5-2.6-7.2l8.4-15.9 47.6-4.3 7.5 4.4c3 1.8 4.8 5 4.8 8.4 0 7.4.7 21.2 4.1 33.5 3.3 11.9 14 29.8 20.9 40.7 3 4.7.6 10.9-4.7 12.5z" fill="#fff"/></svg>