<svg version="1.1" xmlns="http://www.w3.org/2000/svg" x="0" y="0" viewBox="0 0 512 512" style="enable-background:new 0 0 512 512" xml:space="preserve"><path d="M248.7 75.7c-3.1-5.7-10.3-21.4-9-39.4C241.4 13.6 254.6 0 254.6 0S271 27 271 42c0 12-5.5 27.8-7.7 33.7h-14.6zM270.9 178h-29.8c-.9 25.1-1.4 54.5-1.4 88.9 0 128.1 7.5 205.2 12.3 241.6.6 4.7 7.4 4.7 8 0 4.8-36.5 12.3-113.6 12.3-241.6 0-34.4-.5-63.8-1.4-88.9zm-29.5-8h29.2c-1.5-38.7-3.9-66.6-6.3-86.3h-16.7c-2.3 19.7-4.7 47.6-6.2 86.3z" style="fill:#fff"/></svg>