<svg version="1.1" xmlns="http://www.w3.org/2000/svg" x="0" y="0" viewBox="0 0 512 512" style="enable-background:new 0 0 512 512" xml:space="preserve"><path d="M277.9 0h-44c-13.3 0-24 5.4-24 12v371.5c0 10.9 3 21.8 8.9 32.4l10.2 18.3c5.9 10.5 8.9 21.4 8.9 32.4V504c0 4.4 7.2 8 16 8h4c8.8 0 16-3.6 16-8v-37.5c0-10.9 3-21.8 8.9-32.4l10.2-18.3c5.9-10.5 8.9-21.4 8.9-32.4V12c0-6.6-10.7-12-24-12z" style="opacity:.1;fill:#fff"/><path d="M277.9 0h-44c-13.3 0-24 5.4-24 12v371.5c0 10.9 3 21.8 8.9 32.4l10.2 18.3c5.9 10.5 8.9 21.4 8.9 32.4V504c0 4.4 7.2 8 16 8h4c8.8 0 16-3.6 16-8v-37.5c0-10.9 3-21.8 8.9-32.4l10.2-18.3c5.9-10.5 8.9-21.4 8.9-32.4V12c0-6.6-10.7-12-24-12zM266 470v31.1c0 1.6-1 3.1-2.5 3.7-1.8.6-4.2 1.2-7.5 1.2s-5.8-.6-7.5-1.2c-1.5-.6-2.5-2.1-2.5-3.7v-48.2c0-1.6 1-3.1 2.5-3.7 1.8-.6 4.2-1.2 7.5-1.2s5.8.6 7.5 1.2c1.5.6 2.5 2.1 2.5 3.7V470zm16-91c0 4.4-3.6 8-8 8h-11v-29h12.9c1.1 0 2-.9 2-2s-.9-2-2-2H263v-15h6.4c1.2 0 2-.9 2-2s-.9-2-2-2H263v-15h12.9c1.1 0 2-.9 2-2s-.9-2-2-2H263v-15h6.4c1.2 0 2-.9 2-2s-.9-2-2-2H263v-15h12.9c1.1 0 2-.9 2-2s-.9-2-2-2H263v-15h6.4c1.2 0 2-.9 2-2s-.9-2-2-2H263v-15h12.9c1.1 0 2-.9 2-2s-.9-2-2-2H263v-15h6.4c1.2 0 2-.9 2-2s-.9-2-2-2H263v-15h12.9c1.1 0 2-.9 2-2s-.9-2-2-2H263v-15h6.4c1.2 0 2-.9 2-2s-.9-2-2-2H263v-15h12.9c1.1 0 2-.9 2-2s-.9-2-2-2H263v-15h6.4c1.2 0 2-.9 2-2s-.9-2-2-2H263v-15h12.9c1.1 0 2-.9 2-2s-.9-2-2-2H263v-15h6.4c1.2 0 2-.9 2-2s-.9-2-2-2H263V92h12.9c1.1 0 2-.9 2-2s-.9-2-2-2H263v-9c0-2.2-1.8-4-4-4h-6c-2.2 0-4 1.8-4 4v9h-13.1c-1.1 0-2 .9-2 2s.9 2 2 2H249v15h-9.3c-1.1 0-2 .9-2 2s.9 2 2 2h9.3v15h-13.1c-1.1 0-2 .9-2 2s.9 2 2 2H249v15h-9.3c-1.1 0-2 .9-2 2s.9 2 2 2h9.3v15h-13.1c-1.1 0-2 .9-2 2s.9 2 2 2H249v15h-9.3c-1.1 0-2 .9-2 2s.9 2 2 2h9.3v15h-13.1c-1.1 0-2 .9-2 2s.9 2 2 2H249v15h-9.3c-1.1 0-2 .9-2 2s.9 2 2 2h9.3v15h-13.1c-1.1 0-2 .9-2 2s.9 2 2 2H249v15h-9.3c-1.1 0-2 .9-2 2s.9 2 2 2h9.3v15h-13.1c-1.1 0-2 .9-2 2s.9 2 2 2H249v15h-9.3c-1.1 0-2 .9-2 2s.9 2 2 2h9.3v15h-13.1c-1.1 0-2 .9-2 2s.9 2 2 2H249v15h-9.3c-1.1 0-2 .9-2 2s.9 2 2 2h9.3v15h-13.1c-1.1 0-2 .9-2 2s.9 2 2 2H249v29h-11.2c-4.4 0-8-3.6-8-8V44c0-4.4 3.6-8 8-8H274c4.4 0 8 3.6 8 8v335z" style="fill:#fff"/></svg>