<svg version="1.1" xmlns="http://www.w3.org/2000/svg" x="0" y="0" viewBox="0 0 512 512" xml:space="preserve"><path d="M353.9 435.4c-1.4-36.9-31.9-62-31.9-76.4 0-14.7 11-33.9 11-60 0-1.4-.1-2.7-.3-4.1-3-19.7-27.8-35.7-60.2-39.9v-.8l-.2-8.3h.1l-.1-1.7-.2-10.8V232l-.2-9v-2l-.2-10-.1-1.6-.2-12.4v-2h-.1l-.2-11.8V182l-.2-12h.1l-.1-2-.3-13h.1l-.1-2-.3-15v-1l-.3-15v-2h-.1l-.3-16h.1l-.1-2-.3-14.3c0-2.5.3-4.9.7-7.3.4-1.9 1-3.8 1.8-5.6L273 72c.8-1.9 1.2-4 1.2-6.2V58c0 1.1.9 2 2 2h1c1.1 0 2-.9 2-2v-5c0-1.1-.9-2-2-2h-1c-1.1 0-2 .9-2 2v-8c0 1.1.9 2 2 2h1c1.1 0 2-.9 2-2v-5c0-1.1-.9-2-2-2h-1c-1.1 0-2 .9-2 2v-8c0 1.1.9 2 2 2h1c1.1 0 2-.9 2-2v-5c0-1.1-.9-2-2-2h-1c-1.1 0-2 .9-2 2V14.1c0-2.6-1.2-5-3.4-6.5L261 .7c-.7-.5-1.5-.7-2.3-.7h-5.4c-.8 0-1.6.3-2.3.7l-9.6 6.9c-2.1 1.5-3.4 3.9-3.4 6.5V27c0-1.1-.9-2-2-2h-1c-1.1 0-2 .9-2 2v5c0 1.1.9 2 2 2h1c1.1 0 2-.9 2-2v8c0-1.1-.9-2-2-2h-1c-1.1 0-2 .9-2 2v5c0 1.1.9 2 2 2h1c1.1 0 2-.9 2-2v8c0-1.1-.9-2-2-2h-1c-1.1 0-2 .9-2 2v5c0 1.1.9 2 2 2h1c1.1 0 2-.9 2-2v7.8c0 2.1.4 4.2 1.2 6.2l1.2 2.8c.7 1.7 1.3 3.4 1.7 5.2h-.1c.6 2.5.9 5.1.8 7.7L240.7 195v.5l-.5 25.5v.1l-.5 24.4v.5l-.2 9c-32.4 4.1-57.2 20.2-60.2 39.9-.2 1.3-.3 2.7-.3 4.1 0 26.1 11 45.3 11 60 0 14.3-30.5 39.5-31.9 76.4 0 .9-.1 1.8-.1 2.6 0 40.9 43.9 74 98 74s98-33.1 98-74c0-.9 0-1.8-.1-2.6zM250.8 45h.2v2.4l-.2-2.4zm-.2 8h-2.7l-.6-8h2.5l.8 8zm-.3-13l-.8-8h1.5v8h-.7zM243 23c0-2.2 1.8-4 4-4s4 1.8 4 4v4h-8v-4zm0 9h5.5l.8 8H243v-8zm0 13h3.3l.6 8H243v-8zm4 21c-.7 0-1.4-.2-2-.6V58h2.3l.6 7.9c-.3.1-.6.1-.9.1zm-4-8h1v6.6c-.6-.7-1-1.6-1-2.6v-4zm8 4c0 1.6-.9 2.9-2.2 3.6l-.5-7.6h2.7v4zm13.2 3.9l.6-7.9h2.3v7.4c-.6.3-1.3.6-2 .6-.4 0-.7 0-.9-.1zm.5-20.9l-.6 8h-2.7l.8-8h2.5zm-2-5l.8-8h5.5v8h-6.3zm3 5h3.3v8h-3.9l.6-8zm3.3 13v4c0 1-.4 1.9-1 2.6V58h1zm-8-35c0-2.2 1.8-4 4-4s4 1.8 4 4v4h-8v-4zm0 9h1.5l-.8 8h-.7v-8zm.2 13l-.2 2.4V45h.2zm-.2 17v-4h2.7l-.5 7.6c-1.3-.7-2.2-2-2.2-3.6z" opacity=".1" fill="#fff"/><path d="M353.9 435.4c-1.4-36.9-31.9-62-31.9-76.4 0-14.7 11-33.9 11-60 0-1.4-.1-2.7-.3-4.1-3.1-20.2-29.2-36.6-63-40.2v-.7h2.7l-.2-8h-2.6v-2h2.6l-.2-10h-2.5v-2h2.5l-.2-9h-2.4v-2h2.4l-.2-10h-2.3v-2h2.3l-.2-12h-2.1v-2h2.1l-.2-11h-2v-2h2l-.2-12h-1.9v-2h1.8l-.3-13h-1.7v-2h1.7l-.3-14h-1.6v-2h1.5l-.3-15h-1.4v-2h1.4l-.3-16h-1.2v-2h1.2l-.3-14.3c0-2.5.3-4.9.7-7.3.4-1.9 1-3.8 1.8-5.6L273 72c.8-1.9 1.2-4 1.2-6.2V58c0 1.1.9 2 2 2h1c1.1 0 2-.9 2-2v-5c0-1.1-.9-2-2-2h-1c-1.1 0-2 .9-2 2v-8c0 1.1.9 2 2 2h1c1.1 0 2-.9 2-2v-5c0-1.1-.9-2-2-2h-1c-1.1 0-2 .9-2 2v-8c0 1.1.9 2 2 2h1c1.1 0 2-.9 2-2v-5c0-1.1-.9-2-2-2h-1c-1.1 0-2 .9-2 2V14.1c0-2.6-1.2-5-3.4-6.5L261 .7c-.7-.5-1.5-.7-2.3-.7h-5.4c-.8 0-1.6.3-2.3.7l-9.6 6.9c-2.1 1.5-3.4 3.9-3.4 6.5V27c0-1.1-.9-2-2-2h-1c-1.1 0-2 .9-2 2v5c0 1.1.9 2 2 2h1c1.1 0 2-.9 2-2v8c0-1.1-.9-2-2-2h-1c-1.1 0-2 .9-2 2v5c0 1.1.9 2 2 2h1c1.1 0 2-.9 2-2v8c0-1.1-.9-2-2-2h-1c-1.1 0-2 .9-2 2v5c0 1.1.9 2 2 2h1c1.1 0 2-.9 2-2v7.8c0 2.1.4 4.2 1.2 6.2l1.2 2.8c.7 1.7 1.3 3.4 1.7 5.2h-.1c.6 2.5.9 5.1.8 7.7l-.3 14.3h1.3v2h-1.3l-.3 16h1.4v2h-1.5l-.3 15h1.6v2h-1.6l-.3 14h1.8v2h-1.8l-.3 13h1.9v2h-1.9l-.2 12h2.1v2H241l-.2 11h2.2v2h-2.2l-.2 12h2.3v2h-2.3l-.2 10h2.4v2h-2.5l-.2 9h2.5v2H240l-.2 10h2.7v2h-2.7l-.2 8h2.8v.7c-33.8 3.5-59.9 19.9-63 40.2-.2 1.3-.3 2.7-.3 4.1 0 26.1 11 45.3 11 60 0 14.3-30.5 39.5-31.9 76.4 0 .9-.1 1.8-.1 2.6 0 40.9 43.9 74 98 74s98-33.1 98-74c-.1-.9-.1-1.8-.2-2.6zm-75.4-100.9c0 6.8-3.1 13-7.9 17.1l-.3-34.5c5 4.1 8.2 10.4 8.2 17.4zM245 58h2.3l.6 7.9c-.3.1-.5.1-.8.1-.7 0-1.4-.2-2-.6V58zm6-18h-.7l-.8-8h1.5v8zm0 5v2.4l-.2-2.4h.2zm-.4 8h-2.7l-.6-8h2.5l.8 8zm.4 5v4c0 1.6-.9 2.9-2.2 3.6l-.5-7.6h2.7zm2.3 44v2h-3.6v-2h3.6zm-.1 18v2h-3.7v-2h3.7zM267 65.4c-.6.3-1.3.6-2 .6-.3 0-.6 0-.8-.1l.6-7.9h2.3v7.4zm-3.8.2c-1.3-.7-2.2-2-2.2-3.6v-4h2.7l-.5 7.6zM261.4 53l.8-8h2.5l-.6 8h-2.7zm.9 49v2h-3.6v-2h3.6zm.2 18v2h-3.7v-2h3.7zm-4.6 33v2H254v-2h3.9zm-3.8-14v-2h3.8v2h-3.8zm3.9 29v2h-4v-2h4zm0 14v2h-4v-2h4zm0 13v2h-4v-2h4zm0 14v2h-4.1v-2h4.1zm.1 12v2h-4.2v-2h4.2zm0 11v2h-4.2v-2h4.2zm0 12v2h-4.2v-2h4.2zm-2.1 10h2.1-4.2 2.1zm0 58c.8 0 1.5 0 2.2.1l.1 44.8c-.8.1-1.5.1-2.3.1s-1.6 0-2.3-.1l.1-44.8c.7-.1 1.4-.1 2.2-.1zm3.2.2c1.5.2 3 .6 4.5 1.1l.3 42.2c-1.5.6-3 1-4.6 1.2l-.2-44.5zm-.1-58.2h4.2v.2c-1.4-.1-2.8-.1-4.2-.2zm0-8v-2h4.2v2h-4.2zm-.1-12v-2h4.1v2H259zm0-11v-2h4.1v2H259zm0-12v-2h4v2h-4zm0-14v-2h4v2h-4zm-.1-13v-2h3.9v2h-3.9zm0-14v-2h3.9v2h-3.9zm0-15v-2h3.8v2h-3.8zm-.1-16v-2h3.7v2h-3.7zm-.9-17h-3.8v-2h3.8v2zm-4.7 15v2h-3.7v-2h3.7zm-.1 16v2h-3.8v-2h3.8zm0 15v2h-3.9v-2h3.9zm0 14v2h-3.9v-2h3.9zm-.1 13v2h-4v-2h4zm0 14v2h-4v-2h4zm0 12v2h-4.1v-2h4.1zm0 11v2h-4.1v-2h4.1zm-.1 12v2h-4.2v-2h4.2zm0 10c-1.4.1-2.8.1-4.2.2v-.2h4.2zm-.1 58.2l-.1 44.5c-1.6-.2-3.2-.6-4.6-1.2l.3-42.2c1.3-.5 2.8-.8 4.4-1.1zm-5.7 42.9c-1.7-.7-3.2-1.7-4.7-2.8l.3-36.1c1.4-1 3-1.9 4.6-2.6l-.2 41.5zm-.5 69.9v4h-5v-4h5zm1 0h4.9v4h-4.9v-4zm5.9 0h4.9v4h-4.9v-4zm6 0h4.9v4h-4.9v-4zm5.9 0h4.9v4h-5l.1-4zm-.5-69.9l-.3-41.4c1.6.7 3.2 1.6 4.6 2.6l.3 36.1c-1.3 1.1-2.9 2-4.6 2.7zm3.8-100.5c-1.4-.1-2.9-.3-4.4-.4v-.3h4.4v.7zm-.1-8.6h-4.4v-2h4.3l.1 2zm-.1-12h-4.3v-2h4.3v2zm-.1-11h-4.3v-2h4.3v2zm-.1-12H264v-2h4.2l.1 2zm-.2-14h-4.2v-2h4.2v2zm-.1-13h-4.1v-2h4.1v2zm-.1-14h-4.1v-2h4.1v2zm-.2-15h-4v-2h4v2zm-.1-16h-4v-2h4v2zm-.2-17h-3.9v-2h3.9v2zm-.2-18h-3.9v-2h3.9v2zm1.8-42c0 1-.4 1.9-1 2.6V58h1v4zm0-9h-3.9l.6-8h3.3v8zm0-13h-6.3l.8-8h5.5v8zm-8-17c0-2.2 1.8-4 4-4s4 1.8 4 4v4h-8v-4zm0 9h1.5l-.8 8h-.7v-8zm.2 13l-.2 2.4V45h.2zm-3.4 57v2h-3.7v-2h3.7zM243 23c0-2.2 1.8-4 4-4s4 1.8 4 4v4h-8v-4zm0 9h5.5l.8 8H243v-8zm0 13h3.3l.6 8H243v-8zm0 13h1v6.6c-.6-.7-1-1.6-1-2.6v-4zm1.8 44h3.9v2h-3.9v-2zm-.2 18h3.9v2h-3.9v-2zm-.2 17h4v2h-4v-2zm-.1 16h4v2h-4v-2zm-.2 15h4.1v2h-4.1v-2zm-.1 14h4.1v2H244v-2zm-.1 13h4.2v2h-4.2v-2zm-.1 14h4.2v2h-4.2v-2zm-.2 12h4.3v2h-4.3v-2zm-.1 11h4.3v2h-4.3v-2zm-.1 12h4.3v2h-4.4l.1-2zm-.1 10h4.4v.3c-1.5.1-2.9.2-4.4.4v-.7zm-1.6 63.1l-.3 34.5c-4.8-4.1-7.9-10.2-7.9-17.1 0-7 3.2-13.3 8.2-17.4zM208.5 442c-1.1 0-2-.9-2-2v-13c0-1.1.9-2 2-2h32.2v4h-6.1v2h6.1l-.1 11h-32.1zm33 0l.1-11h5l-.1 11h-5zm6 0l.1-11h5v11h-5.1zm6 0v-11h5v11h-5zm6 0v-11h5l.1 11h-5.1zm6 0l-.1-11h5l.1 11h-5zm40-2c0 1.1-.9 2-2 2h-32l-.1-11h6.1v-2h-6.1v-4h32.2c1.1 0 2 .9 2 2v13z" fill="#fff"/></svg>