<svg xmlns="http://www.w3.org/2000/svg" viewBox="0 0 512 512" xml:space="preserve"><path d="M512 202v1.5c0 3.6-1.2 7-3.4 9.8l-26 33.3c-6.1 7.8-15.4 12.3-25.2 12.3H432v121c0 35.3-28.7 64-64 64H144c-35.3 0-64-28.7-64-64V259H54.6c-9.9 0-19.2-4.5-25.2-12.3l-26-33.3c-2.2-2.8-3.4-6.3-3.4-9.8V202c0-5.7 5.8-9.6 11.1-7.4l23.2 9.6c7.7 3.2 16 4.8 24.4 4.8H80v-9h352v9h21.3c8.4 0 16.7-1.6 24.4-4.8l23.2-9.6c5.3-2.2 11.1 1.7 11.1 7.4zm-76-21H76c0-24.3 51.5-44.9 123-52.2v-3.6c0-2.5 1.5-4.8 3.9-5.7 15.5-6.2 20.4-25.1 11.1-37.9-1.7-2.4-2-5.6-.7-8.2l.4-.8c1.4-2.7 4.1-4.4 7.2-4.4h70.2c3 0 5.8 1.7 7.2 4.4l.4.8c1.3 2.7 1.1 5.8-.7 8.2-9.3 12.9-4.3 31.8 11.1 37.9 2.3.9 3.9 3.2 3.9 5.7v3.6c71.5 7.3 123 27.9 123 52.2z" opacity=".1" fill="#fff"/><path d="M512 202v1.5c0 3.6-1.2 7-3.4 9.8l-26 33.3c-6.1 7.8-15.4 12.3-25.2 12.3H432v121c0 35.3-28.7 64-64 64H144c-35.3 0-64-28.7-64-64V259H54.6c-9.9 0-19.2-4.5-25.2-12.3l-26-33.3c-2.2-2.8-3.4-6.3-3.4-9.8V202c0-5.7 5.8-9.6 11.1-7.4l23.2 9.6c7.7 3.2 16 4.8 24.4 4.8H80v-9h352v9h21.3c8.4 0 16.7-1.6 24.4-4.8l23.2-9.6c5.3-2.2 11.1 1.7 11.1 7.4zm-76-21H76c0-24.3 51.5-44.9 123-52.2v-3.6c0-2.5 1.5-4.8 3.9-5.7 15.5-6.2 20.4-25.1 11.1-37.9-1.7-2.4-2-5.6-.7-8.2l.4-.8c1.4-2.7 4.1-4.4 7.2-4.4h70.2c3 0 5.8 1.7 7.2 4.4l.4.8c1.3 2.7 1.1 5.8-.7 8.2-9.3 12.9-4.3 31.8 11.1 37.9 2.3.9 3.9 3.2 3.9 5.7v3.6c71.5 7.3 123 27.9 123 52.2zm-64-27.9c-3.2-.9-6.2-.1-6.7 1.7-.5 1.9 1.6 4.1 4.8 5 3.2.9 6.2.1 6.7-1.7s-1.7-4.1-4.8-5z" fill="#fff"/></svg>