<svg version="1.1" xmlns="http://www.w3.org/2000/svg" x="0" y="0" viewBox="0 0 512 512" xml:space="preserve"><path d="m56.5 259.2 22.2-58.8c13.2-35 42.1-63.7 81.5-80.9L220.7 93h70.6l60.5 26.5c39.4 17.2 68.3 45.9 81.5 80.9l22.2 58.8c1.5 4.1-.5 8.7-4.6 10.3-.9.3-1.9.5-2.8.5-3.2 0-6.3-2-7.5-5.2L418.4 206c-11.6-30.9-37.5-56.4-72.9-71.9L288 109h-64l-57.4 25.1c-35.4 15.5-61.3 41-72.9 71.9l-22.2 58.8c-1.2 3.2-4.3 5.2-7.5 5.2-.9 0-1.9-.2-2.8-.5-4.2-1.6-6.3-6.2-4.7-10.3zm385 252.8h-371c-16.8 0-27.1-18.5-18.3-32.8l11.5-18.7c10.7-17.5 17.4-37.1 19.7-57.4L99 263.5c5-45.3 30.1-85.9 68.4-110.6l25-21.4 33.2-14.5h60.7l33.2 14.5 25.1 21.4c38.2 24.7 63.3 65.3 68.4 110.6l15.6 139.6c2.2 20.4 9 40 19.7 57.4l11.5 18.7c8.8 14.3-1.5 32.8-18.3 32.8zM214.3 87.1l3.2-1.4 1.5-.7h74l1.5.7 3.2 1.4 43.9-53.9c10.1-12.3 2-30.9-13.9-31.7L301.1 0c-5.4-.3-10.4 2.9-12.4 7.9l-3.1 7.7c-.9 2.2-3.2 3.5-5.6 3L267.6 16c-7.6-1.6-15.5-1.6-23.1 0L232 18.7c-2.3.5-4.7-.8-5.6-3l-3-7.7c-2-5-7-8.2-12.4-7.9l-26.6 1.4c-15.9.9-24.1 19.4-14 31.7l43.9 53.9z" opacity=".1" fill="#fff"/><path d="m56.5 259.2 22.2-58.8c13.2-35 42.1-63.7 81.5-80.9L220.7 93h70.6l60.5 26.5c39.4 17.2 68.3 45.9 81.5 80.9l22.2 58.8c1.5 4.1-.5 8.7-4.6 10.3-.9.3-1.9.5-2.8.5-3.2 0-6.3-2-7.5-5.2L418.4 206c-11.6-30.9-37.5-56.4-72.9-71.9L288 109h-64l-57.4 25.1c-35.4 15.5-61.3 41-72.9 71.9l-22.2 58.8c-1.2 3.2-4.3 5.2-7.5 5.2-.9 0-1.9-.2-2.8-.5-4.2-1.6-6.3-6.2-4.7-10.3zm385 252.8h-371c-16.8 0-27.1-18.5-18.3-32.8l11.5-18.7c10.7-17.5 17.4-37.1 19.7-57.4L99 263.5c5-45.3 30.1-85.9 68.4-110.6l25-21.4 33.2-14.5h60.7l33.2 14.5 25.1 21.4c38.2 24.7 63.3 65.3 68.4 110.6l15.6 139.6c2.2 20.4 9 40 19.7 57.4l11.5 18.7c8.8 14.3-1.5 32.8-18.3 32.8zM335 289.5c0-3.3-2.7-6-6-6H183c-3.3 0-6 2.7-6 6v73c0 3.3 2.7 6 6 6h146c3.3 0 6-2.7 6-6v-73zM214.3 87.1l3.2-1.4 1.5-.7h74l1.5.7 3.2 1.4 43.9-53.9c10.1-12.3 2-30.9-13.9-31.7L301.1 0c-5.4-.3-10.4 2.9-12.4 7.9l-3.1 7.7c-.9 2.2-3.2 3.5-5.6 3L267.6 16c-7.6-1.6-15.5-1.6-23.1 0L232 18.7c-2.3.5-4.7-.8-5.6-3l-3-7.7c-2-5-7-8.2-12.4-7.9l-26.6 1.4c-15.9.9-24.1 19.4-14 31.7l43.9 53.9z" fill="#fff"/></svg>