<svg xmlns="http://www.w3.org/2000/svg" viewBox="0 0 512 512" xml:space="preserve"><path d="M398.4 0H113.6c-10.5 0-19 8.5-19 19v474c0 10.5 8.5 19 19 19h284.8c10.5 0 19-8.5 19-19V19c0-10.5-8.5-19-19-19z" opacity=".1" fill="#f4f4f4"/><path d="M398.4 0H113.6c-10.5 0-19 8.5-19 19v474c0 10.5 8.5 19 19 19h284.8c10.5 0 19-8.5 19-19V19c0-10.5-8.5-19-19-19zm-9 16 6.9 12-1.7 3-8.7-15h3.5zM116.3 37l1.7 3-1.7 3-1.7-3 1.7-3zm-2.9 1-1.7-3 1.7-3 1.7 3-1.7 3zm277.7-1-8.7 15-8.7-15 8.7-15 8.7 15zM383 21l1.7-3 8.7 15-1.7 3-8.7-15zm-3.4 432-1.7-3 1.7-3 1.7 3-1.7 3zm2.8-1 1.7 3-1.7 3-1.7-3 1.7-3zm-251.7-2 1.7-3 1.7 3-1.7 3-1.7-3zm.6 5-1.7 3-1.7-3 1.7-3 1.7 3zM360.5 58l-1.7 3-1.7-3 1.7-3 1.7 3zm-.6-5 1.7-3 1.7 3-1.7 3-1.7-3zm-215 33.5 5.5 9.5-1.7 3-5.5-9.5 1.7-3zm-2.3 2-1.7-3 1.7-3 1.7 3-1.7 3zM358.8 93l-1.7 3-8.7-15 1.7-3 8.7 15zm-8.1-16 5.5-9.5 8.7 15-5.5 9.5-8.7-15zm-8.4 343.5-5.5-9.5 8.7-15 5.5 9.5-8.7 15zm9.3-14 1.7 3-8.7 15-1.7-3 8.7-15zm-190.6-1 5.5-9.5 8.7 15-5.5 9.5-8.7-15zm8.1 16-1.7 3-8.7-15 1.7-3 8.7 15zm-15.6-320 1.7 3-1.7 3-1.7-3 1.7-3zm-2.6 1.5-1.7-3 1.7-3 1.7 3-1.7 3zm4.9 16.5 1.7 3-1.7 3-1.7-3 1.7-3zm-3.4 0-1.7-3 1.7-3 1.7 3-1.7 3zm197.4 3-1.7 3-1.7-3 1.7-3 1.7 3zm.6-7 1.7-3 1.7 3-1.7 3-1.7-3zm-186.5 18 8.1 14-1.7 3-8.1-14 1.7-3zm-4-1-1.7-3 1.7-3 1.7 3-1.7 3zm177.2 12-1.7 3-1.7-3 1.7-3 1.7 3zm-1.1-4 8.1-14 1.7 3-8.1 14-1.7-3zm-8.7 254-1.7-3 8.7-15 1.7 3-8.7 15zm10.4-12 1.7 3-8.7 15-1.7-3 8.7-15zm-161.7-3 1.7-3 8.7 15-1.7 3-8.7-15zm7 18-1.7 3-8.7-15 1.7-3 8.7 15zm136.2-17-8.7-15 8.7-15 8.7 15-8.7 15zm11-11 1.7 3-8.7 15-1.7-3 8.7-15zm-146.1-4 8.7-15 8.7 15-8.7 15-8.7-15zm6.4 19-1.7 3-8.7-15 1.7-3 8.7 15zm12.7-197 1.7 3-1.7 3-1.7-3 1.7-3zm-2.9 1-1.7-3 1.7-3 1.7 3-1.7 3zm103.6-.5-1.7 3-8.7-15 1.7-3 8.7 15zm-7.8-16.5 1.7-3 8.7 15-1.7 3-8.7-15zm-2.9 132-1.7-3 1.7-3 1.7 3-1.7 3zm2.9-1 1.7 3-1.7 3-1.7-3 1.7-3zm-79.1-2 1.7-3 1.7 3-1.7 3-1.7-3zm.6 5-1.7 3-1.7-3 1.7-3 1.7 3zm-.9-94.5 1.7 3-1.7 3-1.7-3 1.7-3zm-2.6 1.5-1.7-3 1.7-3 1.7 3-1.7 3zm74.2 82.5-5.5-9.5 1.7-3 5.5 9.5-1.7 3zm2.3-2 1.7 3-1.7 3-1.7-3 1.7-3zm-68.7-1 5.5-9.5 1.7 3-5.5 9.5-1.7-3zm1.2 4-1.7 3-1.7-3 1.7-3 1.7 3zm44.4-5-1.7-3 8.7-15 1.7 3-8.7 15zm9.9-13 1.7 3-8.7 15-1.7-3 8.7-15zm-41.6-2 1.7-3 8.7 15-1.7 3-8.7-15zm7.5 17-1.7 3-8.7-15 1.7-3 8.7 15zm-1.2-76 8.1 14-8.7 15-8.1-14 8.7-15zm-10.9 11-1.7-3 8.7-15 1.7 3-8.7 15zm11.5 28 1.7 3-1.7 3-1.7-3 1.7-3zm-2.9 1-1.7-3 1.7-3 1.7 3-1.7 3zm5.2-5 8.7-15 1.7 3-8.7 15-1.7-3zm11-11 8.7 15-8.7 15-8.7-15 8.7-15zm.6-1 1.7-3 8.7 15-1.7 3-8.7-15zm12.7 16 1.7 3-1.7 3-1.7-3 1.7-3zm1.1-2 1.7-3 1.7 3-1.7 3-1.7-3zm-2.3-4-8.7-15 1.7-3 8.7 15-1.7 3zm-9.2-16-1.7-3 1.7-3 1.7 3-1.7 3zm-1.2 2-1.7 3-1.7-3 1.7-3 1.7 3zm-4.6-2-1.7-3 1.7-3 1.7 3-1.7 3zm-.6 1-8.7 15-1.7-3 8.7-15 1.7 3zm-13.2 15-1.7 3-8.1-14 1.7-3 8.1 14zm-4.1 7-1.7 3-8.1-14 1.7-3 8.1 14zm.6 1 1.7 3-1.7 3-1.7-3 1.7-3zm2.9 5 1.7 3-1.7 3-1.7-3 1.7-3zm-1.8 9-1.7 3-1.7-3 1.7-3 1.7 3zm2.4-2 1.7-3 8.7 15-1.7 3-8.7-15zm4-7 1.7-3 8.7 15-1.7 3-8.7-15zm12.7 16 1.7 3-1.7 3-1.7-3 1.7-3zm2.3-4 8.7-15 1.7 3-8.7 15-1.7-3zm12.7-8 1.7 3-8.7 15-1.7-3 8.7-15zm4.1 5 1.7-3 1.7 3-1.7 3-1.7-3zm-1.8-3-1.7-3 1.7-3 1.7 3-1.7 3zm1.2-8 1.7-3 1.7 3-1.7 3-1.7-3zm2.3-4 8.1-14 1.7 3-8.1 14-1.7-3zm-2.3-4-1.7-3 8.1-14 1.7 3-8.1 14zm-4.1-7-8.7-15 8.1-14 8.7 15-8.1 14zm1.8-33 1.7-3 8.7 15-1.7 3-8.7-15zm4-7 1.7-3 8.7 15-1.7 3-8.7-15zm-.6-1-1.7-3 1.7-3 1.7 3-1.7 3zm-2.3 4-1.7 3-1.7-3 1.7-3 1.7 3zm-4 7-8.1 14-1.7-3 8.1-14 1.7 3zm-11 9-1.7-3 8.1-14 1.7 3-8.1 14zm-.6 1-1.7 3-1.7-3 1.7-3 1.7 3zm-4-1-8.1-14 1.7-3 8.1 14-1.7 3zm-1.2 2-1.7 3-8.1-14 1.7-3 8.1 14zm-12.1-15-1.7-3 1.7-3 1.7 3-1.7 3zm-4-7-1.7-3 1.7-3 1.7 3-1.7 3zm-.6 1-8.7 15-1.7-3 8.7-15 1.7 3zm-12.1 9-1.7-3 8.7-15 1.7 3-8.7 15zm-2.3 4-1.7 3-1.7-3 1.7-3 1.7 3zm1.7 3 1.7 3-1.7 3-1.7-3 1.7-3zm4 7 1.7 3-1.7 3-1.7-3 1.7-3zm-2.3 10-1.7 3-1.7-3 1.7-3 1.7 3zm-3.4 6-1.7 3-1.7-3 1.7-3 1.7 3zm2.3 4 8.1 14-1.7 3-8.1-14 1.7-3zm8.6 15 1.7 3-1.7 3-1.7-3 1.7-3zm-1.1 8-1.7 3-1.7-3 1.7-3 1.7 3zm1.1 2 1.7 3-1.7 3-1.7-3 1.7-3zm-.8 7.5-1.7 3-1.7-3 1.7-3 1.7 3zm-1.8 5 8.7 15-5.5 9.5-8.7-15 5.5-9.5zm.6-1 1.7-3 8.7 15-1.7 3-8.7-15zm12.7 16 1.7 3-1.7 3-1.7-3 1.7-3zm.9-1.5 1.7-3 1.7 3-1.7 3-1.7-3zm2.9-5 1.7-3 1.7 3-1.7 3-1.7-3zm3.4-6 1.7-3 1.7 3-1.7 3-1.7-3zm5.8 4 1.7 3-1.7 3-1.7-3 1.7-3zm2.3-4 1.7-3 1.7 3-1.7 3-1.7-3zm5.2 3 1.7 3-1.7 3-1.7-3 1.7-3zm2.9 5 1.7 3-1.7 3-1.7-3 1.7-3zm2.6 4.5 1.7 3-1.7 3-1.7-3 1.7-3zm2.3-4 8.7-15 1.7 3-8.7 15-1.7-3zm11-11 5.5 9.5-8.7 15-5.5-9.5 8.7-15zm0-2-1.7-3 1.7-3 1.7 3-1.7 3zm-2.6-4.5-1.7-3 1.7-3 1.7 3-1.7 3zm1.1-8 1.7-3 1.7 3-1.7 3-1.7-3zm-1.1-2-1.7-3 1.7-3 1.7 3-1.7 3zm.5-7 8.1-14 1.7 3-8.1 14-1.7-3zm10.4-18 1.7-3 1.7 3-1.7 3-1.7-3zm-1.7-3-1.7-3 1.7-3 1.7 3-1.7 3zm-4-7-1.7-3 1.7-3 1.7 3-1.7 3zm2.3-10 1.7-3 1.7 3-1.7 3-1.7-3zm3.4-6 1.7-3 1.7 3-1.7 3-1.7-3zm-2.3-4-8.7-15 1.7-3 8.7 15-1.7 3zm-5.7-20 1.7-3 8.7 15-1.7 3-8.7-15zm-.6-1-1.7-3 1.7-3 1.7 3-1.7 3zm-1.2 2-1.7 3-1.7-3 1.7-3 1.7 3zm-4.6-2-1.7-3 1.7-3 1.7 3-1.7 3zm-1.7 3-1.7 3-1.7-3 1.7-3 1.7 3zm-4.1 7-1.7 3-1.7-3 1.7-3 1.7 3zm-4-1-8.1-14 1.7-3 8.1 14-1.7 3zm-2.3 4-8.1 14-8.1-14 8.1-14 8.1 14zm-18.5-4-1.7-3 8.1-14 1.7 3-8.1 14zm-.6 1-1.7 3-1.7-3 1.7-3 1.7 3zm-5.7-4-1.7-3 1.7-3 1.7 3-1.7 3zm-3.5-6-1.7-3 1.7-3 1.7 3-1.7 3zm-1.2 2-1.7 3-1.7-3 1.7-3 1.7 3zm-4.6-2-1.7-3 1.7-3 1.7 3-1.7 3zm-.6 1-8.7 15-1.7-3 8.7-15 1.7 3zm-15 26-1.7 3-1.7-3 1.7-3 1.7 3zm1.2 2 1.7 3-1.7 3-1.7-3 1.7-3zm3.4 6 1.7 3-1.7 3-1.7-3 1.7-3zm-1.7 9-1.7 3-1.7-3 1.7-3 1.7 3zm-2.9 5-1.7 3-1.7-3 1.7-3 1.7 3zm2.3 4 1.7 3-1.7 3-1.7-3 1.7-3zm4.1 7 8.1 14-1.7 3-8.1-14 1.7-3zm5.5 18.5-1.7 3-8.1-14 1.7-3 8.1 14zm.5 1 1.7 3-1.7 3-1.7-3 1.7-3zm-.5 7-5.5 9.5-1.7-3 5.5-9.5 1.7 3zm-6.1 10.5-1.7 3-1.7-3 1.7-3 1.7 3zm-2.6 4.5-1.7 3-1.7-3 1.7-3 1.7 3zm3.5 6 8.7 15-1.7 3-8.7-15 1.7-3zm.8-1.5 1.7-3 8.7 15-1.7 3-8.7-15zm12.7 16 1.7 3-1.7 3-1.7-3 1.7-3zm.6-1 5.5-9.5 1.7 3-5.5 9.5-1.7-3zm9.5-2.5 1.7 3-5.4 9.5-1.7-3 5.4-9.5zm.6-1 1.7-3 1.7 3-1.7 3-1.7-3zm2.6-4.5 1.7-3 1.7 3-1.7 3-1.7-3zm2.9-5 1.7-3 1.7 3-1.7 3-1.7-3zm5.2 3 1.7 3-1.7 3-1.7-3 1.7-3zm1.7-3 1.7-3 1.7 3-1.7 3-1.7-3zm4.7 2 1.7 3-1.7 3-1.7-3 1.7-3zm2.5 4.5 1.7 3-1.7 3-1.7-3 1.7-3zm2.4 4 5.5 9.5-1.7 3-5.5-9.5 1.7-3zm2.3-4 1.7-3 5.5 9.5-1.7 3-5.5-9.5zm7.8 7.5 1.7 3-1.7 3-1.7-3 1.7-3zm2.3-4 8.7-15 1.7 3-8.7 15-1.7-3zm11.2-10.5 1.7 3-8.7 15-1.7-3 8.7-15zm3.5-6 1.7-3 1.7 3-1.7 3-1.7-3zm-.9-1.5-1.7-3 1.7-3 1.7 3-1.7 3zm-2.3-4-5.5-9.5 1.7-3 5.5 9.5-1.7 3zm-6-10.5-1.7-3 1.7-3 1.7 3-1.7 3zm.5-7 8.1-14 1.7 3-8.1 14-1.7-3zm-.8-1.5-1.7-3 8.1-14 1.7 3-8.1 14zm8.6-21 1.7-3 1.7 3-1.7 3-1.7-3zm4.1-7 1.7-3 1.7 3-1.7 3-1.7-3zm-1.2-2-1.7-3 1.7-3 1.7 3-1.7 3zm-3.4-6-1.7-3 1.7-3 1.7 3-1.7 3zm1.7-9 1.7-3 1.7 3-1.7 3-1.7-3zm2.9-5 1.7-3 1.7 3-1.7 3-1.7-3zm-2.3-4-1.7-3 1.7-3 1.7 3-1.7 3zm.8-7.5 1.7-3 1.7 3-1.7 3-1.7-3zm-2.3-4-8.7-15 1.7-3 8.7 15-1.7 3zm-9.2-16-1.7-3 1.7-3 1.7 3-1.7 3zm-2.9-5-1.7-3 1.7-3 1.7 3-1.7 3zm-.9 1.5-1.7 3-1.7-3 1.7-3 1.7 3zm-4-1-8.1-14 1.7-3 8.1 14-1.7 3zm-1.2 2-1.7 3-8.1-14 1.7-3 8.1 14zm-3.4 6-1.7 3-8.1-14 1.7-3 8.1 14zM260 178l-1.7-3 1.7-3 1.7 3-1.7 3zm-2.3 4-1.7 3-1.7-3 1.7-3 1.7 3zm-5.7-4-1.7-3 1.7-3 1.7 3-1.7 3zm-2.4 4-8.1 14-1.7-3 8.1-14 1.7 3zm-11.5 8-1.7-3 8.1-14 1.7 3-8.1 14zm-2.9-5-1.7-3 8.1-14 1.7 3-8.1 14zm-.6 1-1.7 3-1.7-3 1.7-3 1.7 3zm-4.3-1.5-1.7-3 1.7-3 1.7 3-1.7 3zm-1.1 2-1.7 3-1.7-3 1.7-3 1.7 3zm-2.4 4-8.7 15-1.7-3 8.7-15 1.7 3zm-10.9 11-5.5-9.5 8.7-15 5.5 9.5-8.7 15zm-2.3 4-1.7 3-5.5-9.5 1.7-3 5.5 9.5zm-4.1 7-1.7 3-5.5-9.5 1.7-3 5.5 9.5zm.6 1 1.7 3-1.7 3-1.7-3 1.7-3zm-1.7 9-1.7 3-1.7-3 1.7-3 1.7 3zm.8 1.5 1.7 3-1.7 3-1.7-3 1.7-3zm2.9 5 1.7 3-1.7 3-1.7-3 1.7-3zm-1.1 8-1.7 3-1.7-3 1.7-3 1.7 3zm-2.6 4.5-1.7 3-1.7-3 1.7-3 1.7 3zm1.7 3 1.7 3-1.7 3-1.7-3 1.7-3zm4 7 1.7 3-1.7 3-1.7-3 1.7-3zm-.5 7-5.5 9.5-1.7-3 5.5-9.5 1.7 3zm2.3 4 8.1 14-5.5 9.5-8.1-14 5.5-9.5zm2 24.5-1.7 3-8.1-14 1.7-3 8.1 14zm-2.6 4.5-1.7 3-8.1-14 1.7-3 8.1 14zm-2.9 5-1.7 3-8.1-14 1.7-3 8.1 14zm.6 1 1.7 3-1.7 3-1.7-3 1.7-3zm-1.7 9-1.7 3-1.7-3 1.7-3 1.7 3zm1.1 2 1.7 3-1.7 3-1.7-3 1.7-3zm-2.3 10-1.7 3-1.7-3 1.7-3 1.7 3zm-4 7-8.1 14-1.7-3 8.1-14 1.7 3zm.5 1 8.7 15-8.1 14-8.7-15 8.1-14zm2.3-4 1.7-3 8.7 15-1.7 3-8.7-15zm4.1-7 1.7-3 8.7 15-1.7 3-8.7-15zm3.5-6 1.7-3 8.7 15-1.7 3-8.7-15zm12.7 16 1.7 3-1.7 3-1.7-3 1.7-3zm1.1-2 1.7-3 1.7 3-1.7 3-1.7-3zm5.8 4 1.7 3-1.7 3-1.7-3 1.7-3zm.8-1.5 1.7-3 1.7 3-1.7 3-1.7-3zm5.2 3 1.7 3-1.7 3-1.7-3 1.7-3zm.6-1 5.5-9.5 1.7 3-5.5 9.5-1.7-3zm6.1-10.5 1.7-3 1.7 3-1.7 3-1.7-3zm2.6-4.5 1.7-3 1.7 3-1.7 3-1.7-3zm4.6 2 1.7 3-1.7 3-1.7-3 1.7-3zm1.2-2 1.7-3 1.7 3-1.7 3-1.7-3zm4.3 1.5 1.7 3-1.7 3-1.7-3 1.7-3zm2.3 4 5.5 9.5-1.7 3-5.5-9.5 1.7-3zm6.1 10.5 1.7 3-1.7 3-1.7-3 1.7-3zm1.7-3 1.7-3 1.7 3-1.7 3-1.7-3zm4.3 1.5 1.7 3-1.7 3-1.7-3 1.7-3zm2.3-4 1.7-3 1.7 3-1.7 3-1.7-3zm4.6 2 1.7 3-1.7 3-1.7-3 1.7-3zm2.4-4 8.7-15 1.7 3-8.7 15-1.7-3zm12.1-9 1.7 3-8.7 15-1.7-3 8.7-15zm4 7 1.7 3-8.7 15-1.7-3 8.7-15zm4.1 7 8.1 14-8.7 15-8.1-14 8.7-15zm.5-1 1.7-3 8.1 14-1.7 3-8.1-14zm-2.3-4-1.7-3 1.7-3 1.7 3-1.7 3zm-4-7-1.7-3 1.7-3 1.7 3-1.7 3zm1.1-8 1.7-3 1.7 3-1.7 3-1.7-3zm-1.7-3-1.7-3 1.7-3 1.7 3-1.7 3zm.6-7 8.1-14 1.7 3-8.1 14-1.7-3zm-1.2-2-1.7-3 8.1-14 1.7 3-8.1 14zm-2.6-4.5-1.7-3 8.1-14 1.7 3-8.1 14zm-2.3-4-5.5-9.5 8.1-14 5.5 9.5-8.1 14zm4.9-27.5 1.7-3 5.5 9.5-1.7 3-5.5-9.5zm-.5-1-1.7-3 1.7-3 1.7 3-1.7 3zm2.3-10 1.7-3 1.7 3-1.7 3-1.7-3zm3.4-6 1.7-3 1.7 3-1.7 3-1.7-3zm-.8-1.5-1.7-3 1.7-3 1.7 3-1.7 3zm-2.9-5-1.7-3 1.7-3 1.7 3-1.7 3zm1.1-8 1.7-3 1.7 3-1.7 3-1.7-3zm2.6-4.5 1.7-3 1.7 3-1.7 3-1.7-3zm-1.7-3-1.7-3 1.7-3 1.7 3-1.7 3zm.6-7 5.5-9.5 1.7 3-5.5 9.5-1.7-3zm-2.3-4-1.7-3 5.5-9.5 1.7 3-5.5 9.5zm-4.1-7-8.7-15 5.5-9.5 8.7 15-5.5 9.5zM293 175l-1.7-3 1.7-3 1.7 3-1.7 3zm-.6 1-5.5 9.5-1.7-3 5.5-9.5 1.7 3zm-8.4 4.5-1.7-3 5.5-9.5 1.7 3-5.5 9.5zm-2.3-4-8.1-14 5.5-9.5 8.1 14-5.5 9.5zm-.6 1-1.7 3-8.1-14 1.7-3 8.1 14zm-12.1-15-1.7-3 1.7-3 1.7 3-1.7 3zm-.9 1.5-1.7 3-1.7-3 1.7-3 1.7 3zm-2.9 5-1.7 3-1.7-3 1.7-3 1.7 3zm-5.7-4-1.7-3 1.7-3 1.7 3-1.7 3zm-1.8 3-1.7 3-1.7-3 1.7-3 1.7 3zm-5.2-3-1.7-3 1.7-3 1.7 3-1.7 3zm-2.3 4-1.7 3-1.7-3 1.7-3 1.7 3zm-4.6-2-1.7-3 1.7-3 1.7 3-1.7 3zm-2.6-4.5-1.7-3 1.7-3 1.7 3-1.7 3zm-2.3 4-8.1 14-1.7-3 8.1-14 1.7 3zm-10.4 10-5.5-9.5 8.1-14 5.5 9.5-8.1 14zm-.6 1-1.7 3-5.5-9.5 1.7-3 5.5 9.5zm-2.9 5-1.7 3-5.5-9.5 1.7-3 5.5 9.5zM219 175l-1.7-3 1.7-3 1.7 3-1.7 3zm-.5 1-8.7 15-1.7-3 8.7-15 1.7 3zm-11.3 10.5-1.7-3 8.7-15 1.7 3-8.7 15zm-1.4 5.5 1.7 3-1.7 3-1.7-3 1.7-3zm-2.3 10-1.7 3-1.7-3 1.7-3 1.7 3zm-3.5 6-1.7 3-1.7-3 1.7-3 1.7 3zm.6 1 5.5 9.5-1.7 3-5.5-9.5 1.7-3zm2.6 14.5-1.7 3-5.5-9.5 1.7-3 5.5 9.5zm.5 1 1.7 3-1.7 3-1.7-3 1.7-3zm2.6 4.5 1.7 3-1.7 3-1.7-3 1.7-3zm-.8 7.5-1.7 3-1.7-3 1.7-3 1.7 3zm-2.3 4-5.5 9.5-1.7-3 5.5-9.5 1.7 3zm1.1 2 1.7 3-5.5 9.5-1.7-3 5.5-9.5zm3.5 6 1.7 3-5.5 9.5-1.7-3 5.5-9.5zm-4.3 13.5-1.7 3-1.7-3 1.7-3 1.7 3zm2.3 4 1.7 3-1.7 3-1.7-3 1.7-3zm-.9 7.5-1.7 3-1.7-3 1.7-3 1.7 3zm-2.9 5-1.7 3-1.7-3 1.7-3 1.7 3zm-3.4 6-1.7 3-1.7-3 1.7-3 1.7 3zm2.3 4 8.1 14-1.7 3-8.1-14 1.7-3zm4 21-1.7 3-8.1-14 1.7-3 8.1 14zm.6 1 1.7 3-1.7 3-1.7-3 1.7-3zm-2.3 10-8.1 14-1.7-3 8.1-14 1.7 3zm-8.7 15-1.7 3-1.7-3 1.7-3 1.7 3zm1.2 2 1.7 3-1.7 3-1.7-3 1.7-3zm-1.2 8-1.7 3-1.7-3 1.7-3 1.7 3zm.6 1 8.7 15-1.7 3-8.7-15 1.7-3zm1.1-2 1.7-3 8.7 15-1.7 3-8.7-15zm12.7 16 1.7 3-1.7 3-1.7-3 1.7-3zm.6-1 8.1-14 1.7 3-8.1 14-1.7-3zm10.4-18 1.7-3 1.7 3-1.7 3-1.7-3zm4.1-7 1.7-3 1.7 3-1.7 3-1.7-3zm5.7 4 1.7 3-1.7 3-1.7-3 1.7-3zm1.8-3 1.7-3 1.7 3-1.7 3-1.7-3zm5.2 3 1.7 3-1.7 3-1.7-3 1.7-3zm1.1-2 1.7-3 1.7 3-1.7 3-1.7-3zm4.6 2 1.7 3-1.7 3-1.7-3 1.7-3zm.9-1.5 1.7-3 1.7 3-1.7 3-1.7-3zm2.3-4 5.5-9.5 1.7 3-5.5 9.5-1.7-3zm6.1-10.5 1.7-3 1.7 3-1.7 3-1.7-3zm4.3 1.5 1.7 3-1.7 3-1.7-3 1.7-3zm.9-1.5 1.7-3 1.7 3-1.7 3-1.7-3zm4 1 5.5 9.5-1.7 3-5.5-9.5 1.7-3zM267 334l1.7 3-1.7 3-1.7-3 1.7-3zm2.6 4.5 1.7 3-1.7 3-1.7-3 1.7-3zm1.1-2 1.7-3 1.7 3-1.7 3-1.7-3zm4.6 2 1.7 3-1.7 3-1.7-3 1.7-3zm1.8-3 1.7-3 1.7 3-1.7 3-1.7-3zm5.2 3 1.7 3-1.7 3-1.7-3 1.7-3zm2.3-4 1.7-3 1.7 3-1.7 3-1.7-3zm5.8 4 1.7 3-1.7 3-1.7-3 1.7-3zm4 7 8.1 14-1.7 3-8.1-14 1.7-3zm8.7 15 1.7 3-1.7 3-1.7-3 1.7-3zm2.3-4 8.7-15 1.7 3-8.7 15-1.7-3zm11.5-10 1.7 3-8.7 15-1.7-3 8.7-15zm.6-1 1.7-3 1.7 3-1.7 3-1.7-3zm-1.2-2-1.7-3 1.7-3 1.7 3-1.7 3zm1.2-8 1.7-3 1.7 3-1.7 3-1.7-3zm-.6-1-8.1-14 1.7-3 8.1 14-1.7 3zm-10.4-18-1.7-3 1.7-3 1.7 3-1.7 3zm.6-7 8.1-14 1.7 3-8.1 14-1.7-3zm-2.3-4-1.7-3 8.1-14 1.7 3-8.1 14zm8.6-21 1.7-3 1.7 3-1.7 3-1.7-3zm-1.7-3-1.7-3 1.7-3 1.7 3-1.7 3zm-2.9-5-1.7-3 1.7-3 1.7 3-1.7 3zm-2.6-4.5-1.7-3 1.7-3 1.7 3-1.7 3zm2.3-10 1.7-3 1.7 3-1.7 3-1.7-3zm-.5-1-5.5-9.5 1.7-3 5.5 9.5-1.7 3zm-2.1-15.5 1.7-3 5.5 9.5-1.7 3-5.5-9.5zm2.9-5 1.7-3 5.5 9.5-1.7 3-5.5-9.5zm-.5-1-1.7-3 1.7-3 1.7 3-1.7 3zm-2.6-4.5-1.7-3 1.7-3 1.7 3-1.7 3zm.8-7.5 1.7-3 1.7 3-1.7 3-1.7-3zm2.3-4 5.5-9.5 1.7 3-5.5 9.5-1.7-3zm-1.1-2-1.7-3 5.5-9.5 1.7 3-5.5 9.5zM312 208l1.7-3 1.7 3-1.7 3-1.7-3zm-1.7-3-1.7-3 1.7-3 1.7 3-1.7 3zm-4.1-7-1.7-3 1.7-3 1.7 3-1.7 3zm.9-7.5 1.7-3 1.7 3-1.7 3-1.7-3zm2.9-5 1.7-3 1.7 3-1.7 3-1.7-3zm3.4-6 1.7-3 1.7 3-1.7 3-1.7-3zm-2.3-4-8.7-15 1.7-3 8.7 15-1.7 3zm-1.7 3-1.7 3-8.7-15 1.7-3 8.7 15zm-11-13-1.7-3 1.7-3 1.7 3-1.7 3zm-1.1 2-1.7 3-1.7-3 1.7-3 1.7 3zm-4.6-2-1.7-3 1.7-3 1.7 3-1.7 3zm-.9 1.5-1.7 3-1.7-3 1.7-3 1.7 3zm-4-1-8.1-14 1.7-3 8.1 14-1.7 3zm-10.4-18-1.7-3 1.7-3 1.7 3-1.7 3zm-.6 1-5.5 9.5-1.7-3 5.5-9.5 1.7 3zm-9.5 2.5-1.7-3 5.5-9.5 1.7 3-5.5 9.5zm-.6 1-1.7 3-1.7-3 1.7-3 1.7 3zm-2.6 4.5-1.7 3-1.7-3 1.7-3 1.7 3zm-5.2-3-1.7-3 1.7-3 1.7 3-1.7 3zm-1.2 2-1.7 3-1.7-3 1.7-3 1.7 3zm-4.6-2-1.7-3 1.7-3 1.7 3-1.7 3zm-1.7 3-1.7 3-1.7-3 1.7-3 1.7 3zm-4.3-1.5-1.7-3 1.7-3 1.7 3-1.7 3zm-2.4-4-5.5-9.5 1.7-3 5.5 9.5-1.7 3zm-2.3 4-1.7 3-5.5-9.5 1.7-3 5.5 9.5zm-7.8-7.5-1.7-3 1.7-3 1.7 3-1.7 3zm-2.3 4-8.1 14-1.7-3 8.1-14 1.7 3zm-8.6 15-1.7 3-1.7-3 1.7-3 1.7 3zm-4.4-1.5-1.7-3 1.7-3 1.7 3-1.7 3zm-1.1 2-1.7 3-1.7-3 1.7-3 1.7 3zm-4.6-2-1.7-3 1.7-3 1.7 3-1.7 3zm-.6 1-8.7 15-1.7-3 8.7-15 1.7 3zm-12.1 9-1.7-3 8.7-15 1.7 3-8.7 15zm-2.3 4-1.7 3-1.7-3 1.7-3 1.7 3zm-5.8-4-1.7-3 1.7-3 1.7 3-1.7 3zm-2.3 4-1.7 3-1.7-3 1.7-3 1.7 3zm2.3 4 1.7 3-1.7 3-1.7-3 1.7-3zm3.4 6 1.7 3-1.7 3-1.7-3 1.7-3zm2.9 5 1.7 3-1.7 3-1.7-3 1.7-3zm-1.7 9-1.7 3-1.7-3 1.7-3 1.7 3zm-2.9 5-1.7 3-1.7-3 1.7-3 1.7 3zm.9 1.5 1.7 3-1.7 3-1.7-3 1.7-3zm-.9 7.5-1.7 3-1.7-3 1.7-3 1.7 3zm.6 1 5.5 9.5-1.7 3-5.5-9.5 1.7-3zm6.1 10.5 1.7 3-1.7 3-1.7-3 1.7-3zm-.6 7-5.5 9.5-1.7-3 5.5-9.5 1.7 3zm-6.1 10.5-1.7 3-1.7-3 1.7-3 1.7 3zm.9 1.5 1.7 3-1.7 3-1.7-3 1.7-3zm2.9 5 1.7 3-1.7 3-1.7-3 1.7-3zm-.9 7.5-1.7 3-1.7-3 1.7-3 1.7 3zm1.7 3 1.7 3-1.7 3-1.7-3 1.7-3zm-1.1 8-1.7 3-1.7-3 1.7-3 1.7 3zm-3.5 6-1.7 3-1.7-3 1.7-3 1.7 3zm-4 7-1.7 3-1.7-3 1.7-3 1.7 3zm2.3 4 1.7 3-1.7 3-1.7-3 1.7-3zm-2.3 10-8.1 14-1.7-3 8.1-14 1.7 3zm2.3 4 8.1 14-8.1 14-8.1-14 8.1-14zm-.6 29-1.7 3-8.1-14 1.7-3 8.1 14zm-2.9 5-1.7 3-8.1-14 1.7-3 8.1 14zm.6 1 1.7 3-1.7 3-1.7-3 1.7-3zm-.6 7-8.7 15-1.7-3 8.7-15 1.7 3zm1.2 2 1.7 3-8.7 15-1.7-3 8.7-15zm13.2 23 1.7 3-8.7 15-1.7-3 8.7-15zm.6-1 1.7-3 1.7 3-1.7 3-1.7-3zm5.8 4 1.7 3-1.7 3-1.7-3 1.7-3zm1.2-2 1.7-3 1.7 3-1.7 3-1.7-3zm2.3-4 8.1-14 1.7 3-8.1 14-1.7-3zm10.4-18 1.7-3 1.7 3-1.7 3-1.7-3zm5.2 3 1.7 3-1.7 3-1.7-3 1.7-3zm2.3-4 1.7-3 1.7 3-1.7 3-1.7-3zm4.6 2 1.7 3-1.7 3-1.7-3 1.7-3zm1.7-3 1.7-3 1.7 3-1.7 3-1.7-3zm4.3 1.5 1.7 3-1.7 3-1.7-3 1.7-3zm1.2-2 1.7-3 1.7 3-1.7 3-1.7-3zm2.6-4.5 1.7-3 1.7 3-1.7 3-1.7-3zm2.3-4 5.5-9.5 1.7 3-5.5 9.5-1.7-3zm7.8-5.5 5.5 9.5-5.5 9.5-5.5-9.5 5.5-9.5zm.6-1 1.7-3 5.5 9.5-1.7 3-5.5-9.5zm7.8 7.5 1.7 3-1.7 3-1.7-3 1.7-3zm2.6 4.5 1.7 3-1.7 3-1.7-3 1.7-3zm2.9 5 1.7 3-1.7 3-1.7-3 1.7-3zm.8-1.5 1.7-3 1.7 3-1.7 3-1.7-3zm5.2 3 1.7 3-1.7 3-1.7-3 1.7-3zm1.2-2 1.7-3 1.7 3-1.7 3-1.7-3zm5.7 4 1.7 3-1.7 3-1.7-3 1.7-3zm1.8-3 1.7-3 1.7 3-1.7 3-1.7-3zm5.8 4 8.1 14-1.7 3-8.1-14 1.7-3zm8.6 15 1.7 3-1.7 3-1.7-3 1.7-3zm2.9 5 1.7 3-1.7 3-1.7-3 1.7-3zm2.3-4 1.7-3 1.7 3-1.7 3-1.7-3zm4.1 1 8.7 15-1.7 3-8.7-15 1.7-3zm11.5-20 1.7-3 8.7 15-1.7 3-8.7-15zm2.9-5 1.7-3 8.7 15-1.7 3-8.7-15zm-.6-1-1.7-3 1.7-3 1.7 3-1.7 3zm.6-7 8.1-14 1.7 3-8.1 14-1.7-3zm-1.2-2-1.7-3 8.1-14 1.7 3-8.1 14zm-2.3-4-8.1-14 8.1-14 8.1 14-8.1 14zm2.3-32 1.7-3 8.1 14-1.7 3-8.1-14zm-2.3-4-1.7-3 1.7-3 1.7 3-1.7 3zm2.3-10 1.7-3 1.7 3-1.7 3-1.7-3zm-2.3-4-1.7-3 1.7-3 1.7 3-1.7 3zm-3.4-6-1.7-3 1.7-3 1.7 3-1.7 3zm-2.9-5-1.7-3 1.7-3 1.7 3-1.7 3zm1.7-9 1.7-3 1.7 3-1.7 3-1.7-3zm-.9-1.5-1.7-3 1.7-3 1.7 3-1.7 3zm1.2-8 1.7-3 1.7 3-1.7 3-1.7-3zm2.6-4.5 1.7-3 1.7 3-1.7 3-1.7-3zm-.6-1-5.5-9.5 1.7-3 5.5 9.5-1.7 3zm-6.1-10.5-1.7-3 1.7-3 1.7 3-1.7 3zm.6-7 5.5-9.5 1.7 3-5.5 9.5-1.7-3zm6.1-10.5 1.7-3 1.7 3-1.7 3-1.7-3zm-.9-1.5-1.7-3 1.7-3 1.7 3-1.7 3zm.9-7.5 1.7-3 1.7 3-1.7 3-1.7-3zm-1.2-2-1.7-3 1.7-3 1.7 3-1.7 3zm-3.4-6-1.7-3 1.7-3 1.7 3-1.7 3zm1.1-8 1.7-3 1.7 3-1.7 3-1.7-3zm3.5-6 1.7-3 1.7 3-1.7 3-1.7-3zm4-7 1.7-3 1.7 3-1.7 3-1.7-3zm-2.3-4-1.7-3 1.7-3 1.7 3-1.7 3zm2.3-10 8.7-15 1.7 3-8.7 15-1.7-3zm-2.3-4-8.7-15 8.7-15 8.7 15-8.7 15zm-2.3 4-1.7 3-8.7-15 1.7-3 8.7 15zm-11-13-1.7-3 1.7-3 1.7 3-1.7 3zm-2.3 4-1.7 3-1.7-3 1.7-3 1.7 3zm-4.6-2-1.7-3 1.7-3 1.7 3-1.7 3zm-1.7 3-1.7 3-1.7-3 1.7-3 1.7 3zm-4.1-1-8.1-14 1.7-3 8.1 14-1.7 3zm-1.1 2-1.7 3-8.1-14 1.7-3 8.1 14zm-12.1-15-1.7-3 1.7-3 1.7 3-1.7 3zm-4.1-7-1.7-3 1.7-3 1.7 3-1.7 3zm-.8 1.5-1.7 3-1.7-3 1.7-3 1.7 3zm-5.2-3-1.7-3 1.7-3 1.7 3-1.7 3zm-.6 1-5.5 9.5-1.7-3 5.5-9.5 1.7 3zm-6.1 10.5-1.7 3-1.7-3 1.7-3 1.7 3zm-4.6-2-1.7-3 1.7-3 1.7 3-1.7 3zm-.9 1.5-1.7 3-1.7-3 1.7-3 1.7 3zm-4.3-1.5-1.7-3 1.7-3 1.7 3-1.7 3zm-1.2 2-1.7 3-1.7-3 1.7-3 1.7 3zm-4-1-5.5-9.5 1.7-3 5.5 9.5-1.7 3zm-6.1-10.5-1.7-3 1.7-3 1.7 3-1.7 3zm-1.7 3-1.7 3-1.7-3 1.7-3 1.7 3zm-4.3-1.5-1.7-3 1.7-3 1.7 3-1.7 3zm-2.3 4-1.7 3-1.7-3 1.7-3 1.7 3zm-4.1 7-8.1 14-1.7-3 8.1-14 1.7 3zm-10.9 9-1.7-3 8.1-14 1.7 3-8.1 14zm-.6 1-1.7 3-1.7-3 1.7-3 1.7 3zm-5.2-3-1.7-3 1.7-3 1.7 3-1.7 3zm-1.2 2-1.7 3-1.7-3 1.7-3 1.7 3zm-5.7-4-1.7-3 1.7-3 1.7 3-1.7 3zm-.6 1-8.7 15-1.7-3 8.7-15 1.7 3zm-12.7 8-8.7-15 8.7-15 8.7 15-8.7 15zm-2.3 4-1.7 3-8.7-15 1.7-3 8.7 15zm-11-13-1.7-3 1.7-3 1.7 3-1.7 3zm-2.3 4-1.7 3-1.7-3 1.7-3 1.7 3zm.6 1 8.7 15-1.7 3-8.7-15 1.7-3zm5.2 21-1.7 3-8.7-15 1.7-3 8.7 15zm2.3 4 1.7 3-1.7 3-1.7-3 1.7-3zm4 7 1.7 3-1.7 3-1.7-3 1.7-3zm3.5 6 1.7 3-1.7 3-1.7-3 1.7-3zm-1.2 8-1.7 3-1.7-3 1.7-3 1.7 3zM189 208l-1.7 3-1.7-3 1.7-3 1.7 3zm1.2 2 1.7 3-1.7 3-1.7-3 1.7-3zm-.6 7-5.5 9.5-1.7-3 5.5-9.5 1.7 3zm.9 1.5 1.7 3-5.5 9.5-1.7-3 5.5-9.5zm2.3 4 5.5 9.5-5.5 9.5-5.5-9.5 5.5-9.5zm-.6 20-1.7 3-5.5-9.5 1.7-3 5.5 9.5zm-2.6 4.5-1.7 3-5.5-9.5 1.7-3 5.5 9.5zm.6 1 1.7 3-1.7 3-1.7-3 1.7-3zm2.6 4.5 1.7 3-1.7 3-1.7-3 1.7-3zm-1.2 8-1.7 3-1.7-3 1.7-3 1.7 3zm1.2 2 1.7 3-1.7 3-1.7-3 1.7-3zm-1.8 9-1.7 3-1.7-3 1.7-3 1.7 3zm-4 7-1.7 3-1.7-3 1.7-3 1.7 3zm-4 7-8.1 14-1.7-3 8.1-14 1.7 3zm1.7 3 1.7 3-8.1 14-1.7-3 8.1-14zm-6.9 18-1.7 3-1.7-3 1.7-3 1.7 3zm2.3 4 1.7 3-1.7 3-1.7-3 1.7-3zm-1.2 8-1.7 3-1.7-3 1.7-3 1.7 3zm-2.3 4-8.7 15-1.7-3 8.7-15 1.7 3zm2.3 4 8.1 14-8.7 15-8.1-14 8.7-15zm-2.9 33-1.7 3-8.1-14 1.7-3 8.1 14zm.6 1 1.7 3-1.7 3-1.7-3 1.7-3zm2.9 5 1.7 3-1.7 3-1.7-3 1.7-3zm-2.3 10-1.7 3-1.7-3 1.7-3 1.7 3zm11.5 20 1.7 3-1.7 3-1.7-3 1.7-3zm2.3-4 1.7-3 1.7 3-1.7 3-1.7-3zm5.8 4 1.7 3-1.7 3-1.7-3 1.7-3zm2.3-4 8.7-15 1.7 3-8.7 15-1.7-3zm12.2-9 1.7 3-8.7 15-1.7-3 8.7-15zm.5-1 1.7-3 1.7 3-1.7 3-1.7-3zm2.9-5 1.7-3 1.7 3-1.7 3-1.7-3zm2.3-4 8.1-14 1.7 3-8.1 14-1.7-3zm11-9 1.7 3-8.1 14-1.7-3 8.1-14zm2.3-4 1.7-3 1.7 3-1.7 3-1.7-3zm4.3 1.5 1.7 3-1.7 3-1.7-3 1.7-3zm2.3-4 1.7-3 1.7 3-1.7 3-1.7-3zm4.1 1 5.5 9.5-1.7 3-5.5-9.5 1.7-3zm1.7-3 1.7-3 5.5 9.5-1.7 3-5.5-9.5zm2.9-5 1.7-3 5.5 9.5-1.7 3-5.5-9.5zm2.6-4.5 1.7-3 5.5 9.5-1.7 3-5.5-9.5zm7.8 7.5 1.7 3-1.7 3-1.7-3 1.7-3zm.6-1 5.5-9.5 1.7 3-5.5 9.5-1.7-3zm8.1-5 1.7 3-5.5 9.5-1.7-3 5.5-9.5zm2.8 5 1.7 3-5.5 9.5-1.7-3 5.5-9.5zm3.5 6 1.7 3-5.5 9.5-1.7-3 5.5-9.5zm.6-1 1.7-3 1.7 3-1.7 3-1.7-3zm5.8 4 1.7 3-1.7 3-1.7-3 1.7-3zm.8-1.5 1.7-3 1.7 3-1.7 3-1.7-3zm5.8 4 8.1 14-1.7 3-8.1-14 1.7-3zm1.2-2 1.7-3 8.1 14-1.7 3-8.1-14zm10.3 12 1.7 3-1.7 3-1.7-3 1.7-3zm2.9 5 1.7 3-1.7 3-1.7-3 1.7-3zm2.3 4 8.7 15-1.7 3-8.7-15 1.7-3zm1.8-3 1.7-3 8.7 15-1.7 3-8.7-15zm12.7 16 1.7 3-1.7 3-1.7-3 1.7-3zm2.3-4 1.7-3 1.7 3-1.7 3-1.7-3zm5.8 4 1.7 3-1.7 3-1.7-3 1.7-3zm11.5-20 1.7-3 1.7 3-1.7 3-1.7-3zm-2.3-4-1.7-3 1.7-3 1.7 3-1.7 3zm1.2-8 1.7-3 1.7 3-1.7 3-1.7-3zm2.3-4 8.1-14 1.7 3-8.1 14-1.7-3zm-2.3-4-8.7-15 8.1-14 8.7 15-8.1 14zm1.7-33 1.7-3 8.7 15-1.7 3-8.7-15zm-.6-1-1.7-3 1.7-3 1.7 3-1.7 3zm-2.9-5-1.7-3 1.7-3 1.7 3-1.7 3zm2.3-10 1.7-3 1.7 3-1.7 3-1.7-3zm-.5-1-8.1-14 1.7-3 8.1 14-1.7 3zm-4.7-20 1.7-3 8.1 14-1.7 3-8.1-14zm-2.3-4-1.7-3 1.7-3 1.7 3-1.7 3zm-4-7-1.7-3 1.7-3 1.7 3-1.7 3zm-3.5-6-1.7-3 1.7-3 1.7 3-1.7 3zm1.2-8 1.7-3 1.7 3-1.7 3-1.7-3zm-1.2-2-1.7-3 1.7-3 1.7 3-1.7 3zm.9-7.5 1.7-3 1.7 3-1.7 3-1.7-3zm2.3-4 5.5-9.5 1.7 3-5.5 9.5-1.7-3zm-.9-1.5-1.7-3 5.5-9.5 1.7 3-5.5 9.5zm-2.3-4-5.5-9.5 5.5-9.5 5.5 9.5-5.5 9.5zm.6-20 1.7-3 5.5 9.5-1.7 3-5.5-9.5zm2.6-4.5 1.7-3 5.5 9.5-1.7 3-5.5-9.5zm-.6-1-1.7-3 1.7-3 1.7 3-1.7 3zm1.2-8 1.7-3 1.7 3-1.7 3-1.7-3zm-.9-1.5-1.7-3 1.7-3 1.7 3-1.7 3zm-2.9-5-1.7-3 1.7-3 1.7 3-1.7 3zm1.8-9 1.7-3 1.7 3-1.7 3-1.7-3zm4-7 1.7-3 1.7 3-1.7 3-1.7-3zm4-7 8.7-15 1.7 3-8.7 15-1.7-3zm-1.7-3-1.7-3 8.7-15 1.7 3-8.7 15zm7.5-19 1.7-3 1.7 3-1.7 3-1.7-3zm-2.3-4-1.7-3 1.7-3 1.7 3-1.7 3zm-1.2-12-8.7-15 1.7-3 8.7 15-1.7 3zm-1.1 2-1.7 3-8.7-15 1.7-3 8.7 15zm-11-13-1.7-3 1.7-3 1.7 3-1.7 3zm-.6 1-8.7 15-1.7-3 8.7-15 1.7 3zm-11.5 10-1.7-3 8.7-15 1.7 3-8.7 15zm-2.3 4-1.7 3-1.7-3 1.7-3 1.7 3zm-4.1-1-8.1-14 1.7-3 8.1 14-1.7 3zm-2.3 4-1.7 3-8.1-14 1.7-3 8.1 14zm-12.1-15-1.7-3 1.7-3 1.7 3-1.7 3zm-1.7 3-1.7 3-1.7-3 1.7-3 1.7 3zm-5.8-4-1.7-3 1.7-3 1.7 3-1.7 3zm-3.5-6-1.7-3 1.7-3 1.7 3-1.7 3zm-1.1 2-1.7 3-1.7-3 1.7-3 1.7 3zm-4.6-2-1.7-3 1.7-3 1.7 3-1.7 3zm-.9 1.5-1.7 3-1.7-3 1.7-3 1.7 3zm-2.3 4-5.5 9.5-1.7-3 5.5-9.5 1.7 3zm-8.1 5-1.7-3 5.5-9.5 1.7 3-5.5 9.5zm-.6 1-1.7 3-1.7-3 1.7-3 1.7 3zm-4-1-5.5-9.5 1.7-3 5.5 9.5-1.7 3zm-.9 1.5-1.7 3-5.5-9.5 1.7-3 5.5 9.5zM245 130l-1.7-3 1.7-3 1.7 3-1.7 3zm-2.6-4.5-1.7-3 1.7-3 1.7 3-1.7 3zm-1.1 2-1.7 3-1.7-3 1.7-3 1.7 3zm-4.6-2-1.7-3 1.7-3 1.7 3-1.7 3zm-1.8 3-1.7 3-1.7-3 1.7-3 1.7 3zm-4 7-1.7 3-1.7-3 1.7-3 1.7 3zm-5.2-3-1.7-3 1.7-3 1.7 3-1.7 3zm-2.3 4-8.1 14-1.7-3 8.1-14 1.7 3zm-12.1 7-1.7-3 8.1-14 1.7 3-8.1 14zm-.6 1-1.7 3-1.7-3 1.7-3 1.7 3zm-5.8-4-8.7-15 1.7-3 8.7 15-1.7 3zm-1.2 2-1.7 3-8.7-15 1.7-3 8.7 15zm-10.9-13-1.7-3 1.7-3 1.7 3-1.7 3zm-.6 1-8.7 15-1.7-3 8.7-15 1.7 3zm-11.5 10-1.7-3 8.7-15 1.7 3-8.7 15zm-2.4 4-1.7 3-1.7-3 1.7-3 1.7 3zm-4-1-8.1-14 1.7-3 8.1 14-1.7 3zm-1.7 5 1.7 3-1.7 3-1.7-3 1.7-3zm-1.8 9-1.7 3-1.7-3 1.7-3 1.7 3zm1.2 2 1.7 3-1.7 3-1.7-3 1.7-3zm-1.2 8-1.7 3-1.7-3 1.7-3 1.7 3zm.6 1 8.7 15-1.7 3-8.7-15 1.7-3zm11 19 1.7 3-1.7 3-1.7-3 1.7-3zm4 7 1.7 3-1.7 3-1.7-3 1.7-3zm-.8 7.5-1.7 3-1.7-3 1.7-3 1.7 3zm-2.3 4-5.5 9.5-1.7-3 5.5-9.5 1.7 3zm1.7 3 1.7 3-5.5 9.5-1.7-3 5.5-9.5zm-4.3 13.5-1.7 3-1.7-3 1.7-3 1.7 3zm1.1 2 1.7 3-1.7 3-1.7-3 1.7-3zm2.6 4.5 1.7 3-1.7 3-1.7-3 1.7-3zm-.9 7.5-1.7 3-1.7-3 1.7-3 1.7 3zm-2.8 5-1.7 3-1.7-3 1.7-3 1.7 3zm.5 1 5.5 9.5-1.7 3-5.5-9.5 1.7-3zm6.1 10.5 1.7 3-1.7 3-1.7-3 1.7-3zm-1.7 9-1.7 3-1.7-3 1.7-3 1.7 3zm.8 1.5 1.7 3-1.7 3-1.7-3 1.7-3zm-2.3 10-1.7 3-1.7-3 1.7-3 1.7 3zm-4 7-8.1 14-1.7-3 8.1-14 1.7 3zm-8.7 15-1.7 3-1.7-3 1.7-3 1.7 3zm1.2 2 1.7 3-1.7 3-1.7-3 1.7-3zm-1.2 8-1.7 3-1.7-3 1.7-3 1.7 3zm1.8 3 1.7 3-1.7 3-1.7-3 1.7-3zm-.6 7-8.7 15-1.7-3 8.7-15 1.7 3zm-11 19-1.7 3-1.7-3 1.7-3 1.7 3zm2.3 4 1.7 3-1.7 3-1.7-3 1.7-3zm-2.3 10-1.7 3-1.7-3 1.7-3 1.7 3zm2.3 4 8.1 14-1.7 3-8.1-14 1.7-3zm8.7 15 1.7 3-1.7 3-1.7-3 1.7-3zm-1.8 9-1.7 3-1.7-3 1.7-3 1.7 3zm1.2 2 1.7 3-1.7 3-1.7-3 1.7-3zm-1.2 8-1.7 3-1.7-3 1.7-3 1.7 3zm.6 1 8.7 15-1.7 3-8.7-15 1.7-3zm11 19 1.7 3-1.7 3-1.7-3 1.7-3zm1.1-2 1.7-3 1.7 3-1.7 3-1.7-3zm5.8 4 1.7 3-1.7 3-1.7-3 1.7-3zm1.7-3 1.7-3 1.7 3-1.7 3-1.7-3zm5.2 3 1.7 3-1.7 3-1.7-3 1.7-3zm2.4-4 1.7-3 1.7 3-1.7 3-1.7-3zm4.6 2 1.7 3-1.7 3-1.7-3 1.7-3zm2.3-4 8.7-15 1.7 3-8.7 15-1.7-3zm9.2-16 1.7-3 1.7 3-1.7 3-1.7-3zm2.9-5 1.7-3 1.7 3-1.7 3-1.7-3zm4.3 1.5 1.7 3-1.7 3-1.7-3 1.7-3zm.6-1 8.1-14 1.7 3-8.1 14-1.7-3zm10.4-10 5.5 9.5-8.1 14-5.5-9.5 8.1-14zm2.3-4 1.7-3 5.5 9.5-1.7 3-5.5-9.5zm7.8 7.5 1.7 3-1.7 3-1.7-3 1.7-3zm2.3-4 1.7-3 1.7 3-1.7 3-1.7-3zm3.5-6 1.7-3 1.7 3-1.7 3-1.7-3zm2.9-5 1.7-3 1.7 3-1.7 3-1.7-3zm4.3 1.5 1.7 3-1.7 3-1.7-3 1.7-3zm.9-1.5 1.7-3 1.7 3-1.7 3-1.7-3zm4.6 2 1.7 3-1.7 3-1.7-3 1.7-3zm3.4 6 1.7 3-1.7 3-1.7-3 1.7-3zm4.1 7 1.7 3-1.7 3-1.7-3 1.7-3zm.6-1 5.5-9.5 1.7 3-5.5 9.5-1.7-3zm9.5-2.5 8.1 14-5.5 9.5-8.1-14 5.5-9.5zm.6-1 1.7-3 8.1 14-1.7 3-8.1-14zm10.4 12 1.7 3-1.7 3-1.7-3 1.7-3zm.8-1.5 1.7-3 1.7 3-1.7 3-1.7-3zm4.6 2 1.7 3-1.7 3-1.7-3 1.7-3zm2.4 4 8.7 15-1.7 3-8.7-15 1.7-3zm10.9 19 1.7 3-1.7 3-1.7-3 1.7-3zm1.2-2 1.7-3 1.7 3-1.7 3-1.7-3zm5.8 4 1.7 3-1.7 3-1.7-3 1.7-3zm1.7-3 1.7-3 1.7 3-1.7 3-1.7-3zm5.2 3 1.7 3-1.7 3-1.7-3 1.7-3zm2.3-4 1.7-3 1.7 3-1.7 3-1.7-3zm4.6 2 1.7 3-1.7 3-1.7-3 1.7-3zm2.3-4 8.7-15 1.7 3-8.7 15-1.7-3zm9.3-16 1.7-3 1.7 3-1.7 3-1.7-3zm-1.2-2-1.7-3 1.7-3 1.7 3-1.7 3zm1.2-8 1.7-3 1.7 3-1.7 3-1.7-3zm-1.8-3-1.7-3 1.7-3 1.7 3-1.7 3zm.6-7 8.1-14 1.7 3-8.1 14-1.7-3zm10.4-18 1.7-3 1.7 3-1.7 3-1.7-3zm-2.3-4-1.7-3 1.7-3 1.7 3-1.7 3zm2.3-10 1.7-3 1.7 3-1.7 3-1.7-3zm-2.3-4-8.7-15 1.7-3 8.7 15-1.7 3zm-9.3-16-1.7-3 1.7-3 1.7 3-1.7 3zm1.8-9 1.7-3 1.7 3-1.7 3-1.7-3zm-1.2-2-1.7-3 1.7-3 1.7 3-1.7 3zm1.2-8 1.7-3 1.7 3-1.7 3-1.7-3zm-.6-1-8.1-14 1.7-3 8.1 14-1.7 3zm-10.4-18-1.7-3 1.7-3 1.7 3-1.7 3zm-4-7-1.7-3 1.7-3 1.7 3-1.7 3zm.8-7.5 1.7-3 1.7 3-1.7 3-1.7-3zm-1.7-3-1.7-3 1.7-3 1.7 3-1.7 3zm.6-7 5.5-9.5 1.7 3-5.5 9.5-1.7-3zm6-10.5 1.7-3 1.7 3-1.7 3-1.7-3zm-1.1-2-1.7-3 1.7-3 1.7 3-1.7 3zm-2.6-4.5-1.7-3 1.7-3 1.7 3-1.7 3zm.9-7.5 1.7-3 1.7 3-1.7 3-1.7-3zm2.8-5 1.7-3 1.7 3-1.7 3-1.7-3zm-.5-1-5.5-9.5 1.7-3 5.5 9.5-1.7 3zm-2.1-15.5 1.7-3 5.5 9.5-1.7 3-5.5-9.5zm-.5-1-1.7-3 1.7-3 1.7 3-1.7 3zm-2.6-4.5-1.7-3 1.7-3 1.7 3-1.7 3zm2.3-10 1.7-3 1.7 3-1.7 3-1.7-3zm4-7 8.7-15 1.7 3-8.7 15-1.7-3zm9.3-16 1.7-3 1.7 3-1.7 3-1.7-3zm-1.2-2-1.7-3 1.7-3 1.7 3-1.7 3zm1.2-8 1.7-3 1.7 3-1.7 3-1.7-3zm-1.8-3-1.7-3 1.7-3 1.7 3-1.7 3zm.6-7 8.1-14 1.7 3-8.1 14-1.7-3zm10.4-18 1.7-3 1.7 3-1.7 3-1.7-3zm-6.4-11-8.7-15 1.7-3 8.7 15-1.7 3zm-2.3 4-8.1 14-8.7-15 8.1-14 8.7 15zm-17.3-2-1.7-3 8.1-14 1.7 3-8.1 14zm-.6 1-1.7 3-1.7-3 1.7-3 1.7 3zm-4.6-2-1.7-3 1.7-3 1.7 3-1.7 3zm-1.1 2-1.7 3-1.7-3 1.7-3 1.7 3zm-4.1-1-8.1-14 1.7-3 8.1 14-1.7 3zm-.6 1-8.7 15-8.1-14 8.7-15 8.1 14zm-19-3-1.7-3 8.7-15 1.7 3-8.7 15zm-2.3 4-1.7 3-1.7-3 1.7-3 1.7 3zm-5.8-4-1.7-3 1.7-3 1.7 3-1.7 3zm-2.3 4-1.7 3-1.7-3 1.7-3 1.7 3zm-5.2-3-1.7-3 1.7-3 1.7 3-1.7 3zm-2.9-5-1.7-3 1.7-3 1.7 3-1.7 3zm-1.7 3-1.7 3-1.7-3 1.7-3 1.7 3zm-4.3-1.5-1.7-3 1.7-3 1.7 3-1.7 3zm-1.2 2-1.7 3-1.7-3 1.7-3 1.7 3zm-2.6 4.5-1.7 3-1.7-3 1.7-3 1.7 3zm-4-1-5.5-9.5 1.7-3 5.5 9.5-1.7 3zm-.6 1L256 132l-5.5-9.5 5.5-9.5 5.5 9.5zm-11.6-1-1.7-3 5.5-9.5 1.7 3-5.5 9.5zm-.5 1-1.7 3-1.7-3 1.7-3 1.7 3zM245 121l-1.7-3 1.7-3 1.7 3-1.7 3zm-2.9-5-1.7-3 1.7-3 1.7 3-1.7 3zm-.8 1.5-1.7 3-1.7-3 1.7-3 1.7 3zm-5.2-3-1.7-3 1.7-3 1.7 3-1.7 3zm-1.2 2-1.7 3-1.7-3 1.7-3 1.7 3zm-3.4 6-1.7 3-1.7-3 1.7-3 1.7 3zm-5.8-4-1.7-3 1.7-3 1.7 3-1.7 3zm-2.3 4-1.7 3-1.7-3 1.7-3 1.7 3zm-5.8-4-8.7-15 1.7-3 8.7 15-1.7 3zm-2.3 4-8.1 14-8.7-15 8.1-14 8.7 15zm-17.3-2-1.7-3 8.1-14 1.7 3-8.1 14zm-.6 1-1.7 3-1.7-3 1.7-3 1.7 3zm-4.6-2-1.7-3 1.7-3 1.7 3-1.7 3zm-1.2 2-1.7 3-1.7-3 1.7-3 1.7 3zm-4-1-8.1-14 1.7-3 8.1 14-1.7 3zm-.6 1-8.7 15-8.1-14 8.7-15 8.1 14zm-19-3-1.7-3 8.7-15 1.7 3-8.7 15zm-2.4 4-1.7 3-1.7-3 1.7-3 1.7 3zm-5.7-4-1.7-3 1.7-3 1.7 3-1.7 3zm-5.8 10-1.7 3-1.7-3 1.7-3 1.7 3zm2.3 4 1.7 3-1.7 3-1.7-3 1.7-3zm4 7 8.1 14-1.7 3-8.1-14 1.7-3zm5.2 19-1.7 3-8.1-14 1.7-3 8.1 14zm.6 1 1.7 3-1.7 3-1.7-3 1.7-3zm-.8 7.5-1.7 3-1.7-3 1.7-3 1.7 3zm1.1 2 1.7 3-1.7 3-1.7-3 1.7-3zm2.3 4 8.7 15-1.7 3-8.7-15 1.7-3zm11 19 1.7 3-1.7 3-1.7-3 1.7-3zm-.6 7-5.5 9.5-1.7-3 5.5-9.5 1.7 3zm-6 10.5-1.7 3-1.7-3 1.7-3 1.7 3zm2.3 4 1.7 3-1.7 3-1.7-3 1.7-3zm-.9 7.5-1.7 3-1.7-3 1.7-3 1.7 3zm1.7 3 1.7 3-1.7 3-1.7-3 1.7-3zm2.9 5 1.7 3-1.7 3-1.7-3 1.7-3zm-1.1 8-1.7 3-1.7-3 1.7-3 1.7 3zm-3.5 6-1.7 3-1.7-3 1.7-3 1.7 3zm.9 1.5 1.7 3-1.7 3-1.7-3 1.7-3zm2.3 4 5.5 9.5-1.7 3-5.5-9.5 1.7-3zm1.4 16.5-1.7 3-5.5-9.5 1.7-3 5.5 9.5zm.6 1 1.7 3-1.7 3-1.7-3 1.7-3zm-2.3 10-8.1 14-1.7-3 8.1-14 1.7 3zm-8.7 15-1.7 3-1.7-3 1.7-3 1.7 3zm-2.9 5-1.7 3-1.7-3 1.7-3 1.7 3zm.9 1.5 1.7 3-1.7 3-1.7-3 1.7-3zm-.6 7-8.7 15-1.7-3 8.7-15 1.7 3zm1.2 2 1.7 3-8.7 15-1.7-3 8.7-15zm-9.3 22-1.7 3-1.7-3 1.7-3 1.7 3zm-4 7-1.7 3-1.7-3 1.7-3 1.7 3zm1.7 3 1.7 3-1.7 3-1.7-3 1.7-3zm-1.7 9-1.7 3-1.7-3 1.7-3 1.7 3zm2.3 4 1.7 3-1.7 3-1.7-3 1.7-3zm4 7 8.1 14-1.7 3-8.1-14 1.7-3zm5.2 19-1.7 3-8.1-14 1.7-3 8.1 14zm.6 1 1.7 3-1.7 3-1.7-3 1.7-3zm-.8 7.5-1.7 3-1.7-3 1.7-3 1.7 3zm1.1 2 1.7 3-1.7 3-1.7-3 1.7-3zm2.3 4 8.7 15-1.7 3-8.7-15 1.7-3zm11 19 1.7 3-1.7 3-1.7-3 1.7-3zm4 7 1.7 3-1.7 3-1.7-3 1.7-3zm.9-1.5 1.7-3 1.7 3-1.7 3-1.7-3zm5.2 3 1.7 3-1.7 3-1.7-3 1.7-3zm1.1-2 1.7-3 1.7 3-1.7 3-1.7-3zm4.7 2 1.7 3-1.7 3-1.7-3 1.7-3zm1.7-3 1.7-3 1.7 3-1.7 3-1.7-3zm4.3 1.5 1.7 3-1.7 3-1.7-3 1.7-3zm2.3-4 1.7-3 1.7 3-1.7 3-1.7-3zm4.1-7 8.7-15 1.7 3-8.7 15-1.7-3zm9.2-16 1.7-3 1.7 3-1.7 3-1.7-3zm4.1 1 5.5 9.5-1.7 3-5.5-9.5 1.7-3zm1.1-2 1.7-3 5.5 9.5-1.7 3-5.5-9.5zm7.8 7.5 1.7 3-1.7 3-1.7-3 1.7-3zm.6-1 8.1-14 1.7 3-8.1 14-1.7-3zm10.7-9.5 1.7 3-8.1 14-1.7-3 8.1-14zm2.3-4 1.7-3 1.7 3-1.7 3-1.7-3zm4-7 1.7-3 1.7 3-1.7 3-1.7-3zm3.5-6 1.7-3 1.7 3-1.7 3-1.7-3zm4.6 2 1.7 3-1.7 3-1.7-3 1.7-3zm1.2-2 1.7-3 1.7 3-1.7 3-1.7-3zm5.2 3 1.7 3-1.7 3-1.7-3 1.7-3zm4 7 1.7 3-1.7 3-1.7-3 1.7-3zm4 7 8.1 14-1.7 3-8.1-14 1.7-3zm.9-1.5 1.7-3 8.1 14-1.7 3-8.1-14zm10.4 12 1.7 3-1.7 3-1.7-3 1.7-3zm.6-1 5.5-9.5 1.7 3-5.5 9.5-1.7-3zm8.3-4.5 1.7 3-5.5 9.5-1.7-3 5.5-9.5zm.6-1 1.7-3 1.7 3-1.7 3-1.7-3zm4.1 1 8.7 15-1.7 3-8.7-15 1.7-3zm10.9 19 1.7 3-1.7 3-1.7-3 1.7-3zm4.1 7 1.7 3-1.7 3-1.7-3 1.7-3zm.8-1.5 1.7-3 1.7 3-1.7 3-1.7-3zm5.2 3 1.7 3-1.7 3-1.7-3 1.7-3zm1.2-2 1.7-3 1.7 3-1.7 3-1.7-3zm4.6 2 1.7 3-1.7 3-1.7-3 1.7-3zm1.7-3 1.7-3 1.7 3-1.7 3-1.7-3zm4.4 1.5 1.7 3-1.7 3-1.7-3 1.7-3zm2.3-4 1.7-3 1.7 3-1.7 3-1.7-3zm4-7 8.7-15 1.7 3-8.7 15-1.7-3zm9.3-16 1.7-3 1.7 3-1.7 3-1.7-3zm2.8-5 1.7-3 1.7 3-1.7 3-1.7-3zm-.8-1.5-1.7-3 1.7-3 1.7 3-1.7 3zm.6-7 8.1-14 1.7 3-8.1 14-1.7-3zm-1.2-2-1.7-3 8.1-14 1.7 3-8.1 14zm8.7-21 1.7-3 1.7 3-1.7 3-1.7-3zm4-7 1.7-3 1.7 3-1.7 3-1.7-3zm-1.7-3-1.7-3 1.7-3 1.7 3-1.7 3zm1.7-9 1.7-3 1.7 3-1.7 3-1.7-3zm-2.3-4-1.7-3 1.7-3 1.7 3-1.7 3zm-4-7-8.7-15 1.7-3 8.7 15-1.7 3zm-5.8-20 1.7-3 8.7 15-1.7 3-8.7-15zm-.6-1-1.7-3 1.7-3 1.7 3-1.7 3zm.9-7.5 1.7-3 1.7 3-1.7 3-1.7-3zm-1.2-2-1.7-3 1.7-3 1.7 3-1.7 3zm-2.3-4-8.1-14 1.7-3 8.1 14-1.7 3zm-10.4-18-1.7-3 1.7-3 1.7 3-1.7 3zm.6-7 5.5-9.5 1.7 3-5.5 9.5-1.7-3zm-2.3-4-1.7-3 5.5-9.5 1.7 3-5.5 9.5zm4.3-13.5 1.7-3 1.7 3-1.7 3-1.7-3zm2.6-4.5 1.7-3 1.7 3-1.7 3-1.7-3zm-1.7-3-1.7-3 1.7-3 1.7 3-1.7 3zm-2.9-5-1.7-3 1.7-3 1.7 3-1.7 3zm1.1-8 1.7-3 1.7 3-1.7 3-1.7-3zm3.5-6 1.7-3 1.7 3-1.7 3-1.7-3zm-.9-1.5-1.7-3 1.7-3 1.7 3-1.7 3zm2.3-10 1.7-3 1.7 3-1.7 3-1.7-3zm-.5-1-5.5-9.5 1.7-3 5.5 9.5-1.7 3zm-6.1-10.5-1.7-3 1.7-3 1.7 3-1.7 3zm2.3-10 8.7-15 1.7 3-8.7 15-1.7-3zm9.3-16 1.7-3 1.7 3-1.7 3-1.7-3zm2.8-5 1.7-3 1.7 3-1.7 3-1.7-3zm-.8-1.5-1.7-3 1.7-3 1.7 3-1.7 3zm.6-7 8.1-14 1.7 3-8.1 14-1.7-3zm-1.2-2-1.7-3 8.1-14 1.7 3-8.1 14zm8.7-21 1.7-3 1.7 3-1.7 3-1.7-3zm4-7 1.7-3 1.7 3-1.7 3-1.7-3zm-1.7-3-1.7-3 1.7-3 1.7 3-1.7 3zm1.7-9 1.7-3 1.7 3-1.7 3-1.7-3zm-2.3-4-1.7-3 1.7-3 1.7 3-1.7 3zm-4-7-8.7-15 1.7-3 8.7 15-1.7 3zm-1.8 3-1.7 3-8.7-15 1.7-3 8.7 15zm-11-13-1.7-3 1.7-3 1.7 3-1.7 3zm-2.3 4-1.7 3-1.7-3 1.7-3 1.7 3zm-4.6-2-1.7-3 1.7-3 1.7 3-1.7 3zm-2.3 4-8.1 14-1.7-3 8.1-14 1.7 3zm-10.4 10-8.1-14 8.1-14 8.1 14-8.1 14zm-.6 1-1.7 3-8.1-14 1.7-3 8.1 14zm-12.1-15-1.7-3 1.7-3 1.7 3-1.7 3zm-1.1 2-1.7 3-1.7-3 1.7-3 1.7 3zm-5.8-4-1.7-3 1.7-3 1.7 3-1.7 3zm-.6 1-8.7 15-1.7-3 8.7-15 1.7 3zm-12.1 9-1.7-3 8.7-15 1.7 3-8.7 15zm-2.3 4-1.7 3-1.7-3 1.7-3 1.7 3zm-4.6-2-1.7-3 1.7-3 1.7 3-1.7 3zm-2.6-4.5-1.7-3 1.7-3 1.7 3-1.7 3zm-2.3 4-1.7 3-1.7-3 1.7-3 1.7 3zm-4.1-1-5.5-9.5 1.7-3 5.5 9.5-1.7 3zm-1.7 3-1.7 3-5.5-9.5 1.7-3 5.5 9.5zm-2.9 5-1.7 3-5.5-9.5 1.7-3 5.5 9.5zm-7.8-7.5-1.7-3 1.7-3 1.7 3-1.7 3zm-.9 1.5-1.7 3-1.7-3 1.7-3 1.7 3zm-4.3-1.5-1.7-3 1.7-3 1.7 3-1.7 3zm-.6 1-5.5 9.5-1.7-3 5.5-9.5 1.7 3zm-8.3 4.5-1.7-3 5.5-9.5 1.7 3-5.5 9.5zm-3.5-6-1.7-3 5.5-9.5 1.7 3-5.5 9.5zm-.6 1-1.7 3-1.7-3 1.7-3 1.7 3zm-5.8-4-1.7-3 1.7-3 1.7 3-1.7 3zm-.8 1.5-1.7 3-1.7-3 1.7-3 1.7 3zm-2.9 5-1.7 3-1.7-3 1.7-3 1.7 3zm-5.8-4-8.7-15 1.7-3 8.7 15-1.7 3zm-1.7 3-1.7 3-8.7-15 1.7-3 8.7 15zm-11-13-1.7-3 1.7-3 1.7 3-1.7 3zm-2.3 4-1.7 3-1.7-3 1.7-3 1.7 3zm-4.6-2-1.7-3 1.7-3 1.7 3-1.7 3zm-2.3 4-8.1 14-1.7-3 8.1-14 1.7 3zm-10.4 10-8.1-14 8.1-14 8.1 14-8.1 14zm-.6 1-1.7 3-8.1-14 1.7-3 8.1 14zm-12.1-15-1.7-3 1.7-3 1.7 3-1.7 3zm-1.2 2-1.7 3-1.7-3 1.7-3 1.7 3zm-5.7-4-1.7-3 1.7-3 1.7 3-1.7 3zm-.6 1-8.7 15-1.7-3 8.7-15 1.7 3zm-12.2 9-1.7-3 8.7-15 1.7 3-8.7 15zm-2.3 4-1.7 3-1.7-3 1.7-3 1.7 3zm-6.9 2-1.7 3-1.7-3 1.7-3 1.7 3zm-3.5 6-1.7 3-1.7-3 1.7-3 1.7 3zm1.2 2 1.7 3-1.7 3-1.7-3 1.7-3zm-1.2 8-1.7 3-1.7-3 1.7-3 1.7 3zm1.8 3 1.7 3-1.7 3-1.7-3 1.7-3zm4 7 1.7 3-1.7 3-1.7-3 1.7-3zm-.8 7.5-1.7 3-1.7-3 1.7-3 1.7 3zm2.3 4 8.1 14-1.7 3-8.1-14 1.7-3zm5.7 18-5.5 9.5-8.1-14 5.5-9.5 8.1 14zm.6 1 1.7 3-5.5 9.5-1.7-3 5.5-9.5zm2.9 5 1.7 3-5.5 9.5-1.7-3 5.5-9.5zm2.3 4 8.7 15-5.5 9.5-8.7-15 5.5-9.5zm2.6 25.5-1.7 3-8.7-15 1.7-3 8.7 15zm-2.6 4.5-1.7 3-8.7-15 1.7-3 8.7 15zm2.3 4 1.7 3-1.7 3-1.7-3 1.7-3zm-1.1 8-1.7 3-1.7-3 1.7-3 1.7 3zm2.3 4 1.7 3-1.7 3-1.7-3 1.7-3zm3.4 6 1.7 3-1.7 3-1.7-3 1.7-3zm-1.7 9-1.7 3-1.7-3 1.7-3 1.7 3zm-4 7-1.7 3-1.7-3 1.7-3 1.7 3zm1.1 2 1.7 3-1.7 3-1.7-3 1.7-3zm2.6 4.5 1.7 3-1.7 3-1.7-3 1.7-3zm-2.3 10-8.1 14-1.7-3 8.1-14 1.7 3zm.6 1 5.5 9.5-8.1 14-5.5-9.5 8.1-14zm-3.2 24.5-1.7 3-5.5-9.5 1.7-3 5.5 9.5zm-2.9 5-1.7 3-5.5-9.5 1.7-3 5.5 9.5zm-2.3 4-8.7 15-5.5-9.5 8.7-15 5.5 9.5zm.6 1 1.7 3-8.7 15-1.7-3 8.7-15zm-9.2 22-1.7 3-1.7-3 1.7-3 1.7 3zm.8 1.5 1.7 3-1.7 3-1.7-3 1.7-3zm-2.3 10-1.7 3-1.7-3 1.7-3 1.7 3zm-3.5 6-1.7 3-1.7-3 1.7-3 1.7 3zm1.2 2 1.7 3-1.7 3-1.7-3 1.7-3zm-1.2 8-1.7 3-1.7-3 1.7-3 1.7 3zm1.8 3 1.7 3-1.7 3-1.7-3 1.7-3zm4 7 1.7 3-1.7 3-1.7-3 1.7-3zm-.8 7.5-1.7 3-1.7-3 1.7-3 1.7 3zm2.3 4 8.1 14-1.7 3-8.1-14 1.7-3zm5.7 18-5.5 9.5-8.1-14 5.5-9.5 8.1 14zm.6 1 1.7 3-5.5 9.5-1.7-3 5.5-9.5zm2.9 5 1.7 3-5.5 9.5-1.7-3 5.5-9.5zm13.3 23 1.7 3-5.5 9.5-1.7-3 5.5-9.5zm4 7 1.7 3-5.5 9.5-1.7-3 5.5-9.5zm3.5 6 1.7 3-5.5 9.5-1.7-3 5.5-9.5zm.6-1 1.7-3 1.7 3-1.7 3-1.7-3zm4.6 2 1.7 3-1.7 3-1.7-3 1.7-3zm.8-1.5 1.7-3 1.7 3-1.7 3-1.7-3zm4.4 1.5 1.7 3-1.7 3-1.7-3 1.7-3zm1.1-2 1.7-3 1.7 3-1.7 3-1.7-3zm4.1 1 5.5 9.5-1.7 3-5.5-9.5 1.7-3zm1.7-3 1.7-3 5.5 9.5-1.7 3-5.5-9.5zm4-7 1.7-3 5.5 9.5-1.7 3-5.5-9.5zm4.1-7 8.7-15 5.5 9.5-8.7 15-5.5-9.5zm14.7-4.5 1.7 3-8.7 15-1.7-3 8.7-15zm.6-1 1.7-3 1.7 3-1.7 3-1.7-3zm4.3 1.5 1.7 3-1.7 3-1.7-3 1.7-3zm1.2-2 1.7-3 1.7 3-1.7 3-1.7-3zm4.6 2 1.7 3-1.7 3-1.7-3 1.7-3zm.6-1 8.1-14 1.7 3-8.1 14-1.7-3zm10.4-18 1.7-3 1.7 3-1.7 3-1.7-3zm4-7 1.7-3 1.7 3-1.7 3-1.7-3zm5.2 3 1.7 3-1.7 3-1.7-3 1.7-3zm1.7-3 1.7-3 1.7 3-1.7 3-1.7-3zm5.8 4 1.7 3-1.7 3-1.7-3 1.7-3zm4 7 8.1 14-1.7 3-8.1-14 1.7-3zm8.7 15 1.7 3-1.7 3-1.7-3 1.7-3zm1.2-2 1.7-3 1.7 3-1.7 3-1.7-3zm4.6 2 1.7 3-1.7 3-1.7-3 1.7-3zm.8-1.5 1.7-3 1.7 3-1.7 3-1.7-3zm4.1 1 8.7 15-1.7 3-8.7-15 1.7-3zm.6-1 5.5-9.5 8.7 15-5.5 9.5-8.7-15zm16.4 9.5 1.7 3-5.5 9.5-1.7-3 5.5-9.5zm4.1 7 1.7 3-5.5 9.5-1.7-3 5.5-9.5zm3.4 6 1.7 3-5.5 9.5-1.7-3 5.5-9.5zm.6-1 1.7-3 1.7 3-1.7 3-1.7-3zm4.6 2 1.7 3-1.7 3-1.7-3 1.7-3zm.9-1.5 1.7-3 1.7 3-1.7 3-1.7-3zm4.3 1.5 1.7 3-1.7 3-1.7-3 1.7-3zm1.2-2 1.7-3 1.7 3-1.7 3-1.7-3zm4 1 5.5 9.5-1.7 3-5.5-9.5 1.7-3zm1.7-3 1.7-3 5.5 9.5-1.7 3-5.5-9.5zm4.1-7 1.7-3 5.5 9.5-1.7 3-5.5-9.5zm13.3-23 1.7-3 5.5 9.5-1.7 3-5.5-9.5zm2.9-5 1.7-3 5.5 9.5-1.7 3-5.5-9.5zm2.3-4 8.1-14 5.5 9.5-8.1 14-5.5-9.5zm-.6-1-1.7-3 8.1-14 1.7 3-8.1 14zm8.6-21 1.7-3 1.7 3-1.7 3-1.7-3zm-.8-1.5-1.7-3 1.7-3 1.7 3-1.7 3zm2.3-10 1.7-3 1.7 3-1.7 3-1.7-3zm3.5-6 1.7-3 1.7 3-1.7 3-1.7-3zm-1.2-2-1.7-3 1.7-3 1.7 3-1.7 3zm1.2-8 1.7-3 1.7 3-1.7 3-1.7-3zm-1.8-3-1.7-3 1.7-3 1.7 3-1.7 3zm-4-7-1.7-3 1.7-3 1.7 3-1.7 3zm.8-7.5 1.7-3 1.7 3-1.7 3-1.7-3zm-2.3-4-8.7-15 1.7-3 8.7 15-1.7 3zm-6.3-19 5.5-9.5 8.7 15-5.5 9.5-8.7-15zm-.6-1-1.7-3 5.5-9.5 1.7 3-5.5 9.5zm-2.9-5-1.7-3 5.5-9.5 1.7 3-5.5 9.5zm-2.3-4-8.1-14 5.5-9.5 8.1 14-5.5 9.5zm-2-24.5 1.7-3 8.1 14-1.7 3-8.1-14zm-2.3-4-1.7-3 1.7-3 1.7 3-1.7 3zm.8-7.5 1.7-3 1.7 3-1.7 3-1.7-3zm2.9-5 1.7-3 1.7 3-1.7 3-1.7-3zm-2.3-4-1.7-3 1.7-3 1.7 3-1.7 3zm-3.4-6-1.7-3 1.7-3 1.7 3-1.7 3zm1.7-9 1.7-3 1.7 3-1.7 3-1.7-3zm4-7 1.7-3 1.7 3-1.7 3-1.7-3zm-1.1-2-1.7-3 1.7-3 1.7 3-1.7 3zm2.3-10 8.7-15 1.7 3-8.7 15-1.7-3zm-.9-1.5-1.7-3 8.7-15 1.7 3-8.7 15zm-2.3-4-5.5-9.5 8.7-15 5.5 9.5-8.7 15zm3.8-25.5 1.7-3 5.5 9.5-1.7 3-5.5-9.5zm2.9-5 1.7-3 5.5 9.5-1.7 3-5.5-9.5zm2.3-4 8.1-14 5.5 9.5-8.1 14-5.5-9.5zm-.6-1-1.7-3 8.1-14 1.7 3-8.1 14zm8.6-21 1.7-3 1.7 3-1.7 3-1.7-3zm-.8-1.5-1.7-3 1.7-3 1.7 3-1.7 3zm2.3-10 1.7-3 1.7 3-1.7 3-1.7-3zm3.5-6 1.7-3 1.7 3-1.7 3-1.7-3zm-1.2-2-1.7-3 1.7-3 1.7 3-1.7 3zm1.2-8 1.7-3 1.7 3-1.7 3-1.7-3zm-1.8-3-1.7-3 1.7-3 1.7 3-1.7 3zm-4-7-1.7-3 1.7-3 1.7 3-1.7 3zm.8-7.5 1.7-3 1.7 3-1.7 3-1.7-3zm-3.1-2.5-1.7 3-8.7-15 1.7-3 8.7 15zm-11-13-1.7-3 1.7-3 1.7 3-1.7 3zm-1.2 2-1.7 3-1.7-3 1.7-3 1.7 3zm-4.6-2-1.7-3 1.7-3 1.7 3-1.7 3zm-1.7 3-1.7 3-1.7-3 1.7-3 1.7 3zm-4-1-8.1-14 1.7-3 8.1 14-1.7 3zm-2.4 4-1.7 3-8.1-14 1.7-3 8.1 14zm-12.1-15-1.7-3 1.7-3 1.7 3-1.7 3zm-2.3 4-8.1 14-1.7-3 8.1-14 1.7 3zm-12.1 7-1.7-3 8.1-14 1.7 3-8.1 14zm-.6 1-1.7 3-1.7-3 1.7-3 1.7 3zm-5.2-3-1.7-3 1.7-3 1.7 3-1.7 3zm-1.1 2-1.7 3-1.7-3 1.7-3 1.7 3zm-4.7-2-1.7-3 1.7-3 1.7 3-1.7 3zm-.5 1-8.7 15-1.7-3 8.7-15 1.7 3zM281.4 96l-1.7-3 8.7-15 1.7 3-8.7 15zm-2.3-4-5.5-9.5 8.7-15 5.5 9.5-8.7 15zm-2.3 4-1.7 3-5.5-9.5 1.7-3 5.5 9.5zm-7.8-7.5-1.7-3 1.7-3 1.7 3-1.7 3zm-2.3 4-1.7 3-1.7-3 1.7-3 1.7 3zm-3.5 6-1.7 3-1.7-3 1.7-3 1.7 3zm-4.3-1.5-1.7-3 1.7-3 1.7 3-1.7 3zm-1.2 2-1.7 3-1.7-3 1.7-3 1.7 3zm-4.6-2-1.7-3 1.7-3 1.7 3-1.7 3zm-.9 1.5-1.7 3-1.7-3 1.7-3 1.7 3zm-5.1-3-1.7-3 1.7-3 1.7 3-1.7 3zm-4.1-7-1.7-3 1.7-3 1.7 3-1.7 3zm-.6 1-5.5 9.5-1.7-3 5.5-9.5 1.7 3zm-9.5 2.5-8.7-15 5.5-9.5 8.7 15-5.5 9.5zm-.6 1-1.7 3-8.7-15 1.7-3 8.7 15zm-2.6 4.5-1.7 3-8.7-15 1.7-3 8.7 15zm-10.9-13-1.7-3 1.7-3 1.7 3-1.7 3zm-1.2 2-1.7 3-1.7-3 1.7-3 1.7 3zm-4.6-2-1.7-3 1.7-3 1.7 3-1.7 3zm-1.7 3-1.7 3-1.7-3 1.7-3 1.7 3zm-4.1-1-8.1-14 1.7-3 8.1 14-1.7 3zm-2.3 4-1.7 3-8.1-14 1.7-3 8.1 14zm-12.1-15-1.7-3 1.7-3 1.7 3-1.7 3zm-2.3 4-8.1 14-1.7-3 8.1-14 1.7 3zm-12.2 7-1.7-3 8.1-14 1.7 3-8.1 14zm-.5 1-1.7 3-1.7-3 1.7-3 1.7 3zm-5.2-3-1.7-3 1.7-3 1.7 3-1.7 3zm-1.2 2-1.7 3-1.7-3 1.7-3 1.7 3zm-4.6-2-1.7-3 1.7-3 1.7 3-1.7 3zm-.6 1-8.7 15-1.7-3 8.7-15 1.7 3zM155 96l-1.7-3 8.7-15 1.7 3-8.7 15zm-2.3-4-5.5-9.5 8.7-15 5.5 9.5-8.7 15zm-6.4 11-1.7 3-5.5-9.5 1.7-3 5.5 9.5zm.6 1 1.7 3-1.7 3-1.7-3 1.7-3zm-1.8 9-1.7 3-1.7-3 1.7-3 1.7 3zm-2.8 5-1.7 3-1.7-3 1.7-3 1.7 3zm.8 1.5 1.7 3-1.7 3-1.7-3 1.7-3zm-.8 7.5-1.7 3-1.7-3 1.7-3 1.7 3zm1.1 2 1.7 3-1.7 3-1.7-3 1.7-3zm3.5 6 1.7 3-1.7 3-1.7-3 1.7-3zm-.6 7-5.5 9.5-1.7-3 5.5-9.5 1.7 3zm2.3 4 1.7 3-5.5 9.5-1.7-3 5.5-9.5zm-4.3 13.5-1.7 3-1.7-3 1.7-3 1.7 3zm2.3 4 8.1 14-1.7 3-8.1-14 1.7-3zm8.7 15 1.7 3-1.7 3-1.7-3 1.7-3zm2.8 5 1.7 3-1.7 3-1.7-3 1.7-3zm-.8 7.5-1.7 3-1.7-3 1.7-3 1.7 3zm-2.9 5-1.7 3-1.7-3 1.7-3 1.7 3zm.6 1 8.7 15-1.7 3-8.7-15 1.7-3zm5.2 21-1.7 3-8.7-15 1.7-3 8.7 15zm2.3 4 1.7 3-1.7 3-1.7-3 1.7-3zm4 7 1.7 3-1.7 3-1.7-3 1.7-3zm-2.3 10-1.7 3-1.7-3 1.7-3 1.7 3zm-4 7-8.1 14-1.7-3 8.1-14 1.7 3zm1.7 3 1.7 3-8.1 14-1.7-3 8.1-14zm2.9 5 1.7 3-8.1 14-1.7-3 8.1-14zm-6.9 18-1.7 3-1.7-3 1.7-3 1.7 3zm.8 1.5 1.7 3-1.7 3-1.7-3 1.7-3zm-1.1 8-1.7 3-1.7-3 1.7-3 1.7 3zm-2.3 4-8.7 15-1.7-3 8.7-15 1.7 3zm-11 19-1.7 3-1.7-3 1.7-3 1.7 3zm.6 1 5.5 9.5-1.7 3-5.5-9.5 1.7-3zm1.4 16.5-1.7 3-5.5-9.5 1.7-3 5.5 9.5zm.6 1 1.7 3-1.7 3-1.7-3 1.7-3zm-1.8 9-1.7 3-1.7-3 1.7-3 1.7 3zm-2.8 5-1.7 3-1.7-3 1.7-3 1.7 3zm.8 1.5 1.7 3-1.7 3-1.7-3 1.7-3zm-.8 7.5-1.7 3-1.7-3 1.7-3 1.7 3zm1.1 2 1.7 3-1.7 3-1.7-3 1.7-3zm3.5 6 1.7 3-1.7 3-1.7-3 1.7-3zm-.6 7-5.5 9.5-1.7-3 5.5-9.5 1.7 3zm2.3 4 1.7 3-5.5 9.5-1.7-3 5.5-9.5zm-4.3 13.5-1.7 3-1.7-3 1.7-3 1.7 3zm2.3 4 8.1 14-1.7 3-8.1-14 1.7-3zm8.7 15 1.7 3-1.7 3-1.7-3 1.7-3zm2.8 5 1.7 3-1.7 3-1.7-3 1.7-3zm-.8 7.5-1.7 3-1.7-3 1.7-3 1.7 3zm-2.9 5-1.7 3-1.7-3 1.7-3 1.7 3zm.6 1 8.7 15-1.7 3-8.7-15 1.7-3zm1.1-2 1.7-3 8.7 15-1.7 3-8.7-15zm12.7 16 1.7 3-1.7 3-1.7-3 1.7-3zm.9-1.5 1.7-3 1.7 3-1.7 3-1.7-3zm5.8 4 1.7 3-1.7 3-1.7-3 1.7-3zm3.4 6 1.7 3-1.7 3-1.7-3 1.7-3zm2.9 5 1.7 3-1.7 3-1.7-3 1.7-3zm.6-1 5.5-9.5 1.7 3-5.5 9.5-1.7-3zm8.1-5 1.7 3-5.5 9.5-1.7-3 5.5-9.5zm.5-1 1.7-3 1.7 3-1.7 3-1.7-3zm4.1 1 5.5 9.5-1.7 3-5.5-9.5 1.7-3zm.9-1.5 1.7-3 5.5 9.5-1.7 3-5.5-9.5zm7.7 7.5 1.7 3-1.7 3-1.7-3 1.7-3zm1.2-2 1.7-3 1.7 3-1.7 3-1.7-3zm3.5-6 1.7-3 1.7 3-1.7 3-1.7-3zm4-7 1.7-3 1.7 3-1.7 3-1.7-3zm4.3 1.5 1.7 3-1.7 3-1.7-3 1.7-3zm2.3-4 8.7-15 1.7 3-8.7 15-1.7-3zm11.6-10 1.7 3-8.7 15-1.7-3 8.7-15zm.6-1 1.7-3 1.7 3-1.7 3-1.7-3zm5.2 3 1.7 3-1.7 3-1.7-3 1.7-3zm1.1-2 1.7-3 1.7 3-1.7 3-1.7-3zm2.3-4 8.1-14 1.7 3-8.1 14-1.7-3zm10.4-18 1.7-3 1.7 3-1.7 3-1.7-3zm5.8 4 1.7 3-1.7 3-1.7-3 1.7-3zm2.3-4 1.7-3 1.7 3-1.7 3-1.7-3zm5.8 4 8.1 14-1.7 3-8.1-14 1.7-3zm8.6 15 1.7 3-1.7 3-1.7-3 1.7-3zm2.9 5 1.7 3-1.7 3-1.7-3 1.7-3zm1.8-3 1.7-3 1.7 3-1.7 3-1.7-3zm4 1 8.7 15-1.7 3-8.7-15 1.7-3zm1.2-2 1.7-3 8.7 15-1.7 3-8.7-15zm12.7 16 1.7 3-1.7 3-1.7-3 1.7-3zm.8-1.5 1.7-3 1.7 3-1.7 3-1.7-3zm5.8 4 1.7 3-1.7 3-1.7-3 1.7-3zm3.5 6 1.7 3-1.7 3-1.7-3 1.7-3zm2.9 5 1.7 3-1.7 3-1.7-3 1.7-3zm.5-1 5.5-9.5 1.7 3-5.5 9.5-1.7-3zm8.1-5 1.7 3-5.5 9.5-1.7-3 5.5-9.5zm.6-1 1.7-3 1.7 3-1.7 3-1.7-3zm4 1 5.5 9.5-1.7 3-5.5-9.5 1.7-3zm.9-1.5 1.7-3 5.5 9.5-1.7 3-5.5-9.5zm7.8 7.5 1.7 3-1.7 3-1.7-3 1.7-3zm1.1-2 1.7-3 1.7 3-1.7 3-1.7-3zm3.5-6 1.7-3 1.7 3-1.7 3-1.7-3zm4-7 1.7-3 1.7 3-1.7 3-1.7-3zm4.4 1.5 1.7 3-1.7 3-1.7-3 1.7-3zm2.3-4 8.7-15 1.7 3-8.7 15-1.7-3zm11.5-10 1.7 3-8.7 15-1.7-3 8.7-15zm.6-1 1.7-3 1.7 3-1.7 3-1.7-3zm-1.1-2-1.7-3 1.7-3 1.7 3-1.7 3zm-2.6-4.5-1.7-3 1.7-3 1.7 3-1.7 3zm1.1-8 1.7-3 1.7 3-1.7 3-1.7-3zm2.3-4 8.1-14 1.7 3-8.1 14-1.7-3zm10.4-18 1.7-3 1.7 3-1.7 3-1.7-3zm-.6-1-5.5-9.5 1.7-3 5.5 9.5-1.7 3zm-1.4-16.5 1.7-3 5.5 9.5-1.7 3-5.5-9.5zm-.6-1-1.7-3 1.7-3 1.7 3-1.7 3zm1.8-9 1.7-3 1.7 3-1.7 3-1.7-3zm2.8-5 1.7-3 1.7 3-1.7 3-1.7-3zm-.8-1.5-1.7-3 1.7-3 1.7 3-1.7 3zm.8-7.5 1.7-3 1.7 3-1.7 3-1.7-3zm-1.1-2-1.7-3 1.7-3 1.7 3-1.7 3zm-3.5-6-1.7-3 1.7-3 1.7 3-1.7 3zm.6-7 5.5-9.5 1.7 3-5.5 9.5-1.7-3zm-2.3-4-1.7-3 5.5-9.5 1.7 3-5.5 9.5zm4.3-13.5 1.7-3 1.7 3-1.7 3-1.7-3zm-2.3-4-8.7-15 1.7-3 8.7 15-1.7 3zm-9.2-16-1.7-3 1.7-3 1.7 3-1.7 3zm-2.9-5-1.7-3 1.7-3 1.7 3-1.7 3zm.8-7.5 1.7-3 1.7 3-1.7 3-1.7-3zm-.5-1-8.1-14 1.7-3 8.1 14-1.7 3zm-5.2-19 1.7-3 8.1 14-1.7 3-8.1-14zm3.4-6 1.7-3 8.1 14-1.7 3-8.1-14zm-2.3-4-1.7-3 1.7-3 1.7 3-1.7 3zm-4-7-1.7-3 1.7-3 1.7 3-1.7 3zm2.3-10 1.7-3 1.7 3-1.7 3-1.7-3zm4-7 8.7-15 1.7 3-8.7 15-1.7-3zm-1.7-3-1.7-3 8.7-15 1.7 3-8.7 15zm7.5-19 1.7-3 1.7 3-1.7 3-1.7-3zm-1.1-2-1.7-3 1.7-3 1.7 3-1.7 3zm-2.6-4.5-1.7-3 1.7-3 1.7 3-1.7 3zm1.1-8 1.7-3 1.7 3-1.7 3-1.7-3zm2.3-4 8.1-14 1.7 3-8.1 14-1.7-3zm10.4-18 1.7-3 1.7 3-1.7 3-1.7-3zm-.6-1-5.5-9.5 1.7-3 5.5 9.5-1.7 3zm-1.4-16.5 1.7-3 5.5 9.5-1.7 3-5.5-9.5zm-.6-1-1.7-3 1.7-3 1.7 3-1.7 3zm1.8-9 1.7-3 1.7 3-1.7 3-1.7-3zm2.8-5 1.7-3 1.7 3-1.7 3-1.7-3zm-.8-1.5-1.7-3 1.7-3 1.7 3-1.7 3zm.8-7.5 1.7-3 1.7 3-1.7 3-1.7-3zm-1.1-2-1.7-3 1.7-3 1.7 3-1.7 3zm-3.5-6-1.7-3 1.7-3 1.7 3-1.7 3zm.6-7 5.5-9.5 1.7 3-5.5 9.5-1.7-3zm-2.3-4-1.7-3 5.5-9.5 1.7 3-5.5 9.5zm4.3-13.5 1.7-3 1.7 3-1.7 3-1.7-3zm-2.3-4-8.7-15 1.7-3 8.7 15-1.7 3zm-9.2-16-1.7-3 1.7-3 1.7 3-1.7 3zm-.6 1-5.5 9.5-1.7-3 5.5-9.5 1.7 3zM349.5 77l-1.7 3-1.7-3 1.7-3 1.7 3zm-4.6-2-1.7-3 1.7-3 1.7 3-1.7 3zm-.9 1.5-1.7 3-1.7-3 1.7-3 1.7 3zm-4-1-8.1-14 1.7-3 8.1 14-1.7 3zm-1.2 2-1.7 3-8.1-14 1.7-3 8.1 14zm-12.1-15-1.7-3 1.7-3 1.7 3-1.7 3zm-1.7 3-1.7 3-1.7-3 1.7-3 1.7 3zm-5.8-4-1.7-3 1.7-3 1.7 3-1.7 3zm-2.3 4-1.7 3-1.7-3 1.7-3 1.7 3zm-5.2-3-1.7-3 1.7-3 1.7 3-1.7 3zm-2.3 4-8.1 14-1.7-3 8.1-14 1.7 3zm-11 9-1.7-3 8.1-14 1.7 3-8.1 14zm-.5 1-1.7 3-1.7-3 1.7-3 1.7 3zm-4.4-1.5-1.7-3 1.7-3 1.7 3-1.7 3zm-1.1 2-1.7 3-1.7-3 1.7-3 1.7 3zm-4.1-1-5.5-9.5 1.7-3L290 73l-1.7 3zm-6-10.5-1.7-3 1.7-3 1.7 3-1.7 3zm-.6 1-8.7 15-1.7-3 8.7-15 1.7 3zM270.4 77l-1.7-3 8.7-15 1.7 3-8.7 15zm-2.3 4-1.7 3-1.7-3 1.7-3 1.7 3zm-4 7-1.7 3-1.7-3 1.7-3 1.7 3zm-4.6-2-1.7-3 1.7-3 1.7 3-1.7 3zm-1.8 3-1.7 3-1.7-3 1.7-3 1.7 3zm-5.2-3-1.7-3 1.7-3 1.7 3-1.7 3zm-1.1 2-1.7 3-1.7-3 1.7-3 1.7 3zm-5.8-4-1.7-3 1.7-3 1.7 3-1.7 3zm-4-7-8.7-15 1.7-3 8.7 15-1.7 3zm-.9 1.5-1.7 3-8.7-15 1.7-3 8.7 15zm-11-13-1.7-3 1.7-3 1.7 3-1.7 3zm-.5 1-5.5 9.5-1.7-3 5.5-9.5 1.7 3zM223.1 77l-1.7 3-1.7-3 1.7-3 1.7 3zm-4.6-2-1.7-3 1.7-3 1.7 3-1.7 3zm-.9 1.5-1.7 3-1.7-3 1.7-3 1.7 3zm-4-1-8.1-14 1.7-3 8.1 14-1.7 3zm-1.2 2-1.7 3-8.1-14 1.7-3 8.1 14zm-12.1-15-1.7-3 1.7-3 1.7 3-1.7 3zm-1.7 3-1.7 3-1.7-3 1.7-3 1.7 3zm-5.8-4-1.7-3 1.7-3 1.7 3-1.7 3zm-2.3 4-1.7 3-1.7-3 1.7-3 1.7 3zm-5.2-3-1.7-3 1.7-3 1.7 3-1.7 3zm-2.3 4-8.1 14-1.7-3 8.1-14 1.7 3zm-11 9-1.7-3 8.1-14 1.7 3-8.1 14zm-.6 1-1.7 3-1.7-3 1.7-3 1.7 3zm-4.3-1.5-1.7-3 1.7-3 1.7 3-1.7 3zm-1.2 2-1.7 3-1.7-3 1.7-3 1.7 3zm-4-1-5.5-9.5 1.7-3 5.5 9.5-1.7 3zm-6.1-10.5-1.7-3 1.7-3 1.7 3-1.7 3zm-.5 1-8.7 15-1.7-3 8.7-15 1.7 3zM144 77l-1.7-3 8.7-15 1.7 3-8.7 15zm-2.3 4-1.7 3-1.7-3 1.7-3 1.7 3zm-4.1 7-1.7 3-1.7-3 1.7-3 1.7 3zm.9 1.5 1.7 3-1.7 3-1.7-3 1.7-3zm-1.7 9-1.7 3-1.7-3 1.7-3 1.7 3zm.6 1 5.5 9.5-1.7 3-5.5-9.5 1.7-3zM140 114l-1.7 3-5.5-9.5 1.7-3 5.5 9.5zm-2.6 4.5-1.7 3-5.5-9.5 1.7-3 5.5 9.5zm.5 1 1.7 3-1.7 3-1.7-3 1.7-3zm-.5 7-5.5 9.5-1.7-3 5.5-9.5 1.7 3zm.8 1.5 1.7 3-5.5 9.5-1.7-3 5.5-9.5zm2.9 5 1.7 3-5.5 9.5-1.7-3 5.5-9.5zm-4.3 13.5-1.7 3-1.7-3 1.7-3 1.7 3zm1.7 3 1.7 3-1.7 3-1.7-3 1.7-3zm-.9 7.5-1.7 3-1.7-3 1.7-3 1.7 3zm2.4 4 1.7 3-1.7 3-1.7-3 1.7-3zm4 7 8.1 14-1.7 3-8.1-14 1.7-3zm8.7 15 1.7 3-1.7 3-1.7-3 1.7-3zm-1.2 8-1.7 3-1.7-3 1.7-3 1.7 3zm-3.5 6-1.7 3-1.7-3 1.7-3 1.7 3zm1.2 2 1.7 3-1.7 3-1.7-3 1.7-3zm-2.3 10-1.7 3-1.7-3 1.7-3 1.7 3zm.6 1 8.7 15-1.7 3-8.7-15 1.7-3zm10.9 19 1.7 3-1.7 3-1.7-3 1.7-3zm-2.3 10-8.1 14-1.7-3 8.1-14 1.7 3zm-8.6 15-1.7 3-1.7-3 1.7-3 1.7 3zm2.3 4 1.7 3-1.7 3-1.7-3 1.7-3zm3.4 6 1.7 3-1.7 3-1.7-3 1.7-3zm-1.1 8-1.7 3-1.7-3 1.7-3 1.7 3zm1.1 2 1.7 3-1.7 3-1.7-3 1.7-3zm-.5 7-8.7 15-1.7-3 8.7-15 1.7 3zm-11 19-1.7 3-1.7-3 1.7-3 1.7 3zm-4.1 7-1.7 3-1.7-3 1.7-3 1.7 3zm.9 1.5 1.7 3-1.7 3-1.7-3 1.7-3zm-1.7 9-1.7 3-1.7-3 1.7-3 1.7 3zm.6 1 5.5 9.5-1.7 3-5.5-9.5 1.7-3zM140 333l-1.7 3-5.5-9.5 1.7-3 5.5 9.5zm-2.6 4.5-1.7 3-5.5-9.5 1.7-3 5.5 9.5zm.5 1 1.7 3-1.7 3-1.7-3 1.7-3zm-.5 7-5.5 9.5-1.7-3 5.5-9.5 1.7 3zm.8 1.5 1.7 3-5.5 9.5-1.7-3 5.5-9.5zm2.9 5 1.7 3-5.5 9.5-1.7-3 5.5-9.5zm-4.3 13.5-1.7 3-1.7-3 1.7-3 1.7 3zm1.7 3 1.7 3-1.7 3-1.7-3 1.7-3zm-.9 7.5-1.7 3-1.7-3 1.7-3 1.7 3zm2.4 4 1.7 3-1.7 3-1.7-3 1.7-3zm4 7 8.1 14-1.7 3-8.1-14 1.7-3zm8.7 15 1.7 3-1.7 3-1.7-3 1.7-3zm-1.2 8-1.7 3-1.7-3 1.7-3 1.7 3zm-3.5 6-1.7 3-1.7-3 1.7-3 1.7 3zm1.2 2 1.7 3-1.7 3-1.7-3 1.7-3zm-2.3 10-1.7 3-1.7-3 1.7-3 1.7 3zm.6 1 8.7 15-1.7 3-8.7-15 1.7-3zm2.3-4 1.7-3 8.7 15-1.7 3-8.7-15zm12.7 16 1.7 3-1.7 3-1.7-3 1.7-3zm1.7-3 1.7-3 1.7 3-1.7 3-1.7-3zm5.8 4 1.7 3-1.7 3-1.7-3 1.7-3zm1.1-2 1.7-3 1.7 3-1.7 3-1.7-3zm5.2 3 1.7 3-1.7 3-1.7-3 1.7-3zm2.9 5 1.7 3-1.7 3-1.7-3 1.7-3zm2.6 4.5 1.7 3-1.7 3-1.7-3 1.7-3zm.9-1.5 1.7-3 1.7 3-1.7 3-1.7-3zm4 1 5.5 9.5-1.7 3-5.5-9.5 1.7-3zm.6-1 5.5-9.5 5.5 9.5-5.5 9.5-5.5-9.5zm11.5 1 1.7 3-5.5 9.5-1.7-3 5.5-9.5zm.6-1 1.7-3 1.7 3-1.7 3-1.7-3zm4.3 1.5 1.7 3-1.7 3-1.7-3 1.7-3zm.9-1.5 1.7-3 1.7 3-1.7 3-1.7-3zm2.9-5 1.7-3 1.7 3-1.7 3-1.7-3zm3.5-6 1.7-3 1.7 3-1.7 3-1.7-3zm4.6 2 1.7 3-1.7 3-1.7-3 1.7-3zm2.3-4 1.7-3 1.7 3-1.7 3-1.7-3zm5.2 3 1.7 3-1.7 3-1.7-3 1.7-3zm2.3-4 8.7-15 1.7 3-8.7 15-1.7-3zm12.7-8 1.7 3-8.7 15-1.7-3 8.7-15zm.6-1 1.7-3 1.7 3-1.7 3-1.7-3zm2.9-5 1.7-3 1.7 3-1.7 3-1.7-3zm2.3-4 8.1-14 1.7 3-8.1 14-1.7-3zm12.1-7 8.1 14-8.1 14-8.1-14 8.1-14zm2.3-4 1.7-3 8.1 14-1.7 3-8.1-14zm10.4 12 1.7 3-1.7 3-1.7-3 1.7-3zm2.9 5 1.7 3-1.7 3-1.7-3 1.7-3zm2.3 4 8.7 15-1.7 3-8.7-15 1.7-3zm2.3-4 1.7-3 8.7 15-1.7 3-8.7-15zm12.7 16 1.7 3-1.7 3-1.7-3 1.7-3zm1.7-3 1.7-3 1.7 3-1.7 3-1.7-3zm5.8 4 1.7 3-1.7 3-1.7-3 1.7-3zm1.2-2 1.7-3 1.7 3-1.7 3-1.7-3zm5.2 3 1.7 3-1.7 3-1.7-3 1.7-3zm2.9 5 1.7 3-1.7 3-1.7-3 1.7-3zm2.6 4.5 1.7 3-1.7 3-1.7-3 1.7-3zm.8-1.5 1.7-3 1.7 3-1.7 3-1.7-3zm4.1 1 5.5 9.5-1.7 3-5.5-9.5 1.7-3zm.5-1 5.5-9.5 5.5 9.5-5.5 9.5-5.5-9.5zm11.6 1 1.7 3-5.5 9.5-1.7-3 5.5-9.5zm.6-1 1.7-3 1.7 3-1.7 3-1.7-3zm4.3 1.5 1.7 3-1.7 3-1.7-3 1.7-3zm.9-1.5 1.7-3 1.7 3-1.7 3-1.7-3zm2.8-5 1.7-3 1.7 3-1.7 3-1.7-3zm3.5-6 1.7-3 1.7 3-1.7 3-1.7-3zm4.6 2 1.7 3-1.7 3-1.7-3 1.7-3zm2.3-4 1.7-3 1.7 3-1.7 3-1.7-3zm5.2 3 1.7 3-1.7 3-1.7-3 1.7-3zm2.3-4 8.7-15 1.7 3-8.7 15-1.7-3zm12.7-8 1.7 3-8.7 15-1.7-3 8.7-15zm.6-1 1.7-3 1.7 3-1.7 3-1.7-3zm-2.3-4-1.7-3 1.7-3 1.7 3-1.7 3zm1.2-8 1.7-3 1.7 3-1.7 3-1.7-3zm-1.8-3-1.7-3 1.7-3 1.7 3-1.7 3zm-2.9-5-1.7-3 1.7-3 1.7 3-1.7 3zm.6-7 8.1-14 1.7 3-8.1 14-1.7-3zm10.4-18 1.7-3 1.7 3-1.7 3-1.7-3zm4.1-7 1.7-3 1.7 3-1.7 3-1.7-3zm-.9-1.5-1.7-3 1.7-3 1.7 3-1.7 3zm1.7-9 1.7-3 1.7 3-1.7 3-1.7-3zm-.6-1-5.5-9.5 1.7-3 5.5 9.5-1.7 3zM372 350l1.7-3 5.5 9.5-1.7 3-5.5-9.5zm2.6-4.5 1.7-3 5.5 9.5-1.7 3-5.5-9.5zm-.5-1-1.7-3 1.7-3 1.7 3-1.7 3zm.5-7 5.5-9.5 1.7 3-5.5 9.5-1.7-3zm-.8-1.5-1.7-3 5.5-9.5 1.7 3-5.5 9.5zm-2.9-5-1.7-3 5.5-9.5 1.7 3-5.5 9.5zm4.3-13.5 1.7-3 1.7 3-1.7 3-1.7-3zm-1.7-3-1.7-3 1.7-3 1.7 3-1.7 3zm.9-7.5 1.7-3 1.7 3-1.7 3-1.7-3zm-2.4-4-1.7-3 1.7-3 1.7 3-1.7 3zm-4-7-8.7-15 1.7-3 8.7 15-1.7 3zm-9.2-16-1.7-3 1.7-3 1.7 3-1.7 3zm1.1-8 1.7-3 1.7 3-1.7 3-1.7-3zm-1.1-2-1.7-3 1.7-3 1.7 3-1.7 3zm1.7-9 1.7-3 1.7 3-1.7 3-1.7-3zm4-7 1.7-3 1.7 3-1.7 3-1.7-3zm-.5-1-8.1-14 1.7-3 8.1 14-1.7 3zm-10.4-18-1.7-3 1.7-3 1.7 3-1.7 3zm2.3-10 8.7-15 1.7 3-8.7 15-1.7-3zm9.2-16 1.7-3 1.7 3-1.7 3-1.7-3zm-2.3-4-1.7-3 1.7-3 1.7 3-1.7 3zm1.2-8 1.7-3 1.7 3-1.7 3-1.7-3zm-1.8-3-1.7-3 1.7-3 1.7 3-1.7 3zm-2.9-5-1.7-3 1.7-3 1.7 3-1.7 3zm.6-7 8.1-14 1.7 3-8.1 14-1.7-3zm10.4-18 1.7-3 1.7 3-1.7 3-1.7-3zm4.1-7 1.7-3 1.7 3-1.7 3-1.7-3zm-.9-1.5-1.7-3 1.7-3 1.7 3-1.7 3zm1.7-9 1.7-3 1.7 3-1.7 3-1.7-3zm-.6-1-5.5-9.5 1.7-3 5.5 9.5-1.7 3zM372 131l1.7-3 5.5 9.5-1.7 3-5.5-9.5zm2.6-4.5 1.7-3 5.5 9.5-1.7 3-5.5-9.5zm-.5-1-1.7-3 1.7-3 1.7 3-1.7 3zm.5-7 5.5-9.5 1.7 3-5.5 9.5-1.7-3zm-.8-1.5-1.7-3 5.5-9.5 1.7 3-5.5 9.5zm-2.9-5-1.7-3 5.5-9.5 1.7 3-5.5 9.5zm4.3-13.5 1.7-3 1.7 3-1.7 3-1.7-3zm-1.7-3-1.7-3 1.7-3 1.7 3-1.7 3zm.9-7.5 1.7-3 1.7 3-1.7 3-1.7-3zm-2.4-4-1.7-3 1.7-3 1.7 3-1.7 3zm-4-7-8.7-15 1.7-3 8.7 15-1.7 3zm-12.1-21-1.7-3 1.7-3 1.7 3-1.7 3zm-.9 1.5-1.7 3-1.7-3 1.7-3 1.7 3zm-2.3 4-5.5 9.5-1.7-3 5.5-9.5 1.7 3zm-7.8 5.5-8.1-14 5.5-9.5 8.1 14-5.5 9.5zm-.6 1-1.7 3-8.1-14 1.7-3 8.1 14zm-12.1-15-1.7-3 1.7-3 1.7 3-1.7 3zm-.9 1.5-1.7 3-1.7-3 1.7-3 1.7 3zm-5.7-4-1.7-3 1.7-3 1.7 3-1.7 3zm-1.2 2-1.7 3-1.7-3 1.7-3 1.7 3zm-5.2-3-1.7-3 1.7-3 1.7 3-1.7 3zm-1.7 3-1.7 3-1.7-3 1.7-3 1.7 3zm-4.6-2-1.7-3 1.7-3 1.7 3-1.7 3zm-2.3 4-1.7 3-1.7-3 1.7-3 1.7 3zm-4.4-1.5-1.7-3 1.7-3 1.7 3-1.7 3zm-2.3 4-8.1 14-1.7-3 8.1-14 1.7 3zm-10.4 10-5.5-9.5 8.1-14 5.5 9.5-8.1 14zm-.5 1-1.7 3-5.5-9.5 1.7-3L293 68zm-7.8-7.5-1.7-3 1.7-3 1.7 3-1.7 3zm-2.6-4.5-1.7-3 1.7-3 1.7 3-1.7 3zm-1.2 2-1.7 3-1.7-3 1.7-3 1.7 3zm-4.6-2-1.7-3 1.7-3 1.7 3-1.7 3zm-.6 1-8.7 15-1.7-3 8.7-15 1.7 3zm-11 19-1.7 3-1.7-3 1.7-3 1.7 3zm-5.2-3-1.7-3 1.7-3 1.7 3-1.7 3zm-2.3 4-1.7 3-1.7-3 1.7-3 1.7 3zm-5.7-4-1.7-3 1.7-3 1.7 3-1.7 3zm-1.8 3-1.7 3-1.7-3 1.7-3 1.7 3zm-5.7-4-8.7-15 1.7-3 8.7 15-1.7 3zm-9.3-16-1.7-3 1.7-3 1.7 3-1.7 3zm-1.1 2-1.7 3-1.7-3 1.7-3 1.7 3zm-4.7-2-1.7-3 1.7-3 1.7 3-1.7 3zm-.8 1.5-1.7 3-1.7-3 1.7-3 1.7 3zm-2.3 4-5.5 9.5-1.7-3 5.5-9.5 1.7 3zm-7.8 5.5-8.1-14 5.5-9.5 8.1 14-5.5 9.5zm-.6 1-1.7 3-8.1-14 1.7-3 8.1 14zm-12.1-15-1.7-3 1.7-3 1.7 3-1.7 3zm-.9 1.5-1.7 3-1.7-3 1.7-3 1.7 3zm-5.8-4-1.7-3 1.7-3 1.7 3-1.7 3zm-1.1 2-1.7 3-1.7-3 1.7-3 1.7 3zm-5.2-3-1.7-3 1.7-3 1.7 3-1.7 3zm-1.8 3-1.7 3-1.7-3 1.7-3 1.7 3zm-4.6-2-1.7-3 1.7-3 1.7 3-1.7 3zm-2.3 4-1.7 3-1.7-3 1.7-3 1.7 3zm-4.3-1.5-1.7-3 1.7-3 1.7 3-1.7 3zm-2.3 4-8.1 14-1.7-3 8.1-14 1.7 3zm-10.4 10-5.5-9.5 8.1-14 5.5 9.5-8.1 14zm-.6 1-1.7 3-5.5-9.5 1.7-3 5.5 9.5zm-7.8-7.5-1.7-3 1.7-3 1.7 3-1.7 3zm-2.6-4.5-1.7-3 1.7-3 1.7 3-1.7 3zm-1.1 2-1.7 3-1.7-3 1.7-3 1.7 3zm-4.7-2-1.7-3 1.7-3 1.7 3-1.7 3zm-.5 1-8.7 15-1.7-3 8.7-15 1.7 3zm-11 19-1.7 3-1.7-3 1.7-3 1.7 3zm-4 7-1.7 3-1.7-3 1.7-3 1.7 3zm-3.5 6-1.7 3-1.7-3 1.7-3 1.7 3zm1.1 2 1.7 3-1.7 3-1.7-3 1.7-3zm-1.1 8-1.7 3-1.7-3 1.7-3 1.7 3zm.9 1.5 1.7 3-1.7 3-1.7-3 1.7-3zm-.9 7.5-1.7 3-1.7-3 1.7-3 1.7 3zm-2.3 4-5.5 9.5-1.7-3 5.5-9.5 1.7 3zm.6 1 5.5 9.5-5.5 9.5-5.5-9.5 5.5-9.5zm-.6 20-1.7 3-5.5-9.5 1.7-3 5.5 9.5zm.6 1 1.7 3-1.7 3-1.7-3 1.7-3zm2.6 4.5 1.7 3-1.7 3-1.7-3 1.7-3zm-.9 7.5-1.7 3-1.7-3 1.7-3 1.7 3zm1.1 2 1.7 3-1.7 3-1.7-3 1.7-3zm-1.1 8-1.7 3-1.7-3 1.7-3 1.7 3zm1.7 3 1.7 3-1.7 3-1.7-3 1.7-3zm4.1 7 1.7 3-1.7 3-1.7-3 1.7-3zm4 7 8.1 14-1.7 3-8.1-14 1.7-3zm4.6 20-1.7 3-8.1-14 1.7-3 8.1 14zm-4 7-1.7 3-8.1-14 1.7-3 8.1 14zm.6 1 1.7 3-1.7 3-1.7-3 1.7-3zm-2.3 10-8.1 14-1.7-3 8.1-14 1.7 3zm1.1 2 1.7 3-8.1 14-1.7-3 8.1-14zm2.3 4 8.7 15-8.1 14-8.7-15 8.1-14zm0 30-1.7 3-8.7-15 1.7-3 8.7 15zm-2.9 5-1.7 3-8.7-15 1.7-3 8.7 15zm2.3 4 1.7 3-1.7 3-1.7-3 1.7-3zm4.1 7 1.7 3-1.7 3-1.7-3 1.7-3zm-.6 7-8.7 15-1.7-3 8.7-15 1.7 3zm1.7 3 1.7 3-8.7 15-1.7-3 8.7-15zm-9.2 22-1.7 3-1.7-3 1.7-3 1.7 3zm-4 7-1.7 3-1.7-3 1.7-3 1.7 3zm-3.5 6-1.7 3-1.7-3 1.7-3 1.7 3zm1.1 2 1.7 3-1.7 3-1.7-3 1.7-3zm-1.1 8-1.7 3-1.7-3 1.7-3 1.7 3zm.9 1.5 1.7 3-1.7 3-1.7-3 1.7-3zm-.9 7.5-1.7 3-1.7-3 1.7-3 1.7 3zm-2.3 4-5.5 9.5-1.7-3 5.5-9.5 1.7 3zm.6 1 5.5 9.5-5.5 9.5-5.5-9.5 5.5-9.5zm-.6 20-1.7 3-5.5-9.5 1.7-3 5.5 9.5zm.6 1 1.7 3-1.7 3-1.7-3 1.7-3zm2.6 4.5 1.7 3-1.7 3-1.7-3 1.7-3zm-.9 7.5-1.7 3-1.7-3 1.7-3 1.7 3zm1.1 2 1.7 3-1.7 3-1.7-3 1.7-3zm-1.1 8-1.7 3-1.7-3 1.7-3 1.7 3zm1.7 3 1.7 3-1.7 3-1.7-3 1.7-3zm4.1 7 1.7 3-1.7 3-1.7-3 1.7-3zm4 7 8.1 14-1.7 3-8.1-14 1.7-3zm4.6 20-1.7 3-8.1-14 1.7-3 8.1 14zm-4 7-1.7 3-8.1-14 1.7-3 8.1 14zm.6 1 1.7 3-1.7 3-1.7-3 1.7-3zm-2.3 10-8.1 14-1.7-3 8.1-14 1.7 3zm1.1 2 1.7 3-8.1 14-1.7-3 8.1-14zm2.3 4 8.7 15-8.1 14-8.7-15 8.1-14zm11 19 1.7 3-8.1 14-1.7-3 8.1-14zm2.3-4 1.7-3 1.7 3-1.7 3-1.7-3zm5.8 4 1.7 3-1.7 3-1.7-3 1.7-3zm2.3-4 1.7-3 1.7 3-1.7 3-1.7-3zm5.2 3 1.7 3-1.7 3-1.7-3 1.7-3zm1.7-3 1.7-3 1.7 3-1.7 3-1.7-3zm4.6 2 1.7 3-1.7 3-1.7-3 1.7-3zm2.6 4.5 1.7 3-1.7 3-1.7-3 1.7-3zm2.3 4 5.5 9.5-1.7 3-5.5-9.5 1.7-3zm1.2-2 1.7-3 5.5 9.5-1.7 3-5.5-9.5zm7.8 7.5 1.7 3-1.7 3-1.7-3 1.7-3zm.8-1.5 1.7-3 1.7 3-1.7 3-1.7-3zm4.4 1.5 1.7 3-1.7 3-1.7-3 1.7-3zm.6-1 5.5-9.5 1.7 3-5.5 9.5-1.7-3zm8.3-4.5 1.7 3-5.5 9.5-1.7-3 5.5-9.5zm.6-1 1.7-3 1.7 3-1.7 3-1.7-3zm2.6-4.5 1.7-3 1.7 3-1.7 3-1.7-3zm2.9-5 1.7-3 1.7 3-1.7 3-1.7-3zm5.2 3 1.7 3-1.7 3-1.7-3 1.7-3zm1.7-3 1.7-3 1.7 3-1.7 3-1.7-3zm5.8 4 1.7 3-1.7 3-1.7-3 1.7-3zm2.3-4 1.7-3 1.7 3-1.7 3-1.7-3zm5.8 4 8.1 14-1.7 3-8.1-14 1.7-3zm2.3-4 8.7-15 8.1 14-8.7 15-8.1-14zm9.2-16 1.7-3 8.1 14-1.7 3-8.1-14zm2.9-5 1.7-3 8.1 14-1.7 3-8.1-14zm10.4 12 1.7 3-1.7 3-1.7-3 1.7-3zm.6-1 8.1-14 1.7 3-8.1 14-1.7-3zm10.9-9 1.7 3-8.1 14-1.7-3 8.1-14zm2.4 4 8.7 15-8.1 14-8.7-15 8.1-14zm10.9 19 1.7 3-8.1 14-1.7-3 8.1-14zm2.3-4 1.7-3 1.7 3-1.7 3-1.7-3zm5.8 4 1.7 3-1.7 3-1.7-3 1.7-3zm2.3-4 1.7-3 1.7 3-1.7 3-1.7-3zm5.2 3 1.7 3-1.7 3-1.7-3 1.7-3zm1.7-3 1.7-3 1.7 3-1.7 3-1.7-3zm4.7 2 1.7 3-1.7 3-1.7-3 1.7-3zm2.6 4.5 1.7 3-1.7 3-1.7-3 1.7-3zm2.3 4 5.5 9.5-1.7 3-5.5-9.5 1.7-3zm1.1-2 1.7-3 5.5 9.5-1.7 3-5.5-9.5zm7.8 7.5 1.7 3-1.7 3-1.7-3 1.7-3zm.9-1.5 1.7-3 1.7 3-1.7 3-1.7-3zm4.3 1.5 1.7 3-1.7 3-1.7-3 1.7-3zm.6-1 5.5-9.5 1.7 3-5.5 9.5-1.7-3zm8.4-4.5 1.7 3-5.5 9.5-1.7-3 5.5-9.5zm.5-1 1.7-3 1.7 3-1.7 3-1.7-3zm2.6-4.5 1.7-3 1.7 3-1.7 3-1.7-3zm2.9-5 1.7-3 1.7 3-1.7 3-1.7-3zm5.2 3 1.7 3-1.7 3-1.7-3 1.7-3zm1.8-3 1.7-3 1.7 3-1.7 3-1.7-3zm5.7 4 1.7 3-1.7 3-1.7-3 1.7-3zm2.3-4 1.7-3 1.7 3-1.7 3-1.7-3zm5.8 4 8.1 14-1.7 3-8.1-14 1.7-3zm2.3-4 8.7-15 8.1 14-8.7 15-8.1-14zm9.3-16 1.7-3 8.1 14-1.7 3-8.1-14zm2.8-5 1.7-3 8.1 14-1.7 3-8.1-14zm-2.3-4-1.7-3 1.7-3 1.7 3-1.7 3zm.6-7 8.1-14 1.7 3-8.1 14-1.7-3zm-2.3-4-1.7-3 8.1-14 1.7 3-8.1 14zm-3.5-6-1.7-3 8.1-14 1.7 3-8.1 14zm8.7-21 1.7-3 1.7 3-1.7 3-1.7-3zm4-7 1.7-3 1.7 3-1.7 3-1.7-3zm3.5-6 1.7-3 1.7 3-1.7 3-1.7-3zm-1.1-2-1.7-3 1.7-3 1.7 3-1.7 3zm1.1-8 1.7-3 1.7 3-1.7 3-1.7-3zm-.9-1.5-1.7-3 1.7-3 1.7 3-1.7 3zm.9-7.5 1.7-3 1.7 3-1.7 3-1.7-3zm2.3-4 5.5-9.5 1.7 3-5.5 9.5-1.7-3zm-.6-1-5.5-9.5 5.5-9.5 5.5 9.5-5.5 9.5zm.6-20 1.7-3 5.5 9.5-1.7 3-5.5-9.5zm-.6-1-1.7-3 1.7-3 1.7 3-1.7 3zm-2.6-4.5-1.7-3 1.7-3 1.7 3-1.7 3zm.9-7.5 1.7-3 1.7 3-1.7 3-1.7-3zm-1.1-2-1.7-3 1.7-3 1.7 3-1.7 3zm1.1-8 1.7-3 1.7 3-1.7 3-1.7-3zm-1.7-3-1.7-3 1.7-3 1.7 3-1.7 3zm-4.1-7-1.7-3 1.7-3 1.7 3-1.7 3zm-4-7-8.7-15 1.7-3 8.7 15-1.7 3zm-5.2-21 1.7-3 8.7 15-1.7 3-8.7-15zm-.6-1-1.7-3 1.7-3 1.7 3-1.7 3zm2.3-10 1.7-3 1.7 3-1.7 3-1.7-3zm4.1-7 8.7-15 1.7 3-8.7 15-1.7-3zm-1.2-2-1.7-3 8.7-15 1.7 3-8.7 15zm-2.3-4-8.1-14 8.7-15 8.1 14-8.7 15zm1.2-30 1.7-3 8.1 14-1.7 3-8.1-14zm2.8-5 1.7-3 8.1 14-1.7 3-8.1-14zm-2.3-4-1.7-3 1.7-3 1.7 3-1.7 3zm.6-7 8.1-14 1.7 3-8.1 14-1.7-3zm-2.3-4-1.7-3 8.1-14 1.7 3-8.1 14zm-3.5-6-1.7-3 8.1-14 1.7 3-8.1 14zm8.7-21 1.7-3 1.7 3-1.7 3-1.7-3zm4-7 1.7-3 1.7 3-1.7 3-1.7-3zm3.5-6 1.7-3 1.7 3-1.7 3-1.7-3zm-1.1-2-1.7-3 1.7-3 1.7 3-1.7 3zm1.1-8 1.7-3 1.7 3-1.7 3-1.7-3zm-.9-1.5-1.7-3 1.7-3 1.7 3-1.7 3zm.9-7.5 1.7-3 1.7 3-1.7 3-1.7-3zm2.3-4 5.5-9.5 1.7 3-5.5 9.5-1.7-3zm-.6-1-5.5-9.5 5.5-9.5 5.5 9.5-5.5 9.5zm.6-20 1.7-3 5.5 9.5-1.7 3-5.5-9.5zm-.6-1-1.7-3 1.7-3 1.7 3-1.7 3zm-2.6-4.5-1.7-3 1.7-3 1.7 3-1.7 3zm.9-7.5 1.7-3 1.7 3-1.7 3-1.7-3zm-1.1-2-1.7-3 1.7-3 1.7 3-1.7 3zm1.1-8 1.7-3 1.7 3-1.7 3-1.7-3zm-1.7-3-1.7-3 1.7-3 1.7 3-1.7 3zm-4.1-7-1.7-3 1.7-3 1.7 3-1.7 3zm-4-7-8.7-15 1.7-3 8.7 15-1.7 3zm-5.2-21 1.7-3 8.7 15-1.7 3-8.7-15zm-.6-1-1.7-3 1.7-3 1.7 3-1.7 3zm-2.9-5-1.7-3 1.7-3 1.7 3-1.7 3zm-1.7 3-1.7 3-1.7-3 1.7-3 1.7 3zm-4-1-8.1-14 1.7-3 8.1 14-1.7 3zm-1.2 2-1.7 3-8.1-14 1.7-3 8.1 14zm-2.6 4.5-1.7 3-8.1-14 1.7-3 8.1 14zm-12.1-15-1.7-3 1.7-3 1.7 3-1.7 3zm-.6 1-5.5 9.5-1.7-3 5.5-9.5 1.7 3zm-9.5 2.5-1.7-3 5.5-9.5 1.7 3-5.5 9.5zm-.6 1-1.7 3-1.7-3 1.7-3 1.7 3zm-5.2-3-1.7-3 1.7-3 1.7 3-1.7 3zm-.9 1.5-1.7 3-1.7-3 1.7-3 1.7 3zm-4.6-2-1.7-3 1.7-3 1.7 3-1.7 3zm-1.1 2-1.7 3-1.7-3 1.7-3 1.7 3zm-4.4-1.5-1.7-3 1.7-3 1.7 3-1.7 3zm-1.7 3-1.7 3-1.7-3 1.7-3 1.7 3zm-4-1-5.5-9.5 1.7-3 5.5 9.5-1.7 3zm-2.3 4-1.7 3-5.5-9.5 1.7-3 5.5 9.5zm-7.8-7.5-1.7-3 1.7-3 1.7 3-1.7 3zm-2.4 4-8.1 14-1.7-3 8.1-14 1.7 3zM284.9 52l-1.7-3 8.1-14 1.7 3-8.1 14zm-2.9-5-1.7-3 8.1-14 1.7 3-8.1 14zm-.6 1-1.7 3-1.7-3 1.7-3 1.7 3zm-5.2-3-1.7-3 1.7-3 1.7 3-1.7 3zm-1.1 2-1.7 3-1.7-3 1.7-3 1.7 3zm-2.4 4L264 66l-1.7-3 8.7-15 1.7 3zM260 59l-1.7-3 8.7-15 1.7 3-8.7 15zm-2.3 4-1.7 3-1.7-3 1.7-3 1.7 3zm-5.7-4-8.7-15 1.7-3 8.7 15-1.7 3zm-2.4 4-1.7 3-8.7-15 1.7-3 8.7 15zm-10.9-13-1.7-3 1.7-3 1.7 3-1.7 3zm-2.9-5-1.7-3 1.7-3 1.7 3-1.7 3zm-1.7 3-1.7 3-1.7-3 1.7-3 1.7 3zm-4.1-1-8.1-14 1.7-3 8.1 14-1.7 3zm-1.1 2-1.7 3-8.2-14 1.7-3 8.2 14zm-2.6 4.5-1.7 3-8.1-14 1.7-3 8.1 14zm-12.2-15-1.7-3 1.7-3 1.7 3-1.7 3zm-.5 1-5.5 9.5-1.7-3 5.5-9.5 1.7 3zM204 42l-1.7-3 5.5-9.5 1.7 3L204 42zm-.5 1-1.7 3-1.7-3 1.7-3 1.7 3zm-5.2-3-1.7-3 1.7-3 1.7 3-1.7 3zm-.9 1.5-1.7 3-1.7-3 1.7-3 1.7 3zm-4.6-2-1.7-3 1.7-3 1.7 3-1.7 3zm-1.2 2-1.7 3-1.7-3 1.7-3 1.7 3zm-4.3-1.5-1.7-3 1.7-3 1.7 3-1.7 3zm-1.7 3-1.7 3-1.7-3 1.7-3 1.7 3zm-4.1-1-5.5-9.5 1.7-3 5.5 9.5-1.7 3zm-2.3 4-1.7 3-5.5-9.5 1.7-3 5.5 9.5zm-7.8-7.5-1.7-3 1.7-3 1.7 3-1.7 3zm-2.3 4-8.1 14-1.7-3 8.1-14 1.7 3zM158.4 52l-1.7-3 8.1-14 1.7 3-8.1 14zm-2.9-5-1.7-3 8.1-14 1.7 3-8.1 14zm-.5 1-1.7 3-1.7-3 1.7-3 1.7 3zm-5.2-3-1.7-3 1.7-3 1.7 3-1.7 3zm-1.2 2-1.7 3-1.7-3 1.7-3 1.7 3zm-2.3 4-8.7 15-1.7-3 8.7-15 1.7 3zm-12.7 8-1.7-3 8.7-15 1.7 3-8.7 15zm-2.3 4-1.7 3-1.7-3 1.7-3 1.7 3zm2.3 4 1.7 3-1.7 3-1.7-3 1.7-3zm-2.3 10-1.7 3-1.7-3 1.7-3 1.7 3zm-3.5 6-1.7 3-1.7-3 1.7-3 1.7 3zm-2.9 5-1.7 3-1.7-3 1.7-3 1.7 3zm1.8 3 1.7 3-1.7 3-1.7-3 1.7-3zm-.9 7.5-1.7 3-1.7-3 1.7-3 1.7 3zm1.2 2 1.7 3-1.7 3-1.7-3 1.7-3zm-.6 7-5.5 9.5-1.7-3 5.5-9.5 1.7 3zm-6.1 10.5-1.7 3-1.7-3 1.7-3 1.7 3zm.9 1.5 1.7 3-1.7 3-1.7-3 1.7-3zm-.9 7.5-1.7 3-1.7-3 1.7-3 1.7 3zm.6 1 5.5 9.5-1.7 3-5.5-9.5 1.7-3zm6.1 10.5 1.7 3-1.7 3-1.7-3 1.7-3zm-1.2 8-1.7 3-1.7-3 1.7-3 1.7 3zm.9 1.5 1.7 3-1.7 3-1.7-3 1.7-3zm-1.8 9-1.7 3-1.7-3 1.7-3 1.7 3zm1.2 2 1.7 3-1.7 3-1.7-3 1.7-3zm3.5 6 1.7 3-1.7 3-1.7-3 1.7-3zm4 7 1.7 3-1.7 3-1.7-3 1.7-3zm-2.3 10-1.7 3-1.7-3 1.7-3 1.7 3zm-4 7-8.1 14-1.7-3 8.1-14 1.7 3zm2.3 4 8.1 14-8.1 14-8.1-14 8.1-14zm-.6 29-1.7 3-8.1-14 1.7-3 8.1 14zm.6 1 1.7 3-1.7 3-1.7-3 1.7-3zm2.8 5 1.7 3-1.7 3-1.7-3 1.7-3zm-1.1 8-1.7 3-1.7-3 1.7-3 1.7 3zm-2.3 4-8.7 15-1.7-3 8.7-15 1.7 3zm.6 1 8.7 15-8.7 15-8.7-15 8.7-15zm10.9 19 1.7 3-8.7 15-1.7-3 8.7-15zm-9.2 22-1.7 3-1.7-3 1.7-3 1.7 3zm2.3 4 1.7 3-1.7 3-1.7-3 1.7-3zm-2.3 10-1.7 3-1.7-3 1.7-3 1.7 3zm-3.5 6-1.7 3-1.7-3 1.7-3 1.7 3zm-2.9 5-1.7 3-1.7-3 1.7-3 1.7 3zm1.8 3 1.7 3-1.7 3-1.7-3 1.7-3zm-.9 7.5-1.7 3-1.7-3 1.7-3 1.7 3zm1.2 2 1.7 3-1.7 3-1.7-3 1.7-3zm-.6 7-5.5 9.5-1.7-3 5.5-9.5 1.7 3zm-6.1 10.5-1.7 3-1.7-3 1.7-3 1.7 3zm.9 1.5 1.7 3-1.7 3-1.7-3 1.7-3zm-.9 7.5-1.7 3-1.7-3 1.7-3 1.7 3zm.6 1 5.5 9.5-1.7 3-5.5-9.5 1.7-3zm6.1 10.5 1.7 3-1.7 3-1.7-3 1.7-3zm-1.2 8-1.7 3-1.7-3 1.7-3 1.7 3zm.9 1.5 1.7 3-1.7 3-1.7-3 1.7-3zm-1.8 9-1.7 3-1.7-3 1.7-3 1.7 3zm1.2 2 1.7 3-1.7 3-1.7-3 1.7-3zm3.5 6 1.7 3-1.7 3-1.7-3 1.7-3zm4 7 1.7 3-1.7 3-1.7-3 1.7-3zm-2.3 10-1.7 3-1.7-3 1.7-3 1.7 3zm-4 7-8.1 14-1.7-3 8.1-14 1.7 3zm2.3 4 8.1 14-8.1 14-8.1-14 8.1-14zm-.6 29-1.7 3-8.1-14 1.7-3 8.1 14zm.6 1 1.7 3-1.7 3-1.7-3 1.7-3zm5.2 9 8.7 15-1.7 3-8.7-15 1.7-3zm10.9 19 1.7 3-1.7 3-1.7-3 1.7-3zm4.1 7 1.7 3-1.7 3-1.7-3 1.7-3zm.5-1 8.1-14 1.7 3-8.1 14-1.7-3zm11.6-8 1.7 3-8.1 14-1.7-3 8.1-14zm2.3-4 1.7-3 1.7 3-1.7 3-1.7-3zm4.6 2 1.7 3-1.7 3-1.7-3 1.7-3zm2.3-4 1.7-3 1.7 3-1.7 3-1.7-3zm4.4 1.5 1.7 3-1.7 3-1.7-3 1.7-3zm2.3 4 5.5 9.5-1.7 3-5.5-9.5 1.7-3zm6 10.5 1.7 3-1.7 3-1.7-3 1.7-3zm1.8-3 1.7-3 1.7 3-1.7 3-1.7-3zm4.3 1.5 1.7 3-1.7 3-1.7-3 1.7-3zm1.1-2 1.7-3 1.7 3-1.7 3-1.7-3zm4.7 2 1.7 3-1.7 3-1.7-3 1.7-3zm.8-1.5 1.7-3 1.7 3-1.7 3-1.7-3zm5.2 3 1.7 3-1.7 3-1.7-3 1.7-3zm.6-1 5.5-9.5 1.7 3-5.5 9.5-1.7-3zm6.1-10.5 1.7-3 1.7 3-1.7 3-1.7-3zm2.6-4.5 1.7-3 1.7 3-1.7 3-1.7-3zm5.7 4 1.7 3-1.7 3-1.7-3 1.7-3zm1.2-2 1.7-3 1.7 3-1.7 3-1.7-3zm5.8 4 8.1 14-1.7 3-8.1-14 1.7-3zm1.7-3 1.7-3 8.1 14-1.7 3-8.1-14zm10.4 12 1.7 3-1.7 3-1.7-3 1.7-3zm2.3-4 1.7-3 1.7 3-1.7 3-1.7-3zm4-7 8.7-15 1.7 3-8.7 15-1.7-3zm9.3-16 1.7-3 1.7 3-1.7 3-1.7-3zm4.6 2 1.7 3-1.7 3-1.7-3 1.7-3zm1.2-2 1.7-3 1.7 3-1.7 3-1.7-3zm4 1 8.7 15-1.7 3-8.7-15 1.7-3zm11 19 1.7 3-1.7 3-1.7-3 1.7-3zm4 7 1.7 3-1.7 3-1.7-3 1.7-3zm.6-1 8.1-14 1.7 3-8.1 14-1.7-3zm11.5-8 1.7 3-8.1 14-1.7-3 8.1-14zm2.3-4 1.7-3 1.7 3-1.7 3-1.7-3zm4.7 2 1.7 3-1.7 3-1.7-3 1.7-3zm2.3-4 1.7-3 1.7 3-1.7 3-1.7-3zm4.3 1.5 1.7 3-1.7 3-1.7-3 1.7-3zm2.3 4 5.5 9.5-1.7 3-5.5-9.5 1.7-3zm6.1 10.5 1.7 3-1.7 3-1.7-3 1.7-3zm1.7-3 1.7-3 1.7 3-1.7 3-1.7-3zm4.3 1.5 1.7 3-1.7 3-1.7-3 1.7-3zm1.2-2 1.7-3 1.7 3-1.7 3-1.7-3zm4.6 2 1.7 3-1.7 3-1.7-3 1.7-3zm.9-1.5 1.7-3 1.7 3-1.7 3-1.7-3zm5.2 3 1.7 3-1.7 3-1.7-3 1.7-3zm.5-1 5.5-9.5 1.7 3-5.5 9.5-1.7-3zm6.1-10.5 1.7-3 1.7 3-1.7 3-1.7-3zm2.6-4.5 1.7-3 1.7 3-1.7 3-1.7-3zm5.8 4 1.7 3-1.7 3-1.7-3 1.7-3zm1.1-2 1.7-3 1.7 3-1.7 3-1.7-3zm5.8 4 8.1 14-1.7 3-8.1-14 1.7-3zm1.7-3 1.7-3 8.1 14-1.7 3-8.1-14zm10.4 12 1.7 3-1.7 3-1.7-3 1.7-3zm2.3-4 1.7-3 1.7 3-1.7 3-1.7-3zm4.1-7 8.7-15 1.7 3-8.7 15-1.7-3zm12.1-21 1.7-3 1.7 3-1.7 3-1.7-3zm2.3-4 8.1-14 1.7 3-8.1 14-1.7-3zm-.6-1-8.1-14 8.1-14 8.1 14-8.1 14zm2.3-32 1.7-3 8.1 14-1.7 3-8.1-14zm-2.3-4-1.7-3 1.7-3 1.7 3-1.7 3zm-4-7-1.7-3 1.7-3 1.7 3-1.7 3zm2.3-10 1.7-3 1.7 3-1.7 3-1.7-3zm3.5-6 1.7-3 1.7 3-1.7 3-1.7-3zm2.9-5 1.7-3 1.7 3-1.7 3-1.7-3zm-1.8-3-1.7-3 1.7-3 1.7 3-1.7 3zm.9-7.5 1.7-3 1.7 3-1.7 3-1.7-3zm-1.2-2-1.7-3 1.7-3 1.7 3-1.7 3zm.6-7 5.5-9.5 1.7 3-5.5 9.5-1.7-3zm6.1-10.5 1.7-3 1.7 3-1.7 3-1.7-3zm-.9-1.5-1.7-3 1.7-3 1.7 3-1.7 3zm.9-7.5 1.7-3 1.7 3-1.7 3-1.7-3zm-.6-1-5.5-9.5 1.7-3 5.5 9.5-1.7 3zm-6.1-10.5-1.7-3 1.7-3 1.7 3-1.7 3zm1.2-8 1.7-3 1.7 3-1.7 3-1.7-3zm-.9-1.5-1.7-3 1.7-3 1.7 3-1.7 3zm1.8-9 1.7-3 1.7 3-1.7 3-1.7-3zm-1.2-2-1.7-3 1.7-3 1.7 3-1.7 3zm-3.5-6-1.7-3 1.7-3 1.7 3-1.7 3zm-4-7-1.7-3 1.7-3 1.7 3-1.7 3zm2.3-10 1.7-3 1.7 3-1.7 3-1.7-3zm-2.3-4-8.7-15 1.7-3 8.7 15-1.7 3zm-4.6-22 8.7-15 8.7 15-8.7 15-8.7-15zm9.2-16 1.7-3 8.7 15-1.7 3-8.7-15zm-.6-1-1.7-3 1.7-3 1.7 3-1.7 3zm-2.8-5-1.7-3 1.7-3 1.7 3-1.7 3zm1.1-8 1.7-3 1.7 3-1.7 3-1.7-3zm2.3-4 8.1-14 1.7 3-8.1 14-1.7-3zm-.6-1-8.1-14 8.1-14 8.1 14-8.1 14zm2.3-32 1.7-3 8.1 14-1.7 3-8.1-14zm-2.3-4-1.7-3 1.7-3 1.7 3-1.7 3zm-4-7-1.7-3 1.7-3 1.7 3-1.7 3zm2.3-10 1.7-3 1.7 3-1.7 3-1.7-3zm3.5-6 1.7-3 1.7 3-1.7 3-1.7-3zm2.9-5 1.7-3 1.7 3-1.7 3-1.7-3zm-1.8-3-1.7-3 1.7-3 1.7 3-1.7 3zm.9-7.5 1.7-3 1.7 3-1.7 3-1.7-3zm-1.2-2-1.7-3 1.7-3 1.7 3-1.7 3zm.6-7 5.5-9.5 1.7 3-5.5 9.5-1.7-3zm6.1-10.5 1.7-3 1.7 3-1.7 3-1.7-3zm-.9-1.5-1.7-3 1.7-3 1.7 3-1.7 3zm.9-7.5 1.7-3 1.7 3-1.7 3-1.7-3zm-.6-1-5.5-9.5 1.7-3 5.5 9.5-1.7 3zm-6.1-10.5-1.7-3 1.7-3 1.7 3-1.7 3zm1.2-8 1.7-3 1.7 3-1.7 3-1.7-3zm-.9-1.5-1.7-3 1.7-3 1.7 3-1.7 3zm1.8-9 1.7-3 1.7 3-1.7 3-1.7-3zm-1.2-2-1.7-3 1.7-3 1.7 3-1.7 3zm-3.5-6-1.7-3 1.7-3 1.7 3-1.7 3zm-4-7-1.7-3 1.7-3 1.7 3-1.7 3zm2.3-10 1.7-3 1.7 3-1.7 3-1.7-3zm-2.3-4-8.7-15 1.7-3 8.7 15-1.7 3zm-5.2-23-1.7-3 8.7-15 1.7 3-8.7 15zm-2.3 4-1.7 3-1.7-3 1.7-3 1.7 3zm-4.6-2-1.7-3 1.7-3 1.7 3-1.7 3zm-2.3-4-8.1-14 1.7-3 8.1 14-1.7 3zm-2.3 4-1.7 3-8.1-14 1.7-3 8.1 14zm-12.2-15-1.7-3 1.7-3 1.7 3-1.7 3zm-1.7 3-1.7 3-1.7-3 1.7-3 1.7 3zm-2.9 5-1.7 3-1.7-3 1.7-3 1.7 3zm-5.8-4-1.7-3 1.7-3 1.7 3-1.7 3zm-.8 1.5-1.7 3-1.7-3 1.7-3 1.7 3zm-5.2-3-1.7-3 1.7-3 1.7 3-1.7 3zm-.6 1L327 36l-1.7-3 5.5-9.5 1.7 3zm-8.4 4.5-1.7-3 5.5-9.5 1.7 3-5.5 9.5zm-.6 1-1.7 3-1.7-3 1.7-3 1.7 3zm-4.3-1.5-1.7-3 1.7-3 1.7 3-1.7 3zm-.8 1.5-1.7 3-1.7-3 1.7-3 1.7 3zm-4.1-1-5.5-9.5 1.7-3L316 28l-1.7 3zm-1.1 2-1.7 3-5.5-9.5 1.7-3 5.5 9.5zm-7.8-7.5-1.7-3 1.7-3 1.7 3-1.7 3zm-1.8 3-1.7 3-1.7-3 1.7-3 1.7 3zm-4.3-1.5-1.7-3 1.7-3 1.7 3-1.7 3zm-2.3 4-1.7 3-1.7-3 1.7-3 1.7 3zm-4.6-2-1.7-3 1.7-3 1.7 3-1.7 3zm-3.5-6-1.7-3 1.7-3 1.7 3-1.7 3zm-2.3 4-8.1 14-1.7-3 8.1-14 1.7 3zm-12.1 7-1.7-3 8.1-14 1.7 3-8.1 14zm-.6 1-1.7 3-1.7-3 1.7-3 1.7 3zm-2.9 5-1.7 3-1.7-3 1.7-3 1.7 3zm-5.8-4-8.7-15 1.7-3 8.7 15-1.7 3zm-.5 1L256 52l-8.7-15 8.7-15 8.7 15zm-17.9-1-1.7-3 8.7-15 1.7 3-8.7 15zm-2.3 4-1.7 3-1.7-3 1.7-3 1.7 3zm-4.7-2-1.7-3 1.7-3 1.7 3-1.7 3zm-2.3-4-8.1-14 1.7-3 8.1 14-1.7 3zm-2.3 4-1.7 3-8.1-14 1.7-3 8.1 14zm-12.1-15-1.7-3 1.7-3 1.7 3-1.7 3zm-1.7 3-1.7 3-1.7-3 1.7-3 1.7 3zm-2.9 5-1.7 3-1.7-3 1.7-3 1.7 3zm-5.8-4-1.7-3 1.7-3 1.7 3-1.7 3zm-.9 1.5-1.7 3-1.7-3 1.7-3 1.7 3zm-5.2-3-1.7-3 1.7-3 1.7 3-1.7 3zm-.5 1-5.5 9.5-1.7-3 5.5-9.5 1.7 3zm-8.4 4.5-1.7-3 5.5-9.5 1.7 3-5.5 9.5zm-.6 1-1.7 3-1.7-3 1.7-3 1.7 3zm-4.3-1.5-1.7-3 1.7-3 1.7 3-1.7 3zm-.9 1.5-1.7 3-1.7-3 1.7-3 1.7 3zm-4-1-5.5-9.5 1.7-3 5.5 9.5-1.7 3zm-1.2 2-1.7 3-5.5-9.5 1.7-3 5.5 9.5zm-7.8-7.5-1.7-3 1.7-3 1.7 3-1.7 3zm-1.7 3-1.7 3-1.7-3 1.7-3 1.7 3zm-4.3-1.5-1.7-3 1.7-3 1.7 3-1.7 3zm-2.3 4-1.7 3-1.7-3 1.7-3 1.7 3zm-4.7-2-1.7-3 1.7-3 1.7 3-1.7 3zm-3.4-6-1.7-3 1.7-3 1.7 3-1.7 3zm-2.3 4-8.1 14-1.7-3 8.1-14 1.7 3zM148 34l-1.7-3 8.1-14 1.7 3-8.1 14zm-.5 1-1.7 3-1.7-3 1.7-3 1.7 3zm-2.9 5-1.7 3-1.7-3 1.7-3 1.7 3zm-5.8-4-8.7-15 1.7-3 8.7 15-1.7 3zm-.6 1-8.7 15-8.7-15 8.7-15 8.7 15zm-17.9-1-1.7-3 8.7-15 1.7 3-8.7 15zm-1.7 5 8.7 15-1.7 3-8.7-15 1.7-3zm4.6 22-1.7 3-8.7-15 1.7-3 8.7 15zm2.3 4 1.7 3-1.7 3-1.7-3 1.7-3zm-1.7 9-1.7 3-1.7-3 1.7-3 1.7 3zm-2.9 5-1.7 3-1.7-3 1.7-3 1.7 3zm-2.6 4.5-1.7 3-1.7-3 1.7-3 1.7 3zm2.3 4 1.7 3-1.7 3-1.7-3 1.7-3zm-.6 7-5.5 9.5-1.7-3 5.5-9.5 1.7 3zm1.8 3 1.7 3-5.5 9.5-1.7-3 5.5-9.5zm-4.4 13.5-1.7 3-1.7-3 1.7-3 1.7 3zm-2.6 4.5-1.7 3-1.7-3 1.7-3 1.7 3zm1.2 2 1.7 3-1.7 3-1.7-3 1.7-3zm-1.2 8-1.7 3-1.7-3 1.7-3 1.7 3zm.9 1.5 1.7 3-1.7 3-1.7-3 1.7-3zm2.3 4 5.5 9.5-1.7 3-5.5-9.5 1.7-3zm2 15.5-1.7 3-5.5-9.5 1.7-3 5.5 9.5zm.6 1 1.7 3-1.7 3-1.7-3 1.7-3zm-2.3 10-1.7 3-1.7-3 1.7-3 1.7 3zm.9 1.5 1.7 3-1.7 3-1.7-3 1.7-3zm2.9 5 1.7 3-1.7 3-1.7-3 1.7-3zm3.4 6 1.7 3-1.7 3-1.7-3 1.7-3zm-2.3 10-8.1 14-1.7-3 8.1-14 1.7 3zm-8.7 15-1.7 3-1.7-3 1.7-3 1.7 3zm2.4 4 1.7 3-1.7 3-1.7-3 1.7-3zm-1.2 8-1.7 3-1.7-3 1.7-3 1.7 3zm2.3 4 8.1 14-1.7 3-8.1-14 1.7-3zm8.7 15 1.7 3-1.7 3-1.7-3 1.7-3zm-.6 7-8.7 15-1.7-3 8.7-15 1.7 3zm-11 19-1.7 3-1.7-3 1.7-3 1.7 3zm1.2 2 1.7 3-1.7 3-1.7-3 1.7-3zm2.3 4 8.7 15-1.7 3-8.7-15 1.7-3zm4.6 22-1.7 3-8.7-15 1.7-3 8.7 15zm2.3 4 1.7 3-1.7 3-1.7-3 1.7-3zm-1.7 9-1.7 3-1.7-3 1.7-3 1.7 3zm-2.9 5-1.7 3-1.7-3 1.7-3 1.7 3zm-2.6 4.5-1.7 3-1.7-3 1.7-3 1.7 3zm2.3 4 1.7 3-1.7 3-1.7-3 1.7-3zm-.6 7-5.5 9.5-1.7-3 5.5-9.5 1.7 3zm1.8 3 1.7 3-5.5 9.5-1.7-3 5.5-9.5zm-4.4 13.5-1.7 3-1.7-3 1.7-3 1.7 3zm-2.6 4.5-1.7 3-1.7-3 1.7-3 1.7 3zm1.2 2 1.7 3-1.7 3-1.7-3 1.7-3zm-1.2 8-1.7 3-1.7-3 1.7-3 1.7 3zm.9 1.5 1.7 3-1.7 3-1.7-3 1.7-3zm2.3 4 5.5 9.5-1.7 3-5.5-9.5 1.7-3zm2 15.5-1.7 3-5.5-9.5 1.7-3 5.5 9.5zm.6 1 1.7 3-1.7 3-1.7-3 1.7-3zm-2.3 10-1.7 3-1.7-3 1.7-3 1.7 3zm.9 1.5 1.7 3-1.7 3-1.7-3 1.7-3zm2.9 5 1.7 3-1.7 3-1.7-3 1.7-3zm3.4 6 1.7 3-1.7 3-1.7-3 1.7-3zm-2.3 10-8.1 14-1.7-3 8.1-14 1.7 3zm-8.7 15-1.7 3-1.7-3 1.7-3 1.7 3zm2.4 4 1.7 3-1.7 3-1.7-3 1.7-3zm-1.2 8-1.7 3-1.7-3 1.7-3 1.7 3zm2.3 4 8.1 14-1.7 3-8.1-14 1.7-3zm8.7 15 1.7 3-1.7 3-1.7-3 1.7-3zm-.6 7-8.7 15-1.7-3 8.7-15 1.7 3zm-11 19-1.7 3-1.7-3 1.7-3 1.7 3zm1.2 2 1.7 3-1.7 3-1.7-3 1.7-3zm2.3-4 8.7-15 1.7 3-8.7 15-1.7-3zm11-11 8.7 15-8.7 15-8.7-15 8.7-15zm.5-1 1.7-3 8.7 15-1.7 3-8.7-15zm12.7 16 1.7 3-1.7 3-1.7-3 1.7-3zm4.1 7 1.7 3-1.7 3-1.7-3 1.7-3zm3.4 6 1.7 3-1.7 3-1.7-3 1.7-3zm1.2-2 1.7-3 1.7 3-1.7 3-1.7-3zm4.6 2 1.7 3-1.7 3-1.7-3 1.7-3zm.6-1 8.1-14 1.7 3-8.1 14-1.7-3zm10.7-9.5 1.7 3-8.1 14-1.7-3 8.1-14zm2.3-4 1.7-3 1.7 3-1.7 3-1.7-3zm4 1 5.5 9.5-1.7 3-5.5-9.5 1.7-3zm6.1 10.5 1.7 3-1.7 3-1.7-3 1.7-3zm2.6 4.5 1.7 3-1.7 3-1.7-3 1.7-3zm2.3-4 1.7-3 1.7 3-1.7 3-1.7-3zm4.6 2 1.7 3-1.7 3-1.7-3 1.7-3zm1.7-3 1.7-3 1.7 3-1.7 3-1.7-3zm5.2 3 1.7 3-1.7 3-1.7-3 1.7-3zm1.2-2 1.7-3 1.7 3-1.7 3-1.7-3zm5.8 4 1.7 3-1.7 3-1.7-3 1.7-3zm.8-1.5 1.7-3 1.7 3-1.7 3-1.7-3zm2.3-4 5.5-9.5 1.7 3-5.5 9.5-1.7-3zm6.1-10.5 1.7-3 1.7 3-1.7 3-1.7-3zm5.8 4 8.1 14-1.7 3-8.1-14 1.7-3zm.8-1.5 1.7-3 8.1 14-1.7 3-8.1-14zm10.4 12 1.7 3-1.7 3-1.7-3 1.7-3zm1.2-2 1.7-3 1.7 3-1.7 3-1.7-3zm4.6 2 1.7 3-1.7 3-1.7-3 1.7-3zm1.7-3 1.7-3 1.7 3-1.7 3-1.7-3zm4.1-7 1.7-3 1.7 3-1.7 3-1.7-3zm4-7 8.7-15 1.7 3-8.7 15-1.7-3zm11-11 8.7 15-8.7 15-8.7-15 8.7-15zm.6-1 1.7-3 8.7 15-1.7 3-8.7-15zm12.7 16 1.7 3-1.7 3-1.7-3 1.7-3zm4 7 1.7 3-1.7 3-1.7-3 1.7-3zm3.5 6 1.7 3-1.7 3-1.7-3 1.7-3zm1.1-2 1.7-3 1.7 3-1.7 3-1.7-3zm4.7 2 1.7 3-1.7 3-1.7-3 1.7-3zm.5-1 8.1-14 1.7 3-8.1 14-1.7-3zm10.7-9.5 1.7 3-8.1 14-1.7-3 8.1-14zm2.3-4 1.7-3 1.7 3-1.7 3-1.7-3zm4.1 1 5.5 9.5-1.7 3-5.5-9.5 1.7-3zm6 10.5 1.7 3-1.7 3-1.7-3 1.7-3zm2.6 4.5 1.7 3-1.7 3-1.7-3 1.7-3zm2.3-4 1.7-3 1.7 3-1.7 3-1.7-3zm4.7 2 1.7 3-1.7 3-1.7-3 1.7-3zm1.7-3 1.7-3 1.7 3-1.7 3-1.7-3zm5.2 3 1.7 3-1.7 3-1.7-3 1.7-3zm1.1-2 1.7-3 1.7 3-1.7 3-1.7-3zm5.8 4 1.7 3-1.7 3-1.7-3 1.7-3zm.9-1.5 1.7-3 1.7 3-1.7 3-1.7-3zm2.3-4 5.5-9.5 1.7 3-5.5 9.5-1.7-3zm6-10.5 1.7-3 1.7 3-1.7 3-1.7-3zm5.8 4 8.1 14-1.7 3-8.1-14 1.7-3zm.9-1.5 1.7-3 8.1 14-1.7 3-8.1-14zm10.4 12 1.7 3-1.7 3-1.7-3 1.7-3zm1.1-2 1.7-3 1.7 3-1.7 3-1.7-3zm4.7 2 1.7 3-1.7 3-1.7-3 1.7-3zm1.7-3 1.7-3 1.7 3-1.7 3-1.7-3zm4-7 1.7-3 1.7 3-1.7 3-1.7-3zm4.1-7 8.7-15 1.7 3-8.7 15-1.7-3zm10.9-11 8.7 15-8.7 15-8.7-15 8.7-15zm.6-1 1.7-3 8.7 15-1.7 3-8.7-15zm12.7 16 1.7 3-1.7 3-1.7-3 1.7-3zm1.2-2 1.7-3 1.7 3-1.7 3-1.7-3zm-2.3-4-8.7-15 1.7-3 8.7 15-1.7 3zm-9.3-16-1.7-3 1.7-3 1.7 3-1.7 3zm.6-7 8.1-14 1.7 3-8.1 14-1.7-3zm10.4-18 1.7-3 1.7 3-1.7 3-1.7-3zm-1.2-2-1.7-3 1.7-3 1.7 3-1.7 3zm2.4-10 1.7-3 1.7 3-1.7 3-1.7-3zm-.6-1-8.1-14 1.7-3 8.1 14-1.7 3zm-10.4-18-1.7-3 1.7-3 1.7 3-1.7 3zm1.7-9 1.7-3 1.7 3-1.7 3-1.7-3zm2.9-5 1.7-3 1.7 3-1.7 3-1.7-3zm2.6-4.5 1.7-3 1.7 3-1.7 3-1.7-3zm-2.3-4-1.7-3 1.7-3 1.7 3-1.7 3zm.6-7 5.5-9.5 1.7 3-5.5 9.5-1.7-3zm-1.8-3-1.7-3 5.5-9.5 1.7 3-5.5 9.5zm4.4-13.5 1.7-3 1.7 3-1.7 3-1.7-3zm2.6-4.5 1.7-3 1.7 3-1.7 3-1.7-3zm-1.2-2-1.7-3 1.7-3 1.7 3-1.7 3zm1.2-8 1.7-3 1.7 3-1.7 3-1.7-3zm-.9-1.5-1.7-3 1.7-3 1.7 3-1.7 3zm-2.3-4-5.5-9.5 1.7-3 5.5 9.5-1.7 3zm-2-15.5 1.7-3 5.5 9.5-1.7 3-5.5-9.5zm-.6-1-1.7-3 1.7-3 1.7 3-1.7 3zm2.3-10 1.7-3 1.7 3-1.7 3-1.7-3zm-.9-1.5-1.7-3 1.7-3 1.7 3-1.7 3zm-2.9-5-1.7-3 1.7-3 1.7 3-1.7 3zm-3.4-6-1.7-3 1.7-3 1.7 3-1.7 3zm2.3-10 8.7-15 1.7 3-8.7 15-1.7-3zm-2.3-4-1.7-3 8.7-15 1.7 3-8.7 15zm7.5-19 1.7-3 1.7 3-1.7 3-1.7-3zm2.9-5 1.7-3 1.7 3-1.7 3-1.7-3zm-2.3-4-8.7-15 1.7-3 8.7 15-1.7 3zm-9.3-16-1.7-3 1.7-3 1.7 3-1.7 3zm.6-7 8.1-14 1.7 3-8.1 14-1.7-3zm10.4-18 1.7-3 1.7 3-1.7 3-1.7-3zm-1.2-2-1.7-3 1.7-3 1.7 3-1.7 3zm2.4-10 1.7-3 1.7 3-1.7 3-1.7-3zm-.6-1-8.1-14 1.7-3 8.1 14-1.7 3zm-10.4-18-1.7-3 1.7-3 1.7 3-1.7 3zm1.7-9 1.7-3 1.7 3-1.7 3-1.7-3zm2.9-5 1.7-3 1.7 3-1.7 3-1.7-3zm2.6-4.5 1.7-3 1.7 3-1.7 3-1.7-3zm-2.3-4-1.7-3 1.7-3 1.7 3-1.7 3zm.6-7 5.5-9.5 1.7 3-5.5 9.5-1.7-3zm-1.8-3-1.7-3 5.5-9.5 1.7 3-5.5 9.5zm4.4-13.5 1.7-3 1.7 3-1.7 3-1.7-3zm2.6-4.5 1.7-3 1.7 3-1.7 3-1.7-3zm-1.2-2-1.7-3 1.7-3 1.7 3-1.7 3zm1.2-8 1.7-3 1.7 3-1.7 3-1.7-3zm-.9-1.5-1.7-3 1.7-3 1.7 3-1.7 3zm-2.3-4-5.5-9.5 1.7-3 5.5 9.5-1.7 3zm-2-15.5 1.7-3 5.5 9.5-1.7 3-5.5-9.5zm-.6-1-1.7-3 1.7-3 1.7 3-1.7 3zm2.3-10 1.7-3 1.7 3-1.7 3-1.7-3zm-.9-1.5-1.7-3 1.7-3 1.7 3-1.7 3zm-2.9-5-1.7-3 1.7-3 1.7 3-1.7 3zm-3.4-6-1.7-3 1.7-3 1.7 3-1.7 3zm2.3-10 8.7-15 1.7 3-8.7 15-1.7-3zm-2.3-4-1.7-3 8.7-15 1.7 3-8.7 15zm7.5-19 1.7-3 1.7 3-1.7 3-1.7-3zm2.9-5 1.7-3 1.7 3-1.7 3-1.7-3zm-13.3-19 .6 1-1.7 3-1.7-3 .6-1h2.2zm-4.6 0-8.7 15-1.7-3 6.9-12h3.5zm-4.6 0L368 27l-6.4-11h12.8zM342 16l1.7 3-1.7 3-1.7-3 1.7-3zm-5.7 0 1.2 2-1.7 3-1.7-3 1.2-2h1zm-5.2 0 .9 1.5-1.7 3-1.7-3 .9-1.5h1.6zm-4.7 0 .6 1-5.5 9.5-1.7-3 4.3-7.5h2.3zm-3.4 0-3.8 6.5-3.8-6.5h7.6zm-8.7 0 4.3 7.5-1.7 3-5.5-9.5.6-1h2.3zm-5.2 0 .9 1.5-1.7 3-1.7-3 .9-1.5h1.6zm-5.8 0 1.2 2-1.7 3-1.7-3 1.2-2h1zm-6.9 0 1.7 3-1.7 3-1.7-3 1.7-3zm-19.6 0-6.4 11-6.4-11h12.8zm-13.9 0 6.9 12-1.7 3-8.7-15h3.5zm-5.7 0 .6 1-1.7 3-1.7-3 .6-1h2.2zm-4.7 0-8.7 15-1.7-3 6.9-12h3.5zm-4.6 0-6.4 11-6.4-11h12.8zm-32.3 0 1.7 3-1.7 3-1.7-3 1.7-3zm-5.8 0 1.2 2-1.7 3-1.7-3 1.2-2h1zm-5.2 0 .9 1.5-1.7 3-1.7-3 .9-1.5h1.6zm-4.6 0 .6 1-5.5 9.5-1.7-3 4.3-7.5h2.3zm-3.5 0-3.8 6.5L189 16h7.5zm-8.6 0 4.3 7.5-1.7 3L185 17l.6-1h2.3zm-5.2 0 .9 1.5-1.7 3-1.7-3 .9-1.5h1.6zm-5.8 0 1.2 2-1.7 3-1.7-3 1.2-2h1zm-6.9 0 1.7 3-1.7 3-1.7-3 1.7-3zm-19.7 0L144 27l-6.4-11h12.7zm-13.8 0 6.9 12-1.7 3-8.7-15h3.5zm-5.8 0 .6 1-1.7 3-1.7-3 .6-1h2.2zm-4.6 0-8.7 15-1.7-3 6.9-12h3.5zm-15.5 3c0-1.7 1.4-3 3-3h7.9l-6.4 11-4.5-8zm0 8.1 2.2 3.9-1.7 3-.5-.9v-6zm0 14 .5.9-.5.9v-1.8zm0 5.8 1.7-2.9 1.7 3-1.7 3-1.7-2.9v-.2zm0 8 .5-.9 8.7 15-1.7 3-7.4-12.9-.1-4.2zm0 8.2 6.3 10.9-1.7 3-4.6-7.9v-6zm0 9 3.7 6.4-1.7 3-2-3.4v-6zm0 8 1.4 2.4-1.4 2.4v-4.8zm0 12.8 3.7-6.4 1.7 3-5.4 9.4v-6zm0 14 1.7-2.9 1.7 3-1.7 3-1.7-2.9v-.2zm0 3.2.8 1.4-.8 1.4v-2.8zm0 10 1.4 2.4-1.4 2.4v-4.8zm0 12 .8 1.4-.8 1.4v-2.8zm0 5.8 1.7-2.9 1.7 3-1.7 3-1.7-2.9v-.2zm0 8.2 5.4 9.4-1.7 3-3.7-6.4v-6zm0 14 1.4 2.4-1.4 2.4v-4.8zm0 6.8 2-3.4 1.7 3-3.7 6.4v-6zm0 9 4.6-7.9 1.7 3-6.3 10.9v-6zm0 10L118 173l1.7 3-8.1 14-1.1-1.9.1-2.2zm0 4.2.5.9-.5.9v-1.8zm0 10 1.1 1.9-1.1 1.9v-3.8zm0 11.8 1.1-1.9 1.7 3-2.8 4.9v-6zm0 14 5.1-8.9 8.1 14-8.7 15-4.6-7.9.1-12.2zm0 20.2 2.2 3.9-1.7 3-.5-.9v-6zm0 14 .5.9-.5.9v-1.8zm0 5.8 1.7-2.9 1.7 3-1.7 3-1.7-2.9v-.2zm0 8 .5-.9 8.7 15-1.7 3-7.4-12.9-.1-4.2zm0 8.2 6.3 10.9-1.7 3-4.6-7.9v-6zm0 9 3.7 6.4-1.7 3-2-3.4v-6zm0 8 1.4 2.4-1.4 2.4v-4.8zm0 12.8 3.7-6.4 1.7 3-5.4 9.4v-6zm0 14 1.7-2.9 1.7 3-1.7 3-1.7-2.9v-.2zm0 3.2.8 1.4-.8 1.4v-2.8zm0 10 1.4 2.4-1.4 2.4v-4.8zm0 12 .8 1.4-.8 1.4v-2.8zm0 5.8 1.7-2.9 1.7 3-1.7 3-1.7-2.9v-.2zm0 8.2 5.4 9.4-1.7 3-3.7-6.4v-6zm0 14 1.4 2.4-1.4 2.4v-4.8zm0 6.8 2-3.4 1.7 3-3.7 6.4v-6zm0 9 4.6-7.9 1.7 3-6.3 10.9v-6zm0 10L118 392l1.7 3-8.1 14-1.1-1.9.1-2.2zm0 4.2.5.9-.5.9v-1.8zm0 10 1.1 1.9-1.1 1.9v-3.8zm0 11.8 1.1-1.9 1.7 3-2.8 4.9v-6zm0 14 5.1-8.9 8.1 14-8.7 15-4.6-7.9.1-12.2zm0 20.2 2.2 3.9-1.7 3-.5-.9v-6zm0 14 .5.9-.5.9v-1.8zm0 5.8 1.7-2.9 1.7 3-1.7 3-1.7-2.9v-.2zm0 8.1.5-1 2.3 4c-1.6-.1-2.8-1.4-2.8-3zm6.3 3-4-7 1.7-3 5.8 10h-3.5zm8 0-8.1-14 1.7-3 8.7 15-1.2 2h-1.1zm8.1 0-1.2-2 8.7-15 1.7 3-8.1 14H133zm5.8 0 5.8-10 1.7 3-4 7h-3.5zm6.9 0 2.3-4 1.7 3-.6 1h-3.4zm5.8 0 1.7-3 1.7 3h-3.4zm5.8 0-.3-.5 1.7-3 1.7 3-.3.5h-2.8zm4.6 0-.3-.5 8.1-14 5.5 9.5-2.9 5h-10.4zm11.5 0 2.3-4 1.7 3-.6 1h-3.4zm11 0 .9-1.5.9 1.5h-1.8zm6.9 0 1.4-2.5 1.4 2.5h-2.8zm8.1 0 .9-1.5.9 1.5h-1.8zm9.3 0-.6-1 1.7-3 2.3 4h-3.4zm4.6 0-2.9-5 5.5-9.5 8.1 14-.3.5h-10.4zm12.1 0-.3-.5 1.7-3 1.7 3-.3.5h-2.8zm5.2 0 1.7-3 1.7 3h-3.4zm5.8 0-.6-1 1.7-3 2.3 4h-3.4zm6.9 0-4-7 1.7-3 5.8 10h-3.5zm8.1 0-8.1-14 1.7-3 8.7 15-1.2 2h-1.1zm8.1 0-1.2-2 8.7-15 1.7 3-8.1 14h-1.1zm5.7 0 5.8-10 1.7 3-4 7h-3.5zm7 0 2.3-4 1.7 3-.6 1h-3.4zm5.7 0 1.7-3 1.7 3h-3.4zm5.8 0-.3-.5 1.7-3 1.7 3-.3.5h-2.8zm4.6 0-.3-.5 8.1-14 5.5 9.5-2.9 5h-10.4zm11.6 0 2.3-4 1.7 3-.6 1h-3.4zm10.9 0 .9-1.5.9 1.5h-1.8zm7 0 1.4-2.5 1.4 2.5h-2.8zm8.1 0 .9-1.5.9 1.5h-1.8zm9.2 0-.6-1 1.7-3 2.3 4h-3.4zm4.6 0-2.9-5 5.5-9.5 8.1 14-.3.5h-10.4zm12.1 0-.3-.5 1.7-3 1.7 3-.3.5h-2.8zm5.2 0 1.7-3 1.7 3H357zm5.8 0-.6-1 1.7-3 2.3 4h-3.4zm6.9 0-4-7 1.7-3 5.8 10h-3.5zm8.1 0-8.1-14 1.7-3 8.7 15-1.2 2h-1.1zm8.1 0-1.2-2 8.7-15 1.7 3-8.1 14h-1.1zm5.8 0 5.8-10 1.7 3-4 7h-3.5zm9.7-3c0 1.6-1.2 2.9-2.8 3l2.3-4 .5 1zm0-7.9-1.7 2.9-1.7-3 1.7-3 1.7 2.9v.2zm0-4.2-.5-.9.5-.9v1.8zm0-9.8-.5.9-1.7-3 2.2-3.9v6zm0-14-4.6 7.9-8.7-15 8.1-14 5.1 8.9v12.2h.1zm0-20.2-2.8-4.9 1.7-3 1.1 1.9v6zm0-14-1.1-1.9 1.1-1.9v3.8zm0-12-.5-.9.5-.9v1.8zm0-3.8-1.1 1.9-8.1-14 1.7-3 7.4 12.9v2.2h.1zm0-6.2-6.3-10.9 1.7-3 4.6 7.9v6zm0-9-3.7-6.4 1.7-3 2 3.4v6zm0-8-1.4-2.4 1.4-2.4v4.8zm0-12.8-3.7 6.4-1.7-3 5.4-9.4v6zm0-14-1.7 2.9-1.7-3 1.7-3 1.7 2.9v.2zm0-3.2-.8-1.4.8-1.4v2.8zm0-10-1.4-2.4 1.4-2.4v4.8zm0-12-.8-1.4.8-1.4v2.8zm0-5.8-1.7 2.9-1.7-3 1.7-3 1.7 2.9v.2zm0-8.2-5.4-9.4 1.7-3 3.7 6.4v6zm0-14-1.4-2.4 1.4-2.4v4.8zm0-6.8-2 3.4-1.7-3 3.7-6.4v6zm0-9-4.6 7.9-1.7-3 6.3-10.9v6zm0-10L394 291l-1.7-3 8.7-15 .5.9v4.2h-.1zm0-12-1.7 2.9-1.7-3 1.7-3 1.7 2.9v.2zm0-4.2-.5-.9.5-.9v1.8zm0-9.8-.5.9-1.7-3 2.2-3.9v6zm0-14-4.6 7.9-8.7-15 8.1-14 5.1 8.9v12.2h.1zm0-20.2-2.8-4.9 1.7-3 1.1 1.9v6zm0-14-1.1-1.9 1.1-1.9v3.8zm0-12-.5-.9.5-.9v1.8zm0-3.8-1.1 1.9-8.1-14 1.7-3 7.4 12.9v2.2h.1zm0-6.2-6.3-10.9 1.7-3 4.6 7.9v6zm0-9-3.7-6.4 1.7-3 2 3.4v6zm0-8-1.4-2.4 1.4-2.4v4.8zm0-12.8-3.7 6.4-1.7-3 5.4-9.4v6zm0-14-1.7 2.9-1.7-3 1.7-3 1.7 2.9v.2zm0-3.2-.8-1.4.8-1.4v2.8zm0-10-1.4-2.4 1.4-2.4v4.8zm0-12-.8-1.4.8-1.4v2.8zm0-5.8-1.7 2.9-1.7-3 1.7-3 1.7 2.9v.2zm0-8.2-5.4-9.4 1.7-3 3.7 6.4v6zm0-14-1.4-2.4 1.4-2.4v4.8zm0-6.8-2 3.4-1.7-3 3.7-6.4v6zm0-9-4.6 7.9-1.7-3 6.3-10.9v6zm0-10L394 72l-1.7-3 8.7-15 .5.9v4.2h-.1zm0-12-1.7 2.9-1.7-3 1.7-3 1.7 2.9v.2zm0-4.2-.5-.9.5-.9v1.8zm0-9.8-.5.9-1.7-3 2.2-3.9v6zm0-14-4.6 7.9-6.4-11h7.9c1.8 0 3.1 1.4 3.1 3.1z" fill="#fff"/></svg>