<svg version="1.1" xmlns="http://www.w3.org/2000/svg" x="0" y="0" viewBox="0 0 512 512" xml:space="preserve"><path d="M398.4 0H113.6c-10.5 0-19 8.5-19 19v474c0 10.5 8.5 19 19 19h284.8c10.5 0 19-8.5 19-19V19c0-10.5-8.5-19-19-19z" opacity=".1" fill="#fff"/><path d="M129.5 60.4c-1.2 1.8-1.9 3.8-1.9 6.2 0 3.8 1.3 6.8 3.9 9 2.6 2.2 6.2 3.4 10.6 3.4 4.5 0 8-1.1 10.6-3.4 2.6-2.2 3.9-5.2 3.9-9 0-2.4-.7-4.5-1.9-6.2-1.2-1.8-2.9-3.2-4.9-4.2 1.8-1 3.3-2.3 4.3-3.9 1-1.7 1.6-3.5 1.6-5.6 0-3.7-1.2-6.6-3.6-8.7-2.5-2.1-5.8-3.3-10-3.3s-7.6 1.1-10 3.3c-2.4 2.1-3.6 5.1-3.6 8.8 0 2.1.6 4 1.6 5.6 1 1.7 2.4 3 4.3 3.9-2 1-3.6 2.4-4.9 4.1zm9.1-17.3c.9-1 2.1-1.5 3.7-1.5s2.8.5 3.7 1.5c.8 1 1.3 2.3 1.3 4 0 1.8-.5 3.1-1.3 4.2-.8 1-2.1 1.6-3.7 1.6s-2.8-.6-3.7-1.6c-.8-1-1.3-2.4-1.3-4.1 0-1.8.4-3.1 1.3-4.1zm-.8 18.4c1.1-1.1 2.6-1.7 4.4-1.7 1.9 0 3.3.6 4.4 1.7 1 1.1 1.6 2.6 1.6 4.5s-.6 3.4-1.5 4.6c-1.1 1-2.5 1.6-4.4 1.6-2 0-3.5-.6-4.5-1.7s-1.6-2.6-1.6-4.5.5-3.4 1.6-4.5zm19.9 40.5c6.8 6.4-3.2 15.9-14.9 6.2.7 4.8 3.7 8.8 8 10.7H134c4.2-2 7.4-6 8-10.7-11.7 9.7-21.7.3-14.9-6.2.5-.5 1.1-.9 1.8-1.3 2.9-1.8 4.3-2.9 7.5-5.7 3.4-3 6-8.5 6-8.5s2.5 5.4 6 8.5c3.2 2.9 4.5 3.9 7.5 5.7.5.4 1.1.9 1.8 1.3zm12.2 99.7c1-1 2.2-1.9 3.5-2.6 5.8-3.5 8.4-5.6 14.7-11.2 6.8-6.1 11.8-16.8 11.8-16.8s5.1 10.8 11.8 16.8c6.3 5.6 9 7.7 14.7 11.2 1.3.7 2.5 1.7 3.5 2.6 13.3 12.6-6.4 31.3-29.5 12.1 1.3 9.4 7.5 17.3 15.9 21.1h-33.1c8.4-3.7 14.5-11.7 15.9-21.1-22.8 19.3-42.5.5-29.2-12.1zM281.8 95.9c1-1 2.2-1.9 3.5-2.6 5.8-3.5 8.4-5.6 14.7-11.2 6.9-6.1 12-16.8 12-16.8s5.1 10.8 11.8 16.8c6.3 5.6 9 7.7 14.7 11.2 1.3.7 2.5 1.7 3.5 2.6 13.3 12.7-6.4 31.3-29.5 12.1 1.3 9.4 7.5 17.3 15.9 21.1h-33.1c8.4-3.7 14.5-11.7 15.9-21.1-23 19.2-42.7.5-29.4-12.1zm-111.9 0c1-1 2.2-1.9 3.5-2.6 5.8-3.5 8.4-5.6 14.7-11.2C195 76 200 65.3 200 65.3s5.1 10.8 11.8 16.8c6.3 5.6 9 7.7 14.7 11.2 1.3.7 2.5 1.7 3.5 2.6 13.3 12.7-6.4 31.3-29.5 12.1 1.3 9.4 7.5 17.3 15.9 21.1h-33.1c8.4-3.7 14.5-11.7 15.9-21.1-22.9 19.2-42.6.5-29.3-12.1zm172.2 320.2c-1 1-2.2 1.9-3.5 2.6-5.8 3.5-8.4 5.6-14.7 11.2-6.9 6.1-11.9 16.8-11.9 16.8s-5.1-10.8-11.8-16.8c-6.3-5.6-9-7.7-14.7-11.2-1.3-.7-2.5-1.7-3.5-2.6-13.3-12.7 6.4-31.3 29.5-12.1-1.3-9.4-7.5-17.3-15.9-21.1h33.1c-8.4 3.7-14.5 11.7-15.9 21.1 22.9-19.2 42.6-.5 29.3 12.1zm-111.9 0c-1 1-2.2 1.9-3.5 2.6-5.8 3.5-8.4 5.6-14.7 11.2-6.8 6.1-11.8 16.8-11.8 16.8s-5.1-10.8-11.8-16.8c-6.3-5.6-9-7.7-14.7-11.2-1.3-.7-2.5-1.7-3.5-2.6-13.3-12.7 6.4-31.3 29.5-12.1-1.3-9.4-7.5-17.3-15.9-21.1h33.1c-8.4 3.7-14.5 11.7-15.9 21.1 22.8-19.2 42.5-.5 29.2 12.1zm152.3 35.8c1.2-1.8 1.9-3.8 1.9-6.2 0-3.8-1.3-6.8-3.9-9-2.6-2.2-6.2-3.4-10.6-3.4s-8 1.1-10.6 3.4c-2.6 2.2-3.9 5.2-3.9 9 0 2.4.7 4.5 1.9 6.2 1.2 1.8 2.9 3.2 4.9 4.1-1.9.9-3.3 2.2-4.3 3.9-1 1.6-1.6 3.5-1.6 5.6 0 3.6 1.2 6.6 3.6 8.8 2.4 2.1 5.8 3.3 10 3.3s7.5-1.1 10-3.3c2.4-2.1 3.6-4.9 3.6-8.7 0-2.1-.6-3.9-1.6-5.6-1-1.6-2.5-2.9-4.3-3.9 2-1.1 3.7-2.5 4.9-4.2zm-8.9 17.3c-.9 1-2.1 1.5-3.7 1.5s-2.8-.5-3.7-1.5c-.9-1-1.3-2.3-1.3-4.1 0-1.7.5-3.1 1.3-4.1.9-1 2.1-1.6 3.7-1.6s2.9.6 3.7 1.6c.8 1.1 1.3 2.4 1.3 4.2 0 1.7-.5 3-1.3 4zm.6-18.4c-1.1 1.1-2.5 1.7-4.4 1.7-1.8 0-3.3-.6-4.4-1.7s-1.6-2.6-1.6-4.5.6-3.4 1.6-4.5 2.5-1.7 4.5-1.7c1.9 0 3.3.6 4.4 1.6.9 1.2 1.5 2.7 1.5 4.6s-.6 3.4-1.6 4.5zm10.7-40.8c-.5.5-1.1.9-1.8 1.3-2.9 1.8-4.3 2.9-7.5 5.7-3.4 3-6 8.5-6 8.5s-2.5-5.4-6-8.5c-3.2-2.9-4.5-3.9-7.5-5.7-.7-.4-1.2-.8-1.8-1.3-6.8-6.4 3.2-15.9 14.9-6.2-.7-4.8-3.7-8.8-8-10.7H378c-4.2 2-7.4 6-8 10.7 11.8-9.7 21.9-.3 14.9 6.2zm-42.8-99.7c-1 1-2.2 1.9-3.5 2.6-5.8 3.5-8.4 5.6-14.7 11.2-6.8 6.1-11.8 16.8-11.8 16.8s-5.1-10.8-11.8-16.8c-6.3-5.6-9-7.7-14.7-11.2-1.3-.7-2.5-1.7-3.5-2.6-13.3-12.6 6.4-31.3 29.5-12.1-1.3-9.4-7.5-17.3-15.9-21.1h33.1c-8.4 3.7-14.5 11.7-15.9 21.1 22.8-19.2 42.5-.5 29.2 12.1zm-60.3-108.6c1-1 2.2-1.9 3.5-2.6 5.8-3.5 8.4-5.6 14.7-11.2 6.8-6.1 11.8-16.8 11.8-16.8s5.1 10.8 11.8 16.8c6.3 5.6 9 7.7 14.7 11.2 1.3.7 2.5 1.7 3.5 2.6 13.3 12.6-6.4 31.3-29.5 12.1 1.3 9.4 7.5 17.3 15.9 21.1h-33.1c8.4-3.7 14.5-11.7 15.9-21.1-22.8 19.3-42.5.5-29.2-12.1zm-51.6 108.6c-1 1-2.2 1.9-3.5 2.6-5.8 3.5-8.4 5.6-14.7 11.2-6.8 6.1-11.8 16.8-11.8 16.8s-5.1-10.8-11.8-16.8c-6.3-5.6-9-7.7-14.7-11.2-1.3-.7-2.5-1.7-3.5-2.6-13.3-12.6 6.4-31.3 29.5-12.1-1.3-9.4-7.5-17.3-15.9-21.1h33.1c-8.4 3.7-14.5 11.7-15.9 21.1 22.8-19.2 42.5-.5 29.2 12.1zM398.4 0H113.6c-10.5 0-19 8.5-19 19v474c0 10.5 8.5 19 19 19h284.8c10.5 0 19-8.5 19-19V19c0-10.5-8.5-19-19-19zm3 493c0 1.7-1.3 3-3 3H113.6c-1.7 0-3-1.3-3-3V19c0-1.7 1.3-3 3-3h284.8c1.7 0 3 1.3 3 3v474z" fill="#fff"/></svg>