<svg xmlns="http://www.w3.org/2000/svg" viewBox="0 0 512 512" xml:space="preserve"><path d="M398.4 0H113.6c-10.5 0-19 8.5-19 19v474c0 10.5 8.5 19 19 19h284.8c10.5 0 19-8.5 19-19V19c0-10.5-8.5-19-19-19z" opacity=".1" fill="#fff"/><path d="M398.4 16c1.7 0 3 1.3 3 3v474c0 1.7-1.3 3-3 3H113.6c-1.7 0-3-1.3-3-3V19c0-1.7 1.3-3 3-3h284.8m0-16H113.6c-10.5 0-19 8.5-19 19v474c0 10.5 8.5 19 19 19h284.8c10.5 0 19-8.5 19-19V19c0-10.5-8.5-19-19-19zM148.1 61.2c-2.2 2.2-4.8 3.3-7.8 3.3-3.8 0-6.9-1.3-9.1-3.9-2.3-2.6-3.4-6.1-3.4-10.6 0-2.8.6-5.4 1.8-7.8 1.2-2.4 3-4.2 5.2-5.5 2.2-1.3 4.7-2 7.5-2s5.4.7 7.6 2.1c2.2 1.4 3.9 3.5 5.2 6.1 1.2 2.7 1.8 5.7 1.9 9.1v3.2c0 7.2-1.8 12.8-5.4 16.9-3.6 4.1-8.6 6.3-15.2 6.6h-2.1v-7.1h1.9c7.3-.2 11.3-3.7 11.9-10.4zm-5.7-3.2c1.4 0 2.6-.4 3.6-1.1s1.8-1.6 2.3-2.6v-3.5c0-2.9-.6-5.2-1.7-6.7-1.1-1.6-2.6-2.4-4.4-2.4-1.7 0-3.1.8-4.2 2.4-1.1 1.6-1.7 3.5-1.7 5.9 0 2.3.5 4.3 1.6 5.8 1 1.4 2.5 2.2 4.5 2.2zm221.5 392.8c2.2-2.2 4.8-3.3 7.8-3.3 3.8 0 6.9 1.3 9.1 3.9 2.3 2.6 3.4 6.1 3.4 10.6 0 2.8-.6 5.4-1.8 7.8-1.2 2.4-3 4.2-5.2 5.5-2.2 1.3-4.7 2-7.5 2s-5.4-.7-7.6-2.1c-2.2-1.4-3.9-3.5-5.2-6.1-1.2-2.7-1.8-5.7-1.9-9.1v-3.2c0-7.2 1.8-12.8 5.4-16.9 3.6-4.1 8.6-6.3 15.2-6.6h2.1v7.1h-1.9c-7.3.2-11.3 3.7-11.9 10.4zm5.7 3.2c-1.4 0-2.6.4-3.6 1.1-1 .7-1.8 1.6-2.3 2.6v3.5c0 2.9.6 5.2 1.7 6.7 1.1 1.6 2.6 2.4 4.4 2.4 1.7 0 3.1-.8 4.2-2.4 1.1-1.6 1.7-3.5 1.7-5.9 0-2.3-.5-4.3-1.6-5.8-1-1.4-2.5-2.2-4.5-2.2zM126 102.7c6.8 3.8 12.4 9.4 16.2 16.2 3.8-6.8 9.4-12.4 16.2-16.2-3.3-1.9-6.3-4.1-8.9-6.7-2.8-2.8-5.3-6-7.3-9.5-3.8 6.8-9.4 12.4-16.2 16.2zm260 306.6c-3.3-1.9-6.3-4.1-8.9-6.7-2.8-2.8-5.3-6-7.3-9.5-3.8 6.8-9.4 12.4-16.2 16.2 6.8 3.8 12.4 9.4 16.2 16.2 3.8-6.8 9.4-12.4 16.2-16.2zM218.9 256c15.3 8.7 27.9 21.3 36.6 36.6 8.7-15.3 21.3-27.9 36.6-36.6-7-4-13.5-8.8-19.3-14.4-6.8-6.5-12.6-14-17.3-22.2-8.6 15.3-21.3 27.9-36.6 36.6zM163.5 97.5c15.3 8.7 27.9 21.3 36.6 36.6 8.7-15.3 21.3-27.9 36.6-36.6-7.3-4.1-13.9-9.1-19.9-14.9-6.5-6.4-12.2-13.7-16.7-21.7-8.7 15.2-21.4 27.9-36.6 36.6zm111.9 0c15.3 8.7 27.9 21.3 36.6 36.6 8.7-15.3 21.3-27.9 36.6-36.6-7.2-4.1-13.9-9.1-19.8-14.9-6.6-6.4-12.2-13.7-16.8-21.7-8.7 15.2-21.4 27.9-36.6 36.6zM163.5 209.4c15.3 8.7 27.9 21.3 36.6 36.6 8.7-15.3 21.3-27.9 36.6-36.6-7.4-4.2-14.3-9.4-20.3-15.4-6.3-6.3-11.8-13.4-16.3-21.2-8.7 15.2-21.4 27.9-36.6 36.6zm111.9 0c15.3 8.7 27.9 21.3 36.6 36.6 8.7-15.3 21.3-27.9 36.6-36.6-7.2-4.1-13.8-9.1-19.7-14.8-6.6-6.4-12.3-13.7-16.8-21.8-8.8 15.2-21.5 27.9-36.7 36.6zm-111.9 93.2c15.3 8.7 27.9 21.3 36.6 36.6 8.7-15.3 21.3-27.9 36.6-36.6-7.9-4.5-15.1-10-21.4-16.4-5.9-6-11-12.8-15.2-20.1-8.7 15.2-21.4 27.9-36.6 36.5zm111.9 0c15.3 8.7 27.9 21.3 36.6 36.6 8.7-15.3 21.3-27.9 36.6-36.6-7.9-4.5-15-10-21.3-16.4-5.9-6-11.1-12.8-15.2-20.2-8.8 15.3-21.5 28-36.7 36.6zM163.5 414.5c15.3 8.7 27.9 21.3 36.6 36.6 8.7-15.3 21.3-27.9 36.6-36.6-8.2-4.7-15.6-10.5-22.1-17.2-5.6-5.8-10.4-12.3-14.5-19.4-8.7 15.3-21.4 28-36.6 36.6zm111.9 0c15.3 8.7 27.9 21.3 36.6 36.6 8.7-15.3 21.3-27.9 36.6-36.6-6.7-3.8-13-8.4-18.6-13.7-7.1-6.7-13.2-14.4-18-22.9-8.7 15.3-21.4 28-36.6 36.6z" fill="#fff"/></svg>