<svg version="1.1" xmlns="http://www.w3.org/2000/svg" x="0" y="0" viewBox="0 0 512 512" xml:space="preserve"><path d="M398.4 0H113.6c-10.5 0-19 8.5-19 19v474c0 10.5 8.5 19 19 19h284.8c10.5 0 19-8.5 19-19V19c0-10.5-8.5-19-19-19z" opacity=".1" fill="#fff"/><path d="M398.4 16c1.7 0 3 1.3 3 3v474c0 1.7-1.3 3-3 3H113.6c-1.7 0-3-1.3-3-3V19c0-1.7 1.3-3 3-3h284.8m0-16H113.6c-10.5 0-19 8.5-19 19v474c0 10.5 8.5 19 19 19h284.8c10.5 0 19-8.5 19-19V19c0-10.5-8.5-19-19-19zM157.5 102c6.8 6.4-3.2 15.9-14.9 6.2.7 4.8 3.8 8.8 8.1 10.7h-16.8c4.3-1.9 7.4-5.9 8.1-10.7-11.7 9.7-21.7.2-14.9-6.2.5-.5 1.1-.9 1.8-1.3 3-1.8 4.3-2.8 7.5-5.7 3.4-3 6-8.5 6-8.5s2.6 5.5 6 8.5c3.2 2.8 4.5 3.9 7.5 5.7.5.4 1.1.8 1.6 1.3zm212.6 301.8c.7-4.8 3.8-8.8 8.1-10.7h-16.8c4.3 1.9 7.4 5.9 8.1 10.7-11.7-9.7-21.7-.2-14.9 6.2.5.5 1.1.9 1.8 1.3 3 1.8 4.3 2.8 7.5 5.7 3.4 3 6 8.5 6 8.5s2.6-5.5 6-8.5c3.2-2.8 4.5-3.9 7.5-5.7.7-.4 1.3-.8 1.8-1.3 6.7-6.4-3.4-15.9-15.1-6.2zm-140-307.9c-1-1-2.3-1.8-3.5-2.6-5.8-3.5-8.4-5.6-14.7-11.2-6.8-6-11.8-16.7-11.8-16.7s-5.1 10.8-11.8 16.7c-6.3 5.6-8.9 7.7-14.7 11.2-1.3.8-2.5 1.6-3.5 2.6-13.4 12.6 6.4 31.3 29.4 12.1-1.3 9.4-7.5 17.3-15.9 21.1h33.1c-8.4-3.8-14.5-11.7-15.9-21.1 23 19.2 42.7.5 29.3-12.1zm112 0c-1-1-2.3-1.8-3.5-2.6-5.8-3.5-8.4-5.6-14.7-11.2-6.8-6-11.8-16.7-11.8-16.7s-5.1 10.8-11.8 16.7c-6.3 5.6-8.9 7.7-14.7 11.2-1.3.8-2.5 1.6-3.5 2.6-13.4 12.6 6.4 31.3 29.4 12.1-1.3 9.4-7.5 17.3-15.9 21.1h33.1c-8.4-3.8-14.5-11.7-15.9-21.1 22.9 19.2 42.6.5 29.3-12.1zm-112 105.8c-1-1-2.3-1.8-3.5-2.6-5.8-3.5-8.4-5.6-14.7-11.2-6.8-6-11.8-16.7-11.8-16.7S195 182 188.2 188c-6.3 5.6-8.9 7.7-14.7 11.2-1.3.8-2.5 1.6-3.5 2.6-13.4 12.6 6.4 31.3 29.4 12.1-1.3 9.4-7.5 17.3-15.9 21.1h33.1c-8.4-3.8-14.5-11.7-15.9-21.1 23.1 19.1 42.8.4 29.4-12.2zm112 0c-1-1-2.3-1.8-3.5-2.6-5.8-3.5-8.4-5.6-14.7-11.2-6.8-6-11.8-16.7-11.8-16.7s-5.1 10.8-11.8 16.7c-6.3 5.6-8.9 7.7-14.7 11.2-1.3.8-2.5 1.6-3.5 2.6-13.4 12.6 6.4 31.3 29.4 12.1-1.3 9.4-7.5 17.3-15.9 21.1h33.1c-8.4-3.8-14.5-11.7-15.9-21.1 22.9 19.2 42.6.5 29.3-12.1zm-60.2 214.4c1 1 2.3 1.8 3.5 2.6 5.8 3.5 8.4 5.6 14.7 11.2 6.8 6 11.8 16.7 11.8 16.7s5.1-10.8 11.8-16.7c6.3-5.6 8.9-7.7 14.7-11.2 1.3-.8 2.5-1.6 3.5-2.6 13.4-12.6-6.4-31.3-29.4-12.1 1.3-9.4 7.5-17.3 15.9-21.1h-33.1c8.4 3.8 14.5 11.7 15.9 21.1-23-19.2-42.7-.5-29.3 12.1zm-112 0c1 1 2.3 1.8 3.5 2.6 5.8 3.5 8.4 5.6 14.7 11.2 6.8 6 11.8 16.7 11.8 16.7s5.1-10.8 11.8-16.7c6.3-5.6 8.9-7.7 14.7-11.2 1.3-.8 2.5-1.6 3.5-2.6 13.4-12.6-6.4-31.3-29.4-12.1 1.3-9.4 7.5-17.3 15.9-21.1h-33.1c8.4 3.8 14.5 11.7 15.9 21.1-22.9-19.2-42.6-.5-29.3 12.1zm112-105.8c1 1 2.3 1.8 3.5 2.6 5.8 3.5 8.4 5.6 14.7 11.2 6.8 6 11.8 16.7 11.8 16.7S317 330 323.8 324c6.3-5.6 8.9-7.7 14.7-11.2 1.3-.8 2.5-1.6 3.5-2.6 13.4-12.6-6.4-31.3-29.4-12.1 1.3-9.4 7.5-17.3 15.9-21.1h-33.1c8.4 3.8 14.5 11.7 15.9 21.1-23.1-19.1-42.8-.4-29.4 12.2zm-112 0c1 1 2.3 1.8 3.5 2.6 5.8 3.5 8.4 5.6 14.7 11.2 6.8 6 11.8 16.7 11.8 16.7s5.1-10.8 11.8-16.7c6.3-5.6 8.9-7.7 14.7-11.2 1.3-.8 2.5-1.6 3.5-2.6 13.4-12.6-6.4-31.3-29.4-12.1 1.3-9.4 7.5-17.3 15.9-21.1h-33.1c8.4 3.8 14.5 11.7 15.9 21.1-22.9-19.2-42.6-.5-29.3 12.1zM152.2 37.9c-2.5-2.2-5.8-3.2-10-3.2s-7.5 1.1-10 3.3c-2.4 2.2-3.7 5.1-3.7 8.8 0 2.1.5 3.9 1.6 5.6 1 1.6 2.5 2.9 4.3 3.9-2.1 1-3.7 2.4-4.9 4.1-1.2 1.8-1.8 3.9-1.8 6.2 0 3.8 1.3 6.8 3.9 9.1 2.6 2.2 6.2 3.3 10.7 3.3 4.5 0 8-1.1 10.6-3.3 2.6-2.2 3.9-5.2 3.9-9.1 0-2.4-.6-4.5-1.8-6.2-1.2-1.8-2.9-3.2-5-4.2 1.8-1 3.3-2.3 4.3-3.9s1.6-3.5 1.6-5.6c0-3.7-1.3-6.6-3.7-8.8zm-5.6 32.5c-1.1 1.1-2.5 1.6-4.4 1.6-1.9 0-3.4-.6-4.4-1.7-1.1-1.1-1.6-2.6-1.6-4.4 0-1.9.5-3.4 1.6-4.5s2.5-1.7 4.4-1.7c1.8 0 3.3.6 4.4 1.7 1.1 1.1 1.6 2.6 1.6 4.5s-.5 3.4-1.6 4.5zm-.6-19.1c-.9 1-2.1 1.6-3.7 1.6s-2.9-.5-3.8-1.6c-.9-1-1.3-2.4-1.3-4.1 0-1.7.4-3.1 1.3-4.1.9-1 2.1-1.5 3.7-1.5s2.9.5 3.8 1.5c.9 1 1.3 2.4 1.3 4 0 1.7-.4 3.1-1.3 4.2zm233.7 385c-2.5-2.2-5.8-3.2-10-3.2s-7.5 1.1-10 3.3c-2.4 2.2-3.7 5.1-3.7 8.8 0 2.1.5 3.9 1.6 5.6 1 1.6 2.5 2.9 4.3 3.9-2.1 1-3.7 2.4-4.9 4.1-1.2 1.8-1.8 3.9-1.8 6.2 0 3.8 1.3 6.8 3.9 9.1 2.6 2.2 6.2 3.3 10.7 3.3 4.5 0 8-1.1 10.6-3.3 2.6-2.2 3.9-5.2 3.9-9.1 0-2.4-.6-4.5-1.8-6.2-1.2-1.8-2.9-3.2-5-4.2 1.8-1 3.3-2.3 4.3-3.9s1.6-3.5 1.6-5.6c0-3.7-1.2-6.6-3.7-8.8zm-5.5 32.5c-1.1 1.1-2.5 1.6-4.4 1.6-1.9 0-3.4-.6-4.4-1.7-1.1-1.1-1.6-2.6-1.6-4.4 0-1.9.5-3.4 1.6-4.5s2.5-1.7 4.4-1.7c1.8 0 3.3.6 4.4 1.7 1.1 1.1 1.6 2.6 1.6 4.5s-.6 3.4-1.6 4.5zm-.7-19.1c-.9 1-2.1 1.6-3.7 1.6s-2.9-.5-3.8-1.6c-.9-1-1.3-2.4-1.3-4.1 0-1.7.4-3.1 1.3-4.1.9-1 2.1-1.5 3.7-1.5s2.9.5 3.8 1.5c.9 1 1.3 2.4 1.3 4 .1 1.7-.4 3.1-1.3 4.2z" fill="#fff"/></svg>