<svg xmlns="http://www.w3.org/2000/svg" viewBox="0 0 512 512" style="enable-background:new 0 0 512 512" xml:space="preserve"><path d="M417.4 19v474c0 10.5-8.5 19-19 19H113.6c-10.5 0-19-8.5-19-19V19c0-10.5 8.5-19 19-19h284.8c10.5 0 19 8.5 19 19z" style="opacity:.1;fill:#fff"/><path d="M354.6 412.5c.5-.7 1.2-1.2 1.8-1.7 2.9-2.2 4.2-3.6 7.4-7.1 3.4-3.8 5.9-10.7 5.9-10.7s2.5 6.9 5.9 10.7c3.2 3.5 4.5 4.9 7.4 7.1.7.5 1.3 1.1 1.8 1.7 6.8 8.1-3.4 20.2-15.1 7.4-11.7 12.8-21.9.7-15.1-7.4zm32.9 21.1H379v43.2h.9l17.8-6.4v-7l-10.2 3.2v-33zM417.4 19v474c0 10.5-8.5 19-19 19H113.6c-10.5 0-19-8.5-19-19V19c0-10.5 8.5-19 19-19h284.8c10.5 0 19 8.5 19 19zm-16 0c0-1.7-1.3-3-3-3H113.6c-1.7 0-3 1.3-3 3v474c0 1.7 1.3 3 3 3h284.8c1.7 0 3-1.3 3-3V19zM133 78.4V35.2h-.9l-17.8 6.4v7l10.2-3.2v33h8.5zm33.3-39c2.5 3.1 3.8 7.5 3.8 13.3v7.9c0 6-1.2 10.5-3.7 13.7s-6.1 4.7-10.8 4.7c-4.7 0-8.3-1.5-10.8-4.6-2.5-3.1-3.8-7.5-3.8-13.3v-7.9c0-6 1.2-10.6 3.7-13.7s6.1-4.7 10.8-4.7 8.3 1.5 10.8 4.6zm-4.8 12.5c0-3.6-.5-6.2-1.5-7.8-1-1.6-2.5-2.4-4.6-2.4-2 0-3.5.8-4.5 2.3-1 1.6-1.5 4-1.5 7.3v10.5c0 3.5.5 6.1 1.4 7.8 1 1.7 2.5 2.6 4.6 2.6 2.1 0 3.6-.8 4.5-2.5.9-1.6 1.4-4.1 1.5-7.5l.1-10.3zm-19.3 40.2c-11.7-12.8-21.8-.7-15.1 7.4.5.6 1.1 1.2 1.8 1.7 2.9 2.2 4.2 3.6 7.4 7.1 3.4 3.8 5.9 10.7 5.9 10.7s2.5-6.9 5.9-10.7c3.2-3.5 4.5-4.9 7.4-7.1.6-.5 1.3-1 1.8-1.7 6.7-8.1-3.4-20.2-15.1-7.4zM199 78.3c-17.6-19.3-33-1.1-22.8 11.1.8.9 1.7 1.8 2.7 2.5 4.4 3.4 6.4 5.4 11.1 10.7 5.1 5.7 8.9 16.1 8.9 16.1s3.8-10.4 8.9-16.1c4.8-5.4 6.7-7.4 11.1-10.7 1-.7 1.9-1.6 2.7-2.5 10.4-12.2-5-30.4-22.6-11.1zm114 0c-17.6-19.3-33-1.1-22.8 11.1.8.9 1.7 1.8 2.7 2.5 4.4 3.4 6.4 5.4 11.1 10.7 5.1 5.7 8.9 16.1 8.9 16.1s3.8-10.4 8.9-16.1c4.8-5.4 6.7-7.4 11.1-10.7 1-.7 1.9-1.6 2.7-2.5 10.4-12.2-5-30.4-22.6-11.1zm-57 53.9c-17.6-19.3-33-1.1-22.8 11.1.8.9 1.7 1.8 2.7 2.5 4.4 3.4 6.4 5.4 11.1 10.7 5.1 5.7 8.9 16.1 8.9 16.1s3.8-10.4 8.9-16.1c4.8-5.4 6.7-7.4 11.1-10.7 1-.7 1.9-1.6 2.7-2.5 10.4-12.2-5-30.4-22.6-11.1zm-57 53.9c-17.6-19.3-33-1.1-22.8 11.1.8.9 1.7 1.8 2.7 2.5 4.4 3.4 6.4 5.4 11.1 10.7 5.1 5.7 8.9 16.1 8.9 16.1s3.8-10.4 8.9-16.1c4.8-5.4 6.7-7.4 11.1-10.7 1-.7 1.9-1.6 2.7-2.5 10.4-12.2-5-30.5-22.6-11.1zm114 0c-17.6-19.3-33-1.1-22.8 11.1.8.9 1.7 1.8 2.7 2.5 4.4 3.4 6.4 5.4 11.1 10.7 5.1 5.7 8.9 16.1 8.9 16.1s3.8-10.4 8.9-16.1c4.8-5.4 6.7-7.4 11.1-10.7 1-.7 1.9-1.6 2.7-2.5 10.4-12.2-5-30.5-22.6-11.1zm-93.9 234c-4.4-3.4-6.4-5.4-11.1-10.7-5.1-5.7-8.9-16.1-8.9-16.1s-3.8 10.4-8.9 16.1c-4.8 5.4-6.7 7.4-11.1 10.7-1 .7-1.9 1.6-2.7 2.5-10.2 12.3 5.1 30.5 22.8 11.1 17.6 19.3 33 1.1 22.8-11.1-1-1-2-1.8-2.9-2.5zm114 0c-4.4-3.4-6.4-5.4-11.1-10.7-5.1-5.7-8.9-16.1-8.9-16.1s-3.8 10.4-8.9 16.1c-4.8 5.4-6.7 7.4-11.1 10.7-1 .7-1.9 1.6-2.7 2.5-10.2 12.3 5.1 30.5 22.8 11.1 17.6 19.3 33 1.1 22.8-11.1-1-1-2-1.8-2.9-2.5zm-114-107.8c-4.4-3.4-6.4-5.4-11.1-10.7-5.1-5.7-8.9-16.1-8.9-16.1s-3.8 10.4-8.9 16.1c-4.8 5.4-6.7 7.4-11.1 10.7-1 .7-1.9 1.6-2.7 2.5-10.2 12.3 5.1 30.5 22.8 11.1 17.6 19.3 33 1.1 22.8-11.1-1-1-2-1.8-2.9-2.5zm114 0c-4.4-3.4-6.4-5.4-11.1-10.7-5.1-5.7-8.9-16.1-8.9-16.1s-3.8 10.4-8.9 16.1c-4.8 5.4-6.7 7.4-11.1 10.7-1 .7-1.9 1.6-2.7 2.5-10.2 12.3 5.1 30.5 22.8 11.1 17.6 19.3 33 1.1 22.8-11.1-1-1-2-1.8-2.9-2.5zm-57 53.9c-4.4-3.4-6.4-5.4-11.1-10.7-5.1-5.7-8.9-16.1-8.9-16.1s-3.8 10.4-8.9 16.1c-4.8 5.4-6.7 7.4-11.1 10.7-1 .7-1.9 1.6-2.7 2.5-10.2 12.3 5.1 30.5 22.8 11.1 17.6 19.3 33 1.1 22.8-11.1-1-1-2-1.8-2.9-2.5zm91.1 71c2.5 3.1 3.8 7.5 3.8 13.3v7.9c0 6-1.2 10.6-3.7 13.7s-6.1 4.7-10.8 4.7-8.3-1.5-10.8-4.6c-2.5-3.1-3.8-7.5-3.8-13.3V451c0-6 1.2-10.5 3.7-13.7s6.1-4.7 10.8-4.7c4.7 0 8.3 1.5 10.8 4.6zm-4.6 12.6c0-3.5-.5-6.1-1.4-7.8-1-1.7-2.5-2.6-4.6-2.6-2.1 0-3.6.8-4.5 2.5-.9 1.6-1.4 4.1-1.5 7.5v10.3h-.1c0 3.6.5 6.2 1.5 7.8 1 1.6 2.5 2.4 4.6 2.4 2 0 3.5-.8 4.5-2.3 1-1.6 1.5-4 1.5-7.3v-10.5z" style="fill:#fff"/></svg>