<svg version="1.1" xmlns="http://www.w3.org/2000/svg" x="0" y="0" viewBox="0 0 512 512" xml:space="preserve"><path d="M398.4 0H113.6c-10.5 0-19 8.5-19 19v474c0 10.5 8.5 19 19 19h284.8c10.5 0 19-8.5 19-19V19c0-10.5-8.5-19-19-19z" opacity=".1" fill="#fff"/><path d="M398.4 16c1.7 0 3 1.3 3 3v474c0 1.7-1.3 3-3 3H113.6c-1.7 0-3-1.3-3-3V19c0-1.7 1.3-3 3-3h284.8m0-16H113.6c-10.5 0-19 8.5-19 19v474c0 10.5 8.5 19 19 19h284.8c10.5 0 19-8.5 19-19V19c0-10.5-8.5-19-19-19zM157.3 99.5c-.5.6-1.1 1.2-1.8 1.7-2.9 2.2-4.2 3.6-7.4 7.1-3.4 3.8-5.9 10.7-5.9 10.7s-2.5-6.9-5.9-10.7c-3.2-3.5-4.5-4.9-7.4-7.1-.6-.5-1.3-1-1.8-1.7-6.8-8.1 3.4-20.2 15.1-7.4 11.7-12.8 21.8-.7 15.1 7.4zm227.5 313c-.5-.6-1.1-1.2-1.8-1.7-2.9-2.2-4.2-3.6-7.4-7.1-3.4-3.8-5.9-10.7-5.9-10.7s-2.5 6.9-5.9 10.7c-3.2 3.5-4.5 4.9-7.4 7.1-.6.5-1.3 1-1.8 1.7-6.8 8.1 3.4 20.2 15.1 7.4 11.7 12.8 21.9.7 15.1-7.4zM200 77.6c-21.6-23.7-40.4-1.4-27.9 13.7 1 1.2 2.1 2.2 3.3 3.1 5.4 4.1 7.8 6.6 13.7 13.2 6.3 7 11 19.8 11 19.8s4.7-12.7 11-19.8c5.8-6.6 8.3-9.1 13.7-13.2 1.2-.9 2.3-1.9 3.3-3.1 12.4-15-6.4-37.4-28.1-13.7zm112 0c-21.6-23.7-40.4-1.4-27.9 13.7 1 1.2 2.1 2.2 3.3 3.1 5.4 4.1 7.8 6.6 13.7 13.2 6.3 7 11 19.8 11 19.8s4.7-12.7 11-19.8c5.8-6.6 8.3-9.1 13.7-13.2 1.2-.9 2.3-1.9 3.3-3.1 12.3-15-6.5-37.4-28.1-13.7zM200 183.4c-21.6-23.7-40.4-1.4-27.9 13.7 1 1.2 2.1 2.2 3.3 3.1 5.4 4.1 7.8 6.6 13.7 13.2 6.3 7 11 19.8 11 19.8s4.7-12.7 11-19.8c5.8-6.6 8.3-9.1 13.7-13.2 1.2-.9 2.3-1.9 3.3-3.1 12.4-15-6.4-37.4-28.1-13.7zm112 0c-21.6-23.7-40.4-1.4-27.9 13.7 1 1.2 2.1 2.2 3.3 3.1 5.4 4.1 7.8 6.6 13.7 13.2 6.3 7 11 19.8 11 19.8s4.7-12.7 11-19.8c5.8-6.6 8.3-9.1 13.7-13.2 1.2-.9 2.3-1.9 3.3-3.1 12.3-15-6.5-37.4-28.1-13.7zm-84 237.3c-1-1.2-2.1-2.2-3.3-3.1-5.4-4.1-7.8-6.6-13.7-13.2-6.3-7-11-19.8-11-19.8s-4.7 12.7-11 19.8c-5.8 6.6-8.3 9.1-13.7 13.2-1.2.9-2.3 1.9-3.3 3.1-12.5 15 6.3 37.4 27.9 13.7 21.8 23.7 40.6 1.3 28.1-13.7zm111.9 0c-1-1.2-2.1-2.2-3.3-3.1-5.4-4.1-7.8-6.6-13.7-13.2-6.3-7-11-19.8-11-19.8s-4.7 12.7-11 19.8c-5.8 6.6-8.3 9.1-13.7 13.2-1.2.9-2.3 1.9-3.3 3.1-12.5 15 6.3 37.4 27.9 13.7 21.8 23.7 40.6 1.3 28.1-13.7zM228 314.9c-1-1.2-2.1-2.2-3.3-3.1-5.4-4.1-7.8-6.6-13.7-13.2-6.3-7-11-19.8-11-19.8s-4.7 12.7-11 19.8c-5.8 6.6-8.3 9.1-13.7 13.2-1.2.9-2.3 1.9-3.3 3.1-12.5 15 6.3 37.4 27.9 13.7 21.8 23.7 40.6 1.3 28.1-13.7zm111.9 0c-1-1.2-2.1-2.2-3.3-3.1-5.4-4.1-7.8-6.6-13.7-13.2-6.3-7-11-19.8-11-19.8s-4.7 12.7-11 19.8c-5.8 6.6-8.3 9.1-13.7 13.2-1.2.9-2.3 1.9-3.3 3.1-12.5 15 6.3 37.4 27.9 13.7 21.8 23.7 40.6 1.3 28.1-13.7zm-187.7-277c-2.5-2.2-5.8-3.2-10-3.2s-7.5 1.1-10 3.3c-2.4 2.2-3.7 5.1-3.7 8.8 0 2.1.5 3.9 1.6 5.6 1 1.6 2.5 2.9 4.3 3.9-2.1 1-3.7 2.4-4.9 4.1-1.2 1.8-1.8 3.9-1.8 6.2 0 3.8 1.3 6.8 3.9 9.1 2.6 2.2 6.2 3.3 10.7 3.3 4.5 0 8-1.1 10.6-3.3 2.6-2.2 3.9-5.2 3.9-9.1 0-2.4-.6-4.5-1.8-6.2-1.2-1.8-2.9-3.2-5-4.2 1.8-1 3.3-2.3 4.3-3.9s1.6-3.5 1.6-5.6c0-3.7-1.3-6.6-3.7-8.8zm-5.6 32.5c-1.1 1.1-2.5 1.6-4.4 1.6-1.9 0-3.4-.6-4.4-1.7-1.1-1.1-1.6-2.6-1.6-4.4 0-1.9.5-3.4 1.6-4.5s2.5-1.7 4.4-1.7c1.8 0 3.3.6 4.4 1.7 1.1 1.1 1.6 2.6 1.6 4.5s-.5 3.4-1.6 4.5zm-.6-19.1c-.9 1-2.1 1.6-3.7 1.6s-2.9-.5-3.8-1.6c-.9-1-1.3-2.4-1.3-4.1 0-1.7.4-3.1 1.3-4.1.9-1 2.1-1.5 3.7-1.5s2.9.5 3.8 1.5c.9 1 1.3 2.4 1.3 4 0 1.7-.4 3.1-1.3 4.2zm233.7 385c-2.5-2.2-5.8-3.2-10-3.2s-7.5 1.1-10 3.3c-2.4 2.2-3.7 5.1-3.7 8.8 0 2.1.5 3.9 1.6 5.6 1 1.6 2.5 2.9 4.3 3.9-2.1 1-3.7 2.4-4.9 4.1-1.2 1.8-1.8 3.9-1.8 6.2 0 3.8 1.3 6.8 3.9 9.1 2.6 2.2 6.2 3.3 10.7 3.3 4.5 0 8-1.1 10.6-3.3 2.6-2.2 3.9-5.2 3.9-9.1 0-2.4-.6-4.5-1.8-6.2-1.2-1.8-2.9-3.2-5-4.2 1.8-1 3.3-2.3 4.3-3.9s1.6-3.5 1.6-5.6c0-3.7-1.2-6.6-3.7-8.8zm-5.5 32.5c-1.1 1.1-2.5 1.6-4.4 1.6-1.9 0-3.4-.6-4.4-1.7-1.1-1.1-1.6-2.6-1.6-4.4 0-1.9.5-3.4 1.6-4.5s2.5-1.7 4.4-1.7c1.8 0 3.3.6 4.4 1.7 1.1 1.1 1.6 2.6 1.6 4.5s-.6 3.4-1.6 4.5zm-.7-19.1c-.9 1-2.1 1.6-3.7 1.6s-2.9-.5-3.8-1.6c-.9-1-1.3-2.4-1.3-4.1 0-1.7.4-3.1 1.3-4.1.9-1 2.1-1.5 3.7-1.5s2.9.5 3.8 1.5c.9 1 1.3 2.4 1.3 4 .1 1.7-.4 3.1-1.3 4.2z" fill="#fff"/></svg>