<svg xmlns="http://www.w3.org/2000/svg" viewBox="0 0 512 512" xml:space="preserve"><path d="M373 117C373 52.4 320.6 0 256 0S139 52.4 139 117c0 61.4 47.4 111.8 107.5 116.6l-2.2 32.6c-3.6.8-6.3 4-6.3 7.8v220c0 9.9 8.1 18 18 18s18-8.1 18-18V274c0-3.8-2.7-7.1-6.3-7.8l-2.2-32.6C325.6 228.8 373 178.4 373 117z" opacity=".1" fill="#fff"/><path d="M373 117C373 52.4 320.6 0 256 0S139 52.4 139 117c0 61.4 47.4 111.8 107.5 116.6l-2.2 32.6c-3.6.8-6.3 4-6.3 7.8v220c0 9.9 8.1 18 18 18s18-8.1 18-18V274c0-3.8-2.7-7.1-6.3-7.8l-2.2-32.6C325.6 228.8 373 178.4 373 117zm-218 0c0-55.7 45.3-101 101-101s101 45.3 101 101-45.3 101-101 101-101-45.3-101-101z" fill="#fff"/></svg>