<svg version="1.1" xmlns="http://www.w3.org/2000/svg" x="0" y="0" viewBox="0 0 512 512" xml:space="preserve"><path d="M346.3 0H165.9c-3.6 0-6.4 3.2-6 6.7l59.6 475.5c.9 7.2 4.3 13.8 9.4 18.8 15 14.6 39 14.6 54 0 5.2-5 8.5-11.7 9.4-18.8l60-475.5c.5-3.6-2.3-6.7-6-6.7z" opacity=".1" fill="#fff"/><path d="M346.3 0H165.9c-3.6 0-6.4 3.2-6 6.7l59.6 475.5c.9 7.2 4.3 13.8 9.4 18.8 15 14.6 39 14.6 54 0 5.2-5 8.5-11.7 9.4-18.8l60-475.5c.5-3.6-2.3-6.7-6-6.7zM235 178h21v4h-21v-4zm0 19h21v4h-21v-4zm0 19h21v4h-21v-4zm0 19h21v4h-21v-4zm0 38h21v4h-21v-4zm0 19h21v4h-21v-4zm0 19h21v4h-21v-4zm0 19h21v4h-21v-4zm0 38h21v4h-21v-4zm0 19h21v4h-21v-4zm0 19h21v4h-21v-4zm0 19h21v4h-21v-4zm42 23h-42v-4h42v4zm0-95h-42v-4h42v4zm0-95h-42v-4h42v4zm0-95h-42v-4h42v4z" fill="#fff"/></svg>