<svg xmlns="http://www.w3.org/2000/svg" viewBox="0 0 512 512" style="enable-background:new 0 0 512 512" xml:space="preserve"><path d="M256 0C114.6 0 0 114.6 0 256s114.6 256 256 256 256-114.6 256-256S397.4 0 256 0zm129.6 53.9L264 230.3V16.1c29.6 1 58.3 7.2 85.4 18.7 12.7 5.4 24.7 11.8 36.2 19.1zM86.3 86.3c22-22 47.7-39.4 76.3-51.4 27.1-11.5 55.8-17.7 85.4-18.7v226.6L47.2 137.5c10.6-18.7 23.7-35.8 39.1-51.2zM256 496c-32.4 0-63.8-6.3-93.4-18.9-28.6-12.1-54.2-29.4-76.3-51.4-22-22-39.4-47.7-51.4-76.3C22.3 319.8 16 288.4 16 256c0-32.4 6.3-63.8 18.9-93.4 1.6-3.7 3.2-7.3 4.9-10.9L251 262.4l158.5 178.1c-18.1 15.1-38.3 27.4-60.1 36.6-29.6 12.6-61 18.9-93.4 18.9zm169.7-70.3c-1.4 1.4-2.8 2.8-4.3 4.2L266.2 255.4 398.7 63c9.5 7 18.5 14.8 27 23.3 22 22 39.4 47.7 51.4 76.3 12.5 29.6 18.9 61 18.9 93.4 0 32.4-6.3 63.8-18.9 93.4-12 28.6-29.3 54.3-51.4 76.3z" style="fill:#fff"/></svg>