<svg version="1.1" xmlns="http://www.w3.org/2000/svg" x="0" y="0" viewBox="0 0 512 512" xml:space="preserve"><path d="M431 483.6V512H81v-28.4c0-5.3 2.6-10.3 7.1-13.3L168 417 83.5 45.9c-1.6-7.1-5.6-13.4-11.3-17.9L50.5 10.7C46 7.2 48.5 0 54.2 0H415l-71 417 79.9 53.3c4.4 2.9 7.1 7.9 7.1 13.3z" opacity=".1" fill="#fff"/><path d="M235 381h42v4h-42v-4zm0-91h42v-4h-42v4zm0-95h42v-4h-42v4zm21 167h-21v4h21v-4zm0-19h-21v4h21v-4zm0-19h-21v4h21v-4zm0-19h-21v4h21v-4zm0-38h-21v4h21v-4zm0-19h-21v4h21v-4zm0-19h-21v4h21v-4zm0-19h-21v4h21v-4zm0-38h-21v4h21v-4zm175 311.6V512H81v-28.4c0-5.3 2.6-10.3 7.1-13.3L168 417 83.5 45.9c-1.6-7.1-5.6-13.4-11.3-17.9L50.5 10.7C46 7.2 48.5 0 54.2 0H415l-71 417 79.9 53.3c4.4 2.9 7.1 7.9 7.1 13.3zM235 100h42v-4h-42v4zm0 19h21v-4h-21v4zm0 19h21v-4h-21v4zm0 19h21v-4h-21v4zm100 217.4L370.8 164h-244l48.3 212.1c3.3 14.6 16.3 24.9 31.2 24.9h97.2c15.6 0 28.9-11.2 31.5-26.6z" fill="#fff"/></svg>