<svg version="1.1" xmlns="http://www.w3.org/2000/svg" x="0" y="0" viewBox="0 0 512 512" xml:space="preserve"><path d="M434.2 262.2C470.7 224.2 512 181 512 140c0-51.8-42.2-94-94-94-3.7 0-7.4.2-10.9.6L415 0H54.2c-5.7 0-8.2 7.2-3.7 10.7L72.2 28c5.7 4.5 9.7 10.8 11.3 17.9L168 417l-79.9 53.3c-4.5 3-7.1 8-7.1 13.3V512h350v-28.4c0-5.3-2.7-10.3-7.1-13.3L344 417l15.7-92.5c3.1 19.4 9.4 32.5 10.4 34.4 3.5 7 10.6 11.1 17.9 11.1 3 0 6.1-.7 8.9-2.1 9.9-4.9 13.9-17 8.9-26.8-.1-.1-4.5-9.2-6.7-22.9-1.5-9.2 1.1-18.5 7.1-25.6 7.7-9.2 18.9-20.9 28-30.4zm-66.4 15l32-188c5.7-2 11.8-3.2 18.2-3.2 29.8 0 54 24.2 54 54 0 6.9-3.5 19.8-19.9 41.9-13.3 17.7-31.1 36.3-46.7 52.7-17.1 17.7-29.7 31.1-37.6 42.6z" opacity=".1" fill="#fff"/><path d="M434.2 262.2C470.7 224.2 512 181 512 140c0-51.8-42.2-94-94-94-3.7 0-7.4.2-10.9.6L415 0H54.2c-5.7 0-8.2 7.2-3.7 10.7L72.2 28c5.7 4.5 9.7 10.8 11.3 17.9L168 417l-79.9 53.3c-4.5 3-7.1 8-7.1 13.3V512h350v-28.4c0-5.3-2.7-10.3-7.1-13.3L344 417l15.7-92.5c3.1 19.4 9.4 32.5 10.4 34.4 3.5 7 10.6 11.1 17.9 11.1 3 0 6.1-.7 8.9-2.1 9.9-4.9 13.9-17 8.9-26.8-.1-.1-4.5-9.2-6.7-22.9-1.5-9.2 1.1-18.5 7.1-25.6 7.7-9.2 18.9-20.9 28-30.4zM235 115h21v4h-21v-4zm0 19h21v4h-21v-4zm0 19h21v4h-21v-4zm0 19h21v4h-21v-4zm0 38h21v4h-21v-4zm0 19h21v4h-21v-4zm0 19h21v4h-21v-4zm0 19h21v4h-21v-4zm0 38h21v4h-21v-4zm0 19h21v4h-21v-4zm0 19h21v4h-21v-4zm0 19h21v4h-21v-4zm42 23h-42v-4h42v4zm0-95h-42v-4h42v4zm0-95h-42v-4h42v4zm0-95h-42v-4h42v4zm90.8 177.2l32-188c5.7-2 11.8-3.2 18.2-3.2 29.8 0 54 24.2 54 54 0 6.9-3.5 19.8-19.9 41.9-13.3 17.7-31.1 36.3-46.7 52.7-17.1 17.7-29.7 31.1-37.6 42.6z" fill="#fff"/></svg>