<svg version="1.1" xmlns="http://www.w3.org/2000/svg" x="0" y="0" viewBox="0 0 512 512" xml:space="preserve"><path d="M452 287.4c33.1 0 60-26.9 60-60s-26.9-60-60-60c-10.9 0-21.1 2.9-29.9 8l-8.1-14c17.9-10.4 29.9-29.8 29.9-51.9 0-33.1-26.8-60-60-60-25.9 0-48 16.5-56.4 39.5l-15.1-5.5c2.3-6.4 3.6-13.3 3.6-20.5 0-33.1-26.9-60-60-60s-60 26.9-60 60c0 7.2 1.3 14.1 3.6 20.5L184.5 89c-8.4-23-30.5-39.5-56.4-39.5-33.1 0-60 26.9-60 60 0 22.2 12.1 41.6 30 51.9l-8.1 14c-8.8-5.1-19.1-8.1-30-8.1-33.1 0-60 26.9-60 60s26.9 60 60 60c3.6 0 7-.3 10.4-.9l2.8 15.9c-28.2 4.9-49.7 29.5-49.7 59.1 0 33.1 26.9 60 60 60 18.4 0 34.9-8.3 45.9-21.4l12.4 10.4c-8.7 10.4-14 23.9-14 38.5 0 33.1 26.9 60 60 60s60-26.9 60-60H264c0 33.1 26.9 60 60 60s60-26.9 60-60c0-14.7-5.3-28.1-14-38.5l12.4-10.4c11 13.1 27.5 21.4 45.9 21.4 33.1 0 60-26.9 60-60 0-29.5-21.4-54.1-49.6-59.1l2.8-15.9c3.5.7 7 1 10.5 1zm0-88c15.4 0 28 12.6 28 28s-12.6 28-28 28-28-12.6-28-28 12.6-28 28-28zM383.9 81.5c15.4 0 28 12.6 28 28s-12.6 28-28 28-28-12.6-28-28 12.6-28 28-28zM256 35c15.4 0 28 12.6 28 28s-12.6 28-28 28-28-12.6-28-28 12.6-28 28-28zM128.1 81.5c15.4 0 28 12.6 28 28s-12.6 28-28 28-28-12.6-28-28 12.5-28 28-28zM32 227.4c0-15.4 12.6-28 28-28s28 12.6 28 28-12.6 28-28 28-28-12.6-28-28zm51.6 162.1c-15.4 0-28-12.6-28-28s12.6-28 28-28 28 12.6 28 28-12.6 28-28 28zM187.9 477c-15.4 0-28-12.6-28-28s12.6-28 28-28 28 12.6 28 28-12.6 28-28 28zm136.2 0c-15.4 0-28-12.6-28-28s12.5-28 28-28c15.4 0 28 12.6 28 28s-12.6 28-28 28zm132.3-115.5c0 15.4-12.6 28-28 28s-28-12.6-28-28 12.5-28 28-28c15.4 0 28 12.6 28 28zM405.6 306c-21.8 9-37.2 30.5-37.2 55.5 0 2.8.2 5.5.6 8.1l-26.5 22.2c-5.8-1.9-11.9-2.9-18.3-2.9-21.3 0-40.1 11.2-50.7 28h-34.7c-10.6-16.8-29.3-28-50.7-28-6.4 0-12.6 1-18.3 2.9L143 369.6c.4-2.7.6-5.4.6-8.1 0-25.1-15.4-46.6-37.3-55.5l-6-34.2c12.1-11 19.7-26.8 19.7-44.4 0-10.1-2.5-19.5-6.9-27.9l17.4-30.1c27.7-1.1 50.6-21 56.2-47.2l32.5-11.8c10.2 7.9 22.9 12.6 36.7 12.6 13.8 0 26.5-4.7 36.7-12.6l32.6 11.9c5.7 26.2 28.6 46.1 56.3 47.2l17.3 30c-4.4 8.4-6.9 17.9-6.9 28 0 17.6 7.6 33.4 19.7 44.4l-6 34.1z" fill="#fff"/></svg>