<svg version="1.1" xmlns="http://www.w3.org/2000/svg" x="0" y="0" viewBox="0 0 512 512" style="enable-background:new 0 0 512 512" xml:space="preserve"><path d="m407.77 426.79-111-308.94a181.973 181.973 0 0 1-10.72-61.56V32h11.45c2.21 0 4-1.79 4-4V4c0-2.21-1.79-4-4-4h-83c-2.21 0-4 1.79-4 4v24c0 2.21 1.79 4 4 4h11.46v24.28c0 20.99-3.63 41.81-10.72 61.56l-111 308.94C89.32 468.28 120.07 512 164.16 512h183.68c44.09 0 74.84-43.72 59.93-85.21zm-14.42 53.62c-10.56 14.97-27.98 23.59-46.3 23.59h-182.1c-18.32 0-35.74-8.62-46.3-23.59-10.6-15.04-13.11-33.6-6.89-50.92l111-308.94a189.559 189.559 0 0 0 11.19-64.26V32c0-4.42-3.58-8-8-8h-3.46c-2.21 0-4-1.79-4-4v-8c0-2.21 1.79-4 4-4h67c2.21 0 4 1.79 4 4v8c0 2.21-1.79 4-4 4h-3.45c-4.42 0-8 3.58-8 8v24.29c0 21.99 3.77 43.61 11.19 64.27l111 308.94c6.23 17.31 3.72 35.87-6.88 50.91z" style="fill:#fff"/></svg>