<svg version="1.1" xmlns="http://www.w3.org/2000/svg" x="0" y="0" viewBox="0 0 512 512" style="enable-background:new 0 0 512 512" xml:space="preserve"><path d="m415.77 426.78-111-308.94a182.176 182.176 0 0 1-10.72-61.56V55h19.45c2.21 0 4-1.79 4-4V4c0-2.21-1.79-4-4-4h-115c-2.21 0-4 1.79-4 4v47c0 2.21 1.79 4 4 4h19.46v1.28c0 20.99-3.63 41.81-10.72 61.56l-111 308.94C81.32 468.28 112.07 512 156.16 512h199.68c44.1 0 74.85-43.72 59.93-85.22zm-20.87 48.9c-9.03 12.89-24 20.32-39.73 20.32H156.85c-15.74 0-30.7-7.43-39.73-20.32-9.01-12.86-11.13-28.7-5.81-43.49l111-308.94a197.563 197.563 0 0 0 11.66-66.97V55c0-8.84-7.16-16-16-16h-3.46c-2.21 0-4-1.79-4-4V20c0-2.21 1.79-4 4-4h83c2.21 0 4 1.79 4 4v15c0 2.21-1.79 4-4 4h-3.45c-8.84 0-16 7.16-16 16v1.28c0 22.88 3.92 45.41 11.66 66.97l111 308.94c5.3 14.79 3.18 30.63-5.82 43.49z" style="fill:#fff"/></svg>