<svg version="1.1" xmlns="http://www.w3.org/2000/svg" x="0" y="0" viewBox="0 0 512 512" xml:space="preserve"><path d="M398 0H113.9c-10.7 0-20.2 6.8-23.7 16.9L83 38.2c-1.1 3.2.6 6.6 3.8 7.6l16.1 4.6C116.1 54.8 125 67 125 80.9V464c0 26.5 21.5 48 48 48h166c26.5 0 48-21.5 48-48V39.8c0-7.6 2.7-15 7.7-20.8l7.8-9.1c3.3-3.9.6-9.9-4.5-9.9z" opacity=".1" fill="#fff"/><path d="M398 0H113.9c-10.7 0-20.2 6.8-23.7 16.9L83 38.2c-1.1 3.2.6 6.6 3.8 7.6l16.1 4.6C116.1 54.8 125 67 125 80.9V464c0 26.5 21.5 48 48 48h166c26.5 0 48-21.5 48-48V39.8c0-7.6 2.7-15 7.7-20.8l7.8-9.1c3.3-3.9.6-9.9-4.5-9.9zM235 115h21v4h-21v-4zm0 19h21v4h-21v-4zm0 19h21v4h-21v-4zm0 19h21v4h-21v-4zm0 38h21v4h-21v-4zm0 19h21v4h-21v-4zm0 19h21v4h-21v-4zm0 19h21v4h-21v-4zm0 38h21v4h-21v-4zm0 19h21v4h-21v-4zm0 19h21v4h-21v-4zm0 19h21v4h-21v-4zm0 38h21v4h-21v-4zm0 19h21v4h-21v-4zm0 19h21v4h-21v-4zm0 19h21v4h-21v-4zm42 23h-42v-4h42v4zm0-95h-42v-4h42v4zm0-95h-42v-4h42v4zm0-95h-42v-4h42v4zm0-95h-42v-4h42v4z" fill="#fff"/></svg>