<svg version="1.1" xmlns="http://www.w3.org/2000/svg" x="0" y="0" viewBox="0 0 512 512" xml:space="preserve"><path d="M309.5 457.9c.2-.2.4-.5.6-.7.5-.5 1-1.1 1.4-1.7.2-.3.5-.5.7-.8.6-.7 1.1-1.4 1.6-2.1.1-.1.2-.3.3-.4.6-.8 1.1-1.6 1.7-2.4.2-.3.4-.6.6-.8.4-.6.8-1.3 1.2-1.9.2-.3.3-.5.5-.8.5-.9 1-1.7 1.5-2.6.1-.2.2-.4.3-.7.4-.7.7-1.4 1.1-2.2.1-.3.3-.6.4-.9.4-.8.7-1.6 1.1-2.3.1-.2.2-.4.2-.5.4-.9.8-1.9 1.1-2.9l.3-.9c.3-.7.5-1.5.8-2.3l.3-.9.9-3c0-.1.1-.3.1-.4l.6-2.7c.1-.3.1-.6.2-.9.2-.8.3-1.7.5-2.6 0-.2.1-.5.1-.7.2-1.1.3-2.1.4-3.2 0-.3 0-.5.1-.8.1-.9.1-1.7.2-2.6 0-.3 0-.6.1-.9.1-1.1.1-2.2.1-3.3V3c0-1.7-1.3-3-3-3h-24c-1.7 0-3 1.3-3 3v405.2c0 23.5-19.1 43.3-42.5 43.3h-.7c-23.1-.4-41.8-19.3-41.8-42.5V3c0-1.7-1.3-3-3-3h-24c-1.7 0-3 1.3-3 3v405.1c0 1.1 0 2.2.1 3.3 0 .3 0 .6.1 1 0 .8.1 1.7.2 2.5 0 .3 0 .6.1.9.1 1.1.2 2.1.4 3.2 0 .2.1.4.1.7.1.9.3 1.7.5 2.6.1.3.1.7.2 1 .2.8.4 1.7.6 2.5.1.2.1.5.2.7.3 1 .5 2 .8 3 .1.3.2.6.3 1 .2.7.5 1.4.7 2.1.1.4.2.7.4 1.1l.9 2.4c.1.3.3.7.4 1 .3.7.6 1.5 1 2.2l.6 1.2c.3.6.6 1.1.8 1.7l.6 1.2c.4.8.9 1.6 1.4 2.4.2.4.5.8.7 1.2.3.5.6.9.9 1.4.3.4.6.9.9 1.3l.9 1.2c.5.7 1 1.5 1.6 2.2l.9 1.2c.4.5.7.9 1.1 1.4.3.3.5.6.8.9.4.5.8.9 1.2 1.4.2.2.4.4.6.7.8.9 1.7 1.8 2.6 2.7l.5.5c.5.5 1 .9 1.5 1.4.2.2.4.4.6.5 1.7 1.5 3.4 2.9 5.2 4.2.2.1.3.2.5.4.6.4 1.2.8 1.8 1.3.1.1.3.2.4.3 1.9 1.3 3.9 2.5 6 3.6.2.1.3.2.5.3.7.4 1.4.7 2 1 9.2 4.5 19.6 7 30.5 7.1h.5c11.2 0 21.8-2.5 31.3-7.1.3-.1.5-.3.8-.4.7-.3 1.4-.7 2-1 .3-.2.7-.4 1-.5.7-.4 1.3-.7 2-1.1.2-.1.5-.3.7-.4.8-.5 1.7-1 2.5-1.6l.9-.6c.6-.4 1.2-.8 1.7-1.2.3-.2.6-.4.9-.7.8-.6 1.6-1.2 2.3-1.8.2-.1.3-.3.5-.4.6-.5 1.2-1.1 1.8-1.6.3-.2.5-.5.8-.7.5-.5 1.1-1 1.6-1.5.2-.2.5-.4.7-.7.5-1.3 1.2-2 1.9-2.8zm-54.1-12.4h.6c20.1 0 36.5-16.7 36.5-37.3V28h-73v381c0 19.8 16.1 36.2 35.9 36.5zm76.6 57.3v4.9c0 2.4-2 4.4-4.4 4.4H318c-2.4 0-4.7-.5-6.9-1.4l-44.5-19.1c-2.2-.9-4.5-1.4-6.9-1.4h-7.4c-2.4 0-4.7.5-6.9 1.4l-44.5 19.1c-2.2.9-4.5 1.4-6.9 1.4h-9.6c-2.4 0-4.4-2-4.4-4.4v-4.9c0-3.3 1.8-6.3 4.8-7.8l33.6-17.2c11 6.1 23.6 9.6 37 9.7h.6c13.7 0 26.5-3.5 37.7-9.7l33.5 17.1c3 1.5 4.8 4.6 4.8 7.9z" opacity=".1" fill="#fff"/><path d="M309.5 457.9c.2-.2.4-.5.6-.7.5-.5 1-1.1 1.4-1.7.2-.3.5-.5.7-.8.6-.7 1.1-1.4 1.6-2.1.1-.1.2-.3.3-.4.6-.8 1.1-1.6 1.7-2.4.2-.3.4-.6.6-.8.4-.6.8-1.3 1.2-1.9.2-.3.3-.5.5-.8.5-.9 1-1.7 1.5-2.6.1-.2.2-.4.3-.7.4-.7.7-1.4 1.1-2.2.1-.3.3-.6.4-.9.4-.8.7-1.6 1.1-2.3.1-.2.2-.4.2-.5.4-.9.8-1.9 1.1-2.9l.3-.9c.3-.7.5-1.5.8-2.3l.3-.9.9-3c0-.1.1-.3.1-.4l.6-2.7c.1-.3.1-.6.2-.9.2-.8.3-1.7.5-2.6 0-.2.1-.5.1-.7.2-1.1.3-2.1.4-3.2 0-.3 0-.5.1-.8.1-.9.1-1.7.2-2.6 0-.3 0-.6.1-.9.1-1.1.1-2.2.1-3.3V3c0-1.7-1.3-3-3-3h-24c-1.7 0-3 1.3-3 3v405.2c0 23.5-19.1 43.3-42.5 43.3h-.7c-23.1-.4-41.8-19.3-41.8-42.5V3c0-1.7-1.3-3-3-3h-24c-1.7 0-3 1.3-3 3v405.1c0 1.1 0 2.2.1 3.3 0 .3 0 .6.1 1 0 .8.1 1.7.2 2.5 0 .3 0 .6.1.9.1 1.1.2 2.1.4 3.2 0 .2.1.4.1.7.1.9.3 1.7.5 2.6.1.3.1.7.2 1 .2.8.4 1.7.6 2.5.1.2.1.5.2.7.3 1 .5 2 .8 3 .1.3.2.6.3 1 .2.7.5 1.4.7 2.1.1.4.2.7.4 1.1l.9 2.4c.1.3.3.7.4 1 .3.7.6 1.5 1 2.2l.6 1.2c.3.6.6 1.1.8 1.7l.6 1.2c.4.8.9 1.6 1.4 2.4.2.4.5.8.7 1.2.3.5.6.9.9 1.4.3.4.6.9.9 1.3l.9 1.2c.5.7 1 1.5 1.6 2.2l.9 1.2c.4.5.7.9 1.1 1.4.3.3.5.6.8.9.4.5.8.9 1.2 1.4.2.2.4.4.6.7.8.9 1.7 1.8 2.6 2.7l.5.5c.5.5 1 .9 1.5 1.4.2.2.4.4.6.5 1.7 1.5 3.4 2.9 5.2 4.2.2.1.3.2.5.4.6.4 1.2.8 1.8 1.3.1.1.3.2.4.3 1.9 1.3 3.9 2.5 6 3.6.2.1.3.2.5.3.7.4 1.4.7 2 1 9.2 4.5 19.6 7 30.5 7.1h.5c11.2 0 21.8-2.5 31.3-7.1.3-.1.5-.3.8-.4.7-.3 1.4-.7 2-1 .3-.2.7-.4 1-.5.7-.4 1.3-.7 2-1.1.2-.1.5-.3.7-.4.8-.5 1.7-1 2.5-1.6l.9-.6c.6-.4 1.2-.8 1.7-1.2.3-.2.6-.4.9-.7.8-.6 1.6-1.2 2.3-1.8.2-.1.3-.3.5-.4.6-.5 1.2-1.1 1.8-1.6.3-.2.5-.5.8-.7.5-.5 1.1-1 1.6-1.5.2-.2.5-.4.7-.7.5-1.3 1.2-2 1.9-2.8zm-54 15.6c-35.3-.3-64-29.6-64-65.4V292h14v117c0 27.4 22.3 50 49.6 50.5h.9c27.9 0 50.5-23 50.5-51.3V292h14v117c0 35.6-28.9 64.5-64.5 64.5h-.5zm-.1-28h.6c20.1 0 36.5-16.7 36.5-37.3V28h-73v381c0 19.8 16.1 36.2 35.9 36.5zM225.5 42h61v4h-61v-4zm40 61h-21v-4h23v4h-2zm2 15v4h-23v-4h23zm-2-34h-21v-4h23v4h-2zm0-19h-21v-4h23v4h-2zm-40 72h61v4h-61v-4zm40 61h-21v-4h23v4h-2zm2 15v4h-23v-4h23zm-2-34h-21v-4h23v4h-2zm0-19h-21v-4h23v4h-2zm-40 72h61v4h-61v-4zm40 61h-21v-4h23v4h-2zm2 15v4h-23v-4h23zm-2-34h-21v-4h23v4h-2zm0-19h-21v-4h23v4h-2zm-40 72h61v4h-61v-4zm40 61h-21v-4h23v4h-2zm2 15v4h-23v-4h23zm-2-34h-21v-4h23v4h-2zm0-19h-21v-4h23v4h-2zm-40 72h61v4h-61v-4zM332 502.8v4.9c0 2.4-2 4.4-4.4 4.4H318c-2.4 0-4.7-.5-6.9-1.4l-44.5-19.1c-2.2-.9-4.5-1.4-6.9-1.4h-7.4c-2.4 0-4.7.5-6.9 1.4l-44.5 19.1c-2.2.9-4.5 1.4-6.9 1.4h-9.6c-2.4 0-4.4-2-4.4-4.4v-4.9c0-3.3 1.8-6.3 4.8-7.8l33.6-17.2c11 6.1 23.6 9.6 37 9.7h.6c13.7 0 26.5-3.5 37.7-9.7l33.5 17.1c3 1.5 4.8 4.6 4.8 7.9z" fill="#fff"/></svg>