<svg version="1.1" xmlns="http://www.w3.org/2000/svg" x="0" y="0" viewBox="0 0 512 512" xml:space="preserve"><path d="M512 317.1c-21.8-20.7-46.1-36-70.7-45V119.4c0-23.3-46.5-43.4-112.9-52v-14H184v14C117.7 76 71.1 96 71.1 119.4v152.7c-24.6 8.9-48.9 24.3-70.7 45 44 97.4 142 165.2 255.8 165.2S468 414.5 512 317.1z" opacity=".1" fill="#fff"/><path d="M128.5 337.7h2.5v17.1h-6.3v-9.9h1.2c1.4 0 2.6-1.2 2.6-2.6v-4.6zm-3.8 25.9h6.3v-6.3h-6.3v6.3zm-12-189c0 3.9-3.3 7.2-7.2 7.2s-7.2-3.3-7.2-7.2 3.3-7.2 7.2-7.2 7.2 3.3 7.2 7.2zm-5.5 0c0-.9-.8-1.7-1.7-1.7-.9 0-1.7.8-1.7 1.7s.8 1.7 1.7 1.7c.9 0 1.7-.7 1.7-1.7zm2.9 167.7v-4.6h-2.6v17.1h6.4v-9.9h-1.2c-1.4 0-2.6-1.1-2.6-2.6zm-2.6 21.3h6.4v-6.3h-6.4v6.3zm26.3 0h6.3v-6.3h-6.3v6.3zm-21.1-171.9c0 3.9-3.3 7.2-7.2 7.2s-7.2-3.3-7.2-7.2 3.3-7.2 7.2-7.2 7.2 3.2 7.2 7.2zm-5.5 0c0-.9-.8-1.7-1.7-1.7-.9 0-1.7.8-1.7 1.7s.8 1.7 1.7 1.7c.9 0 1.7-.8 1.7-1.7zM0 316.2c21.1 47.2 54.9 87.5 97 116.6.1-2.8.1-5.5.1-8.3 0-53.5-12.4-104.4-34.5-149.5-21.8 9-43.2 23-62.6 41.2zm186 157.2l-8.7-2.4c-2.9-2.2-4.8-5.7-4.8-9.7 0-6.7 5.5-12.2 12.2-12.2s12.2 5.5 12.2 12.2c-.1 6.2-4.8 11.4-10.9 12.1zm-1.4-2.5c5.2 0 9.5-4.3 9.5-9.5s-4.3-9.5-9.5-9.5-9.5 4.3-9.5 9.5 4.3 9.5 9.5 9.5zm166.2-118.2h-28.9v8h28.9v-8zM511.6 318c-19.9-19.1-41.9-33.7-64.4-43-22.1 45.3-34.5 96-34.5 149.5 0 3.4.1 6.7.2 10.1 42.7-28.9 77.1-69.2 98.7-116.6zM397.1 191.7c0-3.9 3.3-7.2 7.2-7.2s7.2 3.3 7.2 7.2-3.3 7.2-7.2 7.2-7.2-3.3-7.2-7.2zm5.4 0c0 .9.8 1.7 1.7 1.7.9 0 1.7-.8 1.7-1.7s-.8-1.7-1.7-1.7c-.9-.1-1.7.7-1.7 1.7zm-5.4-17.1c0-3.9 3.3-7.2 7.2-7.2s7.2 3.3 7.2 7.2-3.3 7.2-7.2 7.2-7.2-3.2-7.2-7.2zm5.4 0c0 .9.8 1.7 1.7 1.7.9 0 1.7-.8 1.7-1.7s-.8-1.7-1.7-1.7c-.9 0-1.7.8-1.7 1.7zm-64.3 197.8h13.6v-8h-13.6v8zm16.3-11.8h13.6v-8h-13.6v8zm-116.1 3h6.3v-6.3h-6.3v6.3zm20.9-21.3c0 1.4-1.2 2.6-2.6 2.6h-1.2v9.9h6.4v-17.1h-2.6v4.6zm8.3 139.7c-3.8.2-7.6.3-11.4.3-19.7 0-39-2-57.5-5.9 4-3.7 6.5-9.1 6.5-15 0-11.4-9.2-20.5-20.5-20.5-11.4 0-20.5 9.2-20.5 20.5 0 2 .3 3.9.8 5.7-22.3-7.7-43.4-18.1-62.8-30.9.1-3.9.2-7.8.2-11.8 0-53.5-12-104.9-34.8-151.6.8-.3 1.4-.5 2.2-.8V119.4c0-19.1 31-36 78.5-46.2v-19c0-1.4 1.2-2.6 2.6-2.6h11.8c1.4 0 2.6 1.2 2.6 2.6v6.7c23.7-19.4 55.1-31.1 89.6-31.1s65.9 11.8 89.6 31.1v-6.7c0-1.4 1.2-2.6 2.6-2.6h11.8c1.4 0 2.6 1.2 2.6 2.6v19c47.5 10.2 78.5 27 78.5 46.1V272c.8.3 1.4.5 2.2.8-22.8 46.7-34.8 98.2-34.8 151.6 0 4.5.1 9 .3 13.4-9.3 6-19 11.4-29 16.3l-11.1-6.7 4.8-8.1c.7-1 .3-2.5-.8-3.1l-65.8-39.8c-8-4.7-18.3-2.2-23.2 5.8-4.8 8-2.2 18.4 5.8 23.3l65.2 39.4c-23.2 8.6-47.9 14.2-73.5 16.3 0-.1.1-.2.1-.3V461c0-.8-.7-1.3-1.3-1.3h-10.5c-.8 0-1.3.5-1.3 1.3v20c-.1.4.2.8.5 1zm12.5-102.4c0-.7-.7-1.3-1.3-1.3h-10.5c-.8 0-1.3.7-1.3 1.3v19.9c0 .8.5 1.3 1.3 1.3h10.5c.7 0 1.3-.5 1.3-1.3v-19.9zm95.8-26.2c0-2.9-2.4-5.2-5.2-5.2h-51.4c-2.9 0-5.2 2.4-5.2 5.2v18.3c0 2.9 2.4 5.2 5.2 5.2h51.4c2.9 0 5.2-2.4 5.2-5.2v-18.3zm17.8-153.6c0 1.4 1.2 2.6 2.6 2.6h16.1c1.4 0 2.6-1.2 2.6-2.6v-33.4c0-1.4-1.2-2.6-2.6-2.6h-16.1c-1.4 0-2.6 1.2-2.6 2.6v33.4zm-272.2-26.2c0 1.6.1 3 .1 4.6 2.6-64.3 61.3-115.8 133.3-115.8s130.7 51.4 133.3 115.8c.1-1.6.1-3 .1-4.6 0-66.4-59.8-120.3-133.4-120.3s-133.4 53.9-133.4 120.3zm-8 28.8c1.4 0 2.6-1.2 2.6-2.6v-33.4c0-1.4-1.2-2.6-2.6-2.6H97.4c-1.4 0-2.6 1.2-2.6 2.6v33.4c0 1.4 1.2 2.6 2.6 2.6h16.1zm98.9 175.5c0-2.9-2.4-5.2-5.2-5.2H118c-2.9 0-5.2 2.4-5.2 5.2v54c0 2.9 2.4 5.2 5.2 5.2h89.2c2.9 0 5.2-2.4 5.2-5.2v-54zm52.2-40.2c0-1.4-1.2-2.6-2.6-2.6h-2.6c-.1-1.4-1.2-2.5-2.6-2.5h-13.2c-1.4 0-2.5 1-2.6 2.5h-2.6c-.4 0-.8.1-1.2.4-.4-.3-.9-.4-1.3-.4h-2.6c-.1-1.4-1.2-2.5-2.6-2.5h-13.2c-1.4 0-2.5 1-2.6 2.5h-2.6c-.4 0-.8.1-1.2.4-.4-.3-.9-.4-1.3-.4H207c-.1-1.4-1.2-2.5-2.6-2.5h-13.2c-1.4 0-2.5 1-2.6 2.5H186c-.4 0-.8.1-1.2.4-.4-.3-.9-.4-1.3-.4h-2.6c-.1-1.4-1.2-2.5-2.6-2.5H165c-1.4 0-2.5 1-2.6 2.5h-2.6c-.4 0-.8.1-1.2.4-.4-.3-.9-.4-1.3-.4h-2.6c-.1-1.4-1.2-2.5-2.6-2.5h-13.2c-1.4 0-2.5 1-2.6 2.5h-2.6c-.4 0-.8.1-1.2.4-.4-.3-.9-.4-1.3-.4h-2.6c-.1-1.4-1.2-2.5-2.6-2.5h-13.2c-1.4 0-2.5 1-2.6 2.5h-2.6c-1.4 0-2.6 1.2-2.6 2.6v25.9c0 1.4 1.2 2.6 2.6 2.6h23.7c.5 0 .9-.1 1.3-.4.3.3.8.4 1.2.4h23.7c.5 0 .9-.1 1.3-.4.3.3.8.4 1.2.4h23.7c.5 0 .9-.1 1.3-.4.3.3.8.4 1.2.4h23.7c.5 0 .9-.1 1.3-.4.3.3.8.4 1.2.4h23.7c.5 0 .9-.1 1.3-.4.3.3.8.4 1.2.4h23.7c1.4 0 2.6-1.2 2.6-2.6v-25.9h-.3zm1-12.1h19c2.2 0 4.3-.9 5.8-2.5l15.2-16.3c48.1-18.2 82-61.1 82-111v-5.2c0-1.6-.1-3-.1-4.6 0-46-34.5-85-74.5-103.1-17.5-7.9-36.6-12.4-55.8-12.8-44.1-.9-89.5 19.7-115.3 55.9-12.5 17.6-20 38.6-20.8 60.2-.1 1.6-.1 3-.1 4.6v5.2c0 50.1 34.1 93.1 82.4 111.2l15 16.2c1.4 1.6 3.5 2.5 5.8 2.5h40.9v-.3h.5zm1.4 114.6c0 .7.5 1.3 1.3 1.3h10.5c.7 0 1.3-.7 1.3-1.3v-19.9c0-.7-.7-1.3-1.3-1.3h-10.5c-.8 0-1.3.7-1.3 1.3v19.9zm116.1-244.4c0-63.6-57.4-115.1-128.2-115.1s-128.2 51.5-128.2 115.1 57.4 115.1 128.2 115.1 128.2-51.5 128.2-115.1zM255.5 363.6h6.4v-6.3h-6.4v6.3zm-14.6-21.3v-4.6h-2.5v17.1h6.3v-9.9h-1.2c-1.4 0-2.6-1.1-2.6-2.6zm-11.5 21.3h6.3v-6.3h-6.3v6.3zm3.8-21.3c0 1.4-1.2 2.6-2.6 2.6h-1.2v9.9h6.3v-17.1h-2.5v4.6zm102 92.4c2.5-4.7 8.4-6.4 12.9-3.7l11.6 7.2c1 .7 1.4 2.1.8 3.1l-7.1 11.8c-.7 1-2.1 1.4-3.1.8l-11.5-6.9c-4.1-2.5-5.8-7.9-3.6-12.3zm4.2 10.8c3.7 2.1 8.2.9 10.5-2.6 2.1-3.7.9-8.2-2.6-10.5-3.7-2.2-8.4-1-10.5 2.6-2.1 3.7-1 8.3 2.6 10.5zm27.8 13.9l-5.1-3.1-4.1 6.8c3.1-1.1 6.2-2.4 9.2-3.7zm-31-33.4l1.2-2c.3-.5.1-1.3-.4-1.6l-17.7-10.7c-.5-.3-1.3-.1-1.6.4l-1.2 2c-.3.5-.1 1.3.4 1.6l17.7 10.7c.6.3 1.4.2 1.6-.4zm-31.6-27.6c-6.9-4.2-16-2-20.1 5-4.2 6.9-2 16 5 20.1s16 2 20.1-5c4.1-6.9 1.9-15.9-5-20.1zm26.8 31.3c.3-.5.1-1.3-.4-1.6l-15.7-9.5c-.5-.3-1.3-.1-1.6.4l-1.2 2c-.3.5-.1 1.3.4 1.6l15.7 9.5c.5.4 1.2.1 1.6-.4l1.2-2zm-22.6-.3l17.7 10.7c.5.3 1.2.1 1.6-.4l1.2-2c.3-.5.1-1.3-.4-1.6l-17.7-10.7c-.5-.3-1.3-.1-1.6.4l-1.2 2c-.3.6-.2 1.4.4 1.6zm-157.9-65.8h6.3v-6.3h-6.3v6.3zm9 0h6.3v-6.3h-6.3v6.3zm54.8-21.3v-4.6h-2.5v17.1h6.3v-9.9h-1.2c-1.4 0-2.6-1.1-2.6-2.6zm-33.8 0c0 1.4-1.2 2.6-2.6 2.6h-1.2v9.9h6.3v-17.1h-2.5v4.6zm-3.8 21.3h6.3v-6.3h-6.3v6.3zm-40.8-21.3v-4.6h-2.5v17.1h6.3v-9.9h-1.2c-1.5 0-2.6-1.1-2.6-2.6zm18.4 0c0 1.4-1.2 2.6-2.6 2.6h-1.2v9.9h6.3v-17.1h-2.5v4.6zm7.7 0v-4.6h-2.5v17.1h6.3v-9.9H165c-1.4 0-2.6-1.1-2.6-2.6zm49.8 21.3h6.3v-6.3h-6.3v6.3zm-5.2-21.3c0 1.4-1.2 2.6-2.6 2.6h-1.2v9.9h6.3v-17.1H207v4.6zm-3.8 21.3h6.3v-6.3h-6.3v6.3zm-14.6-21.3v-4.6h-2.5v17.1h6.3v-9.9h-1.2c-1.5 0-2.6-1.1-2.6-2.6zm-2.5 21.3h6.3v-6.3h-6.3v6.3z" fill="#fff"/></svg>