<svg version="1.1" xmlns="http://www.w3.org/2000/svg" x="0" y="0" viewBox="0 0 512 512" xml:space="preserve"><path d="M288 102h-3V89.2c0-3.4-1.7-6.8-4.9-9.7L260 61.4V2c0-1.1-.9-2-2-2h-4c-1.1 0-2 .9-2 2v59.4l-20.1 18.1c-3.2 2.9-4.9 6.3-4.9 9.7V102h-3c-1.1 0-2 .9-2 2v34c0 1.1.9 2 2 2h3v372h58V140h3c1.1 0 2-.9 2-2v-34c0-1.1-.9-2-2-2z" opacity=".1" fill="#fff"/><path d="M231.9 269.5c6.7 12.1 16.1 24.8 16.1 37.6V512h-70l2.3-35.1 2.5-39.2c.4-6.6 1.2-13.1 2.4-19.7 1-5.7 2.2-11.3 3.8-16.9l38-140.4 4.9 8.8zm99.8 207.4-2.5-39.2c-.4-6.6-1.2-13.1-2.4-19.7-1-5.7-2.2-11.3-3.8-16.9l-38-140.4-4.9 8.9c-6.7 12.1-16.1 24.8-16.1 37.6V512h70l-2.3-35.1zm-59.3-202.1c-6.1 10.3-12.4 21-12.4 32.3V512h-8V307.1c0-11.4-6.3-22-12.4-32.4-1.5-2.5-2.9-4.8-4.2-7.2l-4.9-8.9-3.5-6.3V140h-3c-1.1 0-2-.9-2-2v-34c0-1.1.9-2 2-2h3V89.2c0-3.4 1.7-6.8 4.9-9.7L252 61.4V2c0-1.1.9-2 2-2h4c1.1 0 2 .9 2 2v59.4l20.1 18.1c3.2 2.9 4.9 6.3 4.9 9.7V102h3c1.1 0 2 .9 2 2v34c0 1.1-.9 2-2 2h-3v112.4l-3.5 6.3-4.9 8.9c-1.3 2.4-2.7 4.7-4.2 7.2zM268 109.7c0-1.1-.9-2-2-2h-20c-1.1 0-2 .9-2 2v20.7c0 1.1.9 2 2 2h20c1.1 0 2-.9 2-2v-20.7z" fill="#fff"/></svg>