<svg version="1.1" xmlns="http://www.w3.org/2000/svg" x="0" y="0" viewBox="0 0 512 512" xml:space="preserve"><path d="M303 463.3c6.9 0 12.5 5.6 12.5 12.5s-5.6 12.5-12.5 12.5-12.5-5.6-12.5-12.5 5.6-12.5 12.5-12.5zm-55.1-113.7c0 4.6 3.7 8.3 8.3 8.3 4.6 0 8.3-3.7 8.3-8.3 0-4.6-3.7-8.3-8.3-8.3-4.6 0-8.3 3.7-8.3 8.3zM102 475.8c0 6.9 5.6 12.5 12.5 12.5s12.5-5.6 12.5-12.5-5.6-12.5-12.5-12.5-12.5 5.6-12.5 12.5zm284.5 0c0 6.9 5.6 12.5 12.5 12.5s12.5-5.6 12.5-12.5-5.6-12.5-12.5-12.5-12.5 5.6-12.5 12.5zm55.5-47.4c0 3.8 3 6.8 6.8 6.8s6.8-3 6.8-6.8-3-6.8-6.8-6.8-6.8 3-6.8 6.8zm-244 47.4c0 6.9 5.6 12.5 12.5 12.5s12.5-5.6 12.5-12.5-5.6-12.5-12.5-12.5-12.5 5.6-12.5 12.5z" opacity=".1" fill="#fff"/><path d="M448.8 408.8c-8.5 0-15.8 5.5-18.5 13.1H421V416h-19v5.9h-17.8v10.7H402v7.1c-1-.1-2-.1-3-.1-9.1 0-17.3 3.3-23.7 8.8v-8.7h-6.5v-17.8h10.7v-13h-9.2l40-88.9c0-2.7-.7-5.3-2.1-7.9l24.6-5.2v-8.4c1 .8 2.3 1.3 3.7 1.3 3.3 0 5.9-2.6 5.9-5.9 0-2.8-2-5.2-4.7-5.8l7.4-5.6v-.1c8.1-6.6-33.6-74.9-93.3-152.4C292.1 52.3 237.1-5.6 228.6.5L221 6.2l216.4 281.9c-.3 0-.6-.1-.9-.1-3.3 0-5.9 2.6-5.9 5.9 0 1.4.5 2.6 1.2 3.6h-39c-25.8-15.5-77.2-26.1-136.6-26.1S145.3 282 119.5 297.5H73.6v9.4l30 6.3c-1 2.2-1.5 4.5-1.5 6.8l40 88.9h-8v13h10.7v17.8h-6.6v8.7c-6.4-5.5-14.6-8.8-23.7-8.8-20 0-36.2 16.2-36.2 36.2S94.5 512 114.5 512s36.2-16.2 36.2-36.2c0-4.4-.8-8.5-2.2-12.4h28c-1.4 3.9-2.2 8-2.2 12.4 0 20 16.2 36.2 36.2 36.2s36.2-16.2 36.2-36.2c0-7.7-2.4-14.8-6.5-20.7h33.1c-4.1 5.9-6.5 13-6.5 20.7 0 20 16.2 36.2 36.2 36.2s36.2-16.2 36.2-36.2c0-4.4-.8-8.5-2.2-12.4h28c-1.4 3.9-2.2 8-2.2 12.4 0 20 16.2 36.2 36.2 36.2s36.2-16.2 36.2-36.2c0-11.7-5.6-22.1-14.2-28.7v-14.5h8.7c1.9 8.8 9.8 15.4 19.1 15.4 10.8 0 19.6-8.8 19.6-19.6s-8.8-19.6-19.6-19.6zm-334.3 79.5c-6.9 0-12.5-5.6-12.5-12.5s5.6-12.5 12.5-12.5 12.5 5.6 12.5 12.5-5.6 12.5-12.5 12.5zm96 0c-6.9 0-12.5-5.6-12.5-12.5s5.6-12.5 12.5-12.5 12.5 5.6 12.5 12.5-5.6 12.5-12.5 12.5zm45.7-130.4c-4.6 0-8.3-3.7-8.3-8.3 0-4.6 3.7-8.3 8.3-8.3s8.3 3.7 8.3 8.3c0 4.6-3.7 8.3-8.3 8.3zM303 488.3c-6.9 0-12.5-5.6-12.5-12.5s5.6-12.5 12.5-12.5 12.5 5.6 12.5 12.5-5.6 12.5-12.5 12.5zm96 0c-6.9 0-12.5-5.6-12.5-12.5s5.6-12.5 12.5-12.5 12.5 5.6 12.5 12.5-5.6 12.5-12.5 12.5zm49.8-53.1c-3.8 0-6.8-3-6.8-6.8s3-6.8 6.8-6.8 6.8 3 6.8 6.8-3 6.8-6.8 6.8z" fill="#fff"/></svg>