<svg version="1.1" xmlns="http://www.w3.org/2000/svg" x="0" y="0" viewBox="0 0 512 512" xml:space="preserve"><path d="M8 316.9l6.3 9.3c-.3 3.8 2.8 6.9 5.2 9.9 3.5 4.2 6.1 10 3.9 15 2.5-2.4 3.8-5.9 3.6-9.3 2.5 1.8 3.5 4.9 4.1 7.9s.9 6.1 2.6 8.6c2.4 3.7 10.4 1.5 9.6 4.3v.1l-.8 2.9c2.3.7 5.7-3.1 6.3-4.9s5 .3 6.2 1.5c1.2 1.1 4.9.1 5.9-.6.9-.7 1.7 2 1.7 2.8s.6 1.4.8 1.4.4-1 .4-2.3l-.2-1.1-.7-3.6c2.2-1.8 3.9-3.7 3.9-4.2 0-.6-.7-1.5-.9-1.1-.2.4-1-1-1.2-1.5-.2-.4-.6-.8-.7-.8s-.3 1.9-.4 2.6c-.1.7-.6 1.3-.7 1.3-.2 0-1.2-3.2-1.6-4.4-.4-1.3 1.1-2.5 1.9-2.5.8-.1 1.5-5.3 1.5-7.1 0-2-1-4.3-1.4-6 3.5.7 4.9 3.8 5.9 7l2.7 8.7c.5 1.6 1 3.4.4 5-.7 1.6-3 2.4-4.1 1.1-1.7 1.1.1 3.8 2.1 4.2 2 .5 4.4.5 5.4 2.3 1.1 2.2-1.6 4.6-4.1 4.8-2.5.2-5.1-.7-7.5.1-2.3.8-3.9 2.9-4.8 5.1-1.4 3.3-1.9 7.1-1.3 10.7 1.9 10.8 12.4 17.8 17.5 27.5 1.1 2.1 2 4.4 4 5.6 2 1.3 5.3.5 5.6-1.8 7.2 4.2 13.9 9.1 20.2 14.5-1.9-1.7-1.5-8.9-.8-11 .7-2.5 5.1-5.9 5.1-7.9 0-.7-.4-1.4-.6-2.1-.5-1.5.1-3.4 1.3-4.4 2.2.5 2.4 4.7 4.5 4.2.6-.1 1-.7 1.6-.8 2.1-.6 4.2 3.4 5.6 1.8-2-3.8-4-7.5-6-11.3 1.9 1.1 4.4.6 6.3 1.7 2.3 1.2 3 4.2 3 6.7 0 1.4-.2 2.9-.5 4.2 2-.1 4.8.6 4.5 2.6-2.6-2.1-6.8-1.5-8.7 1.1-1.1 1.5-1.5 3.4-2.5 4.9-1 1.6-3.1 2.8-4.6 1.7.6 3.7 1.2 7.7 3.7 10.5 5.1 5.7 15 4.1 20.4 9.5-1.1-4.3-4.6-7.9-8.9-9.1 1.2-.2 2.4-.4 3.7-.6l-2.7-1.8c2.1-1.8 5.6-1.7 7.6.2-4.3 4.8 5.4 3.4 7.3 2.1 1.1-.7 1.6-4.5 2.8-5.2s-1.9-2.7-3.1-3.1c-1.2-.4-2.5.9-2.7 1.6s-1.5-.5-1.8-1-1.3-.3-1.4-.2c-.2.1-2-.3-4-.9l-1.6-.5-1.8-.6c-1.9-.6-3.1-3.3-2.9-4.1.1-.7 1.2-1.1 1.7-.9.5.1 1-1.2 1-1.6s2.1.3 2.9.6c.8.4 2 .2 2.1.1s-.8-2.3-1.2-3.1c-.4-.8 1.9-.4 2.8.2.9.6 4.4 2.5 5.5 2.9s2.2.5 2.3.4-1.1-1.3-1.6-1.8 1.1-6.9-.7-8.6c-1.8-1.6-5.9-8.1-7.9-8.8-2.1-.7-3.3-4.6-3.1-5.7s.7-2.2.9-2.3c.2-.1 4 6.4 5.7 8.7 1.7 2.3 3.6 5.6 4.1 6.1 5.1 5.1 10 10.6 15.8 14.8-1.1-3.1-2.3-6.2-3.4-9.2 1.6 1.5 2.6 3.5 4.1 5.1s3.9 2.7 5.8 1.7c1.3-.6 2-2 3.2-2.7.9-.6 2-.7 3.1-.9 5.2-.7 10.3-1.5 15.5-2.2 2.6-.4 6.3 0 6.6 2.6.9-2.5 3-5.6 5.5-4.6.6.2 1.1.7 1.7 1 1.7.7 3.6-.8 4.1-2.6 1-3.8-.2-10.9-.6-14.9-.1-.9-1-2-1.7-2.2s-1.5 2.3-1.5 3.2c0 .6-6.3-.7-5.6-4.8 1-6.2 2.4-12.3 4.2-18.4.9-3.2 2.1-6.6 4.9-8.5-3.6.6-7.4 1.2-10.6-.4-3.2-1.6-5.2-6.3-2.7-8.9 1.7-1.9 4.7-1.8 7.1-1.1 3.3 1 6.2 2.9 8.4 5.5 7.6-12-10.1-8.8-15.9-11.2 2.8-11.8-4.8-23.3-12-33.1-1.2-1.6-2.5-3.4-4.5-4s-4.6.4-4.7 2.5c-1.2-1.4-1.1-3.7.3-5-.9-1.3-2.5-2.1-4.1-1.9 1 3.3.4 7.1-1.7 10 2.7 1.6 4.8 4.3 5.6 7.4-1.7.9-3.4 1.8-5.2 2.6 3.6 5.1 7.4 10.4 8.2 16.6s-2.3 13.4-8.3 15c-.1-7-3.6-13.9-9.1-18.1-1.2-.9-2.6-1.8-3.2-3.2-.4-1-.4-2.2-.7-3.3-.6-1.9-2.3-3.2-3.7-4.5-4-3.8-6.4-9.3-6.6-14.8-4.3 1.3-7.1 6.1-6.3 10.5-3.3-6.2-2.8-14.2 1.3-19.9-.2 3.3 5 4.6 7.1 2.1s1.1-6.6-1.3-8.8c1.5.7 3.2 1 4.8.9-2.6-4.8-6-9.3-10-13-.9 3-1.7 5.9-2.6 8.9-1.5-3.4-6.6-4.5-9.4-2-1.9-3.9-2.6-8.4-2.1-12.7-2.2.3-4.2 2.2-4.4 4.5-4.4-4.8-2.4-11.7-5.7-15.9-.9-1.1-2.5-1.4-3.9-1.6-6.4-1.1-13.5-5.1-13.5-11.5l18.9-2.4c-3.6-4.8-9.9-7.5-15.8-6.9 3.9-1.1 7.8-2.2 11.7-3.2-5.1-1-9.4-5.3-10.4-10.4-1.1-5.1 1.2-10.7 5.5-13.7-3-2-5.1-5.2-6-8.7 6.3.1 12.5-2.3 17-6.7 1-1 2-2.1 3.4-2.6 6-2.3 9.5 8.5 15.8 9 2.2.1 4.2-1 6.3-1.6 3.8-1.2 8-.6 11.8-1.9 3.8-1.3 7.1-5.8 4.9-9.1 2.6 1.4 3.5 5.1 2 7.6l7.5-2.1c-.5 3.5 4.1 5.9 7.5 4.7 3.4-1.1 5.5-4.3 7.7-7.1s4.9-5.7 8.5-5.8c-2.9 2.2-3.7 8.1-.9 10.8 5.5 5.4 5.4-3.4 6.5-3.4 7.3-.3 11.4-3.3 16.1-7.9l.4-.4c1.2.4 3.3-2.9 3.7-4.2s-.5-2.9-2-3.5l-.7-.7c-.2-.2.5-1.5.9-2.3l.4-.8c.5-.8 0-1.9-1.2-2.3l-1 .1-1.5.2c-1.6.5-6.3.3-7.6-.1-.5-.2-5.1-4.9-5.7-5.6-3.1-3.3-7.1-6.7-6.3-11.8.9-6 8-8.6 14-9.8-1.4-5.6 3.5-11.8 9.2-11.7 1.8 0 3.5.5 5.3.6 1.8 0 3.8-.6 4.6-2.2.8-1.6-.6-4-2.3-3.6-1.2 1-2.4 1.9-3.6 2.9.5-6 .9-12 1.4-18 .1-1.3.1-2.9-.8-3.8-.8-.8-2-.9-2.8-1.7-2.2-2-.1-6.8-2.9-7.9 3.8.8 7.8-1.2 10.5-4 2.5-2.6 4.1-6 5.6-9.3 0-.2.1-.5.3-.7-.1.2-.2.5-.3.7-.1 1.3 2.1 2.7 3.4 1.7 1.5-1.2 1.2-3.7.1-5.3-1.1-1.6-2.7-2.8-3.7-4.5-3.4-5.7-3.5-8.4-10.3-11.6-5.5-2.6-11.5-3.9-17.2-6-5.5-2.1-9.7-6.3-15.1-8.2-3.3-1.2-7.4-.7-9.6 2.1-.4.6-.8 1.3-1.5 1.5s-1.6-.5-1.3-1.1c-1.4 2.5-10.6 5.6-13.3 7.7-3.5 2.7-6.6 7.3-10.1 9.1-.9-2.8-.7-5.8-1.4-8.7-.7-3.2-3.9-6.5-7-5.2-.4.2-.9.5-1.1.9-.7 1.2.1 2.8 1.3 3.4s2.7.6 4 .5c-5.6 5.8-16.6 1.8-22.4 7.3-3.2 3-3.7 7.7-4.9 11.9-1.2 4.2-4.3 8.7-8.6 8.4-.1-6.9 1.3-13.7 4.2-20-1.8 1.6-4.9 1.4-6.4-.4-.3 2.3-1 4.5-2 6.6-.4.7-.8 1.5-1.6 1.8-1.4.5-2.6-.9-3.7-1.8-1.1-1-3.2-1.3-3.6.1-.6-1.8.1-3.9 1.7-5-1.4-1-2.9-2.2-3.4-3.9-.5-1.7.8-3.9 2.6-3.6l-1.8 2.1c6 .9 12.4-1.1 17-5.2 4.5-4.1 7.1-10.3 6.9-16.4 2-.2 3.6 1.8 3.7 3.7.2 2-.7 3.8-1.7 5.5 8.8-4.3 18.1-7.1 26.7-10.9 2-.9 3.8-2.7 3.9-4.9.1-2.2-2.3-4.3-4.4-3.4-.2-.7-.4-1.3-.6-2-3.9 0-7.7 0-11.5.5-3.2.4-6.1-.4-6.3-1.2-.2-.7-9.7 5-13.3 4.3-.6-.1-1.1-.2-1.7-.2C46.2 87.3 0 166.3 0 256c0 19.6 2.2 38.7 6.4 57.1.2.1.4.2.5.3 1.2.8 2.1 2.6 1.1 3.5zm109.1 40.3c.5.1 1 0 1.4-.3.9-.8.4-2.2 0-3.3-.4-1.1-.6-2.7.5-3.2.5-.2 1 0 1.5.1 2.4.5 12.2-5.1 11.9-.3 0 .6-.3 1.2-.4 1.8-.1.7.1 1.4.2 2.1.7 3.6.3 7.2-.1 10.9-.1.6-.2 1.3-.8 1.6-.4.2-.9 0-1.3.1-.9.1-1.4 1.1-2 1.7-.6.6-2 .7-2.1-.2-1.3.1-1.6 2-1.3 3.3.5 2.9 1.2 6 .1 8.6-1.1 2.7-5.2 4.3-7 2-1.3-1.6-.8-4-1.9-5.7-1-1.7-3.6-2.3-5.3-1.2.1 1.8.1 3.7 0 5.5 0 .8-.2 1.7-.8 2.2-1.2.8-2.6-.5-3.4-1.6.6 1.3.2 2.9-.9 3.8s-2.8.8-3.9-.1c-.4-2.4-1.5-4.6-3.1-6.4.5-.3 1.1-.3 1.6-.1-1-2.1-2-4.3-3-6.4 1.8.8 3.9.8 5.6-.1.6-.3 1.3-.8 2-.7 1.3.1 2 1.7 3.3 1.8.9 0 1.6-.8 1.8-1.6.2-.9-.1-1.8-.5-2.6 3-.2 6 .6 8.6 2-.3 1.2-.3 2.5 0 3.7 1.5-2 2.9-5 1.1-6.7-.5-.5-1.3-.8-1.8-1.4-.6-.8-.5-2-.4-3 .1-2.6-.5-5.2-1.7-7.5.5.4 1.3 1 2.1 1.2zM97 321c.2-1.6.7-3.1 1.5-4.5 1.2-2 3-3.9 2.8-6.2-.1-.6-.3-1.2-.3-1.9 0-.6.5-1.3 1.2-1.3-.1 1.8-.1 3.5-.2 5.3 0 .4 0 .8.2 1.1.3.3.8.4 1.2.4 1.2.2 2.4.8 3.1 1.8.7-1.9 1.4-3.8 2.9-5.1s4.1-1.6 5.4-.1c-1.2.2-2.1 1.4-2 2.6-.8.1-1.6.2-2.5.3-.6 1 1.2 1.7 1.6 2.7.1.4 0 .9-.1 1.4-.6 2.4-3.1 18.8-8.2 12.6-.9-1.1-1.4-2.6-2.3-3.8-1-1.1-2.9-1.6-3.8-.5-.5-1.4-.6-3.1-.5-4.8zm-38.1-77.2c.7-3.8 3.8-6.8 4.8-10.6.3-1.1.4-2.4.9-3.4 1.6-3.3 4.8-1.4 5 1.6 0 .8 1.8.7 2.5.3.7-.3.8 1.7.6 2.6 0 .2 6.3-1.4 4.9-5.3 1.8 4.8 3.7 9.7 3.4 14.8-.1 1-.2 2 .3 2.8s1.7 1.3 2.4.6c.7 1.3.4 3-.6 4s-2.7 1.3-4 .7c-1.7 5.3-3.5 10.6-5.2 15.9-.4 1.2-.9 2.5-1.9 3.3s-2.8.6-3.3-.5c1.2-1.1 2.3-2.2 3.5-3.3-2.4-3.2-3.5-7.3-3-11.2-1.4.4-2.7-.8-3.7-1.8s-2.6-2-3.8-1.3c-1.4-2.5-2.9-5.1-2.8-8-.1-.5-.1-.8 0-1.2zM230 92c.1-.2.2-.5.3-.7-.1.3-.2.5-.3.7zm135.3 93.7c-.1.2-.3.5-.4.7.2-.1.4-.3.4-.7zm6.7-64.8c-.2.2-.4.4-.7.6.3-.1.5-.3.7-.6zm-118.1 17.6c-.2 1.8.2 3.6.7 5.3 1-1.7.8-4-.7-5.3zm234.9 76.7c-.1-.1-.2-.2-.3-.2 0 .3 0 .6-.1 1 .1-.3.3-.5.4-.8zm-18.2 96.6c.1-.1.1-.2.2-.3-.2.1-.2.2-.2.3zM488.9 196c.1.2.1.4.2.6-.1-.2-.1-.4-.2-.6zm13.3 23.4c1 2-1.2 5.4-2.5 3.6 1.3-1.6 1.7-3.8 1-5.7-4.7 0-9.4 2-12.6 5.4-2.2-2-3.2-5.2-2.8-8.1 1-.2 2.2 0 3.1.5.1-1.3.2-2.5.3-3.8-1.5 1.2-4.1-.5-3.7-2.3.2-3.8.5-7.5.7-11.3.7 1.4 3.2.4 3.2-1-.1-.2-.1-.4-.2-.6.1.2.2.4.2.6.7 2.7 1.5 5.4 2.2 8 2.3-7.6 1.6-16-2-23.1-.9-1.7-1.9-3.6-1.4-5.4.6-2.2 3.2-4.1 2.1-6.1.8 1.9 1.6 3.7 2.4 5.6.1-2.3.1-4.8-1.6-6.4-1.6-1.6-5.3-.5-4.8 1.7-.4-2-2.3-3.5-4.3-3.6 2.7-2.7 2.7-7.5 0-10.2.7 1.3-.8 3.1-2.2 2.7-.4-3.3-.4-6.7 0-10-1.4 1.1-2.9 2.2-4.3 3.3-1.1-1.7-2.2-3.4-3.2-5 .9 4.4.1 9.1-2.3 12.9-1.8-3.2-3.5-6.4-5.3-9.7 1 1.4 3.3.9 4.3-.6.9-1.4.9-3.2.7-4.9-3.2.2-6.4-.1-9.5-.9 1 1.3 1.9 2.6 2.9 4-2.4 1.9-6 2-8.6.4-1 2.9-1.2 6.1-.5 9.1-1.5-1.2-3.1-2.4-4.6-3.6 2.1 4.4-2.5 10.3-7.3 9.3-5.6 5.4-4.8 15.9 1.5 20.4-1.7.8-1.7 3.3-.7 5 1 1.6 2.6 2.8 3.5 4.5 1 2 .8 4.3.9 6.6.4 9.5 7.3 18.5 16.4 21.3 3 .9 6.9.8 8.3-2 .8 1.7.4 3.9-.8 5.3 3.3-2 5.9-5.1 7.4-8.7 3.5 4.5 3.9 11.2 1.2 16.2l4.5-.9c.6 1.7 1.1 3.4 1.7 5.1 1.6-2.8 2.2-6.2 1.8-9.4 2.4-.5 4.8-.9 7.2-1.4-5 3.1-6 10-5.5 16 .5 5.9 1.8 12.1-.4 17.6-2-2.9-2.5-6.7-1.4-10-6.1 2.6-12.6 4-19.2 4.2-13.1-8.6-25.2-18.6-36.1-29.9-2.1-2.2-5.8-4.6-7.9-2.3 1.1-1.8-.8-4.1-2.9-4.6s-4.2.1-6.3-.3c-4.9-.9-7.1-6.4-8.6-11.1-1.8-5.8-2.9-13.5 2.3-16.5-5-1.7-9.9-3.4-14.9-5.1 1.6-3.1 2.4-8.3-1.1-9-2.4-.5-4.3 2.2-4.7 4.7-.4 2.5 0 5.1-1.3 7.3l-4.5-2.4c-2.5 2.8-3 7.1-1.1 10.4-2.6 1.1-4.1 4.5-3 7.1-3-1.3-3.9-5.9-1.5-8.2-2.9.4-5.6 2.3-6.8 5-2.6-3.7-6.3-6.5-10.6-8.1 2.4-.6 4.5-2.1 5.9-4.1-.8.2-2.4-1.7-2.3-3.2.5-4.2.9-8.3 1.4-12.5-3.2 1.1-5.9-3.1-5.5-6.4.3-3.3 2.3-6.4 2.5-9.7.7-11.6-17.5-14.9-21.6-25.8 2.1-1.8 4.1-3.6 6.2-5.4-.8-1.6-1.6-3.1-2.4-4.7 1.7-2.8 5.1-4.5 8.3-4.1-.3 3.3 0 6.7.7 10 1.7-.8 3.5-1.6 5.2-2.4 1.6 2.4 3.3 4.9 4.9 7.3 3-2.7 6-5.4 9-8-1.1.3-2.8-1.1-2.4-2.5.5-1.7 2.5-2.5 4.3-3 2.1 2.2 5 3.8 8 4.3.7-1.3.7-3.1-.1-4.3-3.8.1-7.7-2.2-9.4-5.7-.9-1.9-1.3-4-2.1-5.9-2.9-6.8-12.3-9.7-18.5-5.7 2.3 1.1 3.3 4.4 2 6.6s-4.6 2.9-6.7 1.5c.4 2-.4 4.3-2 5.6-1.1-3.1-3.7-5.6-6.8-6.6 2.7-1.8 2.4-6.6-.5-8-2.1 1.8-4.6 3.1-7.3 3.9-1.5-4.4-4.7-8.3-8.7-10.6-1.6 1.5-3.5 2.7-5.6 3.3.4 1.4 1.6 2.5 3 2.9-1.6 1.4-3.3 2.9-4.9 4.3 2.7-.1 1.4 4.4 2 7 .6 2.5 3.4 3.5 5.7 4.5 2.3 1.1 4.7 3.5 3.6 5.7-5.2 5-14.9 3.9-18.9-2.1-5.3-3.3-11.4-5.5-17.6-5.1s-12.4 3.7-15.3 9.2c2.5 8.5-6 15.8-13.5 20.6-1.6 1-3.1 2-4.7 3 .9 2.7 2.4 5.3 3.6 7.9 2.5 5.8 3.5 12.2 2.8 18.5-.7 1.4-2.3 2.2-3.8 2 1 .9 1.9 1.7 2.9 2.6-1.3-.7-3 .8-2.6 2.2-.8 5-1.5 10-2.3 15-1.9 1.2-12 5.8-6 8 1.9.7 4-.8 4.8-2.6 3.3 0 5.6 4.4 3.8 7.1-5.2 1.4-10.8 1.3-15.9-.2.1-2.9-1.3-5.9-3.7-7.6-2 1.2-.9 4.2.2 6.2s1.6 5.3-.7 5.9c-.4-.9-.7-1.8-1.1-2.7-8.1 1.4-13.3 11.6-9.7 18.9-2.7-3-5.6-6-9.3-7.5s-8.6-1-10.9 2.3c-4.9-8.2-16.7-11.4-25.1-6.8.9 2.6 1.7 5.1 2.6 7.7 3.4-1.7 8.1 1.1 8.2 4.9 0 1.4-.5 2.8-.9 4.1-.9 2.5-1.8 4.9-2.7 7.4-1.1 2.9-3.6 6.5-6.4 5.2 3.5 2 2.7 7.7-.5 10.2-3.2 2.4-7.5 2.5-11.6 2.5 1 1.5 2.1 2.9 3.1 4.4-4.7-1.6-9.4-3.5-13.9-5.6-2.4-.8-5.4.5-6.5 2.8s-.2 5.4 2 6.8c-1.8-.3-3.7-.6-5.5-.9-2.1 1-1.1 4.2.1 6.2 4.6 7.8 7.9 16.3 9.7 25.2 2.6-2 6.5-2.1 9.2-.3-1.6 1.4-2.2 3.9-1.3 5.9 2.5-5 10-6.5 14.2-2.8 1.4-3.4-1.7-7.9-5.4-7.7 1.7-.6 3.3-1.2 5-1.8 0 2.3 2.5 4.2 4.8 3.7s3.6-3.4 2.6-5.4c1.8-.1 3.6-.2 5.5-.3 2.5-3 5.1-6 7.6-9 .8 2.8 3.9 4.4 6.8 4.3 2.9-.1 5.5-1.5 8-3.1-.4-5.3-3.5-9.8-5.8-14.6-2.3-4.8-3.7-10.7-.8-15.1-1.4-.8-2.9-1.5-4.3-2.3 8.8-.9 15.4-9.4 24.2-10.5 8.4-1 15.9 5 22.2 10.7-1-1.9 2.3-2.8 4.3-2.4l20.1 4.5c.3-3 1.1-5.9 2.4-8.6 2.3 0 4.2.2 6-.8-.2-1.1-.7-1.9-1.4-2.8-.6-.9-.5-2.9-.2-3.6.3-.7 1.9-1.1 2.6-1.1.6.1 2.1-2.1 2.6-3.1.4-1 1.8 1.1 2.1 1.9.3.8 1.7-1 2.1-1.6.4-.7 2.5 1.7 3 2.6.6.9.2-3.3-2.1-4-2.2-.6-3.5-4.5-3.2-5.8.2-1.3 4-1.2 4.1-2.7 0-1.5.9-2.8 2-2.9l.9-.1.4-1.2c.4-1.4-1.4-7-2.3-8.7-.9-1.6-3.3-3.9-5.2-5.1l-2.2.9c-1.6.7-3.2 1.7-4.8 1.8-2.2.2-3.2 1.2-3.9 3.1v.1c-.4.1-1.4-.8-1.7-1.1-.3-.3.7-1.3 2.1-2.1l1.2-.7 1.2-.6c1.4-.7 2.2-3.4 2-4.3-.1-.9.1-2 .3-2.1.1-.2 4.8 2.5 6.6 3.5 1.7 1 6.7 3.3 8.1 3.6s8.5.2 10.3 1.4 7.2 2.8 8.5 2.5 7.2-1.8 8.1-1.2-.2 5.1-.8 6.5c-.6 1.4-1.6 2.3-1.8 2.2-.2-.1.3-1 .6-1.4.3-.4-3.1-.9-4.3-1-1.2-.1-2.2-.3-2.2-.4 0-.1 1.3-.4 1.9-.4.5-.1-2.6-2.9-3.6-1.9s-2 2.5-2 2.8c0 .2 2.3 1.1 3.2 1.4 4.9 1.3-3.1 4-5.1 3.8.9 3-1.5 6.6-4.6 7 1.9 8.2 3.9 16.4 5.8 24.6.5 2.2-.1 5.6-2.2 5.1 1.9.8 2.9 3.4 1.9 5.3 1.4.7 2.9 1.4 4.3 2.1-1.4 1.8-2.8 3.5-4.1 5.3.9 1.4 2 2.9 3.5 3.4 1.6.5 3.8-.6 3.5-2.3 5.7 2.7 4.5 13-1.7 14.4 10.6 2.2 21.1 4.4 31.7 6.6 0 3.2 1.1 6.4 3.2 8.8.3-1.5.6-3 .8-4.6 2.9 4 2.4 10-1.2 13.4-2.6.6-4.3 3.7-3.4 6.2 2.7.2 5.3-1.9 5.6-4.6 4 1.7 8-2.1 10.6-5.5 6.7-9 12.4-18.9 16.7-29.2.4-1.1 1-2.2 2-2.7 2.6-1.2 7.1 2 7.9-.8 2 .9 3.2 3.3 2.8 5.4 6.6 0 13.2.8 19.6 2.4 1.1-2.5 3.8-4.2 6.5-4.1-.5 5.3-2.2 10.4-4.9 14.9 5.1 3 8.7 8.5 9.3 14.4-1.5-2.1-4.6-2.8-6.8-1.6-2.3 1.2-3.4 4.1-2.6 6.5 3.7 0 6.6 4.4 5.1 7.8 6.4.2 12.6 3.5 16.3 8.7-3.5 2.9-8.9 3.4-12.9 1.1 2.7 3 5.5 6.1 8.2 9.1 1.1-4.2 7.2-4.2 11.1-2.2 3.9 1.9 8 5 12.1 3.6l-6 17.4c-1.7-.6-2.4-3.1-1.2-4.4-3.6 2.3-7.2 4.8-9.2 8.6-2.1 4.1-1.7 9.5 1.1 13.2 9.7.1 18.3-9.9 16.6-19.5 2.6.4 4.8 2.5 5.3 5.1 1.4.9 3.5-.2 4.2-1.8.7-1.6.5-3.4.6-5.1.1-5.4 2.6-10.5 5-15.4.4-.7.8-1.6 1.7-1.7.5-.1 1.1.4 1.1.9 3-6.8 1.7-15.3-3.3-20.8-.2-.3-.7-.4-1-.3-.1.1-.1.2-.2.3 0-.2 0-.2.2-.3 2.2-4.2 4.5-8.5 8.3-11.3 3.9-2.9 9.7-3.8 13.4-.8 1.4-2.7 2.8-5.5 4.2-8.2.4 1.4.8 2.7 1.2 4.1.1-2 2.2-3.6 4.1-3.2.3-5.4-1.2-10.8-4.2-15.3.3 3.1-2.2 6.2-5.3 6.5-.9-2.9-1.8-5.7-2.8-8.6.8 1.3 2.9.9 3.8-.2.9-1.2 1-2.8 1-4.3 1.8 1.5 3.5 3.1 5.3 4.6-.2-4.8.2-9.6 1-14.3 1.3 2.7 1.6 5.7 1 8.6 2.2.9 4.8.8 7-.1l.6-.3c-10.9-9.7-11.5-28.7-1.3-39.1 2.4 5.9 1.9 12.8-1.2 18.3-.5-2.4-.9-4.9-1.4-7.3-.3 3.9-.6 7.8-.8 11.8-.4-2.4-.8-4.7-1.3-7.1-.7 3.6-.7 7.3 0 10.9l2.4-3.3c2.2 5.1 4.1 10.4 5.5 15.8.1-2.6.2-5.2.3-7.9-.4-1.9-.8-3.7-1.3-5.6.5-.1 1-.3 1.4-.5 0-6.9-.4-13.8-.9-20.6-2.1-7.2-5.3-14.2-9.4-20.5-1.9.2-.4 3 .6 5zm-220.9-11.1c.7-.4 4.7 0 5.5 1.3s0 1.8-1.7 1.1l-1 .4c-1.2.5-2.2 2-2.8 3.3-.3.9 0 2.4.6 3.2l1.3 1.5c2 1.5.2 3.9-.7 4.1-.9.3-9.5-4.2-12.5-5.9s-4.5-4.3-3.3-5.7c1.1-1.4 4.5-5 4.6-4.7l.5.3c1.1.8 2.2 1.6 3.4 2l1.2.4c1.7 0 4.2-.8 4.9-1.3zM475 332.7l-.3.6c.3-.1.4-.4.3-.6zM254.5 144.2c.1-.1.2-.1.3-.2 0-.1 0-.1-.1-.2-.1.1-.1.3-.2.4zm256.7 132.5c.1-1.9.3-3.7.4-5.6-1.8.4-3.7.8-5.5 1.2.5 2.4 2.7 4.1 5.1 4.4zm-214.1-61.2c0-.1 0-.1 0 0zM268.9 44.8c.1.4.3.9.4 1.4.5 1.2 1.5 2.2 2.1 3.3.1.2.2.4.1.5-.1.2-.2.3-.4.4-.6.4-1.2.8-1.7 1.2 1.7.5 3.3 1 5 1.5.6.2 1.1.4 1.5.8.4.4.5 1.2.1 1.6-.7.7-1.8-.3-2.8-.5-.9-.1-1.9.8-1.8 1.7.4 3.4 14-1.3 16.6-.9 2.3.4 4.6 1.6 6.7.8.6-.2 1.1-.6 1.8-.8 1.2-.3 2.4.2 3.6.6.2.1.5.1.7 0 .2-.2.2-.4.3-.7.2-.8 1-1.3 1.8-1.4 2.9-.5 3.3 2.8 1.2 2.9-1.4.1-2.8 1.6-3.2 3.4l2.4.6c.4.1.6 1.5.5 2.2l-.1 1.1c-.5 1.3 1 2.5 1.4 2.6s1.8-2.2 2.1-3c.3-.7.9-4.4 1-4.5.2-.1 5 3 6.7 4.1 1.7 1.2 3.3-.3 3.4-1.3s4.4-2.6 6.1-2.8c2.9-.5 7.3-3.1 3.6 1.9-.9 1.1-1.7 2.3-2.6 3.4-.2.3-.5.6-.6 1-.3 1.4 1.4 2.5 1.6 3.9.2.9-.4 1.9-.9 2.6-.2.2-.3.4-.6.5-.7.2-1.4-.9-2.1-.6-.5.2-.5 1-.2 1.4.4.4.9.5 1.5.6.9.2 1.9.3 2.8.5.8.1 1.6.3 2.2.7.9.5 1.4 1.5 1.4 2.5.9-.8 1.9-1.7 2.8-2.5.3-.2.5-.5.6-.8.2-.4.1-.8 0-1.2-.7-4.2 1.1-7.9 2.7-11.7l1.3-3.2c-1.7-.8-1-5.7-.2-7.3s.8-4.1.6-4.7c-.3-.5-1.8-1.4-3.4-2l-1.3-.7c-3.8-2.1-7.3-3.9-11.4-5.5-3.4-1.3-7.8-2.5-10.3.1-1.4-.4-1.8-2.7-3.2-2.7-.6 0-1.1.4-1.6.7-1.5.7-3.2-.2-4.7-.9s-3.4-1.2-4.6-.1c1.1.7 2.1 1.6 2.8 2.7-2.8 1.8-6.4-.8-9.7-1.1-2.2-.2-4.4.8-5.9 2.4-2.1 2.3-1.8 3-5.1 3.4l-1.5-.6c-1.2-.5-1.8-2.7-3-3.3l-3.2-1.5c-3.7-1.2-7-1.7-7.1-1.5-.4.7 2.2 4 2.6 4.6.6 1.3.8 2.7 1.2 4.2zm-32.2-2.3c1.4-2.6 1.7-6.1 1.1-9.1-.2-.9-.5-1.9-1.3-2.5-.6-.4-1.4-.5-2.1-.6-4.1-.5-8.5-1-12.2 1-1.8 1-4.1 2.4-5.6 1-.8-.8-1-2.2-2-2.5-.8-.2-1.7.3-2.4-.1-.5-.3-.6-1-.8-1.6-.6-1.8-2.7-2.6-4.6-2.5s-3.5 1.2-5.1 2.1c.8-1.5 1.5-3.1 2-4.7-.8-.4-1.9.1-2.5.8-.6.7-1 1.6-1.8 2.2-2.7 2.4-7.7-.6-10.5 1.7-.5.4-.9.9-1.4 1.2-.9.4-1.9-.1-2.9-.4-2.5-.8-5.4-.5-7.6.9-.9.6-1.8 1.3-2.9 1.3-1.2 0-2.1-1-3.3-1.2-2.2-.5-4.2 1.5-5.1 3.5-.9 2-1.4 4.4-3.1 5.9 1.1.1 1.4 1.7.8 2.7-.5 1-1.5 1.6-2.1 2.6-.4.6 1.3 6.1 2 6.4 1 .3 1 1 .7 1.3-.3.2 0 1.1.3 1.4.2.3 1-.8 1.2-1.2s1.8-.7 2.2-.7c.5 0 3.1-3.8 4.5-3.4 1.4.4 3.5-.5 3.7-.8s4.6-1.7 6.1-2.1c1.6-.4 3-.1 3 .2.1.3-4.1 1.3-5.7 1.3-1.6 0-2.7 1.9-2.4 4.1l-2.5 1.1c-1.5.7-3.8 1.3-4 2.4-.6 2.4-3 3.4-5.3 3.9v2.5c4.5-.5 8.7-2.7 11.8-6 .6 1.4 1.9 2.4 3.4 2.6-.8-1.4-1.3-3-1.6-4.6-.1-.5-.1-1 .1-1.5.3-.5.8-.7 1.3-.9 3.6-1.2 7.6-.9 11.4-1.5 8.6-1.4 16.7-7.2 25.2-5.6 2.8.5 5.4 1.8 8.2 2.7s5.8 1.3 8.4 0c1.5-.7 2.6-1.9 3.4-3.3zm167.7 327.1c.3-4.7.4-9.4.1-14.2-.1-1.9-.7-4.2-2.6-4.5-2-.3-4 2.2-5.7 1.2-.9-.6-1.1-1.8-2-2.4-.6-.4-1.4-.3-2.2-.2.2-3.5 1.5-6.9 3.7-9.6.2 1.5.4 2.9.6 4.4.1.6.2 1.2.8 1.4.9.3 1.4-1.1 1.2-2-.3-2.2-.9-4.3-1.9-6.3-1-1.9-2.7-3.5-3-5.7 1.3.9 2.9 1.5 4.5 1.7-2.1-3.6-7.2-5-10.9-3-.9.5-1.9 1.2-2.9 1.1-.2 0-.4-.1-.7 0-.5.2-.5.9-.2 1.3s.8.7 1.1 1.1c1.2 1.2.6 3.3-.4 4.7-1 1.4-2.5 2.4-3.2 4-.9 1.9-.6 4.4-2.1 5.9-.3.3-.7.6-.8 1.1-.1.5.3 1 .6 1.3 1.5 1.6 3.1 3 4.9 4.2-1.5 1.5-3.1 2.9-4.6 4.4-.5.5-1 1-1.2 1.7-.2.9.5 1.9 1.3 2.3s1.8.5 2.8.6c-.3 1.3-1 2.5-1.8 3.4 2.2.2 4.5.4 6.3 1.6l1.8 1.2c1.8 1 4.2.8 5.9-.4.4-.3.7-.6 1.2-.7.7-.2 1.4.3 2 .6 2.2 1.2 4.9 1.6 7.3 1 .1-.5.1-.9.1-1.2zm-163.7-324c1.9-.1 4.5 3.8 4.2 4.9-.3 1.1-1.4 2-2.6 1.8l-.6.3-1 .5c-1 .9-1.2 2.6-.4 3.9l.9.3c1.6.5 4.5.9 5 .2l1.5-2.3c.7-3.1 1.4-6.6 1.7-7s.9-.7 1-.7c.2 0 1 2.3 1.2 3.2.3.9 2.1 1.6 2.5 1.5s-.1-2.4-.5-3.3c-.3-.9-.2-1.9 0-2s2.3.7 3.1 1.1c.8.4 1.2-4 0-5.2-1.2-1.2-3.6 0-4.2 1-.6.9-3.4-.4-4.3-1.2-.9-.8-1.5-1.7-1.5-1.8s1.6.2 2.1.3 1.7-1.7 2-2.4c.3-.6-5-2.9-7.3-3.6-2.2-.7-3.8 2.2-3.8 3.3.1 1.2-.9 2.1-1.4 2.1-.4 0-.7 0-.7-.1.2.1 1.2 5.4 3.1 5.2zm147.5 19.1c3.3 1.2 6.6 2.3 9.9 3.4l.6.2c.5.5 4.5 3.5 5.9 4.4 1.4 1 .7 2.5 0 1.9s-2.7-1.3-4.4-1.5l-1.2-.8-1.3-.9c-1.1-1.6-3.4-2.2-4-2-.6.3 1.2 3.4 2 4.5s1.8 1.4 1.9 1.1c.1-.2 1 0 1.9.5l.9.1 3.2.3c3.5.2 6.4.4 6.3.4l1.8-5.6c-3.8-2.5-8.1-5.3-9.6-6.2l-1.5-.5-1.3-.5c-1.7-.2-6.1-4.7-8.5-5.5-2.4-.7-4.4.5-4.3 2.7l.3 2c.1.8.7 1.8 1.4 2zm96.7 269.6c-.7.1.3-2.5.8-3.5s.5-2 .3-2.1-2.1 2.7-2.8 3.8c-.7 1.1-3.5-2.1-2.4-3.6.1-.1.1-.2.2-.3-1.1 1.4-2.9 3.7-2.9 5.6 0 2-1.7 4.9-2.3 5.4-.7.5-1.7-.7-1.9-1.2-.2-.5-1.3.1-2.6 1.4s1.3 5.5 1.2 5.9l-.1.4c-.7 2.1.3 3.5 2.1 3.9l1.2.2c1.5-.8 4.7-3.4 5.3-4.4.6-1 1.2-1.6 1.3-1.5.1 0-.7 2.8-1 3.9-.3 1-1.5 1.8-2 1.7-.5-.1.8 1.5 1.3 1.9s2-2.3 2.4-3.4.9-.4 1 0c.1.5 1.8.6 2.5.5.6-.1-1.5-3.9-1.1-5s.1-3-.6-4.2l-.1-.9c-.1-.8.2-1.8.7-2.4l.6-.7c1-.5 1.5-1.3 1.4-1.5-.2-.2-1.8 0-2.5.1zM229.3 283c.2 0-.3-4.4-.6-6.2-.3-1.8-2-.3-2.3.3-.3.7-2.4.8-2.9.6-.5-.1-1.2-4.6-1.3-6.3-.1-1.8-.3-3.2-.6-3.3-.2 0-.8.6-.9 1.5l-.1.8-.2 1.6c-.3 1.7-1.6 5.3-2.9 7.8l-.7 2.4c-.3.9.6 2.3 1.2 3.3l.7 1c1 .9 1.6 1.9 1.5 2s-1.8-.6-2.4-.9c-.6-.3-.7 1.4-.4 1.9.4.5 3.8.7 4.3 1.7s5.2-.2 6.7-.9c1.6-.7 3.3-4.7 2.1-5.6-1-.8-1.4-1.7-1.2-1.7zm.3-114l1.5 1.1.9.7c1.3.3 2.2-.4 2-1.5l-.4-.9c-.2-.5-1.3-.6-1.4-1l-.6-1.6c0-1.9 1.7-.4 2.3.8.6 1.1 1.8 1.7 2.5 1.2s2.4-.4 2.3 0c0 .3 6.5.8 7.3-1.3s.6-5.8.3-6.5c-.3-.6-2.6-.2-3.3-.5s-2-.9-2.9-1.3l-.8-.2-3-.7c-3.6-.8-5.6.1-5.1.8s-1.5 4.2-2.6 5.5c-1.1 1.2-.7 3.7 1 5.4zM97.2 433.7c-.2-.1-4.6.3-5.7-.8-1.1-1.1-2.3-2.1-2.5-2.3h-.2c-1.7.4-3.1.3-3.4-2l-.1-.9c-.7-.9-1.6-1.3-1.7-1.2-.1.1-.1 2.7 0 3.7 0 1 1.6 2.3 2.5 2.5.8.2-1 .4-1.8.4s-1 .4-.6.9 6.2 3 7.6 4.3 5.3 4.6 6.3 5.2 3.8.1 4.4-.2c.6-.3-3.1-4.1-3.5-6-.4-1.7-1.1-3.5-1.3-3.6zm360.5-313.4c-.7.1-1.3-.3-1.3-.9v-.8c0-.7.3-1.7 0-2.1l-1.4-1.6c-1.8-1.7-4.3-2.7-4.8-2.5s.8 1.9 1.5 2.5-3.2 1.6-2.9 2.8c.3 1.2-.6 2.6-1 2.8-.4.2-.4 1.2.1 2.3.5 1.1 4.4 6.4 5.7 5.8 1.3-.6 0-2-.8-2.3-.9-.4-1.6-2.5-1.6-3.3s4.5.9 6.3 1.8 2.9-1.7 2.7-2.7c-.1-1.3-1.8-1.9-2.5-1.8zM210.5 56c-2.7-.1-5.6-.1-8 .9-1.3.6-2.5 3.4-2.3 5l.3 1.8c2.6.9 6.7 1 9.1.2l1.8-1.3c1.1-.8 1.9-2.6 1.8-3.9 0-1-1.6-2.7-2.7-2.7zm244.4 51c-.1 0-.1 0 0 0-.1 0-.1 0 0 0zM442 96.2c2.3 1 2.6 2.1 1.2 4 .5.1 1 .3 1.5.4l5.6 1.1c-.7 3.1-1.3 5.8-1.2 5.8s1.8-.1 3.9-.3l1.8-.2-2.1-1.6c.3-2.5-.5-6.1-1.8-8.1l-1.3-1.8s-5.3.1-6.4-1.6-2-1.4-2-.8-.5 1.1-.6 1.1c-.2 0-.6-.8-.7-1l-.2-.6c-1.3 2.5 1 3 2.3 3.6zM498 337c-.1-.1.3-2.5.5-3.4s-.1-1.8-.2-1.8c-.2 0-2.1 4.8-2.7 6.7-.7 1.9-2.2 2.7-2.5 2.5-.4-.2-1.3.3-2.1 1.2v.7c.1 2.1.6 4.3 1.1 6.4l.1.3c.7 0 1.4.6 1.8 1.1 1.9-4.8 3.6-9.6 5.3-14.5-.6.6-1.2.9-1.3.8zM421.3 77.8c.1-.2 1.2-.1 2.4.2l.6.7 2 2.2c1.8-1.3 3.6-2.4 3.9-2.4s.9.9 1.1 1.4.5.7.7.4c.2-.2-.3-2.2-.7-2.7-.4-.5-5.6-.4-6.7-1.8-1-1.5.6-3.7 1.3-4 .7-.3-2.9-2.1-4.1-2.6-1.3-.5-2.8 1.6-2.9 2.4s.6 4.1 1.2 5.1c.5.8 1.1 1.2 1.2 1.1zm28.7 16c-.2 1-.4 1.7-.4 1.7s2.8 1.2 3.8 1.7c1.1.5 1.9.9 1.9.9l.7-.1c.4-.1.7-.3 1-.6-1.1-1.4-2.1-2.7-3.2-4-.5-.5-1-1.1-1.4-1.4-.9-.9-2.2.9-2.4 1.8zM184.2 415.1c-.2-.3-3.5-1.2-4.8-1.4-1.3-.2-1.1 1.4-.8 1.8s-2 1.5-2.7 1.7-.7 1.1.2 1.9 3.3 1.9 3.3 1.7c.1-.2 2.1 1 2.8 1.5s2.8-1.3 3.4-2.2c.5-.9 1.6-1.3 1.8-1.2.2.1-1.3-.9-2-1.3s-1-2.2-1.2-2.5zM508 293c-.2-.5.8-7.4 0-9.5s-1.4-4.4-1.4-5.1v-1.6c-.1-.7-2.3-1-2.8-.9-.6.1-1.2-2-1.3-2.7-.1-.7-.2 2.7.5 3.4.7.7 1.9 2.6 2.7 4.4l.1 1.7.2 3.6c-.1 4 .1 7.3.2 7.3s.4-4.5.5-6.2.5-3.1.6-3.1.2 5.3.2 7.3c0 1.9 1.1 3.6 1.6 3.7.1-.9.3-1.9.4-2.8-.2.2-.4.5-.5.7-.3.3-.7.3-1-.2zm-208.3-74c.7.9 4.3.7 5.6.3 1.3-.4 1.1-3 .4-3.8-.8-.8-4.9-1-6.2-.7-1.3.3-2.4.6-2.4.6s2 2.7 2.6 3.6zm76.4-172.6c1.7 1 3.1-1.5 2.7-2.4-.4-1-2.9-6.2-4.6-5.4s-2.1 2.7-1.7 3.2-.6.7-1 .6c-.5-.1-.9 0-1 .1s3.9 2.9 5.6 3.9zm37.5 29.5c-2.1.3-3.7.5-3.7.5s.6 1.4 1.3 3.2l1.4.8 1.4.8c1.8.4 3.1 1 3 1.3s.3.8.5.8c.2.1.8-1.9.9-2.6s-.7-2.5-1.8-4l-1.4-.4-1.6-.4zM430.3 87l3.3 1.5 1.5.7c1.3 1.1.4 5.2-.2 6.2s1.1 2.5 1.8 2.7-.2-4.2.9-4.7 2-.8 2-.8-.1 0-.2-.1v-.1c0-4.1-.3-4.4-3.7-4.7-.6-.1-1.4-.3-1.9-.7l-1.7-1.8c-1.6-1.8-2.4-1-1.8 1.8zm29.4 57.9c0 .1 0 .1 0 0 0 .1 0 .1 0 0 0 .1 0 .1 0 0zm.3-31.2c.2-.1-.3-2.7-.6-3.6-.3-.9-2-2.7-2.9-2.8-.9-.1-1.7-.2-1.7-.2s2.1 3.4 2.9 4.7c.8 1.2 2.1 2 2.3 1.9zm-14.5-7.3c-1.6-.9-.6-2.6-.2-2.7s-.7-2-1.2-2.6-.9-1-.9-1-.9.3-1.1.3c-.2.1 1 6.5 2.7 8.2 1.6 1.8 2.3-1.2.7-2.2zm9.8-8.2s0-.1 0 0c0-.1 0 0 0 0zm-39.2-39.8c-2.3-2.2-4.5-4.4-6.7-6.5.1 4.7 3.7 7.8 6.7 6.5z" opacity=".1" fill="#fff"/><path d="M488.7 196.1c.1.2.2.4.2.6-.1-.2-.1-.4-.2-.6zm-17.9 116.5c.1-.1.1-.2.2-.3-.2.1-.2.1-.2.3zM275.2 209.2c-1.2-.4-2.3-1.2-3.4-2l-.5-.3c-.1-.3-3.5 3.3-4.6 4.7-1.2 1.4.3 4 3.3 5.7s11.6 6.2 12.5 5.9c.9-.2 2.7-2.6.7-4.1l-1.3-1.5c-.6-.8-.9-2.3-.6-3.2.6-1.3 1.6-2.8 2.8-3.3l1-.4c1.7.7 2.5.2 1.7-1.1s-4.8-1.7-5.5-1.3c-.7.5-3.2 1.3-4.9 1.3l-1.2-.4zM132 352c.1-.6.4-1.2.4-1.8.3-4.8-9.5.8-11.9.3-.5-.1-1-.3-1.5-.1-1.1.5-.9 2.1-.5 3.2s.9 2.5 0 3.3c-.4.3-.9.4-1.4.3-.8-.2-1.6-.8-2.1-1.2 1.2 2.3 1.8 4.9 1.7 7.5-.1 1-.2 2.2.4 3 .5.6 1.3.9 1.8 1.4 1.8 1.7.4 4.7-1.1 6.7-.3-1.2-.3-2.5 0-3.7-2.6-1.4-5.6-2.2-8.6-2 .4.8.7 1.7.5 2.6-.2.8-.9 1.6-1.8 1.6-1.3-.1-2-1.7-3.3-1.8-.7-.1-1.4.4-2 .7-1.7.9-3.8.9-5.6.1 1 2.1 2 4.3 3 6.4-.5-.2-1.1-.2-1.6.1 1.6 1.8 2.7 4 3.1 6.4 1.1.9 2.8 1 3.9.1s1.5-2.5.9-3.8c.8 1.1 2.2 2.4 3.4 1.6.6-.5.8-1.4.8-2.2.1-1.8.1-3.7 0-5.5 1.7-1.1 4.3-.5 5.3 1.2 1.1 1.7.6 4.1 1.9 5.7 1.8 2.3 5.9.7 7-2 1.1-2.6.4-5.7-.1-8.6-.3-1.3 0-3.2 1.3-3.3.1.9 1.5.8 2.1.2.6-.6 1.1-1.6 2-1.7.4-.1.9.1 1.3-.1.6-.3.7-1 .8-1.6.4-3.7.8-7.3.1-10.9-.1-.7-.3-1.4-.2-2.1zm98.5-260c.1-.2.2-.5.3-.7-.2.2-.3.5-.3.7zM101.3 326.3c.9 1.2 1.4 2.7 2.3 3.8 5.1 6.2 7.6-10.2 8.2-12.6.1-.5.2-1 .1-1.4-.4-1-2.2-1.7-1.6-2.7.9-.1 1.7-.2 2.5-.3-.1-1.2.8-2.4 2-2.6-1.3-1.5-3.9-1.2-5.4.1-1.5 1.3-2.2 3.2-2.9 5.1-.7-1-1.9-1.6-3.1-1.8-.4 0-.9-.1-1.2-.4-.2-.3-.2-.7-.2-1.1.1-1.8.1-3.5.2-5.3-.7 0-1.2.7-1.2 1.3 0 .7.2 1.3.3 1.9.2 2.3-1.6 4.2-2.8 6.2-.8 1.4-1.3 2.9-1.5 4.5-.1 1.7 0 3.4.5 4.8.9-1.1 2.8-.6 3.8.5zM230 92c.1-.2.2-.4.3-.7-.1.2-.2.5-.3.7zM81.3 246.6c-.5-.8-.4-1.8-.3-2.8.3-5.1-1.6-10-3.4-14.8 1.4 3.9-4.9 5.5-4.9 5.3.2-.9.1-2.9-.6-2.6-.7.4-2.5.5-2.5-.3-.2-3-3.4-4.9-5-1.6-.5 1-.6 2.3-.9 3.4-1 3.8-4.1 6.8-4.8 10.6-.1.4-.1.7 0 1.2-.1 2.9 1.4 5.5 2.8 8 1.2-.7 2.8.3 3.8 1.3s2.3 2.2 3.7 1.8c-.5 3.9.6 8 3 11.2-1.2 1.1-2.3 2.2-3.5 3.3.5 1.1 2.3 1.3 3.3.5s1.5-2.1 1.9-3.3c1.7-5.3 3.5-10.6 5.2-15.9 1.3.6 3 .3 4-.7s1.3-2.7.6-4c-.7.7-1.9.2-2.4-.6zM512 256c0 1.8 0 3.6-.1 5.5v2c0 1.4-.1 2.7-.2 4.1-.1 1.2-.1 2.4-.2 3.6h.1c-.1 1.9-.3 3.7-.4 5.6v.5c-.1 1.2-.2 2.4-.3 3.7-.1 1.1-.2 2.3-.4 3.4 0 .4-.1.8-.1 1.2l-.9 7.2.1-.1c-.1.9-.3 1.9-.4 2.8h-.1c-.1.3-.1.7-.2 1-.2 1.5-.5 3-.7 4.4-.2 1-.4 2-.6 3.1-.2.9-.3 1.7-.5 2.6-.2 1.1-.5 2.3-.7 3.4-.1.7-.3 1.4-.5 2.1-.3 1.3-.6 2.5-.9 3.7-.1.5-.2.9-.3 1.4-1.6 6.6-3.5 13-5.5 19.4l.2-.2c-1.7 4.9-3.4 9.7-5.3 14.5l-.1-.1c-1.1 2.7-2.2 5.5-3.4 8.1-.1.3-.3.6-.4.9-.5 1.2-1.1 2.5-1.7 3.7-.2.3-.3.7-.5 1-1.9 4-3.9 8-5.9 11.9-.1.1-.1.2-.2.3-.7 1.2-1.3 2.5-2 3.7-.1.3-.3.5-.4.8-2.9 5.2-6 10.4-9.3 15.4-.1.2-.3.4-.4.6l-2.4 3.6s0 .1-.1.1c-2.6 3.7-5.2 7.4-8 11-.1.2-.3.4-.4.5-.9 1.1-1.8 2.3-2.7 3.4-.1.1-.2.2-.3.4-2.8 3.5-5.7 6.9-8.6 10.2l-.4.4c-.9 1.1-1.9 2.1-2.8 3.1-.2.2-.3.4-.5.6-3 3.2-6.1 6.4-9.2 9.4l-.4.4c-1 1-2 1.9-3 2.8l-.7.7c-3.2 3-6.5 5.9-9.9 8.7l-.3.3c-1 .8-2 1.7-3.1 2.5-.3.3-.7.5-1 .8l-3 2.4c-.2.2-.5.4-.7.5-2.2 1.7-4.5 3.4-6.8 5.1-.1 0-.1.1-.2.1-1 .7-2 1.4-3.1 2.2-.4.3-.9.6-1.3.9-1 .7-2 1.4-3 2-.4.3-.9.6-1.3.9-3.2 2.1-6.5 4.2-9.9 6.2-.6.3-1.1.7-1.7 1-1 .6-1.9 1.1-2.9 1.6-.6.3-1.2.7-1.9 1-1 .5-1.9 1.1-2.9 1.6-.5.3-1 .5-1.5.8-1.8.9-3.6 1.9-5.4 2.8-.7.4-1.5.7-2.2 1.1-.9.4-1.8.9-2.7 1.3-.8.4-1.6.7-2.3 1.1-.9.4-1.8.8-2.6 1.2-1 .4-2 .9-3 1.3-1.3.6-2.5 1.1-3.8 1.6-1 .4-1.9.8-2.9 1.2-.8.3-1.7.7-2.5 1-.9.4-1.9.7-2.8 1.1l-2.4.9c-1.1.4-2.3.8-3.4 1.2l-2.7.9c-1.3.4-2.7.9-4 1.3-.7.2-1.5.5-2.3.7-1.1.3-2.2.7-3.2 1-.8.2-1.5.4-2.3.6-1.2.3-2.5.7-3.7 1-.6.2-1.2.3-1.7.5-1.8.4-3.5.9-5.3 1.3-.6.1-1.3.3-1.9.4-1.2.3-2.5.6-3.7.8-.7.1-1.4.3-2.1.4-1.3.3-2.6.5-4 .8-.6.1-1.1.2-1.7.3-1.8.3-3.7.6-5.6.9-.5.1-1 .1-1.5.2-1.4.2-2.9.4-4.3.6-.7.1-1.3.2-2 .2-1.4.2-2.8.3-4.2.5-.6.1-1.1.1-1.7.2-1.9.2-3.9.4-5.8.5-.3 0-.6 0-.9.1-1.7.1-3.3.2-5 .3-.6 0-1.3.1-1.9.1-1.4.1-2.9.1-4.3.2-.6 0-1.2 0-1.8.1-2 0-4 .1-6 .1-2.1 0-4.2 0-6.2-.1-.7 0-1.4 0-2-.1-1.4 0-2.8-.1-4.2-.2-.8 0-1.6-.1-2.4-.1-1.3-.1-2.5-.1-3.8-.2-.8-.1-1.7-.1-2.5-.2l-3.6-.3c-.9-.1-1.7-.2-2.6-.3-1.2-.1-2.4-.3-3.6-.4-.8-.1-1.7-.2-2.5-.3-1.3-.2-2.5-.3-3.7-.5-.8-.1-1.5-.2-2.3-.3-1.5-.2-3-.5-4.6-.8-.5-.1-.9-.2-1.4-.2-1.9-.3-3.9-.7-5.8-1.1-.8-.2-1.6-.3-2.4-.5-1.2-.2-2.3-.5-3.5-.8l-2.7-.6c-1-.3-2.1-.5-3.1-.8-.9-.2-1.8-.5-2.8-.7-1-.3-2-.5-3-.8-.9-.3-1.9-.5-2.8-.8-1-.3-1.9-.6-2.8-.8-1-.3-1.9-.6-2.9-.9l-2.7-.9c-1-.3-1.9-.6-2.9-1-.9-.3-1.7-.6-2.6-.9-2.3-.8-4.6-1.7-6.9-2.5-.4-.2-.8-.3-1.2-.5-1.1-.4-2.2-.9-3.3-1.3l-2.1-.9c-1.1-.4-2.1-.9-3.2-1.4l-2.1-.9c-1.1-.5-2.1-1-3.2-1.4-.7-.3-1.4-.6-2.1-1-1.1-.5-2.1-1-3.2-1.5-.6-.3-1.3-.6-1.9-1-1.1-.5-2.2-1.1-3.3-1.7-.6-.3-1.1-.6-1.7-.9-1.2-.6-2.3-1.2-3.5-1.9-.3-.2-.6-.4-.9-.5-4.3-2.4-8.6-4.9-12.8-7.6-.1-.1-.3-.2-.5-.3-1.2-.8-2.5-1.6-3.7-2.4-.4-.2-.7-.5-1.1-.7-1.2-.8-2.3-1.6-3.5-2.4-.4-.3-.8-.5-1.2-.8-1.2-.8-2.3-1.6-3.4-2.4-.4-.3-.7-.5-1.1-.8-1.2-.9-2.3-1.7-3.5-2.6-.3-.2-.5-.4-.8-.6-6.9-5.3-13.5-10.9-19.8-16.8-.1-.1-.2-.1-.2-.2-1.2-1.1-2.3-2.2-3.5-3.4-.2-.2-.4-.3-.5-.5-1.1-1.1-2.2-2.2-3.3-3.4l-.5-.5c-1.1-1.2-2.2-2.3-3.3-3.5l-.3-.3c-7.2-7.7-14-15.9-20.2-24.5-.1-.1-.2-.2-.2-.3-1-1.3-1.9-2.7-2.9-4.1-.1-.1-.2-.3-.3-.4-1-1.4-1.9-2.8-2.8-4.1-.1-.1-.1-.2-.2-.3-5.9-8.9-11.2-18.2-16-27.8-.1-.1-.1-.3-.2-.4-.7-1.5-1.4-3-2.1-4.4l-.3-.6c-.7-1.5-1.4-3-2-4.5-.1-.2-.2-.4-.2-.6-.7-1.5-1.3-3.1-2-4.7-3.4-8.2-6.4-16.7-9-25.4-.1-.3-.2-.5-.2-.8-.4-1.5-.9-3-1.3-4.5-.1-.4-.2-.7-.3-1.1-.4-1.5-.8-2.9-1.1-4.4-.1-.4-.2-.8-.3-1.1-.4-1.5-.7-3-1.1-4.5-.1-.3-.1-.6-.2-.8C2.1 293.6 0 275 0 256 0 171 41.5 95.6 105.3 49.1c.2-.1.3-.2.5-.4 1.2-.9 2.5-1.8 3.7-2.7.2-.1.3-.2.5-.3 5.2-3.6 10.6-7.1 16.1-10.3.3-.2.7-.4 1-.6 1.2-.7 2.3-1.3 3.5-2 .4-.2.9-.5 1.3-.7 1.1-.6 2.3-1.3 3.5-1.9l1.2-.6c3.8-2 7.6-3.9 11.5-5.7.5-.2 1-.5 1.6-.7 1.1-.5 2.1-1 3.2-1.4.7-.3 1.3-.6 2-.9 1-.4 2-.9 3.1-1.3.7-.3 1.5-.6 2.2-.9l3-1.2 2.4-.9c1.6-.6 3.3-1.2 4.9-1.8 1-.4 2-.7 3-1l2.7-.9c.9-.3 1.9-.6 2.8-.9.9-.3 1.8-.6 2.7-.8 1-.3 1.9-.6 2.9-.9.9-.3 1.8-.5 2.7-.8 1-.3 2.1-.6 3.2-.9l2.4-.6c1.7-.4 3.5-.9 5.2-1.3.6-.1 1.2-.3 1.9-.4 1.3-.3 2.7-.6 4.1-.9.8-.2 1.5-.3 2.3-.5 1.2-.2 2.3-.5 3.5-.7.8-.1 1.6-.3 2.4-.4l3.6-.6c.8-.1 1.5-.2 2.3-.4 1.4-.2 2.9-.4 4.3-.6.5-.1 1-.1 1.6-.2 1.9-.2 3.9-.5 5.8-.7.6-.1 1.1-.1 1.7-.2 1.4-.1 2.9-.3 4.3-.4.7-.1 1.4-.1 2.2-.2 1.3-.1 2.6-.2 3.9-.2.7 0 1.5-.1 2.2-.1 1.4-.1 2.8-.1 4.2-.2.6 0 1.3 0 1.9-.1 2 0 4.1-.1 6.1-.1 2.4 0 4.7 0 7 .1.8 0 1.5.1 2.3.1 1.6.1 3.2.1 4.7.2.9 0 1.8.1 2.7.2 1.4.1 2.9.2 4.3.3.9.1 1.9.2 2.8.2 1.4.1 2.8.3 4.2.4.9.1 1.9.2 2.8.3 1.4.2 2.8.3 4.2.5.9.1 1.8.2 2.7.4 1.5.2 2.9.4 4.3.7.8.1 1.6.3 2.4.4l4.8.9c.6.1 1.2.2 1.9.4 4.5.9 9 1.9 13.4 3.1.4.1.9.2 1.3.3 1.8.5 3.5.9 5.3 1.4.6.2 1.2.4 1.9.6 1.5.5 3.1.9 4.6 1.4.7.2 1.4.4 2 .7 1.5.5 3 1 4.4 1.5.7.2 1.3.5 2 .7 1.5.5 3 1.1 4.5 1.6.6.2 1.2.5 1.9.7 1.6.6 3.1 1.2 4.7 1.9l1.5.6c1.8.7 3.6 1.5 5.3 2.3.3.1.5.2.8.3 6.3 2.8 12.4 5.9 18.4 9.1.3.2.5.3.8.5 1.7.9 3.4 1.9 5 2.8.4.2.8.4 1.1.7 1.6.9 3.1 1.9 4.6 2.8.4.2.8.5 1.2.7 1.5 1 3.1 1.9 4.6 2.9.4.2.7.5 1.1.7 1.6 1.1 3.2 2.1 4.8 3.2.2.2.5.3.7.5 7.5 5.2 14.6 10.9 21.5 16.9l.1.1c1.6 1.4 3.2 2.9 4.8 4.3.2.2.4.4.6.5 1.4 1.3 2.9 2.7 4.3 4.1l.7.7c1.4 1.4 2.8 2.7 4.1 4.1.2.2.4.5.7.7 1.4 1.4 2.8 2.9 4.2 4.4.1.2.3.3.4.5 3.1 3.4 6.1 6.8 9 10.3l.4.4c1.1 1.3 2.1 2.6 3.2 4 2.1 2.6 4.1 5.3 6 8 .1.2.3.4.4.6.9 1.2 1.8 2.5 2.7 3.7.2.2.3.4.5.7.9 1.3 1.8 2.6 2.6 3.9.1.1.1.2.2.3 3.7 5.5 7.1 11.2 10.4 17 .2.3.3.6.5.9.7 1.2 1.3 2.4 2 3.7.2.4.4.8.7 1.3.6 1.2 1.3 2.4 1.9 3.6.2.4.4.9.6 1.3.6 1.2 1.2 2.5 1.8 3.7.1.3.3.5.4.8 1.9 4.1 3.8 8.3 5.5 12.5.2.5.5 1.1.7 1.6.4 1.1.9 2.2 1.3 3.3.3.7.5 1.4.8 2.1.4 1.1.8 2.1 1.2 3.2.3.7.5 1.5.8 2.3.4 1 .7 2.1 1.1 3.1.3.8.5 1.6.8 2.4.3 1 .7 2.1 1 3.1.3.9.5 1.8.8 2.7.5 1.7 1 3.4 1.4 5 .3 1 .6 2 .8 3.1.2.9.5 1.8.7 2.7.2 1 .5 2 .7 3l.6 2.7c.2 1 .5 2.1.7 3.1l.6 2.7.6 3.3c.2.8.3 1.7.5 2.5.2 1.3.4 2.6.7 3.9.1.6.2 1.3.3 1.9.3 1.9.6 3.9.8 5.8.1.6.1 1.2.2 1.8.2 1.4.3 2.8.5 4.2.1.8.1 1.5.2 2.3.1 1.3.2 2.5.3 3.8.1.8.1 1.6.2 2.4.1 1.3.2 2.5.2 3.8 0 .8.1 1.6.1 2.3.1 1.4.1 2.8.2 4.1 0 .7 0 1.3.1 2-.5 2.8-.5 4.8-.5 6.9zm-62.9-148.5c.1 0 1.3-.1 3-.2-.8-1-1.5-2-2.3-3-.5 1.8-.8 3.2-.7 3.2zm-1.2 15.3c.5 1.1 4.4 6.4 5.7 5.8 1.3-.6 0-2-.8-2.3-.9-.4-1.6-2.5-1.6-3.3s4.5.9 6.3 1.8 2.9-1.7 2.7-2.7c-.1-1.3-1.8-1.9-2.5-1.8s-1.3-.3-1.3-.9v-.8c0-.7.3-1.7 0-2.1l-1.4-1.6c-1.8-1.7-4.3-2.7-4.8-2.5s.8 1.9 1.5 2.5-3.2 1.6-2.9 2.8-.6 2.6-1 2.8c-.4.2-.4 1.2.1 2.3zm-8.2-30.2c-1.3 2.5 1 3 2.3 3.6 2.3 1 2.6 2.1 1.2 3.9s-.9.3-1.1.3c-.2.1 1 6.5 2.7 8.2 1.6 1.8 2.3-1.2.7-2.2-1.6-.9-.6-2.6-.2-2.7s-.7-2-1.2-2.6c-.3-.4-.6-.7-.8-.9.5.1.9.3 1.4.4l2.5.5c-2-2.5-4.1-4.9-6.2-7.3-.2.3-.3.4-.4.4-.2 0-.6-.8-.7-1l-.2-.6zm-9.4-5.6l3.3 1.5 1.5.7c1.3 1.1.4 5.2-.2 6.2s1.1 2.5 1.8 2.7c.7.2-.2-4.2.9-4.7s2-.8 2-.8-.1 0-.2-.1v-.6c-1.3-1.4-2.6-2.9-3.9-4.3-.6-.1-1.2-.3-1.7-.7l-1.7-1.8c-1.6-1.7-2.4-.9-1.8 1.9zm-10.2-10.3c.5.8 1.1 1.2 1.2 1.1.1-.2 1.2-.1 2.4.2l.6.7 2 2.2c.5-.4 1-.7 1.5-1-2.9-2.8-5.9-5.6-8.9-8.3-.1.8.6 4.1 1.2 5.1zm-6.5-.8c-2.1.3-3.7.5-3.7.5s.6 1.4 1.3 3.2l1.4.8 1.4.8c1.8.4 3.1 1 3 1.3s.3.8.5.8c.2.1.8-1.9.9-2.6s-.7-2.5-1.8-4l-1.4-.4-1.6-.4zm-27.1-15.2l.3 2c.1.8.7 1.8 1.4 2 3.3 1.2 6.6 2.3 9.9 3.4l.6.2c.5.5 4.5 3.5 5.9 4.4 1.4 1 .7 2.5 0 1.9s-2.7-1.3-4.4-1.5l-1.2-.8-1.3-.9c-1.1-1.6-3.4-2.2-4-2-.6.3 1.2 3.4 2 4.5s1.8 1.4 1.9 1.1c.1-.2 1 0 1.9.5l.9.1 3.2.3c3.5.2 6.4.4 6.3.4l1.8-5.6c-3.8-2.5-8.1-5.3-9.6-6.2l-1.5-.5-1.3-.5c-1.7-.2-6.1-4.7-8.5-5.5-2.4-.7-4.4.5-4.3 2.7zm-16-18.2c-.1.1 3.9 2.9 5.6 3.9s3.1-1.5 2.7-2.4c-.1-.3-.4-1-.9-1.8-1.6-.9-3.2-1.8-4.9-2.7-.7.9-.8 1.9-.6 2.3.4.5-.6.7-1 .6-.4-.1-.8 0-.9.1zm-102.8-1.9c.6 1.3.8 2.7 1.2 4.2.1.4.3.9.4 1.4.5 1.2 1.5 2.2 2.1 3.3.1.2.2.4.1.5-.1.2-.2.3-.4.4-.6.4-1.2.8-1.7 1.2 1.7.5 3.3 1 5 1.5.6.2 1.1.4 1.5.8.4.4.5 1.2.1 1.6-.7.7-1.8-.3-2.8-.5-.9-.1-1.9.8-1.8 1.7.4 3.4 14-1.3 16.6-.9 2.3.4 4.6 1.6 6.7.8.6-.2 1.1-.6 1.8-.8 1.2-.3 2.4.2 3.6.6.2.1.5.1.7 0 .2-.2.2-.4.3-.7.2-.8 1-1.3 1.8-1.4 2.9-.5 3.3 2.8 1.2 2.9-1.4.1-2.8 1.6-3.2 3.4l2.4.6c.4.1.6 1.5.5 2.2l-.1 1.1c-.5 1.3 1 2.5 1.4 2.6s1.8-2.2 2.1-3c.3-.7.9-4.4 1-4.5.2-.1 5 3 6.7 4.1 1.7 1.2 3.3-.3 3.4-1.3s4.4-2.6 6.1-2.8c2.9-.5 7.3-3.1 3.6 1.9-.9 1.1-1.7 2.3-2.6 3.4-.2.3-.5.6-.6 1-.3 1.4 1.4 2.5 1.6 3.9.2.9-.4 1.9-.9 2.6-.2.2-.3.4-.6.5-.7.2-1.4-.9-2.1-.6-.5.2-.5 1-.2 1.4.4.4.9.5 1.5.6.9.2 1.9.3 2.8.5.8.1 1.6.3 2.2.7.9.5 1.4 1.5 1.4 2.5.9-.8 1.9-1.7 2.8-2.5.3-.2.5-.5.6-.8.2-.4.1-.8 0-1.2-.7-4.2 1.1-7.9 2.7-11.7l1.3-3.2c-1.7-.8-1-5.7-.2-7.3s.8-4.1.6-4.7c-.3-.5-1.8-1.4-3.4-2l-1.3-.7c-3.8-2.1-7.3-3.9-11.4-5.5-3.4-1.3-7.8-2.5-10.3.1-1.4-.4-1.8-2.7-3.2-2.7-.6 0-1.1.4-1.6.7-1.5.7-3.2-.2-4.7-.9s-3.4-1.2-4.6-.1c1.1.7 2.1 1.6 2.8 2.7-2.8 1.8-6.4-.8-9.7-1.1-2.2-.2-4.4.8-5.9 2.4-2.1 2.3-1.8 3-5.1 3.4l-1.5-.6c-1.2-.5-1.8-2.7-3-3.3l-3.2-1.5c-3.7-1.2-7-1.7-7.1-1.5-.4.7 2.2 4 2.6 4.6zm-29.4-.1c-.4 0-.7 0-.7-.1.2.1 1.2 5.4 3.1 5.2 1.9-.1 4.5 3.8 4.2 4.9-.3 1.1-1.4 2-2.6 1.8l-.6.3-1 .5c-1 .9-1.2 2.6-.4 3.9l.9.3c1.6.5 4.5.9 5 .2l1.5-2.3c.7-3.1 1.4-6.6 1.7-7s.9-.7 1-.7c.2 0 1 2.3 1.2 3.2.3.9 2.1 1.6 2.5 1.5s-.1-2.4-.5-3.3c-.3-.9-.2-1.9 0-2s2.3.7 3.1 1.1c.8.4 1.2-4 0-5.2s-3.6 0-4.2 1c-.6.9-3.4-.4-4.3-1.2-.9-.8-1.5-1.7-1.5-1.8s1.6.2 2.1.3 1.7-1.7 2-2.4c.3-.6-5-2.9-7.3-3.6-2.2-.7-3.8 2.2-3.8 3.3.1 1.2-.9 2.1-1.4 2.1zm15.6 98c-.2 1.8.2 3.6.7 5.3 1-1.7.8-4-.7-5.3zm.8 5.3c-.1.1-.1.3-.2.4.1-.1.2-.1.3-.2 0-.1 0-.1-.1-.2zm-23.1 22c0-1.9 1.7-.4 2.3.8.6 1.1 1.8 1.7 2.5 1.2s2.4-.4 2.3 0c0 .3 6.5.8 7.3-1.3s.6-5.8.3-6.5c-.3-.6-2.6-.2-3.3-.5s-2-.9-2.9-1.3l-.8-.2-3-.7c-3.6-.8-5.6.1-5.1.8s-1.5 4.2-2.6 5.5c-1.1 1.2-.7 3.7 1 5.4l1.5 1.1.9.7c1.3.3 2.2-.4 2-1.5l-.4-.9c-.2-.5-1.3-.6-1.4-1l-.6-1.6zM163.3 50.6c1 .3 1 1 .7 1.3-.3.2 0 1.1.3 1.4.2.3 1-.8 1.2-1.2s1.8-.7 2.2-.7c.5 0 3.1-3.8 4.5-3.4 1.4.4 3.5-.5 3.7-.8s4.6-1.7 6.1-2.1c1.6-.4 3-.1 3 .2.1.3-4.1 1.3-5.7 1.3-1.6 0-2.7 1.9-2.4 4.1l-2.5 1.1c-1.5.7-3.8 1.3-4 2.4-.6 2.4-3 3.4-5.3 3.9v2.5c4.5-.5 8.7-2.7 11.8-6 .6 1.4 1.9 2.4 3.4 2.6-.8-1.4-1.3-3-1.6-4.6-.1-.5-.1-1 .1-1.5.3-.5.8-.7 1.3-.9 3.6-1.2 7.6-.9 11.4-1.5 8.6-1.4 16.7-7.2 25.2-5.6 2.8.5 5.4 1.8 8.2 2.7s5.8 1.3 8.4 0c1.5-.7 2.6-1.9 3.4-3.3 1.4-2.6 1.7-6.1 1.1-9.1-.2-.9-.5-1.9-1.3-2.5-.6-.4-1.4-.5-2.1-.6-4.1-.5-8.5-1-12.2 1-1.8 1-4.1 2.4-5.6 1-.8-.8-1-2.2-2-2.5-.8-.2-1.7.3-2.4-.1-.5-.3-.6-1-.8-1.6-.6-1.8-2.7-2.6-4.6-2.5-1.9.1-3.5 1.2-5.1 2.1.8-1.5 1.5-3.1 2-4.7-.8-.4-1.9.1-2.5.8-.6.7-1 1.6-1.8 2.2-2.7 2.4-7.7-.6-10.5 1.7-.5.4-.9.9-1.4 1.2-.9.4-1.9-.1-2.9-.4-2.5-.8-5.4-.5-7.6.9-.9.6-1.8 1.3-2.9 1.3-1.2 0-2.1-1-3.3-1.2-2.2-.5-4.2 1.5-5.1 3.5-.9 2-1.4 4.4-3.1 5.9 1.1.1 1.4 1.7.8 2.7-.5 1-1.5 1.6-2.1 2.6-.4.6 1.3 6.1 2 6.4zm47.2 5.4c-2.7-.1-5.6-.1-8 .9-1.3.6-2.5 3.4-2.3 5l.3 1.8c2.6.9 6.7 1 9.1.2l1.8-1.3c1.1-.8 1.9-2.6 1.8-3.9 0-1-1.6-2.7-2.7-2.7zm-112 381.3c-.4-1.7-1.1-3.5-1.3-3.6-.2-.1-4.6.3-5.7-.8-1.1-1.1-2.3-2.1-2.5-2.3h-.2c-1.7.4-3.1.3-3.4-2l-.1-.9c-.7-.9-1.6-1.3-1.7-1.2-.1.1-.1 2.7 0 3.7 0 1 1.6 2.3 2.5 2.5.6.1-.2.3-1 .4l4.2 3.9c.9.5 1.6.9 2 1.3 1.4 1.3 5.3 4.6 6.3 5.2s3.8.1 4.4-.2c.6-.3-3.1-4.1-3.5-6zm86.9-19.7c-.7-.4-1-2.2-1.2-2.5s-3.5-1.2-4.8-1.4c-1.3-.2-1.1 1.4-.8 1.8s-2 1.5-2.7 1.7-.7 1.1.2 1.9 3.3 1.9 3.3 1.7c.1-.2 2.1 1 2.8 1.5s2.8-1.3 3.4-2.2c.5-.9 1.6-1.3 1.8-1.2.2.1-1.3-.9-2-1.3zm5.2-72c2.8-11.8-4.8-23.3-12-33.1-1.2-1.6-2.5-3.4-4.5-4s-4.6.4-4.7 2.5c-1.2-1.4-1.1-3.7.3-5-.9-1.3-2.5-2.1-4.1-1.9 1 3.3.4 7.1-1.7 10 2.7 1.6 4.8 4.3 5.6 7.4-1.7.9-3.4 1.8-5.2 2.6 3.6 5.1 7.4 10.4 8.2 16.6s-2.3 13.4-8.3 15c-.1-7-3.6-13.9-9.1-18.1-1.2-.9-2.6-1.8-3.2-3.2-.4-1-.4-2.2-.7-3.3-.6-1.9-2.3-3.2-3.7-4.5-4-3.8-6.4-9.3-6.6-14.8-4.3 1.3-7.1 6.1-6.3 10.5-3.3-6.2-2.8-14.2 1.3-19.9-.2 3.3 5 4.6 7.1 2.1s1.1-6.6-1.3-8.8c1.5.7 3.2 1 4.8.9-2.6-4.8-6-9.3-10-13-.9 3-1.7 5.9-2.6 8.9-1.5-3.4-6.6-4.5-9.4-2-1.9-3.9-2.6-8.4-2.1-12.7-2.2.3-4.2 2.2-4.4 4.5-4.4-4.8-2.4-11.7-5.7-15.9-.9-1.1-2.5-1.4-3.9-1.6-6.4-1.1-13.5-5.1-13.5-11.5l18.9-2.4c-3.6-4.8-9.9-7.5-15.8-6.9 3.9-1.1 7.8-2.2 11.7-3.2-5.1-1-9.4-5.3-10.4-10.4-1.1-5.1 1.2-10.7 5.5-13.7-3-2-5.1-5.2-6-8.7 6.3.1 12.5-2.3 17-6.7 1-1 2-2.1 3.4-2.6 6-2.3 9.5 8.5 15.8 9 2.2.1 4.2-1 6.3-1.6 3.8-1.2 8-.6 11.8-1.9 3.8-1.3 7.1-5.8 4.9-9.1 2.6 1.4 3.5 5.1 2 7.6l7.5-2.1c-.5 3.5 4.1 5.9 7.5 4.7 3.4-1.1 5.5-4.3 7.7-7.1s4.9-5.7 8.5-5.8c-2.9 2.2-3.7 8.1-.9 10.8 5.5 5.4 5.4-3.4 6.5-3.4 7.3-.3 11.4-3.3 16.1-7.9l.4-.4c1.2.4 3.3-2.9 3.7-4.2s-.5-2.9-2-3.5l-.7-.7c-.2-.2.5-1.5.9-2.3l.4-.8c.5-.8 0-1.9-1.2-2.3l-1 .1-1.5.2c-1.6.5-6.3.3-7.6-.1-.5-.2-5.1-4.9-5.7-5.6-3.1-3.3-7.1-6.7-6.3-11.8.9-6 8-8.6 14-9.8-1.4-5.6 3.5-11.8 9.2-11.7 1.8 0 3.5.5 5.3.6 1.8 0 3.8-.6 4.6-2.2.8-1.6-.6-4-2.3-3.6-1.2 1-2.4 1.9-3.6 2.9.5-6 .9-12 1.4-18 .1-1.3.1-2.9-.8-3.8-.8-.8-2-.9-2.8-1.7-2.2-2-.1-6.8-2.9-7.9 3.8.8 7.8-1.2 10.5-4 2.5-2.6 4.1-6 5.6-9.3-.1 1.3 2.1 2.7 3.4 1.7 1.5-1.2 1.2-3.7.1-5.3-1.1-1.6-2.7-2.8-3.7-4.5-3.4-5.7-3.5-8.4-10.3-11.6-5.5-2.6-11.5-3.9-17.2-6-5.5-2.1-9.7-6.3-15.1-8.2-3.3-1.2-7.4-.7-9.6 2.1-.4.6-.8 1.3-1.5 1.5s-1.6-.5-1.3-1.1c-1.4 2.5-10.6 5.6-13.3 7.7-3.5 2.7-6.6 7.3-10.1 9.1-.9-2.8-.7-5.8-1.4-8.7-.7-3.2-3.9-6.5-7-5.2-.4.2-.9.5-1.1.9-.7 1.2.1 2.8 1.3 3.4s2.7.6 4 .5c-5.6 5.8-16.6 1.8-22.4 7.3-3.2 3-3.7 7.7-4.9 11.9s-4.3 8.7-8.6 8.4c-.1-6.9 1.3-13.7 4.2-20-1.8 1.6-4.9 1.4-6.4-.4-.3 2.3-1 4.5-2 6.6-.4.7-.8 1.5-1.6 1.8-1.4.5-2.6-.9-3.7-1.8-1.1-1-3.2-1.3-3.6.1-.6-1.8.1-3.9 1.7-5-1.4-1-2.9-2.2-3.4-3.9s.8-3.9 2.6-3.6l-1.8 2.1c6 .9 12.4-1.1 17-5.2 4.5-4.1 7.1-10.3 6.9-16.4 2-.2 3.6 1.8 3.7 3.7.2 2-.7 3.8-1.7 5.5 8.8-4.3 18.1-7.1 26.7-10.9 2-.9 3.8-2.7 3.9-4.9.1-2.2-2.3-4.3-4.4-3.4-.2-.7-.4-1.3-.6-2-2.8 0-5.5 0-8.2.2C119.4 49.8 99.6 64.4 82 82c-22.6 22.6-40.3 48.9-52.7 78.2C16.5 190.6 10 222.8 10 256c0 30.8 5.6 60.8 16.7 89.3.3-1.1.4-2.3.3-3.5 2.5 1.8 3.5 4.9 4.1 7.9s.9 6.1 2.6 8.6c2.4 3.7 10.4 1.5 9.6 4.3v.1l-.8 2.9c2.3.7 5.7-3.1 6.3-4.9s5 .3 6.2 1.5c1.2 1.1 4.9.1 5.9-.6.9-.7 1.7 2 1.7 2.8s.6 1.4.8 1.4.4-1 .4-2.3l-.2-1.1-.7-3.6c2.2-1.8 3.9-3.7 3.9-4.2 0-.6-.7-1.5-.9-1.1-.2.4-1-1-1.2-1.5-.2-.4-.6-.8-.7-.8s-.3 1.9-.4 2.6c-.1.7-.6 1.3-.7 1.3-.2 0-1.2-3.2-1.6-4.4-.4-1.3 1.1-2.5 1.9-2.5.8-.1 1.5-5.3 1.5-7.1 0-2-1-4.3-1.4-6 3.5.7 4.9 3.8 5.9 7l2.7 8.7c.5 1.6 1 3.4.4 5-.7 1.6-3 2.4-4.1 1.1-1.7 1.1.1 3.8 2.1 4.2 2 .5 4.4.5 5.4 2.3 1.1 2.2-1.6 4.6-4.1 4.8s-5.1-.7-7.5.1c-2.3.8-3.9 2.9-4.8 5.1-1.4 3.3-1.9 7.1-1.3 10.7 1.9 10.8 12.4 17.8 17.5 27.5 1.1 2.1 2 4.4 4 5.6 2 1.3 5.3.5 5.6-1.8 7.2 4.2 13.9 9.1 20.2 14.5-1.9-1.7-1.5-8.9-.8-11 .7-2.5 5.1-5.9 5.1-7.9 0-.7-.4-1.4-.6-2.1-.5-1.5.1-3.4 1.3-4.4 2.2.5 2.4 4.7 4.5 4.2.6-.1 1-.7 1.6-.8 2.1-.6 4.2 3.4 5.6 1.8-2-3.8-4-7.5-6-11.3 1.9 1.1 4.4.6 6.3 1.7 2.3 1.2 3 4.2 3 6.7 0 1.4-.2 2.9-.5 4.2 2-.1 4.8.6 4.5 2.6-2.6-2.1-6.8-1.5-8.7 1.1-1.1 1.5-1.5 3.4-2.5 4.9-1 1.6-3.1 2.8-4.6 1.7.6 3.7 1.2 7.7 3.7 10.5 5.1 5.7 15 4.1 20.4 9.5-1.1-4.3-4.6-7.9-8.9-9.1 1.2-.2 2.4-.4 3.7-.6l-2.7-1.8c2.1-1.8 5.6-1.7 7.6.2-4.3 4.8 5.4 3.4 7.3 2.1 1.1-.7 1.6-4.5 2.8-5.2s-1.9-2.7-3.1-3.1c-1.2-.4-2.5.9-2.7 1.6s-1.5-.5-1.8-1-1.3-.3-1.4-.2c-.2.1-2-.3-4-.9l-1.6-.5-1.8-.6c-1.9-.6-3.1-3.3-2.9-4.1.1-.7 1.2-1.1 1.7-.9.5.1 1-1.2 1-1.6s2.1.3 2.9.6c.8.4 2 .2 2.1.1s-.8-2.3-1.2-3.1c-.4-.8 1.9-.4 2.8.2.9.6 4.4 2.5 5.5 2.9s2.2.5 2.3.4-1.1-1.3-1.6-1.8 1.1-6.9-.7-8.6c-1.8-1.6-5.9-8.1-7.9-8.8-2.1-.7-3.3-4.6-3.1-5.7s.7-2.2.9-2.3 4 6.4 5.7 8.7c1.7 2.3 3.6 5.6 4.1 6.1 5.1 5.1 10 10.6 15.8 14.8-1.1-3.1-2.3-6.2-3.4-9.2 1.6 1.5 2.6 3.5 4.1 5.1s3.9 2.7 5.8 1.7c1.3-.6 2-2 3.2-2.7.9-.6 2-.7 3.1-.9 5.2-.7 10.3-1.5 15.5-2.2 2.6-.4 6.3 0 6.6 2.6.9-2.5 3-5.6 5.5-4.6.6.2 1.1.7 1.7 1 1.7.7 3.6-.8 4.1-2.6 1-3.8-.2-10.9-.6-14.9-.1-.9-1-2-1.7-2.2s-1.5 2.3-1.5 3.2c0 .6-6.3-.7-5.6-4.8 1-6.2 2.4-12.3 4.2-18.4.9-3.2 2.1-6.6 4.9-8.5-3.6.6-7.4 1.2-10.6-.4-3.2-1.6-5.2-6.3-2.7-8.9 1.7-1.9 4.7-1.8 7.1-1.1 3.3 1 6.2 2.9 8.4 5.5 7.6-12-10.1-8.8-15.9-11.2zm39.9-60.9c-1-.8-1.4-1.7-1.2-1.7s-.3-4.4-.6-6.2-2-.3-2.3.3c-.3.7-2.4.8-2.9.6-.5-.1-1.2-4.6-1.3-6.3-.1-1.8-.3-3.2-.6-3.3-.2 0-.8.6-.9 1.5l-.1.8-.2 1.6c-.3 1.7-1.6 5.3-2.9 7.8l-.7 2.4c-.3.9.6 2.3 1.2 3.3l.7 1c1 .9 1.6 1.9 1.5 2s-1.8-.6-2.4-.9c-.6-.3-.7 1.4-.4 1.9.4.5 3.8.7 4.3 1.7s5.2-.2 6.7-.9c1.6-.7 3.3-4.7 2.1-5.6zm174 70.7c-.1-1.9-.7-4.2-2.6-4.5-2-.3-4 2.2-5.7 1.2-.9-.6-1.1-1.8-2-2.4-.6-.4-1.4-.3-2.2-.2.2-3.5 1.5-6.9 3.7-9.6.2 1.5.4 2.9.6 4.4.1.6.2 1.2.8 1.4.9.3 1.4-1.1 1.2-2-.3-2.2-.9-4.3-1.9-6.3-1-1.9-2.7-3.5-3-5.7 1.3.9 2.9 1.5 4.5 1.7-2.1-3.6-7.2-5-10.9-3-.9.5-1.9 1.2-2.9 1.1-.2 0-.4-.1-.7 0-.5.2-.5.9-.2 1.3s.8.7 1.1 1.1c1.2 1.2.6 3.3-.4 4.7s-2.5 2.4-3.2 4c-.9 1.9-.6 4.4-2.1 5.9-.3.3-.7.6-.8 1.1s.3 1 .6 1.3c1.5 1.6 3.1 3 4.9 4.2-1.5 1.5-3.1 2.9-4.6 4.4-.5.5-1 1-1.2 1.7-.2.9.5 1.9 1.3 2.3s1.8.5 2.8.6c-.3 1.3-1 2.5-1.8 3.4 2.2.2 4.5.4 6.3 1.6l1.8 1.2c1.8 1 4.2.8 5.9-.4.4-.3.7-.6 1.2-.7.7-.2 1.4.3 2 .6 2.2 1.2 4.9 1.6 7.3 1 .1-.5.1-.9.1-1.2.3-4.7.4-9.4.1-14.2zm82.9-21.2c-.2-.2-1.8 0-2.5.1s.3-2.5.8-3.5.5-2 .3-2.1-2.1 2.7-2.8 3.8c-.7 1.1-3.5-2.1-2.4-3.6.1-.1.1-.2.2-.3-1.1 1.4-2.9 3.7-2.9 5.6 0 2-1.7 4.9-2.3 5.4-.7.5-1.7-.7-1.9-1.2s-1.3.1-2.6 1.4c-1.3 1.3 1.3 5.5 1.2 5.9l-.1.4c-.7 2.1.3 3.5 2.1 3.9l1.2.2c1.5-.8 4.7-3.4 5.3-4.4s1.2-1.6 1.3-1.5c.1 0-.7 2.8-1 3.9-.3 1-1.5 1.8-2 1.7-.5-.1.8 1.5 1.3 1.9s2-2.3 2.4-3.4.9-.4 1 0c0 0 0 .1.1.1.5-1.2.9-2.3 1.4-3.5-.1-.4-.1-.8 0-1.1.4-1.1.1-3-.6-4.2l-.1-.9c-.1-.8.2-1.8.7-2.4l.6-.7c.9-.5 1.4-1.3 1.3-1.5zm14.6-77.4c-1.2-4.4-1.3-9.2-.3-13.7-.3-6.7-1-13.4-1.8-20l-.1-.1.1-.1c-.2-1.8-.5-3.7-.8-5.5-4.1.4-8.1 2.3-10.9 5.3-2.2-2-3.2-5.2-2.8-8.1 1-.2 2.2 0 3.1.5.1-1.3.2-2.5.3-3.8-1.5 1.2-4.1-.5-3.7-2.3.2-3.8.5-7.5.7-11.3.7 1.4 3.2.4 3.2-1 .7 2.7 1.5 5.4 2.2 8 2.3-7.6 1.6-16-2-23.1-.9-1.7-1.9-3.6-1.4-5.4.1-.5.4-.9.6-1.4-.6-1.8-1.3-3.6-2-5.5-.4.4-.7 1-.5 1.7-.4-2-2.3-3.5-4.3-3.6 1.4-1.4 2-3.3 2-5.2-.3-.7-.5-1.3-.8-2-.3-.8-.7-1.6-1-2.4.1 1.2-1.2 2.4-2.4 2.1-.3-2.6-.4-5.2-.2-7.8-.2-.5-.5-1-.7-1.5-1.1.9-2.3 1.7-3.4 2.6-1.1-1.7-2.2-3.4-3.2-5 .9 4.4.1 9.1-2.3 12.9-1.8-3.2-3.5-6.4-5.3-9.7 1 1.4 3.3.9 4.3-.6.9-1.4.9-3.2.7-4.9-3.2.2-6.4-.1-9.5-.9 1 1.3 1.9 2.6 2.9 4-2.4 1.9-6 2-8.6.4-1 2.9-1.2 6.1-.5 9.1-1.5-1.2-3.1-2.4-4.6-3.6 2.1 4.4-2.5 10.3-7.3 9.3-5.6 5.4-4.8 15.9 1.5 20.4-1.7.8-1.7 3.3-.7 5 1 1.6 2.6 2.8 3.5 4.5 1 2 .8 4.3.9 6.6.4 9.5 7.3 18.5 16.4 21.3 3 .9 6.9.8 8.3-2 .8 1.7.4 3.9-.8 5.3 3.3-2 5.9-5.1 7.4-8.7 3.5 4.5 3.9 11.2 1.2 16.2l4.5-.9c.6 1.7 1.1 3.4 1.7 5.1 1.6-2.8 2.2-6.2 1.8-9.4 2.4-.5 4.8-.9 7.2-1.4-5 3.1-6 10-5.5 16 .5 5.9 1.8 12.1-.4 17.6-2-2.9-2.5-6.7-1.4-10-6.1 2.6-12.6 4-19.2 4.2-13.1-8.6-25.2-18.6-36.1-29.9-2.1-2.2-5.8-4.6-7.9-2.3 1.1-1.8-.8-4.1-2.9-4.6s-4.2.1-6.3-.3c-4.9-.9-7.1-6.4-8.6-11.1-1.8-5.8-2.9-13.5 2.3-16.5-5-1.7-9.9-3.4-14.9-5.1 1.6-3.1 2.4-8.3-1.1-9-2.4-.5-4.3 2.2-4.7 4.7-.4 2.5 0 5.1-1.3 7.3l-4.5-2.4c-2.5 2.8-3 7.1-1.1 10.4-2.6 1.1-4.1 4.5-3 7.1-3-1.3-3.9-5.9-1.5-8.2-2.9.4-5.6 2.3-6.8 5-2.6-3.7-6.3-6.5-10.6-8.1 2.4-.6 4.5-2.1 5.9-4.1-.8.2-2.4-1.7-2.3-3.2.5-4.2.9-8.3 1.4-12.5-3.2 1.1-5.9-3.1-5.5-6.4.3-3.3 2.3-6.4 2.5-9.7.7-11.6-17.5-14.9-21.6-25.8 2.1-1.8 4.1-3.6 6.2-5.4-.8-1.6-1.6-3.1-2.4-4.7 1.7-2.8 5.1-4.5 8.3-4.1-.3 3.3 0 6.7.7 10 1.7-.8 3.5-1.6 5.2-2.4 1.6 2.4 3.3 4.9 4.9 7.3 3-2.7 6-5.4 9-8-1.1.3-2.8-1.1-2.4-2.5.5-1.7 2.5-2.5 4.3-3 2.1 2.2 5 3.8 8 4.3.7-1.3.7-3.1-.1-4.3-3.8.1-7.7-2.2-9.4-5.7-.9-1.9-1.3-4-2.1-5.9-2.9-6.8-12.3-9.7-18.5-5.7 2.3 1.1 3.3 4.4 2 6.6s-4.6 2.9-6.7 1.5c.4 2-.4 4.3-2 5.6-1.1-3.1-3.7-5.6-6.8-6.6 2.7-1.8 2.4-6.6-.5-8-2.1 1.8-4.6 3.1-7.3 3.9-1.5-4.4-4.7-8.3-8.7-10.6-1.6 1.5-3.5 2.7-5.6 3.3.4 1.4 1.6 2.5 3 2.9-1.6 1.4-3.3 2.9-4.9 4.3 2.7-.1 1.4 4.4 2 7 .6 2.5 3.4 3.5 5.7 4.5 2.3 1.1 4.7 3.5 3.6 5.7-5.2 5-14.9 3.9-18.9-2.1-5.3-3.3-11.4-5.5-17.6-5.1s-12.4 3.7-15.3 9.2c2.5 8.5-6 15.8-13.5 20.6-1.6 1-3.1 2-4.7 3 .9 2.7 2.4 5.3 3.6 7.9 2.5 5.8 3.5 12.2 2.8 18.5-.7 1.4-2.3 2.2-3.8 2 1 .9 1.9 1.7 2.9 2.6-1.3-.7-3 .8-2.6 2.2-.8 5-1.5 10-2.3 15-1.9 1.2-12 5.8-6 8 1.9.7 4-.8 4.8-2.6 3.3 0 5.6 4.4 3.8 7.1-5.2 1.4-10.8 1.3-15.9-.2.1-2.9-1.3-5.9-3.7-7.6-2 1.2-.9 4.2.2 6.2s1.6 5.3-.7 5.9c-.4-.9-.7-1.8-1.1-2.7-8.1 1.4-13.3 11.6-9.7 18.9-2.7-3-5.6-6-9.3-7.5s-8.6-1-10.9 2.3c-4.9-8.2-16.7-11.4-25.1-6.8.9 2.6 1.7 5.1 2.6 7.7 3.4-1.7 8.1 1.1 8.2 4.9 0 1.4-.5 2.8-.9 4.1-.9 2.5-1.8 4.9-2.7 7.4-1.1 2.9-3.6 6.5-6.4 5.2 3.5 2 2.7 7.7-.5 10.2-3.2 2.4-7.5 2.5-11.6 2.5 1 1.5 2.1 2.9 3.1 4.4-4.7-1.6-9.4-3.5-13.9-5.6-2.4-.8-5.4.5-6.5 2.8s-.2 5.4 2 6.8c-1.8-.3-3.7-.6-5.5-.9-2.1 1-1.1 4.2.1 6.2 4.6 7.8 7.9 16.3 9.7 25.2 2.6-2 6.5-2.1 9.2-.3-1.6 1.4-2.2 3.9-1.3 5.9 2.5-5 10-6.5 14.2-2.8 1.4-3.4-1.7-7.9-5.4-7.7 1.7-.6 3.3-1.2 5-1.8 0 2.3 2.5 4.2 4.8 3.7s3.6-3.4 2.6-5.4c1.8-.1 3.6-.2 5.5-.3 2.5-3 5.1-6 7.6-9 .8 2.8 3.9 4.4 6.8 4.3 2.9-.1 5.5-1.5 8-3.1-.4-5.3-3.5-9.8-5.8-14.6-2.3-4.8-3.7-10.7-.8-15.1-1.4-.8-2.9-1.5-4.3-2.3 8.8-.9 15.4-9.4 24.2-10.5 8.4-1 15.9 5 22.2 10.7-1-1.9 2.3-2.8 4.3-2.4l20.1 4.5c.3-3 1.1-5.9 2.4-8.6 2.3 0 4.2.2 6-.8-.2-1.1-.7-1.9-1.4-2.8-.6-.9-.5-2.9-.2-3.6.3-.7 1.9-1.1 2.6-1.1.6.1 2.1-2.1 2.6-3.1.4-1 1.8 1.1 2.1 1.9s1.7-1 2.1-1.6c.4-.7 2.5 1.7 3 2.6.6.9.2-3.3-2.1-4-2.2-.6-3.5-4.5-3.2-5.8.2-1.3 4-1.2 4.1-2.7 0-1.5.9-2.8 2-2.9l.9-.1.1-.3c.6.8 1.8 2.4 2.2 3.1.7.9 4.3.7 5.6.3 1.3-.4 1.1-3 .4-3.8-.8-.8-4.9-1-6.2-.7-.7.2-1.3.3-1.8.4l.1-.2c.4-1.4-1.4-7-2.3-8.7-.9-1.6-3.3-3.9-5.2-5.1l-2.2.9c-1.6.7-3.2 1.7-4.8 1.8-2.2.2-3.2 1.2-3.9 3.1v.1c-.4.1-1.4-.8-1.7-1.1-.3-.3.7-1.3 2.1-2.1l1.2-.7 1.2-.6c1.4-.7 2.2-3.4 2-4.3-.1-.9.1-2 .3-2.1.1-.2 4.8 2.5 6.6 3.5 1.7 1 6.7 3.3 8.1 3.6s8.5.2 10.3 1.4 7.2 2.8 8.5 2.5 7.2-1.8 8.1-1.2-.2 5.1-.8 6.5c-.6 1.4-1.6 2.3-1.8 2.2-.2-.1.3-1 .6-1.4.3-.4-3.1-.9-4.3-1-1.2-.1-2.2-.3-2.2-.4 0-.1 1.3-.4 1.9-.4.5-.1-2.6-2.9-3.6-1.9s-2 2.5-2 2.8c0 .2 2.3 1.1 3.2 1.4 4.9 1.3-3.1 4-5.1 3.8.9 3-1.5 6.6-4.6 7 1.9 8.2 3.9 16.4 5.8 24.6.5 2.2-.1 5.6-2.2 5.1 1.9.8 2.9 3.4 1.9 5.3 1.4.7 2.9 1.4 4.3 2.1-1.4 1.8-2.8 3.5-4.1 5.3.9 1.4 2 2.9 3.5 3.4 1.6.5 3.8-.6 3.5-2.3 5.7 2.7 4.5 13-1.7 14.4 10.6 2.2 21.1 4.4 31.7 6.6 0 3.2 1.1 6.4 3.2 8.8.3-1.5.6-3 .8-4.6 2.9 4 2.4 10-1.2 13.4-2.6.6-4.3 3.7-3.4 6.2 2.7.2 5.3-1.9 5.6-4.6 4 1.7 8-2.1 10.6-5.5 6.7-9 12.4-18.9 16.7-29.2.4-1.1 1-2.2 2-2.7 2.6-1.2 7.1 2 7.9-.8 2 .9 3.2 3.3 2.8 5.4 6.6 0 13.2.8 19.6 2.4 1.1-2.5 3.8-4.2 6.5-4.1-.5 5.3-2.2 10.4-4.9 14.9 5.1 3 8.7 8.5 9.3 14.4-1.5-2.1-4.6-2.8-6.8-1.6-2.3 1.2-3.4 4.1-2.6 6.5 3.7 0 6.6 4.4 5.1 7.8 6.4.2 12.6 3.5 16.3 8.7-3.5 2.9-8.9 3.4-12.9 1.1 2.7 3 5.5 6.1 8.2 9.1 1.1-4.2 7.2-4.2 11.1-2.2 3.9 1.9 8 5 12.1 3.6l-6 17.4c-1.7-.6-2.4-3.1-1.2-4.4-3.6 2.3-7.2 4.8-9.2 8.6-2.1 4.1-1.7 9.5 1.1 13.2 9.7.1 18.3-9.9 16.6-19.5 2.6.4 4.8 2.5 5.3 5.1 1.4.9 3.5-.2 4.2-1.8.7-1.6.5-3.4.6-5.1.1-5.4 2.6-10.5 5-15.4.4-.7.8-1.6 1.7-1.7.3-.1.6.1.8.3l-.3.5c.2-.1.3-.3.3-.5.2.2.3.4.3.6 3-6.8 1.7-15.3-3.3-20.8-.2-.3-.7-.4-1-.3 2.2-4.2 4.5-8.5 8.3-11.3 3.9-2.9 9.7-3.8 13.4-.8 1.4-2.7 2.8-5.5 4.2-8.2.4 1.4.8 2.7 1.2 4.1 0-.8.4-1.6 1-2.1.6-3.8 1.1-7.5 1.5-11.3-.7-1.8-1.5-3.4-2.6-5 .3 3.1-2.2 6.2-5.3 6.5-.9-2.9-1.8-5.7-2.8-8.6.8 1.3 2.9.9 3.8-.2.9-1.2 1-2.8 1-4.3 1.8 1.5 3.5 3.1 5.3 4.6-.2-4.8.2-9.6 1-14.3.4.8.7 1.6.9 2.4-.1-2.4 0-4.7 0-7zM371.3 121.5c.3-.1.5-.3.7-.6-.2.2-.4.4-.7.6zm-6.4 64.9c.2-.1.4-.3.4-.7-.1.2-.3.5-.4.7zM488.5 215c0 .3 0 .6-.1 1 .1-.3.3-.5.4-.8-.1-.1-.2-.2-.3-.2z" fill="#fff"/></svg>