<svg version="1.1" xmlns="http://www.w3.org/2000/svg" x="0" y="0" viewBox="0 0 512 512" xml:space="preserve"><path d="m328.9 506.1-8.9-15.7v-3.5h.1v-3.7c0-1.1.4-2.3 1.2-3.3.5-.6.7-1.2.7-1.9V293.4c0-2.3-.7-4.7-2.2-6.8l-27.8-36v-64.1h3c.6 0 1-.4 1-1v-10c0-.6-.4-1-1-1h-3V59.3c-.8-4.9-2.7-9.8-4.8-14.7-2.2-4.9-4.8-9.8-7.7-14.7-2.9-4.9-6.1-9.8-9.8-14.7C266 10.1 262 5.2 257 .3c-.1-.1-.3-.2-.5-.2-.6-.1-1.2 0-1.5.2-5 4.9-9 9.8-12.6 14.7-3.7 4.9-6.9 9.8-9.8 14.7-2.9 4.9-5.5 9.8-7.7 14.7-2.1 4.9-4 9.8-4.8 14.7 0 .2 0 .5-.1.7v114.7h-3c-.6 0-1 .4-1 1v10c0 .6.4 1 1 1h3v64.1l-27.8 36c-1.5 2.1-2.2 4.5-2.2 6.8V478c0 .7.2 1.3.7 1.9.8 1 1.2 2.2 1.2 3.3v3.7h.1v3.5l-8.9 15.7c-.7 1.2.4 2.5 2.3 2.7l29.1 3.2c1.9.2 3.6-.9 3.4-2.2l-2.4-11.7h80.9l-2.4 11.7c-.2 1.3 1.5 2.4 3.4 2.2l29.1-3.2c2-.2 3.1-1.5 2.4-2.7z" opacity=".1" fill="#fff"/><path d="m328.9 506.1-8.9-15.7v-3.5h.1v-3.7c0-1.1.4-2.3 1.2-3.3.5-.6.7-1.2.7-1.9V293.4c0-2.3-.7-4.7-2.2-6.8l-27.8-36v-64.1h3c.6 0 1-.4 1-1v-10c0-.6-.4-1-1-1h-3V59.3c-.8-4.9-2.7-9.8-4.8-14.7-2.2-4.9-4.8-9.8-7.7-14.7-2.9-4.9-6.1-9.8-9.8-14.7C266 10.1 262 5.2 257 .3c-.1-.1-.3-.2-.5-.2-.6-.1-1.2 0-1.5.2-5 4.9-9 9.8-12.6 14.7-3.7 4.9-6.9 9.8-9.8 14.7-2.9 4.9-5.5 9.8-7.7 14.7-2.1 4.9-4 9.8-4.8 14.7 0 .2 0 .5-.1.7v114.7h-3c-.6 0-1 .4-1 1v10c0 .6.4 1 1 1h3v64.1l-27.8 36c-1.5 2.1-2.2 4.5-2.2 6.8V478c0 .7.2 1.3.7 1.9.8 1 1.2 2.2 1.2 3.3v3.7h.1v3.5l-8.9 15.7c-.7 1.2.4 2.5 2.3 2.7l29.1 3.2c1.9.2 3.6-.9 3.4-2.2l-2.4-11.7h80.9l-2.4 11.7c-.2 1.3 1.5 2.4 3.4 2.2l29.1-3.2c2-.2 3.1-1.5 2.4-2.7zM231 127.5c-.8 0-1.5-.7-1.5-1.5s.7-1.5 1.5-1.5 1.5.7 1.5 1.5-.7 1.5-1.5 1.5zm37.5-24.7c.8 0 1.5.7 1.5 1.5s-.7 1.5-1.5 1.5-1.5-.7-1.5-1.5.7-1.5 1.5-1.5zM256 99.5c.8 0 1.5.7 1.5 1.5s-.7 1.5-1.5 1.5-1.5-.7-1.5-1.5.7-1.5 1.5-1.5zm-12.5 3.3c.8 0 1.5.7 1.5 1.5s-.7 1.5-1.5 1.5-1.5-.7-1.5-1.5.7-1.5 1.5-1.5zm-9.2 9.2c.8 0 1.5.7 1.5 1.5s-.7 1.5-1.5 1.5-1.5-.7-1.5-1.5.7-1.5 1.5-1.5zm0 28c-.8 0-1.5-.7-1.5-1.5s.7-1.5 1.5-1.5 1.5.7 1.5 1.5-.7 1.5-1.5 1.5zm9.2 9.2c-.8 0-1.5-.7-1.5-1.5s.7-1.5 1.5-1.5 1.5.7 1.5 1.5-.7 1.5-1.5 1.5zm12.5 3.3c-.8 0-1.5-.7-1.5-1.5s.7-1.5 1.5-1.5 1.5.7 1.5 1.5-.7 1.5-1.5 1.5zm12.5-3.3c-.8 0-1.5-.7-1.5-1.5s.7-1.5 1.5-1.5 1.5.7 1.5 1.5-.7 1.5-1.5 1.5zm-12.5-.7c-12.4 0-22.5-10.1-22.5-22.5s10.1-22.5 22.5-22.5 22.5 10.1 22.5 22.5-10.1 22.5-22.5 22.5zm21.7-8.5c-.8 0-1.5-.7-1.5-1.5s.7-1.5 1.5-1.5 1.5.7 1.5 1.5-.7 1.5-1.5 1.5zm0-25c-.8 0-1.5-.7-1.5-1.5s.7-1.5 1.5-1.5 1.5.7 1.5 1.5-.7 1.5-1.5 1.5zm3.3 12.5c-.8 0-1.5-.7-1.5-1.5s.7-1.5 1.5-1.5 1.5.7 1.5 1.5-.7 1.5-1.5 1.5z" fill="#fff"/></svg>