<svg version="1.1" xmlns="http://www.w3.org/2000/svg" x="0" y="0" viewBox="0 0 512 512" xml:space="preserve"><circle cx="256" cy="256" r="256" opacity=".1" fill="#fff"/><path d="M185.4 417.6c.7.4 2.2 1.4 2 1.3s-1.3.3-1.8 1.2c-.6.9-2.7 2.7-3.4 2.2s-2.7-1.7-2.8-1.5c0 .2-2.4-.9-3.3-1.7-.9-.8-.9-1.7-.2-1.9.7-.2 3-1.3 2.7-1.7-.3-.4-.5-2 .8-1.8s4.6 1.1 4.8 1.4.5 2.1 1.2 2.5zM229.3 283c.2 0-.3-4.4-.6-6.2s-2-.3-2.3.3c-.3.7-2.4.8-2.9.6-.5-.1-1.2-4.6-1.3-6.3-.1-1.8-.3-3.2-.6-3.3-.2 0-.8.6-.9 1.5l-.1.8-.2 1.6c-.3 1.7-1.6 5.3-2.9 7.8l-.7 2.4c-.3.9.6 2.3 1.2 3.3l.7 1c1 .9 1.6 1.9 1.5 2s-1.8-.6-2.4-.9c-.6-.3-.7 1.4-.4 1.9.4.5 3.8.7 4.3 1.7s5.2-.2 6.7-.9c1.6-.7 3.3-4.7 2.1-5.6-1-.8-1.4-1.7-1.2-1.7zm259.5-67.8c-.1-.1-.2-.2-.3-.2 0 .3 0 .6-.1 1 .1-.3.3-.5.4-.8zm-86.9 135.7c-2-.3-4 2.2-5.7 1.2-.9-.6-1.1-1.8-2-2.4-.6-.4-1.4-.3-2.2-.2.2-3.5 1.5-6.9 3.7-9.6.2 1.5.4 2.9.6 4.4.1.6.2 1.2.8 1.4.9.3 1.4-1.1 1.2-2-.3-2.2-.9-4.3-1.9-6.3-1-1.9-2.7-3.5-3-5.7 1.3.9 2.9 1.5 4.5 1.7-2.1-3.6-7.2-5-10.9-3-.9.5-1.9 1.2-2.9 1.1-.2 0-.4-.1-.7 0-.5.2-.5.9-.2 1.3s.8.7 1.1 1.1c1.2 1.2.6 3.3-.4 4.7s-2.5 2.4-3.2 4c-.9 1.9-.6 4.4-2.1 5.9-.3.3-.7.6-.8 1.1s.3 1 .6 1.3c1.5 1.6 3.1 3 4.9 4.2-1.5 1.5-3.1 2.9-4.6 4.4-.5.5-1 1-1.2 1.7-.2.9.5 1.9 1.3 2.3s1.8.5 2.8.6c-.3 1.3-1 2.5-1.8 3.4 2.2.2 4.5.4 6.3 1.6l1.8 1.2c1.8 1 4.2.8 5.9-.4.4-.3.7-.6 1.2-.7.7-.2 1.4.3 2 .6 2.2 1.2 4.9 1.6 7.3 1 .1-.5.1-.9.1-1.2.3-4.7.4-9.4.1-14.2-.1-1.9-.7-4.2-2.6-4.5zm-36.6-165.2c-.1.2-.3.5-.4.7.2-.1.4-.3.4-.7zm6.7-64.8c-.2.2-.4.4-.7.6.3-.1.5-.3.7-.6zm-117.5 23.3c.1-.1.2-.1.3-.2 0-.1 0-.1-.1-.2-.1.1-.1.3-.2.4zm.1-.4c1-1.7.8-4-.7-5.3-.2 1.8.2 3.6.7 5.3zm-17-103.4c.2.1 1.2 5.4 3.1 5.2 1.9-.1 4.5 3.8 4.2 4.9-.3 1.1-1.4 2-2.6 1.8l-.6.3-1 .5c-1 .9-1.2 2.6-.4 3.9l.9.3c1.6.5 4.5.9 5 .2l1.5-2.3c.7-3.1 1.4-6.6 1.7-7s.9-.7 1-.7c.2 0 1 2.3 1.2 3.2.3.9 2.1 1.6 2.5 1.5s-.1-2.4-.5-3.3c-.3-.9-.2-1.9 0-2s2.3.7 3.1 1.1c.8.4 1.2-4 0-5.2s-3.6 0-4.2 1c-.6.9-3.4-.4-4.3-1.2-.9-.8-1.5-1.7-1.5-1.8s1.6.2 2.1.3 1.7-1.7 2-2.4c.3-.6-5-2.9-7.3-3.6-2.2-.7-3.8 2.2-3.8 3.3.1 1.2-.9 2.1-1.4 2.1-.4 0-.7 0-.7-.1zm-.9 2.1c1.4-2.6 1.7-6.1 1.1-9.1-.2-.9-.5-1.9-1.3-2.5-.6-.4-1.4-.5-2.1-.6-4.1-.5-8.5-1-12.2 1-1.8 1-4.1 2.4-5.6 1-.8-.8-1-2.2-2-2.5-.8-.2-1.7.3-2.4-.1-.5-.3-.6-1-.8-1.6-.6-1.8-2.7-2.6-4.6-2.5-1.9.1-3.5 1.2-5.1 2.1.8-1.5 1.5-3.1 2-4.7-.8-.4-1.9.1-2.5.8-.6.7-1 1.6-1.8 2.2-2.7 2.4-7.7-.6-10.5 1.7-.5.4-.9.9-1.4 1.2-.9.4-1.9-.1-2.9-.4-2.5-.8-5.4-.5-7.6.9-.9.6-1.8 1.3-2.9 1.3-1.2 0-2.1-1-3.3-1.2-2.2-.5-4.2 1.5-5.1 3.5-.9 2-1.4 4.4-3.1 5.9 1.1.1 1.4 1.7.8 2.7-.5 1-1.5 1.6-2.1 2.6-.4.6 1.3 6.1 2 6.4 1 .3 1 1 .7 1.3-.3.2 0 1.1.3 1.4.2.3 1-.8 1.2-1.2s1.8-.7 2.2-.7c.5 0 3.1-3.8 4.5-3.4 1.4.4 3.5-.5 3.7-.8s4.6-1.7 6.1-2.1c1.6-.4 3-.1 3 .2.1.3-4.1 1.3-5.7 1.3-1.6 0-2.7 1.9-2.4 4.1l-2.5 1.1c-1.5.7-3.8 1.3-4 2.4-.6 2.4-3 3.4-5.3 3.9v2.5c4.5-.5 8.7-2.7 11.8-6 .6 1.4 1.9 2.4 3.4 2.6-.8-1.4-1.3-3-1.6-4.6-.1-.5-.1-1 .1-1.5.3-.5.8-.7 1.3-.9 3.6-1.2 7.6-.9 11.4-1.5 8.6-1.4 16.7-7.2 25.2-5.6 2.8.5 5.4 1.8 8.2 2.7s5.8 1.3 8.4 0c1.5-.7 2.6-1.9 3.4-3.3zM210.5 56c-2.7-.1-5.6-.1-8 .9-1.3.6-2.5 3.4-2.3 5l.3 1.8c2.6.9 6.7 1 9.1.2l1.8-1.3c1.1-.8 1.9-2.6 1.8-3.9 0-1-1.6-2.7-2.7-2.7zm200.7 23.6l1.4.8 1.4.8c1.8.4 3.1 1 3 1.3s.3.8.5.8c.2.1.8-1.9.9-2.6s-.7-2.5-1.8-4l-1.4-.4-1.6-.4c-2.1.3-3.7.5-3.7.5s.6 1.4 1.3 3.2zm-180.1 90.5l.9.7c1.3.3 2.2-.4 2-1.5l-.4-.9c-.2-.5-1.3-.6-1.4-1l-.6-1.6c0-1.9 1.7-.4 2.3.8.6 1.1 1.8 1.7 2.5 1.2s2.4-.4 2.3 0c0 .3 6.5.8 7.3-1.3s.6-5.8.3-6.5c-.3-.6-2.6-.2-3.3-.5s-2-.9-2.9-1.3l-.8-.2-3-.7c-3.6-.8-5.6.1-5.1.8s-1.5 4.2-2.6 5.5c-1.1 1.2-.7 3.7 1 5.4l1.5 1.1zm37.8-125.3c.1.4.3.9.4 1.4.5 1.2 1.5 2.2 2.1 3.3.1.2.2.4.1.5-.1.2-.2.3-.4.4-.6.4-1.2.8-1.7 1.2 1.7.5 3.3 1 5 1.5.6.2 1.1.4 1.5.8.4.4.5 1.2.1 1.6-.7.7-1.8-.3-2.8-.5-.9-.1-1.9.8-1.8 1.7.4 3.4 14-1.3 16.6-.9 2.3.4 4.6 1.6 6.7.8.6-.2 1.1-.6 1.8-.8 1.2-.3 2.4.2 3.6.6.2.1.5.1.7 0 .2-.2.2-.4.3-.7.2-.8 1-1.3 1.8-1.4 2.9-.5 3.3 2.8 1.2 2.9-1.4.1-2.8 1.6-3.2 3.4l2.4.6c.4.1.6 1.5.5 2.2l-.1 1.1c-.5 1.3 1 2.5 1.4 2.6s1.8-2.2 2.1-3c.3-.7.9-4.4 1-4.5.2-.1 5 3 6.7 4.1 1.7 1.2 3.3-.3 3.4-1.3s4.4-2.6 6.1-2.8c2.9-.5 7.3-3.1 3.6 1.9-.9 1.1-1.7 2.3-2.6 3.4-.2.3-.5.6-.6 1-.3 1.4 1.4 2.5 1.6 3.9.2.9-.4 1.9-.9 2.6-.2.2-.3.4-.6.5-.7.2-1.4-.9-2.1-.6-.5.2-.5 1-.2 1.4.4.4.9.5 1.5.6.9.2 1.9.3 2.8.5.8.1 1.6.3 2.2.7.9.5 1.4 1.5 1.4 2.5.9-.8 1.9-1.7 2.8-2.5.3-.2.5-.5.6-.8.2-.4.1-.8 0-1.2-.7-4.2 1.1-7.9 2.7-11.7l1.3-3.2c-1.7-.8-1-5.7-.2-7.3s.8-4.1.6-4.7c-.3-.5-1.8-1.4-3.4-2l-1.3-.7c-3.8-2.1-7.3-3.9-11.4-5.5-3.4-1.3-7.8-2.5-10.3.1-1.4-.4-1.8-2.7-3.2-2.7-.6 0-1.1.4-1.6.7-1.5.7-3.2-.2-4.7-.9s-3.4-1.2-4.6-.1c1.1.7 2.1 1.6 2.8 2.7-2.8 1.8-6.4-.8-9.7-1.1-2.2-.2-4.4.8-5.9 2.4-2.1 2.3-1.8 3-5.1 3.4l-1.5-.6c-1.2-.5-1.8-2.7-3-3.3l-3.2-1.5c-3.7-1.2-7-1.7-7.1-1.5-.4.7 2.2 4 2.6 4.6.6 1.3.8 2.7 1.2 4.2zm184.7 83.8c1.3-.6 0-2-.8-2.3-.9-.4-1.6-2.5-1.6-3.3s4.5.9 6.3 1.8 2.9-1.7 2.7-2.7c-.1-1.3-1.8-1.9-2.5-1.8s-1.3-.3-1.3-.9v-.8c0-.7.3-1.7 0-2.1l-1.4-1.6c-1.8-1.7-4.3-2.7-4.8-2.5s.8 1.9 1.5 2.5-3.2 1.6-2.9 2.8-.6 2.6-1 2.8c-.4.2-.4 1.2.1 2.3.5 1.1 4.4 6.4 5.7 5.8zm-65.4-63.9c3.3 1.2 6.6 2.3 9.9 3.4l.6.2c.5.5 4.5 3.5 5.9 4.4 1.4 1 .7 2.5 0 1.9s-2.7-1.3-4.4-1.5l-1.2-.8-1.3-.9c-1.1-1.6-3.4-2.2-4-2-.6.3 1.2 3.4 2 4.5s1.8 1.4 1.9 1.1c.1-.2 1 0 1.9.5l.9.1 3.2.3c3.5.2 6.4.4 6.3.4l1.8-5.6c-3.8-2.5-8.1-5.3-9.6-6.2l-1.5-.5-1.3-.5c-1.7-.2-6.1-4.7-8.5-5.5-2.4-.7-4.4.5-4.3 2.7l.3 2c.1.8.7 1.8 1.4 2zm123.3 206.4c.1 0 .1 0 0 0 0 1.9-.2 3.7-.3 5.6-.4 5.4-1 10.7-1.8 16l.1-.1c-.1.9-.3 1.9-.4 2.8h-.1c-2.2 14.1-5.5 27.9-9.9 41.1l.2-.2c-1.7 4.9-3.4 9.7-5.3 14.5l-.1-.1C456.3 445.2 364 512 256 512 131.9 512 28.4 423.7 5 306.5c-.1-.5-.2-.9-.3-1.4-.3-1.7-.7-3.5-1-5.2-.1-.7-.2-1.4-.4-2.1-.2-1.5-.5-3-.7-4.5-.1-.8-.2-1.7-.4-2.5-.2-1.4-.4-2.8-.5-4.2l-.3-2.7c-.1-1.4-.3-2.8-.4-4.1-.1-.9-.2-1.9-.2-2.8l-.3-4.2c-.1-.9-.1-1.8-.2-2.7-.1-1.5-.1-3.1-.2-4.6 0-.8-.1-1.5-.1-2.3V256c0-2 0-3.9.1-5.9v-1.3c.1-1.9.1-3.8.2-5.7 0-.3 0-.6.1-1 .1-1.7.2-3.3.3-5 0-.5.1-.9.1-1.4.1-1.8.3-3.6.5-5.4.1-.5.1-1.1.2-1.6.2-1.5.3-2.9.5-4.3.1-.5.1-1 .2-1.5.2-1.7.5-3.3.7-5 .1-.7.2-1.4.3-2.2.2-1.2.4-2.5.6-3.7.2-1.1.4-2.2.6-3.2s.4-2 .6-2.9.4-1.9.6-2.8c.2-.8.3-1.5.5-2.3l1.2-5.1c.1-.5.2-.9.3-1.4C35.1 82.8 135.8 0 256 0c79.5 0 150.5 36.2 197.4 93 .1.1.2.3.4.4 1.1 1.3 2.1 2.6 3.2 4 34.5 43.6 55 98.7 55 158.6 0 5.1-.2 10.1-.5 15.1zm-13.5 6.5c1.1 1.6 1.9 3.3 2.6 5 .7-6.3 1.1-12.6 1.3-18.9-.2-.8-.5-1.6-.9-2.4-.8 4.7-1.2 9.5-1 14.3-1.8-1.5-3.5-3.1-5.3-4.6 0 1.5-.1 3.1-1 4.3-.9 1.1-3 1.5-3.8.2 1 2.9 1.9 5.7 2.8 8.6 3.1-.3 5.6-3.4 5.3-6.5zm-9.3-66.3c-.1 1.3-.2 2.5-.3 3.8-.9-.5-2.1-.7-3.1-.5-.4 2.9.6 6.1 2.8 8.1 2.8-3 6.8-4.9 10.9-5.3-2.3-14.5-5.8-28.7-10.7-42.6-.3.5-.5.9-.6 1.4-.5 1.8.5 3.7 1.4 5.4 3.6 7.1 4.3 15.5 2 23.1-.7-2.6-1.5-5.3-2.2-8 0-.2-.1-.4-.2-.6.1.2.1.4.2.6 0 1.4-2.5 2.4-3.2 1-.2 3.8-.5 7.5-.7 11.3-.4 1.8 2.2 3.5 3.7 2.3zm-9.4-51.4c1.2.3 2.4-.9 2.4-2.1-.8-1.9-1.7-3.8-2.6-5.7-.2 2.6-.1 5.2.2 7.8zm2.2 7.5c2 .1 3.9 1.6 4.3 3.6-.2-.7.1-1.2.5-1.7-.9-2.4-1.8-4.8-2.8-7.1 0 1.9-.6 3.8-2 5.2zm18.2 55.6c0 .1.1.1.1.1v-.3c0 .1-.1.2-.1.2zm2.3 33.8v-.8c0-4.3-.1-8.6-.3-12.9-1 4.5-.9 9.2.3 13.7zM72.2 267.3c-1.2 1.1-2.3 2.2-3.5 3.3.5 1.1 2.3 1.3 3.3.5s1.5-2.1 1.9-3.3c1.7-5.3 3.5-10.6 5.2-15.9 1.3.6 3 .3 4-.7s1.3-2.7.6-4c-.7.7-1.9.2-2.4-.6s-.4-1.8-.3-2.8c.3-5.1-1.6-10-3.4-14.8 1.4 3.9-4.9 5.5-4.9 5.3.2-.9.1-2.9-.6-2.6-.7.4-2.5.5-2.5-.3-.2-3-3.4-4.9-5-1.6-.5 1-.6 2.3-.9 3.4-1 3.8-4.1 6.8-4.8 10.6-.1.4-.1.7 0 1.2-.1 2.9 1.4 5.5 2.8 8 1.2-.7 2.8.3 3.8 1.3s2.3 2.2 3.7 1.8c-.5 3.9.6 8 3 11.2zm410.5 84.5c.5-1.1.9-2.2 1.4-3.3 0 0 0-.1-.1-.1-.1-.4-.6-1.1-1 0s-1.9 3.8-2.4 3.4-1.8-2-1.3-1.9 1.7-.7 2-1.7c.3-1.1 1.1-3.9 1-3.9-.1-.1-.7.5-1.3 1.5s-3.8 3.6-5.3 4.4l-1.2-.2c-1.8-.4-2.8-1.8-2.1-3.9l.1-.4c.1-.4-2.5-4.6-1.2-5.9s2.4-1.9 2.6-1.4 1.2 1.7 1.9 1.2c.6-.5 2.3-3.4 2.3-5.4 0-1.9 1.8-4.2 2.9-5.6-.1.1-.1.2-.2.3-1.1 1.5 1.7 4.7 2.4 3.6s2.6-3.9 2.8-3.8c.2.1.2 1.1-.3 2.1s-1.5 3.6-.8 3.5 2.3-.3 2.5-.1c.1.2-.4 1-1.4 1.5l-.6.7c-.5.6-.8 1.6-.7 2.4l.1.9c.7 1.2 1 3.1.6 4.2-.1.2-.1.6 0 1.1 6.4-16.5 11-33.6 13.7-51-.6.6-1 1.3-1 2.1-.4-1.4-.8-2.7-1.2-4.1-1.4 2.7-2.8 5.5-4.2 8.2-3.7-3-9.5-2.1-13.4.8-3.8 2.8-6.1 7.1-8.3 11.3-.2.1-.2.1-.2.3.1-.1.1-.2.2-.3.3-.1.8 0 1 .3 5 5.5 6.3 14 3.3 20.8 0-.2-.1-.4-.3-.6 0 .2-.1.4-.3.5l.3-.5c-.2-.2-.5-.3-.8-.3-.9.1-1.3 1-1.7 1.7-2.4 4.9-4.9 10-5 15.4-.1 1.7.1 3.5-.6 5.1s-2.8 2.7-4.2 1.8c-.5-2.6-2.7-4.7-5.3-5.1 1.7 9.6-6.9 19.6-16.6 19.5-2.8-3.7-3.2-9.1-1.1-13.2 2-3.8 5.6-6.3 9.2-8.6-1.2 1.3-.5 3.8 1.2 4.4l6-17.4c-4.1 1.4-8.2-1.7-12.1-3.6-3.9-2-10-2-11.1 2.2-2.7-3-5.5-6.1-8.2-9.1 4 2.3 9.4 1.8 12.9-1.1-3.7-5.2-9.9-8.5-16.3-8.7 1.5-3.4-1.4-7.8-5.1-7.8-.8-2.4.3-5.3 2.6-6.5 2.2-1.2 5.3-.5 6.8 1.6-.6-5.9-4.2-11.4-9.3-14.4 2.7-4.5 4.4-9.6 4.9-14.9-2.7-.1-5.4 1.6-6.5 4.1-6.4-1.6-13-2.4-19.6-2.4.4-2.1-.8-4.5-2.8-5.4-.8 2.8-5.3-.4-7.9.8-1 .5-1.6 1.6-2 2.7-4.3 10.3-10 20.2-16.7 29.2-2.6 3.4-6.6 7.2-10.6 5.5-.3 2.7-2.9 4.8-5.6 4.6-.9-2.5.8-5.6 3.4-6.2 3.6-3.4 4.1-9.4 1.2-13.4-.2 1.6-.5 3.1-.8 4.6-2.1-2.4-3.2-5.6-3.2-8.8-10.6-2.2-21.1-4.4-31.7-6.6 6.2-1.4 7.4-11.7 1.7-14.4.3 1.7-1.9 2.8-3.5 2.3-1.5-.5-2.6-2-3.5-3.4 1.3-1.8 2.7-3.5 4.1-5.3-1.4-.7-2.9-1.4-4.3-2.1 1-1.9 0-4.5-1.9-5.3 2.1.5 2.7-2.9 2.2-5.1-1.9-8.2-3.9-16.4-5.8-24.6 3.1-.4 5.5-4 4.6-7 2 .2 10-2.5 5.1-3.8-.9-.3-3.2-1.2-3.2-1.4 0-.3 1-1.8 2-2.8s4.1 1.8 3.6 1.9c-.6 0-1.9.3-1.9.4 0 .1 1 .3 2.2.4 1.2.1 4.6.6 4.3 1-.3.4-.8 1.3-.6 1.4.2.1 1.2-.8 1.8-2.2.6-1.4 1.7-5.9.8-6.5-.9-.6-6.8.9-8.1 1.2-1.3.3-6.7-1.3-8.5-2.5s-8.9-1.1-10.3-1.4c-1.4-.3-6.4-2.6-8.1-3.6-1.8-1-6.5-3.7-6.6-3.5-.2.1-.4 1.2-.3 2.1.2.9-.6 3.6-2 4.3l-1.2.6-1.2.7c-1.4.8-2.4 1.8-2.1 2.1s1.3 1.2 1.7 1.1v-.1c.7-1.9 1.7-2.9 3.9-3.1 1.6-.1 3.2-1.1 4.8-1.8l2.2-.9c1.9 1.2 4.3 3.5 5.2 5.1.9 1.7 2.7 7.3 2.3 8.7l-.1.2c.4-.1 1.1-.3 1.8-.4 1.3-.3 5.4-.1 6.2.7.7.8.9 3.4-.4 3.8-1.3.4-4.9.6-5.6-.3-.4-.7-1.6-2.2-2.2-3.1l-.1.3-.9.1c-1.1.1-2 1.4-2 2.9-.1 1.5-3.9 1.4-4.1 2.7-.3 1.3 1 5.2 3.2 5.8 2.3.7 2.7 4.9 2.1 4-.5-.9-2.6-3.3-3-2.6-.4.6-1.8 2.4-2.1 1.6s-1.7-2.9-2.1-1.9c-.5 1-2 3.2-2.6 3.1-.7 0-2.3.4-2.6 1.1-.3.7-.4 2.7.2 3.6.7.9 1.2 1.7 1.4 2.8-1.8 1-3.7.8-6 .8-1.3 2.7-2.1 5.6-2.4 8.6l-20.1-4.5c-2-.4-5.3.5-4.3 2.4-6.3-5.7-13.8-11.7-22.2-10.7-8.8 1.1-15.4 9.6-24.2 10.5 1.4.8 2.9 1.5 4.3 2.3-2.9 4.4-1.5 10.3.8 15.1 2.3 4.8 5.4 9.3 5.8 14.6-2.5 1.6-5.1 3-8 3.1s-6-1.5-6.8-4.3c-2.5 3-5.1 6-7.6 9-1.9.1-3.7.2-5.5.3 1 2-.3 4.9-2.6 5.4s-4.8-1.4-4.8-3.7c-1.7.6-3.3 1.2-5 1.8 3.7-.2 6.8 4.3 5.4 7.7-4.2-3.7-11.7-2.2-14.2 2.8-.9-2-.3-4.5 1.3-5.9-2.7-1.8-6.6-1.7-9.2.3-1.8-8.9-5.1-17.4-9.7-25.2-1.2-2-2.2-5.2-.1-6.2 1.8.3 3.7.6 5.5.9-2.2-1.4-3.1-4.5-2-6.8s4.1-3.6 6.5-2.8c4.5 2.1 9.2 4 13.9 5.6-1-1.5-2.1-2.9-3.1-4.4 4.1 0 8.4-.1 11.6-2.5 3.2-2.5 4-8.2.5-10.2 2.8 1.3 5.3-2.3 6.4-5.2.9-2.5 1.8-4.9 2.7-7.4.4-1.3.9-2.7.9-4.1-.1-3.8-4.8-6.6-8.2-4.9-.9-2.6-1.7-5.1-2.6-7.7 8.4-4.6 20.2-1.4 25.1 6.8 2.3-3.3 7.2-3.8 10.9-2.3s6.6 4.5 9.3 7.5c-3.6-7.3 1.6-17.5 9.7-18.9.4.9.7 1.8 1.1 2.7 2.3-.6 1.8-3.9.7-5.9s-2.2-5-.2-6.2c2.4 1.7 3.8 4.7 3.7 7.6 5.1 1.5 10.7 1.6 15.9.2 1.8-2.7-.5-7.1-3.8-7.1-.8 1.8-2.9 3.3-4.8 2.6-6-2.2 4.1-6.8 6-8 .8-5 1.5-10 2.3-15-.4-1.4 1.3-2.9 2.6-2.2-1-.9-1.9-1.7-2.9-2.6 1.5.2 3.1-.6 3.8-2 .7-6.3-.3-12.7-2.8-18.5-1.2-2.6-2.7-5.2-3.6-7.9 1.6-1 3.1-2 4.7-3 7.5-4.8 16-12.1 13.5-20.6 2.9-5.5 9.1-8.8 15.3-9.2 6.2-.4 12.3 1.8 17.6 5.1 4 6 13.7 7.1 18.9 2.1 1.1-2.2-1.3-4.6-3.6-5.7-2.3-1-5.1-2-5.7-4.5-.6-2.6.7-7.1-2-7 1.6-1.4 3.3-2.9 4.9-4.3-1.4-.4-2.6-1.5-3-2.9 2.1-.6 4-1.8 5.6-3.3 4 2.3 7.2 6.2 8.7 10.6 2.7-.8 5.2-2.1 7.3-3.9 2.9 1.4 3.2 6.2.5 8 3.1 1 5.7 3.5 6.8 6.6 1.6-1.3 2.4-3.6 2-5.6 2.1 1.4 5.4.7 6.7-1.5s.3-5.5-2-6.6c6.2-4 15.6-1.1 18.5 5.7.8 1.9 1.2 4 2.1 5.9 1.7 3.5 5.6 5.8 9.4 5.7.8 1.2.8 3 .1 4.3-3-.5-5.9-2.1-8-4.3-1.8.5-3.8 1.3-4.3 3-.4 1.4 1.3 2.8 2.4 2.5-3 2.6-6 5.3-9 8-1.6-2.4-3.3-4.9-4.9-7.3-1.7.8-3.5 1.6-5.2 2.4-.7-3.3-1-6.7-.7-10-3.2-.4-6.6 1.3-8.3 4.1.8 1.6 1.6 3.1 2.4 4.7-2.1 1.8-4.1 3.6-6.2 5.4 4.1 10.9 22.3 14.2 21.6 25.8-.2 3.3-2.2 6.4-2.5 9.7-.4 3.3 2.3 7.5 5.5 6.4-.5 4.2-.9 8.3-1.4 12.5-.1 1.5 1.5 3.4 2.3 3.2-1.4 2-3.5 3.5-5.9 4.1 4.3 1.6 8 4.4 10.6 8.1 1.2-2.7 3.9-4.6 6.8-5-2.4 2.3-1.5 6.9 1.5 8.2-1.1-2.6.4-6 3-7.1-1.9-3.3-1.4-7.6 1.1-10.4l4.5 2.4c1.3-2.2.9-4.8 1.3-7.3s2.3-5.2 4.7-4.7c3.5.7 2.7 5.9 1.1 9 5 1.7 9.9 3.4 14.9 5.1-5.2 3-4.1 10.7-2.3 16.5 1.5 4.7 3.7 10.2 8.6 11.1 2.1.4 4.2-.2 6.3.3 2.1.5 4 2.8 2.9 4.6 2.1-2.3 5.8.1 7.9 2.3 10.9 11.3 23 21.3 36.1 29.9 6.6-.2 13.1-1.6 19.2-4.2-1.1 3.3-.6 7.1 1.4 10 2.2-5.5.9-11.7.4-17.6-.5-6 .5-12.9 5.5-16-2.4.5-4.8.9-7.2 1.4.4 3.2-.2 6.6-1.8 9.4-.6-1.7-1.1-3.4-1.7-5.1l-4.5.9c2.7-5 2.3-11.7-1.2-16.2-1.5 3.6-4.1 6.7-7.4 8.7 1.2-1.4 1.6-3.6.8-5.3-1.4 2.8-5.3 2.9-8.3 2-9.1-2.8-16-11.8-16.4-21.3-.1-2.3.1-4.6-.9-6.6-.9-1.7-2.5-2.9-3.5-4.5-1-1.7-1-4.2.7-5-6.3-4.5-7.1-15-1.5-20.4 4.8 1 9.4-4.9 7.3-9.3 1.5 1.2 3.1 2.4 4.6 3.6-.7-3-.5-6.2.5-9.1 2.6 1.6 6.2 1.5 8.6-.4-1-1.4-1.9-2.7-2.9-4 3.1.8 6.3 1.1 9.5.9.2 1.7.2 3.5-.7 4.9-1 1.5-3.3 2-4.3.6 1.8 3.3 3.5 6.5 5.3 9.7 2.4-3.8 3.2-8.5 2.3-12.9 1 1.6 2.1 3.3 3.2 5 1.1-.9 2.3-1.7 3.4-2.6-7.3-15.4-16.1-29.8-26.3-43.3-1.6.1-2.9.2-3 .2s.2-1.4.6-3.3c-.8-1.1-1.7-2.1-2.5-3.1l-2.5-.5c-.5-.1-.9-.3-1.4-.4.2.2.4.5.8.9.5.6 1.6 2.5 1.2 2.6s-1.4 1.8.2 2.7c1.6 1 .9 4-.7 2.2-1.7-1.7-2.9-8.1-2.7-8.2.2 0 1.1-.3 1.1-.3 1.3-1.9 1-3-1.2-3.9-1.3-.6-3.6-1.1-2.3-3.6l.2.6c.1.2.5 1 .7 1 .1 0 .2-.2.4-.4-.5-.6-1.1-1.2-1.6-1.8v.6c.1.1.2.1.2.1s-.9.3-2 .8-.2 4.9-.9 4.7c-.7-.2-2.4-1.7-1.8-2.7s1.5-5.1.2-6.2l-1.5-.7-3.3-1.5c-.6-2.8.2-3.6 1.8-1.8l1.7 1.8c.4.3 1.1.5 1.7.7-1.8-1.9-3.6-3.8-5.5-5.7-.7-.7-1.5-1.4-2.2-2.1-.5.3-1 .7-1.5 1l-2-2.2-.6-.7c-1.2-.3-2.3-.4-2.4-.2-.1.1-.7-.3-1.2-1.1-.6-1-1.3-4.3-1.2-5.1-12.7-11.2-26.4-21-41-29.4.4.8.7 1.5.9 1.8.4.9-1 3.4-2.7 2.4s-5.7-3.8-5.6-3.9c.1-.1.5-.2 1-.1.4.1 1.4-.1 1-.6-.3-.4-.2-1.4.6-2.3-6.9-3.7-14-7.1-21.3-10.2C321.4 16.5 289.2 10 256 10s-65.4 6.5-95.8 19.3c-6.5 2.8-12.9 5.8-19.1 9.1 2.7-.2 5.4-.2 8.2-.2.2.7.4 1.3.6 2 2.1-.9 4.5 1.2 4.4 3.4s-1.9 4-3.9 4.9c-8.6 3.8-17.9 6.6-26.7 10.9 1-1.7 1.9-3.5 1.7-5.5-.1-1.9-1.7-3.9-3.7-3.7.2 6.1-2.4 12.3-6.9 16.4-4.6 4.1-11 6.1-17 5.2l1.8-2.1c-1.8-.3-3.1 1.9-2.6 3.6s2 2.9 3.4 3.9c-1.6 1.1-2.3 3.2-1.7 5 .4-1.4 2.5-1.1 3.6-.1 1.1.9 2.3 2.3 3.7 1.8.8-.3 1.2-1.1 1.6-1.8 1-2.1 1.7-4.3 2-6.6 1.5 1.8 4.6 2 6.4.4-2.9 6.3-4.3 13.1-4.2 20 4.3.3 7.4-4.2 8.6-8.4s1.7-8.9 4.9-11.9c5.8-5.5 16.8-1.5 22.4-7.3-1.3.1-2.8.1-4-.5s-2-2.2-1.3-3.4c.2-.4.7-.7 1.1-.9 3.1-1.3 6.3 2 7 5.2.7 2.9.5 5.9 1.4 8.7 3.5-1.8 6.6-6.4 10.1-9.1 2.7-2.1 11.9-5.2 13.3-7.7-.3.6.6 1.3 1.3 1.1s1.1-.9 1.5-1.5c2.2-2.8 6.3-3.3 9.6-2.1 5.4 1.9 9.6 6.1 15.1 8.2 5.7 2.1 11.7 3.4 17.2 6 6.8 3.2 6.9 5.9 10.3 11.6 1 1.7 2.6 2.9 3.7 4.5s1.4 4.1-.1 5.3c-1.3 1-3.5-.4-3.4-1.7.1-.2.2-.5.3-.7-.2.2-.3.5-.3.7-1.5 3.3-3.1 6.7-5.6 9.3-2.7 2.8-6.7 4.8-10.5 4 2.8 1.1.7 5.9 2.9 7.9.8.8 2 .9 2.8 1.7.9.9.9 2.5.8 3.8-.5 6-.9 12-1.4 18 1.2-1 2.4-1.9 3.6-2.9 1.7-.4 3.1 2 2.3 3.6s-2.8 2.2-4.6 2.2c-1.8-.1-3.5-.6-5.3-.6-5.7-.1-10.6 6.1-9.2 11.7-6 1.2-13.1 3.8-14 9.8-.8 5.1 3.2 8.5 6.3 11.8.6.7 5.2 5.4 5.7 5.6 1.3.4 6 .6 7.6.1l1.5-.2 1-.1c1.2.4 1.7 1.5 1.2 2.3l-.4.8c-.4.8-1.1 2.1-.9 2.3l.7.7c1.5.6 2.4 2.2 2 3.5s-2.5 4.6-3.7 4.2l-.4.4c-4.7 4.6-8.8 7.6-16.1 7.9-1.1 0-1 8.8-6.5 3.4-2.8-2.7-2-8.6.9-10.8-3.6.1-6.3 3-8.5 5.8s-4.3 6-7.7 7.1c-3.4 1.2-8-1.2-7.5-4.7l-7.5 2.1c1.5-2.5.6-6.2-2-7.6 2.2 3.3-1.1 7.8-4.9 9.1-3.8 1.3-8 .7-11.8 1.9-2.1.6-4.1 1.7-6.3 1.6-6.3-.5-9.8-11.3-15.8-9-1.4.5-2.4 1.6-3.4 2.6-4.5 4.4-10.7 6.8-17 6.7.9 3.5 3 6.7 6 8.7-4.3 3-6.6 8.6-5.5 13.7 1 5.1 5.3 9.4 10.4 10.4-3.9 1-7.8 2.1-11.7 3.2 5.9-.6 12.2 2.1 15.8 6.9l-18.9 2.4c0 6.4 7.1 10.4 13.5 11.5 1.4.2 3 .5 3.9 1.6 3.3 4.2 1.3 11.1 5.7 15.9.2-2.3 2.2-4.2 4.4-4.5-.5 4.3.2 8.8 2.1 12.7 2.8-2.5 7.9-1.4 9.4 2 .9-3 1.7-5.9 2.6-8.9 4 3.7 7.4 8.2 10 13-1.6.1-3.3-.2-4.8-.9 2.4 2.2 3.4 6.3 1.3 8.8-2.1 2.5-7.3 1.2-7.1-2.1-4.1 5.7-4.6 13.7-1.3 19.9-.8-4.4 2-9.2 6.3-10.5.2 5.5 2.6 11 6.6 14.8 1.4 1.3 3.1 2.6 3.7 4.5.3 1.1.3 2.3.7 3.3.6 1.4 2 2.3 3.2 3.2 5.5 4.2 9 11.1 9.1 18.1 6-1.6 9.1-8.8 8.3-15s-4.6-11.5-8.2-16.6c1.8-.8 3.5-1.7 5.2-2.6-.8-3.1-2.9-5.8-5.6-7.4 2.1-2.9 2.7-6.7 1.7-10 1.6-.2 3.2.6 4.1 1.9-1.4 1.3-1.5 3.6-.3 5 .1-2.1 2.7-3.1 4.7-2.5s3.3 2.4 4.5 4c7.2 9.8 14.8 21.3 12 33.1 5.8 2.4 23.5-.8 15.9 11.2-2.2-2.6-5.1-4.5-8.4-5.5-2.4-.7-5.4-.8-7.1 1.1-2.5 2.6-.5 7.3 2.7 8.9s7 1 10.6.4c-2.8 1.9-4 5.3-4.9 8.5-1.8 6.1-3.2 12.2-4.2 18.4-.7 4.1 5.6 5.4 5.6 4.8 0-.9.8-3.4 1.5-3.2.7.2 1.6 1.3 1.7 2.2.4 4 1.6 11.1.6 14.9-.5 1.8-2.4 3.3-4.1 2.6-.6-.3-1.1-.8-1.7-1-2.5-1-4.6 2.1-5.5 4.6-.3-2.6-4-3-6.6-2.6-5.2.7-10.3 1.5-15.5 2.2-1.1.2-2.2.3-3.1.9-1.2.7-1.9 2.1-3.2 2.7-1.9 1-4.3-.1-5.8-1.7s-2.5-3.6-4.1-5.1c1.1 3 2.3 6.1 3.4 9.2-5.8-4.2-10.7-9.7-15.8-14.8-.5-.5-2.4-3.8-4.1-6.1-1.7-2.3-5.5-8.8-5.7-8.7s-.7 1.2-.9 2.3c-.2 1.1 1 5 3.1 5.7 2 .7 6.1 7.2 7.9 8.8 1.8 1.7.2 8.1.7 8.6s1.7 1.7 1.6 1.8c-.1.1-1.2 0-2.3-.4s-4.6-2.3-5.5-2.9-3.2-1-2.8-.2 1.3 3 1.2 3.1-1.3.3-2.1-.1c-.8-.3-2.9-1-2.9-.6s-.5 1.7-1 1.6c-.5-.2-1.6.2-1.7.9-.2.8 1 3.5 2.9 4.1l1.8.6 1.6.5c2 .6 3.8 1 4 .9.1-.1 1.1-.3 1.4.2s1.6 1.7 1.8 1 1.5-2 2.7-1.6 4.3 2.4 3.1 3.1-1.7 4.5-2.8 5.2c-1.9 1.3-11.6 2.7-7.3-2.1-2-1.9-5.5-2-7.6-.2l2.7 1.8c-1.3.2-2.5.4-3.7.6 4.3 1.2 7.8 4.8 8.9 9.1-5.4-5.4-15.3-3.8-20.4-9.5-2.5-2.8-3.1-6.8-3.7-10.5 1.5 1.1 3.6-.1 4.6-1.7 1-1.5 1.4-3.4 2.5-4.9 1.9-2.6 6.1-3.2 8.7-1.1.3-2-2.5-2.7-4.5-2.6.3-1.3.5-2.8.5-4.2 0-2.5-.7-5.5-3-6.7-1.9-1.1-4.4-.6-6.3-1.7 2 3.8 4 7.5 6 11.3-1.4 1.6-3.5-2.4-5.6-1.8-.6.1-1 .7-1.6.8-2.1.5-2.3-3.7-4.5-4.2-1.2 1-1.8 2.9-1.3 4.4.2.7.6 1.4.6 2.1 0 2-4.4 5.4-5.1 7.9-.7 2.1-1.1 9.3.8 11-6.3-5.4-13-10.3-20.2-14.5-.3 2.3-3.6 3.1-5.6 1.8-2-1.2-2.9-3.5-4-5.6-5.1-9.7-15.6-16.7-17.5-27.5-.6-3.6-.1-7.4 1.3-10.7.9-2.2 2.5-4.3 4.8-5.1 2.4-.8 5 .1 7.5-.1s5.2-2.6 4.1-4.8c-1-1.8-3.4-1.8-5.4-2.3-2-.4-3.8-3.1-2.1-4.2 1.1 1.3 3.4.5 4.1-1.1.6-1.6.1-3.4-.4-5l-2.7-8.7c-1-3.2-2.4-6.3-5.9-7 .4 1.7 1.4 4 1.4 6 0 1.8-.7 7-1.5 7.1-.8 0-2.3 1.2-1.9 2.5.4 1.2 1.4 4.4 1.6 4.4.1 0 .6-.6.7-1.3.1-.7.3-2.6.4-2.6s.5.4.7.8c.2.5 1 1.9 1.2 1.5s.9.5.9 1.1c0 .5-1.7 2.4-3.9 4.2l.7 3.6.2 1.1c0 1.3-.2 2.3-.4 2.3s-.8-.6-.8-1.4-.8-3.5-1.7-2.8c-1 .7-4.7 1.7-5.9.6-1.2-1.2-5.6-3.3-6.2-1.5-.6 1.8-4 5.6-6.3 4.9l.8-2.9v-.1c.8-2.8-7.2-.6-9.6-4.3-1.7-2.5-2-5.6-2.6-8.6s-1.6-6.1-4.1-7.9c.1 1.2-.1 2.3-.3 3.5.8 2.2 1.7 4.4 2.6 6.5C41.7 381 59.4 407.4 82 430c1 1 2.1 2 3.1 3.1.8-.1 1.5-.2 1-.4-.9-.2-2.5-1.5-2.5-2.5-.1-1-.1-3.6 0-3.7s1 .3 1.7 1.2l.1.9c.3 2.3 1.7 2.4 3.4 2h.2c.2.2 1.4 1.2 2.5 2.3 1.1 1.1 5.5.7 5.7.8.2.1.9 1.9 1.3 3.6.4 1.9 4.1 5.7 3.5 6s-3.4.8-4.4.2c-1-.6-4.9-3.9-6.3-5.2-.4-.4-1.1-.8-2-1.3 20.9 19.3 44.7 34.6 70.9 45.7 30.4 12.8 62.6 19.3 95.8 19.3s65.4-6.5 95.8-19.3c29.3-12.4 55.6-30.1 78.2-52.7s40.3-48.9 52.7-78.2zm-381.4-41.5c.2 2.3-1.6 4.2-2.8 6.2-.8 1.4-1.3 2.9-1.5 4.5-.1 1.7 0 3.4.5 4.8.9-1.1 2.8-.6 3.8.5.9 1.2 1.4 2.7 2.3 3.8 5.1 6.2 7.6-10.2 8.2-12.6.1-.5.2-1 .1-1.4-.4-1-2.2-1.7-1.6-2.7.9-.1 1.7-.2 2.5-.3-.1-1.2.8-2.4 2-2.6-1.3-1.5-3.9-1.2-5.4.1-1.5 1.3-2.2 3.2-2.9 5.1-.7-1-1.9-1.6-3.1-1.8-.4 0-.9-.1-1.2-.4-.2-.3-.2-.7-.2-1.1.1-1.8.1-3.5.2-5.3-.7 0-1.2.7-1.2 1.3 0 .7.2 1.3.3 1.9zm16.5 60.6c-2.6-1.4-5.6-2.2-8.6-2 .4.8.7 1.7.5 2.6-.2.8-.9 1.6-1.8 1.6-1.3-.1-2-1.7-3.3-1.8-.7-.1-1.4.4-2 .7-1.7.9-3.8.9-5.6.1 1 2.1 2 4.3 3 6.4-.5-.2-1.1-.2-1.6.1 1.6 1.8 2.7 4 3.1 6.4 1.1.9 2.8 1 3.9.1s1.5-2.5.9-3.8c.8 1.1 2.2 2.4 3.4 1.6.6-.5.8-1.4.8-2.2.1-1.8.1-3.7 0-5.5 1.7-1.1 4.3-.5 5.3 1.2 1.1 1.7.6 4.1 1.9 5.7 1.8 2.3 5.9.7 7-2 1.1-2.6.4-5.7-.1-8.6-.3-1.3 0-3.2 1.3-3.3.1.9 1.5.8 2.1.2.6-.6 1.1-1.6 2-1.7.4-.1.9.1 1.3-.1.6-.3.7-1 .8-1.6.4-3.7.8-7.3.1-10.9-.1-.7-.3-1.4-.2-2.1.1-.6.4-1.2.4-1.8.3-4.8-9.5.8-11.9.3-.5-.1-1-.3-1.5-.1-1.1.5-.9 2.1-.5 3.2s.9 2.5 0 3.3c-.4.3-.9.4-1.4.3-.8-.2-1.6-.8-2.1-1.2 1.2 2.3 1.8 4.9 1.7 7.5-.1 1-.2 2.2.4 3 .5.6 1.3.9 1.8 1.4 1.8 1.7.4 4.7-1.1 6.7-.3-1.2-.3-2.5 0-3.7zM230.3 91.3c-.1.2-.2.5-.3.7.1-.2.2-.4.3-.7zm51 123.1c.6-1.3 1.6-2.8 2.8-3.3l1-.4c1.7.7 2.5.2 1.7-1.1s-4.8-1.7-5.5-1.3c-.7.5-3.2 1.3-4.9 1.3l-1.2-.4c-1.2-.4-2.3-1.2-3.4-2l-.5-.3c-.1-.3-3.5 3.3-4.6 4.7-1.2 1.4.3 4 3.3 5.7s11.6 6.2 12.5 5.9c.9-.2 2.7-2.6.7-4.1l-1.3-1.5c-.6-.8-.9-2.3-.6-3.2z" fill="#fff"/></svg>