<svg version="1.1" xmlns="http://www.w3.org/2000/svg" x="0" y="0" viewBox="0 0 512 512" xml:space="preserve"><style type="text/css">.st1{fill:#fff}</style><path class="st1" d="M256 0C114.6 0 0 114.6 0 256s114.6 256 256 256 256-114.6 256-256S397.4 0 256 0z" opacity=".1"/><path class="st1" d="M256 0C114.6 0 0 114.6 0 256s114.6 256 256 256 256-114.6 256-256S397.4 0 256 0zm154.1 384.7l-25.5 25.5c-12.5 12.5-32.8 12.5-45.3 0L256 326.7l-83.4 83.4c-12.5 12.5-32.8 12.5-45.3 0l-25.5-25.5c-12.5-12.5-12.5-32.8 0-45.3l83.4-83.4-83.4-83.4c-12.5-12.5-12.5-32.8 0-45.3l25.5-25.5c12.5-12.5 32.8-12.5 45.3 0l83.4 83.4 83.4-83.4c12.5-12.5 32.8-12.5 45.3 0l25.5 25.5c12.5 12.5 12.5 32.8 0 45.3L326.7 256l83.4 83.4c12.5 12.5 12.5 32.8 0 45.3z"/></svg>