<svg version="1.1" xmlns="http://www.w3.org/2000/svg" x="0" y="0" viewBox="0 0 512 512" style="enable-background:new 0 0 512 512" xml:space="preserve"><path d="m421.3 22.8 67.9 67.9-154.1 154.1-11.3 11.3 11.3 11.3 154.2 154.2-67.9 67.9-154.2-154.2-11.3-11.3-11.3 11.3L90.4 489.5l-67.9-67.9 154.2-154.2 11.3-11.3-11.3-11.3L22.5 90.7l67.9-67.9L244.6 177l11.3 11.3 11.3-11.3L421.3 22.8m0-22.7L255.9 165.6 90.4.1-.1 90.7l165.5 165.5L-.1 421.6l90.5 90.5 165.5-165.5 165.5 165.5 90.5-90.5-165.5-165.5L511.9 90.7 421.3.1z" style="fill:#fff"/></svg>