<svg xmlns="http://www.w3.org/2000/svg" viewBox="0 0 512 512" xml:space="preserve"><path d="M256 16c32.4 0 63.8 6.3 93.4 18.9C378 47 403.6 64.3 425.7 86.3c22 22 39.4 47.7 51.4 76.3 12.5 29.6 18.9 61 18.9 93.4s-6.3 63.8-18.9 93.4c-12.1 28.6-29.4 54.2-51.4 76.3-22 22-47.7 39.4-76.3 51.4-29.6 12.5-61 18.9-93.4 18.9s-63.8-6.3-93.4-18.9c-28.6-12.1-54.2-29.4-76.3-51.4-22-22-39.4-47.7-51.4-76.3C22.3 319.8 16 288.4 16 256s6.3-63.8 18.9-93.4C47 134 64.3 108.4 86.3 86.3c22-22 47.7-39.4 76.3-51.4C192.2 22.3 223.6 16 256 16m0-16C114.6 0 0 114.6 0 256s114.6 256 256 256 256-114.6 256-256S397.4 0 256 0zm168 222c8.8 0 16 7.2 16 16v36c0 8.8-7.2 16-16 16H88c-8.8 0-16-7.2-16-16v-36c0-8.8 7.2-16 16-16h336m0-16H88c-17.7 0-32 14.3-32 32v36c0 17.7 14.3 32 32 32h336c17.7 0 32-14.3 32-32v-36c0-17.7-14.3-32-32-32z" fill="#fff"/></svg>