<svg xmlns="http://www.w3.org/2000/svg" viewBox="0 0 512 512" xml:space="preserve"><path d="M256 32c42.7 0 82.9 16.6 113.1 46.9C399.4 109.1 416 149.3 416 192c0 76.7-44.1 152.5-70.4 190.8-17.8 26-38.3 50.7-57.8 69.8-15.5 15.1-26.3 22.8-31.9 26-5.6-3.2-16.4-10.9-31.9-26-19.5-19-40-43.8-57.8-69.8C140.1 344.5 96 268.7 96 192c0-42.7 16.6-82.9 46.9-113.1C173.1 48.6 213.3 32 256 32m0 288c70.6 0 128-57.4 128-128S326.6 64 256 64s-128 57.4-128 128 57.4 128 128 128m0-320C150 0 64 86 64 192c0 154 155 320 192 320s192-166 192-320C448 86 362 0 256 0zm0 288c-53 0-96-43-96-96s43-96 96-96 96 43 96 96-43 96-96 96z" fill="#fff"/></svg>