<svg xmlns="http://www.w3.org/2000/svg" viewBox="0 0 512 512" style="enable-background:new 0 0 512 512" xml:space="preserve"><path d="M256 0C114.6 0 0 114.6 0 256s114.6 256 256 256 256-114.6 256-256S397.4 0 256 0zm175.4 431.4c-22.8 22.8-49.3 40.7-78.8 53.2C322 497.4 289.5 504 256 504s-66-6.6-96.5-19.5c-29.5-12.5-56.1-30.4-78.8-53.2C57.9 408.5 40 382 27.5 352.5 14.6 322 8 289.5 8 256s6.6-66 19.5-96.5C40 130 57.9 103.4 80.7 80.7 103.5 57.9 130 40 159.5 27.5 190 14.6 222.5 8 256 8s66 6.6 96.5 19.5C382 40 408.6 57.9 431.3 80.7c22.8 22.8 40.7 49.3 53.2 78.8 12.9 30.6 19.5 63 19.5 96.5s-6.6 66-19.5 96.5c-12.5 29.6-30.4 56.1-53.1 78.9zM424 206H88c-17.7 0-32 14.3-32 32v36c0 17.7 14.3 32 32 32h336c17.7 0 32-14.3 32-32v-36c0-17.7-14.3-32-32-32zm24 68c0 13.2-10.8 24-24 24H88c-13.2 0-24-10.8-24-24v-36c0-13.2 10.8-24 24-24h336c13.2 0 24 10.8 24 24v36z" style="fill:#fff"/></svg>