<svg version="1.1" xmlns="http://www.w3.org/2000/svg" x="0" y="0" viewBox="0 0 512 512" xml:space="preserve"><path d="M256 16c47 0 91.2 18.3 124.4 51.6C413.7 100.8 432 145 432 192c0 83.9-48.6 165.2-77.6 206.2-19.3 27.3-41.1 52.7-61.5 71.6-21.7 20.1-33.8 25.6-37 26.1-3.2-.5-15.3-6-37-26.1-20.4-18.9-42.2-44.3-61.5-71.6C128.6 357.2 80 275.9 80 192c0-47 18.3-91.2 51.6-124.4C164.8 34.3 209 16 256 16m0 288c61.8 0 112-50.2 112-112S317.8 80 256 80s-112 50.2-112 112 50.2 112 112 112m0-304C150 0 64 86 64 192c0 154 155 320 192 320s192-166 192-320C448 86 362 0 256 0zm0 288c-53 0-96-43-96-96s43-96 96-96 96 43 96 96-43 96-96 96z" fill="#fff"/></svg>