<svg version="1.1" xmlns="http://www.w3.org/2000/svg" x="0" y="0" viewBox="0 0 512 512" xml:space="preserve"><path d="M462 206c-22 0-40.7 14.2-47.4 34H312.9c-7.8-56.4-56.4-100-114.9-100H97.4C90.7 120.2 72 106 50 106c-27.6 0-50 22.4-50 50s22.4 50 50 50c22 0 40.7-14.2 47.4-34H198c46.3 0 84 37.7 84 84s-37.7 84-84 84H97.4C90.7 320.2 72 306 50 306c-27.6 0-50 22.4-50 50s22.4 50 50 50c22 0 40.7-14.2 47.4-34H198c58.5 0 107.1-43.6 114.9-100h101.7c6.7 19.8 25.4 34 47.4 34 27.6 0 50-22.4 50-50s-22.4-50-50-50zM50 174c-9.9 0-18-8.1-18-18s8.1-18 18-18 18 8.1 18 18-8.1 18-18 18zm0 200c-9.9 0-18-8.1-18-18s8.1-18 18-18 18 8.1 18 18-8.1 18-18 18zm412-100c-9.9 0-18-8.1-18-18s8.1-18 18-18 18 8.1 18 18-8.1 18-18 18z" fill="#fff"/></svg>