<svg xmlns="http://www.w3.org/2000/svg" viewBox="0 0 512 512" style="enable-background:new 0 0 512 512" xml:space="preserve"><path d="M167.2 343c0 11.4-9.2 20.6-20.6 20.6-11.4 0-20.6-9.2-20.6-20.6 0-11.4 9.2-20.6 20.6-20.6 11.3 0 20.5 9.2 20.6 20.6zm315.2-22c0 23.5-19 42.5-42.5 42.5s-42.5-19-42.5-42.5 19-42.5 42.5-42.5 42.5 19 42.5 42.5zm-69.2-17.4 19.4 11.2c.4-.4.7-.8 1.2-1.2l-11.2-19.4c-3.8 2.5-7 5.7-9.4 9.4zm-5.2 15.7h22.4c.1-.6.2-1.1.4-1.6l-19.4-11.2c-1.9 3.9-3.1 8.2-3.4 12.8zm3.5 16.2 19.4-11.2c-.2-.5-.4-1.1-.5-1.7H408c.3 4.6 1.5 9 3.5 12.9zm11.1 12.3 11.2-19.4c-.4-.3-.8-.7-1.2-1.2l-19.4 11.2c2.4 3.7 5.6 6.9 9.4 9.4zm15.7-17.3c-.6-.1-1.1-.2-1.6-.4l-11.2 19.4c3.9 2 8.2 3.2 12.8 3.4v-22.4zm0-41.4c-4.6.2-8.9 1.4-12.8 3.4l11.2 19.4c.5-.2 1.1-.3 1.6-.4v-22.4zm19 5.2-11.2 19.4 1.2 1.2 19.4-11.2c-2.4-3.7-5.6-7-9.4-9.4zm-15.7 17.3c.6.1 1.1.2 1.6.4l11.2-19.4c-3.9-2-8.2-3.2-12.8-3.4v22.4zm12.8 37.8L443.2 330c-.5.2-1.1.3-1.6.4v22.4c4.6-.2 8.9-1.4 12.8-3.4zm12.3-11.1-19.4-11.2-1.2 1.2 11.2 19.4c3.8-2.4 7-5.7 9.4-9.4zm5.1-15.7h-22.4c-.1.5-.2 1.1-.4 1.6l19.4 11.2c1.9-3.9 3.1-8.2 3.4-12.8zm0-3.3c-.2-4.5-1.4-8.8-3.4-12.7L449 317.8c.2.5.3 1 .4 1.5h22.4zm-444.4 3.1c-11.4 0-20.6 9.2-20.6 20.6 0 11.4 9.2 20.6 20.6 20.6 11.4 0 20.6-9.3 20.6-20.6 0-11.4-9.2-20.6-20.6-20.6zm313-1.4c0 23.5-19 42.5-42.5 42.5s-42.5-19-42.5-42.5 19-42.5 42.5-42.5 42.5 19 42.5 42.5zm-69.2-17.4 19.4 11.2c.4-.4.7-.8 1.2-1.2l-11.2-19.4c-3.8 2.5-7 5.7-9.4 9.4zm-5.2 15.7h22.4c.1-.6.2-1.1.4-1.6l-19.4-11.2c-1.9 3.9-3.1 8.2-3.4 12.8zm3.5 16.2 19.4-11.2c-.2-.5-.4-1.1-.5-1.7H266c.3 4.6 1.5 9 3.5 12.9zm11.1 12.3 11.2-19.4c-.4-.3-.8-.7-1.2-1.2l-19.4 11.2c2.4 3.7 5.6 6.9 9.4 9.4zm15.7-17.3c-.6-.1-1.1-.2-1.6-.4l-11.2 19.4c3.9 2 8.2 3.2 12.8 3.4v-22.4zm0-41.4c-4.6.2-8.9 1.4-12.8 3.4l11.2 19.4c.5-.2 1.1-.3 1.6-.4v-22.4zm19 5.2-11.2 19.4 1.2 1.2 19.4-11.2c-2.4-3.7-5.6-7-9.4-9.4zm-15.7 17.3c.6.1 1.1.2 1.6.4l11.2-19.4c-3.9-2-8.2-3.2-12.8-3.4v22.4zm12.8 37.8L301.2 330c-.5.2-1.1.3-1.6.4v22.4c4.6-.2 8.9-1.4 12.8-3.4zm12.3-11.1-19.4-11.2-1.2 1.2 11.2 19.4c3.8-2.4 7-5.7 9.4-9.4zm5.1-15.7h-22.4c-.1.5-.2 1.1-.4 1.6l19.4 11.2c1.9-3.9 3.1-8.2 3.4-12.8zm0-3.3c-.2-4.5-1.4-8.8-3.4-12.7L307 317.8c.2.5.3 1 .4 1.5h22.4zM512 171v9h-7v151h-17.6c.7-3.2 1-6.6 1-10 0-26.7-21.8-48.5-48.5-48.5s-48.5 21.8-48.5 48.5c0 3.4.4 6.8 1 10h-47.1c.7-3.2 1-6.6 1-10 0-26.7-21.8-48.5-48.5-48.5-15.9 0-30.1 7.7-38.9 19.6h-16V310h7.7c-.8 3.5-1.3 7.2-1.3 11 0 3.4.4 6.8 1 10h-63.7c-1.3 6.7-6.7 11.9-13.5 12.8v-.8c-.1-14.6-12.1-26.5-26.6-26.5-14.7 0-26.6 11.9-26.6 26.6v1H54v-1c0-14.7-11.9-26.6-26.6-26.6-12.1 0-22.3 8.1-25.5 19.1C.7 333.3 0 330.7 0 328v-14c0-8.8 7.2-16 16-16h37v-5.9h-3v-.1c-11 0-20-16.1-20-36s9-36 20-36c.5 0 .9 0 1.4.1H53V184c0-2.2 1.8-4 4-4h23c2.2 0 4 1.8 4 4v36.1h10v-10.5c0-1 .4-2 1.2-2.8L98 204v-78.9c0-1-.4-2-1.2-2.8l-.2-.2c-.8-.7-1.2-1.7-1.2-2.8v-2.7c0-1 .4-2 1.2-2.8l.2-.2c.8-.7 1.2-1.7 1.2-2.8V109c0-2.2 1.8-4 4-4h15c2.2 0 4 1.8 4 4v1.9c0 1 .4 2 1.2 2.8l.2.2c.8.7 1.2 1.7 1.2 2.8v2.7c0 1-.4 2-1.2 2.8l-.2.2c-.8.7-1.2 1.7-1.2 2.8V204l2.8 2.8c.8.8 1.2 1.8 1.2 2.9v10.4h32.6c-1.5-1.1-2.6-2.7-2.6-5.1 0-3.8 3.6-6.4 6.7-8.7 2.1-1.5 4.3-3.1 4.3-4.3 0-1.7-.4-2.2-.8-2.9-.5-.8-1.2-1.8-1.2-4.1 0-3.6 4.5-4.6 7.1-4.9l.1-.4c0-.4.4-.7.8-.7h2.1c.4 0 .7.3.8.7l.5 4.2 1.9.6c.6.2 1 .6 1.1 1.2l1.2 5.8c.5 2.2 1.5 4.3 3 6l2 2.3.5.6c.3.3.4.7.3 1.1v2.8c0 .4-.4.8-.8.8h-9.2c-.2 1.1-1.2 1.9-2.3 1.9-1.2 0-2.1-.8-2.3-1.9h-9.4c-.4 0-.8-.4-.8-.8v-2.8c0-.4.1-.8.4-1.1l2.4-2.7c-.2.1-.3.2-.5.3-2.8 2-5.9 4.2-5.9 7 0 4.9 6.7 5 7 5 .2 0 .3 0 .5.1H241v-.7c0-2.2.8-4.2 2.3-5.7l.8-.8c1.5-1.5 2.3-3.6 2.3-5.7v-11.3c0-1.3-.2-2.5-.8-3.6l-1.9-3.9c-.3-.6.2-1.4.9-1.4h1.9c.3-6.4 5.9-11.5 13-12v-2.3c-.6-.3-1-1-1-1.7v-3c0-1.1.9-2 2-2s2 .9 2 2v3c0 .7-.4 1.4-1 1.7v2.3c7.1.4 12.7 5.6 13 12h1.9c.7 0 1.2.7.9 1.4l-1.9 3.9c-.5 1.1-.8 2.4-.8 3.6v11.3c0 2.2.8 4.2 2.3 5.7l.8.8c1.5 1.5 2.3 3.5 2.3 5.7v.7h12.6c6.3 0 12.4-1.2 18.2-3.6l4.5-1.9c5.7-2.4 11.9-3.6 18.1-3.4h5.5v-.5c0-2.6 1.1-5.1 2.9-6.9l1-1c1.9-1.8 2.9-4.3 2.9-6.9v-13.8c0-1.5-.3-3-1-4.4l-2.4-4.7c-.4-.8.2-1.8 1.1-1.8h2.3c.3-7.8 7.2-14.1 15.9-14.6v-2.3c-2.2-.5-3.8-2.5-3.8-4.8v-2h3.8V145H358v-15c0-1.1.9-2 2-2h6c1.1 0 2 .9 2 2v15h-4v2.5h3.8v2c0 2.3-1.6 4.3-3.8 4.8v2.3c8.7.5 15.5 6.8 15.9 14.6h2.3c.9 0 1.5 1 1.1 1.8l-2.4 4.7c-.6 1.4-1 2.9-1 4.4v13.8c0 2.6 1.1 5.1 2.9 6.9l1 1c1.8 1.8 2.9 4.3 2.8 6.9v.5h7.4V180h-7v-9h125zm-339.7 21c.2.3.5.5.8.5.6 0 1-.5 1-1 0-.1 0-.3-.1-.4 0 .5-.4.9-1 .9h-.7zm-6.3 3c0 1.7.4 2.2.8 2.9.1.2.2.3.3.5l.6-2.7c.1-.5.5-1 1.1-1.2l1.9-.6.2-1.7c-2.2.3-4.9 1.1-4.9 2.8zm-83 97.1H63v5.9h20v-5.9zm30 0H93v5.9h20v-5.9zm30 0h-20v5.9h20v-5.9zm30 0h-20v5.9h18c.7 0 1.3.1 2 .1v-6zm30 0h-20v11.4c1.6 1.9 2.8 4.1 3.5 6.5H203v-17.9zm30 0h-20V310h20v-17.9zM440.5 198c0-5-8.1-9-18-9s-18 4-18 9v47h36v-47zm54 0c0-5-8.1-9-18-9s-18 4-18 9v47h36v-47z" style="fill:#fff"/></svg>