<svg xmlns="http://www.w3.org/2000/svg" viewBox="0 0 512 512" xml:space="preserve"><path d="M512 256c0-2.4-11.7-6.2-28.5-10.4l19.3-72.8c.3-1.2-.5-2.4-1.8-2.5l-3.4-.2c-5.7-.4-11.1 2.3-14.3 6.9-10.5 15.4-33.9 49.8-40.9 59.7-29.7-5.7-60.3-10.3-72.5-10.3H264.5l-.7-44.4c5.6-.8 12.3-1.9 12.3-3.1 0-1.2-6.7-2.3-12.4-3.1l-.1-3.3c-.1-3.4.4-6.7 1.4-10l5.2-16.8c4.3-.5 18.8-2.2 18.8-3.9 0-1.5-10.8-2.9-16.5-3.6l13-42.1c5.8-.8 13.5-2 13.5-3.2 0-1.1-6.1-2.2-11.6-3l20.4-66c.7-2.3-1.5-4.5-3.8-3.7-11.3-.5-21.8 5.7-26.9 15.7l-55 107.8c-4.4 8.7-9.1 17.3-14.1 25.7-14-3.7-28.1-7-34.6-7-6.2 0-11 .9-14.5 2-.5.2-1.1.3-1.5.5h-.1c-.9.3-1.7.7-2.5 1-.1 0-.1.1-.2.1-.3.2-.6.3-.9.4-1.4.7-2.3 2.3-2.3 4v19.2c0 1.7.9 3.3 2.3 4 .3.1.6.3.9.4.1 0 .1.1.2.1.7.3 1.5.7 2.5 1h.1c.5.2 1 .3 1.5.5 3.5 1.1 8.3 2 14.5 2 3.9 0 10.7-1.2 18.6-3l-19 29-1.7 2.5H89c-49 .4-89 13.6-89 29.9 0 16.3 40 29.5 89.3 29.5h82.3l1.7 2.5 19 29c-7.9-1.8-14.7-3-18.6-3-6.2 0-11 .9-14.5 2-.5.2-1.1.3-1.5.5h-.1c-.9.3-1.8.7-2.5 1-.1 0-.1.1-.2.1-.3.2-.6.3-.9.4-1.4.7-2.3 2.3-2.3 4v19.2c0 1.7.9 3.3 2.3 4 .3.1.6.3.9.4.1 0 .1.1.2.1.7.3 1.5.7 2.5 1h.1c.5.2 1 .3 1.5.5 3.5 1.1 8.3 2 14.5 2 6.4 0 20.5-3.2 34.6-7 4.9 8.4 9.6 17 14.1 25.7l55 107.8c5.1 10.1 15.7 16.2 26.9 15.7 2.3.7 4.5-1.4 3.8-3.7l-20.4-66c5.5-.8 11.6-1.9 11.6-3 0-1.2-7.7-2.5-13.5-3.2l-13-42.1c5.7-.7 16.5-2.1 16.5-3.6 0-1.7-14.5-3.4-18.8-3.9l-5.2-16.8c-1-3.2-1.5-6.6-1.4-10l.1-3.3c5.6-.8 12.4-1.9 12.4-3.1 0-1.2-6.6-2.3-12.3-3.1l.7-44.4H370c12.2 0 42.8-4.6 72.5-10.3 6.9 10 30.4 44.3 40.9 59.7 3.2 4.7 8.6 7.3 14.3 6.9l3.4-.2c1.3-.1 2.1-1.3 1.8-2.5L483.6 266c16.7-3.8 28.4-7.6 28.4-10z" fill="#fff"/></svg>