<svg xmlns="http://www.w3.org/2000/svg" viewBox="0 0 512 512" xml:space="preserve"><path d="M102.3 261.2c-21.5 0-39 17.5-39 39s17.5 39 39 39 39-17.5 39-39c0-21.6-17.4-39-39-39zm340 0c-21.5 0-39 17.5-39 39s17.5 39 39 39 39-17.5 39-39c0-21.6-17.4-39-39-39zm65.2 20.6 2 .2-.4 4.8-3.8 8-19.1 4c-.7-23.7-20.1-42.7-44-42.7-24.3 0-44 19.7-44 44 0 3.2.4 6.3 1 9.4H154.7l-9.2-.5c.6-2.9.9-5.8.9-8.9 0-24.3-19.7-44-44-44s-44 19.7-44 44c0 1.4.1 2.8.2 4.2l-4.2-.2-46-15.7L7.2 278l11.5.8.3-2.3 29.7 2.3 2.3.2 1.3-1.9 21.8-32.2 57.8.9 25.4 37.6 2.8 15.2.6 3.2 3.2.1 218 5 3.6.1.4-3.6 1.9-16.1 25.3-41.3 56.5 1.9 18.9 30.2 1 1.6 1.9.2 16.1 1.9zm4.5-37-.8 6.6c-1.7-.4-4.4-1.2-7.1-2h-.1c-.4-.1-.8-.2-1.3-.4-.4-.1-.9-.2-1.3-.4l-.9-.3c-.3-.1-.5-.1-.8-.2-.2 0-.3-.1-.5-.1-.1 0-.3-.1-.4-.1-.5-.1-.9-.3-1.3-.4-.1 0-.2-.1-.3-.1l-.9-.3c-.1 0-.2-.1-.4-.1s-.3-.1-.4-.1c-.1 0-.3-.1-.3-.1h-.1l1.2-7.3 15.7 5.3zm-18.1 5.9-3.4-1 .6-3.5 1.2-7.3.1-.6L298 172.8l-158 20-140 22 10 57 39 3 23-34 62 1 27 40 3 16 218 5 2-17 27-44 61 2 20 32 16 2 2.7-22.4-.5-.1c-4.6-1.2-15.9-4.5-16.3-4.6z" opacity=".15" fill="#fff"/><path d="M102.3 261.2c-21.5 0-39 17.5-39 39s17.5 39 39 39 39-17.5 39-39c0-21.6-17.4-39-39-39zm14.5 19.6 6.5 3.1 1.9 8.1-15.4 2.7 7-13.9zm-35.4 3.1 6.4-3.1 7.1 13.9-15.4-2.6 1.9-8.2zm-5.2 22.7 1.5-6.5 15.4 2.6L81.3 313l-5.1-6.4zm22 18.1h-7.5l-4.2-5.3 11.7-10.2v15.5zm4.1-33.6-7.1-13.8 7.2-3.5 7.1 3.4-7.2 13.9zm11.6 33.6h-7.5v-15.6l11.8 10.2-4.3 5.4zm9.4-11.7-11.8-10.2 15.4-2.7 1.5 6.5-5.1 6.4zm319-51.8c-21.5 0-39 17.5-39 39s17.5 39 39 39 39-17.5 39-39c0-21.6-17.4-39-39-39zm14.5 19.6 6.5 3.1 1.9 8.1-15.4 2.7 7-13.9zm-35.4 3.1 6.4-3.1 7.1 13.9-15.4-2.6 1.9-8.2zm-5.2 22.7 1.5-6.5 15.4 2.6-11.8 10.3-5.1-6.4zm22 18.1h-7.5l-4.2-5.3 11.7-10.2v15.5zm4.1-33.6-7.1-13.8 7.2-3.5 7.1 3.4-7.2 13.9zm11.6 33.6h-7.5v-15.6l11.8 10.2-4.3 5.4zm9.4-11.7-11.8-10.2 15.4-2.7 1.5 6.5-5.1 6.4zm44.2-31.2 2 .2-.4 4.8-3.8 8-19.1 4c-.7-23.7-20.1-42.7-44-42.7-24.3 0-44 19.7-44 44 0 3.2.4 6.3 1 9.4H154.7l-9.2-.5c.6-2.9.9-5.8.9-8.9 0-24.3-19.7-44-44-44s-44 19.7-44 44c0 1.4.1 2.8.2 4.2l-4.2-.2-46-15.7L7.2 278l11.5.8.3-2.3 29.7 2.3 2.3.2 1.3-1.9 21.8-32.2 57.8.9 25.4 37.6 2.8 15.2.6 3.2 3.2.1 218 5 3.6.1.4-3.6 1.9-16.1 25.3-41.3 56.5 1.9 18.9 30.2 1 1.6 1.9.2 16.1 1.9zm4.5-37-.8 6.6c-1.7-.4-4.4-1.2-7.1-2h-.1c-.4-.1-.8-.2-1.3-.4-.4-.1-.9-.2-1.3-.4l-.9-.3c-.3-.1-.5-.1-.8-.2-.2 0-.3-.1-.5-.1-.1 0-.3-.1-.4-.1-.5-.1-.9-.3-1.3-.4-.1 0-.2-.1-.3-.1l-.9-.3c-.1 0-.2-.1-.4-.1s-.3-.1-.4-.1c-.1 0-.3-.1-.3-.1h-.1l1.2-7.3 15.7 5.3zm-18.1 5.9-3.4-1 .6-3.5 1.2-7.3.1-.6L298 172.8l-158 20-140 22 10 57 39 3 23-34 62 1 27 40 3 16 218 5 2-17 27-44 61 2 20 32 16 2 2.7-22.4-.5-.1c-4.6-1.2-15.9-4.5-16.3-4.6zm-309-38.5 2.3-19.3 110.3-14 147.1 49.5-259.7-16.2z" fill="#fff"/></svg>