<?xml version="1.0" encoding="utf-8"?>
<!-- Generator: Adobe Illustrator 22.1.0, SVG Export Plug-In . SVG Version: 6.00 Build 0)  -->
<svg version="1.1" id="icon" xmlns="http://www.w3.org/2000/svg" xmlns:xlink="http://www.w3.org/1999/xlink" x="0px" y="0px"
	 viewBox="0 0 512 512" style="enable-background:new 0 0 512 512;" xml:space="preserve">
<style type="text/css">
	.st0{fill:#FFFFFF;}
</style>
<path class="st0" d="M167.2,343c0,11.4-9.2,20.6-20.6,20.6c-11.4,0-20.6-9.2-20.6-20.6c0-11.4,9.2-20.6,20.6-20.6
	C157.9,322.4,167.1,331.6,167.2,343z M482.4,321c0,23.5-19,42.5-42.5,42.5s-42.5-19-42.5-42.5s19-42.5,42.5-42.5
	S482.4,297.5,482.4,321z M413.2,303.6l19.4,11.2c0.4-0.4,0.7-0.8,1.2-1.2l-11.2-19.4C418.8,296.7,415.6,299.9,413.2,303.6z
	 M408,319.3h22.4c0.1-0.6,0.2-1.1,0.4-1.6l-19.4-11.2C409.5,310.4,408.3,314.7,408,319.3z M411.5,335.5l19.4-11.2
	c-0.2-0.5-0.4-1.1-0.5-1.7H408C408.3,327.2,409.5,331.6,411.5,335.5z M422.6,347.8l11.2-19.4c-0.4-0.3-0.8-0.7-1.2-1.2l-19.4,11.2
	C415.6,342.1,418.8,345.3,422.6,347.8z M438.3,330.5c-0.6-0.1-1.1-0.2-1.6-0.4l-11.2,19.4c3.9,2,8.2,3.2,12.8,3.4V330.5z
	 M438.3,289.1c-4.6,0.2-8.9,1.4-12.8,3.4l11.2,19.4c0.5-0.2,1.1-0.3,1.6-0.4V289.1z M457.3,294.3l-11.2,19.4
	c0.4,0.4,0.8,0.8,1.2,1.2l19.4-11.2C464.3,300,461.1,296.7,457.3,294.3z M441.6,311.6c0.6,0.1,1.1,0.2,1.6,0.4l11.2-19.4
	c-3.9-2-8.2-3.2-12.8-3.4V311.6z M454.4,349.4L443.2,330c-0.5,0.2-1.1,0.3-1.6,0.4v22.4C446.2,352.6,450.5,351.4,454.4,349.4z
	 M466.7,338.3l-19.4-11.2c-0.4,0.4-0.8,0.8-1.2,1.2l11.2,19.4C461.1,345.3,464.3,342,466.7,338.3z M471.8,322.6h-22.4
	c-0.1,0.5-0.2,1.1-0.4,1.6l19.4,11.2C470.3,331.5,471.5,327.2,471.8,322.6z M471.8,319.3c-0.2-4.5-1.4-8.8-3.4-12.7l-19.4,11.2
	c0.2,0.5,0.3,1,0.4,1.5H471.8z M27.4,322.4c-11.4,0-20.6,9.2-20.6,20.6c0,11.4,9.2,20.6,20.6,20.6c11.4,0,20.6-9.3,20.6-20.6
	C48,331.6,38.8,322.4,27.4,322.4z M340.4,321c0,23.5-19,42.5-42.5,42.5s-42.5-19-42.5-42.5s19-42.5,42.5-42.5S340.4,297.5,340.4,321
	z M271.2,303.6l19.4,11.2c0.4-0.4,0.7-0.8,1.2-1.2l-11.2-19.4C276.8,296.7,273.6,299.9,271.2,303.6z M266,319.3h22.4
	c0.1-0.6,0.2-1.1,0.4-1.6l-19.4-11.2C267.5,310.4,266.3,314.7,266,319.3z M269.5,335.5l19.4-11.2c-0.2-0.5-0.4-1.1-0.5-1.7H266
	C266.3,327.2,267.5,331.6,269.5,335.5z M280.6,347.8l11.2-19.4c-0.4-0.3-0.8-0.7-1.2-1.2l-19.4,11.2
	C273.6,342.1,276.8,345.3,280.6,347.8z M296.3,330.5c-0.6-0.1-1.1-0.2-1.6-0.4l-11.2,19.4c3.9,2,8.2,3.2,12.8,3.4V330.5z
	 M296.3,289.1c-4.6,0.2-8.9,1.4-12.8,3.4l11.2,19.4c0.5-0.2,1.1-0.3,1.6-0.4V289.1z M315.3,294.3l-11.2,19.4
	c0.4,0.4,0.8,0.8,1.2,1.2l19.4-11.2C322.3,300,319.1,296.7,315.3,294.3z M299.6,311.6c0.6,0.1,1.1,0.2,1.6,0.4l11.2-19.4
	c-3.9-2-8.2-3.2-12.8-3.4V311.6z M312.4,349.4L301.2,330c-0.5,0.2-1.1,0.3-1.6,0.4v22.4C304.2,352.6,308.5,351.4,312.4,349.4z
	 M324.7,338.3l-19.4-11.2c-0.4,0.4-0.8,0.8-1.2,1.2l11.2,19.4C319.1,345.3,322.3,342,324.7,338.3z M329.8,322.6h-22.4
	c-0.1,0.5-0.2,1.1-0.4,1.6l19.4,11.2C328.3,331.5,329.5,327.2,329.8,322.6z M329.8,319.3c-0.2-4.5-1.4-8.8-3.4-12.7l-19.4,11.2
	c0.2,0.5,0.3,1,0.4,1.5H329.8z M512,171v9h-7v87v43v10v11h-17.6c0.7-3.2,1-6.6,1-10c0-26.7-21.8-48.5-48.5-48.5
	s-48.5,21.8-48.5,48.5c0,3.4,0.4,6.8,1,10h-47.1c0.7-3.2,1-6.6,1-10c0-26.7-21.8-48.5-48.5-48.5c-15.9,0-30.1,7.7-38.9,19.6h-16V310
	h7.7c-0.8,3.5-1.3,7.2-1.3,11c0,3.4,0.4,6.8,1,10h-63.7c-1.3,6.7-6.7,11.9-13.5,12.8c0-0.3,0-0.6,0-0.8v0l0,0
	c-0.1-14.6-12.1-26.5-26.6-26.5c-14.7,0-26.6,11.9-26.6,26.6c0,0.3,0,0.7,0,1H54c0-0.3,0-0.7,0-1c0-14.7-11.9-26.6-26.6-26.6
	c-12.1,0-22.3,8.1-25.5,19.1C0.7,333.3,0,330.7,0,328v-14c0-8.8,7.2-16,16-16h37v-5.9h-3V292c-11,0-20-16.1-20-36s9-36,20-36
	c0.5,0,0.9,0,1.4,0.1H53V184c0-2.2,1.8-4,4-4h23c2.2,0,4,1.8,4,4v36.1h10v-10.5c0-1,0.4-2,1.2-2.8L98,204v-78.9c0-1-0.4-2-1.2-2.8
	l-0.2-0.2c-0.8-0.7-1.2-1.7-1.2-2.8v-2.7c0-1,0.4-2,1.2-2.8l0.2-0.2c0.8-0.7,1.2-1.7,1.2-2.8V109c0-2.2,1.8-4,4-4h15
	c2.2,0,4,1.8,4,4v1.9c0,1,0.4,2,1.2,2.8l0.2,0.2c0.8,0.7,1.2,1.7,1.2,2.8v2.7c0,1-0.4,2-1.2,2.8l-0.2,0.2c-0.8,0.7-1.2,1.7-1.2,2.8
	V204l2.8,2.8c0.8,0.8,1.2,1.8,1.2,2.9v10.4h32.6c-1.5-1.1-2.6-2.7-2.6-5.1c0-3.8,3.6-6.4,6.7-8.7c2.1-1.5,4.3-3.1,4.3-4.3
	c0-1.7-0.4-2.2-0.8-2.9c-0.5-0.8-1.2-1.8-1.2-4.1c0-3.6,4.5-4.6,7.1-4.9l0.1-0.4c0-0.4,0.4-0.7,0.8-0.7h2.1c0.4,0,0.7,0.3,0.8,0.7
	l0.5,4.2l1.9,0.6c0.6,0.2,1,0.6,1.1,1.2l1.2,5.8c0.5,2.2,1.5,4.3,3,6l2,2.3h0l0.5,0.6c0.3,0.3,0.4,0.7,0.3,1.1v2.8
	c0,0.4-0.4,0.8-0.8,0.8h-9.2c-0.2,1.1-1.2,1.9-2.3,1.9c-1.2,0-2.1-0.8-2.3-1.9h-9.4c-0.4,0-0.8-0.4-0.8-0.8v-2.8
	c0-0.4,0.1-0.8,0.4-1.1l2.4-2.7c-0.2,0.1-0.3,0.2-0.5,0.3c-2.8,2-5.9,4.2-5.9,7c0,4.9,6.7,5,7,5c0.2,0,0.3,0,0.5,0.1H241v-0.7
	c0-2.2,0.8-4.2,2.3-5.7l0.8-0.8c1.5-1.5,2.3-3.6,2.3-5.7v-11.3c0-1.3-0.2-2.5-0.8-3.6l-1.9-3.9c-0.3-0.6,0.2-1.4,0.9-1.4h1.9
	c0.3-6.4,5.9-11.5,13-12v-2.3c-0.6-0.3-1-1-1-1.7v-3c0-1.1,0.9-2,2-2c1.1,0,2,0.9,2,2v3c0,0.7-0.4,1.4-1,1.7v2.3
	c7.1,0.4,12.7,5.6,13,12h1.9c0.7,0,1.2,0.7,0.9,1.4l-1.9,3.9c-0.5,1.1-0.8,2.4-0.8,3.6v11.3c0,2.2,0.8,4.2,2.3,5.7l0.8,0.8
	c1.5,1.5,2.3,3.5,2.3,5.7v0.7h12.6c6.3,0,12.4-1.2,18.2-3.6l4.5-1.9c5.7-2.4,11.9-3.6,18.1-3.4h5.5v-0.5c0-2.6,1.1-5.1,2.9-6.9l1-1
	c1.9-1.8,2.9-4.3,2.9-6.9v-13.8c0-1.5-0.3-3-1-4.4l-2.4-4.7c-0.4-0.8,0.2-1.8,1.1-1.8h2.3c0.3-7.8,7.2-14.1,15.9-14.6v-2.3
	c-2.2-0.5-3.8-2.5-3.8-4.8v-2h3.8V145H358v-15c0-1.1,0.9-2,2-2h6c1.1,0,2,0.9,2,2v15h-4v2.5h3.8v2c0,2.3-1.6,4.3-3.8,4.8v2.3
	c8.7,0.5,15.5,6.8,15.9,14.6h2.3c0.9,0,1.5,1,1.1,1.8l-2.4,4.7c-0.6,1.4-1,2.9-1,4.4v13.8c0,2.6,1.1,5.1,2.9,6.9l1,1
	c1.8,1.8,2.9,4.3,2.8,6.9v0.5h7.4V180h-7v-9H512z M172.3,192c0.2,0.3,0.5,0.5,0.8,0.5c0.6,0,1-0.5,1-1c0-0.1,0-0.3-0.1-0.4
	c0,0.5-0.4,0.9-1,0.9C172.8,192,172.5,192,172.3,192z M166,195c0,1.7,0.4,2.2,0.8,2.9c0.1,0.2,0.2,0.3,0.3,0.5l0.6-2.7
	c0.1-0.5,0.5-1,1.1-1.2l1.9-0.6l0.2-1.7C168.7,192.5,166,193.3,166,195z M83,292.1H63v5.9h20V292.1z M113,292.1H93v5.9h20V292.1z
	 M143,292.1h-20v5.9h20V292.1z M173,292.1h-20v5.9h18c0.7,0,1.3,0.1,2,0.1V292.1z M203,292.1h-20v11.4c1.6,1.9,2.8,4.1,3.5,6.5H203
	V292.1z M233,292.1h-20V310h20V292.1z M440.5,198c0-5-8.1-9-18-9c-9.9,0-18,4-18,9v47h36V198z M494.5,198c0-5-8.1-9-18-9
	c-9.9,0-18,4-18,9v47h36V198z"/>
</svg>
