<svg version="1.1" xmlns="http://www.w3.org/2000/svg" x="0" y="0" viewBox="0 0 512 512" xml:space="preserve"><path d="M511.5 227h-18.9c-1.1 0-2.3.1-3.4.4l-10.3 2.2 20.8-97.4c.1-.6-.3-1.2-1-1.2h-6.6c-5.1 0-10 2.5-13 6.6L427 210l-51.6 21H324l10.1-17.5c.4-.7-.1-1.5-.9-1.5h-3.4c-1.2 0-2.3.5-3.1 1.5L312.6 231H105c-46.3.1-72.5 6.3-85.2 15.6 0 0-.1 0-.1.1l-1.5 1.2-.3.3c-.5.4-1 .8-1.4 1.3C6.5 253.4 0 259.3 0 263c0 6 24 18 39 18h12.5v4.3c-1.5.6-2.5 2-2.5 3.7 0 2.2 1.8 4 4 4s4-1.8 4-4c0-1.7-1-3.1-2.5-3.7V281h114.4l-.1 2.5c0 1 .7 1.8 1.6 2 3.4.6 11.6 2 19.3 2.2 7.5.2 15.1-.8 18.4-1.3 1-.1 1.7-1 1.7-1.9v-.1l9.3-1.2c1-.1 1.7-.9 1.7-1.9v-.3H253v3.3c-1.7.6-3 2.3-3 4.2 0 2.5 2 4.5 4.5 4.5s4.5-2 4.5-4.5c0-2-1.3-3.6-3-4.2V281h78c54.5 0 106.8-11.3 155.6-32.1 1.5-.6 2.4-2.1 2.4-3.7v-9.3l19.7-7.9c.5-.3.3-1-.2-1z" opacity=".1" fill="#fff"/><path d="M231.3 277.7l-10.4 2.7v.9c0 1-.8 1.8-1.7 1.9l-9.3 1.2v.1c0 1-.7 1.8-1.7 1.9-.2 0-.4.1-.6.1h-.2c-.2 0-.3 0-.5.1h-.3c-.2 0-.3 0-.5.1h-.4c-.2 0-.3 0-.5.1h-.4c-.2 0-.4 0-.5.1-.1 0-.3 0-.5.1-.2 0-.4 0-.6.1h-.5c-.2 0-.4 0-.6.1h-.5c-.2 0-.4 0-.7.1h-.5c-.2 0-.5 0-.7.1h-.5c-.3 0-.6 0-.8.1h-.4c-.4 0-.8.1-1.3.1h-6.9c-7.6-.2-15.8-1.6-19.3-2.2-1-.2-1.7-1-1.6-2l.2-6.3.1-3 .2-6.3c0-1 .8-1.8 1.7-1.9 2.3-.3 6.7-.8 11.7-1.1 1.2-.1 2.5-.1 3.7-.1h3.9c.7 0 1.5 0 2.2.1 6.8.4 13.2 1.5 16.1 2.1 1 .2 1.6 1 1.6 2v.1l9.3 1.7c1 .2 1.7 1 1.6 2v.9l10.2 3.2c.1 0 .2.1.2.2l.1.1c0 .2-.1.5-.4.6zm102-65.7h-3.4c-1.2 0-2.3.5-3.1 1.5L312.6 231l-2 2.4c-5.7 7-12.7 12.7-20.6 16.7-1 .5-2 1-3 1.4-1.7.8-3.4 1.4-5.2 2.1-4.5 1.6-9.3 2.7-14.1 3.2l-69.8 7.5c4.8.5 8.9 1.3 10.9 1.6 1.2.2 2.1 1.1 2.3 2.3l8.5 1.5c1.5.3 2.5 1.5 2.5 3v.1l9.5 3c.1 0 .3.1.4.2h12.5c1 0 1.9-.4 2.7-1l2.8-2.5 12.3 1.1c1.4.1 2.8.2 4.2.2 2.4 0 4.9-.2 7.3-.6l5-.8c1.4-.2 2.6-1.2 3.1-2.5l1.2-2.9h7.6c.5 0 .7-.6.3-.9l-3.2-2.7c12.8-3 23.9-11.1 30.5-22.6l15.8-27.3c.4-.7-.1-1.5-.8-1.5zm64.7 27.5h-7c-.8 0-1.5.7-1.5 1.5v19c0 .8.7 1.5 1.5 1.5h7c.8 0 1.5-.7 1.5-1.5v-19c0-.8-.7-1.5-1.5-1.5zM511.7 228l-19.7 7.9v9.3c0 1.6-1 3.1-2.4 3.7C440.8 269.7 388.5 281 334 281h-78v3.3c1.7.6 3 2.3 3 4.2 0 2.5-2 4.5-4.5 4.5s-4.5-2-4.5-4.5c0-2 1.3-3.6 3-4.2V281h-30.3l8.9-2.3c.7-.2 1.1-.7 1.1-1.4v-.3h11.8c1.2 0 2.4-.5 3.3-1.3l2.5-2.3 11.9 1c1.4.1 2.8.2 4.2.2 2.5 0 5-.2 7.5-.6l5-.8c1.7-.3 3.2-1.4 3.9-3.1l.9-2.3h7c.6 0 1.2-.4 1.4-1 .2-.6.1-1.2-.4-1.7l-1.7-1.5c12.3-3.4 22.9-11.6 29.3-22.6l6-10.3h50.3l51.6-21 52.2-72.4c3-4.2 7.8-6.6 13-6.6h6.6c.6 0 1.1.6 1 1.2l-20.8 97.4 10.3-2.2c1.1-.2 2.3-.4 3.4-.4h18.9c.2.3.4 1-.1 1.3zM323 248c0-1.1-.9-2-2-2h-2c-1.1 0-2 .9-2 2v7c0 .6.4 1 1 1h4c.6 0 1-.4 1-1v-7zm8.3 0c0-1.1-.9-2-2-2h-2c-1.1 0-2 .9-2 2v7c0 .6.4 1 1 1h4c.6 0 1-.4 1-1v-7zm8.3 0c0-1.1-.9-2-2-2h-2c-1.1 0-2 .9-2 2v7c0 .6.4 1 1 1h4c.6 0 1-.4 1-1v-7zm8.3 0c0-1.1-.9-2-2-2h-2c-1.1 0-2 .9-2 2v7c0 .6.4 1 1 1h4c.6 0 1-.4 1-1v-7zm8.2 0c0-1.1-.9-2-2-2h-2c-1.1 0-2 .9-2 2v7c0 .6.4 1 1 1h4c.6 0 1-.4 1-1v-7zm8.3 0c0-1.1-.9-2-2-2h-2c-1.1 0-2 .9-2 2v7c0 .6.4 1 1 1h4c.6 0 1-.4 1-1v-7zm8.3 0c0-1.1-.9-2-2-2h-2c-1.1 0-2 .9-2 2v7c0 .6.4 1 1 1h4c.6 0 1-.4 1-1v-7zm8.3 0c0-1.1-.9-2-2-2h-2c-1.1 0-2 .9-2 2v7c0 .6.4 1 1 1h4c.6 0 1-.4 1-1v-7zm19.5-7c0-1.4-1.1-2.5-2.5-2.5h-7c-1.4 0-2.5 1.1-2.5 2.5v19c0 1.4 1.1 2.5 2.5 2.5h7c1.4 0 2.5-1.1 2.5-2.5v-19zM57 289c0 2.2-1.8 4-4 4s-4-1.8-4-4c0-1.7 1-3.1 2.5-3.7V281H39c-15 0-39-12-39-18 0-3.6 6.2-9.3 15.7-13.3l9 2.2c2.1.7 4.4.5 6.3-.5l5.8-3.1c1.6-.8 1.3-3.1-.4-3.7l-12.7-.5c13.8-7.9 39.3-13 81.2-13.1h206.3l-1.5 1.8c-5.5 6.8-12.3 12.3-19.9 16.3V248c0-1.1-.9-2-2-2h-2c-1.1 0-2 .9-2 2v3.8c-.7.3-1.4.6-2.2.8V248c0-1.1-.9-2-2-2h-2c-1.1 0-2 .9-2 2v6.4c-.7.2-1.4.3-2.2.5V248c0-1.1-.9-2-2-2h-2c-1.1 0-2 .9-2 2v7c0 .3.1.6.4.8-.2 0-.3 0-.5.1l-75.1 8c-.7 0-1.4-.1-2.2-.1h-2c-7 0-14 .8-17.5 1.3-1.5.2-2.6 1.4-2.6 2.9l-.2 6.3-.1 3-.1 3.8h-113v4.3c1.5.5 2.5 1.9 2.5 3.6zm202.5-34c0 .6.4 1 1 1h4c.6 0 1-.4 1-1v-7c0-1.1-.9-2-2-2h-2c-1.1 0-2 .9-2 2v7zm-8.2 0c0 .6.4 1 1 1h4c.6 0 1-.4 1-1v-7c0-1.1-.9-2-2-2h-2c-1.1 0-2 .9-2 2v7zm-8.1 0c0 .6.4 1 1 1h4c.6 0 1-.4 1-1v-7c0-1.1-.9-2-2-2h-2c-1.1 0-2 .9-2 2v7zm-8.2 0c0 .6.4 1 1 1h4c.6 0 1-.4 1-1v-7c0-1.1-.9-2-2-2h-2c-1.1 0-2 .9-2 2v7zm-25 0c0 .6.4 1 1 1h4c.6 0 1-.4 1-1v-7c0-1.1-.9-2-2-2h-2c-1.1 0-2 .9-2 2v7zm-8 0c0 .6.4 1 1 1h4c.6 0 1-.4 1-1v-7c0-1.1-.9-2-2-2h-2c-1.1 0-2 .9-2 2v7zm-8 0c0 .6.4 1 1 1h4c.6 0 1-.4 1-1v-7c0-1.1-.9-2-2-2h-2c-1.1 0-2 .9-2 2v7zm-16 0c0 .6.4 1 1 1h4c.6 0 1-.4 1-1v-7c0-1.1-.9-2-2-2h-2c-1.1 0-2 .9-2 2v7zm-16 0c0 .6.4 1 1 1h4c.6 0 1-.4 1-1v-7c0-1.1-.9-2-2-2h-2c-1.1 0-2 .9-2 2v7zm-8.3 0c0 .6.4 1 1 1h4c.6 0 1-.4 1-1v-7c0-1.1-.9-2-2-2h-2c-1.1 0-2 .9-2 2v7zm-8.3 0c0 .6.4 1 1 1h4c.6 0 1-.4 1-1v-7c0-1.1-.9-2-2-2h-2c-1.1 0-2 .9-2 2v7zm-8.3 0c0 .6.4 1 1 1h4c.6 0 1-.4 1-1v-7c0-1.1-.9-2-2-2h-2c-1.1 0-2 .9-2 2v7zm-8.3 0c0 .6.4 1 1 1h4c.6 0 1-.4 1-1v-7c0-1.1-.9-2-2-2h-2c-1.1 0-2 .9-2 2v7zm-8.3 0c0 .6.4 1 1 1h4c.6 0 1-.4 1-1v-7c0-1.1-.9-2-2-2h-2c-1.1 0-2 .9-2 2v7zm-8.3 0c0 .6.4 1 1 1h4c.6 0 1-.4 1-1v-7c0-1.1-.9-2-2-2h-2c-1.1 0-2 .9-2 2v7zm-8.3 0c0 .6.4 1 1 1h4c.6 0 1-.4 1-1v-7c0-1.1-.9-2-2-2h-2c-1.1 0-2 .9-2 2v7zm-8.3 0c0 .6.4 1 1 1h4c.6 0 1-.4 1-1v-7c0-1.1-.9-2-2-2h-2c-1.1 0-2 .9-2 2v7zm-8.3 0c0 .6.4 1 1 1h4c.6 0 1-.4 1-1v-7c0-1.1-.9-2-2-2h-2c-1.1 0-2 .9-2 2v7zm-8.3 0c0 .6.4 1 1 1h4c.6 0 1-.4 1-1v-7c0-1.1-.9-2-2-2h-2c-1.1 0-2 .9-2 2v7zm-19.5 5c0 1.4 1.1 2.5 2.5 2.5h7c1.4 0 2.5-1.1 2.5-2.5v-19c0-1.4-1.1-2.5-2.5-2.5h-7c-1.4 0-2.5 1.1-2.5 2.5v19zm2.5 1.5h7c.8 0 1.5-.7 1.5-1.5v-19c0-.8-.7-1.5-1.5-1.5h-7c-.8 0-1.5.7-1.5 1.5v19c0 .8.7 1.5 1.5 1.5z" fill="#fff"/></svg>