<svg version="1.1" xmlns="http://www.w3.org/2000/svg" x="0" y="0" viewBox="0 0 512 512" xml:space="preserve"><path d="M511.5 227h-18.9c-1.1 0-2.3.1-3.4.4l-10.3 2.2 20.8-97.4c.1-.6-.3-1.2-1-1.2h-6.6c-5.1 0-10 2.5-13 6.6L427 210l-51.6 21H324l10.1-17.5c.4-.7-.1-1.5-.9-1.5h-3.4c-1.2 0-2.3.5-3.1 1.5L312.6 231H105c-46.3.1-72.5 6.3-85.2 15.6 0 0-.1 0-.1.1l-1.5 1.2-.3.3c-.5.4-1 .8-1.4 1.3C6.5 253.4 0 259.3 0 263c0 6 24 18 39 18h12.5v4.3c-1.5.6-2.5 2-2.5 3.7 0 2.2 1.8 4 4 4s4-1.8 4-4c0-1.7-1-3.1-2.5-3.7V281h114.4l-.1 2.5c0 1 .7 1.8 1.6 2 3.4.6 11.6 2 19.3 2.2 7.5.2 15.1-.8 18.4-1.3 1-.1 1.7-1 1.7-1.9v-.1l9.3-1.2c1-.1 1.7-.9 1.7-1.9v-.3H253v3.3c-1.7.6-3 2.3-3 4.2 0 2.5 2 4.5 4.5 4.5s4.5-2 4.5-4.5c0-2-1.3-3.6-3-4.2V281h78c54.5 0 106.8-11.3 155.6-32.1 1.5-.6 2.4-2.1 2.4-3.7v-9.3l19.7-7.9c.5-.3.3-1-.2-1z" opacity=".1" fill="#fff"/><path d="M70.5 241v19c0 .8-.7 1.5-1.5 1.5h-7c-.8 0-1.5-.7-1.5-1.5v-19c0-.8.7-1.5 1.5-1.5h7c.8 0 1.5.7 1.5 1.5zm100 44.6c3.4.6 11.6 2 19.3 2.2h6.9c.4 0 .8 0 1.3-.1h.4c.3 0 .6 0 .8-.1h.5c.2 0 .5 0 .7-.1h.5c.2 0 .4 0 .7-.1h.5c.2 0 .4 0 .6-.1h.5c.2 0 .4 0 .6-.1.2 0 .3 0 .5-.1.2 0 .4 0 .5-.1h.4c.2 0 .3 0 .5-.1h.4c.2 0 .3 0 .5-.1h.3c.2 0 .3 0 .5-.1h.2c.2 0 .4-.1.6-.1 1-.1 1.7-1 1.7-1.9v-.1l9.3-1.2c1-.1 1.7-.9 1.7-1.9v-.9l10.4-2.7c.5-.1.5-.8 0-1l-10.2-3.2v-.9c0-1-.7-1.8-1.6-2l-9.3-1.7v-.1c0-1-.7-1.8-1.6-2-3.2-.6-10.8-2-18.3-2.1h-2c-7 0-14.2.8-17.4 1.3-1 .1-1.7 1-1.7 1.9l-.2 6.3-.1 3-.2 6.3c.1.8.8 1.7 1.8 1.9zM511.7 228l-19.7 7.9v9.3c0 1.6-1 3.1-2.4 3.7C440.8 269.7 388.5 281 334 281h-78v3.3c1.7.6 3 2.3 3 4.2 0 2.5-2 4.5-4.5 4.5s-4.5-2-4.5-4.5c0-2 1.3-3.6 3-4.2V281h-30.3l8.9-2.3c.7-.2 1.1-.7 1.1-1.4s-.4-1.3-1.1-1.5l-9.5-3v-.1c0-1.5-1-2.8-2.5-3l-8.5-1.5c-.3-1.1-1.2-2-2.3-2.3-3-.6-10.7-2-18.5-2.2h-2c-7 0-14 .8-17.5 1.3-1.5.2-2.6 1.4-2.6 2.9l-.2 6.3-.1 3-.1 3.8H54.5v4.3c1.5.6 2.5 2 2.5 3.7 0 2.2-1.8 4-4 4s-4-1.8-4-4c0-1.7 1-3.1 2.5-3.7V281H39c-15 0-39-12-39-18 0-3.6 6.2-9.3 15.7-13.3l9 2.2c2.1.7 4.4.5 6.3-.5l5.8-3.1c1.6-.8 1.3-3.1-.4-3.7l-12.7-.5c13.8-7.9 39.3-13 81.2-13.1h207.6l14.2-17.5c.8-.9 1.9-1.5 3.1-1.5h3.4c.8 0 1.3.8.9 1.5L324 231h51.4l51.6-21 52.2-72.4c3-4.2 7.8-6.6 13-6.6h6.6c.6 0 1.1.6 1 1.2L479 229.6l10.3-2.2c1.1-.2 2.3-.4 3.4-.4h18.9c.4 0 .6.7.1 1zM71.5 241c0-1.4-1.1-2.5-2.5-2.5h-7c-1.4 0-2.5 1.1-2.5 2.5v19c0 1.4 1.1 2.5 2.5 2.5h7c1.4 0 2.5-1.1 2.5-2.5v-19zm13.5 7c0-1.1-.9-2-2-2h-2c-1.1 0-2 .9-2 2v7c0 .6.4 1 1 1h4c.6 0 1-.4 1-1v-7zm8.3 0c0-1.1-.9-2-2-2h-2c-1.1 0-2 .9-2 2v7c0 .6.4 1 1 1h4c.6 0 1-.4 1-1v-7zm8.3 0c0-1.1-.9-2-2-2h-2c-1.1 0-2 .9-2 2v7c0 .6.4 1 1 1h4c.6 0 1-.4 1-1v-7zm8.3 0c0-1.1-.9-2-2-2h-2c-1.1 0-2 .9-2 2v7c0 .6.4 1 1 1h4c.6 0 1-.4 1-1v-7zm8.3 0c0-1.1-.9-2-2-2h-2c-1.1 0-2 .9-2 2v7c0 .6.4 1 1 1h4c.6 0 1-.4 1-1v-7zm8.3 0c0-1.1-.9-2-2-2h-2c-1.1 0-2 .9-2 2v7c0 .6.4 1 1 1h4c.6 0 1-.4 1-1v-7zm8.3 0c0-1.1-.9-2-2-2h-2c-1.1 0-2 .9-2 2v7c0 .6.4 1 1 1h4c.6 0 1-.4 1-1v-7zm8.3 0c0-1.1-.9-2-2-2h-2c-1.1 0-2 .9-2 2v7c0 .6.4 1 1 1h4c.6 0 1-.4 1-1v-7zm8.3 0c0-1.1-.9-2-2-2h-2c-1.1 0-2 .9-2 2v7c0 .6.4 1 1 1h4c.6 0 1-.4 1-1v-7zm8.3 0c0-1.1-.9-2-2-2h-2c-1.1 0-2 .9-2 2v7c0 .6.4 1 1 1h4c.6 0 1-.4 1-1v-7zm8.3 0c0-1.1-.9-2-2-2h-2c-1.1 0-2 .9-2 2v7c0 .6.4 1 1 1h4c.6 0 1-.4 1-1v-7zm16 0c0-1.1-.9-2-2-2h-2c-1.1 0-2 .9-2 2v7c0 .6.4 1 1 1h4c.6 0 1-.4 1-1v-7zm16 0c0-1.1-.9-2-2-2h-2c-1.1 0-2 .9-2 2v7c0 .6.4 1 1 1h4c.6 0 1-.4 1-1v-7zm8 0c0-1.1-.9-2-2-2h-2c-1.1 0-2 .9-2 2v7c0 .6.4 1 1 1h4c.6 0 1-.4 1-1v-7zm8 0c0-1.1-.9-2-2-2h-2c-1.1 0-2 .9-2 2v7c0 .6.4 1 1 1h4c.6 0 1-.4 1-1v-7zm25 0c0-1.1-.9-2-2-2h-2c-1.1 0-2 .9-2 2v7c0 .6.4 1 1 1h4c.6 0 1-.4 1-1v-7zm8.2 0c0-1.1-.9-2-2-2h-2c-1.1 0-2 .9-2 2v7c0 .6.4 1 1 1h4c.6 0 1-.4 1-1v-7zm8.1 0c0-1.1-.9-2-2-2h-2c-1.1 0-2 .9-2 2v7c0 .6.4 1 1 1h4c.6 0 1-.4 1-1v-7zm8.2 0c0-1.1-.9-2-2-2h-2c-1.1 0-2 .9-2 2v7c0 .6.4 1 1 1h4c.6 0 1-.4 1-1v-7zm8.2 0c0-1.1-.9-2-2-2h-2c-1.1 0-2 .9-2 2v7c0 .6.4 1 1 1h4c.6 0 1-.4 1-1v-7zm8.1 0c0-1.1-.9-2-2-2h-2c-1.1 0-2 .9-2 2v7c0 .1 0 .3.1.4 2-.5 4-1.1 5.9-1.7V248zm8.2 0c0-1.1-.9-2-2-2h-2c-1.1 0-2 .9-2 2v4.8c2-.8 4-1.7 6-2.7V248zm33 0c0-1.1-.9-2-2-2h-2c-1.1 0-2 .9-2 2v7c0 .6.4 1 1 1h4c.6 0 1-.4 1-1v-7zm8.3 0c0-1.1-.9-2-2-2h-2c-1.1 0-2 .9-2 2v7c0 .6.4 1 1 1h4c.6 0 1-.4 1-1v-7zm8.3 0c0-1.1-.9-2-2-2h-2c-1.1 0-2 .9-2 2v7c0 .6.4 1 1 1h4c.6 0 1-.4 1-1v-7zm8.3 0c0-1.1-.9-2-2-2h-2c-1.1 0-2 .9-2 2v7c0 .6.4 1 1 1h4c.6 0 1-.4 1-1v-7zm8.2 0c0-1.1-.9-2-2-2h-2c-1.1 0-2 .9-2 2v7c0 .6.4 1 1 1h4c.6 0 1-.4 1-1v-7zm8.3 0c0-1.1-.9-2-2-2h-2c-1.1 0-2 .9-2 2v7c0 .6.4 1 1 1h4c.6 0 1-.4 1-1v-7zm8.3 0c0-1.1-.9-2-2-2h-2c-1.1 0-2 .9-2 2v7c0 .6.4 1 1 1h4c.6 0 1-.4 1-1v-7zm8.3 0c0-1.1-.9-2-2-2h-2c-1.1 0-2 .9-2 2v7c0 .6.4 1 1 1h4c.6 0 1-.4 1-1v-7zm19.5-7c0-1.4-1.1-2.5-2.5-2.5h-7c-1.4 0-2.5 1.1-2.5 2.5v19c0 1.4 1.1 2.5 2.5 2.5h7c1.4 0 2.5-1.1 2.5-2.5v-19zm-2.5-1.5h-7c-.8 0-1.5.7-1.5 1.5v19c0 .8.7 1.5 1.5 1.5h7c.8 0 1.5-.7 1.5-1.5v-19c0-.8-.7-1.5-1.5-1.5z" fill="#fff"/></svg>