<svg xmlns="http://www.w3.org/2000/svg" viewBox="0 0 512 512" xml:space="preserve"><path d="M510.9 270.6c-.8-.2-1.6.3-1.8 1.1l-3.6 13.5L287 296.9c.7-2.6 1.1-5.4 1.1-8.3 0-3.5-.6-6.9-1.6-10.1l61.5-8.3c.7-.1 1.4-.3 2.1-.6l.5-.2c1.4-.6 1.1-2.7-.5-2.9l-2.2-.2c-1.9-.2-3.8-.2-5.8 0l-59 5.3c-4.8-7.7-12.8-13.2-22.1-14.6 0-6.3-.1-12.6-.2-18.9l-.3-11.5-.3-11.5c-.2-7.7-.5-15.3-.8-23l-.5-11.5-.3-5.8c-.1-1 0-1.9-.3-2.9s-.7-1.9-1.8-2.9h-1c-1.1 1-1.5 1.9-1.8 2.9s-.2 1.9-.3 2.9l-.3 5.8-.5 11.5c-.3 7.7-.6 15.3-.8 23l-.3 11.5-.3 11.5c-.1 6.3-.2 12.6-.2 18.9-9.3 1.5-17.3 7-22.1 14.6l-59-5.3c-1.9-.2-3.8-.2-5.8 0l-2.2.2c-1.6.1-1.9 2.3-.5 2.9l.5.2c.7.3 1.4.5 2.1.6l61.5 8.3c-1.1 3.2-1.6 6.6-1.6 10.1 0 2.9.4 5.6 1.1 8.3L6.5 285.1l-3.6-13.5c-.2-.8-1-1.3-1.8-1.1-.8.2-1.3 1-1.1 1.8l4 14.9V298c0 .8.7 1.5 1.5 1.5S7 298.8 7 298v-7.9l73 5.4v4.5c0 1.1.9 2 2 2s2-.9 2-2v-4.2l50 3.7v4.5c0 1.1.9 2 2 2s2-.9 2-2v-4.2l29 2.1v2.3c-5.9 2.4-10 8.4-10 15.3 0 9.1 7.2 16.5 16 16.5s16-7.4 16-16.5c0-2.8-.7-5.4-1.9-7.7.3.1.5.2.9.2 1.1 0 2-.9 2-2v-5.4l8.1 1.6-4.1 15.5c-.1.5.2 1.1.7 1.2h.3c.4 0 .8-.3 1-.7l3-11.5V329c0-1.1-.9-2-2-2h-3c-1.1 0-2 .9-2 2v14c0 1.1.9 2 2 2h3c1.1 0 2-.9 2-2v-5h4v5c0 1.1.9 2 2 2h3c1.1 0 2-.9 2-2v-14c0-1.1-.9-2-2-2h-3c-1.1 0-2 .9-2 2v-8.1l15.8-10.5 8.2 1.6v4c0 4.4 3.6 8 8 8h18v3c0 .6.4 1 1 1h.4v5c0-1.1-.9-2-2-2H251c-1.1 0-2 .9-2 2v10c0 1.1.9 2 2 2h1.4c1.1 0 2-.9 2-2v-3.4h3.1v3.4c0 1.1.9 2 2 2h1.4c1.1 0 2-.9 2-2v-10c0-1.1-.9-2-2-2h-1.4c-1.1 0-2 .9-2 2v-5h.4c.6 0 1-.4 1-1v-3h18c4.4 0 8-3.6 8-8v-4l8.2-1.6 15.8 10.5v8.1c0-1.1-.9-2-2-2h-3c-1.1 0-2 .9-2 2v14c0 1.1.9 2 2 2h3c1.1 0 2-.9 2-2v-5h4v5c0 1.1.9 2 2 2h3c1.1 0 2-.9 2-2v-14c0-1.1-.9-2-2-2h-3c-1.1 0-2 .9-2 2v-18.3l3 11.5c.1.4.5.7 1 .7h.3c.5-.1.9-.7.7-1.2l-4.1-15.5 8.1-1.6v5.4c0 1.1.9 2 2 2 .3 0 .6-.1.9-.2-1.2 2.3-1.9 4.9-1.9 7.7 0 9.1 7.2 16.5 16 16.5s16-7.4 16-16.5c0-6.9-4.1-12.8-10-15.3v-2.3l29-2.1v4.2c0 1.1.9 2 2 2s2-.9 2-2v-4.5l50-3.7v4.2c0 1.1.9 2 2 2s2-.9 2-2v-4.5l73-5.4v7.9c0 .8.7 1.5 1.5 1.5s1.5-.7 1.5-1.5v-10.8l3.9-14.8c.4-.8-.1-1.6-.9-1.8zM186 309.9c-1.8-2.5-4.2-4.5-7-5.7v-1.4l3 .2 4 .8v6.1zm17 8.6v-11.3l1.3.3 4.3 7.2-5.6 3.8zm7.3-4.9L207 308l9 1.8-5.7 3.8zm85.7-3.8 9-1.8-3.4 5.6-5.6-3.8zm7.3 4.9 4.3-7.2 1.3-.3v11.3l-5.6-3.8zm29.7-10.5c-2.8 1.2-5.2 3.2-7 5.7v-6.1l4-.8 3-.2v1.4z" fill="#fff"/></svg>