<svg version="1.1" xmlns="http://www.w3.org/2000/svg" x="0" y="0" viewBox="0 0 512 512" xml:space="preserve"><path d="m510.2 236.8-4.6-.4 1.7-1c.4-.2.3-.9-.2-.9l-15.5-1.1c-.8-.1-1.6 0-2.4.2l-4.1 1-4.3-.4.5-2.2.1-.4 20.5-83.9c.3-1.3-.6-2.5-1.9-2.5h-19.2c-2.3 0-4.4 1-5.9 2.6L411.4 218c-6.1 6.8-14.9 10.7-24.1 10.6l-62.5-.6H71c-17.9 0-33.6 4.3-42.5 10.8l-1.2.9c-.4.3-.7.6-1.1.9-.3.3-.7.6-1 .9-2 2-3.5 4.3-4.1 6.6-13 3.8-21.1 9-21.1 14.9 0 10.4 25.5 19 59 20.7v3.3c0 .6.4 1 1 1h1.2c.5 0 1 .2 1.4.6l3.8 3.8c.4.4.6.9.6 1.4v2.5c-2.9.9-5 3.5-5 6.7 0 3.9 3.1 7 7 7s7-3.1 7-7c0-2.8-1.6-5.2-4-6.3V284h82v11c0 2.2 1.8 4 4 4h1c0 1.1.9 1.9 2 1.8l35.4-3.5c1.8-.2 3.3-1.6 3.6-3.4l11.4-2.2c.9-.2 1.6-1 1.6-2V288h22v2c0 .6.4 1 1 1h2v1.9c-3 1.5-5 4.5-5 8.1 0 5 4 9 9 9s9-4 9-9c0-4.3-3-7.9-7-8.8V291h1c.6 0 1-.4 1-1v-2h27.6c3.6 0 7.1-.4 10.6-1.2l12.5-2.8h28c23.5 0 58.5-4.3 94-12 35.5-7.8 86-22.9 86-22.9 2.5-.7 4.6-2.5 5.5-5l1.7-4.6c.4-1.3-.4-2.6-1.7-2.7z" opacity=".1" fill="#fff"/><path d="M154 295v-21c0-2.2 1.8-4 4-4h1c0-1 .8-1.8 1.8-1.8h.2l1 .1 1 .1 33.4 3.3c1.8.2 3.3 1.6 3.6 3.4l11.4 2.2c.9.2 1.5.9 1.6 1.8v2.5c1.1 0 2 .9 2 2v2c0 1.1-.9 2-2 2v2.3c0 1-.7 1.8-1.6 2l-11.4 2.2c-.3 1.8-1.7 3.2-3.6 3.4L161 301h-.9c-.1 0-.1-.1-.2-.1 0 0-.1 0-.1-.1-.1 0-.1-.1-.2-.1l-.1-.1s-.1-.1-.1-.2l-.1-.1c0-.1-.1-.1-.1-.2l-.1-.1c0-.1-.1-.2-.1-.2v-.5h-1c-2.2-.3-4-2.1-4-4.3zm30.2-30H165c-1.1 0-2 .9-2 2v.4l33.5 3.3c2 .2 3.7 1.6 4.3 3.5l10.8 2.1c1.4.3 2.4 1.4 2.4 2.8h6.6c2.2 0 4.5-.5 6.5-1.4l4.7-2.1c.8-.3 1.6-.5 2.4-.5h27.9c1.2 0 2.3-.3 3.3-1l3.1-2h2.4c1.7 0 3-1.3 3-3v-.6l.7-.4h5.3c.6 0 1-.4 1-1v-1c0-.6-.4-1-1-1h-.8l3-2H295c.6 0 1-.4 1-1v-2c0-.6-.4-1-1-1h-6.7l9.4-6.2c.3-.2.7-.3 1.1-.3.5 0 .9.2 1.3.5l6 5.3c.5.5 1.2.7 2 .7h1.9c.6 0 1-.4 1-1V250c0-.7.2-1.3.6-1.8l.6-.8 5.1-6.5c.3-.3 0-.8-.4-.8h-4c-.6 0-1.3.2-1.8.6l-9.8 7.4c-.9.6-1.9 1-2.9 1.2h-.1l-4.8.4-2.3.2-3.7.3c-.3 0-.7.1-1 .1l-2.7.3c-1.4.1-2.7.3-4.1.5-1.2.1-2.4.3-3.7.5-.6.1-1.1.2-1.7.2l-7.8 1.2-60.9 10.4c-7 1-14.2 1.6-21.4 1.6zM461 224.7c.4.9 1.2 1.6 2.1 1.9l18.4 4.3-.1.6 20.5-83.9c.3-1.3-.6-2.5-1.9-2.5h-6.3L461 221.9c-.4.9-.4 1.9 0 2.8zm-50 11.8h-6c-1.4 0-2.5 1.1-2.5 2.5v20c0 1.4 1.1 2.5 2.5 2.5h6c1.4 0 2.5-1.1 2.5-2.5v-20c0-1.4-1.1-2.5-2.5-2.5zm100.9 2.9-1.7 4.6c-.9 2.5-2.9 4.3-5.5 5 0 0-50.5 15.2-86 22.9-35.5 7.8-70.5 12-94 12h-28l-12.5 2.8c-3.5.8-7 1.2-10.6 1.2H246v2c0 .6-.4 1-1 1h-1v1.2c4 .9 7 4.5 7 8.8 0 5-4 9-9 9s-9-4-9-9c0-3.5 2-6.6 5-8.1V291h-2c-.6 0-1-.4-1-1v-2h-20.4c.8-.5 1.4-1.5 1.4-2.5v-2c0-1.3-.8-2.4-2-2.8v-.7h6.6c2.4 0 4.7-.5 6.9-1.5l4.7-2.1c.6-.3 1.3-.4 2-.4h27.9c1.4 0 2.7-.4 3.8-1.2l2.8-1.8h2.1c2.2 0 4-1.8 4-4h5c1.1 0 2-.9 2-2v-1c0-.5-.2-1-.5-1.3l1-.7H295c1.1 0 2-.9 2-2v-2c0-1.1-.9-2-2-2h-3.3l6.6-4.3c.2-.1.4-.2.5-.2.2 0 .5.1.7.2l6 5.3c.7.6 1.7 1 2.6 1h1.9c1.1 0 2-.9 2-2v-6.9c.4-.5.7-1.3.7-2.1v-.5l5.5-7.1c.4-.5.4-1.1.2-1.6-.3-.5-.8-.8-1.3-.8h-4c-.9 0-1.7.3-2.4.8l-9.8 7.4c-.7.5-1.6.9-2.5 1-.3-1.2-1.3-2.1-2.4-2.1-1.3 0-2.3 1.1-2.5 2.6l-2.2.2c-.1-1.5-1.2-2.8-2.5-2.8-1.4 0-2.5 1.3-2.5 3v.2c-.7.1-1.5.1-2.2.2v-.4c0-1.7-1.1-3-2.5-3s-2.5 1.3-2.5 3c0 .3.1.6.1.9-.8.1-1.7.2-2.5.3.1-.4.2-.8.2-1.2 0-1.7-1.1-3-2.5-3s-2.5 1.3-2.5 3c0 .7.2 1.3.5 1.8-1.2.2-2.5.4-3.7.6.6-.5 1-1.4 1-2.4 0-1.7-1.1-3-2.5-3s-2.5 1.3-2.5 3c0 1.3.7 2.3 1.6 2.8h-.1l-60.9 10.4c-7 1.2-14.2 1.8-21.4 1.8H165c-1.7 0-3 1.3-3 3v.3l-.9-.1h-.3c-1.2 0-2.2.8-2.6 1.8h-.2c-2.8 0-5 2.2-5 5v10H72v12.7c2.4 1.1 4 3.5 4 6.3 0 3.9-3.1 7-7 7s-7-3.1-7-7c0-3.2 2.1-5.8 5-6.7v-2.5c0-.5-.2-1-.6-1.4l-3.8-3.8c-.4-.4-.9-.6-1.4-.6H60c-.6 0-1-.4-1-1v-3.3C25.5 282 0 273.4 0 263c0-5.9 8.1-11.1 21.2-15 .1-.5.3-1 .6-1.5 1.2.5 2.4 1 3.8 1.4.8.2 1.6 0 2.1-.6l4.8-5.6c.5-.5.2-1.4-.5-1.6-1.2-.4-2.4-.8-3.5-1.3C37.3 232.3 53.1 228 71 228h253.8l62.5.6c9.2.1 17.9-3.8 24.1-10.6l63.5-70.4c1.5-1.7 3.7-2.6 5.9-2.6h11.8l-32.5 76.5c-.5 1.2-.5 2.5 0 3.6s1.5 2 2.7 2.4l18.5 4.3-.5 2.2 4.3.4 4.1-1c.8-.2 1.6-.3 2.4-.2l15.5 1.1c.5 0 .6.7.2.9l-1.7 1 4.6.4c1.3.3 2.1 1.6 1.7 2.8zm-474 2.8c0-.5-.4-.9-.8-1-.3 0-.5-.1-.8-.2-.4-.1-.7.1-1 .3l-5.2 6.1c-.5.6-.2 1.5.6 1.6 2 .4 4.1.6 6.2.7.6 0 1.1-.4 1.1-1v-6.5zm9 3.7c0-2.1-1.7-3.9-3.8-4-.8 0-1.5-.1-2.1-.1-.6-.1-1.1.4-1.1 1v6.2c0 .6.5 1 1 1 1.7 0 3.4-.2 5.1-.4.5-.1.9-.5.9-1v-2.7zM69 299c-2.2 0-4 1.8-4 4s1.8 4 4 4 4-1.8 4-4-1.8-4-4-4zm5.5-60c0-1.9-1.6-3.5-3.5-3.5h-6c-1.9 0-3.5 1.6-3.5 3.5v20c0 1.9 1.6 3.5 3.5 3.5h6c1.9 0 3.5-1.6 3.5-3.5v-20zM89 249c0-1.7-1.1-3-2.5-3s-2.5 1.3-2.5 3 1.1 3 2.5 3 2.5-1.3 2.5-3zm7.2 0c0-1.7-1.1-3-2.5-3s-2.5 1.3-2.5 3 1.1 3 2.5 3 2.5-1.3 2.5-3zm7.2 0c0-1.7-1.1-3-2.5-3s-2.5 1.3-2.5 3 1.1 3 2.5 3 2.5-1.3 2.5-3zm7.2 0c0-1.7-1.1-3-2.5-3s-2.5 1.3-2.5 3 1.1 3 2.5 3 2.5-1.3 2.5-3zm7.3 0c0-1.7-1.1-3-2.5-3s-2.5 1.3-2.5 3 1.1 3 2.5 3c1.3 0 2.5-1.3 2.5-3zm7.2 0c0-1.7-1.1-3-2.5-3s-2.5 1.3-2.5 3 1.1 3 2.5 3 2.5-1.3 2.5-3zm7.2 0c0-1.7-1.1-3-2.5-3s-2.5 1.3-2.5 3 1.1 3 2.5 3 2.5-1.3 2.5-3zm7.2 0c0-1.7-1.1-3-2.5-3s-2.5 1.3-2.5 3 1.1 3 2.5 3 2.5-1.3 2.5-3zm7.2 0c0-1.7-1.1-3-2.5-3s-2.5 1.3-2.5 3 1.1 3 2.5 3 2.5-1.3 2.5-3zm7.2 0c0-1.7-1.1-3-2.5-3s-2.5 1.3-2.5 3 1.1 3 2.5 3 2.5-1.3 2.5-3zm7.2 0c0-1.7-1.1-3-2.5-3s-2.5 1.3-2.5 3 1.1 3 2.5 3 2.5-1.3 2.5-3zm7.3 0c0-1.7-1.1-3-2.5-3s-2.5 1.3-2.5 3 1.1 3 2.5 3c1.3 0 2.5-1.3 2.5-3zm7.2 0c0-1.7-1.1-3-2.5-3s-2.5 1.3-2.5 3 1.1 3 2.5 3 2.5-1.3 2.5-3zm7.2 0c0-1.7-1.1-3-2.5-3s-2.5 1.3-2.5 3 1.1 3 2.5 3 2.5-1.3 2.5-3zm7.2 0c0-1.7-1.1-3-2.5-3s-2.5 1.3-2.5 3 1.1 3 2.5 3 2.5-1.3 2.5-3zm10 0c0-1.7-1.1-3-2.5-3s-2.5 1.3-2.5 3 1.1 3 2.5 3 2.5-1.3 2.5-3zm12 0c0-1.7-1.1-3-2.5-3s-2.5 1.3-2.5 3 1.1 3 2.5 3 2.5-1.3 2.5-3zm8 0c0-1.7-1.1-3-2.5-3s-2.5 1.3-2.5 3 1.1 3 2.5 3 2.5-1.3 2.5-3zm7.1 0c0-1.7-1.1-3-2.5-3s-2.5 1.3-2.5 3 1.1 3 2.5 3 2.5-1.3 2.5-3zm7.2 0c0-1.7-1.1-3-2.5-3s-2.5 1.3-2.5 3 1.1 3 2.5 3c1.3 0 2.5-1.3 2.5-3zm7.1 0c0-1.7-1.1-3-2.5-3s-2.5 1.3-2.5 3 1.1 3 2.5 3 2.5-1.3 2.5-3zm7.1 0c0-1.7-1.1-3-2.5-3s-2.5 1.3-2.5 3 1.1 3 2.5 3 2.5-1.3 2.5-3zm7.2 0c0-1.7-1.1-3-2.5-3s-2.5 1.3-2.5 3 1.1 3 2.5 3c1.3 0 2.5-1.3 2.5-3zm7.1 0c0-1.7-1.1-3-2.5-3s-2.5 1.3-2.5 3 1.1 3 2.5 3 2.5-1.3 2.5-3zM242 296c-2.8 0-5 2.2-5 5s2.2 5 5 5 5-2.2 5-5-2.2-5-5-5zm77.8-47c0-1.7-1.1-3-2.5-3s-2.5 1.3-2.5 3 1.1 3 2.5 3 2.5-1.3 2.5-3zm7.2 0c0-1.7-1.1-3-2.5-3s-2.5 1.3-2.5 3 1.1 3 2.5 3c1.3 0 2.5-1.3 2.5-3zm7.1 0c0-1.7-1.1-3-2.5-3s-2.5 1.3-2.5 3 1.1 3 2.5 3 2.5-1.3 2.5-3zm7.1 0c0-1.7-1.1-3-2.5-3s-2.5 1.3-2.5 3 1.1 3 2.5 3 2.5-1.3 2.5-3zm7.1 0c0-1.7-1.1-3-2.5-3s-2.5 1.3-2.5 3 1.1 3 2.5 3 2.5-1.3 2.5-3zm7.2 0c0-1.7-1.1-3-2.5-3s-2.5 1.3-2.5 3 1.1 3 2.5 3 2.5-1.3 2.5-3zm7.1 0c0-1.7-1.1-3-2.5-3s-2.5 1.3-2.5 3 1.1 3 2.5 3 2.5-1.3 2.5-3zm7.1 0c0-1.7-1.1-3-2.5-3s-2.5 1.3-2.5 3 1.1 3 2.5 3 2.5-1.3 2.5-3zm7.2 0c0-1.7-1.1-3-2.5-3s-2.5 1.3-2.5 3 1.1 3 2.5 3 2.5-1.3 2.5-3zm7.1 0c0-1.7-1.1-3-2.5-3s-2.5 1.3-2.5 3 1.1 3 2.5 3 2.5-1.3 2.5-3zm30.5-10c0-1.9-1.6-3.5-3.5-3.5h-6c-1.9 0-3.5 1.6-3.5 3.5v20c0 1.9 1.6 3.5 3.5 3.5h6c1.9 0 3.5-1.6 3.5-3.5v-20zM71 236.5h-6c-1.4 0-2.5 1.1-2.5 2.5v20c0 1.4 1.1 2.5 2.5 2.5h6c1.4 0 2.5-1.1 2.5-2.5v-20c0-1.4-1.1-2.5-2.5-2.5z" fill="#fff"/></svg>