<svg version="1.1" xmlns="http://www.w3.org/2000/svg" x="0" y="0" viewBox="0 0 512 512" xml:space="preserve"><path d="M68.5 412c-27.61 0-50 22.39-50 50s22.39 50 50 50 50-22.39 50-50-22.39-50-50-50zm375 0c-27.61 0-50 22.39-50 50s22.39 50 50 50 50-22.39 50-50-22.39-50-50-50zm-58 50c0 5.55.8 10.91 2.26 16H167.7c-4.96 0-9.64-2.3-12.66-6.22l-14.93-19.33c-2.03-2.63-.16-6.44 3.17-6.44h7.46l-49.35-63.45-6.82 27.66a57.675 57.675 0 0 0-25.36-6.19l22.63-91.72a4.021 4.021 0 0 1 4.86-2.94l1.95.48 67.54-273.74c1.06-4.31-1.57-8.66-5.87-9.72l-37.22-9.18c-.27.35-.64.63-1.1.74l-28 7c-.18.03-.34.05-.5.05a2.004 2.004 0 0 1-.48-3.95l22.71-5.68-6.55-1.62a4.015 4.015 0 0 1-2.93-4.84l1.45-5.88c.53-2.14 2.7-3.45 4.84-2.93l64.79 15.99c4.31 1.06 6.94 5.42 5.87 9.72L112.29 313.2l1.95.48c2.15.53 3.47 2.71 2.94 4.86l-11.52 46.68L168.47 446h219.29a57.916 57.916 0 0 0-2.26 16z" fill="#fff"/></svg>