<svg xmlns="http://www.w3.org/2000/svg" viewBox="0 0 512 512" xml:space="preserve"><path d="M511.5 227h-18.9c-1.1 0-2.3.1-3.4.4l-10.3 2.2 20.8-97.4c.1-.6-.3-1.2-1-1.2h-6.6c-5.1 0-10 2.5-13 6.6L427 210l-51.6 21H324l10.1-17.5c.4-.7-.1-1.5-.9-1.5h-3.4c-1.2 0-2.3.5-3.1 1.5L312.6 231H105c-46.3.1-72.5 6.3-85.2 15.6 0 0-.1 0-.1.1l-1.5 1.2-.3.3c-.5.4-1 .8-1.4 1.3C6.5 253.4 0 259.3 0 263c0 6 24 18 39 18h12.5v4.3c-1.5.6-2.5 2-2.5 3.7 0 2.2 1.8 4 4 4s4-1.8 4-4c0-1.7-1-3.1-2.5-3.7V281h114.4l-.1 2.5c0 1 .7 1.8 1.6 2 3.4.6 11.6 2 19.3 2.2 7.5.2 15.1-.8 18.4-1.3 1-.1 1.7-1 1.7-1.9v-.1l9.3-1.2c1-.1 1.7-.9 1.7-1.9v-.3H253v3.3c-1.7.6-3 2.3-3 4.2 0 2.5 2 4.5 4.5 4.5s4.5-2 4.5-4.5c0-2-1.3-3.6-3-4.2V281h78c54.5 0 106.8-11.3 155.6-32.1 1.5-.6 2.4-2.1 2.4-3.7v-9.3l19.7-7.9c.5-.3.3-1-.2-1z" fill="#fff"/></svg>