<svg version="1.1" xmlns="http://www.w3.org/2000/svg" x="0" y="0" viewBox="0 0 512 512" xml:space="preserve"><path d="M156.7 302v2c-.1 3.3-.5 6.6-1.1 9.7-.7 3.2-1.7 6.3-3 9.3-1.3 3-2.9 5.8-4.8 8.5-1.5 2.1-3.1 4.1-4.9 6l-1.4 1.4c-1.9 1.8-3.9 3.4-6 4.9-3.2 2.2-6.7 4.1-10.3 5.5-2.4.9-4.9 1.7-7.4 2.3-3.1.7-6.4 1.1-9.7 1.1h-2c-3.3-.1-6.6-.5-9.7-1.1-2.6-.6-5-1.3-7.4-2.3-3.7-1.4-7.1-3.3-10.3-5.5-2.1-1.5-4.1-3.1-6-4.9l-1.4-1.4c-1.8-1.9-3.4-3.9-4.9-6-1.9-2.7-3.5-5.5-4.8-8.5-1.3-3-2.3-6.1-3-9.3-.7-3.1-1.1-6.4-1.1-9.7v-2c.1-3.3.5-6.6 1.1-9.7.6-2.6 1.3-5 2.3-7.4 1.2-3.1 2.7-6 4.4-8.7 1.8-2.7 3.8-5.3 6-7.7l1.4-1.4c2.3-2.3 4.9-4.3 7.7-6 4.9-3.1 10.3-5.4 16.1-6.7 3.1-.7 6.4-1.1 9.7-1.1h2c3.3.1 6.6.5 9.7 1.1 5.8 1.3 11.3 3.6 16.1 6.7 2.7 1.8 5.3 3.8 7.7 6l1.4 1.4c2.3 2.3 4.3 4.9 6 7.7 1.7 2.7 3.2 5.6 4.4 8.7.9 2.4 1.7 4.9 2.3 7.4.5 3.1.9 6.4.9 9.7zm200.9-9.7c-.6-2.6-1.3-5-2.3-7.4-1.2-3.1-2.7-6-4.4-8.7-1.8-2.7-3.8-5.3-6-7.7l-1.4-1.4c-2.3-2.3-4.9-4.3-7.7-6-4.9-3.1-10.3-5.4-16.1-6.7-3.1-.7-6.4-1.1-9.7-1.1h-2c-3.3.1-6.6.5-9.7 1.1-5.8 1.3-11.3 3.6-16.1 6.7-2.7 1.8-5.3 3.8-7.7 6l-1.4 1.4c-2.3 2.3-4.3 4.9-6 7.7-1.7 2.7-3.2 5.6-4.4 8.7-.9 2.4-1.7 4.9-2.3 7.4-.7 3.1-1.1 6.4-1.1 9.7v2c.1 3.3.5 6.6 1.1 9.7.7 3.2 1.7 6.3 3 9.3 1.3 3 2.9 5.8 4.8 8.5 1.5 2.1 3.1 4.1 4.9 6l1.4 1.4c1.9 1.8 3.9 3.4 6 4.9 3.2 2.2 6.7 4.1 10.3 5.5 2.4.9 4.9 1.7 7.4 2.3 3.1.7 6.4 1.1 9.7 1.1h2c3.3-.1 6.6-.5 9.7-1.1 2.6-.6 5-1.3 7.4-2.3 3.7-1.4 7.1-3.3 10.3-5.5 2.1-1.5 4.1-3.1 6-4.9l1.4-1.4c1.8-1.9 3.4-3.9 4.9-6 1.9-2.7 3.5-5.5 4.8-8.5 1.3-3 2.3-6.1 3-9.3.7-3.1 1.1-6.4 1.1-9.7v-2c.2-3.3-.2-6.6-.9-9.7zm-97.4-20.6c-2 3.2-3.8 6.6-5.2 10.1-.1.4-.3.7-.4 1.1h-16.9l-2.5 36.5c-.1.9-.8 1.5-1.7 1.5h-14.2c-.6 0-1.1-.3-1.4-.8l-14.4-23.4c-.3-.5-.8-.8-1.4-.8h-1.4c-.9 0-1.7-.7-1.7-1.7V290h-4l-4.1-12h-25.2l22.2 10.5c3 1.4 4.6 4.8 3.7 8l-3.9 14.1c-1.3 4.6-6.7 6.7-10.7 4l-12.1-7.8c.1-.9.1-1.8.1-2.7v-2.4c-.1-3.8-.5-7.6-1.3-11.3-.6-2.9-1.5-5.9-2.6-8.7-1.4-3.5-3.1-6.9-5.2-10.1-2-3.2-4.4-6.2-7-8.9-.5-.6-1.1-1.1-1.6-1.6-2.7-2.6-5.7-5-8.9-7-5.8-3.7-12.1-6.3-18.8-7.8-3.7-.8-7.5-1.3-11.3-1.3h-2.4c-3.8.1-7.6.5-11.3 1.3-.7.1-1.4.3-2 .5l-81.2-27.1-8.3-1.6-3.1-6.2 1.1-1.2h.1L23 186h251.9l39.1-27h164v5H346.7L326 186l-7 16-18 35 3 8.2c-2.5.2-5 .6-7.4 1.1-6.7 1.5-13 4.1-18.8 7.8-3.2 2-6.2 4.4-8.9 7-.6.5-1.1 1.1-1.6 1.6-2.7 2.9-5.1 5.9-7.1 9zM178 295c0 3.3 2.7 6 6 6s6-2.7 6-6-2.7-6-6-6-6 2.7-6 6zm334-2v30c0 .6-.4 1-1 1h-11c-.6 0-1-.4-1-1v-20l-91-1-37 10h-4.7c.4-2.6.6-5.2.7-7.8v-2.4c-.1-3.8-.5-7.6-1.3-11.3-.6-2.9-1.5-5.9-2.6-8.7-1.4-3.5-3.1-6.9-5.2-10.1-2-3.2-4.4-6.2-7-8.9-.5-.6-1.1-1.1-1.6-1.6-2.7-2.6-5.7-5-8.9-7-5.8-3.7-12.1-6.3-18.8-7.8-.5-.1-1-.2-1.4-.3V210h21.3c-.2-.5-.3-1.1-.3-1.7v-.2c0-1.3.7-2.4 1.9-3l2.1-1.1v-25h52v26h2v-22c0-1.7 1.3-3 3-3h22c1.7 0 3 1.3 3 3v22h1v-22c0-1.7 1.3-3 3-3h53c1.7 0 3 1.3 3 3v22h4v-19.1c0-1.1.6-2.2 1.6-2.7s2.2-.4 3.1.2l3 2.1c.8.6 1.3 1.5 1.3 2.4v104h11c.4.1.8.5.8 1.1zm-87-98.5h-24V205h24v-10.5zm0-11.5c0-.6-.4-1-1-1h-22c-.6 0-1 .4-1 1v9.5h24V183zm23.3 11.5H430V205h18.3v-10.5zm0-12.5H431c-.6 0-1 .4-1 1v9.5h18.3V182zm19.5 12.5h-17.5V205h17.5v-10.5zm0-12.5h-17.5v10.5h17.5V182zm17.2 12.5h-15.3V205H485v-10.5zm0-11.5c0-.6-.4-1-1-1h-14.3v10.5H485V183zm13 5c0-.3-.2-.6-.4-.8l-3-2.1c-.3-.2-.7-.2-1-.1-.3.2-.5.5-.5.9V205h5v-17zm12 127h-9v4h9v-4zm0-9h-9v4h9v-4zm0-9h-9v4h9v-4zm-268.2-.5l3.9 14.1c.9 3.2 3.8 5.2 6.8 5.2 0-.1-.1-.3-.1-.4-.8-3.7-1.3-7.5-1.3-11.3v-3.5c-.6.2-1.2.3-1.8.3-3.3 0-6-2.7-6-6s2.7-6 6-6c1.2 0 2.3.4 3.3 1 .4-1.9.9-3.7 1.6-5.5l-8.6 4.1c-3.1 1.5-4.7 4.8-3.8 8z" opacity=".15" fill="#fff"/><path d="M156 294.3l-4.7.9c-.1-.7-.2-1.3-.4-2l4.7-.9c-.6-2.6-1.3-5-2.3-7.4l-4.4 1.8c-.2-.6-.5-1.2-.8-1.8l4.4-1.8c-1-2.4-2.3-4.7-3.7-6.8l-3.9 2.6c-.4-.6-.7-1.1-1.1-1.7l4-2.6c-1.5-2.1-3.1-4.1-4.9-6l-3.4 3.4c-.5-.5-.9-1-1.4-1.4l3.4-3.4c-1.9-1.8-3.9-3.4-6-4.9l-2.6 4c-.5-.4-1.1-.8-1.7-1.1l2.6-3.9c-2.2-1.4-4.5-2.6-6.8-3.7l-1.8 4.4c-.6-.3-1.2-.5-1.8-.8l1.8-4.4c-2.4-.9-4.9-1.7-7.4-2.3l-.9 4.7c-.6-.1-1.3-.3-2-.4l.9-4.7c-2.5-.4-5.1-.7-7.7-.8v4.8h-2v-4.8c-2.6.1-5.2.3-7.7.8l.9 4.7c-.7.1-1.3.2-2 .4l-.9-4.7c-2.6.6-5 1.3-7.4 2.3l1.8 4.4c-.6.2-1.2.5-1.8.8l-1.8-4.4c-2.4 1-4.7 2.3-6.8 3.7l2.6 3.9c-.6.4-1.1.7-1.7 1.1l-2.6-4c-2.1 1.5-4.1 3.1-6 4.9l3.4 3.4c-.5.5-1 .9-1.4 1.4l-3.4-3.4c-1.8 1.9-3.4 3.9-4.9 6l4 2.6c-.4.5-.8 1.1-1.1 1.7l-3.9-2.6c-1.4 2.2-2.6 4.5-3.7 6.8l4.4 1.8c-.3.6-.5 1.2-.8 1.8l-4.4-1.8c-.9 2.4-1.7 4.9-2.3 7.4l4.7.9c-.1.6-.3 1.3-.4 2l-4.7-.9c-.4 2.5-.7 5.1-.8 7.7H62v2h-4.8c.1 2.6.3 5.2.8 7.7l4.7-.9c.1.7.2 1.3.4 2l-4.7.9c.6 2.6 1.3 5 2.3 7.4l4.4-1.8c.2.6.5 1.2.8 1.8l-4.4 1.8c1 2.4 2.3 4.7 3.7 6.8l3.9-2.6c.4.6.7 1.1 1.1 1.7l-4 2.6c1.5 2.1 3.1 4.1 4.9 6l3.4-3.4c.5.5.9 1 1.4 1.4l-3.4 3.4c1.9 1.8 3.9 3.4 6 4.9l2.6-4c.5.4 1.1.8 1.7 1.1l-2.6 3.9c2.2 1.4 4.5 2.6 6.8 3.7l1.8-4.4c.6.3 1.2.5 1.8.8l-1.8 4.4c2.4.9 4.9 1.7 7.4 2.3l.9-4.7c.6.1 1.3.3 2 .4l-.9 4.7c2.5.4 5.1.7 7.7.8V348h2v4.8c2.6-.1 5.2-.3 7.7-.8l-.9-4.7c.7-.1 1.3-.2 2-.4l.9 4.7c2.6-.6 5-1.3 7.4-2.3l-1.8-4.4c.6-.2 1.2-.5 1.8-.8l1.8 4.4c2.4-1 4.7-2.3 6.8-3.7l-2.6-3.9c.6-.4 1.1-.7 1.7-1.1l2.6 4c2.1-1.5 4.1-3.1 6-4.9l-3.4-3.4c.5-.5 1-.9 1.4-1.4l3.4 3.4c1.8-1.9 3.4-3.9 4.9-6l-4-2.6c.4-.5.8-1.1 1.1-1.7l3.9 2.6c1.4-2.2 2.6-4.5 3.7-6.8l-4.4-1.8c.3-.6.5-1.2.8-1.8l4.4 1.8c.9-2.4 1.7-4.9 2.3-7.4l-4.7-.9c.1-.6.3-1.3.4-2l4.7.9c.4-2.5.7-5.1.8-7.7H152v-2h4.8c-.1-2.7-.4-5.3-.8-7.8zM107 329c-13.8 0-25-11.2-25-25s11.2-25 25-25 25 11.2 25 25-11.2 25-25 25zm7-25.5c0 3.6-2.9 6.5-6.5 6.5s-6.5-2.9-6.5-6.5 2.9-6.5 6.5-6.5 6.5 2.9 6.5 6.5zm-6.5-16.5c-9.1 0-16.5 7.4-16.5 16.5s7.4 16.5 16.5 16.5 16.5-7.4 16.5-16.5-7.4-16.5-16.5-16.5zm0 31c-8 0-14.5-6.5-14.5-14.5s6.5-14.5 14.5-14.5 14.5 6.5 14.5 14.5-6.5 14.5-14.5 14.5zm0-37C95.1 281 85 291.1 85 303.5S95.1 326 107.5 326s22.5-10.1 22.5-22.5-10.1-22.5-22.5-22.5zm0 43c-11.3 0-20.5-9.2-20.5-20.5s9.2-20.5 20.5-20.5 20.5 9.2 20.5 20.5-9.2 20.5-20.5 20.5zM358 294.3l-4.7.9c-.1-.7-.2-1.3-.4-2l4.7-.9c-.6-2.6-1.3-5-2.3-7.4l-4.4 1.8c-.2-.6-.5-1.2-.8-1.8l4.4-1.8c-1-2.4-2.3-4.7-3.7-6.8l-3.9 2.6c-.4-.6-.7-1.1-1.1-1.7l4-2.6c-1.5-2.1-3.1-4.1-4.9-6l-3.4 3.4c-.5-.5-.9-1-1.4-1.4l3.4-3.4c-1.9-1.8-3.9-3.4-6-4.9l-2.6 4c-.5-.4-1.1-.8-1.7-1.1l2.6-3.9c-2.2-1.4-4.5-2.6-6.8-3.7l-1.8 4.4c-.6-.3-1.2-.5-1.8-.8l1.8-4.4c-2.4-.9-4.9-1.7-7.4-2.3l-.9 4.7c-.6-.1-1.3-.3-2-.4l.9-4.7c-2.5-.4-5.1-.7-7.7-.8v4.8h-2v-4.8c-2.6.1-5.2.3-7.7.8l.9 4.7c-.7.1-1.3.2-2 .4l-.9-4.7c-2.6.6-5 1.3-7.4 2.3l1.8 4.4c-.6.2-1.2.5-1.8.8l-1.8-4.4c-2.4 1-4.7 2.3-6.8 3.7l2.6 3.9c-.6.4-1.1.7-1.7 1.1l-2.6-4c-2.1 1.5-4.1 3.1-6 4.9l3.4 3.4c-.5.5-1 .9-1.4 1.4l-3.4-3.4c-1.8 1.9-3.4 3.9-4.9 6l4 2.6c-.4.5-.8 1.1-1.1 1.7l-3.9-2.6c-1.4 2.2-2.6 4.5-3.7 6.8l4.4 1.8c-.3.6-.5 1.2-.8 1.8l-4.4-1.8c-.9 2.4-1.7 4.9-2.3 7.4l4.7.9c-.1.6-.3 1.3-.4 2l-4.7-.9c-.4 2.5-.7 5.1-.8 7.7h4.8v2h-4.8c.1 2.6.3 5.2.8 7.7l4.7-.9c.1.7.2 1.3.4 2l-4.7.9c.6 2.6 1.3 5 2.3 7.4l4.4-1.8c.2.6.5 1.2.8 1.8l-4.4 1.8c1 2.4 2.3 4.7 3.7 6.8l3.9-2.6c.4.6.7 1.1 1.1 1.7l-4 2.6c1.5 2.1 3.1 4.1 4.9 6l3.4-3.4c.5.5.9 1 1.4 1.4l-3.4 3.4c1.9 1.8 3.9 3.4 6 4.9l2.6-4c.5.4 1.1.8 1.7 1.1l-2.6 3.9c2.2 1.4 4.5 2.6 6.8 3.7l1.8-4.4c.6.3 1.2.5 1.8.8l-1.8 4.4c2.4.9 4.9 1.7 7.4 2.3l.9-4.7c.6.1 1.3.3 2 .4l-.9 4.7c2.5.4 5.1.7 7.7.8V348h2v4.8c2.6-.1 5.2-.3 7.7-.8l-.9-4.7c.7-.1 1.3-.2 2-.4l.9 4.7c2.6-.6 5-1.3 7.4-2.3l-1.8-4.4c.6-.2 1.2-.5 1.8-.8l1.8 4.4c2.4-1 4.7-2.3 6.8-3.7l-2.6-3.9c.6-.4 1.1-.7 1.7-1.1l2.6 4c2.1-1.5 4.1-3.1 6-4.9l-3.4-3.4c.5-.5 1-.9 1.4-1.4l3.4 3.4c1.8-1.9 3.4-3.9 4.9-6l-4-2.6c.4-.5.8-1.1 1.1-1.7l3.9 2.6c1.4-2.2 2.6-4.5 3.7-6.8l-4.4-1.8c.3-.6.5-1.2.8-1.8l4.4 1.8c.9-2.4 1.7-4.9 2.3-7.4l-4.7-.9c.1-.6.3-1.3.4-2l4.7.9c.4-2.5.7-5.1.8-7.7H354v-2h4.8c-.1-2.7-.4-5.3-.8-7.8zM309 329c-13.8 0-25-11.2-25-25s11.2-25 25-25 25 11.2 25 25-11.2 25-25 25zm7-25.5c0 3.6-2.9 6.5-6.5 6.5s-6.5-2.9-6.5-6.5 2.9-6.5 6.5-6.5 6.5 2.9 6.5 6.5zm-6.5-16.5c-9.1 0-16.5 7.4-16.5 16.5s7.4 16.5 16.5 16.5 16.5-7.4 16.5-16.5-7.4-16.5-16.5-16.5zm0 31c-8 0-14.5-6.5-14.5-14.5s6.5-14.5 14.5-14.5 14.5 6.5 14.5 14.5-6.5 14.5-14.5 14.5zm0-37c-12.4 0-22.5 10.1-22.5 22.5s10.1 22.5 22.5 22.5 22.5-10.1 22.5-22.5-10.1-22.5-22.5-22.5zm0 43c-11.3 0-20.5-9.2-20.5-20.5s9.2-20.5 20.5-20.5 20.5 9.2 20.5 20.5-9.2 20.5-20.5 20.5zm-42.3-61.2c.5-.6 1.1-1.1 1.6-1.6 2.7-2.6 5.7-5 8.9-7 5.8-3.7 12.1-6.3 18.8-7.8 2.4-.5 4.9-.9 7.4-1.1l-3-8.2 18-35 7-16 20.7-22H478v-5H314l-39.1 27H23L1.1 210.8H1l-1 1.1 3.1 6.2 8.3 1.6 81.2 27.1c.7-.2 1.3-.3 2-.5 3.7-.8 7.5-1.3 11.3-1.3h2.4c3.8.1 7.6.5 11.3 1.3 6.7 1.5 13 4.1 18.8 7.8 3.2 2 6.2 4.4 8.9 7 .6.5 1.1 1.1 1.6 1.6 2.6 2.7 5 5.7 7 8.9s3.8 6.6 5.2 10.1c1.1 2.8 2 5.7 2.6 8.7.8 3.7 1.3 7.5 1.3 11.3v2.4c0 .9-.1 1.8-.1 2.7l12.1 7.8c4 2.6 9.4.6 10.7-4l3.9-14.1c.9-3.2-.7-6.6-3.7-8L165.6 278h25.2l4.1 12h4v4.3c0 .9.7 1.7 1.7 1.7h1.4c.6 0 1.1.3 1.4.8l14.4 23.4c.3.5.8.8 1.4.8h14.2c.9 0 1.6-.7 1.7-1.5l2.5-36.5h16.9c.1-.4.3-.8.4-1.1 1.4-3.5 3.1-6.9 5.2-10.1 2.1-3.2 4.5-6.2 7.1-9zM184 289c3.3 0 6 2.7 6 6s-2.7 6-6 6-6-2.7-6-6 2.7-6 6-6zm327 3h-11V188c0-1-.5-1.9-1.3-2.4l-3-2.1c-.9-.7-2.1-.7-3.1-.2-1 .5-1.6 1.5-1.6 2.7v19h-4v-22c0-1.7-1.3-3-3-3h-53c-1.7 0-3 1.3-3 3v22h-1v-22c0-1.7-1.3-3-3-3h-22c-1.7 0-3 1.3-3 3v22h-2v-26h-52v25l-2.1 1.1c-1.1.6-1.9 1.7-1.9 3v.2c0 .6.1 1.2.3 1.7H320v36.1c.5.1 1 .2 1.4.3 6.7 1.5 13 4.1 18.8 7.8 3.2 2 6.2 4.4 8.9 7 .6.5 1.1 1.1 1.6 1.6 2.6 2.7 5 5.7 7 8.9s3.8 6.6 5.2 10.1c1.1 2.8 2 5.7 2.6 8.7.8 3.7 1.3 7.5 1.3 11.3v2.4c-.1 2.6-.3 5.3-.7 7.8h4.7l37-10 91 1v20c0 .6.4 1 1 1h11c.6 0 1-.4 1-1v-30c.2-.6-.2-1-.8-1zm-142-88h-19v-16h19v16zm81.3-22h17.5v10.5h-17.5V182zm0 12.5h17.5V205h-17.5v-10.5zM430 183c0-.6.4-1 1-1h17.3v10.5H430V183zm0 11.5h18.3V205H430v-10.5zM401 183c0-.6.4-1 1-1h22c.6 0 1 .4 1 1v9.5h-24V183zm0 11.5h24V205h-24v-10.5zm-28-6.5h19v16h-19v-16zm112 104h-67.5l-12-18H485v18zm0-25h-83.4l-10-18H485v18zm0-26h-97.9l-10-18H485v18zm0-36h-15.3v-10.5H485V205zm0-12.5h-15.3V182H484c.6 0 1 .4 1 1v9.5zm13 12.5h-5v-19.1c0-.4.2-.7.5-.9.3-.2.7-.1 1 .1l3 2.1c.3.2.4.5.4.8v17zm12 114h-9v-4h9v4zm0-9h-9v-4h9v4zm0-9h-9v-4h9v4zm-264.5-12.5l8.6-4.1c-.6 1.8-1.1 3.7-1.6 5.5-.9-.6-2.1-1-3.3-1-3.3 0-6 2.7-6 6s2.7 6 6 6c.6 0 1.3-.1 1.8-.3v3.5c.1 3.8.5 7.6 1.3 11.3 0 .1.1.3.1.4-3 0-5.9-2-6.8-5.2l-3.9-14.1c-.8-3.2.8-6.5 3.8-8z" fill="#fff"/></svg>