<svg version="1.1" xmlns="http://www.w3.org/2000/svg" x="0" y="0" viewBox="0 0 512 512" xml:space="preserve"><path d="M275.6 480c-2.1-4.1-3.7-8.5-4.7-13-.2-.9-.4-1.9-.5-2.8v-.1c-.1-.9-.3-1.9-.4-2.8v-.2c-.1-.9-.2-1.8-.2-2.8v-3l3.8-128.3 1.4-48-1.6-201.3c-.3-27.3-7.6-54.1-21.4-77.7l-5.9 26.2c-6 26.5-9.1 53.6-9.1 80.7V279l1.4 48 3.5 118 .3 8.9v3.3c0 1.1-.1 2.2-.2 3.3-.2 2.2-.5 4.4-1 6.5-.9 4.4-2.4 8.7-4.6 12.7-1.7 3.2-2.6 6.9-2.6 10.8.2 11.3 9.3 20.8 20.6 21.5 12.8.8 23.4-9.3 23.4-22 .2-3.6-.7-7-2.2-10z" opacity=".1" fill="#fff"/><path d="M275 279h-38V106.9c0-27.2 3-54.2 9.1-80.7L252 0c13.8 23.6 21.1 50.4 21.3 77.7L275 279zm-.2 8h-37.5l1 32h35.6l.9-32zm-3.9 180c-.2-.9-.4-1.9-.5-2.8v-.1c-.1-.9-.3-1.9-.4-2.8v-.2c-.1-.9-.2-1.8-.2-2.8v-3l3.8-128.3h-35.1l3.5 118 .3 8.9v3.3c0 1.1-.1 2.2-.2 3.3-.2 2.2-.5 4.4-1 6.5-.9 4.4-2.4 8.7-4.6 12.7-1.7 3.2-2.6 6.9-2.6 10.8.2 11.3 9.3 20.8 20.6 21.5 12.8.8 23.4-9.3 23.4-22 0-3.6-.9-7-2.4-10-2-4.1-3.6-8.5-4.6-13z" fill="#fff"/></svg>