<svg xmlns="http://www.w3.org/2000/svg" viewBox="0 0 512 512" xml:space="preserve"><path d="M311.9 343.4c-1.7-1.1-4-.6-5.1 1.2-4.8 8-10.5 14.8-16.9 20.1L279.4 86.9c-.9-23.8-6.2-47.1-15.6-69L256 0l-7.8 18c-9.4 21.8-14.7 45.2-15.6 69l-10.5 277.7c-6.3-5.3-12.1-12-16.9-20.1-1-1.8-3.4-2.3-5.1-1.2-2.6 1.7-3.6 5.1-2.2 8 10.9 23.1 30.6 38.1 50.1 41.7v13.3c0 9.3-2.9 17.5-7.2 22.5 4.4 5 7.2 13.2 7.2 22.5 0 11.1-4.2 20.2-10 24.5h-3.9c0 1 .1 2 .2 3 1 .2 1.7 1.4 1.7 3 0 1.1-.4 2.1-1 2.6 2.7 16 11 27.4 21 27.4s18.3-11.4 21-27.4c-.6-.5-1-1.5-1-2.6 0-1.5.8-2.8 1.7-3 .1-1 .2-2 .2-3H274c-5.8-4.3-10-13.4-10-24.5 0-9.3 2.9-17.5 7.2-22.5-4.4-5-7.2-13.2-7.2-22.5v-13.3c19.5-3.6 39.2-18.7 50.1-41.7 1.3-2.8.4-6.2-2.2-8z" fill="#fff"/></svg>