<svg version="1.1" xmlns="http://www.w3.org/2000/svg" x="0" y="0" viewBox="0 0 512 512" xml:space="preserve"><path d="M339.7 472l-14.1-130-4.3-40-4.9-45-4.3-40-8.4-78H335c1.1 0 2-.9 2-2v-1c0-1.1-.9-2-2-2h-1.5v-30c0-1.4-1.1-2.5-2.5-2.5h-29V55h6c1.1 0 2-.9 2-2v-1c0-1.1-.9-2-2-2h-3.6c-8.3-16.6-24.9-28.4-44.4-29.9v-7.4c1.8-1.3 3-3.4 3-5.7 0-3.9-3.1-7-7-7s-7 3.1-7 7c0 2.4 1.2 4.5 3 5.7v7.4c-19.5 1.4-36.1 13.2-44.4 29.9H204c-1.1 0-2 .9-2 2v1c0 1.1.9 2 2 2h6v46.5h-29c-1.4 0-2.5 1.1-2.5 2.5v30H177c-1.1 0-2 .9-2 2v1c0 1.1.9 2 2 2h31.4l-8.4 78-4.3 40-4.9 45-4.3 40-14.1 130-4.3 40h176l-4.4-40zm-16.2-365.5h5V134h-5v-27.5zm-10 0h5V134h-5v-27.5zm-10 0h5V134h-5v-27.5zM218 55h76v46.5h-76V55zm70.5 51.5V134h-5v-27.5h5zm-10 0V134h-5v-27.5h5zm-10 0V134h-5v-27.5h5zm-10 0V134h-5v-27.5h5zm-10 0V134h-5v-27.5h5zm-10 0V134h-5v-27.5h5zm-10 0V134h-5v-27.5h5zm-40 27.5h-5v-27.5h5V134zm10 0h-5v-27.5h5V134zm5 0v-27.5h5V134h-5zm9.4 38h86.3l4.9 45h-96l4.8-45zm-9.3 85h104.7l4.9 45H198.8l4.8-45zm-9.2 85h123.1l4.9 45H189.6l4.8-45zm-14 130l4.9-45h141.5l4.9 45H180.4z"/></svg>