<svg version="1.1" xmlns="http://www.w3.org/2000/svg" x="0" y="0" viewBox="0 0 512 512" xml:space="preserve"><path d="M506.5 204 256 0 5.5 204l28.4 34.9L49 226.6v11.5h414v-11.5l15.1 12.3 28.4-34.9zm-156.2-69.2H161.7l2-1.6.6-.5h183.5l2.5 2.1zm-161.4-22.1 1.3-1H322l2.6 2.1H187.5l1.4-1.1zM216 90.6h80l2.6 2.1h-85.2l.3-.3 2.3-1.8zm56.7-19h-33.4l2.6-2.1h28.2l2.6 2.1zm-134.3 82.2h235.3l2.6 2.1H135.8l2.6-2.1zm-25.9 21.1h287l2.6 2.1H109.9l2.6-2.1zm-53 43.1 1.2-1h390.5l2.6 2.1H58.2l1.3-1.1zm-2 12.7c-1.1 0-2-.9-2-2s.9-2 2-2 2 .9 2 2-.9 2-2 2zm397 0c-1.1 0-2-.9-2-2s.9-2 2-2 2 .9 2 2-.9 2-2 2zM84 198.1l2.6-2.1h338.8l2.6 2.1H84zM49 385.6h139v-19H49v19zm8.5-11.9c1.1 0 2 .9 2 2s-.9 2-2 2-2-.9-2-2 .9-2 2-2zM49 448.8h139v-19H49v19zm8.5-12.1c1.1 0 2 .9 2 2s-.9 2-2 2-2-.9-2-2 .9-2 2-2zm-8.5-9h139v-19H49v19zm8.5-12c1.1 0 2 .9 2 2s-.9 2-2 2-2-.9-2-2 .9-2 2-2zM49 364.5h139v-19H49v19zm8.5-11.8c1.1 0 2 .9 2 2s-.9 2-2 2-2-.9-2-2 .9-2 2-2zM49 322.4h139v-19H49v19zm8.5-11.7c1.1 0 2 .9 2 2s-.9 2-2 2-2-.9-2-2 .9-2 2-2zm-8.5 96h139v-19H49v19zm8.5-12c1.1 0 2 .9 2 2s-.9 2-2 2-2-.9-2-2 .9-2 2-2zM49 301.3h139v-19H49v19zm8.5-11.6c1.1 0 2 .9 2 2s-.9 2-2 2-2-.9-2-2 .9-2 2-2zM49 343.4h139v-19H49v19zm8.5-11.7c1.1 0 2 .9 2 2s-.9 2-2 2-2-.9-2-2 .9-2 2-2zM324 343.4h139v-19H324v19zm130.5-11.7c1.1 0 2 .9 2 2s-.9 2-2 2-2-.9-2-2 .9-2 2-2zM324 284.6v16.7h139v-19H324v2.3zm130.5 5.1c1.1 0 2 .9 2 2s-.9 2-2 2-2-.9-2-2 .9-2 2-2zM324 322.4h139v-19H324v19zm130.5-11.7c1.1 0 2 .9 2 2s-.9 2-2 2-2-.9-2-2 .9-2 2-2zM324 364.5h139v-19H324v19zm130.5-11.8c1.1 0 2 .9 2 2s-.9 2-2 2-2-.9-2-2 .9-2 2-2zM49 259.2h414v-19H49v19zm405.5-11.5c1.1 0 2 .9 2 2s-.9 2-2 2-2-.9-2-2 .9-2 2-2zm-397 0c1.1 0 2 .9 2 2s-.9 2-2 2-2-.9-2-2 .9-2 2-2zM49 280.2h139V271h136v9.2h139v-19H49v19zm405.5-11.5c1.1 0 2 .9 2 2s-.9 2-2 2-2-.9-2-2 .9-2 2-2zm-397 0c1.1 0 2 .9 2 2s-.9 2-2 2-2-.9-2-2 .9-2 2-2zM324 385.6h139v-19H324v19zm130.5-11.9c1.1 0 2 .9 2 2s-.9 2-2 2-2-.9-2-2 .9-2 2-2zM49 490.9h139v-19H49v19zm8.5-12.2c1.1 0 2 .9 2 2s-.9 2-2 2-2-.9-2-2 .9-2 2-2zM324 512h139v-19H324v19zm130.5-12.3c1.1 0 2 .9 2 2s-.9 2-2 2-2-.9-2-2 .9-2 2-2zm-130.5-93h139v-19H324v19zm130.5-12c1.1 0 2 .9 2 2s-.9 2-2 2-2-.9-2-2 .9-2 2-2zM49 469.9h139v-19H49v19zm8.5-12.2c1.1 0 2 .9 2 2s-.9 2-2 2-2-.9-2-2 .9-2 2-2zM324 490.9h139v-19H324v19zm130.5-12.2c1.1 0 2 .9 2 2s-.9 2-2 2-2-.9-2-2 .9-2 2-2zM49 512h139v-19H49v19zm8.5-12.3c1.1 0 2 .9 2 2s-.9 2-2 2-2-.9-2-2 .9-2 2-2zm266.5-72h139v-19H324v19zm130.5-12c1.1 0 2 .9 2 2s-.9 2-2 2-2-.9-2-2 .9-2 2-2zM324 448.8h139v-19H324v19zm130.5-12.1c1.1 0 2 .9 2 2s-.9 2-2 2-2-.9-2-2 .9-2 2-2zM324 469.9h139v-19H324v19zm130.5-12.2c1.1 0 2 .9 2 2s-.9 2-2 2-2-.9-2-2 .9-2 2-2zm-158-92.8v18.8c0 2.1-1.7 3.8-3.8 3.8-2.1 0-3.8-1.7-3.8-3.8v-18.8c0-2.1 1.7-3.8 3.8-3.8 2.1 0 3.8 1.7 3.8 3.8z"/></svg>