<svg version="1.1" xmlns="http://www.w3.org/2000/svg" x="0" y="0" viewBox="0 0 512 512" xml:space="preserve"><path d="M475 192.2H37L0 165.5v179.7l37-4h37.3v5.3h363.6v-5.3H475l37 4V165.5l-37 26.7zm-405.5 128h-27v-23h27v23zm0-40h-27v-23h27v23zm0-40h-27v-23h27v23zm0-33h-27v-8h27v8zm300.3-8h27v8h-27v-8zm0 18h27v23h-27v-23zm0 40h27v23h-27v-23zm-36.4-58h27v8h-27v-8zm0 18h27v23h-27v-23zm0 40h27v23h-27v-23zm-181.8-58h27v8h-27v-8zm0 18h27v23h-27v-23zm0 40h27v23h-27v-23zm.7 34.2v8.2h-10.8v-8.2h10.8zm-37.1-92.2h27v8h-27v-8zm0 18h27v23h-27v-23zm0 40h27v23h-27v-23zm-9.3 63h-27v-23h27v23zm0-40h-27v-23h27v23zm0-40h-27v-23h27v23zm0-33h-27v-8h27v8zm38 127h-34v-33h34v33zm40 0h-34v-33h34v33zm31.1-14h-27v-23h27v23zm0-40h-27v-23h27v23zm0-40h-27v-23h27v23zm0-33h-27v-8h27v8zm36.3 113h-27v-23h27v23zm0-40h-27v-23h27v23zm0-40h-27v-23h27v23zm0-33h-27v-8h27v8zm36.4 113h-27v-23h27v23zm0-40h-27v-23h27v23zm0-40h-27v-23h27v23zm0-33h-27v-8h27v8zm36.3 113h-27v-23h27v23zm0-40h-27v-23h27v23zm0-40h-27v-23h27v23zm0-33h-27v-8h27v8zm38.1 127h-34v-33h34v33zm40 0h-34v-33h34v33zm31-14h-27v-23h27v23zm0-40h-27v-23h27v23zm0-40h-27v-23h27v23zm0-33h-27v-8h27v8zm36.4 113h-27v-23h27v23zm0-40h-27v-23h27v23zm0-40h-27v-23h27v23zm0-33h-27v-8h27v8zm-352.6 122h-5v-25h5v25zm25 0h-5v-25h5v25zm15 0h-5v-25h5v25zm25 0h-5v-25h5v25zm153.2 0h-5v-25h5v25zm25 0h-5v-25h5v25zm15 0h-5v-25h5v25zm25 0h-5v-25h5v25z"/></svg>