<svg version="1.1" xmlns="http://www.w3.org/2000/svg" x="0" y="0" viewBox="0 0 512 512" xml:space="preserve"><path d="M186.1 238.1h63.2v110.6h-63.2V238.1zm76.6 110.6h63.2V238.1h-63.2v110.6zM109.6 238.1v110.6h63.2V238.1h-63.2zm229.6 0v110.6h63.2V238.1h-63.2zm154.5-34.3-8.8 10.5-.1-.1-2.1 2.5c-.1.3-.3.6-.5.8l-.7.7-6.2 7.4-12.3-10.2v1.7h-41.6V216h-84.3v-17.9h105.3l-2.5-2.1H337.1v-7.4h-9.5c6.8 0 12.5-5 13.5-11.6h76.1l-2.5-2.1h-73.4c0-7.6-6.1-13.7-13.7-13.7-4.1 0-7.8 1.8-10.3 4.7-1.5-3.4-4.8-5.7-8.7-5.7-3.7 0-6.9 2.1-8.5 5.2-1.7-4.3-5.1-7.8-9.5-9.4h101.5l-2.5-2.1H266.9c-1.7-1.1-3.6-1.9-5.7-2.5 0-.2.1-.5.1-.7 0-2.9-2.4-5.3-5.3-5.3s-5.3 2.4-5.3 5.3c0 .2 0 .5.1.7-2 .5-3.9 1.4-5.7 2.5H122.3l-2.5 2.1h101.5c-4.4 1.6-7.8 5.1-9.5 9.4-1.6-3.1-4.8-5.2-8.5-5.2-3.9 0-7.2 2.3-8.7 5.7-2.5-2.8-6.2-4.7-10.3-4.7-7.6 0-13.7 6.1-13.7 13.7H97.2l-2.5 2.1h76.1c1 6.6 6.7 11.6 13.5 11.6h-9.5v7.4H72.1l-2.5 2.1h105.3V216H90.6v1.1H49v-1.7l-12.2 10.2-6.2-7.4c-.3-.2-.5-.4-.7-.7s-.4-.6-.5-.8l-2.1-2.5-.1.1-8.8-10.5L248.8 10.3l1.4-1.7.3.3.4-.3c-.4-.8-.7-1.8-.7-2.8 0-3.2 2.6-5.8 5.8-5.8s5.8 2.6 5.8 5.8c0 1-.3 1.9-.7 2.8l232.6 195.2zM222.8 69.5l-2.5 2.1h71.5l-2.5-2.1h-66.5zm-25.1 21.1-2.5 2.1h121.7l-2.5-2.1H197.7zm-25.1 21.1-2.5 2.1H342l-2.5-2.1H172.6zm194.5 23.1-2.5-2.1H147.4l-2.5 2.1h222.2zm-83.2 24.3c-2.6 0-4.7 2.1-4.7 4.7s2.1 4.7 4.7 4.7 4.7-2.1 4.7-4.7-2.1-4.7-4.7-4.7zm-4.1 15.8h3.6l-3.2-3.2-.4 3.2zm-51.7-15.8c-2.6 0-4.7 2.1-4.7 4.7s2.1 4.7 4.7 4.7 4.7-2.1 4.7-4.7-2.1-4.7-4.7-4.7zm51.1 21 6.3-3.2h-5.9l-.4 3.2zm-50.6-5.2h3.6l-.4-3.2-3.2 3.2zm69.4 3.6c-1 .8-2.3 1.1-3.6.9-1-.1-1.9-.7-2.4-1.4-.2-.3-.4-.6-.5-1h-2.2c.2.8.5 1.6 1 2.2.9 1.2 2.3 2.1 3.8 2.3.3 0 .7.1 1 .1 1.5 0 3-.5 4.2-1.4 1.1-.8 1.9-1.9 2.4-3.2h-2.3c-.4.6-.8 1.1-1.4 1.5zm-46.7-7.1c0 1.4.6 2.6 1.6 3.5h6.4c.9-.9 1.6-2.1 1.6-3.5 0-2.6-2.1-4.7-4.7-4.7s-4.9 2.1-4.9 4.7zm16.6-9.1c.8-.8.8-2.2 0-3-.8-.8-2.2-.8-3 0-.8.8-.8 2.2 0 3 .9.8 2.2.8 3 0zm.7 8.9c0 1.2.9 2.1 2.1 2.1s2.1-.9 2.1-2.1c0-1.2-.9-2.1-2.1-2.1s-2.1.9-2.1 2.1zm5.3-10.1zm53 16.2c.7.1 1.4-.1 2.1-.3h-3.4c.4.2.9.3 1.3.3zm-32.1-11.4c-.6-.1-1.1.3-1.2.9-.1.6.3 1.1.9 1.2 1.7.2 3.2 1.1 4.2 2.5.9 1.3 1.4 2.8 1.3 4.4h2.1c.1-2-.5-4-1.7-5.6-1.3-1.9-3.3-3-5.6-3.4zm-5.6 9h2.2c.4-1.3 1.7-2.2 3-2 .5.1 1 .4 1.3.8.3.4.4.8.4 1.2h2.1c0-2-1.5-3.8-3.5-4.1-1.3-.2-2.6.1-3.6.9-1.1.8-1.7 1.9-1.9 3.2zm-51.8-16.3c.3-.4.7-.6 1.2-.6s.9.2 1.2.6c.8-1 1.6-1.8 2.5-2.7h-9.6c1.8.7 3.3 1.6 4.7 2.7zm34.8 0c.3-.3.7-.6 1.2-.6s.9.2 1.2.6c1.4-1.1 2.9-2.1 4.6-2.7h-9.6c1 .8 1.8 1.7 2.6 2.7zm41.7 14.2h-6.3l2.1 2.1h3.8l.4-2.1zm16.4 2c-.4-.4-1-.5-1.5-.1-.1.1-.2.1-.3.2l1.8-.1c0 .1 0 .1 0 0zm-17.2 2.2h-1.3l1.1 1.1.2-1.1zm8 .4c-.4-.4-1-.5-1.5-.1s-.5 1-.1 1.5c1.6 1.9 3.8 3.1 6.3 3.3h.9c2.2 0 4.2-.7 5.9-2.2 1-.8 1.7-1.8 2.2-2.9h-2.4c-.3.5-.7.9-1.1 1.3-1.5 1.2-3.3 1.8-5.2 1.6-2.1-.2-3.8-1.1-5-2.5zm-100.2-5.7c-1-.8-2.3-1.1-3.6-.9-2.1.3-3.5 2.1-3.5 4.1h2.1c0-.4.1-.9.4-1.2.3-.4.8-.7 1.3-.8 1.4-.2 2.7.7 3 2h2.2c-.2-1.3-.8-2.4-1.9-3.2zm85.1 13.4 4.5-4.5-3.7-3.7h-1.6l-3.7 3.7 4.5 4.5zm-58.9-22.8c.8-.8.8-2.2 0-3-.8-.8-2.2-.8-3 0-.8.8-.8 2.2 0 3 .8.8 2.1.8 3 0zm72.1 25.2-7.4-4.2-2.1 4.2h9.5zm16-12.6v-.2c.2-2-.4-4-1.7-5.6-1.1-1.3-2.6-2.1-4.3-2.2-1.7-.2-3.3.4-4.6 1.4-1.1.9-1.7 2.2-1.9 3.6-.1 1 .1 2.1.6 3h2.8c-.2-.1-.4-.3-.6-.5-.5-.6-.8-1.5-.7-2.3.1-.8.5-1.6 1.1-2.1.9-.7 2-1.1 3.1-1 1.1.1 2.1.6 2.9 1.5.9 1.1 1.4 2.6 1.3 4 0 .1 0 .2-.1.3h2.1zm-48.5 5.6c-1.2.2-2.2.8-2.9 1.7-.6.8-.9 1.8-.7 2.8.1 1 .7 1.9 1.5 2.5.5.4 1.1.3 1.5-.2.3-.5.3-1.1-.2-1.5-.4-.3-.6-.6-.6-1.1-.1-.4 0-.9.3-1.2.4-.5.9-.8 1.5-.9.6-.1 1.2.1 1.7.4.7.5 1.1 1.2 1.2 2.1.1.8-.1 1.7-.6 2.3-.3.4-.7.8-1.1 1.2h2.9c.8-1.1 1.1-2.4.9-3.8-.2-1.4-.9-2.6-2.1-3.5-.9-.7-2.1-1-3.3-.8zm-21.8 2.6c.8.8 2.2.8 3 0 .8-.8.8-2.2 0-3-.8-.8-2.2-.8-3 0-.8.9-.8 2.2 0 3zm44.8-14.6c-1.1.3-2.2.2-3.2-.3s-1.7-1.4-2.1-2.5c-.2-.6-.8-.9-1.3-.7-.6.2-.9.8-.7 1.3.9 2.7 3.3 4.4 6 4.4.6 0 1.3-.1 1.9-.3 1.3-.4 2.4-1.3 3.1-2.6.6-1.2.8-2.7.3-4-.2-.6-.8-.9-1.3-.7-.6.2-.9.8-.7 1.3.3.8.2 1.7-.2 2.4-.3.9-1 1.5-1.8 1.7zm-30.5 19-4.2-3.2-2.1 3.2h6.3zm-25.3-1.6c0 1.2.9 2.1 2.1 2.1s2.1-.9 2.1-2.1c0-1.2-.9-2.1-2.1-2.1s-2.1 1-2.1 2.1zm5.3-35.2c0-1.7-1.4-3.2-3.2-3.2s-3.2 1.4-3.2 3.2c0 1.7 1.4 3.2 3.2 3.2s3.2-1.5 3.2-3.2zm-69.9 21.2c-.1-1.4-.8-2.7-1.9-3.6-1.3-1.1-2.9-1.6-4.6-1.4-1.7.2-3.2 1-4.3 2.2-1.3 1.6-1.9 3.5-1.7 5.6v.2h2.1c0-.1-.1-.2-.1-.3-.1-1.5.3-2.9 1.3-4 .7-.9 1.7-1.4 2.9-1.5 1.1-.1 2.2.2 3.1 1 .6.5 1 1.3 1.1 2.1.1.8-.2 1.7-.7 2.3-.2.2-.3.3-.6.5h2.8c.5-1 .7-2 .6-3.1zm27.9-6c-2.2.3-4.2 1.5-5.6 3.3-1.2 1.6-1.8 3.6-1.7 5.6h2.1c-.1-1.6.3-3.1 1.3-4.4 1-1.4 2.5-2.3 4.2-2.5.6-.1 1-.6.9-1.2-.1-.4-.6-.8-1.2-.8zm-17.7-2.7c-.6-.2-1.1.1-1.3.7-.4 1.3-.3 2.8.3 4 .6 1.2 1.7 2.2 3.1 2.6.6.2 1.3.3 1.9.3 2.7 0 5.2-1.7 6-4.4.2-.6-.1-1.1-.7-1.3-.6-.2-1.1.1-1.3.7-.3 1.1-1.1 1.9-2.1 2.5-1 .5-2.1.6-3.2.3-.8-.3-1.5-.8-1.8-1.6-.4-.7-.5-1.6-.2-2.4.2-.6-.1-1.2-.7-1.4zm37.5 21.2-4.2 3.2h6.3l-2.1-3.2zm-36.8-7.4h-1.3l.2 1.1 1.1-1.1zm-15.1.3c.5 0 .9-.2 1.3-.3H183c.6.3 1.3.4 2.1.3zm17.2 10.2-2.1-4.2-7.4 4.2h9.5zm2.9-10.5-3.7 3.7 4.5 4.5 4.5-4.5-3.7-3.7h-1.6zm32.9-15.9zm6 22c.8.8 2.2.8 3 0 .8-.8.8-2.2 0-3-.8-.8-2.2-.8-3 0-.8.9-.8 2.2 0 3zm-5-11.9c0 1.2.9 2.1 2.1 2.1s2.1-.9 2.1-2.1c0-1.2-.9-2.1-2.1-2.1s-2.1.9-2.1 2.1zm-6.3 8.9-.4-3.2h-5.9l6.3 3.2zm-51.1-5.3c0 .1 0 .1 0 0h1.7c-.1-.1-.2-.1-.3-.2-.4-.3-1-.2-1.4.2zm38.2 10c-.2 1.4.1 2.7.9 3.8h2.9c-.4-.3-.8-.7-1.1-1.2-.5-.7-.7-1.5-.6-2.3.1-.8.6-1.6 1.2-2.1.5-.4 1.1-.5 1.7-.4.6.1 1.2.4 1.5.9.3.4.4.8.3 1.2-.1.4-.3.8-.6 1.1-.5.3-.6 1-.2 1.5.3.5 1 .6 1.5.2.8-.6 1.3-1.5 1.5-2.5.1-1-.1-2-.7-2.8-.7-.9-1.7-1.6-2.9-1.7-1.2-.2-2.3.1-3.3.8-1.2.9-1.9 2.1-2.1 3.5zm1.8-5.6c.5-.7.9-1.4 1-2.2h-2.2c-.1.3-.3.7-.5 1-.6.8-1.5 1.3-2.4 1.4-1.3.2-2.6-.1-3.6-.9-.5-.4-1-.9-1.3-1.5h-2.3c.5 1.3 1.3 2.4 2.4 3.2 1.2.9 2.7 1.4 4.2 1.4.3 0 .7 0 1-.1 1.4-.2 2.8-1 3.7-2.3zm-36.8 231.1c0-.6-.2-1.1-.5-1.6h-4.2c-.3.4-.5 1-.5 1.6 0 1.5 1.2 2.6 2.6 2.6 1.4.1 2.6-1.1 2.6-2.6zM49 512h414v-19H49v19zm0-42.1h414v-19H49v19zm0-21.1h414v-19H49v19zm140.6-42.1h132.7v-1.1H189.6v1.1zM49 490.9h414v-19H49v19zm361.9-105.3-1.1-1.1-1.6 1.1h2.7zm6.3 0h2.6l-1.6-1.1-1 1.1zm-84.8 24.7c0-.6-.2-1.1-.5-1.6h-4.2c-.3.4-.5 1-.5 1.6 0 1.5 1.2 2.6 2.6 2.6 1.4.1 2.6-1.1 2.6-2.6zM49 406.7h125.9v-19H99l-1.1 1.1-1.1-1.1H49v19zm45.8-21.1-1.1-1.1-1.6 1.1h2.7zm321.9-7.9c0-1.5-1.2-2.6-2.6-2.6-1.5 0-2.6 1.2-2.6 2.6 0 1.5 1.2 2.6 2.6 2.6 1.4 0 2.6-1.2 2.6-2.6zm4.7-118.5H463v-19h-41.6v19zm0 21H463v-19h-41.6v19zm0-42.1H463v-19h-41.6v19zm0 63.2H463v-19h-41.6v19zm-84.3 109.6c-.2 0-.3-.1-.5-.1-1.5 0-2.6 1.2-2.6 2.6 0 1.5 1.2 2.6 2.6 2.6.2 0 .4 0 .5-.1v3.2l-3.2-2.1-4.2 4.2-4.2-4.2-3.2 2.1v-3.2c.2 0 .3.1.5.1 1.5 0 2.6-1.2 2.6-2.6 0-1.5-1.2-2.6-2.6-2.6-.2 0-.4 0-.5.1v-2.2H189.6v2.2c-.2 0-.3-.1-.5-.1-1.5 0-2.6 1.2-2.6 2.6 0 1.5 1.2 2.6 2.6 2.6.2 0 .4 0 .5-.1v3.2l-3.2-2.1-4.2 4.2-4.2-4.2-3.2 2.1v-3.2c.2 0 .3.1.5.1 1.5 0 2.6-1.2 2.6-2.6 0-1.5-1.2-2.6-2.6-2.6-.2 0-.4 0-.5.1v-2.2H49v19h414v-19H337.1v2.2zm84.3-38v5.3c-.2 0-.3-.1-.5-.1-1.5 0-2.6 1.2-2.6 2.6 0 1.5 1.2 2.6 2.6 2.6.2 0 .4 0 .5-.1v2.2H463v-19h-41.6v6.5zm-7.4 15.8-1.1-1.1H337v19h126v-19h-47.9l-1.1 1.1zm7.4-66.3H463v-19h-41.6v19zm0 21H463v-19h-41.6v19zm0 21.1H463v-19h-41.6v19zm-320.3 21.1h2.6l-1.6-1.1-1 1.1zM90.6 219.1H49v19h41.6v-19zm246.5 166.5h69.5v-2.2c.2 0 .3.1.5.1 1.5 0 2.6-1.2 2.6-2.6 0-1.5-1.2-2.6-2.6-2.6-.2 0-.4 0-.5.1v-5.3h-69.5v12.5zM179.5 179.9c1.7 1.4 3.8 2.2 5.9 2.2h.9c2.5-.2 4.7-1.4 6.3-3.3.4-.4.3-1.1-.1-1.5s-1.1-.3-1.5.1c-1.2 1.5-3 2.4-4.9 2.6-1.9.2-3.8-.4-5.2-1.6-.4-.4-.8-.8-1.1-1.3h-2.4c.4 1 1.1 2 2.1 2.8zm-78.9 197.8c0-1.5-1.2-2.6-2.6-2.6-1.5 0-2.6 1.2-2.6 2.6 0 1.5 1.2 2.6 2.6 2.6 1.4 0 2.6-1.2 2.6-2.6zM49 385.6h41.6v-2.2c.2 0 .3.1.5.1 1.5 0 2.6-1.2 2.6-2.6 0-1.5-1.2-2.6-2.6-2.6-.2 0-.4 0-.5.1v-11.6H49v18.8zm0-126.4h41.6v-19H49v19zm155.4-86.4h-6.3l.4 2.1h3.8l2.1-2.1zm-99.1 205.5c-.2 0-.3-.1-.5-.1-1.5 0-2.6 1.2-2.6 2.6 0 1.5 1.2 2.6 2.6 2.6.2 0 .4 0 .5-.1v2.2h69.5v-12.6h-69.5v5.4zM49 364.5h41.6v-19H49v19zm0-21.1h41.6v-19H49v19zm0-42.1h41.6v-19H49v19zm0-21.1h41.6v-19H49v19zm0 42.2h41.6v-19H49v19z"/></svg>