<svg version="1.1" xmlns="http://www.w3.org/2000/svg" x="0" y="0" viewBox="0 0 512 512" xml:space="preserve"><path d="M101.3 497.5l13.9 1.5-.4 4-.4 4-13.9-1.5.4-4 .4-4zm12.2-115.3l-.4 4 7.5.8c-.6-2.7-1.1-5.4-1.4-8.2l-5.2-.5-.5 3.9zM102 491.6l-.4 4 13.9 1.5.4-4 .4-4-13.9-1.5-.4 4zm10.4-99.5l-.4 4 11.5 1.2c-1-2.7-1.8-5.5-2.5-8.3l-8.2-.9-.4 4zM99.9 511.5l-.1.5h14.1l.3-3-13.9-1.5-.4 4zm3.1-29.9l-.4 4 13.9 1.5.4-4 .4-4-13.9-1.5-.4 4zm3.1-29.8l-.4 4 13.9 1.5.4-4 .4-4-13.9-1.5-.4 4zm-1 9.9l-.4 4 13.9 1.5.4-4 .4-4-13.9-1.5-.4 4zm-1.1 10l-.4 4 13.9 1.5.4-4 .4-4-13.9-1.5-.4 4zm3.2-29.9l-.4 4 13.9 1.5.4-4 .4-4-13.9-1.5-.4 4zm284.3-54.9l7.5-.8-.5-3.9-.4-4-5.2.5c-.4 2.8-.8 5.5-1.4 8.2zm4.5-28.6l-1.4.1-.6 8.1 2.8-.3-.4-4-.4-3.9zm-2.5 15.7l-.3 2.7 4.7-.5-.4-4-.4-4-3.2.3-.4 5.5zm-279-1.7l-.4 4 4.7.5-.3-2.7-.4-5.5-3.2-.3-.4 4zm1.5-14l-.4 4-.4 4 2.8.3-.6-8.1-1.4-.2zm272.5 39l11.5-1.2-.4-4-.4-4-8.2.9c-.7 2.8-1.5 5.6-2.5 8.3zm22.6 104.2l-.4-4-13.9 1.5.4 4 .4 4 13.9-1.5-.4-4zm-6.3-59.7l-.4-4-13.9 1.5.4 4 .4 4 13.9-1.5-.4-4zm2.1 19.9l-.4-4-13.9 1.5.4 4 .4 4 13.9-1.5-.4-4zm-1-9.9l-.4-4-13.9 1.5.4 4 .4 4 13.9-1.5-.4-4zm-2.1-19.9l-.4-4-13.9 1.5.4 4 .4 4 13.9-1.5-.4-4zm5.2 49.7l-.4-4-13.9 1.5.4 4 .4 4 13.9-1.5-.4-4zm3.1 29.9l-.4-4-13.9 1.5.3 3h14.1l-.1-.5zm-2.1-19.9l-.4-4-13.9 1.5.4 4 .4 4 13.9-1.5-.4-4zm-7.3-69.6l-.4-4-13.9 1.5.4 4 .4 4 13.9-1.5-.4-4zm-294.5 9.9l-.4 4 13.9 1.5.4-4 .4-4-13.9-1.5-.4 4zM408 471.7l-.4-4-13.9 1.5.4 4 .4 4 13.9-1.5-.4-4zM110.3 412l-.4 4 13.9 1.5.4-4 .4-4-13.9-1.5-.4 4zm23.9 6.4l-8.4 93.5h20.1l6.6-73.3-6.1-5.8c-4.6-4.4-8.6-9.2-12.2-14.4zm267.5-6.4l-.4-4-13.9 1.5.4 4 .4 4 13.9-1.5-.4-4zm-292.4 10l-.4 4 13.9 1.5.4-4 .4-4-13.9-1.5-.4 4zm2.5-23.9l-.4 4-.4 4 13.9 1.5.4-4 .1-1.2c-.4-1-.8-2-1.1-3l-12.5-1.3zm160.3 92.1h-32.2c-21.7 0-42.2-8.3-57.9-23.2l-21-20.1V512h190v-65.2L330 467c-15.6 15-36.2 23.2-57.9 23.2zm128.5-88.1l-.4-4-12.5 1.3-1.2 3 .1 1.2.4 4 14-1.6-.4-3.9zm-35 30.7l-6.1 5.8 6.6 73.3h20.1l-8.4-93.6c-3.6 5.3-7.6 10.1-12.2 14.5zm-126.9-107l1.4 1c4.9 3.8 12 .3 12-5.9V266c0-.6-.8-.7-1.1-.2l-15.7 49.3c-1.2 3.9.1 8.2 3.4 10.7zm33.2 1l1.4-1c3.3-2.5 4.6-6.8 3.4-10.7L261 265.8c-.3-.5-1.1-.4-1.1.2v54.9c0 6.2 7 9.7 12 5.9zm-125.5-86.6c1.1 12.7 10.9 23 23.5 24.8 17.5 2.5 35.3-.6 51-8.7l3.4-1.7c11.1-5.8 15.9-19.2 10.9-30.7-2.4-5.6-7.6-9.5-13.6-10.3l-12.4-1.7c3.8 4.3 6.1 10 6.1 16.2 0 13.5-11 24.5-24.5 24.5s-24.5-11-24.5-24.5c0-8.6 4.4-16.1 11-20.5l-14.3-1.9c-10.1-1.4-19 7-18.1 17.2l1.5 17.3zm29.7-12.1c0-8.1 6.6-14.7 14.7-14.7s14.7 6.6 14.7 14.7-6.6 14.7-14.7 14.7-14.7-6.6-14.7-14.7zm7.1 0c0 4.2 3.4 7.6 7.6 7.6 4.2 0 7.6-3.4 7.6-7.6s-3.4-7.6-7.6-7.6-7.6 3.4-7.6 7.6zm104.6 26.5l3.4 1.7c15.7 8.1 33.5 11.1 51 8.7 12.6-1.8 22.4-12 23.5-24.8l1.5-17.3c.8-10.2-8-18.6-18.2-17.2l-14.3 1.9c6.6 4.4 11 11.9 11 20.5 0 13.5-11 24.5-24.5 24.5s-24.5-11-24.5-24.5c0-6.2 2.3-11.8 6.1-16.2l-12.4 1.7c-6 .8-11.2 4.7-13.6 10.3-5 11.5-.2 25 11 30.7zm18.7-26.5c0-8.1 6.6-14.7 14.7-14.7s14.7 6.6 14.7 14.7-6.6 14.7-14.7 14.7-14.7-6.6-14.7-14.7zm7.1 0c0 4.2 3.4 7.6 7.6 7.6s7.6-3.4 7.6-7.6-3.4-7.6-7.6-7.6-7.6 3.4-7.6 7.6zM238 341c-1.9 0-3.5 1.6-3.5 3.5s1.6 3.5 3.5 3.5 3.5-1.6 3.5-3.5-1.6-3.5-3.5-3.5zm36 0c-1.9 0-3.5 1.6-3.5 3.5s1.6 3.5 3.5 3.5 3.5-1.6 3.5-3.5-1.6-3.5-3.5-3.5zM137 223.6c-.6-6.7 1.7-13.4 6.2-18.3 4.5-5 10.9-7.8 17.6-7.8 1.1 0 2.1.1 3.3.3l14.4 1.9 31.9 4.3 12.2 1.6c8.4 1.1 15.9 6.3 19.6 13.9 7.5 15.6 1.1 34.3-14.1 42.2l-3.4 1.7c-8 4.1-16.5 7-25.2 8.7-2.1.4-4.2 1-6.2 1.8l-27.9 10.6c-1.6.6-3.3.9-5 .9-6.1 0-11.8-4-13.6-10.2l-4.8-16.5c-1.5-5.1-2.6-10.4-3.2-15.7-.2-.7-.2-1.4-.3-2.1l-1.5-17.3zm2.1 0l1.5 17.3c0 .6.1 1.2.2 2 .6 5.2 1.6 10.4 3.1 15.4l4.8 16.5c1.5 5.1 6.2 8.7 11.6 8.7 1.4 0 2.9-.3 4.3-.8l27.9-10.6c2.2-.9 4.4-1.5 6.5-1.9 8.6-1.7 16.9-4.5 24.6-8.5l3.4-1.7c14.2-7.4 20.2-25.1 13.2-39.6-3.3-6.9-10.1-11.7-18-12.8L210 206l-31.8-4.4-14.4-1.9c-1-.1-2-.2-3-.2-6.1 0-12 2.6-16 7.3-4.1 4.6-6.2 10.7-5.7 16.8zm130.8-4.2c3.7-7.7 11.2-12.8 19.6-13.9l12.2-1.6 31.9-4.3 14.4-1.9c1-.1 2.1-.2 3.2-.2 6.7 0 13.1 2.9 17.6 7.7 4.5 5 6.8 11.6 6.2 18.3l-1.5 17.3-.3 2.1c-.6 5.3-1.7 10.6-3.2 15.7l-4.8 16.5c-1.8 6.2-7.4 10.2-13.5 10.2-1.6 0-3.3-.3-5-.9l-27.9-10.6c-2-.8-4.1-1.4-6.2-1.8-8.8-1.7-17.3-4.6-25.2-8.7l-3.4-1.7c-15.2-7.9-21.6-26.6-14.1-42.2zm15.2 40.5l3.4 1.7c7.7 4 16 6.8 24.6 8.5 2.1.4 4.3 1.1 6.5 1.9l28 10.5c1.4.5 2.8.8 4.3.8 5.3 0 10.1-3.6 11.6-8.7l4.8-16.5c1.4-5 2.5-10.2 3.1-15.4.1-.8.2-1.4.2-2l1.5-17.3c.5-6.2-1.6-12.3-5.7-16.8-4.2-4.5-10.1-7.1-16.2-7.1-1 0-2 .1-2.9.3l-14.4 1.9L302 206l-12.1 1.5c-7.9 1.1-14.7 5.9-18 12.8-7 14.5-1.1 32.2 13.2 39.6zm-8.3 157.4l-10.1 27.9c-1.1 3.2-4.1 5.3-7.5 5.3h-6.5c-3.4 0-6.4-2.1-7.5-5.3l-10.1-27.9c-.9-2.6 1-5.4 3.8-5.4H273c2.8 0 4.7 2.8 3.8 5.4zm-2.2-2.6c-.2-.3-.7-.8-1.6-.8h-34.1c-.9 0-1.4.5-1.6.8-.4.6-.5 1.3-.3 1.9l10.1 27.9c.8 2.4 3.1 4 5.6 4h6.5c2.5 0 4.8-1.6 5.6-4l10.1-27.9c.2-.6.1-1.3-.3-1.9zm-37.5 18.1c1.9 5.2 1.6 11-.8 16l-1.2 2.5c-1.6 3.2-4.8 5.2-8.2 5.2-.7 0-1.4-.1-2.1-.3-3-.7-5.3-3.1-6-6.1-2-8.6-5.9-25.2-5.9-25.6l-1.5-16.1c-.2-2.1 1.6-3.7 3.5-3.7.8 0 1.5.3 2.2.8l14.1 12.1c.5.4.9 1 1.1 1.6.8 2.3 3 8.5 4.8 13.6zm-1.9.7l-1.9-5.5c-1.2-3.4-2.3-6.6-2.9-8.1-.1-.3-.3-.5-.5-.7L215.8 407c-.3-.2-.6-.3-.9-.3-.4 0-.9.2-1.2.5s-.4.6-.3 1l1.5 16.1c.2 1.1 2.6 11.4 4.4 18.9.6 2.4 1.1 4.6 1.5 6.5.5 2.3 2.3 4.1 4.5 4.6.6.1 1.1.2 1.7.2 2.7 0 5.2-1.5 6.4-4l1.2-2.5c2.1-4.6 2.3-9.8.6-14.5zm65.4-25.1l-1.5 16.1c0 .4-3.9 17-5.9 25.6-.7 3-3 5.4-6 6.1-.7.2-1.4.3-2.1.3-3.4 0-6.6-1.9-8.2-5.2l-1.2-2.5c-2.4-5-2.7-10.8-.8-16 1.8-5.1 4-11.3 4.8-13.6.2-.6.6-1.2 1.1-1.6l14.1-12.1c.7-.6 1.5-.8 2.2-.8 1.9 0 3.7 1.6 3.5 3.7zm-2-.2c0-.4-.1-.7-.3-1-.3-.3-.7-.5-1.2-.5-.3 0-.7.1-1 .4L282 419.2c-.2.1-.4.4-.5.7-.5 1.5-1.7 4.7-2.9 8.1l-1.9 5.5c-1.7 4.7-1.4 10 .7 14.5l1.2 2.5c1.2 2.5 3.7 4 6.4 4 .6 0 1.1-.1 1.6-.2 2.2-.5 4-2.3 4.5-4.6.4-1.9 1-4.1 1.5-6.5 1.8-7.5 4.2-17.8 4.4-18.9l1.6-16.1zM131.5 219c0-6.1-2.2-11-5-11s-5 4.9-5 11 2.2 11 5 11 5-4.9 5-11zm254 11c2.8 0 5-4.9 5-11s-2.2-11-5-11-5 4.9-5 11 2.2 11 5 11zm-267.9 25.6c-5.1-17.6-7.1-36.1-5.7-54.6.5-6.2 2.4-12.1 5.5-17.3v-51.8c0-.9.1-1.9.1-2.8v-.4c.7-14 3.5-27.5 8.2-40v.1C145 37 194.9 0 253.4 0h5.2c58.5 0 108.3 36.9 127.5 88.7.1.1.1.3.1.4s.1.2.1.4c5.3 14.5 8.2 30.2 8.2 46.5v47.4c3.2 5.3 5.2 11.3 5.7 17.6 1.4 18.7-.7 37.5-6 55.4-.2 3.9-.4 7.8-.7 11.7l-8.2 105.4c-.1 1.3-.2 2.5-.4 3.8-1.1 8.8-3.6 17.4-7.4 25.4-.5 1.1-1.1 2.3-1.7 3.4-2.4 4.4-5.1 8.7-8.3 12.6-2.4 3-4.9 5.8-7.7 8.4l-35.6 34.1c-.9.8-1.8 1.7-2.7 2.5-1.8 1.6-3.7 3.1-5.7 4.5-2.9 2.1-6 4-9.2 5.6-2.1 1.1-4.3 2.1-6.5 3-3.3 1.3-6.8 2.4-10.2 3.3-2.3.6-4.7 1-7.1 1.4-3.6.5-7.2.8-10.9.8h-32.1c-19.5 0-38.2-7.5-52.3-21l-35.6-34.1c-14.8-14.1-23.8-33.2-25.4-53.6l-8.2-105.4c-.3-4.3-.5-8.5-.7-12.6zm7.8-2.1l.3.9v1c.2 3.6.3 7.9.7 12l.1 1 18.5 34c3.7 6.8 10.8 11 18.5 11 3 0 5.9-.6 8.6-1.9l37.8-16.9c2.1-.9 4.2-1.4 6.5-1.4 8.8 0 15.9 7.1 15.9 15.9v25.2c0 7.5-3.9 16-8.4 23.2.6.2 1.1.5 1.6.9l1.4 1.1c.3-.2.6-.4.9-.5.9-.5 2-.7 3.1-.7 1.4 0 2.7.4 3.9 1.2h.2l2.6 2 .3-.3c1.5-1.4 3.4-2.2 5.4-2.2h2.6c3.9 0 7.5 1.7 10.1 4.6l.3.3.3-.3c2.6-3 6.1-4.6 10.1-4.6h2.5c2 0 4 .8 5.4 2.2l.3.3 2.6-2h.2c1.1-.8 2.5-1.2 3.9-1.2 1.1 0 2.1.3 3.1.7.3.2.6.3.9.5l1.4-1.1c.5-.4 1.1-.8 1.8-1-5.6-9-8.4-16.6-8.4-23.1V309c0-8.8 7.1-15.9 15.9-15.9 2.2 0 4.4.5 6.4 1.4l37.8 16.9c2.8 1.2 5.7 1.9 8.6 1.9 7.6 0 14.6-4.1 18.3-10.7l18.3-32.5.2-2.6c.3-3.9.5-7.9.7-11.4v-1l.3-.9c5.1-17.1 7-34.8 5.7-52.5-.6-7.4-3.8-14.4-9.1-19.9l-2.8-2.8c-7.5-7.5-17.8-11.7-28.4-11.7-3.1 0-6.2.4-9.2 1.1l-55.5 13.2c-10.2 2.4-20.7 3.7-31.2 3.7s-21-1.2-31.3-3.7l-55.5-13.2c-3-.7-6.1-1.1-9.3-1.1-10.5 0-20.9 4.3-28.3 11.8l-2.8 2.8c-5.3 5.3-8.5 12.3-9.1 19.8-1.5 17.4.3 34.9 5.3 51.8zm252 119.4l1.7-21.5-1.2-1.7c-3.2 23.3-13.6 45.4-29.6 62.5l-21.9 23.4c-2.7 2.8-6.3 4.4-10.2 4.4-4 0-7.8-1.7-10.5-4.6s-3.9-6.7-3.6-10.7l2.7-28.9c.2-2.5-.1-5.1-1-7.4l-3.2 1.6c-.1 0-.1.1-.2.1l-3.5 2.4c-.7.5-1.5.8-2.4 1-.7.6-1.5 1.1-2.4 1.5l-4.7 1.6c-.5.2-1 .3-1.5.3-.5.4-1.2.7-1.8.9l-6.2 2.1h-.2c-.5.1-1 .2-1.6.2h-.2c-.7.3-1.5.5-2.3.5h-5.9c-.6 0-1.2-.1-1.8-.3-.6.2-1.2.3-1.9.3h-6c-.7 0-1.4-.1-2-.3-.6.2-1.3.3-2 .3h-5.9c-.6 0-1.3-.1-1.9-.3-.6.2-1.2.3-1.8.3h-5.9c-.8 0-1.6-.2-2.3-.5h-.2c-.5 0-1.1-.1-1.6-.2h-.2l-6.2-2.1c-.6-.2-1.2-.5-1.8-.8-.5 0-1-.1-1.6-.3l-4.7-1.6c-.9-.3-1.7-.8-2.4-1.5-.9-.1-1.7-.5-2.4-1l-3.5-2.3c-.1-.1-.2-.2-.4-.3l-2.9-1.4c-.9 2.3-1.3 4.9-1.1 7.4l2.7 28.8c.3 4-.9 7.8-3.6 10.8-2.7 2.9-6.5 4.6-10.5 4.6-3.9 0-7.6-1.6-10.3-4.6l-21.9-23.4c-16.1-17.2-26.6-39.3-29.7-62.5l-1.2 1.7 1.7 21.5c1.5 18.5 9.6 35.7 22.9 48.4l35.6 34.1c12.6 12.1 29.3 18.8 46.8 18.8h32.4c17.5 0 34.1-6.7 46.8-18.8l35.6-34.1c13.3-12.7 21.5-29.9 22.9-48.4zm-239.5-66.7l3.6 38.2c2.2 23.3 12.1 45.2 28.1 62.3L182 420l-1.4-5.6 11.3-2.9 5.3 20.4c2.8-.6 5.1-3.1 4.8-6.5l-2.7-28.9c-.3-4.3.4-8.6 2.2-12.5-1.5-1.4-2.4-3.3-2.4-5.4V377c0-1.5.5-2.9 1.4-4-.9-1.3-1.4-2.9-1.4-4.6v-4.6c0-2.1 1-4.1 2.8-5.3 1.2-.9 2.6-1.3 4.1-1.3.7 0 1.5.1 2.2.4l.3.1.2.1.9.4 1.2-.9c1-.5 2-.8 3.1-.8.3 0 .7 0 1 .1 4.6-6.8 9.3-15.5 9.3-22.2v-25.2c0-1.3-.3-2.5-.9-3.6l-29.2 60-9.4 26.8 4.5 17.7-7 1.8-14.4-56.2 7-1.8 3.7 14.3 10.8-9.2 28.1-57.8c-.4-.1-.7-.1-1.1-.1-1.1 0-2.1.2-3.2.7l-37.8 16.9c-2.2 1-4.4 1.6-6.6 2.1l7.8 30.5-11.3 2.9-8.6-33.8c-7.8-1.8-14.7-6.8-18.7-14.2zm48.6 60.8c-1.4 0-2.5 1.1-2.5 2.5s1.1 2.5 2.5 2.5 2.5-1.1 2.5-2.5-1.1-2.5-2.5-2.5zm86.4 1.3v-1.2c0-.2 0-.5-.1-.7 0-.1 0-.2-.1-.3 0-.1-.1-.2-.1-.3-.1-.2-.2-.5-.3-.7-.2-.4-.4-.7-.8-1-.7-.7-1.7-1.1-2.7-1.1h-2.6c-2.8 0-5.3 1.2-7.1 3.3l-.8.9-.1.1c-.6.7-1.1 1.4-1.5 2.1-.2.4-.4.7-.5 1.1-.2.4-.3.8-.4 1.2-.1-.4-.3-.8-.4-1.2-.2-.4-.4-.8-.6-1.1-.4-.8-.9-1.5-1.5-2.2l-.8-.9c-1.8-2.1-4.3-3.3-7.1-3.3h-2.6c-1 0-1.9.4-2.7 1.1-.3.3-.5.6-.7 1-.1.2-.2.5-.3.7 0 .1-.1.2-.1.2 0 .1 0 .2-.1.3 0 .2-.1.4-.1.7v1.2c-.3-.5-.7-.9-1.2-1.3l-5.6-4.3c-.5-.3-1-.5-1.5-.5-.4 0-.8.1-1.2.3-.4.2-.8.6-1 .9l-.3.6c-.1.2-.1.5-.1.7v1.2c-.4-.6-.9-1.1-1.5-1.6l-3.7-2.9c-.4-.3-.9-.5-1.4-.5-.4 0-.7 0-1.1.2-.9.4-1.4 1.2-1.4 2.2v.7c-.5-.7-1.1-1.4-1.8-1.9l-2.2-1.4c-.2-.1-.4-.2-.6-.2h-.2c-.1 0-.3-.1-.4-.1h-.6c-.2.1-.4.1-.6.2-.7.4-1.1 1.1-1.1 2v1.1c-.3-.3-.6-.5-1-.7l-3.8-1.8c-.3-.1-.6-.2-1-.2-.6 0-1.2.2-1.7.5-.7.5-1.1 1.3-1.1 2.1v4.6c0 .9.3 1.8.9 2.5l.6.6.1.1c.2.2.4.3.6.4l.1.1c.2.1.4.2.7.2.1 0 .1 0 .2.1.3.1.6.1.9.1h2.9c.1 0 .2 0 .2-.1.2-.1.4-.1.6-.2.2-.1.5-.3.7-.4 0 .2.1.5.1.7 0 .1.1.2.1.2 0 .1.1.3.1.4s.1.2.1.3c.1.1.1.2.2.3.1.1.1.2.2.2.1.1.1.2.2.3l.2.2c.1.1.2.2.3.2.1.1.2.1.2.2.1.1.2.1.3.2.1 0 .2.1.2.1.1.1.3.1.4.1.1 0 .1 0 .2.1.2 0 .4.1.7.1h1.7c.2 0 .4 0 .6-.1.2 0 .3-.1.5-.1.5-.2 1-.5 1.3-.9.6 1.6 2.1 2.8 3.9 2.8h2c1.5 0 2.8-.9 3.4-2.2.9 1.9 2.8 3.1 5.1 3.1h2.4c1.2 0 2.3-.5 3-1.4.4 2 1.8 3.6 3.6 4.3.3.1.6.2 1 .3.3.1.7.1 1.1.1h6.5c.3 0 .6 0 .9-.1h.2c.2-.1.5-.1.7-.2h.1c.6-.2 1.1-.6 1.5-1 .5-.4.8-.9 1.1-1.4v.2-.2c.3.5.7 1 1.1 1.4.5.4 1 .7 1.6 1h.1c.2.1.5.2.7.2h.2c.3.1.6.1.9.1h6.5c.4 0 .7 0 1.1-.1.3-.1.7-.2 1-.3 1.8-.7 3.2-2.3 3.6-4.3.7.9 1.8 1.4 3 1.4h2.4c2.3 0 4.2-1.3 5.1-3.1.6 1.3 1.9 2.2 3.4 2.2h2c1.8 0 3.4-1.2 3.9-2.8.3.4.8.7 1.3.9.2.1.3.1.5.1s.4.1.6.1h1.7c.2 0 .5 0 .7-.1.1 0 .1 0 .2-.1.1 0 .3-.1.4-.1s.2-.1.2-.1c.1-.1.2-.1.3-.2.1-.1.2-.1.2-.2.1-.1.2-.1.3-.2.1-.1.2-.1.2-.2.1-.1.1-.2.2-.2.1-.1.1-.2.2-.3.1-.1.1-.2.2-.3.1-.3.3-.5.3-.8.1-.3.1-.5.1-.8.2.2.5.4.7.5l.6.3c.1 0 .1 0 .2.1h.2c.2 0 .4.1.5.1h2.2c.3 0 .6 0 .9-.1.1 0 .1 0 .2-.1.2-.1.4-.1.6-.2l.1-.1c.2-.1.4-.3.6-.4h.1l.6-.6c.5-.7.8-1.5.8-2.5v-4.6c0-.8-.4-1.6-1.1-2.1-.5-.3-1.1-.5-1.6-.5-.3 0-.6.1-.9.2l-3.3 1.6-.5.2c-.4.2-.8.5-1.1.8v-1.2c0-.8-.4-1.6-1.1-2-.2-.1-.4-.2-.6-.2h-.6c-.1 0-.3 0-.4.1h-.2c-.2.1-.4.1-.6.2l-2.2 1.4c-.7.5-1.4 1.1-1.8 1.9v-.7c0-1-.5-1.8-1.4-2.2-.1-.1-.3-.1-.4-.1s-.3 0-.4-.1h-.2c-.5 0-1 .2-1.4.5l-1.8 1.4-1.9 1.5c-.6.4-1.1 1-1.5 1.6V365c0-.2 0-.5-.1-.7l-.3-.6c-.2-.4-.6-.7-1.1-1-.4-.2-.8-.3-1.2-.3-.5 0-1.1.2-1.6.5l-5.6 4.3c.7.2.3.6 0 1.1zm15.1-34c0 6.7 4.7 15.3 9.3 22.2.3 0 .5-.1.8-.1 1.1 0 2.2.3 3.1.8.5.3.9.6 1.2.9l1-.5.2-.1.2-.1c.7-.3 1.5-.4 2.3-.4 1.4 0 2.8.4 3.9 1.2 1.8 1.2 2.8 3.3 2.8 5.4v4.6c0 1.7-.5 3.3-1.4 4.6.9 1.1 1.4 2.5 1.4 4v1.6c0 2-.9 3.9-2.3 5.3 1.8 3.9 2.6 8.2 2.2 12.6l-2.7 28.9c-.3 3.3 2 5.8 4.7 6.5l5.3-20.4 11.3 2.9-1.5 5.7 12.6-13.4c16-17.1 25.8-39 28-62.3l3.6-37.9c-4.1 7.2-10.9 12.1-18.6 13.9l-8.7 33.8-11.3-2.9 7.8-30.7c-2.2-.4-4.3-1.1-6.4-2L299 301.5c-1.1-.5-2.1-.7-3.2-.7-.5 0-.9 0-1.3.1l28.1 57.8 10.8 9.2 3.7-14.4 7 1.8-14.4 56.2-7-1.8 4.5-17.6-9.4-27-29.1-59.9c-.5 1-.7 2.1-.7 3.3v25.8zm37.5 37.7c1.4 0 2.5-1.1 2.5-2.5s-1.1-2.5-2.5-2.5-2.5 1.1-2.5 2.5 1.1 2.5 2.5 2.5zm-121.9 8.4c.3.5.7.9 1.3 1.2l5.3 2.9c.5.3 1.2.3 1.7-.1h.1c.4 1 1 1.8 1.9 2.5l3.6 2.4c.5.4 1.2.5 1.7.2.1 0 .1-.1.2-.1.3.9 1.1 1.6 2 1.9l4.7 1.6c.6.2 1.2.1 1.7-.3.3.7.8 1.2 1.5 1.4l6.3 2.1c.5.1 1 .1 1.4-.2.3.5.9.8 1.5.8h5.9c.7 0 1.4-.4 1.8-.9.5.6 1.2.9 1.9.9h5.9c.8 0 1.5-.4 2-1 .5.6 1.2 1 2 1h5.9c.8 0 1.5-.4 1.9-.9.4.5 1.1.9 1.8.9h5.9c.6 0 1.2-.3 1.5-.8.4.3.9.4 1.4.2l6.3-2.1c.7-.2 1.2-.7 1.5-1.4.5.4 1.2.5 1.7.3l4.7-1.6c1-.3 1.7-1 2-1.9.1 0 .1.1.2.1.6.3 1.2.2 1.7-.1l3.6-2.4c.9-.6 1.6-1.5 1.9-2.5h.1c.5.3 1.1.3 1.7 0l5.3-2.9c.8-.5 1.4-1.2 1.6-2.1 0-.1.1-.2.1-.4V377c0-.2 0-.3-.1-.5v-.2c0-.1-.1-.2-.1-.3 0-.1-.1-.1-.1-.2-.1-.1-.1-.2-.2-.3-.1-.2-.3-.3-.4-.4-.6-.5-1.4-.6-2.1-.5l-4.3 1.3c-.9.2-1.6.9-1.9 1.8 0 0-.1 0-.1-.1-.5-.4-1.2-.4-1.9-.2l-3.5 1.5c-.9.4-1.6 1.1-2 2l-.1-.1c-.2-.1-.3-.2-.5-.2h-.2c-.1 0-.3-.1-.4-.1h-.3c-.1 0-.3 0-.4.1l-4.7 2c-.8.3-1.4.9-1.8 1.7l-.1-.1c-.1-.1-.2-.2-.3-.2 0 0-.1 0-.1-.1-.1 0-.2-.1-.3-.1h-.2c-.1 0-.2 0-.3-.1h-.6l-4.9.5c-.9.1-1.7.6-2.2 1.4-.5-.7-1.2-1.1-2.1-1.1H268c-.5 0-1 .1-1.4.4-.1.1-.2.2-.4.3-.3-1-1.3-1.7-2.4-1.7H258c-.8 0-1.5.4-2 1-.5-.6-1.2-1-2-1h-5.9c-1.1 0-2 .7-2.4 1.7-.1-.1-.2-.2-.4-.3-.4-.3-.9-.4-1.4-.4h-4.8c-.9 0-1.7.4-2.1 1.1-.5-.8-1.3-1.3-2.2-1.4l-4.9-.5h-.6c-.1 0-.2 0-.3.1h-.2c-.1 0-.2.1-.3.1 0 0-.1 0-.1.1-.1.1-.2.2-.3.2l-.1.1c-.4-.7-1-1.3-1.8-1.7l-4.7-2c-.2-.1-.4-.1-.6-.1h-.2c-.1 0-.3 0-.4.1h-.2c-.2.1-.3.1-.5.2l-.1.1c-.4-.9-1.1-1.6-1.9-1.9l-3.5-1.5c-.6-.3-1.3-.2-1.8.2 0 0-.1 0-.1.1-.4-.8-1.1-1.5-1.9-1.8l-4.3-1.3c-.7-.2-1.5 0-2.1.5-.2.1-.3.3-.4.4-.1.1-.2.2-.2.3 0 .1-.1.1-.1.2s-.1.2-.1.3v.2c0 .2-.1.3-.1.5v2.2c0 .1 0 .3.1.4.2.1.3.4.5.7zM237.9 8.9l7 31c7.6-1.3 15.4-1.9 23.1-1.9 20.6 0 40.6 4.4 58.1 12.7l.6-23.1C306.5 14.8 283.1 8 258.6 8h-5.2c-5.2 0-10.4.3-15.5.9zm-108.6 95.6c1.7 10.3 2.7 21.6 2.7 33.5 0 11.4-.9 22.2-2.5 32.2 8.7-7.1 19.5-11 30.6-11 3.7 0 7.4.4 11.1 1.3l55.5 13.2c9.7 2.3 19.6 3.5 29.4 3.5 9.9 0 19.7-1.1 29.4-3.5l55.5-13.2c3.7-.9 7.4-1.3 11-1.3 11 0 21.8 3.8 30.4 10.8-1.6-9.9-2.5-20.7-2.6-32 0-11.9 1-23.2 2.7-33.6-5.6-22.1-17-42.4-33.5-58.9-6.3-6.3-13.1-11.9-20.4-16.7l-.7 25-1.4-.7C309.1 44.5 288.8 40 267.8 40c-7.9 0-15.8.7-23.6 2l-.9.2-7.4-33c-27.6 3.7-53 16.3-73 36.3-16.6 16.6-28 36.9-33.6 59zM162 63.7c-3.5-8.5 8.9-21.7 27.8-29.5 8.9-3.7 17.7-5.5 24.8-5.5 8 0 13.9 2.3 15.7 6.8 3.5 8.5-8.9 21.7-27.8 29.5-8.9 3.7-17.7 5.5-24.8 5.5-7.9 0-13.8-2.3-15.7-6.8zm1.9-.7c1.5 3.5 6.5 5.5 13.9 5.5 7.1 0 15.7-1.9 24-5.4 19.3-8 29.4-20.4 26.7-26.9-1.5-3.5-6.5-5.5-13.9-5.5-7.1 0-15.7 1.9-24 5.4-19.3 8-29.4 20.4-26.7 26.9zm32.4-10.2c6.4-2.6 10.6-7.1 9.4-10s-7.3-3-13.7-.4-10.6 7.1-9.4 10c1.2 2.8 7.4 3 13.7.4zm105 33.9c2.1 1.2 4.2 2.5 6 4l-14.8 57.4c-1.6 6.1-6.4 10.9-12.5 12.5l-5 1.3c-6.2 1.6-12.6 2.4-19 2.4s-12.8-.8-19-2.4l-5-1.3c-6.1-1.6-10.9-6.4-12.5-12.5l-14.8-57.4c1.9-1.4 4-2.8 6.1-4C223.1 79.4 238.9 75 256 75s32.9 4.4 45.3 11.7zm3.7 4.8c-1.6-1.2-3.3-2.2-4.7-3C287.8 81.1 272 77 256 77s-31.8 4.1-44.3 11.4c-1.6.9-3.2 1.9-4.8 3.1l14.5 56.1c1.4 5.4 5.7 9.6 11.1 11.1l5 1.3c6.1 1.5 12.3 2.3 18.5 2.3 6.3 0 12.5-.8 18.6-2.3l5-1.3c5.4-1.4 9.6-5.7 11.1-11.1L305 91.5zm-87.7-22c14.6-1.5 29.7-1.9 44.8-1h.9l1.9-13.6c13.6.9 26.9 2.8 39.7 5.6l.4-2c-13.2-2.9-27-4.8-41-5.7l-.9-.1-1.8 13.7c-14.9-.8-29.8-.4-44.2 1.1l.2 2zm138.5 28.9c-6.7-6-14.5-11.2-23-15.3l2-18.2c9.3 3.8 17.8 9 25.2 15.1l-4.2 18.4zm-1.2-3.7l3.2-13.9c-6.4-5.2-13.6-9.6-21.3-13l-1.6 14.1c7.1 3.5 13.7 7.8 19.7 12.8zm-215.7 51.5c0 1.7 1.2 3 2.9 3.1h.1c1.6 0 2.9-1.3 3-2.9 0-2.8.1-5.6.1-8.4 0-6.8-.3-13.5-.9-20.1-.2-1.6-1.7-2.9-3.3-2.7-1.6.2-2.8 1.6-2.7 3.3.6 6.4.9 12.9.9 19.5 0 2.8 0 5.5-.1 8.2zm231.2 3.1c1.8-.1 3.1-1.4 3-3.1-.1-2.7-.1-5.4-.1-8.2 0-6.6.3-13.1.9-19.5.1-1.7-1.1-3.1-2.7-3.3-1.6-.2-3.1 1.1-3.3 2.7-.6 6.6-.9 13.3-.9 20.1 0 2.8 0 5.6.1 8.4.1 1.6 1.4 2.9 3 2.9zM219.6 371.9zm46.3 15.2zm18 3.8z"/></svg>