<svg version="1.1" xmlns="http://www.w3.org/2000/svg" x="0" y="0" viewBox="0 0 512 512" xml:space="preserve"><path d="M454.8 162.9c-9.1-.3-17.9-1.6-26.4-3.7 3.5-3.5 5.6-8.4 5.6-13.7 0-5-1.9-9.5-5-13 3.1-3.5 5-8 5-13 0-8.5-5.5-15.8-13.1-18.4 2-3 3.1-6.7 3.1-10.6 0-8.8-5.9-16.3-13.9-18.7 1.2-2.5 1.9-5.3 1.9-8.3 0-10.8-8.7-19.5-19.5-19.5-2.3 0-4.6.4-6.6 1.2-1.1-9.7-9.4-17.2-19.4-17.2-3.5 0-6.7.9-9.5 2.5-3.4-2.8-7.7-4.5-12.5-4.5-4.2 0-8.1 1.4-11.3 3.6.3-4.7.8-9.3 1.6-13.7C310.6 5.7 283.9 0 256 0 144 0 53.3 90.8 53.3 202.7c0 10.6.8 21.1 2.4 31.3l5.2 52.7c1.5 15 8.7 38.2 15.9 51.4L85 353h1c31.8 0 57.5 40.3 57.5 90 0 4.6-.2 9-.6 13.4C169 490.2 210 512 256 512s87-21.8 113.1-55.6c-.4-4.4-.6-8.8-.6-13.4 0-49.7 25.7-90 57.5-90h1l8.2-14.9c7.3-13.3 14.5-36.4 15.9-51.4l5.2-52.7c1.6-10.2 2.4-20.6 2.4-31.3 0-13.6-1.4-26.9-3.9-39.8zm-127.9 45.6H339c.6 1 .9 2.2.9 3.5 0 3.9-3.1 7-7 7s-7-3.1-7-7c.1-1.3.4-2.5 1-3.5zm-54.5 91.7c4.9 1 10.3 4.5 12 7.6s2.3 9.7 1.3 14.5c-1 4.9-3.6 5.7-5.7 1.9-2.1-3.8-6.6-7.8-10.1-8.8s-6.3-5.3-6.3-9.5 4-6.7 8.8-5.7zm-44.8 7.6c1.7-3.1 7.1-6.6 12-7.6 4.8-1 8.8 1.5 8.8 5.7s-2.8 8.5-6.3 9.5-8 5-10.1 8.8-4.7 3-5.7-1.9c-1-4.8-.4-11.4 1.3-14.5zM114.5 213c0-11.5 3.8-22 10.3-30.5h80.5c6.4 8.5 10.3 19 10.3 30.5 0 27.9-22.6 50.5-50.5 50.5s-50.6-22.6-50.6-50.5zm209 175.4l-57.6 8.3c-5.4.8-14.4.8-19.8 0l-58.6-8.4c-5.4-.8-9.3-5.9-8.5-11.3s5.9-9.3 11.3-8.5l55.8 8c5.4.8 14.4.8 19.8 0l10.5-1.5-4.6-20.7c-1.1-5.2 2.2-9.4 7.5-9.4h21.8c5.3 0 8.6 4.3 7.5 9.4l-3.7 16.6 15.8-2.3c5.4-.8 10.5 3 11.3 8.5s-3 10.5-8.5 11.3zM341 269.5c-27.9 0-50.5-22.6-50.5-50.5 0-3.6.4-7.1 1.1-10.5h30.1c-1.7 3.1-2.7 6.7-2.7 10.5 0 12.2 9.8 22 22 22s22-9.8 22-22c0-3.8-1-7.4-2.7-10.5h30.1c.7 3.4 1.1 6.9 1.1 10.5 0 27.9-22.6 50.5-50.5 50.5zM165 191c-12.2 0-22 9.8-22 22s9.8 22 22 22 22-9.8 22-22-9.8-22-22-22zm-8 22c-3.9 0-7-3.1-7-7s3.1-7 7-7 7 3.1 7 7-3.1 7-7 7z"/></svg>