<svg version="1.1" xmlns="http://www.w3.org/2000/svg" x="0" y="0" viewBox="0 0 512 512" xml:space="preserve"><path d="M209.3 208.9c0-13.9-11.3-25.2-25.2-25.2-13.9 0-25.2 11.3-25.2 25.2 0 13.9 11.3 25.2 25.2 25.2 13.9 0 25.2-11.3 25.2-25.2zm-34.4 0c-4.4 0-8-3.6-8-8s3.6-8 8-8 8 3.6 8 8-3.6 8-8 8zm153-25.2c-13.9 0-25.2 11.3-25.2 25.2 0 13.9 11.3 25.2 25.2 25.2 13.9 0 25.2-11.3 25.2-25.2 0-13.9-11.3-25.2-25.2-25.2zm-9.1 25.2c-4.4 0-8-3.6-8-8s3.6-8 8-8 8 3.6 8 8-3.6 8-8 8zm176.3 112.3l-66.6-48.8c2.6-56.5-16.2-115.9-46.6-153.8-27.1-33.9-64.9-53.7-100.5-60.4l16.4-40.4c4.1-.9 7.1-4.5 7.1-8.8 0-5-4-9-9-9s-9 4-9 9c0 2.1.7 4 1.9 5.5l-17.1 42.2c-6-.7-11.8-1.1-17.5-1-4.5 0-9.2.3-13.9.9l-17-42c1.2-1.5 1.9-3.4 1.9-5.5 0-5-4-9-9-9s-9 4-9 9c0 4.3 3 7.9 7 8.8L230.4 58c-35.9 6.4-74.2 26.5-101.4 60.6-29.9 37.5-48.7 96.9-45.3 153.7l-66.8 48.9c-5.3 4-6.5 11.5-2.6 16.8 2.4 3.2 6 4.9 9.7 4.9 2.4 0 4.9-.7 7.1-2.3l56.1-41.1c7.6 38.5 27 73.7 61.9 97.2L110 467.6c-11.5.8-20.6 10.4-20.6 22.1 0 12.3 9.9 22.2 22.2 22.2s22.2-9.9 22.2-22.2c0-3.9-1-7.5-2.7-10.7l39-70.6c10.1 4.7 21.2 8.6 33.3 11.5l-19.9 48c-10.2 2-17.9 11-17.9 21.8 0 12.3 9.9 22.2 22.2 22.2S210 502 210 489.7c0-4.8-1.6-9.3-4.2-13l21.7-52.4c7.2.9 14.8 1.5 22.7 1.8 12.4.5 24 .1 35-.9l21.3 51.4c-2.7 3.7-4.2 8.2-4.2 13 0 12.3 9.9 22.2 22.2 22.2 12.3 0 22.2-9.9 22.2-22.2 0-10.8-7.6-19.7-17.8-21.8l-19.2-46.4c12.3-2.7 23.6-6.4 33.8-11l37.8 68.4c-1.8 3.2-2.8 6.9-2.8 10.8 0 12.3 9.9 22.2 22.2 22.2 12.3 0 22.2-9.9 22.2-22.2 0-11.7-9-21.2-20.5-22.1L364.3 399c34.8-23.4 53.9-59.4 61.1-99l55.5 40.6c2.2 1.5 4.6 2.3 7.1 2.3 3.7 0 7.3-1.7 9.7-4.9 3.9-5.4 2.7-12.9-2.6-16.8zM126.2 208.9c0-20.5 10.7-38.6 26.8-48.8l77 13.6c7.5 9.8 12 22 12 35.3 0 32-25.9 57.9-57.9 57.9s-57.9-26-57.9-58zm170.6 148.4c-10.4-11.5-25.3-18.1-40.8-18.1s-30.4 6.6-40.8 18.1l-16-14.5c14.5-15.9 35.2-25.1 56.8-25.1 21.6 0 42.3 9.1 56.8 25.1l-16 14.5zm31.1-90.5c-32 0-57.9-25.9-57.9-57.9 0-13.3 4.5-25.5 12-35.3l77-13.6c16.1 10.3 26.8 28.3 26.8 48.8 0 32.1-25.9 58-57.9 58z"/></svg>