<svg version="1.1" xmlns="http://www.w3.org/2000/svg" x="0" y="0" viewBox="0 0 512 512" xml:space="preserve"><path d="M241.8 456.5c.6 4.5 6.9 13.9 6.8 23.2 0 1 0 2-.1 3.1l-7.3-15.3-1.9.3c-.1 0-7.3 1.2-17.9 1.4-10.6.2-21-1.4-21.1-1.4l-1.5-.2-8.1 11.6c1.6-6.5 3.7-13.5 5.7-17.7 4.4-9.2.8-18.8-.2-24.1-1-5.2-18-25.7-18-39.9s3.1-14.7 3.1-14.7 15.1 25.8 27.2 37.6c12 11.8 32.1 26.7 32.1 26.7s.6 4.9 1.2 9.4zm-20.1 18.7c-8.7.1-16.9-.9-20.3-1.5L187.5 494c1.4 1.7 15 18 32.5 18 18.4 0 26.7-10.6 26.7-10.6s.5-3.2 1-7.5l-9.9-20c-2.7.5-8.3 1.2-16.1 1.3zm109-92.5s-15.1 25.8-27.2 37.6c-12 11.8-32.1 26.7-32.1 26.7s-.6 5-1.2 9.5-6.9 13.9-6.9 23.2c0 1.1 0 2.2.1 3.3l7.4-15.5 1.9.3c.1 0 7.4 1.2 17.9 1.4 10.5.2 21-1.4 21.1-1.4l1.5-.2 8.1 11.6c-1.6-6.5-3.7-13.5-5.7-17.7-4.4-9.2-.8-18.8.2-24.1 1-5.2 18-25.7 18-39.9s-3.1-14.8-3.1-14.8zm-40.2 92.4c-7.9-.1-13.7-.9-16.6-1.4l-9.6 20.3c.5 4.3.9 7.4.9 7.4s8.2 10.6 26.7 10.6c17.7 0 31.5-16.7 32.6-18.1l-14.2-20.1c-3.2.5-11.2 1.4-19.8 1.3zm12.3-67.3s21.1-25.8 21.1-31.7c0-5.9-17-25.5-17-25.5s-2.5-3.4-5.3-4.6-7.1-1.9-7.1-1.9-25.9-4.9-38.5-4.9c-12.6 0-38.5 4.9-38.5 4.9s-4.3.6-7.1 1.9c-2.8 1.2-5.3 4.6-5.3 4.6s-17 19.6-17 25.5c0 5.9 21.1 31.7 21.1 31.7s22.3 25.7 28.5 29.2 11.6 5 18.3 5 12.1-1.4 18.3-5c6.2-3.5 28.5-29.2 28.5-29.2zm106.1-1.1s0-2.1-.2-5.4c-.6-9.4-2.8-29.5-11.4-43.3-6.7-10.9-14.4-17.6-20.2-21.4 2-2.7 3-4.6 3-4.6s-7.1-11.6-14.7-17.5c-7.5-5.9-34.2-19.1-43.7-26.7-9.5-7.6-13-13.5-17.3-14.7-2.2-.6-7.6-.6-12.3-.4l-.1-.4c45.6-12.2 81.9-47.2 96.1-92-6.3-2-19.2-5.9-36.5-9.8l-29.8 29-24.9-38.1c-13-1.4-26.8-2.2-40.8-2.2-14.4 0-28.5.9-41.8 2.3l-24.8 38-29.7-28.8c-15.7 3.6-28.1 7.2-35.7 9.7 14.1 44.7 50.4 79.7 95.9 91.9l-.1.5c-4.6-.2-9.9-.2-12.1.4-4.3 1.2-7.8 7.1-17.3 14.7s-36.2 20.8-43.7 26.7c-7.6 5.9-14.7 17.5-14.7 17.5s1 1.9 3 4.6c-5.8 3.8-13.5 10.5-20.2 21.4-8.6 13.8-10.8 33.9-11.4 43.3-.2 3.3-.2 5.4-.2 5.4s.5-.5 1.4-1.3c-.1 3.7-.1 8.1.3 10.9.9 5.7 3.7 11.7 4.8 13.5 1.1 1.8 6.9 5.1 11.5 5.1s12.9-7.4 13.6-9.7c.7-2.3.1-3.4-2-5s-4.3.6-4.3.6-2.9 4.4-5.2 4.6-4.8-4.3-4.6-7.3c.2-3 5.4-9.7 8.3-10.6 2.9-.9 10.2 15.5 11.7 16.5 1.5.9 2.2 1.1 3.5.9s2.1-1.1 2.5-3.4c.4-2.3-1.5-7.4-2.8-12.4-1-4-3-7.9-3-7.9s23.1-29.9 41.6-57c13.6-20 23.9-39.3 24.6-39.6.6-.2 2 .4 3.7 1.2l-10.2 30.8s-.4 3.7.2 5.1c.6 1.4 3.4 2.4 3.4 2.4l.5-.7-.3.7s30.4-8.1 53.7-8.1c22.2 0 50.6 7.3 53.4 8l.1.1h.2v-.1c.6-.2 2.7-1.1 3.2-2.3.9-1.4.4-5.1.4-5.1L303.3 306c1.7-.9 3.3-1.6 3.9-1.3.7.3 11 19.6 24.6 39.6 18.5 27.1 41.6 57 41.6 57s-2 3.9-3 7.9c-1.3 5-3.2 10.1-2.8 12.4.4 2.3 1.2 3.2 2.5 3.4s2 0 3.5-.9c1.5-1 8.8-17.4 11.7-16.5 2.9.9 8.1 7.6 8.3 10.6s-2.3 7.5-4.6 7.3c-2.3-.2-5.2-4.6-5.2-4.6s-2.2-2.2-4.3-.6c-2.1 1.6-2.7 2.7-2 5 .7 2.3 9 9.7 13.6 9.7s10.4-3.3 11.5-5.1 3.9-7.8 4.8-13.5c.4-2.8.4-7.2.3-10.9l1.2 1.2zM256 149.5c62.5 0 118.6 16.6 134.6 21.8 2.5-10.5 3.9-21.5 3.9-32.8C394.5 62 332.5 0 256 0S117.5 62 117.5 138.5c0 11.3 1.4 22.3 3.9 32.8 16-5.2 72.1-21.8 134.6-21.8z"/></svg>