<svg version="1.1" xmlns="http://www.w3.org/2000/svg" x="0" y="0" viewBox="0 0 512 512" xml:space="preserve"><path d="M494.5 141.4c-1.9-.6-3.8-1.2-5.6-1.8 3.8-.8 6.6-4.2 6.6-8.2 0-4.6-3.8-8.4-8.4-8.4-4.6 0-8.4 3.8-8.4 8.4 0 2.2.9 4.3 2.3 5.8-26-7.9-52.9-14.5-80.7-19.6-10.9-55.6-71.3-98-144.3-98s-133.4 42.5-144.3 98C84 122.7 57 129.3 31 137.2c1.4-1.5 2.3-3.5 2.3-5.8 0-4.6-3.8-8.4-8.4-8.4-4.6 0-8.4 3.8-8.4 8.4 0 4 2.8 7.4 6.6 8.2-1.9.6-3.8 1.2-5.6 1.8-23.3 7.6-23.3 40.6 0 48.2 72.6 23.7 153.4 36.9 238.5 36.9s165.9-13.2 238.5-36.9c23.3-7.6 23.3-40.6 0-48.2zM394 132c1.3 0 2.3 1 2.3 2.3s-1 2.3-2.3 2.3-2.3-1-2.3-2.3 1-2.3 2.3-2.3zm-18-4.8c1.3 0 2.3 1 2.3 2.3s-1 2.3-2.3 2.3-2.3-1-2.3-2.3 1-2.3 2.3-2.3zm-100 1.2c1.4 0 2.5 1.1 2.5 2.5s-1.1 2.5-2.5 2.5-2.5-1.1-2.5-2.5 1.1-2.5 2.5-2.5zm-20-5.4c1.4 0 2.5 1.1 2.5 2.5s-1.1 2.5-2.5 2.5-2.5-1.1-2.5-2.5 1.1-2.5 2.5-2.5zm-20 5.4c1.4 0 2.5 1.1 2.5 2.5s-1.1 2.5-2.5 2.5-2.5-1.1-2.5-2.5 1.1-2.5 2.5-2.5zm-82 3.6c1.3 0 2.3 1 2.3 2.3s-1 2.3-2.3 2.3-2.3-1-2.3-2.3 1-2.3 2.3-2.3zm-18-4.8c1.3 0 2.3 1 2.3 2.3s-1 2.3-2.3 2.3-2.3-1-2.3-2.3 1-2.3 2.3-2.3zm-18 4.8c1.3 0 2.3 1 2.3 2.3s-1 2.3-2.3 2.3-2.3-1-2.3-2.3 1-2.3 2.3-2.3zm-18 35.8c-1.3 0-2.3-1-2.3-2.3s1-2.3 2.3-2.3 2.3 1 2.3 2.3-1 2.3-2.3 2.3zm4.8 18c-1.3 0-2.3-1-2.3-2.3s1-2.3 2.3-2.3 2.3 1 2.3 2.3-1 2.3-2.3 2.3zm0-36c-1.3 0-2.3-1-2.3-2.3s1-2.3 2.3-2.3 2.3 1 2.3 2.3-1 2.3-2.3 2.3zM118 199c-1.3 0-2.3-1-2.3-2.3 0-1.3 1-2.3 2.3-2.3s2.3 1 2.3 2.3c0 1.3-1 2.3-2.3 2.3zm18 4.8c-1.3 0-2.3-1-2.3-2.3s1-2.3 2.3-2.3 2.3 1 2.3 2.3-1 2.3-2.3 2.3zm18-4.8c-1.3 0-2.3-1-2.3-2.3 0-1.3 1-2.3 2.3-2.3s2.3 1 2.3 2.3c0 1.3-1 2.3-2.3 2.3zm-18-5.6c-15.4 0-27.9-12.5-27.9-27.9s12.5-27.9 27.9-27.9 27.9 12.5 27.9 27.9-12.5 27.9-27.9 27.9zm31.2-7.6c-1.3 0-2.3-1-2.3-2.3s1-2.3 2.3-2.3 2.3 1 2.3 2.3-1 2.3-2.3 2.3zm0-36c-1.3 0-2.3-1-2.3-2.3s1-2.3 2.3-2.3 2.3 1 2.3 2.3-1 2.3-2.3 2.3zm4.8 18c-1.3 0-2.3-1-2.3-2.3s1-2.3 2.3-2.3 2.3 1 2.3 2.3-1 2.3-2.3 2.3zm44 .2c-1.4 0-2.5-1.1-2.5-2.5s1.1-2.5 2.5-2.5 2.5 1.1 2.5 2.5-1.1 2.5-2.5 2.5zm5.4 20c-1.4 0-2.5-1.1-2.5-2.5s1.1-2.5 2.5-2.5 2.5 1.1 2.5 2.5-1.1 2.5-2.5 2.5zm0-40c-1.4 0-2.5-1.1-2.5-2.5s1.1-2.5 2.5-2.5 2.5 1.1 2.5 2.5-1.1 2.5-2.5 2.5zm14.6 54.6c-1.4 0-2.5-1.1-2.5-2.5s1.1-2.5 2.5-2.5 2.5 1.1 2.5 2.5-1.1 2.5-2.5 2.5zm20 5.4c-1.4 0-2.5-1.1-2.5-2.5s1.1-2.5 2.5-2.5 2.5 1.1 2.5 2.5-1.1 2.5-2.5 2.5zm20-5.4c-1.4 0-2.5-1.1-2.5-2.5s1.1-2.5 2.5-2.5 2.5 1.1 2.5 2.5-1.1 2.5-2.5 2.5zm-20-6.1c-17.1 0-31-13.9-31-31s13.9-31 31-31 31 13.9 31 31-13.9 31-31 31zm34.6-8.5c-1.4 0-2.5-1.1-2.5-2.5s1.1-2.5 2.5-2.5 2.5 1.1 2.5 2.5-1.1 2.5-2.5 2.5zm0-40c-1.4 0-2.5-1.1-2.5-2.5s1.1-2.5 2.5-2.5 2.5 1.1 2.5 2.5-1.1 2.5-2.5 2.5zm5.4 20c-1.4 0-2.5-1.1-2.5-2.5s1.1-2.5 2.5-2.5 2.5 1.1 2.5 2.5-1.1 2.5-2.5 2.5zm19.7-109.3c2.1-3.9 7-5.3 10.8-3.3 14.8 8 27.6 17.8 38.2 29.3 3 3.3 2.8 8.3-.5 11.3-1.4 1.4-3.4 2.1-5.3 2.1-2.2 0-4.3-.9-5.9-2.6-9.4-10.2-20.8-18.9-34-26-3.9-2.1-5.3-6.9-3.3-10.8zm44.6 75.6c0 1.3-1 2.3-2.3 2.3s-2.3-1-2.3-2.3 1-2.3 2.3-2.3 2.3 1 2.3 2.3zM340 167.8c-1.3 0-2.3-1-2.3-2.3s1-2.3 2.3-2.3 2.3 1 2.3 2.3-1 2.3-2.3 2.3zm4.8 18c-1.3 0-2.3-1-2.3-2.3s1-2.3 2.3-2.3 2.3 1 2.3 2.3-1 2.3-2.3 2.3zm0-36c-1.3 0-2.3-1-2.3-2.3s1-2.3 2.3-2.3 2.3 1 2.3 2.3-1 2.3-2.3 2.3zM358 199c-1.3 0-2.3-1-2.3-2.3 0-1.3 1-2.3 2.3-2.3s2.3 1 2.3 2.3c0 1.3-1 2.3-2.3 2.3zm18 4.8c-1.3 0-2.3-1-2.3-2.3s1-2.3 2.3-2.3 2.3 1 2.3 2.3-1 2.3-2.3 2.3zm18-4.8c-1.3 0-2.3-1-2.3-2.3 0-1.3 1-2.3 2.3-2.3s2.3 1 2.3 2.3c0 1.3-1 2.3-2.3 2.3zm-18-5.6c-15.4 0-27.9-12.5-27.9-27.9s12.5-27.9 27.9-27.9 27.9 12.5 27.9 27.9-12.5 27.9-27.9 27.9zm31.2-7.6c-1.3 0-2.3-1-2.3-2.3s1-2.3 2.3-2.3 2.3 1 2.3 2.3-1 2.3-2.3 2.3zm0-36c-1.3 0-2.3-1-2.3-2.3s1-2.3 2.3-2.3 2.3 1 2.3 2.3-1 2.3-2.3 2.3zm4.8 18c-1.3 0-2.3-1-2.3-2.3s1-2.3 2.3-2.3 2.3 1 2.3 2.3-1 2.3-2.3 2.3zm-113.6 73.6L348.1 482c-29.6 6.9-60.4 10.5-92.1 10.5s-62.5-3.6-92.1-10.5l49.7-240.6c14 .7 28.2 1.1 42.4 1.1s28.4-.4 42.4-1.1z"/></svg>