<svg version="1.1" xmlns="http://www.w3.org/2000/svg" x="0" y="0" viewBox="0 0 512 512" xml:space="preserve"><path d="M11.8 273.2l5.5 1.3 10.3-.5c.9 0 1.8-1.1 2.5-3 6 .2 30.7 1.2 48 2.6 14.6 1.2 36.3 4.6 46.6 6.3.1 0 .1.1.2.1l11.2 2h.3c1.2 0 2.3-2.8 3.2-7.5.4.2.7.4 1.1.6 7.3 3.2 21.3 8.8 29.2 8.8 6.1 0 15.3-2.8 22.3-5.3-1.5 8.4-4.5 23.3-9.3 36.3-7 19-16 25-22 31-3.1 3.1-13 5.7-21.8 7.5-7.1-1.5-14-3.3-20.9-5.4l-15.4 11.4c2.8.9 5.6 1.8 8.5 2.6 1.2.3 2.3.7 3.5 1 .3.1.6.2.9.2 1.1.3 2.1.6 3.2.9l1.2.3c1 .3 2.1.5 3.1.8.4.1.9.2 1.3.3 1 .2 2 .5 3 .7.5.1.9.2 1.4.3l3 .6c.4.1.9.2 1.3.3 1 .2 2.1.4 3.1.6.3.1.6.1.9.2 2.3.4 4.6.8 6.9 1.1.3 0 .5.1.8.1.8.1 1.7.2 2.5.4.7.1 1.4.2 2 .3.8.1 1.6.2 2.3.3.8.1 1.5.2 2.3.3.7.1 1.5.2 2.2.2.8.1 1.6.2 2.4.2.7.1 1.4.1 2.2.2.8.1 1.7.1 2.5.2.7 0 1.4.1 2.1.1.9.1 1.8.1 2.7.1.6 0 1.3.1 1.9.1 1 0 2 .1 3.1.1h6.3c1.9 0 3.9 0 5.8-.1h1.3c1.7 0 3.4-.1 5.2-.2h.6c4.2-.2 8.3-.4 12.4-.7 48.6-3.9 95.3-18.6 137.9-41.7 22.6 13.5 42.9 24.4 77 40.3l12.7-27.2c-25.8-12.1-43.4-21.2-60.4-30.8 23.2-15.5 44.8-33.5 64.4-53.6H452c1.1 0 2 .2 2 .5s.9.5 2 .5h13c1.1 0 2-.2 2-.5s.9-.5 2-.5h34c.3 0 .6-.1.8-.2.4.4 1 .7 1.7.7 1.4 0 2.5-1.1 2.5-2.5s-1.1-2.5-2.5-2.5c-.7 0-1.2.3-1.7.7-.2-.1-.5-.2-.8-.2h-34c-1.1 0-2-.2-2-.5s-.9-.5-2-.5h-13c-1.1 0-2 .2-2 .5s-.9.5-2 .5h-12.3l-13.1-32.6c-9.7 11.4-20 22.2-30.8 32.6H338v-29c0-3 2-13 6-20s21-30 28-33c3.5-1.5 13.2-3.3 22-4.7 10.4 2.7 20.5 5.9 30.5 9.5l12.9-8.1 2.2-1.4C397.6 148.5 351 138 302 138c-59.3 0-115 15.4-163.3 42.5-6.1-2.2-11.5-3.9-16.2-5.1l-4.2 17.4c-9.2 6.1-18.1 12.6-26.7 19.5l3 24.3c-5.8.8-11.5 1.4-16.5 1.8-17.3 1.5-42.1 2.4-48 2.6-.7-1.9-1.6-3-2.5-3l-10.3-.5-5.5 1.3m0 0l-3.1.7c-1.4 0-2.8 1.4-3.8 3.6l1.5-.2c-2.7 2.2-4.6 5.2-5.4 8.7L0 256l1 4.4c.8 3.5 2.7 6.5 5.4 8.7l-1.4-.2c1 2.3 2.4 3.6 3.8 3.6l3.1.7m127.8-35.7c-.8-4.6-1.9-7.5-3.2-7.5h-.3l-11.2 2c-.1 0-.1 0-.2.1-3.7.6-8.7 1.4-14.3 2.3 8.8-7.8 17.9-15.1 27.5-21.9 9.6 4 20.8 9.3 33.3 15.6H170c-7.9 0-21.9 5.6-29.2 8.8-.4.1-.8.3-1.1.6zM326 253c-.7.3-1.5.7-2.3 1h-45.8c-1-.6-1.9-1.2-2.9-1.7 8-4.4 23.1-12.5 26-13.3 4-1 20-3 22-2 .7.4 1.9 1.3 3 2.3V253zm0 19.5c-3.3 0-13 0-20.8-1.6-4-2.5-8.2-5.1-12.7-7.9 5 .6 9.4 1.3 11.5 2 4.3 1.4 15.8 4.4 22 6v1.5zm-119.6-25.7c2.1 1.1 4.1 2.3 6.2 3.5-3.4-.6-7.2-1.2-10.6-1.9V246l4.4.8zM202 261v-3h24c3.2 1.9 6.5 3.8 9.8 5.7-6.4 2.8-16 7-19.8 8.3-6 2-11 2-14 2-.4 0-.8 0-1.3-.1.8-1.3 1.3-2.7 1.3-4.3V261zm152-100c1 3 0 15-3 20-1.5 2.6-8 13.2-14 23l-16 16c-5 5-16 12-19 14-2.4 1.6-25.5 10.3-34.6 13.7-38.9-23.5-72.5-41.9-99.1-54.5 10.5-5.9 21.4-11.3 32.6-16 34.9-13 72.7-20.1 112.1-20.1 13.6 0 27.1.9 40.2 2.5.4.4.6.9.8 1.4zM77.3 267.4c-25.2-1.7-39.6-2.7-45.7-3.1.3-2.5.5-5.3.5-8.3s-.2-5.8-.5-8.3c6.1-.4 20.5-1.4 45.7-3.1 6.7-.5 12.7-.7 18.2-.9l.5 4.2c1.5-1.5 2.9-2.9 4.4-4.3 9.6-.2 16.9.1 22 .3-.3 3.6-.4 7.7-.4 12.1s.1 8.5.4 12.1c-8.6.5-23.7.8-45.1-.7zm135.1 89.2c-8.9.8-17.9 1.3-21.4.4-8-2-11-16-6-28s10-28 21-40c7.3-8 24.7-16.8 35.6-21.8 7.3 4.4 14.9 8.9 22.6 13.6 15.9 9.7 29 17.9 40.6 25.1 4.5 2.8 8.7 5.4 12.8 8-33.3 19.8-68.8 34.5-105.2 42.7zm132.9-60.8c-1.3-2.4-2.6-4.9-3.3-6.8-2-5-4-11-4-13v-2c4.2 2.1 10.4 5.3 11 6 1 1 2 2 3 4 .6 1.1.5 4.3.3 6.7-2.3 1.7-4.6 3.4-7 5.1zm24.9-19c-3.4-.2-7.7-.7-11.2-1.8-4.9-1.4-15.3-6.8-21-9.8V258h53.6c-6.9 6.5-14.1 12.7-21.4 18.8z"/></svg>