<svg version="1.1" xmlns="http://www.w3.org/2000/svg" x="0" y="0" viewBox="0 0 512 512" style="enable-background:new 0 0 512 512" xml:space="preserve"><path d="M256 8c50.2 0 90 18.1 118.2 53.7 33 41.8 49.8 107.1 49.7 194.3 0 61.7-8.5 112.9-25.3 152.2-13.7 32.1-33 56.4-57.5 72.5-8.9-15.2-20.7-35.7-32.1-57-39-73.2-41-94.2-41-97.7 0-36.6 9.8-60 9.9-60.3-.1.2-.2.3-.2.4.1-.3 14.2-30.7 14.2-80.1 0-9 0-32.9-46.8-120.5-11.1-20.7-22.1-40-29.7-53C228.1 9.5 241.7 8 256 8m-85.3 23.4c12.2 20.7 22.7 39.4 32.1 57 39.1 73.1 41.1 94.2 41.1 97.6 0 35.3-9.1 58.3-9.9 60.2l-.1.2v.1c-2.3 5.5-14 35.2-14 79.5 0 9 0 32.9 46.9 120.5 11.3 20.9 22.3 40.1 29.8 53-12.8 3-26.4 4.5-40.6 4.5-50.2 0-90-18.1-118.2-53.7C104.8 408.5 88 343.1 88 256c0-61.7 8.5-113 25.3-152.2 13.7-32.1 33-56.4 57.4-72.4M256 0c-18.4 0-36.2 2.4-52.8 7.5 8.6 14.5 21.8 37.3 34.9 61.8C284 155.1 284 178.4 284 186c0 45.9-12.8 75.3-13.4 76.5-.1.2-10.6 24.9-10.6 63.5 0 6.9 4.1 30.5 42 101.4 14 26.2 28.2 50.5 36.4 64.3 55.6-31.8 93.5-104 93.5-235.7C432 66 353.2 0 256 0zm-82.5 20.3C117.9 52.1 80 124.2 80 256c0 190 78.8 256 176 256 18.4 0 36.1-2.4 52.8-7.5-8.6-14.5-21.8-37.3-35-61.8-45.9-85.8-45.9-109.1-45.9-116.7 0-45.9 12.9-75.3 13.4-76.5.1-.2 10.6-24.9 10.6-63.5 0-6.8-4.1-30.5-42-101.4-14-26.3-28.2-50.5-36.4-64.3z"/></svg>