<svg version="1.1" xmlns="http://www.w3.org/2000/svg" x="0" y="0" viewBox="0 0 512 512" xml:space="preserve"><path d="M313 0v19H199V0h-10v512h134V0h-10zm0 502H199V352h114v150zm0-160H199V187h114v155zm0-165H199V29h114v148zM207 341h-6v-78h6v78zm7 0h-6v-78h6v78zm7 0h-6v-78h6v78zm7 0h-6v-78h6v78zm1-78h6v78h-6v-78zm7 0h6v78h-6v-78zm7 0h6v78h-6v-78zm7 0h6v78h-6v-78zm7 0h6v78h-6v-78zm7 0h6v78h-6v-78zm7 0h6v78h-6v-78zm7 0h6v78h-6v-78zm7 0h6v78h-6v-78zm7 0h6v78h-6v-78zm7 0h6v78h-6v-78zm7 0h6v78h-6v-78zm0-50h-78v-6h78v6zm-4 7h-78v-6h78v6zm-71 1h78v6h-78v-6zm75 13h-78v-6h78v6zm-78 1h78v6h-78v-6zm4 7h78v6h-78v-6zm78 13h-78v-6h78v6zm-82 1h78v6h-78v-6zm-21-80h-6V98h6v78zm7 0h-6V98h6v78zm7 0h-6V98h6v78zm7 0h-6V98h6v78zm1-78h6v78h-6V98zm7 0h6v78h-6V98zm7 0h6v78h-6V98zm7 0h6v78h-6V98zm7 0h6v78h-6V98zm7 0h6v78h-6V98zm7 0h6v78h-6V98zm7 0h6v78h-6V98zm7 0h6v78h-6V98zm7 0h6v78h-6V98zm7 0h6v78h-6V98zm7 0h6v78h-6V98zm-5-36h-78v-6h78v6zm-67 1h78v6h-78v-6zm76 13h-78v-6h78v6zm-76 1h78v6h-78v-6zm0 7h78v6h-78v-6zm0 7h78v6h-78v-6z"/></svg>