<svg version="1.1" xmlns="http://www.w3.org/2000/svg" x="0" y="0" viewBox="0 0 512 512" xml:space="preserve"><path d="M409.1 243.3c-.9-.2-1.8-.3-2.7-.3-3.6 0-7.2 1.6-10.8 4.4l21-126.7C416 53.9 344.3 0 256 0S96 53.9 95.4 120.7l21 126.7c-3.6-2.8-7.3-4.4-10.8-4.4-.9 0-1.8.1-2.7.3-12.6 3-17.9 26.5-11.8 52.6 5.7 24.3 19.2 42.2 31.3 42.2.9 0 1.8-.1 2.7-.3.8-.2 1.5-.4 2.2-.8l1.1 10.5 14.2 90.2c4.1 26.1 19.8 49 42.8 62.2 13.8 7.9 29.4 12.1 45.4 12.1h50.6c15.9 0 31.6-4.2 45.4-12.1 22.9-13.2 38.7-36.1 42.8-62.2l14.2-90.2 1.1-10.5c.7.3 1.4.6 2.2.8.9.2 1.8.3 2.7.3 12 0 25.6-17.9 31.3-42.2 5.9-26.1.6-49.7-12-52.6zM293 382.5c0 8.8-7.2 16-16 16h-42c-8.8 0-16-7.2-16-16s7.2-16 16-16h42c8.8 0 16 7.2 16 16zM413.1 294c-5.4 23.2-17.3 36-23.5 36-.3 0-.6 0-.9-.1-.2-.1-.5-.1-.7-.2l-10.2-4.6-1.1 11.1-1 10.1c-.1.7-.5 2.7-1.1 5.3l-10.6 4.8c-14.8 6.8-31.7 7.7-47.2 2.4l-13.6-4.6c-13.2-4.5-27.1-6.8-41.1-6.8h-12.3c-14 0-27.8 2.3-41.1 6.8l-13.6 4.6c-15.5 5.2-32.3 4.4-47.2-2.4l-10.6-4.9c-.5-2.6-.9-4.6-1-5.3l-1-10.1-1.1-11.1-10.2 4.6c-.2.1-.5.2-.7.2-.3.1-.6.1-.9.1-6.1 0-18-12.8-23.5-36-2.6-11.3-3-22.7-1.1-31.4 1.4-6.4 4.2-10.9 7-11.6.3-.1.6-.1.8-.1 1.9 0 4.6 1.4 7.2 3.9l15.5 14.3-2.1-21-2.8-27.5 4.8-98c32.7 14.6 77.9 23.7 127.8 23.7s95.1-9 127.8-23.7l4.8 98-2.8 27.5-2.1 21 15.5-14.3c2.7-2.4 5.3-3.9 7.2-3.9.3 0 .6 0 .8.1 2.8.7 5.5 5.2 7 11.6 1.9 8.8 1.5 20.2-1.1 31.5zm-218.2-67.5c-11.7 0-24 10.7-24 24s12.3 24 24 24 24-10.7 24-24-12.3-24-24-24zM215 246c0 4.3-3.1 7.7-6.8 7.7-3.8 0-6.8-3.5-6.8-7.7s3.1-7.7 6.8-7.7 6.8 3.4 6.8 7.7zm102.1-19.5c-11.7 0-24 10.7-24 24s12.3 24 24 24 24-10.7 24-24-12.3-24-24-24zm20.1 19.5c0 4.3-3.1 7.7-6.8 7.7-3.8 0-6.8-3.5-6.8-7.7s3.1-7.7 6.8-7.7c3.8 0 6.8 3.4 6.8 7.7z"/></svg>