<svg version="1.1" xmlns="http://www.w3.org/2000/svg" x="0" y="0" viewBox="0 0 512 512" xml:space="preserve"><path d="M230.1 32c9.5 0 16.2 5.7 16.8 15 1.5 27.5 2.8 55 3.9 82.6.9 21.9 1.3 43.8 2 65.7.2 5.1-.1 10.4 6.6 10.7h.2c4.7 0 10.9-5.8 11.3-10.8 1.4-15.5 2.4-31 3.7-46.5 2.4-27.1 4.7-54.2 7.5-81.2 1-9.2 7.5-15.2 14.6-15.2 1.3 0 2.6.2 3.9.6 6.7 2.1 9.2 8.4 9.3 14.5.2 31.5-.3 62.9-.3 94.4 0 27.9-.6 55.8.8 83.6.6 11.4 6.9 31.7 9.3 32.9.3.2.7.3 1.1.3 2.4 0 6-3 8.8-4.6.5-.2 1-.4 1.4-.9.3-.4.5-.7.7-1.1 2.5-5.8 4.9-11.6 7.7-17.1 4.6-9.2 10.4-17.2 10.9-28.9.2-7 5.1-14.5 9.6-20.4 6.9-9.2 14.6-18.1 26.2-21 .8-.2 1.6-.3 2.4-.3 5.2 0 8.7 4.3 6 9.3-9.1 16.9-9.9 35.6-12.1 54.1-.4 3.4-1.8 6.9-3.5 9.8-10.6 17.8-15.3 38.1-21.5 57.8-1.7 5.2-3.9 10.5-6.8 15-13.6 20.8-27.2 41.6-41.3 61.9-7.7 11.2-11.6 23.4-12.9 37.1-1.5 16.9-3.9 33.7-5.9 50.5-37.5-.1-75-.1-112.5-.1 0-20.9.2-41.7-.2-62.6-.1-6.2-1.1-12.6-2.8-18.5-5.2-17.8-11.6-35.3-16.2-53.3-3.5-13.8-6.2-28.3-7-42.5-2.1-38.1-10.9-74.5-20.3-110.9-2-7.4-3.4-15.1-6.3-22.2-5.9-14.3-6-29.6-8-44.5-.7-5.3.8-10.7 6.1-13.3 1-.5 2.2-.8 3.5-.8 3.8 0 8.4 2.3 11 6.2 2.6 3.9 5 8.3 6.3 12.9 3.3 12.2 6.1 24.6 8.9 36.9 1.8 8 5 14.9 9 22 3.6 6.2 5 13.5 6.7 20.5 2 7.5 4.5 21.1 6.5 22.4.2.1.4.2.6.2 2 0 4.8-5.6 5.4-8.9.9-4.4-.2-8.6-.7-12.9-.7-4.9-1.2-9.7-1.9-14.6-1.2-9.7-2.4-19.4-3.7-29.2-2.4-19.4-5-38.9-7.4-58.4-1.5-11.6-2.9-23.4-4.4-35-.3-2.7-.8-5.7-.2-8.3 1.7-7.6 8.4-13.9 14-13.9h.1c5.7.1 11.6 6.4 13 14.9 2.5 16 4.3 32.2 7 48.1 2.3 13.1 5.6 26.1 8.2 39.1 3.6 17.5 6.8 35.1 10.1 52.7.1.6.3 1.4.8 1.7.2.1.4.2.6.2.4 0 .9-.3 1.2-.7.4-.5.6-1.2.7-1.9 1.1-7.2-.4-15.1-1.1-22.3-.7-8-1.4-15.9-1.8-24-.4-9.1.4-18.2.8-27.4.2-3.5.7-7 .7-10.5.1-22.3 0-44.5 0-66.8 0-2.4-.2-5 .1-7.4.7-8.5 5.9-14.5 12.5-14.6.2-.1.3-.1.3-.1m0-32h-.7c-12.3.2-24.1 5.7-32.3 15.3-1.8 2.1-3.5 4.4-4.9 6.8-4.7-1.9-9.7-3-14.9-3h-.6c-20.8 0-40.1 16.6-45.2 38.6-1.9 7.9-1 14.9-.5 18.7l.1.7v.2c.1.8.2 1.5.3 2.3-1.6-.2-3.3-.3-4.9-.3-6.2 0-12.4 1.4-17.8 4.2-16.9 8.4-26.1 26.5-23.5 46.1.4 3.1.7 6.4 1.1 9.9 1.3 12.9 2.7 27.5 9 42.7 1.2 3 2.3 7.3 3.4 11.8.5 2 1 4.1 1.6 6.2 9.1 35 17.4 69.4 19.3 104.6.9 15 3.4 30.9 7.9 48.6 3 11.9 6.6 23.2 10.2 34.1 2.2 7 4.4 13.5 6.3 20.2 1 3.5 1.6 7 1.6 10.1v.2c.3 14.8.2 30.1.2 44.8V512h32c36.8 0 74.9 0 112.4.1l28.4.1L322 484c.6-4.7 1.2-9.5 1.8-14.1 1.5-12.1 3.1-24.6 4.3-37.3.9-8.9 3.1-15.7 7.4-21.9 14.8-21.4 28.8-42.8 41.8-62.6l.1-.1.1-.1c4.1-6.4 7.5-13.8 10.4-22.5v-.2c1.4-4.3 2.7-8.7 3.9-12.8 4.3-14.2 8.3-27.6 14.7-38.4 2.9-4.9 6.6-12.8 7.7-22.3.3-2.8.6-5.6.9-8.2 1.5-13.7 2.8-25.5 7.6-34.4 6.5-12.1 6.3-26.2-.6-37.7-7-11.7-19.6-18.7-33.6-18.7-3.4 0-6.8.4-10.1 1.2-17.1 4.3-29 14.9-36.7 23.7v-15.5c0-12.9.1-26 .2-38.6.1-18.3.3-37.2.1-56v-.2c-.3-21.2-12.7-38.7-31.6-44.6-4.4-1.4-8.9-2.1-13.5-2.1-8.2 0-15.9 2.2-22.6 6.1-8-16.2-24.4-26.7-44.2-26.7z"/></svg>