<svg version="1.1" xmlns="http://www.w3.org/2000/svg" x="0" y="0" viewBox="0 0 512 512" xml:space="preserve"><path d="M303.1 512.1H296c-43.9-.1-88.6-.1-131.8-.1h-8v-27c.1-16.5.1-33.5-.2-50.2-.1-5.9-1.1-12.2-3-18.4-2.4-7.7-5-15.5-7.6-23.1-4-11.7-8.1-23.8-11.4-36.1-4.8-17.9-7.6-33.8-8.5-48.7-2.4-41.5-12.5-81-23.6-121.2-.6-2.1-1.1-4.3-1.7-6.5-1.6-6.1-3-11.8-5.3-17.1-5.8-13.1-7.2-26.6-8.6-39.6-.4-3.9-.8-7.9-1.4-11.8-1.5-10.1 3-19 11.7-23.1 8.5-4.1 20.6-.2 26.9 8.6l.1.1c4.3 6.2 7 11.5 8.5 16.8 3.8 13.2 7.1 26.8 10.2 39.9l.3 1.2c1.7 7 4.6 13.8 9.6 22 1.9 3.1 3.3 6.3 4.5 9.6-1.3-9.7-2.6-19.6-4-29.4-1.4-10.8-2.9-21.6-4.3-32.3-1.5-10.8-2.9-21.6-4.3-32.3-.9-6.6-1.7-13.1-2.6-19.7l-2.7-20c-.4-3.2-.9-7.1.1-11.2 2.9-12 13.8-21.6 24.5-21.5 10.9.2 20.8 10.1 23 23.1 1.3 8.1 2.5 16.2 3.7 24.1 1.4 9.6 2.8 19.5 4.5 29.1 1.5 8.4 3.6 17 5.5 25.3.3 1.5.7 3 1.1 4.5 0-.6.1-1.2.1-1.9.1-2.5.3-5.1.4-7.6.1-1.8.3-3.6.4-5.3.2-2.1.4-4.1.4-6 .1-16.5 0-33.2 0-49.3V30.1c0-2.1-.1-4.4.2-6.8C203.8 9.9 213.3 0 225.2-.1h.3c15.7 0 26.8 9.7 27.7 24.2 1.7 30.2 3.2 61 4.6 91.6.7 16.2 1.2 32.6 1.6 48.5.2 8.1.4 16.2.7 24.3v1c0 .9.1 2.2.2 3.1 1.6-.3 4.7-3.1 5-4.6.8-8.5 1.5-17.2 2.2-25.6.7-8.4 1.4-17.2 2.2-25.8 2.7-29.2 5.5-59.4 8.8-90 .9-8.4 5.2-15.6 11.8-20 6-4 13.4-5.1 20.2-3 10.2 3 16.4 11.8 16.5 23.6.2 20.6 0 41.5-.2 61.6-.1 14.1-.2 28.6-.2 43 0 7 0 14-.1 21-.1 23.4-.2 47.6 1 71.2.4 8.2 4.1 20.8 6.7 27.4.2-.1.5-.3.6-.4.9-.6 1.9-1.1 2.8-1.7.5-1.1 1-2.3 1.5-3.4 2.2-4.9 4.5-10 7.2-14.9 1.1-2 2.2-4 3.4-6 4.3-7.5 8.1-14.1 8.4-22.5.4-10.4 7.6-20.6 13-27.2 8.4-10.5 18.8-22.1 35.1-26 7.1-1.7 14.2.6 18.1 5.7 3.5 4.6 3.7 10.6.7 16-8.4 14.6-10.2 30.9-12.2 48.1-.3 2.9-.7 5.9-1 8.8-.6 4.6-2.4 9.6-5.3 14.1-9.3 14.8-14.5 31.2-20 48.6-1.4 4.5-2.9 9.2-4.5 13.8-2.6 7.4-5.5 13.5-9 18.6-15.1 21.9-31.4 45.3-48.6 68.8-7.9 10.8-12.2 22.6-13.7 37.1-1.3 13.5-3.1 27.2-4.9 40.3-.7 5.3-1.4 10.5-2.1 15.8l-.6 7.1zM172.2 496c38.4 0 77.8 0 116.8.1.4-3 .8-5.9 1.2-8.9 1.7-13 3.6-26.5 4.8-39.8 1.7-17.3 7.2-32 16.7-45 17-23.3 33.3-46.7 48.3-68.4 2.7-3.9 5-8.7 7-14.7 1.5-4.4 2.9-9 4.4-13.5 5.6-17.5 11.3-35.7 21.7-52.2 1.6-2.5 2.6-5.3 2.9-7.6.4-2.9.7-5.8 1-8.6 2-17.5 4.1-35.5 13.2-52.4h-.2c-10.2 2.4-17.6 9.6-26.3 20.4-6.2 7.6-9.4 13.6-9.5 17.9-.5 12.4-5.9 21.6-10.5 29.8-1.1 1.9-2.2 3.8-3.2 5.6-2.4 4.5-4.5 9.1-6.7 13.9-.7 1.5-1.3 3-2 4.5-.4 1-1.1 2.4-2.4 3.7-1.1 1.1-2.4 2-4 2.6-.6.4-1.4.8-2.1 1.3-4.4 2.7-10.5 6.5-16.5 3.3-2.1-1-5.3-2.8-10.2-18.7-1.3-4.3-4.5-15.3-5-24.4-1.3-24.1-1.1-48.5-1-72.1 0-7 .1-13.9.1-20.9 0-14.4.1-29 .2-43.1.2-20.1.3-40.9.2-61.3-.1-4.6-1.8-7.5-5.1-8.5-2.3-.7-4.7-.3-6.8 1-2.6 1.7-4.3 4.8-4.7 8.4-3.3 30.4-6.1 60.6-8.8 89.7-.8 8.5-1.5 17.2-2.2 25.6-.7 8.5-1.4 17.2-2.2 25.9-.8 9.8-11.8 19.5-21.7 19.2-14.9-.6-15.3-13.7-15.4-18.6v-.9c-.3-8.1-.5-16.3-.7-24.4-.4-15.8-.9-32.2-1.6-48.3-1.3-30.5-2.9-61.2-4.6-91.3-.5-8-7.6-9.1-11.9-9.1-3.5 0-6.4 3.8-6.8 8.8v.2c-.2 1.4-.1 3.1-.1 4.9v76.6c0 2.6-.3 5.1-.5 7.6-.2 1.6-.3 3-.4 4.4-.1 2.6-.3 5.2-.4 7.8-.4 7.6-.9 14.7-.5 21.8.5 9.6 1.4 19 2.1 26.1.2 1.8.4 3.6.6 5.5.8 6.6 1.7 14 .5 21.3l-.1.6c-.3 1.2-.8 3.3-2.4 5.3l-.1.1c-3.1 3.7-8.2 4.7-12.2 2.3l-.5-.3c-2.3-1.6-3.9-4.1-4.4-7.2-3.7-19.1-7.6-38.8-11.8-58-1.2-5.8-2.6-11.7-4-17.4-2-8.5-4.1-17.3-5.7-26.1-1.8-9.9-3.2-19.9-4.6-29.7-1.1-7.8-2.3-15.9-3.6-23.7-1.1-6.4-5.5-9.8-7.5-9.8-2.3 0-7.4 3.8-8.7 9.2l-.1.2c-.3 1.1 0 3.3.3 5.2l.1 1 2.5 19c.9 6.6 1.7 13.2 2.6 19.7 1.4 10.7 2.9 21.5 4.3 32.3 1.5 10.8 2.9 21.6 4.3 32.3 1.5 10.8 3 21.6 4.4 32.2v.2c.4 2.7.7 5.4 1.1 8.1.4 2.7.7 5.3 1.1 8v.2c.1 1 .3 2.1.4 3.1.6 4.1 1.3 8.7.2 13.9-.7 3.1-4 12.6-10.3 15.4-2.9 1.3-6.1 1.1-8.7-.6-4.2-2.6-5.7-7.5-9.3-22.2-.7-2.7-1.3-5.2-1.8-7.3-.4-1.3-.7-2.6-1-3.9-1.6-6.2-3.1-12-6-16.7-5.9-9.7-9.5-17.9-11.5-26.6l-.3-1.2c-3.1-13-6.3-26.4-10-39.3-1-3.5-2.9-7.3-6.2-11.9-2.2-3-6-3.9-7.1-3.4-1 .4-3.4 1.6-2.7 6.4.6 4.2 1 8.4 1.4 12.4 1.3 12.3 2.5 24 7.3 34.8 2.8 6.5 4.5 13.1 6.2 19.5.5 2.1 1.1 4.1 1.6 6.2 11.3 41 21.6 81.4 24.1 124.5.8 13.8 3.4 28.6 7.9 45.5 3.2 11.8 7.2 23.6 11.1 35.1 2.6 7.7 5.3 15.6 7.8 23.6 2.3 7.6 3.6 15.5 3.7 22.8.3 16.9.3 34 .2 50.6.4 3.1.4 6.7.3 10.4z"/></svg>