<svg version="1.1" xmlns="http://www.w3.org/2000/svg" x="0" y="0" viewBox="0 0 512 512" style="enable-background:new 0 0 512 512" xml:space="preserve"><path d="M294 512c-13.8 0-27.1-4.5-38-12.6-12.5 9.4-28.2 13.9-44.4 12.3-29.7-2.8-53.8-26.4-57.2-56.2-2.2-19.1 4.2-38.1 17.6-51.9 18.8-19.4 29.2-44.1 29.2-69.4V177.8c0-25.3-10.4-49.9-29.2-69.4-13.3-13.7-19.7-32.6-17.6-51.9C157.8 26.6 181.9 3 211.7.2c16-1.6 31.7 2.9 44.2 12.3C268.4 3.1 284.1-1.4 300.3.2 330 3 354.1 26.6 357.5 56.4c2.2 19.1-4.2 38.1-17.6 51.9-18.8 19.4-29.2 44.1-29.2 69.4V334c0 25.4 10.4 50 29.2 69.5 13.3 13.7 19.7 32.6 17.6 51.9-3.4 29.9-27.5 53.5-57.3 56.3-2 .2-4.1.3-6.2.3zm-50.8-44.6c6.4-8.5 19.1-8.5 25.5-.1 6.8 8.9 17.4 13.6 28.5 12.5 14.9-1.4 26.8-13.1 28.5-28 1.1-9.7-2.1-19.2-8.8-26-24.7-25.4-38.2-58-38.2-91.8V177.8c0-33.7 13.6-66.2 38.2-91.6 6.7-6.9 9.9-16.4 8.8-26-1.7-14.9-13.7-26.6-28.5-28-11.2-1.1-21.8 3.6-28.5 12.5-6.4 8.5-19.1 8.5-25.5.1-6.8-8.9-17.4-13.6-28.5-12.5-14.9 1.4-26.8 13.1-28.5 28-1.1 9.7 2.1 19.2 8.8 26 24.7 25.4 38.2 58 38.2 91.7v156.3c0 33.7-13.6 66.2-38.2 91.6-6.7 6.9-9.9 16.4-8.8 26 1.7 14.9 13.7 26.6 28.5 28 11.2 1 21.8-3.6 28.5-12.5z"/></svg>