<svg version="1.1" xmlns="http://www.w3.org/2000/svg" x="0" y="0" viewBox="0 0 512 512" xml:space="preserve"><path d="M429.9 264.1c-2.3-11.6-8.2-22.4-12-33.7-.7-2-1.3-4-2-6.1-1.7-5.5-3.1-11-4.1-16.6-2.9-15.9-5.4-31.8-7.9-47.8-2.2-14.2-3.4-28.6-6.5-42.6-2.4-11-4.2-22.8-14.7-30.3-3.4-2.4-8.3-2.9-12.6-1.5.2-.1.4-.1.7-.2h.1L370 91c.1 1.9.2 7.6.4 10.5.6 12.5 1.1 23.9 1.6 34 .6 12.9 1.1 24 1.6 33.4 0 .6.1 1.2.1 1.7 0 .6.1 1.3.1 2.1.2 4.2 1.4 14.7 1.8 18.5.1 1.2-.3 2.3-1.1 3.1-.8.7-1.9 1.2-3.1 1.2h-.2c-1.2 0-2.3-.5-3.2-1.2-1-.9-1.7-2.2-1.8-3.6l-.6-17.8c0-.5.1-1 .2-1.5-1-16.9-1.9-39.9-3.3-69.5-.2-3.7-.4-11.2-.4-11.4-.2-.6-.7-1.1-.7-1.7-.6-7.8-.5-15.6-1.9-23.2-1.8-9.6-4-19.3-7.4-28.4-2.3-6.1-9.2-8.7-16.6-7.8 0 0 .1 0 0 .1l-1 3.4c-.1.9-.2 1.9-.4 2.8-.5 3.6-1 7.4-1.1 10.9-.6 15.2-.8 30.7-1 45.6 0 2.6-.1 5.3-.1 7.9-.2 12.8.3 29.6.8 45.2.1 1.6.1 3.3.2 4.9.1 4.6.6 13.6.8 17.3.1 1.3-.6 2.6-1.8 3.3-.7.3-1.4.6-2.2.6h-.2c-1.1 0-2-.3-2.8-.9-.7-.5-1.1-1.3-1.2-2.2-.1-.4-.1-.9-.1-1.3-.2-6.3-.4-13.5-.6-21.1-.5-15.7-1-32.8-.8-45.8.2-17.9.4-35.8 1.1-53.7.2-5.1 1-10.2 1.7-15v-4.7c0-4.9 1.1-10.3-.4-14.7-2.3-6.7-8-11-15.3-11.8-7.8-.8-14.6 2.8-17.7 9.4-3.2 6.7-3.9 14.6-5.7 22-.2.9-.7 1.8-1.1 2.7-1.9 14.4-1.9 30.1-2.7 44.7-.8 14.7-1.6 29.4-1.8 44.1-.1 10.4-.2 24.3-.2 37.3 0 .2.1.5.1.7l.6 17.8c0 .9-.2 1.8-.6 2.5-.8 1.5-2.4 2.6-4.2 2.7h-.2c-.6 0-1.2-.1-1.7-.3-1.2-.4-1.9-1.5-1.9-2.8 0-4.2-.1-16.2-.1-23.6 0-11.8.1-24.4.2-34.4.2-15.3 1.1-30.8 1.8-44.4.2-4.3.4-8.7.6-13.3.4-10.4.8-21.2 2.1-31.4v-2.8h.1c-3.9-1.4-7.8-2.7-11.7-2.5-7.8.5-12.9 6.9-14.9 14.2-3.7 13.1-6.9 26.4-9.5 39.7-3.2 16-6.3 32.1-8 48.3-1.9 18.5-1.7 37.3-3.4 55.8-1 11.1-3.9 22.1-6.2 33-2 9.9-4.4 19.8-6.3 29.8-3 14.7-10.6 26.4-21.7 35.4 16.2 5.2 55.5 18.6 81 32.9 32.9 18.5 47.2 58.5 47.8 60.2.7 2.1-.4 4.4-2.5 5.1-.4.2-.9.2-1.3.2-1.7 0-3.2-1-3.8-2.7-.1-.4-13.9-38.8-44.2-55.8-31.3-17.6-86.2-34.4-86.7-34.5l-.6-.3c-3.6-.8-6.1-5.2-8.7-7.8-6.2-6.3-11.8-13.1-17.9-19.4-6.5-6.7-12.7-14.1-20.3-19.4-13.3-9.3-28.4-13.6-44.7-10.3-7.9 1.6-14.4 6.6-15.2 15.1-.3 2.9 4.1 6.6 6.7 9.5 9.2 9.9 19.2 19.1 27.8 29.4 9.8 11.7 19.1 24 27.3 36.9 5.1 8 6.5 18.3 11.5 26.4 6.2 10.1 14.1 19.4 21.9 28.4 10.7 12.3 21.9 24.2 33 36.1 8 8.5 16.4 16.7 24.4 25.2 4.9 5.2 8.7 10.6 8.8 18.7.3 17.9 1.8 35.7 2.8 53.6h157.5c-1-12.1-2.9-24.2-2.9-36.3 0-20 2.6-39.8 9.7-58.7 3.9-10.3 7.8-20.7 11-31.2 2.6-8.5 5-17.3 6.2-26.1 2.7-19.2 5.4-38.5 6.6-57.8.5-12.9.1-25.9-2.3-38.1zm-42.1 6.2c-.2 0-.5 0-.7-.1-6.2-1.1-13.4-2-21-2.9-14.7-1.8-30-3.6-41.5-7.6-11.9-4.1-24.4-11.3-35.3-17.7-5.6-3.2-10.8-6.3-15.2-8.4-1.9-.9-2.9-3.1-2.2-5.1.9-2.2 3.4-3.2 5.5-2.2 4.7 2.3 10.1 5.5 15.9 8.8 10.6 6.2 22.7 13.2 33.9 17.1 10.7 3.7 25.5 5.5 39.8 7.2 7.7.9 14.9 1.8 21.4 2.9 1.8.3 3.3 1.8 3.4 3.7.1 2.5-1.9 4.3-4 4.3z"/></svg>