<svg version="1.1" xmlns="http://www.w3.org/2000/svg" x="0" y="0" viewBox="0 0 512 512" xml:space="preserve"><path d="M441.7 270.9l-.9-1.5c-.5-.9-1.4-1.6-2.5-1.8l-5.3-1.3V26l-7.9-7.9 3.9-6.6c.5-.9.7-2 .5-3l-.4-1.7c-.4-1.4-1.5-2.6-2.9-2.9l-1.7-.4c-1-.3-2.1-.1-3 .5l-6.6 3.9L407 0H105l-7.9 7.9L90.5 4c-.9-.5-2-.7-3-.5l-1.7.4c-1.4.4-2.6 1.5-2.9 2.9l-.4 1.7c-.3 1-.1 2.1.5 3l3.9 6.6L79 26v240.3l-5.3 1.3c-1 .3-1.9.9-2.5 1.8l-.9 1.5c-.8 1.3-.8 2.8 0 4.1l.9 1.5c.5.9 1.4 1.6 2.5 1.8l5.3 1.3V486l7.9 7.9-3.9 6.6c-.5.9-.7 2-.5 3l.4 1.7c.4 1.4 1.5 2.6 2.9 2.9l1.7.4c1 .3 2.1.1 3-.5l6.6-3.9 7.9 7.9h302l7.9-7.9 6.6 3.9c.9.5 2 .7 3 .5l1.7-.4c1.4-.4 2.6-1.5 2.9-2.9l.4-1.7c.3-1 .1-2.1-.5-3l-3.9-6.6 7.9-7.9V279.7l5.3-1.3c1-.3 1.9-.9 2.5-1.8l.9-1.5c.7-1.3.7-2.9 0-4.2zM407.5 14.8c2.9-2.9 7.7-2.9 10.6 0s2.9 7.7 0 10.6c-2.9 2.9-7.7 2.9-10.6 0-2.9-2.9-2.9-7.6 0-10.6zm-18.3 3.6c.8-.8 2-.8 2.8 0L414.6 41c.8.8.8 2 0 2.8-.8.8-2 .8-2.8 0l-22.6-22.6c-.8-.8-.8-2 0-2.8zm-266.4 0c.8.8.8 2 0 2.8l-22.6 22.6c-.8.8-2 .8-2.8 0-.8-.8-.8-2 0-2.8L120 18.4c.8-.8 2.1-.8 2.8 0zm-29-3.6c2.9-2.9 7.7-2.9 10.6 0 2.9 2.9 2.9 7.7 0 10.6-2.9 2.9-7.7 2.9-10.6 0-2.9-2.9-2.9-7.6 0-10.6zM83.8 273c0-4.1 3.4-7.5 7.5-7.5s7.5 3.4 7.5 7.5-3.4 7.5-7.5 7.5c-4.2 0-7.5-3.4-7.5-7.5zm20.7 224.2c-2.9 2.9-7.7 2.9-10.6 0-2.9-2.9-2.9-7.7 0-10.6 2.9-2.9 7.7-2.9 10.6 0 2.9 2.9 2.9 7.6 0 10.6zm18.3-3.6c-.8.8-2 .8-2.8 0L97.4 471c-.8-.8-.8-2 0-2.8s2-.8 2.8 0l22.6 22.6c.8.8.8 2 0 2.8zm266.4 0c-.8-.8-.8-2 0-2.8l22.6-22.6c.8-.8 2-.8 2.8 0s.8 2 0 2.8L392 493.6c-.8.8-2.1.8-2.8 0zm29 3.6c-2.9 2.9-7.7 2.9-10.6 0-2.9-2.9-2.9-7.7 0-10.6 2.9-2.9 7.7-2.9 10.6 0 2.9 2.9 2.9 7.6 0 10.6zm4.8-89.7c0 17-6.7 33.3-18.7 45.3l-26.5 26.5c-12 12-28.3 18.7-45.3 18.7h-153c-17 0-33.3-6.7-45.3-18.7l-26.5-26.5c-12-12-18.7-28.3-18.7-45.3v-85.2c0-9 3.8-17.6 10.4-23.7l3.7-3.4c10.6-9.6 13.5-25.1 7.1-37.9l-8-16.1c-8.6-17.5-13.2-37-13.2-56.7v-80c0-17 6.7-33.3 18.7-45.3l26.5-26.5c12-12 28.3-18.7 45.3-18.7h153c17 0 33.3 6.7 45.3 18.7l26.5 26.5c12 12 18.7 28.3 18.7 45.3v80c0 19.7-4.6 39.2-13.3 56.9l-8 16.1c-6.3 12.8-3.4 28.2 7.1 37.9l3.7 3.4c6.7 6.1 10.4 14.7 10.4 23.7v85zm-2.2-127c-4.1 0-7.5-3.4-7.5-7.5s3.4-7.5 7.5-7.5 7.5 3.4 7.5 7.5-3.4 7.5-7.5 7.5zm-142.3-102c0-12.4-10.1-22.5-22.5-22.5s-22.5 10.1-22.5 22.5S243.6 201 256 201s22.5-10.1 22.5-22.5zm-30.5 0c0-4.4 3.6-8 8-8s8 3.6 8 8-3.6 8-8 8-8-3.6-8-8zm8 3.5c-1.9 0-3.5-1.6-3.5-3.5s1.6-3.5 3.5-3.5 3.5 1.6 3.5 3.5-1.6 3.5-3.5 3.5zm-14-27.7c3.8-2.2 5.1-7.1 2.9-10.9-2.2-3.8-7.1-5.1-10.9-2.9-3.8 2.2-5.1 7.1-2.9 10.9 2.2 3.7 7.1 5.1 10.9 2.9zm-5.5-9.6c1.4-.8 3.3-.3 4.1 1.1s.3 3.3-1.1 4.1-3.3.3-4.1-1.1-.3-3.2 1.1-4.1zm33.5 58c-3.8 2.2-5.1 7.1-2.9 10.9 2.2 3.8 7.1 5.1 10.9 2.9s5.1-7.1 2.9-10.9c-2.2-3.7-7.1-5.1-10.9-2.9zm5.5 9.6c-1.4.8-3.3.3-4.1-1.1s-.3-3.3 1.1-4.1 3.3-.3 4.1 1.1.3 3.2-1.1 4.1zM228 178.5c0-4.4-3.6-8-8-8s-8 3.6-8 8 3.6 8 8 8 8-3.6 8-8zm-11 0c0-1.7 1.3-3 3-3s3 1.3 3 3-1.3 3-3 3-3-1.3-3-3zm67 0c0 4.4 3.6 8 8 8s8-3.6 8-8-3.6-8-8-8-8 3.6-8 8zm8-3c1.7 0 3 1.3 3 3s-1.3 3-3 3-3-1.3-3-3 1.3-3 3-3zm-22-21.2c3.8 2.2 8.7.9 10.9-2.9 2.2-3.8.9-8.7-2.9-10.9-3.8-2.2-8.7-.9-10.9 2.9-2.2 3.7-.9 8.6 2.9 10.9zm1.4-8.5c.8-1.4 2.7-1.9 4.1-1.1s1.9 2.7 1.1 4.1-2.7 1.9-4.1 1.1-1.9-2.6-1.1-4.1zM234 216.6c3.8 2.2 8.7.9 10.9-2.9 2.2-3.8.9-8.7-2.9-10.9-3.8-2.2-8.7-.9-10.9 2.9-2.2 3.8-.9 8.7 2.9 10.9zm1.4-8.4c.8-1.4 2.7-1.9 4.1-1.1s1.9 2.7 1.1 4.1-2.7 1.9-4.1 1.1-1.9-2.7-1.1-4.1zm16.6-65.7c0-2.2 1.8-4 4-4s4 1.8 4 4-1.8 4-4 4-4-1.8-4-4zm8 72c0 2.2-1.8 4-4 4s-4-1.8-4-4 1.8-4 4-4 4 1.8 4 4zm-38.6-56c1.1-1.9 3.6-2.6 5.5-1.5s2.6 3.6 1.5 5.5-3.6 2.6-5.5 1.5c-2-1.1-2.6-3.6-1.5-5.5zm62.3 36c1.1-1.9 3.6-2.6 5.5-1.5s2.6 3.6 1.5 5.5-3.6 2.6-5.5 1.5-2.6-3.6-1.5-5.5zm0-32c-1.1-1.9-.4-4.4 1.5-5.5 1.9-1.1 4.4-.4 5.5 1.5 1.1 1.9.4 4.4-1.5 5.5-1.9 1.1-4.4.4-5.5-1.5zm-55.4 32c1.1 1.9.4 4.4-1.5 5.5-1.9 1.1-4.4.4-5.5-1.5-1.1-1.9-.4-4.4 1.5-5.5 1.9-1.1 4.4-.4 5.5 1.5zM209 363c0 2.8-2.2 5-5 5s-5-2.2-5-5 2.2-5 5-5 5 2.2 5 5zm194-64.3l-1.7-1.2c-1.3-1-3.7-1.6-5.4-1.3l-11.4 1.8c-1.6.3-3.5-.8-4.2-2.3l-3.7-8.4c26-28.8 41.9-67 41.9-108.9C418.5 88.8 345.7 16 256 16S93.5 88.8 93.5 178.5c0 71.3 45.9 131.8 109.7 153.7l-40.7 4.3-30.4-30.4c-1.2-1.2-2.3-3.5-2.5-5.1l-.2-1.1c-.2-1.6-1.8-3-3.4-3h-21c-1.7 0-3 1.3-3 3v76c0 1.6.7 4.2 1.5 5.6l2.9 4.9c.8 1.4 1.5 3.9 1.5 5.6v15c0 1.6 1.3 3 3 3h2c1.7 0 4 1 5.1 2.1l8.8 8.8c1.2 1.2 2.1 3.5 2.1 5.1v1c0 1.6-1 4-2.1 5.1l-12.3 12.3c-1.2 1.2-1.2 3.1 0 4.2l7.3 7.3c1.2 1.2 3.1 1.2 4.2 0l3.3-3.3c1.2-1.2 3.1-1.2 4.2 0l8.3 8.3c1.2 1.2 2.1 3.5 2.1 5.1v15c0 1.6.9 3.9 2 5s3.3 2 5 2h5c1.7 0 4-1 5.1-2.1l3.8-3.8c1.2-1.2 2.1-3.5 2.1-5.1v-13c0-1.7 1-4 2.1-5.1l3.8-3.8c1.2-1.2 2.9-1.3 3.9-.4 1 1 3.1 1.8 4.8 1.8h2.5c1.7 0 4 1 5.1 2.1l3 3c1.2 1.2 3.5 2.1 5.1 2.1H249c1.7 0 4-1 5.1-2.1l2.6-2.6c1.2-1.2 2.1-3.5 2.1-5.1V448c0-1.7-1.3-3.5-2.8-4.1l-29.3-11.8c-1.5-.6-3.5-2.3-4.4-3.6l-18.5-28.6c54-23.5 168.1-73.1 171.1-73.9.6-.2 1-.5 1.3-1.1.4 1.6 1.4 3.7 2.2 4.9l2.9 4.3c.9 1.4 3 2.2 4.6 1.8L404 332c1.6-.3 2.9-2 2.8-3.6l-1.4-25c.1-1.6-1.1-3.7-2.4-4.7zM256 124c30.1 0 54.5 24.4 54.5 54.5S286.1 233 256 233s-54.5-24.4-54.5-54.5S225.9 124 256 124zm110.8 173.3l5.2 11.8c.6 1.3 1.3 3.4 1.7 5l-34 3.6c9.8-5.8 18.9-12.7 27.1-20.4zM204 383c-11 0-20-9-20-20s9-20 20-20 20 9 20 20-9 20-20 20zm56.6-32.8l-.8 2.4c-.5 1.6-1.7 2.8-3.1 3.5l-8.6 4c-3.3 1.5-7.1-.1-8.2-3.5l-1.7-5.2c-1.1-3.4.9-7 4.5-7.8l9.8-2.1c1.6-.3 3.4 0 4.7 1l1.2.9c2.1 1.6 3 4.3 2.2 6.8zM377 393.8c-.6-1.6-2.3-2.4-3.8-1.8-1.6.6-3.1.2-3.5-.9-.4-1 .6-2.3 2.1-2.9s2.5-1.9 2.1-2.9c-.4-1-2-1.4-3.5-.9l-83.6 30.4c-1.6.6-2.5 1.9-2.1 2.9.4 1 2 1.4 3.5.9s3.1-.2 3.5.9c.4 1-.6 2.3-2.1 2.9-1.6.6-2.4 2.3-1.8 3.8l8.6 23.5c.6 1.6 2.3 3.3 3.8 4l10.8 4.5c1.5.6 4 .7 5.6.1l59.2-21.5c1.6-.6 3.4-2.2 4.2-3.7l5.4-10.4c.8-1.5.9-3.9.3-5.5l-8.7-23.4zm-71.6 50.5c-2.9 1-6-.4-7-3.3s.4-6 3.3-7 6 .4 7 3.3c1.1 2.8-.4 6-3.3 7zm57.4-48.5l-63 22.9c-1.6.6-3.1.2-3.5-.9-.4-1 .6-2.3 2.1-2.9l63-22.9c1.6-.6 3.1-.2 3.5.9.4 1-.6 2.3-2.1 2.9zm13.1 22.9c-2.9 1-6-.4-7-3.3s.4-6 3.3-7 6 .4 7 3.3c1 2.8-.4 5.9-3.3 7z"/></svg>