<svg version="1.1" xmlns="http://www.w3.org/2000/svg" x="0" y="0" viewBox="0 0 512 512" xml:space="preserve"><path d="M51.1 216.8v6.1c0 1.5-1.1 2.6-2.6 2.6h-19c-1.5 0-2.6-1.1-2.6-2.6v-6.1c0-1.5 1.1-2.6 2.6-2.6h19.1c1.4 0 2.5 1.1 2.5 2.6zm-2.5-63.2H29.5c-1.5 0-2.6 1.1-2.6 2.6v6.1c0 1.5 1.1 2.6 2.6 2.6h19c1.5 0 2.6-1.1 2.6-2.6v-6.1c0-1.5-1.1-2.6-2.5-2.6zM207 258.7v17.1l10.7 5-10.7-22.1zm288.4 108.7V440c0 25.4-20.6 46-46 46h-52.8c-7.1 0-14.2-1.2-21-3.6l-5.4-1.9c-6.7-2.4-13.8-3.6-21-3.6h-25.6c-3.5 0-6.3 2.8-6.3 6.3V512s-11.5-10-24.5-10-25 10-25 10v-28.7c0-3.5-2.8-6.3-6.3-6.3v-.1h-10.9c-3.5 0-6.3 2.8-6.3 6.3V512s-11.5-10-24.5-10-25 10-25 10v-28.7c0-3.5-2.8-6.3-6.3-6.3v-.1h-25.8c-7.1 0-14.2 1.2-21 3.6l-5.4 1.9c-6.7 2.4-13.8 3.6-21 3.6H62.5c-25.4 0-46-20.6-46-46V46c0-25.4 20.6-46 46-46h57.7c7.1 0 14.2 1.2 21 3.6l5.4 1.9c6.7 2.4 13.8 3.6 21 3.6h176.9c7.1 0 14.2-1.2 21-3.6l5.4-1.9c6.7-2.4 13.8-3.6 21-3.6h57.6c25.4 0 46 20.6 45.9 46v321.4zM480.5 288c0-5.2-4.3-9.5-9.5-9.5s-9.5 4.3-9.5 9.5 4.3 9.5 9.5 9.5 9.5-4.3 9.5-9.5zm-9.5 22.5c-5.2 0-9.5 4.3-9.5 9.5s4.3 9.5 9.5 9.5 9.5-4.3 9.5-9.5-4.3-9.5-9.5-9.5zm9.5-54.5c0-5.2-4.3-9.5-9.5-9.5s-9.5 4.3-9.5 9.5 4.3 9.5 9.5 9.5 9.5-4.3 9.5-9.5zm0-32c0-5.2-4.3-9.5-9.5-9.5s-9.5 4.3-9.5 9.5 4.3 9.5 9.5 9.5 9.5-4.3 9.5-9.5zm0-32c0-5.2-4.3-9.5-9.5-9.5s-9.5 4.3-9.5 9.5 4.3 9.5 9.5 9.5 9.5-4.3 9.5-9.5zm0-32c0-5.2-4.3-9.5-9.5-9.5s-9.5 4.3-9.5 9.5 4.3 9.5 9.5 9.5 9.5-4.3 9.5-9.5zm10.9-48.9V90.9C487.8 84.4 480.9 80 473 80c-11.6 0-21 9.4-21 21s9.4 21 21 21c7.9 0 14.8-4.4 18.4-10.9zM116.3 482c1.4-.4 2.6-1.1 3.7-2.1l18.3-16.5c3.9-3.5 4.2-9.5.7-13.3l-13.5-15c-3.5-3.9-9.5-4.2-13.3-.7l-18.3 16.5c-3.9 3.5-4.2 9.5-.7 13.3l13.5 15c1.3 1.4 2.9 2.3 4.6 2.8h5zm3.9-478h-12.6C99.1 6.7 93 14.6 93 24c0 11.6 9.4 21 21 21s21-9.4 21-21c0-9.4-6.1-17.3-14.6-20h-.2zm260.1 1.2l-16.6 14.9c-3.9 3.5-4.2 9.5-.7 13.3l13.5 15c3.4 3.9 9.4 4.2 13.3.7l18.3-16.5c3.9-3.5 4.2-9.5.7-13.3l-13.5-15-.3-.3h-3.1c-4 0-7.8.4-11.6 1.2zM349.5 279v15c0 1.1.9 2 2 2h2c1.1 0 2-.9 2-2v-15h.5c1.1 0 2-.9 2-2v-12c0-1.1-.9-2-2-2h-.5v-12c0-1.1-.9-2-2-2h-2c-1.1 0-2 .9-2 2v12h-6.1v-6c0-1.1.3-2 .8-2s.8-.9.8-2v-2c0-1.1-.3-2-.8-2h-7.6c-.5 0-.8.9-.8 2v2c0 1.1.3 2 .8 2s.8.9.8 2v6h-5.9v-12c0-1.1-.9-2-2-2h-2c-1.1 0-2 .9-2 2v12h-.5c-1.1 0-2 .9-2 2v12c0 1.1.9 2 2 2h.5v15c0 1.1.9 2 2 2h2c1.1 0 2-.9 2-2v-15h18zM334 384c0-7.3 1.6-13.8 4-18.1V343c0-1.1-.9-2-2-2h-78c-1.1 0-2 .9-2 2v22.9c.3.5.5 1 .8 1.6.1.2.2.4.3.7 1 2.3 1.8 5 2.3 8v.1c.1.7.2 1.5.3 2.2v.4c.1.7.1 1.4.2 2.1v.5c0 .8.1 1.7.1 2.6 0 .9 0 1.7-.1 2.6v.5c0 .7-.1 1.4-.2 2.1v.4c-.1.8-.2 1.5-.3 2.2v.1c-.5 3-1.3 5.7-2.3 8-.1.2-.2.4-.3.7-.3.6-.5 1.1-.8 1.6V425c0 1.1.9 2 2 2h78c1.1 0 2-.9 2-2v-22.9c-2.4-4.3-4-10.8-4-18.1zm-79-71.5v2.4c0 .1.2.2.6.2h3.2c.3 0 .6-.1.6-.2v-2.4h1.9v2.4c0 .1.2.2.6.2h3.2c.3 0 .6-.1.6-.2v-2.4h2v2.4c0 .1.2.2.6.2h3.2c.3 0 .6-.1.6-.2v-2.4h3.9c2.4 0 4.5-2.1 4.5-4.5v-3.9h2.3c.1 0 .2-.2.2-.6v-3.2c0-.4-.1-.7-.2-.6h-2.3v-2h2.3c.1 0 .2-.2.2-.6v-3.2c0-.3-.1-.6-.2-.6h-2.3v-1.9h2.3c.1 0 .2-.2.2-.6v-3.2c0-.4-.1-.6-.2-.6h-2.3v-1.9h2.3c.1 0 .2-.2.2-.6v-3.2c0-.4-.1-.7-.2-.6h-2.3v-2h2.3c.1 0 .2-.2.2-.6v-3.2c0-.3-.1-.6-.2-.6h-2.3v-1.9h2.3c.1 0 .2-.2.2-.6v-3.2c0-.3-.1-.7-.2-.6h-2.3v-4c0-2.4-2-4.5-4.5-4.5h-3.9v-2.3c0-.1-.2-.2-.6-.2h-3.2c-.4 0-.7.1-.6.2v2.3h-2v-2.3c0-.1-.2-.2-.6-.2h-3.2c-.3 0-.6.1-.6.2v2.3h-1.9v-2.3c0-.1-.2-.2-.6-.2h-3.2c-.4 0-.6.1-.6.2v2.3h-1.9v-2.3c0-.1-.2-.2-.6-.2h-3.2c-.4 0-.7.1-.6.2v2.3h-2v-2.3c0-.1-.2-.2-.6-.2h-3.2c-.3 0-.6.1-.6.2v2.3h-1.9v-2.3c0-.1-.2-.2-.6-.2h-3.2c-.3 0-.7.1-.6.2v2.3h-4c-2.4 0-4.5 2-4.5 4.5v4h-2.4c-.1 0-.2.2-.2.6v3.2c0 .3.1.6.2.6h2.4v1.9h-2.4c-.1 0-.2.2-.2.6v3.2c0 .3.1.6.2.6h2.4v2h-2.4c-.1 0-.2.2-.2.6v3.2c0 .3.1.6.2.6h2.4v1.9h-2.4c-.1 0-.2.2-.2.6v3.2c0 .3.1.6.2.6h2.4v1.9h-2.4c-.1 0-.2.2-.2.6v3.2c0 .3.1.6.2.6h2.4v2h-2.4c-.1 0-.2.2-.2.6v3.2c0 .3.1.6.2.6h2.4v3.9c0 2.4 2 4.5 4.5 4.5h4v2.4c0 .1.2.2.6.2h3.2c.3 0 .6-.1.6-.2v-2.4h1.9v2.4c0 .1.2.2.6.2h3.2c.3 0 .6-.1.6-.2v-2.4h2v2.4c0 .1.2.2.6.2h3.2c.3 0 .6-.1.6-.2v-2.4h1.9zm-17 42v-13c0-1.1-.9-2-2-2h-6V335c0-1.1-.9-2-2-2h-51c-1.1 0-2 .9-2 2v4.5h-6c-1.1 0-2 .9-2 2v13c0 1.1.9 2 2 2h6v4.5c0 1.1.9 2 2 2h51c1.1 0 2-.9 2-2v-4.5h6c1.1 0 2-.9 2-2zm-2 23.5h-14c-1.1 0-2 .9-2 2v53c0 1.1.9 2 2 2h14c1.1 0 2-.9 2-2v-53c0-1.1-.9-2-2-2zm-31 0h-14c-1.1 0-2 .9-2 2v53c0 1.1.9 2 2 2h14c1.1 0 2-.9 2-2v-53c0-1.1-.9-2-2-2zm-39 8.5c1.1 0 2-.9 2-2v-1c0-1.1-.9-2-2-2h-6.1c-.2-.9-1-1.5-1.9-1.5h-12c-.9 0-1.7.6-1.9 1.5H138c-1.1 0-2 .9-2 2v1c0 1.1.9 2 2 2h6.1c.2.9 1 1.5 1.9 1.5h12c.9 0 1.7-.6 1.9-1.5h6.1zm-7 11.5h-18c-1.1 0-2 .9-2 2v9c0 1.1.9 2 2 2h18c1.1 0 2-.9 2-2v-9c0-1.1-.9-2-2-2zM25 295.5c0 5.2 4.3 9.5 9.5 9.5s9.5-4.3 9.5-9.5-4.3-9.5-9.5-9.5-9.5 4.3-9.5 9.5zm9.5-22.5c5.2 0 9.5-4.3 9.5-9.5s-4.3-9.5-9.5-9.5-9.5 4.3-9.5 9.5 4.3 9.5 9.5 9.5zM25 327.5c0 5.2 4.3 9.5 9.5 9.5s9.5-4.3 9.5-9.5-4.3-9.5-9.5-9.5-9.5 4.3-9.5 9.5zm-4.5 35.1v33.8c3.5 2.6 7.8 4.1 12.5 4.1 11.6 0 21-9.4 21-21s-9.4-21-21-21c-4.7 0-9 1.5-12.5 4.1zM34 438c0 15.7 12.8 28.5 28.5 28.5S91 453.7 91 438s-12.8-28.5-28.5-28.5S34 422.3 34 438zm24-142.5c0 5.2 4.3 9.5 9.5 9.5s9.5-4.3 9.5-9.5-4.3-9.5-9.5-9.5-9.5 4.3-9.5 9.5zm9.5-22.5c5.2 0 9.5-4.3 9.5-9.5s-4.3-9.5-9.5-9.5-9.5 4.3-9.5 9.5 4.3 9.5 9.5 9.5zM65 382c0 6.9 5.6 12.5 12.5 12.5S90 388.9 90 382s-5.6-12.5-12.5-12.5S65 375.1 65 382zm-7-54.5c0 5.2 4.3 9.5 9.5 9.5s9.5-4.3 9.5-9.5-4.3-9.5-9.5-9.5-9.5 4.3-9.5 9.5zM101.2 208c.9 0 1.6-.7 1.6-1.6V204c0-.9-.7-1.6-1.6-1.6H82.3v-2.3h18.9c.9 0 1.6-.7 1.6-1.6v-2.4c0-.9-.7-1.6-1.6-1.6H82.3v-2.3h18.9c.9 0 1.6-.7 1.6-1.6v-2.4c0-.9-.7-1.6-1.6-1.6H82.3v-2.2h18.9c.9 0 1.6-.7 1.6-1.6v-2.4c0-.9-.7-1.6-1.6-1.6H82.3v-2.3h18.9c.9 0 1.6-.7 1.6-1.6v-2.4c0-.9-.7-1.6-1.6-1.6H82.3v-4.4H74v-7h8.3v-16.8c0-.9-.8-1.7-1.7-1.7H20.5v96.9h60.1c.9 0 1.7-.7 1.7-1.7v-16.7H74v-7h8.3V208h18.9zm39.8-84.5v6.5h-4c-1.1 0-2 .9-2 2v4c0 1.1.9 2 2 2h4v3h16v-3h4c1.1 0 2-.9 2-2v-4c0-1.1-.9-2-2-2h-4v-6.5h4c1.1 0 2-.9 2-2v-4c0-1.1-.9-2-2-2h-4V109h4c1.1 0 2-.9 2-2v-4c0-1.1-.9-2-2-2h-4v-3h-16v3h-4c-1.1 0-2 .9-2 2v4c0 1.1.9 2 2 2h4v6.5h-4c-1.1 0-2 .9-2 2v4c0 1.1.9 2 2 2h4zm53.9 83.8v2.1h-21.2c-.3 0-.6.2-.6.6v3.2c0 .3.2.6.6.6h21.2c.1 5.7 4.7 10.2 10.3 10.3v21.3c0 .3.2.6.6.6h3.2c.3 0 .6-.3.6-.6v-21.3h2.1v21.3c0 .3.2.6.6.6h3.2c.3 0 .6-.3.6-.6v-21.3h2.1v21.3c0 .3.2.6.6.6h3.2c.3 0 .6-.3.6-.6v-21.3h2v21.3c0 .3.2.6.6.6h3.2c.4 0 .7-.3.6-.6v-21.3h2.1v21.3c0 .3.2.6.6.6h3.2c.4 0 .7-.3.6-.6v-21.3h2.1v21.3c0 .3.2.6.6.6h3.2c.4 0 .7-.3.6-.6v-21.3h2.1v21.3c0 .3.2.6.6.6h3.2c.4 0 .6-.3.6-.6v-21.3h2.1v21.3c0 .3.2.6.6.6h3.2c.3 0 .6-.3.6-.6v-21.3h2.1v21.3c0 .3.2.6.6.6h3.2c.3 0 .6-.3.6-.6v-21.3h2v21.3c0 .3.2.6.6.6h3.2c.4 0 .7-.3.6-.6v-21.3h2.1v21.3c0 .3.2.6.6.6h3.2c.4 0 .7-.3.6-.6v-21.3h2.1v21.3c0 .3.2.6.6.6h3.2c.4 0 .7-.3.6-.6v-21.3h2.1v21.3c0 .3.2.6.6.6h3.2c.4 0 .6-.3.6-.6v-21.3h2v21.3c0 .3.2.6.6.6h3.3c.3 0 .6-.3.5-.6v-21.3h2.2v21.3c0 .3.2.6.6.6h3.2c.3 0 .6-.3.6-.6v-21.3h2v21.3c0 .3.2.6.6.6h3.3c.3 0 .6-.3.5-.6v-21.3c5.8-.1 10.3-4.6 10.4-10.3h21.1c.3 0 .6-.2.6-.6V210c0-.3-.2-.6-.6-.6h-21.1v-2h21.1c.3 0 .6-.2.6-.6v-3.2c0-.3-.2-.6-.6-.6h-21.1v-2.2h21.1c.3 0 .6-.2.6-.6V197c0-.3-.2-.6-.6-.6h-21.1v-2h21.1c.3 0 .6-.2.6-.6v-3.2c0-.3-.2-.6-.6-.6h-21.1v-2.1h21.1c.3 0 .6-.2.6-.6v-3.2c0-.3-.2-.6-.6-.6h-21.1v-2.1h21.1c.3 0 .6-.2.6-.6v-3.2c0-.3-.2-.6-.6-.6h-21.1v-2.1h21.1c.3 0 .6-.2.6-.6v-3.2c0-.3-.2-.6-.6-.6h-21.1v-2h21.1c.3 0 .6-.2.6-.6v-3.2c0-.3-.2-.6-.6-.6h-21.1V162h21.1c.3 0 .6-.2.6-.6v-3.2c0-.3-.2-.6-.6-.6h-21.1v-2.1h21.1c.3 0 .6-.2.6-.6v-3.2c0-.3-.2-.6-.6-.6h-21.1V149h21.1c.3 0 .6-.2.6-.6v-3.2c0-.3-.2-.6-.6-.6h-21.1v-2.1h21.1c.3 0 .6-.2.6-.6v-3.2c0-.3-.2-.6-.6-.6h-21.1V136h21.1c.3 0 .6-.2.6-.6v-3.2c0-.3-.2-.6-.6-.6h-21.1v-2h21.1c.3 0 .6-.2.6-.6v-3.2c0-.3-.2-.6-.6-.6h-21.1v-2.1h21.1c.3 0 .6-.2.6-.6v-3.2c0-.3-.2-.6-.6-.6h-21.1v-2.1h21.1c.3 0 .6-.2.6-.6v-3.2c0-.3-.2-.6-.6-.6h-21.1c-.1-5.8-4.7-10.3-10.4-10.3V80.6c0-.3-.2-.6-.6-.6H303c-.3 0-.6.3-.6.6v21.3h-2.1V80.6c0-.3-.2-.6-.6-.6h-3.2c-.3 0-.6.3-.6.6v21.3h-2.1V80.6c0-.3-.2-.6-.6-.6H290c-.3 0-.6.3-.6.6v21.3h-2V80.6c0-.3-.2-.6-.6-.6h-3.2c-.4 0-.7.3-.6.6v21.3h-2.1V80.6c0-.3-.2-.6-.6-.6h-3.2c-.4 0-.7.3-.6.6v21.3h-2.1V80.6c0-.3-.2-.6-.6-.6h-3.2c-.4 0-.7.3-.6.6v21.3h-2.1V80.6c0-.3-.2-.6-.6-.6h-3.2c-.4 0-.6.3-.6.6v21.3h-2.1V80.6c0-.3-.2-.6-.6-.6h-3.2c-.3 0-.6.3-.6.6v21.3h-2.1V80.6c0-.3-.2-.6-.6-.6h-3.2c-.3 0-.6.3-.6.6v21.3h-2V80.6c0-.3-.2-.6-.6-.6h-3.2c-.4 0-.7.3-.6.6v21.3H242V80.6c0-.3-.2-.6-.6-.6h-3.2c-.4 0-.7.3-.6.6v21.3h-2.1V80.6c0-.3-.2-.6-.6-.6h-3.2c-.4 0-.7.3-.6.6v21.3H229V80.6c0-.3-.2-.6-.6-.6h-3.2c-.4 0-.6.3-.6.6v21.3h-2.1V80.6c0-.3-.2-.6-.6-.6h-3.2c-.3 0-.6.3-.6.6v21.3H216V80.6c0-.3-.2-.6-.6-.6h-3.2c-.3 0-.6.3-.6.6v21.3h-2.1V80.6c0-.3-.2-.6-.6-.6h-3.2c-.3 0-.6.3-.6.6v21.3c-5.6.1-10.1 4.6-10.2 10.2h-21.2c-.3 0-.6.2-.6.6v3.2c0 .3.2.6.6.6h21.2v2.1h-21.2c-.3 0-.6.2-.6.6v3.2c0 .3.2.6.6.6h21.2v2.1h-21.2c-.3 0-.6.2-.6.6v3.2c0 .3.2.6.6.6h21.2v2.1h-21.2c-.3 0-.6.2-.6.6v3.2c0 .3.2.6.6.6h21.2v2.1h-21.2c-.3 0-.6.2-.6.6v3.2c0 .3.2.6.6.6h21.2v2.1h-21.2c-.3 0-.6.2-.6.6v3.2c0 .3.2.6.6.6h21.2v2.1h-21.2c-.3 0-.6.2-.6.6v3.2c0 .3.2.6.6.6h21.2v2h-21.2c-.3 0-.6.2-.6.6v3.2c0 .3.2.6.6.6h21.2v2.1h-21.2c-.3 0-.6.2-.6.6v3.2c0 .3.2.6.6.6h21.2v2.1h-21.2c-.3 0-.6.2-.6.6v3.2c0 .3.2.6.6.6h21.2v2.1h-21.2c-.3 0-.6.2-.6.6v3.2c0 .3.2.6.6.6h21.2v2.1h-21.2c-.3 0-.6.2-.6.6v3.2c0 .3.2.6.6.6h21.2v2.1h-21.2c-.3 0-.6.2-.6.6v3.2c0 .3.2.6.6.6h21.2v2h-21.2c-.3 0-.6.2-.6.6v3.2c0 .3.2.6.6.6h21.2v2.1h-21.2c-.3 0-.6.2-.6.6v3.2c0 .3.2.6.6.6h21.2zM176 58c0 6.1 4.9 11 11 11s11-4.9 11-11-4.9-11-11-11-11 4.9-11 11zm11-21c6.1 0 11-4.9 11-11s-4.9-11-11-11-11 4.9-11 11 4.9 11 11 11zm19 21c0 6.1 4.9 11 11 11s11-4.9 11-11-4.9-11-11-11-11 4.9-11 11zm11-21c6.1 0 11-4.9 11-11s-4.9-11-11-11-11 4.9-11 11 4.9 11 11 11zm19 21c0 6.1 4.9 11 11 11s11-4.9 11-11-4.9-11-11-11-11 4.9-11 11zm11-21c6.1 0 11-4.9 11-11s-4.9-11-11-11-11 4.9-11 11 4.9 11 11 11zm19 21c0 6.1 4.9 11 11 11s11-4.9 11-11-4.9-11-11-11-11 4.9-11 11zm11-21c6.1 0 11-4.9 11-11s-4.9-11-11-11-11 4.9-11 11 4.9 11 11 11zm19 21c0 6.1 4.9 11 11 11s11-4.9 11-11-4.9-11-11-11-11 4.9-11 11zm11-21c6.1 0 11-4.9 11-11s-4.9-11-11-11-11 4.9-11 11 4.9 11 11 11zm41 21c0-6.1-4.9-11-11-11s-11 4.9-11 11 4.9 11 11 11 11-4.9 11-11zm-.5 174.3h-16.1c-.8 0-1.4.6-1.4 1.4v4.9c0 .8.6 1.4 1.4 1.4h16.1c.8 0 1.4-.6 1.4-1.4v-4.9c0-.8-.6-1.4-1.4-1.4zm-19.2 77.3v-4.5c0-.8-.6-1.4-1.4-1.4H322c-.8 0-1.4.6-1.4 1.4v16.1c0 .8.6 1.4 1.4 1.4h4.9c.8 0 1.4-.6 1.4-1.4v-11.6zm-15.8-7.6c.8 0 1.4-.6 1.4-1.4v-4.9c0-.8-.6-1.4-1.4-1.4h-16.1c-.8 0-1.4.6-1.4 1.4v4.9c0 .8.6 1.4 1.4 1.4h16.1zm-3.5 8h-18c-1.1 0-2 .9-2 2v9c0 1.1.9 2 2 2h18c1.1 0 2-.9 2-2v-9c0-1.1-.9-2-2-2zm4.9-24.4v-4.9c0-.8-.6-1.4-1.4-1.4h-16.1c-.8 0-1.4.6-1.4 1.4v4.9c0 .8.6 1.4 1.4 1.4h16.1c.8 0 1.4-.6 1.4-1.4zm0-13v-4.9c0-.8-.6-1.4-1.4-1.4h-16.1c-.8 0-1.4.6-1.4 1.4v4.9c0 .8.6 1.4 1.4 1.4h16.1c.8 0 1.4-.6 1.4-1.4zM222 285l-17-35-17 35 17-8 17 8zm-17 8h-9c-1.1 0-2 .9-2 2v18c0 1.1.9 2 2 2h9c1.1 0 2-.9 2-2v-18c0-1.1-.9-2-2-2zm-34.1-60.7h-4.5c-.8 0-1.4.6-1.4 1.4v4.9c0 .8.6 1.4 1.4 1.4h16.1c.8 0 1.4-.6 1.4-1.4v-4.9c0-.8-.6-1.4-1.4-1.4h-11.6zm12.4 62.9v-16.1c0-.8-.6-1.4-1.4-1.4H177c-.8 0-1.4.6-1.4 1.4v16.1c0 .8.6 1.4 1.4 1.4h4.9c.8 0 1.4-.6 1.4-1.4zm-1.4 6.5H177c-.8 0-1.4.6-1.4 1.4v16.1c0 .8.6 1.4 1.4 1.4h4.9c.8 0 1.4-.6 1.4-1.4v-16.1c0-.8-.6-1.4-1.4-1.4zm2-35.1v-4.9c0-.8-.6-1.4-1.4-1.4h-16.1c-.8 0-1.4.6-1.4 1.4v4.9c0 .8.6 1.4 1.4 1.4h16.1c.8 0 1.4-.6 1.4-1.4zM150 310.5v-18h15c1.1 0 2-.9 2-2v-2c0-1.1-.9-2-2-2h-15v-.5c0-1.1-.9-2-2-2h-12c-1.1 0-2 .9-2 2v.5h-12c-1.1 0-2 .9-2 2v2c0 1.1.9 2 2 2h12v6.1h-6c-1.1 0-2-.3-2-.8s-.9-.8-2-.8h-2c-1.1 0-2 .3-2 .8v7.6c0 .5.9.8 2 .8h2c1.1 0 2-.3 2-.8s.9-.8 2-.8h6v5.9h-12c-1.1 0-2 .9-2 2v2c0 1.1.9 2 2 2h12v.5c0 1.1.9 2 2 2h12c1.1 0 2-.9 2-2v-.5h15c1.1 0 2-.9 2-2v-2c0-1.1-.9-2-2-2h-15zm11.5 26.5c.8 0 1.4-.6 1.4-1.4v-4.9c0-.8-.6-1.4-1.4-1.4h-16.1c-.8 0-1.4.6-1.4 1.4v4.9c0 .8.6 1.4 1.4 1.4h16.1zm-2.5 10.5h-6.1c-.2-.9-1-1.5-1.9-1.5h-12c-.9 0-1.7.6-1.9 1.5H131c-1.1 0-2 .9-2 2v1c0 1.1.9 2 2 2h6.1c.2.9 1 1.5 1.9 1.5h12c.9 0 1.7-.6 1.9-1.5h6.1c1.1 0 2-.9 2-2v-1c0-1.1-.9-2-2-2zm-12-179.8v4.9c0 .8.6 1.4 1.4 1.4h16.1c.8 0 1.4-.6 1.4-1.4v-4.9c0-.8-.6-1.4-1.4-1.4h-16.1c-.8 0-1.4.6-1.4 1.4zm1.4-10.7h16.1c.8 0 1.4-.6 1.4-1.4v-4.9c0-.8-.6-1.4-1.4-1.4h-16.1c-.8 0-1.4.6-1.4 1.4v4.9c0 .8.6 1.4 1.4 1.4zm-1.4 28.7v4.9c0 .8.6 1.4 1.4 1.4h16.1c.8 0 1.4-.6 1.4-1.4v-4.9c0-.8-.6-1.4-1.4-1.4h-16.1c-.8 0-1.4.6-1.4 1.4zm0 13v4.9c0 .8.6 1.4 1.4 1.4h16.1c.8 0 1.4-.6 1.4-1.4v-4.9c0-.8-.6-1.4-1.4-1.4h-16.1c-.8 0-1.4.6-1.4 1.4zm0 15v4.9c0 .8.6 1.4 1.4 1.4h16.1c.8 0 1.4-.6 1.4-1.4v-4.9c0-.8-.6-1.4-1.4-1.4h-16.1c-.8 0-1.4.6-1.4 1.4zm-3.5 16.3H121c-1.1 0-2 .9-2 2v6c0 1.1.9 2 2 2h27.7c1.1 0 2-.9 2-2v-6c0-1.1-.9-2-2-2h-5.2zm-18.4 29h23.6c1.1 0 2-.9 2-2v-6c0-1.1-.9-2-2-2H121c-1.1 0-2 .9-2 2v6c0 1.1.9 2 2 2h4.1zm-6.1-60.3v4.9c0 .8.6 1.4 1.4 1.4h16.1c.8 0 1.4-.6 1.4-1.4v-4.9c0-.8-.6-1.4-1.4-1.4h-16.1c-.8 0-1.4.6-1.4 1.4zm1.4-6.7h16.1c.8 0 1.4-.6 1.4-1.4v-4.9c0-.8-.6-1.4-1.4-1.4h-16.1c-.8 0-1.4.6-1.4 1.4v4.9c0 .8.6 1.4 1.4 1.4zm-1.4 21.7v4.9c0 .8.6 1.4 1.4 1.4h16.1c.8 0 1.4-.6 1.4-1.4v-4.9c0-.8-.6-1.4-1.4-1.4h-16.1c-.8 0-1.4.6-1.4 1.4zm18.9-46c0-.8-.6-1.4-1.4-1.4h-16.1c-.8 0-1.4.6-1.4 1.4v4.9c0 .8.6 1.4 1.4 1.4h16.1c.8 0 1.4-.6 1.4-1.4v-4.9zM120 142.6h4.9c.8 0 1.4-.6 1.4-1.4v-16.1c0-.8-.6-1.4-1.4-1.4H120c-.8 0-1.4.6-1.4 1.4v16.1c0 .8.6 1.4 1.4 1.4zM119 273c0 1.1.9 2 2 2h27.7c1.1 0 2-.9 2-2v-6c0-1.1-.9-2-2-2H121c-1.1 0-2 .9-2 2v6zm64.9-21.4v-4.9c0-.8-.6-1.4-1.4-1.4h-16.1c-.8 0-1.4.6-1.4 1.4v4.9c0 .8.6 1.4 1.4 1.4h16.1c.8 0 1.4-.6 1.4-1.4zM146 58c0 6.1 4.9 11 11 11s11-4.9 11-11-4.9-11-11-11-11 4.9-11 11zm11-21c6.1 0 11-4.9 11-11s-4.9-11-11-11-11 4.9-11 11 4.9 11 11 11zm-25.1 112.3h-11.5c-.8 0-1.4.6-1.4 1.4v4.9c0 .8.6 1.4 1.4 1.4h16.1c.8 0 1.4-.6 1.4-1.4v-4.9c0-.8-.6-1.4-1.4-1.4h-4.6zM127 67.5c0-6.9-5.6-12.5-12.5-12.5S102 60.6 102 67.5 107.6 80 114.5 80 127 74.4 127 67.5zM95.2 86.2c-1.8-2-5-2.2-7.1-.4l-8.9 8c-2 1.8-2.2 5-.4 7.1l8 8.9c1.9 2.1 5.1 2.2 7.1.4l8.9-8c2-1.8 2.2-5 .4-7.1l-8-8.9zM91 48c0-15.7-12.8-28.5-28.5-28.5S34 32.3 34 48s12.8 28.5 28.5 28.5S91 63.7 91 48zm3.8 357.4l8 8.9c1.8 2 5 2.2 7.1.4l8.9-8c2-1.8 2.2-5 .4-7.1l-8-8.9c-1.8-2-5-2.2-7.1-.4l-8.9 8c-2 1.8-2.2 5-.4 7.1zm30.1-68.4h11.6c.8 0 1.4-.6 1.4-1.4v-4.9c0-.8-.6-1.4-1.4-1.4h-16.1c-.8 0-1.4.6-1.4 1.4v4.9c0 .8.6 1.4 1.4 1.4h4.5zm4.1 30.5c0 1.1.9 2 2 2h6.1c.2.9 1 1.5 1.9 1.5h12c.9 0 1.7-.6 1.9-1.5h6.1c1.1 0 2-.9 2-2v-1c0-1.1-.9-2-2-2h-6.1c-.2-.9-1-1.5-1.9-1.5h-12c-.9 0-1.7.6-1.9 1.5H131c-1.1 0-2 .9-2 2v1zm210-44.9h4.9c.8 0 1.4-.6 1.4-1.4v-16.1c0-.8-.6-1.4-1.4-1.4H339c-.8 0-1.4.6-1.4 1.4v16.1c0 .8.6 1.4 1.4 1.4zm39.5-59.6v-12c0-1.1-.9-2-2-2h-2c-1.1 0-2 .9-2 2v12h-.5c-1.1 0-2 .9-2 2v12c0 1.1.9 2 2 2h.5v15c0 1.1.9 2 2 2h2c1.1 0 2-.9 2-2v-15h18v15c0 1.1.9 2 2 2h2c1.1 0 2-.9 2-2v-15h.5c1.1 0 2-.9 2-2v-12c0-1.1-.9-2-2-2h-.5v-12c0-1.1-.9-2-2-2h-2c-1.1 0-2 .9-2 2v12h-6.1v-6c0-1.1.3-2 .8-2 .4 0 .8-.9.8-2v-2c0-1.1-.3-2-.8-2h-7.6c-.4 0-.8.9-.8 2v2c0 1.1.3 2 .8 2 .4 0 .8.9.8 2v6h-5.9zm13.8 46.6v-4.5c0-.8-.6-1.4-1.4-1.4H386c-.8 0-1.4.6-1.4 1.4v16.1c0 .8.6 1.4 1.4 1.4h4.9c.8 0 1.4-.6 1.4-1.4v-11.6zm-7.8 104.9c0 6.9 5.6 12.5 12.5 12.5s12.5-5.6 12.5-12.5S403.9 402 397 402s-12.5 5.6-12.5 12.5zm22.4-91.9c.8 0 1.4-.6 1.4-1.4v-16.1c0-.8-.6-1.4-1.4-1.4H402c-.8 0-1.4.6-1.4 1.4v16.1c0 .8.6 1.4 1.4 1.4h4.9zM408 233v-18c0-1.1-.9-2-2-2h-9c-1.1 0-2 .9-2 2v18c0 1.1.9 2 2 2h9c1.1 0 2-.9 2-2zm-.8-163.9l-8-8.9c-1.8-2-5-2.2-7.1-.4l-8.9 8c-2 1.8-2.2 5-.4 7.1l8 8.9c1.9 2.1 5.1 2.2 7.1.4l8.9-8c2-1.8 2.2-5 .4-7.1zM381 221.7c-.8 0-1.4.6-1.4 1.4v16.1c0 .8.6 1.4 1.4 1.4h4.9c.8 0 1.4-.6 1.4-1.4v-16.1c0-.8-.6-1.4-1.4-1.4H381zm-3.7 87.9v-4.5c0-.8-.6-1.4-1.4-1.4H371c-.8 0-1.4.6-1.4 1.4v16.1c0 .8.6 1.4 1.4 1.4h4.9c.8 0 1.4-.6 1.4-1.4v-11.6zm-4.4-196.9c0-.8-.6-1.4-1.4-1.4h-16.1c-.8 0-1.4.6-1.4 1.4v4.9c0 .8.6 1.4 1.4 1.4h16.1c.8 0 1.4-.6 1.4-1.4v-4.9zm-18.9 15v4.9c0 .8.6 1.4 1.4 1.4h16.1c.8 0 1.4-.6 1.4-1.4v-4.9c0-.8-.6-1.4-1.4-1.4h-16.1c-.8 0-1.4.6-1.4 1.4zm15 20.3h-9c-1.1 0-2 .9-2 2v18c0 1.1.9 2 2 2h9c1.1 0 2-.9 2-2v-18c0-1.1-.9-2-2-2zm-15 36.7v4.9c0 .8.6 1.4 1.4 1.4h16.1c.8 0 1.4-.6 1.4-1.4v-4.9c0-.8-.6-1.4-1.4-1.4h-16.1c-.8 0-1.4.6-1.4 1.4zm0 18v4.9c0 .8.6 1.4 1.4 1.4h16.1c.8 0 1.4-.6 1.4-1.4v-4.9c0-.8-.6-1.4-1.4-1.4h-16.1c-.8 0-1.4.6-1.4 1.4zm0 15v4.9c0 .8.6 1.4 1.4 1.4h16.1c.8 0 1.4-.6 1.4-1.4v-4.9c0-.8-.6-1.4-1.4-1.4h-16.1c-.8 0-1.4.6-1.4 1.4zm0 16v4.9c0 .8.6 1.4 1.4 1.4h16.1c.8 0 1.4-.6 1.4-1.4v-4.9c0-.8-.6-1.4-1.4-1.4h-16.1c-.8 0-1.4.6-1.4 1.4zm-1.4 87.5c0 .8.6 1.4 1.4 1.4h4.9c.8 0 1.4-.6 1.4-1.4v-16.1c0-.8-.6-1.4-1.4-1.4H354c-.8 0-1.4.6-1.4 1.4v16.1zm1.4 102.2c0 1.1.9 2 2 2h14c1.1 0 2-.9 2-2V397c0-1.1-.9-2-2-2h-14c-1.1 0-2 .9-2 2v26.4zm18.6-48.4h4.8c.4 0 .8-.9.8-2v-2c0-1.1-.3-2-.8-2-.4 0-.8-.9-.8-2v-6h5.9v12c0 1.1.9 2 2 2h2c1.1 0 2-.9 2-2v-12h.5c1.1 0 2-.9 2-2v-12c0-1.1-.9-2-2-2h-.5v-15c0-1.1-.9-2-2-2h-2c-1.1 0-2 .9-2 2v15h-18v-15c0-1.1-.9-2-2-2h-2c-1.1 0-2 .9-2 2v15h-.5c-1.1 0-2 .9-2 2v12c0 1.1.9 2 2 2h.5v12c0 1.1.9 2 2 2h2c1.1 0 2-.9 2-2v-12h6.1v6c0 1.1-.3 2-.8 2-.4 0-.8.9-.8 2v2c0 1.1.3 2 .8 2h2.8zm3.9 83c0 11.6 9.4 21 21 21s21-9.4 21-21-9.4-21-21-21-21 9.4-21 21zm46.9-61.8l8.9-8c2-1.8 2.2-5 .4-7.1l-8-8.9c-1.8-2-5-2.2-7.1-.4l-8.9 8c-2 1.8-2.2 5-.4 7.1l8 8.9c1.9 2.1 5.1 2.2 7.1.4zm14.6-66.7c5.2 0 9.5-4.3 9.5-9.5s-4.3-9.5-9.5-9.5-9.5 4.3-9.5 9.5 4.3 9.5 9.5 9.5zm9.5-41.5c0-5.2-4.3-9.5-9.5-9.5s-9.5 4.3-9.5 9.5 4.3 9.5 9.5 9.5 9.5-4.3 9.5-9.5zm0-32c0-5.2-4.3-9.5-9.5-9.5s-9.5 4.3-9.5 9.5 4.3 9.5 9.5 9.5 9.5-4.3 9.5-9.5zm0-32c0-5.2-4.3-9.5-9.5-9.5s-9.5 4.3-9.5 9.5 4.3 9.5 9.5 9.5 9.5-4.3 9.5-9.5zm0-32c0-5.2-4.3-9.5-9.5-9.5s-9.5 4.3-9.5 9.5 4.3 9.5 9.5 9.5 9.5-4.3 9.5-9.5zM438 95.5c0-6.9-5.6-12.5-12.5-12.5S413 88.6 413 95.5s5.6 12.5 12.5 12.5 12.5-5.6 12.5-12.5zM337 15c-6.1 0-11 4.9-11 11s4.9 11 11 11 11-4.9 11-11-4.9-11-11-11zM20.5 92.2v26.5l9.6 10.7c3.5 3.9 9.5 4.2 13.3.7l15-13.5c3.9-3.5 4.2-9.5.7-13.3L42.7 84.9c-3.5-3.9-9.5-4.2-13.3-.7l-8.9 8zM478 438c0-15.7-12.8-28.5-28.5-28.5S421 422.3 421 438s12.8 28.5 28.5 28.5S478 453.7 478 438zm-30.5-278c0-5.2-4.3-9.5-9.5-9.5s-9.5 4.3-9.5 9.5 4.3 9.5 9.5 9.5 9.5-4.3 9.5-9.5zm2-83.5c15.7 0 28.5-12.8 28.5-28.5s-12.8-28.5-28.5-28.5S421 32.3 421 48s12.8 28.5 28.5 28.5zm41.9 286.4l-11-12.2c-3.5-3.9-9.5-4.2-13.3-.7l-15 13.5c-3.9 3.5-4.2 9.5-.7 13.3l16.5 18.3c3.5 3.9 9.5 4.2 13.3.7l10.2-9.2v-23.7z"/></svg>