<svg version="1.1" xmlns="http://www.w3.org/2000/svg" x="0" y="0" viewBox="0 0 512 512" xml:space="preserve"><path d="M256 302c-57.2 0-111.4-8.5-152.7-24-19.1-7.2-35-15.7-47.3-25.3V315c0 41.4 89.5 75 200 75s200-33.6 200-75v-62.3c-12.4 9.6-28.3 18.1-47.3 25.3-41.3 15.5-95.5 24-152.7 24zm159 0v40c0 4.4-3.6 8-8 8s-8-3.6-8-8v-40c0-4.4 3.6-8 8-8s8 3.6 8 8zM56 75c0-41.4 89.5-75 200-75s200 33.6 200 75-89.5 75-200 75S56 116.4 56 75zm200 107c-57.2 0-111.4-8.5-152.7-24-19.1-7.2-35-15.7-47.3-25.3V195c0 41.4 89.5 75 200 75s200-33.6 200-75v-62.3c-12.4 9.6-28.3 18.1-47.3 25.3-41.3 15.5-95.5 24-152.7 24zm159 0v40c0 4.4-3.6 8-8 8s-8-3.6-8-8v-40c0-4.4 3.6-8 8-8s8 3.6 8 8zM256 422c-57.2 0-111.4-8.5-152.7-24-19.1-7.2-35-15.7-47.3-25.3V437c0 41.4 89.5 75 200 75s200-33.6 200-75v-64.3c-12.4 9.6-28.3 18.1-47.3 25.3-41.3 15.5-95.5 24-152.7 24zm159 0v40c0 4.4-3.6 8-8 8s-8-3.6-8-8v-40c0-4.4 3.6-8 8-8s8 3.6 8 8z"/></svg>