<svg version="1.1" xmlns="http://www.w3.org/2000/svg" x="0" y="0" viewBox="0 0 512 512" xml:space="preserve"><path d="M42.5 207.5L37.9 220l4.6 12.5-20-12.5 20-12.5zM474.1 220l-4.6 12.5 20-12.5-20-12.5 4.6 12.5zM236 269.5c-2.8 0-5 2.2-5 5s2.2 5 5 5 5-2.2 5-5-2.2-5-5-5zm20 0c-2.8 0-5 2.2-5 5s2.2 5 5 5 5-2.2 5-5-2.2-5-5-5zm20 0c-2.8 0-5 2.2-5 5s2.2 5 5 5 5-2.2 5-5-2.2-5-5-5zM512 76v360H0V76h512zm-186 44h80v-12h-80v12zm-93 0h80v-12h-80v12zm-220-6c0 13.8 11.2 25 25 25s25-11.2 25-25-11.2-25-25-25-25 11.2-25 25zm218 297H13v12h218v-12zm0-25H13v12h218v-12zm0-25H13v12h218v-12zm0-25H13v12h218v-12zm0-25H13v12h218v-12zm268 100H281v12h218v-12zm0-25H281v12h218v-12zm-218-50v12h109v-12H281zm109-13v-12H281v12h109zm-109 38v12h109v-12H281zm218-42c0-4.4-3.6-8-8-8h-80c-4.4 0-8 3.6-8 8v46c0 4.4 3.6 8 8 8h80c4.4 0 8-3.6 8-8v-46zm0-161c0-4.4-3.6-8-8-8H21c-4.4 0-8 3.6-8 8v124c0 4.4 3.6 8 8 8h470c4.4 0 8-3.6 8-8V158zm0-50h-80v12h80v-12z"/></svg>