<svg version="1.1" xmlns="http://www.w3.org/2000/svg" x="0" y="0" viewBox="0 0 512 512" xml:space="preserve"><path d="M493.1 305.6C521.3 166.3 452.3 0 256 0S-9.3 166.3 18.9 305.6l9.8-2.1c.9 3.9 1.9 7.8 3 11.6l-9.4 2s2.6 9.9 5.6 19.9c2.7 9 6.2 17.2 6.9 18.7-6.2 4.6 3 41.3 20.9 83.4 18.4 43.2 39.1 75.7 46.2 72.7.3-.1.5-.3.8-.5l9.4-6.6c1-.7 2.2-1.2 3.4-1.5l8.2-2c4.5-1.1 7.7-5.2 7.6-9.8v-2.6c.5.3.9.4 1.2.3l24.7 3.4c4 3.3 7.3 4.7 9.8 3.6l12.8-11c5.9-4.6-4.5-43.6-23.7-88.7s-40.2-79.6-47.6-78.5l-16.7 1.6c-2.5 1.1-3.8 4.4-4.2 9.5l-14.7 20.2s-.1 0-.1.1c-1.3-1.9-3.9-2.7-6.1-1.8l-10.6-32.9-6.5-.7c-1.3-4.1-2.4-8.2-3.3-12.4l7.6.8C31.1 184.1 91.1 44.6 256 44.6s224.9 139.5 202.1 257.7l7.6-.8c-.9 4.2-2 8.3-3.3 12.4l-6.5.7-10.6 32.9c-2.2-1-4.8-.2-6.1 1.8 0 0 0-.1-.1-.1L424.4 329c-.3-5.1-1.7-8.5-4.2-9.5l-16.7-1.6c-7.4-1.1-28.3 33.4-47.6 78.5-19.2 45.1-29.6 84.1-23.7 88.7l12.8 11c2.5 1.1 5.8-.3 9.8-3.6l24.7-3.4c.3.1.7 0 1.2-.3v2.6c0 4.6 3.1 8.7 7.6 9.8l8.2 2c1.2.3 2.4.8 3.4 1.5l9.4 6.6c.2.2.5.4.8.5 7.1 3 27.8-29.5 46.2-72.7 18-42.1 27.1-78.8 20.9-83.4.7-1.5 4.2-9.7 6.9-18.7 3-10 5.6-19.9 5.6-19.9l-9.4-2c1.2-3.8 2.2-7.7 3-11.6l9.8 2.1z"/></svg>