<svg version="1.1" xmlns="http://www.w3.org/2000/svg" x="0" y="0" viewBox="0 0 512 512" xml:space="preserve"><path d="M237.1 351.5H73.6c-8.8 0-16-7.2-16-16v-73.4h120.6c.3 2 .7 4 1.1 6 9.4 49 31.7 83.4 57.8 83.4zM88.3 254.8h92.6c1.4-1.7 2.7-3.4 3.8-5.2 6.3-9.5 10-20.9 10-33.2 0-12.3-3.7-23.7-10-33.2-1.2-1.8-2.5-3.5-3.8-5.2H57.6v76.7h30.7zm112-130.3c-6.2 13.3-10.8 29.1-13.8 46.4-.1.4-.1.7-.2 1.1 1.7 2 3.3 4 4.8 6.2 7.4 10.9 11.8 24.1 11.8 38.3 0 14.2-4.4 27.4-11.8 38.3-1.5 2.2-3.1 4.2-4.8 6.2.1.4.1.7.2 1.1 3 17.3 7.6 33.1 13.8 46.4 10.2 22.1 23.6 34.8 36.8 34.8 13.1 0 26.5-12.7 36.8-34.8 6.2-13.3 10.8-29.1 13.8-46.4.1-.4.1-.7.2-1.1-1.7-2-3.3-4-4.8-6.2-7.4-10.9-11.8-24.1-11.8-38.3 0-14.2 4.4-27.4 11.8-38.3 1.5-2.2 3.1-4.2 4.8-6.2-.1-.4-.1-.7-.2-1.1-3-17.3-7.6-33.1-13.8-46.4-10.2-22.1-23.6-34.8-36.8-34.8-13.2 0-26.6 12.7-36.8 34.8zM95.5 170.9h82.7c.3-2 .7-4 1.1-6 9.4-48.9 31.7-83.4 57.8-83.4H73.6c-8.8 0-16 7.2-16 16v73.4h37.9zm290.3 7.2h-92.6c-1.4 1.7-2.7 3.4-3.8 5.2-6.3 9.5-10 20.9-10 33.2 0 12.3 3.7 23.7 10 33.2 1.2 1.8 2.5 3.5 3.8 5.2h123.4v-76.7h-30.8zm-7.2 84H296c-.3 2-.7 4-1.1 6-9.4 48.9-31.7 83.4-57.8 83.4h163.4c8.8 0 16-7.2 16-16v-73.4h-37.9zM512 80.7v297.6l-86.9 86H32.9c-18.2 0-32.9-14.8-32.9-33V80.7c0-18.2 14.7-32.9 32.9-32.9H479c18.3-.1 33 14.7 33 32.9zm-88.2 16.8c0-12.8-10.4-23.3-23.3-23.3H73.6c-12.8 0-23.3 10.4-23.3 23.3v238c0 12.8 10.4 23.3 23.3 23.3h326.9c12.8 0 23.3-10.4 23.3-23.3v-238zm-23.3-16H237.1c26.1 0 48.4 34.4 57.8 83.4.4 2 .7 4 1.1 6h120.6V97.5c-.1-8.8-7.2-16-16.1-16z"/></svg>