<svg version="1.1" xmlns="http://www.w3.org/2000/svg" x="0" y="0" viewBox="0 0 512 512" xml:space="preserve"><path d="M506 67H6c-3.3 0-6 2.7-6 6v366c0 3.3 2.7 6 6 6h500c3.3 0 6-2.7 6-6V73c0-3.3-2.7-6-6-6zm-26 340c0 3.3-2.7 6-6 6H38c-3.3 0-6-2.7-6-6V105c0-3.3 2.7-6 6-6h436c3.3 0 6 2.7 6 6v302zm-92.9-113.7l54.4 87.7H71.8l67.6-109 37.4-60c2-3.2 6.5-3.2 8.5 0l39.7 64 54.7 88.1 45.7-73.7 25.8-41.3c2-3.2 6.5-3.2 8.5 0l27.4 44.2zM91.5 190.2c0-18 14.6-32.6 32.6-32.6s32.6 14.6 32.6 32.6-14.6 32.6-32.6 32.6-32.6-14.6-32.6-32.6zm149.7 39.6c0-7.1 5.9-13 13-13 1.2-3.9 3.5-7.4 6.7-10 3.6-2.9 8.1-4.5 12.7-4.5 5.8 0 11.3 2.5 15.1 6.8 1.2-.3 2.5-.5 3.7-.5 4.7 0 8.9 2.6 11 6.7 5.7 1.8 9.7 7.3 9.7 13.4 0 7.8-6.3 14.1-14.1 14.1h-44.8c-7.2 0-13-5.8-13-13zm113.7-41c0-7.1 5.9-13 13-13 1.2-3.9 3.5-7.4 6.7-10 3.6-2.9 8.1-4.5 12.7-4.5 5.8 0 11.3 2.5 15.1 6.8 1.2-.3 2.5-.5 3.7-.5 4.7 0 8.9 2.6 11 6.7 5.7 1.8 9.7 7.3 9.7 13.4 0 7.8-6.3 14.1-14.1 14.1h-44.8c-7.2 0-13-5.8-13-13z"/></svg>