<svg version="1.1" xmlns="http://www.w3.org/2000/svg" x="0" y="0" viewBox="0 0 512 512" xml:space="preserve"><path d="M20.5 237.7c-.1-.1-.3-.1-.5-.2 5.5-4.2 12.3-6.5 19.3-6.5h466.5c2.9 0 4.8 3 3.7 5.6L505 247l-468.8-2c-2.2 0-4.4-.6-6.2-1.7l-9.5-5.6zm491.4 14.8c-2.8 4.9-23.5 28.5-51.2 28.5h-421c-12.8 0-29.2-8-33.3-15-4.1-7-5.9-15.1-5.9-15.1-2-5.2 1.9-10.9 7.6-10.9h6.2c1.5 0 2.9.4 4.2 1.1l9.4 5.6c2.5 1.5 5.4 2.3 8.3 2.3l474.8 2c.8 0 1.2.8.9 1.5zM28 258c0-1.1-.9-2-2-2h-7c-1.1 0-2 .9-2 2v2c0 1.1.9 2 2 2h7c1.1 0 2-.9 2-2v-2zm25 2.5c0-3-2.5-5.5-5.5-5.5s-5.5 2.5-5.5 5.5 2.5 5.5 5.5 5.5 5.5-2.5 5.5-5.5zm25-4.5c0-1.1-.9-2-2-2h-2c-1.1 0-2 .9-2 2v11c0 1.1.9 2 2 2h2c1.1 0 2-.9 2-2v-11zm8 0c0-1.1-.9-2-2-2h-2c-1.1 0-2 .9-2 2v11c0 1.1.9 2 2 2h2c1.1 0 2-.9 2-2v-11zm8 0c0-1.1-.9-2-2-2h-2c-1.1 0-2 .9-2 2v11c0 1.1.9 2 2 2h2c1.1 0 2-.9 2-2v-11zm8 0c0-1.1-.9-2-2-2h-2c-1.1 0-2 .9-2 2v11c0 1.1.9 2 2 2h2c1.1 0 2-.9 2-2v-11zm8 0c0-1.1-.9-2-2-2h-2c-1.1 0-2 .9-2 2v11c0 1.1.9 2 2 2h2c1.1 0 2-.9 2-2v-11zm8 0c0-1.1-.9-2-2-2h-2c-1.1 0-2 .9-2 2v11c0 1.1.9 2 2 2h2c1.1 0 2-.9 2-2v-11zm8 0c0-1.1-.9-2-2-2h-2c-1.1 0-2 .9-2 2v11c0 1.1.9 2 2 2h2c1.1 0 2-.9 2-2v-11zm8 0c0-1.1-.9-2-2-2h-2c-1.1 0-2 .9-2 2v11c0 1.1.9 2 2 2h2c1.1 0 2-.9 2-2v-11zm8 0c0-1.1-.9-2-2-2h-2c-1.1 0-2 .9-2 2v11c0 1.1.9 2 2 2h2c1.1 0 2-.9 2-2v-11zm8 0c0-1.1-.9-2-2-2h-2c-1.1 0-2 .9-2 2v11c0 1.1.9 2 2 2h2c1.1 0 2-.9 2-2v-11zm8 0c0-1.1-.9-2-2-2h-2c-1.1 0-2 .9-2 2v11c0 1.1.9 2 2 2h2c1.1 0 2-.9 2-2v-11zm8 0c0-1.1-.9-2-2-2h-2c-1.1 0-2 .9-2 2v11c0 1.1.9 2 2 2h2c1.1 0 2-.9 2-2v-11zm8 0c0-1.1-.9-2-2-2h-2c-1.1 0-2 .9-2 2v11c0 1.1.9 2 2 2h2c1.1 0 2-.9 2-2v-11zm8 0c0-1.1-.9-2-2-2h-2c-1.1 0-2 .9-2 2v11c0 1.1.9 2 2 2h2c1.1 0 2-.9 2-2v-11zm8 0c0-1.1-.9-2-2-2h-2c-1.1 0-2 .9-2 2v11c0 1.1.9 2 2 2h2c1.1 0 2-.9 2-2v-11zm44 1h-27c-1.1 0-1.9.9-1.7 2l1.4 9c.2 1.1 1.2 2 2.3 2h23c1.1 0 2.1-.9 2.3-2l1.4-9c.2-1.1-.6-2-1.7-2zm57 1c0-1.1-.9-2-2-2h-24c-1.1 0-2 .9-2 2v3c0 1.1.9 2 2 2s2 .5 2 1 .9 1 2 1h16c1.1 0 2-.5 2-1s.9-1 2-1 2-.9 2-2v-3zm40-2c0-1.1-.9-2-2-2h-25c-1.1 0-2 .9-2 2v9c0 1.1.9 2 2 2h25c1.1 0 2-.9 2-2v-9zm38 0c0-1.1-.9-2-2-2h-25c-1.1 0-2 .9-2 2v9c0 1.1.9 2 2 2h25c1.1 0 2-.9 2-2v-9zm-26 4h23v-3h-23v3zm-38 0h23v-3h-23v3zm-38 1h20v-2h-20v2zm-55.5-.5c.6 0 1-.4 1-1s-.4-1-1-1-1 .4-1 1 .4 1 1 1zm4.5 0c.6 0 1-.4 1-1s-.4-1-1-1-1 .4-1 1 .4 1 1 1zm4.5 0c.6 0 1-.4 1-1s-.4-1-1-1-1 .4-1 1 .4 1 1 1zm4.5 0c.6 0 1-.4 1-1s-.4-1-1-1-1 .4-1 1 .4 1 1 1zm4.5 0c.6 0 1-.4 1-1s-.4-1-1-1-1 .4-1 1 .4 1 1 1zm-18 6c-.6 0-1 .4-1 1s.4 1 1 1 1-.4 1-1-.4-1-1-1zm4.5 0c-.6 0-1 .4-1 1s.4 1 1 1 1-.4 1-1-.4-1-1-1zm4.5 0c-.6 0-1 .4-1 1s.4 1 1 1 1-.4 1-1-.4-1-1-1zm4.5 0c-.6 0-1 .4-1 1s.4 1 1 1 1-.4 1-1-.4-1-1-1zm4.5 0c-.6 0-1 .4-1 1s.4 1 1 1 1-.4 1-1-.4-1-1-1zm-16-4c-.6 0-1 .4-1 1s.4 1 1 1 1-.4 1-1-.4-1-1-1zm4.5 0c-.6 0-1 .4-1 1s.4 1 1 1 1-.4 1-1-.4-1-1-1zm4.5 0c-.6 0-1 .4-1 1s.4 1 1 1 1-.4 1-1-.4-1-1-1zm4.5 0c-.6 0-1 .4-1 1s.4 1 1 1 1-.4 1-1-.4-1-1-1zm4.5 0c-.6 0-1 .4-1 1s.4 1 1 1 1-.4 1-1-.4-1-1-1z"/></svg>