<svg version="1.1" xmlns="http://www.w3.org/2000/svg" x="0" y="0" viewBox="0 0 512 512" xml:space="preserve"><path d="M473 45H337.3V10c0-5.5-4.5-10-10-10H184.7c-5.5 0-10 4.5-10 10v35H39c-5.5 0-10 4.5-10 10v35.1c0 5.5 4.5 10 10 10h34l2.6 39.8 21.8 332.2C98.8 494 118 512 140 512h232c22 0 41.2-18 42.6-39.9l21.8-332.2 2.6-39.8h34c5.5 0 10-4.5 10-10V55c0-5.5-4.5-10-10-10zM161.4 470.7c-5.5.4-10.3-3.8-10.7-9.3L131.3 182c-.4-5.5 3.8-10.3 9.3-10.7s10.3 3.8 10.7 9.3L170.7 460c.4 5.5-3.8 10.3-9.3 10.7zM209 32c0-5.5 4.5-10 10-10h74c5.5 0 10 4.5 10 10v13h-94V32zm17.3 438.9c-5.5.1-10.2-4.1-10.3-9.6l-9.8-279.8c-.2-5.5 4.1-10.2 9.6-10.3 5.5-.2 10.2 4.1 10.3 9.6l9.8 279.8c.2 5.5-4.1 10.2-9.6 10.3zm69.8-9.6c-.2 5.5-4.8 9.8-10.3 9.6-5.5-.2-9.8-4.8-9.6-10.3l9.8-279.8c.2-5.5 4.8-9.8 10.3-9.6s9.8 4.8 9.6 10.3l-9.8 279.8zm84.6-279.2l-19.5 279.3c-.4 5.5-5.2 9.7-10.7 9.3s-9.7-5.2-9.3-10.7l19.5-279.3c.4-5.5 5.2-9.7 10.7-9.3 5.5.4 9.7 5.2 9.3 10.7z"/></svg>