<svg version="1.1" xmlns="http://www.w3.org/2000/svg" x="0" y="0" viewBox="0 0 512 512" xml:space="preserve"><path d="M464 63H48C21.6 63 0 84.6 0 111v290c0 26.4 21.6 48 48 48h416c26.4 0 48-21.6 48-48V111c0-26.4-21.6-48-48-48zm0 332c0 3.3-2.7 6-6 6H54c-3.3 0-6-2.7-6-6V117c0-3.3 2.7-6 6-6h404c3.3 0 6 2.7 6 6v278zm-89.3-105.4l49.4 79.4H89l61.3-98.5 33.4-53.7c2-3.1 6.5-3.1 8.5 0l35.6 57.2h.1l49.6 79.7 41.4-66.6 22.9-36.7c2-3.1 6.5-3.1 8.5 0l24.4 39.2zM107 196.5c0-16.3 13.2-29.5 29.5-29.5s29.5 13.2 29.5 29.5-13.2 29.5-29.5 29.5-29.5-13.2-29.5-29.5zm135.8 35.7c0-6.5 5.2-11.8 11.7-11.8 1.1-3.5 3.2-6.7 6.1-9 3.3-2.6 7.3-4 11.5-4 5.3 0 10.2 2.2 13.7 6.1 1.1-.3 2.2-.5 3.3-.5 4.2 0 8 2.4 9.9 6.1 5.2 1.7 8.8 6.6 8.8 12.1 0 7.1-5.7 12.8-12.8 12.8h-40.4c-6.5 0-11.8-5.3-11.8-11.8zm103-37c0-6.5 5.2-11.8 11.7-11.8 1.1-3.5 3.2-6.7 6.1-9 3.3-2.6 7.3-4 11.5-4 5.3 0 10.2 2.2 13.7 6.1 1.1-.3 2.2-.5 3.3-.5 4.2 0 8 2.4 9.9 6.1 5.2 1.7 8.8 6.6 8.8 12.1 0 7.1-5.7 12.8-12.8 12.8h-40.4c-6.5 0-11.8-5.3-11.8-11.8z"/></svg>