<svg version="1.1" xmlns="http://www.w3.org/2000/svg" x="0" y="0" viewBox="0 0 512 512" xml:space="preserve"><path d="M385 156h-1V16c0-8.8-7.2-16-16-16H144c-8.8 0-16 7.2-16 16v58h-1c-1.1 0-2 .9-2 2v25c0 1.1.9 2 2 2h1v32h-1c-1.1 0-2 .9-2 2v64c0 1.1.9 2 2 2h1v293c0 8.8 7.2 16 16 16h224c8.8 0 16-7.2 16-16V195h1c1.1 0 2-.9 2-2v-35c0-1.1-.9-2-2-2zM236 17c0-1.1.9-2 2-2h36c1.1 0 2 .9 2 2v1c0 1.1-.9 2-2 2h-36c-1.1 0-2-.9-2-2v-1zm-31-1c0-1.1.9-2 2-2h9c1.1 0 2 .9 2 2v3c0 1.1-.9 2-2 2h-9c-1.1 0-2-.9-2-2v-3zm-20.5-3c3 0 5.5 2.5 5.5 5.5s-2.5 5.5-5.5 5.5-5.5-2.5-5.5-5.5 2.5-5.5 5.5-5.5zM269 496.5h-26c-6.6 0-12-5.4-12-12s5.4-12 12-12h26c6.6 0 12 5.4 12 12s-5.4 12-12 12zM377 459H135V45h242v414z"/></svg>