<svg version="1.1" xmlns="http://www.w3.org/2000/svg" x="0" y="0" viewBox="0 0 512 512" xml:space="preserve"><path d="M369 0H143c-4.4 0-8 3.6-8 8v85c-1.1 0-2 .9-2 2v57c0 1.1.9 2 2 2v30c-1.1 0-2 .9-2 2v29c0 1.1.9 2 2 2v287c0 4.4 3.6 8 8 8h226c4.4 0 8-3.6 8-8V8c0-4.4-3.6-8-8-8zm5 492c0 4.4-3.6 8-8 8H146c-4.4 0-8-3.6-8-8V15c0-4.4 3.6-8 8-8h220c4.4 0 8 3.6 8 8v477zM256 12.5c-3.6 0-6.5 2.9-6.5 6.5s2.9 6.5 6.5 6.5 6.5-2.9 6.5-6.5-2.9-6.5-6.5-6.5zm0 11.8c-2.9 0-5.3-2.4-5.3-5.3s2.4-5.3 5.3-5.3 5.3 2.4 5.3 5.3-2.4 5.3-5.3 5.3zm3.5-5.3c0 2-1.6 3.5-3.5 3.5s-3.5-1.6-3.5-3.5c0-2 1.6-3.5 3.5-3.5s3.5 1.5 3.5 3.5z"/></svg>