<svg version="1.1" xmlns="http://www.w3.org/2000/svg" x="0" y="0" viewBox="0 0 512 512" xml:space="preserve"><path d="M311 227.8c0 5-4 9-9 9s-9-4-9-9 4-9 9-9 9 4 9 9zM240.3 165c-5 0-9 4-9 9s4 9 9 9 9-4 9-9-4-9-9-9zm-33.9-9.9c-5 0-9 4-9 9s4 9 9 9 9-4 9-9-4-9-9-9zm92 167c-5 0-9 4-9 9s4 9 9 9 9-4 9-9c0-4.9-4-9-9-9zm37.4-139.6 11.9.3-.1 4-11.9-.3c-.1 1.7-.1 3.4-.2 5.1l11.9.7-.2 4-11.9-.7c-.1 1.7-.2 3.4-.3 5l11.9 1-.3 4-11.9-1c-.1 1.7-.3 3.4-.5 5l11.8 1.2-.4 4-11.8-1.2c-.2 1.7-.4 3.4-.6 5L345 220l-.5 4-11.8-1.4c-.2 1.7-.4 3.4-.6 5l11.8 1.6-.5 4-11.8-1.6c-.2 1.7-.5 3.3-.7 5l11.8 1.5-.5 4-11.8-1.5c-.2 1.7-.4 3.3-.6 5l11.8 1.5-.5 4-11.8-1.5c-.2 1.7-.4 3.3-.6 5l11.8 1.4-.5 4-11.8-1.4c-.2 1.7-.4 3.4-.6 5l11.8 1.3-.4 4-11.8-1.3c-.2 1.7-.4 3.4-.5 5l11.8 1.2-.4 4-11.8-1.2c-.2 1.7-.3 3.4-.5 5l11.9 1.1-.4 4-11.8-1.1c-.1 1.7-.3 3.4-.4 5l11.9 1-.3 4-11.9-1-.3 3.6-.1 1.5 11.9.9-.3 4-11.9-.9-.4 5 11.9.9-.3 4-11.9-.9-.4 5 11.9.9-.3 4-11.9-.9-.4 5 11.9.9-.3 4-11.9-.9-.4 5 11.9.9-.3 4-11.9-.9-.4 5 11.9.9-.3 4-11.9-.9-.4 5 11.9.9-.3 4-11.9-.9-.4 5 11.9.9-.3 4-11.9-.9-.4 5 11.9.9-.3 4-11.9-.9-.4 5 11.9.9-.3 4-11.9-.9-.4 5 11.9.9-.3 4-11.9-.9-.4 5 11.9.9-.3 4-11.9-.9c-.2 1.7-.4 3.4-.6 5l11.8 1.7-.6 4-11.8-1.7c-.3 1.7-.5 3.3-.8 5l11.7 2.3-.8 3.9-11.7-2.3c-.3 1.7-.7 3.3-1.1 4.9l11.6 2.8-1 3.9-11.6-2.8c-.4 1.6-.9 3.3-1.3 4.9l11.4 3.4-1.1 3.8-11.4-3.4c-.5 1.6-1 3.2-1.6 4.8l11.2 4-1.4 3.8-11.2-4c-.6 1.6-1.2 3.2-1.9 4.7l11 4.7-1.6 3.7-11-4.7c-.7 1.6-1.4 3.1-2.1 4.6l10.6 5.4-1.8 3.6-10.6-5.4c-.8 1.5-1.6 3-2.5 4.4l10.2 6.2-2.1 3.4-10.2-6.2c-.9 1.4-1.9 2.8-2.8 4.2l9.6 7.1-2.4 3.2-9.6-7.1c-1.1 1.4-2.1 2.7-3.2 3.9l8.8 8.1-2.7 2.9-8.8-8.1c-1.2 1.2-2.4 2.4-3.7 3.5l7.6 9.2-3.1 2.5-7.6-9.2c-1.4 1-2.8 2-4.2 2.9l5.8 10.5-3.5 1.9-5.8-10.5c-1.5.8-3.1 1.4-4.7 1.9l3.2 11.5-3.9 1.1-3.2-11.5c-1.7.4-3.3.6-5 .7l-.2 12-4-.1.2-12h-.6c-1.5-.2-3-.4-4.4-.8l-3.7 11.4-3.8-1.2 3.7-11.4c-1.5-.6-3.1-1.4-4.5-2.2l-6.6 10-3.3-2.2 6.6-10c-1.3-1-2.6-2.1-3.9-3.2l-8.5 8.4-2.8-2.9 8.5-8.4c-1.1-1.2-2.2-2.5-3.2-3.9l-9.7 6.9-2.3-3.3 9.7-6.9c-.9-1.4-1.8-2.8-2.7-4.3l-10.5 5.6-1.9-3.5 10.5-5.6c-.7-1.5-1.5-3-2.2-4.6l-11 4.6-1.5-3.7 11-4.6c-.6-1.5-1.2-3.1-1.7-4.8L201 463l-1.2-3.8 11.4-3.6c-.5-1.6-.9-3.2-1.4-4.9l-11.6 2.8-.9-3.9 11.6-2.8c-.4-1.6-.7-3.3-1-5l-11.7 2.1-.7-3.9 11.7-2.1c-.3-1.6-.5-3.3-.7-5l-11.8 1.4-.5-4 11.8-1.4c-.2-1.7-.3-3.3-.5-5l-11.9.8-.3-4 11.9-.8c-.1-1.7-.2-3.4-.2-5.1l-11.9.2-.1-4 11.9-.2v-5.1l-11.9-.4.1-4 11.9.4.3-5.1-11.9-.9.3-4 11.9.9.3-2.7.2-2.3-11.8-1.2.4-4 11.8 1.2.5-5-11.8-1.2.4-4 11.8 1.2.5-5-11.8-1.2.4-4 11.8 1.2.5-5-11.8-1.2.4-4 11.8 1.2.5-5-11.8-1.2.4-4 11.8 1.2.5-5-11.8-1.2.4-4 11.8 1.2c.1-1.7.3-3.4.4-5l-11.9-.4.1-4 11.9.4v-5.1l-11.9.4-.1-4 11.9-.4c-.1-1.7-.2-3.4-.3-5l-11.8 1.2-.4-4 11.8-1.2c-.2-1.7-.4-3.3-.7-5l-11.7 2-.7-3.9 11.7-2c-.3-1.7-.6-3.3-1-5l-11.6 2.8-.9-3.9 11.6-2.8c-.4-1.6-.9-3.3-1.3-4.9l-11.3 3.6-1.2-3.8 11.3-3.6c-.5-1.6-1.1-3.2-1.7-4.8l-11.1 4.3-1.5-3.7 11.1-4.3c-.6-1.3-1.1-2.7-1.7-4l-.3-.6-10.9 4.8-1.6-3.7 10.9-4.8c-.7-1.5-1.3-3.1-1.9-4.7l-11.1 4.3-1.5-3.7 11.1-4.3c-.6-1.6-1.2-3.1-1.8-4.7l-11.3 3.9-1.3-3.8 11.3-3.9c-.5-1.6-1.1-3.2-1.6-4.8l-11.4 3.5-1.2-3.8 11.4-3.5c-.5-1.6-1-3.2-1.4-4.9l-11.5 3.2-1.1-3.9 11.5-3.2c-.4-1.6-.9-3.3-1.3-4.9l-11.6 2.8-.9-3.9 11.6-2.8c-.4-1.6-.8-3.3-1.1-4.9l-11.7 2.5-.8-3.9 11.7-2.5c-.3-1.6-.7-3.3-1-5l-11.7 2.1-.7-3.9 11.7-2.1c-.3-1.7-.6-3.3-.8-5l-11.8 1.8-.6-4 11.8-1.8c-.2-1.7-.5-3.3-.7-5l-11.8 1.5-.5-4 11.8-1.5c-.2-1.7-.4-3.3-.6-5l-11.9 1.2-.4-4 11.9-1.2c-.2-1.7-.3-3.4-.4-5l-11.9.7-.2-4 11.9-.7c-.1-1.7-.1-3.4-.2-5.1l-11.9.2-.1-4 11.9-.2v-5.1l-11.9-.3.1-4 11.9.3c.1-1.7.1-3.4.2-5.1l-11.9-.8.3-4 11.9.8c.1-1.7.3-3.4.5-5l-11.8-1.3.4-4 11.8 1.3c.2-1.7.4-3.4.7-5l-11.8-1.8.6-4 11.8 1.8c.3-1.7.6-3.3.9-5l-11.7-2.3.8-3.9 11.7 2.3c.3-1.7.7-3.3 1.1-4.9l-11.6-2.7.9-3.9 11.6 2.7c.4-1.6.8-3.3 1.2-4.9l-11.5-3.1 1.1-3.9 11.5 3.1c.5-1.6.9-3.3 1.4-4.9L175 91.5l1.2-3.8 11.4 3.6c.5-1.6 1.1-3.2 1.6-4.8l-11.2-4 1.3-3.8 11.2 4c.6-1.6 1.2-3.2 1.8-4.7l-11.1-4.4 1.5-3.7 11.1 4.4c.6-1.6 1.3-3.1 2-4.7l-10.9-4.9 1.6-3.6 10.9 4.9c.7-1.5 1.4-3.1 2.2-4.6l-10.7-5.3 1.8-3.6 10.7 5.3c.8-1.5 1.6-3 2.3-4.5l-10.4-5.8 1.9-3.5 10.4 5.8c.8-1.5 1.7-3 2.6-4.4L198 39.2l2.1-3.4 10.1 6.3c.9-1.5 1.8-2.9 2.8-4.2l-9.8-6.8 2.3-3.3 9.8 6.8c1-1.4 2-2.8 3-4.1L209 23l2.5-3.1 9.3 7.5c1.1-1.4 2.2-2.6 3.3-3.8l-8.6-8.3 2.8-2.9 8.6 8.3c1.3-1.3 2.5-2.4 3.8-3.4l-7.2-9.6 3.2-2.4 7.2 9.6c1.6-1 3.1-1.8 4.5-2.3L236.3.7l3.9-.7 2.1 12c1.5.1 3.1.4 4.9 1L252 2l3.7 1.6-4.7 11c1.4.7 2.9 1.5 4.4 2.5l6.7-9.9 3.3 2.2-6.7 9.9c1.3.9 2.7 2 4 3.1l7.7-9.1 3.1 2.6-7.7 9.1c1.2 1.1 2.5 2.2 3.8 3.4l8.3-8.6 2.9 2.8-8.3 8.6c1.2 1.2 2.3 2.4 3.5 3.6l8.8-8.1 2.7 2.9-8.8 8.1c1.1 1.2 2.2 2.5 3.3 3.8l9.1-7.6 2.6 3.1-9.1 7.6c1.1 1.3 2.1 2.6 3.2 4l9.5-7.2 2.4 3.2-9.5 7.2c1 1.3 2 2.7 3 4.1l9.8-6.8 2.3 3.3-9.8 6.8c.9 1.4 1.9 2.8 2.8 4.2l10-6.4 2.2 3.4-10 6.4c.9 1.4 1.8 2.8 2.7 4.3l10.3-6.1 2 3.4-10.5 5.9c.8 1.4 1.7 2.9 2.5 4.4L318 73l1.9 3.5-10.5 5.7c.8 1.5 1.6 3 2.3 4.5l10.7-5.3 1.8 3.6-10.7 5.3c.7 1.5 1.4 3 2.1 4.6l10.9-4.9 1.6 3.6-10.9 4.9c.7 1.5 1.3 3.1 2 4.7l11.1-4.5 1.5 3.7-11.1 4.5c.6 1.6 1.2 3.1 1.8 4.7l11.2-4 1.4 3.8-11.2 4c.6 1.6 1.1 3.2 1.6 4.8l11.4-3.6 1.2 3.8-11.4 3.6c.5 1.6 1 3.2 1.4 4.9l11.5-3.1 1 3.9-11.5 3.1c.4 1.6.8 3.3 1.2 4.9l11.6-2.7.9 3.9-11.6 2.7c.4 1.6.7 3.3 1 5l11.7-2.2.7 3.9-11.7 2.2c.3 1.7.6 3.3.8 5l11.8-1.7.6 4-11.8 1.7c.2 1.8.5 3.6.6 5.5l11.9-.9.3 4-11.8.9c.1 1.5.2 3 .3 4.6l11.9-.3.1 4-11.9.3c.2 1.5.1 3.2.1 4.9zM295.1 132c-3.8 0-6.9 2.8-6.9 6.3s3.1 6.3 6.9 6.3c3.8 0 21.9-2.8 21.9-6.3s-18-6.3-21.9-6.3zm-10.4-2.1c2.5 2.5 7.2 1.8 10.5-1.5s16.9-20.9 14.3-23.4c-2.5-2.5-20.1 11-23.4 14.3s-3.9 8.1-1.4 10.6zM268 420.2c1.7 2.2 6.2 1.4 10.1-1.6 3.9-3 20.6-19.1 18.9-21.2-1.7-2.2-21.2 10.4-25.1 13.4-3.8 3.1-5.6 7.3-3.9 9.4zm.3-10.9c.6-4.8 1.3-27.5-1-27.8-2.4-.3-7 22-7.5 26.8-.6 4.8.9 8.9 3.3 9.2 2.3.2 4.7-3.4 5.2-8.2zm21.7-41.8c0-2.5-2-4.5-4.5-4.5s-4.5 2-4.5 4.5 2 4.5 4.5 4.5 4.5-2 4.5-4.5zm8.4-95.5c0-23.5-11-42.6-24.6-42.6-7 0-13.3 5-17.7 13.1-4.3 7.7 3.1 18.1 3.1 29.6 0 11.3-7.5 21.6-3.3 29.2 4.5 8.2 10.9 13.4 17.9 13.4 13.6-.1 24.6-19.2 24.6-42.7zm-60.7-55.8c5 0 9-4 9-9s-4-9-9-9-9 4-9 9 4 9 9 9zM226.5 302c-2.5 0-4.5 2-4.5 4.5s2 4.5 4.5 4.5 4.5-2 4.5-4.5-2-4.5-4.5-4.5zm24 34c2.5 0 4.5-2 4.5-4.5s-2-4.5-4.5-4.5-4.5 2-4.5 4.5 2 4.5 4.5 4.5zm-8 32c-2.5 0-4.5 2-4.5 4.5s2 4.5 4.5 4.5 4.5-2 4.5-4.5-2-4.5-4.5-4.5zm8.9-194c0-6.1-4.9-11-11-11s-11 4.9-11 11 4.9 11 11 11 11-4.9 11-11zm-19.1 101.5c0 6.3 4 11.4 9 11.4s9-5.1 9-11.4c0-6.3-4-11.4-9-11.4s-9 5.1-9 11.4zm16.4 139.3c3 3.8 6.9 5.7 8.8 4.2 1.9-1.5 1-5.8-2-9.6s-18.6-20.4-20.4-18.9c-1.9 1.5 10.6 20.5 13.6 24.3zm34.5-250.6c0-7.7-3.1-14-6.9-14-3.8 0-6.9 6.3-6.9 14s3.1 44 6.9 44c3.8 0 6.9-36.3 6.9-44zm.8-25.9c0-4.3-3.5-7.7-7.7-7.7-4.3 0-7.7 3.5-7.7 7.7 0 4.3 3.5 7.7 7.7 7.7 4.3 0 7.7-3.4 7.7-7.7zm-14.6-25.9c0 7.7 3.1 14 6.9 14 3.8 0 6.9-6.3 6.9-14s-3.1-44-6.9-44c-3.8 0-6.9 36.3-6.9 44zM248 72.5c0 2.5 2 4.5 4.5 4.5s4.5-2 4.5-4.5-2-4.5-4.5-4.5-4.5 2-4.5 4.5zm-21.1 16.4c-2.7 2.7 20.7 30.6 26.2 36 5.5 5.5 12.1 7.7 14.8 4.9 2.7-2.7.5-9.4-4.9-14.8-5.6-5.4-33.4-28.8-36.1-26.1zm-1.8-34.7c0 2.5 2 4.5 4.5 4.5s4.5-2 4.5-4.5-2-4.5-4.5-4.5-4.5 2-4.5 4.5zM202 107.5c0 2.5 2 4.5 4.5 4.5s4.5-2 4.5-4.5-2-4.5-4.5-4.5-4.5 2-4.5 4.5zm12 132c0-2.5-2-4.5-4.5-4.5s-4.5 2-4.5 4.5 2 4.5 4.5 4.5 4.5-2 4.5-4.5zm3.4-75.4c0-6.1-4.9-11-11-11s-11 4.9-11 11 4.9 11 11 11 11-4.9 11-11zm33-18.5c7.7 0 14-3.3 14-7.3s-6.3-7.3-14-7.3-44 3.3-44 7.3 36.3 7.3 44 7.3zM218 358.5c0 2.5 2 4.5 4.5 4.5s4.5-2 4.5-4.5-2-4.5-4.5-4.5-4.5 2-4.5 4.5zm27.5 68.9c4.8.6 8.9-1 9.2-3.5.3-2.5-3.3-5-8.1-5.5-4.8-.6-27.6-1.2-27.8 1.3s21.9 7.2 26.7 7.7zm9.5 50.1c0-2.5-2-4.5-4.5-4.5s-4.5 2-4.5 4.5 2 4.5 4.5 4.5 4.5-2 4.5-4.5zm1.3-48c-1.5-1.9-5.7-1-9.5 2s-20.4 18.5-18.9 20.4c1.5 1.9 20.5-10.6 24.3-13.6s5.6-7 4.1-8.8zm5 2.7c-2.4-.3-4.7 3.4-5.3 8.2-.6 4.8-1.3 27.5 1 27.8s7-22 7.5-26.8c.6-4.8-.9-8.9-3.2-9.2zm5.7-7.4c0-2.7-2.2-4.8-4.8-4.8-2.7 0-4.8 2.2-4.8 4.8 0 2.7 2.2 4.8 4.8 4.8 2.6.1 4.8-2.1 4.8-4.8zm8.6 10.1c-3-3.8-6.9-5.7-8.8-4.2-1.9 1.5-1 5.8 2 9.6s18.6 20.4 20.4 18.9c1.9-1.5-10.6-20.5-13.6-24.3zm29.9-4.9c.3-2.5-22-7.2-26.8-7.8-4.8-.6-8.9 1-9.2 3.5-.3 2.5 3.3 5 8.1 5.5 4.9.6 27.6 1.3 27.9-1.2zm3.9-98.9c0-6.1-4.9-11-11-11s-11 4.9-11 11 4.9 11 11 11 11-4.9 11-11zm3.6-103.3c0-6.1-4.9-11-11-11s-11 4.9-11 11 4.9 11 11 11 11-5 11-11zM298.5 198c2.5 0 4.5-2 4.5-4.5s-2-4.5-4.5-4.5-4.5 2-4.5 4.5 2 4.5 4.5 4.5zm22.5 66.5c0-2.5-2-4.5-4.5-4.5s-4.5 2-4.5 4.5 2 4.5 4.5 4.5 4.5-2 4.5-4.5zm-21.5-112.8c-5.5-5.5-12.1-7.7-14.8-4.9s-.5 9.4 4.9 14.8c5.5 5.5 33.3 28.9 36 26.2 2.8-2.8-20.6-30.7-26.1-36.1z"/></svg>