<svg xmlns="http://www.w3.org/2000/svg" viewBox="0 0 512 512" style="enable-background:new 0 0 512 512" xml:space="preserve"><path d="m482 360.8-11-55.5c2.7-16 4.1-32.4 4.1-49.3C475 114.6 377 0 256 0S37 114.6 37 256c0 16.9 1.4 33.4 4.1 49.3l-11 55.5c-1.5 7.5-.3 15.3 3.5 22C77.6 460 160.7 512 256 512s178.4-52 222.4-129.2c3.8-6.7 5.1-14.5 3.6-22zM182.4 283c12.9-27.8 41-47.1 73.6-47.1s60.8 19.3 73.6 47.1c1.2 2.7-.7 5.7-3.6 5.7h-11.2C304.4 310.8 282 326 256 326s-48.4-15.3-58.8-37.3H186c-2.9 0-4.9-3-3.6-5.7zm282.2 91.8c-20.6 36.1-50.5 66.5-86.3 87.7C341.4 484.4 299.1 496 256 496s-85.4-11.6-122.2-33.4C98 441.4 68.1 411 47.5 374.9c-1.9-3.3-2.5-7.1-1.7-10.9l11-55.5.4-2-.1-2c-1.3-23.2 3.7-51.1 14.2-78.7 9.8-25.6 23.5-48.7 38.6-65 13-14.1 26.2-22.1 36.2-22.1 1.9 0 3.6.3 5.2.9 8.7 3.3 14.8 16.6 16.4 35.7 2 23.8-3 52.8-14 81.8-4.3 11.4-9.4 22.3-15.2 32.4-5.3 9.4-5.5 20.8-.5 30.5 22.8 44.3 69.2 73 118 73s95.2-28.7 118.1-73.1c5-9.7 4.8-21.1-.5-30.5-5.7-10.1-10.8-21-15.2-32.4-11-29-16-58.1-14-81.8 1.6-19.1 7.7-32.4 16.4-35.7 1.6-.6 3.3-.9 5.2-.9 9.9 0 23.1 8.1 36.2 22.1 15.1 16.3 28.8 39.4 38.6 65 10.5 27.6 15.5 55.5 14.2 78.7l-.1 2 .4 2 11 55.5c.7 3.8.1 7.7-1.7 10.9zM112.4 217.4c-13.3 0-24 10.7-24 24s10.7 24 24 24 24-10.7 24-24c0-13.2-10.7-24-24-24zm-8.7 24c-4.2 0-7.6-3.4-7.6-7.6 0-4.2 3.4-7.6 7.6-7.6 4.2 0 7.6 3.4 7.6 7.6.1 4.2-3.4 7.6-7.6 7.6zm295.9-24c-13.3 0-24 10.7-24 24s10.7 24 24 24 24-10.7 24-24c0-13.2-10.8-24-24-24zm-8.8 24c-4.2 0-7.6-3.4-7.6-7.6 0-4.2 3.4-7.6 7.6-7.6 4.2 0 7.6 3.4 7.6 7.6.1 4.2-3.4 7.6-7.6 7.6z"/></svg>