<svg version="1.1" xmlns="http://www.w3.org/2000/svg" x="0" y="0" viewBox="0 0 512 512" style="enable-background:new 0 0 512 512" xml:space="preserve"><path d="M501.2 289.2c-3 .3-5.9.5-8.7.5-17.4 0-31.1-6.2-32-15.4-.3-3 .7-5.9 2.9-8.7-16.1 7.6-29.1 11.9-36.7 11.9-3.3 0-5.6-.8-6.7-2.5-5.2-8.3 19.8-35 58.4-63.9-3.4.9-6.7 1.4-9.9 1.4-7.1 0-13.3-2.3-17.6-7.2-9.1-10.3-6.5-28.8 5.1-44.4-3.3-.2-6.4-1.2-9-3.1-10.7-7.5-11.2-26.3-1.6-42.8-7.8 9.4-17.8 14.7-26.5 14.7-3.8 0-7.3-1-10.3-3.1-1.5-1.1-2.8-2.4-4-3.9-2.2 11-10.4 19.2-20.1 19.2-8.1 0-15.1-5.6-18.5-13.9-17 44.9-34.9 77.1-43.3 77.1-.4 0-.7-.1-1-.2-8.5-3.1-1.9-45.8 14.7-98.4-5.4 3.6-11.1 5.6-16.6 5.6-3.4 0-6.7-.8-9.7-2.4-13.8-7.4-16.9-29.5-7-49.5.4-.9.9-1.7 1.4-2.6-5.3 5.5-12.3 8.8-20 8.8-13.6 0-25.1-10.4-28.5-24.6-3.4 14.2-14.9 24.6-28.5 24.6-7.7 0-14.7-3.4-20-8.8.5.8.9 1.7 1.4 2.6 9.9 20 6.8 42.2-7 49.5-3 1.6-6.3 2.4-9.7 2.4-5.5 0-11.2-2-16.6-5.6 16.5 52.6 23.1 95.3 14.7 98.4-.3.1-.7.2-1 .2-8.4 0-26.3-32.2-43.3-77.1-3.4 8.2-10.4 13.9-18.5 13.9-9.7 0-17.9-8.2-20.1-19.2-1.1 1.5-2.4 2.8-4 3.9-3 2.1-6.6 3.1-10.3 3.1-8.7 0-18.6-5.4-26.5-14.7 9.6 16.6 9.1 35.3-1.6 42.8-2.7 1.9-5.7 2.9-9 3.1 11.7 15.6 14.3 34.1 5.1 44.4-4.3 4.9-10.5 7.2-17.6 7.2-3.2 0-6.5-.5-9.9-1.4C72.2 239.9 97.2 266.6 92 275c-1.1 1.7-3.4 2.5-6.7 2.5-7.6 0-20.5-4.3-36.7-11.9 2.1 2.8 3.2 5.8 2.9 8.7-1 9.2-14.6 15.4-32 15.4-2.8 0-5.7-.2-8.7-.5-3.8-.4-7.4-1.1-10.8-2 3.1 1.3 6.3 3 9.4 5.1 15.3 10.1 23.4 25.1 18.2 33.6-1.3 2.1-3.2 3.6-5.6 4.5 19.1 1.5 33.8 12.4 33.8 25.7 0 8.1-5.6 15.4-14.3 20.1 15.7-5.1 30.8-7.6 44-7.6 21.4 0 37.5 6.6 42.3 19.4 5.4 14.2-4.2 32.5-23.3 49 18.9-10.1 36.2-15.7 47.7-15.7 6.1 0 10.6 1.6 12.6 5 1.1 1.9 1.4 4.3 1 7 12.5-33.6 46.1-58.1 86.2-59.9v92.9c0 2.2 1.8 4 4 4s4-1.8 4-4v-92.9c40.1 1.7 73.8 26.2 86.2 59.9-.4-2.7-.2-5.1 1-7 2-3.4 6.4-5 12.6-5 11.4 0 28.8 5.6 47.7 15.7-19.1-16.4-28.7-34.8-23.3-49 4.9-12.8 21-19.4 42.3-19.4 13.1 0 28.3 2.5 44 7.6-8.7-4.7-14.3-12-14.3-20.1 0-13.2 14.8-24.1 33.8-25.7-2.4-.9-4.4-2.4-5.6-4.5-5.2-8.5 2.9-23.6 18.2-33.6 3.1-2.1 6.3-3.7 9.4-5.1-3.4.9-7 1.6-10.8 2zm-25.7 35.9c-5.3 1.7-10.2 4.2-14.3 7.3-8.4 6.3-13 14.7-13 23.6 0 2.2.3 4.4.8 6.5-7.8-1.3-15.4-2-22.5-2-25.7 0-43.9 9-49.8 24.6-3.4 8.9-2.4 19.3 2.8 30 .3.5.5 1.1.8 1.6-7.7-2.3-14.7-3.5-20.5-3.5-5.7 0-9.8 1.1-12.9 2.8-17.8-30.7-52.5-50.5-90.9-50.7-38.3.2-73 20-90.9 50.7-3.1-1.6-7.2-2.8-12.9-2.8-5.8 0-12.8 1.2-20.5 3.5.3-.5.6-1.1.8-1.6 5.2-10.7 6.2-21 2.8-30-5.9-15.6-24.1-24.6-49.8-24.6-7.1 0-14.7.7-22.5 2 .5-2.1.8-4.3.8-6.5 0-8.9-4.6-17.3-13-23.6-4.1-3.1-9-5.5-14.3-7.3 2.2-8.4-1.3-18.6-9.2-27.8 16.4-1.7 28.2-8.6 31.4-18.6 11.3 4.5 20.2 6.7 26.6 6.7 7.9 0 11.7-3.4 13.5-6.3 6.3-10.1-4-23.4-13.7-33.9-7.4-8.1-17.5-17.3-29.3-27 4.4-1.7 8.2-4.3 11.3-7.7 9.7-11 9.8-28.6 1.1-45.3.5-.3 1-.6 1.4-.9 8.5-6 12.5-16.8 11.7-28.9 3.9 1.5 7.9 2.2 11.7 2.2 3.8 0 7.4-.8 10.7-2.2 5.2 8.8 14 14.3 23.7 14.3 6 0 11.6-2.1 16.2-5.7 6.9 17 13.8 31.7 20.2 43.2 12.7 22.7 20 25.8 25.4 25.8 1.3 0 2.6-.2 3.8-.7 8.8-3.2 10.9-14.6 7.2-39.4-2.2-14.7-6.5-33.2-12.2-53.2 1.4.2 2.8.3 4.2.3 4.8 0 9.3-1.1 13.5-3.3 9-4.8 14.8-14 16.5-26 .8-5.4.6-11.1-.4-16.8 1.9.3 3.8.5 5.7.5 11.2 0 21.6-5.5 28.5-14.4 7 8.9 17.3 14.4 28.5 14.4 1.9 0 3.8-.2 5.7-.5-1 5.7-1.2 11.4-.4 16.8 1.7 12 7.5 21.2 16.5 26 4.1 2.2 8.7 3.3 13.5 3.3 1.4 0 2.8-.1 4.2-.3-5.8 20-10 38.5-12.2 53.2-3.7 24.7-1.6 36.1 7.2 39.4 1.2.4 2.5.7 3.8.7 5.4 0 12.7-3.1 25.4-25.8 6.4-11.5 13.3-26.2 20.2-43.2 4.7 3.7 10.3 5.7 16.2 5.7 9.7 0 18.4-5.5 23.7-14.3 3.3 1.5 6.9 2.2 10.7 2.2 3.8 0 7.8-.8 11.7-2.2-.8 12.1 3.2 22.9 11.7 28.9.5.3.9.6 1.4.9-8.7 16.7-8.6 34.4 1.1 45.3 3 3.4 6.9 6 11.3 7.7-11.8 9.7-21.9 18.9-29.3 27-9.7 10.5-20 23.8-13.7 33.9 1.8 2.9 5.6 6.3 13.5 6.3 6.4 0 15.3-2.3 26.6-6.7 3.2 10 15 16.9 31.4 18.6-8 9.2-11.4 19.4-9.2 27.8z"/></svg>