<svg version="1.1" xmlns="http://www.w3.org/2000/svg" x="0" y="0" viewBox="0 0 512 512" style="enable-background:new 0 0 512 512" xml:space="preserve"><path d="M256 0C132.3 0 32 62 32 138.5V149c0 17.7 14.3 32 32 32h115.8c-23.5 67.3-38.3 154.7-38.3 218.8 0 106.7 41 112.3 94.9 112.3 6.4 0 12.9-.1 19.6-.1 6.7 0 13.2.1 19.6.1 53.9 0 94.9-5.6 94.9-112.3 0-64.1-14.8-151.5-38.3-218.8H448c17.7 0 32-14.3 32-32v-10.5C480 62 379.7 0 256 0zm68.7 183.6c22.6 64.8 37.8 151.6 37.8 216.1 0 25.1-2.3 44.8-6.9 60.2-4 13.3-9.8 23.1-17.6 29.9-15.1 13.1-37.2 14.2-62.4 14.2h-39.2c-25.2 0-47.3-1.1-62.4-14.2-7.8-6.8-13.6-16.5-17.6-29.9-4.6-15.4-6.9-35.1-6.9-60.3 0-64.5 15.2-151.3 37.8-216.1.3-.9.6-1.8.9-2.6h135.6c.3 1 .6 1.8.9 2.7zM472 149c0 13.2-10.8 24-24 24H64c-13.2 0-24-10.8-24-24v-10.5c0-34.1 22-66.5 61.8-91.1C142.9 22 197.6 8 256 8s113.1 14 154.2 39.4C450 72 472 104.4 472 138.5V149z"/></svg>