<svg version="1.1" xmlns="http://www.w3.org/2000/svg" x="0" y="0" viewBox="0 0 512 512" xml:space="preserve"><path d="M405 174.5c-7.2 0-16.1-.2-23 1-.8.9-1.6 1.7-2.4 2.6-2.1 2.2-4.2 4.2-6.4 6.3-23.6 22.4-53.5 38.8-86.8 45.2-.5-6.2-2.8-11.8-6.4-16.4v-14.7l-9.6 6.6c-4.3-2.3-9.2-3.6-14.4-3.6-5.2 0-10.1 1.3-14.4 3.6l-9.6-6.6v14.7c-3.6 4.6-5.9 10.2-6.4 16.4-33.3-6.4-63.1-22.8-86.8-45.2-2.1-1.9-4-3.8-5.9-5.8-1-1-1.9-2-2.9-3.1-6.9-1.2-15.8-1-23-1-45 0-85.9 25.7-107 62 14.2 1.4 26.5 9.7 34 21 9.6-3.1 20.3-6 31-6 30 0 54.7 14.1 73 35 8.7-7 22-12 34-12 25.1 0 45.3 18 49.4 41.9 0 .3.1.6.1.9.1.3.1.7.1 1 .1.5.1.9.2 1.4.1.6.1 1.2.2 1.8.7.1 1.4.1 2.1.2 14.6 1.5 19.7 7.6 31.9 15.8 12.2-8.2 17.3-14.3 31.9-15.8.7-.1 1.4-.1 2.1-.2 0-.6.1-1.2.2-1.8 0-.5.1-.9.2-1.4 0-.3.1-.7.1-1 0-.3.1-.6.1-.9 4.1-23.9 24.2-41.9 49.4-41.9 12 0 25.3 5 34 12 18.3-20.9 43-35 73-35 10.7 0 21.4 2.9 31 6 7.5-11.3 19.8-19.6 34-21-21.1-36.3-62-62-107-62z"/></svg>