<svg version="1.1" xmlns="http://www.w3.org/2000/svg" x="0" y="0" viewBox="0 0 512 512" xml:space="preserve"><path d="M56.9 266.8c-1.9 0-3.5-1.6-3.5-3.5s1.6-3.5 3.5-3.5 3.5 1.6 3.5 3.5-1.6 3.5-3.5 3.5zM512 369.5c0 1.8-1.5 3.2-3.2 3.2H144.9c-3.9 0-7-3.1-7-7s3.1-7 7-7h22.6c-9.4-5.7-17.8-12.8-24.8-21.1-4.4-.1-8.7-.7-12.9-1.7l-38.4 15.6c-3.6 1.5-7.6-.2-9.1-3.8-1.5-3.6.2-7.6 3.8-9.1l24.9-10.1c-2-1.2-4-2.5-5.9-3.9l-41.7 17c-3.6 1.5-7.6-.2-9.1-3.8-1-2.4-.6-4.9.8-6.8l-7-9.4c-1.1.2-2.2.5-3.3.7l8.5 15.7c.1.3 0 .6-.2.7 0 .1-.1.1-.2.1s-.3-.1-.4-.3l-8.6-16c-1.1.2-2.1.3-3.2.5l5.7 15.7c.1.2 0 .5-.3.6h-.2c-.2 0-.4-.1-.5-.3l-5.7-15.8-3.3.3 2.8 14.6c0 .3-.1.5-.4.6h-.1c-.2 0-.5-.2-.5-.4l-2.8-14.8c-1.1.1-2.3.1-3.4.1l.8 13.1c0 .3-.2.5-.5.5s-.5-.2-.5-.5l-.3-13c-1.3 0-2.5-.1-3.7-.3L26.2 334c0 .2-.3.4-.5.4h-.1c-.3-.1-.4-.3-.4-.6l1.6-10.6c-3.4-.6-6.4-1.7-8.9-3.3-1.3.6-2.7.9-4.1.9-5.5 0-10-4.5-10-10 0-4.3 2.8-8 6.6-9.4 0-1.3.2-2.6.4-3.9l-9.9-.1c-.3 0-.5-.2-.5-.5s.3-.5.5-.5l10 .1c.3-1.2.5-2.4.8-3.6L.8 290.2c-.3-.1-.5-.3-.4-.6s.3-.5.6-.4l10.9 2.7c.2-1.1.5-2.2.9-3.3L1.7 283c-.2-.2-.3-.5-.2-.7.2-.2.5-.3.7-.2l11 5.5c.3-1.1.7-2.1 1.1-3.2l-10.4-8.3c-.2-.2-.3-.5-.1-.7.2-.2.5-.3.7-.1l10.2 8.1c.4-1.1.8-2.2 1.3-3.3l-9-10.5c-.1-.2-.1-.5.1-.7.2-.1.5-.1.7.1l8.6 10.1c.5-1.2 1-2.3 1.6-3.5l-6.9-11.8c-.1-.3 0-.6.2-.7.3-.1.6 0 .7.2l6.5 11.2c8.8-17.9 23.7-37.2 39.5-50.8 2.5-2.1 4.9-4 7.3-5.8-4.6-6.8-7.2-14.9-7.2-23.7 0-17 9.9-31.6 24.2-38.6-6.5 8.5-10.3 19.1-10.3 30.6 0 8.6 2.2 16.8 6 23.9 1.2-.6 2.4-1.1 3.6-1.6 0-.2-.1-.3-.2-.5-.1-.3-.3-.6-.4-.9-.2-.4-.3-.7-.5-1.1-.1-.3-.3-.6-.4-.9-.2-.4-.4-.7-.5-1.1-.1-.3-.3-.7-.4-1-.1-.4-.3-.7-.4-1.1-.2-.4-.3-.7-.4-1.1-.1-.4-.2-.7-.3-1.1-.1-.3-.2-.7-.3-1.1-.1-.4-.2-.7-.3-1.1l-.3-1.2c-.1-.3-.1-.7-.2-1-.1-.5-.1-.9-.2-1.3-.1-.3-.2-.7-.2-1-.1-.5-.1-.9-.2-1.4 0-.3-.1-.6-.1-.9 0-.5-.1-1-.1-1.5-.1-.3-.1-.5-.1-.8-.1-.8-.1-1.6-.1-2.4s.1-1.6.1-2.4c.1-.2.1-.5.1-.7 0-.6 0-1.1.1-1.7 0-.2.1-.5.1-.7.1-.6.1-1.1.2-1.7 0-.2.1-.4.1-.6.1-.6.2-1.1.3-1.7 0-.1.1-.3.1-.5.1-.5.2-1.1.4-1.7 0-.1.1-.2.1-.4.1-.6.3-1.2.5-1.8 0-.2.1-.3.1-.4.2-.7.4-1.3.6-1.9 0-.1.1-.2.1-.3.3-.6.5-1.3.8-1.9 0-.1.1-.1.1-.2.3-.6.6-1.3.9-1.9.1 0 .1-.1.1-.1.3-.6.6-1.3 1-1.9 8-14.5 23.5-24.3 41.2-24.3 26 0 47 21 47 47v1.2c14.3-8.1 30.9-12.7 48.5-12.7 45.5 0 83.9 30.7 95.4 72.6l14.5 52.6c1 3.5 1.6 7.2 1.9 10.9v.4c.1 1.4.1 2.7.1 4.1 0 16.9-7.3 32.1-18.9 42.6l196.7 7.7c2.1.1 3.8 1.8 3.8 3.9zM50.4 263.3c0 9.1 7.4 16.5 16.5 16.5s16.5-7.4 16.5-16.5-7.4-16.5-16.5-16.5c-9.2 0-16.5 7.3-16.5 16.5zm9.6 64.6-7.3-7.5c-1.1.3-2.3.6-3.4.9l6.6 8.9c.6-.7 1.4-1.2 2.3-1.6l1.8-.7zm6-2.4-8.4-6.6c-1.3.4-2.6.8-3.8 1.2l7.2 7.4 5-2zm6.6-2.7-9.7-5.8-4.2 1.5L67 325l5.6-2.2zm7.9-3.3-11.5-5c-1.7.7-3.3 1.4-4.9 2l9.7 5.8 6.7-2.8zm13.3-5.5c-2.4-2.7-4.6-5.7-6.5-8.8-3.3 1.9-6.6 3.7-10 5.4l9.2 2.8c.2.1.4.3.3.6-.1.3-.3.4-.5.4h-.1L76 311.3c-1.9 1-3.9 1.9-5.8 2.7l11.5 5 12.1-5z"/></svg>