<svg version="1.1" xmlns="http://www.w3.org/2000/svg" x="0" y="0" viewBox="0 0 512 512" xml:space="preserve"><path d="M173 268.1c-8 0-14.4 6.4-14.4 14.4s6.4 14.4 14.4 14.4 14.4-6.4 14.4-14.4c0-7.9-6.4-14.4-14.4-14.4zm-5.2 14.4c-2.5 0-4.6-2.1-4.6-4.6 0-2.5 2.1-4.6 4.6-4.6 2.5 0 4.6 2.1 4.6 4.6 0 2.6-2.1 4.6-4.6 4.6zM339 268.1c-8 0-14.4 6.4-14.4 14.4s6.4 14.4 14.4 14.4 14.4-6.4 14.4-14.4c0-7.9-6.4-14.4-14.4-14.4zm-5.3 14.4c-2.5 0-4.6-2.1-4.6-4.6 0-2.5 2.1-4.6 4.6-4.6 2.5 0 4.6 2.1 4.6 4.6 0 2.6-2.1 4.6-4.6 4.6zM448.8 120l11.8-12.4c3.5-3.6 6.1-8 7.5-12.9 7.4-26.2-10.6-59.3-44.1-77.9-33.5-18.6-71.1-16.3-89.6 3.9-3.4 3.8-5.7 8.3-7 13.2l-5.3 20.4C301 49.6 278.9 47 256 47c-22.9 0-45.1 2.5-66.2 7.2l-5.3-20.4c-1.3-4.9-3.6-9.4-7-13.2C159.1.4 121.5-1.9 88 16.7S36.5 68.3 43.8 94.6c1.4 4.9 4 9.3 7.5 12.9L63.1 120C23.8 157.5 0 206.4 0 260c0 95.4 75.4 176.2 179.4 203.3l-9.5-17c-13.4-23.9-13.1-53.5.7-77.3l61.2-105.7c4.7-7.9 13.1-12.7 22.1-12.7h4c9.2 0 17.6 4.9 22.1 12.7L341.4 369c13.8 23.7 14.1 53.3.7 77.3l-9.5 17C436.6 436.2 512 355.5 512 260c0-53.6-23.8-102.6-63.2-140zM173 315.5c-18.2 0-33-14.8-33-33s14.8-33 33-33 33 14.8 33 33-14.8 33-33 33zm166 0c-18.2 0-33-14.8-33-33s14.8-33 33-33 33 14.8 33 33-14.8 33-33 33zm-11.4 61.6l-61.4-105.7c-1.7-2.9-4.8-4.7-8.3-4.7h-4c-3.4 0-6.6 1.8-8.3 4.8l-61.2 105.6c-11 18.9-11.2 42.5-.5 61.5l16.2 29 .2.7c2.2 6.6 5.7 12.8 10.4 18.5 2.1 2.6 4.3 4.8 6.5 6.6l.2.2c10.7 9.3 24.4 14.4 38.6 14.4 14.1 0 27.9-5.1 38.6-14.4 2.5-2.3 4.8-4.6 6.7-6.8 4.6-5.6 8.1-12 10.4-18.5l.2-.7 16.2-28.9c10.7-19.2 10.5-42.8-.5-61.6zm-12.7 64.5c-11 21.3-33.3 35.8-58.9 35.8s-47.8-14.5-58.9-35.8c-3.3-6.4 1.4-14.1 8.7-14.1h100.4c7.2 0 12 7.7 8.7 14.1z"/></svg>