<svg version="1.1" xmlns="http://www.w3.org/2000/svg" x="0" y="0" viewBox="0 0 512 512" xml:space="preserve"><path d="M194.7 201.7c-10.8 0-19.6 8.8-19.6 19.6s8.8 19.6 19.6 19.6 19.6-8.8 19.6-19.6-8.7-19.6-19.6-19.6zm-6.9 15.1c-2.8 0-5.1-2.3-5.1-5.1s2.3-5.1 5.1-5.1 5.1 2.3 5.1 5.1-2.3 5.1-5.1 5.1zm319.6-41c-5.2-9-18.6-19.8-29.7-24-11.1-4.2-27.6-4.2-36.6 0-5.3 2.4-11 5.4-15.5 8C402.7 92.2 335.4 43.2 256 43.2s-146.7 49-169.5 116.6c-4.5-2.6-10.2-5.6-15.5-8-9-4.2-25.5-4.2-36.6 0-11.1 4.2-24.5 15-29.7 24-5.2 9-6.2 27.3-2.2 40.6L16.9 264c4 13.3 17 30.1 28.8 37.4l16.4 10.1c11.8 7.3 32.6 10.9 46.2 8.1l4.9-1c1.9-.4 3.7-1 5.4-1.8 13.1 14.9 28.8 27.7 46.6 37.6-.1 1.9-.1 3.8-.1 5.8 0 60 40.7 108.6 90.9 108.6s90.9-48.6 90.9-108.6c0-1.9 0-3.9-.1-5.8 17.8-9.9 33.5-22.7 46.6-37.6 1.7.8 3.5 1.4 5.4 1.8l4.9 1c13.6 2.8 34.4-.8 46.2-8.1l16.4-10.1c11.8-7.3 24.8-24.1 28.8-37.4l14.4-47.6c4-13.3 3.1-31.6-2.1-40.6zM269.9 300.2c3.5-1 8-5 10.1-8.8 2.1-3.8 4.6-3 5.7 1.9 1 4.9.5 11.4-1.3 14.5-1.7 3.1-7.1 6.5-12 7.6-4.9 1-8.8-1.5-8.8-5.7s2.8-8.4 6.3-9.5zm-37.9-8.8c2.1 3.8 6.6 7.8 10.1 8.8 3.5 1 6.3 5.3 6.3 9.5s-4 6.7-8.8 5.7c-4.9-1-10.3-4.5-12-7.6-1.7-3.1-2.3-9.7-1.3-14.5 1.1-4.9 3.6-5.8 5.7-1.9zm-72-70.1c0-19.2 15.6-34.7 34.7-34.7 19.2 0 34.7 15.6 34.7 34.7S213.9 256 194.7 256c-19.1 0-34.7-15.6-34.7-34.7zm165.5 158.5c-4.9 6.6-17.9 14.6-29.1 17.7-11.1 3.1-24.8 6.3-30.3 6.9-5.6.7-14.7.7-20.2 0-5.6-.7-19.2-3.8-30.3-6.9-11.1-3.1-24.2-11.1-29.1-17.7-4.9-6.6-2.3-8.6 5.7-4.4 8 4.2 25.6 8.4 39.2 9.5 13.5 1 35.7 1 49.3 0 13.5-1 31.2-5.3 39.2-9.5 7.9-4.2 10.4-2.2 5.6 4.4zM317.3 256c-19.2 0-34.7-15.6-34.7-34.7s15.6-34.7 34.7-34.7c19.2 0 34.7 15.6 34.7 34.7S336.4 256 317.3 256zm0-54.3c-10.8 0-19.6 8.8-19.6 19.6s8.8 19.6 19.6 19.6 19.6-8.8 19.6-19.6-8.8-19.6-19.6-19.6zm-7 15.1c-2.8 0-5.1-2.3-5.1-5.1s2.3-5.1 5.1-5.1 5.1 2.3 5.1 5.1-2.3 5.1-5.1 5.1z"/></svg>