<svg version="1.1" xmlns="http://www.w3.org/2000/svg" x="0" y="0" viewBox="0 0 512 512" xml:space="preserve"><path d="M220.6 74.2c2.7 0 5.4-.2 8.1-.7.9 3.4 1.9 6.6 3 9.7.8 2 1.6 4 2.5 5.8-1.7-1-3.5-2.5-5.2-4.6l-8.4-10.2zm16-45.5l-.8-5.1c-1.2-.1-2.5-.5-3.6-1h-.1c1.1 3 2.7 5.8 4.9 8.2-.2-.8-.3-1.4-.4-2.1zm-4.1 17.4c-.2-.8-.3-1.7-.5-2.5l-1.3-7.8c-2.1-.4-4.1-1-6.1-1.9 1.5 4 3.7 7.8 6.6 11 .5.4.9.8 1.3 1.2zm2.9 13.3c.3.4.7.8 1 1.2-.1-.1-.1-.3-.2-.4-.9-2.4-1.7-5-2.4-7.7-1.2.2-2.4.3-3.7.3l5.3 6.6zm-8.1 7.8c-.3-1.3-.5-2.6-.7-3.9l-1.8-10.8c-3.2-.4-6.4-1.3-9.5-2.7 1.8 5 4.6 9.7 8.3 13.8 1.2 1.3 2.4 2.5 3.7 3.6zM256 0s-.9 9-2.9 14.8l-.6 1.8c-.9 2.4-2.3 3.7-3.8 3.7-1.2 0-2.5-.8-3.6-2.4v-.1c.2 1 .4 2.1.6 3.1.5 2.2 1 4.3 1.7 6.3.8 2.3 1.7 4.2 2.7 5.8-.3 0-.6.1-.9.1-2.5 0-5.1-1.7-7.6-5.1.7 4.4 1.7 8.7 3.1 12.5 1.2 3.2 2.5 5.9 3.9 8.1-.7.2-1.4.3-2.1.3-3.1 0-6.4-2.1-9.4-6.1.4 2.7 1 5.4 1.6 8 .1.3.1.5.2.8.6 2.4 1.3 4.7 2.1 7 1.5 4.2 3.3 7.6 5.1 10.3-1.1.5-2.3.7-3.4.7-3.7 0-7.6-2.3-11.2-7 1.1 6.7 2.7 13.1 4.9 18.9 1.9 5.1 4.1 9.3 6.4 12.4-1.6.8-3.3 1.2-5 1.2-4.2 0-8.7-2.5-12.8-7.6 1.3 7.9 3.3 15.4 5.9 22 2.4 6.1 5.1 10.9 7.9 14.5-2.2 1.3-4.5 1.9-6.8 1.9-4.7 0-9.6-2.6-14.2-7.9 1.5 9 3.8 17.6 6.9 25.1 2.8 7 6.1 12.5 9.5 16.4-2.9 1.9-6 2.9-9.1 2.9-5.1 0-10.4-2.6-15.4-7.9 1.8 10.2 4.5 19.8 8 28.1 3.1 7.4 6.7 13.2 10.4 17.3-4.1 3.3-8.4 5-12.9 5-5.4 0-11-2.5-16.3-7.5 2.1 11.4 5.2 22 9.2 31.1 3.5 7.7 7.3 13.7 11.4 17.9-5.5 5.2-11.5 7.9-17.7 7.9-5.6 0-11.4-2.3-16.9-6.9 2.4 12.7 6 24.3 10.7 34.1 4.2 8.7 8.9 15.2 13.8 19.4-6.9 7-14.5 10.6-22.2 10.6-5.6 0-11.3-1.9-16.8-5.8 2.8 13.9 6.9 26.5 12.2 36.9 4.4 8.4 9.2 14.6 14.3 18.8-7.3 6.4-15.2 9.8-23.2 9.8-5.3 0-10.7-1.5-15.9-4.6 3.1 15 7.8 28.5 13.8 39.3 7.7 13.7 16.7 21.3 26 23.4-10.5 12.5-22.4 19.3-34.2 19.3-4.4 0-8.9-.9-13.3-2.9 2.8 12.9 6.7 24.5 11.6 34.1.5 1.1 1.1 2.1 1.6 3.1l.3.6c.6 1 1.1 2 1.7 2.9l1.5 2.4c.1.2.3.4.4.6l1.2 1.8c.1.2.2.3.4.5.5.7 1.1 1.4 1.6 2 .1.1.2.3.3.4.4.5.9 1 1.3 1.5l.5.5c.5.6 1 1.1 1.6 1.6l.1.1c.6.6 1.1 1.1 1.7 1.6.2.1.3.3.5.4.4.4.9.8 1.3 1.1.1.1.3.2.4.3.6.4 1.1.9 1.7 1.3.1.1.2.1.3.2.5.3.9.6 1.4.9.2.1.3.2.5.3.5.3 1.1.6 1.6.9.1 0 .1.1.2.1.6.3 1.2.6 1.8.8.2.1.3.1.5.2.5.2.9.4 1.4.5.1.1.3.1.4.2.6.2 1.2.4 1.8.5.1 0 .2 0 .3.1l1.5.3c.2 0 .3.1.5.1.5.1 1 .1 1.6.2h.2c.6 0 1.2.1 1.8.1h2.2c.4 0 .7-.1 1.1-.1.2 0 .4 0 .5-.1.5-.1.9-.1 1.4-.2h.3c.5-.1 1.1-.2 1.6-.4.2 0 .3-.1.5-.1l1.2-.3c.2-.1.4-.1.6-.2.4-.1.7-.3 1.1-.4.2-.1.4-.2.6-.2.4-.2.7-.3 1.1-.5.2-.1.3-.2.5-.2.5-.3 1.1-.5 1.6-.8l26.3-13.8 20-10.5V0zm116.1 407.6c16.1-4.8 31.2-14.1 43.8-28.1 9.7-10.7 16.9-23 21.7-36.2-20.5 9.1-43.2 10.3-64.3 3.6 8.8-4.8 17.1-11.2 24.5-19.3 8.9-9.8 15.6-21.2 20-33.4-21.5 9.6-45.6 9.7-67.2.4 9-4.4 17.5-10.7 24.9-18.9 8.2-9 14.3-19.5 18.4-30.6-19.9 8.9-42.4 8.9-62.3 0 7.8-4 15-9.5 21.4-16.6 7.4-8.2 13-17.7 16.7-27.8-17.5 7.8-37.2 8-54.9.8 7.3-3.6 14.2-8.8 20.3-15.4 6.7-7.4 11.7-15.9 15-25-15.2 6.7-32.1 7.2-47.5 1.4 6.9-3.2 13.3-7.9 18.9-14.1 5.9-6.5 10.4-14.1 13.3-22.2-13.4 5.9-28.3 6.4-41.9 1.4 5.8-2.8 11.3-6.9 16.1-12.2 5.2-5.7 9.1-12.3 11.6-19.4-11.5 5.1-24.4 5.6-36.2 1.4 4.9-2.4 9.4-5.8 13.4-10.2 4.4-4.9 7.8-10.6 10-16.6-9.7 4.3-20.4 4.8-30.3 1.4 3.9-2 7.6-4.8 10.8-8.3 3.7-4.1 6.5-8.8 8.3-13.8-7.7 3.4-16.3 3.9-24.3 1.4 3-1.6 5.8-3.7 8.3-6.5 2.9-3.2 5.1-7 6.6-11-5.8 2.6-12.1 3-18.1 1.5 2.1-1.2 4.1-2.7 5.8-4.6 2.2-2.4 3.8-5.2 4.9-8.2h-.1c-5.7 2.5-12.5.5-16.2-4.5-.5-.6-.9-1.3-1.4-2-.5-.7-.9-1.5-1.3-2.3v469.1l-2.7 1.4-15.2 7.9V506c0 3.3 2.7 6 6 6h13.7c3.3 0 6-2.7 6-6v-26.1h81.2c27.4.2 54.9-11.2 75.8-34.3 10.4-11.5 18.2-24.8 23.4-39-24.4 11-52 11.3-76.9 1zM194.3 200c-.1-.6-.2-1.1-.3-1.7l-2.7-15 11.1 10.5c4.3 4.1 8.7 6.2 12.9 6.2 1.8 0 3.7-.4 5.5-1.2-2.8-3.9-5.3-8.6-7.6-14.1-2.7-6.3-4.9-13.4-6.6-21-14.6 4.7-30.3 3.8-44.5-2.5 3.3 9.1 8.3 17.6 15 25 5.1 5.7 10.9 10.3 17.2 13.8zm-15 44.5l-1.9-9.8 10.7 8.9c4.5 3.8 9.2 5.7 13.7 5.7 3.6 0 7.1-1.2 10.6-3.5-3.2-4.2-6.2-9.3-8.8-15.2-3.7-8.2-6.6-17.6-8.8-28.1-17 6.3-35.7 5.7-52.4-1.7 3.7 10.1 9.3 19.6 16.7 27.8 6 6.7 12.8 12 20.2 15.9zm-34.2 202.3l-2.1-9.6 9 4c3.7 1.6 7.5 2.5 11.2 2.5 8.6 0 17.3-4.2 25.5-12.2-8-4.2-15.4-12-21.6-23-6.2-11.1-11.1-24.8-14.4-40.7l-2.3-11 9.7 5.7c4.4 2.6 8.9 3.9 13.4 3.9 5.2 0 10.4-1.7 15.5-5.1-4-4.3-7.7-9.7-11-16.1-5.5-10.6-9.8-23.5-12.7-38.2l-2.4-12.3 10.2 7.2c4.6 3.2 9.3 4.9 13.9 4.9 5.1 0 10.1-1.9 15-5.8-4-4.5-7.7-10.2-11-17.1-4.8-10-8.5-21.9-11.1-35.3l-.5-2.8c-19.7 8.4-41.7 8.3-61.3-.4 4.1 11.1 10.2 21.6 18.4 30.6 7.4 8.2 15.8 14.4 24.9 18.9-21.6 9.3-45.7 9.2-67.2-.4 4.4 12.1 11.1 23.5 20 33.4 7.3 8.1 15.6 14.5 24.5 19.3-21.1 6.7-43.8 5.5-64.3-3.6 4.8 13.2 12.1 25.5 21.7 36.2 12.6 13.9 27.8 23.3 43.8 28.1-24.9 10.3-52.5 10-77.2-1 5.2 14.2 13 27.5 23.4 39 19.4 21.4 44.4 32.8 69.8 34.1-4.5-9.7-8.1-20.7-10.8-33.2zM214 124.7c-.4-1.9-.8-3.9-1.1-5.9l-3-17.3 11.6 13.2c3.1 3.5 6.2 5.6 9.2 6.1-1.6-2.8-3.1-6-4.4-9.5-1.5-3.9-2.8-8-3.9-12.4-10.3 2.5-21.2 1.5-31-2.9 2.6 7.1 6.5 13.7 11.6 19.4 3.3 3.8 7 6.9 11 9.3zm7.1-31.2c-.4-1.7-.7-3.5-1-5.2l-2.4-14.2c-4.7-.4-9.3-1.5-13.7-3.5 2.2 6 5.5 11.7 10 16.6 2.3 2.4 4.6 4.5 7.1 6.3zm-15.3 67.2c-.4-1.7-.7-3.4-1-5.2l-2.8-16.2 11.4 11.9c4 4.1 8 6.3 11.8 6.3.4 0 .8 0 1.2-.1-2.3-3.5-4.4-7.7-6.3-12.3-2-4.9-3.7-10.3-5.1-16.1-12.4 3.5-25.7 2.6-37.7-2.7 3 8.1 7.4 15.6 13.3 22.2 4.5 5 9.7 9.1 15.2 12.2z"/></svg>