<svg version="1.1" xmlns="http://www.w3.org/2000/svg" x="0" y="0" viewBox="0 0 512 512" xml:space="preserve"><path d="M507.3 175.8c-5.2-9-18.6-19.8-29.7-24s-27.6-4.1-36.6 0c-5.3 2.4-10.9 5.3-15.4 7.9C402.7 92.1 335.4 43.1 256 43.1c-79.5 0-146.7 49-169.6 116.7-4.5-2.6-10.2-5.5-15.4-8-9-4.2-25.5-4.2-36.6 0s-24.5 15-29.7 24-6.2 27.3-2.2 40.6L16.9 264c4 13.3 17 30.1 28.8 37.4l16.4 10.1c11.8 7.3 32.6 10.9 46.2 8.1l4.9-1c1.9-.4 3.7-1 5.4-1.8 13.1 14.9 28.9 27.7 46.6 37.7-.1 1.9-.1 3.8-.1 5.7 0 60 40.7 108.6 90.9 108.6s90.9-48.6 90.9-108.6c0-1.9 0-3.8-.1-5.7 17.8-9.9 33.6-22.7 46.6-37.7 1.7.8 3.5 1.4 5.4 1.8l4.9 1c13.6 2.8 34.4-.8 46.2-8.1l16.4-10.1c11.8-7.3 24.8-24.1 28.8-37.4l14.4-47.6c4-13.3 3-31.6-2.2-40.6zM269.9 300.2c3.5-1 8-5 10.1-8.8s4.7-3 5.7 1.9c1 4.8.4 11.4-1.3 14.5-1.7 3.1-7.1 6.6-12 7.6-4.8 1-8.8-1.5-8.8-5.7s2.8-8.5 6.3-9.5zm-43.6-6.9c1-4.9 3.6-5.7 5.7-1.9 2.1 3.8 6.6 7.8 10.1 8.8s6.3 5.3 6.3 9.5-4 6.7-8.8 5.7c-4.9-1-10.3-4.5-12-7.6s-2.3-9.7-1.3-14.5zm-51.2-72c0-10.8 8.8-19.6 19.6-19.6s19.6 8.8 19.6 19.6-8.8 19.6-19.6 19.6-19.6-8.8-19.6-19.6zm150.3 158.5c-4.9 6.6-18 14.6-29.1 17.7s-24.7 6.2-30.3 6.9c-5.5.7-14.6.7-20.2 0-5.5-.6-19.2-3.8-30.3-6.9-11.2-3.1-24.2-11.1-29.1-17.7-4.8-6.6-2.3-8.6 5.7-4.4s25.7 8.5 39.2 9.5c13.6 1 35.8 1 49.3 0 13.6-1.1 31.2-5.3 39.2-9.5s10.5-2.2 5.6 4.4zm-8.1-138.9c-10.8 0-19.6-8.8-19.6-19.6s8.8-19.6 19.6-19.6 19.6 8.8 19.6 19.6-8.8 19.6-19.6 19.6zm-129.5-34.2c2.8 0 5.1 2.3 5.1 5.1s-2.3 5.1-5.1 5.1-5.1-2.3-5.1-5.1 2.3-5.1 5.1-5.1zm122.5 0c2.8 0 5.1 2.3 5.1 5.1s-2.3 5.1-5.1 5.1-5.1-2.3-5.1-5.1 2.3-5.1 5.1-5.1z"/></svg>