<svg version="1.1" xmlns="http://www.w3.org/2000/svg" x="0" y="0" viewBox="0 0 512 512" xml:space="preserve"><path d="m508.2 366.2-198.1-7.8c11.7-10.6 19-25.9 19-42.9 0-1.4 0-2.8-.1-4.1v-.4c-.3-3.8-.9-7.4-1.9-11l-14.6-52.9c-11.6-42.2-50.2-73.1-96.1-73.1-17.7 0-34.3 4.6-48.7 12.7v-1.1c0-26.2-21.1-47.3-47.3-47.3-17.9 0-33.4 10-41.5 24.6-.4.6-.7 1.3-1 2v.1c-.3.6-.6 1.3-.9 1.9 0 .1 0 .1-.1.2-.3.6-.5 1.3-.8 1.9 0 .1-.1.2-.1.3-.2.6-.4 1.2-.6 1.9 0 .1-.1.2-.1.3-.2.6-.4 1.2-.5 1.8 0 .1-.1.3-.1.4-.2.6-.3 1.2-.4 1.8 0 .2-.1.4-.1.5-.1.6-.2 1.1-.3 1.7 0 .2-.1.4-.1.6-.1.5-.1 1.1-.2 1.7 0 .2-.1.5-.1.7-.1.6-.1 1.1-.1 1.7 0 .2 0 .5-.1.7 0 .8-.1 1.6-.1 2.4s0 1.6.1 2.4c0 .3 0 .5.1.8 0 .5.1 1 .1 1.5 0 .3.1.6.1.9.1.5.1.9.2 1.4 0 .3.1.7.2 1 .1.4.1.8.2 1.3.1.3.1.7.2 1l.3 1.2c.1.4.2.7.3 1 .1.4.2.8.3 1.1.1.4.2.7.3 1.1.1.4.2.7.4 1.1.1.4.3.7.4 1.1.1.3.3.7.4 1 .1.4.3.7.5 1.1.1.3.3.6.4.9.2.4.3.7.5 1.1.1.3.3.6.5.9.1.2.2.3.2.5-1.2.5-2.4 1-3.6 1.6-3.8-7.1-6-15.4-6-24.1 0-11.6 3.8-22.1 10.3-30.8-14.4 7-24.3 21.7-24.3 38.9 0 8.9 2.6 17 7.1 23.9-2.4 1.8-4.9 3.7-7.4 5.9-24.7 21.3-47 55.8-48.5 78.3-3.8 1.4-6.5 5.1-6.5 9.5 0 5.5 4.5 10.1 10.1 10.1 1.4 0 2.8-.3 4-.8 13.8 9.1 43.9.6 70.5-14.8 1.9 3.1 4.1 6 6.4 8.9L55.2 329c-3.6 1.5-5.3 5.6-3.8 9.3 1.4 3.5 5.5 5.3 9.2 3.8l42-17.1c1.9 1.4 3.8 2.7 5.9 3.9l-25.1 10.3c-3.6 1.5-5.3 5.6-3.8 9.3 1.4 3.5 5.5 5.3 9.2 3.8l38.7-15.8c4.1 1 8.4 1.5 12.8 1.7 7.1 8.5 15.6 15.6 25.1 21.3h-22.8c-3.8 0-7 3.1-7 7s3.1 7 7 7h366.3c1.7 0 3.2-1.4 3.2-3.2-.1-2.2-1.8-4-3.9-4.1zM63.9 279.9c-9.2 0-16.6-7.4-16.6-16.6 0-9.2 7.4-16.6 16.6-16.6s16.6 7.4 16.6 16.6c0 9.1-7.4 16.6-16.6 16.6zm-6.5-16.7c0 1.9-1.6 3.5-3.5 3.5s-3.5-1.6-3.5-3.5 1.6-3.5 3.5-3.5 3.5 1.6 3.5 3.5z"/></svg>