<svg version="1.1" xmlns="http://www.w3.org/2000/svg" x="0" y="0" viewBox="0 0 512 512" xml:space="preserve"><path d="M481.5 36.4c-1.6.7-3.7 1.6-5 2.6-.1.3-.1.5-.3.8-.3.7-.5 1.4-.8 2-3 7.5-8.2 14.2-15 18.9-.7-1.4-1.8-2.3-3.1-3l-1.5-3.3-1.5 2.5c-1.2-.1-2.5.1-3.5.7-1.2.5-2.2 1.4-2.9 2.3l-2.9-.5 1.5 3.3c-.4 1.4-.3 2.9.3 4.4-8.2 1.9-16.5 1.2-24.1-1.4-.7-.3-1.2-.4-1.9-.7-.3-.1-.7-.3-1-.4-1.6.4-3.7 1.4-5.3 2-10.1 4.5-16.8 14.4-17.9 24.8 3.4-1.1 7-.5 9.8 1.4 1.9-1.6 4-3.4 6.4-4.5 6.8-3 13.8-2.3 20 .5 1.2-2.5 3.7-4.9 6.4-6.1 5.7-2.6 12-.5 15.4 4.5l.1.1s.1.1.1.3c.1.1.1.1.1.3.1.1.1.3.3.4.1 0 .3-.1.5-.1 3.4-1.1 5.2-.3 8.7.3 1.9-3.1 2.5-4.9 5.6-6.8.1-.1.3-.1.4-.3 0-.1-.1-.3-.1-.4s-.1-.3-.1-.3 0-.1-.1-.3c0 0 0-.1-.1-.3-1.5-5.9 1.2-11.9 7-14.4 2.7-1.2 6.3-1.4 8.9-.7 2-6.5 6.1-12.3 12.9-15.3 2.5-1.1 5.2-1.5 7.6-1.8.5-3.3 2.5-6.4 5.6-8.2-8.6-6.3-20.4-7.9-30.5-3.3zm-24.4 355.1c-1.1-.1-2.3-.3-3.4-.1l-.4.4c-.3.3-.7.5-1.1.8-3.8 2.9-8.5 4.9-13.4 5.3 0-1-.3-1.8-.7-2.5l.3-2.2-1.5.8c-.5-.4-1.2-.7-2-.7-.8-.1-1.5 0-2.2.3l-1.4-1.1-.3 2.2c-.5.7-1 1.4-1.2 2.3-4.8-1.5-8.9-4.2-12-7.9-.3-.3-.5-.7-.8-1-.1-.1-.3-.3-.4-.5-1-.3-2.3-.4-3.4-.5-6.5-.7-12.9 2.5-16.5 7.5 2 .4 3.7 1.8 4.6 3.5 1.5-.3 3-.5 4.6-.4 4.4.4 7.8 2.9 10.1 6.3 1.4-1 3.4-1.4 5.2-1.2 3.7.4 6.3 3.3 6.5 6.8v.8h.3c2 .4 2.7 1.4 4.4 2.7 1.9-1 2.7-1.8 4.9-1.8h.3v-.6c1-3.4 4.2-5.7 7.9-5.3 1.8.1 3.7 1.1 4.8 2.3 3-2.7 6.8-4.5 11.2-4 1.5.1 3.1.7 4.5 1.4 1.2-1.5 3.1-2.6 5.3-2.6-2.1-5.9-7.7-10.3-14.2-11zm-342.9-100c-1.9-.8-4.2-1.8-6.3-2.2-.3.1-.5.3-1 .4-.8.4-1.5.7-2.3 1-8.6 3.4-18.3 4.6-27.8 2.7.5-1.6.5-3.4 0-5l1.5-4-3.3.7c-1-1.1-2-1.9-3.4-2.5-1.4-.5-2.9-.7-4.2-.5l-1.9-2.7-1.5 4c-1.5.8-2.6 2-3.4 3.7-8.2-5.2-14.3-12.8-18.3-21.3-.4-.7-.7-1.5-1-2.2-.1-.4-.3-.7-.4-1.1-1.6-1.1-4.1-1.9-6-2.7-12-4.8-25.5-2.3-35 5 3.7 1.9 6 5.5 6.8 9.1 2.9.1 6 .5 8.9 1.8 7.9 3.1 13.1 9.5 15.7 17 3-1 7.1-.8 10.4.4 6.7 2.7 10.1 9.5 8.6 16.4 0 .1 0 .1-.1.3 0 .1 0 .1-.1.3 0 .1-.1.3-.1.4s-.1.3-.1.5c.1.1.4.1.5.3 3.7 1.9 4.4 4.1 6.8 7.6 4.1-.8 6.1-1.9 10.1-.8.1 0 .4.1.5.1 0-.1.1-.3.3-.4 0-.1.1-.3.1-.4s.1-.1.1-.3.1-.1.1-.3c3.7-5.9 10.9-8.6 17.6-5.9 3.1 1.2 6.1 4 7.8 6.8 7.1-3.5 15.1-4.8 23-1.5 2.9 1.1 5.3 3 7.6 4.9 3.1-2.2 7.4-3.1 11.3-1.9-1.3-11.8-9.5-23-21.5-27.7zm34-251.3c-.8.7-1.8 1.5-2.5 2.3v.5c0 .4 0 .8-.1 1.4-.4 4.8-2.2 9.4-5.3 13.4-.7-.7-1.5-1.1-2.3-1.2l-1.4-1.6-.4 1.6c-.7.1-1.4.5-1.9 1s-1 1.1-1.2 1.8l-1.6.1 1.4 1.6c0 .8.3 1.6.8 2.5-4.4 2.5-9.1 3.5-14 3.3-.4 0-.8 0-1.2-.1h-.7c-.8.5-1.9 1.4-2.6 2-5 4.4-7.1 11.2-5.9 17.2 1.8-1.2 3.8-1.5 5.7-1 .8-1.2 1.6-2.6 2.9-3.7 3.3-2.9 7.4-3.7 11.5-3.1.3-1.6 1.2-3.4 2.6-4.6 2.7-2.5 6.8-2.3 9.5-.1 0 0 .1 0 .1.1 0 0 .1 0 .1.1l.1.1c.1 0 .1.1.1.1.1 0 .1-.1.3-.1 1.8-1.2 2.9-1.1 5-1.4.5-2 .5-3.3 2-4.8 0-.1.1-.1.3-.3 0 0-.1-.1-.1-.3l-.1-.1s0-.1-.1-.1c0 0 0-.1-.1-.1-1.9-3-1.4-7 1.5-9.4 1.4-1.1 3.3-1.9 4.9-1.9 0-4.1 1.4-8 4.8-10.9 1.2-1.1 2.6-1.8 4-2.3-.3-1.9.3-4.1 1.8-5.6-5.9-1.8-12.9-.7-17.9 3.6zm164.5 107.2c-2.3.1-5 .3-7.2.8-.3.3-.4.5-.7.8-.7.7-1.2 1.4-1.9 2-7 7.5-16.1 13.2-26.3 15.9-.3-1.9-1.1-3.7-2.3-5l-.3-4.6-2.9 2.3c-1.4-.7-3-1-4.6-.8-1.6.1-3.1.5-4.5 1.4l-3.1-1.9.3 4.6c-1.1 1.5-1.6 3.3-1.6 5.3-10.6-1.4-20.3-5.9-28.2-12.5-.7-.5-1.4-1.1-1.9-1.8-.3-.3-.7-.5-1-1-2.2-.3-5 0-7.2.1-14.2 1-26.4 9.8-32.4 21.5 4.5.1 8.5 2.6 11 5.9 3-1.2 6.3-2.3 9.7-2.5 9.4-.5 17.4 3.4 23.6 9.5 2.6-2.3 6.7-4.2 10.5-4.5 7.9-.5 14.6 4.8 16.4 12.1v.6c0 .1 0 .3.1.4 0 .1 0 .4.1.5h.7c4.6.1 6.3 2 10.4 4.4 3.7-2.9 5.2-4.8 9.7-5.6.3 0 .4 0 .7-.1v-1.5c.8-7.6 6.8-13.6 14.7-14.2 3.8-.3 8 1.1 10.9 3.1 5.3-7 12.8-11.9 22.2-12.4 3.4-.3 6.8.5 9.8 1.2 2.2-3.7 5.9-6.5 10.2-7.2-7.5-10.4-20.9-17.8-34.9-16.8zM177.9 465c-.4-.7-.8-1.5-1.2-2-.1 0-.3 0-.4-.1-.3-.1-.5-.1-1-.3-3.3-1.1-6.4-3-8.6-5.7.5-.4 1-.8 1.2-1.5l1.4-.8-1.1-.5c0-.5-.1-1.1-.4-1.5-.3-.5-.7-.8-1.1-1.1l.1-1.2-1.4.8c-.5-.1-1.2 0-1.9.3-1.1-3.4-1.1-7-.3-10.4 0-.3.1-.5.3-.8 0-.1.1-.3.1-.4-.3-.7-.7-1.5-1.1-2.2-2.3-4.2-6.8-6.7-11.3-6.7.5 1.4.4 3-.1 4.2.8.7 1.6 1.6 2.2 2.6 1.5 2.7 1.5 5.7.5 8.6 1.1.4 2.2 1.4 2.9 2.6 1.2 2.3.7 5.2-1.4 6.7h-.2s-.1 0-.1.1l-.1.1c0 .1 0 .1.1.1.7 1.4.3 2.2.1 3.8 1.4.7 2.2.8 3.1 2.2l.1.1s.1 0 .1-.1h.3c2.5-.8 5.2.1 6.4 2.5.7 1.1.8 2.6.7 3.8 2.9.7 5.5 2.2 7 4.9.5 1 .8 2.2 1.1 3.1 1.4.1 2.9.8 3.7 2 2.3-4.1 2.6-9.1.3-13.2zm100.2-67.6c-.7-.1-1.6-.4-2.5-.4-.1.1-.3.1-.3.3-.3.1-.5.3-.8.5-3 1.8-6.4 2.7-10.1 2.6.1-.7 0-1.2-.3-1.9l.4-1.5-1.1.4c-.4-.3-.8-.5-1.4-.7s-1.1-.1-1.6 0l-.8-1-.4 1.5c-.5.4-.8 1-1.1 1.5-3.3-1.5-6-3.8-7.9-6.7-.1-.3-.3-.5-.4-.7s-.1-.3-.3-.4c-.7-.3-1.6-.5-2.3-.7-4.6-1.1-9.4.5-12.5 3.8 1.4.5 2.5 1.6 3 3 1.1-.1 2.2-.1 3.4.1 3.1.7 5.3 2.7 6.7 5.3 1.1-.5 2.6-.7 3.8-.4 2.6.5 4.2 3 4.1 5.5v.4c.1 0 .1 0 .3.1 1.5.5 1.9 1.2 2.9 2.5 1.5-.5 2.2-1.1 3.7-.8h.3v-.4c1-2.3 3.5-3.7 6.1-3.1 1.2.3 2.5 1.1 3.3 2 2.5-1.8 5.3-2.6 8.3-1.9 1.1.3 2.2.8 3 1.4 1.1-1 2.5-1.5 4-1.4-1.3-4.3-4.9-7.8-9.5-8.9zm81.8-80.8c-.7.8-1.5 1.9-1.9 2.7 0 .1 0 .3.1.5.1.4.1.8.1 1.4.5 4.8-.1 9.7-2.3 14.2-.8-.5-1.6-.7-2.5-.7l-1.8-1.2v1.8c-.7.3-1.2.8-1.6 1.4-.4.5-.7 1.4-.8 2l-1.6.5 1.8 1.2c.3.8.7 1.6 1.4 2.2-3.7 3.4-8.2 5.5-12.9 6.3-.4.1-.8.1-1.2.1-.3 0-.4 0-.7.1-.7.7-1.5 1.8-2.2 2.6-4 5.3-4.5 12.4-2 18 1.4-1.5 3.4-2.3 5.5-2.2.5-1.4 1.1-2.9 2-4.2 2.6-3.5 6.4-5.2 10.5-5.5 0-1.6.5-3.7 1.6-5 2.2-3 6.1-3.7 9.3-2.2h.1s.1 0 .1.1c0 0 .1 0 .1.1.1 0 .1.1.3.1l.3-.3c1.5-1.6 2.6-1.6 4.6-2.3.1-2.2-.1-3.3 1-5.2 0-.1.1-.1.1-.3-.1 0-.1-.1-.1-.1l-.1-.1-.1-.1-.1-.1c-2.5-2.6-2.9-6.5-.5-9.5 1.1-1.4 2.9-2.6 4.4-3-.8-4-.3-8.2 2.3-11.6 1-1.2 2.2-2.3 3.4-3.1-.7-1.9-.5-4.1.5-5.9-6.5-.7-13.2 1.9-17.1 7.3zM281.4 268c-.8-.3-1.9-.5-2.7-.7-.1.1-.3.1-.4.3-.3.1-.7.4-1 .5-3.5 1.8-7.6 2.7-11.7 2.3.1-.7.1-1.5-.1-2.2l.5-1.8-1.4.4c-.4-.4-1-.7-1.5-1-.5-.1-1.2-.1-1.8 0l-1-1.1-.5 1.8c-.5.4-1.1 1-1.4 1.6-3.7-1.9-6.7-4.8-8.6-8.2-.1-.3-.3-.5-.5-.8-.1-.1-.1-.3-.3-.4-.8-.4-1.8-.7-2.7-1-5.3-1.5-10.9.1-14.6 3.7 1.6.7 2.7 2 3.3 3.5 1.2 0 2.6 0 3.8.4 3.5 1 5.9 3.5 7.4 6.5 1.2-.5 3-.7 4.4-.3 3 .8 4.6 3.7 4.4 6.5v.6c.1 0 .1 0 .3.1 1.6.7 2 1.5 3.1 2.9 1.8-.5 2.5-1.1 4.2-.8h.3c0-.1 0-.1.1-.1 0 0 0-.1.1-.1v-.2c1.2-2.7 4.2-4.1 7.2-3.3 1.4.4 2.7 1.5 3.5 2.6 2.9-1.8 6.3-2.6 9.7-1.6 1.2.4 2.5 1.1 3.4 1.8 1.2-1.1 3-1.6 4.6-1.4-.9-4.6-4.8-9-10.1-10.5z"/></svg>