<svg version="1.1" xmlns="http://www.w3.org/2000/svg" x="0" y="0" viewBox="0 0 512 512" xml:space="preserve"><path d="M33.5 257.5c-5.6-37.8 10.4-75.6 35.8-79.3 25.4-3.8 50.5 27.9 56.1 65.7s-10.4 67.5-35.8 71.2c-25.4 3.7-50.5-19.8-56.1-57.6zM179 238.8c25.6-1.8 44.2-28.1 41.5-66.2s-25.5-73.7-51.1-71.9c-25.6 1.8-44.2 40.2-41.5 78.3s25.5 61.6 51.1 59.8zm88.1-12.2c25.1 2.6 47.6-19.8 51.4-57.3 3.8-37.5-12.4-75.8-37.5-78.4-25.1-2.6-49.6 31.6-53.5 69s14.5 64.1 39.6 66.7zM349 244c22.4 5.8 46.1-12.2 55.1-47s0-73.1-22.4-78.9c-22.4-5.8-49.7 23.1-58.7 57.8-9.1 34.8 3.6 62.3 26 68.1zm-11.5 33.9c-6.3-2.2-12.5-4.1-18.7-5.8-66.9-18.7-128.8-12.8-157 13.3-.7.6-1.4 1.3-2 2-4.6 4.4-16 15.2-24.5 21.2-10.9 7.6-40.8 19.9-40.8 19.9-28.1 11.3-47.2 34-47.2 60.1 0 17.1 8.2 38.7 21.7 57.3L98.1 486c11.4 15.7 31.1 26 53.5 26 16.8 0 32-5.8 43.4-15.3 4-3.3 7-7.7 9-12.5 6.9-16 21.1-30.7 40.5-39.8 24.6-11.6 37.8-3.4 69.3-.4s97-13.7 122.5-35.1c21.7-18.2 23-51.4 2.8-71.3-23.9-23.6-59.4-45.2-101.6-59.7zM176.8 53.8c8.7 0 15.7-4.2 15.7-18.1 0-13.9-10.5-32.2-15.7-32.2s-15.7 18.3-15.7 32.2c0 13.9 7 18.1 15.7 18.1zM67.4 137.1c8.7 0 15.7-4.2 15.7-18.1S72.7 86.8 67.4 86.8c-5.2 0-15.7 18.3-15.7 32.2s7.1 18.1 15.7 18.1zm327.1-33.3c5.5 2.2 11.1 1.3 14.6-7.6s1.4-23.3-1.9-24.6c-3.3-1.3-14.7 7.8-18.2 16.7-3.5 8.8-.1 13.3 5.5 15.5zm-99.7-54.4c8.5 1.7 16.2-1 18.9-14.6s-4-33.6-9.1-34.7S285.7 15 283 28.6s3.3 19.1 11.8 20.8zM464.5 181c3.4 1.6 6.8 1.3 9.4-4.1 2.6-5.4 1.9-14.4-.1-15.4s-9.5 4.2-12.1 9.5c-2.5 5.5-.6 8.4 2.8 10zm-11.4 8.5c-19.4-5-41.6 14.6-48 39.2s5.5 44.8 24.9 49.9c19.4 5 39-7 45.4-31.6 6.3-24.6-2.9-52.5-22.3-57.5z"/></svg>