<svg version="1.1" xmlns="http://www.w3.org/2000/svg" x="0" y="0" viewBox="0 0 512 512" xml:space="preserve"><path d="M510.5 454H1.5l152.1-240.7 11.1 4.3 109 42.9c3.2 1.2 6.6 1.8 9.9 1.8 4.6 0 9.3-1.2 13.6-3.6l.5-.3 57-34.3 6.5-6.4L510.5 454zm-480-16h451L357 241.3 306.1 272l-.6.4-.9.4c-6.6 3.6-13.9 5.5-21.1 5.5-5.3 0-10.6-1-15.7-2.9L160.1 233 30.5 438zm253.1-189.2c-1.6 0-3.1-.3-4.6-.9l-118-46.3 84.3-133.3c2.4-3.6 6.4-5.8 10.7-5.8 4.3 0 8.3 2.2 10.7 5.8l.1.1L355 207.9l-65 39.2c-2 1.2-4.2 1.7-6.4 1.7zm-98.7-55l98.4 38.7 49.4-29.8L256 81.3l-71.1 112.5z"/></svg>