<svg version="1.1" xmlns="http://www.w3.org/2000/svg" x="0" y="0" viewBox="0 0 512 512" xml:space="preserve"><path d="M398.5.1S358-3.8 305.2 34.7L302 63.9l-1.5-25.7C278 55.5 253.4 80.6 229 116.9c-12.8 19.1-24 38.9-33.7 58.9l4.7 32.1-8.6-23.8c-17.4 37.4-29.8 75-38.7 108.4l13.3 27.3-15.6-18.6c-2.5 9.9-4.7 19.4-6.6 28.4l14.2 14.2-14.5-12.6c-3.9 18.5-6.6 34.6-8.4 47.3 7.2 7.8 20.9 25.2 20.9 25.2l-22.1-16.6c-.6 4.5-1 8.4-1.4 11.6-.7 6.3 2.4 12.4 7.9 15.6l20.1 11.5c-.4 4.2-.9 8.5-1.3 12.8-2 23.3-3.3 46.7-2.8 70.2 0 1.6 1.4 2.9 3 2.9h1.2c1.6 0 2.9-1.2 3-2.8.6-11.1 1.3-22.2 2.1-33.3.8-12.1 1.8-24.1 2.9-36.2.4-4.6.9-9.3 1.3-13.9l56.4-31.9c1.9-1.1 3.3-3 3.9-5.1.3-1.4.8-3.3 1.3-5.5L180 396.9l53.1-19.7c1.1-4.5 2.5-9.9 4.2-16.2L199 376.9l39.2-19.2c2-7.2 4.3-15.4 6.9-24.4L202 346.9l46.6-25.3c2.9-9.5 6.1-19.8 9.7-30.7l-34.3 10 35.6-14.1c4.5-13.6 9.5-28.2 15.1-43.5l-24.7 5.6 25.6-7.9c.3-.8.6-1.6.9-2.3l-26.4 8.3 27.2-10.4c1.4-3.8 2.8-7.5 4.3-11.4 6.5-17.1 14.5-35.5 23.3-54L254 188.9l53.9-24.3c24-50 52.7-100.6 71.2-132.2L366 29.9l15.5-1.5c10.3-17.6 17-28.3 17-28.3z"/></svg>