<svg version="1.1" xmlns="http://www.w3.org/2000/svg" x="0" y="0" viewBox="0 0 512 512" xml:space="preserve"><path d="M448.7 339.5c-10.2 10.2-19.4 22.4-26.8 33.5-3.2-1.2-6.5-2-9.8-2.3l-4.1-8.2c-5.1-10.3-14.4-18-25.5-21.2l-8.5-2.4c-6.3-3-12.2-6.6-17.7-10.9l9.9-9.9c2.4-2.4 2.7-6.3.6-9-11.5-14.7-18.3-33.1-18.3-53.1s6.8-38.5 18.3-53.1c2.1-2.7 1.9-6.6-.6-9l-9.9-9.9c5.4-4.3 11.4-7.9 17.7-10.9l8.5-2.4c11.1-3.2 20.4-10.9 25.5-21.2l4.1-8.2c3.3-.3 6.6-1.1 9.8-2.3 7.4 11 16.6 23.3 26.8 33.5 25.7 25.7 53 40.2 61 32.1s-6.4-35.3-32.1-61c-10.2-10.2-22.4-19.4-33.5-26.8 5.1-13.5 2.2-29.4-8.7-40.3-10.9-10.9-26.8-13.8-40.3-8.7-7.4-11-16.6-23.3-26.8-33.5-25.7-25.7-53-40.2-61-32.1-8 8 6.4 35.3 32.1 61C349.7 73.5 361.9 82.6 373 90c-1.2 3.2-2 6.5-2.3 9.8l-8.2 4.1c-10.3 5.1-18 14.4-21.2 25.5l-2.4 8.5c-3 6.3-6.6 12.2-10.9 17.7l-9.9-9.9c-2.4-2.4-6.3-2.7-9-.6-14.7 11.5-33.1 18.3-53.1 18.3s-38.5-6.8-53.1-18.3c-2.7-2.1-6.6-1.9-9 .6l-9.9 9.9c-4.3-5.4-7.9-11.4-10.9-17.7l-2.4-8.5c-3.2-11.1-10.9-20.4-21.2-25.5l-8.2-4.1c-.3-3.3-1.1-6.6-2.3-9.8 11-7.4 23.3-16.6 33.5-26.8 25.7-25.7 40.2-53 32.1-61s-35.3 6.4-61 32.1c-10.2 10.2-19.4 22.4-26.8 33.5-13.5-5.1-29.4-2.2-40.3 8.7-10.9 10.9-13.8 26.8-8.7 40.3-11 7.4-23.3 16.6-33.5 26.8-25.7 25.7-40.2 53-32.1 61s35.3-6.4 61-32.1C73.5 162.3 82.6 150.1 90 139c3.2 1.2 6.5 2 9.8 2.3l4.1 8.2c5.1 10.3 14.4 18 25.5 21.2l8.5 2.4c6.3 3 12.2 6.6 17.7 10.9l-9.9 9.9c-2.4 2.4-2.7 6.3-.6 9 11.5 14.7 18.3 33.1 18.3 53.1s-6.8 38.5-18.3 53.1c-2.1 2.7-1.9 6.6.6 9l9.9 9.9c-5.4 4.3-11.4 7.9-17.7 10.9l-8.5 2.4c-11.1 3.2-20.4 10.9-25.5 21.2l-4.1 8.2c-3.3.3-6.6 1.1-9.8 2.3-7.4-11-16.6-23.3-26.8-33.5-25.7-25.7-53-40.2-61-32.1s6.4 35.3 32.1 61c10.2 10.2 22.4 19.4 33.5 26.8-5.1 13.5-2.2 29.4 8.7 40.3 10.9 10.9 26.8 13.8 40.3 8.7 7.4 11 16.6 23.3 26.8 33.5 25.7 25.7 53 40.2 61 32.1 8-8-6.4-35.3-32.1-61-10.2-10.2-22.4-19.4-33.5-26.8 1.2-3.2 2-6.5 2.3-9.8l8.2-4.1c10.3-5.1 18-14.4 21.2-25.5l2.4-8.5c3-6.3 6.6-12.2 10.9-17.7l9.9 9.9c2.4 2.4 6.3 2.7 9 .6 14.7-11.5 33.1-18.3 53.1-18.3s38.5 6.8 53.1 18.3c2.7 2.1 6.6 1.9 9-.6l9.9-9.9c4.3 5.4 7.9 11.4 10.9 17.7l2.4 8.5c3.2 11.1 10.9 20.4 21.2 25.5l8.2 4.1c.3 3.3 1.1 6.6 2.3 9.8-11 7.4-23.3 16.6-33.5 26.8-25.7 25.7-40.2 53-32.1 61 8 8 35.3-6.4 61-32.1 10.2-10.2 19.4-22.4 26.8-33.5 13.5 5.1 29.4 2.2 40.3-8.7 10.9-10.9 13.8-26.8 8.7-40.3 11-7.4 23.3-16.6 33.5-26.8 25.7-25.7 40.2-53 32.1-61s-35.4 6.4-61.1 32.1z"/></svg>