<svg version="1.1" xmlns="http://www.w3.org/2000/svg" x="0" y="0" viewBox="0 0 512 512" xml:space="preserve"><path d="M432.2 175.2c-14-11.4-31.8-18.2-51.2-18.2-18.1 0-34.9 6-48.5 16.1-.2.2-.4.3-.6.5-20.9-13.7-45.7-21.9-72.4-22.5V443h2c1.1 0 2 .9 2 2v2c0 1.1-.9 2-2 2v37c0 8.3 6.7 15 15 15s15-6.7 15-15c0-3 2.5-5.5 5.5-5.5s5.5 2.5 5.5 5.5c0 14.4-11.6 26-26 26s-26-11.6-26-26v-37c-1.1 0-2-.9-2-2v-2c0-1.1.9-2 2-2h2V151.1h-1.7c-26 1-50.2 9.1-70.7 22.5h-.1c-.2-.2-.5-.4-.8-.6v-.1C165.7 162.9 149 157 131 157c-19.4 0-37.2 6.8-51.2 18.2 14-78.1 78.6-138.6 158.7-146.3h.1c1.8-.2 3.6-.3 5.3-.4.4 0 .9 0 1.3-.1 1.3-.1 2.5-.1 3.8-.2h.9V26c0-1.1.9-2 2-2h.5V5c0-1.1.9-2 2-2V1c0-.6.4-1 1-1h1c.6 0 1 .4 1 1v2c1.1 0 2 .9 2 2v19h.5c1.1 0 2 .9 2 2v2.1h.4c1.7.1 3.4.1 5 .2h.2c82.9 5.4 150.4 66.9 164.7 146.9zm-254.6.9c0 1.4 1.1 2.5 2.5 2.5s2.5-1.1 2.5-2.5-1.1-2.5-2.5-2.5-2.5 1.1-2.5 2.5zm151.8 0c0 1.4 1.1 2.5 2.5 2.5s2.5-1.1 2.5-2.5-1.1-2.5-2.5-2.5-2.5 1.1-2.5 2.5zm102.8-.9c-1.4 0-2.5 1.1-2.5 2.5s1.1 2.5 2.5 2.5 2.5-1.1 2.5-2.5-1.1-2.5-2.5-2.5zm-354.9 2.5c0 1.4 1.1 2.5 2.5 2.5s2.5-1.1 2.5-2.5-1.1-2.5-2.5-2.5-2.5 1.1-2.5 2.5z"/></svg>