<svg version="1.1" xmlns="http://www.w3.org/2000/svg" x="0" y="0" viewBox="0 0 512 512" xml:space="preserve"><path d="M461.6 170c-20.9-29.7-49.6-46-80.9-46-18.2 0-34 2.2-47.5 6.5V79c0-2.3-.9-4.3-2.5-5.8L371 7.6c1.4-2.4.7-5.4-1.6-6.9-2.4-1.4-5.4-.7-6.9 1.7L320.4 71H27.3c-4.4 0-8 3.6-8 8v425c0 4.4 3.6 8 8 8h298c4.4 0 8-3.6 8-8v-80.2c15.9 9.3 32.6 13.2 47.5 13.2 31.3 0 60-16.5 80.9-46.6 20.1-28.8 31.1-68 31.1-110.4 0-42.4-11.1-81.4-31.2-110zm-80.8 237c-8.4 0-16.5-1.6-24.1-4.8-8.2-3.4-14.6-10.1-17.7-18.5l-5.7-15.5V173.5l9.3-9.3c5-5 11.5-8.3 18.6-9.1 6-.7 12.6-1.1 19.7-1.1 21.2 0 41.2 11.8 56.3 33.3 16.6 23.6 25.7 56.5 25.7 92.7-.1 71.2-36.2 127-82.1 127z"/></svg>