<svg version="1.1" xmlns="http://www.w3.org/2000/svg" x="0" y="0" viewBox="0 0 512 512" xml:space="preserve"><path d="M305.5 159.7V62h5.5c3.3 0 6-2.7 6-6V31.5h5.5c3.3 0 6-2.7 6-6V6c0-3.3-2.7-6-6-6h-133c-3.3 0-6 2.7-6 6v19.5c0 3.3 2.7 6 6 6h5.5V56c0 3.3 2.7 6 6 6h5.5v97.7c0 8.8 1.8 17.5 5.3 25.5l30.7 70.8-30.7 70.8c-3.5 8-5.3 16.7-5.3 25.5V450H201c-3.3 0-6 2.7-6 6v24.5h-5.5c-3.3 0-6 2.7-6 6V506c0 3.3 2.7 6 6 6h133c3.3 0 6-2.7 6-6v-19.5c0-3.3-2.7-6-6-6H317V456c0-3.3-2.7-6-6-6h-5.5v-97.7c0-8.8-1.8-17.4-5.3-25.5L269.5 256l30.7-70.8c3.5-8.1 5.3-16.7 5.3-25.5z"/></svg>