<svg version="1.1" xmlns="http://www.w3.org/2000/svg" x="0" y="0" viewBox="0 0 512 512" xml:space="preserve"><path d="M0 91v330L512 91H0zm282.5 14.5h4V116h-4v-10.5zm-19 0h4V116h-4v-10.5zm-19 0h4V116h-4v-10.5zm-19 0h4V116h-4v-10.5zm-19-10.5h4v21h-4V95zm-19 10.5h4V116h-4v-10.5zm-19 0h4V116h-4v-10.5zm-19 0h4V116h-4v-10.5zm-19 0h4V116h-4v-10.5zm-19-10.5h4v21h-4V95zm-19 10.5h4V116h-4v-10.5zm-19 0h4V116h-4v-10.5zm-53 10.5h-4V95h4v21zm19 0h-4v-10.5h4V116zm19 0h-4v-10.5h4V116zM64 303.6V155h230.6L64 303.6zM305.5 116h-4V95h4v21zm19 0h-4v-10.5h4V116zm19 0h-4v-10.5h4V116zm19 0h-4v-10.5h4V116zm19 0h-4v-10.5h4V116zm19 0h-4V95h4v21zm19 0h-4v-10.5h4V116zm19 0h-4v-10.5h4V116zm15 0v-10.5h4V116h-4z"/></svg>