<svg version="1.1" xmlns="http://www.w3.org/2000/svg" x="0" y="0" viewBox="0 0 512 512" xml:space="preserve"><path d="M240 29c-3-4-14-5-19-8S201 0 187 0s-21 16-36 16-22-16-36-16-29 18-34 21-16 4-19 8-6 4-6 72 24 175 43 266c.8 3.6 1.5 7.2 2.2 10.6l6.9 60.4c-.7 3.2-1.1 6.5-1.1 10 0 16.9 9.1 31.6 22.6 39.3C136.2 503.4 143 512 151 512s14.8-8.6 21.4-24.7c13.5-7.7 22.6-22.4 22.6-39.3 0-3.4-.4-6.8-1.1-10l6.9-60.4c.7-3.5 1.5-7 2.2-10.6 19-91 43-198 43-266s-3-68-6-72zM83.5 224c-1.9 0-3.5-1.3-3.8-3.1-1.1-6.3-2.2-12.5-3.2-18.6C70.2 164.2 66 129 66 101c0-24.6.4-41.8 1.2-52.6.7-9.9 1.7-11.9 1.8-12.1 0-.1.2-.3.4-.5l.1-.1c1.2-.6 4.2-1.5 6-2 3.7-1.1 7.5-2.2 10.6-4.1 2.1-1.3 4.3-3.2 7.2-5.9 3-2.7 7.5-6.7 11.9-9.7 1.5-1 3.5.4 3 2.1-.3 1.1-.4 2.2-.5 3.4-1.2 37.4-3.9 106-7.8 145.6-1.1 11.3-3.8 24.3-7.9 38.7-1.7 5.9-3.6 12-5.8 18.4-.3 1-1.4 1.8-2.7 1.8zM151 487.9c-21.5 0-39-17.9-39-39.9s17.5-39.9 39-39.9 39 17.9 39 39.9-17.5 39.9-39 39.9zm61.8-217.3c-1.5 7.6-3.1 15.2-4.6 22.7-.4 2.1-3.4 2.2-3.9.1-6-23.8-27.6-41.4-53.3-41.4s-47.3 17.6-53.3 41.4c-.5 2-3.5 2-3.9-.1-1.6-7.6-3.1-15.1-4.6-22.7-2.3-11.7-1.3-23.7 2.8-34.9 8.4-22.7 15.8-47.6 18-69.7 3.9-38.9 6.5-104.8 7.9-146.2.1-4.2 5-6.6 8.4-4l.1.1C132.5 20.4 140.1 26 151 26s18.5-5.6 24.6-10.2l.1-.1c3.4-2.5 8.2-.2 8.4 4 1.4 41.5 4 107.3 7.9 146.2 2.2 22.1 9.6 47 18 69.7 4.1 11.3 5.1 23.3 2.8 35zm12.7-68.4c-1 6.1-2.1 12.3-3.2 18.5-.3 1.8-1.9 3.3-3.7 3.3-1.3 0-2.4-.9-2.8-2.1-2.2-6.3-4.1-12.4-5.8-18.3-4.1-14.4-6.8-27.3-7.9-38.7-4-39.5-6.6-108.2-7.8-145.6 0-1.2-.2-2.3-.5-3.4-.5-1.8 1.5-3.2 3-2.1 4.5 3 8.9 7 11.9 9.7 3 2.7 5.1 4.6 7.2 5.9 3.2 1.9 7 3 10.6 4.1 1.8.5 4.8 1.4 6 2l.1.1c.1.2.3.4.4.5.1.2 1.1 2.2 1.8 12.1.8 10.7 1.2 27.9 1.2 52.6 0 28.2-4.2 63.4-10.5 101.4zM450 29c-3-4-14-5-19-8S411 0 397 0s-21 16-36 16-22-16-36-16-29 18-34 21-16 4-19 8-6 4-6 72 24 175 43 266c.8 3.6 1.5 7.2 2.2 10.6l6.9 60.4c-.7 3.2-1.1 6.5-1.1 10 0 16.9 9.1 31.6 22.6 39.3C346.2 503.4 353 512 361 512s14.8-8.6 21.4-24.7c13.5-7.7 22.6-22.4 22.6-39.3 0-3.4-.4-6.8-1.1-10l6.9-60.4c.7-3.5 1.5-7 2.2-10.6 19-91 43-198 43-266s-3-68-6-72zM293.5 224c-1.9 0-3.5-1.3-3.8-3.1-1.1-6.3-2.2-12.5-3.2-18.6C280.2 164.2 276 129 276 101c0-24.6.4-41.8 1.2-52.6.7-9.9 1.7-11.9 1.8-12.1 0-.1.2-.3.4-.5l.1-.1c1.2-.6 4.2-1.5 6-2 3.7-1.1 7.5-2.2 10.6-4.1 2.1-1.3 4.3-3.2 7.2-5.9 3-2.7 7.5-6.7 11.9-9.7 1.5-1 3.5.4 3 2.1-.3 1.1-.4 2.2-.5 3.4-1.2 37.4-3.9 106-7.8 145.6-1.1 11.3-3.8 24.3-7.9 38.7-1.7 5.9-3.6 12-5.8 18.4-.3 1-1.4 1.8-2.7 1.8zM361 487.9c-21.5 0-39-17.9-39-39.9s17.5-39.9 39-39.9 39 17.9 39 39.9-17.5 39.9-39 39.9zm61.8-217.3c-1.5 7.6-3.1 15.2-4.6 22.7-.4 2.1-3.4 2.2-3.9.1-6-23.8-27.6-41.4-53.3-41.4s-47.3 17.6-53.3 41.4c-.5 2-3.5 2-3.9-.1-1.6-7.6-3.1-15.1-4.6-22.7-2.3-11.7-1.3-23.7 2.8-34.9 8.4-22.7 15.8-47.6 18-69.7 3.9-38.9 6.5-104.8 7.9-146.2.1-4.2 5-6.6 8.4-4l.1.1C342.5 20.4 350.1 26 361 26s18.5-5.6 24.6-10.2l.1-.1c3.4-2.5 8.2-.2 8.4 4 1.4 41.5 4 107.3 7.9 146.2 2.2 22.1 9.6 47 18 69.7 4.1 11.3 5.1 23.3 2.8 35zm12.7-68.4c-1 6.1-2.1 12.3-3.2 18.5-.3 1.8-1.9 3.3-3.7 3.3-1.3 0-2.4-.9-2.8-2.1-2.2-6.3-4.1-12.4-5.8-18.3-4.1-14.4-6.8-27.3-7.9-38.7-4-39.5-6.6-108.2-7.8-145.6 0-1.2-.2-2.3-.5-3.4-.5-1.8 1.5-3.2 3-2.1 4.5 3 8.9 7 11.9 9.7 3 2.7 5.1 4.6 7.2 5.9 3.2 1.9 7 3 10.6 4.1 1.8.5 4.8 1.4 6 2l.1.1c.1.2.3.4.4.5.1.2 1.1 2.2 1.8 12.1.8 10.7 1.2 27.9 1.2 52.6 0 28.2-4.2 63.4-10.5 101.4z"/></svg>