<svg version="1.1" xmlns="http://www.w3.org/2000/svg" x="0" y="0" viewBox="0 0 512 512" xml:space="preserve"><path d="M499.1 378.2c-65.4-34.9-132.5-63.9-200.6-87.3-2-6.3-5.4-12.1-9.7-16.9 13.8-70.7 22.2-143.3 24.7-217.4.4-13.2-9.7-24.2-22.8-25.1-11.5-.8-23-1.1-34.7-1.1-11.7 0-23.2.4-34.7 1.1-13.1.9-23.3 11.9-22.8 25.1 2.5 74.1 10.9 146.7 24.7 217.4-4.4 4.8-7.8 10.5-9.7 16.9-68.1 23.4-135.1 52.4-200.6 87.3-11.6 6.2-16.1 20.5-10.3 32.3 5.1 10.3 10.5 20.5 16.3 30.6 5.8 10.1 11.9 19.9 18.3 29.5 7.3 11 22 14.2 33.2 7.2 62.9-39.2 121.6-82.8 175.9-130 3.1.7 6.4 1.1 9.7 1.1s6.6-.4 9.7-1.1c54.3 47.3 113 90.8 175.9 130 11.2 7 25.8 3.7 33.2-7.2 6.4-9.5 12.5-19.4 18.3-29.5 5.8-10.1 11.3-20.3 16.3-30.6 5.9-11.7 1.4-26.1-10.3-32.3zm-262.4-73.9c0-10.6 8.6-19.3 19.3-19.3s19.3 8.6 19.3 19.3-8.6 19.3-19.3 19.3-19.3-8.7-19.3-19.3z"/></svg>