<svg version="1.1" xmlns="http://www.w3.org/2000/svg" x="0" y="0" viewBox="0 0 512 512" xml:space="preserve"><path d="M428 212.7c-2.5-5.9-8.3-9.7-14.7-9.7h-9.8v-56C403.2 65.8 337.3 0 256 0S108.8 65.8 108.5 147v56h-9.8c-6.4 0-12.2 3.8-14.7 9.7-18.4 43.8-29 88.2-29 121.8 0 98 90 177.5 201 177.5s201-79.5 201-177.5c0-33.6-10.6-78-29-121.8zm-287.5-65.6c.1-30.7 12.2-59.6 34-81.4C196.3 44 225.2 32 256 32s59.7 12 81.5 33.7c21.8 21.7 33.8 50.6 34 81.4V203h-55.8c-6.2 0-11.8 3.5-14.4 9.1-8 17.1-25.3 28.9-45.3 28.9s-37.4-11.8-45.3-28.9c-2.6-5.6-8.3-9.1-14.4-9.1h-55.8v-55.9zM256 480c-93.2 0-169-65.3-169-145.5 0-26.6 8.3-63.2 22.5-99.5h77.3c14.9 23.4 41 38 69.2 38 28.1 0 54.2-14.6 69.1-38h77.4c14.2 36.3 22.5 72.9 22.5 99.5 0 80.2-75.8 145.5-169 145.5zm32-94.6c0 11.8-6.4 22.2-16 27.7V448c0 4.4-3.6 8-8 8h-16c-4.4 0-8-3.6-8-8v-34.9c-9.6-5.5-16-15.9-16-27.7 0-17.7 14.3-32 32-32s32 14.3 32 32z"/></svg>