<svg version="1.1" xmlns="http://www.w3.org/2000/svg" x="0" y="0" viewBox="0 0 512 512" xml:space="preserve"><path d="M506 90H6c-3.3 0-6 2.7-6 6v320c0 3.3 2.7 6 6 6h500c3.3 0 6-2.7 6-6V96c0-3.3-2.7-6-6-6zm-14.9 8.1c.8-.8 2-.8 2.8 0 .8.8.8 2 0 2.8-.8.8-2 .8-2.8 0-.7-.7-.7-2 0-2.8zm-473 .1c.8-.8 2-.8 2.8 0 .7.7.7 2 0 2.8-.8.8-2 .8-2.8 0-.8-.8-.8-2 0-2.8zM8.2 108c.8-.8 2-.8 2.8 0 .7.8.7 2.1 0 2.8-.8.8-2 .8-2.8 0s-.8-2 0-2.8zM11 403.9c-.8.8-2 .8-2.8 0s-.8-2 0-2.8 2-.8 2.8 0c.7.8.7 2.1 0 2.8zm9.9 10c-.8.8-2 .8-2.8 0-.8-.8-.8-2 0-2.8.8-.8 2-.8 2.8 0 .7.7.7 2 0 2.8zm8.1.1L8 393V119l21-21h454l21 21v274l-21 21H29zm464.9-.2c-.8.8-2 .8-2.8 0-.7-.7-.7-2 0-2.8.8-.8 2-.8 2.8 0s.8 2 0 2.8zm9.9-9.8c-.8.8-2 .8-2.8 0-.7-.8-.7-2.1 0-2.8.8-.8 2-.8 2.8 0s.8 2 0 2.8zm0-293.1c-.8.8-2 .8-2.8 0-.7-.8-.7-2.1 0-2.8.8-.8 2-.8 2.8 0 .8.8.8 2 0 2.8zM84.7 191.5c-.6 6.6-.9 12.8.4 19.3 1.3 6.2 3.6 12.5 2.9 18.9-.3 2.6-1 6.5-3 8.4-1.7 1.5-4.4 1.9-6.6 1.4s-4.4-1.8-5.9-3.5c-1.1-1.2-1.8-4.2.3-5.1 1.4-.6 2.7 2.2 3.3 3.1 1.2 1.7 3.2 3.2 5.1 1.5.9-.8 1.2-2.3 1.5-3.3.4-1.6.5-3.4.7-5 .2-3.1-.1-6-1-9s-1.4-6.1-1.9-9.1c-.3-1.5-.3-3-.4-4.5-.2-1.7-.4-3.3-.3-5.1.1-3.3.1-6.7.3-9.9.2-2.6 1.1-5.9 2.9-8s4.8-3.1 7.5-2.3c2 .6 5.3 2.4 4 5.1-.7 1.4-2.5-.2-3.3-.8-1.1-.9-2.2-1.5-3.3-.3-1 1.1-1.7 2.6-2.3 4-.2.4-1.4 4.1-.9 4.2zm63.1 34.3c.2-1.7.5-3.5.7-5.2-2.3.9-4.7 1.7-7 .2-2.1-1.4-2.6-4.2-2.1-6.5.3-1.3.8-2.5 1.7-3.6s1.8-2.3 2.8-3.4c2.2-2.5 6-1.5 7.4 1.3 2.8-3.6 2.8-8.5 3.9-12.8.5-1.8 1.2-4.7 2.6-6.1 1.1-1.1 3.1-.4 3.7.9.5.9-.2 1.8-.6 2.6-.5 1-.7 2.1-1.1 3.2-.8 2.5-1.6 4.9-2.4 7.4-1.5 4.7-3.2 9.5-4.3 14.3-.3 1.4-.5 2.7-.6 4.1-.1 1.2.1 2.8-.2 3.9-.2.8-1 1.6-2 1.6-1-.1-1.8-1.2-2.5-1.9zm-3.5-10.2c0 .6.2 1.1.4 1.7 1.4-.8 2.3-2.6 3.4-3.8.5-.6.9-1.2.9-2 0-.6-.4-1.8-.8-2.1-.9-.6-2.3 1.3-2.8 2-.9 1.2-1.3 2.7-1.1 4.2zm-65.6 30.3c4.1-.2 6.9 2.7 8.6 6.1.9 1.8 1.9 3.8 1.4 5.8-.5 1.8-2 3.4-3.2 4.6-2.9 2.8-7.2 3.6-10.6 1.1-3.3-2.3-4.5-6-3.7-9.8.4-1.9 1-3.8 2.5-5.1 1.4-1.1 3.1-3 5-2.7zm-2.2 9.7c-1.3-.4-.9 1.9-.8 2.5.3 1.1.9 2.5 1.9 3.2 2.1 1.5 4.6-1.7 5.4-3.3 1.2-2.5 0-5.5-1.6-7.5-1.2-1.5-1.8-.4-2.5.9l-2.4 4.2zm38.4-38.7c-1.4 2-2.7 4.1-4.6 5.7-.7.6-.9 1-1.9.8-.8-.2-1.5-.7-1.8-1.4-.8-1.7 2-3.8 2.9-5 1.2-1.4 3.4-3.4 2.6-5.4-.5-1.1-1.2-2.3-1.9-3.3-.5-.9-1-2.2-1.7-2.9-.6-.6-1.3-1-1.5-1.9-.3-1.1.3-1.8 1.4-1.6.9.1 1.9.7 2.5 1.4.4.4.6.8 1 1.1s.9.5 1.2.9c.4.5.1 1.1.5 1.6.1.2.5.3.7.6.3.5.4 1.1.7 1.7 1.2-2.1 2.4-4.3 3.5-6.4.4-.7.8-2.1 1.8-2.2.8-.1 1.7.8 2.1 1.5 1 1.8-.7 3.9-1.5 5.4-.5.9-1.1 1.9-1.6 2.9-.5.8-1.5 2.1-1.4 3.1.2 1 1.2 2.2 1.7 3.1.6 1.1 1.3 2.1 1.9 3.2l1.8 2.7c.4.6.7 1.2.2 1.8-1.3 1.6-3.5-.2-4.3-1.3-1.5-2.2-2.8-4.2-4.3-6.1zm103 3.3c-1.5.4-3.2 1.2-4.8.5-1.2-.6-2.6-2.2-.9-2.9 3-1.4 7.1-2.6 9.9-.2 1.2 1.1 1.4 2.4.7 3.8-.3.7-.8 1.1-1.2 1.6-.8.7-1.2 1-.4 1.9 1.1 1.2 2.2 2.2 2.6 3.9.4 1.6.3 3.5-.7 4.9-.9 1.2-2.6 2.3-3.8 3.1-1.5 1-3.4 2-5.2 1.9-3.1-.2-5.5-2.2-6.1-5.2-.2-1-.7-3.8.9-3.7 1.8.2 2 2.9 2.9 4 .9 1 2.3 1.3 3.6.7s3.5-2.1 3.9-3.5c1.8-5.2-6.9-2.1-6.8-5.9 0-1.6 1.5-1.4 2.5-1.9 1.2-.5 2.1-2 2.9-3zm-56.8-13.8c2.9-.6 5 .6 5.8 3.5 1.3-1.7 2.4-3.7 3.8-5.3 1.1-1.3 3-.8 3.9.6 1 1.8-1.2 3.6-2.2 4.9l-2.2 2.7c-.7.9-.9 1.2-.4 2.3 1 2 2.1 3.9 3.2 5.8.8 1.4 2.8 3.9.1 4.5-1.5.3-2.9-1-3.6-2.2-1-1.9-1.9-4-2.8-6-1 1.2-2 2.3-3 3.6-.8 1.1-1.6 2.6-2.5 3.7-1.7 2-5-.1-3.7-2.4.8-1.3 2.1-2.5 3-3.8 1-1.3 2.2-2.6 3.1-3.9 1-1.5 0-2.4-.9-3.6-.8-1.4-1.2-2.6-1.6-4.4zm-31-12.5c1.9 0 3.8 0 5.7.1 1.7.1 3.7.3 4.4 2.1.3.7.3.1.1.6-.2.3-.7.3-.9.4-.9.2-1.9.3-2.9.3-2.1.1-4.3 0-6.4-.1-1.9-.1-3.8 0-5.2-1.3-.5-.5-.9-.8-.8-1.5.1-.5.8-1.1 1.2-1.3.6-.3 1-.4 1.5-.9.6-.6 1.1-1.3 1.6-2s.9-1.4 1.3-2.2c.4-1 .3-1.5-.1-2.4-1.3.7-2.1 2-3.2 3-.9.8-3.5 1.5-3.8-.3-.2-1.1 1-2.9 1.6-3.8.9-1.2 2.1-2.3 3.6-2.5 1.3-.2 2.6.2 3.6 1.1.9.9 2.2 2.5 2.4 3.8.1.8-.1 1.5-.4 2.2-.3.7-.6 2.1-1.1 2.6-.1.1-.4.2-.5.3s-.1.4-.3.6c-.3.4-.9.7-1.4 1.2zm-43.8-20c.2-.9 1.6-6 .7-6.3-.3-.1-.8.2-1.1.2-.5 0-1-.1-1.5-.3-.8-.4-1.5-1.1-1.3-2 .1-1.1 1.2-2.2 1.8-3 .8-1.2 1.7-2.5 2.6-3.8.6-.8 1.1-2.1 2.2-2.3.8-.2 2.1.3 2.8.6 1.9 1 .8 3.9.7 5.6-.3 2.8-.8 5.5-1.1 8.3-.2 1.4 0 4-1.5 4.8-1.8.9-3.9-.2-4.3-1.8zm141.7 5.7c-1 4.5-2.3 8.9-3.1 13.4-.4 2.4-.6 4.6-.7 7-.1 1.6-2.1 1.8-3.3.9-1.6-1.2-.7-3.8-.5-5.3.2-1.2.4-2.5.6-3.8.1-.6.2-1.1.3-1.7.1-.4.5-1.2.3-1.6-.3-.8-1.1.3-1.8.1-.6-.2-1.1-.8-1.1-1.4-.1-1.7 1.9-4 2.8-5.4.7-1.1 1.4-2.3 1.9-3.5.4-.8.6-1.5 1.5-1.8 1.9-.4 3.1 1.4 3.1 3.1zm4.1 32.2c-5.9 0-11.8-.1-17.8-.2-1.7 0-5-.1-5.4-2.4-.5-2.7 5-1.5 6.2-1.4 5.9.6 11.6.4 17.5 0 1.2-.1 5.9-.2 5.4 2.2-.2 1-1.2 1.4-2.1 1.6-.6 0-3.8 0-3.8.2zm-31.3 4.6c.4 1.4-2.7 1.1-3.5 1.1-1.7.1-3.5.1-5.3.4-1.5.2-3.1.9-4.6.7-1.3-.2-2.8-1.1-2.8-2.6.1-1.6 1.3-1.8 2.6-1.9 1.8-.1 3.6-.2 5.4-.2 1.9 0 3.7.1 5.5.3 1.7.2 2.8.5 2.7 2.2zm-10.2-10.8c3.2.2 6.8-.1 9.8 1.2.6.3.8.3 1 .8.1.2.2 1.2.1 1.4-.6 1-3.6.5-4.5.4-1.6-.2-3.2-.2-4.8-.1-1.2.1-3.3.7-4.4.1-.9-.5-1.6-2.3-.6-3 .5-.3 3.3-.4 3.4-.8z"/></svg>