<svg version="1.1" xmlns="http://www.w3.org/2000/svg" x="0" y="0" viewBox="0 0 512 512" xml:space="preserve"><path d="M305.5 159.7V70.1C312.7 67.8 317 65 317 62V42c7.3-3 11.5-6.7 11.5-10.5v-8C328.5 10.5 296 0 256 0s-72.5 10.5-72.5 23.5v8c0 3.9 4.2 7.5 11.5 10.5v20c0 3 4.3 5.8 11.5 8.1v89.6c0 8.8 1.8 17.4 5.3 25.5l30.7 70.8-30.7 70.8c-3.5 8-5.3 16.7-5.3 25.5v89.6c-7.2 2.3-11.5 5.1-11.5 8.1v20c-7.3 3-11.5 6.7-11.5 10.5v8c0 13 32.5 23.5 72.5 23.5s72.5-10.5 72.5-23.5v-8c0-3.9-4.2-7.5-11.5-10.5v-20c0-3-4.3-5.8-11.5-8.1v-89.6c0-8.8-1.8-17.4-5.3-25.5L269.5 256l30.7-70.8c3.5-8.1 5.3-16.7 5.3-25.5z"/></svg>