<svg version="1.1" xmlns="http://www.w3.org/2000/svg" x="0" y="0" viewBox="0 0 512 512" xml:space="preserve"><path d="m288.8 16 18.6 66.4 2.2 7.8 7.6 2.9c17.9 6.7 34.5 16.3 49.3 28.5l6.3 5.2 7.9-2 66.8-17.1 32.9 56.9-48.2 49.3-5.6 5.7 1.3 7.9c1.5 9.8 2.3 19.1 2.3 28.5 0 10-.7 19.2-2.3 28.3l-1.4 8 5.7 5.8 48.3 49.3-32.9 56.9-66.8-17.1-7.8-2-6.3 5.1c-15 12.2-31.5 21.8-49.3 28.5l-7.6 2.9-2.2 7.8-18.7 66.5h-65.7l-18.6-66.4-2.2-7.8-7.6-2.9c-17.9-6.7-34.5-16.3-49.2-28.4l-6.3-5.2-7.9 2-66.9 17.1-32.9-56.9 48.2-49.3 5.6-5.7-1.3-7.9C82.8 275 82 265.3 82 256s.8-19 2.3-28.6l1.3-7.9-5.6-5.7-48.2-49.3 32.9-56.9 66.9 17.1 7.8 2 6.3-5.1c14.8-12.1 31.3-21.7 49.2-28.4l7.6-2.9 2.2-7.8L223.2 16h65.6m.1-16h-65.7c-7.2 0-13.5 4.8-15.4 11.7l-18.6 66.4c-19.6 7.4-37.7 17.9-53.7 31L68.6 92c-1.3-.3-2.7-.5-4-.5-5.6 0-10.9 3-13.8 8l-32.9 56.9c-3.6 6.2-2.6 14.1 2.4 19.2l48.2 49.3C66.9 235 66 245.4 66 256s.9 21 2.5 31.1l-48.2 49.3c-5 5.1-6 13-2.4 19.2l32.9 56.9c2.9 5 8.2 8 13.8 8 1.3 0 2.7-.2 4-.5l66.9-17.1c15.9 13.1 34 23.6 53.7 31l18.6 66.4c1.9 6.9 8.2 11.7 15.4 11.7h65.7c7.2 0 13.5-4.8 15.4-11.7l18.6-66.4c19.7-7.4 37.8-18 53.8-31.1l66.8 17.1c1.3.3 2.6.5 4 .5 5.6 0 10.9-3 13.8-8l32.9-56.9c3.6-6.2 2.6-14.1-2.4-19.2L443.5 287c1.7-10.1 2.5-20.4 2.5-31s-.9-20.9-2.5-31l48.2-49.3c5-5.1 6-13 2.4-19.2l-32.9-56.9c-2.9-5-8.3-8-13.8-8-1.3 0-2.6.2-4 .5l-66.8 17.1c-16.1-13.3-34.3-23.8-53.8-31.1l-18.6-66.4C302.3 4.8 296 0 288.9 0zM256 216c22.1 0 40 17.9 40 40s-17.9 40-40 40-40-17.9-40-40 17.9-40 40-40m0-16c-30.9 0-56 25.1-56 56s25.1 56 56 56 56-25.1 56-56-25.1-56-56-56z"/></svg>