<svg version="1.1" xmlns="http://www.w3.org/2000/svg" x="0" y="0" viewBox="0 0 512 512" xml:space="preserve"><path d="M270.5 385.5c0 8-6.5 14.5-14.5 14.5s-14.5-6.5-14.5-14.5S248 371 256 371s14.5 6.5 14.5 14.5zm33 0c0 14-6.1 27.1-16.5 36V448c0 13.2-10.8 24-24 24h-14c-13.2 0-24-10.8-24-24v-26.5c-10.4-8.9-16.5-22-16.5-36 0-26.2 21.3-47.5 47.5-47.5s47.5 21.3 47.5 47.5zm-16 0c0-17.4-14.1-31.5-31.5-31.5s-31.5 14.1-31.5 31.5c0 12 6.7 22.4 16.5 27.7V448c0 4.4 3.6 8 8 8h14c4.4 0 8-3.6 8-8v-34.8c9.8-5.3 16.5-15.7 16.5-27.7zm169.5-51c0 98-90 177.5-201 177.5S55 432.5 55 334.5c0-33.6 10.6-78 29-121.8 2.5-5.9 8.3-9.7 14.7-9.7h9.8v-56C108.8 65.8 174.7 0 256 0s147.2 65.8 147.5 147v56h9.8c6.4 0 12.2 3.8 14.7 9.7 18.4 43.8 29 88.2 29 121.8zM124.5 203h23v-55.8c.1-29 11.5-56.1 31.9-76.5C199.9 50.2 227.1 39 256 39s56.1 11.2 76.6 31.7c20.5 20.3 31.8 47.5 31.9 76.5V203h23v-56c-.1-35-13.9-67.9-38.7-92.7C324 29.6 291 16 256 16s-68 13.6-92.8 38.4c-24.8 24.7-38.5 57.6-38.7 92.7V203zm224-55.8c-.1-24.6-9.7-47.8-27.2-65.2-17.5-17.4-40.6-27-65.3-27s-47.8 9.6-65.3 27-27.1 40.6-27.2 65.2V203h32.8c6.1 0 11.8 3.5 14.4 9.1C218.6 229.2 236 241 256 241s37.3-11.8 45.3-28.9c2.6-5.6 8.2-9.1 14.4-9.1h32.8v-55.8zM441 334.5c0-31.5-10.1-73.6-27.7-115.5h-97.6c-10.9 23.1-34.3 38-59.7 38-25.6 0-49-14.9-59.7-38H98.7C81.1 260.9 71 303 71 334.5 71 423.6 154 496 256 496s185-72.4 185-161.5z"/></svg>