<svg version="1.1" xmlns="http://www.w3.org/2000/svg" x="0" y="0" viewBox="0 0 512 512" xml:space="preserve"><path d="M137.2 100.7c.1 15.7 23.1 23.8 46 23.8.3 0 .6 0 .8-.1 11.5-.1 22.5-2.2 30.8-5.9 7.3-3.2 11.2-7 13.3-10.5H292V94h-61.1c-.7-4.1-3.1-9-8.6-14.6-6.4-6.5-15.8-12.4-26.6-16.6s-21.7-6.4-30.8-6.1c-15.1.5-20 7.4-21.6 11.5-2.3 5.7-.9 11.7 3 17.3-5.7 3.9-9.2 9-9.1 15.2zm71.8-6.5c3.5 1.5 5.5 3 6.6 4.1-1.4.7-3.8 1.4-7.6 1.5-7.1.3-16.2-1.6-25.1-5.1-3.2-1.3-6.1-2.7-8.8-4.1 2.9-.4 6.1-.6 9.6-.6h.8c9.3 0 18.2 1.5 24.5 4.2zm-52.7-21c.3-.7 2.9-2.4 9-2.6h1.2c6.9 0 15.5 1.9 23.8 5.1.5.2.9.4 1.4.6-2.6-.2-5.3-.3-8.1-.3-8.4.1-16.8 1.2-24.2 3.5-2.5-3-3.5-5.3-3.1-6.3zm0 22.6c6.1 4.8 13.6 9 21.5 12.1 2.4.9 4.8 1.7 7.2 2.5h-1.1c-21.4.2-32.8-7.3-32.8-9.9 0-1 1.7-2.8 5.2-4.7zm303.5 383.4l-11.5-18.7c-10.7-17.4-17.5-37-19.7-57.4L413 263.5c-5.1-45.3-30.2-85.9-68.4-110.6L300 114.8v1.2h-67.9c-3.4 3.9-8.1 7.2-14.1 9.8-7.4 3.3-16.5 5.4-26.2 6.2l-24.4 20.9C129.1 177.6 104 218.2 99 263.5L83.4 403.1c-2.3 20.3-9 39.9-19.7 57.4l-11.5 18.7c-8.8 14.3 1.5 32.8 18.3 32.8h371c16.8 0 27.1-18.5 18.3-32.8zM335 362.5c0 3.3-2.7 6-6 6H183c-3.3 0-6-2.7-6-6v-73c0-3.3 2.7-6 6-6h146c3.3 0 6 2.7 6 6v73zM170.4 33.2c-10.1-12.3-1.9-30.8 14-31.7L211 .1c5.4-.3 10.4 2.9 12.4 7.9l3 7.7c.9 2.2 3.3 3.5 5.6 3l12.5-2.7c7.6-1.6 15.5-1.6 23.1 0l12.4 2.6c2.4.5 4.7-.8 5.6-3l3.1-7.7c2-5 7-8.2 12.4-7.9l26.6 1.5c15.9.8 24 19.4 13.9 31.7L298.5 86h-61.7c-1.9-4.2-4.8-8.3-8.8-12.2-7.2-7.3-17.6-13.9-29.4-18.4-4.6-1.8-9.2-3.2-13.6-4.3l-14.6-17.9z"/></svg>