<svg version="1.1" xmlns="http://www.w3.org/2000/svg" x="0" y="0" viewBox="0 0 512 512" xml:space="preserve"><path d="M113.5 183.4c-3-11.6-4.5-23.8-4.5-36.4C109 65.8 174.8 0 256 0s147 65.8 147 147c0 12.5-1.6 24.7-4.5 36.4h-4.2l-1.3.3c-37 9.9-85.6 15.3-137 15.3s-100-5.4-137-15.3l-1.3-.3h-4.2zM256 209c-54.1 0-103.3-6-139.5-15.6l51.9 115.3 16.9 37.6c.9 2 2.3 3.7 4.1 4.9 1.1.7 2.2 1.3 3.5 1.7 1.3.4 2.6.7 3.9 1.1.1 0 .2.1.3.1 1.3.3 2.6.7 3.9 1 15.8 3.7 34.7 5.9 55 5.9s39.2-2.2 55-5.9c1.3-.3 2.6-.6 3.9-1 .1 0 .2-.1.3-.1 1.3-.3 2.6-.7 3.9-1.1 1.3-.4 2.4-.9 3.5-1.7 1.4-1 2.6-2.3 3.5-3.8l.6-1.2 16.9-37.6L395 194.5l.5-1.1C359.3 203 310.1 209 256 209zm0 162c-19.7 0-38.5-1.9-55-5.6V388c0 4.3 6 8.2 15.8 11v3.3c-4 3.2-5.9 6.6-5.5 10.4v.3c.4 3.3 2.4 5.8 5.2 7.6-3.8 3.1-5.5 6.5-5.2 10.1v.3c.4 3.3 2.4 5.8 5.2 7.6-3.8 3.1-5.5 6.5-5.2 10.1v.3c.4 3.3 2.4 5.8 5.2 7.6-3.8 3.1-5.5 6.5-5.2 10.1v.3c.4 3.5 2.5 6 5.5 7.8v6.2c0 3.6 2.9 6.8 7.9 9.5 4.8 12.6 17 21.5 31.3 21.5s26.5-8.9 31.3-21.5c2.9-1.6 5.2-3.4 6.5-5.3.5-.3 1-.7 1.4-1 4-3.2 5.9-6.6 5.5-10.4v-.3c-.4-3.3-2.4-5.8-5.2-7.6 3.8-3.1 5.5-6.5 5.2-10.1v-.3c-.4-3.3-2.4-5.8-5.2-7.6 3.8-3.1 5.5-6.5 5.2-10.1v-.3c-.4-3.3-2.4-5.8-5.2-7.6 3.8-3.1 5.5-6.5 5.2-10.1v-.3c-.4-3.3-2.4-5.8-5.2-7.6 3.8-3.1 5.5-6.5 5.2-10.1v-.3c-.2-1.4-.6-2.7-1.3-3.8 7.2-2.7 11.6-6 11.6-9.7v-22.6c-16.5 3.7-35.3 5.6-55 5.6z"/></svg>