<svg version="1.1" xmlns="http://www.w3.org/2000/svg" x="0" y="0" viewBox="0 0 512 512" xml:space="preserve"><path d="M256 0C114.6 0 0 114.6 0 256s114.6 256 256 256 256-114.6 256-256S397.4 0 256 0zm0 347c-50.2 0-91-40.8-91-91s40.8-91 91-91 91 40.8 91 91-40.8 91-91 91zm0-177c-47.5 0-86 38.5-86 86s38.5 86 86 86 86-38.5 86-86-38.5-86-86-86zm0 11c23.1 0 43.7 10.4 57.5 26.9l-13.8 11.6c-10.5-12.5-26.1-20.4-43.7-20.4s-33.2 7.9-43.7 20.4l-13.8-11.6c13.8-16.5 34.4-26.9 57.5-26.9zm0 81.5c-3.6 0-6.5-2.9-6.5-6.5s2.9-6.5 6.5-6.5 6.5 2.9 6.5 6.5-2.9 6.5-6.5 6.5zm80.5-18.5h-161v-3h161v3z"/></svg>