<svg version="1.1" xmlns="http://www.w3.org/2000/svg" x="0" y="0" viewBox="0 0 512 512" xml:space="preserve"><path d="M0 370.5V386c0 17.7 14.3 32 32 32h15.5c0-26.2-21.3-47.5-47.5-47.5zm23.8 30.3c-3.6 0-6.5-2.9-6.5-6.5s2.9-6.5 6.5-6.5 6.5 2.9 6.5 6.5-2.9 6.5-6.5 6.5zM464.5 418H480c17.7 0 32-14.3 32-32v-15.5c-26.2 0-47.5 21.3-47.5 47.5zm23.8-30.2c3.6 0 6.5 2.9 6.5 6.5s-2.9 6.5-6.5 6.5-6.5-2.9-6.5-6.5 2.9-6.5 6.5-6.5zM47.5 144H32c-17.7 0-32 14.3-32 32v15.5c26.2 0 47.5-21.3 47.5-47.5zm-23.7 30.3c-3.6 0-6.5-2.9-6.5-6.5s2.9-6.5 6.5-6.5 6.5 2.9 6.5 6.5-2.9 6.5-6.5 6.5zM480 144h-15.5c0 26.2 21.3 47.5 47.5 47.5V176c0-17.7-14.3-32-32-32zm8.3 30.3c-3.6 0-6.5-2.9-6.5-6.5s2.9-6.5 6.5-6.5 6.5 2.9 6.5 6.5-2.9 6.5-6.5 6.5zM456.5 144h-37v-6c0-1.1-.9-2-2-2h-23c-1.1 0-2 .9-2 2v6H374v-2c0-1.1-.9-2-2-2h-47.6l1.8-21.9c1.9-1 3.4-2.7 4.1-5 1.2-4.2-1.3-8.6-5.6-9.8-22.3-6.2-45.4-9.3-68.7-9.3s-46.4 3.1-68.6 9.3c-4.3 1.1-6.8 5.5-5.6 9.8.6 2.3 2.2 4.1 4.1 5l1.8 21.9H140c-1.1 0-2 .9-2 2v2h-18.5v-6c0-1.1-.9-2-2-2h-23c-1.1 0-2 .9-2 2v6h-37c0 30.6-24.9 55.5-55.5 55.5v163c30.6 0 55.5 24.9 55.5 55.5h401c0-30.6 24.9-55.5 55.5-55.5v-163c-30.6 0-55.5-24.9-55.5-55.5zM256 110c21.9 0 43.5 2.9 64.4 8.7.5.2 1.1.2 1.6.3l-2 25H192l-2-25c.5 0 1.1-.1 1.6-.3 20.9-5.8 42.5-8.7 64.4-8.7z"/></svg>