<svg version="1.1" xmlns="http://www.w3.org/2000/svg" x="0" y="0" viewBox="0 0 512 512" xml:space="preserve"><path d="M353.9 435.4c-1.4-36.9-31.9-62-31.9-76.4 0-14.7 11-33.9 11-60 0-1.4-.1-2.7-.3-4.1C329.2 272 296.2 254 256 254s-73.2 18-76.7 40.9c-.2 1.3-.3 2.7-.3 4.1 0 26.1 11 45.3 11 60 0 14.3-30.5 39.5-31.9 76.4 0 .9-.1 1.8-.1 2.6 0 40.9 43.9 74 98 74s98-33.1 98-74c0-.9 0-1.8-.1-2.6zM256 312c12.4 0 22.5 10.1 22.5 22.5S268.4 357 256 357s-22.5-10.1-22.5-22.5S243.6 312 256 312zm49.5 128c0 1.1-.9 2-2 2h-95c-1.1 0-2-.9-2-2v-13c0-1.1.9-2 2-2h95c1.1 0 2 .9 2 2v13zm-71-11h43v2h-43v-2zm.5-369h1c1.1 0 2-.9 2-2v7.8c0 2.1.4 4.2 1.2 6.2l1.2 2.8c.7 1.7 1.3 3.4 1.7 5.2h-.1c.6 2.5.9 5.1.8 7.7l-.3 14.3h26.9l-.3-14.3c0-2.5.3-4.9.7-7.3.4-1.9 1-3.8 1.8-5.6l1.2-2.8c.8-1.9 1.2-4 1.2-6.2V58c0 1.1.9 2 2 2h1c1.1 0 2-.9 2-2v-5c0-1.1-.9-2-2-2h-1c-1.1 0-2 .9-2 2v-8c0 1.1.9 2 2 2h1c1.1 0 2-.9 2-2v-5c0-1.1-.9-2-2-2h-1c-1.1 0-2 .9-2 2v-8c0 1.1.9 2 2 2h1c1.1 0 2-.9 2-2v-5c0-1.1-.9-2-2-2h-1c-1.1 0-2 .9-2 2V14.1c0-2.6-1.2-5-3.4-6.5L261 .7c-.7-.5-1.5-.7-2.3-.7h-5.4c-.8 0-1.6.3-2.3.7l-9.6 6.9c-2.1 1.5-3.4 3.9-3.4 6.5V27c0-1.1-.9-2-2-2h-1c-1.1 0-2 .9-2 2v5c0 1.1.9 2 2 2h1c1.1 0 2-.9 2-2v8c0-1.1-.9-2-2-2h-1c-1.1 0-2 .9-2 2v5c0 1.1.9 2 2 2h1c1.1 0 2-.9 2-2v8c0-1.1-.9-2-2-2h-1c-1.1 0-2 .9-2 2v5c0 1.1.9 2 2 2zm8-2h8v4c0 2.2-1.8 4-4 4s-4-1.8-4-4v-4zm26 4c0 2.2-1.8 4-4 4s-4-1.8-4-4v-4h8v4zm0-9h-8v-8h8v8zm0-13h-8v-8h8v8zm-4-21c2.2 0 4 1.8 4 4v4h-8v-4c0-2.2 1.8-4 4-4zm-22 4c0-2.2 1.8-4 4-4s4 1.8 4 4v4h-8v-4zm0 9h8v8h-8v-8zm0 13h8v8h-8v-8zm-1.5 110h28.9l.3 13h-29.5l.3-13zm-.3 15h29.5l.3 12h-30l.2-12zm.6-31h28.3l.3 14h-28.9l.3-14zm.3-17h27.7l.3 15h-28.3l.3-15zm-1.2 62H271l.2 11h-30.5l.2-11zm28.5-80 .3 16h-27.5l.3-16h26.9zm3 150h-32.8l.1-8h32.5l.2 8zm-32.5-20H272l.2 10h-32.4l.1-10zm.8-37h30.6l.2 12h-31.1l.3-12zm-.5 26h31.6l.2 9h-32l.2-9zm.2-12h31.2l.2 10h-31.6l.2-10z"/></svg>