<svg version="1.1" xmlns="http://www.w3.org/2000/svg" x="0" y="0" viewBox="0 0 512 512" xml:space="preserve"><path d="M394.6 76.3c5.7-2.6 9.4-8.3 9.4-14.6V34.6c0-4.3-3.4-7.8-7.6-8l-82.2-4.5c-2.5-5.6-8.1-9.6-14.7-9.6H293C282.5 4.6 269.8 0 256 0s-26.5 4.6-37 12.5h-6.5c-6.5 0-12.2 4-14.7 9.6l-82.2 4.5c-4.2.2-7.6 3.7-7.6 8v27.1c0 6.3 3.7 12 9.4 14.6l79.1 36.1v49.8l-80.9 4.4c-4.2.2-7.6 3.7-7.6 8v27.1c0 6.3 3.7 12 9.4 14.6l79.1 36.1v49.8l-80.9 4.4c-4.2.2-7.6 3.7-7.6 8v27.1c0 6.3 3.7 12 9.4 14.6l79.1 36.1v19.1c0 8.8 7.2 16 16 16H237V512h38v-84.5h24.5c8.8 0 16-7.2 16-16v-19.1l79.1-36.1c5.7-2.6 9.4-8.3 9.4-14.6v-27.1c0-4.3-3.4-7.8-7.6-8l-80.9-4.4v-49.8l79.1-36.1c5.7-2.6 9.4-8.3 9.4-14.6v-27.1c0-4.3-3.4-7.8-7.6-8l-80.9-4.4v-49.8l79.1-36.1zM256 410c-27.6 0-50-22.4-50-50s22.4-50 50-50 50 22.4 50 50-22.4 50-50 50zm0-140c-27.6 0-50-22.4-50-50s22.4-50 50-50 50 22.4 50 50-22.4 50-50 50zm0-140c-27.6 0-50-22.4-50-50s22.4-50 50-50 50 22.4 50 50-22.4 50-50 50z"/></svg>