<svg version="1.1" xmlns="http://www.w3.org/2000/svg" x="0" y="0" viewBox="0 0 512 512" xml:space="preserve"><path d="M429.5 0h-347c-4.4 0-8 3.6-8 8v33H50c-1.1 0-2 .9-2 2s.9 2 2 2h24.5v2H50c-1.1 0-2 .9-2 2s.9 2 2 2h24.5v20H50c-1.1 0-2 .9-2 2s.9 2 2 2h24.5v2H50c-1.1 0-2 .9-2 2s.9 2 2 2h24.5v20H50c-1.1 0-2 .9-2 2s.9 2 2 2h24.5v2H50c-1.1 0-2 .9-2 2s.9 2 2 2h24.5v20H50c-1.1 0-2 .9-2 2s.9 2 2 2h24.5v2H50c-1.1 0-2 .9-2 2s.9 2 2 2h24.5v20H50c-1.1 0-2 .9-2 2s.9 2 2 2h24.5v2H50c-1.1 0-2 .9-2 2s.9 2 2 2h24.5v20H50c-1.1 0-2 .9-2 2s.9 2 2 2h24.5v2H50c-1.1 0-2 .9-2 2s.9 2 2 2h24.5v20H50c-1.1 0-2 .9-2 2s.9 2 2 2h24.5v2H50c-1.1 0-2 .9-2 2s.9 2 2 2h24.5v20H50c-1.1 0-2 .9-2 2s.9 2 2 2h24.5v2H50c-1.1 0-2 .9-2 2s.9 2 2 2h24.5v20H50c-1.1 0-2 .9-2 2s.9 2 2 2h24.5v2H50c-1.1 0-2 .9-2 2s.9 2 2 2h24.5v20H50c-1.1 0-2 .9-2 2s.9 2 2 2h24.5v2H50c-1.1 0-2 .9-2 2s.9 2 2 2h24.5v20H50c-1.1 0-2 .9-2 2s.9 2 2 2h24.5v2H50c-1.1 0-2 .9-2 2s.9 2 2 2h24.5v20H50c-1.1 0-2 .9-2 2s.9 2 2 2h24.5v2H50c-1.1 0-2 .9-2 2s.9 2 2 2h24.5v20H50c-1.1 0-2 .9-2 2s.9 2 2 2h24.5v2H50c-1.1 0-2 .9-2 2s.9 2 2 2h24.5v20H50c-1.1 0-2 .9-2 2s.9 2 2 2h24.5v2H50c-1.1 0-2 .9-2 2s.9 2 2 2h24.5v20H50c-1.1 0-2 .9-2 2s.9 2 2 2h24.5v2H50c-1.1 0-2 .9-2 2s.9 2 2 2h24.5v33c0 4.4 3.6 8 8 8h347c4.4 0 8-3.6 8-8V8c0-4.4-3.6-8-8-8zM90 474c-2.5 0-4.8-1.2-6.2-3H94c1.1 0 2-.9 2-2s-.9-2-2-2H82.1c0-.3-.1-.7-.1-1s0-.7.1-1H94c1.1 0 2-.9 2-2s-.9-2-2-2H83.8c1.5-1.8 3.7-3 6.2-3 4.4 0 8 3.6 8 8s-3.6 8-8 8zm0-30c-2.5 0-4.8-1.2-6.2-3H94c1.1 0 2-.9 2-2s-.9-2-2-2H82.1c0-.3-.1-.7-.1-1s0-.7.1-1H94c1.1 0 2-.9 2-2s-.9-2-2-2H83.8c1.5-1.8 3.7-3 6.2-3 4.4 0 8 3.6 8 8s-3.6 8-8 8zm0-30c-2.5 0-4.8-1.2-6.2-3H94c1.1 0 2-.9 2-2s-.9-2-2-2H82.1c0-.3-.1-.7-.1-1s0-.7.1-1H94c1.1 0 2-.9 2-2s-.9-2-2-2H83.8c1.5-1.8 3.7-3 6.2-3 4.4 0 8 3.6 8 8s-3.6 8-8 8zm0-30c-2.5 0-4.8-1.2-6.2-3H94c1.1 0 2-.9 2-2s-.9-2-2-2H82.1c0-.3-.1-.7-.1-1s0-.7.1-1H94c1.1 0 2-.9 2-2s-.9-2-2-2H83.8c1.5-1.8 3.7-3 6.2-3 4.4 0 8 3.6 8 8s-3.6 8-8 8zm0-30c-2.5 0-4.8-1.2-6.2-3H94c1.1 0 2-.9 2-2s-.9-2-2-2H82.1c0-.3-.1-.7-.1-1s0-.7.1-1H94c1.1 0 2-.9 2-2s-.9-2-2-2H83.8c1.5-1.8 3.7-3 6.2-3 4.4 0 8 3.6 8 8s-3.6 8-8 8zm0-30c-2.5 0-4.8-1.2-6.2-3H94c1.1 0 2-.9 2-2s-.9-2-2-2H82.1c0-.3-.1-.7-.1-1s0-.7.1-1H94c1.1 0 2-.9 2-2s-.9-2-2-2H83.8c1.5-1.8 3.7-3 6.2-3 4.4 0 8 3.6 8 8s-3.6 8-8 8zm0-30c-2.5 0-4.8-1.2-6.2-3H94c1.1 0 2-.9 2-2s-.9-2-2-2H82.1c0-.3-.1-.7-.1-1s0-.7.1-1H94c1.1 0 2-.9 2-2s-.9-2-2-2H83.8c1.5-1.8 3.7-3 6.2-3 4.4 0 8 3.6 8 8s-3.6 8-8 8zm0-30c-2.5 0-4.8-1.2-6.2-3H94c1.1 0 2-.9 2-2s-.9-2-2-2H82.1c0-.3-.1-.7-.1-1s0-.7.1-1H94c1.1 0 2-.9 2-2s-.9-2-2-2H83.8c1.5-1.8 3.7-3 6.2-3 4.4 0 8 3.6 8 8s-3.6 8-8 8zm0-30c-2.5 0-4.8-1.2-6.2-3H94c1.1 0 2-.9 2-2s-.9-2-2-2H82.1c0-.3-.1-.7-.1-1s0-.7.1-1H94c1.1 0 2-.9 2-2s-.9-2-2-2H83.8c1.5-1.8 3.7-3 6.2-3 4.4 0 8 3.6 8 8s-3.6 8-8 8zm0-30c-2.5 0-4.8-1.2-6.2-3H94c1.1 0 2-.9 2-2s-.9-2-2-2H82.1c0-.3-.1-.7-.1-1s0-.7.1-1H94c1.1 0 2-.9 2-2s-.9-2-2-2H83.8c1.5-1.8 3.7-3 6.2-3 4.4 0 8 3.6 8 8s-3.6 8-8 8zm0-30c-2.5 0-4.8-1.2-6.2-3H94c1.1 0 2-.9 2-2s-.9-2-2-2H82.1c0-.3-.1-.7-.1-1s0-.7.1-1H94c1.1 0 2-.9 2-2s-.9-2-2-2H83.8c1.5-1.8 3.7-3 6.2-3 4.4 0 8 3.6 8 8s-3.6 8-8 8zm0-30c-2.5 0-4.8-1.2-6.2-3H94c1.1 0 2-.9 2-2s-.9-2-2-2H82.1c0-.3-.1-.7-.1-1s0-.7.1-1H94c1.1 0 2-.9 2-2s-.9-2-2-2H83.8c1.5-1.8 3.7-3 6.2-3 4.4 0 8 3.6 8 8s-3.6 8-8 8zm0-30c-2.5 0-4.8-1.2-6.2-3H94c1.1 0 2-.9 2-2s-.9-2-2-2H82.1c0-.3-.1-.7-.1-1s0-.7.1-1H94c1.1 0 2-.9 2-2s-.9-2-2-2H83.8c1.5-1.8 3.7-3 6.2-3 4.4 0 8 3.6 8 8s-3.6 8-8 8zm0-30c-2.5 0-4.8-1.2-6.2-3H94c1.1 0 2-.9 2-2s-.9-2-2-2H82.1c0-.3-.1-.7-.1-1s0-.7.1-1H94c1.1 0 2-.9 2-2s-.9-2-2-2H83.8c1.5-1.8 3.7-3 6.2-3 4.4 0 8 3.6 8 8s-3.6 8-8 8zm0-30c-2.5 0-4.8-1.2-6.2-3H94c1.1 0 2-.9 2-2s-.9-2-2-2H82.1c0-.3-.1-.7-.1-1s0-.7.1-1H94c1.1 0 2-.9 2-2s-.9-2-2-2H83.8c1.5-1.8 3.7-3 6.2-3 4.4 0 8 3.6 8 8s-3.6 8-8 8z"/></svg>