<svg version="1.1" xmlns="http://www.w3.org/2000/svg" x="0" y="0" viewBox="0 0 512 512" xml:space="preserve"><path d="M492.6 162c.1-1.5-.7-2.9-2-3.5l-6-2.8c-1.3-.5-2.7-.3-3.8.5-1.2.9-3.3 2.4-7 4.4-7.8 4.2-24.1-.4-34.9 22.9l19.3 8.9c2.7 1.2 3.8 4.4 2.6 7l-14.8 32c-.1.1-.1.3-.2.4-3.2 7.1-11.7 10-18.7 6.4-6.2-3.2-9.1-10.8-6.4-17.3.7-1.8 1.8-3.3 3.1-4.6 1.2-1.2 2.6-2.1 4.2-2.8 2.9-1.3 3.2-5.4.4-6.8 0 0-.1 0-.1-.1-.9-.4-2-.3-2.9.2-1.4.8-2.8 1.7-4.2 2.7-4.8 3.6-9.2 8.8-13 15.9-1.2-4.1-3.1-10.2-5.5-17.8 0 .1-.1.1-.1.2-13.2-43.3-41.5-134.2-52.8-158.2C334.8 17.8 303.6 0 303.6 0s-7.6 38.9 6.5 78.5 55.2 155.3 55.2 155.3c.7 2 1.9 3.9 3.5 5.4l4.7 4.5-6.6 7.3c-1.3 1.4-1.7 3.5-1.1 5.3l2.6 7.2H230.3c-1.4-10.7-2.6-22.2-2.5-28.9l2.5-78.1c17.4-21.8 42.8-53.4 51.6-62.7 13.9-14.6 11.4-38.7 11.4-38.7L224.7 121l-1.6-99.2s-19 15.2-19.6 35.3c-.4 13.6-5.4 57.9-8.6 85.5l-55.8 59.1c-2.8 3-7.4 7-12.6 11.1 6.3-26.4 12-50.6 13.8-57.9 4.3-18.2-1.5-51.8-1.5-51.8s-30.1 22.2-35 43.1c-2 8.5-7.9 33.3-14.2 59.9h-.1c-1.1 4.8-2.3 9.6-3.4 14.4-5.2-2.9-9.5-8.1-10.6-17.3-2.9-26 6.9-32.3 5.5-45.3-1-9-3.8-19-5.4-24.4-.7-2.3-2.8-3.8-5.2-3.7l-17 .6c-1.6.1-2.9 1.2-3.3 2.7-1.3 5.5-4 18.9-2.7 30.2L59.8 275c.3 2.9 2.9 4.9 5.8 4.6l6.7-.7c-.4 1.9-.8 3.5-1.2 4.8-3.9 6.4-6.1 13.8-6.1 21.8 0 2.2.2 4.4.5 6.5h-1c.8 5 2.5 9.7 4.8 14h1c2.3 4.2 5.3 7.9 8.9 11H70c-3.8.2-7 2.6-8.3 6H27c-1.7 0-3 1.3-3 3v1c0 1.7 1.3 3 3 3h34.7c1.4 3.5 4.8 6 8.8 6 4.1 0 7.6-2.6 8.9-6.3l7.7-7.2c5.9 3.2 12.7 5 19.9 5h141c-4.2 6.9-9.3 15.4-15.4 25.8-3.5 5.9-6.8 11.8-10.1 17.8-.8 1.5-1.6 3-2.5 4.4-8.9 16.2-17 31.8-23.5 44.7-.9 1.8-1.7 3.5-2.6 5.1-4.1 8.2-7.4 15-9.6 19.7-.1.3-.3.6-.4.9-1.8 3.8-2.8 5.9-2.8 5.9s32.5-18.3 50.2-48.4c6.2-10.6 14.9-25.4 23.6-40.2v11.5c0 1.8 1 3.4 2.5 4.3l11.6 6.7-12.1 7.1c-1.9 1.1-3.3 2.8-3.9 4.9-.9 3.3.4 6.6 3 8.5l15.4 11.4-15.4 11.7c-.9.7-1.7 1.5-2.3 2.5-2.2 3.8-1 8.2 2.1 10.6l15.8 11.7-11.7 8.7c-1.8 1.3-3 3.2-3.3 5.4-.5 3.3 1.1 6.5 3.9 8.1l12 6.1c.6.3.7 1.2.2 1.6l-5.7 5c-1.1 1.6.5 3.6 2.3 3l8.6-2.8c2.1-.7 4-2.3 4.7-4.5.1-.2.1-.4.2-.6.8-3.5-.8-7.1-3.8-8.8l-10.7-6.2 11.6-8.6c2.9-2.4 4.1-6.9 1.9-10.7-.6-1-1.4-1.8-2.3-2.5l-15.6-11.5 15.6-11.5c.9-.7 1.7-1.5 2.3-2.5 2.2-3.8 1-8.2-2.1-10.6L264.5 420l12.6-7.4c2.5-1.5 3.9-4 3.9-6.9 0-2.9-1.7-5.6-4.3-7.1l-11.8-6.8v-5c0-2 .7-3.8 2-5.3l1-1.2c1.5-1.7 3.7-2.7 6-2.7h5v-30.1h.4l71.1 75.7c7.6 8.1 16.5 14 25.9 17 2 .6 3.7 1.9 5 3.6 2.9 3.8 2.7 9.2-.4 12.8-1.9 2.3-4.6 3.6-7.6 3.7-3 0-5.8-1.2-7.8-3.3-1.7-1.8-4.5-1.9-6.3-.2-1.8 1.7-1.9 4.5-.2 6.3 3.7 4 9 6.2 14.5 6.1 5.4-.1 10.6-2.6 14.2-6.8.2-.3.4-.5.6-.8.2 1.9 1.7 3.3 3.7 3.3 2-.1 3.5-1.7 3.5-3.7 0-1-.3-9.5-2.5-14.2-.6-1.3-1.2-2.4-1.8-3.3-.6-1.9-1.6-3.7-2.8-5.4-.4-.6-.8-1.1-1.3-1.6-2.2-2.3-5-4.1-8.1-5-7.9-2.6-15.6-7.6-22.1-14.6l-65.3-69.6H400c23.2 0 42-18.8 42-42 0-4.4-.7-8.6-1.9-12.6l41.4-89.9c8.5-18.4 10.6-34.9 11.1-41zM344.8 66.2c-2.7-7.5-4.3-15-4.8-22.6 7 10.1 12.8 21.3 17.1 33.5 2.2 6.2 3.9 12.4 5.2 18.6-7.5-8.3-13.5-18.3-17.5-29.5zM59 216.1c-2-9.6-3.6-19.4-4.7-29.4-1.2-11.3-1.8-22.6-1.9-33.8 4.3 9.3 7.3 19.6 8.5 30.4 1.3 11.3.5 22.3-1.9 32.8zM70.5 352c-1.7 0-3.2-.8-4.2-2H69c1.7 0 3-1.3 3-3v-1c0-1.7-1.3-3-3-3h-2.7c1-1.2 2.5-2 4.2-2 3 0 5.5 2.5 5.5 5.5s-2.5 5.5-5.5 5.5zm44.1-88.8c.1-.1.1-.2.1-.4 2.8-.4 4.7-2.9 4.4-5.8-.2-1.6-1-2.9-2.2-3.7 0-.1 0-.2.1-.3.1-.3.2-.6.2-1 8-7.1 17-14.4 23.6-19.9 2.2-1.7 4.1-3.3 5.7-4.6 11-9 18-23.7 18.3-24.4.1-.1 3.3-9 4.6-12.1.3-.3.6-.6 1-.9 1.5-1.3 3-2.5 4.5-3.6.2 0 .4.1.6.2 1.5.8 1.2 3.6.5 5.8-.1.3-.3.7-.5 1.2-1.9 4.9-7 17.9-1.5 34.4 4.6 14 19.6 28.9 26.7 35.3h-86.2s0-.1.1-.2zm61.3-35.5c-5.3-15.8-.3-28.3 1.5-33 .2-.5.4-1 .5-1.3 1.3-3.9.8-6.9-1.3-8.1 9.7-6.5 19.3-8.2 28-7.8 4.9 6.6 8.6 15.1 9.2 26.7 1.1 20.2.8 30.7.5 40.4-.1 3.6.7 11.1 1.7 18.9h-12.3c-5.8-5.2-23-21.3-27.8-35.8zm43.2-78.4c0 3.6-3 6.6-6.6 6.6s-6.6-3-6.6-6.6 3-6.6 6.6-6.6 6.6 3 6.6 6.6zm-77.7 69.1c6-6.3 12.5-13.3 24.9-24.5-1.5 3.7-3.2 8.5-3.2 8.7 0 .1-7 14.8-17.7 23.6-1.6 1.3-3.5 2.9-5.7 4.6-6.1 4.9-14.2 11.4-21.7 17.9 1.1-4.6 2.2-9.3 3.4-14.1 8.1-6.1 16.8-12.8 20-16.2zm89.3 195.3l-1.4 2.3c-1.3 2.1-4 2.8-6.1 1.6-2.1-1.2-2.8-4-1.6-6.1l1.4-2.3c1.3-2.1 4-2.8 6.1-1.6 2.1 1.2 2.8 3.9 1.6 6.1zM367 311.5h-15v15h-12v-15h-15v-12h15v-15h12v15h15v12zm93.8-76.5c.4-10.4 2.8-20.8 7.4-30.8 4.4-9.5 10.4-17.7 17.6-24.6-3 10.3-6.8 20.4-11.4 30.4-4.1 8.7-8.6 17.1-13.6 25z"/></svg>