<svg version="1.1" xmlns="http://www.w3.org/2000/svg" x="0" y="0" viewBox="0 0 512 512" style="enable-background:new 0 0 512 512" xml:space="preserve"><path d="M325.9 362.9c-.6-26.4-4.2-174-6.9-234.9-2.1-47.3-6.2-91.7-8.5-113.6-.8-8.2-7.7-14.4-15.9-14.4h-77.2c-8.2 0-15.1 6.2-15.9 14.4-2.2 21.9-6.3 66.3-8.5 113.6-2.7 60.9-6.3 208.5-6.9 234.9 0 2 1.4 3.7 3.4 4v2.1c0 2.2 1.8 4 4 4h3.5v3.3c0 2.7 1.5 5.3 3.8 6.7 21.1 13 35.2 36.4 35.2 63v23c0 2.2 1.8 4 4 4h3v37c0 1.2.9 2 2 2 .3 0 .5-.1.8-.2l18.3-7.8c3-1.3 4.9-4.2 4.9-7.4V473h3c2.2 0 4-1.8 4-4v-23c0-26.6 14.1-50 35.2-63 2.3-1.4 3.8-3.9 3.8-6.7V373h3.5c2.2 0 4-1.8 4-4v-2.1c-.2 0-.4.1-.6.1 2.3 0 4.1-1.8 4-4.1zM209 128.7c2.1-46.8 6.2-90.7 8.4-112.7h77.2c2.2 22 6.3 65.9 8.4 112.7 2.4 54.2 5.5 177 6.6 222.3H202.4c1.1-45.3 4.2-168.1 6.6-222.3zm90 243.1c-24.5 16.8-39 44.2-39 74.2v11h-8v-11c0-29.9-14.5-57.3-39-74.2V367h86v4.8z"/></svg>