<svg version="1.1" xmlns="http://www.w3.org/2000/svg" x="0" y="0" viewBox="0 0 512 512" xml:space="preserve"><path d="M43.6 203.3c3.2 5.7 9.2 9.6 16.2 9.6 8.5 0 15.7-5.8 17.8-13.6h10.8v3.4h13.4v-40.3H88.4v23.5H76.3c-3.1-6-9.2-10-16.5-10-7 0-13.1 3.9-16.2 9.6-1.8-3.3-4.6-6-8-7.7V168c0-1.8.8-4.7 1.7-6.3l1.1-2c.9-1.6 2.2-2.9 2.8-2.9s1.1-.8 1.1-1.7-.7-2.9-1.7-4.4c0 0-4.9-7.3-13.3-7.3S14 150.7 14 150.7c-1 1.5-1.9 3.5-1.9 4.5s.5 1.7 1.1 1.7 1.9 1.3 2.8 2.9l1.1 2c.9 1.6 1.7 4.4 1.7 6.3v9.9c-5.9 3.1-9.9 9.3-9.9 16.4 0 10.2 8.3 18.5 18.5 18.5 7 0 13-3.9 16.2-9.6zm16.2-19.1c5.6 0 10.1 4.5 10.1 10.1s-4.5 10.1-10.1 10.1-10.1-4.5-10.1-10.1 4.5-10.1 10.1-10.1zm-32.4 20.2c-5.6 0-10.1-4.5-10.1-10.1s4.5-10.1 10.1-10.1 10.1 4.5 10.1 10.1c-.1 5.6-4.6 10.1-10.1 10.1zm27.1 92.5l-8.4-20.3-8.1 20c-.1.1-.1.3-.2.4-1.9 4.6.3 9.9 5 11.7 4.6 1.9 9.9-.3 11.7-5 1-2.2.9-4.7 0-6.8zm393.3-125.3c-5.6 0-11.3 2.1-18 11-5.5 6.5-7.9 30.4-11.8 36.5s-8.5 9.5-15.1 9.5c-4.1 0-7.9-1.5-10.8-3.9-2.9-23.5-12.3-45-26.4-62.9v-5.1h.1V139c0-.2 0-.4.1-.6 0-.1.1-.3.1-.4v-.1c.1-.3.3-.6.4-1 .6-1 1.6-1.8 2.6-2.1l23.7-6.2c1.8-.5 3.3-2.4 3.3-4.2v-1.1c0-1.6-1.2-3-2.7-3.3-.2 0-.4-.1-.7-.1h-11.2c-.5 0-1-.1-1.5-.2-.1 0-.3-.1-.4-.2h-.1c-1.3-.5-2.6-1.3-3.3-2.4l-8.5-12.4c-1-1.5-3.4-2.8-5.3-2.8H358c-1.8 0-4.5-1-5.9-2.2l-1.6-1.3c-.8-.7-2-1.3-3.3-1.7v-6c0-1.8.8-4.7 1.7-6.3l1.1-2c.9-1.6 2.2-2.9 2.8-2.9s1.1-.8 1.1-1.7-.8-2.9-1.9-4.5c.2.1-4.7-7.2-13.1-7.2s-13.3 7.3-13.3 7.3c-1 1.5-1.9 3.5-1.9 4.5 0 .9.5 1.7 1.1 1.7s1.9 1.3 2.8 2.9l1.1 2c.9 1.6 1.7 4.4 1.7 6.3v5.4h-.4c-1.8 0-4.5-1-5.9-2.2l-27.5-24.6c-1.4-1.2-2.5-3.8-2.5-5.6v-7.2c.1-.7.3-1.4.6-2.2.4-1.2 1.1-2.3 1.8-3l9.8-9.8c1.3-1.3 2.4-3.9 2.4-5.7V20.2c0-1.8 1.4-3.9 3.1-4.6l8.3-3.2c1.7-.7 3.1-2.7 3.1-4.6V3.4c0-1.8-1.5-3.4-3.4-3.4H192.1c-1.8 0-3.4 1.5-3.4 3.4v4.5c0 1.8 1.4 3.9 3.1 4.6l8.3 3.2c1.7.7 3.1 2.7 3.1 4.6V36c0 1.8 1.1 4.4 2.4 5.7l9.8 9.8c1.3 1.3 2.4 3.9 2.4 5.7v6.7c0 1.8-1.1 4.4-2.5 5.6l-27.5 24.6c-1.2 1-3.3 1.9-5.1 2.1v-5.4c0-1.9.8-4.7 1.7-6.3l1.1-2c.9-1.6 2.2-2.9 2.8-2.9s1.1-.8 1.1-1.7c0-1-.9-3-1.9-4.5 0 0-4.9-7.3-13.3-7.3-8.3 0-13.2 7.3-13.1 7.2-1.1 1.6-1.9 3.6-1.9 4.5s.5 1.7 1.1 1.7 1.9 1.3 2.8 2.9l1.1 2c.9 1.6 1.7 4.5 1.7 6.3v5.8c-1.6.3-3.4 1.1-4.5 2l-1.6 1.3c-1.4 1.2-4.1 2.2-5.9 2.2h-4.5c-1.8 0-4.2 1.2-5.3 2.8l-8.5 12.4c-.6.9-1.8 1.8-3 2.3h-.2c-.6.2-1.3.4-1.9.4h-11.2c-.5 0-1 .1-1.5.4-1.2.5-2.1 1.7-2.1 3.1v1.1c0 1.8 1.5 3.7 3.3 4.2l23.7 6.2c1.8.5 3.3 2.4 3.3 4.2v25.3c-15 19.2-24.4 42.4-26 67.5h-13.7v-29.1H83.9v29.1H75c-20.4 0-37 16.6-37 37h16.8c0-11.2 9.1-20.2 20.2-20.2h8.9v16.8h22.4v-16.8H120c2.6 35.8 21 67.6 48.6 89.3 10.6 8.9 22.6 16.2 35.6 21.5v28.2c0 1.8 1.1 4.4 2.4 5.7l6.5 6.5c1.3 1.3 2.4 3.9 2.4 5.7v7.8c0 1.8-1.1 4.4-2.4 5.7L184.4 448c-1.3 1.3-2.4 3.9-2.4 5.7V485c0 1.8-1 4.4-2.3 5.8l-10.5 10.8c-1.3 1.3-2.3 3.9-2.3 5.8v1.1c0 1.8 1.5 3.4 3.4 3.4h19c1.8 0 4.7-.7 6.4-1.5l.7-.4c1.7-.8 3.8-2.8 4.9-4.3l14-21.1c4.5-1.9 10.1-3 16-3 10.6 0 19.9 3.6 24.6 8.8 4.7-5.3 14-8.8 24.6-8.8 6 0 11.5 1.1 16 3l14 21.1c1 1.5 3.2 3.5 4.9 4.3l.7.4c1.7.8 4.5 1.5 6.4 1.5h19c1.8 0 3.4-1.5 3.4-3.4v-1.1c0-1.8-1-4.4-2.3-5.8l-10.5-10.8c-1.3-1.3-2.3-3.9-2.3-5.8v-31.3c0-1.8-1.1-4.4-2.4-5.7l-28.9-28.9c-.5-.5-.9-1.1-1.3-1.8h.3c-.7-1.3-1.1-2.7-1.1-3.9v-7.8c0-.7.2-1.5.4-2.3h.1c.4-1.3 1.2-2.7 2-3.5l6.5-6.5c1.3-1.3 2.4-3.9 2.4-5.7v-26.8c39.5-15.1 69.8-47.5 80.8-87.5 3.5-4.3 7.9-9.1 12.1-12.2 6.1-4.5 14.8-8 19.8-9.7 1.4-.3 2.7-.8 3.9-1.3 9.7-4 16.6-13.6 16.6-24.8 0-2-.2-3.9-.6-5.7 0 0-2.7-11.1-2.7-17.8 0-3.2 1.5-5.8 3.1-7.8 2 1.4 4.4 2.2 7 2.2 6.8 0 12.3-5.5 12.3-12.3 0-6.8-6.7-12.3-12.3-12.3zm-250.5 72.6l.9.9c3.1 3.1 4 7.3 1.9 9.4s-5.3 2.2-7.2.3-3.5-1.3-3.5 1.4-2.4 4.9-5.3 4.9-5.3-2.2-5.3-4.9-1.6-3.3-3.5-1.4-5.1 1.8-7.2-.3c-2.1-2.1-1.2-6.3 1.9-9.4l.9-.9c3.1-3.1 3.1-8.2 0-11.3l-.9-.9c-3.1-3.1-4-7.3-1.9-9.4 2.1-2.1 5.3-2.2 7.2-.3s3.5 1.3 3.5-1.4 2.4-4.9 5.3-4.9 5.3 2.2 5.3 4.9 1.6 3.3 3.5 1.4 5.1-1.8 7.2.3c2.1 2.1 1.2 6.3-1.9 9.4l-.9.9c-3.1 3.1-3.1 8.2 0 11.3zm53.2-218.1l-.4-.4c-1.3-1.3-1.7-3.1-.8-4s2.2-.9 3-.1 1.5.5 1.5-.6 1-2.1 2.2-2.1c1.2 0 2.2.9 2.2 2.1 0 1.1.7 1.4 1.5.6s2.2-.7 3 .1c.9.9.5 2.7-.8 4l-.4.4c-1.3 1.4-1.3 3.5 0 4.8l.4.4c1.3 1.3 1.7 3.1.8 4-.9.9-2.2.9-3 .1-.8-.8-1.5-.5-1.5.6s-1 2.1-2.2 2.1-2.2-.9-2.2-2.1c0-1.1-.7-1.4-1.5-.6-.8.8-2.2.7-3-.1-.9-.9-.5-2.7.8-4l.4-.4c1.3-1.3 1.3-3.4 0-4.8zm-19.2 424.8l.4.4c1.3 1.3 1.7 3.1.8 4s-2.2.9-3 .1-1.5-.5-1.5.6-1 2.1-2.2 2.1-2.2-.9-2.2-2.1c0-1.1-.7-1.4-1.5-.6s-2.2.7-3-.1c-.9-.9-.5-2.7.8-4l.4-.4c1.3-1.3 1.3-3.4 0-4.8l-.4-.4c-1.3-1.3-1.7-3.1-.8-4s2.2-.9 3-.1 1.5.5 1.5-.6 1-2.1 2.2-2.1 2.2.9 2.2 2.1c0 1.1.7 1.4 1.5.6s2.2-.7 3 .1c.9.9.5 2.7-.8 4l-.4.4c-1.3 1.4-1.3 3.5 0 4.8zm0-420l.4.4c1.3 1.3 1.7 3.1.8 4s-2.2.9-3 .1c-.8-.8-1.5-.5-1.5.6s-1 2.1-2.2 2.1-2.2-.9-2.2-2.1c0-1.1-.7-1.4-1.5-.6-.8.8-2.2.7-3-.1-.9-.9-.5-2.7.8-4l.4-.4c1.3-1.3 1.3-3.4 0-4.8l-.4-.4c-1.3-1.3-1.7-3.1-.8-4s2.2-.9 3-.1 1.5.5 1.5-.6 1-2.1 2.2-2.1 2.2.9 2.2 2.1c0 1.1.7 1.4 1.5.6s2.2-.7 3 .1c.9.9.5 2.7-.8 4l-.4.4c-1.3 1.4-1.3 3.5 0 4.8zm30.2 420l.4.4c1.3 1.3 1.7 3.1.8 4-.9.9-2.2.9-3 .1s-1.5-.5-1.5.6-1 2.1-2.2 2.1-2.2-.9-2.2-2.1c0-1.1-.7-1.4-1.5-.6s-2.2.7-3-.1c-.9-.9-.5-2.7.8-4l.4-.4c1.3-1.3 1.3-3.4 0-4.8l-.4-.4c-1.3-1.3-1.7-3.1-.8-4s2.2-.9 3-.1 1.5.5 1.5-.6 1-2.1 2.2-2.1 2.2.9 2.2 2.1c0 1.1.7 1.4 1.5.6s2.2-.7 3 .1c.9.9.5 2.7-.8 4l-.4.4c-1.3 1.4-1.3 3.5 0 4.8zm7.7-206.7l.9.9c3.1 3.1 4 7.3 1.9 9.4s-5.3 2.2-7.2.3c-1.9-1.9-3.5-1.3-3.5 1.4s-2.4 4.9-5.3 4.9-5.3-2.2-5.3-4.9-1.6-3.3-3.5-1.4-5.1 1.8-7.2-.3c-2.1-2.1-1.2-6.3 1.9-9.4l.9-.9c3.1-3.1 3.1-8.2 0-11.3l-.9-.9c-3.1-3.1-4-7.3-1.9-9.4 2.1-2.1 5.3-2.2 7.2-.3s3.5 1.3 3.5-1.4 2.4-4.9 5.3-4.9 5.3 2.2 5.3 4.9 1.6 3.3 3.5 1.4 5.1-1.8 7.2.3 1.2 6.3-1.9 9.4l-.9.9c-3.1 3.1-3.1 8.2 0 11.3zm22.6 206.7l.4.4c1.3 1.3 1.7 3.1.8 4-.9.9-2.2.9-3 .1s-1.5-.5-1.5.6-1 2.1-2.2 2.1-2.2-.9-2.2-2.1c0-1.1-.7-1.4-1.5-.6s-2.2.7-3-.1c-.9-.9-.5-2.7.8-4l.4-.4c1.3-1.3 1.3-3.4 0-4.8l-.4-.4c-1.3-1.3-1.7-3.1-.8-4 .9-.9 2.2-.9 3-.1s1.5.5 1.5-.6 1-2.1 2.2-2.1 2.2.9 2.2 2.1c0 1.1.7 1.4 1.5.6s2.2-.7 3 .1c.9.9.5 2.7-.8 4l-.4.4c-1.3 1.4-1.3 3.5 0 4.8zm0-420l.4.4c1.3 1.3 1.7 3.1.8 4-.9.9-2.2.9-3 .1-.8-.8-1.5-.5-1.5.6s-1 2.1-2.2 2.1-2.2-.9-2.2-2.1c0-1.1-.7-1.4-1.5-.6-.8.8-2.2.7-3-.1-.9-.9-.5-2.7.8-4l.4-.4c1.3-1.3 1.3-3.4 0-4.8l-.4-.4c-1.3-1.3-1.7-3.1-.8-4 .9-.9 2.2-.9 3-.1s1.5.5 1.5-.6 1-2.1 2.2-2.1 2.2.9 2.2 2.1c0 1.1.7 1.4 1.5.6s2.2-.7 3 .1c.9.9.5 2.7-.8 4l-.4.4c-1.3 1.4-1.3 3.5 0 4.8zM341 244.2l.9.9c3.1 3.1 4 7.3 1.9 9.4s-5.3 2.2-7.2.3c-1.9-1.9-3.5-1.3-3.5 1.4s-2.4 4.9-5.3 4.9-5.3-2.2-5.3-4.9-1.6-3.3-3.5-1.4-5.1 1.8-7.2-.3c-2.1-2.1-1.2-6.3 1.9-9.4l.9-.9c3.1-3.1 3.1-8.2 0-11.3l-.9-.9c-3.1-3.1-4-7.3-1.9-9.4 2.1-2.1 5.3-2.2 7.2-.3 1.9 1.9 3.5 1.3 3.5-1.4s2.4-4.9 5.3-4.9 5.3 2.2 5.3 4.9 1.6 3.3 3.5 1.4 5.1-1.8 7.2.3 1.2 6.3-1.9 9.4l-.9.9c-3.1 3.1-3.1 8.2 0 11.3z"/></svg>