<svg version="1.1" xmlns="http://www.w3.org/2000/svg" x="0" y="0" viewBox="0 0 512 512" xml:space="preserve"><path d="M276.7 32L292 86.7l4.4 15.6 15.2 5.7c16.3 6.1 31.3 14.8 44.7 25.8l12.5 10.3 15.7-4 55-14.1 20.8 35.9-39.7 40.6-11.2 11.5 2.5 15.9c1.4 8.9 2.1 17.4 2.1 26 0 9.1-.7 17.5-2.1 25.7l-2.7 16.1 11.4 11.6 39.8 40.6-20.8 35.9-55-14.1-15.7-4-12.5 10.3c-13.6 11.1-28.7 19.9-44.8 25.9l-15.2 5.7-4.4 15.6-15.2 54.8h-41.4L220 425.3l-4.4-15.6-15.2-5.7c-16.3-6.1-31.3-14.8-44.6-25.7L143.3 368l-15.7 4-55.2 14-20.8-35.9 39.7-40.6 11.2-11.5-2.5-15.9c-1.4-8.8-2.1-17.6-2.1-26.1s.7-17.3 2.1-26.1l2.5-15.9-11.2-11.5-39.7-40.6L72.4 126l55.1 14.1 15.7 4 12.5-10.3c13.4-11 28.5-19.7 44.7-25.8l15.1-5.7 4.4-15.6L235.3 32h41.4m12.2-32h-65.7c-7.2 0-13.5 4.8-15.4 11.7l-18.6 66.4c-19.6 7.4-37.7 17.9-53.7 31L68.6 92c-1.3-.3-2.7-.5-4-.5-5.6 0-10.9 3-13.8 8l-32.9 56.9c-3.6 6.2-2.6 14.1 2.4 19.2l48.2 49.3C66.9 235 66 245.4 66 256s.9 21 2.5 31.1l-48.2 49.3c-5 5.1-6 13-2.4 19.2l32.9 56.9c2.9 5 8.2 8 13.8 8 1.3 0 2.7-.2 4-.5l66.9-17.1c15.9 13.1 34 23.6 53.7 31l18.6 66.4c1.9 6.9 8.2 11.7 15.4 11.7h65.7c7.2 0 13.5-4.8 15.4-11.7l18.6-66.4c19.7-7.4 37.8-18 53.8-31.1l66.8 17.1c1.3.3 2.6.5 4 .5 5.6 0 10.9-3 13.8-8l32.9-56.9c3.6-6.2 2.6-14.1-2.4-19.2L443.5 287c1.7-10.1 2.5-20.4 2.5-31s-.9-20.9-2.5-31l48.2-49.3c5-5.1 6-13 2.4-19.2l-32.9-56.9c-2.9-5-8.3-8-13.8-8-1.3 0-2.6.2-4 .5l-66.8 17.1c-16.1-13.3-34.3-23.8-53.8-31.1l-18.6-66.4C302.3 4.8 296 0 288.9 0zM256 216c22.1 0 40 17.9 40 40s-17.9 40-40 40-40-17.9-40-40 17.9-40 40-40m0-32c-39.7 0-72 32.3-72 72s32.3 72 72 72 72-32.3 72-72-32.3-72-72-72z"/></svg>