<svg version="1.1" xmlns="http://www.w3.org/2000/svg" x="0" y="0" viewBox="0 0 512 512" style="enable-background:new 0 0 512 512" xml:space="preserve"><path d="M256 8c64.2 0 114.7 9.4 150.1 27.8 15.9 8.3 28.9 18.5 38.8 30.4 9.2 11.1 16 24.1 20 38.5 20.6 72.9-28.1 173-72.6 244.1-52.6 84.1-109.1 144.7-116.3 149.1-6.3 3.8-13.8 6.1-20.1 6.1-6.3 0-13.9-2.3-20.1-6.1-7.1-4.4-63.6-65-116.3-149.1C75 277.7 26.4 177.7 46.9 104.7c4.1-14.4 10.8-27.3 20-38.5C77 54.3 90 44.1 105.9 35.8 141.3 17.4 191.8 8 256 8m0-8c-469.2 0-52.5 487.4-24.3 504.7 8.5 5.2 17.5 7.3 24.3 7.3 6.8 0 15.8-2.1 24.3-7.3C308.5 487.4 725.2 0 256 0z"/></svg>