<svg version="1.1" xmlns="http://www.w3.org/2000/svg" x="0" y="0" viewBox="0 0 512 512" style="enable-background:new 0 0 512 512" xml:space="preserve"><path d="M256 8c33.5 0 66 6.6 96.5 19.5C382 40 408.6 57.9 431.3 80.6c22.8 22.8 40.7 49.3 53.1 78.8 12.9 30.6 19.5 63 19.5 96.5s-6.6 66-19.5 96.5c-12.5 29.5-30.4 56.1-53.1 78.8-22.8 22.8-49.3 40.7-78.8 53.1-30.5 13.1-63 19.7-96.5 19.7s-66-6.6-96.5-19.5c-29.5-12.5-56.1-30.4-78.8-53.1-22.8-22.8-40.7-49.3-53.1-78.8C14.6 322 8 289.5 8 256s6.6-66 19.5-96.5C40 130 57.9 103.4 80.6 80.7c22.8-22.8 49.3-40.7 78.8-53.1C190 14.6 222.5 8 256 8m0-8C114.6 0 0 114.6 0 256s114.6 256 256 256 256-114.6 256-256S397.4 0 256 0zm-44.8 138.1c13.1 0 24.2 9.4 26.5 22.4 1.3 7.1-.3 14.2-4.5 20.1-4.1 5.9-10.3 9.9-17.4 11.1-1.5.3-3.1.4-4.7.4-13.1 0-24.3-9.4-26.6-22.3-1.3-7.1.3-14.2 4.5-20.1 4.1-5.9 10.3-9.9 17.5-11.1 1.6-.4 3.2-.5 4.7-.5m89.7 0c1.5 0 3.1.1 4.7.4 14.6 2.5 24.4 16.6 21.9 31.2-2.3 12.9-13.5 22.3-26.6 22.3-1.5 0-3.1-.1-4.6-.4-14.6-2.6-24.5-16.6-21.9-31.2 2.2-12.9 13.4-22.3 26.5-22.3M256 369c14.9 0 27 12.1 27 27s-12.1 27-27 27-27-12.1-27-27 12.1-27 27-27m-44.8-238.9c-2 0-4.1.2-6.1.5-19 3.3-31.8 21.5-28.4 40.5 3 17 17.8 28.9 34.5 28.9 2 0 4-.2 6-.5 19-3.3 31.8-21.5 28.4-40.5-2.9-16.9-17.7-28.9-34.4-28.9zm89.7 0c-16.7 0-31.4 11.9-34.5 28.9-3.3 19 9.4 37.1 28.4 40.5 2 .4 4 .5 6 .5 16.7 0 31.4-11.9 34.5-28.9 3.3-19.1-9.4-37.2-28.4-40.5-2-.4-4-.5-6-.5zM256 361c-19.3 0-35 15.7-35 35s15.7 35 35 35 35-15.7 35-35-15.7-35-35-35z"/></svg>