<svg version="1.1" xmlns="http://www.w3.org/2000/svg" x="0" y="0" viewBox="0 0 512 512" xml:space="preserve"><path d="M284.5 256c0-8.2-3.4-15.5-9-20.7 4.5-28.5 15-97.8 15-128.3 0-28.7-9.8-74.8-14.9-97.1-1.6-7.1-8.8-11.3-15.8-9.4l-9.9 2.8c-12.3 3.4-21.3 14.1-22.5 26.9-2.4 25.2-5.9 66.9-5.9 90.8 0 30 7.7 98.4 10.2 120.2-2.7 4.3-4.2 9.4-4.2 14.9 0 8.2 3.4 15.5 9 20.7-4.5 28.5-15 97.8-15 128.3 0 28.7 9.8 74.8 14.9 97.1 1.6 7.1 8.8 11.3 15.8 9.4l9.9-2.8c12.3-3.4 21.3-14.1 22.5-26.9 2.4-25.2 5.9-66.9 5.9-90.8 0-30-7.7-98.4-10.2-120.2 2.7-4.3 4.2-9.4 4.2-14.9zM256 238c9.9 0 18 8.1 18 18s-8.1 18-18 18-18-8.1-18-18 8.1-18 18-18z"/></svg>