<svg version="1.1" xmlns="http://www.w3.org/2000/svg" x="0" y="0" viewBox="0 0 512 512" style="enable-background:new 0 0 512 512" xml:space="preserve"><path d="M256 0C114.6 0 0 114.6 0 256s114.6 256 256 256 256-114.6 256-256S397.4 0 256 0zm221.1 162.6c11.5 27.1 17.7 55.8 18.7 85.4H368.1c1.9-60 25.2-114.6 62.5-156.6 19.8 20.9 35.4 44.8 46.5 71.2zM419.2 80c-41.7 46.5-65.2 105.3-67.1 168H264V16.1c29.6 1 58.3 7.2 85.4 18.7 25.8 11 49.3 26.2 69.8 45.2zM248 16.1V248h-88.1c-1.9-62.6-25.4-121.5-67.1-168 20.5-19.1 44-34.3 69.8-45.2 27.1-11.4 55.8-17.7 85.4-18.7zM81.3 91.4c37.3 42 60.6 96.6 62.5 156.6H16.1c1-29.6 7.2-58.3 18.7-85.4 11.2-26.4 26.8-50.3 46.5-71.2zm-46.4 258c-11.5-27.1-17.7-55.8-18.7-85.4h127.7c-1.9 60-25.2 114.6-62.5 156.6-19.8-20.9-35.4-44.8-46.5-71.2zM92.8 432c41.7-46.5 65.2-105.3 67.1-168H248v231.9c-29.6-1-58.3-7.2-85.4-18.7-25.8-11-49.3-26.2-69.8-45.2zM264 495.9V264h88.1c1.9 62.6 25.4 121.5 67.1 168-20.5 19.1-44 34.3-69.8 45.2-27.1 11.4-55.8 17.7-85.4 18.7zm166.7-75.3c-37.3-42-60.6-96.6-62.5-156.6h127.7c-1 29.6-7.2 58.3-18.7 85.4-11.2 26.4-26.8 50.3-46.5 71.2z"/></svg>