<svg version="1.1" xmlns="http://www.w3.org/2000/svg" x="0" y="0" viewBox="0 0 512 512" xml:space="preserve"><path d="M252.5 24V5c0-1.1.9-2 2-2V1c0-.6.4-1 1-1h1c.6 0 1 .4 1 1v2c1.1 0 2 .9 2 2v19.1c-1.2 0-2.3-.1-3.5-.1h-3.5zm-73.3 148.9l.9.6c20.5-13.4 44.7-21.5 70.7-22.5 1.7-.1 3.5-.1 5.2-.1 28 0 54.1 8.3 75.9 22.6.2-.2.4-.3.6-.5.1 0 .1-.1.2-.1C330.2 105.2 308.4 49 279 29.4c-1.8-.2-3.7-.5-5.6-.6h-.1c-1.9-.2-3.7-.3-5.6-.5h-.2c-1.7-.1-3.4-.2-5-.2h-1.1c-1.8-.1-3.5-.1-5.3-.1h-.3c-1.6 0-3.2 0-4.8.1-.6 0-1.2 0-1.8.1-1.3 0-2.5.1-3.8.2-.4 0-.9 0-1.3.1-1.8.1-3.6.3-5.3.4h-.1c-1.9.2-3.7.4-5.6.6-29.6 19.6-51.4 75.8-53.9 143.4zM131 157c16.3 0 31.5 4.9 44.3 13.2 1.4-32.4 7.3-62.9 16.9-88.4 8.6-22.7 19.7-40.2 32.4-51-.2 0-.4.1-.6.1-.4.1-.8.2-1.2.2-.8.1-1.6.3-2.3.4-.4.1-.9.2-1.3.3-.8.2-1.5.3-2.3.5-.4.1-.9.2-1.3.3-.7.2-1.5.3-2.2.5-.4.1-.9.2-1.3.3-.7.2-1.4.4-2.2.6-.4.1-.9.2-1.3.4-.7.2-1.4.4-2.2.6-.4.1-.9.2-1.3.4l-2.1.6c-.4.1-.8.3-1.3.4-.7.2-1.4.5-2.2.7-.4.1-.8.3-1.2.4-.7.3-1.5.5-2.2.8-.4.1-.8.3-1.1.4-.8.3-1.5.6-2.3.9-.3.1-.7.2-1 .4-.9.3-1.7.7-2.5 1-.2.1-.5.2-.7.3-2.2.9-4.4 1.8-6.6 2.8-1.1.5-2.1 1-3.2 1.5-.3.1-.5.3-.8.4l-2.4 1.2c-.3.2-.7.4-1 .5-.7.4-1.4.7-2.1 1.1-.4.2-.8.4-1.1.6-.6.3-1.3.7-1.9 1.1-.4.2-.8.4-1.2.7-.6.3-1.2.7-1.9 1.1-.4.2-.8.5-1.2.7-.6.4-1.2.7-1.8 1.1-.4.2-.8.5-1.2.7-.6.4-1.2.7-1.7 1.1-.4.3-.8.5-1.2.8-.6.4-1.1.7-1.7 1.1-.4.3-.8.5-1.2.8-.6.4-1.1.8-1.7 1.1-.4.3-.8.6-1.2.8-.6.4-1.1.8-1.7 1.2-.4.3-.8.6-1.2.8-.6.4-1.1.8-1.7 1.2-.4.3-.8.6-1.1.8-.6.4-1.1.9-1.7 1.3-.4.3-.7.6-1.1.8-.6.4-1.1.9-1.7 1.4-.3.3-.7.5-1 .8l-1.8 1.5c-.3.2-.6.5-.9.7l-2.1 1.8c-.2.1-.3.3-.5.4-.9.8-1.7 1.6-2.6 2.4l-.2.2c-.8.7-1.5 1.4-2.3 2.2l-.8.8-1.7 1.7-.9.9-1.5 1.5c-.3.3-.6.7-1 1-.5.5-.9 1-1.4 1.5-.3.4-.7.7-1 1.1-.4.5-.9 1-1.3 1.5-.3.4-.7.8-1 1.1-.4.5-.9 1-1.3 1.5-.3.4-.7.8-1 1.2l-1.2 1.5c-.3.4-.7.8-1 1.2l-1.2 1.5c-.3.4-.6.8-1 1.2l-1.2 1.5-.9 1.2c-.4.5-.8 1-1.1 1.6-.3.4-.6.8-.9 1.3-.4.5-.8 1.1-1.1 1.6-.3.4-.6.8-.9 1.3-.4.5-.7 1.1-1.1 1.6-.3.4-.6.8-.8 1.2-.4.6-.7 1.1-1.1 1.7-.3.4-.5.8-.8 1.2-.4.6-.8 1.2-1.1 1.8-.2.4-.5.8-.7 1.1l-1.2 2.1c-.2.3-.4.6-.5.9-.6 1-1.2 2-1.7 3-.1.1-.1.2-.2.4l-1.5 2.7c-.2.3-.4.7-.5 1-.4.7-.7 1.4-1.1 2.1l-.6 1.2c-.3.6-.6 1.3-.9 1.9-.2.4-.4.9-.6 1.4-.3.6-.6 1.2-.8 1.8-.2.5-.4.9-.6 1.4-.3.6-.5 1.2-.8 1.8l-.6 1.5c-.3.6-.5 1.2-.7 1.8l-.6 1.5c-.2.6-.5 1.2-.7 1.8l-.6 1.5c-.2.6-.5 1.2-.7 1.8-.2.5-.4 1-.5 1.5l-.6 1.8c-.2.5-.3 1-.5 1.5-.2.6-.4 1.2-.6 1.9-.2.5-.3 1-.5 1.5-.2.6-.4 1.3-.6 1.9-.1.5-.3 1-.4 1.5-.2.6-.4 1.3-.5 1.9-.1.5-.3 1-.4 1.5-.2.7-.3 1.3-.5 2-.1.5-.2 1-.4 1.5-.2.7-.3 1.4-.5 2.1-.1.5-.2.9-.3 1.4-.2.8-.3 1.6-.5 2.4-.1.4-.2.8-.2 1.2-.2 1.2-.5 2.4-.7 3.5.8-.6 1.6-1.3 2.4-1.9.3-.3.7-.5 1-.8.4-.3.9-.6 1.3-1 .5-.3.9-.6 1.4-.9.3-.2.6-.4 1-.6 12.3-8 27.4-12.8 43.7-12.8zm250 4c-16.9 0-33.1 5.5-46.7 15.8l-2.3 1.7-2.4-1.5c-21.8-14.4-47.3-22-73.6-22s-51.8 7.6-73.7 21.9l-2.4 1.5-2.3-1.7C164.1 166.5 147.9 161 131 161c-15.7 0-30.5 4.6-43.3 13.3-.6 4.2-1 8.4-1.3 12.6C99.7 176.3 116.6 170 135 170c19.4 0 37.1 7 50.7 18.6 19.6-11.8 42.3-18.9 66.8-19.5V443h-2c-1.1 0-2 .9-2 2v2c0 1.1.9 2 2 2v37c0 14.4 11.6 26 26 26s26-11.6 26-26c0-3-2.5-5.5-5.5-5.5s-5.5 2.5-5.5 5.5c0 8.3-6.7 15-15 15s-15-6.7-15-15v-37c1.1 0 2-.9 2-2v-2c0-1.1-.9-2-2-2h-2V169.1c24.5.6 47.2 7.7 66.8 19.5C339.9 177 357.6 170 377 170c18.4 0 35.3 6.3 48.6 16.9-.3-4.2-.7-8.5-1.3-12.6-12.8-8.7-27.6-13.3-43.3-13.3zm50.5 10.6c-.1-.4-.2-.8-.2-1.2-.2-.8-.3-1.6-.5-2.4-.1-.5-.2-.9-.3-1.4-.2-.7-.3-1.4-.5-2.1-.1-.5-.2-1-.4-1.5-.2-.7-.3-1.4-.5-2-.1-.5-.3-1-.4-1.5-.2-.7-.4-1.3-.6-2-.1-.5-.3-1-.4-1.5-.2-.6-.4-1.3-.6-1.9-.2-.5-.3-1-.5-1.5-.2-.6-.4-1.3-.6-1.9-.2-.5-.3-1-.5-1.5-.2-.6-.4-1.3-.7-1.9-.2-.5-.3-1-.5-1.5-.2-.7-.5-1.3-.7-1.9-.2-.5-.4-.9-.5-1.4-.3-.7-.5-1.4-.8-2-.2-.4-.3-.9-.5-1.3-.3-.8-.7-1.6-1-2.3-.1-.3-.3-.6-.4-1-.5-1.1-.9-2.2-1.4-3.2-.2-.3-.3-.7-.5-1-.3-.7-.7-1.5-1-2.2-.2-.4-.4-.9-.6-1.3-.3-.6-.6-1.3-.9-1.9-.2-.5-.5-.9-.7-1.4l-.9-1.8c-.3-.5-.5-.9-.8-1.4-.3-.6-.6-1.1-.9-1.7-.3-.5-.5-1-.8-1.4-.3-.5-.6-1.1-.9-1.6-.3-.5-.6-1-.9-1.4-.3-.5-.6-1.1-1-1.6-.3-.5-.6-1-.9-1.4-.3-.5-.7-1-1-1.6-.3-.5-.6-.9-.9-1.4-.3-.5-.7-1-1-1.5-.3-.5-.6-.9-.9-1.4-.4-.5-.7-1-1.1-1.5-.3-.5-.6-.9-.9-1.4-.4-.5-.7-1-1.1-1.6-.3-.4-.6-.9-.9-1.3-.4-.6-.9-1.2-1.3-1.8-.5-.7-1-1.4-1.6-2-.4-.6-.9-1.1-1.3-1.7-.4-.4-.7-.9-1.1-1.3-.4-.5-.8-.9-1.1-1.4-.4-.5-.8-.9-1.1-1.4-.4-.4-.7-.9-1.1-1.3-.4-.5-.8-.9-1.2-1.3-.4-.4-.8-.9-1.1-1.3-.4-.5-.8-.9-1.2-1.3-.4-.4-.8-.8-1.1-1.2-.4-.4-.8-.9-1.3-1.3l-1.2-1.2-1.3-1.3-1.2-1.2-1.3-1.3c-.4-.4-.8-.7-1.2-1.1-.5-.4-.9-.9-1.4-1.3-.4-.4-.8-.7-1.2-1.1-.5-.4-1-.9-1.4-1.3-.4-.3-.8-.7-1.1-1-.5-.4-1-.9-1.5-1.3-.3-.3-.7-.6-1-.9-2-1.7-4-3.3-6-4.9-.3-.2-.6-.5-1-.7-.6-.4-1.1-.8-1.7-1.3-.4-.3-.7-.6-1.1-.8-.5-.4-1.1-.8-1.7-1.2-.4-.3-.8-.6-1.2-.8-.6-.4-1.1-.8-1.7-1.2-.4-.3-.8-.6-1.2-.8-.6-.4-1.1-.8-1.7-1.1-.4-.3-.8-.5-1.2-.8-.6-.4-1.1-.7-1.7-1.1-.4-.3-.8-.5-1.2-.8-.6-.4-1.2-.7-1.7-1.1-.4-.2-.8-.5-1.2-.7-.6-.4-1.2-.7-1.8-1-.4-.2-.8-.5-1.2-.7-.6-.3-1.2-.7-1.8-1l-1.2-.6c-.6-.3-1.3-.7-1.9-1-.3-.2-.7-.3-1-.5-.7-.4-1.4-.7-2.1-1.1 0 0-.1 0-.1-.1-2-1-3.9-1.9-5.9-2.8h-.1c-.7-.3-1.5-.7-2.2-1-.3-.1-.7-.3-1-.4l-2.1-.9c-.4-.2-.8-.3-1.2-.5-.7-.3-1.3-.5-2-.8-.4-.2-.9-.3-1.3-.5-.7-.3-1.3-.5-2-.8-.4-.2-.9-.3-1.3-.5-.7-.2-1.3-.5-2-.7-.5-.2-.9-.3-1.4-.5-.7-.2-1.3-.4-2-.7-.5-.1-.9-.3-1.4-.4-.7-.2-1.4-.4-2-.6-.5-.1-.9-.3-1.4-.4l-2.1-.6c-.4-.1-.9-.2-1.3-.4l-2.1-.6c-.4-.1-.8-.2-1.3-.3-.7-.2-1.5-.4-2.2-.6-.3-.1-.6-.1-.9-.2-2.8-.6-5.6-1.2-8.4-1.7-.3-.1-.6-.1-1-.2 12.7 10.9 23.9 28.3 32.5 51.1 9.6 25.5 15.5 56.1 16.9 88.5 12.8-8.4 28.1-13.3 44.4-13.3 16.3 0 31.4 4.8 44.1 13.1.3.2.6.4 1 .6.5.3.9.6 1.4.9.5.3.9.6 1.3 1 .3.3.7.5 1 .8.8.6 1.6 1.2 2.4 1.9-1.1-1.8-1.3-3-1.6-4.2z"/></svg>