<svg version="1.1" xmlns="http://www.w3.org/2000/svg" x="0" y="0" viewBox="0 0 512 512" xml:space="preserve"><path d="M256 0C114.6 0 0 114.6 0 256s114.6 256 256 256 256-114.6 256-256S397.4 0 256 0zm0 490C126.8 490 22 385.2 22 256S126.8 22 256 22s234 104.8 234 234-104.8 234-234 234zm200.9-318.9c-11-26-26.7-49.3-46.7-69.3s-43.3-35.7-69.3-46.7C314 43.8 285.4 38 256 38c-29.4 0-58 5.8-84.9 17.1-26 11-49.3 26.7-69.3 46.7s-35.7 43.3-46.7 69.3C43.8 198 38 226.6 38 256c0 29.4 5.8 58 17.1 84.9 11 26 26.7 49.3 46.7 69.3s43.3 35.7 69.3 46.7C198 468.2 226.6 474 256 474c29.4 0 58-5.8 84.9-17.1 26-11 49.3-26.7 69.3-46.7 20-20 35.7-43.3 46.7-69.3C468.2 314 474 285.4 474 256c0-29.4-5.8-58-17.1-84.9zM70.4 213.6c3.7-2.5 8.6-1.5 11.1 2.2s1.5 8.6-2.2 11.1-8.6 1.5-11.1-2.2-1.5-8.7 2.2-11.1zm-5 36.8c3.1-3.1 8.2-3.1 11.3 0 3.1 3.1 3.1 8.2 0 11.3-3.1 3.1-8.2 3.1-11.3 0a7.85 7.85 0 0 1 0-11.3zm1.2 41.7c0-4.4 3.6-8 8-8s8 3.6 8 8-3.6 8-8 8-8-3.6-8-8zm24.7 39.8c-2.8 3.4-7.8 3.9-11.3 1.1s-3.9-7.8-1.1-11.3 7.8-3.9 11.3-1.1 3.9 7.9 1.1 11.3zm-6-138.4c-4.4 0-8-3.6-8-8s3.6-8 8-8 8 3.6 8 8-3.6 8-8 8zm24.8 166.8c-.9 4.3-5.1 7.1-9.4 6.3s-7.1-5.1-6.3-9.4 5.1-7.1 9.4-6.3 7.2 5.1 6.3 9.4zm-2.7-200.4c-3.5 2.8-8.5 2.2-11.2-1.3-2.8-3.5-2.2-8.5 1.3-11.2 3.5-2.8 8.5-2.2 11.2 1.3s2.2 8.4-1.3 11.2zm18 234.9c-4.4 0-8-3.6-8-8s3.6-8 8-8 8 3.6 8 8-3.6 8-8 8zm0-261.2c-4.4 0-8-3.6-8-8s3.6-8 8-8 8 3.6 8 8-3.6 8-8 8zm27.8-39.4c4.4 0 8 3.6 8 8s-3.6 8-8 8-8-3.6-8-8 3.6-8 8-8zm6.9 320c-2.4 3.7-7.4 4.7-11.1 2.2-3.7-2.4-4.7-7.4-2.2-11.1 2.4-3.7 7.4-4.7 11.1-2.2 3.6 2.5 4.6 7.5 2.2 11.1zM323.6 78.1c4.1-1.7 8.8.2 10.5 4.3 1.7 4.1-.2 8.8-4.3 10.5-4.1 1.7-8.8-.2-10.5-4.3-1.7-4.1.3-8.8 4.3-10.5zm-39.4-4.6c.8-4.3 5-7.2 9.4-6.3 4.3.8 7.2 5 6.3 9.4-.8 4.3-5 7.2-9.4 6.3-4.3-.9-7.2-5.1-6.3-9.4zM256 63c4.4 0 8 3.6 8 8s-3.6 8-8 8-8-3.6-8-8 3.6-8 8-8zm-36.1 3.6c4.4 0 8 3.6 8 8s-3.6 8-8 8-8-3.6-8-8 3.6-8 8-8zm-37.7 11.1c4.1-1.7 8.8.3 10.5 4.4 1.7 4.1-.3 8.8-4.4 10.5-4.1 1.6-8.8-.3-10.5-4.4-1.7-4.1.3-8.8 4.4-10.5zm6.2 356.6c-4.1 1.7-8.8-.2-10.5-4.3-1.7-4.1.2-8.8 4.3-10.5 4.1-1.7 8.8.2 10.5 4.3 1.7 4.1-.2 8.8-4.3 10.5zm39.5 4.6c-.8 4.3-5 7.2-9.4 6.3-4.3-.8-7.2-5-6.3-9.4.8-4.3 5-7.2 9.4-6.3 4.3.9 7.1 5.1 6.3 9.4zM256 449c-4.4 0-8-3.6-8-8s3.6-8 8-8 8 3.6 8 8-3.6 8-8 8zm36.1-3.6c-4.4 0-8-3.6-8-8s3.6-8 8-8 8 3.6 8 8-3.6 8-8 8zm-36.9-73.1c-21 0-39-5.8-54-17.3s-22.3-27.3-21.7-47.5l.3-.8 44.1-2.2c0 10.2 2.9 18.1 8.7 23.9 5.8 5.7 13.3 8.6 22.7 8.6 10.7 0 18.6-3.8 23.8-11.5 5.1-7.7 7.7-17.6 7.7-29.8 0-13.2-2.7-23.8-8.2-31.8s-13.6-12-24.4-12c-8.7 0-15.4 1.6-20.1 4.9s-8 7.7-10 13.2l-40.7-2.7 13.2-127.8h132v52.3h-28.3v.1l-4.1-15.4h-61.8l-6.5 52.9c4.3-3.2 9.5-5.8 15.4-7.8s12.6-3.1 19.9-3.2c22.1-.3 39.1 6.4 51.2 20 12.1 13.7 18.1 32.7 18.1 57 0 22.1-6.6 40.4-19.9 55-13.3 14.6-32.4 21.9-57.4 21.9zm78 59.4c-2.7 3.5-7.7 4.2-11.2 1.5s-4.2-7.7-1.5-11.2c2.7-3.5 7.7-4.2 11.2-1.5s4.2 7.7 1.5 11.2zm108.7-218.4c3.7 2.5 4.7 7.4 2.2 11.1-2.5 3.7-7.4 4.7-11.1 2.2-3.7-2.5-4.7-7.4-2.2-11.1 2.4-3.7 7.4-4.7 11.1-2.2zm-21.2-33.2c2.8-3.4 7.8-3.9 11.3-1.1 3.4 2.8 3.9 7.8 1.1 11.3-2.8 3.4-7.8 3.9-11.3 1.1-3.4-2.9-3.9-7.9-1.1-11.3zm-69-81.4c2.1-3.9 7-5.3 10.9-3.1s5.3 7 3.1 10.9c-2.1 3.9-7 5.3-10.9 3.1s-5.2-7-3.1-10.9zm7.1 319.1c-4.4 0-8-3.6-8-8s3.6-8 8-8 8 3.6 8 8-3.6 8-8 8zm32-24.1c-3.8 2.3-8.7 1.2-11-2.6-2.3-3.8-1.2-8.7 2.6-11s8.7-1.2 11 2.6c2.3 3.7 1.2 8.6-2.6 11zm-4.2-260.1c-4.4 0-8-3.6-8-8s3.6-8 8-8 8 3.6 8 8-3.6 8-8 8zm25.5 232.8c-4.2 1.4-8.7-.9-10.1-5.1s.9-8.7 5.1-10.1c4.2-1.4 8.7.9 10.1 5.1 1.4 4.2-.9 8.7-5.1 10.1zm5.5-211.6c-.9 4.3-5.1 7.1-9.4 6.3s-7.1-5.1-6.3-9.4c.9-4.3 5.1-7.1 9.4-6.3 4.3.8 7.2 5 6.3 9.4zm11.2 179.8c-4.3 1.2-8.7-1.3-9.8-5.6-1.2-4.3 1.3-8.7 5.6-9.8s8.7 1.3 9.8 5.6c1.2 4.3-1.3 8.7-5.6 9.8zm12.9-35.7c-3.7 2.5-8.6 1.5-11.1-2.2s-1.5-8.6 2.2-11.1 8.6-1.5 11.1 2.2c2.4 3.7 1.4 8.6-2.2 11.1zm4.9-37.3c-3.1 3.1-8.2 3.1-11.3 0s-3.1-8.2 0-11.3 8.2-3.1 11.3 0 3.2 8.2 0 11.3z"/></svg>