<svg version="1.1" xmlns="http://www.w3.org/2000/svg" x="0" y="0" viewBox="0 0 512 512" xml:space="preserve"><path d="M336 295c-4.7 0-8.5-3.8-8.5-8.5s3.8-8.5 8.5-8.5 8.5 3.8 8.5 8.5-3.8 8.5-8.5 8.5zm12 51h-9v5h-6v-5h-9v17h24v-17zm-24 40h24v-17h-24v17zm15.1-194l-1.7 8h9.1l-1.7-8h-5.7zM164 329.9v-1.3c0-10.8-3.2-21.2-8.5-30.6-2.1-3.7-3.2-8.1-3-12.8.6-11.8 10.2-21.5 22-22.2 13.7-.8 25 10 25 23.5 0 4.3-1.2 8.3-3.2 11.8-5.6 9.6-8.2 20.6-8.3 31.7h136v-1.3c0-10.8-3.2-21.2-8.5-30.6-2.1-3.7-3.2-8.1-3-12.8.6-11.8 10.2-21.5 22-22.2 13.7-.8 25 10 25 23.5 0 4.3-1.2 8.3-3.2 11.8-5.6 9.6-8.2 20.6-8.3 31.6 25.3-1.3 45.5-22.3 45.5-47.9v-66.6c-.7-.9-1.5-1.8-2.3-2.6 0 0 0-.1-.1-.1-.7-.8-1.5-1.5-2.2-2.3l-.6-.6c-.6-.6-1.2-1.1-1.8-1.7-.3-.2-.5-.4-.8-.7l-1.8-1.5c-.3-.2-.6-.5-.9-.7-.6-.5-1.2-.9-1.8-1.3-.3-.2-.6-.4-.9-.7-.6-.4-1.2-.8-1.9-1.3l-.9-.6-2.1-1.2c-.3-.1-.5-.3-.8-.4-.9-.5-1.9-1-2.9-1.5h-.1c-1-.5-2-1-3.1-1.4-.2-.1-.5-.2-.7-.3l-2.4-.9c-.4-.1-.7-.3-1.1-.4-.7-.2-1.4-.5-2.1-.7-.4-.1-.8-.2-1.3-.4-.7-.2-1.3-.4-2-.5-.4-.1-.9-.2-1.3-.3-.7-.1-1.3-.3-2-.4-.5-.1-.9-.2-1.4-.2l-2.1-.3c-.4-.1-.9-.1-1.3-.2-.8-.1-1.6-.1-2.3-.2-.4 0-.8-.1-1.1-.1h-.6l1.6 7.5c.3 1.2-.7 2.4-2 2.4h-9.1c-1.3 0-2.2-1.2-2-2.4l1.6-7.6H168c-1.2 0-2.4 0-3.5.1-.4 0-.8.1-1.1.1-.8.1-1.6.1-2.3.2-.4 0-.9.1-1.3.2l-2.1.3c-.5.1-.9.2-1.4.2-.7.1-1.4.3-2 .4-.4.1-.9.2-1.3.3-.7.2-1.3.3-2 .5-.4.1-.8.2-1.3.4-.7.2-1.4.4-2.1.7-.4.1-.7.2-1.1.4l-2.4.9c-.2.1-.5.2-.7.3-1 .4-2.1.9-3.1 1.4h-.1c-1 .5-1.9 1-2.9 1.5-.3.1-.5.3-.8.4l-2.1 1.2-.9.6c-.6.4-1.3.8-1.9 1.3-.3.2-.6.4-.9.7-.6.4-1.2.9-1.8 1.3-.3.2-.6.5-.9.7l-1.8 1.5c-.3.2-.5.4-.8.7-.6.6-1.2 1.1-1.8 1.7l-.6.6c-.8.7-1.5 1.5-2.2 2.3 0 0 0 .1-.1.1-.8.8-1.5 1.7-2.3 2.6V282c.1 25.7 20.3 46.6 45.6 47.9zM162 100h11.3c0-9.7-2.9-19.1-7.6-27.5-1.9-3.4-2.9-7.3-2.7-11.5.6-10.6 9.1-19.3 19.7-19.9 12.3-.8 22.5 9 22.5 21.1 0 3.9-1 7.5-2.8 10.6-4.8 8.3-7.2 17.7-7.5 27.3h122.2c0-9.7-2.9-19.1-7.6-27.5-1.9-3.4-2.9-7.3-2.7-11.5.6-10.6 9.1-19.3 19.7-19.9 12.3-.8 22.5 9 22.5 21.1 0 3.9-1 7.5-2.8 10.6-4.8 8.3-7.2 17.7-7.5 27.3H350c26.5 0 48-21.5 48-48V10.4c-1.8-1.2-3.7-2.3-5.6-3.3-.2-.1-.3-.2-.5-.2l-1.8-.9h-.1c-1.2-.5-2.3-1-3.5-1.5-.3-.1-.5-.2-.8-.3l-1.5-.6c-.4-.1-.7-.3-1.1-.4-.5-.2-.9-.3-1.4-.5-.8-.2-1.6-.5-2.3-.7-.4-.1-.8-.2-1.1-.3-.5-.1-1.1-.3-1.6-.4-.4-.1-.8-.2-1.1-.2-.7-.1-1.3-.2-2-.4-.3 0-.5-.1-.8-.1-.9-.1-1.8-.3-2.8-.4-.3 0-.6-.1-.9-.1-.7-.1-1.4-.1-2.2-.2h-.9c-1 .1-2 .1-3 .1H149c-1 0-2 0-2.9.1h-.9c-.7 0-1.4.1-2.2.2-.3 0-.6 0-.9.1-.9.1-1.8.2-2.8.4-.3 0-.5.1-.8.1-.7.1-1.3.2-2 .4-.4.1-.8.2-1.1.2-.6.1-1.1.2-1.6.4-.4.1-.8.2-1.1.3-.8.2-1.6.4-2.3.7-.5.1-.9.3-1.4.5-.4.1-.7.2-1.1.4l-1.5.6c-.3.1-.5.2-.8.3-1.2.5-2.4 1-3.5 1.5h-.1l-1.8.9c-.2.1-.3.2-.5.2-1.9 1-3.8 2.1-5.6 3.3V52c-.1 26.5 21.4 48 47.9 48zm29.8-37.9c0-4.2-3.4-7.6-7.6-7.6-4.2 0-7.6 3.4-7.6 7.6 0 4.2 3.4 7.6 7.6 7.6 4.1 0 7.6-3.4 7.6-7.6zm143.7 0c0-4.2-3.4-7.6-7.6-7.6-4.2 0-7.6 3.4-7.6 7.6 0 4.2 3.4 7.6 7.6 7.6 4.2 0 7.6-3.4 7.6-7.6zM188 346h-9v5h-6v-5h-9v17h24v-17zm6.9-230.5h-8.1v4.5h-5.4v-4.5h-8.1v15.3h21.6v-15.3zM437.5 277v189c0 4.4-3.6 8-8 8h-8c-10 22.4-32.4 38-58.5 38H149c-26.1 0-48.5-15.6-58.5-38h-8c-4.4 0-8-3.6-8-8V277c0-4.4 3.6-8 8-8H85V140h-4.5c-1.3 0-2.2-1.2-2-2.4l3.2-15c.1-.3.2-.5.3-.7v-6.3c0-1.1.9-2 2-2h1V64c0-17.8 7.3-33.9 19-45.5V52c0 32 26 58 58 58h11.3v.2c-3 0-5.4 2.4-5.4 5.4v15.3h-.2c-1.1 0-2 .9-2 2v1.4c0 1.1.9 2 2 2h.2v15.3c0 3 2.4 5.4 5.4 5.4v8c0 4 3.2 7.2 7.2 7.2h7.2c4 0 7.2-3.2 7.2-7.2v-8c3 0 5.4-2.4 5.4-5.4v-15.3h.2c1.1 0 2-.9 2-2v-1.4c0-1.1-.9-2-2-2h-.2v-15.3c0-3-2.4-5.4-5.4-5.4v-.2h52.6v14l8.5 8 8.5-8v-14h52.6v.2c-3 0-5.4 2.4-5.4 5.4v15.3h-.2c-1.1 0-2 .9-2 2v1.4c0 1.1.9 2 2 2h.2v15.3c0 3 2.4 5.4 5.4 5.4v8c0 4 3.2 7.2 7.2 7.2h7.2c4 0 7.2-3.2 7.2-7.2v-8c3 0 5.4-2.4 5.4-5.4v-15.3h.2c1.1 0 2-.9 2-2v-1.4c0-1.1-.9-2-2-2h-.2v-15.3c0-3-2.4-5.4-5.4-5.4v-.2H350c32 0 58-26 58-58V18.5c11.7 11.6 19 27.7 19 45.5v205h2.5c4.4 0 8 3.6 8 8zM85 130h-2.9l-1.7 8H85v-8zm333 126c0-16.4-5.4-31.6-14.5-43.9v-.2l-2.3-2.8c-10.9-13.3-25.8-22.2-42.3-25.6h-.1c-1.1-.2-2.3-.4-3.4-.6-.1 0-.3 0-.4-.1-1.1-.2-2.2-.3-3.3-.4h-.5c-1.1-.1-2.2-.2-3.4-.3h-2V181c0-1.1-.9-2-2-2h-9c-1.1 0-2 .9-2 2v1H168c-1.2 0-2.4 0-3.6.1h-.4c-1.1.1-2.2.1-3.4.3h-.5c-1.1.1-2.2.3-3.3.4-.1 0-.3 0-.4.1-1.1.2-2.3.4-3.4.6h-.1c-16.5 3.4-31.4 12.3-42.3 25.6l-2.3 2.8v.2C99.4 224.4 94 239.6 94 256v180c0 23.2 18.8 42 42 42h240c23.2 0 42-18.8 42-42V256zM173.3 151.5h21.6v-15.3h-21.6v15.3zm143.8 0h21.6v-15.3h-21.6v15.3zM403.5 282c0 31.1-24.7 56.6-55.5 57.9v.1c3.3 0 6 2.7 6 6v17h.5c1.1 0 2 .9 2 2v2c0 1.1-.9 2-2 2h-.5v17c0 3.3-2.7 6-6 6v20c0 4.4-3.6 8-8 8h-8c-4.4 0-8-3.6-8-8v-20c-3.3 0-6-2.7-6-6v-17h-.5c-1.1 0-2-.9-2-2v-2c0-1.1.9-2 2-2h.5v-17c0-3.3 2.7-6 6-6H188c3.3 0 6 2.7 6 6v17h.5c1.1 0 2 .9 2 2v2c0 1.1-.9 2-2 2h-.5v17c0 3.3-2.7 6-6 6v20c0 4.4-3.6 8-8 8h-8c-4.4 0-8-3.6-8-8v-20c-3.3 0-6-2.7-6-6v-17h-.5c-1.1 0-2-.9-2-2v-2c0-1.1.9-2 2-2h.5v-17c0-3.3 2.7-6 6-6v-.1c-30.8-1.3-55.5-26.8-55.5-57.9v-49.6c-2.9 7.3-4.5 15.2-4.5 23.6v180c0 17.7 14.3 32 32 32h240c17.7 0 32-14.3 32-32V256c0-8.3-1.6-16.3-4.5-23.6V282zM164 386h24v-17h-24v17zm174.7-270.5h-8.1v4.5h-5.4v-4.5h-8.1v15.3h21.6v-15.3zm-154.2 171c0-4.7-3.8-8.5-8.5-8.5s-8.5 3.8-8.5 8.5 3.8 8.5 8.5 8.5 8.5-3.8 8.5-8.5z"/></svg>