<svg version="1.1" xmlns="http://www.w3.org/2000/svg" x="0" y="0" viewBox="0 0 512 512" xml:space="preserve"><path d="M89 312V200c0-4.4 3.6-8 8-8h232c4.4 0 8 3.6 8 8v112c0 4.4-3.6 8-8 8H97c-4.4 0-8-3.6-8-8zm368-10.5c0 13.5 3.4 24.5 7.5 24.5s7.5-11 7.5-24.5-3.4-24.5-7.5-24.5-7.5 11-7.5 24.5zM512 126v260c0 8.8-7.2 16-16 16H16c-8.8 0-16-7.2-16-16V126c0-8.8 7.2-16 16-16h480c8.8 0 16 7.2 16 16zm-19 83.5c0 .6.4 1 1 1s1-.4 1-1-.4-1-1-1-1 .4-1 1zm-8.3-20.2c.4.4 1 .4 1.4 0 .4-.4.4-1 0-1.4-.4-.4-1-.4-1.4 0-.4.4-.4 1.1 0 1.4zm-21.2-9.3c0 .6.4 1 1 1s1-.4 1-1-.4-1-1-1-1 .4-1 1zm-20.6 9.3c.4.4 1 .4 1.4 0 .4-.4.4-1 0-1.4-.4-.4-1-.4-1.4 0-.4.4-.4 1.1 0 1.4zm-2.9 20.2c0 13.5 11 24.5 24.5 24.5s24.5-11 24.5-24.5-11-24.5-24.5-24.5-24.5 11-24.5 24.5zm0 92c0 13.5 11 24.5 24.5 24.5s24.5-11 24.5-24.5-11-24.5-24.5-24.5-24.5 11-24.5 24.5zm-6-92c0 .6.4 1 1 1s1-.4 1-1-.4-1-1-1-1 .4-1 1zM376 140H15c-4.4 0-8 3.6-8 8v216c0 4.4 3.6 8 8 8h361V140zm43 8c0-4.4-3.6-8-8-8h-2v232h2c4.4 0 8-3.6 8-8V148zm77 153.5c0-17.4-14.1-31.5-31.5-31.5h-.5v2h.5c16.3 0 29.5 13.2 29.5 29.5S480.8 331 464.5 331 435 317.8 435 301.5c0-5.7 1.7-11.1 4.5-15.6l-1.7-1c-3 4.8-4.8 10.5-4.8 16.6 0 17.4 14.1 31.5 31.5 31.5s31.5-14.1 31.5-31.5zM464.5 217c13.5 0 24.5-3.4 24.5-7.5s-11-7.5-24.5-7.5-24.5 3.4-24.5 7.5 11 7.5 24.5 7.5z"/></svg>