<svg version="1.1" xmlns="http://www.w3.org/2000/svg" x="0" y="0" viewBox="0 0 512 512" xml:space="preserve"><path d="M402 22.3c-10.6-3.1-38.8-8-67.9-11.1s-53.7-3.9-63.8-4.6c-1-.1-1.8-.9-1.8-1.9V4c0-2.2-1.8-4-4-4h-17c-2.2 0-4 1.8-4 4v.6c0 1-.8 1.8-1.8 1.8H233S221.5 0 200 0c-20.2 0-87.2 7.1-95.2 7.9h-.7c0 5 4 43 4 43s.4-.1 1.2-.2h.2c.7-.1 1.8-.3 3.1-.5 20.5-3.6 105.1-18.6 108.9-19.5 4.4-1 8.6-3.8 8.6-3.8h11.8c1 0 1.7.8 1.7 1.7V504c0 4.4 3.6 8 8 8h9c4.4 0 8-3.6 8-8V28.7s3.6-1.7 6-1.7 37.8-1.5 58-1.5c16.1 0 54.2-.9 69.3-1.2 1-.1 1.2-1.7.1-2zM256 497.2c-3.1 0-5.6-2.5-5.6-5.6 0-3.1 2.5-5.6 5.6-5.6s5.6 2.5 5.6 5.6c0 3.1-2.5 5.6-5.6 5.6z"/></svg>