<svg version="1.1" xmlns="http://www.w3.org/2000/svg" x="0" y="0" viewBox="0 0 512 512" xml:space="preserve"><path d="M376 338h-81.8v-5.9c0-.3 0-.5-.1-.8-.1-1-.6-2-1.2-2.9-2.6-3.3-8.6-11.3-11.7-17.4-2.9-5.9-7.5-19.8-9.7-26.8-.8-2.5-3.1-4.2-5.7-4.2H263v-52.8c14.3-3.2 25-16 25-31.2V0h-14v196c0 9.9-8.1 18-18 18s-18-8.1-18-18V0h-14v196c0 15.2 10.7 28 25 31.2V280h-2.8c-2.6 0-4.9 1.7-5.7 4.2-2.2 7-6.8 20.9-9.7 26.8-3.1 6.1-9.1 14.1-11.7 17.4-.7.8-1.1 1.8-1.2 2.9 0 .3-.1.5-.1.8v5.9H136v152h12.6l2.8 19.4c.2 1.5 1.5 2.6 3 2.6h20.2c1.5 0 2.7-1.1 3-2.6l2.8-19.4h151.3l2.8 19.4c.2 1.5 1.5 2.6 3 2.6h20.2c1.5 0 2.7-1.1 3-2.6l2.8-19.4H376V338z"/></svg>