<svg version="1.1" xmlns="http://www.w3.org/2000/svg" x="0" y="0" viewBox="0 0 512 512" xml:space="preserve"><path d="M63.3 172.4c13-13 24.4-29.4 32.5-42.3v-.1c1.2-1.9 2.3-3.7 3.3-5.4.5-.8.9-1.6 1.4-2.4.1-.1.1-.2.2-.3l1.2-2.1c.1-.1.1-.2.2-.3.4-.7.8-1.4 1.1-2h1.5c.2 0 .5-.1.7-.1.2 0 .4-.1.6-.1.2 0 .5-.1.7-.2.2 0 .4-.1.6-.1.2-.1.5-.2.7-.2.2-.1.4-.1.6-.2.2-.1.5-.2.7-.3.2-.1.4-.2.5-.3.3-.1.5-.3.7-.4.2-.1.3-.2.5-.3.3-.2.5-.4.8-.6.1-.1.3-.2.4-.3.4-.3.7-.6 1.1-1 2.5-2.5 3.9-5.7 4.1-8.9v-1.4c.6-.4 1.3-.8 2-1.2.1 0 .2-.1.3-.1l2.1-1.2c.1 0 .2-.1.2-.1 2.4-1.4 5-3 7.8-4.7 12.9-8.1 29.3-19.4 42.5-32.5 25.7-25.6 40.1-52.9 32.1-61-8-8-35.3 6.4-61 32.1-10.2 10.2-19.4 22.5-26.8 33.5-2 3.1-4 6-5.7 8.9v.1c-1.7 2.8-3.3 5.4-4.7 7.7-.1.1-.1.2-.2.3l-1.2 2.1c-.1.1-.1.2-.2.3-.4.7-.8 1.3-1.1 2H102c-.2 0-.5.1-.7.1-.2 0-.4.1-.6.1-.2 0-.5.1-.7.2-.2 0-.4.1-.6.1-.2.1-.5.2-.7.2-.2.1-.4.1-.6.2-.2.1-.5.2-.7.3-.2.1-.4.2-.5.2-.3.1-.5.3-.7.4-.2.1-.3.2-.5.3-.3.2-.5.4-.8.6-.1.1-.3.2-.4.3-.4.3-.7.6-1.1 1-.4.3-.7.7-1 1.1-2.2 2.7-3.2 6-3.1 9.2-.6.4-1.3.7-1.9 1.1-.1.1-.2.1-.3.2l-2.1 1.2c-.1.1-.2.1-.3.2-.8.4-1.5.9-2.3 1.4-1.7 1-3.5 2.1-5.4 3.3 0 0-.1 0-.1.1-.9.6-1.9 1.2-2.9 1.8-2 1.3-4 2.6-6.1 4-11 7.4-23.2 16.5-33.4 26.7-25.7 25.7-40.2 53-32.1 61 8 7.9 35.2-6.5 60.9-32.2zm42.9-70.9c.4.5.6 1.2.6 1.9s-.2 1.4-.6 1.9c-.6.9-1.6 1.5-2.8 1.5-1.2 0-2.2-.6-2.8-1.5-.4-.5-.6-1.2-.6-1.9s.2-1.4.6-1.9c.6-.9 1.6-1.5 2.8-1.5 1.2 0 2.2.6 2.8 1.5zm342.6 238C438.6 349.7 429.4 362 422 373c-2.1 3.1-4 6-5.7 8.9v.1c-1.7 2.8-3.3 5.4-4.6 7.7-.1.1-.1.2-.2.3l-1.2 2.1c-.1.1-.1.2-.2.3-.4.7-.8 1.4-1.1 2h-1.5c-.2 0-.5.1-.7.1-.2 0-.4.1-.6.1-.2 0-.5.1-.7.2-.2 0-.4.1-.6.1-.2.1-.5.2-.7.2-.2.1-.4.1-.6.2-.2.1-.5.2-.7.3-.2.1-.4.2-.5.3-.2.1-.5.3-.7.4-.2.1-.3.2-.5.3-.3.2-.5.4-.8.6-.1.1-.3.2-.4.3-.4.3-.7.6-1.1 1-.4.3-.7.7-1 1.1l-.9 1.2c-.5.8-1 1.7-1.3 2.5-.7 1.8-1 3.6-.9 5.5-.6.4-1.3.7-2 1.1-.1.1-.2.1-.3.2l-2.1 1.2c-.1.1-.2.1-.3.2-2.4 1.4-5 3-7.8 4.7 0 0-.1 0-.1.1-.9.6-1.9 1.2-2.9 1.8-2 1.2-4 2.6-6.1 3.9-11 7.4-23.2 16.5-33.5 26.7-25.7 25.7-40.2 53-32.1 61 8 8 35.3-6.4 61-32.1 13-13 24.4-29.4 32.5-42.3 0 0 0-.1.1-.1 1.2-1.9 2.3-3.7 3.3-5.4.5-.8.9-1.6 1.4-2.4.1-.1.1-.2.2-.3l1.2-2.1c.1-.1.1-.2.2-.3.4-.7.8-1.4 1.1-2h1.5c.2 0 .5-.1.7-.1.2 0 .4-.1.6-.1.2 0 .5-.1.7-.2.2 0 .4-.1.6-.1.2-.1.5-.2.7-.2.2-.1.4-.1.6-.2.2-.1.5-.2.7-.3.2-.1.4-.2.5-.3.3-.1.5-.3.7-.4.2-.1.3-.2.5-.3.3-.2.5-.4.8-.6.1-.1.3-.2.4-.3.4-.3.7-.6 1.1-1 2.2-2.1 3.5-4.8 3.9-7.5.2-.9.2-1.9.2-2.8.6-.4 1.3-.7 1.9-1.1.1-.1.2-.1.3-.2l2.1-1.2c.1-.1.2-.1.3-.2 2.4-1.4 5-3 7.7-4.7h.1c2.8-1.8 5.8-3.7 8.9-5.7 11-7.4 23.3-16.6 33.6-26.8 25.7-25.7 40.1-53 32.1-61s-35.3 6.4-61 32.1zm-38.3 71.9l-.6.3c-.4.2-.9.3-1.3.3-.5 0-.9-.1-1.3-.3-1.2-.5-2.1-1.7-2.1-3.1s.9-2.6 2.1-3.1c.4-.2.9-.3 1.3-.3.5 0 .9.1 1.3.3l.6.3c.5.4 1 .9 1.2 1.5.2.4.3.9.3 1.3s-.1.9-.3 1.3c-.2.6-.7 1.2-1.2 1.5zM381.9 95.8c.1 0 .1 0 0 0 1.9 1.2 3.8 2.3 5.5 3.3.8.5 1.6.9 2.4 1.4.1.1.2.1.3.2l2.1 1.2c.1.1.2.1.3.2.7.4 1.4.8 2 1.1 0 1.4.1 2.8.5 4.1.6 2.2 1.8 4.4 3.6 6.2.3.4.7.7 1.1 1 .1.1.3.2.4.3.3.2.5.4.8.6.2.1.3.2.5.3.2.1.5.3.7.4.2.1.4.2.5.3.2.1.5.2.7.3.2.1.4.1.6.2.2.1.5.2.7.2.2.1.4.1.6.1.2.1.5.1.7.2.2 0 .4.1.6.1.2 0 .5.1.7.1h1.5c.4.6.7 1.3 1.1 2 .1.1.1.2.2.3l1.2 2.1c.1.1.1.2.2.3 1.4 2.4 3 5 4.7 7.8 8.1 12.9 19.4 29.3 32.5 42.5 25.7 25.7 53 40.2 61 32.1 8-8.1-6.4-35.3-32.1-61-10.2-10.2-22.5-19.4-33.5-26.8-3.1-2.1-6.1-4-8.9-5.7h-.1c-2.8-1.7-5.4-3.3-7.7-4.7-.1-.1-.2-.1-.3-.2l-2.1-1.2c-.1-.1-.2-.1-.3-.2-.7-.4-1.3-.8-2-1.1.1-3.7-1.3-7.4-4.1-10.3-.3-.4-.7-.7-1.1-1-.1-.1-.3-.2-.4-.3-.3-.2-.5-.4-.8-.6-.2-.1-.3-.2-.5-.3-.2-.1-.5-.3-.7-.4l-.6-.3c-.2-.1-.5-.2-.7-.3-.2-.1-.4-.1-.6-.2-.2-.1-.5-.2-.7-.2-.2-.1-.4-.1-.6-.1-.2-.1-.5-.1-.7-.2-.2 0-.4-.1-.6-.1-.2 0-.5-.1-.7-.1h-1.5c-.4-.6-.7-1.3-1.1-2-.1-.1-.1-.2-.2-.3l-1.2-2.1c-.1-.1-.1-.2-.2-.3-.5-.8-.9-1.6-1.4-2.4-1-1.7-2.1-3.5-3.3-5.4 0 0 0-.1-.1-.1-.6-.9-1.2-1.9-1.8-2.9-1.2-2-2.6-4-3.9-6-7.4-11-16.5-23.2-26.7-33.4-25.7-25.7-53-40.2-61-32.1-8 8 6.4 35.3 32.1 61 13.1 12.9 29.5 24.3 42.4 32.4zm26.7 4.2c.5 0 .9.1 1.3.3l.6.3c.5.4 1 .9 1.2 1.5.2.4.3.9.3 1.3 0 .2 0 .5-.1.7-.1.3-.2.6-.3.8-.3.5-.6 1-1.1 1.3l-.6.3c-.4.2-.9.3-1.3.3-.5 0-.9-.1-1.3-.3-.6-.3-1.1-.7-1.5-1.2-.2-.4-.4-.8-.5-1.2 0-.2-.1-.5-.1-.7 0-1.4.9-2.6 2.1-3.1.4-.2.8-.3 1.3-.3zM130.1 416.2s0-.1 0 0c-2.8-1.8-5.4-3.3-7.8-4.7-.1-.1-.2-.1-.3-.2l-2.1-1.2c-.1-.1-.2-.1-.3-.2-.7-.4-1.3-.8-2-1.1.1-3.7-1.3-7.4-4.1-10.3-.3-.3-.7-.7-1.1-1-.1-.1-.3-.2-.4-.3-.3-.2-.5-.4-.8-.6-.2-.1-.3-.2-.5-.3-.2-.1-.5-.3-.7-.4-.2-.1-.4-.2-.5-.3-.2-.1-.5-.2-.7-.3-.2-.1-.4-.1-.6-.2-.2-.1-.5-.2-.7-.2-.2-.1-.4-.1-.6-.2-.2-.1-.5-.1-.7-.2-.2 0-.4-.1-.6-.1-.2 0-.5-.1-.7-.1h-1.5c-.4-.6-.7-1.3-1.1-2-.1-.1-.1-.2-.2-.3l-1.2-2.1c-.1-.1-.1-.2-.2-.3-1.4-2.4-3-5-4.7-7.7v-.1c-1.8-2.8-3.7-5.8-5.7-8.9-7.4-11-16.5-23.3-26.7-33.5-25.7-25.7-53-40.2-61-32.1-8 8.1 6.4 35.3 32.1 61 13 13 29.4 24.5 42.4 32.5h.1c2.8 1.7 5.4 3.3 7.8 4.7.1.1.2.1.3.2l2.1 1.2c.1.1.2.1.3.2.7.4 1.3.8 2 1.1-.1 3.7 1.3 7.4 4.1 10.3.3.4.7.7 1.1 1 .1.1.3.2.4.3.3.2.5.4.8.6.2.1.3.2.5.3.2.1.5.3.7.4l.6.3c.2.1.5.2.7.3.2.1.4.1.6.2.2.1.5.2.7.2.2.1.4.1.6.1.2.1.5.1.7.2.2 0 .4.1.6.1.2 0 .5.1.7.1h1.5c.4.6.7 1.3 1.1 2 .1.1.1.2.2.3l1.2 2.1c.1.1.1.2.2.3.5.8.9 1.6 1.4 2.4 1 1.7 2.1 3.5 3.3 5.4 0 0 0 .1.1.1 8.1 12.9 19.4 29.3 32.4 42.4 25.7 25.7 53 40.2 61 32.1 8-8-6.4-35.3-32.1-61-13.3-13-29.7-24.5-42.7-32.5zm-26.7-4.2c-1.9 0-3.4-1.5-3.4-3.4s1.5-3.4 3.4-3.4 3.4 1.5 3.4 3.4-1.5 3.4-3.4 3.4zM414.6 80c-2.6-4.5-5.6-9.4-8.9-14.4 1-.1 2-.1 3-.1 21 0 38 17 38 38 0 1 0 2-.1 2.9-5.5-3.6-10.5-6.6-14.4-8.9-1-4.1-3.1-7.9-6.2-11-3.2-3.3-7.1-5.5-11.4-6.5zM309.1 366.9c-14.6-11.5-33.1-18.3-53.1-18.3s-38.4 6.8-53.1 18.3c-2.7 2.1-6.6 1.8-9-.6l-9.9-9.9c-4.3 5.4-7.9 11.4-10.9 17.7l-2.4 8.5c-3.2 11.1-10.9 20.4-21.2 25.5l-7.6 3.8c-5.8-3.8-11-6.9-15.1-9.3-1-4.1-3.1-7.9-6.2-11l-.1-.1-.1-.1c-3.1-3.1-7-5.3-11.2-6.3-2.7-4.7-5.8-9.7-9.3-15l3.8-7.6c5.1-10.3 14.4-18 25.5-21.2l8.5-2.4c6.3-3 12.3-6.6 17.7-10.9l-9.9-9.9c-2.5-2.4-2.7-6.3-.6-9 11.5-14.6 18.3-33.1 18.3-53.1s-6.8-38.4-18.3-53.1c-2.1-2.7-1.8-6.6.6-9l9.9-9.9c-5.4-4.3-11.4-7.9-17.7-10.9l-8.5-2.4c-11.1-3.2-20.4-10.9-25.5-21.2l-3.8-7.6c3.8-5.8 6.9-11 9.3-15.1 4.1-1 7.9-3.1 11-6.2 3.2-3.1 5.4-7 6.5-11.3 4.6-2.7 9.7-5.8 14.9-9.2l7.7 3.8c10.3 5.1 18 14.4 21.2 25.5l2.4 8.5c3 6.3 6.6 12.3 10.9 17.7l9.9-9.9c2.4-2.5 6.3-2.7 9-.6 14.6 11.5 33.1 18.3 53.1 18.3s38.5-6.8 53.1-18.3c2.7-2.1 6.6-1.8 9 .6l9.9 9.9c4.3-5.4 7.9-11.4 10.9-17.7l2.4-8.5c3.2-11.1 10.9-20.4 21.2-25.5l7.6-3.8c5.8 3.8 11 6.9 15.1 9.3 1 4.1 3.1 7.9 6.2 11 3.1 3.2 7 5.4 11.3 6.5 2.7 4.6 5.8 9.6 9.2 14.8l-3.8 7.7c-5.1 10.3-14.4 18-25.5 21.2l-8.5 2.4c-6.3 3-12.3 6.6-17.7 10.9l9.9 9.9c2.5 2.4 2.7 6.3.6 9-11.5 14.6-18.3 33.1-18.3 53.1s6.8 38.4 18.3 53.1c2.1 2.7 1.8 6.6-.6 9l-9.9 9.9c5.4 4.3 11.4 7.9 17.7 10.9l8.5 2.4c11.1 3.2 20.4 10.9 25.5 21.2l3.8 7.7c-3.7 5.7-6.9 10.9-9.2 15-4.1 1-7.9 3.1-11 6.2-3.2 3.1-5.4 7-6.5 11.3-4.7 2.7-9.7 5.9-15 9.3l-7.7-3.8c-10.3-5.1-18-14.4-21.2-25.5l-2.4-8.5c-3-6.3-6.6-12.3-10.9-17.7l-9.9 9.9c-2.2 2.5-6.1 2.7-8.8.6zm137.4 38.7c.1 1 .1 2 .1 3 0 21-17 38-38 38-1 0-1.9 0-2.9-.1 3.6-5.6 6.6-10.6 8.9-14.5 4.1-1 7.9-3.1 11-6.2 3.2-3.1 5.4-7 6.5-11.3 4.5-2.7 9.3-5.6 14.4-8.9zM97.5 432c2.6 4.5 5.6 9.4 8.9 14.4-1 .1-2 .1-3.1.1-21 0-38-17-38-38 0-1 0-2 .1-3 5.5 3.6 10.5 6.6 14.5 8.9 1 4.1 3.1 7.9 6.2 11 3.2 3.4 7.1 5.6 11.4 6.6zm-32-325.6c-.1-1-.1-2-.1-3 0-21 17-38 38-38 1 0 2 0 2.9.1-3.6 5.5-6.6 10.5-8.9 14.4-4.1 1-7.9 3.1-11 6.2-3.2 3.1-5.4 7-6.5 11.3-4.4 2.7-9.3 5.7-14.4 9z"/></svg>