<svg xmlns="http://www.w3.org/2000/svg" viewBox="0 0 512 512" style="enable-background:new 0 0 512 512" xml:space="preserve"><path d="M155.6 79c4.7 0 8.3-1.5 10.8-4.7s3.7-7.7 3.7-13.7v-7.9c0-5.8-1.3-10.2-3.8-13.3-2.5-3.1-6.1-4.6-10.8-4.6s-8.3 1.6-10.8 4.7-3.7 7.7-3.7 13.7v7.9c0 5.8 1.3 10.2 3.8 13.3 2.5 3.1 6.1 4.6 10.8 4.6zm-6.2-27.7c0-3.3.5-5.7 1.5-7.3 1-1.5 2.5-2.3 4.5-2.3 2.1 0 3.6.8 4.6 2.4 1 1.6 1.5 4.2 1.5 7.8h-.1v10.3c-.1 3.4-.6 5.9-1.5 7.5-.9 1.7-2.4 2.5-4.5 2.5s-3.6-.9-4.6-2.6c-.9-1.7-1.4-4.3-1.4-7.8V51.3zm-24.9-5.9-10.2 3.2v-7l17.8-6.4h.9v43.2h-8.5v-33zm262.9 421.1 10.2-3.2v7l-17.8 6.4h-1v-43.2h8.6v33zM398.4 0H113.6c-10.5 0-19 8.5-19 19v474c0 10.5 8.5 19 19 19h284.8c10.5 0 19-8.5 19-19V19c0-10.5-8.5-19-19-19zm3 493c0 1.7-1.3 3-3 3H113.6c-1.7 0-3-1.3-3-3V19c0-1.7 1.3-3 3-3h284.8c1.7 0 3 1.3 3 3v474zm-44.9-60c-4.8 0-8.4 1.6-10.8 4.7-2.5 3.2-3.7 7.7-3.7 13.7v7.9c.1 5.8 1.3 10.2 3.8 13.3 2.5 3.1 6.1 4.6 10.8 4.6 4.7 0 8.3-1.6 10.8-4.7s3.7-7.7 3.7-13.7v-7.9c-.1-5.8-1.3-10.2-3.8-13.3-2.5-3.1-6.1-4.6-10.8-4.6zm6 27.7c-.1 3.3-.6 5.7-1.5 7.3-1 1.6-2.4 2.3-4.5 2.3s-3.6-.8-4.6-2.4-1.5-4.2-1.5-7.8v-10.3h.1c0-3.4.5-5.9 1.5-7.5.9-1.6 2.4-2.5 4.5-2.5s3.6.9 4.6 2.6c1 1.7 1.4 4.3 1.4 7.8v10.5zm13.1-41c0 3.2-2.6 5.8-5.8 5.8s-5.8-2.7-5.8-5.8c0-2.8 3.9-8.4 5.4-9.4v-4h-3c-1 1.5-6.5 5.4-9.4 5.4-3.2 0-5.8-2.6-5.8-5.8s2.7-5.8 5.8-5.8c2.8 0 8.4 3.9 9.4 5.4h3v-.5c-.3-5.3-3.4-9.8-8-11.9h16.8c-4.6 2.1-7.7 6.6-8 11.9v.5h3c1-1.5 6.5-5.4 9.4-5.4 3.2 0 5.8 2.6 5.8 5.8 0 3.2-2.7 5.8-5.8 5.8-2.8 0-8.4-3.9-9.4-5.4h-3v4c1.5 1 5.4 6.5 5.4 9.4zM160.8 106.1c0 3.2-2.6 5.8-5.8 5.8-2.8 0-8.4-3.9-9.4-5.4h-3v.5c.3 5.3 3.4 9.8 8 11.9h-16.8c4.6-2.1 7.7-6.6 8-11.9v-.5h-3c-1 1.5-6.5 5.4-9.4 5.4-3.2 0-5.8-2.6-5.8-5.8 0-3.2 2.7-5.8 5.8-5.8 2.8 0 8.4 3.9 9.4 5.4h3v-4c-1.5-1-5.4-6.5-5.4-9.4 0-3.2 2.6-5.8 5.8-5.8s5.8 2.7 5.8 5.8c0 2.8-3.9 8.4-5.4 9.4v4h3c1-1.5 6.5-5.4 9.4-5.4 3.2 0 5.8 2.6 5.8 5.8zm63.8 42.1c0-5.4 4.4-9.8 9.8-9.8 4.9 0 14.3 6.5 16 9.1h4.9V141c-2.6-1.8-9.1-11.1-9.1-16 0-5.4 4.4-9.8 9.8-9.8s9.8 4.4 9.8 9.8c0 4.9-6.5 14.3-9.1 16v6.6h4.9c1.8-2.6 11.1-9.1 16-9.1 5.4 0 9.8 4.4 9.8 9.8s-4.4 9.8-9.8 9.8c-4.9 0-14.3-6.5-16-9.1h-4.9v.9c.5 9 5.7 16.6 13.5 20.1h-28.4c7.8-3.5 13-11.1 13.5-20.1v-.9h-4.9c-1.8 2.6-11.1 9.1-16 9.1-5.4-.1-9.8-4.5-9.8-9.9zm60-56.7c0-5.4 4.4-9.8 9.8-9.8 4.9 0 14.3 6.5 16 9.1h4.9v-6.6c-2.6-1.8-9.1-11.1-9.1-16 0-5.4 4.4-9.8 9.8-9.8s9.8 4.4 9.8 9.8c0 4.9-6.5 14.3-9.1 16v6.6h4.9c1.8-2.6 11.1-9.1 16-9.1 5.4 0 9.8 4.4 9.8 9.8s-4.4 9.8-9.8 9.8c-4.9 0-14.3-6.5-16-9.1h-4.9v.9c.5 9 5.7 16.6 13.5 20.1h-28.4c7.8-3.5 13-11.1 13.5-20.1v-.9h-4.9c-1.8 2.6-11.1 9.1-16 9.1-5.4-.1-9.8-4.4-9.8-9.8zm62.8 113.4c0 5.4-4.4 9.8-9.8 9.8-4.9 0-14.3-6.5-16-9.1h-4.9v.9c.5 9 5.7 16.6 13.5 20.1h-28.4c7.8-3.5 13-11.1 13.5-20.1v-.9h-4.9c-1.8 2.6-11.1 9.1-16 9.1-5.4 0-9.8-4.4-9.8-9.8s4.4-9.8 9.8-9.8c4.9 0 14.3 6.5 16 9.1h4.9v-6.6c-2.6-1.8-9.1-11.1-9.1-16 0-5.4 4.4-9.8 9.8-9.8s9.8 4.4 9.8 9.8c0 4.9-6.5 14.3-9.1 16v6.6h4.9c1.8-2.6 11.1-9.1 16-9.1 5.4.1 9.8 4.4 9.8 9.8zM196.7 307.7v6.6c2.6 1.8 9.1 11.1 9.1 16 0 5.4-4.4 9.8-9.8 9.8s-9.8-4.4-9.8-9.8c0-4.9 6.5-14.3 9.1-16v-6.6h-4.9c-1.8 2.6-11.1 9.1-16 9.1-5.4 0-9.8-4.4-9.8-9.8s4.4-9.8 9.8-9.8c4.9 0 14.3 6.5 16 9.1h4.9v-.9c-.5-9-5.7-16.6-13.5-20.1h28.4c-7.8 3.5-13 11.1-13.5 20.1v.9h4.9c1.8-2.6 11.1-9.1 16-9.1 5.4 0 9.8 4.4 9.8 9.8s-4.4 9.8-9.8 9.8c-4.9 0-14.3-6.5-16-9.1h-4.9zm120 0v6.6c2.6 1.8 9.1 11.1 9.1 16 0 5.4-4.4 9.8-9.8 9.8s-9.8-4.4-9.8-9.8c0-4.9 6.5-14.3 9.1-16v-6.6h-4.9c-1.8 2.6-11.1 9.1-16 9.1-5.4 0-9.8-4.4-9.8-9.8s4.4-9.8 9.8-9.8c4.9 0 14.3 6.5 16 9.1h4.9v-.9c-.5-9-5.7-16.6-13.5-20.1h28.4c-7.8 3.5-13 11.1-13.5 20.1v.9h4.9c1.8-2.6 11.1-9.1 16-9.1 5.4 0 9.8 4.4 9.8 9.8s-4.4 9.8-9.8 9.8c-4.9 0-14.3-6.5-16-9.1h-4.9zm0 113.5v6.6c2.6 1.8 9.1 11.1 9.1 16 0 5.4-4.4 9.8-9.8 9.8s-9.8-4.4-9.8-9.8c0-4.9 6.5-14.3 9.1-16v-6.6h-4.9c-1.8 2.6-11.1 9.1-16 9.1-5.4 0-9.8-4.4-9.8-9.8s4.4-9.8 9.8-9.8c4.9 0 14.3 6.5 16 9.1h4.9v-.9c-.5-9-5.7-16.6-13.5-20.1h28.4c-7.8 3.5-13 11.1-13.5 20.1v.9h4.9c1.8-2.6 11.1-9.1 16-9.1 5.4 0 9.8 4.4 9.8 9.8s-4.4 9.8-9.8 9.8c-4.9 0-14.3-6.5-16-9.1h-4.9zm-29.3-57.4c0 5.4-4.4 9.8-9.8 9.8-4.9 0-14.3-6.5-16-9.1h-4.9v6.6c2.6 1.8 9.1 11.1 9.1 16 0 5.4-4.4 9.8-9.8 9.8s-9.8-4.4-9.8-9.8c0-4.9 6.5-14.3 9.1-16v-6.6h-4.9c-1.8 2.6-11.1 9.1-16 9.1-5.4 0-9.8-4.4-9.8-9.8s4.4-9.8 9.8-9.8c4.9 0 14.3 6.5 16 9.1h4.9v-.9c-.5-9-5.7-16.6-13.5-20.1h28.4c-7.8 3.5-13 11.1-13.5 20.1v.9h4.9c1.8-2.6 11.1-9.1 16-9.1 5.4 0 9.8 4.4 9.8 9.8zm-92.1-273v-6.6c-2.6-1.8-9.1-11.1-9.1-16 0-5.4 4.4-9.8 9.8-9.8s9.8 4.4 9.8 9.8c0 4.9-6.5 14.3-9.1 16v6.6h4.9c1.8-2.6 11.1-9.1 16-9.1 5.4 0 9.8 4.4 9.8 9.8s-4.4 9.8-9.8 9.8c-4.9 0-14.3-6.5-16-9.1h-4.9v.9c.5 9 5.7 16.6 13.5 20.1h-28.4c7.8-3.5 13-11.1 13.5-20.1v-.9h-4.9c-1.8 2.6-11.1 9.1-16 9.1-5.4 0-9.8-4.4-9.8-9.8s4.4-9.8 9.8-9.8c4.9 0 14.3 6.5 16 9.1h4.9zm32.1 329.7c0 5.4-4.4 9.8-9.8 9.8-4.9 0-14.3-6.5-16-9.1h-4.9v6.6c2.6 1.8 9.1 11.1 9.1 16 0 5.4-4.4 9.8-9.8 9.8s-9.8-4.4-9.8-9.8c0-4.9 6.5-14.3 9.1-16v-6.6h-4.9c-1.8 2.6-11.1 9.1-16 9.1-5.4 0-9.8-4.4-9.8-9.8s4.4-9.8 9.8-9.8c4.9 0 14.3 6.5 16 9.1h4.9v-.9c-.5-9-5.7-16.6-13.5-20.1h28.4c-7.8 3.5-13 11.1-13.5 20.1v.9h4.9c1.8-2.6 11.1-9.1 16-9.1 5.4.1 9.8 4.4 9.8 9.8zm0-215.6c0 5.4-4.4 9.8-9.8 9.8-4.9 0-14.3-6.5-16-9.1h-4.9v.9c.5 9 5.7 16.6 13.5 20.1h-28.4c7.8-3.5 13-11.1 13.5-20.1v-.9h-4.9c-1.8 2.6-11.1 9.1-16 9.1-5.4 0-9.8-4.4-9.8-9.8s4.4-9.8 9.8-9.8c4.9 0 14.3 6.5 16 9.1h4.9v-6.6c-2.6-1.8-9.1-11.1-9.1-16 0-5.4 4.4-9.8 9.8-9.8s9.8 4.4 9.8 9.8c0 4.9-6.5 14.3-9.1 16v6.6h4.9c1.8-2.6 11.1-9.1 16-9.1 5.4.1 9.8 4.4 9.8 9.8z"/></svg>