<svg version="1.1" xmlns="http://www.w3.org/2000/svg" x="0" y="0" viewBox="0 0 512 512" xml:space="preserve"><path d="M398.4 16c1.7 0 3 1.3 3 3v474c0 1.7-1.3 3-3 3H113.6c-1.7 0-3-1.3-3-3V19c0-1.7 1.3-3 3-3h284.8m0-16H113.6c-10.5 0-19 8.5-19 19v474c0 10.5 8.5 19 19 19h284.8c10.5 0 19-8.5 19-19V19c0-10.5-8.5-19-19-19zM142.6 107h-.8c-.3 5.3-3.4 9.8-8 11.9h16.8c-4.6-2.1-7.7-6.6-8-11.9zm0-5.9h-.8v5.9h.8v-5.9zm-.4-14.6c-3.2 0-5.8 2.6-5.8 5.8 0 3.2 4.7 9.6 5.8 9.6 1.1 0 5.8-6.5 5.8-9.6 0-3.2-2.6-5.8-5.8-5.8zm-18.6 19.6c0 3.2 2.6 5.8 5.8 5.8 3.2 0 9.6-4.7 9.6-5.8 0-1.1-6.5-5.8-9.6-5.8-3.2 0-5.8 2.6-5.8 5.8zm31.4-5.8c-3.2 0-9.6 4.7-9.6 5.8 0 1.1 6.5 5.8 9.6 5.8s5.8-2.6 5.8-5.8c0-3.2-2.6-5.8-5.8-5.8zm-11.4 5.4h-5.9v.8h9.1v-.8h-3.2zm234.6 287.4h-16.8c4.6 2.1 7.7 6.6 8 11.9h.8c.3-5.3 3.4-9.8 8-11.9zm-8 11.9h-.8v5.9h.8V405zm5.4 14.7c0-3.2-4.7-9.6-5.8-9.6s-5.8 6.5-5.8 9.6 2.6 5.8 5.8 5.8 5.8-2.6 5.8-5.8zm-18.6-8c3.2 0 9.6-4.7 9.6-5.8s-6.5-5.8-9.6-5.8c-3.2 0-5.8 2.6-5.8 5.8s2.6 5.8 5.8 5.8zm31.4-5.8c0-3.2-2.6-5.8-5.8-5.8s-9.6 4.7-9.6 5.8 6.5 5.8 9.6 5.8 5.8-2.6 5.8-5.8zm-14.1.4v-.8h-9.1v.8h9.1zM225.2 92.5c-5.7 0-16.6 7.6-18.7 10.6h-5.7v-7.6c3-2 10.6-13 10.6-18.7 0-6.3-5.1-11.4-11.4-11.4-6.3 0-11.4 5.1-11.4 11.4 0 5.7 7.6 16.6 10.6 18.7v7.6h-5.7c-2-3-13-10.6-18.7-10.6-6.3 0-11.4 5.1-11.4 11.4 0 6.3 5.1 11.4 11.4 11.4 5.7 0 16.6-7.6 18.7-10.6h5.7v1.1c-.6 10.5-6.7 19.3-15.7 23.4h33c-9.1-4.1-15.2-13-15.7-23.4v-1.1h5.7c2 3 13 10.6 18.7 10.6 6.3 0 11.4-5.1 11.4-11.4 0-6.3-5.1-11.4-11.4-11.4zm111.9 0c-5.7 0-16.6 7.6-18.7 10.6h-5.7v-7.6c3-2 10.6-13 10.6-18.7 0-6.3-5.1-11.4-11.4-11.4s-11.4 5.1-11.4 11.4c0 5.7 7.6 16.6 10.6 18.7v7.6h-5.7c-2-3-13-10.6-18.7-10.6-6.3 0-11.4 5.1-11.4 11.4 0 6.3 5.1 11.4 11.4 11.4 5.7 0 16.6-7.6 18.7-10.6h5.7v1.1c-.6 10.5-6.7 19.3-15.7 23.4h33.1c-9.1-4.1-15.2-13-15.7-23.4v-1.1h5.7c2 3 13 10.6 18.7 10.6 6.3 0 11.4-5.1 11.4-11.4-.1-6.3-5.2-11.4-11.5-11.4zM225.2 198.3c-5.7 0-16.6 7.6-18.7 10.6h-5.7v-7.6c3-2 10.6-13 10.6-18.7 0-6.3-5.1-11.4-11.4-11.4-6.3 0-11.4 5.1-11.4 11.4 0 5.7 7.6 16.6 10.6 18.7v7.6h-5.7c-2-3-13-10.6-18.7-10.6-6.3 0-11.4 5.1-11.4 11.4 0 6.3 5.1 11.4 11.4 11.4 5.7 0 16.6-7.6 18.7-10.6h5.7v1.1c-.6 10.5-6.7 19.3-15.7 23.4h33c-9.1-4.1-15.2-13-15.7-23.4v-1.1h5.7c2 3 13 10.6 18.7 10.6 6.3 0 11.4-5.1 11.4-11.4 0-6.3-5.1-11.4-11.4-11.4zm111.9 0c-5.7 0-16.6 7.6-18.7 10.6h-5.7v-7.6c3-2 10.6-13 10.6-18.7 0-6.3-5.1-11.4-11.4-11.4s-11.4 5.1-11.4 11.4c0 5.7 7.6 16.6 10.6 18.7v7.6h-5.7c-2-3-13-10.6-18.7-10.6-6.3 0-11.4 5.1-11.4 11.4 0 6.3 5.1 11.4 11.4 11.4 5.7 0 16.6-7.6 18.7-10.6h5.7v1.1c-.6 10.5-6.7 19.3-15.7 23.4h33.1c-9.1-4.1-15.2-13-15.7-23.4v-1.1h5.7c2 3 13 10.6 18.7 10.6 6.3 0 11.4-5.1 11.4-11.4-.1-6.3-5.2-11.4-11.5-11.4zM236.6 408.1c0-6.3-5.1-11.4-11.4-11.4-5.7 0-16.6 7.6-18.7 10.6h-5.7v-1.1c.6-10.5 6.7-19.3 15.7-23.4h-33c9.1 4.1 15.2 13 15.7 23.4v1.1h-5.7c-2-3-13-10.6-18.7-10.6-6.3 0-11.4 5.1-11.4 11.4 0 6.3 5.1 11.4 11.4 11.4 5.7 0 16.6-7.6 18.7-10.6h5.7v7.6c-3 2-10.6 13-10.6 18.7 0 6.3 5.1 11.4 11.4 11.4 6.3 0 11.4-5.1 11.4-11.4 0-5.7-7.6-16.6-10.6-18.7v-7.6h5.7c2 3 13 10.6 18.7 10.6 6.3 0 11.4-5.1 11.4-11.4zm111.9 0c0-6.3-5.1-11.4-11.4-11.4-5.7 0-16.6 7.6-18.7 10.6h-5.7v-1.1c.6-10.5 6.7-19.3 15.7-23.4h-32.9c9.1 4.1 15.2 13 15.7 23.4v1.1h-5.7c-2-3-13-10.6-18.7-10.6-6.3 0-11.4 5.1-11.4 11.4 0 6.3 5.1 11.4 11.4 11.4 5.7 0 16.6-7.6 18.7-10.6h5.7v7.6c-3 2-10.6 13-10.6 18.7 0 6.3 5.1 11.4 11.4 11.4s11.4-5.1 11.4-11.4c0-5.7-7.6-16.6-10.6-18.7v-7.6h5.7c2 3 13 10.6 18.7 10.6 6.2 0 11.3-5.1 11.3-11.4zM236.6 302.3c0-6.3-5.1-11.4-11.4-11.4-5.7 0-16.6 7.6-18.7 10.6h-5.7v-1.1c.6-10.5 6.7-19.3 15.7-23.4h-33c9.1 4.1 15.2 13 15.7 23.4v1.1h-5.7c-2-3-13-10.6-18.7-10.6-6.3 0-11.4 5.1-11.4 11.4 0 6.3 5.1 11.4 11.4 11.4 5.7 0 16.6-7.6 18.7-10.6h5.7v7.6c-3 2-10.6 13-10.6 18.7 0 6.3 5.1 11.4 11.4 11.4 6.3 0 11.4-5.1 11.4-11.4 0-5.7-7.6-16.6-10.6-18.7v-7.6h5.7c2 3 13 10.6 18.7 10.6 6.3 0 11.4-5.1 11.4-11.4zm111.9 0c0-6.3-5.1-11.4-11.4-11.4-5.7 0-16.6 7.6-18.7 10.6h-5.7v-1.1c.6-10.5 6.7-19.3 15.7-23.4h-32.9c9.1 4.1 15.2 13 15.7 23.4v1.1h-5.7c-2-3-13-10.6-18.7-10.6-6.3 0-11.4 5.1-11.4 11.4 0 6.3 5.1 11.4 11.4 11.4 5.7 0 16.6-7.6 18.7-10.6h5.7v7.6c-3 2-10.6 13-10.6 18.7 0 6.3 5.1 11.4 11.4 11.4s11.4-5.1 11.4-11.4c0-5.7-7.6-16.6-10.6-18.7v-7.6h5.7c2 3 13 10.6 18.7 10.6 6.2 0 11.3-5.1 11.3-11.4zM155.9 46.7c0 2.1-.5 3.9-1.6 5.6-1 1.6-2.5 2.9-4.3 3.9 2.1 1 3.7 2.4 5 4.2 1.2 1.8 1.8 3.8 1.8 6.2 0 3.8-1.3 6.9-3.9 9.1-2.6 2.2-6.1 3.3-10.6 3.3s-8-1.1-10.7-3.3c-2.6-2.2-3.9-5.2-3.9-9.1 0-2.4.6-4.5 1.8-6.2 1.2-1.8 2.9-3.2 4.9-4.1-1.8-1-3.3-2.3-4.3-3.9s-1.6-3.5-1.6-5.6c0-3.7 1.2-6.6 3.7-8.8 2.4-2.2 5.8-3.3 10-3.3s7.5 1.1 10 3.2c2.4 2.2 3.7 5.1 3.7 8.8zm-7.7 19.2c0-1.9-.5-3.4-1.6-4.5s-2.5-1.7-4.4-1.7c-1.8 0-3.3.6-4.4 1.7-1.1 1.1-1.6 2.6-1.6 4.5 0 1.8.5 3.3 1.6 4.4 1.1 1.1 2.5 1.7 4.4 1.7 1.9 0 3.3-.5 4.4-1.6 1.1-1.1 1.6-2.6 1.6-4.5zm-.9-18.8c0-1.7-.4-3-1.3-4s-2.1-1.5-3.8-1.5c-1.6 0-2.8.5-3.7 1.5-.9 1-1.3 2.3-1.3 4.1 0 1.7.4 3.1 1.3 4.1.9 1 2.1 1.6 3.8 1.6 1.6 0 2.9-.5 3.7-1.6.9-1.1 1.3-2.5 1.3-4.2zm236.1 398c0 2.1-.5 3.9-1.6 5.6-1 1.6-2.5 2.9-4.3 3.9 2.1 1 3.7 2.4 5 4.2 1.2 1.8 1.8 3.8 1.8 6.2 0 3.8-1.3 6.9-3.9 9.1-2.6 2.2-6.1 3.3-10.6 3.3s-8-1.1-10.7-3.3c-2.6-2.2-3.9-5.2-3.9-9.1 0-2.4.6-4.5 1.8-6.2 1.2-1.8 2.9-3.2 4.9-4.1-1.8-1-3.3-2.3-4.3-3.9s-1.6-3.5-1.6-5.6c0-3.7 1.2-6.6 3.7-8.8 2.4-2.2 5.8-3.3 10-3.3s7.5 1.1 10 3.2c2.5 2.2 3.7 5.1 3.7 8.8zm-7.6 19.2c0-1.9-.5-3.4-1.6-4.5s-2.5-1.7-4.4-1.7c-1.8 0-3.3.6-4.4 1.7-1.1 1.1-1.6 2.6-1.6 4.5 0 1.8.5 3.3 1.6 4.4 1.1 1.1 2.5 1.7 4.4 1.7 1.9 0 3.3-.5 4.4-1.6 1-1.1 1.6-2.6 1.6-4.5zm-.9-18.8c0-1.7-.4-3-1.3-4s-2.1-1.5-3.8-1.5c-1.6 0-2.8.5-3.7 1.5-.9 1-1.3 2.3-1.3 4.1 0 1.7.4 3.1 1.3 4.1.9 1 2.1 1.6 3.8 1.6 1.6 0 2.9-.5 3.7-1.6.8-1.1 1.3-2.5 1.3-4.2z"/></svg>