<svg version="1.1" xmlns="http://www.w3.org/2000/svg" x="0" y="0" viewBox="0 0 512 512" xml:space="preserve"><path d="M142.6 107h-.7c-.3 5.3-3.4 9.8-8 11.9h16.8c-4.7-2-7.8-6.6-8.1-11.9zm-.7-5.9h.8v5.9h-.8v-5.9zm6.1-8.8c0 3.2-4.8 9.6-5.8 9.6s-5.8-6.4-5.8-9.6c0-3.2 2.6-5.8 5.8-5.8 3.2.1 5.8 2.6 5.8 5.8zm-18.6 8c3.2 0 9.6 4.8 9.6 5.8s-6.4 5.8-9.6 5.8c-3.2 0-5.8-2.6-5.8-5.8s2.7-5.8 5.8-5.8zm25.6 0c-3.2 0-9.6 4.8-9.6 5.8s6.4 5.8 9.6 5.8c3.2 0 5.8-2.6 5.8-5.8s-2.5-5.8-5.8-5.8zm-11.5 5.4h-5.9v.8h9.1v-.8h-3.2zM370.1 405h-.7c-.3-5.3-3.4-9.8-8-11.9h16.8a13.9 13.9 0 0 0-8.1 11.9zm-.7 0h.8v5.9h-.8V405zm6.2 14.7c0-3.2-4.8-9.6-5.8-9.6s-5.8 6.4-5.8 9.6 2.6 5.8 5.8 5.8c3.1 0 5.8-2.6 5.8-5.8zm-18.6-7.9c3.2 0 9.6-4.8 9.6-5.8s-6.4-5.8-9.6-5.8c-3.2 0-5.8 2.6-5.8 5.8 0 3.1 2.5 5.8 5.8 5.8zm25.6 0c-3.2 0-9.6-4.8-9.6-5.8s6.4-5.8 9.6-5.8 5.8 2.6 5.8 5.8c-.1 3.1-2.7 5.8-5.8 5.8zm-146-3.6c0 6.2-5 11.3-11.4 11.3-5.7 0-16.6-7.6-18.7-10.6h-5.8v7.6c3 2.1 10.6 13 10.6 18.7 0 6.3-5.1 11.4-11.4 11.4-6.3 0-11.4-5.1-11.4-11.4 0-5.7 7.6-16.6 10.6-18.7V409h-5.8c-2.1 3-13 10.6-18.7 10.6-6.3 0-11.4-5.1-11.4-11.4 0-6.3 5.1-11.4 11.4-11.4 5.7 0 16.6 7.6 18.7 10.6h5.8v-1c-.6-10.4-6.7-19.3-15.8-23.4h33c-9 4.1-15.2 13-15.8 23.4v1h5.8c2.1-3 13-10.6 18.7-10.6 6.6 0 11.6 5.2 11.6 11.4zm134.5-1.9h-5.9v-.8h9.1v.8h-3.2zM150 56.2c1.8-1 3.3-2.3 4.3-3.9 1-1.7 1.6-3.5 1.6-5.6 0-3.7-1.2-6.6-3.6-8.7-2.5-2.1-5.8-3.3-10-3.3s-7.6 1.1-10 3.3c-2.4 2.1-3.6 5.1-3.6 8.8 0 2.1.6 4 1.6 5.6 1 1.7 2.4 3 4.3 3.9-2.1.9-3.7 2.3-4.9 4.1-1.2 1.8-1.9 3.8-1.9 6.2 0 3.8 1.3 6.8 3.9 9 2.6 2.2 6.2 3.4 10.6 3.4 4.5 0 8-1.1 10.6-3.4 2.6-2.2 3.9-5.2 3.9-9 0-2.4-.7-4.5-1.9-6.2-1.2-1.7-2.9-3.1-4.9-4.2zm-11.4-13.1c.9-1 2.1-1.5 3.7-1.5s2.8.5 3.7 1.5c.8 1 1.3 2.3 1.3 4 0 1.8-.5 3.1-1.3 4.2-.8 1-2.1 1.6-3.7 1.6s-2.8-.6-3.7-1.6c-.8-1-1.3-2.4-1.3-4.1 0-1.8.4-3.1 1.3-4.1zm8.1 27.4c-1.1 1-2.5 1.6-4.4 1.6-2 0-3.5-.6-4.5-1.7s-1.6-2.6-1.6-4.5.5-3.4 1.6-4.5 2.6-1.7 4.4-1.7c1.9 0 3.3.6 4.4 1.7 1 1.1 1.6 2.6 1.6 4.5s-.6 3.4-1.5 4.6zm89.9 231.9c0 6.2-5 11.4-11.4 11.4-5.7 0-16.6-7.6-18.7-10.6h-5.8v7.6c3 2.1 10.6 13 10.6 18.7 0 6.3-5.1 11.4-11.4 11.4-6.3 0-11.4-5.1-11.4-11.4 0-5.7 7.6-16.6 10.6-18.7v-7.6h-5.8c-2.1 3-13 10.6-18.7 10.6-6.3 0-11.4-5.1-11.4-11.4 0-6.3 5.1-11.4 11.4-11.4 5.7 0 16.6 7.6 18.7 10.6h5.8v-1c-.6-10.4-6.7-19.3-15.8-23.4h33c-9 4.1-15.2 13-15.8 23.4v1h5.8c2.1-3 13-10.6 18.7-10.6 6.6 0 11.6 5.1 11.6 11.4zm111.9 105.8c0 6.2-5 11.3-11.4 11.3-5.7 0-16.6-7.6-18.7-10.6h-5.8v7.6c3 2.1 10.6 13 10.6 18.7 0 6.3-5.1 11.4-11.4 11.4-6.2 0-11.4-5.1-11.4-11.4 0-5.7 7.6-16.6 10.6-18.7V409h-5.8c-2.1 3-13 10.6-18.7 10.6-6.3 0-11.4-5.1-11.4-11.4 0-6.3 5.1-11.4 11.4-11.4 5.7 0 16.6 7.6 18.7 10.6h5.8v-1c-.6-10.4-6.7-19.3-15.8-23.4h33c-9 4.1-15.2 13-15.8 23.4v1h5.8c2.1-3 13-10.6 18.7-10.6 6.6 0 11.6 5.2 11.6 11.4zm0-304.4c0 6.2-5 11.4-11.4 11.4-5.7 0-16.6-7.6-18.7-10.6h-5.8v1c.6 10.4 6.7 19.3 15.8 23.4h-33c9-4.1 15.2-13 15.8-23.4v-1h-5.8c-2.1 3.1-13 10.6-18.7 10.6-6.2 0-11.4-5-11.4-11.4 0-6.2 5-11.4 11.4-11.4 5.7 0 16.6 7.6 18.7 10.6h5.8v-7.6c-3.1-2.1-10.6-13-10.6-18.7 0-6.2 5.1-11.4 11.4-11.4 6.2 0 11.4 5 11.4 11.4 0 5.7-7.6 16.6-10.6 18.7v7.6h5.8c2.1-3.1 13-10.6 18.7-10.6 6.2.1 11.2 5.2 11.2 11.4zm0 105.9c0 6.2-5 11.4-11.4 11.4-5.7 0-16.6-7.6-18.7-10.6h-5.8v1c.6 10.4 6.7 19.3 15.8 23.4h-33c9-4.1 15.2-13 15.8-23.4v-1h-5.8c-2.1 3.1-13 10.6-18.7 10.6-6.2 0-11.4-5-11.4-11.4 0-6.2 5-11.4 11.4-11.4 5.7 0 16.6 7.6 18.7 10.6h5.8v-7.6c-3.1-2.1-10.6-13-10.6-18.7 0-6.2 5.1-11.4 11.4-11.4 6.2 0 11.4 5 11.4 11.4 0 5.7-7.6 16.6-10.6 18.7v7.6h5.8c2.1-3.1 13-10.6 18.7-10.6 6.2 0 11.2 5.1 11.2 11.4zm35.8 235.9c0-3.8-1.3-6.8-3.9-9-2.6-2.2-6.2-3.4-10.6-3.4s-8 1.1-10.6 3.4c-2.6 2.2-3.9 5.2-3.9 9 0 2.4.7 4.5 1.9 6.2 1.2 1.8 2.9 3.2 4.9 4.1-1.9.9-3.3 2.2-4.3 3.9-1 1.6-1.6 3.5-1.6 5.6 0 3.6 1.2 6.6 3.6 8.8 2.4 2.1 5.8 3.3 10 3.3s7.5-1.1 10-3.3c2.4-2.1 3.6-4.9 3.6-8.7 0-2.1-.6-3.9-1.6-5.6-1-1.6-2.5-2.9-4.3-3.9 2.1-1 3.7-2.4 4.9-4.2 1.3-1.7 1.9-3.8 1.9-6.2zm-19.5 19.5c0-1.7.5-3.1 1.3-4.1.9-1 2.1-1.6 3.7-1.6s2.9.6 3.7 1.6c.8 1.1 1.3 2.4 1.3 4.2 0 1.7-.5 3-1.3 4-.9 1-2.1 1.5-3.7 1.5s-2.8-.5-3.7-1.5c-.9-1-1.3-2.3-1.3-4.1zm10.9-18.7c0 1.9-.6 3.4-1.6 4.5-1.1 1.1-2.5 1.7-4.4 1.7-1.8 0-3.3-.6-4.4-1.7-1.1-1.1-1.6-2.6-1.6-4.5s.6-3.4 1.6-4.5 2.5-1.7 4.5-1.7c1.9 0 3.3.6 4.4 1.6 1 1.2 1.5 2.7 1.5 4.6zM236.6 103.8c0 6.2-5 11.4-11.4 11.4-5.7 0-16.6-7.6-18.7-10.6h-5.8v1c.6 10.4 6.7 19.3 15.8 23.4h-33c9-4.1 15.2-13 15.8-23.4v-1h-5.8c-2.1 3.1-13 10.6-18.7 10.6-6.2 0-11.4-5-11.4-11.4 0-6.2 5-11.4 11.4-11.4 5.7 0 16.6 7.6 18.7 10.6h5.8v-7.6c-3.1-2.1-10.6-13-10.6-18.7 0-6.2 5-11.4 11.4-11.4 6.2 0 11.4 5 11.4 11.4 0 5.7-7.6 16.6-10.6 18.7v7.6h5.8c2.1-3.1 13-10.6 18.7-10.6 6.2.1 11.2 5.2 11.2 11.4zm111.9 198.6c0 6.2-5 11.4-11.4 11.4-5.7 0-16.6-7.6-18.7-10.6h-5.8v7.6c3 2.1 10.6 13 10.6 18.7 0 6.3-5.1 11.4-11.4 11.4-6.2 0-11.4-5.1-11.4-11.4 0-5.7 7.6-16.6 10.6-18.7v-7.6h-5.8c-2.1 3-13 10.6-18.7 10.6-6.3 0-11.4-5.1-11.4-11.4 0-6.3 5.1-11.4 11.4-11.4 5.7 0 16.6 7.6 18.7 10.6h5.8v-1c-.6-10.4-6.7-19.3-15.8-23.4h33c-9 4.1-15.2 13-15.8 23.4v1h5.8c2.1-3 13-10.6 18.7-10.6 6.6 0 11.6 5.1 11.6 11.4zm-111.9-92.7c0 6.2-5 11.4-11.4 11.4-5.7 0-16.6-7.6-18.7-10.6h-5.8v1c.6 10.4 6.7 19.3 15.8 23.4h-33c9-4.1 15.2-13 15.8-23.4v-1h-5.8c-2.1 3.1-13 10.6-18.7 10.6-6.2 0-11.4-5-11.4-11.4 0-6.2 5-11.4 11.4-11.4 5.7 0 16.6 7.6 18.7 10.6h5.8v-7.6c-3.1-2.1-10.6-13-10.6-18.7 0-6.2 5-11.4 11.4-11.4 6.2 0 11.4 5 11.4 11.4 0 5.7-7.6 16.6-10.6 18.7v7.6h5.8c2.1-3.1 13-10.6 18.7-10.6 6.2 0 11.2 5.1 11.2 11.4zM398.4 16c1.7 0 3 1.3 3 3v474c0 1.7-1.3 3-3 3H113.6c-1.7 0-3-1.3-3-3V19c0-1.7 1.3-3 3-3h284.8m0-16H113.6c-10.5 0-19 8.5-19 19v474c0 10.5 8.5 19 19 19h284.8c10.5 0 19-8.5 19-19V19c0-10.5-8.5-19-19-19z"/></svg>