<svg version="1.1" xmlns="http://www.w3.org/2000/svg" x="0" y="0" viewBox="0 0 512 512" xml:space="preserve"><path d="M398.4 16c1.7 0 3 1.3 3 3v474c0 1.7-1.3 3-3 3H113.6c-1.7 0-3-1.3-3-3V19c0-1.7 1.3-3 3-3h284.8m0-16H113.6c-10.5 0-19 8.5-19 19v474c0 10.5 8.5 19 19 19h284.8c10.5 0 19-8.5 19-19V19c0-10.5-8.5-19-19-19zm-19.5 433.6h8.6v33l10.2-3.2v7l-17.8 6.4h-.9v-43.2zm-37 17.8c0-6 1.2-10.5 3.7-13.7 2.5-3.2 6.1-4.7 10.8-4.7 4.7 0 8.3 1.5 10.8 4.6 2.5 3.1 3.8 7.5 3.8 13.3v7.9c0 6-1.2 10.6-3.7 13.7-2.5 3.1-6.1 4.7-10.8 4.7-4.7 0-8.3-1.5-10.8-4.6-2.5-3.1-3.8-7.5-3.8-13.3v-7.9zm8.6 8.7c0 3.6.5 6.2 1.5 7.8 1 1.6 2.5 2.4 4.6 2.4 2 0 3.5-.8 4.5-2.3 1-1.6 1.5-4 1.5-7.3v-10.5c0-3.5-.5-6.1-1.4-7.8-1-1.7-2.5-2.6-4.6-2.6-2.1 0-3.6.8-4.5 2.5-.9 1.6-1.4 4.1-1.5 7.5v10.3zM133.1 78.4h-8.6v-33l-10.2 3.2v-7l17.8-6.4h.9v43.2zm37-17.8c0 6-1.2 10.5-3.7 13.7-2.5 3.2-6.1 4.7-10.8 4.7-4.7 0-8.3-1.5-10.8-4.6-2.5-3.1-3.8-7.5-3.8-13.3v-7.9c0-6 1.2-10.6 3.7-13.7 2.5-3.1 6.1-4.7 10.8-4.7 4.7 0 8.3 1.5 10.8 4.6 2.5 3.1 3.8 7.5 3.8 13.3v7.9zm-8.6-8.7c0-3.6-.5-6.2-1.5-7.8-1-1.6-2.5-2.4-4.6-2.4-2 0-3.5.8-4.5 2.3-1 1.6-1.5 4-1.5 7.3v10.5c0 3.5.5 6.1 1.4 7.8 1 1.7 2.5 2.6 4.6 2.6 2.1 0 3.6-.8 4.5-2.5.9-1.6 1.4-4.1 1.5-7.5V51.9zm-19.3 40.2c-11.7-12.8-21.8-.7-15.1 7.4.5.6 1.1 1.2 1.8 1.7 2.9 2.2 4.2 3.6 7.4 7.1 3.4 3.8 5.9 10.7 5.9 10.7s2.5-6.9 5.9-10.7c3.2-3.5 4.5-4.9 7.4-7.1.6-.5 1.3-1 1.8-1.7 6.7-8.1-3.4-20.2-15.1-7.4zm242.6 320.4c-.5-.6-1.1-1.2-1.8-1.7-2.9-2.2-4.2-3.6-7.4-7.1-3.4-3.8-5.9-10.7-5.9-10.7s-2.5 6.9-5.9 10.7c-3.2 3.5-4.5 4.9-7.4 7.1-.6.5-1.3 1-1.8 1.7-6.8 8.1 3.4 20.2 15.1 7.4 11.7 12.8 21.9.7 15.1-7.4zM200 77.6c-21.6-23.7-40.4-1.4-27.9 13.7 1 1.2 2.1 2.2 3.3 3.1 5.4 4.1 7.8 6.6 13.7 13.2 6.3 7 11 19.8 11 19.8s4.7-12.7 11-19.8c5.8-6.6 8.3-9.1 13.7-13.2 1.2-.9 2.3-1.9 3.3-3.1 12.4-15-6.4-37.4-28.1-13.7zm112 0c-21.6-23.7-40.4-1.4-27.9 13.7 1 1.2 2.1 2.2 3.3 3.1 5.4 4.1 7.8 6.6 13.7 13.2 6.3 7 11 19.8 11 19.8s4.7-12.7 11-19.8c5.8-6.6 8.3-9.1 13.7-13.2 1.2-.9 2.3-1.9 3.3-3.1 12.3-15-6.5-37.4-28.1-13.7zm-56 52.9c-21.6-23.7-40.4-1.4-27.9 13.7 1 1.2 2.1 2.2 3.3 3.1 5.4 4.1 7.8 6.6 13.7 13.2 6.3 7 11 19.8 11 19.8s4.7-12.7 11-19.8c5.8-6.6 8.3-9.1 13.7-13.2 1.2-.9 2.3-1.9 3.3-3.1 12.3-15-6.5-37.4-28.1-13.7zm-56 52.9c-21.6-23.7-40.4-1.4-27.9 13.7 1 1.2 2.1 2.2 3.3 3.1 5.4 4.1 7.8 6.6 13.7 13.2 6.3 7 11 19.8 11 19.8s4.7-12.7 11-19.8c5.8-6.6 8.3-9.1 13.7-13.2 1.2-.9 2.3-1.9 3.3-3.1 12.4-15-6.4-37.4-28.1-13.7zm112 0c-21.6-23.7-40.4-1.4-27.9 13.7 1 1.2 2.1 2.2 3.3 3.1 5.4 4.1 7.8 6.6 13.7 13.2 6.3 7 11 19.8 11 19.8s4.7-12.7 11-19.8c5.8-6.6 8.3-9.1 13.7-13.2 1.2-.9 2.3-1.9 3.3-3.1 12.3-15-6.5-37.4-28.1-13.7zm-84 237.3c-1-1.2-2.1-2.2-3.3-3.1-5.4-4.1-7.8-6.6-13.7-13.2-6.3-7-11-19.8-11-19.8s-4.7 12.7-11 19.8c-5.8 6.6-8.3 9.1-13.7 13.2-1.2.9-2.3 1.9-3.3 3.1-12.5 15 6.3 37.4 27.9 13.7 21.8 23.7 40.6 1.3 28.1-13.7zm111.9 0c-1-1.2-2.1-2.2-3.3-3.1-5.4-4.1-7.8-6.6-13.7-13.2-6.3-7-11-19.8-11-19.8s-4.7 12.7-11 19.8c-5.8 6.6-8.3 9.1-13.7 13.2-1.2.9-2.3 1.9-3.3 3.1-12.5 15 6.3 37.4 27.9 13.7 21.8 23.7 40.6 1.3 28.1-13.7zM228 314.9c-1-1.2-2.1-2.2-3.3-3.1-5.4-4.1-7.8-6.6-13.7-13.2-6.3-7-11-19.8-11-19.8s-4.7 12.7-11 19.8c-5.8 6.6-8.3 9.1-13.7 13.2-1.2.9-2.3 1.9-3.3 3.1-12.5 15 6.3 37.4 27.9 13.7 21.8 23.7 40.6 1.3 28.1-13.7zm111.9 0c-1-1.2-2.1-2.2-3.3-3.1-5.4-4.1-7.8-6.6-13.7-13.2-6.3-7-11-19.8-11-19.8s-4.7 12.7-11 19.8c-5.8 6.6-8.3 9.1-13.7 13.2-1.2.9-2.3 1.9-3.3 3.1-12.5 15 6.3 37.4 27.9 13.7 21.8 23.7 40.6 1.3 28.1-13.7zm-56 52.9c-1-1.2-2.1-2.2-3.3-3.1-5.4-4.1-7.8-6.6-13.7-13.2-6.3-7-11-19.8-11-19.8s-4.7 12.7-11 19.8c-5.8 6.6-8.3 9.1-13.7 13.2-1.2.9-2.3 1.9-3.3 3.1-12.5 15 6.3 37.4 27.9 13.7 21.8 23.7 40.6 1.3 28.1-13.7z"/></svg>