<svg xmlns="http://www.w3.org/2000/svg" viewBox="0 0 512 512" style="enable-background:new 0 0 512 512" xml:space="preserve"><path d="M124.6 78.5v-33l-10.2 3.2v-7l17.8-6.4h.9v43.2h-8.5zm31.1 22.2c-3-1.8-4.3-2.8-7.5-5.7-3.4-3-6-8.5-6-8.5s-2.6 5.5-6 8.5c-3.2 2.8-4.5 3.9-7.5 5.7-.7.4-1.3.8-1.8 1.3-6.8 6.4 3.2 15.9 14.9 6.2-.7 4.8-3.8 8.8-8.1 10.7h16.8c-4.3-1.9-7.4-5.9-8.1-10.7 11.7 9.7 21.7.2 14.9-6.2-.3-.5-.9-.9-1.6-1.3zm231.8 332.8h-8.6v43.2h.9l17.8-6.4v-7l-10.1 3.2v-33zm-2.4-23.5c6.8-6.4-3.2-15.9-14.9-6.2.7-4.8 3.8-8.8 8.1-10.7h-16.8c4.3 1.9 7.4 5.9 8.1 10.7-11.7-9.7-21.7-.2-14.9 6.2.5.5 1.1.9 1.8 1.3 3 1.8 4.3 2.8 7.5 5.7 3.4 3 6 8.5 6 8.5s2.6-5.5 6-8.5c3.2-2.8 4.5-3.9 7.5-5.7.4-.4 1-.8 1.6-1.3zm32.3-391v474c0 10.5-8.5 19-19 19H113.6c-10.5 0-19-8.5-19-19V19c0-10.5 8.5-19 19-19h284.8c10.5 0 19 8.5 19 19zm-16 0c0-1.7-1.3-3-3-3H113.6c-1.7 0-3 1.3-3 3v474c0 1.7 1.3 3 3 3h284.8c1.7 0 3-1.3 3-3V19zm-34.2 418.6c2.5 3.1 3.8 7.5 3.8 13.3v7.9c0 6-1.2 10.6-3.7 13.7-2.5 3.1-6.1 4.7-10.8 4.7-4.7 0-8.3-1.5-10.8-4.6-2.5-3.1-3.8-7.5-3.8-13.3v-7.9c0-6 1.2-10.5 3.7-13.7s6.1-4.7 10.8-4.7 8.3 1.5 10.8 4.6zm-4.6 12.7c-.1-3.5-.6-6.1-1.5-7.8-1-1.7-2.5-2.6-4.6-2.6-2.1 0-3.6.8-4.5 2.5-.9 1.6-1.4 4.1-1.5 7.5v10.3c0 3.6.5 6.2 1.5 7.8s2.5 2.4 4.6 2.4c2 0 3.5-.8 4.5-2.3 1-1.6 1.5-4 1.5-7.3v-10.5zM166.3 39.4c2.5 3.1 3.8 7.5 3.8 13.3v7.9c0 6-1.2 10.5-3.7 13.7s-6.1 4.7-10.8 4.7c-4.7 0-8.3-1.5-10.8-4.6-2.5-3.1-3.8-7.5-3.8-13.3v-7.9c0-6 1.2-10.6 3.7-13.7s6.1-4.7 10.8-4.7 8.3 1.5 10.8 4.6zm-4.8 12.5c0-3.6-.5-6.2-1.5-7.8-1-1.6-2.5-2.4-4.6-2.4-2 0-3.5.8-4.5 2.3-1 1.6-1.5 4-1.5 7.3v10.5c0 3.5.5 6.1 1.4 7.8 1 1.7 2.5 2.6 4.6 2.6 2.1 0 3.6-.8 4.5-2.5.9-1.6 1.4-4.1 1.5-7.5l.1-10.3zm59.1 39.2c-4.7-2.8-6.9-4.6-12-9.1-5.5-4.9-9.6-13.6-9.6-13.6s-4.1 8.8-9.6 13.6c-5.1 4.5-7.3 6.3-12 9.1-1 .6-2 1.3-2.9 2.1-10.9 10.3 5.2 25.5 24 9.9-1.1 7.7-6.1 14.1-12.9 17.2h27c-6.8-3.1-11.8-9.5-12.9-17.2 18.8 15.6 34.9.4 24-9.9-1-.8-2-1.5-3.1-2.1zm114 0c-4.7-2.8-6.9-4.6-12-9.1-5.5-4.9-9.6-13.6-9.6-13.6s-4.1 8.8-9.6 13.6c-5.1 4.5-7.3 6.3-12 9.1-1 .6-2 1.3-2.9 2.1-10.9 10.3 5.2 25.5 24 9.9-1.1 7.7-6.1 14.1-12.9 17.2h27c-6.8-3.1-11.8-9.5-12.9-17.2 18.8 15.6 34.9.4 24-9.9-1-.8-2-1.5-3.1-2.1zm-57 53.9c-4.7-2.8-6.9-4.6-12-9.1-5.5-4.9-9.6-13.6-9.6-13.6s-4.1 8.8-9.6 13.6c-5.1 4.5-7.3 6.3-12 9.1-1 .6-2 1.3-2.9 2.1-10.9 10.3 5.2 25.5 24 9.9-1.1 7.7-6.1 14.1-12.9 17.2h27c-6.8-3.1-11.8-9.5-12.9-17.2 18.8 15.6 34.9.4 24-9.9-1-.8-2-1.5-3.1-2.1zm-57 53.9c-4.7-2.8-6.9-4.6-12-9.1-5.5-4.9-9.6-13.6-9.6-13.6s-4.1 8.8-9.6 13.6c-5.1 4.5-7.3 6.3-12 9.1-1 .6-2 1.3-2.9 2.1-10.9 10.3 5.2 25.5 24 9.9-1.1 7.7-6.1 14.1-12.9 17.2h27c-6.8-3.1-11.8-9.5-12.9-17.2 18.8 15.6 34.9.4 24-9.9-1-.8-2-1.5-3.1-2.1zm114 0c-4.7-2.8-6.9-4.6-12-9.1-5.5-4.9-9.6-13.6-9.6-13.6s-4.1 8.8-9.6 13.6c-5.1 4.5-7.3 6.3-12 9.1-1 .6-2 1.3-2.9 2.1-10.9 10.3 5.2 25.5 24 9.9-1.1 7.7-6.1 14.1-12.9 17.2h27c-6.8-3.1-11.8-9.5-12.9-17.2 18.8 15.6 34.9.4 24-9.9-1-.8-2-1.5-3.1-2.1zm-21 210c1.1-7.7 6.1-14.1 12.9-17.2h-27c6.8 3.1 11.8 9.5 12.9 17.2-18.8-15.6-34.9-.4-24 9.9.8.8 1.8 1.5 2.9 2.1 4.7 2.8 6.9 4.6 12 9.1 5.5 4.9 9.6 13.6 9.6 13.6s4.1-8.8 9.6-13.6c5.1-4.5 7.3-6.3 12-9.1 1-.6 2-1.3 2.9-2.1 11-10.3-5.1-25.5-23.8-9.9zm-114 0c1.1-7.7 6.1-14.1 12.9-17.2h-27c6.8 3.1 11.8 9.5 12.9 17.2-18.8-15.6-34.9-.4-24 9.9.8.8 1.8 1.5 2.9 2.1 4.7 2.8 6.9 4.6 12 9.1 5.5 4.9 9.6 13.6 9.6 13.6s4.1-8.8 9.6-13.6c5.1-4.5 7.3-6.3 12-9.1 1-.6 2-1.3 2.9-2.1 11-10.3-5.1-25.5-23.8-9.9zm57-53.9c1.1-7.7 6.1-14.1 12.9-17.2h-27c6.8 3.1 11.8 9.5 12.9 17.2-18.8-15.6-34.9-.4-24 9.9.8.8 1.8 1.5 2.9 2.1 4.7 2.8 6.9 4.6 12 9.1 5.5 4.9 9.6 13.6 9.6 13.6s4.1-8.8 9.6-13.6c5.1-4.5 7.3-6.3 12-9.1 1-.6 2-1.3 2.9-2.1 11-10.3-5.1-25.5-23.8-9.9zm57-53.9c1.1-7.7 6.1-14.1 12.9-17.2h-27c6.8 3.1 11.8 9.5 12.9 17.2-18.8-15.6-34.9-.4-24 9.9.8.8 1.8 1.5 2.9 2.1 4.7 2.8 6.9 4.6 12 9.1 5.5 4.9 9.6 13.6 9.6 13.6s4.1-8.8 9.6-13.6c5.1-4.5 7.3-6.3 12-9.1 1-.6 2-1.3 2.9-2.1 11-10.3-5.1-25.5-23.8-9.9zm-114 0c1.1-7.7 6.1-14.1 12.9-17.2h-27c6.8 3.1 11.8 9.5 12.9 17.2-18.8-15.6-34.9-.4-24 9.9.8.8 1.8 1.5 2.9 2.1 4.7 2.8 6.9 4.6 12 9.1 5.5 4.9 9.6 13.6 9.6 13.6s4.1-8.8 9.6-13.6c5.1-4.5 7.3-6.3 12-9.1 1-.6 2-1.3 2.9-2.1 11-10.3-5.1-25.5-23.8-9.9z"/></svg>