<svg version="1.1" xmlns="http://www.w3.org/2000/svg" x="0" y="0" viewBox="0 0 512 512" xml:space="preserve"><path d="M398.4 16c1.7 0 3 1.3 3 3v474c0 1.7-1.3 3-3 3H113.6c-1.7 0-3-1.3-3-3V19c0-1.7 1.3-3 3-3h284.8m0-16H113.6c-10.5 0-19 8.5-19 19v474c0 10.5 8.5 19 19 19h284.8c10.5 0 19-8.5 19-19V19c0-10.5-8.5-19-19-19zM126 102.7c6.8 3.8 12.4 9.4 16.2 16.2 3.8-6.8 9.4-12.4 16.2-16.2-3.3-1.9-6.3-4.1-8.9-6.7-2.8-2.8-5.3-6-7.3-9.5-3.8 6.8-9.4 12.4-16.2 16.2zm260 306.6c-3.3-1.9-6.3-4.1-8.9-6.7-2.8-2.8-5.3-6-7.3-9.5-3.8 6.8-9.4 12.4-16.2 16.2 6.8 3.8 12.4 9.4 16.2 16.2 3.8-6.8 9.4-12.4 16.2-16.2zM163.5 97.5c15.3 8.7 27.9 21.3 36.6 36.6 8.7-15.3 21.3-27.9 36.6-36.6-7.3-4.1-13.9-9.1-19.9-14.9-6.5-6.4-12.2-13.7-16.7-21.7-8.7 15.2-21.4 27.9-36.6 36.6zm111.9 0c15.3 8.7 27.9 21.3 36.6 36.6 8.7-15.3 21.3-27.9 36.6-36.6-7.2-4.1-13.9-9.1-19.8-14.9-6.6-6.4-12.2-13.7-16.8-21.7-8.7 15.2-21.4 27.9-36.6 36.6zM163.5 209.4c15.3 8.7 27.9 21.3 36.6 36.6 8.7-15.3 21.3-27.9 36.6-36.6-7.4-4.2-14.3-9.4-20.3-15.4-6.3-6.3-11.8-13.4-16.3-21.2-8.7 15.2-21.4 27.9-36.6 36.6zm111.9 0c15.3 8.7 27.9 21.3 36.6 36.6 8.7-15.3 21.3-27.9 36.6-36.6-7.2-4.1-13.8-9.1-19.7-14.8-6.6-6.4-12.3-13.7-16.8-21.8-8.8 15.2-21.5 27.9-36.7 36.6zm-111.9 93.2c15.3 8.7 27.9 21.3 36.6 36.6 8.7-15.3 21.3-27.9 36.6-36.6-7.9-4.5-15.1-10-21.4-16.4-5.9-6-11-12.8-15.2-20.1-8.7 15.2-21.4 27.9-36.6 36.5zm111.9 0c15.3 8.7 27.9 21.3 36.6 36.6 8.7-15.3 21.3-27.9 36.6-36.6-7.9-4.5-15-10-21.3-16.4-5.9-6-11.1-12.8-15.2-20.2-8.8 15.3-21.5 28-36.7 36.6zM163.5 414.5c15.3 8.7 27.9 21.3 36.6 36.6 8.7-15.3 21.3-27.9 36.6-36.6-8.2-4.7-15.7-10.5-22.1-17.2-5.6-5.8-10.4-12.3-14.5-19.4-8.7 15.3-21.4 28-36.6 36.6zm111.9 0c15.3 8.7 27.9 21.3 36.6 36.6 8.7-15.3 21.3-27.9 36.6-36.6-6.7-3.8-13-8.4-18.6-13.7-7.1-6.7-13.2-14.4-18-22.9-8.7 15.3-21.4 28-36.6 36.6zM155.9 46.7c0 2.1-.5 3.9-1.6 5.6-1 1.6-2.5 2.9-4.3 3.9 2.1 1 3.7 2.4 5 4.2 1.2 1.8 1.8 3.8 1.8 6.2 0 3.8-1.3 6.9-3.9 9.1-2.6 2.2-6.1 3.3-10.6 3.3s-8-1.1-10.7-3.3c-2.6-2.2-3.9-5.2-3.9-9.1 0-2.4.6-4.5 1.8-6.2 1.2-1.8 2.9-3.2 4.9-4.1-1.8-1-3.3-2.3-4.3-3.9s-1.6-3.5-1.6-5.6c0-3.7 1.2-6.6 3.7-8.8 2.4-2.2 5.8-3.3 10-3.3s7.5 1.1 10 3.2c2.4 2.2 3.7 5.1 3.7 8.8zm-7.7 19.2c0-1.9-.5-3.4-1.6-4.5s-2.5-1.7-4.4-1.7c-1.8 0-3.3.6-4.4 1.7-1.1 1.1-1.6 2.6-1.6 4.5 0 1.8.5 3.3 1.6 4.4 1.1 1.1 2.5 1.7 4.4 1.7 1.9 0 3.3-.5 4.4-1.6 1.1-1.1 1.6-2.6 1.6-4.5zm-.9-18.8c0-1.7-.4-3-1.3-4s-2.1-1.5-3.8-1.5c-1.6 0-2.8.5-3.7 1.5-.9 1-1.3 2.3-1.3 4.1 0 1.7.4 3.1 1.3 4.1.9 1 2.1 1.6 3.8 1.6 1.6 0 2.9-.5 3.7-1.6.9-1.1 1.3-2.5 1.3-4.2zm232.4 427c-2.5 2.2-5.8 3.2-10 3.2s-7.5-1.1-10-3.3c-2.4-2.2-3.7-5.1-3.7-8.8 0-2.1.5-3.9 1.6-5.6 1-1.6 2.5-2.9 4.3-3.9-2.1-1-3.7-2.4-4.9-4.1-1.2-1.8-1.8-3.9-1.8-6.2 0-3.8 1.3-6.8 3.9-9.1 2.6-2.2 6.2-3.3 10.7-3.3 4.5 0 8 1.1 10.6 3.3 2.6 2.2 3.9 5.2 3.9 9.1 0 2.4-.6 4.5-1.8 6.2-1.2 1.8-2.9 3.2-5 4.2 1.8 1 3.3 2.3 4.3 3.9s1.6 3.5 1.6 5.6c0 3.7-1.2 6.6-3.7 8.8zm-5.5-32.5c-1.1-1.1-2.5-1.6-4.4-1.6-1.9 0-3.4.6-4.4 1.7-1.1 1.1-1.6 2.6-1.6 4.4 0 1.9.5 3.4 1.6 4.5s2.5 1.7 4.4 1.7c1.8 0 3.3-.6 4.4-1.7 1.1-1.1 1.6-2.6 1.6-4.5s-.6-3.4-1.6-4.5zm-.7 19.1c-.9-1-2.1-1.6-3.7-1.6s-2.9.5-3.8 1.6c-.9 1-1.3 2.4-1.3 4.1 0 1.7.4 3.1 1.3 4.1.9 1 2.1 1.5 3.7 1.5s2.9-.5 3.8-1.5c.9-1 1.3-2.4 1.3-4 .1-1.7-.4-3.1-1.3-4.2z"/></svg>