<svg version="1.1" xmlns="http://www.w3.org/2000/svg" x="0" y="0" viewBox="0 0 512 512" xml:space="preserve"><path d="M228 420.7c12.5 15-6.3 37.4-28 13.7-21.6 23.8-40.5 1.4-27.9-13.6.9-1.1 2.1-2.1 3.3-3.1 5.4-4.1 7.8-6.6 13.7-13.1 6.2-7.2 10.9-19.9 10.9-19.9s4.7 12.7 11 19.8c5.9 6.6 8.3 9 13.7 13.1 1.3 1 2.4 2 3.3 3.1zM142.2 92.2c-11.7-12.8-21.8-.7-15 7.4.6.7 1.1 1.1 1.8 1.7 2.9 2.2 4.2 3.5 7.4 7.1 3.4 3.8 5.9 10.6 5.9 10.6s2.5-6.9 5.9-10.6c3.2-3.5 4.5-4.8 7.4-7.1.7-.5 1.2-1 1.8-1.7 6.6-8.2-3.5-20.3-15.2-7.4zm-7.7-35.9c-1.9-.9-3.3-2.2-4.3-3.9-1-1.6-1.6-3.5-1.6-5.6 0-3.6 1.2-6.6 3.6-8.8 2.4-2.1 5.8-3.3 10-3.3s7.5 1.1 10 3.3c2.4 2.1 3.6 4.9 3.6 8.7 0 2.1-.6 3.9-1.6 5.6-1 1.6-2.5 2.9-4.3 3.9 2.1 1 3.7 2.4 4.9 4.2 1.2 1.8 1.9 3.8 1.9 6.2 0 3.8-1.3 6.8-3.9 9-2.6 2.2-6.2 3.4-10.6 3.4-4.5 0-8-1.1-10.6-3.4-2.6-2.2-3.9-5.2-3.9-9 0-2.4.7-4.5 1.9-6.2 1.2-1.7 2.8-3.1 4.9-4.1zm2.8-9.1c0 1.7.5 3.1 1.3 4.1.9 1 2.1 1.6 3.7 1.6s2.9-.6 3.7-1.6c.8-1.1 1.3-2.4 1.3-4.2 0-1.7-.5-3-1.3-4-.9-1-2.1-1.5-3.7-1.5s-2.8.5-3.7 1.5c-.9 1-1.3 2.3-1.3 4.1zm-1 18.7c0 1.9.6 3.4 1.6 4.5s2.5 1.7 4.5 1.7c1.9 0 3.3-.6 4.4-1.6.9-1.2 1.5-2.7 1.5-4.6 0-1.9-.6-3.4-1.6-4.5-1.1-1.1-2.5-1.7-4.4-1.7-1.8 0-3.3.6-4.4 1.7-1.2 1.2-1.6 2.7-1.6 4.5zm151 28.4c5.4 4.1 7.8 6.6 13.7 13.1 6.2 7.2 10.9 19.9 10.9 19.9s4.7-12.7 11-19.8c5.9-6.6 8.3-9 13.7-13.1 1.2-.9 2.3-2 3.3-3.1 12.5-15-6.3-37.4-28-13.7-21.6-23.8-40.5-1.4-27.9 13.6 1 1.1 2.1 2.2 3.3 3.1zm-111.9 0c5.4 4.1 7.8 6.6 13.7 13.1 6.2 7.2 10.9 19.9 10.9 19.9s4.7-12.7 11-19.8c5.9-6.6 8.3-9 13.7-13.1 1.2-.9 2.3-2 3.3-3.1 12.5-15-6.3-37.4-28-13.7-21.6-23.8-40.5-1.4-27.9 13.6 1 1.1 2.1 2.2 3.3 3.1zm202.1 361.8c1.8 1 3.3 2.3 4.3 3.9 1 1.7 1.6 3.5 1.6 5.6 0 3.7-1.2 6.6-3.6 8.7-2.5 2.1-5.8 3.3-10 3.3s-7.6-1.1-10-3.3c-2.4-2.1-3.6-5.1-3.6-8.8 0-2.1.6-4 1.6-5.6 1-1.7 2.4-3 4.3-3.9-2.1-.9-3.7-2.3-4.9-4.1-1.2-1.8-1.9-3.8-1.9-6.2 0-3.8 1.3-6.8 3.9-9 2.6-2.2 6.2-3.4 10.6-3.4s8 1.1 10.6 3.4c2.6 2.2 3.9 5.2 3.9 9 0 2.4-.7 4.5-1.9 6.2-1.2 1.7-2.8 3.1-4.9 4.2zm-11.4 13.1c.9 1 2.1 1.5 3.7 1.5s2.8-.5 3.7-1.5c.8-1 1.3-2.3 1.3-4 0-1.8-.5-3.1-1.3-4.2-.8-1-2.1-1.6-3.7-1.6s-2.8.6-3.7 1.6c-.8 1-1.3 2.4-1.3 4.1 0 1.8.4 3.1 1.3 4.1zm8.2-27.4c-1.1-1-2.5-1.6-4.4-1.6-2 0-3.5.6-4.5 1.7s-1.6 2.6-1.6 4.5.5 3.4 1.6 4.5 2.6 1.7 4.4 1.7c1.9 0 3.3-.6 4.4-1.7 1-1.1 1.6-2.6 1.6-4.5s-.6-3.4-1.5-4.6zm10.5-29.3c-.6-.7-1.1-1.2-1.8-1.7-2.9-2.2-4.2-3.5-7.4-7.1-3.4-3.7-5.9-10.6-5.9-10.6s-2.5 6.8-5.9 10.6c-3.2 3.5-4.5 4.8-7.4 7.1-.7.6-1.2 1-1.8 1.7-6.8 8.1 3.4 20.1 15 7.4 11.8 12.8 22 .7 15.2-7.4zm-72.8-229c-21.6-23.8-40.5-1.4-27.9 13.6.9 1.1 2.1 2.1 3.3 3.1 5.4 4.1 7.8 6.6 13.7 13.1 6.2 7.1 11 19.8 11 19.8s4.7-12.7 11-19.8c5.9-6.6 8.3-9 13.7-13.1 1.2-.9 2.3-2 3.3-3.1 12.3-15-6.5-37.4-28.1-13.6zm24.8 128.4c-5.4-4.1-7.8-6.5-13.7-13.1-6.3-7.1-11-19.8-11-19.8s-4.8 12.7-11 19.8c-5.9 6.5-8.3 9-13.7 13.1-1.2.9-2.3 2-3.3 3.1-12.6 15 6.2 37.4 27.9 13.6 21.6 23.8 40.5 1.4 28.1-13.6-1-1.2-2.1-2.2-3.3-3.1zM200 183.5c-21.6-23.8-40.5-1.4-27.9 13.6.9 1.1 2.1 2.1 3.3 3.1 5.4 4.1 7.8 6.6 13.7 13.1 6.2 7.1 11 19.8 11 19.8s4.7-12.7 11-19.8c5.9-6.6 8.3-9 13.7-13.1 1.2-.9 2.3-2 3.3-3.1 12.4-15-6.4-37.4-28.1-13.6zm24.9 128.4c-5.4-4.1-7.8-6.5-13.7-13.1-6.3-7.1-11-19.8-11-19.8s-4.8 12.7-11 19.8c-5.9 6.5-8.3 9-13.7 13.1-1.2.9-2.3 2-3.3 3.1-12.6 15 6.2 37.4 27.9 13.6 21.6 23.8 40.5 1.4 28.1-13.6-1-1.2-2.1-2.2-3.3-3.1zm111.8 105.7c-5.4-4.1-7.8-6.5-13.7-13.1-6.3-7.1-11-19.8-11-19.8s-4.7 12.7-10.9 19.9c-5.9 6.5-8.3 9-13.7 13.1-1.2.9-2.3 2-3.3 3.1-12.6 15 6.2 37.4 27.9 13.6 21.6 23.7 40.5 1.3 28-13.7-1-1.1-2.1-2.1-3.3-3.1zM398.4 16H113.6c-1.7 0-3 1.3-3 3v474c0 1.7 1.3 3 3 3h284.8c1.7 0 3-1.3 3-3V19c0-1.7-1.3-3-3-3m0-16c10.5 0 19 8.5 19 19v474c0 10.5-8.5 19-19 19H113.6c-10.5 0-19-8.5-19-19V19c0-10.5 8.5-19 19-19h284.8z"/></svg>