<svg version="1.1" xmlns="http://www.w3.org/2000/svg" x="0" y="0" viewBox="0 0 512 512" xml:space="preserve"><path d="M398.4 0H113.6c-10.5 0-19 8.5-19 19v474c0 10.5 8.5 19 19 19h284.8c10.5 0 19-8.5 19-19V19c0-10.5-8.5-19-19-19zm3 493c0 1.7-1.3 3-3 3H113.6c-1.7 0-3-1.3-3-3V19c0-1.7 1.3-3 3-3h284.8c1.7 0 3 1.3 3 3v474zM149.2 95.8c2.8 2.7 5.9 5 9.2 7-6.8 3.8-12.4 9.5-16.2 16.2-3.8-6.8-9.5-12.4-16.2-16.2 6.8-3.8 12.4-9.5 16.2-16.2 2 3.3 4.3 6.4 7 9.2zm204.3 313.5c6.8-3.8 12.4-9.5 16.2-16.2 2 3.5 4.5 6.7 7.4 9.5 2.6 2.6 5.6 4.8 8.9 6.7-6.8 3.8-12.4 9.5-16.2 16.2-3.9-6.8-9.5-12.4-16.3-16.2zM159.7 34.8V42h-13.1v35.9h-8.9V42h-13.1v-7.2h35.1zM374.3 470h13.1v7.2h-35.1V470h13.1v-35.9h8.9V470zM272.1 239.6c6.2 6.2 13.4 11.7 20.9 15.9-15.2 8.7-28.8 22.2-37.5 37.5-8.7-15.2-22.2-28.8-37.5-37.5 15.2-8.7 28.8-22.2 37.5-37.5 4.4 7.8 10.1 15.1 16.6 21.6z"/></svg>