<svg xmlns="http://www.w3.org/2000/svg" viewBox="0 0 512 512" style="enable-background:new 0 0 512 512" xml:space="preserve"><path d="M155.6 79c4.7 0 8.3-1.5 10.8-4.7s3.7-7.7 3.7-13.7v-7.9c0-5.8-1.3-10.2-3.8-13.3-2.5-3.1-6.1-4.6-10.8-4.6s-8.3 1.6-10.8 4.7-3.7 7.7-3.7 13.7v7.9c0 5.8 1.3 10.2 3.8 13.3 2.5 3.1 6.1 4.6 10.8 4.6zm-6.2-27.7c0-3.3.5-5.7 1.5-7.3 1-1.5 2.5-2.3 4.5-2.3 2.1 0 3.6.8 4.6 2.4 1 1.6 1.5 4.2 1.5 7.8h-.1v10.3c-.1 3.4-.6 5.9-1.5 7.5-.9 1.7-2.4 2.5-4.5 2.5s-3.6-.9-4.6-2.6c-.9-1.7-1.4-4.3-1.4-7.8V51.3zM356.5 433c-4.8 0-8.4 1.6-10.8 4.7-2.5 3.2-3.7 7.7-3.7 13.7v7.9c.1 5.8 1.3 10.2 3.8 13.3 2.5 3.1 6.1 4.6 10.8 4.6 4.7 0 8.3-1.6 10.8-4.7s3.7-7.7 3.7-13.7v-7.9c-.1-5.8-1.3-10.2-3.8-13.3-2.5-3.1-6.1-4.6-10.8-4.6zm6 27.7c-.1 3.3-.6 5.7-1.5 7.3-1 1.6-2.4 2.3-4.5 2.3s-3.6-.8-4.6-2.4c-1-1.6-1.5-4.2-1.5-7.8v-10.3h.1c0-3.4.5-5.9 1.5-7.5.9-1.6 2.4-2.5 4.5-2.5s3.6.9 4.6 2.6c1 1.7 1.4 4.3 1.4 7.8v10.5zm-238-382.3v-33l-10.2 3.2v-7l17.8-6.4h.9v43.2h-8.5zm262.9 388.1 10.2-3.2v7l-17.8 6.4h-1v-43.2h8.6v33zM398.4 0H113.6c-10.5 0-19 8.5-19 19v474c0 10.5 8.5 19 19 19h284.8c10.5 0 19-8.5 19-19V19c0-10.5-8.5-19-19-19zm3 493c0 1.7-1.3 3-3 3H113.6c-1.7 0-3-1.3-3-3V19c0-1.7 1.3-3 3-3h284.8c1.7 0 3 1.3 3 3v474zM386 409.3c-6.8 3.8-12.4 9.4-16.2 16.2-3.8-6.8-9.4-12.4-16.2-16.2 6.8-3.8 12.4-9.4 16.2-16.2 2 3.5 4.5 6.7 7.3 9.5 2.6 2.6 5.6 4.8 8.9 6.7zM149.5 96c2.6 2.6 5.6 4.8 8.9 6.7-6.8 3.8-12.4 9.4-16.2 16.2-3.8-6.8-9.4-12.4-16.2-16.2 6.8-3.8 12.4-9.4 16.2-16.2 2 3.5 4.5 6.7 7.3 9.5zM256 114.7c4.3 7.5 9.6 14.4 15.9 20.4 5.3 5.1 11.2 9.5 17.7 13.2-14 7.9-25.6 19.6-33.5 33.5-7.9-14-19.6-25.6-33.5-33.5 13.8-8 25.5-19.6 33.4-33.6zm0 215.5c4 7.1 9 13.5 14.7 19.2 5.6 5.6 11.9 10.4 18.9 14.3-14 7.9-25.6 19.6-33.5 33.5-7.9-14-19.6-25.6-33.5-33.5 13.8-7.8 25.5-19.5 33.4-33.5zM199 60.8c4.2 7.3 9.3 14 15.3 19.9 5.4 5.3 11.6 9.9 18.2 13.7-14 7.9-25.6 19.6-33.5 33.5-7.9-14-19.6-25.6-33.5-33.5 13.9-8 25.6-19.6 33.5-33.6zm114 0c4.2 7.4 9.4 14.1 15.4 19.9 5.4 5.3 11.5 9.9 18.2 13.6-14 7.9-25.6 19.6-33.5 33.5-7.9-14-19.6-25.6-33.5-33.5 13.8-7.9 25.5-19.5 33.4-33.5zM199 168.6c4.1 7.2 9.1 13.7 14.9 19.4 5.5 5.5 11.8 10.2 18.6 14.1-14 7.9-25.6 19.6-33.5 33.5-7.9-14-19.6-25.6-33.5-33.5 13.9-7.9 25.6-19.6 33.5-33.5zm114 0c4.2 7.4 9.4 14.1 15.4 20 5.4 5.3 11.5 9.8 18.1 13.6-14 7.9-25.6 19.6-33.5 33.5-7.9-14-19.6-25.6-33.5-33.5 13.9-8 25.6-19.7 33.5-33.6zM199 276.4c3.8 6.8 8.5 13 13.9 18.5 5.8 5.9 12.4 11 19.6 15.1-14 7.9-25.6 19.6-33.5 33.5-7.9-14-19.6-25.6-33.5-33.5 13.9-8 25.6-19.7 33.5-33.6zm114 0c3.8 6.8 8.6 13 14 18.5 5.8 5.9 12.4 10.9 19.6 15-14 7.9-25.6 19.6-33.5 33.5-7.9-14-19.6-25.6-33.5-33.5 13.8-7.9 25.5-19.6 33.4-33.5zM199 384.1c3.7 6.5 8.1 12.4 13.3 17.8 5.9 6.2 12.8 11.5 20.3 15.8-14 7.9-25.6 19.6-33.5 33.5-7.9-14-19.6-25.6-33.5-33.5 13.8-8 25.5-19.6 33.4-33.6zm114 0c4.4 7.8 10 14.9 16.5 21 5.1 4.8 10.9 9.1 17 12.6-14 7.9-25.6 19.6-33.5 33.5-7.9-14-19.6-25.6-33.5-33.5 13.9-8 25.6-19.6 33.5-33.6z"/></svg>