<svg version="1.1" xmlns="http://www.w3.org/2000/svg" x="0" y="0" viewBox="0 0 512 512" xml:space="preserve"><path d="M398.4 16c1.7 0 3 1.3 3 3v474c0 1.7-1.3 3-3 3H113.6c-1.7 0-3-1.3-3-3V19c0-1.7 1.3-3 3-3h284.8m0-16H113.6c-10.5 0-19 8.5-19 19v474c0 10.5 8.5 19 19 19h284.8c10.5 0 19-8.5 19-19V19c0-10.5-8.5-19-19-19zM150 68.9h-15.6l-3 8.9H122l16-43.1h8.2l16.2 43.2H153l-3-9zm-13.2-7.2h10.8l-5.4-16.1-5.4 16.1zM362 443.1h15.6l3-8.9h9.4l-16 43.1h-8.2l-16.2-43.2h9.4l3 9zm13.2 7.2h-10.8l5.4 16.1 5.4-16.1zM256 231.5c-27-29.7-50.5-1.7-34.9 17.1 1.2 1.4 2.6 2.7 4.1 3.8 6.7 5.1 9.8 8.2 17.1 16.5 7.8 8.8 13.7 24.7 13.7 24.7s5.9-15.9 13.7-24.7c7.3-8.2 10.4-11.3 17.1-16.5 1.5-1.1 2.9-2.4 4.1-3.8 15.6-18.8-7.9-46.8-34.9-17.1zM142.2 92.1c-11.7-12.8-21.8-.7-15 7.4.6.7 1.1 1.1 1.8 1.7 2.9 2.2 4.2 3.5 7.4 7.1 3.4 3.8 5.9 10.6 5.9 10.6s2.5-6.9 5.9-10.6c3.2-3.5 4.5-4.8 7.4-7.1.7-.5 1.2-1 1.8-1.7 6.6-8.1-3.5-20.2-15.2-7.4zm227.6 327.8c-11.7 12.8-21.8.7-15-7.4.6-.7 1.1-1.1 1.8-1.7 2.9-2.2 4.2-3.5 7.4-7.1 3.4-3.8 5.9-10.6 5.9-10.6s2.5 6.9 5.9 10.6c3.2 3.5 4.5 4.8 7.4 7.1.7.5 1.2 1 1.8 1.7 6.6 8.1-3.6 20.2-15.2 7.4z"/></svg>