<svg xmlns="http://www.w3.org/2000/svg" viewBox="0 0 512 512" style="enable-background:new 0 0 512 512" xml:space="preserve"><path d="M155.6 79c4.7 0 8.3-1.5 10.8-4.7s3.7-7.7 3.7-13.7v-7.9c0-5.8-1.3-10.2-3.8-13.3-2.5-3.1-6.1-4.6-10.8-4.6s-8.3 1.6-10.8 4.7-3.7 7.7-3.7 13.7v7.9c0 5.8 1.3 10.2 3.8 13.3 2.5 3.1 6.1 4.6 10.8 4.6zm-6.2-27.7c0-3.3.5-5.7 1.5-7.3 1-1.5 2.5-2.3 4.5-2.3 2.1 0 3.6.8 4.6 2.4 1 1.6 1.5 4.2 1.5 7.8h-.1v10.3c-.1 3.4-.6 5.9-1.5 7.5-.9 1.7-2.4 2.5-4.5 2.5s-3.6-.9-4.6-2.6c-.9-1.7-1.4-4.3-1.4-7.8V51.3zM356.5 433c-4.8 0-8.4 1.6-10.8 4.7-2.5 3.2-3.7 7.7-3.7 13.7v7.9c.1 5.8 1.3 10.2 3.8 13.3 2.5 3.1 6.1 4.6 10.8 4.6 4.7 0 8.3-1.6 10.8-4.7s3.7-7.7 3.7-13.7v-7.9c-.1-5.8-1.3-10.2-3.8-13.3s-6.1-4.6-10.8-4.6zm6 27.7c-.1 3.3-.6 5.7-1.5 7.3-1 1.6-2.4 2.3-4.5 2.3s-3.6-.8-4.6-2.4c-1-1.6-1.5-4.2-1.5-7.8v-10.3h.1c0-3.4.5-5.9 1.5-7.5.9-1.6 2.4-2.5 4.5-2.5s3.6.9 4.6 2.6 1.4 4.3 1.4 7.8v10.5zm13.1-41c0 3.2-2.6 5.8-5.8 5.8-3.2 0-5.8-2.7-5.8-5.8 0-2.8 3.9-8.4 5.4-9.4v-4h-3c-1 1.5-6.5 5.4-9.4 5.4-3.2 0-5.8-2.6-5.8-5.8 0-3.2 2.7-5.8 5.8-5.8 2.8 0 8.4 3.9 9.4 5.4h3v-.5c-.3-5.3-3.4-9.8-8-11.9h16.8c-4.6 2.1-7.7 6.6-8 11.9v.5h3c1-1.5 6.5-5.4 9.4-5.4 3.2 0 5.8 2.6 5.8 5.8s-2.7 5.8-5.8 5.8c-2.8 0-8.4-3.9-9.4-5.4h-3v4c1.5 1 5.4 6.5 5.4 9.4zm11.8 46.8 10.2-3.2v7l-17.8 6.4h-1v-43.2h8.6v33zM124.5 45.4l-10.2 3.2v-7l17.8-6.4h.9v43.2h-8.5v-33zM398.4 0H113.6c-10.5 0-19 8.5-19 19v474c0 10.5 8.5 19 19 19h284.8c10.5 0 19-8.5 19-19V19c0-10.5-8.5-19-19-19zm3 493c0 1.7-1.3 3-3 3H113.6c-1.7 0-3-1.3-3-3V19c0-1.7 1.3-3 3-3h284.8c1.7 0 3 1.3 3 3v474zM160.8 106.1c0 3.2-2.6 5.8-5.8 5.8-2.8 0-8.4-3.9-9.4-5.4h-3v.5c.3 5.3 3.4 9.8 8 11.9h-16.8c4.6-2.1 7.7-6.6 8-11.9v-.5h-3c-1 1.5-6.5 5.4-9.4 5.4-3.2 0-5.8-2.6-5.8-5.8 0-3.2 2.7-5.8 5.8-5.8 2.8 0 8.4 3.9 9.4 5.4h3v-4c-1.5-1-5.4-6.5-5.4-9.4 0-3.2 2.6-5.8 5.8-5.8s5.8 2.7 5.8 5.8c0 2.8-3.9 8.4-5.4 9.4v4h3c1-1.5 6.5-5.4 9.4-5.4 3.2 0 5.8 2.6 5.8 5.8zm38.9 199v6.3c2.5 1.7 8.6 10.5 8.6 15.2 0 5.1-4.2 9.3-9.3 9.3s-9.3-4.2-9.3-9.3c0-4.7 6.2-13.6 8.6-15.2v-6.3h-4.7c-1.7 2.5-10.5 8.6-15.2 8.6-5.1 0-9.3-4.2-9.3-9.3 0-5.1 4.2-9.3 9.3-9.3 4.7 0 13.6 6.2 15.2 8.6h4.7v-.9c-.5-8.5-5.4-15.8-12.8-19.1h27c-7.4 3.3-12.4 10.5-12.8 19.1v.9h4.7c1.7-2.5 10.5-8.6 15.2-8.6 5.1 0 9.3 4.2 9.3 9.3 0 5.1-4.2 9.3-9.3 9.3-4.7 0-13.6-6.2-15.2-8.6h-4.7zm29.1-97.6c0 5.1-4.2 9.3-9.3 9.3-4.7 0-13.6-6.2-15.2-8.6h-4.7v.9c.5 8.5 5.4 15.8 12.8 19.1h-27c7.4-3.3 12.4-10.5 12.8-19.1v-.9h-4.7c-1.7 2.5-10.5 8.6-15.2 8.6-5.1 0-9.3-4.2-9.3-9.3 0-5.1 4.2-9.3 9.3-9.3 4.7 0 13.6 6.2 15.2 8.6h4.7v-6.3c-2.5-1.7-8.6-10.5-8.6-15.2 0-5.1 4.2-9.3 9.3-9.3 5.1 0 9.3 4.2 9.3 9.3 0 4.7-6.2 13.6-8.6 15.2v6.3h4.7c1.7-2.5 10.5-8.6 15.2-8.6 5.1 0 9.3 4.1 9.3 9.3zM198.3 99.1v-6.3c-2.5-1.7-8.6-10.5-8.6-15.2 0-5.1 4.2-9.3 9.3-9.3 5.1 0 9.3 4.2 9.3 9.3 0 4.7-6.2 13.6-8.6 15.2v6.3h4.7c1.7-2.5 10.5-8.6 15.2-8.6 5.1 0 9.3 4.2 9.3 9.3 0 5.1-4.2 9.3-9.3 9.3-4.7 0-13.6-6.2-15.2-8.6h-4.7v.9c.5 8.6 5.4 15.8 12.8 19.1h-27c7.4-3.3 12.4-10.5 12.8-19.1v-.9h-4.7c-1.7 2.5-10.5 8.6-15.2 8.6-5.1 0-9.3-4.2-9.3-9.3 0-5.1 4.2-9.3 9.3-9.3 4.7 0 13.6 6.2 15.2 8.6h4.7zm84.9.6c0-5.1 4.2-9.3 9.3-9.3 4.7 0 13.6 6.2 15.2 8.6h4.7v-6.3c-2.5-1.7-8.6-10.5-8.6-15.2 0-5.1 4.2-9.3 9.3-9.3 5.1 0 9.3 4.2 9.3 9.3 0 4.7-6.2 13.6-8.6 15.2V99h4.7c1.7-2.5 10.5-8.6 15.2-8.6 5.1 0 9.3 4.2 9.3 9.3 0 5.1-4.2 9.3-9.3 9.3-4.7 0-13.6-6.2-15.2-8.6h-4.7v.9c.5 8.5 5.4 15.8 12.8 19.1h-27c7.4-3.3 12.4-10.5 12.8-19.1v-.9h-4.7c-1.7 2.5-10.5 8.6-15.2 8.6-5.1-.1-9.3-4.1-9.3-9.3zm59.6 107.8c0 5.1-4.2 9.3-9.3 9.3-4.7 0-13.6-6.2-15.2-8.6h-4.7v.9c.5 8.5 5.4 15.8 12.8 19.1h-27c7.4-3.3 12.4-10.5 12.8-19.1v-.9h-4.7c-1.7 2.5-10.5 8.6-15.2 8.6-5.1 0-9.3-4.2-9.3-9.3 0-5.1 4.2-9.3 9.3-9.3 4.7 0 13.6 6.2 15.2 8.6h4.7v-6.3c-2.5-1.7-8.6-10.5-8.6-15.2 0-5.1 4.2-9.3 9.3-9.3 5.1 0 9.3 4.2 9.3 9.3 0 4.7-6.2 13.6-8.6 15.2v6.3h4.7c1.7-2.5 10.5-8.6 15.2-8.6 5.1 0 9.3 4.1 9.3 9.3zm-116.6-53.9c0-5.1 4.2-9.3 9.3-9.3 4.7 0 13.6 6.2 15.2 8.6h4.7v-6.2c-2.5-1.7-8.6-10.5-8.6-15.2 0-5.1 4.2-9.3 9.3-9.3 5.1 0 9.3 4.2 9.3 9.3 0 4.7-6.2 13.6-8.6 15.2v6.3h4.7c1.7-2.5 10.5-8.6 15.2-8.6 5.1 0 9.3 4.2 9.3 9.3 0 5.1-4.2 9.3-9.3 9.3-4.7 0-13.6-6.2-15.2-8.6h-4.7v.9c.5 8.5 5.4 15.8 12.8 19.1h-27c7.4-3.3 12.3-10.5 12.8-19.1v-.9h-4.7c-1.7 2.5-10.5 8.6-15.2 8.6-5.1-.1-9.3-4.3-9.3-9.4zm87.5 151.5v6.3c2.5 1.7 8.6 10.5 8.6 15.2 0 5.1-4.2 9.3-9.3 9.3-5.1 0-9.3-4.2-9.3-9.3 0-4.7 6.2-13.6 8.6-15.2v-6.3h-4.7c-1.7 2.5-10.5 8.6-15.2 8.6-5.1 0-9.3-4.2-9.3-9.3 0-5.1 4.2-9.3 9.3-9.3 4.7 0 13.6 6.2 15.2 8.6h4.7v-.9c-.5-8.5-5.4-15.8-12.8-19.1h27c-7.4 3.3-12.4 10.5-12.8 19.1v.9h4.7c1.7-2.5 10.5-8.6 15.2-8.6 5.1 0 9.3 4.2 9.3 9.3 0 5.1-4.2 9.3-9.3 9.3-4.7 0-13.6-6.2-15.2-8.6h-4.7zm0 107.8v6.3c2.5 1.7 8.6 10.5 8.6 15.2 0 5.1-4.2 9.3-9.3 9.3-5.1 0-9.3-4.2-9.3-9.3 0-4.7 6.2-13.6 8.6-15.2v-6.3h-4.7c-1.7 2.5-10.5 8.6-15.2 8.6-5.1 0-9.3-4.2-9.3-9.3 0-5.1 4.2-9.3 9.3-9.3 4.7 0 13.6 6.2 15.2 8.6h4.7v-.9c-.5-8.6-5.4-15.8-12.8-19.1h27c-7.4 3.3-12.4 10.5-12.8 19.1v.9h4.7c1.7-2.5 10.5-8.6 15.2-8.6 5.1 0 9.3 4.2 9.3 9.3 0 5.1-4.2 9.3-9.3 9.3-4.7 0-13.6-6.2-15.2-8.6h-4.7zm-84.9-.6c0 5.1-4.2 9.3-9.3 9.3-4.7 0-13.6-6.2-15.2-8.6h-4.7v6.3c2.5 1.7 8.6 10.5 8.6 15.2 0 5.1-4.2 9.3-9.3 9.3-5.1 0-9.3-4.2-9.3-9.3 0-4.7 6.2-13.6 8.6-15.2V413h-4.7c-1.7 2.5-10.5 8.6-15.2 8.6-5.1 0-9.3-4.2-9.3-9.3 0-5.1 4.2-9.3 9.3-9.3 4.7 0 13.6 6.2 15.2 8.6h4.7v-.9c-.5-8.6-5.4-15.8-12.8-19.1h27c-7.4 3.3-12.4 10.5-12.8 19.1v.9h4.7c1.7-2.5 10.5-8.6 15.2-8.6 5.1.1 9.3 4.1 9.3 9.3zm57-53.9c0 5.1-4.2 9.3-9.3 9.3-4.7 0-13.6-6.2-15.2-8.6h-4.7v6.3c2.5 1.7 8.6 10.5 8.6 15.2 0 5.1-4.2 9.3-9.3 9.3-5.1 0-9.3-4.2-9.3-9.3 0-4.7 6.2-13.6 8.6-15.2v-6.3h-4.7c-1.7 2.5-10.5 8.6-15.2 8.6-5.1 0-9.3-4.2-9.3-9.3 0-5.1 4.2-9.3 9.3-9.3 4.7 0 13.6 6.2 15.2 8.6h4.7v-.9c-.5-8.6-5.4-15.8-12.8-19.1h27c-7.4 3.3-12.4 10.5-12.8 19.1v.9h4.7c1.7-2.5 10.5-8.6 15.2-8.6 5.2 0 9.3 4.2 9.3 9.3z"/></svg>