<svg version="1.1" xmlns="http://www.w3.org/2000/svg" x="0" y="0" viewBox="0 0 512 512" xml:space="preserve"><path d="M332 491h-6c-2.4 0-4.6-1.5-5.5-3.7L312 467V0H167.5c-5.8 0-8.2 7.4-3.5 10.9l22.8 16.6c8.3 6 13.2 15.7 13.2 25.9V467l-8.5 20.3c-.9 2.2-3.1 3.7-5.5 3.7h-6c-3.3 0-6 2.7-6 6v9c0 3.3 2.7 6 6 6h152c3.3 0 6-2.7 6-6v-9c0-3.3-2.7-6-6-6zM235 70h21v4h-21v-4zm0 19h21v4h-21v-4zm0 19h21v4h-21v-4zm0 19h21v4h-21v-4zm0 38h21v4h-21v-4zm0 19h21v4h-21v-4zm0 19h21v4h-21v-4zm0 19h21v4h-21v-4zm0 38h21v4h-21v-4zm0 19h21v4h-21v-4zm0 19h21v4h-21v-4zm0 19h21v4h-21v-4zm0 38h21v4h-21v-4zm0 19h21v4h-21v-4zm0 19h21v4h-21v-4zm0 19h21v4h-21v-4zm42 23h-42v-4h42v4zm0-95h-42v-4h42v4zm0-95h-42v-4h42v4zm0-95h-42v-4h42v4zm0-95h-42v-4h42v4z"/></svg>