<svg version="1.1" xmlns="http://www.w3.org/2000/svg" x="0" y="0" viewBox="0 0 512 512" xml:space="preserve"><path d="M290.6 404.3l15.7-12.9c11.2-9.1 17.6-22.8 17.6-37.2V155.9c0-12.7-5.1-25-14.1-34L290 102.1c-9-9-14.1-21.2-14.1-34V0h-40v68.2c0 12.8-5.1 25-14.1 34L202 122c-9 9-14.1 21.2-14.1 33.9v198.4c0 14.4 6.5 28.1 17.6 37.2l15.7 12.9c11.2 9.1 17.6 22.8 17.6 37.2V457c0 30.4 24.6 55 55 55h30v-34h-30c-11.6 0-21-9.4-21-21v-15.6c.2-14.4 6.7-28 17.8-37.1zM235 111.5h42v4h-42v-4zm0 19h21v4h-21v-4zm0 19h21v4h-21v-4zm0 19h21v4h-21v-4zm0 19h21v4h-21v-4zm0 19h42v4h-42v-4zm0 19h21v4h-21v-4zm0 19h21v4h-21v-4zm0 19h21v4h-21v-4zm0 19h21v4h-21v-4zm0 19h42v4h-42v-4zm0 19h21v4h-21v-4zm0 19h21v4h-21v-4zm0 19h21v4h-21v-4zm0 19h21v4h-21v-4zm0 23v-4h42v4h-42z"/></svg>