<svg version="1.1" xmlns="http://www.w3.org/2000/svg" x="0" y="0" viewBox="0 0 512 512" xml:space="preserve"><path d="M434.2 276.2C470.7 238.2 512 195 512 154c0-51.8-42.2-94-94-94-18.8 0-36.3 5.5-51 15.1V39.8c0-7.6 2.7-15 7.7-20.8l7.8-9.1c3.3-3.9.6-9.9-4.5-9.9H93.9C83.2 0 73.7 6.8 70.2 16.9L63 38.2c-1.1 3.2.6 6.6 3.8 7.6l16.1 4.6C96.1 54.8 105 67 105 80.9V464c0 26.5 21.5 48 48 48h166c26.5 0 48-21.5 48-48v-98.3c1.5 4 2.7 6.5 3.1 7.2 3.5 7 10.6 11.1 17.9 11.1 3 0 6.1-.7 8.9-2.1 9.9-4.9 13.9-17 8.9-26.8-.1-.1-4.5-9.2-6.7-22.9-1.5-9.2 1.1-18.5 7.1-25.6 7.7-9.2 18.9-20.9 28-30.4zM215 115h21v4h-21v-4zm0 19h21v4h-21v-4zm0 19h21v4h-21v-4zm0 19h21v4h-21v-4zm0 38h21v4h-21v-4zm0 19h21v4h-21v-4zm0 19h21v4h-21v-4zm0 19h21v4h-21v-4zm0 38h21v4h-21v-4zm0 19h21v4h-21v-4zm0 19h21v4h-21v-4zm0 19h21v4h-21v-4zm0 38h21v4h-21v-4zm0 19h21v4h-21v-4zm0 19h21v4h-21v-4zm0 19h21v4h-21v-4zm42 23h-42v-4h42v4zm0-95h-42v-4h42v4zm0-95h-42v-4h42v4zm0-95h-42v-4h42v4zm0-95h-42v-4h42v4zm110 192.4V136.3c7.3-21.1 27.4-36.3 51-36.3 29.8 0 54 24.2 54 54 0 6.9-3.5 19.8-19.9 41.9-13.3 17.7-31.1 36.3-46.7 52.7-17.7 18.4-30.6 32-38.4 43.8z"/></svg>