<svg version="1.1" xmlns="http://www.w3.org/2000/svg" x="0" y="0" viewBox="0 0 512 512" xml:space="preserve"><path d="M372.5 462h-71.1l-17.1-241.5c-.1-1.7-.3-3.3-.7-4.9l-.7-3.2c-1.1-4.7 0-9.6 2.9-13.4l8.2-10.6c35.2-14.9 60-49.7 60-90.4 0-54.1-43.9-98-98-98s-98 43.9-98 98c0 40.6 24.8 75.5 60 90.4l8.2 10.6c2.9 3.8 4 8.7 2.9 13.4l-.7 3.2c-.4 1.6-.6 3.3-.7 4.9L210.6 462h-71.1c-4.4 0-8 3.6-8 8v26c0 8.8 7.2 16 16 16h217c8.8 0 16-7.2 16-16v-26c0-4.4-3.6-8-8-8zM256 36.6c33.9 0 61.4 27.5 61.4 61.4s-27.5 61.4-61.4 61.4-61.4-27.5-61.4-61.4 27.5-61.4 61.4-61.4zm35 82.8c3.8-6.2 6-13.6 6-21.4s-2.2-15.1-6-21.4c-2.4-4 2.7-8.2 6.1-5.1 7.1 6.6 11.5 16 11.5 26.5s-4.4 19.9-11.5 26.5c-3.4 3.1-8.5-1.1-6.1-5.1z"/></svg>