<svg version="1.1" xmlns="http://www.w3.org/2000/svg" x="0" y="0" viewBox="0 0 512 512" xml:space="preserve"><path d="M274.9 215.3c3.5 1.8 6.8 4 9.7 6.7 1.4 1.3 2.6 2.4 4.6 2 1.6-.3 2.9-1.7 3.1-3.3.2-1.8-.7-3.1-2-4.2-1.4-1.4-3-2.6-4.5-3.8-1.6-1.2-3.3-2.3-5.1-3.3-1.4-.8-3-1.9-4.7-1.6-3.7.6-4.5 5.8-1.1 7.5zm23.1 12.5c-3-1-6 2-5 5 .3 1 .9 2 1.4 2.9.5 1.1.9 2.2 1.3 3.3.8 2.2 1.4 4.6 1.8 6.9.6 3.3 4.9 4.5 7 1.9 1.1-1.4.9-3 .6-4.6-.4-2-.9-4-1.6-6-.6-2-1.4-3.9-2.3-5.8-.7-1.5-1.4-3.1-3.2-3.6zm-37.6-16.9c1.7.3 3.3.8 4.9-.4 1.1-.8 1.8-2.3 1.6-3.7-.5-4-5.3-3.8-8.3-4-.9 0-1.7-.1-2.6-.1v.1c-27.6 0-50 22.4-50 50s22.4 50 50 50c1.8 0 3.7-.1 5.6-.2 1.7-.2 3.6-.3 4.8-1.6 2.5-2.7.1-7.3-3.6-6.7-2.3.4-4.5.5-6.8.5v-84.1c1.5 0 2.9.1 4.4.2zm45.1 48.2c-.2-1.7-1.6-3.1-3.4-3.4-1.5-.2-3.1.5-3.9 1.7-.9 1.4-.9 3.4-1.3 4.9-.5 2-1.1 3.9-1.8 5.8-.6 1.6-2 3.4-2 5.2-.1 3.5 4.2 5.4 6.7 3.1 1.4-1.3 2-3.6 2.7-5.3.8-2 1.4-4 2-6.1.5-1.8 1.2-4 1-5.9zm-30.9 37.8c1.5 1.2 3.3.9 4.9 0 1.7-.9 3.4-2 5.1-3.1 1.6-1.1 3.1-2.3 4.5-3.5 1.3-1.1 3-2.3 3.4-4.1 1.1-3.8-3.8-6.7-6.7-3.8-2.8 2.8-5.9 5.2-9.4 7.1-1.5.8-2.8 1.5-3.3 3.2-.4 1.5.2 3.2 1.5 4.2zm21.8 78.6c2.6-3.4 5.2-6.7 7.8-10.1 1.2-1.5 2.6-3 2.2-5.1-.3-1.8-1.9-3.3-3.8-3.3-2 0-3.1 1.4-4.2 2.9-1.3 1.7-2.5 3.3-3.8 5-1.3 1.8-2.7 3.5-4.1 5.2-1 1.3-2 2.5-1.8 4.3.3 1.7 1.6 3.1 3.3 3.3 1.9.3 3.3-.8 4.4-2.2zm-.6-315.9c2 .1 3.5-1.4 5-2.4 3.5-2.4 7.1-4.6 10.6-6.9 3.2-2.1 2-7.4-2.1-7.4-2 0-3.9 1.7-5.5 2.7-1.8 1.1-3.5 2.3-5.2 3.4-1.7 1.2-3.7 2.3-5.3 3.7-1.1 1-1.6 2.6-1.1 4 .5 1.6 1.9 2.8 3.6 2.9zm-18 338.6c2.2-2.5 4.3-4.9 6.4-7.4.6-.7 1.3-1.4 1.8-2.2 1.6-2.6-.3-6.2-3.4-6.2-1.5 0-2.5.8-3.4 1.9-1.1 1.4-2.3 2.7-3.4 4-2.2 2.6-4.6 5-6.7 7.7-1.6 2.1-1 5.2 1.5 6.2 3.3 1.4 5.4-1.9 7.2-4zm44.9-355c2 .3 4-1.2 5.8-2 1.9-.9 3.9-1.7 5.9-2.4.9-.3 1.8-.7 2.7-1s1.9-.5 2.7-1c3.4-2 2-7.5-2-7.5-1.8 0-3.9 1.1-5.6 1.7-2 .8-4 1.6-6 2.5-2.8 1.2-7.9 2.6-6.8 6.7.4 1.6 1.7 2.8 3.3 3zm-52.2 36.5c2.1.3 3.4-1.1 4.9-2.4 3.2-2.8 6.4-5.6 9.7-8.2 1.4-1.2 2.5-2.5 2.1-4.5-.4-1.9-2.1-3.2-3.9-3.2-2 0-3.6 1.8-5.1 3-1.6 1.3-3.1 2.6-4.6 3.9-1.7 1.4-3.3 2.9-4.9 4.3-1.1 1-1.8 2.4-1.5 3.9.3 1.7 1.7 3 3.3 3.2zm71 229.8c1.5-2.6.1-6.3-3.3-6.3-1.8 0-3 1.2-3.8 2.6-1.1 1.8-2.1 3.6-3.2 5.4s-2.2 3.6-3.3 5.3c-.9 1.4-2.1 2.8-2 4.6.1 3.2 4 5 6.5 3 1.2-1 1.9-2.6 2.7-4 1.7-2.7 3.3-5.5 5-8.2.5-.8 1-1.6 1.4-2.4zm58.7-134.4c1.3-4.5 2.4-8.9 3.5-13.4.3-1.1.7-2.3.5-3.4-.5-1.9-2.2-3.4-4.1-3.4-1.6 0-3.1 1-3.7 2.6-.8 2-1.1 4.4-1.6 6.5-.2.9-.5 1.8-.7 2.7-1-.5-2.2-.7-3.3-1-2.4-.6-4.7-1.2-7.1-1.7-1.2-.3-2.4-.6-3.6-.8-1.2-.3-2.5-.7-3.6-.7-3.4 0-5.2 4.2-3 6.7 1.3 1.4 3.4 1.5 5.2 1.9 2.2.5 4.3 1 6.5 1.5 2.1.5 4.2 1.2 6.3 1.5h.7c-.1.7 0 1.4.4 2.1.7 1.5 2.4 2.5 4.2 2.2 1.8-.3 2.9-1.6 3.4-3.3zm-23.4 44.1c-.9 2.2-1.8 4.5-2.7 6.7-.9 2.2-1.8 4.4-2.7 6.5-.7 1.7-1.3 3.2-.3 4.9.9 1.5 2.8 2.3 4.5 1.8 2-.6 2.6-2.3 3.4-4.1l3.9-9.6c.7-1.7 1.9-3.7 1.7-5.5-.1-2-1.8-3.6-3.9-3.6-1.9 0-3.2 1.2-3.9 2.9zM352.5 33.7c1.4.1 2.9-.3 4.3-.4 1.5-.1 2.9-.2 4.4-.1 3.1 0 6.2.4 9.2 1.1 2.5.6 5.4 2.3 7.7.2 1.7-1.6 1.7-4.5-.1-6-.5-.5-1.2-.7-1.8-.9-4.8-1.6-9.9-2.3-14.9-2.3-.3-.1-.5-.1-.6-.1-1.1 0-2.2 0-3.3.1-1.3.1-2.6.2-4 .3-2 .2-4 1-4.5 3.3s1.3 4.6 3.6 4.8zM344.9 297c2.1.7 4-.4 5-2.2 1.1-1.9 2.1-3.8 3.1-5.7.9-1.6 1.7-3.2 2.6-4.8.8-1.6 2.2-3.4 2.3-5.2 0-2.2-1.8-4.1-4-4.1-2.6 0-3.6 2.2-4.6 4.2-1.2 2.3-2.5 4.6-3.7 6.9-.6 1.1-1.3 2.3-1.9 3.4-.5.9-1.2 1.9-1.4 3-.3 1.9.8 3.8 2.6 4.5zm19.7-30.4c.8-1.5 1.5-3 2.2-4.5.5.6 1.2 1.1 2.2 1.3 2 .4 4-.7 4.6-2.6.7-2.1-.7-4.2-1.5-6-.3-.6-.6-1.3-.9-1.9.6-1.2 1-2.4.8-3.7-.3-1.8-2-3.2-3.9-3.2h-.2c-.1-.1-.1-.2-.1-.3-1-2.3-1.9-4.9-4.8-4.9-2.1 0-3.8 1.6-4 3.7-.1 1 .3 1.9.7 2.8.6 1.2 1.2 2.5 1.8 3.7l.9 1.8c-.3.6-.6 1.2-.9 1.9-.9 2-1.9 3.9-2.8 5.8-.8 1.6-1.9 3.2-1.4 5 .8 3.4 5.5 4.1 7.3 1.1zm22.4-57.5c1.9-.3 2.9-1.7 3.5-3.4 1.6-4.4 3.1-8.9 4.5-13.3.3-1 .7-2.1.6-3.2-.5-1.8-2.2-3.3-4.1-3.3-1.6 0-3.1 1-3.7 2.5-.9 2.1-1.4 4.4-2.1 6.5-.7 2.2-1.5 4.5-2.3 6.7-.6 1.7-1.5 3.5-.6 5.3.7 1.6 2.4 2.5 4.2 2.2zm12.6-146c-.6 1.7.1 3.3.6 4.9.3.9.5 1.8.7 2.7-1.9.6-3.3 1.8-3.2 4.1.1 1.6 1.2 3 2.7 3.5 1.7.6 3.7-.2 5.5-.3 2.1-.2 4.2-.1 6.3.2 1 .2 1.9.4 2.9.6 1.1.3 2 .7 3.1.4 3.9-.8 4.2-6.5.4-7.7-3.2-1-6.5-1.6-9.8-1.7-.5-2.1-1-4.2-1.6-6.2-.6-1.7-2-3.1-3.9-3.1-1.6 0-3.1 1-3.7 2.6zm-13.2-20.4c1.5 1.4 2.9 2.9 4.1 4.6 1.3 1.7 2.3 3.6 3.6 5.4 2.3 3.3 7.6 1.4 7.3-2.6-.2-1.9-1.8-3.8-2.9-5.4-.2-.3-.4-.5-.6-.8-1-1.3-2-2.6-3-3.8-.3-.3-.6-.6-.9-1-1.6-1.7-3.5-4.2-6-4.2-1.9 0-3.6 1.4-3.9 3.3-.3 2.1.9 3.3 2.3 4.5zm13.2 98.8c-.2.9-.4 1.8-.1 2.7.8 3.3 5.3 4.1 7.2 1.2.5-.8.6-1.6.8-2.5.2-1.2.4-2.3.6-3.5.1-.5.2-1.1.3-1.6.8 0 1.6 0 2.4-.1 1.7-.1 3.9-.2 5.4-1.2 3.3-2.4.9-8-3.2-7.2-4.3.8-8.8.6-13-.8-1.6-.5-3.1-.6-4.4.6-1.2 1-1.7 2.7-1.2 4.2.5 1.7 1.9 2.5 3.6 3 .8.3 1.6.5 2.4.7-.1.4-.1.8-.2 1.2l-.6 3.3zm-87.9 22.7c2.5 3.6 4.9 7.2 7.3 10.9 1 1.5 1.9 3.1 3.9 3.4 1.6.2 3.3-.6 4.1-2 .7-1.3.6-2.8-.1-4.1-1.1-1.9-2.4-3.7-3.7-5.5-1.2-1.7-2.3-3.5-3.5-5.2.6.1 1.2.1 1.8.2 2.3.2 4.5.6 6.8.8 1.5.1 2.9-.5 3.8-1.8.9-1.3.9-3.1 0-4.4-1-1.6-2.7-1.8-4.4-2-2.4-.3-4.9-.6-7.3-.8-2.5-.3-5.1-.8-7.7-.8-3.4 0-5.3 4.3-2.9 6.8.2.2.5.4.7.6-.3 1.4.4 2.7 1.2 3.9zm66.6 125.7c.6 1.6 1.5 2.9 3.2 3.2 1.6.3 3.3-.4 4.2-1.8 1-1.6.5-3.1-.2-4.8-.8-2-1.6-4.1-2.4-6.1-.9-2.3-1.8-4.6-2.8-6.8-.7-1.9-1.9-3.4-4-3.4-1.6 0-3.1 1-3.7 2.5-.7 1.7.1 3.3.8 4.9 1.7 4.1 3.3 8.2 4.9 12.3zm-34.2-86.7c.5-1.6-.1-2.9-.9-4.2-.9-1.6-1.8-3.1-2.7-4.6-1.3-2.1-2.5-4.3-3.8-6.4-1.2-1.8-2.2-3.9-4.7-3.9-1.7 0-3.2 1.1-3.8 2.7-.6 1.8.3 3.2 1.2 4.7 2.4 3.8 4.7 7.7 6.9 11.6.9 1.6 2 2.8 4 2.8 1.7 0 3.3-1.1 3.8-2.7zm56.1 162.4c-.2.9 0 1.8.1 2.8l.6 3.9c.4 2.5.7 5.1 1.1 7.6.2 2 .1 4.2 1.8 5.6 1.3 1.1 3.3 1.2 4.7.3 1.7-1.1 1.9-2.9 1.7-4.7-.3-2.8-.7-5.7-1.1-8.5-.3-2-.6-4-1-6.1-.3-2.2-1.7-4-4-4-1.8 0-3.5 1.3-3.9 3.1zm-53.8-144.4l2.4 4.5c.8 1.6 1.6 3.1 2.5 4.7.7 1.3 1.2 2.7 2.5 3.4 2.3 1.3 5.3-.1 5.8-2.7.3-1.3-.2-2.4-.8-3.5-.8-1.5-1.5-2.9-2.3-4.4-.5-.9-.9-1.7-1.4-2.6-.5-1-1-2-1.6-2.9-1.1-2.3-2.2-5.6-5.3-5.6-2.6 0-4.5 2.6-3.9 5 .4 1.5 1.4 2.8 2.1 4.1zm-46-72.9c1.1 1.5 2.1 3.2 4.1 3.5 1.6.2 3.3-.6 4.1-2.1.7-1.4.6-2.9-.3-4.2-1.2-1.8-2.6-3.5-3.8-5.2-1.4-1.9-2.9-3.8-4.3-5.7-1.4-1.6-2.5-3.6-4.9-3.6-1.7 0-3.3 1.2-3.8 2.8-.5 1.6.2 3 1.1 4.2 2.6 3.4 5.2 6.8 7.8 10.3zm85 161.7l2.4 7.2c.6 1.9.9 4.4 2.7 5.6 1.5 1 3.7.9 5-.4 1.5-1.5 1.3-3.3.7-5.2-.9-2.9-1.9-5.9-2.8-8.8-.6-1.7-1.1-3.4-1.7-5.1-.6-1.6-1.9-3-4-3-1.9 0-3.6 1.4-3.9 3.2-.2.9 0 1.8.3 2.6.4 1.3.9 2.6 1.3 3.9zm26.2 88c-.3-2.1-1.9-3.7-4-3.7-1.7 0-3.3 1.2-3.8 2.8-.3.9-.1 1.9-.1 2.9 0 1.3.1 2.6.1 3.9 0 2.5 0 5-.1 7.5-.1 1.9-.5 4 1 5.5 1.2 1.2 3.1 1.6 4.7.8 1.8-.9 2.2-2.7 2.2-4.5.2-3.6.2-7.2.1-10.8 0-1.5 0-3-.1-4.4zm-5.7 27.8c-2.2 0-3.6 1.7-4 3.7-.5 2.7-1 5.4-1.8 8-.3 1.3-.7 2.5-1.1 3.7-.3 1.1-.9 2.2-1 3.3-.1 2 1.3 3.9 3.3 4.2 2.4.4 4-1.2 4.7-3.3l.6-1.8c1.2-3.7 2.1-7.5 2.8-11.3.1-.7.3-1.5.4-2.2.3-2.2-1.6-4.3-3.9-4.3zm-126-316c-1.5-1.6-2.8-3.6-5.1-3.6-1.7 0-3.3 1.2-3.8 2.8-.5 1.5.1 2.9 1.1 4.1 2.8 3.2 5.6 6.5 8.4 9.8 1.2 1.4 2.3 3.2 4.3 3.5 1.6.2 3.3-.6 4.1-2 .7-1.3.6-3-.2-4.2-1.2-1.7-2.7-3.3-4.1-4.9-1.5-1.8-3.1-3.7-4.7-5.5zm60.3 359.1c-.7-.2-1.5-.5-2.2-.7.6-2.3.5-4.6-2.3-5.6-1.6-.5-3.3 0-4.4 1.2-.5.6-.8 1.4-1 2.2-.4 1-.8 2-1.3 3-.9 1.7-2 3.3-3.3 4.8-1.2 1.3-3.1 2.5-3.7 4.2-.6 1.7 0 3.6 1.5 4.6 1.7 1.2 3.7.8 5.2-.5 2.2-1.9 4.2-4.2 5.8-6.7.3.1.5.2.8.3 3 1 7.8 3.5 9.8-.3.7-1.4.6-3.1-.4-4.4-1.1-1.4-3-1.6-4.5-2.1zm31.5 2.2c-.9 0-1.8.3-2.6.5-.9.2-1.9.3-2.8.4-2 .2-3.9.3-5.9.3-1.6 0-3.6-.5-5.1.2-1.3.5-2.2 1.7-2.4 3-.2 1.4.3 2.8 1.3 3.7 1.3 1.2 3.1 1.1 4.7 1.1h3.2c2.3-.1 4.5-.2 6.8-.6 2.4-.4 5.6-.6 6.7-3.2.8-2.5-1.1-5.4-3.9-5.4zm23.6-16.6c-2.7 0-3.9 2.7-5.4 4.5-1.6 2-3.4 3.8-5.4 5.4-1.6 1.3-3.5 2.3-3.5 4.7.1 2.3 2.1 4.1 4.3 3.9 1.2-.1 2.2-.8 3.1-1.5 1.1-.8 2.1-1.7 3.1-2.6 1.9-1.7 3.6-3.6 5.2-5.6.3-.4.7-.9 1-1.3.5-.8 1.2-1.5 1.4-2.4.7-2.6-1.2-5.1-3.8-5.1zm51.1-261.3c1.2.6 2.4 1.1 3.6 1.7 1.2.6 2.4 1 3.8.5 2-.7 3.1-3 2.4-5.1-.6-1.8-2.2-2.4-3.8-3.1-1.9-.9-3.8-1.8-5.7-2.6l-4.8-2.1c-1.1-.6-2.5-1.4-4-1.4-2.3 0-4.2 2-4 4.3.2 2.7 2.5 3.4 4.6 4.3 2.7 1.1 5.3 2.3 7.9 3.5zm-34.7-13.4c2.3.7 4.5 1.5 6.8 2.2 1.9.6 4.1 1.9 6.1 1 1.6-.7 2.6-2.4 2.4-4.2-.2-1.9-1.6-2.9-3.3-3.5-1.5-.5-2.9-1-4.4-1.5-1.3-.4-2.6-.9-3.9-1.3l-3.9-1.2c-1.3-.2-2.6-.8-3.8-.8-3.8 0-5.4 5-2.3 7.2.8.6 1.8.8 2.7 1 1.2.4 2.4.7 3.6 1.1zm79.5 44c1.1 1.3 2.2 2.6 3.3 4 1 1.3 2 2.7 2.9 4.1.8 1.2 1.7 2.1 3.2 2.3 2.8.3 5.1-2.4 4.3-5.1-.5-1.7-2.1-3.5-3.1-5-.7-1-1.4-1.9-2.2-2.8-.8-1-1.6-1.9-2.4-2.9-.9-1-1.8-2-2.7-2.9-.8-.8-1.8-1.3-3-1.3-2.9 0-4.9 3.2-3.6 5.8.7 1.5 2.3 2.6 3.3 3.8zm11.6 44.7c-2.9 0-3.8 2.7-5 4.7-1.5 2.4-3.2 4.8-5.1 7-1.6 1.9-3.6 3.7-2.4 6.3 1.1 2.4 4.2 3.1 6.2 1.5.7-.6 1.3-1.3 1.9-2 1.2-1.4 2.3-2.7 3.3-4.2 1-1.3 1.9-2.6 2.7-4 .8-1.3 1.9-2.7 2.3-4.2.7-2.5-1.3-5.1-3.9-5.1zm9-19.9c-.1-1.4-.4-2.9-.6-4.3-.5-2.2-1.6-4.4-4.3-4.4-1.9 0-3.6 1.4-3.9 3.3-.2 1 .1 1.9.3 2.8.3 1.3.4 2.5.6 3.8.2 2.6.1 5.2-.2 7.7-.2 1.7.2 3.4 1.8 4.4 2.6 1.6 5.6-.2 6.1-3.1.3-1.6.4-3.2.4-4.8v-1.7c0-1.2-.1-2.5-.2-3.7zm-42.9-43.3c1.8 1.1 3.6 2.3 5.3 3.5 1.5 1 3.1 2.8 5 3.1 1.6.3 3.3-.6 4.1-2 2.1-3.7-2.2-6-4.7-7.8-1.9-1.3-3.9-2.6-5.8-3.9-1-.6-2-1.3-3.1-1.9-1.1-.6-2-1.1-3.1-1.1-3.5 0-5.3 4.3-2.9 6.8.7.7 1.6 1.1 2.4 1.6.9.6 1.9 1.1 2.8 1.7zm13.6 86.2c-1.4 0-2.3.7-3.3 1.5-1.1.9-2.3 1.8-3.5 2.6-2.3 1.6-4.6 3.2-6.9 4.7-1.8 1.2-3.5 2.4-3.2 4.9.4 2.2 2.5 3.7 4.7 3.3 1-.2 1.8-.8 2.6-1.3 1.7-1.1 3.3-2.1 4.9-3.3 2.3-1.6 4.6-3.3 6.8-5 .8-.6 1.5-1.4 1.7-2.4.7-2.5-1.2-5-3.8-5zm-26.8 16.9c-1.9 0-3.9 1.5-5.6 2.3-1.9.9-3.8 1.8-5.8 2.7-2.8 1.3-7.9 2.4-7.1 6.6.3 1.6 1.6 2.8 3.1 3.1 2 .4 4-.9 5.8-1.7 2-.9 4.1-1.8 6.1-2.8 1.8-.9 3.8-1.7 5.6-2.8 3.4-2.1 1.9-7.4-2.1-7.4zM426.3 321c-1.3 0-2.6.7-3.9 1.1-1.4.5-2.9 1-4.4 1.5-2.8.9-5.7 1.6-8.5 2.7-1.9.8-3 2.9-2.4 4.9.6 2.1 2.8 3.2 4.8 2.7 3.9-1 7.7-2.4 11.5-3.8l2.7-.9c1.8-.7 3.6-1.4 4-3.5.6-2.4-1.3-4.7-3.8-4.7z"/><path d="M257.5 355.3c3.4 0 6.8 0 10.2-.1 2.2-.1 4.2-1.4 4.3-3.8 0-2.3-1.9-4.2-4.1-4.2-2.7 0-5.4.1-8.1.1h-3.9c-18 0-35.8-.8-53-2.3-10-14.3-19.7-29.4-28.7-45-9-15.7-17.3-31.5-24.6-47.1 7.4-15.7 15.6-31.5 24.6-47.3 9-15.5 18.5-30.6 28.5-44.9 17.3-1.5 35.1-2.2 53.2-2.2h5.7c1.4 0 3.1.3 4.4-.4 2.3-1.2 2.9-4.3 1.2-6.3-1.8-1.9-4.9-1.3-7.2-1.3h-4.1c-16.1 0-31.9.6-47.1 1.7 15.1-20.9 31.1-40 47.2-56.4 1 .9 1.9 2 2.9 3 1.3 1.3 2.5 3.2 4.5 3.5 1.6.2 3.3-.6 4.1-2 .7-1.3.6-3-.2-4.2-1.1-1.7-2.9-3.1-4.3-4.6l-1.4-1.4c1-1.1 1.8-2.2 1.5-3.9-.1-2-1.8-3.4-3.8-3.4-1.4 0-2.4.7-3.3 1.6-38.1-37.4-75.6-59.2-104.7-59.2-8.6 0-16.4 1.9-23.3 5.9-30.2 17.5-35.1 70.7-17.8 137.6-8.5 2.4-16.7 4.9-24.5 7.7-5.2-8.7-14.8-14.6-25.7-14.6-16.6 0-30 13.4-30 30 0 4 .8 7.8 2.2 11.3C11.6 217.8-.1 234.8-.1 252.9c0 34.9 43.6 65.7 110.2 84.2-17.2 66.8-12.3 120 17.9 137.4 6.9 4 14.7 5.9 23.3 5.9 29.1 0 66.6-21.9 104.7-59.2l1.2 1.2c1.5 1.5 3 3.5 5.3 3.3 1.9-.1 3.5-1.7 3.7-3.7.2-2.2-1.6-3.5-3-4.9-.5-.5-1-1-1.6-1.5l1.5-1.5c1-1 2-2 2.1-3.6 0-2.2-1.9-4.1-4.1-4.1s-3.7 1.9-5.1 3.4c-16.1-16.4-31.9-35.5-47-56.2 15.2 1.1 30.9 1.7 46.9 1.7h1.6zM167.3 304c8.1 14 16.5 27.3 25.1 40-25.7-2.7-50.1-7-72.4-12.7 6.2-22.2 14.7-45.4 25.2-69 6.7 13.8 14 27.8 22.1 41.7zm0-102.4c-8.1 14-15.4 27.9-22.1 41.8-10.6-23.6-19.1-46.8-25.3-69 22.3-5.7 46.7-10 72.4-12.6-8.6 12.5-17 25.9-25 39.8zm-56.6-70.5c-3.5-24.1-3.3-44.5.6-60.8C115.1 54.6 122 43.8 132 38c5.5-3.2 12-4.8 19.3-4.8 23.6 0 54.9 16.6 88.2 46.7 3.6 3.3 7.2 6.7 10.8 10.2-17.6 18-35.2 39.2-52 63-29 2.7-56.1 7.3-80.4 13.5-3.2-12.2-5.6-24.1-7.2-35.5zM78 317.8c-22.6-9-40.2-19.4-52.3-30.9C13.9 275.8 8 264.3 8 252.8s5.9-23 17.6-34c3.2-3 6.7-5.9 10.6-8.7 5.5 7.1 14.1 11.7 23.8 11.7 16.6 0 30-13.4 30-30 0-2.8-.4-5.5-1.1-8 7.5-2.7 15.3-5.1 23.4-7.4 6.8 24.2 16.3 50 28.5 76.4-12.2 26.5-21.7 52.3-28.5 76.4-12.2-3.3-23.6-7.2-34.3-11.4zm172.3 97.7c-3.6 3.5-7.2 6.9-10.8 10.2-33.3 30.1-64.6 46.7-88.2 46.7-7.3 0-13.8-1.6-19.3-4.8-10-5.8-16.9-16.6-20.7-32.3-3.9-16.3-4.1-36.7-.6-60.8 1.6-11.3 4.1-23.2 7.2-35.3 24.3 6.2 51.5 10.9 80.6 13.5 16.7 23.7 34.2 44.9 51.8 62.8zm92.6-251.2c.9.5 2 .5 3 .7 1.4.2 2.7.4 4.1.6 2.6.4 5.1.8 7.7 1.3 2 .4 4.1.9 5.7-.6 1.3-1.2 1.6-3.2.8-4.7-1-2-3.1-2.1-5.1-2.5-.9-.2-1.9-.3-2.8-.5-1.5-.2-2.9-.5-4.4-.7-1.4-.2-2.8-.5-4.3-.7-.9-.2-1.9-.4-2.8-.4-4.1 0-5.5 5.7-1.9 7.5zm-12.8 186.5c1.1-.1 2.4-.1 3.5-.5 4.2-1.4 3.2-7.8-1.2-7.8-2.3 0-4.8.6-7.1.8-1.9.2-3.7.4-5.6.6 1-1.4 1.9-2.8 2.8-4.2 1.1-1.7 2.9-3.5 2.6-5.7-.3-1.9-2.1-3.4-4-3.4-2.1 0-3.1 1.5-4.2 3.1-1.3 1.9-2.5 3.8-3.8 5.7-1.3 1.9-2.6 3.8-3.9 5.6-1 1.4-1.6 2.9-.8 4.6.7 1.6 2.5 2.5 4.2 2.3.5-.1.9-.2 1.3-.5 1.7 1.2 4 .6 6 .5 2.2-.2 4.5-.5 6.7-.7 1.2-.1 2.3-.3 3.5-.4zm-45.5 3.8c2.4-.1 4.9-.2 7.3-.4 1.2-.1 2.5-.1 3.7-.2 1.1-.1 2.2-.1 3.3-.2 1-.1 2.1 0 3.1-.5 3.7-1.9 2.3-7.6-1.8-7.6-2.4 0-4.7.3-7.1.4-2.3.1-4.7.3-7 .4-1.9.1-3.8 0-5.1 1.6-1 1.3-1.2 3.1-.4 4.5.9 1.5 2.4 2.1 4 2zm9.4-203.1c-4.5-.2-9-.6-13.5-.6-3.5 0-5.3 4.5-2.8 6.9 1.4 1.4 3.5 1.1 5.3 1.2 2.4.1 4.7.2 7.1.3 2.2.1 4.6.5 6.8.4 1.5-.1 2.9-1.1 3.5-2.6.6-1.5.2-3.2-1-4.3-1.4-1.4-3.6-1.1-5.4-1.3zm66.8 194.9c1.6-.3 3.5-.4 5-1 3.9-1.9 2.6-7.8-1.6-7.8-1.1 0-2.3.4-3.4.6-1.2.2-2.4.4-3.6.7l-7.2 1.2c-1.8.3-3.8.3-4.9 2-1 1.4-1 3.2-.1 4.6 1.1 1.6 2.9 1.9 4.7 1.6 2.3-.4 4.7-.8 7-1.2 1.4-.2 2.8-.5 4.1-.7zm24.5-5.2c2.1-.5 4.1-1 6.2-1.5.9-.2 1.7-.4 2.6-.6.2.9.5 1.8.7 2.7l1.8 7.5c.5 2 .7 4.1 2.8 5 1.8.8 3.9.1 4.9-1.5 1.2-1.9.3-4.2-.2-6.3-.5-2.3-1.1-4.6-1.7-6.9-.4-1.7-.9-3.4-1.3-5.2-.4-1.5-1.5-3-3.3-3.2-.6-.4-1.3-.7-2.2-.7-1 0-1.9.4-2.9.6-1.1.3-2.2.6-3.4.9-2.1.5-4.3 1.1-6.5 1.6-1.8.4-4.1.5-5.6 1.7-1.2 1-1.7 2.7-1.2 4.2.4 1.5 1.8 2.6 3.3 2.8.9.1 1.7-.1 2.6-.3 1.1-.3 2.3-.5 3.4-.8zm-51.7 95.9c-1-1.4-2.2-3.3-3.9-3.9-3.7-1.4-6.9 3.1-4.6 6.2 1.4 1.8 2.7 3.4 3.8 5.5 1.2 1.9 2 4.2 2.5 6.5.7 3.5 5.3 4.7 7.3 1.6 1-1.5.6-3 .2-4.6-.5-2-1.2-4-2.1-5.9-.9-1.9-1.9-3.7-3.2-5.4zm-49 34.6c-.6-1-1.2-1.9-1.7-2.9-1-2.1-1.8-4.3-2.3-6.5-.3-1.7-1-3.1-2.8-3.7-1.5-.5-3.3 0-4.3 1.2-1.3 1.4-1 3.1-.6 4.8.5 1.9 1.1 3.9 1.9 5.7.7 1.9 1.7 3.6 2.8 5.3 1 1.5 2.2 3.6 3.9 4.4 3.5 1.8 7.2-2.4 5.1-5.7-.6-.9-1.4-1.7-2-2.6zm-.5-40.9c-1 .8-2 1.8-2.9 2.7l-1.5-1.3c-1.5-1.4-3.2-3.6-5.5-3.6-3.5 0-5.3 4.3-2.8 6.8 1.5 1.5 3.2 2.8 4.8 4.2.1.1.2.2.4.3 0 0 0 .1-.1.1-1.5 2.7-4.3 7.1-1.3 9.7 1.4 1.2 3.6 1.3 5.1.1 1.4-1.1 1.8-3.2 2.6-4.8.9-1.7 2-3.4 3.2-4.9.6-.8 1.3-1.5 2-2.1.7-.7 1.5-1.2 2-2 2.3-3.8-2.7-8-6-5.2zm26.9 51.5c-4.3.8-8.8.6-13-.8-1.6-.5-3.1-.6-4.4.6-1.2 1-1.7 2.7-1.2 4.2.5 1.7 1.9 2.5 3.6 3 2.1.7 4.2 1.1 6.4 1.3 2.1.2 4.3.3 6.4.1 1.7-.1 3.9-.2 5.4-1.2 3.3-2.4.9-8-3.2-7.2zm5.6-57.8c-4.1-1.3-8.4-1.9-12.7-1.6-3.1.2-8.5.5-8.2 4.9.1 1.6 1.2 3 2.7 3.5 1.7.6 3.7-.2 5.5-.3 2.1-.2 4.2-.1 6.3.2 1 .2 1.9.4 2.9.6 1.1.3 2 .7 3.1.4 3.9-.8 4.2-6.5.4-7.7zm63.1-302c1 1.5 2.2 3.6 3.9 4.4 3.5 1.7 7.3-2.4 5.1-5.7-.6-.9-1.4-1.7-2-2.6-.6-.9-1.2-1.9-1.7-2.9-1.1-2-1.9-4.2-2.4-6.5-.4-1.7-1.1-3.2-2.8-3.7-1.5-.5-3.3 0-4.3 1.2-1.2 1.4-.9 3.1-.5 4.8.5 2 1.1 3.9 1.9 5.7s1.7 3.6 2.8 5.3zm-2.6-25.8c1.4 1.2 3.6 1.3 5.1.1s1.8-3.2 2.6-4.8c.9-1.8 2-3.4 3.2-4.9.6-.7 1.3-1.4 2-2.1.7-.6 1.5-1.2 2-2 2.4-3.8-2.6-8-6-5.2-3 2.6-5.6 5.7-7.6 9.2-1.5 2.7-4.3 7.1-1.3 9.7zm53.8-4.8c1.2 2 2 4.2 2.5 6.5.7 3.5 5.3 4.7 7.3 1.6 1-1.5.6-3 .2-4.6-.5-2-1.2-4-2.1-5.9-.9-1.9-1.9-3.7-3.2-5.4-1-1.4-2.2-3.3-3.9-3.9-3.7-1.4-6.9 3.1-4.6 6.2 1.4 1.8 2.7 3.4 3.8 5.5zm6.8 17.7c-1.6-.5-3.3 0-4.4 1.2-.5.6-.8 1.4-1 2.2-.4 1-.8 2-1.3 3-.9 1.7-2 3.3-3.3 4.8-1.2 1.3-3.1 2.5-3.7 4.2-.6 1.7 0 3.6 1.5 4.6 1.7 1.2 3.7.8 5.2-.5 3-2.6 5.4-5.8 7.3-9.3 1.5-2.8 4.5-8.6-.3-10.2z"/></svg>