<svg version="1.1" xmlns="http://www.w3.org/2000/svg" x="0" y="0" viewBox="0 0 512 512" xml:space="preserve"><path d="M452 250.7c-4.5 0-9 .5-13.2 1.5l-12.1-53.1c26.6-6.1 46.6-30 46.6-58.5 0-33.1-26.9-60-60-60-23.8 0-44.4 13.9-54.1 34L310 91c3.8-7.9 6-16.8 6-26.1 0-33.1-26.9-60-60-60s-60 26.9-60 60c0 9.3 2.1 18.1 5.9 26l-49.1 23.6c-9.7-20-30.2-33.9-54-33.9-33.1 0-60 26.9-60 60 0 28.5 20 52.5 46.7 58.5l-12.2 53.1c-4.3-1-8.7-1.5-13.3-1.5-33.1 0-60 26.9-60 60s26.9 60 60 60c14.1 0 27.1-4.9 37.4-13.1l34 42.7c-13.8 11-22.6 27.9-22.6 46.9 0 33.1 26.9 60 60 60s60-26.9 60-60h54.4c0 33.1 26.9 60 60 60s60-26.9 60-60c0-19-8.8-35.9-22.6-46.9l34-42.6c10.3 8.2 23.3 13.1 37.4 13.1 33.1 0 60-26.9 60-60 0-33.2-26.9-60.1-60-60.1zm-38.8-138.1c15.4 0 28 12.6 28 28s-12.6 28-28 28-28-12.6-28-28 12.5-28 28-28zM256 36.9c15.4 0 28 12.6 28 28s-12.6 28-28 28-28-12.6-28-28 12.6-28 28-28zM70.8 140.6c0-15.4 12.6-28 28-28s28 12.6 28 28-12.6 28-28 28-28-12.6-28-28zM60 338.7c-15.4 0-28-12.6-28-28s12.6-28 28-28 28 12.6 28 28-12.6 28-28 28zm108.8 136.4c-15.4 0-28-12.6-28-28s12.5-28 28-28c15.4 0 28 12.6 28 28s-12.6 28-28 28zm174.4 0c-15.4 0-28-12.6-28-28s12.6-28 28-28 28 12.6 28 28-12.6 28-28 28zm0-88c-21.3 0-40.1 11.2-50.7 28h-73c-10.6-16.8-29.4-28-50.7-28-2.2 0-4.4.1-6.6.4l-45.5-57.1c2.1-6.2 3.3-12.8 3.3-19.6 0-16.5-6.7-31.5-17.5-42.3l16.3-71.2c21.3-7.5 37-26.7 39.6-49.9l65.6-31.7c9.3 5.8 20.2 9.2 31.9 9.2 11.6 0 22.5-3.3 31.7-9.1l65.9 31.8c2.7 23 18.5 42.1 39.7 49.6l16.3 71.1c-10.9 10.9-17.6 25.9-17.6 42.4 0 6.9 1.2 13.5 3.3 19.7l-45.5 57.1c-2-.3-4.2-.4-6.5-.4zM452 338.7c-15.4 0-28-12.6-28-28s12.6-28 28-28 28 12.6 28 28-12.6 28-28 28z"/></svg>