<svg version="1.1" xmlns="http://www.w3.org/2000/svg" x="0" y="0" viewBox="0 0 512 512" xml:space="preserve"><path d="M452 316c33.1 0 60-26.9 60-60s-26.9-60-60-60c-6.5 0-12.7 1-18.5 2.9l-.4-1.1c24-7.8 41.4-30.4 41.4-57.1 0-33.1-26.9-60-60-60-20 0-37.6 9.8-48.6 24.8l-1-.7c7.2-9.9 11.5-22.1 11.5-35.3 0-33.1-26.9-60-60-60s-60 26.9-60 60h-1.2c0-33.1-26.8-60-60-60-33.1 0-60 26.9-60 60 0 13.2 4.3 25.3 11.5 35.2l-.9.7c-10.9-15-28.5-24.7-48.5-24.7-33.1 0-60 26.9-60 60 0 26.6 17.4 49.3 41.5 57.1l-.4 1.1C72.7 197 66.5 196 60 196c-33.1 0-60 26.9-60 60s26.9 60 60 60c6.5 0 12.7-1 18.6-2.9l.4 1.1c-24.1 7.8-41.5 30.4-41.5 57.1 0 33.1 26.9 60 60 60 20 0 37.6-9.8 48.6-24.8l1 .7c-7.2 9.9-11.5 22.1-11.5 35.3 0 33.1 26.9 60 60 60s60-26.9 60-60h1.2c0 33.1 26.9 60 60 60s60-26.9 60-60c0-13.2-4.3-25.4-11.5-35.3l1-.7c10.9 15 28.6 24.8 48.5 24.8 33.1 0 60-26.9 60-60 0-26.6-17.4-49.3-41.5-57.1l.4-1.1c5.6 1.9 11.8 2.9 18.3 2.9zm28-60c0 15.4-12.6 28-28 28s-28-12.6-28-28 12.6-28 28-28 28 12.6 28 28zm-65.4-143.2c15.4 0 28 12.6 28 28s-12.6 28-28 28-28-12.6-28-28 12.5-28 28-28zm-98-71.2c15.4 0 28 12.6 28 28s-12.6 28-28 28-28-12.6-28-28 12.5-28 28-28zm-121.2 0c15.4 0 28 12.6 28 28s-12.6 28-28 28-28-12.6-28-28 12.6-28 28-28zm-126 99.2c0-15.4 12.6-28 28-28s28 12.6 28 28-12.6 28-28 28-28-12.6-28-28zM32 256c0-15.4 12.6-28 28-28s28 12.6 28 28-12.6 28-28 28-28-12.6-28-28zm65.4 143.2c-15.4 0-28-12.6-28-28s12.6-28 28-28 28 12.6 28 28-12.6 28-28 28zm98 71.2c-15.4 0-28-12.6-28-28s12.6-28 28-28 28 12.6 28 28-12.6 28-28 28zm121.2 0c-15.4 0-28-12.6-28-28s12.5-28 28-28c15.4 0 28 12.6 28 28s-12.6 28-28 28zm38-99.2c0 1.3.1 2.6.1 3.9l-15.9 11.5c-6.9-2.8-14.4-4.3-22.2-4.3-21.3 0-40.1 11.2-50.7 28h-19.7c-10.6-16.8-29.3-28-50.7-28-7.9 0-15.4 1.5-22.2 4.3L157.4 375c.1-1.3.1-2.6.1-3.9 0-28-19.2-51.5-45.2-58.2l-6.1-18.7c8.7-10.4 13.9-23.8 13.9-38.3s-5.2-27.9-13.9-38.3l6.1-18.7c25.9-6.6 45.2-30.2 45.2-58.1 0-1.3-.1-2.7-.1-4l15.9-11.5c6.9 2.8 14.4 4.3 22.3 4.3 21.3 0 40.1-11.2 50.7-28h19.8c10.6 16.8 29.4 28 50.7 28 7.9 0 15.4-1.5 22.2-4.3l15.9 11.6c-.1 1.3-.1 2.6-.1 3.9 0 28 19.3 51.6 45.2 58.2l6.1 18.7C397.2 228 392 241.4 392 256c0 14.6 5.2 27.9 13.9 38.3l-6.1 18.7c-26 6.7-45.2 30.2-45.2 58.2zm88 0c0 15.4-12.6 28-28 28s-28-12.6-28-28 12.5-28 28-28c15.4 0 28 12.6 28 28z"/></svg>