<svg version="1.1" xmlns="http://www.w3.org/2000/svg" x="0" y="0" viewBox="0 0 512 512" xml:space="preserve"><path d="M435.7 117.9c-42-96.6-152.6-142.3-250-104.8l.3-2.8c.2-2.1-1.7-3.7-3.7-3.2l-5.7 1.4c-1.3.3-2.5.9-3.6 1.6l-5 3.2c-1.7 1.1-1.8 3.6-.2 4.9l2.3 1.7C76.2 65.6 34.2 177.6 76.3 274.2c10.4 24 25.1 44.8 42.7 62.1v18.5c0 1.8.8 3.5 2.2 4.6 34 28.1 77 45.9 123.9 48.3l-1.6 42.4-88.1 26.6c-2.5.8-4.3 3.1-4.3 5.7v3.5c0 3.3 2.7 6 6 6h7.2c2.5 0 5-.3 7.5-.9l75.2-18h8.4l56 38c1 .7 2.2 1 3.4 1h4.2c3.3 0 6-2.7 6-6v-4.3c0-1.7-.7-3.4-2-4.5L285.3 464l17.4-3.1c3-.5 5.1-3.3 4.9-6.3l-.3-4.2c-.2-3.1-2.7-5.5-5.8-5.6l-33.1-.8-1.8-46.2c-.1-1.6-1.4-2.9-3-2.9h-15.2c-1.6 0-2.9 1.3-3 2.9l-.1 1.8c-43.7-2.3-83.9-18.4-116.1-44-1.4-1.1-2.2-2.9-2.2-4.7v-7.4c53.2 46.5 129.6 62.2 199.2 35.4l-.3 2.8c-.2 2.1 1.7 3.7 3.7 3.2l5.7-1.4c1.3-.3 2.5-.9 3.6-1.6l5-3.2c1.7-1.1 1.8-3.6.2-4.9l-2.3-1.7c94-45.6 136-157.6 93.9-254.2zM258 384.1c-24.3.2-48.1-4.2-70.9-13.1-22.7-9-43.2-22-60.8-38.7-18.2-17.3-32.6-37.9-42.7-61.2-10.1-23.3-15.4-47.8-15.6-73-.2-24.3 4.2-48.1 13.1-70.9 9-22.7 22-43.2 38.7-60.8 16.9-17.7 36.9-31.8 59.4-41.9l5.2 11.9C97.2 75.5 57.3 178 95.5 265.8c38.2 87.9 140.3 128.6 228.4 91.5l5.2 11.9c-22.7 9.6-46.6 14.6-71.1 14.9zm69.6-28.4c87.2-39.1 127.1-141.6 88.9-229.4C378.3 38.4 276.1-2.3 188.1 34.8l-2.1-4.9c90.8-38.3 196.1 3.7 235.4 94.2 39.4 90.6-1.7 196.2-91.6 236.5l-2.2-4.9zm-180.2-32.8c-.2-.2-.4-.4-.6-.5.2-.4.5-1.1 1.2-2 5.4 1.1 13-.6 22.2-4.6 19.9-8.7 47.4-28.4 77-55.4 4.5-2.1 9.2-4.3 13.9-6.4 5.3 11 10.4 21.4 15.5 31.1-30.7 12.8-60 23.4-83.8 30.2-32.2 9.3-42.4 8.4-45.4 7.6zm-2.2-8.1c-4.6-4.3-3.6-19.4 13.1-49 25.8-5.8 58.1-16.2 92.8-30.3h1.2c1.6 3.4 3.1 6.8 4.7 10.1-4.1 3.9-8.1 7.7-12.1 11.4-48.9 23.1-86.4 45.6-98.3 58.7-.5-.2-1-.5-1.4-.9zm8.8-52.1c-15.1 3.2-27.9 4.8-37 4.5-7.9-.3-13-1.9-14.1-4.6s1.2-7.5 6.3-13.5c6-6.9 15.8-15.2 28.5-24 1.8-1.3 3.7-2.5 5.5-3.8 9.7 3.1 21.2 5.8 34 8-8.4 11.7-15.6 22.8-21.5 32.9-.5.3-1.1.4-1.7.5zm-64.8-73.8c1.4-2.7 7.8-10.8 36.4-28 21.3-12.7 49-27 79.3-40.7 3.7 10.3 7.8 21.2 12.2 32.5-5.5 2.3-10.9 4.5-16.2 6.6-45.1 4.9-79 15.6-88.9 28.7-15.8 3.2-21.2 2.2-22.8 1.6-.1-.1 0-.4 0-.7zM364.6 69.2c.2.2.4.4.6.5-.9 2.2-6.2 10.2-36.6 28.4-20.9 12.5-48 26.4-77.6 39.9-5.3-11-10.4-21.4-15.5-31.1 30.7-12.8 60-23.4 83.8-30.2 32.1-9.2 42.3-8.3 45.3-7.5zm-117.3 70.5l-11.4 5.1-14-32.1 9.9-4.2c5.1 9.7 10.3 20.2 15.5 31.2zm161.8-10.2c1.1 2.6-1.2 7.5-6.3 13.5-6 6.9-15.8 15.2-28.5 24-1.8 1.3-3.7 2.5-5.5 3.8-19.4-6.2-45.7-10.8-75.8-12.9-.8-.1-1.6-.1-2.5-.2h-.1c-6.3-.4-12.7-.7-19.3-.9 31.8-12.5 61.9-22 86.8-27.4 15.1-3.2 27.9-4.8 37-4.5 8 .3 13.1 1.9 14.2 4.6zm13.7 73.7c-1.4 2.7-7.8 10.8-36.4 28-21.3 12.7-49 27-79.3 40.7-3.7-10.3-7.8-21.2-12.2-32.5 5.5-2.3 10.9-4.5 16.2-6.6 45.1-4.9 79-15.6 88.9-28.7 15.8-3.2 21.2-2.2 22.8-1.6.1.1 0 .4 0 .7zM322.4 343.7l-27.1-62.2 9.6-4.2c2.5 7.2 4.9 14.1 6.9 20.6 9.1 28.5 10.7 40.7 10.6 45.8zm-28.7-65.9l-14-32.1c3.9-1.7 7.7-3.3 11.5-4.9 4.5 11.4 8.6 22.3 12.2 32.7-3.1 1.4-6.4 2.8-9.7 4.3zm-31.8-31.3c3.2-3.1 6.5-6.4 9.7-9.6l2.9 6.7c-3.9 1.7-7.8 3.4-11.6 5.1-.3-.7-.7-1.4-1-2.2zm-2.6 3.9l-2.7 1.2c.8-.7 1.5-1.4 2.3-2.2.1.4.2.7.4 1zm-22.5-93.5c-4.6.2-9.2.4-13.6.7-.3-.8-.7-1.7-1-2.5 3.8-1.6 7.7-3.3 11.6-5l3 6.8zm52 77.7c.3.8.7 1.7 1 2.5-3.8 1.6-7.7 3.3-11.6 5l-3-6.8c4.6-.2 9.2-.5 13.6-.7zm-21.4.8c-2.4 2.5-4.9 4.9-7.3 7.3-1.1-2.4-2.2-4.7-3.3-7.1 3.5-.1 7.1-.1 10.6-.2zm26.1.1c-.2-.4-.3-.8-.5-1.2l4.2-.3c-1.2.5-2.4 1-3.7 1.5zm-52.4-78.7l-3.6-8.3c3.9-1.7 7.8-3.4 11.6-5.1 2.1 4.3 4.1 8.7 6.2 13.2-4.8 0-9.5 0-14.2.2zm-20.7-47.7l-27.1-62.2c3.8 3.4 11.6 12.8 26.3 39 3.3 5.9 6.8 12.4 10.3 19.1-3.1 1.3-6.3 2.7-9.5 4.1zm-30.8-60.7l27.1 62.2-9.6 4.2c-2.5-7.2-4.9-14.1-6.9-20.6-9.1-28.5-10.7-40.7-10.6-45.8zm28.7 65.9l14 32.1c-3.9 1.7-7.7 3.3-11.5 4.9-4.5-11.4-8.6-22.3-12.2-32.7 3.1-1.4 6.4-2.8 9.7-4.3zm.2 42.3c.2.4.3.8.5 1.2l-4.2.3c1.2-.5 2.4-1 3.7-1.5zm-36.9 73.5c17.7 2.8 37.8 4.6 59.2 5.2-28.8 11.4-56.3 20.2-79.7 25.8 5.8-9.8 12.7-20.2 20.5-31zm52.5 36.6c-24.8 21.6-47.9 37.8-65.6 45.5-7 3.1-13 4.6-17.3 4.5 4.6-4.5 13.8-11.8 32.1-22.8 14.4-8.6 31.8-17.9 50.8-27.2zm30.6-14.3l11.4-5.1 14 32.1-9.9 4.2c-5.1-9.7-10.3-20.2-15.5-31.2zm26.9 30.6l27.1 62.2c-3.8-3.4-11.6-12.8-26.3-39-3.3-5.9-6.8-12.4-10.4-19.1 3.2-1.3 6.4-2.7 9.6-4.1zm33.8 50.6c-1.4-8.6-4.5-20.4-9.2-35.2-2.3-7.2-4.8-14.8-7.7-22.9 55.7-25.2 99.6-50.6 113.8-65.4-5 58.1-40.4 111.9-96.9 137.7 1.2-2.5 1.2-7.1 0-14.2zM423 198.2c-4.1-1-11.2-.5-20.5 1.2.3-1.1.5-2.2.5-3.3 0-8.9-11-17.1-29.5-23.7 20.5-14 34.2-26.5 38.5-35.8 7.7 20.1 11.3 41 11 61.6zm-162.1-41.6h-1.2c-2.3-5-4.7-10-7-14.9 61.3-27.9 108-55.9 115.6-69.2 15.2 13.8 28.1 30.6 37.6 50.1-20-6.7-78 6.7-145 34zm-27.2-53.2c-4-7.6-7.8-14.7-11.5-21.2-7.6-13.4-14.2-23.8-19.5-30.7-4.3-5.7-7.7-8.8-10.4-9.8 57.4-23.7 120.8-12.9 166.8 23-20.4.4-69.1 15.2-125.4 38.7zm-47.1-44.9c1.4 8.6 4.5 20.4 9.2 35.2 2.3 7.2 4.8 14.8 7.7 22.9-55.7 25.2-99.6 50.6-113.8 65.4 5-58.1 40.4-111.9 96.9-137.7-1.2 2.5-1.2 7.1 0 14.2zM89 193.9c4.1 1 11.2.5 20.5-1.2-.3 1.1-.5 2.2-.5 3.3 0 8.9 11 17.1 29.5 23.7-20.5 14-34.2 26.5-38.5 35.8-7.7-20.1-11.3-41-11-61.6zm64.1 73.1c-13.6 24.9-18.2 43.7-10.6 50.8.5.5 1 .8 1.6 1.2-.2.2-.3.5-.4.7-15.2-13.8-28.1-30.6-37.6-50.1 8.9 2.9 25.5 1.9 47-2.6zm125.2 21.7c4 7.6 7.8 14.7 11.5 21.2 7.6 13.4 14.2 23.8 19.5 30.7 4.3 5.7 7.7 8.8 10.4 9.8-57.4 23.7-120.8 12.9-166.8-23 20.4-.4 69.1-15.2 125.4-38.7zm54.5 78.9l-2.3-5.2c90.9-40.7 132.5-147.5 92.7-239.1S276.9-10.7 185.1 28l-2.3-5.2C205.6 13.3 229.5 8.3 254 8c24.3-.2 48.1 4.2 70.9 13.1 22.7 9 43.2 22 60.8 38.7 18.2 17.3 32.6 37.9 42.7 61.2 10.1 23.3 15.4 47.8 15.6 73 .2 24.3-4.2 48.1-13.1 70.9-9 22.7-22 43.2-38.7 60.8-16.9 17.8-36.9 31.9-59.4 41.9z"/></svg>