<svg version="1.1" xmlns="http://www.w3.org/2000/svg" x="0" y="0" viewBox="0 0 512 512" xml:space="preserve"><path d="M235 381h42v4h-42v-4zm0-95h42v4h-42v-4zm0-95h42v4h-42v-4zm0 171h21v4h-21v-4zm0-19h21v4h-21v-4zm0-19h21v4h-21v-4zm0-19h21v4h-21v-4zm0-38h21v4h-21v-4zm0-19h21v4h-21v-4zm0-19h21v4h-21v-4zm0-19h21v4h-21v-4zm0-38h21v4h-21v-4zm199.1 90.2c36.5-38 77.8-81.1 77.8-122.2 0-51.8-42.2-94-94-94-3.7 0-7.3.2-10.8.6L415 0H54.2c-5.7 0-8.2 7.2-3.7 10.7L72.2 28c5.7 4.5 9.7 10.8 11.3 17.9L168 417l-79.9 53.3c-4.5 3-7.1 8-7.1 13.3V512h350v-28.4c0-5.4-2.7-10.4-7.1-13.3L344 417l15.7-92.5c3.1 19.4 9.5 32.5 10.4 34.4 3.5 7 10.6 11.1 17.9 11.1 3 0 6.1-.7 8.9-2.2 9.8-4.9 13.8-16.9 8.9-26.8-.1-.1-4.5-9.2-6.7-22.9-1.4-9.1 1.2-18.5 7.1-25.6 7.6-9.2 18.8-20.8 27.9-30.3zM235 96h42v4h-42v-4zm0 19h21v4h-21v-4zm0 19h21v4h-21v-4zm0 19h21v4h-21v-4zm100 221.4c-2.6 15.4-15.9 26.6-31.5 26.6h-97.2c-14.9 0-27.9-10.3-31.2-24.9L126.8 164h244L335 374.4zm32.8-97.3l32-188c5.7-2 11.7-3.1 18.1-3.1 29.8 0 54 24.2 54 54 0 6.9-3.4 19.8-19.9 41.9-13.2 17.8-31 36.3-46.7 52.7-17 17.8-29.6 31.1-37.5 42.5z"/></svg>