<svg version="1.1" xmlns="http://www.w3.org/2000/svg" x="0" y="0" viewBox="0 0 512 512" xml:space="preserve"><path d="M256 306c-27.6 0-50-22.4-50-50s22.4-50 50-50 50 22.4 50 50-22.4 50-50 50zM24.4 288.9l-2.3-2.3c-1.6-1.7-3.1-3.4-4.5-5.2-1.2-1.6-2.3-3.5-4.6-3.5-1.6 0-3.2 1.1-3.7 2.6-.6 1.6-.1 3 .9 4.3 2.4 3.3 5.1 6.3 7.9 9.2 1.3 1.3 2.7 3.1 4.6 3.4 1.7.2 3.4-.6 4.2-2.1.7-1.3.5-3-.4-4.2-.5-.9-1.4-1.5-2.1-2.2zm180.5 67c3.7-1.5 3-7-.9-7.7-.4-.1-.8-.1-1.3-.2-.2-.3-.5-.7-.7-1-.7-1-1.4-2-2.1-3.1-1.5-2.2-2.9-4.3-4.4-6.5-1.2-1.8-2.2-3.8-4.6-3.8-1.8 0-3.4 1.2-3.9 2.9-.5 1.9.5 3.2 1.5 4.7 1.3 1.9 2.6 3.8 3.8 5.7-.3 0-.6-.1-.9-.1-1.3-.1-2.8-.4-4.1-.4-3.9 0-5.4 5.2-2.2 7.4.9.6 1.9.6 2.9.8 1.2.1 2.4.3 3.5.4.7.1 1.5.2 2.2.2 1.7.2 3.5.3 5.2.5 2 .3 4.3.9 6 .2zm-80.6-187.7c-.9.2-1.9.5-2.8.7-.9.2-1.8.4-2.7.7-.3.1-.6.1-.9.2-.1-.3-.2-.6-.2-.9l-1.8-7.5c-.5-1.9-1.9-3.3-3.9-3.3-1.7 0-3.3 1.1-3.8 2.7-.3.9-.2 1.8 0 2.8.7 2.8 1.4 5.6 2.1 8.3-.2.1-.3.2-.4.3-3 2.5-.9 6.9 2.5 7 .4.8.9 1.5 1.8 1.9 1.6.8 3.6.5 4.8-.8.8-.9 1-1.8 1-2.8 2.8-.7 5.6-1.5 8.4-2.2 2.1-.5 3.8-1.9 3.7-4.2-.1-2.1-1.9-3.8-4-3.8-1.4.1-2.6.6-3.8.9zM50.8 308.1c-1.8-1.1-3.6-2.1-5.3-3.2-1.7-1-3.4-2.1-5-3.2-1.5-1-3-2.5-4.8-2.5-2.8 0-4.8 3-3.7 5.5.5 1.1 1.4 1.8 2.4 2.4.7.5 1.5 1 2.2 1.5.6.4 1.3.9 2 1.3 1.4.9 2.8 1.8 4.2 2.6 1.6.9 3.2 2.1 4.9 2.8 2.7 1.1 5.7-1.1 5.5-4-.3-1.4-1.2-2.5-2.4-3.2zM10 267.6c-.6-2.5-1.4-4.8-1.7-7.4-.2-1.3-.2-2.6-.3-3.8 0-1 .2-2.1 0-3.1-.4-1.8-2.1-3.1-3.9-3.1-1.6 0-3.2 1.1-3.7 2.6-.4 1-.3 2.1-.3 3.1v1c0 .9.1 1.7.1 2.6.2 3 .8 5.9 1.7 8.8.1.5.3.9.4 1.4.8 2.4 3.4 3.8 5.8 2.5 1.5-1 2.3-2.8 1.9-4.6zm318.3-101.8c1.5.1 3-.5 3.8-1.8.9-1.3.9-3.1 0-4.4-1-1.6-2.7-1.8-4.4-2-2.4-.3-4.9-.6-7.3-.8-2.5-.3-5.2-.7-7.7-.7-3.4 0-5.3 4.3-2.9 6.8.2.2.4.4.7.5-.3 1.5.3 2.7 1.2 3.9 2.5 3.6 4.9 7.2 7.3 10.9 1 1.5 1.9 3.1 3.9 3.4 1.6.2 3.3-.6 4.1-2 .7-1.3.6-2.8-.1-4.1-1.1-1.9-2.4-3.7-3.7-5.5-1.1-1.7-2.3-3.4-3.5-5.1.6.1 1.3.1 1.9.2 2.2.2 4.4.5 6.7.7zm-250.8 155l-7.2-3c-1.2-.5-2.4-1.1-3.6-1.6-1.1-.5-2.3-1.2-3.5-1.2-3.6 0-5.4 4.7-2.6 7 .7.6 1.7 1 2.6 1.4 1 .5 2 .9 3.1 1.4l6.3 2.7c2.4 1 5.5 2.9 7.9.9 1.3-1.1 1.8-2.9 1.2-4.4-.7-2-2.5-2.5-4.2-3.2zM173 345c-1.2-.5-2.7-.5-3.9-.7-1.5-.2-3-.4-4.5-.7-1.5-.2-3.1-.5-4.6-.7-1.5-.2-3-.7-4.5-.7-4.3 0-5.5 6.2-1.5 7.7 1.8.7 4 .8 5.9 1.1.5.1 1 .2 1.5.2 3.2.5 6.5 1.3 9.8 1.5 4.2.2 5.8-6 1.8-7.7zm-65.4-5.6c1 .2 2.1 0 2.9-.6-.2.8-.4 1.5-.5 2.2-.6 2.3-1.2 4.6-1.7 7-.3 1.2-.6 2.4-.8 3.6-.2 1.1-.6 2.1-.3 3.2.5 1.9 2.2 3.2 4.2 3.1 2-.1 3.3-1.6 3.7-3.5.6-2.5 1.1-5 1.7-7.5.4-1.5.7-2.9 1.1-4.4.3-1.3.9-2.7 1-4.1.1-2.3-1.7-4.2-4-4.2-1.1 0-1.9.4-2.5.9 0-.7-.3-1.4-.7-2-1.1-1.5-3-1.8-4.7-2.3-2.4-.7-4.7-1.4-7.1-2.2-1.2-.4-2.3-.7-3.5-1.1-1.1-.4-2.3-.9-3.4-.9-3.4 0-5.2 4.1-3 6.6 1.2 1.4 3.3 1.7 5 2.2 2.1.7 4.2 1.3 6.3 2 2 .8 4.1 1.7 6.3 2zm-96.7-97.5c1-1.6 1.7-3.5 2.6-5.1 1-1.8 2.2-3.5 3.4-5.2 1.2-1.6 2.8-3 2.5-5.2-.3-1.9-2-3.4-4-3.4-1.8 0-2.8 1.1-3.9 2.4-1.3 1.7-2.6 3.4-3.7 5.3-1.1 1.7-2.1 3.4-3 5.2-.8 1.5-1.8 3.1-1.3 4.9 1 3.3 5.6 4.1 7.4 1.1zm207.9-79.2c1.2-.1 2.4-.1 3.5-.2 1-.1 2 0 2.9-.4 4-1.6 2.8-7.7-1.5-7.7-3.4 0-6.9.4-10.3.6-1.2.1-2.3.2-3.5.2-1.1.1-2.3 0-3.4.3-1.6.4-2.8 1.8-3 3.4-.2 1.6.6 3.2 2 4 1.7 1 4.1.4 6 .2 2.5-.1 4.9-.3 7.3-.4zm37.2-1.1h5.7c1.4 0 3.1.3 4.4-.4 2.3-1.2 2.9-4.3 1.2-6.3-1.8-1.9-4.9-1.3-7.2-1.3H256c-3.8 0-7.6 0-11.5.1-1 0-2 0-3 .1-1.8 0-3.5 0-4.8 1.5-2.2 2.7-.1 6.5 3.2 6.6 5.4 0 10.8-.3 16.1-.3zM232.3 350c-1.4-.1-2.9-.1-4.3-.2-2.8-.1-5.6-.4-8.4-.4-3.9 0-5.4 5.2-2.2 7.3 1.6 1.1 4.1.8 6 .9 1.5.1 2.9.1 4.4.2 1.5.1 2.9.1 4.4.2 1.6.1 3.6.5 5.2-.2 3.6-1.5 2.9-7-.9-7.6-1.5-.3-2.9-.2-4.2-.2zm57.8-187.5c2.2.1 4.6.5 6.8.4 1.5-.1 2.9-1.1 3.5-2.6.6-1.5.2-3.2-1-4.3-1.4-1.4-3.6-1.1-5.4-1.3-4.5-.3-9-.7-13.5-.7-3.5 0-5.3 4.5-2.8 6.9 1.4 1.4 3.5 1.1 5.3 1.2 2.4.2 4.8.3 7.1.4zm-130.5-1.3c-2.1 0-4.4.7-6.4 1l-6.6 1.2c-1.7.3-4 .4-5.4 1.6-1.2 1.1-1.7 2.8-1.2 4.3 1.4 4.2 6.4 2.2 9.5 1.7 2.2-.4 4.4-.8 6.5-1.2 1-.2 2.1-.4 3.1-.5.9-.2 1.8-.2 2.6-.8 3.3-2 1.8-7.3-2.1-7.3zm25.1-3.6c-2.4.3-4.7.6-7.1.9-1 .1-2.1.2-3.2.5-1.6.4-2.7 1.8-2.9 3.4-.2 1.6.7 3.3 2.2 4 1.7.9 3.9.2 5.8-.1 2.3-.3 4.7-.6 7-.8 1.2-.1 2.3-.3 3.5-.4.8-.1 1.7-.1 2.4-.3-.8 1.2-1.7 2.5-2.5 3.7-1.2 1.8-2.5 3.7-3.7 5.5-.9 1.4-1.9 2.7-1.5 4.5.8 3.6 5.4 4.1 7.4 1.2 2.4-3.6 4.8-7.3 7.3-10.9 1.1-1.6 2.6-3.2 2.2-5.2-.3-1.9-2-3.3-3.9-3.3-.9 0-1.6.3-2.2.7 0-2-1.4-4.1-3.9-4.1-2.3 0-4.7.5-6.9.7zm-59.4 186.5c1.5.4 3.1.7 4.7 1.1l6.9 1.5c1.8.4 3.6.9 5.2-.4 1.3-1.1 1.8-2.9 1.2-4.5-.7-1.9-2.3-2.4-4.1-2.8-2.6-.5-5.1-1.1-7.7-1.7-1.3-.3-2.6-.6-4-.9-1.2-.3-2.5-.8-3.7-.8-3.6 0-5.3 4.6-2.7 7 1.2 1 2.8 1.1 4.2 1.5zm159.4 13.7c2.4-.1 4.9-.2 7.3-.4 1.2-.1 2.5-.1 3.7-.2 1.1-.1 2.2-.1 3.3-.2 1-.1 2.1 0 3.1-.5 3.7-1.9 2.3-7.6-1.8-7.6-2.4 0-4.7.3-7.1.4-2.3.1-4.7.3-7 .4-1.9.1-3.8 0-5.1 1.6-1 1.3-1.2 3.1-.4 4.5.8 1.5 2.3 2 4 2zm58.2-190.3c.9.5 2 .5 3 .7 1.4.2 2.7.4 4.1.6 2.6.4 5.1.8 7.7 1.3 2 .4 4.1.9 5.7-.6 1.3-1.2 1.6-3.2.8-4.7-1-2-3.1-2.1-5.1-2.5-.9-.2-1.9-.3-2.8-.5-1.5-.2-2.9-.5-4.4-.7-1.4-.2-2.8-.5-4.3-.7-.9-.1-2-.4-2.9-.4-4 0-5.4 5.6-1.8 7.5zm18 181.9c1.6-.3 3.5-.4 5-1 3.8-1.7 2.6-7.6-1.6-7.6-1.1 0-2.3.4-3.4.6-1.2.2-2.4.4-3.6.7l-7.2 1.2c-1.8.3-3.8.3-4.9 2-1 1.4-1 3.2-.1 4.6 1.1 1.6 2.9 1.9 4.7 1.6 2.3-.4 4.7-.8 7-1.2 1.3-.4 2.7-.6 4.1-.9zM491.3 227c1.1 1.3 2.2 2.6 3.3 4 1 1.3 2 2.7 2.9 4.1.8 1.2 1.7 2.1 3.2 2.3 2.8.3 5.1-2.4 4.3-5.1-.5-1.7-2.1-3.5-3.1-5-.7-1-1.4-1.9-2.2-2.8-.8-1-1.6-1.9-2.4-2.9-.9-1-1.8-2-2.7-2.9-.8-.8-1.8-1.3-2.9-1.3-2.9 0-4.9 3.2-3.6 5.8.6 1.4 2.1 2.6 3.2 3.8zM385.5 344.4c2.1-.5 4.1-1 6.2-1.5l2.4-.6c.2.9.5 1.9.7 2.8l1.8 7.5c.5 2 .7 4.1 2.8 5 1.8.8 3.9.1 4.9-1.5 1.2-1.9.3-4.2-.2-6.3-.5-2.3-1.1-4.6-1.7-6.9-.4-1.7-.9-3.4-1.3-5.2-.4-1.7-1.6-3.1-3.3-3.4-.6-.4-1.3-.7-2.2-.7-1 0-1.9.4-2.9.6-1.1.3-2.2.6-3.4.9-2.1.5-4.3 1.1-6.5 1.6-1.8.4-4.1.5-5.6 1.7-1.2 1-1.7 2.7-1.2 4.2.4 1.5 1.8 2.6 3.3 2.8.9.1 1.7-.1 2.6-.3 1.3-.2 2.4-.5 3.6-.7zm97-49.7c-1.4 0-2.3.7-3.3 1.5-1.1.9-2.3 1.8-3.5 2.6-2.3 1.6-4.6 3.2-6.9 4.7-1.8 1.2-3.5 2.4-3.2 4.9.4 2.2 2.5 3.7 4.7 3.3 1-.2 1.8-.8 2.6-1.3 1.7-1.1 3.3-2.1 4.9-3.3 2.3-1.6 4.6-3.3 6.8-5 .8-.6 1.5-1.4 1.7-2.4.7-2.5-1.2-5-3.8-5zM272 354.5c.1-2.3-1.7-4.2-4-4.2-2.7 0-5.4.1-8.1.1-2.7 0-5.4-.1-8 0-4.4.2-5.5 6.4-1.2 7.8 1.5.5 3.4.2 4.9.2h2c3.4 0 6.8 0 10.2-.1 2.1-.1 4.1-1.4 4.2-3.8zm183.7-42.9c-1.9 0-3.9 1.5-5.6 2.3-1.9.9-3.8 1.8-5.8 2.7-2.8 1.3-7.9 2.4-7.1 6.6.3 1.6 1.6 2.8 3.1 3.1 2 .4 4-.9 5.8-1.7 2-.9 4.1-1.8 6.1-2.8 1.8-.9 3.8-1.7 5.6-2.8 3.4-2.1 1.9-7.4-2.1-7.4zm-9.2-115.2c1.2.6 2.4 1.1 3.6 1.7 1.2.6 2.4 1 3.8.5 2-.7 3.1-3 2.4-5.1-.6-1.8-2.2-2.4-3.8-3.1-1.9-.9-3.8-1.8-5.7-2.6l-4.8-2.1c-1.3-.6-2.7-1.4-4.2-1.4-2.3 0-4.2 2-4 4.3.2 2.7 2.5 3.4 4.6 4.3 2.8 1.1 5.5 2.3 8.1 3.5zm22.3 12.1c1.8 1.1 3.6 2.3 5.3 3.5 1.5 1 3.1 2.8 5 3.1 1.6.3 3.3-.6 4.1-2 2.1-3.7-2.2-6-4.7-7.8-1.9-1.3-3.9-2.6-5.8-3.9-1-.6-2-1.3-3.1-1.9-1-.6-1.9-1.2-3-1.2-3.5 0-5.3 4.3-2.9 6.8.7.7 1.6 1.1 2.4 1.6l2.7 1.8zm-42.5 115.7c-1.3 0-2.6.7-3.9 1.1-1.4.5-2.9 1-4.4 1.5-2.8.9-5.7 1.6-8.5 2.7-1.9.8-3 2.9-2.4 4.9.6 2.1 2.8 3.2 4.8 2.7 3.9-1 7.7-2.4 11.5-3.8l2.7-.9c1.8-.7 3.6-1.4 4-3.5.6-2.4-1.3-4.7-3.8-4.7zm76.5-52.5c-2.9 0-3.8 2.7-5 4.7-1.5 2.4-3.2 4.8-5.1 7-1.6 1.9-3.6 3.7-2.4 6.3 1.1 2.4 4.2 3.1 6.2 1.5.7-.6 1.3-1.3 1.9-2 1.2-1.4 2.3-2.7 3.3-4.2 1-1.3 1.9-2.6 2.7-4 .8-1.3 1.9-2.7 2.3-4.2.7-2.5-1.3-5.1-3.9-5.1zm9-19.9c-.1-1.4-.4-2.9-.6-4.3-.5-2.3-1.5-4.5-4.2-4.5-1.9 0-3.6 1.4-3.9 3.3-.2 1 .1 1.9.3 2.8.3 1.3.4 2.5.6 3.8.2 2.6.1 5.2-.2 7.7-.2 1.7.2 3.4 1.8 4.4 2.6 1.6 5.6-.2 6.1-3.1.3-1.7.4-3.4.4-5.1-.1-1.6-.1-3.3-.3-5zm-100.2-68.7c2.3.7 4.5 1.5 6.8 2.2 1.9.6 4.1 1.9 6.1 1 1.6-.7 2.6-2.4 2.4-4.2-.2-1.9-1.6-2.9-3.3-3.5-1.5-.5-2.9-1-4.4-1.5-1.3-.4-2.6-.9-3.9-1.3l-3.9-1.2c-1.2-.4-2.5-1-3.7-1-3.8 0-5.4 5-2.3 7.2.8.6 1.8.8 2.7 1 1.1.5 2.3.9 3.5 1.3zm-26.1 130.2l2.4 7.2c.6 1.9.9 4.4 2.7 5.6 1.5 1 3.7.9 5-.4 1.5-1.5 1.3-3.3.7-5.2-.9-2.9-1.9-5.9-2.8-8.8-.6-1.7-1.1-3.4-1.7-5.1-.6-1.8-1.9-3.2-3.9-3.2-1.9 0-3.6 1.4-3.9 3.2-.2.9 0 1.8.3 2.6.3 1.5.7 2.8 1.2 4.1zm-244.4-76.2c-.7-2.2-1.8-4.3-2.7-6.4-1-2.4-2-4.8-2.9-7.2-.8-2-1.8-4-4.3-4-1.8 0-3.3 1.2-3.8 2.9-.6 1.9.6 3.9 1.3 5.6 1.1 2.9 2.3 5.7 3.5 8.6.7 1.8 1.3 4.2 3 5.3 1.5.9 3.5.7 4.8-.5 1.2-1.1 1.6-2.8 1.1-4.3zm237.1 56c.6 1.6 1.5 2.9 3.2 3.2 1.6.3 3.3-.4 4.2-1.8 1-1.6.5-3.1-.2-4.8-.8-2-1.6-4.1-2.4-6.1-.9-2.3-1.8-4.6-2.8-6.8-.8-1.8-1.9-3.4-4.1-3.4-1.6 0-3.1 1-3.7 2.5-.7 1.7.1 3.3.8 4.9 1.8 4 3.4 8.2 5 12.3zM127 200c-.8-2.4-1.6-4.9-2.4-7.4-.6-1.9-1.8-3.5-4-3.5-1.7 0-3.2 1.1-3.8 2.6-.4 1.1-.2 2.2.2 3.3 1.3 4 2.6 8.1 4 12.1.6 1.8 1 3.9 2.9 4.8 1.6.8 3.5.5 4.7-.8 1.2-1.3 1.3-2.9.8-4.5-.9-2.1-1.7-4.4-2.4-6.6zm278.9 229c-2.2 0-3.6 1.7-4 3.7-.5 2.7-1 5.4-1.8 8-.3 1.3-.7 2.5-1.1 3.7-.3 1.1-.9 2.2-1 3.3-.2 2 1.3 3.9 3.3 4.2 2.4.4 4-1.2 4.7-3.3l.6-1.8c1.2-3.7 2.1-7.5 2.8-11.3.1-.7.3-1.5.4-2.2.3-2.2-1.6-4.3-3.9-4.3zM176.1 41.4c2 .7 4 1.5 6 2.4 3 1.3 7.8 4.7 10.1.6.8-1.3.7-3-.1-4.2-1-1.5-3.1-2.1-4.7-2.9-2.2-1-4.3-1.9-6.6-2.8-1.1-.4-2.3-.9-3.4-1.3-1-.4-2.1-.9-3.2-.9-3.4 0-5.3 4.2-2.9 6.7 1.2 1.5 3.3 1.8 4.8 2.4zm25.6 12.8c1 .6 1.9 1.2 2.8 1.8 1.8 1.1 3.5 2.3 5.3 3.5.9.6 1.7 1.2 2.6 1.8.9.6 1.7 1.3 2.7 1.6 1.6.4 3.3-.3 4.2-1.7.8-1.2.9-2.9.1-4.2-.9-1.6-3.1-2.7-4.6-3.7-2-1.4-4-2.7-6-4-.9-.6-1.9-1.2-2.8-1.8-1-.6-2-1.3-3.3-1.3-3.4 0-5.2 4.1-3 6.6.6.5 1.3.9 2 1.4zm-20 261.6c-1.2-2-2.4-4-3.6-6.1-1-1.7-2-3.3-4.2-3.3-3.2 0-4.9 3.5-3.4 6.1.4.6.7 1.2 1.1 1.9.8 1.3 1.5 2.6 2.3 3.9.9 1.6 1.9 3.1 2.8 4.7.5.8 1 1.6 1.4 2.3.9 1.5 1.8 2.7 3.6 2.9 1.6.2 3.1-.6 3.9-2 .8-1.5.6-3-.3-4.4-1.1-2-2.4-4-3.6-6zm41.1 63c.7-1.4.4-3-.5-4.2l-3.9-5.1c-1.5-1.9-2.9-3.8-4.4-5.8-1.2-1.6-2.3-3.5-4.6-3.5-1.7 0-3.3 1.1-3.8 2.8-.5 1.6.1 3 1 4.2 2.5 3.4 5.1 6.8 7.8 10.2 1.2 1.5 2.2 3.3 4.2 3.6 1.8.3 3.5-.6 4.2-2.2zm7.8-303.5c1.6 1.3 3.2 2.7 4.7 4 1.4 1.3 3 3.3 5 3.6 1.7.3 3.4-.6 4.2-2.1 1.9-3.6-2.4-6.3-4.7-8.3-1.8-1.5-3.6-3.1-5.4-4.6-1.6-1.3-3.4-3.5-5.6-3.5-3.4 0-5.3 4.2-2.9 6.7 1.3 1.7 3.1 2.9 4.7 4.2zm49.2 37.7c-1.4-1.6-2.7-3.6-5-3.6-1.7 0-3.3 1.2-3.8 2.8-.5 1.5.1 2.9 1.1 4.1 2.8 3.2 5.6 6.5 8.4 9.8 1.2 1.4 2.3 3.2 4.3 3.5 1.6.2 3.3-.6 4.1-2 .7-1.3.6-3-.2-4.2-1.2-1.7-2.7-3.3-4.1-4.9-1.7-1.9-3.2-3.7-4.8-5.5zm131.8 288.2c-.2-2.1-1.9-3.7-4-3.7-1.7 0-3.3 1.2-3.8 2.8-.3.9-.1 1.9-.1 2.9 0 1.3.1 2.6.1 3.9 0 2.5 0 5-.1 7.5-.1 1.9-.5 4 1 5.5 1.2 1.2 3.1 1.6 4.7.8 1.8-.9 2.2-2.7 2.2-4.5.2-3.6.2-7.2.1-10.8 0-1.5 0-3-.1-4.4zM158.9 292.1c.8 1.4 1.5 2.8 2.3 4.2 1 1.9 1.9 3.9 4.3 4.1 2.1.1 3.9-1.4 4.2-3.4.3-2.2-1.4-4.2-2.4-6-1.4-2.6-2.9-5.3-4.3-7.9-1.1-2.2-2.1-4.9-5-4.9-2 0-3.7 1.6-4 3.6-.2 2 1.2 3.8 2.1 5.5 1 1.6 1.9 3.2 2.8 4.8zm187.6-67.6l2.4 4.5c.8 1.6 1.6 3.1 2.5 4.7.7 1.3 1.2 2.7 2.5 3.4 2.3 1.3 5.3-.1 5.8-2.7.3-1.3-.2-2.4-.8-3.5-.8-1.5-1.5-2.9-2.3-4.4-.5-.9-.9-1.7-1.4-2.6-.5-1-1-2-1.6-2.9-1.3-2.3-2.4-5.7-5.5-5.7-2.6 0-4.5 2.6-3.9 5 .6 1.5 1.6 2.8 2.3 4.2zm-6.3 247.6c-2-.6-4-1.3-5.9-2.1 3.7-10.6 1.4-22.8-7.1-31.2-11.7-11.7-30.7-11.7-42.4 0l-.4.4c-1.6-1.3-3.1-2.6-4.6-3.9-1.6-1.4-3.3-3.6-5.6-3.6-3.5 0-5.3 4.3-2.8 6.8 1.5 1.5 3.2 2.8 4.8 4.2 1.2 1 2.3 1.9 3.5 2.9-6.2 11.4-4.5 25.9 5.1 35.6 11.7 11.7 30.7 11.7 42.4 0 1.3-1.3 2.4-2.6 3.4-4.1 1.6.6 3.1 1.2 4.7 1.7 3 1 7.8 3.5 9.8-.3.7-1.4.6-3.1-.4-4.4-1-1.3-2.9-1.5-4.5-2zm31.5 2.2c-.9 0-1.8.3-2.6.5-.9.2-1.9.3-2.8.4-2 .2-3.9.3-5.9.3-1.6 0-3.6-.5-5.1.2-1.3.5-2.2 1.7-2.4 3-.2 1.4.3 2.8 1.3 3.7 1.3 1.2 3.1 1.1 4.7 1.1h3.2c2.3-.1 4.5-.2 6.8-.6 2.4-.4 5.6-.6 6.7-3.2.8-2.5-1.1-5.4-3.9-5.4zM109 85c.5-.8.5-1.7.7-2.7.2-1.1.3-2.3.5-3.4.4-2 .8-4.1 1.3-6.1.3-1.1.6-2.3.9-3.4.3-.9.5-1.8.2-2.7-.4-1.8-2.1-3.1-3.9-3.1-1.7 0-3.1 1-3.7 2.6-.7 1.8-1.1 3.9-1.6 5.8-.5 2.2-.9 4.4-1.3 6.6-.3 1.7-1 3.9-.4 5.6 1.1 3.2 5.6 3.7 7.3.8zm-4.4 33.6c1.9 0 3.5-1.3 3.9-3.2.2-1.2 0-2.5-.1-3.6-.1-1.4-.1-2.8-.2-4.3-.1-3 .1-5.9 0-8.9-.1-2.2-1.8-4-4-4-2 0-3.8 1.6-4 3.6-.1.7 0 1.5-.1 2.2 0 3.1 0 6.3.1 9.4.3 3.3-.2 8.8 4.4 8.8zm158.7 301.7c-.6-.5-1.1-1.1-1.6-1.6.4-.5.9-.9 1.3-1.4 1-1 2-2 2.1-3.6.1-2.2-1.7-4.2-4-4.2-2.2 0-3.7 1.9-5.1 3.5l-1.8-1.8c-.9-1-1.9-1.6-3.3-1.6-2 0-3.7 1.5-4 3.5-.2 1.7.7 2.9 1.8 4l1.6 1.6-.3.3c-.9.8-1.7 1.7-2.6 2.5-.7.7-1.4 1.4-1.7 2.4-.5 1.9.5 3.8 2.2 4.6 2.2 1 3.9-.2 5.4-1.6.9-.8 1.8-1.7 2.6-2.6.4.4.9.8 1.3 1.3 1.5 1.5 3 3.5 5.3 3.3 1.9-.1 3.5-1.7 3.7-3.7.3-2.2-1.5-3.5-2.9-4.9zm80.8-213.8c.5-1.6-.1-2.9-.9-4.2-.9-1.6-1.8-3.1-2.7-4.6-1.3-2.1-2.5-4.3-3.8-6.4-1.1-1.8-2.2-3.9-4.6-3.9-1.7 0-3.2 1.1-3.8 2.7-.6 1.8.3 3.2 1.2 4.7 2.4 3.8 4.7 7.7 6.9 11.6.9 1.6 2 2.8 4 2.8 1.6 0 3.1-1.1 3.7-2.7zm56.1 162.3c-.2.9 0 1.8.1 2.8l.6 3.9c.4 2.5.7 5.1 1.1 7.6.2 2 .1 4.2 1.8 5.6 1.3 1.1 3.3 1.2 4.7.3 1.7-1.1 1.9-2.9 1.7-4.7-.3-2.8-.7-5.7-1.1-8.5-.3-2-.6-4-1-6.1-.4-2.1-1.7-3.9-4-3.9-1.8-.1-3.5 1.2-3.9 3zM116 57.4c2.1-.7 2.9-3.2 4.1-4.9 1.3-2 2.8-3.8 4.5-5.5 1.4-1.5 3.4-2.6 3.4-4.9 0-2.2-1.8-4-4-4-2.5 0-4.3 2.5-5.9 4.1-.3.3-.5.6-.8.9l-1.5 1.8c-.5.6-1 1.3-1.5 2-.9 1.2-1.7 2.5-2.5 3.8-.9 1.6-1.6 3.2-.6 4.9.9 1.7 3 2.4 4.8 1.8zm18.9-19.1c1.2.6 2.3.4 3.5 0 1.3-.4 2.6-.8 4-1.1 2.9-.6 5.9-.9 8.9-.9 1.7 0 3.4.1 5.1.2 1.5.1 3.1.6 4.5-.1 2.5-1.2 3-4.7.9-6.6-1.1-1-2.6-1-4-1.2-1.4-.1-2.9-.3-4.3-.3h-2.2c-2.7 0-5.5.2-8.2.6-2.6.4-5.2 1-7.6 1.9-3.3 1.3-4 5.9-.6 7.5zm260.4 419.4c-2.7 0-3.9 2.7-5.4 4.5-1.6 2-3.4 3.8-5.4 5.4-1.6 1.3-3.5 2.3-3.5 4.7.1 2.3 2.1 4.1 4.3 3.9 1.2-.1 2.2-.8 3.1-1.5 1.1-.8 2.1-1.7 3.1-2.6 1.9-1.7 3.6-3.6 5.2-5.6.3-.4.7-.9 1-1.3.5-.8 1.2-1.5 1.4-2.4.7-2.6-1.2-5.1-3.8-5.1zm-94.9-306.1c1.1 1.5 2.1 3.2 4.1 3.5 1.6.2 3.3-.6 4.1-2.1.7-1.4.6-2.9-.3-4.2-1.2-1.8-2.6-3.5-3.8-5.2-1.4-1.9-2.9-3.8-4.3-5.7-1.3-1.7-2.4-3.6-4.8-3.6-1.7 0-3.3 1.2-3.8 2.8-.5 1.6.2 3 1.1 4.2 2.6 3.4 5.2 6.8 7.7 10.3zm-188.3-3.2c1-1.7.4-3.5 0-5.3-.4-2.2-.8-4.5-1.1-6.7-.3-2.3-.4-4.7-1-6.9-.5-1.7-2.1-3-3.9-3-1.5 0-3 .9-3.6 2.3-.8 1.7-.1 3.8.1 5.6.3 2.2.6 4.3 1 6.5s.5 4.5 1.2 6.6c1 3.3 5.5 3.9 7.3.9zM241 396.9c-1.3-1.5-2.6-2.9-3.8-4.4-1.3-1.5-2.6-3-3.8-4.5-1.1-1.3-2.1-2.5-4-2.5-2.7 0-4.7 2.8-3.8 5.4.4 1 1.2 1.9 1.9 2.7 1.3 1.6 2.6 3.1 4 4.6.8.9 1.5 1.8 2.3 2.6.7.8 1.4 1.5 2 2.3 1 1.1 1.9 2.3 3.5 2.5 2.7.4 5.1-2.1 4.5-4.8-.3-1.5-1.7-2.7-2.8-3.9zm81.7-350.5c2 .3 4-1.2 5.8-2 1.9-.9 3.9-1.7 5.9-2.4.9-.3 1.8-.7 2.7-1 .9-.3 1.9-.5 2.7-1 3.5-2 2-7.5-2-7.5-1.8 0-3.9 1.1-5.6 1.7-2 .8-4 1.6-6 2.5-2.8 1.2-7.9 2.6-6.8 6.7.3 1.6 1.7 2.8 3.3 3zm41.9 223.4c.9-1.4 1.6-3 2.3-4.6.5.6 1.2 1.1 2.1 1.3 2 .4 4-.7 4.6-2.6.7-2.1-.7-4.2-1.5-6-.3-.6-.6-1.2-.8-1.8.6-1.2 1-2.4.8-3.7-.4-1.8-2-3.2-3.9-3.2h-.1c-.1-.1-.1-.3-.2-.4-1-2.2-2-4.8-4.8-4.8-2.1 0-3.8 1.6-4 3.7-.1 1 .3 1.9.7 2.8.6 1.2 1.2 2.5 1.8 3.7.3.6.6 1.2.9 1.9-.3.6-.6 1.3-.9 1.9-.9 2-1.9 3.9-2.8 5.8-.8 1.6-1.9 3.2-1.4 5 .7 3.3 5.4 4 7.2 1zm-19.7 30.4c2.1.7 4-.4 5-2.2 1.1-1.9 2.1-3.8 3.1-5.7.9-1.6 1.7-3.2 2.6-4.8.8-1.6 2.2-3.4 2.3-5.2 0-2.2-1.8-4.1-4-4.1-2.6 0-3.6 2.2-4.6 4.2-1.2 2.3-2.5 4.6-3.7 6.9-.6 1.1-1.3 2.3-1.9 3.4-.5.9-1.2 1.9-1.4 3-.4 1.9.8 3.8 2.6 4.5zm54.6-233.9c-.6 1.7.1 3.3.6 4.9.6 2.1 1 4.2 1.4 6.3v.2c-5.4 1.2-10.6 3.9-14.8 8.1-11.7 11.7-11.7 30.7 0 42.4 4.1 4.1 9 6.7 14.2 8-.3 1.7-.5 3.5-.8 5.2l-.6 3.3c-.2.9-.4 1.8-.1 2.7.8 3.3 5.3 4.1 7.2 1.2.5-.8.6-1.6.8-2.5.2-1.2.4-2.3.6-3.5l.9-5.7c7.3-.2 14.6-3.2 20.2-8.8 11.7-11.7 11.7-30.7 0-42.4-5.5-5.5-12.5-8.4-19.6-8.7-.2-1.1-.4-2.1-.6-3.2-.5-2.3-1.1-4.7-1.8-7-.5-1.8-1.9-3.2-3.9-3.2-1.6.1-3.1 1.2-3.7 2.7zm-58.1 246.5c1.6-2.7.2-6.3-3.3-6.3-1.8 0-3 1.2-3.8 2.6-1.1 1.8-2.1 3.6-3.2 5.4-1.1 1.8-2.2 3.6-3.3 5.3-.9 1.4-2.1 2.8-2 4.6.1 3.2 4 5 6.5 3 1.2-1 1.9-2.6 2.7-4 1.7-2.7 3.3-5.5 5-8.2.5-.9 1-1.6 1.4-2.4zM295.7 62.9c2 .1 3.5-1.4 5-2.4 3.5-2.4 7.1-4.6 10.6-6.9 3.2-2.1 2-7.4-2.1-7.4-2 0-3.9 1.7-5.5 2.7-1.8 1.1-3.5 2.3-5.2 3.4-1.7 1.2-3.7 2.3-5.3 3.7-1.1 1-1.6 2.6-1.1 4 .5 1.6 2 2.7 3.6 2.9zm12.7 289.9c.7 1.6 2.5 2.5 4.2 2.3.5-.1.9-.2 1.3-.4 1.7 1.3 4.1.7 6.1.5 2.2-.2 4.5-.5 6.7-.7 1.2-.1 2.3-.3 3.5-.4 1.1-.1 2.4-.1 3.5-.5 4.2-1.4 3.1-7.8-1.3-7.8-2.3 0-4.8.6-7.1.8l-5.7.6c1-1.4 1.9-2.8 2.9-4.2 1.1-1.7 2.9-3.5 2.6-5.7-.3-1.9-2-3.4-4-3.4-2.1 0-3.1 1.5-4.2 3.1-1.3 1.9-2.5 3.8-3.8 5.7-1.3 1.9-2.6 3.8-3.9 5.6-1 1.3-1.6 2.9-.8 4.5zm91.7-174.4c1.3-4.5 2.4-8.9 3.5-13.4.3-1.1.7-2.3.5-3.4-.3-1.9-2-3.4-4-3.4-1.6 0-3.1 1-3.7 2.6-.8 2-1.1 4.4-1.6 6.5-.2.9-.5 1.8-.7 2.7-1-.5-2.2-.7-3.3-1-2.4-.6-4.7-1.2-7.1-1.7-1.2-.3-2.4-.6-3.6-.8-1.1-.3-2.4-.7-3.5-.7-3.4 0-5.2 4.2-3 6.7 1.3 1.4 3.4 1.5 5.2 1.9 2.2.5 4.3 1 6.5 1.5 2.1.5 4.2 1.2 6.3 1.5h.6c0 .7 0 1.4.4 2 .7 1.5 2.4 2.5 4.2 2.2 1.7-.2 2.8-1.5 3.3-3.2zM386.3 45.9c1.5 1.4 2.9 2.9 4.1 4.6 1.3 1.7 2.3 3.6 3.6 5.4 2.3 3.3 7.6 1.4 7.3-2.6-.2-1.9-1.8-3.8-2.9-5.4-.2-.3-.4-.5-.6-.8-1-1.3-2-2.6-3-3.8-.3-.3-.6-.6-.9-1-1.6-1.7-3.5-4.2-6-4.2-1.9 0-3.6 1.4-3.9 3.3-.3 2 1 3.3 2.3 4.5zm-33.8-9c1.4.1 2.9-.3 4.3-.4 1.5-.1 2.9-.2 4.4-.1 3.1 0 6.2.4 9.2 1.1 2.5.6 5.4 2.3 7.7.2 1.7-1.6 1.7-4.5-.1-6-.5-.5-1.2-.7-1.8-.9-4.8-1.6-9.9-2.3-14.9-2.3h-.5c-1.1 0-2.2 0-3.3.1-1.3.1-2.6.2-4 .3-2 .2-4 1-4.5 3.3-.6 2.3 1.2 4.6 3.5 4.7zm34.4 175.5c1.9-.3 2.9-1.7 3.5-3.4 1.6-4.4 3.1-8.9 4.5-13.3.3-1 .7-2.1.6-3.2-.3-1.9-2-3.4-4-3.4-1.6 0-3.1 1-3.7 2.5-.9 2.1-1.4 4.4-2.1 6.5-.7 2.2-1.5 4.5-2.3 6.7-.6 1.7-1.5 3.5-.6 5.3.7 1.6 2.4 2.5 4.1 2.3zm-10 10c-.9 2.2-1.8 4.5-2.7 6.7-.9 2.2-1.8 4.4-2.7 6.5-.7 1.7-1.3 3.2-.3 4.9.9 1.5 2.8 2.3 4.5 1.8 2-.6 2.6-2.3 3.4-4.1l3.9-9.6c.7-1.7 1.9-3.7 1.7-5.5-.2-2-1.9-3.6-4-3.6-1.9 0-3.2 1.2-3.8 2.9zM270.5 82.9c2.1.3 3.4-1.1 4.9-2.4 3.2-2.8 6.4-5.6 9.7-8.2 1.4-1.2 2.5-2.5 2.1-4.5-.4-1.8-2-3.2-3.9-3.2-2 0-3.6 1.8-5.1 3-1.6 1.3-3.1 2.6-4.6 3.9-1.7 1.4-3.3 2.9-4.9 4.3-1.1 1-1.8 2.4-1.5 3.9.2 1.7 1.6 3 3.3 3.2zM107.9 365.7c-1.8 0-3.4 1.3-3.9 3.1-.5 2.1-.7 4.4-1.1 6.5-.3 2.3-.7 4.6-.9 7-.2 2-.8 4.1.5 5.8 1.1 1.3 3 1.9 4.6 1.2 2-.8 2.4-2.5 2.7-4.4.3-2.5.6-5 1-7.6l.6-4.2c.2-1.2.6-2.5.5-3.7-.1-2-1.9-3.7-4-3.7zm48.9 110.1c-1.5-.6-3.5-.2-5.1-.2-2 0-3.9-.1-5.9-.3-.9-.1-1.9-.3-2.8-.4-.9-.2-1.8-.5-2.6-.5-2.4 0-4.3 2.2-4 4.6.4 2.9 3.2 3.4 5.7 3.9 2.8.5 5.7.8 8.6.8h2.6c1.6-.1 3.4 0 4.7-1.1 1-.9 1.5-2.3 1.3-3.7-.4-1.5-1.3-2.6-2.5-3.1zm-43.2-29.4c-.4-1.3-.8-2.5-1.2-3.8-.8-2.9-1.5-5.8-2.1-8.8-.2-1.2-.3-2.5-1.2-3.4-.8-.9-1.9-1.4-3-1.4-2 0-3.8 1.6-4 3.6-.1.9.2 1.9.3 2.8.7 3.8 1.6 7.6 2.8 11.2.7 2.2 1.3 4.8 3.9 5.3 2.1.4 4.2-.9 4.7-2.9.3-.8.1-1.7-.2-2.6zm-7.3-25.5c1.8-.9 2.2-2.6 2.1-4.5-.1-2.5-.2-5-.2-7.4 0-1.4 0-2.8.1-4.2 0-1.2.2-2.6.1-3.8-.3-2-2-3.5-4-3.5-1.8 0-3.4 1.3-3.9 3-.2 1-.2 2.1-.2 3.1-.1 4.2-.1 8.3.1 12.5.1 1.5.1 2.9 1.2 4.1 1.2 1.2 3.2 1.5 4.7.7zM292.1 381c1.9.3 3.3-.8 4.4-2.2 2.6-3.4 5.2-6.7 7.8-10.1 1.2-1.5 2.6-3 2.2-5.1-.3-1.9-2-3.3-3.9-3.3-2 0-3.1 1.4-4.2 2.9-1.3 1.7-2.5 3.3-3.8 5-1.3 1.8-2.7 3.5-4.1 5.2-1 1.3-2 2.5-1.8 4.3.4 1.7 1.7 3 3.4 3.3zm-107 86.3c-1 0-1.9.5-2.9.9s-2 .9-3 1.3c-1.9.8-3.9 1.5-5.9 2.2-2.8 1-7.5 1.6-6.9 5.7.2 1.6 1.4 2.9 2.9 3.3 1.8.5 3.9-.5 5.6-1.1 2.1-.7 4.1-1.4 6.2-2.2 2-.8 4.1-1.5 6-2.5 3.4-2.2 2-7.6-2-7.6zm52.7-35.5c-2 0-3.4 1.7-4.9 2.9-1.6 1.4-3.3 2.8-4.9 4.1-1.6 1.3-3.3 2.6-4.9 3.9-1.2 1-1.9 2.4-1.6 4 .3 1.6 1.6 2.9 3.2 3.2 2.1.4 3.5-1 5-2.2 3.3-2.7 6.6-5.4 9.8-8.2 1.4-1.2 2.5-2.5 2.2-4.5-.2-1.8-1.9-3.2-3.9-3.2zm39.9-30.4c2.2-2.5 4.3-4.9 6.4-7.4.6-.7 1.3-1.4 1.8-2.2 1.7-2.6-.2-6.2-3.3-6.2-1.5 0-2.5.8-3.4 1.9-1.1 1.4-2.3 2.7-3.4 4-2.2 2.6-4.6 5-6.7 7.7-1.6 2.1-1 5.2 1.5 6.2 3.1 1.4 5.2-1.9 7.1-4zm-65.1 50.1c-2.1 0-4 1.9-5.7 3-1.9 1.2-3.7 2.4-5.6 3.6-2.6 1.6-7.4 3.3-5.9 7.3.6 1.6 2.1 2.6 3.8 2.6 2 0 4-1.7 5.7-2.7 3.2-1.9 6.3-4 9.4-6.1 1.5-1 2.6-2.4 2.3-4.3-.3-1.9-2-3.4-4-3.4zm-83.8 17.2c-2.2-1.6-4.2-3.6-6-5.6-1-1.1-1.8-2.4-2.7-3.6-.8-1.1-2-1.7-3.3-1.7-2.3 0-4.1 2-4 4.3.1 1.2.8 2.1 1.4 3l.9 1.2c1.3 1.7 2.7 3.3 4.2 4.8 1.7 1.7 3.6 3.6 5.7 4.8 2 1.2 4.7.4 5.7-1.8.9-2.3-.2-4.2-1.9-5.4zm3.3-192.8c-.9 2-1.7 4.1-2.5 6.1s-1.6 4.1-2.4 6.1c-.6 1.6-1.7 3.4-1.3 5.2.8 3.4 5.4 4.2 7.3 1.3.5-.8.8-1.8 1.1-2.7.4-1.1.8-2.2 1.3-3.3.8-2.1 1.6-4.1 2.5-6.2.7-1.8 2.1-3.9 1.6-5.9-.4-1.8-2.1-3.1-3.9-3.1-1.7 0-3.1 1-3.7 2.5zm42.7-68.2c1.3-1.7 2.3-3.9 3.4-5.7 1.2-2 2.3-3.9 3.5-5.9 1-1.6 2.5-3.4 2.2-5.4-.3-1.9-2-3.3-3.9-3.3-2.1 0-3.1 1.4-4.1 3.1-1.2 1.9-2.4 3.9-3.5 5.9-1.1 1.9-2.3 3.8-3.4 5.8-.6 1.1-1.3 2-1.2 3.3 0 3.5 4.8 5 7 2.2zm41.9-73.5c-2.1 0-3.2 1.5-4.3 3-1.3 1.6-2.5 3.3-3.8 4.9-1.3 1.8-2.7 3.5-4 5.3-1 1.3-1.9 2.6-1.6 4.4.3 1.6 1.7 2.9 3.3 3.2 1.8.3 3.2-.7 4.2-2.1 2.5-3.5 5.1-6.9 7.7-10.3 1.2-1.5 2.7-3 2.3-5.1-.2-1.8-1.9-3.3-3.8-3.3zm9.4-4.6c1.9.3 3.2-.8 4.3-2.2 2.7-3.3 5.5-6.6 8.4-9.8 1.3-1.4 2.7-2.8 2.3-4.9-.3-1.9-2-3.3-3.9-3.3-2.1 0-3.2 1.6-4.5 3-1.4 1.6-2.7 3.1-4.1 4.7-1.4 1.7-2.9 3.4-4.3 5.1-1 1.3-1.9 2.5-1.6 4.2.5 1.6 1.8 2.9 3.4 3.2zm-67.6 90.9c-.5 1-1.1 2-1.6 3-.3.6-.6 1.1-.9 1.7-.6 1.2-1.2 2.3-1.8 3.5-.7 1.3-1.6 2.7-1.9 4.1-.5 2.4 1.4 4.8 3.9 4.8 3.3 0 4.4-3.7 5.6-6.1 1.8-3.4 3.7-6.8 5.5-10.2 1.3-2.6-.4-5.9-3.5-5.9-3-.1-4.1 2.9-5.3 5.1zm87.1-122.3c-1.1 1.2-1.8 2.4-1.5 4.1.3 1.6 1.7 2.9 3.3 3.2 2 .3 3.2-.9 4.4-2.2 1.3-1.4 2.7-2.8 4.1-4.2l2.9 2.9c1.3 1.3 2.5 3.2 4.5 3.5 1.6.2 3.3-.6 4.1-2 .7-1.3.6-3-.2-4.2-1.1-1.7-2.9-3.1-4.3-4.6l-1.3-1.3c1.1-1.1 1.9-2.2 1.6-3.9-.3-1.9-2-3.4-4-3.4-1.4 0-2.4.7-3.3 1.6-.9-.9-2-1.6-3.3-1.6-3.6 0-5.2 4.4-2.8 6.9l.5.5c-1.6 1.5-3.1 3.1-4.7 4.7zM115.7 324.7c.9 1.6 2.8 2.5 4.6 2 2.1-.6 2.7-2.4 3.3-4.3.8-2.4 1.5-4.8 2.3-7.2.5-1.4.9-2.7 1.4-4.1.4-1.1 1-2.3 1-3.5 0-2.2-1.8-4-4-4-3.5 0-4.2 3.8-5.1 6.4-1 2.9-1.9 5.9-2.9 8.8-.6 1.9-1.6 4-.6 5.9zm29.4-59.5c.5 1.1 1 2.1 1.5 3.2.8 1.6 1.5 3 3.4 3.4 1.7.3 3.4-.4 4.3-1.9.9-1.5.5-3-.2-4.5-1-2-1.9-4-2.9-6-.5-1.1-1-2.2-1.6-3.3.7-1.4 1.3-2.8 2-4.2.5-1.1 1.3-2.2 1.4-3.4.3-2.3-1.6-4.5-4-4.5-3 0-4 2.9-5 5.2h-.1c-1.7 0-3.2 1.1-3.7 2.6-.6 1.5 0 2.8.6 4.2 0 0 0 .1-.1.1-.5 1.1-1.1 2.3-1.6 3.4-.4 1-1 1.9-1 3.1 0 1.9 1.4 3.6 3.3 3.9 1.7.3 2.8-.3 3.7-1.3zm-106.3-49c11.7 11.7 30.7 11.7 42.4 0 7.9-7.9 10.5-19.2 7.7-29.3 1.5-.5 2.9-1 4.4-1.5 1.7-.6 3.5-1 5.1-1.7 1.1-.4 1.9-1.3 2.3-2.4.9-2.6-1-5.4-3.8-5.4-1.6 0-3.3.9-4.8 1.4-.5.2-1 .3-1.4.5-1 .3-2.1.7-3.1 1.1-.6.2-1.3.4-1.9.6-1.2-2-2.7-4-4.5-5.7-11.7-11.7-30.7-11.7-42.4 0-8.8 8.8-11 21.6-6.6 32.5-.1 0-.1.1-.2.1-.7.5-1.5 1.1-2.2 1.6-.9.7-1.9 1.4-2.8 2.1-1.7 1.3-4.2 2.8-4.6 5.1-.4 2.1 1 4.1 3 4.6 2.6.6 4.3-1.6 6.1-3 1.5-1.2 3.1-2.4 4.6-3.5.9 1 1.7 2 2.7 2.9z"/></svg>