<svg version="1.1" xmlns="http://www.w3.org/2000/svg" x="0" y="0" viewBox="0 0 512 512" xml:space="preserve"><path d="M425.7 294v-76c33.1 0 60-26.9 60-60s-26.8-60-60-60c-22.2 0-41.5 12.1-51.9 30L308 90c5.1-8.8 8-19.1 8-30 0-33.1-26.9-60-60-60s-60 26.9-60 60c0 10.9 2.9 21.1 8 30l-65.8 38c-10.4-17.9-29.8-30-51.9-30-33.1 0-60 26.9-60 60s26.9 60 60 60v76c-33.1 0-60 26.9-60 60s26.9 60 60 60c22.2 0 41.5-12.1 51.9-30l65.8 38c-5.1 8.8-8 19.1-8 30 0 33.1 26.9 60 60 60s60-26.9 60-60c0-10.9-2.9-21.2-8.1-30l65.8-38c10.4 17.9 29.8 30 52 30 33.1 0 60-26.9 60-60s-26.8-60-60-60zm0-164c15.4 0 28 12.6 28 28s-12.6 28-28 28-28-12.6-28-28 12.6-28 28-28zM256 32c15.4 0 28 12.6 28 28s-12.6 28-28 28-28-12.6-28-28 12.6-28 28-28zM58.3 158c0-15.4 12.5-28 28-28 15.4 0 28 12.6 28 28s-12.6 28-28 28-28-12.6-28-28zm28 224c-15.4 0-28-12.6-28-28s12.5-28 28-28c15.4 0 28 12.6 28 28s-12.6 28-28 28zM256 480c-15.4 0-28-12.6-28-28s12.6-28 28-28 28 12.6 28 28-12.6 28-28 28zm109.8-128.4l-81.9 47.3c-8.3-4.4-17.8-6.9-27.9-6.9-10.1 0-19.6 2.5-27.9 6.9l-81.8-47.2c-.8-20.4-11.7-38.1-27.9-48.4v-94.6c16.2-10.2 27.2-28 27.9-48.4l81.8-47.2c8.3 4.4 17.8 6.9 27.9 6.9 10.1 0 19.6-2.5 27.9-6.9l81.8 47.2c.8 20.4 11.7 38.1 27.9 48.4v94.6c-16.1 10.2-27 28-27.8 48.3zm59.9 30.4c-15.4 0-28-12.6-28-28s12.6-28 28-28 28 12.6 28 28-12.6 28-28 28z"/></svg>