<svg version="1.1" xmlns="http://www.w3.org/2000/svg" x="0" y="0" viewBox="0 0 512 512" style="enable-background:new 0 0 512 512" xml:space="preserve"><path d="M256 0C114.6 0 0 114.6 0 256s114.6 256 256 256 256-114.6 256-256S397.4 0 256 0zm113.7 62.9L272 204.6v-172c24.6 1.7 48.5 7.4 71.2 17 9.1 3.9 18 8.3 26.5 13.3zM97.6 97.6c20.6-20.6 44.5-36.7 71.2-48 22.7-9.6 46.6-15.3 71.2-17v197L65.5 138.1c9.1-14.6 19.8-28.2 32.1-40.5zM256 480c-30.3 0-59.6-5.9-87.2-17.6-26.7-11.3-50.6-27.4-71.2-48s-36.7-44.5-48-71.2C37.9 315.6 32 286.3 32 256s5.9-59.6 17.6-87.2c.3-.8.7-1.6 1.1-2.4L246 268.8l146.6 164.7c-15.1 11.7-31.7 21.4-49.4 28.9-27.6 11.7-56.9 17.6-87.2 17.6zm160.5-67.8L276.3 254.7 396 81.1c6.4 5.1 12.5 10.6 18.4 16.5 20.6 20.6 36.7 44.5 48 71.2 11.7 27.6 17.6 56.9 17.6 87.2s-5.9 59.6-17.6 87.2c-10.9 25.7-26.3 48.9-45.9 69z"/></svg>