<svg version="1.1" xmlns="http://www.w3.org/2000/svg" x="0" y="0" viewBox="0 0 512 512" xml:space="preserve"><path d="M452 358c-10.9 0-21.2 2.9-30 8L286 130.5c17.9-10.4 30-29.7 30-52 0-33.1-26.9-60-60-60s-60 26.9-60 60c0 22.2 12.1 41.6 30 52L90 366c-8.8-5.1-19.1-8-30-8-33.1 0-60 26.9-60 60s26.9 60 60 60 60-26.9 60-60h272c0 33.1 26.9 60 60 60s60-26.9 60-60-26.9-60-60-60zM256 50.5c15.4 0 28 12.6 28 28s-12.6 28-28 28-28-12.6-28-28 12.6-28 28-28zM60 446c-15.4 0-28-12.6-28-28s12.6-28 28-28 28 12.6 28 28-12.6 28-28 28zm55.4-60L256 142.5 396.6 386H115.4zM452 446c-15.4 0-28-12.6-28-28s12.6-28 28-28 28 12.6 28 28-12.6 28-28 28z"/></svg>