<svg version="1.1" xmlns="http://www.w3.org/2000/svg" x="0" y="0" viewBox="0 0 512 512" xml:space="preserve"><path d="M256 0C114.62 0 0 114.62 0 256s114.62 256 256 256 256-114.62 256-256S397.38 0 256 0zm221.15 349.41c-12.09 28.58-29.39 54.25-51.44 76.29-22.05 22.05-47.71 39.35-76.29 51.44C319.84 489.66 288.41 496 256 496c-32.41 0-63.84-6.34-93.41-18.85-28.58-12.09-54.25-29.39-76.29-51.44-22.05-22.05-39.35-47.71-51.44-76.29C22.34 319.84 16 288.41 16 256c0-32.41 6.34-63.84 18.85-93.41 12.09-28.58 29.39-54.25 51.44-76.29 22.05-22.05 47.71-39.35 76.29-51.44C192.16 22.34 223.59 16 256 16c32.41 0 63.84 6.34 93.41 18.85 28.58 12.09 54.25 29.39 76.29 51.44 2.85 2.85 5.61 5.76 8.3 8.73a242.61 242.61 0 0 0-14.3-14.21c1.39 3.21 2.97 5.9 5.64 7.7 3.56 2.4 6.43 5.88 9.44 9.03.56.59.88 2.27.47 2.78-1.64 2.09-.32 3.44.83 4.89 2.99 3.76 6.02 7.48 8.97 11.27 2.18 2.8 6.28 5.22 10.56 6.18.68 1.01 1.35 2.03 2.01 3.06-.31 1.51-.77 2.66-.47 3.55 1.39 3.98 3.09 7.85 4.68 11.75 2.25 5.49 4.77 10.89 6.68 16.51 1.28 3.76 1.68 7.82 2.5 11.75.75 3.62 1.42 7.25 2.28 10.84 1.04 4.32 2.09 8.65 3.45 12.87 1.25 3.91 3.27 7.59 4.29 11.55 1.08 4.19 1.08 8.65 2.14 12.85 1.18 4.67 2.94 9.2 4.6 13.73 1.04 2.84 2.38 5.58 3.58 8.35.84 1.94 2.73 6.26 4.58 10.49.05 2.01.07 4.01.07 6.03 0 32.42-6.34 63.85-18.85 93.42zM297.49 62.92l-12.06-6.54c.94-.7 1.63-1.21 2.14-1.6 3.65 2.49 7.1 4.84 10.55 7.18-.21.32-.43.65-.63.96zm-20.43-40.15c8.28.65 16.43.47 24.69 3.38 9.4 3.32 18.35 7.42 27.3 11.67 2.02.96 3.68 2.7 5.58 4.15-.91.76-1.97 1.65-3.13 2.62 1.28 1.66 2.49 3.24 4.17 5.42-1.49-.25-2.18-.36-2.94-.49-.68 2.64.15 4.42 2.12 6.49 2.98 3.12 5.16 6.98 8.19 11.25-4.35-2.76-7.93-5.04-11.51-7.32-.04.46-.07.92-.11 1.38-.58.45-1.44 1.41-1.71 1.28-2.78-1.46-5.48-3.1-8.2-4.71-2.49-1.47-5.01-2.88-7.42-4.47-1.78-1.17-3.39-2.58-5.69-4.34 1.5-.39 2.05-.53 2.61-.67-.31-.78-.39-1.9-.95-2.27-3.37-2.2-6.37-4.7-10.78-5.49-3.79-.67-7.25-3.56-10.71-5.71-3.02-1.89-5.71-4.3-8.76-6.14-2.88-1.75-3.15-1.86-2.75-6.03zm57.61 218.31h6.51c.07.33.15.66.22.99-1.8.44-3.6.98-5.43 1.24-.27.04-.73-1.21-1.3-2.23zM286.68 61.13c.22-.4.44-.8.67-1.21 3.13 1.82 6.26 3.65 9.39 5.48-.16.22-.32.45-.48.67-3.2-1.65-6.39-3.3-9.58-4.94zm-8.2-5.22c.81-.9 1.6-1.77 2.56-2.82.94 1.47 1.66 2.59 2.42 3.78-.9 1.1-.9 1.1-4.98-.96zm18.85.14c-3.36-1.09-6.34-2.06-9.71-3.16 2.1-1.18 8.97-.62 9.9.74.41.58-.12 1.8-.19 2.42zm149.34 265.9c-1.45-1.44-3.62-3.23-5.35-3.11-4.1.27-8.13 1.58-12.43 2.53-.84-4.63-4.75-3.77-7.65-4.73-4.17-1.39-5.89 1.42-7.53 4.39.55-1.66 1.1-3.34 1.55-4.73-2.1-.74-3.96-1.4-6.03-2.13 1.36-3.29 1.39-5.91-1.86-7.75-.66-.38-1-1.72-1.07-2.64-.27-3.4-1.48-5.67-4.77-7.57-4.72-2.74-9.15-4.29-14.5-2.41-3.49 1.23-8.77-.25-10.47-3.36-2.29-4.21-5.99-5.66-10.39-6.46.19-3-1.52-4.11-4.16-4.37-.96-.09-2.09-.2-2.77-.76-.72-.59-1-1.73-1.91-3.47-2.35 1.2-5.2 2.85-8.19 4.13-1.27.55-3.37 1.02-4.18.37-3.21-2.52-6.32-1.19-9.58-.58-.8.15-2.2-.28-2.57-.9-2.02-3.34-4.47-4.28-8.07-2.68-2.35 1.04-4.63 2.23-7.15 3.45-.58-.94-1.17-1.89-1.75-2.82 1.06-.72 1.93-1.08 2.44-1.72.44-.56.5-1.44.72-2.18-.85-.04-1.77-.28-2.53-.04-.65.2-1.04 1.08-1.66 1.48-2.07 1.31-4.15 2.62-6.31 3.77-1.23.67-2.63 1.03-4.69 1.8-1.44-.57-3.69.75-4.23 3.38-.37 1.86-.43 3.63-2.39 5.05-1.78 1.29-2.82 3.62-4.11 5.39-1.48-1.3-3-3.15-4.95-4.21-2.87-1.54-5.77-2.89-9.28-.53-5.3 3.57-7.38 2.81-12.49-.92-5.27-3.84-6.72-8.33-5.24-14.54 1-4.16 1-8.55 1.44-12.84-.35.12-.7.23-1.05.34-1.22-.99-2.33-2.56-3.7-2.85-2.7-.56-5.55-.5-8.34-.55-4.21-.07-8.42-.02-13.7-.02 4.93-4.17 4.11-9.01 4.23-13.65.48.39.95.77 1.41 1.15.25-.26.45-.39.53-.57 1.63-3.86.44-8.73 4.28-11.84.15-.12-.89-2.38-1.28-2.35-4.34.31-8.67.8-12.97 1.47-.64.1-1.53 1.33-1.55 2.05-.12 4.55-2.99 7.54-5.51 10.41-1.57-.19-3.03-.69-4.37-.48-4.21.67-8.47 3.25-12.31-1.04-1.29-1.42-3.11-2.39-4.3-3.87-1.12-1.4-1.85-3.14-2.56-4.82-1.5-3.54-3.6-6.93-2.88-11.09.48-2.77.75-5.58 1.19-8.36.22-1.39.19-3.5 1.02-3.96 2.44-1.34 1.89-3.22 1.57-5.09-.71-4.22 1.98-9.25 7.31-10.53 1.87-.44 3.37-2.41 5.41-3.98.27-.03 1.29-.23 2.28-.17 3.52.22 7.4-.31 10.48 1.02 4.33 1.86 5.78 2.19 8.87-1.65-1.46-.18-2.85-.35-4.23-.53.06-.46.14-.92.2-1.38 1.12.22 2.54.99 3.31.56 3.67-2.05 7.55-.16 11.27-.84 1.36-.25 3.55.03 4.25.93 2.56 3.28 4.99 1.98 7.65.14 2.43 3.12 5.47 4.89 5.75 9.94.24 4.36 4.4 8.57 7.06 12.7.22.34 2.64-.07 3.25-.8.72-.87 1.04-2.57.74-3.7-1.19-4.47-2.52-8.91-4.11-13.25-1.71-4.66-3.62-9.35.09-13.72 2.55-3.01 5.6-5.63 8.65-8.16 3.5-2.91 7.26-5.52 11.37-8.62-1.54-.87-2.24-1.27-2.34-1.32 0-1.5.44-3.23-.07-3.59-2.61-1.82-1.13-4.36-1.8-6.45.37-.15.73-.29 1.09-.43.56 1.39 1.12 2.77 1.56 3.89 1.23-2.15 3.56-4.55.08-7.44 3.56.22 4.14-.55 4.94-5.95 1.27-.38 2.53-.75 4.07-1.21l-2.64-1c3.7-1.07 6.75-1.96 9.94-2.89-3.33-4.64-2.76-7.04 1.85-9.77 2.45-1.45 4.69-3.37 7.28-4.43 1.84-.76 3.63-3.01 6.75-1.57-1.05.81-1.72 1.11-2.02 1.61-.67 1.14-1.35 2.34-1.6 3.6-.07.4 1.46 1.66 1.79 1.51 1.1-.5 2.02-1.43 2.95-2.27.52-.47.8-1.27 1.37-1.61 3.39-2.03 6.84-3.96 10.41-6.01-1.59-1.68-2.64-2.77-3.93-4.14-.36 1.94-.64 3.47-.92 4.98-6.68 1.53-11.8-2.15-12.29-6.56-1.15-.26-2.27-.52-2.87-.65 1.14-1.09 2.19-2.1 3.24-3.1-1.37-.56-2.78-1.71-4.1-1.6-4.6.38-8.2 2.9-11.56 6.03 1.41-2.33 3.23-4.25 5.08-6.15.36-.37 1.14-.63 1.17-.98.21-3.16 2.67-3.02 4.75-3.2 2.93-.25 5.9-.19 8.84-.41 3.12-.23 6.33-.23 8.07-3.74.37-.77 1.76-1.05 2.69-1.53 1.78-.9 3.08-1.66 1.67-4.16-2.33-4.16-7-4.34-10.39-6.65-2.88-1.95-6.7-2.55-9.45-4.62-4.44-3.35-8.34-7.42-13.33-11.96 1.13 10.65-4.99 6.11-9.01 5.75-.7-2.81-1.02-6.15-5.33-6.2-.47-.01-1.03-.41-1.41-.77-2.97-2.82-6.82-2.75-10.47-3.09-2.84-.27-4.16 1.67-2.86 4.27 1.24 2.47 2.24 4.65.32 6.52 2.31 2.74 4.42 5.23 6.74 7.97-3.2 2.3-5.71 4.11-8.28 5.95.85 2.08 2.03 4.41 2.72 6.87.27.98-.2 2.67-.96 3.3-.81.68-2.84 1.11-3.5.59-3.88-3.06-7.79-6.29-5.85-12.63-2.21-.12-3.99.06-5.59-.36-3.07-.82-6.38-1.47-8.98-3.14-3.42-2.21-6.67-3.8-10.73-2.79-.8-1.72-1.33-4.67-2.44-4.9-3.74-.8-2.26-2.89-1.26-4.23 2.22-3 4.81-5.72 7.39-8.42.52-.55 1.7-.45 2.64-.67-.19-2.39 1.26-4.11 3.65-3.22 3.29 1.22 3.9-1.35 5.27-2.96 1.59-1.88-.02-2.9-1.15-4.07-.34-.36-.66-.88-.71-1.36-.29-2.54-.25-2.54-2.35-1.26-.24.15-.54.19-.76.27-.28-.95-.52-1.81-.83-2.89-4.08 3.35-8.46 4.79-13.33 4.74-2.1-.02-4.72.71-6.19-.27-3.99-2.64-7.05-2.3-9.75 1.49-2-4.92-6.81-.71-10.01-3.87.9-.32 1.78-.65 2.65-.97-.14-.26-.29-.52-.43-.78-3.38 1-5.61-3.54-9.32-1.6-.61.32-1.9-.64-2.87-1.01.39-.26.77-.52 1.16-.78h-13.43c-.18-1.36 0-2.88-.46-3.1-2.99-1.46-5.31-4.81-9.53-2.88-5.41 2.46-11.04 4.44-16.56 6.67-.55.23-.96.83-1.47 1.21-1.72 1.29-3.34 2.76-5.21 3.76-1.61.87-3.54 1.07-5.25 1.78-5.92 2.44-9.14 7.75-12.78 12.9 3.46-1.8 6.93-3.6 10.86-5.64-.56 1.09-.83 1.6-1.4 2.68 2.84-1.14 5.12-2.04 7.06-2.82.71 1.15 1.17 2.21 1.91 3.01 1.2 1.27 2.18 2.33 1.13 4.28-.45.85-.61 2.6-.08 3.13 2.25 2.26.52 3.25-.95 4.7-1.56 1.53-2.83 3.38-4.22 5.08.25.18.51.35.76.53.65-.8 1.3-1.62 1.95-2.43.27.12.54.23.8.35-3.13 5.49-4.41 11.52-5.6 17.63-2.14-.26-3.31.18-2.26 2.6.66 1.49.91 3.16 1.62 4.6.33.67 1.34 1 2.04 1.49.2-.85.57-1.7.57-2.55 0-1.13-.31-2.25-.47-3.37 3.13 2.73 3.07 5.47.64 8.15-2.2-1.93-3.42-1.76-4.54 1.11-1.18 3.01-2.99 5.8-4.57 8.65-2.53 4.59-7.19 7.9-8 13.53-.1.71-.64 1.4-1.08 2.01-2.5 3.46-3.2 7.4-3.1 11.53.02.93.45 1.86.48 2.79.08 3.2.05 6.4.12 9.6.03 1.31.22 2.63.34 3.99 3.41 1.8 6.64 4.02 6.72 8.49.13 6.59-.32 13.19 3.3 19.24 1.8 3.01.84 4.57-3.37 5.57 2.07 1.73 3.75 3.06 5.35 4.49 1.92 1.73 3.62 3.83 2.55 6.52-.96 2.43.14 3.83 1.45 5.52 1.72 2.21 3.21 4.6 4.84 6.95 2.01-1.13 1.87-4.21-.68-5.96-.59-.41-1.42-1.04-1.45-1.6-.25-4.55-.62-9.01-2.52-13.29-1.65-3.7-2.52-7.75-4.25-11.39-1.63-3.41-.21-6.24.35-10 2.02 1.21 4.47 1.87 4.67 2.95.67 3.54.53 7.23.7 11.02-.06-.03.66 0 .84.33 1.44 2.59 2.64 5.34 4.21 7.84 1.53 2.41 4.04 4.39 2.52 7.78-.08.18.22.57.41.83 3.25 4.63 6.85 9.05 9.6 13.95 1.53 2.72 2.43 5.94 1.45 9.54-1.53 5.6-1.3 4.98 3.33 8.93.42.35.95.62 1.25 1.05 3.29 4.85 9.12 6.18 13.49 9.56 3.35 2.59 7.56 4.12 11.54 5.8 2.45 1.04 5.65 2.68 7.67 1.9 6.04-2.36 10.42-1.19 14.41 3.69 2.73 3.33 5.51 6.88 10.61 6.63.67-.03 1.36.61 2.07.88 3.77 1.43 7.39 3.68 11.18 2.36 1.1 1.69 1.86 3.19 2.92 4.42 1.54 1.79 3.52 3.25 4.92 5.13.83 1.13.9 2.82 1.32 4.25.28.94.31 2.37.93 2.7.99.54 2.38.36 3.6.48.06-.24.14-.49.21-.74 2.16 2.09 4.32 4.17 7.42 7.17 3.49.43 8.49 1.22 11.91 5.83.98-.57 1.96-1.14 3.04-1.77-.68-1.24-1.17-2.13-1.61-2.9 1.23-1.12 2.15-2.27 3.35-2.93 1.01-.55 2.57-1.03 3.49-.63 1.33.58 2.53 1.83 3.37 3.08.98 1.47 1.19 3.53 2.32 4.82 1.94 2.21 2.71 4.36 2.19 7.32-.42 2.38-.31 4.94.08 7.33.4 2.43-.95 6.14-3.33 6.68-1.77.4-2.12 1.17-2.47 2.78-.33 1.52-1.48 3.98-2.43 4.06-4.94.43-3.93 5.47-6.47 7.67-.88.76-1.51 2.15-1.66 3.33-.21 1.63-.4 3.68.4 4.9.84 1.29 2.85 1.79 4.84 2.92-1.18.8-2.15 1.5-3.17 2.15-3.87 2.47-4.33 3.79-3.05 7.96.31 1.04.18 2.21.29 3.69 6.01 1.51 8.19 7.22 11.3 12.05 3.14 4.88 6.2 9.82 9.23 14.77.53.86.76 1.9 1.15 2.84.49 1.2.68 2.8 1.58 3.5 2.01 1.57 4.27 2.89 6.6 3.94 3.45 1.55 7.18 2.52 10.55 4.23 3.61 1.83 6.79 3.99 6.03 9.23-.57 3.97-2.03 7.59-2.88 11.33-1.17 5.14-2.89 9.84-4.97 14.61-1.59 3.65-4.69 6.97-3.62 11.51.06.28-.06.68-.23.91-1.82 2.39-4.01 4.56-5.43 7.16-1.56 2.88-6.71 3.73-4.95 8.54.08.24-.94.8-1.32 1.31-1.35 1.79-2.64 3.62-3.95 5.45.19.13.38.25.57.38 1.5-1.25 3-2.49 4.49-3.73.29.33.56.66.84.99-1.88 2.04-2.3 5.44-6.46 5.39-1.26-.02-3.55 1.07-2.3 3.51-1.27.66-2.46 1.28-3.53 1.83 1.26 1.78 2.29 3.24 3.33 4.69h5.92c.38-.38.77-1.08 1.14-1.07 1.68.06 3.36.31 5.03.48-.19-.37-.38-.74-.56-1.11.67-.95 1.12-2.31 2.03-2.77 2.97-1.49 6.1-2.64 9.17-3.94.22-.09.41-.29.63-.44-.86-.54-1.61-1-3.07-1.9 2.37-.74 4.12-.99 5.56-1.8 2.57-1.45 6.61-2.91 7.03-4.97.62-3.02 1.92-2.46 3.75-2.93 2.31-.59 4.51-1.7 6.66-2.79 1.11-.56 1.9-1.9 3.03-2.28 2.64-.9 5.52-1.17 8.12-2.18 4.57-1.77 10.03-2.73 10.6-9.25-.84-.38-1.6-.71-2.35-1.04 5.14.08 10.01-.48 14.04-3.65 4.31-3.4 8.25-7.27 12.46-10.81 1.36-1.15 3.33-1.63 4.56-2.87 4.09-4.13 9.28-7.42 10.84-13.61.18-.68.8-1.29 1.33-1.83 5.66-5.66 12.18-10.06 19.28-13.76 2.61-1.36 5.21-3.35 6.91-5.71 6.88-9.53 12.82-19.6 15.25-31.35.23-1.15.76-2.28 1.4-3.26 3.62-5.54 7.54-10.9 10.91-16.58 1.74-2.93 2.9-6.32 3.74-9.64.73-2.93.94-6.11-.63-9.31-2.84 2-4.56.73-6.43-1.16zM278.69 128.4c1.95-.28 3.93-.43 6.17-.66 1.18 1.7.8 2.9-1.67 3.19-2.98.34-6 .36-9.25.54.78-2.46 2.78-2.8 4.75-3.07zm-2.05 4.79c-4.97 5.02-11.61 6.91-15.46 4.21 5.18-1.64 9.56-5.08 15.46-4.21zm-17.05-13.09c4.37-.18 8.94-.91 12.16 3.17.59.76.72 1.88 1.33 3.58-1.96-.69-2.96-1.04-4.22-1.48-1.16 2.36-2.37 4.82-3.94 8.03-.92-2.47-1.4-3.79-1.95-5.29-1.25.99-2.07 1.66-2.89 2.31-.21-.16-.43-.31-.64-.46.46-.74 1.28-1.46 1.31-2.22.07-1.52.27-3.75-.58-4.43-1.37-1.09-3.77-3.08-5.16.46-.18.45-.55 1.16-.89 1.18-3.55.31-2.88 3.21-3.26 5.34-.14.76.76 1.75.55 2.44a19.52 19.52 0 0 1-2.19 4.78c-.31.5-2.16.71-2.22.57-.58-1.33-1.22-2.75-1.28-4.16-.06-1.57.53-3.16.73-4.76.21-1.63-.18-3.54.53-4.87 1.64-3.06 4.71-3.82 8.02-3.83 1.53.01 3.05-.3 4.59-.36zm-22.8-5.04c3.02-1.71 5.95-3.78 9.18-4.86 1.97-.66 4.92-1.59 6.46 1.53.27.55.85 1.29 1.34 1.33 3.92.36 2.98 3.51 3.63 5.44-1.9 0-3.5-.39-4.79.07-3.1 1.12-5.28.03-7.25-2.19-.18-.2-.71-.39-.85-.28-3.36 2.66-7.18 1.77-11.38 1.4 1.41-.95 2.49-1.77 3.66-2.44zm-20.57-24.97v3.66c1.73-1.04 3.22-1.92 4.72-2.83 2.97 5.46 3.1 10.95.03 12.41.58-1.39 1.02-2.42 1.34-3.19-1.36-1.63-2.63-3.15-3.9-4.68-.39-.46-.78-.91-1.17-1.36-.43.48-.94.91-1.29 1.44-.57.88-1.04 1.82-1.78 3.14-.27-1.73-.47-3-.67-4.26-.29-.05-.58-.1-.88-.15 1.11-1.28 2.21-2.57 3.6-4.18zm-13.28-40.08c1.29 2.48-.26 4.97-3.26 5.42-2.38.35-4.77.53-7.16.78-.15-.39-.29-.77-.43-1.16 3.62-1.68 7.23-3.36 10.85-5.04zm-11.17 17.65c2.35-1.68 4.12-2.95 5.91-4.21.17-.11.52-.23.61-.15 3.3 2.94 6.44-.27 9.76-.06-5.17 1.53-9.73 5.25-16.28 4.42zm58.86 207.08c2.11 1.87 3.68 3.27 5.79 5.15-4.68.42-5.89-.63-5.79-5.15zm69.14 11.9c-.34.46-2.09.56-2.53.14-2.13-2-1.41-3.93.71-5.88 1.12 1.88 3.78 3.11 1.82 5.74zm3.3 108.38c-.05-.51-.08-1.01-.13-1.52.89-.07 2.05-.54 2.61-.14.99.69 1.6 1.9 2.37 2.9-1.62-.4-3.23-.82-4.85-1.24zm69.81-330.98c-1.48-1.36-3.18-2.5-4.78-3.74.18-.26.35-.53.53-.79l23.22 14.46c1.36 1.13 2.71 2.27 4.04 3.44-.1.26-.19.52-.3.78-1.4-.31-3.08-.25-4.14-1.03-2.72-2-5.14-4.38-7.72-6.57-.94-.8-1.98-1.49-3.27-1.86 2.88 2.84 5.76 5.69 8.65 8.53-.38.4-.76.8-1.14 1.19-3.01-2.81-6.07-5.58-9.04-8.43-2.07-1.96-3.96-4.09-6.05-5.98zm-40.25 48.13c-.98-.18-1.95-.36-3.2-.58.31-1.21.56-2.2 1.04-4.04 1.19 1.72 1.98 2.84 2.76 3.97-.19.2-.4.43-.6.65zm-14.69-10.41c2.27.38 4.94.43 7.28 1.34 1.59.61 2.96 2.26 3.92 3.76.34.54-.71 2.1-1.33 3.06-.45.68-.96.64-2.06.43-2.87-.55-5.95.03-8.96.15-.64.03-1.29 0-2.48 0 1.97-4.71-.73-9.91 2.07-14.15.35.03.7.06 1.04.08.16 1.56.31 3.13.52 5.33zm22.84-49.15c-3.15-1.17-6.32-2.35-9.67-3.6 4.57-3.92 6.67-3.26 9.67 3.6zm-57.84 191.13c.01-.32.01-.64.02-.96h9.71c-1.97-2.6-3.3-4.36-4.73-6.24 3.53-.24 7.51-1.25 11.18-.57 3.75.69 7.2 3.04 10.79 4.66-.15.37-.3.73-.44 1.1-4.41 1.11-9.88-.85-13.06 4.35-3.71-4.87-9.25.06-13.47-2.34zM265.87 34.01c-2.31.18-4.23.34-5.56.44 1.28-.8 3.02-3.25 5.56-.44zm37.04 201.59c-4.76.43-9.52.85-14.95 1.33 1.09-1.16 1.76-1.86 2.88-3.06-1.65-.38-2.84-.57-3.98-.93-.88-.28-2.23-.58-2.43-1.19-.82-2.47-2.53-2.56-4.75-2.85-3.57-.47-7.06-1.64-10.55-2.64-.35-.1-.43-1.15-.9-2.58-3.36 1.23-6.89 2.53-11.45 4.21 1.01-1.54 1.37-2.83 2.18-3.24 6.7-3.34 13.47-4.37 20.34-.27 1.24.74 2.91.71 4.25 1.33 4.76 2.18 9.45 4.52 14.2 6.72 1.69.79 3.5 1.32 5.25 1.97-.02.4-.05.79-.09 1.2zM211.5 41.41c-.16-.39-.31-.78-.46-1.17 2.39-1.03 4.77-2.04 7.16-3.07.16.5.31 1.01.45 1.51-2.39.91-4.78 1.82-7.15 2.73zm74.64 202.4c2.7.42 5.41.82 8.11 1.24-3.02 1.56-6 2.99-8.11-1.24zM225.06 45.44c-.18-.26-.38-.53-.57-.79 1.88-.13 3.74-.26 5.71-.39.79 2.02.09 2.94-2 2.5-1.08-.22-2.09-.87-3.14-1.32zm39.89 7.3c-1.72.91-3.1 1.72-3.15 1.65-1.18-1.76-2.23-3.61-3.45-5.71 5.89-2.02 2.79 3.85 6.6 4.06zm-5.69-18.21c.3-.02.65-.06 1.05-.08-.39.25-.74.35-1.05.08zm-4.72-3.93c-.36-.52.17-1.66.29-2.52 1.37.74 2.73 1.48 4.3 2.34-1.98 1.87-3.49 1.75-4.59.18z"/></svg>