<svg version="1.1" xmlns="http://www.w3.org/2000/svg" x="0" y="0" viewBox="0 0 512 512" xml:space="preserve"><path d="M198 467.9c0 1.2-.9 2.1-2.1 2.1-1.2 0-2.1-.9-2.1-2.1s.9-2.1 2.1-2.1 2.1.9 2.1 2.1zm-15.9-119.5h-35.5c-4.2 0-7.5 5.2-7.5 11.6 0 6.4 3.4 11.6 7.5 11.6h35.5c4.2 0 7.5-5.2 7.5-11.6 0-6.4-3.3-11.6-7.5-11.6zm-8.2-21h-39c-4.2 0-10.5 4.2-12.6 6.3-2.1 2.1-6.3 9.4-7.4 12.6-1.1 3.1-21.1 87.4-21.1 87.4s41-79 43.2-82.1c2.1-3.1 6.3-6.3 8.4-6.3h34.7c4.4 0 6.3 0 7.4 1.1 1.1 1 3 4.4 3 4.4l13.9 30.3s-13.7-40-15.8-44.2c-2.1-4.2-9.4-9.5-14.7-9.5zM207 466.2c-1.2 0-2.1.9-2.1 2.1s.9 2.1 2.1 2.1 2.1-.9 2.1-2.1-.9-2.1-2.1-2.1zm22.1.9c-1.2 0-2.1.9-2.1 2.1s.9 2.1 2.1 2.1c1.2 0 2.1-.9 2.1-2.1s-.9-2.1-2.1-2.1zm-11.1-.4c-1.2 0-2.1.9-2.1 2.1s.9 2.1 2.1 2.1 2.1-.9 2.1-2.1-.9-2.1-2.1-2.1zm-33.1-1.3c-1.2 0-2.1.9-2.1 2.1s.9 2.1 2.1 2.1c1.2 0 2.1-.9 2.1-2.1s-.9-2.1-2.1-2.1zm-66.4-2.7c-1.2 0-2.1.9-2.1 2.1s.9 2.1 2.1 2.1 2.1-.9 2.1-2.1-.9-2.1-2.1-2.1zm-11-.4c-1.2 0-2.1.9-2.1 2.1s.9 2.1 2.1 2.1 2.1-.9 2.1-2.1-.9-2.1-2.1-2.1zm66.3 2.6c-1.2 0-2.1.9-2.1 2.1s.9 2.1 2.1 2.1 2.1-.9 2.1-2.1-.9-2.1-2.1-2.1zM360.5 91.7C329.4 36.7 295.5 0 256 0c-42.1 0-78 41.7-110.6 102.8-4.9 9.2-10.1 20.7-15.3 33.5 24.7-7.6 67.8-19.7 118.2-28.7 44.7-8 85.3-13 112.2-15.9zM85.4 461.4c-1.2 0-2.1.9-2.1 2.1s.9 2.1 2.1 2.1c1.2 0 2.1-.9 2.1-2.1s-.9-2.1-2.1-2.1zm11 .4c-1.2 0-2.1.9-2.1 2.1s.9 2.1 2.1 2.1c1.2 0 2.1-.9 2.1-2.1s-.9-2.1-2.1-2.1zm33.2 1.4c-1.2 0-2.1.9-2.1 2.1s.9 2.1 2.1 2.1c1.2 0 2.1-.9 2.1-2.1s-.9-2.1-2.1-2.1zm22.1.8c-1.2 0-2.1.9-2.1 2.1s.9 2.1 2.1 2.1 2.1-.9 2.1-2.1-.9-2.1-2.1-2.1zm11.1.5c-1.2 0-2.1.9-2.1 2.1s.9 2.1 2.1 2.1 2.1-.9 2.1-2.1-.9-2.1-2.1-2.1zm-22.2-.9c-1.2 0-2.1.9-2.1 2.1s.9 2.1 2.1 2.1c1.2 0 2.1-.9 2.1-2.1s-.9-2.1-2.1-2.1zM372.9 360c0-6.4-3.3-11.6-7.5-11.6h-35.5c-4.2 0-7.5 5.2-7.5 11.6 0 6.4 3.3 11.6 7.5 11.6h35.5c4.1 0 7.5-5.2 7.5-11.6zm9.5 103.2c-1.2 0-2.1.9-2.1 2.1s.9 2.1 2.1 2.1 2.1-.9 2.1-2.1-.9-2.1-2.1-2.1zm-22.1.8c-1.2 0-2.1.9-2.1 2.1s.9 2.1 2.1 2.1 2.1-.9 2.1-2.1-.9-2.1-2.1-2.1zm44.2-1.7c-1.2 0-2.1.9-2.1 2.1s.9 2.1 2.1 2.1 2.1-.9 2.1-2.1-.9-2.1-2.1-2.1zm-33.1 1.3c-1.2 0-2.1.9-2.1 2.1s.9 2.1 2.1 2.1 2.1-.9 2.1-2.1-.9-2.1-2.1-2.1zm44.2-1.8c-1.2 0-2.1.9-2.1 2.1s.9 2.1 2.1 2.1 2.1-.9 2.1-2.1-.9-2.1-2.1-2.1zm62.3 16.8c0 9.6-2.1 19.3-11.2 24.4-.1 0-.1.1-.2.1-6.1 3.3-13.3 4.2-20.2 4.8-41.3 3.9-82.7 3.3-124.1 4-22.1.4-44.2 0-66.3-.2-22.1.1-44.2.6-66.3.2-41.4-.7-82.8-.2-124.1-4-7-.6-14.1-1.4-20.2-4.8-.1 0-.1-.1-.2-.1-9.1-5-11.2-14.8-11.2-24.4 0-.2.1-2.7.1-2.7h.1c.5-12.1 4-26.9 7-43.4 6.3-34.7 27.9-109 27.9-109s30.5-111.1 59.5-183.4c24.1-7.5 68.3-20.1 120.4-29.4 45.3-8.2 86.5-13.2 113.3-16 1.5 2.7 2.9 5.4 4.4 8.1 32.7 61.1 76.4 220.7 76.4 220.7s21.6 74.2 27.9 109c3 16.5 6.5 31.3 7 43.4 0 0 .1 2.6 0 2.7zm-242.4-7.9s-35.3-130.7-37.4-137c-2.1-6.3-11.6-15.8-17.9-19-6.4-3.2-22.2-3.2-22.2-3.2h-4.2s-19 0-22.1 1.1c-3.2 1.1-10.5 5.3-13.7 8.4-3.2 3.2-9.5 12.6-11.6 19-2.1 6.4-25.9 125.3-25.9 125.3-.2 1.1.5 2.1 1.7 2.2 0 0 40 2 70.6 3.1 30.6 1.1 81.1 2.1 81.1 2.1 1.2 0 1.9-.9 1.6-2zm4.9-336.9c0-6.7-3.9-12.1-8.6-12.1s-8.6 5.4-8.6 12.1 3.9 12.1 8.6 12.1c4.7 0 8.6-5.4 8.6-12.1zm18.6-1c0-1.4-1.2-2.6-2.6-2.6-1.4 0-2.6 1.2-2.6 2.6s1.2 2.6 2.6 2.6c1.4 0 2.6-1.2 2.6-2.6zm21.2 13.1c4.7 0 8.6-5.4 8.6-12.1s-3.9-12.1-8.6-12.1-8.6 5.4-8.6 12.1 3.9 12.1 8.6 12.1zm151.3 319.5s-23.8-119-25.9-125.4c-2.1-6.4-8.4-15.9-11.6-19-3.2-3.1-10.5-7.3-13.7-8.4-3.1-1.1-22.1-1.1-22.1-1.1H354s-15.9.1-22.2 3.3-15.8 12.7-17.9 19c-2.1 6.3-37.4 137-37.4 137-.3 1.1.4 2 1.6 2 0 0 50.5-1 81.1-2.1 30.6-1.1 70.6-3.1 70.6-3.1 1.2-.1 1.9-1.1 1.7-2.2zm-4.9-4c-1.2 0-2.1.9-2.1 2.1s.9 2.1 2.1 2.1 2.1-.9 2.1-2.1-.9-2.1-2.1-2.1zm-36.9-127.7c-2.1-2.1-8.4-6.3-12.6-6.3h-39c-5.3 0-12.6 5.3-14.7 9.5-2.1 4.2-15.8 44.2-15.8 44.2l13.9-30.3s1.9-3.4 3-4.4c1.1-1.1 3-1.1 7.4-1.1h34.7c2.1 0 6.3 3.2 8.4 6.3 2.1 3.1 43.2 82.1 43.2 82.1s-20-84.3-21.1-87.4c-1.1-3.2-5.3-10.5-7.4-12.6zm3.8 129c-1.2 0-2.1.9-2.1 2.1s.9 2.1 2.1 2.1 2.1-.9 2.1-2.1-.9-2.1-2.1-2.1zm-99.5 4c-1.2 0-2.1.9-2.1 2.1s.9 2.1 2.1 2.1 2.1-.9 2.1-2.1-.9-2.1-2.1-2.1zm11-.5c-1.2 0-2.1.9-2.1 2.1s.9 2.1 2.1 2.1 2.1-.9 2.1-2.1-.9-2.1-2.1-2.1zm11.1-.4c-1.2 0-2.1.9-2.1 2.1s.9 2.1 2.1 2.1 2.1-.9 2.1-2.1-.9-2.1-2.1-2.1zm-33.2 1.3c-1.2 0-2.1.9-2.1 2.1s.9 2.1 2.1 2.1 2.1-.9 2.1-2.1-.9-2.1-2.1-2.1zm44.2-1.7c-1.2 0-2.1.9-2.1 2.1s.9 2.1 2.1 2.1 2.1-.9 2.1-2.1-.9-2.1-2.1-2.1zm22.1-.9c-1.2 0-2.1.9-2.1 2.1s.9 2.1 2.1 2.1 2.1-.9 2.1-2.1-.9-2.1-2.1-2.1zm-11 .4c-1.2 0-2.1.9-2.1 2.1s.9 2.1 2.1 2.1 2.1-.9 2.1-2.1-.9-2.1-2.1-2.1z"/></svg>