<svg version="1.1" xmlns="http://www.w3.org/2000/svg" x="0" y="0" viewBox="0 0 512 512" xml:space="preserve"><path d="M368.5 444.2c-.2-.4-.9-.4-1.1 0l-1.2 2c-.2.3-.2.6-.2.9v5c0 .3.1.7.3 1l.5.7-44.8-4.7v-23.4l59-8.2-89-218.2v-12.8h3c.6 0 1-.4 1-1v-10c0-.6-.4-1-1-1h-3V59.3c-.8-4.9-2.7-9.8-4.8-14.7-2.2-4.9-4.8-9.8-7.7-14.7-2.9-4.9-6.1-9.8-9.8-14.7C266 10.1 262 5.2 257 .3c-.1-.1-.3-.2-.5-.2-.6-.1-1.2 0-1.5.2-5 4.9-9 9.8-12.6 14.7-3.7 4.9-6.9 9.8-9.8 14.7-2.9 4.9-5.5 9.8-7.7 14.7-2.1 4.9-4 9.8-4.8 14.7 0 .2 0 .5-.1.7v114.5h-3c-.6 0-1 .4-1 1v10c0 .6.4 1 1 1h3v12.8l-89 218.2 59 8.2v23.4l-44.8 4.7.5-.7c.2-.3.3-.6.3-1v-5c0-.3-.1-.6-.2-.9l-1.2-2c-.2-.4-.9-.4-1.1 0l-1.2 2c-.2.3-.2.6-.2.9v5c0 .3.1.7.3 1l.7.9v16l47 4.9v3.1c0 .7.2 1.3.7 1.9.8 1 1.2 2.2 1.2 3.3v7.1l-8.9 15.7c-.7 1.2.4 2.5 2.3 2.7l29.1 3.2c1.9.2 3.6-.9 3.4-2.2l-2.3-11.7h81l-2.3 11.7c-.3 1.3 1.4 2.5 3.4 2.2l29.1-3.2c1.8-.2 2.9-1.5 2.3-2.7l-8.9-15.7v-6.8c0-1.2.4-2.3 1.2-3.3.5-.6.7-1.2.7-1.9V475l47-4.9v-16l.7-.9c.2-.3.3-.6.3-1v-5c0-.3-.1-.6-.2-.9l-1.4-2.1zM231 127.5c-.8 0-1.5-.7-1.5-1.5s.7-1.5 1.5-1.5 1.5.7 1.5 1.5-.7 1.5-1.5 1.5zm36.2-23.9c.4-.7 1.3-1 2-.5.7.4 1 1.3.5 2-.4.7-1.3 1-2 .5-.7-.4-.9-1.3-.5-2zM256 99.5c.8 0 1.5.7 1.5 1.5s-.7 1.5-1.5 1.5-1.5-.7-1.5-1.5.7-1.5 1.5-1.5zm-13.2 3.6c.7-.4 1.6-.2 2 .5.4.7.2 1.6-.5 2-.7.4-1.6.2-2-.5-.5-.7-.3-1.6.5-2zm-9.7 9.7c.4-.7 1.3-1 2-.5.7.4 1 1.3.5 2-.4.7-1.3 1-2 .5-.7-.4-1-1.3-.5-2zm2 27c-.7.4-1.6.2-2-.5-.4-.7-.2-1.6.5-2 .7-.4 1.6-.2 2 .5.5.7.2 1.6-.5 2zm9.7 8.6c-.4.7-1.3 1-2 .5-.7-.4-1-1.3-.5-2 .4-.7 1.3-1 2-.5.7.4.9 1.3.5 2zm11.2 4.1c-.8 0-1.5-.7-1.5-1.5s.7-1.5 1.5-1.5 1.5.7 1.5 1.5-.7 1.5-1.5 1.5zm13.3-3.6c-.7.4-1.6.2-2-.5-.4-.7-.2-1.6.5-2 .7-.4 1.6-.2 2 .5.4.7.2 1.6-.5 2zm-13.3-.4c-12.4 0-22.5-10.1-22.5-22.5s10.1-22.5 22.5-22.5 22.5 10.1 22.5 22.5-10.1 22.5-22.5 22.5zm22.9-9.2c-.4.7-1.3 1-2 .5-.7-.4-1-1.3-.5-2 .4-.7 1.3-1 2-.5.7.3 1 1.2.5 2zm-.5-24.5c-.7.4-1.6.2-2-.5-.4-.7-.2-1.6.5-2 .7-.4 1.6-.2 2 .5.5.7.2 1.6-.5 2zm2.6 12.7c-.8 0-1.5-.7-1.5-1.5s.7-1.5 1.5-1.5 1.5.7 1.5 1.5-.7 1.5-1.5 1.5z"/></svg>