<svg version="1.1" xmlns="http://www.w3.org/2000/svg" x="0" y="0" viewBox="0 0 512 512" xml:space="preserve"><path d="M256 0C114.62 0 0 114.62 0 256s114.62 256 256 256 256-114.62 256-256S397.38 0 256 0zm99.4 92.4c-.97.97-1.82 1.83-2.86 2.86-.22-.17-.77-.59-1.87-1.45.97-.4 1.61-.68 1.97-.83.36-6.1.13-10.13-3.47-15.08.57 0 1.11-.17 1.31.01 3.35 3.24 6.98 7.64 4.8 12.51-.37.13-.76.27-1.18.42.5.62.97 1.17 1.3 1.56zm-26.03 15.14h-1.47c-.12-.61-.31-1.31-.84-1.72.36-.37.66-.68.95-1 1.66.89 1.66.89 1.36 2.72zM86.29 86.29c22.05-22.05 47.71-39.35 76.29-51.44C192.16 22.34 223.59 16 256 16c23.47 0 46.42 3.34 68.53 9.93l-1.06 1.65c-3.33-1.52-6.23.27-9.45.29 1.51 1.13 3.18 1.19 3.67 2.9-.74.48-1.43.93-2.06 1.34.61.41 1.27.86 2.14 1.43-5.55 1.33-10.32-4.87-14.94.39h-6.15c-.1.44-.18.75-.3 1.29h-4.74c.44.48.65.72 1.02 1.12-2.14.54-4.23-.51-6.16.84-6.7 1.35-9.58-3.46-15.36-2.6-1.69 1.43-3.37 2.83-4.84 4.07.24.85.44 1.53.69 2.37-1.95.6-3.74 1.15-5.52 1.7.3.64.56 1.19.87 1.84.69.04 1.45.08 2.3.11.32.51.65 1.04.98 1.57-1.84.86-3.94-.73-6.04-.94-.1.59-.22 1.21-.33 1.83-.4.17-.77.32-1.42.59.79.27 1.19.41 2.29.79h-3.8c-.41-.65-.81-1.28-1.27-2-.48.61-.86 1.1-1.23 1.58.88.96 1.61 1.76 2.31 2.52-.35.64-.6 1.09-.98 1.79.46.29.93.58 1.68 1.04h5.6c.58.57 1.15 1.13 1.78 1.74-.11.55-.24 1.12-.42 2.04-1.14-1.31-2-2.31-2.92-3.37-1.14.5-2.05.9-3.23 1.43.81.88 1.36 1.51 1.65 1.81-.08 3.01-2.66 3.79-3.63 5.63-.6-.32-1.15-.6-1.73-.91.79-1.74 1.57-3.44 2.41-5.29-4.05-1.43-2.45-6.16-5.73-8.09.29-.39.54-.72 1.04-1.38-1.45-.83-2.73-1.1-4.94-.95-1.08 2.6-2.03 5.1-1.34 7.91.55.06 1.08.12 1.6.18.32 1.32.72 1.36 2.16 1.91-.73.8-1.16 1.25-1.42 1.54-4.56-1.88-8.69-3.53-13.34-2.64.33.49.56.84.87 1.3-1.03.98-1.96 1.86-3.1 2.95-.35-.76-.55-1.2-.74-1.66-2.02.26-4.06.52-6.38.82-.29.26-.84.78-1.46 1.36-.72-.64-1.29-1.14-1.83-1.61-3.82 1.36-8.08 1.68-10.89 5.44-1.2-.08-3.3.52-4.13-.9.64-.93 1.18-1.7 1.69-2.45l1.62-.15c-.84-1.56-2.05-1.29-3.39-1.09.45 2-2.38 2.94-1.53 4.58-.66.93-1.12 1.57-1.68 2.36-1.9-2.7-9.35.46-8.4 3.88-2-.2-3.81-.37-5.74-.56-.18.11-.61.38-1.18.72.8.33 1.24.51 2 .82-.65.72-1.07 1.19-1.49 1.65-1.5-.88-3.54-.6-4.1-2.29.25-1.97 1.15-3.07 2.56-4.45-.87-1.92-1.01-3.6-.4-4.2.23.47.44.93.72 1.52h2.24c.03.37.05.58.07.78 3.34 1.77 9.35 2.27 10.17-2.61-2.14-2.04-4.39-3.93-7.54-4.45-.34-.06-.57-.74-.99-1.32-.91-.11-2.33.46-2.88-.95.24-.5.44-.95.65-1.39-.73-.38-1.3-.65-1.87-.94-1.28 1.55-2.94-.43-4.02.12-1.44.72-2.83.11-4.17.58-1.27.44-2.42 1.86-3.94.57-1.01 1.23-2.7.27-3.89 1.28-1.12.95-2.48 1.74-4.24 1.34-1.02 1.91-3.17 1.96-4.79 2.93-4.56 2.55-9.2 4.96-13.87 7.33-10.97 4.19-15.58 4.66-23.04 14.76 2.41 4.23 5.8-1.9 8.95-.34-4.13 3.26-3.97 9.35-8.75 11.61.63.78.72 1.04 1.18 2.14 1.89-2.42 4.23-2.69 6.52-2.48 3.56-2.74 6.55-8.56 10.98-8.88 1.2-1.2 1.99-1.98 2.93-2.91-.12-.32-.34-.89-.56-1.46 3.34-7.38 12.72-7.38 17.94-12.6 2.19-2.19 4.95-1.8 8.04-1.97-1.14 1.42-1.93 2.4-2.72 3.39-1.46-.44-2.05 1.03-3.13 1.42-2.35.76-3.97 2.06-6.32 2.84-3.48.81-4.44 5.83-7.28 7.74.42.88.73 1.53 1.09 2.27 1.3 0 2.86.44 3.94-.09 2.41-1.2 4.77-.18 7.08-.64.17.87.28 1.49.37 1.91.51.2.81.31 1.12.43-2.84-.23-4.73 2.48-7.43 1.45-2.57-.66-5.18-.9-7.47 1.36l.55 2.27c-1.78.66-1.76 3.42-3.86 4.16-1.52-.36-1.21-1.69-1.56-2.68-4.52.43-6.39 5.53-8.8 8.76-2.59-.82-3.52 2.51-5.8 1.81-.08-.83-.16-1.68-.28-2.98-2.97 1.81-6.13 1.63-9.31 2.49v-2.35c-1.44.15-2.65.27-3.8.4-.33-.8-.56-1.35-.78-1.89 1.19-3.07 2.62-1.48 3.85-3.28-.2-.24-.38-.46-.7-.86 2.99-.7 3.47-3.69 5.38-5.41-7.51 1.08-7.82 9.06-13.79 11.92-1.12-1.17-2.66-.23-4.46-.72-.78.78-1.68 1.68-2.58 2.59l-.37-.37c-2.9 4.19-8.47 3.2-11.69 6.85-1.5.98-3.43 2.46-5.36 1.49l-2.42 2.1c-.35-.72-.57-1.17-.86-1.76-.77.37-1.52.72-2.34 1.1-.05 2.33.4 4.85-1.82 6.64-.89 4.86-5.09 8.94-8.26 12.63-1.4.84-1.8-1.5-3.13-1.33-.4-.22-.36-1.35-.38-1.57-1.05-.72-1.91-1.32-2.8-1.93-5.88 7-10.51 14.52-14.9 22.57 2.56 1.99-.7 4.37.19 6.29 1.2-.03 2.26-.28 3.19-.05 6.02 2.3 6.59-6.07 10.77-8.48.65-2.03 2.62-2.96 3.65-4.34 4.64-.32 6.5-2.96 8.07-6.43 2-2.54 4.55-1.06 4.28 1.72 3.18-.43 6.68-4.43 9.19-2.08.19 1.42.27 2.89-.65 4.06-1.53 2.67.22 5.99.17 8.94 2.16 4.28 3.12 8.96 2.25 13.84l-2.71 2.71c2.21-.85 3.28-3.08 5.23-4.49-.28-.89-.56-1.8-.61-1.98 1.04-1.2 1.83-2.1 2.72-3.12.73.6 1.53 1.25 2.37 1.94v-2.16c-.84-1.18-1.66-2.32-2.68-3.75v-2.32c-.81-.56-1.42-.97-1.97-1.35.11-2.48-.51-4.93 1.3-6.83-1.27-3.56-.58-5.49 3.03-9.02h1.97c-.38.86-.67 1.51-.98 2.19.56.26 1.03.48 1.52.72.03 2-1 4.44-.77 6.43 2.75 2.7 3.45 6.66 4.91 10.04-1.68 2.17-2.66 4.07-3.49 6.57 1.43 1.06.27 2.12-.02 3.17 1.56 2.08-.28 4.81 1.47 6.79-.56.59-1.02 1.07-1.28 1.35-.3 1.9-.56 3.55-.83 5.19.1.01.22.03.32.05.21-.44.42-.89.75-1.61.18.93.32 1.6.41 2.08 1.93-.2 2.13-1.91 2.81-3.12.42.3.63.44 1.01.72v-2.6c-.67-.64-1.31-1.27-1.96-1.89.74-.76 2.36-.35 2.47.55.23 1.29 1.49 1.04 1.93 1.75.61-.97 1.22-1.93 2.16-3.42-1.09.29-1.63.42-2.34.61-.29-.76-.66-1.7-1-2.59.62-.72 1.12-1.29 1.64-1.89-.32-.99-.61-1.88-.96-2.95.72-.53 1.44-1.04 2.15-1.55.24.23.79.72 1.52 1.39.64-.9 1.11-1.58 1.64-2.32 5.05-1.1 5.58 2.68 9.01 1.65 1.44-1.17 4.28-1.46 5.43.03v1.34c-2.63 1.89-5.33.95-7.63-.49-1.1 1.18-2.46 2.11-2.48 3.92l1.2.44c.16 2.76-1.68 4.77-.84 7.46.41.91-.32 2.35-.46 3.15 1.69 2 4.3 2.6 4.36 5.36h2.87c2.61-4.01 2.84-2.84 6.39-.08.03.43.06.96.08 1.5 3.73.42 6.05-.58 8.68-2.29.76.66 1.28 1.12 1.81 1.58.88-.91 1.6-1.84 2.9-1.06-.59.74-.65 2-1.82 2.1-.7 8.55-5.59 15.6-9.95 22.66-1.04 1.28-2.73 1.95-4.07 1.2-1.22-.68-2.38-.16-2.96-.4-1.54-1.17-2.66-2-3.77-2.84-2.61.39-4.94 1.28-7.02 2.83-2.26-1.32-4.85-1.97-6.49-4.11-1.51-.1-2.48-1.63-4.17-1.44-1.7.21-1.42-1.48-1.89-2.66h-2.18c-.18-.52-.32-.9-.45-1.27-.6-.07-1.13-.12-1.75-.19-.05-.81-.09-1.57-.12-2.12-.63-.72-1.15-1.31-1.58-1.81h-4.39c-1.13.95-2.36 2-3.45 2.92.13 3.58-1.33 5.88-4.21 7.35-1.73-3.79-3.76-6-7.36-7.94v-4.63c-1.19-1.34-2.19-2.48-3.37-3.8-.23-.08-1.36.17-1.77-.11-1.78-2.46-1.86-5.05-3.17-7.66 3.43-2.06 5.44-4.87 5.06-8.89l1.68-1.68c-.24-1.18-.43-2.19-.67-3.38-1.23.26-3.22 1.01-4.27.52-1.64-1.33-3.47-1.08-5.25-1.11-.48-.73-.93-1.43-1.32-2.03-3.18.61-5.32-1.75-7.95.4-.92.5-2.06.48-2.82 1.43-.23.28-1.44.24-1.48.12-1.7-2.34-3.01-1.68-2.51-5.64-2.51 2.47-3.39 5.81-6.59 7.29-5.97 3.98-5.17 11.99-11.42 16.12H31c-1.61 2.65-3.48 5.92-5.37 9.47 2.59-8.89 5.69-17.65 9.33-26.26 11.98-28.61 29.29-54.28 51.33-76.33zm211.74 59.36c-.33.83-.63 1.56-.97 2.39h-5.11c1.55-1.98 3.4-3.06 6.08-2.39zm-7.4-15.86c-.07-.28-.14-.58-.29-1.21.92.08 1.68.16 2.85.24.08-.11.45-.63.62-.87h2.69c-.78.96-1.12 1.36-1.5 1.84h-4.37zm-8.54 7.04c-1.39-.45-2.21-.72-2.97-.97-1.53-5.31 4.36-7.59 8.47-6.49-.64 2.03-2.37.76-3.48 1.28-2.07 1.01-2.05 3.32-3.08 5.02-.05.07.4.43 1.06 1.16zm-51.34 3.07c-.66.31-1.19.56-1.88.9v5c-.94-.59-1.52-.96-2.3-1.44.84-2.15 1.63-4.18 2.5-6.41.79.16 1.55.32 2.4.49v-1.68c1.2.49 2.1.7 3.27.57-.13.93-.6 2.09-.27 2.4.93.87-.68 1.38-.05 2.21.48.62.5 1.59.72 2.36-.7.65-1.27 1.19-1.93 1.8-1.14-.11-2.58.57-3.53-.87.61-1.62 1.55-3.18 1.07-5.33zm2.23-4.19c1.34-2.35 2.67-.37 4.12-.24-.11.51-.19.81-.25 1.12-1.37-.32-2.65-.61-3.87-.88zm-23.53 29.28c-.34 1.2-.58 2.07-.84 2.97 3.7 2.38 1.36 8.08 1.99 11.78-4.53-.06-8.65 3.35-12.54.2-1.78.42-1.18-2.11-2.78-2.18-1.2-.06-2.35-.73-3.55-1.15v-5.86c3.12-1.54 1.68-6.45 5.35-7.31-1.4-.83-2.94-1.4-2.8-3.44-1.55-3.38-6.63-7.13-3.91-11.31-.71-1.07-1.4-2.13-2.12-3.2 2.72-5.23 5.66-4.39 8.86-7.91 2.67-.36 4.95-3.45 7.6-2.89 1.77 1.14 3.58.07 5.25 1.39-1.15 3.72.14 5.85-5.03 5.25-.73.83-1.48 1.67-2.23 2.51.12.32.32.84.56 1.45-1.38.44-2.36-1.48-3.64.06 1.98 1.21 2.72 2.81 2.96 5.12 1.32 1.26 2.7 1.75 4.68 1.97-.34 1.05.28 2.15-.49 3.38-.62 1-.51 2.36.85 3.12.69-3.56-.15-3.36 4.09-3.28.18 3.93 3.8 2.98 2.79 5.89-2.31.79-4.66.96-7 .07-.35 1.15-.65 2.14-1.04 3.38.95-.01 1.79-.01 2.99-.01zm-29.88-75.51c.51-.33 1.15-.75 2.12-1.38.76 1.14.84 2.79-1.12 3.33-.35-.68-.63-1.22-1-1.95zm.54 89.04h-1.72c-.28-1.42-.58-2.87-.88-4.37l.99-.99c1.23 1.57 1.81 3.28 1.61 5.36zm1.91-98.88c-.51.46-1.18 1.08-2.16 1.99-1.8-3.2-.56-4.3 1.37-7.02.76.66 1.09.93 1.44 1.24-.19 1.48-1.85 2.09-.65 3.79zm-55.41 71.35c.85-1.36 1.63-2.62 2.56-4.12.42-.2 1.18-.54 2.09-.95.75-1.47 1.44-4.55 3.24-5.13 1.95 0 2.51-1.3 3.31-2.65 1.18-1.52 3.5-2.22 4.57-4.13h3.04c.55 2.5.55 2.5 3.8 2.89-.76 1.26-1.68 1.49-2.96 2.11.69.6 1.35 1.19 1.92 1.69-.24.92-.42 1.68-.63 2.52 3.09 1.07 5.13-4.05 7.65-.85.62-.74 1.03-1.21 1.54-1.84-1.13-.95-2.16-.08-3.23.1-.54-1.07-1.04-2.1-1.6-3.2 1.99-1.45 4.14-3.02 7.05-2.86 2.38-1.06 4.86-1.78 7.81-1.06-1.54.75-2.86 1.4-4.33 2.13.26.56.53 1.11.77 1.63-1.28 1.15-2.55 2.28-3.81 3.41-.52.03-1.04.06-1.43.08.29.98.52 1.76.76 2.6h1.54c2.9 3.38 5.53 6.21 8.91 9.54v4.45l-2.26 2.32c-.47 0-1.06-.18-1.35.04-1.9 1.92-3.89-.64-5.86 0-3.47 2.1-5.63-1.54-9.22-1.67-.07-.36-.17-.97-.3-1.69-.53-.05-1.05-.09-1.66-.14-.13-.37-.27-.76-.42-1.18-1.41-.47-3.11.48-4.39-.8-3.21.55-6.2 1.85-9.02 3.39-3.03-.92-6.28-.22-8.16-3.3.85-1.13 1.4-2.29.07-3.33zm45.97 18.88c-.6 1.18-1.12 2.19-1.72 3.39-.88-.46-1.88-.98-3.01-1.56 1.41-1.76 3.28-1.2 4.73-1.83zm-1.02-86.5c-.71-.63-1.67 1.15-2.8.24v-3.46l2.38-2.38c2.48-.22 2.32 1.94 2.93 3.11-.93.91-1.71 1.69-2.51 2.49zm-33.66-1.96c-.65.64-1.42 1.39-2.48 2.44-.11-.01-.72-.08-1.29-.13 0-1.19 1.75-2.12 3.77-2.31zm-11.82 278.86c-.52.48-.84.78-1.05.99-2.17-.14-4.5-2.1-6.25-.58-.08-1.55-1.59-3.04-1.01-4.39.29-.52.4-1.55.08-1.91-1.34-1.5-.34-2.81.23-4.3.91-.66 2.52-1.61 3.56-.35.08.08.76-.95 1.59-.39 1.47.53 2.49.77 3.18 2.47.55.03 1.31.07 2.15.1.08.31.15.61.26 1.09l-1.89.31c-.08 2.46-1.66 4.07-2.44 6.31.66.28 1.04.43 1.59.65zm-14.87 10.27l-1.46-1.46c.35-2.32-.37-4.55-1.52-6.72.44-.19.72-.31.97-.41.89 1.7 2.23 3.28 2.48 5 .19 2.23 3.11 4.12 1.45 6.58 3.66 2.14 4.17 6.65 7.18 9.58.35.28.24 1.15.38 2-3.72-2.22-3.97-6.15-7-8.7-1.79-1.62-3.12-3.41-2.48-5.87zm1.99 13.39c-.57.56-1.18 1.14-1.8 1.74-.24-.56-.44-1.04-.78-1.84.55-.49 1.26-1.14 2.34-2.12.12 1.09.18 1.61.24 2.22zm-2.17-41.94c1.2-.72 2-2.22 3.36-2.32.04.51.25 1.4.08 1.49-1.21.58-1.37 2.3-3.07 2.72-.13-.68-.24-1.25-.37-1.89zm314.68 83.72c-22.05 22.05-47.71 39.35-76.29 51.44C319.84 489.66 288.41 496 256 496c-32.41 0-63.84-6.34-93.41-18.85-28.58-12.09-54.25-29.39-76.29-51.44-22.05-22.05-39.35-47.71-51.44-76.29a237.327 237.327 0 01-17.82-71.11c.72 1.63 1.23 3.29 1.34 5.02 4.09.24 5.08 4.39 7.59 6.82 9.64-4.52 10.34 6.65 12.54 13.12.48 1.04 1.68.28 2.42.62 5.23 2.49 8.07 10.58 5.99 15.85-.77 1.47 1.82 2.74-.07 4.1 1.36 1.42.67 3.61-.01 5.14 5.95 13.45 14.31 26.08 18.32 40.18.87 3.32 5.71 8.43 3.31 11.59.84 16.35 15.02 27.37 23.41 40.42 5.05 6.97 11.58 12.58 18.17 18.05 6.99 6.35 13.51 13.79 23.02 15.52 2.89.18 5.31 2.16 8.24 2.17.08 0 .16.37.24.56h2.03c2.71-2.03 4.87-2.76 4.91-6.5.7-.43 1.24-.75 1.83-1.11.2-2.62-.72-4.69-2.54-6.13v-1.93c2.33.32 4.46.03 6.79-.92-.58-6.4-7.77-10.13-7.43-13.87 1.21-1.75 4.49-1.96 5.16-3.9.52-1.55 1.83-1.74 2.93-2.16 2.85-.87 6.88-.52 8.17-3.91.11-.47.75-.81 1.16-1.21v-3.34c-2.59-3.53-3.85-9.1-4.04-13.8-1.52-1.23-3.13-2.54-4.75-3.85.47-2.19-1.67-3.3-2.14-5.22-1.05-4.31-1.28-4.25-.58-5.61-4.46-3.82-4.79-5.13-2.42-10.51 2.29-2.09 1.32-8.07 4.59-8.17.96-1.52 2.03-2.1 3.18-2.97.83-1.8 2.27-3.12 3.34-4.71 6.84-9.46 19.17-12.55 24.73-23.29 2.61-2.98 2.92-7.04 4.87-10.13 2.03-4.84 5.94-8.63 5.76-14.33.43-.31.88-.63 1.22-.88-1.34-2.13-.03-4.5-.85-6.53-1.2 0-2.25-.16-3.13.9-3.6 2.48-8.67 1.52-12.82 2.44-2.89.23-5.4 2.68-8.27.72-3.33 2.47-7.44 2.98-10.02-1.05.08-2.76-2.38-2.63-4.27-3.43 1.3-.69 1.94-1.09 2.91-1.93.19-2.82-2.56-4-3.81-5.95-2.45-3.38-5.15-6.53-8.26-9.31-1.88.63-1.34-2.02-2.82-2.07-.81-.02-1.32-.64-1.38-1.56-1.61-6-2.32-12.36-8.09-16.31-.64-4.41 1.53-9.89-1.47-13.66v-2.54c-1.5-1.7-2.8-3.18-4.05-4.6.4-1.78-.5-3.52.72-4.99-3.74-5.5-3.24-12.65-5.19-18.8-1.19-4.17-3.28-7.64-1.15-11.76.58 2.11-.16 3.71.85 5.03-.22 3.43.51 4.87 3.18 6.3 1.41-2.35 1.77-5.1 3.33-7.44.14.08.28.18.42.26-.63 1.84-1.26 3.69-1.82 5.33 1.14 1.78 2.27 3.57 3.37 5.29-.44.47-.67.72-.89.96 1.44 1.29 2.32 2.83 2 4.71l1.19 1.19c.64 3.19.4 6.14 2.61 8.63 5.6 1.34 4.72 10.14 5.06 14.69.3 5.15 7.22 6.62 7.35 12.1.15 4.39 4.62 6.4 5.4 10.27.01.61 1.35 1.19.1 1.83 1.41 1.54.24 3.91.66 5.79.72 2.77.61 6.48 2.68 8.47v3.6c1.04.72 2.17 1.52 2.86 2 4.11-.15 6.24-2.01 9.19-3.98 2.17 1.04 4.73.41 8.58-1.95h3.39c1.11-1.12 2.23-2.24 3.38-3.39 3.43-.16 7.01-1.69 10.09-3.31 2.38.14 2.64-1.4 2.43-3.09 1.66-1.7 3.11-3.43 5.67-3.09 2.19-1.64 4.83-2.39 7.81-1.93.56-1.39 1.11-2.75 1.66-4.11h3.65c.41-.47 1.36-1.05 1.37-1.65.02-2.04 1.65-2.7 2.56-3.78 2.77-.19 3.67-.93 2.79-2.47-.74-1.94.44-4.56 1.79-5.48.66.27 1.04.43 1.53.64 1.32-3.94 4.87-6.54 5.68-10.57-4.53-3.53-6.27-6.54-12.61-6.63-3.63-3.36-3.78-6.87-3.77-11.51-1.38 1.03-1.44 3-3.28 3.24-.18.02-.4.27-.47.46-4.23 6.95-7.78 7.56-15.44 7.75-.8-.92-2.64-1.21-2.8-3.05 1.2-1.41 1.59-2.93.48-4.36.37-.57.59-.93.89-1.41-.7-.65-1.31-1.22-1.89-1.76-2.36 1.77-1.44 4.43-1.8 6.81l-3.43-6.42c2.16-1.36-.28-3.4-1.19-4.81-3.94-3.21-4.38-8.16-6.67-12.42 1.27-.11 1.55-1.19 2.22-2 .66-.8 2-1.04 3.28-1.64.77 1.41 1.96.73 3.16.2.35.7.5 1.42.94 1.79 3.45 2.44 2.28 8.39 6.47 9.67 4.26 1.12 5.85 5.13 10.2 5.46 1.18.3 2.48.93 3.43.48 1.55-.92 3.32-.08 4.68-.92-.22-.24-.42-.47-.64-.71l.88-.88h2.9c1.95 1.62 1.3 4.15 2.57 5.92.88.24 2.11.2 2.64.79 1.05 1.2 1.72.23 2.55-.06 1.84 1.41 4.46.15 6.4.82 1.28.93 2.6.29 3.86.53 1.54.17 3.28.87 4.78.66 6.15-3.13 12.17-1.2 19.16-3.1.04-.07.29-.56.62-1.2 1.94 3.47 4.84 4.29 6.13 7.77 1.1.28 2.23.57 3.63.93 4.45 5.11 4.93 3.57 11.03 3.24-2.32 1.41-3.93 2.4-5.48 3.34-.55-.3-.91-.5-1.28-.71 1.58 3.62 5.09 4.99 7.66 7.36h3.04c1.43-.88 2.61-1.6 3.97-2.45.95-2.32.95-2.32.02-4.64.31-.34.65-.72 1.22-1.36.58 3.29 1.41 6.1 3 8.52-2.55 3.92 2.03 10.36 3.22 14.46 1.19 4.8 3.24 9.11 6.32 12.92 3.16 3.94 3.33 9.48 6.89 13.04 5.55 4.62 4.36 13.98 11.75 16.48.87-.49 1.78-1 2.51-1.41.42-1.53.79-2.84 1.05-3.79 1.36-.72 2.37-1.27 3.41-1.84-.36-.48-.6-.81-.82-1.1 2.16-3.96 2.16-3.96 3.96-4.4-.17-1.27-.02-2.7-.58-3.74-2.29-3.7 1.79-7.16.64-10.66-.67-4.11-5.27-12.12 1.14-13.18 1.43-4.39 2.77-2.3 5.05-5.05.1-1.12-.26-2.01.22-2.92 4.59-4.04 7.86-9.17 9.97-14.5 3.72-1.19 5.17-3.13 6.06-6.62-.42-.81-.84-1.61-1.39-2.68 1.29-1.14 2.61-2.31 3.92-3.47.6.35 1.04.6 1.45.84 2.91-.72 4.32-3.25 7.39-3.63-.1-.1-.22-.21-.32-.31.77-.78 1.55-1.55 2.39-2.39-.16-.33-.43-.88-.7-1.43.71-.37 1.27-.65 1.88-.97 1.9 1.18 1.89 1.18 2.98 3.96 1.39 2.65 3.63 4.68 5.71 6.77 3.89-.8 3.4 3.35 4.67 5.33.43-.24.87-.48 1.47-.82 7.08 9.51.94 7.51 4.12 13.95 1.45-.36 2.89-.72 4.24-1.04.99-2.41 2.18-4.08 3.37-4.8.08-1.26.15-2.52.23-3.73 4.93 3.84 4.87 10.48 8.55 15.09 2.12 2.23 2.3 5.23 2.13 8.19.45.44.85.84 1.37 1.36-.14 1.14.33 2.48-.7 3.6 2 3.87-.78 8.68 1.75 12.39.24-.65.38-1.04.53-1.48.78.72 1.44 1.84 2.24 1.95 1.42.2.74 1.7 1.8 2.13 2.63 1.69 4.38 4.58 3.84 7.81.1-.03.21-.07.31-.09.78 2.49 1.12 5.02 3.88 6.95v2.06c2.7 1.18 5.25 2.28 7.72 3.35.73-.52 1.47-1.04 2.03-1.45-.56-2.16-1.34-4.16-3.02-5.32-.35-3.16-.67-6.09-1.02-9.23-2.22-1.68-4.6-3.5-6.97-5.3-1.96 1.88-2.71-1.09-4.3-1.04.06-1.8.28-3.78-1.73-4.71-.91-.27.43-2.49-1.38-3.01-.28.16-.72.4-1.19.68-.4-.46-.69-.8-1.12-1.32-.88-4.95 1.6-14.59.01-18.13.93-.81 1.53-2.35 3.28-1.48.34 1.03-.44 2.52 1.14 3.06 1.67-1.35 3.27-.13 4.9.07 2.34.78 1.72 3.57 3.53 5 .3-.56.61-1.13.91-1.68.16.08.32.15.48.23v2.64c1.28-.6 1.28-.6 4.62.21.27 2.16-.22 4.38.39 6.97 1.58-1.14 1.19-2.74 2.25-3.96 2.05-2.02 2.64-4.56 3.02-7.32 2.75-2.18 5.46-6.43 5.12-9.84-1.06-3.62-.76-7.69-2.7-11.42-2.36-7.75-10.15-6.9-11.44-12.3-.93-1.21-2.87-2.15-3.93-3.05-.21-1.46.03-2.58-.55-3.79.25-1.81 1.67-4.54 1.25-6.79.1.05.22.08.32.13.64-1.31 1.29-2.63 1.93-3.93.04.08.08.18.12.26.81-.89 1.63-1.79 2.49-2.74.22.15.55.37.75.5.54-.22.99-.4 1.48-.61.64 2.87.84 3.16 3.09 4.67-.34-1.94-.65-3.74-.9-5.18 1.23-1.57 2.23-2.85 3.23-4.13 2.38-.19 1.07-3.19 2.61-3.54-.09-.99-.17-1.75-.24-2.46.77.24 1.31.4 1.95.6v-1.69c1.13-1.07 2.26-2.16 3.36-3.22-.03-6.36 3.04-12.55.07-18.59-.2-.73-.59-1.83-.26-2.21.98-1.14-.79-1.46-.45-2.36.72-1.93-1.2-3.9 0-5.87.15-.24.12-.77-.05-.96-1.77-1.99-.99-5.02-3.28-7.01-.4-.05-1.23-.14-2.06-.24v-3.95c-.57-.46-1.35-1.1-2-1.64-.04-.62-.06-1.05-.08-1.35-3.77-1.74-5.77-4.78-8.52-7.75h-2.04c-.71-.95-1.48-1.99-2.26-3.05 0-1.68.41-3.5-.1-5.01-.63-1.84.78-3.03.77-4.5-1.37-1.73-3.09-.73-4.76-1.06v3.34h-1.43c-1.02-1.2-1.93-2.27-2.82-3.32-1.91.98-1.91.98-3.82-1.33-.39-1.3.95-1.64 1.17-2.1-.35-3.02-.65-5.67-.97-8.46.39-.21 1-.52 1.58-.82 2.48 1.54 1.62 4.29 3.58 6.22.76-.55 1.28-.9 1.7-1.21-.5-.9-.75-1.36-1.05-1.89 3.61-5.64 5.51 2.92 8.19 4.3.6-.37 1.04-.64 1.59-.97 2.51 2.56 4.25 5.58 6.49 8.15-.14 1.66 1.45 2.33 1.9 3.64.11.33.8.45 1.1.6.34-2.03.65-3.87.98-5.87-2.15-4-4.92-7.74-9.29-9.99-1.47-1.97-4.43-2.22-5.43-5.27.89-5.26-6.04-9.95-5.81-15.41.24.22.48.43.72.64 3.59-3.38-8.58-17.11-11.42-20.17-2.45-3.65-5.8-6.17-9.12-8.9-1.56-1.33-3.45-2.13-4.1-4.32 3.17 1.69 5.76 3.7 8.43 5.76.2-3.1-9.95-7.2-12.63-9.83-1.4 2.32-3.19-.58-5.03.77.7.41 1.24.74 1.8 1.07-2.04.96-3.07-.69-4.97-.99-1.69-.24-2.96-1.61-3.76-2.96-3.59-5.14-9.3-8.42-13.11-13.29.21-.28.45-.62.71-.97-.18-.21-.4-.44-.59-.67.2-.24.4-.47.64-.74-.92-.66-1.8-1.29-2.91-2.08 1.01-.19 1.63-.3 2.39-.44-.12-.13-.26-.26-.4-.39C388 53.99 408.02 68.61 425.7 86.29c22.05 22.05 39.35 47.71 51.44 76.29C489.66 192.16 496 223.59 496 256c0 20.15-2.46 39.93-7.32 59.12-.3-.37-.72-.55-1.28-.48-1.68 6.37-3.44 12.9-6.19 19.17l-1.01-1.01c-6.2 9.83-9.13 21.52-15.58 31.18-5.87 7.12-11.71 14.25-17.3 21.61-1.5 2.34-3.57 4.99-3.89 7.82-.16 3.03-2.87 5.05-3.55 8.01-.65 5.65-4.95 9.35-6.74 14.49 1.81-1.81 3.68-2.93 4.37-4.55.42-.93 1.53-1.39 2.84-1.68-4.62 5.53-9.5 10.88-14.64 16.03zm-289.78-84.54c-.69.35-.87.44-1.21.61-1.04-1.49-2.11-3-3.2-4.56v-5.56c.39-.04.69-.06 1.25-.1-.23 3.53.07 6.91 3.16 9.61zm-.59 51.4c.48 2.19.86 4.34 2.88 5.57-.23 3.88.99 7.21 3.74 10.22-3.52.03-6.97-6.93-6.42-10.72-1.76-2.15-1.24-5.19-4.07-7.25 2.41.05 2.83 1.62 3.87 2.18zm-3.33-338.66c.88-1.49 1.67-1.8 3.74-1.48-.99 1.95-2.27 1.78-3.74 1.48zm93.19-1.8l-2.25-2.25c2.06-2.49 4.79-4.68 6.7-5.27-.23-.35-.4-.59-.61-.93.18-.41.4-.94.66-1.52 1.02-.56 2.3.14 3.18-1.1.35-.42 1.28-.37 2.16 0-1.8 1.24-3.59 2.48-5.31 3.68-.01-.02-.02-.04-.04-.05-1.56 2.82-4.1 3.35-2.18 6.93-.4.62-1.68.29-2.31.51zm267.32 229.75c-.39-4.09-3.29-8.39.22-11.41v6.11l1.61 1.61c-.5 1.01-1.08 2.19-1.83 3.69zm-48.17-148.65c-.1-2.85-2.71-5.72-1-8.49 1.09-1.44 1.14-3.26-.05-4.73-1.52-1.89-1.39-4.34-2.53-6.39-2.03-5.44-7.13-8.57-9.3-13.68 5.17 3.02 7.32 9.29 11.44 13.53 2.93 2.84 4.19 5.98 4.44 10.07-.09.1-.32.35-.46.5.64 1.67 2.16 2.94 1.85 5.31-1.12-.91-2.03-1.65-2.2-3.02-.57.24-.86.37-1.39.59 1.87 2.23 3.93 4.35 2.73 7.64-2.47-1.12.42-4.13-2.31-5.27-.45 1.37.57 3.09-1.22 3.94zM76.44 154.66c1.42-2.9 2.58-5.25 3.77-7.68.63-.29 1.37-.63 2.33-1.06v2.58c-2.24 2.09-2.81 5.11-6.1 6.16zm16.54-60.03h-2.67c.99-2.56 4.36-3.6 5.34-6.42 1.36-.78 3.29-.95 4.43-2.29.18-.24 1-.04 1.83-.04-.44.99-.73 1.62-1.13 2.5-3.34 1-4.33 4.63-7.8 6.25zm356.94 48.21c-1.21-1.77-1.88-4.19-4.26-4.83-.23-1.17-.41-2.16-.64-3.32l.78-.78c1.46 1.78 6.19 7.42 4.12 8.93zm-344.81 36.67c1.67.27 3.29.62 5.4 1.93-3.08 1.28-3.75-1.44-5.4-1.93zm25.2 6.98c1.25-2.01 3.51-2.83 5.79-2.27v1.56c-2.25.97-2.25.97-5.79.71zm310.43 150.14c2.37-.32 4.39-3.09 7.14-1.07 1.3.29 2.83-.99 4.07-1.52.56-1.04 1.16-2.14 1.78-3.28.3.27.46.41.66.59l4.26-1.31c.1.14.22.29.32.43-.76.53-.76 1.26-.66 2.08 1.14.34 2.09-1.14 3.23-1.64v2.46c-2.78 1.77-6.21 3.32-9.1 4.88-2.44-.54-4.05 1.15-5.89 2.12-1.49.91-3.22.75-4.92 1.28-.12-.36-.26-.74-.41-1.19-.59-.09-1.21-.2-1.87-.3.42-1.19.43-2.82 1.39-3.53zm-4.79 1.69c-3.93-2.74-7.59-4.53-10.67-8.29-.46-3.24-3.58-8.71-6.69-9.51-.58-1.67-1.23-3.54-2.02-5.8-1.34-1.12-4.77-.08-4.29-2.94-1.34-.72-1.74-2.3-3.16-3.23-2.23 1.23-8.95-5.05-5.11-6.79 2.33 1.64 4.64.26 7.28-.78 2.77 5.27 8.85 5 12.26 9.7.18-.66.36-1.32.4-1.44 1.41.4 2.1.6 2.97.85.12.24.34.71.63 1.33.48-.26.92-.52 1.37-.77l1.23 1.23c.21-.17.43-.35.65-.52.6 1.47 2.57 1.64 3.12 3.16-.45 1.38-.81 2.54-1.17 4.01l.91.91c.59-.26 1.23-.56 2.26-1.03-.35 2.09.8 3.41 1.68 5.03.89-1.69 1.94.31 3.08-.06-.38-.78-.68-1.38-.98-1.99-.26.23-.5.43-.89.78v-1.96c.41-.36 1.01-.87 1.93-1.66.11 2.13 2.18 3.28 1.98 5.4-.7.08-1.23.14-1.95.23.11 3.94-1.36 7.77-.64 11.67-.89.39-1.64.77-2.43 1.04-.73.26-1.94-.35-1.75 1.43zM81.93 162.01c1.7-.88 2.67.39 3.93.96 1.05-.54 1.05-.54 3.14-.32-2.47 1.31-2.51 3.98-3.92 6.05-1.29-2.27-2.38-4.39-3.15-6.69zm1.5-18.18c.84-1.22.04-3.43 2.69-3.91-.29 1.9-1.03 3.19-2.69 3.91zm367.01 154.1c4.13 1.23 4.87-2.4 4.55-6.45 6.51-3.1 4.14-11.66 9.27-15.66.41-3.67 1.07-7.21 2.45-10.82 1.88.8 2.09 2.76 4.28 3.01.49 1.19-.05 2.2-.45 3.33-.55 2.3-.08 5.14-1.09 7.32-.78 1.54.8 2.27.76 3.5-.03.96.25 1.93.45 3.23.43.28 1.14.72 1.84 1.18v1.4c-2.32.34-2.34 2.87-2.71 4.49.82 4.09-1.98 7.36-2.07 11.32-.08 1.5.6 3.12-.62 4.47-.1.11-.08.53.04.63 2 1.72-.45 2.4-.91 3.44-.46 1.03-1.47 1.82-2.38 2.87-.09-.66-.19-1.28-.32-2.12-.72.34-1.28.6-1.84.87-.55-.27-1.1-.55-1.7-.84-.45 1-.84 1.85-1.21 2.69-.55.24-1.09.47-1.63.71-.14-.4-.28-.78-.51-1.39-1.21.74-2.34 1.45-3.47 2.15-1.55-2-.67-4.42-1.11-6.78-.36.29-.58.47-1.06.86-1.63-4.19-2.39-9.21-.56-13.41zM97.79 93.69c1.88-.73 3.05-2 4.37-3.26 2.93-4.95 5.71-10.67 11.53-12.93-.28 1.36-.47 2.26-.76 3.65-5.83 3-7.51 10.5-11.77 15.05.21.66.4 1.32.69 2.22-2.26 1.43-4.16 3.12-5.92 5.13-1.96-.35-3.83-.73-5.02-2.42.77-1.21 2.32-1.77 2.64-3.32 1.92-.9 2.52-3.45 4.24-4.12zm381.34 153.86c.21-2.83 1.26-4.37.78-7.58 2.66 2.8 2.09 6.38 2.96 9.71-.67.74-1.17 1.31-1.62 1.83.78 1.74 1.53 3.37-.45 5.04-1.4-1.98-.22-4.2-1.75-6.06-1.42-.38-.56 2.46-2.67 1.61.66-1.2 1.06-2.18.87-3.41.74-.45 1.37-.83 1.88-1.14zm-266.61 50.84c.09.24.19.46.27.71-.61.44-1.22.88-1.62 1.16-.93-.27-1.7-.5-2.67-.78.99-1.59 2.48-1.05 4.02-1.09zm127.04 19.31c-.87-1.52-1.59-2.8-2.41-4.23.46-3.4-2.02-7.46-.03-10.78.44-.96-.08-2.01-.7-3.14 7.81 3.34 14.88 14.84 3.14 18.15zm-139.78 89.42c3.51 3.75 4.91 7.78 7.18 12.33-.1.22-.38.77-.75 1.55-.59-.87-1.15-1.67-1.7-2.47l-1.14 1.14c1.03 1.78 1.32 3.44.54 5.38 1.37 4.2-1.72 8.34-1.47 12.75 0 .96-.58 2.03-1.18 2.86-.73 1.02.8 1.71.05 2.88-.7 1.08-.59 2.66-.92 4.42-10.03 2.71-12.8-1.09-18.1-8.39-.19-1.06-.23-2.04.71-2.97.88-.88.72-2.41 1.84-3.34 1.08-1.59-1.82-3.79-2.6-5.24-2.43-2.32-.83-4.72-.63-7.62 4.27-1 8.88-1.09 12.47-4.25.29-.88.58-1.77.96-2.92-.09-.13-.34-.48-.77-1.09.72.14 1.24.24 1.92.37.56-.39 1.32-.92 2.19-1.54 0-.75.45-1.79-.77-2.72.79-.42 1.51-.79 2.17-1.13zM452.31 179c2.34 3.34 4.14 9.47 3.82 13.83-4-3.4-4.36-8.08-3.82-13.83zm-12.99 38.95c-.55 3.41 1.1 5.97-2.92 7.96-4.72-4.49-.49-5.24-1.8-6.63 1.2-1.2 2.29-2.28 3.54-3.53.5.52 1.67 1.24 1.18 2.2zM427.06 93.07c-3.23-.62-5.02-2.96-6.79-5.7 4.15-.2 5.21 3.08 6.79 5.7zm35.42 115.32c1.09 0 1.99 0 3.14-.01-.24 2.03 1.04 3.5 2.13 5.07-.04 1.47.27 2.96-.6 4.42-1.06 2.86 4.58 8.28 1.89 11.37-1.25-1.12-1.25-1.12-1.52-4.15-.3.66-.49 1.07-.68 1.49-1.61-1.57-1.76-3.93-2.84-5.41 1.23-4.58-2.49-8.04-1.52-12.78zm10.71 90.1c1.46-1.79-.24-4.4 1.79-6.03.4.36.93.83 1.66 1.47 1.01-1.78 1.93-3.41 2.94-5.19 1.43 3.43-4.05 5.66-.49 9.11l.89 8.55c-.19 0-.38-.01-.56-.01-.09-.62-.19-1.24-.33-2.18-.36.74-.56 1.18-.96 2l-.31-2.84c-.4-.4-.79-.8-1.3-1.31v-2.94c-2.96 3.75-.11 9.15-2.24 13.44-.23.02-.44.04-.94.08.24-2.43.46-4.82.7-7.28-.56-.11-.86-.17-1.31-.26-.94-2.22 1.05-4.35.46-6.61zm-4.3-67.93c.52.33 1.03.67 1.42.92v3.76c-.8-1.72-1.37-2.97-1.96-4.23.19-.14.36-.3.54-.45zm5.17 10.38c-.02-1.7-1.49-3.04-.48-5.09.82.9 1.45 1.68 2.15 2.53.32 2.38.62 4.71.98 7.36-2.63-1.51-.78-3.85-1.75-5.51-.23.18-.46.36-.9.71zm2.54 41.48c.97-.3 1.66-.52 2.53-.79.06.34.12.83.22 1.47-.9.86-1.83 1.74-2.79 2.64-1.57-1.33.12-2.26.04-3.32zm.73-50.61l-1.37-1.37v-2.27c2.72 1.01 1.8 4.84 1.97 7.2-.2-.02-.4-.03-.59-.05-.01-1.2-.01-2.42-.01-3.51z"/></svg>