<svg version="1.1" xmlns="http://www.w3.org/2000/svg" x="0" y="0" viewBox="0 0 512 512" xml:space="preserve"><path d="M342 256c0 47.5-38.5 86-86 86s-86-38.5-86-86 38.5-86 86-86 86 38.5 86 86zm-86-96c3.9 0 7-35.8 7-80s-3.1-80-7-80-7 35.8-7 80 3.1 80 7 80zm16.7 1.4c2.7.5 9.2-23.8 14.5-54.3 5.4-30.5 7.6-55.5 4.9-56s-9.2 23.8-14.5 54.3-7.6 55.6-4.9 56zm16.2 4.4c2.5.9 13.2-21.9 23.8-50.9 10.6-29.1 17.1-53.4 14.5-54.3-2.5-.9-13.2 21.9-23.8 50.9-10.5 29.1-17 53.4-14.5 54.3zm15.1 7.1c3.3 1.9 24-27.5 46.1-65.8s37.3-70.8 33.9-72.8-24 27.5-46.1 65.8-37.2 70.9-33.9 72.8zm45.9-36.4c-19.9 23.7-34.3 44.3-32.2 46s19.9-16.1 39.8-39.7 34.3-44.3 32.2-46c-2.1-1.8-19.9 16-39.8 39.7zm-20.4 57.8c1.7 2.1 22.4-12.4 46-32.2s41.5-37.7 39.7-39.8-22.4 12.4-46 32.2-41.5 37.7-39.7 39.8zm9.6 13.7c1.9 3.3 34.5-11.8 72.8-33.9 38.3-22.1 67.7-42.7 65.8-46.1s-34.5 11.8-72.8 33.9c-38.3 22.1-67.7 42.8-65.8 46.1zm61.4.6c29.1-10.6 51.9-21.2 50.9-23.8-.9-2.5-25.2 4-54.3 14.5-29.1 10.6-51.9 21.2-50.9 23.8.9 2.6 25.2-3.9 54.3-14.5zm6 25.8c30.5-5.4 54.8-11.9 54.3-14.5-.5-2.7-25.5-.5-56 4.9s-54.8 11.9-54.3 14.5c.5 2.7 25.6.5 56-4.9zM432 249c-44.2 0-80 3.1-80 7s35.8 7 80 7 80-3.1 80-7-35.8-7-80-7zm28.8 43.1c.5-2.7-23.8-9.2-54.3-14.5s-55.5-7.6-56-4.9c-.5 2.7 23.8 9.2 54.3 14.5 30.5 5.4 55.6 7.5 56 4.9zm-63.7 20.5c29.1 10.6 53.4 17.1 54.3 14.5s-21.9-13.2-50.9-23.8c-29.1-10.6-53.4-17.1-54.3-14.5-.9 2.6 21.9 13.3 50.9 23.8zm14.8 25.4c-38.3-22.1-70.8-37.3-72.8-33.9-1.9 3.3 27.5 24 65.8 46.1s70.8 37.3 72.8 33.9c1.9-3.4-27.6-24.1-65.8-46.1zm-36.3 12c-23.7-19.9-44.3-34.3-46-32.2s16.1 19.9 39.7 39.8 44.3 34.3 46 32.2-16-19.9-39.7-39.8zm-57.9-20.5c-2.1 1.7 12.4 22.4 32.2 46 19.9 23.7 37.7 41.5 39.8 39.7 2.1-1.7-12.4-22.4-32.2-46-19.9-23.7-37.7-41.5-39.8-39.7zm-13.7 9.6c-3.3 1.9 11.8 34.5 33.9 72.8 22.1 38.3 42.7 67.7 46.1 65.8 3.3-1.9-11.8-34.5-33.9-72.8s-42.8-67.7-46.1-65.8zm-15.2 7.1c-2.5.9 4 25.2 14.5 54.3 10.6 29.1 21.2 51.9 23.8 50.9 2.5-.9-4-25.2-14.5-54.3-10.6-29-21.2-51.9-23.8-50.9zm-16.1 4.3c-2.7.5-.5 25.5 4.9 56s11.9 54.8 14.5 54.3c2.7-.5.5-25.5-4.9-56-5.4-30.4-11.9-54.7-14.5-54.3zM256 352c-3.9 0-7 35.8-7 80s3.1 80 7 80 7-35.8 7-80-3.1-80-7-80zm-16.7-1.5c-2.7-.5-9.2 23.8-14.5 54.3s-7.6 55.5-4.9 56c2.7.5 9.2-23.8 14.5-54.3 5.4-30.4 7.6-55.5 4.9-56zm-16.2-4.3c-2.5-.9-13.2 21.9-23.8 50.9-10.6 29.1-17.1 53.4-14.5 54.3s13.2-21.9 23.8-50.9c10.5-29.1 17.1-53.4 14.5-54.3zm-15.1-7.1c-3.3-1.9-24 27.5-46.1 65.8s-37.3 70.8-33.9 72.8c3.3 1.9 24-27.5 46.1-65.8 22-38.3 37.2-70.9 33.9-72.8zm-46 36.4c19.9-23.7 34.3-44.3 32.2-46-2.1-1.7-19.9 16.1-39.8 39.7s-34.3 44.3-32.2 46 19.9-16 39.8-39.7zm20.5-57.8c-1.7-2.1-22.4 12.4-46 32.2S95 387.6 96.7 389.7s22.4-12.4 46-32.2 41.6-37.7 39.8-39.8zm-9.6-13.7c-1.9-3.3-34.5 11.8-72.8 33.9C61.8 360 32.4 380.6 34.3 384s34.5-11.8 72.8-33.9c38.3-22.1 67.7-42.8 65.8-46.1zm-58 8.6c29.1-10.6 51.9-21.2 50.9-23.8-.9-2.5-25.2 4-54.3 14.5-29.1 10.6-51.9 21.2-50.9 23.8.9 2.6 25.2-3.9 54.3-14.5zm-9.5-35c-30.5 5.4-54.8 11.9-54.3 14.5.5 2.7 25.5.5 56-4.9s54.8-11.9 54.3-14.5c-.4-2.7-25.5-.5-56 4.9zM160 256c0-3.9-35.8-7-80-7s-80 3.1-80 7 35.8 7 80 7 80-3.1 80-7zm-52.9-31.2c-30.5-5.4-55.5-7.6-56-4.9-.5 2.7 23.8 9.2 54.3 14.5 30.5 5.4 55.5 7.6 56 4.9.5-2.6-23.8-9.2-54.3-14.5zm7.8-25.5c-29.1-10.6-53.4-17.1-54.3-14.5-.9 2.5 21.9 13.2 50.9 23.8 29.1 10.6 53.4 17.1 54.3 14.5 1-2.5-21.9-13.2-50.9-23.8zM100.1 174c38.3 22.1 70.8 37.3 72.8 33.9 1.9-3.3-27.5-24-65.8-46.1s-70.8-37.3-72.8-33.9c-1.9 3.4 27.5 24.1 65.8 46.1zm36.4-12c23.7 19.9 44.3 34.3 46 32.2 1.7-2.1-16.1-19.9-39.7-39.8-23.7-19.9-44.3-34.3-46-32.2-1.8 2.2 16 20 39.7 39.8zm57.8 20.5c2.1-1.7-12.4-22.4-32.2-46S124.4 95 122.3 96.7s12.4 22.4 32.2 46 37.7 41.5 39.8 39.8zm13.7-9.6c3.3-1.9-11.8-34.5-33.9-72.8C152 61.8 131.3 32.4 128 34.3s11.8 34.5 33.9 72.8c22.1 38.3 42.8 67.7 46.1 65.8zm15.2-7.1c2.5-.9-4-25.2-14.5-54.3-10.6-29.1-21.2-51.9-23.8-50.9-2.5.9 4 25.2 14.5 54.3s21.2 51.9 23.8 50.9zm16.1-4.4c2.7-.5.5-25.5-4.9-56s-11.9-54.8-14.5-54.3c-2.7.5-.5 25.5 4.9 56s11.9 54.8 14.5 54.3z"/></svg>