<svg version="1.1" xmlns="http://www.w3.org/2000/svg" x="0" y="0" viewBox="0 0 512 512" xml:space="preserve"><path d="M235.6 343.1c0 1.7-1.4 3.1-3.1 3.1s-3.1-1.4-3.1-3.1 1.4-3.1 3.1-3.1 3.1 1.4 3.1 3.1zm-45.6 3.1h-5.2l2.3 7.2h.9l2-7.2zm220.7 158.5v2.7c0 1-.7 2.3-1.5 2.9l-.7.5c-.8.6-2.3 1.1-3.3 1.1h-19c-1 0-2.5-.5-3.3-1.1l-.7-.5c-.8-.6-1.5-1.9-1.5-2.9v-2.7h9.2l-14.1-27.1-48-5v.1h-28l5.6 32h12.9v2.7c0 1-.7 2.3-1.5 2.9l-.7.5c-.8.6-2.3 1.1-3.3 1.1h-19c-1 0-2.5-.5-3.3-1.1l-.7-.5c-.8-.6-1.5-1.9-1.5-2.9v-2.7h11l-5.6-32h-19.8l2.4 8.2h-.1l4.4 15.6h-48.7l4.4-15.6 2.4-8.2h-20.1l-5.6 32h11.2v2.7c0 1-.7 2.3-1.5 2.9l-.7.5c-.8.6-2.3 1.1-3.3 1.1h-19c-1 0-2.5-.5-3.3-1.1l-.7-.5c-.8-.6-1.5-1.9-1.5-2.9v-2.7h12.7l5.6-32h-17.8l-3.6.8-40.8 9.3-9.5 21.9h6.8v2.7c0 1-.7 2.3-1.5 2.9l-.7.5c-.8.6-2.3 1.1-3.3 1.1h-19c-1 0-2.5-.5-3.3-1.1l-.7-.5c-.8-.6-1.5-1.9-1.5-2.9v-2.7h16.7l37-85 .2.1 12.3-10.4h-6.1l9.1-37.3H185l2.3-7.3H185v-3.1h-4.2v-5.2h4.2v-3.1h5.2l3.1-3.1 8.3 3.7v-1.6l2-8.3 4.2-3.1v-1h-5.2l-5.2-2.1-2.1-6.2 1.6-3.7v-.1l-3.6-4.5-3.1 2-4.2-4.1 7.3-5.2 5.2 4.2-2.1 1 2.6 1.9 2.6-6.1L221 316l5.1-3.5-4-11.9-5.2-5.2 1-2.1 7.5-2-30.2-48.7v-.1h-.1v-66.3c-2.9 0-5.2-2.3-5.2-5.2s2.3-5.2 5.2-5.2v-68h.1c0-.2 0-.5.1-.7.3-1.4 1.5-2.7 3.6-4 .3-.2.7-.4 1.1-.6v-.7c0-.3.1-.6.2-.9 0-.1.1-.3.1-.4.2-.6.5-1.1.8-1.4.5-.5 1-1.7 1.1-2.7V83c0-1.2.7-2.7 1.5-3.5l.3-.3c.2-.1.4-.3.7-.4h.1c.2-.1.5-.2.7-.3h.1c.3-.1.5-.2.8-.2h.1c.3 0 .5-.1.7-.1h.3l3.9.5c.1 0 .3 0 .4.1 1.1.2 2.6.7 3.5 1.1l4.3 2.2c.3.1.5.3.9.4.3.1.7.2 1 .3.7.2 1.4.3 2 .3h18.6c-2.6-4.5-7.6-14-12.7-27-7.3-18.7-13.5-44.6-13.5-44.6 0-1 .4-1.9 1.2-2.9.3-.4.7-.7 1.1-1.1.2-.2.4-.3.7-.5 2.4-1.7 6.2-3.2 10.9-4.4.5-.1 1-.2 1.4-.3 1-.2 2-.4 3.1-.6 2.1-.4 4.3-.7 6.7-1l3.6-.3c3.1-.2 6.3-.4 9.6-.4 6.6 0 12.9.5 18.3 1.4 1.1.2 2.1.4 3.2.6l1.5.3c2 .4 3.8.9 5.4 1.5.4.1.8.3 1.2.4 1.6.6 3 1.2 4.1 1.8.3.2.6.3.8.5 1.1.7 1.9 1.4 2.6 2.1.2.2.3.4.4.5.5.7.8 1.5.8 2.3 0 0-6.3 25.9-13.5 44.6-4.9 13-10 22.5-12.6 27h22.7c.3 0 .6 0 .9-.1.8-.1 1.8-.4 2.6-.7.1-.1.3-.1.4-.2l4.3-2.3c.4-.2.9-.4 1.4-.6.5-.2 1.1-.4 1.6-.5.3-.1.7-.1.9-.2l3.9-.5h.9c.2 0 .3 0 .5.1h.1c.1 0 .2.1.3.1.1 0 .1 0 .2.1.1 0 .2.1.3.1.1 0 .1 0 .2.1.1 0 .2.1.3.1.1 0 .1.1.2.1.1.1.2.1.3.2l.1.1.3.3.3.3c.8.8 1.5 2.4 1.5 3.5v3.4c.1 1 .6 2.2 1.1 2.7.4.3.6.8.9 1.4.1.1.1.3.1.4.1.3.1.6.2.9v.7c2.6 1.4 4.2 3 4.5 4.6.1.2.1.5.1.7v143.8c.1.3.2.6.2 1l-35.1 56.5 7.7 6.9.2-1.3 6.2-3.1 4.2 5.2-1.1 3.1-3.3 1.7 5.7 5.1-.7.8-5.8-5.2.6 8.3 10.8 4.8v20.8l14.3 11.4h3l-1.8-6.2h5.2l-1.8 6.2h1.8v5.1l10.4 8.3v20.8l-13.7 13 11.6 2.5 13.5 4.2 1.3 4.6 46.2 88.6h13.6zM188 364.8l1.7 6.2h2.3l-.1 1.1 6.8 12.5 2.7-7.3v-5.5l-11.4-7h-2zm-11.8 58.5l8.6 12.4v-11.8l-8.6-.6zM155 471.6l29.8-6.7v-2.8l-12.6-29.9-17.2 39.4zm51.7-64.8l-7.6-19.2-7.5-13.7-4.6 34.3 19.7-1.4zM286.4 270c0-2-1.2-3.6-2.6-3.6-1.4 0-2.6 1.6-2.6 3.6s1.2 3.6 2.6 3.6c1.4 0 2.6-1.6 2.6-3.6zm-86.3-166.1V136c5.8-3.3 16.2-6 29.2-7.6v-32c-13 1.5-23.4 4.2-29.2 7.5zm86.2-7.1v32.1c11.6 1.6 20.8 4.1 26.1 7.1v-32.1c-5.3-3-14.5-5.5-26.1-7.1zm0 114.3v15.5c11.6 1.4 20.8 3.7 26.1 6.4v-15.5c-5.3-2.7-14.5-5-26.1-6.4zm28.2-28.1c0-1.1-1-2.1-1-2.1l-7.3 1v-6l-1.9-1.1.8-5.9s-1-1-2.1-1-2.1 1-2.1 1l.6 4.2-.5-.3-6.2 2.1V191l6.2 2 .5-.3-.6 4.3s1 1 2.1 1 2.1-1 2.1-1l-.8-6 1.9-1.1v-5.8l7.3 1s1-1 1-2.1zm-116.3-2.1s-1 1-1 2.1 1 2.1 1 2.1l7.3-1v5.8l1.9 1.1-.8 6s1 1 2.1 1 2.1-1 2.1-1l-.6-4.3.5.3 6.2-2v-16.1l-6.2-2.1-.5.3.6-4.2s-1-1-2.1-1-2.1 1-2.1 1l.8 5.9-1.9 1.1v6l-7.3-1zm1.9 36.6V233c5.8-2.9 16.2-5.3 29.2-6.8v-15.5c-13 1.4-23.4 3.8-29.2 6.8zm26.6 84.6l8.9 8.8h2l-7.9-12.6-3 3.8zm5.8 35.8c-2.9 0-5.2 2.3-5.2 5.2s2.3 5.2 5.2 5.2 5.2-2.3 5.2-5.2-2.3-5.2-5.2-5.2zm19.7 44.5c-.3.1-.7.1-1 .1-3.4 0-6.2-2.8-6.2-6.2-.1-3.5 2.7-6.3 6.1-6.3.4 0 .7 0 1 .1v-.1c0-2.9-2.3-5.2-5.2-5.2h-14.5c-2.5 0-4.6 1.8-5.1 4.2h.4c2.6 0 4.7 2.1 4.7 4.7s-2.1 4.7-4.7 4.7c-.2 0-.3 0-.5-.1v5.2c0 2.9 2.3 5.2 5.2 5.2H247c2.9 0 5.2-2.3 5.2-5.2v-1.1zm37.8-75.2l-8-7.2-6.8 11 1.8.8 12.6-1.9.4-2.7zM327.8 418v20.5l4.2-5.2 12.5-15.6-.2-.4-7.2 1.4-9.3-.7zm44.1 52.1l-22.6-43.3-13.1 28.1 17.6 12.6 18.1 2.6z"/></svg>