<svg version="1.1" xmlns="http://www.w3.org/2000/svg" x="0" y="0" viewBox="0 0 512 512" xml:space="preserve"><path d="M313.6 444.2c-.2-.4-.7-.4-.9 0l-1 2c-.1.3-.2.6-.2.9v5c0 .3.1.7.3 1l.3.5-20.8-4.3v-23.7l32.2-8L274 198.1V187h1c.6 0 1-.4 1-1v-1c0-.6-.4-1-1-1 .6 0 1-.4 1-1v-1c0-.6-.4-1-1-1h-1V59.3c-.4-4.9-1.3-9.8-2.4-14.7-1.1-4.9-2.4-9.8-3.8-14.7-1.5-4.9-3.1-9.8-4.9-14.7-1.8-4.9-3.8-9.8-6.3-14.7-.1-.1-.1-.2-.2-.2-.3-.1-.6 0-.8.2-2.5 4.9-4.5 9.8-6.3 14.7-1.9 4.9-3.5 9.8-4.9 14.7-1.5 4.9-2.7 9.8-3.8 14.7-1.1 4.9-2 9.8-2.4 14.7V181h-1c-.6 0-1 .4-1 1v1c0 .6.4 1 1 1-.6 0-1 .4-1 1v1c0 .6.4 1 1 1h1v11.1l-49.5 219.4 32.2 8v23.7l-20.8 4.3.3-.5c.2-.3.3-.6.3-1v-5c0-.3-.1-.6-.2-.9l-1-2c-.2-.4-.7-.4-.9 0l-1 2c-.1.3-.2.6-.2.9v5c0 .3.1.7.3 1l.5.9v16l22.7 4.7v3.3c0 .7.2 1.3.5 1.9.6 1 .8 2.2.8 3.3v7.1l-6.1 15.7c-.5 1.2.3 2.5 1.5 2.7l19.9 3.2c1.3.2 2.5-.9 2.3-2.2L238 498h36l-1.6 11.7c-.2 1.3 1 2.5 2.3 2.2l19.9-3.2c1.3-.2 2-1.5 1.5-2.7l-6.1-15.7v-7c0-1.2.3-2.3.8-3.3.3-.6.5-1.2.5-1.9v-3.3L314 470v-16l.5-.9c.2-.3.3-.6.3-1v-5c0-.3-.1-.6-.2-.9l-1-2z"/></svg>