<svg version="1.1" xmlns="http://www.w3.org/2000/svg" x="0" y="0" viewBox="0 0 512 512" xml:space="preserve"><path d="M488.7 196.1c.1.2.2.4.2.6-.1-.2-.1-.4-.2-.6zm-17.9 116.5c.1-.1.1-.2.2-.3-.2.1-.2.1-.2.3zM275.2 209.2c-1.2-.4-2.3-1.2-3.4-2l-.5-.3c-.1-.3-3.5 3.3-4.6 4.7-1.2 1.4.3 4 3.3 5.7s11.6 6.2 12.5 5.9c.9-.2 2.7-2.6.7-4.1l-1.3-1.5c-.6-.8-.9-2.3-.6-3.2.6-1.3 1.6-2.8 2.8-3.3l1-.4c1.7.7 2.5.2 1.7-1.1s-4.8-1.7-5.5-1.3c-.7.5-3.2 1.3-4.9 1.3l-1.2-.4zm235.1 76.3c-.3 2.4-.6 4.8-.9 7.1-.1.9-.2 1.7-.4 2.6-.3 1.8-.6 3.7-.9 5.5-.2.9-.3 1.8-.5 2.8-.2 1-.4 2-.6 2.9-.2 1.1-.4 2.1-.7 3.1-.2.8-.3 1.6-.5 2.4-.3 1.2-.5 2.3-.8 3.5-.1.6-.3 1.2-.4 1.8-.3 1.3-.6 2.6-1 3.9 0 .1-.1.2-.1.4-1.3 5-2.8 9.9-4.4 14.8-2.4 7.4-5.2 14.6-8.3 21.6-.3.7-.6 1.3-.9 2-.4 1-.9 2-1.3 3-.3.7-.6 1.3-.9 2-.5 1-.9 2-1.4 2.9-.3.6-.6 1.1-.8 1.7-.9 1.8-1.8 3.6-2.8 5.4-.3.6-.7 1.3-1 1.9-.5.9-1 1.9-1.5 2.8-.4.6-.7 1.3-1.1 1.9-.5.9-1.1 1.9-1.6 2.8-.4.6-.7 1.2-1.1 1.8-1 1.7-2 3.3-3 5-.4.6-.8 1.2-1.1 1.8-.6.9-1.1 1.8-1.7 2.6-.4.6-.8 1.3-1.3 1.9-.6.9-1.2 1.7-1.7 2.6-.4.6-.9 1.3-1.3 1.9-1 1.5-2.1 3-3.2 4.4-.5.6-.9 1.3-1.4 1.9l-1.8 2.4c-.5.6-1 1.3-1.5 1.9-.6.8-1.2 1.6-1.9 2.4-.5.6-1 1.3-1.5 1.9-.6.8-1.2 1.5-1.9 2.3-1 1.2-2 2.4-3.1 3.6-.6.7-1.3 1.4-1.9 2.2-.6.6-1.1 1.3-1.7 1.9-.6.7-1.3 1.4-1.9 2.1-.6.6-1.2 1.3-1.8 1.9-.6.7-1.3 1.4-1.9 2-.9.9-1.7 1.8-2.6 2.6l-2.7 2.7c-.7.7-1.4 1.3-2 2-.7.6-1.3 1.3-2 1.9-.7.6-1.4 1.3-2 1.9-.7.6-1.3 1.2-2 1.8-.9.8-1.7 1.5-2.6 2.3-.9.8-1.8 1.6-2.8 2.4-.8.7-1.7 1.4-2.5 2.1-.7.5-1.3 1.1-2 1.6-.8.6-1.5 1.3-2.3 1.9-.7.5-1.3 1.1-2 1.6l-2.7 2.1c-.7.6-1.5 1.1-2.2 1.6-1.2.9-2.4 1.7-3.5 2.6-.6.5-1.3.9-1.9 1.4-.9.6-1.8 1.2-2.6 1.8-.7.5-1.3.9-2 1.4-1 .6-1.9 1.3-2.9 1.9-.6.4-1.1.7-1.7 1.1-1.5.9-2.9 1.8-4.4 2.8-.6.4-1.2.7-1.8 1.1l-3 1.8c-.7.4-1.3.8-2 1.1-1 .6-2.1 1.2-3.1 1.7-.6.3-1.2.7-1.8 1-1.6.8-3.1 1.7-4.7 2.5-.5.3-1 .5-1.5.8-1.2.6-2.3 1.2-3.5 1.7-.6.3-1.3.6-1.9.9-1.1.5-2.2 1-3.3 1.6-.6.3-1.2.6-1.8.8-1.6.7-3.3 1.5-5 2.2-.3.1-.7.3-1.1.4-1.4.6-2.8 1.1-4.2 1.7-.6.2-1.2.5-1.9.7-1.2.5-2.4.9-3.5 1.3-.6.2-1.2.5-1.8.7-1.5.6-3.1 1.1-4.6 1.6-.2.1-.5.2-.7.3-1.8.6-3.5 1.2-5.3 1.7-.6.2-1.2.4-1.8.5-1.3.4-2.5.8-3.8 1.1-.6.2-1.2.4-1.9.5-1.4.4-2.9.8-4.4 1.2l-1.2.3c-1.8.5-3.7.9-5.5 1.3-.5.1-1.1.2-1.6.4-1.4.3-2.7.6-4.1.9-.6.1-1.3.3-1.9.4-1.4.3-2.9.6-4.3.8-.5.1-1 .2-1.4.3l-5.7.9c-.4.1-.9.1-1.3.2l-4.5.6c-.6.1-1.3.2-1.9.2-1.4.2-2.8.3-4.3.5-.5.1-1.1.1-1.6.2-1.9.2-3.9.4-5.8.5-.3 0-.6 0-.9.1-1.7.1-3.3.2-5 .3-.6 0-1.2.1-1.9.1-1.4.1-2.9.1-4.3.2-.6 0-1.2 0-1.8.1-2 0-4 .1-6 .1-2.1 0-4.2 0-6.2-.1-.7 0-1.4 0-2-.1-1.4 0-2.8-.1-4.2-.2-.8 0-1.6-.1-2.4-.1-1.3-.1-2.5-.1-3.8-.2-.8-.1-1.7-.1-2.5-.2-1.2-.1-2.5-.2-3.7-.3-.8-.1-1.7-.2-2.5-.2-1.2-.1-2.5-.3-3.7-.4l-2.4-.3-3.9-.6-2.1-.3-5.1-.9c-.3 0-.6-.1-.8-.1-2-.4-3.9-.7-5.9-1.1-.6-.1-1.3-.3-1.9-.4-1.3-.3-2.6-.6-4-.9-.8-.2-1.5-.4-2.3-.5-1.2-.3-2.4-.6-3.5-.9l-2.4-.6c-1.1-.3-2.3-.6-3.4-.9-.8-.2-1.6-.5-2.4-.7-1.1-.3-2.2-.7-3.4-1-.8-.2-1.6-.5-2.4-.7-1.2-.4-2.3-.7-3.5-1.1-.7-.2-1.5-.5-2.2-.7-1.3-.5-2.7-.9-4-1.4-.5-.2-1-.4-1.6-.6l-5.4-2.1c-.7-.3-1.3-.5-2-.8-1.2-.5-2.3-.9-3.5-1.4-.8-.3-1.5-.7-2.3-1-1-.4-2-.9-3.1-1.3-.8-.4-1.6-.7-2.4-1.1-1-.4-1.9-.9-2.9-1.4l-2.4-1.2c-.9-.5-1.9-.9-2.8-1.4l-2.4-1.2c-.9-.5-1.9-1-2.8-1.5-.8-.4-1.6-.8-2.3-1.3-1-.5-2-1.1-3-1.7l-2.1-1.2c-1.6-.9-3.2-1.9-4.8-2.8-.7-.4-1.5-.9-2.2-1.4-.9-.6-1.8-1.1-2.7-1.7-.8-.5-1.6-1-2.4-1.6-.8-.5-1.6-1.1-2.4-1.6-.8-.5-1.6-1.1-2.4-1.7-.8-.5-1.5-1.1-2.3-1.6-.8-.6-1.6-1.2-2.5-1.7-.7-.5-1.5-1.1-2.2-1.6l-2.4-1.8c-.7-.5-1.4-1.1-2.1-1.6-.8-.6-1.6-1.3-2.5-1.9-.7-.5-1.3-1.1-2-1.6-.8-.7-1.7-1.3-2.5-2-.3-.3-.7-.6-1-.9-1.9-1.6-3.8-3.3-5.7-4.9-.5-.5-1.1-1-1.6-1.5-.8-.8-1.7-1.5-2.5-2.3-.6-.5-1.2-1.1-1.7-1.6-.8-.8-1.6-1.6-2.4-2.3-.6-.5-1.1-1.1-1.7-1.6l-2.4-2.4-1.6-1.6c-.8-.8-1.6-1.7-2.4-2.5-.5-.5-1-1.1-1.5-1.6-.8-.9-1.6-1.7-2.4-2.6-.4-.5-.8-.9-1.2-1.4-3.1-3.5-6.1-7-9-10.7-.2-.2-.3-.4-.5-.6-.8-1-1.6-2.1-2.5-3.2-.3-.5-.7-.9-1-1.4-.8-1-1.5-2-2.3-3.1-.4-.5-.7-1-1.1-1.5-.7-1-1.5-2-2.2-3.1-.4-.5-.7-1-1.1-1.6-.7-1-1.4-2.1-2.1-3.2-.3-.5-.7-1-1-1.5-.7-1.1-1.5-2.2-2.2-3.3-.2-.4-.5-.8-.7-1.2-3.5-5.6-6.8-11.3-9.8-17.1-.2-.3-.4-.7-.5-1-.6-1.2-1.3-2.5-1.9-3.7-.2-.5-.5-.9-.7-1.4-.6-1.2-1.2-2.4-1.8-3.7-.2-.5-.5-1-.7-1.5-.6-1.2-1.1-2.5-1.7-3.7-.2-.5-.4-.9-.6-1.4-.6-1.3-1.1-2.6-1.7-3.9-.1-.4-.3-.7-.4-1.1-2.6-6.3-4.9-12.7-7-19.2-.1-.3-.2-.5-.2-.8-.4-1.4-.9-2.8-1.3-4.2-.1-.5-.3-.9-.4-1.4-.4-1.4-.8-2.7-1.1-4.1-.1-.5-.3-1-.4-1.5-.4-1.4-.7-2.7-1.1-4.1-.1-.5-.2-1-.4-1.5-.3-1.4-.7-2.8-1-4.2l-.3-1.2c-3.9-17.8-6-36.2-6-55.1 0-23.2 3.1-45.7 8.9-67.1 0-.1 0-.2.1-.2 5.5-20.2 13.4-39.4 23.4-57.2l.1-.1c4.1-7.3 8.5-14.4 13.3-21.2.1-.1.1-.2.2-.3l2.7-3.9c.1-.1.2-.2.3-.4 3.8-5.3 7.9-10.4 12.1-15.4l.3-.3c1-1.1 1.9-2.2 2.9-3.3.2-.2.4-.5.7-.7 1-1.1 1.9-2.1 2.9-3.2l.6-.6c3.3-3.5 6.6-7 10.1-10.3l.1-.1c1-1 2-1.9 3-2.8.3-.3.7-.6 1-1 .9-.9 1.9-1.7 2.9-2.6.4-.4.8-.7 1.2-1.1 1-.9 1.9-1.7 2.9-2.5.3-.3.7-.6 1-.8 3.2-2.7 6.5-5.4 9.9-8 .5-.4.9-.7 1.4-1.1.9-.7 1.9-1.4 2.8-2.1.6-.4 1.1-.8 1.7-1.2.9-.7 1.8-1.3 2.7-2 .6-.4 1.2-.8 1.8-1.3.9-.6 1.8-1.3 2.8-1.9l1.8-1.2 5.1-3.3c.7-.4 1.4-.9 2-1.3.9-.5 1.7-1 2.6-1.6.7-.4 1.5-.9 2.2-1.3.9-.5 1.7-1 2.6-1.5.8-.4 1.6-.9 2.4-1.3.8-.5 1.7-.9 2.5-1.4.9-.5 1.7-.9 2.6-1.4.8-.4 1.6-.8 2.4-1.3 1.6-.8 3.1-1.6 4.7-2.4.7-.3 1.4-.7 2.2-1 1-.5 2-.9 3-1.4.8-.4 1.6-.7 2.4-1.1 1-.4 1.9-.8 2.9-1.3.8-.3 1.6-.7 2.4-1l3-1.2c.8-.3 1.5-.6 2.3-.9 1.2-.5 2.5-1 3.7-1.4.5-.2 1.1-.4 1.6-.6 1.7-.6 3.5-1.2 5.2-1.8.7-.2 1.3-.4 2-.7 1.2-.4 2.3-.8 3.5-1.1.7-.2 1.5-.5 2.3-.7 1.1-.3 2.3-.7 3.4-1 .7-.2 1.5-.4 2.2-.6 1.2-.3 2.5-.7 3.7-1 .6-.2 1.3-.3 1.9-.5 1.9-.5 3.7-.9 5.6-1.4.4-.1.7-.2 1.1-.2 1.6-.4 3.1-.7 4.7-1 .7-.1 1.4-.3 2-.4 1.3-.3 2.5-.5 3.8-.7.7-.1 1.5-.3 2.2-.4 1.3-.2 2.5-.4 3.8-.6l2.1-.3 4.5-.6c.5-.1.9-.1 1.4-.2 2-.2 3.9-.5 5.9-.7.5-.1 1.1-.1 1.6-.1 1.5-.1 2.9-.3 4.4-.4.7-.1 1.4-.1 2.1-.2 1.3-.1 2.6-.2 4-.3.7 0 1.5-.1 2.2-.1 1.4-.1 2.8-.1 4.2-.2.6 0 1.3 0 1.9-.1 2 0 4.1-.1 6.1-.1 2.4 0 4.7 0 7 .1.8 0 1.5.1 2.3.1 1.6.1 3.1.1 4.7.2.9 0 1.8.1 2.7.2 1.4.1 2.8.2 4.3.3.9.1 1.9.2 2.8.3 1.4.1 2.7.3 4.1.4 1 .1 1.9.2 2.8.3 1.4.2 2.7.3 4.1.5.9.1 1.9.3 2.8.4 1.4.2 2.8.4 4.2.7.9.1 1.7.3 2.6.4 1.5.3 3 .6 4.5.8.7.1 1.5.3 2.2.4 2.1.4 4.2.9 6.3 1.4.1 0 .2 0 .3.1 2.2.5 4.4 1.1 6.6 1.6.6.2 1.3.3 1.9.5 1.5.4 3.1.8 4.6 1.3.8.2 1.6.5 2.3.7 1.4.4 2.7.8 4.1 1.3.8.3 1.7.5 2.5.8 1.3.4 2.6.9 3.9 1.3.8.3 1.7.6 2.5.9 1.3.5 2.6.9 3.9 1.4l2.4.9c1.3.5 2.7 1 4 1.6.7.3 1.5.6 2.2.9 1.4.6 2.9 1.2 4.3 1.9.6.3 1.2.5 1.8.8 2 .9 3.9 1.8 5.9 2.7 0 0 .1 0 .1.1 2 1 4 2 6.1 3 .4.2.8.4 1.2.7 1.5.8 3.1 1.6 4.6 2.5.6.3 1.2.7 1.8 1 1.3.7 2.6 1.5 3.9 2.2.7.4 1.3.8 2 1.2 1.2.7 2.5 1.5 3.7 2.2.7.4 1.3.8 2 1.3 1.2.8 2.4 1.5 3.6 2.3.7.4 1.3.9 1.9 1.3 1.2.8 2.5 1.7 3.7 2.5l1.8 1.2c1.3.9 2.7 1.9 4 2.9.4.3.9.6 1.3 1 3.6 2.7 7.1 5.4 10.5 8.3.2.2.4.3.6.5 1.5 1.2 2.9 2.5 4.4 3.7.4.4.9.8 1.3 1.2 1.2 1.1 2.4 2.1 3.6 3.2.5.5 1 1 1.5 1.4 1.1 1 2.2 2.1 3.3 3.1.5.5 1.1 1 1.6 1.5 1.1 1 2.1 2.1 3.2 3.2.5.5 1 1 1.5 1.6 1.1 1.1 2.1 2.2 3.2 3.3.5.5.9 1 1.4 1.5 1.1 1.2 2.3 2.5 3.4 3.7.3.4.7.8 1 1.2 3.5 4 6.9 8.2 10.1 12.4.4.5.8 1.1 1.2 1.6.7.9 1.4 1.8 2.1 2.8.4.6.9 1.2 1.3 1.8.7.9 1.3 1.8 2 2.8.4.6.9 1.2 1.3 1.8.6.9 1.3 1.9 1.9 2.8l1.2 1.8c.6 1 1.3 1.9 1.9 2.9.2.4.5.8.7 1.2 1.3 2.1 2.6 4.1 3.8 6.2.4.6.7 1.2 1.1 1.8.5.9 1.1 1.9 1.6 2.8l1.2 2.1c.5.9 1 1.9 1.5 2.8.4.7.8 1.5 1.2 2.2.5.9 1 1.9 1.4 2.8.4.8.8 1.6 1.2 2.3.5.9.9 1.8 1.4 2.8.4.8.8 1.7 1.2 2.5l1.8 3.9c.6 1.2 1.1 2.5 1.6 3.7.4.9.7 1.7 1.1 2.6.4.9.8 1.8 1.1 2.8.4.9.7 1.8 1 2.6.4.9.7 1.9 1.1 2.8.3.9.7 1.8 1 2.7.3 1 .7 1.9 1 2.9.3.9.6 1.7.9 2.6.3 1 .7 2.1 1 3.1.3.8.5 1.6.8 2.4.5 1.5.9 3 1.4 4.6.2.8.4 1.5.7 2.3.4 1.4.8 2.8 1.1 4.2.2.8.4 1.5.6 2.3.3 1.1.6 2.3.8 3.5.2.8.4 1.6.6 2.5.3 1.1.5 2.3.7 3.4.2.8.3 1.6.5 2.5.2 1.2.5 2.4.7 3.6.1.8.3 1.5.4 2.3.2 1.4.5 2.8.7 4.2.1.5.2 1.1.3 1.6.3 2 .6 3.9.8 5.9.1.6.1 1.1.2 1.7.2 1.4.3 2.9.5 4.3.1.7.1 1.5.2 2.2.1 1.3.2 2.6.3 3.8.1.8.1 1.6.2 2.4.1 1.3.2 2.6.2 3.8 0 .8.1 1.5.1 2.3.1 1.4.1 2.8.2 4.2 0 .7 0 1.3.1 2 0 2 .1 4.1.1 6.2 0 1.8 0 3.6-.1 5.5v2c0 1.4-.1 2.7-.2 4.1-.1 1.2-.1 2.4-.2 3.6-.1 1.9-.2 3.8-.4 5.6-.1 1.4-.2 2.8-.4 4.1-.1 1.1-.2 2.2-.4 3.4 0 .8-.1 1.2-.1 1.6zm-24.9 59.4c-.1-.4-.1-.8 0-1 .4-1.1.1-3-.6-4.2l-.1-.9c-.1-.8.2-1.8.7-2.4l.6-.7c1-.5 1.5-1.3 1.4-1.5-.2-.2-1.8 0-2.5.1s.3-2.5.8-3.5.5-2 .3-2.1c-.2-.1-2.1 2.7-2.8 3.8-.7 1.1-3.5-2.1-2.4-3.6.1-.1.1-.2.2-.3-1.1 1.4-2.9 3.7-2.9 5.6 0 2-1.7 4.9-2.3 5.4-.7.5-1.7-.7-1.9-1.2-.2-.5-1.3.1-2.6 1.4-1.3 1.3 1.3 5.5 1.2 5.9l-.1.4c-.7 2.1.3 3.5 2.1 3.9l1.2.2c1.5-.8 4.7-3.4 5.3-4.4.6-1 1.2-1.6 1.3-1.5.1 0-.7 2.8-1 3.9-.3 1-1.5 1.8-2 1.7-.5-.1.8 1.5 1.3 1.9.5.4 2-2.3 2.4-3.4.4-1.1.9-.4 1 0 .5-1.1 1-2.3 1.4-3.5zm-458.7.3c.3-1.1.4-2.3.3-3.4 2.5 1.8 3.5 4.9 4.1 7.9.6 3 .9 6.1 2.6 8.6 2.4 3.7 10.4 1.5 9.6 4.3v.1l-.8 2.9c2.3.7 5.7-3.1 6.3-4.9.6-1.8 5 .3 6.2 1.5 1.2 1.1 4.9.1 5.9-.6.9-.7 1.7 2 1.7 2.8s.6 1.4.8 1.4.4-1 .4-2.3l-.2-1.1-.7-3.6c2.2-1.8 3.9-3.7 3.9-4.2 0-.6-.7-1.5-.9-1.1-.2.4-1-1-1.2-1.5-.2-.4-.6-.8-.7-.8-.1 0-.3 1.9-.4 2.6-.1.7-.6 1.3-.7 1.3-.2 0-1.2-3.2-1.6-4.4-.4-1.3 1.1-2.5 1.9-2.5.8-.1 1.5-5.3 1.5-7.1 0-2-1-4.3-1.4-6 3.5.7 4.9 3.8 5.9 7l2.7 8.7c.5 1.6 1 3.4.4 5-.7 1.6-3 2.4-4.1 1.1-1.7 1.1.1 3.8 2.1 4.2 2 .5 4.4.5 5.4 2.3 1.1 2.2-1.6 4.6-4.1 4.8s-5.1-.7-7.5.1c-2.3.8-3.9 2.9-4.8 5.1-1.4 3.3-1.9 7.1-1.3 10.7 1.9 10.8 12.4 17.8 17.5 27.5 1.1 2.1 2 4.4 4 5.6 2 1.3 5.3.5 5.6-1.8 7.2 4.2 13.9 9.1 20.2 14.5-1.9-1.7-1.5-8.9-.8-11 .7-2.5 5.1-5.9 5.1-7.9 0-.7-.4-1.4-.6-2.1-.5-1.5.1-3.4 1.3-4.4 2.2.5 2.4 4.7 4.5 4.2.6-.1 1-.7 1.6-.8 2.1-.6 4.2 3.4 5.6 1.8-2-3.8-4-7.5-6-11.3 1.9 1.1 4.4.6 6.3 1.7 2.3 1.2 3 4.2 3 6.7 0 1.4-.2 2.9-.5 4.2 2-.1 4.8.6 4.5 2.6-2.6-2.1-6.8-1.5-8.7 1.1-1.1 1.5-1.5 3.4-2.5 4.9-1 1.6-3.1 2.8-4.6 1.7.6 3.7 1.2 7.7 3.7 10.5 5.1 5.7 15 4.1 20.4 9.5-1.1-4.3-4.6-7.9-8.9-9.1 1.2-.2 2.4-.4 3.7-.6l-2.7-1.8c2.1-1.8 5.6-1.7 7.6.2-4.3 4.8 5.4 3.4 7.3 2.1 1.1-.7 1.6-4.5 2.8-5.2 1.2-.7-1.9-2.7-3.1-3.1-1.2-.4-2.5.9-2.7 1.6s-1.5-.5-1.8-1-1.3-.3-1.4-.2c-.2.1-2-.3-4-.9l-1.6-.5-1.8-.6c-1.9-.6-3.1-3.3-2.9-4.1.1-.7 1.2-1.1 1.7-.9.5.1 1-1.2 1-1.6 0-.4 2.1.3 2.9.6.8.4 2 .2 2.1.1.1-.1-.8-2.3-1.2-3.1-.4-.8 1.9-.4 2.8.2.9.6 4.4 2.5 5.5 2.9 1.1.4 2.2.5 2.3.4.1-.1-1.1-1.3-1.6-1.8s1.1-6.9-.7-8.6c-1.8-1.6-5.9-8.1-7.9-8.8-2.1-.7-3.3-4.6-3.1-5.7.2-1.1.7-2.2.9-2.3s4 6.4 5.7 8.7c1.7 2.3 3.6 5.6 4.1 6.1 5.1 5.1 10 10.6 15.8 14.8-1.1-3.1-2.3-6.2-3.4-9.2 1.6 1.5 2.6 3.5 4.1 5.1 1.5 1.6 3.9 2.7 5.8 1.7 1.3-.6 2-2 3.2-2.7.9-.6 2-.7 3.1-.9 5.2-.7 10.3-1.5 15.5-2.2 2.6-.4 6.3 0 6.6 2.6.9-2.5 3-5.6 5.5-4.6.6.2 1.1.7 1.7 1 1.7.7 3.6-.8 4.1-2.6 1-3.8-.2-10.9-.6-14.9-.1-.9-1-2-1.7-2.2-.7-.2-1.5 2.3-1.5 3.2 0 .6-6.3-.7-5.6-4.8 1-6.2 2.4-12.3 4.2-18.4.9-3.2 2.1-6.6 4.9-8.5-3.6.6-7.4 1.2-10.6-.4-3.2-1.6-5.2-6.3-2.7-8.9 1.7-1.9 4.7-1.8 7.1-1.1 3.3 1 6.2 2.9 8.4 5.5 7.6-12-10.1-8.8-15.9-11.2 2.8-11.8-4.8-23.3-12-33.1-1.2-1.6-2.5-3.4-4.5-4-2-.6-4.6.4-4.7 2.5-1.2-1.4-1.1-3.7.3-5-.9-1.3-2.5-2.1-4.1-1.9 1 3.3.4 7.1-1.7 10 2.7 1.6 4.8 4.3 5.6 7.4-1.7.9-3.4 1.8-5.2 2.6 3.6 5.1 7.4 10.4 8.2 16.6s-2.3 13.4-8.3 15c-.1-7-3.6-13.9-9.1-18.1-1.2-.9-2.6-1.8-3.2-3.2-.4-1-.4-2.2-.7-3.3-.6-1.9-2.3-3.2-3.7-4.5-4-3.8-6.4-9.3-6.6-14.8-4.3 1.3-7.1 6.1-6.3 10.5-3.3-6.2-2.8-14.2 1.3-19.9-.2 3.3 5 4.6 7.1 2.1 2.1-2.5 1.1-6.6-1.3-8.8 1.5.7 3.2 1 4.8.9-2.6-4.8-6-9.3-10-13-.9 3-1.7 5.9-2.6 8.9-1.5-3.4-6.6-4.5-9.4-2-1.9-3.9-2.6-8.4-2.1-12.7-2.2.3-4.2 2.2-4.4 4.5-4.4-4.8-2.4-11.7-5.7-15.9-.9-1.1-2.5-1.4-3.9-1.6-6.4-1.1-13.5-5.1-13.5-11.5l18.9-2.4c-3.6-4.8-9.9-7.5-15.8-6.9 3.9-1.1 7.8-2.2 11.7-3.2-5.1-1-9.4-5.3-10.4-10.4-1.1-5.1 1.2-10.7 5.5-13.7-3-2-5.1-5.2-6-8.7 6.3.1 12.5-2.3 17-6.7 1-1 2-2.1 3.4-2.6 6-2.3 9.5 8.5 15.8 9 2.2.1 4.2-1 6.3-1.6 3.8-1.2 8-.6 11.8-1.9 3.8-1.3 7.1-5.8 4.9-9.1 2.6 1.4 3.5 5.1 2 7.6l7.5-2.1c-.5 3.5 4.1 5.9 7.5 4.7 3.4-1.1 5.5-4.3 7.7-7.1s4.9-5.7 8.5-5.8c-2.9 2.2-3.7 8.1-.9 10.8 5.5 5.4 5.4-3.4 6.5-3.4 7.3-.3 11.4-3.3 16.1-7.9l.4-.4c1.2.4 3.3-2.9 3.7-4.2.4-1.3-.5-2.9-2-3.5l-.7-.7c-.2-.2.5-1.5.9-2.3l.4-.8c.5-.8 0-1.9-1.2-2.3l-1 .1-1.5.2c-1.6.5-6.3.3-7.6-.1-.5-.2-5.1-4.9-5.7-5.6-3.1-3.3-7.1-6.7-6.3-11.8.9-6 8-8.6 14-9.8-1.4-5.6 3.5-11.8 9.2-11.7 1.8 0 3.5.5 5.3.6 1.8 0 3.8-.6 4.6-2.2.8-1.6-.6-4-2.3-3.6-1.2 1-2.4 1.9-3.6 2.9.5-6 .9-12 1.4-18 .1-1.3.1-2.9-.8-3.8-.8-.8-2-.9-2.8-1.7-2.2-2-.1-6.8-2.9-7.9 3.8.8 7.8-1.2 10.5-4 2.5-2.6 4.1-6 5.6-9.3-.1 1.3 2.1 2.7 3.4 1.7 1.5-1.2 1.2-3.7.1-5.3-1.1-1.6-2.7-2.8-3.7-4.5-3.4-5.7-3.5-8.4-10.3-11.6-5.5-2.6-11.5-3.9-17.2-6-5.5-2.1-9.7-6.3-15.1-8.2-3.3-1.2-7.4-.7-9.6 2.1-.4.6-.8 1.3-1.5 1.5-.7.2-1.6-.5-1.3-1.1-1.4 2.5-10.6 5.6-13.3 7.7-3.5 2.7-6.6 7.3-10.1 9.1-.9-2.8-.7-5.8-1.4-8.7-.7-3.2-3.9-6.5-7-5.2-.4.2-.9.5-1.1.9-.7 1.2.1 2.8 1.3 3.4s2.7.6 4 .5c-5.6 5.8-16.6 1.8-22.4 7.3-3.2 3-3.7 7.7-4.9 11.9s-4.3 8.7-8.6 8.4c-.1-6.9 1.3-13.7 4.2-20-1.8 1.6-4.9 1.4-6.4-.4-.3 2.3-1 4.5-2 6.6-.4.7-.8 1.5-1.6 1.8-1.4.5-2.6-.9-3.7-1.8-1.1-1-3.2-1.3-3.6.1-.6-1.8.1-3.9 1.7-5-1.4-1-2.9-2.2-3.4-3.9s.8-3.9 2.6-3.6l-1.8 2.1c6 .9 12.4-1.1 17-5.2 4.5-4.1 7.1-10.3 6.9-16.4 2-.2 3.6 1.8 3.7 3.7.2 2-.7 3.8-1.7 5.5 8.8-4.3 18.1-7.1 26.7-10.9 2-.9 3.8-2.7 3.9-4.9.1-2.2-2.3-4.3-4.4-3.4-.2-.7-.4-1.3-.6-2-2.7 0-5.4 0-8.1.2-21.7 11.5-41.6 26.1-59.1 43.7-22.6 22.6-40.3 48.9-52.7 78.2C16.5 190.6 10 222.8 10 256c0 30.8 5.6 60.8 16.7 89.2zM373 39.5c-.7.9-.8 1.9-.5 2.3.4.5-.6.7-1 .6-.5-.1-.9 0-1 .1-.1.1 3.9 2.9 5.6 3.9s3.1-1.5 2.7-2.4c-.1-.3-.4-.9-.8-1.7-1.7-.9-3.3-1.8-5-2.8zm62.3 48.1c-.5-.1-1.1-.3-1.5-.6l-1.7-1.8c-1.6-1.8-2.4-1-1.8 1.8l3.3 1.5 1.5.7c1.3 1.1.4 5.2-.2 6.2-.6 1 1.1 2.5 1.8 2.7.7.2-.2-4.2.9-4.7s2-.8 2-.8-.1 0-.2-.1v-.4c-1.3-1.5-2.7-3-4.1-4.5zm15.9 35.4c0-.8 4.5.9 6.3 1.8 1.8.9 2.9-1.7 2.7-2.7-.1-1.3-1.8-1.9-2.5-1.8-.7.1-1.3-.3-1.3-.9v-.8c0-.7.3-1.7 0-2.1l-1.4-1.6c-1.8-1.7-4.3-2.7-4.8-2.5s.8 1.9 1.5 2.5c.7.6-3.2 1.6-2.9 2.8s-.6 2.6-1 2.8c-.4.2-.4 1.2.1 2.3.5 1.1 4.4 6.4 5.7 5.8 1.3-.6 0-2-.8-2.3-.9-.4-1.6-2.5-1.6-3.3zm.8-15.7c-.8-1-1.5-2-2.3-3-.4 1.9-.7 3.2-.6 3.2.1 0 1.3-.1 2.9-.2zm-11-13.5c-.1.2-.3.4-.4.4-.2 0-.6-.8-.7-1l-.2-.6c-1.3 2.5 1 3 2.3 3.6 2.3 1 2.6 2.1 1.2 3.9s-.9.3-1.1.3c-.2.1 1 6.5 2.7 8.2 1.6 1.8 2.3-1.2.7-2.2-1.6-.9-.6-2.6-.2-2.7.4-.1-.7-2-1.2-2.6-.3-.4-.6-.7-.8-.9.5.1.9.3 1.4.4l2.4.5c-2-2.5-4-4.9-6.1-7.3zm-22.1-22.1c-.1.9.6 4.1 1.2 5 .5.8 1.1 1.2 1.2 1.1.1-.2 1.2-.1 2.4.2l.6.7 2 2.2c.5-.4 1-.7 1.4-1-2.8-2.8-5.8-5.6-8.8-8.2zm-14.3 2.9c-.7-.6-2.7-1.3-4.4-1.5l-1.2-.8-1.3-.9c-1.1-1.6-3.4-2.2-4-2-.6.3 1.2 3.4 2 4.5s1.8 1.4 1.9 1.1c.1-.2 1 0 1.9.5l.9.1 3.2.3c3.5.2 6.4.4 6.3.4l1.8-5.6c-3.8-2.5-8.1-5.3-9.6-6.2l-1.5-.5-1.3-.5c-1.7-.2-6.1-4.7-8.5-5.5-2.4-.7-4.4.5-4.3 2.7l.3 2c.1.8.7 1.8 1.4 2 3.3 1.2 6.6 2.3 9.9 3.4l.6.2c.5.5 4.5 3.5 5.9 4.4 1.4 1 .7 2.5 0 1.9zm5.3 1.8s.6 1.4 1.3 3.2l1.4.8 1.4.8c1.8.4 3.1 1 3 1.3-.1.3.3.8.5.8.2.1.8-1.9.9-2.6.1-.7-.7-2.5-1.8-4l-1.4-.4-1.6-.4c-2.1.3-3.7.5-3.7.5zm-72.2-25.1c.8-1.6.8-4.1.6-4.7-.3-.5-1.8-1.4-3.4-2l-1.3-.7c-3.8-2.1-7.3-3.9-11.4-5.5-3.4-1.3-7.8-2.5-10.3.1-1.4-.4-1.8-2.7-3.2-2.7-.6 0-1.1.4-1.6.7-1.5.7-3.2-.2-4.7-.9s-3.4-1.2-4.6-.1c1.1.7 2.1 1.6 2.8 2.7-2.8 1.8-6.4-.8-9.7-1.1-2.2-.2-4.4.8-5.9 2.4-2.1 2.3-1.8 3-5.1 3.4l-1.5-.6c-1.2-.5-1.8-2.7-3-3.3l-3.2-1.5c-3.7-1.2-7-1.7-7.1-1.5-.4.7 2.2 4 2.6 4.6.6 1.3.8 2.7 1.2 4.2.1.4.3.9.4 1.4.5 1.2 1.5 2.2 2.1 3.3.1.2.2.4.1.5-.1.2-.2.3-.4.4-.6.4-1.2.8-1.7 1.2 1.7.5 3.3 1 5 1.5.6.2 1.1.4 1.5.8.4.4.5 1.2.1 1.6-.7.7-1.8-.3-2.8-.5-.9-.1-1.9.8-1.8 1.7.4 3.4 14-1.3 16.6-.9 2.3.4 4.6 1.6 6.7.8.6-.2 1.1-.6 1.8-.8 1.2-.3 2.4.2 3.6.6.2.1.5.1.7 0 .2-.2.2-.4.3-.7.2-.8 1-1.3 1.8-1.4 2.9-.5 3.3 2.8 1.2 2.9-1.4.1-2.8 1.6-3.2 3.4l2.4.6c.4.1.6 1.5.5 2.2l-.1 1.1c-.5 1.3 1 2.5 1.4 2.6.4.1 1.8-2.2 2.1-3 .3-.7.9-4.4 1-4.5.2-.1 5 3 6.7 4.1 1.7 1.2 3.3-.3 3.4-1.3.1-1 4.4-2.6 6.1-2.8 2.9-.5 7.3-3.1 3.6 1.9-.9 1.1-1.7 2.3-2.6 3.4-.2.3-.5.6-.6 1-.3 1.4 1.4 2.5 1.6 3.9.2.9-.4 1.9-.9 2.6-.2.2-.3.4-.6.5-.7.2-1.4-.9-2.1-.6-.5.2-.5 1-.2 1.4.4.4.9.5 1.5.6.9.2 1.9.3 2.8.5.8.1 1.6.3 2.2.7.9.5 1.4 1.5 1.4 2.5.9-.8 1.9-1.7 2.8-2.5.3-.2.5-.5.6-.8.2-.4.1-.8 0-1.2-.7-4.2 1.1-7.9 2.7-11.7l1.3-3.2c-1.7-.8-1-5.7-.2-7.3zm-83.8 87.2c-.2 1.8.2 3.6.7 5.3 1-1.7.8-4-.7-5.3zm.8 5.3c-.1.1-.1.3-.2.4.1-.1.2-.1.3-.2 0-.1 0-.1-.1-.2zm-1.1-96.9c.2-.1 2.3.7 3.1 1.1.8.4 1.2-4 0-5.2s-3.6 0-4.2 1c-.6.9-3.4-.4-4.3-1.2-.9-.8-1.5-1.7-1.5-1.8 0-.1 1.6.2 2.1.3.5.1 1.7-1.7 2-2.4.3-.6-5-2.9-7.3-3.6-2.2-.7-3.8 2.2-3.8 3.3.1 1.2-.9 2.1-1.4 2.1-.4 0-.7 0-.7-.1.2.1 1.2 5.4 3.1 5.2 1.9-.1 4.5 3.8 4.2 4.9-.3 1.1-1.4 2-2.6 1.8l-.6.3-1 .5c-1 .9-1.2 2.6-.4 3.9l.9.3c1.6.5 4.5.9 5 .2l1.5-2.3c.7-3.1 1.4-6.6 1.7-7 .3-.4.9-.7 1-.7.2 0 1 2.3 1.2 3.2.3.9 2.1 1.6 2.5 1.5.4-.1-.1-2.4-.5-3.3-.3-.9-.2-1.9 0-2zm-22 118.9c0-1.9 1.7-.4 2.3.8.6 1.1 1.8 1.7 2.5 1.2s2.4-.4 2.3 0c0 .3 6.5.8 7.3-1.3.8-2.1.6-5.8.3-6.5-.3-.6-2.6-.2-3.3-.5-.7-.3-2-.9-2.9-1.3l-.8-.2-3-.7c-3.6-.8-5.6.1-5.1.8.5.7-1.5 4.2-2.6 5.5-1.1 1.2-.7 3.7 1 5.4l1.5 1.1.9.7c1.3.3 2.2-.4 2-1.5l-.4-.9c-.2-.5-1.3-.6-1.4-1l-.6-1.6zM216.7 43.1c2.8.5 5.4 1.8 8.2 2.7 2.8.9 5.8 1.3 8.4 0 1.5-.7 2.6-1.9 3.4-3.3 1.4-2.6 1.7-6.1 1.1-9.1-.2-.9-.5-1.9-1.3-2.5-.6-.4-1.4-.5-2.1-.6-4.1-.5-8.5-1-12.2 1-1.8 1-4.1 2.4-5.6 1-.8-.8-1-2.2-2-2.5-.8-.2-1.7.3-2.4-.1-.5-.3-.6-1-.8-1.6-.6-1.8-2.7-2.6-4.6-2.5-1.9.1-3.5 1.2-5.1 2.1.8-1.5 1.5-3.1 2-4.7-.8-.4-1.9.1-2.5.8-.6.7-1 1.6-1.8 2.2-2.7 2.4-7.7-.6-10.5 1.7-.5.4-.9.9-1.4 1.2-.9.4-1.9-.1-2.9-.4-2.5-.8-5.4-.5-7.6.9-.9.6-1.8 1.3-2.9 1.3-1.2 0-2.1-1-3.3-1.2-2.2-.5-4.2 1.5-5.1 3.5-.9 2-1.4 4.4-3.1 5.9 1.1.1 1.4 1.7.8 2.7-.5 1-1.5 1.6-2.1 2.6-.4.6 1.3 6.1 2 6.4 1 .3 1 1 .7 1.3-.3.2 0 1.1.3 1.4.2.3 1-.8 1.2-1.2.2-.4 1.8-.7 2.2-.7.5 0 3.1-3.8 4.5-3.4 1.4.4 3.5-.5 3.7-.8s4.6-1.7 6.1-2.1c1.6-.4 3-.1 3 .2.1.3-4.1 1.3-5.7 1.3-1.6 0-2.7 1.9-2.4 4.1l-2.5 1.1c-1.5.7-3.8 1.3-4 2.4-.6 2.4-3 3.4-5.3 3.9v2.5c4.5-.5 8.7-2.7 11.8-6 .6 1.4 1.9 2.4 3.4 2.6-.8-1.4-1.3-3-1.6-4.6-.1-.5-.1-1 .1-1.5.3-.5.8-.7 1.3-.9 3.6-1.2 7.6-.9 11.4-1.5 8.6-1.4 16.7-7.2 25.2-5.6zM210.5 56c-2.7-.1-5.6-.1-8 .9-1.3.6-2.5 3.4-2.3 5l.3 1.8c2.6.9 6.7 1 9.1.2l1.8-1.3c1.1-.8 1.9-2.6 1.8-3.9 0-1-1.6-2.7-2.7-2.7zm-34.6 361.2c-.7.2-.7 1.1.2 1.9.9.8 3.3 1.9 3.3 1.7.1-.2 2.1 1 2.8 1.5s2.8-1.3 3.4-2.2c.5-.9 1.6-1.3 1.8-1.2.2.1-1.3-.9-2-1.3s-1-2.2-1.2-2.5-3.5-1.2-4.8-1.4c-1.3-.2-1.1 1.4-.8 1.8.3.4-2 1.5-2.7 1.7zm-86.3 19.9c.7.4 1.4.8 1.7 1.2 1.4 1.3 5.3 4.6 6.3 5.2 1 .6 3.8.1 4.4-.2.6-.3-3.1-4.1-3.5-6-.4-1.7-1.1-3.5-1.3-3.6-.2-.1-4.6.3-5.7-.8-1.1-1.1-2.3-2.1-2.5-2.3h-.2c-1.7.4-3.1.3-3.4-2l-.1-.9c-.7-.9-1.6-1.3-1.7-1.2-.1.1-.1 2.7 0 3.7 0 1 1.6 2.3 2.5 2.5.6.1-.1.3-.9.3 1.5 1.4 2.9 2.8 4.4 4.1zm139.1-160.3c-.3-1.8-2-.3-2.3.3-.3.7-2.4.8-2.9.6-.5-.1-1.2-4.6-1.3-6.3-.1-1.8-.3-3.2-.6-3.3-.2 0-.8.6-.9 1.5l-.1.8-.2 1.6c-.3 1.7-1.6 5.3-2.9 7.8l-.7 2.4c-.3.9.6 2.3 1.2 3.3l.7 1c1 .9 1.6 1.9 1.5 2-.1.1-1.8-.6-2.4-.9-.6-.3-.7 1.4-.4 1.9.4.5 3.8.7 4.3 1.7s5.2-.2 6.7-.9c1.6-.7 3.3-4.7 2.1-5.6-1-.8-1.4-1.7-1.2-1.7.2 0-.3-4.4-.6-6.2zm154.6 78.3c-1.5 1.5-3.1 2.9-4.6 4.4-.5.5-1 1-1.2 1.7-.2.9.5 1.9 1.3 2.3.8.4 1.8.5 2.8.6-.3 1.3-1 2.5-1.8 3.4 2.2.2 4.5.4 6.3 1.6l1.8 1.2c1.8 1 4.2.8 5.9-.4.4-.3.7-.6 1.2-.7.7-.2 1.4.3 2 .6 2.2 1.2 4.9 1.6 7.3 1 .1-.5.1-.9.1-1.2.3-4.7.4-9.4.1-14.2-.1-1.9-.7-4.2-2.6-4.5-2-.3-4 2.2-5.7 1.2-.9-.6-1.1-1.8-2-2.4-.6-.4-1.4-.3-2.2-.2.2-3.5 1.5-6.9 3.7-9.6.2 1.5.4 2.9.6 4.4.1.6.2 1.2.8 1.4.9.3 1.4-1.1 1.2-2-.3-2.2-.9-4.3-1.9-6.3-1-1.9-2.7-3.5-3-5.7 1.3.9 2.9 1.5 4.5 1.7-2.1-3.6-7.2-5-10.9-3-.9.5-1.9 1.2-2.9 1.1-.2 0-.4-.1-.7 0-.5.2-.5.9-.2 1.3s.8.7 1.1 1.1c1.2 1.2.6 3.3-.4 4.7s-2.5 2.4-3.2 4c-.9 1.9-.6 4.4-2.1 5.9-.3.3-.7.6-.8 1.1s.3 1 .6 1.3c1.5 1.6 3.1 3 4.9 4.2zM499.1 294c.6-3.8 1.1-7.5 1.5-11.3-.7-1.8-1.5-3.4-2.6-5 .3 3.1-2.2 6.2-5.3 6.5-.9-2.9-1.8-5.7-2.8-8.6.8 1.3 2.9.9 3.8-.2.9-1.2 1-2.8 1-4.3 1.8 1.5 3.5 3.1 5.3 4.6-.2-4.8.2-9.6 1-14.3.4.8.7 1.6.9 2.4.1-2.3.1-4.6.1-6.9-1.2-4.4-1.3-9.2-.3-13.7-.3-6.7-1-13.4-1.8-20l-.1-.1.1-.1c-.2-1.8-.5-3.7-.8-5.5-4.1.4-8.1 2.3-10.9 5.3-2.2-2-3.2-5.2-2.8-8.1 1-.2 2.2 0 3.1.5.1-1.3.2-2.5.3-3.8-1.5 1.2-4.1-.5-3.7-2.3.2-3.8.5-7.5.7-11.3.7 1.4 3.2.4 3.2-1 .7 2.7 1.5 5.4 2.2 8 2.3-7.6 1.6-16-2-23.1-.9-1.7-1.9-3.6-1.4-5.4.1-.5.3-.9.6-1.3-.6-1.8-1.3-3.7-2-5.5-.4.4-.7 1-.5 1.6-.4-2-2.3-3.5-4.3-3.6 1.3-1.3 2-3.2 2-5.1l-.9-2.1c-.3-.8-.7-1.5-1-2.3 0 1.1-1.2 2.3-2.4 2-.3-2.5-.4-5.1-.2-7.7-.2-.5-.5-1.1-.7-1.6-1.1.9-2.3 1.7-3.3 2.6-1.1-1.7-2.2-3.4-3.2-5 .9 4.4.1 9.1-2.3 12.9-1.8-3.2-3.5-6.4-5.3-9.7 1 1.4 3.3.9 4.3-.6.9-1.4.9-3.2.7-4.9-3.2.2-6.4-.1-9.5-.9 1 1.3 1.9 2.6 2.9 4-2.4 1.9-6 2-8.6.4-1 2.9-1.2 6.1-.5 9.1-1.5-1.2-3.1-2.4-4.6-3.6 2.1 4.4-2.5 10.3-7.3 9.3-5.6 5.4-4.8 15.9 1.5 20.4-1.7.8-1.7 3.3-.7 5 1 1.6 2.6 2.8 3.5 4.5 1 2 .8 4.3.9 6.6.4 9.5 7.3 18.5 16.4 21.3 3 .9 6.9.8 8.3-2 .8 1.7.4 3.9-.8 5.3 3.3-2 5.9-5.1 7.4-8.7 3.5 4.5 3.9 11.2 1.2 16.2l4.5-.9c.6 1.7 1.1 3.4 1.7 5.1 1.6-2.8 2.2-6.2 1.8-9.4 2.4-.5 4.8-.9 7.2-1.4-5 3.1-6 10-5.5 16 .5 5.9 1.8 12.1-.4 17.6-2-2.9-2.5-6.7-1.4-10-6.1 2.6-12.6 4-19.2 4.2-13.1-8.6-25.2-18.6-36.1-29.9-2.1-2.2-5.8-4.6-7.9-2.3 1.1-1.8-.8-4.1-2.9-4.6-2.1-.5-4.2.1-6.3-.3-4.9-.9-7.1-6.4-8.6-11.1-1.8-5.8-2.9-13.5 2.3-16.5-5-1.7-9.9-3.4-14.9-5.1 1.6-3.1 2.4-8.3-1.1-9-2.4-.5-4.3 2.2-4.7 4.7-.4 2.5 0 5.1-1.3 7.3l-4.5-2.4c-2.5 2.8-3 7.1-1.1 10.4-2.6 1.1-4.1 4.5-3 7.1-3-1.3-3.9-5.9-1.5-8.2-2.9.4-5.6 2.3-6.8 5-2.6-3.7-6.3-6.5-10.6-8.1 2.4-.6 4.5-2.1 5.9-4.1-.8.2-2.4-1.7-2.3-3.2.5-4.2.9-8.3 1.4-12.5-3.2 1.1-5.9-3.1-5.5-6.4.3-3.3 2.3-6.4 2.5-9.7.7-11.6-17.5-14.9-21.6-25.8 2.1-1.8 4.1-3.6 6.2-5.4-.8-1.6-1.6-3.1-2.4-4.7 1.7-2.8 5.1-4.5 8.3-4.1-.3 3.3 0 6.7.7 10 1.7-.8 3.5-1.6 5.2-2.4 1.6 2.4 3.3 4.9 4.9 7.3 3-2.7 6-5.4 9-8-1.1.3-2.8-1.1-2.4-2.5.5-1.7 2.5-2.5 4.3-3 2.1 2.2 5 3.8 8 4.3.7-1.3.7-3.1-.1-4.3-3.8.1-7.7-2.2-9.4-5.7-.9-1.9-1.3-4-2.1-5.9-2.9-6.8-12.3-9.7-18.5-5.7 2.3 1.1 3.3 4.4 2 6.6s-4.6 2.9-6.7 1.5c.4 2-.4 4.3-2 5.6-1.1-3.1-3.7-5.6-6.8-6.6 2.7-1.8 2.4-6.6-.5-8-2.1 1.8-4.6 3.1-7.3 3.9-1.5-4.4-4.7-8.3-8.7-10.6-1.6 1.5-3.5 2.7-5.6 3.3.4 1.4 1.6 2.5 3 2.9-1.6 1.4-3.3 2.9-4.9 4.3 2.7-.1 1.4 4.4 2 7 .6 2.5 3.4 3.5 5.7 4.5 2.3 1.1 4.7 3.5 3.6 5.7-5.2 5-14.9 3.9-18.9-2.1-5.3-3.3-11.4-5.5-17.6-5.1-6.2.4-12.4 3.7-15.3 9.2 2.5 8.5-6 15.8-13.5 20.6-1.6 1-3.1 2-4.7 3 .9 2.7 2.4 5.3 3.6 7.9 2.5 5.8 3.5 12.2 2.8 18.5-.7 1.4-2.3 2.2-3.8 2 1 .9 1.9 1.7 2.9 2.6-1.3-.7-3 .8-2.6 2.2-.8 5-1.5 10-2.3 15-1.9 1.2-12 5.8-6 8 1.9.7 4-.8 4.8-2.6 3.3 0 5.6 4.4 3.8 7.1-5.2 1.4-10.8 1.3-15.9-.2.1-2.9-1.3-5.9-3.7-7.6-2 1.2-.9 4.2.2 6.2s1.6 5.3-.7 5.9c-.4-.9-.7-1.8-1.1-2.7-8.1 1.4-13.3 11.6-9.7 18.9-2.7-3-5.6-6-9.3-7.5s-8.6-1-10.9 2.3c-4.9-8.2-16.7-11.4-25.1-6.8.9 2.6 1.7 5.1 2.6 7.7 3.4-1.7 8.1 1.1 8.2 4.9 0 1.4-.5 2.8-.9 4.1-.9 2.5-1.8 4.9-2.7 7.4-1.1 2.9-3.6 6.5-6.4 5.2 3.5 2 2.7 7.7-.5 10.2-3.2 2.4-7.5 2.5-11.6 2.5 1 1.5 2.1 2.9 3.1 4.4-4.7-1.6-9.4-3.5-13.9-5.6-2.4-.8-5.4.5-6.5 2.8-1.1 2.3-.2 5.4 2 6.8-1.8-.3-3.7-.6-5.5-.9-2.1 1-1.1 4.2.1 6.2 4.6 7.8 7.9 16.3 9.7 25.2 2.6-2 6.5-2.1 9.2-.3-1.6 1.4-2.2 3.9-1.3 5.9 2.5-5 10-6.5 14.2-2.8 1.4-3.4-1.7-7.9-5.4-7.7 1.7-.6 3.3-1.2 5-1.8 0 2.3 2.5 4.2 4.8 3.7s3.6-3.4 2.6-5.4c1.8-.1 3.6-.2 5.5-.3 2.5-3 5.1-6 7.6-9 .8 2.8 3.9 4.4 6.8 4.3 2.9-.1 5.5-1.5 8-3.1-.4-5.3-3.5-9.8-5.8-14.6-2.3-4.8-3.7-10.7-.8-15.1-1.4-.8-2.9-1.5-4.3-2.3 8.8-.9 15.4-9.4 24.2-10.5 8.4-1 15.9 5 22.2 10.7-1-1.9 2.3-2.8 4.3-2.4l20.1 4.5c.3-3 1.1-5.9 2.4-8.6 2.3 0 4.2.2 6-.8-.2-1.1-.7-1.9-1.4-2.8-.6-.9-.5-2.9-.2-3.6.3-.7 1.9-1.1 2.6-1.1.6.1 2.1-2.1 2.6-3.1.4-1 1.8 1.1 2.1 1.9s1.7-1 2.1-1.6c.4-.7 2.5 1.7 3 2.6.6.9.2-3.3-2.1-4-2.2-.6-3.5-4.5-3.2-5.8.2-1.3 4-1.2 4.1-2.7 0-1.5.9-2.8 2-2.9l.9-.1.1-.3c.6.8 1.8 2.4 2.2 3.1.7.9 4.3.7 5.6.3 1.3-.4 1.1-3 .4-3.8-.8-.8-4.9-1-6.2-.7-.7.2-1.3.3-1.8.4l.1-.2c.4-1.4-1.4-7-2.3-8.7-.9-1.6-3.3-3.9-5.2-5.1l-2.2.9c-1.6.7-3.2 1.7-4.8 1.8-2.2.2-3.2 1.2-3.9 3.1v.1c-.4.1-1.4-.8-1.7-1.1-.3-.3.7-1.3 2.1-2.1l1.2-.7 1.2-.6c1.4-.7 2.2-3.4 2-4.3-.1-.9.1-2 .3-2.1.1-.2 4.8 2.5 6.6 3.5 1.7 1 6.7 3.3 8.1 3.6 1.4.3 8.5.2 10.3 1.4 1.8 1.2 7.2 2.8 8.5 2.5 1.3-.3 7.2-1.8 8.1-1.2.9.6-.2 5.1-.8 6.5-.6 1.4-1.6 2.3-1.8 2.2-.2-.1.3-1 .6-1.4.3-.4-3.1-.9-4.3-1-1.2-.1-2.2-.3-2.2-.4 0-.1 1.3-.4 1.9-.4.5-.1-2.6-2.9-3.6-1.9s-2 2.5-2 2.8c0 .2 2.3 1.1 3.2 1.4 4.9 1.3-3.1 4-5.1 3.8.9 3-1.5 6.6-4.6 7 1.9 8.2 3.9 16.4 5.8 24.6.5 2.2-.1 5.6-2.2 5.1 1.9.8 2.9 3.4 1.9 5.3 1.4.7 2.9 1.4 4.3 2.1-1.4 1.8-2.8 3.5-4.1 5.3.9 1.4 2 2.9 3.5 3.4 1.6.5 3.8-.6 3.5-2.3 5.7 2.7 4.5 13-1.7 14.4 10.6 2.2 21.1 4.4 31.7 6.6 0 3.2 1.1 6.4 3.2 8.8.3-1.5.6-3 .8-4.6 2.9 4 2.4 10-1.2 13.4-2.6.6-4.3 3.7-3.4 6.2 2.7.2 5.3-1.9 5.6-4.6 4 1.7 8-2.1 10.6-5.5 6.7-9 12.4-18.9 16.7-29.2.4-1.1 1-2.2 2-2.7 2.6-1.2 7.1 2 7.9-.8 2 .9 3.2 3.3 2.8 5.4 6.6 0 13.2.8 19.6 2.4 1.1-2.5 3.8-4.2 6.5-4.1-.5 5.3-2.2 10.4-4.9 14.9 5.1 3 8.7 8.5 9.3 14.4-1.5-2.1-4.6-2.8-6.8-1.6-2.3 1.2-3.4 4.1-2.6 6.5 3.7 0 6.6 4.4 5.1 7.8 6.4.2 12.6 3.5 16.3 8.7-3.5 2.9-8.9 3.4-12.9 1.1 2.7 3 5.5 6.1 8.2 9.1 1.1-4.2 7.2-4.2 11.1-2.2 3.9 1.9 8 5 12.1 3.6l-6 17.4c-1.7-.6-2.4-3.1-1.2-4.4-3.6 2.3-7.2 4.8-9.2 8.6-2.1 4.1-1.7 9.5 1.1 13.2 9.7.1 18.3-9.9 16.6-19.5 2.6.4 4.8 2.5 5.3 5.1 1.4.9 3.5-.2 4.2-1.8.7-1.6.5-3.4.6-5.1.1-5.4 2.6-10.5 5-15.4.4-.7.8-1.6 1.7-1.7.3-.1.6.1.8.3l-.3.5c.2-.1.3-.3.3-.5.2.2.3.4.3.6 3-6.8 1.7-15.3-3.3-20.8-.2-.3-.7-.4-1-.3 2.2-4.2 4.5-8.5 8.3-11.3 3.9-2.9 9.7-3.8 13.4-.8 1.4-2.7 2.8-5.5 4.2-8.2.4 1.4.8 2.7 1.2 4.1-.1-.9.3-1.7.9-2.2zM371.3 121.5c.3-.1.5-.3.7-.6-.2.2-.4.4-.7.6zm-6.4 64.9c.2-.1.4-.3.4-.7-.1.2-.3.5-.4.7zM488.5 215c0 .3 0 .6-.1 1 .1-.3.3-.5.4-.8-.1-.1-.2-.2-.3-.2zM8.9 188.9c0-.1 0-.1.1-.2-.1.1-.1.1-.1.2zM230.5 92c.1-.2.2-.5.3-.7-.2.2-.3.5-.3.7zM61.7 253c1.2-.7 2.8.3 3.8 1.3s2.3 2.2 3.7 1.8c-.5 3.9.6 8 3 11.2-1.2 1.1-2.3 2.2-3.5 3.3.5 1.1 2.3 1.3 3.3.5s1.5-2.1 1.9-3.3c1.7-5.3 3.5-10.6 5.2-15.9 1.3.6 3 .3 4-.7s1.3-2.7.6-4c-.7.7-1.9.2-2.4-.6s-.4-1.8-.3-2.8c.3-5.1-1.6-10-3.4-14.8 1.4 3.9-4.9 5.5-4.9 5.3.2-.9.1-2.9-.6-2.6-.7.4-2.5.5-2.5-.3-.2-3-3.4-4.9-5-1.6-.5 1-.6 2.3-.9 3.4-1 3.8-4.1 6.8-4.8 10.6-.1.4-.1.7 0 1.2-.1 2.9 1.4 5.5 2.8 8zm55 110.5c-.1 1-.2 2.2.4 3 .5.6 1.3.9 1.8 1.4 1.8 1.7.4 4.7-1.1 6.7-.3-1.2-.3-2.5 0-3.7-2.6-1.4-5.6-2.2-8.6-2 .4.8.7 1.7.5 2.6-.2.8-.9 1.6-1.8 1.6-1.3-.1-2-1.7-3.3-1.8-.7-.1-1.4.4-2 .7-1.7.9-3.8.9-5.6.1 1 2.1 2 4.3 3 6.4-.5-.2-1.1-.2-1.6.1 1.6 1.8 2.7 4 3.1 6.4 1.1.9 2.8 1 3.9.1s1.5-2.5.9-3.8c.8 1.1 2.2 2.4 3.4 1.6.6-.5.8-1.4.8-2.2.1-1.8.1-3.7 0-5.5 1.7-1.1 4.3-.5 5.3 1.2 1.1 1.7.6 4.1 1.9 5.7 1.8 2.3 5.9.7 7-2 1.1-2.6.4-5.7-.1-8.6-.3-1.3 0-3.2 1.3-3.3.1.9 1.5.8 2.1.2.6-.6 1.1-1.6 2-1.7.4-.1.9.1 1.3-.1.6-.3.7-1 .8-1.6.4-3.7.8-7.3.1-10.9-.1-.7-.3-1.4-.2-2.1.1-.6.4-1.2.4-1.8.3-4.8-9.5.8-11.9.3-.5-.1-1-.3-1.5-.1-1.1.5-.9 2.1-.5 3.2s.9 2.5 0 3.3c-.4.3-.9.4-1.4.3-.8-.2-1.6-.8-2.1-1.2 1.2 2.3 1.8 4.9 1.7 7.5zM230 92c.1-.2.2-.4.3-.7-.1.2-.2.5-.3.7zM101.3 326.3c.9 1.2 1.4 2.7 2.3 3.8 5.1 6.2 7.6-10.2 8.2-12.6.1-.5.2-1 .1-1.4-.4-1-2.2-1.7-1.6-2.7.9-.1 1.7-.2 2.5-.3-.1-1.2.8-2.4 2-2.6-1.3-1.5-3.9-1.2-5.4.1-1.5 1.3-2.2 3.2-2.9 5.1-.7-1-1.9-1.6-3.1-1.8-.4 0-.9-.1-1.2-.4-.2-.3-.2-.7-.2-1.1.1-1.8.1-3.5.2-5.3-.7 0-1.2.7-1.2 1.3 0 .7.2 1.3.3 1.9.2 2.3-1.6 4.2-2.8 6.2-.8 1.4-1.3 2.9-1.5 4.5-.1 1.7 0 3.4.5 4.8.9-1.1 2.8-.6 3.8.5z"/></svg>