<svg version="1.1" xmlns="http://www.w3.org/2000/svg" x="0" y="0" viewBox="0 0 512 512" style="enable-background:new 0 0 512 512" xml:space="preserve"><path d="M434.7 53.1c6.3 0 12.4 2.6 16.8 7l45.3 45.3c9.3 9.3 9.4 24.6.1 34.1L184.6 451.8c-4.4 4.5-10.5 7-16.9 7-6.4 0-12.4-2.5-16.9-7.1l-62.2-62.2.1-.1-5.7-5.7-67.9-67.9c-9.4-9.4-9.4-24.6 0-34l45.1-45.3c4.6-4.6 10.6-7.1 17-7.1s12.5 2.5 17 7.1l67.9 67.9 5.7 5.7 5.7-5.7L417.8 60.2c4.5-4.6 10.5-7.1 16.9-7.1m0-8c-8.2 0-16.4 3.1-22.6 9.4L167.8 298.9 99.9 231c-6.3-6.3-14.5-9.4-22.7-9.4s-16.4 3.1-22.7 9.4L9.4 276.3c-12.5 12.5-12.5 32.8 0 45.3l67.9 67.9-.1.1 67.9 67.9c6.3 6.3 14.4 9.4 22.6 9.4s16.4-3.1 22.6-9.4l312.3-312.3c12.4-12.6 12.4-32.9-.1-45.4l-45.3-45.3c-6.1-6.2-14.3-9.4-22.5-9.4z"/></svg>