<svg version="1.1" xmlns="http://www.w3.org/2000/svg" x="0" y="0" viewBox="0 0 512 512" xml:space="preserve"><path d="M434.7 61.1c4.3 0 8.3 1.7 11.3 4.7l45.3 45.3c6.2 6.2 6.3 16.5 0 22.8L179.1 446.2c-3 3-7 4.7-11.3 4.7s-8.3-1.7-11.3-4.7l-56.6-56.6.1-.1-11.3-11.3-67.9-67.9c-3-3-4.7-7-4.7-11.3 0-4.3 1.7-8.3 4.7-11.3L66 242.4c3-3 7-4.7 11.3-4.7s8.3 1.7 11.3 4.7l67.9 67.9 11.3 11.3 11.3-11.3L423.3 65.8c3-3 7.1-4.7 11.4-4.7m0-16c-8.2 0-16.4 3.1-22.6 9.4L167.8 298.9 99.9 231c-6.3-6.3-14.5-9.4-22.7-9.4s-16.4 3.1-22.7 9.4L9.4 276.3c-12.5 12.5-12.5 32.8 0 45.3l67.9 67.9-.1.1 67.9 67.9c6.3 6.3 14.4 9.4 22.6 9.4s16.4-3.1 22.6-9.4l312.3-312.3c12.4-12.6 12.4-32.9-.1-45.4l-45.3-45.3c-6.1-6.2-14.3-9.4-22.5-9.4z"/></svg>