<svg version="1.1" xmlns="http://www.w3.org/2000/svg" x="0" y="0" viewBox="0 0 512 512" xml:space="preserve"><path d="m510.2 236.8-4.6-.4 1.7-1c.4-.2.3-.9-.2-.9l-15.5-1.1c-.8-.1-1.6 0-2.4.2l-4.1 1-4.3-.4.5-2.2.1-.4 20.5-83.9c.3-1.3-.6-2.5-1.9-2.5h-19.2c-2.3 0-4.4 1-5.9 2.6L411.4 218c-6.1 6.8-14.9 10.7-24.1 10.6l-62.5-.6H71c-17.9 0-33.6 4.3-42.5 10.8l-1.2.9c-.4.3-.7.6-1.1.9-.3.3-.7.6-1 .9-2 2-3.5 4.3-4.1 6.6-13 3.8-21.1 9-21.1 14.9 0 10.4 25.5 19 59 20.7v3.3c0 .6.4 1 1 1h1.2c.5 0 1 .2 1.4.6l3.8 3.8c.4.4.6.9.6 1.4v2.5c-2.9.9-5 3.5-5 6.7 0 3.9 3.1 7 7 7s7-3.1 7-7c0-2.8-1.6-5.2-4-6.3V284h82v11c0 2.2 1.8 4 4 4h1c0 1.1.9 1.9 2 1.8l35.4-3.5c1.8-.2 3.3-1.6 3.6-3.4l11.4-2.2c.9-.2 1.6-1 1.6-2V288h22v2c0 .6.4 1 1 1h2v1.9c-3 1.5-5 4.5-5 8.1 0 5 4 9 9 9s9-4 9-9c0-4.3-3-7.9-7-8.8V291h1c.6 0 1-.4 1-1v-2h27.6c3.6 0 7.1-.4 10.6-1.2l12.5-2.8h28c23.5 0 58.5-4.3 94-12 35.5-7.8 86-22.9 86-22.9 2.5-.7 4.6-2.5 5.5-5l1.7-4.6c.4-1.3-.4-2.6-1.7-2.7z"/></svg>