<svg version="1.1" xmlns="http://www.w3.org/2000/svg" x="0" y="0" viewBox="0 0 512 512" xml:space="preserve"><path d="m461 221.9 32.7-76.9h6.3c1.3 0 2.3 1.2 1.9 2.5l-20.5 83.9.1-.6-18.4-4.3c-.9-.3-1.7-1-2.1-1.9-.4-.8-.4-1.8 0-2.7zM158 299h1v.5c0 .1 0 .2.1.2 0 0 0 .1.1.1 0 .1.1.1.1.2l.1.1c0 .1.1.1.1.2l.1.1c.1 0 .1.1.2.1l.1.1c.1 0 .1.1.2.1h.9l35.4-3.5c1.8-.2 3.3-1.6 3.6-3.4l11.4-2.2c.9-.2 1.6-1 1.6-2v-2.1c1.1 0 2-.9 2-2v-2c0-1.1-.9-2-2-2v-2.3c0-1-.7-1.8-1.6-2L200 275c-.3-1.8-1.7-3.2-3.6-3.4l-35.4-3.5h-.2c-1 0-1.8.8-1.8 1.8h-1c-2.2 0-4 1.8-4 4v21c0 2.3 1.8 4.1 4 4.1zm253-62.5h-6c-1.4 0-2.5 1.1-2.5 2.5v20c0 1.4 1.1 2.5 2.5 2.5h6c1.4 0 2.5-1.1 2.5-2.5v-20c0-1.4-1.1-2.5-2.5-2.5zm-340 0h-6c-1.4 0-2.5 1.1-2.5 2.5v20c0 1.4 1.1 2.5 2.5 2.5h6c1.4 0 2.5-1.1 2.5-2.5v-20c0-1.4-1.1-2.5-2.5-2.5zm440.9 2.9-1.7 4.6c-.9 2.5-2.9 4.3-5.5 5 0 0-50.5 15.2-86 22.9-35.5 7.8-70.5 12-94 12h-28l-12.5 2.8c-3.5.8-7 1.2-10.6 1.2H246v2c0 .6-.4 1-1 1h-1v1.2c4 .9 7 4.5 7 8.8 0 5-4 9-9 9s-9-4-9-9c0-3.5 2-6.6 5-8.1V291h-2c-.6 0-1-.4-1-1v-2h-20.4c.8-.5 1.4-1.5 1.4-2.5v-2c0-1.3-.8-2.4-2-2.8v-1.5c0-1.4-1-2.7-2.4-2.9l-10.8-2.1c-.6-1.9-2.3-3.3-4.3-3.5l-35.4-3.5h-.3c-1.2 0-2.2.8-2.6 1.8h-.2c-2.8 0-5 2.2-5 5v10H72v12.7c2.4 1.1 4 3.5 4 6.3 0 3.9-3.1 7-7 7s-7-3.1-7-7c0-3.2 2.1-5.8 5-6.7v-2.5c0-.5-.2-1-.6-1.4l-3.8-3.8c-.4-.4-.9-.6-1.4-.6H60c-.6 0-1-.4-1-1v-3.3C25.5 282 0 273.4 0 263c0-5.9 8.1-11.1 21.2-15 .1-.5.3-1 .6-1.5 1.2.5 2.4 1 3.8 1.4.8.2 1.6 0 2.1-.6l4.8-5.6c.5-.5.2-1.4-.5-1.6-1.2-.4-2.4-.8-3.5-1.3C37.3 232.3 53.1 228 71 228h253.8l62.5.6c9.2.1 17.9-3.8 24.1-10.6l63.5-70.4c1.5-1.7 3.7-2.6 5.9-2.6h11.8l-32.5 76.5c-.5 1.2-.5 2.5 0 3.6s1.5 2 2.7 2.4l18.5 4.3-.5 2.2 4.3.4 4.1-1c.8-.2 1.6-.3 2.4-.2l15.5 1.1c.5 0 .6.7.2.9l-1.7 1 4.6.4c1.3.3 2.1 1.6 1.7 2.8zm-474 2.8c0-.5-.4-.9-.8-1-.3 0-.5-.1-.8-.2-.4-.1-.7.1-1 .3l-5.2 6.1c-.5.6-.2 1.5.6 1.6 2 .4 4.1.6 6.2.7.6 0 1.1-.4 1.1-1v-6.5zm9 3.7c0-2.1-1.7-3.9-3.8-4-.8 0-1.5-.1-2.1-.1-.6-.1-1.1.4-1.1 1v6.2c0 .6.5 1 1 1 1.7 0 3.4-.2 5.1-.4.5-.1.9-.5.9-1v-2.7zM69 299c-2.2 0-4 1.8-4 4s1.8 4 4 4 4-1.8 4-4-1.8-4-4-4zm5.5-60c0-1.9-1.6-3.5-3.5-3.5h-6c-1.9 0-3.5 1.6-3.5 3.5v20c0 1.9 1.6 3.5 3.5 3.5h6c1.9 0 3.5-1.6 3.5-3.5v-20zM89 249c0-1.7-1.1-3-2.5-3s-2.5 1.3-2.5 3 1.1 3 2.5 3 2.5-1.3 2.5-3zm7.2 0c0-1.7-1.1-3-2.5-3s-2.5 1.3-2.5 3 1.1 3 2.5 3 2.5-1.3 2.5-3zm7.2 0c0-1.7-1.1-3-2.5-3s-2.5 1.3-2.5 3 1.1 3 2.5 3 2.5-1.3 2.5-3zm7.2 0c0-1.7-1.1-3-2.5-3s-2.5 1.3-2.5 3 1.1 3 2.5 3 2.5-1.3 2.5-3zm7.3 0c0-1.7-1.1-3-2.5-3s-2.5 1.3-2.5 3 1.1 3 2.5 3c1.3 0 2.5-1.3 2.5-3zm7.2 0c0-1.7-1.1-3-2.5-3s-2.5 1.3-2.5 3 1.1 3 2.5 3 2.5-1.3 2.5-3zm7.2 0c0-1.7-1.1-3-2.5-3s-2.5 1.3-2.5 3 1.1 3 2.5 3 2.5-1.3 2.5-3zm7.2 0c0-1.7-1.1-3-2.5-3s-2.5 1.3-2.5 3 1.1 3 2.5 3 2.5-1.3 2.5-3zm7.2 0c0-1.7-1.1-3-2.5-3s-2.5 1.3-2.5 3 1.1 3 2.5 3 2.5-1.3 2.5-3zm7.2 0c0-1.7-1.1-3-2.5-3s-2.5 1.3-2.5 3 1.1 3 2.5 3 2.5-1.3 2.5-3zm7.2 0c0-1.7-1.1-3-2.5-3s-2.5 1.3-2.5 3 1.1 3 2.5 3 2.5-1.3 2.5-3zm7.3 0c0-1.7-1.1-3-2.5-3s-2.5 1.3-2.5 3 1.1 3 2.5 3c1.3 0 2.5-1.3 2.5-3zm7.2 0c0-1.7-1.1-3-2.5-3s-2.5 1.3-2.5 3 1.1 3 2.5 3 2.5-1.3 2.5-3zm7.2 0c0-1.7-1.1-3-2.5-3s-2.5 1.3-2.5 3 1.1 3 2.5 3 2.5-1.3 2.5-3zm7.2 0c0-1.7-1.1-3-2.5-3s-2.5 1.3-2.5 3 1.1 3 2.5 3 2.5-1.3 2.5-3zm10 0c0-1.7-1.1-3-2.5-3s-2.5 1.3-2.5 3 1.1 3 2.5 3 2.5-1.3 2.5-3zm12 0c0-1.7-1.1-3-2.5-3s-2.5 1.3-2.5 3 1.1 3 2.5 3 2.5-1.3 2.5-3zm8 0c0-1.7-1.1-3-2.5-3s-2.5 1.3-2.5 3 1.1 3 2.5 3 2.5-1.3 2.5-3zm7.1 0c0-1.7-1.1-3-2.5-3s-2.5 1.3-2.5 3 1.1 3 2.5 3 2.5-1.3 2.5-3zm7.2 0c0-1.7-1.1-3-2.5-3s-2.5 1.3-2.5 3 1.1 3 2.5 3c1.3 0 2.5-1.3 2.5-3zm4.6 3c1.4 0 2.5-1.3 2.5-3s-1.1-3-2.5-3-2.5 1.3-2.5 3 1.1 3 2.5 3zm3.1 44c-2.8 0-5 2.2-5 5s2.2 5 5 5 5-2.2 5-5-2.2-5-5-5zm6.5-47c0-1.7-1.1-3-2.5-3s-2.5 1.3-2.5 3 1.1 3 2.5 3 2.5-1.3 2.5-3zm7.2 0c0-1.7-1.1-3-2.5-3s-2.5 1.3-2.5 3 1.1 3 2.5 3c1.3 0 2.5-1.3 2.5-3zm7.1 0c0-1.7-1.1-3-2.5-3s-2.5 1.3-2.5 3 1.1 3 2.5 3 2.5-1.3 2.5-3zm7.1 0c0-1.7-1.1-3-2.5-3s-2.5 1.3-2.5 3 1.1 3 2.5 3 2.5-1.3 2.5-3zm7.1 0c0-1.7-1.1-3-2.5-3s-2.5 1.3-2.5 3c0 1.2.6 2.2 1.4 2.7.9-.1 1.7-.2 2.6-.4.7-.5 1-1.3 1-2.3zm7.2 0c0-1.7-1.1-3-2.5-3s-2.5 1.3-2.5 3c0 .7.2 1.4.6 1.9 1.4-.2 2.7-.3 4.1-.5.2-.4.3-.9.3-1.4zm7.1 0c0-1.7-1.1-3-2.5-3s-2.5 1.3-2.5 3c0 .4.1.8.2 1.2.3 0 .7-.1 1-.1l3.7-.3c.1-.3.1-.5.1-.8zm7.1 0c0-1.7-1.1-3-2.5-3s-2.5 1.3-2.5 3v.6l4.8-.4h.1c.1-.1.1-.2.1-.2zm5.4-2.9c-.2-.1-.5-.1-.7-.1-1.2 0-2.2 1.1-2.5 2.5.3-.1.5-.3.8-.5l2.4-1.9zm8.9 2.9c0-.6-.2-1.2-.4-1.6l-.6.8c-.4.5-.6 1.2-.6 1.8v1.8c.9-.4 1.6-1.5 1.6-2.8zm7.1 0c0-1.7-1.1-3-2.5-3s-2.5 1.3-2.5 3 1.1 3 2.5 3 2.5-1.3 2.5-3zm7.2 0c0-1.7-1.1-3-2.5-3s-2.5 1.3-2.5 3 1.1 3 2.5 3c1.3 0 2.5-1.3 2.5-3zm7.1 0c0-1.7-1.1-3-2.5-3s-2.5 1.3-2.5 3 1.1 3 2.5 3 2.5-1.3 2.5-3zm7.1 0c0-1.7-1.1-3-2.5-3s-2.5 1.3-2.5 3 1.1 3 2.5 3 2.5-1.3 2.5-3zm7.1 0c0-1.7-1.1-3-2.5-3s-2.5 1.3-2.5 3 1.1 3 2.5 3 2.5-1.3 2.5-3zm7.2 0c0-1.7-1.1-3-2.5-3s-2.5 1.3-2.5 3 1.1 3 2.5 3 2.5-1.3 2.5-3zm7.1 0c0-1.7-1.1-3-2.5-3s-2.5 1.3-2.5 3 1.1 3 2.5 3 2.5-1.3 2.5-3zm7.1 0c0-1.7-1.1-3-2.5-3s-2.5 1.3-2.5 3 1.1 3 2.5 3 2.5-1.3 2.5-3zm7.2 0c0-1.7-1.1-3-2.5-3s-2.5 1.3-2.5 3 1.1 3 2.5 3 2.5-1.3 2.5-3zm7.1 0c0-1.7-1.1-3-2.5-3s-2.5 1.3-2.5 3 1.1 3 2.5 3 2.5-1.3 2.5-3zm30.5-10c0-1.9-1.6-3.5-3.5-3.5h-6c-1.9 0-3.5 1.6-3.5 3.5v20c0 1.9 1.6 3.5 3.5 3.5h6c1.9 0 3.5-1.6 3.5-3.5v-20z"/></svg>