<svg version="1.1" xmlns="http://www.w3.org/2000/svg" x="0" y="0" viewBox="0 0 512 512" xml:space="preserve"><path d="M188 318.7c-5 0-9 3.6-9 8s4 8 9 8 9-3.6 9-8-4-8-9-8zm0 11c-1.7 0-3-1.3-3-3s1.3-3 3-3 3 1.3 3 3-1.3 3-3 3zm136-11c-5 0-9 3.6-9 8s4 8 9 8 9-3.6 9-8-4-8-9-8zm0 11c-1.7 0-3-1.3-3-3s1.3-3 3-3 3 1.3 3 3-1.3 3-3 3zM511 259l-10.6 28.7c-2.3 5.5-7.5 9.3-13.5 9.8l-136.7 11.2c-6 .5-11.9.9-17.9 1.1-2.4-1.3-5-2.1-7.8-2.1h-1c-3.1 0-6.1 1-8.7 2.7-4.6.1-9.1.1-13.7 0l-21.1-.3c.7-2.6 1-5.3 1-8.1 0-4.6-1-9-2.7-12.9l65.7-11.5c3.4-.6 6.7-1.4 9.9-2.6l3.9-1.3c2.3-.8 1.5-4.2-.9-3.9l-85.4 9.9c-3.3-2.9-7.2-4.9-11.5-5.7l-1-99.8c0-1.1-.2-2.1-.6-3.1l-1.4-3.4c-.3-.8-1.5-.8-1.8 0l-1.4 3.4c-.4 1-.6 2-.6 3.1l-1 99.8c-4.3.8-8.2 2.8-11.5 5.7l-85.4-9.9c-2.4-.3-3.1 3.1-.9 3.9l3.9 1.3c3.2 1.1 6.5 2 9.9 2.6l65.7 11.5c-1.8 3.9-2.7 8.2-2.7 12.9 0 2.8.4 5.5 1 8.1l-21.1.3c-4.6.1-9.1.1-13.7 0-2.6-1.6-5.6-2.7-8.7-2.7h-1c-2.8 0-5.4.8-7.8 2.1-6-.3-12-.7-17.9-1.1L25 297.5c-6-.5-11.2-4.3-13.5-9.8L1 259c-.2-.6-1.1-.3-.9.3l9.2 30.3c1.9 6.1 7.2 10.5 13.6 11.2l99.8 11.2c-.3.4-.5.8-.5 1.2 0 1.4 1.8 2.5 4 2.5s4-1.1 4-2.5c0-.1 0-.3-.1-.4l29.5 3.3c-.3.3-.4.7-.4 1.1 0 1.4 1.8 2.5 4 2.5s4-1.1 4-2.5v-.2l4.6.5c-1.6 2.4-2.5 4.9-2.5 6.7 0 12.5 8.3 16.5 18.5 16.5h1c10.2 0 18.5-4 18.5-16.5 0-.8-.2-1.8-.6-2.8l2.6.3v11.1c-.9.2-1.5 1-1.5 1.9v8c0 1.1.9 2 2 2h1c1.1 0 2-.9 2-2v-8c0-.9-.6-1.7-1.5-1.9v-10.9l9 1v9.9c-.9.2-1.5 1-1.5 1.9v8c0 1.1.9 2 2 2h1c1.1 0 2-.9 2-2v-8c0-.9-.6-1.7-1.5-1.9v-9.7l2.7.3c1.7.2 3.3.9 4.6 2.1l3.9 3.6c.7.7 1.7 1.1 2.7 1.1H251v3.8c-.7.3-1.3 1-1.3 1.9v6.8c0 1.1.9 2 2 2h.5c1.1 0 2-.9 2-2v-6.8c0-.8-.5-1.6-1.3-1.9v-3.8h6v3.8c-.7.3-1.3 1-1.3 1.9v6.8c0 1.1.9 2 2 2h.5c1.1 0 2-.9 2-2v-6.8c0-.8-.5-1.6-1.3-1.9v-3.8h15.1c1 0 2-.4 2.7-1.1l3.9-3.6c1.3-1.2 2.9-1.9 4.6-2.1l2.7-.3v9.7c-.9.2-1.5 1-1.5 1.9v8c0 1.1.9 2 2 2h1c1.1 0 2-.9 2-2v-8c0-.9-.6-1.7-1.5-1.9v-9.9l9-1v10.9c-.9.2-1.5 1-1.5 1.9v8c0 1.1.9 2 2 2h1c1.1 0 2-.9 2-2v-8c0-.9-.6-1.7-1.5-1.9v-11.1l2.6-.3c-.4 1-.6 2-.6 2.8 0 12.5 8.3 16.5 18.5 16.5h1c10.2 0 18.5-4 18.5-16.5 0-1.8-.9-4.3-2.5-6.7l4.6-.5v.2c0 1.4 1.8 2.5 4 2.5s4-1.1 4-2.5c0-.4-.2-.8-.4-1.1l29.5-3.3c0 .1-.1.3-.1.4 0 1.4 1.8 2.5 4 2.5s4-1.1 4-2.5c0-.4-.2-.9-.5-1.2l99.8-11.2c6.4-.7 11.7-5.1 13.6-11.2l9.2-30.3c.2-.5-.7-.9-1-.3zm-323 77.7c-6.1 0-11-4.5-11-10s4.9-10 11-10 11 4.5 11 10-4.9 10-11 10zm68.6-46h7v5h-7v-5zm-8.1 0h7v5h-7v-5zm-4.1 6.6c-.8.8-2 .8-2.8 0l-.3-.3c-.7-.7-.8-1.9-.1-2.7l1.6-2 2.2 4.5-.6.5zm-1-5.8c.4-.5.9-.7 1.5-.7h2.5v5h-.7c-.4 0-.8.1-1.1.3l-2.2-4.6zm12.6 30.2c-5.2 0-9.5-8.4-9.5-15s4.3-9 9.5-9 9.5 2.4 9.5 9c0 6.7-4.3 15-9.5 15zm9.2-26h-.6v-5h2.5c.6 0 1.2.3 1.6.8l-2.3 4.6c-.4-.2-.8-.4-1.2-.4zm5.5 1.3l-.3.3c-.8.8-2 .8-2.8 0l-.5-.5 2.2-4.5 1.6 2c.6.8.6 2-.2 2.7zm53.3 39.7c-6.1 0-11-4.5-11-10s4.9-10 11-10 11 4.5 11 10-4.9 10-11 10z"/></svg>