<svg version="1.1" xmlns="http://www.w3.org/2000/svg" x="0" y="0" viewBox="0 0 512 512" xml:space="preserve"><path d="m511.1 248-174.5 15.5-50.8 2.2c.8-3.1 1.2-6.4 1.2-9.7 0-5.2-1-10.1-2.8-14.5l55.9-5.3c1.2-.1 2.5-.3 3.7-.6l3.7-.8c.9-.2.7-1.5-.2-1.5l-66 2.5c-4.9-7.9-12.6-13.4-21.5-14.6l-1.8-88.6c0-1.1-.1-2.2-.2-3.3l-.3-2.4c-.2-1.8-2.8-1.8-3 0l-.3 2.4c-.1 1.1-.2 2.2-.2 3.3l-1.8 88.6c-8.9 1.2-16.6 6.7-21.5 14.6l-66-2.5c-.9 0-1.1 1.3-.2 1.5l3.7.8c1.2.3 2.4.5 3.7.6l55.9 5.3c-1.8 4.4-2.8 9.3-2.8 14.5 0 3.4.4 6.7 1.2 9.7l-50.8-2.2L.9 248c-1.2-.1-1.2 1.7 0 2l12 2.7c.8.2 1.7.3 2.5.5.5.1 1 .2 1.5.2.8.1 1.6.3 2.5.4l58.5 6.9c-.1.2-.1.5-.1.8 0 1.7 1.8 3.1 3.9 3.1s3.8-1.3 3.9-3l44.7 5.3c-.3.5-.5 1-.5 1.6 0 1.7 1.8 3.1 3.9 3.1 2.2 0 3.9-1.4 3.9-3.1 0-.2 0-.5-.1-.7l32.3 3.8v3.6c-9 1.5-15.8 8.2-15.8 16.1 0 9.1 8.9 16.5 19.8 16.5 11 0 19.8-7.4 19.8-16.5 0-8-6.8-14.6-15.8-16.1v-2.6l2.8.3c1.4.2 2.8.4 4.2.7l14.4 3.5 1.6 21.1c-.3-.2-.6-.3-1-.3h-2.5c-1.1 0-2 .9-2 2v14.3c0 1.1.9 2 2 2h2.5c1.1 0 2-.9 2-2v-5.5h5.5v5.5c0 1.1.9 2 2 2h2.5c1.1 0 2-.9 2-2v-14.3c0-1.1-.9-2-2-2h-2.5c-.9 0-1.7.6-1.9 1.5l-.3-4.1 15-12.8 3.6.9c.1 4.3 3.6 7.7 8 7.7H251l2.6 2.6c1 .9 1.6 2.3 1.6 3.6v2.2h-1c-.6 0-1 .4-1 1v.8c0 .6.4 1 1 1h1v4.8c0-1.1-.9-2-2-2s-2 .9-2 2v7c0 1.1.9 2 2 2s2-.9 2-2v-2.7h2v2.7c0 1.1.9 2 2 2s2-.9 2-2v-7c0-1.1-.9-2-2-2s-2 .9-2 2v-4.8h1c.6 0 1-.4 1-1v-.8c0-.6-.4-1-1-1h-1v-2.2c0-1.4.6-2.7 1.6-3.6.8-.8 1.8-1.7 2.6-2.6h17.3c4.4 0 7.8-3.5 8-7.7l3.6-.9 15 12.8-.3 4.1c-.2-.9-1-1.5-1.9-1.5h-2.5c-1.1 0-2 .9-2 2v14.3c0 1.1.9 2 2 2h2.5c1.1 0 2-.9 2-2v-5.5h5.5v5.5c0 1.1.9 2 2 2h2.5c1.1 0 2-.9 2-2v-14.3c0-1.1-.9-2-2-2h-2.5c-.4 0-.7.1-1 .3l1.6-21.1 14.4-3.5c1.4-.3 2.8-.6 4.2-.7l2.8-.3v2.6c-9 1.5-15.8 8.2-15.8 16.1 0 9.1 8.9 16.5 19.8 16.5 11 0 19.8-7.4 19.8-16.5 0-8-6.8-14.6-15.8-16.1v-3.6l32.3-3.8c-.1.2-.1.5-.1.7 0 1.7 1.8 3.1 3.9 3.1 2.2 0 3.9-1.4 3.9-3.1 0-.6-.2-1.1-.5-1.6l44.7-5.3c.1 1.7 1.8 3 3.9 3 2.2 0 3.9-1.4 3.9-3.1 0-.3-.1-.5-.1-.8l58.5-6.9c.8-.1 1.7-.2 2.5-.4.5-.1 1-.2 1.5-.2.8-.2 1.7-.3 2.5-.5l12-2.7c.8-.3.8-2.1-.4-2zm-304.4 43.5-1-13 12.7 3-11.7 10zm98.6 0-11.7-9.9 12.7-3-1 12.9z"/></svg>