<svg version="1.1" xmlns="http://www.w3.org/2000/svg" x="0" y="0" viewBox="0 0 512 512" xml:space="preserve"><path d="m470.5 230.3 1-3.8.3-1 19.5-78 .3-1 1.9-7.7c.3-1.2-.6-2.4-1.8-2.5l-7.1-.4c-7.4-.4-14.6 2.6-19.5 8.2l-65.4 75.2c-3.1 3.6-7.7 5.6-12.5 5.5-10.4-.3-21.1-.4-32.2-.4H102.5c-30.2 0-61.5 8-76.5 25-12 10-26 12-26 21.5 0 8.5 18.3 12.9 46 14.9v3.1c0 1.1.9 2 2 2h1.5l3.1 6.1h-.5c-.6 0-1 .4-1.1.9 0 .6.4 1 .9 1.1l1.7.1 1.1 2.2c-2.2.9-3.7 3-3.7 5.6 0 3.3 2.7 6 6 6s6-2.7 6-6c0-2.2-1.2-4.2-3-5.2v-2.1l2.9.2c.6 0 1-.4 1.1-.9 0-.6-.4-1-.9-1.1l-3.1-.2V291c1.1 0 2-.9 2-2v-2.2c12.4.5 26.1.7 40.5.7H154v13.1c0 .9.6 1.6 1.4 1.9l.8.3c6.5 2.2 13.4 3.3 20.2 3.3h9.3c3.5 0 7-.3 10.5-.9l29.1-4.9c1-.2 1.7-1 1.7-2v-10.8h7l2.5 6.2c.3.7 1 1.2 1.8 1.2-3.1 1.6-5.3 4.8-5.3 8.5 0 5.2 4.3 9.5 9.5 9.5s9.5-4.3 9.5-9.5c0-3.7-2.2-6.9-5.3-8.5h2c.7 0 1.1-.6 1-1.3l-1.8-6.2H355c29.1 0 79.3-16.2 101.8-22.8S512 251.5 512 242c0-4.4-15.7-8.5-41.5-11.7z"/></svg>