<svg version="1.1" xmlns="http://www.w3.org/2000/svg" x="0" y="0" viewBox="0 0 512 512" xml:space="preserve"><path d="M474 242.8l-.9-.6c.4.2.7.4.9.6zm35.4 37.8l-1.6 1.2c-2.6 1.9-5.3 3.5-8.1 4.8-.8.3-1.5.7-2.3 1h-.1c-5.1 2-10.6 3-16.1 3H464v-9c0-1.1-.9-2-2-2h-83c-1.1 0-2 .9-2 2v9H158v-9c0-1.1-.9-2-2-2h-25c-1.1 0-2 .9-2 2v9h-10v-9c0-1.1-.9-2-2-2H48c-1.1 0-2 .9-2 2v9H12c-6.6 0-12-5.4-12-12v-48c0-6.6 5.4-12 12-12h379.7c16.9 0 33.6 2.8 49.4 8.3 5 9.9 15.6 16.7 28 16.7 1.9 0 3.7-.2 5.4-.5 4.1 2.7 8.1 5.5 12 8.6.2.2.4.4.7.5.3.2.6.5.9.7l8.6 7 13.2 10.8c1.3 1 2 2.4 2.2 3.9.2 2.1-.7 4.5-2.7 6zM344 253.5c0 1.1.9 2 2 2h5c1.1 0 2-.9 2-2v-14c0-1.1-.9-2-2-2h-5c-1.1 0-2 .9-2 2v14zm-259 0c0 1.1.9 2 2 2h234c1.1 0 2-.9 2-2v-14c0-1.1-.9-2-2-2H87c-1.1 0-2 .9-2 2v14zm342 6H6v4h421v-4zm42-6.5c0-.9-.6-1.7-1.4-1.9-7.8-2.4-45.5-13.6-61.6-13.6h-35c-1.1 0-2 .9-2 2v14c0 1.1.9 2 2 2h60.5c11.7 0 31.2 4.5 36.3 5.7.6.2 1.2-.3 1.2-1V253zM57.5 280.5c-3.6 0-6.5 2.9-6.5 6.5s2.9 6.5 6.5 6.5 6.5-2.9 6.5-6.5-2.9-6.5-6.5-6.5zm50 0c-3.6 0-6.5 2.9-6.5 6.5s2.9 6.5 6.5 6.5 6.5-2.9 6.5-6.5-2.9-6.5-6.5-6.5zm281 0c-3.6 0-6.5 2.9-6.5 6.5s2.9 6.5 6.5 6.5 6.5-2.9 6.5-6.5-2.9-6.5-6.5-6.5zm64 0c-3.6 0-6.5 2.9-6.5 6.5s2.9 6.5 6.5 6.5 6.5-2.9 6.5-6.5-2.9-6.5-6.5-6.5z"/></svg>