<svg version="1.1" xmlns="http://www.w3.org/2000/svg" x="0" y="0" viewBox="0 0 512 512" xml:space="preserve"><path d="M269.6 489.3c-.7-.5-1.4-.9-2.1-1.3-.9-.5-1.9-.8-3-.8h-.5v-78.4c14.4-.5 28.4-2.4 41.9-5.6l-4.1-10.3c-9.1 2.1-18.5 3.5-28 4.3L270 392h-6V25.7c0-4.3-.6-8.5-1.9-12.7-1.7-5.7-4.3-13-6.1-13s-4.4 7.3-6.1 13c-1.3 4.2-1.9 8.4-1.9 12.7V392h-6l-3.7 5.2c-1.6-.1-3.1-.3-4.7-.5-.5-.1-1-.1-1.5-.2-1.6-.2-3.1-.4-4.7-.6-.4 0-.7-.1-1.1-.2l-4.2-.6c-.3-.1-.7-.1-1-.2l-4.8-.9c-.4-.1-.7-.1-1.1-.2-1.7-.3-3.3-.7-4.9-1l-4.1 10.3c1.8.4 3.7.8 5.6 1.2.7.1 1.4.3 2.1.4 1.1.2 2.3.4 3.4.6.9.2 1.8.3 2.7.5.9.2 1.8.3 2.8.4 1.1.2 2.1.3 3.2.5.7.1 1.4.2 2.2.3 1.2.2 2.5.3 3.7.5.3 0 .6.1 1 .1 5 .5 10.1.9 15.2 1.1v78.4h-.5c-1 0-2.1.3-3 .8-.7.4-1.4.9-2.1 1.3-2.9 2-3.4 6.1-1.1 8.8l10.1 11.8c.1.2.3.3.5.5.5.5 1 .8 1.6 1.1.2.1.4.2.6.2l1.2.3h.6c1.7 0 3.4-.7 4.6-2.1l10.1-11.8c2.2-2.6 1.8-6.6-1.1-8.7z"/></svg>