<svg version="1.1" xmlns="http://www.w3.org/2000/svg" x="0" y="0" viewBox="0 0 512 512" xml:space="preserve"><path d="M276 460.8V398c23.9-1.2 47.3-4.5 69.9-9.8l-7.5-25.8c-16.4 3.7-33.1 6.3-50.2 7.7l-7.2-12.8h-5v-311c0-7.7-1.6-15.4-4.7-22.9C267 13.1 260.6 0 256 0s-11 13.1-15.3 23.5c-3.1 7.5-4.7 15.2-4.7 22.9v311h-5.1l-7.2 12.8c-17.1-1.5-33.8-4.1-50.2-7.7l-7.5 25.8c22.6 5.3 46 8.6 69.9 9.8v62.8c-5.8 5.4-9.5 13.1-9.5 21.7 0 16.3 13.2 29.5 29.5 29.5s29.5-13.2 29.5-29.5c.1-8.7-3.6-16.4-9.4-21.8z"/></svg>