<svg xmlns="http://www.w3.org/2000/svg" viewBox="0 0 512 512" xml:space="preserve"><style>.st0{fill:#a18267}.st1{fill:#e0ac7e}.st2{fill:#c99c75}.st5{fill:#ddd}.st6{fill:#79b1d1}.st7{opacity:.2;fill:#fff}.st8{opacity:.15;fill:#444}</style><path class="st0" d="m493 319.9-83 15v-36zm-474 0 83 15v-36z"/><path class="st1" d="M95.5 309h321v203h-321z"/><path class="st0" d="M100 502h312v2H100v-2zm0 10h312v-2H100v2zm0-24h312v-2H100v2zm0 8h312v-2H100v2zm0-24h312v-2H100v2zm0 8h312v-2H100v2zm0-24h312v-2H100v2zm0 8h312v-2H100v2zm0-24h312v-2H100v2zm0 8h312v-2H100v2zm0-24h312v-2H100v2zm0 8h312v-2H100v2zm0-24h312v-2H100v2zm0 8h312v-2H100v2zm0-24h312v-2H100v2zm0 8h312v-2H100v2zm0-24h312v-2H100v2zm0 8h312v-2H100v2zm0-24h312v-2H100v2zm0 8h312v-2H100v2zm0-24h312v-2H100v2zm0 8h312v-2H100v2zm0-24h312v-2H100v2zm0 8h312v-2H100v2z"/><path class="st2" d="M95.5 309h10v203h-10zm311 0h10v203h-10z"/><path fill="#444" d="M95.5 309h321v25h-321z" opacity=".15"/><path class="st2" d="M153 351.8h206V512H153z"/><path class="st5" d="M163 360h186v152H163z"/><path class="st6" d="M178 372.3h156v127.5H178z"/><path class="st7" d="M319.5 372.3h-56.8L178 410.2v74.4z"/><path class="st5" d="M218.5 368.5h15v135h-15zm60 0h15v135h-15z"/><path class="st1" d="m256 9.9-237 310h474z"/><path class="st8" d="M195 125h122v118H195z"/><path class="st5" d="M204.5 146h103v97h-103z"/><path class="st6" d="M211.5 152.6h89V243h-89z"/><path class="st7" d="m295.8 152.6-84.3 37.8V243h23.7l65.3-51.8v-38.6z"/><path class="st5" d="M252.5 151h7v92h-7z"/><path class="st5" d="M208.5 195h95v3h-95z"/><path class="st0" d="m19 319.9 237-310 237 310h7.6l-2.8-3.7-237-310L256 0l-4.8 6.2-237 310-2.8 3.7z"/><path class="st8" d="m251.2 6.2-237 310-2.8 3.7H19l76.5 13.8V512H256V0z"/></svg>