<svg version="1.1" xmlns="http://www.w3.org/2000/svg" x="0" y="0" viewBox="0 0 512 512" xml:space="preserve"><style type="text/css">.st2{fill:#bbb}.st3{fill:#36434f}.st4{fill:#122a3a}</style><path fill="#e0ac7e" d="M0 126.5h512V398H0z"/><path d="M0 134.5h26v7H0zm27 0h26v7H27zm27 0h26v7H54zm27 0h26v7H81zm27 0h26v7h-26zm27 0h26v7h-26zm27 0h26v7h-26zm27 0h26v7h-26zm27 0h26v7h-26zm27 0h26v7h-26zm27 0h26v7h-26zm27 0h26v7h-26zm27 0h26v7h-26zm27 0h26v7h-26zm27 0h26v7h-26zm27 0h26v7h-26zm27 0h26v7h-26zm27 0h26v7h-26zm27 0h26v7h-26zm-486 8h13v7H0zm14 0h26v7H14zm27 0h26v7H41zm27 0h26v7H68zm27 0h26v7H95zm27 0h26v7h-26zm27 0h26v7h-26zm27 0h26v7h-26zm27 0h26v7h-26zm27 0h26v7h-26zm27 0h26v7h-26zm27 0h26v7h-26zm27 0h26v7h-26zm27 0h26v7h-26zm27 0h26v7h-26zm27 0h26v7h-26zm27 0h26v7h-26zm27 0h26v7h-26zm27 0h26v7h-26zm27 0h12v7h-12zm-500 8h26v7H0zm27 0h26v7H27zm27 0h26v7H54zm27 0h26v7H81zm27 0h26v7h-26zm27 0h26v7h-26zm27 0h26v7h-26zm27 0h26v7h-26zm27 0h26v7h-26zm27 0h26v7h-26zm27 0h26v7h-26zm27 0h26v7h-26zm27 0h26v7h-26zm27 0h26v7h-26zm27 0h26v7h-26zm27 0h26v7h-26zm27 0h26v7h-26zm27 0h26v7h-26zm27 0h26v7h-26zm-486 8h13v7H0zm14 0h26v7H14zm27 0h26v7H41zm27 0h26v7H68zm27 0h26v7H95zm27 0h26v7h-26zm27 0h26v7h-26zm27 0h26v7h-26zm27 0h26v7h-26zm27 0h26v7h-26zm27 0h26v7h-26zm27 0h26v7h-26zm27 0h26v7h-26zm27 0h26v7h-26zm27 0h26v7h-26zm27 0h26v7h-26zm27 0h26v7h-26zm27 0h26v7h-26zm27 0h26v7h-26zm27 0h12v7h-12zm-500 8h26v7H0zm27 0h26v7H27zm27 0h26v7H54zm27 0h26v7H81zm27 0h26v7h-26zm27 0h26v7h-26zm27 0h26v7h-26zm27 0h26v7h-26zm27 0h26v7h-26zm27 0h26v7h-26zm27 0h26v7h-26zm27 0h26v7h-26zm27 0h26v7h-26zm27 0h26v7h-26zm27 0h26v7h-26zm27 0h26v7h-26zm27 0h26v7h-26zm27 0h26v7h-26zm27 0h26v7h-26zm-486 8h13v7H0zm14 0h26v7H14zm27 0h26v7H41zm27 0h26v7H68zm27 0h26v7H95zm27 0h26v7h-26zm27 0h26v7h-26zm27 0h26v7h-26zm27 0h26v7h-26zm27 0h26v7h-26zm27 0h26v7h-26zm27 0h26v7h-26zm27 0h26v7h-26zm27 0h26v7h-26zm27 0h26v7h-26zm27 0h26v7h-26zm27 0h26v7h-26zm27 0h26v7h-26zm27 0h26v7h-26zm27 0h12v7h-12zm-500 8h26v7H0zm27 0h26v7H27zm27 0h26v7H54zm27 0h26v7H81zm27 0h26v7h-26zm27 0h26v7h-26zm27 0h26v7h-26zm27 0h26v7h-26zm27 0h26v7h-26zm27 0h26v7h-26zm27 0h26v7h-26zm27 0h26v7h-26zm27 0h26v7h-26zm27 0h26v7h-26zm27 0h26v7h-26zm27 0h26v7h-26zm27 0h26v7h-26zm27 0h26v7h-26zm27 0h26v7h-26zm-486 8h13v7H0zm14 0h26v7H14zm27 0h26v7H41zm27 0h26v7H68zm27 0h26v7H95zm27 0h26v7h-26zm27 0h26v7h-26zm27 0h26v7h-26zm27 0h26v7h-26zm27 0h26v7h-26zm27 0h26v7h-26zm27 0h26v7h-26zm27 0h26v7h-26zm27 0h26v7h-26zm27 0h26v7h-26zm27 0h26v7h-26zm27 0h26v7h-26zm27 0h26v7h-26zm27 0h26v7h-26zm27 0h12v7h-12zm-500 8h26v7H0zm27 0h26v7H27zm27 0h26v7H54zm27 0h26v7H81zm27 0h26v7h-26zm27 0h26v7h-26zm27 0h26v7h-26zm27 0h26v7h-26zm27 0h26v7h-26zm27 0h26v7h-26zm27 0h26v7h-26zm27 0h26v7h-26zm27 0h26v7h-26zm27 0h26v7h-26zm27 0h26v7h-26zm27 0h26v7h-26zm27 0h26v7h-26zm27 0h26v7h-26zm27 0h26v7h-26zm-486 8h13v7H0zm14 0h26v7H14zm27 0h26v7H41zm27 0h26v7H68zm27 0h26v7H95zm27 0h26v7h-26zm27 0h26v7h-26zm27 0h26v7h-26zm27 0h26v7h-26zm27 0h26v7h-26zm27 0h26v7h-26zm27 0h26v7h-26zm27 0h26v7h-26zm27 0h26v7h-26zm27 0h26v7h-26zm27 0h26v7h-26zm27 0h26v7h-26zm27 0h26v7h-26zm27 0h26v7h-26zm27 0h12v7h-12zm-500 8h26v7H0zm27 0h26v7H27zm27 0h26v7H54zm27 0h26v7H81zm27 0h26v7h-26zm27 0h26v7h-26zm27 0h26v7h-26zm27 0h26v7h-26zm27 0h26v7h-26zm27 0h26v7h-26zm27 0h26v7h-26zm27 0h26v7h-26zm27 0h26v7h-26zm27 0h26v7h-26zm27 0h26v7h-26zm27 0h26v7h-26zm27 0h26v7h-26zm27 0h26v7h-26zm27 0h26v7h-26zm-486 8h13v7H0zm14 0h26v7H14zm27 0h26v7H41zm27 0h26v7H68zm27 0h26v7H95zm27 0h26v7h-26zm27 0h26v7h-26zm27 0h26v7h-26zm27 0h26v7h-26zm27 0h26v7h-26zm27 0h26v7h-26zm27 0h26v7h-26zm27 0h26v7h-26zm27 0h26v7h-26zm27 0h26v7h-26zm27 0h26v7h-26zm27 0h26v7h-26zm27 0h26v7h-26zm27 0h26v7h-26zm27 0h12v7h-12zm-500 8h26v7H0zm27 0h26v7H27zm27 0h26v7H54zm27 0h26v7H81zm27 0h26v7h-26zm27 0h26v7h-26zm27 0h26v7h-26zm27 0h26v7h-26zm27 0h26v7h-26zm27 0h26v7h-26zm27 0h26v7h-26zm27 0h26v7h-26zm27 0h26v7h-26zm27 0h26v7h-26zm27 0h26v7h-26zm27 0h26v7h-26zm27 0h26v7h-26zm27 0h26v7h-26zm27 0h26v7h-26zm-486 8h13v7H0zm14 0h26v7H14zm27 0h26v7H41zm27 0h26v7H68zm27 0h26v7H95zm27 0h26v7h-26zm27 0h26v7h-26zm27 0h26v7h-26zm27 0h26v7h-26zm27 0h26v7h-26zm27 0h26v7h-26zm27 0h26v7h-26zm27 0h26v7h-26zm27 0h26v7h-26zm27 0h26v7h-26zm27 0h26v7h-26zm27 0h26v7h-26zm27 0h26v7h-26zm27 0h26v7h-26zm27 0h12v7h-12zm-500 8h26v7H0zm27 0h26v7H27zm27 0h26v7H54zm27 0h26v7H81zm27 0h26v7h-26zm27 0h26v7h-26zm27 0h26v7h-26zm27 0h26v7h-26zm27 0h26v7h-26zm27 0h26v7h-26zm27 0h26v7h-26zm27 0h26v7h-26zm27 0h26v7h-26zm27 0h26v7h-26zm27 0h26v7h-26zm27 0h26v7h-26zm27 0h26v7h-26zm27 0h26v7h-26zm27 0h26v7h-26zm-486 8h13v7H0zm14 0h26v7H14zm27 0h26v7H41zm27 0h26v7H68zm27 0h26v7H95zm27 0h26v7h-26zm27 0h26v7h-26zm27 0h26v7h-26zm27 0h26v7h-26zm27 0h26v7h-26zm27 0h26v7h-26zm27 0h26v7h-26zm27 0h26v7h-26zm27 0h26v7h-26zm27 0h26v7h-26zm27 0h26v7h-26zm27 0h26v7h-26zm27 0h26v7h-26zm27 0h26v7h-26zm27 0h12v7h-12zm-500 8h26v7H0zm27 0h26v7H27zm27 0h26v7H54zm27 0h26v7H81zm27 0h26v7h-26zm27 0h26v7h-26zm27 0h26v7h-26zm27 0h26v7h-26zm27 0h26v7h-26zm27 0h26v7h-26zm27 0h26v7h-26zm27 0h26v7h-26zm27 0h26v7h-26zm27 0h26v7h-26zm27 0h26v7h-26zm27 0h26v7h-26zm27 0h26v7h-26zm27 0h26v7h-26zm27 0h26v7h-26zm-486 8h13v7H0zm14 0h26v7H14zm27 0h26v7H41zm27 0h26v7H68zm27 0h26v7H95zm27 0h26v7h-26zm27 0h26v7h-26zm27 0h26v7h-26zm27 0h26v7h-26zm27 0h26v7h-26zm27 0h26v7h-26zm27 0h26v7h-26zm27 0h26v7h-26zm27 0h26v7h-26zm27 0h26v7h-26zm27 0h26v7h-26zm27 0h26v7h-26zm27 0h26v7h-26zm27 0h26v7h-26zm27 0h12v7h-12zm-500 8h26v7H0zm27 0h26v7H27zm27 0h26v7H54zm27 0h26v7H81zm27 0h26v7h-26zm27 0h26v7h-26zm27 0h26v7h-26zm27 0h26v7h-26zm27 0h26v7h-26zm27 0h26v7h-26zm27 0h26v7h-26zm27 0h26v7h-26zm27 0h26v7h-26zm27 0h26v7h-26zm27 0h26v7h-26zm27 0h26v7h-26zm27 0h26v7h-26zm27 0h26v7h-26zm27 0h26v7h-26zm-486 8h13v7H0zm14 0h26v7H14zm27 0h26v7H41zm27 0h26v7H68zm27 0h26v7H95zm27 0h26v7h-26zm27 0h26v7h-26zm27 0h26v7h-26zm27 0h26v7h-26zm27 0h26v7h-26zm27 0h26v7h-26zm27 0h26v7h-26zm27 0h26v7h-26zm27 0h26v7h-26zm27 0h26v7h-26zm27 0h26v7h-26zm27 0h26v7h-26zm27 0h26v7h-26zm27 0h26v7h-26zm27 0h12v7h-12zm-500 8h26v7H0zm27 0h26v7H27zm27 0h26v7H54zm27 0h26v7H81zm27 0h26v7h-26zm27 0h26v7h-26zm27 0h26v7h-26zm27 0h26v7h-26zm27 0h26v7h-26zm27 0h26v7h-26zm27 0h26v7h-26zm27 0h26v7h-26zm27 0h26v7h-26zm27 0h26v7h-26zm27 0h26v7h-26zm27 0h26v7h-26zm27 0h26v7h-26zm27 0h26v7h-26zm27 0h26v7h-26zm-486 8h13v7H0zm14 0h26v7H14zm27 0h26v7H41zm27 0h26v7H68zm27 0h26v7H95zm27 0h26v7h-26zm27 0h26v7h-26zm27 0h26v7h-26zm27 0h26v7h-26zm27 0h26v7h-26zm27 0h26v7h-26zm27 0h26v7h-26zm27 0h26v7h-26zm27 0h26v7h-26zm27 0h26v7h-26zm27 0h26v7h-26zm27 0h26v7h-26zm27 0h26v7h-26zm27 0h26v7h-26zm27 0h12v7h-12zm-500 8h26v7H0zm27 0h26v7H27zm27 0h26v7H54zm27 0h26v7H81zm27 0h26v7h-26zm27 0h26v7h-26zm27 0h26v7h-26zm27 0h26v7h-26zm27 0h26v7h-26zm27 0h26v7h-26zm27 0h26v7h-26zm27 0h26v7h-26zm27 0h26v7h-26zm27 0h26v7h-26zm27 0h26v7h-26zm27 0h26v7h-26zm27 0h26v7h-26zm27 0h26v7h-26zm27 0h26v7h-26zm-486 8h13v7H0zm14 0h26v7H14zm27 0h26v7H41zm27 0h26v7H68zm27 0h26v7H95zm27 0h26v7h-26zm27 0h26v7h-26zm27 0h26v7h-26zm27 0h26v7h-26zm27 0h26v7h-26zm27 0h26v7h-26zm27 0h26v7h-26zm27 0h26v7h-26zm27 0h26v7h-26zm27 0h26v7h-26zm27 0h26v7h-26zm27 0h26v7h-26zm27 0h26v7h-26zm27 0h26v7h-26zm27 0h12v7h-12zm-500 8h26v7H0zm27 0h26v7H27zm27 0h26v7H54zm27 0h26v7H81zm27 0h26v7h-26zm27 0h26v7h-26zm27 0h26v7h-26zm27 0h26v7h-26zm27 0h26v7h-26zm27 0h26v7h-26zm27 0h26v7h-26zm27 0h26v7h-26zm27 0h26v7h-26zm27 0h26v7h-26zm27 0h26v7h-26zm27 0h26v7h-26zm27 0h26v7h-26zm27 0h26v7h-26zm27 0h26v7h-26zm-486 8h13v7H0zm14 0h26v7H14zm27 0h26v7H41zm27 0h26v7H68zm27 0h26v7H95zm27 0h26v7h-26zm27 0h26v7h-26zm27 0h26v7h-26zm27 0h26v7h-26zm27 0h26v7h-26zm27 0h26v7h-26zm27 0h26v7h-26zm27 0h26v7h-26zm27 0h26v7h-26zm27 0h26v7h-26zm27 0h26v7h-26zm27 0h26v7h-26zm27 0h26v7h-26zm27 0h26v7h-26zm27 0h12v7h-12zm-500 8h26v7H0zm27 0h26v7H27zm27 0h26v7H54zm27 0h26v7H81zm27 0h26v7h-26zm27 0h26v7h-26zm27 0h26v7h-26zm27 0h26v7h-26zm27 0h26v7h-26zm27 0h26v7h-26zm27 0h26v7h-26zm27 0h26v7h-26zm27 0h26v7h-26zm27 0h26v7h-26zm27 0h26v7h-26zm27 0h26v7h-26zm27 0h26v7h-26zm27 0h26v7h-26zm27 0h26v7h-26zm-486 8h13v7H0zm14 0h26v7H14zm27 0h26v7H41zm27 0h26v7H68zm27 0h26v7H95zm27 0h26v7h-26zm27 0h26v7h-26zm27 0h26v7h-26zm27 0h26v7h-26zm27 0h26v7h-26zm27 0h26v7h-26zm27 0h26v7h-26zm27 0h26v7h-26zm27 0h26v7h-26zm27 0h26v7h-26zm27 0h26v7h-26zm27 0h26v7h-26zm27 0h26v7h-26zm27 0h26v7h-26zm27 0h12v7h-12zm-500 8h26v7H0zm27 0h26v7H27zm27 0h26v7H54zm27 0h26v7H81zm27 0h26v7h-26zm27 0h26v7h-26zm27 0h26v7h-26zm27 0h26v7h-26zm27 0h26v7h-26zm27 0h26v7h-26zm27 0h26v7h-26zm27 0h26v7h-26zm27 0h26v7h-26zm27 0h26v7h-26zm27 0h26v7h-26zm27 0h26v7h-26zm27 0h26v7h-26zm27 0h26v7h-26zm27 0h26v7h-26zm-486 8h13v7H0zm14 0h26v7H14zm27 0h26v7H41zm27 0h26v7H68zm27 0h26v7H95zm27 0h26v7h-26zm27 0h26v7h-26zm27 0h26v7h-26zm27 0h26v7h-26zm27 0h26v7h-26zm27 0h26v7h-26zm27 0h26v7h-26zm27 0h26v7h-26zm27 0h26v7h-26zm27 0h26v7h-26zm27 0h26v7h-26zm27 0h26v7h-26zm27 0h26v7h-26zm27 0h26v7h-26zm27 0h12v7h-12zm-500 8h26v7H0zm27 0h26v7H27zm27 0h26v7H54zm27 0h26v7H81zm27 0h26v7h-26zm27 0h26v7h-26zm27 0h26v7h-26zm27 0h26v7h-26zm27 0h26v7h-26zm27 0h26v7h-26zm27 0h26v7h-26zm27 0h26v7h-26zm27 0h26v7h-26zm27 0h26v7h-26zm27 0h26v7h-26zm27 0h26v7h-26zm27 0h26v7h-26zm27 0h26v7h-26zm27 0h26v7h-26zm-486 8h13v7H0zm14 0h26v7H14zm27 0h26v7H41zm27 0h26v7H68zm27 0h26v7H95zm27 0h26v7h-26zm27 0h26v7h-26zm27 0h26v7h-26zm27 0h26v7h-26zm27 0h26v7h-26zm27 0h26v7h-26zm27 0h26v7h-26zm27 0h26v7h-26zm27 0h26v7h-26zm27 0h26v7h-26zm27 0h26v7h-26zm27 0h26v7h-26zm27 0h26v7h-26zm27 0h26v7h-26zm27 0h12v7h-12zM0 126.5h13v7H0zm14 0h26v7H14zm27 0h26v7H41zm27 0h26v7H68zm27 0h26v7H95zm27 0h26v7h-26zm27 0h26v7h-26zm27 0h26v7h-26zm27 0h26v7h-26zm27 0h26v7h-26zm27 0h26v7h-26zm27 0h26v7h-26zm27 0h26v7h-26zm27 0h26v7h-26zm27 0h26v7h-26zm27 0h26v7h-26zm27 0h26v7h-26zm27 0h26v7h-26zm27 0h26v7h-26zm27 0h12v7h-12z" fill="#a18267"/><path class="st2" d="M0 390.5h512v15H0z"/><path class="st3" d="M81 206.5h107v199H81z"/><path class="st2" d="M54 198.5h161v7H54z"/><path class="st4" d="M172 289c-1.1 0-2-.9-2-2v-11c0-1.1.9-2 2-2s2 .9 2 2v11c0 1.1-.9 2-2 2z"/><path class="st4" d="M87.5 213v192.5H89v-191h91v191h1.5V213z"/><path class="st2" d="M385.5 237.5h-19c-1.1 0-2-.9-2-2v-19c0-1.1.9-2 2-2h19c1.1 0 2 .9 2 2v19c0 1.1-.9 2-2 2z"/><circle class="st3" cx="376" cy="226" r="10"/><path d="M7 109.5H2l-2 5h9zm22.9 0h-5l-2 5h9zm22.8 0h-5l-2 5h9zm22.9 0h-5l-2 5h9zm22.9 0h-5l-2 5h9zm22.8 0h-5l-2 5h9zm22.9 0h-5l-2 5h9zm22.8 0h-5l-2 5h9zm22.9 0h-5l-2 5h9zm22.9 0h-5l-2 5h9zm22.8 0h-5l-2 5h9zm22.9 0h-5l-2 5h9zm22.9 0h-5l-2 5h9zm22.8 0h-5l-2 5h9zm22.9 0h-5l-2 5h9zm22.9 0h-5l-2 5h9zm22.8 0h-5l-2 5h9zm22.9 0h-5l-2 5h9zm22.8 0h-5l-2 5h9zm22.9 0h-5l-2 5h9zm22.9 0h-5l-2 5h9zm22.8 0h-5l-2 5h9zm22.9 0h-5l-2 5h9zm-510 5h512v12H0z" fill="#ad403b"/><path opacity=".3" fill="#444" d="M0 119h512v7.5H0z"/><path opacity=".15" fill="#444" d="M508 109.5h-3l-2 5h-13.9l-2-5h-5l-2 5h-13.8l-2-5h-5l-2 5h-13.9l-2-5h-5l-2 5h-13.9l-2-5h-5l-2 5h-13.8l-2-5h-5l-2 5h-13.9l-2-5h-5l-2 5H352l-2-5h-5l-2 5h-13.9l-2-5h-5l-2 5h-13.9l-2-5h-5l-2 5h-13.8l-2-5h-5l-2 5h-13.9l-2-5h-5l-2 5h-13.9l-2-5h-5l-2 5h-13.8l-2-5h-5l-2 5h-13.9l-2-5h-5l-2 5H169l-2-5h-5l-2 5h-13.8l-2-5h-5l-2 5h-13.9l-2-5h-5l-2 5h-13.8l-2-5h-5l-2 5H77.6l-2-5h-5l-2 5H54.7l-2-5h-5l-2 5H31.9l-2-5h-5l-2 5H9l-2-5H2l-2 5v40.4l512 139.6v-180l-2-5z"/></svg>