<svg version="1.1" xmlns="http://www.w3.org/2000/svg" x="0" y="0" viewBox="0 0 512 512" xml:space="preserve"><style type="text/css">.st0{fill:#bbb}.st1{fill:#ddd}.st2{fill:#4caf50}.st3{fill:#36434f}.st4{fill:#f4f4f4}.st5{fill:#826049}</style><path class="st0" d="M0 167h78v185H0z"/><path class="st1" d="M78 175h356v171H78z"/><path class="st0" d="M434 167h78v185h-78z"/><path class="st2" d="M0 167h78v18H0zm434 0h78v18h-78zm-356 8h356v15H78zm93.3 15h31v156h-31z"/><path class="st3" d="M181.8 203h-6v-4h6v4zm16-4h-6v4h6v-4zm-16 19h-6v-4h6v4zm16-4h-6v4h6v-4zm-16 19h-6v-4h6v4zm16-4h-6v4h6v-4zm-16 19h-6v-4h6v4zm16-4h-6v4h6v-4zm-16 19h-6v-4h6v4zm16-4h-6v4h6v-4zm-16 19h-6v-4h6v4zm16-4h-6v4h6v-4zm-16 19h-6v-4h6v4zm16-4h-6v4h6v-4zm-16 19h-6v-4h6v4zm16-4h-6v4h6v-4zm-16 19h-6v-4h6v4zm16-4h-6v4h6v-4z"/><path class="st4" d="M193.7 179h-3.9v1h-1v1h-4v-1h-1v-1h-4l-8.5 5v6h31v-6z"/><path class="st2" d="M94.3 199h18v6h-18z"/><path class="st3" d="M94.3 190h18v9h-18zm23 2h6v8h-6z"/><path class="st2" d="M94.3 214h18v6h-18z"/><path class="st3" d="M94.3 205h18v9h-18zm23 2h6v8h-6z"/><path class="st2" d="M94.3 229h18v6h-18z"/><path class="st3" d="M94.3 220h18v9h-18zm23 2h6v8h-6z"/><path class="st2" d="M94.3 244h18v6h-18z"/><path class="st3" d="M94.3 235h18v9h-18zm23 2h6v8h-6z"/><path class="st2" d="M94.3 259h18v6h-18z"/><path class="st3" d="M94.3 250h18v9h-18zm23 2h6v8h-6z"/><path class="st2" d="M94.3 274h18v6h-18z"/><path class="st3" d="M94.3 265h18v9h-18zm23 2h6v8h-6z"/><path class="st2" d="M94.3 289h18v6h-18z"/><path class="st3" d="M94.3 280h18v9h-18zm23 2h6v8h-6z"/><path class="st2" d="M94.3 304h18v6h-18z"/><path class="st3" d="M94.3 295h18v9h-18zm23 2h6v8h-6z"/><path class="st2" d="M94.3 319h18v6h-18z"/><path class="st3" d="M94.3 310h18v9h-18zm23 2h6v8h-6z"/><path class="st2" d="M128.3 199h26v6h-26z"/><path class="st3" d="M128.3 190h26v9h-26zm31 2h6v8h-6z"/><path class="st2" d="M128.3 214h26v6h-26z"/><path class="st3" d="M128.3 205h26v9h-26zm31 2h6v8h-6z"/><path class="st2" d="M128.3 229h26v6h-26z"/><path class="st3" d="M128.3 220h26v9h-26zm31 2h6v8h-6z"/><path class="st2" d="M128.3 244h26v6h-26z"/><path class="st3" d="M128.3 235h26v9h-26zm31 2h6v8h-6z"/><path class="st2" d="M128.3 259h26v6h-26z"/><path class="st3" d="M128.3 250h26v9h-26zm31 2h6v8h-6z"/><path class="st2" d="M128.3 274h26v6h-26z"/><path class="st3" d="M128.3 265h26v9h-26zm31 2h6v8h-6z"/><path class="st2" d="M128.3 289h26v6h-26z"/><path class="st3" d="M128.3 280h26v9h-26zm31 2h6v8h-6z"/><path class="st2" d="M128.3 304h26v6h-26z"/><path class="st3" d="M128.3 295h26v9h-26zm31 2h6v8h-6z"/><path class="st2" d="M128.3 319h26v6h-26z"/><path class="st3" d="M128.3 310h26v9h-26zm31 2h6v8h-6zm-42 15h6v8h-6z"/><path class="st5" d="M98.8 331h9v15h-9z"/><path class="st3" d="M159.3 327h6v8h-6zm-24 0h12v8h-12z"/><path class="st5" d="M173.3 331h27v15h-27z"/><path class="st3" d="M91.8 199h-6v4h6v-4zm0 15h-6v4h6v-4zm0 15h-6v4h6v-4zm0 15h-6v4h6v-4zm0 15h-6v4h6v-4zm0 15h-6v4h6v-4zm0 15h-6v4h6v-4zm0 15h-6v4h6v-4zm0 15h-6v4h6v-4zm115.5-127h6v8h-6zm0 15h6v8h-6zm0 15h6v8h-6zm0 15h6v8h-6zm0 15h6v8h-6zm0 15h6v8h-6zm0 15h6v8h-6zm0 15h6v8h-6zm0 15h6v8h-6z"/><path class="st2" d="M218.3 199h26v6h-26z"/><path class="st3" d="M218.3 190h26v9h-26zm31 2h6v8h-6z"/><path class="st2" d="M218.3 214h26v6h-26z"/><path class="st3" d="M218.3 205h26v9h-26zm31 2h6v8h-6z"/><path class="st2" d="M218.3 229h26v6h-26z"/><path class="st3" d="M218.3 220h26v9h-26zm31 2h6v8h-6z"/><path class="st2" d="M218.3 244h26v6h-26z"/><path class="st3" d="M218.3 235h26v9h-26zm31 2h6v8h-6z"/><path class="st2" d="M218.3 259h26v6h-26z"/><path class="st3" d="M218.3 250h26v9h-26zm31 2h6v8h-6z"/><path class="st2" d="M218.3 274h26v6h-26z"/><path class="st3" d="M218.3 265h26v9h-26zm31 2h6v8h-6z"/><path class="st2" d="M218.3 289h26v6h-26z"/><path class="st3" d="M218.3 280h26v9h-26zm31 2h6v8h-6z"/><path class="st2" d="M218.3 304h26v6h-26z"/><path class="st3" d="M218.3 295h26v9h-26zm31 2h6v8h-6z"/><path class="st2" d="M218.3 319h26v6h-26z"/><path class="st3" d="M218.3 310h26v9h-26zm31 2h6v8h-6zm0 15h6v8h-6zm-24 0h12v8h-12z"/><path class="st2" d="M321.3 190h31v156h-31z"/><path class="st3" d="M331.8 203h-6v-4h6v4zm16-4h-6v4h6v-4zm-16 19h-6v-4h6v4zm16-4h-6v4h6v-4zm-16 19h-6v-4h6v4zm16-4h-6v4h6v-4zm-16 19h-6v-4h6v4zm16-4h-6v4h6v-4zm-16 19h-6v-4h6v4zm16-4h-6v4h6v-4zm-16 19h-6v-4h6v4zm16-4h-6v4h6v-4zm-16 19h-6v-4h6v4zm16-4h-6v4h6v-4zm-16 19h-6v-4h6v4zm16-4h-6v4h6v-4zm-16 19h-6v-4h6v4zm16-4h-6v4h6v-4z"/><path class="st4" d="M343.7 179h-3.9v1h-1v1h-4v-1h-1v-1h-4l-8.5 5v6h31v-6z"/><path class="st3" d="M267.3 192h6v8h-6zm0 15h6v8h-6zm0 15h6v8h-6zm0 15h6v8h-6zm0 15h6v8h-6zm0 15h6v8h-6zm0 15h6v8h-6zm0 15h6v8h-6zm0 15h6v8h-6z"/><path class="st2" d="M278.3 199h26v6h-26z"/><path class="st3" d="M278.3 190h26v9h-26zm31 2h6v8h-6z"/><path class="st2" d="M278.3 214h26v6h-26z"/><path class="st3" d="M278.3 205h26v9h-26zm31 2h6v8h-6z"/><path class="st2" d="M278.3 229h26v6h-26z"/><path class="st3" d="M278.3 220h26v9h-26zm31 2h6v8h-6z"/><path class="st2" d="M278.3 244h26v6h-26z"/><path class="st3" d="M278.3 235h26v9h-26zm31 2h6v8h-6z"/><path class="st2" d="M278.3 259h26v6h-26z"/><path class="st3" d="M278.3 250h26v9h-26zm31 2h6v8h-6z"/><path class="st2" d="M278.3 274h26v6h-26z"/><path class="st3" d="M278.3 265h26v9h-26zm31 2h6v8h-6z"/><path class="st2" d="M278.3 289h26v6h-26z"/><path class="st3" d="M278.3 280h26v9h-26zm31 2h6v8h-6z"/><path class="st2" d="M278.3 304h26v6h-26z"/><path class="st3" d="M278.3 295h26v9h-26zm31 2h6v8h-6z"/><path class="st2" d="M278.3 319h26v6h-26z"/><path class="st3" d="M278.3 310h26v9h-26zm31 2h6v8h-6zm0 15h6v8h-6zm-24 0h12v8h-12z"/><path class="st5" d="M323.3 331h27v15h-27z"/><path class="st3" d="M357.3 192h6v8h-6zm0 15h6v8h-6zm0 15h6v8h-6zm0 15h6v8h-6zm0 15h6v8h-6zm0 15h6v8h-6zm0 15h6v8h-6zm0 15h6v8h-6zm0 15h6v8h-6z"/><path class="st2" d="M368.3 199h26v6h-26z"/><path class="st3" d="M368.3 190h26v9h-26zm31 2h6v8h-6z"/><path class="st2" d="M368.3 214h26v6h-26z"/><path class="st3" d="M368.3 205h26v9h-26zm31 2h6v8h-6z"/><path class="st2" d="M368.3 229h26v6h-26z"/><path class="st3" d="M368.3 220h26v9h-26zm31 2h6v8h-6z"/><path class="st2" d="M368.3 244h26v6h-26z"/><path class="st3" d="M368.3 235h26v9h-26zm31 2h6v8h-6z"/><path class="st2" d="M368.3 259h26v6h-26z"/><path class="st3" d="M368.3 250h26v9h-26zm31 2h6v8h-6z"/><path class="st2" d="M368.3 274h26v6h-26z"/><path class="st3" d="M368.3 265h26v9h-26zm31 2h6v8h-6z"/><path class="st2" d="M368.3 289h26v6h-26z"/><path class="st3" d="M368.3 280h26v9h-26zm31 2h6v8h-6z"/><path class="st2" d="M368.3 304h26v6h-26z"/><path class="st3" d="M368.3 295h26v9h-26zm31 2h6v8h-6z"/><path class="st2" d="M368.3 319h26v6h-26z"/><path class="st3" d="M368.3 310h26v9h-26zm31 2h6v8h-6zm0 15h6v8h-6zm-24 0h12v8h-12zm39-135h12v8h-12zm0 15h12v8h-12zm0 15h12v8h-12zm0 15h12v8h-12zm0 15h12v8h-12zm0 15h12v8h-12zm0 15h12v8h-12zm0 15h12v8h-12zm0 15h12v8h-12zm0 15h12v8h-12z"/><path class="st5" d="M355.8 331h9v15h-9zm-150 0h9v15h-9zm60 0h9v15h-9z"/><path class="st1" d="M100.8 165h5v10h-5z"/><path class="st3" d="M100.8 162h5v2h-5z"/><path class="st1" d="M159.8 165h5v10h-5z"/><path class="st3" d="M159.8 162h5v2h-5z"/><path class="st1" d="M207.8 165h5v10h-5z"/><path class="st3" d="M207.8 162h5v2h-5z"/><path class="st1" d="M309.8 165h5v10h-5z"/><path class="st3" d="M309.8 162h5v2h-5z"/><path class="st1" d="M357.8 165h5v10h-5z"/><path class="st3" d="M357.8 162h5v2h-5z"/><path class="st1" d="M117.8 171h5v4h-5z"/><path class="st3" d="M117.8 168h5v2h-5z"/><path class="st1" d="M192.3 171h5v4h-5z"/><path class="st3" d="M192.3 168h5v2h-5z"/><path class="st1" d="M249.8 171h5v4h-5z"/><path class="st3" d="M249.8 168h5v2h-5z"/><path class="st1" d="M267.8 171h5v4h-5z"/><path class="st3" d="M267.8 168h5v2h-5z"/><path class="st1" d="M326.3 171h5v4h-5z"/><path class="st3" d="M326.3 168h5v2h-5z"/><path class="st1" d="M378.8 171h5v4h-5z"/><path class="st3" d="M378.8 168h5v2h-5z"/><path class="st1" d="M417.8 171h5v4h-5z"/><path class="st3" d="M417.8 168h5v2h-5z"/><path class="st1" d="M36.5 163h5v4h-5z"/><path class="st3" d="M36.5 160h5v2h-5z"/><path class="st1" d="M470.5 163h5v4h-5z"/><path class="st3" d="M470.5 160h5v2h-5z"/><path d="M78 234L0 199v153h78zm356 112v-11l-172-30v-28L78 222v124z" opacity=".15" fill="#444"/></svg>