<svg xmlns="http://www.w3.org/2000/svg" viewBox="0 0 512 512" xml:space="preserve"><style>.st1{fill:#856f5c}.st2{fill:#36434f}.st3{fill:#2e86b7}.st5{fill:#e0ac7e}.st6{fill:#bbb}</style><path fill="#ddd" d="M37 192.2h438V336H37z"/><path class="st1" d="M37 334.2h438v7H37z"/><path class="st2" d="M42.5 217.2h27v23h-27z"/><path class="st3" d="M42.5 199.2h27v8h-27z"/><path class="st2" d="M42.5 257.2h27v23h-27zm0 40h27v23h-27zm36.4-80h27v23h-27z"/><path class="st3" d="M78.9 199.2h27v8h-27z"/><path class="st2" d="M78.9 257.2h27v23h-27zm0 40h27v23h-27zm36.3-80h27v23h-27z"/><path class="st3" d="M115.2 199.2h27v8h-27z"/><path class="st2" d="M115.2 257.2h27v23h-27zm36.4-40h27v23h-27z"/><path class="st3" d="M151.6 199.2h27v8h-27z"/><path class="st2" d="M151.6 257.2h27v23h-27zm36.4-40h27v23h-27z"/><path class="st3" d="M188 199.2h27v8h-27z"/><path class="st2" d="M188 257.2h27v23h-27zm0 40h27v23h-27zm36.3-80h27v23h-27z"/><path class="st3" d="M224.3 199.2h27v8h-27z"/><path class="st2" d="M224.3 257.2h27v23h-27zm0 40h27v23h-27zm36.4-80h27v23h-27z"/><path class="st3" d="M260.7 199.2h27v8h-27z"/><path class="st2" d="M260.7 257.2h27v23h-27zm0 40h27v23h-27zm36.3-80h27v23h-27z"/><path class="st3" d="M297 199.2h27v8h-27z"/><path class="st2" d="M297 257.2h27v23h-27zm0 40h27v23h-27zm36.4-80h27v23h-27z"/><path class="st3" d="M333.4 199.2h27v8h-27z"/><path class="st2" d="M333.4 257.2h27v23h-27zm36.4-40h27v23h-27z"/><path class="st3" d="M369.8 199.2h27v8h-27z"/><path class="st2" d="M369.8 257.2h27v23h-27zm36.3-40h27v23h-27z"/><path class="st3" d="M406.1 199.2h27v8h-27z"/><path class="st2" d="M406.1 257.2h27v23h-27zm0 40h27v23h-27zm36.4-80h27v23h-27z"/><path class="st3" d="M442.5 199.2h27v8h-27z"/><path class="st2" d="M442.5 257.2h27v23h-27zm0 40h27v23h-27z"/><path d="m0 165.5 37 26.7v149l-37 4zm512 0-37 26.7v149l37 4z" fill="#c6c6c6"/><path class="st1" d="M109.9 301.2h34v33h-34z"/><path class="st5" d="M111.9 304.2h5v25h-5zm25 0h5v25h-5z"/><path class="st1" d="M149.9 301.2h34v33h-34z"/><path class="st5" d="M151.9 304.2h5v25h-5zm25 0h5v25h-5z"/><path class="st1" d="M328.1 301.2h34v33h-34z"/><path class="st5" d="M330.1 304.2h5v25h-5zm25 0h5v25h-5z"/><path class="st1" d="M368.1 301.2h34v33h-34z"/><path class="st5" d="M370.1 304.2h5v25h-5zm25 0h5v25h-5z"/><path class="st6" d="M74.3 334.2h363.5v12.3H74.3z"/><path class="st6" d="M74.3 328.7h8.9v17.8h-8.9zm354.6 0h8.9v17.8h-8.9z"/><path class="st2" d="M141.5 291.4h10.8v8.2h-10.8z"/><path opacity=".15" fill="#444" d="M436.4 346.5 37 245.2 0 231.8v113.4l37-4h37.3v5.3h354.6z"/></svg>