<svg xmlns="http://www.w3.org/2000/svg" viewBox="0 0 512 512" xml:space="preserve"><style>.st2{opacity:.15;fill:#444}</style><path d="M286.4 149.9 268 66V52l14.4-46.8c.8-2.6-1.1-5.2-3.8-5.2h-.3C271.5 3.2 264 5 256 5s-15.5-1.8-22.3-5h-.3c-2.7 0-4.6 2.6-3.8 5.2L244 52v14l-18.4 83.9c-1.8 8-2.7 16.2-2.9 24.5L216 474l40 38 40-38-6.7-299.6c-.2-8.3-1.2-16.5-2.9-24.5z" fill="#cc584c"/><path d="m289.6 190.9-68.8 68.8.2-7.2 68.5-68.5.1 6.9zM272.7 87.6l-42.8 42.8-2 9.1L274 93.4l-1.3-5.8zm-40.8 33.8 39.6-39.6-1.3-5.8-36.3 36.3-2 9.1zm48.4 1-57.7 57.7-.2 7.2 59.2-59.2-1.3-5.7zm13.8 269.1-78 78-.1 4.5 1.4 1.3 76.9-76.9-.2-6.9zm-4.8-217.1c0-1.4-.1-2.8-.2-4.2L221.3 238l-.2 7.2 68.2-68.2v-2.6zm-1.5-17-66.1 66.1-.2 7.2 67.1-67.1c-.2-2-.5-4.1-.8-6.2zm-4.9-23.4-60.6 60.6-.2 7.2 62-62-1.2-5.8zm3.5 15.9-.9-4.3-63.5 63.5-.2 7.2 64.9-64.9-.3-1.5zm-8.6-39.1-54.6 54.6c-.2 2.5-.4 5-.5 7.5l56.3-56.3-1.2-5.8zm-2.6-82.3L244 59.8V66l-.2 1.1 28.3-28.3 3.1-10.3zm-41-8.4 15.5-15.5c-2-.2-4-.6-6-1.1l-11.2 11.2 1.7 5.4zm-3.3-10.8 7.4-7.4c-1.5-.6-3-1.2-4.5-1.9h-.7l-3.6 3.6c0 .5 0 1 .2 1.6l1.2 4.1zm44.4 89.9L226 148.5l-.3 1.4c-.5 2.4-1 4.9-1.4 7.4l52.3-52.3-1.3-5.8zm-37.8-68.3L264 4.4c-2.5.4-5 .6-7.7.6l-20.5 20.5 1.7 5.4zM268 52l.9-3-27.1 27.1-2 9.1L268 57v-5zm13.5-43.9-39 39L244 52v.7l34.4-34.4 3.1-10.2zm-40.7 33.6 40.6-40.6c-.7-.7-1.7-1.2-2.8-1.2h-.3c-1.5.7-3.1 1.4-4.7 2l-34.3 34.3 1.5 5.5zm-5 61.6 33.1-33.1-.9-4.2v-2l-30.2 30.2-2 9.1zm57.7 260.5-76.8 76.8-.2 7.2 77.1-77.1-.1-6.9zm.3 13.8L216.4 455l-.2 7.2 77.7-77.7-.1-6.9zm-.9-41.5-75.5 75.5-.2 7.2L293 343l-.1-6.9zm.3 13.9-76.1 76.1-.2 7.2 76.5-76.5-.2-6.8zm1.3 55.3L221 478.7l3.6 3.4 70-70-.1-6.8zm.9 41.5-52.6 52.6 3.6 3.4 49.2-49.2-.2-6.8zm-.6-27.7-66.5 66.5 3.6 3.4 63-63-.1-6.9zm.9 41.5L250 506.3l3.6 3.4 42.2-42.2-.1-6.9zm-.6-27.7-59.6 59.6 3.6 3.4 56.1-56.1-.1-6.9zM292 294.6l-73.6 73.6-.2 7.2 73.9-73.9-.1-6.9zm-1.3-55.3-71.1 71.1-.2 7.2 71.4-71.4-.1-6.9zm-.3-13.8L220 295.9l-.2 7.2 70.7-70.7-.1-6.9zm.6 27.6-71.7 71.7-.2 7.2 72-72-.1-6.9zm1.6 69.2-74.9 74.9-.2 7.2 75.2-75.2-.1-6.9zm-2.5-110.7-69.8 69.8-.2 7.2 70.1-70.1-.1-6.9zm2.2 96.9L218 382.7l-.2 7.2 74.6-74.6-.1-6.8zm-2.5-110.7L220.6 267l-.2 7.2 69.5-69.5-.1-6.9zm1.6 69.2L219 339.3l-.2 7.2 72.7-72.7-.1-6.8zm.3 13.8-73 73-.2 7.2 73.3-73.3-.1-6.9z" fill="#ad403b"/><path class="st2" d="M244 52h24v14h-24z"/><path class="st2" d="M233.7 0h-.3c-2.7 0-4.6 2.6-3.8 5.2L244 52v14l-18.4 83.9c-1.8 8-2.7 16.2-2.9 24.5L216 474l40 38V5c-8 0-15.5-1.8-22.3-5z"/></svg>