<svg xmlns="http://www.w3.org/2000/svg" viewBox="0 0 512 512" xml:space="preserve"><style>.st0{fill:#a18267}.st1,.st2{fill:#66442b}.st2{opacity:.15}.st3{opacity:.5}</style><path class="st0" d="M179 505.9c-25.5 0-47.9-18.1-53.2-43.1-.2-.7-.3-1.4-.4-2.1l-.6-3.5h-.1l-11.1-64.6v-.1c-3-12.4-7.5-24.7-13.5-36.8-2.6-5.2-5.2-10-7.8-14.8-7.1-13.1-13.8-25.5-17.3-41.7-5.3-24.8-7-50.2-5.1-75.4 2.2-28.7 9-56.7 20.4-83.2 2.9-6.9 8.1-12.3 14.6-15.3 5.2-2.4 10.6-4.2 16.3-5.4 5.2-1.1 10.6-1.7 15.9-1.7 2.9 0 5.8.2 8.7.5 8.2.9 15.6 5.3 20.3 12 16.2 22.8 27.3 48.4 33.2 76 1.1 5.3 2 10.6 2.8 16 2.3 17.7 2.4 35.7.1 53.3-1.6 12.4-2.2 25.1-1.8 37.7l.1 3.8c.8 25.9 5.9 51.4 14.9 75.7l12.9 34.5h-.1l1.4 3.5c1.2 2.9 2.1 5.9 2.7 8.9 6.2 29.4-12.6 58.3-41.9 64.6-3.8.8-7.6 1.2-11.4 1.2z"/><path class="st1" d="M137.2 122.1c2.7 0 5.5.2 8.2.5 7 .8 13.4 4.6 17.5 10.4 15.8 22.4 26.8 47.4 32.5 74.5 1.1 5.2 2 10.4 2.7 15.7 2.3 17.4 2.3 35 .1 52.3-1.6 12.6-2.3 25.5-1.9 38.4l.1 3.8c.8 26.4 5.9 52.3 15.2 77l11.7 31.3-.2.1 2.7 6.7c1.1 2.7 1.9 5.5 2.5 8.3 2.8 13.2.3 26.7-7 38s-18.6 19.1-31.8 21.9c-3.5.7-7 1.1-10.5 1.1-11.4 0-22.5-3.9-31.5-11.1-9.1-7.2-15.4-17.5-17.8-28.9-.1-.6-.2-1.3-.4-2l-1.2-7.1h-.1l-10.4-61v-.3l-.1-.3c-3.1-12.6-7.7-25.3-13.8-37.6-2.6-5.3-5.3-10.1-7.8-14.9-7.3-13.4-13.6-25-16.9-40.6-5.2-24.5-6.9-49.5-5-74.2 2.2-28.2 8.9-55.8 20-82 2.5-6 7-10.7 12.6-13.3 4.9-2.3 10.1-4 15.4-5.1 5.1-1.1 10.2-1.6 15.2-1.6m0-8c-5.5 0-11.1.6-16.7 1.8-6 1.3-11.8 3.2-17.1 5.7-7.5 3.5-13.4 9.8-16.6 17.4-11.3 26.5-18.4 55-20.7 84.5-1.9 25-.4 50.7 5.1 76.5 4.8 22.6 15.6 37.6 25.4 57.4 5.7 11.5 10.2 23.5 13.2 35.9l11.7 68h.1c.1.8.3 1.5.4 2.3 5.8 27.5 30.1 46.3 57.1 46.3 4 0 8.1-.4 12.2-1.3 31.6-6.7 51.7-37.7 45-69.3-.7-3.3-1.7-6.5-2.9-9.6l-14.1-37.9c-8.9-23.9-13.9-49-14.7-74.5l-.1-3.8c-.4-12.4.2-24.8 1.8-37.1 2.3-17.7 2.4-36-.1-54.4-.7-5.4-1.6-10.9-2.8-16.3-6.1-28.8-17.9-54.9-33.8-77.5a33.14 33.14 0 0 0-23.1-13.7c-3.2-.2-6.2-.4-9.3-.4z"/><path class="st1" d="M121.5 119.9c8-1.7 16.1-2.1 24.1-1.2 7.6.9 14.5 5 18.9 11.2 16.2 22.8 27.3 48.4 33.2 75.9 1.1 5.3 2 10.6 2.8 16 2.3 17.7 2.4 35.7.1 53.3-1.7 12.7-2.3 25.6-1.9 38.5l.1 3.8c.8 26.5 6 52.5 15.2 77.3l12.3 33.1-.1.1 2.1 5.3c1.1 2.9 2 5.8 2.6 8.7 6 28.5-12.2 56.5-40.6 62.6-28.5 6-56.5-12.2-62.6-40.6-.1-.6-.3-1.3-.4-2.1l-1-5.6h-.1l-10.8-63.1v-.4c-3.1-12.7-7.7-25.3-13.8-37.6-2.6-5.3-5.3-10.2-7.9-15-7.1-13.1-13.8-25.5-17.2-41.5-5.3-24.9-7-50.3-5.1-75.5 2.2-28.7 9.1-56.8 20.4-83.4 2.7-6.4 7.6-11.5 13.6-14.3 5.2-2.5 10.5-4.3 16.1-5.5m-1.3-6.1c-6.1 1.3-11.9 3.3-17.3 5.8-7.6 3.5-13.5 9.9-16.8 17.6-11.4 26.8-18.6 55.6-20.9 85.4-1.9 25.3-.4 51.3 5.2 77.3 4.9 22.8 15.7 38 25.6 58 5.8 11.6 10.3 23.7 13.3 36.3l11.8 68.7h.1c.1.8.3 1.5.4 2.3 6.8 31.9 38.1 52.3 70 45.5 31.9-6.8 52.3-38.1 45.5-70-.7-3.4-1.7-6.6-3-9.7l-14.3-38.3c-9-24.1-14-49.5-14.8-75.3l-.1-3.8c-.4-12.5.2-25.1 1.8-37.5 2.3-17.9 2.4-36.3-.1-54.9-.7-5.5-1.7-11-2.8-16.5-6.2-29.1-18.1-55.5-34.2-78.3-5.5-7.7-14-12.8-23.4-13.8-8.4-1.1-17.2-.7-26 1.2z"/><path class="st1" d="M218.5 388.7c.5 1.3.9 2.6 1.4 4-.5-1.3-1-2.7-1.4-4zm15.7 42.3zm-30.1-72.8c-13.4 11.2-29.9 19-47.6 22.8-15.1 3.2-30.2 3.3-44.9.4l-6.4-1.3c1.6 4.6 2.9 9.3 4.1 14 0-.1-.1-.2-.1-.4 15.8 3.2 32.8 3.2 50-.4 20.4-4.3 38.4-13.3 53-25.4-1.2-4.6-2.2-9.2-3.1-13.8l-5 4.1zm12.9 26.3c.3 1 .7 2 1 3-.3-1-.6-2-1-3zm-2.4-7.9c.1.4.2.7.3 1.1-.1-.4-.2-.8-.3-1.1zm1 3.4c.2.8.5 1.6.7 2.4-.2-.8-.5-1.6-.7-2.4z"/><path class="st2" d="M203.3 393.2c.6 1.7 1.2 3.3 1.8 5l9.4 25.2-.3.2 5.3 13.2c.9 2.4 1.7 4.7 2.2 7.1 5 23.4-10 46.4-33.4 51.4s-46.4-10-51.4-33.4c-.1-.5-.2-1.1-.3-1.7l-2.4-14h-.1l-5.9-34.4c11.3.4 22.7-.6 34.1-3.1 14.6-3 28.5-8.3 41-15.5m-79.2-260.9c6.6-1.4 13.4-1.7 20-1 4.1.5 7.8 2.7 10.1 6 15.2 21.4 25.6 45.4 31.1 71.3 1 4.9 1.9 10 2.6 15.1 2.2 16.6 2.2 33.5.1 50-1.1 8.5-1.8 17.1-2 25.8-11 7.2-23 12.2-35.7 15-18.6 4-38.2 2.6-57-3.8-2-5-3.4-9.7-4.5-14.7-5-23.7-6.7-47.9-4.8-72 2.1-27.4 8.6-54.1 19.4-79.4 1.5-3.6 4.1-6.3 7.4-7.8 4.2-2.1 8.7-3.6 13.3-4.5"/><g class="st3"><path class="st1" d="m184.9 291.3-3.1 4.9-8.3-5.4-2.2 3.3h.1l-3.1 4.9-8.3-5.4-2.2 3.3h.1l-3.1 4.9-8.3-5.4-2.2 3.3h.1l-3.1 4.9-8.3-5.4-2.2 3.3h.1l-3.1 4.9-8.3-5.4-2.2 3.3h.1l-3.1 4.9-8.3-5.4-2.2 3.3h.1l-2.9 4.4c1.4.4 2.7.7 4.1 1l2.1-3.2 7.7 5c.2 0 .4.1.7.1l5.2-7.9 8.2 5.3 5.3-8.2 8.2 5.3 5.3-8.2 8.2 5.3 5.3-8.2 8.2 5.3 5.3-8.2 7.9 5.2c.2-.1.4-.2.6-.4l2.8-4.3c.1-2.7.2-5.4.4-8.1l-1.6 3zm-96.1-67-2.2 3.3h.1l-3.2 4.9h-.1c-.1 1.5-.1 3.1-.2 4.6l1.4.9 5.3-8.2 8.2 5.3 5.3-8.2 8.2 5.3 5.3-8.2 8.2 5.3 5.3-8.2 8.2 5.3 5.3-8.2 8.2 5.3 5.3-8.2 8.2 5.3 5.3-8.2 8.2 5.3 5.3-8.2 1.2.7c-.1-.6-.3-1.3-.4-1.9-.3-1.2-.5-2.4-.8-3.6l-1.2-.8-2.2 3.3h.1l-3.1 4.9-8.3-5.4-2.2 3.3h.1l-3.1 4.9-8.3-5.4-2.2 3.3h.1l-3.1 4.9-8.3-5.4-2.2 3.3h.1l-3.1 4.9-8.3-5.4-2.2 3.3h.1l-3.1 4.9-8.3-5.4-2.2 3.3h.1l-3.1 4.9-8.3-5.4-2.2 3.3h.1l-3.1 4.9-8.2-4.6zm-3.1-16c-.4 2.8-.7 5.5-1 8.3l1.9-3 8.2 5.3 5.3-8.2 8.2 5.3 5.3-8.2 8.2 5.3 5.3-8.2 8.2 5.3 5.3-8.2 8.2 5.3 5.3-8.2 8.2 5.3 5.3-8.2 8.2 5.3 5.3-8.2.5.3c-.6-1.9-1.2-3.8-1.8-5.8l-2.1 3.2h.1l-3.1 4.9-8.3-5.4-2.2 3.3h.1l-3.1 4.9-8.3-5.4-2.2 3.3h.1l-3.1 4.9-8.3-5.4-2.2 3.3h.1l-3.1 4.9-8.3-5.4-2.2 3.3h.1l-3.1 4.9-8.3-5.4-2.2 3.3h.1l-3.1 4.9-8.3-5.4-2.2 3.3h.1l-3.1 4.9-8-4.4zm97.9 63.4-2.2 3.3h.1l-3.1 4.9-8.3-5.4-2.2 3.3h.1l-3.1 4.9-8.3-5.4-2.2 3.3h.1l-3.1 4.9-8.3-5.4-2.2 3.3h.1l-3.1 4.9-8.3-5.4-2.2 3.3h.1l-3.1 4.9-8.3-5.4-2.2 3.3h.1l-3.1 4.9-8.3-5.4-2.2 3.3h.1l-3.2 4.9-8.3-5.4-.8 1.2c.2 1 .4 1.9.6 2.8.2.9.4 1.8.6 2.8l.8-1.3 8.2 5.3 5.3-8.2 8.2 5.3 5.3-8.2 8.2 5.3 5.3-8.2 8.2 5.3 5.3-8.2 8.2 5.3 5.3-8.2 8.2 5.3 5.3-8.2 8.2 5.3 5.3-8.2 2.6 1.7c.2-1.5.3-2.9.5-4.4l-4.2-2.1zm-80.2-127.2c-.1.3-.2.5-.3.8l5 3.2 5.3-8.2 8.2 5.3 5.3-8.2 8.2 5.3 5.3-8.2 8.2 5.3 3.3-5.2c-1-.9-2.1-1.6-3.3-2.2l-1.2 1.8-5.1-3.3c-1.5-.1-2.9-.2-4.4-.2l-1 1.5h.1l-3.1 4.9-8.2-5.3h-.1l-2.1 3.3h.1l-3.1 4.9-7.1-4.6c-.8.3-1.6.7-2.4 1l-1 1.5h.1l-3.1 4.9-2-1.3c-.6 1.1-1.1 2-1.6 3zm-10.3 29.1c-.8 2.9-1.6 5.8-2.3 8.7l2.5-3.8 8.2 5.3 5.3-8.2 8.2 5.3 5.3-8.2 8.2 5.3 5.3-8.2 8.2 5.3 5.3-8.2 8.2 5.3 5.3-8.2 8.2 5.3 2.1-3.3c-.7-1.4-1.3-2.8-2-4.2l-1.3 1.9-8.3-5.4-2.2 3.3h.1l-3.1 4.9-8.3-5.4-2.2 3.3h.1l-3.1 4.9-8.3-5.4-2.2 3.3h.1l-3.1 4.9-8.3-5.4-2.2 3.3h.1l-3.1 4.9-8.3-5.4-2.2 3.3h.1l-3.1 4.9-7.2-4.1zm-1.7 29.2 5.3-8.2 8.2 5.3 5.3-8.2 8.2 5.3 5.3-8.2 8.2 5.3 5.3-8.2 8.2 5.3 5.3-8.2 8.2 5.3 5.3-8.2 8.2 5.3 4.2-6.5c-.6-1.5-1.2-3.1-1.9-4.6l-.5.7h.1l-3.1 4.9-8.3-5.4-2.2 3.3h.1l-3.1 4.9-8.3-5.4-2.2 3.3h.1l-3.1 4.9-8.3-5.4-2.2 3.3h.1l-3.1 4.9-8.3-5.4-2.2 3.3h.1l-3.1 4.9-8.3-5.4-2.2 3.3h.1l-3.1 4.9-8.3-5.4-2.2 3.3h.1l-3.1 4.9-2.4-1.6c-.3 1.4-.5 2.8-.8 4.2l4.4 3.5zm6.6-35.2 5.3-8.2 8.2 5.3 5.3-8.2 8.2 5.3 5.3-8.2 8.2 5.3 5.3-8.2 8.2 5.3 5.3-8.2 6.3 4.1c-1.5-2.7-3.1-5.3-4.8-7.9l-2.7-1.8-2.2 3.3h.1l-3.1 4.9-8.3-5.4-2.2 3.3h.1l-3.1 4.9-8.3-5.4-2.2 3.3h.1l-3.1 4.9-8.3-5.4-2.2 3.3h.1l-3.1 4.9-8.3-5.4-2.2 3.3h.1l-3.1 4.9-.1-.1c-.4 1.3-.9 2.6-1.3 3.9l2.5 2.2zm-14.7 78.7c0 1.6.1 3.2.1 4.8l4.8 3.1 5.3-8.2 8.2 5.3 5.3-8.2 8.2 5.3 5.3-8.2 8.2 5.3 5.3-8.2 8.2 5.3 5.3-8.2 8.2 5.3 5.3-8.2 8.2 5.3 5.3-8.2 8.2 5.3 5.3-8.2.2.1-.3-2.4c-.1-.9-.3-1.9-.4-2.8l-.8-.5-2.2 3.3h.1l-3.1 4.9-8.3-5.4-2.2 3.3h.1l-3.1 4.9-8.3-5.4-2.2 3.3h.1l-3.1 4.9-8.3-5.4-2.2 3.3h.1l-3.1 4.9-8.3-5.4-2.2 3.3h.1l-3.1 4.9-8.3-5.4-2.2 3.3h.1l-3.1 4.9-8.3-5.4-2.2 3.3h.1l-3.1 4.9-8.3-5.4L90 243h.1l-3.2 4.9-3.6-1.6zm.6 14.3c.1 1.7.3 3.3.4 5l7.3 4.8 5.3-8.2 8.2 5.3 5.3-8.2 8.2 5.3 5.3-8.2 8.2 5.3 5.3-8.2 8.2 5.3 5.3-8.2 8.2 5.3 5.3-8.2 8.2 5.3 5.3-8.2 8.2 5.3 3.4-5.3c0-2.3-.1-4.7-.3-7l-1.2 1.9h.1l-3.1 4.9-8.3-5.4-2.2 3.3h.1l-3.1 4.9-8.3-5.4-2.2 3.3h.1l-3.1 4.9-8.3-5.4-2.2 3.3h.1l-3.1 4.9-8.3-5.4-2.2 3.3h.1l-3.1 4.9-8.3-5.4-2.2 3.3h.1l-3.1 4.9-8.3-5.4-2.2 3.3h.1L104 262l-8.3-5.4-2.2 3.3h.1l-3.2 4.9-6.5-4.2zm11.2 25.9 5.3-8.2 8.2 5.3 5.3-8.2 8.2 5.3 5.3-8.2 8.2 5.3 5.3-8.2 8.2 5.3 5.3-8.2 8.2 5.3 5.3-8.2 8.2 5.3 5.3-8.2 7.4 4.8c.2-2.1.3-4.3.5-6.4l-.9 1.4-8.3-5.4-2.2 3.3h.1l-3.1 4.9-8.3-5.4-2.2 3.3h.1l-3.1 4.9-8.3-5.4-2.2 3.3h.1l-3.1 4.9-8.3-5.4-2.2 3.3h.1l-3.1 4.9-8.3-5.4-2.2 3.3h.1l-3.1 4.9-8.3-5.4-2.2 3.3h.1l-3.1 4.9-8.3-5.4-2.2 3.3h.1l-3.2 4.9-8.3-5.4-.2.3c.3 2 .6 4.1.9 6.1l.6-.9 8.3 6.1z"/></g><g class="st3"><path class="st1" d="M149.8 410.9c-.1 0-.1 0 0 0zm61.7 58.5-2.2 3.3h.1l-3.1 4.9-8.3-5.4-2.2 3.3h.1l-3.1 4.9-8.3-5.4-2.2 3.3h.1l-3.1 4.9-8.3-5.4-2.2 3.3h.1l-3.1 4.9-8.3-5.4-2.2 3.3h.1l-2.1 3.2c1.1.8 2.2 1.5 3.3 2.2l2.1-3.3 8.2 5.3 5.3-8.2 8.2 5.3 5.3-8.2 8.2 5.3 5.3-8.2 8.2 5.3 5.3-8.2 2.7 1.8c.7-1.1 1.4-2.3 2-3.4l-5.9-3.4zm10.1-19-2.2 3.3h.1l-3.1 4.9-8.3-5.4-2.2 3.3h.1l-3.1 4.9-8.3-5.4-2.2 3.3h.1l-3.1 4.9-8.3-5.4-2.2 3.3h.1l-3.1 4.9-8.3-5.4-2.2 3.3h.1l-3.1 4.9-8.3-5.4-2.2 3.3h.1l-3.1 4.9-8.3-5.4-1.2 1.8c.6 1.5 1.3 2.9 2.1 4.3l.4-.6 8.2 5.3 5.3-8.2 8.2 5.3 5.3-8.2 8.2 5.3 5.3-8.2 8.2 5.3 5.3-8.2 8.2 5.3 5.3-8.2 8.2 5.3 5-7.7c.1-1.8.2-3.6.1-5.4h-1.1zm-78.5-4.2 5.3-8.2 8.2 5.3 5.3-8.2 8.2 5.3 5.3-8.2 8.2 5.3 5.3-8.1 8.2 5.3 5.4-8.2 8.1 5.3 4.3-6.6-.6-1.6.3-.2-1.2-3.2-.9 1.2h.1l-3.1 4.9-8.3-5.4-2.2 3.4h.1l-3.1 4.9-8.3-5.4-2.2 3.3.1.1-3.1 4.8-8.3-5.3-2.2 3.3.1.1-3.2 4.8-8.2-5.4-2.2 3.4h.1l-3.2 4.9-8.2-5.4-2.2 3.4h.1l-3.2 4.9-8.2-5.4-1.1 1.6 1 5.9 1.3-2zm3.4 16.1 5.3-8.2 8.2 5.3 5.3-8.2 8.2 5.3 5.3-8.2 8.2 5.3 5.3-8.2 8.2 5.3 5.3-8.2 8.2 5.3 5.3-8.2 1.5 1c-.4-1.3-.8-2.7-1.4-4l-.9-2.3-.5-.3-2.2 3.3h.1l-3.1 4.9-8.3-5.4-2.2 3.3h.1l-3.1 4.9-8.3-5.4-2.2 3.3h.1l-3.1 4.9-8.3-5.4-2.2 3.3h.1l-3.1 4.9-8.3-5.4-2.2 3.3h.1l-3.1 4.9-8.3-5.4-2.2 3.3h.1l-3.1 4.9-8.3-5.4-1.5 2.3 1 5.9 1.7-2.7 8.3 6zm-6.8-32.3 5.3-8.2 8.2 5.3 5.3-8.2 8.2 5.3 5.3-8.1 8.2 5.3 5.3-8.2 8.2 5.3 5.3-8.2 8.2 5.3 2.8-4.3-1.7-4.7-2.3 3.5-8.2-5.3-2.2 3.3h.1l-3.2 4.9-8.2-5.4-2.2 3.4h.1l-3.2 4.9-8.2-5.4-2.2 3.3.1.1-3.2 4.8-8.3-5.3-2.1 3.3.1.1-3.2 4.8-8.3-5.4-2.1 3.4-3.1 4.9-8.3-5.4-.5.8 1 5.9.8-1.1z"/></g><circle class="st2" cx="152.7" cy="350" r="8.7"/><path class="st0" d="M333 393.9c-3.8 0-7.6-.4-11.4-1.2-29.4-6.2-48.2-35.2-41.9-64.6.6-3 1.6-6 2.7-8.9l1.4-3.5h-.1l12.8-34.4c9.1-24.3 14.1-49.8 14.9-75.7l.1-3.8c.4-12.6-.2-25.3-1.8-37.7-2.3-17.7-2.3-35.6.1-53.3.7-5.4 1.6-10.8 2.8-16 5.9-27.6 17-53.1 33.2-76 4.7-6.7 12.1-11.1 20.3-12 2.9-.3 5.8-.5 8.7-.5 5.3 0 10.7.6 15.9 1.7 5.6 1.2 11.1 3 16.3 5.4 6.5 3 11.7 8.5 14.6 15.3 11.3 26.6 18.2 54.6 20.4 83.2 1.9 25.2.2 50.5-5.1 75.4-3.4 16.2-10.2 28.6-17.3 41.7-2.5 4.7-5.2 9.6-7.8 14.8-6 12.1-10.5 24.4-13.5 36.8v.1l-11.1 64.6-.7 3.5c-.1.7-.2 1.4-.4 2.1-5.2 24.9-27.6 43-53.1 43z"/><path class="st1" d="M374.8 10.1c5 0 10.1.5 15.1 1.6 5.3 1.1 10.5 2.9 15.4 5.1 5.6 2.6 10.1 7.3 12.6 13.3 11.1 26.2 17.9 53.7 20 82 1.9 24.8.2 49.8-5 74.2-3.3 15.6-9.6 27.2-16.9 40.6-2.6 4.7-5.2 9.6-7.8 14.9-6.1 12.3-10.8 25-13.8 37.6l-.1.3v.3l-10.4 60.9h-.1l-1.2 7.1c-.1.7-.2 1.4-.4 2-2.4 11.4-8.7 21.6-17.8 28.9-8.9 7.2-20.1 11.1-31.5 11.1-3.5 0-7.1-.4-10.5-1.1-13.2-2.8-24.5-10.6-31.8-21.9-7.3-11.3-9.8-24.8-7-38 .6-2.8 1.4-5.6 2.5-8.3l2.7-6.7-.1-.1 11.7-31.3c9.2-24.7 14.3-50.6 15.2-77l.1-3.8c.4-12.9-.2-25.8-1.9-38.4-2.3-17.3-2.2-34.9.1-52.3.7-5.3 1.6-10.6 2.7-15.7 5.7-27 16.7-52.1 32.5-74.5 4.1-5.8 10.5-9.6 17.5-10.4 2.7-.2 5.4-.4 8.2-.4m0-8c-3.1 0-6.1.2-9.1.5-9.3 1.1-17.7 6.1-23.1 13.7-16 22.6-27.7 48.7-33.8 77.5-1.2 5.5-2.1 10.9-2.8 16.3-2.4 18.4-2.4 36.7-.1 54.4 1.6 12.3 2.2 24.7 1.8 37.1l-.1 3.8c-.8 25.5-5.8 50.6-14.7 74.5l-14.1 37.9c-1.2 3.1-2.2 6.3-2.9 9.6-6.7 31.6 13.4 62.6 45 69.3 4.1.9 8.2 1.3 12.2 1.3 27 0 51.3-18.8 57.1-46.3.2-.8.3-1.5.4-2.3h.1l11.7-68c3-12.4 7.5-24.5 13.2-35.9 9.8-19.8 20.6-34.8 25.4-57.4 5.5-25.8 7-51.5 5.1-76.5-2.3-29.5-9.4-58-20.7-84.5-3.2-7.6-9.1-13.9-16.6-17.4-5.4-2.5-11.1-4.4-17.1-5.7-5.8-1.3-11.4-1.9-16.9-1.9z"/><path class="st1" d="M390.5 7.9c5.5 1.2 10.9 3 16 5.3 6.1 2.8 10.9 7.9 13.6 14.3 11.3 26.6 18.2 54.7 20.4 83.4 1.9 25.2.2 50.6-5.1 75.5-3.4 16-10.1 28.4-17.2 41.5-2.6 4.8-5.3 9.7-7.9 15-6.1 12.3-10.8 25-13.8 37.6v.4L385.7 344h-.1l-1 5.6c-.1.8-.2 1.4-.4 2.1-6 28.5-34.1 46.7-62.6 40.6-28.5-6-46.7-34.1-40.6-62.6.6-2.9 1.5-5.8 2.6-8.7l2.1-5.3-.1-.1 12.3-33.1c9.3-24.8 14.4-50.8 15.2-77.3l.1-3.8c.4-12.9-.2-25.9-1.9-38.5-2.3-17.6-2.3-35.6.1-53.3.7-5.4 1.6-10.8 2.8-16 5.9-27.6 17-53.1 33.2-75.9 4.4-6.3 11.3-10.3 18.9-11.2 8.1-.6 16.2-.3 24.2 1.4m1.3-6.1C382.9-.1 374.1-.4 365.7.5c-9.4 1.1-17.9 6.1-23.4 13.8-16.1 22.8-28 49.2-34.2 78.3-1.2 5.5-2.1 11-2.8 16.5-2.5 18.6-2.4 37-.1 54.9 1.6 12.4 2.2 25 1.8 37.5l-.1 3.8c-.8 25.7-5.8 51.1-14.8 75.3L277.8 319c-1.2 3.1-2.2 6.3-3 9.7-6.8 31.9 13.6 63.3 45.5 70s63.3-13.6 70-45.5c.2-.8.3-1.5.4-2.3h.1l11.8-68.7c3-12.6 7.6-24.7 13.3-36.3 9.9-20 20.8-35.2 25.6-58 5.5-26.1 7.1-52 5.2-77.3-2.3-29.8-9.5-58.6-20.9-85.4-3.3-7.7-9.2-14-16.8-17.6-5.3-2.6-11.1-4.5-17.2-5.8z"/><path class="st1" d="M293.5 276.7c-.5 1.3-.9 2.6-1.4 4 .5-1.3 1-2.7 1.4-4zM277.8 319zm30.1-72.8c13.4 11.2 29.9 19 47.6 22.8 15.1 3.2 30.2 3.3 44.9.4l6.4-1.3c-1.6 4.6-2.9 9.3-4.1 14 0-.1.1-.2.1-.4-15.8 3.2-32.8 3.2-50-.4-20.4-4.3-38.4-13.3-53-25.4 1.2-4.6 2.2-9.2 3.1-13.8l5 4.1zM295 272.5c-.3 1-.7 2-1 3 .3-1 .6-2 1-3zm2.4-7.9c-.1.4-.2.7-.3 1.1.1-.4.2-.8.3-1.1zm-1 3.4c-.2.8-.5 1.6-.7 2.4.2-.8.5-1.6.7-2.4z"/><path class="st2" d="M308.7 281.2c12.6 7.2 26.4 12.5 40.9 15.6 11.4 2.4 22.8 3.4 34.1 3.1l-5.9 34.4h-.1l-2.4 14c-.1.7-.2 1.2-.3 1.7-5 23.4-28 38.3-51.4 33.4-23.4-5-38.3-28-33.4-51.4.5-2.4 1.2-4.8 2.2-7.1l5.3-13.2-.3-.2 9.4-25.2c.7-1.8 1.3-3.4 1.9-5.1m79.2-260.9c4.6 1 9.1 2.5 13.3 4.4 3.2 1.5 5.8 4.3 7.4 7.8 10.8 25.3 17.3 52.1 19.4 79.4 1.8 24 .2 48.2-4.8 72-1.1 5-2.5 9.7-4.5 14.7-18.8 6.4-38.4 7.7-57 3.8-12.7-2.7-24.7-7.7-35.7-15-.2-8.6-.9-17.3-2-25.8-2.2-16.6-2.1-33.4.1-50 .7-5.1 1.5-10.1 2.6-15.1 5.5-25.9 16-49.9 31.1-71.3 2.4-3.3 6.1-5.5 10.1-6 6.6-.7 13.4-.3 20 1.1"/><g class="st3"><path class="st1" d="m327.1 179.3 3.1 4.9 8.3-5.4 2.2 3.3h-.1l3.1 4.9 8.3-5.4 2.2 3.3h-.1l3.1 4.9 8.3-5.4 2.2 3.3h-.1l3.1 4.9 8.3-5.4 2.2 3.3h-.1l3.1 4.9 8.3-5.4 2.2 3.3h-.1l3.1 4.9 8.3-5.4 2.2 3.3h-.1l2.9 4.4c-1.4.4-2.7.7-4.1 1l-2.1-3.2-7.7 5c-.2 0-.4.1-.7.1l-5.2-7.9-8.2 5.3-5.3-8.2-8.2 5.3-5.3-8.2-8.2 5.3-5.3-8.2-8.2 5.3-5.3-8.2-7.9 5.2c-.2-.1-.4-.2-.6-.4l-2.8-4.3c-.1-2.7-.2-5.4-.4-8.1l1.6 3zm96.1-67 2.2 3.3h-.1l3.2 4.9h.1c.1 1.5.1 3.1.2 4.6l-1.4.9-5.3-8.2-8.2 5.3-5.3-8.2-8.2 5.3-5.3-8.2-8.2 5.3-5.3-8.2-8.2 5.3-5.3-8.2-8.2 5.3-5.3-8.2-8.2 5.3-5.3-8.2-8.2 5.3-5.3-8.2-1.2.7c.1-.6.3-1.3.4-1.9.3-1.2.5-2.4.8-3.6l1.2-.8 2.2 3.3h-.1l3.1 4.9 8.3-5.4 2.2 3.3h-.1l3.1 4.9 8.3-5.4 2.2 3.3h-.1l3.1 4.9 8.3-5.4 2.2 3.3h-.1l3.1 4.9 8.3-5.4 2.2 3.3h-.1l3.1 4.9 8.3-5.4 2.2 3.3h-.1l3.1 4.9 8.3-5.4 2.2 3.3h-.1l3.1 4.9 8.2-4.6zm3.1-16c.4 2.8.7 5.5 1 8.3l-1.9-3-8.2 5.3-5.3-8.2-8.2 5.3-5.3-8.2-8.2 5.3-5.3-8.2-8.2 5.3-5.3-8.2-8.2 5.3-5.3-8.2-8.2 5.3-5.3-8.2-8.2 5.3-5.3-8.2-.5.3c.6-1.9 1.2-3.8 1.8-5.8l2.1 3.2h-.1l3.1 4.9 8.3-5.4 2.2 3.3h-.1l3.1 4.9 8.3-5.4 2.2 3.3h-.1l3.1 4.9 8.3-5.4 2.2 3.3h-.1l3.1 4.9 8.3-5.4 2.2 3.3h-.1l3.1 4.9 8.3-5.4 2.2 3.3h-.1l3.1 4.9 8.3-5.4 2.2 3.3h-.1l3.1 4.9 8-4.4zm-97.9 63.4 2.2 3.3h-.1l3.1 4.9 8.3-5.4 2.2 3.3h-.1l3.1 4.9 8.3-5.4 2.2 3.3h-.1l3.1 4.9 8.3-5.4 2.2 3.3h-.1l3.1 4.9 8.3-5.4 2.2 3.3h-.1l3.1 4.9 8.3-5.4 2.2 3.3h-.1l3.1 4.9 8.3-5.4 2.2 3.3h-.1l3.1 4.9 8.3-5.4.8 1.2c-.2 1-.4 1.9-.6 2.8-.2.9-.4 1.8-.6 2.8l-.8-1.3-8.2 5.3-5.3-8.2-8.2 5.3-5.3-8.2-8.2 5.3-5.3-8.2-8.2 5.3-5.3-8.2-8.2 5.3-5.3-8.2-8.2 5.3-5.3-8.2-8.2 5.3-5.3-8.2-2.6 1.7c-.2-1.5-.3-2.9-.5-4.4l4.3-2.1zm80.2-127.2c.1.3.2.5.3.8l-5 3.2-5.3-8.2-8.2 5.3-5.3-8.2-8.2 5.3-5.3-8.2-8.2 5.3-3.3-5.2c1-.9 2.1-1.6 3.3-2.2l1.2 1.8 5.1-3.3c1.5-.1 2.9-.2 4.4-.2l1 1.5h-.1l3.1 4.9 8.2-5.3h.1l2.1 3.3h-.1l3.1 4.9 7.1-4.6c.8.3 1.6.7 2.4 1l1 1.5h-.1l3.1 4.9 2-1.3c.6 1.1 1.1 2 1.6 3zm10.3 29.1c.8 2.9 1.6 5.8 2.3 8.7l-2.5-3.8-8.2 5.3-5.3-8.2-8.2 5.3-5.3-8.2-8.2 5.3-5.3-8.2-8.2 5.3-5.3-8.2-8.2 5.3-5.3-8.2-8.2 5.3-2.1-3.3c.7-1.4 1.3-2.8 2-4.2l1.3 1.9 8.3-5.4 2.2 3.3h-.1l3.1 4.9 8.3-5.4 2.2 3.3h-.1l3.1 4.9 8.3-5.4 2.2 3.3h-.1l3.1 4.9 8.3-5.4 2.2 3.3h-.1l3.1 4.9 8.3-5.4 2.2 3.3h-.1l3.1 4.9 7.2-4.1zm1.7 29.2-5.3-8.2-8.2 5.3-5.3-8.2-8.2 5.3-5.3-8.2-8.2 5.3-5.3-8.2-8.2 5.3-5.3-8.2-8.2 5.3-5.3-8.2-8.2 5.3-4.2-6.5c.6-1.5 1.2-3.1 1.9-4.6l.5.7h-.1l3.1 4.9 8.3-5.4 2.2 3.3h-.1l3.1 4.9 8.3-5.4 2.2 3.3h-.1l3.1 4.9 8.3-5.4 2.2 3.3h-.1l3.1 4.9 8.3-5.4 2.2 3.3h-.1l3.1 4.9 8.3-5.4 2.2 3.3h-.1l3.1 4.9 8.3-5.4 2.2 3.3h-.1l3.1 4.9 2.4-1.6c.3 1.4.5 2.8.8 4.2l-4.4 3.5zM414 55.6l-5.3-8.2-8.2 5.3-5.3-8.2-8.2 5.3-5.3-8.2-8.2 5.3-5.3-8.2L360 44l-5.3-8.2-6.3 4.1c1.5-2.7 3.1-5.3 4.8-7.9l2.7-1.8 2.2 3.3h-.1l3.1 4.9 8.3-5.4 2.2 3.3h-.1l3.1 4.9 8.3-5.4 2.2 3.3h-.1l3.1 4.9 8.3-5.4 2.2 3.3h-.1l3.1 4.9 8.3-5.4 2.2 3.3h-.1l3.1 4.9.1-.1c.4 1.3.9 2.6 1.3 3.9l-2.5 2.2zm14.7 78.7c0 1.6-.1 3.2-.1 4.8l-4.8 3.1-5.3-8.2-8.2 5.3-5.3-8.2-8.2 5.3-5.3-8.2-8.2 5.3-5.3-8.2-8.2 5.3-5.3-8.2-8.2 5.3-5.3-8.2-8.2 5.3-5.3-8.2-8.2 5.3-5.3-8.2-.2.1.3-2.4c.1-.9.3-1.9.4-2.8l.8-.5 2.2 3.3h-.1l3.1 4.9 8.3-5.4 2.2 3.3h-.1l3.1 4.9 8.3-5.4 2.2 3.3h-.1l3.1 4.9 8.3-5.4 2.2 3.3h-.1l3.1 4.9 8.3-5.4 2.2 3.3h-.1l3.1 4.9 8.3-5.4 2.2 3.3h-.1l3.1 4.9 8.3-5.4 2.2 3.3h-.1l3.1 4.9 8.3-5.4 2.2 3.3h-.1l3.1 4.9 3.7-1.6zm-.6 14.3c-.1 1.7-.3 3.3-.4 5l-7.3 4.8-5.3-8.2-8.2 5.3-5.3-8.2-8.2 5.3-5.3-8.2-8.2 5.3-5.3-8.2-8.2 5.3-5.3-8.2-8.2 5.3-5.3-8.2-8.2 5.3-5.4-8-8.2 5.3-3.4-5.3c0-2.3.1-4.7.3-7l1.2 1.9h-.1l3.1 4.9 8.3-5.4 2.2 3.3h-.1l3.1 4.9 8.3-5.4 2.2 3.3h-.1l3.1 4.9 8.3-5.4 2.2 3.3h-.1l3.1 4.9 8.3-5.4 2.2 3.3h-.1l3.1 4.9 8.3-5.4 2.2 3.3h-.1l3.1 4.9 8.3-5.4 2.2 3.3h-.1l3.1 4.9 8.3-5.4 2.2 3.3h-.1l3.1 4.9 6.7-3.8zm-11.2 25.9-5.3-8.2-8.2 5.3-5.3-8.2-8.2 5.3-5.3-8.2-8.2 5.3-5.3-8.2-8.2 5.3-5.3-8.2-8.2 5.3-5.3-8.2-8.2 5.3-5.3-8.2-7.4 4.8c-.2-2.1-.3-4.3-.5-6.4l.9 1.4 8.3-5.4 2.2 3.3h-.1l3.1 4.9 8.3-5.4 2.2 3.3h-.1l3.1 4.9 8.3-5.4 2.2 3.3h-.1l3.1 4.9 8.3-5.4 2.2 3.3h-.1l3.1 4.9 8.3-5.4 2.2 3.3h-.1l3.1 4.9 8.3-5.4 2.2 3.3h-.1l3.1 4.9 8.3-5.4 2.2 3.3h-.1l3.1 4.9 8.3-5.4.2.3c-.3 2-.6 4.1-.9 6.1l-.6-.9-8.2 6.1z"/></g><g class="st3"><path class="st1" d="M362.2 298.9c.1 0 .1 0 0 0zm-61.7 58.5 2.2 3.3h-.1l3.1 4.9 8.3-5.4 2.2 3.3h-.1l3.1 4.9 8.3-5.4 2.2 3.3h-.1l3.1 4.9 8.3-5.4 2.2 3.3h-.1l3.1 4.9 8.3-5.4 2.2 3.3h-.1l2.1 3.2c-1.1.8-2.2 1.5-3.3 2.2l-2.1-3.3-8.2 5.3-5.3-8.2-8.2 5.3-5.3-8.2-8.2 5.3-5.3-8.2-8.2 5.3-5.3-8.2-2.7 1.8c-.7-1.1-1.4-2.3-2-3.4l5.9-3.4zm-10.1-19 2.2 3.3h-.1l3.1 4.9 8.3-5.4 2.2 3.3h-.1l3.1 4.9 8.3-5.4 2.2 3.3h-.1l3.1 4.9 8.3-5.4 2.2 3.3h-.1l3.1 4.9 8.3-5.4 2.2 3.3h-.1l3.1 4.9 8.3-5.4 2.2 3.3h-.1l3.1 4.9 8.3-5.4 1.2 1.8c-.6 1.5-1.3 2.9-2.1 4.3l-.4-.6-8.2 5.3-5.3-8.2-8.2 5.3-5.3-8.2-8.2 5.3-5.3-8.2-8.2 5.3-5.3-8.2-8.1 5.9-5.3-8.2-8.2 5.3-5-7.7c-.1-1.8-.2-3.6-.1-5.4l1-.6zm78.5-4.2-5.3-8.2-8.2 5.3-5.3-8.2-8.2 5.3-5.3-8.2-8.2 5.3-5.3-8.1-8.2 5.3-5.4-8.2-8.1 5.3-4.3-6.6.6-1.6-.3-.2 1.2-3.2.9 1.2h-.1l3.1 4.9 8.3-5.4 2.2 3.4h-.1l3.1 4.9 8.3-5.4 2.2 3.3-.1.1 3.1 4.8 8.3-5.3 2.2 3.3-.1.1 3.2 4.8 8.2-5.4 2.2 3.4h-.1l3.2 4.9 8.2-5.4 2.2 3.4h-.1l3.2 4.9 8.2-5.4 1.1 1.6-1 5.9-1.3-2zm-3.4 16.1-5.3-8.2-8.2 5.3-5.3-8.2-8.2 5.3-5.3-8.2-8.2 5.3-5.3-8.2-8.2 5.3-5.3-8.2-8.2 5.3-5.3-8.2-1.5 1c.4-1.3.8-2.7 1.4-4l.9-2.3.5-.3 2.2 3.3h-.1l3.1 4.9 8.3-5.4 2.2 3.3h-.1l3.1 4.9 8.3-5.4 2.2 3.3h-.1l3.1 4.9 8.3-5.4 2.2 3.3h-.1l3.1 4.9 8.3-5.4 2.2 3.3h-.1l3.1 4.9 8.3-5.4 2.2 3.3h-.1l3.1 4.9 8.3-5.4 1.5 2.3-1 5.9-1.7-2.7-8.3 6zm6.8-32.3-5.3-8.2-8.2 5.3-5.3-8.2-8.2 5.3-5.3-8.1-8.2 5.3-5.3-8.2-8.2 5.3-5.3-8.2-8.2 5.3-2.8-4.3 1.7-4.7 2.3 3.5 8.2-5.3 2.2 3.3h-.1l3.2 4.9 8.2-5.4 2.2 3.4h-.1l3.2 4.9 8.2-5.4 2.2 3.3-.1.1 3.2 4.8 8.3-5.3 2.1 3.3-.1.1 3.2 4.8 8.3-5.4 2.1 3.4 3.1 4.9 8.3-5.4.5.8-1 5.9-.8-1.1z"/></g><circle class="st2" cx="359.3" cy="238" r="8.7"/></svg>