<svg version="1.1" xmlns="http://www.w3.org/2000/svg" x="0" y="0" viewBox="0 0 512 512" xml:space="preserve"><style type="text/css">.st0{fill:#36434f}</style><path class="st0" d="M512 392.5c0 66-114.6 119.5-256 119.5S0 458.5 0 392.5 114.6 403 256 403s256-76.5 256-10.5z"/><path d="M430.3 413c-2.1-8-27.2-31.9-30.3-48-44.7 11-80.6 38-144 38s-99.3-27-144-38c-3 16.1-28.2 40-30.3 48-2.2 8.4-.4 17.3 5 24.2C92 444 100.1 448 108.9 448h294.2c8.7 0 16.8-4 22.1-10.9 5.4-6.9 7.2-15.7 5.1-24.1z" fill="#122a3a"/><path d="m393.9 271-2.7-3.5H121.1l-3 3.5c-.8 18.3-2.2 35.3-4 51l2 2h279.7l2-2c-1.7-15.7-3.1-32.7-3.9-51z" fill="#ddd"/><path class="st0" d="M97.2 417c-2 7.6 3.8 15 11.6 15h294.3c7.8 0 13.6-7.4 11.6-15-4.6-17.9-12.1-51-16.9-95H114.2c-4.9 44-12.3 77.1-17 95zM430.9 31.9C436.3 16.3 424.8 0 408.3 0H103.7c-16.5 0-28 16.3-22.6 31.9C95.9 74.4 119 153.7 119 234c0 12.8-.3 25.1-.9 37h275.7c-.5-11.9-.9-24.2-.9-37 .1-80.3 23.2-159.6 38-202.1z"/><path d="M242 0H103.7c-16.5 0-28 16.3-22.6 31.9C95.9 74.4 119 153.7 119 234c0 12.8-.3 25.1-.9 37-.8 18.3-2.2 35.3-4 51-2.4 21.9-5.5 41.2-8.5 57.2-.2.4-.5.8-.7 1.1C41.3 364.6 0 352.9 0 392.5 0 458.5 114.6 512 256 512V0h-14z" opacity=".15" fill="#444"/></svg>