<svg version="1.1" xmlns="http://www.w3.org/2000/svg" x="0" y="0" viewBox="0 0 512 512" xml:space="preserve"><style type="text/css">.st0{fill:#4caf50}.st1{fill:#f4f4f4}.st2{fill:#424242}.st3{fill:#338738}</style><path class="st0" d="M381.9 118.6c74.7 93.1 79.4 315.8-131.8 307.7C49.6 418.5 58.3 207.1 129 118.6c33.3-41.8 83.3-62.5 125.1-62.9 42.3-.3 93.6 20.1 127.8 62.9z"/><circle class="st1" cx="184.1" cy="208.9" r="57.9"/><path class="st0" d="M135.9 174h96.2c-11.2-14.6-28.6-24-48.1-24s-36.9 9.4-48.1 24z"/><circle class="st2" cx="184.1" cy="208.9" r="25.2"/><circle class="st1" cx="174.9" cy="200.9" r="8"/><circle class="st1" cx="327.9" cy="208.9" r="57.9"/><path class="st0" d="M279.8 174H376c-11.2-14.6-28.6-24-48.1-24s-36.9 9.4-48.1 24z"/><circle class="st2" cx="327.9" cy="208.9" r="25.2"/><circle class="st1" cx="318.8" cy="200.9" r="8"/><path class="st3" d="M256 357.3c-21.6 0-42.3-9.2-56.8-25.1l16-14.5c10.4 11.5 25.3 18.1 40.8 18.1s30.4-6.6 40.8-18.1l16 14.5c-14.5 16-35.2 25.1-56.8 25.1z"/><path class="st0" d="M175.988 485.859l34.788-83.983 22.173 9.185-34.787 83.983z"/><circle class="st3" cx="187.7" cy="489.8" r="22.2"/><path class="st0" d="M279.128 411.063l22.174-9.185 34.787 83.983-22.173 9.185z"/><circle class="st3" cx="324.3" cy="489.8" r="22.2"/><path class="st0" d="M327.003 381.071l21.01-11.6 63.553 115.116-21.01 11.6z"/><circle class="st3" cx="400.5" cy="489.8" r="22.2"/><path class="st0" d="M100.508 484.689l63.553-115.128 21.012 11.599-63.553 115.128z"/><circle class="st3" cx="111.5" cy="489.8" r="22.2"/><path class="st0" d="M211.067 10.22l8.896-3.61 25.787 63.572-8.896 3.609z"/><circle class="st3" cx="216.1" cy="9" r="9"/><path class="st0" d="M266.255 70.023L292.042 6.45l8.896 3.609-25.786 63.572z"/><circle class="st3" cx="295.9" cy="9" r="9"/><path class="st0" d="M488 342.9c-2.5 0-4.9-.8-7.1-2.3l-80.3-58.8c-5.3-3.9-6.5-11.4-2.6-16.8 3.9-5.3 11.4-6.5 16.8-2.6l80.3 58.8c5.3 3.9 6.5 11.4 2.6 16.8-2.4 3.2-6 4.9-9.7 4.9zm-464 0c-3.7 0-7.3-1.7-9.7-4.9-3.9-5.3-2.7-12.8 2.6-16.8l80.3-58.8c5.3-3.9 12.8-2.7 16.8 2.6 3.9 5.3 2.7 12.8-2.6 16.8l-80.3 58.8c-2.2 1.6-4.7 2.3-7.1 2.3z"/><path class="st2" d="M258.5 55.8v50h-5V55.7h.7c1.4 0 2.8 0 4.3.1zm-16.1.5l-22.8 48.4 4.5 2.1 24-50.9c-1.9.1-3.8.3-5.7.4zm45.5 50.6l4.5-2.1-22.7-48.2c-1.9-.2-3.8-.4-5.7-.5l23.9 50.8z"/><circle class="st3" cx="394.2" cy="321.9" r="8.5"/><circle class="st3" cx="374.3" cy="343.8" r="10.5"/><path d="M209.8 489.8c0-4.8-1.6-9.3-4.2-13l21.7-52.4c7.3.9 14.9 1.5 22.8 1.9 2 .1 3.9.1 5.8.2V55.7h-2.5c-1.8 0-3.6.1-5.4.2-.9 0-1.8.1-2.7.2-1 .1-2 .2-3 .2-.7.1-1.4.2-2.1.2l-17.1-42C224.3 13 225 11 225 9c0-5-4-9-9-9s-9 4-9 9c0 4.3 3 7.9 7 8.8L230.5 58c-35.9 6.4-74.2 26.5-101.4 60.6-30 37.5-48.8 97-45.3 153.8L17 321.3c-5.3 3.9-6.5 11.4-2.6 16.8 2.3 3.2 6 4.9 9.7 4.9 2.5 0 4.9-.8 7.1-2.3l56.2-41.1c7.6 38.4 27 73.6 61.7 97.1l-39.2 71c-11.4.9-20.4 10.4-20.4 22.1 0 12.3 9.9 22.2 22.2 22.2s22.2-9.9 22.2-22.2c0-3.9-1-7.6-2.8-10.8l39-70.6c10.1 4.7 21.2 8.6 33.4 11.6l-19.9 48c-10.2 2-17.9 11-17.9 21.8 0 12.3 9.9 22.2 22.2 22.2s21.9-9.9 21.9-22.2z" opacity=".15" fill="#444"/></svg>