<svg xmlns="http://www.w3.org/2000/svg" viewBox="0 0 512 512" xml:space="preserve"><path d="M302.9 426.9C265.1 356.2 261 332.8 261 326c0-38.5 10.4-62.8 10.5-63.1l.1-.1c2.2-5.3 13.4-33.8 13.4-76.8 0-7.7 0-31.2-46-117.2-12.7-23.8-25.4-45.7-32.9-58.4-10.2 4.4-20.1 10.1-29.4 17 12.3 20.9 23 39.9 32.5 57.6 37.7 70.8 41.8 94.2 41.8 101 0 38.5-10.4 62.8-10.5 63.1l-.1.1C238.2 254.5 227 283 227 326c0 7.7 0 31.2 46 117.2 12.5 23.5 25.5 45.7 32.9 58.4 10.2-4.4 20.1-10.1 29.4-17-7.9-13.6-20.2-34.8-32.4-57.7z" fill="#e0ac7e"/><path d="M306.8 501.1c-16.1 7.1-33.2 10.9-50.8 10.9-97.2 0-176-114.6-176-256 0-100.3 39.7-187.2 97.5-229.2C185.9 41 198 62 210 84.6c37.9 70.9 42 94.6 42 101.4 0 38.6-10.5 63.3-10.6 63.5-.5 1.2-13.4 30.6-13.4 76.5 0 7.6 0 30.9 45.9 116.7 12.1 22.7 24.4 43.9 32.9 58.4zM256 0c-17.7 0-34.7 3.8-50.8 10.9 8.6 14.5 20.8 35.8 32.9 58.4C284 155.1 284 178.4 284 186c0 45.9-12.9 75.3-13.4 76.5-.1.2-10.6 24.9-10.6 63.5 0 6.8 4.1 30.5 42 101.4 12.1 22.5 24.2 43.5 32.5 57.7 57.8-42 97.5-128.8 97.5-229.1C432 114.6 353.2 0 256 0z" fill="#66442b"/></svg>