<svg version="1.1" xmlns="http://www.w3.org/2000/svg" x="0" y="0" viewBox="0 0 512 512" xml:space="preserve"><style type="text/css">.st0{fill:#ddc4b0}.st1{opacity:.15;fill:#444}.st2{fill:#36434f}.st4{fill:#e0ac7e}</style><path class="st0" d="M4 108h174v100H4z"/><path class="st1" d="M110.3 155.3l2.5 7.1c1.1 3.2-.3 5.6-3.1 5.2l-33.8-5.1c-1.3-.2-2.4-2.1-2.4-4.1v-4.7c0-1.8.9-3.2 2.1-3.2h28.8c2.4 0 5 2.1 5.9 4.8zM4 203h174v5H4z"/><path class="st2" d="M108.5 153.5v4c0 1.7-1.3 3-3 3h-29c-1.7 0-3-1.3-3-3v-4c0-1.7 1.3-3 3-3h29c1.7 0 3 1.3 3 3z"/><path class="st0" d="M4 208h174v100H4z"/><path class="st1" d="M4 303h174v5H4zm106.3-47.7l2.5 7.1c1.1 3.2-.3 5.6-3.1 5.2l-33.8-5.1c-1.3-.2-2.4-2.1-2.4-4.1v-4.7c0-1.8.9-3.2 2.1-3.2h28.8c2.4 0 5 2.1 5.9 4.8z"/><path class="st2" d="M108.5 253.5v4c0 1.7-1.3 3-3 3h-29c-1.7 0-3-1.3-3-3v-4c0-1.7 1.3-3 3-3h29c1.7 0 3 1.3 3 3z"/><path class="st0" d="M4 308h174v100H4z"/><path class="st1" d="M4 403h174v5H4zm106.3-47.7l2.5 7.1c1.1 3.2-.3 5.6-3.1 5.2l-33.8-5.1c-1.3-.2-2.4-2.1-2.4-4.1v-4.7c0-1.8.9-3.2 2.1-3.2h28.8c2.4 0 5 2.1 5.9 4.8z"/><path class="st2" d="M108.5 353.5v4c0 1.7-1.3 3-3 3h-29c-1.7 0-3-1.3-3-3v-4c0-1.7 1.3-3 3-3h29c1.7 0 3 1.3 3 3z"/><path fill="#826049" d="M178 142h330v187H178z"/><path class="st4" d="M0 99.5h512v8.5H0z"/><path class="st4" d="M503.475 414.725v-310.8h8.5v310.8zm-330 0v-310.8h8.5v310.8zm-173.5 0v-310.8h8.5v310.8z"/><path d="M182 194.6L504 278V143H182v51.6z" opacity=".15" fill="#444"/></svg>