<svg xmlns="http://www.w3.org/2000/svg" viewBox="0 0 512 512" xml:space="preserve"><style>.st0{fill:#e0ac7e}</style><path class="st0" d="M147 284h218v20H147zm0 49h218v20H147z"/><path class="st0" d="M154 512h-20V10c0-5.5 4.5-10 10-10s10 4.5 10 10v502zm224 0h-20V10c0-5.5 4.5-10 10-10s10 4.5 10 10v502z"/><path d="M358 284H154c-3.9 0-7-3.1-7-7v-1c0-3.9 3.1-7 7-7h204c3.9 0 7 3.1 7 7v1c0 3.9-3.1 7-7 7zm0-116H154c-3.9 0-7-3.1-7-7V22c0-3.9 3.1-7 7-7h204c3.9 0 7 3.1 7 7v139c0 3.9-3.1 7-7 7z" fill="#a18267"/><path d="M256 353v-20H154v-29h102v-35H154V168h102V15H154v-5c0-5.5-4.5-10-10-10s-10 4.5-10 10v502h20V353h102z" opacity=".15" fill="#444"/></svg>