<svg version="1.1" xmlns="http://www.w3.org/2000/svg" x="0" y="0" viewBox="0 0 512 512" xml:space="preserve"><style type="text/css">.st1{fill:#e0ac7e}.st3{opacity:.15;fill:#444}</style><path fill="#826049" d="M15 68h482v367H15z"/><path class="st1" d="M0 63.5h512v10H0zM0 123h512v10H0z"/><path class="st1" d="M492.05 447.95V63.45h10v384.5zm-482 .1V63.55h10v384.5z"/><path fill="#ddc4b0" d="M20 73h472v50H20z"/><path class="st3" d="M20 204.6L492 248v10-125H20z"/><path d="M273.5 96v4c0 1.7-1.3 3-3 3h-29c-1.7 0-3-1.3-3-3v-4c0-1.7 1.3-3 3-3h29c1.7 0 3 1.3 3 3z" fill="#36434f"/><path class="st3" d="M20 73v5.5L492 95V73z"/></svg>