<svg version="1.1" xmlns="http://www.w3.org/2000/svg" x="0" y="0" viewBox="0 0 512 512" xml:space="preserve"><style type="text/css">.st1{fill:#e0ac7e}</style><path d="M362.4 167.7l-17.9-1.4c-3.3-.3-5.8-3.1-5.5-6.5l10.9-139c.3-3.3 3.1-5.8 6.5-5.5l17.9 1.4c3.3.3 5.8 3.1 5.5 6.5l-10.9 139c-.3 3.3-3.2 5.8-6.5 5.5zM356 284H118c-3.3 0-6-2.7-6-6v-3c0-3.3 2.7-6 6-6h238v15z" fill="#a18267"/><path class="st1" d="M390.4 512L368 274.9l20.7-264.1c.5-5.8-4.1-10.8-10-10.8-5.2 0-9.6 4-10 9.2L348 275.1 370.3 512h20.1zM120.5 284h20v228h-20z"/><path class="st1" d="M131 332.5h231v20H131zm0-48.5h225v20H131z"/></svg>