<svg version="1.1" xmlns="http://www.w3.org/2000/svg" x="0" y="0" viewBox="0 0 512 512" xml:space="preserve"><style type="text/css">.st0{fill:#e0ac7e}.st1{opacity:.15;fill:#444}</style><path class="st0" d="M89 18h289v80H89z"/><path class="st0" d="M138 10l-34 502H60V10h78zm218 0l34 502h44V10h-78z"/><path class="st0" d="M81 261h336v35H81z"/><path class="st1" d="M434 49V10h-78l.5 8h-219l.5-8H60v39z"/><path d="M453 22H38c-4.4 0-8-3.6-8-8V8c0-4.4 3.6-8 8-8h415c4.4 0 8 3.6 8 8v6c0 4.4-3.6 8-8 8z" fill="#a18267"/><path class="st1" d="M256 296v-35H121l11-163h124V0H38c-4.4 0-8 3.6-8 8v6c0 4.4 3.6 8 8 8h22v490h44l14.6-216H256z"/></svg>