<svg version="1.1" xmlns="http://www.w3.org/2000/svg" x="0" y="0" viewBox="0 0 512 512" xml:space="preserve"><style type="text/css">.st0{fill:#ffcc80}.st1{fill:#36434f}.st3{fill:#f4f4f4}</style><path class="st0" d="M256 4.4c-90.2 0-163.3 69.5-163.3 155.3l21 205.7 2.8 17.2c4.1 40.6 26.1 76.3 61.6 99.2l27 17.4c11.9 7.7 26 11.8 40.4 11.8h21c14.4 0 28.5-4.1 40.4-11.8l27-17.4c35.5-22.9 57.5-58.6 61.6-99.2l2.8-17.2 21-205.7C419.3 73.9 346.2 4.4 256 4.4z"/><ellipse transform="rotate(-13.17 99.673 319.866)" class="st0" cx="99.6" cy="319.9" rx="25.9" ry="53.4"/><ellipse transform="rotate(-76.827 412.349 319.856)" class="st0" cx="412.4" cy="319.9" rx="53.4" ry="25.9"/><path class="st1" d="M431.8 132.9C431.2 59.4 353.3 1 256 1S80.8 59.4 80.2 132.9L94 216.3l-.9.3 14.1 84.9 8.2-166.4c36 16.1 85.7 26.1 140.7 26.1 55 0 104.7-10 140.7-26.1l8.2 166.4 14.1-85-.9-.4 13.6-83.2z"/><path d="M257.6 368.3h-3.2c-8.8 0-16-7.2-16-16v-16.4c0-8.8 7.2-16 16-16h3.2c8.8 0 16 7.2 16 16v16.4c0 8.8-7.1 16-16 16zm39.1 51.2v3.2c0 8.8-7.2 16-16 16h-49.5c-8.8 0-16-7.2-16-16v-3.2c0-8.8 7.2-16 16-16h49.5c8.9 0 16 7.2 16 16z" fill="#e3b877"/><circle class="st1" cx="188.7" cy="275.8" r="26.4"/><ellipse class="st3" cx="203.3" cy="270.9" rx="7.5" ry="8.5"/><circle class="st1" cx="323.3" cy="275.8" r="26.4"/><ellipse class="st3" cx="337.9" cy="270.9" rx="7.5" ry="8.5"/><path d="M256 313c-54.3 0-104 19.7-142.3 52.4l1.8 17.2c4.1 40.6 27.1 77.3 62.6 100.2l27 17.4c11.9 7.7 26 11.8 40.4 11.8h21c14.4 0 28.5-4.1 40.4-11.8l27-17.4c35.5-22.9 58.5-59.6 62.6-100.2l1.8-17.2C360 332.7 310.3 313 256 313zm0-313C158.7 0 79.8 59.4 79.2 132.9L93 216l.1.6C144 225.9 198.9 231 256 231s112-5.1 162.9-14.4l13.9-83.8C432.2 59.4 353.3 0 256 0z" fill="#3aaf9d"/><circle cx="256" cy="155.5" r="34.5" fill="#bbb"/><circle cx="256" cy="155.5" r="26.5" fill="#ddd"/><path d="M79.2 132.9L93 216l.1.6 9.2 55.7c-4.9-3.9-10-5.6-14.8-4.5-13.9 3.3-19.7 29.2-13 57.9 6.7 28.7 23.5 49.4 37.4 46.1.8-.2 1.6-.5 2.4-.8l1.2 11.6c4.1 40.6 27.1 77.3 62.6 100.2l27 17.4c11.9 7.7 26 11.8 40.4 11.8H256V0C158.7 0 79.8 59.4 79.2 132.9z" opacity=".15" fill="#444"/></svg>