<svg version="1.1" xmlns="http://www.w3.org/2000/svg" x="0" y="0" viewBox="0 0 512 512" xml:space="preserve"><path d="M308.8 512H159.6c.2-9.9 2-20.1.1-29.6-2.1-10.9-.3-21.7.6-32.6 1-12.3.6-24.6-.4-36.8-1.9-25.2-6.4-50.2-7.4-75.6-1.3-33.9 7.6-65.7 9.9-99.2 4.3-64.3-3.8-128.7-.3-193 .4-6.7 2.8-13.6 5.8-19.6 2.9-5.7 9.2-7.3 15.5-6.6 6.4.7 12.4 3.8 14.2 10 5.4 18.3 3.8 39.3 6.1 58.3 3 24.6 6.3 50.1 14.9 73.3 1.9 5.2 6.9 6.8 11.9 6.5.8 0 1.2-4.8 1.9-7.3 0-.2.1-.4.1-.5 4.2-29.9 11.3-59.3 20-88.1 4.4-14.5 9.2-28.8 14.2-43 3.9-11.1 6.1-24.4 19.4-27.6 10-2.4 23.3 6.2 21.8 16.3-3.5 23.9-12.4 47.3-17.3 71.1-2.8 13.4-5.2 26.8-7.3 40.4-1.4 9.4-7.8 30.4-3.8 38.4 4.8-4 7.9-11.9 11.3-17.3 3.8-6 12.8-11 17.8-9.5 19.3 5.9 32.9 22.4 25.2 43.5-.9 2.3-3.8 6.5-3.6 9 .5 4.5.8 2.4 4.9 4.4 6.6 3.2 12.2 4.9 16.1 11.7 3.5 6 8.1 12.5 8.4 19 .6 11.8-3.7 23.2-4.8 34.7-1.4 13.7-.6 27.9-1.4 41.7-1.6 27.1-5.2 54.3-14.3 80-7.2 20.4-17.7 39.6-24.5 60.2-7.5 22.4-6.2 44.4-5.8 67.8z" fill="#ffcc80"/><path d="M352.2 251c-2.6 9.2-4.9 18.5-7.2 27.8-2.1 8.4-4.7 16.8-5.9 25.3-1.6 11.8-10 20-20.4 20-2.6 0-5.4-.5-8.2-1.6-5.1-2-7.9-8.4-7.7-14.5.5-14.1 1.2-28.3 2-42.4.4-6.4.6-12.9 1.8-19.2.1-.3.1-.6.2-1 .4-1.9.8-3.8 1.4-5.7 1-3.5 2.2-7.1 3.3-10.6l.9-3c1.8-6 3.7-12 5.4-18.1 1.1-3.8 2.6-8 5.5-10.8 2-1.9 4.6-2.4 7.4-2-.3-.4-.5-1.2-.7-2.8-.2-1.5.9-3.7 1.9-5.6-.1.1-.2.2-.3.2-1 .8-4.3.2-5.7.5-2.2.5-4.3 1.5-6.2 2.7-3.7 2.4-7 5.9-8.1 10.2-1.5 5.4-3.2 11-4.8 16.3-2.5-5.8-7.2-10.6-13.8-13.9-5.2-2.5-11.6-1.9-17.4-1.1.1-1.9.3-3.7.4-5.6.5-8.7 1.9-17.3 2.8-26 .2-1.6.6-2.9 1.2-4.2l-.6.6c-1.5-3-1.5-7.8-.9-13.1-.3.4-.6.9-.9 1.3l-.3.5c-.3.5-.7 1-1 1.5-2.2 3.1-4.8 7.1-5.4 12.7-.3 3.3-.7 6.8-1.1 10.1-.6 5.3-1.3 10.7-1.7 16.2-.1 2.4-.3 4.7-.5 7.1-8.5 1-17 2.3-25.3 3.6-2.7.4-5.5.8-8.2 1.2-1.8.3-3.8.4-5.9.5-5.6.3-11.5.6-15.6 4.1-4.8 4.1-9 8.8-12.9 13.8-7.5-6.4-12.6-9.5-13.2-9.8-1.9-1.1-4.4-.5-5.5 1.4-1.1 1.9-.5 4.4 1.4 5.5.1.1 5 3.1 12.4 9.4l-1.5 2.1c-1 1.4-2.1 2.8-3.1 4.2-3.7 5-7.3 10.2-10.7 15.2-4.4 6.4-8.9 13-13.8 19.2-1.5 1.9-4.8 5.6-8.3 9.5-.2.3-.5.5-.7.8-.7 4.7-1.4 9.5-2 14.2 2.8-3.2 5.9-6.7 8.6-9.6 3.8-4.2 7-7.8 8.7-9.9 5-6.3 9.7-13.1 14.1-19.6 3.4-5 6.9-10.1 10.5-14.9 1.1-1.4 2.1-2.8 3.2-4.3 5.5-7.5 11.2-15.2 18-20.9 2.1-1.8 6.6-2 10.9-2.2 2.2-.1 4.5-.2 6.7-.6 2.8-.4 5.5-.8 8.3-1.3 9.1-1.4 18.5-2.8 27.8-3.9 1.3-.1 2.6-.3 4-.5 5.3-.7 10.8-1.5 14.2.2 4.7 2.3 10.5 6.8 11.2 14.9.8 8.9-3.5 21-12 25.1-1.7.8-3.5 1.7-5.2 2.5-11.6 5.7-23.7 11.5-36 15.5-5.7 1.9-9.7 3.6-12.6 10.5-1.4 3.2-3.6 6.2-5.9 9.4-1.3 1.8-2.7 3.6-3.9 5.6-1.1 1.7-1.8 3.6-2.4 5.3-.2.4-.3.9-.5 1.3-.4 1-.7 2-1 3-.4 1.5-.8 2.9-1.5 3.9-7.8 12.5-18 24-32 36.2-1.7 1.4-1.8 4-.4 5.6.8.9 1.9 1.4 3 1.4.9 0 1.9-.3 2.6-1 14.4-12.5 25.4-25 33.5-38 1.2-1.9 1.8-4 2.4-5.8.3-.9.5-1.7.8-2.4.2-.5.3-.9.5-1.4.5-1.4 1-2.7 1.6-3.7 1.1-1.7 2.3-3.4 3.6-5.2 1.1-1.5 2.2-3 3.2-4.6.7 1.4 1.5 2.8 2.2 4.2 24 48.1 10.8 105.8 10.7 106.4-.5 2.1.8 4.3 3 4.8.3.1.6.1.9.1 1.8 0 3.5-1.2 3.9-3.1.6-2.5 14.1-61-11.3-111.8-1.6-3.1-3.2-6.1-4.8-9 1.3-2.1 2.9-2.8 6.8-4.1 6-1.9 11.8-4.3 17.6-6.8 2.2 2.5 5 3.9 7.7 4.6 3.9 1.1 7.9 1.2 11.3 1.2h1c2.9 0 5.8-.7 8.7-2-.7 13.1-1.2 24.4-1.6 34.9-.3 10.1 4.8 19 12.7 22.2 3.7 1.5 7.4 2.2 11.2 2.2 14.5 0 26.2-11.1 28.3-26.9.8-5.8 2.3-11.6 3.9-17.7.6-2.2 1.2-4.5 1.8-6.8.4-1.5.7-3 1.1-4.5.1-4.7.3-9.3.8-13.9.8-7.8 3-15.6 4.2-23.5-.9 1.4-2.3 2.6-3.1 4.1-1.3 2.5-2.7 5.2-3.5 8.1zM297 263.2v.2c-2.9 2.1-6.2 3.4-9.2 3.4h-.2c-3.4-.1-6.8 0-10-.9-.6-.2-1.2-.4-1.7-.6 3.8-1.8 7.5-3.6 11.2-5.4 1.7-.8 3.5-1.7 5.2-2.5 1.9-.9 3.7-2.1 5.3-3.5-.2 3-.4 6.2-.6 9.3z" opacity=".15" fill="#444"/></svg>