<svg xmlns="http://www.w3.org/2000/svg" viewBox="0 0 512 512" xml:space="preserve"><path d="M357.1 298.9c-.3-2.8-.6-5.5-1-8.3-.4-2.7-.7-5.4-1-8.1l-5.2-7.4c.3-1.1.6-2.2.8-3.4 0-.8.1-1.5.1-2.3.1-1.1.2-2.2.3-3.2.4-4.1.8-7.9.2-11.5-2.1-11.3-9.3-18.6-23.3-23.7-.9 0-1.8.1-2.6.2L320 224l-.1-.3c.1-.6.4-1 .5-1.3 5.2-10.1 14.9-35-6-47.5-4.3-2.6-7.9-3.8-11.5-3.8h-.8c-2.9.1-6.1.9-9.8 2.4-.4.2-1.2.5-1.5.8-.2.2-.6.9-.8 1.3-1.2 2.5-2.4 5-3.5 7.5 0 .1 0 .2-.1.4L280 176l-.1-.4c5.7-28.4 6.4-34 6.4-35 .3-10-4.5-17.8-14.1-23.3-7.8-4.5-22-2.4-29.1 4.3-5.6 5.3-8.6 13-11.2 19.9-.5 1.4-1.7 7.1-2.9 13.7l-5.4-4.3c-.6-.6-1.1-1.4-1.6-2.2-.3-.5-.6-1.1-.8-1.6v-.1c-.3-.6-.5-1.2-.7-1.8v-.1c-.2-.6-.4-1.3-.6-1.9-.8-2.7-1.3-5.8-1.7-8.9-.1-.8-.2-1.5-.3-2.3-.4-4.5-.6-9-.7-12.8v-.6c0-.6 0-1.1-.1-1.6v-.2c0-.6-.1-1.1-.1-1.6-.8-13.5-.7-27-.2-40.5.4-11.2 3.2-22.3 3.9-33.6.7-10.6 5-21.8-1-31.8-2.4-4-8-7.4-12.8-8.6-13-3.3-21.2 7.8-23.4 19.4-2.7 14.1-4.5 28.4-6.9 42.6-1.9 11-4.4 21.9-6.4 32.9-4.9 26.9-5.6 55.9-7.9 83.3-2.4 29.2-4.2 58.5-5.5 87.8-.3 6.2-.5 12.3-.7 18.5-.3 8.5-.5 17-.7 25.6-.1 6.1-.3 12.2-.4 18.4-.1 6.2-.2 12.4-.2 18.6-.2 24.2 3.2 47.9 2.7 72-.2 12-1.7 23.9-2.1 35.9-.6 18.9.6 37.4-.2 56.3H308c0-13.1-.8-26.3.2-39.3 2.2-27.9 14.4-52.5 26.7-77.2 7.3-14.7 11.3-30.6 14.1-46.6 1.5-8.3 2.4-16.7 3.9-24.9 1.6-8.5 5.1-16.4 4.2-25.1z" fill="#ffcc80"/><path d="M349.9 275.2c-.1.3-.2.5-.2.8-.5 1.4-1.8 3-3.2 4.6-1.5 1.7-3.2 3.7-4.3 6-2 4.3-3.5 8.9-5 13.3-.7 2-1.3 4.1-2.1 6.1-1.2 3.3-2.4 6.7-3.5 10-3 8.7-6.2 17.7-9.7 26.2-3.8 9.2-8 15.8-16.4 18.3-3.3 1-7 .2-10-2.2-3.4-2.7-5.3-6.9-5-10.8.7-9.2 2.3-18.5 4.2-27.9.7-3.7 1.5-7.5 2.2-11.3 1.2-3.2 2.2-6.4 3.2-9.6.8-2.7 1.7-5.4 2.6-8.1l.8-2.4c2.4-6.9 4.9-14 7.7-20.7 1.2-2.9 2.6-5.7 4.1-8.6 2.3-4.7 4.7-9.5 6.2-14.7.4-1.2.7-2.5 1.1-3.7.9-3.3 1.8-6.4 3-9.3L320 224l-.1-.3c0 .2-.1.4-.1.6-2.4 4.6-3.8 9.4-5.1 14.1-.3 1.2-.7 2.4-1 3.6-1.3 4.5-3.5 8.8-5.7 13.3-1.5 3-3 6-4.3 9.2-2.9 7-5.4 14.2-7.8 21.2l-.8 2.4c-1 2.8-1.8 5.6-2.7 8.3-1.8 5.6-3.4 11-5.8 16-.6 1.2-3.9 3.1-6.9 3.6-6.4 1-13.2 1.9-19.5 1.1-.1-.6-.3-1.2-.4-1.8-1.4-5.7-3.1-11.4-5-17.2.7-3.6 1.6-7.3 2.5-10.8.6-2.4 1.2-4.8 1.7-7.3.3-1.2.5-2.4.8-3.6.1-.6.3-1.3.4-2 3.3-1.5 6.5-4 9.6-7.3l.6-.6c3.5-3.6 7.7-8.1 8.6-13.4 1.5-9.7 2.5-19.6 3.4-29.3 1.1-1.2 2.2-2.4 3.3-3.7 9.6-11 9.9-23 .9-36.6L280 176l-.1-.4c0 .1 0 .2-.1.3-8.8-7.3-21.8-8.1-36.4-1.9-5.7 2.4-11.2 5.2-16.6 8-.2-2-.3-3.9-.3-5.8 0-4.5 1.2-13.4 2.6-21.1l-5.4-4.3c-.6-.6-1.1-1.4-1.6-2.2 0-.1-.1-.1-.1-.2 0 .1.1.1.1.2-1.8 9.2-3.7 21.9-3.7 27.6 0 3.3.3 6.5.6 9.8-2.5 1.3-5.1 2.6-7.6 3.9-2.1 1-4.2 1.9-6.5 2.8-3.6 1.4-7.3 2.9-10.8 5.1-8.9 5.6-11.9 14.6-14.5 22.7-1.2 3.6-2.3 7-3.8 10-4 7.7-6.5 16.1-8.9 24.3-1.4 4.7-2.9 9.7-4.6 14.3-.7 2-1.8 4.6-2.9 7.6-1 2.6-2.1 5.5-3.3 8.5-.3 8.5-.5 17-.7 25.6 3.7-11.1 8.3-23 11.5-31.2 1.2-3.1 2.2-5.7 3-7.7 1.8-4.9 3.3-9.9 4.8-14.8 2.5-8.1 4.8-15.8 8.4-22.9 1.8-3.6 3.1-7.5 4.3-11.2 2.4-7.4 4.7-14.3 11.1-18.4 2.9-1.8 6.1-3.1 9.5-4.5 2.3-.9 4.7-1.9 7-3 4-1.9 7.9-4 11.8-6 6.4-3.4 13.1-6.8 19.8-9.7 9.8-4.2 23.1-6.9 31.2 3.8 9 11.9 9.6 20.8 1.8 29.7-13.3 15.1-26.6 29.2-44.6 36.9-2.6 1.1-2.7 3.8-2.8 4.9v.4c-1.5 3.4-1.7 6.4-1.1 9-.6 4.2-4.1 26.3-12.7 40.9-2.5 4.2-6.7 9.2-12.7 14.7-1.6 1.5-1.7 4-.2 5.7.8.8 1.9 1.3 2.9 1.3s2-.4 2.7-1.1c6.5-6.1 11.2-11.6 14.1-16.5 6.3-10.8 10.1-24.8 12-34.2.7 1 1.4 2 1.8 3 5.5 12.7 9.8 25.3 12.8 37.4 3 12.2 6.2 26.7 6.8 41.2.1 2.2 1.9 3.8 4 3.8h.2c2.2-.1 3.9-1.9 3.8-4.2-.4-11.4-2.4-22.6-4.6-32.8 1.1.1 2.2.1 3.3.1 5.3 0 10.5-.7 15.6-1.5 1.4-.2 3.2-.7 5.1-1.5-1.5 8.2-2.9 16.3-3.5 24.6-.5 6.6 2.6 13.3 8 17.7 3.6 2.9 7.9 4.4 12.1 4.4 1.8 0 3.5-.3 5.2-.8 12.1-3.7 17.4-13.2 21.5-23 3.6-8.8 6.8-17.9 9.8-26.6 1.2-3.3 2.3-6.7 3.5-10 .8-2.1 1.5-4.2 2.1-6.3 1.4-4.4 2.8-8.5 4.6-12.4.6-1.3 1.8-2.7 3-4.1.9-1 1.8-2.1 2.6-3.2l-5-7.5zm-98.8 3.1c-.5 2-.9 4-1.4 6-1-2.5-2.1-5.1-3.2-7.7-.1-.3-.3-.7-.5-1 1.8.5 3.6.8 5.5.8-.2.7-.3 1.3-.4 1.9zm.5-9.8c-3.9.1-8.2-2.1-12.5-6.5l-.1-.1c.1-.5.3-1.1.6-1.7.3-.7.5-1.3.5-1.9 12.9-5.9 23.4-14.7 33.2-24.7-.6 6.2-1.4 12.3-2.3 18.4-.4 2.8-3.8 6.3-6.4 9.1l-.6.6c-4.3 4.4-8.4 6.7-12.4 6.8z" opacity=".15" fill="#444"/></svg>