<svg xmlns="http://www.w3.org/2000/svg" viewBox="0 0 512 512" xml:space="preserve"><path d="M256 0C145.5 0 56 85.7 56 191.3l13.3 130.8c3.2 31.4 26.4 57 57.3 63.5l8.6 1.8c9.4 2 15.7 10.9 14.5 20.4l-5.3 39.6c-3.9 29.4 17.1 56.2 46.6 59.6l25.2 2.8c26.5 3 53.2 3 79.7 0l25.2-2.8c29.5-3.3 50.5-30.2 46.6-59.6l-5.3-39.6c-1.3-9.5 5-18.4 14.5-20.4l8.6-1.8c30.9-6.4 54.1-32.1 57.3-63.5L456 191.3C456 85.7 366.5 0 256 0z" fill="#ffcc80"/><path d="m127.9 300.5-1.8 23.6c-1.8 22.8 20.3 40 42 32.8l28.7-9.4c14-4.6 24.4-15.8 28.4-29.4.1-.3.2-.8.3-1.5 2.4-18.7-11-35.7-29.7-38.2l-34.8-4.6c-16.7-2.2-31.8 10-33.1 26.7zm256.2 0 1.8 23.6c1.8 22.8-20.3 40-42 32.8l-28.7-9.4c-14-4.6-24.4-15.8-28.4-29.4-.1-.3-.2-.8-.3-1.5-2.4-18.7 11-35.7 29.7-38.2l34.8-4.6c16.7-2.2 31.8 10 33.1 26.7zM281.5 410c0 11-11.4 19.9-25.5 19.9s-25.5-8.9-25.5-19.9 21.6-51.1 25.5-51.1c3.9 0 25.5 40.1 25.5 51.1z" fill="#e0ac7e"/><path d="m56 191.3 13.3 130.8c3.2 31.4 26.4 57 57.3 63.5l8.6 1.8c9.4 2 15.7 10.9 14.5 20.4l-5.3 39.6c-3.9 29.4 17.1 56.2 46.6 59.6l25.2 2.8c13.2 1.5 26.5 2.2 39.9 2.2V0C145.5 0 56 85.7 56 191.3z" opacity=".15" fill="#444"/></svg>