<svg version="1.1" xmlns="http://www.w3.org/2000/svg" x="0" y="0" viewBox="0 0 512 512" xml:space="preserve"><path d="M314.3 512h-151c.2-7.9 2.1-16.2.4-23.7-2.8-11.9-1.7-23.4-1.5-35.3.3-16.8-.5-33.6-1.2-50.3-.5-12.2-2.7-24.3-2.3-36.4.7-23.2 2.7-46.3 4.2-69.4 1.6-23.5 4.5-47.1 4.4-70.6-.1-15.6-4.7-31.1-6.7-46.7-2.3-18.4-4.5-36.8-5.8-55.2-1-14.2-.4-28.6-.8-42.9-.5-18.4-1.9-36.8-1.8-55.1 0-8.5 6.7-13.7 14.6-15.1 4.3-.8 9.3.8 13.7 2.4 8.9 3.2 10.7 11.9 11.9 19.5 2.4 15.1 3 30.4 5.1 45.5 2.3 15.8 5.4 31.5 8.5 47.1 1.7 8.4 3.8 16.8 6.4 24.9 2.3 7.2 5.5 14.1 8.4 21.1.2.4 1 .6 1.5.8.1 0 .4-.4.4-.6-.2-3.4-.4-6.9-.7-10.3-1-13.5-3.1-27-2.8-40.5.3-11.2 3.7-22.2 5.2-33.4 2.3-16.9 3.8-34 6.1-50.9 1.3-9.3 2.6-18.9 5.5-27.8 2.3-7 9.6-9.7 16.6-9.1 7.4.6 14.9 3.9 16.5 11.8 1.5 7.3.9 15.1.6 22.6-.7 17-2.4 33.9-2.5 50.8-.2 19 .5 38 1.7 57 .6 9.5 2.9 18.9 5.1 28.1.4 1.5 4.5 5.2 6.1 4.7 2.4-.6 2.6-7.2 3-8.9 1.8-8.6 3.5-17.2 6-25.7 4.8-16.7 10.8-33.2 15.6-49.9 3.1-10.9 4.9-22.2 7.7-33.2 1.7-6.8 2.7-14.5 6.6-20 6.3-9 18.9-8.3 27 1.9 3.3 4.2 3.4 12.2 2.7 18.1-1.9 15.1-5 30.1-7.7 45.2-2.6 14.6-5.2 29.3-8 43.9-1.3 6.8-2.8 13.6-4.1 20.4-1.4 7.2-2.8 10.3 5.3 11.8 14.9 2.8 27.4 18.2 25.6 33.3-1.6 13.8-.1 27.9.2 41.9.6 29.7-1.5 59.6-7.4 88.8-3 14.8-7.1 29.5-12.1 43.8-4.8 13.4-13.3 26.7-16.5 40.4-2.7 11.8-4.4 23.9-5.7 36-1.9 16.5-2.8 32.9-4 49.2z" fill="#ffcc80"/><path d="M359.8 254c-.2-11.4-1.3-22.9-.8-34.3-.6 1.6-1.3 3.3-1.7 5-1 4.6-1.4 9.4-2.4 14-2.3 11.4 1.7 25.1-9.6 33.3-2.5 1.8-6.4 2.7-10.1 2.7-1.7 0-3.4-.2-4.9-.6-2.2-.6-4.7-2.1-6.7-4.1.7-.4 1.4-.7 2-1.1 7.5-4.3 12.6-12.7 14.2-22.9 1.7-11-1.1-21.8-7.5-28.9-7.8-8.5-17-7.6-24.9-6.1-1.1-8-.9-15.9 4.4-23.6 3.7-5.3 9.1-9.6 16-9.6 1.1 0 1.7-.2 2.5-.2-3.3-1.4-3.2-3.8-2.4-7.8h-.2c-8.8 0-16.8 4.6-22.6 13-6.9 10-7 20.4-5.7 29.7-5.4 1.2-10.7 2.8-15.8 4.5-5.9 1.9-11.5 3.6-17.2 4.7-.9.2-1.8.3-2.7.5-9.3 1.7-19 3.5-27.4 10.7-3.8 3.2-7.7 6.3-11.6 9.4-14.6-8.1-28-13.3-29-13.7-2.1-.8-4.4.2-5.2 2.3-.8 2.1.2 4.4 2.3 5.2.2.1 11.9 4.6 25 11.6-.6.5-1.2.9-1.8 1.4-5.2 4-10.5 8.1-15.7 12.3-11.7 9.5-22.2 18.6-32.3 27.8-2.2 2-3.8 4.4-5.3 6.8l-.1.7c-.3 4.1-.6 8.2-.8 12.2 3.9-2.9 4.1-3 4.4-3.5 1-1.4 1.9-2.9 2.7-4.3 1.4-2.3 2.7-4.5 4.4-6 10-9.1 20.4-18.1 32-27.5 5.1-4.1 10.4-8.2 15.5-12.2 6.8-5.3 13.9-10.7 20.6-16.4 6.8-5.8 14.6-7.2 23.6-8.9.9-.2 1.8-.3 2.8-.5 6.2-1.2 12.3-3.1 18.1-4.9 6.2-1.9 12-3.8 18-4.9.9-.2 1.7-.3 2.6-.5 7.6-1.5 14.1-2.7 19.6 3.3 4.7 5.2 6.9 13.7 5.5 22.3-1.2 7.8-5 14-10.3 17.1-7.6 4.4-16.1 7.8-24.3 11.1l-2.8 1.1c-4 1.6-8.2 3-12.3 4.4-5.1 1.8-10.5 3.6-15.6 5.8-4.6 2-8.5 5.7-11.9 8.9l-.5.5c-4.1 3.9-8.2 8.2-13.4 14.2-2.7 3.1-5.3 6.3-7.8 9.4-4.8 6-9.4 11.6-14.7 16.6-5.9 5.5-12.6 10.5-19.2 15.3-3.3 2.4-6.8 5-10.1 7.6-1.7 1.4-2 3.9-.7 5.6.8 1 2 1.5 3.2 1.5.9 0 1.7-.3 2.5-.8 3.2-2.5 6.6-5 9.9-7.4 6.7-4.9 13.7-10 19.9-15.9 5.7-5.4 10.7-11.5 15.5-17.4 2.5-3 5-6.2 7.6-9.1 5-5.7 9-9.9 12.9-13.6l.5-.5c.3-.3.6-.5.9-.8 5.5 20.7 7.3 43.1 7.3 43.4.2 2.1 1.9 3.7 4 3.7h.3c2.2-.2 3.9-2.1 3.7-4.3-.1-1.5-2.1-26.2-8.5-48.3.6-.4 1.3-.7 1.9-1 4.8-2.1 10-3.9 15-5.6 4.2-1.4 8.5-2.9 12.7-4.6l2.8-1.1c5.3-2.1 10.6-4.2 15.9-6.7 3.2 3.8 7.7 7 12.2 8.1 2.1.5 4.4.8 6.8.8 3.4 0 9.8-.6 14.8-4.2 5.4-3.9 8.3-8.7 9.8-13.6.3-3.8.3-7.4.2-11.1z" opacity=".15" fill="#444"/></svg>