<svg version="1.1" xmlns="http://www.w3.org/2000/svg" x="0" y="0" viewBox="0 0 512 512" xml:space="preserve"><style type="text/css">.st2{fill:#444}</style><path d="M401.5 512H244c-1-17.9-2.5-35.7-2.8-53.6-.1-8.1-3.9-13.5-8.8-18.7-8-8.5-16.4-16.7-24.4-25.2-11.1-11.9-22.3-23.8-33-36.1-7.8-9-15.6-18.3-21.9-28.4-5-8.1-6.4-18.4-11.5-26.4-8.2-12.9-17.5-25.1-27.3-36.9-8.6-10.3-18.6-19.5-27.8-29.4-2.7-2.9-7-6.5-6.7-9.5.8-8.5 7.4-13.5 15.2-15.1 16.3-3.4 31.5 1 44.7 10.3 7.6 5.3 13.7 12.7 20.3 19.4 6.1 6.3 11.7 13.2 17.9 19.4 3.7 3.7 7.1 11 13.7 6.6 14-9.4 23.5-22.3 26.9-39.2 2-10 4.3-19.8 6.3-29.8 2.2-11 5.1-21.9 6.2-33 1.7-18.6 1.5-37.3 3.4-55.8 1.7-16.2 4.8-32.3 8-48.3 2.6-13.4 5.8-26.6 9.5-39.7 2-7.3 7.1-13.6 14.9-14.2 5.6-.4 11.4 2.7 17.1 4.3.9.2 1.6 1 2.4 1.5.4-.9.9-1.8 1.1-2.7 1.8-7.4 2.5-15.3 5.7-22C296.2 2.9 303-.8 310.8.1c7.3.8 13 5 15.3 11.8 1.5 4.4.4 9.8.4 14.7v4.7c1.4-.2 2.8-.3 4.1-.7 8.8-3.1 18.5-.7 21.3 6.7 3.4 9.1 5.6 18.8 7.4 28.4 1.4 7.6 1.3 15.5 1.9 23.2 0 .6.5 1.1.7 1.7.7-.4 1.4-.7 2-1.2 4.9-5.1 13.5-5.9 18.8-2.2 10.5 7.4 12.3 19.2 14.7 30.3 3 14 4.3 28.4 6.5 42.6 2.5 16 4.9 31.9 7.9 47.8 1 5.6 2.5 11.1 4.1 16.6.6 2 1.3 4 2 6.1 3.8 11.3 9.8 22.1 12 33.7 2.4 12.3 2.9 25.3 2.1 37.8-1.2 19.3-3.9 38.6-6.6 57.8-1.2 8.8-3.6 17.5-6.2 26.1-3.2 10.5-7.1 20.9-11 31.2-7.2 18.9-9.7 38.7-9.7 58.7.1 11.9 2 24 3 36.1z" fill="#ffcc80"/><g opacity=".15"><path class="st2" d="M391.9 266.1c.1 2.4-1.8 4.2-4 4.2-.2 0-.5 0-.7-.1-6.2-1.1-13.4-2-21-2.9-14.7-1.8-30-3.6-41.5-7.6-11.9-4.1-24.4-11.3-35.3-17.7-5.6-3.2-10.8-6.3-15.2-8.4-1.9-.9-2.9-3.1-2.2-5.1.9-2.2 3.4-3.2 5.5-2.2 4.7 2.3 10.1 5.5 15.9 8.8 10.6 6.2 22.7 13.2 33.9 17.1 10.7 3.7 25.5 5.5 39.8 7.2 7.7.9 14.9 1.8 21.4 2.9 1.8.4 3.4 1.9 3.4 3.8zM278 317.5c-25.4-14.3-64.8-27.7-81-32.9-1.7 1.3-3.4 2.6-5.2 3.8-1.9 1.3-3.6 1.6-5 1.3l.6.3c.6.2 55.4 17 86.7 34.5 30.3 17 44.1 55.5 44.2 55.8.6 1.6 2.1 2.7 3.8 2.7.4 0 .9-.1 1.3-.2 2.1-.7 3.2-3 2.5-5.1-.7-1.7-15-41.7-47.9-60.2zm87.9-146c-.1.5-.2 1-.2 1.5l.6 17.8c.1 1.5.7 2.7 1.8 3.6.9.7 2 1.2 3.2 1.2h.2c1.2 0 2.3-.5 3.1-1.2.9-.8 1.2-2 1.1-3.1-.4-3.8-1.5-14.3-1.8-18.5 0-.7-.1-1.4-.1-2.1 0-.6-.1-1.1-.1-1.7-.5-9.3-1-20.5-1.6-33.4-.5-10.1-1-21.5-1.6-34-.1-2.9-.3-8.6-.4-10.5l.8-5.6s0-.1-.1 0c-2.6.7-5 2-6.8 3.9-.5.5-1.3.8-2 1.2 0 .1.2 7.7.4 11.4 1.6 29.6 2.5 52.6 3.5 69.5zm-92 9.5c0 1.2.8 2.3 1.9 2.8.5.2 1.1.3 1.7.3h.2c1.9-.1 3.4-1.1 4.2-2.7.4-.7.6-1.6.6-2.5l-.6-17.8c0-.3-.1-.5-.1-.7 0-13 .1-26.9.2-37.3.2-14.7 1-29.4 1.8-44.1.8-14.6.9-30.3 2.7-44.7-.8-.5-1.6-1.2-2.4-1.5-1.8-.5-3.7-1.2-5.5-1.8h-.1v2.8c-1.3 10.3-1.7 21-2.1 31.4-.2 4.6-.4 9-.6 13.3-.8 13.7-1.6 29.2-1.8 44.4-.1 10.1-.2 22.6-.2 34.4 0 7.5.1 19.4.1 23.7zm51.6-14.1c0 .4 0 .9.1 1.3.1.9.5 1.7 1.2 2.2.8.6 1.8.9 2.8.9h.2c.8 0 1.5-.2 2.2-.6 1.2-.6 1.8-1.9 1.8-3.3-.2-3.6-.7-12.6-.8-17.3-.1-1.6-.1-3.2-.2-4.9-.5-15.6-1-32.4-.8-45.2 0-2.6.1-5.3.1-7.9.2-15 .4-30.5 1-45.6.1-3.5.6-7.3 1.1-10.9.1-.9.3-1.9.4-2.8l1-3.4v-.1c-1.6.2-3.1.6-4.7 1.1-1.3.4-2.7.5-4.1.7-.6 4.8-1.5 9.9-1.7 15-.7 17.9-.8 35.8-1.1 53.7-.2 13 .3 30.1.8 45.8.3 7.8.5 15.1.7 21.3z"/><path class="st2" d="M391.9 266.1c.1 2.4-1.8 4.2-4 4.2-.2 0-.5 0-.7-.1-6.2-1.1-13.4-2-21-2.9-14.7-1.8-30-3.6-41.5-7.6-11.9-4.1-24.4-11.3-35.3-17.7-5.6-3.2-10.8-6.3-15.2-8.4-1.9-.9-2.9-3.1-2.2-5.1.9-2.2 3.4-3.2 5.5-2.2 4.7 2.3 10.1 5.5 15.9 8.8 10.6 6.2 22.7 13.2 33.9 17.1 10.7 3.7 25.5 5.5 39.8 7.2 7.7.9 14.9 1.8 21.4 2.9 1.8.4 3.4 1.9 3.4 3.8zM278 317.5c-25.4-14.3-64.8-27.7-81-32.9-1.7 1.3-3.4 2.6-5.2 3.8-1.9 1.3-3.6 1.6-5 1.3l.6.3c.6.2 55.4 17 86.7 34.5 30.3 17 44.1 55.5 44.2 55.8.6 1.6 2.1 2.7 3.8 2.7.4 0 .9-.1 1.3-.2 2.1-.7 3.2-3 2.5-5.1-.7-1.7-15-41.7-47.9-60.2zm87.9-146c-.1.5-.2 1-.2 1.5l.6 17.8c.1 1.5.7 2.7 1.8 3.6.9.7 2 1.2 3.2 1.2h.2c1.2 0 2.3-.5 3.1-1.2.9-.8 1.2-2 1.1-3.1-.4-3.8-1.5-14.3-1.8-18.5 0-.7-.1-1.4-.1-2.1 0-.6-.1-1.1-.1-1.7-.5-9.3-1-20.5-1.6-33.4-.5-10.1-1-21.5-1.6-34-.1-2.9-.3-8.6-.4-10.5l.8-5.6s0-.1-.1 0c-2.6.7-5 2-6.8 3.9-.5.5-1.3.8-2 1.2 0 .1.2 7.7.4 11.4 1.6 29.6 2.5 52.6 3.5 69.5zm-92 9.5c0 1.2.8 2.3 1.9 2.8.5.2 1.1.3 1.7.3h.2c1.9-.1 3.4-1.1 4.2-2.7.4-.7.6-1.6.6-2.5l-.6-17.8c0-.3-.1-.5-.1-.7 0-13 .1-26.9.2-37.3.2-14.7 1-29.4 1.8-44.1.8-14.6.9-30.3 2.7-44.7-.8-.5-1.6-1.2-2.4-1.5-1.8-.5-3.7-1.2-5.5-1.8h-.1v2.8c-1.3 10.3-1.7 21-2.1 31.4-.2 4.6-.4 9-.6 13.3-.8 13.7-1.6 29.2-1.8 44.4-.1 10.1-.2 22.6-.2 34.4 0 7.5.1 19.4.1 23.7zm51.6-14.1c0 .4 0 .9.1 1.3.1.9.5 1.7 1.2 2.2.8.6 1.8.9 2.8.9h.2c.8 0 1.5-.2 2.2-.6 1.2-.6 1.8-1.9 1.8-3.3-.2-3.6-.7-12.6-.8-17.3-.1-1.6-.1-3.2-.2-4.9-.5-15.6-1-32.4-.8-45.2 0-2.6.1-5.3.1-7.9.2-15 .4-30.5 1-45.6.1-3.5.6-7.3 1.1-10.9.1-.9.3-1.9.4-2.8l1-3.4v-.1c-1.6.2-3.1.6-4.7 1.1-1.3.4-2.7.5-4.1.7-.6 4.8-1.5 9.9-1.7 15-.7 17.9-.8 35.8-1.1 53.7-.2 13 .3 30.1.8 45.8.3 7.8.5 15.1.7 21.3z"/></g></svg>