<svg version="1.1" xmlns="http://www.w3.org/2000/svg" x="0" y="0" viewBox="0 0 512 512" xml:space="preserve"><style type="text/css">.st0{fill:#36434f}.st3{fill:#999}</style><path class="st0" d="M494.6 150.4H17.4c-9.6 0-17.4 7.8-17.4 17.4v326.9c0 9.6 7.8 17.4 17.4 17.4h477.3c9.6 0 17.4-7.8 17.4-17.4V167.8c-.1-9.6-7.9-17.4-17.5-17.4z"/><path fill="#ddd" d="M31.8 169.2h448.4v324H31.8z"/><path class="st0" d="M329 124h-88c-3.3 0-6-2.7-6-6V99c0-3.3 2.7-6 6-6h88c3.3 0 6 2.7 6 6v19c0 3.3-2.7 6-6 6z"/><path fill="#bbb" d="M284 0h17v93h-17z"/><path class="st0" d="M280.6 96.9c-1-.5-25.6-12.4-25.6-26.9 0-7.7 4.3-23.3 8.5-38.4 3.6-13 7-25.3 7.5-31.7l2 .1c-.5 6.6-3.9 19-7.5 32.1-4.2 15-8.5 30.5-8.5 37.8 0 13.2 24.2 25 24.4 25.1l-.8 1.9z"/><path class="st0" d="M318.2 98.6c-.1-.1-8.9-10.9-13.7-13.8-1.1-.7-2.6-1.3-4.2-2-5.6-2.4-14-6.1-21.1-16.3-9.1-13-8.2-64.3-8.2-66.5h2c0 .5-.9 52.8 7.8 65.4 6.7 9.7 14.5 13.1 20.2 15.6 1.7.8 3.3 1.4 4.5 2.1 5.1 3.1 13.9 13.8 14.3 14.2l-1.6 1.3z"/><circle class="st3" cx="310.5" cy="113.5" r="2.5"/><circle class="st3" cx="320.5" cy="113.5" r="2.5"/></svg>