<svg version="1.1" xmlns="http://www.w3.org/2000/svg" x="0" y="0" viewBox="0 0 512 512" xml:space="preserve"><style type="text/css">.st0{fill:#f4f4f4}.st1{fill:#cc584c}.st3{fill:#ddd}</style><path class="st0" d="M0 76h512v360H0z"/><circle class="st1" cx="38" cy="114" r="25"/><path d="M499 282c0 4.4-3.6 8-8 8H21c-4.4 0-8-3.6-8-8V158c0-4.4 3.6-8 8-8h470c4.4 0 8 3.6 8 8v124z" fill="#2e86b7"/><path class="st0" d="M22.5 220l20 12.5-4.6-12.5 4.6-12.5zm467 0l-20 12.5 4.6-12.5-4.6-12.5z"/><circle class="st0" cx="236" cy="274.5" r="5"/><circle class="st0" cx="256" cy="274.5" r="5"/><circle class="st0" cx="276" cy="274.5" r="5"/><path class="st3" d="M13 311h218v12H13zm0 25h218v12H13zm0 25h218v12H13zm0 25h218v12H13zm0 25h218v12H13zm268-100h109v12H281zm0 25h109v12H281zm0 25h109v12H281zm0 25h218v12H281zm0 25h218v12H281z"/><path class="st1" d="M403 365c0 4.4 3.6 8 8 8h80c4.4 0 8-3.6 8-8v-46c0-4.4-3.6-8-8-8h-80c-4.4 0-8 3.6-8 8v46z"/><path class="st3" d="M419 108h80v12h-80zm-93 0h80v12h-80zm-93 0h80v12h-80z"/><path opacity=".15" fill="#444" d="M0 76h256v360H0z"/></svg>