<svg version="1.1" xmlns="http://www.w3.org/2000/svg" x="0" y="0" viewBox="0 0 512 512" xml:space="preserve"><path d="M112.5 21c-2.2 0-4 1.8-4 4v6h-11c-2.2 0-4 1.8-4 4v22c0 2.2 1.8 4 4 4h11v6c0 2.2 1.8 4 4 4h78V21h-78zm0 70c-2.2 0-4 1.8-4 4v6h-11c-2.2 0-4 1.8-4 4v22c0 2.2 1.8 4 4 4h11v6c0 2.2 1.8 4 4 4h78V91h-78zm0 70c-2.2 0-4 1.8-4 4v6h-11c-2.2 0-4 1.8-4 4v22c0 2.2 1.8 4 4 4h11v6c0 2.2 1.8 4 4 4h78v-50h-78zm0 70c-2.2 0-4 1.8-4 4v6h-11c-2.2 0-4 1.8-4 4v22c0 2.2 1.8 4 4 4h11v6c0 2.2 1.8 4 4 4h78v-50h-78zm0 70c-2.2 0-4 1.8-4 4v6h-11c-2.2 0-4 1.8-4 4v22c0 2.2 1.8 4 4 4h11v6c0 2.2 1.8 4 4 4h78v-50h-78zm0 70c-2.2 0-4 1.8-4 4v6h-11c-2.2 0-4 1.8-4 4v22c0 2.2 1.8 4 4 4h11v6c0 2.2 1.8 4 4 4h78v-50h-78zm0 70c-2.2 0-4 1.8-4 4v6h-11c-2.2 0-4 1.8-4 4v22c0 2.2 1.8 4 4 4h11v6c0 2.2 1.8 4 4 4h78v-50h-78zm287-420c2.2 0 4 1.8 4 4v6h11c2.2 0 4 1.8 4 4v22c0 2.2-1.8 4-4 4h-11v6c0 2.2-1.8 4-4 4h-78V21h78zm0 70c2.2 0 4 1.8 4 4v6h11c2.2 0 4 1.8 4 4v22c0 2.2-1.8 4-4 4h-11v6c0 2.2-1.8 4-4 4h-78V91h78zm0 70c2.2 0 4 1.8 4 4v6h11c2.2 0 4 1.8 4 4v22c0 2.2-1.8 4-4 4h-11v6c0 2.2-1.8 4-4 4h-78v-50h78zm0 70c2.2 0 4 1.8 4 4v6h11c2.2 0 4 1.8 4 4v22c0 2.2-1.8 4-4 4h-11v6c0 2.2-1.8 4-4 4h-78v-50h78zm0 70c2.2 0 4 1.8 4 4v6h11c2.2 0 4 1.8 4 4v22c0 2.2-1.8 4-4 4h-11v6c0 2.2-1.8 4-4 4h-78v-50h78zm0 70c2.2 0 4 1.8 4 4v6h11c2.2 0 4 1.8 4 4v22c0 2.2-1.8 4-4 4h-11v6c0 2.2-1.8 4-4 4h-78v-50h78zm0 70c2.2 0 4 1.8 4 4v6h11c2.2 0 4 1.8 4 4v22c0 2.2-1.8 4-4 4h-11v6c0 2.2-1.8 4-4 4h-78v-50h78z" fill="#ddd"/><path d="M357.5 512h-203c-2.2 0-4-1.8-4-4V4c0-2.2 1.8-4 4-4h203c2.2 0 4 1.8 4 4v504c0 2.2-1.8 4-4 4z" fill="#36434f"/><path d="M154.5 0c-2.2 0-4 1.8-4 4v17h-38c-2.2 0-4 1.8-4 4v6h-11c-2.2 0-4 1.8-4 4v22c0 2.2 1.8 4 4 4h11v6c0 2.2 1.8 4 4 4h38v20h-38c-2.2 0-4 1.8-4 4v6h-11c-2.2 0-4 1.8-4 4v22c0 2.2 1.8 4 4 4h11v6c0 2.2 1.8 4 4 4h38v20h-38c-2.2 0-4 1.8-4 4v6h-11c-2.2 0-4 1.8-4 4v22c0 2.2 1.8 4 4 4h11v6c0 2.2 1.8 4 4 4h38v20h-38c-2.2 0-4 1.8-4 4v6h-11c-2.2 0-4 1.8-4 4v22c0 2.2 1.8 4 4 4h11v6c0 2.2 1.8 4 4 4h38v20h-38c-2.2 0-4 1.8-4 4v6h-11c-2.2 0-4 1.8-4 4v22c0 2.2 1.8 4 4 4h11v6c0 2.2 1.8 4 4 4h38v20h-38c-2.2 0-4 1.8-4 4v6h-11c-2.2 0-4 1.8-4 4v22c0 2.2 1.8 4 4 4h11v6c0 2.2 1.8 4 4 4h38v20h-38c-2.2 0-4 1.8-4 4v6h-11c-2.2 0-4 1.8-4 4v22c0 2.2 1.8 4 4 4h11v6c0 2.2 1.8 4 4 4h38v17c0 2.2 1.8 4 4 4H256V0H154.5z" opacity=".15" fill="#444"/></svg>