<svg version="1.1" xmlns="http://www.w3.org/2000/svg" x="0" y="0" viewBox="0 0 512 512" xml:space="preserve"><path fill="#36434f" d="M0 0h512v512H0z"/><path d="M10 10h48v9H10zm56 0h48v9H66zM26 28h40v9H26zm48 0h104v9H74zm112 0h8v9h-8zm16 0h88v9h-88zM42 46h32v9H42zm40 0h32v9H82zM42 64h64v9H42zm72 0h64v9h-64zM42 82h24v9H42zm32 0h160v9H74zm168 0h40v9h-40zm48 0h56v9h-56zM58 100h40v9H58zm0 18h40v9H58zm48 0h8v9h-8zm16 0h32v9h-32zm-80 18h24v9H42zm0 36h24v9H42zm32 0h120v9H74zm-16 18h8v9h-8zm16 0h24v9H74zm32 0h296v9H106zm-48 18h8v9h-8zm16 0h32v9H74zm40 0h40v9h-40zm48 0h56v9h-56zm64 0h48v9h-48zm56 0h16v9h-16zm24 0h32v9h-32zm40 0h80v9h-80zM58 226h24v9H58zm32 0h8v9h-8zm16 0h288v9H106zm296 0h56v9h-56zM58 262h8v9h-8zm16 0h40v9H74zm48 0h16v9h-16zm24 0h32v9h-32zm40 0h48v9h-48zm56 0h64v9h-64zm72 0h32v9h-32zm40 0h16v9h-16zm24 0h48v9h-48zM58 280h224v9H58zm0 18h40v9H58zm48 0h96v9h-96zm104 0h72v9h-72zM58 334h160v9H58zm168 0h16v9h-16zm24 0h48v9h-48zM74 352h72v9H74zm80 0h8v9h-8zm16 0h104v9H170zm-96 18h80v9H74zm88 0h8v9h-8zm16 0h176v9H178zM74 388h40v9H74zm48 0h8v9h-8zm16 0h136v9H138zm-64 18h56v9H74zm64 0h8v9h-8zm16 0h152v9H154zm-80 18h88v9H74zm96 0h8v9h-8zm16 0h184v9H186zM58 442h24v9H58zm-16 18h24v9H42zm-16 18h24v9H26zm-16 18h24v9H10z" fill="#999"/></svg>