<svg xmlns="http://www.w3.org/2000/svg" viewBox="0 0 512 512" xml:space="preserve"><style>.st1{fill:#ddd}.st2{opacity:.15;fill:#444}</style><path d="M412.5 444.5h-313c-17.7 0-32-14.3-32-32v-313c0-17.7 14.3-32 32-32h313c17.7 0 32 14.3 32 32v313c0 17.7-14.3 32-32 32z" fill="#36434f"/><path class="st1" d="M111 512h-10c-1.1 0-2-.9-2-2v-70c0-1.1.9-2 2-2h10c1.1 0 2 .9 2 2v70c0 1.1-.9 2-2 2z"/><path class="st2" d="M99 462h14v13H99zm0 27h14v5H99z"/><path class="st1" d="M131 512h-10c-1.1 0-2-.9-2-2v-70c0-1.1.9-2 2-2h10c1.1 0 2 .9 2 2v70c0 1.1-.9 2-2 2z"/><path class="st2" d="M119 462h14v13h-14zm0 27h14v5h-14z"/><path class="st1" d="M151 512h-10c-1.1 0-2-.9-2-2v-70c0-1.1.9-2 2-2h10c1.1 0 2 .9 2 2v70c0 1.1-.9 2-2 2z"/><path class="st2" d="M139 462h14v13h-14zm0 27h14v5h-14z"/><path class="st1" d="M171 512h-10c-1.1 0-2-.9-2-2v-70c0-1.1.9-2 2-2h10c1.1 0 2 .9 2 2v70c0 1.1-.9 2-2 2z"/><path class="st2" d="M159 462h14v13h-14zm0 27h14v5h-14z"/><path class="st1" d="M191 512h-10c-1.1 0-2-.9-2-2v-70c0-1.1.9-2 2-2h10c1.1 0 2 .9 2 2v70c0 1.1-.9 2-2 2z"/><path class="st2" d="M179 462h14v13h-14zm0 27h14v5h-14z"/><path class="st1" d="M211 512h-10c-1.1 0-2-.9-2-2v-70c0-1.1.9-2 2-2h10c1.1 0 2 .9 2 2v70c0 1.1-.9 2-2 2z"/><path class="st2" d="M199 462h14v13h-14zm0 27h14v5h-14z"/><path class="st1" d="M231 512h-10c-1.1 0-2-.9-2-2v-70c0-1.1.9-2 2-2h10c1.1 0 2 .9 2 2v70c0 1.1-.9 2-2 2z"/><path class="st2" d="M219 462h14v13h-14zm0 27h14v5h-14z"/><path class="st1" d="M251 512h-10c-1.1 0-2-.9-2-2v-70c0-1.1.9-2 2-2h10c1.1 0 2 .9 2 2v70c0 1.1-.9 2-2 2z"/><path class="st2" d="M239 462h14v13h-14zm0 27h14v5h-14z"/><path class="st1" d="M271 512h-10c-1.1 0-2-.9-2-2v-70c0-1.1.9-2 2-2h10c1.1 0 2 .9 2 2v70c0 1.1-.9 2-2 2z"/><path class="st2" d="M259 462h14v13h-14zm0 27h14v5h-14z"/><path class="st1" d="M291 512h-10c-1.1 0-2-.9-2-2v-70c0-1.1.9-2 2-2h10c1.1 0 2 .9 2 2v70c0 1.1-.9 2-2 2z"/><path class="st2" d="M279 462h14v13h-14zm0 27h14v5h-14z"/><path class="st1" d="M311 512h-10c-1.1 0-2-.9-2-2v-70c0-1.1.9-2 2-2h10c1.1 0 2 .9 2 2v70c0 1.1-.9 2-2 2z"/><path class="st2" d="M299 462h14v13h-14zm0 27h14v5h-14z"/><path class="st1" d="M331 512h-10c-1.1 0-2-.9-2-2v-70c0-1.1.9-2 2-2h10c1.1 0 2 .9 2 2v70c0 1.1-.9 2-2 2z"/><path class="st2" d="M319 462h14v13h-14zm0 27h14v5h-14z"/><path class="st1" d="M351 512h-10c-1.1 0-2-.9-2-2v-70c0-1.1.9-2 2-2h10c1.1 0 2 .9 2 2v70c0 1.1-.9 2-2 2z"/><path class="st2" d="M339 462h14v13h-14zm0 27h14v5h-14z"/><path class="st1" d="M371 512h-10c-1.1 0-2-.9-2-2v-70c0-1.1.9-2 2-2h10c1.1 0 2 .9 2 2v70c0 1.1-.9 2-2 2z"/><path class="st2" d="M359 462h14v13h-14zm0 27h14v5h-14z"/><path class="st1" d="M391 512h-10c-1.1 0-2-.9-2-2v-70c0-1.1.9-2 2-2h10c1.1 0 2 .9 2 2v70c0 1.1-.9 2-2 2z"/><path class="st2" d="M379 462h14v13h-14zm0 27h14v5h-14z"/><path class="st1" d="M411 512h-10c-1.1 0-2-.9-2-2v-70c0-1.1.9-2 2-2h10c1.1 0 2 .9 2 2v70c0 1.1-.9 2-2 2z"/><path class="st2" d="M399 462h14v13h-14zm0 27h14v5h-14z"/><path class="st1" d="M401 0h10c1.1 0 2 .9 2 2v70c0 1.1-.9 2-2 2h-10c-1.1 0-2-.9-2-2V2c0-1.1.9-2 2-2z"/><path class="st2" d="M413 50h-14V37h14zm0-27h-14v-5h14z"/><path class="st1" d="M381 0h10c1.1 0 2 .9 2 2v70c0 1.1-.9 2-2 2h-10c-1.1 0-2-.9-2-2V2c0-1.1.9-2 2-2z"/><path class="st2" d="M393 50h-14V37h14zm0-27h-14v-5h14z"/><path class="st1" d="M361 0h10c1.1 0 2 .9 2 2v70c0 1.1-.9 2-2 2h-10c-1.1 0-2-.9-2-2V2c0-1.1.9-2 2-2z"/><path class="st2" d="M373 50h-14V37h14zm0-27h-14v-5h14z"/><path class="st1" d="M341 0h10c1.1 0 2 .9 2 2v70c0 1.1-.9 2-2 2h-10c-1.1 0-2-.9-2-2V2c0-1.1.9-2 2-2z"/><path class="st2" d="M353 50h-14V37h14zm0-27h-14v-5h14z"/><path class="st1" d="M321 0h10c1.1 0 2 .9 2 2v70c0 1.1-.9 2-2 2h-10c-1.1 0-2-.9-2-2V2c0-1.1.9-2 2-2z"/><path class="st2" d="M333 50h-14V37h14zm0-27h-14v-5h14z"/><path class="st1" d="M301 0h10c1.1 0 2 .9 2 2v70c0 1.1-.9 2-2 2h-10c-1.1 0-2-.9-2-2V2c0-1.1.9-2 2-2z"/><path class="st2" d="M313 50h-14V37h14zm0-27h-14v-5h14z"/><path class="st1" d="M281 0h10c1.1 0 2 .9 2 2v70c0 1.1-.9 2-2 2h-10c-1.1 0-2-.9-2-2V2c0-1.1.9-2 2-2z"/><path class="st2" d="M293 50h-14V37h14zm0-27h-14v-5h14z"/><path class="st1" d="M261 0h10c1.1 0 2 .9 2 2v70c0 1.1-.9 2-2 2h-10c-1.1 0-2-.9-2-2V2c0-1.1.9-2 2-2z"/><path class="st2" d="M273 50h-14V37h14zm0-27h-14v-5h14z"/><path class="st1" d="M241 0h10c1.1 0 2 .9 2 2v70c0 1.1-.9 2-2 2h-10c-1.1 0-2-.9-2-2V2c0-1.1.9-2 2-2z"/><path class="st2" d="M253 50h-14V37h14zm0-27h-14v-5h14z"/><path class="st1" d="M221 0h10c1.1 0 2 .9 2 2v70c0 1.1-.9 2-2 2h-10c-1.1 0-2-.9-2-2V2c0-1.1.9-2 2-2z"/><path class="st2" d="M233 50h-14V37h14zm0-27h-14v-5h14z"/><path class="st1" d="M201 0h10c1.1 0 2 .9 2 2v70c0 1.1-.9 2-2 2h-10c-1.1 0-2-.9-2-2V2c0-1.1.9-2 2-2z"/><path class="st2" d="M213 50h-14V37h14zm0-27h-14v-5h14z"/><path class="st1" d="M181 0h10c1.1 0 2 .9 2 2v70c0 1.1-.9 2-2 2h-10c-1.1 0-2-.9-2-2V2c0-1.1.9-2 2-2z"/><path class="st2" d="M193 50h-14V37h14zm0-27h-14v-5h14z"/><path class="st1" d="M161 0h10c1.1 0 2 .9 2 2v70c0 1.1-.9 2-2 2h-10c-1.1 0-2-.9-2-2V2c0-1.1.9-2 2-2z"/><path class="st2" d="M173 50h-14V37h14zm0-27h-14v-5h14z"/><path class="st1" d="M141 0h10c1.1 0 2 .9 2 2v70c0 1.1-.9 2-2 2h-10c-1.1 0-2-.9-2-2V2c0-1.1.9-2 2-2z"/><path class="st2" d="M153 50h-14V37h14zm0-27h-14v-5h14z"/><path class="st1" d="M121 0h10c1.1 0 2 .9 2 2v70c0 1.1-.9 2-2 2h-10c-1.1 0-2-.9-2-2V2c0-1.1.9-2 2-2z"/><path class="st2" d="M133 50h-14V37h14zm0-27h-14v-5h14z"/><path class="st1" d="M101 0h10c1.1 0 2 .9 2 2v70c0 1.1-.9 2-2 2h-10c-1.1 0-2-.9-2-2V2c0-1.1.9-2 2-2z"/><path class="st2" d="M113 50H99V37h14zm0-27H99v-5h14z"/><path class="st1" d="M74 401v10c0 1.1-.9 2-2 2H2c-1.1 0-2-.9-2-2v-10c0-1.1.9-2 2-2h70c1.1 0 2 .9 2 2z"/><path class="st2" d="M24 413v-14h13v14zm27 0v-14h5v14z"/><path class="st1" d="M74 381v10c0 1.1-.9 2-2 2H2c-1.1 0-2-.9-2-2v-10c0-1.1.9-2 2-2h70c1.1 0 2 .9 2 2z"/><path class="st2" d="M24 393v-14h13v14zm27 0v-14h5v14z"/><path class="st1" d="M74 361v10c0 1.1-.9 2-2 2H2c-1.1 0-2-.9-2-2v-10c0-1.1.9-2 2-2h70c1.1 0 2 .9 2 2z"/><path class="st2" d="M24 373v-14h13v14zm27 0v-14h5v14z"/><path class="st1" d="M74 341v10c0 1.1-.9 2-2 2H2c-1.1 0-2-.9-2-2v-10c0-1.1.9-2 2-2h70c1.1 0 2 .9 2 2z"/><path class="st2" d="M24 353v-14h13v14zm27 0v-14h5v14z"/><path class="st1" d="M74 321v10c0 1.1-.9 2-2 2H2c-1.1 0-2-.9-2-2v-10c0-1.1.9-2 2-2h70c1.1 0 2 .9 2 2z"/><path class="st2" d="M24 333v-14h13v14zm27 0v-14h5v14z"/><path class="st1" d="M74 301v10c0 1.1-.9 2-2 2H2c-1.1 0-2-.9-2-2v-10c0-1.1.9-2 2-2h70c1.1 0 2 .9 2 2z"/><path class="st2" d="M24 313v-14h13v14zm27 0v-14h5v14z"/><path class="st1" d="M74 281v10c0 1.1-.9 2-2 2H2c-1.1 0-2-.9-2-2v-10c0-1.1.9-2 2-2h70c1.1 0 2 .9 2 2z"/><path class="st2" d="M24 293v-14h13v14zm27 0v-14h5v14z"/><path class="st1" d="M74 261v10c0 1.1-.9 2-2 2H2c-1.1 0-2-.9-2-2v-10c0-1.1.9-2 2-2h70c1.1 0 2 .9 2 2z"/><path class="st2" d="M24 273v-14h13v14zm27 0v-14h5v14z"/><path class="st1" d="M74 241v10c0 1.1-.9 2-2 2H2c-1.1 0-2-.9-2-2v-10c0-1.1.9-2 2-2h70c1.1 0 2 .9 2 2z"/><path class="st2" d="M24 253v-14h13v14zm27 0v-14h5v14z"/><path class="st1" d="M74 221v10c0 1.1-.9 2-2 2H2c-1.1 0-2-.9-2-2v-10c0-1.1.9-2 2-2h70c1.1 0 2 .9 2 2z"/><path class="st2" d="M24 233v-14h13v14zm27 0v-14h5v14z"/><path class="st1" d="M74 201v10c0 1.1-.9 2-2 2H2c-1.1 0-2-.9-2-2v-10c0-1.1.9-2 2-2h70c1.1 0 2 .9 2 2z"/><path class="st2" d="M24 213v-14h13v14zm27 0v-14h5v14z"/><path class="st1" d="M74 181v10c0 1.1-.9 2-2 2H2c-1.1 0-2-.9-2-2v-10c0-1.1.9-2 2-2h70c1.1 0 2 .9 2 2z"/><path class="st2" d="M24 193v-14h13v14zm27 0v-14h5v14z"/><path class="st1" d="M74 161v10c0 1.1-.9 2-2 2H2c-1.1 0-2-.9-2-2v-10c0-1.1.9-2 2-2h70c1.1 0 2 .9 2 2z"/><path class="st2" d="M24 173v-14h13v14zm27 0v-14h5v14z"/><path class="st1" d="M74 141v10c0 1.1-.9 2-2 2H2c-1.1 0-2-.9-2-2v-10c0-1.1.9-2 2-2h70c1.1 0 2 .9 2 2z"/><path class="st2" d="M24 153v-14h13v14zm27 0v-14h5v14z"/><path class="st1" d="M74 121v10c0 1.1-.9 2-2 2H2c-1.1 0-2-.9-2-2v-10c0-1.1.9-2 2-2h70c1.1 0 2 .9 2 2z"/><path class="st2" d="M24 133v-14h13v14zm27 0v-14h5v14z"/><path class="st1" d="M74 101v10c0 1.1-.9 2-2 2H2c-1.1 0-2-.9-2-2v-10c0-1.1.9-2 2-2h70c1.1 0 2 .9 2 2z"/><path class="st2" d="M24 113V99h13v14zm27 0V99h5v14z"/><path class="st1" d="M438 111v-10c0-1.1.9-2 2-2h70c1.1 0 2 .9 2 2v10c0 1.1-.9 2-2 2h-70c-1.1 0-2-.9-2-2z"/><path class="st2" d="M488 99v14h-13V99zm-27 0v14h-5V99z"/><path class="st1" d="M438 131v-10c0-1.1.9-2 2-2h70c1.1 0 2 .9 2 2v10c0 1.1-.9 2-2 2h-70c-1.1 0-2-.9-2-2z"/><path class="st2" d="M488 119v14h-13v-14zm-27 0v14h-5v-14z"/><path class="st1" d="M438 151v-10c0-1.1.9-2 2-2h70c1.1 0 2 .9 2 2v10c0 1.1-.9 2-2 2h-70c-1.1 0-2-.9-2-2z"/><path class="st2" d="M488 139v14h-13v-14zm-27 0v14h-5v-14z"/><path class="st1" d="M438 171v-10c0-1.1.9-2 2-2h70c1.1 0 2 .9 2 2v10c0 1.1-.9 2-2 2h-70c-1.1 0-2-.9-2-2z"/><path class="st2" d="M488 159v14h-13v-14zm-27 0v14h-5v-14z"/><path class="st1" d="M438 191v-10c0-1.1.9-2 2-2h70c1.1 0 2 .9 2 2v10c0 1.1-.9 2-2 2h-70c-1.1 0-2-.9-2-2z"/><path class="st2" d="M488 179v14h-13v-14zm-27 0v14h-5v-14z"/><path class="st1" d="M438 211v-10c0-1.1.9-2 2-2h70c1.1 0 2 .9 2 2v10c0 1.1-.9 2-2 2h-70c-1.1 0-2-.9-2-2z"/><path class="st2" d="M488 199v14h-13v-14zm-27 0v14h-5v-14z"/><path class="st1" d="M438 231v-10c0-1.1.9-2 2-2h70c1.1 0 2 .9 2 2v10c0 1.1-.9 2-2 2h-70c-1.1 0-2-.9-2-2z"/><path class="st2" d="M488 219v14h-13v-14zm-27 0v14h-5v-14z"/><path class="st1" d="M438 251v-10c0-1.1.9-2 2-2h70c1.1 0 2 .9 2 2v10c0 1.1-.9 2-2 2h-70c-1.1 0-2-.9-2-2z"/><path class="st2" d="M488 239v14h-13v-14zm-27 0v14h-5v-14z"/><path class="st1" d="M438 271v-10c0-1.1.9-2 2-2h70c1.1 0 2 .9 2 2v10c0 1.1-.9 2-2 2h-70c-1.1 0-2-.9-2-2z"/><path class="st2" d="M488 259v14h-13v-14zm-27 0v14h-5v-14z"/><path class="st1" d="M438 291v-10c0-1.1.9-2 2-2h70c1.1 0 2 .9 2 2v10c0 1.1-.9 2-2 2h-70c-1.1 0-2-.9-2-2z"/><path class="st2" d="M488 279v14h-13v-14zm-27 0v14h-5v-14z"/><path class="st1" d="M438 311v-10c0-1.1.9-2 2-2h70c1.1 0 2 .9 2 2v10c0 1.1-.9 2-2 2h-70c-1.1 0-2-.9-2-2z"/><path class="st2" d="M488 299v14h-13v-14zm-27 0v14h-5v-14z"/><path class="st1" d="M438 331v-10c0-1.1.9-2 2-2h70c1.1 0 2 .9 2 2v10c0 1.1-.9 2-2 2h-70c-1.1 0-2-.9-2-2z"/><path class="st2" d="M488 319v14h-13v-14zm-27 0v14h-5v-14z"/><path class="st1" d="M438 351v-10c0-1.1.9-2 2-2h70c1.1 0 2 .9 2 2v10c0 1.1-.9 2-2 2h-70c-1.1 0-2-.9-2-2z"/><path class="st2" d="M488 339v14h-13v-14zm-27 0v14h-5v-14z"/><path class="st1" d="M438 371v-10c0-1.1.9-2 2-2h70c1.1 0 2 .9 2 2v10c0 1.1-.9 2-2 2h-70c-1.1 0-2-.9-2-2z"/><path class="st2" d="M488 359v14h-13v-14zm-27 0v14h-5v-14z"/><path class="st1" d="M438 391v-10c0-1.1.9-2 2-2h70c1.1 0 2 .9 2 2v10c0 1.1-.9 2-2 2h-70c-1.1 0-2-.9-2-2z"/><path class="st2" d="M488 379v14h-13v-14zm-27 0v14h-5v-14z"/><path class="st1" d="M438 411v-10c0-1.1.9-2 2-2h70c1.1 0 2 .9 2 2v10c0 1.1-.9 2-2 2h-70c-1.1 0-2-.9-2-2z"/><path class="st2" d="M488 399v14h-13v-14zm-27 0v14h-5v-14zM253 510v-65.5h3v-377h-3V2c0-1.1-.9-2-2-2h-10c-1.1 0-2 .9-2 2v65.5h-6V2c0-1.1-.9-2-2-2h-10c-1.1 0-2 .9-2 2v65.5h-6V2c0-1.1-.9-2-2-2h-10c-1.1 0-2 .9-2 2v65.5h-6V2c0-1.1-.9-2-2-2h-10c-1.1 0-2 .9-2 2v65.5h-6V2c0-1.1-.9-2-2-2h-10c-1.1 0-2 .9-2 2v65.5h-6V2c0-1.1-.9-2-2-2h-10c-1.1 0-2 .9-2 2v65.5h-6V2c0-1.1-.9-2-2-2h-10c-1.1 0-2 .9-2 2v65.5h-6V2c0-1.1-.9-2-2-2h-10c-1.1 0-2 .9-2 2v65.5c-17.3.3-31.2 14.2-31.5 31.5H2c-1.1 0-2 .9-2 2v10c0 1.1.9 2 2 2h65.5v6H2c-1.1 0-2 .9-2 2v10c0 1.1.9 2 2 2h65.5v6H2c-1.1 0-2 .9-2 2v10c0 1.1.9 2 2 2h65.5v6H2c-1.1 0-2 .9-2 2v10c0 1.1.9 2 2 2h65.5v6H2c-1.1 0-2 .9-2 2v10c0 1.1.9 2 2 2h65.5v6H2c-1.1 0-2 .9-2 2v10c0 1.1.9 2 2 2h65.5v6H2c-1.1 0-2 .9-2 2v10c0 1.1.9 2 2 2h65.5v6H2c-1.1 0-2 .9-2 2v10c0 1.1.9 2 2 2h65.5v6H2c-1.1 0-2 .9-2 2v10c0 1.1.9 2 2 2h65.5v6H2c-1.1 0-2 .9-2 2v10c0 1.1.9 2 2 2h65.5v6H2c-1.1 0-2 .9-2 2v10c0 1.1.9 2 2 2h65.5v6H2c-1.1 0-2 .9-2 2v10c0 1.1.9 2 2 2h65.5v6H2c-1.1 0-2 .9-2 2v10c0 1.1.9 2 2 2h65.5v6H2c-1.1 0-2 .9-2 2v10c0 1.1.9 2 2 2h65.5v6H2c-1.1 0-2 .9-2 2v10c0 1.1.9 2 2 2h65.5v6H2c-1.1 0-2 .9-2 2v10c0 1.1.9 2 2 2h65.5c.3 17.3 14.2 31.2 31.5 31.5V510c0 1.1.9 2 2 2h10c1.1 0 2-.9 2-2v-65.5h6V510c0 1.1.9 2 2 2h10c1.1 0 2-.9 2-2v-65.5h6V510c0 1.1.9 2 2 2h10c1.1 0 2-.9 2-2v-65.5h6V510c0 1.1.9 2 2 2h10c1.1 0 2-.9 2-2v-65.5h6V510c0 1.1.9 2 2 2h10c1.1 0 2-.9 2-2v-65.5h6V510c0 1.1.9 2 2 2h10c1.1 0 2-.9 2-2v-65.5h6V510c0 1.1.9 2 2 2h10c1.1 0 2-.9 2-2v-65.5h6V510c0 1.1.9 2 2 2h10c1.1 0 2-.9 2-2z"/></svg>