<svg version="1.1" xmlns="http://www.w3.org/2000/svg" x="0" y="0" viewBox="0 0 512 512" xml:space="preserve"><style type="text/css">.st2{fill:#36434f}.st3{fill:#7193ad}</style><path d="M12 244l7.2-5.8c5.7-4.6 12.8-7.2 20.2-7.2h466.5c2.9 0 4.8 3 3.7 5.6L502 254H17l-5-10z" fill="#607785"/><path d="M.5 250.9S2.3 259 6.4 266c4.1 7 20.5 15 33.3 15h421c27.7 0 48.4-23.6 51.2-28.5.4-.7-.1-1.5-.9-1.5l-474.8-2c-2.9 0-5.8-.8-8.3-2.3l-9.4-5.6c-1.3-.7-2.7-1.1-4.2-1.1H8.1c-5.7 0-9.6 5.6-7.6 10.9z" fill="#ddd"/><path class="st2" d="M78 267c0 1.1-.9 2-2 2h-2c-1.1 0-2-.9-2-2v-11c0-1.1.9-2 2-2h2c1.1 0 2 .9 2 2v11zm8 0c0 1.1-.9 2-2 2h-2c-1.1 0-2-.9-2-2v-11c0-1.1.9-2 2-2h2c1.1 0 2 .9 2 2v11zm8 0c0 1.1-.9 2-2 2h-2c-1.1 0-2-.9-2-2v-11c0-1.1.9-2 2-2h2c1.1 0 2 .9 2 2v11zm8 0c0 1.1-.9 2-2 2h-2c-1.1 0-2-.9-2-2v-11c0-1.1.9-2 2-2h2c1.1 0 2 .9 2 2v11zm8 0c0 1.1-.9 2-2 2h-2c-1.1 0-2-.9-2-2v-11c0-1.1.9-2 2-2h2c1.1 0 2 .9 2 2v11zm8 0c0 1.1-.9 2-2 2h-2c-1.1 0-2-.9-2-2v-11c0-1.1.9-2 2-2h2c1.1 0 2 .9 2 2v11zm8 0c0 1.1-.9 2-2 2h-2c-1.1 0-2-.9-2-2v-11c0-1.1.9-2 2-2h2c1.1 0 2 .9 2 2v11zm8 0c0 1.1-.9 2-2 2h-2c-1.1 0-2-.9-2-2v-11c0-1.1.9-2 2-2h2c1.1 0 2 .9 2 2v11zm8 0c0 1.1-.9 2-2 2h-2c-1.1 0-2-.9-2-2v-11c0-1.1.9-2 2-2h2c1.1 0 2 .9 2 2v11zm8 0c0 1.1-.9 2-2 2h-2c-1.1 0-2-.9-2-2v-11c0-1.1.9-2 2-2h2c1.1 0 2 .9 2 2v11zm8 0c0 1.1-.9 2-2 2h-2c-1.1 0-2-.9-2-2v-11c0-1.1.9-2 2-2h2c1.1 0 2 .9 2 2v11zm8 0c0 1.1-.9 2-2 2h-2c-1.1 0-2-.9-2-2v-11c0-1.1.9-2 2-2h2c1.1 0 2 .9 2 2v11zm8 0c0 1.1-.9 2-2 2h-2c-1.1 0-2-.9-2-2v-11c0-1.1.9-2 2-2h2c1.1 0 2 .9 2 2v11zm8 0c0 1.1-.9 2-2 2h-2c-1.1 0-2-.9-2-2v-11c0-1.1.9-2 2-2h2c1.1 0 2 .9 2 2v11zm8 0c0 1.1-.9 2-2 2h-2c-1.1 0-2-.9-2-2v-11c0-1.1.9-2 2-2h2c1.1 0 2 .9 2 2v11z"/><circle class="st2" cx="47.5" cy="260.5" r="5.5"/><path class="st2" d="M28 260c0 1.1-.9 2-2 2h-7c-1.1 0-2-.9-2-2v-2c0-1.1.9-2 2-2h7c1.1 0 2 .9 2 2v2zm341 5c0 1.1-.9 2-2 2h-25c-1.1 0-2-.9-2-2v-9c0-1.1.9-2 2-2h25c1.1 0 2 .9 2 2v9z"/><path class="st3" d="M343 257h23v3h-23z"/><path class="st2" d="M331 265c0 1.1-.9 2-2 2h-25c-1.1 0-2-.9-2-2v-9c0-1.1.9-2 2-2h25c1.1 0 2 .9 2 2v9z"/><path class="st3" d="M305 257h23v3h-23z"/><path class="st2" d="M291 258c0-1.1-.9-2-2-2h-24c-1.1 0-2 .9-2 2v3c0 1.1.9 2 2 2s2 .5 2 1 .9 1 2 1h16c1.1 0 2-.5 2-1s.9-1 2-1 2-.9 2-2v-3z"/><path class="st3" d="M267 259h20v2h-20z"/><path class="st2" d="M234.3 268c-.2 1.1-1.2 2-2.3 2h-23c-1.1 0-2.1-.9-2.3-2l-1.4-9c-.2-1.1.6-2 1.7-2h27c1.1 0 1.9.9 1.7 2l-1.4 9z"/><circle class="st3" cx="211.5" cy="259.5" r="1"/><circle class="st3" cx="216" cy="259.5" r="1"/><circle class="st3" cx="220.5" cy="259.5" r="1"/><circle class="st3" cx="225" cy="259.5" r="1"/><circle class="st3" cx="229.5" cy="259.5" r="1"/><circle class="st3" cx="211.5" cy="267.5" r="1"/><circle class="st3" cx="216" cy="267.5" r="1"/><circle class="st3" cx="220.5" cy="267.5" r="1"/><circle class="st3" cx="225" cy="267.5" r="1"/><circle class="st3" cx="229.5" cy="267.5" r="1"/><circle class="st3" cx="213.5" cy="263.5" r="1"/><circle class="st3" cx="218" cy="263.5" r="1"/><circle class="st3" cx="222.5" cy="263.5" r="1"/><circle class="st3" cx="227" cy="263.5" r="1"/><circle class="st3" cx="231.5" cy="263.5" r="1"/></svg>