<svg version="1.1" xmlns="http://www.w3.org/2000/svg" x="0" y="0" viewBox="0 0 512 512" xml:space="preserve"><path fill="#f4f4f4" d="M56 75h400v367H56z"/><path d="M56 315v-62.3c12.4 9.6 28.3 18.1 47.3 25.3 41.3 15.5 95.5 24 152.7 24s111.4-8.5 152.7-24c19.1-7.2 35-15.7 47.3-25.3V315c0 41.4-89.5 75-200 75S56 356.4 56 315zm352.7-157c-41.3 15.5-95.5 24-152.7 24s-111.4-8.5-152.7-24c-19.1-7.2-35-15.7-47.3-25.3V195c0 41.4 89.5 75 200 75s200-33.6 200-75v-62.3c-12.4 9.6-28.3 18.1-47.3 25.3zM256 150c110.5 0 200-33.6 200-75S366.5 0 256 0 56 33.6 56 75s89.5 75 200 75zm152.7 248c-41.3 15.5-95.5 24-152.7 24s-111.4-8.5-152.7-24c-19.1-7.2-35-15.7-47.3-25.3V437c0 41.4 89.5 75 200 75s200-33.6 200-75v-64.3c-12.4 9.6-28.3 18.1-47.3 25.3z" fill="#2e86b7"/><path d="M56 75v362c0 41.4 89.5 75 200 75V0C145.5 0 56 33.6 56 75z" opacity=".15" fill="#444"/><path d="M407 414c-4.4 0-8 3.6-8 8v40c0 4.4 3.6 8 8 8s8-3.6 8-8v-40c0-4.4-3.6-8-8-8zm0-120c-4.4 0-8 3.6-8 8v40c0 4.4 3.6 8 8 8s8-3.6 8-8v-40c0-4.4-3.6-8-8-8zm0-120c-4.4 0-8 3.6-8 8v40c0 4.4 3.6 8 8 8s8-3.6 8-8v-40c0-4.4-3.6-8-8-8z" opacity=".5" fill="#f4f4f4"/></svg>