<svg version="1.1" xmlns="http://www.w3.org/2000/svg" x="0" y="0" viewBox="0 0 512 512" xml:space="preserve"><style type="text/css">.st0{fill:#607786}.st2{fill:#36434f}.st3{fill:#f4f4f4}.st4{fill:#d7d9dc}</style><path class="st0" d="M464 63H48C21.6 63 0 84.6 0 111v290c0 26.4 21.6 48 48 48h416c26.4 0 48-21.6 48-48V111c0-26.4-21.6-48-48-48zm0 332c0 3.3-2.7 6-6 6H54c-3.3 0-6-2.7-6-6V117c0-3.3 2.7-6 6-6h404c3.3 0 6 2.7 6 6v278z"/><path d="M430 363c0 3.3-2.7 6-6 6H88c-3.3 0-6-2.7-6-6V149c0-3.3 2.7-6 6-6h336c3.3 0 6 2.7 6 6v214z" fill="#4fc3f7"/><path class="st0" d="M424.1 369l-49.4-79.4h-21.3l-34.5-2.5L268 369h156.1z"/><path class="st2" d="M332.3 369h91.8l-49.4-79.4h-21.3l2 12.2 2.2 12.7c.4 2.3-.8 4.5-2.9 5.4l-22.1 9.9c-1.9.9-3.1 2.8-2.9 4.9l2.6 34.3z"/><path class="st3" d="M318.9 287.1l34.1 13.8c1.5.6 3.2.5 4.5-.4l17.2-10.8-24.4-39.3c-2-3.1-6.5-3.1-8.5 0l-22.9 36.7z"/><path class="st4" d="M346.8 248.1l8.5 53.2c.8-.1 1.6-.3 2.3-.8l17.2-10.8-24.4-39.3c-.9-1.4-2.3-2.1-3.6-2.3z"/><path class="st0" d="M287 369l-59.1-95h-29.6l-48-3.5L89 369h198z"/><path class="st2" d="M167.8 369H287l-59.1-95h-29.6l2.7 17 3.3 19.2c.4 2.3-.8 4.5-2.9 5.4l-33.3 15c-1.9.9-3.1 2.8-2.9 4.9l2.6 33.5z"/><path class="st3" d="M150.3 270.5l48.3 19.5c1.5.6 3.2.5 4.5-.4l24.7-15.6-35.6-57.2c-2-3.1-6.5-3.1-8.5 0l-33.4 53.7z"/><path class="st4" d="M188.7 214.5l12.2 75.9c.8-.1 1.6-.3 2.3-.8l24.7-15.6-35.6-57.2c-.9-1.3-2.2-2.1-3.6-2.3z"/><circle cx="136.5" cy="196.5" r="29.5" fill="#ffbe27"/><path class="st3" d="M295 244c7.1 0 12.8-5.7 12.8-12.8 0-5.5-3.6-10.4-8.8-12.1-1.9-3.7-5.7-6.1-9.9-6.1-1.1 0-2.2.2-3.3.5-3.5-3.9-8.4-6.1-13.7-6.1-4.2 0-8.2 1.4-11.5 4-2.9 2.3-5 5.5-6.1 9-6.5 0-11.7 5.3-11.7 11.8s5.3 11.8 11.8 11.8H295zm103-37c7.1 0 12.8-5.7 12.8-12.8 0-5.5-3.6-10.4-8.8-12.1-1.9-3.7-5.7-6.1-9.9-6.1-1.1 0-2.2.2-3.3.5-3.5-3.9-8.4-6.1-13.7-6.1-4.2 0-8.2 1.4-11.5 4-2.9 2.3-5 5.5-6.1 9-6.5 0-11.7 5.3-11.7 11.8s5.3 11.8 11.8 11.8H398z"/></svg>