<svg version="1.1" xmlns="http://www.w3.org/2000/svg" x="0" y="0" viewBox="0 0 512 512" xml:space="preserve"><style type="text/css">.st1{fill:#999}</style><path d="M368 512H144c-8.8 0-16-7.2-16-16V16c0-8.8 7.2-16 16-16h224c8.8 0 16 7.2 16 16v480c0 8.8-7.2 16-16 16z" fill="#36434f"/><path class="st1" d="M269 496.5h-26c-6.6 0-12-5.4-12-12s5.4-12 12-12h26c6.6 0 12 5.4 12 12s-5.4 12-12 12zM274 20h-36c-1.1 0-2-.9-2-2v-1c0-1.1.9-2 2-2h36c1.1 0 2 .9 2 2v1c0 1.1-.9 2-2 2z"/><circle class="st1" cx="184.5" cy="18.5" r="5.5"/><path d="M216 21h-9c-1.1 0-2-.9-2-2v-3c0-1.1.9-2 2-2h9c1.1 0 2 .9 2 2v3c0 1.1-.9 2-2 2z" fill="#122a3a"/><path class="st1" d="M128 103h-1c-1.1 0-2-.9-2-2V76c0-1.1.9-2 2-2h1v29zm0 100h-1c-1.1 0-2-.9-2-2v-64c0-1.1.9-2 2-2h1v68zm256-8h1c1.1 0 2-.9 2-2v-35c0-1.1-.9-2-2-2h-1v39z"/><path fill="#667e8e" d="M135 45v414h242V45z"/><path fill="#647b8b" d="M135 443.5V459h127l115-326.4V45h-4.3z"/><path fill="#607786" d="M135 443.4L372.7 45H135z"/></svg>