<svg xmlns="http://www.w3.org/2000/svg" viewBox="0 0 512 512" xml:space="preserve"><path d="m428.9 310.9 9.9-29.3-8.9 1.2 1.3-30.3-8.5 3.1-2.9-29.8-8.1 3.9-5-29.4-7.9 4.3-6.4-29.1-7.7 4.6-7.3-28.8-7.6 4.9-8-28.6-7.5 5-8.6-28.4-7.4 5.2-9.1-28.3-7.3 5.3-9.5-28.4-7.2 5.4-9.9-28-7.1 5.5L278 13.1l-7.1 5.6C261.6 6.9 256 0 256 0s-5.6 6.9-14.9 18.6L234 13l-10.3 27.9-7.1-5.5-9.9 28-7.2-5.4-9.5 28.1-7.3-5.3-9.1 28.3-7.4-5.2-8.6 28.4-7.5-5-8 28.6-7.6-4.9-7.3 28.8-7.7-4.6-6.4 29.1-7.9-4.3-5 29.4-8.1-3.9-2.9 29.8-8.5-3.1 1.3 30.3-8.9-1.2 9.9 29.3-8.9 1.5L91 337.9l-8.3 3.5 22 21.1-7.4 5.2 25.8 16.1-6.2 6.5 28.2 11.2-5 7.5 29.6 6.4-3.8 8.2 30.2 1.8-2.6 8.6 30.1-2.5-1.4 8.9 29.5-6.5c1.5 0 2.9.1 4.4.1s2.9 0 4.4-.1l29.5 6.5-1.4-8.9 30.1 2.5-2.6-8.6 30.2-1.8-3.8-8.2L372 409l-5-7.5 28.2-11.2-6.2-6.5 25.8-16.1-7.4-5.2 22-21.1-8.3-3.5 16.7-25.6-8.9-1.4z" fill="#35965f"/><path d="M262.3 509 261 394.1c18.3-7.4 33.7-18.3 48.3-30.2 15.4-12.7 29.6-26.6 42.9-41.3 13.3-14.7 25.8-30.1 37.3-46.2 11.3-15.9 21.8-32.4 30.4-49.9l-.1-.9-.8.4c-9.2 17.1-20.2 33.2-32 48.6-12 15.5-25 30.3-38.7 44.3-13.8 13.9-28.3 27.1-43.8 38.9-7.8 5.9-15.8 11.4-24.1 16.2-1 .6-2.1 1.2-3.1 1.8l-3.2 1.7c-1.1.6-2.1 1.1-3.2 1.6s-2.1 1.1-3.2 1.5l-3.2 1.4c-1.1.5-2.2.8-3.3 1.3-.1 0-.2.1-.3.1l-.8-66.2c14.5-8.8 27.8-19.3 39.8-31 12.6-12.3 24-25.8 34.1-40.2 20-28.5 35-60.4 43.6-93.9l-.3-1-.6.4c-9.7 33.2-25.7 64.4-46.3 91.9-10.4 13.8-22 26.7-34.7 38.3-11 10-22.9 19-35.7 26.5l-1.1-94.6c8.9-8.8 16.9-18.3 24.2-28.4 7.5-10.4 14.3-21.3 20.3-32.6 11.8-22.3 20.8-46.2 26.1-70.8l-.3-.9-.6.5c-6 24.5-15.7 47.9-28.2 69.6-6.3 11-13.3 21.5-21 31.4-6.3 8.2-13.2 15.9-20.5 23.1l-1-86.1c8-13.1 15.6-26.5 22.2-40.3 3.3-7 6.4-14.1 9.1-21.3 2.6-7 4.8-14.2 6.4-21.5l-.3-.9-.6.5c-1.8 7.2-4.3 14.3-7.1 21.2-2.9 7.1-6.2 14-9.7 20.9-6.1 11.7-12.9 23.1-20.1 34.2L256.5.8c-.3-.5-.5-.8-.5-.8s-.2.3-.5.8l-1.7 148.4c-4.1-7-7.7-14.3-11-21.7-4.3-9.7-8.1-19.7-11.4-29.8-3.3-10.1-6.2-20.4-8.5-30.8-2.4-10.2-4.3-20.6-5.7-31l-.6-.4-.4 1.1c1.1 10.3 2.8 20.6 4.9 30.7 2.2 10.5 4.8 20.9 7.9 31.2 3.1 10.3 6.6 20.4 10.8 30.4 4 9.6 8.5 19 13.9 27.9l-1 86.3c-9.1-9.2-17.3-19.4-24.4-30.3-8.5-13-15.8-26.9-21.8-41.2-12-28.6-19.6-59.2-23.2-90.2l-.6-.4-.4 1.2c2.8 30.9 9.5 61.6 20.9 90.7 5.7 14.7 12.7 29 21.1 42.5 8 12.9 17.4 25.2 28.3 36l-1.1 94.7c-14.9-9-28.5-20.1-40.6-32.9-13.8-14.5-25.9-30.8-36-48.2-10.1-17.4-18.5-35.9-25.1-55-6.5-19-11.7-38.5-14.7-58.4l-.6-.4-.3 1.3c2.5 19.8 7.1 39.2 13 58.3 6.1 19.4 14.1 38.3 23.8 56.3 9.7 18 21.5 34.9 35.3 50.2 13 14.6 28.1 27.5 45 37.7l-.8 66.5c-7.7-2.4-15.3-5.4-22.7-8.7l-7.1-3.3-7-3.6c-2.4-1.2-4.6-2.5-6.9-3.9-2.3-1.3-4.6-2.6-6.8-4.1l-6.7-4.3c-2.2-1.5-4.3-3-6.5-4.5l-3.2-2.3-3.1-2.4-6.3-4.8c-4.1-3.4-8.2-6.7-12.1-10.3-2-1.8-4-3.5-5.9-5.4l-5.7-5.5c-1.9-1.8-3.7-3.8-5.6-5.7-1.8-1.9-3.7-3.8-5.5-5.8-3.5-4-7.1-7.9-10.4-12.1-1.7-2.1-3.4-4.1-5-6.2l-4.8-6.4c-3.3-4.2-6.2-8.6-9.1-13.1-11.4-17.8-20.5-37-28.8-56.5l-.6-.2.1 1.5c7.6 19.5 16 38.8 26.7 57 2.7 4.6 5.6 9.2 8.8 13.6l4.6 6.6c1.6 2.2 3.2 4.3 4.9 6.4 3.2 4.3 6.7 8.4 10.1 12.6 1.7 2.1 3.6 4.1 5.3 6.1 1.8 2 3.5 4.1 5.4 6l5.6 5.8c1.9 2 3.9 3.8 5.8 5.7 3.8 3.8 8 7.3 12 10.9 2 1.8 4.2 3.4 6.3 5.2l3.1 2.6 3.2 2.5c2.2 1.6 4.3 3.3 6.5 4.9l6.7 4.6c2.2 1.6 4.6 3 6.8 4.4 2.3 1.4 4.6 2.9 7 4.2l7.1 4 7.3 3.7c8.5 4.2 17.4 7.9 26.4 10.9l-.9 77.2c0 1.7 1.3 3 3 3h6.6c1.9.2 3.2-1.2 3.2-2.8z" fill="#378a5b"/><path d="M241.1 18.6 234 13l-10.3 27.9-6.6-5-.6-.4-9.9 28-7.2-5.4-9.5 28.1-6.7-4.9-.6-.4-9.1 28.3-7.4-5.2-8.6 28.4-7.5-5-8 28.6-7.6-4.9-.3 1.3-7 27.5-7.7-4.6-6.4 29.1-7.9-4.3-5 29.4-8.1-3.9-2.9 29.8-7.8-2.8-.6-.2.1 1.5 1.2 28.8-8.9-1.2 9.9 29.3-8.9 1.5L91 337.9l-8.3 3.5 22 21.1-7.4 5.2 25.8 16.1-6.2 6.5 28.2 11.2-5 7.5 29.6 6.4-3.8 8.2 30.2 1.8-2.6 8.6 30.1-2.5-1.4 8.9 28.4-6.3-.9 74.8c0 1.7 1.3 3 3 3h3.3V0s-5.6 6.9-14.9 18.6z" opacity=".15" fill="#444"/></svg>