<svg xmlns="http://www.w3.org/2000/svg" viewBox="0 0 512 512" xml:space="preserve"><style>.st2{fill:#e0ac7e}.st3{fill:#36434f}.st4{fill:#f4f4f4}</style><path d="M418.3 164.4c3.5-2.8 13.7-8.5 22.7-12.6s25.5-4.2 36.6 0 24.5 15 29.7 24c5.2 9 6.2 27.3 2.2 40.6L495.1 264c-4 13.3-17 30.1-28.8 37.4l-16.4 10.1c-11.8 7.3-32.6 10.9-46.2 8.1l-4.9-1c-13.6-2.8-21.8-16.2-18.3-29.6l25-95.1c3.6-13.4 9.3-26.7 12.8-29.5zm-324.6 0C90.2 161.6 80 156 71 151.8s-25.5-4.2-36.6 0-24.5 15-29.7 24-6.2 27.3-2.2 40.6L16.9 264c4 13.3 17 30.1 28.8 37.4l16.4 10.1c11.8 7.3 32.6 10.9 46.2 8.1l4.9-1c13.6-2.8 21.8-16.2 18.3-29.6l-25-95.1c-3.6-13.4-9.3-26.7-12.8-29.5z" fill="#ddc4b0"/><ellipse cx="256" cy="210.5" rx="177.9" ry="167.4" fill="#826049"/><ellipse class="st2" cx="256" cy="360.2" rx="90.9" ry="108.6"/><ellipse class="st2" cx="317.3" cy="221.3" rx="70.1" ry="65.7"/><ellipse class="st2" cx="194.7" cy="221.3" rx="70.1" ry="65.7"/><path class="st3" d="M269.9 300.2c-3.5 1-6.3 5.3-6.3 9.5s4 6.7 8.8 5.7c4.9-1 10.3-4.5 12-7.6s2.3-9.7 1.3-14.5c-1-4.9-3.6-5.7-5.7-1.9-2.1 3.8-6.6 7.8-10.1 8.8zm-27.8 0c3.5 1 6.3 5.3 6.3 9.5s-4 6.7-8.8 5.7c-4.9-1-10.3-4.5-12-7.6s-2.3-9.7-1.3-14.5c1-4.9 3.6-5.7 5.7-1.9 2.1 3.8 6.6 7.8 10.1 8.8zm77.7 75.2c-8 4.2-25.6 8.4-39.2 9.5-13.5 1-35.7 1-49.3 0-13.5-1-31.2-5.3-39.2-9.5s-10.5-2.2-5.7 4.4c4.9 6.6 17.9 14.6 29.1 17.7 11.1 3.1 24.8 6.3 30.3 6.9 5.6.7 14.7.7 20.2 0 5.6-.7 19.2-3.8 30.3-6.9 11.1-3.1 24.2-11.1 29.1-17.7s2.4-8.6-5.6-4.4z"/><circle class="st3" cx="194.7" cy="221.3" r="19.6"/><circle class="st4" cx="187.8" cy="211.8" r="5.1"/><circle class="st3" cx="317.3" cy="221.3" r="19.6"/><circle class="st4" cx="310.3" cy="211.8" r="5.1"/><path d="M86.5 159.8c-4.5-2.6-10.2-5.6-15.5-8-9-4.2-25.5-4.2-36.6 0s-24.5 15-29.7 24-6.2 27.3-2.2 40.6L16.9 264c4 13.3 17 30.1 28.8 37.4l16.4 10.1c11.8 7.3 32.6 10.9 46.2 8.1l4.9-1c1.9-.4 3.7-1 5.4-1.8 13.1 14.9 28.8 27.7 46.6 37.6-.1 1.9-.1 3.8-.1 5.8 0 60 40.7 108.6 90.9 108.6V43.2c-79.4 0-146.7 49-169.5 116.6z" opacity=".15" fill="#444"/></svg>