<svg version="1.1" xmlns="http://www.w3.org/2000/svg" x="0" y="0" viewBox="0 0 512 512" xml:space="preserve"><path d="M405 174.5c-7.2 0-16.1-.2-23 1-31.3 34-76.1 63.5-126 63.5s-94.7-29.5-126-63.5c-6.9-1.2-15.8-1-23-1-45 0-85.9 25.7-107 62 14.2 1.4 26.5 9.7 34 21 9.6-3.1 20.3-6 31-6 30 0 54.7 14.1 73 35 8.7-7 22-12 34-12 26.9 0 48.1 20.6 50 47 16.3 1.1 21.2 7.4 34 16 12.8-8.6 17.7-14.9 34-16 1.9-26.4 23.1-47 50-47 12 0 25.3 5 34 12 18.3-20.9 43-35 73-35 10.7 0 21.4 2.9 31 6 7.5-11.3 19.8-19.6 34-21-21.1-36.3-62-62-107-62z" fill="#36434f"/><path d="M385 183.5s24 7.5 46 16.5 81 36.5 81 36.5-49-30.5-71-40.5-59-20.5-59-20.5c-2.8 3.1-5.8 6-8.8 8.9-23.6 22.4-53.5 38.8-86.8 45.2-.5-6.2-2.8-11.8-6.4-16.4v-14.7l-9.6 6.6c-4.3-2.3-9.2-3.6-14.4-3.6s-10.1 1.3-14.4 3.6l-9.6-6.6v14.7c-3.6 4.6-5.9 10.2-6.4 16.4-33.3-6.4-63.1-22.8-86.8-45.2-3.1-2.9-6-5.8-8.8-8.9 0 0-37 10.5-59 20.5S0 236.5 0 236.5 59 209 81 200s46-16.5 46-16.5S100 203 86 214s-52 43.5-52 43.5S78 230 92 220s40-31.5 40-31.5 0 22.5 1 39.5 5 58.5 5 58.5 2-45.5 2-58.5c0-7.4-.4-20.6-.7-30.5 22.9 21 52 35.3 84.3 39.9-1.7 7.3-2.6 14.8-2.6 22.6 0 16.4 3.9 32.2 10.9 46.2-4.4 1.5-8.2 4.4-10.9 8.2.5 2.3.8 4.7 1 7.1.7.1 1.4.1 2.1.2 2.5-4.2 6.4-7.5 11.1-9.3 5.6 9.5 12.6 18 20.8 25.1 8.2-7 15.2-15.5 20.8-25.1 4.7 1.8 8.6 5.1 11.1 9.3.7-.1 1.4-.1 2.1-.2.2-2.4.5-4.8 1-7.1-2.6-3.8-6.4-6.7-10.9-8.2 6.9-14 10.9-29.8 10.9-46.2 0-7.8-.9-15.3-2.6-22.6 32.2-4.6 61.4-18.9 84.3-39.9-.3 9.9-.7 23.1-.7 30.5 0 13 2 58.5 2 58.5s4-41.5 5-58.5 1-39.5 1-39.5 26 21.5 40 31.5 58 37.5 58 37.5-38-32.5-52-43.5-41-30.5-41-30.5z" fill="#667e8e"/><path d="M250.4 224.5c-.8.3-1.7.5-2.6.5-4.3 0-7.8-3.5-7.8-7.8 0-.6.1-1.1.2-1.6 1.8 1.6 4.2 2.5 6.7 2.5 1.2 0 2.4-.2 3.5-.6v7zm11.2 0c.8.3 1.7.5 2.6.5 4.3 0 7.8-3.5 7.8-7.8 0-.6-.1-1.1-.2-1.6-1.8 1.6-4.2 2.5-6.7 2.5-1.2 0-2.4-.2-3.5-.6v7z" fill="#d6ce45"/><path d="M241.6 205.1l-9.6-6.6v14.7c-3.6 4.6-5.9 10.2-6.4 16.4-33.3-6.4-63.1-22.8-86.8-45.2-3.1-2.9-6-5.8-8.8-8.9-6.9-1.2-15.8-1-23-1-45 0-85.9 25.7-107 62 14.2 1.4 26.5 9.7 34 21 9.6-3.1 20.3-6 31-6 30 0 54.7 14.1 73 35 8.7-7 22-12 34-12 25.1 0 45.2 18 49.4 41.8 0 .3.1.5.1.8.1.5.1 1 .2 1.5 0 .2.1.5.1.7.1.7.2 1.4.2 2.2.7.1 1.4.1 2.1.2 14.6 1.5 19.7 7.6 31.9 15.8v-136c-5.2 0-10.1 1.3-14.4 3.6z" opacity=".15" fill="#444"/></svg>