<svg version="1.1" xmlns="http://www.w3.org/2000/svg" x="0" y="0" viewBox="0 0 512 512" xml:space="preserve"><style type="text/css">.st7{fill:#444;opacity:.15}</style><path d="M321.6 349.4l-60.5 20 14.5-20H271L258 367v-3.9l-.1-13.7h-3.8l-.1 13.7v4.1l-13.2-17.8h-4.6l14.5 20-60.5-20v3.4l63.8 21.8-.1 42v26.8l.1 24.8c0 1.1.9 2 2 2s2-.9 2-2l.1-24.8v-26.8l-.1-42 73.6-25.2h-10z" fill="#a18267"/><path d="M501.2 289.2c-21.4 2.4-39.6-4.2-40.7-14.9-.3-3 .7-5.9 2.9-8.7-23.2 10.9-39.8 15-43.3 9.3-5.2-8.3 19.8-35 58.4-63.9-11 3-21.3 1.2-27.5-5.8-9.1-10.3-6.5-28.8 5.1-44.4-3.3-.2-6.4-1.2-9-3.1-10.7-7.5-11.2-26.3-1.6-42.8-11.2 13.4-26.8 18.7-36.8 11.6-1.5-1.1-2.8-2.4-4-3.9-2.2 11-10.4 19.2-20.1 19.2-8.1 0-15.1-5.6-18.5-13.9-17.8 46.8-36.4 79.8-44.4 76.9-8.5-3.1-1.9-45.8 14.7-98.4-8.7 5.9-18.4 7.5-26.3 3.3-13.8-7.4-16.9-29.5-7-49.5.4-.9.9-1.7 1.4-2.6-5.3 5.5-12.3 8.8-20 8.8-13.6 0-25.1-10.4-28.5-24.6-3.4 14.2-14.9 24.6-28.5 24.6-7.7 0-14.7-3.4-20-8.8.5.8.9 1.7 1.4 2.6 9.9 20 6.8 42.2-7 49.5-7.9 4.2-17.6 2.6-26.3-3.3 16.5 52.6 23.1 95.3 14.7 98.4-7.9 2.9-26.6-30.1-44.4-76.9-3.4 8.2-10.4 13.9-18.5 13.9-9.7 0-17.9-8.2-20.1-19.2-1.1 1.5-2.4 2.8-4 3.9-10 7.1-25.6 1.8-36.8-11.6 9.6 16.6 9.1 35.3-1.6 42.8-2.7 1.9-5.7 2.9-9 3.1 11.7 15.6 14.3 34.1 5.1 44.4-6.2 7-16.5 8.8-27.5 5.8 38.6 28.8 63.6 55.5 58.4 63.9-3.5 5.6-20.2 1.6-43.3-9.3 2.1 2.8 3.2 5.8 2.9 8.7-1.1 10.7-19.4 17.4-40.7 14.9-3.8-.4-7.4-1.1-10.8-2 3.1 1.3 6.3 3 9.4 5.1 15.3 10.1 23.4 25.1 18.2 33.6-1.3 2.1-3.2 3.6-5.6 4.5 19.1 1.5 33.8 12.4 33.8 25.7 0 8.1-5.6 15.4-14.3 20.1 41.2-13.4 78.4-8.9 86.3 11.8 5.4 14.2-4.2 32.5-23.3 49 29-15.5 54.5-20.5 60.2-10.7 1.1 1.9 1.4 4.3 1 7 12.9-34.7 48.4-59.8 90.2-60 41.8.2 77.4 25.2 90.2 60-.4-2.7-.2-5.1 1-7 5.8-9.8 31.3-4.8 60.2 10.7-19.1-16.4-28.7-34.8-23.3-49 7.9-20.7 45.1-25.2 86.3-11.8-8.7-4.7-14.3-12-14.3-20.1 0-13.2 14.8-24.1 33.8-25.7-2.4-.9-4.4-2.4-5.6-4.5-5.2-8.5 2.9-23.6 18.2-33.6 3.1-2.1 6.3-3.7 9.4-5.1-3.2.9-6.8 1.6-10.6 2z" fill="#4caf50"/><path class="st7" d="M261.6 373.4l48.9-16.7 94.8 79.1c.7.4 1.4.7 2.1 1.1-2.6-2.2-5-4.5-7.2-6.8L312.7 356l58.6-20.1 93.9 38.7c1.7.5 3.4 1 5.2 1.6l-3-1.8-93.3-39.4 53.7-18.4 60.6 14c.5-.1 1-.1 1.6-.1-.8-.3-1.5-.6-2.1-1l-56.6-14 76.6-26.2c.7-.3 1.3-.7 2-1 .7-.3 1.4-.6 2-.9-1.6.4-3.3.8-5.1 1.2L426.2 315l35.2-45.9c.5-1.2 1.2-2.3 2-3.5-.3.2-.7.3-1 .5l-39.6 50.1-39.4 13 37-53.8c-.1-.1-.2-.3-.3-.4-.1-.2-.2-.4-.3-.5l-39.5 55.8-119 39.3 59.9-82.5 155.2-74.3c.7-.5 1.3-1 2-1.5l-2.4.6-152.4 72L397.4 182l58.3-20.7c.1-.1.2-.2.2-.3l-.1-.2c-.4 0-.9-.1-1.3-.1l-55.2 18.6 44.4-61.1c.3-.5.5-1.1.8-1.6.3-.5.6-1.1.9-1.6-.5.6-.9 1.1-1.4 1.6l-.2.2c-.5.6-1.1 1.1-1.6 1.7l-37.8 51 .7-46.4c-.1-.2-.3-.3-.4-.5-.2.9-.4 1.8-.7 2.7l-1.5 46.8-38.1 51.4 2.1-94.5c-.2-.3-.3-.7-.5-1.1-.2.5-.4.9-.5 1.4l-3.2 96.9-33.5 45.2-6.6-66.5c-.2 0-.4-.1-.5-.1l-.6-.3 6 69.3-69.1 93.4v-4.1l-.5-107.1v-7.4l78.2-139.9c.2-.8.5-1.5.7-2.3l-.9.6-78.1 137.7-.4-84 42.4-91c.9-3.2 2.2-6.4 3.7-9.5.4-.9.9-1.7 1.4-2.6-.3.4-.7.7-1 1L257 156l-.5-112.4c-.2-.6-.4-1.2-.5-1.9-.2.6-.3 1.3-.5 1.9L255 156l-46.4-97.4c-.4-.3-.7-.7-1-1 .5.8.9 1.7 1.4 2.6 1.6 3.1 2.8 6.3 3.7 9.5l42.4 91-.4 84L176.5 107l-.9-.6c.2.8.5 1.6.7 2.3l78.2 139.9v7.4l-.5 107.1v4.1l-69.2-93.4 6-69.3-.6.3c-.2.1-.4.1-.5.1l-6.6 66.5-33.5-45.2-3.2-96.9c-.2-.5-.4-.9-.5-1.4-.1.4-.3.7-.5 1.1l2.1 94.5-38.1-51.4-1.5-46.8c-.3-.9-.5-1.8-.7-2.7-.1.2-.3.3-.4.5l.7 46.4-37.8-51c-.5-.5-1.1-1.1-1.6-1.7l-.2-.2c-.5-.5-1-1.1-1.4-1.6.3.5.6 1.1.9 1.6.3.5.6 1.1.8 1.6l44.4 61.1-55.2-18.6c-.4.1-.9.1-1.3.1l-.1.2c.1.1.2.2.2.3l58.3 20.7 73.8 101.5-152.4-72c-.8-.2-1.6-.3-2.4-.6.7.5 1.3 1 2 1.5l155.2 74.3 59.9 82.5-119-39.3-39.5-55.8c-.1.2-.2.4-.3.5-.1.2-.2.3-.3.4l37 53.8-39.4-13L49.6 266c-.3-.2-.7-.3-1-.5.9 1.1 1.5 2.3 2 3.5l35.2 46-80.7-26.7c-1.7-.3-3.4-.7-5.1-1.2 1.3.6 2.7 1.2 4.1 1.9l76.6 26.2-56.6 14c-.7.4-1.4.7-2.1 1 .5 0 1.1.1 1.6.1l60.6-14 53.7 18.4-93.3 39.4c-.9.6-1.9 1.2-3 1.8 1.7-.6 3.4-1.1 5.2-1.6l93.9-38.7 58.6 20.1-87.5 74.2c-2.2 2.3-4.6 4.5-7.2 6.8.7-.4 1.4-.7 2.1-1.1l94.8-79.1 48.9 16.7c.9 0 1.7-.1 2.6-.1 1 0 2-.1 3-.1s2 0 3 .1c.9.3 1.8.3 2.6.3z"/><path class="st7" d="M4.1 289.1c1.8.9 3.6 2 5.4 3.1 15.3 10.1 23.4 25.1 18.2 33.6-.9 1.4-2.1 2.6-3.5 3.4-.3.2-.6.4-1 .5h-.1c-.3.2-.7.3-1.1.5 19.1 1.5 33.8 12.4 33.8 25.7 0 7.2-4.3 13.6-11.3 18.3-.5.3-.9.6-1.4.9l-1.5.9c1-.3 2-.6 2.9-.9.7-.2 1.5-.4 2.2-.7 39.1-11.4 73.6-6.4 81.1 13.4 4.7 12.2-1.9 27.6-16.1 42.2l-1.7 1.7c-.5.5-1.1 1.1-1.7 1.6l-.1.1c-.5.5-1 1-1.6 1.4-.1.1-.2.2-.3.2-.6.5-1.2 1.1-1.8 1.6.7-.4 1.4-.7 2.1-1.1 28.1-14.6 52.5-19.1 58.1-9.6 1.1 1.9 1.4 4.3 1 7 12.3-33.2 45.2-57.5 84.6-59.8l3.6 1.2-.1 42v26.8l.1 24.8c0 1.1.9 2 2 2V41.8c-.2.6-.3 1.3-.5 1.9-3.9 13.2-15 22.7-28 22.7-7.2 0-13.8-2.9-19-7.8-.4-.3-.7-.7-1-1 .5.8.9 1.7 1.4 2.6.4.7.7 1.4 1 2.2.1.2.2.4.3.7.2.5.4 1 .6 1.6.1.2.2.5.3.7.2.5.4 1.1.6 1.6.1.2.1.4.2.6.2.7.5 1.5.7 2.2 5 17.1.9 33.8-10.7 40-7.9 4.2-17.6 2.6-26.3-3.3.2.8.5 1.6.7 2.3 15.6 50.3 22 91.1 14.5 95.8l-.6.3c-.2.1-.4.1-.5.1-8.1 1.3-26-30.5-43.3-75.6-.2-.5-.4-.9-.5-1.4-.1.4-.3.7-.5 1.1-3.6 7.6-10.3 12.8-18 12.8-8.9 0-16.5-6.9-19.4-16.5-.1-.4-.2-.7-.3-1.1-.1-.5-.3-1-.4-1.6-.1.2-.3.3-.4.5-1 1.3-2.2 2.5-3.6 3.4-9.1 6.4-22.7 2.7-33.6-8.1-.5-.5-1.1-1.1-1.6-1.7l-.2-.2c-.5-.5-1-1.1-1.4-1.6.3.5.6 1.1.9 1.6v.1c.3.5.6 1.1.8 1.6 7.8 15.7 6.7 32.6-3.3 39.6-2.3 1.6-4.8 2.5-7.5 2.9-.4.1-.9.1-1.3.1h-.2c0 .1.1.1.1.2l.1.1c11.5 15.6 14 33.8 4.9 44.1-5.8 6.5-15 8.5-25.1 6.4-.8-.2-1.6-.3-2.4-.6C72 239.9 97 266.6 91.8 275c-.1.2-.2.3-.3.4-4.1 5-20.5.8-43-9.8.2.3.5.6.7.9.1.2.2.3.3.5.1.1.2.3.3.4l.3.6c0 .1.1.2.1.2.1.3.2.5.3.8.7 1.7 1 3.5.8 5.2-1.1 10.7-19.4 17.4-40.7 14.9-1.9-.2-3.8-.5-5.7-.9-1.7-.3-3.4-.7-5.1-1.2.7.3 1.4.6 2 .9.9.5 1.6.9 2.3 1.2z"/></svg>