<svg version="1.1" xmlns="http://www.w3.org/2000/svg" x="0" y="0" viewBox="0 0 512 512" xml:space="preserve"><style type="text/css">.st1{fill:#70706f}.st2{fill:#ea8231}.st3{fill:#36434f}.st4{fill:#f4f4f4}</style><path d="M360.1 262.5c-3.5-10-8.2-19.5-14.4-28-19-26.1-45.4-46.4-76.2-57.8 3.6-11.6 5.6-23.9 5.5-36.8-.2-38.8-18.9-73.4-47.6-95.4h43.4c-6.6-16.4-22.6-28-41.3-28-11.7 0-22.3 4.5-30.2 11.9-14.3-5.8-30-9-46.4-8.8-15.6.1-30.6 3.2-44.3 8.8-7.9-7.4-18.5-11.9-30.1-11.9-18.7 0-34.8 11.6-41.3 28h43.2C51.6 66.6 33 101.4 33 140.5c0 25.4 7.8 49 21.2 68.4C20.9 239.1 0 282.6 0 331c0 90.9 73.6 164.5 164.5 164.5l347.5.3C444.4 432 391.3 352.2 360.1 262.5z" fill="#d3c5c1"/><path class="st1" d="M360.1 262.4c-3.5-9.9-8.2-19.4-14.3-28-18.9-26-45.2-46.3-75.9-57.7-19.6 6.5-37.5 16.5-53 29.3-54.5 45-60.9 126.1-15.5 180.3 54.9 65.5 136.7 107.6 228.4 109.3h10.9c2.8-.1 5.5-.1 8.2-.2h62.8c-67.5-63.7-120.4-143.4-151.6-233zM81.3 16.6c.5 0 .9.1 1.4.1.3 0 .6.1.8.1.4 0 .8.1 1.2.1.3 0 .6.1.9.1.4.1.8.1 1.1.2.3.1.6.1.9.2.4.1.7.1 1.1.2.3.1.6.2 1 .2.3.1.7.2 1 .3.3.1.6.2 1 .3.3.1.6.2 1 .3.3.1.6.2 1 .3l.9.3c.3.1.6.3 1 .4.3.1.6.2.9.4.3.1.6.3 1 .4.3.1.6.3.8.4.3.2.6.3 1 .5.3.1.5.3.8.4.3.2.6.4 1 .5.2.1.5.3.7.4.3.2.6.4 1 .6.2.1.5.3.7.5.3.2.6.4 1 .7.2.1.4.3.6.5.3.2.7.5 1 .7.2.1.4.3.5.4.3.3.7.5 1 .8.5.4.9.8 1.4 1.2.1 0 .2-.1.3-.1 22.7 15.4 38 44.5 38 77.8 0 29-23.5 52.5-52.5 52.5S42 135 42 106c0-6.7 1.3-13.1 3.6-19 8.3-16.7 20.3-31.2 35-42.5H37.2C43.4 29 58 17.8 75.5 16.6c.5 0 1-.1 1.5-.1h1.5c.7 0 1.4 0 2.1.1h.7zm145.4 0c-.5 0-.9.1-1.4.1-.3 0-.6.1-.8.1-.4 0-.8.1-1.2.1-.3 0-.6.1-.9.1-.4.1-.8.1-1.1.2s-.6.1-.9.2c-.4.1-.7.1-1.1.2-.3.1-.6.2-1 .2-.3.1-.7.2-1 .3-.3.1-.6.2-1 .3-.3.1-.6.2-1 .3-.3.1-.6.2-1 .3l-.9.3c-.3.1-.6.3-1 .4-.3.1-.6.2-.9.4-.3.1-.6.3-1 .4-.3.1-.6.3-.8.4-.3.2-.6.3-1 .5-.3.1-.5.3-.8.4-.3.2-.6.4-1 .5-.2.1-.5.3-.7.4-.3.2-.6.4-1 .6-.2.1-.5.3-.7.5-.3.2-.6.4-1 .7-.2.1-.4.3-.6.5-.3.2-.7.5-1 .7-.2.1-.4.3-.5.4-.3.3-.7.5-1 .8-.5.4-.9.8-1.4 1.2-.1 0-.2-.1-.3-.1-22.7 15.4-38 44.5-38 77.8 0 29 23.5 52.5 52.5 52.5s52.5-23.5 52.5-52.5c0-6.7-1.3-13.1-3.6-19-8.3-16.7-20.3-31.2-35-42.5h43.4c-6.2-15.5-20.9-26.7-38.3-27.9-.5 0-1-.1-1.5-.1h-1.5c-.7 0-1.4 0-2.1.1 0 .2-.2.2-.4.2z"/><path class="st2" d="M217.8 96.3c.8 4.4-14.3 19.3-23.2 20.9-9 1.6-17.5-4.4-19.1-13.4s4.4-17.5 13.4-19.1c8.9-1.7 28.1 7.1 28.9 11.6z"/><path class="st3" d="M191.2 84.4c9.6 0 25.9 7.8 26.6 11.8.8 4.4-14.3 19.3-23.2 20.9-1 .2-1.9.3-2.9.3-7.9 0-14.8-5.6-16.2-13.6-1.6-9 4.4-17.5 13.4-19.1.6-.2 1.4-.3 2.3-.3m0-2v2-2c-1 0-1.9.1-2.7.2-10 1.8-16.8 11.4-15 21.4 1.6 8.9 9.2 15.3 18.2 15.3 1.1 0 2.2-.1 3.2-.3 6.5-1.2 14.1-7.8 16.3-9.9 2.8-2.6 9.3-9.2 8.6-13.3-.6-3.6-7.2-7.1-11.1-8.9-6.3-2.8-12.8-4.5-17.5-4.5z"/><circle class="st3" cx="196.6" cy="100" r="10.5"/><circle class="st4" cx="201.6" cy="100" r="3.5"/><path class="st2" d="M90.2 96.3c-.8 4.4 14.3 19.3 23.2 20.9s17.5-4.4 19.1-13.4-4.4-17.5-13.4-19.1S91 91.8 90.2 96.3z"/><path class="st3" d="M116.8 84.4c.8 0 1.6.1 2.4.2 9 1.6 15 10.1 13.4 19.1-1.4 8-8.4 13.6-16.2 13.6-1 0-1.9-.1-2.9-.3-9-1.6-24-16.4-23.2-20.9.6-3.9 16.9-11.7 26.5-11.7m0-2c-4.7 0-11.2 1.7-17.5 4.6-3.9 1.8-10.5 5.3-11.1 8.9-.7 4.1 5.7 10.7 8.6 13.3 2.2 2 9.8 8.7 16.3 9.9 1.1.2 2.2.3 3.2.3 9 0 16.6-6.4 18.2-15.3 1.8-10-5-19.7-15-21.4-.8-.2-1.7-.3-2.7-.3z"/><circle class="st3" cx="116.4" cy="100" r="10.5"/><circle class="st4" cx="121.4" cy="100" r="3.5"/><path class="st3" d="M152.2 121.8l-5.5 10.4c-.4.8-.6 1.8-.4 2.8l6.7 30.2c.2 1 1.7 1 2 0l6.7-30.2c.2-.9.1-1.9-.4-2.8l-5.5-10.4c-.8-1.4-2.8-1.4-3.6 0z"/><path class="st1" d="M165.1 222.6c0 6.1-11.1 19.1-11.1 19.1s-11.1-13-11.1-19.1 5-11.1 11.1-11.1 11.1 5 11.1 11.1zm-30 0c0 6.1-11.1 19.1-11.1 19.1s-11.1-13-11.1-19.1 5-11.1 11.1-11.1 11.1 5 11.1 11.1zm-30 0c0 6.1-11.1 19.1-11.1 19.1s-11.1-13-11.1-19.1 5-11.1 11.1-11.1 11.1 5 11.1 11.1zm-30 0c0 6.1-11.1 19.1-11.1 19.1s-11.1-13-11.1-19.1 5-11.1 11.1-11.1 11.1 5 11.1 11.1zm120 0c0 6.1-11.1 19.1-11.1 19.1s-11.1-13-11.1-19.1 5-11.1 11.1-11.1 11.1 5 11.1 11.1zm-50 40c0 6.1-11.1 19.1-11.1 19.1s-11.1-13-11.1-19.1 5-11.1 11.1-11.1 11.1 5 11.1 11.1zm-30 0c0 6.1-11.1 19.1-11.1 19.1s-11.1-13-11.1-19.1 5-11.1 11.1-11.1 11.1 5 11.1 11.1zm-30 0c0 6.1-11.1 19.1-11.1 19.1s-11.1-13-11.1-19.1 5-11.1 11.1-11.1 11.1 5 11.1 11.1zm-30 0c0 6.1-11.1 19.1-11.1 19.1s-11.1-13-11.1-19.1 5-11.1 11.1-11.1 11.1 5 11.1 11.1zm120 0c0 6.1-11.1 19.1-11.1 19.1s-11.1-13-11.1-19.1 5-11.1 11.1-11.1 11.1 5 11.1 11.1zm-10 40c0 6.1-11.1 19.1-11.1 19.1s-11.1-13-11.1-19.1 5-11.1 11.1-11.1 11.1 5 11.1 11.1zm-30 0c0 6.1-11.1 19.1-11.1 19.1s-11.1-13-11.1-19.1 5-11.1 11.1-11.1 11.1 5 11.1 11.1zm-30 0c0 6.1-11.1 19.1-11.1 19.1s-11.1-13-11.1-19.1 5-11.1 11.1-11.1 11.1 5 11.1 11.1zm-30 0c0 6.1-11.1 19.1-11.1 19.1s-11.1-13-11.1-19.1 5-11.1 11.1-11.1 11.1 5 11.1 11.1zm70 40c0 6.1-11.1 19.1-11.1 19.1s-11.1-13-11.1-19.1 5-11.1 11.1-11.1 11.1 5 11.1 11.1zm-30 0c0 6.1-11.1 19.1-11.1 19.1s-11.1-13-11.1-19.1 5-11.1 11.1-11.1 11.1 5 11.1 11.1zm-30 0c0 6.1-11.1 19.1-11.1 19.1s-11.1-13-11.1-19.1 5-11.1 11.1-11.1 11.1 5 11.1 11.1zm-30 0c0 6.1-11.1 19.1-11.1 19.1s-11.1-13-11.1-19.1 5-11.1 11.1-11.1 11.1 5 11.1 11.1zm120 0c0 6.1-11.1 19.1-11.1 19.1s-11.1-13-11.1-19.1 5-11.1 11.1-11.1 11.1 5 11.1 11.1zm-130-40c0 6.1-11.1 19.1-11.1 19.1s-11.1-13-11.1-19.1 5-11.1 11.1-11.1 11.1 5 11.1 11.1z"/><path d="M154 495.2V19.5h-1.1c-15.6.1-30.6 3.2-44.3 8.8-7.9-7.3-18.5-11.8-30.1-11.8-18.7 0-34.8 11.6-41.3 28h43.2C51.6 66.6 33 101.4 33 140.5c0 25.4 7.8 49 21.2 68.4C20.9 239.1 0 282.6 0 331c0 87.3 68 158.7 154 164.2z" opacity=".15" fill="#444"/></svg>