<svg version="1.1" xmlns="http://www.w3.org/2000/svg" x="0" y="0" viewBox="0 0 512 512" xml:space="preserve"><path fill="#607786" d="M512 462L349.7 200.9l-93.7-8.4h-88.6L0 462z"/><path d="M211.3 462H512L349.7 200.9h-69.9L286 240l9.3 51.1c.4 2.3-.8 4.5-2.9 5.5L205.1 336c-1.9.9-3.1 2.8-2.9 4.9l9.1 121.1z" fill="#36434f"/><path d="M167.4 192.5L283.6 239c1.5.6 3.1.4 4.5-.4l61.6-37.8-89.5-144c-2-3.1-6.5-3.1-8.5 0l-84.3 135.7z" fill="#f4f4f4"/><path d="M256.7 54.5l29.2 184.8c.8-.1 1.5-.2 2.2-.6l61.6-37.8-89.5-144c-.8-1.4-2.1-2.2-3.5-2.4z" fill="#d7d9dc"/></svg>