<svg version="1.1" xmlns="http://www.w3.org/2000/svg" x="0" y="0" viewBox="0 0 512 512" xml:space="preserve"><style type="text/css">.st0{fill:#ddd}.st1{fill:#bbb}.st2{fill:#999}</style><circle class="st0" cx="256" cy="478.4" r="33.6"/><path class="st1" d="M216.8 380v101c0 8.7 17.6 15.8 39.3 15.8s39.3-7.1 39.3-15.8V380h-78.6z"/><path class="st2" d="M300.8 473.8v-.3c-.4-3.5-2.5-6-5.5-7.8v8.8c.1 6.4-16.6 13.7-37.9 16.5-5.6.7-11 1.1-15.9 1.1-7.4 0-13.7-.8-18-2.2 6.9 4.2 18.7 6.9 32.1 7 .9-.1 1.7-.2 2.6-.3 11-1.4 21.3-4.1 28.9-7.5 2.7-1.2 5-2.5 6.9-3.8.5-.3 1-.7 1.4-1 3.9-3.3 5.7-6.8 5.4-10.5z"/><path class="st2" d="M300.8 455.8v-.3c-.4-3.5-2.5-6-5.5-7.8v8.8c.1 6.4-16.6 13.7-37.9 16.5-5.6.7-11 1.1-15.9 1.1-14 0-24.1-2.8-24.6-7.6v-10c-4 3.2-5.9 6.6-5.5 10.4v.3c.4 3.5 2.5 6 5.5 7.8 6.5 4 17.3 4.7 24.7 4.7 5.3 0 10.9-.4 16.7-1.1 11-1.4 21.3-4.1 28.9-7.5 3.4-1.5 6.2-3.1 8.3-4.8 3.8-3.3 5.6-6.8 5.3-10.5z"/><path class="st2" d="M300.8 437.8v-.3c-.4-3.5-2.5-6-5.5-7.8v8.8c.1 6.4-16.6 13.7-37.9 16.5-5.6.7-11 1.1-15.9 1.1-14 0-24.1-2.8-24.6-7.6v-10c-4 3.2-5.9 6.6-5.5 10.4v.3c.4 3.5 2.5 6 5.5 7.8 6.5 4 17.3 4.7 24.7 4.7 5.3 0 10.9-.4 16.7-1.1 11-1.4 21.3-4.1 28.9-7.5 3.4-1.5 6.2-3.1 8.3-4.8 3.8-3.3 5.6-6.8 5.3-10.5z"/><path class="st2" d="M300.8 419.8v-.3c-.4-3.5-2.5-6-5.5-7.8v8.8c.1 6.4-16.6 13.7-37.9 16.5-5.6.7-11 1.1-15.9 1.1-14 0-24.1-2.8-24.6-7.6v-10c-4 3.2-5.9 6.6-5.5 10.4v.3c.4 3.5 2.5 6 5.5 7.8 6.5 4 17.3 4.7 24.7 4.7 5.3 0 10.9-.4 16.7-1.1 11-1.4 21.3-4.1 28.9-7.5 3.4-1.5 6.2-3.1 8.3-4.8 3.8-3.3 5.6-6.8 5.3-10.5z"/><path class="st2" d="M300.8 401.8v-.3c-.4-3.5-2.5-6-5.5-7.8v8.8c.1 6.4-16.6 13.7-37.9 16.5-5.6.7-11 1.1-15.9 1.1-14 0-24.1-2.8-24.6-7.6v-10c-4 3.2-5.9 6.6-5.5 10.4v.3c.4 3.5 2.5 6 5.5 7.8 6.5 4 17.3 4.7 24.7 4.7 5.3 0 10.9-.4 16.7-1.1 11-1.4 21.3-4.1 28.9-7.5 3.4-1.5 6.2-3.1 8.3-4.8 3.8-3.3 5.6-6.8 5.3-10.5z"/><path class="st1" d="M201 345h110v43H201z"/><ellipse class="st1" cx="256" cy="388" rx="55" ry="15.8"/><path d="M395 194.5l.5-1.1c4.8-14.6 7.5-30.2 7.5-46.4C403 65.8 337.2 0 256 0S109 65.8 109 147c0 16.2 2.6 31.8 7.5 46.4l.5 1.1c35.1 14.3 84.4 23.2 139 23.2s103.9-8.9 139-23.2z" fill="#eec646"/><path class="st0" d="M395.5 193.4C359.3 203 310.1 209 256 209s-103.3-6-139.5-15.6l51.9 115.3 16.9 37.6c1.4 3.2 4.2 5.6 7.6 6.6C210 358 232 361 256 361s46-3 63.1-8.1c3.4-1 6.1-3.4 7.6-6.6l16.9-37.6 51.9-115.3z"/><path d="M116.5 193.4l51.9 115.3 16.9 37.6c1.4 3.2 4.2 5.6 7.6 6.6 2.6.8 5.3 1.5 8.1 2.1v33c0 4.3 6 8.2 15.8 11v3.3c-4 3.2-5.9 6.6-5.5 10.4v.3c.4 3.3 2.4 5.8 5.2 7.6-3.8 3.1-5.5 6.5-5.2 10.1v.3c.4 3.3 2.4 5.8 5.2 7.6-3.8 3.1-5.5 6.5-5.2 10.1v.3c.4 3.3 2.4 5.8 5.2 7.6-3.8 3.1-5.5 6.5-5.2 10.1v.3c.4 3.5 2.5 6 5.5 7.8v6.2c0 3.6 2.9 6.8 7.9 9.5 4.8 12.6 17 21.5 31.3 21.5V209c-54.1 0-103.3-6-139.5-15.6z" opacity=".15" fill="#444"/></svg>