<svg version="1.1" xmlns="http://www.w3.org/2000/svg" x="0" y="0" viewBox="0 0 512 512" xml:space="preserve"><path d="M95.5 9.5c-2.8 0-5 2.3-5 5v483c0 2.8 2.3 5 5 5h321c2.8 0 5-2.3 5-5v-483c0-2.8-2.3-5-5-5h-321z" fill="#667e8e"/><path fill="#647b8b" d="M90.5 484v18.4h173.9l157.1-388.6V9.6h-5.9z"/><path fill="#607786" d="M90.5 484L415.6 9.6H90.5z"/><path d="M23 0v512h466V0H23zm61.5 486.5c0 4.4-3.6 8-8 8h-23c-4.4 0-8-3.6-8-8v-13c0-4.4 3.6-8 8-8h23c4.4 0 8 3.6 8 8v13zm0-64c0 4.4-3.6 8-8 8h-23c-4.4 0-8-3.6-8-8v-13c0-4.4 3.6-8 8-8h23c4.4 0 8 3.6 8 8v13zm0-64c0 4.4-3.6 8-8 8h-23c-4.4 0-8-3.6-8-8v-13c0-4.4 3.6-8 8-8h23c4.4 0 8 3.6 8 8v13zm0-64c0 4.4-3.6 8-8 8h-23c-4.4 0-8-3.6-8-8v-13c0-4.4 3.6-8 8-8h23c4.4 0 8 3.6 8 8v13zm0-64c0 4.4-3.6 8-8 8h-23c-4.4 0-8-3.6-8-8v-13c0-4.4 3.6-8 8-8h23c4.4 0 8 3.6 8 8v13zm0-64c0 4.4-3.6 8-8 8h-23c-4.4 0-8-3.6-8-8v-13c0-4.4 3.6-8 8-8h23c4.4 0 8 3.6 8 8v13zm0-64c0 4.4-3.6 8-8 8h-23c-4.4 0-8-3.6-8-8v-13c0-4.4 3.6-8 8-8h23c4.4 0 8 3.6 8 8v13zm0-64c0 4.4-3.6 8-8 8h-23c-4.4 0-8-3.6-8-8v-13c0-4.4 3.6-8 8-8h23c4.4 0 8 3.6 8 8v13zM419 500H93V12h326v488zm47.5-13.5c0 4.4-3.6 8-8 8h-23c-4.4 0-8-3.6-8-8v-13c0-4.4 3.6-8 8-8h23c4.4 0 8 3.6 8 8v13zm0-64c0 4.4-3.6 8-8 8h-23c-4.4 0-8-3.6-8-8v-13c0-4.4 3.6-8 8-8h23c4.4 0 8 3.6 8 8v13zm0-64c0 4.4-3.6 8-8 8h-23c-4.4 0-8-3.6-8-8v-13c0-4.4 3.6-8 8-8h23c4.4 0 8 3.6 8 8v13zm0-64c0 4.4-3.6 8-8 8h-23c-4.4 0-8-3.6-8-8v-13c0-4.4 3.6-8 8-8h23c4.4 0 8 3.6 8 8v13zm0-64c0 4.4-3.6 8-8 8h-23c-4.4 0-8-3.6-8-8v-13c0-4.4 3.6-8 8-8h23c4.4 0 8 3.6 8 8v13zm0-64c0 4.4-3.6 8-8 8h-23c-4.4 0-8-3.6-8-8v-13c0-4.4 3.6-8 8-8h23c4.4 0 8 3.6 8 8v13zm0-64c0 4.4-3.6 8-8 8h-23c-4.4 0-8-3.6-8-8v-13c0-4.4 3.6-8 8-8h23c4.4 0 8 3.6 8 8v13zm0-64c0 4.4-3.6 8-8 8h-23c-4.4 0-8-3.6-8-8v-13c0-4.4 3.6-8 8-8h23c4.4 0 8 3.6 8 8v13z" fill="#36434f"/></svg>