<svg xmlns="http://www.w3.org/2000/svg" viewBox="0 0 512 512" xml:space="preserve"><path d="M148 178h216v334H148zM328 0H184c-19.9 0-36 16.1-36 36v137h216V36c0-19.9-16.1-36-36-36z" fill="#ddd"/><path fill="#999" d="M148 172h216v7H148z"/><path d="M344 159.4c0-1-.7-1.8-1.7-2-9.7-1.6-19.7-2.4-29.8-2.4-15.5 0-30.6 1.9-45 5.6-.9.2-1.5 1-1.5 1.9v1.5c0 1.1.9 2 2 2h13c0-1.1.9-2 2-2h39c1.1 0 2 .9 2 2h18c1.1 0 2-.9 2-2v-4.6zm0 32.2c0 1-.7 1.8-1.7 2-9.7 1.6-19.7 2.4-29.8 2.4-15.5 0-30.6-1.9-45-5.6-.9-.2-1.5-1-1.5-1.9V187c0-1.1.9-2 2-2h13c0 1.1.9 2 2 2h39c1.1 0 2-.9 2-2h18c1.1 0 2 .9 2 2v4.6z" fill="#36434f"/><path d="M148 473h216v3H148zm0 6h216v3H148zm0 6h216v3H148zm0 6h216v3H148zm0 6h216v3H148zm0 6h216v3H148zm0 6h216v3H148z" fill="#444" opacity=".15"/><path d="M348.5 148c2.2 0 4-1.8 4-4V37c0-2.2-1.8-4-4-4s-4 1.8-4 4v107c0 2.2 1.8 4 4 4zm0 55c-2.2 0-4 1.8-4 4v250c0 2.2 1.8 4 4 4s4-1.8 4-4V207c0-2.2-1.8-4-4-4z" fill="#fff" opacity=".5"/><path d="M184 0c-19.9 0-36 16.1-36 36v476h108V0h-72z" opacity=".15" fill="#444"/></svg>