<svg xmlns="http://www.w3.org/2000/svg" viewBox="0 0 512 512" xml:space="preserve"><style>.st1{fill:#f1dd9d}</style><circle cx="256" cy="256" r="256" fill="#eec646"/><path class="st1" d="M256 38c29.4 0 58 5.8 84.9 17.1 26 11 49.3 26.7 69.3 46.7 20 20 35.7 43.3 46.7 69.3C468.2 198 474 226.6 474 256s-5.8 58-17.1 84.9c-11 26-26.7 49.3-46.7 69.3-20 20-43.3 35.7-69.3 46.7C314 468.2 285.4 474 256 474s-58-5.8-84.9-17.1c-26-11-49.3-26.7-69.3-46.7-20-20-35.7-43.3-46.7-69.3C43.8 314 38 285.4 38 256s5.8-58 17.1-84.9c11-26 26.7-49.3 46.7-69.3s43.3-35.7 69.3-46.7C198 43.8 226.6 38 256 38m0-16C126.8 22 22 126.8 22 256s104.8 234 234 234 234-104.8 234-234S385.2 22 256 22z"/><path d="m300.3 191.9-4.1-15.4h-61.8l-6.5 52.9c4.3-3.2 9.5-5.8 15.4-7.8s12.6-3.1 19.9-3.2c22.1-.3 39.1 6.4 51.2 20 12.1 13.7 18.1 32.7 18.1 57 0 22.1-6.6 40.4-19.9 55-13.3 14.6-32.4 21.9-57.4 21.9-21 0-39-5.8-54-17.3s-22.3-27.3-21.7-47.5l.3-.8 44.1-2.2c0 10.2 2.9 18.1 8.7 23.9 5.8 5.7 13.3 8.6 22.7 8.6 10.7 0 18.6-3.8 23.8-11.5 5.1-7.7 7.7-17.6 7.7-29.8 0-13.2-2.7-23.8-8.2-31.8-5.5-8-13.6-12-24.4-12-8.7 0-15.4 1.6-20.1 4.9-4.7 3.3-8 7.7-10 13.2l-40.7-2.7 13.2-127.8h132v52.3h-28.3z" fill="#444" opacity=".3"/><circle class="st1" cx="125.4" cy="125.6" r="8"/><circle transform="rotate(-38.516 102.425 153.557)" class="st1" cx="102.4" cy="153.6" r="8"/><circle transform="rotate(-22.5 185.29 426.872)" class="st1" cx="185.3" cy="426.9" r="8"/><circle transform="rotate(-78.749 102.217 358.755)" class="st1" cx="102.2" cy="358.8" r="8"/><path class="st1" d="M188.3 92.6c4.1-1.7 6.1-6.4 4.4-10.5s-6.4-6.1-10.5-4.4c-4.1 1.7-6.1 6.4-4.4 10.5s6.4 6 10.5 4.4zm-30.4 310.5c-3.7-2.5-8.7-1.5-11.1 2.2-2.5 3.7-1.5 8.7 2.2 11.1 3.7 2.5 8.7 1.5 11.1-2.2 2.4-3.6 1.4-8.6-2.2-11.1z"/><circle class="st1" cx="153.2" cy="102.2" r="8"/><circle class="st1" cx="125.4" cy="386.8" r="8"/><circle transform="rotate(-33.75 74.831 220.14)" class="st1" cx="74.8" cy="220.2" r="8"/><path class="st1" d="M290.5 82.9c4.4.9 8.6-2 9.4-6.3.9-4.4-2-8.6-6.3-9.4-4.4-.9-8.6 2-9.4 6.3-.9 4.3 2 8.5 6.3 9.4z"/><circle transform="rotate(-50.559 426.858 185.215)" class="st1" cx="426.9" cy="185.2" r="8"/><circle transform="rotate(-56.25 437.39 219.907)" class="st1" cx="437.4" cy="219.9" r="8"/><circle transform="rotate(-50.559 85.114 326.766)" class="st1" cx="85.1" cy="326.8" r="8"/><circle transform="rotate(-45.001 71.039 256.002)" class="st1" cx="71" cy="256" r="8"/><circle class="st1" cx="85.3" cy="185.5" r="8"/><circle class="st1" cx="74.6" cy="292.1" r="8"/><path class="st1" d="M221.6 429.5c-4.4-.9-8.6 2-9.4 6.3-.9 4.4 2 8.6 6.3 9.4 4.4.9 8.6-2 9.4-6.3.8-4.3-2-8.5-6.3-9.4z"/><circle transform="rotate(-18.024 409.668 358.85)" class="st1" cx="409.7" cy="358.8" r="8"/><circle transform="rotate(-78.749 409.788 153.237)" class="st1" cx="409.8" cy="153.2" r="8"/><circle class="st1" cx="386.6" cy="125.6" r="8"/><circle transform="rotate(-31.714 386.677 386.855)" class="st1" cx="386.6" cy="386.8" r="8"/><circle transform="rotate(-45.001 440.958 256.006)" class="st1" cx="441" cy="256" r="8"/><circle transform="rotate(-33.75 437.216 292.224)" class="st1" cx="437.2" cy="292.2" r="8"/><circle class="st1" cx="219.9" cy="74.6" r="8"/><circle transform="rotate(-15.269 426.695 326.935)" class="st1" cx="426.7" cy="326.9" r="8"/><circle class="st1" cx="292.1" cy="437.4" r="8"/><circle class="st1" cx="256" cy="71" r="8"/><circle class="st1" cx="256" cy="441" r="8"/><circle transform="rotate(-61.066 358.691 102.57)" class="st1" cx="358.7" cy="102.6" r="8"/><circle class="st1" cx="358.8" cy="409.8" r="8"/><circle transform="rotate(-52.569 326.75 426.859)" class="st1" cx="326.8" cy="426.9" r="8"/><circle transform="rotate(-22.5 326.688 85.507)" class="st1" cx="326.7" cy="85.5" r="8"/><path d="M0 256c0 141.4 114.6 256 256 256V0C114.6 0 0 114.6 0 256z" opacity=".15" fill="#444"/></svg>