<svg version="1.1" xmlns="http://www.w3.org/2000/svg" x="0" y="0" viewBox="0 0 512 512" xml:space="preserve"><path d="M500 0H94c0 9.9-8.1 18-18 18S58 9.9 58 0H12C5.4 0 0 5.4 0 12v488c0 6.6 5.4 12 12 12h488c6.6 0 12-5.4 12-12V12c0-6.6-5.4-12-12-12z" fill="#bbb"/><path d="M463 431.5c0 3.3-2.7 6-6 6H55c-3.3 0-6-2.7-6-6v-351c0-3.3 2.7-6 6-6h402c3.3 0 6 2.7 6 6v351z" fill="#ddd"/><path d="M82 142.5h348v227H82v-227z" fill="#667e8e"/><path d="M95.8 369.5h154.9l162.2-227h-42.2l-274.9 227z" fill="#647b8b"/><path d="M370.7 142.5H82v227h13.8l274.9-227z" fill="#607786"/></svg>