<svg version="1.1" xmlns="http://www.w3.org/2000/svg" x="0" y="0" viewBox="0 0 512 512" xml:space="preserve"><circle fill="#ddd" cx="32" cy="468.5" r="29"/><path fill="#36434F" d="M32 447.5c11.6 0 21 9.4 21 21s-9.4 21-21 21-21-9.4-21-21 9.4-21 21-21m0-8c-16 0-29 13-29 29s13 29 29 29 29-13 29-29-13-29-29-29z"/><circle fill="#36434F" cx="32" cy="468.5" r="9"/><path fill="#36434F" d="M61 419.5l-28.8 39.8c-.1.2-.2.3-.3.5l-3.9 8.4c0 1.8 1.6 3.2 3.3 3l9.4-3.5c.2-.1.4-.2.5-.3l76.7-47.8H61v-.1z"/><circle fill="#ddd" cx="422" cy="468.5" r="29"/><path fill="#36434F" d="M422 447.5c11.6 0 21 9.4 21 21s-9.4 21-21 21-21-9.4-21-21 9.4-21 21-21m0-8c-16 0-29 13-29 29s13 29 29 29 29-13 29-29-13-29-29-29z"/><circle fill="#36434F" cx="422" cy="468.5" r="9"/><path fill="#36434F" d="M451 419.5l-28.8 39.8c-.1.2-.2.3-.3.5l-3.9 8.4c0 1.8 1.6 3.2 3.3 3l9.4-3.5c.2-.1.4-.2.5-.3l76.7-47.8H451v-.1zm-153-5h-39.9c-4.5 0-8.7-2-11.6-5.5-2.9-3.5-4-8-3.2-12.4l15.7-81c.3-1.6-.2-3.2-1.3-4.4l-15.5-16.3 7.3-6.9 15.5 16.3c3.3 3.5 4.8 8.4 3.9 13.2l-15.7 81c-.4 2 .5 3.5 1.1 4.1.6.7 1.8 1.8 3.9 1.8H298v10.1z"/><path fill="#36434F" d="M512 424.5H67.8c-10 0-18.7-5.7-22.8-14.8-4.1-9.1-2.5-19.4 4.2-26.9l72.3-80.6L49.2 37.5c-1.8-6.5-7.7-11-14.5-11H0v-10h34.7c11.2 0 21.2 7.6 24.1 18.4l73.7 269.9-75.9 84.7c-4.1 4.5-5 10.6-2.5 16.1 2.5 5.6 7.6 8.9 13.7 8.9H512v10z"/><path fill="#36434F" d="M264.6 275.5c-.2-1.6-1.7-2.8-3.3-2.6l-134.2 17.6c-1.6.2-2.7 1.7-2.3 3.3l1.5 6c.4 1.6-.2 3.9-1.2 5.2l-12.3 14.6c-1.1 1.3-1.9 2.6-1.9 2.9s1.4.4 3 .2l151-19.8c1.6-.2 2.8-1.7 2.6-3.4l-2.9-24z"/><path fill="#FFA000" d="M39 25.5c0 1.6-1.3 3-3 3H3c-1.6 0-3-1.4-3-3v-8c0-1.6 1.4-3 3-3h33c1.7 0 3 1.4 3 3v8z"/><path fill="#36434F" d="M125.5 305.7l-.5-1.7L58.3 59.7l437.2 19.4c6.4.3 11.5 5.6 11.5 12v161.5c0 6.1-4.6 11.3-10.7 11.9l-370.8 41.2zM63.7 63.9l64.8 237.4 367.4-40.8c4.1-.5 7.1-3.9 7.1-8V91.1c0-4.3-3.4-7.8-7.6-8L63.7 63.9z"/><path d="M492.7 81l-4-.2 2 182.3 4-.5zm-14.2-.7l-4-.2 3.9 184.4 4-.5zm-14.3-.6l-4-.2 6 186.3 3.9-.4zm-14.3-.6l-4-.2 8 188.3 4-.5zm-14.3-.7l-4-.2 10 190.3 4-.4zm-14.3-.6l-4-.2 12.1 192.3 4-.4zm-14.2-.6L403 77l14.1 194.3 4-.5zm-14.3-.7l-4.1-.2 16.2 196.3 4-.4zm-14.3-.6l-4.1-.2L392.7 274l3.9-.5zm-14.3-.7l-4.1-.1 20.3 200.2 4-.4zm-14.3-.6l-4.1-.2 22.4 202.3 4-.4zm-14.4-.6l-4-.2L356 278.1l4-.5zm-14.3-.7l-4-.1 26.6 206.2 4-.4zm-14.3-.6l-4-.2 28.7 208.3 4-.5zm-14.3-.6l-4.1-.2 30.9 210.2 4-.4zm-14.3-.7l-4.1-.1 33 212.2 4-.5zm-14.4-.6l-4-.2L295 284.8l4-.4zm-14.3-.6l-4.1-.2 37.3 216.2 4-.5zm-14.3-.7l-4.1-.2 39.5 218.2 3.9-.4zm-14.3-.6l-4.2-.2 41.7 220.2 4-.5zm-14.4-.6l-4.1-.2 43.8 222.1 4-.4zm-14.3-.7l-4.1-.2 46 224.2 4-.5zm-14.4-.6l-4.1-.2L222 292.9l4-.4zm-14.3-.7l-4.2-.1 50.5 228.1 3.9-.5zm-14.4-.6l-4.1-.2 52.6 230.1 4-.4zm-14.3-.6l-4.2-.2L185.6 297l4-.5zm-14.4-.7l-4.1-.2 57 234.1 4-.4zm-14.3-.6l-4.2-.2 59.3 236.1 4-.5zm-14.4-.6l-4.2-.2 61.6 238 4-.4zM137 302.4l4-.5L77.5 62.5l-4.2-.2z" fill="#36434F"/><path d="M505 226.9v-4l-391.7 30.4 1.1 3.9zm0-36.1v-4l-404.9 18 1 4zm0-35.9v-4l-418.1 5.6 1 4zM74.8 112.3l430.2 6.8v-4l-431.3-6.9z" fill="#36434F"/><path fill="#FFA000" d="M492.5 84.9c-.1 1.6-1.5 2.9-3.1 2.9l-53.6-2.2c-1.6-.1-2.9-1.5-2.9-3.1l.3-8c.1-1.6 1.5-2.9 3.1-2.9l53.6 2.2c1.6.1 2.9 1.5 2.9 3.1l-.3 8zM512 238.5c0 1.6-1.4 3-3 3h-8c-1.6 0-3-1.4-3-3v-128c0-1.7 1.4-3 3-3h8c1.6 0 3 1.3 3 3v128z"/></svg>