<svg version="1.1" xmlns="http://www.w3.org/2000/svg" x="0" y="0" viewBox="0 0 512 512" xml:space="preserve"><style type="text/css">.st0{fill:#36434f}.st3{opacity:.15;fill:#444}</style><path class="st0" d="M256 16c19.9 0 36 16.1 36 36s-16.1 36-36 36-36-16.1-36-36 16.1-36 36-36m0-16c-28.7 0-52 23.3-52 52s23.3 52 52 52 52-23.3 52-52-23.3-52-52-52z"/><path d="M434.4 289h-7.9c-8.1 58.8-49.2 107.1-103.9 125.7-23.4 8-47.6-9.4-47.6-34.1V69s-6-7-19-7-19 7-19 7v311.7c0 24.7-24.3 42-47.6 34.1-54.8-18.7-95.8-67-103.9-125.8h-7.9c6.4 85.6 63.9 156.9 142 183.6C235.9 481 248.9 495 256 512c7.1-17 20.1-31 36.4-39.4 78.1-26.7 135.6-98 142-183.6z" fill="#2e86b7"/><path d="m348.6 145.1-31.6 2.4H195l-27.7-2.4c-4.1-.4-7.3-3.8-7.3-8v-12.3c0-4.2 3.2-7.6 7.3-8l27.7-2.4h122l31.6 2.4c4.2.3 7.4 3.8 7.4 8V137c0 4.3-3.2 7.7-7.4 8.1z" fill="#a18267"/><path class="st3" d="M237 99h38v64h-38z"/><path class="st0" d="M309 155H203c-4.4 0-8-3.6-8-8v-32c0-4.4 3.6-8 8-8h106c4.4 0 8 3.6 8 8v32c0 4.4-3.6 8-8 8z"/><path d="m78.3 269.6-14.1 76.9 24.5-21.2 30.5 11zm355.4 0 14.1 76.9-24.5-21.2-30.5 11z" fill="#317ca6"/><path class="st3" d="M237 69v13.6c-10.2-6.4-17-17.7-17-30.6 0-19.9 16.1-36 36-36V0c-28.7 0-52 23.3-52 52 0 22 13.7 40.8 33 48.4v6.6h-34c-4.2 0-7.7 3.3-8 7.5l-27.7 2.4c-4.1.4-7.3 3.8-7.3 8v12.3c0 4.2 3.2 7.6 7.3 8l27.7 2.4c.3 4.2 3.7 7.5 8 7.5h34v225.7c0 24.7-24.3 42-47.6 34.1-42-14.3-75.9-46.1-93.1-86.7l23 8.2-40.9-66.6-14.2 76.9 20.3-17.6C103 396.3 154 450.2 219.6 472.6 235.9 481 248.9 495 256 512V62c-13 0-19 7-19 7z"/></svg>