<svg xmlns="http://www.w3.org/2000/svg" viewBox="0 0 512 512" xml:space="preserve"><style>.st1{fill:#36434f}.st2{fill:#ddd}.st3{fill:#122a3a}.st5{opacity:.1;fill:#fff;enable-background:new}</style><path fill="#a18267" d="M0 77h512v358H0z"/><path class="st1" d="M8 85h496v342H8z"/><path class="st2" d="M500 89v334H12V89h488m4-4H8v342h496V85z"/><path class="st3" d="M206.5 117c-47 0-93.8 3.1-139 9.1-14.5 1.9-25.9 13.5-27.5 28-4 34.3-6 69.6-6 104.8 0 33.1 1.8 66.2 5.3 98.5 1.6 14.7 12.9 26.3 27.5 28.2 45.4 6.1 92.4 9.2 139.7 9.2 50.5 0 100.7-3.6 149.1-10.6 14.5-2.1 25.7-13.7 27.3-28.2 3.4-31.9 5.1-64.6 5.1-97.2 0-34.8-2-69.6-5.8-103.5-1.6-14.4-12.9-26-27.3-28.1-48.2-6.7-98.1-10.2-148.4-10.2z"/><path d="M354.4 376.5c10.9-1.6 19.3-10.3 20.5-21.2 3.3-31.3 5.1-63.4 5.1-96.3 0-35.1-2-69.4-5.8-102.6-1.2-10.9-9.7-19.5-20.5-21-47-6.8-96.4-10.4-147.3-10.4-47.5 0-93.7 3.1-137.9 9.1-10.9 1.5-19.4 10.1-20.7 21C44 188.7 42 223.5 42 259c0 33.4 1.8 66 5.2 97.7 1.2 11 9.7 19.7 20.7 21.2 44.4 6 90.8 9.2 138.6 9.2 51.1-.1 100.7-3.7 147.9-10.6z" fill="#038387"/><path class="st5" d="M325.1 131.7c-10.4-1.2-21-2.2-31.6-3.1L45.8 341.8c.5 5 .9 9.9 1.5 14.9 1.2 11 9.7 19.7 20.7 21.2 26.9 3.6 54.6 6.2 82.8 7.7l174.3-253.9z"/><circle class="st2" cx="429" cy="224" r="10"/><circle class="st1" cx="429" cy="224" r="5"/><circle class="st2" cx="477" cy="224" r="10"/><circle class="st1" cx="477" cy="224" r="5"/><circle class="st2" cx="454" cy="224" r="10"/><circle class="st1" cx="454" cy="224" r="5"/><path class="st5" d="M416 246h74v163h-74z"/><path class="st2" d="M419 250.5h68v2h-68zm0 16h68v2h-68zm2-11h64v8h-64z"/><path class="st5" d="M416 104h74v98h-74z"/><circle class="st3" cx="453" cy="159.5" r="13"/><path class="st2" d="M464 123.5h26v2h-26zm-48 0h26v2h-26zm0-4h26v2h-26zm48 0h26v2h-26zm-48-16h74v2h-74zm0 4h74v2h-74zm0 4h74v2h-74zm0 4h74v2h-74zm34 19.5v1h1l1.6 3.1c.2.4.7.4.9 0l1.6-3.1h1v-1H450zm12.7 1.8-.5.9.9.5-.2 3.5c0 .4.4.7.8.4l2.9-1.9.9.5.5-.9-5.3-3zm10 7.9-.9.5.5.9-1.9 2.9c-.2.3 0 .8.4.8l3.5-.2.5.9.9-.5-3-5.3zm4.8 11.8h-1v1l-3.1 1.6c-.4.2-.4.7 0 .9l3.1 1.6v1h1v-6.1zm-1.8 12.7-.9-.5-.5.9-3.5-.2c-.4 0-.7.4-.4.8l1.9 2.9-.5.9.9.5 3-5.3zm-7.9 10-.5-.9-.9.5-2.9-1.9c-.3-.2-.8 0-.8.4l.2 3.5-.9.5.5.9 5.3-3zM456 184v-1h-1l-1.6-3.1c-.2-.4-.7-.4-.9 0L451 183h-1v1h6zm-12.7-1.8.5-.9-.9-.5.2-3.5c0-.4-.4-.7-.8-.4l-2.9 1.9-.9-.5-.5.9 5.3 3zm-10-7.9.9-.5-.5-.9 1.9-2.9c.2-.3 0-.8-.4-.8l-3.5.2-.5-.9-.9.5 3 5.3zm-4.8-11.8h1v-1l3.1-1.6c.4-.2.4-.7 0-.9l-3.1-1.6v-1h-1v6.1zm1.8-12.7.9.5.5-.9 3.5.2c.4 0 .7-.4.4-.8l-1.9-2.9.5-.9-.9-.5-3 5.3zm7.9-10 .5.9.9-.5 2.9 1.9c.3.2.8 0 .8-.4l-.2-3.5.9-.5-.5-.9-5.3 3zm16.8 35.9v-29.9h-4v29.9c0 1 .9 1.8 2 1.8s2-.8 2-1.8z"/><path d="M455 143.3c0-1-.9-1.8-2-1.8s-2 .8-2 1.8v2.4h4v-2.4z" fill="#cc584c"/><path class="st2" d="M450.9 130h-2v-6.3l-1.9.6v-1.5l3.7-1.3h.2v8.5zm8.6 0h-6v-1.3l2.7-2.9c.7-.8 1-1.4 1-1.8s-.1-.6-.2-.8-.4-.3-.7-.3c-.3 0-.5.1-.7.4s-.3.6-.3 1h-2c0-.5.1-1 .4-1.5s.6-.8 1.1-1 1-.4 1.6-.4c.9 0 1.6.2 2.1.6s.7 1 .7 1.8c0 .3-.1.7-.2 1s-.3.7-.6 1-.7.8-1.3 1.4l-1.1 1.3h3.4v1.5h.1zm23.4 27.9h.9c.7 0 1.1-.4 1.1-1.1 0-.3-.1-.5-.3-.7s-.4-.3-.7-.3c-.3 0-.5.1-.7.2s-.3.3-.3.6h-2c0-.4.1-.8.4-1.2s.6-.6 1-.8.9-.3 1.5-.3c.9 0 1.7.2 2.2.7s.8 1 .8 1.8c0 .4-.1.7-.3 1s-.6.6-1 .8c.5.2.8.4 1.1.7s.4.7.4 1.2c0 .8-.3 1.4-.9 1.8s-1.4.7-2.3.7c-.6 0-1.1-.1-1.6-.3s-.8-.5-1.1-.9-.4-.8-.4-1.3h2c0 .3.1.5.3.7s.5.3.8.3.6-.1.8-.3.3-.4.3-.7c0-.4-.1-.7-.3-.9s-.5-.3-.9-.3h-1v-1.4h.2zm-60 1.8c-.4.4-.9.6-1.4.6-.8 0-1.4-.3-1.8-.8s-.7-1.2-.7-2.1c0-.5.1-1.1.4-1.5s.6-.8 1.1-1.1 1-.4 1.5-.4c.6 0 1.1.1 1.5.4s.8.7 1.1 1.2.4 1.1.4 1.8v.8c0 .9-.2 1.8-.6 2.4s-.9 1.2-1.6 1.6-1.5.6-2.4.6h-.1v-1.6h.4c1.3-.1 2.1-.7 2.2-1.9zm-.9-.8c.4 0 .7-.2.9-.6v-.8c0-.5-.1-1-.3-1.2s-.4-.4-.7-.4c-.3 0-.5.1-.7.4s-.3.7-.3 1.1c0 .4.1.8.3 1.1s.5.4.8.4z"/><path d="M420 272h2v126h-2zm24 0h2v94.3h-2zm-4 0h2v94.3h-2zm-16 0h2v126h-2zm8 0h2v126h-2zm-4 0h2v126h-2zm8 0h2v126h-2zm28 0h2v94.3h-2zm-4 0h2v94.3h-2zm-12 0h2v94.3h-2zm8 0h2v94.3h-2zm-4 0h2v94.3h-2zm20 0h2v126h-2zm-8 118.8h2v7.2h-2zm4-118.8h2v126h-2zm8 0h2v126h-2zm8 0h2v126h-2zm-4 0h2v126h-2zm-40 118.8h2v7.2h-2zm8 0h2v7.2h-2zm-4 0h2v7.2h-2zm16 0h2v7.2h-2zm-8 0h2v7.2h-2zm4 0h2v7.2h-2z" fill="#231f20"/><path class="st2" d="M462.6 386.6c.7-.1 1.3-.7 1.4-1.4.2-2.1.3-4.2.3-6.4 0-2.3-.1-4.6-.4-6.9-.1-.7-.6-1.3-1.4-1.4-3.1-.5-6.4-.7-9.8-.7-3.2 0-6.3.2-9.2.6-.7.1-1.3.7-1.4 1.4-.3 2.2-.4 4.6-.4 6.9 0 2.2.1 4.4.3 6.5.1.7.6 1.3 1.4 1.4 3 .4 6.1.6 9.3.6 3.4.1 6.7-.2 9.9-.6zM453 188c-.3 0-.5 0-.8.1-.5.1-1 .3-1.4.6-.2.1-.4.3-.6.5-.4.4-.7.8-.9 1.3s-.3 1-.3 1.6.1 1.1.3 1.6c.2.5.5.9.9 1.3.2.2.4.3.6.5.4.3.9.5 1.4.6.3.1.5.1.8.1 2.2 0 4-1.8 4-4 0-2.4-1.8-4.2-4-4.2zm0 7v-6c1.7 0 3 1.3 3 3s-1.3 3-3 3zm31.3-2.5v-1h-1.6c-.1-.6-.3-1.1-.7-1.6l1.1-1.1-.7-.7-1.1 1.1c-.5-.3-1-.6-1.6-.7V187h-1v1.6c-.6.1-1.1.3-1.6.7l-1.1-1.1-.7.7 1.1 1.1c-.3.5-.6 1-.7 1.6h-1.6v1h1.6c.1.6.3 1.1.7 1.6l-1.1 1.1.7.7 1.1-1.1c.5.3 1 .6 1.6.7v1.6h1v-1.6c.6-.1 1.1-.3 1.6-.7l1.1 1.1.7-.7-1.1-1.1c.3-.5.6-1 .7-1.6h1.6v-.1zm-3.7 1.6c-.4.3-.9.4-1.4.4s-1-.2-1.4-.4c-.3-.2-.5-.4-.7-.7-.3-.4-.4-.9-.4-1.4s.2-1 .4-1.4c.2-.3.4-.5.7-.7.4-.3.9-.4 1.4-.4s1 .2 1.4.4c.3.2.5.4.7.7.3.4.4.9.4 1.4s-.2 1-.4 1.4c-.2.3-.4.5-.7.7zm-48.8-8-5.7 2.9h-4.4v6h4.4l5.7 2.9v-11.8zm-9 3.9h3v4h-3v-4zm8 6.2-4-2v-4.4l4-2v8.4z"/></svg>