<svg xmlns="http://www.w3.org/2000/svg" viewBox="0 0 512 512" xml:space="preserve"><style>.st0{fill:#eec646}.st2{opacity:.15}.st3{fill:#444}</style><path class="st0" d="M135.3 10C140.1 171.2 169 286 256 286S371.9 171.2 376.7 10H135.3zM319 472.7c-.3-34.5-28.4-62.4-63-62.4s-62.7 27.9-63 62.4h126z"/><path class="st0" d="M309.1 247H202.9c23.7 25.4 38.1 59.5 38.1 97s-14.5 71.6-38.1 97h106.2c-23.7-25.4-38.1-59.5-38.1-97s14.5-71.6 38.1-97z"/><path d="M340.7 472.4c-2.9-4.6-8-7.4-13.5-7.4H184.8c-5.5 0-10.5 2.8-13.5 7.4L146 512h220l-25.3-39.6z" fill="#36434f"/><ellipse class="st0" cx="256" cy="344" rx="24.5" ry="9.5"/><path class="st0" d="M171.5 45.1c-19.6-2.9-39.9-8.6-43.4-12.2-1.8-1.8-3.5-5.3-5.3-9C118.1 14.4 111 0 92 0c-4.8 0-11.6 2-17.4 11.6-7.9 13.1-12 37.2-10.9 64.4 1.3 31.2 9.2 62.3 22.5 87.6 35.5 67.8 104.7 91.8 107.7 92.8l15.4 5.2-30.4-215.4-7.4-1.1zm-67.6 109.3C86 120.2 83.4 84.9 83.5 66.8 83.6 37.5 90.1 23 93 20c5 .3 7.1 3.3 11.8 12.8 2.4 5 5 10.1 9.1 14.3 8.6 8.6 33.1 14.1 47.2 16.6l23.5 167c-21.1-10.6-58.7-34.2-80.7-76.3zM437.4 11.6C431.6 2 424.8 0 420 0c-19 0-26.1 14.4-30.8 24-1.8 3.7-3.5 7.2-5.3 9-3.6 3.6-23.8 9.2-43.4 12.2l-7.4 1.1-30.3 215.5 15.4-5.2c2.9-1 72.2-25.1 107.7-92.8 13.2-25.3 21.2-56.4 22.5-87.6 1-27.4-3-51.5-11-64.6zm-29.3 142.8c-22.1 42.2-59.6 65.8-80.7 76.3l23.5-167c14.1-2.5 38.5-8 47.2-16.6 4.1-4.1 6.7-9.3 9.1-14.3 4.6-9.4 6.8-12.4 11.8-12.8 2.9 2.9 9.4 17.5 9.5 46.8.1 18.1-2.5 53.4-20.4 87.6z"/><g class="st2"><path class="st3" d="M205.9 269.5c6.3 4.8 13 8.6 20.3 11.3.8 1.5 1.5 3.1 2.2 4.7h55.1c.7-1.6 1.4-3.1 2.2-4.7 7.3-2.7 14.1-6.5 20.3-11.3H205.9zM216 424.6c-3.2 2.7-6.2 5.7-8.8 8.9h97.7c-2.6-3.3-5.6-6.2-8.8-8.9-1.6-2.3-3.1-4.7-4.6-7.1h-70.9c-1.5 2.4-3 4.8-4.6 7.1z"/></g><g class="st2"><path class="st3" d="M137.6 58.3c-.5-7-.9-14.1-1.2-21.4-4.1-1.4-7.1-2.8-8.3-4-1.8-1.8-3.5-5.3-5.3-9-1-1.9-2-4.1-3.3-6.3.4 11.9 1 23.3 1.6 34.3 4.7 2.6 10.5 4.6 16.5 6.4zm236.8 0c6-1.7 11.8-3.8 16.4-6.2.7-11 1.2-22.5 1.6-34.3-1.2 2.2-2.3 4.3-3.3 6.3-1.8 3.7-3.5 7.2-5.3 9-1.2 1.2-4.1 2.6-8.3 4-.2 7.1-.6 14.2-1.1 21.2zm-203.3 165c-7.4-4.4-15.7-10-24.1-16.9.9 2.6 1.9 5.2 2.8 7.8 3.8 9.9 8 19.1 12.6 27.3 13.4 7.8 24.2 12.3 28.9 14.1-7.6-9-14.3-19.8-20.2-32.3zm191.1-9.1c1-2.5 1.9-5.1 2.8-7.8-8.4 6.8-16.6 12.4-24.1 16.9-5.9 12.5-12.6 23.3-20.3 32.3 4.7-1.8 15.5-6.2 28.9-14.1 4.6-8.3 8.9-17.4 12.7-27.3z"/></g><path d="m344.3 49.8-8.6 78.5c-.5 4.4-4.4 7.6-8.8 7.1s-7.6-4.4-7.1-8.8l8.6-78.5c.5-4.4 4.4-7.6 8.8-7.1s7.5 4.4 7.1 8.8zm-20.5 113.5c-4.4-.5-8.3 2.7-8.8 7.1l-3.3 29.8c-.5 4.4 2.7 8.3 7.1 8.8 4.4.5 8.3-2.7 8.8-7.1l3.3-29.8c.5-4.4-2.7-8.3-7.1-8.8z" opacity=".5" fill="#f4f4f4"/><path d="M135.3 10c.3 9.1.6 18.1 1.1 26.9-4.1-1.4-7.1-2.8-8.3-4-1.8-1.8-3.5-5.3-5.3-9C118.1 14.4 111 0 92 0c-4.8 0-11.6 2-17.4 11.6-7.9 13.1-12 37.2-10.9 64.4 1.3 31.2 9.2 62.3 22.5 87.6 32.2 61.5 92.2 87 105.2 92 10 11.7 21.5 20.2 34.9 25.2 8.4 16.9 13.5 35.8 14.5 55.7-5.7 1.7-9.3 4.4-9.3 7.4s3.6 5.7 9.3 7.4c-1.4 27.1-10.4 52.1-24.8 73.1-12 9.9-20.3 24.2-22.5 40.4h-8.8c-5.5 0-10.5 2.8-13.5 7.4L146 512h110V10H135.3zm-31.4 144.4C86 120.2 83.4 84.9 83.5 66.8 83.6 37.5 90.1 23 93 20c5 .3 7.1 3.3 11.8 12.8 2.4 5 5 10.1 9.1 14.3 4.7 4.7 13.9 8.4 23.6 11.2 4.6 67.9 14.7 125 33.5 165-21.2-12.7-49.2-34.7-67.1-68.9z" opacity=".15" fill="#444"/></svg>