<svg version="1.1" xmlns="http://www.w3.org/2000/svg" x="0" y="0" viewBox="0 0 512 512" xml:space="preserve"><style type="text/css">.st0{fill:#36434f}.st1{fill:#ddd}</style><path class="st0" d="M193 450h-45v-14c0-3.3 2.7-6 6-6h33c3.3 0 6 2.7 6 6v14z"/><path class="st1" d="M219 450H98c-8.8 0-16-7.2-16-16V186H38v248c0 8.8-7.2 16-16 16h-6c-8.8 0-16 7.2-16 16v30c0 8.8 7.2 16 16 16h203c8.8 0 16-7.2 16-16v-30c0-8.8-7.2-16-16-16zm90-403v32c0 3.3-2.7 6-6 6h-58V41h58c3.3 0 6 2.7 6 6z"/><path class="st1" d="M75 216H45v-30c0-76.1 61.9-138 138-138h94v30h-94c-59.6 0-108 48.4-108 108v30z"/><path class="st1" d="M38 184h44v4H38zm.088-3.617l.21-3.995 43.938 2.303-.21 3.995zm.436-7.555l.418-3.978 43.758 4.598-.418 3.978zm1.023-7.564l.625-3.95 43.459 6.881-.626 3.95zm1.165-7.514l.831-3.913 43.037 9.147-.832 3.913zm1.767-7.317l1.035-3.864 42.5 11.387-1.036 3.864zm1.997-7.297l1.236-3.805 41.848 13.596-1.236 3.805zm2.462-7.293l1.433-3.734 41.079 15.77-1.434 3.734zm2.766-6.928l1.627-3.655 40.198 17.895-1.627 3.654zm3.221-6.895l1.816-3.563 39.204 19.976-1.816 3.564zm3.527-6.808l2-3.464 38.104 22-2 3.464zm3.785-6.49l2.178-3.355 36.903 23.962-2.178 3.355zm4.289-6.342l2.352-3.237 35.596 25.864-2.352 3.236zm4.507-6.066l2.517-3.108 34.192 27.69-2.517 3.108zm4.875-5.855l2.676-2.973 32.697 29.44-2.677 2.973zm5.098-5.602l2.829-2.828 31.112 31.112-2.828 2.828zm5.482-5.271l2.973-2.676 29.44 32.696-2.972 2.677zm5.705-5.034l3.109-2.517 27.69 34.192-3.11 2.517zm5.959-4.672l3.236-2.351 25.864 35.596-3.236 2.351zm6.176-4.451l3.355-2.178 23.962 36.902-3.355 2.179zm6.44-3.978l3.464-2 22 38.104-3.464 2zm6.67-3.751l3.564-1.816 19.976 39.205-3.564 1.816zm6.792-3.39l3.655-1.627 17.895 40.199-3.654 1.626zm6.923-2.926l3.735-1.433 15.77 41.078-3.735 1.434zm7.151-2.69l3.805-1.236 13.596 41.849-3.805 1.236zm7.267-2.228l3.864-1.035 11.387 42.5-3.863 1.034zm7.29-1.871l3.912-.831 9.148 43.036-3.912.832zm7.524-1.512l3.95-.625 6.882 43.458-3.95.626zm7.422-1.054l3.978-.418 4.598 43.758-3.978.418zm7.639-.696l3.995-.209 2.303 43.938-3.995.21zM181 41h4v44h-4zm7 0h4v44h-4zm7 0h4v44h-4zm7 0h4v44h-4zm7 0h4v44h-4zm7 0h4v44h-4zm7 0h4v44h-4zm7 0h4v44h-4zm7 0h4v44h-4zm259-12H325c-8.8 0-16 7.2-16 16v20h203V45c0-8.8-7.2-16-16-16z"/><path class="st0" d="M309 65h203v10H309z"/></svg>