<svg version="1.1" xmlns="http://www.w3.org/2000/svg" x="0" y="0" viewBox="0 0 512 512" xml:space="preserve"><style type="text/css">.st0{fill:#36434f}.st1{fill:#66442b}.st4{opacity:.15;fill:#444;enable-background:new}</style><path class="st0" d="m185.502 113.118 3.987-.323 2.998 36.978-3.986.323zm134.031 36.822 2.999-36.977 3.987.324-2.999 36.977z"/><path class="st1" d="M119.5 150h-27v-12c0-1.1.9-2 2-2h23c1.1 0 2 .9 2 2v12zm300 0h-27v-12c0-1.1.9-2 2-2h23c1.1 0 2 .9 2 2v12z"/><path class="st0" d="M190 148h-52v-6c0-1.1.9-2 2-2h48c1.1 0 2 .9 2 2v6zm184 0h-52v-6c0-1.1.9-2 2-2h48c1.1 0 2 .9 2 2v6z"/><path class="st1" d="M189.5 119c-3.5 0-6.7-2.3-7.7-5.9-1.2-4.3 1.3-8.7 5.6-9.8 22.2-6.2 45.3-9.3 68.6-9.3s46.4 3.1 68.6 9.3c4.3 1.2 6.8 5.6 5.6 9.8-1.2 4.3-5.6 6.8-9.8 5.6-20.9-5.8-42.5-8.7-64.4-8.7s-43.5 2.9-64.4 8.7c-.7.2-1.4.3-2.1.3z"/><path d="M465.5 144h-419c0 25.6-20.9 46.5-46.5 46.5v181c25.6 0 46.5 20.9 46.5 46.5h419c0-25.6 20.9-46.5 46.5-46.5v-181c-25.6 0-46.5-20.9-46.5-46.5z" fill="#a18267"/><path d="M0 176v15.5c26.2 0 47.5-21.3 47.5-47.5H32c-17.7 0-32 14.3-32 32zm512 0v15.5c-26.2 0-47.5-21.3-47.5-47.5H480c17.7 0 32 14.3 32 32zM0 386v-15.5c26.2 0 47.5 21.3 47.5 47.5H32c-17.7 0-32-14.3-32-32zm512 0v-15.5c-26.2 0-47.5 21.3-47.5 47.5H480c17.7 0 32-14.3 32-32zM154 144h24v274h-24zm180 0h24v274h-24z" fill="#e0ac7e"/><circle class="st4" cx="23.8" cy="167.8" r="6.5"/><circle class="st4" cx="23.8" cy="394.3" r="6.5"/><circle class="st4" cx="488.3" cy="167.8" r="6.5"/><circle class="st4" cx="488.3" cy="394.3" r="6.5"/><circle class="st4" cx="346" cy="167.8" r="6.5"/><circle class="st4" cx="346" cy="394.3" r="6.5"/><circle class="st4" cx="166" cy="167.8" r="6.5"/><circle class="st4" cx="166" cy="394.3" r="6.5"/><path class="st4" d="M32 418h224V144h-64l-2-25c.5 0 1.1-.1 1.6-.3 20.9-5.8 42.5-8.7 64.4-8.7V94c-23.3 0-46.4 3.1-68.6 9.3-4.3 1.2-6.8 5.6-5.6 9.8.6 2.3 2.2 4 4.1 5l1.8 21.9H140c-1.1 0-2 .9-2 2v2h-18.5v-6c0-1.1-.9-2-2-2h-23c-1.1 0-2 .9-2 2v6H32c-17.7 0-32 14.3-32 32v210c0 17.7 14.3 32 32 32z"/></svg>