<svg version="1.1" xmlns="http://www.w3.org/2000/svg" x="0" y="0" viewBox="0 0 512 512" xml:space="preserve"><path d="M297 223h-82v74c0 2.2 1.8 4 4 4h3c2.2 0 4 1.8 4 4v193c0 2.2 1.8 4 4 4h22c2.2 0 4 1.8 4 4v2c0 2.2 1.8 4 4 4h22c2.2 0 4-1.8 4-4V305c0-2.2 1.8-4 4-4h3c2.2 0 4-1.8 4-4v-74z" fill="#ddd"/><path d="M342.2 32.4c-5-8.2-12.5-14.6-21.2-18.6C301.1 4.9 279.1 0 256 0s-45.1 4.9-65 13.8a47.28 47.28 0 0 0-21.2 18.6c-14.2 23.2-22.3 50.4-22.3 79.6 0 45.3 19.7 86 51 114h115.1c31.3-28 51-68.7 51-114-.1-29.2-8.3-56.4-22.4-79.6zM311 54c0 8.8-7.2 16-16 16h-78c-8.8 0-16-7.2-16-16v-1.7c0-6.1 3.4-11.6 8.8-14.3 13.9-7 29.6-11 46.2-11s32.3 3.9 46.2 11c5.4 2.7 8.8 8.3 8.8 14.3V54z" fill="#36434f"/><path d="M322.5 37.9c-2.8-4.2-6.6-7.7-11.1-10.1C294.9 19 276 14 256 14c-18.9 0-36.8 4.5-52.7 12.5-5 2.5-9.3 6.3-12.4 11-13.2 19.4-20.9 42.8-20.9 68 0 7 .6 13.8 1.7 20.4C175.6 149 195.6 166 219 166h74.9c23.4 0 43.4-16.9 47.3-40.1 1.1-6.6 1.7-13.5 1.7-20.4.1-25-7.5-48.3-20.4-67.6zM311 54c0 8.8-7.2 16-16 16h-78c-8.8 0-16-7.2-16-16v-1.7c0-6.1 3.4-11.6 8.8-14.3 13.9-7 29.6-11 46.2-11s32.3 3.9 46.2 11c5.4 2.7 8.8 8.3 8.8 14.3V54z" fill="#122a3a"/><path d="M236 502h-6V303.2c0-1.5.1-3 .2-4.5l1.8-26.5c.1-1.2 1.9-1.2 2 0l1.8 26.5c.1 1.5.2 3 .2 4.5V502zm14 0h-6V303.2c0-1.5.1-3 .2-4.5l1.8-26.5c.1-1.2 1.9-1.2 2 0l1.8 26.5c.1 1.5.2 3 .2 4.5V502zm-12-167h-2v-21h2c1.1 0 2 .9 2 2v17c0 1.1-.9 2-2 2zm6 62h-2c-1.1 0-2-.9-2-2v-5c0-1.1.9-2 2-2h2v9zm-6 71h-2v-13h2c1.1 0 2 .9 2 2v9c0 1.1-.9 2-2 2zm4-21h2v-14h-2c-1.1 0-2 .9-2 2v10c0 1.1.9 2 2 2z" fill="#bbb"/><path d="M169.8 32.4c-14.2 23.2-22.3 50.4-22.3 79.6 0 45.3 19.7 86 51 114H215v71c0 2.2 1.8 4 4 4h3c2.2 0 4 1.8 4 4v193c0 2.2 1.8 4 4 4h22c2.2 0 4 1.8 4 4V70h-39c-8.8 0-16-7.2-16-16v-1.7c0-6.1 3.4-11.6 8.8-14.3 13.9-7 29.6-11 46.2-11V0c-23.1 0-45.1 4.9-65 13.8-8.7 4-16.2 10.4-21.2 18.6z" opacity=".15" fill="#444"/></svg>