<svg version="1.1" id="icon_x5F_source" xmlns="http://www.w3.org/2000/svg" x="0" y="0" viewBox="0 0 512 512" style="enable-background:new 0 0 512 512" xml:space="preserve"><style type="text/css">.st0{fill:#2e86b7}.st3{fill:#ffa000}</style><path class="st0" d="M275.5 178v-72.8L228.8 0l-78.2.1 33.6 90.1c6.9 18.5 16.4 35.8 28.4 51.4l37 48.4 25.9-12z"/><path d="M239 70c-9.6 21.7-14.5 44.7-14.5 68.5v18.9l24.9 32.6 26-12v-72.8l-26-58.6L239 70z" style="opacity:.3;fill:#444"/><path class="st0" d="M236.5 178v-39.6c0-21.9 4.6-43.6 13.5-63.6L283.2 0l78.2.1-33.6 90.1c-6.9 18.5-16.4 35.8-28.4 51.4l-37 48.4-25.9-12z"/><circle cx="256" cy="341.5" r="168.5" style="fill:#ba602d"/><path class="st3" d="M256 187c41.3 0 80.1 16.1 109.2 45.3 29.2 29.2 45.3 68 45.3 109.2s-16.1 80.1-45.3 109.2C336 479.9 297.2 496 256 496s-80.1-16.1-109.2-45.3c-29.2-29.2-45.3-68-45.3-109.2s16.1-80.1 45.3-109.2S214.7 187 256 187m0-16c-94.2 0-170.5 76.3-170.5 170.5S161.8 512 256 512s170.5-76.3 170.5-170.5S350.2 171 256 171z"/><path class="st3" d="M233.2 321h20.3c16.1 0 24.1-7.9 24.1-23.6 0-6.1-1.9-11.1-5.7-15-3.8-3.9-9.2-5.8-16.2-5.8-5.7 0-10.7 1.7-14.9 5-4.2 3.3-6.3 7.4-6.3 12.4h-43c0-9.8 2.7-18.5 8.2-26.2 5.4-7.7 13-13.6 22.7-17.9 9.7-4.3 20.3-6.4 31.8-6.4 20.7 0 36.9 4.7 48.7 14.2 11.8 9.4 17.7 22.4 17.7 38.9 0 8-2.4 15.5-7.3 22.7-4.9 7.1-12 12.9-21.4 17.3 9.9 3.6 17.6 9 23.2 16.3 5.6 7.3 8.4 16.3 8.4 27 0 16.6-6.4 29.9-19.1 39.8-12.8 10-29.5 14.9-50.3 14.9-12.2 0-23.5-2.3-33.9-7-10.4-4.6-18.3-11.1-23.7-19.3-5.4-8.2-8-17.5-8-28h43.3c0 5.7 2.3 10.6 6.9 14.8 4.6 4.2 10.3 6.3 17 6.3 7.6 0 13.6-2.1 18.1-6.3 4.5-4.2 6.8-9.6 6.8-16.1 0-9.4-2.3-16-7-19.9-4.7-3.9-11.1-5.9-19.4-5.9h-20.9V321z"/><path d="M249.4 46.6 228.8 0l-78.2.1 33.6 90.1c6.9 18.5 16.4 35.8 28.4 51.4l12 15.8 11.3 14.8c-84.7 10-150.4 82-150.4 169.3C85.5 435.7 161.8 512 256 512V61.3l-6.6-14.7z" style="opacity:.15;fill:#444"/></svg>