<svg version="1.1" id="icon" xmlns="http://www.w3.org/2000/svg" x="0" y="0" viewBox="0 0 512 512" style="enable-background:new 0 0 512 512" xml:space="preserve"><style type="text/css">.st1{fill:#36434f}</style><path d="M256 0c-81.7 0-148 69.2-148 154.5C108 210 166 283 174 304s5 34 8 46 18.5 42.3 18.5 42.3h111S327 362 330 350s0-25 8-46 66-94 66-149.5C404 69.2 337.7 0 256 0z" style="fill:#eec646"/><path class="st1" d="M246 207c-.8 0-1.5-.5-1.9-1.3l-19-48c-.4-1 .1-2.2 1.1-2.6 1-.4 2.2.1 2.6 1.1l19 48c.4 1-.1 2.2-1.1 2.6-.2.2-.5.2-.7.2zm-11 91c-.9 0-1.7-.6-1.9-1.5l-38-136c-.3-1.1.3-2.2 1.4-2.5 1.1-.3 2.2.3 2.5 1.4l38 136c.3 1.1-.3 2.2-1.4 2.5-.2.1-.4.1-.6.1zm31-91c-.2 0-.5 0-.7-.1-1-.4-1.5-1.6-1.1-2.6l19-48c.4-1 1.6-1.5 2.6-1.1 1 .4 1.5 1.6 1.1 2.6l-19 48c-.4.7-1.1 1.2-1.9 1.2zm11 91c-.2 0-.4 0-.5-.1-1.1-.3-1.7-1.4-1.4-2.5l38-136c.3-1.1 1.4-1.7 2.5-1.4 1.1.3 1.7 1.4 1.4 2.5l-38 136c-.3.9-1.1 1.5-2 1.5z"/><path d="M286 306v90h-60v-90c0-8.8 7.2-16 16-16h6v-76h-6c-1.7 0-3-1.3-3-3 0-4.4 3.6-8 8-8h19c4.4 0 8 3.6 8 8 0 1.7-1.3 3-3 3h-6v76h5c8.8 0 16 7.2 16 16z" style="fill:#ffdd7a"/><path d="M256 391.8c-31.5 0-57-1-57-2.5v77.3c0 3.4 1.4 6.7 4 9l17 15.5 1.5.8 32.5 4.7h4.2l32.5-4.7 1.5-.8 17-15.5c2.5-2.3 4-5.6 4-9v-77.3h-.2c-2.7 1.4-27.2 2.5-57 2.5z" style="fill:#bbb"/><path class="st1" d="m220 491.1 14.5 13.2c.3.3.5.8.5 1.2 0 3.6 2.9 6.4 6.4 6.4h29.2c3.6 0 6.4-2.9 6.4-6.4 0-.5.2-.9.5-1.2l14.5-13.2c-11 1.8-23.2 2.9-36 2.9s-25-1-36-2.9z"/><path d="M322 401.6c-.1-2.5-1.9-4.3-9-5.7v6h-.3c-8.2 2.3-28.2 5-56.5 6.1-28.4 1.1-48.6-.2-56.9-1.8h-.3v-6.1c-7.4 1.9-9.1 3.9-9 6.5.1 3.5 3.7 5.8 21.4 7.1 7 .5 15.3.8 24.3.8 6.6 0 13.5-.1 20.6-.4 16.9-.6 32.8-2 44.8-3.8 17.7-2.6 21-5.1 20.9-8.7zm0 17.6c-.1-2.5-1.9-4.3-9-5.7v6h-.3c-8.2 2.3-28.2 5-56.5 6.1-28.4 1.1-48.6-.2-56.9-1.8h-.3v-6.1c-7.4 1.9-9.1 3.9-9 6.5.1 3.5 3.7 5.8 21.4 7.1 7 .5 15.3.8 24.3.8 6.6 0 13.5-.1 20.6-.4 16.9-.6 32.8-2 44.8-3.8 17.7-2.6 21-5.2 20.9-8.7zm0 17.5c-.1-2.5-1.9-4.3-9-5.7v6h-.3c-8.2 2.3-28.2 5-56.5 6.1-28.4 1.1-48.6-.2-56.9-1.8h-.3v-6.1c-7.4 1.9-9.1 3.9-9 6.5.1 3.5 3.7 5.8 21.4 7.1 7 .5 15.3.8 24.3.8 6.6 0 13.5-.1 20.6-.4 16.9-.6 32.8-2 44.8-3.8 17.7-2.6 21-5.2 20.9-8.7zm0 17.6c-.1-2.5-1.9-4.3-9-5.7v6h-.3c-8.2 2.3-28.2 5-56.5 6.1-28.4 1.1-48.6-.2-56.9-1.8h-.3v-6.1c-7.4 1.9-9.1 3.9-9 6.5.1 3.5 3.7 5.8 21.4 7.1 7 .5 15.3.8 24.3.8 6.6 0 13.5-.1 20.6-.4 16.9-.6 32.8-2 44.8-3.8 17.7-2.6 21-5.2 20.9-8.7z" style="fill:#999"/><path d="M299 173h-.7c-7.2-.2-12.6-4.6-15.9-8.9-4.9 1.3-13.3 2.7-26.4 2.7-13.1 0-21.6-1.5-26.4-2.7-3.3 4.3-8.6 8.6-15.9 8.9-11.2.4-20-7.8-20.9-8.7-2.4-2.3-2.4-6.1-.1-8.5 2.3-2.4 6.1-2.4 8.5-.1 1.6 1.5 6.9 5.5 12.1 5.3 5.1-.2 8.2-6.5 8.2-6.6.7-1.4 1.9-2.6 3.4-3.1s3.2-.5 4.6.2c0 0 7.5 3.3 26.4 3.3s26.4-3.3 26.5-3.3c1.5-.7 3.1-.8 4.6-.2 1.5.5 2.7 1.7 3.4 3.2 0 0 3.1 6.4 8.2 6.5h.3c5.1 0 10.3-3.8 11.8-5.4 2.4-2.3 6.2-2.2 8.5.2 2.3 2.4 2.2 6.1-.1 8.5-.9.9-9.2 8.7-20.1 8.7z" style="fill:#ffecbd"/><path d="M199 389.3v10.9c-7.4 1.9-9.1 3.9-9 6.5.1 2.5 1.9 4.3 9 5.7v5.4c-7.4 1.9-9.1 3.9-9 6.5.1 2.5 1.9 4.3 9 5.7v5.4c-7.4 1.9-9.1 3.9-9 6.5.1 2.5 1.9 4.3 9 5.7v5.4c-7.4 1.9-9.1 3.9-9 6.5.1 2.5 1.9 4.3 9 5.7v1.7c0 3.4 1.4 6.7 4 9l17 15.5 14.5 13.2c.3.3.5.8.5 1.2 0 3.6 2.9 6.4 6.4 6.4H256V391.8c-31.5 0-57-1-57-2.5z" style="opacity:.15;fill:#444"/></svg>