<svg version="1.1" xmlns="http://www.w3.org/2000/svg" x="0" y="0" viewBox="0 0 512 512" xml:space="preserve"><style type="text/css">.st0{opacity:.2;fill:#f4f4f4}.st2{fill:#059dd2}.st4{fill:#ee3a24}.st5{fill:#0074ae}.st6{fill:#ff8327}</style><path class="st0" d="M124.5 443.1h50v6h-50z"/><circle class="st0" cx="94" cy="439" r="9"/><path fill="#4a396d" d="M161 95h239v25H161z"/><path class="st2" d="M111 186h77v279h-77z"/><path class="st0" d="M124.5 382.7h50v6h-50zm15 20.4h20v25h-20zm11.1-183v26.8H129V359h41V220.1z"/><path fill="#aaa" d="M188 215h23v250h-23z"/><path class="st0" d="M188 285.2h23v65h-23z"/><path class="st4" d="M0 153h77v312H0z"/><path class="st0" d="M15 298.3h47v130H15zm0-26.2h47v10H15z"/><path class="st2" d="M465 230h17v235h-17z"/><path class="st0" d="M465 297.4h17v110h-17z"/><path class="st5" d="M154 47h258v48H154z"/><path class="st0" d="M167.1 62h58v18h-58zm78.8 0h128v18h-128zm145.6 0h8v18h-8z"/><path class="st6" d="M385 210h37v255h-37z"/><path class="st0" d="M393.5 256h20v58h-20zm0 90.6h20v70h-20z"/><path fill="#914a21" d="M422 186h43v279h-43z"/><path class="st0" d="M422 414.8h43v18h-43zm9-199.7h25v180h-25z"/><path class="st6" d="M482 234h30v231h-30z"/><path class="st0" d="M487 372.6h20v82h-20zm0-126h20v66h-20z"/><path fill="#c64757" d="M211 204h68v261h-68z"/><path class="st0" d="M225 229.2h40v73h-40zm0 94.8h40v90h-40z"/><path fill="#006278" d="M279 218h43v247h-43z"/><path class="st0" d="M287 237.6h27v72h-27zm0 92.8h27v30h-27zm0 51.5h27v64h-27z"/><path class="st4" d="M322 195h63v270h-63z"/><path class="st0" d="M336 218.4h35v106h-35zm0 125.8h35v100h-35z"/><path fill="#2c9b47" d="M77 215h34v250H77z"/><path class="st0" d="M92.3 234.5v88.8h-8v93.9H105V234.5z"/><path class="st5" d="M151.2 141h290v45h-290z"/><path class="st0" d="M297.2 149.5h6v28h-6zm-63.8 5h48v18h-48zm90.2 0h54v18h-54zm68.9-5h6v28h-6z"/><circle class="st0" cx="189.2" cy="163.5" r="14"/><path class="st2" d="M144 120h311v21H144z"/><path class="st0" d="M165.2 127h153v7h-153z"/><circle class="st0" cx="341.5" cy="130.5" r="6.9"/><path d="M0 153h26v312H0zm111 33h26v279h-26zm-34 29h12v250H77zm111 0h8v250h-8zm277 15h6v235h-6zm-80-20h13v255h-13zm37-24h14v279h-14zm60 48h10v231h-10zm-271-30h23v261h-23zm68 14h14v247h-14zm43-23h21v270h-21zM161 95h26.7v25H161zm-7-48h29v48h-29zm-2.8 94h33v45h-33zm-7.2-21h35v21h-35z" opacity=".15" fill="#444"/></svg>