<svg version="1.1" xmlns="http://www.w3.org/2000/svg" x="0" y="0" viewBox="0 0 512 512" style="enable-background:new 0 0 512 512" xml:space="preserve"><path d="M303.6 121.6c0-39 22.7-98 30-116.1 1.1-2.6-.9-5.5-3.7-5.5H182.1c-2.8 0-4.8 2.9-3.7 5.5 7.4 18.1 30 77.1 30 116.1 0 101.4-97.3 133.1-97.3 207.3 0 64.6 79.9 155.5 100.5 178 3 3.3 7.3 5.2 11.8 5.2h65.2c4.5 0 8.7-1.9 11.8-5.2 20.7-22.5 100.5-113.4 100.5-178 0-74.2-97.3-105.9-97.3-207.3z" style="fill:#cc584c"/><path d="M226.3 0h8c0 9.6-.5 25.3-3.4 39.8-2.5 12.2-13.3 45.3-22.8 73.3-.4-5.8-1.2-11.9-2.3-18.2 7.8-23.5 15.4-47.1 17.3-56.7 2.7-13.7 3.2-28.9 3.2-38.2zm52.5 0h-8.4c-6.6 20.6-18.9 55.4-37 92.2-9.4 19.1-18.3 34.3-25.9 46.1-.8 6.7-1.9 13.1-3.5 19.2 9.6-13.1 22.5-33.1 36.6-61.7 19-38.8 31.8-75.3 38.2-95.8zm66.3 233.9c-3.1-5.4-5.7-10.1-7.4-13.6-1.2-2.5-2.3-5.3-3.3-8.1-10.9-15.6-20.5-32.7-25.9-53-2.4 15.6-6 33.8-11.3 50.7-5.6 18-12.9 35.4-21.4 55.5-11.1 26.3-23.6 56.1-35.6 95.5-17 55.9-14.5 126.1-12.9 151.2h8c-1.6-24-4.3-93.7 12.5-148.8 11.9-38.9 24.3-68.6 35.3-94.7 8.4-19.9 15.6-37.1 21.3-55-.2 5.1-.4 11.5-.5 19.1-.9 36.6-2.4 97.9-11.8 143.6-10.2 49.7-37.3 112.6-47.7 135.8h8.8c11.4-25.7 36.8-86 46.8-134.2 9.6-46.4 11.1-108.1 12-145 .3-13.2.6-23.7 1.1-28.3 0-.3.1-.6.1-.9.5 12.5 3.8 28.2 7.5 46.2 7.6 36.6 17.2 82.2 9.4 128.6-10.2 61-53.1 119.2-64.4 133.7h10.1c15.4-20.4 52.5-74.3 62.1-132.3 8-47.8-1.7-94.2-9.5-131.5-4-19.1-7.4-35.6-7.4-47.8 0-2.7.1-5.5.2-8.3 1.9 10.5 4.8 22.3 9.2 31.7 1.8 3.8 4.6 8.6 7.7 14.2 14.7 25.8 39.3 68.9 32.9 118.6-6.1 47.5-62.5 124.6-86.4 155.5h4c2.7 0 5.4-.7 7.7-2 26.5-34.8 76.7-105.9 82.7-152.5 6.7-52.7-18.7-97.3-33.9-123.9zm-84.8 9c11.1-18.2 20.7-33.9 26.3-45.1 7-13.9 14.3-29.7 20.6-43.9-1-4.6-1.9-9.3-2.5-14.1-7.2 16.4-16.5 36.9-25.3 54.4-5.4 10.9-15 26.5-26 44.5-25.7 42.1-57.8 94.5-68.3 135.3-9.5 36.8-1.4 67.9 6.5 97.9 1.5 5.7 3 11.4 4.4 17.3 4.1 4.8 7.8 9 10.9 12.4-2-10.8-4.8-21.4-7.5-31.7-8-30.4-15.5-59.1-6.5-93.9 10.2-39.6 43.3-93.7 67.4-133.1zM192.6 44.4c2.1 6.4 4.2 13.1 6.1 20L204.9 0h-8l-4.3 44.4zm46.5 109.1C267.7 118 304.3 27.1 314.8 0h-8.6c-11.8 29.8-46.8 115.5-73.3 148.5-11.2 13.9-27.2 30-43.5 45.1-5.3 9.6-11.4 18.4-17.8 26.9 22.9-20.1 50.4-45.8 67.5-67zm-90.3 203.9c11.5-32.1 34.1-57.1 58-83.6 12.6-14 25.6-28.4 37.4-44.4 23.1-31.2 45-74.6 59.4-105.8v-2c0-6.7.7-13.9 1.8-21.4-12.7 29.2-39.3 86.3-67.6 124.4-11.6 15.7-24.5 30-37 43.8-24.4 27.1-47.5 52.7-59.6 86.2-6.4 17.9-5.9 37.4-2.3 55.5 4.8 8.3 9.9 16.4 15.2 24.2-8-22.5-14.3-52-5.3-76.9zm-34-2.4c3.9-11.9 9.5-25.9 16.8-39.1 9.6-17.1 42.1-52.9 73.6-87.6 26.2-28.8 50.9-56.1 60.2-70.2 10.9-16.7 28.6-46.7 42.3-70.5 2-9.6 4.5-19.4 7.3-28.8-12.1 21.3-40.9 71.4-56.2 94.8-8.9 13.6-33.4 40.6-59.4 69.2-31.8 35-64.7 71.2-74.7 89.1-5.1 9.1-9.4 18.6-12.8 27.6.5 5.1 1.5 10.3 2.9 15.5z" style="fill:#884e48"/><path d="M182.1 0c-2.8 0-4.8 2.9-3.7 5.5 7.4 18.1 30 77.1 30 116.1 0 101.4-97.3 133.1-97.3 207.3 0 64.6 79.9 155.5 100.5 178 3 3.3 7.3 5.2 11.8 5.2H256V0h-73.9z" style="opacity:.15;fill:#444"/></svg>