<svg version="1.1" xmlns="http://www.w3.org/2000/svg" x="0" y="0" viewBox="0 0 512 512" xml:space="preserve"><style type="text/css">.st0{fill:#36434f}.st1{fill:#122a3a}.st3{opacity:5.000000e-02;fill:#444}</style><path class="st0" d="M200 162l-84.4 4.6c-4.2.2-7.6 3.7-7.6 8v27.1c0 6.3 3.7 12 9.4 14.6L200 254v-92zm0 140l-84.4 4.6c-4.2.2-7.6 3.7-7.6 8v27.1c0 6.3 3.7 12 9.4 14.6L200 394v-92zm0-280l-84.4 4.6c-4.2.2-7.6 3.7-7.6 8v27.1c0 6.3 3.7 12 9.4 14.6L200 114V22z"/><path class="st0" d="M299.5 427.5h-87c-8.8 0-16-7.2-16-16v-383c0-8.8 7.2-16 16-16h87c8.8 0 16 7.2 16 16v383c0 8.8-7.2 16-16 16z"/><ellipse class="st1" cx="256" cy="68" rx="64" ry="68"/><ellipse class="st1" cx="256" cy="208" rx="64" ry="68"/><ellipse class="st1" cx="256" cy="348" rx="64" ry="68"/><circle cx="256" cy="80" r="50" fill="#cc584c"/><circle class="st3" cx="256" cy="80" r="40"/><circle class="st3" cx="256" cy="80" r="30"/><circle class="st3" cx="256" cy="80" r="20"/><circle class="st3" cx="256" cy="80" r="10"/><circle cx="256" cy="220" r="50" fill="#ffa000"/><circle class="st3" cx="256" cy="220" r="40"/><circle class="st3" cx="256" cy="220" r="30"/><circle class="st3" cx="256" cy="220" r="20"/><circle class="st3" cx="256" cy="220" r="10"/><circle cx="256" cy="360" r="50" fill="#35965f"/><circle class="st3" cx="256" cy="360" r="40"/><circle class="st3" cx="256" cy="360" r="30"/><circle class="st3" cx="256" cy="360" r="20"/><circle class="st3" cx="256" cy="360" r="10"/><path d="M256 56c14.5 0 28.6-1.1 42-3.1-8.9-13.8-24.4-22.9-42-22.9s-33.1 9.1-42 22.9c13.4 2 27.5 3.1 42 3.1zm0 140c14.5 0 28.6-1.1 42-3.1-8.9-13.8-24.4-22.9-42-22.9s-33.1 9.1-42 22.9c13.4 2 27.5 3.1 42 3.1zm0 140c14.5 0 28.6-1.1 42-3.1-8.9-13.8-24.4-22.9-42-22.9s-33.1 9.1-42 22.9c13.4 2 27.5 3.1 42 3.1z" opacity=".1" fill="#444"/><path class="st0" d="M237 419h38v93h-38z"/><path d="M219 12.5h-6.5c-6.6 0-12.2 4-14.7 9.6l-82.3 4.5c-4.2.2-7.6 3.7-7.6 8v27.1c0 6.3 3.7 12 9.4 14.6l79.1 36.1v49.8l-80.9 4.4c-4.2.2-7.6 3.7-7.6 8v27.1c0 6.3 3.7 12 9.4 14.6l79.1 36.1v49.8l-80.9 4.4c-4.2.2-7.6 3.7-7.6 8v27.1c0 6.3 3.7 12 9.4 14.6l79.1 36.1v19.1c0 8.8 7.2 16 16 16H237V512h19V0c-13.8 0-26.5 4.6-37 12.5z" opacity=".15" fill="#444"/></svg>