<svg version="1.1" xmlns="http://www.w3.org/2000/svg" x="0" y="0" viewBox="0 0 512 512" xml:space="preserve"><path d="M256 230c7.5 0 14.3 3.2 19.1 8.3 4.2-26.3 15.4-99.7 15.4-131.4 0-28.7-9.8-74.8-14.9-97.1-1.6-7.1-8.8-11.3-15.8-9.4l-9.9 2.8c-12.3 3.4-21.3 14.1-22.5 26.9-2.4 25.2-5.9 66.9-5.9 90.8 0 32.5 9 109.9 10.7 124.6 4-9.1 13.2-15.5 23.8-15.5zm0 52c-7.5 0-14.3-3.2-19.1-8.3-4.2 26.3-15.4 99.7-15.4 131.4 0 28.7 9.8 74.8 14.9 97.1 1.6 7.1 8.8 11.3 15.8 9.4l9.9-2.8c12.3-3.4 21.3-14.1 22.5-26.9 2.4-25.2 5.9-66.9 5.9-90.8 0-32.5-9-109.9-10.7-124.6-4 9.1-13.2 15.5-23.8 15.5z" fill="#2e86b7"/><path d="M256 227.5c-15.7 0-28.5 12.8-28.5 28.5s12.8 28.5 28.5 28.5 28.5-12.8 28.5-28.5-12.8-28.5-28.5-28.5zm0 46.5c-9.9 0-18-8.1-18-18s8.1-18 18-18 18 8.1 18 18-8.1 18-18 18z" fill="#39657e"/><path d="M238 256c0-9.9 8.1-18 18-18V1.5l-6.1 1.7c-12.3 3.4-21.3 14.1-22.5 26.9-2.4 25.2-5.9 66.9-5.9 90.8 0 30 7.7 98.4 10.2 120.2-2.7 4.3-4.2 9.4-4.2 14.9 0 8.2 3.4 15.5 9 20.7-4.5 28.5-15 97.8-15 128.3 0 28.7 9.8 74.8 14.9 97.1 1.6 7.1 8.8 11.3 15.8 9.4l3.8-1.1V274c-9.9 0-18-8.1-18-18z" opacity=".15" fill="#444"/></svg>