<svg version="1.1" xmlns="http://www.w3.org/2000/svg" x="0" y="0" viewBox="0 0 512 512" xml:space="preserve"><style type="text/css">.st1{fill:#36434f}</style><path d="M160 0c-17.7 0-32 14.3-32 32v448c0 17.7 14.3 32 32 32h192c17.7 0 32-14.3 32-32V32c0-17.7-14.3-32-32-32H160z" fill="#e0ac7e"/><path class="st1" d="M359 266H153c-2.2 0-4-1.8-4-4v-12c0-2.2 1.8-4 4-4h206c2.2 0 4 1.8 4 4v12c0 2.2-1.8 4-4 4z"/><circle class="st1" cx="326" cy="314" r="29"/><circle class="st1" cx="186" cy="454" r="29"/><circle class="st1" cx="186" cy="58" r="29"/><circle class="st1" cx="326" cy="58" r="29"/><circle class="st1" cx="186" cy="198" r="29"/><circle class="st1" cx="326" cy="198" r="29"/><path d="M160 0c-17.7 0-32 14.3-32 32v448c0 17.7 14.3 32 32 32h96V0h-96z" opacity=".15" fill="#444"/></svg>