<svg version="1.1" xmlns="http://www.w3.org/2000/svg" x="0" y="0" viewBox="0 0 512 512" xml:space="preserve"><style type="text/css">.st1{fill:#36434f}</style><circle cx="256" cy="256" r="256" fill="#ffa000"/><path class="st1" d="M70.3 79.8c45.5 45 73.7 107.4 73.7 176.2 0 68.9-28.2 131.2-73.7 176.2 3.7 3.9 7.5 7.7 11.5 11.3l.9-.9C132.5 392.8 160 326.5 160 256S132.5 119.2 82.7 69.3l-.9-.9c-4 3.7-7.8 7.5-11.5 11.4zM368 256c0-68.9 28.2-131.2 73.7-176.2-3.7-3.9-7.5-7.7-11.5-11.3l-.9.9C379.5 119.2 352 185.5 352 256s27.5 136.8 77.3 186.7l.9.9c3.9-3.7 7.8-7.4 11.5-11.3C396.2 387.2 368 324.9 368 256zM264 .1c-2.7-.1-5.3-.1-8-.1s-5.3.1-8 .1v511.7c2.7.1 5.3.1 8 .1s5.3-.1 8-.1V.1z"/><path class="st1" d="M.1 248c-.1 2.7-.1 5.3-.1 8s.1 5.3.1 8h511.7c.1-2.7.1-5.3.1-8s-.1-5.3-.1-8H.1z"/><path d="M0 256c0 141.4 114.6 256 256 256V0C114.6 0 0 114.6 0 256z" opacity=".15" fill="#444"/></svg>