<svg version="1.1" xmlns="http://www.w3.org/2000/svg" x="0" y="0" viewBox="0 0 512 512" xml:space="preserve"><style type="text/css">.st2{fill:#038387}.st3{fill:#2e86b7}.st4{fill:#eec646}.st5{fill:#cc584c}</style><path d="M506 113.8H222v-24h284c3.3 0 6 2.7 6 6v12c0 3.3-2.7 6-6 6z" fill="#36434f"/><path d="M188 113.8h35.3v-24H188c-3.3 0-6 2.7-6 6v12c0 3.3 2.7 6 6 6z" fill="#bbb"/><path class="st2" d="M121.2 91.9l-2.4-1.2.2-2.8-2.1 1.9-2.4-1.2.9 2.9-2.1 1.9 3.1-.2 1.6 2.6.2-2.8 3-1.1z"/><path class="st3" d="M23.8 111.2l-3.3 1.3-2.6-2.7v3.8l-3.3 1.3 3.7 1.5v3.8l2.5-3.3 4.1.6-2.6-2.7 1.5-3.6zm79.5-25.3l-6.8.2-3-6.7-2.5 6.9-6.8.2 5.7 5.3-2.5 6.9 6.7-4.3 7 3.9-3-6.7 5.2-5.7z"/><path class="st2" d="M73.4 85.2l-3.1.8-2-2.7-.4 3.4-3.1.8 3.1 1.8-.4 3.4L70 90l3.5 1-2-2.7 1.9-3.1z"/><path class="st4" d="M41.9 165l-4.8 1.1-3.1-4.3-.8 5.3-4.8 1.1 4.8 2.9-.8 5.3 4.1-4 5.5 1.7-3.1-4.3 3-4.8z"/><path class="st2" d="M146.1 97.1l-7.9 1.8-4.9-7.2-1.4 8.6-7.9 1.8 7.7 4.9-1.4 8.6 6.8-6.5 8.9 3-4.9-7.2 5-7.8z"/><path class="st3" d="M98.1 106.3l-2.3-.4-.5-2.5-1.4 2.1-2.3-.4 1.5 2.2-1.4 2.1 2.6-.9 2 1.8-.5-2.5 2.3-1.5zm-35.8-8.9l-7.9 3.3-6.4-6.5.1 9.2-7.9 3.3 8.9 3.7.1 9.2 5.9-8 9.8 1.4-6.4-6.6 3.8-9z"/><path class="st4" d="M27 149.3l-7.8-4.6 1.5-9.7-7.7 6-7.8-4.6 2.6 9.9-7.7 6 10.6-.1 5 9.3 1.5-9.7 9.8-2.5z"/><path class="st5" d="M62.1 141.8l-3.5-.4-1-3.6-1.8 3.3-3.5-.4 2.5 3.1-1.8 3.3 3.7-1.7 3.2 2.5-1-3.6 3.2-2.5z"/><path class="st4" d="M24.1 187.8l-4.2-1.4-.3-4.8-3.1 3.7-4.2-1.4 2.3 4.5-3.1 3.7 5-1.2 3.4 3.9-.3-4.8 4.5-2.2z"/><path class="st2" d="M106.4 187.2l-6.1-1.6-.8-6.8-4.1 5.5-6.1-1.6 3.6 6.2-4.1 5.5 7.1-2 5.1 5.3-.8-6.8 6.2-3.7z"/><path class="st3" d="M62.5 185.9l-3.5.4-1.8-3.4-1 3.7-3.5.4 3.2 2.5-1 3.7 3.3-2.6 3.8 1.7-2-3.3 2.5-3.1z"/><path class="st2" d="M33.3 227l-5.3-2.4.3-6.3-4.5 4.3-5.3-2.4 2.3 6.2-4.5 4.3 6.7-.7 3.8 5.6.3-6.3 6.2-2.3z"/><path class="st3" d="M186.2 222l-5.5 2.2-4.4-4.6v6.4l-5.5 2.2 6.1 2.6v6.4l4.2-5.5 6.8 1.1-4.4-4.6 2.7-6.2z"/><path class="st5" d="M141.2 215.9l-8.1 5.5-8.7-5.9 2.2 10.3-8.1 5.5 10.9 2.1 2.2 10.3 4.8-10.3 11.4-.6-8.7-5.9 2.1-11zm-36.9 6.2l-5.4 2.5-4.7-4.4.3 6.4-5.4 2.5 6.3 2.4.3 6.4 3.9-5.8 6.9.8-4.7-4.4 2.5-6.4z"/><path class="st3" d="M64.2 219.9h-3l-1.2-3-1.2 3h-3l2.4 2.4-1.2 3 3-1.8 3 1.8-1.2-3 2.4-2.4zm231.7 40.8l-8.2.3-3.6-8.1-3 8.4-8.2.3 6.8 6.3-3 8.4 8-5.3 8.4 4.6-3.6-8.1 6.4-6.8z"/><path class="st4" d="M265.6 264.8l-6.5-.9-1.7-6.8-3.5 6.1-6.5-.9 4.4 5.9-3.5 6.1 7-3 5.9 4.8-1.7-6.8 6.1-4.5z"/><path class="st3" d="M224.1 262.9l-4 2.7-4.3-2.9 1.1 5.1-4 2.7 5.4 1 1.1 5.1 2.4-5.1 5.6-.3-4.3-2.9 1-5.4z"/><path class="st5" d="M181.9 259.4l-2.5.1-1.1-2.5-.9 2.6-2.5.1 2.1 1.9-.9 2.6 2.5-1.6 2.6 1.4-1.1-2.5 1.8-2.1z"/><path class="st2" d="M149.1 260.2l-6.9 1.5-4.3-6.3-1.3 7.5-6.9 1.5 6.7 4.3-1.3 7.5 6-5.6 7.8 2.6-4.3-6.3 4.5-6.7z"/><path class="st3" d="M104.4 265.7l-7.7-.8-2.3-8-3.9 7.3-7.7-.8 5.5 6.8-3.9 7.3 8.1-3.8 7.2 5.4-2.3-8 7-5.4zm-39.9 1.8l-6.7-4.6 1.9-8.5-7.3 4.9-6.7-4.6 1.7 9-7.3 4.9 9.4.6 4 8.6 1.9-8.5 9.1-1.8z"/><path class="st4" d="M266.6 297.3l-10.9 2.4-6.7-9.9-2 11.8-10.9 2.4 10.6 6.8-2 11.8 9.5-8.9 12.3 4.1-6.7-9.9 6.8-10.6zm-36.9 5.5l-7.4-3.3.3-8.7-6.2 6.1-7.4-3.3 3.3 8.6-6.2 6.1 9.4-1.2 5.5 7.7.3-8.7 8.4-3.3z"/><path class="st3" d="M176.7 299.5l-3.6 1.4-2.9-3v4.1l-3.6 1.4 4 1.7v4.1l2.7-3.6 4.4.7-2.9-3 1.9-3.8z"/><path class="st2" d="M150.4 290.8l-9.2 5.7-9.3-6.9 2 11.4-9.2 5.7 11.9 2.8 2 11.4 5.8-11.2 12.6-.2-9.3-6.9 2.7-11.8z"/><path class="st3" d="M100.4 300.7l-2.5-.3-.7-2.7-1.3 2.4-2.5-.3 1.8 2.3-1.3 2.4 2.7-1.2 2.4 1.8-.7-2.7 2.1-1.7z"/><path class="st4" d="M86.7 291.2l-9.1 1.7-5.4-8.5-1.9 9.8-9.1 1.7 8.7 5.9-1.9 9.8 8.1-7.2 10.2 3.8-5.4-8.5 5.8-8.5z"/><path class="st2" d="M203.9 275l-8.1.7-4-7.8-2.5 8.4-8.1.7 7 5.9-2.5 8.4 7.6-5.6 8.5 4.1-4-7.8 6.1-7zm62.4 66.9l-7.8-3.2v-9.1l-6.3 6.6-7.8-3.2 3.7 8.8-6.3 6.6 9.7-1.5 5.9 7.9v-9.1l8.9-3.8z"/><path class="st5" d="M229.3 342.6l-6.3.2-2.7-6.2-2.3 6.4-6.3.2 5.2 4.9-2.3 6.4 6.2-4 6.4 3.5-2.7-6.2 4.8-5.2zm-37-8l-9.6 2.9-6.8-8.5-.9 10.8-9.6 2.9 10.1 5.4-.9 10.8 7.9-8.7 11.4 2.8-6.8-8.5 5.2-9.9zm-48 2.4l-7.1.4-3.3-7-2.4 7.3-7.1.4 6 5.4-2.4 7.3 6.9-4.7 7.4 3.9-3.3-7 5.3-6z"/><path class="st3" d="M104.4 337.9l-4 1-2.6-3.6-.6 4.4-4 1 4 2.4-.6 4.4 3.4-3.4 4.6 1.4-2.6-3.6 2.4-4zm56.1 28.7l-4.1.7-2.3-3.8-1 4.3-4.1.7 3.8 2.7-1 4.3 3.7-3.1 4.5 1.8-2.3-3.8 2.8-3.8z"/><path class="st4" d="M250.8 389.5l-6.4-.3-2.2-6.5-2.9 6.3-6.4-.3 4.9 5.4-2.9 6.3 6.6-3.5 6.2 4.1-2.2-6.5 5.3-5z"/><path class="st5" d="M221.8 376.9l-7.8 1.6-4.7-7.2-1.5 8.4-7.8 1.6 7.5 5-1.5 8.4 6.8-6.3 8.8 3.1-4.7-7.2 4.9-7.4z"/><path class="st2" d="M174.5 386.1l-2.5.5-1.5-2.3-.5 2.7-2.5.5 2.4 1.6-.5 2.7 2.2-2 2.8 1-1.5-2.3 1.6-2.4z"/><path class="st4" d="M141.2 381.7l-4.5-1.4-.4-5-3.2 3.9-4.5-1.4 2.5 4.7-3.2 3.9 5.3-1.3 3.7 4.1-.4-5 4.7-2.5zm80.3 38.7h-6.8l-2.7-6.8-2.7 6.8h-6.8l5.4 5.4-2.7 6.8 6.8-4.1 6.8 4.1-2.7-6.8 5.4-5.4z"/><path class="st5" d="M199.1 405.6l-10.2-.1-4-10.3-4.2 10.2-10.2-.1 8.1 8.2-4.2 10.2 10.3-6.1 10.2 6.2-4-10.3 8.2-7.9zm32.7-165.2l-2.3.9-1.9-2v2.7l-2.3.9 2.6 1.1v2.7l1.8-2.3 2.9.5-1.9-2 1.1-2.5z"/><path class="st3" d="M164.1 99.2l-2 1.1-1.9-1.6.3 2.5-2 1.1 2.5.7.3 2.5 1.4-2.4 2.7.1-1.9-1.6.6-2.4z"/></svg>