<svg version="1.1" xmlns="http://www.w3.org/2000/svg" x="0" y="0" viewBox="0 0 512 512" xml:space="preserve"><path d="M496 512H16c-8.8 0-16-7.2-16-16V16C0 7.2 7.2 0 16 0h480c8.8 0 16 7.2 16 16v480c0 8.8-7.2 16-16 16z" fill="#ddd"/><path d="M480 24H361c-4.4 0-8 3.6-8 8v71c0 4.4-3.6 8-8 8H167c-4.4 0-8-3.6-8-8V32c0-4.4-3.6-8-8-8H32c-4.4 0-8 3.6-8 8v448c0 4.4 3.6 8 8 8h448c4.4 0 8-3.6 8-8V32c0-4.4-3.6-8-8-8z" fill="#bbb"/><path d="M325 90H187c-4.4 0-8-3.6-8-8V29c0-4.4 3.6-8 8-8h138c4.4 0 8 3.6 8 8v53c0 4.4-3.6 8-8 8z" fill="#999"/><path d="M268 61.6l-4.7-4.7-2.3 2.3v24.4l7-9zm0-12.2v-13l-7-9v24.4l2.3 2.3zm6-14.6h4.7l7-9h-23.4l7 9zm-4.6 16l-4.7 4.7 4.7 4.7h9.2l4.7-4.7-4.7-4.7H274zm4.6 25.4h-4.7l-7 9h23.4l-7-9zm6-14.6v13l7 9V59.2l-2.3-2.3zm0-25.2v13l4.7 4.7 2.3-2.3V27.4zm-42-1.6h4.7l7-9h-23.4l7 9zm6 26.8v13l7 9V59.2l-2.3-2.3zm0-25.2v13l4.7 4.7 2.3-2.3V27.4zm60 13v-13l-7-9v24.4l2.3 2.3zm6-14.6h4.7l7-9h-23.4l7 9zm-4.6 16l-4.7 4.7 4.7 4.7h9.2l4.7-4.7-4.7-4.7H310zm4.6 25.4h-4.7l-7 9h23.4l-7-9zm6-14.6v13l7 9V59.2l-2.3-2.3zm-27 17.6h6v6h-6z" fill="#36434f"/><path d="M16 0C7.2 0 0 7.2 0 16v480c0 8.8 7.2 16 16 16h240V0H16z" opacity=".15" fill="#444"/></svg>