<svg version="1.1" xmlns="http://www.w3.org/2000/svg" x="0" y="0" viewBox="0 0 512 512" xml:space="preserve"><path d="M231.8 38.6c5.2-23 9.7-38.6 9.7-38.6s30 44 42 111c11.5 64.1 12 195 12 206.2-8.5.7-16.3 3.6-23 8h-1s-1.7-141.6-12-199.2c-6.7-37.6-27.9-85.7-27.9-85.7l.2-1.7z" fill="#ddd"/><path d="M254 346.7L220.5 310s-4-90-4-157c0-38.5 8.2-83.2 15.3-114.4 9.6 19.4 22 49.8 28.7 87.4 10.3 57.5 11.8 168.9 12 199.2-8.1 5.2-14.5 12.7-18.5 21.5z" fill="#bbb"/><path d="M222.9 310c-2-1.1-4.4.4-4.4 2.6.2 22.7 1 115.9 4.7 145.9 2.8 22.4 7.2 39.7 9.9 49 1.1 3.9 5.7 5.7 9.2 3.7 6.1-3.5 13.1-8.4 18.1-12.6 5.8-4.9 11.8-15.8 13.9-21.8.9-2.6.8-5.5-.4-8-2.4-5-6.4-14-7.6-20.7-1.7-9.8 1.4-26.3.9-41.8s-8.4-56.4-8-62.8c.2-3.3 1.9-5.9 3.4-7.7 1.3-1.5.9-3.8-.8-4.7L222.9 310z" fill="#36434f"/><path d="M248.7 341.7c-6.2-2.4-20.3-10.8-30.1-16.9 0-2.6 0-5-.1-7.1 9.5 6 25.9 15.9 32.3 18.4 4 1.5 7.2 2.4 9.6 3-.6 1.3-1.1 2.8-1.2 4.4v1.5c-2.6-.6-6.1-1.6-10.5-3.3z" fill="#122a3a"/></svg>