<svg version="1.1" xmlns="http://www.w3.org/2000/svg" x="0" y="0" viewBox="0 0 512 512" xml:space="preserve"><path d="M504 281.7H8c-4.4 0-8 3.6-8 8 0 8.3 6.7 15 15 15 4.8 0 8.8 3.5 9.5 8.2C33 368.6 67.9 415.5 116 440.8v15.9c0 8.8 7.2 16 16 16h250c8.8 0 16-7.2 16-16v-17c47-25.5 81.1-72 89.5-126.9.7-4.7 4.8-8.1 9.5-8.1 8.3 0 15-6.7 15-15 0-4.4-3.6-8-8-8z" fill="#ddd"/><path d="M206.1 254.1c-2.4 0-4.7-1.1-6.3-3.1-5.8-7.5-12.5-15.9-17.2-26.5-3.2-7.1-8.2-21.5-5.8-37.5 1.7-11 6.5-19.9 10.9-27.2 3.8-6.1 7.7-11.9 11.6-17.6 3.8-5.5 7.7-11.2 11.3-17.1 3.8-6.2 7.5-13.1 8.7-21.1 1.3-8.7-.3-19.1-4.5-28.5-4-8.8-9.7-16.1-15.2-23.2-2.7-3.5-2.1-8.5 1.4-11.2 3.5-2.7 8.5-2.1 11.2 1.4C218 50 224.6 58.4 229.4 69c3.2 7.1 8.2 21.5 5.7 37.5-1.7 10.9-6.4 19.8-10.9 27.1-3.8 6.2-7.9 12.1-11.8 17.8-3.7 5.4-7.6 11.1-11.1 16.8-3.8 6.2-7.5 13.1-8.8 21.3-1.3 8.8.3 19.2 4.5 28.6 4 8.8 9.7 16.1 15.2 23.2 2.7 3.5 2.1 8.5-1.4 11.2-1.2 1-2.9 1.6-4.7 1.6zm55-1.7c3.5-2.7 4.1-7.8 1.4-11.2-5.5-7.1-11.3-14.4-15.2-23.2-4.2-9.4-5.9-19.8-4.5-28.6 1.2-8.1 5-15 8.8-21.3 3.5-5.8 7.4-11.4 11.1-16.8 3.9-5.7 8-11.6 11.8-17.8 4.4-7.3 9.2-16.2 10.9-27.1 2.5-16-2.5-30.4-5.7-37.5-4.8-10.6-11.4-19-17.2-26.5-2.7-3.5-7.8-4.1-11.2-1.4-3.5 2.7-4.1 7.8-1.4 11.2 5.5 7.1 11.2 14.4 15.2 23.2 4.2 9.4 5.9 19.8 4.5 28.5-1.2 8.1-4.9 14.9-8.7 21.1-3.6 5.9-7.5 11.6-11.3 17.1-3.9 5.6-7.9 11.4-11.6 17.6-4.5 7.3-9.3 16.2-10.9 27.2-2.5 16 2.6 30.4 5.8 37.5 4.8 10.6 11.4 19.1 17.2 26.5 1.6 2 3.9 3.1 6.3 3.1 1.5.1 3.2-.5 4.7-1.6zm50 0c3.5-2.7 4.1-7.8 1.4-11.2-5.5-7.1-11.3-14.4-15.2-23.2-4.2-9.4-5.9-19.8-4.5-28.6 1.2-8.1 5-15 8.8-21.3 3.5-5.8 7.4-11.4 11.1-16.8 3.9-5.7 8-11.6 11.8-17.8 4.4-7.3 9.2-16.2 10.9-27.1 2.5-16-2.5-30.4-5.7-37.5-4.8-10.6-11.4-19-17.2-26.5-2.7-3.5-7.7-4.1-11.2-1.4-3.5 2.7-4.1 7.8-1.4 11.2 5.5 7.1 11.2 14.4 15.2 23.2 4.2 9.4 5.9 19.8 4.5 28.5-1.2 8.1-4.9 14.9-8.7 21.1-3.6 5.9-7.5 11.6-11.3 17.1-3.9 5.6-7.9 11.4-11.6 17.5-4.5 7.3-9.3 16.3-10.9 27.2-2.5 16 2.6 30.4 5.8 37.5 4.8 10.6 11.4 19.1 17.2 26.5 1.6 2 3.9 3.1 6.3 3.1 1.5.2 3.2-.4 4.7-1.5z" fill="#79b1d1"/><path d="M251 41c1.5-1.2 3.2-1.7 5-1.7v21.3c-2.1-2.9-4.2-5.6-6.4-8.3-2.7-3.6-2.1-8.6 1.4-11.3zm-49.6 127.1c3.5-5.8 7.4-11.4 11.1-16.8 3.9-5.7 8-11.6 11.8-17.8 4.4-7.3 9.2-16.1 10.9-27.1 2.5-16-2.5-30.4-5.7-37.5-4.8-10.6-11.4-19-17.2-26.5-2.7-3.5-7.8-4.1-11.2-1.4-3.5 2.7-4.1 7.8-1.4 11.2 5.5 7.1 11.2 14.4 15.2 23.2 4.2 9.4 5.9 19.8 4.5 28.5-1.2 8.1-4.9 14.9-8.7 21.1-3.6 5.9-7.5 11.6-11.3 17.1-3.9 5.6-7.9 11.4-11.6 17.6-4.5 7.3-9.3 16.2-10.9 27.2-2.5 16 2.6 30.4 5.8 37.5 4.8 10.6 11.4 19.1 17.2 26.5 1.6 2 3.9 3.1 6.3 3.1 1.7 0 3.5-.6 4.9-1.7 3.5-2.7 4.1-7.8 1.4-11.2-5.5-7.1-11.3-14.4-15.2-23.2-4.2-9.4-5.9-19.8-4.5-28.6 1.1-8.1 4.8-15 8.6-21.2zm48.4 82.9c1.5 2 3.8 3 6.2 3.1v-21.3c-3.3-4.6-6.4-9.4-8.8-14.8-4.2-9.4-5.9-19.8-4.5-28.6 1.2-8.1 5-15 8.8-21.3 1.5-2.4 3-4.8 4.6-7.2v-28.5c-2.2 3.3-4.4 6.6-6.6 9.8-3.9 5.6-7.9 11.4-11.6 17.6-4.5 7.3-9.3 16.2-10.9 27.2-2.5 16 2.6 30.4 5.8 37.5 4.6 10.6 11.2 19.1 17 26.5zM15 304.7c4.8 0 8.8 3.5 9.5 8.2C33 368.6 67.9 415.5 116 440.8v15.9c0 8.8 7.2 16 16 16h124v-191H8c-4.4 0-8 3.6-8 8 0 8.3 6.7 15 15 15z" opacity=".15" fill="#444"/><path d="M397.9 393c-4 0-8-1.5-11.1-4.5-6.4-6.1-6.6-16.2-.5-22.6 11.6-12.1 21.1-25.8 28.4-40.9 3.8-8 13.4-11.3 21.4-7.5 8 3.8 11.3 13.4 7.5 21.4-8.7 18.1-20.2 34.6-34.1 49.1-3.2 3.4-7.4 5-11.6 5z" opacity=".5" fill="#fff"/></svg>