<svg version="1.1" xmlns="http://www.w3.org/2000/svg" x="0" y="0" viewBox="0 0 512 512" xml:space="preserve"><circle cx="256" cy="256" r="256" fill="#ddd"/><path d="M256 20c31.9 0 62.8 6.2 91.9 18.5 28.1 11.9 53.3 28.9 75 50.6 21.7 21.7 38.7 46.9 50.6 75 12.3 29.1 18.5 60 18.5 91.9s-6.2 62.8-18.5 91.9c-11.9 28.1-28.9 53.3-50.6 75-21.7 21.7-46.9 38.7-75 50.6-29.1 12.3-60 18.5-91.9 18.5s-62.8-6.2-91.9-18.5c-28.1-11.9-53.3-28.9-75-50.6-21.7-21.7-38.7-46.9-50.6-75C26.2 318.8 20 287.9 20 256s6.2-62.8 18.5-91.9c11.9-28.1 28.9-53.3 50.6-75 21.7-21.7 46.9-38.7 75-50.6C193.2 26.2 224.1 20 256 20m0-20C114.6 0 0 114.6 0 256s114.6 256 256 256 256-114.6 256-256S397.4 0 256 0z" opacity=".25" fill="#bbb"/><path d="M224 510c10.5 1.3 21.2 2 32 2s21.5-.7 32-2V2c-10.5-1.3-21.2-2-32-2s-21.5.7-32 2v508z" fill="#bbb"/><path d="M0 256c0 141.4 114.6 256 256 256V0C114.6 0 0 114.6 0 256z" opacity=".15" fill="#444"/></svg>