<svg version="1.1" xmlns="http://www.w3.org/2000/svg" x="0" y="0" viewBox="0 0 512 512" xml:space="preserve"><style type="text/css">.st0{fill:#36434f}.st1{opacity:.1;fill:#f4f4f4}.st2{fill:#2e86b7}.st3{fill:#122a3a}.st4{opacity:.5;fill:#f4f4f4}.st5{opacity:.15;fill:#444}</style><path class="st0" d="M240 29c-3-4-14-5-19-8S201 0 187 0s-21 16-36 16-22-16-36-16-29 18-34 21-16 4-19 8-6 4-6 72 24 175 43 266 32 145 52 145 33-54 52-145 43-198 43-266-3-68-6-72z"/><path class="st0" d="M151 358H99l10 88h84l10-88z"/><path class="st1" d="M194.1 457c.6-2.9.9-5.9.9-9 0-3.4-.4-6.8-1.1-10l1.2-10.5C182.3 387 167.1 319 151 319s-31.3 68-44.1 108.5l1.2 10.5c-.7 3.2-1.1 6.5-1.1 10 0 3.1.3 6.1.9 9h86.2z"/><ellipse class="st0" cx="151" cy="448" rx="44" ry="45"/><path class="st2" d="M110 166c-2.2 22.1-9.6 47-18 69.7-4.1 11.1-5.1 23.2-2.8 34.9 1.5 7.6 3.1 15.2 4.6 22.7.4 2.1 3.4 2.2 3.9.1 6-23.8 27.6-41.4 53.3-41.4 25.7 0 47.3 17.6 53.3 41.4.5 2 3.5 2 3.9-.1 1.6-7.6 3.1-15.1 4.6-22.7 2.3-11.7 1.3-23.7-2.8-34.9-8.4-22.7-15.8-47.6-18-69.7-3.9-38.9-6.5-104.8-7.9-146.2-.1-4.2-5-6.6-8.4-4l-.1.1C169.5 20.4 161.9 26 151 26s-18.5-5.6-24.6-10.2l-.1-.1c-3.4-2.5-8.2-.2-8.4 4-1.4 41.5-4 107.4-7.9 146.3z"/><ellipse class="st3" cx="151" cy="448" rx="39" ry="39.9"/><path class="st3" d="M108.4 16.1c-.3 1.1-.4 2.2-.5 3.4-1.2 37.4-3.9 106-7.8 145.6-1.1 11.3-3.8 24.3-7.9 38.7-1.7 5.9-3.6 12-5.8 18.4-.4 1.2-1.5 2-2.8 2-1.8 0-3.4-1.3-3.7-3.1-1.1-6.3-2.2-12.5-3.2-18.6C70.2 164.2 66 129 66 101c0-24.6.4-41.8 1.2-52.6.7-9.9 1.7-11.9 1.8-12.1 0-.1.2-.3.4-.5l.1-.1c1.2-.6 4.2-1.5 6-2 3.7-1.1 7.5-2.2 10.6-4.1 2.1-1.3 4.3-3.2 7.2-5.9 3-2.7 7.5-6.7 11.9-9.7 1.7-1.1 3.6.3 3.2 2.1zm126.4 32.3c-.7-9.9-1.7-11.9-1.8-12.1 0-.1-.2-.3-.4-.5l-.1-.1c-1.2-.6-4.2-1.5-6-2-3.7-1.1-7.5-2.2-10.6-4.1-2.1-1.3-4.3-3.2-7.2-5.9-3-2.7-7.5-6.7-11.9-9.7-1.5-1-3.5.4-3 2.1.3 1.1.4 2.2.5 3.4 1.2 37.4 3.9 106 7.8 145.6 1.1 11.3 3.8 24.3 7.9 38.7 1.7 5.9 3.6 12 5.8 18.3.4 1.2 1.5 2.1 2.8 2.1 1.9 0 3.4-1.4 3.7-3.3 1.1-6.2 2.2-12.4 3.2-18.5 6.3-38 10.5-73.2 10.5-101.2 0-24.8-.4-42-1.2-52.8z"/><path class="st4" d="M116.6 204.9c-.1-2.3-3.3-2.6-3.9-.4-3 10.9-6.7 22.5-11.3 34.7-2.9 7.8-4 16.1-3.2 24.3.2 1.7 2.4 2.4 3.5 1.1 3.2-3.7 6.8-7 10.7-9.9 4.3-3.2 6.7-8.4 6.4-13.8l-2.2-36zm68.8 0c.1-2.3 3.3-2.6 3.9-.4 3 10.9 6.7 22.5 11.3 34.7 2.9 7.8 4 16.1 3.2 24.3-.2 1.7-2.4 2.4-3.5 1.1-3.2-3.7-6.8-7-10.7-9.9-4.3-3.2-6.7-8.4-6.4-13.8l2.2-36z"/><path class="st5" d="M115 0c-14 0-29 18-34 21s-16 4-19 8-6 4-6 72 24 175 43 266c.8 3.6 1.5 7.2 2.2 10.6l5.7 49.9 1.2 10.5c-.2.8-.3 1.6-.5 2.4v.1c-.1.7-.2 1.5-.3 2.3v.3c-.1.7-.1 1.4-.2 2.1v.4c0 .8-.1 1.6-.1 2.5 0 16.9 9.1 31.6 22.6 39.3 6.6 16 13.4 24.6 21.4 24.6V16c-15 0-22-16-36-16z"/><path class="st0" d="M450 29c-3-4-14-5-19-8S411 0 397 0s-21 16-36 16-22-16-36-16-29 18-34 21-16 4-19 8-6 4-6 72 24 175 43 266 32 145 52 145 33-54 52-145 43-198 43-266-3-68-6-72z"/><path class="st0" d="M361 358h-52l10 88h84l10-88z"/><path class="st1" d="M404.1 457c.6-2.9.9-5.9.9-9 0-3.4-.4-6.8-1.1-10l1.2-10.5C392.3 387 377.1 319 361 319s-31.3 68-44.1 108.5l1.2 10.5c-.7 3.2-1.1 6.5-1.1 10 0 3.1.3 6.1.9 9h86.2z"/><ellipse class="st0" cx="361" cy="448" rx="44" ry="45"/><path class="st2" d="M320 166c-2.2 22.1-9.6 47-18 69.7-4.1 11.1-5.1 23.2-2.8 34.9 1.5 7.6 3.1 15.2 4.6 22.7.4 2.1 3.4 2.2 3.9.1 6-23.8 27.6-41.4 53.3-41.4 25.7 0 47.3 17.6 53.3 41.4.5 2 3.5 2 3.9-.1 1.6-7.6 3.1-15.1 4.6-22.7 2.3-11.7 1.3-23.7-2.8-34.9-8.4-22.7-15.8-47.6-18-69.7-3.9-38.9-6.5-104.8-7.9-146.2-.1-4.2-5-6.6-8.4-4l-.1.1C379.5 20.4 371.9 26 361 26s-18.5-5.6-24.6-10.2l-.1-.1c-3.4-2.5-8.2-.2-8.4 4-1.4 41.5-4 107.4-7.9 146.3z"/><ellipse class="st3" cx="361" cy="448" rx="39" ry="39.9"/><path class="st3" d="M318.4 16.1c-.3 1.1-.4 2.2-.5 3.4-1.2 37.4-3.9 106-7.8 145.6-1.1 11.3-3.8 24.3-7.9 38.7-1.7 5.9-3.6 12-5.8 18.4-.4 1.2-1.5 2-2.8 2-1.8 0-3.4-1.3-3.7-3.1-1.1-6.3-2.2-12.5-3.2-18.6C280.2 164.2 276 129 276 101c0-24.6.4-41.8 1.2-52.6.7-9.9 1.7-11.9 1.8-12.1 0-.1.2-.3.4-.5l.1-.1c1.2-.6 4.2-1.5 6-2 3.7-1.1 7.5-2.2 10.6-4.1 2.1-1.3 4.3-3.2 7.2-5.9 3-2.7 7.5-6.7 11.9-9.7 1.7-1.1 3.6.3 3.2 2.1zm126.4 32.3c-.7-9.9-1.7-11.9-1.8-12.1 0-.1-.2-.3-.4-.5l-.1-.1c-1.2-.6-4.2-1.5-6-2-3.7-1.1-7.5-2.2-10.6-4.1-2.1-1.3-4.3-3.2-7.2-5.9-3-2.7-7.5-6.7-11.9-9.7-1.5-1-3.5.4-3 2.1.3 1.1.4 2.2.5 3.4 1.2 37.4 3.9 106 7.8 145.6 1.1 11.3 3.8 24.3 7.9 38.7 1.7 5.9 3.6 12 5.8 18.3.4 1.2 1.5 2.1 2.8 2.1 1.9 0 3.4-1.4 3.7-3.3 1.1-6.2 2.2-12.4 3.2-18.5 6.3-38 10.5-73.2 10.5-101.2 0-24.8-.4-42-1.2-52.8z"/><path class="st4" d="M326.6 204.9c-.1-2.3-3.3-2.6-3.9-.4-3 10.9-6.7 22.5-11.3 34.7-2.9 7.8-4 16.1-3.2 24.3.2 1.7 2.4 2.4 3.5 1.1 3.2-3.7 6.8-7 10.7-9.9 4.3-3.2 6.7-8.4 6.4-13.8l-2.2-36zm68.8 0c.1-2.3 3.3-2.6 3.9-.4 3 10.9 6.7 22.5 11.3 34.7 2.9 7.8 4 16.1 3.2 24.3-.2 1.7-2.4 2.4-3.5 1.1-3.2-3.7-6.8-7-10.7-9.9-4.3-3.2-6.7-8.4-6.4-13.8l2.2-36z"/><path class="st5" d="M325 0c-14 0-29 18-34 21s-16 4-19 8-6 4-6 72 24 175 43 266c.8 3.6 1.5 7.2 2.2 10.6l5.7 49.9 1.2 10.5c-.2.8-.3 1.6-.5 2.4v.1c-.1.7-.2 1.5-.3 2.3v.3c-.1.7-.1 1.4-.2 2.1v.4c0 .8-.1 1.6-.1 2.5 0 16.9 9.1 31.6 22.6 39.3 6.6 16 13.4 24.6 21.4 24.6V16c-15 0-22-16-36-16z"/></svg>