<svg version="1.1" xmlns="http://www.w3.org/2000/svg" x="0" y="0" viewBox="0 0 512 512" xml:space="preserve"><style type="text/css">.st0{fill:#ddd}</style><path class="st0" d="M0 261l192 164 260-141 60-202-274 141z"/><path fill="#d5d5d5" d="M238 223l-46 202 260-141z"/><path class="st0" d="M321.3 296.8l1.4-1.6-82.4-71.6-2.3-.6-.3 1.1z"/><path fill="#c7c7c7" d="M282 176l132 80-186 80z"/><path class="st0" d="M321 296l1.8-.8-39.5-118.4-1.3-.8-.5 1.6z"/><path d="M0 261l414-5-222 169zM512 82l-98 174 38 28z" fill="#bbb"/><path fill="#999" d="M414 256L192 425l260-141z"/></svg>