<svg version="1.1" xmlns="http://www.w3.org/2000/svg" x="0" y="0" viewBox="0 0 512 512" xml:space="preserve"><style type="text/css">.st0{fill:#36434f}.st1{fill:#eec646}.st3{fill:#ffa000}</style><path class="st0" d="M413 384.5h-10c-.6 0-1-.4-1-1v-3h12v3c0 .6-.4 1-1 1zm35 0h-10c-.6 0-1-.4-1-1v-3h12v3c0 .6-.4 1-1 1zm35 0h-10c-.6 0-1-.4-1-1v-3h12v3c0 .6-.4 1-1 1zm-194 43h-19c-3.3 0-6-2.7-6-6v-14h31v14c0 3.3-2.7 6-6 6z"/><path class="st1" d="M324 373.5h178v8H324z"/><path class="st0" d="M505 439.5h-6c-1.1 0-2-.9-2-2v-64h10v64c0 1.1-.9 2-2 2z"/><path d="M320.5 409.5h-281c-6.6 0-12-5.4-12-12v-90h305v90c0 6.6-5.4 12-12 12z" fill="#e3920a"/><circle class="st3" cx="180" cy="247.5" r="167.5"/><circle class="st3" cx="12.5" cy="247.5" r="7.5"/><circle class="st3" cx="115.9" cy="92.8" r="7.5"/><circle class="st3" cx="180" cy="80" r="7.5"/><circle class="st3" cx="61.6" cy="129.1" r="7.5"/><circle class="st3" cx="25.3" cy="183.4" r="7.5"/><path class="st1" d="M180 346.5c-54.6 0-99-44.4-99-99s44.4-99 99-99 99 44.4 99 99-44.4 99-99 99zm0-194c-52.4 0-95 42.6-95 95s42.6 95 95 95 95-42.6 95-95-42.6-95-95-95z"/><path class="st0" d="M317 247.5c0-10.7-1.2-21-3.5-31h-267c-2.3 10-3.5 20.3-3.5 31s1.2 21 3.5 31h267c2.3-10 3.5-20.3 3.5-31z"/><path d="M311.1 287.5H48.9c.9 3 2 6 3.1 9h256c1.1-3 2.1-6 3.1-9z" fill="#cc584c"/><path class="st1" d="M180 361.5c-62.9 0-114-51.1-114-114s51.1-114 114-114 114 51.1 114 114-51.1 114-114 114zm0-224c-60.7 0-110 49.3-110 110s49.3 110 110 110 110-49.3 110-110-49.3-110-110-110z"/><path class="st1" d="M180 376.5c-71.1 0-129-57.9-129-129s57.9-129 129-129 129 57.9 129 129-57.9 129-129 129zm0-254c-68.9 0-125 56.1-125 125s56.1 125 125 125 125-56.1 125-125-56.1-125-125-125z"/><path class="st1" d="M180 165.5c-45.3 0-82 36.7-82 82s36.7 82 82 82 82-36.7 82-82-36.7-82-82-82zm0 100c-9.9 0-18-8.1-18-18s8.1-18 18-18 18 8.1 18 18-8.1 18-18 18z"/><path d="M172.5 80v.2c-17.4.8-34 4.2-49.6 9.8v-.1c-1.6-3.8-6-5.6-9.8-4.1-3.8 1.6-5.6 6-4.1 9.8 0 0 0 .1.1.1-15.5 7.3-29.7 16.8-42.1 28.2l-.1-.1c-2.9-2.9-7.7-2.9-10.6 0-2.9 2.9-2.9 7.7 0 10.6l.1.1c-11.4 12.4-20.9 26.6-28.1 42.1 0 0-.1 0-.1-.1-3.8-1.6-8.2.2-9.8 4.1-1.6 3.8.2 8.2 4.1 9.8h.1c-5.7 15.6-9.1 32.3-9.8 49.6h-.2c-4.1 0-7.5 3.4-7.5 7.5s3.4 7.5 7.5 7.5h.2c1 22 6.2 42.9 14.8 61.9v80.6c0 6.6 5.4 12 12 12h97.8c13.6 3.6 27.9 5.5 42.7 5.5V72.5c-4.2 0-7.6 3.4-7.6 7.5z" opacity=".15" fill="#444"/></svg>