<svg version="1.1" xmlns="http://www.w3.org/2000/svg" x="0" y="0" viewBox="0 0 512 512" xml:space="preserve"><style type="text/css">.st0{fill:#36434f}</style><path class="st0" d="M310 512H195c-6.6 0-12-5.4-12-12V222h139v278c0 6.6-5.4 12-12 12z"/><path d="M322 175H183V28c0-6.6 5.4-12 12-12h115c6.6 0 12 5.4 12 12v147z" fill="#ffa000"/><path d="M183 191h139v31H183zm96-175h-52V6c0-3.3 2.7-6 6-6h40c3.3 0 6 2.7 6 6v10zm-19 222v111h-34v4h34v63h-34v4h34v76h4V238zm14 18.2v-7l-4-1.2v-5.5l21.3 7.8v4.8L270 263v-5.5l4-1.3zm4-5.8v4.6l7.4-2.3-7.4-2.3zm-4 26.2v-7l-4-1.2v-5.5l21.3 7.8v4.8l-21.3 7.9v-5.5l4-1.3zm4-5.8v4.6l7.4-2.3-7.4-2.3z" fill="#ddd"/><path class="st0" d="M183 175h139v16H183z"/><path d="M233 0c-3.3 0-6 2.7-6 6v10h-32c-6.6 0-12 5.4-12 12v472c0 6.6 5.4 12 12 12h61V0h-23z" opacity=".15" fill="#444"/></svg>