<svg version="1.1" xmlns="http://www.w3.org/2000/svg" x="0" y="0" viewBox="0 0 512 512" xml:space="preserve"><style type="text/css">.st1{fill:#bbb}</style><circle cx="255" cy="256" r="256" fill="#36434f"/><path class="st1" d="M279.4 257c0 12.9-10.5 23.4-23.4 23.4s-23.4-10.5-23.4-23.4 10.5-23.4 23.4-23.4 23.4 10.5 23.4 23.4z"/><path d="M192.3 40.2c.8 3 3.9 4.8 6.9 4 3-.8 4.8-3.9 4-6.9-.8-3-3.9-4.8-6.9-4-3 .8-4.8 3.9-4 6.9zM312.8 468c-3 .8-4.8 3.9-4 6.9.8 3 3.9 4.8 6.9 4 3-.8 4.8-3.9 4-6.9-.8-3.1-3.9-4.8-6.9-4zm-4-430.7c-.8 3 1 6.1 4 6.9 3 .8 6.1-1 6.9-4 .8-3-1-6.1-4-6.9-3-.8-6.1 1-6.9 4zM203.2 474.9c.8-3-1-6.1-4-6.9-3-.8-6.1 1-6.9 4-.8 3 1 6.1 4 6.9 3 .7 6.1-1 6.9-4zM44.1 199.3c.8-3-1-6.1-4-6.9-3-.8-6.1 1-6.9 4-.8 3 1 6.1 4 6.9 3 .8 6.1-1 6.9-4zm427.8 120.4c3 .8 6.1-1 6.9-4 .8-3-1-6.1-4-6.9-3-.8-6.1 1-6.9 4-.8 3 1 6.1 4 6.9zM92.9 93c-2.2 2.2-2.2 5.8 0 8s5.8 2.2 8 0 2.2-5.8 0-8-5.8-2.2-8 0zm326.2 326.1c2.2-2.2 2.2-5.8 0-8s-5.8-2.2-8 0-2.2 5.8 0 8 5.8 2.2 8 0zm-8-326.1c-2.2 2.2-2.2 5.8 0 8s5.8 2.2 8 0 2.2-5.8 0-8-5.8-2.2-8 0zM100.9 419.1c2.2-2.2 2.2-5.8 0-8s-5.8-2.2-8 0-2.2 5.8 0 8 5.8 2.2 8 0zm377.9-222.7c-.8-3-3.9-4.8-6.9-4-3 .8-4.8 3.9-4 6.9.8 3 3.9 4.8 6.9 4 3-.8 4.8-3.9 4-6.9zM33.2 315.8c.8 3 3.9 4.8 6.9 4 3-.8 4.8-3.9 4-6.9-.8-3-3.9-4.8-6.9-4-3 .8-4.8 3.9-4 6.9zm60.7 107.7l-5.4 5.4c28.1 27.4 62.8 47.9 101.5 59l2-7.4c-9-2.6-17.8-5.7-26.4-9.3-26.8-11.4-50.9-27.4-71.7-47.7zm252.5 47.6c-8.7 3.7-17.5 6.8-26.4 9.3l2 7.4c38.7-11.1 73.5-31.6 101.5-59l-5.4-5.4c-20.8 20.4-44.9 36.4-71.7 47.7zM256 489.4c-19.3 0-38.3-2.3-56.8-7l-2 7.4c18.8 4.7 38.5 7.3 58.7 7.3s39.9-2.5 58.7-7.3l-2-7.4c-18.3 4.6-37.3 7-56.6 7zm214.1-142c-11.1 26.3-26.8 50.1-46.7 70.7l5.4 5.4c27.1-28.2 47.5-62.9 58.3-101.7l-7.4-2c-2.6 9.4-5.8 18.6-9.6 27.6zm0-180.8c3.6 8.5 6.6 17.1 9.1 25.8l7.4-2c-11.1-38.5-31.6-73-58.8-100.9l-5.4 5.4c20.4 20.8 36.4 44.9 47.7 71.7zm18.5 31l-7.4 2c4.7 18.6 7.1 37.8 7.1 57.4 0 19-2.3 37.6-6.7 55.6l7.4 2c4.5-18.5 7-37.8 7-57.6 0-20.5-2.6-40.4-7.4-59.4zm-323-154.7c8.8-3.7 17.8-6.9 26.9-9.5l-2-7.4c-38.5 10.9-73 31.2-101 58.2l5.4 5.4c20.6-19.9 44.3-35.6 70.7-46.7zM41.9 166.6c11.3-26.7 27.3-50.8 47.6-71.7l-5.4-5.4c-27.2 27.9-47.7 62.4-58.8 100.9l7.4 2c2.6-8.8 5.6-17.4 9.2-25.8zm0 180.8c-3.8-9-7-18.2-9.7-27.5l-7.4 2c10.9 38.7 31.2 73.5 58.3 101.7l5.4-5.4c-19.8-20.7-35.5-44.4-46.6-70.8zM417.1 89.6l5.4-5.4c-28-27-62.6-47.3-101-58.2l-2 7.4c9.1 2.6 18.1 5.7 26.9 9.5 26.4 11.1 50.1 26.8 70.7 46.7zM23.6 257c0-19.6 2.4-38.8 7.1-57.4l-7.4-2c-4.8 19-7.4 38.9-7.4 59.4 0 19.9 2.4 39.2 7 57.6l7.4-2c-4.4-18-6.7-36.6-6.7-55.6zM256 24.6c19.2 0 38 2.3 56.3 6.9l2-7.4C295.6 19.5 276.1 17 256 17c-20.1 0-39.6 2.5-58.3 7.1l2 7.4c18.3-4.6 37.1-6.9 56.3-6.9zm4.7 100.2V75.1h-9.4v49.7h9.4zm-9.4 264.4v49.7h9.4v-49.7h-9.4zM74.1 261.7h49.7v-9.4H74.1v9.4zm363.8-9.4h-49.7v9.4h49.7v-9.4zM372.8 195l43-24.8-4.7-8.1-43 24.8 4.7 8.1zM139.2 319l-43 24.8 4.7 8.1 43-24.8-4.7-8.1zM161 101.8l24.8 43 8.1-4.7-24.8-43-8.1 4.7zm190 310.4l-24.8-43-8.1 4.7 24.8 43 8.1-4.7zm64.9-68.3l-43-24.8-4.7 8.1 43 24.8 4.7-8.1zM96.1 170.1l43 24.8 4.7-8.1-43-24.8-4.7 8.1zM318 140.2l8.1 4.7 24.8-43-8.1-4.7-24.8 43zM194 373.8l-8.1-4.7-24.8 43 8.1 4.7 24.8-43zm43.3-258.6l7.5-.8-3.2-30.8-7.5.8 3.2 30.8zm40.6 314.4l-3.2-30.8-7.5.8 3.2 30.8 7.5-.8zM223.5 86.1l-7.3 1.6 6.4 30.3 7.3-1.6-6.4-30.3zm58.6 311.5l6.4 30.3 7.3-1.6-6.4-30.3-7.3 1.6zM205.8 90.4l-7.1 2.3 9.6 29.4 7.1-2.3-9.6-29.4zm100.4 333.2l7.1-2.3-9.6-29.4-7.1 2.3 9.6 29.4zM201.3 124.9l-12.6-28.3-6.9 3.1 12.6 28.3 6.9-3.1zm128.9 289.4L317.6 386l-6.9 3.1 12.6 28.3 6.9-3.1zm-19.5-289.4l6.9 3.1 12.6-28.3-6.9-3.1-12.6 28.3zM201.3 389.1l-6.9-3.1-12.6 28.3 6.9 3.1 12.6-28.3zm95.3-269.2l7.1 2.3 9.6-29.4-7.1-2.3-9.6 29.4zm-81.2 274.2l-7.1-2.3-9.6 29.4 7.1 2.3 9.6-29.4zm73.1-308l-6.4 30.3 7.3 1.6 6.4-30.3-7.3-1.6zm-72.3 340.2l7.3 1.6 6.4-30.3-7.3-1.6-6.4 30.3zm61.7-341.9l-7.5-.8-3.2 30.8 7.5.8 3.2-30.8zm-43.8 345.2l7.5.8 3.2-30.8-7.5-.8-3.2 30.8zM98.7 182.8l-3.1 6.9 28.3 12.6 3.1-6.9-28.3-12.6zm314.6 148.4l3.1-6.9-28.3-12.6-3.1 6.9 28.3 12.6zM121.2 209.3l-29.4-9.6-2.3 7.1 29.4 9.6 2.3-7.1zm271.9 88.3l-2.3 7.1 29.4 9.6 2.3-7.1-29.4-9.6zm-276.2-74l-30.3-6.4-1.6 7.3 30.3 6.4 1.6-7.3zm278.2 66.8l30.3 6.4 1.6-7.3-30.3-6.4-1.6 7.3zM82.7 242.6l30.8 3.2.8-7.5-30.8-3.2-.8 7.5zm346.6 28.8l-30.8-3.2-.8 7.5 30.8 3.2.8-7.5zM168.9 143.5l6.1-4.4-18.2-25-6.1 4.4 18.2 25zm186.3 256.4l6.1-4.4-18.2-25-6.1 4.4 18.2 25zM136.8 130.3l20.7 23 5.6-5-20.7-23-5.6 5zm238.4 253.4l-20.7-23-5.6 5 20.7 23 5.6-5zM124.3 143.4l23 20.7 5-5.6-23-20.7-5 5.6zm263.4 227.2l-23-20.7-5 5.6 23 20.7 5-5.6zM113.1 157.8l25 18.2 4.4-6.1-25-18.2-4.4 6.1zm285.8 198.4l-25-18.2-4.4 6.1 25 18.2 4.4-6.1zm-256.4-12.1l-4.4-6.1-25 18.2 4.4 6.1 25-18.2zm227-174.2l4.4 6.1 25-18.2-4.4-6.1-25 18.2zM152.3 355.5l-5-5.6-23 20.7 5 5.6 23-20.7zm207.4-197l5 5.6 23-20.7-5-5.6-23 20.7zM163.1 365.8l-5.6-5-20.7 23 5.6 5 20.7-23zm185.8-217.6l5.6 5 20.7-23-5.6-5-20.7 23zM150.7 395.5l6.1 4.4 18.2-25-6.1-4.4-18.2 25zm204.5-281.4l-18.2 25 6.1 4.4 18.2-25-6.1-4.4zM83.4 278.9l30.8-3.2-.8-7.5-30.8 3.2.8 7.5zm345.9-36.3l-.8-7.5-30.8 3.2.8 7.5 30.8-3.2zm-313.9 40.5l-30.3 6.4 1.6 7.3 30.3-6.4-1.6-7.3zm279.7-59.5l1.6 7.3 30.3-6.4-1.6-7.3-30.3 6.4zm-273.9 81.1l-2.3-7.1-29.4 9.6 2.3 7.1 29.4-9.6zm269.6-95.4l2.3 7.1 29.4-9.6-2.3-7.1-29.4 9.6zm-295.2 115l3.1 6.9 28.3-12.6-3.1-6.9-28.3 12.6zm320.8-134.6l-3.1-6.9-28.3 12.6 3.1 6.9 28.3-12.6zM236.9 63.3l-2.1.2c-.5.3-.4 1.6.1 1.8 1.8-.1 4.9-.2 8.2-.2 3.1 0 6.2.1 8 .2.5-.2.6-1.5.1-1.8l-2.1-.2c-2.5-.2-2.8-.7-2.8-4.8V39.3c0-2.5.1-4.9.2-6-.1-.4-.5-.6-.7-.6-.4 0-2.3 1-4.5 1.6-2 .6-4.4 1.1-6.5 1.4-.4.3-.4 1.5.1 1.8l2.3.3c2.2.3 2.4 1.1 2.4 4.4v16.4c.1 4-.2 4.5-2.7 4.7zm42.2-6.2c-1.5 2.7-2.1 2.8-5.8 2.8h-6.1c-.7 0-1-.3-1-.6 0-.4.5-1.1 2.7-3.2l2.4-2.3c6.1-5.7 7.6-8.6 7.6-12.5 0-4.8-3.6-8.6-9.6-8.6-4.9 0-9.6 2.8-11.6 7.9.1.8 1.1 1.1 1.7.7 1.6-2.8 3.6-4.7 6.5-4.7 3.4 0 5.5 2.7 5.5 6.2 0 5.4-3.1 9.7-6.6 13.5-3 3.3-5.9 6-7.8 7.8-.1.5.1 1 .5 1.1.9-.1 3-.2 5.7-.2h8c3.2 0 5.1.1 7.1.2.9-1.2 2-4.7 2.5-7.8-.2-.7-1.4-.7-1.7-.3zm-22.7 420.2c7 0 11.6-4.6 11.6-11.2 0-4.9-2.8-9.6-9.1-9.6-1.8 0-4.2 1.2-5.1 2.2-.1.4.1.7.4.9.5-.1.8-.1 1.2-.1 4.4 0 5.8 6.2 5.8 9.6 0 2.4-.8 5.7-3.8 5.7-3.8 0-5.6-6.3-5.6-11.7 0-4.7 1.1-9.6 3.8-12.9 2.8-3.5 5.5-5.6 11.7-7.1.5-.6.4-1.5-.2-1.8-6.1.3-12.2 3.2-16.1 6.9-4.1 3.9-6.6 9.6-6.6 15.3-.1 8.2 4.3 13.8 12 13.8zM61.8 251.5c0-7-4.3-13-12-13-6.3 0-11.2 4.6-11.2 11.1 0 5.1 3.8 9 8.6 9 2.1 0 4.2-.7 5-1.6.1-.4-.1-.9-.3-1.1-.5 0-.8 0-1.4-.1-3.4-.6-5.1-5-5.1-9.1 0-3 1.4-5.9 3.7-5.9 4.3 0 5.4 7.3 5.4 11.2 0 9.3-5.1 17.8-15 20.2-.5.4-.4 1.4.2 1.7 4.3-.2 11-3.1 15.2-7 4.2-4 6.9-9.3 6.9-15.4zm396.8 19.7c-.7 0-1.6-.3-2.2-1.2-.5-.7-1.6-2.7-3.4-2.7-2 0-3 1.4-3 2.8 0 2.6 2.7 3.6 5.5 3.6s7.3-.9 11.7-4c4.1-3 5.8-6.7 5.8-10.3 0-4.9-3.9-8-8.5-7.8-.7 0-1-.4-.5-.7 5.5-2.4 6.4-4.5 6.4-6.5 0-3.4-3.1-5.8-8-5.8-4.6 0-8.6 2.3-10.6 6.4 0 .6.7 1.2 1.4 1 1.5-2.3 3.8-4.2 6.2-4.2 2.5 0 4.2 1.8 4.2 3.7 0 2.3-1.2 3.8-2.1 4.6-2 1.7-6.1 3.3-8.2 4.1-.5 1.2.2 2.2 1.2 2.4 1.3-1.2 2.9-2.1 5-2.1 3.6 0 5.9 3.2 5.9 7.7 0 6.1-4.6 9-6.8 9zM135.9 90.9l-2.1.2c-.5.3-.4 1.6.1 1.8 1.8-.1 4.9-.2 8.2-.2 3.1 0 6.2.1 8 .2.5-.2.6-1.5.1-1.8l-2.1-.2c-2.5-.2-2.8-.7-2.8-4.8V66.8c0-2.5.1-4.9.2-6-.1-.4-.5-.6-.7-.6-.4 0-2.3 1-4.5 1.6-2 .6-4.4 1.1-6.5 1.4-.4.3-.4 1.5.1 1.8l2.3.3c2.2.3 2.4 1.1 2.4 4.4v16.4c.1 4.1-.2 4.6-2.7 4.8zm22.6 0l-2.1.2c-.5.3-.4 1.6.1 1.8 1.8-.1 4.9-.2 8.2-.2 3.1 0 6.2.1 8 .2.5-.2.6-1.5.1-1.8l-2.1-.2c-2.5-.2-2.8-.7-2.8-4.8V66.8c0-2.5.1-4.9.2-6-.1-.4-.5-.6-.7-.6-.4 0-2.3 1-4.5 1.6-2 .6-4.4 1.1-6.5 1.4-.4.3-.4 1.5.1 1.8l2.3.3c2.2.3 2.4 1.1 2.4 4.4v16.4c.1 4.1-.2 4.6-2.7 4.8zm189.9 361.5c4.3-.1 9.5-1.1 13.7-3.3 4.2-2.3 7.3-5.7 7.3-10.9 0-4.2-2.5-7-5.4-8.5-2.9-1.5-7.6-2.2-10.3-2.5-1-.1-1.7-.3-1.4-1.5l.3-1.2c.2-.9.5-1.4 1.2-1.5l11.4-1.3c1.3-1.2 2.3-3.3 2.8-5.2 0-.4-.2-.6-.6-.6l-13.4 1.6c-1.6.2-1.9.2-2.3 1.5l-3 11.6c-.3 1.2-.1 1.6 1.5 1.7 5.1.4 12.7 1.2 12.7 8.4 0 2.7-1.7 5.1-4.7 6.8-2.4 1.4-6.5 2.1-10.1 2.3-.6.6-.4 2.2.3 2.6zm-282-86.1c0-3.8 2.7-6.4 6.7-8.4-3.1-1.7-5.4-4.2-5.4-7.8 0-5 4.1-8.7 10.4-8.7 5.7 0 9.8 3.1 9.8 7.9 0 3.6-2.8 5.5-5.5 7 3.8 1.9 6.8 4.6 6.8 9.5 0 4.8-3.7 8.8-11.6 8.8-6-.1-11.2-2.8-11.2-8.3zm7.5-17.9c0 2.4 1.7 4.5 5.9 6.3 1.6-1 2.4-3.1 2.4-5.5 0-3.5-2.2-5.5-4.2-5.5-2.3 0-4.1 2-4.1 4.7zm-.9 17.3c0 3.5 2.1 6.4 5.4 6.4 2.2 0 4.2-1.7 4.2-4.8 0-4-2.8-6.1-7-8.1-1.9 1.9-2.6 4.1-2.6 6.5zM422.1 167c-.1.5.1 1 .5 1.1.9-.1 3-.2 5.7-.2h8c3.2 0 5.1.1 7.1.2.9-1.2 2-4.7 2.5-7.8-.2-.7-1.4-.7-1.7-.3-1.5 2.7-2.1 2.8-5.8 2.8h-6.1c-.7 0-1-.3-1-.6 0-.4.5-1.1 2.7-3.2l2.4-2.3c6.1-5.7 7.6-8.6 7.6-12.5 0-4.8-3.6-8.6-9.6-8.6-4.9 0-9.6 2.8-11.6 7.9.1.8 1.1 1.1 1.7.7 1.6-2.8 3.6-4.7 6.5-4.7 3.4 0 5.5 2.7 5.5 6.2 0 5.4-3.1 9.7-6.6 13.5-3 3.4-5.9 6-7.8 7.8zm-347.3 1.1c.5-.2.6-1.5.1-1.8l-2.1-.2c-2.5-.2-2.8-.7-2.8-4.8V142c0-2.5.1-4.9.2-6-.1-.4-.5-.6-.7-.6-.4 0-2.3 1-4.5 1.6-2 .6-4.4 1.1-6.5 1.4-.4.3-.4 1.5.1 1.8l2.3.3c2.2.3 2.4 1.1 2.4 4.4v16.4c0 4.1-.3 4.6-2.8 4.8l-2.1.2c-.5.3-.4 1.6.1 1.8 1.8-.1 4.9-.2 8.2-.2 3.2.1 6.3.1 8.1.2zm14.3-32.5c8.2 0 11.7 8.7 11.7 16.6 0 8.2-3.5 16.6-11.7 16.6s-11.7-8.4-11.7-16.6c0-7.9 3.5-16.6 11.7-16.6zm0 2.3c-3.8 0-4.3 9.7-4.3 14.2s.5 14.2 4.3 14.2 4.3-9.7 4.3-14.2-.5-14.2-4.3-14.2zm353.8 226.4h3.3c.8-.5.8-2.4 0-2.8h-3.3c-1.1 0-1.2-.2-1.2-1.5v-9.6c0-.5-.2-.9-.7-.9-.9 0-3.6 1-4.9 1.6-.8.3-1.1.7-1.1 1.8v7.1c0 1.3-.1 1.5-1.2 1.5h-6.2c-1.6 0-1.6-.4-1.1-1.1l15.2-21.1c.8-1 .4-1.4-.5-1.4h-1.5c-.7 0-1.1.4-1.7 1.2l-16.5 23.5c-.2.7-.1 1.4.6 1.6h11.7c1.1 0 1.2.2 1.2 1.5v1.4c0 4.2-.3 4.6-2.8 4.8l-2.1.2c-.5.3-.4 1.6.1 1.8 1.7-.1 4.8-.2 8.1-.2 2.3 0 5 .1 6.8.2.5-.2.6-1.5.1-1.8l-1.1-.1c-2.2-.2-2.5-.7-2.5-4.8v-1.4c.2-1.3.3-1.5 1.3-1.5zM144 450.6c.1 1.1 1.6 1.7 2.4 1.6l14.6-25.8c2.1-3.7 3.7-6.5 5-8.4.1-.3-.1-.7-.5-.8-.7.1-4.2.2-7.3.2h-9.7c-3.2 0-4.4-.1-6.1-.2-.5 1.9-1.1 5.1-2 7.6.2.6 1.3.8 1.7.4 1.2-2.1 1.7-2.5 4.6-2.5h10.7c.8 0 1.5.2 1.5.8 0 .9-.6 2-1.7 4L144 450.6zM353 90.9l-2.1.2c-.5.3-.4 1.6.1 1.8 1.8-.1 4.9-.2 8.2-.2 3.1 0 6.2.1 8 .2.5-.2.6-1.5.1-1.8l-2.1-.2c-2.5-.2-2.8-.7-2.8-4.8V66.8c0-2.5.1-4.9.2-6-.1-.4-.5-.6-.7-.6-.4 0-2.3 1-4.5 1.6-2 .6-4.4 1.1-6.5 1.4-.4.3-.4 1.5.1 1.8l2.3.3c2.2.3 2.4 1.1 2.4 4.4v16.4c.1 4.1-.2 4.6-2.7 4.8z" fill="#ddd"/><path class="st1" d="M444.3 366.1l-30-24 3-5.1-4.3-2.5-2.8 4.7-24-14c1.1-7-2.1-14.3-8.6-18-5.3-3.1-11.4-3.1-16.6-.7l-5.3-3.1 5-8.6-4.3-2.5-5 8.6L214 220.5c-.9-3.4-3.1-6.5-6.4-8.4-5.4-3.1-12-2.3-16.4 1.7l-1.4-5.2c5.9-4 13.8-4.6 20.3-.7l2.5-4.3c-11.4-6.7-26.1-2.8-32.8 8.6-6.7 11.4-2.8 26.1 8.6 32.8l2.5-4.3c-6.5-3.8-9.9-11-9.3-18.1l5.2-1.4c-1.3 5.8 1.2 12 6.6 15.1 3.3 1.9 7 2.3 10.5 1.5l137.4 80.4-5 8.6 4.3 2.5 5-8.6 5.3 3.1c.4 5.7 3.5 11 8.7 14.1 6.5 3.8 14.4 3 19.9-1.4l24 14-2.8 4.7 4.3 2.5 3-5.2 36.3 13.6zm-262-146.8c.4-1.6 1.1-3.2 1.9-4.7.9-1.5 1.9-2.8 3.1-4l1.6 5.9c-.1.2-.3.4-.4.6l-.3.6-5.9 1.6zm13.8 12.7c-4.3-2.5-5.7-8-3.2-12.3 2.5-4.3 8-5.7 12.3-3.2 4.3 2.5 5.7 8 3.2 12.3-2.5 4.2-8 5.7-12.3 3.2zm14.8 1.7c.7-.7 1.3-1.5 1.8-2.4.5-.9.9-1.8 1.2-2.8L348 306.9l-3 5.2-134.1-78.4zm138.4 80.9l3-5.2 2.8 1.7c-.6.8-1.2 1.6-1.7 2.5-.5.9-.9 1.8-1.3 2.7l-2.8-1.7z"/><path class="st1" d="M244.1 287.6l101.7-125.4 2.5-3.1-7-5.7 2.6-3.2c3.8 2.1 8.6 1.3 11.4-2.2 2.8-3.5 2.6-8.4-.2-11.6l5.8-7.1-2.3-1.9-5.8 7.1c-3.8-2.1-8.6-1.3-11.4 2.2-2.8 3.5-2.6 8.4.2 11.6l-2.6 3.2-7-5.7-2.5 3.1-101.7 125.5c-8.7-2-18.1.9-24.1 8.3l3.9 3.1c6.1-7.5 16.7-9.1 24.7-4.2l-7 8.7c-3.6-1.5-7.9-.6-10.5 2.6-3.1 3.9-2.5 9.5 1.3 12.7 3.9 3.1 9.5 2.5 12.7-1.3 2.6-3.2 2.6-7.6.4-10.8l7-8.7c6.4 6.8 7 17.5 1 25l3.9 3.1c5.9-7.4 6.8-17.2 3-25.3zm-11.3-11.4l100.6-124 2.3 1.9-100.2 123.6c-.9-.6-1.8-1.1-2.7-1.5zm106.8-119l2.3 1.9-100.6 124c-.6-.8-1.3-1.6-2-2.3l100.3-123.6z"/><path d="M256 0h-1C121.2 0 11.4 102.6 0 233.4v45.1C11.4 409.4 121.2 512 255 512h1V0z" opacity=".15" fill="#444"/></svg>