<svg version="1.1" xmlns="http://www.w3.org/2000/svg" x="0" y="0" viewBox="0 0 512 512" xml:space="preserve"><style type="text/css">.st1{fill:#2e86b7}.st2{opacity:.15;fill:#444}</style><path d="M290.7 134c-.9 0-1.8-.2-2.6-.7-2.4-1.4-3.1-4.5-1.6-6.9l76-124C363.9 0 367-.7 369.4.7c2.4 1.4 3.1 4.5 1.6 6.9l-76 124c-.9 1.6-2.6 2.4-4.3 2.4z" fill="#999"/><path class="st1" d="M461.6 170c-20.9-29.7-49.6-46-80.9-46-22.9 0-41.9 3.4-57.5 10.3v49.2l19.3-19.3c5-5 11.5-8.3 18.6-9.1 6-.7 12.6-1.1 19.7-1.1 21.2 0 41.2 11.8 56.3 33.3 16.6 23.6 25.7 56.5 25.7 92.7 0 71.2-36 127-82 127-8.4 0-16.5-1.6-24.1-4.8-8.2-3.4-14.6-10.1-17.7-18.5L328.8 356s-2.5 5.9-5.5 13.3v47.9c18.7 14 39.5 19.8 57.5 19.8 31.3 0 60-16.5 80.9-46.6 20.1-28.8 31.1-68 31.1-110.4 0-42.4-11.1-81.4-31.2-110z"/><path class="st2" d="M461.6 170c-20.9-29.7-49.6-46-80.9-46-22.9 0-41.9 3.4-57.5 10.3v49.2l19.3-19.3c5-5 11.5-8.3 18.6-9.1 6-.7 12.6-1.1 19.7-1.1 21.2 0 41.2 11.8 56.3 33.3 16.6 23.6 25.7 56.5 25.7 92.7 0 71.2-36 127-82 127-8.4 0-16.5-1.6-24.1-4.8-8.2-3.4-14.6-10.1-17.7-18.5L328.8 356s-2.5 5.9-5.5 13.3v47.9c18.7 14 39.5 19.8 57.5 19.8 31.3 0 60-16.5 80.9-46.6 20.1-28.8 31.1-68 31.1-110.4 0-42.4-11.1-81.4-31.2-110z"/><path class="st1" d="M325.3 512h-298c-4.4 0-8-3.6-8-8V79c0-4.4 3.6-8 8-8h298c4.4 0 8 3.6 8 8v425c0 4.4-3.6 8-8 8z"/><path class="st2" d="M27.3 71c-4.4 0-8 3.6-8 8v425c0 4.4 3.6 8 8 8H176V71H27.3z"/></svg>