<svg version="1.1" xmlns="http://www.w3.org/2000/svg" x="0" y="0" viewBox="0 0 512 512" xml:space="preserve"><style type="text/css">.st0{fill:#2e86b7}</style><path class="st0" d="M227.6 306.4s-18.3-97.7-14.2-155.7 11.2-81.4 18.3-92.6c7.1-11.2 19.3-27.5 34.6-27.5s15.3 36.6 22.4 63.1c7.1 26.5 10.2 45.8 15.3 64.1s7.1 93.6 2 103.8c-5.1 10.2-40.7 35.6-40.7 35.6l-37.7 9.2zm31.8 53s-75.5 64.7-127.7 90.2-76.1 31-89.4 30.4c-13.3-.6-33.5-3-41.1-16.2-7.6-13.2 24.1-31.5 43.5-50.9s34.6-31.7 47.9-45.3c13.3-13.6 77.5-53 88.9-53.7 11.4-.7 51.2 17.4 51.2 17.4l26.7 28.1zm29.9-54.1s93.8 33 142 65.5 64.9 50.4 71.1 62.2 14.1 30.5 6.5 43.7c-7.6 13.2-39.4-5.1-65.8-12.2-26.5-7.1-44.8-14.1-63.2-18.8-18.4-4.8-84.7-40.6-90.9-50.1-6.3-9.5-10.5-53.1-10.5-53.1l10.8-37.2z"/><path class="st0" d="M258.8 281.7c-23.2 0-42 18.8-42 42s18.8 42 42 42 42-18.8 42-42c-.1-23.2-18.9-42-42-42zm0 62.1c-11.1 0-20.1-9-20.1-20.1 0-11.1 9-20.1 20.1-20.1 11.1 0 20.1 9 20.1 20.1 0 11.1-9 20.1-20.1 20.1z"/><path d="M258.8 281.7c-23.2 0-42 18.8-42 42s18.8 42 42 42 42-18.8 42-42c-.1-23.2-18.9-42-42-42zm0 62.1c-11.1 0-20.1-9-20.1-20.1 0-11.1 9-20.1 20.1-20.1 11.1 0 20.1 9 20.1 20.1 0 11.1-9 20.1-20.1 20.1z" opacity=".5" fill="#444"/><path d="M256 343.6c-9.8-1.3-17.3-9.7-17.3-19.9s7.6-18.5 17.3-19.9V33c-10.5 5-18.9 16.5-24.4 25.1-7.1 11.2-14.2 34.6-18.3 92.6-3.3 47.4 8.3 121.4 12.7 146.8-5.8 7.2-9.2 16.3-9.2 26.2v.9c-12.4-5.1-28.8-11.1-35.4-10.7-11.4.7-75.6 40.1-88.9 53.7-13.3 13.6-28.5 25.9-47.9 45.3s-51.1 37.7-43.5 50.9C8.8 477 29 479.5 42.3 480c13.3.6 37.1-5 89.4-30.4 42.7-20.8 101-67.9 120.8-84.4 1.2.2 2.4.3 3.6.4v-22z" opacity=".15" fill="#444"/></svg>