<svg version="1.1" xmlns="http://www.w3.org/2000/svg" x="0" y="0" viewBox="0 0 512 512" xml:space="preserve"><path d="M398.4 0H113.6c-10.5 0-19 8.5-19 19v474c0 10.5 8.5 19 19 19h284.8c10.5 0 19-8.5 19-19V19c0-10.5-8.5-19-19-19z" fill="#f4f4f4"/><path d="M148.5 89.5c-3.2-1.9-4.6-3-8-6.1-3.7-3.3-6.4-9.1-6.4-9.1s-2.8 5.9-6.4 9.1c-3.4 3-4.9 4.2-8 6.1-.7.4-1.4.9-1.9 1.4-7.3 6.9 3.5 17 16 6.6-.7 5.1-4.1 9.4-8.6 11.5h18c-4.6-2.1-7.9-6.4-8.6-11.5 12.6 10.4 23.3.3 16-6.6-.8-.5-1.4-1-2.1-1.4zm229.9 325c.7-5.1 4.1-9.4 8.6-11.5h-18c4.6 2.1 7.9 6.4 8.6 11.5-12.6-10.4-23.3-.3-16 6.6.6.5 1.2 1 1.9 1.4 3.2 1.9 4.6 3 8 6.1 3.7 3.3 6.4 9.1 6.4 9.1s2.8-5.9 6.4-9.1c3.4-3 4.9-4.2 8-6.1.7-.4 1.4-.9 1.9-1.4 7.5-6.9-3.3-17-15.8-6.6zM228.3 84.3c-1.1-1-2.4-2-3.8-2.8-6.2-3.7-9-6-15.8-12-7.2-6.4-12.7-18-12.7-18s-5.4 11.5-12.7 18c-6.8 6-9.6 8.2-15.8 12-1.4.8-2.7 1.7-3.8 2.8-14.3 13.5 6.8 33.6 31.5 13-1.4 10.1-8 18.6-17 22.6h35.5c-9-4.1-15.6-12.5-17-22.6 24.7 20.6 45.9.6 31.6-13zm120 0c-1.1-1-2.4-2-3.8-2.8-6.2-3.7-9-6-15.8-12-7.2-6.4-12.7-18-12.7-18s-5.4 11.5-12.7 18c-6.8 6-9.6 8.2-15.8 12-1.4.8-2.7 1.7-3.8 2.8-14.3 13.5 6.8 33.6 31.5 13-1.4 10.1-8 18.6-17 22.6h35.5c-9-4.1-15.6-12.5-17-22.6 24.7 20.6 45.9.6 31.6-13zm-120 113.5c-1.1-1-2.4-2-3.8-2.8-6.2-3.7-9-6-15.8-12-7.2-6.4-12.7-18-12.7-18s-5.4 11.5-12.7 18c-6.8 6-9.6 8.2-15.8 12-1.4.8-2.7 1.7-3.8 2.8-14.3 13.5 6.8 33.6 31.5 13-1.4 10.1-8 18.6-17 22.6h35.5c-9-4.1-15.6-12.5-17-22.6 24.7 20.6 45.9.5 31.6-13zm120 0c-1.1-1-2.4-2-3.8-2.8-6.2-3.7-9-6-15.8-12-7.2-6.4-12.7-18-12.7-18s-5.4 11.5-12.7 18c-6.8 6-9.6 8.2-15.8 12-1.4.8-2.7 1.7-3.8 2.8-14.3 13.5 6.8 33.6 31.5 13-1.4 10.1-8 18.6-17 22.6h35.5c-9-4.1-15.6-12.5-17-22.6 24.7 20.6 45.9.5 31.6-13zm-64.6 229.9c1.1 1 2.4 2 3.8 2.8 6.2 3.7 9 6 15.8 12 7.2 6.4 12.7 18 12.7 18s5.4-11.5 12.7-18c6.8-6 9.6-8.2 15.8-12 1.4-.8 2.7-1.7 3.8-2.8 14.3-13.5-6.8-33.6-31.5-13 1.4-10.1 8-18.6 17-22.6h-35.5c9 4.1 15.6 12.5 17 22.6-24.7-20.6-45.9-.6-31.6 13zm-120 0c1.1 1 2.4 2 3.8 2.8 6.2 3.7 9 6 15.8 12 7.2 6.4 12.7 18 12.7 18s5.4-11.5 12.7-18c6.8-6 9.6-8.2 15.8-12 1.4-.8 2.7-1.7 3.8-2.8 14.3-13.5-6.8-33.6-31.5-13 1.4-10.1 8-18.6 17-22.6h-35.5c9 4.1 15.6 12.5 17 22.6-24.7-20.6-45.9-.6-31.6 13zm120-113.5c1.1 1 2.4 2 3.8 2.8 6.2 3.7 9 6 15.8 12 7.2 6.4 12.7 18 12.7 18s5.4-11.5 12.7-18c6.8-6 9.6-8.2 15.8-12 1.4-.8 2.7-1.7 3.8-2.8 14.3-13.5-6.8-33.6-31.5-13 1.4-10.1 8-18.6 17-22.6h-35.5c9 4.1 15.6 12.5 17 22.6-24.7-20.6-45.9-.5-31.6 13zm-120 0c1.1 1 2.4 2 3.8 2.8 6.2 3.7 9 6 15.8 12 7.2 6.4 12.7 18 12.7 18s5.4-11.5 12.7-18c6.8-6 9.6-8.2 15.8-12 1.4-.8 2.7-1.7 3.8-2.8 14.3-13.5-6.8-33.6-31.5-13 1.4-10.1 8-18.6 17-22.6h-35.5c9 4.1 15.6 12.5 17 22.6-24.7-20.6-45.9-.5-31.6 13zM148.6 31.6c0 2.2-.6 4.2-1.7 6-1.1 1.7-2.7 3.1-4.6 4.2 2.2 1.1 4 2.6 5.3 4.5 1.3 1.9 2 4.1 2 6.7 0 4.1-1.4 7.3-4.2 9.7-2.8 2.4-6.6 3.6-11.4 3.6-4.8 0-8.6-1.2-11.4-3.6-2.8-2.4-4.2-5.6-4.2-9.7 0-2.6.7-4.8 2-6.7 1.3-1.9 3.1-3.4 5.3-4.4-2-1-3.5-2.4-4.6-4.2-1.1-1.7-1.7-3.7-1.7-6 0-3.9 1.3-7.1 3.9-9.4 2.6-2.3 6.2-3.5 10.7-3.5 4.5 0 8 1.2 10.7 3.5 2.6 2.2 3.9 5.3 3.9 9.3zm-8.2 20.6c0-2-.6-3.6-1.7-4.8-1.2-1.2-2.7-1.8-4.7-1.8-1.9 0-3.5.6-4.7 1.8-1.2 1.2-1.7 2.8-1.7 4.8s.6 3.6 1.7 4.8 2.7 1.8 4.8 1.8c2 0 3.5-.6 4.7-1.7 1-1.3 1.6-2.9 1.6-4.9zm-.9-20.2c0-1.8-.5-3.2-1.4-4.3-1-1.1-2.3-1.6-4-1.6-1.7 0-3 .5-4 1.6s-1.4 2.5-1.4 4.4c0 1.8.5 3.3 1.4 4.4 1 1.1 2.3 1.7 4 1.7 1.7 0 3.1-.6 4-1.7.9-1.2 1.4-2.6 1.4-4.5zm253.1 426.8c0 2.2-.6 4.2-1.7 6-1.1 1.7-2.7 3.1-4.6 4.2 2.2 1.1 4 2.6 5.3 4.5 1.3 1.9 2 4.1 2 6.7 0 4.1-1.4 7.3-4.2 9.7-2.8 2.4-6.6 3.6-11.4 3.6-4.8 0-8.6-1.2-11.4-3.6-2.8-2.4-4.2-5.6-4.2-9.7 0-2.6.7-4.8 2-6.7 1.3-1.9 3.1-3.4 5.3-4.4-2-1-3.5-2.4-4.6-4.2-1.1-1.7-1.7-3.7-1.7-6 0-3.9 1.3-7.1 3.9-9.4 2.6-2.3 6.2-3.5 10.7-3.5 4.5 0 8 1.2 10.7 3.5 2.6 2.2 3.9 5.3 3.9 9.3zm-8.2 20.6c0-2-.6-3.6-1.7-4.8-1.2-1.2-2.7-1.8-4.7-1.8-1.9 0-3.5.6-4.7 1.8-1.2 1.2-1.7 2.8-1.7 4.8s.6 3.6 1.7 4.8 2.7 1.8 4.8 1.8c2 0 3.5-.6 4.7-1.7 1-1.3 1.6-2.9 1.6-4.9zm-.9-20.2c0-1.8-.5-3.2-1.4-4.3-1-1.1-2.3-1.6-4-1.6-1.7 0-3 .5-4 1.6s-1.4 2.5-1.4 4.4c0 1.8.5 3.3 1.4 4.4 1 1.1 2.3 1.7 4 1.7 1.7 0 3.1-.6 4-1.7.9-1.2 1.4-2.6 1.4-4.5z" fill="#36434f"/><path d="M113.6 0c-10.5 0-19 8.5-19 19v474c0 10.5 8.5 19 19 19H256V0H113.6z" opacity=".15" fill="#444"/></svg>