<svg xmlns="http://www.w3.org/2000/svg" viewBox="0 0 512 512" xml:space="preserve"><style>.st1{fill:#36434f}</style><path d="M398.4 0H113.6c-10.5 0-19 8.5-19 19v474c0 10.5 8.5 19 19 19h284.8c10.5 0 19-8.5 19-19V19c0-10.5-8.5-19-19-19z" fill="#f4f4f4"/><path class="st1" d="M134.4 96.2h-.8c-.3 5.7-3.6 10.5-8.6 12.8h18c-4.9-2.2-8.3-7.1-8.6-12.8zm-.8-6.3h.9v6.3h-.9v-6.3z"/><path class="st1" d="M140.2 80.5c0 3.4-5.1 10.3-6.2 10.3s-6.2-6.9-6.2-10.3 2.8-6.2 6.2-6.2 6.2 2.7 6.2 6.2zM120.3 89c3.4 0 10.3 5.1 10.3 6.2s-6.9 6.2-10.3 6.2-6.2-2.8-6.2-6.2c0-3.4 2.8-6.2 6.2-6.2zm27.4 0c-3.4 0-10.3 5.1-10.3 6.2s6.9 6.2 10.3 6.2c3.4 0 6.2-2.8 6.2-6.2 0-3.4-2.7-6.2-6.2-6.2z"/><path class="st1" d="M135.4 94.8h-6.3v.9h9.8v-.9h-3.5zm243 321h-.8c-.3-5.7-3.6-10.5-8.6-12.8h18c-4.9 2.2-8.3 7.1-8.6 12.8zm-.8 0h.9v6.3h-.9v-6.3z"/><path class="st1" d="M384.2 431.5c0-3.4-5.1-10.3-6.2-10.3s-6.2 6.9-6.2 10.3 2.8 6.2 6.2 6.2 6.2-2.7 6.2-6.2zm-19.9-8.5c3.4 0 10.3-5.1 10.3-6.2s-6.9-6.2-10.3-6.2-6.2 2.8-6.2 6.2 2.7 6.2 6.2 6.2zm27.4 0c-3.4 0-10.3-5.1-10.3-6.2s6.9-6.2 10.3-6.2 6.2 2.8 6.2 6.2-2.8 6.2-6.2 6.2zM223 407c-6.1 0-17.8 8.2-20 11.4h-6.2v-1.1c.6-11.2 7.2-20.7 16.9-25.1h-35.4c9.7 4.4 16.3 13.9 16.9 25.1v1.1H189c-2.2-3.3-13.9-11.4-20-11.4-6.7 0-12.2 5.4-12.2 12.2 0 6.7 5.4 12.2 12.2 12.2 6.1 0 17.8-8.2 20-11.4h6.2v8.1c-3.3 2.2-11.4 13.9-11.4 20 0 6.7 5.4 12.2 12.2 12.2 6.7 0 12.2-5.4 12.2-12.2 0-6.1-8.2-17.8-11.4-20v-8.2h6.2c2.2 3.3 13.9 11.4 20 11.4 6.8 0 12.2-5.4 12.2-12.1S229.8 407 223 407z"/><path class="st1" d="M382.9 417.2v-.9h-9.8v.9h6.3zM142.3 41.8c1.9-1.1 3.5-2.5 4.6-4.2 1.1-1.8 1.7-3.8 1.7-6 0-4-1.3-7.1-3.9-9.3-2.7-2.3-6.2-3.5-10.7-3.5s-8.1 1.2-10.7 3.5c-2.6 2.3-3.9 5.5-3.9 9.4 0 2.3.6 4.3 1.7 6 1.1 1.8 2.6 3.2 4.6 4.2-2.2 1-4 2.5-5.3 4.4-1.3 1.9-2 4.1-2 6.7 0 4.1 1.4 7.3 4.2 9.7 2.8 2.4 6.6 3.6 11.4 3.6s8.6-1.2 11.4-3.6c2.8-2.4 4.2-5.6 4.2-9.7 0-2.6-.7-4.8-2-6.7-1.3-1.9-3.1-3.4-5.3-4.5zm-12.2-14.1c1-1.1 2.3-1.6 4-1.6s3 .5 4 1.6c.9 1.1 1.4 2.5 1.4 4.3 0 1.9-.5 3.3-1.4 4.5-.9 1.1-2.3 1.7-4 1.7s-3-.6-4-1.7c-.9-1.1-1.4-2.6-1.4-4.4 0-1.9.4-3.3 1.4-4.4zm8.7 29.4c-1.2 1.1-2.7 1.7-4.7 1.7-2.1 0-3.7-.6-4.8-1.8-1.1-1.2-1.7-2.8-1.7-4.8s.5-3.6 1.7-4.8c1.2-1.2 2.8-1.8 4.7-1.8 2 0 3.5.6 4.7 1.8 1.1 1.2 1.7 2.8 1.7 4.8s-.6 3.6-1.6 4.9zM223 293.5c-6.1 0-17.8 8.2-20 11.4h-6.2v-1.1c.6-11.2 7.2-20.7 16.9-25.1h-35.4c9.7 4.4 16.3 13.9 16.9 25.1v1.1H189c-2.2-3.3-13.9-11.4-20-11.4-6.7 0-12.2 5.4-12.2 12.2 0 6.7 5.4 12.2 12.2 12.2 6.1 0 17.8-8.2 20-11.4h6.2v8.2c-3.3 2.2-11.4 13.9-11.4 20 0 6.7 5.4 12.2 12.2 12.2 6.7 0 12.2-5.4 12.2-12.2 0-6.1-8.2-17.8-11.4-20v-8.2h6.2c2.2 3.3 13.9 11.4 20 11.4 6.8 0 12.2-5.5 12.2-12.2s-5.4-12.2-12.2-12.2zM343 407c-6.1 0-17.8 8.2-20 11.4h-6.2v-1.1c.6-11.2 7.2-20.7 16.9-25.1h-35.4c9.7 4.4 16.3 13.9 16.9 25.1v1.1H309c-2.2-3.3-13.9-11.4-20-11.4-6.7 0-12.2 5.4-12.2 12.2 0 6.7 5.4 12.2 12.2 12.2 6.1 0 17.8-8.2 20-11.4h6.2v8.1c-3.3 2.2-11.4 13.9-11.4 20 0 6.7 5.5 12.2 12.2 12.2s12.2-5.4 12.2-12.2c0-6.1-8.2-17.8-11.4-20v-8.2h6.2c2.2 3.3 13.9 11.4 20 11.4 6.8 0 12.2-5.4 12.2-12.1S349.8 407 343 407zm0-326.3c-6.1 0-17.8 8.1-20 11.4h-6.2v-8.2c3.2-2.2 11.4-13.9 11.4-20 0-6.8-5.5-12.2-12.2-12.2s-12.2 5.5-12.2 12.2c0 6.1 8.1 17.8 11.4 20V92H309c-2.2-3.2-13.9-11.4-20-11.4-6.8 0-12.2 5.5-12.2 12.2 0 6.8 5.5 12.2 12.2 12.2 6.1 0 17.8-8.1 20-11.4h6.2v1.1c-.6 11.2-7.2 20.7-16.9 25.1h35.4c-9.7-4.4-16.3-13.9-16.9-25.1v-1.1h6.2c2.2 3.2 13.9 11.4 20 11.4 6.8 0 12.2-5.5 12.2-12.2s-5.4-12.1-12.2-12.1zm0 113.4c-6.1 0-17.8 8.1-20 11.4h-6.2v-8.2c3.2-2.2 11.4-13.9 11.4-20 0-6.8-5.5-12.2-12.2-12.2s-12.2 5.5-12.2 12.2c0 6.1 8.1 17.8 11.4 20v8.2H309c-2.2-3.2-13.9-11.4-20-11.4-6.8 0-12.2 5.5-12.2 12.2 0 6.8 5.5 12.2 12.2 12.2 6.1 0 17.8-8.1 20-11.4h6.2v1.1c-.6 11.2-7.2 20.7-16.9 25.1h35.4c-9.7-4.4-16.3-13.9-16.9-25.1v-1.1h6.2c2.2 3.2 13.9 11.4 20 11.4 6.8 0 12.2-5.5 12.2-12.2s-5.4-12.2-12.2-12.2zm50.6 265.2c0-4.1-1.4-7.3-4.2-9.7-2.8-2.4-6.6-3.6-11.4-3.6s-8.6 1.2-11.4 3.6c-2.8 2.4-4.2 5.6-4.2 9.7 0 2.6.7 4.8 2 6.7s3.1 3.4 5.3 4.4c-2 1-3.5 2.4-4.6 4.2-1.1 1.7-1.7 3.7-1.7 6 0 3.9 1.3 7.1 3.9 9.4 2.6 2.3 6.2 3.5 10.7 3.5s8-1.2 10.7-3.5c2.6-2.2 3.9-5.3 3.9-9.3 0-2.2-.6-4.2-1.7-6-1.1-1.7-2.7-3.1-4.6-4.2 2.2-1.1 4-2.6 5.3-4.5 1.3-1.9 2-4.1 2-6.7zm-20.9 20.9c0-1.8.5-3.3 1.4-4.4 1-1.1 2.3-1.7 4-1.7s3.1.6 4 1.7c.9 1.2 1.4 2.6 1.4 4.5 0 1.8-.5 3.2-1.4 4.3-1 1.1-2.3 1.6-4 1.6s-3-.5-4-1.6-1.4-2.5-1.4-4.4zm11.7-20.1c0 2-.6 3.6-1.7 4.8-1.2 1.2-2.7 1.8-4.7 1.8-1.9 0-3.5-.6-4.7-1.8-1.2-1.2-1.7-2.8-1.7-4.8s.6-3.6 1.7-4.8c1.1-1.2 2.7-1.8 4.8-1.8 2 0 3.5.6 4.7 1.7 1 1.3 1.6 2.9 1.6 4.9zM223 80.7c-6.1 0-17.8 8.1-20 11.4h-6.2v-8.2c3.2-2.2 11.4-13.9 11.4-20 0-6.8-5.5-12.2-12.2-12.2-6.8 0-12.2 5.5-12.2 12.2 0 6.1 8.1 17.8 11.4 20V92H189c-2.2-3.2-13.9-11.4-20-11.4-6.8 0-12.2 5.5-12.2 12.2 0 6.8 5.5 12.2 12.2 12.2 6.1 0 17.8-8.1 20-11.4h6.2v1.1c-.6 11.2-7.2 20.7-16.9 25.1h35.4c-9.7-4.4-16.3-13.9-16.9-25.1v-1.1h6.2c2.2 3.2 13.9 11.4 20 11.4 6.8 0 12.2-5.5 12.2-12.2s-5.4-12.1-12.2-12.1zm120 212.8c-6.1 0-17.8 8.2-20 11.4h-6.2v-1.1c.6-11.2 7.2-20.7 16.9-25.1h-35.4c9.7 4.4 16.3 13.9 16.9 25.1v1.1H309c-2.2-3.3-13.9-11.4-20-11.4-6.7 0-12.2 5.4-12.2 12.2 0 6.7 5.4 12.2 12.2 12.2 6.1 0 17.8-8.2 20-11.4h6.2v8.2c-3.3 2.2-11.4 13.9-11.4 20 0 6.7 5.5 12.2 12.2 12.2s12.2-5.4 12.2-12.2c0-6.1-8.2-17.8-11.4-20v-8.2h6.2c2.2 3.3 13.9 11.4 20 11.4 6.8 0 12.2-5.5 12.2-12.2s-5.4-12.2-12.2-12.2zm-120-99.4c-6.1 0-17.8 8.1-20 11.4h-6.2v-8.2c3.2-2.2 11.4-13.9 11.4-20 0-6.8-5.5-12.2-12.2-12.2-6.8 0-12.2 5.5-12.2 12.2 0 6.1 8.1 17.8 11.4 20v8.2H189c-2.2-3.2-13.9-11.4-20-11.4-6.8 0-12.2 5.5-12.2 12.2 0 6.8 5.5 12.2 12.2 12.2 6.1 0 17.8-8.1 20-11.4h6.2v1.1c-.6 11.2-7.2 20.7-16.9 25.1h35.4c-9.7-4.4-16.3-13.9-16.9-25.1v-1.1h6.2c2.2 3.2 13.9 11.4 20 11.4 6.8 0 12.2-5.5 12.2-12.2s-5.4-12.2-12.2-12.2z"/><path d="M113.6 0c-10.5 0-19 8.5-19 19v474c0 10.5 8.5 19 19 19H256V0H113.6z" opacity=".15" fill="#444"/></svg>