<svg xmlns="http://www.w3.org/2000/svg" viewBox="0 0 512 512" style="enable-background:new 0 0 512 512" xml:space="preserve"><path d="M398.4 0H113.6c-10.5 0-19 8.5-19 19v474c0 10.5 8.5 19 19 19h284.8c10.5 0 19-8.5 19-19V19c0-10.5-8.5-19-19-19z" style="fill:#f4f4f4"/><path d="M387.7 446.4h9.2v35.4l10.9-3.4v7.5l-19.1 6.9h-1v-46.4zm-39.6 19.1c0-6.4 1.3-11.3 4-14.7 2.6-3.4 6.5-5.1 11.6-5.1 5 0 8.9 1.7 11.6 5 2.7 3.3 4 8.1 4.1 14.3v8.5c0 6.5-1.3 11.4-4 14.7-2.7 3.3-6.5 5-11.6 5-5 0-8.9-1.7-11.6-5-2.7-3.3-4-8.1-4.1-14.3v-8.4zm9.2 9.4c0 3.8.5 6.6 1.6 8.4 1 1.7 2.7 2.6 4.9 2.6s3.8-.8 4.8-2.5 1.6-4.3 1.6-7.8v-11.2c0-3.8-.5-6.6-1.5-8.4-1-1.8-2.7-2.7-4.9-2.7s-3.9.9-4.9 2.6c-1 1.8-1.5 4.4-1.6 8.1v10.9zm-233-409.3h-9.2V30.2l-10.9 3.4v-7.5l19.1-6.9h1v46.4zm39.6-19.1c0 6.4-1.3 11.3-4 14.7-2.6 3.4-6.5 5.1-11.6 5.1-5 0-8.9-1.7-11.6-5-2.7-3.3-4-8.1-4.1-14.3v-8.5c0-6.5 1.3-11.4 4-14.7 2.7-3.3 6.5-5 11.6-5 5 0 8.9 1.7 11.6 5 2.7 3.3 4 8.1 4.1 14.3v8.4zm-9.2-9.4c0-3.8-.5-6.6-1.6-8.4-1-1.7-2.7-2.6-4.9-2.6s-3.8.8-4.8 2.5-1.6 4.3-1.6 7.8v11.2c0 3.8.5 6.6 1.5 8.4 1 1.8 2.7 2.7 4.9 2.7s3.9-.9 4.9-2.6c1-1.8 1.5-4.4 1.6-8.1V37.1zm-6.2 52.4c-3.2-1.9-4.6-3-8-6.1-3.7-3.3-6.4-9.1-6.4-9.1s-2.8 5.9-6.4 9.1c-3.4 3-4.9 4.2-8 6.1-.7.4-1.4.9-1.9 1.4-7.3 6.9 3.5 17 16 6.6-.7 5.1-4.1 9.4-8.6 11.5h18c-4.6-2.1-7.9-6.4-8.6-11.5 12.6 10.4 23.3.3 16-6.6-.8-.5-1.4-1-2.1-1.4zm229.9 325c.7-5.1 4.1-9.4 8.6-11.5h-18c4.6 2.1 7.9 6.4 8.6 11.5-12.6-10.4-23.3-.3-16 6.6.6.5 1.2 1 1.9 1.4 3.2 1.9 4.6 3 8 6.1 3.7 3.3 6.4 9.1 6.4 9.1s2.8-5.9 6.4-9.1c3.4-3 4.9-4.2 8-6.1.7-.4 1.4-.9 1.9-1.4 7.5-6.9-3.3-17-15.8-6.6zM221.8 84.6c-.9-.8-1.9-1.6-3-2.2-5-3-7.2-4.8-12.6-9.6-5.8-5.1-10.1-14.4-10.1-14.4s-4.3 9.2-10.1 14.4c-5.4 4.8-7.7 6.6-12.6 9.6-1.1.7-2.1 1.4-3 2.2-11.5 10.8 5.5 26.9 25.2 10.4-1.1 8.1-6.4 14.9-13.6 18.1h28.4c-7.2-3.2-12.5-10-13.6-18.1 19.6 16.5 36.5.5 25-10.4zm120 0c-.9-.8-1.9-1.6-3-2.2-5-3-7.2-4.8-12.6-9.6-5.8-5.1-10.1-14.4-10.1-14.4s-4.3 9.2-10.1 14.4c-5.4 4.8-7.7 6.6-12.6 9.6-1.1.7-2.1 1.4-3 2.2-11.5 10.8 5.5 26.9 25.2 10.4-1.1 8.1-6.4 14.9-13.6 18.1h28.4c-7.2-3.2-12.5-10-13.6-18.1 19.6 16.5 36.5.5 25-10.4zm-60 56.8c-.9-.8-1.9-1.6-3-2.2-5-3-7.2-4.8-12.6-9.6-5.8-5.1-10.1-14.4-10.1-14.4s-4.3 9.2-10.1 14.4c-5.4 4.8-7.7 6.6-12.6 9.6-1.1.7-2.1 1.4-3 2.2-11.5 10.8 5.5 26.9 25.2 10.4-1.1 8.1-6.4 14.9-13.6 18.1h28.4c-7.2-3.2-12.5-10-13.6-18.1 19.6 16.4 36.5.4 25-10.4zm-60 56.7c-.9-.8-1.9-1.6-3-2.2-5-3-7.2-4.8-12.6-9.6-5.8-5.1-10.1-14.4-10.1-14.4s-4.3 9.2-10.1 14.4c-5.4 4.8-7.7 6.6-12.6 9.6-1.1.7-2.1 1.4-3 2.2-11.5 10.8 5.5 26.9 25.2 10.4-1.1 8.1-6.4 14.9-13.6 18.1h28.4c-7.2-3.2-12.5-10-13.6-18.1 19.6 16.5 36.5.4 25-10.4zm120 0c-.9-.8-1.9-1.6-3-2.2-5-3-7.2-4.8-12.6-9.6-5.8-5.1-10.1-14.4-10.1-14.4s-4.3 9.2-10.1 14.4c-5.4 4.8-7.7 6.6-12.6 9.6-1.1.7-2.1 1.4-3 2.2-11.5 10.8 5.5 26.9 25.2 10.4-1.1 8.1-6.4 14.9-13.6 18.1h28.4c-7.2-3.2-12.5-10-13.6-18.1 19.6 16.5 36.5.4 25-10.4zm-51.6 229.3c.9.8 1.9 1.6 3 2.2 5 3 7.2 4.8 12.6 9.6 5.8 5.1 10.1 14.4 10.1 14.4s4.3-9.2 10.1-14.4c5.4-4.8 7.7-6.6 12.6-9.6 1.1-.7 2.1-1.4 3-2.2 11.5-10.8-5.5-26.9-25.2-10.4 1.1-8.1 6.4-14.9 13.6-18.1h-28.4c7.2 3.2 12.5 10 13.6 18.1-19.6-16.5-36.5-.5-25 10.4zm-120 0c.9.8 1.9 1.6 3 2.2 5 3 7.2 4.8 12.6 9.6 5.8 5.1 10.1 14.4 10.1 14.4s4.3-9.2 10.1-14.4c5.4-4.8 7.7-6.6 12.6-9.6 1.1-.7 2.1-1.4 3-2.2 11.5-10.8-5.5-26.9-25.2-10.4 1.1-8.1 6.4-14.9 13.6-18.1h-28.4c7.2 3.2 12.5 10 13.6 18.1-19.6-16.5-36.5-.5-25 10.4zm60-56.8c.9.8 1.9 1.6 3 2.2 5 3 7.2 4.8 12.6 9.6 5.8 5.1 10.1 14.4 10.1 14.4s4.3-9.2 10.1-14.4c5.4-4.8 7.7-6.6 12.6-9.6 1.1-.7 2.1-1.4 3-2.2 11.5-10.8-5.5-26.9-25.2-10.4 1.1-8.1 6.4-14.9 13.6-18.1h-28.4c7.2 3.2 12.5 10 13.6 18.1-19.6-16.4-36.5-.4-25 10.4zm60-56.7c.9.8 1.9 1.6 3 2.2 5 3 7.2 4.8 12.6 9.6 5.8 5.1 10.1 14.4 10.1 14.4s4.3-9.2 10.1-14.4c5.4-4.8 7.7-6.6 12.6-9.6 1.1-.7 2.1-1.4 3-2.2 11.5-10.8-5.5-26.9-25.2-10.4 1.1-8.1 6.4-14.9 13.6-18.1h-28.4c7.2 3.2 12.5 10 13.6 18.1-19.6-16.5-36.5-.4-25 10.4zm-120 0c.9.8 1.9 1.6 3 2.2 5 3 7.2 4.8 12.6 9.6 5.8 5.1 10.1 14.4 10.1 14.4s4.3-9.2 10.1-14.4c5.4-4.8 7.7-6.6 12.6-9.6 1.1-.7 2.1-1.4 3-2.2 11.5-10.8-5.5-26.9-25.2-10.4 1.1-8.1 6.4-14.9 13.6-18.1h-28.4c7.2 3.2 12.5 10 13.6 18.1-19.6-16.5-36.5-.4-25 10.4z" style="fill:#36434f"/><path d="M113.6 0c-10.5 0-19 8.5-19 19v474c0 10.5 8.5 19 19 19H256V0H113.6z" style="opacity:.15;fill:#444"/></svg>