<svg xmlns="http://www.w3.org/2000/svg" viewBox="0 0 512 512" xml:space="preserve"><style>.st1{fill:#cc584c}</style><path d="M398.4 0H113.6c-10.5 0-19 8.5-19 19v474c0 10.5 8.5 19 19 19h284.8c10.5 0 19-8.5 19-19V19c0-10.5-8.5-19-19-19z" fill="#f4f4f4"/><path class="st1" d="M387.7 446.4h9.2v35.4l10.9-3.4v7.5l-19.1 6.9h-1v-46.4zm-39.6 19.1c0-6.4 1.3-11.3 4-14.7 2.6-3.4 6.5-5.1 11.6-5.1 5 0 8.9 1.7 11.6 5 2.7 3.3 4 8.1 4.1 14.3v8.5c0 6.5-1.3 11.4-4 14.7-2.7 3.3-6.5 5-11.6 5-5 0-8.9-1.7-11.6-5-2.7-3.3-4-8.1-4.1-14.3v-8.4zm9.2 9.4c0 3.8.5 6.6 1.6 8.4 1 1.7 2.7 2.6 4.9 2.6s3.8-.8 4.8-2.5 1.6-4.3 1.6-7.8v-11.2c0-3.8-.5-6.6-1.5-8.4-1-1.8-2.7-2.7-4.9-2.7s-3.9.9-4.9 2.6c-1 1.8-1.5 4.4-1.6 8.1v10.9zm-233-409.3h-9.2V30.2l-10.9 3.4v-7.5l19.1-6.9h1v46.4zm39.6-19.1c0 6.4-1.3 11.3-4 14.7-2.6 3.4-6.5 5.1-11.6 5.1-5 0-8.9-1.7-11.6-5-2.7-3.3-4-8.1-4.1-14.3v-8.5c0-6.5 1.3-11.4 4-14.7 2.7-3.3 6.5-5 11.6-5 5 0 8.9 1.7 11.6 5 2.7 3.3 4 8.1 4.1 14.3v8.4zm-9.2-9.4c0-3.8-.5-6.6-1.6-8.4-1-1.7-2.7-2.6-4.9-2.6s-3.8.8-4.8 2.5-1.6 4.3-1.6 7.8v11.2c0 3.8.5 6.6 1.5 8.4 1 1.8 2.7 2.7 4.9 2.7s3.9-.9 4.9-2.6c1-1.8 1.5-4.4 1.6-8.1V37.1zM134 80.3c-12.5-13.7-23.4-.8-16.1 7.9.6.7 1.2 1.2 1.9 1.8 3.1 2.4 4.5 3.8 7.9 7.6 3.6 4.1 6.3 11.4 6.3 11.4s2.7-7.4 6.3-11.4c3.4-3.8 4.8-5.2 7.9-7.6.7-.5 1.3-1.1 1.9-1.8 7.3-8.7-3.6-21.7-16.1-7.9zm244 351.4c-12.5 13.7-23.4.8-16.1-7.9.6-.7 1.2-1.2 1.9-1.8 3.1-2.4 4.5-3.8 7.9-7.6 3.6-4.1 6.3-11.4 6.3-11.4s2.7 7.4 6.3 11.4c3.4 3.8 4.8 5.2 7.9 7.6.7.5 1.3 1.1 1.9 1.8 7.3 8.7-3.6 21.7-16.1 7.9z"/><path class="st1" d="M196 64.7c-23.2-25.5-43.4-1.5-29.9 14.6 1 1.2 2.2 2.3 3.5 3.3 5.8 4.4 8.4 7.1 14.7 14.1C191 104.4 196 118 196 118s5-13.6 11.8-21.2c6.3-7.1 8.9-9.7 14.7-14.1 1.3-1 2.5-2.1 3.5-3.3 13.4-16.1-6.8-40.1-30-14.7zm120 0c-23.2-25.5-43.4-1.5-29.9 14.6 1 1.2 2.2 2.3 3.5 3.3 5.8 4.4 8.4 7.1 14.7 14.1C311 104.4 316 118 316 118s5-13.6 11.8-21.2c6.3-7.1 8.9-9.7 14.7-14.1 1.3-1 2.5-2.1 3.5-3.3 13.4-16.1-6.8-40.1-30-14.7zm-60 56.8c-23.2-25.5-43.4-1.5-29.9 14.6 1 1.2 2.2 2.3 3.5 3.3 5.8 4.4 8.4 7.1 14.7 14.1 6.7 7.6 11.8 21.2 11.8 21.2s5-13.6 11.8-21.2c6.3-7.1 8.9-9.7 14.7-14.1 1.3-1 2.5-2.1 3.5-3.3 13.3-16.1-6.9-40.1-30.1-14.6zm-60 56.7c-23.2-25.5-43.4-1.5-29.9 14.6 1 1.2 2.2 2.3 3.5 3.3 5.8 4.4 8.4 7.1 14.7 14.1 6.7 7.6 11.8 21.2 11.8 21.2s5-13.6 11.8-21.2c6.3-7.1 8.9-9.7 14.7-14.1 1.3-1 2.5-2.1 3.5-3.3 13.3-16.1-6.9-40.1-30.1-14.6zm120 0c-23.2-25.5-43.4-1.5-29.9 14.6 1 1.2 2.2 2.3 3.5 3.3 5.8 4.4 8.4 7.1 14.7 14.1 6.7 7.6 11.8 21.2 11.8 21.2s5-13.6 11.8-21.2c6.3-7.1 8.9-9.7 14.7-14.1 1.3-1 2.5-2.1 3.5-3.3 13.3-16.1-6.9-40.1-30.1-14.6zM196 447.3c-23.2 25.5-43.4 1.5-29.9-14.6 1-1.2 2.2-2.3 3.5-3.3 5.8-4.4 8.4-7.1 14.7-14.1C191 407.6 196 394 196 394s5 13.6 11.8 21.2c6.3 7.1 8.9 9.7 14.7 14.1 1.3 1 2.5 2.1 3.5 3.3 13.4 16.1-6.8 40.1-30 14.7zm120 0c-23.2 25.5-43.4 1.5-29.9-14.6 1-1.2 2.2-2.3 3.5-3.3 5.8-4.4 8.4-7.1 14.7-14.1C311 407.6 316 394 316 394s5 13.6 11.8 21.2c6.3 7.1 8.9 9.7 14.7 14.1 1.3 1 2.5 2.1 3.5 3.3 13.4 16.1-6.8 40.1-30 14.7zM196 333.8c-23.2 25.5-43.4 1.5-29.9-14.6 1-1.2 2.2-2.3 3.5-3.3 5.8-4.4 8.4-7.1 14.7-14.1 6.7-7.6 11.8-21.2 11.8-21.2s5 13.6 11.8 21.2c6.3 7.1 8.9 9.7 14.7 14.1 1.3 1 2.5 2.1 3.5 3.3 13.3 16.1-6.9 40.1-30.1 14.6zm120 0c-23.2 25.5-43.4 1.5-29.9-14.6 1-1.2 2.2-2.3 3.5-3.3 5.8-4.4 8.4-7.1 14.7-14.1 6.7-7.6 11.8-21.2 11.8-21.2s5 13.6 11.8 21.2c6.3 7.1 8.9 9.7 14.7 14.1 1.3 1 2.5 2.1 3.5 3.3 13.3 16.1-6.9 40.1-30.1 14.6zm-60 56.7c-23.2 25.5-43.4 1.5-29.9-14.6 1-1.2 2.2-2.3 3.5-3.3 5.8-4.4 8.4-7.1 14.7-14.1 6.7-7.6 11.8-21.2 11.8-21.2s5 13.6 11.8 21.2c6.3 7.1 8.9 9.7 14.7 14.1 1.3 1 2.5 2.1 3.5 3.3 13.3 16.1-6.9 40.1-30.1 14.6z"/><path d="M113.6 0c-10.5 0-19 8.5-19 19v474c0 10.5 8.5 19 19 19H256V0H113.6z" opacity=".15" fill="#444"/></svg>