<svg xmlns="http://www.w3.org/2000/svg" viewBox="0 0 512 512" xml:space="preserve"><path d="M398.4 0H113.6c-10.5 0-19 8.5-19 19v474c0 10.5 8.5 19 19 19h284.8c10.5 0 19-8.5 19-19V19c0-10.5-8.5-19-19-19z" fill="#f4f4f4"/><path d="M116.6 91.6c7.2 4.1 13.3 10.1 17.4 17.4 4.1-7.2 10.1-13.3 17.4-17.4-3.5-2-6.7-4.4-9.6-7.2-3-3-5.7-6.4-7.8-10.2a45.45 45.45 0 0 1-17.4 17.4zm278.8 328.8c-3.5-2-6.7-4.4-9.6-7.2-3-3-5.7-6.4-7.8-10.2-4.1 7.2-10.1 13.3-17.4 17.4 7.2 4.1 13.3 10.1 17.4 17.4 4.1-7.3 10.1-13.3 17.4-17.4zM156.8 86c16.4 9.3 29.9 22.9 39.2 39.2 9.3-16.4 22.9-29.9 39.2-39.2-7.8-4.4-14.9-9.8-21.3-16-7-6.8-13.1-14.7-17.9-23.2-9.3 16.3-22.9 29.9-39.2 39.2zm120 0c16.4 9.3 29.9 22.9 39.2 39.2 9.3-16.4 22.9-29.9 39.2-39.2-7.8-4.4-14.9-9.8-21.2-15.9-7-6.8-13.1-14.7-18-23.3-9.3 16.3-22.9 29.9-39.2 39.2zm-120 120c16.4 9.3 29.9 22.9 39.2 39.2 9.3-16.4 22.9-29.9 39.2-39.2-8-4.5-15.3-10.1-21.8-16.5-6.8-6.7-12.7-14.4-17.4-22.7-9.3 16.3-22.9 29.9-39.2 39.2zm120 0c16.4 9.3 29.9 22.9 39.2 39.2 9.3-16.4 22.9-29.9 39.2-39.2-7.7-4.4-14.8-9.7-21.2-15.9-7.1-6.9-13.2-14.7-18.1-23.4-9.2 16.4-22.8 30-39.1 39.3zm-120 100c16.4 9.3 29.9 22.9 39.2 39.2 9.3-16.4 22.9-29.9 39.2-39.2-8.5-4.8-16.2-10.7-22.9-17.6-6.3-6.4-11.8-13.7-16.3-21.6-9.3 16.3-22.9 29.9-39.2 39.2zm120 0c16.4 9.3 29.9 22.9 39.2 39.2 9.3-16.4 22.9-29.9 39.2-39.2-8.4-4.8-16.1-10.7-22.9-17.6-6.3-6.5-11.9-13.7-16.3-21.6-9.3 16.3-22.9 29.9-39.2 39.2zm-120 120c16.4 9.3 29.9 22.9 39.2 39.2 9.3-16.4 22.9-29.9 39.2-39.2-8.8-5-16.8-11.2-23.7-18.5-6-6.2-11.2-13.2-15.5-20.8-9.3 16.4-22.9 30-39.2 39.3zm120 0c16.4 9.3 29.9 22.9 39.2 39.2 9.3-16.4 22.9-29.9 39.2-39.2-7.2-4.1-13.9-9-19.9-14.7-7.6-7.1-14.1-15.4-19.3-24.5-9.3 16.3-22.9 29.9-39.2 39.2zM148.6 31.6c0 2.2-.6 4.2-1.7 6-1.1 1.7-2.7 3.1-4.6 4.2 2.2 1.1 4 2.6 5.3 4.5 1.3 1.9 2 4.1 2 6.7 0 4.1-1.4 7.3-4.2 9.7-2.8 2.4-6.6 3.6-11.4 3.6-4.8 0-8.6-1.2-11.4-3.6-2.8-2.4-4.2-5.6-4.2-9.7 0-2.6.7-4.8 2-6.7 1.3-1.9 3.1-3.4 5.3-4.4-2-1-3.5-2.4-4.6-4.2-1.1-1.7-1.7-3.7-1.7-6 0-3.9 1.3-7.1 3.9-9.4 2.6-2.3 6.2-3.5 10.7-3.5 4.5 0 8 1.2 10.7 3.5 2.6 2.2 3.9 5.3 3.9 9.3zm-8.2 20.6c0-2-.6-3.6-1.7-4.8-1.2-1.2-2.7-1.8-4.7-1.8-1.9 0-3.5.6-4.7 1.8-1.2 1.2-1.7 2.8-1.7 4.8s.6 3.6 1.7 4.8 2.7 1.8 4.8 1.8c2 0 3.5-.6 4.7-1.7 1-1.3 1.6-2.9 1.6-4.9zm-.9-20.2c0-1.8-.5-3.2-1.4-4.3-1-1.1-2.3-1.6-4-1.6-1.7 0-3 .5-4 1.6s-1.4 2.5-1.4 4.4c0 1.8.5 3.3 1.4 4.4 1 1.1 2.3 1.7 4 1.7 1.7 0 3.1-.6 4-1.7.9-1.2 1.4-2.6 1.4-4.5zm249.2 457.9c-2.6 2.3-6.2 3.5-10.7 3.5-4.5 0-8.1-1.2-10.7-3.5-2.6-2.3-3.9-5.5-3.9-9.4 0-2.2.6-4.2 1.7-6 1.1-1.7 2.7-3.1 4.6-4.2-2.2-1.1-4-2.5-5.3-4.4-1.3-1.9-2-4.1-2-6.7 0-4.1 1.4-7.3 4.2-9.7 2.8-2.4 6.6-3.6 11.4-3.6 4.8 0 8.6 1.2 11.4 3.6 2.8 2.4 4.2 5.6 4.2 9.7 0 2.6-.7 4.8-2 6.7-1.3 1.9-3.1 3.4-5.3 4.5 2 1 3.5 2.4 4.6 4.2 1.1 1.7 1.7 3.7 1.7 6 0 3.8-1.3 6.9-3.9 9.3zm-6-34.9c-1.1-1.2-2.7-1.7-4.7-1.7s-3.6.6-4.8 1.8-1.7 2.8-1.7 4.8.6 3.6 1.7 4.8c1.2 1.2 2.7 1.8 4.7 1.8s3.5-.6 4.7-1.8c1.2-1.2 1.7-2.8 1.7-4.8.1-2.1-.5-3.7-1.6-4.9zm-.7 20.5c-.9-1.1-2.3-1.7-4-1.7-1.7 0-3.1.6-4 1.7-1 1.1-1.4 2.6-1.4 4.4 0 1.9.5 3.3 1.4 4.4 1 1.1 2.3 1.6 4 1.6 1.7 0 3.1-.5 4-1.6 1-1.1 1.4-2.5 1.4-4.3.1-1.9-.4-3.3-1.4-4.5z" fill="#cc584c"/><path d="M113.6 0c-10.5 0-19 8.5-19 19v474c0 10.5 8.5 19 19 19H256V0H113.6z" opacity=".15" fill="#444"/></svg>