<svg version="1.1" xmlns="http://www.w3.org/2000/svg" x="0" y="0" viewBox="0 0 512 512" xml:space="preserve"><path d="M333.2 91.1c-2.1 5.8-3.2 12-3.2 18.5 0 5.3.8 10.4 2.2 15.2L286 108c9.5-6.3 16.9-15.6 20.8-26.5l26.4 9.6zm-225.6 222l-8.5-48.4c-7.8 8.2-18.1 13.9-29.7 15.9l4.9 27.7c3-.5 6.2-.8 9.4-.8 8.5 0 16.7 2 23.9 5.6zM378 163.2l24.6 42.6c4.6-10.6 12.6-19.4 22.5-25.1L411 156.3c-7.9 4.6-17.2 7.2-27 7.2-2.1 0-4.1-.1-6-.3zm-268.5 42.6l24.6-42.6c-2 .2-3.9.3-6 .3-9.8 0-19.1-2.6-27-7.2L87 180.7c9.9 5.7 17.8 14.5 22.5 25.1zm72.6-96.3c0 5.3-.8 10.4-2.2 15.2l46.2-16.8c-9.5-6.3-16.9-15.6-20.8-26.5L178.9 91c2 5.8 3.2 12.1 3.2 18.5zm-6.9 287.1L137.5 365c-.7 11.9-5.3 22.7-12.5 31.3l21.6 18.1c7.3-8.8 17.2-15.1 28.6-17.8zm237.7-131.9l-8.5 48.4c7.2-3.6 15.4-5.6 24-5.6 3.2 0 6.3.3 9.4.8l4.9-27.7c-11.7-2-22-7.7-29.8-15.9zM374.5 365l-37.7 31.6c11.4 2.8 21.3 9.1 28.6 17.8l21.6-18.1c-7.2-8.6-11.8-19.5-12.5-31.3zm-104.4 84c0-12 3.9-23 10.5-32h-49.2c6.6 9 10.5 20 10.5 32h28.2z" fill="#36434f"/><path d="M324.1 421c15.4 0 28 12.6 28 28s-12.6 28-28 28-28-12.6-28-28 12.5-28 28-28m0-32c-33.1 0-60 26.9-60 60s26.9 60 60 60 60-26.9 60-60-26.9-60-60-60zm104.3-55.5c15.4 0 28 12.6 28 28s-12.6 28-28 28-28-12.6-28-28 12.5-28 28-28m0-32c-33.1 0-60 26.9-60 60s26.9 60 60 60 60-26.9 60-60-26.9-60-60-60zm-300.3-220c15.4 0 28 12.6 28 28s-12.6 28-28 28-28-12.6-28-28 12.5-28 28-28m0-32c-33.1 0-60 26.9-60 60s26.9 60 60 60 60-26.9 60-60-26.9-60-60-60zM452 199.4c15.4 0 28 12.6 28 28s-12.6 28-28 28-28-12.6-28-28 12.6-28 28-28m0-32c-33.1 0-60 26.9-60 60s26.9 60 60 60 60-26.9 60-60-26.9-60-60-60zm-68.1-85.9c15.4 0 28 12.6 28 28s-12.6 28-28 28-28-12.6-28-28 12.6-28 28-28m0-32c-33.1 0-60 26.9-60 60s26.9 60 60 60 60-26.9 60-60-26.8-60-60-60zM187.9 421c15.4 0 28 12.6 28 28s-12.6 28-28 28-28-12.6-28-28 12.6-28 28-28m0-32c-33.1 0-60 26.9-60 60s26.9 60 60 60 60-26.9 60-60-26.8-60-60-60zM256 35c15.4 0 28 12.6 28 28s-12.6 28-28 28-28-12.6-28-28 12.6-28 28-28m0-32c-33.1 0-60 26.9-60 60s26.9 60 60 60 60-26.9 60-60-26.9-60-60-60zM60 199.4c15.4 0 28 12.6 28 28s-12.6 28-28 28-28-12.6-28-28 12.6-28 28-28m0-32c-33.1 0-60 26.9-60 60s26.9 60 60 60 60-26.9 60-60-26.9-60-60-60zm23.6 166.1c15.4 0 28 12.6 28 28s-12.6 28-28 28-28-12.6-28-28 12.6-28 28-28m0-32c-33.1 0-60 26.9-60 60s26.9 60 60 60 60-26.9 60-60-26.8-60-60-60z" fill="#4caf50"/></svg>