<svg version="1.1" xmlns="http://www.w3.org/2000/svg" x="0" y="0" viewBox="0 0 512 512" xml:space="preserve"><path d="M240 .5C154 5.8 79.4 53.6 37.1 123.2L240 229.5V.5z" fill="#eec646"/><path d="M388 36.7C349.5 13.4 304.3 0 256 0v227.8L388 36.7z" fill="#4caf50"/><path d="M266 243.2l1.9 2.2 169.8 190.8c46-46.3 74.3-109.9 74.3-180.2 0-87.3-43.7-164.4-110.5-210.6L265.2 242.7l.8.5z" fill="#79b1d1"/><path d="M426 447L256 256 29.2 137.1C10.6 172.6 0 213.1 0 256c0 141.4 114.6 256 256 256 65.3 0 125-24.5 170.2-64.8l-.2-.2z" fill="#cc584c"/></svg>