<svg version="1.1" id="icon" xmlns="http://www.w3.org/2000/svg" x="0" y="0" viewBox="0 0 512 512" style="enable-background:new 0 0 512 512" xml:space="preserve"><style type="text/css">.st0{fill:#bbb}.st1{fill:#122a3a}.st2{fill:#dbdddf}</style><path class="st0" d="M285 420h-58V256c0-8.8 7.2-16 16-16h26c8.8 0 16 7.2 16 16v164z"/><path class="st1" d="M363 447H149v-25c0-4.4 3.6-8 8-8h198c4.4 0 8 3.6 8 8v25z"/><path class="st0" d="M383 475H129v-35c0-4.4 3.6-8 8-8h238c4.4 0 8 3.6 8 8v35z"/><path class="st2" d="M415.5 512h-319v-49c0-4.4 3.6-8 8-8h303c4.4 0 8 3.6 8 8v49z"/><path d="M285 261c0-2.7-.7-5.2-1.9-7.5L227 272.9v16.9l58-20V261z" style="fill:#999"/><path class="st0" d="m213.9 280.8 85.1-29.3-13-37.8-85.2 29.3-7.3-21.3c-.7-2.1-3-3.2-5.1-2.5l-12.8 4.4c-3.2 1.1-5.7 3.4-7.1 6.5-6.1 14-7.2 30.2-1.8 45.7s16.2 27.7 29.6 34.9c2.9 1.6 6.4 1.9 9.6.8l12.8-4.4c2.1-.7 3.2-3 2.5-5.1l-7.3-21.2z"/><path d="M239.9 250.2c.1.1.1.3.2.4.1.1.1.3.1.4 34 98.6 147.9 183.6 188.1 170.3l-72.5-210.6L283.3.2c-39.9 14.3-77.4 151.4-43.4 250z" style="fill:#b0b0b0"/><path class="st0" d="M280 236.4c.1.1.1.3.2.4.1.1.1.3.2.4 39.8 115.6 126.5 190.7 148 184.1l-72.5-210.6L283.3.2c-21 8.1-43.1 120.6-3.3 236.2z"/><ellipse transform="rotate(-19.003 355.905 210.302)" class="st2" cx="355.9" cy="210.3" rx="17.8" ry="222.3"/><path class="st1" d="m475.4 164.9-24.3 8.4-164.2-46.9c-2.1-.6-4.3.6-4.9 2.7s.6 4.3 2.7 4.9l133.5 38.1-3.2 13.5-98.5 33.9c-2.1.7-3.2 3-2.5 5.1s3 3.2 5.1 2.5l98.5-33.9 10.8 8.6-81.8 112.3c-1.3 1.8-.9 4.3.9 5.6 1.1.8 2.5 1 3.7.5.7-.3 1.4-.7 1.9-1.4l100.5-138 24.3-8.4c2.1-.7 3.2-3 2.5-5.1s-2.9-3.1-5-2.4z"/><path class="st0" d="M339.1 216.1C299.5 101.1 274.8 5.2 283.3.2c-21 8.1-43.1 120.6-3.3 236.2.1.1.1.3.2.4.1.1.1.3.2.4 39.8 115.6 126.5 190.7 148 184.1l-.3-.9c-9.9 1.5-49.5-89.4-89-204.3z"/><path d="M240.1 250.7c-.1-.1-.1-.3-.2-.4-2.1-6.1-3.9-12.4-5.5-18.8L200.8 243l-7.3-21.3c-.7-2.1-3-3.2-5.1-2.5l-12.8 4.4c-3.2 1.1-5.7 3.4-7.1 6.5-6.1 14-7.2 30.2-1.8 45.7s16.2 27.7 29.6 34.9c2.9 1.6 6.4 1.9 9.6.8l12.8-4.4c2.1-.7 3.2-3 2.5-5.1l-7.3-21.3 13.1-4.5V414h-70c-4.4 0-8 3.6-8 8v10h-12c-4.4 0-8 3.6-8 8v15h-24.5c-4.4 0-8 3.6-8 8v49H256V286.6c-6.3-11.5-11.6-23.4-15.8-35.4 0-.2-.1-.4-.1-.5z" style="opacity:.15;fill:#444;enable-background:new"/></svg>