<svg version="1.1" xmlns="http://www.w3.org/2000/svg" x="0" y="0" viewBox="0 0 512 512" xml:space="preserve"><style type="text/css">.st0{fill:#bbb}.st1{fill:#dbdddf}.st2{fill:#122a3a}.st3{fill:#f4f4f4}.st4{fill:#a5a5a5}</style><path class="st0" d="M156.6 414.8h199.1v40.3H156.6z"/><path class="st1" d="M134.1 408.9h245.4v13H134.1z"/><path class="st1" d="M256.2 320H102.1l42.7 94.8h222.8l42.7-94.8z"/><path class="st0" d="M384.2 421.9h65.2v10.7h-65.2z"/><circle class="st2" cx="448.8" cy="428.4" r="19.6"/><circle class="st3" cx="448.8" cy="428.4" r="6.8"/><path class="st0" d="M402 416h19v39.1h-19z"/><path class="st2" d="M138.2 439.7h48.6v23.7h-48.6zm6.6-17.8h35.6v17.8h-35.6z"/><circle class="st1" cx="114.5" cy="475.8" r="36.2"/><circle class="st3" cx="114.5" cy="475.8" r="12.5"/><circle class="st1" cx="210.5" cy="475.8" r="36.2"/><circle class="st3" cx="210.5" cy="475.8" r="12.5"/><path class="st2" d="M326.7 439.7h48.6v23.7h-48.6zm6.5-17.8h35.6v17.8h-35.6z"/><circle class="st1" cx="303" cy="475.8" r="36.2"/><circle class="st3" cx="303" cy="475.8" r="12.5"/><circle class="st1" cx="399" cy="475.8" r="36.2"/><circle class="st3" cx="399" cy="475.8" r="12.5"/><circle class="st2" cx="256.2" cy="349.6" r="8.3"/><path class="st4" d="M125.8 297.5H73.6v9.4l45.1 9.5zm254.8 0h52.2v9.4l-45 9.5z"/><path class="st2" d="M256.2 271.4c85.1 0 154.1 21.8 154.1 48.6H102.1c0-26.9 69-48.6 154.1-48.6zm181.368 16.875L221.01 6.222l7.535-5.785 216.56 282.052z"/><path class="st2" d="M351.8 130C292 52.1 236.8-5.9 228.5.5l216.5 282c8.4-6.3-33.4-74.7-93.2-152.5z"/><circle class="st4" cx="436.5" cy="293.9" r="5.9"/><path d="M246.7 475.8c0-7.7-2.4-14.9-6.6-20.7H256V271.4c-59.3 0-110.7 10.6-136.4 26.1h-46v9.5l29.9 6.3c-1 2.2-1.5 4.5-1.5 6.7l40 88.9h-8v13h10.7v17.8h-6.5v8.9c-6.3-5.5-14.6-8.9-23.7-8.9-20 0-36.2 16.2-36.2 36.2S94.6 512 114.5 512s36.2-16.2 36.2-36.2c0-4.4-.8-8.6-2.2-12.4h28.1c-1.4 3.9-2.2 8.1-2.2 12.4 0 20 16.2 36.2 36.2 36.2s36.1-16.2 36.1-36.2z" opacity=".15" fill="#444"/></svg>