<svg version="1.1" xmlns="http://www.w3.org/2000/svg" x="0" y="0" viewBox="0 0 512 512" xml:space="preserve"><path d="M122 256c0-35.8 13.9-69.4 39.2-94.8 25.3-25.3 59-39.2 94.8-39.2s69.4 13.9 94.8 39.2c25.3 25.3 39.2 59 39.2 94.8s-13.9 69.4-39.2 94.8c-25.3 25.3-59 39.2-94.8 39.2s-69.4-13.9-94.8-39.2c-25.3-25.4-39.2-59-39.2-94.8z" fill="#ffbe27"/><path d="M256 106c10 0 19.8 1 29.3 2.9L256 0l-29.3 108.9c9.5-1.9 19.3-2.9 29.3-2.9zm-124.7 66.6L75 75l97.7 56.3c-16.4 10.9-30.5 25-41.4 41.3zm41.4-41.4l6-61.9 48 39.5c-19.6 4-37.9 11.7-54 22.4zm-63.8 95.5l-39.5-48 61.9-6v.1c-10.8 16-18.5 34.3-22.4 53.9zm176.4-117.8l48-39.5 6 61.9h-.1c-16-10.8-34.3-18.5-53.9-22.4zm95.5 63.8l61.9 6-39.5 48c-4-19.6-11.7-37.9-22.4-54zM437 75l-56.3 97.7c-10.9-16.3-25-30.4-41.3-41.3L437 75zm-33.9 151.7L512 256l-108.9 29.3c1.9-9.5 2.9-19.2 2.9-29.3s-1-19.8-2.9-29.3zm-294.2 58.6L0 256l108.9-29.3C107 236.2 106 246 106 256s1 19.8 2.9 29.3zm271.8 54.1L437 437l-97.7-56.3c16.4-10.9 30.5-25 41.4-41.3zm-249.5-.1l-61.9-6 39.5-48c4 19.6 11.7 37.9 22.4 54zm311.4-6l-61.9 6v-.1c10.8-16.1 18.5-34.4 22.4-54l39.5 48.1zm-103.3 47.5l-6 61.9-48-39.5c19.6-4 37.9-11.7 54-22.4zm-166.7-.1L75 437l56.3-97.7c10.9 16.4 25 30.5 41.3 41.4zm112.7 22.4L256 512l-29.3-108.9c9.5 1.9 19.2 2.9 29.3 2.9s19.8-1 29.3-2.9zm-58.6 0l-48 39.5-6-61.9h.1c16 10.8 34.3 18.5 53.9 22.4z" fill="#ffa000"/></svg>