<svg version="1.1" xmlns="http://www.w3.org/2000/svg" x="0" y="0" viewBox="0 0 512 512" xml:space="preserve"><style type="text/css">.st1{fill:#f4f4f4}</style><circle cx="256" cy="256" r="256" fill="#cc584c"/><path class="st1" d="M264 269h-16c-8.8 0-16-7.2-16-16V83c0-8.8 7.2-16 16-16h16c8.8 0 16 7.2 16 16v170c0 8.8-7.2 16-16 16z"/><path class="st1" d="M316 121.7v25.4c0 9.3 4 18.3 11.1 24.3 4.3 3.6 8.3 7.5 12 11.8 17.1 19.4 26.8 44.4 27.3 70.3.7 31.1-11.4 60.4-33.8 82-20.2 19.5-47.2 30.6-75.2 31-30.6.4-59.3-11.5-80.7-33.4-19.8-20.3-31-47.6-31.3-76-.3-29.9 11.2-58.1 32.4-79.3 2.2-2.2 4.5-4.3 6.8-6.3 7.2-6.1 11.3-15 11.3-24.4v-25.5c0-6-6.3-9.8-11.7-7.1-51.6 26.2-87 79.8-86.8 141.7.2 87.5 71 158.2 158.5 158.2s158.5-71 158.5-158.5c0-61.8-35.4-115.3-86.9-141.4-5.2-2.6-11.5 1.3-11.5 7.2z"/><path d="M0 256c0 141.4 114.6 256 256 256V0C114.6 0 0 114.6 0 256z" opacity=".15" fill="#444"/></svg>