<?xml version="1.0" encoding="utf-8"?>
<!-- Generator: Adobe Illustrator 22.1.0, SVG Export Plug-In . SVG Version: 6.00 Build 0)  -->
<svg version="1.1" id="icon" xmlns="http://www.w3.org/2000/svg" xmlns:xlink="http://www.w3.org/1999/xlink" x="0px" y="0px"
	 viewBox="0 0 512 512" style="enable-background:new 0 0 512 512;" xml:space="preserve">
<style type="text/css">
	.st0{fill:#CC584C;}
	.st1{fill:#E0AC7E;}
	.st2{fill:#36434F;}
	.st3{fill:#DDDDDD;}
	.st4{opacity:0.15;fill:#444444;enable-background:new    ;}
</style>
<path class="st0" d="M84,221H53v-37c0-2.2,1.8-4,4-4h23c2.2,0,4,1.8,4,4V221z"/>
<path class="st0" d="M277.7,213.7l-0.8-0.8c-1.5-1.5-2.3-3.5-2.3-5.7v-11.3c0-1.2,0.3-2.5,0.8-3.6l1.9-3.9c0.3-0.7-0.2-1.4-0.9-1.4
	H262h-3h-14.4c-0.7,0-1.2,0.8-0.9,1.4l1.9,3.9c0.6,1.1,0.8,2.3,0.8,3.6v11.3c0,2.1-0.8,4.2-2.3,5.7l-0.8,0.8
	c-1.5,1.5-2.3,3.5-2.3,5.7v2.7h18h3h18v-2.7C280,217.2,279.2,215.2,277.7,213.7z"/>
<ellipse class="st0" cx="260.5" cy="187.5" rx="14" ry="12.5"/>
<path class="st0" d="M260.5,173c-1.1,0-2-0.9-2-2v-3c0-1.1,0.9-2,2-2s2,0.9,2,2v3C262.5,172.1,261.6,173,260.5,173z"/>
<rect x="259.5" y="172" class="st0" width="2" height="4"/>
<path class="st1" d="M383.8,203.8l-1-1c-1.8-1.8-2.9-4.3-2.9-6.9v-13.8c0-1.5,0.4-3,1-4.4l2.4-4.7c0.4-0.8-0.2-1.8-1.1-1.8h-17.6
	H361h-17.6c-0.9,0-1.5,1-1.1,1.8l2.4,4.7c0.7,1.4,1,2.9,1,4.4v13.8c0,2.6-1,5.1-2.9,6.9l-1,1c-1.8,1.8-2.9,4.3-2.9,6.9v3.3h22h3.7
	h22v-3.3C386.7,208.1,385.6,205.6,383.8,203.8z"/>
<ellipse class="st1" cx="362.8" cy="171.8" rx="17.1" ry="15.3"/>
<path class="st2" d="M394,180v140h111V180H394z M440.5,245h-36v-47c0-5,8.1-9,18-9s18,4,18,9V245z M494.5,245h-36v-47
	c0-5,8.1-9,18-9s18,4,18,9V245z"/>
<ellipse class="st2" cx="50" cy="256" rx="20" ry="36"/>
<rect x="340" y="292" class="st2" width="57" height="23"/>
<rect x="179" y="310" class="st2" width="326" height="21"/>
<rect x="203" y="286" class="st2" width="10" height="29"/>
<rect x="233" y="286" class="st2" width="10" height="29"/>
<rect x="173" y="286" class="st2" width="10" height="29"/>
<rect x="143" y="286" class="st2" width="10" height="29"/>
<rect x="113" y="286" class="st2" width="10" height="29"/>
<rect x="83" y="286" class="st2" width="10" height="29"/>
<rect x="53" y="286" class="st2" width="10" height="29"/>
<path class="st2" d="M315.3,214.6l-4.5,1.9c-5.8,2.4-11.9,3.6-18.2,3.6H50v72h242.6c6.2,0,12.4,1.2,18.2,3.6l4.5,1.9
	c5.8,2.4,11.9,3.6,18.2,3.6H394v-90h-60.6C327.2,211,321,212.2,315.3,214.6z"/>
<path class="st2" d="M123.8,206.8L121,204v-78.8c0-1.1,0.4-2.1,1.2-2.8l0.2-0.2c0.8-0.8,1.2-1.8,1.2-2.8v-2.7c0-1.1-0.4-2.1-1.2-2.8
	l-0.2-0.2c-0.8-0.8-1.2-1.8-1.2-2.8V109c0-2.2-1.8-4-4-4h-15c-2.2,0-4,1.8-4,4v1.8c0,1.1-0.4,2.1-1.2,2.8l-0.2,0.2
	c-0.8,0.8-1.2,1.8-1.2,2.8v2.7c0,1.1,0.4,2.1,1.2,2.8l0.2,0.2c0.8,0.8,1.2,1.8,1.2,2.8V204l-2.8,2.8c-0.8,0.8-1.2,1.8-1.2,2.8V222h4
	v2h23v-2h4v-12.3C125,208.6,124.6,207.6,123.8,206.8z"/>
<rect x="394" y="267" class="st2" width="111" height="53"/>
<path class="st2" d="M171,344H16c-8.8,0-16-7.2-16-16v-14c0-8.8,7.2-16,16-16h155c8.8,0,16,7.2,16,16v14
	C187,336.8,179.8,344,171,344z"/>
<g>
	<circle class="st0" cx="297.9" cy="321" r="9.6"/>
	<circle class="st3" cx="297.9" cy="321" r="5"/>
	<path class="st0" d="M297.9,279.2c-23.1,0-41.8,18.7-41.8,41.8s18.7,41.8,41.8,41.8s41.8-18.7,41.8-41.8S321.1,279.2,297.9,279.2z
		 M297.9,352.9c-17.6,0-31.9-14.3-31.9-31.9s14.3-31.9,31.9-31.9s31.9,14.3,31.9,31.9S315.5,352.9,297.9,352.9z"/>
	<circle class="st2" cx="297.9" cy="321" r="1.5"/>
	<path class="st0" d="M296.3,281.3h3.3v33.5h-3.3V281.3z M296.3,327.2h3.3v33.5h-3.3V327.2z M276.7,287.5l2.9-1.7l16.7,29l-2.9,1.7
		L276.7,287.5z M299.6,327.2l2.9-1.7l16.7,29l-2.9,1.7L299.6,327.2z M262.7,302.6l1.7-2.9l29,16.7l-1.7,2.9L262.7,302.6z"/>
	<path class="st0" d="M302.5,325.5l1.7-2.9l29,16.7l-1.7,2.9L302.5,325.5z M258.3,319.3h33.5v3.3h-33.5V319.3z M304.1,319.3h33.5
		v3.3h-33.5V319.3z M262.7,339.4l29-16.7l1.7,2.9l-29,16.7L262.7,339.4z M302.5,316.5l29-16.7l1.7,2.9l-29,16.7L302.5,316.5z"/>
	<path class="st0" d="M276.7,354.5l16.7-29l2.9,1.7l-16.7,29L276.7,354.5z M299.6,314.8l16.7-29l2.9,1.7l-16.7,29L299.6,314.8z"/>
	<path class="st3" d="M297.9,278.5c-23.5,0-42.5,19-42.5,42.5s19,42.5,42.5,42.5s42.5-19,42.5-42.5S321.4,278.5,297.9,278.5z
		 M297.9,359.9c-21.4,0-38.8-17.4-38.8-38.8s17.4-38.8,38.8-38.8s38.8,17.4,38.8,38.8S319.4,359.9,297.9,359.9z"/>
	<path class="st3" d="M252.4,321c0-25.1,20.4-45.6,45.6-45.6c25.1,0,45.6,20.4,45.6,45.6h5c0-27.9-22.7-50.6-50.6-50.6
		s-50.6,22.7-50.6,50.6H252.4z"/>
</g>
<g>
	<circle class="st0" cx="439.9" cy="321" r="9.6"/>
	<circle class="st3" cx="439.9" cy="321" r="5"/>
	<path class="st0" d="M439.9,279.2c-23.1,0-41.8,18.7-41.8,41.8s18.7,41.8,41.8,41.8s41.8-18.7,41.8-41.8S463.1,279.2,439.9,279.2z
		 M439.9,352.9c-17.6,0-31.9-14.3-31.9-31.9s14.3-31.9,31.9-31.9s31.9,14.3,31.9,31.9S457.5,352.9,439.9,352.9z"/>
	<circle class="st2" cx="439.9" cy="321" r="1.3"/>
	<path class="st0" d="M438.3,281.3h3.3v33.5h-3.3V281.3z M438.3,327.2h3.3v33.5h-3.3V327.2z M418.7,287.5l2.9-1.7l16.7,29l-2.9,1.7
		L418.7,287.5z M441.6,327.2l2.9-1.7l16.7,29l-2.9,1.7L441.6,327.2z M404.7,302.6l1.7-2.9l29,16.7l-1.7,2.9L404.7,302.6z"/>
	<path class="st0" d="M444.5,325.5l1.7-2.9l29,16.7l-1.7,2.9L444.5,325.5z M400.3,319.3h33.5v3.3h-33.5V319.3z M446.1,319.3h33.5
		v3.3h-33.5V319.3z M404.7,339.4l29-16.7l1.7,2.9l-29,16.7L404.7,339.4z M444.5,316.5l29-16.7l1.7,2.9l-29,16.7L444.5,316.5z"/>
	<path class="st0" d="M418.7,354.5l16.7-29l2.9,1.7l-16.7,29L418.7,354.5z M441.6,314.8l16.7-29l2.9,1.7l-16.7,29L441.6,314.8z"/>
	<path class="st3" d="M439.9,278.5c-23.5,0-42.5,19-42.5,42.5s19,42.5,42.5,42.5s42.5-19,42.5-42.5S463.4,278.5,439.9,278.5z
		 M439.9,359.9c-21.4,0-38.8-17.4-38.8-38.8s17.4-38.8,38.8-38.8s38.8,17.4,38.8,38.8S461.4,359.9,439.9,359.9z"/>
	<path class="st3" d="M394.4,321c0-25.1,20.4-45.6,45.6-45.6c25.1,0,45.6,20.4,45.6,45.6h5c0-27.9-22.7-50.6-50.6-50.6
		s-50.6,22.7-50.6,50.6H394.4z"/>
</g>
<g>
	<path class="st0" d="M146.6,322.7c-11.2,0-20.2,9.1-20.2,20.2c0,11.2,9.1,20.2,20.2,20.2s20.2-9.1,20.2-20.2
		C166.8,331.8,157.7,322.7,146.6,322.7z"/>
	<circle class="st3" cx="146.6" cy="343" r="4"/>
	<circle class="st2" cx="146.6" cy="343" r="1.5"/>
	<path class="st3" d="M146.6,322.4c-11.4,0-20.6,9.2-20.6,20.6s9.2,20.6,20.6,20.6s20.6-9.2,20.6-20.6
		C167.1,331.6,157.9,322.4,146.6,322.4z M146.6,361.7c-10.4,0-18.8-8.4-18.8-18.8s8.4-18.8,18.8-18.8s18.8,8.4,18.8,18.8
		S156.9,361.7,146.6,361.7z"/>
	<path class="st3" d="M124.5,343c0-12.1,9.9-22,22-22s22,9.9,22,22h2.4c0-13.5-11-24.4-24.4-24.4c-13.5,0-24.4,11-24.4,24.4H124.5z"
		/>
</g>
<g>
	<path class="st0" d="M27.4,322.7c-11.2,0-20.2,9.1-20.2,20.2c0,11.2,9.1,20.2,20.2,20.2s20.2-9.1,20.2-20.2
		C47.7,331.8,38.6,322.7,27.4,322.7z"/>
	<circle class="st3" cx="27.4" cy="343" r="4"/>
	<circle class="st2" cx="27.4" cy="343" r="1.5"/>
	<path class="st3" d="M27.4,322.4c-11.4,0-20.6,9.2-20.6,20.6s9.2,20.6,20.6,20.6S48,354.3,48,343C48,331.6,38.8,322.4,27.4,322.4z
		 M27.4,361.7c-10.4,0-18.8-8.4-18.8-18.8s8.4-18.8,18.8-18.8s18.8,8.4,18.8,18.8S37.8,361.7,27.4,361.7z"/>
	<path class="st3" d="M5.4,343c0-12.1,9.9-22,22-22s22,9.9,22,22h2.4c0-13.5-11-24.4-24.4-24.4C14,318.5,3,329.5,3,343H5.4z"/>
</g>
<rect x="387" y="171" class="st0" width="125" height="9"/>
<path class="st1" d="M368,145v-15c0-1.1-0.9-2-2-2h-6c-1.1,0-2,0.9-2,2v15h3.6v2.5h-3.8v2c0,2.3,1.6,4.3,3.8,4.8v3.4h2.4v-3.4
	c2.2-0.5,3.8-2.5,3.8-4.8v-2H364V145H368z"/>
<circle class="st1" cx="173.1" cy="214.6" r="2.4"/>
<path class="st1" d="M185.1,210.4l-2.5-2.9c-1.5-1.7-2.5-3.8-3-6l-1.2-5.8c-0.1-0.6-0.5-1-1.1-1.2l-1.9-0.6l-0.5-4.2
	c-0.1-0.4-0.4-0.7-0.8-0.7H172c-0.4,0-0.8,0.3-0.8,0.7l-0.5,4.2l-1.9,0.6c-0.6,0.2-1,0.7-1.1,1.2l-1.2,5.8c-0.4,2.2-1.5,4.3-3,6
	l-2.5,2.9c-0.3,0.3-0.4,0.7-0.4,1.1v2.8c0,0.4,0.4,0.8,0.8,0.8h23.2c0.4,0,0.8-0.4,0.8-0.8v-2.8
	C185.5,211.1,185.4,210.7,185.1,210.4z M173.1,192.5c-0.6,0-1-0.5-1-1s0.5-1,1-1s1,0.5,1,1S173.7,192.5,173.1,192.5z"/>
<path class="st4" d="M161.1,210.4c-0.1,0.1-0.2,0.2-0.2,0.3h24.4c-0.1-0.1-0.1-0.2-0.2-0.3l-0.5-0.6h-23L161.1,210.4z M165.1,205.5
	c-0.2,0.3-0.4,0.6-0.6,0.9h17.2c-0.2-0.3-0.4-0.6-0.6-0.9H165.1z M163.5,207.6l-0.8,0.9h20.7l-0.8-0.9H163.5z"/>
<path class="st2" d="M164,222c-3.1,0-9-1.5-9-7c0-3.8,3.6-6.4,6.7-8.7c2.1-1.5,4.3-3.1,4.3-4.3c0-1.7-0.4-2.2-0.8-2.9
	c-0.5-0.8-1.2-1.8-1.2-4.1c0-4.9,8.6-5,9-5c0.6,0,1,0.4,1,1s-0.4,1-1,1c-1.8,0-7,0.6-7,3c0,1.7,0.4,2.2,0.8,2.9
	c0.5,0.8,1.2,1.8,1.2,4.1s-2.5,4.1-5.1,6c-2.8,2-5.9,4.2-5.9,7c0,4.9,6.7,5,7,5c0.6,0,1,0.4,1,1S164.6,222,164,222z"/>
</svg>
