<svg version="1.1" xmlns="http://www.w3.org/2000/svg" x="0" y="0" viewBox="0 0 512 512" xml:space="preserve"><style type="text/css">.st0{fill:#36434f}.st1{fill:#121e28}.st2{fill:#cc584c}</style><path class="st0" d="M87.638 364.845l11.05-8.596 78.899 101.425-11.05 8.596z"/><path class="st0" d="M75.37 462.83l-13.65-3.37L166.19 36.11c1.06-4.31-1.57-8.66-5.87-9.72l-51.14-12.62a4.015 4.015 0 01-2.93-4.84l1.45-5.88c.53-2.14 2.7-3.45 4.84-2.93l64.79 15.99c4.31 1.06 6.94 5.42 5.87 9.72l-107.83 437z"/><path class="st1" d="M77.32 463.31l-17.55-4.33a4.021 4.021 0 01-2.94-4.86l35-141.82a4.021 4.021 0 014.86-2.94l17.55 4.33c2.15.53 3.47 2.71 2.94 4.86l-35 141.83a4.003 4.003 0 01-4.86 2.93z"/><path class="st0" d="M140.11 452.44l14.93 19.33c3.03 3.92 7.71 6.22 12.66 6.22h269.61c4.42 0 8-3.58 8-8v-16c0-4.42-3.58-8-8-8H143.27c-3.32.01-5.19 3.82-3.16 6.45z"/><circle class="st0" cx="68.5" cy="462" r="50"/><path class="st2" d="M68.5 497c-19.3 0-35-15.7-35-35s15.7-35 35-35 35 15.7 35 35-15.7 35-35 35zm0-66c-17.09 0-31 13.91-31 31s13.91 31 31 31 31-13.91 31-31-13.91-31-31-31z"/><circle class="st1" cx="68.5" cy="462" r="8"/><path class="st0" d="M93.5 25a2.004 2.004 0 01-.48-3.95l28-7c1.07-.27 2.16.38 2.43 1.46.27 1.07-.38 2.16-1.46 2.43l-28 7c-.17.04-.33.06-.49.06z"/><circle class="st0" cx="443.5" cy="462" r="50"/><path class="st2" d="M443.5 497c-19.3 0-35-15.7-35-35s15.7-35 35-35 35 15.7 35 35-15.7 35-35 35zm0-66c-17.09 0-31 13.91-31 31s13.91 31 31 31 31-13.91 31-31-13.91-31-31-31z"/><circle class="st1" cx="443.5" cy="462" r="8"/></svg>