<svg version="1.1" xmlns="http://www.w3.org/2000/svg" x="0" y="0" viewBox="0 0 512 512" xml:space="preserve"><style type="text/css">.st0{fill:#999}.st1{fill:#36434f}.st2{fill:#bbb}.st3{fill:#ddd}</style><path class="st0" d="M254.4 322.3h3.1v17.2h-3.1z"/><path class="st1" d="M252.4 345H251c-1.1 0-2-.9-2-2v-10c0-1.1.9-2 2-2h1.4c1.1 0 2 .9 2 2v10c0 1.1-.9 2-2 2zm8.6 0h-1.4c-1.1 0-2-.9-2-2v-10c0-1.1.9-2 2-2h1.4c1.1 0 2 .9 2 2v10c0 1.1-.9 2-2 2z"/><path class="st0" d="M258 328h-4c-.6 0-1-.4-1-1v-4h6v4c0 .6-.4 1-1 1z"/><path class="st2" d="M324 312c-1.1 0-2-.9-2-2v-7c0-1.1.9-2 2-2s2 .9 2 2v7c0 1.1-.9 2-2 2zm52-6c-1.1 0-2-.9-2-2v-7c0-1.1.9-2 2-2s2 .9 2 2v7c0 1.1-.9 2-2 2zm54-4c-1.1 0-2-.9-2-2v-7c0-1.1.9-2 2-2s2 .9 2 2v7c0 1.1-.9 2-2 2z"/><path class="st0" d="m303.3 314.7 5.6-9.2-1.8-1-5.4 9.1-8.1-5.4-1.2 1.6 18 12 1.2-1.6zM317 323c-.4 0-.8-.3-1-.7l-5-19c-.1-.5.2-1.1.7-1.2.5-.1 1.1.2 1.2.7l5 19c.1.5-.2 1.1-.7 1.2h-.2z"/><path class="st0" d="M309 303h4v35h-4z"/><path class="st1" d="M307 345h-3c-1.1 0-2-.9-2-2v-14c0-1.1.9-2 2-2h3c1.1 0 2 .9 2 2v14c0 1.1-.9 2-2 2zm11 0h-3c-1.1 0-2-.9-2-2v-14c0-1.1.9-2 2-2h3c1.1 0 2 .9 2 2v14c0 1.1-.9 2-2 2z"/><ellipse class="st0" cx="339" cy="319.5" rx="16" ry="16.5"/><circle class="st1" cx="339" cy="317" r="11"/><circle class="st3" cx="339" cy="317" r="4"/><path class="st0" d="M333 301h12v4h-12z"/><path class="st2" d="m283 297 224-12v5l-177 13-50 10zm-1-18 65.9-8.9c.7-.1 1.4-.3 2.1-.6l.5-.2c1.4-.6 1.1-2.7-.5-2.9l-2.2-.2c-1.9-.2-3.8-.2-5.8 0l-64 5.8 4 7z"/><path class="st2" d="M506.5 299.5c-.8 0-1.5-.7-1.5-1.5v-11.2l4.1-15.2c.2-.8 1-1.3 1.8-1.1.8.2 1.3 1 1.1 1.8l-3.9 14.8V298c-.1.8-.8 1.5-1.6 1.5zM188 312c1.1 0 2-.9 2-2v-7c0-1.1-.9-2-2-2s-2 .9-2 2v7c0 1.1.9 2 2 2zm-52-6c1.1 0 2-.9 2-2v-7c0-1.1-.9-2-2-2s-2 .9-2 2v7c0 1.1.9 2 2 2zm-54-4c1.1 0 2-.9 2-2v-7c0-1.1-.9-2-2-2s-2 .9-2 2v7c0 1.1.9 2 2 2z"/><path class="st0" d="m208.7 314.7-5.6-9.2 1.8-1 5.4 9.1 8.1-5.4 1.2 1.6-18 12-1.2-1.6zM195 323c.4 0 .8-.3 1-.7l5-19c.1-.5-.2-1.1-.7-1.2-.5-.1-1.1.2-1.2.7l-5 19c-.1.5.2 1.1.7 1.2h.2z"/><path class="st0" d="M203 338h-4v-35h4z"/><path class="st1" d="M205 345h3c1.1 0 2-.9 2-2v-14c0-1.1-.9-2-2-2h-3c-1.1 0-2 .9-2 2v14c0 1.1.9 2 2 2zm-11 0h3c1.1 0 2-.9 2-2v-14c0-1.1-.9-2-2-2h-3c-1.1 0-2 .9-2 2v14c0 1.1.9 2 2 2z"/><ellipse class="st0" cx="173" cy="319.5" rx="16" ry="16.5"/><circle class="st1" cx="173" cy="317" r="11"/><circle class="st3" cx="173" cy="317" r="4"/><path class="st0" d="M179 305h-12v-4h12z"/><path class="st2" d="M229 297 5 285v5l177 13 50 10zm1-18-65.9-8.9c-.7-.1-1.4-.3-2.1-.6l-.5-.2c-1.4-.6-1.1-2.7.5-2.9l2.2-.2c1.9-.2 3.8-.2 5.8 0l64 5.8-4 7z"/><path class="st2" d="M5.5 299.5c.8 0 1.5-.7 1.5-1.5v-11.2l-4.1-15.2c-.2-.8-1-1.3-1.8-1.1-.8.2-1.3 1-1.1 1.8l4 14.9V298c0 .8.7 1.5 1.5 1.5zm251-130.5c1.1 1 1.5 1.9 1.8 2.9.3 1 .2 1.9.3 2.9l.3 5.8.5 11.5c.3 7.7.6 15.3.8 23l.3 11.5.3 11.5c.1 7.7.3 15.3.2 23h-10c0-7.7.1-15.3.2-23l.3-11.5.3-11.5c.2-7.7.5-15.3.8-23l.5-11.5.3-5.8c.1-1 0-1.9.3-2.9s.7-1.9 1.8-2.9h1zM227 298h58v18c0 4.4-3.6 8-8 8h-42c-4.4 0-8-3.6-8-8v-18z"/><circle class="st3" cx="256" cy="288.5" r="32"/><path class="st2" d="M270.5 295c0 7.2-6.5 15-14.5 15s-14.5-7.8-14.5-15 6.5-11 14.5-11 14.5 3.8 14.5 11z"/><path class="st1" d="M254 281c-2.9 0-5.7-.1-8.5-.2-.3 0-.5-.3-.5-.6l1.3-6.5c.1-.5.5-.8 1-.8 2.2.1 4.4.1 6.7.2.5 0 1 .4 1 1v6c0 .4-.5.9-1 .9zm-13.1-.5 1.1.1c.5 0 .9-.3 1-.8l1.3-6.5c.1-.3-.2-.6-.5-.6h-.3c-.4 0-.9.3-1 .7l-2.2 6.5c0 .2.3.6.6.6zM238 273l-2.6 6.4c-.1.3.1.7.4.7.5 0 1 .1 1.6.1.5 0 .9-.2 1-.7l2.2-6.5c.1-.3-.1-.6-.4-.7-.4 0-.8 0-1.1-.1-.5.1-.9.4-1.1.8zm19 1v6c0 .6.5 1 1 1 2.9 0 5.7-.1 8.5-.2.3 0 .5-.3.5-.6l-1.3-6.5c-.1-.5-.5-.8-1-.8-2.2.1-4.4.1-6.7.2-.6-.1-1 .3-1 .9zm16-1.6c-.4 0-.8.1-1.1.1-.3 0-.5.3-.4.7l2.2 6.5c.1.4.6.7 1 .7.5 0 1-.1 1.6-.1.3 0 .5-.4.4-.7L274 273c-.2-.4-.6-.7-1-.6zm-5.3.9 1.3 6.5c.1.5.5.8 1 .8l1.1-.1c.3 0 .5-.3.4-.7l-2.2-6.5c-.1-.4-.6-.7-1-.7h-.3c-.2.1-.4.4-.3.7z"/><path d="M256 169h-.5c-1.1 1-1.5 1.9-1.8 2.9-.3 1-.2 1.9-.3 2.9l-.3 5.8-.5 11.5c-.3 7.7-.6 15.3-.8 23l-.3 11.5-.3 11.5c-.1 6.3-.2 12.6-.2 18.9-9.3 1.5-17.3 7-22.1 14.6l-59-5.3c-1.9-.2-3.8-.2-5.8 0l-2.2.2c-1.6.1-1.9 2.3-.5 2.9l.5.2c.7.3 1.4.5 2.1.6l61.5 8.3c-1.1 3.2-1.6 6.6-1.6 10.1 0 2.9.4 5.6 1.1 8.3L6.5 285.1l-3.6-13.5c-.2-.8-1-1.3-1.8-1.1-.8.2-1.3 1-1.1 1.8l4 14.9V298c0 .8.7 1.5 1.5 1.5S7 298.8 7 298v-7.9l73 5.4v4.5c0 1.1.9 2 2 2s2-.9 2-2v-4.2l50 3.7v4.5c0 1.1.9 2 2 2s2-.9 2-2v-4.2l29 2.1v2.3c-5.9 2.4-10 8.4-10 15.3 0 9.1 7.2 16.5 16 16.5s16-7.4 16-16.5c0-2.8-.7-5.4-1.9-7.7.3.1.5.2.9.2 1.1 0 2-.9 2-2v-5.4l8.1 1.6-4.1 15.5c-.1.5.2 1.1.7 1.2h.3c.4 0 .8-.3 1-.7l3-11.5V329c0-1.1-.9-2-2-2h-3c-1.1 0-2 .9-2 2v14c0 1.1.9 2 2 2h3c1.1 0 2-.9 2-2v-5h4v5c0 1.1.9 2 2 2h3c1.1 0 2-.9 2-2v-14c0-1.1-.9-2-2-2h-3c-1.1 0-2 .9-2 2v-8.1l15.8-10.5 8.2 1.6v4c0 4.4 3.6 8 8 8h18v3c0 .6.4 1 1 1h.4v5c0-1.1-.9-2-2-2H251c-1.1 0-2 .9-2 2v10c0 1.1.9 2 2 2h1.4c1.1 0 2-.9 2-2v-3.4h1.6V169zm-70 140.9c-1.8-2.5-4.2-4.5-7-5.7v-1.4l3 .2 4 .8v6.1zm17 8.6v-11.3l1.3.3 4.3 7.2-5.6 3.8zm7.3-4.9L207 308l9 1.8-5.7 3.8z" opacity=".15" fill="#444"/></svg>