<svg version="1.1" xmlns="http://www.w3.org/2000/svg" x="0" y="0" viewBox="0 0 512 512" xml:space="preserve"><style type="text/css">.st0{fill:#7193ad}.st1{fill:#e3920a}.st2{fill:#bbb}.st3{fill:#eec646}.st4{fill:#36434f}.st5{fill:#ddd}.st6{opacity:.15;fill:#444}.st7{fill:#122a3a}</style><path class="st0" d="M427 207h-28v-24c0-1.7 1.3-3 3-3h22c1.7 0 3 1.3 3 3v24zm-26-2h24v-22c0-.6-.4-1-1-1h-22c-.6 0-1 .4-1 1v22zm86 2h-59v-24c0-1.7 1.3-3 3-3h53c1.7 0 3 1.3 3 3v24zm-57-2h55v-22c0-.6-.4-1-1-1h-53c-.6 0-1 .4-1 1v22z"/><path class="st0" d="M400 192.5h26v2h-26zm29 0h57v2h-57z"/><path class="st0" d="M448.3 181h2v25h-2zm19.5 0h2v25h-2zm25.2 27h-2v-22.1c0-1.1.6-2.2 1.6-2.7s2.2-.4 3.1.2l3 2.1c.8.6 1.3 1.5 1.3 2.4v18h-2v-18c0-.3-.2-.6-.4-.8l-3-2.1c-.3-.2-.7-.2-1-.1-.3.2-.5.5-.5.9V208z"/><path class="st1" d="m241.8 296.5 3.9 14.1c1.3 4.6 6.7 6.7 10.7 4l31.9-20.7 19.5-33.1s-18.5-3.9-19.5-2.9-8 14-8 14l-34.8 16.5c-3 1.6-4.6 4.9-3.7 8.1zm1.5-1.5c0-3.3 2.7-6 6-6s6 2.7 6 6-2.7 6-6 6-6-2.7-6-6zm-55.5-6.5L153 272s-7-13-8-14-19.5 2.9-19.5 2.9L145 294l31.9 20.7c4 2.6 9.4.6 10.7-4l3.9-14.1c.9-3.3-.7-6.6-3.7-8.1zM184 301c-3.3 0-6-2.7-6-6s2.7-6 6-6 6 2.7 6 6-2.7 6-6 6zm15-12.7v6c0 .9.7 1.7 1.7 1.7h1.4c.6 0 1.1.3 1.4.8l14.4 23.4c.3.5.8.8 1.4.8h14.2c.9 0 1.6-.7 1.7-1.5l2.7-39.2c.1-1.1-.9-2-2-1.7l-35.5 8.2c-.9.1-1.4.7-1.4 1.5z"/><path class="st1" d="M142 278h56v-18l-42-2z"/><path class="st1" d="m408 302-37 10h-63l-35-29h-70l-24-13h-65l-18-22-84.6-28.2.6-9.8 140-5 167-3-18 35 4 11h15v-38h30l55 75z"/><path class="st2" d="M478 159H314l-42 29 54-2 20.7-22H478z"/><path class="st3" d="M23 186 1.1 210.8H1l-1 1.1 3.1 6.2 8.3 1.6c.5-2.2 1.8-4 3.6-5.1l9.7 1.7c1.4 1.7 2.2 4 1.8 6.3l9.9 1.9c.6-2.5 2.3-4.4 4.5-5.4l4.5.8c1.7 1.7 2.6 4.2 2.2 6.8l9.9 1.9c.6-2.7 2.6-4.8 5.1-5.7l4.6.8c1.3 1.7 1.9 4 1.5 6.3 0 .2-.1.4-.2.7l9.9 1.9c0-.2 0-.4.1-.7.5-2.5 2-4.4 4.1-5.5l3.4.6h1v.1c2.4 1.4 4 4 4 6.9 0 .3 0 .7-.1 1h10.2c0-.3-.1-.7-.1-1 0-3 1.6-5.5 4-6.9v-.1h4v.1c2.4 1.4 4 4 4 6.9 0 .3 0 .7-.1 1h10.2c0-.3-.1-.7-.1-1 0-3 1.6-5.5 4-6.9v-.1h3v.1c2.4 1.4 4 4 4 6.9 0 .3 0 .7-.1 1h10.2c0-.3-.1-.7-.1-1 0-3 1.6-5.5 4-6.9v-.1h3v.1c2.4 1.4 4 4 4 6.9 0 .3 0 .7-.1 1h10.2c0-.3-.1-.7-.1-1 0-3 1.6-5.5 4-6.9v-.1h4v.1c2.4 1.4 4 4 4 6.9 0 .3 0 .7-.1 1h11.2c0-.3-.1-.7-.1-1 0-3 1.6-5.5 4-6.9v-.1h5v.1c2.4 1.4 4 4 4 6.9 0 .3 0 .7-.1 1h11.2c0-.3-.1-.7-.1-1 0-3 1.6-5.5 4-6.9v-.1h5v.1c2.4 1.4 4 4 4 6.9 0 .3 0 .7-.1 1h10.2c0-.3-.1-.7-.1-1 0-3 1.6-5.5 4-6.9v-.1h5v.1c2.4 1.4 4 4 4 6.9 0 .3 0 .7-.1 1h10.2c0-.3-.1-.7-.1-1 0-3 1.6-5.5 4-6.9v-.1h4v.1c2.4 1.4 4 4 4 6.9 0 .3 0 .7-.1 1h10.2c0-.3-.1-.7-.1-1 0-3 1.6-5.5 4-6.9v-.1h13l22-25 7-16H23z"/><circle class="st4" cx="107" cy="303" r="50"/><circle class="st5" cx="107" cy="304" r="25"/><circle class="st6" cx="107.5" cy="303.5" r="6.5"/><path class="st6" d="M107.5 320c-9.1 0-16.5-7.4-16.5-16.5s7.4-16.5 16.5-16.5 16.5 7.4 16.5 16.5-7.4 16.5-16.5 16.5zm0-31c-8 0-14.5 6.5-14.5 14.5s6.5 14.5 14.5 14.5 14.5-6.5 14.5-14.5-6.5-14.5-14.5-14.5z"/><path class="st6" d="M107.5 326C95.1 326 85 315.9 85 303.5S95.1 281 107.5 281s22.5 10.1 22.5 22.5-10.1 22.5-22.5 22.5zm0-43c-11.3 0-20.5 9.2-20.5 20.5s9.2 20.5 20.5 20.5 20.5-9.2 20.5-20.5-9.2-20.5-20.5-20.5z"/><path class="st7" d="M127.1 257.2c-.6-.3-1.2-.5-1.8-.8l-1.9 4.6c.6.2 1.2.5 1.8.8l1.9-4.6zm-9.4-3c-.6-.1-1.3-.3-2-.4l-1 4.9c.7.1 1.3.2 2 .4l1-4.9zm-36.5 12c.5-.4 1.1-.8 1.7-1.1l-2.8-4.2c-.6.4-1.1.7-1.7 1.1l2.8 4.2zM108 258v-5h-2v5h2zm-19.1 3.8c.6-.3 1.2-.5 1.8-.8l-1.9-4.6c-.6.2-1.2.5-1.8.8l1.9 4.6zm55 15.4c.4.5.8 1.1 1.1 1.7l4.2-2.8c-.4-.6-.7-1.1-1.1-1.7l-4.2 2.8zm-46.6-18.1c.6-.1 1.3-.3 2-.4l-1-4.9c-.7.1-1.3.2-2 .4l1 4.9zm38.3 2.9c-.5-.4-1.1-.8-1.7-1.1l-2.8 4.2c.6.4 1.1.7 1.7 1.1l2.8-4.2zm3.9 72.1c-.5.5-.9 1-1.4 1.4l3.5 3.5c.5-.5 1-.9 1.4-1.4l-3.5-3.5zm-65 0-3.5 3.5c.5.5.9 1 1.4 1.4l3.5-3.5-1.4-1.4zM152 303v1h5v-2h-5v1zm-90 0v-1h-5v2h5v-1zm94.2-8.8c-.1-.7-.2-1.3-.4-2l-4.9 1c.1.6.3 1.3.4 2l4.9-1zm-81.7-22.3c.5-.5.9-1 1.4-1.4l-3.5-3.5c-.5.5-1 .9-1.4 1.4l3.5 3.5zm73.7 13c.3.6.5 1.2.8 1.8l4.6-1.9c-.2-.6-.5-1.2-.8-1.8l-4.6 1.9zm-8.7-13 3.5-3.5c-.5-.5-.9-1-1.4-1.4l-3.5 3.5c.5.5 1 .9 1.4 1.4zm-74.4 14.8c.2-.6.5-1.2.8-1.8l-4.6-1.9c-.3.6-.5 1.2-.8 1.8l4.6 1.9zm67.7 53.1c-.5.4-1.1.8-1.7 1.1l2.8 4.2c.6-.4 1.1-.7 1.7-1.1l-2.8-4.2zm-7.6 4.4c-.6.3-1.2.5-1.8.8l1.9 4.6c.6-.2 1.2-.5 1.8-.8l-1.9-4.6zm-8.4 2.7c-.6.1-1.3.3-2 .4l1 4.9c.7-.1 1.3-.2 2-.4l-1-4.9zM108 353v-5h-2v5h2zm43.3-42.2c-.1.7-.2 1.3-.4 2l4.9 1c.1-.6.3-1.3.4-2l-4.9-1zm-2.3 8.5c-.2.6-.5 1.2-.8 1.8l4.6 1.9c.3-.6.5-1.2.8-1.8l-4.6-1.9zm-79.9-40.5c.4-.6.7-1.1 1.1-1.7l-4.2-2.8c-.4.5-.8 1.1-1.1 1.7l4.2 2.8zm75.9 48.4c-.4.6-.7 1.1-1.1 1.7l4.2 2.8c.4-.5.8-1.1 1.1-1.7l-4.2-2.8zm-45.8 20.1c-.7-.1-1.3-.2-2-.4l-1 4.9c.6.1 1.3.3 2 .4l1-4.9zm-33.4-26.2c-.3-.6-.5-1.2-.8-1.8l-4.6 1.9c.2.6.5 1.2.8 1.8l4.6-1.9zm-3.1-25.9c.1-.7.2-1.3.4-2l-4.9-1c-.1.6-.3 1.3-.4 2l4.9 1zm.4 17.6c-.1-.6-.3-1.3-.4-2l-4.9 1c.1.7.2 1.3.4 2l4.9-1zm27.6 32.1c-.6-.2-1.2-.5-1.8-.8l-1.9 4.6c.6.3 1.2.5 1.8.8l1.9-4.6zm-7.8-3.9c-.6-.4-1.1-.7-1.7-1.1l-2.8 4.2c.5.4 1.1.8 1.7 1.1l2.8-4.2zm-12.7-12.2c-.4-.5-.8-1.1-1.1-1.7l-4.2 2.8c.4.6.7 1.1 1.1 1.7l4.2-2.8z"/><circle class="st4" cx="309" cy="303" r="50"/><circle class="st5" cx="309" cy="304" r="25"/><circle class="st6" cx="309.5" cy="303.5" r="6.5"/><path class="st6" d="M309.5 320c-9.1 0-16.5-7.4-16.5-16.5s7.4-16.5 16.5-16.5 16.5 7.4 16.5 16.5-7.4 16.5-16.5 16.5zm0-31c-8 0-14.5 6.5-14.5 14.5s6.5 14.5 14.5 14.5 14.5-6.5 14.5-14.5-6.5-14.5-14.5-14.5z"/><path class="st6" d="M309.5 326c-12.4 0-22.5-10.1-22.5-22.5s10.1-22.5 22.5-22.5 22.5 10.1 22.5 22.5-10.1 22.5-22.5 22.5zm0-43c-11.3 0-20.5 9.2-20.5 20.5s9.2 20.5 20.5 20.5 20.5-9.2 20.5-20.5-9.2-20.5-20.5-20.5z"/><path class="st7" d="M329.1 257.2c-.6-.3-1.2-.5-1.8-.8l-1.9 4.6c.6.2 1.2.5 1.8.8l1.9-4.6zm-9.4-3c-.6-.1-1.3-.3-2-.4l-1 4.9c.7.1 1.3.2 2 .4l1-4.9zm-36.5 12c.5-.4 1.1-.8 1.7-1.1l-2.8-4.2c-.6.4-1.1.7-1.7 1.1l2.8 4.2zM310 258v-5h-2v5h2zm-19.1 3.8c.6-.3 1.2-.5 1.8-.8l-1.9-4.6c-.6.2-1.2.5-1.8.8l1.9 4.6zm55 15.4c.4.5.8 1.1 1.1 1.7l4.2-2.8c-.4-.6-.7-1.1-1.1-1.7l-4.2 2.8zm-46.6-18.1c.6-.1 1.3-.3 2-.4l-1-4.9c-.7.1-1.3.2-2 .4l1 4.9zm38.3 2.9c-.5-.4-1.1-.8-1.7-1.1l-2.8 4.2c.6.4 1.1.7 1.7 1.1l2.8-4.2zm3.9 72.1c-.5.5-.9 1-1.4 1.4l3.5 3.5c.5-.5 1-.9 1.4-1.4l-3.5-3.5zm-65 0-3.5 3.5c.5.5.9 1 1.4 1.4l3.5-3.5-1.4-1.4zM354 303v1h5v-2h-5v1zm-90 0v-1h-5v2h5v-1zm94.2-8.8c-.1-.7-.2-1.3-.4-2l-4.9 1c.1.6.3 1.3.4 2l4.9-1zm-81.7-22.3c.5-.5.9-1 1.4-1.4l-3.5-3.5c-.5.5-1 .9-1.4 1.4l3.5 3.5zm73.7 13c.3.6.5 1.2.8 1.8l4.6-1.9c-.2-.6-.5-1.2-.8-1.8l-4.6 1.9zm-8.7-13 3.5-3.5c-.5-.5-.9-1-1.4-1.4l-3.5 3.5c.5.5 1 .9 1.4 1.4zm-74.4 14.8c.2-.6.5-1.2.8-1.8l-4.6-1.9c-.3.6-.5 1.2-.8 1.8l4.6 1.9zm67.7 53.1c-.5.4-1.1.8-1.7 1.1l2.8 4.2c.6-.4 1.1-.7 1.7-1.1l-2.8-4.2zm-7.6 4.4c-.6.3-1.2.5-1.8.8l1.9 4.6c.6-.2 1.2-.5 1.8-.8l-1.9-4.6zm-8.4 2.7c-.6.1-1.3.3-2 .4l1 4.9c.7-.1 1.3-.2 2-.4l-1-4.9zM310 353v-5h-2v5h2zm43.3-42.2c-.1.7-.2 1.3-.4 2l4.9 1c.1-.6.3-1.3.4-2l-4.9-1zm-2.3 8.5c-.2.6-.5 1.2-.8 1.8l4.6 1.9c.3-.6.5-1.2.8-1.8l-4.6-1.9zm-79.9-40.5c.4-.6.7-1.1 1.1-1.7l-4.2-2.8c-.4.5-.8 1.1-1.1 1.7l4.2 2.8zm75.9 48.4c-.4.6-.7 1.1-1.1 1.7l4.2 2.8c.4-.5.8-1.1 1.1-1.7l-4.2-2.8zm-45.8 20.1c-.7-.1-1.3-.2-2-.4l-1 4.9c.6.1 1.3.3 2 .4l1-4.9zm-33.4-26.2c-.3-.6-.5-1.2-.8-1.8l-4.6 1.9c.2.6.5 1.2.8 1.8l4.6-1.9zm-3.1-25.9c.1-.7.2-1.3.4-2l-4.9-1c-.1.6-.3 1.3-.4 2l4.9 1zm.4 17.6c-.1-.6-.3-1.3-.4-2l-4.9 1c.1.7.2 1.3.4 2l4.9-1zm27.6 32.1c-.6-.2-1.2-.5-1.8-.8l-1.9 4.6c.6.3 1.2.5 1.8.8l1.9-4.6zm-7.8-3.9c-.6-.4-1.1-.7-1.7-1.1l-2.8 4.2c.5.4 1.1.8 1.7 1.1l2.8-4.2zm-12.7-12.2c-.4-.5-.8-1.1-1.1-1.7l-4.2 2.8c.4.6.7 1.1 1.1 1.7l4.2-2.8z"/><path class="st3" d="M500 214v89l-92-1-50-79-12-9zm-291 36h-24v11l10 29h28l10-29v-11z"/><path class="st2" d="m346 214-2.7-1.6c-1.4-.9-2.3-2.4-2.3-4.1v-.2c0-1.3.7-2.4 1.9-3l2.1-1.1v-25h52v26h103v9H346z"/><path class="st4" d="M350 188h19v16h-19zm23 0h19v16h-19z"/><path class="st0" d="M417.6 292H485v-18h-79.5zm-16-25H485v-18h-93.4zm-24.5-44 10.1 18H485v-18z"/><path class="st6" d="M1.1 210.8H1l-1 1.1 3.1 6.3 5.8 1.1L22.8 199h39L50 219.9l8.2 1.7L70.9 199h34.9L90 227h9.1l15.8-28h34.9L134 227h9.1l15.8-28h33.9L177 227h9.1l15.8-28h38.9L225 227h9.1l15.8-28h36.9L271 227h9.1l15.8-28h24.4l5.7-13H23z"/><path class="st0" d="M499 294h2v27h-2zm11 0h2v27h-2z"/><path class="st0" d="M511 324h-11c-.6 0-1-.4-1-1v-3c0-.6.4-1 1-1h11c.6 0 1 .4 1 1v3c0 .6-.4 1-1 1zm0-9h-11c-.6 0-1-.4-1-1v-3c0-.6.4-1 1-1h11c.6 0 1 .4 1 1v3c0 .6-.4 1-1 1zm0-9h-11c-.6 0-1-.4-1-1v-3c0-.6.4-1 1-1h11c.6 0 1 .4 1 1v3c0 .6-.4 1-1 1zm0-9h-11c-.6 0-1-.4-1-1v-3c0-.6.4-1 1-1h11c.6 0 1 .4 1 1v3c0 .6-.4 1-1 1z"/></svg>