<svg xmlns="http://www.w3.org/2000/svg" viewBox="0 0 512 512" xml:space="preserve"><style>.st0{fill:#36434f}.st3{fill:#122a3a}.st4{fill:#cc584c}</style><path class="st0" d="M498 337.8h-15.5c-.6 0-1-.4-1-1v-1.5c0-.6.4-1 1-1H498c.6 0 1 .4 1 1v1.5c0 .5-.4 1-1 1zm0-17.5h-15.5c-.6 0-1-.4-1-1v-1.5c0-.6.4-1 1-1H498c.6 0 1 .4 1 1v1.5c0 .5-.4 1-1 1zm0-17.5h-15.5c-.6 0-1-.4-1-1v-1.5c0-.6.4-1 1-1H498c.6 0 1 .4 1 1v1.5c0 .5-.4 1-1 1z"/><path class="st0" d="M483.3 296h2v40h-2zm12 0h2v40h-2zM2 307h7v2H2z"/><path class="st0" d="M2 316H1c-.6 0-1-.4-1-1v-14c0-.6.4-1 1-1h1c.6 0 1 .4 1 1v14c0 .6-.4 1-1 1zm33.942-14.065 42.992-39.97 2.042 2.198-42.992 39.969z"/><path d="M502 287.8V298h-22.5v24h-8.2c-4.2 0-8.4.4-12.6 1.2l-24 4.8c-2.8.6-4.8 3-4.8 5.9v4.1c0 2.2-1.8 4-4 4H420c1.7-4 2.6-8.3 2.6-12.9 0-18.5-15.1-33.6-33.6-33.6-13.9 0-25.9 8.5-31 20.7-5.1-12.1-17.1-20.7-31-20.7s-25.9 8.5-31 20.7c-5.1-12.1-17.1-20.7-31-20.7-18.5 0-33.6 15.1-33.6 33.6 0 4.6.9 8.9 2.6 12.9h-14c1.7-4 2.6-8.3 2.6-12.9 0-18.5-15.1-33.6-33.6-33.6s-33.6 15.1-33.6 33.6c0 4.6.9 8.9 2.6 12.9h-1c-2.2 0-4-1.8-4-4v-8H91.4c-3.1-10.5-12.9-18.3-24.4-18.3-6 0-11.6 2.1-15.9 5.6V315H23.7c-1.8 0-3.6-.3-5.3-.9L6.7 310c-.4-.2-.7-.5-.7-1v-2c0-.4.3-.8.7-.9l11.8-4.1c1.7-.6 3.5-.9 5.3-.9H51v-16c0-2.2 1.8-4 4-4h32.8v-14H353v19h126.5v1.8H502zM296.1 342zm62 0z" fill="#ad403b"/><path d="M479.5 287.8V286H353v-19H87.8v14H55c-2.2 0-4 1.8-4 4v16H23.7c-1.8 0-3.6.3-5.3.9L6.7 306c-.4.2-.7.5-.7 1v2.1c0 .4.3.8.7.9l11.8 4.1c1.7.6 3.5.9 5.3.9h30.7c3.7-2.1 7.9-3.3 12.4-3.3s8.7 1.2 12.4 3.3h79.2c5.3-11.5 17-19.5 30.5-19.5s25.1 8 30.5 19.5h15c5.3-11.5 17-19.5 30.5-19.5s25.1 8 30.5 19.5h1.1c5.3-11.5 17-19.5 30.5-19.5s25.1 8 30.5 19.5h1.1c5.3-11.5 17-19.5 30.5-19.5s25.1 8 30.5 19.5h60v-17H502v-10.3h-22.5z" opacity=".15" fill="#444"/><path class="st0" d="M83.5 248h-26c-1.1 0-2-.9-2-2v-1c0-1.1.9-2 2-2h26v5zM38 294H27c-2.2 0-4-1.8-4-4v-8c0-2.2 1.8-4 4-4h11c2.2 0 4 1.8 4 4v8c0 2.2-1.8 4-4 4z"/><path class="st0" d="M28 293h9v9h-9z"/><path class="st3" d="M404.8 175.4h4.5v9.7h-4.5z"/><path class="st3" d="M409.3 175.9h-4.5c-.3 0-.5-.2-.5-.5s.2-.5.5-.5h4.5c.3 0 .5.2.5.5s-.2.5-.5.5zm-50.5 19.9h-10.5V181c0-1.1.9-2 2-2h6.5c1.1 0 2 .9 2 2v14.8zm-199.5-.8H153v-6.5c0-1.1.9-2 2-2h2.3c1.1 0 2 .9 2 2v6.5z"/><path class="st0" d="M120.7 155.3h-12l2.3 38.2h17.3l2.4-38.2z"/><path class="st3" d="M130 172.4h-20.8c-.6 0-1-.4-1-1s.4-1 1-1H130c.6 0 1 .4 1 1s-.4 1-1 1zm.9-16.1h-22.5c-.6 0-1-.4-1-1s.4-1 1-1h22.5c.6 0 1 .4 1 1s-.4 1-1 1zm93.6 46.5H167v-25c0-1.1.9-2 2-2h53.5c1.1 0 2 .9 2 2v25z"/><circle class="st4" cx="389.1" cy="329.1" r="8.7"/><path class="st4" d="M389.1 301.5c-15.2 0-27.6 12.3-27.6 27.6s12.3 27.6 27.6 27.6 27.6-12.3 27.6-27.6-12.4-27.6-27.6-27.6zm0 48.6c-11.6 0-21-9.4-21-21s9.4-21 21-21 21 9.4 21 21-9.4 21-21 21z"/><path class="st4" d="M388 302.9h2.2V325H388v-22.1zm0 30.3h2.2v22.1H388v-22.1zM375 307l1.9-1.1 11 19.1-1.9 1.1-11-19.1zm15.2 26.2 1.9-1.1 11 19.1-1.9 1.1-11-19.1zM365.9 317l1.1-1.9 19.1 11-1.1 1.9-19.1-11zm26.2 15.1 1.1-1.9 19.1 11-1.1 1.9-19.1-11zm-29.2-4.1H385v2.2h-22.1V328zm30.2 0h22.1v2.2h-22.1V328zm-27.2 13.2 19.1-11 1.1 1.9-19.1 11-1.1-1.9zm26.2-15.1 19.1-11 1.1 1.9-19.1 11-1.1-1.9z"/><path class="st4" d="m375 351.2 11-19.1 1.9 1.1-11 19.1-1.9-1.1zm15.2-26.2 11-19.1 1.9 1.1-11 19.1-1.9-1.1z"/><circle class="st4" cx="327.1" cy="329.1" r="8.7"/><path class="st4" d="M327.1 301.5c-15.2 0-27.6 12.3-27.6 27.6s12.3 27.6 27.6 27.6 27.6-12.3 27.6-27.6-12.4-27.6-27.6-27.6zm0 48.6c-11.6 0-21-9.4-21-21s9.4-21 21-21 21 9.4 21 21-9.4 21-21 21z"/><path class="st4" d="M326 302.9h2.2V325H326v-22.1zm0 30.3h2.2v22.1H326v-22.1zM313 307l1.9-1.1 11 19.1-1.9 1.1-11-19.1zm15.2 26.2 1.9-1.1 11 19.1-1.9 1.1-11-19.1zM303.9 317l1.1-1.9 19.1 11-1.1 1.9-19.1-11zm26.2 15.1 1.1-1.9 19.1 11-1.1 1.9-19.1-11zm-29.2-4.1H323v2.2h-22.1V328zm30.2 0h22.1v2.2h-22.1V328zm-27.2 13.2 19.1-11 1.1 1.9-19.1 11-1.1-1.9zm26.2-15.1 19.1-11 1.1 1.9-19.1 11-1.1-1.9z"/><path class="st4" d="m313 351.2 11-19.1 1.9 1.1-11 19.1-1.9-1.1zm15.2-26.2 11-19.1 1.9 1.1-11 19.1-1.9-1.1z"/><circle class="st4" cx="265.1" cy="329.1" r="8.7"/><path class="st4" d="M265.1 301.5c-15.2 0-27.6 12.3-27.6 27.6s12.3 27.6 27.6 27.6c15.2 0 27.6-12.3 27.6-27.6s-12.4-27.6-27.6-27.6zm0 48.6c-11.6 0-21-9.4-21-21s9.4-21 21-21 21 9.4 21 21-9.4 21-21 21z"/><path class="st4" d="M264 302.9h2.2V325H264v-22.1zm0 30.3h2.2v22.1H264v-22.1zM251 307l1.9-1.1 11 19.1-1.9 1.1-11-19.1zm15.2 26.2 1.9-1.1 11 19.1-1.9 1.1-11-19.1zM241.9 317l1.1-1.9 19.1 11-1.1 1.9-19.1-11zm26.2 15.1 1.1-1.9 19.1 11-1.1 1.9-19.1-11zm-29.2-4.1H261v2.2h-22.1V328zm30.2 0h22.1v2.2h-22.1V328zm-27.2 13.2 19.1-11 1.1 1.9-19.1 11-1.1-1.9zm26.2-15.1 19.1-11 1.1 1.9-19.1 11-1.1-1.9z"/><path class="st4" d="m251 351.2 11-19.1 1.9 1.1-11 19.1-1.9-1.1zm15.2-26.2 11-19.1 1.9 1.1-11 19.1-1.9-1.1z"/><circle class="st4" cx="189.1" cy="329.1" r="8.7"/><path class="st4" d="M189.1 301.5c-15.2 0-27.6 12.3-27.6 27.6s12.3 27.6 27.6 27.6c15.2 0 27.6-12.3 27.6-27.6s-12.4-27.6-27.6-27.6zm0 48.6c-11.6 0-21-9.4-21-21s9.4-21 21-21 21 9.4 21 21-9.4 21-21 21z"/><path class="st4" d="M188 302.9h2.2V325H188v-22.1zm0 30.3h2.2v22.1H188v-22.1zM175 307l1.9-1.1 11 19.1-1.9 1.1-11-19.1zm15.2 26.2 1.9-1.1 11 19.1-1.9 1.1-11-19.1zM165.9 317l1.1-1.9 19.1 11-1.1 1.9-19.1-11z"/><path class="st4" d="m192.1 332.1 1.1-1.9 19.1 11-1.1 1.9-19.1-11zm-29.2-4.1H185v2.2h-22.1V328zm30.2 0h22.1v2.2h-22.1V328zm-27.2 13.2 19.1-11 1.1 1.9-19.1 11-1.1-1.9zm26.2-15.1 19.1-11 1.1 1.9-19.1 11-1.1-1.9z"/><path class="st4" d="m175 351.2 11-19.1 1.9 1.1-11 19.1-1.9-1.1zm15.2-26.2 11-19.1 1.9 1.1-11 19.1-1.9-1.1z"/><circle class="st4" cx="66.9" cy="337.2" r="6.1"/><path class="st4" d="M66.9 317.8c-10.7 0-19.5 8.7-19.5 19.5 0 10.7 8.7 19.5 19.5 19.5s19.5-8.7 19.5-19.5-8.7-19.5-19.5-19.5zm0 34.2c-8.2 0-14.8-6.6-14.8-14.8s6.6-14.8 14.8-14.8 14.8 6.6 14.8 14.8S75.1 352 66.9 352z"/><path class="st4" d="M66.2 318.8h1.5v15.6h-1.5v-15.6zm0 21.3h1.5v15.6h-1.5v-15.6zM57 321.6l1.3-.8 7.8 13.5-1.3.8-7.8-13.5zm10.7 18.5 1.3-.8 7.8 13.5-1.3.8-7.8-13.5zm-17.1-11.4.8-1.3 13.5 7.8-.8 1.3-13.5-7.8z"/><path class="st4" d="m69 339.3.8-1.3 13.5 7.8-.8 1.3-13.5-7.8zm-20.5-2.9h15.6v1.5H48.5v-1.5zm21.3 0h15.6v1.5H69.8v-1.5zm-19.2 9.4 13.5-7.8.8 1.3-13.5 7.8-.8-1.3zM69 335.1l13.5-7.8.8 1.3-13.5 7.8-.8-1.3z"/><path class="st4" d="m57 352.8 7.8-13.5 1.3.8-7.8 13.5-1.3-.8zm10.7-18.5 7.8-13.5 1.3.8-7.8 13.5-1.3-.8z"/><path class="st0" d="M453 202h26.5v-9.5H512V187c0-4.4-3.6-8-8-8H400.5c-4.4 0-8 3.6-8 8v5.5H84c-8.8 0-16 17.5-16 39s7.2 39 16 39h3.8V289c0 2.2 1.8 4 4 4H129c2.2 0 4-1.8 4-4v-18.5h207.5v19.3c0 2.2 1.8 4 4 4H396c2.2 0 4-1.8 4-4v-2h79.5v-17.3H512V235h-32.5v-7H453c-2.2 0-4-1.8-4-4v-18c0-2.2 1.8-4 4-4zm-14 22c0 2.2-1.8 4-4 4h-18c-2.2 0-4-1.8-4-4v-18c0-2.2 1.8-4 4-4h18c2.2 0 4 1.8 4 4v18z"/></svg>