<svg xmlns="http://www.w3.org/2000/svg" viewBox="0 0 512 512" xml:space="preserve"><style>.st3{fill:#36434f}.st4{opacity:.15;fill:#444}.st5{fill:#a18267}</style><path fill="#e0ac7e" d="M463 512H49V200.2L256 31.6l207 168.6z"/><path d="m80 174.9-2.5 2.1h357l-2.5-2.1zM209.4 69.5l-2.6 2.1h98.4l-2.6-2.1zM49 448.8h414v2.1H49zM183.5 90.6l-2.5 2.1h150l-2.5-2.1zM49 427.7h414v2.1H49zm0 63.2h414v2.1H49zm108.7-379.2-2.6 2.1h201.8l-2.6-2.1zm302.7 86.4-2.6-2.1H54.2l-2.6 2.1zm-354.5-44.3-2.6 2.1h305.4l-2.6-2.1zm25.9-21.1-2.6 2.1h253.6l-2.6-2.1zM49 469.9h414v2.1H49zm0-189.7h414v2.1H49zm0-21h414v2.1H49zm0 42.1h414v2.1H49zm0-84.3h414v2.1H49zm0 21.1h414v2.1H49zm0 105.3h414v2.1H49zm0 21.1h414v2.1H49zm0 21.1h414v2.1H49zm0 21.1h414v2.1H49zm0-84.3h414v2.1H49z" fill="#444" opacity=".15"/><circle class="st3" cx="454.5" cy="249.7" r="2"/><circle class="st3" cx="454.5" cy="228.7" r="2"/><circle class="st3" cx="454.5" cy="270.7" r="2"/><circle class="st3" cx="454.5" cy="291.7" r="2"/><circle class="st3" cx="454.5" cy="312.7" r="2"/><circle class="st3" cx="454.5" cy="333.7" r="2"/><circle class="st3" cx="454.5" cy="354.7" r="2"/><circle class="st3" cx="454.5" cy="375.7" r="2"/><circle class="st3" cx="454.5" cy="396.7" r="2"/><circle class="st3" cx="454.5" cy="417.7" r="2"/><circle class="st3" cx="454.5" cy="438.7" r="2"/><circle class="st3" cx="454.5" cy="459.7" r="2"/><circle class="st3" cx="454.5" cy="480.7" r="2"/><circle class="st3" cx="454.5" cy="501.7" r="2"/><circle class="st3" cx="57.5" cy="249.7" r="2"/><circle class="st3" cx="57.5" cy="228.7" r="2"/><circle class="st3" cx="57.5" cy="270.7" r="2"/><circle class="st3" cx="57.5" cy="291.7" r="2"/><circle class="st3" cx="57.5" cy="312.7" r="2"/><circle class="st3" cx="57.5" cy="333.7" r="2"/><circle class="st3" cx="57.5" cy="354.7" r="2"/><circle class="st3" cx="57.5" cy="375.7" r="2"/><circle class="st3" cx="57.5" cy="396.7" r="2"/><circle class="st3" cx="57.5" cy="417.7" r="2"/><circle class="st3" cx="57.5" cy="438.7" r="2"/><circle class="st3" cx="57.5" cy="459.7" r="2"/><circle class="st3" cx="57.5" cy="480.7" r="2"/><circle class="st3" cx="57.5" cy="501.7" r="2"/><path class="st4" d="M49 200.2v46.7L256 76.5l207 170.4v-46.7L256 31.6z"/><path class="st5" d="M478.1 238.9 256 58 33.9 238.9 5.5 204 256 0l250.5 204z"/><path fill="#ddc4b0" d="M200.8 284.6h110.5V512H200.8z"/><path class="st5" d="M200.8 284.6h110.5V512H324V271H188v241h12.8z"/><path class="st4" d="M294 388.7c-2.8-.7-5-2.6-5-4.3V366c0-2.5 2.8-4.1 6.3-3.5 3.6.6 6.4 3.2 6.1 5.7l-2 18.8c-.1 1.7-2.6 2.4-5.4 1.7z"/><path class="st3" d="M292.8 387.5c-2.1 0-3.8-1.7-3.8-3.8v-18.8c0-2.1 1.7-3.8 3.8-3.8 2.1 0 3.8 1.7 3.8 3.8v18.8c-.1 2.1-1.8 3.8-3.8 3.8z"/><path class="st4" d="m5.5 204 28.4 34.9L49 226.6V512h207V0z"/></svg>