<svg version="1.1" xmlns="http://www.w3.org/2000/svg" x="0" y="0" viewBox="0 0 1024 1024" xml:space="preserve"><style type="text/css">.st0{fill:#bbb}.st1{fill:#999}.st4{fill:#f6c214}</style><path class="st0" d="M292 967.6h440v56.4H292z"/><path class="st0" d="M306 879.6h412v90H306z"/><path class="st1" d="M372 821.6h280v58H372zm-8-14h296v14H364z"/><path class="st0" d="M393 383.6h238v230H393z"/><path class="st0" d="M372 611.6h280v196H372z"/><circle cx="512" cy="503.6" r="100" fill="#36434f"/><path class="st0" d="M521.5 504c0 5-4.1 9.1-9.1 9.1s-9.1-4.1-9.1-9.1 4.1-9.1 9.1-9.1 9.1 4.1 9.1 9.1z"/><path d="M487.5 419.3c.3 1.2 1.5 1.9 2.7 1.6s1.9-1.5 1.6-2.7-1.5-1.9-2.7-1.6-1.9 1.5-1.6 2.7zm47.1 167.1c-1.2.3-1.9 1.5-1.6 2.7s1.5 1.9 2.7 1.6 1.9-1.5 1.6-2.7c-.3-1.2-1.5-1.9-2.7-1.6zM533 418.2c-.3 1.2.4 2.4 1.6 2.7s2.4-.4 2.7-1.6-.4-2.4-1.6-2.7-2.4.4-2.7 1.6zm-41.2 170.9c.3-1.2-.4-2.4-1.6-2.7s-2.4.4-2.7 1.6.4 2.4 1.6 2.7c1.1.3 2.4-.4 2.7-1.6zm-62.2-107.6c.3-1.2-.4-2.4-1.6-2.7-1.2-.3-2.4.4-2.7 1.6s.4 2.4 1.6 2.7c1.2.2 2.4-.5 2.7-1.6zm167.1 47c1.2.3 2.4-.4 2.7-1.6s-.4-2.4-1.6-2.7-2.4.4-2.7 1.6.5 2.4 1.6 2.7zm-148-88.6c-.9.9-.9 2.3 0 3.1s2.3.9 3.1 0 .9-2.3 0-3.1-2.3-.8-3.1 0zm127.4 127.4c.9-.9.9-2.3 0-3.1s-2.3-.9-3.1 0-.9 2.3 0 3.1 2.2.9 3.1 0zM573 439.9c-.9.9-.9 2.3 0 3.1s2.3.9 3.1 0 .9-2.3 0-3.1-2.3-.8-3.1 0zM451.8 567.3c.9-.9.9-2.3 0-3.1s-2.3-.9-3.1 0-.9 2.3 0 3.1 2.2.9 3.1 0zm147.6-87c-.3-1.2-1.5-1.9-2.7-1.6s-1.9 1.5-1.6 2.7 1.5 1.9 2.7 1.6c1.2-.3 1.9-1.5 1.6-2.7zm-174 46.7c.3 1.2 1.5 1.9 2.7 1.6s1.9-1.5 1.6-2.7-1.5-1.9-2.7-1.6-2 1.5-1.6 2.7zm23.7 42l-2.1 2.1c11 10.7 24.5 18.7 39.6 23l.8-2.9c-3.5-1-7-2.2-10.3-3.6-10.5-4.4-19.9-10.6-28-18.6zm98.6 18.6c-3.4 1.4-6.8 2.7-10.3 3.6l.8 2.9c15.1-4.3 28.7-12.3 39.6-23l-2.1-2.1c-8.1 8-17.5 14.2-28 18.6zm-35.3 7.2c-7.5 0-15-.9-22.2-2.7l-.8 2.9c7.3 1.8 15 2.9 22.9 2.9s15.6-1 22.9-2.9l-.8-2.9c-7 1.7-14.5 2.7-22 2.7zm83.6-55.5c-4.3 10.3-10.5 19.6-18.2 27.6l2.1 2.1c10.6-11 18.6-24.6 22.8-39.7l-2.9-.8c-1 3.7-2.3 7.3-3.8 10.8zm0-70.6c1.4 3.3 2.6 6.7 3.6 10.1l2.9-.8c-4.3-15-12.3-28.5-23-39.4l-2.1 2.1c8 8.1 14.2 17.5 18.6 28zm7.3 12.1l-2.9.8c1.8 7.3 2.8 14.8 2.8 22.4 0 7.4-.9 14.7-2.6 21.7l2.9.8c1.8-7.2 2.7-14.8 2.7-22.5-.1-8-1.1-15.8-2.9-23.2zm-126.2-60.4c3.4-1.4 7-2.7 10.5-3.7l-.8-2.9c-15 4.3-28.5 12.2-39.5 22.7l2.1 2.1c8.1-7.8 17.4-13.9 27.7-18.2zm-48.3 48.3c4.4-10.4 10.7-19.8 18.6-28l-2.1-2.1a94.871 94.871 0 0 0-23 39.4l2.9.8c1-3.5 2.2-6.8 3.6-10.1zm0 70.6c-1.5-3.5-2.7-7.1-3.8-10.7l-2.9.8c4.3 15.1 12.2 28.7 22.8 39.7l2.1-2.1c-7.8-8.1-13.9-17.4-18.2-27.7zm146.5-100.7l2.1-2.1C566.5 426 553 418 538 413.8l-.8 2.9c3.6 1 7.1 2.2 10.5 3.7 10.3 4.3 19.6 10.4 27.6 18.2zM421.6 504c0-7.7.9-15.2 2.8-22.4l-2.9-.8c-1.9 7.4-2.9 15.2-2.9 23.2 0 7.8.9 15.3 2.7 22.5l2.9-.8c-1.7-7-2.6-14.3-2.6-21.7zm90.8-90.8c7.5 0 14.8.9 22 2.7l.8-2.9c-7.3-1.8-14.9-2.8-22.8-2.8s-15.5 1-22.8 2.8l.8 2.9c7.1-1.8 14.5-2.7 22-2.7zm1.8 39.2V433h-3.7v19.4h3.7zm-3.6 103.2V575h3.7v-19.4h-3.7zm-69.3-49.8h19.4v-3.7h-19.4v3.7zm142.1-3.6H564v3.7h19.4v-3.7zM558 479.8l16.8-9.7-1.8-3.2-16.8 9.7 1.8 3.2zm-91.2 48.4l-16.8 9.7 1.8 3.2 16.8-9.7-1.8-3.2zm8.5-84.8l9.7 16.8 3.2-1.8-9.7-16.8-3.2 1.8zm74.2 121.2l-9.7-16.8-3.2 1.8 9.7 16.8 3.2-1.8zm25.4-26.7l-16.8-9.7-1.8 3.2 16.8 9.7 1.8-3.2zm-125-67.8l16.8 9.7 1.8-3.2-16.8-9.7-1.8 3.2zm86.7-11.7l3.2 1.8 9.7-16.8-3.2-1.8-9.7 16.8zm-48.4 91.2l-3.2-1.8-9.7 16.8 3.2 1.8 9.7-16.8zm16.9-101l2.9-.3-1.3-12-2.9.3 1.3 12zm15.8 122.8l-1.3-12-2.9.3 1.3 12 2.9-.3zm-21.2-134.2l-2.9.6 2.5 11.8 2.9-.6-2.5-11.8zm22.9 121.7l2.5 11.8 2.9-.6-2.5-11.8-2.9.6zm-29.8-120l-2.8.9 3.8 11.5 2.8-.9-3.8-11.5zM532 569.1l2.8-.9-3.8-11.5-2.8.9 3.8 11.5zm-41-116.7l-4.9-11.1-2.7 1.2 4.9 11.1 2.7-1.2zm50.4 113l-4.9-11.1-2.7 1.2 4.9 11.1 2.7-1.2zm-7.6-113l2.7 1.2 4.9-11.1-2.7-1.2-4.9 11.1zM491 555.6l-2.7-1.2-4.9 11.1 2.7 1.2 4.9-11.1zm37.3-105.2l2.8.9 3.8-11.5-2.9-.8-3.7 11.4zm-31.8 107.2l-2.8-.9-3.8 11.5 2.8.9 3.8-11.5zm28.6-120.4l-2.5 11.8 2.9.6 2.5-11.8-2.9-.6zm-28.3 132.9l2.9.6 2.5-11.8-2.9-.6-2.5 11.8zm24.1-133.5l-2.9-.3-1.3 12 2.9.3 1.3-12zm-17.1 134.8l2.9.3 1.3-12-2.9-.3-1.3 12zM450.9 475l-1.2 2.7 11.1 4.9 1.2-2.7-11.1-4.9zm122.9 58l1.2-2.7-11.1-4.9-1.2 2.7 11.1 4.9zm-114.1-47.6l-11.5-3.8-.9 2.8 11.5 3.8.9-2.8zm106.2 34.5l-.9 2.8 11.5 3.8.9-2.8-11.5-3.8zM458.1 491l-11.8-2.5-.6 2.9 11.8 2.5.6-2.9zm108.6 26l11.8 2.5.6-2.9-11.8-2.5-.6 2.9zm-122-18.6l12 1.2.3-2.9-12-1.2-.3 2.9zm135.4 11.2l-12-1.3-.3 2.9 12 1.3.3-2.9zm-101.7-49.9l2.4-1.7-7.1-9.8-2.4 1.7 7.1 9.8zm72.7 100.1l2.4-1.7-7.1-9.8-2.4 1.7 7.1 9.8zm-85.3-105.3l8.1 9 2.2-2-8.1-9-2.2 2zm93.2 99l-8.1-9-2.2 2 8.1 9 2.2-2zm-98.1-93.9l9 8.1 2-2.2-9-8.1-2 2.2zm102.9 88.8l-9-8.1-2 2.2 9 8.1 2-2.2zm-107.2-83.2l9.8 7.1 1.7-2.4-9.8-7.1-1.7 2.4zm111.6 77.5l-9.8-7.1-1.7 2.4 9.8 7.1 1.7-2.4zM468.1 538l-1.7-2.4-9.8 7.1 1.7 2.4 9.8-7.1zm88.6-68l1.7 2.4 9.8-7.1-1.7-2.4-9.8 7.1zm-84.8 72.5l-2-2.2-9 8.1 2 2.2 9-8.1zm81-77l2 2.2 9-8.1-2-2.2-9 8.1zm-76.8 81l-2.2-2-8.1 9 2.2 2 8.1-9zm72.6-85l2.2 2 8.1-9-2.2-2-8.1 9zm-77.4 96.6l2.4 1.7 7.1-9.8-2.4-1.7-7.1 9.8zm79.8-109.9L544 458l2.4 1.7 7.1-9.8-2.4-1.7zM445 512.6l12-1.3-.3-2.9-12 1.3c0-.1.3 2.9.3 2.9zm135.1-14.2l-.3-2.9-12 1.3.3 2.9 12-1.3zm-122.6 15.8l-11.8 2.5.6 2.9 11.8-2.5-.6-2.9zM566.7 491l.6 2.9 11.8-2.5-.6-2.9-11.8 2.5zm-107 31.6l-.9-2.8-11.5 3.8.9 2.8 11.5-3.8zM565 485.4l.9 2.8 11.5-3.8-.9-2.8-11.5 3.8zm-115.3 44.9l1.2 2.7 11.1-4.9-1.2-2.7-11.1 4.9zM575 477.7l-1.2-2.7-11.1 4.9 1.2 2.7 11.1-4.9zm-70.1-49.4l-.8.1c-.2.1-.2.6 0 .7.7 0 1.9-.1 3.2-.1 1.2 0 2.4 0 3.1.1.2-.1.2-.6 0-.7l-.8-.1c-1-.1-1.1-.3-1.1-1.9V419c0-1 0-1.9.1-2.3 0-.2-.2-.2-.3-.2-.2 0-.9.4-1.8.6-.8.2-1.7.4-2.5.5-.2.1-.2.6 0 .7l.9.1c.9.1.9.4.9 1.7v6.4c.2 1.6.1 1.8-.9 1.8zm16.5-2.4c-.6 1.1-.8 1.1-2.3 1.1h-2.4c-.3 0-.4-.1-.4-.2 0-.2.2-.4 1.1-1.3l.9-.9c2.4-2.2 3-3.4 3-4.9 0-1.9-1.4-3.4-3.8-3.4-1.9 0-3.8 1.1-4.5 3.1 0 .3.4.4.7.3.6-1.1 1.4-1.8 2.5-1.8 1.3 0 2.1 1.1 2.1 2.4 0 2.1-1.2 3.8-2.6 5.3-1.2 1.3-2.3 2.3-3 3 0 .2 0 .4.2.4.4 0 1.2-.1 2.2-.1h3.1c1.3 0 2 0 2.8.1.4-.5.8-1.8 1-3 0-.2-.5-.2-.6-.1zm-8.9 164.2c2.7 0 4.5-1.8 4.5-4.4 0-1.9-1.1-3.8-3.6-3.8-.7 0-1.6.5-2 .9 0 .2 0 .3.2.4h.5c1.7 0 2.3 2.4 2.3 3.8 0 .9-.3 2.2-1.5 2.2-1.5 0-2.2-2.5-2.2-4.6 0-1.8.4-3.8 1.5-5 1.1-1.4 2.1-2.2 4.6-2.8.2-.2.2-.6-.1-.7-2.4.1-4.8 1.3-6.3 2.7-1.6 1.5-2.6 3.8-2.6 6 0 3.1 1.7 5.3 4.7 5.3zm-76-88.3c0-2.7-1.7-5.1-4.7-5.1-2.5 0-4.4 1.8-4.4 4.3 0 2 1.5 3.5 3.4 3.5.8 0 1.6-.3 2-.6 0-.2 0-.4-.1-.4h-.5c-1.3-.2-2-2-2-3.6 0-1.2.5-2.3 1.4-2.3 1.7 0 2.1 2.9 2.1 4.4 0 3.6-2 7-5.9 7.9-.2.2-.2.5.1.7 1.7-.1 4.3-1.2 5.9-2.7 1.7-1.6 2.7-3.7 2.7-6.1zm155 7.7c-.3 0-.6-.1-.9-.5-.2-.3-.6-1.1-1.3-1.1-.8 0-1.2.5-1.2 1.1 0 1 1.1 1.4 2.1 1.4s2.9-.4 4.6-1.6c1.6-1.2 2.3-2.6 2.3-4 0-1.9-1.5-3.1-3.3-3-.3 0-.4-.2-.2-.3 2.1-.9 2.5-1.8 2.5-2.5 0-1.3-1.2-2.3-3.1-2.3-1.8 0-3.4.9-4.1 2.5 0 .2.3.5.5.4.6-.9 1.5-1.6 2.4-1.6 1 0 1.6.7 1.6 1.4 0 .9-.5 1.5-.8 1.8-.8.7-2.4 1.3-3.2 1.6-.2.5.1.9.5.9.5-.5 1.1-.8 2-.8 1.4 0 2.3 1.3 2.3 3 0 2.5-1.8 3.6-2.7 3.6zm-126-70.4l-.8.1c-.2.1-.2.6 0 .7.7 0 1.9-.1 3.2-.1 1.2 0 2.4 0 3.1.1.2-.1.2-.6 0-.7l-.8-.1c-1-.1-1.1-.3-1.1-1.9v-7.5c0-1 0-1.9.1-2.3 0-.2-.2-.2-.3-.2-.2 0-.9.4-1.8.6-.8.2-1.7.4-2.5.5-.2.1-.2.6 0 .7l.9.1c.9.1.9.4.9 1.7v6.4c.2 1.6.1 1.8-.9 1.9zm8.8 0l-.8.1c-.2.1-.2.6 0 .7.7 0 1.9-.1 3.2-.1 1.2 0 2.4 0 3.1.1.2-.1.2-.6 0-.7l-.8-.1c-1-.1-1.1-.3-1.1-1.9v-7.5c0-1 0-1.9.1-2.3 0-.2-.2-.2-.3-.2-.2 0-.9.4-1.8.6-.8.2-1.7.4-2.5.5-.2.1-.2.6 0 .7l.9.1c.9.1.9.4.9 1.7v6.4c.2 1.6.1 1.8-.9 1.9zm74.2 141.2c1.7 0 3.7-.4 5.4-1.3 1.6-.9 2.9-2.2 2.9-4.3 0-1.6-1-2.7-2.1-3.3s-3-.9-4-1c-.4 0-.7-.1-.5-.6l.1-.5c.1-.4.2-.5.5-.6l4.5-.5c.5-.5.9-1.3 1.1-2 0-.2-.1-.2-.2-.2l-5.2.6c-.6.1-.7.1-.9.6l-1.2 4.5c-.1.5 0 .6.6.7 2 .2 5 .5 5 3.3 0 1.1-.7 2-1.8 2.7-.9.5-2.5.8-3.9.9-.7.2-.6.9-.3 1zm-110.2-33.6c0-1.5 1.1-2.5 2.6-3.3-1.2-.7-2.1-1.6-2.1-3 0-2 1.6-3.4 4.1-3.4 2.2 0 3.8 1.2 3.8 3.1 0 1.4-1.1 2.1-2.1 2.7 1.5.7 2.7 1.8 2.7 3.7s-1.4 3.4-4.5 3.4c-2.4 0-4.5-1.1-4.5-3.2zm3-7c0 .9.7 1.8 2.3 2.5.6-.4.9-1.2.9-2.1 0-1.4-.9-2.1-1.6-2.1-.9-.1-1.6.6-1.6 1.7zm-.4 6.8c0 1.4.8 2.5 2.1 2.5.9 0 1.6-.7 1.6-1.9 0-1.6-1.1-2.4-2.7-3.2-.7.8-1 1.6-1 2.6zm136.4-77.7c0 .2 0 .4.2.4.4 0 1.2-.1 2.2-.1h3.1c1.3 0 2 0 2.8.1.4-.5.8-1.8 1-3-.1-.3-.5-.3-.7-.1-.6 1.1-.8 1.1-2.3 1.1h-2.4c-.3 0-.4-.1-.4-.2 0-.2.2-.4 1.1-1.3l.9-.9c2.4-2.2 3-3.4 3-4.9 0-1.9-1.4-3.4-3.8-3.4-1.9 0-3.8 1.1-4.5 3.1 0 .3.4.4.7.3.6-1.1 1.4-1.8 2.5-1.8 1.3 0 2.1 1.1 2.1 2.4 0 2.1-1.2 3.8-2.6 5.3-1.1 1.3-2.2 2.3-2.9 3zm-135.7.5c.2-.1.2-.6 0-.7l-.8-.1c-1-.1-1.1-.3-1.1-1.9v-7.5c0-1 0-1.9.1-2.3 0-.2-.2-.2-.3-.2-.2 0-.9.4-1.8.6-.8.2-1.7.4-2.5.5-.2.1-.2.6 0 .7l.9.1c.9.1.9.4.9 1.7v6.4c0 1.6-.1 1.8-1.1 1.9l-.8.1c-.2.1-.2.6 0 .7.7 0 1.9-.1 3.2-.1 1.4 0 2.6 0 3.3.1zm5.6-12.7c3.2 0 4.6 3.4 4.6 6.5 0 3.2-1.4 6.5-4.6 6.5s-4.6-3.3-4.6-6.5c0-3.1 1.4-6.5 4.6-6.5zm0 .9c-1.5 0-1.7 3.8-1.7 5.5s.2 5.5 1.7 5.5 1.7-3.8 1.7-5.5-.2-5.5-1.7-5.5zm138.2 88.4h1.3c.3-.2.3-.9 0-1.1h-1.3c-.4 0-.5-.1-.5-.6v-3.8c0-.2-.1-.4-.3-.4-.4 0-1.4.4-1.9.6-.3.1-.4.3-.4.7v2.8c0 .5 0 .6-.5.6h-2.4c-.6 0-.6-.2-.4-.4l5.9-8.2c.3-.4.2-.5-.2-.5h-.6c-.3 0-.4.2-.7.5l-6.4 9.2c-.1.3 0 .5.2.6h4.6c.4 0 .5.1.5.6v.5c0 1.6-.1 1.8-1.1 1.9l-.8.1c-.2.1-.2.6 0 .7.7 0 1.9-.1 3.2-.1.9 0 2 0 2.7.1.2-.1.2-.6 0-.7h-.4c-.9-.1-1-.3-1-1.9v-.5c.1-.6.1-.7.5-.7zm-116.8 33.7c0 .4.6.7.9.6l5.7-10.1c.8-1.4 1.4-2.5 2-3.3 0-.1 0-.3-.2-.3-.3 0-1.6.1-2.9.1h-3.8c-1.3 0-1.7 0-2.4-.1-.2.7-.4 2-.8 3 .1.2.5.3.7.2.5-.8.7-1 1.8-1h4.2c.3 0 .6.1.6.3 0 .4-.2.8-.7 1.6l-5.1 9zm81.7-140.5l-.8.1c-.2.1-.2.6 0 .7.7 0 1.9-.1 3.2-.1 1.2 0 2.4 0 3.1.1.2-.1.2-.6 0-.7l-.8-.1c-1-.1-1.1-.3-1.1-1.9v-7.5c0-1 0-1.9.1-2.3 0-.2-.2-.2-.3-.2-.2 0-.9.4-1.8.6-.8.2-1.7.4-2.5.5-.2.1-.2.6 0 .7l.9.1c.9.1.9.4.9 1.7v6.4c.2 1.6.1 1.8-.9 1.9z" fill="#ddd"/><path class="st0" d="M585.9 546.6l-11.7-9.4 1.2-2-1.7-1-1.1 1.8-9.4-5.5c.4-2.7-.8-5.6-3.4-7-2.1-1.2-4.5-1.2-6.5-.3l-2.1-1.2 2-3.4-1.7-1-2 3.4-53.5-31.3c-.4-1.3-1.2-2.5-2.5-3.3-2.1-1.2-4.7-.9-6.4.7l-.5-2c2.3-1.6 5.4-1.8 7.9-.3l1-1.7c-4.5-2.6-10.2-1.1-12.8 3.4-2.6 4.5-1.1 10.2 3.4 12.8l1-1.7c-2.5-1.5-3.9-4.3-3.6-7.1l2-.5c-.5 2.3.5 4.7 2.6 5.9 1.3.7 2.7.9 4.1.6l53.7 31.4-2 3.4 1.7 1 2-3.4 2.1 1.2c.2 2.2 1.4 4.3 3.4 5.5 2.5 1.5 5.6 1.2 7.8-.5l9.4 5.5-1.1 1.8 1.7 1 1.2-2 13.8 5.2zm-102.3-57.3c.2-.6.4-1.2.7-1.8.4-.6.7-1.1 1.2-1.6l.6 2.3c0 .1-.1.2-.2.2l-.1.2-2.2.7zm5.4 4.9c-1.7-1-2.2-3.1-1.3-4.8s3.1-2.2 4.8-1.3 2.2 3.1 1.3 4.8c-1 1.7-3.1 2.3-4.8 1.3zm5.8.7c.3-.3.5-.6.7-.9.2-.4.4-.7.5-1.1l52.4 30.6-1.2 2-52.4-30.6zm54 31.6l1.2-2 1.1.7c-.2.3-.5.6-.7 1s-.4.7-.5 1.1l-1.1-.8z"/><path class="st0" d="M507.7 516l39.7-49 1-1.2-2.7-2.2 1-1.3c1.5.8 3.4.5 4.5-.9s1-3.3-.1-4.5l2.3-2.8-.9-.7-2.3 2.8c-1.5-.8-3.4-.5-4.5.9s-1 3.3.1 4.5l-1 1.3-2.7-2.2-1 1.2-39.7 49c-3.4-.8-7.1.4-9.4 3.2l1.5 1.2c2.4-2.9 6.5-3.6 9.6-1.6l-2.7 3.4c-1.4-.6-3.1-.2-4.1 1-1.2 1.5-1 3.7.5 5 1.5 1.2 3.7 1 5-.5 1-1.3 1-3 .2-4.2l2.7-3.4c2.5 2.7 2.7 6.8.4 9.8l1.5 1.2c2.3-3.1 2.6-6.9 1.1-10zm-4.4-4.5l39.3-48.4.9.7-39.1 48.3c-.4-.3-.7-.4-1.1-.6zM545 465l.9.7-39.3 48.4c-.2-.3-.5-.6-.8-.9L545 465z"/><path class="st1" d="M472 1005.6h80v18.4h-80zm120 0h80v18.4h-80zm-240 0h80v18.4h-80z"/><path class="st0" d="M314 845.9v35.5h396v-35.5H314zm30 28.7h-24v-24h24v24zm30 0h-24v-24h24v24zm30 0h-24v-24h24v24zm30 0h-24v-24h24v24zm30 0h-24v-24h24v24zm30 0h-24v-24h24v24zm30 0h-24v-24h24v24zm30 0h-24v-24h24v24zm30 0h-24v-24h24v24zm30 0h-24v-24h24v24zm30 0h-24v-24h24v24zm30 0h-24v-24h24v24zm30 0h-24v-24h24v24z"/><path class="st1" d="M391 611.6h38v198h-38zm68 0h38v198h-38zm68 0h38v198h-38zm68 0h38v198h-38z"/><path class="st0" d="M622 365.6H402l-9 18h238z"/><path class="st1" d="M395 357.6h234v8H395zm-3-12h240v12H392z"/><path class="st0" d="M588 305.6H436l-22 40h196zm-152-6h152v6H436z"/><path class="st1" d="M524.3 201.6h-24.5l-70.1 98h164.6z"/><path class="st4" d="M516 189.6l-2-142h-4l-2 142-8.2 12h24.5z"/><circle class="st4" cx="512" cy="42.2" r="6"/><path class="st1" d="M372 611.6h280v4.7H372z"/><path class="st4" d="M523.5 10.4c-.1 0-.3.1-.4.1-.2 0-.5-.3-.7-.4-.4-.2-.9-.2-1.3 0-.4.1-.8.4-1.1.7-.2.2-.5.5-.5.8.6-.3 1.4-.8 2.1-.4.1.1.2.1.3.2.1.2 0 .2-.2.3-.4.4-.6.8-.9 1.3-.7 1.5-.7 3.3 0 4.8-.3.2-.6.6-.7 1 0 .3.2.6.3.9.5.8.8 1.5.5 2.5.4 0 .8-.4 1-.8.4 1.1.5 2.4 0 3.6-.4.7-1 1.3-1.8 1.6-.1.1-.3.1-.4.1-.2 0-.2.1-.3-.1-.1-.3-.1-.6-.2-.9-.4-.9-1.4-1.3-2.2-1.7-1-.4-1.8-1-2.2-2.1-.2-.5-.3-1-.3-1.6v-1.5h.2c-.2-.1-.3-.6-.4-.8 0-.3 0-.5.1-.8 0-.1.3-.7.5-.6-.2 1-.4 2.6.5 3.4.2.1 1 .5 1.1.2-1.3-.3-.7-2.6-.4-3.3.2.7.2 1.6.8 2.1.3.2.6.1.9-.1-.8.4-.8-1.2-.8-1.6.1-1 .1-2.1.1-3.1 0-1.5-.1-3.1-.4-4.6-.3-1.5-1-3.3-2.5-3.9-.3-.1-.6-.2-.9-.2h-.9c.1-.6-.9-1.2-1.4-1.1-.2.1-.4.2-.5.4-.1.2-.1.3-.2.5s-.1.1-.3.2c-.3.1-2.6.2-2.3.8-.6.2-1.3.4-1.9.6-.1 0-.3 0-.4.1s-.1 0-.1.1v.3c0 .1.1.1.1.2s0 .2-.1.3c0 .1-.1.2-.1.4s-.1.5 0 .7c0 .2.1.3.2.5.2.2.4.1.6.1.4-.1.9-.1 1.3 0s1 .3 1 .8c-.8 0-1.6-.1-2.4-.2-.7-.1-1.8-.3-2.3.3.8-.2 1.7-.1 2.5 0 .4.1.8.1 1.2.1h.5c.1 0 .2.1.3.1-.3.4-.8.6-1.3.5-.4 0-1.1-.4-1.4 0-.1.2-.1.4 0 .6 0 .1.1.3.1.4 0 .1 0 .2-.1.3-.1.3.2.4.5.4s.8-.1.6.4c-.1.2-.4.3-.6.4-.1.1-.3.2-.4.2s-.1 0-.2-.1c-.3-.1-.5-.3-.7-.5-1-.8-2.1-1.6-3.1-2.3-.4-.3-.9-.7-1.3-1-.1-.1-.2-.1-.3-.2-.1-.1-.5-.4-.5-.6 0-.1.3-.4.4-.5.2-.3.5-.5.8-.8.4-.4.7-.8 1-1.1.2.2.5.6.7.7.1.1.1 0 .2-.1s.2-.3.4-.4c-.2-.2-.6-.5-.7-.7-.1-.1-.1 0 0-.1l.3-.3c.5-.5 1-1 1.4-1.5.4.4.8.8 1.3 1.2.3-.4.7-.8 1.1-1.1.5-.5.9-1.1 1.2-1.8.3-.7.3-1.5 0-2.2-.1-.3-.3-.3-.5-.4-.2-.1-.5-.1-.7-.1-.5 0-1 .2-1.4.4-1 .6-1.7 1.5-2.5 2.2.4.4.9.8 1.3 1.2-.7.5-1.2 1.3-1.8 1.9l-.8-.8c-.1.1-.4.3-.5.5 0 .1.1.2.3.3.1.1.4.3.5.5 0 .1-.1.2-.2.2L500 7.6c-.2.3-.5.6-.8.8-.1.1-.1.1-.3 0-.3-.1-.5-.3-.8-.3-.2 0-.3.1-.5.2-.1.1-.2.6-.3.6-.2 0-.4.1-.6.3-.1.1-.2.7-.1.7-.3 0-.6.4-.6.6 0 .1 0 .3.1.4 0 .1.3.3.2.3 0 .1-.3.3-.4.4l-1.6 1.6-2.3 2.3c-.3.3-.6.7-1 1l-.6.6-.1.1c-.1 0-.4-.4-.4-.4l-.3-.3h-.1c-.2 0-.4.4-.5.5.3.3.6.5.8.8.2.2.4.4.7.6.1.1.3.4.5.5l.1.1.2-.2c.1-.1.3-.2.3-.3v-.1c-.1-.2-.7-.5-.7-.7 0-.1.2-.2.2-.2l.4-.4c.4-.4.8-.8 1.1-1.2l2.7-2.7c.1-.1 1.5-1.6 1.5-1.6.5.3.8.8 1.4.9-.2-.1-.5-.4-.3-.6.1-.1.4 0 .5 0 .2 0 .5.1.7.1s.4.1.6.2c.2.2.4.5.5.7.5.7 1 1.3 1.5 2 .3.4.7.9 1.1 1.2 0 0 .2.1.2.2s-.1.2-.1.3l-.3.9c-.1.5-.1 1-.3 1.4-.2.4-.6.4-1 .4.7.4 1.3.2 1.7-.4.2-.2.3-.5.4-.8 0-.1.1-.3.2-.4-.3.5.2 1.3.5 1.6-1 .5-2.1.6-3.1 1.1-.2.1-.3.2-.5.3-.2.1-.6 0-.9.1-.5.2-1 .7-1.4 1.1-.1-.2-.3-.4-.4-.6s-.1-.2 0-.4c.2-.2.3-.5.4-.8.4-.9.2-1.9-.3-2.7-1-1.6-3.4-2.1-4.8-.7-.6.7-1.1 1.8-.7 2.8.1-.9.5-1.9 1.3-2.4.7-.4 1.5-.5 2.2-.1 1.5.8 1.6 3.2 0 4l.6.9c.1-.1.2-.2.3-.2.1.1.2.3.3.4 0 .1.1.1.1.2.1.2 0 .1-.1.3-.3.2-.5.5-.8.7-.3.3-.5.8-.3 1.2.1.3.5.5.8.5-.1-.3-.2-.6-.1-.9 0-.1.1-.3.2-.1 0 .1 0 .3.1.4 0 .3.1.5.2.7.2.3.6.5.9.6-.2-.3-.4-.6-.4-.9.1 0 .3 0 .4.1l.3.3c.2.1.4.1.6.1.3.2.4.6.7.7-.1-.3-.2-.7-.2-.9 0-.2.3-.3.5-.4.2-.2.4-.5.5-.8.1-.2 0-.6.1-.7.1-.2.5-.4.7-.5.1-.1.3-.2.4-.2h.3c.3 0 .6 0 .9-.1.6-.1 1.2-.1 1.8-.2h.5c.2 0 .2.1.3.3.1.3.3.5.5.7.7.9 1.6 1.6 2.7 2 .7.2 1.4.3 2.1.5.6.1 1.3.1 1.4.9-2.3.2-4.6.3-6.9.8-.6.1-1.2.3-1.7.5-.3.1-.6.2-.8.3-.2.1-.3.1-.4.2-.2.3 0 .9.2 1.1s.3.2.5.4.3.5.3.8c.3 1 .8 1.9 1.5 2.6.5.6 1.2 1.1 1.8 1.5.3.2.7.5.5.9s-.5.7-.8 1l-.9.9c-.2.1-.2.2-.4.3-.3 0-.5-.1-.8 0-.2 0-.3 0-.5.1-.1 0-.3.2-.5.2-.1 0-.4 0-.5-.1-.5-.2-1-.4-1.6 0-.5.3-.7 1-.8 1.5-.1.3-.2.8 0 1 .2-.2.4-.3.5-.5.1-.1.3-.3.4-.3 0 0 .2.3.3.4.1.1.2.1.3.1.1.1.3.1.4.3s.1.5.2.7.2.5.5.7c.1.1.6.3.7.2 0-.1-.2-.3-.2-.4-.2-.3-.3-.6-.2-.9.2 0 .5.1.7 0 .3-.2.1-.4.4-.1.2.3.7.7 1.2.6.1.2.1.5.3.7.2-.4.3-.8.5-1.2.2-.2.3-.5.3-.8v-.4c.1-.2.2-.3.4-.5l1-1c.6-.6 1.2-1.4 1.9-1.9.4-.3 1.3-.4 1.3-1.1 0-.6-.6-1.1-1.1-1.5-.4-.3-.9-.5-1.1-1.1-.2-.8 1-1.3 1.5-1.5.4-.1.9-.3 1.3-.4.1 0 .3-.1.4-.1.2-.1.2-.1.3.1.4.8 1 1.4 1.6 2l.9.9.5.5.2.2c.2.2.1.2.1.3 0 .7.6.9 1.3.9.3 0 .6-.1 1 0 .3.1.6.3.9.4.3.2.6.3.9.4.2.1.3.1.5.1h.3c.1 0 .1 0 .2.2.3.8.5 1.6.5 2.4v.5c-.1.1-.3.2-.5.3-.1.1-.2.1-.3.2-.1.1-.2.3-.3.3h-.4c-.3 0-.6.1-.8.2-.2.1-.3.2-.5.1-.6-.3-1.2-.3-1.7.1s-1 1.5-.7 2.1c.1-.1.4-.6.5-.6s.3.2.3.2c.2.1.3.2.5.3.1 0 .3 0 .4.1.2.1.3.4.3.6.1.2.3.5.6.5 0-.3-.3-.6.1-.8.2-.1.6 0 .7-.4.2.3.4.6.8.7h.3s.1.2.1.3.1.3.2.4c.1.1.2.1.2 0 .1-.1.2-.4.2-.5s0-.2.1-.3c0-.1.1-.1.2-.2.1-.2.2-.4.2-.6.4 0 .7.1 1.1.1.3 0 .6 0 .7-.3.1-.4-.2-.9-.2-1.3v-2.7c0-.7-.1-1.5.1-2.1.1-.5.3-1.1 0-1.6-.2-.5-.8-.8-1.3-.9-.5-.1-1.1.1-1.6-.2-.2-.1-.4-.2-.5-.3-.4-.4-.6-1-.8-1.6-.2-1.1-.2-2.3-.1-3.4v-.6s.2 0 .2-.1c.2-.1.5-.1.7-.2.5-.2.9-.4 1.3-.7.8-.6 1.3-1.5 1.5-2.5.1-.6.2-1.2.2-1.8 0-.7-.1-1.3-.1-2 .3.2.6.4 1 .4-.5-.4-.8-.9-1-1.4-.1-.3-.4-1-.3-1.3.2-.4.3.7.4.8.2.5.4 1 .8 1.4-.3-.8-.3-1.6-.3-2.4-.1-.7-.4-1.2-1.2-1.3h-.4l-.2.1c-.1 0-.2-.4-.3-.5-.2-.6-.4-1.2-.3-1.9.1-.9.4-1.9 1-2.6.3.6.6 1.2 1.2 1.5.5.3 1 .4 1.5.4.7-.1 1.3-.6 1.6-1.3.3-.8.1-1.6-.5-2.2-.7.2-1.7.1-2.7.4zm2.1 2c-.1.4-.6.5-.9.4-.6-.2-.8-.8-1.1-1.3.5-.2 1-.4 1.5-.2.4.2.6.7.5 1.1z"/><path d="M574 299.6V276h3.5l-2.9-4h-.6v-.8l-4-5.6v6.4h-16v-20h6.3l-2.9-4H554v-4.8l-4-5.6V248h-16v-20h9.1l-2.9-4H534v-8.8l-4-5.6V224h-16v-22.4h-4V224h-16v-14.4l-4 5.6v8.8h-6.3l-2.9 4h9.1v20h-16v-10.4l-4 5.6v4.8h-3.4l-2.9 4h6.3v20h-16v-6.4l-4 5.6v.8h-.6l-2.9 4h3.5v23.6h4V276h16v23.6h4V276h16v23.6h4V276h16v23.6h4V276h16v23.6h4V276h16v23.6h4V276h16v23.6h4.1zM490 272h-16v-20h16v20zm20 0h-16v-20h16v20zm0-24h-16v-20h16v20zm20 24h-16v-20h16v20zm0-24h-16v-20h16v20zm20 24h-16v-20h16v20z" opacity=".15" fill="#444"/></svg>