<svg version="1.1" xmlns="http://www.w3.org/2000/svg" x="0" y="0" viewBox="0 0 512 512" xml:space="preserve"><style type="text/css">.st0{fill:#e0d6af}.st1{fill:#3498db}.st2{fill:#c6c6c6}.st3,.st4{opacity:.15;fill:#3498db}.st4{opacity:.3}.st5{fill:#36434f}.st6{fill:#fff4c7}.st7{fill:#c6b98d}.st8{fill:#7d4b36}.st9{fill:#d5b246}</style><path class="st0" d="M0 187h36v144H0z"/><path class="st1" d="M7 202h6v7H7zm0 14h6v7H7zm0 14h6v7H7zm0 14h6v7H7zm0 14h6v7H7zm0 14h6v7H7zm0 14h6v7H7zm0 14h6v7H7zm0 14h6v7H7z"/><path class="st2" d="M0 187h36v13H0z"/><path class="st1" d="M15 199h21v8.4H15z"/><path class="st3" d="M15 207.4h21v5.6H15z"/><path class="st4" d="M16 207.4h1v5.6h-1zm2 0h1v5.6h-1zm2 0h1v5.6h-1zm2 0h1v5.6h-1zm2 0h1v5.6h-1zm2 0h1v5.6h-1zm2 0h1v5.6h-1zm2 0h1v5.6h-1zm2 0h1v5.6h-1zm2 0h1v5.6h-1z"/><path class="st1" d="M15 213h21v8.4H15z"/><path class="st3" d="M15 221.4h21v5.6H15z"/><path class="st4" d="M16 221.4h1v5.6h-1zm2 0h1v5.6h-1zm2 0h1v5.6h-1zm2 0h1v5.6h-1zm2 0h1v5.6h-1zm2 0h1v5.6h-1zm2 0h1v5.6h-1zm2 0h1v5.6h-1zm2 0h1v5.6h-1zm2 0h1v5.6h-1z"/><path class="st1" d="M15 227h21v8.4H15z"/><path class="st3" d="M15 235.4h21v5.6H15z"/><path class="st4" d="M16 235.4h1v5.6h-1zm2 0h1v5.6h-1zm2 0h1v5.6h-1zm2 0h1v5.6h-1zm2 0h1v5.6h-1zm2 0h1v5.6h-1zm2 0h1v5.6h-1zm2 0h1v5.6h-1zm2 0h1v5.6h-1zm2 0h1v5.6h-1z"/><path class="st1" d="M15 241h21v8.4H15z"/><path class="st3" d="M15 249.4h21v5.6H15z"/><path class="st4" d="M16 249.4h1v5.6h-1zm2 0h1v5.6h-1zm2 0h1v5.6h-1zm2 0h1v5.6h-1zm2 0h1v5.6h-1zm2 0h1v5.6h-1zm2 0h1v5.6h-1zm2 0h1v5.6h-1zm2 0h1v5.6h-1zm2 0h1v5.6h-1z"/><path class="st1" d="M15 255h21v8.4H15z"/><path class="st3" d="M15 263.4h21v5.6H15z"/><path class="st4" d="M16 263.4h1v5.6h-1zm2 0h1v5.6h-1zm2 0h1v5.6h-1zm2 0h1v5.6h-1zm2 0h1v5.6h-1zm2 0h1v5.6h-1zm2 0h1v5.6h-1zm2 0h1v5.6h-1zm2 0h1v5.6h-1zm2 0h1v5.6h-1z"/><path class="st1" d="M15 269h21v8.4H15z"/><path class="st3" d="M15 277.4h21v5.6H15z"/><path class="st4" d="M16 277.4h1v5.6h-1zm2 0h1v5.6h-1zm2 0h1v5.6h-1zm2 0h1v5.6h-1zm2 0h1v5.6h-1zm2 0h1v5.6h-1zm2 0h1v5.6h-1zm2 0h1v5.6h-1zm2 0h1v5.6h-1zm2 0h1v5.6h-1z"/><path class="st1" d="M15 283h21v8.4H15z"/><path class="st3" d="M15 291.4h21v5.6H15z"/><path class="st4" d="M16 291.4h1v5.6h-1zm2 0h1v5.6h-1zm2 0h1v5.6h-1zm2 0h1v5.6h-1zm2 0h1v5.6h-1zm2 0h1v5.6h-1zm2 0h1v5.6h-1zm2 0h1v5.6h-1zm2 0h1v5.6h-1zm2 0h1v5.6h-1z"/><path class="st1" d="M15 297h21v8.4H15z"/><path class="st3" d="M15 305.4h21v5.6H15z"/><path class="st4" d="M16 305.4h1v5.6h-1zm2 0h1v5.6h-1zm2 0h1v5.6h-1zm2 0h1v5.6h-1zm2 0h1v5.6h-1zm2 0h1v5.6h-1zm2 0h1v5.6h-1zm2 0h1v5.6h-1zm2 0h1v5.6h-1zm2 0h1v5.6h-1z"/><path class="st1" d="M25 314h10v7H25z"/><path class="st5" d="M9.5 192.5h1v2h-1zm20 0h1v2h-1z"/><path class="st6" d="M17 182h5v5h-5z"/><path class="st5" d="M17 179h5v2h-5z"/><path class="st6" d="M74 333H36V185h38z"/><path class="st1" d="M65 207h-6v-7h6zm0 14h-6v-7h6zm0 14h-6v-7h6zm0 14h-6v-7h6zm0 14h-6v-7h6zm0 14h-6v-7h6zm0 14h-6v-7h6zm0 14h-6v-7h6zm0 14h-6v-7h6z"/><path class="st2" d="M36 185h38v13H36z"/><path class="st1" d="M55 205.4H36V197h19z"/><path class="st3" d="M55 211H36v-5.6h19z"/><path class="st4" d="M54 211h-1v-5.6h1zm-2 0h-1v-5.6h1zm-2 0h-1v-5.6h1zm-2 0h-1v-5.6h1zm-2 0h-1v-5.6h1zm-2 0h-1v-5.6h1zm-2 0h-1v-5.6h1zm-2 0h-1v-5.6h1zm-2 0h-1v-5.6h1z"/><path class="st5" d="M62.5 192.5h-1v-2h1zm-16 0h-1v-2h1z"/><path class="st6" d="M72 185h-5v-5h5z"/><path class="st5" d="M72 179h-5v-2h5z"/><path class="st1" d="M50 319h-6v-7h6zm5-99.6H36V211h19z"/><path class="st3" d="M55 225H36v-5.6h19z"/><path class="st4" d="M54 225h-1v-5.6h1zm-2 0h-1v-5.6h1zm-2 0h-1v-5.6h1zm-2 0h-1v-5.6h1zm-2 0h-1v-5.6h1zm-2 0h-1v-5.6h1zm-2 0h-1v-5.6h1zm-2 0h-1v-5.6h1zm-2 0h-1v-5.6h1z"/><path class="st1" d="M55 233.4H36V225h19z"/><path class="st3" d="M55 239H36v-5.6h19z"/><path class="st4" d="M54 239h-1v-5.6h1zm-2 0h-1v-5.6h1zm-2 0h-1v-5.6h1zm-2 0h-1v-5.6h1zm-2 0h-1v-5.6h1zm-2 0h-1v-5.6h1zm-2 0h-1v-5.6h1zm-2 0h-1v-5.6h1zm-2 0h-1v-5.6h1z"/><path class="st1" d="M55 247.4H36V239h19z"/><path class="st3" d="M55 253H36v-5.6h19z"/><path class="st4" d="M54 253h-1v-5.6h1zm-2 0h-1v-5.6h1zm-2 0h-1v-5.6h1zm-2 0h-1v-5.6h1zm-2 0h-1v-5.6h1zm-2 0h-1v-5.6h1zm-2 0h-1v-5.6h1zm-2 0h-1v-5.6h1zm-2 0h-1v-5.6h1z"/><path class="st1" d="M55 261.4H36V253h19z"/><path class="st3" d="M55 267H36v-5.6h19z"/><path class="st4" d="M54 267h-1v-5.6h1zm-2 0h-1v-5.6h1zm-2 0h-1v-5.6h1zm-2 0h-1v-5.6h1zm-2 0h-1v-5.6h1zm-2 0h-1v-5.6h1zm-2 0h-1v-5.6h1zm-2 0h-1v-5.6h1zm-2 0h-1v-5.6h1z"/><path class="st1" d="M55 275.4H36V267h19z"/><path class="st3" d="M55 281H36v-5.6h19z"/><path class="st4" d="M54 281h-1v-5.6h1zm-2 0h-1v-5.6h1zm-2 0h-1v-5.6h1zm-2 0h-1v-5.6h1zm-2 0h-1v-5.6h1zm-2 0h-1v-5.6h1zm-2 0h-1v-5.6h1zm-2 0h-1v-5.6h1zm-2 0h-1v-5.6h1z"/><path class="st1" d="M55 289.4H36V281h19z"/><path class="st3" d="M55 295H36v-5.6h19z"/><path class="st4" d="M54 295h-1v-5.6h1zm-2 0h-1v-5.6h1zm-2 0h-1v-5.6h1zm-2 0h-1v-5.6h1zm-2 0h-1v-5.6h1zm-2 0h-1v-5.6h1zm-2 0h-1v-5.6h1zm-2 0h-1v-5.6h1zm-2 0h-1v-5.6h1z"/><path class="st1" d="M55 303.4H36V295h19z"/><path class="st3" d="M55 309H36v-5.6h19z"/><path class="st4" d="M54 309h-1v-5.6h1zm-2 0h-1v-5.6h1zm-2 0h-1v-5.6h1zm-2 0h-1v-5.6h1zm-2 0h-1v-5.6h1zm-2 0h-1v-5.6h1zm-2 0h-1v-5.6h1zm-2 0h-1v-5.6h1zm-2 0h-1v-5.6h1z"/><path class="st7" d="M74 187h27v144H74z"/><path class="st2" d="M74 187h27v13H74z"/><path class="st1" d="M77 207h6v4h-6zm0 14h6v4h-6zm0 14h6v4h-6zm0 14h6v4h-6zm0 14h6v4h-6zm0 14h6v4h-6zm0 14h6v4h-6zm0 14h6v4h-6zm15-89h6v4h-6zm0 14h6v4h-6zm0 14h6v4h-6zm0 14h6v4h-6zm0 14h6v4h-6zm0 14h6v4h-6zm0 14h6v4h-6zm0-98h6v4h-6z"/><path class="st5" d="M88 194.5h-1v-2h1z"/><path class="st0" d="M74 311h27v5H74z"/><path class="st6" d="M74 316h27v2H74z"/><path class="st8" d="M74 318h27v13H74z"/><path class="st6" d="M101 185h36v148h-36z"/><path class="st1" d="M107 200h6v7h-6zm0 14h6v7h-6zm0 14h6v7h-6zm0 14h6v7h-6zm0 14h6v7h-6zm0 14h6v7h-6zm0 14h6v7h-6zm0 14h6v7h-6zm0 14h6v7h-6z"/><path class="st2" d="M101 185h36v13h-36z"/><path class="st1" d="M116 197h21v8.4h-21z"/><path class="st3" d="M116 205.4h21v5.6h-21z"/><path class="st4" d="M117 205.4h1v5.6h-1zm2 0h1v5.6h-1zm2 0h1v5.6h-1zm2 0h1v5.6h-1zm2 0h1v5.6h-1zm2 0h1v5.6h-1zm2 0h1v5.6h-1zm2 0h1v5.6h-1zm2 0h1v5.6h-1zm2 0h1v5.6h-1z"/><path class="st1" d="M116 211h21v8.4h-21z"/><path class="st3" d="M116 219.4h21v5.6h-21z"/><path class="st4" d="M117 219.4h1v5.6h-1zm2 0h1v5.6h-1zm2 0h1v5.6h-1zm2 0h1v5.6h-1zm2 0h1v5.6h-1zm2 0h1v5.6h-1zm2 0h1v5.6h-1zm2 0h1v5.6h-1zm2 0h1v5.6h-1zm2 0h1v5.6h-1z"/><path class="st1" d="M116 225h21v8.4h-21z"/><path class="st3" d="M116 233.4h21v5.6h-21z"/><path class="st4" d="M117 233.4h1v5.6h-1zm2 0h1v5.6h-1zm2 0h1v5.6h-1zm2 0h1v5.6h-1zm2 0h1v5.6h-1zm2 0h1v5.6h-1zm2 0h1v5.6h-1zm2 0h1v5.6h-1zm2 0h1v5.6h-1zm2 0h1v5.6h-1z"/><path class="st1" d="M116 239h21v8.4h-21z"/><path class="st3" d="M116 247.4h21v5.6h-21z"/><path class="st4" d="M117 247.4h1v5.6h-1zm2 0h1v5.6h-1zm2 0h1v5.6h-1zm2 0h1v5.6h-1zm2 0h1v5.6h-1zm2 0h1v5.6h-1zm2 0h1v5.6h-1zm2 0h1v5.6h-1zm2 0h1v5.6h-1zm2 0h1v5.6h-1z"/><path class="st1" d="M116 253h21v8.4h-21z"/><path class="st3" d="M116 261.4h21v5.6h-21z"/><path class="st4" d="M117 261.4h1v5.6h-1zm2 0h1v5.6h-1zm2 0h1v5.6h-1zm2 0h1v5.6h-1zm2 0h1v5.6h-1zm2 0h1v5.6h-1zm2 0h1v5.6h-1zm2 0h1v5.6h-1zm2 0h1v5.6h-1zm2 0h1v5.6h-1z"/><path class="st1" d="M116 267h21v8.4h-21z"/><path class="st3" d="M116 275.4h21v5.6h-21z"/><path class="st4" d="M117 275.4h1v5.6h-1zm2 0h1v5.6h-1zm2 0h1v5.6h-1zm2 0h1v5.6h-1zm2 0h1v5.6h-1zm2 0h1v5.6h-1zm2 0h1v5.6h-1zm2 0h1v5.6h-1zm2 0h1v5.6h-1zm2 0h1v5.6h-1z"/><path class="st1" d="M116 281h21v8.4h-21z"/><path class="st3" d="M116 289.4h21v5.6h-21z"/><path class="st4" d="M117 289.4h1v5.6h-1zm2 0h1v5.6h-1zm2 0h1v5.6h-1zm2 0h1v5.6h-1zm2 0h1v5.6h-1zm2 0h1v5.6h-1zm2 0h1v5.6h-1zm2 0h1v5.6h-1zm2 0h1v5.6h-1zm2 0h1v5.6h-1z"/><path class="st1" d="M116 295h21v8.4h-21z"/><path class="st3" d="M116 303.4h21v5.6h-21z"/><path class="st4" d="M117 303.4h1v5.6h-1zm2 0h1v5.6h-1zm2 0h1v5.6h-1zm2 0h1v5.6h-1zm2 0h1v5.6h-1zm2 0h1v5.6h-1zm2 0h1v5.6h-1zm2 0h1v5.6h-1zm2 0h1v5.6h-1zm2 0h1v5.6h-1z"/><path class="st1" d="M126 312h10v7h-10z"/><path class="st5" d="M108.5 190.5h1v2h-1zm16 0h1v2h-1z"/><path class="st6" d="M112 180h5v5h-5z"/><path class="st5" d="M112 177h5v2h-5z"/><path class="st0" d="M174 331h-37V187h37z"/><path class="st1" d="M169 209h-6v-7h6zm0 14h-6v-7h6zm0 14h-6v-7h6zm0 14h-6v-7h6zm0 14h-6v-7h6zm0 14h-6v-7h6zm0 14h-6v-7h6z"/><path class="st9" d="M169 307h-6v-7h6z"/><path class="st1" d="M169 321h-6v-7h6z"/><path class="st2" d="M137 187h37v13h-37z"/><path class="st1" d="M156 207.4h-19V199h19z"/><path class="st3" d="M156 213h-19v-5.6h19z"/><path class="st4" d="M155 213h-1v-5.6h1zm-2 0h-1v-5.6h1zm-2 0h-1v-5.6h1zm-2 0h-1v-5.6h1zm-2 0h-1v-5.6h1zm-2 0h-1v-5.6h1zm-2 0h-1v-5.6h1zm-2 0h-1v-5.6h1zm-2 0h-1v-5.6h1z"/><path class="st5" d="M165.5 194.5h-1v-2h1zm-18 0h-1v-2h1z"/><path class="st6" d="M171 187h-5v-3h5z"/><path class="st5" d="M171 183h-5v-2h5z"/><path class="st1" d="M153 321h-10v-7h10zm3-99.6h-19V213h19z"/><path class="st3" d="M156 227h-19v-5.6h19z"/><path class="st4" d="M155 227h-1v-5.6h1zm-2 0h-1v-5.6h1zm-2 0h-1v-5.6h1zm-2 0h-1v-5.6h1zm-2 0h-1v-5.6h1zm-2 0h-1v-5.6h1zm-2 0h-1v-5.6h1zm-2 0h-1v-5.6h1zm-2 0h-1v-5.6h1z"/><path class="st1" d="M156 235.4h-19V227h19z"/><path class="st3" d="M156 241h-19v-5.6h19z"/><path class="st4" d="M155 241h-1v-5.6h1zm-2 0h-1v-5.6h1zm-2 0h-1v-5.6h1zm-2 0h-1v-5.6h1zm-2 0h-1v-5.6h1zm-2 0h-1v-5.6h1zm-2 0h-1v-5.6h1zm-2 0h-1v-5.6h1zm-2 0h-1v-5.6h1z"/><path class="st1" d="M156 249.4h-19V241h19z"/><path class="st3" d="M156 255h-19v-5.6h19z"/><path class="st4" d="M155 255h-1v-5.6h1zm-2 0h-1v-5.6h1zm-2 0h-1v-5.6h1zm-2 0h-1v-5.6h1zm-2 0h-1v-5.6h1zm-2 0h-1v-5.6h1zm-2 0h-1v-5.6h1zm-2 0h-1v-5.6h1zm-2 0h-1v-5.6h1z"/><path class="st1" d="M156 263.4h-19V255h19z"/><path class="st3" d="M156 269h-19v-5.6h19z"/><path class="st4" d="M155 269h-1v-5.6h1zm-2 0h-1v-5.6h1zm-2 0h-1v-5.6h1zm-2 0h-1v-5.6h1zm-2 0h-1v-5.6h1zm-2 0h-1v-5.6h1zm-2 0h-1v-5.6h1zm-2 0h-1v-5.6h1zm-2 0h-1v-5.6h1z"/><path class="st1" d="M156 277.4h-19V269h19z"/><path class="st3" d="M156 283h-19v-5.6h19z"/><path class="st4" d="M155 283h-1v-5.6h1zm-2 0h-1v-5.6h1zm-2 0h-1v-5.6h1zm-2 0h-1v-5.6h1zm-2 0h-1v-5.6h1zm-2 0h-1v-5.6h1zm-2 0h-1v-5.6h1zm-2 0h-1v-5.6h1zm-2 0h-1v-5.6h1z"/><path class="st1" d="M156 291.4h-19V283h19z"/><path class="st3" d="M156 297h-19v-5.6h19z"/><path class="st4" d="M155 297h-1v-5.6h1zm-2 0h-1v-5.6h1zm-2 0h-1v-5.6h1zm-2 0h-1v-5.6h1zm-2 0h-1v-5.6h1zm-2 0h-1v-5.6h1zm-2 0h-1v-5.6h1zm-2 0h-1v-5.6h1zm-2 0h-1v-5.6h1z"/><path class="st9" d="M156 305.4h-19V297h19z"/><path class="st3" d="M156 311h-19v-5.6h19z"/><path class="st4" d="M155 311h-1v-5.6h1zm-2 0h-1v-5.6h1zm-2 0h-1v-5.6h1zm-2 0h-1v-5.6h1zm-2 0h-1v-5.6h1zm-2 0h-1v-5.6h1zm-2 0h-1v-5.6h1zm-2 0h-1v-5.6h1zm-2 0h-1v-5.6h1z"/><path class="st0" d="M174 187h36v144h-36z"/><path class="st1" d="M179 202h6v7h-6zm0 14h6v7h-6zm0 14h6v7h-6zm0 14h6v7h-6zm0 14h6v7h-6zm0 14h6v7h-6zm0 14h6v7h-6zm0 14h6v7h-6zm0 14h6v7h-6z"/><path class="st2" d="M174 187h36v13h-36z"/><path class="st1" d="M189 199h21v8.4h-21z"/><path class="st3" d="M189 207.4h21v5.6h-21z"/><path class="st4" d="M190 207.4h1v5.6h-1zm2 0h1v5.6h-1zm2 0h1v5.6h-1zm2 0h1v5.6h-1zm2 0h1v5.6h-1zm2 0h1v5.6h-1zm2 0h1v5.6h-1zm2 0h1v5.6h-1zm2 0h1v5.6h-1zm2 0h1v5.6h-1z"/><path class="st1" d="M189 213h21v8.4h-21z"/><path class="st3" d="M189 221.4h21v5.6h-21z"/><path class="st4" d="M190 221.4h1v5.6h-1zm2 0h1v5.6h-1zm2 0h1v5.6h-1zm2 0h1v5.6h-1zm2 0h1v5.6h-1zm2 0h1v5.6h-1zm2 0h1v5.6h-1zm2 0h1v5.6h-1zm2 0h1v5.6h-1zm2 0h1v5.6h-1z"/><path class="st1" d="M189 227h21v8.4h-21z"/><path class="st3" d="M189 235.4h21v5.6h-21z"/><path class="st4" d="M190 235.4h1v5.6h-1zm2 0h1v5.6h-1zm2 0h1v5.6h-1zm2 0h1v5.6h-1zm2 0h1v5.6h-1zm2 0h1v5.6h-1zm2 0h1v5.6h-1zm2 0h1v5.6h-1zm2 0h1v5.6h-1zm2 0h1v5.6h-1z"/><path class="st1" d="M189 241h21v8.4h-21z"/><path class="st3" d="M189 249.4h21v5.6h-21z"/><path class="st4" d="M190 249.4h1v5.6h-1zm2 0h1v5.6h-1zm2 0h1v5.6h-1zm2 0h1v5.6h-1zm2 0h1v5.6h-1zm2 0h1v5.6h-1zm2 0h1v5.6h-1zm2 0h1v5.6h-1zm2 0h1v5.6h-1zm2 0h1v5.6h-1z"/><path class="st1" d="M189 255h21v8.4h-21z"/><path class="st3" d="M189 263.4h21v5.6h-21z"/><path class="st4" d="M190 263.4h1v5.6h-1zm2 0h1v5.6h-1zm2 0h1v5.6h-1zm2 0h1v5.6h-1zm2 0h1v5.6h-1zm2 0h1v5.6h-1zm2 0h1v5.6h-1zm2 0h1v5.6h-1zm2 0h1v5.6h-1zm2 0h1v5.6h-1z"/><path class="st1" d="M189 269h21v8.4h-21z"/><path class="st3" d="M189 277.4h21v5.6h-21z"/><path class="st4" d="M190 277.4h1v5.6h-1zm2 0h1v5.6h-1zm2 0h1v5.6h-1zm2 0h1v5.6h-1zm2 0h1v5.6h-1zm2 0h1v5.6h-1zm2 0h1v5.6h-1zm2 0h1v5.6h-1zm2 0h1v5.6h-1zm2 0h1v5.6h-1z"/><path class="st1" d="M189 283h21v8.4h-21z"/><path class="st3" d="M189 291.4h21v5.6h-21z"/><path class="st4" d="M190 291.4h1v5.6h-1zm2 0h1v5.6h-1zm2 0h1v5.6h-1zm2 0h1v5.6h-1zm2 0h1v5.6h-1zm2 0h1v5.6h-1zm2 0h1v5.6h-1zm2 0h1v5.6h-1zm2 0h1v5.6h-1zm2 0h1v5.6h-1z"/><path class="st1" d="M189 297h21v8.4h-21z"/><path class="st3" d="M189 305.4h21v5.6h-21z"/><path class="st4" d="M190 305.4h1v5.6h-1zm2 0h1v5.6h-1zm2 0h1v5.6h-1zm2 0h1v5.6h-1zm2 0h1v5.6h-1zm2 0h1v5.6h-1zm2 0h1v5.6h-1zm2 0h1v5.6h-1zm2 0h1v5.6h-1zm2 0h1v5.6h-1z"/><path class="st1" d="M196 314h10v7h-10z"/><path class="st5" d="M180.5 192.5h1v2h-1zm19 0h1v2h-1z"/><path class="st6" d="M184 186h5v1h-5z"/><path class="st5" d="M184 183h5v2h-5z"/><path class="st6" d="M243 333h-33V185h33z"/><path class="st1" d="M238 207h-6v-7h6zm0 14h-6v-7h6zm0 14h-6v-7h6zm0 14h-6v-7h6zm0 14h-6v-7h6zm0 14h-6v-7h6zm0 14h-6v-7h6zm0 14h-6v-7h6zm0 14h-6v-7h6z"/><path class="st2" d="M210 185h33v13h-33z"/><path class="st1" d="M229 205.4h-19V197h19z"/><path class="st3" d="M229 211h-19v-5.6h19z"/><path class="st4" d="M228 211h-1v-5.6h1zm-2 0h-1v-5.6h1zm-2 0h-1v-5.6h1zm-2 0h-1v-5.6h1zm-2 0h-1v-5.6h1zm-2 0h-1v-5.6h1zm-2 0h-1v-5.6h1zm-2 0h-1v-5.6h1zm-2 0h-1v-5.6h1z"/><path class="st5" d="M234.5 192.5h-1v-2h1zm-16 0h-1v-2h1z"/><path class="st6" d="M237 185h-5v-2h5z"/><path class="st5" d="M237 182h-5v-2h5z"/><path class="st1" d="M224 319h-6v-7h6zm5-99.6h-19V211h19z"/><path class="st3" d="M229 225h-19v-5.6h19z"/><path class="st4" d="M228 225h-1v-5.6h1zm-2 0h-1v-5.6h1zm-2 0h-1v-5.6h1zm-2 0h-1v-5.6h1zm-2 0h-1v-5.6h1zm-2 0h-1v-5.6h1zm-2 0h-1v-5.6h1zm-2 0h-1v-5.6h1zm-2 0h-1v-5.6h1z"/><path class="st1" d="M229 233.4h-19V225h19z"/><path class="st3" d="M229 239h-19v-5.6h19z"/><path class="st4" d="M228 239h-1v-5.6h1zm-2 0h-1v-5.6h1zm-2 0h-1v-5.6h1zm-2 0h-1v-5.6h1zm-2 0h-1v-5.6h1zm-2 0h-1v-5.6h1zm-2 0h-1v-5.6h1zm-2 0h-1v-5.6h1zm-2 0h-1v-5.6h1z"/><path class="st1" d="M229 247.4h-19V239h19z"/><path class="st3" d="M229 253h-19v-5.6h19z"/><path class="st4" d="M228 253h-1v-5.6h1zm-2 0h-1v-5.6h1zm-2 0h-1v-5.6h1zm-2 0h-1v-5.6h1zm-2 0h-1v-5.6h1zm-2 0h-1v-5.6h1zm-2 0h-1v-5.6h1zm-2 0h-1v-5.6h1zm-2 0h-1v-5.6h1z"/><path class="st1" d="M229 261.4h-19V253h19z"/><path class="st3" d="M229 267h-19v-5.6h19z"/><path class="st4" d="M228 267h-1v-5.6h1zm-2 0h-1v-5.6h1zm-2 0h-1v-5.6h1zm-2 0h-1v-5.6h1zm-2 0h-1v-5.6h1zm-2 0h-1v-5.6h1zm-2 0h-1v-5.6h1zm-2 0h-1v-5.6h1zm-2 0h-1v-5.6h1z"/><path class="st1" d="M229 275.4h-19V267h19z"/><path class="st3" d="M229 281h-19v-5.6h19z"/><path class="st4" d="M228 281h-1v-5.6h1zm-2 0h-1v-5.6h1zm-2 0h-1v-5.6h1zm-2 0h-1v-5.6h1zm-2 0h-1v-5.6h1zm-2 0h-1v-5.6h1zm-2 0h-1v-5.6h1zm-2 0h-1v-5.6h1zm-2 0h-1v-5.6h1z"/><path class="st1" d="M229 289.4h-19V281h19z"/><path class="st3" d="M229 295h-19v-5.6h19z"/><path class="st4" d="M228 295h-1v-5.6h1zm-2 0h-1v-5.6h1zm-2 0h-1v-5.6h1zm-2 0h-1v-5.6h1zm-2 0h-1v-5.6h1zm-2 0h-1v-5.6h1zm-2 0h-1v-5.6h1zm-2 0h-1v-5.6h1zm-2 0h-1v-5.6h1z"/><path class="st1" d="M229 303.4h-19V295h19z"/><path class="st3" d="M229 309h-19v-5.6h19z"/><path class="st4" d="M228 309h-1v-5.6h1zm-2 0h-1v-5.6h1zm-2 0h-1v-5.6h1zm-2 0h-1v-5.6h1zm-2 0h-1v-5.6h1zm-2 0h-1v-5.6h1zm-2 0h-1v-5.6h1zm-2 0h-1v-5.6h1zm-2 0h-1v-5.6h1z"/><path class="st7" d="M243 187h27v144h-27z"/><path class="st2" d="M243 187h27v13h-27z"/><path class="st1" d="M246 207h6v4h-6zm0 14h6v4h-6zm0 14h6v4h-6zm0 14h6v4h-6zm0 14h6v4h-6zm0 14h6v4h-6zm0 14h6v4h-6zm0 14h6v4h-6zm15-89h6v4h-6zm0 14h6v4h-6zm0 14h6v4h-6zm0 14h6v4h-6zm0 14h6v4h-6zm0 14h6v4h-6zm0 14h6v4h-6zm0-98h6v4h-6z"/><path class="st5" d="M257 194.5h-1v-2h1z"/><path class="st0" d="M243 311h27v5h-27z"/><path class="st6" d="M243 316h27v2h-27z"/><path class="st8" d="M243 318h27v13h-27z"/><path class="st6" d="M270 185h33v148h-33z"/><path class="st1" d="M275 200h6v7h-6zm0 14h6v7h-6zm0 14h6v7h-6zm0 14h6v7h-6zm0 14h6v7h-6zm0 14h6v7h-6zm0 14h6v7h-6zm0 14h6v7h-6zm0 14h6v7h-6z"/><path class="st2" d="M303 198h-33v-13h33z"/><path class="st1" d="M284 197h19v8.4h-19z"/><path class="st3" d="M284 205.4h19v5.6h-19z"/><path class="st4" d="M285 205.4h1v5.6h-1zm2 0h1v5.6h-1zm2 0h1v5.6h-1zm2 0h1v5.6h-1zm2 0h1v5.6h-1zm2 0h1v5.6h-1zm2 0h1v5.6h-1zm2 0h1v5.6h-1zm2 0h1v5.6h-1z"/><path class="st5" d="M278.5 190.5h1v2h-1zm16 0h1v2h-1z"/><path class="st6" d="M276 183h5v2h-5z"/><path class="st5" d="M276 180h5v2h-5z"/><path class="st1" d="M289 312h6v7h-6zm-5-101h19v8.4h-19z"/><path class="st3" d="M284 219.4h19v5.6h-19z"/><path class="st4" d="M285 219.4h1v5.6h-1zm2 0h1v5.6h-1zm2 0h1v5.6h-1zm2 0h1v5.6h-1zm2 0h1v5.6h-1zm2 0h1v5.6h-1zm2 0h1v5.6h-1zm2 0h1v5.6h-1zm2 0h1v5.6h-1z"/><path class="st1" d="M284 225h19v8.4h-19z"/><path class="st3" d="M284 233.4h19v5.6h-19z"/><path class="st4" d="M285 233.4h1v5.6h-1zm2 0h1v5.6h-1zm2 0h1v5.6h-1zm2 0h1v5.6h-1zm2 0h1v5.6h-1zm2 0h1v5.6h-1zm2 0h1v5.6h-1zm2 0h1v5.6h-1zm2 0h1v5.6h-1z"/><path class="st1" d="M284 239h19v8.4h-19z"/><path class="st3" d="M284 247.4h19v5.6h-19z"/><path class="st4" d="M285 247.4h1v5.6h-1zm2 0h1v5.6h-1zm2 0h1v5.6h-1zm2 0h1v5.6h-1zm2 0h1v5.6h-1zm2 0h1v5.6h-1zm2 0h1v5.6h-1zm2 0h1v5.6h-1zm2 0h1v5.6h-1z"/><path class="st1" d="M284 253h19v8.4h-19z"/><path class="st3" d="M284 261.4h19v5.6h-19z"/><path class="st4" d="M285 261.4h1v5.6h-1zm2 0h1v5.6h-1zm2 0h1v5.6h-1zm2 0h1v5.6h-1zm2 0h1v5.6h-1zm2 0h1v5.6h-1zm2 0h1v5.6h-1zm2 0h1v5.6h-1zm2 0h1v5.6h-1z"/><path class="st1" d="M284 267h19v8.4h-19z"/><path class="st3" d="M284 275.4h19v5.6h-19z"/><path class="st4" d="M285 275.4h1v5.6h-1zm2 0h1v5.6h-1zm2 0h1v5.6h-1zm2 0h1v5.6h-1zm2 0h1v5.6h-1zm2 0h1v5.6h-1zm2 0h1v5.6h-1zm2 0h1v5.6h-1zm2 0h1v5.6h-1z"/><path class="st1" d="M284 281h19v8.4h-19z"/><path class="st3" d="M284 289.4h19v5.6h-19z"/><path class="st4" d="M285 289.4h1v5.6h-1zm2 0h1v5.6h-1zm2 0h1v5.6h-1zm2 0h1v5.6h-1zm2 0h1v5.6h-1zm2 0h1v5.6h-1zm2 0h1v5.6h-1zm2 0h1v5.6h-1zm2 0h1v5.6h-1z"/><path class="st1" d="M284 295h19v8.4h-19z"/><path class="st3" d="M284 303.4h19v5.6h-19z"/><path class="st4" d="M285 303.4h1v5.6h-1zm2 0h1v5.6h-1zm2 0h1v5.6h-1zm2 0h1v5.6h-1zm2 0h1v5.6h-1zm2 0h1v5.6h-1zm2 0h1v5.6h-1zm2 0h1v5.6h-1zm2 0h1v5.6h-1z"/><path class="st0" d="M339 331h-36V187h36z"/><path class="st1" d="M334 209h-6v-7h6zm0 14h-6v-7h6zm0 14h-6v-7h6zm0 14h-6v-7h6zm0 14h-6v-7h6zm0 14h-6v-7h6zm0 14h-6v-7h6zm0 14h-6v-7h6zm0 14h-6v-7h6z"/><path class="st2" d="M339 200h-36v-13h36z"/><path class="st1" d="M324 207.4h-21V199h21z"/><path class="st3" d="M324 213h-21v-5.6h21z"/><path class="st4" d="M323 213h-1v-5.6h1zm-2 0h-1v-5.6h1zm-2 0h-1v-5.6h1zm-2 0h-1v-5.6h1zm-2 0h-1v-5.6h1zm-2 0h-1v-5.6h1zm-2 0h-1v-5.6h1zm-2 0h-1v-5.6h1zm-2 0h-1v-5.6h1zm-2 0h-1v-5.6h1z"/><path class="st1" d="M324 221.4h-21V213h21z"/><path class="st3" d="M324 227h-21v-5.6h21z"/><path class="st4" d="M323 227h-1v-5.6h1zm-2 0h-1v-5.6h1zm-2 0h-1v-5.6h1zm-2 0h-1v-5.6h1zm-2 0h-1v-5.6h1zm-2 0h-1v-5.6h1zm-2 0h-1v-5.6h1zm-2 0h-1v-5.6h1zm-2 0h-1v-5.6h1zm-2 0h-1v-5.6h1z"/><path class="st1" d="M324 235.4h-21V227h21z"/><path class="st3" d="M324 241h-21v-5.6h21z"/><path class="st4" d="M323 241h-1v-5.6h1zm-2 0h-1v-5.6h1zm-2 0h-1v-5.6h1zm-2 0h-1v-5.6h1zm-2 0h-1v-5.6h1zm-2 0h-1v-5.6h1zm-2 0h-1v-5.6h1zm-2 0h-1v-5.6h1zm-2 0h-1v-5.6h1zm-2 0h-1v-5.6h1z"/><path class="st1" d="M324 249.4h-21V241h21z"/><path class="st3" d="M324 255h-21v-5.6h21z"/><path class="st4" d="M323 255h-1v-5.6h1zm-2 0h-1v-5.6h1zm-2 0h-1v-5.6h1zm-2 0h-1v-5.6h1zm-2 0h-1v-5.6h1zm-2 0h-1v-5.6h1zm-2 0h-1v-5.6h1zm-2 0h-1v-5.6h1zm-2 0h-1v-5.6h1zm-2 0h-1v-5.6h1z"/><path class="st1" d="M324 263.4h-21V255h21z"/><path class="st3" d="M324 269h-21v-5.6h21z"/><path class="st4" d="M323 269h-1v-5.6h1zm-2 0h-1v-5.6h1zm-2 0h-1v-5.6h1zm-2 0h-1v-5.6h1zm-2 0h-1v-5.6h1zm-2 0h-1v-5.6h1zm-2 0h-1v-5.6h1zm-2 0h-1v-5.6h1zm-2 0h-1v-5.6h1zm-2 0h-1v-5.6h1z"/><path class="st1" d="M324 277.4h-21V269h21z"/><path class="st3" d="M324 283h-21v-5.6h21z"/><path class="st4" d="M323 283h-1v-5.6h1zm-2 0h-1v-5.6h1zm-2 0h-1v-5.6h1zm-2 0h-1v-5.6h1zm-2 0h-1v-5.6h1zm-2 0h-1v-5.6h1zm-2 0h-1v-5.6h1zm-2 0h-1v-5.6h1zm-2 0h-1v-5.6h1zm-2 0h-1v-5.6h1z"/><path class="st1" d="M324 291.4h-21V283h21z"/><path class="st3" d="M324 297h-21v-5.6h21z"/><path class="st4" d="M323 297h-1v-5.6h1zm-2 0h-1v-5.6h1zm-2 0h-1v-5.6h1zm-2 0h-1v-5.6h1zm-2 0h-1v-5.6h1zm-2 0h-1v-5.6h1zm-2 0h-1v-5.6h1zm-2 0h-1v-5.6h1zm-2 0h-1v-5.6h1zm-2 0h-1v-5.6h1z"/><path class="st1" d="M324 305.4h-21V297h21z"/><path class="st3" d="M324 311h-21v-5.6h21z"/><path class="st4" d="M323 311h-1v-5.6h1zm-2 0h-1v-5.6h1zm-2 0h-1v-5.6h1zm-2 0h-1v-5.6h1zm-2 0h-1v-5.6h1zm-2 0h-1v-5.6h1zm-2 0h-1v-5.6h1zm-2 0h-1v-5.6h1zm-2 0h-1v-5.6h1zm-2 0h-1v-5.6h1z"/><path class="st1" d="M317 321h-10v-7h10z"/><path class="st5" d="M332.5 194.5h-1v-2h1zm-19 0h-1v-2h1z"/><path class="st6" d="M329 187h-5v-1h5z"/><path class="st5" d="M329 185h-5v-2h5z"/><path class="st0" d="M339 185h37v148h-37z"/><path class="st1" d="M344 200h6v7h-6zm0 14h6v7h-6zm0 14h6v7h-6zm0 14h6v7h-6zm0 14h6v7h-6zm0 14h6v7h-6zm0 14h6v7h-6zm0 14h6v7h-6zm0 14h6v7h-6z"/><path class="st2" d="M376 198h-37v-13h37z"/><path class="st1" d="M357 197h19v8.4h-19z"/><path class="st3" d="M357 205.4h19v5.6h-19z"/><path class="st4" d="M358 205.4h1v5.6h-1zm2 0h1v5.6h-1zm2 0h1v5.6h-1zm2 0h1v5.6h-1zm2 0h1v5.6h-1zm2 0h1v5.6h-1zm2 0h1v5.6h-1zm2 0h1v5.6h-1zm2 0h1v5.6h-1z"/><path class="st5" d="M347.5 190.5h1v2h-1zm18 0h1v2h-1z"/><path class="st6" d="M342 182h5v3h-5z"/><path class="st5" d="M342 179h5v2h-5z"/><path class="st1" d="M360 312h10v7h-10zm-3-101h19v8.4h-19z"/><path class="st3" d="M357 219.4h19v5.6h-19z"/><path class="st4" d="M358 219.4h1v5.6h-1zm2 0h1v5.6h-1zm2 0h1v5.6h-1zm2 0h1v5.6h-1zm2 0h1v5.6h-1zm2 0h1v5.6h-1zm2 0h1v5.6h-1zm2 0h1v5.6h-1zm2 0h1v5.6h-1z"/><path class="st1" d="M357 225h19v8.4h-19z"/><path class="st3" d="M357 233.4h19v5.6h-19z"/><path class="st4" d="M358 233.4h1v5.6h-1zm2 0h1v5.6h-1zm2 0h1v5.6h-1zm2 0h1v5.6h-1zm2 0h1v5.6h-1zm2 0h1v5.6h-1zm2 0h1v5.6h-1zm2 0h1v5.6h-1zm2 0h1v5.6h-1z"/><path class="st1" d="M357 239h19v8.4h-19z"/><path class="st3" d="M357 247.4h19v5.6h-19z"/><path class="st4" d="M358 247.4h1v5.6h-1zm2 0h1v5.6h-1zm2 0h1v5.6h-1zm2 0h1v5.6h-1zm2 0h1v5.6h-1zm2 0h1v5.6h-1zm2 0h1v5.6h-1zm2 0h1v5.6h-1zm2 0h1v5.6h-1z"/><path class="st1" d="M357 253h19v8.4h-19z"/><path class="st3" d="M357 261.4h19v5.6h-19z"/><path class="st4" d="M358 261.4h1v5.6h-1zm2 0h1v5.6h-1zm2 0h1v5.6h-1zm2 0h1v5.6h-1zm2 0h1v5.6h-1zm2 0h1v5.6h-1zm2 0h1v5.6h-1zm2 0h1v5.6h-1zm2 0h1v5.6h-1z"/><path class="st1" d="M357 267h19v8.4h-19z"/><path class="st3" d="M357 275.4h19v5.6h-19z"/><path class="st4" d="M358 275.4h1v5.6h-1zm2 0h1v5.6h-1zm2 0h1v5.6h-1zm2 0h1v5.6h-1zm2 0h1v5.6h-1zm2 0h1v5.6h-1zm2 0h1v5.6h-1zm2 0h1v5.6h-1zm2 0h1v5.6h-1z"/><path class="st1" d="M357 281h19v8.4h-19z"/><path class="st3" d="M357 289.4h19v5.6h-19z"/><path class="st4" d="M358 289.4h1v5.6h-1zm2 0h1v5.6h-1zm2 0h1v5.6h-1zm2 0h1v5.6h-1zm2 0h1v5.6h-1zm2 0h1v5.6h-1zm2 0h1v5.6h-1zm2 0h1v5.6h-1zm2 0h1v5.6h-1z"/><path class="st1" d="M357 295h19v8.4h-19z"/><path class="st3" d="M357 303.4h19v5.6h-19z"/><path class="st4" d="M358 303.4h1v5.6h-1zm2 0h1v5.6h-1zm2 0h1v5.6h-1zm2 0h1v5.6h-1zm2 0h1v5.6h-1zm2 0h1v5.6h-1zm2 0h1v5.6h-1zm2 0h1v5.6h-1zm2 0h1v5.6h-1z"/><path class="st6" d="M412 335h-36V183h36z"/><path class="st1" d="M406 205h-6v-7h6zm0 14h-6v-7h6zm0 14h-6v-7h6zm0 14h-6v-7h6zm0 14h-6v-7h6zm0 14h-6v-7h6zm0 14h-6v-7h6zm0 14h-6v-7h6zm0 14h-6v-7h6z"/><path class="st2" d="M412 196h-36v-13h36z"/><path class="st1" d="M397 203.4h-21V195h21z"/><path class="st3" d="M397 209h-21v-5.6h21z"/><path class="st4" d="M396 209h-1v-5.6h1zm-2 0h-1v-5.6h1zm-2 0h-1v-5.6h1zm-2 0h-1v-5.6h1zm-2 0h-1v-5.6h1zm-2 0h-1v-5.6h1zm-2 0h-1v-5.6h1zm-2 0h-1v-5.6h1zm-2 0h-1v-5.6h1zm-2 0h-1v-5.6h1z"/><path class="st1" d="M397 217.4h-21V209h21z"/><path class="st3" d="M397 223h-21v-5.6h21z"/><path class="st4" d="M396 223h-1v-5.6h1zm-2 0h-1v-5.6h1zm-2 0h-1v-5.6h1zm-2 0h-1v-5.6h1zm-2 0h-1v-5.6h1zm-2 0h-1v-5.6h1zm-2 0h-1v-5.6h1zm-2 0h-1v-5.6h1zm-2 0h-1v-5.6h1zm-2 0h-1v-5.6h1z"/><path class="st1" d="M397 231.4h-21V223h21z"/><path class="st3" d="M397 237h-21v-5.6h21z"/><path class="st4" d="M396 237h-1v-5.6h1zm-2 0h-1v-5.6h1zm-2 0h-1v-5.6h1zm-2 0h-1v-5.6h1zm-2 0h-1v-5.6h1zm-2 0h-1v-5.6h1zm-2 0h-1v-5.6h1zm-2 0h-1v-5.6h1zm-2 0h-1v-5.6h1zm-2 0h-1v-5.6h1z"/><path class="st1" d="M397 245.4h-21V237h21z"/><path class="st3" d="M397 251h-21v-5.6h21z"/><path class="st4" d="M396 251h-1v-5.6h1zm-2 0h-1v-5.6h1zm-2 0h-1v-5.6h1zm-2 0h-1v-5.6h1zm-2 0h-1v-5.6h1zm-2 0h-1v-5.6h1zm-2 0h-1v-5.6h1zm-2 0h-1v-5.6h1zm-2 0h-1v-5.6h1zm-2 0h-1v-5.6h1z"/><path class="st1" d="M397 259.4h-21V251h21z"/><path class="st3" d="M397 265h-21v-5.6h21z"/><path class="st4" d="M396 265h-1v-5.6h1zm-2 0h-1v-5.6h1zm-2 0h-1v-5.6h1zm-2 0h-1v-5.6h1zm-2 0h-1v-5.6h1zm-2 0h-1v-5.6h1zm-2 0h-1v-5.6h1zm-2 0h-1v-5.6h1zm-2 0h-1v-5.6h1zm-2 0h-1v-5.6h1z"/><path class="st1" d="M397 273.4h-21V265h21z"/><path class="st3" d="M397 279h-21v-5.6h21z"/><path class="st4" d="M396 279h-1v-5.6h1zm-2 0h-1v-5.6h1zm-2 0h-1v-5.6h1zm-2 0h-1v-5.6h1zm-2 0h-1v-5.6h1zm-2 0h-1v-5.6h1zm-2 0h-1v-5.6h1zm-2 0h-1v-5.6h1zm-2 0h-1v-5.6h1zm-2 0h-1v-5.6h1z"/><path class="st1" d="M397 287.4h-21V279h21z"/><path class="st3" d="M397 293h-21v-5.6h21z"/><path class="st4" d="M396 293h-1v-5.6h1zm-2 0h-1v-5.6h1zm-2 0h-1v-5.6h1zm-2 0h-1v-5.6h1zm-2 0h-1v-5.6h1zm-2 0h-1v-5.6h1zm-2 0h-1v-5.6h1zm-2 0h-1v-5.6h1zm-2 0h-1v-5.6h1zm-2 0h-1v-5.6h1z"/><path class="st1" d="M397 301.4h-21V293h21z"/><path class="st3" d="M397 307h-21v-5.6h21z"/><path class="st4" d="M396 307h-1v-5.6h1zm-2 0h-1v-5.6h1zm-2 0h-1v-5.6h1zm-2 0h-1v-5.6h1zm-2 0h-1v-5.6h1zm-2 0h-1v-5.6h1zm-2 0h-1v-5.6h1zm-2 0h-1v-5.6h1zm-2 0h-1v-5.6h1zm-2 0h-1v-5.6h1z"/><path class="st1" d="M387 317h-10v-7h10z"/><path class="st5" d="M404.5 190.5h-1v-2h1zm-16 0h-1v-2h1z"/><path class="st6" d="M402 183h-5v-3h5z"/><path class="st5" d="M402 179h-5v-2h5z"/><path class="st7" d="M438 331h-26V187h26z"/><path class="st2" d="M438 200h-26v-13h26z"/><path class="st1" d="M436 211h-6v-4h6zm0 14h-6v-4h6zm0 14h-6v-4h6zm0 14h-6v-4h6zm0 14h-6v-4h6zm0 14h-6v-4h6zm0 14h-6v-4h6zm0 14h-6v-4h6zm-15-89h-6v-4h6zm0 14h-6v-4h6zm0 14h-6v-4h6zm0 14h-6v-4h6zm0 14h-6v-4h6zm0 14h-6v-4h6zm0 14h-6v-4h6zm0-98h-6v-4h6z"/><path class="st5" d="M425 192.5h1v2h-1z"/><path class="st0" d="M438 316h-26v-5h26z"/><path class="st6" d="M438 318h-26v-2h26z"/><path class="st8" d="M438 331h-26v-13h26z"/><path class="st6" d="M438 185h38v148h-38z"/><path class="st1" d="M447 200h6v7h-6zm0 14h6v7h-6zm0 14h6v7h-6zm0 14h6v7h-6zm0 14h6v7h-6zm0 14h6v7h-6zm0 14h6v7h-6zm0 14h6v7h-6zm0 14h6v7h-6z"/><path class="st2" d="M476 198h-38v-13h38z"/><path class="st1" d="M457 197h19v8.4h-19z"/><path class="st3" d="M457 205.4h19v5.6h-19z"/><path class="st4" d="M458 205.4h1v5.6h-1zm2 0h1v5.6h-1zm2 0h1v5.6h-1zm2 0h1v5.6h-1zm2 0h1v5.6h-1zm2 0h1v5.6h-1zm2 0h1v5.6h-1zm2 0h1v5.6h-1zm2 0h1v5.6h-1z"/><path class="st5" d="M449.5 190.5h1v2h-1zm16 0h1v2h-1z"/><path class="st6" d="M441 180h5v5h-5z"/><path class="st5" d="M441 177h5v2h-5z"/><path class="st1" d="M462 312h6v7h-6zm-5-101h19v8.4h-19z"/><path class="st3" d="M457 219.4h19v5.6h-19z"/><path class="st4" d="M458 219.4h1v5.6h-1zm2 0h1v5.6h-1zm2 0h1v5.6h-1zm2 0h1v5.6h-1zm2 0h1v5.6h-1zm2 0h1v5.6h-1zm2 0h1v5.6h-1zm2 0h1v5.6h-1zm2 0h1v5.6h-1z"/><path class="st1" d="M457 225h19v8.4h-19z"/><path class="st3" d="M457 233.4h19v5.6h-19z"/><path class="st4" d="M458 233.4h1v5.6h-1zm2 0h1v5.6h-1zm2 0h1v5.6h-1zm2 0h1v5.6h-1zm2 0h1v5.6h-1zm2 0h1v5.6h-1zm2 0h1v5.6h-1zm2 0h1v5.6h-1zm2 0h1v5.6h-1z"/><path class="st1" d="M457 239h19v8.4h-19z"/><path class="st3" d="M457 247.4h19v5.6h-19z"/><path class="st4" d="M458 247.4h1v5.6h-1zm2 0h1v5.6h-1zm2 0h1v5.6h-1zm2 0h1v5.6h-1zm2 0h1v5.6h-1zm2 0h1v5.6h-1zm2 0h1v5.6h-1zm2 0h1v5.6h-1zm2 0h1v5.6h-1z"/><path class="st1" d="M457 253h19v8.4h-19z"/><path class="st3" d="M457 261.4h19v5.6h-19z"/><path class="st4" d="M458 261.4h1v5.6h-1zm2 0h1v5.6h-1zm2 0h1v5.6h-1zm2 0h1v5.6h-1zm2 0h1v5.6h-1zm2 0h1v5.6h-1zm2 0h1v5.6h-1zm2 0h1v5.6h-1zm2 0h1v5.6h-1z"/><path class="st1" d="M457 267h19v8.4h-19z"/><path class="st3" d="M457 275.4h19v5.6h-19z"/><path class="st4" d="M458 275.4h1v5.6h-1zm2 0h1v5.6h-1zm2 0h1v5.6h-1zm2 0h1v5.6h-1zm2 0h1v5.6h-1zm2 0h1v5.6h-1zm2 0h1v5.6h-1zm2 0h1v5.6h-1zm2 0h1v5.6h-1z"/><path class="st1" d="M457 281h19v8.4h-19z"/><path class="st3" d="M457 289.4h19v5.6h-19z"/><path class="st4" d="M458 289.4h1v5.6h-1zm2 0h1v5.6h-1zm2 0h1v5.6h-1zm2 0h1v5.6h-1zm2 0h1v5.6h-1zm2 0h1v5.6h-1zm2 0h1v5.6h-1zm2 0h1v5.6h-1zm2 0h1v5.6h-1z"/><path class="st1" d="M457 295h19v8.4h-19z"/><path class="st3" d="M457 303.4h19v5.6h-19z"/><path class="st4" d="M458 303.4h1v5.6h-1zm2 0h1v5.6h-1zm2 0h1v5.6h-1zm2 0h1v5.6h-1zm2 0h1v5.6h-1zm2 0h1v5.6h-1zm2 0h1v5.6h-1zm2 0h1v5.6h-1zm2 0h1v5.6h-1z"/><path class="st0" d="M512 331h-36V187h36z"/><path class="st1" d="M505 209h-6v-7h6zm0 14h-6v-7h6zm0 14h-6v-7h6zm0 14h-6v-7h6zm0 14h-6v-7h6zm0 14h-6v-7h6zm0 14h-6v-7h6zm0 14h-6v-7h6zm0 14h-6v-7h6z"/><path class="st2" d="M512 200h-36v-13h36z"/><path class="st1" d="M497 207.4h-21V199h21z"/><path class="st3" d="M497 213h-21v-5.6h21z"/><path class="st4" d="M496 213h-1v-5.6h1zm-2 0h-1v-5.6h1zm-2 0h-1v-5.6h1zm-2 0h-1v-5.6h1zm-2 0h-1v-5.6h1zm-2 0h-1v-5.6h1zm-2 0h-1v-5.6h1zm-2 0h-1v-5.6h1zm-2 0h-1v-5.6h1zm-2 0h-1v-5.6h1z"/><path class="st1" d="M497 221.4h-21V213h21z"/><path class="st3" d="M497 227h-21v-5.6h21z"/><path class="st4" d="M496 227h-1v-5.6h1zm-2 0h-1v-5.6h1zm-2 0h-1v-5.6h1zm-2 0h-1v-5.6h1zm-2 0h-1v-5.6h1zm-2 0h-1v-5.6h1zm-2 0h-1v-5.6h1zm-2 0h-1v-5.6h1zm-2 0h-1v-5.6h1zm-2 0h-1v-5.6h1z"/><path class="st1" d="M497 235.4h-21V227h21z"/><path class="st3" d="M497 241h-21v-5.6h21z"/><path class="st4" d="M496 241h-1v-5.6h1zm-2 0h-1v-5.6h1zm-2 0h-1v-5.6h1zm-2 0h-1v-5.6h1zm-2 0h-1v-5.6h1zm-2 0h-1v-5.6h1zm-2 0h-1v-5.6h1zm-2 0h-1v-5.6h1zm-2 0h-1v-5.6h1zm-2 0h-1v-5.6h1z"/><path class="st1" d="M497 249.4h-21V241h21z"/><path class="st3" d="M497 255h-21v-5.6h21z"/><path class="st4" d="M496 255h-1v-5.6h1zm-2 0h-1v-5.6h1zm-2 0h-1v-5.6h1zm-2 0h-1v-5.6h1zm-2 0h-1v-5.6h1zm-2 0h-1v-5.6h1zm-2 0h-1v-5.6h1zm-2 0h-1v-5.6h1zm-2 0h-1v-5.6h1zm-2 0h-1v-5.6h1z"/><path class="st1" d="M497 263.4h-21V255h21z"/><path class="st3" d="M497 269h-21v-5.6h21z"/><path class="st4" d="M496 269h-1v-5.6h1zm-2 0h-1v-5.6h1zm-2 0h-1v-5.6h1zm-2 0h-1v-5.6h1zm-2 0h-1v-5.6h1zm-2 0h-1v-5.6h1zm-2 0h-1v-5.6h1zm-2 0h-1v-5.6h1zm-2 0h-1v-5.6h1zm-2 0h-1v-5.6h1z"/><path class="st1" d="M497 277.4h-21V269h21z"/><path class="st3" d="M497 283h-21v-5.6h21z"/><path class="st4" d="M496 283h-1v-5.6h1zm-2 0h-1v-5.6h1zm-2 0h-1v-5.6h1zm-2 0h-1v-5.6h1zm-2 0h-1v-5.6h1zm-2 0h-1v-5.6h1zm-2 0h-1v-5.6h1zm-2 0h-1v-5.6h1zm-2 0h-1v-5.6h1zm-2 0h-1v-5.6h1z"/><path class="st1" d="M497 291.4h-21V283h21z"/><path class="st3" d="M497 297h-21v-5.6h21z"/><path class="st4" d="M496 297h-1v-5.6h1zm-2 0h-1v-5.6h1zm-2 0h-1v-5.6h1zm-2 0h-1v-5.6h1zm-2 0h-1v-5.6h1zm-2 0h-1v-5.6h1zm-2 0h-1v-5.6h1zm-2 0h-1v-5.6h1zm-2 0h-1v-5.6h1zm-2 0h-1v-5.6h1z"/><path class="st1" d="M497 305.4h-21V297h21z"/><path class="st3" d="M497 311h-21v-5.6h21z"/><path class="st4" d="M496 311h-1v-5.6h1zm-2 0h-1v-5.6h1zm-2 0h-1v-5.6h1zm-2 0h-1v-5.6h1zm-2 0h-1v-5.6h1zm-2 0h-1v-5.6h1zm-2 0h-1v-5.6h1zm-2 0h-1v-5.6h1zm-2 0h-1v-5.6h1zm-2 0h-1v-5.6h1z"/><path class="st1" d="M487 321h-10v-7h10zm15.5-126.5h-1v-2h1z"/><path class="st5" d="M482.5 194.5h-1v-2h1z"/><path class="st6" d="M493 187h-5v-5h5z"/><path class="st5" d="M493 181h-5v-2h5z"/><path d="M303 322.7l-33-13.3V333h33zm-33-3.3l-27-10.9V331h27zm-27-20.9l-33-13.2V333h33zM210 331v-35.7l-73-29.4V331h37zm-73-32v-43.1l-36-14.5V333h36zm-36 19v-66.6l-27-10.8V331h27zm-27-87.4l-38-15.3V333h38zM36 311v-85.7L0 210.8V331h36z" opacity=".15" fill="#444"/></svg>