<svg version="1.1" xmlns="http://www.w3.org/2000/svg" x="0" y="0" viewBox="0 0 1024 1024" xml:space="preserve"><style type="text/css">.st0{fill:#bbb}.st1{fill:#999}.st2{fill:#36434f}.st3{fill:#ddd}.st4{fill:#f6c214}</style><path class="st0" d="M0 532h187.4v334.2H0V532z"/><path class="st0" d="M6 494.6h175.4v38.3H6v-38.3z"/><path class="st1" d="M34.1 469.9h119.2v24.7H34.1v-24.7zm-3.4-6h126v6h-126v-6z"/><path class="st0" d="M43 283.3h101.3v97.9H43v-97.9z"/><path class="st0" d="M34.1 380.4h119.2v83.5H34.1v-83.5z"/><circle class="st2" cx="93.7" cy="334.4" r="42.6"/><path class="st0" d="M97.7 334.6c0 2.1-1.7 3.9-3.9 3.9-2.1 0-3.9-1.7-3.9-3.9 0-2.1 1.7-3.9 3.9-3.9s3.9 1.8 3.9 3.9z"/><path class="st3" d="M83.2 298.5c.1.5.6.8 1.1.7s.8-.6.7-1.1c-.1-.5-.6-.8-1.1-.7s-.8.6-.7 1.1zm20.1 71.2c-.5.1-.8.6-.7 1.1.1.5.6.8 1.1.7.5-.1.8-.6.7-1.1-.1-.5-.6-.8-1.1-.7zm-.7-71.6c-.1.5.2 1 .7 1.1.5.1 1-.2 1.1-.7.1-.5-.2-1-.7-1.1-.4-.1-.9.2-1.1.7zm-17.5 72.8c.1-.5-.2-1-.7-1.1s-1 .2-1.1.7c-.1.5.2 1 .7 1.1.4.1 1-.2 1.1-.7zM58.6 325c.1-.5-.2-1-.7-1.1s-1 .2-1.1.7c-.1.5.2 1 .7 1.1.5.1 1-.2 1.1-.7zm71.1 20c.5.1 1-.2 1.1-.7.1-.5-.2-1-.7-1.1-.5-.1-1 .2-1.1.7-.1.5.3 1 .7 1.1zm-63-37.7c-.4.4-.4 1 0 1.3.4.3 1 .4 1.3 0s.4-1 0-1.3-.9-.3-1.3 0zm54.3 54.3c.4-.4.4-1 0-1.3-.4-.3-1-.4-1.3 0-.3.4-.4 1 0 1.3.3.3.9.4 1.3 0zm-1.3-54.3c-.4.4-.4 1 0 1.3.4.3 1 .4 1.3 0s.4-1 0-1.3c-.4-.3-1-.3-1.3 0zM68 361.6c.4-.4.4-1 0-1.3-.4-.3-1-.4-1.3 0-.3.4-.4 1 0 1.3.4.3 1 .4 1.3 0zm62.9-37.1c-.1-.5-.6-.8-1.1-.7-.5.1-.8.6-.7 1.1.1.5.6.8 1.1.7.5-.1.8-.6.7-1.1zm-74.1 19.9c.1.5.6.8 1.1.7s.8-.6.7-1.1c-.1-.5-.6-.8-1.1-.7-.5.1-.9.6-.7 1.1zm10.1 17.9l-.9.9c4.7 4.6 10.4 8 16.9 9.8l.3-1.2c-1.5-.4-3-.9-4.4-1.5-4.5-2-8.5-4.6-11.9-8zm42 7.9c-1.4.6-2.9 1.1-4.4 1.5l.3 1.2c6.4-1.8 12.2-5.2 16.9-9.8l-.9-.9c-3.4 3.5-7.4 6.1-11.9 8zm-15 3.1c-3.2 0-6.4-.4-9.5-1.1l-.3 1.2c3.1.8 6.4 1.2 9.8 1.2 3.4 0 6.6-.4 9.8-1.2l-.3-1.2c-3.2.7-6.4 1.1-9.5 1.1zm35.6-23.7c-1.8 4.4-4.5 8.3-7.7 11.8l.9.9c4.5-4.7 7.9-10.5 9.7-16.9l-1.2-.3c-.6 1.5-1.1 3.1-1.7 4.5zm0-30c.6 1.4 1.1 2.9 1.5 4.3l1.2-.3c-1.8-6.4-5.2-12.1-9.8-16.8l-.9.9c3.4 3.4 6.1 7.4 8 11.9zm3.1 5.1l-1.2.3c.8 3.1 1.2 6.3 1.2 9.5s-.4 6.3-1.1 9.2l1.2.3c.8-3.1 1.1-6.3 1.1-9.6 0-3.2-.5-6.5-1.2-9.7zM78.8 299c1.4-.6 3-1.1 4.5-1.6l-.3-1.2c-6.4 1.8-12.1 5.2-16.8 9.7l.9.9c3.4-3.4 7.3-6 11.7-7.8zm-20.5 20.6c1.9-4.4 4.6-8.4 7.9-11.9l-.9-.9c-4.6 4.7-7.9 10.5-9.8 16.8l1.2.3c.4-1.5 1-2.9 1.6-4.3zm0 30c-.6-1.5-1.1-3-1.6-4.6l-1.2.3c1.8 6.4 5.2 12.2 9.7 16.9l.9-.9c-3.4-3.3-6-7.3-7.8-11.7zm62.3-42.8l.9-.9c-4.6-4.5-10.4-7.9-16.8-9.7l-.3 1.2c1.5.4 3 .9 4.5 1.6 4.4 1.8 8.3 4.4 11.7 7.8zm-65.4 27.8c0-3.3.4-6.5 1.2-9.5l-1.2-.3c-.8 3.2-1.2 6.5-1.2 9.9 0 3.3.4 6.5 1.1 9.6l1.2-.3c-.7-3.1-1.1-6.2-1.1-9.4zM93.9 296c3.2 0 6.3.4 9.4 1.1l.3-1.2c-3.1-.8-6.3-1.2-9.7-1.2s-6.6.4-9.7 1.2l.3 1.2c3-.8 6.2-1.1 9.4-1.1zm.7 16.6v-8.3H93v8.3h1.6zm-1.5 44v8.3h1.6v-8.3h-1.6zm-29.5-21.2h8.3v-1.6h-8.3v1.6zm60.5-1.6h-8.3v1.6h8.3v-1.6zm-10.8-9.5l7.2-4.1-.8-1.4-7.2 4.1.8 1.4zm-38.9 20.6l-7.2 4.1.8 1.4 7.2-4.1-.8-1.4zm3.7-36.1l4.1 7.2 1.4-.8-4.1-7.2-1.4.8zm31.5 51.6l-4.1-7.2-1.4.8 4.1 7.2 1.4-.8zm10.9-11.3l-7.2-4.1-.8 1.4 7.2 4.1.8-1.4zm-53.3-28.9l7.2 4.1.8-1.4-7.2-4.1-.8 1.4zm37-5l1.4.8 4.1-7.2-1.4-.8-4.1 7.2zM83.5 354l-1.4-.8-4.1 7.2 1.4.8 4.1-7.2zm7.2-43l1.2-.1-.6-5.1-1.2.1.6 5.1zm6.8 52.3l-.6-5.1-1.2.1.6 5.1 1.2-.1zm-9.1-57.1l-1.2.3 1.1 5 1.2-.3-1.1-5zm9.8 51.8l1.1 5 1.2-.3-1.1-5-1.2.3zm-12.7-51.1l-1.2.4 1.6 4.9 1.2-.4-1.6-4.9zm16.7 55.4l1.2-.4-1.6-4.9-1.2.4 1.6 4.9zm-17.5-49.7l-2.1-4.7-1.1.5 2.1 4.7 1.1-.5zm21.5 48.2l-2.1-4.7-1.1.5 2.1 4.7 1.1-.5zm-3.2-48.2l1.1.5 2.1-4.7-1.1-.5-2.1 4.7zm-18.3 44l-1.1-.5-2.1 4.7 1.1.5 2.1-4.7zm15.9-44.8l1.2.4 1.6-4.9-1.2-.3-1.6 4.8zm-13.5 45.6l-1.2-.4-1.6 4.9 1.2.4 1.6-4.9zm12.2-51.2l-1.1 5 1.2.3 1.1-5-1.2-.3zm-12.1 56.6l1.2.3 1.1-5-1.2-.3-1.1 5zm10.3-56.9l-1.2-.1-.6 5.1 1.2.1.6-5.1zm-7.3 57.4l1.2.1.6-5.1-1.2-.1-.6 5.1zm-22.5-41l-.5 1.1 4.7 2.1.5-1.1-4.7-2.1zM120 347l.5-1.1-4.7-2.1-.5 1.1 4.7 2.1zm-48.6-20.3l-4.9-1.6-.4 1.2 4.9 1.6.4-1.2zm45.2 14.7l-.4 1.2 4.9 1.6.4-1.2-4.9-1.6zm-45.9-12.3l-5-1.1-.3 1.2 5 1.1.3-1.2zm46.3 11.1l5 1.1.3-1.2-5-1.1-.3 1.2zm-52-8l5.1.5.1-1.2-5.1-.5-.1 1.2zm57.7 4.8l-5.1-.6-.1 1.2 5.1.6.1-1.2zm-43.3-21.2l1-.7-3-4.2-1 .7 3 4.2zm30.9 42.6l1-.7-3-4.2-1 .7 3 4.2zM74 313.5l3.4 3.8.9-.9-3.4-3.8-.9.9zm39.7 42.2l-3.4-3.8-.9.9 3.4 3.8.9-.9zm-41.8-40l3.8 3.4.9-.9-3.8-3.4-.9.9zm43.8 37.8l-3.8-3.4-.9.9 3.8 3.4.9-.9zm-45.6-35.4l4.2 3 .7-1-4.2-3-.7 1zm47.5 33l-4.2-3-.7 1 4.2 3 .7-1zm-42.6-2l-.7-1-4.2 3 .7 1 4.2-3zm37.7-29l.7 1 4.2-3-.7-1-4.2 3zM76.6 351l-.9-.9-3.8 3.4.9.9 3.8-3.4zm34.5-32.8l.9.9 3.8-3.4-.9-.9-3.8 3.4zm-32.7 34.5l-.9-.9-3.4 3.8.9.9 3.4-3.8zm30.9-36.2l.9.9 3.4-3.8-.9-.9-3.4 3.8zm-32.9 41.2l1 .7 3-4.2-1-.7-3 4.2zm33.9-46.8l-3 4.2 1 .7 3-4.2-1-.7zm-45.1 27.4l5.1-.6-.1-1.2-5.2.5.2 1.3zm57.5-6.1l-.1-1.2-5.1.6.1 1.2 5.1-.6zM70.5 339l-5 1.1.3 1.2 5-1.1-.3-1.2zm46.5-9.9l.3 1.2 5-1.1-.3-1.2-5 1.1zm-45.6 13.4l-.4-1.2-4.9 1.6.4 1.2 4.9-1.6zm44.8-15.8l.4 1.2 4.9-1.6-.4-1.2-4.9 1.6zm-49 19.1l.5 1.1 4.7-2.1-.5-1.1-4.7 2.1zm53.3-22.4l-.5-1.1-4.7 2.1.5 1.1 4.7-2.1zm-29.8-21h-.3c-.1 0-.1.3 0 .3h2.7c.1 0 .1-.3 0-.3h-.3c-.4 0-.5-.1-.5-.8v-4.2c0-.1-.1-.1-.1-.1-.1 0-.4.2-.8.3-.3.1-.7.2-1.1.2-.1 0-.1.3 0 .3h.4c.4 0 .4.2.4.7v2.7c0 .8 0 .9-.4.9zm7-1c-.3.5-.3.5-1 .5h-1c-.1 0-.2 0-.2-.1s.1-.2.5-.6l.4-.4c1-.9 1.3-1.4 1.3-2.1 0-.8-.6-1.4-1.6-1.4-.8 0-1.6.5-1.9 1.3 0 .1.2.2.3.1.3-.5.6-.8 1.1-.8.6 0 .9.5.9 1 0 .9-.5 1.6-1.1 2.3-.5.6-1 1-1.3 1.3 0 .1 0 .2.1.2h3.4c.2-.2.3-.8.4-1.3-.1-.1-.3-.1-.3 0zm-3.8 69.9c1.1 0 1.9-.8 1.9-1.9 0-.8-.5-1.6-1.5-1.6-.3 0-.7.2-.9.4 0 .1 0 .1.1.2h.2c.7 0 1 1 1 1.6 0 .4-.1.9-.6.9-.6 0-.9-1.1-.9-2 0-.8.2-1.6.6-2.1.5-.6.9-.9 2-1.2.1-.1.1-.3 0-.3-1 0-2 .6-2.7 1.1-.7.6-1.1 1.6-1.1 2.6-.1 1.3.6 2.3 1.9 2.3zm-32.4-37.6c0-1.1-.7-2.2-2-2.2-1.1 0-1.9.8-1.9 1.8 0 .9.6 1.5 1.4 1.5.3 0 .7-.1.9-.3v-.2h-.2c-.6-.1-.9-.9-.9-1.5 0-.5.2-1 .6-1 .7 0 .9 1.2.9 1.9 0 1.5-.9 3-2.5 3.4-.1.1-.1.2 0 .3.7 0 1.8-.5 2.5-1.1.8-.7 1.2-1.6 1.2-2.6zm66 3.3c-.1 0-.3 0-.4-.2-.1-.1-.3-.5-.6-.5s-.5.2-.5.5c0 .4.5.6.9.6s1.2-.2 2-.7c.7-.5 1-1.1 1-1.7 0-.8-.6-1.3-1.4-1.3-.1 0-.2-.1-.1-.1.9-.4 1.1-.8 1.1-1.1 0-.6-.5-1-1.3-1s-1.4.4-1.7 1.1c0 .1.1.2.2.2.3-.4.6-.7 1-.7s.7.3.7.6c0 .4-.2.6-.3.8-.3.3-1 .6-1.4.7-.1.2 0 .4.2.4.2-.2.5-.3.9-.3.6 0 1 .6 1 1.3-.1.9-.9 1.4-1.3 1.4zm-53.6-30h-.3c-.1 0-.1.3 0 .3h2.7c.1 0 .1-.3 0-.3H76c-.4 0-.5-.1-.5-.8V302c0-.1-.1-.1-.1-.1-.1 0-.4.2-.8.3-.3.1-.7.2-1.1.2-.1 0-.1.3 0 .3h.4c.4 0 .4.2.4.7v2.7c0 .8 0 .8-.4.9zm3.7 0h-.3c-.1 0-.1.3 0 .3H80c.1 0 .1-.3 0-.3h-.3c-.4 0-.5-.1-.5-.8V302c0-.1-.1-.1-.1-.1-.1 0-.4.2-.8.3-.3.1-.7.2-1.1.2-.1 0-.1.3 0 .3h.4c.4 0 .4.2.4.7v2.7c.1.8.1.8-.4.9zm31.6 60.1c.7 0 1.6-.2 2.3-.6.7-.4 1.2-.9 1.2-1.8 0-.7-.4-1.1-.9-1.4-.5-.3-1.3-.4-1.7-.4-.2 0-.3 0-.2-.3v-.2c0-.2.1-.2.2-.3l1.9-.2c.2-.2.4-.6.5-.9 0-.1 0-.1-.1-.1l-2.2.3c-.3 0-.3 0-.4.3l-.5 1.9c0 .2 0 .3.3.3.9.1 2.1.2 2.1 1.4 0 .5-.3.9-.8 1.1-.4.2-1.1.3-1.7.4-.1.2-.1.5 0 .5zm-46.9-14.3c0-.6.5-1.1 1.1-1.4-.5-.3-.9-.7-.9-1.3 0-.9.7-1.4 1.7-1.4.9 0 1.6.5 1.6 1.3 0 .6-.5.9-.9 1.1.6.3 1.1.8 1.1 1.6s-.6 1.4-1.9 1.4c-.9.1-1.8-.4-1.8-1.3zm1.3-3c0 .4.3.8 1 1.1.3-.2.4-.5.4-.9 0-.6-.4-.9-.7-.9-.4 0-.7.2-.7.7zm-.2 2.9c0 .6.3 1.1.9 1.1.4 0 .7-.3.7-.8 0-.7-.5-1-1.1-1.4-.4.3-.5.7-.5 1.1zm58.1-33.1c0 .1 0 .2.1.2h3.4c.2-.2.3-.8.4-1.3 0-.1-.2-.1-.3 0-.3.5-.3.5-1 .5h-1c-.1 0-.2 0-.2-.1s.1-.2.5-.6l.4-.4c1-.9 1.3-1.4 1.3-2.1 0-.8-.6-1.4-1.6-1.4-.8 0-1.6.5-1.9 1.3 0 .1.2.2.3.1.3-.5.6-.8 1.1-.8.6 0 .9.5.9 1 0 .9-.5 1.6-1.1 2.3-.5.6-1 1-1.3 1.3zm-57.8.2c.1 0 .1-.3 0-.3h-.3c-.4 0-.5-.1-.5-.8v-4.2c0-.1-.1-.1-.1-.1-.1 0-.4.2-.8.3-.3.1-.7.2-1.1.2-.1 0-.1.3 0 .3h.4c.4 0 .4.2.4.7v2.7c0 .7 0 .8-.5.8h-.3c-.1 0-.1.3 0 .3h1.4c.6.1 1.1.1 1.4.1zm2.4-5.4c1.4 0 2 1.4 2 2.8s-.6 2.8-2 2.8-2-1.4-2-2.8c0-1.3.6-2.8 2-2.8zm0 .4c-.6 0-.7 1.6-.7 2.3s.1 2.3.7 2.3.7-1.6.7-2.3-.1-2.3-.7-2.3zm58.8 37.7h.6c.1-.1.1-.4 0-.5h-.6c-.2 0-.2 0-.2-.3v-1.6c0-.1 0-.2-.1-.2-.2 0-.6.2-.8.3-.1 0-.2.1-.2.3v1.2c0 .2 0 .3-.2.3h-1c-.3 0-.3-.1-.2-.2l2.5-3.5c.1-.2.1-.2-.1-.2h-.3c-.1 0-.2.1-.3.2l-2.7 3.9c0 .1 0 .2.1.3h2c.2 0 .2 0 .2.3v.2c0 .7 0 .8-.5.8h-.3c-.1 0-.1.3 0 .3h2.5c.1 0 .1-.3 0-.3h-.2c-.4 0-.4-.1-.4-.8v-.2c.1-.3.1-.3.2-.3zm-49.7 14.3c0 .2.3.3.4.3l2.4-4.3c.3-.6.6-1.1.9-1.4 0 0 0-.1-.1-.1H75c-.1.3-.2.9-.3 1.3 0 .1.2.1.3.1.2-.3.3-.4.8-.4h1.8c.1 0 .3 0 .3.1 0 .2-.1.3-.3.7l-2.4 3.7zM110 307h-.3c-.1 0-.1.3 0 .3h2.7c.1 0 .1-.3 0-.3h-.3c-.4 0-.5-.1-.5-.8V302c0-.1-.1-.1-.1-.1-.1 0-.4.2-.8.3-.3.1-.7.2-1.1.2-.1 0-.1.3 0 .3h.4c.4 0 .4.2.4.7v2.7c.1.8 0 .8-.4.9z"/><path class="st0" d="M125.1 352.8l-5-4 .5-.9-.7-.4-.5.8-4-2.3c.2-1.1-.3-2.4-1.4-3-.9-.5-1.9-.5-2.8-.1l-.9-.5.9-1.4-.7-.4-.9 1.4-22.8-13.3c-.2-.6-.5-1.1-1.1-1.4-.9-.5-2-.4-2.7.3l-.2-.9c1-.7 2.3-.8 3.4-.1l.4-.7c-1.9-1.1-4.3-.5-5.5 1.4-1.1 1.9-.5 4.3 1.4 5.5l.4-.7c-1.1-.6-1.7-1.8-1.5-3l.9-.2c-.2 1 .2 2 1.1 2.5.6.3 1.1.4 1.7.3l22.9 13.4-.9 1.4.7.4.9-1.4.9.5c.1.9.6 1.8 1.4 2.3 1.1.6 2.4.5 3.3-.2l4 2.3-.3.6.7.4.5-.9 5.9 2.3zm-43.5-24.4c.1-.3.2-.5.3-.8.2-.3.3-.5.5-.7l.3 1s0 .1-.1.1v.1l-1 .3zm2.3 2c-.7-.4-.9-1.3-.6-2 .4-.7 1.3-.9 2-.6.7.4.9 1.3.6 2-.4.8-1.3 1.1-2 .6zm2.5.3c.1-.1.2-.3.3-.4.1-.2.2-.3.2-.5l22.3 13-.5.9-22.3-13zm23 13.5l.5-.9.5.3c-.1.1-.2.3-.3.4-.1.2-.2.3-.2.5l-.5-.3z"/><path class="st0" d="M91.9 339.7l16.9-20.9.4-.5-1.1-.9.4-.6c.6.3 1.4.2 1.9-.4.5-.6.4-1.4 0-1.9l1-1.2-.4-.3-1 1.2c-.6-.3-1.4-.2-1.9.4-.5.6-.4 1.4 0 1.9l-.4.6-1.1-.9-.4.5-16.9 20.9c-1.4-.3-3 .2-4 1.4l.6.5c1-1.2 2.8-1.5 4.1-.7l-1.1 1.4c-.6-.3-1.3-.1-1.7.4-.5.6-.4 1.6.2 2.1.6.5 1.6.4 2.1-.2.4-.6.4-1.3.1-1.8l1.1-1.4c1.1 1.1 1.1 2.9.2 4.2l.6.5c.9-1.3 1-3 .4-4.3zm-1.9-1.9l16.7-20.6.4.3-16.6 20.6c-.2-.2-.4-.2-.5-.3zm17.7-19.8l.4.3-16.7 20.6c-.1-.1-.2-.3-.3-.4l16.6-20.5z"/><path class="st1" d="M76.6 548.6h34.1v301.1H76.6V548.6zm51.1 0h34.1v301.1h-34.1V548.6zm-102.2 0h34.1v301.1H25.5V548.6z"/><path class="st0" d="M9.4 480.2v15.1H178v-15.1H9.4zm12.7 12.2H11.9v-10.2h10.2v10.2zm12.8 0H24.7v-10.2h10.2v10.2zm12.8 0H37.5v-10.2h10.2v10.2zm12.8 0H50.2v-10.2h10.2v10.2zm12.7 0H63v-10.2h10.2v10.2zm12.8 0H75.8v-10.2H86v10.2zm12.8 0H88.6v-10.2h10.2v10.2zm12.8 0h-10.2v-10.2h10.2v10.2zm12.7 0h-10.2v-10.2h10.2v10.2zm12.8 0h-10.2v-10.2h10.2v10.2zm12.8 0h-10.2v-10.2h10.2v10.2zm12.8 0h-10.2v-10.2h10.2v10.2zm12.7 0h-10.2v-10.2h10.2v10.2z"/><path class="st1" d="M42.2 380.4h16.2v84.3H42.2v-84.3zm28.9 0h16.2v84.3H71.1v-84.3zm29 0h16.2v84.3h-16.2v-84.3zm28.9 0h16.2v84.3H129v-84.3z"/><path class="st0" d="M140.5 275.7H46.8l-3.8 7.7h101.3l-3.8-7.7z"/><path class="st1" d="M43.9 272.3h99.6v3.4H43.9v-3.4zm-1.3-5.1h102.2v5.1H42.6v-5.1z"/><path class="st0" d="M126 250.1H61.3l-9.4 17h83.5l-9.4-17zm-64.7-2.5H126v2.6H61.3v-2.6z"/><path class="st1" d="M98.9 205.8H88.5l-29.9 41.7h70.1l-29.8-41.7z"/><path class="st4" d="M95.4 200.7l-.9-60.5h-1.7l-.8 60.5-3.5 5.1h10.4l-3.5-5.1z"/><circle class="st4" cx="93.7" cy="138" r="2.6"/><path class="st1" d="M34.1 380.4h119.2v2H34.1v-2z"/><path class="st4" d="M98.6 124.4h-.2c-.1 0-.2-.1-.3-.2-.2-.1-.4-.1-.6 0-.2 0-.3.2-.5.3-.1.1-.2.2-.2.3.3-.1.6-.3.9-.2 0 0 .1 0 .1.1s0 .1-.1.1c-.2.2-.3.3-.4.6-.3.6-.3 1.4 0 2-.1.1-.3.3-.3.4 0 .1.1.3.1.4.2.3.3.6.2 1.1.2 0 .3-.2.4-.3.2.5.2 1 0 1.5-.2.3-.4.6-.8.7h-.3c0-.1 0-.3-.1-.4-.2-.4-.6-.6-.9-.7-.4-.2-.8-.4-.9-.9-.1-.2-.1-.4-.1-.7v-.5h.1c-.1 0-.1-.3-.2-.3v-.3s.1-.3.2-.3c-.1.4-.2 1.1.2 1.4.1 0 .4.2.5.1-.6-.1-.3-1.1-.2-1.4.1.3.1.7.3.9.1.1.3 0 .4 0-.3.2-.3-.5-.3-.7v-1.3c0-.6 0-1.3-.2-2-.1-.6-.4-1.4-1.1-1.7-.1 0-.3-.1-.4-.1h-.4c0-.3-.4-.5-.6-.5-.1 0-.2.1-.2.2s0 .1-.1.2l-.1.1c-.1 0-1.1.1-1 .3-.3.1-.6.2-.8.3h-.2v.8c0 .1 0 .1.1.2s.2 0 .3 0h.6c.2 0 .4.1.4.3-.3 0-.7 0-1-.1-.3 0-.8-.1-1 .1.3-.1.7 0 1.1 0h.8c-.1.2-.3.3-.6.2-.2 0-.5-.2-.6 0v.6c0 .1.1.2.2.2s.3 0 .3.2c0 .1-.2.1-.3.2 0 0-.1.1-.2.1h-.1c-.1 0-.2-.1-.3-.2-.4-.3-.9-.7-1.3-1-.2-.1-.4-.3-.6-.4 0 0-.1 0-.1-.1 0 0-.2-.2-.2-.3 0 0 .1-.2.2-.2l.3-.3c.2-.2.3-.3.4-.5.1.1.2.3.3.3h.1l.2-.2c-.1-.1-.3-.2-.3-.3l.1-.1.6-.6c.2.2.3.3.6.5.1-.2.3-.3.5-.5s.4-.5.5-.8c.1-.3.1-.6 0-.9 0-.1-.1-.1-.2-.2H91c-.2 0-.4.1-.6.2-.4.3-.7.6-1.1.9.2.2.4.3.6.5-.3.2-.5.6-.8.8l-.3-.3s-.2.1-.2.2c0 0 0 .1.1.1 0 0 .2.1.2.2 0 0 0 .1-.1.1l-.5.5c-.1.1-.2.3-.3.3h-.1c-.1 0-.2-.1-.3-.1-.1 0-.1 0-.2.1l-.1.3c-.1 0-.2 0-.3.1 0 0-.1.3 0 .3-.1 0-.3.2-.3.3v.2l.1.1-.2.2-.7.7-1 1-.4.4-.3.3-.2-.2-.1-.1c-.1 0-.2.2-.2.2.1.1.3.2.3.3l.3.3s.1.2.2.2l.1-.1.1-.1c0-.1-.3-.2-.3-.3l.1-.1.2-.2.5-.5 1.1-1.1.6-.7c.2.1.3.3.6.4-.1 0-.2-.2-.1-.3h.5c.1 0 .2 0 .3.1.1.1.2.2.2.3l.6.9c.1.2.3.4.5.5 0 0 .1 0 .1.1v.1l-.1.4c0 .2 0 .4-.1.6-.1.2-.3.2-.4.2.3.2.6.1.7-.2.1-.1.1-.2.2-.3 0 0 0-.1.1-.2-.1.2.1.6.2.7-.4.2-.9.3-1.3.5-.1 0-.1.1-.2.1h-.4c-.2.1-.4.3-.6.5 0-.1-.1-.2-.2-.3v-.2c.1-.1.1-.2.2-.3.2-.4.1-.8-.1-1.1-.4-.7-1.4-.9-2-.3-.3.3-.5.8-.3 1.2 0-.4.2-.8.6-1 .3-.2.6-.2.9 0 .6.3.7 1.4 0 1.7l.3.4.1-.1s.1.1.1.2v.2l-.3.3c-.1.1-.2.3-.1.5 0 .1.2.2.3.2 0-.1-.1-.3 0-.4 0 0 0-.1.1 0v.2c0 .1 0 .2.1.3.1.1.3.2.4.3-.1-.1-.2-.3-.2-.4h.2l.1.1h.3c.1.1.2.3.3.3 0-.1-.1-.3-.1-.4s.1-.1.2-.2.2-.2.2-.3v-.3c0-.1.2-.2.3-.2 0 0 .1-.1.2-.1h.5c.3 0 .5 0 .8-.1h.2c.1 0 .1 0 .1.1s.1.2.2.3c.3.4.7.7 1.1.9.3.1.6.1.9.2.3 0 .6 0 .6.4-1 .1-2 .1-2.9.3-.3 0-.5.1-.7.2-.1 0-.3.1-.3.1-.1 0-.1 0-.2.1s0 .4.1.5l.2.2c.1.1.1.2.1.3.1.4.3.8.6 1.1.2.3.5.5.8.6.1.1.3.2.2.4-.1.2-.2.3-.3.4l-.4.4c-.1 0-.1.1-.2.1h-.5s-.1.1-.2.1h-.2c-.2-.1-.4-.2-.7 0-.2.1-.3.4-.3.6 0 .1-.1.3 0 .4.1-.1.2-.1.2-.2 0 0 .1-.1.2-.1 0 0 .1.1.1.2h.1s.1 0 .2.1c0 .1 0 .2.1.3 0 .1.1.2.2.3l.3.1s-.1-.1-.1-.2c-.1-.1-.1-.3-.1-.4h.3c.1-.1 0-.2.2 0 .1.1.3.3.5.3 0 .1 0 .2.1.3.1-.2.1-.3.2-.5.1-.1.1-.2.1-.3v-.2c0-.1.1-.1.2-.2l.4-.4c.3-.3.5-.6.8-.8.2-.1.6-.2.6-.5s-.3-.5-.5-.6c-.2-.1-.4-.2-.5-.5-.1-.3.4-.6.6-.6.2 0 .4-.1.6-.2h.3c.2.3.4.6.7.9l.4.4.2.2.1.1c.1.1 0 .1 0 .1 0 .3.3.4.6.4h.4c.1 0 .3.1.4.2.1.1.3.1.4.2h.3l.1.1c.1.3.2.7.2 1v.2s-.1.1-.2.1c0 0-.1 0-.1.1s-.1.1-.1.1h-.2c-.1 0-.3 0-.3.1-.1 0-.1.1-.2 0-.3-.1-.5-.1-.7 0-.2.2-.4.6-.3.9l.2-.3.1.1c.1 0 .1.1.2.1h.2c.1 0 .1.2.1.3 0 .1.1.2.3.2 0-.1-.1-.3 0-.3s.3 0 .3-.2c.1.1.2.3.3.3h.1v.1s0 .1.1.2h.1l.1-.2v-.1l.1-.1c0-.1.1-.2.1-.3h.5c.1 0 .3 0 .3-.1 0-.2-.1-.4-.1-.6v-2c0-.2.1-.5 0-.7-.1-.2-.3-.3-.6-.4-.2 0-.5 0-.7-.1-.1 0-.2-.1-.2-.1-.2-.2-.3-.4-.3-.7-.1-.5-.1-1 0-1.4v-.3h.1c.1 0 .2 0 .3-.1l.6-.3c.3-.3.6-.6.6-1.1 0-.3.1-.5.1-.8v-.9c.1.1.3.2.4.2-.2-.2-.3-.4-.4-.6 0-.1-.2-.4-.1-.6.1-.2.1.3.2.3l.3.6c-.1-.3-.1-.7-.1-1 0-.3-.2-.5-.5-.6h-.4l-.1-.2c-.1-.3-.2-.5-.1-.8 0-.4.2-.8.4-1.1.1.3.3.5.5.6.2.1.4.2.6.2.3 0 .6-.3.7-.6.1-.3 0-.7-.2-.9-.3.4-.7.4-1.1.5zm.9.9c0 .2-.3.2-.4.2-.3-.1-.3-.3-.5-.6.2-.1.4-.2.6-.1.2.1.3.3.3.5z"/><path d="M120.1 247.6v-10h1.5l-1.2-1.7h-.3v-.3l-1.7-2.4v2.7h-6.8v-8.5h2.7l-1.2-1.7h-1.4v-2l-1.7-2.4v4.4h-7v-8.5h3.9l-1.2-1.7H103v-3.7l-1.7-2.4v6.1h-6.8V206h-1.7v9.5H86v-6.1l-1.7 2.4v3.7h-2.7l-1.2 1.7h3.9v8.5h-6.8v-4.4l-1.7 2.4v2h-1.4l-1.2 1.7h2.7v8.5h-6.8v-2.7l-1.7 2.4v.3H67l-1.2 1.7h1.5v10H69v-10h6.8v10h1.7v-10h6.8v10H86v-10h6.8v10h1.7v-10h6.8v10h1.7v-10h6.8v10h1.7v-10h6.8v10h1.8zm-35.8-11.8h-6.8v-8.5h6.8v8.5zm8.5 0H86v-8.5h6.8v8.5zm0-10.2H86v-8.5h6.8v8.5zm8.5 10.2h-6.8v-8.5h6.8v8.5zm0-10.2h-6.8v-8.5h6.8v8.5zm8.6 10.2H103v-8.5h6.8v8.5zM22.1 492.4H11.9v-10.2h10.2v10.2zm12 0h-9.4v-10.2h9.4v10.2z" opacity=".15" fill="#444"/><path class="st1" d="M187.4 532l59.3 67.1v230.1l-59.3 37.1V562z"/><path class="st3" d="M246.7 599.1H1024v230H246.7z"/><path class="st2" d="M257.3 637.6h15.9v19.3h-15.9zm19.7 0h15.9v19.3H277zm-19.7 31.2h15.9v19.3h-15.9zm19.7 0h15.9v19.3H277zm-19.7 31.3h15.9v19.3h-15.9zm19.7 0h15.9v19.3H277zm-19.7 31.3h15.9v19.3h-15.9zm19.7 0h15.9v19.3H277zm-19.7 31.3h15.9V782h-15.9zm19.7 0h15.9V782H277zm-19.7 31.2h15.9v19.3h-15.9zm19.7 0h15.9v19.3H277z"/><path class="st0" d="M295.8 599.1h3.1v230h-3.1z"/><path class="st2" d="M301.9 637.6h15.9v19.3h-15.9zm19.8 0h15.9v19.3h-15.9zm-19.8 31.2h15.9v19.3h-15.9zm19.8 0h15.9v19.3h-15.9zm-19.8 31.3h15.9v19.3h-15.9zm19.8 0h15.9v19.3h-15.9zm-19.8 31.3h15.9v19.3h-15.9zm19.8 0h15.9v19.3h-15.9zm-19.8 31.3h15.9V782h-15.9zm19.8 0h15.9V782h-15.9zm-19.8 31.2h15.9v19.3h-15.9zm19.8 0h15.9v19.3h-15.9z"/><path class="st0" d="M340.4 599.1h3.1v230h-3.1z"/><path class="st2" d="M346.6 637.6h15.9v19.3h-15.9zm19.8 0h15.9v19.3h-15.9zm-19.8 31.2h15.9v19.3h-15.9zm19.8 0h15.9v19.3h-15.9zm-19.8 31.3h15.9v19.3h-15.9zm19.8 0h15.9v19.3h-15.9zm-19.8 31.3h15.9v19.3h-15.9zm19.8 0h15.9v19.3h-15.9zm-19.8 31.3h15.9V782h-15.9zm19.8 0h15.9V782h-15.9zm-19.8 31.2h15.9v19.3h-15.9zm19.8 0h15.9v19.3h-15.9z"/><path class="st0" d="M385.1 599.1h3.1v230h-3.1z"/><path class="st2" d="M391.3 637.6h15.9v19.3h-15.9zm19.7 0h15.9v19.3H411zm-19.7 31.2h15.9v19.3h-15.9zm19.7 0h15.9v19.3H411zm-19.7 31.3h15.9v19.3h-15.9zm19.7 0h15.9v19.3H411zm-19.7 31.3h15.9v19.3h-15.9zm19.7 0h15.9v19.3H411zm-19.7 31.3h15.9V782h-15.9zm19.7 0h15.9V782H411zm-19.7 31.2h15.9v19.3h-15.9zm19.7 0h15.9v19.3H411z"/><path class="st0" d="M429.8 599.1h3.1v230h-3.1z"/><path class="st2" d="M435.9 637.6h15.9v19.3h-15.9zm19.8 0h15.9v19.3h-15.9zm-19.8 31.2h15.9v19.3h-15.9zm19.8 0h15.9v19.3h-15.9zm-19.8 31.3h15.9v19.3h-15.9zm19.8 0h15.9v19.3h-15.9zm-19.8 31.3h15.9v19.3h-15.9zm19.8 0h15.9v19.3h-15.9zm-19.8 31.3h15.9V782h-15.9zm19.8 0h15.9V782h-15.9zm-19.8 31.2h15.9v19.3h-15.9zm19.8 0h15.9v19.3h-15.9z"/><path class="st0" d="M474.4 599.1h3.1v230h-3.1z"/><path class="st2" d="M480.6 637.6h15.9v19.3h-15.9zm19.7 0h15.9v19.3h-15.9zm-19.7 31.2h15.9v19.3h-15.9zm19.7 0h15.9v19.3h-15.9zm-19.7 31.3h15.9v19.3h-15.9zm19.7 0h15.9v19.3h-15.9zm-19.7 31.3h15.9v19.3h-15.9zm19.7 0h15.9v19.3h-15.9zm-19.7 31.3h15.9V782h-15.9zm19.7 0h15.9V782h-15.9z"/><path class="st0" d="M519.1 599.1h3.1v230h-3.1z"/><path class="st2" d="M525.2 637.6h15.9v19.3h-15.9zm19.8 0h15.9v19.3H545zm-19.8 31.2h15.9v19.3h-15.9zm19.8 0h15.9v19.3H545zm-19.8 31.3h15.9v19.3h-15.9zm19.8 0h15.9v19.3H545zm-19.8 31.3h15.9v19.3h-15.9zm19.8 0h15.9v19.3H545zm-19.8 31.3h15.9V782h-15.9zm19.8 0h15.9V782H545z"/><path class="st0" d="M563.7 599.1h3.1v230h-3.1z"/><path class="st2" d="M569.9 637.6h15.9v19.3h-15.9zm19.7 0h15.9v19.3h-15.9zm-19.7 31.2h15.9v19.3h-15.9zm19.7 0h15.9v19.3h-15.9zm-19.7 31.3h15.9v19.3h-15.9zm19.7 0h15.9v19.3h-15.9zm-19.7 31.3h15.9v19.3h-15.9zm19.7 0h15.9v19.3h-15.9zm-19.7 31.3h15.9V782h-15.9zm19.7 0h15.9V782h-15.9zm-19.7 31.2h15.9v19.3h-15.9zm19.7 0h15.9v19.3h-15.9z"/><path class="st0" d="M608.4 599.1h3.1v230h-3.1z"/><path class="st2" d="M614.5 637.6h15.9v19.3h-15.9zm19.8 0h15.9v19.3h-15.9zm-19.8 31.2h15.9v19.3h-15.9zm19.8 0h15.9v19.3h-15.9zm-19.8 31.3h15.9v19.3h-15.9zm19.8 0h15.9v19.3h-15.9zm-19.8 31.3h15.9v19.3h-15.9zm19.8 0h15.9v19.3h-15.9zm-19.8 31.3h15.9V782h-15.9zm19.8 0h15.9V782h-15.9zm-19.8 31.2h15.9v19.3h-15.9zm19.8 0h15.9v19.3h-15.9z"/><path class="st0" d="M653 599.1h3.1v230H653z"/><path class="st2" d="M659.2 637.6h15.9v19.3h-15.9zm19.8 0h15.9v19.3H679zm-19.8 31.2h15.9v19.3h-15.9zm19.8 0h15.9v19.3H679zm-19.8 31.3h15.9v19.3h-15.9zm19.8 0h15.9v19.3H679zm-19.8 31.3h15.9v19.3h-15.9zm19.8 0h15.9v19.3H679zm-19.8 31.3h15.9V782h-15.9zm19.8 0h15.9V782H679zm-19.8 31.2h15.9v19.3h-15.9zm19.8 0h15.9v19.3H679z"/><path class="st0" d="M697.7 599.1h3.1v230h-3.1z"/><path class="st2" d="M703.9 637.6h15.9v19.3h-15.9zm19.7 0h15.9v19.3h-15.9zm-19.7 31.2h15.9v19.3h-15.9zm19.7 0h15.9v19.3h-15.9zm-19.7 31.3h15.9v19.3h-15.9zm19.7 0h15.9v19.3h-15.9zm-19.7 31.3h15.9v19.3h-15.9zm19.7 0h15.9v19.3h-15.9zm-19.7 31.3h15.9V782h-15.9zm19.7 0h15.9V782h-15.9zm-19.7 31.2h15.9v19.3h-15.9zm19.7 0h15.9v19.3h-15.9z"/><path class="st0" d="M742.4 599.1h3.1v230h-3.1z"/><path class="st2" d="M748.5 637.6h15.9v19.3h-15.9zm19.8 0h15.9v19.3h-15.9zm-19.8 31.2h15.9v19.3h-15.9zm19.8 0h15.9v19.3h-15.9zm-19.8 31.3h15.9v19.3h-15.9zm19.8 0h15.9v19.3h-15.9zm-19.8 31.3h15.9v19.3h-15.9zm19.8 0h15.9v19.3h-15.9zm-19.8 31.3h15.9V782h-15.9zm19.8 0h15.9V782h-15.9zm-19.8 31.2h15.9v19.3h-15.9zm19.8 0h15.9v19.3h-15.9z"/><path class="st0" d="M787 599.1h3.1v230H787z"/><path class="st2" d="M793.2 637.6h15.9v19.3h-15.9zm19.7 0h15.9v19.3h-15.9zm-19.7 31.2h15.9v19.3h-15.9zm19.7 0h15.9v19.3h-15.9zm-19.7 31.3h15.9v19.3h-15.9zm19.7 0h15.9v19.3h-15.9zm-19.7 31.3h15.9v19.3h-15.9zm19.7 0h15.9v19.3h-15.9zm-19.7 31.3h15.9V782h-15.9zm19.7 0h15.9V782h-15.9z"/><path class="st0" d="M831.7 599.1h3.1v230h-3.1z"/><path class="st2" d="M837.8 637.6h15.9v19.3h-15.9zm19.8 0h15.9v19.3h-15.9zm-19.8 31.2h15.9v19.3h-15.9zm19.8 0h15.9v19.3h-15.9zm-19.8 31.3h15.9v19.3h-15.9zm19.8 0h15.9v19.3h-15.9zm-19.8 31.3h15.9v19.3h-15.9zm19.8 0h15.9v19.3h-15.9zm-19.8 31.3h15.9V782h-15.9zm19.8 0h15.9V782h-15.9z"/><path class="st0" d="M876.3 599.1h3.1v230h-3.1z"/><path class="st2" d="M882.5 637.6h15.9v19.3h-15.9zm19.7 0h15.9v19.3h-15.9zm-19.7 31.2h15.9v19.3h-15.9zm19.7 0h15.9v19.3h-15.9zm-19.7 31.3h15.9v19.3h-15.9zm19.7 0h15.9v19.3h-15.9zm-19.7 31.3h15.9v19.3h-15.9zm19.7 0h15.9v19.3h-15.9zm-19.7 31.3h15.9V782h-15.9zm19.7 0h15.9V782h-15.9zm-19.7 31.2h15.9v19.3h-15.9zm19.7 0h15.9v19.3h-15.9z"/><path class="st0" d="M921 599.1h3.1v230H921zm3.1 39.5h2.7v4.7h-2.7z"/><path class="st2" d="M927.2 637.6h15.9v19.3h-15.9zm19.7 0h15.9v19.3h-15.9zm-19.7 31.2h15.9v19.3h-15.9zm19.7 0h15.9v19.3h-15.9zm-19.7 31.3h15.9v19.3h-15.9zm19.7 0h15.9v19.3h-15.9zm-19.7 31.3h15.9v19.3h-15.9zm19.7 0h15.9v19.3h-15.9zm-19.7 31.3h15.9V782h-15.9zm19.7 0h15.9V782h-15.9zm-19.7 31.2h15.9v19.3h-15.9zm19.7 0h15.9v19.3h-15.9z"/><path class="st0" d="M965.7 599.1h3.1v230h-3.1z"/><path class="st2" d="M971.8 637.6h15.9v19.3h-15.9zm19.8 0h15.9v19.3h-15.9zm-19.8 31.2h15.9v19.3h-15.9zm19.8 0h15.9v19.3h-15.9zm-19.8 31.3h15.9v19.3h-15.9zm19.8 0h15.9v19.3h-15.9zm-19.8 31.3h15.9v19.3h-15.9zm19.8 0h15.9v19.3h-15.9zm-19.8 31.3h15.9V782h-15.9zm19.8 0h15.9V782h-15.9zm-19.8 31.2h15.9v19.3h-15.9zm19.8 0h15.9v19.3h-15.9z"/><path class="st1" d="M474.4 787.5h92.5v41.7h-92.5zm312.6 0h92.5v41.7H787z"/><path d="M651.5 578.8h2v4.3c.5 0 .8-.2.9-.3.2-.2.4-.7.7-1.6.4-1.1.8-1.8 1.3-2 .4-.3 1.1-.4 2-.4h.3v1.5h-.3c-.4 0-.7.1-.9.2-.2.1-.3.3-.5.5-.1.2-.3.6-.5 1.3-.1.3-.3.6-.4.9-.1.2-.4.5-.8.7.5.1.8.4 1.1.8.3.4.6.9 1 1.6l1.4 2.7h-2.4l-1.2-2.6s-.1-.1-.1-.2c0 0-.1-.2-.3-.5-.3-.5-.5-.8-.6-.9-.2-.1-.4-.2-.8-.2v4.4h-2v-10.2zm13.4 10v-10h3.2c1.2 0 2 0 2.4.2.6.2 1.1.5 1.4 1s.6 1.2.6 2c0 .6-.1 1.1-.3 1.6-.2.4-.5.7-.9 1-.3.2-.7.4-1 .5-.5.1-1.2.1-2.1.1H667v3.8h-2.1zm2.1-8.3v2.8h1.1c.8 0 1.3-.1 1.6-.2.3-.1.5-.3.6-.5.2-.2.2-.5.2-.8 0-.4-.1-.7-.3-.9-.2-.2-.5-.4-.8-.4-.2 0-.7-.1-1.5-.1h-.9zm20 8.3h-2.2l-.9-2.3h-4l-.8 2.3H677l3.9-10h2.1l4 10zm-3.7-3.9l-1.4-3.7-1.4 3.7h2.8zm15.7.2l2 .6c-.3 1.1-.8 1.9-1.5 2.4s-1.6.8-2.7.8c-1.3 0-2.4-.5-3.3-1.4-.9-.9-1.3-2.2-1.3-3.7 0-1.7.4-3 1.3-3.9.9-.9 2-1.4 3.4-1.4 1.2 0 2.2.4 3 1.1.5.4.8 1 1 1.8l-2 .5c-.1-.5-.4-.9-.7-1.2-.4-.3-.8-.5-1.4-.5-.7 0-1.3.3-1.8.8s-.7 1.4-.7 2.6c0 1.3.2 2.2.7 2.7.5.5 1 .8 1.8.8.5 0 1-.2 1.4-.5s.7-.7.8-1.5zm8.6 3.7v-10h2v3.9h4v-3.9h2v10h-2v-4.4h-4v4.4h-2zm14.6-4.9c0-1 .2-1.9.5-2.6.2-.5.5-1 .9-1.4.4-.4.8-.7 1.3-.9.6-.3 1.3-.4 2.2-.4 1.5 0 2.7.5 3.5 1.4.9.9 1.3 2.2 1.3 3.8 0 1.6-.4 2.9-1.3 3.8-.9.9-2.1 1.4-3.5 1.4-1.5 0-2.7-.5-3.6-1.4-.8-.9-1.3-2.1-1.3-3.7zm2.1-.1c0 1.1.3 2 .8 2.6s1.2.9 2 .9 1.5-.3 2-.9c.5-.6.8-1.5.8-2.6s-.3-2-.8-2.6c-.5-.6-1.2-.8-2-.8s-1.5.3-2 .9-.8 1.4-.8 2.5zm19.9 5v-4.2h-.4c-.6 0-1.1.1-1.3.3-.3.2-.7.8-1.3 1.7l-1.5 2.2h-2.4l1.2-2c.5-.8.9-1.3 1.2-1.6s.6-.6 1.1-.8c-.9-.1-1.6-.5-2-1-.4-.5-.6-1.1-.6-1.8 0-.6.2-1.2.5-1.6.3-.5.7-.8 1.2-1 .5-.2 1.3-.2 2.3-.2h4.3v10h-2.3zm0-8.3h-1.6c-.8 0-1.3 0-1.6.1-.3 0-.5.2-.7.4-.2.2-.3.5-.3.8 0 .3.1.6.3.8.2.2.4.3.7.4.3.1.8.1 1.7.1h1.5v-2.6zm9 8.3v-10h3.2c1.2 0 2 0 2.4.2.6.2 1.1.5 1.4 1s.6 1.2.6 2c0 .6-.1 1.1-.3 1.6-.2.4-.5.7-.9 1-.3.2-.7.4-1 .5-.5.1-1.2.1-2.1.1h-1.3v3.8h-2zm2-8.3v2.8h1.1c.8 0 1.3-.1 1.6-.2.3-.1.5-.3.6-.5.2-.2.2-.5.2-.8 0-.4-.1-.7-.3-.9-.2-.2-.5-.4-.8-.4-.2 0-.7-.1-1.5-.1h-.9zm18.3 4.6l2 .6c-.3 1.1-.8 1.9-1.5 2.4s-1.6.8-2.7.8c-1.3 0-2.4-.5-3.3-1.4-.9-.9-1.3-2.2-1.3-3.7 0-1.7.4-3 1.3-3.9.9-.9 2-1.4 3.4-1.4 1.2 0 2.2.4 3 1.1.5.4.8 1 1 1.8l-2 .5c-.1-.5-.4-.9-.7-1.2-.4-.3-.8-.5-1.4-.5-.7 0-1.3.3-1.8.8s-.7 1.4-.7 2.6c0 1.3.2 2.2.7 2.7.5.5 1 .8 1.8.8.5 0 1-.2 1.4-.5s.6-.7.8-1.5zm8.6-6.3h2v4.3c.5 0 .8-.2.9-.3.2-.2.4-.7.7-1.6.4-1.1.8-1.8 1.3-2 .4-.3 1.1-.4 2-.4h.3v1.5h-.3c-.4 0-.7.1-.9.2-.2.1-.3.3-.5.5-.1.2-.3.6-.5 1.3-.1.3-.3.6-.4.9-.1.2-.4.5-.8.7.5.1.8.4 1.1.8.3.4.6.9 1 1.6l1.4 2.7H787l-1.2-2.6s-.1-.1-.1-.2c0 0-.1-.2-.3-.5-.3-.5-.5-.8-.6-.9-.2-.1-.4-.2-.8-.2v4.4h-2v-10.2zm39.4 5.1c0-1 .2-1.9.5-2.6.2-.5.5-1 .9-1.4.4-.4.8-.7 1.3-.9.6-.3 1.3-.4 2.2-.4 1.5 0 2.7.5 3.5 1.4.9.9 1.3 2.2 1.3 3.8 0 1.6-.4 2.9-1.3 3.8-.9.9-2.1 1.4-3.5 1.4-1.5 0-2.7-.5-3.6-1.4-.9-.9-1.3-2.1-1.3-3.7zm2.1-.1c0 1.1.3 2 .8 2.6s1.2.9 2 .9 1.5-.3 2-.9c.5-.6.8-1.5.8-2.6s-.3-2-.8-2.6c-.5-.6-1.2-.8-2-.8s-1.5.3-2 .9-.8 1.4-.8 2.5zm14.1 5v-10h3.2c1.2 0 2 0 2.4.2.6.2 1.1.5 1.4 1s.6 1.2.6 2c0 .6-.1 1.1-.3 1.6-.2.4-.5.7-.9 1-.3.2-.7.4-1 .5-.5.1-1.2.1-2.1.1h-1.3v3.8h-2zm2-8.3v2.8h1.1c.8 0 1.3-.1 1.6-.2.3-.1.5-.3.6-.5.2-.2.2-.5.2-.8 0-.4-.1-.7-.3-.9-.2-.2-.5-.4-.8-.4-.2 0-.7-.1-1.5-.1h-.9zm12.2-1.7h6.9v8.3h.9v3.9H858v-2.2h-6.3v2.2H850v-3.9h.8c.4-.9.7-1.9.8-3s.2-2.6.2-4.3v-1zm1.9 1.7c0 3-.3 5.3-.8 6.7h3.8v-6.7h-3zm12.1 8.3v-10h7.4v1.7H868v2.2h5v1.7h-5v2.7h5.6v1.7h-7.7zm14.3 0v-10h2v3.9h4v-3.9h2v10h-2v-4.4h-4v4.4h-2zm14.6-4.9c0-1 .2-1.9.5-2.6.2-.5.5-1 .9-1.4.4-.4.8-.7 1.3-.9.6-.3 1.3-.4 2.2-.4 1.5 0 2.7.5 3.5 1.4.9.9 1.3 2.2 1.3 3.8 0 1.6-.4 2.9-1.3 3.8-.9.9-2.1 1.4-3.5 1.4-1.5 0-2.7-.5-3.6-1.4-.9-.9-1.3-2.1-1.3-3.7zm2.1-.1c0 1.1.3 2 .8 2.6s1.2.9 2 .9 1.5-.3 2-.9c.5-.6.8-1.5.8-2.6s-.3-2-.8-2.6c-.5-.6-1.2-.8-2-.8s-1.5.3-2 .9-.8 1.4-.8 2.5zm14.1 5v-10h2v3.9h4v-3.9h2v10h-2v-4.4h-4v4.4h-2zm14.6-4.9c0-1 .2-1.9.5-2.6.2-.5.5-1 .9-1.4.4-.4.8-.7 1.3-.9.6-.3 1.3-.4 2.2-.4 1.5 0 2.7.5 3.5 1.4.9.9 1.3 2.2 1.3 3.8 0 1.6-.4 2.9-1.3 3.8-.9.9-2.1 1.4-3.5 1.4-1.5 0-2.7-.5-3.6-1.4-.9-.9-1.3-2.1-1.3-3.7zm2.1-.1c0 1.1.3 2 .8 2.6s1.2.9 2 .9 1.5-.3 2-.9c.5-.6.8-1.5.8-2.6s-.3-2-.8-2.6c-.5-.6-1.2-.8-2-.8s-1.5.3-2 .9-.8 1.4-.8 2.5zm20.5 1.3l2 .6c-.3 1.1-.8 1.9-1.5 2.4s-1.6.8-2.7.8c-1.3 0-2.4-.5-3.3-1.4-.9-.9-1.3-2.2-1.3-3.7 0-1.7.4-3 1.3-3.9.9-.9 2-1.4 3.4-1.4 1.2 0 2.2.4 3 1.1.5.4.8 1 1 1.8l-2 .5c-.1-.5-.4-.9-.7-1.2-.4-.3-.8-.5-1.4-.5-.7 0-1.3.3-1.8.8s-.7 1.4-.7 2.6c0 1.3.2 2.2.7 2.7.5.5 1 .8 1.8.8.5 0 1-.2 1.4-.5s.6-.7.8-1.5zm8.6 3.7v-10h2v3.9h4v-3.9h2v10h-2v-4.4h-4v4.4h-2zm15-10h2v4h2.7c.7 0 1.3.1 1.8.3.5.2.9.5 1.3 1 .3.5.5 1.1.5 1.7 0 .7-.2 1.3-.5 1.8-.4.5-.8.8-1.2 1-.4.2-1.1.2-1.9.2h-4.7v-10zm2.1 8.3h2c.6 0 1.1 0 1.3-.1.2-.1.5-.2.7-.4.2-.2.3-.5.3-.8 0-.4-.2-.8-.5-1-.3-.2-.9-.3-1.7-.3h-2.1v2.6zm7.5-8.3h2v10h-2v-10zm9 0h1.9v6.7l4.1-6.7h2v10h-1.9v-6.5l-4.1 6.5h-2v-10zm5.2-2.5h.9c-.1.6-.3 1.1-.7 1.5-.4.4-.9.5-1.5.5s-1.1-.2-1.5-.5c-.4-.4-.6-.8-.7-1.5h.9c0 .3.1.6.3.7.2.2.5.2.9.2s.7-.1.9-.2c.4-.1.5-.4.5-.7zm10.5 9.9l-.5-5.1v-2.4h2.1v2.4l-.5 5.1h-1.1zm-.4 2.6v-1.9h1.9v1.9h-1.9zM806 571.3l3.7 7.5 8.2 1.2-5.9 5.8 1.4 8.2-7.4-3.9-7.4 3.9 1.4-8.2-5.9-5.8 8.2-1.2z" fill="#cc584c"/><path d="M246.7 745.1v84.1H1024V626.8zM187.4 584L0 635.7v230.6h187.4z" opacity=".15" fill="#444"/></svg>