<svg version="1.1" xmlns="http://www.w3.org/2000/svg" x="0" y="0" viewBox="0 0 512 512" xml:space="preserve"><style type="text/css">.st0{fill:#ddd}.st1{fill:#cc584c}</style><path class="st0" d="M210 124V55h92v69l42 388H168z"/><path class="st1" d="m312.1 217 4.3 40H195.6l4.3-40h112.2zm-4.9-45-3.8-35.5h-94.7l-3.8 35.5h102.3zm14.1 130H190.7l-4.3 40h139.2l-4.3-40zM168 512h176l-4.3-40H172.3l-4.3 40zm9.2-85h157.6l-4.3-40h-149l-4.3 40zM260 21h-8V11h8z"/><path class="st1" d="M207.1 51c8.6-18.3 27.3-31 48.9-31s40.2 12.7 48.9 31h-97.8z"/><path d="M204 55h104c1.1 0 2-.9 2-2v-1c0-1.1-.9-2-2-2H204c-1.1 0-2 .9-2 2v1c0 1.1.9 2 2 2z" fill="#bbb"/><circle class="st0" cx="256" cy="7" r="7"/><path d="M280 94.3h22v-32h-22c-2.2 0-4 1.8-4 4v24c0 2.2 1.8 4 4 4z" fill="#ffa000"/><path d="M335 134h-1.5v-30c0-1.4-1.1-2.5-2.5-2.5H181c-1.4 0-2.5 1.1-2.5 2.5v30H177c-1.1 0-2 .9-2 2v1c0 1.1.9 2 2 2h158c1.1 0 2-.9 2-2v-1c0-1.1-.9-2-2-2zm-151.5 0v-27.5h5V134h-5zm10 0v-27.5h5V134h-5zm10 0v-27.5h5V134h-5zm10 0v-27.5h5V134h-5zm10 0v-27.5h5V134h-5zm10 0v-27.5h5V134h-5zm10 0v-27.5h5V134h-5zm10 0v-27.5h5V134h-5zm10 0v-27.5h5V134h-5zm10 0v-27.5h5V134h-5zm10 0v-27.5h5V134h-5zm10 0v-27.5h5V134h-5zm10 0v-27.5h5V134h-5zm10 0v-27.5h5V134h-5zm10 0v-27.5h5V134h-5z" fill="#b8554b"/><path d="M249 7c0 2.4 1.2 4.5 3 5.7v7.4c-19.5 1.4-36.1 13.2-44.4 29.9H204c-1.1 0-2 .9-2 2v1c0 1.1.9 2 2 2h6v46.5h-29c-1.4 0-2.5 1.1-2.5 2.5v30H177c-1.1 0-2 .9-2 2v1c0 1.1.9 2 2 2h31.4l-8.4 78-4.3 40-4.9 45-4.3 40-14.1 130-4.3 40h88V0c-4 0-7.1 3.1-7.1 7zm-60.5 127h-5v-27.5h5V134zm10 0h-5v-27.5h5V134zm10 0h-5v-27.5h5V134z" opacity=".15" fill="#444"/></svg>