<svg version="1.1" xmlns="http://www.w3.org/2000/svg" x="0" y="0" viewBox="0 0 512 512" xml:space="preserve"><style type="text/css">.st0{fill:#ddd}.st4{fill:#36434f}.st5{fill:#122a3a}</style><path class="st0" d="M36 391.3h440v15H36z"/><path fill="#e0ac7e" d="M256 113.3l-220 106v173h440v-173z"/><path opacity=".15" fill="#444" d="M36 219.3v27.9l220-105.9 220 105.9v-27.9l-220-106z"/><path fill="#66442b" d="M274.4 114.6l-18.4-8.9-18.4 8.9L0 229l6.9 14.5 249.1-120 249.1 120L512 229z"/><circle class="st0" cx="256" cy="214.3" r="12"/><path class="st4" d="M78.5 276.3h165v116h-165z"/><path class="st5" d="M78.5 376.3h165v6h-165zm0-10h165v6h-165zm0-10h165v6h-165zm0-10h165v6h-165zm0-10h165v6h-165zm0-10h165v6h-165zm0-10h165v6h-165zm0-10h165v6h-165zm0-10h165v6h-165zm0-10h165v6h-165zm0 100h165v6h-165zm0-110h165v6h-165z"/><path class="st4" d="M268.5 276.3h165v116h-165z"/><path class="st5" d="M268.5 376.3h165v6h-165zm0-10h165v6h-165zm0-10h165v6h-165zm0-10h165v6h-165zm0-10h165v6h-165zm0-10h165v6h-165zm0-10h165v6h-165zm0-10h165v6h-165zm0-10h165v6h-165zm0-10h165v6h-165zm0 100h165v6h-165zm0-110h165v6h-165z"/><path d="M78.5 392.3h165v14h-165zm190 0h165v14h-165z" fill="#bbb"/></svg>