<svg version="1.1" xmlns="http://www.w3.org/2000/svg" x="0" y="0" viewBox="0 0 512 512" xml:space="preserve"><style type="text/css">.st0{fill:#a18267}.st3{fill:#ddd}.st7{fill:#b25918}</style><path class="st0" d="M463 512H49V200.2L256 31.6l207 168.6z"/><path d="m80 174.9-2.5 2.1h357l-2.5-2.1zM209.4 69.5l-2.6 2.1h98.4l-2.6-2.1zM49 448.8h414v2.1H49zM183.5 90.6l-2.5 2.1h150l-2.5-2.1zM49 427.7h414v2.1H49zm0 63.2h414v2.1H49zm108.7-379.2-2.6 2.1h201.8l-2.6-2.1zm302.7 86.4-2.6-2.1H54.2l-2.6 2.1zm-354.5-44.3-2.6 2.1h305.4l-2.6-2.1zm25.9-21.1-2.6 2.1h253.6l-2.6-2.1zM49 469.9h414v2.1H49zm0-189.7h414v2.1H49zm0-21h414v2.1H49zm0 42.1h414v2.1H49zm0-84.3h414v2.1H49zm0 21.1h414v2.1H49zm0 105.3h414v2.1H49zm0 21.1h414v2.1H49zm0 21.1h414v2.1H49zm0 21.1h414v2.1H49zm0-84.3h414v2.1H49z" fill="#444" opacity=".15"/><path class="st3" d="M70.1 511.8c-1-.6-1.7-1.9-1.7-3.5s.7-2.9 1.7-3.5c-1.5-.6-2.6-2.1-2.6-3.9s1.1-3.3 2.6-3.9c-1-.6-1.7-1.9-1.7-3.5s.7-2.9 1.7-3.5c-1.5-.6-2.6-2.1-2.6-3.9s1.1-3.3 2.6-3.9c-1-.6-1.7-1.9-1.7-3.5s.7-2.9 1.7-3.5c-1.5-.6-2.6-2.1-2.6-3.9 0-1.8 1.1-3.3 2.6-3.9-1-.6-1.7-1.9-1.7-3.5s.7-2.9 1.7-3.5c-1.5-.6-2.6-2.1-2.6-3.9 0-1.8 1.1-3.3 2.6-3.9-1-.6-1.7-1.9-1.7-3.5s.7-2.9 1.7-3.5c-1.5-.6-2.6-2.1-2.6-3.9s1.1-3.3 2.6-3.9c-1-.6-1.7-1.9-1.7-3.5s.7-2.9 1.7-3.5c-1.5-.6-2.6-2.1-2.6-3.9s1.1-3.3 2.6-3.9c-1-.6-1.7-1.9-1.7-3.5s.7-2.9 1.7-3.5c-1.5-.6-2.6-2.1-2.6-3.9 0-1.8 1.1-3.3 2.6-3.9-1-.6-1.7-1.9-1.7-3.5s.7-2.9 1.7-3.5c-1.5-.6-2.6-2.1-2.6-3.9s1.1-3.3 2.6-3.9c-1-.6-1.7-1.9-1.7-3.5s.7-2.9 1.7-3.5c-1.5-.6-2.6-2.1-2.6-3.9s1.1-3.3 2.6-3.9c-1-.6-1.7-1.9-1.7-3.5s.7-2.9 1.7-3.5c-1.5-.6-2.6-2.1-2.6-3.9 0-1.8 1.1-3.3 2.6-3.9-1-.6-1.7-1.9-1.7-3.5s.7-2.9 1.7-3.5c-1.5-.6-2.6-2.1-2.6-3.9 0-1.8 1.1-3.3 2.6-3.9-1-.6-1.7-1.9-1.7-3.5s.7-2.9 1.7-3.5c-1.5-.6-2.6-2.1-2.6-3.9s1.1-3.3 2.6-3.9c-1-.6-1.7-1.9-1.7-3.5s.7-2.9 1.7-3.5c-1.5-.6-2.6-2.1-2.6-3.9s1.1-3.3 2.6-3.9c-1-.6-1.7-1.9-1.7-3.5s.7-2.9 1.7-3.5c-1.5-.6-2.6-2.1-2.6-3.9 0-1.8 1.1-3.3 2.6-3.9-1-.6-1.7-1.9-1.7-3.5s.7-2.9 1.7-3.5c-1.5-.6-2.6-2.1-2.6-3.9s1.1-3.3 2.6-3.9c-1-.6-1.7-1.9-1.7-3.5s.7-2.9 1.7-3.5c-1.5-.6-2.6-2.1-2.6-3.9s1.1-3.3 2.6-3.9c-1-.6-1.7-1.9-1.7-3.5s.7-2.9 1.7-3.5c-1.5-.6-2.6-2.1-2.6-3.9 0-1.8 1.1-3.3 2.6-3.9-1-.6-1.7-1.9-1.7-3.5s.7-2.9 1.7-3.5c-1.5-.6-2.6-2.1-2.6-3.9 0-1.8 1.1-3.3 2.6-3.9-1-.6-1.7-1.9-1.7-3.5s.7-2.9 1.7-3.5c-1.5-.6-2.6-2.1-2.6-3.9 0-1.8 1.1-3.3 2.6-3.9-1-.6-1.7-1.9-1.7-3.5s.7-2.9 1.7-3.5c-1.5-.6-2.6-2.1-2.6-3.9 0-1.8 1.1-3.3 2.6-3.9-1-.6-1.7-1.9-1.7-3.5s.7-2.9 1.7-3.5c-1.5-.6-2.6-2.1-2.6-3.9s1.1-3.3 2.6-3.9c-1-.6-1.7-1.9-1.7-3.5s.7-2.9 1.7-3.5v-15H47.9v331.9H70v.9zM59 191.2c0-1.5 1.2-2.6 2.6-2.6 1.5 0 2.6 1.2 2.6 2.6 0 1.5-1.2 2.6-2.6 2.6-1.4 0-2.6-1.1-2.6-2.6zm0 14.8c0-1.5 1.2-2.6 2.6-2.6 1.5 0 2.6 1.2 2.6 2.6s-1.2 2.6-2.6 2.6c-1.4 0-2.6-1.2-2.6-2.6zm0 14.7c0-1.5 1.2-2.6 2.6-2.6 1.5 0 2.6 1.2 2.6 2.6s-1.2 2.6-2.6 2.6c-1.4 0-2.6-1.1-2.6-2.6zm0 14.8c0-1.5 1.2-2.6 2.6-2.6 1.5 0 2.6 1.2 2.6 2.6s-1.2 2.6-2.6 2.6c-1.4 0-2.6-1.2-2.6-2.6zm0 14.7c0-1.5 1.2-2.6 2.6-2.6 1.5 0 2.6 1.2 2.6 2.6s-1.2 2.6-2.6 2.6c-1.4 0-2.6-1.1-2.6-2.6zm0 14.8c0-1.5 1.2-2.6 2.6-2.6 1.5 0 2.6 1.2 2.6 2.6 0 1.5-1.2 2.6-2.6 2.6-1.4 0-2.6-1.2-2.6-2.6zm0 14.7c0-1.5 1.2-2.6 2.6-2.6 1.5 0 2.6 1.2 2.6 2.6 0 1.5-1.2 2.6-2.6 2.6-1.4 0-2.6-1.1-2.6-2.6zm0 14.8c0-1.5 1.2-2.6 2.6-2.6 1.5 0 2.6 1.2 2.6 2.6 0 1.5-1.2 2.6-2.6 2.6-1.4 0-2.6-1.2-2.6-2.6zm0 14.7c0-1.5 1.2-2.6 2.6-2.6 1.5 0 2.6 1.2 2.6 2.6 0 1.5-1.2 2.6-2.6 2.6-1.4 0-2.6-1.1-2.6-2.6zm0 14.8c0-1.5 1.2-2.6 2.6-2.6 1.5 0 2.6 1.2 2.6 2.6 0 1.5-1.2 2.6-2.6 2.6-1.4 0-2.6-1.2-2.6-2.6zm0 14.7c0-1.5 1.2-2.6 2.6-2.6 1.5 0 2.6 1.2 2.6 2.6 0 1.5-1.2 2.6-2.6 2.6-1.4 0-2.6-1.1-2.6-2.6zm0 14.7c0-1.5 1.2-2.6 2.6-2.6 1.5 0 2.6 1.2 2.6 2.6 0 1.5-1.2 2.6-2.6 2.6-1.4.1-2.6-1.1-2.6-2.6zm0 14.8c0-1.5 1.2-2.6 2.6-2.6 1.5 0 2.6 1.2 2.6 2.6 0 1.5-1.2 2.6-2.6 2.6-1.4 0-2.6-1.1-2.6-2.6zm0 14.7c0-1.5 1.2-2.6 2.6-2.6 1.5 0 2.6 1.2 2.6 2.6s-1.2 2.6-2.6 2.6c-1.4.1-2.6-1.1-2.6-2.6zm0 14.8c0-1.5 1.2-2.6 2.6-2.6 1.5 0 2.6 1.2 2.6 2.6 0 1.5-1.2 2.6-2.6 2.6-1.4 0-2.6-1.1-2.6-2.6zm0 14.7c0-1.5 1.2-2.6 2.6-2.6 1.5 0 2.6 1.2 2.6 2.6 0 1.5-1.2 2.6-2.6 2.6-1.4.1-2.6-1.1-2.6-2.6zm0 14.8c0-1.5 1.2-2.6 2.6-2.6 1.5 0 2.6 1.2 2.6 2.6 0 1.5-1.2 2.6-2.6 2.6-1.4 0-2.6-1.2-2.6-2.6zm0 14.7c0-1.5 1.2-2.6 2.6-2.6 1.5 0 2.6 1.2 2.6 2.6 0 1.5-1.2 2.6-2.6 2.6-1.4.1-2.6-1.1-2.6-2.6zm0 14.8c0-1.5 1.2-2.6 2.6-2.6 1.5 0 2.6 1.2 2.6 2.6 0 1.5-1.2 2.6-2.6 2.6-1.4 0-2.6-1.2-2.6-2.6zm0 14.7c0-1.5 1.2-2.6 2.6-2.6 1.5 0 2.6 1.2 2.6 2.6 0 1.5-1.2 2.6-2.6 2.6-1.4.1-2.6-1.1-2.6-2.6zm0 14.8c0-1.5 1.2-2.6 2.6-2.6 1.5 0 2.6 1.2 2.6 2.6s-1.2 2.6-2.6 2.6c-1.4 0-2.6-1.2-2.6-2.6zm0 14.7c0-1.5 1.2-2.6 2.6-2.6 1.5 0 2.6 1.2 2.6 2.6 0 1.5-1.2 2.6-2.6 2.6-1.4.1-2.6-1.1-2.6-2.6zM441.9 512H464V180.1h-22.1v15c1 .6 1.7 1.9 1.7 3.5s-.7 2.9-1.7 3.5c1.5.6 2.6 2.1 2.6 3.9s-1.1 3.3-2.6 3.9c1 .6 1.7 1.9 1.7 3.5s-.7 2.9-1.7 3.5c1.5.6 2.6 2.1 2.6 3.9 0 1.8-1.1 3.3-2.6 3.9 1 .6 1.7 1.9 1.7 3.5s-.7 2.9-1.7 3.5c1.5.6 2.6 2.1 2.6 3.9 0 1.8-1.1 3.3-2.6 3.9 1 .6 1.7 1.9 1.7 3.5s-.7 2.9-1.7 3.5c1.5.6 2.6 2.1 2.6 3.9 0 1.8-1.1 3.3-2.6 3.9 1 .6 1.7 1.9 1.7 3.5s-.7 2.9-1.7 3.5c1.5.6 2.6 2.1 2.6 3.9 0 1.8-1.1 3.3-2.6 3.9 1 .6 1.7 1.9 1.7 3.5s-.7 2.9-1.7 3.5c1.5.6 2.6 2.1 2.6 3.9s-1.1 3.3-2.6 3.9c1 .6 1.7 1.9 1.7 3.5s-.7 2.9-1.7 3.5c1.5.6 2.6 2.1 2.6 3.9s-1.1 3.3-2.6 3.9c1 .6 1.7 1.9 1.7 3.5s-.7 2.9-1.7 3.5c1.5.6 2.6 2.1 2.6 3.9 0 1.8-1.1 3.3-2.6 3.9 1 .6 1.7 1.9 1.7 3.5s-.7 2.9-1.7 3.5c1.5.6 2.6 2.1 2.6 3.9s-1.1 3.3-2.6 3.9c1 .6 1.7 1.9 1.7 3.5s-.7 2.9-1.7 3.5c1.5.6 2.6 2.1 2.6 3.9s-1.1 3.3-2.6 3.9c1 .6 1.7 1.9 1.7 3.5s-.7 2.9-1.7 3.5c1.5.6 2.6 2.1 2.6 3.9 0 1.8-1.1 3.3-2.6 3.9 1 .6 1.7 1.9 1.7 3.5s-.7 2.9-1.7 3.5c1.5.6 2.6 2.1 2.6 3.9 0 1.8-1.1 3.3-2.6 3.9 1 .6 1.7 1.9 1.7 3.5s-.7 2.9-1.7 3.5c1.5.6 2.6 2.1 2.6 3.9s-1.1 3.3-2.6 3.9c1 .6 1.7 1.9 1.7 3.5s-.7 2.9-1.7 3.5c1.5.6 2.6 2.1 2.6 3.9s-1.1 3.3-2.6 3.9c1 .6 1.7 1.9 1.7 3.5s-.7 2.9-1.7 3.5c1.5.6 2.6 2.1 2.6 3.9 0 1.8-1.1 3.3-2.6 3.9 1 .6 1.7 1.9 1.7 3.5s-.7 2.9-1.7 3.5c1.5.6 2.6 2.1 2.6 3.9s-1.1 3.3-2.6 3.9c1 .6 1.7 1.9 1.7 3.5s-.7 2.9-1.7 3.5c1.5.6 2.6 2.1 2.6 3.9s-1.1 3.3-2.6 3.9c1 .6 1.7 1.9 1.7 3.5s-.7 2.9-1.7 3.5c1.5.6 2.6 2.1 2.6 3.9 0 1.8-1.1 3.3-2.6 3.9 1 .6 1.7 1.9 1.7 3.5s-.7 2.9-1.7 3.5c1.5.6 2.6 2.1 2.6 3.9 0 1.8-1.1 3.3-2.6 3.9 1 .6 1.7 1.9 1.7 3.5s-.7 2.9-1.7 3.5c1.5.6 2.6 2.1 2.6 3.9s-1.1 3.3-2.6 3.9c1 .6 1.7 1.9 1.7 3.5s-.7 2.9-1.7 3.5c1.5.6 2.6 2.1 2.6 3.9s-1.1 3.3-2.6 3.9c1 .6 1.7 1.9 1.7 3.5s-.7 2.9-1.7 3.5v-.9zm8.5-318.2c-1.5 0-2.6-1.2-2.6-2.6 0-1.5 1.2-2.6 2.6-2.6 1.5 0 2.6 1.2 2.6 2.6 0 1.5-1.2 2.6-2.6 2.6zm0 14.8c-1.5 0-2.6-1.2-2.6-2.6s1.2-2.6 2.6-2.6c1.5 0 2.6 1.2 2.6 2.6s-1.2 2.6-2.6 2.6zm0 14.7c-1.5 0-2.6-1.2-2.6-2.6s1.2-2.6 2.6-2.6c1.5 0 2.6 1.2 2.6 2.6s-1.2 2.6-2.6 2.6zm0 14.8c-1.5 0-2.6-1.2-2.6-2.6s1.2-2.6 2.6-2.6c1.5 0 2.6 1.2 2.6 2.6s-1.2 2.6-2.6 2.6zm0 14.7c-1.5 0-2.6-1.2-2.6-2.6s1.2-2.6 2.6-2.6c1.5 0 2.6 1.2 2.6 2.6s-1.2 2.6-2.6 2.6zm0 14.8c-1.5 0-2.6-1.2-2.6-2.6 0-1.5 1.2-2.6 2.6-2.6 1.5 0 2.6 1.2 2.6 2.6 0 1.4-1.2 2.6-2.6 2.6zm0 14.7c-1.5 0-2.6-1.2-2.6-2.6 0-1.5 1.2-2.6 2.6-2.6 1.5 0 2.6 1.2 2.6 2.6 0 1.5-1.2 2.6-2.6 2.6zm0 14.8c-1.5 0-2.6-1.2-2.6-2.6 0-1.5 1.2-2.6 2.6-2.6 1.5 0 2.6 1.2 2.6 2.6 0 1.4-1.2 2.6-2.6 2.6zm0 14.7c-1.5 0-2.6-1.2-2.6-2.6 0-1.5 1.2-2.6 2.6-2.6 1.5 0 2.6 1.2 2.6 2.6 0 1.5-1.2 2.6-2.6 2.6zm0 14.8c-1.5 0-2.6-1.2-2.6-2.6 0-1.5 1.2-2.6 2.6-2.6 1.5 0 2.6 1.2 2.6 2.6 0 1.4-1.2 2.6-2.6 2.6zm0 14.7c-1.5 0-2.6-1.2-2.6-2.6 0-1.5 1.2-2.6 2.6-2.6 1.5 0 2.6 1.2 2.6 2.6 0 1.5-1.2 2.6-2.6 2.6zm0 14.8c-1.5 0-2.6-1.2-2.6-2.6 0-1.5 1.2-2.6 2.6-2.6 1.5 0 2.6 1.2 2.6 2.6 0 1.4-1.2 2.6-2.6 2.6zm0 14.7c-1.5 0-2.6-1.2-2.6-2.6 0-1.5 1.2-2.6 2.6-2.6 1.5 0 2.6 1.2 2.6 2.6 0 1.5-1.2 2.6-2.6 2.6zm0 14.8c-1.5 0-2.6-1.2-2.6-2.6s1.2-2.6 2.6-2.6c1.5 0 2.6 1.2 2.6 2.6s-1.2 2.6-2.6 2.6zm0 14.7c-1.5 0-2.6-1.2-2.6-2.6 0-1.5 1.2-2.6 2.6-2.6 1.5 0 2.6 1.2 2.6 2.6 0 1.5-1.2 2.6-2.6 2.6zm0 14.8c-1.5 0-2.6-1.2-2.6-2.6 0-1.5 1.2-2.6 2.6-2.6 1.5 0 2.6 1.2 2.6 2.6 0 1.4-1.2 2.6-2.6 2.6zm0 14.7c-1.5 0-2.6-1.2-2.6-2.6 0-1.5 1.2-2.6 2.6-2.6 1.5 0 2.6 1.2 2.6 2.6 0 1.4-1.2 2.6-2.6 2.6zm0 14.8c-1.5 0-2.6-1.2-2.6-2.6 0-1.5 1.2-2.6 2.6-2.6 1.5 0 2.6 1.2 2.6 2.6 0 1.4-1.2 2.6-2.6 2.6zm0 14.7c-1.5 0-2.6-1.2-2.6-2.6 0-1.5 1.2-2.6 2.6-2.6 1.5 0 2.6 1.2 2.6 2.6 0 1.4-1.2 2.6-2.6 2.6zm0 14.8c-1.5 0-2.6-1.2-2.6-2.6 0-1.5 1.2-2.6 2.6-2.6 1.5 0 2.6 1.2 2.6 2.6 0 1.4-1.2 2.6-2.6 2.6zm0 14.7c-1.5 0-2.6-1.2-2.6-2.6s1.2-2.6 2.6-2.6c1.5 0 2.6 1.2 2.6 2.6s-1.2 2.6-2.6 2.6zm0 14.8c-1.5 0-2.6-1.2-2.6-2.6 0-1.5 1.2-2.6 2.6-2.6 1.5 0 2.6 1.2 2.6 2.6 0 1.4-1.2 2.6-2.6 2.6zM90.6 216h330.8v157H90.6z"/><path class="st3" d="M174.9 372.9h162.2v32.7H174.9zm14.2 43.2c-1.5 0-2.6-1.2-2.6-2.6 0-1.5 1.2-2.6 2.6-2.6.2 0 .4 0 .5.1v-5.3h-14.7v5.3c.2 0 .3-.1.5-.1 1.5 0 2.6 1.2 2.6 2.6 0 1.5-1.2 2.6-2.6 2.6-.2 0-.4 0-.5-.1v3.2l3.2-2.1 4.2 4.2 4.2-4.2 3.2 2.1V416c-.2.1-.4.1-.6.1zm-6.8-3.1c-1.5 0-2.6-1.2-2.6-2.6 0-1.5 1.2-2.6 2.6-2.6s2.6 1.2 2.6 2.6c0 1.4-1.2 2.6-2.6 2.6zm154.3 3.1c-1.5 0-2.6-1.2-2.6-2.6 0-1.5 1.2-2.6 2.6-2.6.2 0 .4 0 .5.1v-5.3h-14.7v5.3c.2 0 .3-.1.5-.1 1.5 0 2.6 1.2 2.6 2.6 0 1.5-1.2 2.6-2.6 2.6-.2 0-.4 0-.5-.1v3.2l3.2-2.1 4.2 4.2 4.2-4.2 3.2 2.1V416c-.3.1-.4.1-.6.1zm-6.9-3.1c-1.5 0-2.6-1.2-2.6-2.6 0-1.5 1.2-2.6 2.6-2.6 1.5 0 2.6 1.2 2.6 2.6.1 1.4-1.1 2.6-2.6 2.6zm-224.9-29.5c-1.5 0-2.6-1.2-2.6-2.6 0-1.5 1.2-2.6 2.6-2.6.2 0 .4 0 .5.1v-5.3H90.6v5.3c.2 0 .3-.1.5-.1 1.5 0 2.6 1.2 2.6 2.6 0 1.5-1.2 2.6-2.6 2.6-.2 0-.4 0-.5-.1v3.2l3.2-2.1 4.2 4.2 4.2-4.2 3.2 2.1v-3.2c-.2.1-.4.1-.6.1zm-6.8-3.2c-1.5 0-2.6-1.2-2.6-2.6 0-1.5 1.2-2.6 2.6-2.6 1.5 0 2.6 1.2 2.6 2.6 0 1.4-1.2 2.6-2.6 2.6zm322.9 3.2c-1.5 0-2.6-1.2-2.6-2.6 0-1.5 1.2-2.6 2.6-2.6.2 0 .4 0 .5.1v-5.3h-14.7v5.3c.2 0 .3-.1.5-.1 1.5 0 2.6 1.2 2.6 2.6 0 1.5-1.2 2.6-2.6 2.6-.2 0-.4 0-.5-.1v3.2l3.2-2.1 4.2 4.2 4.2-4.2 3.2 2.1v-3.2c-.3.1-.4.1-.6.1zm-6.9-3.2c-1.5 0-2.6-1.2-2.6-2.6 0-1.5 1.2-2.6 2.6-2.6 1.5 0 2.6 1.2 2.6 2.6.1 1.4-1.1 2.6-2.6 2.6zM174.9 188.6h162.2V216H174.9z"/><path d="M172.8 348.7h-63.2V238.1h63.2v110.6zm76.5-110.6h-63.2v110.6h63.2V238.1zm76.6 0h-63.2v110.6h63.2V238.1zm76.5 0h-63.2v110.6h63.2V238.1z" fill="#79b1d1"/><path d="m109.6 340.7 63.2-18.9v-43l-63.2 10.3zm139.7-74.2-63.2 10.2v41.1l63.2-18.9zm153.1-24.8-63.2 10.2v20.2l63.2-18.9zm-76.5 12.4-63.2 10.2V295l63.2-18.9z" fill="#fff" opacity=".2"/><path class="st3" d="m250.218 8.6 238.838 200.424-13.884 16.546L236.333 25.145z"/><circle class="st3" cx="462.4" cy="214.9" r="8.4"/><circle class="st7" cx="462.4" cy="214.9" r="2.6"/><circle class="st3" cx="449.5" cy="204" r="8.4"/><circle class="st7" cx="449.5" cy="204" r="2.6"/><circle class="st3" cx="436.6" cy="193.2" r="8.4"/><circle class="st7" cx="436.6" cy="193.2" r="2.6"/><circle class="st3" cx="423.7" cy="182.3" r="8.4"/><circle class="st7" cx="423.7" cy="182.3" r="2.6"/><circle class="st3" cx="410.8" cy="171.5" r="8.4"/><circle class="st7" cx="410.8" cy="171.5" r="2.6"/><circle class="st3" cx="397.9" cy="160.7" r="8.4"/><circle class="st7" cx="397.9" cy="160.7" r="2.6"/><circle class="st3" cx="384.9" cy="149.8" r="8.4"/><circle class="st7" cx="384.9" cy="149.8" r="2.6"/><circle class="st3" cx="372" cy="139" r="8.4"/><circle class="st7" cx="372" cy="139" r="2.6"/><circle class="st3" cx="359.1" cy="128.2" r="8.4"/><circle class="st7" cx="359.1" cy="128.2" r="2.6"/><circle class="st3" cx="346.2" cy="117.3" r="8.4"/><circle class="st7" cx="346.2" cy="117.3" r="2.6"/><circle class="st3" cx="333.3" cy="106.5" r="8.4"/><circle class="st7" cx="333.3" cy="106.5" r="2.6"/><circle class="st3" cx="320.4" cy="95.7" r="8.4"/><circle class="st7" cx="320.4" cy="95.7" r="2.6"/><circle class="st3" cx="307.5" cy="84.8" r="8.4"/><circle class="st7" cx="307.5" cy="84.8" r="2.6"/><circle class="st3" cx="294.6" cy="74" r="8.4"/><circle class="st7" cx="294.6" cy="74" r="2.6"/><circle class="st3" cx="281.6" cy="63.2" r="8.4"/><circle class="st7" cx="281.6" cy="63.2" r="2.6"/><circle class="st3" cx="268.7" cy="52.3" r="8.4"/><circle class="st7" cx="268.7" cy="52.3" r="2.6"/><circle class="st3" cx="256" cy="41.5" r="8.4"/><path class="st0" d="m254.4 13.7-3.3 4.4 233.8 196.2 8.8-10.5-239-200.6z"/><path class="st0" d="M480.2 213.3c.8.7.9 1.9.2 2.7-.7.8-1.9.9-2.7.2-.8-.7-.9-1.9-.2-2.7.7-.8 1.9-.9 2.7-.2m1.5-1.7c-1.8-1.5-4.4-1.3-5.9.5s-1.3 4.4.5 5.9 4.4 1.3 5.9-.5 1.3-4.5-.5-5.9zm-7.9-3.7c.8.7.9 1.9.2 2.7-.7.8-1.9.9-2.7.2-.8-.7-.9-1.9-.2-2.7.6-.8 1.8-.9 2.7-.2m1.4-1.8c-1.8-1.5-4.4-1.3-5.9.5s-1.3 4.4.5 5.9 4.4 1.3 5.9-.5c1.5-1.7 1.3-4.4-.5-5.9z"/><path class="st0" d="M467.3 202.5c.8.7.9 1.9.2 2.7-.7.8-1.9.9-2.7.2-.8-.7-.9-1.9-.2-2.7.7-.8 1.9-.9 2.7-.2m1.5-1.8c-1.8-1.5-4.4-1.3-5.9.5s-1.3 4.4.5 5.9 4.4 1.3 5.9-.5c1.5-1.7 1.3-4.4-.5-5.9zm-7.9-3.7c.8.7.9 1.9.2 2.7-.7.8-1.9.9-2.7.2-.8-.7-.9-1.9-.2-2.7.6-.7 1.8-.8 2.7-.2m1.4-1.7c-1.8-1.5-4.4-1.3-5.9.5s-1.3 4.4.5 5.9 4.4 1.3 5.9-.5c1.5-1.7 1.3-4.4-.5-5.9zm-7.9-3.7c.8.7.9 1.9.2 2.7-.7.8-1.9.9-2.7.2-.8-.7-.9-1.9-.2-2.7.7-.8 1.9-.9 2.7-.2m1.5-1.7c-1.8-1.5-4.4-1.3-5.9.5s-1.3 4.4.5 5.9 4.4 1.3 5.9-.5 1.2-4.4-.5-5.9zm-8-3.7c.8.7.9 1.9.2 2.7-.7.8-1.9.9-2.7.2s-.9-1.9-.2-2.7c.7-.8 1.9-.9 2.7-.2m1.5-1.7c-1.8-1.5-4.4-1.3-5.9.5s-1.3 4.4.5 5.9 4.4 1.3 5.9-.5 1.3-4.4-.5-5.9zm-7.9-3.7c.8.7.9 1.9.2 2.7-.7.8-1.9.9-2.7.2-.8-.7-.9-1.9-.2-2.7.6-.8 1.9-.9 2.7-.2m1.4-1.8c-1.8-1.5-4.4-1.3-5.9.5s-1.3 4.4.5 5.9 4.4 1.3 5.9-.5c1.6-1.7 1.3-4.4-.5-5.9z"/><path class="st0" d="M435 175.4c.8.7.9 1.9.2 2.7-.7.8-1.9.9-2.7.2-.8-.7-.9-1.9-.2-2.7.7-.8 1.9-.9 2.7-.2m1.5-1.8c-1.8-1.5-4.4-1.3-5.9.5s-1.3 4.4.5 5.9 4.4 1.3 5.9-.5c1.5-1.7 1.3-4.4-.5-5.9zm-7.9-3.6c.8.7.9 1.9.2 2.7-.7.8-1.9.9-2.7.2-.8-.7-.9-1.9-.2-2.7.6-.8 1.9-.9 2.7-.2m1.4-1.8c-1.8-1.5-4.4-1.3-5.9.5s-1.3 4.4.5 5.9 4.4 1.3 5.9-.5c1.6-1.7 1.3-4.4-.5-5.9z"/><path class="st0" d="M422.1 164.5c.8.7.9 1.9.2 2.7-.7.8-1.9.9-2.7.2s-.9-1.9-.2-2.7c.7-.7 1.9-.9 2.7-.2m1.5-1.7c-1.8-1.5-4.4-1.3-5.9.5s-1.3 4.4.5 5.9 4.4 1.3 5.9-.5c1.5-1.7 1.3-4.4-.5-5.9zm-7.9-3.7c.8.7.9 1.9.2 2.7-.7.8-1.9.9-2.7.2-.8-.7-.9-1.9-.2-2.7.6-.8 1.8-.9 2.7-.2m1.4-1.7c-1.8-1.5-4.4-1.3-5.9.5s-1.3 4.4.5 5.9 4.4 1.3 5.9-.5 1.3-4.4-.5-5.9zm-7.9-3.7c.8.7.9 1.9.2 2.7-.7.8-1.9.9-2.7.2-.8-.7-.9-1.9-.2-2.7.7-.8 1.9-.9 2.7-.2m1.5-1.7c-1.8-1.5-4.4-1.3-5.9.5s-1.3 4.4.5 5.9 4.4 1.3 5.9-.5 1.2-4.4-.5-5.9zm-8-3.7c.8.7.9 1.9.2 2.7-.7.8-1.9.9-2.7.2-.8-.7-.9-1.9-.2-2.7.7-.8 1.9-.9 2.7-.2m1.5-1.8c-1.8-1.5-4.4-1.3-5.9.5s-1.3 4.4.5 5.9 4.4 1.3 5.9-.5c1.5-1.7 1.3-4.4-.5-5.9z"/><path class="st0" d="M396.3 142.9c.8.7.9 1.9.2 2.7-.7.8-1.9.9-2.7.2-.8-.7-.9-1.9-.2-2.7.6-.8 1.9-.9 2.7-.2m1.5-1.8c-1.8-1.5-4.4-1.3-5.9.5s-1.3 4.4.5 5.9 4.4 1.3 5.9-.5c1.5-1.7 1.2-4.4-.5-5.9zm-8-3.6c.8.7.9 1.9.2 2.7-.7.8-1.9.9-2.7.2-.8-.7-.9-1.9-.2-2.7.7-.8 1.9-.9 2.7-.2m1.5-1.8c-1.8-1.5-4.4-1.3-5.9.5s-1.3 4.4.5 5.9 4.4 1.3 5.9-.5c1.5-1.7 1.3-4.4-.5-5.9zm-7.9-3.7c.8.7.9 1.9.2 2.7-.7.8-1.9.9-2.7.2-.8-.7-.9-1.9-.2-2.7.6-.7 1.9-.9 2.7-.2m1.4-1.7c-1.8-1.5-4.4-1.3-5.9.5s-1.3 4.4.5 5.9 4.4 1.3 5.9-.5c1.6-1.8 1.3-4.4-.5-5.9zm-7.9-3.7c.8.7.9 1.9.2 2.7-.7.8-1.9.9-2.7.2-.8-.7-.9-1.9-.2-2.7.7-.8 1.9-.9 2.7-.2m1.5-1.7c-1.8-1.5-4.4-1.3-5.9.5s-1.3 4.4.5 5.9 4.4 1.3 5.9-.5 1.3-4.4-.5-5.9zm-7.9-3.7c.8.7.9 1.9.2 2.7-.7.8-1.9.9-2.7.2-.8-.7-.9-1.9-.2-2.7.6-.8 1.8-.9 2.7-.2m1.4-1.7c-1.8-1.5-4.4-1.3-5.9.5s-1.3 4.4.5 5.9 4.4 1.3 5.9-.5 1.3-4.4-.5-5.9zm-7.9-3.7c.8.7.9 1.9.2 2.7-.7.8-1.9.9-2.7.2-.8-.7-.9-1.9-.2-2.7.7-.8 1.9-.9 2.7-.2m1.5-1.8c-1.8-1.5-4.4-1.3-5.9.5s-1.3 4.4.5 5.9 4.4 1.3 5.9-.5c1.5-1.7 1.3-4.4-.5-5.9zm-7.9-3.6c.8.7.9 1.9.2 2.7-.7.8-1.9.9-2.7.2-.8-.7-.9-1.9-.2-2.7.6-.8 1.8-.9 2.7-.2m1.4-1.8c-1.8-1.5-4.4-1.3-5.9.5s-1.3 4.4.5 5.9 4.4 1.3 5.9-.5c1.5-1.7 1.3-4.4-.5-5.9z"/><path class="st0" d="M351.1 104.9c.8.7.9 1.9.2 2.7-.7.8-1.9.9-2.7.2-.8-.7-.9-1.9-.2-2.7.7-.7 1.9-.8 2.7-.2m1.5-1.7c-1.8-1.5-4.4-1.3-5.9.5s-1.3 4.4.5 5.9 4.4 1.3 5.9-.5c1.5-1.7 1.2-4.4-.5-5.9zm-8-3.7c.8.7.9 1.9.2 2.7-.7.8-1.9.9-2.7.2-.8-.7-.9-1.9-.2-2.7.7-.8 1.9-.9 2.7-.2m1.5-1.7c-1.8-1.5-4.4-1.3-5.9.5s-1.3 4.4.5 5.9 4.4 1.3 5.9-.5 1.3-4.4-.5-5.9zm-7.9-3.7c.8.7.9 1.9.2 2.7-.7.8-1.9.9-2.7.2-.8-.7-.9-1.9-.2-2.7.6-.8 1.9-.9 2.7-.2m1.4-1.7c-1.8-1.5-4.4-1.3-5.9.5s-1.3 4.4.5 5.9 4.4 1.3 5.9-.5c1.6-1.8 1.3-4.4-.5-5.9zm-7.9-3.7c.8.7.9 1.9.2 2.7-.7.8-1.9.9-2.7.2-.8-.7-.9-1.9-.2-2.7.7-.8 1.9-.9 2.7-.2m1.5-1.7c-1.8-1.5-4.4-1.3-5.9.5s-1.3 4.4.5 5.9 4.4 1.3 5.9-.5 1.3-4.5-.5-5.9zm-7.9-3.7c.8.7.9 1.9.2 2.7-.7.8-1.9.9-2.7.2-.8-.7-.9-1.9-.2-2.7.6-.8 1.9-.9 2.7-.2m1.4-1.8c-1.8-1.5-4.4-1.3-5.9.5s-1.3 4.4.5 5.9 4.4 1.3 5.9-.5c1.6-1.7 1.3-4.4-.5-5.9z"/><path class="st0" d="M318.8 77.9c.8.7.9 1.9.2 2.7-.7.8-1.9.9-2.7.2-.8-.7-.9-1.9-.2-2.7.7-.8 1.9-.9 2.7-.2m1.5-1.8c-1.8-1.5-4.4-1.3-5.9.5s-1.3 4.4.5 5.9 4.4 1.3 5.9-.5c1.5-1.7 1.3-4.4-.5-5.9zm-7.9-3.7c.8.7.9 1.9.2 2.7-.7.8-1.9.9-2.7.2-.8-.7-.9-1.9-.2-2.7.6-.7 1.8-.8 2.7-.2m1.4-1.7c-1.8-1.5-4.4-1.3-5.9.5s-1.3 4.4.5 5.9 4.4 1.3 5.9-.5c1.5-1.7 1.3-4.4-.5-5.9zm-7.9-3.7c.8.7.9 1.9.2 2.7-.7.8-1.9.9-2.7.2-.8-.7-.9-1.9-.2-2.7.7-.8 1.9-.9 2.7-.2m1.5-1.7c-1.8-1.5-4.4-1.3-5.9.5s-1.3 4.4.5 5.9 4.4 1.3 5.9-.5 1.3-4.4-.5-5.9zm-7.9-3.7c.8.7.9 1.9.2 2.7-.7.8-1.9.9-2.7.2-.8-.7-.9-1.9-.2-2.7.6-.8 1.8-.9 2.7-.2m1.4-1.7c-1.8-1.5-4.4-1.3-5.9.5s-1.3 4.4.5 5.9 4.4 1.3 5.9-.5 1.3-4.4-.5-5.9zm-7.9-3.7c.8.7.9 1.9.2 2.7-.7.8-1.9.9-2.7.2-.8-.7-.9-1.9-.2-2.7.6-.8 1.9-.9 2.7-.2m1.5-1.8c-1.8-1.5-4.4-1.3-5.9.5s-1.3 4.4.5 5.9 4.4 1.3 5.9-.5c1.5-1.7 1.2-4.4-.5-5.9zm-8-3.6c.8.7.9 1.9.2 2.7-.7.8-1.9.9-2.7.2-.8-.7-.9-1.9-.2-2.7.7-.8 1.9-.9 2.7-.2M288 49c-1.8-1.5-4.4-1.3-5.9.5s-1.3 4.4.5 5.9 4.4 1.3 5.9-.5c1.5-1.7 1.3-4.4-.5-5.9zm-7.9-3.6c.8.7.9 1.9.2 2.7-.7.8-1.9.9-2.7.2s-.9-1.9-.2-2.7c.6-.8 1.9-.9 2.7-.2m1.4-1.8c-1.8-1.5-4.4-1.3-5.9.5s-1.3 4.4.5 5.9 4.4 1.3 5.9-.5c1.6-1.7 1.3-4.4-.5-5.9z"/><path class="st0" d="M273.6 39.9c.8.7.9 1.9.2 2.7-.7.8-1.9.9-2.7.2s-.9-1.9-.2-2.7c.7-.7 1.9-.9 2.7-.2m1.5-1.7c-1.8-1.5-4.4-1.3-5.9.5s-1.3 4.4.5 5.9 4.4 1.3 5.9-.5c1.5-1.7 1.3-4.4-.5-5.9zm-7.9-3.7c.8.7.9 1.9.2 2.7-.7.8-1.9.9-2.7.2s-.9-1.9-.2-2.7c.6-.8 1.8-.9 2.7-.2m1.4-1.7c-1.8-1.5-4.4-1.3-5.9.5s-1.3 4.4.5 5.9 4.4 1.3 5.9-.5 1.3-4.4-.5-5.9zm-7.9-3.7c.8.7.9 1.9.2 2.7-.7.8-1.9.9-2.7.2-.8-.7-.9-1.9-.2-2.7.7-.8 1.9-.9 2.7-.2m1.5-1.7c-1.8-1.5-4.4-1.3-5.9.5s-1.3 4.4.5 5.9 4.4 1.3 5.9-.5 1.3-4.4-.5-5.9z"/><path class="st3" d="M258.482 39.585 36.802 225.612l-13.885-16.546L244.597 23.04z"/><circle class="st3" cx="49.6" cy="214.9" r="8.4"/><circle class="st7" cx="49.6" cy="214.9" r="2.6"/><circle class="st3" cx="62.5" cy="204" r="8.4"/><circle class="st7" cx="62.5" cy="204" r="2.6"/><circle class="st3" cx="75.4" cy="193.2" r="8.4"/><circle class="st7" cx="75.4" cy="193.2" r="2.6"/><circle class="st3" cx="88.3" cy="182.3" r="8.4"/><circle class="st7" cx="88.3" cy="182.3" r="2.6"/><circle class="st3" cx="101.2" cy="171.5" r="8.4"/><circle class="st7" cx="101.2" cy="171.5" r="2.6"/><circle class="st3" cx="114.1" cy="160.7" r="8.4"/><circle class="st7" cx="114.1" cy="160.7" r="2.6"/><circle class="st3" cx="127.1" cy="149.8" r="8.4"/><circle class="st7" cx="127.1" cy="149.8" r="2.6"/><circle class="st3" cx="140" cy="139" r="8.4"/><circle class="st7" cx="140" cy="139" r="2.6"/><circle class="st3" cx="152.9" cy="128.2" r="8.4"/><circle class="st7" cx="152.9" cy="128.2" r="2.6"/><circle class="st3" cx="165.8" cy="117.3" r="8.4"/><circle class="st7" cx="165.8" cy="117.3" r="2.6"/><circle class="st3" cx="178.7" cy="106.5" r="8.4"/><circle class="st7" cx="178.7" cy="106.5" r="2.6"/><circle class="st3" cx="191.6" cy="95.7" r="8.4"/><circle class="st7" cx="191.6" cy="95.7" r="2.6"/><circle class="st3" cx="204.5" cy="84.8" r="8.4"/><circle class="st7" cx="204.5" cy="84.8" r="2.6"/><circle class="st3" cx="217.4" cy="74" r="8.4"/><circle class="st7" cx="217.4" cy="74" r="2.6"/><circle class="st3" cx="230.4" cy="63.2" r="8.4"/><circle class="st7" cx="230.4" cy="63.2" r="2.6"/><circle class="st3" cx="243.3" cy="52.3" r="8.4"/><circle class="st7" cx="243.3" cy="52.3" r="2.6"/><path class="st0" d="m257.6 13.7 1.9 5.6-232.4 195-8.8-10.5 239-200.6z"/><path class="st0" d="M31.8 213.3c.8-.7 2-.6 2.7.2.7.8.6 2-.2 2.7-.8.7-2 .6-2.7-.2-.8-.8-.6-2 .2-2.7m-1.5-1.7c-1.8 1.5-2 4.2-.5 5.9 1.5 1.8 4.2 2 5.9.5 1.8-1.5 2-4.2.5-5.9-1.4-1.8-4.1-2-5.9-.5zm7.9-3.7c.8-.7 2-.6 2.7.2.7.8.6 2-.2 2.7-.8.7-2 .6-2.7-.2-.7-.8-.6-2 .2-2.7m-1.4-1.8c-1.8 1.5-2 4.2-.5 5.9 1.5 1.8 4.2 2 5.9.5 1.8-1.5 2-4.2.5-5.9-1.5-1.7-4.1-2-5.9-.5z"/><path class="st0" d="M44.7 202.5c.8-.7 2-.6 2.7.2.7.8.6 2-.2 2.7-.8.7-2 .6-2.7-.2-.7-.8-.6-2.1.2-2.7m-1.5-1.8c-1.8 1.5-2 4.2-.5 5.9 1.5 1.8 4.2 2 5.9.5 1.8-1.5 2-4.2.5-5.9-1.4-1.7-4.1-2-5.9-.5zm7.9-3.7c.8-.7 2-.6 2.7.2.7.8.6 2-.2 2.7-.8.7-2 .6-2.7-.2-.7-.7-.6-2 .2-2.7m-1.4-1.7c-1.8 1.5-2 4.2-.5 5.9 1.5 1.8 4.2 2 5.9.5 1.8-1.5 2-4.2.5-5.9-1.5-1.8-4.1-2-5.9-.5z"/><path class="st0" d="M57.6 191.6c.8-.7 2-.6 2.7.2.7.8.6 2-.2 2.7-.8.7-2 .6-2.7-.2-.7-.8-.6-2 .2-2.7m-1.5-1.7c-1.8 1.5-2 4.2-.5 5.9 1.5 1.8 4.2 2 5.9.5 1.8-1.5 2-4.2.5-5.9-1.4-1.8-4.1-2-5.9-.5zm8-3.7c.8-.7 2-.6 2.7.2.7.8.6 2-.2 2.7-.8.7-2 .6-2.7-.2-.8-.8-.7-2 .2-2.7m-1.5-1.7c-1.8 1.5-2 4.2-.5 5.9 1.5 1.8 4.2 2 5.9.5 1.8-1.5 2-4.2.5-5.9-1.5-1.8-4.1-2-5.9-.5zm7.9-3.7c.8-.7 2-.6 2.7.2.7.8.6 2-.2 2.7-.8.7-2 .6-2.7-.2-.7-.8-.6-2 .2-2.7m-1.4-1.8c-1.8 1.5-2 4.2-.5 5.9 1.5 1.8 4.2 2 5.9.5 1.8-1.5 2-4.2.5-5.9-1.5-1.7-4.2-1.9-5.9-.5z"/><path class="st0" d="M77 175.4c.8-.7 2-.6 2.7.2.7.8.6 2-.2 2.7-.8.7-2 .6-2.7-.2-.8-.8-.7-2 .2-2.7m-1.5-1.8c-1.8 1.5-2 4.2-.5 5.9 1.5 1.8 4.2 2 5.9.5 1.8-1.5 2-4.2.5-5.9-1.5-1.7-4.1-2-5.9-.5zm7.9-3.6c.8-.7 2-.6 2.7.2.7.8.6 2-.2 2.7-.8.7-2 .6-2.7-.2-.7-.8-.6-2.1.2-2.7m-1.4-1.8c-1.8 1.5-2 4.2-.5 5.9 1.5 1.8 4.2 2 5.9.5 1.8-1.5 2-4.2.5-5.9-1.5-1.7-4.2-2-5.9-.5z"/><path class="st0" d="M89.9 164.5c.8-.7 2-.6 2.7.2.7.8.6 2-.2 2.7-.8.7-2 .6-2.7-.2-.7-.7-.6-2 .2-2.7m-1.5-1.7c-1.8 1.5-2 4.2-.5 5.9 1.5 1.8 4.2 2 5.9.5 1.8-1.5 2-4.2.5-5.9-1.4-1.8-4.1-2-5.9-.5zm7.9-3.7c.8-.7 2-.6 2.7.2.7.8.6 2-.2 2.7-.8.7-2 .6-2.7-.2-.7-.8-.6-2 .2-2.7m-1.4-1.7c-1.8 1.5-2 4.2-.5 5.9 1.5 1.8 4.2 2 5.9.5 1.8-1.5 2-4.2.5-5.9-1.5-1.8-4.1-2-5.9-.5z"/><path class="st0" d="M102.8 153.7c.8-.7 2-.6 2.7.2.7.8.6 2-.2 2.7-.8.7-2 .6-2.7-.2-.7-.8-.6-2 .2-2.7m-1.5-1.7c-1.8 1.5-2 4.2-.5 5.9 1.5 1.8 4.2 2 5.9.5 1.8-1.5 2-4.2.5-5.9-1.4-1.8-4.1-2-5.9-.5zm8-3.7c.8-.7 2-.6 2.7.2.7.8.6 2-.2 2.7-.8.7-2 .6-2.7-.2-.8-.8-.7-2 .2-2.7m-1.5-1.8c-1.8 1.5-2 4.2-.5 5.9 1.5 1.8 4.2 2 5.9.5 1.8-1.5 2-4.2.5-5.9-1.5-1.7-4.1-2-5.9-.5z"/><path class="st0" d="M115.7 142.9c.8-.7 2-.6 2.7.2.7.8.6 2-.2 2.7-.8.7-2 .6-2.7-.2-.7-.8-.6-2 .2-2.7m-1.5-1.8c-1.8 1.5-2 4.2-.5 5.9 1.5 1.8 4.2 2 5.9.5 1.8-1.5 2-4.2.5-5.9-1.4-1.7-4.1-2-5.9-.5zm8-3.6c.8-.7 2-.6 2.7.2.7.8.6 2-.2 2.7s-2 .6-2.7-.2c-.8-.8-.7-2.1.2-2.7m-1.5-1.8c-1.8 1.5-2 4.2-.5 5.9 1.5 1.8 4.2 2 5.9.5 1.8-1.5 2-4.2.5-5.9-1.5-1.8-4.1-2-5.9-.5zm7.9-3.7c.8-.7 2-.6 2.7.2.7.8.6 2-.2 2.7-.8.7-2 .6-2.7-.2-.7-.8-.6-2 .2-2.7m-1.4-1.7c-1.8 1.5-2 4.2-.5 5.9 1.5 1.8 4.2 2 5.9.5 1.8-1.5 2-4.2.5-5.9-1.5-1.8-4.2-2-5.9-.5z"/><path class="st0" d="M135.1 126.6c.8-.7 2-.6 2.7.2.7.8.6 2-.2 2.7-.8.7-2 .6-2.7-.2-.8-.8-.6-2 .2-2.7m-1.5-1.7c-1.8 1.5-2 4.2-.5 5.9 1.5 1.8 4.2 2 5.9.5 1.8-1.5 2-4.2.5-5.9-1.4-1.8-4.1-2-5.9-.5zm7.9-3.7c.8-.7 2-.6 2.7.2.7.8.6 2-.2 2.7-.8.7-2 .6-2.7-.2-.7-.8-.6-2 .2-2.7m-1.4-1.7c-1.8 1.5-2 4.2-.5 5.9 1.5 1.8 4.2 2 5.9.5s2-4.2.5-5.9c-1.5-1.8-4.1-2-5.9-.5zm7.9-3.7c.8-.7 2-.6 2.7.2.7.8.6 2-.2 2.7-.8.7-2 .6-2.7-.2-.7-.8-.6-2 .2-2.7m-1.5-1.8c-1.8 1.5-2 4.2-.5 5.9 1.5 1.8 4.2 2 5.9.5 1.8-1.5 2-4.2.5-5.9-1.4-1.7-4.1-2-5.9-.5zm7.9-3.6c.8-.7 2-.6 2.7.2.7.8.6 2-.2 2.7-.8.7-2 .6-2.7-.2-.7-.8-.6-2 .2-2.7m-1.4-1.8c-1.8 1.5-2 4.2-.5 5.9 1.5 1.8 4.2 2 5.9.5s2-4.2.5-5.9c-1.5-1.7-4.1-2-5.9-.5z"/><path class="st0" d="M160.9 104.9c.8-.7 2-.6 2.7.2.7.8.6 2-.2 2.7-.8.7-2 .6-2.7-.2-.7-.7-.6-2 .2-2.7m-1.5-1.7c-1.8 1.5-2 4.2-.5 5.9 1.5 1.8 4.2 2 5.9.5 1.8-1.5 2-4.2.5-5.9-1.4-1.8-4.1-2-5.9-.5zm8-3.7c.8-.7 2-.6 2.7.2.7.8.6 2-.2 2.7-.8.7-2 .6-2.7-.2-.8-.8-.7-2 .2-2.7m-1.5-1.7c-1.8 1.5-2 4.2-.5 5.9 1.5 1.8 4.2 2 5.9.5 1.8-1.5 2-4.2.5-5.9-1.5-1.8-4.1-2-5.9-.5zm7.9-3.7c.8-.7 2-.6 2.7.2.7.8.6 2-.2 2.7-.8.7-2 .6-2.7-.2-.7-.8-.6-2 .2-2.7m-1.4-1.7c-1.8 1.5-2 4.2-.5 5.9 1.5 1.8 4.2 2 5.9.5 1.8-1.5 2-4.2.5-5.9-1.5-1.8-4.2-2-5.9-.5z"/><path class="st0" d="M180.3 88.7c.8-.7 2-.6 2.7.2.7.8.6 2-.2 2.7-.8.7-2 .6-2.7-.2-.8-.8-.7-2 .2-2.7m-1.5-1.7c-1.8 1.5-2 4.2-.5 5.9 1.5 1.8 4.2 2 5.9.5 1.8-1.5 2-4.2.5-5.9-1.5-1.8-4.1-2-5.9-.5zm7.9-3.7c.8-.7 2-.6 2.7.2.7.8.6 2-.2 2.7-.8.7-2 .6-2.7-.2-.7-.8-.6-2 .2-2.7m-1.4-1.8c-1.8 1.5-2 4.2-.5 5.9 1.5 1.8 4.2 2 5.9.5 1.8-1.5 2-4.2.5-5.9-1.5-1.7-4.2-2-5.9-.5z"/><path class="st0" d="M193.2 77.9c.8-.7 2-.6 2.7.2.7.8.6 2-.2 2.7-.8.7-2 .6-2.7-.2-.7-.8-.6-2.1.2-2.7m-1.5-1.8c-1.8 1.5-2 4.2-.5 5.9 1.5 1.8 4.2 2 5.9.5s2-4.2.5-5.9c-1.4-1.7-4.1-2-5.9-.5zm7.9-3.7c.8-.7 2-.6 2.7.2.7.8.6 2-.2 2.7-.8.7-2 .6-2.7-.2-.7-.7-.6-2 .2-2.7m-1.4-1.7c-1.8 1.5-2 4.2-.5 5.9 1.5 1.8 4.2 2 5.9.5 1.8-1.5 2-4.2.5-5.9-1.5-1.8-4.1-2-5.9-.5z"/><path class="st0" d="M206.1 67c.8-.7 2-.6 2.7.2.7.8.6 2-.2 2.7-.8.7-2 .6-2.7-.2-.7-.8-.6-2 .2-2.7m-1.5-1.7c-1.8 1.5-2 4.2-.5 5.9 1.5 1.8 4.2 2 5.9.5s2-4.2.5-5.9c-1.4-1.8-4.1-2-5.9-.5zm7.9-3.7c.8-.7 2-.6 2.7.2.7.8.6 2-.2 2.7-.8.7-2 .6-2.7-.2-.7-.8-.6-2 .2-2.7m-1.4-1.7c-1.8 1.5-2 4.2-.5 5.9 1.5 1.8 4.2 2 5.9.5 1.8-1.5 2-4.2.5-5.9-1.5-1.8-4.1-2-5.9-.5zm7.9-3.7c.8-.7 2-.6 2.7.2.7.8.6 2-.2 2.7-.8.7-2 .6-2.7-.2-.7-.8-.6-2 .2-2.7m-1.5-1.8c-1.8 1.5-2 4.2-.5 5.9 1.5 1.8 4.2 2 5.9.5s2-4.2.5-5.9c-1.4-1.7-4.1-1.9-5.9-.5zm8-3.6c.8-.7 2-.6 2.7.2.7.8.6 2-.2 2.7-.8.7-2 .6-2.7-.2-.8-.8-.7-2 .2-2.7M224 49c-1.8 1.5-2 4.2-.5 5.9 1.5 1.8 4.2 2 5.9.5s2-4.2.5-5.9c-1.5-1.7-4.1-2-5.9-.5zm7.9-3.6c.8-.7 2-.6 2.7.2.7.8.6 2-.2 2.7-.8.7-2 .6-2.7-.2-.7-.8-.6-2.1.2-2.7m-1.4-1.8c-1.8 1.5-2 4.2-.5 5.9 1.5 1.8 4.2 2 5.9.5s2-4.2.5-5.9c-1.5-1.7-4.2-2-5.9-.5z"/><path class="st0" d="M238.4 39.9c.8-.7 2-.6 2.7.2.7.8.6 2-.2 2.7s-2 .6-2.7-.2c-.8-.7-.6-2 .2-2.7m-1.5-1.7c-1.8 1.5-2 4.2-.5 5.9 1.5 1.8 4.2 2 5.9.5s2-4.2.5-5.9c-1.4-1.8-4.1-2-5.9-.5zm7.9-3.7c.8-.7 2-.6 2.7.2.7.8.6 2-.2 2.7s-2 .6-2.7-.2c-.7-.8-.6-2 .2-2.7m-1.4-1.7c-1.8 1.5-2 4.2-.5 5.9 1.5 1.8 4.2 2 5.9.5s2-4.2.5-5.9c-1.5-1.8-4.1-2-5.9-.5z"/><path class="st0" d="M251.3 29.1c.8-.7 2-.6 2.7.2.7.8.6 2-.2 2.7-.8.7-2 .6-2.7-.2-.7-.8-.6-2 .2-2.7m-1.5-1.7c-1.8 1.5-2 4.2-.5 5.9 1.5 1.8 4.2 2 5.9.5 1.8-1.5 2-4.2.5-5.9-1.4-1.8-4.1-2-5.9-.5z"/><circle class="st7" cx="256" cy="41.5" r="2.6"/><circle class="st0" cx="256" cy="5.8" r="5.8"/><path class="st3" d="M256 147.5c1.7 0 3.2 1.4 3.2 3.2s-1.4 3.2-3.2 3.2-3.2-1.4-3.2-3.2 1.5-3.2 3.2-3.2m0-2.1c-2.9 0-5.3 2.4-5.3 5.3s2.4 5.3 5.3 5.3 5.3-2.4 5.3-5.3-2.4-5.3-5.3-5.3z"/><path class="st3" d="m260 151-1.9 3.8h-4.2L252 151c-9.4 1.9-16.5 10.2-16.5 20.1 0 11.3 9.2 20.5 20.5 20.5s20.5-9.2 20.5-20.5c0-9.9-7.1-18.2-16.5-20.1zm-18.7 22.3c-1.2 0-2.1-.9-2.1-2.1 0-1.2.9-2.1 2.1-2.1 1.2 0 2.1.9 2.1 2.1 0 1.2-1 2.1-2.1 2.1zm5.8 9.8c-.8.8-2.2.8-3 0-.8-.8-.8-2.2 0-3 .8-.8 2.2-.8 3 0 .8.9.8 2.2 0 3zm0-20.8c-.8.8-2.2.8-3 0-.8-.8-.8-2.2 0-3 .8-.8 2.2-.8 3 0 .8.8.8 2.1 0 3zM256 188c-1.2 0-2.1-.9-2.1-2.1 0-1.2.9-2.1 2.1-2.1 1.2 0 2.1.9 2.1 2.1 0 1.2-.9 2.1-2.1 2.1zm0-11.9c-2.6 0-4.7-2.1-4.7-4.7s2.1-4.7 4.7-4.7 4.7 2.1 4.7 4.7-2.1 4.7-4.7 4.7zm11.9 7c-.8.8-2.2.8-3 0-.8-.8-.8-2.2 0-3 .8-.8 2.2-.8 3 0 .8.9.8 2.2 0 3zm0-20.8c-.8.8-2.2.8-3 0-.8-.8-.8-2.2 0-3 .8-.8 2.2-.8 3 0 .8.8.8 2.1 0 3zm2.8 11c-1.2 0-2.1-.9-2.1-2.1 0-1.2.9-2.1 2.1-2.1 1.2 0 2.1.9 2.1 2.1.1 1.2-.9 2.1-2.1 2.1z"/><path class="st3" d="M242.3 185.4v-3.2h-2.1v-6.3h-2.1v-14.8c.2.1.3.1.5.1.9 0 1.6-.7 1.6-1.6 0-.9-.7-1.6-1.6-1.6-.5 0-.9.2-1.2.6-2.8-2.3-6.4-3.8-10.4-3.8-7 0-12.9 4.4-15.2 10.5-1.6-3.1-4.8-5.2-8.5-5.2-3.9 0-7.2 2.3-8.7 5.7-2.5-2.8-6.2-4.7-10.3-4.7-7.6 0-13.7 6.1-13.7 13.7s6.1 13.7 13.7 13.7v3.2h63.3v-6.3h-5.3zm-14.2-26.3c2.6 0 4.7 2.1 4.7 4.7s-2.1 4.7-4.7 4.7-4.7-2.1-4.7-4.7c-.1-2.6 2.1-4.7 4.7-4.7zm4.7 21-6.3-3.2 5.3-5.3 1 8.5zm-34.6-16.2c.2-.6.8-.9 1.3-.7.6.2.9.8.7 1.3-.3.8-.2 1.7.2 2.4s1 1.3 1.8 1.6c1.1.3 2.2.2 3.2-.3s1.7-1.4 2.1-2.5c.2-.6.8-.9 1.3-.7.6.2.9.8.7 1.3-.9 2.7-3.3 4.4-6 4.4-.6 0-1.3-.1-1.9-.3-1.3-.4-2.4-1.3-3.1-2.6-.6-1.1-.7-2.5-.3-3.9zm6.2 8.9-5.3 5.3-1.1-5.3h6.4zm-11.9 5.9c-1.6 1.9-3.8 3.1-6.3 3.3h-.9c-2.2 0-4.2-.7-5.9-2.2-1.6-1.3-2.5-3.1-2.7-5.2-.2-2 .4-4 1.7-5.6 1.1-1.3 2.6-2.1 4.3-2.2 1.7-.2 3.3.4 4.6 1.4 1.1.9 1.7 2.2 1.9 3.6.1 1.4-.3 2.8-1.2 3.8-.8.9-1.8 1.5-3 1.6-1.2.1-2.3-.3-3.2-1-.4-.4-.5-1-.1-1.5.4-.4 1-.5 1.5-.1s1.1.6 1.7.5c.6-.1 1.2-.3 1.6-.8.5-.6.8-1.5.7-2.3-.1-.8-.5-1.6-1.1-2.1-.9-.7-2-1.1-3.1-1-1.1.1-2.1.6-2.9 1.5-.9 1.1-1.4 2.6-1.3 4 .1 1.5.8 2.8 2 3.7 1.5 1.2 3.3 1.8 5.2 1.6 1.9-.2 3.6-1.1 4.9-2.6.4-.4 1-.5 1.5-.1.5.6.5 1.3.1 1.7zm.3 8.8 7.4-4.2 2.1 4.2h-9.5zm13.2-2.4-4.5-4.5 4.5-4.5 4.5 4.5-4.5 4.5zm10.9-3.5c-1.5 0-3-.5-4.2-1.4-1.5-1.1-2.5-2.8-2.7-4.6-.3-2.2.3-4.5 1.6-6.3 1.4-1.8 3.4-3 5.6-3.3.6-.1 1.1.3 1.2.9.1.6-.3 1.1-.9 1.2-1.7.2-3.2 1.1-4.2 2.5s-1.5 3.1-1.2 4.7c.2 1.3.9 2.4 1.9 3.2 1 .8 2.3 1.1 3.6.9 1-.1 1.9-.7 2.4-1.4.6-.8.8-1.8.7-2.8-.2-1.5-1.6-2.6-3.1-2.3-.5.1-1 .4-1.3.8-.3.4-.5 1-.4 1.5.1.6-.3 1.1-.9 1.2-.6.1-1.1-.3-1.2-.9-.3-2.2 1.2-4.3 3.5-4.6 1.3-.2 2.6.1 3.6.9s1.7 1.9 1.9 3.2c.2 1.5-.2 3.1-1.1 4.3-.9 1.2-2.3 2.1-3.8 2.3h-1zm12.9 8.3c-1.1.9-2.5 1.3-3.8 1.3-1.9 0-3.8-.9-5.1-2.5-.8-1.1-1.2-2.5-1-3.9.2-1.4.9-2.6 2.1-3.5.9-.7 2.1-1 3.3-.8 1.2.2 2.2.8 2.9 1.7.6.8.9 1.8.7 2.8-.1 1-.7 1.9-1.5 2.5-.5.4-1.1.3-1.5-.2-.3-.5-.3-1.1.2-1.5.4-.3.6-.6.6-1.1.1-.4 0-.9-.3-1.2-.4-.5-.9-.8-1.5-.9-.6-.1-1.2.1-1.7.4-.7.5-1.1 1.2-1.2 2.1-.1.8.1 1.7.6 2.3 1.4 1.9 4 3.3 5.9 1.9.5-.3 1.1-.3 1.5.2.3.5.2.1-.2.4zm3-2.4 4.2-3.2 2.1 3.2h-6.3zm31.6-2.1v6.3h63.3v-3.2c7.6 0 13.7-6.1 13.7-13.7s-6.1-13.7-13.7-13.7c-4.1 0-7.8 1.8-10.3 4.7-1.5-3.4-4.8-5.7-8.7-5.7-3.7 0-6.9 2.1-8.5 5.2-2.3-6.1-8.3-10.5-15.2-10.5-3.9 0-7.5 1.4-10.4 3.8-.3-.4-.7-.6-1.2-.6-.9 0-1.6.7-1.6 1.6 0 .9.7 1.6 1.6 1.6.2 0 .4 0 .5-.1v14.8h-2.1v6.3h-2.1v3.2h-5.3zm24.3-21.6c0 2.6-2.1 4.7-4.7 4.7s-4.7-2.1-4.7-4.7 2.1-4.7 4.7-4.7 4.7 2.1 4.7 4.7zm-8.5 7.9 5.3 5.3-6.3 3.2 1-8.5zm33.3-3.8c-.6 1.2-1.7 2.2-3.1 2.6-.6.2-1.3.3-1.9.3-2.7 0-5.2-1.7-6-4.4-.2-.6.1-1.1.7-1.3.6-.2 1.1.1 1.3.7.3 1.1 1.1 1.9 2.1 2.5 1 .5 2.1.6 3.2.3.8-.3 1.5-.8 1.8-1.6.4-.7.5-1.6.2-2.4-.2-.6.1-1.1.7-1.3.6-.2 1.1.1 1.3.7.4 1.3.3 2.7-.3 3.9zm.4 4.9-1.1 5.3-5.3-5.3h6.4zm5.7 4.4c.4-.4 1.1-.3 1.5.1 1.2 1.5 3 2.4 4.9 2.6 1.9.2 3.8-.4 5.2-1.6 1.1-.9 1.8-2.3 2-3.7.1-1.5-.3-2.9-1.3-4-.7-.9-1.7-1.4-2.9-1.5-1.1-.1-2.2.2-3.1 1-.6.5-1 1.3-1.1 2.1-.1.8.2 1.7.7 2.3.4.5 1 .8 1.6.8.6.1 1.2-.1 1.7-.5.4-.4 1.1-.3 1.5.1.4.4.3 1.1-.1 1.5-.9.8-2.1 1.1-3.2 1-1.2-.1-2.2-.7-3-1.6-.9-1.1-1.3-2.4-1.2-3.8.1-1.4.8-2.7 1.9-3.6 1.3-1.1 2.9-1.6 4.6-1.4 1.7.2 3.2 1 4.3 2.2 1.3 1.6 1.9 3.5 1.7 5.6-.2 2-1.1 3.9-2.7 5.2-1.7 1.4-3.8 2.2-5.9 2.2h-.9c-2.5-.2-4.7-1.4-6.3-3.3-.4-.6-.4-1.3.1-1.7zm-9.9 10.3 2.1-4.2 7.4 4.2h-9.5zm-8.1-6.8 4.5-4.5 4.5 4.5-4.5 4.5-4.5-4.5zm-7.5.8c-1.5-.2-2.9-1-3.8-2.3-.9-1.2-1.3-2.8-1.1-4.3.2-1.3.9-2.4 1.9-3.2 1-.8 2.3-1.1 3.6-.9 2.2.3 3.8 2.4 3.5 4.6-.1.6-.6 1-1.2.9-.6-.1-1-.6-.9-1.2.1-.5-.1-1.1-.4-1.5-.3-.4-.8-.7-1.3-.8-1.5-.2-2.9.8-3.1 2.3-.1 1 .1 2 .7 2.8.6.8 1.5 1.3 2.4 1.4 1.3.2 2.6-.1 3.6-.9s1.7-1.9 1.9-3.2c.2-1.7-.2-3.4-1.2-4.7-1-1.4-2.5-2.3-4.2-2.5-.6-.1-1-.6-.9-1.2.1-.6.6-1 1.2-.9 2.2.3 4.2 1.5 5.6 3.3 1.4 1.8 1.9 4.1 1.6 6.3-.3 1.9-1.2 3.5-2.7 4.6-1.2.9-2.7 1.4-4.2 1.4-.3.1-.7.1-1 0zm-12.1 8c.3-.5 1-.6 1.5-.2 1.9 1.4 4.5 0 5.9-1.9.5-.7.7-1.5.6-2.3-.1-.8-.6-1.6-1.2-2.1-.5-.4-1.1-.5-1.7-.4-.6.1-1.2.4-1.5.9-.3.4-.4.8-.3 1.2.1.4.3.8.6 1.1.5.3.6 1 .2 1.5-.3.5-1 .6-1.5.2-.8-.6-1.3-1.5-1.5-2.5-.1-1 .1-2 .7-2.8.7-.9 1.7-1.6 2.9-1.7 1.2-.2 2.3.1 3.3.8 1.1.8 1.9 2.1 2.1 3.5s-.2 2.8-1 3.9c-1.2 1.7-3.1 2.5-5.1 2.5-1.3 0-2.7-.4-3.8-1.3-.4-.3-.5.1-.2-.4zm-9.1-2 2.1-3.2 4.2 3.2h-6.3z"/><path d="M256 0c-3.2 0-5.8 2.6-5.8 5.8 0 1 .3 1.9.7 2.8l-.4.3-.3-.3-1.4 1.7L18.3 203.8l8.8 10.5.1-.1 2.1 2.5c.1.3.3.6.5.8.2.3.5.5.7.7l6.2 7.4 6.4-5.3c1.3 1.5 3 2.5 4.8 2.8V512H256V0z" opacity=".15" fill="#444"/></svg>