<svg version="1.1" xmlns="http://www.w3.org/2000/svg" x="0" y="0" viewBox="0 0 512 512" xml:space="preserve"><style type="text/css">.st0{fill:#a18267}.st1{fill:#e0ac7e}.st2{fill:#c99c75}.st4{fill:#79b1d1}</style><path class="st0" d="M15.5 86.5h481v6h-481z"/><path class="st1" d="M15.5 84.5h481v6h-481z"/><path class="st0" d="M15.5 94.5h481v6h-481z"/><path class="st1" d="M15.5 92.5h481v6h-481z"/><path class="st0" d="M15.5 102.5h481v6h-481z"/><path class="st1" d="M15.5 100.5h481v6h-481z"/><path class="st0" d="M15.5 110.5h481v6h-481z"/><path class="st1" d="M15.5 108.5h481v6h-481z"/><path class="st0" d="M15.5 118.5h481v6h-481z"/><path class="st1" d="M15.5 116.5h481v6h-481z"/><path class="st0" d="M15.5 126.5h481v6h-481z"/><path class="st1" d="M15.5 124.5h481v6h-481z"/><path class="st0" d="M15.5 134.5h481v6h-481z"/><path class="st1" d="M15.5 132.5h481v6h-481z"/><path class="st0" d="M15.5 142.5h481v6h-481z"/><path class="st1" d="M15.5 140.5h481v6h-481z"/><path class="st0" d="M15.5 150.5h481v6h-481z"/><path class="st1" d="M15.5 148.5h481v6h-481z"/><path class="st0" d="M15.5 158.5h481v6h-481z"/><path class="st1" d="M15.5 156.5h481v6h-481z"/><path class="st0" d="M15.5 166.5h481v6h-481z"/><path class="st1" d="M15.5 164.5h481v6h-481z"/><path class="st0" d="M15.5 174.5h481v6h-481z"/><path class="st1" d="M15.5 172.5h481v6h-481z"/><path class="st0" d="M15.5 182.5h481v6h-481z"/><path class="st1" d="M15.5 180.5h481v6h-481z"/><path class="st0" d="M15.5 190.5h481v6h-481z"/><path class="st1" d="M15.5 188.5h481v6h-481z"/><path class="st0" d="M15.5 198.5h481v6h-481z"/><path class="st1" d="M15.5 196.5h481v6h-481z"/><path class="st0" d="M15.5 206.5h481v6h-481z"/><path class="st1" d="M15.5 204.5h481v6h-481z"/><path class="st0" d="M15.5 214.5h481v6h-481z"/><path class="st1" d="M15.5 212.5h481v6h-481z"/><path class="st0" d="M15.5 222.5h481v6h-481z"/><path class="st1" d="M15.5 220.5h481v6h-481z"/><path class="st0" d="M15.5 230.5h481v6h-481z"/><path class="st1" d="M15.5 228.5h481v6h-481z"/><path class="st0" d="M15.5 238.5h481v6h-481z"/><path class="st1" d="M15.5 236.5h481v6h-481z"/><path class="st0" d="M15.5 246.5h481v6h-481z"/><path class="st1" d="M15.5 244.5h481v6h-481z"/><path class="st0" d="M15.5 254.5h481v6h-481z"/><path class="st1" d="M15.5 252.5h481v6h-481z"/><path class="st0" d="M15.5 262.5h481v6h-481z"/><path class="st1" d="M15.5 260.5h481v6h-481z"/><path class="st0" d="M15.5 270.5h481v6h-481z"/><path class="st1" d="M15.5 268.5h481v6h-481z"/><path class="st0" d="M15.5 278.5h481v6h-481z"/><path class="st1" d="M15.5 276.5h481v6h-481z"/><path class="st0" d="M15.5 286.5h481v6h-481z"/><path class="st1" d="M15.5 284.5h481v6h-481z"/><path class="st0" d="M15.5 294.5h481v6h-481z"/><path class="st1" d="M15.5 292.5h481v6h-481z"/><path class="st0" d="M15.5 302.5h481v6h-481z"/><path class="st1" d="M15.5 300.5h481v6h-481z"/><path class="st0" d="M15.5 310.5h481v6h-481z"/><path class="st1" d="M15.5 308.5h481v6h-481z"/><path class="st0" d="M15.5 318.5h481v6h-481z"/><path class="st1" d="M15.5 316.5h481v6h-481z"/><path class="st0" d="M15.5 326.5h481v6h-481z"/><path class="st1" d="M15.5 324.5h481v6h-481z"/><path class="st0" d="M15.5 334.5h481v6h-481z"/><path class="st1" d="M15.5 332.5h481v6h-481z"/><path class="st0" d="M15.5 342.5h481v6h-481z"/><path class="st1" d="M15.5 340.5h481v6h-481z"/><path class="st0" d="M15.5 350.5h481v6h-481z"/><path class="st1" d="M15.5 348.5h481v6h-481z"/><path class="st0" d="M15.5 358.5h481v6h-481z"/><path class="st1" d="M15.5 356.5h481v6h-481z"/><path class="st0" d="M15.5 366.5h481v6h-481z"/><path class="st1" d="M15.5 364.5h481v6h-481z"/><path class="st0" d="M15.5 374.5h481v6h-481z"/><path class="st1" d="M15.5 372.5h481v6h-481z"/><path class="st0" d="M15.5 382.5h481v6h-481z"/><path class="st1" d="M15.5 380.5h481v6h-481z"/><path class="st0" d="M15.5 390.5h481v6h-481z"/><path class="st1" d="M15.5 388.5h481v6h-481z"/><path class="st0" d="M15.5 398.5h481v6h-481z"/><path class="st1" d="M15.5 396.5h481v6h-481z"/><path class="st0" d="M15.5 406.5h481v6h-481z"/><path class="st1" d="M15.5 404.5h481v6h-481z"/><path class="st0" d="M15.5 414.5h481v6h-481z"/><path class="st1" d="M15.5 412.5h481v6h-481z"/><path class="st0" d="M15.5 422.5h481v6h-481z"/><path class="st1" d="M15.5 420.5h481v6h-481z"/><path class="st0" d="M15.5 430.5h481v6h-481z"/><path class="st1" d="M15.5 428.5h481v6h-481z"/><path class="st0" d="M15.5 438.5h481v6h-481z"/><path class="st1" d="M15.5 436.5h481v6h-481z"/><path class="st0" d="M15.5 446.5h481v6h-481z"/><path class="st1" d="M15.5 444.5h481v6h-481z"/><path class="st2" d="M490.5 76.5h12v376h-12zm-481 0h12v376h-12z"/><path class="st0" d="M0 59.5h512v25H0z"/><path fill="#f4f4f4" d="M49.5 134.5h413v232h-413z"/><path class="st2" d="M472.5 376.5h-433v-252h433v252zm-423-10h413v-232h-413v232z"/><path class="st4" d="M200.5 144.5v212h-141v-212h141m252 0v212h-141v-212h141"/><path d="M220 144.5h72v68h-72zm0 83h72v48h-72z" fill="#36434f"/><path class="st4" d="M212 296.5h88v60h-88z"/></svg>