<svg version="1.1" xmlns="http://www.w3.org/2000/svg" x="0" y="0" viewBox="0 0 512 512" xml:space="preserve"><style type="text/css">.st0{fill:#36434f}.st2{opacity:.1;fill:#fff}.st7{fill:#122a3a}.st8{opacity:.3;fill:#121e28}</style><path class="st0" d="M499.4 102.2c-19.6-4.1-38.8-9.7-57.6-16.7L384 63.7c-17.1-6.4-32.6-16.4-45.6-29.3L332 28h-15.8c-1.5 4.4-3.8 8.5-6.9 12.1L256 102l-53.3-61.9c-3.1-3.6-5.4-7.7-6.9-12.1H180l-6.4 6.4c-12.9 12.9-28.5 22.9-45.6 29.3L70.1 85.4c-18.7 7-38 12.6-57.6 16.7-4.6 1-7.4 5.7-6 10.2L48 246.1c10.7 34.5 17.7 70 20.9 106L83 512h346l14.2-159.9c3.2-36 10.2-71.5 20.9-106l41.4-133.7c1.3-4.5-1.5-9.2-6.1-10.2z"/><path d="m436.6 109.2-28.2-36.3-24.4-9.2c-17.1-6.4-32.6-16.4-45.6-29.3L332 28h-2.9l1.4 15.2 3.4 36.4-12.8 91.8c-1.7 12.4-5.5 24.3-11.2 35.5L256 312.6l-53.9-105.7c-5.7-11.2-9.5-23.1-11.2-35.5l-12.8-91.8 3.4-36.4 1.4-15.2H180l-6.4 6.4c-12.9 12.9-28.5 22.9-45.6 29.3l-24.5 9.2-28.2 36.3-5.9 7.6 3.9 8.8 72.5 161.7c7.1 15.9 16.9 30.2 29.2 42.5l47.6 48-9.7 19-14.3 27.9-1.7 3.4V512h16v-80l37-43 6.1-2.1-5-.9 67.1-37.2 18.9-19c12.3-12.4 22.1-26.7 29.2-42.5l72.5-161.7 3.9-8.8-6-7.6z" opacity=".3" fill="#122a3a"/><path class="st2" d="M252.5 97.9V512h-3V94.5l3 3.4zm-93 414.1h3V44.3c-1 .8-2 1.5-3 2.3V512zm20-483.5V512h3V28H180l-.5.5zm-30 483.5h3V51.4c-1 .6-2 1.3-3 1.9V512zm-10 0h3V57.3l-3 1.5V512zm80-452.4V512h3V63.1l-3-3.5zm10 11.6V512h3V74.7l-3-3.5zm10 11.6V512h3V86.3l-3-3.5zM129.5 512h3V62l-3 1.2V512zm60 0h3V28h-3v484zm20-464v464h3V51.5l-3-3.5zm-10-12.3V512h3V39.9c-1.1-1.3-2.1-2.7-3-4.2zm-30 476.3h3V35.5c-1 1-2 1.9-3 2.8V512zm-130-293.2 3 9.7V94.7l-3 .9v123.2zm10 32.4 3 10.5V91.6c-1 .3-2 .7-3 1v158.6zm-20-64.8 3 9.7V97.4c-1 .3-2 .5-3 .8v88.2zm-20-64.6 3 9.7v-29.3c-1.1.2-2.1.7-3 1.4v18.2zm110 390.2h3V65.8l-3 1.1V512zm-100-357.9 3 9.7V100c-1 .2-2 .5-3 .7v53.4zm80 357.9h3V73.3l-3 1.1V512zm10 0h3V69.6l-3 1.1V512zm-40-426.3V360l3 33.8V84.6l-2.4.9c-.2 0-.4.1-.6.2zm-10 204.7c1.1 5 2.1 10.1 3 15.1V88.2c-1 .4-2 .7-3 1v201.2zm30 221.6h3V77.1l-3 1.1V512zm-10-39.4 3 33.8V80.8l-3 1.1v390.7zm350 33.8 3-33.8V81.9l-3-1.1v425.6zm-10 5.6h3V78.2l-3-1.1V512zm-30 0h3V66.9l-3-1.1V512zm50-427.4v309.2l3-33.8V85.7c-.2-.1-.4-.2-.6-.2l-2.4-.9zm-40 427.4h3V70.7l-3-1.1V512zm10 0h3V74.4l-3-1.1V512zm40-206.5c.9-5.1 1.9-10.1 3-15.1V89.2c-1-.3-2-.7-3-1v217.3zm40-141.7 3-9.7v-53.4c-1-.2-2-.5-3-.7v63.8zm10-61.6v29.3l3-9.7v-18.2c-.9-.7-1.9-1.1-3-1.4zm-240-4.3V512h3V94.5l-3 3.4zm200 163.8 3-10.5V92.5c-1-.3-2-.6-3-1v170.2zm20-65.6 3-9.7V98.2c-1-.3-2-.5-3-.8v98.7zm-10 32.4 3-9.7V95.5l-3-.9v133.9zm-180-165.4V512h3V59.6l-3 3.5zm10-11.6V512h3V48l-3 3.5zm20 460.5h3V28h-3v484zm-10-472.1V512h3V35.7c-.9 1.5-1.9 2.9-3 4.2zm-30 34.8V512h3V71.2l-3 3.5zm-10 11.6V512h3V82.8l-3 3.5zm100 425.7h3V58.8l-3-1.5V512zm-40-484v484h3V28.5l-.5-.5h-2.5zm30 484h3V53.3c-1-.6-2-1.2-3-1.9V512zm20 0h3V63.2l-3-1.2v450zm-40 0h3V38.3c-1-.9-2-1.9-3-2.8V512zm10 0h3V46.6c-1-.8-2-1.5-3-2.3V512z"/><path d="M353.3 51.6 318 0v16.6c0 8.6-3.1 17-8.7 23.5L256 102l-53.3-61.9c-5.6-6.5-8.7-14.9-8.7-23.5V0l-35.3 51.6-3.1 115.6 33.8 109.2 36.2 76.7h60.5l36.2-76.7 33.8-109.2-2.8-115.6z" fill="#121e28"/><path d="m291.5 353-2.2-97.6c-.2-8.2-1.2-16.4-2.9-24.5L268 147v-14l14.4-46.8c.8-2.6-1.1-5.2-3.8-5.2h-.3c-6.7 3.2-14.3 5-22.3 5s-15.5-1.8-22.3-5h-.3c-2.7 0-4.6 2.6-3.8 5.2L244 133v14l-18.4 83.9c-1.8 8-2.7 16.2-2.9 24.5l-2.2 97.6h71z" fill="#cc584c"/><path d="M237.8 175.2 268 145v2l.9 4.2-33.1 33.1 2-9.1zm37.4-65.7L244 140.8v6.2l-.2 1.1 28.3-28.3 3.1-10.3zM268 133l.9-3-27.1 27.1-2 9.1L268 138v-5zm-36.1 69.4 39.6-39.6-1.3-5.8-36.3 36.3-2 9.1zm8.9-79.7 40.6-40.6c-.7-.7-1.7-1.2-2.8-1.2h-.3c-1.5.7-3.1 1.4-4.7 2l-34.3 34.3 1.5 5.5zm40.7-33.6-39 39 1.5 4.9v.7l34.4-34.4 3.1-10.2zm-44 22.8L264 85.4c-2.5.4-5.1.6-7.7.6l-20.5 20.5 1.7 5.4zm54 241.1-.1-5-5 5h5.1zm-54.7 0 53.4-53.4-.2-6.9-60.2 60.3h7zm42.4 0 12-12-.2-6.9-18.8 18.9h7zm-28.2 0 39.6-39.6-.2-6.9-46.5 46.5h7.1zm14.1 0 25.8-25.8-.2-6.9L258 353h7.1zm24.2-97.6c0-1.4-.1-2.8-.2-4.2L221.3 319l-.2 7.2 68.2-68.2v-2.6zm-6.4-40.4-60.6 60.6-.2 7.2 62-62-1.2-5.8zm4.9 23.4-66.1 66.1-.2 7.2 67.1-67.1c-.2-2-.5-4.1-.8-6.2zm-1.4-7.5-.9-4.3-63.5 63.5-.2 7.2 64.9-64.9-.3-1.5zM222.7 353l67.3-67.3-.2-6.9-69.2 69.2-.1 5h2.2zm66.8-88L221 333.5l-.2 7.2 68.8-68.8-.1-6.9zm-14.2-84.8L226 229.5l-.3 1.4c-.5 2.4-1 4.9-1.4 7.4l52.3-52.3-1.3-5.8zm-44.4-89.9 7.4-7.4c-1.5-.6-3-1.2-4.5-1.9h-.7l-3.6 3.6c0 .5 0 1 .2 1.6l1.2 4.1zm49.4 113.1-57.7 57.7-.2 7.2 59.2-59.2-1.3-5.7zm-7.6-34.8-42.8 42.8-2 9.1 46.1-46.1-1.3-5.8zm5.1 23.2-54.6 54.6c-.2 2.5-.4 5-.5 7.5l56.3-56.3-1.2-5.8zm-43.6-90.7 15.5-15.5c-2-.2-4-.6-6-1.1l-11.2 11.2 1.7 5.4z" fill="#ad403b"/><path opacity=".15" fill="#444" d="M244 133h24v14h-24z"/><path class="st7" d="M229.5 430c-4.1 0-7.5 3.4-7.5 7.5s3.4 7.5 7.5 7.5 7.5-3.4 7.5-7.5-3.4-7.5-7.5-7.5zm-1.5 9.8c-.5 0-.8-.4-.8-.8s.4-.8.8-.8.8.4.8.8-.3.8-.8.8zm0-2.9c-.5 0-.8-.4-.8-.8s.4-.8.8-.8.8.4.8.8-.3.8-.8.8zm3 2.9c-.5 0-.8-.4-.8-.8s.4-.8.8-.8.8.4.8.8-.4.8-.8.8zm0-2.9c-.5 0-.8-.4-.8-.8s.4-.8.8-.8.8.4.8.8-.4.8-.8.8z"/><path class="st8" d="M231 437.8c-.6 0-1.1.5-1.1 1.1s.5 1.1 1.1 1.1 1.1-.5 1.1-1.1-.5-1.1-1.1-1.1zm0 2c-.5 0-.8-.4-.8-.8 0-.5.4-.8.8-.8s.8.4.8.8-.4.8-.8.8zm0-4.9c-.6 0-1.1.5-1.1 1.1s.5 1.1 1.1 1.1 1.1-.5 1.1-1.1-.5-1.1-1.1-1.1zm0 2c-.5 0-.8-.4-.8-.8s.4-.8.8-.8.8.4.8.8-.4.8-.8.8zm-3 .9c-.6 0-1.1.5-1.1 1.1s.5 1.1 1.1 1.1 1.1-.5 1.1-1.1-.4-1.1-1.1-1.1zm0 2c-.5 0-.8-.4-.8-.8 0-.5.4-.8.8-.8s.8.4.8.8c.1.4-.3.8-.8.8zm0-4.9c-.6 0-1.1.5-1.1 1.1s.5 1.1 1.1 1.1 1.1-.5 1.1-1.1-.4-1.1-1.1-1.1zm0 2c-.5 0-.8-.4-.8-.8s.4-.8.8-.8.8.4.8.8-.3.8-.8.8z"/><path class="st8" d="M237 437.1v-.8c0-.1 0-.2-.1-.4 0-.1-.1-.2-.1-.4-.3-1.1-.8-2.1-1.5-2.9l-.1-.1c-.1-.1-.2-.2-.2-.3s-.2-.2-.3-.3c-.1-.1-.2-.2-.3-.2l-.1-.1c-.8-.7-1.8-1.2-2.9-1.5-.1 0-.2-.1-.4-.1-.1 0-.2 0-.4-.1h-1.2c-.4 0-.8 0-1.1.1-.1 0-.2 0-.4.1-.1 0-.2.1-.4.1-.1 0-.2.1-.4.1-.5.2-1 .4-1.5.7-.1.1-.2.1-.3.2s-.2.1-.3.2c-.1.1-.3.2-.4.3-.2.2-.5.4-.7.6-.1.1-.2.2-.2.3-.1.1-.2.3-.3.4-.6.8-1 1.7-1.3 2.6 0 .1-.1.2-.1.4 0 .1 0 .2-.1.4v1.2c0 4.1 3.4 7.5 7.5 7.5h1.2c.1 0 .2 0 .4-.1.1 0 .2-.1.4-.1 1-.2 1.8-.7 2.6-1.3.1-.1.3-.2.4-.3.1-.1.2-.2.3-.2.2-.2.4-.4.6-.7.1-.1.2-.3.3-.4.1-.1.1-.2.2-.3s.1-.2.2-.3c.3-.5.5-1 .7-1.5 0-.1.1-.2.1-.4 0-.1.1-.2.1-.4 0-.1 0-.2.1-.4.1-.4.1-.8.1-1.1-.1-.2-.1-.4-.1-.5zm-7.5 6.5c-3.4 0-6.1-2.7-6.1-6.1s2.7-6.1 6.1-6.1 6.1 2.7 6.1 6.1-2.7 6.1-6.1 6.1z"/><path class="st7" d="M319.5 430c-4.1 0-7.5 3.4-7.5 7.5s3.4 7.5 7.5 7.5 7.5-3.4 7.5-7.5-3.4-7.5-7.5-7.5zm-1.5 9.8c-.5 0-.8-.4-.8-.8s.4-.8.8-.8.8.4.8.8-.3.8-.8.8zm0-2.9c-.5 0-.8-.4-.8-.8s.4-.8.8-.8.8.4.8.8-.3.8-.8.8zm3 2.9c-.5 0-.8-.4-.8-.8s.4-.8.8-.8.8.4.8.8-.4.8-.8.8zm0-2.9c-.5 0-.8-.4-.8-.8s.4-.8.8-.8.8.4.8.8-.4.8-.8.8z"/><path class="st8" d="M321 437.8c-.6 0-1.1.5-1.1 1.1s.5 1.1 1.1 1.1 1.1-.5 1.1-1.1-.5-1.1-1.1-1.1zm0 2c-.5 0-.8-.4-.8-.8 0-.5.4-.8.8-.8.5 0 .8.4.8.8s-.4.8-.8.8zm0-4.9c-.6 0-1.1.5-1.1 1.1s.5 1.1 1.1 1.1 1.1-.5 1.1-1.1-.5-1.1-1.1-1.1zm0 2c-.5 0-.8-.4-.8-.8s.4-.8.8-.8c.5 0 .8.4.8.8s-.4.8-.8.8zm-3 .9c-.6 0-1.1.5-1.1 1.1s.5 1.1 1.1 1.1 1.1-.5 1.1-1.1-.4-1.1-1.1-1.1zm0 2c-.5 0-.8-.4-.8-.8 0-.5.4-.8.8-.8s.8.4.8.8c.1.4-.3.8-.8.8zm0-4.9c-.6 0-1.1.5-1.1 1.1s.5 1.1 1.1 1.1 1.1-.5 1.1-1.1-.4-1.1-1.1-1.1zm0 2c-.5 0-.8-.4-.8-.8s.4-.8.8-.8.8.4.8.8-.3.8-.8.8z"/><path class="st8" d="M327 437.1v-.8c0-.1 0-.2-.1-.4 0-.1-.1-.2-.1-.4-.3-1.1-.8-2.1-1.5-2.9l-.1-.1c-.1-.1-.2-.2-.2-.3s-.2-.2-.3-.3-.2-.2-.3-.2l-.1-.1c-.8-.7-1.8-1.2-2.9-1.5-.1 0-.2-.1-.4-.1-.1 0-.2 0-.4-.1h-1.2c-.4 0-.8 0-1.1.1-.1 0-.2 0-.4.1-.1 0-.2.1-.4.1-.1 0-.2.1-.4.1-.5.2-1 .4-1.5.7-.1.1-.2.1-.3.2s-.2.1-.3.2c-.1.1-.3.2-.4.3-.2.2-.5.4-.7.6-.1.1-.2.2-.2.3-.1.1-.2.3-.3.4-.6.8-1 1.7-1.3 2.6 0 .1-.1.2-.1.4 0 .1 0 .2-.1.4v1.2c0 4.1 3.4 7.5 7.5 7.5h1.2c.1 0 .2 0 .4-.1.1 0 .2-.1.4-.1 1-.2 1.8-.7 2.6-1.3.1-.1.3-.2.4-.3.1-.1.2-.2.3-.2.2-.2.4-.4.6-.7.1-.1.2-.3.3-.4.1-.1.1-.2.2-.3s.1-.2.2-.3c.3-.5.5-1 .7-1.5 0-.1.1-.2.1-.4 0-.1.1-.2.1-.4 0-.1 0-.2.1-.4.1-.4.1-.8.1-1.1-.1-.2-.1-.4-.1-.5zm-7.5 6.5c-3.4 0-6.1-2.7-6.1-6.1s2.7-6.1 6.1-6.1 6.1 2.7 6.1 6.1-2.7 6.1-6.1 6.1z"/><path class="st7" d="M391 310c-4.1 0-7.5 3.4-7.5 7.5s3.4 7.5 7.5 7.5 7.5-3.4 7.5-7.5-3.4-7.5-7.5-7.5zm-1.5 9.8c-.5 0-.8-.4-.8-.8s.4-.8.8-.8.8.4.8.8-.3.8-.8.8zm0-2.9c-.5 0-.8-.4-.8-.8s.4-.8.8-.8.8.4.8.8-.3.8-.8.8zm3 2.9c-.5 0-.8-.4-.8-.8s.4-.8.8-.8.8.4.8.8-.4.8-.8.8zm0-2.9c-.5 0-.8-.4-.8-.8s.4-.8.8-.8.8.4.8.8-.4.8-.8.8z"/><path class="st8" d="M392.5 317.8c-.6 0-1.1.5-1.1 1.1s.5 1.1 1.1 1.1 1.1-.5 1.1-1.1-.5-1.1-1.1-1.1zm0 2c-.5 0-.8-.4-.8-.8 0-.5.4-.8.8-.8.5 0 .8.4.8.8s-.4.8-.8.8zm0-4.9c-.6 0-1.1.5-1.1 1.1s.5 1.1 1.1 1.1 1.1-.5 1.1-1.1-.5-1.1-1.1-1.1zm0 2c-.5 0-.8-.4-.8-.8s.4-.8.8-.8c.5 0 .8.4.8.8s-.4.8-.8.8zm-3 .9c-.6 0-1.1.5-1.1 1.1s.5 1.1 1.1 1.1 1.1-.5 1.1-1.1-.4-1.1-1.1-1.1zm0 2c-.5 0-.8-.4-.8-.8 0-.5.4-.8.8-.8s.8.4.8.8c.1.4-.3.8-.8.8zm0-4.9c-.6 0-1.1.5-1.1 1.1s.5 1.1 1.1 1.1 1.1-.5 1.1-1.1-.4-1.1-1.1-1.1zm0 2c-.5 0-.8-.4-.8-.8s.4-.8.8-.8.8.4.8.8-.3.8-.8.8z"/><path class="st8" d="M398.5 317.1v-.8c0-.1 0-.2-.1-.4 0-.1-.1-.2-.1-.4-.3-1.1-.8-2.1-1.5-2.9l-.1-.1c-.1-.1-.2-.2-.2-.3s-.2-.2-.3-.3-.2-.2-.3-.2l-.1-.1c-.8-.7-1.8-1.2-2.9-1.5-.1 0-.2-.1-.4-.1-.1 0-.2 0-.4-.1h-1.2c-.4 0-.8 0-1.1.1-.1 0-.2 0-.4.1-.1 0-.2.1-.4.1-.1 0-.2.1-.4.1-.5.2-1 .4-1.5.7-.1.1-.2.1-.3.2s-.2.1-.3.2c-.1.1-.3.2-.4.3-.2.2-.5.4-.7.6-.1.1-.2.2-.2.3-.1.1-.2.3-.3.4-.6.8-1 1.7-1.3 2.6 0 .1-.1.2-.1.4 0 .1 0 .2-.1.4v1.2c0 4.1 3.4 7.5 7.5 7.5h1.2c.1 0 .2 0 .4-.1.1 0 .2-.1.4-.1 1-.2 1.8-.7 2.6-1.3.1-.1.3-.2.4-.3.1-.1.2-.2.3-.2.2-.2.4-.4.6-.7.1-.1.2-.3.3-.4.1-.1.1-.2.2-.3s.1-.2.2-.3c.3-.5.5-1 .7-1.5 0-.1.1-.2.1-.4 0-.1.1-.2.1-.4 0-.1 0-.2.1-.4.1-.4.1-.8.1-1.1-.1-.2-.1-.4-.1-.5zm-7.5 6.5c-3.4 0-6.1-2.7-6.1-6.1s2.7-6.1 6.1-6.1 6.1 2.7 6.1 6.1-2.7 6.1-6.1 6.1z"/><path class="st7" d="M158 310c-4.1 0-7.5 3.4-7.5 7.5s3.4 7.5 7.5 7.5 7.5-3.4 7.5-7.5-3.4-7.5-7.5-7.5zm-1.5 9.8c-.5 0-.8-.4-.8-.8s.4-.8.8-.8.8.4.8.8-.3.8-.8.8zm0-2.9c-.5 0-.8-.4-.8-.8s.4-.8.8-.8.8.4.8.8-.3.8-.8.8zm3 2.9c-.5 0-.8-.4-.8-.8s.4-.8.8-.8.8.4.8.8-.4.8-.8.8zm0-2.9c-.5 0-.8-.4-.8-.8s.4-.8.8-.8.8.4.8.8-.4.8-.8.8z"/><path class="st8" d="M159.5 317.8c-.6 0-1.1.5-1.1 1.1s.5 1.1 1.1 1.1 1.1-.5 1.1-1.1-.5-1.1-1.1-1.1zm0 2c-.5 0-.8-.4-.8-.8 0-.5.4-.8.8-.8s.8.4.8.8-.4.8-.8.8zm0-4.9c-.6 0-1.1.5-1.1 1.1s.5 1.1 1.1 1.1 1.1-.5 1.1-1.1-.5-1.1-1.1-1.1zm0 2c-.5 0-.8-.4-.8-.8s.4-.8.8-.8.8.4.8.8-.4.8-.8.8zm-3 .9c-.6 0-1.1.5-1.1 1.1s.5 1.1 1.1 1.1 1.1-.5 1.1-1.1-.4-1.1-1.1-1.1zm0 2c-.5 0-.8-.4-.8-.8 0-.5.4-.8.8-.8s.8.4.8.8c.1.4-.3.8-.8.8zm0-4.9c-.6 0-1.1.5-1.1 1.1s.5 1.1 1.1 1.1 1.1-.5 1.1-1.1-.4-1.1-1.1-1.1zm0 2c-.5 0-.8-.4-.8-.8s.4-.8.8-.8.8.4.8.8-.3.8-.8.8z"/><path class="st8" d="M165.5 317.1v-.8c0-.1 0-.2-.1-.4 0-.1-.1-.2-.1-.4-.3-1.1-.8-2.1-1.5-2.9l-.1-.1c-.1-.1-.2-.2-.2-.3s-.2-.2-.3-.3c-.1-.1-.2-.2-.3-.2l-.1-.1c-.8-.7-1.8-1.2-2.9-1.5-.1 0-.2-.1-.4-.1-.1 0-.2 0-.4-.1h-1.2c-.4 0-.8 0-1.1.1-.1 0-.2 0-.4.1-.1 0-.2.1-.4.1-.1 0-.2.1-.4.1-.5.2-1 .4-1.5.7-.1.1-.2.1-.3.2s-.2.1-.3.2c-.1.1-.3.2-.4.3-.2.2-.5.4-.7.6-.1.1-.2.2-.2.3-.1.1-.2.3-.3.4-.6.8-1 1.7-1.3 2.6 0 .1-.1.2-.1.4 0 .1 0 .2-.1.4v1.2c0 4.1 3.4 7.5 7.5 7.5h1.2c.1 0 .2 0 .4-.1.1 0 .2-.1.4-.1 1-.2 1.8-.7 2.6-1.3.1-.1.3-.2.4-.3.1-.1.2-.2.3-.2.2-.2.4-.4.6-.7.1-.1.2-.3.3-.4.1-.1.1-.2.2-.3s.1-.2.2-.3c.3-.5.5-1 .7-1.5 0-.1.1-.2.1-.4 0-.1.1-.2.1-.4 0-.1 0-.2.1-.4.1-.4.1-.8.1-1.1-.1-.2-.1-.4-.1-.5zm-7.5 6.5c-3.4 0-6.1-2.7-6.1-6.1s2.7-6.1 6.1-6.1 6.1 2.7 6.1 6.1-2.7 6.1-6.1 6.1z"/><path class="st0" d="M165.6 41.8 162 80l-17 45-57-6 44.2-56.9c12.1-5.1 23.4-11.9 33.4-20.3z"/><path class="st2" d="m137.8 124.2 8.3-2.1-1.1 2.9-7.2-.8zm-29-3 8.7.9 31.6-7.9 1.3-3.4-41.6 10.4zm45.9-21.8-63.9 16L88 119l.5.1 64.9-16.2 1.3-3.5zm-54 3.2-3 3.8 59.9-15L159 88l-58.3 14.6zm29.9-38.4-3 3.8 36.4-9.1.3-3.2-33.7 8.5zm28.7-17.5c-2.3 1.7-4.6 3.3-7 4.9l12.7-3.2.3-3.2-6 1.5zm-48.6 43.1-3 3.8L162 80.1V80l.3-3.1-51.6 12.9zm9.9-12.8-3 3.8L163 69.5l.3-3.2L120.6 77z"/><path class="st0" d="m263 361.5-75.2-147.3c-6.5-12.7-10.8-26.4-12.8-40.6L162 80l-25.6 20.5c-2.9 2.3-6.2 4.1-9.7 5.3L88 119l72.5 161.7c6.3 14.1 15.1 26.9 26 37.8l60.9 61.4 15.6-18.4z"/><path class="st2" d="m200.3 238.7-86.7-128.5 2.9-1L189 216.6l11.3 22.1zM176 179.4l-49.6-73.5-2.9 1 54.3 80.4c-.7-2.6-1.3-5.2-1.8-7.9zm-3.3-22.8-37.3-55.3c-.8.6-1.6 1.1-2.5 1.7l40.8 60.4-1-6.8zm-3.2-22.6-26.3-39-2.4 1.9 29.6 43.9-.9-6.8zm-6.2-45-4.4-6.5-2.4 1.9 7.7 11.4-.9-6.8zm3.1 22.5L151 88.8l-2.4 1.9 18.6 27.6-.8-6.8zm60.2 178.7L106.8 112.6l-2.9 1 134 198.7-11.3-22.1zM144.9 246l64.7 96 11.3 11.4L137.7 230l7.2 16zm38 68.9-21.2-31.5c5.5 11.5 12.6 22.1 21.2 31.5zm79.9 46.9L97 115.9l-2.9 1 166.7 247.2 2-2.3zm-6.7 7.9L90 123.4l7.2 16 156.9 232.7 2-2.4zm-8.7 10.3 2-2.4-135.5-200.9 7.2 16L247.4 380z"/><path class="st0" d="M346.4 41.8 350 80l17 45 57-6-44.2-56.9c-12.1-5.1-23.4-11.9-33.4-20.3z"/><path class="st2" d="m367 125-1.1-2.8 8.3 2.1-7.2.7zm-5.4-14.2 1.3 3.4 31.6 7.9 8.7-.9-41.6-10.4zm-3-8 64.9 16.2.5-.1-2.8-3.6-63.9-16 1.3 3.5zM353 88l1.3 3.4 59.9 15-3-3.8L353 88zm-5.3-32.2.3 3.2 36.4 9.1-3-3.8-33.7-8.5zm-1-10.6.3 3.2 12.7 3.2c-2.4-1.5-4.7-3.2-7-4.9l-6-1.5zm3 31.7.3 3.1v.1l54.3 13.6-3-3.8-51.6-13zm-1-10.6.3 3.2 45.3 11.3-3-3.8-42.6-10.7z"/><path class="st0" d="m350 80-13 93.6c-2 14.1-6.3 27.9-12.8 40.6L213 432l112.6-113.5c10.9-10.9 19.6-23.8 26-37.8L424 119l-38.7-13.2c-3.5-1.2-6.8-3-9.7-5.3L350 80z"/><path class="st2" d="M334.3 187.4c.7-2.6 1.3-5.3 1.8-8l49.6-73.5 2.9 1-54.3 80.5zm64-77.1-2.9-1-72.5 107.4-11.3 22.1 86.7-128.5zm-19.1-7.4c-.9-.5-1.7-1.1-2.5-1.7l-37.3 55.3-.9 6.8 40.7-60.4zm-8.1-6-2.4-1.9-26.3 39-.9 6.8 29.6-43.9zm-7.8-6.3-2.4-1.9-15.3 22.7-.9 6.8 18.6-27.6zm-7.8-6.2-2.4-1.9-4.4 6.5-.9 6.8 7.7-11.4zM367.1 246l7.2-16-83.2 123.3 11.3-11.4 64.7-95.9zm-38 68.9c8.6-9.4 15.8-20 21.2-31.5l-21.2 31.5zM391 192.7l7.2-16-144.8 214.6 11.3-11.4L391 192.7zm27-75.8-2.9-1-167.3 247.9-11.3 22.1 181.5-269zm-9.9-3.3-2.9-1-119.8 177.6-11.3 22.1 134-198.7zm6.8 25.8 7.2-16-206.3 305.8 11.3-11.4 187.8-278.4z"/></svg>