<svg version="1.1" xmlns="http://www.w3.org/2000/svg" x="0" y="0" viewBox="0 0 512 512" xml:space="preserve"><path d="M435 389H77c-8.8 0-16-7.2-16-16v-17h390v17c0 8.8-7.2 16-16 16z" fill="#cc584c"/><path d="M506.7 269.4c-.9 0-1.8.1-2.6.2-3.2.4-6.4.6-9.6.6-8.8 0-17.4-1.5-25.5-4.3-16.6-5.8-30.3-18.3-38.7-35.1-15.9-31.9-40.3-58.8-70.5-77.8-31-19.6-66.9-29.9-103.8-29.9-36.9 0-72.7 10.3-103.8 29.9-30.2 19-54.6 45.9-70.5 77.8-8.4 16.7-22.1 29.2-38.7 35-8.2 2.9-16.7 4.3-25.5 4.3-3.2 0-6.4-.2-9.6-.6-.9-.1-1.7-.2-2.6-.2h-.1c-2.9 0-5.3 2.5-5.3 5.4V296h512v-21.2c.1-2.9-2.2-5.4-5.2-5.4z" fill="#eec646"/><path d="M511.7 289.9c-.3-2.8-2.8-4.8-5.6-4.5-3.8.5-7.6.7-11.5.7-10.8 0-21.2-1.8-30.8-5.2-21-7.4-37.8-23.1-47.7-43C386.6 179.3 326 139 256 139s-130.6 40.3-160 98.9c-9.9 19.9-26.8 35.6-47.7 43-9.6 3.4-20 5.2-30.8 5.2-3.9 0-7.8-.2-11.5-.7-2.8-.3-5.4 1.7-5.6 4.5-.2 2-.3 4-.3 6.1 0 33.7 27.3 61 61 61H451c33.7 0 61-27.3 61-61 0-2.1-.1-4.1-.3-6.1z" fill="#36434f"/><path d="M291.9 250.4c4.1-2.3 6.9-6.3 8.2-10.8.6-2.1 2-3.9 4.2-4.8 3.2-1.4 7-.3 9 2.5 1.6 2.2 1.8 4.9.8 7.2 2.4.3 4.7 1.8 5.9 4.3 1.5 3.2.5 7-2.3 9-1.9 1.4-4.2 1.8-6.3 1.2-4.6-1.1-9.4-.6-13.4 1.7l-2.2 1.3-25.2 14.6-12.1-7 31.2-18 2.2-1.2zm-75.6 43.7l-2.2 1.3c-4.1 2.3-8.9 2.8-13.4 1.7-2.1-.5-4.4-.2-6.3 1.2-2.8 2.1-3.8 5.9-2.3 9 1.1 2.5 3.4 4 5.9 4.3-1 2.3-.8 5 .8 7.2 2 2.8 5.8 3.9 9 2.5 2.2-.9 3.6-2.8 4.2-4.8 1.3-4.5 4.1-8.4 8.2-10.8l2.2-1.3 31.2-18-12-7-25.3 14.7zm101.4 4.2c-1.9-1.4-4.2-1.8-6.3-1.2-4.6 1.1-9.4.6-13.5-1.7l-2.2-1.3-73.5-42.4-2.2-1.3c-4-2.4-6.9-6.3-8.2-10.8-.6-2.1-2-3.9-4.2-4.8-3.2-1.4-7-.3-9 2.5-1.6 2.2-1.7 4.9-.8 7.2-2.5.3-4.7 1.8-5.9 4.3-1.4 3.2-.4 7 2.3 9 1.9 1.4 4.2 1.8 6.3 1.2 4.6-1.1 9.4-.6 13.4 1.7l2.2 1.3 73.5 42.4 2.2 1.3c4 2.4 6.9 6.3 8.2 10.8.6 2.1 2 3.9 4.2 4.8 3.2 1.4 7 .3 9-2.5 1.6-2.2 1.7-4.9.8-7.2 2.5-.3 4.7-1.8 5.9-4.3 1.5-3.1.6-6.9-2.2-9zm-97.1-77l-2.5-24.9c0-20.1 17-36.4 38-36.4 15.2 0 28.3 8.5 34.4 20.9 2.3 4.7 3.6 10 3.6 15.5l-2.5 24.9c-.6 6-5 10.9-10.9 12.1l-1.6.3c-1.8.4-3 2.1-2.8 3.9l1 7.5c.8 5.6-3.2 10.7-8.8 11.3l-4.8.5c-5 .6-10.1.6-15.1 0l-4.8-.5c-5.6-.6-9.6-5.7-8.8-11.3l1-7.5c.3-1.8-.9-3.5-2.8-3.9l-1.6-.3c-6-1.2-10.4-6.1-11-12.1zm41.2-1.1c0 .1 0 .2.1.3.8 2.6 2.8 4.7 5.4 5.6l5.4 1.8c4.1 1.4 8.3-1.9 7.9-6.3l-.3-4.5c-.3-3.2-3.1-5.5-6.3-5.1l-6.6.9c-3.5.5-6.1 3.8-5.6 7.3zM251.2 238c0 2.1 2.2 3.8 4.8 3.8 2.7 0 4.8-1.7 4.8-3.8s-4.1-9.7-4.8-9.7c-.7 0-4.8 7.6-4.8 9.7zm-11.9-10.1l5.4-1.8c2.7-.9 4.7-3 5.4-5.6 0-.1 0-.2.1-.3.4-3.5-2.1-6.8-5.7-7.2l-6.6-.9c-3.2-.4-6 1.9-6.3 5.1l-.3 4.5c-.3 4.3 3.8 7.6 8 6.2z" fill="#f4f4f4"/><path d="M61 357v16c0 8.8 7.2 16 16 16h179V123c-36.9 0-72.7 10.3-103.8 29.9-30.2 19-54.6 45.9-70.5 77.8-8.4 16.8-22.1 29.3-38.7 35.1-8.2 2.9-16.7 4.3-25.5 4.3-3.2 0-6.4-.2-9.6-.6-.9-.1-1.7-.2-2.6-.2h-.1c-2.9 0-5.3 2.5-5.3 5.4V296c.1 33.7 27.4 61 61.1 61z" opacity=".15" fill="#444"/></svg>