<svg version="1.1" xmlns="http://www.w3.org/2000/svg" x="0" y="0" viewBox="0 0 512 512" xml:space="preserve"><style type="text/css">.st0{fill:#6f6296}.st2{opacity:.15;fill:#444}</style><path class="st0" d="M338 74h-77V0h77c20.4 0 37 16.6 37 37s-16.6 37-37 37z"/><path class="st0" d="M291 0h-40.6c-17.2 0-32.1 11.8-36 28.6l-67 287.4 2 1h213.4l2-1L291 0zm216.4 490.6-124.6-97.1-2-1H131.2l-2 1L4.6 490.6c-9 7-4 21.4 7.5 21.4h487.8c11.5 0 16.5-14.4 7.5-21.4z"/><path fill="#eec646" d="M364.7 316H147.3l-18.1 77.5h253.6z"/><path class="st2" d="m132.9 377.5-3.7 16h253.6l-3.7-16z"/><path class="st2" d="M250.4 0c-17.2 0-32.1 11.8-36 28.6l-67 287.4-18.1 77.5L4.6 490.6c-9 7-4 21.4 7.5 21.4H256V0h-5.6z"/></svg>