<svg version="1.1" xmlns="http://www.w3.org/2000/svg" x="0" y="0" viewBox="0 0 512 512" xml:space="preserve"><style type="text/css">.st0{fill:#a18267}.st1,.st2{fill:#66442b}.st2{opacity:.15}.st3{opacity:.5}</style><path class="st0" d="M157.5 505.3c-33.2 0-62.3-23.6-69.2-56.1-.2-.9-.4-1.9-.5-2.8l-.6-3.5h-.1l-14.3-83.6v-.1c-3.8-15.7-9.6-31.5-17.2-46.9-3.3-6.6-6.7-12.8-9.9-18.8-9.1-16.9-17.8-32.8-22.2-53.7-6.8-31.9-9-64.5-6.5-96.8 2.7-36.8 11.5-72.8 26-106.9 3.9-9 10.7-16.2 19.3-20.2 6.7-3.1 13.8-5.5 21.1-7 6.8-1.4 13.7-2.2 20.6-2.2 3.7 0 7.5.2 11.2.6 10.8 1.3 20.5 7 26.8 15.9 20.8 29.3 35.1 62.2 42.7 97.7 1.4 6.8 2.6 13.7 3.5 20.6 3 22.8 3 45.9.1 68.6-2.1 15.8-2.9 32-2.3 48.1l.2 4.8c1.1 33.1 7.5 65.6 19 96.6l16.9 45.2h-.1l1.3 3.4c1.5 3.8 2.7 7.7 3.5 11.6 8.1 38.2-16.3 75.8-54.5 84-4.9 1-9.9 1.5-14.8 1.5z"/><path class="st1" d="M104 10.7c3.6 0 7.2.2 10.8.6 9.6 1.1 18.4 6.3 24 14.2 20.5 28.9 34.6 61.3 42 96.2 1.4 6.7 2.6 13.5 3.5 20.3 3 22.4 3 45.2.1 67.5-2.1 16-2.9 32.4-2.4 48.8l.2 4.8c1.1 33.5 7.6 66.4 19.3 97.9l15.6 41.9-.2.1 2.7 6.7c1.4 3.6 2.6 7.3 3.3 11 7.7 36-15.4 71.6-51.4 79.2-4.6 1-9.3 1.5-14 1.5-15.1 0-29.9-5.2-41.7-14.7-12-9.6-20.4-23.2-23.6-38.2-.2-.8-.3-1.7-.5-2.6l-1.2-7.1h-.1l-13.7-79.9v-.3l-.1-.3c-3.9-16-9.8-32.1-17.5-47.7-3.3-6.7-6.7-12.9-10-19-9-16.6-17.5-32.3-21.8-52.6-6.7-31.5-8.9-63.7-6.4-95.7 2.8-36.4 11.5-71.9 25.8-105.6 3.5-8.1 9.6-14.6 17.3-18.1 6.4-3 13.2-5.2 20.2-6.7 6.5-1.5 13.2-2.2 19.8-2.2m0-8c-7.1 0-14.2.7-21.4 2.3-7.7 1.6-15.1 4.1-21.9 7.3-9.7 4.4-17.2 12.5-21.4 22.2-14.5 34-23.6 70.4-26.5 108.2-2.5 32-.4 64.9 6.6 97.9 6.1 28.9 19.9 48.2 32.5 73.5 7.3 14.7 13 30.1 16.9 46l14.9 87h.1c.2 1 .3 2 .5 2.9 7.5 35.2 38.5 59.3 73.1 59.3 5.2 0 10.4-.5 15.6-1.6 40.4-8.6 66.2-48.3 57.6-88.7-.9-4.3-2.2-8.4-3.7-12.3l-18.1-48.5c-11.4-30.5-17.7-62.7-18.8-95.3l-.2-4.8c-.5-15.9.2-31.7 2.3-47.5 3-22.7 3-46-.1-69.6-.9-7-2.1-13.9-3.6-20.9-7.8-36.8-22.9-70.3-43.3-99.1-6.9-9.8-17.7-16.2-29.6-17.5-3.7-.6-7.6-.8-11.5-.8z"/><path class="st1" d="M83.8 10.2C94 8 104.4 7.5 114.7 8.7c9.7 1.1 18.6 6.4 24.2 14.4 20.7 29.2 35 61.9 42.5 97.2 1.4 6.7 2.6 13.6 3.5 20.5 3 22.7 3 45.6.1 68.2-2.1 16.2-2.9 32.8-2.4 49.3l.2 4.9c1.1 33.9 7.6 67.1 19.5 98.9l15.8 42.3-.2.1 2.7 6.8c1.5 3.6 2.6 7.4 3.4 11.1 7.7 36.4-15.6 72.3-52 80.1s-72.3-15.6-80.1-52c-.2-.8-.3-1.7-.5-2.7l-1.2-7.2h-.1l-13.9-80.8v-.3l-.1-.3c-3.9-16.2-9.9-32.4-17.7-48.2-3.4-6.8-6.8-13.1-10.1-19.2-9.1-16.8-17.7-32.7-22.1-53.2-6.8-31.9-9-64.4-6.5-96.7 2.8-36.8 11.6-72.7 26.1-106.8 3.5-8.2 9.7-14.7 17.5-18.3 6.5-2.8 13.4-5.1 20.5-6.6m-1.7-7.9C74.3 3.9 66.9 6.4 60 9.7c-9.7 4.5-17.3 12.6-21.5 22.5-14.6 34.3-23.8 71.2-26.7 109.3-2.5 32.4-.5 65.6 6.6 99 6.2 29.2 20.1 48.7 32.8 74.3 7.4 14.8 13.2 30.4 17.1 46.5l15.1 88h.1c.2 1 .3 2 .6 3 8.7 40.8 48.8 66.9 89.6 58.2s66.9-48.8 58.2-89.6c-.9-4.3-2.2-8.4-3.8-12.4l-18.3-49c-11.5-30.9-17.9-63.4-19-96.3l-.2-4.9c-.5-16 .3-32.1 2.3-48 3-22.9 3.1-46.5-.1-70.3-.9-7-2.1-14.1-3.6-21.1-7.9-37.2-23.1-71-43.8-100.2-7-9.9-17.9-16.3-29.9-17.7-10.8-1.6-22-1.1-33.4 1.3zM208 354.2l1.8 5.1-1.8-5.1zm20.1 54.1z"/><path class="st1" d="M189.6 315.2c-17.2 14.3-38.3 24.4-60.9 29.2-19.3 4.1-38.6 4.3-57.4.5l-8.2-1.6c2 5.9 3.7 11.9 5.2 17.9 0-.2-.1-.3-.1-.5 20.3 4 42 4.1 64-.6 26.1-5.5 49.2-17.1 67.8-32.6-1.5-5.9-2.8-11.8-3.9-17.7l-6.5 5.4zm16.5 33.6c.4 1.3.9 2.6 1.3 3.8-.4-1.3-.9-2.5-1.3-3.8zm-3.1-10.1c.1.5.3.9.4 1.4-.2-.5-.3-1-.4-1.4zm1.3 4.3c.3 1 .6 2 1 3-.4-.9-.7-2-1-3z"/><path class="st2" d="M188.6 359.9c.7 2.1 1.5 4.3 2.3 6.4l12.1 32.3-.4.2 6.8 17c1.2 3 2.1 6.1 2.8 9.1 6.4 29.9-12.8 59.4-42.7 65.7-29.9 6.4-59.4-12.8-65.7-42.7-.1-.6-.3-1.4-.4-2.2l-3.1-17.9h-.1l-7.6-44c14.5.5 29.1-.8 43.7-3.9 18.5-4 36.2-10.7 52.3-20M87.2 25.9c8.5-1.8 17.1-2.2 25.6-1.2 5.2.6 9.9 3.4 12.9 7.7 19.4 27.4 32.8 58.1 39.9 91.2 1.3 6.3 2.5 12.8 3.3 19.3 2.8 21.3 2.8 42.8.1 64-1.4 10.9-2.3 21.9-2.6 33-14.1 9.3-29.4 15.7-45.7 19.1-23.8 5.1-48.9 3.4-73-4.8-2.5-6.4-4.4-12.5-5.7-18.8-6.5-30.4-8.5-61.4-6.2-92.1 2.7-35 11-69.2 24.9-101.7 1.9-4.6 5.3-8.1 9.4-10 5.4-2.5 11.2-4.4 17.1-5.7"/><g class="st3"><path class="st1" d="M165 229.4l-3.9 6.3-10.6-6.9-2.8 4.3.1.1-4 6.2-10.6-6.9-2.8 4.3.1.1-4 6.2-10.6-6.9-2.8 4.3.1.1-4 6.2-10.6-6.9-2.8 4.3.1.1-4 6.2-10.6-6.9-2.8 4.3.1.1-4 6.2-10.6-7-2.8 4.3.1.1-3.7 5.6c1.7.5 3.5.9 5.2 1.3l2.7-4.1 9.8 6.4c.3 0 .6.1.9.1l6.6-10.2 10.5 6.8 6.8-10.5 10.5 6.8 6.8-10.5 10.5 6.8 6.8-10.5 10.5 6.8 6.8-10.5 10.2 6.6c.3-.2.5-.3.8-.5l3.6-5.5c.1-3.5.3-6.9.5-10.4l-2.1 3.3zM42 143.7l-2.8 4.3.1.1-4 6.2h-.1c-.1 2-.2 4-.2 5.9l1.8 1.1 6.8-10.5 10.5 6.8 6.8-10.5 10.5 6.8 6.8-10.5 10.5 6.8 6.8-10.5 10.5 6.8 6.8-10.5 10.5 6.8 6.8-10.5 10.5 6.8 6.8-10.5 10.5 6.8 6.8-10.5 1.5 1c-.2-.8-.3-1.6-.5-2.4-.3-1.6-.7-3.1-1-4.6l-1.5-1-2.8 4.3.1.1-4 6.2-10.6-6.9-2.8 4.3.1.1-4 6.2-10.6-6.9-2.8 4.3.1.1-4 6.2-10.6-6.9-2.8 4.3.1.1-4 6.2-10.6-6.9-2.8 4.3.1.1-4 6.2-10.6-6.9-2.8 4.3.1.1-4 6.2-10.7-7-2.8 4.3.1.1-4 6.2-10.6-6.9zm-4-20.4c-.5 3.5-.9 7.1-1.3 10.6l2.5-3.8 10.5 6.8 6.8-10.5 10.5 6.8 6.8-10.5 10.5 6.8 6.8-10.5 10.5 6.8 6.8-10.5 10.5 6.8 6.8-10.5 10.5 6.8 6.8-10.5 10.5 6.8 6.8-10.5.6.4c-.7-2.5-1.5-4.9-2.3-7.4l-2.7 4.1.1.1-4 6.2-10.6-6.9-2.8 4.3.1.1-4 6.2-10.6-6.9-2.8 4.3.1.1-4 6.2-10.6-6.9-2.8 4.3.1.1-4 6.2-10.6-6.7-2.8 4.3.1.1-4 6.2-10.6-6.9-2.8 4.3.1.1-4 6.2-10.6-6.9-2.8 4.3.1.1-4 6.2-10.2-6.7zm125.3 81.2l-2.8 4.3.1.1-4 6.2-10.6-6.9-2.8 4.3.1.1-4 6.2-10.6-6.9-2.8 4.3.1.1-4 6.2-10.6-6.9-2.8 4.3.1.1-4 6.2-10.6-6.9-2.8 4.3.1.1-4 6.2-10.6-6.9-2.8 4.3.1.1-4 6.2-10.6-6.9-2.8 4.3.1.1-4 6.2-10.6-6.9-1 1.6c.2 1.2.5 2.4.7 3.6.3 1.2.5 2.4.8 3.5l1.1-1.6 10.5 6.8 6.8-10.5 10.5 6.8 6.8-10.5 10.5 6.8 6.8-10.5 10.5 6.8 6.8-10.5 10.5 6.8 6.8-10.5 10.5 6.8 6.8-10.5 10.5 6.8 6.8-10.5 3.3 2.1c.2-1.9.4-3.8.7-5.6l-5.6-3.6zM60.7 41.6c-.1.3-.3.7-.4 1l6.4 4.1 6.8-10.5L84 43.1l6.8-10.5 10.5 6.8 6.8-10.5 10.5 6.8 4.3-6.6c-1.3-1.1-2.7-2.1-4.3-2.8l-1.5 2.3-6.5-4.2c-1.9-.2-3.7-.3-5.6-.3l-1.2 1.9.1.1-4 6.2-10.5-6.8h-.1l-2.7 4.2.1.1-4 6.2-9-5.9c-1 .4-2 .9-3 1.3l-1.3 2 .1.1-4 6.2-2.5-1.6c-1.1 1.1-1.7 2.3-2.3 3.5zM47.5 78.8c-1.1 3.7-2 7.4-3 11.1l3.2-4.9 10.5 6.8L65 81.4l10.5 6.8 6.8-10.5 10.5 6.8L99.6 74l10.5 6.8 6.8-10.5 10.5 6.8 6.8-10.5 10.5 6.8 2.7-4.2c-.8-1.8-1.7-3.6-2.6-5.3l-1.6 2.5-10.6-6.9-2.8 4.3.1.1-4 6.2-10.6-6.9-2.8 4.3.1.1-4 6.2L98 66.9l-2.8 4.3.1.1-4 6.2-10.6-6.9-2.8 4.3.1.1-4 6.2-10.6-6.9-2.8 4.3.1.1-4 6.2-9.2-6.1zm-2.2 37.4l6.8-10.5 10.5 6.8 6.8-10.5 10.5 6.8 6.8-10.5 10.5 6.8 6.8-10.5 10.5 6.8 6.8-10.5 10.5 6.8 6.8-10.5 10.5 6.8 5.4-8.3c-.8-2-1.6-4-2.4-5.9l-.6.9.1.1-4 6.2-10.6-6.9-2.8 4.3.1.1-4 6.2-10.6-6.9-2.8 4.3.1.1-4 6.2-10.6-6.9-2.8 4.3.1.1-4 6.2-10.6-6.9-2.8 4.3.1.1-4 6.2L67.8 95 65 99.2l.1.1-4 6.2-10.6-6.9-2.8 4.3.1.1-4 6.2-3.1-2c-.3 1.8-.7 3.6-1 5.4l5.6 3.6zm8.5-45l6.8-10.5 10.5 6.8L77.9 57l10.5 6.8 6.8-10.5 10.5 6.8 6.8-10.5 10.5 6.8 6.8-10.5 8.1 5.3c-2-3.4-4-6.8-6.2-10.1l-3.5-2.3-2.8 4.3.1.1-4 6.2-10.6-6.9-2.8 4.3.1.1-4 6.2-10.6-6.9-2.8 4.3.1.1-4 6.2-10.6-6.9-2.8 4.3.1.1-4 6.2L59 53.6l-2.8 4.3.1.1-4 6.2-.1-.2c-.6 1.7-1.1 3.3-1.7 5l3.3 2.2zM35 171.9c0 2.1.1 4.1.1 6.2l6.1 4 6.8-10.5 10.5 6.8 6.8-10.5 10.5 6.8 6.8-10.5 10.5 6.8 6.8-10.5 10.5 6.8 6.8-10.5 10.5 6.8 6.8-10.5 10.5 6.8 6.8-10.5 10.5 6.8 6.8-10.5.3.2c-.1-1-.2-2.1-.4-3.1-.2-1.2-.3-2.4-.5-3.6l-1-.6-2.8 4.3.1.1-4 6.2-10.6-6.9-2.8 4.3.1.1-4 6.2-10.6-6.9-2.8 4.3.1.1-4 6.2-10.6-6.9-2.8 4.3.1.1-4 6.2-10.6-6.9-2.8 4.3.1.1-4 6.2-10.6-6.9-2.8 4.3.1.1-4 6.2-10.6-6.9-2.8 4.3.1.1-4 6.2-10.6-6.9-2.8 4.3.1.1-4 6.2-4.7-3.2zm.7 18.3c.1 2.1.3 4.3.5 6.4l9.4 6.1 6.8-10.5 10.5 6.8 6.8-10.5 10.5 6.8 6.8-10.5 10.5 6.8 6.8-10.5 10.5 6.8 6.8-10.5 10.5 6.8 6.8-10.5 10.5 6.8 6.8-10.5 10.5 6.8 4.4-6.7c-.1-3-.2-6-.4-9l-1.6 2.4.1.1-4 6.2-10.6-6.9-2.8 4.3.1.1-4 6.2-10.6-6.9-2.8 4.3.1.1-4 6.2-10.6-6.9-2.8 4.3.1.1-4 6.2-10.6-6.9-2.8 4.3.1.1-4 6.2-10.6-6.9-2.8 4.3.1.1-4 6.2-10.6-6.9-2.8 4.3.1.1-4 6.2-10.6-6.9-2.8 4.3.1.1-4 6.2-8.4-5.5zM50 223.4l6.8-10.5 10.5 6.8 6.8-10.5 10.5 6.8 6.8-10.5 10.5 6.8 6.8-10.5 10.5 6.8 6.8-10.5 10.5 6.8 6.8-10.5 10.5 6.8 6.8-10.5 9.5 6.2c.2-2.7.4-5.5.6-8.2l-1.1 1.8-10.6-6.9-2.8 4.3.1.1-4 6.2-10.6-6.9-2.8 4.3.1.1-4 6.2-10.6-6.9-2.8 4.3.1.1-4 6.2-10.6-6.9-2.8 4.3.1.1-4 6.2-10.6-6.9-2.8 4.3.1.1-4 6.2-10.6-6.9-2.8 4.3.1.1-4 6.2-10.6-6.9-2.8 4.3.1.1-4 6.2-10.6-6.9-.2.4c.3 2.6.7 5.2 1.1 7.8l.7-1.1 10.5 6.8z"/></g><g class="st3"><path class="st1" d="M120 382.6h-.1.1zm79.1 74.9l-2.8 4.3.1.1-4 6.2-10.6-6.9-2.8 4.3.1.1-4 6.2-10.6-6.9-2.8 4.3.1.1-4 6.2-10.6-6.9-2.8 4.3.1.1-4 6.2-10.6-6.9-2.8 4.3.1.1-2.6 4.1c1.4 1 2.8 2 4.2 2.9l2.7-4.2 10.5 6.8 6.8-10.5 10.5 6.8 6.8-10.5 10.5 6.8 6.8-10.5 10.5 6.8 6.8-10.5 3.5 2.3c.9-1.4 1.8-2.9 2.6-4.4l-7.7-5.1zm12.9-24.3l-2.8 4.3.1.1-4 6.2-10.6-6.9-2.8 4.3.1.1-4 6.2-10.6-6.9-2.8 4.3.1.1-4 6.2-10.6-6.9-2.8 4.3.1.1-4 6.2-10.6-6.9-2.8 4.3.1.1-4 6.2-10.6-6.9-2.8 4.3.1.1-4 6.2-10.6-6.9-1.5 2.3c.8 1.9 1.7 3.7 2.6 5.5l.5-.7 10.5 6.8 6.8-10.5 10.5 6.8 6.8-10.5 10.5 6.8 6.8-10.5 10.5 6.8 6.8-10.5 10.5 6.8 6.8-10.5 10.5 6.8 6.4-9.9c.2-2.3.2-4.5.1-6.9l-1.3-.8zm-100.5-5.5l6.8-10.5 10.5 6.9 6.8-10.5 10.5 6.8 6.8-10.5 10.5 6.8 6.8-10.5 10.5 6.8 6.8-10.5 10.4 6.9 5.5-8.5-.8-2.1.4-.2-1.6-4.2-1 1.6.1.1-4.1 6.2-10.5-6.9-2.8 4.3.1.1-4 6.2-10.6-6.9-2.8 4.3h.1l-4 6.3-10.6-6.9-2.8 4.3h.1l-4 6.2-10.6-6.8-2.8 4.2.1.1-4 6.2-10.6-6.9-2.8 4.3.1.1-4 6.2-10.6-6.9-1.3 2 1.3 7.6 1.6-2.5zm4.4 20.7l6.8-10.5 10.5 6.8 6.8-10.5 10.5 6.8 6.8-10.5 10.5 6.8 6.8-10.5 10.5 6.8 6.8-10.5 10.5 6.8 6.8-10.5 1.9 1.3c-.5-1.7-1.1-3.4-1.8-5.1l-1.2-2.9-.6-.4-2.8 4.3.1.1-4 6.2-10.6-6.9-2.8 4.3.1.1-4 6.2-10.6-6.9-2.8 4.3.1.1-4 6.2-10.6-6.9-2.8 4.3.1.1-4 6.2-10.6-6.9-2.8 4.3.1.1-4 6.2-10.6-6.9-2.8 4.3.1.1-4 6.2-10.6-6.9-1.9 3 1.3 7.6 2.2-3.4 10.6 6.7zm-8.8-41.4l6.8-10.5 10.5 6.9 6.8-10.5 10.5 6.8 6.8-10.5L159 396l6.8-10.5 10.5 6.8 6.8-10.5 10.4 6.9 3.7-5.6-2.3-6-2.9 4.5-10.5-6.9-2.8 4.3.1.1-4 6.2-10.6-6.9-2.8 4.3h.1l-4 6.3-10.6-6.9-2.8 4.3h.1l-4 6.2-10.6-6.8-2.8 4.2.1.1-4 6.2-10.6-6.9-2.8 4.3.1.1-4 6.2-10.6-6.9-.6 1 1.3 7.6.9-1.5z"/></g><circle class="st2" cx="123.7" cy="304.6" r="11.1"/><path class="st0" d="M354.5 505.3c-4.9 0-9.9-.5-14.8-1.6-38.2-8.1-62.6-45.8-54.5-84 .8-3.9 2-7.8 3.5-11.6l1.3-3.3h-.1l16.9-45.2c11.6-31 18-63.5 19-96.6l.2-4.8c.5-16.1-.3-32.3-2.3-48.1-3-22.7-2.9-45.8.1-68.6.9-6.9 2.1-13.8 3.5-20.6 7.5-35.5 21.9-68.3 42.7-97.7 6.3-8.8 16-14.6 26.8-15.9 3.7-.4 7.5-.6 11.2-.6 6.9 0 13.8.7 20.6 2.2 7.3 1.6 14.4 3.9 21.1 7 8.6 4 15.4 11.1 19.3 20.2 14.5 34.1 23.3 70.1 26.1 106.9 2.5 32.3.3 64.9-6.5 96.8-4.4 20.9-13.1 36.8-22.2 53.7-3.3 6-6.6 12.2-9.9 18.8-7.6 15.4-13.4 31.1-17.2 46.9v.1l-14.4 83.6-.7 3.5c-.2.9-.3 1.8-.5 2.8-6.9 32.6-36 56.1-69.2 56.1z"/><path class="st1" d="M408 2.7v8c6.6 0 13.2.7 19.8 2.1 7 1.5 13.8 3.8 20.2 6.7 7.7 3.6 13.8 10 17.3 18.1 14.4 33.7 23.1 69.2 25.8 105.6 2.4 31.9.3 64.1-6.4 95.7-4.3 20.3-12.8 36-21.8 52.6-3.3 6-6.7 12.3-10 19-7.7 15.6-13.6 31.7-17.5 47.7l-.1.3v.3l-13.7 79.9h-.1l-1.2 7.1c-.2 1-.3 1.8-.5 2.6-3.2 15.1-11.6 28.6-23.6 38.2-11.8 9.5-26.6 14.7-41.7 14.7-4.7 0-9.4-.5-14-1.5-17.5-3.7-32.4-14-42.1-29-9.7-15-13-32.8-9.3-50.3.8-3.7 1.9-7.4 3.3-11l2.7-6.7-.1-.1 15.6-41.9c11.7-31.4 18.2-64.3 19.3-97.9l.2-4.8c.5-16.3-.3-32.8-2.4-48.8-2.9-22.3-2.9-45.1.1-67.5.9-6.8 2.1-13.6 3.5-20.3 7.4-34.9 21.6-67.3 42-96.2 5.6-7.9 14.3-13.1 24-14.2 3.6-.4 7.2-.6 10.8-.6l-.1-7.8m0 0c-3.9 0-7.8.2-11.7.7-11.9 1.4-22.7 7.8-29.6 17.5-20.5 28.9-35.5 62.3-43.3 99.1-1.5 7-2.7 14-3.6 20.9-3.1 23.6-3 46.9-.1 69.6 2.1 15.7 2.8 31.6 2.3 47.5l-.2 4.8c-1 32.6-7.4 64.8-18.8 95.3l-18 48.6c-1.6 3.9-2.8 8-3.7 12.3-8.6 40.4 17.2 80.1 57.6 88.7 5.2 1.1 10.5 1.6 15.6 1.6 34.6 0 65.6-24.1 73.1-59.3.2-1 .4-2 .5-2.9h.1l14.9-87c3.8-15.9 9.6-31.3 16.9-46 12.6-25.3 26.3-44.6 32.5-73.5 7-33 9-65.9 6.6-97.9-2.9-37.7-12-74.2-26.5-108.2-4.2-9.8-11.6-17.8-21.3-22.3-6.9-3.2-14.2-5.7-21.9-7.3-7.1-1.5-14.3-2.2-21.4-2.2z"/><path class="st1" d="M428.2 10.2c7.1 1.5 14 3.8 20.4 6.8 7.8 3.6 14 10.1 17.5 18.3 14.5 34.1 23.3 70 26.1 106.8 2.5 32.3.3 64.8-6.5 96.7-4.4 20.5-13 36.4-22.1 53.2-3.3 6.1-6.7 12.4-10.1 19.2-7.8 15.8-13.8 32-17.7 48.2l-.1.3v.3l-13.9 80.8h-.1l-1.2 7.2c-.2 1-.3 1.8-.5 2.7-7.7 36.4-43.7 59.7-80.1 52-36.4-7.7-59.7-43.7-52-80.1.8-3.7 1.9-7.4 3.4-11.1l2.7-6.8-.2-.1 15.8-42.3c11.8-31.7 18.4-65 19.5-98.9l.2-4.9c.5-16.5-.3-33.1-2.4-49.3-2.9-22.6-2.9-45.5.1-68.2.9-6.9 2.1-13.8 3.5-20.5 7.5-35.3 21.8-68 42.5-97.2 5.7-8 14.5-13.2 24.2-14.4 10.4-1.4 20.8-.9 31 1.3m1.7-7.9C418.6-.1 407.3-.6 396.4.7c-12 1.4-22.9 7.9-29.9 17.7-20.7 29.2-35.9 63-43.8 100.2-1.5 7.1-2.7 14.1-3.6 21.1-3.1 23.8-3.1 47.4-.1 70.3 2.1 15.9 2.8 32 2.3 48l-.2 4.9c-1.1 32.9-7.5 65.5-19 96.3l-18.3 49c-1.6 4-2.9 8.1-3.8 12.4-8.7 40.8 17.4 81 58.2 89.6 40.8 8.7 81-17.4 89.6-58.2l.6-3h.1l15.1-88c3.9-16.1 9.7-31.7 17.1-46.5 12.7-25.6 26.6-45 32.8-74.3 7.1-33.4 9.1-66.6 6.6-99-2.9-38.1-12.1-75-26.7-109.3-4.2-9.9-11.8-18-21.5-22.5-6.8-3-14.2-5.5-22-7.1zM304 354.2l-1.8 5.1 1.8-5.1zm-20.1 54.1z"/><path class="st1" d="M322.4 315.2c17.2 14.3 38.3 24.4 60.9 29.2 19.3 4.1 38.6 4.3 57.4.5l8.2-1.6c-2 5.9-3.7 11.9-5.2 17.9 0-.2.1-.3.1-.5-20.3 4-42 4.1-64-.6-26.1-5.5-49.2-17.1-67.8-32.6 1.5-5.9 2.8-11.8 3.9-17.7l6.5 5.4zm-16.5 33.6c-.4 1.3-.9 2.6-1.3 3.8.4-1.3.9-2.5 1.3-3.8zm3.1-10.1c-.1.5-.3.9-.4 1.4.2-.5.3-1 .4-1.4zm-1.3 4.3c-.3 1-.6 2-1 3 .4-.9.7-2 1-3z"/><path class="st2" d="M323.4 359.9c16.1 9.3 33.8 16 52.3 20 14.6 3.1 29.2 4.4 43.7 3.9l-7.6 44h-.1l-3.1 17.9c-.1.8-.3 1.6-.4 2.2-6.4 29.9-35.8 49-65.7 42.7-29.9-6.4-49-35.8-42.7-65.7.6-3 1.6-6.1 2.8-9.1l6.8-17-.4-.2 12.1-32.3c.8-2.1 1.6-4.2 2.3-6.4m101.4-334c5.9 1.3 11.6 3.2 17 5.7 4.1 1.9 7.5 5.5 9.4 10 13.8 32.4 22.2 66.6 24.9 101.7 2.4 30.7.3 61.7-6.2 92.1-1.4 6.4-3.2 12.4-5.7 18.8-24.1 8.2-49.2 9.9-73 4.8-16.3-3.5-31.6-9.9-45.7-19.1-.3-11.1-1.2-22.1-2.6-33-2.8-21.2-2.7-42.7.1-64 .9-6.5 2-13 3.3-19.3 7-33.1 20.5-63.8 39.9-91.2 3-4.3 7.7-7.1 12.9-7.7 8.6-1 17.2-.6 25.7 1.2"/><g class="st3"><path class="st1" d="M347 229.4l3.9 6.3 10.6-6.9 2.8 4.3-.1.1 4 6.2 10.6-6.9 2.8 4.3-.1.1 4 6.2 10.6-6.9 2.8 4.3-.1.1 4 6.2 10.6-6.9 2.8 4.3-.1.1 4 6.2 10.6-6.9 2.8 4.3-.1.1 4 6.2 10.6-6.9 2.8 4.3-.1.1 3.7 5.6c-1.7.5-3.5.9-5.2 1.3l-2.7-4.1-9.8 6.4c-.3 0-.6.1-.9.1l-6.6-10.2-10.5 6.8-6.8-10.5-10.5 6.8-6.8-10.5-10.5 6.8-6.8-10.5-10.5 6.8L360 236l-10.2 6.6c-.3-.2-.5-.3-.8-.5l-3.6-5.5c-.1-3.5-.3-6.9-.5-10.4l2.1 3.2zm123-85.7l2.8 4.3-.1.1 4 6.2h.1c.1 2 .2 4 .2 5.9l-1.8 1.1-6.8-10.5-10.5 6.8-6.8-10.5-10.5 6.8-6.8-10.5-10.5 6.8-6.8-10.5-10.5 6.8-6.8-10.5-10.5 6.8-6.8-10.5-10.5 6.8-6.8-10.5-10.5 6.8-6.8-10.5-1.5 1c.2-.8.3-1.6.5-2.4.3-1.6.7-3.1 1-4.6l1.5-1 2.8 4.3-.1.1 4 6.2 10.6-6.9 2.8 4.3-.1.1 4 6.2 10.6-6.9 2.8 4.3-.1.1 4 6.2 10.6-6.9 2.8 4.3-.1.1 4 6.2 10.6-6.9 2.8 4.3-.1.1 4 6.2 10.6-6.9 2.8 4.3-.1.1 4 6.2 10.6-6.9 2.8 4.3-.1.1 4 6.2 10.7-7zm4-20.4c.5 3.5.9 7.1 1.3 10.6l-2.5-3.8-10.5 6.8-6.8-10.5-10.5 6.8-6.8-10.5-10.5 6.8-6.8-10.5-10.5 6.8-6.8-10.5-10.5 6.8-6.8-10.5-10.5 6.8-6.8-10.5-10.5 6.8-6.8-10.5-.6.4c.7-2.5 1.5-4.9 2.3-7.4l2.7 4.1-.1.1 4 6.2 10.6-6.9 2.8 4.3-.1.1 4 6.2 10.6-6.9 2.8 4.3-.1.1 4 6.2 10.6-6.9 2.8 4.3-.1.1 4 6.2 10.6-6.9 2.8 4.3-.1.1 4 6.2 10.6-6.9 2.8 4.3-.1.1 4 6.2 10.6-6.9 2.8 4.3-.1.1 4 6.2 10.2-6.5zm-125.3 81.2l2.8 4.3-.1.1 4 6.2 10.6-6.9 2.8 4.3-.1.1 4 6.2 10.6-6.9 2.8 4.3-.1.1 4 6.2 10.6-6.9 2.8 4.3-.1.1 4 6.2 10.6-6.9 2.8 4.3-.1.1 4 6.2 10.6-6.9 2.8 4.3-.1.1 4 6.2 10.6-6.9 2.8 4.3-.1.1 4 6.2 10.6-6.9 1 1.6c-.2 1.2-.5 2.4-.7 3.6-.3 1.2-.5 2.4-.8 3.5l-1.1-1.6-10.5 6.8-6.8-10.5-10.5 6.8-6.8-10.5-10.5 6.8-6.8-10.5-10.5 6.8-6.8-10.5-10.5 6.8-6.8-10.5-10.5 6.8-6.8-10.5-10.5 6.8-6.8-10.5-3.3 2.1c-.2-1.9-.4-3.8-.7-5.6l5.6-3.6zM451.3 41.6c.1.3.3.7.4 1l-6.4 4.1-6.8-10.5-10.5 6.9-6.8-10.5-10.5 6.8-6.8-10.4-10.5 6.8-4.3-6.6c1.3-1.1 2.7-2.1 4.3-2.8l1.5 2.3 6.5-4.2c1.9-.2 3.7-.3 5.6-.3l1.2 1.9-.1.1 4 6.2 10.5-6.8h.1l2.7 4.2-.1.1 4 6.2 9-5.9c1 .4 2 .9 3 1.3l1.3 2-.1.1 4 6.2 2.5-1.6c1.1 1 1.7 2.2 2.3 3.4zm13.2 37.2c1.1 3.7 2 7.4 3 11.1l-3.2-4.9-10.5 6.8-6.8-10.4-10.5 6.8-6.8-10.5-10.5 6.8-6.8-10.5-10.4 6.8-6.8-10.5-10.5 6.8-6.8-10.5-10.5 6.8-2.7-4.2c.8-1.8 1.7-3.6 2.6-5.3l1.6 2.5 10.6-6.9 2.8 4.3-.1.1 4 6.2 10.6-6.9 2.8 4.3-.1.1 4 6.2 10.6-6.9 2.8 4.3-.1.1 4 6.2 10.6-6.9 2.8 4.3-.1.1 4 6.2 10.6-6.9 2.8 4.3-.1.1 4 6.2 9.1-6.1zm2.2 37.4l-6.8-10.5-10.5 6.8-6.8-10.5-10.5 6.8-6.8-10.5-10.5 6.8-6.8-10.4-10.5 6.8-6.8-10.5-10.5 6.8-6.8-10.5-10.4 6.9-5.4-8.3c.8-2 1.6-4 2.4-5.9l.6.9-.1.1 4 6.2 10.6-6.9 2.8 4.3-.1.1 4 6.2 10.6-6.9 2.8 4.3-.1.1 4 6.2 10.6-6.9 2.8 4.3-.1.1 4 6.2 10.6-6.9 2.8 4.3-.1.1 4 6.2 10.6-6.9 2.8 4.3-.1.1 4 6.2 10.6-6.9 2.8 4.3-.1.1 4 6.2 3.1-2c.3 1.8.7 3.6 1 5.4l-5.7 3.4zm-8.5-45l-6.8-10.5-10.5 6.8-6.8-10.5-10.5 6.8-6.8-10.5-10.5 6.8-6.8-10.5-10.5 6.8-6.7-10.4-8.1 5.3c2-3.4 4-6.8 6.2-10.1l3.5-2.3 2.8 4.3-.1.1 4 6.2 10.6-6.9 2.8 4.3-.1.1 4 6.2 10.6-6.9 2.8 4.3-.1.1 4 6.2 10.6-6.9 2.8 4.3-.1.1 4 6.2 10.6-6.9 2.8 4.3-.1.1 4 6.2.1-.1c.6 1.7 1.1 3.3 1.7 5l-3.4 2zM477 171.9c0 2.1-.1 4.1-.1 6.2l-6.1 4-6.8-10.5-10.5 6.8-6.8-10.5-10.5 6.8-6.8-10.5-10.5 6.8-6.8-10.5-10.5 6.8-6.8-10.5-10.5 6.8-6.8-10.5-10.5 6.8-6.8-10.5-10.5 6.8-6.8-10.5-.3.2c.1-1 .2-2.1.4-3.1.2-1.2.3-2.4.5-3.6l1-.6 2.8 4.3-.1.1 4 6.2 10.6-6.9 2.8 4.3-.1.1 4 6.2 10.6-6.9 2.8 4.3-.1.1 4 6.2 10.6-6.9 2.8 4.3-.1.1 4 6.2 10.6-6.9 2.8 4.3-.1.1 4 6.2 10.6-6.9 2.8 4.3-.1.1 4 6.2 10.6-6.9 2.8 4.3-.1.1 4 6.2 10.6-6.9 2.8 4.3-.1.1 4 6.2 4.7-3.2zm-.7 18.3c-.1 2.1-.3 4.3-.5 6.4l-9.4 6.1-6.8-10.5-10.5 6.8-6.8-10.5-10.5 6.8-6.8-10.5-10.5 6.8-6.8-10.5-10.5 6.8-6.8-10.5-10.5 6.8-6.8-10.5-10.5 6.8-6.8-10.5-10.5 6.8-4.4-6.7c.1-3 .2-6 .4-9l1.6 2.4-.1.1 4 6.2 10.6-6.9 2.8 4.3-.1.1 4 6.2 10.6-6.9 2.8 4.3-.1.1 4 6.2 10.6-6.9 2.8 4.3-.1.1 4 6.2 10.6-6.9 2.8 4.3-.1.1 4 6.2 10.6-6.9 2.8 4.3-.1.1 4 6.2 10.6-6.9 2.8 4.3-.1.1 4 6.2 10.6-6.9 2.8 4.3-.1.1 4 6.2 8.4-5.5zM462 223.4l-6.8-10.5-10.5 6.8-6.8-10.5-10.5 6.8-6.8-10.5-10.5 6.8-6.8-10.5-10.5 6.8-6.8-10.5-10.5 6.8-6.8-10.5-10.5 6.8-6.8-10.5-9.5 6.2c-.2-2.7-.4-5.5-.6-8.2l1.1 1.8 10.6-6.9 2.8 4.3-.1.1 4 6.2 10.6-6.9 2.8 4.3-.1.1 4 6.2 10.6-6.9 2.8 4.3-.1.1 4 6.2 10.6-6.9 2.8 4.3-.1.1 4 6.2 10.6-6.9 2.8 4.3-.1.1 4 6.2 10.6-6.9 2.8 4.3-.1.1 4 6.2 10.6-6.9 2.8 4.3-.1.1 4 6.2 10.6-6.9.2.4c-.3 2.6-.7 5.2-1.1 7.8l-.7-1.1-10.5 6.8z"/></g><g class="st3"><path class="st1" d="M392 382.6h.1-.1zm-79.1 74.9l2.8 4.3-.1.1 4 6.2 10.6-6.9 2.8 4.3-.1.1 4 6.2 10.6-6.9 2.8 4.3-.1.1 4 6.2 10.6-6.9 2.8 4.3-.1.1 4 6.2 10.6-6.9 2.8 4.3-.1.1 2.6 4.1c-1.4 1-2.8 2-4.2 2.9l-2.7-4.2-10.5 6.8-6.8-10.5-10.5 6.8-6.8-10.5-10.5 6.8-6.8-10.5-10.5 6.8-6.8-10.5-3.5 2.3c-.9-1.4-1.8-2.9-2.6-4.4l7.7-5.1zM300 433.2l2.8 4.3-.1.1 4 6.2 10.6-6.9 2.8 4.3-.1.1 4 6.2 10.6-6.9 2.8 4.3-.1.1 4 6.2 10.6-6.9 2.8 4.3-.1.1 4 6.2 10.6-6.9 2.8 4.3-.1.1 4 6.2 10.6-6.9 2.8 4.3-.1.1 4 6.2 10.6-6.9 1.5 2.3c-.8 1.9-1.7 3.7-2.6 5.5l-.5-.7-10.5 6.8-6.8-10.5-10.5 6.8-6.8-10.5-10.5 6.8-6.8-10.5-10.5 6.8-6.8-10.5-10.5 6.8-6.8-10.5-10.5 6.8-6.4-9.9c-.2-2.3-.2-4.5-.1-6.9l1.3-.8zm100.5-5.5l-6.8-10.5-10.5 6.9-6.8-10.5-10.5 6.8-6.8-10.5-10.5 6.8-6.8-10.5-10.5 6.8-6.8-10.5-10.4 6.9-5.5-8.5.8-2.1-.4-.2 1.6-4.2 1 1.6-.1.1 4.1 6.2 10.5-6.9 2.8 4.3-.1.1 4 6.2 10.6-6.9 2.8 4.3h-.1l4 6.3 10.6-6.9 2.8 4.3h-.1l4 6.2 10.6-6.8 2.8 4.2-.1.1 4 6.2 10.6-6.9 2.8 4.3-.1.1 4 6.2 10.6-6.9 1.3 2-1.3 7.6-1.6-2.5zm-4.4 20.7l-6.8-10.5-10.5 6.8-6.8-10.5-10.5 6.8-6.8-10.5-10.5 6.8-6.8-10.5-10.5 6.8-6.8-10.5-10.5 6.8-6.8-10.5-1.9 1.3c.5-1.7 1.1-3.4 1.8-5.1l1.2-2.9.6-.4 2.8 4.3-.1.1 4 6.2 10.6-6.9 2.8 4.3-.1.1 4 6.2 10.6-6.9 2.8 4.3-.1.1 4 6.2 10.6-6.9 2.8 4.3-.1.1 4 6.2 10.6-6.9 2.8 4.3-.1.1 4 6.2 10.6-6.9 2.8 4.3-.1.1 4 6.2 10.6-6.9 1.9 3-1.3 7.6-2.2-3.4-10.6 6.7zm8.8-41.4l-6.8-10.5-10.5 6.9-6.8-10.5-10.5 6.8-6.8-10.5L353 396l-6.8-10.5-10.5 6.8-6.8-10.5-10.4 6.9-3.7-5.6 2.3-6 2.9 4.5 10.5-6.9 2.8 4.3-.1.1 4 6.2 10.6-6.9 2.8 4.3h-.1l4 6.3 10.6-6.9 2.8 4.3h-.1l4 6.2 10.6-6.8 2.8 4.2-.1.1 4 6.2 10.6-6.9 2.8 4.3-.1.1 4 6.2 10.6-6.9.6 1-1.3 7.6-.9-1.5z"/></g><circle class="st2" cx="388.3" cy="304.6" r="11.1"/></svg>