<svg version="1.1" xmlns="http://www.w3.org/2000/svg" x="0" y="0" viewBox="0 0 512 512" xml:space="preserve"><style type="text/css">.st0{fill:#36434f}.st5{fill:#122a3a}.st6{opacity:.3;fill:#121e28;enable-background:new}</style><path class="st0" d="M499.4 102.2c-19.6-4.1-38.8-9.7-57.6-16.7L384 63.7c-13.6-5.1-26.2-12.5-37.3-21.8l6.6 9.7 2.8 115.6-33.8 109.2-36.2 76.7h-60.5l-36.2-76.7-33.8-109.2 3.1-115.6 6.6-9.6c-11.1 9.3-23.7 16.6-37.3 21.7L70.1 85.4c-18.7 7-38 12.6-57.6 16.7-4.6 1-7.4 5.7-6 10.2L48 246.1c10.7 34.5 17.7 70 20.9 106L83 512h346l14.2-159.9c3.2-36 10.2-71.5 20.9-106l41.4-133.7c1.3-4.5-1.5-9.2-6.1-10.2z"/><path d="M353.3 51.6 318 0v16.6c0 8.6-3.1 17-8.7 23.5L256 102l-53.3-61.9c-5.6-6.5-8.7-14.9-8.7-23.5V0l-35.3 51.6-3.1 115.6 33.8 109.2 36.2 76.7h60.5l36.2-76.7 33.8-109.2-2.8-115.6z" fill="#ddd"/><path d="m291.5 353-2.2-97.6c-.2-8.2-1.2-16.4-2.9-24.5L268 147v-14l14.4-46.8c.8-2.6-1.1-5.2-3.8-5.2h-.3c-6.7 3.2-14.3 5-22.3 5s-15.5-1.8-22.3-5h-.3c-2.7 0-4.6 2.6-3.8 5.2L244 133v14l-18.4 83.9c-1.8 8-2.7 16.2-2.9 24.5l-2.2 97.6h71z" fill="#cc584c"/><path d="M237.8 175.2 268 145v2l.9 4.2-33.1 33.1 2-9.1zm37.4-65.7L244 140.8v6.2l-.2 1.1 28.3-28.3 3.1-10.3zM268 133l.9-3-27.1 27.1-2 9.1L268 138v-5zm-36.1 69.4 39.6-39.6-1.3-5.8-36.3 36.3-2 9.1zm8.9-79.7 40.6-40.6c-.7-.7-1.7-1.2-2.8-1.2h-.3c-1.5.7-3.1 1.4-4.7 2l-34.3 34.3 1.5 5.5zm40.7-33.6-39 39 1.5 4.9v.7l34.4-34.4 3.1-10.2zm-44 22.8L264 85.4c-2.5.4-5.1.6-7.7.6l-20.5 20.5 1.7 5.4zm54 241.1-.1-5-5 5h5.1zm-54.7 0 53.4-53.4-.2-6.9-60.2 60.3h7zm42.4 0 12-12-.2-6.9-18.8 18.9h7zm-28.2 0 39.6-39.6-.2-6.9-46.5 46.5h7.1zm14.1 0 25.8-25.8-.2-6.9L258 353h7.1zm24.2-97.6c0-1.4-.1-2.8-.2-4.2L221.3 319l-.2 7.2 68.2-68.2v-2.6zm-6.4-40.4-60.6 60.6-.2 7.2 62-62-1.2-5.8zm4.9 23.4-66.1 66.1-.2 7.2 67.1-67.1c-.2-2-.5-4.1-.8-6.2zm-1.4-7.5-.9-4.3-63.5 63.5-.2 7.2 64.9-64.9-.3-1.5zM222.7 353l67.3-67.3-.2-6.9-69.2 69.2-.1 5h2.2zm66.8-88L221 333.5l-.2 7.2 68.8-68.8-.1-6.9zm-14.2-84.8L226 229.5l-.3 1.4c-.5 2.4-1 4.9-1.4 7.4l52.3-52.3-1.3-5.8zm-44.4-89.9 7.4-7.4c-1.5-.6-3-1.2-4.5-1.9h-.7l-3.6 3.6c0 .5 0 1 .2 1.6l1.2 4.1zm49.4 113.1-57.7 57.7-.2 7.2 59.2-59.2-1.3-5.7zm-7.6-34.8-42.8 42.8-2 9.1 46.1-46.1-1.3-5.8zm5.1 23.2-54.6 54.6c-.2 2.5-.4 5-.5 7.5l56.3-56.3-1.2-5.8zm-43.6-90.7 15.5-15.5c-2-.2-4-.6-6-1.1l-11.2 11.2 1.7 5.4z" fill="#ad403b"/><path opacity=".15" fill="#444" d="M244 133h24v14h-24z"/><path class="st5" d="M229.5 430c-4.1 0-7.5 3.4-7.5 7.5s3.4 7.5 7.5 7.5 7.5-3.4 7.5-7.5-3.4-7.5-7.5-7.5zm-1.5 9.8c-.5 0-.8-.4-.8-.8s.4-.8.8-.8.8.4.8.8-.3.8-.8.8zm0-2.9c-.5 0-.8-.4-.8-.8s.4-.8.8-.8.8.4.8.8-.3.8-.8.8zm3 2.9c-.5 0-.8-.4-.8-.8s.4-.8.8-.8.8.4.8.8-.4.8-.8.8zm0-2.9c-.5 0-.8-.4-.8-.8s.4-.8.8-.8.8.4.8.8-.4.8-.8.8z"/><path class="st6" d="M231 437.8c-.6 0-1.1.5-1.1 1.1s.5 1.1 1.1 1.1 1.1-.5 1.1-1.1-.5-1.1-1.1-1.1zm0 2c-.5 0-.8-.4-.8-.8 0-.5.4-.8.8-.8s.8.4.8.8-.4.8-.8.8zm0-4.9c-.6 0-1.1.5-1.1 1.1s.5 1.1 1.1 1.1 1.1-.5 1.1-1.1-.5-1.1-1.1-1.1zm0 2c-.5 0-.8-.4-.8-.8s.4-.8.8-.8.8.4.8.8-.4.8-.8.8zm-3 .9c-.6 0-1.1.5-1.1 1.1s.5 1.1 1.1 1.1 1.1-.5 1.1-1.1-.4-1.1-1.1-1.1zm0 2c-.5 0-.8-.4-.8-.8 0-.5.4-.8.8-.8s.8.4.8.8c.1.4-.3.8-.8.8zm0-4.9c-.6 0-1.1.5-1.1 1.1s.5 1.1 1.1 1.1 1.1-.5 1.1-1.1-.4-1.1-1.1-1.1zm0 2c-.5 0-.8-.4-.8-.8s.4-.8.8-.8.8.4.8.8-.3.8-.8.8z"/><path class="st6" d="M237 437.1v-.8c0-.1 0-.2-.1-.4 0-.1-.1-.2-.1-.4-.3-1.1-.8-2.1-1.5-2.9l-.1-.1c-.1-.1-.2-.2-.2-.3s-.2-.2-.3-.3c-.1-.1-.2-.2-.3-.2l-.1-.1c-.8-.7-1.8-1.2-2.9-1.5-.1 0-.2-.1-.4-.1-.1 0-.2 0-.4-.1h-1.2c-.4 0-.8 0-1.1.1-.1 0-.2 0-.4.1-.1 0-.2.1-.4.1-.1 0-.2.1-.4.1-.5.2-1 .4-1.5.7-.1.1-.2.1-.3.2s-.2.1-.3.2-.3.2-.4.3c-.2.2-.5.4-.7.6-.1.1-.2.2-.2.3-.1.1-.2.3-.3.4-.6.8-1 1.7-1.3 2.6 0 .1-.1.2-.1.4 0 .1 0 .2-.1.4v1.2c0 4.1 3.4 7.5 7.5 7.5h1.2c.1 0 .2 0 .4-.1.1 0 .2-.1.4-.1 1-.2 1.8-.7 2.6-1.3.1-.1.3-.2.4-.3.1-.1.2-.2.3-.2.2-.2.4-.4.6-.7.1-.1.2-.3.3-.4s.1-.2.2-.3.1-.2.2-.3c.3-.5.5-1 .7-1.5 0-.1.1-.2.1-.4 0-.1.1-.2.1-.4 0-.1 0-.2.1-.4.1-.4.1-.8.1-1.1-.1-.2-.1-.4-.1-.5zm-7.5 6.5c-3.4 0-6.1-2.7-6.1-6.1s2.7-6.1 6.1-6.1 6.1 2.7 6.1 6.1-2.7 6.1-6.1 6.1z"/><path class="st5" d="M319.5 430c-4.1 0-7.5 3.4-7.5 7.5s3.4 7.5 7.5 7.5 7.5-3.4 7.5-7.5-3.4-7.5-7.5-7.5zm-1.5 9.8c-.5 0-.8-.4-.8-.8s.4-.8.8-.8.8.4.8.8-.3.8-.8.8zm0-2.9c-.5 0-.8-.4-.8-.8s.4-.8.8-.8.8.4.8.8-.3.8-.8.8zm3 2.9c-.5 0-.8-.4-.8-.8s.4-.8.8-.8.8.4.8.8-.4.8-.8.8zm0-2.9c-.5 0-.8-.4-.8-.8s.4-.8.8-.8.8.4.8.8-.4.8-.8.8z"/><path class="st6" d="M321 437.8c-.6 0-1.1.5-1.1 1.1s.5 1.1 1.1 1.1 1.1-.5 1.1-1.1-.5-1.1-1.1-1.1zm0 2c-.5 0-.8-.4-.8-.8 0-.5.4-.8.8-.8.5 0 .8.4.8.8s-.4.8-.8.8zm0-4.9c-.6 0-1.1.5-1.1 1.1s.5 1.1 1.1 1.1 1.1-.5 1.1-1.1-.5-1.1-1.1-1.1zm0 2c-.5 0-.8-.4-.8-.8s.4-.8.8-.8c.5 0 .8.4.8.8s-.4.8-.8.8zm-3 .9c-.6 0-1.1.5-1.1 1.1s.5 1.1 1.1 1.1 1.1-.5 1.1-1.1-.4-1.1-1.1-1.1zm0 2c-.5 0-.8-.4-.8-.8 0-.5.4-.8.8-.8s.8.4.8.8c.1.4-.3.8-.8.8zm0-4.9c-.6 0-1.1.5-1.1 1.1s.5 1.1 1.1 1.1 1.1-.5 1.1-1.1-.4-1.1-1.1-1.1zm0 2c-.5 0-.8-.4-.8-.8s.4-.8.8-.8.8.4.8.8-.3.8-.8.8z"/><path class="st6" d="M327 437.1v-.8c0-.1 0-.2-.1-.4 0-.1-.1-.2-.1-.4-.3-1.1-.8-2.1-1.5-2.9l-.1-.1c-.1-.1-.2-.2-.2-.3s-.2-.2-.3-.3-.2-.2-.3-.2l-.1-.1c-.8-.7-1.8-1.2-2.9-1.5-.1 0-.2-.1-.4-.1-.1 0-.2 0-.4-.1h-1.2c-.4 0-.8 0-1.1.1-.1 0-.2 0-.4.1-.1 0-.2.1-.4.1-.1 0-.2.1-.4.1-.5.2-1 .4-1.5.7-.1.1-.2.1-.3.2s-.2.1-.3.2c-.1.1-.3.2-.4.3-.2.2-.5.4-.7.6-.1.1-.2.2-.2.3-.1.1-.2.3-.3.4-.6.8-1 1.7-1.3 2.6 0 .1-.1.2-.1.4 0 .1 0 .2-.1.4v1.2c0 4.1 3.4 7.5 7.5 7.5h1.2c.1 0 .2 0 .4-.1.1 0 .2-.1.4-.1 1-.2 1.8-.7 2.6-1.3.1-.1.3-.2.4-.3.1-.1.2-.2.3-.2.2-.2.4-.4.6-.7.1-.1.2-.3.3-.4.1-.1.1-.2.2-.3s.1-.2.2-.3c.3-.5.5-1 .7-1.5 0-.1.1-.2.1-.4 0-.1.1-.2.1-.4 0-.1 0-.2.1-.4.1-.4.1-.8.1-1.1-.1-.2-.1-.4-.1-.5zm-7.5 6.5c-3.4 0-6.1-2.7-6.1-6.1s2.7-6.1 6.1-6.1 6.1 2.7 6.1 6.1-2.7 6.1-6.1 6.1z"/><path class="st5" d="M391 310c-4.1 0-7.5 3.4-7.5 7.5s3.4 7.5 7.5 7.5 7.5-3.4 7.5-7.5-3.4-7.5-7.5-7.5zm-1.5 9.8c-.5 0-.8-.4-.8-.8s.4-.8.8-.8.8.4.8.8-.3.8-.8.8zm0-2.9c-.5 0-.8-.4-.8-.8s.4-.8.8-.8.8.4.8.8-.3.8-.8.8zm3 2.9c-.5 0-.8-.4-.8-.8s.4-.8.8-.8.8.4.8.8-.4.8-.8.8zm0-2.9c-.5 0-.8-.4-.8-.8s.4-.8.8-.8.8.4.8.8-.4.8-.8.8z"/><path class="st6" d="M392.5 317.8c-.6 0-1.1.5-1.1 1.1s.5 1.1 1.1 1.1 1.1-.5 1.1-1.1-.5-1.1-1.1-1.1zm0 2c-.5 0-.8-.4-.8-.8 0-.5.4-.8.8-.8.5 0 .8.4.8.8s-.4.8-.8.8zm0-4.9c-.6 0-1.1.5-1.1 1.1s.5 1.1 1.1 1.1 1.1-.5 1.1-1.1-.5-1.1-1.1-1.1zm0 2c-.5 0-.8-.4-.8-.8s.4-.8.8-.8c.5 0 .8.4.8.8s-.4.8-.8.8zm-3 .9c-.6 0-1.1.5-1.1 1.1s.5 1.1 1.1 1.1 1.1-.5 1.1-1.1-.4-1.1-1.1-1.1zm0 2c-.5 0-.8-.4-.8-.8 0-.5.4-.8.8-.8s.8.4.8.8c.1.4-.3.8-.8.8zm0-4.9c-.6 0-1.1.5-1.1 1.1s.5 1.1 1.1 1.1 1.1-.5 1.1-1.1-.4-1.1-1.1-1.1zm0 2c-.5 0-.8-.4-.8-.8s.4-.8.8-.8.8.4.8.8-.3.8-.8.8z"/><path class="st6" d="M398.5 317.1v-.8c0-.1 0-.2-.1-.4 0-.1-.1-.2-.1-.4-.3-1.1-.8-2.1-1.5-2.9l-.1-.1c-.1-.1-.2-.2-.2-.3s-.2-.2-.3-.3-.2-.2-.3-.2l-.1-.1c-.8-.7-1.8-1.2-2.9-1.5-.1 0-.2-.1-.4-.1-.1 0-.2 0-.4-.1h-1.2c-.4 0-.8 0-1.1.1-.1 0-.2 0-.4.1-.1 0-.2.1-.4.1-.1 0-.2.1-.4.1-.5.2-1 .4-1.5.7-.1.1-.2.1-.3.2s-.2.1-.3.2c-.1.1-.3.2-.4.3-.2.2-.5.4-.7.6-.1.1-.2.2-.2.3-.1.1-.2.3-.3.4-.6.8-1 1.7-1.3 2.6 0 .1-.1.2-.1.4 0 .1 0 .2-.1.4v1.2c0 4.1 3.4 7.5 7.5 7.5h1.2c.1 0 .2 0 .4-.1.1 0 .2-.1.4-.1 1-.2 1.8-.7 2.6-1.3.1-.1.3-.2.4-.3.1-.1.2-.2.3-.2.2-.2.4-.4.6-.7.1-.1.2-.3.3-.4.1-.1.1-.2.2-.3s.1-.2.2-.3c.3-.5.5-1 .7-1.5 0-.1.1-.2.1-.4 0-.1.1-.2.1-.4 0-.1 0-.2.1-.4.1-.4.1-.8.1-1.1-.1-.2-.1-.4-.1-.5zm-7.5 6.5c-3.4 0-6.1-2.7-6.1-6.1s2.7-6.1 6.1-6.1 6.1 2.7 6.1 6.1-2.7 6.1-6.1 6.1z"/><path class="st5" d="M158 310c-4.1 0-7.5 3.4-7.5 7.5s3.4 7.5 7.5 7.5 7.5-3.4 7.5-7.5-3.4-7.5-7.5-7.5zm-1.5 9.8c-.5 0-.8-.4-.8-.8s.4-.8.8-.8.8.4.8.8-.3.8-.8.8zm0-2.9c-.5 0-.8-.4-.8-.8s.4-.8.8-.8.8.4.8.8-.3.8-.8.8zm3 2.9c-.5 0-.8-.4-.8-.8s.4-.8.8-.8.8.4.8.8-.4.8-.8.8zm0-2.9c-.5 0-.8-.4-.8-.8s.4-.8.8-.8.8.4.8.8-.4.8-.8.8z"/><path class="st6" d="M159.5 317.8c-.6 0-1.1.5-1.1 1.1s.5 1.1 1.1 1.1 1.1-.5 1.1-1.1-.5-1.1-1.1-1.1zm0 2c-.5 0-.8-.4-.8-.8 0-.5.4-.8.8-.8s.8.4.8.8-.4.8-.8.8zm0-4.9c-.6 0-1.1.5-1.1 1.1s.5 1.1 1.1 1.1 1.1-.5 1.1-1.1-.5-1.1-1.1-1.1zm0 2c-.5 0-.8-.4-.8-.8s.4-.8.8-.8.8.4.8.8-.4.8-.8.8zm-3 .9c-.6 0-1.1.5-1.1 1.1s.5 1.1 1.1 1.1 1.1-.5 1.1-1.1-.4-1.1-1.1-1.1zm0 2c-.5 0-.8-.4-.8-.8 0-.5.4-.8.8-.8s.8.4.8.8c.1.4-.3.8-.8.8zm0-4.9c-.6 0-1.1.5-1.1 1.1s.5 1.1 1.1 1.1 1.1-.5 1.1-1.1-.4-1.1-1.1-1.1zm0 2c-.5 0-.8-.4-.8-.8s.4-.8.8-.8.8.4.8.8-.3.8-.8.8z"/><path class="st6" d="M165.5 317.1v-.8c0-.1 0-.2-.1-.4 0-.1-.1-.2-.1-.4-.3-1.1-.8-2.1-1.5-2.9l-.1-.1c-.1-.1-.2-.2-.2-.3s-.2-.2-.3-.3c-.1-.1-.2-.2-.3-.2l-.1-.1c-.8-.7-1.8-1.2-2.9-1.5-.1 0-.2-.1-.4-.1-.1 0-.2 0-.4-.1h-1.2c-.4 0-.8 0-1.1.1-.1 0-.2 0-.4.1-.1 0-.2.1-.4.1-.1 0-.2.1-.4.1-.5.2-1 .4-1.5.7-.1.1-.2.1-.3.2s-.2.1-.3.2-.3.2-.4.3c-.2.2-.5.4-.7.6-.1.1-.2.2-.2.3-.1.1-.2.3-.3.4-.6.8-1 1.7-1.3 2.6 0 .1-.1.2-.1.4 0 .1 0 .2-.1.4v1.2c0 4.1 3.4 7.5 7.5 7.5h1.2c.1 0 .2 0 .4-.1.1 0 .2-.1.4-.1 1-.2 1.8-.7 2.6-1.3.1-.1.3-.2.4-.3.1-.1.2-.2.3-.2.2-.2.4-.4.6-.7.1-.1.2-.3.3-.4s.1-.2.2-.3.1-.2.2-.3c.3-.5.5-1 .7-1.5 0-.1.1-.2.1-.4 0-.1.1-.2.1-.4 0-.1 0-.2.1-.4.1-.4.1-.8.1-1.1-.1-.2-.1-.4-.1-.5zm-7.5 6.5c-3.4 0-6.1-2.7-6.1-6.1s2.7-6.1 6.1-6.1 6.1 2.7 6.1 6.1-2.7 6.1-6.1 6.1z"/><path class="st0" d="M187.8 214.2c-6.5-12.7-10.8-26.4-12.8-40.6L162 80l3.6-38.2c-10 8.4-21.3 15.2-33.4 20.3L88 119l72.5 161.7c6.3 14.1 15.1 26.9 26 37.8l60.9 61.4 15.6-18.4-75.2-147.3z"/><path class="st0" d="M379.8 62.1c-12.1-5.1-23.4-11.9-33.4-20.3L350 80l-13 93.6c-2 14.1-6.3 27.9-12.8 40.6L213 432l112.6-113.5c10.9-10.9 19.6-23.8 26-37.8L424 119l-44.2-56.9z"/></svg>