<svg version="1.1" xmlns="http://www.w3.org/2000/svg" x="0" y="0" viewBox="0 0 512 512" xml:space="preserve"><style type="text/css">.st0{fill:#ffa000}.st3{fill:#2e86b7;stroke:#ddd;stroke-width:5;stroke-miterlimit:10}.st4{fill:#ddd}.st5{opacity:.1;fill:#fff}</style><circle class="st0" cx="24.9" cy="264.4" r="8.4"/><circle class="st0" cx="487.1" cy="264.4" r="8.4"/><path d="M394.4 305.5c4.9-11.6 7.6-24.1 7.6-37 0-64.1-65.4-116-146-116s-146 51.9-146 116c0 12.9 2.7 25.4 7.6 37h276.8z" fill="#3aaf9d"/><path d="M17.5 274.4c-23.3 7.6-23.3 40.6 0 48.2 72.6 23.7 153.4 36.9 238.5 36.9s165.9-13.2 238.5-36.9c23.3-7.6 23.3-40.6 0-48.2-72.6-23.7-153.4-36.9-238.5-36.9S90.1 250.7 17.5 274.4z" fill="#038387"/><circle class="st3" cx="256" cy="298.5" r="31"/><circle class="st4" cx="256" cy="258.5" r="2.5"/><circle class="st4" cx="256" cy="338.5" r="2.5"/><circle class="st4" cx="236" cy="263.9" r="2.5"/><circle class="st4" cx="276" cy="333.1" r="2.5"/><circle class="st4" cx="221.4" cy="278.5" r="2.5"/><circle class="st4" cx="290.6" cy="318.5" r="2.5"/><circle class="st4" cx="216" cy="298.5" r="2.5"/><circle class="st4" cx="296" cy="298.5" r="2.5"/><circle class="st4" cx="221.4" cy="318.5" r="2.5"/><circle class="st4" cx="290.6" cy="278.5" r="2.5"/><circle class="st4" cx="236" cy="333.1" r="2.5"/><circle class="st4" cx="276" cy="263.9" r="2.5"/><path class="st5" d="M280.6 279.6l-50.7 35.5c4.8 7.5 12.8 12.9 22.1 14.1l34.5-36.5c-.9-4.8-3-9.3-5.9-13.1z"/><path class="st4" d="M256 332c-18.5 0-33.5-15-33.5-33.5s15-33.5 33.5-33.5 33.5 15 33.5 33.5-15 33.5-33.5 33.5zm0-62c-15.7 0-28.5 12.8-28.5 28.5S240.3 327 256 327s28.5-12.8 28.5-28.5S271.7 270 256 270z"/><circle class="st3" cx="376" cy="298.5" r="27.9"/><circle class="st4" cx="376" cy="262.5" r="2.3"/><circle class="st4" cx="376" cy="334.5" r="2.3"/><circle class="st4" cx="358" cy="267.3" r="2.3"/><circle class="st4" cx="394" cy="329.7" r="2.3"/><circle class="st4" cx="344.8" cy="280.5" r="2.3"/><circle class="st4" cx="407.2" cy="316.5" r="2.3"/><circle class="st4" cx="340" cy="298.5" r="2.3"/><circle class="st4" cx="412" cy="298.5" r="2.3"/><circle class="st4" cx="344.8" cy="316.5" r="2.3"/><circle class="st4" cx="407.2" cy="280.5" r="2.3"/><circle class="st4" cx="358" cy="329.7" r="2.3"/><circle class="st4" cx="394" cy="267.3" r="2.3"/><path class="st5" d="M398.1 281.5l-45.6 32c4.3 6.8 11.5 11.6 19.9 12.7l31-32.8c-.8-4.4-2.7-8.5-5.3-11.9z"/><path class="st4" d="M376 328.6c-16.6 0-30.1-13.5-30.1-30.1s13.5-30.1 30.1-30.1 30.1 13.5 30.1 30.1-13.5 30.1-30.1 30.1zm0-55.7c-14.1 0-25.6 11.5-25.6 25.6s11.5 25.6 25.6 25.6 25.6-11.5 25.6-25.6-11.5-25.6-25.6-25.6z"/><circle class="st3" cx="136" cy="298.5" r="27.9"/><circle class="st4" cx="136" cy="262.5" r="2.3"/><circle class="st4" cx="136" cy="334.5" r="2.3"/><circle class="st4" cx="118" cy="267.3" r="2.3"/><circle class="st4" cx="154" cy="329.7" r="2.3"/><circle class="st4" cx="104.8" cy="280.5" r="2.3"/><circle class="st4" cx="167.2" cy="316.5" r="2.3"/><circle class="st4" cx="100" cy="298.5" r="2.3"/><circle class="st4" cx="172" cy="298.5" r="2.3"/><circle class="st4" cx="104.8" cy="316.5" r="2.3"/><circle class="st4" cx="167.2" cy="280.5" r="2.3"/><circle class="st4" cx="118" cy="329.7" r="2.3"/><circle class="st4" cx="154" cy="267.3" r="2.3"/><path class="st5" d="M158.1 281.5l-45.6 32c4.3 6.8 11.5 11.6 19.9 12.7l31-32.8c-.8-4.4-2.7-8.5-5.3-11.9z"/><path class="st4" d="M136 328.6c-16.6 0-30.2-13.5-30.2-30.1s13.5-30.1 30.2-30.1c16.6 0 30.1 13.5 30.1 30.1s-13.5 30.1-30.1 30.1zm0-55.7c-14.1 0-25.7 11.5-25.7 25.6s11.5 25.6 25.7 25.6 25.6-11.5 25.6-25.6-11.5-25.6-25.6-25.6z"/><path d="M358.9 231.1c-2.2 0-4.3-.9-5.9-2.6-9.4-10.2-20.8-18.9-34-26-3.9-2.1-5.3-6.9-3.3-10.8 2.1-3.9 7-5.3 10.8-3.3 14.8 8 27.6 17.8 38.2 29.3 3 3.3 2.8 8.3-.5 11.3-1.4 1.4-3.4 2.1-5.3 2.1z" opacity=".5" fill="#fff"/></svg>