<svg version="1.1" xmlns="http://www.w3.org/2000/svg" x="0" y="0" viewBox="0 0 512 512" xml:space="preserve"><style type="text/css">.st0{fill:#999}.st1{fill:#ffa000}.st2{fill:#bbb}.st3{fill:#36434f}</style><path class="st0" d="M419.6 369.6c-51.2-24-71.2-36.4-114.9-63.7-11.6-7.2-24.7-15.4-40.6-25.1-68-41.7-123.5-70.2-148.7-76.2l7-29.2c28.9 6.9 84.7 35.3 157.3 79.8 16 9.8 29.1 18 40.8 25.2 42.7 26.6 62.1 38.7 111.8 62l-12.7 27.2z"/><path class="st1" d="M509 256c0-1.1-.9-2-2-2h-34c-1.1 0-2-.2-2-.5s-.9-.5-2-.5h-13c-1.1 0-2 .2-2 .5s-.9.5-2 .5H188c-1.1 0-2 .9-2 2s.9 2 2 2h264c1.1 0 2 .2 2 .5s.9.5 2 .5h13c1.1 0 2-.2 2-.5s.9-.5 2-.5h34c1.1 0 2-.9 2-2z"/><path class="st2" d="M193.3 272c0 1-3.3 24-10.3 43s-16 25-22 31-37 10-37 10l57 10 54-12s-36 5-44 3-11-16-6-28 10-28 21-40 45-26 45-26l-9-2s-20 9-26 11-11 2-14 2-8.7-2-8.7-2z"/><circle class="st1" cx="509.5" cy="256" r="2.5"/><path class="st2" d="M242 249h30v14h-30zm107-93s4 2 5 5 0 15-3 20-25 41-25 41v68l24 14s-6-10-8-15-4-11-4-13v-51c0-3 2-13 6-20s21-30 28-33 38-7 38-7l-61-9z"/><path class="st2" d="M263.9 249s35.1-13 38.1-15 14-9 19-14l19-19-10 37v5s-5-5-7-6-18 1-22 2-31 16-31 16l-6.1-6zM376 277s-10 0-17-2-25-12-25-12v9s14 7 15 8 2 2 3 4 0 10 0 10l26-16-2-1z"/><path class="st2" d="M272 261s26 2 32 4 26 7 26 7v-21s-13 7-21 7-37-4-37-4v7zm-62.2 97.3c-6 .4-12.1.7-18.3.7-25.5 0-50.1-3.8-73.2-11l-15.4 11.4c24.7 8.1 50.3 12.5 76.6 12.5 8.5 0 16.9-.3 25.3-1l5-12.6z"/><path class="st3" d="M426.6 221.4C354.7 305.5 251.4 364 147.5 364c-12.2 0-24.3-.7-36.2-1.9 22 6.4 44.8 9.9 68.2 9.9 99.1 0 192.8-46.4 260.3-117.7l-13.2-32.9z"/><path class="st2" d="M244 249s-16.7-4.2-28.5-8-28-9-28-9v11.7l31.7 5.3 22.8 4 2-4zm-.6 7h-51.3v-9.4s19.7 3.9 27.3 4.7S244 254 244 254l-.6 2z"/><path class="st3" d="M196.9 234.9c-6.9-2.7-19.3-6.9-26.9-6.9-7.9 0-21.9 5.6-29.2 8.8-2.9 1.3-4.8 4.1-4.8 7.3v23.6c0 3.2 1.9 6.1 4.8 7.3 7.3 3.2 21.3 8.8 29.2 8.8 7.6 0 19.9-4.3 26.9-6.9 3.1-1.2 5.1-4.2 5.1-7.5v-27c0-3.3-2-6.3-5.1-7.5z"/><ellipse class="st0" cx="136.5" cy="256" rx="4.5" ry="26"/><ellipse class="st0" cx="125" cy="256" rx="3" ry="24"/><path class="st0" d="M136.5 230l-11.5 2v48l11.5 2z"/><path class="st0" d="M28.8 241.1s29.5-1 49.3-2.7c19.8-1.7 52.6-7.3 52.6-7.3v13.5s-18.4-2.4-53.4 0-49.2 3.4-49.2 3.4l.7-6.9zm0 29.8s29.5 1 49.3 2.7c19.8 1.7 52.6 7.3 52.6 7.3v-13.5s-18.4 2.4-53.4 0-49.2-3.4-49.2-3.4l.7 6.9z"/><path class="st2" d="M95.3 242.1C152.5 189.3 229 157 313 157c39.2 0 76.7 7 111.4 19.9l15.1-9.4C397.6 148.5 351 138 302 138c-79.7 0-152.9 27.8-210.4 74.3l3.7 29.8z"/><path class="st3" d="M330 151c37.6 0 73.7 6.3 107.3 17.8l2.2-1.4C397.6 148.5 351 138 302 138c-79.7 0-152.9 27.8-210.4 74.3l4.4 35.6C155.9 188 238.6 151 330 151z"/><path class="st2" d="M272 263l54 27 1.2-17.5s-20.7.6-29-4C289.8 263.9 272 254 272 254v9z"/><path class="st1" d="M183.6 250.7c-3.6-.7-10.1-1.7-14.1-1.7-4.1 0-11.4 1.4-15.3 2.2-1.5.3-2.5 1-2.5 1.8v5.9c0 .8 1 1.5 2.5 1.8 3.8.8 11.2 2.2 15.3 2.2 4 0 10.4-1.1 14.1-1.7 1.6-.3 2.7-1 2.7-1.9v-6.7c0-.8-1.1-1.6-2.7-1.9z"/><path class="st3" d="M148.1 254h39.4v3.9h-39.4z"/><path d="M1 251.6L0 256l1 4.4c1.1 4.9 4.5 8.9 9 11 .5.2.8.4 1 .6v-32c-.2.2-.5.4-1 .6-4.5 2.1-7.9 6.1-9 11z" fill="#5cb8e0"/><path class="st0" d="M27.7 274c2.5 0 4.5-8.1 4.5-18s-2-18-4.5-18l-10.3-.5-5.5 1.3c-2 3.9-3.3 10.2-3.3 17.2 0 7.1 1.3 13.3 3.3 17.2l5.5 1.3 10.3-.5z"/><path class="st0" d="M9.1 264.1l-5.8-.7c.2.8.3 1.6.5 2.3l5.8.9c-.2-.8-.4-1.7-.5-2.5zm-.4-3.1c-.1-1.1-.2-2.3-.2-3.5H2.7c0 .9.1 1.9.2 2.8l5.8.7zm0-10l-5.8.7c-.1.9-.2 1.8-.2 2.8h5.8c.1-1.2.1-2.4.2-3.5zm1.7-8.8c.4-1.3.9-2.4 1.4-3.4l-3.1.7c-1.4 0-2.8 1.4-3.8 3.6l5.5-.9zm-7.1 6.5l5.8-.7c.1-.9.3-1.7.5-2.5l-5.8.9c-.2.7-.3 1.4-.5 2.3zM5 268.9c1 2.3 2.4 3.6 3.8 3.6l3.1.7c-.5-1-1-2.2-1.4-3.4l-5.5-.9z"/></svg>