<svg version="1.1" xmlns="http://www.w3.org/2000/svg" x="0" y="0" viewBox="0 0 512 512" xml:space="preserve"><style type="text/css">.st0{fill:#36434f}.st1{fill:#ddd}</style><path class="st0" d="M182.4 390.6l12.7-10.6 46.8 53.2 2.2 1.8-11.7 14.5-40.1-34.7z"/><path class="st1" d="M241.8 456.5c-.6-4.5-1.2-9.5-1.2-9.5s-20.1-14.9-32.1-26.7c-12.1-11.8-27.2-37.6-27.2-37.6s-3.1.5-3.1 14.7 17 34.7 18 39.9c1 5.3 4.6 14.9.2 24.1-4.4 9.2-9 32.4-9 32.4S201.6 512 220 512s26.7-10.6 26.7-10.6 1.9-12.5 1.9-21.7c.1-9.3-6.2-18.7-6.8-23.2z"/><path class="st0" d="M248.3 488.1l-8.5-17.9s-7.4 1.2-18.3 1.4c-11 .2-21.5-1.4-21.5-1.4l-10.7 15.3c-.2.8-.3 1.5-.5 2.2l11.5-16.7s10.4 1.9 21.4 1.7 17.5-1.5 17.5-1.5l9 18.2c0-.4 0-.8.1-1.3zm81.3-97.5L316.9 380l-46.8 53.2-2.2 1.8 11.7 14.5 40.1-34.7z"/><path class="st1" d="M270.2 456.5c.6-4.5 1.2-9.5 1.2-9.5s20.1-14.9 32.1-26.7c12.1-11.8 27.2-37.6 27.2-37.6s3.1.5 3.1 14.7-17 34.7-18 39.9c-1 5.3-4.6 14.9-.2 24.1 4.4 9.2 9 32.4 9 32.4S310.4 512 291.9 512s-26.7-10.6-26.7-10.6-1.9-12.5-1.9-21.7c0-9.3 6.3-18.7 6.9-23.2z"/><path class="st0" d="M263.7 488.1l8.5-17.9s7.4 1.2 18.3 1.4 21.5-1.4 21.5-1.4l10.7 15.3c.2.8.3 1.5.5 2.2l-11.7-16.6s-10 1.7-21 1.5-18.1-1.7-18.1-1.7l-8.7 18.4c.1-.3.1-.7 0-1.2zM223.2 299l-20.9 45.1s30.4-8.1 53.7-8.1c23.4 0 53.7 8.1 53.7 8.1L289.8 299h-66.6z"/><path class="st1" d="M313.3 336.6l-22.9-69.1-33.6 5.6-.1 1.7h-1.6l-.1-1.7-33.6-5.6-22.9 69.1s-.4 3.7.2 5.1c.6 1.4 3.4 2.4 3.4 2.4l29.1-38h49.2l29.1 38s2.8-1 3.4-2.4c.9-1.4.4-5.1.4-5.1z"/><path class="st1" d="M306.9 350.6s-2.5-3.4-5.3-4.6c-2.8-1.2-7.1-1.9-7.1-1.9s-25.9-4.9-38.5-4.9c-12.6 0-38.5 4.9-38.5 4.9s-4.3.6-7.1 1.9c-2.8 1.2-5.3 4.6-5.3 4.6s-17 19.6-17 25.5c0 5.9 21.1 31.7 21.1 31.7s22.3 25.7 28.5 29.2 11.6 5 18.3 5c6.7 0 12.1-1.4 18.3-5 6.2-3.5 28.5-29.2 28.5-29.2s21.1-25.8 21.1-31.7c0-5.9-17-25.5-17-25.5z"/><path class="st0" d="M104.8 398.4s-.9 12.2 0 17.9c.9 5.7 3.7 11.7 4.8 13.5 1.1 1.8 6.9 5.1 11.5 5.1s12.9-7.4 13.6-9.7c.7-2.3.1-3.4-2-5s-4.3.6-4.3.6-2.9 4.4-5.2 4.6c-2.3.2-4.8-4.3-4.6-7.3.2-3 5.4-9.7 8.3-10.6 2.9-.9 10.2 15.5 11.7 16.5 1.5.9 2.2 1.1 3.5.9 1.3-.2 2.1-1.1 2.5-3.4.4-2.3-1.5-7.4-2.8-12.4-1-4-3-7.9-3-7.9l5.8-17.1-23.6-7.4-16.2 21.7z"/><path class="st1" d="M207.6 273.1c-4.3 1.2-7.8 7.1-17.3 14.7s-36.2 20.8-43.7 26.7c-7.6 5.9-14.7 17.5-14.7 17.5s1 1.9 3 4.6c-5.8 3.8-13.5 10.5-20.2 21.4-8.6 13.8-10.8 33.9-11.4 43.3-.2 3.3-.2 5.4-.2 5.4s18.4-17.5 23.6-19.4c5.2-1.9 11.6.5 12.8 3.4 1.2 3-.7 10.5-.7 10.5s23.1-29.9 41.6-57c13.6-20 23.9-39.3 24.6-39.6 1.7-.7 10.9 5.7 10.9 5.7l11.8-37.1c0-.1-15.8-1.3-20.1-.1z"/><path class="st0" d="M407.2 398.4s.9 12.2 0 17.9c-.9 5.7-3.7 11.7-4.8 13.5-1.1 1.8-6.9 5.1-11.5 5.1s-12.9-7.4-13.6-9.7c-.7-2.3-.1-3.4 2-5s4.3.6 4.3.6 2.9 4.4 5.2 4.6 4.8-4.3 4.6-7.3c-.2-3-5.4-9.7-8.3-10.6-2.9-.9-10.2 15.5-11.7 16.5-1.5.9-2.2 1.1-3.5.9s-2.1-1.1-2.5-3.4c-.4-2.3 1.5-7.4 2.8-12.4 1-4 3-7.9 3-7.9l-5.8-17.1 23.6-7.4 16.2 21.7z"/><path class="st1" d="M304.4 273.1c4.3 1.2 7.8 7.1 17.3 14.7s36.2 20.8 43.7 26.7c7.6 5.9 14.7 17.5 14.7 17.5s-1 1.9-3 4.6c5.8 3.8 13.5 10.5 20.2 21.4 8.6 13.8 10.8 33.9 11.4 43.3.2 3.3.2 5.4.2 5.4s-18.4-17.5-23.6-19.4c-5.2-1.9-11.6.5-12.8 3.4-1.2 3 .7 10.5.7 10.5s-23.1-29.9-41.6-57c-13.6-20-23.9-39.3-24.6-39.6-1.7-.7-10.9 5.7-10.9 5.7l-11.8-37.1c0-.1 15.8-1.3 20.1-.1z"/><circle class="st1" cx="256" cy="138.5" r="138.5"/><path d="M155.1 166.2l34.3 33.2 28.6-43.8zm200.8 0l-34.2 33.2-28.6-43.8z" fill="#4b9f4e"/><path class="st0" d="M388.8 177.9l1.2-4.2c-16-5.2-71.9-21.7-134-21.7-62.3 0-118.3 16.6-134 21.7l1.2 4.2c17.3-5.5 72-21.3 132.8-21.3 60.7 0 115.4 15.7 132.8 21.3z"/></svg>