<svg version="1.1" xmlns="http://www.w3.org/2000/svg" x="0" y="0" viewBox="0 0 512 512" xml:space="preserve"><style type="text/css">.st0{fill:#ddd}.st1{fill:#999}.st2{fill:#bbb}.st3{fill:#36434f}.st4{fill:#cc584c}.st5{opacity:.5;fill:#eec646}.st6{fill:#f4f4f4}</style><path class="st0" d="M258.78 0h-5.55c-79.75 0-144.41 64.65-144.41 144.41v114.55c0 8.57.33 17.14 1 25.68l8.71 111.87a88.396 88.396 0 0026.97 56.95l37.82 36.22A80.383 80.383 0 00238.9 512h34.2c20.71 0 40.61-8 55.57-22.32l37.82-36.22a88.3 88.3 0 0026.97-56.95l8.71-111.87c.67-8.54 1-17.11 1-25.68V144.41C403.18 64.65 338.53 0 258.78 0z"/><path class="st1" d="M121.62 299.43l7.5 96.26a77.666 77.666 0 0023.73 50.11l37.82 36.22c13.04 12.49 30.17 19.37 48.22 19.37h34.21c18.06 0 35.18-6.88 48.22-19.37l37.82-36.22a77.595 77.595 0 0023.73-50.11l7.5-96.26H121.62z"/><path class="st0" d="M385.54 278.19l-2.12 25.48-5.8 61.99a112.007 112.007 0 01-29.78 66.16l-23.29 24.86c-4.21 4.5-11.73 1.12-11.16-5.02l2.84-30.67c.61-6.65-1.34-13.28-5.47-18.52-.56-.71-1.55-.93-2.36-.52l-13.31 6.73a55.402 55.402 0 01-24.97 5.95H241.9a55.37 55.37 0 01-24.97-5.95l-13.31-6.73c-.81-.41-1.8-.19-2.36.52a26.016 26.016 0 00-5.47 18.52l2.84 30.67c.57 6.14-6.95 9.52-11.16 5.02l-23.29-24.86a112.007 112.007 0 01-29.78-66.16l-5.8-61.99-2.12-25.48-17.48-8.67c.16 5.05.42 10.09.82 15.13l8.71 111.87a88.396 88.396 0 0026.97 56.95l37.82 36.22A80.419 80.419 0 00238.9 512h34.2c20.71 0 40.61-8 55.57-22.32l37.82-36.22a88.3 88.3 0 0026.97-56.95l8.71-111.87c.39-5.04.65-10.08.82-15.13l-17.45 8.68z"/><path class="st2" d="M403.18 221.7v-77.29c0-17.65-3.17-34.56-8.97-50.19-4.13 14.93-6.55 32.93-6.55 52.32 0 30.81 6.11 58.14 15.52 75.16zm-294.36-.45v.45c9.41-17.02 15.52-44.35 15.52-75.17 0-19.38-2.42-37.39-6.55-52.32-5.8 15.63-8.97 32.54-8.97 50.19v76.85z"/><path class="st0" d="M409.17 213.4a41.742 41.742 0 00-12.13-26.46l-2.96-2.96a51.088 51.088 0 00-47.92-13.59l-58.97 13.97a135.31 135.31 0 01-62.39 0l-58.97-13.97a51.106 51.106 0 00-47.92 13.59l-2.96 2.96a41.793 41.793 0 00-12.13 26.46 164.33 164.33 0 0012.33 75.66l13.93 33.23c6.71 16 25.27 23.33 41.1 16.25l40.18-17.98c5.52-2.47 11.74 1.57 11.74 7.61v26.72c0 10.2-10.12 24.49-15.67 31.55-1.52 1.94-.4 4.79 2.04 5.16l47.52 7.28 47.52-7.28c2.43-.37 3.56-3.22 2.04-5.16-5.55-7.07-15.67-21.36-15.67-31.55v-26.72c0-6.04 6.23-10.08 11.74-7.61l40.18 17.98c15.83 7.09 34.4-.25 41.11-16.25l13.93-33.23a164.179 164.179 0 0012.33-75.66z"/><path class="st2" d="M108.82 194.76c1.72-2.82 3.77-5.45 6.13-7.82l2.96-2.96a51.095 51.095 0 0147.92-13.59l58.97 13.97c10.26 2.43 20.73 3.65 31.2 3.65 10.47 0 20.94-1.22 31.2-3.65l58.97-13.97a51.095 51.095 0 0147.92 13.59l2.96 2.96c2.37 2.37 4.42 5 6.13 7.82v-3.84a43.781 43.781 0 00-4.63-5.47l-2.96-2.96c-10.06-10.06-23.42-15.59-37.64-15.59-4.12 0-8.25.48-12.27 1.44l-58.97 13.97A133.425 133.425 0 01256 185.9c-10.33 0-20.66-1.21-30.71-3.59l-58.97-13.97c-4.02-.95-8.15-1.44-12.27-1.44-14.22 0-27.59 5.54-37.64 15.59l-2.96 2.96c-1.7 1.7-3.24 3.54-4.63 5.47v3.84z"/><path class="st3" d="M251.85 282.44v58.31c0 6.54-7.49 10.26-12.7 6.3l-1.47-1.11a10.326 10.326 0 01-3.59-11.35l16.71-52.31c.19-.57 1.05-.44 1.05.16zm8.3 0v58.31c0 6.54 7.49 10.26 12.7 6.3l1.47-1.11c3.48-2.64 4.91-7.19 3.59-11.35l-16.71-52.31c-.19-.57-1.05-.44-1.05.16zm-122.13-45.78l1.59 18.39c1.17 13.51 11.52 24.42 24.94 26.31 18.56 2.6 37.47-.6 54.13-9.18l3.59-1.85c11.86-6.11 16.96-20.36 11.66-32.6a18.409 18.409 0 00-14.45-10.94L206.31 225v1.02l-33.87-4.5v-1.09l-15.23-2.06c-10.78-1.46-20.13 7.46-19.19 18.29z"/><path class="st1" d="M160.73 242.17c0 14.38 11.66 26.04 26.04 26.04 14.38 0 26.04-11.66 26.04-26.04 0-6.58-2.44-12.58-6.47-17.16l-33.89-4.58c-7.07 4.65-11.72 12.65-11.72 21.74z"/><circle class="st4" cx="186.76" cy="242.17" r="15.6"/><circle class="st5" cx="186.76" cy="242.17" r="8.06"/><path class="st3" d="M373.98 236.66l-1.59 18.39c-1.17 13.51-11.52 24.42-24.94 26.31-18.56 2.6-37.47-.6-54.13-9.18l-3.59-1.85c-11.86-6.11-16.96-20.36-11.66-32.6a18.409 18.409 0 0114.45-10.94l13.17-1.78v1.02l33.87-4.5v-1.09l15.23-2.06c10.78-1.47 20.13 7.45 19.19 18.28z"/><path class="st1" d="M351.27 242.17c0 14.38-11.66 26.04-26.04 26.04-14.38 0-26.04-11.66-26.04-26.04 0-6.58 2.44-12.58 6.47-17.16l33.89-4.58c7.07 4.65 11.72 12.65 11.72 21.74z"/><circle class="st4" cx="325.24" cy="242.17" r="15.6"/><circle class="st5" cx="325.24" cy="242.17" r="8.06"/><path class="st6" d="M238.57 389.75v8.49c0 3.09 2.51 5.6 5.6 5.6h6.86a4.96 4.96 0 004.96-4.96c0-3.14-1.11-6.19-3.14-8.59l-.83-.99a9.353 9.353 0 00-7.14-3.32h-2.56a3.775 3.775 0 00-3.75 3.77zm-11.68-2.36v7.57c0 3.05 2.47 5.52 5.52 5.52h2.53c2 0 3.63-1.62 3.63-3.63v-2.38c0-1.7-.79-3.3-2.13-4.33l-5.9-4.55c-1.48-1.14-3.65-.08-3.65 1.8zm-2.41-.08l-3.97-3.11c-1.29-1.01-3.18-.09-3.18 1.55v9.72c0 2.19 1.77 3.96 3.96 3.96h2.17c1.89 0 3.43-1.54 3.43-3.43v-3.74c0-1.93-.88-3.76-2.41-4.95z"/><path class="st6" d="M209.4 385.09v9.18c0 1.86 1.5 3.36 3.36 3.36h1.76c1.55 0 2.82-1.26 2.82-2.82v-4.74c0-2.05-1.04-3.95-2.77-5.05l-2.34-1.49c-1.22-.78-2.83.1-2.83 1.56z"/><path class="st6" d="M200.35 386.31v4.84c0 2.08 1.69 3.77 3.77 3.77h2.32c1.63 0 2.96-1.33 2.96-2.96v-2.71c0-1.31-.76-2.51-1.94-3.08l-3.92-1.87c-1.49-.71-3.19.37-3.19 2.01zm45.13 23.55v8.49c0 1.17.95 2.12 2.12 2.12h6.28c1.17 0 2.12-.95 2.12-2.12v-8.49c0-1.17-.95-2.12-2.12-2.12h-6.28c-1.17-.01-2.12.94-2.12 2.12zm-9.56 1.16V419c0 .81.66 1.48 1.48 1.48h6.31c.98 0 1.77-.79 1.77-1.77v-7.64c0-1.25-1.02-2.27-2.27-2.27h-5.06c-1.24 0-2.23.99-2.23 2.22z"/><path class="st6" d="M226.36 409.65v6.15c0 .89.57 1.68 1.41 1.96l6.72 2.24c.7.23 1.43-.29 1.43-1.03v-7.67c0-1.42-1.07-2.62-2.49-2.78l-5.17-.57c-1.01-.12-1.9.68-1.9 1.7zm-9.02-3.62v6.05c0 1.26.8 2.38 1.99 2.79l5.02 1.72c.99.34 2.01-.39 2.01-1.44v-5.24c0-1.33-.79-2.53-2.01-3.05l-5.01-2.15c-.94-.4-2 .29-2 1.32z"/><path class="st6" d="M209.4 402.75v3.5c0 1.59.79 3.08 2.11 3.98l3.79 2.58c.87.59 2.05-.03 2.05-1.08v-5.52c0-1.43-.85-2.72-2.17-3.27l-3.69-1.56c-1-.43-2.09.29-2.09 1.37z"/><path class="st6" d="M200.35 400.33v1.7c0 1.12.61 2.16 1.6 2.69l5.66 3.09c.81.44 1.8-.14 1.8-1.07v-4.21c0-1.22-.79-2.3-1.95-2.67l-4.52-1.43c-1.29-.39-2.59.56-2.59 1.9zm73.08-10.58v8.49c0 3.09-2.51 5.6-5.6 5.6h-6.86a4.96 4.96 0 01-4.96-4.96c0-3.14 1.11-6.19 3.14-8.59l.83-.99a9.353 9.353 0 017.14-3.32h2.56c2.06.01 3.75 1.69 3.75 3.77zm11.68-2.36v7.57c0 3.05-2.47 5.52-5.52 5.52h-2.53c-2 0-3.63-1.62-3.63-3.63v-2.38c0-1.7.79-3.3 2.13-4.33l5.9-4.55c1.48-1.14 3.65-.08 3.65 1.8zm2.41-.08l3.97-3.11c1.29-1.01 3.18-.09 3.18 1.55v9.72c0 2.19-1.77 3.96-3.96 3.96h-2.17c-1.89 0-3.43-1.54-3.43-3.43v-3.74c0-1.93.88-3.76 2.41-4.95z"/><path class="st6" d="M302.6 385.09v9.18c0 1.86-1.5 3.36-3.36 3.36h-1.76c-1.55 0-2.82-1.26-2.82-2.82v-4.74c0-2.05 1.04-3.95 2.77-5.05l2.34-1.49c1.22-.78 2.83.1 2.83 1.56zm9.05 1.22v4.84c0 2.08-1.69 3.77-3.77 3.77h-2.32c-1.63 0-2.96-1.33-2.96-2.96v-2.71c0-1.31.76-2.51 1.94-3.08l3.92-1.87c1.49-.71 3.19.37 3.19 2.01zm-45.13 23.55v8.49c0 1.17-.95 2.12-2.12 2.12h-6.28c-1.17 0-2.12-.95-2.12-2.12v-8.49c0-1.17.95-2.12 2.12-2.12h6.28c1.17-.01 2.12.94 2.12 2.12zm9.56 1.16V419c0 .81-.66 1.48-1.48 1.48h-6.31c-.98 0-1.77-.79-1.77-1.77v-7.64c0-1.25 1.02-2.27 2.27-2.27h5.06c1.24 0 2.23.99 2.23 2.22z"/><path class="st6" d="M285.64 409.65v6.15c0 .89-.57 1.68-1.41 1.96l-6.72 2.24c-.7.23-1.43-.29-1.43-1.03v-7.67c0-1.42 1.07-2.62 2.49-2.78l5.17-.57c1.01-.12 1.9.68 1.9 1.7zm9.02-3.62v6.05c0 1.26-.8 2.38-1.99 2.79l-5.02 1.72c-.99.34-2.01-.39-2.01-1.44v-5.24c0-1.33.79-2.53 2.01-3.05l5.01-2.15c.94-.4 2 .29 2 1.32z"/><path class="st6" d="M302.6 402.75v3.5c0 1.59-.79 3.08-2.11 3.98l-3.79 2.58c-.87.59-2.05-.03-2.05-1.08v-5.52c0-1.43.85-2.72 2.17-3.27l3.69-1.56c1-.43 2.09.29 2.09 1.37z"/><path class="st6" d="M311.65 400.33v1.7c0 1.12-.61 2.16-1.6 2.69l-5.66 3.09c-.81.44-1.8-.14-1.8-1.07v-4.21c0-1.22.79-2.3 1.95-2.67l4.52-1.43c1.29-.39 2.59.56 2.59 1.9z"/><path class="st2" d="M206.76 21.99v2.12c7.83 0 13.21 2.14 14.75 5.86 2.88 6.94-7.83 20.08-28.34 28.58-8.86 3.67-17.92 5.69-25.5 5.69-7.83 0-13.21-2.14-14.75-5.86-2.88-6.94 7.83-20.08 28.34-28.58 8.86-3.67 17.91-5.69 25.5-5.69v-2.12m0 0c-7.56 0-16.85 1.94-26.31 5.85-20.02 8.29-33.23 22.33-29.49 31.35 1.97 4.76 8.27 7.18 16.71 7.18 7.56 0 16.85-1.94 26.31-5.85 20.02-8.29 33.23-22.33 29.49-31.35-1.97-4.77-8.26-7.18-16.71-7.18z"/><ellipse transform="rotate(-22.5 185.07 42.056)" class="st2" cx="185.09" cy="42.06" rx="13.27" ry="5.98"/><circle class="st3" cx="234.76" cy="365.79" r="3.72"/><circle class="st3" cx="277.24" cy="365.79" r="3.72"/><path class="st2" d="M304.1 92.03c-13.22-7.75-29.92-12.39-48.1-12.39s-34.88 4.64-48.1 12.39a73.356 73.356 0 00-6.46 4.23l15.73 60.96c1.68 6.51 6.77 11.6 13.28 13.29l5.31 1.37a80.909 80.909 0 0040.48 0l5.31-1.37a18.49 18.49 0 0013.28-13.29l15.73-60.96c-2.04-1.5-4.21-2.91-6.46-4.23zM154.89 211.84c1.05 0 2.11.07 3.15.21l15.25 2.06 33.87 4.57 12.92 1.74c8.44 1.14 15.6 6.21 19.15 13.57 7.4 15.35 1.11 34.19-14.04 41.99l-3.59 1.85c-8.19 4.22-16.99 7.25-26.14 9.01-2.26.43-4.58 1.11-6.92 2l-29.6 11.3a12.7 12.7 0 01-4.59.85c-5.68 0-10.76-3.81-12.35-9.27l-5.13-17.57a101.31 101.31 0 01-3.34-16.35v-.06c-.12-.82-.2-1.51-.26-2.15l-1.59-18.39c-.56-6.5 1.64-12.99 6.05-17.79 4.4-4.81 10.67-7.57 17.16-7.57m0-2.12c-7.09 0-13.92 3.01-18.74 8.27-4.81 5.24-7.21 12.32-6.6 19.41l1.59 18.39c.07.77.16 1.53.27 2.28.68 5.65 1.82 11.23 3.41 16.69l5.13 17.57c1.92 6.59 7.94 10.79 14.39 10.79 1.77 0 3.58-.32 5.34-.99l29.6-11.3c2.13-.81 4.32-1.46 6.56-1.89a99.144 99.144 0 0026.71-9.21l3.59-1.85c16.19-8.34 22.96-28.25 14.98-44.8-3.91-8.11-11.85-13.54-20.77-14.75l-12.92-1.74-33.87-4.57-15.25-2.06c-1.12-.16-2.27-.24-3.42-.24zm202.22 2.12c6.5 0 12.76 2.76 17.18 7.58 4.41 4.8 6.61 11.29 6.05 17.79l-1.59 18.39c-.06.64-.14 1.33-.26 2.15v.06c-.66 5.52-1.79 11.02-3.34 16.35L370 291.73c-1.59 5.46-6.67 9.27-12.35 9.27-1.56 0-3.11-.29-4.59-.85l-29.6-11.3c-2.33-.89-4.66-1.56-6.92-2a96.953 96.953 0 01-26.14-9.01l-3.59-1.85c-15.15-7.8-21.45-26.64-14.04-41.99 3.55-7.35 10.7-12.43 19.15-13.57l12.92-1.74 33.87-4.57 15.25-2.06c1.03-.15 2.09-.22 3.15-.22m0-2.12c-1.15 0-2.3.08-3.44.23l-15.25 2.06-33.87 4.57-12.92 1.74c-8.93 1.21-16.86 6.63-20.77 14.75-7.98 16.55-1.21 36.46 14.98 44.8l3.59 1.85c8.41 4.33 17.43 7.42 26.71 9.21 2.24.43 4.43 1.08 6.56 1.89l29.6 11.3c1.76.67 3.57.99 5.34.99 6.45 0 12.46-4.2 14.39-10.79l5.13-17.57c1.59-5.46 2.74-11.04 3.41-16.69.11-.75.21-1.51.27-2.28l1.59-18.39c.61-7.09-1.79-14.17-6.6-19.41a25.44 25.44 0 00-18.72-8.26z"/><path class="st0" d="M171.59 373.13l-11.95 3.07-9.59-37.42 11.95-3.07 9.59 37.42zm16.36 63.79L176 439.99l6.87 26.79 11.95-3.07-6.87-26.79zm-25.52-59.226l7.439-1.908 15.301 59.672-7.44 1.908z"/><path class="st0" d="M222.12 322.83l-6.91-3.36-40.69 83.69-.1 5.64 3.66 4.57z"/><path class="st0" d="M189.47 377.61l-17.75 15.19 2.7 25.74 3.01 6.48 14.3-40.94z"/><circle class="st2" cx="182.2" cy="392.34" r="2.65"/><path class="st0" d="M350 335.72l11.95 3.07-9.59 37.42-11.95-3.07 9.59-37.42zm-32.82 127.99l11.95 3.07 6.87-26.79-11.95-3.07-6.87 26.79zm9.678-28.283l15.301-59.672 7.44 1.908-15.302 59.672z"/><path class="st0" d="M289.88 322.83l6.91-3.36 40.69 83.69.1 5.64-3.66 4.57z"/><path class="st0" d="M322.53 377.61l17.75 15.19-2.7 25.74-3.01 6.48-14.3-40.94z"/><circle class="st2" cx="329.8" cy="392.34" r="2.65"/><path class="st2" d="M330.98 50.06l1.48.73.8-30.12c-.69-.42-1.39-.83-2.09-1.24l-.75 28c-18.56-8.81-39.85-13.46-61.69-13.46-8.22 0-16.44.66-24.47 1.98L236.44.97c-.71.08-1.41.16-2.12.26l8.31 37.15.99-.17c8.22-1.4 16.67-2.11 25.11-2.11 22.11 0 43.63 4.83 62.25 13.96zm-116.11 13.1l-.22-2.11c15.31-1.57 31.08-1.99 46.91-1.19l1.86-14.55.99.06c14.87.95 29.5 2.99 43.5 6.06l-.45 2.07c-13.58-2.98-27.77-4.98-42.18-5.95l-1.85 14.53-.99-.05c-16.04-.86-32.06-.46-47.57 1.13zm126.55 8.79c8.19 3.66 15.79 8.3 22.65 13.84l-3.39 14.81a106.34 106.34 0 00-20.91-13.63l1.65-15.02m-1.79-3.08l-2.13 19.36c9.05 4.34 17.28 9.86 24.47 16.3l4.48-19.54c-7.9-6.55-16.93-12.02-26.82-16.12zM256 437.35h-18.18c-2.94 0-5 2.92-3.99 5.69l10.73 29.65a8.498 8.498 0 007.99 5.6h6.91c3.58 0 6.77-2.24 7.99-5.6l10.73-29.65c1-2.77-1.05-5.69-3.99-5.69H256zm-30.55 6.06l-15-12.87c-2.5-2.14-6.33-.16-6.03 3.12l1.58 17.13c.04.4 4.19 18.11 6.31 27.14a8.724 8.724 0 006.39 6.48c4.4 1.1 8.97-1.06 10.91-5.16l1.26-2.65c2.53-5.33 2.84-11.45.86-17.01-1.95-5.47-4.25-11.96-5.09-14.43-.24-.68-.65-1.28-1.19-1.75zm61.1 0l15-12.87c2.5-2.14 6.33-.16 6.03 3.12L306 450.79c-.04.4-4.19 18.11-6.31 27.14a8.724 8.724 0 01-6.39 6.48 9.519 9.519 0 01-10.91-5.16l-1.26-2.65a22.259 22.259 0 01-.86-17.01c1.95-5.47 4.25-11.96 5.09-14.43.24-.68.65-1.28 1.19-1.75z"/><ellipse class="st3" cx="118.5" cy="232.54" rx="5.31" ry="11.68"/><ellipse class="st3" cx="393.5" cy="232.54" rx="5.31" ry="11.68"/><path class="st2" d="M134.8 158.51h-.12a3.186 3.186 0 01-3.07-3.3 236.083 236.083 0 00-.75-29.41 3.192 3.192 0 012.89-3.46c1.76-.16 3.3 1.14 3.46 2.89.62 6.96.94 14.13.94 21.3 0 2.97-.05 5.97-.16 8.91a3.202 3.202 0 01-3.19 3.07zm242.4 0h.12a3.186 3.186 0 003.07-3.3 236.083 236.083 0 01.75-29.41c.16-1.75-1.14-3.3-2.89-3.46a3.186 3.186 0 00-3.46 2.89c-.62 6.96-.94 14.13-.94 21.3 0 2.97.05 5.97.16 8.91a3.202 3.202 0 003.19 3.07z"/><path d="M236.26 1c-54.65 6.39-99.97 43.29-118.48 93.21-.3.81-.59 1.63-.88 2.44-.08.22-.16.45-.24.67-.26.75-.51 1.51-.76 2.26-.1.29-.19.59-.29.89-.23.72-.46 1.45-.68 2.18l-.3.99c-.21.71-.41 1.43-.61 2.15-.1.35-.19.7-.28 1.05-.19.71-.38 1.43-.56 2.15-.09.35-.17.7-.26 1.05-.18.73-.36 1.45-.52 2.19-.07.29-.13.58-.19.87-.35 1.59-.68 3.19-.98 4.81-.04.22-.09.44-.13.67-.11.61-.21 1.22-.31 1.83-.09.52-.18 1.04-.26 1.56-.09.57-.17 1.14-.25 1.71l-.24 1.72c-.07.55-.14 1.1-.2 1.65l-.21 1.81c-.06.53-.11 1.06-.16 1.6-.06.64-.12 1.28-.17 1.92l-.12 1.53c-.05.68-.09 1.37-.13 2.05-.03.47-.06.95-.08 1.42-.04.77-.06 1.54-.09 2.32-.01.4-.03.79-.04 1.19-.03 1.17-.04 2.35-.04 3.53v50.35c-3.42 5.62-5.5 12-5.99 18.65-1.46 19.77.68 39.59 6.25 58.51.06 1.62.15 3.23.24 4.85.01.15.01.3.02.45.14 2.48.29 4.96.49 7.44l8.71 111.87a88.396 88.396 0 0026.97 56.95l37.82 36.22A80.532 80.532 0 00238.9 512H256V1h-19.74z" opacity=".15" fill="#444"/></svg>