<svg version="1.1" xmlns="http://www.w3.org/2000/svg" x="0" y="0" viewBox="0 0 512 512" xml:space="preserve"><style type="text/css">.st0{fill:#4caf50}.st1{fill:#f4f4f4}.st2{fill:#424242}.st3{fill:#338738}</style><path class="st0" d="M381.9 118.6c74.7 93.1 79.4 315.8-131.8 307.7C49.6 418.5 58.3 207.1 129 118.6c33.3-41.8 83.3-62.5 125.1-62.9 42.3-.3 93.6 20.1 127.8 62.9z"/><circle class="st1" cx="184.1" cy="208.9" r="57.9"/><path class="st0" d="M135.9 174l94.8-16.7c-13.5-12.2-32.2-18.2-51.5-14.8-19.2 3.4-34.8 15.5-43.3 31.5z"/><circle class="st2" cx="184.1" cy="208.9" r="25.2"/><circle class="st1" cx="174.9" cy="200.9" r="8"/><circle class="st1" cx="327.9" cy="208.9" r="57.9"/><path class="st0" d="M281.3 157.3l94.8 16.7c-8.5-16-24-28.1-43.3-31.5s-38 2.6-51.5 14.8z"/><circle class="st2" cx="327.9" cy="208.9" r="25.2"/><circle class="st1" cx="318.8" cy="200.9" r="8"/><path class="st0" d="M176.007 485.785l34.787-83.983 22.174 9.185-34.788 83.983z"/><circle class="st3" cx="187.7" cy="489.8" r="22.2"/><path class="st0" d="M279.122 411.056l22.174-9.185 34.787 83.983-22.173 9.185z"/><circle class="st3" cx="324.3" cy="489.8" r="22.2"/><path class="st0" d="M326.991 381.068l21.01-11.6 63.554 115.116-21.01 11.599z"/><circle class="st3" cx="400.5" cy="489.8" r="22.2"/><path class="st0" d="M100.463 484.649l63.553-115.128 21.012 11.599-63.553 115.128z"/><circle class="st3" cx="111.5" cy="489.8" r="22.2"/><path class="st0" d="M211.065 10.226l8.896-3.609 25.787 63.572-8.896 3.609z"/><circle class="st3" cx="216.1" cy="9" r="9"/><path class="st0" d="M266.228 70.111L292.015 6.54l8.896 3.608-25.786 63.572z"/><circle class="st3" cx="295.9" cy="9" r="9"/><path class="st0" d="M488 342.9c-2.5 0-4.9-.8-7.1-2.3l-80.3-58.8c-5.3-3.9-6.5-11.4-2.6-16.8 3.9-5.3 11.4-6.5 16.8-2.6l80.3 58.8c5.3 3.9 6.5 11.4 2.6 16.8-2.4 3.2-6 4.9-9.7 4.9zm-464 0c-3.7 0-7.3-1.7-9.7-4.9-3.9-5.3-2.7-12.8 2.6-16.8l80.3-58.8c5.3-3.9 12.8-2.7 16.8 2.6 3.9 5.3 2.7 12.8-2.6 16.8l-80.3 58.8c-2.2 1.6-4.7 2.3-7.1 2.3z"/><path class="st2" d="M258.5 55.8v50h-5V55.7h.7c1.4 0 2.8 0 4.3.1zm-16.1.5l-22.8 48.4 4.5 2.1 24-50.9c-1.9.1-3.8.3-5.7.4zm45.5 50.6l4.5-2.1-22.7-48.2c-1.9-.2-3.8-.4-5.7-.5l23.9 50.8z"/><circle class="st3" cx="394.2" cy="321.9" r="8.5"/><circle class="st3" cx="374.3" cy="343.8" r="10.5"/><circle class="st3" cx="256" cy="328.5" r="30.5"/></svg>