<svg version="1.1" xmlns="http://www.w3.org/2000/svg" x="0" y="0" viewBox="0 0 512 512" xml:space="preserve"><style type="text/css">.st1{fill:#122a3a}.st2{fill:#f4f4f4}</style><path d="M0 0h512v512H0V0z" fill="#36434f"/><path class="st1" d="M189.8 377.1l11.4-9.5 42.1 47.9 2 1.6-10.5 13.1-36.1-31.3-8.9-21.8z"/><path class="st2" d="M243.2 436.5c-.5-4-1.1-8.5-1.1-8.5s-18.1-13.4-28.9-24c-10.9-10.6-24.5-33.8-24.5-33.8s-2.8.5-2.8 13.2 15.3 31.2 16.2 35.9c.9 4.8 4.1 13.4.2 21.7-4 8.3-8.1 29.2-8.1 29.2s12.8 16.4 29.3 16.4 24-9.5 24-9.5 1.7-11.3 1.7-19.5c.2-8.6-5.4-17.1-6-21.1z"/><path class="st1" d="M249.1 464.9l-7.6-16.1s-6.7 1.1-16.5 1.3c-9.9.2-19.4-1.3-19.4-1.3l-9.6 13.8c-.2.7-.3 1.4-.4 2l10.3-15s9.4 1.7 19.3 1.5 15.8-1.4 15.8-1.4l8.1 16.4c-.1-.4-.1-.8 0-1.2zm73.1-87.8l-11.4-9.5-42.1 47.9-2 1.6 10.5 13.1 36.1-31.3 8.9-21.8z"/><path class="st2" d="M268.8 436.5c.5-4 1.1-8.5 1.1-8.5s18.1-13.4 28.9-24c10.9-10.6 24.5-33.8 24.5-33.8s2.8.5 2.8 13.2-15.3 31.2-16.2 35.9c-.9 4.8-4.1 13.4-.2 21.7 4 8.3 8.1 29.2 8.1 29.2s-12.8 16.4-29.4 16.4-24-9.5-24-9.5-1.7-11.3-1.7-19.5c-.1-8.6 5.5-17.1 6.1-21.1z"/><path class="st1" d="M262.9 464.9l7.6-16.1s6.7 1.1 16.5 1.3c9.8.2 19.4-1.3 19.4-1.3l9.6 13.8c.2.7.3 1.4.5 2L306 449.7s-9 1.5-18.9 1.4c-9.9-.2-16.3-1.5-16.3-1.5l-7.8 16.6c0-.5 0-.9-.1-1.3zm-36.4-170.2l-18.8 40.6s27.4-7.3 48.3-7.3c21.1 0 48.3 7.3 48.3 7.3l-17.9-40.6h-59.9z"/><path class="st2" d="M307.6 328.5L287 266.4l-30.2 5-.1 1.5h-1.4l-.1-1.5-30.2-5-20.6 62.2s-.4 3.3.2 4.6c.5 1.3 3.1 2.2 3.1 2.2l26.2-34.2H278l26.2 34.2s2.5-.9 3.1-2.2c.7-1.3.3-4.7.3-4.7z"/><path class="st2" d="M301.8 341.1s-2.3-3.1-4.8-4.1-6.4-1.7-6.4-1.7-23.3-4.4-34.6-4.4-34.6 4.4-34.6 4.4-3.9.5-6.4 1.7c-2.5 1.1-4.8 4.1-4.8 4.1s-15.3 17.6-15.3 23 19 28.5 19 28.5 20.1 23.1 25.6 26.3c5.6 3.1 10.4 4.5 16.5 4.5 6 0 10.9-1.3 16.5-4.5s25.6-26.3 25.6-26.3 19-23.2 19-28.5-15.3-23-15.3-23z"/><path class="st1" d="M119.9 384.2s-.8 11 0 16.1 3.3 10.5 4.3 12.1 6.2 4.6 10.3 4.6 11.6-6.7 12.2-8.7c.6-2.1.1-3.1-1.8-4.5s-3.9.5-3.9.5-2.6 4-4.7 4.1c-2.1.2-4.3-3.9-4.1-6.6s4.9-8.7 7.5-9.5 9.2 14 10.5 14.9c1.3.8 2 1 3.1.8s1.9-1 2.3-3.1c.4-2.1-1.4-6.7-2.5-11.2-.9-3.6-2.7-7.1-2.7-7.1l5.2-15.4-21.2-6.7-14.5 19.7z"/><path class="st2" d="M212.4 271.4c-3.9 1.1-7 6.4-15.6 13.2-8.5 6.8-32.6 18.7-39.3 24-6.8 5.3-13.2 15.8-13.2 15.8s.9 1.7 2.7 4.1c-5.2 3.4-12.1 9.4-18.2 19.3-7.7 12.4-9.7 30.5-10.3 39-.2 3-.2 4.9-.2 4.9s16.6-15.8 21.2-17.5c4.7-1.7 10.4.4 11.5 3.1s-.6 9.4-.6 9.4 20.8-26.9 37.4-51.3c12.2-18 21.5-35.4 22.1-35.6 1.5-.6 9.8 5.1 9.8 5.1l10.6-33.4c.2-.1-14-1.2-17.9-.1z"/><path class="st1" d="M392.1 384.2s.8 11 0 16.1-3.3 10.5-4.3 12.1-6.2 4.6-10.4 4.6c-4.1 0-11.6-6.7-12.2-8.7-.6-2.1-.1-3.1 1.8-4.5s3.9.5 3.9.5 2.6 4 4.7 4.1c2.1.2 4.3-3.9 4.1-6.6-.2-2.7-4.9-8.7-7.5-9.5s-9.2 14-10.5 14.9c-1.3.8-2 1-3.1.8s-1.9-1-2.3-3.1 1.4-6.7 2.5-11.2c.9-3.6 2.7-7.1 2.7-7.1l-5.2-15.4 21.2-6.7 14.6 19.7z"/><path class="st2" d="M299.6 271.4c3.9 1.1 7 6.4 15.6 13.2 8.6 6.8 32.6 18.7 39.3 24 6.8 5.3 13.2 15.8 13.2 15.8s-.9 1.7-2.7 4.1c5.2 3.4 12.1 9.4 18.2 19.3 7.7 12.4 9.7 30.5 10.3 39 .2 3 .2 4.9.2 4.9s-16.6-15.8-21.2-17.5c-4.7-1.7-10.4.4-11.5 3.1s.6 9.4.6 9.4-20.8-26.9-37.4-51.3c-12.2-18-21.5-35.4-22.1-35.6-1.5-.6-9.8 5.1-9.8 5.1l-10.6-33.4c-.2-.1 14-1.2 17.9-.1z"/><circle class="st2" cx="256" cy="150.3" r="124.6"/><path d="M165.2 175.2l30.9 29.9 25.7-39.5-56.6 9.6zm180.7 0l-30.8 29.9-25.7-39.5 56.5 9.6z" fill="#4f8455"/><path class="st1" d="M375.5 185.7c.4-1.3.7-2.5 1.1-3.8-14.4-4.7-64.7-19.5-120.6-19.5-56.1 0-106.5 14.9-120.6 19.5.4 1.3.7 2.5 1.1 3.8 15.6-4.9 64.8-19.2 119.5-19.2 54.6 0 103.9 14.2 119.5 19.2z"/></svg>