<svg version="1.1" xmlns="http://www.w3.org/2000/svg" x="0" y="0" viewBox="0 0 512 512" xml:space="preserve"><style type="text/css">.st0,.st1{fill:#032330}.st1{stroke:#3693be;stroke-miterlimit:10}.st2{fill:#3693be}</style><path class="st0" d="M0 0h512v512H0z"/><path class="st1" d="M344 205c4-7 21-30 28-33 3.5-1.5 13.2-3.3 22-4.7 10.4 2.7 20.5 5.9 30.4 9.6l15.1-9.4C397.6 148.5 351 138 302 138c-79.7 0-152.9 27.8-210.4 74.3l3.7 29.8C152.5 189.3 229 157 313 157c13.6 0 27.1.9 40.2 2.5.3.5.6 1 .8 1.5 1 3 0 15-3 20-1.5 2.6-8 13.2-14 23l-16 16c-5 5-16 12-19 14s-38.1 15-38.1 15H244s-16.7-4.2-28.5-8-28-9-28-9v11.7l31.7 5.3 22.8 4v.8c-4.7-.5-16.6-1.8-22.6-2.5-7.6-.8-27.3-4.7-27.3-4.7v9.4H242v5s-20 9-26 11-11 2-14 2-8.7-2-8.7-2c0 1-3.3 24-10.3 43s-16 25-22 31c-3.1 3.1-13.1 5.7-21.8 7.5-7.1-1.5-14-3.3-20.9-5.5l-15.4 11.4c24.7 8.1 50.3 12.5 76.6 12.5 8.5 0 16.9-.3 25.3-1l4.4-11.2L235 354s-36 5-44 3-11-16-6-28 10-28 21-40 45-26 45-26h21l54 27 24 14s-6-10-8-15-4-11-4-13v-2c4.2 2.1 10.4 5.3 11 6 1 1 2 2 3 4s0 10 0 10l26-16-2-1s-10 0-17-2c-4.9-1.4-15.3-6.8-21-9.8V225c0-3 2-13 6-20zm-21 32c.7.4 1.9 1.3 3 2.3V253c-4.5 2.1-11.8 5-17 5-8 0-37-4-37-4v-.1c6.3-3.5 25.7-14.1 29-14.9 4-1 20-3 22-2zm-24.8 31.5c-2.9-1.6-7-3.9-11.1-6.1 6.9.7 14.1 1.7 16.9 2.6 4.3 1.4 15.8 4.4 22 6v1.5c-4.5.1-20.7-.1-27.8-4z"/><path class="st1" d="M419.6 369.6c-51.2-24-71.2-36.4-114.9-63.7-11.6-7.2-24.7-15.4-40.6-25.1-68-41.7-123.5-70.2-148.7-76.2l7-29.2c28.9 6.9 84.7 35.3 157.3 79.8 16 9.8 29.1 18 40.8 25.2 42.7 26.6 62.1 38.7 111.8 62l-12.7 27.2z"/><path class="st0" d="M456 258.5c-.8 0-1.3-.1-1.5-.2-.2-.7-1.4-.8-2.5-.8H188c-.8 0-1.5-.7-1.5-1.5s.7-1.5 1.5-1.5h264c1 0 2.3-.1 2.5-.8.2-.1.7-.2 1.5-.2h13c.8 0 1.3.1 1.5.2.2.7 1.4.8 2.5.8h34c.2 0 .4 0 .6.1l.3.1.2-.2c.4-.3.9-.5 1.4-.5 1.1 0 2 .9 2 2s-.9 2-2 2c-.5 0-1-.2-1.4-.5l-.2-.2-.3.1c-.2.1-.4.1-.6.1h-34c-1 0-2.3.1-2.5.8-.2.1-.7.2-1.5.2h-13z"/><path class="st2" d="M469 254c.5 0 .9.1 1.2.1.4.6 1.3.9 2.8.9h34c.1 0 .3 0 .4.1l.6.3.5-.4c.3-.3.6-.4 1-.4.8 0 1.5.7 1.5 1.5s-.7 1.5-1.5 1.5c-.4 0-.7-.1-1-.4l-.5-.4-.6.3c-.1.1-.3.1-.4.1h-34c-1.5 0-2.5.3-2.8.9-.2.1-.6.1-1.2.1h-13c-.5 0-.9-.1-1.2-.1-.4-.6-1.3-.9-2.8-.9H188c-.6 0-1-.4-1-1s.4-1 1-1h264c1.5 0 2.5-.3 2.8-.9.2-.1.6-.1 1.2-.1h13m0-1.2h-13c-1.1 0-2 .2-2 .5s-.9.5-2 .5H188c-1.1 0-2 .9-2 2s.9 2 2 2h264c1.1 0 2 .2 2 .5s.9.5 2 .5h13c1.1 0 2-.2 2-.5s.9-.5 2-.5h34c.3 0 .6-.1.8-.2.4.4 1 .7 1.7.7 1.4 0 2.5-1.1 2.5-2.5s-1.1-2.5-2.5-2.5c-.7 0-1.2.3-1.7.7-.2-.1-.5-.2-.8-.2h-34c-1.1 0-2-.2-2-.5s-.9-.5-2-.5z"/><path class="st1" d="M426.6 221.4C354.7 305.5 251.4 364 147.5 364c-12.2 0-24.3-.7-36.2-1.9 22 6.4 44.8 9.9 68.2 9.9 99.1 0 192.8-46.4 260.3-117.7l-13.2-32.9zm-229.7 13.5c-6.9-2.7-19.3-6.9-26.9-6.9-7.9 0-21.9 5.6-29.2 8.8-2.9 1.3-4.8 4.1-4.8 7.3v23.6c0 3.2 1.9 6.1 4.8 7.3 7.3 3.2 21.3 8.8 29.2 8.8 7.6 0 19.9-4.3 26.9-6.9 3.1-1.2 5.1-4.2 5.1-7.5v-27c0-3.3-2-6.3-5.1-7.5z"/><path class="st1" d="M330 151c37.6 0 73.7 6.3 107.3 17.8l2.2-1.4C397.6 148.5 351 138 302 138c-79.7 0-152.9 27.8-210.4 74.3l4.4 35.6C155.9 188 238.6 151 330 151zM186.3 254v-1.4c0-.8-1.1-1.6-2.7-1.9-3.6-.7-10.1-1.7-14.1-1.7-4.1 0-11.4 1.4-15.3 2.2-1.5.3-2.5 1-2.5 1.8v1h34.6zm-34.6 3.9v1c0 .8 1 1.5 2.5 1.8 3.8.8 11.2 2.2 15.3 2.2 4 0 10.4-1.1 14.1-1.7 1.6-.3 2.7-1 2.7-1.9v-1.4h-34.6z"/><path class="st0" d="M10.5 271.1c-.1 0-.2-.1-.3-.1-4.5-2.1-7.6-6-8.7-10.6l-1-4.3 1-4.3c1-4.7 4.2-8.6 8.7-10.7.1 0 .2-.1.3-.1v30.1z"/><path class="st2" d="M10 241.7v28.6c-4.1-2.1-7-5.7-8-10.1L1 256l1-4.2c1-4.4 3.9-8 8-10.1m1-1.7c-.2.2-.5.4-1 .6-4.5 2.1-7.9 6.1-9 11L0 256l1 4.4c1.1 4.9 4.5 8.9 9 11 .5.2.8.4 1 .6v-32z"/><path class="st1" d="M136.5 230h-.3l-11.2 2c-.1 0-.2 0-.2.1-10.4 1.7-32 5.1-46.7 6.3-17.2 1.5-41.8 2.4-47.9 2.6-.7-1.9-1.6-3-2.5-3l-10.3-.5-5.5 1.3c-2 3.9-3.3 10.2-3.3 17.2 0 6.2 1 11.7 2.6 15.6-.2-.6-.5-1.2-.7-1.8l-5.5-.9c1 2.3 2.4 3.6 3.8 3.6l3.1.7c-.2-.4-.4-.9-.7-1.4.2.5.4 1 .7 1.4l5.5 1.3 10.3-.5c.9 0 1.8-1.1 2.5-3.1 6.1.2 30.7 1.2 47.9 2.7 14.6 1.3 36.3 4.6 46.7 6.3.1.1.2.1.2.1l11.2 2h.3c2.5 0 4.5-11.6 4.5-26s-2-26-4.5-26zm-59.2 37.4c-25.1-1.7-39.4-2.7-45.6-3.1.3-2.5.5-5.3.5-8.3s-.2-5.8-.5-8.3c6.2-.4 20.6-1.4 45.6-3.1 21.4-1.5 36.5-1.1 45.1-.7-.3 3.5-.4 7.7-.4 12.1s.1 8.5.4 12.1c-8.6.4-23.7.8-45.1-.7z"/><path class="st1" d="M9.1 264.1l-5.8-.7c.2.8.3 1.6.5 2.3l5.8.9c-.2-.8-.4-1.7-.5-2.5zm-.6-6.6H2.7c0 .9.1 1.9.2 2.8l5.8.7c-.1-1.1-.2-2.3-.2-3.5zm.2-6.5l-5.8.7c-.1.9-.2 1.8-.2 2.8h5.8c.1-1.2.1-2.4.2-3.5zm3.1-12.2l-3.1.7c-1.4 0-2.8 1.4-3.8 3.6l5.5-.9c.4-1.3.9-2.4 1.4-3.4zm-2.2 6.7l-5.8.9c-.2.7-.3 1.4-.5 2.3l5.8-.7c.1-.9.3-1.7.5-2.5z"/></svg>