<svg version="1.1" xmlns="http://www.w3.org/2000/svg" x="0" y="0" viewBox="0 0 512 512" xml:space="preserve"><path d="M0 0h512v512H0V0z" fill="#36434f"/><circle cx="256" cy="256" r="230.4" fill="#f4f4f4"/><path d="M88.2 302l57 55.2 47.6-72.8zm334 0l-56.9 55.2-47.7-72.8z" fill="#4f8455"/><path d="M33.1 314.5c.6 2.3 1.3 4.7 2 7C64.4 312.2 155.4 286 256 286s191.7 26 221 35.4c.7-2.3 1.3-4.7 2-7.1-27-8.7-120-35.9-222.9-35.9-103.3-.1-196.3 27.5-223 36.1z" fill="#122a3a"/><path d="M25.6 256c0 127.3 103.1 230.4 230.4 230.4V25.6C128.7 25.6 25.6 128.7 25.6 256z" opacity=".15" fill="#444"/></svg>