<svg version="1.1" xmlns="http://www.w3.org/2000/svg" x="0" y="0" viewBox="0 0 512 512" xml:space="preserve"><style type="text/css">.st0{fill:#36434f}.st3{fill:#122a3a}.st4{fill:#999}</style><path class="st0" d="M512 177.5c0-29.6-16.3-55.4-40.5-69-12.7-7.1-28-7.9-41.5-2.4l-61.1 25.1c-9.4 13-14.9 28.9-14.9 46.2 0 42.7 33.8 77.4 76.1 78.9l48.4-19.9c10.1-4.2 18.5-11.6 23.8-21.2 6.2-11.1 9.7-24 9.7-37.7zm-512 0c0-29.6 16.3-55.4 40.5-69 12.7-7.1 28-7.9 41.5-2.4l61.1 25.1c9.4 13 14.9 28.9 14.9 46.2 0 42.7-33.8 77.4-76.1 78.9l-48.4-19.9c-10.1-4.2-18.5-11.6-23.8-21.2-6.2-11.1-9.7-24-9.7-37.7z"/><path d="M446.6 172C422 97.3 381.7 51.5 256 51.5S90 97.3 65.4 172c-21 63.6 10.1 183.8 67 242.6C180.2 464 256 460.5 256 460.5s75.8 3.5 123.5-45.9c57-58.9 88-179 67.1-242.6z" fill="#607785"/><path d="M319.5 224.5c-16-20.3-38.6-33-63.5-33s-47.5 12.7-63.5 33c-15.1 23.9-24.5 56.3-24.5 92 0 73.5 66 133 88 133s88-59.5 88-133c0-35.7-9.3-68.2-24.5-92z" opacity=".15" fill="#fff"/><path class="st0" d="M334 145.5c-19.1 0-34.5 15.4-34.5 34.5s15.4 34.5 34.5 34.5 34.5-15.4 34.5-34.5-15.4-34.5-34.5-34.5zm-8.7 34.1c-1.5.8-3.3.2-4.1-1.2-.8-1.5-.2-3.3 1.2-4.1s3.3-.2 4.1 1.2.2 3.3-1.2 4.1zm7.1 13.2c-1.5.8-3.3.2-4.1-1.2s-.2-3.3 1.2-4.1c1.5-.8 3.3-.2 4.1 1.2.8 1.4.2 3.3-1.2 4.1zm6.1-20.4c-1.5.8-3.3.2-4.1-1.2s-.2-3.3 1.2-4.1 3.3-.2 4.1 1.2.2 3.3-1.2 4.1zm7.1 13.2c-1.5.8-3.3.2-4.1-1.2s-.2-3.3 1.2-4.1 3.3-.2 4.1 1.2.2 3.4-1.2 4.1z"/><path class="st3" d="M334 157.5c-12.4 0-22.5 10.1-22.5 22.5s10.1 22.5 22.5 22.5 22.5-10.1 22.5-22.5c0-12.5-10.1-22.5-22.5-22.5zm-8.7 22.1c-1.5.8-3.3.2-4.1-1.2-.8-1.5-.2-3.3 1.2-4.1s3.3-.2 4.1 1.2.2 3.3-1.2 4.1zm7.1 13.2c-1.5.8-3.3.2-4.1-1.2s-.2-3.3 1.2-4.1c1.5-.8 3.3-.2 4.1 1.2.8 1.4.2 3.3-1.2 4.1zm6.1-20.4c-1.5.8-3.3.2-4.1-1.2s-.2-3.3 1.2-4.1 3.3-.2 4.1 1.2.2 3.3-1.2 4.1zm7.1 13.2c-1.5.8-3.3.2-4.1-1.2s-.2-3.3 1.2-4.1 3.3-.2 4.1 1.2.2 3.4-1.2 4.1z"/><path class="st0" d="M334 203c-12.7 0-23-10.3-23-23s10.3-23 23-23 23 10.3 23 23-10.3 23-23 23zm0-45c-12.1 0-22 9.9-22 22s9.9 22 22 22 22-9.9 22-22-9.9-22-22-22zm-3 35.7c-1.2 0-2.4-.7-3.1-1.8-.5-.8-.5-1.7-.3-2.7.3-.9.9-1.7 1.7-2.1 1.7-.9 3.8-.3 4.8 1.4.5.8.5 1.7.3 2.7-.3.9-.9 1.7-1.7 2.1-.6.2-1.2.4-1.7.4zm-.1-6.1c-.4 0-.8.1-1.2.3-.5.3-1 .9-1.2 1.5-.2.7-.1 1.3.2 1.9.7 1.2 2.2 1.7 3.4 1 .6-.3 1-.9 1.2-1.5.2-.7.1-1.3-.2-1.9-.4-.8-1.3-1.3-2.2-1.3zm13.3-1.1c-1.2 0-2.4-.7-3.1-1.8-.9-1.6-.3-3.8 1.4-4.8.8-.5 1.7-.5 2.7-.3.9.3 1.7.9 2.1 1.7.5.8.5 1.8.3 2.7-.3.9-.9 1.7-1.7 2.1-.6.2-1.2.4-1.7.4zm-.1-6.1c-.4 0-.8.1-1.1.3-1.2.7-1.7 2.3-1 3.4.7 1.2 2.2 1.7 3.4 1 .5-.3 1-.8 1.2-1.5s.1-1.4-.2-1.9c-.3-.6-.9-1-1.5-1.2-.3 0-.6-.1-.8-.1zm-20.2.1c-1.2 0-2.4-.7-3.1-1.8-.9-1.7-.3-3.8 1.4-4.8.8-.5 1.7-.5 2.7-.3.9.3 1.7.9 2.1 1.7.9 1.6.3 3.8-1.4 4.8-.6.2-1.2.4-1.7.4zm-.1-6.1c-.4 0-.8.1-1.1.3-1.2.7-1.7 2.2-1 3.4s2.2 1.6 3.4 1c1.2-.7 1.7-2.3 1-3.4-.3-.6-.9-1-1.5-1.2-.3 0-.6-.1-.8-.1zm13.3-1.1c-1.2 0-2.4-.7-3.1-1.8-.5-.8-.5-1.7-.3-2.7.3-.9.9-1.7 1.7-2.1.8-.5 1.7-.5 2.7-.3.9.3 1.7.9 2.1 1.7.5.8.5 1.7.3 2.7-.3.9-.9 1.7-1.7 2.1-.6.2-1.2.4-1.7.4zm-.1-6.1c-.4 0-.8.1-1.1.3-.6.3-1 .9-1.2 1.5-.2.7-.1 1.3.2 1.9.7 1.2 2.2 1.7 3.4 1 .6-.3 1-.9 1.2-1.5.2-.7.1-1.3-.2-1.9-.3-.6-.9-1-1.5-1.2-.3 0-.6-.1-.8-.1z"/><path class="st4" d="M323.9 179.1l5.2 9.7c.8 1.5 2.6 2 4.1 1.2l9.7-5.2c1.5-.8 2-2.6 1.2-4.1l-5.2-9.7c-.8-1.5-2.6-2-4.1-1.2l-9.7 5.2c-1.4.9-2 2.7-1.2 4.1zm8.9 1.5l-1.4 4.6c-.3.9-1.4 1-1.8.2l-2.5-4.7c-.4-.8.3-1.7 1.2-1.4l4.5 1.3zm-4.2-5.1l4.7-2.5c.8-.4 1.7.3 1.4 1.2l-1.4 4.6-4.6-1.4c-.8-.3-.9-1.5-.1-1.9zm6.1 5.7l4.6 1.4c.9.3 1 1.4.2 1.8l-4.7 2.5c-.8.4-1.7-.3-1.4-1.2l1.3-4.5zm.5-1.9l1.4-4.6c.3-.9 1.4-1 1.8-.2l2.5 4.7c.4.8-.3 1.7-1.2 1.4l-4.5-1.3z"/><path class="st0" d="M143.5 180c0 19.1 15.4 34.5 34.5 34.5s34.5-15.4 34.5-34.5-15.4-34.5-34.5-34.5-34.5 15.4-34.5 34.5zm42-4.5c.8-1.5 2.6-2 4.1-1.2s2 2.6 1.2 4.1-2.6 2-4.1 1.2-2-2.7-1.2-4.1zm-7.1 13.2c.8-1.5 2.6-2 4.1-1.2s2 2.6 1.2 4.1-2.6 2-4.1 1.2-2-2.7-1.2-4.1zm-6.1-20.3c.8-1.5 2.6-2 4.1-1.2s2 2.6 1.2 4.1-2.6 2-4.1 1.2c-1.4-.9-2-2.7-1.2-4.1zm-7.1 13.2c.8-1.5 2.6-2 4.1-1.2s2 2.6 1.2 4.1-2.6 2-4.1 1.2-2-2.7-1.2-4.1z"/><path class="st3" d="M155.5 180c0 12.4 10.1 22.5 22.5 22.5s22.5-10.1 22.5-22.5-10.1-22.5-22.5-22.5-22.5 10-22.5 22.5zm30-4.5c.8-1.5 2.6-2 4.1-1.2s2 2.6 1.2 4.1-2.6 2-4.1 1.2-2-2.7-1.2-4.1zm-7.1 13.2c.8-1.5 2.6-2 4.1-1.2s2 2.6 1.2 4.1-2.6 2-4.1 1.2-2-2.7-1.2-4.1zm-6.1-20.3c.8-1.5 2.6-2 4.1-1.2s2 2.6 1.2 4.1-2.6 2-4.1 1.2c-1.4-.9-2-2.7-1.2-4.1zm-7.1 13.2c.8-1.5 2.6-2 4.1-1.2s2 2.6 1.2 4.1-2.6 2-4.1 1.2-2-2.7-1.2-4.1z"/><path class="st0" d="M178 203c-12.7 0-23-10.3-23-23s10.3-23 23-23 23 10.3 23 23-10.3 23-23 23zm0-45c-12.1 0-22 9.9-22 22s9.9 22 22 22 22-9.9 22-22-9.9-22-22-22zm3.1 35.7c-.6 0-1.2-.1-1.7-.4-.8-.4-1.4-1.2-1.7-2.1-.3-.9-.2-1.9.3-2.7.9-1.7 3-2.3 4.8-1.4.8.4 1.4 1.2 1.7 2.1.3.9.1 1.8-.3 2.7-.7 1.1-1.9 1.8-3.1 1.8zm-.1-6.1c-.9 0-1.7.5-2.2 1.3-.3.6-.4 1.3-.2 1.9.2.7.6 1.2 1.2 1.5.6.3 1.3.4 1.9.2.6-.2 1.2-.6 1.5-1.2.7-1.3.2-2.8-1-3.4-.3-.2-.8-.3-1.2-.3zm-13.1-1c-.6 0-1.2-.1-1.7-.4-.8-.4-1.4-1.2-1.7-2.1-.3-.9-.2-1.9.3-2.7.9-1.7 3-2.3 4.8-1.4 1.7.9 2.3 3 1.4 4.8-.4.8-1.2 1.4-2.1 1.7-.4 0-.7.1-1 .1zm-.1-6.1c-.9 0-1.7.5-2.2 1.3-.3.6-.4 1.3-.2 1.9.2.7.6 1.2 1.2 1.5 1.3.7 2.8.2 3.4-1 .7-1.3.2-2.8-1-3.4-.3-.2-.8-.3-1.2-.3zm20.4 0c-.6 0-1.2-.1-1.7-.4-.8-.4-1.4-1.2-1.7-2.1-.3-.9-.2-1.9.3-2.7.4-.8 1.2-1.4 2.1-1.7.9-.3 1.8-.1 2.7.3 1.7.9 2.3 3 1.4 4.8-.7 1.1-1.9 1.8-3.1 1.8zm-.1-6.1c-.9 0-1.7.5-2.2 1.3-.3.6-.4 1.3-.2 1.9.2.7.6 1.2 1.2 1.5 1.3.7 2.8.2 3.4-1 .3-.6.4-1.3.2-1.9-.2-.6-.6-1.2-1.2-1.5-.3-.2-.8-.3-1.2-.3zm-13.1-1c-.6 0-1.2-.1-1.7-.4-1.7-1.1-2.3-3.2-1.4-4.8.9-1.7 3-2.3 4.8-1.4 1.7.9 2.3 3 1.4 4.8-.7 1.1-1.9 1.8-3.1 1.8zm-.1-6.1c-.2 0-.5 0-.7.1-.6.2-1.2.6-1.5 1.2-.6 1.1-.2 2.6 1 3.4 1.2.7 2.7.2 3.4-1 .7-1.3.2-2.8-1-3.4-.3-.2-.8-.3-1.2-.3z"/><path class="st4" d="M186.9 175.1l-9.7-5.2c-1.5-.8-3.3-.2-4.1 1.2l-5.2 9.7c-.8 1.5-.2 3.3 1.2 4.1l9.7 5.2c1.5.8 3.3.2 4.1-1.2l5.2-9.7c.8-1.5.2-3.3-1.2-4.1zm-3.1 4.2c.9-.3 1.6.6 1.2 1.4l-2.5 4.7c-.4.8-1.6.7-1.8-.2l-1.4-4.6 4.5-1.3zm-.6-2l-4.6 1.4-1.4-4.6c-.3-.9.6-1.6 1.4-1.2l4.7 2.5c.9.5.8 1.7-.1 1.9zm-4.5 8.5c.3.9-.6 1.6-1.4 1.2l-4.7-2.5c-.8-.4-.7-1.6.2-1.8l4.6-1.4 1.3 4.5zm-6.5-5.1c-.9.3-1.6-.6-1.2-1.4l2.5-4.7c.4-.8 1.6-.7 1.8.2l1.4 4.6-4.5 1.3z"/><path class="st0" d="M235.7 254.8l-34.1-2.7c-4.7-.4-8.6 3.3-8.6 8v1.3c0 6.6 4.1 12.6 10.3 15l29.9 11.4c14.7 5.6 30.9 5.6 45.6 0l29.9-11.4c6.2-2.4 10.3-8.3 10.3-15v-1.3c0-4.7-4-8.3-8.6-8l-34.1 2.7c-13.5 1.1-27.1 1.1-40.6 0z"/><path class="st0" d="M256 346.5c-2.8 0-5-2.2-5-5v-56c0-2.8 2.2-5 5-5s5 2.2 5 5v56c0 2.8-2.2 5-5 5z"/><path class="st0" d="M201 356.5c-2.4 0-4.5-1.7-4.9-4.1-.5-2.7 1.3-5.3 4-5.8l55-10c2.7-.5 5.3 1.3 5.8 4s-1.3 5.3-4 5.8l-55 10c-.3.1-.6.1-.9.1z"/><path class="st0" d="M311 356.5c-.3 0-.6 0-.9-.1l-55-10c-2.7-.5-4.5-3.1-4-5.8.5-2.7 3.1-4.5 5.8-4l55 10c2.7.5 4.5 3.1 4 5.8-.4 2.4-2.5 4.1-4.9 4.1zm-145.5-225c-1.6 0-3.2-.8-4.1-2.2-1.5-2.3-1-5.4 1.3-6.9l31-21c2.3-1.5 5.4-1 6.9 1.3s1 5.4-1.3 6.9l-31 21c-.9.6-1.8.9-2.8.9zm181 0c-1 0-1.9-.3-2.8-.9l-31-21c-2.3-1.5-2.9-4.7-1.3-6.9 1.5-2.3 4.7-2.9 6.9-1.3l31 21c2.3 1.5 2.9 4.7 1.3 6.9-.9 1.4-2.5 2.2-4.1 2.2z"/><path d="M274.5 265.5c0-3.8-1.2-7.4-3.1-10.3-10.2.6-20.5.6-30.7 0-2 2.9-3.1 6.5-3.1 10.3 0 10.2 8.3 18.5 18.5 18.5s18.4-8.3 18.4-18.5z" opacity=".05" fill="#fff"/><path d="M94.8 111.4l-12.9-5.3c-13.5-5.5-28.8-4.7-41.5 2.4C16.3 122 0 147.8 0 177.5c0 13.7 3.5 26.6 9.7 37.8 5.2 9.6 13.7 17 23.8 21.2l27.1 11.2C67.3 307 94 374.8 132.5 414.6 180.2 464 256 460.5 256 460.5v-409c-86.8 0-132.9 21.8-161.2 59.9z" opacity=".15" fill="#444"/></svg>