<svg xmlns="http://www.w3.org/2000/svg" viewBox="0 0 512 512" xml:space="preserve"><style>.st4{fill:#2e86b7;stroke:#ddd;stroke-width:5;stroke-miterlimit:10}.st5{opacity:.1;fill:#fff;enable-background:new}.st6{fill:#ddd}</style><path d="M256 492.5c56.3 0 109.9-11.4 158.6-32.1l-86.8-251.9H184.1L97.4 460.4c48.7 20.7 102.3 32.1 158.6 32.1z" fill="#ffa000"/><path d="M256 492.5c31.7 0 62.5-3.6 92.1-10.5l-56.5-273.5h-71.2L163.9 482c29.6 6.9 60.4 10.5 92.1 10.5z" fill="#eec646"/><path d="M394.4 172.5c4.9-11.6 7.6-24.1 7.6-37 0-64.1-65.4-116-146-116s-146 51.9-146 116c0 12.9 2.7 25.4 7.6 37h276.8z" fill="#3aaf9d"/><path d="M17.5 141.4c-23.3 7.6-23.3 40.6 0 48.2 72.6 23.7 153.4 36.9 238.5 36.9s165.9-13.2 238.5-36.9c23.3-7.6 23.3-40.6 0-48.2-72.6-23.7-153.4-36.9-238.5-36.9S90.1 117.7 17.5 141.4z" fill="#038387"/><circle class="st4" cx="256" cy="165.5" r="31"/><path class="st5" d="m280.6 146.6-50.7 35.5c4.8 7.5 12.8 12.9 22.1 14.1l34.5-36.5c-.9-4.8-3-9.3-5.9-13.1z"/><path class="st6" d="M256 199c-18.5 0-33.5-15-33.5-33.5s15-33.5 33.5-33.5 33.5 15 33.5 33.5-15 33.5-33.5 33.5zm0-62c-15.7 0-28.5 12.8-28.5 28.5S240.3 194 256 194s28.5-12.8 28.5-28.5S271.7 137 256 137z"/><circle class="st4" cx="376" cy="165.5" r="27.9"/><path class="st5" d="m398.1 148.5-45.6 32c4.3 6.8 11.5 11.6 19.9 12.7l31-32.8c-.8-4.4-2.7-8.5-5.3-11.9z"/><path class="st6" d="M376 195.6c-16.6 0-30.1-13.5-30.1-30.1s13.5-30.1 30.1-30.1 30.1 13.5 30.1 30.1-13.5 30.1-30.1 30.1zm0-55.7c-14.1 0-25.6 11.5-25.6 25.6s11.5 25.6 25.6 25.6 25.6-11.5 25.6-25.6-11.5-25.6-25.6-25.6z"/><circle class="st4" cx="136" cy="165.5" r="27.9"/><path class="st5" d="m158.1 148.5-45.6 32c4.3 6.8 11.5 11.6 19.9 12.7l31-32.8c-.8-4.4-2.7-8.5-5.3-11.9z"/><path class="st6" d="M136 195.6c-16.6 0-30.2-13.5-30.2-30.1s13.5-30.1 30.2-30.1c16.6 0 30.1 13.5 30.1 30.1s-13.5 30.1-30.1 30.1zm0-55.7c-14.1 0-25.7 11.5-25.7 25.6s11.5 25.6 25.7 25.6 25.6-11.5 25.6-25.6-11.5-25.6-25.6-25.6z"/><path d="M358.9 98.1c-2.2 0-4.3-.9-5.9-2.6-9.4-10.2-20.8-18.9-34-26-3.9-2.1-5.3-6.9-3.3-10.8 2.1-3.9 7-5.3 10.8-3.3 14.8 8 27.6 17.8 38.2 29.3 3 3.3 2.8 8.3-.5 11.3-1.4 1.4-3.4 2.1-5.3 2.1z" opacity=".5" fill="#fff"/></svg>