<svg version="1.1" xmlns="http://www.w3.org/2000/svg" x="0" y="0" viewBox="0 0 512 512" xml:space="preserve"><style type="text/css">.st2{fill:#f4f4f4}.st3{fill:#338738}.st4{fill:#424242}.st5{fill:#81c156}</style><path d="M434 119.5c0-8.5-5.5-15.8-13.1-18.4 2-3 3.1-6.7 3.1-10.6 0-8.8-5.9-16.3-13.9-18.7 1.2-2.5 1.9-5.3 1.9-8.3 0-10.8-8.7-19.5-19.5-19.5-2.3 0-4.6.4-6.6 1.2-1.1-9.7-9.4-17.2-19.4-17.2-3.5 0-6.7.9-9.5 2.5-3.4-2.8-7.7-4.5-12.5-4.5-10.3 0-18.7 8-19.4 18.2C279.3 47 243 85 243 131.5c0 48.3 39.2 87.5 87.5 87.5 36.6 0 67.9-22.4 81-54.3 1 .2 2 .3 3 .3 10.8 0 19.5-8.7 19.5-19.5 0-5-1.9-9.5-5-13 3.1-3.5 5-8 5-13z" fill="#cc4b42"/><path d="M368.5 443c0-49.7 25.7-90 57.5-90h1l8.2-14.9c7.3-13.3 14.5-36.4 15.9-51.4l5.2-52.7c1.6-10.2 2.4-20.6 2.4-31.3 0-13.6-1.4-26.9-3.9-39.8C387.2 160.7 333 105.2 333 37c0-7.2.6-14.3 1.8-21.1C310.6 5.7 283.9 0 256 0 144 0 53.3 90.8 53.3 202.7c0 10.6.8 21.1 2.4 31.3l5.2 52.7c1.5 15 8.7 38.2 15.9 51.4L85 353h1c31.8 0 57.5 40.3 57.5 90 0 4.6-.2 9-.6 13.4C169 490.2 210 512 256 512s87-21.8 113.1-55.6c-.4-4.4-.6-8.8-.6-13.4z" fill="#4caf50"/><path class="st2" d="M277.9 381.6c1.1 5.1 4.4 9.4 7.2 9.4h10.2c2.8 0 6-4.2 7.2-9.4l6.1-27.3c1.1-5.1-2.2-9.4-7.5-9.4h-21.8c-5.3 0-8.6 4.2-7.5 9.4l6.1 27.3z"/><path class="st3" d="M265.9 396.7c-5.4.8-14.4.8-19.8 0l-58.6-8.4c-5.4-.8-9.3-5.9-8.5-11.3s5.9-9.3 11.3-8.5l55.8 8c5.4.8 14.4.8 19.8 0l54.8-7.9c5.4-.8 10.5 3 11.3 8.5s-3 10.5-8.5 11.3l-57.6 8.3z"/><circle class="st3" cx="165" cy="213" r="63"/><circle class="st2" cx="165" cy="213" r="50.5"/><path class="st3" d="M123 182.5h84c-9.7-12.5-24.9-20.6-42-20.6s-32.3 8.1-42 20.6z"/><circle class="st4" cx="165" cy="213" r="22"/><circle class="st2" cx="157" cy="206" r="7"/><circle class="st3" cx="341" cy="219" r="63"/><circle class="st2" cx="341" cy="219" r="50.5"/><circle class="st4" cx="341" cy="219" r="22"/><circle class="st2" cx="333" cy="212" r="7"/><path class="st3" d="M290.5 208.5h101.1c-5.1-23.2-25.8-40.5-50.5-40.5s-45.5 17.3-50.6 40.5z"/><path class="st4" d="M269.9 315.4c-3.5-1-6.3-5.3-6.3-9.5s4-6.7 8.8-5.7c4.9 1 10.3 4.5 12 7.6 1.7 3.1 2.3 9.7 1.3 14.5-1 4.9-3.6 5.7-5.7 1.9-2.1-3.8-6.6-7.8-10.1-8.8zm-27.8 0c3.5-1 6.3-5.3 6.3-9.5s-4-6.7-8.8-5.7c-4.9 1-10.3 4.5-12 7.6s-2.3 9.7-1.3 14.5c1 4.9 3.6 5.7 5.7 1.9 2.1-3.8 6.6-7.8 10.1-8.8z"/><circle class="st5" cx="158" cy="75" r="15"/><circle class="st5" cx="125" cy="100" r="10"/><circle class="st5" cx="193" cy="444" r="15"/><circle class="st3" cx="220.5" cy="473.5" r="9.5"/></svg>