<svg version="1.1" xmlns="http://www.w3.org/2000/svg" x="0" y="0" viewBox="0 0 512 512" xml:space="preserve"><circle cx="256" cy="256" r="256" fill="#ddd"/><path d="M69.6 307.1l63.3 61.3 52.9-80.9zm371.1 0l-63.3 61.3-52.9-80.9z" fill="#4f8455"/><path d="M8.3 321c.7 2.6 1.4 5.2 2.2 7.8C43 318.5 144.2 289.4 256 289.4s213 28.9 245.5 39.3c.8-2.6 1.5-5.2 2.2-7.9-30-9.7-133.3-39.9-247.7-39.9-114.7-.1-218 30.5-247.7 40.1z" fill="#122a3a"/><path d="M0 256c0 141.4 114.6 256 256 256V0C114.6 0 0 114.6 0 256z" opacity=".15" fill="#444"/></svg>