<svg version="1.1" xmlns="http://www.w3.org/2000/svg" x="0" y="0" viewBox="0 0 512 512" xml:space="preserve"><style type="text/css">.st1{fill:#3c3b6e}</style><path d="M256 512c64.9 0 124.2-24.2 169.3-64H86.7c45.1 39.8 104.4 64 169.3 64zM425.3 64H288v64h189.7c-13.9-24.1-31.7-45.7-52.4-64zM288 384h189.7c11.5-19.8 20.3-41.3 26.2-64H288v64zm215.9-192H288v64h224c0-22.1-2.8-43.5-8.1-64z" fill="#b22234"/><path class="st1" d="M256 0c-29 0-56.9 4.8-82.9 13.7l-.9.6 7.6 23.2L160 23.2l-19.8 14.4 3.9-11.9C128.4 33.3 113.7 42.5 100 53l3.6 11H128l-19.8 14.4 7.6 23.2L96 87.2l-19.8 14.4 7.6-23.2-7-5.1c-15 14.7-28.1 31.1-39.1 49l1.9 5.7H64l-19.8 14.4 7.6 23.2L32 151.2l-13.9 10.1c-3.9 9.9-7.3 20.1-10 30.6C2.8 212.5 0 233.9 0 256h24.4l7.6-23.2 7.6 23.2H64l-19.8 14.4 7.6 23.2L32 279.2l-19.8 14.4 7.6-23.2L0 256c0 22.1 2.8 43.5 8.1 64 5.8 22.7 14.7 44.2 26.2 64H288V2c-10.5-1.3-21.2-2-32-2zM88.4 192l7.6-23.2 7.6 23.2H128l-19.8 14.4 7.6 23.2L96 215.2l-19.8 14.4 7.6-23.2L64 192h24.4zm27.4 165.6L96 343.2l-19.8 14.4 7.6-23.2L64 320h24.4l7.6-23.2 7.6 23.2H128l-19.8 14.4 7.6 23.2zm128 0L224 343.2l-19.8 14.4 7.6-23.2L192 320h24.4l7.6-23.2 7.6 23.2H256l-19.8 14.4 7.6 23.2zm-71.6-87.2l7.6 23.2-19.8-14.4-19.8 14.4 7.6-23.2L128 256h24.4l7.6-23.2 7.6 23.2H192l-19.8 14.4zm71.6-40.8L224 215.2l-19.8 14.4 7.6-23.2L192 192h24.4l7.6-23.2 7.6 23.2H256l-19.8 14.4 7.6 23.2zm-71.6-87.2l7.6 23.2-19.8-14.4-19.8 14.4 7.6-23.2L128 128h24.4l7.6-23.2 7.6 23.2H192l-19.8 14.4zm71.6-40.8L224 87.2l-19.8 14.4 7.6-23.2L192 64h24.4l7.6-23.2 7.6 23.2H256l-19.8 14.4 7.6 23.2z"/><path class="st1" d="M89.1 61.9L86.7 64h1.8l.6-2.1z"/><path d="M34.3 384c13.9 24.1 31.7 45.7 52.4 64h338.6c20.7-18.3 38.5-39.9 52.4-64H34.3zm443.4-256H288v64h215.9c-5.8-22.7-14.7-44.2-26.2-64zM288 2v62h137.3C387.7 30.8 340.3 8.5 288 2zm0 254v64h215.9c5.3-20.5 8.1-41.9 8.1-64H288zm-56.4 64l-7.6-23.2-7.6 23.2H192l19.8 14.4-7.6 23.2 19.8-14.4 19.8 14.4-7.6-23.2L256 320h-24.4zm-64-64l-7.6-23.2-7.6 23.2H128l19.8 14.4-7.6 23.2 19.8-14.4 19.8 14.4-7.6-23.2L192 256h-24.4zm64-64l-7.6-23.2-7.6 23.2H192l19.8 14.4-7.6 23.2 19.8-14.4 19.8 14.4-7.6-23.2L256 192h-24.4zm-27.4-90.4L224 87.2l19.8 14.4-7.6-23.2L256 64h-24.4L224 40.8 216.4 64H192l19.8 14.4-7.6 23.2zm-44.2 3.2l-7.6 23.2H128l19.8 14.4-7.6 23.2 19.8-14.4 19.8 14.4-7.6-23.2L192 128h-24.4l-7.6-23.2zM103.6 320L96 296.8 88.4 320H64l19.8 14.4-7.6 23.2L96 343.2l19.8 14.4-7.6-23.2L128 320h-24.4zm0-128L96 168.8 88.4 192H64l19.8 14.4-7.6 23.2L96 215.2l19.8 14.4-7.6-23.2L128 192h-24.4zM96 87.2l19.8 14.4-7.6-23.2L128 64h-24.4L100 53c-3.7 2.8-7.3 5.8-10.8 8.8l-.8 2.2h-1.8c-3.4 3-6.7 6.1-9.9 9.3l7 5.1-7.6 23.2L96 87.2zM44.2 270.4L64 256H39.6L32 232.8 24.4 256H0l19.8 14.4-7.6 23.2L32 279.2l19.8 14.4-7.6-23.2zm7.6-104.8l-7.6-23.2L64 128H39.6l-1.9-5.7c-1.2 1.9-2.3 3.8-3.4 5.7-6.2 10.7-11.6 21.8-16.2 33.4L32 151.2l19.8 14.4zm128-128l-7.6-23.2.9-.6c-10 3.4-19.6 7.4-29 12l-3.9 11.9L160 23.2l19.8 14.4z" fill="#f4f4f4"/></svg>