<svg xmlns="http://www.w3.org/2000/svg" viewBox="0 0 512 512" xml:space="preserve"><path d="m491.9 150.5 9.2-56.1c1.1-6.5-3.4-12.7-9.9-13.8l-5.9-1c-6.6-1.1-12.7 3.4-13.8 9.9l-11 66.7c-2.2 13.1-9.8 24.7-21 31.9-3.5 2.2-6.7 4.5-8.7 6.4-6.3 5.9-11.7 12.9-15.9 20.8-34.9 64.6-103.6 107.4-180.2 107.4-51.9 0-101-19.8-138.1-53.6-19.9-18.2-44.7-29-70.4-32.1-1.3-.2-2.6-.3-4-.3-13.4-.4-23.9 11.6-21.9 24.8L4.7 291c5.6 37 26.5 70.1 58 90.5.2.1.4.2.6.4 51 33.1 110.3 50.6 171.5 50.6 72.9 0 144-25.4 200.2-71.6 21.7-17.8 40.8-38.5 56.9-61.1 7.3-10.3 12.6-21.8 15.9-34 5-18.8 5.7-38.3 2.1-57.2-.8-4.2-4.3-10.5-8.3-16.3-8.6-12.2-12.1-27.2-9.7-41.8z" fill="#eec646"/><path d="m491.2 80.6-5.9-1c-6.6-1.1-12.7 3.4-13.8 9.9l-1.7 10.2 29.7 4.8 1.7-10.2c1-6.4-3.4-12.6-10-13.7z" opacity=".15" fill="#444"/></svg>