<svg version="1.1" xmlns="http://www.w3.org/2000/svg" x="0" y="0" viewBox="0 0 512 512" xml:space="preserve"><style type="text/css">.st9{fill:#35965f}.st11{opacity:.15;fill:#444}</style><path d="M303.8 497.5C287.5 507.7 269.6 512 256 512s-31.5-4.3-47.8-14.5C156.9 465.4-161 54 256 54s99.1 411.4 47.8 443.5z" fill="#cc584c"/><path d="M298.6 464.1c-14.5 9.1-30.5 12.9-42.6 12.9s-28.1-3.8-42.6-12.9C167.7 435.5-115.5 69 256 69s88.3 366.5 42.6 395.1z" fill="#c65347"/><path d="M293.4 430.7c-12.7 8-26.7 11.3-37.4 11.3-10.6 0-24.6-3.4-37.4-11.3C178.5 405.6-70 84 256 84s77.5 321.6 37.4 346.7z" fill="#c24f44"/><path d="M288.1 397.2c-11 6.9-23 9.8-32.1 9.8-9.1 0-21.2-2.9-32.1-9.8C189.4 375.7-24.4 99 256 99s66.6 276.7 32.1 298.2z" fill="#bc4b3f"/><path d="M282.9 363.8c-9.2 5.7-19.3 8.2-26.9 8.2s-17.7-2.4-26.9-8.2C200.2 345.7 21.1 114 256 114s55.8 231.7 26.9 249.8z" fill="#b9483c"/><path d="M277.7 330.4c-7.4 4.6-15.5 6.6-21.7 6.6s-14.3-2-21.7-6.6C211 315.8 66.6 129 256 129s45 186.8 21.7 201.4z" fill="#b44439"/><path d="M272.5 297c-5.6 3.5-11.8 5-16.5 5s-10.9-1.5-16.5-5c-17.7-11.1-127.4-153 16.5-153s34.2 141.9 16.5 153z" opacity=".5" fill="#ab3c31"/><path d="M267.3 263.6c-3.8 2.4-8.1 3.4-11.3 3.4-3.2 0-7.4-1-11.3-3.4C232.6 256 157.7 159 256 159s23.4 97 11.3 104.6z" opacity=".4" fill="#a3362b"/><path d="M205 455.5c-3.6 0-6.5 2.9-6.5 6.5s2.9 14.5 6.5 14.5 6.5-10.9 6.5-14.5-2.9-6.5-6.5-6.5zm2-40c-3.6 0-6.5 2.9-6.5 6.5s2.9 14.5 6.5 14.5 6.5-10.9 6.5-14.5-2.9-6.5-6.5-6.5zm29-249c3.6 0 6.5-10.9 6.5-14.5s-2.9-6.5-6.5-6.5-6.5 2.9-6.5 6.5 2.9 14.5 6.5 14.5zM199.5 302c0 3.6 2.9 14.5 6.5 14.5s6.5-10.9 6.5-14.5-2.9-6.5-6.5-6.5-6.5 2.9-6.5 6.5zm6.5-175.5c3.6 0 6.5-10.9 6.5-14.5s-2.9-6.5-6.5-6.5-6.5 2.9-6.5 6.5 2.9 14.5 6.5 14.5zm23 329c-3.6 0-6.5 2.9-6.5 6.5s2.9 14.5 6.5 14.5 6.5-10.9 6.5-14.5-2.9-6.5-6.5-6.5zm7-120c-3.6 0-6.5 2.9-6.5 6.5s2.9 14.5 6.5 14.5 6.5-10.9 6.5-14.5-2.9-6.5-6.5-6.5zm-20 40c-3.6 0-6.5 2.9-6.5 6.5s2.9 14.5 6.5 14.5 6.5-10.9 6.5-14.5-2.9-6.5-6.5-6.5zm10-109c3.6 0 6.5-10.9 6.5-14.5s-2.9-6.5-6.5-6.5-6.5 2.9-6.5 6.5 2.9 14.5 6.5 14.5zm-30-71c-3.6 0-6.5 2.9-6.5 6.5s2.9 14.5 6.5 14.5 6.5-10.9 6.5-14.5-2.9-6.5-6.5-6.5zm-10 140c-3.6 0-6.5 2.9-6.5 6.5s2.9 14.5 6.5 14.5 6.5-10.9 6.5-14.5-2.9-6.5-6.5-6.5zm70-19c3.6 0 6.5-10.9 6.5-14.5s-2.9-6.5-6.5-6.5-6.5 2.9-6.5 6.5 2.9 14.5 6.5 14.5zm0-100c3.6 0 6.5-10.9 6.5-14.5s-2.9-6.5-6.5-6.5-6.5 2.9-6.5 6.5 2.9 14.5 6.5 14.5zm0-90c3.6 0 6.5-10.9 6.5-14.5s-2.9-6.5-6.5-6.5-6.5 2.9-6.5 6.5 2.9 14.5 6.5 14.5zM169.5 252c0 3.6 2.9 14.5 6.5 14.5s6.5-10.9 6.5-14.5-2.9-6.5-6.5-6.5-6.5 2.9-6.5 6.5zm6.5 123.5c-3.6 0-6.5 2.9-6.5 6.5s2.9 14.5 6.5 14.5 6.5-10.9 6.5-14.5-2.9-6.5-6.5-6.5zm0 40c-3.6 0-6.5 2.9-6.5 6.5s2.9 14.5 6.5 14.5 6.5-10.9 6.5-14.5-2.9-6.5-6.5-6.5zm-10-120c-3.6 0-6.5 2.9-6.5 6.5s2.9 14.5 6.5 14.5 6.5-10.9 6.5-14.5-2.9-6.5-6.5-6.5zm0-169c3.6 0 6.5-10.9 6.5-14.5s-2.9-6.5-6.5-6.5-6.5 2.9-6.5 6.5 2.9 14.5 6.5 14.5zm20 40c3.6 0 6.5-10.9 6.5-14.5s-2.9-6.5-6.5-6.5-6.5 2.9-6.5 6.5 2.9 14.5 6.5 14.5zm-110 29c-3.6 0-6.5 2.9-6.5 6.5s2.9 14.5 6.5 14.5 6.5-10.9 6.5-14.5-2.9-6.5-6.5-6.5zm70-50c-3.6 0-6.5 2.9-6.5 6.5s2.9 14.5 6.5 14.5 6.5-10.9 6.5-14.5-2.9-6.5-6.5-6.5zm0 190c-3.6 0-6.5 2.9-6.5 6.5s2.9 14.5 6.5 14.5 6.5-10.9 6.5-14.5-2.9-6.5-6.5-6.5zm-20-40c-3.6 0-6.5 2.9-6.5 6.5s2.9 14.5 6.5 14.5 6.5-10.9 6.5-14.5-2.9-6.5-6.5-6.5zm10 80c-3.6 0-6.5 2.9-6.5 6.5s2.9 14.5 6.5 14.5 6.5-10.9 6.5-14.5-2.9-6.5-6.5-6.5zm120 21c3.6 0 6.5-10.9 6.5-14.5s-2.9-6.5-6.5-6.5-6.5 2.9-6.5 6.5 2.9 14.5 6.5 14.5zm-140-61c-3.6 0-6.5 2.9-6.5 6.5s2.9 14.5 6.5 14.5 6.5-10.9 6.5-14.5-2.9-6.5-6.5-6.5zm124 80c-3.6 0-6.5 2.9-6.5 6.5s2.9 14.5 6.5 14.5 6.5-10.9 6.5-14.5-2.9-6.5-6.5-6.5zm-178-270c-3.6 0-6.5 2.9-6.5 6.5s2.9 14.5 6.5 14.5 6.5-10.9 6.5-14.5-2.9-6.5-6.5-6.5zm84 50c-3.6 0-6.5 2.9-6.5 6.5s2.9 14.5 6.5 14.5 6.5-10.9 6.5-14.5-2.9-6.5-6.5-6.5zm-20-69c3.6 0 6.5-10.9 6.5-14.5s-2.9-6.5-6.5-6.5-6.5 2.9-6.5 6.5 2.9 14.5 6.5 14.5zm-20 119c-3.6 0-6.5 2.9-6.5 6.5s2.9 14.5 6.5 14.5 6.5-10.9 6.5-14.5-2.9-6.5-6.5-6.5zm-20-100c-3.6 0-6.5 2.9-6.5 6.5s2.9 14.5 6.5 14.5 6.5-10.9 6.5-14.5-2.9-6.5-6.5-6.5zm-10 100c-3.6 0-6.5 2.9-6.5 6.5s2.9 14.5 6.5 14.5 6.5-10.9 6.5-14.5-2.9-6.5-6.5-6.5zm53.5 6.5c0 3.6 2.9 14.5 6.5 14.5s6.5-10.9 6.5-14.5-2.9-6.5-6.5-6.5-6.5 2.9-6.5 6.5zM96 126.5c3.6 0 6.5-10.9 6.5-14.5s-2.9-6.5-6.5-6.5-6.5 2.9-6.5 6.5 2.9 14.5 6.5 14.5zm20 40c3.6 0 6.5-10.9 6.5-14.5s-2.9-6.5-6.5-6.5-6.5 2.9-6.5 6.5 2.9 14.5 6.5 14.5zm-20 129c-3.6 0-6.5 2.9-6.5 6.5s2.9 14.5 6.5 14.5 6.5-10.9 6.5-14.5-2.9-6.5-6.5-6.5zm3.5-93.5c0 3.6 2.9 14.5 6.5 14.5s6.5-10.9 6.5-14.5-2.9-6.5-6.5-6.5-6.5 2.9-6.5 6.5zM307 455.5c-3.6 0-6.5 2.9-6.5 6.5s2.9 14.5 6.5 14.5 6.5-10.9 6.5-14.5-2.9-6.5-6.5-6.5zm4.5-33.5c0-3.6-2.9-6.5-6.5-6.5s-6.5 2.9-6.5 6.5 2.9 14.5 6.5 14.5 6.5-10.9 6.5-14.5zM276 166.5c3.6 0 6.5-10.9 6.5-14.5s-2.9-6.5-6.5-6.5-6.5 2.9-6.5 6.5 2.9 14.5 6.5 14.5zm30 150c3.6 0 6.5-10.9 6.5-14.5s-2.9-6.5-6.5-6.5-6.5 2.9-6.5 6.5 2.9 14.5 6.5 14.5zm0-190c3.6 0 6.5-10.9 6.5-14.5s-2.9-6.5-6.5-6.5-6.5 2.9-6.5 6.5 2.9 14.5 6.5 14.5zm-23 329c-3.6 0-6.5 2.9-6.5 6.5s2.9 14.5 6.5 14.5 6.5-10.9 6.5-14.5-2.9-6.5-6.5-6.5zm-.5-113.5c0-3.6-2.9-6.5-6.5-6.5s-6.5 2.9-6.5 6.5 2.9 14.5 6.5 14.5 6.5-10.9 6.5-14.5zm20 40c0-3.6-2.9-6.5-6.5-6.5s-6.5 2.9-6.5 6.5 2.9 14.5 6.5 14.5 6.5-10.9 6.5-14.5zm-23-130c0 3.6 2.9 14.5 6.5 14.5s6.5-10.9 6.5-14.5-2.9-6.5-6.5-6.5-6.5 2.9-6.5 6.5zm36.5-56.5c-3.6 0-6.5 2.9-6.5 6.5s2.9 14.5 6.5 14.5 6.5-10.9 6.5-14.5-2.9-6.5-6.5-6.5zm10 140c-3.6 0-6.5 2.9-6.5 6.5s2.9 14.5 6.5 14.5 6.5-10.9 6.5-14.5-2.9-6.5-6.5-6.5zm3.5-83.5c0 3.6 2.9 14.5 6.5 14.5s6.5-10.9 6.5-14.5-2.9-6.5-6.5-6.5-6.5 2.9-6.5 6.5zm6.5 123.5c-3.6 0-6.5 2.9-6.5 6.5s2.9 14.5 6.5 14.5 6.5-10.9 6.5-14.5-2.9-6.5-6.5-6.5zm0 40c-3.6 0-6.5 2.9-6.5 6.5s2.9 14.5 6.5 14.5 6.5-10.9 6.5-14.5-2.9-6.5-6.5-6.5zm10-120c-3.6 0-6.5 2.9-6.5 6.5s2.9 14.5 6.5 14.5 6.5-10.9 6.5-14.5-2.9-6.5-6.5-6.5zm0-190c-3.6 0-6.5 2.9-6.5 6.5s2.9 14.5 6.5 14.5 6.5-10.9 6.5-14.5-2.9-6.5-6.5-6.5zm-20 61c3.6 0 6.5-10.9 6.5-14.5s-2.9-6.5-6.5-6.5-6.5 2.9-6.5 6.5 2.9 14.5 6.5 14.5zm110 29c-3.6 0-6.5 2.9-6.5 6.5s2.9 14.5 6.5 14.5 6.5-10.9 6.5-14.5-2.9-6.5-6.5-6.5zm-70-29c3.6 0 6.5-10.9 6.5-14.5s-2.9-6.5-6.5-6.5-6.5 2.9-6.5 6.5 2.9 14.5 6.5 14.5zm0 169c-3.6 0-6.5 2.9-6.5 6.5s2.9 14.5 6.5 14.5 6.5-10.9 6.5-14.5-2.9-6.5-6.5-6.5zm20-40c-3.6 0-6.5 2.9-6.5 6.5s2.9 14.5 6.5 14.5 6.5-10.9 6.5-14.5-2.9-6.5-6.5-6.5zm-10 80c-3.6 0-6.5 2.9-6.5 6.5s2.9 14.5 6.5 14.5 6.5-10.9 6.5-14.5-2.9-6.5-6.5-6.5zm-120 80c-3.6 0-6.5 2.9-6.5 6.5s2.9 14.5 6.5 14.5 6.5-10.9 6.5-14.5-2.9-6.5-6.5-6.5zm140-120c-3.6 0-6.5 2.9-6.5 6.5s2.9 14.5 6.5 14.5 6.5-10.9 6.5-14.5-2.9-6.5-6.5-6.5zm-124 80c-3.6 0-6.5 2.9-6.5 6.5s2.9 14.5 6.5 14.5 6.5-10.9 6.5-14.5-2.9-6.5-6.5-6.5zm178-270c-3.6 0-6.5 2.9-6.5 6.5s2.9 14.5 6.5 14.5 6.5-10.9 6.5-14.5-2.9-6.5-6.5-6.5zm-84 71c3.6 0 6.5-10.9 6.5-14.5s-2.9-6.5-6.5-6.5-6.5 2.9-6.5 6.5 2.9 14.5 6.5 14.5zm20-90c3.6 0 6.5-10.9 6.5-14.5s-2.9-6.5-6.5-6.5-6.5 2.9-6.5 6.5 2.9 14.5 6.5 14.5zm20 119c-3.6 0-6.5 2.9-6.5 6.5s2.9 14.5 6.5 14.5 6.5-10.9 6.5-14.5-2.9-6.5-6.5-6.5zm20-100c-3.6 0-6.5 2.9-6.5 6.5s2.9 14.5 6.5 14.5 6.5-10.9 6.5-14.5-2.9-6.5-6.5-6.5zm10 100c-3.6 0-6.5 2.9-6.5 6.5s2.9 14.5 6.5 14.5 6.5-10.9 6.5-14.5-2.9-6.5-6.5-6.5zm-66.5 6.5c0 3.6 2.9 14.5 6.5 14.5s6.5-10.9 6.5-14.5-2.9-6.5-6.5-6.5-6.5 2.9-6.5 6.5zM416 126.5c3.6 0 6.5-10.9 6.5-14.5s-2.9-6.5-6.5-6.5-6.5 2.9-6.5 6.5 2.9 14.5 6.5 14.5zM389.5 152c0 3.6 2.9 14.5 6.5 14.5s6.5-10.9 6.5-14.5-2.9-6.5-6.5-6.5-6.5 2.9-6.5 6.5zM416 295.5c-3.6 0-6.5 2.9-6.5 6.5s2.9 14.5 6.5 14.5 6.5-10.9 6.5-14.5-2.9-6.5-6.5-6.5zM399.5 202c0 3.6 2.9 14.5 6.5 14.5s6.5-10.9 6.5-14.5-2.9-6.5-6.5-6.5-6.5 2.9-6.5 6.5z" opacity=".2" fill="#eec646"/><path class="st9" d="M260.5 0h-9c-3.3 0-6 2.7-6 6v31h21V6c0-3.3-2.7-6-6-6z"/><path d="M322 120c17 29 24 57 24 57s12.9-58.3 5.1-83.6c4.2-1.6 8.2-3.3 12.2-5.1 1.5.6 2.9 1.2 4.2 1.7 22 9 68 29 68 29s-31.2-27.4-53.1-40.9c1.8-1.1 3.5-2.2 5.2-3.4C355.6 61.6 312.5 54 256 54s-99.6 7.6-131.6 20.7c1.7 1.2 3.4 2.3 5.2 3.4C107.7 91.6 76.5 119 76.5 119s46-20 68-29c1.3-.5 2.7-1.1 4.2-1.7 3.9 1.8 8 3.5 12.2 5.1-7.7 25.2 5.1 83.6 5.1 83.6s7-28 24-57c2.7-4.6 6.2-9.8 10.1-15.4 5.9 1.2 12 2.2 18.1 3 2.9 8.7 9.2 16.7 15.7 24.4 12.4 14.7 22 26 22 26s9.6-11.3 22-26c6.5-7.7 12.9-15.7 15.7-24.4 6.2-.8 12.2-1.8 18.1-3 4.1 5.6 7.6 10.8 10.3 15.4z" opacity=".2" fill="#444"/><path class="st11" d="M137.1 70c29 16.9 71.5 27.5 118.9 27.5S345.8 86.9 374.9 70C344.4 59.8 305.4 54 256 54s-88.4 5.8-118.9 16z"/><path class="st11" d="M137.1 56c29 16.9 71.5 27.5 118.9 27.5S345.8 72.9 374.9 56C344.4 45.8 305.4 40 256 40s-88.4 5.8-118.9 16z"/><path class="st9" d="M435.5 103s-33-29-55-42c-2.5-1.5-5.7-3-9.3-4.6 23.9 2.5 57.9 10.1 57.9 10.1s-34-27.2-65.4-34-108.2-13-108.2-13l.7.6c-.1 0-.2-.1-.2-.1s-.7.3-2 .8l1.5-1.3s-76.8 6.2-108.2 13c-31.4 6.8-65.4 34-65.4 34s35.1-7.9 59.2-10.2c-3.7 1.6-7 3.2-9.6 4.7-22 13-55 42-55 42s46-20 68-29c6.6-2.7 16.2-6.3 26.4-10-5 4.4-8.5 8.8-9.9 13-8 25 5 84 5 84s7-28 24-57c7.5-12.7 21.1-30.4 34-46.3-3.3 6.3-5.9 13.2-7 20.3-2.2 14.1 7.2 26.4 17 38 12.4 14.7 22 26 22 26s9.6-11.3 22-26c9.8-11.6 19.2-23.9 17-38-1.1-7.1-3.7-14-7-20.3 12.9 15.9 26.5 33.6 34 46.3 17 29 24 57 24 57s13-59 5-84c-1.3-4.2-4.9-8.6-9.9-13 10.2 3.7 19.8 7.3 26.4 10 22 9 68 29 68 29z"/></svg>