<svg version="1.1" xmlns="http://www.w3.org/2000/svg" x="0" y="0" viewBox="0 0 512 512" xml:space="preserve"><style type="text/css">.st0{fill:#ddd}.st3{fill:#ffdd7a}.st4{fill:#eec646}</style><path class="st0" d="M256 136H84l38.4 344c2 18.2 17.4 32 35.8 32h195.6c18.3 0 33.7-13.8 35.8-32L428 136H256z"/><path d="M228 141l7 353h42l7-353h-28zm-84 0l25 353h32l-14-353zm-47 0l36.2 345.8c.4 4.1 3.9 7.2 8 7.2h9.8l-31-353H97zm228 0l-14 353h32l25-353zm67 0l-31 353h9.8c4.1 0 7.5-3.1 8-7.2L415 141h-23z" fill="#cc584c"/><path opacity=".15" fill="#444" d="M84 136l3.4 30h337.2l3.4-30H256z"/><path class="st0" d="M431 146H81c-4.4 0-8-3.6-8-8s3.6-8 8-8h350c4.4 0 8 3.6 8 8s-3.6 8-8 8z"/><path class="st3" d="M249 24l-55 20-70 43-24 36v13l139-3v-22l21-30 40-21V33z"/><circle class="st3" cx="263" cy="24" r="24"/><circle class="st3" cx="194" cy="44" r="24"/><circle class="st3" cx="100" cy="117" r="24"/><circle class="st3" cx="124" cy="87" r="24"/><circle class="st3" cx="225" cy="33" r="24"/><circle class="st3" cx="300" cy="36" r="24"/><circle class="st3" cx="161" cy="81" r="24"/><circle class="st3" cx="136" cy="117" r="24"/><circle class="st3" cx="170" cy="117" r="24"/><path class="st4" d="M335 48l-79 33-17 42v10h165V89l-40-32z"/><circle class="st4" cx="344" cy="48" r="24"/><circle class="st4" cx="377" cy="63" r="24"/><circle class="st4" cx="404" cy="116" r="24"/><circle class="st4" cx="404" cy="96" r="24"/><circle class="st4" cx="239" cy="117" r="24"/><circle class="st4" cx="259" cy="87" r="24"/><circle class="st4" cx="292" cy="63" r="24"/><circle class="st4" cx="318" cy="48" r="24"/><circle class="st4" cx="275" cy="116" r="24"/><circle class="st4" cx="364" cy="117" r="24"/></svg>