<svg version="1.1" xmlns="http://www.w3.org/2000/svg" x="0" y="0" viewBox="0 0 512 512" xml:space="preserve"><style type="text/css">.st3{fill:#4caf50}</style><path d="M303.8 497.5C287.5 507.7 269.6 512 256 512s-31.5-4.3-47.8-14.5C156.9 465.4-161 54 256 54s99.1 411.4 47.8 443.5z" fill="#cc584c"/><path d="M205 455.5c-3.6 0-6.5 2.9-6.5 6.5s2.9 14.5 6.5 14.5 6.5-10.9 6.5-14.5-2.9-6.5-6.5-6.5zm2-40c-3.6 0-6.5 2.9-6.5 6.5s2.9 14.5 6.5 14.5 6.5-10.9 6.5-14.5-2.9-6.5-6.5-6.5zm29-249c3.6 0 6.5-10.9 6.5-14.5s-2.9-6.5-6.5-6.5-6.5 2.9-6.5 6.5 2.9 14.5 6.5 14.5zM199.5 302c0 3.6 2.9 14.5 6.5 14.5s6.5-10.9 6.5-14.5-2.9-6.5-6.5-6.5-6.5 2.9-6.5 6.5zm6.5-175.5c3.6 0 6.5-10.9 6.5-14.5s-2.9-6.5-6.5-6.5-6.5 2.9-6.5 6.5 2.9 14.5 6.5 14.5zm23 329c-3.6 0-6.5 2.9-6.5 6.5s2.9 14.5 6.5 14.5 6.5-10.9 6.5-14.5-2.9-6.5-6.5-6.5zm7-120c-3.6 0-6.5 2.9-6.5 6.5s2.9 14.5 6.5 14.5 6.5-10.9 6.5-14.5-2.9-6.5-6.5-6.5zm-20 40c-3.6 0-6.5 2.9-6.5 6.5s2.9 14.5 6.5 14.5 6.5-10.9 6.5-14.5-2.9-6.5-6.5-6.5zm10-109c3.6 0 6.5-10.9 6.5-14.5s-2.9-6.5-6.5-6.5-6.5 2.9-6.5 6.5 2.9 14.5 6.5 14.5zm-30-71c-3.6 0-6.5 2.9-6.5 6.5s2.9 14.5 6.5 14.5 6.5-10.9 6.5-14.5-2.9-6.5-6.5-6.5zm-10 140c-3.6 0-6.5 2.9-6.5 6.5s2.9 14.5 6.5 14.5 6.5-10.9 6.5-14.5-2.9-6.5-6.5-6.5zm70-19c3.6 0 6.5-10.9 6.5-14.5s-2.9-6.5-6.5-6.5-6.5 2.9-6.5 6.5 2.9 14.5 6.5 14.5zm0-100c3.6 0 6.5-10.9 6.5-14.5s-2.9-6.5-6.5-6.5-6.5 2.9-6.5 6.5 2.9 14.5 6.5 14.5zm0-90c3.6 0 6.5-10.9 6.5-14.5s-2.9-6.5-6.5-6.5-6.5 2.9-6.5 6.5 2.9 14.5 6.5 14.5zM169.5 252c0 3.6 2.9 14.5 6.5 14.5s6.5-10.9 6.5-14.5-2.9-6.5-6.5-6.5-6.5 2.9-6.5 6.5zm6.5 123.5c-3.6 0-6.5 2.9-6.5 6.5s2.9 14.5 6.5 14.5 6.5-10.9 6.5-14.5-2.9-6.5-6.5-6.5zm0 40c-3.6 0-6.5 2.9-6.5 6.5s2.9 14.5 6.5 14.5 6.5-10.9 6.5-14.5-2.9-6.5-6.5-6.5zm-10-120c-3.6 0-6.5 2.9-6.5 6.5s2.9 14.5 6.5 14.5 6.5-10.9 6.5-14.5-2.9-6.5-6.5-6.5zm0-169c3.6 0 6.5-10.9 6.5-14.5s-2.9-6.5-6.5-6.5-6.5 2.9-6.5 6.5 2.9 14.5 6.5 14.5zm20 40c3.6 0 6.5-10.9 6.5-14.5s-2.9-6.5-6.5-6.5-6.5 2.9-6.5 6.5 2.9 14.5 6.5 14.5zm-110 29c-3.6 0-6.5 2.9-6.5 6.5s2.9 14.5 6.5 14.5 6.5-10.9 6.5-14.5-2.9-6.5-6.5-6.5zm70-50c-3.6 0-6.5 2.9-6.5 6.5s2.9 14.5 6.5 14.5 6.5-10.9 6.5-14.5-2.9-6.5-6.5-6.5zm0 190c-3.6 0-6.5 2.9-6.5 6.5s2.9 14.5 6.5 14.5 6.5-10.9 6.5-14.5-2.9-6.5-6.5-6.5zm-20-40c-3.6 0-6.5 2.9-6.5 6.5s2.9 14.5 6.5 14.5 6.5-10.9 6.5-14.5-2.9-6.5-6.5-6.5zm10 80c-3.6 0-6.5 2.9-6.5 6.5s2.9 14.5 6.5 14.5 6.5-10.9 6.5-14.5-2.9-6.5-6.5-6.5zm120 21c3.6 0 6.5-10.9 6.5-14.5s-2.9-6.5-6.5-6.5-6.5 2.9-6.5 6.5 2.9 14.5 6.5 14.5zm-140-61c-3.6 0-6.5 2.9-6.5 6.5s2.9 14.5 6.5 14.5 6.5-10.9 6.5-14.5-2.9-6.5-6.5-6.5zm124 80c-3.6 0-6.5 2.9-6.5 6.5s2.9 14.5 6.5 14.5 6.5-10.9 6.5-14.5-2.9-6.5-6.5-6.5zm-178-270c-3.6 0-6.5 2.9-6.5 6.5s2.9 14.5 6.5 14.5 6.5-10.9 6.5-14.5-2.9-6.5-6.5-6.5zm84 50c-3.6 0-6.5 2.9-6.5 6.5s2.9 14.5 6.5 14.5 6.5-10.9 6.5-14.5-2.9-6.5-6.5-6.5zm-20-69c3.6 0 6.5-10.9 6.5-14.5s-2.9-6.5-6.5-6.5-6.5 2.9-6.5 6.5 2.9 14.5 6.5 14.5zm-20 119c-3.6 0-6.5 2.9-6.5 6.5s2.9 14.5 6.5 14.5 6.5-10.9 6.5-14.5-2.9-6.5-6.5-6.5zm-20-100c-3.6 0-6.5 2.9-6.5 6.5s2.9 14.5 6.5 14.5 6.5-10.9 6.5-14.5-2.9-6.5-6.5-6.5zm-10 100c-3.6 0-6.5 2.9-6.5 6.5s2.9 14.5 6.5 14.5 6.5-10.9 6.5-14.5-2.9-6.5-6.5-6.5zm53.5 6.5c0 3.6 2.9 14.5 6.5 14.5s6.5-10.9 6.5-14.5-2.9-6.5-6.5-6.5-6.5 2.9-6.5 6.5zM96 126.5c3.6 0 6.5-10.9 6.5-14.5s-2.9-6.5-6.5-6.5-6.5 2.9-6.5 6.5 2.9 14.5 6.5 14.5zm20 40c3.6 0 6.5-10.9 6.5-14.5s-2.9-6.5-6.5-6.5-6.5 2.9-6.5 6.5 2.9 14.5 6.5 14.5zm-20 129c-3.6 0-6.5 2.9-6.5 6.5s2.9 14.5 6.5 14.5 6.5-10.9 6.5-14.5-2.9-6.5-6.5-6.5zm3.5-93.5c0 3.6 2.9 14.5 6.5 14.5s6.5-10.9 6.5-14.5-2.9-6.5-6.5-6.5-6.5 2.9-6.5 6.5zM307 455.5c-3.6 0-6.5 2.9-6.5 6.5s2.9 14.5 6.5 14.5 6.5-10.9 6.5-14.5-2.9-6.5-6.5-6.5zm4.5-33.5c0-3.6-2.9-6.5-6.5-6.5s-6.5 2.9-6.5 6.5 2.9 14.5 6.5 14.5 6.5-10.9 6.5-14.5zM276 166.5c3.6 0 6.5-10.9 6.5-14.5s-2.9-6.5-6.5-6.5-6.5 2.9-6.5 6.5 2.9 14.5 6.5 14.5zm30 150c3.6 0 6.5-10.9 6.5-14.5s-2.9-6.5-6.5-6.5-6.5 2.9-6.5 6.5 2.9 14.5 6.5 14.5zm0-190c3.6 0 6.5-10.9 6.5-14.5s-2.9-6.5-6.5-6.5-6.5 2.9-6.5 6.5 2.9 14.5 6.5 14.5zm-23 329c-3.6 0-6.5 2.9-6.5 6.5s2.9 14.5 6.5 14.5 6.5-10.9 6.5-14.5-2.9-6.5-6.5-6.5zm-.5-113.5c0-3.6-2.9-6.5-6.5-6.5s-6.5 2.9-6.5 6.5 2.9 14.5 6.5 14.5 6.5-10.9 6.5-14.5zm20 40c0-3.6-2.9-6.5-6.5-6.5s-6.5 2.9-6.5 6.5 2.9 14.5 6.5 14.5 6.5-10.9 6.5-14.5zm-23-130c0 3.6 2.9 14.5 6.5 14.5s6.5-10.9 6.5-14.5-2.9-6.5-6.5-6.5-6.5 2.9-6.5 6.5zm36.5-56.5c-3.6 0-6.5 2.9-6.5 6.5s2.9 14.5 6.5 14.5 6.5-10.9 6.5-14.5-2.9-6.5-6.5-6.5zm10 140c-3.6 0-6.5 2.9-6.5 6.5s2.9 14.5 6.5 14.5 6.5-10.9 6.5-14.5-2.9-6.5-6.5-6.5zm3.5-83.5c0 3.6 2.9 14.5 6.5 14.5s6.5-10.9 6.5-14.5-2.9-6.5-6.5-6.5-6.5 2.9-6.5 6.5zm6.5 123.5c-3.6 0-6.5 2.9-6.5 6.5s2.9 14.5 6.5 14.5 6.5-10.9 6.5-14.5-2.9-6.5-6.5-6.5zm0 40c-3.6 0-6.5 2.9-6.5 6.5s2.9 14.5 6.5 14.5 6.5-10.9 6.5-14.5-2.9-6.5-6.5-6.5zm10-120c-3.6 0-6.5 2.9-6.5 6.5s2.9 14.5 6.5 14.5 6.5-10.9 6.5-14.5-2.9-6.5-6.5-6.5zm0-190c-3.6 0-6.5 2.9-6.5 6.5s2.9 14.5 6.5 14.5 6.5-10.9 6.5-14.5-2.9-6.5-6.5-6.5zm-20 61c3.6 0 6.5-10.9 6.5-14.5s-2.9-6.5-6.5-6.5-6.5 2.9-6.5 6.5 2.9 14.5 6.5 14.5zm110 29c-3.6 0-6.5 2.9-6.5 6.5s2.9 14.5 6.5 14.5 6.5-10.9 6.5-14.5-2.9-6.5-6.5-6.5zm-70-29c3.6 0 6.5-10.9 6.5-14.5s-2.9-6.5-6.5-6.5-6.5 2.9-6.5 6.5 2.9 14.5 6.5 14.5zm0 169c-3.6 0-6.5 2.9-6.5 6.5s2.9 14.5 6.5 14.5 6.5-10.9 6.5-14.5-2.9-6.5-6.5-6.5zm20-40c-3.6 0-6.5 2.9-6.5 6.5s2.9 14.5 6.5 14.5 6.5-10.9 6.5-14.5-2.9-6.5-6.5-6.5zm-10 80c-3.6 0-6.5 2.9-6.5 6.5s2.9 14.5 6.5 14.5 6.5-10.9 6.5-14.5-2.9-6.5-6.5-6.5zm-120 80c-3.6 0-6.5 2.9-6.5 6.5s2.9 14.5 6.5 14.5 6.5-10.9 6.5-14.5-2.9-6.5-6.5-6.5zm140-120c-3.6 0-6.5 2.9-6.5 6.5s2.9 14.5 6.5 14.5 6.5-10.9 6.5-14.5-2.9-6.5-6.5-6.5zm-124 80c-3.6 0-6.5 2.9-6.5 6.5s2.9 14.5 6.5 14.5 6.5-10.9 6.5-14.5-2.9-6.5-6.5-6.5zm178-270c-3.6 0-6.5 2.9-6.5 6.5s2.9 14.5 6.5 14.5 6.5-10.9 6.5-14.5-2.9-6.5-6.5-6.5zm-84 71c3.6 0 6.5-10.9 6.5-14.5s-2.9-6.5-6.5-6.5-6.5 2.9-6.5 6.5 2.9 14.5 6.5 14.5zm20-90c3.6 0 6.5-10.9 6.5-14.5s-2.9-6.5-6.5-6.5-6.5 2.9-6.5 6.5 2.9 14.5 6.5 14.5zm20 119c-3.6 0-6.5 2.9-6.5 6.5s2.9 14.5 6.5 14.5 6.5-10.9 6.5-14.5-2.9-6.5-6.5-6.5zm20-100c-3.6 0-6.5 2.9-6.5 6.5s2.9 14.5 6.5 14.5 6.5-10.9 6.5-14.5-2.9-6.5-6.5-6.5zm10 100c-3.6 0-6.5 2.9-6.5 6.5s2.9 14.5 6.5 14.5 6.5-10.9 6.5-14.5-2.9-6.5-6.5-6.5zm-66.5 6.5c0 3.6 2.9 14.5 6.5 14.5s6.5-10.9 6.5-14.5-2.9-6.5-6.5-6.5-6.5 2.9-6.5 6.5zM416 126.5c3.6 0 6.5-10.9 6.5-14.5s-2.9-6.5-6.5-6.5-6.5 2.9-6.5 6.5 2.9 14.5 6.5 14.5zM389.5 152c0 3.6 2.9 14.5 6.5 14.5s6.5-10.9 6.5-14.5-2.9-6.5-6.5-6.5-6.5 2.9-6.5 6.5zM416 295.5c-3.6 0-6.5 2.9-6.5 6.5s2.9 14.5 6.5 14.5 6.5-10.9 6.5-14.5-2.9-6.5-6.5-6.5zM399.5 202c0 3.6 2.9 14.5 6.5 14.5s6.5-10.9 6.5-14.5-2.9-6.5-6.5-6.5-6.5 2.9-6.5 6.5z" opacity=".2" fill="#eec646"/><path d="M260.5 0h-9c-3.3 0-6 2.7-6 6v31h21V6c0-3.3-2.7-6-6-6z" fill="#388e3c"/><path class="st3" d="M295 78c-5-32-39-58-39-58s-34 26-39 58c-2.2 14.1 7.2 26.4 17 38 12.4 14.7 22 26 22 26s9.6-11.3 22-26c9.8-11.6 19.2-23.9 17-38z"/><path class="st3" d="M256 20s-87 32-95 57 5 84 5 84 7-28 24-57 66-84 66-84zm0 0s87 32 95 57-5 84-5 84-7-28-24-57-66-84-66-84z"/><path class="st3" d="M255.5 19.5s-76.8 6.2-108.2 13-65.4 34-65.4 34 38.2-8.6 62.2-10.5c23.9-1.9 65.6 1.2 65.6 1.2l45.8-37.7z"/><path class="st3" d="M255.5 19.5s76.8 6.2 108.2 13 65.4 34 65.4 34S390.9 57.9 367 56s-65.6 1.2-65.6 1.2l-45.9-37.7z"/><path class="st3" d="M286.5 30s72 18 94 31 55 42 55 42-46-20-68-29-78-28-78-28l-3-16zm-61 0s-72 18-94 31-55 42-55 42 46-20 68-29 78-28 78-28l3-16z"/></svg>