<svg xmlns="http://www.w3.org/2000/svg" viewBox="0 0 512 512" xml:space="preserve"><style>.st0{fill:#e0ac7e}.st3{opacity:.3;fill:#444}</style><path class="st0" d="M248 109h16v125h-16z"/><path d="M358.6 103.2c-5.3-23-14.2-61.4-20.4-88.3-1.6-6.8-7.4-11.8-14.3-12.3C301.9.9 279.2 0 256 0s-45.9.9-67.9 2.6c-7 .5-12.7 5.5-14.3 12.3-6.3 27-15.2 65.3-20.4 88.3-1 4.3 1.7 8.6 6 9.6C188.1 119.3 221 123 256 123s67.9-3.7 96.6-10.3c4.3-.9 7-5.2 6-9.5z" fill="#a18267"/><path class="st0" d="M250 242h12v270h-12z"/><path class="st0" d="M323 252H189l-43 260h18l58-215h68l58 215h18z"/><path fill="#c99c75" d="M297 226.8h-82l-83 13.1V252h248v-12.1z"/><path class="st3" d="M215 238.8v-12l-83 13.1V252l83.9-13.2z"/><path opacity=".15" fill="#444" d="M256 226.8h-41v12h82v-12z"/><path class="st3" d="M297 238.8v-12l83 13.1V252l-83.9-13.2z"/><path fill="#b58f6e" d="M250 242h12v55h-12z"/></svg>