<svg version="1.1" xmlns="http://www.w3.org/2000/svg" x="0" y="0" viewBox="0 0 512 512" xml:space="preserve"><style type="text/css">.st3{fill:#667e8e}.st5{opacity:.15;fill:#444}</style><path d="M139 132.5v172h114c46.9 0 85 38.1 85 85h166v-257H139z" fill="#826049"/><path d="M0 122.5h512v10H0zm494 267v-257h10v257zM0 184.5h139v10H0z" fill="#e0ac7e"/><path d="M0 194.5h139v65H0zm0 65h139v65H0zm0 65h139v65H0z" fill="#ddc4b0"/><path d="M383 352.5v10h19v27h10v-27h82v-10zm-254-168v-52h10v52z" fill="#b78967"/><path class="st3" d="M40 174.5v-42H29v42l-5 7v3h21v-3z"/><path class="st5" d="M48.3 222c5 9.8 16.1 17.5 27 17.5s16.9-7.7 15.5-17.5H48.3zm0 65c5 9.8 16.1 17.5 27 17.5s16.9-7.7 15.5-17.5H48.3zm0 65c5 9.8 16.1 17.5 27 17.5s16.9-7.7 15.5-17.5H48.3z"/><path class="st3" d="M48.3 222c2.5 5.8 11.1 10 21.2 10s18.7-4.2 21.2-10H48.3zm0 65c2.5 5.8 11.1 10 21.2 10s18.7-4.2 21.2-10H48.3zm0 65c2.5 5.8 11.1 10 21.2 10s18.7-4.2 21.2-10H48.3z"/><path d="M0 256.5h139v3H0zm0 65h139v3H0zm0 65h139v3H0z" opacity=".25" fill="#444"/><path class="st5" d="M139 254.1l355 83.4v-205H139z"/></svg>