<svg version="1.1" xmlns="http://www.w3.org/2000/svg" x="0" y="0" viewBox="0 0 512 512" xml:space="preserve"><style type="text/css">.st1{fill:#e0ac7e}.st6{fill:#038387}.st7{fill:#36434f}</style><path d="M155 0h202v512H155V0z" fill="#826049"/><path class="st1" d="M150.5 0h211v6h-211z"/><path class="st1" d="M150.5 0h6v512h-6zm205 0h6v512h-6z"/><path class="st1" d="M150.5 88h211v6h-211zm0 87h211v6h-211z"/><path fill="#b78967" d="M156.5 494.5h199V512h-199z"/><path class="st1" d="M150.5 263h211v231.5h-211z"/><path d="M268.4 301h-.2c-1.8-.3-3.3-1.2-3.3-2v-26.8c0-1.4 2-1.1 4.4.5l.3.2c2.1 1.5 3.7 3.5 3.6 4.7l-1.7 22.8c-.1.5-1.4.8-3.1.6zm-22 0h-.2c-1.8-.3-3.3-1.2-3.3-2v-26.8c0-1.4 2-1.1 4.4.5l.3.2c2.1 1.5 3.7 3.5 3.6 4.7l-1.7 22.8c-.1.5-1.4.8-3.1.6z" opacity=".15" fill="#444"/><path d="M245.1 300.4h-.1c-1.1 0-2-.9-2-2v-27.9c0-1.1.9-2 2-2h.1c1.1 0 2 .9 2 2v27.9c0 1.1-.9 2-2 2zm22 0h-.1c-1.1 0-2-.9-2-2v-27.9c0-1.1.9-2 2-2h.1c1.1 0 2 .9 2 2v27.9c0 1.1-.9 2-2 2z" fill="#f4f4f4"/><path opacity=".15" fill="#444" d="M254.5 263h3v231.5h-3z"/><path class="st6" d="M156.5 189.3h4V263h-4v-73.7z"/><path class="st7" d="M159.5 189.3h1V263h-1v-73.7z"/><path class="st6" d="M160.5 189.3h4V263h-4v-73.7z"/><path class="st7" d="M163.5 189.3h1V263h-1v-73.7z"/><path class="st6" d="M164.5 189.3h4V263h-4v-73.7z"/><path class="st7" d="M167.5 189.3h1V263h-1v-73.7z"/><path class="st6" d="M168.5 189.3h4V263h-4v-73.7z"/><path class="st7" d="M171.5 189.3h1V263h-1v-73.7z"/><path class="st6" d="M172.5 189.3h4V263h-4v-73.7z"/><path class="st7" d="M175.5 189.3h1V263h-1v-73.7z"/><path class="st6" d="M176.5 189.3h4V263h-4v-73.7z"/><path class="st7" d="M179.5 189.3h1V263h-1v-73.7z"/><path class="st6" d="M180.5 189.3h4V263h-4v-73.7z"/><path class="st7" d="M183.5 189.3h1V263h-1v-73.7z"/><path class="st6" d="M184.5 189.3h4V263h-4v-73.7z"/><path class="st7" d="M187.5 189.3h1V263h-1v-73.7z"/><path class="st6" d="M188.5 189.3h4V263h-4v-73.7z"/><path class="st7" d="M191.5 189.3h1V263h-1v-73.7z"/><path class="st6" d="M192.5 189.3h4V263h-4v-73.7z"/><path class="st7" d="M195.5 189.3h1V263h-1v-73.7z"/><path class="st6" d="M196.5 189.3h4V263h-4v-73.7z"/><path class="st7" d="M199.5 189.3h1V263h-1v-73.7z"/><path class="st6" d="M200.5 189.3h4V263h-4v-73.7z"/><path class="st7" d="M203.5 189.3h1V263h-1v-73.7z"/><path class="st6" d="M204.5 189.3h4V263h-4v-73.7z"/><path class="st7" d="M207.5 189.3h1V263h-1v-73.7z"/><path class="st6" d="M208.5 189.3h4V263h-4v-73.7z"/><path class="st7" d="M211.5 189.3h1V263h-1v-73.7z"/><path class="st6" d="M212.5 189.3h4V263h-4v-73.7z"/><path class="st7" d="M215.5 189.3h1V263h-1v-73.7z"/><path class="st6" d="M216.5 189.3h4V263h-4v-73.7z"/><path class="st7" d="M219.5 189.3h1V263h-1v-73.7z"/><path class="st6" d="M220.5 189.3h4V263h-4v-73.7z"/><path class="st7" d="M223.5 189.3h1V263h-1v-73.7z"/><path class="st6" d="M224.5 189.3h4V263h-4v-73.7z"/><path class="st7" d="M227.5 189.3h1V263h-1v-73.7z"/><path class="st6" d="M228.5 189.3h4V263h-4v-73.7z"/><path class="st7" d="M231.5 189.3h1V263h-1v-73.7z"/><path class="st6" d="M232.5 189.3h4V263h-4v-73.7z"/><path class="st7" d="M235.5 189.3h1V263h-1v-73.7z"/><path class="st6" d="M236.5 189.3h4V263h-4v-73.7z"/><path class="st7" d="M239.5 189.3h1V263h-1v-73.7z"/><path class="st6" d="M240.5 189.3h4V263h-4v-73.7z"/><path class="st7" d="M243.5 189.3h1V263h-1v-73.7z"/><path class="st6" d="M244.5 189.3h4V263h-4v-73.7z"/><path class="st7" d="M247.5 189.3h1V263h-1v-73.7z"/><path class="st6" d="M248.5 189.3h4V263h-4v-73.7z"/><path class="st7" d="M251.5 189.3h1V263h-1v-73.7z"/><path class="st6" d="M252.5 189.3h4V263h-4v-73.7z"/><path class="st7" d="M255.5 189.3h1V263h-1v-73.7z"/><path class="st6" d="M256.5 189.3h4V263h-4v-73.7z"/><path class="st7" d="M259.5 189.3h1V263h-1v-73.7z"/><path class="st6" d="M260.5 189.3h4V263h-4v-73.7z"/><path class="st7" d="M263.5 189.3h1V263h-1v-73.7z"/><path class="st6" d="M264.5 189.3h4V263h-4v-73.7z"/><path class="st7" d="M267.5 189.3h1V263h-1v-73.7z"/><path class="st6" d="M268.5 189.3h4V263h-4v-73.7z"/><path class="st7" d="M271.5 189.3h1V263h-1v-73.7z"/><path class="st6" d="M272.5 189.3h4V263h-4v-73.7z"/><path class="st7" d="M275.5 189.3h1V263h-1v-73.7z"/><path class="st6" d="M276.5 189.3h4V263h-4v-73.7z"/><path class="st7" d="M279.5 189.3h1V263h-1v-73.7z"/><path class="st6" d="M280.5 189.3h4V263h-4v-73.7z"/><path class="st7" d="M283.5 189.3h1V263h-1v-73.7z"/><path class="st6" d="M284.5 189.3h4V263h-4v-73.7z"/><path class="st7" d="M287.5 189.3h1V263h-1v-73.7z"/><path class="st6" d="M288.5 189.3h4V263h-4v-73.7z"/><path class="st7" d="M291.5 189.3h1V263h-1v-73.7z"/><path class="st6" d="M292.5 189.3h4V263h-4v-73.7z"/><path class="st7" d="M295.5 189.3h1V263h-1v-73.7z"/><path class="st6" d="M296.5 189.3h4V263h-4v-73.7z"/><path class="st7" d="M299.5 189.3h1V263h-1v-73.7z"/><path class="st6" d="M300.5 189.3h4V263h-4v-73.7z"/><path class="st7" d="M303.5 189.3h1V263h-1v-73.7z"/><path class="st6" d="M304.5 189.3h4V263h-4v-73.7z"/><path class="st7" d="M307.5 189.3h1V263h-1v-73.7z"/><path class="st6" d="M308.5 189.3h4V263h-4v-73.7z"/><path class="st7" d="M311.5 189.3h1V263h-1v-73.7z"/><path class="st6" d="M312.5 189.3h4V263h-4v-73.7z"/><path class="st7" d="M315.5 189.3h1V263h-1v-73.7z"/><path class="st6" d="M316.5 189.3h13V263h-13v-73.7z"/><path class="st7" d="M328.5 189.3h1V263h-1v-73.7z"/><path class="st6" d="M329.5 189.3h13V263h-13v-73.7z"/><path class="st7" d="M341.5 189.3h1V263h-1v-73.7z"/><path class="st6" d="M342.5 226h13v37h-13v-37z"/><path class="st7" d="M354.5 226h1v37h-1v-37z"/><path class="st6" d="M156.5 116h7v59h-7v-59z"/><path class="st7" d="M162.5 116h1v59h-1v-59z"/><path class="st6" d="M163.5 116h7v59h-7v-59z"/><path class="st7" d="M169.5 116h1v59h-1v-59z"/><path class="st6" d="M170.5 116h7v59h-7v-59z"/><path class="st7" d="M176.5 116h1v59h-1v-59z"/><path class="st6" d="M177.5 129h7v46h-7v-46z"/><path class="st7" d="M183.5 129h1v46h-1v-46z"/><path class="st6" d="M184.5 129h7v46h-7v-46z"/><path class="st7" d="M190.5 129h1v46h-1v-46z"/><path class="st6" d="M191.5 126h7v49h-7v-49z"/><path class="st7" d="M197.5 126h1v49h-1v-49z"/><path class="st6" d="M198.5 129h7v46h-7v-46z"/><path class="st7" d="M204.5 129h1v46h-1v-46z"/><path class="st6" d="M205.5 132h7v43h-7v-43z"/><path class="st7" d="M211.5 132h1v43h-1v-43z"/><path class="st6" d="M212.5 132h7v43h-7v-43z"/><path class="st7" d="M218.5 132h1v43h-1v-43z"/><path class="st6" d="M219.5 129h7v46h-7v-46z"/><path class="st7" d="M225.5 129h1v46h-1v-46z"/><path class="st6" d="M226.5 126h7v49h-7v-49z"/><path class="st7" d="M232.5 126h1v49h-1v-49z"/><path class="st6" d="M233.5 129h7v46h-7v-46z"/><path class="st7" d="M239.5 129h1v46h-1v-46z"/><path class="st6" d="M240.5 132h7v43h-7v-43z"/><path class="st7" d="M246.5 132h1v43h-1v-43z"/><path class="st6" d="M247.5 126h7v49h-7v-49z"/><path class="st7" d="M253.5 126h1v49h-1v-49z"/><path class="st6" d="M254.5 126h7v49h-7v-49z"/><path class="st7" d="M260.5 126h1v49h-1v-49z"/><path class="st6" d="M261.5 126h7v49h-7v-49z"/><path class="st7" d="M267.5 126h1v49h-1v-49z"/><path class="st6" d="M268.5 129h7v46h-7v-46z"/><path class="st7" d="M274.5 129h1v46h-1v-46z"/><path class="st6" d="M275.5 129h7v46h-7v-46z"/><path class="st7" d="M281.5 129h1v46h-1v-46z"/><path class="st6" d="M282.5 126h7v49h-7v-49z"/><path class="st7" d="M288.5 126h1v49h-1v-49z"/><path class="st6" d="M289.5 135h7v40h-7v-40z"/><path class="st7" d="M295.5 135h1v40h-1v-40z"/><path class="st6" d="M296.5 135h7v40h-7v-40z"/><path class="st7" d="M302.5 135h1v40h-1v-40z"/><path class="st6" d="M303.5 126h7v49h-7v-49z"/><path class="st7" d="M309.5 126h1v49h-1v-49z"/><path class="st6" d="M310.5 135h7v40h-7v-40z"/><path class="st7" d="M316.5 135h1v40h-1v-40z"/><path class="st6" d="M317.5 135h7v40h-7v-40z"/><path class="st7" d="M323.5 135h1v40h-1v-40z"/><path class="st6" d="M324.5 135h7v40h-7v-40z"/><path class="st7" d="M330.5 135h1v40h-1v-40z"/><path class="st6" d="M331.5 132h7v43h-7v-43z"/><path class="st7" d="M337.5 132h1v43h-1v-43z"/><path class="st6" d="M338.5 129h7v46h-7v-46z"/><path class="st7" d="M344.5 129h1v46h-1v-46z"/><path class="st6" d="M345.5 129h7v46h-7v-46z"/><path class="st7" d="M351.5 129h1v46h-1v-46z"/><path class="st6" d="M156.5 29h7v59h-7V29z"/><path class="st7" d="M162.5 29h1v59h-1V29z"/><path class="st6" d="M163.5 29h7v59h-7V29z"/><path class="st7" d="M169.5 29h1v59h-1V29z"/><path class="st6" d="M170.5 42h7v46h-7V42z"/><path class="st7" d="M176.5 42h1v46h-1V42z"/><path class="st6" d="M177.5 40h7v48h-7V40z"/><path class="st7" d="M183.5 40h1v48h-1V40z"/><path class="st6" d="M184.5 40h7v48h-7V40z"/><path class="st7" d="M190.5 40h1v48h-1V40z"/><path class="st6" d="M191.5 40h7v48h-7V40z"/><path class="st7" d="M197.5 40h1v48h-1V40z"/><path class="st6" d="M198.5 42h7v46h-7V42z"/><path class="st7" d="M204.5 42h1v46h-1V42z"/><path class="st6" d="M205.5 40h7v48h-7V40z"/><path class="st7" d="M211.5 40h1v48h-1V40z"/><path class="st6" d="M212.5 40h7v48h-7V40z"/><path class="st7" d="M218.5 40h1v48h-1V40z"/><path class="st6" d="M219.5 40h7v48h-7V40z"/><path class="st7" d="M225.5 40h1v48h-1V40z"/><path class="st6" d="M226.5 46h7v42h-7V46z"/><path class="st7" d="M232.5 46h1v42h-1V46z"/><path class="st6" d="M233.5 46h7v42h-7V46z"/><path class="st7" d="M239 46h1v42h-1V46z"/><path class="st6" d="M240.5 42h7v46h-7V42z"/><path class="st7" d="M246.5 42h1v46h-1V42z"/><path class="st6" d="M247.5 42h7v46h-7V42z"/><path class="st7" d="M253.5 42h1v46h-1V42z"/><path class="st6" d="M254.5 39h7v49h-7V39z"/><path class="st7" d="M260.5 39h1v49h-1V39z"/><path class="st6" d="M261.5 46h7v42h-7V46z"/><path class="st7" d="M267.5 46h1v42h-1V46z"/><path class="st6" d="M268.5 46h7v42h-7V46z"/><path class="st7" d="M274.5 46h1v42h-1V46z"/><path class="st6" d="M275.5 39h7v49h-7V39z"/><path class="st7" d="M281.5 39h1v49h-1V39z"/><path class="st6" d="M282.5 39h7v49h-7V39z"/><path class="st7" d="M288.5 39h1v49h-1V39z"/><path class="st6" d="M289.5 29h7v59h-7V29z"/><path class="st7" d="M295.5 29h1v59h-1V29z"/><path class="st6" d="M296.5 39h7v49h-7V39z"/><path class="st7" d="M302.5 39h1v49h-1V39z"/><path class="st6" d="M303.5 39h7v49h-7V39z"/><path class="st7" d="M309.5 39h1v49h-1V39z"/><path class="st6" d="M310.5 39h7v49h-7V39z"/><path class="st7" d="M316.5 39h1v49h-1V39z"/><path class="st6" d="M317.5 42h7v46h-7V42z"/><path class="st7" d="M323.5 42h1v46h-1V42z"/><path class="st6" d="M324.5 39h7v49h-7V39z"/><path class="st7" d="M330.5 39h1v49h-1V39z"/><path class="st6" d="M331.5 43h7v45h-7V43z"/><path class="st7" d="M337.5 43h1v45h-1V43z"/><path class="st6" d="M338.5 39h7v49h-7V39z"/><path class="st7" d="M344.5 39h1v49h-1V39z"/><path class="st6" d="M355.5 11v7H314v-7h41.5z"/><path class="st7" d="M355.5 17v1H314v-1h41.5z"/><path class="st6" d="M351.5 18v7H306v-7h45.5z"/><path class="st7" d="M351.5 24v1H306v-1h45.5z"/><path class="st6" d="M355.5 25v7H311v-7h44.5z"/><path class="st7" d="M355.5 31v1H311v-1h44.5z"/><path class="st6" d="M354 32v7h-47.5v-7H354z"/><path class="st7" d="M354 38v1h-47.5v-1H354z"/><path class="st6" d="M286.5 98v7H245v-7h41.5z"/><path class="st7" d="M286.5 104v1H245v-1h41.5z"/><path class="st6" d="M300 105v7h-53v-7h53z"/><path class="st7" d="M300 111v1h-53v-1h53z"/><path class="st6" d="M295 112v7h-50v-7h50z"/><path class="st7" d="M295 118v1h-50v-1h50z"/><path class="st6" d="M295 119v7h-47.5v-7H295z"/><path class="st7" d="M295 125v1h-47.5v-1H295z"/><path class="st6" d="M345.5 44.4l7-.4 2.4 43.6-7 .4-2.4-43.6z"/><path class="st7" d="M351.5 44.1l1-.1 2.4 43.6-1 .1-2.4-43.6z"/></svg>