<svg version="1.1" xmlns="http://www.w3.org/2000/svg" x="0" y="0" viewBox="0 0 512 512" xml:space="preserve"><style type="text/css">.st0{fill:#e0ac7e}.st1{opacity:.15;fill:#444}.st3{fill:#36434f}</style><path class="st0" d="M334.9 256h-47.2L398 512h22zm-135.3 15l-83.2 241h17l83.1-241z"/><path class="st0" d="M365 249.4c1.9-.5 3-2.3 2.5-4.2l-2-7.4-168.7 13.6c-17.3 1.4-33.2-9.8-37.7-26.6L111.7 48.1l-10.1 6.7c-1.9 1.3-2.9 3.5-2.6 5.8l25.6 201.6c3.6 28.1 30.2 47.3 58 41.9L344 272.4c1.6-.3 2.9-1.6 3.2-3.2 1.4-9.2 8.2-17.2 17.8-19.8z"/><path class="st1" d="M179.6 248.6l11 46c1 4.2 5.1 6.8 9.3 6L336.1 274c4.5-.9 7.3-5.3 6.2-9.7l-5.8-24-139.8 11.2c-6 .5-11.8-.6-17.1-2.9z"/><path d="M176.4 255l-.8-12c-.1-1.1.8-2.1 1.9-2.1l234-14.7c1.1-.1 2.1.8 2.1 1.9l.8 12c.1 1.1-.8 2.1-1.9 2.1l-234 14.7c-1.1 0-2.1-.8-2.1-1.9zm-29.6-130.3l-11.6 3.1c-1.1.3-2.2-.3-2.4-1.4L100.4 5.6c-.3-1.1.3-2.2 1.4-2.4L113.4.1c1.1-.3 2.2.3 2.4 1.4l32.4 120.7c.3 1.1-.4 2.2-1.4 2.5z" fill="#a18267"/><path class="st1" d="M111.7 48.1l-10.1 6.7c-1.9 1.3-2.9 3.5-2.6 5.8l7.1 55.6c7 .2 15.6.5 24.1.8l-18.5-68.9z"/><circle class="st3" cx="118.3" cy="107.4" r="3"/><circle class="st3" cx="106.9" cy="64.9" r="3"/><circle class="st3" cx="270" cy="279" r="3"/><circle class="st3" cx="326" cy="269" r="3"/><circle class="st3" cx="231" cy="263" r="3"/><circle class="st3" cx="193" cy="263" r="3"/></svg>