<svg version="1.1" xmlns="http://www.w3.org/2000/svg" x="0" y="0" viewBox="0 0 512 512" xml:space="preserve"><style type="text/css">.st1{fill:#e0ac7e}</style><path d="M155 0h202v512H155V0z" fill="#826049"/><path class="st1" d="M150.5 0h211v6h-211z"/><path class="st1" d="M150.5 0h6v512h-6zm205 0h6v512h-6z"/><path class="st1" d="M150.5 88h211v6h-211zm0 87h211v6h-211z"/><path fill="#b78967" d="M156.5 494.5h199V512h-199z"/><path class="st1" d="M150.5 263h211v231.5h-211z"/><path d="M268.4 301h-.2c-1.8-.3-3.3-1.2-3.3-2v-26.8c0-1.4 2-1.1 4.4.5l.3.2c2.1 1.5 3.7 3.5 3.6 4.7l-1.7 22.8c-.1.5-1.4.8-3.1.6zm-22 0h-.2c-1.8-.3-3.3-1.2-3.3-2v-26.8c0-1.4 2-1.1 4.4.5l.3.2c2.1 1.5 3.7 3.5 3.6 4.7l-1.7 22.8c-.1.5-1.4.8-3.1.6z" opacity=".15" fill="#444"/><path d="M245.1 300.4h-.1c-1.1 0-2-.9-2-2v-27.9c0-1.1.9-2 2-2h.1c1.1 0 2 .9 2 2v27.9c0 1.1-.9 2-2 2zm22 0h-.1c-1.1 0-2-.9-2-2v-27.9c0-1.1.9-2 2-2h.1c1.1 0 2 .9 2 2v27.9c0 1.1-.9 2-2 2z" fill="#f4f4f4"/><path opacity=".15" fill="#444" d="M254.5 263h3v231.5h-3z"/></svg>