<svg version="1.1" xmlns="http://www.w3.org/2000/svg" x="0" y="0" viewBox="0 0 512 512" xml:space="preserve"><style type="text/css">.st0{fill:#e0ac7e}.st3{fill:#36434f}</style><path class="st0" d="M436.7 42.3c-13.5-11.4-33.7-9.6-45.1 3.9L37.4 468.3c-10.9 13-9.7 32.1 2.4 43.7h44.3c.8-.8 1.6-1.6 2.4-2.5L440.6 87.4c11.4-13.5 9.6-33.7-3.9-45.1z"/><path class="st0" d="M75.3 42.3c13.5-11.4 33.7-9.6 45.1 3.9l354.2 422.1c10.9 13 9.7 32.1-2.4 43.7h-44.3c-.8-.8-1.6-1.6-2.4-2.5L71.4 87.4C60 73.9 61.8 53.7 75.3 42.3z"/><path class="st0" d="M449 96H63c-17.7 0-32-14.3-32-32s14.3-32 32-32h386c17.7 0 32 14.3 32 32s-14.3 32-32 32z"/><path d="M449 32H63c-17.7 0-32 14.3-32 32h450c0-17.7-14.3-32-32-32z" opacity=".15" fill="#444"/><path d="M195.5 0h121v32h-121zM26.3 0h121v32h-121zm338.5 0h121v32h-121z" fill="#a18267"/><circle class="st3" cx="256" cy="256" r="10"/><circle class="st3" cx="97.5" cy="64" r="10"/><circle class="st3" cx="414.5" cy="64" r="10"/></svg>