<svg version="1.1" xmlns="http://www.w3.org/2000/svg" x="0" y="0" viewBox="0 0 512 512" xml:space="preserve"><path d="M139 132.5v172h114c46.9 0 85 38.1 85 85h166v-257H139z" fill="#826049"/><path d="M0 122.5h512v10H0zm494 10h10v257h-10zm-494 52h139v10H0z" fill="#e0ac7e"/><path d="M0 194.5h139v65H0zm0 65h139v65H0zm0 65h139v65H0z" fill="#ddc4b0"/><path d="M383 352.5v10h19v27h10v-27h82v-10zm-254-220h10v52h-10z" fill="#b78967"/><path d="M40 174.5v-42H29v42l-5 7v3h21v-3zm8.3 47.5c2.5 5.8 11.1 10 21.2 10s18.7-4.2 21.2-10H48.3zm0 65c2.5 5.8 11.1 10 21.2 10s18.7-4.2 21.2-10H48.3zm0 65c2.5 5.8 11.1 10 21.2 10s18.7-4.2 21.2-10H48.3z" fill="#667e8e"/><path d="M0 256.5h139v3H0zm0 65h139v3H0zm0 65h139v3H0z" opacity=".25" fill="#444"/></svg>