<svg version="1.1" xmlns="http://www.w3.org/2000/svg" x="0" y="0" viewBox="0 0 512 512" xml:space="preserve"><style type="text/css">.st0{fill:#ddc4b0}.st1,.st2{enable-background:new}.st1{opacity:.15;fill:#444}.st2{fill:#c6b1a0}.st3{fill:#f4f4f4}.st4{fill:#e0ac7e}</style><path class="st0" d="M8 86.5h248v107H8v-107z"/><path class="st1" d="M151.3 139.8l2.5 7.1c1.1 3.2-.3 5.6-3.1 5.2l-33.8-5.1c-1.3-.2-2.4-2.1-2.4-4.1v-4.7c0-1.8.9-3.2 2.1-3.2h28.8c2.4 0 5 2.1 5.9 4.8z"/><path class="st2" d="M8 188.5h248v5H8v-5z"/><path class="st3" d="M149.5 138v4c0 1.7-1.3 3-3 3h-29c-1.7 0-3-1.3-3-3v-4c0-1.7 1.3-3 3-3h29c1.7 0 3 1.3 3 3z"/><path class="st4" d="M0 78h512v8.5H0V78z"/><path class="st4" d="M0 83h8.5v351H0zm503.5 0h8.5v351h-8.5z"/><path class="st4" d="M0 407.5h512v8.5H0v-8.5z"/><path class="st0" d="M8 193.5h248v107H8v-107z"/><path class="st1" d="M151.3 246.8l2.5 7.1c1.1 3.2-.3 5.6-3.1 5.2l-33.8-5.1c-1.3-.2-2.4-2.1-2.4-4.1v-4.7c0-1.8.9-3.2 2.1-3.2h28.8c2.4 0 5 2.1 5.9 4.8z"/><path class="st2" d="M8 295.5h248v5H8v-5z"/><path class="st3" d="M149.5 245v4c0 1.7-1.3 3-3 3h-29c-1.7 0-3-1.3-3-3v-4c0-1.7 1.3-3 3-3h29c1.7 0 3 1.3 3 3z"/><path class="st0" d="M8 300.5h248v107H8v-107z"/><path class="st1" d="M151.3 353.8l2.5 7.1c1.1 3.2-.3 5.6-3.1 5.2l-33.8-5.1c-1.3-.2-2.4-2.1-2.4-4.1v-4.7c0-1.8.9-3.2 2.1-3.2h28.8c2.4 0 5 2.1 5.9 4.8z"/><path class="st2" d="M8 402.5h248v5H8v-5z"/><path class="st3" d="M149.5 352v4c0 1.7-1.3 3-3 3h-29c-1.7 0-3-1.3-3-3v-4c0-1.7 1.3-3 3-3h29c1.7 0 3 1.3 3 3z"/><path class="st0" d="M255.5 86.5h248v107h-248v-107z"/><path class="st1" d="M398.8 139.8l2.5 7.1c1.1 3.2-.3 5.6-3.1 5.2l-33.8-5.1c-1.3-.2-2.4-2.1-2.4-4.1v-4.7c0-1.8.9-3.2 2.1-3.2h28.8c2.4 0 5 2.1 5.9 4.8z"/><path class="st2" d="M255.5 188.5h248v5h-248v-5z"/><path class="st3" d="M397 138v4c0 1.7-1.3 3-3 3h-29c-1.7 0-3-1.3-3-3v-4c0-1.7 1.3-3 3-3h29c1.7 0 3 1.3 3 3z"/><path class="st0" d="M255.5 193.5h248v107h-248v-107z"/><path class="st1" d="M398.8 246.8l2.5 7.1c1.1 3.2-.3 5.6-3.1 5.2l-33.8-5.1c-1.3-.2-2.4-2.1-2.4-4.1v-4.7c0-1.8.9-3.2 2.1-3.2h28.8c2.4 0 5 2.1 5.9 4.8z"/><path class="st2" d="M255.5 295.5h248v5h-248v-5z"/><path class="st3" d="M397 245v4c0 1.7-1.3 3-3 3h-29c-1.7 0-3-1.3-3-3v-4c0-1.7 1.3-3 3-3h29c1.7 0 3 1.3 3 3z"/><path class="st0" d="M255.5 300.5h248v107h-248v-107z"/><path class="st1" d="M398.8 353.8l2.5 7.1c1.1 3.2-.3 5.6-3.1 5.2l-33.8-5.1c-1.3-.2-2.4-2.1-2.4-4.1v-4.7c0-1.8.9-3.2 2.1-3.2h28.8c2.4 0 5 2.1 5.9 4.8z"/><path class="st2" d="M255.5 402.5h248v5h-248v-5z"/><path class="st3" d="M397 352v4c0 1.7-1.3 3-3 3h-29c-1.7 0-3-1.3-3-3v-4c0-1.7 1.3-3 3-3h29c1.7 0 3 1.3 3 3z"/><path class="st2" d="M253.5 407.5v-321h5v321h-5z"/><path class="st1" d="M512 308.7L0 261.6V434h8.5v-18h495v18h8.5v-26.5z"/></svg>