<svg version="1.1" xmlns="http://www.w3.org/2000/svg" x="0" y="0" viewBox="0 0 512 512" xml:space="preserve"><style type="text/css">.st3{fill:#038387}.st4{fill:#36434f}</style><path fill="#826049" d="M199 23h114v489H199z"/><path d="M198 342h116v10H198zm0-165h116v10H198zm0-158h116v10H198zm0 483h116v10H198z" fill="#b78967"/><path d="M189 0h10v512h-10zm124 0h10v512h-10z" fill="#e0ac7e"/><path class="st3" d="M201 264h6v78h-6z"/><path class="st4" d="M207 264h1v78h-1z"/><path class="st3" d="M208 264h6v78h-6z"/><path class="st4" d="M214 264h1v78h-1z"/><path class="st3" d="M215 264h6v78h-6z"/><path class="st4" d="M221 264h1v78h-1z"/><path class="st3" d="M222 264h6v78h-6z"/><path class="st4" d="M228 264h1v78h-1z"/><path class="st3" d="M229 264h6v78h-6z"/><path class="st4" d="M235 264h1v78h-1z"/><path class="st3" d="M236 264h6v78h-6z"/><path class="st4" d="M242 264h1v78h-1z"/><path class="st3" d="M243 264h6v78h-6z"/><path class="st4" d="M249 264h1v78h-1z"/><path class="st3" d="M250 264h6v78h-6z"/><path class="st4" d="M256 264h1v78h-1z"/><path class="st3" d="M257 264h6v78h-6z"/><path class="st4" d="M263 264h1v78h-1z"/><path class="st3" d="M264 264h6v78h-6z"/><path class="st4" d="M270 264h1v78h-1z"/><path class="st3" d="M271 264h6v78h-6z"/><path class="st4" d="M277 264h1v78h-1z"/><path class="st3" d="M278 264h6v78h-6z"/><path class="st4" d="M284 264h1v78h-1z"/><path class="st3" d="M285 264h6v78h-6z"/><path class="st4" d="M291 264h1v78h-1z"/><path class="st3" d="M292 264h6v78h-6z"/><path class="st4" d="M298 264h1v78h-1z"/><path class="st3" d="M299 264h6v78h-6z"/><path class="st4" d="M305 264h1v78h-1z"/><path class="st3" d="M306 264h6v78h-6z"/><path class="st4" d="M312 264h1v78h-1z"/><path class="st3" d="M306 208v6h-78v-6z"/><path class="st4" d="M306 214v1h-78v-1z"/><path class="st3" d="M302 215v6h-78v-6z"/><path class="st4" d="M302 221v1h-78v-1z"/><path class="st3" d="M309 222v6h-78v-6z"/><path class="st4" d="M309 228v1h-78v-1z"/><path class="st3" d="M306 229v6h-78v-6z"/><path class="st4" d="M306 235v1h-78v-1z"/><path class="st3" d="M306 236v6h-78v-6z"/><path class="st4" d="M306 242v1h-78v-1z"/><path class="st3" d="M310 243v6h-78v-6z"/><path class="st4" d="M310 249v1h-78v-1z"/><path class="st3" d="M310 250v6h-78v-6z"/><path class="st4" d="M310 256v1h-78v-1z"/><path class="st3" d="M306 257v6h-78v-6z"/><path class="st4" d="M306 263v1h-78v-1z"/><path class="st3" d="M201 99h6v78h-6z"/><path class="st4" d="M207 99h1v78h-1z"/><path class="st3" d="M208 99h6v78h-6z"/><path class="st4" d="M214 99h1v78h-1z"/><path class="st3" d="M215 99h6v78h-6z"/><path class="st4" d="M221 99h1v78h-1z"/><path class="st3" d="M222 99h6v78h-6z"/><path class="st4" d="M228 99h1v78h-1z"/><path class="st3" d="M229 99h6v78h-6z"/><path class="st4" d="M235 99h1v78h-1z"/><path class="st3" d="M236 99h6v78h-6z"/><path class="st4" d="M242 99h1v78h-1z"/><path class="st3" d="M243 99h6v78h-6z"/><path class="st4" d="M249 99h1v78h-1z"/><path class="st3" d="M250 99h6v78h-6z"/><path class="st4" d="M256 99h1v78h-1z"/><path class="st3" d="M257 99h6v78h-6z"/><path class="st4" d="M263 99h1v78h-1z"/><path class="st3" d="M264 99h6v78h-6z"/><path class="st4" d="M270 99h1v78h-1z"/><path class="st3" d="M271 99h6v78h-6z"/><path class="st4" d="M277 99h1v78h-1z"/><path class="st3" d="M278 99h6v78h-6z"/><path class="st4" d="M284 99h1v78h-1z"/><path class="st3" d="M285 99h6v78h-6z"/><path class="st4" d="M291 99h1v78h-1z"/><path class="st3" d="M292 99h6v78h-6z"/><path class="st4" d="M298 99h1v78h-1z"/><path class="st3" d="M299 99h6v78h-6z"/><path class="st4" d="M305 99h1v78h-1z"/><path class="st3" d="M306 99h6v78h-6z"/><path class="st4" d="M312 99h1v78h-1z"/><path class="st3" d="M302 57v6h-78v-6z"/><path class="st4" d="M302 63v1h-78v-1z"/><path class="st3" d="M313 64v6h-78v-6z"/><path class="st4" d="M313 70v1h-78v-1z"/><path class="st3" d="M311 71v6h-78v-6z"/><path class="st4" d="M311 77v1h-78v-1z"/><path class="st3" d="M313 78v6h-78v-6z"/><path class="st4" d="M313 84v1h-78v-1z"/><path class="st3" d="M313 85v6h-78v-6z"/><path class="st4" d="M313 91v1h-78v-1z"/><path class="st3" d="M313 92v6h-78v-6z"/><path class="st4" d="M313 98v1h-78v-1z"/><path d="M199 352v19.2l114 54.3V352zm0-165v19.2l114 54.3V187zm0-158v19.2l114 54.3V29z" opacity=".15" fill="#444"/></svg>