<svg version="1.1" xmlns="http://www.w3.org/2000/svg" x="0" y="0" viewBox="0 0 512 512" xml:space="preserve"><style type="text/css">.st3{fill:#ff8327}.st4{fill:#f4f4f4}</style><path d="M262.3 512h-12.6c-3.3 0-6-2.7-6-6v-34.4h24.6V506c0 3.3-2.7 6-6 6z" fill="#826049"/><path d="M367.2 412c15.4-4.6 29.9-13.6 42-26.9 9.3-10.2 16.2-22 20.8-34.7-19.7 8.7-41.4 9.9-61.6 3.4 8.5-4.6 16.4-10.7 23.5-18.5 8.5-9.4 14.9-20.3 19.2-32-20.6 9.2-43.7 9.3-64.4.4 8.6-4.3 16.7-10.3 23.8-18.1 7.8-8.6 13.7-18.6 17.6-29.3-19.1 8.5-40.6 8.5-59.7 0 7.4-3.8 14.4-9.1 20.5-15.9 7.1-7.9 12.4-16.9 16-26.6-16.8 7.5-35.6 7.7-52.6.7 7-3.5 13.6-8.4 19.4-14.8 6.4-7.1 11.2-15.2 14.4-23.9-14.5 6.5-30.7 6.9-45.5 1.4 6.6-3.1 12.8-7.6 18.1-13.5 5.7-6.3 9.9-13.5 12.8-21.3-12.8 5.7-27.1 6.1-40.1 1.3 5.6-2.7 10.9-6.6 15.4-11.6 5-5.5 8.7-11.8 11.2-18.6-11.1 4.9-23.4 5.3-34.7 1.3 4.7-2.3 9-5.6 12.9-9.8 4.3-4.7 7.4-10.1 9.5-15.9-9.3 4.1-19.5 4.6-29 1.3 3.8-1.9 7.3-4.6 10.4-8 3.5-3.9 6.2-8.4 7.9-13.2-7.4 3.3-15.6 3.8-23.3 1.4 2.9-1.5 5.6-3.6 7.9-6.2 2.8-3.1 4.9-6.7 6.3-10.5-5.5 2.5-11.6 2.9-17.3 1.4 2-1.1 3.9-2.6 5.6-4.4 2.1-2.3 3.7-5 4.7-7.9h-.1c-5.5 2.4-12 .5-15.5-4.3-.4-.6-.9-1.2-1.3-1.9-4.1-6.3-6.1-15.4-6.1-15.4s-2 9-6.1 15.4c-.4.7-.9 1.3-1.3 1.9-3.5 4.8-10 6.7-15.5 4.3h-.1c1 2.9 2.6 5.5 4.7 7.9 1.7 1.8 3.6 3.3 5.6 4.4-5.7 1.5-11.8 1-17.3-1.4 1.4 3.8 3.5 7.4 6.3 10.5 2.4 2.6 5.1 4.7 7.9 6.2-7.6 2.4-15.8 1.9-23.3-1.4 1.8 4.8 4.4 9.3 7.9 13.2 3.1 3.4 6.6 6.1 10.4 8-9.5 3.2-19.8 2.8-29-1.3 2.1 5.8 5.3 11.2 9.5 15.9 3.8 4.2 8.2 7.5 12.9 9.8-11.3 4-23.6 3.6-34.7-1.3 2.5 6.8 6.2 13.1 11.2 18.6 4.6 5.1 9.8 8.9 15.4 11.6-13 4.8-27.3 4.4-40.1-1.3 2.8 7.7 7.1 15 12.8 21.3 5.4 5.9 11.5 10.4 18.1 13.5-14.8 5.6-31 5.1-45.5-1.4 3.2 8.7 8 16.9 14.4 23.9 5.8 6.4 12.4 11.3 19.4 14.8-16.9 7-35.8 6.7-52.6-.7 3.5 9.7 8.9 18.8 16 26.6 6.1 6.8 13.1 12.1 20.5 15.9-19.1 8.5-40.6 8.5-59.7 0 3.9 10.7 9.8 20.7 17.6 29.3 7.1 7.8 15.2 13.8 23.8 18.1-20.7 8.9-43.8 8.8-64.4-.4 4.3 11.6 10.7 22.5 19.2 32 7 7.8 15 13.9 23.5 18.5-20.2 6.4-42 5.3-61.6-3.4 4.6 12.6 11.5 24.4 20.8 34.7 12.1 13.3 26.6 22.3 42 26.9-23.8 9.9-50.3 9.6-73.9-.9 5 13.6 12.4 26.3 22.4 37.3 20 22.1 46.4 33.1 72.6 32.9h180.2c26.3.2 52.6-10.7 72.6-32.9 10-11 17.5-23.7 22.4-37.3-23.4 10.4-49.9 10.7-73.7.9z" fill="#278972"/><path d="M271 10.7h-10.7L256 0l-4.3 10.7H241l8.6 8.6-4.3 10.7 10.7-6.4 10.7 6.4-4.3-10.7 8.6-8.6z" fill="#cc584c"/><circle class="st3" cx="233" cy="198" r="11"/><circle class="st3" cx="326" cy="319" r="11"/><circle class="st3" cx="152" cy="386" r="8"/><circle class="st3" cx="263" cy="92" r="8"/><circle class="st3" cx="370" cy="383" r="8"/><circle class="st3" cx="137" cy="445" r="11"/><circle class="st3" cx="256" cy="271" r="8"/><circle class="st3" cx="288" cy="161" r="8"/><circle class="st3" cx="175" cy="282" r="11"/><circle class="st3" cx="310" cy="430" r="11"/><circle class="st3" cx="233" cy="394" r="11"/><circle class="st4" cx="245" cy="302" r="7"/><circle class="st4" cx="232.8" cy="313.1" r="6.4"/><circle class="st4" cx="220.7" cy="322.1" r="5.8"/><circle class="st4" cx="207.7" cy="329.5" r="5.2"/><circle class="st4" cx="193.9" cy="332.7" r="4.6"/><circle class="st4" cx="181" cy="335" r="4"/><circle class="st4" cx="174" cy="415" r="7"/><circle class="st4" cx="186.2" cy="426.1" r="6.4"/><circle class="st4" cx="198.3" cy="435.1" r="5.8"/><circle class="st4" cx="211.3" cy="442.5" r="5.2"/><circle class="st4" cx="225.1" cy="445.7" r="4.6"/><circle class="st4" cx="238" cy="448" r="4"/><circle class="st4" cx="279" cy="132" r="7"/><circle class="st4" cx="266.8" cy="143.1" r="6.4"/><circle class="st4" cx="254.7" cy="152.1" r="5.8"/><circle class="st4" cx="241.7" cy="159.5" r="5.2"/><circle class="st4" cx="227.9" cy="162.7" r="4.6"/><circle class="st4" cx="215" cy="165" r="4"/><circle class="st4" cx="245" cy="227" r="7"/><circle class="st4" cx="257.2" cy="238.1" r="6.4"/><circle class="st4" cx="269.3" cy="247.1" r="5.8"/><circle class="st4" cx="282.3" cy="254.5" r="5.2"/><circle class="st4" cx="296.1" cy="257.7" r="4.6"/><circle class="st4" cx="309" cy="260" r="4"/><circle class="st4" cx="274" cy="349" r="7"/><circle class="st4" cx="286.2" cy="360.1" r="6.4"/><circle class="st4" cx="298.3" cy="369.1" r="5.8"/><circle class="st4" cx="311.3" cy="376.5" r="5.2"/><circle class="st4" cx="325.1" cy="379.7" r="4.6"/><circle class="st4" cx="338" cy="382" r="4"/><circle class="st3" cx="233" cy="129" r="8"/><circle class="st3" cx="384" cy="445" r="8"/></svg>