<svg version="1.1" xmlns="http://www.w3.org/2000/svg" x="0" y="0" viewBox="0 0 512 512" xml:space="preserve"><style type="text/css">.st3{fill:#f4f4f4}.st4{fill:#e9e9e9}.st7{fill:#36434f}</style><circle cx="256" cy="192" r="90" fill="#f7ddc4"/><path d="M256.4 0c-54.7 0-99 44.3-99 99h197.9c0-54.7-44.3-99-98.9-99z" fill="#2e86b7"/><path d="M256 33c-44.5 0-83.3 24.7-103.3 61.2-4.3 7.9-5.3 17.2-2.9 25.9 4.5 16.8 11.1 32.8 19.5 47.6 10.7-37.8 45.5-55.5 86.7-55.5s76 17.7 86.7 55.5c8.4-14.8 15-30.8 19.5-47.6 2.3-8.7 1.4-18-2.9-25.9C339.3 57.7 300.5 33 256 33z" fill="#ddd"/><path class="st3" d="M205.5 152.8c-1.3 0-2.5-.5-3.5-1.4-1.9-1.9-1.9-5.1 0-7 1.2-1.2 12-11.7 23.3-13 8.5-.9 13.3-3.8 13.3-3.8 2.3-1.4 5.4-.7 6.8 1.6 1.4 2.3.7 5.4-1.6 6.8-.7.4-6.8 4-17.5 5.2-6.7.7-14.8 7.6-17.4 10.1-.9 1-2.1 1.5-3.4 1.5z"/><path class="st4" d="M293.1 498.7C280.6 508 266.7 512 256 512s-24.6-3.9-37.1-13.3c-38-28.5-208.3-304.8 37.1-304.8s75.1 276.4 37.1 304.8z"/><path class="st3" d="M307.2 152.8c-1.3 0-2.5-.5-3.5-1.4-2.6-2.6-10.7-9.4-17.4-10.1-10.7-1.2-16.8-4.8-17.5-5.2-2.3-1.4-3-4.5-1.6-6.8s4.5-3 6.8-1.6c.1.1 5 2.9 13.4 3.8 11.3 1.3 22.1 11.8 23.3 13 1.9 1.9 1.9 5.1 0 7-.9.8-2.2 1.3-3.5 1.3z"/><path class="st4" d="M169.3 167.7l-1.9 1.9c-1.1 1.1-1.8 2.7-1.8 4.2v45.4H188l-18.7-51.5zm173.4 0l1.9 1.9c1.1 1.1 1.8 2.7 1.8 4.2v45.4H324l18.7-51.5z"/><ellipse cx="256.5" cy="175.5" rx="23.5" ry="17.5" opacity=".15" fill="#444"/><path class="st3" d="M346.7 193.3c0 11.9-16.9 21.5-37.6 21.5s-45.4-9.6-45.4-21.5 24.6-21.5 45.4-21.5 37.6 9.7 37.6 21.5zm-180.6 0c0 11.9 16.9 21.5 37.6 21.5s45.4-9.6 45.4-21.5-24.6-21.5-45.4-21.5-37.6 9.7-37.6 21.5z"/><path d="M256.4 226.3c7.8 0 14-6.3 14-14h-28.1c0 7.7 6.3 14 14.1 14z" fill="#c47f6c"/><ellipse class="st7" cx="228.9" cy="154.5" rx="8.5" ry="7.5"/><circle class="st3" cx="233.6" cy="153.1" r="2.4"/><ellipse class="st7" cx="283.9" cy="154.5" rx="8.5" ry="7.5"/><circle class="st3" cx="288.6" cy="153.1" r="2.4"/></svg>