<svg version="1.1" xmlns="http://www.w3.org/2000/svg" x="0" y="0" viewBox="0 0 512 512" xml:space="preserve"><style type="text/css">.st3{fill:#f4f4f4}.st4{fill:#424242}</style><path d="M409.1 243.3c-5-1.2-10.3 1-15.4 5.7l10.6-104C404.3 67.1 337.9 4 256 4S107.7 67.1 107.7 145l10.6 104c-5.1-4.7-10.4-6.9-15.4-5.7-12.6 3-17.9 26.5-11.8 52.6s21.3 44.8 33.9 41.9c.8-.2 1.5-.4 2.3-.8l1.1 10.5c0 .1 10 10.3 10 10.4 3.9 36.7 14.7 59.9 46.8 80.6l24.5 15.8c10.8 7 23.6 10.7 36.7 10.7h19.2c13.1 0 25.9-3.7 36.7-10.7l24.5-15.8c32.2-20.7 43-44 46.8-80.7 0-.1 10-10.2 10-10.3l1.1-10.5c.7.3 1.5.6 2.3.8 12.6 3 27.8-15.8 33.9-41.9s.8-49.7-11.8-52.6z" fill="#ffcc80"/><path d="M416.6 120.7C416 53.9 344.3 0 256 0S96 53.9 95.4 120.7l25.4 153.1 7.4-151.2c32.7 14.6 77.9 23.7 127.8 23.7s95.1-9.1 127.8-23.7l7.4 151.2 25.4-153.1zm-99.7 238.1l-13.6-4.6c-13.2-4.5-27.1-6.8-41.1-6.8h-12.4c-14 0-27.8 2.3-41.1 6.8l-13.6 4.6c-15.5 5.2-32.3 4.4-47.2-2.4l-19.6-9 14.2 90.2c4.1 26.1 19.8 49 42.8 62.2 13.8 7.9 29.4 12.1 45.4 12.1h50.7c15.9 0 31.6-4.2 45.4-12.1 22.9-13.2 38.7-36.1 42.8-62.2l14.2-90.2-19.6 9c-14.9 6.8-31.8 7.7-47.3 2.4z" fill="#36434f"/><path d="M256 334.5c-8.8 0-16-7.2-16-16v-12c0-8.8 7.2-16 16-16s16 7.2 16 16v12c0 8.8-7.2 16-16 16zm37 48c0 8.8-7.2 16-16 16h-42c-8.8 0-16-7.2-16-16s7.2-16 16-16h42c8.8 0 16 7.2 16 16z" fill="#e3b877"/><circle class="st3" cx="200.4" cy="247.5" r="31.5"/><circle class="st4" cx="200.4" cy="247.5" r="13.7"/><circle class="st3" cx="195.4" cy="243.2" r="4.4"/><circle class="st3" cx="311.6" cy="247.5" r="31.5"/><circle class="st4" cx="311.6" cy="247.5" r="13.7"/><circle class="st3" cx="306.6" cy="243.2" r="4.4"/><path d="M95.4 120.7l21 126.7c-4.5-3.5-9.1-5.1-13.5-4.1-12.6 3-17.9 26.5-11.8 52.6s21.3 44.8 33.9 41.9c.8-.2 1.5-.4 2.2-.8l1.1 10.5 14.2 90.2c4.1 26.1 19.8 49 42.8 62.2 13.8 7.9 29.4 12.1 45.4 12.1H256V0C167.7 0 96 53.9 95.4 120.7z" opacity=".15" fill="#444"/></svg>