<svg xmlns="http://www.w3.org/2000/svg" viewBox="0 0 512 512" xml:space="preserve"><path d="M244 47.2V465c0 7.7-1.9 15.5-5.9 22.7-12.5 22.8-41.2 31.1-63.9 18.5-3.8-2.1-7.1-4.6-10.1-7.5-13.2 6.3-29.2 6.4-43-1.3-7.9-4.4-14-10.7-18.2-18-11.6 3.3-24.4 2.3-35.7-4-17.7-9.8-26.6-29.3-23.8-48.3-3.1-.9-6.2-2.2-9.1-3.9-22.7-12.6-31-41.2-18.5-64 1.3-2.3 2.7-4.5 4.3-6.5-19.5-13.6-26-40.1-14.3-61.4 2.6-4.8 6-8.9 9.8-12.3-11.4-14.4-13.8-34.9-4.3-52 4.4-8.1 10.9-14.3 18.4-18.4-9-14.1-10.2-32.5-1.6-48.2 6-10.8 15.6-18.4 26.5-22-3.6-11.7-2.6-24.8 3.8-36.4 8-14.6 22.6-23.2 38.1-24.2 0-7.7 1.8-15.6 5.8-22.9 10.1-18.4 30.8-27.4 50.3-23.5.8-2.4 1.9-4.7 3.1-7 12.5-22.8 41.2-31.1 63.9-18.5 15.6 8.6 24.4 24.7 24.4 41.3zm247.8 305.6c19.5-13.6 26-40.1 14.3-61.4-2.6-4.8-6-8.9-9.8-12.3 11.4-14.4 13.8-34.9 4.3-52-4.4-8.1-10.9-14.3-18.4-18.4 9-14.1 10.2-32.5 1.6-48.2-6-10.8-15.6-18.4-26.5-22 3.6-11.7 2.6-24.8-3.8-36.4-8-14.6-22.6-23.2-38.1-24.2 0-7.7-1.8-15.6-5.8-22.9-10.1-18.4-30.8-27.4-50.3-23.5-.8-2.4-1.9-4.7-3.1-7-12.5-22.9-41.1-31.2-63.9-18.6-15.5 8.6-24.3 24.7-24.3 41.3V465c0 7.7 1.9 15.5 5.9 22.7 12.5 22.8 41.2 31.1 63.9 18.5 3.8-2.1 7.1-4.6 10.1-7.5 13.2 6.3 29.2 6.4 43-1.3 7.9-4.4 14-10.7 18.2-18 11.6 3.3 24.4 2.3 35.7-4 17.7-9.8 26.6-29.3 23.8-48.3 3.1-.9 6.2-2.2 9.1-3.9 22.7-12.6 31-41.2 18.5-64-1.3-2.3-2.8-4.4-4.4-6.4z" fill="#c2cde7"/><path d="M219.7 5.9c-7.2-4-15-5.9-22.7-5.9-16.6 0-32.7 8.8-41.2 24.4-1.3 2.3-2.3 4.6-3.1 7-3-.6-6.1-.9-9.1-.9-16.6 0-32.7 8.8-41.2 24.4-4 7.3-5.9 15.1-5.8 22.9-15.4 1-30 9.7-38.1 24.2-6.4 11.6-7.4 24.7-3.8 36.4-10.9 3.6-20.5 11.1-26.5 22-8.6 15.7-7.4 34.1 1.6 48.2-7.5 4.1-13.9 10.4-18.4 18.4-9.4 17.1-7.1 37.6 4.3 52-3.8 3.4-7.2 7.6-9.8 12.3-11.7 21.3-5.2 47.8 14.3 61.4-1.6 2-3 4.2-4.3 6.5-12.5 22.8-4.3 51.4 18.5 64 3 1.6 6 2.9 9.1 3.9-2.8 18.9 6.1 38.5 23.8 48.3 7.2 4 15 5.9 22.7 5.9h.4c.8 0 1.6 0 2.3-.1.5 0 .9-.1 1.4-.1.4 0 .8-.1 1.3-.1 2.6-.3 5.2-.8 7.7-1.5 4.1 7.3 10.3 13.6 18.2 18 7.2 4 15 5.9 22.7 5.9 7 0 14-1.6 20.3-4.6 3 2.9 6.3 5.4 10.1 7.5 7.2 4 15 5.9 22.7 5.9 16.6 0 32.7-8.8 41.2-24.4 4-7.2 5.9-15 5.9-22.7V47.2c-.2-16.6-9-32.7-24.5-41.3zm4.4 474c-5.5 9.9-15.9 16.1-27.2 16.1-5.2 0-10.4-1.3-14.9-3.9-2.4-1.3-4.7-3-6.7-5-3.1-3-7.1-4.5-11.2-4.5-2.3 0-4.7.5-6.9 1.6-4.2 2-8.8 3-13.4 3-5.3 0-10.3-1.3-14.9-3.9-4.7-2.6-8.6-6.4-11.4-10.9 5.6-4 10.4-9.2 13.9-15.6 12.6-22.8 4.3-51.4-18.5-64-.4-.2-.9-.4-1.3-.7l-6.5 14.6s.1 0 .1.1c15 8.3 20.5 27.2 12.2 42.3-4 7.2-10.5 12.4-18.1 14.7-.2.1-.4.1-.6.2-2.8.8-5.7 1.2-8.6 1.2-5.2 0-10.3-1.4-14.9-3.9-7.3-4-12.6-10.6-14.9-18.6-.2-.7-.4-1.4-.5-2.1-.8-3.6-.9-7.4-.4-11.1 1.2-7.9-3.6-15.4-11.2-17.7-2.1-.6-4.1-1.5-6-2.5C27.1 401 21.6 382 29.9 367c.8-1.5 1.8-2.9 2.9-4.3 2.7-3.5 3.9-7.9 3.3-12.3-.6-4.4-3.1-8.3-6.7-10.8-13.1-9.1-17.1-26.5-9.4-40.5 1.7-3.1 3.9-5.8 6.5-8.1 6.3-5.6 7.1-15.2 1.9-21.8-7.8-9.9-8.9-23.4-2.9-34.4 2.8-5.1 7-9.3 12.1-12.2 3.9-2.1 6.7-5.8 7.8-10.1s.3-8.8-2-12.5c-1.4-2.1-2.4-4.4-3.2-6.7-.2-.5-.3-1-.5-1.5-2.3-8-1.4-16.4 2.6-23.7 5.5-9.9 15.9-16.1 27.3-16.1 5.2 0 10.4 1.3 15 3.9 7.3 4 12.6 10.6 14.9 18.6.1.5.3.9.4 1.4l15.4-4.5c-3.1-12.1-11-23-22.9-29.5-6.9-3.8-14.4-5.7-21.8-5.8-.1-.8-.3-1.5-.5-2.3-2.5-8.1-1.6-16.7 2.5-24.1 5.1-9.3 14.5-15.3 25.1-16 8.4-.6 14.9-7.6 14.9-16 0-5.3 1.3-10.4 3.9-15.1 5.5-9.9 15.9-16.1 27.2-16.1 2 0 4 .2 6 .6 1 .2 2.1.3 3.1.3 6.7 0 12.8-4.2 15.1-10.6.6-1.6 1.3-3.2 2.1-4.7 5.2-9.9 15.7-16.1 27-16.1 5.2 0 10.4 1.3 14.9 3.9 9.9 5.5 16.1 15.9 16.1 27.3v232.2c-3.6-.6-7.1-1.7-10.4-3.6-3.5-2-6.6-4.7-9.1-7.8l-14.4 7.4c4.2 6.1 9.6 11 15.7 14.4 5.6 3.2 11.9 5.1 18.3 5.8v134.7c-.3.1-.6.3-.9.4-14.7 5.4-31.6-1.3-38.6-15.2-4.3 2.8-8.5 5.7-12.8 8.5-.1.1-.5.3-.6.4-.1.4 1.2 2 1.4 2.4 1.4 2.2 2.9 4.2 4.6 6.1 3.4 3.8 7.5 7.1 11.9 9.6 9.2 5.2 20.2 7.2 30.6 5.5 1.4-.2 2.8-.5 4.2-.9V465c.1 5.1-1.2 10.3-3.8 14.9zm-56.3-266.2c-5.3 3.4-9.5 8.3-12.1 14-1.3 2.9-2.1 6-2.4 9.2-.4 3.9.7 7.9 0 11.8-.6 3.7-2.6 7.1-5.4 9.6-3.1 2.6-6.7 3.6-10.6 3.8-4.2.3-8.2 1-12.1 2.7-3.2 1.5-6.2 3.5-8.7 5.9-9.6 9.4-12.4 24.4-6.2 36.5 6 11.7 19.3 18.7 32.3 16.7-.6 3.8-1.1 7.5-1.7 11.3-.2 1.3-.2 2.7-.5 4-.2 1.2-.7 1.2-1.8 1.1-6.5-.2-12.9-1.2-18.9-3.7-20.4-8.5-32.3-31-27.9-52.6 1.2-5.8 3.4-11.2 6.5-16-.6-3-1.7-6-3.2-8.8-5.5-9.9-15.9-16.1-27.3-16.1-4 0-8.1.8-11.8 2.4L47 232c6.7-3.3 13.8-4.9 20.8-4.9 16.6 0 32.7 8.8 41.3 24.4.6 1.1 1.2 2.3 1.7 3.5 7.6-5.5 16.9-8.7 26.7-8.8-1.1-8.3.1-16.8 3.4-24.5 4.9-11.4 14.2-20.6 25.7-25.3 12.9-5.3 27.9-4.4 40.2 2.3-2.6 4.1-5.4 8.2-7.8 12.4-.3.6-.5 1-1.2 1-.6 0-1.4-.5-1.9-.8-1.7-.8-3.5-1.4-5.4-1.8-7.8-1.6-16-.1-22.7 4.2zm328.4 145.6c-1.3-2.3-2.7-4.5-4.3-6.5 19.5-13.6 26-40.1 14.3-61.4-2.6-4.8-6-8.9-9.8-12.3 11.4-14.4 13.8-34.9 4.3-52-4.4-8.1-10.9-14.3-18.4-18.4 9-14.1 10.2-32.5 1.6-48.2-6-10.8-15.6-18.4-26.5-22 3.6-11.7 2.6-24.8-3.8-36.4-8-14.6-22.6-23.2-38.1-24.2 0-7.7-1.8-15.6-5.8-22.9-8.6-15.6-24.6-24.4-41.2-24.4-3 0-6.1.3-9.1.9-.8-2.4-1.9-4.7-3.1-7C347.7 8.8 331.6 0 315 0c-7.7 0-15.5 1.9-22.7 5.9-15.5 8.6-24.3 24.7-24.3 41.3V465c0 7.7 1.9 15.5 5.9 22.7 8.6 15.6 24.6 24.4 41.2 24.4 7.7 0 15.5-1.9 22.7-5.9 3.8-2.1 7.1-4.6 10.1-7.5 6.3 3 13.3 4.6 20.3 4.6 7.7 0 15.5-1.9 22.7-5.9 7.9-4.4 14-10.7 18.2-18 4.2 1.2 8.6 1.8 13.1 1.8 7.7 0 15.5-1.9 22.7-5.9 17.7-9.8 26.6-29.3 23.8-48.3 3.1-.9 6.2-2.2 9.1-3.9 8.7-4.8 15.3-12 19.4-20.4.5-.5 1.1-2.2 1.4-3 5.1-12.5 4.7-27.5-2.4-40.4zm-26.3 49.9c-1.9 1.1-3.9 1.9-6 2.5-7.6 2.3-12.4 9.8-11.2 17.7 1.9 12.8-4.4 25.6-15.7 31.9-4.6 2.5-9.7 3.9-14.9 3.9-2.9 0-5.8-.4-8.6-1.2-1.5-.4-3-.6-4.4-.6-5.7 0-11 3-13.9 8.1-2.8 5-7 9.1-12 11.9-4.6 2.6-9.7 3.9-14.9 3.9-4.6 0-9.2-1.1-13.4-3-2.2-1-4.5-1.6-6.9-1.6-4.1 0-8.1 1.6-11.2 4.5-2 1.9-4.2 3.6-6.7 5-4.6 2.5-9.8 3.9-14.9 3.9-11.3 0-21.8-6.2-27.2-16.1-2.5-4.6-3.9-9.8-3.9-15v-83.8c5.2-.7 10.4-2.2 15.4-4.8 10.8-5.5 18.5-14.6 22.6-25.1l-16.1-3c-2.9 6-7.7 10.8-13.7 13.9-2.6 1.3-5.3 2.2-8.1 2.8V148.7c1.8-.7 3.6-1.4 5.4-2.3 10.8-5.5 18.5-14.6 22.6-25.1l-16.1-3c-2.6 5.3-6.7 9.7-11.8 12.8V47.2c0-11.4 6.2-21.8 16.1-27.3 4.6-2.5 9.8-3.9 14.9-3.9 11.3 0 21.8 6.2 27.2 16.1.8 1.5 1.5 3 2.1 4.7 2.3 6.5 8.4 10.6 15.1 10.6 1 0 2.1-.1 3.1-.3 2-.4 4-.6 6-.6 11.3 0 21.7 6.2 27.2 16.1 2.6 4.7 3.9 9.8 3.9 15.1 0 8.4 6.5 15.4 14.9 16 10.6.7 20 6.7 25.1 16 3 5.4 4.2 11.4 3.8 17.3h-.1c-.2.2-.2 1.5-.2 1.8-.1.5-.2 1.1-.3 1.6-.2 1.1-.5 2.2-.8 3.3-.6 1.8-1.3 3.6-2.2 5.3-3.5 6.8-9.6 12.2-16.8 14.8-14.7 5.4-31.6-1.3-38.6-15.2-4.3 2.8-8.5 5.7-12.8 8.5-.1.1-.5.3-.6.4-.1.4 1.2 2 1.4 2.4 1.4 2.2 2.9 4.2 4.6 6.1 3.4 3.8 7.5 7.1 11.9 9.6 9.2 5.2 20.2 7.2 30.6 5.5 12.4-2 23.2-9 30.3-18.6.7.4 1.5.7 2.3 1 7.5 2.5 13.7 7.6 17.5 14.5 5.5 10 5.1 22.2-1.1 31.9-2.4 3.7-3.1 8.3-2 12.5s3.9 7.9 7.8 10.1c5.1 2.8 9.3 7 12.1 12.2 6.1 11 4.9 24.5-2.9 34.4-5.2 6.6-4.4 16.2 1.9 21.8 2.6 2.3 4.8 5.1 6.5 8.1 7.7 14 3.7 31.4-9.4 40.5-1 .7-2 1.6-2.8 2.5-9.6-6-21.2-8.5-32.5-6.6-14.2 2.3-26.8 11.1-33.7 23.7-.3.6-2.1 3.3-1.8 3.8.1.2.8.4 1 .5 1.7.8 3.3 1.6 5 2.3 2.8 1.3 5.7 2.7 8.5 4 2.8-6.5 7.7-12 14-15.3 11.5-6.1 25.8-4.3 35.5 4.4 9.7 8.8 12.8 23 7.9 35v.1c-.3.8-.7 1.6-1.1 2.3-3 5.4-7.3 10-12.9 13zm-65.1-16.8c2.6 10.9 1.2 22.8-4.6 33.4-8.6 15.6-24.7 24.4-41.3 24.4-7.7 0-15.5-1.9-22.7-5.9-13.1-7.2-21.4-19.8-23.7-33.5l16.1-1.1c1.9 8.4 7.2 16 15.3 20.5 4.6 2.5 9.8 3.9 15 3.9 11.4 0 21.8-6.2 27.3-16.1 3.3-5.9 4.5-12.6 3.6-19.2l15-6.4zM158.7 151.9c-13.5-14.5-16.9-36.6-6.8-54.9 8.6-15.6 24.7-24.4 41.3-24.4 7 0 14.1 1.6 20.8 4.9L205 91c-3.7-1.5-7.8-2.4-11.8-2.4-11.4 0-21.8 6.2-27.3 16.1-4 7.3-5 15.7-2.6 23.7 1.2 4.3 3.3 8.1 6.1 11.4l-10.7 12.1zm160.1-63.2c-4 0-8.1.8-11.8 2.4l-9-13.5c6.7-3.3 13.8-4.9 20.8-4.9 16.6 0 32.7 8.8 41.3 24.4 10.1 18.3 6.7 40.4-6.8 54.9l-10.7-12c2.8-3.3 4.9-7.2 6.1-11.4 2.3-8 1.4-16.4-2.6-23.7-5.5-10.1-15.9-16.2-27.3-16.2zm97.6 178.8c-1.6-5-4.5-9.5-8.4-13-2.1-2-4.5-3.6-7-4.8a47.15 47.15 0 0 1-25.2 21.3c-.4 6.7-2.3 13.3-5.7 19.5-8.6 15.6-24.7 24.4-41.3 24.4-7.7 0-15.5-1.9-22.7-5.9-5.2-2.9-9.6-6.6-13.3-10.9l11.7-11c2.5 3.1 5.6 5.8 9.3 7.8 4.7 2.6 9.7 3.9 15 3.9 11.4 0 21.8-6.2 27.3-16.1 2.2-4 3.5-8.3 3.8-12.9.4-6.4 4.6-11.8 10.6-14 7.1-2.6 13.1-7.6 16.8-14.3 7.3-13.2 3.9-29.5-7.3-38.9l9.8-12.7c13.2 10.8 19.5 27.8 16.7 44.3 4.6 2.1 8.8 4.9 12.5 8.3 5.6 5.2 10.1 11.9 12.7 19.7 4.7 14.2 2.3 29-5.4 40.7l-12.6-9.9c4.4-7.5 5.7-16.7 2.7-25.5z" fill="#8d6c9f"/></svg>