<svg version="1.1" xmlns="http://www.w3.org/2000/svg" x="0" y="0" viewBox="0 0 512 512" xml:space="preserve"><style type="text/css">.st0{fill:#36434f}.st2{fill:#f4f4f4}.st3{fill:#424242}</style><path class="st0" d="M144.2 460h223.6c12.6 0 25-3.7 35.5-10.7 19.4-12.9 41.4-27.7 60-40.2 21.1-14.3 31.8-39.7 27.1-64.8l-19-101.8C448.9 103.6 361 0 256 0S63.1 103.6 40.6 242.5l-19 101.8c-4.7 25.1 6 50.5 27.1 64.8 18.6 12.5 40.6 27.3 60 40.2 10.5 7 22.9 10.7 35.5 10.7z"/><path d="M402 203c0-72.4-65.4-131-146-131s-146 58.7-146 131l17.3 183c3.2 34.1 20.8 65.7 49.1 88.6l25.4 20.5c13.4 10.9 30.9 16.9 49 16.9h10.6c18.1 0 35.5-6 49-16.9l25.4-20.5c28.3-22.9 45.8-54.6 49.1-88.6L402 203z" fill="#ffcc80"/><circle class="st2" cx="194.8" cy="286.8" r="34.6"/><circle class="st3" cx="194.8" cy="286.8" r="15.1"/><circle class="st2" cx="189.3" cy="282" r="4.8"/><circle class="st2" cx="317.2" cy="286.8" r="34.6"/><circle class="st3" cx="317.2" cy="286.8" r="15.1"/><circle class="st2" cx="311.7" cy="282" r="4.8"/><path d="M257.6 380.3h-3.2c-8.8 0-16-7.2-16-16v-16.4c0-8.8 7.2-16 16-16h3.2c8.8 0 16 7.2 16 16v16.4c0 8.8-7.1 16-16 16zm39.1 44.1c0 7.9-6.4 14.4-14.4 14.4h-52.7c-7.9 0-14.4-6.4-14.4-14.4 0-7.9 6.4-14.4 14.4-14.4h52.7c8 0 14.4 6.4 14.4 14.4z" fill="#e3b877"/><path class="st0" d="M460.5 193.8C427.4 80.1 348.3 0 256 0 159.9 0 78.1 86.7 47.7 207.9 72.4 222.6 101.2 231 132 231c65.9 0 122.7-38.6 149.2-94.4C311.4 175.7 358.7 201 412 201c16.9 0 33.1-2.5 48.5-7.2z"/><path d="M251.3.1c-.5 0-1 0-1.6.1-1 0-2.1.1-3.1.1-.6 0-1.2.1-1.8.1-.9.1-1.9.1-2.8.2-.7.1-1.3.1-2 .2l-2.7.3c-.7.1-1.3.2-2 .3-.9.1-1.7.2-2.6.4-.7.1-1.4.2-2 .3-.9.1-1.7.3-2.6.4-.7.1-1.4.2-2 .4-.9.2-1.7.3-2.6.5-.7.1-1.3.3-2 .4-.9.2-1.7.4-2.6.6-.6.2-1.3.3-1.9.5-.9.2-1.8.5-2.6.7-.6.2-1.2.3-1.8.5-1 .3-1.9.6-2.9.8-.5.2-1.1.3-1.6.5-1.5.5-2.9.9-4.3 1.4-.4.2-.9.3-1.3.5-1 .4-2 .7-3.1 1.1-.6.2-1.2.5-1.9.7-.8.3-1.7.6-2.5 1-.7.3-1.3.6-2 .8-.8.3-1.5.6-2.3 1l-2.1.9c-.7.3-1.5.7-2.2 1-.7.3-1.4.7-2.1 1-.7.3-1.4.7-2.1 1-.7.4-1.4.7-2.1 1.1-.7.4-1.4.7-2 1.1l-2.1 1.2c-.7.4-1.3.7-2 1.1-.7.4-1.4.8-2.2 1.2-.6.4-1.3.8-1.9 1.1-.7.4-1.5.9-2.2 1.3-.6.4-1.2.8-1.8 1.1-.8.5-1.5.9-2.2 1.4-.5.3-1 .7-1.5 1-3 2-6 4.1-8.9 6.3-.4.3-.8.6-1.1.8-.8.6-1.7 1.3-2.5 1.9-.5.4-.9.7-1.4 1.1-.8.6-1.6 1.3-2.4 1.9-.5.4-.9.8-1.4 1.1-.8.7-1.6 1.3-2.4 2-.5.4-.9.8-1.4 1.2l-2.4 2.1c-.4.4-.9.8-1.3 1.2-.8.7-1.6 1.4-2.4 2.2l-1.2 1.2c-.8.8-1.6 1.5-2.4 2.3l-1.1 1.1-2.5 2.5-.9.9c-.9.9-1.7 1.8-2.6 2.7-.2.2-.3.4-.5.5-5.4 5.7-10.5 11.7-15.5 18.1-.1.1-.2.2-.2.3-.9 1.2-1.8 2.3-2.7 3.5-.2.2-.3.4-.5.6-.9 1.1-1.7 2.3-2.5 3.4-.2.2-.4.5-.5.7-.8 1.2-1.7 2.3-2.5 3.5-.2.2-.3.5-.5.7-.8 1.2-1.7 2.4-2.5 3.6-.1.2-.3.4-.4.7-.8 1.3-1.7 2.5-2.5 3.8-.1.1-.2.3-.3.4-8.4 13-16 26.9-22.7 41.7 0 0 0 .1-.1.1-.7 1.6-1.5 3.3-2.2 4.9 0 .1 0 .1-.1.2-.7 1.7-1.4 3.3-2.1 5-11.4 27.2-19.9 57-25 88.6L21.6 344c-4.7 25.1 6 50.5 27.1 64.8 18.6 12.5 40.6 27.3 60 40.2 10.5 7 22.9 10.7 35.5 10.7h16.6c4.7 5.2 9.9 10.1 15.5 14.6l25.4 20.5c13.4 10.9 30.9 16.9 49 16.9h5.3V0c-1.6 0-3.1 0-4.7.1z" opacity=".15" fill="#444"/></svg>