<svg version="1.1" xmlns="http://www.w3.org/2000/svg" x="0" y="0" viewBox="0 0 512 512" xml:space="preserve"><path d="M256 87.1C97.9-71-100 127 58 285l99 99 99 99 99-99 99-99C612 127 414.1-71 256 87.1z" fill="#cc584c"/><path d="M456.1 254.2L336.6 373.7c-3.1 3.1-8.2 3.1-11.3 0s-3.1-8.2 0-11.3l119.5-119.5c3.1-3.1 8.2-3.1 11.3 0s3.1 8.2 0 11.3zM305.5 393.5c-3.1-3.1-8.2-3.1-11.3 0l-28.3 28.3c-3.1 3.1-3.1 8.2 0 11.3s8.2 3.1 11.3 0l28.3-28.3c3.1-3.1 3.1-8.2 0-11.3z" opacity=".5" fill="#f4f4f4"/></svg>