<svg xmlns="http://www.w3.org/2000/svg" viewBox="0 0 512 512" xml:space="preserve"><style>.st3{fill:#f4f4f4}.st4{fill:#424242}</style><path d="M424.5 267.9c-5.4-1.3-11.3 1.1-16.9 6.2l11.7-114.4C419.3 73.9 346.2 4.4 256 4.4S92.7 73.9 92.7 159.7l11.7 114.4c-5.5-5.1-11.4-7.5-16.9-6.2-13.9 3.3-19.7 29.2-13 57.9 6.7 28.7 23.5 49.4 37.4 46.1.8-.2 1.6-.5 2.4-.8l1.2 11.6c4.1 40.6 27.1 77.3 62.6 100.2l27 17.4c11.9 7.7 26 11.8 40.4 11.8h21c14.4 0 28.5-4.1 40.4-11.8l27-17.4c35.5-22.9 58.5-59.6 62.6-100.2l1.2-11.6c.8.4 1.6.6 2.4.8 13.9 3.3 30.6-17.4 37.4-46.1 6.8-28.8.9-54.7-13-57.9z" fill="#ffcc80"/><path d="M432.8 132.9C432.2 59.4 353.3 0 256 0S79.8 59.4 79.2 132.9l28 168.6 8.2-166.4c36 16.1 85.7 26.1 140.7 26.1s104.7-10 140.7-26.1l8.2 166.4 27.8-168.6z" fill="#36434f"/><path d="M257.6 368.3h-3.2c-8.8 0-16-7.2-16-16v-16.4c0-8.8 7.2-16 16-16h3.2c8.8 0 16 7.2 16 16v16.4c0 8.8-7.1 16-16 16zm39.1 51.2v3.2c0 8.8-7.2 16-16 16h-49.5c-8.8 0-16-7.2-16-16v-3.2c0-8.8 7.2-16 16-16h49.5c8.9 0 16 7.2 16 16z" fill="#e3b877"/><circle class="st3" cx="194.8" cy="272.6" r="34.6"/><circle class="st4" cx="194.8" cy="272.6" r="15.1"/><circle class="st3" cx="189.3" cy="267.8" r="4.8"/><circle class="st3" cx="317.2" cy="272.6" r="34.6"/><circle class="st4" cx="317.2" cy="272.6" r="15.1"/><circle class="st3" cx="311.7" cy="267.8" r="4.8"/><path d="m79.2 132.9 23.1 139.5c-4.9-3.9-10-5.6-14.8-4.5-13.9 3.3-19.7 29.2-13 57.9 6.7 28.7 23.5 49.4 37.4 46.1.8-.2 1.6-.5 2.4-.8l1.2 11.6c4.1 40.6 27.1 77.3 62.6 100.2l27 17.4c11.9 7.7 26 11.8 40.4 11.8H256V0C158.7 0 79.8 59.4 79.2 132.9z" opacity=".15" fill="#444"/></svg>