<svg version="1.1" xmlns="http://www.w3.org/2000/svg" x="0" y="0" viewBox="0 0 512 512" xml:space="preserve"><style type="text/css">.st0{fill:#ffcc80}.st2{opacity:.1;fill:#444}</style><path class="st0" d="m123.4 427.9 7-4 232.3-134.1 7-4c12.9-7.4 21.9-19.8 25.9-34.1 1.8-6.5 6.4-12.2 13.3-15.2 10.1-4.4 22.1-1 28.4 7.9 5 7 5.6 15.6 2.5 22.8 7.7 1 14.9 5.8 18.5 13.6 4.6 10 1.5 22-7.4 28.6-6 4.5-13.3 5.6-19.8 3.9-14.4-3.6-29.6-2-42.5 5.4l-7 4-232.2 134.1-7 4c-12.9 7.4-21.9 19.8-25.9 34.1-1.8 6.5-6.4 12.2-13.3 15.2-10.1 4.4-22.1 1-28.4-7.9-5-7-5.6-15.6-2.5-22.8-7.7-1-14.9-5.8-18.5-13.6-4.6-10-1.5-22 7.4-28.6 6-4.5 13.3-5.6 19.8-3.9 14.3 3.6 29.5 2 42.4-5.4z"/><path opacity=".15" fill="#444" d="m248 399.9 54.1-31.2-38.1-22-54.1 31.2z"/><path class="st0" d="m388.6 427.9-7-4-232.2-134.2-7-4c-12.9-7.4-21.9-19.8-25.9-34.1-1.8-6.5-6.4-12.2-13.3-15.2-10.1-4.4-22.1-1-28.4 7.9-5 7-5.6 15.6-2.5 22.8-7.7 1-14.9 5.8-18.5 13.6-4.6 10-1.5 22 7.4 28.6 6 4.5 13.3 5.6 19.8 3.9 14.4-3.6 29.6-2 42.5 5.4l7 4 232.3 134.1 7 4c12.9 7.4 21.9 19.8 25.9 34.1 1.8 6.5 6.4 12.2 13.3 15.2 10.1 4.4 22.1 1 28.4-7.9 5-7 5.6-15.6 2.5-22.8 7.7-1 14.9-5.8 18.5-13.6 4.6-10 1.5-22-7.4-28.6-6-4.5-13.3-5.6-19.8-3.9-14.5 3.7-29.7 2.1-42.6-5.3z"/><path class="st2" d="m149.4 289.7-7-4c-12.9-7.4-21.9-19.8-25.9-34.1-1.8-6.5-6.4-12.2-13.3-15.2-10.1-4.4-22.1-1-28.4 7.9-5 7-5.6 15.6-2.5 22.8-7.7 1-14.9 5.8-18.5 13.6-4.6 10-1.5 22 7.4 28.6 6 4.5 13.3 5.6 19.8 3.9 14.4-3.6 29.6-2 42.5 5.4l7 4 87.6 50.6-8 4.6-79.6 46-7 4c-12.9 7.4-28.1 9-42.5 5.4-6.5-1.7-13.8-.5-19.8 3.9-8.8 6.5-11.9 18.6-7.4 28.6 3.6 7.8 10.7 12.6 18.5 13.6-3 7.2-2.4 15.8 2.5 22.8 6.4 8.9 18.3 12.3 28.4 7.9 6.9-3 11.5-8.7 13.3-15.2 4-14.3 13.1-26.6 25.9-34.1l7-4 98.6-56.9 8-4.6v-44l-106.6-61.5z"/><path class="st0" d="M256 0c-66.3 0-120 51.5-120 115.1l8 78.7c1.9 18.9 15.8 34.3 34.4 38.2l5.2 1.1c5.7 1.2 9.4 6.5 8.7 12.3l-3.2 23.8c-2.4 17.7 10.3 33.8 28 35.8l15.1 1.7c15.9 1.8 31.9 1.8 47.8 0l15.1-1.7c17.7-2 30.3-18.2 28-35.8l-3.2-23.8c-.8-5.7 3-11.1 8.7-12.3l5.2-1.1c18.6-3.9 32.5-19.3 34.4-38.2l8-78.7c0-25.4-8.6-48.9-23.1-67.9C331 18.6 295.8 0 256 0z"/><path d="m179.2 180.8-1.1 14.2c-1.1 13.7 12.2 24 25.2 19.7l17.2-5.7c8.4-2.8 14.7-9.5 17-17.7.1-.2.1-.5.2-.9 1.4-11.2-6.6-21.5-17.8-23l-20.9-2.8c-10-1.2-19.1 6.1-19.8 16.2zm153.6 0 1.1 14.2c1.1 13.7-12.2 24-25.2 19.7l-17.2-5.7c-8.4-2.8-14.7-9.5-17-17.7-.1-.2-.1-.5-.2-.9-1.4-11.2 6.6-21.5 17.8-23l20.9-2.8c10-1.2 19.1 6.1 19.8 16.2zm-61.5 65.9c0 6.6-6.9 12-15.3 12s-15.3-5.4-15.3-12S253.6 216 256 216c2.4-.1 15.3 24 15.3 30.7z" fill="#e0ac7e"/><path class="st2" d="m136 115.1 8 78.7c1.9 18.9 15.8 34.3 34.4 38.2l5.2 1.1c5.7 1.2 9.4 6.5 8.7 12.3l-3.2 23.8c-2.4 17.7 10.3 33.8 28 35.8l15.1 1.7c7.9.9 15.9 1.4 23.9 1.4V0C189.7 0 136 51.5 136 115.1z"/></svg>