<svg xmlns="http://www.w3.org/2000/svg" viewBox="0 0 512 512" xml:space="preserve"><style>.st0{fill:#ffcc80}.st1{fill:#e0ac7e}.st2{fill:#f4f4f4}</style><path class="st0" d="M325.4 182.8s-1.2 30.2-10.3 45.3c-3.3 5.4-10.6 11.9-18.6 18.1-5.8 4.4-11.9 4.4-17.3 7.8l-23.2 1.2-23.2-1.2c-5.3-3.4-11.5-3.4-17.3-7.8-8-6.2-15.4-12.7-18.6-18.1-9.1-15.1-10.3-45.3-10.3-45.3h-13.3v15.1c0 1.3 1.1 2.4 2.4 2.4h3.6c.7 0 1.1.5 1.1 1.2l-3.5 40.6c-.8 9.1 2.4 18.1 8.6 24.7l13.3 14.1c.8.9 1.7 1.9 2.5 2.8 11.4 15.1 31.7 25.1 54.7 25.1s43.3-10 54.7-25.1c.8-1 1.6-1.9 2.5-2.8l13.3-14.1c6.3-6.6 9.4-15.6 8.6-24.7l-3.5-40.6c-.1-.7.5-1.2 1.1-1.2h3.6c1.3 0 2.4-1.1 2.4-2.4v-15.1h-13.3z"/><path class="st0" d="m356.1 159-2.1-1.6c1.4-9.8 2.5-19.9 3.1-30 .5-8.5.8-17.1.8-25.8 0-14.1-.7-28.1-2.2-41.6C340 24.9 301.2 0 256 0s-84 24.9-99.8 60c-1.4 13.6-2.2 27.5-2.2 41.6 0 8.7.3 17.3.8 25.8.7 10.1 1.7 20.2 3.1 30l-2.1 1.6c-1.2.9-1.9 2.4-1.9 3.8v1c0 1.7.7 3.3 1.8 4.6l12.6 13.4c3.1 3.3 7.5 5.2 12 5.2h8.5c4.2 0 8.1 2.1 10.4 5.6l1 1.5c3.1 4.6 3.9 10.4 2.1 15.7l-.8 2.5c-.4 1.1-.7 2.4-.8 3.6l-.4 3 33.8 16.9h43.4l33.8-16.9-.4-3c-.2-1.2-.4-2.4-.8-3.6l-.8-2.5c-1.7-5.3-1-11.1 2.1-15.7l1-1.5c2.4-3.5 6.3-5.6 10.4-5.6h8.5c4.5 0 8.9-1.9 12-5.2l12.6-13.4c1.1-1.3 1.8-2.9 1.8-4.6v-1c.2-1.4-.5-2.8-1.6-3.8z"/><path class="st1" d="m177.9 125.7-1.1 14.5c-1.1 14 12.4 24.6 25.7 20.2l17.6-5.8c8.6-2.8 15-9.7 17.4-18 .1-.2.1-.5.2-.9 1.4-11.5-6.8-21.9-18.2-23.4l-21.3-2.8c-10.3-1.6-19.5 5.9-20.3 16.2zm156.1 0 1.1 14.5c1.1 14-12.4 24.6-25.7 20.2l-17.6-5.8c-8.6-2.8-15-9.7-17.4-18-.1-.2-.1-.5-.2-.9-1.4-11.5 6.8-21.9 18.2-23.4l21.3-2.8c10.3-1.6 19.6 5.9 20.3 16.2zm-58.4 55c0 8.5-8.8 15.4-19.6 15.4s-19.6-6.9-19.6-15.4 16.6-39.5 19.6-39.5 19.6 31 19.6 39.5z"/><path class="st2" d="M249.1 244.4h-3.9c-3.4 0-6.2-2.8-6.2-6.2v-10.1c0-2.7 2.2-4.8 4.8-4.8h2.8c5.1 0 9.3 4.2 9.3 9.3v4.9c.1 3.8-3 6.9-6.8 6.9z"/><path class="st0" d="M249.1 245.6h-3.9c-4 0-7.4-3.3-7.4-7.4v-10.1c0-3.3 2.7-6 6-6h2.8c5.8 0 10.5 4.7 10.5 10.5v4.9c.1 4.5-3.5 8.1-8 8.1zm-5.2-21.1c-2 0-3.6 1.6-3.6 3.6v10.1c0 2.7 2.2 4.9 4.9 4.9h3.9c3.1 0 5.7-2.5 5.7-5.7v-4.9c0-4.5-3.6-8.1-8.1-8.1h-2.8z"/><path class="st2" d="M235.8 240.7h-4.5c-2.8 0-4.9-2.5-4.4-5.3l2.2-11.2c.2-1.3 1.3-2.2 2.7-2.2 4.1 0 7.4 3.3 7.4 7.4v8c-.1 1.8-1.6 3.3-3.4 3.3z"/><path class="st0" d="M235.8 242h-4.5c-1.7 0-3.3-.7-4.3-2.1-1.1-1.3-1.5-3-1.2-4.7L228 224c.4-1.8 1.9-3.1 3.8-3.1 4.8 0 8.6 3.9 8.6 8.6v8c-.1 2.4-2.2 4.5-4.6 4.5zm-4.1-18.8c-.7 0-1.3.5-1.4 1.2l-2.2 11.2c-.2 1 .1 1.9.7 2.7.6.7 1.5 1.2 2.5 1.2h4.5c1.1 0 2.1-1 2.1-2.1v-8c0-3.4-2.8-6.2-6.2-6.2z"/><path class="st2" d="m210.5 232.4-.4-.2c-1.4-1-2.2-2.7-2-4.5l1.1-7.5c.2-1.3 1.4-2.2 2.7-1.9l.8.1c2.6.4 4.4 2.8 4 5.4l-.9 6.2c-.4 2.5-3.3 3.7-5.3 2.4z"/><path class="st0" d="M212.3 234.1c-.9 0-1.8-.2-2.5-.8l-.4-.2c-1.8-1.2-2.8-3.4-2.5-5.6l1.1-7.5c.1-.9.6-1.7 1.4-2.3.8-.5 1.7-.8 2.6-.7l.8.1c3.3.5 5.5 3.6 5 6.8l-.9 6.2c-.2 1.6-1.3 2.9-2.7 3.6-.6.3-1.2.4-1.9.4zm-.9-14.8c-.2 0-.5.1-.7.2-.2.2-.4.4-.4.7l-1.1 7.5c-.2 1.3.4 2.5 1.4 3.3l.4.2c.7.4 1.4.5 2.1.2.7-.3 1.1-.9 1.3-1.7l.9-6.2c.3-1.9-1.1-3.8-3-4.1l-.9-.1c.2 0 .1 0 0 0z"/><path class="st2" d="m218.7 237.2.9.4c3.1 1.6 6.9-.3 7.5-3.7l1.1-5.7c.7-3.4-1.4-6.8-4.9-7.7l-1.2-.3c-2.5-.7-5.1 1.1-5.5 3.7l-1.1 7.2c-.3 2.5.9 5 3.2 6.1z"/><path class="st0" d="M221.9 239.4c-1 0-2-.2-2.9-.7l-.9-.4c-2.7-1.4-4.2-4.3-3.8-7.3l1.1-7.2c.2-1.6 1.1-3 2.5-3.9 1.3-.9 3-1.1 4.5-.8l1.2.3c4 1 6.6 5 5.8 9.1l-1.1 5.7c-.4 2-1.7 3.7-3.5 4.6-.9.4-1.9.6-2.9.6zm-.9-18.1c-.7 0-1.3.2-1.8.5-.8.5-1.3 1.3-1.4 2.2l-1.1 7.2c-.3 2 .7 3.9 2.5 4.8l.9.4c1.1.6 2.5.6 3.6 0 1.1-.5 1.9-1.6 2.2-2.9l1.1-5.7c.5-2.8-1.2-5.6-4-6.3l-1.2-.3-.8.1z"/><path class="st2" d="m204.1 226.9 1.3 1.3c.9.9 2.5.4 2.7-.9l.9-6.2c.3-2.1-.6-4.1-2.3-5.3l-1.4-1c-.8-.5-1.9-.1-2.1.9l-.7 6.6c-.1 1.8.5 3.5 1.6 4.6z"/><path class="st0" d="M206.6 229.9c-.7 0-1.4-.3-1.9-.8l-1.3-1.3c-1.4-1.4-2.2-3.5-2-5.6l.7-6.6c.1-.9.7-1.6 1.4-2.1.8-.4 1.7-.3 2.5.2l1.4 1c2.1 1.4 3.1 3.9 2.8 6.5l-.9 6.2c-.1 1-.8 1.9-1.9 2.2-.2.3-.5.3-.8.3zm-1.6-3.8 1.3 1.3c.1.1.2.1.4.1.1-.1.2-.1.2-.3l.9-6.2c.2-1.6-.5-3.2-1.8-4.1l-1.4-1s-.1-.1-.1 0c-.1 0-.1.1-.1.1l-.7 6.6c-.1 1.3.4 2.6 1.3 3.5z"/><path class="st2" d="M200.8 222.9c-.7-1-1-2.1-.8-3.3l.4-5.1c.1-.8.8-1.4 1.6-1.2.8.2 1.4 1 1.3 1.8l-.8 7.4c0 .9-1.2 1.1-1.7.4z"/><path class="st0" d="M201.6 224.5c-.7 0-1.4-.4-1.7-1-.8-1.1-1.1-2.6-1-4l.4-5.1c.1-.7.4-1.4 1-1.9.6-.4 1.3-.6 2.1-.5 1.4.3 2.5 1.6 2.3 3.1l-.8 7.4c-.1.9-.7 1.6-1.6 1.9-.3.1-.5.1-.7.1zm.1-10c-.1 0-.1.1-.1.1l-.4 5.1c-.1.6.1 1.1.2 1.7l.7-6.5c0-.2-.1-.4-.4-.4z"/><path class="st2" d="M262.8 244.4h3.9c3.4 0 6.2-2.8 6.2-6.2v-10.1c0-2.7-2.2-4.8-4.8-4.8h-2.8c-5.1 0-9.3 4.2-9.3 9.3v4.9c0 3.8 3 6.9 6.8 6.9z"/><path class="st0" d="M266.7 245.6h-3.9c-4.5 0-8.1-3.6-8.1-8.1v-4.9c0-5.8 4.7-10.5 10.5-10.5h2.8c3.3 0 6 2.7 6 6v10.1c.1 4.1-3.2 7.4-7.3 7.4zm-1.4-21.1c-4.5 0-8.1 3.6-8.1 8.1v4.9c0 3.1 2.5 5.7 5.7 5.7h3.9c2.7 0 4.9-2.2 4.9-4.9v-10.1c0-2-1.6-3.6-3.6-3.6h-2.8z"/><path class="st2" d="M276.2 240.7h4.5c2.8 0 4.9-2.5 4.4-5.3l-2.2-11.2c-.2-1.3-1.3-2.2-2.7-2.2-4.1 0-7.4 3.3-7.4 7.4v8c.1 1.8 1.6 3.3 3.4 3.3z"/><path class="st0" d="M280.7 242h-4.5c-2.5 0-4.5-2.1-4.5-4.5v-8c0-4.8 3.9-8.6 8.6-8.6 1.9 0 3.4 1.3 3.8 3.1l2.2 11.2c.3 1.7-.1 3.4-1.2 4.7-1.1 1.3-2.6 2.1-4.4 2.1zm-.4-18.8c-3.4 0-6.2 2.8-6.2 6.2v8c0 1.1 1 2.1 2.1 2.1h4.5c1 0 1.9-.4 2.5-1.2.7-.8.8-1.7.7-2.7l-2.2-11.2c-.1-.7-.7-1.2-1.4-1.2z"/><path class="st2" d="m301.5 232.4.4-.2c1.4-1 2.2-2.7 2-4.5l-1.1-7.5c-.2-1.3-1.4-2.2-2.7-1.9l-.8.1c-2.6.4-4.4 2.8-4 5.4l.9 6.2c.4 2.5 3.2 3.7 5.3 2.4z"/><path class="st0" d="M299.6 234.1c-.7 0-1.3-.1-1.9-.4-1.4-.7-2.5-2-2.7-3.6l-.9-6.2c-.5-3.3 1.7-6.3 5-6.8l.8-.1c.9-.1 1.9.1 2.6.7.8.5 1.3 1.4 1.4 2.3l1.1 7.5c.3 2.2-.7 4.4-2.5 5.6l-.4.2c-.8.6-1.6.8-2.5.8zm.9-14.8h-.2l-.8.1c-1.9.3-3.3 2.1-3 4.1l.9 6.2c.1.8.6 1.4 1.3 1.7.7.3 1.4.2 2.1-.2l.4-.2c1.1-.7 1.6-2 1.4-3.3l-1.1-7.5c-.1-.3-.2-.5-.4-.7-.2-.1-.4-.2-.6-.2z"/><path class="st2" d="m293.3 237.2-.9.4c-3.1 1.6-6.9-.3-7.5-3.7l-1.1-5.7c-.7-3.4 1.4-6.8 4.9-7.7l1.2-.3c2.5-.7 5.1 1.1 5.5 3.7l1.1 7.2c.3 2.5-1 5-3.2 6.1z"/><path class="st0" d="M290 239.4c-1 0-1.9-.2-2.9-.7-1.8-.9-3.1-2.6-3.5-4.6l-1.1-5.7c-.8-4.1 1.7-8 5.8-9.1l1.2-.3c1.6-.4 3.2-.1 4.5.8s2.2 2.3 2.5 3.9l1.1 7.2c.4 3-1.1 5.9-3.8 7.3l-.9.4c-.9.6-1.9.8-2.9.8zm.9-18.1c-.2 0-.5.1-.8.1l-1.2.3c-2.8.7-4.5 3.4-4 6.3l1.1 5.7c.2 1.3 1 2.3 2.2 2.9 1.1.5 2.5.5 3.6 0l.9-.4c1.8-.9 2.8-2.8 2.5-4.8l-1.1-7.2c-.1-.9-.7-1.7-1.4-2.2-.5-.5-1.1-.7-1.8-.7z"/><path class="st2" d="m307.8 226.9-1.3 1.3c-.9.9-2.5.4-2.7-.9l-.9-6.2c-.3-2.1.6-4.1 2.3-5.3l1.4-1c.8-.5 1.9-.1 2.1.9l.7 6.6c.1 1.8-.5 3.5-1.6 4.6z"/><path class="st0" d="M305.3 229.9c-.3 0-.6-.1-.9-.1-1-.4-1.7-1.2-1.9-2.2l-.9-6.2c-.4-2.5.7-5 2.8-6.5l1.4-1c.7-.5 1.7-.6 2.5-.2.8.4 1.4 1.1 1.4 2.1l.7 6.6c.2 2.1-.5 4.1-2 5.6l-1.3 1.3c-.3.3-1.1.6-1.8.6zm2.1-14.1-1.5 1c-1.3.9-2 2.5-1.8 4.1l.9 6.2c0 .2.1.2.2.3.1.1.2.1.4-.1l1.3-1.3c1-1 1.4-2.2 1.3-3.6l-.7-6.6c0 .1 0 .1-.1 0z"/><path class="st2" d="M311.1 222.9c.7-1 1-2.1.8-3.3l-.4-5.1c-.1-.8-.8-1.4-1.6-1.2-.8.2-1.4 1-1.3 1.8l.8 7.4c.1.9 1.2 1.1 1.7.4z"/><path class="st0" d="M310.3 224.5c-.2 0-.4 0-.5-.1-.9-.2-1.5-1-1.6-1.9l-.8-7.4c-.2-1.5.8-2.8 2.3-3.1.7-.1 1.4 0 2.1.5.6.4 1 1.1 1 1.9l.4 5.1c.1 1.4-.3 2.8-1 4-.5.7-1.1 1-1.9 1zm0-10c-.1 0-.1 0 0 0-.3.1-.4.3-.4.5l.7 6.5c.2-.5.3-1.1.2-1.7l-.4-5.1c0-.1 0-.1-.1-.2z"/><path class="st2" d="M249.3 263.1h-2.8c-3.1 0-5.6-2.5-5.6-5.6v-3.9c0-2.7 2.2-4.9 4.9-4.9h4.7c3 0 5.4 2.4 5.4 5.4v2.4c.1 3.6-2.9 6.6-6.6 6.6z"/><path class="st0" d="M249.3 264.3h-2.8c-3.7 0-6.8-3.1-6.8-6.8v-3.9c0-3.4 2.8-6.2 6.2-6.2h4.7c3.7 0 6.6 3 6.6 6.6v2.4c0 4.3-3.6 7.9-7.9 7.9zm-3.5-14.5c-2.1 0-3.7 1.7-3.7 3.7v3.9c0 2.4 2 4.4 4.4 4.4h2.8c3 0 5.5-2.5 5.5-5.5V254c0-2.4-1.9-4.2-4.2-4.2h-4.8z"/><path class="st2" d="m236.8 248.1-3-.3c-2.1-.2-3.8 1.4-3.8 3.4v5.5c0 2.6 1.9 4.8 4.5 5.3l1.3.2c2.7.4 5.1-1.6 5.1-4.3v-5.2c0-2.4-1.8-4.3-4.1-4.6z"/><path class="st0" d="M236.5 263.3c-.3 0-.6 0-.9-.1l-1.3-.2c-3.1-.5-5.3-3.1-5.3-6.2v-5.5c0-1.3.5-2.5 1.4-3.3.9-.8 2.2-1.3 3.4-1.1l3 .3c2.8.3 4.9 2.7 4.9 5.6v5.2c0 1.6-.7 3-1.9 4-.8.8-2 1.3-3.3 1.3zm-3-14.5c-.6 0-1.2.2-1.6.6-.5.5-.8 1.1-.8 1.9v5.5c0 2.2 1.6 4 3.7 4.3l1.3.2c1 .2 2-.1 2.7-.8.8-.7 1.2-1.6 1.2-2.6v-5.2c0-1.9-1.4-3.4-3.3-3.6l-3-.3h-.2z"/><path class="st2" d="m223.1 245.3 3.9 1.1c1.8.5 3.1 2.2 3.1 4.1v4.5c0 2.9-3 4.9-5.7 3.7l-.9-.4c-2.2-1-3.7-3.2-3.7-5.7v-4.9c0-1.6 1.6-2.9 3.3-2.4z"/><path class="st0" d="M226 260.1c-.7 0-1.4-.1-2-.4l-.9-.4c-2.6-1.1-4.3-3.7-4.3-6.5v-4.9c0-1.1.5-2.2 1.4-2.8.9-.7 2.1-.9 3.1-.5l3.9 1.1c2.2.7 3.7 2.7 3.7 5v4.5c0 1.7-.8 3.3-2.3 4.2-.7.4-1.7.7-2.6.7zm-3.7-13.9c-.4 0-.7.1-1 .3-.4.3-.7.8-.7 1.3v4.9c0 2.1 1.2 3.9 3.1 4.8l.9.4c1 .4 2.1.4 2.9-.2.8-.6 1.4-1.5 1.4-2.6v-4.5c0-1.4-1-2.8-2.4-3.1l-3.9-1.1c.1-.2-.1-.2-.3-.2z"/><path class="st2" d="m215.8 242.7-4.8-2c-1.3-.5-2.7.4-2.7 1.8v3.3c0 2.8 1.6 5.4 4 6.8l4 2.2c1.5.8 3.4-.2 3.4-2v-4.2c.1-2.5-1.5-4.9-3.9-5.9z"/><path class="st0" d="M217.5 256.1c-.5 0-1.1-.1-1.6-.4l-4-2.2c-2.8-1.6-4.5-4.5-4.5-7.7v-3.3c0-1 .5-1.9 1.3-2.5.8-.5 1.9-.7 2.8-.2l4.8 2c2.8 1.1 4.5 3.9 4.5 6.8v4.2c0 1.1-.6 2.2-1.6 2.8-.6.4-1.2.5-1.7.5zm-7.2-14.6c-.2 0-.4.1-.5.2-.3.2-.4.5-.4.8v3.3c0 2.5 1.3 4.8 3.5 6l4 2.2c.4.2.9.2 1.3 0s.7-.7.7-1.1v-4.2c0-2.2-1.3-4.2-3.3-5.1l-4.8-2c-.3-.1-.4-.1-.5-.1z"/><path class="st2" d="m204.6 236.2 2.5 2.2c.8.7 1.2 1.7 1.2 2.8v5.1c0 1.3-1.4 2.1-2.5 1.3l-1.4-.9c-1.3-.8-2.1-2.4-2.1-3.9v-5.4c0-1.4 1.4-2 2.3-1.2z"/><path class="st0" d="M206.7 248.8c-.5 0-1-.1-1.4-.4l-1.4-.9c-1.6-1-2.6-2.8-2.6-4.8v-5.4c0-1 .5-1.7 1.4-2.2.8-.4 1.9-.2 2.5.4l2.5 2.2c1 .9 1.6 2.2 1.6 3.5v5.1c0 1-.5 1.8-1.3 2.2-.5.2-.9.3-1.3.3zm-3-12c-.1 0-.1 0-.2.1s-.2.2-.2.4v5.4c0 1.3.7 2.4 1.7 3.1l1.4.9c.3.2.5.1.7 0 .1-.1.3-.2.3-.5v-5.1c0-.8-.4-1.5-.9-2.1l-2.5-2.2h-.3z"/><path class="st2" d="m201 240.8-2.2-3.4c-.7-1.1-1.1-2.5-1.1-3.9v-1.9c0-.5.6-.7.9-.4l2.8 3.4c.5.5.7 1.3.7 2v3.7c.2.9-.7 1.1-1.1.5z"/><path class="st0" d="M201.6 242.1c-.5 0-1.1-.3-1.4-.8l-2.2-3.4c-.8-1.3-1.3-2.8-1.3-4.3v-1.9c0-.6.4-1.1 1-1.4.6-.2 1.2-.1 1.6.4l2.8 3.4c.6.7 1 1.7 1 2.6v3.7c0 .7-.5 1.3-1.1 1.6-.1.1-.3.1-.4.1zm-3-9.3v.8c0 1.2.4 2.4 1 3.4l1.7 2.7v-2.8c0-.5-.2-1-.5-1.4l-2.2-2.7z"/><path class="st2" d="M262.7 263.1h2.8c3.1 0 5.6-2.5 5.6-5.6v-3.9c0-2.7-2.2-4.9-4.9-4.9h-4.7c-3 0-5.4 2.4-5.4 5.4v2.4c-.1 3.6 2.9 6.6 6.6 6.6z"/><path class="st0" d="M265.4 264.3h-2.8c-4.3 0-7.9-3.6-7.9-7.9V254c0-3.7 3-6.6 6.6-6.6h4.7c3.4 0 6.2 2.8 6.2 6.2v3.9c.1 3.7-3 6.8-6.8 6.8zm-4-14.5c-2.4 0-4.2 1.9-4.2 4.2v2.4c0 3 2.5 5.5 5.5 5.5h2.8c2.4 0 4.4-2 4.4-4.4v-3.9c0-2.1-1.7-3.7-3.7-3.7h-4.8z"/><path class="st2" d="m275.2 248.1 3-.3c2.1-.2 3.8 1.4 3.8 3.4v5.5c0 2.6-1.9 4.8-4.5 5.3l-1.3.2c-2.7.4-5.1-1.6-5.1-4.3v-5.2c0-2.4 1.7-4.3 4.1-4.6z"/><path class="st0" d="M275.4 263.3c-1.3 0-2.5-.4-3.4-1.3-1.2-1-1.9-2.5-1.9-4v-5.2c0-2.8 2.1-5.2 4.9-5.6l3-.3c1.3-.1 2.5.2 3.4 1.1.9.8 1.4 2.1 1.4 3.3v5.5c0 3.1-2.2 5.7-5.3 6.2l-1.3.2-.8.1zm-.1-14.2c-1.9.2-3.3 1.7-3.3 3.6v5.2c0 1 .4 1.9 1.2 2.6.8.7 1.7.9 2.7.8l1.3-.2c2.1-.4 3.7-2.2 3.7-4.3v-5.5c0-.7-.3-1.4-.8-1.9s-1.2-.7-1.9-.6l-2.9.3z"/><path class="st2" d="m288.9 245.3-3.9 1.1c-1.8.5-3.1 2.2-3.1 4.1v4.5c0 2.9 3 4.9 5.7 3.7l.9-.4c2.2-1 3.7-3.2 3.7-5.7v-4.9c0-1.6-1.7-2.9-3.3-2.4z"/><path class="st0" d="M286 260.1c-1 0-1.9-.3-2.7-.8-1.4-.9-2.3-2.5-2.3-4.2v-4.5c0-2.3 1.6-4.3 3.7-5l3.9-1.1c1.1-.3 2.2-.1 3.1.5s1.4 1.7 1.4 2.8v4.9c0 2.8-1.7 5.4-4.3 6.5l-.9.4c-.6.3-1.3.5-1.9.5zm3.2-13.9-3.9 1.1c-1.4.4-2.4 1.7-2.4 3.1v4.5c0 1 .5 2 1.4 2.6.9.6 1.9.7 2.9.2l.9-.4c1.9-.8 3.1-2.7 3.1-4.8v-4.9c0-.5-.2-1-.7-1.3-.3-.1-.9-.2-1.3-.1z"/><path class="st2" d="m296.1 242.7 4.8-2c1.3-.5 2.7.4 2.7 1.8v3.3c0 2.8-1.6 5.4-4 6.8l-4 2.2c-1.5.8-3.4-.2-3.4-2v-4.2c0-2.5 1.5-4.9 3.9-5.9z"/><path class="st0" d="M294.5 256.1c-.5 0-1.1-.2-1.7-.5-1-.6-1.6-1.6-1.6-2.8v-4.2c0-3 1.7-5.7 4.5-6.8l4.8-2c.9-.4 1.9-.3 2.8.2s1.3 1.4 1.3 2.5v3.3c0 3.2-1.7 6.1-4.5 7.7l-4 2.2c-.5.3-1.1.4-1.6.4zm7.1-14.6c-.1 0-.2 0-.4.1l-4.8 2c-2.1.8-3.3 2.8-3.3 5.1v4.2c0 .5.2.9.7 1.1s.9.2 1.3 0l4-2.2c2.2-1.2 3.5-3.5 3.5-6v-3.3c0-.4-.2-.7-.4-.8-.1-.2-.3-.2-.6-.2z"/><path class="st2" d="m307.3 236.2-2.5 2.2c-.8.7-1.2 1.7-1.2 2.8v5.1c0 1.3 1.4 2.1 2.5 1.3l1.4-.9c1.3-.8 2.1-2.4 2.1-3.9v-5.4c.1-1.4-1.4-2-2.3-1.2z"/><path class="st0" d="M305.3 248.8c-.4 0-.8-.1-1.2-.3-.8-.4-1.3-1.3-1.3-2.2v-5.1c0-1.3.5-2.6 1.6-3.5l2.5-2.2c.7-.7 1.7-.8 2.5-.4s1.4 1.2 1.4 2.2v5.4c0 1.9-1 3.7-2.6 4.8l-1.4.9c-.6.2-1.1.4-1.5.4zm2.7-11.9-2.5 2.2c-.6.5-.9 1.3-.9 2.1v5.1c0 .4.2.5.3.5.1.1.4.2.7 0l1.4-.9c1.1-.7 1.7-1.9 1.7-3.1v-5.4c0-.2-.2-.4-.2-.4-.1-.1-.3-.2-.5-.1z"/><path class="st2" d="m310.9 240.8 2.2-3.4c.7-1.1 1.1-2.5 1.1-3.9v-1.9c0-.5-.6-.7-.9-.4l-2.8 3.4c-.5.5-.7 1.3-.7 2v3.7c-.1.9.8 1.1 1.1.5z"/><path class="st0" d="M310.3 242.1c-.1 0-.3 0-.5-.1-.7-.2-1.1-.8-1.1-1.6v-3.7c0-1 .4-1.9 1-2.6l2.8-3.4c.4-.5 1-.7 1.6-.4.6.2 1 .7 1 1.4v1.9c0 1.5-.4 3-1.3 4.3l-2.2 3.4c-.2.5-.7.8-1.3.8zm3-9.3-2.1 2.6c-.3.4-.5.9-.5 1.4v2.8l1.7-2.7c.6-1 1-2.2 1-3.4v-.7z"/><path class="st1" d="M422.4 250.5c6.7-.1 8.7-2.2 13.6-2 1.3.1 3 1.1 4.7 2.6 1.8-5.7 2.9-12.1-.2-17.6-6.4-11.5-20.9-15.6-32.4-9.3-7.5 4.2-11.8 11.7-12.2 19.7 3.8-1.8 7.3-3.1 9.1-2.9 4.8.7 10.6 9.6 17.4 9.5z"/><path class="st0" d="m114.1 485 2.4 3.5c4.3 5.2 2.2 7.5-3.1 11.7l-9.2 10.9c.9-.4 1.7-.8 2.4-1.3 2.7-2.1 6.3-3.5 6.3-3.5 8-2.1 14.5-7.8 17.5-15.4l3-7.7c1.3-3.5 3.8-6.4 6.8-8.6 15-10 65-42.7 153.9-92.8 56.8-32.3 103.7-57.1 116.6-63.8 2.2-1.1 4.9-1.5 7.3-.9 8.6 2.1 17.6-1.7 22-9.4l8.2-14.6c2.4-4.3 2.6-9.5.5-13.9l-.1-.2c-1.3-2.7-5-2.9-6.4-.4l-1.6 2.5c-1.3 2.2-4.7 2-5.8-.3l-2-4.3c-3.3-7.2-1.4-15.7 4.7-20.7l1.6-1.3c.6-.5 1-1.1 1.1-1.7.2-.5.4-1.3.6-1.8-1.7-1.5-3.5-2.6-4.7-2.6-4.9-.3-7 1.8-13.7 1.9-6.7.1-12.4-8.7-17.2-9.4-1.7-.2-5.4 1-9.1 2.9 0 .2-.1.6 0 .8-.1 1.3.6 2.5 1.5 3.3l1.2.9c4.1 3.3 5.5 8.9 3.6 13.8l-6.6 16.1c-.4.9-1.5 1.4-2.4 1-4.1-1.4-9 2.3-11.2 8.3l-.3.9c-1.5 5.2-4.5 9.7-8.9 12.9-18 12.9-48.8 33.7-93.1 60-59.2 35.2-121.2 61-145.7 70.8-7 2.8-14.6 3.5-22 2.3l-11.8-2c-9.5-1.6-19.3 1.9-25.5 9.1l-10.2 11.8c-.9 1-1.6 2.2-2 3.3l13.1-8.8c4.6-3.7 9.1-3.1 12.8 1.4l1.2 1.7c4.3 5.2 4.6 10.2-.7 14.4l-10.4 10.3 4.6 1.9c2.9 1.2 4.8 3.9 4.9 7l.2 6.3 13.4-8.3c4.6-3.4 8.7-2.5 12.3 2z"/><path class="st1" d="m93.2 509 .2.3c2.3 3 6.9 3.4 10.7 1.9l11.1-9c5.2-4.3 6.1-12 1.8-17.2l-1.4-1.7c-3.7-4.6-10.3-5.2-14.9-1.5l-12.3 10v2.7c.4 5.2 2 10.2 4.8 14.5zm-1.1-59-1.4-1.7c-3.7-4.6-10.3-5.2-14.9-1.5l-13 10.6c-2.4 5.9.3 13 6.6 15.5l9.4 3.7 11.5-9.3c5.2-4.4 6-12 1.8-17.3z"/><path d="M222 393.3c9.1 5.2 17.8 10.1 26 14.9 12.8-7.5 26.7-15.5 41.8-24-8.4-4.2-16.9-8.7-25.5-13.3-14.4 8.1-28.6 15.6-42.3 22.4z" opacity=".15" fill="#444"/><path class="st1" d="M89.6 250.5c6.8.1 12.6-8.8 17.5-9.5 1.8-.2 5.3 1.2 9.1 2.9-.4-8-4.8-15.5-12.2-19.7-11.5-6.4-26-2.2-32.4 9.3-3.1 5.5-1.9 11.9-.2 17.6 1.7-1.5 3.4-2.6 4.7-2.6 4.8-.2 6.8 1.9 13.5 2z"/><path class="st0" d="M397.9 485c3.6-4.5 7.7-5.4 12.1-1.9l13.4 8.3.2-6.3c.1-3.1 2-5.8 4.9-7l4.6-1.9-10.4-10.3c-5.3-4.2-5-9.2-.7-14.4l1.2-1.7c3.7-4.5 8.2-5.1 12.8-1.4l13.1 8.8c-.5-1.1-1.1-2.3-2-3.3L437 442c-6.3-7.2-16-10.8-25.5-9.1l-11.8 2c-7.4 1.2-15 .5-22-2.3-24.5-9.7-86.5-35.6-145.7-70.8-44.2-26.3-75-47.1-93.1-60-4.4-3.1-7.4-7.7-8.9-12.9l-.3-.9c-2.1-6-7.1-9.7-11.2-8.3-.9.4-2-.1-2.4-1l-6.6-16.1c-1.9-4.9-.5-10.6 3.6-13.8l1.2-.9c.9-.8 1.6-2 1.5-3.3 0-.2-.1-.6 0-.8-3.7-1.9-7.4-3.1-9.1-2.9-4.8.7-10.5 9.4-17.2 9.4-6.7-.1-8.8-2.2-13.7-1.9-1.2 0-3 1.1-4.7 2.6.2.5.4 1.3.6 1.8.2.6.5 1.2 1.1 1.7l1.6 1.3c6.1 5.1 8 13.6 4.7 20.7l-2 4.3c-1.1 2.4-4.5 2.6-5.8.3l-1.6-2.5c-1.5-2.5-5.2-2.3-6.4.4l-.1.2c-2.1 4.5-1.9 9.6.5 13.9l8.2 14.6c4.4 7.8 13.4 11.6 22 9.4 2.4-.6 5.1-.2 7.3.9 12.9 6.8 59.8 31.5 116.6 63.8 88.8 50.1 138.9 82.8 153.9 92.8 3.1 2.1 5.5 5 6.8 8.6l3 7.7c3 7.6 9.5 13.4 17.5 15.4 0 0 3.6 1.4 6.3 3.5.7.6 1.5 1 2.4 1.3l-9.2-10.9c-5.3-4.2-7.4-6.5-3.1-11.7l2.5-3.5z"/><path class="st1" d="M423.5 494.4v-2.7l-12.3-10c-4.6-3.7-11.2-3-14.9 1.5l-1.4 1.7c-4.3 5.2-3.4 13 1.8 17.2l11.1 9c3.7 1.5 8.4 1.1 10.7-1.9l.2-.3c2.9-4.2 4.5-9.2 4.8-14.5zm-3.6-44.4c-4.2 5.3-3.4 13 1.8 17.2l11.5 9.3 9.4-3.7c6.3-2.5 9-9.6 6.6-15.5l-13-10.6c-4.6-3.7-11.2-3-14.9 1.5l-1.4 1.8z"/></svg>