<svg version="1.1" xmlns="http://www.w3.org/2000/svg" x="0" y="0" viewBox="0 0 512 512" xml:space="preserve"><path d="M166.1 512s-1-7-1.5-13-.2-35.3-1.4-52.9c-.6-8.8-1.1-17.6-2-26.4-.7-7.4-4.3-15.1-6.8-22.2-4.8-13.5-10.9-26.6-16.7-39.7-6.1-14-13.4-28.2-15.3-43.5-2.1-17.3 4.9-28.1 15.9-40.3 11.1-12.3 9.2-37 8.4-52.4-1.2-20.8-5.2-41.2-8-61.8-4.9-35.2-6.1-70.9-7.1-106.4-.5-17.2 18.2-37.6 32.8-19 10 12.8 5.9 33 8.2 47.9 2.4 15.8 5.7 31.4 9.6 46.9 2.1 8.2 2.6 16.7 5.3 24.7 1.2 3.6 10.6 22 16.6 14.1 2.4-3.3-.4-14-.6-17.9-.5-7.9-1-15.9-.8-23.8.3-14.3 3.8-28.9 3.8-43.1 2.3-15.1 3.1-30.4 5.7-45.5 1.9-11.1 3.3-26.9 12.8-34.3 6.3-4.9 16-4.8 22.2.1 10.6 8.4 5.4 23.4 4.4 34.7-1.5 16.6-2.7 33.3-3.2 50-.7 23.4 1.1 46.7-.6 70-.3 3.7 2.6 11.2 7.3 10.8 3.8-.3 12.8-59.9 14.6-67.5 4.6-18.7 7.8-38 12.3-56.4 1.9-7.6 8.4-13.6 16.4-13.8 6-.1 11.9 3.2 14.9 8.3 3.8 6.5 2.8 14.5 1.8 21.9-5.7 40.6-11.4 81.1-17.1 121.7-.7 4.8-3.8 15 .6 18.8 5.3 4.6 10.4-1.5 13-5.7 9.7-16.1 19.1-32.4 28.3-48.8 7.3-13.1 18.1-53.2 40.3-42.9 4.3 2 7.7 6.1 8.8 10.7 3.4 13.6-7.2 28.3-12.6 40.1-7.9 17.1-15.3 34.3-23 51.5-3.7 8.3-7.4 16.6-9.7 25.4-5.4 20.7-3.2 41.6-3.7 62.6-.5 22.9-2.6 46.6-8.6 68.8-4 14.7-10 28.9-13.1 43.9-2.2 10.5-3 21.2-3.4 31.9-1 24.1-.3 48.3 2.1 72.3 0 .2-150.9.2-150.9.2z" fill="#ffcc80"/><path d="M241.6 288c12.4-2.8 25.2-5.7 36.7-13.7 6-4.2 12.1-10 11.4-20.9-.7-10.8-9.7-20.2-19.5-20.5-14.2-.4-28.9-.9-42.2-7.6-1.6-.8-3.3-1.6-4.9-2.4-1.7-.8-3.2-1.5-4.8-2.3-12.5-6.4-22.4.1-29.5 6.5-5.1 4.5-10.1 9.2-15 13.8-2.1 2-4.2 4-6.4 5.9-.8.7-1.6 1.5-2.4 2.3-1.6 1.6-3.1 3-4.8 4.3-5.1 4.1-11 8.8-17.2 13.5-1.2 2.7-2.7 5.1-4.6 7.2-2.3 2.5-4.4 5-6.3 7.5 6.2-2.8 11.8-5.4 12.6-6 7.4-5.5 14.5-11.1 20.4-15.9 1.9-1.5 3.6-3.2 5.3-4.8.8-.7 1.5-1.5 2.3-2.2 2.1-2 4.3-4 6.4-6 4.8-4.5 9.8-9.2 14.8-13.6 8.2-7.3 13.8-8.7 20.6-5.3 1.7.9 3.4 1.7 5.1 2.4 1.6.8 3.2 1.5 4.7 2.2 14.9 7.5 31.2 8 45.5 8.5 5.2.2 11.3 5.6 11.8 13 .4 5.8-1.7 9.4-8 13.8-10.2 7.1-21.7 9.7-33.9 12.5l-6.3 1.5c-2.4.6-5.6-.2-8.9-1.1-2.2-.6-4.6-1.1-6.9-1.4-3.1-.3-6.6.7-8.8 2.6-4.7 4-8.2 7.5-11.2 11.2-1.6 1.9-3.2 3.9-5.1 6.3-1.4 1.7-1.1 4.3.7 5.6.7.6 1.6.8 2.5.8 1.2 0 2.4-.5 3.2-1.5 1.8-2.3 3.4-4.3 4.9-6.2 2.7-3.3 5.9-6.5 10.2-10.2.5-.4 1.8-.8 2.8-.7 1.8.2 3.8.7 5.8 1.2.9.2 1.8.4 2.7.7 4.3 11.2 8.3 25.1 11.9 41.3 10.4 46.2-12.1 71.4-13 72.4-1.5 1.6-1.4 4.2.2 5.7.8.7 1.7 1.1 2.7 1.1 1.1 0 2.1-.4 2.9-1.3 1.1-1.2 26.3-29.1 15-79.6-3.4-15-7-28-11-38.9.4-.1.8-.1 1.2-.2 2.2-.5 4.3-1 6.4-1.5z" opacity=".15" fill="#444"/></svg>