<svg version="1.1" xmlns="http://www.w3.org/2000/svg" x="0" y="0" viewBox="0 0 512 512" xml:space="preserve"><style type="text/css">.st1{fill:#36434f}.st2{fill:#e3b877}.st3{fill:#f4f4f4}</style><path d="M424.6 267.8c-5.5-1.3-11.4 1.2-17 6.4l11.7-114.5C419.3 73.9 346.2 4.4 256 4.4S92.7 73.9 92.7 159.7l11.7 114.5c-5.6-5.1-11.5-7.5-16.9-6.3-13.9 3.3-19.8 29.2-13 57.9 6.7 28.7 23.5 49.4 37.4 46.1.8-.2 1.7-.5 2.4-.8l1.2 11.5c4.1 40.6 27.1 77.3 62.6 100.2l27 17.4c11.9 7.7 26 11.8 40.4 11.8h21c14.4 0 28.5-4.1 40.4-11.8l27-17.4c35.5-22.9 58.5-59.6 62.6-100.2l1.2-11.7c.8.4 1.7.7 2.5.9 13.9 3.3 30.7-17.4 37.4-46.1 6.7-28.7.9-54.6-13-57.9z" fill="#ffcc80"/><path class="st1" d="M432.8 132.9C432.2 59.4 353.3 0 256 0S79.8 59.4 79.2 132.9l27.9 168.6 8.2-166.5c36 16.1 85.7 26.1 140.7 26.1s104.7-10 140.7-26.1l8.2 166.5 27.9-168.6z"/><path class="st2" d="M254.4 368.3h3.2c8.9 0 16-7.2 16-16v-16.4c0-8.8-7.2-16-16-16h-3.2c-8.8 0-16 7.2-16 16v16.4c0 8.8 7.2 16 16 16z"/><circle class="st1" cx="188.7" cy="275.8" r="26.4"/><ellipse class="st3" cx="203.3" cy="270.9" rx="7.5" ry="8.5"/><circle class="st1" cx="323.3" cy="275.8" r="26.4"/><ellipse class="st3" cx="337.9" cy="270.9" rx="7.5" ry="8.5"/><path class="st2" d="M255 399.1c21.6 0 42.3 9.1 56.8 25.1l-16 14.5c-10.4-11.5-25.3-18.1-40.8-18.1s-30.4 6.6-40.8 18.1l-16-14.5c14.5-15.9 35.2-25.1 56.8-25.1z"/><path d="M79.2 132.9l23.1 139.5c-4.9-3.9-10-5.6-14.8-4.5-13.9 3.3-19.7 29.2-13 57.9 6.7 28.7 23.5 49.4 37.4 46.1.8-.2 1.6-.5 2.4-.8l1.2 11.6c4.1 40.6 27.1 77.3 62.6 100.2l27 17.4c11.9 7.7 26 11.8 40.4 11.8H256V0C158.7 0 79.8 59.4 79.2 132.9z" opacity=".15" fill="#444"/></svg>