<svg version="1.1" xmlns="http://www.w3.org/2000/svg" x="0" y="0" viewBox="0 0 512 512" xml:space="preserve"><style type="text/css">.st0{fill:#36434f}.st2{fill:#f4f4f4}</style><path class="st0" d="M144.2 460h223.6c12.6 0 25-3.7 35.5-10.7 19.4-12.9 41.4-27.7 60-40.2 21.1-14.3 31.8-39.7 27.1-64.8l-19-101.8C448.9 103.6 361 0 256 0S63.1 103.6 40.6 242.5l-19 101.8c-4.7 25.1 6 50.5 27.1 64.8 18.6 12.5 40.6 27.3 60 40.2 10.5 7 22.9 10.7 35.5 10.7z"/><path d="M402 203c0-72.4-65.4-131-146-131s-146 58.7-146 131l17.3 183c3.2 34.1 20.8 65.7 49.1 88.6l25.4 20.5c13.4 10.9 30.9 16.9 49 16.9h10.6c18.1 0 35.5-6 49-16.9l25.4-20.5c28.3-22.9 45.8-54.6 49.1-88.6L402 203z" fill="#ffcc80"/><circle class="st0" cx="194.7" cy="286.8" r="26.4"/><ellipse class="st2" cx="209.3" cy="281.9" rx="7.5" ry="8.5"/><circle class="st0" cx="317.3" cy="286.8" r="26.4"/><ellipse class="st2" cx="331.9" cy="281.9" rx="7.5" ry="8.5"/><path d="M257.6 380.3h-3.2c-8.8 0-16-7.2-16-16v-16.4c0-8.8 7.2-16 16-16h3.2c8.8 0 16 7.2 16 16v16.4c0 8.8-7.1 16-16 16zm39.1 44.1c0 7.9-6.4 14.4-14.4 14.4h-52.7c-7.9 0-14.4-6.4-14.4-14.4 0-7.9 6.4-14.4 14.4-14.4h52.7c8 0 14.4 6.4 14.4 14.4z" fill="#e3b877"/><path class="st0" d="M460.5 193.8C427.4 80.1 348.3 0 256 0 159.9 0 78.1 86.7 47.7 207.9 72.4 222.6 101.2 231 132 231c65.9 0 122.7-38.6 149.2-94.4C311.4 175.7 358.7 201 412 201c16.9 0 33.1-2.5 48.5-7.2z"/></svg>