<svg version="1.1" xmlns="http://www.w3.org/2000/svg" x="0" y="0" viewBox="0 0 512 512" xml:space="preserve"><style type="text/css">.st0{fill:#0074ae}.st1{fill:#ee3a24}.st2{fill:#ff8327}.st3{fill:#059dd2}.st4{fill:#2c9b47}</style><path class="st0" d="M160 131c0 2.8-2.3 5-5 5H5c-2.8 0-5-2.3-5-5v-6c0-2.8 2.3-5 5-5h150c2.8 0 5 2.3 5 5v6z"/><path class="st1" d="M48 163c0 2.8-2.3 5-5 5H5c-2.8 0-5-2.3-5-5v-6c0-2.8 2.3-5 5-5h38c2.8 0 5 2.3 5 5v6z"/><path class="st2" d="M160 163c0 2.8-2.3 5-5 5H69c-2.8 0-5-2.3-5-5v-6c0-2.8 2.3-5 5-5h86c2.8 0 5 2.3 5 5v6z"/><path class="st0" d="M224 131c0 2.8-2.3 5-5 5h-38c-2.8 0-5-2.3-5-5v-6c0-2.8 2.3-5 5-5h38c2.8 0 5 2.3 5 5v6zm0 32c0 2.8-2.3 5-5 5h-38c-2.8 0-5-2.3-5-5v-6c0-2.8 2.3-5 5-5h38c2.8 0 5 2.3 5 5v6zm128-32c0 2.8-2.3 5-5 5H245c-2.8 0-5-2.3-5-5v-6c0-2.8 2.3-5 5-5h102c2.8 0 5 2.3 5 5v6zm-96 32c0 2.8-2.3 5-5 5h-6c-2.8 0-5-2.3-5-5v-6c0-2.8 2.3-5 5-5h6c2.8 0 5 2.3 5 5v6z"/><path class="st3" d="M288 163c0 2.8-2.3 5-5 5h-6c-2.8 0-5-2.3-5-5v-6c0-2.8 2.3-5 5-5h6c2.8 0 5 2.3 5 5v6z"/><path class="st1" d="M320 163c0 2.8-2.3 5-5 5h-6c-2.8 0-5-2.3-5-5v-6c0-2.8 2.3-5 5-5h6c2.8 0 5 2.3 5 5v6z"/><path class="st4" d="M352 163c0 2.8-2.3 5-5 5h-6c-2.8 0-5-2.3-5-5v-6c0-2.8 2.3-5 5-5h6c2.8 0 5 2.3 5 5v6z"/><path class="st0" d="M400 131c0 2.8-2.3 5-5 5h-22c-2.8 0-5-2.3-5-5v-6c0-2.8 2.3-5 5-5h22c2.8 0 5 2.3 5 5v6z"/><path class="st3" d="M400 163c0 2.8-2.3 5-5 5h-22c-2.8 0-5-2.3-5-5v-6c0-2.8 2.3-5 5-5h22c2.8 0 5 2.3 5 5v6z"/><path class="st0" d="M448 131c0 2.8-2.3 5-5 5h-22c-2.8 0-5-2.3-5-5v-6c0-2.8 2.3-5 5-5h22c2.8 0 5 2.3 5 5v6z"/><path class="st2" d="M448 163c0 2.8-2.3 5-5 5h-22c-2.8 0-5-2.3-5-5v-6c0-2.8 2.3-5 5-5h22c2.8 0 5 2.3 5 5v6z"/><path class="st0" d="M512 131c0 2.8-2.3 5-5 5h-38c-2.8 0-5-2.3-5-5v-6c0-2.8 2.3-5 5-5h38c2.8 0 5 2.3 5 5v6z"/><path class="st1" d="M512 163c0 2.8-2.3 5-5 5h-38c-2.8 0-5-2.3-5-5v-6c0-2.8 2.3-5 5-5h38c2.8 0 5 2.3 5 5v6z"/><path class="st3" d="M128 195c0 2.8-2.3 5-5 5H5c-2.8 0-5-2.3-5-5v-6c0-2.8 2.3-5 5-5h118c2.8 0 5 2.3 5 5v6zm32 0c0 2.8-2.3 5-5 5h-6c-2.8 0-5-2.3-5-5v-6c0-2.8 2.3-5 5-5h6c2.8 0 5 2.3 5 5v6z"/><path class="st4" d="M224 195c0 2.8-2.3 5-5 5h-38c-2.8 0-5-2.3-5-5v-6c0-2.8 2.3-5 5-5h38c2.8 0 5 2.3 5 5v6z"/><path class="st1" d="M256 195c0 2.8-2.3 5-5 5h-6c-2.8 0-5-2.3-5-5v-6c0-2.8 2.3-5 5-5h6c2.8 0 5 2.3 5 5v6z"/><path class="st0" d="M288 195c0 2.8-2.3 5-5 5h-6c-2.8 0-5-2.3-5-5v-6c0-2.8 2.3-5 5-5h6c2.8 0 5 2.3 5 5v6zm32 0c0 2.8-2.3 5-5 5h-6c-2.8 0-5-2.3-5-5v-6c0-2.8 2.3-5 5-5h6c2.8 0 5 2.3 5 5v6z"/><path class="st1" d="M352 195c0 2.8-2.3 5-5 5h-6c-2.8 0-5-2.3-5-5v-6c0-2.8 2.3-5 5-5h6c2.8 0 5 2.3 5 5v6z"/><path class="st0" d="M400 195c0 2.8-2.3 5-5 5h-22c-2.8 0-5-2.3-5-5v-6c0-2.8 2.3-5 5-5h22c2.8 0 5 2.3 5 5v6z"/><path class="st3" d="M448 195c0 2.8-2.3 5-5 5h-22c-2.8 0-5-2.3-5-5v-6c0-2.8 2.3-5 5-5h22c2.8 0 5 2.3 5 5v6z"/><path class="st4" d="M512 195c0 2.8-2.3 5-5 5h-38c-2.8 0-5-2.3-5-5v-6c0-2.8 2.3-5 5-5h38c2.8 0 5 2.3 5 5v6z"/><path class="st1" d="M80 227c0 2.8-2.3 5-5 5H5c-2.8 0-5-2.3-5-5v-6c0-2.8 2.3-5 5-5h70c2.8 0 5 2.3 5 5v6z"/><path class="st4" d="M160 227c0 2.8-2.3 5-5 5h-54c-2.8 0-5-2.3-5-5v-6c0-2.8 2.3-5 5-5h54c2.8 0 5 2.3 5 5v6z"/><path class="st0" d="M224 227c0 2.8-2.3 5-5 5h-38c-2.8 0-5-2.3-5-5v-6c0-2.8 2.3-5 5-5h38c2.8 0 5 2.3 5 5v6zm32 0c0 2.8-2.3 5-5 5h-6c-2.8 0-5-2.3-5-5v-6c0-2.8 2.3-5 5-5h6c2.8 0 5 2.3 5 5v6z"/><path class="st4" d="M288 227c0 2.8-2.3 5-5 5h-6c-2.8 0-5-2.3-5-5v-6c0-2.8 2.3-5 5-5h6c2.8 0 5 2.3 5 5v6z"/><path class="st0" d="M320 227c0 2.8-2.3 5-5 5h-6c-2.8 0-5-2.3-5-5v-6c0-2.8 2.3-5 5-5h6c2.8 0 5 2.3 5 5v6z"/><path class="st4" d="M352 227c0 2.8-2.3 5-5 5h-6c-2.8 0-5-2.3-5-5v-6c0-2.8 2.3-5 5-5h6c2.8 0 5 2.3 5 5v6zm48 0c0 2.8-2.3 5-5 5h-22c-2.8 0-5-2.3-5-5v-6c0-2.8 2.3-5 5-5h22c2.8 0 5 2.3 5 5v6zm48 0c0 2.8-2.3 5-5 5h-22c-2.8 0-5-2.3-5-5v-6c0-2.8 2.3-5 5-5h22c2.8 0 5 2.3 5 5v6z"/><path class="st0" d="M512 227c0 2.8-2.3 5-5 5h-38c-2.8 0-5-2.3-5-5v-6c0-2.8 2.3-5 5-5h38c2.8 0 5 2.3 5 5v6z"/><path class="st2" d="M16 259c0 2.8-2.3 5-5 5H5c-2.8 0-5-2.3-5-5v-6c0-2.8 2.3-5 5-5h6c2.8 0 5 2.3 5 5v6z"/><path class="st4" d="M160 259c0 2.8-2.3 5-5 5h-22c-2.8 0-5-2.3-5-5v-6c0-2.8 2.3-5 5-5h22c2.8 0 5 2.3 5 5v6zm64 0c0 2.8-2.3 5-5 5h-38c-2.8 0-5-2.3-5-5v-6c0-2.8 2.3-5 5-5h38c2.8 0 5 2.3 5 5v6z"/><path class="st2" d="M256 259c0 2.8-2.3 5-5 5h-6c-2.8 0-5-2.3-5-5v-6c0-2.8 2.3-5 5-5h6c2.8 0 5 2.3 5 5v6zm32 0c0 2.8-2.3 5-5 5h-6c-2.8 0-5-2.3-5-5v-6c0-2.8 2.3-5 5-5h6c2.8 0 5 2.3 5 5v6z"/><path class="st4" d="M320 259c0 2.8-2.3 5-5 5h-6c-2.8 0-5-2.3-5-5v-6c0-2.8 2.3-5 5-5h6c2.8 0 5 2.3 5 5v6z"/><path class="st0" d="M352 259c0 2.8-2.3 5-5 5h-6c-2.8 0-5-2.3-5-5v-6c0-2.8 2.3-5 5-5h6c2.8 0 5 2.3 5 5v6z"/><path class="st2" d="M400 259c0 2.8-2.3 5-5 5h-22c-2.8 0-5-2.3-5-5v-6c0-2.8 2.3-5 5-5h22c2.8 0 5 2.3 5 5v6z"/><path class="st0" d="M448 259c0 2.8-2.3 5-5 5h-22c-2.8 0-5-2.3-5-5v-6c0-2.8 2.3-5 5-5h22c2.8 0 5 2.3 5 5v6z"/><path class="st3" d="M512 259c0 2.8-2.3 5-5 5h-38c-2.8 0-5-2.3-5-5v-6c0-2.8 2.3-5 5-5h38c2.8 0 5 2.3 5 5v6z"/><path class="st0" d="M32 291c0 2.8-2.3 5-5 5H5c-2.8 0-5-2.3-5-5v-6c0-2.8 2.3-5 5-5h22c2.8 0 5 2.3 5 5v6z"/><path class="st1" d="M160 291c0 2.8-2.3 5-5 5H53c-2.8 0-5-2.3-5-5v-6c0-2.8 2.3-5 5-5h102c2.8 0 5 2.3 5 5v6z"/><path class="st0" d="M224 291c0 2.8-2.3 5-5 5h-38c-2.8 0-5-2.3-5-5v-6c0-2.8 2.3-5 5-5h38c2.8 0 5 2.3 5 5v6zm32 0c0 2.8-2.3 5-5 5h-6c-2.8 0-5-2.3-5-5v-6c0-2.8 2.3-5 5-5h6c2.8 0 5 2.3 5 5v6z"/><path class="st1" d="M288 291c0 2.8-2.3 5-5 5h-6c-2.8 0-5-2.3-5-5v-6c0-2.8 2.3-5 5-5h6c2.8 0 5 2.3 5 5v6z"/><path class="st2" d="M320 291c0 2.8-2.3 5-5 5h-6c-2.8 0-5-2.3-5-5v-6c0-2.8 2.3-5 5-5h6c2.8 0 5 2.3 5 5v6z"/><path class="st0" d="M352 291c0 2.8-2.3 5-5 5h-6c-2.8 0-5-2.3-5-5v-6c0-2.8 2.3-5 5-5h6c2.8 0 5 2.3 5 5v6zm48 0c0 2.8-2.3 5-5 5h-22c-2.8 0-5-2.3-5-5v-6c0-2.8 2.3-5 5-5h22c2.8 0 5 2.3 5 5v6zm48 0c0 2.8-2.3 5-5 5h-22c-2.8 0-5-2.3-5-5v-6c0-2.8 2.3-5 5-5h22c2.8 0 5 2.3 5 5v6zm64 0c0 2.8-2.3 5-5 5h-38c-2.8 0-5-2.3-5-5v-6c0-2.8 2.3-5 5-5h38c2.8 0 5 2.3 5 5v6z"/><path class="st4" d="M96 323c0 2.8-2.3 5-5 5H5c-2.8 0-5-2.3-5-5v-6c0-2.8 2.3-5 5-5h86c2.8 0 5 2.3 5 5v6z"/><path class="st2" d="M160 323c0 2.8-2.3 5-5 5h-38c-2.8 0-5-2.3-5-5v-6c0-2.8 2.3-5 5-5h38c2.8 0 5 2.3 5 5v6z"/><path class="st4" d="M224 323c0 2.8-2.3 5-5 5h-38c-2.8 0-5-2.3-5-5v-6c0-2.8 2.3-5 5-5h38c2.8 0 5 2.3 5 5v6z"/><path class="st0" d="M256 323c0 2.8-2.3 5-5 5h-6c-2.8 0-5-2.3-5-5v-6c0-2.8 2.3-5 5-5h6c2.8 0 5 2.3 5 5v6zm32 0c0 2.8-2.3 5-5 5h-6c-2.8 0-5-2.3-5-5v-6c0-2.8 2.3-5 5-5h6c2.8 0 5 2.3 5 5v6zm32 0c0 2.8-2.3 5-5 5h-6c-2.8 0-5-2.3-5-5v-6c0-2.8 2.3-5 5-5h6c2.8 0 5 2.3 5 5v6z"/><path class="st1" d="M352 323c0 2.8-2.3 5-5 5h-6c-2.8 0-5-2.3-5-5v-6c0-2.8 2.3-5 5-5h6c2.8 0 5 2.3 5 5v6z"/><path class="st3" d="M400 323c0 2.8-2.3 5-5 5h-22c-2.8 0-5-2.3-5-5v-6c0-2.8 2.3-5 5-5h22c2.8 0 5 2.3 5 5v6z"/><path class="st4" d="M448 323c0 2.8-2.3 5-5 5h-22c-2.8 0-5-2.3-5-5v-6c0-2.8 2.3-5 5-5h22c2.8 0 5 2.3 5 5v6z"/><path class="st3" d="M512 323c0 2.8-2.3 5-5 5h-38c-2.8 0-5-2.3-5-5v-6c0-2.8 2.3-5 5-5h38c2.8 0 5 2.3 5 5v6z"/><path class="st2" d="M64 355c0 2.8-2.3 5-5 5H5c-2.8 0-5-2.3-5-5v-6c0-2.8 2.3-5 5-5h54c2.8 0 5 2.3 5 5v6z"/><path class="st0" d="M160 355c0 2.8-2.3 5-5 5H85c-2.8 0-5-2.3-5-5v-6c0-2.8 2.3-5 5-5h70c2.8 0 5 2.3 5 5v6zm64 0c0 2.8-2.3 5-5 5h-38c-2.8 0-5-2.3-5-5v-6c0-2.8 2.3-5 5-5h38c2.8 0 5 2.3 5 5v6zm32 0c0 2.8-2.3 5-5 5h-6c-2.8 0-5-2.3-5-5v-6c0-2.8 2.3-5 5-5h6c2.8 0 5 2.3 5 5v6zm32 0c0 2.8-2.3 5-5 5h-6c-2.8 0-5-2.3-5-5v-6c0-2.8 2.3-5 5-5h6c2.8 0 5 2.3 5 5v6z"/><path class="st3" d="M320 355c0 2.8-2.3 5-5 5h-6c-2.8 0-5-2.3-5-5v-6c0-2.8 2.3-5 5-5h6c2.8 0 5 2.3 5 5v6z"/><path class="st0" d="M352 355c0 2.8-2.3 5-5 5h-6c-2.8 0-5-2.3-5-5v-6c0-2.8 2.3-5 5-5h6c2.8 0 5 2.3 5 5v6z"/><path class="st3" d="M400 355c0 2.8-2.3 5-5 5h-22c-2.8 0-5-2.3-5-5v-6c0-2.8 2.3-5 5-5h22c2.8 0 5 2.3 5 5v6z"/><path class="st2" d="M448 355c0 2.8-2.3 5-5 5h-22c-2.8 0-5-2.3-5-5v-6c0-2.8 2.3-5 5-5h22c2.8 0 5 2.3 5 5v6z"/><path class="st4" d="M512 355c0 2.8-2.3 5-5 5h-38c-2.8 0-5-2.3-5-5v-6c0-2.8 2.3-5 5-5h38c2.8 0 5 2.3 5 5v6z"/><path class="st0" d="M48 387c0 2.8-2.3 5-5 5H5c-2.8 0-5-2.3-5-5v-6c0-2.8 2.3-5 5-5h38c2.8 0 5 2.3 5 5v6z"/><path class="st4" d="M160 387c0 2.8-2.3 5-5 5H69c-2.8 0-5-2.3-5-5v-6c0-2.8 2.3-5 5-5h86c2.8 0 5 2.3 5 5v6zm64 0c0 2.8-2.3 5-5 5h-38c-2.8 0-5-2.3-5-5v-6c0-2.8 2.3-5 5-5h38c2.8 0 5 2.3 5 5v6z"/><path class="st0" d="M256 387c0 2.8-2.3 5-5 5h-6c-2.8 0-5-2.3-5-5v-6c0-2.8 2.3-5 5-5h6c2.8 0 5 2.3 5 5v6z"/><path class="st1" d="M288 387c0 2.8-2.3 5-5 5h-6c-2.8 0-5-2.3-5-5v-6c0-2.8 2.3-5 5-5h6c2.8 0 5 2.3 5 5v6z"/><path class="st0" d="M320 387c0 2.8-2.3 5-5 5h-6c-2.8 0-5-2.3-5-5v-6c0-2.8 2.3-5 5-5h6c2.8 0 5 2.3 5 5v6z"/><path class="st2" d="M352 387c0 2.8-2.3 5-5 5h-6c-2.8 0-5-2.3-5-5v-6c0-2.8 2.3-5 5-5h6c2.8 0 5 2.3 5 5v6z"/><path class="st0" d="M400 387c0 2.8-2.3 5-5 5h-22c-2.8 0-5-2.3-5-5v-6c0-2.8 2.3-5 5-5h22c2.8 0 5 2.3 5 5v6z"/><path class="st1" d="M448 387c0 2.8-2.3 5-5 5h-22c-2.8 0-5-2.3-5-5v-6c0-2.8 2.3-5 5-5h22c2.8 0 5 2.3 5 5v6z"/><path class="st3" d="M512 387c0 2.8-2.3 5-5 5h-38c-2.8 0-5-2.3-5-5v-6c0-2.8 2.3-5 5-5h38c2.8 0 5 2.3 5 5v6z"/><path class="st0" d="M112 259c0 2.8-2.3 5-5 5H37c-2.8 0-5-2.3-5-5v-6c0-2.8 2.3-5 5-5h70c2.8 0 5 2.3 5 5v6z"/></svg>