<svg version="1.1" xmlns="http://www.w3.org/2000/svg" x="0" y="0" viewBox="0 0 512 512" xml:space="preserve"><path d="M512 345V126.5c0-13.3-10.7-24-24-24H24c-13.3 0-24 10.7-24 24v259c0 13.3 10.7 24 24 24h423.5L512 345z" fill="#ffa000"/><path d="M274 307H88c-8.8 0-16-7.2-16-16V159c0-8.8 7.2-16 16-16h186c8.8 0 16 7.2 16 16v132c0 8.8-7.2 16-16 16z" fill="#eec646"/><path d="M215.1 201.7H290v-4.4h-73.2c-.2-1.2-.4-2.5-.7-3.7-5.7-29.7-19.3-50.6-35.1-50.6s-29.4 20.9-35.1 50.6c-.2 1.2-.5 2.4-.7 3.7H72v4.4h74.8c.8 1 1.6 2.1 2.3 3.1 3.8 5.8 6.1 12.7 6.1 20.1s-2.2 14.4-6.1 20.1c-.7 1.1-1.5 2.1-2.3 3.1H72v4.4h73.2c.2 1.2.4 2.5.7 3.7 5.7 29.7 19.3 50.6 35.1 50.6s29.4-20.9 35.1-50.6c.2-1.2.5-2.4.7-3.7H290v-4.4h-74.8c-.8-1-1.6-2.1-2.3-3.1-3.8-5.8-6.1-12.7-6.1-20.1s2.2-14.4 6.1-20.1c.6-1 1.4-2.1 2.2-3.1zM201.7 225c0 8.6 2.6 16.6 7.2 23.3.9 1.3 1.9 2.6 2.9 3.8 0 .2-.1.4-.1.6-1.8 10.5-4.6 20.1-8.4 28.2C197.1 294.3 189 302 181 302s-16.1-7.7-22.3-21.1c-3.8-8.1-6.6-17.7-8.4-28.2 0-.2-.1-.4-.1-.6 1-1.2 2-2.5 2.9-3.8 4.5-6.6 7.2-14.7 7.2-23.3s-2.6-16.6-7.2-23.3c-.9-1.3-1.9-2.6-2.9-3.8 0-.2.1-.4.1-.6 1.8-10.5 4.6-20.1 8.4-28.2C164.9 155.7 173 148 181 148s16.1 7.7 22.3 21.1c3.8 8.1 6.6 17.7 8.4 28.2 0 .2.1.4.1.6-1 1.2-2 2.5-2.9 3.8-4.5 6.7-7.2 14.7-7.2 23.3z" fill="#36434f"/></svg>