<svg version="1.1" xmlns="http://www.w3.org/2000/svg" x="0" y="0" viewBox="0 0 512 512" xml:space="preserve"><path d="M313 0H102C84.3 0 70 14.3 70 32v448c0 17.7 14.3 32 32 32h308c17.7 0 32-14.3 32-32V129L313 0z" fill="#f4f4f4"/><path d="M313 0v97c0 17.7 14.3 32 32 32h97L313 0z" opacity=".15" fill="#444"/><path d="M106 233h300v14H106zm0 32h300v14H106zm0 32h300v14H106zm0 32h300v14H106zm0 32h300v14H106zm0 32h300v14H106zm0 32h300v14H106z" fill="#ddd"/><path d="M327 211H185c-4.4 0-8-3.6-8-8v-44c0-4.4 3.6-8 8-8h142c4.4 0 8 3.6 8 8v44c0 4.4-3.6 8-8 8z" fill="#df7148"/></svg>