<svg version="1.1" xmlns="http://www.w3.org/2000/svg" x="0" y="0" viewBox="0 0 512 512" xml:space="preserve"><path fill="#ddd" d="M75 0h362v512H75z"/><path d="M202 25h204v14H202zm0 32h204v14H202zm0 32h204v14H202zm-96 32h300v14H106zm0 32h300v14H106zm0 32h300v14H106zm0 32h300v14H106zm0 32h300v14H106zm0 32h300v14H106zm0 32h300v14H106zm0 32h300v14H106zm0 32h300v14H106zm0 32h300v14H106zm0 32h300v14H106zm0 32h300v14H106z" fill="#999"/><path fill="#df7148" d="M106 25h78v78h-78z"/><path d="M162.8 85.3h-10.2V67.5h-15.1v17.8h-10.3V42.7h10.3v16.9h15.1V42.7h10.2v42.6z" fill="#fff"/><path opacity=".15" fill="#444" d="M75 0h181v512H75z"/></svg>