<svg version="1.1" xmlns="http://www.w3.org/2000/svg" x="0" y="0" viewBox="0 0 512 512" xml:space="preserve"><style type="text/css">.st0{fill:#ddd}.st1{fill:#36434f}.st2{fill:#122a3a}</style><path class="st0" d="M370 42C353 14 279 0 256 0s-97 14-114 42-22 220-22 282 26 122 46 142c16 17 62 46 90 46s74-29 90-46c20-20 46-80 46-142s-5-254-22-282z"/><path class="st1" d="M157.4 27.4c-6.7 4.3-12.1 9.2-15.4 14.6-17 28-22 220-22 282s26 122 46 142c2 2.1 4.5 4.5 7.4 6.9 8.4-31.7 7.4-59.7 1.6-102.9-7-52-30-114-29-201 .7-61.9 7.5-115.7 11.4-141.6zm197.2 0c6.7 4.3 12.1 9.2 15.4 14.6 17 28 22 220 22 282s-26 122-46 142c-2 2.1-4.5 4.5-7.4 6.9-8.4-31.7-7.4-59.7-1.6-102.9 7-52 30-114 29-201-.7-61.9-7.5-115.7-11.4-141.6z"/><path class="st2" d="M254 234h4V0h-4v234z"/><path class="st2" d="M256 16c-10.6 0-20.3 10.8-27.1 30.4-6.4 18.3-9.9 42.5-9.9 68.1s3.5 49.9 9.9 68.1c6.8 19.6 16.5 30.4 27.1 30.4s20.3-10.8 27.1-30.4c6.4-18.3 9.9-42.5 9.9-68.1s-3.5-49.9-9.9-68.1C276.3 26.8 266.6 16 256 16z"/><ellipse class="st1" cx="256" cy="114.5" rx="33" ry="94.5"/><path class="st2" d="M273.3 59.2c-5.2-2-11-3.2-17.3-3.2s-12.1 1.1-17.3 3.2c-2.3.9-3.7 3.1-3.7 5.6v72.5c0 2.4 1.5 4.7 3.7 5.6 5.2 2 11 3.2 17.3 3.2s12.1-1.1 17.3-3.2c2.3-.9 3.7-3.1 3.7-5.6V64.7c0-2.4-1.5-4.6-3.7-5.5z"/><path class="st0" d="M259.5 140.5h-7c-6.6 0-12-5.4-12-12v-55c0-6.6 5.4-12 12-12h7c6.6 0 12 5.4 12 12v55c0 6.6-5.4 12-12 12z"/><path d="M142 42c-17 28-22 220-22 282s26 122 46 142c16 17 62 46 90 46V0c-23 0-97 14-114 42z" opacity=".15" fill="#444"/></svg>