<svg version="1.1" xmlns="http://www.w3.org/2000/svg" x="0" y="0" viewBox="0 0 512 512" xml:space="preserve"><style type="text/css">.st2{fill:#999}.st3{opacity:.15;fill:#444}.st4{opacity:.3;fill:#f4f4f4}</style><path fill="#ddd" d="M211 5h90v86h-90z"/><path d="M214 0h84c1.7 0 3 1.3 3 3v2h-90V3c0-1.7 1.3-3 3-3z" fill="#36434f"/><path class="st2" d="M257 43c0-.6.4-1 1-1h3c1.7 0 3-1.3 3-3V23c0-1.7-1.3-3-3-3h-3c-.6 0-1-.4-1-1V5h-2v14c0 1.7 1.3 3 3 3h3c.6 0 1 .4 1 1v16c0 .6-.4 1-1 1h-3c-1.7 0-3 1.3-3 3v14c0 1.7 1.3 3 3 3h3c.6 0 1 .4 1 1v16c0 .6-.4 1-1 1h-3c-1.7 0-3 1.3-3 3v10h2V81c0-.6.4-1 1-1h3c1.7 0 3-1.3 3-3V61c0-1.7-1.3-3-3-3h-3c-.6 0-1-.4-1-1V43z"/><path class="st3" d="M211 5h9v86h-9z"/><path class="st4" d="M215 5h3v86h-3z"/><path class="st3" d="M301 91h-9V5h9z"/><path class="st4" d="M297 91h-3V5h3z"/><path class="st2" d="M306 102H206v-9c0-1.7 1.3-3 3-3h94c1.7 0 3 1.3 3 3v9z"/><path d="M309 101H203c-6.6 0-12 5.4-12 12v367c0 17.7 14.3 32 32 32h66c17.7 0 32-14.3 32-32V113c0-6.6-5.4-12-12-12zm-4.5 380c0 8.8-7.2 16-16 16h-65c-8.8 0-16-7.2-16-16v-12c0-8.8 7.2-16 16-16h65c8.8 0 16 7.2 16 16v12z" fill="#cc584c"/><path d="M288.5 453c8.8 0 16 7.2 16 16v12c0 8.8-7.2 16-16 16h-65c-8.8 0-16-7.2-16-16v-12c0-8.8 7.2-16 16-16h65m0-10h-65c-14.3 0-26 11.7-26 26v12c0 14.3 11.7 26 26 26h65c14.3 0 26-11.7 26-26v-12c0-14.3-11.7-26-26-26zM211 135h10v274h-10V135zm20 0h10v274h-10V135zm20 0h10v274h-10V135zm20 0h10v274h-10V135zm20 0h10v274h-10V135z" fill="#ad403b"/></svg>