<svg version="1.1" xmlns="http://www.w3.org/2000/svg" x="0" y="0" viewBox="0 0 512 512" xml:space="preserve"><path fill="#ddd" d="M195 0h122v142H195z"/><path d="M238 54v13c0 1.7-1.3 3-3 3h-19c-1.7 0-3-1.3-3-3V54c0-1.7 1.3-3 3-3h19c1.7 0 3 1.3 3 3zm58-3h-19c-1.7 0-3 1.3-3 3v13c0 1.7 1.3 3 3 3h19c1.7 0 3-1.3 3-3V54c0-1.7-1.3-3-3-3z" fill="#36434f"/><path d="M257 43c0-1.1.9-2 2-2h6c2.2 0 4-1.8 4-4V23c0-2.2-1.8-4-4-4h-6c-1.1 0-2-.9-2-2V0h-2v17c0 2.2 1.8 4 4 4h6c1.1 0 2 .9 2 2v14c0 1.1-.9 2-2 2h-6c-2.2 0-4 1.8-4 4v57c0 2.2 1.8 4 4 4h6c1.1 0 2 .9 2 2v14c0 1.1-.9 2-2 2h-6c-2.2 0-4 1.8-4 4v16h2v-16c0-1.1.9-2 2-2h6c2.2 0 4-1.8 4-4v-14c0-2.2-1.8-4-4-4h-6c-1.1 0-2-.9-2-2V43z" fill="#999"/><path d="M333 512H179c-4.4 0-8-3.6-8-8V149c0-4.4 3.6-8 8-8h154c4.4 0 8 3.6 8 8v355c0 4.4-3.6 8-8 8z" fill="#cc584c"/><path d="M255 0h-60v141h-16c-4.4 0-8 3.6-8 8v355c0 4.4 3.6 8 8 8h77V0h-1z" opacity=".15" fill="#444"/></svg>