<svg version="1.1" xmlns="http://www.w3.org/2000/svg" x="0" y="0" viewBox="0 0 512 512" xml:space="preserve"><path d="M209 512c-11 0-20-9-20-20V20c0-11 9-20 20-20h184c11 0 20 9 20 20v258c0 11 6.4 26.4 14.2 34.2l15.7 15.7c7.7 7.7 14.1 23.1 14.1 34.1v130c0 11-9 20-20 20H209z" fill="#ffa000"/><path fill="#e49003" d="M190 0h157v512H190z"/><path d="M305 0c11 0 20 9 20 20v472c0 11-9 20-20 20H75c-11 0-20-9-20-20V20C55 9 64 0 75 0h230z" fill="#eec646"/><path fill="#f4f4f4" d="M325 83h44v346h-44z"/><path fill="#e0e0e0" d="M325 83h22v346h-22z"/></svg>