<svg version="1.1" xmlns="http://www.w3.org/2000/svg" x="0" y="0" viewBox="0 0 512 512" xml:space="preserve"><style type="text/css">.st1{fill:#2e86b7}</style><path d="M10 338c-4.4 0-8-3.6-8-8V182c0-4.4 3.6-8 8-8h492c4.4 0 8 3.6 8 8v148c0 4.4-3.6 8-8 8H10z" fill="#f4f4f4"/><path class="st1" d="M502 176c3.3 0 6 2.7 6 6v148c0 3.3-2.7 6-6 6H10c-3.3 0-6-2.7-6-6V182c0-3.3 2.7-6 6-6h492m0-4H10c-5.5 0-10 4.5-10 10v148c0 5.5 4.5 10 10 10h492c5.5 0 10-4.5 10-10V182c0-5.5-4.5-10-10-10z"/><path d="M328.5 220c0 1.1-.9 2-2 2h-17c-1.1 0-2-.9-2-2v-17c0-1.1.9-2 2-2h17c1.1 0 2 .9 2 2v17zm-26 0c0 1.1-.9 2-2 2h-17c-1.1 0-2-.9-2-2v-17c0-1.1.9-2 2-2h17c1.1 0 2 .9 2 2v17zm-26 0c0 1.1-.9 2-2 2h-17c-1.1 0-2-.9-2-2v-17c0-1.1.9-2 2-2h17c1.1 0 2 .9 2 2v17zm-26 0c0 1.1-.9 2-2 2h-17c-1.1 0-2-.9-2-2v-17c0-1.1.9-2 2-2h17c1.1 0 2 .9 2 2v17zm-26 0c0 1.1-.9 2-2 2h-17c-1.1 0-2-.9-2-2v-17c0-1.1.9-2 2-2h17c1.1 0 2 .9 2 2v17zm-26 0c0 1.1-.9 2-2 2h-17c-1.1 0-2-.9-2-2v-17c0-1.1.9-2 2-2h17c1.1 0 2 .9 2 2v17zm-26 0c0 1.1-.9 2-2 2h-17c-1.1 0-2-.9-2-2v-17c0-1.1.9-2 2-2h17c1.1 0 2 .9 2 2v17zm-26 0c0 1.1-.9 2-2 2h-17c-1.1 0-2-.9-2-2v-17c0-1.1.9-2 2-2h17c1.1 0 2 .9 2 2v17zm-26 0c0 1.1-.9 2-2 2h-17c-1.1 0-2-.9-2-2v-17c0-1.1.9-2 2-2h17c1.1 0 2 .9 2 2v17zm-26 0c0 1.1-.9 2-2 2h-17c-1.1 0-2-.9-2-2v-17c0-1.1.9-2 2-2h17c1.1 0 2 .9 2 2v17zm-26 0c0 1.1-.9 2-2 2h-17c-1.1 0-2-.9-2-2v-17c0-1.1.9-2 2-2h17c1.1 0 2 .9 2 2v17zm-26 0c0 1.1-.9 2-2 2h-30c-1.1 0-2-.9-2-2v-17c0-1.1.9-2 2-2h30c1.1 0 2 .9 2 2v17zm312 0c0 1.1-.9 2-2 2h-17c-1.1 0-2-.9-2-2v-17c0-1.1.9-2 2-2h17c1.1 0 2 .9 2 2v17zm47 0c0 1.1-.9 2-2 2h-38c-1.1 0-2-.9-2-2v-17c0-1.1.9-2 2-2h38c1.1 0 2 .9 2 2v17zm-69 27c0 1.1-.9 2-2 2h-17c-1.1 0-2-.9-2-2v-17c0-1.1.9-2 2-2h17c1.1 0 2 .9 2 2v17zm-26 0c0 1.1-.9 2-2 2h-17c-1.1 0-2-.9-2-2v-17c0-1.1.9-2 2-2h17c1.1 0 2 .9 2 2v17zm-52 0c0 1.1-.9 2-2 2h-17c-1.1 0-2-.9-2-2v-17c0-1.1.9-2 2-2h17c1.1 0 2 .9 2 2v17zm-26 0c0 1.1-.9 2-2 2h-17c-1.1 0-2-.9-2-2v-17c0-1.1.9-2 2-2h17c1.1 0 2 .9 2 2v17zm-26 0c0 1.1-.9 2-2 2h-17c-1.1 0-2-.9-2-2v-17c0-1.1.9-2 2-2h17c1.1 0 2 .9 2 2v17zm-26 0c0 1.1-.9 2-2 2h-17c-1.1 0-2-.9-2-2v-17c0-1.1.9-2 2-2h17c1.1 0 2 .9 2 2v17zm-26 0c0 1.1-.9 2-2 2h-17c-1.1 0-2-.9-2-2v-17c0-1.1.9-2 2-2h17c1.1 0 2 .9 2 2v17zm-26 0c0 1.1-.9 2-2 2h-17c-1.1 0-2-.9-2-2v-17c0-1.1.9-2 2-2h17c1.1 0 2 .9 2 2v17zm-52 0c0 1.1-.9 2-2 2h-17c-1.1 0-2-.9-2-2v-17c0-1.1.9-2 2-2h17c1.1 0 2 .9 2 2v17zm-26 0c0 1.1-.9 2-2 2h-34c-1.1 0-2-.9-2-2v-17c0-1.1.9-2 2-2h34c1.1 0 2 .9 2 2v17zm312 0c0 1.1-.9 2-2 2h-17c-1.1 0-2-.9-2-2v-17c0-1.1.9-2 2-2h17c1.1 0 2 .9 2 2v17zm43 0c0 1.1-.9 2-2 2h-34c-1.1 0-2-.9-2-2v-17c0-1.1.9-2 2-2h34c1.1 0 2 .9 2 2v17zm-121 0c0 1.1-.9 2-2 2h-17c-1.1 0-2-.9-2-2v-17c0-1.1.9-2 2-2h17c1.1 0 2 .9 2 2v17zm58 27c0 1.1-.9 2-2 2h-17c-1.1 0-2-.9-2-2v-17c0-1.1.9-2 2-2h17c1.1 0 2 .9 2 2v17zm-26 0c0 1.1-.9 2-2 2h-17c-1.1 0-2-.9-2-2v-17c0-1.1.9-2 2-2h17c1.1 0 2 .9 2 2v17zm-52 0c0 1.1-.9 2-2 2h-17c-1.1 0-2-.9-2-2v-17c0-1.1.9-2 2-2h17c1.1 0 2 .9 2 2v17zm-26 0c0 1.1-.9 2-2 2h-17c-1.1 0-2-.9-2-2v-17c0-1.1.9-2 2-2h17c1.1 0 2 .9 2 2v17zm-26 0c0 1.1-.9 2-2 2h-17c-1.1 0-2-.9-2-2v-17c0-1.1.9-2 2-2h17c1.1 0 2 .9 2 2v17zm-26 0c0 1.1-.9 2-2 2h-17c-1.1 0-2-.9-2-2v-17c0-1.1.9-2 2-2h17c1.1 0 2 .9 2 2v17zm-26 0c0 1.1-.9 2-2 2h-17c-1.1 0-2-.9-2-2v-17c0-1.1.9-2 2-2h17c1.1 0 2 .9 2 2v17zm-104 0c0 1.1-.9 2-2 2h-40c-1.1 0-2-.9-2-2v-17c0-1.1.9-2 2-2h40c1.1 0 2 .9 2 2v17zm234 0c0 1.1-.9 2-2 2h-17c-1.1 0-2-.9-2-2v-17c0-1.1.9-2 2-2h17c1.1 0 2 .9 2 2v17zm39 27c0 1.1-.9 2-2 2h-17c-1.1 0-2-.9-2-2v-17c0-1.1.9-2 2-2h17c1.1 0 2 .9 2 2v17zm-52 0c0 1.1-.9 2-2 2h-17c-1.1 0-2-.9-2-2v-17c0-1.1.9-2 2-2h17c1.1 0 2 .9 2 2v17zm-26 0c0 1.1-.9 2-2 2h-17c-1.1 0-2-.9-2-2v-17c0-1.1.9-2 2-2h17c1.1 0 2 .9 2 2v17zm-26 0c0 1.1-.9 2-2 2h-17c-1.1 0-2-.9-2-2v-17c0-1.1.9-2 2-2h17c1.1 0 2 .9 2 2v17zm-26 0c0 1.1-.9 2-2 2h-17c-1.1 0-2-.9-2-2v-17c0-1.1.9-2 2-2h17c1.1 0 2 .9 2 2v17zm-26 0c0 1.1-.9 2-2 2h-17c-1.1 0-2-.9-2-2v-17c0-1.1.9-2 2-2h17c1.1 0 2 .9 2 2v17zm-26 0c0 1.1-.9 2-2 2h-17c-1.1 0-2-.9-2-2v-17c0-1.1.9-2 2-2h17c1.1 0 2 .9 2 2v17zm-26 0c0 1.1-.9 2-2 2h-17c-1.1 0-2-.9-2-2v-17c0-1.1.9-2 2-2h17c1.1 0 2 .9 2 2v17zm-26 0c0 1.1-.9 2-2 2h-17c-1.1 0-2-.9-2-2v-17c0-1.1.9-2 2-2h17c1.1 0 2 .9 2 2v17zm-26 0c0 1.1-.9 2-2 2h-53c-1.1 0-2-.9-2-2v-17c0-1.1.9-2 2-2h53c1.1 0 2 .9 2 2v17zm310 0c0 1.1-.9 2-2 2h-41c-1.1 0-2-.9-2-2v-17c0-1.1.9-2 2-2h41c1.1 0 2 .9 2 2v17zm-76 0c0 1.1-.9 2-2 2h-17c-1.1 0-2-.9-2-2v-17c0-1.1.9-2 2-2h17c1.1 0 2 .9 2 2v17zm102-17c0-1.1-.9-2-2-2h-17c-1.1 0-2 .9-2 2v17c0 1.1.9 2 2 2h17c1.1 0 2-.9 2-2v-17zm-78 44c0 1.1-.9 2-2 2h-17c-1.1 0-2-.9-2-2v-17c0-1.1.9-2 2-2h17c1.1 0 2 .9 2 2v17zm-52 0c0 1.1-.9 2-2 2h-17c-1.1 0-2-.9-2-2v-17c0-1.1.9-2 2-2h17c1.1 0 2 .9 2 2v17zm-163 0c0 1.1-.9 2-2 2h-24c-1.1 0-2-.9-2-2v-17c0-1.1.9-2 2-2h24c1.1 0 2 .9 2 2v17zm-60 0c0 1.1-.9 2-2 2h-36c-1.1 0-2-.9-2-2v-17c0-1.1.9-2 2-2h36c1.1 0 2 .9 2 2v17zm249 0c0 1.1-.9 2-2 2h-17c-1.1 0-2-.9-2-2v-17c0-1.1.9-2 2-2h17c1.1 0 2 .9 2 2v17zm104-17c0-1.1-.9-2-2-2h-17c-1.1 0-2 .9-2 2v17c0 1.1.9 2 2 2h17c1.1 0 2-.9 2-2v-17zm-26 0c0-1.1-.9-2-2-2h-17c-1.1 0-2 .9-2 2v17c0 1.1.9 2 2 2h17c1.1 0 2-.9 2-2v-17zm-26 0c0-1.1-.9-2-2-2h-17c-1.1 0-2 .9-2 2v17c0 1.1.9 2 2 2h17c1.1 0 2-.9 2-2v-17zm78 0c0-1.1-.9-2-2-2h-17c-1.1 0-2 .9-2 2v17c0 1.1.9 2 2 2h17c1.1 0 2-.9 2-2v-17zm-297-117c0 1.1-.9 2-2 2h-15.9c-1.1 0-2-.9-2-2v-10c0-1.1.9-2 2-2h15.9c1.1 0 2 .9 2 2v10zm-24.7 0c0 1.1-.9 2-2 2h-16c-1.1 0-2-.9-2-2v-10c0-1.1.9-2 2-2h15.9c1.1 0 2 .9 2 2l.1 10zm-24.7 0c0 1.1-.9 2-2 2h-16c-1.1 0-2-.9-2-2v-10c0-1.1.9-2 2-2H79c1.1 0 2 .9 2 2l.1 10zm-24.7 0c0 1.1-.9 2-2 2H38.5c-1.1 0-2-.9-2-2v-10c0-1.1.9-2 2-2h15.9c1.1 0 2 .9 2 2v10zm-28 0c0 1.1-.9 2-2 2H10.5c-1.1 0-2-.9-2-2v-10c0-1.1.9-2 2-2h15.9c1.1 0 2 .9 2 2v10zm201.1 0c0 1.1-.9 2-2 2h-15.9c-1.1 0-2-.9-2-2v-10c0-1.1.9-2 2-2h15.9c1.1 0 2 .9 2 2v10zm-24.7 0c0 1.1-.9 2-2 2h-15.9c-1.1 0-2-.9-2-2v-10c0-1.1.9-2 2-2h15.9c1.1 0 2 .9 2 2v10zm-24.7 0c0 1.1-.9 2-2 2h-15.9c-1.1 0-2-.9-2-2v-10c0-1.1.9-2 2-2h15.9c1.1 0 2 .9 2 2v10zm-24.7 0c0 1.1-.9 2-2 2h-15.9c-1.1 0-2-.9-2-2v-10c0-1.1.9-2 2-2h15.9c1.1 0 2 .9 2 2v10zm173.1 0c0 1.1-.9 2-2 2h-15.9c-1.1 0-2-.9-2-2v-10c0-1.1.9-2 2-2h15.9c1.1 0 2 .9 2 2v10zm-24.7 0c0 1.1-.9 2-2 2h-15.9c-1.1 0-2-.9-2-2v-10c0-1.1.9-2 2-2h15.9c1.1 0 2 .9 2 2v10zm-24.7 0c0 1.1-.9 2-2 2h-15.9c-1.1 0-2-.9-2-2v-10c0-1.1.9-2 2-2h15.9c1.1 0 2 .9 2 2v10zm-24.7 0c0 1.1-.9 2-2 2h-15.9c-1.1 0-2-.9-2-2v-10c0-1.1.9-2 2-2h15.9c1.1 0 2 .9 2 2v10zm147.1 0c0 1.1-.9 2-2 2h-15.9c-1.1 0-2-.9-2-2v-10c0-1.1.9-2 2-2h15.9c1.1 0 2 .9 2 2v10zm-24.7 0c0 1.1-.9 2-2 2h-15.9c-1.1 0-2-.9-2-2v-10c0-1.1.9-2 2-2h15.9c1.1 0 2 .9 2 2v10zm-24.7 0c0 1.1-.9 2-2 2h-15.9c-1.1 0-2-.9-2-2v-10c0-1.1.9-2 2-2h15.9c1.1 0 2 .9 2 2v10zm151.4 0c0 1.1-.9 2-2 2h-15.9c-1.1 0-2-.9-2-2v-10c0-1.1.9-2 2-2h15.9c1.1 0 2 .9 2 2v10zm-24.7 0c0 1.1-.9 2-2 2h-15.9c-1.1 0-2-.9-2-2v-10c0-1.1.9-2 2-2h15.9c1.1 0 2 .9 2 2v10zm-24.7 0c0 1.1-.9 2-2 2h-15.9c-1.1 0-2-.9-2-2v-10c0-1.1.9-2 2-2h15.9c1.1 0 2 .9 2 2v10zm-24.7 0c0 1.1-.9 2-2 2h-15.9c-1.1 0-2-.9-2-2v-10c0-1.1.9-2 2-2h15.9c1.1 0 2 .9 2 2v10zm49.4 26c0 1.1-.9 2-2 2h-15.9c-1.1 0-2-.9-2-2v-17c0-1.1.9-2 2-2h15.9c1.1 0 2 .9 2 2v17zm-24.7 0c0 1.1-.9 2-2 2h-15.9c-1.1 0-2-.9-2-2v-17c0-1.1.9-2 2-2h15.9c1.1 0 2 .9 2 2v17zm-24.7 0c0 1.1-.9 2-2 2h-15.9c-1.1 0-2-.9-2-2v-17c0-1.1.9-2 2-2h15.9c1.1 0 2 .9 2 2v17zm74.1 0c0 1.1-.9 2-2 2h-15.9c-1.1 0-2-.9-2-2v-17c0-1.1.9-2 2-2h15.9c1.1 0 2 .9 2 2v17zm-24.7 27c0 1.1-.9 2-2 2h-15.9c-1.1 0-2-.9-2-2v-17c0-1.1.9-2 2-2h15.9c1.1 0 2 .9 2 2v17zm-24.7 0c0 1.1-.9 2-2 2h-15.9c-1.1 0-2-.9-2-2v-17c0-1.1.9-2 2-2h15.9c1.1 0 2 .9 2 2v17zm-24.7 0c0 1.1-.9 2-2 2h-15.9c-1.1 0-2-.9-2-2v-17c0-1.1.9-2 2-2h15.9c1.1 0 2 .9 2 2v17zm74.1 27c0 1.1-.9 2-2 2h-15.9c-1.1 0-2-.9-2-2v-44c0-1.1.9-2 2-2h15.9c1.1 0 2 .9 2 2v44zm-24.7 0c0 1.1-.9 2-2 2h-15.9c-1.1 0-2-.9-2-2v-17c0-1.1.9-2 2-2h15.9c1.1 0 2 .9 2 2v17zm-24.7 0c0 1.1-.9 2-2 2h-15.9c-1.1 0-2-.9-2-2v-17c0-1.1.9-2 2-2h15.9c1.1 0 2 .9 2 2v17zm-24.7 0c0 1.1-.9 2-2 2h-15.9c-1.1 0-2-.9-2-2v-17c0-1.1.9-2 2-2h15.9c1.1 0 2 .9 2 2v17zm49.4 27c0 1.1-.9 2-2 2h-15.9c-1.1 0-2-.9-2-2v-17c0-1.1.9-2 2-2h15.9c1.1 0 2 .9 2 2v17zm-24.7 0c0 1.1-.9 2-2 2h-15.9c-1.1 0-2-.9-2-2v-17c0-1.1.9-2 2-2h15.9c1.1 0 2 .9 2 2v17zm-24.7 0c0 1.1-.9 2-2 2h-15.9c-1.1 0-2-.9-2-2v-17c0-1.1.9-2 2-2h15.9c1.1 0 2 .9 2 2v17zm74.1 27c0 1.1-.9 2-2 2h-15.9c-1.1 0-2-.9-2-2v-44c0-1.1.9-2 2-2h15.9c1.1 0 2 .9 2 2v44zm-24.7 0c0 1.1-.9 2-2 2h-15.9c-1.1 0-2-.9-2-2v-17c0-1.1.9-2 2-2h15.9c1.1 0 2 .9 2 2v17zm-24.7 0c0 1.1-.9 2-2 2h-15.9c-1.1 0-2-.9-2-2v-17c0-1.1.9-2 2-2h15.9c1.1 0 2 .9 2 2v17z" fill="#36434f"/><path class="st1" d="M98.8 247c0 1.1-.9 2-2 2h-17c-1.1 0-2-.9-2-2v-17c0-1.1.9-2 2-2h17c1.1 0 2 .9 2 2v17zm32 27c0 1.1-.9 2-2 2h-17c-1.1 0-2-.9-2-2v-17c0-1.1.9-2 2-2h17c1.1 0 2 .9 2 2v17zm-26 0c0 1.1-.9 2-2 2h-17c-1.1 0-2-.9-2-2v-17c0-1.1.9-2 2-2h17c1.1 0 2 .9 2 2v17zm-26 0c0 1.1-.9 2-2 2h-17c-1.1 0-2-.9-2-2v-17c0-1.1.9-2 2-2h17c1.1 0 2 .9 2 2v17zm323 0c0 1.1-.9 2-2 2h-54c-1.1 0-2-.9-2-2v-17c0-1.1.9-2 2-2h54c1.1 0 2 .9 2 2v17zm-156 54c0 1.1-.9 2-2 2h-128c-1.1 0-2-.9-2-2v-17c0-1.1.9-2 2-2h128c1.1 0 2 .9 2 2v17zm-170 0c0 1.1-.9 2-2 2h-18c-1.1 0-2-.9-2-2v-17c0-1.1.9-2 2-2h18c1.1 0 2 .9 2 2v17z"/></svg>