<svg version="1.1" xmlns="http://www.w3.org/2000/svg" x="0" y="0" viewBox="0 0 512 512" xml:space="preserve"><style type="text/css">.st0{fill:#3a6582}.st2{fill:#579ec5}</style><path class="st0" d="M234 371.8h44v69h-44z"/><path class="st0" d="M407.4 439.1c-.8-.8-2.3-1.4-3.4-1.4H108c-1.1 0-2.6.6-3.4 1.4l-18.2 18.2c-.8.8-.5 1.4.6 1.4h338c1.1 0 1.4-.6.6-1.4l-18.2-18.2z"/><path d="M228 361.8c0-1.1.9-2 2-2h52c1.1 0 2 .9 2 2v9c0 1.1-.9 2-2 2h-52c-1.1 0-2-.9-2-2v-9z" fill="#2e5068"/><path class="st2" d="M265 376.8c0 1.1-.9 2-2 2h-14c-1.1 0-2-.9-2-2v-1c0-1.1.9-2 2-2h14c1.1 0 2 .9 2 2v1z"/><path class="st0" d="M5 53.3c-2.8 0-5 2.3-5 5v297.2c0 2.8 2.3 5 5 5h502c2.8 0 5-2.3 5-5V58.3c0-2.8-2.3-5-5-5H5z"/><path class="st2" d="M489.7 331.9c0 2.8-2.3 5-5 5H27.4c-2.8 0-5-2.3-5-5V79.3c0-2.8 2.3-5 5-5h457.3c2.8 0 5 2.3 5 5v252.6z"/><path fill="#4292be" d="M406.3 74.3l-318 262.5h175.6L451.5 74.3z"/><path d="M28.9 74.3c-3.5 0-6.6 2.9-6.6 6.6v249.4c0 3.5 2.9 6.6 6.6 6.6h59.4l318-262.5-377.4-.1z" fill="#2e86b7"/></svg>