<svg version="1.1" xmlns="http://www.w3.org/2000/svg" x="0" y="0" viewBox="0 0 512 512" xml:space="preserve"><style type="text/css">.st1{fill:#607786}.st2{fill:#36434f}.st3{fill:#f4f4f4}.st4{fill:#d7d9dc}</style><path d="M512 416c0 3.3-2.7 6-6 6H6c-3.3 0-6-2.7-6-6V96c0-3.3 2.7-6 6-6h500c3.3 0 6 2.7 6 6v320z" fill="#4fc3f7"/><path class="st1" d="M503.4 422l-72.7-116.6h-31.3l-50.8-3.8-75 120.4z"/><path class="st2" d="M368.3 422h135.1l-72.7-116.6h-31.4l2.9 17.9 3.6 20.5c.4 2.3-.8 4.5-2.9 5.4l-35.6 16c-1.9.9-3.1 2.8-2.9 4.9l3.9 51.9z"/><path class="st3" d="M348.6 301.7l51.3 20.7c1.5.6 3.2.5 4.5-.4l26.3-16.6-38-60.9c-2-3.1-6.5-3.1-8.5 0l-35.6 57.2z"/><path class="st4" d="M402.1 322.7c.8-.1 1.6-.3 2.3-.8l26.3-16.6-38-60.9c-.8-1.3-2.1-2.1-3.5-2.3l12.9 80.6z"/><path class="st1" d="M301.6 422l-87-139.5h-43.5l-70.6-5.2L10.4 422z"/><path class="st2" d="M126.2 422h175.3l-87-139.5h-43.4l4 24.9 5.2 30c.4 2.3-.8 4.5-2.9 5.4l-52.1 23.4c-1.9.9-3.1 2.8-2.9 4.9l3.8 50.9z"/><path class="st3" d="M100.5 277.3l72.2 29.1c1.5.6 3.2.5 4.5-.4l37.4-23.5-54.4-87.3c-2-3.1-6.5-3.1-8.5 0l-51.2 82.1z"/><path class="st4" d="M175 306.8c.8-.1 1.6-.3 2.3-.8l37.4-23.5-54.4-87.3c-.8-1.3-2.1-2.1-3.5-2.3L175 306.8z"/><ellipse cx="80.2" cy="168.6" rx="43.4" ry="43.3" fill="#ffbe27"/><path class="st3" d="M313.4 238.4c10.4 0 18.8-8.4 18.8-18.8 0-8.1-5.3-15.3-13-17.8-2.8-5.5-8.4-8.9-14.6-8.9-1.7 0-3.3.3-4.9.7-5.1-5.7-12.4-9-20.1-9-6.1 0-12.1 2.1-16.9 5.9-4.3 3.4-7.4 8.1-9 13.3-9.5 0-17.3 7.8-17.3 17.3s7.8 17.3 17.3 17.3h59.7zm151.5-54.3c10.4 0 18.8-8.4 18.8-18.8 0-8.1-5.3-15.3-13-17.8-2.8-5.5-8.4-8.9-14.6-8.9-1.7 0-3.3.3-4.9.7-5.1-5.7-12.4-9-20.1-9-6.1 0-12.1 2.1-16.9 5.9-4.3 3.4-7.4 8.1-9 13.3-9.5 0-17.3 7.8-17.3 17.3s7.8 17.3 17.3 17.3h59.7z"/></svg>