<svg version="1.1" xmlns="http://www.w3.org/2000/svg" x="0" y="0" viewBox="0 0 512 512" xml:space="preserve"><style type="text/css">.st1{fill:#ddd}.st2{fill:#cc584c}.st3{fill:#f4f4f4}</style><path d="M477.5 0h-21l-3 3h-44l-6 6h-31l-6-6h-286l-5 5h-10l-8-8h-35c-6.6 0-12 5.4-12 12v488c0 6.6 5.4 12 12 12h467c6.6 0 12-5.4 12-12V24l-24-24zM47 475H23v-24h24v24zm442 0h-24v-24h24v24z" fill="#36434f"/><path class="st1" d="M127 3v155c0 6.6 5.4 12 12 12h236c6.6 0 12-5.4 12-12V3H127zm223 159h-67V24h67v138zM33.5 33l-13 29h6v10h14V62h6l-13-29zM411 47h3v37h-3V47zm14 0v14h-5V47h-3v17h11V47h-3zm0 37V70h-5v14h-3V67h11v17h-3zm6-37h3v37h-3V47zm6 6.1v3c4.5.7 8 4.6 8 9.4s-3.5 8.6-8 9.4v3c6.2-.7 11-6 11-12.4s-4.8-11.7-11-12.4z"/><path class="st1" d="M437 47.1v3c7.8.8 14 7.4 14 15.4s-6.2 14.7-14 15.4v3c9.5-.8 17-8.7 17-18.4s-7.5-17.7-17-18.4z"/><path class="st2" d="M445.5 267.5h-379v-33c0-6.6 5.4-12 12-12h355c6.6 0 12 5.4 12 12v33z"/><path class="st3" d="M66.5 267.5h379v37h-379v-37z"/><path class="st2" d="M66.5 304.5h379v2h-379v-2z"/><path class="st3" d="M66.5 306.5h379v37h-379v-37z"/><path class="st2" d="M66.5 343.5h379v2h-379v-2z"/><path class="st3" d="M66.5 345.5h379v37h-379v-37z"/><path class="st2" d="M66.5 382.5h379v2h-379v-2z"/><path class="st3" d="M66.5 384.5h379v37h-379v-37z"/><path class="st2" d="M66.5 421.5h379v2h-379v-2z"/><path class="st3" d="M66.5 423.5h379v37h-379v-37z"/><path class="st2" d="M66.5 460.5h379v2h-379v-2z"/><path class="st3" d="M445.5 462.5h-379v25c0 6.6 5.4 12 12 12h355c6.6 0 12-5.4 12-12v-25z"/></svg>