<svg version="1.1" xmlns="http://www.w3.org/2000/svg" x="0" y="0" viewBox="0 0 512 512" xml:space="preserve"><style type="text/css">.st0{fill:#ddd}.st1{fill:#36434f}.st2{fill:#999}.st3{fill:#122a3a}</style><path class="st0" d="M198 0h116v117H198z"/><path class="st1" d="M235.9 66.5h-17.8c-1.7 0-3-1.3-3-3v-12c0-1.7 1.3-3 3-3h17.8c1.7 0 3 1.3 3 3v12.1c0 1.6-1.4 2.9-3 2.9zm58 0h-17.8c-1.7 0-3-1.3-3-3v-12c0-1.7 1.3-3 3-3h17.8c1.7 0 3 1.3 3 3v12.1c0 1.6-1.4 2.9-3 2.9z"/><path class="st2" d="M222 88h10v6h-10zm58 0h10v6h-10zm-23-45.2V41c0-1.1.9-2 2-2h5.4c2.2 0 4-1.8 4-4V22c0-2.2-1.8-4-4-4H259c-1.1 0-2-.9-2-2V0h-2v16c0 2.2 1.8 4 4 4h5.4c1.1 0 2 .9 2 2v13c0 1.1-.9 2-2 2H259c-2.2 0-4 1.8-4 4v34.9c0 2.2 1.8 4 4 4h5.4c1.1 0 2 .9 2 2v13c0 1.1-.9 2-2 2H259c-2.2 0-4 1.8-4 4V117h2v-16.1c0-1.1.9-2 2-2h5.4c2.2 0 4-1.8 4-4v-13c0-2.2-1.8-4-4-4H259c-1.1 0-2-.9-2-2V42.8z"/><path class="st1" d="M320 480H192c-6.6 0-12-5.4-12-12V128c0-6.6 5.4-12 12-12h128c6.6 0 12 5.4 12 12v340c0 6.6-5.4 12-12 12z"/><path class="st3" d="M191 130h10v336h-10zm20 0h10v336h-10zm20 0h10v336h-10zm20 0h10v336h-10zm20 0h10v336h-10zm20 0h10v336h-10zm20 0h10v336h-10z"/><path class="st0" d="M333.7 293.5L322 270l-25.1 26h-81.8L190 270l-11.7 23.5c-.8 1.7-1.3 3.5-1.3 5.4V490c0 6.6 5.4 12 12 12h51.5c2.7 5.9 8.6 10 15.5 10s12.8-4.1 15.5-10H323c6.6 0 12-5.4 12-12V298.8c0-1.8-.4-3.7-1.3-5.3zM256 506c-6.1 0-11-4.9-11-11v-.5c3.3-1.6 7-2.5 11-2.5s7.7.9 11 2.5v.5c0 6.1-4.9 11-11 11z"/><circle class="st0" cx="256" cy="236" r="82"/><circle class="st2" cx="256" cy="236" r="70"/><circle class="st3" cx="256" cy="236" r="64"/><circle class="st1" cx="256" cy="236" r="54"/><path class="st2" d="M241 402.5v75.1c3.3-.5 6.6-.9 10-1V332.9c-3.4-.2-6.7-.5-10-1v70.6zm-20 0V483c3.3-1.3 6.6-2.3 10-3.3V329.8c-3.4-.9-6.7-2-10-3.3v76zm40 0v74.1c3.4.2 6.7.5 10 1V331.9c-3.3.5-6.6.9-10 1v69.6zm20-72.8v149.9c3.4.9 6.7 2 10 3.3V326.4c-3.3 1.3-6.6 2.4-10 3.3z"/></svg>