<svg version="1.1" xmlns="http://www.w3.org/2000/svg" x="0" y="0" viewBox="0 0 512 512" xml:space="preserve"><style type="text/css">.st0{fill:#2e86b7}.st5{fill:#36434f}</style><path class="st0" d="M69 78H46v-2c0-1.1.9-2 2-2h19c1.1 0 2 .9 2 2v2zm65 0H89v-2c0-1.1.9-2 2-2h41c1.1 0 2 .9 2 2v2z"/><path d="M490 435.5H22c-12.2 0-22-9.8-22-22v-315c0-12.2 9.8-22 22-22h468c12.2 0 22 9.8 22 22v315c0 12.2-9.8 22-22 22z" fill="#3a6582"/><path fill="#88c5f7" d="M28 114h456v284H28z"/><path fill="#83c0ed" d="M46.1 398h203l212.5-284h-55.3z"/><path fill="#7bb8e5" d="M406.3 114H28v284h18.1z"/><circle class="st5" cx="196.5" cy="96.5" r="2.5"/><circle class="st5" cx="212.5" cy="96.5" r="3"/><path class="st0" d="M269 425h-26c-2.2 0-4-1.8-4-4v-4c0-2.2 1.8-4 4-4h26c2.2 0 4 1.8 4 4v4c0 2.2-1.8 4-4 4zm-69.7-9H190c-.4 0-.7.3-.7.7v5.3h1v-5h8.9v5h1v-5.3c0-.4-.3-.7-.7-.7h-.2z"/><path class="st0" d="M191.7 418h6.3v1h-6.3zm0 2.3h6.3v1h-6.3zm128.1-3.4h-3.4v-1.4l-4 1.5c-.3.1-.3.5 0 .6l4 1.5v-1.3h3.4c1 0 1.8.8 1.8 1.8s-.8 1.8-1.8 1.8h-6.4v1h6.4c1.6 0 2.8-1.3 2.8-2.8s-1.2-2.7-2.8-2.7z"/></svg>