<svg version="1.1" xmlns="http://www.w3.org/2000/svg" x="0" y="0" viewBox="0 0 512 512" xml:space="preserve"><path d="M512 330c0 5.5-4.5 10-10 10H10c-5.5 0-10-4.5-10-10V182c0-5.5 4.5-10 10-10h492c5.5 0 10 4.5 10 10v148z" fill="#00203d"/><path d="M326.5 222.5h-17c-1.4 0-2.5-1.1-2.5-2.5v-17c0-1.4 1.1-2.5 2.5-2.5h17c1.4 0 2.5 1.1 2.5 2.5v17c0 1.4-1.2 2.5-2.5 2.5zm-17-21c-.8 0-1.5.7-1.5 1.5v17c0 .8.7 1.5 1.5 1.5h17c.8 0 1.5-.7 1.5-1.5v-17c0-.8-.7-1.5-1.5-1.5h-17zm-9 21h-17c-1.4 0-2.5-1.1-2.5-2.5v-17c0-1.4 1.1-2.5 2.5-2.5h17c1.4 0 2.5 1.1 2.5 2.5v17c0 1.4-1.2 2.5-2.5 2.5zm-17-21c-.8 0-1.5.7-1.5 1.5v17c0 .8.7 1.5 1.5 1.5h17c.8 0 1.5-.7 1.5-1.5v-17c0-.8-.7-1.5-1.5-1.5h-17zm-9 21h-17c-1.4 0-2.5-1.1-2.5-2.5v-17c0-1.4 1.1-2.5 2.5-2.5h17c1.4 0 2.5 1.1 2.5 2.5v17c0 1.4-1.2 2.5-2.5 2.5zm-17-21c-.8 0-1.5.7-1.5 1.5v17c0 .8.7 1.5 1.5 1.5h17c.8 0 1.5-.7 1.5-1.5v-17c0-.8-.7-1.5-1.5-1.5h-17zm-9 21h-17c-1.4 0-2.5-1.1-2.5-2.5v-17c0-1.4 1.1-2.5 2.5-2.5h17c1.4 0 2.5 1.1 2.5 2.5v17c0 1.4-1.2 2.5-2.5 2.5zm-17-21c-.8 0-1.5.7-1.5 1.5v17c0 .8.7 1.5 1.5 1.5h17c.8 0 1.5-.7 1.5-1.5v-17c0-.8-.7-1.5-1.5-1.5h-17zm-9 21h-17c-1.4 0-2.5-1.1-2.5-2.5v-17c0-1.4 1.1-2.5 2.5-2.5h17c1.4 0 2.5 1.1 2.5 2.5v17c0 1.4-1.2 2.5-2.5 2.5zm-17-21c-.8 0-1.5.7-1.5 1.5v17c0 .8.7 1.5 1.5 1.5h17c.8 0 1.5-.7 1.5-1.5v-17c0-.8-.7-1.5-1.5-1.5h-17zm-9 21h-17c-1.4 0-2.5-1.1-2.5-2.5v-17c0-1.4 1.1-2.5 2.5-2.5h17c1.4 0 2.5 1.1 2.5 2.5v17c0 1.4-1.2 2.5-2.5 2.5zm-17-21c-.8 0-1.5.7-1.5 1.5v17c0 .8.7 1.5 1.5 1.5h17c.8 0 1.5-.7 1.5-1.5v-17c0-.8-.7-1.5-1.5-1.5h-17zm-9 21h-17c-1.4 0-2.5-1.1-2.5-2.5v-17c0-1.4 1.1-2.5 2.5-2.5h17c1.4 0 2.5 1.1 2.5 2.5v17c0 1.4-1.2 2.5-2.5 2.5zm-17-21c-.8 0-1.5.7-1.5 1.5v17c0 .8.7 1.5 1.5 1.5h17c.8 0 1.5-.7 1.5-1.5v-17c0-.8-.7-1.5-1.5-1.5h-17zm-9 21h-17c-1.4 0-2.5-1.1-2.5-2.5v-17c0-1.4 1.1-2.5 2.5-2.5h17c1.4 0 2.5 1.1 2.5 2.5v17c0 1.4-1.2 2.5-2.5 2.5zm-17-21c-.8 0-1.5.7-1.5 1.5v17c0 .8.7 1.5 1.5 1.5h17c.8 0 1.5-.7 1.5-1.5v-17c0-.8-.7-1.5-1.5-1.5h-17zm-9 21h-17c-1.4 0-2.5-1.1-2.5-2.5v-17c0-1.4 1.1-2.5 2.5-2.5h17c1.4 0 2.5 1.1 2.5 2.5v17c0 1.4-1.2 2.5-2.5 2.5zm-17-21c-.8 0-1.5.7-1.5 1.5v17c0 .8.7 1.5 1.5 1.5h17c.8 0 1.5-.7 1.5-1.5v-17c0-.8-.7-1.5-1.5-1.5h-17zm-9 21h-17c-1.4 0-2.5-1.1-2.5-2.5v-17c0-1.4 1.1-2.5 2.5-2.5h17c1.4 0 2.5 1.1 2.5 2.5v17c0 1.4-1.2 2.5-2.5 2.5zm-17-21c-.8 0-1.5.7-1.5 1.5v17c0 .8.7 1.5 1.5 1.5h17c.8 0 1.5-.7 1.5-1.5v-17c0-.8-.7-1.5-1.5-1.5h-17zm-9 21h-17c-1.4 0-2.5-1.1-2.5-2.5v-17c0-1.4 1.1-2.5 2.5-2.5h17c1.4 0 2.5 1.1 2.5 2.5v17c0 1.4-1.2 2.5-2.5 2.5zm-17-21c-.8 0-1.5.7-1.5 1.5v17c0 .8.7 1.5 1.5 1.5h17c.8 0 1.5-.7 1.5-1.5v-17c0-.8-.7-1.5-1.5-1.5h-17zm-9 21h-30c-1.4 0-2.5-1.1-2.5-2.5v-17c0-1.4 1.1-2.5 2.5-2.5h30c1.4 0 2.5 1.1 2.5 2.5v17c0 1.4-1.2 2.5-2.5 2.5zm-30-21c-.8 0-1.5.7-1.5 1.5v17c0 .8.7 1.5 1.5 1.5h30c.8 0 1.5-.7 1.5-1.5v-17c0-.8-.7-1.5-1.5-1.5h-30zm342 21h-17c-1.4 0-2.5-1.1-2.5-2.5v-17c0-1.4 1.1-2.5 2.5-2.5h17c1.4 0 2.5 1.1 2.5 2.5v17c0 1.4-1.2 2.5-2.5 2.5zm-17-21c-.8 0-1.5.7-1.5 1.5v17c0 .8.7 1.5 1.5 1.5h17c.8 0 1.5-.7 1.5-1.5v-17c0-.8-.7-1.5-1.5-1.5h-17zm64 21h-38c-1.4 0-2.5-1.1-2.5-2.5v-17c0-1.4 1.1-2.5 2.5-2.5h38c1.4 0 2.5 1.1 2.5 2.5v17c0 1.4-1.2 2.5-2.5 2.5zm-38-21c-.8 0-1.5.7-1.5 1.5v17c0 .8.7 1.5 1.5 1.5h38c.8 0 1.5-.7 1.5-1.5v-17c0-.8-.7-1.5-1.5-1.5h-38zm-31 48h-17c-1.4 0-2.5-1.1-2.5-2.5v-17c0-1.4 1.1-2.5 2.5-2.5h17c1.4 0 2.5 1.1 2.5 2.5v17c0 1.4-1.2 2.5-2.5 2.5zm-17-21c-.8 0-1.5.7-1.5 1.5v17c0 .8.7 1.5 1.5 1.5h17c.8 0 1.5-.7 1.5-1.5v-17c0-.8-.7-1.5-1.5-1.5h-17zm-9 21h-17c-1.4 0-2.5-1.1-2.5-2.5v-17c0-1.4 1.1-2.5 2.5-2.5h17c1.4 0 2.5 1.1 2.5 2.5v17c0 1.4-1.2 2.5-2.5 2.5zm-17-21c-.8 0-1.5.7-1.5 1.5v17c0 .8.7 1.5 1.5 1.5h17c.8 0 1.5-.7 1.5-1.5v-17c0-.8-.7-1.5-1.5-1.5h-17zm-35 21h-17c-1.4 0-2.5-1.1-2.5-2.5v-17c0-1.4 1.1-2.5 2.5-2.5h17c1.4 0 2.5 1.1 2.5 2.5v17c0 1.4-1.2 2.5-2.5 2.5zm-17-21c-.8 0-1.5.7-1.5 1.5v17c0 .8.7 1.5 1.5 1.5h17c.8 0 1.5-.7 1.5-1.5v-17c0-.8-.7-1.5-1.5-1.5h-17zm-9 21h-17c-1.4 0-2.5-1.1-2.5-2.5v-17c0-1.4 1.1-2.5 2.5-2.5h17c1.4 0 2.5 1.1 2.5 2.5v17c0 1.4-1.2 2.5-2.5 2.5zm-17-21c-.8 0-1.5.7-1.5 1.5v17c0 .8.7 1.5 1.5 1.5h17c.8 0 1.5-.7 1.5-1.5v-17c0-.8-.7-1.5-1.5-1.5h-17zm-9 21h-17c-1.4 0-2.5-1.1-2.5-2.5v-17c0-1.4 1.1-2.5 2.5-2.5h17c1.4 0 2.5 1.1 2.5 2.5v17c0 1.4-1.2 2.5-2.5 2.5zm-17-21c-.8 0-1.5.7-1.5 1.5v17c0 .8.7 1.5 1.5 1.5h17c.8 0 1.5-.7 1.5-1.5v-17c0-.8-.7-1.5-1.5-1.5h-17zm-9 21h-17c-1.4 0-2.5-1.1-2.5-2.5v-17c0-1.4 1.1-2.5 2.5-2.5h17c1.4 0 2.5 1.1 2.5 2.5v17c0 1.4-1.2 2.5-2.5 2.5zm-17-21c-.8 0-1.5.7-1.5 1.5v17c0 .8.7 1.5 1.5 1.5h17c.8 0 1.5-.7 1.5-1.5v-17c0-.8-.7-1.5-1.5-1.5h-17zm-9 21h-17c-1.4 0-2.5-1.1-2.5-2.5v-17c0-1.4 1.1-2.5 2.5-2.5h17c1.4 0 2.5 1.1 2.5 2.5v17c0 1.4-1.2 2.5-2.5 2.5zm-17-21c-.8 0-1.5.7-1.5 1.5v17c0 .8.7 1.5 1.5 1.5h17c.8 0 1.5-.7 1.5-1.5v-17c0-.8-.7-1.5-1.5-1.5h-17zm-9 21h-17c-1.4 0-2.5-1.1-2.5-2.5v-17c0-1.4 1.1-2.5 2.5-2.5h17c1.4 0 2.5 1.1 2.5 2.5v17c0 1.4-1.2 2.5-2.5 2.5zm-17-21c-.8 0-1.5.7-1.5 1.5v17c0 .8.7 1.5 1.5 1.5h17c.8 0 1.5-.7 1.5-1.5v-17c0-.8-.7-1.5-1.5-1.5h-17zm-9 21h-17c-1.4 0-2.5-1.1-2.5-2.5v-17c0-1.4 1.1-2.5 2.5-2.5h17c1.4 0 2.5 1.1 2.5 2.5v17c0 1.4-1.2 2.5-2.5 2.5zm-17-21c-.8 0-1.5.7-1.5 1.5v17c0 .8.7 1.5 1.5 1.5h17c.8 0 1.5-.7 1.5-1.5v-17c0-.8-.7-1.5-1.5-1.5h-17zm-9 21h-17c-1.4 0-2.5-1.1-2.5-2.5v-17c0-1.4 1.1-2.5 2.5-2.5h17c1.4 0 2.5 1.1 2.5 2.5v17c0 1.4-1.2 2.5-2.5 2.5zm-17-21c-.8 0-1.5.7-1.5 1.5v17c0 .8.7 1.5 1.5 1.5h17c.8 0 1.5-.7 1.5-1.5v-17c0-.8-.7-1.5-1.5-1.5h-17zm-9 21h-34c-1.4 0-2.5-1.1-2.5-2.5v-17c0-1.4 1.1-2.5 2.5-2.5h34c1.4 0 2.5 1.1 2.5 2.5v17c0 1.4-1.2 2.5-2.5 2.5zm-34-21c-.8 0-1.5.7-1.5 1.5v17c0 .8.7 1.5 1.5 1.5h34c.8 0 1.5-.7 1.5-1.5v-17c0-.8-.7-1.5-1.5-1.5h-34zm346 21h-17c-1.4 0-2.5-1.1-2.5-2.5v-17c0-1.4 1.1-2.5 2.5-2.5h17c1.4 0 2.5 1.1 2.5 2.5v17c0 1.4-1.2 2.5-2.5 2.5zm-17-21c-.8 0-1.5.7-1.5 1.5v17c0 .8.7 1.5 1.5 1.5h17c.8 0 1.5-.7 1.5-1.5v-17c0-.8-.7-1.5-1.5-1.5h-17zm60 21h-34c-1.4 0-2.5-1.1-2.5-2.5v-17c0-1.4 1.1-2.5 2.5-2.5h34c1.4 0 2.5 1.1 2.5 2.5v17c0 1.4-1.2 2.5-2.5 2.5zm-34-21c-.8 0-1.5.7-1.5 1.5v17c0 .8.7 1.5 1.5 1.5h34c.8 0 1.5-.7 1.5-1.5v-17c0-.8-.7-1.5-1.5-1.5h-34zm-87 21h-17c-1.4 0-2.5-1.1-2.5-2.5v-17c0-1.4 1.1-2.5 2.5-2.5h17c1.4 0 2.5 1.1 2.5 2.5v17c0 1.4-1.2 2.5-2.5 2.5zm-17-21c-.8 0-1.5.7-1.5 1.5v17c0 .8.7 1.5 1.5 1.5h17c.8 0 1.5-.7 1.5-1.5v-17c0-.8-.7-1.5-1.5-1.5h-17zm75 48h-17c-1.4 0-2.5-1.1-2.5-2.5v-17c0-1.4 1.1-2.5 2.5-2.5h17c1.4 0 2.5 1.1 2.5 2.5v17c0 1.4-1.2 2.5-2.5 2.5zm-17-21c-.8 0-1.5.7-1.5 1.5v17c0 .8.7 1.5 1.5 1.5h17c.8 0 1.5-.7 1.5-1.5v-17c0-.8-.7-1.5-1.5-1.5h-17zm-9 21h-17c-1.4 0-2.5-1.1-2.5-2.5v-17c0-1.4 1.1-2.5 2.5-2.5h17c1.4 0 2.5 1.1 2.5 2.5v17c0 1.4-1.2 2.5-2.5 2.5zm-17-21c-.8 0-1.5.7-1.5 1.5v17c0 .8.7 1.5 1.5 1.5h17c.8 0 1.5-.7 1.5-1.5v-17c0-.8-.7-1.5-1.5-1.5h-17zm-35 21h-17c-1.4 0-2.5-1.1-2.5-2.5v-17c0-1.4 1.1-2.5 2.5-2.5h17c1.4 0 2.5 1.1 2.5 2.5v17c0 1.4-1.2 2.5-2.5 2.5zm-17-21c-.8 0-1.5.7-1.5 1.5v17c0 .8.7 1.5 1.5 1.5h17c.8 0 1.5-.7 1.5-1.5v-17c0-.8-.7-1.5-1.5-1.5h-17zm-9 21h-17c-1.4 0-2.5-1.1-2.5-2.5v-17c0-1.4 1.1-2.5 2.5-2.5h17c1.4 0 2.5 1.1 2.5 2.5v17c0 1.4-1.2 2.5-2.5 2.5zm-17-21c-.8 0-1.5.7-1.5 1.5v17c0 .8.7 1.5 1.5 1.5h17c.8 0 1.5-.7 1.5-1.5v-17c0-.8-.7-1.5-1.5-1.5h-17zm-9 21h-17c-1.4 0-2.5-1.1-2.5-2.5v-17c0-1.4 1.1-2.5 2.5-2.5h17c1.4 0 2.5 1.1 2.5 2.5v17c0 1.4-1.2 2.5-2.5 2.5zm-17-21c-.8 0-1.5.7-1.5 1.5v17c0 .8.7 1.5 1.5 1.5h17c.8 0 1.5-.7 1.5-1.5v-17c0-.8-.7-1.5-1.5-1.5h-17zm-9 21h-17c-1.4 0-2.5-1.1-2.5-2.5v-17c0-1.4 1.1-2.5 2.5-2.5h17c1.4 0 2.5 1.1 2.5 2.5v17c0 1.4-1.2 2.5-2.5 2.5zm-17-21c-.8 0-1.5.7-1.5 1.5v17c0 .8.7 1.5 1.5 1.5h17c.8 0 1.5-.7 1.5-1.5v-17c0-.8-.7-1.5-1.5-1.5h-17zm-9 21h-17c-1.4 0-2.5-1.1-2.5-2.5v-17c0-1.4 1.1-2.5 2.5-2.5h17c1.4 0 2.5 1.1 2.5 2.5v17c0 1.4-1.2 2.5-2.5 2.5zm-17-21c-.8 0-1.5.7-1.5 1.5v17c0 .8.7 1.5 1.5 1.5h17c.8 0 1.5-.7 1.5-1.5v-17c0-.8-.7-1.5-1.5-1.5h-17zm-9 21h-17c-1.4 0-2.5-1.1-2.5-2.5v-17c0-1.4 1.1-2.5 2.5-2.5h17c1.4 0 2.5 1.1 2.5 2.5v17c0 1.4-1.2 2.5-2.5 2.5zm-17-21c-.8 0-1.5.7-1.5 1.5v17c0 .8.7 1.5 1.5 1.5h17c.8 0 1.5-.7 1.5-1.5v-17c0-.8-.7-1.5-1.5-1.5h-17zm-9 21h-17c-1.4 0-2.5-1.1-2.5-2.5v-17c0-1.4 1.1-2.5 2.5-2.5h17c1.4 0 2.5 1.1 2.5 2.5v17c0 1.4-1.2 2.5-2.5 2.5zm-17-21c-.8 0-1.5.7-1.5 1.5v17c0 .8.7 1.5 1.5 1.5h17c.8 0 1.5-.7 1.5-1.5v-17c0-.8-.7-1.5-1.5-1.5h-17zm-9 21h-17c-1.4 0-2.5-1.1-2.5-2.5v-17c0-1.4 1.1-2.5 2.5-2.5h17c1.4 0 2.5 1.1 2.5 2.5v17c0 1.4-1.2 2.5-2.5 2.5zm-17-21c-.8 0-1.5.7-1.5 1.5v17c0 .8.7 1.5 1.5 1.5h17c.8 0 1.5-.7 1.5-1.5v-17c0-.8-.7-1.5-1.5-1.5h-17zm-9 21h-40c-1.4 0-2.5-1.1-2.5-2.5v-17c0-1.4 1.1-2.5 2.5-2.5h40c1.4 0 2.5 1.1 2.5 2.5v17c0 1.4-1.2 2.5-2.5 2.5zm-40-21c-.8 0-1.5.7-1.5 1.5v17c0 .8.7 1.5 1.5 1.5h40c.8 0 1.5-.7 1.5-1.5v-17c0-.8-.7-1.5-1.5-1.5h-40zm389 21h-54c-1.4 0-2.5-1.1-2.5-2.5v-17c0-1.4 1.1-2.5 2.5-2.5h54c1.4 0 2.5 1.1 2.5 2.5v17c0 1.4-1.2 2.5-2.5 2.5zm-54-21c-.8 0-1.5.7-1.5 1.5v17c0 .8.7 1.5 1.5 1.5h54c.8 0 1.5-.7 1.5-1.5v-17c0-.8-.7-1.5-1.5-1.5h-54zm-61 21h-17c-1.4 0-2.5-1.1-2.5-2.5v-17c0-1.4 1.1-2.5 2.5-2.5h17c1.4 0 2.5 1.1 2.5 2.5v17c0 1.4-1.2 2.5-2.5 2.5zm-17-21c-.8 0-1.5.7-1.5 1.5v17c0 .8.7 1.5 1.5 1.5h17c.8 0 1.5-.7 1.5-1.5v-17c0-.8-.7-1.5-1.5-1.5h-17zm56 48h-17c-1.4 0-2.5-1.1-2.5-2.5v-17c0-1.4 1.1-2.5 2.5-2.5h17c1.4 0 2.5 1.1 2.5 2.5v17c0 1.4-1.2 2.5-2.5 2.5zm-17-21c-.8 0-1.5.7-1.5 1.5v17c0 .8.7 1.5 1.5 1.5h17c.8 0 1.5-.7 1.5-1.5v-17c0-.8-.7-1.5-1.5-1.5h-17zm-35 21h-17c-1.4 0-2.5-1.1-2.5-2.5v-17c0-1.4 1.1-2.5 2.5-2.5h17c1.4 0 2.5 1.1 2.5 2.5v17c0 1.4-1.2 2.5-2.5 2.5zm-17-21c-.8 0-1.5.7-1.5 1.5v17c0 .8.7 1.5 1.5 1.5h17c.8 0 1.5-.7 1.5-1.5v-17c0-.8-.7-1.5-1.5-1.5h-17zm-9 21h-17c-1.4 0-2.5-1.1-2.5-2.5v-17c0-1.4 1.1-2.5 2.5-2.5h17c1.4 0 2.5 1.1 2.5 2.5v17c0 1.4-1.2 2.5-2.5 2.5zm-17-21c-.8 0-1.5.7-1.5 1.5v17c0 .8.7 1.5 1.5 1.5h17c.8 0 1.5-.7 1.5-1.5v-17c0-.8-.7-1.5-1.5-1.5h-17zm-9 21h-17c-1.4 0-2.5-1.1-2.5-2.5v-17c0-1.4 1.1-2.5 2.5-2.5h17c1.4 0 2.5 1.1 2.5 2.5v17c0 1.4-1.2 2.5-2.5 2.5zm-17-21c-.8 0-1.5.7-1.5 1.5v17c0 .8.7 1.5 1.5 1.5h17c.8 0 1.5-.7 1.5-1.5v-17c0-.8-.7-1.5-1.5-1.5h-17zm-9 21h-17c-1.4 0-2.5-1.1-2.5-2.5v-17c0-1.4 1.1-2.5 2.5-2.5h17c1.4 0 2.5 1.1 2.5 2.5v17c0 1.4-1.2 2.5-2.5 2.5zm-17-21c-.8 0-1.5.7-1.5 1.5v17c0 .8.7 1.5 1.5 1.5h17c.8 0 1.5-.7 1.5-1.5v-17c0-.8-.7-1.5-1.5-1.5h-17zm-9 21h-17c-1.4 0-2.5-1.1-2.5-2.5v-17c0-1.4 1.1-2.5 2.5-2.5h17c1.4 0 2.5 1.1 2.5 2.5v17c0 1.4-1.2 2.5-2.5 2.5zm-17-21c-.8 0-1.5.7-1.5 1.5v17c0 .8.7 1.5 1.5 1.5h17c.8 0 1.5-.7 1.5-1.5v-17c0-.8-.7-1.5-1.5-1.5h-17zm-9 21h-17c-1.4 0-2.5-1.1-2.5-2.5v-17c0-1.4 1.1-2.5 2.5-2.5h17c1.4 0 2.5 1.1 2.5 2.5v17c0 1.4-1.2 2.5-2.5 2.5zm-17-21c-.8 0-1.5.7-1.5 1.5v17c0 .8.7 1.5 1.5 1.5h17c.8 0 1.5-.7 1.5-1.5v-17c0-.8-.7-1.5-1.5-1.5h-17zm-9 21h-17c-1.4 0-2.5-1.1-2.5-2.5v-17c0-1.4 1.1-2.5 2.5-2.5h17c1.4 0 2.5 1.1 2.5 2.5v17c0 1.4-1.2 2.5-2.5 2.5zm-17-21c-.8 0-1.5.7-1.5 1.5v17c0 .8.7 1.5 1.5 1.5h17c.8 0 1.5-.7 1.5-1.5v-17c0-.8-.7-1.5-1.5-1.5h-17zm-9 21h-17c-1.4 0-2.5-1.1-2.5-2.5v-17c0-1.4 1.1-2.5 2.5-2.5h17c1.4 0 2.5 1.1 2.5 2.5v17c0 1.4-1.2 2.5-2.5 2.5zm-17-21c-.8 0-1.5.7-1.5 1.5v17c0 .8.7 1.5 1.5 1.5h17c.8 0 1.5-.7 1.5-1.5v-17c0-.8-.7-1.5-1.5-1.5h-17zm-9 21h-53c-1.4 0-2.5-1.1-2.5-2.5v-17c0-1.4 1.1-2.5 2.5-2.5h53c1.4 0 2.5 1.1 2.5 2.5v17c0 1.4-1.2 2.5-2.5 2.5zm-53-21c-.8 0-1.5.7-1.5 1.5v17c0 .8.7 1.5 1.5 1.5h53c.8 0 1.5-.7 1.5-1.5v-17c0-.8-.7-1.5-1.5-1.5h-53zm363 21h-41c-1.4 0-2.5-1.1-2.5-2.5v-17c0-1.4 1.1-2.5 2.5-2.5h41c1.4 0 2.5 1.1 2.5 2.5v17c0 1.4-1.2 2.5-2.5 2.5zm-41-21c-.8 0-1.5.7-1.5 1.5v17c0 .8.7 1.5 1.5 1.5h41c.8 0 1.5-.7 1.5-1.5v-17c0-.8-.7-1.5-1.5-1.5h-41zm-35 21h-17c-1.4 0-2.5-1.1-2.5-2.5v-17c0-1.4 1.1-2.5 2.5-2.5h17c1.4 0 2.5 1.1 2.5 2.5v17c0 1.4-1.2 2.5-2.5 2.5zm-17-21c-.8 0-1.5.7-1.5 1.5v17c0 .8.7 1.5 1.5 1.5h17c.8 0 1.5-.7 1.5-1.5v-17c0-.8-.7-1.5-1.5-1.5h-17zm119 21h-17c-1.4 0-2.5-1.1-2.5-2.5v-17c0-1.4 1.1-2.5 2.5-2.5h17c1.4 0 2.5 1.1 2.5 2.5v17c0 1.4-1.2 2.5-2.5 2.5zm-17-21c-.8 0-1.5.7-1.5 1.5v17c0 .8.7 1.5 1.5 1.5h17c.8 0 1.5-.7 1.5-1.5v-17c0-.8-.7-1.5-1.5-1.5h-17zm-61 48h-17c-1.4 0-2.5-1.1-2.5-2.5v-17c0-1.4 1.1-2.5 2.5-2.5h17c1.4 0 2.5 1.1 2.5 2.5v17c0 1.4-1.2 2.5-2.5 2.5zm-17-21c-.8 0-1.5.7-1.5 1.5v17c0 .8.7 1.5 1.5 1.5h17c.8 0 1.5-.7 1.5-1.5v-17c0-.8-.7-1.5-1.5-1.5h-17zm-35 21h-17c-1.4 0-2.5-1.1-2.5-2.5v-17c0-1.4 1.1-2.5 2.5-2.5h17c1.4 0 2.5 1.1 2.5 2.5v17c0 1.4-1.2 2.5-2.5 2.5zm-17-21c-.8 0-1.5.7-1.5 1.5v17c0 .8.7 1.5 1.5 1.5h17c.8 0 1.5-.7 1.5-1.5v-17c0-.8-.7-1.5-1.5-1.5h-17zm-9 21h-128c-1.4 0-2.5-1.1-2.5-2.5v-17c0-1.4 1.1-2.5 2.5-2.5h128c1.4 0 2.5 1.1 2.5 2.5v17c0 1.4-1.2 2.5-2.5 2.5zm-128-21c-.8 0-1.5.7-1.5 1.5v17c0 .8.7 1.5 1.5 1.5h128c.8 0 1.5-.7 1.5-1.5v-17c0-.8-.7-1.5-1.5-1.5h-128zm-9 21h-24c-1.4 0-2.5-1.1-2.5-2.5v-17c0-1.4 1.1-2.5 2.5-2.5h24c1.4 0 2.5 1.1 2.5 2.5v17c0 1.4-1.2 2.5-2.5 2.5zm-24-21c-.8 0-1.5.7-1.5 1.5v17c0 .8.7 1.5 1.5 1.5h24c.8 0 1.5-.7 1.5-1.5v-17c0-.8-.7-1.5-1.5-1.5h-24zm-9 21h-18c-1.4 0-2.5-1.1-2.5-2.5v-17c0-1.4 1.1-2.5 2.5-2.5h18c1.4 0 2.5 1.1 2.5 2.5v17c0 1.4-1.2 2.5-2.5 2.5zm-18-21c-.8 0-1.5.7-1.5 1.5v17c0 .8.7 1.5 1.5 1.5h18c.8 0 1.5-.7 1.5-1.5v-17c0-.8-.7-1.5-1.5-1.5h-18zm-9 21h-36c-1.4 0-2.5-1.1-2.5-2.5v-17c0-1.4 1.1-2.5 2.5-2.5h36c1.4 0 2.5 1.1 2.5 2.5v17c0 1.4-1.2 2.5-2.5 2.5zm-36-21c-.8 0-1.5.7-1.5 1.5v17c0 .8.7 1.5 1.5 1.5h36c.8 0 1.5-.7 1.5-1.5v-17c0-.8-.7-1.5-1.5-1.5h-36zm285 21h-17c-1.4 0-2.5-1.1-2.5-2.5v-17c0-1.4 1.1-2.5 2.5-2.5h17c1.4 0 2.5 1.1 2.5 2.5v17c0 1.4-1.2 2.5-2.5 2.5zm-17-21c-.8 0-1.5.7-1.5 1.5v17c0 .8.7 1.5 1.5 1.5h17c.8 0 1.5-.7 1.5-1.5v-17c0-.8-.7-1.5-1.5-1.5h-17zm121 21h-17c-1.4 0-2.5-1.1-2.5-2.5v-17c0-1.4 1.1-2.5 2.5-2.5h17c1.4 0 2.5 1.1 2.5 2.5v17c0 1.4-1.2 2.5-2.5 2.5zm-17-21c-.8 0-1.5.7-1.5 1.5v17c0 .8.7 1.5 1.5 1.5h17c.8 0 1.5-.7 1.5-1.5v-17c0-.8-.7-1.5-1.5-1.5h-17zm-9 21h-17c-1.4 0-2.5-1.1-2.5-2.5v-17c0-1.4 1.1-2.5 2.5-2.5h17c1.4 0 2.5 1.1 2.5 2.5v17c0 1.4-1.2 2.5-2.5 2.5zm-17-21c-.8 0-1.5.7-1.5 1.5v17c0 .8.7 1.5 1.5 1.5h17c.8 0 1.5-.7 1.5-1.5v-17c0-.8-.7-1.5-1.5-1.5h-17zm-9 21h-17c-1.4 0-2.5-1.1-2.5-2.5v-17c0-1.4 1.1-2.5 2.5-2.5h17c1.4 0 2.5 1.1 2.5 2.5v17c0 1.4-1.2 2.5-2.5 2.5zm-17-21c-.8 0-1.5.7-1.5 1.5v17c0 .8.7 1.5 1.5 1.5h17c.8 0 1.5-.7 1.5-1.5v-17c0-.8-.7-1.5-1.5-1.5h-17zm95 21h-17c-1.4 0-2.5-1.1-2.5-2.5v-17c0-1.4 1.1-2.5 2.5-2.5h17c1.4 0 2.5 1.1 2.5 2.5v17c0 1.4-1.2 2.5-2.5 2.5zm-17-21c-.8 0-1.5.7-1.5 1.5v17c0 .8.7 1.5 1.5 1.5h17c.8 0 1.5-.7 1.5-1.5v-17c0-.8-.7-1.5-1.5-1.5h-17zm-280-113h-15.9c-1.4 0-2.5-1.1-2.5-2.5v-10c0-1.4 1.1-2.5 2.5-2.5h15.9c1.4 0 2.5 1.1 2.5 2.5v10c0 1.4-1.2 2.5-2.5 2.5zm-16-14c-.8 0-1.5.7-1.5 1.5v10c0 .8.7 1.5 1.5 1.5h15.9c.8 0 1.5-.7 1.5-1.5v-10c0-.8-.7-1.5-1.5-1.5h-15.9zm-8.7 14h-16c-1.4 0-2.5-1.1-2.5-2.5v-10c0-1.4 1.1-2.5 2.5-2.5h15.9c1.4 0 2.5 1.1 2.5 2.5v10c.1 1.4-1.1 2.5-2.4 2.5zm-16-14c-.8 0-1.5.7-1.5 1.5v10c0 .8.7 1.5 1.5 1.5h15.9c.8 0 1.5-.7 1.5-1.5v-10c0-.8-.7-1.5-1.5-1.5H87.8zm-8.7 14h-16c-1.4 0-2.5-1.1-2.5-2.5v-10c0-1.4 1.1-2.5 2.5-2.5H79c1.4 0 2.5 1.1 2.5 2.5v10c.1 1.4-1 2.5-2.4 2.5zm-16-14c-.8 0-1.5.7-1.5 1.5v10c0 .8.7 1.5 1.5 1.5H79c.8 0 1.5-.7 1.5-1.5v-10c0-.8-.7-1.5-1.5-1.5H63.1zm-8.7 14H38.5c-1.4 0-2.5-1.1-2.5-2.5v-10c0-1.4 1.1-2.5 2.5-2.5h15.9c1.4 0 2.5 1.1 2.5 2.5v10c0 1.4-1.1 2.5-2.5 2.5zm-15.9-14c-.8 0-1.5.7-1.5 1.5v10c0 .8.7 1.5 1.5 1.5h15.9c.8 0 1.5-.7 1.5-1.5v-10c0-.8-.7-1.5-1.5-1.5H38.5zm-12.1 14H10.5c-1.4 0-2.5-1.1-2.5-2.5v-10c0-1.4 1.1-2.5 2.5-2.5h15.9c1.4 0 2.5 1.1 2.5 2.5v10c0 1.4-1.1 2.5-2.5 2.5zm-15.9-14c-.8 0-1.5.7-1.5 1.5v10c0 .8.7 1.5 1.5 1.5h15.9c.8 0 1.5-.7 1.5-1.5v-10c0-.8-.7-1.5-1.5-1.5H10.5zm217 14h-15.9c-1.4 0-2.5-1.1-2.5-2.5v-10c0-1.4 1.1-2.5 2.5-2.5h15.9c1.4 0 2.5 1.1 2.5 2.5v10c0 1.4-1.2 2.5-2.5 2.5zm-16-14c-.8 0-1.5.7-1.5 1.5v10c0 .8.7 1.5 1.5 1.5h15.9c.8 0 1.5-.7 1.5-1.5v-10c0-.8-.7-1.5-1.5-1.5h-15.9zm-8.7 14h-15.9c-1.4 0-2.5-1.1-2.5-2.5v-10c0-1.4 1.1-2.5 2.5-2.5h15.9c1.4 0 2.5 1.1 2.5 2.5v10c0 1.4-1.2 2.5-2.5 2.5zm-16-14c-.8 0-1.5.7-1.5 1.5v10c0 .8.7 1.5 1.5 1.5h15.9c.8 0 1.5-.7 1.5-1.5v-10c0-.8-.7-1.5-1.5-1.5h-15.9zm-8.7 14h-15.9c-1.4 0-2.5-1.1-2.5-2.5v-10c0-1.4 1.1-2.5 2.5-2.5h15.9c1.4 0 2.5 1.1 2.5 2.5v10c0 1.4-1.1 2.5-2.5 2.5zm-16-14c-.8 0-1.5.7-1.5 1.5v10c0 .8.7 1.5 1.5 1.5H178c.8 0 1.5-.7 1.5-1.5v-10c0-.8-.7-1.5-1.5-1.5h-15.9zm-8.7 14h-15.9c-1.4 0-2.5-1.1-2.5-2.5v-10c0-1.4 1.1-2.5 2.5-2.5h15.9c1.4 0 2.5 1.1 2.5 2.5v10c0 1.4-1.1 2.5-2.5 2.5zm-15.9-14c-.8 0-1.5.7-1.5 1.5v10c0 .8.7 1.5 1.5 1.5h15.9c.8 0 1.5-.7 1.5-1.5v-10c0-.8-.7-1.5-1.5-1.5h-15.9zm189 14h-15.9c-1.4 0-2.5-1.1-2.5-2.5v-10c0-1.4 1.1-2.5 2.5-2.5h15.9c1.4 0 2.5 1.1 2.5 2.5v10c0 1.4-1.2 2.5-2.5 2.5zm-16-14c-.8 0-1.5.7-1.5 1.5v10c0 .8.7 1.5 1.5 1.5h15.9c.8 0 1.5-.7 1.5-1.5v-10c0-.8-.7-1.5-1.5-1.5h-15.9zm-8.7 14h-15.9c-1.4 0-2.5-1.1-2.5-2.5v-10c0-1.4 1.1-2.5 2.5-2.5h15.9c1.4 0 2.5 1.1 2.5 2.5v10c0 1.4-1.2 2.5-2.5 2.5zm-16-14c-.8 0-1.5.7-1.5 1.5v10c0 .8.7 1.5 1.5 1.5h15.9c.8 0 1.5-.7 1.5-1.5v-10c0-.8-.7-1.5-1.5-1.5h-15.9zm-8.7 14h-15.9c-1.4 0-2.5-1.1-2.5-2.5v-10c0-1.4 1.1-2.5 2.5-2.5h15.9c1.4 0 2.5 1.1 2.5 2.5v10c0 1.4-1.1 2.5-2.5 2.5zm-16-14c-.8 0-1.5.7-1.5 1.5v10c0 .8.7 1.5 1.5 1.5H277c.8 0 1.5-.7 1.5-1.5v-10c0-.8-.7-1.5-1.5-1.5h-15.9zm-8.7 14h-15.9c-1.4 0-2.5-1.1-2.5-2.5v-10c0-1.4 1.1-2.5 2.5-2.5h15.9c1.4 0 2.5 1.1 2.5 2.5v10c0 1.4-1.1 2.5-2.5 2.5zm-15.9-14c-.8 0-1.5.7-1.5 1.5v10c0 .8.7 1.5 1.5 1.5h15.9c.8 0 1.5-.7 1.5-1.5v-10c0-.8-.7-1.5-1.5-1.5h-15.9zm163 14h-15.9c-1.4 0-2.5-1.1-2.5-2.5v-10c0-1.4 1.1-2.5 2.5-2.5h15.9c1.4 0 2.5 1.1 2.5 2.5v10c0 1.4-1.2 2.5-2.5 2.5zm-16-14c-.8 0-1.5.7-1.5 1.5v10c0 .8.7 1.5 1.5 1.5h15.9c.8 0 1.5-.7 1.5-1.5v-10c0-.8-.7-1.5-1.5-1.5h-15.9zm-8.7 14h-15.9c-1.4 0-2.5-1.1-2.5-2.5v-10c0-1.4 1.1-2.5 2.5-2.5h15.9c1.4 0 2.5 1.1 2.5 2.5v10c0 1.4-1.2 2.5-2.5 2.5zm-16-14c-.8 0-1.5.7-1.5 1.5v10c0 .8.7 1.5 1.5 1.5h15.9c.8 0 1.5-.7 1.5-1.5v-10c0-.8-.7-1.5-1.5-1.5h-15.9zm-8.7 14h-15.9c-1.4 0-2.5-1.1-2.5-2.5v-10c0-1.4 1.1-2.5 2.5-2.5h15.9c1.4 0 2.5 1.1 2.5 2.5v10c0 1.4-1.1 2.5-2.5 2.5zm-16-14c-.8 0-1.5.7-1.5 1.5v10c0 .8.7 1.5 1.5 1.5H350c.8 0 1.5-.7 1.5-1.5v-10c0-.8-.7-1.5-1.5-1.5h-15.9zm167.4 14h-15.9c-1.4 0-2.5-1.1-2.5-2.5v-10c0-1.4 1.1-2.5 2.5-2.5h15.9c1.4 0 2.5 1.1 2.5 2.5v10c0 1.4-1.2 2.5-2.5 2.5zm-16-14c-.8 0-1.5.7-1.5 1.5v10c0 .8.7 1.5 1.5 1.5h15.9c.8 0 1.5-.7 1.5-1.5v-10c0-.8-.7-1.5-1.5-1.5h-15.9zm-8.7 14h-15.9c-1.4 0-2.5-1.1-2.5-2.5v-10c0-1.4 1.1-2.5 2.5-2.5h15.9c1.4 0 2.5 1.1 2.5 2.5v10c0 1.4-1.2 2.5-2.5 2.5zm-16-14c-.8 0-1.5.7-1.5 1.5v10c0 .8.7 1.5 1.5 1.5h15.9c.8 0 1.5-.7 1.5-1.5v-10c0-.8-.7-1.5-1.5-1.5h-15.9zm-8.7 14h-15.9c-1.4 0-2.5-1.1-2.5-2.5v-10c0-1.4 1.1-2.5 2.5-2.5h15.9c1.4 0 2.5 1.1 2.5 2.5v10c0 1.4-1.1 2.5-2.5 2.5zm-16-14c-.8 0-1.5.7-1.5 1.5v10c0 .8.7 1.5 1.5 1.5H452c.8 0 1.5-.7 1.5-1.5v-10c0-.8-.7-1.5-1.5-1.5h-15.9zm-8.7 14h-15.9c-1.4 0-2.5-1.1-2.5-2.5v-10c0-1.4 1.1-2.5 2.5-2.5h15.9c1.4 0 2.5 1.1 2.5 2.5v10c0 1.4-1.1 2.5-2.5 2.5zm-15.9-14c-.8 0-1.5.7-1.5 1.5v10c0 .8.7 1.5 1.5 1.5h15.9c.8 0 1.5-.7 1.5-1.5v-10c0-.8-.7-1.5-1.5-1.5h-15.9zm65.3 40h-15.9c-1.4 0-2.5-1.1-2.5-2.5v-17c0-1.4 1.1-2.5 2.5-2.5h15.9c1.4 0 2.5 1.1 2.5 2.5v17c0 1.4-1.2 2.5-2.5 2.5zm-16-21c-.8 0-1.5.7-1.5 1.5v17c0 .8.7 1.5 1.5 1.5h15.9c.8 0 1.5-.7 1.5-1.5v-17c0-.8-.7-1.5-1.5-1.5h-15.9zm-8.7 21h-15.9c-1.4 0-2.5-1.1-2.5-2.5v-17c0-1.4 1.1-2.5 2.5-2.5h15.9c1.4 0 2.5 1.1 2.5 2.5v17c0 1.4-1.1 2.5-2.5 2.5zm-16-21c-.8 0-1.5.7-1.5 1.5v17c0 .8.7 1.5 1.5 1.5H452c.8 0 1.5-.7 1.5-1.5v-17c0-.8-.7-1.5-1.5-1.5h-15.9zm-8.7 21h-15.9c-1.4 0-2.5-1.1-2.5-2.5v-17c0-1.4 1.1-2.5 2.5-2.5h15.9c1.4 0 2.5 1.1 2.5 2.5v17c0 1.4-1.1 2.5-2.5 2.5zm-15.9-21c-.8 0-1.5.7-1.5 1.5v17c0 .8.7 1.5 1.5 1.5h15.9c.8 0 1.5-.7 1.5-1.5v-17c0-.8-.7-1.5-1.5-1.5h-15.9zm90 21h-15.9c-1.4 0-2.5-1.1-2.5-2.5v-17c0-1.4 1.1-2.5 2.5-2.5h15.9c1.4 0 2.5 1.1 2.5 2.5v17c0 1.4-1.2 2.5-2.5 2.5zm-16-21c-.8 0-1.5.7-1.5 1.5v17c0 .8.7 1.5 1.5 1.5h15.9c.8 0 1.5-.7 1.5-1.5v-17c0-.8-.7-1.5-1.5-1.5h-15.9zm-8.7 48h-15.9c-1.4 0-2.5-1.1-2.5-2.5v-17c0-1.4 1.1-2.5 2.5-2.5h15.9c1.4 0 2.5 1.1 2.5 2.5v17c0 1.4-1.2 2.5-2.5 2.5zm-16-21c-.8 0-1.5.7-1.5 1.5v17c0 .8.7 1.5 1.5 1.5h15.9c.8 0 1.5-.7 1.5-1.5v-17c0-.8-.7-1.5-1.5-1.5h-15.9zm-8.7 21h-15.9c-1.4 0-2.5-1.1-2.5-2.5v-17c0-1.4 1.1-2.5 2.5-2.5h15.9c1.4 0 2.5 1.1 2.5 2.5v17c0 1.4-1.1 2.5-2.5 2.5zm-16-21c-.8 0-1.5.7-1.5 1.5v17c0 .8.7 1.5 1.5 1.5H452c.8 0 1.5-.7 1.5-1.5v-17c0-.8-.7-1.5-1.5-1.5h-15.9zm-8.7 21h-15.9c-1.4 0-2.5-1.1-2.5-2.5v-17c0-1.4 1.1-2.5 2.5-2.5h15.9c1.4 0 2.5 1.1 2.5 2.5v17c0 1.4-1.1 2.5-2.5 2.5zm-15.9-21c-.8 0-1.5.7-1.5 1.5v17c0 .8.7 1.5 1.5 1.5h15.9c.8 0 1.5-.7 1.5-1.5v-17c0-.8-.7-1.5-1.5-1.5h-15.9zm90 48h-15.9c-1.4 0-2.5-1.1-2.5-2.5v-44c0-1.4 1.1-2.5 2.5-2.5h15.9c1.4 0 2.5 1.1 2.5 2.5v44c0 1.4-1.2 2.5-2.5 2.5zm-16-48c-.8 0-1.5.7-1.5 1.5v44c0 .8.7 1.5 1.5 1.5h15.9c.8 0 1.5-.7 1.5-1.5v-44c0-.8-.7-1.5-1.5-1.5h-15.9zm-8.7 48h-15.9c-1.4 0-2.5-1.1-2.5-2.5v-17c0-1.4 1.1-2.5 2.5-2.5h15.9c1.4 0 2.5 1.1 2.5 2.5v17c0 1.4-1.2 2.5-2.5 2.5zm-16-21c-.8 0-1.5.7-1.5 1.5v17c0 .8.7 1.5 1.5 1.5h15.9c.8 0 1.5-.7 1.5-1.5v-17c0-.8-.7-1.5-1.5-1.5h-15.9zm-8.7 21h-15.9c-1.4 0-2.5-1.1-2.5-2.5v-17c0-1.4 1.1-2.5 2.5-2.5h15.9c1.4 0 2.5 1.1 2.5 2.5v17c0 1.4-1.1 2.5-2.5 2.5zm-16-21c-.8 0-1.5.7-1.5 1.5v17c0 .8.7 1.5 1.5 1.5H452c.8 0 1.5-.7 1.5-1.5v-17c0-.8-.7-1.5-1.5-1.5h-15.9zm-8.7 21h-15.9c-1.4 0-2.5-1.1-2.5-2.5v-17c0-1.4 1.1-2.5 2.5-2.5h15.9c1.4 0 2.5 1.1 2.5 2.5v17c0 1.4-1.1 2.5-2.5 2.5zm-15.9-21c-.8 0-1.5.7-1.5 1.5v17c0 .8.7 1.5 1.5 1.5h15.9c.8 0 1.5-.7 1.5-1.5v-17c0-.8-.7-1.5-1.5-1.5h-15.9zm65.3 48h-15.9c-1.4 0-2.5-1.1-2.5-2.5v-17c0-1.4 1.1-2.5 2.5-2.5h15.9c1.4 0 2.5 1.1 2.5 2.5v17c0 1.4-1.2 2.5-2.5 2.5zm-16-21c-.8 0-1.5.7-1.5 1.5v17c0 .8.7 1.5 1.5 1.5h15.9c.8 0 1.5-.7 1.5-1.5v-17c0-.8-.7-1.5-1.5-1.5h-15.9zm-8.7 21h-15.9c-1.4 0-2.5-1.1-2.5-2.5v-17c0-1.4 1.1-2.5 2.5-2.5h15.9c1.4 0 2.5 1.1 2.5 2.5v17c0 1.4-1.1 2.5-2.5 2.5zm-16-21c-.8 0-1.5.7-1.5 1.5v17c0 .8.7 1.5 1.5 1.5H452c.8 0 1.5-.7 1.5-1.5v-17c0-.8-.7-1.5-1.5-1.5h-15.9zm-8.7 21h-15.9c-1.4 0-2.5-1.1-2.5-2.5v-17c0-1.4 1.1-2.5 2.5-2.5h15.9c1.4 0 2.5 1.1 2.5 2.5v17c0 1.4-1.1 2.5-2.5 2.5zm-15.9-21c-.8 0-1.5.7-1.5 1.5v17c0 .8.7 1.5 1.5 1.5h15.9c.8 0 1.5-.7 1.5-1.5v-17c0-.8-.7-1.5-1.5-1.5h-15.9zm90 48h-15.9c-1.4 0-2.5-1.1-2.5-2.5v-44c0-1.4 1.1-2.5 2.5-2.5h15.9c1.4 0 2.5 1.1 2.5 2.5v44c0 1.4-1.2 2.5-2.5 2.5zm-16-48c-.8 0-1.5.7-1.5 1.5v44c0 .8.7 1.5 1.5 1.5h15.9c.8 0 1.5-.7 1.5-1.5v-44c0-.8-.7-1.5-1.5-1.5h-15.9zm-8.7 48h-15.9c-1.4 0-2.5-1.1-2.5-2.5v-17c0-1.4 1.1-2.5 2.5-2.5h15.9c1.4 0 2.5 1.1 2.5 2.5v17c0 1.4-1.2 2.5-2.5 2.5zm-16-21c-.8 0-1.5.7-1.5 1.5v17c0 .8.7 1.5 1.5 1.5h15.9c.8 0 1.5-.7 1.5-1.5v-17c0-.8-.7-1.5-1.5-1.5h-15.9zm-8.7 21h-15.9c-1.4 0-2.5-1.1-2.5-2.5v-17c0-1.4 1.1-2.5 2.5-2.5h15.9c1.4 0 2.5 1.1 2.5 2.5v17c0 1.4-1.1 2.5-2.5 2.5zm-16-21c-.8 0-1.5.7-1.5 1.5v17c0 .8.7 1.5 1.5 1.5H452c.8 0 1.5-.7 1.5-1.5v-17c0-.8-.7-1.5-1.5-1.5h-15.9z" fill="#228b98"/></svg>