<svg version="1.1" xmlns="http://www.w3.org/2000/svg" x="0" y="0" viewBox="0 0 512 512" xml:space="preserve"><style type="text/css">.st1{fill:#cc584c}.st2{fill:#f4f4f4}.st3{fill:#999}</style><path d="M311.5 0h-30.8c-4.4 0-8.7 1-12.7 2.6-3.7 1.5-7.7 2.4-12 2.4s-8.3-.8-12-2.4C240 1 235.7 0 231.3 0h-30.8c-8.8 0-16 7.2-16 16v480c0 8.8 7.2 16 16 16h111c8.8 0 16-7.2 16-16V16c0-8.8-7.2-16-16-16z" fill="#36434f"/><circle class="st1" cx="217.5" cy="35" r="15"/><path class="st2" d="M218 35.8h-1c-.5 0-.9-.4-.9-.9v-10c0-.5.4-.9.9-.9h.9c.5 0 .9.4.9.9v10c.1.4-.3.9-.8.9z"/><path class="st2" d="M221 27.1v1.5c0 .5.2 1.1.7 1.4.3.2.5.4.7.7 1 1.1 1.6 2.6 1.6 4.1 0 1.8-.7 3.5-2 4.8-1.2 1.1-2.8 1.8-4.4 1.8-1.8 0-3.5-.7-4.7-2-1.2-1.2-1.8-2.8-1.8-4.5 0-1.8.7-3.4 1.9-4.6l.4-.4c.4-.4.7-.9.7-1.4V27c0-.4-.4-.6-.7-.4-3 1.5-5.1 4.7-5.1 8.3 0 5.1 4.2 9.3 9.3 9.3s9.3-4.2 9.3-9.3c0-3.6-2.1-6.8-5.1-8.3-.4 0-.8.2-.8.5z"/><path class="st1" d="M304.5 48h-21c-2.8 0-5-2.3-5-5V27c0-2.8 2.3-5 5-5h21c2.8 0 5 2.3 5 5v16c0 2.8-2.2 5-5 5z"/><path class="st2" d="M291.1 35.2c0 .8-.1 1.4-.4 2s-.6 1-1.1 1.3-1.1.5-1.7.5-1.2-.2-1.7-.5-.9-.8-1.1-1.3-.4-1.2-.4-2v-.4c0-.8.1-1.4.4-2s.7-1 1.1-1.3c.5-.3 1.1-.5 1.7-.5s1.2.2 1.7.5.9.7 1.1 1.3c.3.6.4 1.2.4 2v.4zm-1.4-.4c0-.9-.2-1.5-.5-2s-.8-.7-1.4-.7-1 .2-1.4.7c-.3.5-.5 1.1-.5 2v.5c0 .9.2 1.5.5 2s.8.7 1.4.7 1.1-.2 1.4-.7.5-1.1.5-2v-.5zm7.2.8h-3.1v3.3h-1.4v-7.8h5v1.1h-3.6v2.3h3.1v1.1zm6.1 0h-3.1v3.3h-1.4v-7.8h5v1.1h-3.6v2.3h3.1v1.1z"/><path class="st3" d="M228.5 79h-21c-2.8 0-5-2.3-5-5V62c0-2.8 2.3-5 5-5h21c2.8 0 5 2.3 5 5v12c0 2.8-2.2 5-5 5zm38 0h-21c-2.8 0-5-2.3-5-5V62c0-2.8 2.3-5 5-5h21c2.8 0 5 2.3 5 5v12c0 2.8-2.2 5-5 5zm38 0h-21c-2.8 0-5-2.3-5-5V62c0-2.8 2.3-5 5-5h21c2.8 0 5 2.3 5 5v12c0 2.8-2.2 5-5 5zm-76 28.3h-21c-2.8 0-5-2.3-5-5v-12c0-2.8 2.3-5 5-5h21c2.8 0 5 2.3 5 5v12c0 2.8-2.2 5-5 5zm38 0h-21c-2.8 0-5-2.3-5-5v-12c0-2.8 2.3-5 5-5h21c2.8 0 5 2.3 5 5v12c0 2.8-2.2 5-5 5zm38 0h-21c-2.8 0-5-2.3-5-5v-12c0-2.8 2.3-5 5-5h21c2.8 0 5 2.3 5 5v12c0 2.8-2.2 5-5 5zm-76 28.4h-21c-2.8 0-5-2.3-5-5v-12c0-2.8 2.3-5 5-5h21c2.8 0 5 2.3 5 5v12c0 2.7-2.2 5-5 5zm38 0h-21c-2.8 0-5-2.3-5-5v-12c0-2.8 2.3-5 5-5h21c2.8 0 5 2.3 5 5v12c0 2.7-2.2 5-5 5zm38 0h-21c-2.8 0-5-2.3-5-5v-12c0-2.8 2.3-5 5-5h21c2.8 0 5 2.3 5 5v12c0 2.7-2.2 5-5 5zm-38 28.3h-21c-2.8 0-5-2.3-5-5v-12c0-2.8 2.3-5 5-5h21c2.8 0 5 2.3 5 5v12c0 2.8-2.2 5-5 5zm-38 0h-21c-2.8 0-5-2.3-5-5v-12c0-2.8 2.3-5 5-5h21c2.8 0 5 2.3 5 5v12c0 2.8-2.2 5-5 5zm76 0h-21c-2.8 0-5-2.3-5-5v-12c0-2.8 2.3-5 5-5h21c2.8 0 5 2.3 5 5v12c0 2.8-2.2 5-5 5zm-43 41h-11c-2.8 0-5-2.3-5-5v-18c0-2.8 2.3-5 5-5h11c2.8 0 5 2.3 5 5v18c0 2.8-2.2 5-5 5zm0 35h-11c-2.8 0-5-2.3-5-5v-18c0-2.8 2.3-5 5-5h11c2.8 0 5 2.3 5 5v18c0 2.8-2.2 5-5 5zm-29 10h-25c-2.8 0-5-2.3-5-5v-66c0-2.8 2.3-5 5-5h25c2.8 0 5 2.3 5 5v66c0 2.8-2.2 5-5 5zm72 0h-25c-2.8 0-5-2.3-5-5v-66c0-2.8 2.3-5 5-5h25c2.8 0 5 2.3 5 5v66c0 2.8-2.2 5-5 5zm-40 29h-17c-2.8 0-5-2.3-5-5v-18c0-2.8 2.3-5 5-5h17c2.8 0 5 2.3 5 5v18c0 2.8-2.2 5-5 5zm-2 63h-13c-2.8 0-5-2.3-5-5v-10c0-2.8 2.3-5 5-5h13c2.8 0 5 2.3 5 5v10c0 2.8-2.2 5-5 5zm-34-63h-21c-2.8 0-5-2.3-5-5v-12c0-2.8 2.3-5 5-5h21c2.8 0 5 2.3 5 5v12c0 2.8-2.2 5-5 5zm76 0h-21c-2.8 0-5-2.3-5-5v-12c0-2.8 2.3-5 5-5h21c2.8 0 5 2.3 5 5v12c0 2.8-2.2 5-5 5zm-80.9 30h-16c-2.8 0-5-2.3-5-5v-12c0-2.8 2.3-5 5-5h21c2.8 0 5 2.3 5 5v7c0 5.5-4.5 10-10 10zm81 0h-16c-5.5 0-10-4.5-10-10v-7c0-2.8 2.3-5 5-5h21c2.8 0 5 2.3 5 5v12c0 2.8-2.2 5-5 5zm-81.2 46h-16c-2.8 0-5 2.3-5 5v12c0 2.8 2.3 5 5 5h21c2.8 0 5-2.3 5-5v-7c0-5.5-4.5-10-10-10zm81 0h-16c-5.5 0-10 4.5-10 10v7c0 2.8 2.3 5 5 5h21c2.8 0 5-2.3 5-5v-12c0-2.7-2.3-5-5-5zM261 315h-10c-2.8 0-5-2.3-5-5l2-18c0-2.8 2.3-5 5-5h6c2.8 0 5 2.3 5 5l2 18c0 2.8-2.2 5-5 5z"/><path class="st2" d="M256 294l-5 12h10z"/><path class="st3" d="M261 349h-10c-2.8 0-5 2.3-5 5l2 18c0 2.8 2.3 5 5 5h6c2.8 0 5-2.3 5-5l2-18c0-2.7-2.2-5-5-5z"/><path class="st2" d="M256 370l-5-12h10z"/><path class="st3" d="M233 327v10c0 2.8-2.3 5-5 5l-18-2c-2.8 0-5-2.3-5-5v-6c0-2.8 2.3-5 5-5l18-2c2.8 0 5 2.3 5 5z"/><path class="st2" d="M212 332l12 5v-10z"/><path class="st3" d="M279 327v10c0 2.8 2.3 5 5 5l18-2c2.8 0 5-2.3 5-5v-6c0-2.8-2.3-5-5-5l-18-2c-2.7 0-5 2.3-5 5z"/><path class="st2" d="M300 332l-12 5v-10z"/><path class="st1" d="M220 400h-10c-2.8 0-5-2.3-5-5v-5c0-2.8 2.3-5 5-5h10c2.8 0 5 2.3 5 5v5c0 2.8-2.2 5-5 5z"/><path d="M247.3 400h-10c-2.8 0-5-2.3-5-5v-5c0-2.8 2.3-5 5-5h10c2.8 0 5 2.3 5 5v5c0 2.8-2.2 5-5 5z" fill="#35965f"/><path d="M274.7 400h-10c-2.8 0-5-2.3-5-5v-5c0-2.8 2.3-5 5-5h10c2.8 0 5 2.3 5 5v5c0 2.8-2.3 5-5 5z" fill="#eec646"/><path d="M302 400h-10c-2.8 0-5-2.3-5-5v-5c0-2.8 2.3-5 5-5h10c2.8 0 5 2.3 5 5v5c0 2.8-2.2 5-5 5z" fill="#2e86b7"/><path class="st3" d="M220 421h-10c-2.8 0-5-2.3-5-5v-5c0-2.8 2.3-5 5-5h10c2.8 0 5 2.3 5 5v5c0 2.8-2.2 5-5 5zm27.3 0h-10c-2.8 0-5-2.3-5-5v-5c0-2.8 2.3-5 5-5h10c2.8 0 5 2.3 5 5v5c0 2.8-2.2 5-5 5zm27.4 0h-10c-2.8 0-5-2.3-5-5v-5c0-2.8 2.3-5 5-5h10c2.8 0 5 2.3 5 5v5c0 2.8-2.3 5-5 5zm27.3 0h-10c-2.8 0-5-2.3-5-5v-5c0-2.8 2.3-5 5-5h10c2.8 0 5 2.3 5 5v5c0 2.8-2.2 5-5 5zm-82 21h-10c-2.8 0-5-2.3-5-5v-5c0-2.8 2.3-5 5-5h10c2.8 0 5 2.3 5 5v5c0 2.8-2.2 5-5 5zm27.3 0h-10c-2.8 0-5-2.3-5-5v-5c0-2.8 2.3-5 5-5h10c2.8 0 5 2.3 5 5v5c0 2.8-2.2 5-5 5zm27.4 0h-10c-2.8 0-5-2.3-5-5v-5c0-2.8 2.3-5 5-5h10c2.8 0 5 2.3 5 5v5c0 2.8-2.3 5-5 5zm27.3 0h-10c-2.8 0-5-2.3-5-5v-5c0-2.8 2.3-5 5-5h10c2.8 0 5 2.3 5 5v5c0 2.8-2.2 5-5 5z"/><path class="st2" d="M211.5 193h17v3h-17z"/><path class="st2" d="M218.5 186h3v17h-3zm-7 48h17v3h-17zm89.6-39l-9.1-6.4-9.1 6.4-1.8-2.4L292 185l10.9 7.6zm0 34l-9.1 6.4-9.1-6.4-1.8 2.4L292 239l10.9-7.6z"/><path class="st3" d="M220 463h-10c-2.8 0-5-2.3-5-5v-5c0-2.8 2.3-5 5-5h10c2.8 0 5 2.3 5 5v5c0 2.8-2.2 5-5 5zm27.3 0h-10c-2.8 0-5-2.3-5-5v-5c0-2.8 2.3-5 5-5h10c2.8 0 5 2.3 5 5v5c0 2.8-2.2 5-5 5zm27.4 0h-10c-2.8 0-5-2.3-5-5v-5c0-2.8 2.3-5 5-5h10c2.8 0 5 2.3 5 5v5c0 2.8-2.3 5-5 5zm27.3 0h-10c-2.8 0-5-2.3-5-5v-5c0-2.8 2.3-5 5-5h10c2.8 0 5 2.3 5 5v5c0 2.8-2.2 5-5 5z"/></svg>