<svg version="1.1" xmlns="http://www.w3.org/2000/svg" x="0" y="0" viewBox="0 0 512 512" xml:space="preserve"><path fill="#ddd" d="M75 0h362v512H75z"/><path d="M295.7 217v14h-79.3v-14h79.3zm-79.4-96v14h79.3v-14h-79.3zm0 32v14h79.3v-14h-79.3zm0 32v14h79.3v-14h-79.3zm-31-96H106v14h79.3V89zm0 128H106v14h79.3v-14zm0 32H106v14h79.3v-14zm0-64H106v14h79.3v-14zm0-32H106v14h79.3v-14zm31 192v14h79.3v-14h-79.3zm79.4 142v-14h-79.3v14h79.3zm-79.4-46v14h79.3v-14h-79.3zm79.4-338V89h-79.3v14h79.3zm-79.4 306v14h79.3v-14h-79.3zm0-160v14h79.3v-14h-79.3zm0 32v14h79.3v-14h-79.3zm0 96v14h79.3v-14h-79.3zm0-64v14h79.3v-14h-79.3zm-31-32H106v14h79.3v-14zm0-160H106v14h79.3v-14zm141.4 142H406v-14h-79.3v14zm0-32H406v-14h-79.3v14zm-141.4 82H106v14h79.3v-14zm141.4 46H406v-14h-79.3v14zm0-32H406v-14h-79.3v14zm0-192H406v-14h-79.3v14zm0-46v14H406V89h-79.3zm0 110H406v-14h-79.3v14zm0-32H406v-14h-79.3v14zm0 128H406v-14h-79.3v14zM185.3 409H106v14h79.3v-14zm0-32H106v14h79.3v-14zm0-32H106v14h79.3v-14zm0 96H106v14h79.3v-14zm141.4-50H406v-14h-79.3v14zm-141.4 82H106v14h79.3v-14zm141.4-18H406v-14h-79.3v14zm0-32H406v-14h-79.3v14zm0 64H406v-14h-79.3v14z" fill="#999"/><path fill="#df7148" d="M106 25h134.5v46H106z"/><path fill="#2e86b7" d="M271.5 25H406v46H271.5z"/></svg>