<svg version="1.1" xmlns="http://www.w3.org/2000/svg" x="0" y="0" viewBox="0 0 512 512" xml:space="preserve"><style type="text/css">.st2{opacity:.15;fill:#444}</style><path d="M256 0C114.6 0 0 114.6 0 256s114.6 256 256 256 256-114.6 256-256S397.4 0 256 0zm0 295c-21.5 0-39-17.5-39-39s17.5-39 39-39 39 17.5 39 39-17.5 39-39 39z" fill="#79b1d1"/><path d="M336.4 280.2l164.8 49.6C489.4 369 468 406 437 437s-68 52.4-107.2 64.2l-49.6-164.8c12.9-3.9 25-10.9 35.2-21 10.2-10.2 17.2-22.3 21-35.2zm-139.8-83.6c10.2-10.2 22.3-17.2 35.2-21L182.2 10.8C143 22.6 106 44 75 75s-52.4 68-64.2 107.2l164.8 49.6c3.8-12.9 10.8-25 21-35.2z" opacity=".5" fill="#fff"/><path class="st2" d="M256 5c33.9 0 66.8 6.6 97.7 19.7 29.9 12.6 56.7 30.7 79.8 53.8 23.1 23.1 41.2 49.9 53.8 79.8 13.1 30.9 19.7 63.8 19.7 97.7s-6.6 66.8-19.7 97.7c-12.6 29.9-30.7 56.7-53.8 79.8-23.1 23.1-49.9 41.2-79.8 53.8-30.9 13.1-63.8 19.7-97.7 19.7s-66.8-6.6-97.7-19.7c-29.9-12.6-56.7-30.7-79.8-53.8-23.1-23.1-41.2-49.9-53.8-79.8C11.6 322.8 5 289.9 5 256s6.6-66.8 19.7-97.7c12.6-29.9 30.7-56.7 53.8-79.8 23.1-23.1 49.9-41.2 79.8-53.8C189.2 11.6 222.1 5 256 5m0-5C114.6 0 0 114.6 0 256s114.6 256 256 256 256-114.6 256-256S397.4 0 256 0z"/><path d="M256 172c-46.4 0-84 37.6-84 84s37.6 84 84 84 84-37.6 84-84-37.6-84-84-84zm0 118c-18.8 0-34-15.2-34-34s15.2-34 34-34 34 15.2 34 34-15.2 34-34 34z" fill="#ddd"/><path class="st2" d="M256 182c40.8 0 74 33.2 74 74s-33.2 74-74 74-74-33.2-74-74 33.2-74 74-74m0-10c-46.4 0-84 37.6-84 84s37.6 84 84 84 84-37.6 84-84-37.6-84-84-84z"/><path d="M256 341.5c-47.1 0-85.5-38.4-85.5-85.5s38.4-85.5 85.5-85.5 85.5 38.4 85.5 85.5-38.4 85.5-85.5 85.5zm0-168c-45.5 0-82.5 37-82.5 82.5s37 82.5 82.5 82.5 82.5-37 82.5-82.5-37-82.5-82.5-82.5z" fill="#36434f"/><path class="st2" d="M222 256c0-18.8 15.2-34 34-34V0c-2 0-3.9 0-5.9.1h-1.2c-1.9.1-3.8.1-5.7.2h-1c-1.7.1-3.5.2-5.2.3-.3 0-.6 0-.9.1-1.9.1-3.7.3-5.6.5-.2 0-.4 0-.6.1-.2 0-.5.1-.7.1-1.8.2-3.7.4-5.5.6-.2 0-.5.1-.7.1-1.7.2-3.3.4-4.9.7-.3 0-.6.1-.9.1-.2 0-.4.1-.6.1-1.7.3-3.5.6-5.2.9l-1.5.3c-1.5.3-2.9.5-4.4.8-.3.1-.6.1-.9.2-.1 0-.2 0-.3.1-1.7.3-3.3.7-5 1.1-.6.1-1.2.3-1.8.4L192.7 8c-.1 0-.3.1-.4.1l-1.2.3c-1.2.3-2.5.7-3.7 1-.6.2-1.3.4-1.9.5-1.5.4-3 .9-4.5 1.3-.7.2-1.4.4-2.1.7-1.1.4-2.2.7-3.3 1.1-.9.3-1.8.6-2.8.9l-3.3 1.2c-.8.3-1.5.6-2.3.8-1.3.5-2.7 1-4 1.5-.8.3-1.6.6-2.4 1-.9.3-1.7.7-2.6 1.1-.9.4-1.7.7-2.6 1.1-1.2.5-2.4 1.1-3.6 1.6-.8.4-1.6.7-2.5 1.1-.8.4-1.6.8-2.4 1.1-1.2.6-2.5 1.2-3.7 1.8-.8.4-1.5.7-2.3 1.1-.8.4-1.7.8-2.5 1.3-1.2.6-2.4 1.3-3.6 1.9-14.8 8-28.8 17.4-41.7 28-1.6 1.3-3.1 2.6-4.7 4-3.1 2.7-6.1 5.4-9.1 8.3s-5.9 5.7-8.7 8.7-5.6 6-8.3 9.1c-1.3 1.5-2.7 3.1-4 4.7-23.5 28.3-41 61.9-50.4 98.7-1.1 4.1-2 8.2-2.9 12.4s-1.6 8.4-2.3 12.6c-.5 3-.8 6-1.2 9.1-.1.7-.2 1.4-.2 2.1-.1.5-.1 1.1-.2 1.6s-.1 1-.1 1.5c-.1.9-.2 1.9-.3 2.8-.1.9-.2 1.8-.2 2.7-.1 1.8-.2 3.5-.3 5.3v.7c0 .5 0 .9-.1 1.4-.1 1.4-.1 2.7-.2 4.1 0 .6 0 1.2-.1 1.9v5.8c0 2 0 3.9.1 5.9 0 .6 0 1.3.1 1.9 0 1.4.1 2.7.2 4.1 0 .7.1 1.4.1 2 .1 1.8.2 3.5.3 5.3.1.9.1 1.8.2 2.7.1.9.2 1.9.3 2.8.1 1.1.2 2.1.3 3.2.1.7.2 1.4.2 2.1.4 3 .7 6.1 1.2 9.1.6 4.2 1.4 8.4 2.3 12.6S7 315.9 8.1 320s2.2 8.1 3.4 12.1c5.6 18 13.2 35.2 22.4 51.3 2.1 3.6 4.2 7.1 6.4 10.6s4.5 6.9 6.9 10.2c3.6 5 7.3 9.9 11.2 14.6 6.5 7.9 13.5 15.4 20.9 22.5 3 2.8 6 5.6 9.1 8.3 4.6 4 9.4 7.9 14.4 11.6 10.1 7.6 20.8 14.4 32 20.4 1.2.6 2.4 1.3 3.6 1.9.8.4 1.6.8 2.5 1.3.8.4 1.5.8 2.3 1.1 1.2.6 2.4 1.2 3.7 1.8.8.4 1.6.8 2.4 1.1.8.4 1.6.7 2.5 1.1 1.2.5 2.4 1.1 3.6 1.6.9.4 1.7.7 2.6 1.1.9.4 1.7.7 2.6 1.1.8.3 1.6.6 2.4 1 1.3.5 2.7 1 4 1.5.8.3 1.5.6 2.3.8l3.3 1.2c.9.3 1.8.6 2.8.9 1.1.4 2.2.7 3.3 1.1.7.2 1.4.4 2.1.7 1.5.5 3 .9 4.5 1.3.6.2 1.3.4 1.9.5 1.2.3 2.5.7 3.7 1l1.2.3c.1 0 .3.1.4.1l4.8 1.2c.6.1 1.2.3 1.8.4 1.7.4 3.3.7 5 1.1.1 0 .2 0 .3.1.3.1.6.1.9.2 1.5.3 2.9.6 4.4.8l1.5.3c1.7.3 3.5.6 5.2.9.2 0 .4.1.6.1.3 0 .6.1.9.1 1.6.2 3.3.5 4.9.7.2 0 .5.1.7.1 1.8.2 3.7.4 5.5.6.2 0 .5.1.7.1.2 0 .4 0 .6.1 1.8.2 3.7.4 5.6.5.3 0 .6 0 .9.1 1.7.1 3.4.2 5.2.3h1c1.9.1 3.8.2 5.7.2h1.2c2 0 3.9.1 5.9.1V290c-18.6 0-33.8-15.2-33.8-34z"/></svg>