<svg version="1.1" xmlns="http://www.w3.org/2000/svg" x="0" y="0" viewBox="0 0 512 512" xml:space="preserve"><style type="text/css">.st1{opacity:.15;fill:#444;enable-background:new}</style><path d="M313 0H102C84.3 0 70 14.3 70 32v448c0 17.7 14.3 32 32 32h308c17.7 0 32-14.3 32-32V129L313 0z" fill="#f4f4f4"/><path class="st1" d="M313 0v97c0 17.7 14.3 32 32 32h97L313 0z"/><path d="M106 233h300v14H106zm0 32h300v14H106zm0 32h300v14H106zm0 32h300v14H106zm0 32h300v14H106zm0 32h300v14H106zm0 32h300v14H106z" fill="#ddd"/><path class="st1" d="M102 0C84.3 0 70 14.3 70 32v448c0 17.7 14.3 32 32 32h154V0H102z"/></svg>