<svg version="1.1" xmlns="http://www.w3.org/2000/svg" x="0" y="0" viewBox="0 0 512 512" xml:space="preserve"><style type="text/css">.st0{fill:#667e8e}</style><path class="st0" d="M0 63.8h512V128H0z"/><path fill="#36434f" d="M0 113.8h512v334.5H0z"/><path class="st0" d="M96 289.3h48v18H96v-18zm144-72h-64v18h64v-18zm-96-54h96v-18h-96v18zm224 90H240v18h128v-18zm0-72H160v18h208v-18zm-240-36H32v18h96v-18zm96 108H96v18h128v-18zm-80-72H64v18h80v-18zm16 126h320v-18H160v18zm64 72h16v-18h-16v18zm32 0h64v-18h-64v18zm128-198v18h16v-18h-16zm-288 54h64v-18H96v18zm32 108h80v-18h-80v18zm-32 72h48v-18H96v18zm32-36h80v-18h-80v18z"/></svg>