<svg version="1.1" xmlns="http://www.w3.org/2000/svg" x="0" y="0" viewBox="0 0 512 512" xml:space="preserve"><style type="text/css">.st0{fill:#36434f}</style><path class="st0" d="M66 116.5c-2.8 0-5 2.3-5 5v224c0 2.8 2.3 5 5 5h380c2.8 0 5-2.3 5-5v-224c0-2.8-2.3-5-5-5H66z"/><circle cx="256" cy="124" r="5" fill="#1c2933"/><path class="st0" d="M455.5 351.6c-2.5-1.1-6.8-2.1-9.5-2.1H66c-2.8 0-7 .9-9.5 2.1l-52 23.8C2 376.6 0 379.8 0 382.5v7c0 2.8 2.3 5 5 5h502c2.8 0 5-2.3 5-5v-7c0-2.8-2-5.9-4.5-7.1l-52-23.8z"/><path d="M420.1 361.8c-.9-.6-2.6-1-3.7-1H95.6c-1.1 0-2.8.5-3.7 1l-18.3 10.8c-.9.6-.8 1 .3 1h364.3c1.1 0 1.2-.5.3-1l-18.4-10.8z" fill="#b24b53"/><path d="M434 327.5c0 2.8-2.3 5-5 5H83c-2.8 0-5-2.3-5-5v-190c0-2.8 2.3-5 5-5h345.9c2.8 0 5 2.3 5 5l.1 190z" fill="#579ec5"/><path fill="#4292be" d="M370.4 132.5l-242.1 200H262l142.9-200z"/><path d="M83 132.5c-2.7 0-5 2.2-5 5v190c0 2.7 2.2 5 5 5h45.3l242.2-200H83z" fill="#2e86b7"/></svg>