<svg xmlns="http://www.w3.org/2000/svg" viewBox="0 0 512 512" xml:space="preserve"><style>.st1{fill:#ddd}.st2{fill:#667e8e}.st7{fill:#ffdd7a}.st8{fill:#eec646}</style><path d="M39.1 0C31.3 26.2 27 57 27 93c0 176.7 102.5 412 229 412S485 269.7 485 93c0-36-4.3-66.8-12.1-93H39.1z" fill="#e9e9e9"/><circle class="st1" cx="256" cy="344" r="168"/><circle class="st2" cx="256" cy="344" r="120"/><circle cx="256" cy="344" r="72" fill="#607786"/><circle cx="256" cy="344" r="33" fill="#36434f"/><path class="st1" d="M480 130H32c-17.7 0-32-14.3-32-32V32C0 14.3 14.3 0 32 0h448c17.7 0 32 14.3 32 32v66c0 17.7-14.3 32-32 32z"/><path d="M18.4 25h6v80h-6zm17.4 0h6v80h-6zm17.3 0h6v80h-6zm17.4 0h6v80h-6zm17.4 0h6v80h-6zm17.4 0h6v80h-6zm17.4 0h6v80h-6zm17.3 0h6v80h-6zm17.4 0h6v80h-6zm17.4 0h6v80h-6zm17.4 0h6v80h-6zm17.4 0h6v80h-6zm17.3 0h6v80h-6zm17.4 0h6v80h-6zm17.4 0h6v80h-6zm17.4 0h6v80h-6zm17.3 0h6v80h-6zm17.4 0h6v80h-6zm17.4 0h6v80h-6zm17.4 0h6v80h-6zm17.4 0h6v80h-6zm17.3 0h6v80h-6zm17.4 0h6v80h-6zm17.4 0h6v80h-6zm17.4 0h6v80h-6zm17.4 0h6v80h-6zm17.3 0h6v80h-6zm17.4 0h6v80h-6z" fill="#444" opacity=".15"/><circle class="st7" cx="256" cy="248" r="14"/><circle class="st8" cx="256" cy="248" r="10"/><circle class="st7" cx="256" cy="440" r="14"/><circle class="st8" cx="256" cy="440" r="10"/><circle class="st7" cx="160" cy="344" r="14"/><circle class="st8" cx="160" cy="344" r="10"/><circle class="st7" cx="352" cy="344" r="14"/><circle class="st8" cx="352" cy="344" r="10"/><circle class="st7" cx="323.9" cy="276.1" r="14"/><circle class="st8" cx="323.9" cy="276.1" r="10"/><circle class="st7" cx="188.1" cy="411.9" r="14"/><circle class="st8" cx="188.1" cy="411.9" r="10"/><circle class="st7" cx="188.1" cy="276.1" r="14"/><circle class="st8" cx="188.1" cy="276.1" r="10"/><circle class="st7" cx="323.9" cy="411.9" r="14"/><circle class="st8" cx="323.9" cy="411.9" r="10"/><path class="st2" d="M256 400c-30.9 0-56-25.1-56-56s25.1-56 56-56 56 25.1 56 56-25.1 56-56 56zm0-108c-28.7 0-52 23.3-52 52s23.3 52 52 52 52-23.3 52-52-23.3-52-52-52z"/></svg>