<svg version="1.1" xmlns="http://www.w3.org/2000/svg" x="0" y="0" viewBox="0 0 512 512" xml:space="preserve"><style type="text/css">.st0{fill:#607786}.st3{fill:#36434f}.st4{fill:#f4f4f4}.st5{fill:#d7d9dc}</style><path class="st0" d="M512 439c0 3.3-2.7 6-6 6H6c-3.3 0-6-2.7-6-6V73c0-3.3 2.7-6 6-6h500c3.3 0 6 2.7 6 6v366z"/><path d="M480 407c0 3.3-2.7 6-6 6H38c-3.3 0-6-2.7-6-6V105c0-3.3 2.7-6 6-6h436c3.3 0 6 2.7 6 6v302z" fill="#f4f4f4"/><path d="M448 375c0 3.3-2.7 6-6 6H70c-3.3 0-6-2.7-6-6V137c0-3.3 2.7-6 6-6h372c3.3 0 6 2.7 6 6v238z" fill="#4fc3f7"/><path class="st0" d="M441.5 381L387 293.2h-23.5l-38.1-2.8-56.2 90.6z"/><path class="st3" d="M340.2 381h101.3L387 293.2h-23.5l2.2 13.5 2.5 14.5c.4 2.2-.8 4.5-2.9 5.4l-25 11.3c-1.9.9-3.1 2.8-2.9 4.9l2.8 38.2z"/><path class="st4" d="M325.4 290.4l37.9 15.4c1.5.6 3.2.5 4.6-.4l19.2-12.1-27.4-44.2c-2-3.2-6.5-3.2-8.5 0l-25.8 41.3z"/><path class="st5" d="M356.1 246.8l9.5 59.3c.8-.1 1.6-.3 2.3-.8l19.2-12.1-27.4-44.2c-.9-1.3-2.2-2-3.6-2.2z"/><path class="st0" d="M290.2 381L225 276h-32.7l-52.9-4-67.6 109z"/><path class="st3" d="M158.7 381h131.5L225 276h-32.6l3 18.8 3.8 21.6c.4 2.2-.8 4.5-2.9 5.4l-37.4 16.9c-1.9.9-3.1 2.8-2.9 4.9l2.7 37.4z"/><path class="st4" d="M139.4 272l53.5 21.7c1.5.6 3.2.5 4.6-.4L225 276l-39.7-64c-2-3.2-6.5-3.2-8.5 0l-37.4 60z"/><path class="st5" d="M181.7 209.7l13.5 84.4c.8-.1 1.6-.3 2.3-.8L225 276l-39.7-64c-.9-1.4-2.2-2.1-3.6-2.3z"/><ellipse cx="124.1" cy="190.2" rx="32.6" ry="32.6" fill="#ffbe27"/><path class="st4" d="M299 242.8c7.8 0 14.1-6.3 14.1-14.1 0-6.1-4-11.6-9.7-13.4-2.1-4.1-6.3-6.7-11-6.7-1.2 0-2.5.2-3.7.5-3.8-4.3-9.3-6.8-15.1-6.8-4.6 0-9.1 1.6-12.7 4.5-3.2 2.6-5.5 6.1-6.7 10-7.1 0-13 5.9-13 13 0 7.2 5.8 13 13 13H299zm113.7-41c7.8 0 14.1-6.3 14.1-14.1 0-6.1-4-11.6-9.7-13.4-2.1-4.1-6.3-6.7-11-6.7-1.2 0-2.5.2-3.7.5-3.8-4.3-9.3-6.8-15.1-6.8-4.6 0-9.1 1.6-12.7 4.5-3.2 2.6-5.5 6.1-6.7 10-7.1 0-13 5.9-13 13 0 7.2 5.8 13 13 13h44.8z"/></svg>