<svg version="1.1" xmlns="http://www.w3.org/2000/svg" x="0" y="0" viewBox="0 0 512 512" xml:space="preserve"><style type="text/css">.st0{fill:#36434f}.st1{fill:#122a3a}.st2{fill:#999}.st3{fill:#ddd}.st4{fill:#bbb}</style><path class="st0" d="M407 512H105l-26-26V26l26-26h302l26 26v460z"/><path class="st1" d="M408.8 295.3l3.7 3.4c6.7 6.1 10.4 14.7 10.4 23.7v85.2c0 17-6.7 33.3-18.7 45.3l-26.5 26.5c-12 12-28.3 18.7-45.3 18.7h-153c-17 0-33.3-6.7-45.3-18.7l-26.5-26.5c-12-12-18.7-28.3-18.7-45.3v-85.2c0-9 3.8-17.6 10.4-23.7l3.7-3.4c10.6-9.6 13.5-25.1 7.1-37.9l-8-16.1C93.6 223.7 89 204.2 89 184.5v-80c0-17 6.7-33.3 18.7-45.3l26.5-26.5c12-12 28.3-18.7 45.3-18.7h153c17 0 33.3 6.7 45.3 18.7l26.5 26.5c12 12 18.7 28.3 18.7 45.3v80c0 19.7-4.6 39.2-13.3 56.9l-8 16.1c-6.3 12.7-3.4 28.1 7.1 37.8zM120 18.4L97.4 41c-.8.8-.8 2 0 2.8.8.8 2 .8 2.8 0l22.6-22.6c.8-.8.8-2 0-2.8-.7-.8-2-.8-2.8 0z"/><path class="st0" d="M94.1 15.1l-5.7 5.7-5.5-9.2c-.5-.9-.7-2-.5-3l.4-1.7c.4-1.4 1.5-2.6 2.9-2.9l1.7-.4c1-.3 2.1-.1 3 .5l9.2 5.5-5.5 5.5z"/><path class="st2" d="M104.5 14.8c-2.9-2.9-7.7-2.9-10.6 0s-2.9 7.7 0 10.6c2.9 2.9 7.7 2.9 10.6 0s2.9-7.6 0-10.6z"/><path class="st1" d="M392 18.4L414.6 41c.8.8.8 2 0 2.8-.8.8-2 .8-2.8 0l-22.6-22.6c-.8-.8-.8-2 0-2.8.7-.8 2-.8 2.8 0z"/><path class="st0" d="M417.9 15.1l5.7 5.7 5.5-9.2c.5-.9.7-2 .5-3l-.4-1.7c-.4-1.4-1.5-2.6-2.9-2.9l-1.7-.4c-1-.3-2.1-.1-3 .5l-9.2 5.5 5.5 5.5z"/><path class="st2" d="M407.5 25.5c2.9 2.9 7.7 2.9 10.6 0 2.9-2.9 2.9-7.7 0-10.6s-7.7-2.9-10.6 0c-2.9 2.9-2.9 7.6 0 10.6z"/><path class="st1" d="M120 493.6L97.4 471c-.8-.8-.8-2 0-2.8.8-.8 2-.8 2.8 0l22.6 22.6c.8.8.8 2 0 2.8-.7.8-2 .8-2.8 0z"/><path class="st0" d="M94.1 496.9l-5.7-5.7-5.5 9.2c-.5.9-.7 2-.5 3l.4 1.7c.4 1.4 1.5 2.6 2.9 2.9l1.7.4c1 .3 2.1.1 3-.5l9.2-5.5-5.5-5.5z"/><path class="st2" d="M104.5 486.5c-2.9-2.9-7.7-2.9-10.6 0-2.9 2.9-2.9 7.7 0 10.6 2.9 2.9 7.7 2.9 10.6 0 2.9-2.9 2.9-7.6 0-10.6z"/><path class="st1" d="M392 493.6l22.6-22.6c.8-.8.8-2 0-2.8-.8-.8-2-.8-2.8 0l-22.6 22.6c-.8.8-.8 2 0 2.8.7.8 2 .8 2.8 0z"/><path class="st0" d="M417.9 496.9l5.7-5.7 5.5 9.2c.5.9.7 2 .5 3l-.4 1.7c-.4 1.4-1.5 2.6-2.9 2.9l-1.7.4c-1 .3-2.1.1-3-.5l-9.2-5.5 5.5-5.5z"/><path class="st2" d="M407.5 497.2c2.9 2.9 7.7 2.9 10.6 0 2.9-2.9 2.9-7.7 0-10.6-2.9-2.9-7.7-2.9-10.6 0-2.9 2.9-2.9 7.6 0 10.6z"/><path class="st0" d="M84.1 273v-8l-10.4 2.6c-1 .3-1.9.9-2.5 1.8l-.9 1.5c-.8 1.3-.8 2.8 0 4.1l.9 1.5c.5.9 1.4 1.6 2.5 1.8l10.4 2.6V273z"/><path class="st2" d="M98.8 273c0-4.1-3.4-7.5-7.5-7.5s-7.5 3.4-7.5 7.5 3.4 7.5 7.5 7.5 7.5-3.4 7.5-7.5z"/><path class="st0" d="M427.9 273v-8l10.4 2.6c1 .3 1.9.9 2.5 1.8l.9 1.5c.8 1.3.8 2.8 0 4.1l-.9 1.5c-.5.9-1.4 1.6-2.5 1.8l-10.4 2.6V273z"/><path class="st2" d="M420.8 280.5c4.1 0 7.5-3.4 7.5-7.5s-3.4-7.5-7.5-7.5-7.5 3.4-7.5 7.5 3.3 7.5 7.5 7.5z"/><circle class="st3" cx="256" cy="178.5" r="162.5"/><circle class="st4" cx="256" cy="178.5" r="54.5"/><circle class="st3" cx="256" cy="178.5" r="22.5"/><circle class="st4" cx="256" cy="178.5" r="8"/><circle class="st0" cx="256" cy="178.5" r="3.5"/><circle class="st3" cx="238" cy="147.3" r="8"/><circle class="st0" cx="238" cy="147.3" r="3"/><circle class="st3" cx="274" cy="209.7" r="8"/><circle class="st0" cx="274" cy="209.7" r="3"/><circle class="st3" cx="220" cy="178.5" r="8"/><circle class="st0" cx="220" cy="178.5" r="3"/><circle class="st3" cx="292" cy="178.5" r="8"/><circle class="st0" cx="292" cy="178.5" r="3"/><circle class="st3" cx="274" cy="147.3" r="8"/><circle class="st0" cx="274" cy="147.3" r="3"/><circle class="st3" cx="238" cy="209.7" r="8"/><circle class="st0" cx="238" cy="209.7" r="3"/><circle class="st0" cx="256" cy="142.5" r="4"/><circle class="st0" cx="256" cy="214.5" r="4"/><circle class="st0" cx="224.8" cy="160.5" r="4"/><circle class="st0" cx="287.2" cy="196.5" r="4"/><circle class="st0" cx="287.2" cy="160.5" r="4"/><circle class="st0" cx="224.8" cy="196.5" r="4"/><path class="st4" d="M375 314l-226 24 27 74s195-85 199-86 0-12 0-12zm-114.4 36.2l-.8 2.4c-.5 1.6-1.7 2.8-3.1 3.5l-8.6 4c-3.3 1.5-7.1-.1-8.2-3.5l-1.7-5.2c-1.1-3.4.9-7 4.5-7.8l9.8-2.1c1.6-.3 3.4 0 4.7 1l1.2.9c2.1 1.6 3 4.3 2.2 6.8z"/><circle class="st2" cx="204" cy="363" r="20"/><circle class="st0" cx="204" cy="363" r="5"/><path class="st3" d="M105 297c-1.7 0-3 1.4-3 3v76c0 1.6.7 4.2 1.5 5.6l2.9 4.9c.8 1.4 1.5 3.9 1.5 5.6v15c0 1.6 1.3 3 3 3h2c1.7 0 4 1 5.1 2.1l8.8 8.8c1.2 1.2 2.1 3.5 2.1 5.1v1c0 1.6-1 4-2.1 5.1l-12.3 12.3c-1.2 1.2-1.2 3.1 0 4.2l7.3 7.3c1.2 1.2 3.1 1.2 4.2 0l3.3-3.3c1.2-1.2 3.1-1.2 4.2 0l8.3 8.3c1.2 1.2 2.1 3.5 2.1 5.1v15c0 1.6.9 3.9 2 5s3.4 2 5 2h5c1.6 0 4-1 5.1-2.1l3.8-3.8c1.2-1.2 2.1-3.5 2.1-5.1v-13c0-1.6 1-4 2.1-5.1l3.8-3.8c1.2-1.2 2.9-1.3 3.9-.4s3.1 1.8 4.8 1.8h2.5c1.6 0 4 1 5.1 2.1l3 3c1.2 1.2 3.5 2.1 5.1 2.1H249c1.6 0 4-1 5.1-2.1l2.6-2.6c1.2-1.2 2.1-3.5 2.1-5.1v-6c0-1.6-1.3-3.5-2.8-4.1l-29.3-11.8c-1.5-.6-3.5-2.3-4.4-3.6l-18.7-29c-.9-1.4-2.9-2.9-4.5-3.3l-9.2-2.5c-1.6-.4-3.7-1.9-4.6-3.2l-14.6-21.1c-.9-1.4-1.7-3.8-1.7-5.5v-18c0-1.6-1-4-2.1-5.1L132.1 306c-1.2-1.2-2.3-3.5-2.5-5.1l-.2-1.1c-.2-1.6-1.8-3-3.4-3h-21z"/><path class="st2" d="M401.3 297.5c-1.3-1-3.7-1.6-5.4-1.3l-11.4 1.8c-1.6.3-3.5-.8-4.2-2.3l-4.7-10.5c-.7-1.5-2.5-2.2-4-1.5l-6.4 2.8c-1.5.7-2.2 2.5-1.5 4l8.3 18.6c.7 1.5 1.5 4.1 1.9 5.7l2.2 9.6c.4 1.6 1.4 4 2.4 5.4l2.9 4.3c.9 1.4 3 2.2 4.6 1.8l18.1-3.9c1.6-.3 2.9-2 2.8-3.6l-1.4-25c-.1-1.6-1.3-3.8-2.6-4.8l-1.6-1.1z"/><path class="st3" d="M371.8 388.3c1.6-.6 2.5-1.9 2.1-2.9-.4-1-2-1.4-3.5-.9l-83.6 30.4c-1.6.6-2.5 1.9-2.1 2.9s2 1.4 3.5.9c1.6-.6 3.1-.2 3.5.9s-.6 2.3-2.1 2.9c-1.6.6-2.4 2.3-1.8 3.8l8.6 23.5c.6 1.6 2.3 3.3 3.8 4l10.8 4.5c1.5.6 4 .7 5.6.1l59.2-21.5c1.6-.6 3.4-2.2 4.2-3.7l5.4-10.4c.8-1.5.9-3.9.3-5.5l-8.6-23.5c-.6-1.6-2.3-2.4-3.8-1.8s-3.1.2-3.5-.9.4-2.3 2-2.8zm-6.9 4.6c.4 1-.6 2.3-2.1 2.9l-63 22.9c-1.6.6-3.1.2-3.5-.9s.6-2.3 2.1-2.9l63-22.9c1.6-.5 3.1-.2 3.5.9z"/><path class="st4" d="M379.2 411.6c1 2.9-.4 6-3.3 7s-6-.4-7-3.3.4-6 3.3-7 6 .5 7 3.3zM301.7 434c-2.9 1-4.3 4.2-3.3 7 1 2.9 4.2 4.3 7 3.3 2.9-1 4.3-4.2 3.3-7s-4.2-4.4-7-3.3z"/></svg>