<svg version="1.1" xmlns="http://www.w3.org/2000/svg" x="0" y="0" viewBox="0 0 512 512" xml:space="preserve"><style type="text/css">.st3{fill:#122a3a}</style><path d="M345 512H167l-16-16V16l16-16h178l16 16v480l-16 16z" fill="#36434f"/><path d="M292.3 151c1.7 0 3 1.3 3 3s-1.3 3-3 3-3-1.3-3-3 1.3-3 3-3m0-3c-3.3 0-6 2.7-6 6s2.7 6 6 6 6-2.7 6-6-2.7-6-6-6z" fill="#cc584c"/><path d="M292.3 170c1.7 0 3 1.3 3 3s-1.3 3-3 3-3-1.3-3-3 1.3-3 3-3m0-3c-3.3 0-6 2.7-6 6s2.7 6 6 6 6-2.7 6-6-2.7-6-6-6z" fill="#4caf50"/><path class="st3" d="M256.8 145h20v9h-20zm0 14h20v9h-20zm51-14h20v9h-20zm0 14h20v9h-20zM206.3 341h-16c-3.9 0-7-3.1-7-7V143c0-3.9 3.1-7 7-7h16c3.9 0 7 3.1 7 7v191c0 3.9-3.2 7-7 7zm-16-203c-2.8 0-5 2.2-5 5v191c0 2.8 2.2 5 5 5h16c2.8 0 5-2.2 5-5V143c0-2.8-2.2-5-5-5h-16zm37.5 26c-1.7 0-3-1.3-3-3v-16c0-1.7 1.3-3 3-3s3 1.3 3 3v16c0 1.7-1.4 3-3 3z"/><circle class="st3" cx="217.3" cy="162" r="2"/><path d="M228.3 203c-1.1 0-2-.9-2-2v-7c0-1.1.9-2 2-2s2 .9 2 2v7c0 1.1-.9 2-2 2z" fill="#eec646"/><path class="st3" d="M242 117h2v238h-2zm82 79h2v155h-2z"/><path class="st3" d="M243 196h82v2h-82z"/><path class="st3" d="M283 197h2v151h-2z"/><path d="M179.5 388h153v14h-153zm0 20h153v14h-153zm0 20h153v14h-153zm0 20h153v14h-153zm0 20h153v14h-153zm0 20h153v14h-153zm0-120h153v14h-153zm0-20h153v14h-153zm0-338h153v14h-153zm0 20h153v14h-153zm0 20h153v14h-153zm0 20h153v14h-153zm0 20h153v14h-153zm0 20h153v14h-153z" fill="#999"/><path d="M203.3 169h-10c-1.1 0-2-.9-2-2v-21c0-1.1.9-2 2-2h10c1.1 0 2 .9 2 2v21c0 1.1-.9 2-2 2zm0 94h-10c-1.1 0-2-.9-2-2v-45c0-1.1.9-2 2-2h10c1.1 0 2 .9 2 2v45c0 1.1-.9 2-2 2zm0 70h-10c-1.1 0-2-.9-2-2v-14c0-1.1.9-2 2-2h10c1.1 0 2 .9 2 2v14c0 1.1-.9 2-2 2z" opacity=".5" fill="#999"/><path d="M167 0l-16 16v480l16 16h89V0h-89z" opacity=".15" fill="#444"/></svg>