<svg version="1.1" xmlns="http://www.w3.org/2000/svg" x="0" y="0" viewBox="0 0 512 512" xml:space="preserve"><path d="M417.9 261H441c1.7 0 3-1.3 3-3v-49l-48.2-48V32c0-17.7-14.4-32-32.1-32H100.2C82.4 0 68 14.3 68 32v448c0 17.7 14.4 32 32.2 32h311.7c17.7 0 32.1-14.3 32.1-32V341l-29.1-29v-48c0-1.7 1.3-3 3-3z" fill="#36434f"/><path d="M444 463.9C392.7 449.6 327.3 441 256 441s-136.7 8.6-188 22.9V480c0 17.7 14.3 32 32 32h312c17.7 0 32-14.3 32-32v-16.1z" fill="#667e8e"/><path d="M219 0H100C82.3 0 68 14.3 68 32v448c0 17.7 14.3 32 32 32h156V0h-37z" opacity=".15" fill="#444"/></svg>