<svg version="1.1" xmlns="http://www.w3.org/2000/svg" x="0" y="0" viewBox="0 0 512 512" xml:space="preserve"><style type="text/css">.st0{fill:#36434f}.st1{fill:#999}.st2{fill:#122a3a}.st3{fill:#cc584c}.st4{fill:#4caf50}.st5{fill:#eec646}</style><path class="st0" d="M408 512H104c-4.4 0-8-3.6-8-8V8c0-4.4 3.6-8 8-8h304c4.4 0 8 3.6 8 8v496c0 4.4-3.6 8-8 8z"/><path class="st1" d="M141 116h230v24H141z"/><path class="st0" d="M173.5 124h1v3h-5v-3h1l1-2h1l1 2zm6-2h-1l-1 2h-1v3h5v-3h-1l-1-2zm7 0h-1l-1 2h-1v3h5v-3h-1l-1-2zm7 0h-1l-1 2h-1v3h5v-3h-1l-1-2zm7 0h-1l-1 2h-1v3h5v-3h-1l-1-2zm7 0h-1l-1 2h-1v3h5v-3h-1l-1-2zm7 0h-1l-1 2h-1v3h5v-3h-1l-1-2zm7 0h-1l-1 2h-1v3h5v-3h-1l-1-2zm7 0h-1l-1 2h-1v3h5v-3h-1l-1-2zm7 0h-1l-1 2h-1v3h5v-3h-1l-1-2zm7 0h-1l-1 2h-1v3h5v-3h-1l-1-2zm7 0h-1l-1 2h-1v3h5v-3h-1l-1-2zm7 0h-1l-1 2h-1v3h5v-3h-1l-1-2zm7 0h-1l-1 2h-1v3h5v-3h-1l-1-2zm7 0h-1l-1 2h-1v3h5v-3h-1l-1-2zm7 0h-1l-1 2h-1v3h5v-3h-1l-1-2zm7 0h-1l-1 2h-1v3h5v-3h-1l-1-2zm7 0h-1l-1 2h-1v3h5v-3h-1l-1-2zm7 0h-1l-1 2h-1v3h5v-3h-1l-1-2zm7 0h-1l-1 2h-1v3h5v-3h-1l-1-2zm7 0h-1l-1 2h-1v3h5v-3h-1l-1-2zm7 0h-1l-1 2h-1v3h5v-3h-1l-1-2zm7 0h-1l-1 2h-1v3h5v-3h-1l-1-2zm7 0h-1l-1 2h-1v3h5v-3h-1l-1-2zm8 2-1-2h-1l-1 2h-1v3h5v-3h-1zm-169 11h-1l-1-2h-1v-3h5v3h-1l-1 2zm8-2h1v-3h-5v3h1l1 2h1l1-2zm7 0h1v-3h-5v3h1l1 2h1l1-2zm7 0h1v-3h-5v3h1l1 2h1l1-2zm7 0h1v-3h-5v3h1l1 2h1l1-2zm7 0h1v-3h-5v3h1l1 2h1l1-2zm7 0h1v-3h-5v3h1l1 2h1l1-2zm7 0h1v-3h-5v3h1l1 2h1l1-2zm7 0h1v-3h-5v3h1l1 2h1l1-2zm7 0h1v-3h-5v3h1l1 2h1l1-2zm7 0h1v-3h-5v3h1l1 2h1l1-2zm7 0h1v-3h-5v3h1l1 2h1l1-2zm7 0h1v-3h-5v3h1l1 2h1l1-2zm7 0h1v-3h-5v3h1l1 2h1l1-2zm7 0h1v-3h-5v3h1l1 2h1l1-2zm7 0h1v-3h-5v3h1l1 2h1l1-2zm7 0h1v-3h-5v3h1l1 2h1l1-2zm7 0h1v-3h-5v3h1l1 2h1l1-2zm7 0h1v-3h-5v3h1l1 2h1l1-2zm7 0h1v-3h-5v3h1l1 2h1l1-2zm7 0h1v-3h-5v3h1l1 2h1l1-2zm7 0h1v-3h-5v3h1l1 2h1l1-2zm7 0h1v-3h-5v3h1l1 2h1l1-2zm7 0h1v-3h-5v3h1l1 2h1l1-2zm8 0v-3h-5v3h1l1 2h1l1-2h1z"/><circle class="st0" cx="150" cy="120.5" r="2.5"/><circle class="st0" cx="150" cy="135.5" r="2.5"/><circle class="st0" cx="362" cy="120.5" r="2.5"/><circle class="st0" cx="362" cy="135.5" r="2.5"/><path class="st1" d="M141 146h230v24H141z"/><path class="st0" d="M173.5 154h1v3h-5v-3h1l1-2h1l1 2zm6-2h-1l-1 2h-1v3h5v-3h-1l-1-2zm7 0h-1l-1 2h-1v3h5v-3h-1l-1-2zm7 0h-1l-1 2h-1v3h5v-3h-1l-1-2zm7 0h-1l-1 2h-1v3h5v-3h-1l-1-2zm7 0h-1l-1 2h-1v3h5v-3h-1l-1-2zm7 0h-1l-1 2h-1v3h5v-3h-1l-1-2zm7 0h-1l-1 2h-1v3h5v-3h-1l-1-2zm7 0h-1l-1 2h-1v3h5v-3h-1l-1-2zm7 0h-1l-1 2h-1v3h5v-3h-1l-1-2zm7 0h-1l-1 2h-1v3h5v-3h-1l-1-2zm7 0h-1l-1 2h-1v3h5v-3h-1l-1-2zm7 0h-1l-1 2h-1v3h5v-3h-1l-1-2zm7 0h-1l-1 2h-1v3h5v-3h-1l-1-2zm7 0h-1l-1 2h-1v3h5v-3h-1l-1-2zm7 0h-1l-1 2h-1v3h5v-3h-1l-1-2zm7 0h-1l-1 2h-1v3h5v-3h-1l-1-2zm7 0h-1l-1 2h-1v3h5v-3h-1l-1-2zm7 0h-1l-1 2h-1v3h5v-3h-1l-1-2zm7 0h-1l-1 2h-1v3h5v-3h-1l-1-2zm7 0h-1l-1 2h-1v3h5v-3h-1l-1-2zm7 0h-1l-1 2h-1v3h5v-3h-1l-1-2zm7 0h-1l-1 2h-1v3h5v-3h-1l-1-2zm7 0h-1l-1 2h-1v3h5v-3h-1l-1-2zm8 2-1-2h-1l-1 2h-1v3h5v-3h-1zm-169 11h-1l-1-2h-1v-3h5v3h-1l-1 2zm8-2h1v-3h-5v3h1l1 2h1l1-2zm7 0h1v-3h-5v3h1l1 2h1l1-2zm7 0h1v-3h-5v3h1l1 2h1l1-2zm7 0h1v-3h-5v3h1l1 2h1l1-2zm7 0h1v-3h-5v3h1l1 2h1l1-2zm7 0h1v-3h-5v3h1l1 2h1l1-2zm7 0h1v-3h-5v3h1l1 2h1l1-2zm7 0h1v-3h-5v3h1l1 2h1l1-2zm7 0h1v-3h-5v3h1l1 2h1l1-2zm7 0h1v-3h-5v3h1l1 2h1l1-2zm7 0h1v-3h-5v3h1l1 2h1l1-2zm7 0h1v-3h-5v3h1l1 2h1l1-2zm7 0h1v-3h-5v3h1l1 2h1l1-2zm7 0h1v-3h-5v3h1l1 2h1l1-2zm7 0h1v-3h-5v3h1l1 2h1l1-2zm7 0h1v-3h-5v3h1l1 2h1l1-2zm7 0h1v-3h-5v3h1l1 2h1l1-2zm7 0h1v-3h-5v3h1l1 2h1l1-2zm7 0h1v-3h-5v3h1l1 2h1l1-2zm7 0h1v-3h-5v3h1l1 2h1l1-2zm7 0h1v-3h-5v3h1l1 2h1l1-2zm7 0h1v-3h-5v3h1l1 2h1l1-2zm7 0h1v-3h-5v3h1l1 2h1l1-2zm8 0v-3h-5v3h1l1 2h1l1-2h1z"/><circle class="st0" cx="150" cy="150.5" r="2.5"/><circle class="st0" cx="150" cy="165.5" r="2.5"/><circle class="st0" cx="362" cy="150.5" r="2.5"/><circle class="st0" cx="362" cy="165.5" r="2.5"/><path class="st1" d="M141 176h230v24H141z"/><path class="st0" d="M173.5 184h1v3h-5v-3h1l1-2h1l1 2zm6-2h-1l-1 2h-1v3h5v-3h-1l-1-2zm7 0h-1l-1 2h-1v3h5v-3h-1l-1-2zm7 0h-1l-1 2h-1v3h5v-3h-1l-1-2zm7 0h-1l-1 2h-1v3h5v-3h-1l-1-2zm7 0h-1l-1 2h-1v3h5v-3h-1l-1-2zm7 0h-1l-1 2h-1v3h5v-3h-1l-1-2zm7 0h-1l-1 2h-1v3h5v-3h-1l-1-2zm7 0h-1l-1 2h-1v3h5v-3h-1l-1-2zm7 0h-1l-1 2h-1v3h5v-3h-1l-1-2zm7 0h-1l-1 2h-1v3h5v-3h-1l-1-2zm7 0h-1l-1 2h-1v3h5v-3h-1l-1-2zm7 0h-1l-1 2h-1v3h5v-3h-1l-1-2zm7 0h-1l-1 2h-1v3h5v-3h-1l-1-2zm7 0h-1l-1 2h-1v3h5v-3h-1l-1-2zm7 0h-1l-1 2h-1v3h5v-3h-1l-1-2zm7 0h-1l-1 2h-1v3h5v-3h-1l-1-2zm7 0h-1l-1 2h-1v3h5v-3h-1l-1-2zm7 0h-1l-1 2h-1v3h5v-3h-1l-1-2zm7 0h-1l-1 2h-1v3h5v-3h-1l-1-2zm7 0h-1l-1 2h-1v3h5v-3h-1l-1-2zm7 0h-1l-1 2h-1v3h5v-3h-1l-1-2zm7 0h-1l-1 2h-1v3h5v-3h-1l-1-2zm7 0h-1l-1 2h-1v3h5v-3h-1l-1-2zm8 2-1-2h-1l-1 2h-1v3h5v-3h-1zm-169 11h-1l-1-2h-1v-3h5v3h-1l-1 2zm8-2h1v-3h-5v3h1l1 2h1l1-2zm7 0h1v-3h-5v3h1l1 2h1l1-2zm7 0h1v-3h-5v3h1l1 2h1l1-2zm7 0h1v-3h-5v3h1l1 2h1l1-2zm7 0h1v-3h-5v3h1l1 2h1l1-2zm7 0h1v-3h-5v3h1l1 2h1l1-2zm7 0h1v-3h-5v3h1l1 2h1l1-2zm7 0h1v-3h-5v3h1l1 2h1l1-2zm7 0h1v-3h-5v3h1l1 2h1l1-2zm7 0h1v-3h-5v3h1l1 2h1l1-2zm7 0h1v-3h-5v3h1l1 2h1l1-2zm7 0h1v-3h-5v3h1l1 2h1l1-2zm7 0h1v-3h-5v3h1l1 2h1l1-2zm7 0h1v-3h-5v3h1l1 2h1l1-2zm7 0h1v-3h-5v3h1l1 2h1l1-2zm7 0h1v-3h-5v3h1l1 2h1l1-2zm7 0h1v-3h-5v3h1l1 2h1l1-2zm7 0h1v-3h-5v3h1l1 2h1l1-2zm7 0h1v-3h-5v3h1l1 2h1l1-2zm7 0h1v-3h-5v3h1l1 2h1l1-2zm7 0h1v-3h-5v3h1l1 2h1l1-2zm7 0h1v-3h-5v3h1l1 2h1l1-2zm7 0h1v-3h-5v3h1l1 2h1l1-2zm8 0v-3h-5v3h1l1 2h1l1-2h1z"/><circle class="st0" cx="150" cy="180.5" r="2.5"/><circle class="st0" cx="150" cy="195.5" r="2.5"/><circle class="st0" cx="362" cy="180.5" r="2.5"/><circle class="st0" cx="362" cy="195.5" r="2.5"/><path class="st2" d="M141 356h230v36H141z"/><circle class="st0" cx="150" cy="360.5" r="2.5"/><circle class="st0" cx="150" cy="387.5" r="2.5"/><circle class="st0" cx="362" cy="360.5" r="2.5"/><circle class="st0" cx="362" cy="387.5" r="2.5"/><path class="st3" d="M159.5 371h193v8h-193z"/><path class="st1" d="M322 386h-16c-2.2 0-4-1.8-4-4v-16c0-2.2 1.8-4 4-4h16c2.2 0 4 1.8 4 4v16c0 2.2-1.8 4-4 4z"/><path class="st2" d="M141 398h230v36H141z"/><circle class="st0" cx="150" cy="402.5" r="2.5"/><circle class="st0" cx="150" cy="429.5" r="2.5"/><circle class="st0" cx="362" cy="402.5" r="2.5"/><circle class="st0" cx="362" cy="429.5" r="2.5"/><path class="st3" d="M159.5 413h193v8h-193z"/><path class="st1" d="M322 428h-16c-2.2 0-4-1.8-4-4v-16c0-2.2 1.8-4 4-4h16c2.2 0 4 1.8 4 4v16c0 2.2-1.8 4-4 4z"/><path class="st2" d="M141 440h230v36H141z"/><circle class="st0" cx="150" cy="444.5" r="2.5"/><circle class="st0" cx="150" cy="471.5" r="2.5"/><circle class="st0" cx="362" cy="444.5" r="2.5"/><circle class="st0" cx="362" cy="471.5" r="2.5"/><path class="st3" d="M159.5 455h193v8h-193z"/><path class="st1" d="M322 470h-16c-2.2 0-4-1.8-4-4v-16c0-2.2 1.8-4 4-4h16c2.2 0 4 1.8 4 4v16c0 2.2-1.8 4-4 4z"/><path class="st2" d="M141 256h230v24H141z"/><circle class="st0" cx="150" cy="260.5" r="2.5"/><circle class="st0" cx="150" cy="275.5" r="2.5"/><circle class="st0" cx="362" cy="260.5" r="2.5"/><circle class="st0" cx="362" cy="275.5" r="2.5"/><circle class="st3" cx="175.5" cy="268" r="5.5"/><circle class="st4" cx="191.5" cy="268" r="5.5"/><circle class="st5" cx="230.5" cy="268" r="5.5"/><circle class="st5" cx="246.5" cy="268" r="5.5"/><path class="st2" d="M141 286h230v24H141z"/><circle class="st0" cx="150" cy="290.5" r="2.5"/><circle class="st0" cx="150" cy="305.5" r="2.5"/><circle class="st0" cx="362" cy="290.5" r="2.5"/><circle class="st0" cx="362" cy="305.5" r="2.5"/><circle class="st3" cx="175.5" cy="298" r="5.5"/><circle class="st4" cx="191.5" cy="298" r="5.5"/><circle class="st5" cx="230.5" cy="298" r="5.5"/><circle class="st5" cx="246.5" cy="298" r="5.5"/><path class="st2" d="M141 316h230v24H141z"/><circle class="st0" cx="150" cy="320.5" r="2.5"/><circle class="st0" cx="150" cy="335.5" r="2.5"/><circle class="st0" cx="362" cy="320.5" r="2.5"/><circle class="st0" cx="362" cy="335.5" r="2.5"/><circle class="st1" cx="175.5" cy="328" r="5.5"/><circle class="st1" cx="191.5" cy="328" r="5.5"/><circle class="st1" cx="230.5" cy="328" r="5.5"/><circle class="st1" cx="246.5" cy="328" r="5.5"/><path class="st2" d="M141 76h230v24H141z"/><circle class="st0" cx="150" cy="80.5" r="2.5"/><circle class="st0" cx="150" cy="95.5" r="2.5"/><circle class="st0" cx="362" cy="80.5" r="2.5"/><circle class="st0" cx="362" cy="95.5" r="2.5"/><path class="st1" d="M208.8 82.3c-1.5-1.5-3.5-2.3-5.7-2.3s-4.1.8-5.7 2.3c-1.5 1.5-2.3 3.5-2.3 5.7s.8 4.1 2.3 5.7c1.5 1.5 3.5 2.3 5.7 2.3s4.1-.8 5.7-2.3 2.3-3.5 2.3-5.7-.8-4.1-2.3-5.7z"/><path class="st2" d="M201.4 86.3c-.4.4-1.1.4-1.5 0-.4-.4-.4-1.1 0-1.5.4-.4 1.1-.4 1.5 0 .4.4.4 1.1 0 1.5zm4.9 3.4c-.4-.4-1.1-.4-1.5 0s-.4 1.1 0 1.5 1.1.4 1.5 0c.4-.4.4-1.1 0-1.5z"/><path class="st1" d="M228.8 82.3c-1.5-1.5-3.5-2.3-5.7-2.3s-4.1.8-5.7 2.3c-1.5 1.5-2.3 3.5-2.3 5.7s.8 4.1 2.3 5.7c1.5 1.5 3.5 2.3 5.7 2.3s4.1-.8 5.7-2.3 2.3-3.5 2.3-5.7-.8-4.1-2.3-5.7z"/><path class="st2" d="M221.4 86.3c-.4.4-1.1.4-1.5 0-.4-.4-.4-1.1 0-1.5.4-.4 1.1-.4 1.5 0 .4.4.4 1.1 0 1.5zm4.9 3.4c-.4-.4-1.1-.4-1.5 0s-.4 1.1 0 1.5 1.1.4 1.5 0c.4-.4.4-1.1 0-1.5z"/><path class="st1" d="M248.8 82.3c-1.5-1.5-3.5-2.3-5.7-2.3s-4.1.8-5.7 2.3c-1.5 1.5-2.3 3.5-2.3 5.7s.8 4.1 2.3 5.7c1.5 1.5 3.5 2.3 5.7 2.3s4.1-.8 5.7-2.3 2.3-3.5 2.3-5.7-.8-4.1-2.3-5.7z"/><path class="st2" d="M241.4 86.3c-.4.4-1.1.4-1.5 0-.4-.4-.4-1.1 0-1.5.4-.4 1.1-.4 1.5 0 .4.4.4 1.1 0 1.5zm4.9 3.4c-.4-.4-1.1-.4-1.5 0s-.4 1.1 0 1.5 1.1.4 1.5 0c.4-.4.4-1.1 0-1.5z"/><path class="st1" d="M268.8 82.3c-1.5-1.5-3.5-2.3-5.7-2.3s-4.1.8-5.7 2.3c-1.5 1.5-2.3 3.5-2.3 5.7s.8 4.1 2.3 5.7c1.5 1.5 3.5 2.3 5.7 2.3s4.1-.8 5.7-2.3c1.5-1.5 2.3-3.5 2.3-5.7s-.8-4.1-2.3-5.7z"/><path class="st2" d="M261.4 86.3c-.4.4-1.1.4-1.5 0-.4-.4-.4-1.1 0-1.5.4-.4 1.1-.4 1.5 0 .4.4.4 1.1 0 1.5zm4.9 3.4c-.4-.4-1.1-.4-1.5 0s-.4 1.1 0 1.5 1.1.4 1.5 0 .4-1.1 0-1.5z"/><path class="st1" d="M288.8 82.3c-1.5-1.5-3.5-2.3-5.7-2.3s-4.1.8-5.7 2.3c-1.5 1.5-2.3 3.5-2.3 5.7s.8 4.1 2.3 5.7c1.5 1.5 3.5 2.3 5.7 2.3s4.1-.8 5.7-2.3c1.5-1.5 2.3-3.5 2.3-5.7s-.8-4.1-2.3-5.7z"/><path class="st2" d="M281.4 86.3c-.4.4-1.1.4-1.5 0-.4-.4-.4-1.1 0-1.5.4-.4 1.1-.4 1.5 0 .4.4.4 1.1 0 1.5zm4.9 3.4c-.4-.4-1.1-.4-1.5 0s-.4 1.1 0 1.5 1.1.4 1.5 0 .4-1.1 0-1.5z"/><path class="st1" d="M308.8 82.3c-1.5-1.5-3.5-2.3-5.7-2.3s-4.1.8-5.7 2.3c-1.5 1.5-2.3 3.5-2.3 5.7s.8 4.1 2.3 5.7c1.5 1.5 3.5 2.3 5.7 2.3s4.1-.8 5.7-2.3c1.5-1.5 2.3-3.5 2.3-5.7s-.8-4.1-2.3-5.7z"/><path class="st2" d="M301.4 86.3c-.4.4-1.1.4-1.5 0-.4-.4-.4-1.1 0-1.5.4-.4 1.1-.4 1.5 0 .4.4.4 1.1 0 1.5zm4.9 3.4c-.4-.4-1.1-.4-1.5 0s-.4 1.1 0 1.5 1.1.4 1.5 0 .4-1.1 0-1.5z"/><path class="st1" d="M328.8 82.3c-1.5-1.5-3.5-2.3-5.7-2.3s-4.1.8-5.7 2.3c-1.5 1.5-2.3 3.5-2.3 5.7s.8 4.1 2.3 5.7c1.5 1.5 3.5 2.3 5.7 2.3s4.1-.8 5.7-2.3c1.5-1.5 2.3-3.5 2.3-5.7s-.8-4.1-2.3-5.7z"/><path class="st2" d="M321.4 86.3c-.4.4-1.1.4-1.5 0-.4-.4-.4-1.1 0-1.5.4-.4 1.1-.4 1.5 0 .4.4.4 1.1 0 1.5zm4.9 3.4c-.4-.4-1.1-.4-1.5 0s-.4 1.1 0 1.5 1.1.4 1.5 0 .4-1.1 0-1.5z"/><path class="st1" d="M348.8 82.3c-1.5-1.5-3.5-2.3-5.7-2.3s-4.1.8-5.7 2.3c-1.5 1.5-2.3 3.5-2.3 5.7s.8 4.1 2.3 5.7c1.5 1.5 3.5 2.3 5.7 2.3s4.1-.8 5.7-2.3c1.5-1.5 2.3-3.5 2.3-5.7s-.8-4.1-2.3-5.7z"/><path class="st2" d="M341.4 86.3c-.4.4-1.1.4-1.5 0-.4-.4-.4-1.1 0-1.5.4-.4 1.1-.4 1.5 0 .4.4.4 1.1 0 1.5zm4.9 3.4c-.4-.4-1.1-.4-1.5 0s-.4 1.1 0 1.5 1.1.4 1.5 0 .4-1.1 0-1.5z"/><path class="st3" d="M180 94h-5c-1.1 0-2-.9-2-2v-8c0-1.1.9-2 2-2h5c1.1 0 2 .9 2 2v8c0 1.1-.9 2-2 2z"/><path class="st2" d="M141 216h230v24H141z"/><circle class="st0" cx="150" cy="220.5" r="2.5"/><circle class="st0" cx="150" cy="235.5" r="2.5"/><circle class="st0" cx="362" cy="220.5" r="2.5"/><circle class="st0" cx="362" cy="235.5" r="2.5"/><path class="st1" d="M208.8 222.3c-1.5-1.5-3.5-2.3-5.7-2.3s-4.1.8-5.7 2.3c-1.5 1.5-2.3 3.5-2.3 5.7s.8 4.1 2.3 5.7c1.5 1.5 3.5 2.3 5.7 2.3s4.1-.8 5.7-2.3c1.5-1.5 2.3-3.5 2.3-5.7s-.8-4.1-2.3-5.7z"/><path class="st2" d="M201.4 226.3c-.4.4-1.1.4-1.5 0s-.4-1.1 0-1.5 1.1-.4 1.5 0 .4 1.1 0 1.5zm4.9 3.4c-.4-.4-1.1-.4-1.5 0s-.4 1.1 0 1.5c.4.4 1.1.4 1.5 0 .4-.4.4-1.1 0-1.5z"/><path class="st1" d="M228.8 222.3c-1.5-1.5-3.5-2.3-5.7-2.3s-4.1.8-5.7 2.3c-1.5 1.5-2.3 3.5-2.3 5.7s.8 4.1 2.3 5.7c1.5 1.5 3.5 2.3 5.7 2.3s4.1-.8 5.7-2.3c1.5-1.5 2.3-3.5 2.3-5.7s-.8-4.1-2.3-5.7z"/><path class="st2" d="M221.4 226.3c-.4.4-1.1.4-1.5 0s-.4-1.1 0-1.5 1.1-.4 1.5 0 .4 1.1 0 1.5zm4.9 3.4c-.4-.4-1.1-.4-1.5 0s-.4 1.1 0 1.5c.4.4 1.1.4 1.5 0 .4-.4.4-1.1 0-1.5z"/><path class="st1" d="M248.8 222.3c-1.5-1.5-3.5-2.3-5.7-2.3s-4.1.8-5.7 2.3c-1.5 1.5-2.3 3.5-2.3 5.7s.8 4.1 2.3 5.7c1.5 1.5 3.5 2.3 5.7 2.3s4.1-.8 5.7-2.3c1.5-1.5 2.3-3.5 2.3-5.7s-.8-4.1-2.3-5.7z"/><path class="st2" d="M241.4 226.3c-.4.4-1.1.4-1.5 0s-.4-1.1 0-1.5 1.1-.4 1.5 0 .4 1.1 0 1.5zm4.9 3.4c-.4-.4-1.1-.4-1.5 0s-.4 1.1 0 1.5c.4.4 1.1.4 1.5 0 .4-.4.4-1.1 0-1.5z"/><path class="st1" d="M268.8 222.3c-1.5-1.5-3.5-2.3-5.7-2.3s-4.1.8-5.7 2.3c-1.5 1.5-2.3 3.5-2.3 5.7s.8 4.1 2.3 5.7c1.5 1.5 3.5 2.3 5.7 2.3s4.1-.8 5.7-2.3c1.5-1.5 2.3-3.5 2.3-5.7s-.8-4.1-2.3-5.7z"/><path class="st2" d="M261.4 226.3c-.4.4-1.1.4-1.5 0s-.4-1.1 0-1.5 1.1-.4 1.5 0 .4 1.1 0 1.5zm4.9 3.4c-.4-.4-1.1-.4-1.5 0s-.4 1.1 0 1.5c.4.4 1.1.4 1.5 0 .4-.4.4-1.1 0-1.5z"/><path class="st1" d="M288.8 222.3c-1.5-1.5-3.5-2.3-5.7-2.3s-4.1.8-5.7 2.3c-1.5 1.5-2.3 3.5-2.3 5.7s.8 4.1 2.3 5.7c1.5 1.5 3.5 2.3 5.7 2.3s4.1-.8 5.7-2.3c1.5-1.5 2.3-3.5 2.3-5.7s-.8-4.1-2.3-5.7z"/><path class="st2" d="M281.4 226.3c-.4.4-1.1.4-1.5 0s-.4-1.1 0-1.5 1.1-.4 1.5 0 .4 1.1 0 1.5zm4.9 3.4c-.4-.4-1.1-.4-1.5 0s-.4 1.1 0 1.5c.4.4 1.1.4 1.5 0 .4-.4.4-1.1 0-1.5z"/><path class="st1" d="M308.8 222.3c-1.5-1.5-3.5-2.3-5.7-2.3s-4.1.8-5.7 2.3c-1.5 1.5-2.3 3.5-2.3 5.7s.8 4.1 2.3 5.7c1.5 1.5 3.5 2.3 5.7 2.3s4.1-.8 5.7-2.3c1.5-1.5 2.3-3.5 2.3-5.7s-.8-4.1-2.3-5.7z"/><path class="st2" d="M301.4 226.3c-.4.4-1.1.4-1.5 0s-.4-1.1 0-1.5 1.1-.4 1.5 0 .4 1.1 0 1.5zm4.9 3.4c-.4-.4-1.1-.4-1.5 0s-.4 1.1 0 1.5c.4.4 1.1.4 1.5 0 .4-.4.4-1.1 0-1.5z"/><path class="st1" d="M328.8 222.3c-1.5-1.5-3.5-2.3-5.7-2.3s-4.1.8-5.7 2.3c-1.5 1.5-2.3 3.5-2.3 5.7s.8 4.1 2.3 5.7c1.5 1.5 3.5 2.3 5.7 2.3s4.1-.8 5.7-2.3c1.5-1.5 2.3-3.5 2.3-5.7s-.8-4.1-2.3-5.7z"/><path class="st2" d="M321.4 226.3c-.4.4-1.1.4-1.5 0s-.4-1.1 0-1.5 1.1-.4 1.5 0 .4 1.1 0 1.5zm4.9 3.4c-.4-.4-1.1-.4-1.5 0s-.4 1.1 0 1.5c.4.4 1.1.4 1.5 0 .4-.4.4-1.1 0-1.5z"/><path class="st1" d="M348.8 222.3c-1.5-1.5-3.5-2.3-5.7-2.3s-4.1.8-5.7 2.3c-1.5 1.5-2.3 3.5-2.3 5.7s.8 4.1 2.3 5.7c1.5 1.5 3.5 2.3 5.7 2.3s4.1-.8 5.7-2.3c1.5-1.5 2.3-3.5 2.3-5.7s-.8-4.1-2.3-5.7z"/><path class="st2" d="M341.4 226.3c-.4.4-1.1.4-1.5 0s-.4-1.1 0-1.5 1.1-.4 1.5 0 .4 1.1 0 1.5zm4.9 3.4c-.4-.4-1.1-.4-1.5 0s-.4 1.1 0 1.5c.4.4 1.1.4 1.5 0 .4-.4.4-1.1 0-1.5z"/><path class="st3" d="M180 234h-5c-1.1 0-2-.9-2-2v-8c0-1.1.9-2 2-2h5c1.1 0 2 .9 2 2v8c0 1.1-.9 2-2 2z"/><path class="st1" d="M141 36h230v24H141z"/><path class="st0" d="M270.5 42h-1l-1 2h-1v3h5v-3h-1l-1-2zm7 0h-1l-1 2h-1v3h5v-3h-1l-1-2zm7 0h-1l-1 2h-1v3h5v-3h-1l-1-2zm7 0h-1l-1 2h-1v3h5v-3h-1l-1-2zm7 0h-1l-1 2h-1v3h5v-3h-1l-1-2zm7 0h-1l-1 2h-1v3h5v-3h-1l-1-2zm7 0h-1l-1 2h-1v3h5v-3h-1l-1-2zm7 0h-1l-1 2h-1v3h5v-3h-1l-1-2zm7 0h-1l-1 2h-1v3h5v-3h-1l-1-2zm7 0h-1l-1 2h-1v3h5v-3h-1l-1-2zm8 2-1-2h-1l-1 2h-1v3h5v-3h-1zm-70 9h1v-3h-5v3h1l1 2h1l1-2zm7 0h1v-3h-5v3h1l1 2h1l1-2zm7 0h1v-3h-5v3h1l1 2h1l1-2zm7 0h1v-3h-5v3h1l1 2h1l1-2zm7 0h1v-3h-5v3h1l1 2h1l1-2zm7 0h1v-3h-5v3h1l1 2h1l1-2zm7 0h1v-3h-5v3h1l1 2h1l1-2zm7 0h1v-3h-5v3h1l1 2h1l1-2zm7 0h1v-3h-5v3h1l1 2h1l1-2zm7 0h1v-3h-5v3h1l1 2h1l1-2zm8 0v-3h-5v3h1l1 2h1l1-2h1z"/><circle class="st0" cx="150" cy="40.5" r="2.5"/><circle class="st0" cx="150" cy="55.5" r="2.5"/><circle class="st0" cx="362" cy="40.5" r="2.5"/><circle class="st0" cx="362" cy="55.5" r="2.5"/></svg>