<svg version="1.1" xmlns="http://www.w3.org/2000/svg" x="0" y="0" viewBox="0 0 512 512" xml:space="preserve"><path d="M512 365V98.8c0-17-13.8-30.9-30.9-30.9H30.9C13.8 68 0 81.8 0 98.8v314.3c0 17 13.8 30.9 30.9 30.9H433l79-79z" fill="#ffa000"/><path d="M434.4 414.1H46c-8.8 0-16-7.2-16-16V113.9c0-8.8 7.2-16 16-16h388.4c8.8 0 16 7.2 16 16v284.3c0 8.8-7.2 15.9-16 15.9z" fill="#eec646"/><path d="M306.1 211.1h144.4v-8.5H309.1c-.4-2.4-.8-4.7-1.3-7.1-11-57.3-37.2-97.6-67.7-97.6s-56.7 40.3-67.7 97.6c-.4 2.3-.9 4.7-1.3 7.1H30v8.5h144.4c1.6 1.9 3.1 4 4.5 6.1 7.4 11.1 11.7 24.5 11.7 38.9 0 14.4-4.3 27.7-11.7 38.9-1.4 2.1-2.9 4.1-4.5 6.1H30v8.5h141.3c.4 2.4.8 4.7 1.3 7.1 11 57.3 37.2 97.6 67.7 97.6S297 374 308 316.7c.4-2.3.9-4.7 1.3-7.1h141v-8.5H305.9c-1.6-1.9-3.1-4-4.5-6.1-7.4-11.1-11.7-24.5-11.7-38.8 0-14.4 4.3-27.7 11.7-38.8 1.5-2.4 3-4.4 4.7-6.3zM280.2 256c0 16.6 5.1 32.1 13.8 44.9 1.7 2.5 3.6 5 5.6 7.3-.1.4-.1.8-.2 1.2-3.5 20.2-8.9 38.7-16.2 54.3-12 25.9-27.7 40.7-43.1 40.7S209 389.6 197 363.7c-7.2-15.6-12.7-34.1-16.2-54.3-.1-.4-.2-.8-.2-1.2 2-2.3 3.9-4.7 5.6-7.3 8.7-12.8 13.8-28.3 13.8-44.9s-5.1-32.1-13.8-44.9c-1.7-2.5-3.6-5-5.6-7.3.1-.4.1-.8.2-1.2 3.5-20.2 8.9-38.7 16.2-54.3 12-25.9 27.7-40.7 43.1-40.7s31.1 14.8 43.1 40.7c7.2 15.6 12.7 34.1 16.2 54.3.1.4.2.8.2 1.2-2 2.3-3.9 4.7-5.6 7.3a79.72 79.72 0 0 0-13.8 44.9z" fill="#36434f"/></svg>