<svg version="1.1" xmlns="http://www.w3.org/2000/svg" x="0" y="0" viewBox="0 0 512 512" xml:space="preserve"><style type="text/css">.st0{fill:#ddd}.st1{fill:#444}.st2{fill:#999}.st3,.st4{opacity:.15;fill:#444;enable-background:new}.st4{opacity:.3;fill:#f4f4f4}</style><path class="st0" d="M228.3 3.1h55.4V56h-55.4V3.1z"/><path class="st1" d="M230.2 0h51.7c1 0 1.8.8 1.8 1.8V3h-55.4V1.8c0-1 .8-1.8 1.9-1.8z"/><path class="st2" d="M256.6 26.5c0-.4.2-.6.6-.6h1.8c1 0 1.8-.8 1.8-1.8v-9.8c0-1-.8-1.8-1.8-1.8h-1.8c-.4 0-.6-.2-.6-.6V3.1h-1.2v8.6c0 1 .8 1.8 1.8 1.8h1.8c.4 0 .6.2.6.6V24c0 .4-.2.6-.6.6h-1.8c-1 0-1.8.8-1.8 1.8V35c0 1 .8 1.8 1.8 1.8h1.8c.4 0 .6.2.6.6v9.8c0 .4-.2.6-.6.6h-1.8c-1 0-1.8.8-1.8 1.8V56h1.2v-6.2c0-.4.2-.6.6-.6h1.8c1 0 1.8-.8 1.8-1.8v-9.8c0-1-.8-1.8-1.8-1.8h-1.8c-.4 0-.6-.2-.6-.6v-8.7z"/><path class="st3" d="M228.3 3.1h5.5V56h-5.5V3.1z"/><path class="st4" d="M230.8 3.1h1.8V56h-1.8V3.1z"/><path class="st3" d="M283.7 56h-5.5V3.1h5.5V56z"/><path class="st4" d="M281.2 56h-1.8V3.1h1.8V56z"/><path class="st0" d="M206.2 396h99.7v116h-99.7V396z"/><path class="st1" d="M241.3 463.3v10.6c0 1.4-1.1 2.5-2.5 2.5h-15.5c-1.4 0-2.5-1.1-2.5-2.5v-10.6c0-1.4 1.1-2.5 2.5-2.5h15.5c1.4 0 2.5 1.1 2.5 2.5zm49.8 0v10.6c0 1.4-1.1 2.5-2.5 2.5h-15.5c-1.4 0-2.5-1.1-2.5-2.5v-10.6c0-1.4 1.1-2.5 2.5-2.5h15.5c1.5 0 2.5 1.1 2.5 2.5z"/><path class="st2" d="M256.8 469v-8.7c0-.9.7-1.6 1.6-1.6h4.9c1.8 0 3.3-1.5 3.3-3.3V444c0-1.8-1.5-3.3-3.3-3.3h-4.9c-.9 0-1.6-.7-1.6-1.6V396h-1.6v43.1c0 1.8 1.5 3.3 3.3 3.3h4.9c.9 0 1.6.7 1.6 1.6v11.4c0 .9-.7 1.6-1.6 1.6h-4.9c-1.8 0-3.3 1.5-3.3 3.3v16.6c0 1.8 1.5 3.3 3.3 3.3h4.9c.9 0 1.6.7 1.6 1.6v11.4c0 .9-.7 1.6-1.6 1.6h-4.9c-1.8 0-3.3 1.5-3.3 3.3V512h1.6v-13.9c0-.9.7-1.6 1.6-1.6h4.9c1.8 0 3.3-1.5 3.3-3.3v-11.4c0-1.8-1.5-3.3-3.3-3.3h-4.9c-.9 0-1.6-.7-1.6-1.6V469z"/><path d="M315 70H197V58c0-1.7 1.3-3 3-3h112c1.7 0 3 1.3 3 3v12z" fill="#555"/><path class="st1" d="M319 426H193c-4.4 0-8-3.6-8-8V77c0-4.4 3.6-8 8-8h126c4.4 0 8 3.6 8 8v341c0 4.4-3.6 8-8 8z"/><path class="st3" d="M230.2 0c-1 0-1.8.8-1.8 1.8V55H200c-1.7 0-3 1.3-3 3v11h-4c-4.4 0-8 3.6-8 8v341c0 4.4 3.6 8 8 8h13.2v86H256V0h-25.8z"/></svg>