<svg version="1.1" xmlns="http://www.w3.org/2000/svg" x="0" y="0" viewBox="0 0 512 512" xml:space="preserve"><path d="M405 415H107c-4.4 0-8-3.6-8-8V105c0-4.4 3.6-8 8-8h298c4.4 0 8 3.6 8 8v302c0 4.4-3.6 8-8 8z" fill="#36434f"/><path d="M149.5 512h-27c-4.4 0-8-3.6-8-8V404c0-4.4 3.6-8 8-8h27c4.4 0 8 3.6 8 8v100c0 4.4-3.6 8-8 8zm80 0h-27c-4.4 0-8-3.6-8-8V404c0-4.4 3.6-8 8-8h27c4.4 0 8 3.6 8 8v100c0 4.4-3.6 8-8 8zm80 0h-27c-4.4 0-8-3.6-8-8V404c0-4.4 3.6-8 8-8h27c4.4 0 8 3.6 8 8v100c0 4.4-3.6 8-8 8zm80 0h-27c-4.4 0-8-3.6-8-8V404c0-4.4 3.6-8 8-8h27c4.4 0 8 3.6 8 8v100c0 4.4-3.6 8-8 8zm-240-396h-27c-4.4 0-8-3.6-8-8V8c0-4.4 3.6-8 8-8h27c4.4 0 8 3.6 8 8v100c0 4.4-3.6 8-8 8zm80 0h-27c-4.4 0-8-3.6-8-8V8c0-4.4 3.6-8 8-8h27c4.4 0 8 3.6 8 8v100c0 4.4-3.6 8-8 8zm80 0h-27c-4.4 0-8-3.6-8-8V8c0-4.4 3.6-8 8-8h27c4.4 0 8 3.6 8 8v100c0 4.4-3.6 8-8 8zm80 0h-27c-4.4 0-8-3.6-8-8V8c0-4.4 3.6-8 8-8h27c4.4 0 8 3.6 8 8v100c0 4.4-3.6 8-8 8z" fill="#ddd"/></svg>