<svg version="1.1" xmlns="http://www.w3.org/2000/svg" x="0" y="0" viewBox="0 0 512 512" xml:space="preserve"><style type="text/css">.st2{opacity:.15;fill:#444}</style><path d="M256 0C114.6 0 0 114.6 0 256s114.6 256 256 256 256-114.6 256-256S397.4 0 256 0zm0 295c-21.5 0-39-17.5-39-39s17.5-39 39-39 39 17.5 39 39-17.5 39-39 39z" fill="#79b1d1"/><path d="M336.4 280.2l164.8 49.6C489.4 369 468 406 437 437s-68 52.4-107.2 64.2l-49.6-164.8c12.9-3.9 25-10.9 35.2-21 10.2-10.2 17.2-22.3 21-35.2zm-139.8-83.6c10.2-10.2 22.3-17.2 35.2-21L182.2 10.8C143 22.6 106 44 75 75s-52.4 68-64.2 107.2l164.8 49.6c3.8-12.9 10.8-25 21-35.2z" opacity=".5" fill="#fff"/><path class="st2" d="M256 5c33.9 0 66.8 6.6 97.7 19.7 29.9 12.6 56.7 30.7 79.8 53.8 23.1 23.1 41.2 49.9 53.8 79.8 13.1 30.9 19.7 63.8 19.7 97.7s-6.6 66.8-19.7 97.7c-12.6 29.9-30.7 56.7-53.8 79.8-23.1 23.1-49.9 41.2-79.8 53.8-30.9 13.1-63.8 19.7-97.7 19.7s-66.8-6.6-97.7-19.7c-29.9-12.6-56.7-30.7-79.8-53.8-23.1-23.1-41.2-49.9-53.8-79.8C11.6 322.8 5 289.9 5 256s6.6-66.8 19.7-97.7c12.6-29.9 30.7-56.7 53.8-79.8 23.1-23.1 49.9-41.2 79.8-53.8C189.2 11.6 222.1 5 256 5m0-5C114.6 0 0 114.6 0 256s114.6 256 256 256 256-114.6 256-256S397.4 0 256 0z"/><path d="M256 172c-46.4 0-84 37.6-84 84s37.6 84 84 84 84-37.6 84-84-37.6-84-84-84zm0 118c-18.8 0-34-15.2-34-34s15.2-34 34-34 34 15.2 34 34-15.2 34-34 34z" fill="#ddd"/><path class="st2" d="M256 182c40.8 0 74 33.2 74 74s-33.2 74-74 74-74-33.2-74-74 33.2-74 74-74m0-10c-46.4 0-84 37.6-84 84s37.6 84 84 84 84-37.6 84-84-37.6-84-84-84z"/><path d="M256 341.5c-47.1 0-85.5-38.4-85.5-85.5s38.4-85.5 85.5-85.5 85.5 38.4 85.5 85.5-38.4 85.5-85.5 85.5zm0-168c-45.5 0-82.5 37-82.5 82.5s37 82.5 82.5 82.5 82.5-37 82.5-82.5-37-82.5-82.5-82.5z" fill="#999"/></svg>