<svg version="1.1" xmlns="http://www.w3.org/2000/svg" x="0" y="0" viewBox="0 0 512 512" xml:space="preserve"><style type="text/css">.st1{fill:#e0ac7e}.st2{fill:#36434f}.st3{fill:#ddd}.st4{opacity:.15;fill:#444;enable-background:new}.st5{fill:#a18267}.st6{fill:#bbb}</style><path d="M449.5 0h-57.6c-7.2 0-14.3 1.2-21 3.6l-5.4 1.9c-6.8 2.4-13.9 3.6-21 3.6H167.6c-7.2 0-14.3-1.2-21-3.6l-5.4-1.9c-6.8-2.4-13.9-3.6-21-3.6H62.5c-25.4 0-46 20.6-46 46v394c0 25.4 20.6 46 46 46h52.8c7.2 0 14.3-1.2 21-3.6l5.4-1.9c6.8-2.4 13.9-3.6 21-3.6h186.5c7.2 0 14.3 1.2 21 3.6l5.4 1.9c6.8 2.4 13.9 3.6 21 3.6h52.8c25.4 0 46-20.6 46-46V46c.1-25.4-20.5-46-45.9-46zm-415 256c4.1 0 7.5 3.4 7.5 7.5s-3.4 7.5-7.5 7.5-7.5-3.4-7.5-7.5 3.4-7.5 7.5-7.5zm0 32c4.1 0 7.5 3.4 7.5 7.5s-3.4 7.5-7.5 7.5-7.5-3.4-7.5-7.5 3.4-7.5 7.5-7.5zM27 327.5c0-4.1 3.4-7.5 7.5-7.5s7.5 3.4 7.5 7.5-3.4 7.5-7.5 7.5-7.5-3.4-7.5-7.5zm35.5 137C47.9 464.5 36 452.6 36 438s11.9-26.5 26.5-26.5S89 423.4 89 438s-11.9 26.5-26.5 26.5zm5-176.5c4.1 0 7.5 3.4 7.5 7.5s-3.4 7.5-7.5 7.5-7.5-3.4-7.5-7.5 3.4-7.5 7.5-7.5zM60 263.5c0-4.1 3.4-7.5 7.5-7.5s7.5 3.4 7.5 7.5-3.4 7.5-7.5 7.5-7.5-3.4-7.5-7.5zm7.5 56.5c4.1 0 7.5 3.4 7.5 7.5s-3.4 7.5-7.5 7.5-7.5-3.4-7.5-7.5 3.4-7.5 7.5-7.5zm-5-245.5C47.9 74.5 36 62.6 36 48s11.9-26.5 26.5-26.5S89 33.4 89 48 77.1 74.5 62.5 74.5zm387-53c14.6 0 26.5 11.9 26.5 26.5s-11.9 26.5-26.5 26.5S423 62.6 423 48s11.9-26.5 26.5-26.5zm-11.5 274c-4.1 0-7.5-3.4-7.5-7.5s3.4-7.5 7.5-7.5 7.5 3.4 7.5 7.5-3.4 7.5-7.5 7.5zm7.5 24.5c0 4.1-3.4 7.5-7.5 7.5s-7.5-3.4-7.5-7.5 3.4-7.5 7.5-7.5 7.5 3.4 7.5 7.5zm-7.5-56.5c-4.1 0-7.5-3.4-7.5-7.5s3.4-7.5 7.5-7.5 7.5 3.4 7.5 7.5-3.4 7.5-7.5 7.5zm0-32c-4.1 0-7.5-3.4-7.5-7.5s3.4-7.5 7.5-7.5 7.5 3.4 7.5 7.5-3.4 7.5-7.5 7.5zm0-32c-4.1 0-7.5-3.4-7.5-7.5s3.4-7.5 7.5-7.5 7.5 3.4 7.5 7.5-3.4 7.5-7.5 7.5zm0-32c-4.1 0-7.5-3.4-7.5-7.5s3.4-7.5 7.5-7.5 7.5 3.4 7.5 7.5-3.4 7.5-7.5 7.5zm11.5 297c-14.6 0-26.5-11.9-26.5-26.5s11.9-26.5 26.5-26.5S476 423.4 476 438s-11.9 26.5-26.5 26.5zm21.5-137c-4.1 0-7.5-3.4-7.5-7.5s3.4-7.5 7.5-7.5 7.5 3.4 7.5 7.5-3.4 7.5-7.5 7.5zm0-32c-4.1 0-7.5-3.4-7.5-7.5s3.4-7.5 7.5-7.5 7.5 3.4 7.5 7.5-3.4 7.5-7.5 7.5zm0-32c-4.1 0-7.5-3.4-7.5-7.5s3.4-7.5 7.5-7.5 7.5 3.4 7.5 7.5-3.4 7.5-7.5 7.5zm0-32c-4.1 0-7.5-3.4-7.5-7.5s3.4-7.5 7.5-7.5 7.5 3.4 7.5 7.5-3.4 7.5-7.5 7.5zm0-32c-4.1 0-7.5-3.4-7.5-7.5s3.4-7.5 7.5-7.5 7.5 3.4 7.5 7.5-3.4 7.5-7.5 7.5zm0-32c-4.1 0-7.5-3.4-7.5-7.5s3.4-7.5 7.5-7.5 7.5 3.4 7.5 7.5-3.4 7.5-7.5 7.5z" fill="#2e86b7"/><path class="st1" d="M62.5 76.5C46.8 76.5 34 63.7 34 48s12.8-28.5 28.5-28.5S91 32.3 91 48 78.2 76.5 62.5 76.5zm0-53C49 23.5 38 34.5 38 48s11 24.5 24.5 24.5S87 61.5 87 48 76 23.5 62.5 23.5zm387 53C433.8 76.5 421 63.7 421 48s12.8-28.5 28.5-28.5S478 32.3 478 48s-12.8 28.5-28.5 28.5zm0-53C436 23.5 425 34.5 425 48s11 24.5 24.5 24.5S474 61.5 474 48s-11-24.5-24.5-24.5zm-387 443C46.8 466.5 34 453.7 34 438s12.8-28.5 28.5-28.5S91 422.3 91 438s-12.8 28.5-28.5 28.5zm0-53C49 413.5 38 424.5 38 438s11 24.5 24.5 24.5S87 451.5 87 438s-11-24.5-24.5-24.5zm387 53c-15.7 0-28.5-12.8-28.5-28.5s12.8-28.5 28.5-28.5S478 422.3 478 438s-12.8 28.5-28.5 28.5zm0-53c-13.5 0-24.5 11-24.5 24.5s11 24.5 24.5 24.5 24.5-11 24.5-24.5-11-24.5-24.5-24.5z"/><path class="st2" d="M306.7 224.1H205.3c-5.7 0-10.4-4.6-10.4-10.4V112.3c0-5.7 4.6-10.4 10.4-10.4h101.5c5.7 0 10.4 4.6 10.4 10.4v101.5c-.1 5.7-4.7 10.3-10.5 10.3z"/><path class="st3" d="M209 246h-3.2c-.4 0-.6-.3-.6-.6v-22.7c0-.4.3-.6.6-.6h3.2c.4 0 .6.3.6.6v22.7c0 .3-.3.6-.6.6z"/><path class="st4" d="M205.1 229.8h4.5v4.2h-4.5v-4.2zm0 8.7h4.5v1.6h-4.5v-1.6z"/><path class="st3" d="M215.5 246h-3.2c-.4 0-.6-.3-.6-.6v-22.7c0-.4.3-.6.6-.6h3.2c.4 0 .6.3.6.6v22.7c0 .3-.3.6-.6.6z"/><path class="st4" d="M211.6 229.8h4.5v4.2h-4.5v-4.2zm0 8.7h4.5v1.6h-4.5v-1.6z"/><path class="st3" d="M222 246h-3.2c-.4 0-.6-.3-.6-.6v-22.7c0-.4.3-.6.6-.6h3.2c.4 0 .6.3.6.6v22.7c0 .3-.3.6-.6.6z"/><path class="st4" d="M218.1 229.8h4.5v4.2h-4.5v-4.2zm0 8.7h4.5v1.6h-4.5v-1.6z"/><path class="st3" d="M228.4 246h-3.2c-.4 0-.6-.3-.6-.6v-22.7c0-.4.3-.6.6-.6h3.2c.4 0 .6.3.6.6v22.7c.1.3-.2.6-.6.6z"/><path class="st4" d="M224.6 229.8h4.5v4.2h-4.5v-4.2zm0 8.7h4.5v1.6h-4.5v-1.6z"/><path class="st3" d="M234.9 246h-3.2c-.4 0-.6-.3-.6-.6v-22.7c0-.4.3-.6.6-.6h3.2c.4 0 .6.3.6.6v22.7c.1.3-.2.6-.6.6z"/><path class="st4" d="M231 229.8h4.5v4.2H231v-4.2zm0 8.7h4.5v1.6H231v-1.6z"/><path class="st3" d="M241.4 246h-3.2c-.4 0-.6-.3-.6-.6v-22.7c0-.4.3-.6.6-.6h3.2c.4 0 .6.3.6.6v22.7c.1.3-.2.6-.6.6z"/><path class="st4" d="M237.5 229.8h4.5v4.2h-4.5v-4.2zm0 8.7h4.5v1.6h-4.5v-1.6z"/><path class="st3" d="M247.9 246h-3.2c-.4 0-.6-.3-.6-.6v-22.7c0-.4.3-.6.6-.6h3.2c.4 0 .6.3.6.6v22.7c0 .3-.2.6-.6.6z"/><path class="st4" d="M244 229.8h4.5v4.2H244v-4.2zm0 8.7h4.5v1.6H244v-1.6z"/><path class="st3" d="M254.4 246h-3.2c-.4 0-.6-.3-.6-.6v-22.7c0-.4.3-.6.6-.6h3.2c.4 0 .6.3.6.6v22.7c0 .3-.3.6-.6.6z"/><path class="st4" d="M250.5 229.8h4.5v4.2h-4.5v-4.2zm0 8.7h4.5v1.6h-4.5v-1.6z"/><path class="st3" d="M260.9 246h-3.2c-.4 0-.6-.3-.6-.6v-22.7c0-.4.3-.6.6-.6h3.2c.4 0 .6.3.6.6v22.7c0 .3-.3.6-.6.6z"/><path class="st4" d="M257 229.8h4.5v4.2H257v-4.2zm0 8.7h4.5v1.6H257v-1.6z"/><path class="st3" d="M267.3 246h-3.2c-.4 0-.6-.3-.6-.6v-22.7c0-.4.3-.6.6-.6h3.2c.4 0 .6.3.6.6v22.7c.1.3-.2.6-.6.6z"/><path class="st4" d="M263.5 229.8h4.5v4.2h-4.5v-4.2zm0 8.7h4.5v1.6h-4.5v-1.6z"/><path class="st3" d="M273.8 246h-3.2c-.4 0-.6-.3-.6-.6v-22.7c0-.4.3-.6.6-.6h3.2c.4 0 .6.3.6.6v22.7c.1.3-.2.6-.6.6z"/><path class="st4" d="M269.9 229.8h4.5v4.2h-4.5v-4.2zm0 8.7h4.5v1.6h-4.5v-1.6z"/><path class="st3" d="M280.3 246h-3.2c-.4 0-.6-.3-.6-.6v-22.7c0-.4.3-.6.6-.6h3.2c.4 0 .6.3.6.6v22.7c.1.3-.2.6-.6.6z"/><path class="st4" d="M276.4 229.8h4.5v4.2h-4.5v-4.2zm0 8.7h4.5v1.6h-4.5v-1.6z"/><path class="st3" d="M286.8 246h-3.2c-.4 0-.6-.3-.6-.6v-22.7c0-.4.3-.6.6-.6h3.2c.4 0 .6.3.6.6v22.7c0 .3-.2.6-.6.6z"/><path class="st4" d="M282.9 229.8h4.5v4.2h-4.5v-4.2zm0 8.7h4.5v1.6h-4.5v-1.6z"/><path class="st3" d="M293.3 246H290c-.4 0-.6-.3-.6-.6v-22.7c0-.4.3-.6.6-.6h3.2c.4 0 .6.3.6.6v22.7c.1.3-.2.6-.5.6z"/><path class="st4" d="M289.4 229.8h4.5v4.2h-4.5v-4.2zm0 8.7h4.5v1.6h-4.5v-1.6z"/><path class="st3" d="M299.8 246h-3.2c-.4 0-.6-.3-.6-.6v-22.7c0-.4.3-.6.6-.6h3.2c.4 0 .6.3.6.6v22.7c0 .3-.3.6-.6.6z"/><path class="st4" d="M295.9 229.8h4.5v4.2h-4.5v-4.2zm0 8.7h4.5v1.6h-4.5v-1.6z"/><path class="st3" d="M306.3 246H303c-.4 0-.6-.3-.6-.6v-22.7c0-.4.3-.6.6-.6h3.2c.4 0 .6.3.6.6v22.7c.1.3-.2.6-.5.6z"/><path class="st4" d="M302.4 229.8h4.5v4.2h-4.5v-4.2zm0 8.7h4.5v1.6h-4.5v-1.6z"/><path class="st3" d="M303 80h3.2c.4 0 .6.3.6.6v22.7c0 .4-.3.6-.6.6H303c-.4 0-.6-.3-.6-.6V80.6c0-.3.3-.6.6-.6z"/><path class="st4" d="M306.9 96.2h-4.5V92h4.5v4.2zm0-8.7h-4.5v-1.6h4.5v1.6z"/><path class="st3" d="M296.5 80h3.2c.4 0 .6.3.6.6v22.7c0 .4-.3.6-.6.6h-3.2c-.4 0-.6-.3-.6-.6V80.6c0-.3.3-.6.6-.6z"/><path class="st4" d="M300.4 96.2h-4.5V92h4.5v4.2zm0-8.7h-4.5v-1.6h4.5v1.6z"/><path class="st3" d="M290 80h3.2c.4 0 .6.3.6.6v22.7c0 .4-.3.6-.6.6H290c-.4 0-.6-.3-.6-.6V80.6c0-.3.3-.6.6-.6z"/><path class="st4" d="M293.9 96.2h-4.5V92h4.5v4.2zm0-8.7h-4.5v-1.6h4.5v1.6z"/><path class="st3" d="M283.6 80h3.2c.4 0 .6.3.6.6v22.7c0 .4-.3.6-.6.6h-3.2c-.4 0-.6-.3-.6-.6V80.6c-.1-.3.2-.6.6-.6z"/><path class="st4" d="M287.4 96.2h-4.5V92h4.5v4.2zm0-8.7h-4.5v-1.6h4.5v1.6z"/><path class="st3" d="M277.1 80h3.2c.4 0 .6.3.6.6v22.7c0 .4-.3.6-.6.6h-3.2c-.4 0-.6-.3-.6-.6V80.6c-.1-.3.2-.6.6-.6z"/><path class="st4" d="M281 96.2h-4.5V92h4.5v4.2zm0-8.7h-4.5v-1.6h4.5v1.6z"/><path class="st3" d="M270.6 80h3.2c.4 0 .6.3.6.6v22.7c0 .4-.3.6-.6.6h-3.2c-.4 0-.6-.3-.6-.6V80.6c-.1-.3.2-.6.6-.6z"/><path class="st4" d="M274.5 96.2H270V92h4.5v4.2zm0-8.7H270v-1.6h4.5v1.6z"/><path class="st3" d="M264.1 80h3.2c.4 0 .6.3.6.6v22.7c0 .4-.3.6-.6.6h-3.2c-.4 0-.6-.3-.6-.6V80.6c0-.3.2-.6.6-.6z"/><path class="st4" d="M268 96.2h-4.5V92h4.5v4.2zm0-8.7h-4.5v-1.6h4.5v1.6z"/><path class="st3" d="M257.6 80h3.2c.4 0 .6.3.6.6v22.7c0 .4-.3.6-.6.6h-3.2c-.4 0-.6-.3-.6-.6V80.6c0-.3.3-.6.6-.6z"/><path class="st4" d="M261.5 96.2H257V92h4.5v4.2zm0-8.7H257v-1.6h4.5v1.6z"/><path class="st3" d="M251.1 80h3.2c.4 0 .6.3.6.6v22.7c0 .4-.3.6-.6.6h-3.2c-.4 0-.6-.3-.6-.6V80.6c0-.3.3-.6.6-.6z"/><path class="st4" d="M255 96.2h-4.5V92h4.5v4.2zm0-8.7h-4.5v-1.6h4.5v1.6z"/><path class="st3" d="M244.7 80h3.2c.4 0 .6.3.6.6v22.7c0 .4-.3.6-.6.6h-3.2c-.4 0-.6-.3-.6-.6V80.6c-.1-.3.2-.6.6-.6z"/><path class="st4" d="M248.5 96.2H244V92h4.5v4.2zm0-8.7H244v-1.6h4.5v1.6z"/><path class="st3" d="M238.2 80h3.2c.4 0 .6.3.6.6v22.7c0 .4-.3.6-.6.6h-3.2c-.4 0-.6-.3-.6-.6V80.6c-.1-.3.2-.6.6-.6z"/><path class="st4" d="M242.1 96.2h-4.5V92h4.5v4.2zm0-8.7h-4.5v-1.6h4.5v1.6z"/><path class="st3" d="M231.7 80h3.2c.4 0 .6.3.6.6v22.7c0 .4-.3.6-.6.6h-3.2c-.4 0-.6-.3-.6-.6V80.6c-.1-.3.2-.6.6-.6z"/><path class="st4" d="M235.6 96.2H231V92h4.5v4.2zm0-8.7H231v-1.6h4.5v1.6z"/><path class="st3" d="M225.2 80h3.2c.4 0 .6.3.6.6v22.7c0 .4-.3.6-.6.6h-3.2c-.4 0-.6-.3-.6-.6V80.6c0-.3.2-.6.6-.6z"/><path class="st4" d="M229.1 96.2h-4.5V92h4.5v4.2zm0-8.7h-4.5v-1.6h4.5v1.6z"/><path class="st3" d="M218.7 80h3.2c.4 0 .6.3.6.6v22.7c0 .4-.3.6-.6.6h-3.2c-.4 0-.6-.3-.6-.6V80.6c0-.3.3-.6.6-.6z"/><path class="st4" d="M222.6 96.2h-4.5V92h4.5v4.2zm0-8.7h-4.5v-1.6h4.5v1.6z"/><path class="st3" d="M212.2 80h3.2c.4 0 .6.3.6.6v22.7c0 .4-.3.6-.6.6h-3.2c-.4 0-.6-.3-.6-.6V80.6c0-.3.3-.6.6-.6z"/><path class="st4" d="M216.1 96.2h-4.5V92h4.5v4.2zm0-8.7h-4.5v-1.6h4.5v1.6z"/><path class="st3" d="M205.7 80h3.2c.4 0 .6.3.6.6v22.7c0 .4-.3.6-.6.6h-3.2c-.4 0-.6-.3-.6-.6V80.6c0-.3.3-.6.6-.6z"/><path class="st4" d="M209.6 96.2h-4.5V92h4.5v4.2zm0-8.7h-4.5v-1.6h4.5v1.6z"/><path class="st3" d="M197 210v3.2c0 .4-.3.6-.6.6h-22.7c-.4 0-.6-.3-.6-.6V210c0-.4.3-.6.6-.6h22.7c.3 0 .6.3.6.6z"/><path class="st4" d="M180.8 213.9v-4.5h4.2v4.5h-4.2zm8.7 0v-4.5h1.6v4.5h-1.6z"/><path class="st3" d="M197 203.5v3.2c0 .4-.3.6-.6.6h-22.7c-.4 0-.6-.3-.6-.6v-3.2c0-.4.3-.6.6-.6h22.7c.3 0 .6.3.6.6z"/><path class="st4" d="M180.8 207.4v-4.5h4.2v4.5h-4.2zm8.7 0v-4.5h1.6v4.5h-1.6z"/><path class="st3" d="M197 197v3.2c0 .4-.3.6-.6.6h-22.7c-.4 0-.6-.3-.6-.6V197c0-.4.3-.6.6-.6h22.7c.3 0 .6.3.6.6z"/><path class="st4" d="M180.8 200.9v-4.5h4.2v4.5h-4.2zm8.7 0v-4.5h1.6v4.5h-1.6z"/><path class="st3" d="M197 190.6v3.2c0 .4-.3.6-.6.6h-22.7c-.4 0-.6-.3-.6-.6v-3.2c0-.4.3-.6.6-.6h22.7c.3-.1.6.2.6.6z"/><path class="st4" d="M180.8 194.4v-4.5h4.2v4.5h-4.2zm8.7 0v-4.5h1.6v4.5h-1.6z"/><path class="st3" d="M197 184.1v3.2c0 .4-.3.6-.6.6h-22.7c-.4 0-.6-.3-.6-.6v-3.2c0-.4.3-.6.6-.6h22.7c.3-.1.6.2.6.6z"/><path class="st4" d="M180.8 188v-4.5h4.2v4.5h-4.2zm8.7 0v-4.5h1.6v4.5h-1.6z"/><path class="st3" d="M197 177.6v3.2c0 .4-.3.6-.6.6h-22.7c-.4 0-.6-.3-.6-.6v-3.2c0-.4.3-.6.6-.6h22.7c.3-.1.6.2.6.6z"/><path class="st4" d="M180.8 181.5V177h4.2v4.5h-4.2zm8.7 0V177h1.6v4.5h-1.6z"/><path class="st3" d="M197 171.1v3.2c0 .4-.3.6-.6.6h-22.7c-.4 0-.6-.3-.6-.6v-3.2c0-.4.3-.6.6-.6h22.7c.3 0 .6.2.6.6z"/><path class="st4" d="M180.8 175v-4.5h4.2v4.5h-4.2zm8.7 0v-4.5h1.6v4.5h-1.6z"/><path class="st3" d="M197 164.6v3.2c0 .4-.3.6-.6.6h-22.7c-.4 0-.6-.3-.6-.6v-3.2c0-.4.3-.6.6-.6h22.7c.3 0 .6.3.6.6z"/><path class="st4" d="M180.8 168.5V164h4.2v4.5h-4.2zm8.7 0V164h1.6v4.5h-1.6z"/><path class="st3" d="M197 158.1v3.2c0 .4-.3.6-.6.6h-22.7c-.4 0-.6-.3-.6-.6v-3.2c0-.4.3-.6.6-.6h22.7c.3 0 .6.3.6.6z"/><path class="st4" d="M180.8 162v-4.5h4.2v4.5h-4.2zm8.7 0v-4.5h1.6v4.5h-1.6z"/><path class="st3" d="M197 151.7v3.2c0 .4-.3.6-.6.6h-22.7c-.4 0-.6-.3-.6-.6v-3.2c0-.4.3-.6.6-.6h22.7c.3-.1.6.2.6.6z"/><path class="st4" d="M180.8 155.5V151h4.2v4.5h-4.2zm8.7 0V151h1.6v4.5h-1.6z"/><path class="st3" d="M197 145.2v3.2c0 .4-.3.6-.6.6h-22.7c-.4 0-.6-.3-.6-.6v-3.2c0-.4.3-.6.6-.6h22.7c.3-.1.6.2.6.6z"/><path class="st4" d="M180.8 149.1v-4.5h4.2v4.5h-4.2zm8.7 0v-4.5h1.6v4.5h-1.6z"/><path class="st3" d="M197 138.7v3.2c0 .4-.3.6-.6.6h-22.7c-.4 0-.6-.3-.6-.6v-3.2c0-.4.3-.6.6-.6h22.7c.3-.1.6.2.6.6z"/><path class="st4" d="M180.8 142.6V138h4.2v4.5h-4.2zm8.7 0V138h1.6v4.5h-1.6z"/><path class="st3" d="M197 132.2v3.2c0 .4-.3.6-.6.6h-22.7c-.4 0-.6-.3-.6-.6v-3.2c0-.4.3-.6.6-.6h22.7c.3 0 .6.2.6.6z"/><path class="st4" d="M180.8 136.1v-4.5h4.2v4.5h-4.2zm8.7 0v-4.5h1.6v4.5h-1.6z"/><path class="st3" d="M197 125.7v3.2c0 .4-.3.6-.6.6h-22.7c-.4 0-.6-.3-.6-.6v-3.2c0-.4.3-.6.6-.6h22.7c.3 0 .6.3.6.6z"/><path class="st4" d="M180.8 129.6v-4.5h4.2v4.5h-4.2zm8.7 0v-4.5h1.6v4.5h-1.6z"/><path class="st3" d="M197 119.2v3.2c0 .4-.3.6-.6.6h-22.7c-.4 0-.6-.3-.6-.6v-3.2c0-.4.3-.6.6-.6h22.7c.3 0 .6.3.6.6z"/><path class="st4" d="M180.8 123.1v-4.5h4.2v4.5h-4.2zm8.7 0v-4.5h1.6v4.5h-1.6z"/><path class="st3" d="M197 112.7v3.2c0 .4-.3.6-.6.6h-22.7c-.4 0-.6-.3-.6-.6v-3.2c0-.4.3-.6.6-.6h22.7c.3 0 .6.3.6.6z"/><path class="st4" d="M180.8 116.6v-4.5h4.2v4.5h-4.2zm8.7 0v-4.5h1.6v4.5h-1.6z"/><path class="st3" d="M315 116v-3.2c0-.4.3-.6.6-.6h22.7c.4 0 .6.3.6.6v3.2c0 .4-.3.6-.6.6h-22.7c-.3 0-.6-.3-.6-.6z"/><path class="st4" d="M331.2 112.1v4.5H327v-4.5h4.2zm-8.7 0v4.5h-1.6v-4.5h1.6z"/><path class="st3" d="M315 122.5v-3.2c0-.4.3-.6.6-.6h22.7c.4 0 .6.3.6.6v3.2c0 .4-.3.6-.6.6h-22.7c-.3 0-.6-.3-.6-.6z"/><path class="st4" d="M331.2 118.6v4.5H327v-4.5h4.2zm-8.7 0v4.5h-1.6v-4.5h1.6z"/><path class="st3" d="M315 129v-3.2c0-.4.3-.6.6-.6h22.7c.4 0 .6.3.6.6v3.2c0 .4-.3.6-.6.6h-22.7c-.3 0-.6-.3-.6-.6z"/><path class="st4" d="M331.2 125.1v4.5H327v-4.5h4.2zm-8.7 0v4.5h-1.6v-4.5h1.6z"/><path class="st3" d="M315 135.4v-3.2c0-.4.3-.6.6-.6h22.7c.4 0 .6.3.6.6v3.2c0 .4-.3.6-.6.6h-22.7c-.3.1-.6-.2-.6-.6z"/><path class="st4" d="M331.2 131.6v4.5H327v-4.5h4.2zm-8.7 0v4.5h-1.6v-4.5h1.6z"/><path class="st3" d="M315 141.9v-3.2c0-.4.3-.6.6-.6h22.7c.4 0 .6.3.6.6v3.2c0 .4-.3.6-.6.6h-22.7c-.3.1-.6-.2-.6-.6z"/><path class="st4" d="M331.2 138v4.5H327V138h4.2zm-8.7 0v4.5h-1.6V138h1.6z"/><path class="st3" d="M315 148.4v-3.2c0-.4.3-.6.6-.6h22.7c.4 0 .6.3.6.6v3.2c0 .4-.3.6-.6.6h-22.7c-.3.1-.6-.2-.6-.6z"/><path class="st4" d="M331.2 144.5v4.5H327v-4.5h4.2zm-8.7 0v4.5h-1.6v-4.5h1.6z"/><path class="st3" d="M315 154.9v-3.2c0-.4.3-.6.6-.6h22.7c.4 0 .6.3.6.6v3.2c0 .4-.3.6-.6.6h-22.7c-.3 0-.6-.2-.6-.6z"/><path class="st4" d="M331.2 151v4.5H327V151h4.2zm-8.7 0v4.5h-1.6V151h1.6z"/><path class="st3" d="M315 161.4v-3.2c0-.4.3-.6.6-.6h22.7c.4 0 .6.3.6.6v3.2c0 .4-.3.6-.6.6h-22.7c-.3 0-.6-.3-.6-.6z"/><path class="st4" d="M331.2 157.5v4.5H327v-4.5h4.2zm-8.7 0v4.5h-1.6v-4.5h1.6z"/><path class="st3" d="M315 167.9v-3.2c0-.4.3-.6.6-.6h22.7c.4 0 .6.3.6.6v3.2c0 .4-.3.6-.6.6h-22.7c-.3 0-.6-.3-.6-.6z"/><path class="st4" d="M331.2 164v4.5H327V164h4.2zm-8.7 0v4.5h-1.6V164h1.6z"/><path class="st3" d="M315 174.3v-3.2c0-.4.3-.6.6-.6h22.7c.4 0 .6.3.6.6v3.2c0 .4-.3.6-.6.6h-22.7c-.3.1-.6-.2-.6-.6z"/><path class="st4" d="M331.2 170.5v4.5H327v-4.5h4.2zm-8.7 0v4.5h-1.6v-4.5h1.6z"/><path class="st3" d="M315 180.8v-3.2c0-.4.3-.6.6-.6h22.7c.4 0 .6.3.6.6v3.2c0 .4-.3.6-.6.6h-22.7c-.3.1-.6-.2-.6-.6z"/><path class="st4" d="M331.2 176.9v4.5H327v-4.5h4.2zm-8.7 0v4.5h-1.6v-4.5h1.6z"/><path class="st3" d="M315 187.3v-3.2c0-.4.3-.6.6-.6h22.7c.4 0 .6.3.6.6v3.2c0 .4-.3.6-.6.6h-22.7c-.3.1-.6-.2-.6-.6z"/><path class="st4" d="M331.2 183.4v4.5H327v-4.5h4.2zm-8.7 0v4.5h-1.6v-4.5h1.6z"/><path class="st3" d="M315 193.8v-3.2c0-.4.3-.6.6-.6h22.7c.4 0 .6.3.6.6v3.2c0 .4-.3.6-.6.6h-22.7c-.3 0-.6-.2-.6-.6z"/><path class="st4" d="M331.2 189.9v4.5H327v-4.5h4.2zm-8.7 0v4.5h-1.6v-4.5h1.6z"/><path class="st3" d="M315 200.3V197c0-.4.3-.6.6-.6h22.7c.4 0 .6.3.6.6v3.2c0 .4-.3.6-.6.6h-22.7c-.3.1-.6-.2-.6-.5z"/><path class="st4" d="M331.2 196.4v4.5H327v-4.5h4.2zm-8.7 0v4.5h-1.6v-4.5h1.6z"/><path class="st3" d="M315 206.8v-3.2c0-.4.3-.6.6-.6h22.7c.4 0 .6.3.6.6v3.2c0 .4-.3.6-.6.6h-22.7c-.3 0-.6-.3-.6-.6z"/><path class="st4" d="M331.2 202.9v4.5H327v-4.5h4.2zm-8.7 0v4.5h-1.6v-4.5h1.6z"/><path class="st3" d="M315 213.3V210c0-.4.3-.6.6-.6h22.7c.4 0 .6.3.6.6v3.2c0 .4-.3.6-.6.6h-22.7c-.3.1-.6-.2-.6-.5z"/><circle class="st1" cx="157" cy="26" r="11"/><circle class="st1" cx="187" cy="26" r="11"/><circle class="st1" cx="217" cy="26" r="11"/><circle class="st1" cx="247" cy="26" r="11"/><circle class="st1" cx="277" cy="26" r="11"/><circle class="st1" cx="307" cy="26" r="11"/><circle class="st1" cx="337" cy="26" r="11"/><circle class="st1" cx="157" cy="58" r="11"/><circle class="st1" cx="187" cy="58" r="11"/><circle class="st1" cx="217" cy="58" r="11"/><circle class="st1" cx="247" cy="58" r="11"/><circle class="st1" cx="277" cy="58" r="11"/><circle class="st1" cx="307" cy="58" r="11"/><circle class="st1" cx="337" cy="58" r="11"/><path class="st1" d="M438 169.5c-5.2 0-9.5-4.3-9.5-9.5s4.3-9.5 9.5-9.5 9.5 4.3 9.5 9.5-4.3 9.5-9.5 9.5zm0-15c-3 0-5.5 2.5-5.5 5.5s2.5 5.5 5.5 5.5 5.5-2.5 5.5-5.5-2.5-5.5-5.5-5.5zm0 47c-5.2 0-9.5-4.3-9.5-9.5s4.3-9.5 9.5-9.5 9.5 4.3 9.5 9.5-4.3 9.5-9.5 9.5zm0-15c-3 0-5.5 2.5-5.5 5.5s2.5 5.5 5.5 5.5 5.5-2.5 5.5-5.5-2.5-5.5-5.5-5.5zm0 47c-5.2 0-9.5-4.3-9.5-9.5s4.3-9.5 9.5-9.5 9.5 4.3 9.5 9.5-4.3 9.5-9.5 9.5zm0-15c-3 0-5.5 2.5-5.5 5.5s2.5 5.5 5.5 5.5 5.5-2.5 5.5-5.5-2.5-5.5-5.5-5.5zm0 47c-5.2 0-9.5-4.3-9.5-9.5s4.3-9.5 9.5-9.5 9.5 4.3 9.5 9.5-4.3 9.5-9.5 9.5zm0-15c-3 0-5.5 2.5-5.5 5.5s2.5 5.5 5.5 5.5 5.5-2.5 5.5-5.5-2.5-5.5-5.5-5.5zm0 47c-5.2 0-9.5-4.3-9.5-9.5s4.3-9.5 9.5-9.5 9.5 4.3 9.5 9.5-4.3 9.5-9.5 9.5zm0-15c-3 0-5.5 2.5-5.5 5.5s2.5 5.5 5.5 5.5 5.5-2.5 5.5-5.5-2.5-5.5-5.5-5.5zm0 47c-5.2 0-9.5-4.3-9.5-9.5s4.3-9.5 9.5-9.5 9.5 4.3 9.5 9.5-4.3 9.5-9.5 9.5zm0-15c-3 0-5.5 2.5-5.5 5.5s2.5 5.5 5.5 5.5 5.5-2.5 5.5-5.5-2.5-5.5-5.5-5.5zm33-145c-5.2 0-9.5-4.3-9.5-9.5s4.3-9.5 9.5-9.5 9.5 4.3 9.5 9.5-4.3 9.5-9.5 9.5zm0-15c-3 0-5.5 2.5-5.5 5.5s2.5 5.5 5.5 5.5 5.5-2.5 5.5-5.5-2.5-5.5-5.5-5.5zm0 47c-5.2 0-9.5-4.3-9.5-9.5s4.3-9.5 9.5-9.5 9.5 4.3 9.5 9.5-4.3 9.5-9.5 9.5zm0-15c-3 0-5.5 2.5-5.5 5.5s2.5 5.5 5.5 5.5 5.5-2.5 5.5-5.5-2.5-5.5-5.5-5.5zm0 47c-5.2 0-9.5-4.3-9.5-9.5s4.3-9.5 9.5-9.5 9.5 4.3 9.5 9.5-4.3 9.5-9.5 9.5zm0-15c-3 0-5.5 2.5-5.5 5.5s2.5 5.5 5.5 5.5 5.5-2.5 5.5-5.5-2.5-5.5-5.5-5.5zm0 47c-5.2 0-9.5-4.3-9.5-9.5s4.3-9.5 9.5-9.5 9.5 4.3 9.5 9.5-4.3 9.5-9.5 9.5zm0-15c-3 0-5.5 2.5-5.5 5.5s2.5 5.5 5.5 5.5 5.5-2.5 5.5-5.5-2.5-5.5-5.5-5.5zm0 47c-5.2 0-9.5-4.3-9.5-9.5s4.3-9.5 9.5-9.5 9.5 4.3 9.5 9.5-4.3 9.5-9.5 9.5zm0-15c-3 0-5.5 2.5-5.5 5.5s2.5 5.5 5.5 5.5 5.5-2.5 5.5-5.5-2.5-5.5-5.5-5.5zm0 47c-5.2 0-9.5-4.3-9.5-9.5s4.3-9.5 9.5-9.5 9.5 4.3 9.5 9.5-4.3 9.5-9.5 9.5zm0-15c-3 0-5.5 2.5-5.5 5.5s2.5 5.5 5.5 5.5 5.5-2.5 5.5-5.5-2.5-5.5-5.5-5.5zM34.5 273c-5.2 0-9.5-4.3-9.5-9.5s4.3-9.5 9.5-9.5 9.5 4.3 9.5 9.5-4.3 9.5-9.5 9.5zm0-15c-3 0-5.5 2.5-5.5 5.5s2.5 5.5 5.5 5.5 5.5-2.5 5.5-5.5-2.5-5.5-5.5-5.5zm0 47c-5.2 0-9.5-4.3-9.5-9.5s4.3-9.5 9.5-9.5 9.5 4.3 9.5 9.5-4.3 9.5-9.5 9.5zm0-15c-3 0-5.5 2.5-5.5 5.5s2.5 5.5 5.5 5.5 5.5-2.5 5.5-5.5-2.5-5.5-5.5-5.5zm0 47c-5.2 0-9.5-4.3-9.5-9.5s4.3-9.5 9.5-9.5 9.5 4.3 9.5 9.5-4.3 9.5-9.5 9.5zm0-15c-3 0-5.5 2.5-5.5 5.5s2.5 5.5 5.5 5.5 5.5-2.5 5.5-5.5-2.5-5.5-5.5-5.5zm33-49c-5.2 0-9.5-4.3-9.5-9.5s4.3-9.5 9.5-9.5 9.5 4.3 9.5 9.5-4.3 9.5-9.5 9.5zm0-15c-3 0-5.5 2.5-5.5 5.5s2.5 5.5 5.5 5.5 5.5-2.5 5.5-5.5-2.5-5.5-5.5-5.5zm0 47c-5.2 0-9.5-4.3-9.5-9.5s4.3-9.5 9.5-9.5 9.5 4.3 9.5 9.5-4.3 9.5-9.5 9.5zm0-15c-3 0-5.5 2.5-5.5 5.5s2.5 5.5 5.5 5.5 5.5-2.5 5.5-5.5-2.5-5.5-5.5-5.5zm0 47c-5.2 0-9.5-4.3-9.5-9.5s4.3-9.5 9.5-9.5 9.5 4.3 9.5 9.5-4.3 9.5-9.5 9.5zm0-15c-3 0-5.5 2.5-5.5 5.5s2.5 5.5 5.5 5.5 5.5-2.5 5.5-5.5-2.5-5.5-5.5-5.5zm152 124c-17.1 0-31 13.9-31 31 3.5 0 6.3 2.8 6.3 6.3V512s12-10 25-10 24.5 10 24.5 10v-28.8c0-3.5 2.8-6.3 6.3-6.3-.1-17-14-30.9-31.1-30.9zm73 0c-17.1 0-31 13.9-31 31 3.5 0 6.3 2.8 6.3 6.3V512s12-10 25-10 24.5 10 24.5 10v-28.8c0-3.5 2.8-6.3 6.3-6.3-.1-17-14-30.9-31.1-30.9z"/><circle class="st1" cx="425.5" cy="95.5" r="12.5"/><path class="st1" d="M423.4 396.2l8.9-8c2-1.8 2.2-5 .4-7.1l-8-8.9c-1.8-2-5-2.2-7.1-.4l-8.9 8c-2 1.8-2.2 5-.4 7.1l8 8.9c1.9 2.1 5.1 2.2 7.1.4zm-25.5-312l8.9-8c2-1.8 2.2-5 .4-7.1l-8-8.9c-1.8-2-5-2.2-7.1-.4l-8.9 8c-2 1.8-2.2 5-.4 7.1l8 8.9c1.9 2.1 5.1 2.2 7.1.4z"/><circle class="st1" cx="397.5" cy="458" r="21"/><circle class="st1" cx="473" cy="101" r="21"/><path class="st1" d="M33 400.5c11.6 0 21-9.4 21-21s-9.4-21-21-21c-6.7 0-12.7 3.1-16.5 8v25.9c3.8 5 9.8 8.1 16.5 8.1zm462.5-33l-15.1-16.8c-3.5-3.9-9.5-4.2-13.3-.7l-15 13.5c-3.9 3.5-4.2 9.5-.7 13.3l16.5 18.3c3.5 3.9 9.5 4.2 13.3.7l14.3-12.9v-15.4z"/><circle class="st1" cx="397" cy="414.5" r="12.5"/><path class="st1" d="M389.8 49.1l18.3-16.5c3.9-3.5 4.2-9.5.7-13.3l-13.5-15C391.8.4 385.8.1 382 3.6l-18.3 16.5c-3.9 3.5-4.2 9.5-.7 13.3l13.5 15c3.4 3.9 9.4 4.2 13.3.7zm-287 365.2c1.8 2 5 2.2 7.1.4l8.9-8c2-1.8 2.2-5 .4-7.1l-8-8.9c-1.8-2-5-2.2-7.1-.4l-8.9 8c-2 1.8-2.2 5-.4 7.1l8 8.9z"/><circle class="st1" cx="114.5" cy="67.5" r="12.5"/><path class="st1" d="M125.5 435.1c-3.5-3.9-9.5-4.2-13.3-.7l-18.3 16.5c-3.9 3.5-4.2 9.5-.7 13.3l13.5 15c3.5 3.9 9.5 4.2 13.3.7l18.3-16.5c3.9-3.5 4.2-9.5.7-13.3l-13.5-15zM16.5 95.8v18.4l13.6 15.2c3.5 3.9 9.5 4.2 13.3.7l15-13.5c3.9-3.5 4.2-9.5.7-13.3L42.7 84.9c-3.5-3.9-9.5-4.2-13.3-.7L16.5 95.8zm77.4 14.4l8.9-8c2-1.8 2.2-5 .4-7.1l-8-8.9c-1.8-2-5-2.2-7.1-.4l-8.9 8c-2 1.8-2.2 5-.4 7.1l8 8.9c1.9 2.1 5.1 2.2 7.1.4z"/><circle class="st1" cx="114" cy="24" r="21"/><circle class="st1" cx="77.5" cy="382" r="12.5"/><path class="st3" d="M79 202.5v5.5h22.2c.9 0 1.6-.7 1.6-1.6V204c0-.9-.7-1.6-1.6-1.6H79zm0-7.9v5.5h22.2c.9 0 1.6-.7 1.6-1.6v-2.4c0-.9-.7-1.6-1.6-1.6H79zm0-7.9v5.5h22.2c.9 0 1.6-.7 1.6-1.6v-2.4c0-.9-.7-1.6-1.6-1.6H79zm0-7.8v5.5h22.2c.9 0 1.6-.7 1.6-1.6v-2.4c0-.9-.7-1.6-1.6-1.6H79zm0-7.9v5.5h22.2c.9 0 1.6-.7 1.6-1.6v-2.4c0-.9-.7-1.6-1.6-1.6H79z"/><path class="st1" d="M82.3 142.7v93.5c0 1-.8 1.7-1.7 1.7H18.2c-1 0-1.7-.8-1.7-1.7v-93.5c0-1 .8-1.7 1.7-1.7h62.4c.9 0 1.7.8 1.7 1.7z"/><path class="st5" d="M51.1 216.8v6.1c0 1.5-1.1 2.6-2.6 2.6h-19c-1.5 0-2.6-1.1-2.6-2.6v-6.1c0-1.5 1.1-2.6 2.6-2.6h19.1c1.4 0 2.5 1.1 2.5 2.6z"/><path class="st4" d="M43.3 225.4h5.2c1.5 0 2.6-1.1 2.6-2.6v-6.1c0-1.5-1.1-2.6-2.6-2.6h-5.2v11.3z"/><path class="st5" d="M51.1 156.2v6.1c0 1.5-1.1 2.6-2.6 2.6h-19c-1.5 0-2.6-1.1-2.6-2.6v-6.1c0-1.5 1.1-2.6 2.6-2.6h19.1c1.4 0 2.5 1.1 2.5 2.6z"/><path class="st4" d="M43.3 164.8h5.2c1.5 0 2.6-1.1 2.6-2.6v-6.1c0-1.5-1.1-2.6-2.6-2.6h-5.2v11.3z"/><path class="st5" d="M74 159.5h8.3v7H74zm0 53h8.3v7H74z"/><path class="st3" d="M371.5 119h-16.1c-.8 0-1.4-.6-1.4-1.4v-4.9c0-.8.6-1.4 1.4-1.4h16.1c.8 0 1.4.6 1.4 1.4v4.9c0 .8-.6 1.4-1.4 1.4z"/><path class="st2" d="M360 111.3h7v7.7h-7v-7.7z"/><path class="st3" d="M371.5 134h-16.1c-.8 0-1.4-.6-1.4-1.4v-4.9c0-.8.6-1.4 1.4-1.4h16.1c.8 0 1.4.6 1.4 1.4v4.9c0 .8-.6 1.4-1.4 1.4z"/><path class="st2" d="M360 126.3h7v7.7h-7v-7.7z"/><path class="st3" d="M371.5 224h-16.1c-.8 0-1.4-.6-1.4-1.4v-4.9c0-.8.6-1.4 1.4-1.4h16.1c.8 0 1.4.6 1.4 1.4v4.9c0 .8-.6 1.4-1.4 1.4z"/><path class="st2" d="M360 216.3h7v7.7h-7v-7.7z"/><path class="st3" d="M371.5 224h-16.1c-.8 0-1.4-.6-1.4-1.4v-4.9c0-.8.6-1.4 1.4-1.4h16.1c.8 0 1.4.6 1.4 1.4v4.9c0 .8-.6 1.4-1.4 1.4z"/><path class="st2" d="M360 216.3h7v7.7h-7v-7.7z"/><path class="st3" d="M371.5 240h-16.1c-.8 0-1.4-.6-1.4-1.4v-4.9c0-.8.6-1.4 1.4-1.4h16.1c.8 0 1.4.6 1.4 1.4v4.9c0 .8-.6 1.4-1.4 1.4z"/><path class="st2" d="M360 232.3h7v7.7h-7v-7.7z"/><path class="st3" d="M347.5 240h-16.1c-.8 0-1.4-.6-1.4-1.4v-4.9c0-.8.6-1.4 1.4-1.4h16.1c.8 0 1.4.6 1.4 1.4v4.9c0 .8-.6 1.4-1.4 1.4z"/><path class="st2" d="M336 232.3h7v7.7h-7v-7.7z"/><path class="st3" d="M371.5 209h-16.1c-.8 0-1.4-.6-1.4-1.4v-4.9c0-.8.6-1.4 1.4-1.4h16.1c.8 0 1.4.6 1.4 1.4v4.9c0 .8-.6 1.4-1.4 1.4z"/><path class="st2" d="M360 201.3h7v7.7h-7v-7.7z"/><path class="st3" d="M371.5 191h-16.1c-.8 0-1.4-.6-1.4-1.4v-4.9c0-.8.6-1.4 1.4-1.4h16.1c.8 0 1.4.6 1.4 1.4v4.9c0 .8-.6 1.4-1.4 1.4z"/><path class="st2" d="M360 183.3h7v7.7h-7v-7.7z"/><path class="st3" d="M387.3 223.1v16.1c0 .8-.6 1.4-1.4 1.4H381c-.8 0-1.4-.6-1.4-1.4v-16.1c0-.8.6-1.4 1.4-1.4h4.9c.8 0 1.4.6 1.4 1.4z"/><path class="st2" d="M379.6 234.6v-7h7.7v7h-7.7z"/><path class="st3" d="M312.5 274h-16.1c-.8 0-1.4-.6-1.4-1.4v-4.9c0-.8.6-1.4 1.4-1.4h16.1c.8 0 1.4.6 1.4 1.4v4.9c0 .8-.6 1.4-1.4 1.4z"/><path class="st2" d="M301 266.3h7v7.7h-7v-7.7z"/><path class="st3" d="M312.5 287h-16.1c-.8 0-1.4-.6-1.4-1.4v-4.9c0-.8.6-1.4 1.4-1.4h16.1c.8 0 1.4.6 1.4 1.4v4.9c0 .8-.6 1.4-1.4 1.4z"/><path class="st2" d="M301 279.3h7v7.7h-7v-7.7z"/><path class="st3" d="M312.5 302h-16.1c-.8 0-1.4-.6-1.4-1.4v-4.9c0-.8.6-1.4 1.4-1.4h16.1c.8 0 1.4.6 1.4 1.4v4.9c0 .8-.6 1.4-1.4 1.4z"/><path class="st2" d="M301 294.3h7v7.7h-7v-7.7z"/><path class="st3" d="M328.3 305.1v16.1c0 .8-.6 1.4-1.4 1.4H322c-.8 0-1.4-.6-1.4-1.4v-16.1c0-.8.6-1.4 1.4-1.4h4.9c.8 0 1.4.6 1.4 1.4z"/><path class="st2" d="M320.6 316.6v-7h7.7v7h-7.7z"/><path class="st3" d="M345.3 305.1v16.1c0 .8-.6 1.4-1.4 1.4H339c-.8 0-1.4-.6-1.4-1.4v-16.1c0-.8.6-1.4 1.4-1.4h4.9c.8 0 1.4.6 1.4 1.4z"/><path class="st2" d="M337.6 316.6v-7h7.7v7h-7.7z"/><path class="st3" d="M360.3 305.1v16.1c0 .8-.6 1.4-1.4 1.4H354c-.8 0-1.4-.6-1.4-1.4v-16.1c0-.8.6-1.4 1.4-1.4h4.9c.8 0 1.4.6 1.4 1.4z"/><path class="st2" d="M352.6 316.6v-7h7.7v7h-7.7z"/><path class="st3" d="M377.3 305.1v16.1c0 .8-.6 1.4-1.4 1.4H371c-.8 0-1.4-.6-1.4-1.4v-16.1c0-.8.6-1.4 1.4-1.4h4.9c.8 0 1.4.6 1.4 1.4z"/><path class="st2" d="M369.6 316.6v-7h7.7v7h-7.7z"/><path class="st3" d="M392.3 305.1v16.1c0 .8-.6 1.4-1.4 1.4H386c-.8 0-1.4-.6-1.4-1.4v-16.1c0-.8.6-1.4 1.4-1.4h4.9c.8 0 1.4.6 1.4 1.4z"/><path class="st2" d="M384.6 316.6v-7h7.7v7h-7.7z"/><path class="st3" d="M408.3 305.1v16.1c0 .8-.6 1.4-1.4 1.4H402c-.8 0-1.4-.6-1.4-1.4v-16.1c0-.8.6-1.4 1.4-1.4h4.9c.8 0 1.4.6 1.4 1.4z"/><path class="st2" d="M400.6 316.6v-7h7.7v7h-7.7z"/><path class="st3" d="M182.5 240h-16.1c-.8 0-1.4-.6-1.4-1.4v-4.9c0-.8.6-1.4 1.4-1.4h16.1c.8 0 1.4.6 1.4 1.4v4.9c0 .8-.6 1.4-1.4 1.4z"/><path class="st2" d="M170.9 232.3h7v7.7h-7v-7.7z"/><path class="st3" d="M182.5 253h-16.1c-.8 0-1.4-.6-1.4-1.4v-4.9c0-.8.6-1.4 1.4-1.4h16.1c.8 0 1.4.6 1.4 1.4v4.9c0 .8-.6 1.4-1.4 1.4z"/><path class="st2" d="M170.9 245.3h7v7.7h-7v-7.7z"/><path class="st3" d="M182.5 268h-16.1c-.8 0-1.4-.6-1.4-1.4v-4.9c0-.8.6-1.4 1.4-1.4h16.1c.8 0 1.4.6 1.4 1.4v4.9c0 .8-.6 1.4-1.4 1.4z"/><path class="st2" d="M170.9 260.3h7v7.7h-7v-7.7z"/><path class="st3" d="M164.5 192h-16.1c-.8 0-1.4-.6-1.4-1.4v-4.9c0-.8.6-1.4 1.4-1.4h16.1c.8 0 1.4.6 1.4 1.4v4.9c0 .8-.6 1.4-1.4 1.4z"/><path class="st2" d="M152.9 184.3h7v7.7h-7v-7.7z"/><path class="st3" d="M164.5 205h-16.1c-.8 0-1.4-.6-1.4-1.4v-4.9c0-.8.6-1.4 1.4-1.4h16.1c.8 0 1.4.6 1.4 1.4v4.9c0 .8-.6 1.4-1.4 1.4z"/><path class="st2" d="M152.9 197.3h7v7.7h-7v-7.7z"/><path class="st3" d="M164.5 220h-16.1c-.8 0-1.4-.6-1.4-1.4v-4.9c0-.8.6-1.4 1.4-1.4h16.1c.8 0 1.4.6 1.4 1.4v4.9c0 .8-.6 1.4-1.4 1.4z"/><path class="st2" d="M152.9 212.3h7v7.7h-7v-7.7z"/><path class="st3" d="M164.5 174h-16.1c-.8 0-1.4-.6-1.4-1.4v-4.9c0-.8.6-1.4 1.4-1.4h16.1c.8 0 1.4.6 1.4 1.4v4.9c0 .8-.6 1.4-1.4 1.4z"/><path class="st2" d="M152.9 166.3h7v7.7h-7v-7.7z"/><path class="st3" d="M164.5 157h-16.1c-.8 0-1.4-.6-1.4-1.4v-4.9c0-.8.6-1.4 1.4-1.4h16.1c.8 0 1.4.6 1.4 1.4v4.9c0 .8-.6 1.4-1.4 1.4z"/><path class="st2" d="M152.9 149.3h7v7.7h-7v-7.7z"/><path class="st3" d="M136.5 192h-16.1c-.8 0-1.4-.6-1.4-1.4v-4.9c0-.8.6-1.4 1.4-1.4h16.1c.8 0 1.4.6 1.4 1.4v4.9c0 .8-.6 1.4-1.4 1.4z"/><path class="st2" d="M124.9 184.3h7v7.7h-7v-7.7z"/><path class="st3" d="M136.5 205h-16.1c-.8 0-1.4-.6-1.4-1.4v-4.9c0-.8.6-1.4 1.4-1.4h16.1c.8 0 1.4.6 1.4 1.4v4.9c0 .8-.6 1.4-1.4 1.4z"/><path class="st2" d="M124.9 197.3h7v7.7h-7v-7.7z"/><path class="st3" d="M136.5 220h-16.1c-.8 0-1.4-.6-1.4-1.4v-4.9c0-.8.6-1.4 1.4-1.4h16.1c.8 0 1.4.6 1.4 1.4v4.9c0 .8-.6 1.4-1.4 1.4z"/><path class="st2" d="M124.9 212.3h7v7.7h-7v-7.7z"/><path class="st3" d="M136.5 174h-16.1c-.8 0-1.4-.6-1.4-1.4v-4.9c0-.8.6-1.4 1.4-1.4h16.1c.8 0 1.4.6 1.4 1.4v4.9c0 .8-.6 1.4-1.4 1.4z"/><path class="st2" d="M124.9 166.3h7v7.7h-7v-7.7z"/><path class="st3" d="M136.5 157h-16.1c-.8 0-1.4-.6-1.4-1.4v-4.9c0-.8.6-1.4 1.4-1.4h16.1c.8 0 1.4.6 1.4 1.4v4.9c0 .8-.6 1.4-1.4 1.4z"/><path class="st2" d="M124.9 149.3h7v7.7h-7v-7.7z"/><path class="st3" d="M136.5 337h-16.1c-.8 0-1.4-.6-1.4-1.4v-4.9c0-.8.6-1.4 1.4-1.4h16.1c.8 0 1.4.6 1.4 1.4v4.9c0 .8-.6 1.4-1.4 1.4z"/><path class="st2" d="M124.9 329.3h7v7.7h-7v-7.7z"/><path class="st3" d="M161.5 337h-16.1c-.8 0-1.4-.6-1.4-1.4v-4.9c0-.8.6-1.4 1.4-1.4h16.1c.8 0 1.4.6 1.4 1.4v4.9c0 .8-.6 1.4-1.4 1.4z"/><path class="st2" d="M149.9 329.3h7v7.7h-7v-7.7z"/><path class="st3" d="M183.3 279.1v16.1c0 .8-.6 1.4-1.4 1.4H177c-.8 0-1.4-.6-1.4-1.4v-16.1c0-.8.6-1.4 1.4-1.4h4.9c.8 0 1.4.6 1.4 1.4z"/><path class="st2" d="M175.6 290.6v-7h7.7v7h-7.7z"/><path class="st3" d="M183.3 303.1v16.1c0 .8-.6 1.4-1.4 1.4H177c-.8 0-1.4-.6-1.4-1.4v-16.1c0-.8.6-1.4 1.4-1.4h4.9c.8 0 1.4.6 1.4 1.4z"/><path class="st2" d="M175.6 314.6v-7h7.7v7h-7.7z"/><path class="st3" d="M371 152h-13v-2c0-1.1.9-2 2-2h9c1.1 0 2 .9 2 2v2zm0 14h-13v2c0 1.1.9 2 2 2h9c1.1 0 2-.9 2-2v-2z"/><path class="st2" d="M358 151h13v16h-13z"/><path class="st3" d="M408 217h-13v-2c0-1.1.9-2 2-2h9c1.1 0 2 .9 2 2v2zm0 14h-13v2c0 1.1.9 2 2 2h9c1.1 0 2-.9 2-2v-2z"/><path class="st2" d="M395 216h13v16h-13z"/><path class="st3" d="M207 297h-13v-2c0-1.1.9-2 2-2h9c1.1 0 2 .9 2 2v2zm0 14h-13v2c0 1.1.9 2 2 2h9c1.1 0 2-.9 2-2v-2z"/><path class="st2" d="M194 296h13v16h-13zm82 16.5h-44c-2.5 0-4.5-2.1-4.5-4.5v-44c0-2.5 2.1-4.5 4.5-4.5h44c2.5 0 4.5 2.1 4.5 4.5v44c0 2.4-2.1 4.5-4.5 4.5z"/><path class="st3" d="M229 300.3v3.2c0 .4-.1.6-.2.6h-3.7c-.1 0-.2-.3-.2-.6v-3.2c0-.4.1-.6.2-.6h3.7c.1-.1.2.2.2.6zm0-6.4v3.2c0 .4-.1.6-.2.6h-3.7c-.1 0-.2-.3-.2-.6v-3.2c0-.4.1-.6.2-.6h3.7c.1 0 .2.3.2.6zm0-6.3v3.2c0 .4-.1.6-.2.6h-3.7c-.1 0-.2-.3-.2-.6v-3.2c0-.4.1-.6.2-.6h3.7c.1 0 .2.2.2.6zm0-6.3v3.2c0 .4-.1.6-.2.6h-3.7c-.1 0-.2-.3-.2-.6v-3.2c0-.4.1-.6.2-.6h3.7c.1-.1.2.2.2.6zm0-6.4v3.2c0 .4-.1.6-.2.6h-3.7c-.1 0-.2-.3-.2-.6v-3.2c0-.4.1-.6.2-.6h3.7c.1 0 .2.3.2.6zm0-6.3v3.2c0 .4-.1.6-.2.6h-3.7c-.1 0-.2-.3-.2-.6v-3.2c0-.4.1-.6.2-.6h3.7c.1-.1.2.3.2.6zm54 31.7v3.2c0 .4-.1.6-.2.6h-3.7c-.1 0-.2-.3-.2-.6v-3.2c0-.4.1-.6.2-.6h3.7c.1-.1.2.2.2.6zm0-6.4v3.2c0 .4-.1.6-.2.6h-3.7c-.1 0-.2-.3-.2-.6v-3.2c0-.4.1-.6.2-.6h3.7c.1 0 .2.3.2.6zm0-6.3v3.2c0 .4-.1.6-.2.6h-3.7c-.1 0-.2-.3-.2-.6v-3.2c0-.4.1-.6.2-.6h3.7c.1 0 .2.2.2.6zm0-6.3v3.2c0 .4-.1.6-.2.6h-3.7c-.1 0-.2-.3-.2-.6v-3.2c0-.4.1-.6.2-.6h3.7c.1-.1.2.2.2.6zm0-6.4v3.2c0 .4-.1.6-.2.6h-3.7c-.1 0-.2-.3-.2-.6v-3.2c0-.4.1-.6.2-.6h3.7c.1 0 .2.3.2.6zm0-6.3v3.2c0 .4-.1.6-.2.6h-3.7c-.1 0-.2-.3-.2-.6v-3.2c0-.4.1-.6.2-.6h3.7c.1-.1.2.3.2.6zM268.3 311h3.2c.4 0 .6.1.6.2v3.7c0 .1-.3.2-.6.2h-3.2c-.4 0-.6-.1-.6-.2v-3.7c-.1-.1.2-.2.6-.2zm-6.4 0h3.2c.4 0 .6.1.6.2v3.7c0 .1-.3.2-.6.2h-3.2c-.4 0-.6-.1-.6-.2v-3.7c0-.1.3-.2.6-.2zm-6.3 0h3.2c.4 0 .6.1.6.2v3.7c0 .1-.3.2-.6.2h-3.2c-.4 0-.6-.1-.6-.2v-3.7c0-.1.2-.2.6-.2zm-6.3 0h3.2c.4 0 .6.1.6.2v3.7c0 .1-.3.2-.6.2h-3.2c-.4 0-.6-.1-.6-.2v-3.7c-.1-.1.2-.2.6-.2zm-6.4 0h3.2c.4 0 .6.1.6.2v3.7c0 .1-.3.2-.6.2h-3.2c-.4 0-.6-.1-.6-.2v-3.7c0-.1.3-.2.6-.2zm-6.3 0h3.2c.4 0 .6.1.6.2v3.7c0 .1-.3.2-.6.2h-3.2c-.4 0-.6-.1-.6-.2v-3.7c-.1-.1.3-.2.6-.2zm31.7-54h3.2c.4 0 .6.1.6.2v3.7c0 .1-.3.2-.6.2h-3.2c-.4 0-.6-.1-.6-.2v-3.7c-.1-.1.2-.2.6-.2zm-6.4 0h3.2c.4 0 .6.1.6.2v3.7c0 .1-.3.2-.6.2h-3.2c-.4 0-.6-.1-.6-.2v-3.7c0-.1.3-.2.6-.2zm-6.3 0h3.2c.4 0 .6.1.6.2v3.7c0 .1-.3.2-.6.2h-3.2c-.4 0-.6-.1-.6-.2v-3.7c0-.1.2-.2.6-.2zm-6.3 0h3.2c.4 0 .6.1.6.2v3.7c0 .1-.3.2-.6.2h-3.2c-.4 0-.6-.1-.6-.2v-3.7c-.1-.1.2-.2.6-.2zm-6.4 0h3.2c.4 0 .6.1.6.2v3.7c0 .1-.3.2-.6.2h-3.2c-.4 0-.6-.1-.6-.2v-3.7c0-.1.3-.2.6-.2zm-6.3 0h3.2c.4 0 .6.1.6.2v3.7c0 .1-.3.2-.6.2h-3.2c-.4 0-.6-.1-.6-.2v-3.7c-.1-.1.3-.2.6-.2zM207 391h-18v-11c0-1.1.9-2 2-2h14c1.1 0 2 .9 2 2v11zm-2 44h-14c-1.1 0-2-.9-2-2v-11h18v11c0 1.1-.9 2-2 2z"/><path class="st5" d="M189 389h18v35h-18z"/><path class="st3" d="M238 391h-18v-11c0-1.1.9-2 2-2h14c1.1 0 2 .9 2 2v11zm-2 44h-14c-1.1 0-2-.9-2-2v-11h18v11c0 1.1-.9 2-2 2z"/><path class="st5" d="M220 389h18v35h-18z"/><path class="st3" d="M143 398v13h-2c-1.1 0-2-.9-2-2v-9c0-1.1.9-2 2-2h2zm14 0v13h2c1.1 0 2-.9 2-2v-9c0-1.1-.9-2-2-2h-2z"/><path class="st2" d="M142 411v-13h16v13z"/><path class="st3" d="M126.2 230v10H121c-1.1 0-2-.9-2-2v-6c0-1.1.9-2 2-2h5.2zm24.5 2v6c0 1.1-.9 2-2 2h-5.2v-10h5.2c1.1 0 2 .9 2 2z"/><path class="st5" d="M125.133 240.033v-10h19.4v10z"/><path class="st3" d="M126.2 249v10H121c-1.1 0-2-.9-2-2v-6c0-1.1.9-2 2-2h5.2zm24.5 2v6c0 1.1-.9 2-2 2h-5.2v-10h5.2c1.1 0 2 .9 2 2z"/><path class="st5" d="M125.133 259.033v-10h19.4v10z"/><path class="st3" d="M126.2 265v10H121c-1.1 0-2-.9-2-2v-6c0-1.1.9-2 2-2h5.2zm24.5 2v6c0 1.1-.9 2-2 2h-5.2v-10h5.2c1.1 0 2 .9 2 2z"/><path class="st5" d="M125.133 275.033v-10h19.4v10z"/><path class="st3" d="M126.3 125.1v16.1c0 .8-.6 1.4-1.4 1.4H120c-.8 0-1.4-.6-1.4-1.4v-16.1c0-.8.6-1.4 1.4-1.4h4.9c.8 0 1.4.6 1.4 1.4z"/><path class="st2" d="M118.6 136.6v-7h7.7v7h-7.7z"/><path class="st3" d="M138 352.5h-7c-1.1 0-2-.9-2-2v-1c0-1.1.9-2 2-2h7v5zm21 0h-7v-5h7c1.1 0 2 .9 2 2v1c0 1.1-.9 2-2 2z"/><path class="st2" d="M151 354h-12c-1.1 0-2-.9-2-2v-4c0-1.1.9-2 2-2h12c1.1 0 2 .9 2 2v4c0 1.1-.9 2-2 2z"/><path class="st3" d="M138 369.5h-7c-1.1 0-2-.9-2-2v-1c0-1.1.9-2 2-2h7v5zm21 0h-7v-5h7c1.1 0 2 .9 2 2v1c0 1.1-.9 2-2 2z"/><path class="st2" d="M151 371h-12c-1.1 0-2-.9-2-2v-4c0-1.1.9-2 2-2h12c1.1 0 2 .9 2 2v4c0 1.1-.9 2-2 2z"/><path class="st3" d="M145 386.5h-7c-1.1 0-2-.9-2-2v-1c0-1.1.9-2 2-2h7v5zm21 0h-7v-5h7c1.1 0 2 .9 2 2v1c0 1.1-.9 2-2 2z"/><path class="st2" d="M158 388h-12c-1.1 0-2-.9-2-2v-4c0-1.1.9-2 2-2h12c1.1 0 2 .9 2 2v4c0 1.1-.9 2-2 2z"/><path class="st3" d="M293 310v13h-2c-1.1 0-2-.9-2-2v-9c0-1.1.9-2 2-2h2zm14 0v13h2c1.1 0 2-.9 2-2v-9c0-1.1-.9-2-2-2h-2z"/><path class="st2" d="M292 323v-13h16v13z"/><path class="st3" d="M331.5 294c0 1.1-.9 2-2 2h-2c-1.1 0-2-.9-2-2v-15c0-1.1.9-2 2-2h2c1.1 0 2 .9 2 2v15zm24 0c0 1.1-.9 2-2 2h-2c-1.1 0-2-.9-2-2v-15c0-1.1.9-2 2-2h2c1.1 0 2 .9 2 2v15zm-24-28c0 1.1-.9 2-2 2h-2c-1.1 0-2-.9-2-2v-15c0-1.1.9-2 2-2h2c1.1 0 2 .9 2 2v15zm24 0c0 1.1-.9 2-2 2h-2c-1.1 0-2-.9-2-2v-15c0-1.1.9-2 2-2h2c1.1 0 2 .9 2 2v15zM345 251c0-1.1-.3-2-.8-2h-7.6c-.5 0-.8.9-.8 2v2c0 1.1.3 2 .8 2s.8.9.8 2v9c0 1.1.9 2 2 2h2c1.1 0 2-.9 2-2v-9c0-1.1.3-2 .8-2s.8-.9.8-2v-2z"/><path class="st2" d="M358 277c0 1.1-.9 2-2 2h-31c-1.1 0-2-.9-2-2v-12c0-1.1.9-2 2-2h31c1.1 0 2 .9 2 2v12z"/><path class="st3" d="M378.5 294c0 1.1-.9 2-2 2h-2c-1.1 0-2-.9-2-2v-15c0-1.1.9-2 2-2h2c1.1 0 2 .9 2 2v15zm24 0c0 1.1-.9 2-2 2h-2c-1.1 0-2-.9-2-2v-15c0-1.1.9-2 2-2h2c1.1 0 2 .9 2 2v15zm-24-28c0 1.1-.9 2-2 2h-2c-1.1 0-2-.9-2-2v-15c0-1.1.9-2 2-2h2c1.1 0 2 .9 2 2v15zm24 0c0 1.1-.9 2-2 2h-2c-1.1 0-2-.9-2-2v-15c0-1.1.9-2 2-2h2c1.1 0 2 .9 2 2v15zM392 251c0-1.1-.3-2-.8-2h-7.6c-.4 0-.8.9-.8 2v2c0 1.1.3 2 .8 2 .4 0 .8.9.8 2v9c0 1.1.9 2 2 2h2c1.1 0 2-.9 2-2v-9c0-1.1.3-2 .8-2 .4 0 .8-.9.8-2v-2z"/><path class="st2" d="M405 277c0 1.1-.9 2-2 2h-31c-1.1 0-2-.9-2-2v-12c0-1.1.9-2 2-2h31c1.1 0 2 .9 2 2v12z"/><path class="st3" d="M382.5 330c0-1.1.9-2 2-2h2c1.1 0 2 .9 2 2v15c0 1.1-.9 2-2 2h-2c-1.1 0-2-.9-2-2v-15zm-24 0c0-1.1.9-2 2-2h2c1.1 0 2 .9 2 2v15c0 1.1-.9 2-2 2h-2c-1.1 0-2-.9-2-2v-15zm24 28c0-1.1.9-2 2-2h2c1.1 0 2 .9 2 2v15c0 1.1-.9 2-2 2h-2c-1.1 0-2-.9-2-2v-15zm-24 0c0-1.1.9-2 2-2h2c1.1 0 2 .9 2 2v15c0 1.1-.9 2-2 2h-2c-1.1 0-2-.9-2-2v-15zm10.5 15c0 1.1.3 2 .8 2h7.6c.4 0 .8-.9.8-2v-2c0-1.1-.3-2-.8-2-.4 0-.8-.9-.8-2v-9c0-1.1-.9-2-2-2h-2c-1.1 0-2 .9-2 2v9c0 1.1-.3 2-.8 2-.4 0-.8.9-.8 2v2z"/><path class="st2" d="M356 347c0-1.1.9-2 2-2h31c1.1 0 2 .9 2 2v12c0 1.1-.9 2-2 2h-31c-1.1 0-2-.9-2-2v-12z"/><path class="st3" d="M165 310.5c1.1 0 2 .9 2 2v2c0 1.1-.9 2-2 2h-15c-1.1 0-2-.9-2-2v-2c0-1.1.9-2 2-2h15zm0-24c1.1 0 2 .9 2 2v2c0 1.1-.9 2-2 2h-15c-1.1 0-2-.9-2-2v-2c0-1.1.9-2 2-2h15zm-28 24c1.1 0 2 .9 2 2v2c0 1.1-.9 2-2 2h-15c-1.1 0-2-.9-2-2v-2c0-1.1.9-2 2-2h15zm0-24c1.1 0 2 .9 2 2v2c0 1.1-.9 2-2 2h-15c-1.1 0-2-.9-2-2v-2c0-1.1.9-2 2-2h15zM122 297c-1.1 0-2 .3-2 .8v7.6c0 .5.9.8 2 .8h2c1.1 0 2-.3 2-.8s.9-.8 2-.8h9c1.1 0 2-.9 2-2v-2c0-1.1-.9-2-2-2h-9c-1.1 0-2-.3-2-.8s-.9-.8-2-.8h-2z"/><path class="st2" d="M148 284c1.1 0 2 .9 2 2v31c0 1.1-.9 2-2 2h-12c-1.1 0-2-.9-2-2v-31c0-1.1.9-2 2-2h12z"/><path class="st3" d="M161 123.5h-24c-1.1 0-2-.9-2-2v-4c0-1.1.9-2 2-2h24c1.1 0 2 .9 2 2v4c0 1.1-.9 2-2 2zm0-14.5h-24c-1.1 0-2-.9-2-2v-4c0-1.1.9-2 2-2h24c1.1 0 2 .9 2 2v4c0 1.1-.9 2-2 2zm0 29h-24c-1.1 0-2-.9-2-2v-4c0-1.1.9-2 2-2h24c1.1 0 2 .9 2 2v4c0 1.1-.9 2-2 2z"/><path class="st6" d="M141 98h16v43h-16z"/><path class="st3" d="M372 400.5h-18V397c0-1.1.9-2 2-2h14c1.1 0 2 .9 2 2v3.5zm0 19.4h-18v3.5c0 1.1.9 2 2 2h14c1.1 0 2-.9 2-2v-3.5z"/><path class="st2" d="M354 399.2h18v22.2h-18z"/><path class="st6" d="M238 354.5c0 1.1-.9 2-2 2h-67c-1.1 0-2-.9-2-2v-13c0-1.1.9-2 2-2h67c1.1 0 2 .9 2 2v13z"/><path class="st2" d="M230 361c0 1.1-.9 2-2 2h-51c-1.1 0-2-.9-2-2v-26c0-1.1.9-2 2-2h51c1.1 0 2 .9 2 2v26z"/><path class="st6" d="M334 384c0-7.3 1.6-13.8 4-18.1V343c0-1.1-.9-2-2-2h-78c-1.1 0-2 .9-2 2v22.9c2.4 4.3 4 10.8 4 18.1s-1.6 13.8-4 18.1V425c0 1.1.9 2 2 2h78c1.1 0 2-.9 2-2v-22.9c-2.4-4.3-4-10.8-4-18.1z"/><path class="st2" d="M256.8 367.5c2 4.2 3.2 10.1 3.2 16.5s-1.2 12.3-3.2 16.5h80.3c-2-4.2-3.2-10.1-3.2-16.5s1.2-12.3 3.2-16.5h-80.3z"/><path class="st3" d="M205 250l-17 35 17-8 17 8-17-35zm2 8.7l10.7 22.1-10.7-5v-17.1z"/><path d="M250.5 477h5.5V9h-88.4c-7.2 0-14.3-1.2-21-3.6l-5.4-1.9c-3.2-1.1-6.5-2-9.8-2.6H52.9C32.1 5.4 16.5 23.9 16.5 46v394c0 25.4 20.6 46 46 46h52.8c7.2 0 14.3-1.2 21-3.6l5.4-1.9c6.8-2.4 13.9-3.6 21-3.6h25.7c3.5 0 6.3 2.8 6.3 6.3V512s12-10 25-10 24.5 10 24.5 10v-28.8c.1-3.4 2.8-6.2 6.3-6.2zm-216-219c3 0 5.5 2.5 5.5 5.5s-2.5 5.5-5.5 5.5-5.5-2.5-5.5-5.5 2.5-5.5 5.5-5.5zm0 32c3 0 5.5 2.5 5.5 5.5s-2.5 5.5-5.5 5.5-5.5-2.5-5.5-5.5 2.5-5.5 5.5-5.5zM29 327.5c0-3 2.5-5.5 5.5-5.5s5.5 2.5 5.5 5.5-2.5 5.5-5.5 5.5-5.5-2.5-5.5-5.5zm33.5 135C49 462.5 38 451.5 38 438s11-24.5 24.5-24.5S87 424.5 87 438s-11 24.5-24.5 24.5zm5-172.5c3 0 5.5 2.5 5.5 5.5s-2.5 5.5-5.5 5.5-5.5-2.5-5.5-5.5 2.5-5.5 5.5-5.5zM62 263.5c0-3 2.5-5.5 5.5-5.5s5.5 2.5 5.5 5.5-2.5 5.5-5.5 5.5-5.5-2.5-5.5-5.5zm5.5 58.5c3 0 5.5 2.5 5.5 5.5s-2.5 5.5-5.5 5.5-5.5-2.5-5.5-5.5 2.5-5.5 5.5-5.5zm-5-249.5C49 72.5 38 61.5 38 48s11-24.5 24.5-24.5S87 34.5 87 48 76 72.5 62.5 72.5z" opacity=".15" fill="#444"/></svg>