<svg version="1.1" xmlns="http://www.w3.org/2000/svg" x="0" y="0" viewBox="0 0 512 512" xml:space="preserve"><style type="text/css">.st0{fill:#0074ae}.st1{fill:#ff8327}.st2{fill:#059dd2}.st3{fill:#ee3a24}.st4{fill:#2c9b47}</style><path class="st0" d="M80 68c0 6.6-5.4 12-12 12H12C5.4 80 0 74.6 0 68V12C0 5.4 5.4 0 12 0h56c6.6 0 12 5.4 12 12v56zm108 0c0 6.6-5.4 12-12 12h-56c-6.6 0-12-5.4-12-12V12c0-6.6 5.4-12 12-12h56c6.6 0 12 5.4 12 12v56zm108 0c0 6.6-5.4 12-12 12h-56c-6.6 0-12-5.4-12-12V12c0-6.6 5.4-12 12-12h56c6.6 0 12 5.4 12 12v56zm108 0c0 6.6-5.4 12-12 12h-56c-6.6 0-12-5.4-12-12V12c0-6.6 5.4-12 12-12h56c6.6 0 12 5.4 12 12v56zm108 0c0 6.6-5.4 12-12 12h-56c-6.6 0-12-5.4-12-12V12c0-6.6 5.4-12 12-12h56c6.6 0 12 5.4 12 12v56zM80 176c0 6.6-5.4 12-12 12H12c-6.6 0-12-5.4-12-12v-56c0-6.6 5.4-12 12-12h56c6.6 0 12 5.4 12 12v56z"/><path class="st1" d="M188 176c0 6.6-5.4 12-12 12h-56c-6.6 0-12-5.4-12-12v-56c0-6.6 5.4-12 12-12h56c6.6 0 12 5.4 12 12v56z"/><path class="st2" d="M296 176c0 6.6-5.4 12-12 12h-56c-6.6 0-12-5.4-12-12v-56c0-6.6 5.4-12 12-12h56c6.6 0 12 5.4 12 12v56z"/><path class="st3" d="M404 176c0 6.6-5.4 12-12 12h-56c-6.6 0-12-5.4-12-12v-56c0-6.6 5.4-12 12-12h56c6.6 0 12 5.4 12 12v56z"/><path class="st2" d="M512 176c0 6.6-5.4 12-12 12h-56c-6.6 0-12-5.4-12-12v-56c0-6.6 5.4-12 12-12h56c6.6 0 12 5.4 12 12v56z"/><path class="st0" d="M80 284c0 6.6-5.4 12-12 12H12c-6.6 0-12-5.4-12-12v-56c0-6.6 5.4-12 12-12h56c6.6 0 12 5.4 12 12v56z"/><path class="st4" d="M188 284c0 6.6-5.4 12-12 12h-56c-6.6 0-12-5.4-12-12v-56c0-6.6 5.4-12 12-12h56c6.6 0 12 5.4 12 12v56z"/><path class="st1" d="M296 284c0 6.6-5.4 12-12 12h-56c-6.6 0-12-5.4-12-12v-56c0-6.6 5.4-12 12-12h56c6.6 0 12 5.4 12 12v56z"/><path class="st2" d="M404 284c0 6.6-5.4 12-12 12h-56c-6.6 0-12-5.4-12-12v-56c0-6.6 5.4-12 12-12h56c6.6 0 12 5.4 12 12v56z"/><path class="st4" d="M512 284c0 6.6-5.4 12-12 12h-56c-6.6 0-12-5.4-12-12v-56c0-6.6 5.4-12 12-12h56c6.6 0 12 5.4 12 12v56z"/><path class="st0" d="M80 392c0 6.6-5.4 12-12 12H12c-6.6 0-12-5.4-12-12v-56c0-6.6 5.4-12 12-12h56c6.6 0 12 5.4 12 12v56z"/><path class="st4" d="M188 392c0 6.6-5.4 12-12 12h-56c-6.6 0-12-5.4-12-12v-56c0-6.6 5.4-12 12-12h56c6.6 0 12 5.4 12 12v56z"/><path class="st3" d="M296 392c0 6.6-5.4 12-12 12h-56c-6.6 0-12-5.4-12-12v-56c0-6.6 5.4-12 12-12h56c6.6 0 12 5.4 12 12v56z"/><path class="st1" d="M404 392c0 6.6-5.4 12-12 12h-56c-6.6 0-12-5.4-12-12v-56c0-6.6 5.4-12 12-12h56c6.6 0 12 5.4 12 12v56z"/><path class="st3" d="M512 392c0 6.6-5.4 12-12 12h-56c-6.6 0-12-5.4-12-12v-56c0-6.6 5.4-12 12-12h56c6.6 0 12 5.4 12 12v56z"/><path class="st0" d="M80 500c0 6.6-5.4 12-12 12H12c-6.6 0-12-5.4-12-12v-56c0-6.6 5.4-12 12-12h56c6.6 0 12 5.4 12 12v56z"/><path class="st2" d="M188 500c0 6.6-5.4 12-12 12h-56c-6.6 0-12-5.4-12-12v-56c0-6.6 5.4-12 12-12h56c6.6 0 12 5.4 12 12v56z"/><path class="st3" d="M296 500c0 6.6-5.4 12-12 12h-56c-6.6 0-12-5.4-12-12v-56c0-6.6 5.4-12 12-12h56c6.6 0 12 5.4 12 12v56z"/><path class="st4" d="M404 500c0 6.6-5.4 12-12 12h-56c-6.6 0-12-5.4-12-12v-56c0-6.6 5.4-12 12-12h56c6.6 0 12 5.4 12 12v56z"/><path class="st3" d="M512 500c0 6.6-5.4 12-12 12h-56c-6.6 0-12-5.4-12-12v-56c0-6.6 5.4-12 12-12h56c6.6 0 12 5.4 12 12v56z"/></svg>