<svg version="1.1" xmlns="http://www.w3.org/2000/svg" x="0" y="0" viewBox="0 0 512 512" xml:space="preserve"><path d="M496 448.3H16c-8.8 0-16-7.2-16-16V113.8h512v318.5c0 8.8-7.2 16-16 16z" fill="#36434f"/><path d="M512 113.8H0v-34c0-8.8 7.2-16 16-16h480c8.8 0 16 7.2 16 16v34zM32 146.3h96v18H32zm112 0h96v18h-96zm-80 36h80v18H64zm96 0h208v18H160zm224 0h16v18h-16zm-288 36h64v18H96zm80 0h64v18h-64zm-80 36h128v18H96zm144 0h128v18H240zm-144 36h48v18H96zm64 0h320v18H160zm-32 36h80v18h-80zm0 36h80v18h-80zm96 0h16v18h-16zm32 0h64v18h-64zm-160 36h48v18H96z" fill="#999"/></svg>