<svg xmlns="http://www.w3.org/2000/svg" viewBox="0 0 512 512" xml:space="preserve"><style>.st1{fill:#36434f}.st2{fill:#ddd}.st3{opacity:.15;fill:#444;enable-background:new}.st4{fill:#e0ac7e}.st5{fill:#a18267}.st6{opacity:.15;fill:#444}</style><path d="m414.7 25.2-317-.3c-26.5 0-48 21.4-48 48l-.4 391c0 26.5 21.4 48 48 48l317 .3c26.5 0 48-21.4 48-48l.4-391c0-26.5-21.5-48-48-48zM105.8 449.4c-17.1 0-31-13.9-31-31s13.9-31 31-31 31 13.9 31 31-13.9 31-31 31zm.3-300c-17.1 0-31-13.9-31-31s13.9-31 31-31 31 13.9 31 31-13.9 31-31 31zm299.7 300.2c-17.1 0-31-13.9-31-31s13.9-31 31-31 31 13.9 31 31c0 17.2-13.9 31.1-31 31zm.3-300c-17.1 0-31-13.9-31-31s13.9-31 31-31 31 13.9 31 31c0 17.2-13.9 31.1-31 31z" fill="#038387"/><path class="st1" d="M252.3 340.4H133.7c-6.7 0-12.1-5.4-12.1-12.1V209.7c0-6.7 5.4-12.1 12.1-12.1h118.6c6.7 0 12.1 5.4 12.1 12.1v118.6c0 6.7-5.4 12.1-12.1 12.1z"/><path class="st2" d="M138.1 366h-3.8c-.4 0-.8-.3-.8-.8v-26.5c0-.4.3-.8.8-.8h3.8c.4 0 .8.3.8.8v26.5c-.1.5-.4.8-.8.8z"/><path class="st3" d="M133.5 347.1h5.3v4.9h-5.3v-4.9zm0 10.2h5.3v1.9h-5.3v-1.9z"/><path class="st2" d="M145.6 366h-3.8c-.4 0-.8-.3-.8-.8v-26.5c0-.4.3-.8.8-.8h3.8c.4 0 .8.3.8.8v26.5c0 .5-.3.8-.8.8z"/><path class="st3" d="M141.1 347.1h5.3v4.9h-5.3v-4.9zm0 10.2h5.3v1.9h-5.3v-1.9z"/><path class="st2" d="M153.2 366h-3.8c-.4 0-.8-.3-.8-.8v-26.5c0-.4.3-.8.8-.8h3.8c.4 0 .8.3.8.8v26.5c0 .5-.4.8-.8.8z"/><path class="st3" d="M148.7 347.1h5.3v4.9h-5.3v-4.9zm0 10.2h5.3v1.9h-5.3v-1.9z"/><path class="st2" d="M160.8 366H157c-.4 0-.8-.3-.8-.8v-26.5c0-.4.3-.8.8-.8h3.8c.4 0 .8.3.8.8v26.5c0 .5-.4.8-.8.8z"/><path class="st3" d="M156.2 347.1h5.3v4.9h-5.3v-4.9zm0 10.2h5.3v1.9h-5.3v-1.9z"/><path class="st2" d="M168.4 366h-3.8c-.4 0-.8-.3-.8-.8v-26.5c0-.4.3-.8.8-.8h3.8c.4 0 .8.3.8.8v26.5c-.1.5-.4.8-.8.8z"/><path class="st3" d="M163.8 347.1h5.3v4.9h-5.3v-4.9zm0 10.2h5.3v1.9h-5.3v-1.9z"/><path class="st2" d="M175.9 366h-3.8c-.4 0-.8-.3-.8-.8v-26.5c0-.4.3-.8.8-.8h3.8c.4 0 .8.3.8.8v26.5c0 .5-.3.8-.8.8z"/><path class="st3" d="M171.4 347.1h5.3v4.9h-5.3v-4.9zm0 10.2h5.3v1.9h-5.3v-1.9z"/><path class="st2" d="M183.5 366h-3.8c-.4 0-.8-.3-.8-.8v-26.5c0-.4.3-.8.8-.8h3.8c.4 0 .8.3.8.8v26.5c0 .5-.4.8-.8.8z"/><path class="st3" d="M179 347.1h5.3v4.9H179v-4.9zm0 10.2h5.3v1.9H179v-1.9z"/><path class="st2" d="M191.1 366h-3.8c-.4 0-.8-.3-.8-.8v-26.5c0-.4.3-.8.8-.8h3.8c.4 0 .8.3.8.8v26.5c0 .5-.4.8-.8.8z"/><path class="st3" d="M186.6 347.1h5.3v4.9h-5.3v-4.9zm0 10.2h5.3v1.9h-5.3v-1.9z"/><path class="st2" d="M198.7 366h-3.8c-.4 0-.8-.3-.8-.8v-26.5c0-.4.3-.8.8-.8h3.8c.4 0 .8.3.8.8v26.5c-.1.5-.4.8-.8.8z"/><path class="st3" d="M194.1 347.1h5.3v4.9h-5.3v-4.9zm0 10.2h5.3v1.9h-5.3v-1.9z"/><path class="st2" d="M206.3 366h-3.8c-.4 0-.8-.3-.8-.8v-26.5c0-.4.3-.8.8-.8h3.8c.4 0 .8.3.8.8v26.5c-.1.5-.4.8-.8.8z"/><path class="st3" d="M201.7 347.1h5.3v4.9h-5.3v-4.9zm0 10.2h5.3v1.9h-5.3v-1.9z"/><path class="st2" d="M213.8 366H210c-.4 0-.8-.3-.8-.8v-26.5c0-.4.3-.8.8-.8h3.8c.4 0 .8.3.8.8v26.5c0 .5-.3.8-.8.8z"/><path class="st3" d="M209.3 347.1h5.3v4.9h-5.3v-4.9zm0 10.2h5.3v1.9h-5.3v-1.9z"/><path class="st2" d="M221.4 366h-3.8c-.4 0-.8-.3-.8-.8v-26.5c0-.4.3-.8.8-.8h3.8c.4 0 .8.3.8.8v26.5c0 .5-.4.8-.8.8z"/><path class="st3" d="M216.9 347.1h5.3v4.9h-5.3v-4.9zm0 10.2h5.3v1.9h-5.3v-1.9z"/><path class="st2" d="M229 366h-3.8c-.4 0-.8-.3-.8-.8v-26.5c0-.4.3-.8.8-.8h3.8c.4 0 .8.3.8.8v26.5c0 .5-.4.8-.8.8z"/><path class="st3" d="M224.4 347.1h5.3v4.9h-5.3v-4.9zm0 10.2h5.3v1.9h-5.3v-1.9z"/><path class="st2" d="M236.6 366h-3.8c-.4 0-.8-.3-.8-.8v-26.5c0-.4.3-.8.8-.8h3.8c.4 0 .8.3.8.8v26.5c-.1.5-.4.8-.8.8z"/><path class="st3" d="M232 347.1h5.3v4.9H232v-4.9zm0 10.2h5.3v1.9H232v-1.9z"/><path class="st2" d="M244.2 366h-3.8c-.4 0-.8-.3-.8-.8v-26.5c0-.4.3-.8.8-.8h3.8c.4 0 .8.3.8.8v26.5c-.1.5-.4.8-.8.8z"/><path class="st3" d="M239.6 347.1h5.3v4.9h-5.3v-4.9zm0 10.2h5.3v1.9h-5.3v-1.9z"/><path class="st2" d="M251.7 366h-3.8c-.4 0-.8-.3-.8-.8v-26.5c0-.4.3-.8.8-.8h3.8c.4 0 .8.3.8.8v26.5c0 .5-.4.8-.8.8z"/><path class="st3" d="M247.2 347.1h5.3v4.9h-5.3v-4.9zm0 10.2h5.3v1.9h-5.3v-1.9z"/><path class="st2" d="M247.9 172h3.8c.4 0 .8.3.8.8v26.5c0 .4-.3.8-.8.8h-3.8c-.4 0-.8-.3-.8-.8v-26.5c.1-.5.4-.8.8-.8z"/><path class="st3" d="M252.5 190.9h-5.3V186h5.3v4.9zm0-10.2h-5.3v-1.9h5.3v1.9z"/><path class="st2" d="M240.4 172h3.8c.4 0 .8.3.8.8v26.5c0 .4-.3.8-.8.8h-3.8c-.4 0-.8-.3-.8-.8v-26.5c0-.5.3-.8.8-.8z"/><path class="st3" d="M244.9 190.9h-5.3V186h5.3v4.9zm0-10.2h-5.3v-1.9h5.3v1.9z"/><path class="st2" d="M232.8 172h3.8c.4 0 .8.3.8.8v26.5c0 .4-.3.8-.8.8h-3.8c-.4 0-.8-.3-.8-.8v-26.5c0-.5.4-.8.8-.8z"/><path class="st3" d="M237.3 190.9H232V186h5.3v4.9zm0-10.2H232v-1.9h5.3v1.9z"/><path class="st2" d="M225.2 172h3.8c.4 0 .8.3.8.8v26.5c0 .4-.3.8-.8.8h-3.8c-.4 0-.8-.3-.8-.8v-26.5c0-.5.4-.8.8-.8z"/><path class="st3" d="M229.8 190.9h-5.3V186h5.3v4.9zm0-10.2h-5.3v-1.9h5.3v1.9z"/><path class="st2" d="M217.6 172h3.8c.4 0 .8.3.8.8v26.5c0 .4-.3.8-.8.8h-3.8c-.4 0-.8-.3-.8-.8v-26.5c.1-.5.4-.8.8-.8z"/><path class="st3" d="M222.2 190.9h-5.3V186h5.3v4.9zm0-10.2h-5.3v-1.9h5.3v1.9z"/><path class="st2" d="M210.1 172h3.8c.4 0 .8.3.8.8v26.5c0 .4-.3.8-.8.8h-3.8c-.4 0-.8-.3-.8-.8v-26.5c0-.5.3-.8.8-.8z"/><path class="st3" d="M214.6 190.9h-5.3V186h5.3v4.9zm0-10.2h-5.3v-1.9h5.3v1.9z"/><path class="st2" d="M202.5 172h3.8c.4 0 .8.3.8.8v26.5c0 .4-.3.8-.8.8h-3.8c-.4 0-.8-.3-.8-.8v-26.5c0-.5.4-.8.8-.8z"/><path class="st3" d="M207 190.9h-5.3V186h5.3v4.9zm0-10.2h-5.3v-1.9h5.3v1.9z"/><path class="st2" d="M194.9 172h3.8c.4 0 .8.3.8.8v26.5c0 .4-.3.8-.8.8h-3.8c-.4 0-.8-.3-.8-.8v-26.5c0-.5.4-.8.8-.8z"/><path class="st3" d="M199.4 190.9h-5.3V186h5.3v4.9zm0-10.2h-5.3v-1.9h5.3v1.9z"/><path class="st2" d="M187.3 172h3.8c.4 0 .8.3.8.8v26.5c0 .4-.3.8-.8.8h-3.8c-.4 0-.8-.3-.8-.8v-26.5c.1-.5.4-.8.8-.8z"/><path class="st3" d="M191.9 190.9h-5.3V186h5.3v4.9zm0-10.2h-5.3v-1.9h5.3v1.9z"/><path class="st2" d="M179.7 172h3.8c.4 0 .8.3.8.8v26.5c0 .4-.3.8-.8.8h-3.8c-.4 0-.8-.3-.8-.8v-26.5c.1-.5.4-.8.8-.8z"/><path class="st3" d="M184.3 190.9H179V186h5.3v4.9zm0-10.2H179v-1.9h5.3v1.9z"/><path class="st2" d="M172.2 172h3.8c.4 0 .8.3.8.8v26.5c0 .4-.3.8-.8.8h-3.8c-.4 0-.8-.3-.8-.8v-26.5c0-.5.3-.8.8-.8z"/><path class="st3" d="M176.7 190.9h-5.3V186h5.3v4.9zm0-10.2h-5.3v-1.9h5.3v1.9z"/><path class="st2" d="M164.6 172h3.8c.4 0 .8.3.8.8v26.5c0 .4-.3.8-.8.8h-3.8c-.4 0-.8-.3-.8-.8v-26.5c0-.5.4-.8.8-.8z"/><path class="st3" d="M169.1 190.9h-5.3V186h5.3v4.9zm0-10.2h-5.3v-1.9h5.3v1.9z"/><path class="st2" d="M157 172h3.8c.4 0 .8.3.8.8v26.5c0 .4-.3.8-.8.8H157c-.4 0-.8-.3-.8-.8v-26.5c0-.5.4-.8.8-.8z"/><path class="st3" d="M161.6 190.9h-5.3V186h5.3v4.9zm0-10.2h-5.3v-1.9h5.3v1.9z"/><path class="st2" d="M149.4 172h3.8c.4 0 .8.3.8.8v26.5c0 .4-.3.8-.8.8h-3.8c-.4 0-.8-.3-.8-.8v-26.5c.1-.5.4-.8.8-.8z"/><path class="st3" d="M154 190.9h-5.3V186h5.3v4.9zm0-10.2h-5.3v-1.9h5.3v1.9z"/><path class="st2" d="M141.8 172h3.8c.4 0 .8.3.8.8v26.5c0 .4-.3.8-.8.8h-3.8c-.4 0-.8-.3-.8-.8v-26.5c.1-.5.4-.8.8-.8z"/><path class="st3" d="M146.4 190.9h-5.3V186h5.3v4.9zm0-10.2h-5.3v-1.9h5.3v1.9z"/><path class="st2" d="M134.3 172h3.8c.4 0 .8.3.8.8v26.5c0 .4-.3.8-.8.8h-3.8c-.4 0-.8-.3-.8-.8v-26.5c0-.5.4-.8.8-.8z"/><path class="st3" d="M138.8 190.9h-5.3V186h5.3v4.9zm0-10.2h-5.3v-1.9h5.3v1.9z"/><path class="st2" d="M124 323.9v3.8c0 .4-.3.8-.8.8H96.8c-.4 0-.8-.3-.8-.8v-3.8c0-.4.3-.8.8-.8h26.5c.4.1.7.4.7.8z"/><path class="st3" d="M105.1 328.5v-5.3h4.9v5.3h-4.9zm10.2 0v-5.3h1.9v5.3h-1.9z"/><path class="st2" d="M124 316.4v3.8c0 .4-.3.8-.8.8H96.8c-.4 0-.8-.3-.8-.8v-3.8c0-.4.3-.8.8-.8h26.5c.4 0 .7.3.7.8z"/><path class="st3" d="M105.1 320.9v-5.3h4.9v5.3h-4.9zm10.2 0v-5.3h1.9v5.3h-1.9z"/><path class="st2" d="M124 308.8v3.8c0 .4-.3.8-.8.8H96.8c-.4 0-.8-.3-.8-.8v-3.8c0-.4.3-.8.8-.8h26.5c.4 0 .7.4.7.8z"/><path class="st3" d="M105.1 313.3V308h4.9v5.3h-4.9zm10.2 0V308h1.9v5.3h-1.9z"/><path class="st2" d="M124 301.2v3.8c0 .4-.3.8-.8.8H96.8c-.4 0-.8-.3-.8-.8v-3.8c0-.4.3-.8.8-.8h26.5c.4 0 .7.4.7.8z"/><path class="st3" d="M105.1 305.8v-5.3h4.9v5.3h-4.9zm10.2 0v-5.3h1.9v5.3h-1.9z"/><path class="st2" d="M124 293.6v3.8c0 .4-.3.8-.8.8H96.8c-.4 0-.8-.3-.8-.8v-3.8c0-.4.3-.8.8-.8h26.5c.4.1.7.4.7.8z"/><path class="st3" d="M105.1 298.2v-5.3h4.9v5.3h-4.9zm10.2 0v-5.3h1.9v5.3h-1.9z"/><path class="st2" d="M124 286.1v3.8c0 .4-.3.8-.8.8H96.8c-.4 0-.8-.3-.8-.8v-3.8c0-.4.3-.8.8-.8h26.5c.4 0 .7.3.7.8z"/><path class="st3" d="M105.1 290.6v-5.3h4.9v5.3h-4.9zm10.2 0v-5.3h1.9v5.3h-1.9z"/><path class="st2" d="M124 278.5v3.8c0 .4-.3.8-.8.8H96.8c-.4 0-.8-.3-.8-.8v-3.8c0-.4.3-.8.8-.8h26.5c.4 0 .7.4.7.8z"/><path class="st3" d="M105.1 283v-5.3h4.9v5.3h-4.9zm10.2 0v-5.3h1.9v5.3h-1.9z"/><path class="st2" d="M124 270.9v3.8c0 .4-.3.8-.8.8H96.8c-.4 0-.8-.3-.8-.8v-3.8c0-.4.3-.8.8-.8h26.5c.4 0 .7.4.7.8z"/><path class="st3" d="M105.1 275.4v-5.3h4.9v5.3h-4.9zm10.2 0v-5.3h1.9v5.3h-1.9z"/><path class="st2" d="M124 263.3v3.8c0 .4-.3.8-.8.8H96.8c-.4 0-.8-.3-.8-.8v-3.8c0-.4.3-.8.8-.8h26.5c.4.1.7.4.7.8z"/><path class="st3" d="M105.1 267.9v-5.3h4.9v5.3h-4.9zm10.2 0v-5.3h1.9v5.3h-1.9z"/><path class="st2" d="M124 255.7v3.8c0 .4-.3.8-.8.8H96.8c-.4 0-.8-.3-.8-.8v-3.8c0-.4.3-.8.8-.8h26.5c.4.1.7.4.7.8z"/><path class="st3" d="M105.1 260.3V255h4.9v5.3h-4.9zm10.2 0V255h1.9v5.3h-1.9z"/><path class="st2" d="M124 248.2v3.8c0 .4-.3.8-.8.8H96.8c-.4 0-.8-.3-.8-.8v-3.8c0-.4.3-.8.8-.8h26.5c.4 0 .7.3.7.8z"/><path class="st3" d="M105.1 252.7v-5.3h4.9v5.3h-4.9zm10.2 0v-5.3h1.9v5.3h-1.9z"/><path class="st2" d="M124 240.6v3.8c0 .4-.3.8-.8.8H96.8c-.4 0-.8-.3-.8-.8v-3.8c0-.4.3-.8.8-.8h26.5c.4 0 .7.4.7.8z"/><path class="st3" d="M105.1 245.1v-5.3h4.9v5.3h-4.9zm10.2 0v-5.3h1.9v5.3h-1.9z"/><path class="st2" d="M124 233v3.8c0 .4-.3.8-.8.8H96.8c-.4 0-.8-.3-.8-.8V233c0-.4.3-.8.8-.8h26.5c.4 0 .7.4.7.8z"/><path class="st3" d="M105.1 237.6v-5.3h4.9v5.3h-4.9zm10.2 0v-5.3h1.9v5.3h-1.9z"/><path class="st2" d="M124 225.4v3.8c0 .4-.3.8-.8.8H96.8c-.4 0-.8-.3-.8-.8v-3.8c0-.4.3-.8.8-.8h26.5c.4.1.7.4.7.8z"/><path class="st3" d="M105.1 230v-5.3h4.9v5.3h-4.9zm10.2 0v-5.3h1.9v5.3h-1.9z"/><path class="st2" d="M124 217.8v3.8c0 .4-.3.8-.8.8H96.8c-.4 0-.8-.3-.8-.8v-3.8c0-.4.3-.8.8-.8h26.5c.4.1.7.4.7.8z"/><path class="st3" d="M105.1 222.4v-5.3h4.9v5.3h-4.9zm10.2 0v-5.3h1.9v5.3h-1.9z"/><path class="st2" d="M124 210.3v3.8c0 .4-.3.8-.8.8H96.8c-.4 0-.8-.3-.8-.8v-3.8c0-.4.3-.8.8-.8h26.5c.4 0 .7.4.7.8z"/><path class="st3" d="M105.1 214.8v-5.3h4.9v5.3h-4.9zm10.2 0v-5.3h1.9v5.3h-1.9z"/><path class="st2" d="M262 214.1v-3.8c0-.4.3-.8.8-.8h26.5c.4 0 .8.3.8.8v3.8c0 .4-.3.8-.8.8h-26.5c-.5-.1-.8-.4-.8-.8z"/><path class="st3" d="M280.9 209.5v5.3H276v-5.3h4.9zm-10.2 0v5.3h-1.9v-5.3h1.9z"/><path class="st2" d="M262 221.6v-3.8c0-.4.3-.8.8-.8h26.5c.4 0 .8.3.8.8v3.8c0 .4-.3.8-.8.8h-26.5c-.5 0-.8-.3-.8-.8z"/><path class="st3" d="M280.9 217.1v5.3H276v-5.3h4.9zm-10.2 0v5.3h-1.9v-5.3h1.9z"/><path class="st2" d="M262 229.2v-3.8c0-.4.3-.8.8-.8h26.5c.4 0 .8.3.8.8v3.8c0 .4-.3.8-.8.8h-26.5c-.5 0-.8-.4-.8-.8z"/><path class="st3" d="M280.9 224.7v5.3H276v-5.3h4.9zm-10.2 0v5.3h-1.9v-5.3h1.9z"/><path class="st2" d="M262 236.8V233c0-.4.3-.8.8-.8h26.5c.4 0 .8.3.8.8v3.8c0 .4-.3.8-.8.8h-26.5c-.5 0-.8-.4-.8-.8z"/><path class="st3" d="M280.9 232.2v5.3H276v-5.3h4.9zm-10.2 0v5.3h-1.9v-5.3h1.9z"/><path class="st2" d="M262 244.4v-3.8c0-.4.3-.8.8-.8h26.5c.4 0 .8.3.8.8v3.8c0 .4-.3.8-.8.8h-26.5c-.5-.1-.8-.4-.8-.8z"/><path class="st3" d="M280.9 239.8v5.3H276v-5.3h4.9zm-10.2 0v5.3h-1.9v-5.3h1.9z"/><path class="st2" d="M262 251.9v-3.8c0-.4.3-.8.8-.8h26.5c.4 0 .8.3.8.8v3.8c0 .4-.3.8-.8.8h-26.5c-.5 0-.8-.3-.8-.8z"/><path class="st3" d="M280.9 247.4v5.3H276v-5.3h4.9zm-10.2 0v5.3h-1.9v-5.3h1.9z"/><path class="st2" d="M262 259.5v-3.8c0-.4.3-.8.8-.8h26.5c.4 0 .8.3.8.8v3.8c0 .4-.3.8-.8.8h-26.5c-.5 0-.8-.4-.8-.8z"/><path class="st3" d="M280.9 255v5.3H276V255h4.9zm-10.2 0v5.3h-1.9V255h1.9z"/><path class="st2" d="M262 267.1v-3.8c0-.4.3-.8.8-.8h26.5c.4 0 .8.3.8.8v3.8c0 .4-.3.8-.8.8h-26.5c-.5 0-.8-.4-.8-.8z"/><path class="st3" d="M280.9 262.6v5.3H276v-5.3h4.9zm-10.2 0v5.3h-1.9v-5.3h1.9z"/><path class="st2" d="M262 274.7v-3.8c0-.4.3-.8.8-.8h26.5c.4 0 .8.3.8.8v3.8c0 .4-.3.8-.8.8h-26.5c-.5-.1-.8-.4-.8-.8z"/><path class="st3" d="M280.9 270.1v5.3H276v-5.3h4.9zm-10.2 0v5.3h-1.9v-5.3h1.9z"/><path class="st2" d="M262 282.3v-3.8c0-.4.3-.8.8-.8h26.5c.4 0 .8.3.8.8v3.8c0 .4-.3.8-.8.8h-26.5c-.5-.1-.8-.4-.8-.8z"/><path class="st3" d="M280.9 277.7v5.3H276v-5.3h4.9zm-10.2 0v5.3h-1.9v-5.3h1.9z"/><path class="st2" d="M262 289.8V286c0-.4.3-.8.8-.8h26.5c.4 0 .8.3.8.8v3.8c0 .4-.3.8-.8.8h-26.5c-.5 0-.8-.3-.8-.8z"/><path class="st3" d="M280.9 285.3v5.3H276v-5.3h4.9zm-10.2 0v5.3h-1.9v-5.3h1.9z"/><path class="st2" d="M262 297.4v-3.8c0-.4.3-.8.8-.8h26.5c.4 0 .8.3.8.8v3.8c0 .4-.3.8-.8.8h-26.5c-.5 0-.8-.4-.8-.8z"/><path class="st3" d="M280.9 292.9v5.3H276v-5.3h4.9zm-10.2 0v5.3h-1.9v-5.3h1.9z"/><path class="st2" d="M262 305v-3.8c0-.4.3-.8.8-.8h26.5c.4 0 .8.3.8.8v3.8c0 .4-.3.8-.8.8h-26.5c-.5 0-.8-.4-.8-.8z"/><path class="st3" d="M280.9 300.4v5.3H276v-5.3h4.9zm-10.2 0v5.3h-1.9v-5.3h1.9z"/><path class="st2" d="M262 312.6v-3.8c0-.4.3-.8.8-.8h26.5c.4 0 .8.3.8.8v3.8c0 .4-.3.8-.8.8h-26.5c-.5-.1-.8-.4-.8-.8z"/><path class="st3" d="M280.9 308v5.3H276V308h4.9zm-10.2 0v5.3h-1.9V308h1.9z"/><path class="st2" d="M262 320.2v-3.8c0-.4.3-.8.8-.8h26.5c.4 0 .8.3.8.8v3.8c0 .4-.3.8-.8.8h-26.5c-.5-.1-.8-.4-.8-.8z"/><path class="st3" d="M280.9 315.6v5.3H276v-5.3h4.9zm-10.2 0v5.3h-1.9v-5.3h1.9z"/><path class="st2" d="M262 327.7v-3.8c0-.4.3-.8.8-.8h26.5c.4 0 .8.3.8.8v3.8c0 .4-.3.8-.8.8h-26.5c-.5 0-.8-.4-.8-.8z"/><path class="st3" d="M280.9 323.2v5.3H276v-5.3h4.9zm-10.2 0v5.3h-1.9v-5.3h1.9z"/><path class="st1" d="M351.9 481h-76.8c-1.1 0-2.1-.9-2.1-2.1V401c0-1.1.9-2.1 2.1-2.1h76.8c1.1 0 2.1.9 2.1 2.1v77.9c0 1.2-1 2.1-2.1 2.1z"/><path class="st2" d="M286 506h-7c-1.1 0-2.1-.9-2.1-2.1v-25.8c0-1.1.9-2.1 2.1-2.1h7c1.1 0 2.1.9 2.1 2.1v25.8c0 1.2-.9 2.1-2.1 2.1zm20.6 0h-7c-1.1 0-2.1-.9-2.1-2.1v-25.8c0-1.1.9-2.1 2.1-2.1h7c1.1 0 2.1.9 2.1 2.1v25.8c0 1.2-.9 2.1-2.1 2.1zm20.7 0h-7c-1.1 0-2.1-.9-2.1-2.1v-25.8c0-1.1.9-2.1 2.1-2.1h7c1.1 0 2.1.9 2.1 2.1v25.8c-.1 1.2-1 2.1-2.1 2.1zm20.6 0h-7c-1.1 0-2.1-.9-2.1-2.1v-25.8c0-1.1.9-2.1 2.1-2.1h7c1.1 0 2.1.9 2.1 2.1v25.8c0 1.2-1 2.1-2.1 2.1zM286 403.9h-7c-1.1 0-2.1-.9-2.1-2.1V376c0-1.1.9-2.1 2.1-2.1h7c1.1 0 2.1.9 2.1 2.1v25.8c0 1.2-.9 2.1-2.1 2.1zm20.6 0h-7c-1.1 0-2.1-.9-2.1-2.1V376c0-1.1.9-2.1 2.1-2.1h7c1.1 0 2.1.9 2.1 2.1v25.8c0 1.2-.9 2.1-2.1 2.1zm20.7 0h-7c-1.1 0-2.1-.9-2.1-2.1V376c0-1.1.9-2.1 2.1-2.1h7c1.1 0 2.1.9 2.1 2.1v25.8c-.1 1.2-1 2.1-2.1 2.1zm20.6 0h-7c-1.1 0-2.1-.9-2.1-2.1V376c0-1.1.9-2.1 2.1-2.1h7c1.1 0 2.1.9 2.1 2.1v25.8c0 1.2-1 2.1-2.1 2.1z"/><path class="st4" d="M406 452c-18.5 0-33.5-15-33.5-33.5s15-33.5 33.5-33.5 33.5 15 33.5 33.5-15 33.5-33.5 33.5zm0-62c-15.7 0-28.5 12.8-28.5 28.5S390.3 447 406 447s28.5-12.8 28.5-28.5S421.7 390 406 390zm-300 62c-18.5 0-33.5-15-33.5-33.5S87.5 385 106 385s33.5 15 33.5 33.5-15 33.5-33.5 33.5zm0-62c-15.7 0-28.5 12.8-28.5 28.5S90.3 447 106 447s28.5-12.8 28.5-28.5S121.7 390 106 390zm300-238c-18.5 0-33.5-15-33.5-33.5S387.5 85 406 85s33.5 15 33.5 33.5-15 33.5-33.5 33.5zm0-62c-15.7 0-28.5 12.8-28.5 28.5S390.3 147 406 147s28.5-12.8 28.5-28.5S421.7 90 406 90zm-300 62c-18.5 0-33.5-15-33.5-33.5S87.5 85 106 85s33.5 15 33.5 33.5-15 33.5-33.5 33.5zm0-62c-15.7 0-28.5 12.8-28.5 28.5S90.3 147 106 147s28.5-12.8 28.5-28.5S121.7 90 106 90zm313 97.5h-11c-4.4 0-8-3.6-8-8v-2c0-4.4 3.6-8 8-8h11c4.4 0 8 3.6 8 8v2c0 4.4-3.6 8-8 8zm35.5 0h-11c-4.4 0-8-3.6-8-8v-2c0-4.4 3.6-8 8-8h11c4.4 0 8 3.6 8 8v2c0 4.4-3.6 8-8 8zM419 222.7h-11c-4.4 0-8-3.6-8-8v-2c0-4.4 3.6-8 8-8h11c4.4 0 8 3.6 8 8v2c0 4.4-3.6 8-8 8zm35.5 0h-11c-4.4 0-8-3.6-8-8v-2c0-4.4 3.6-8 8-8h11c4.4 0 8 3.6 8 8v2c0 4.4-3.6 8-8 8zM419 257.9h-11c-4.4 0-8-3.6-8-8v-2c0-4.4 3.6-8 8-8h11c4.4 0 8 3.6 8 8v2c0 4.4-3.6 8-8 8zm35.5 0h-11c-4.4 0-8-3.6-8-8v-2c0-4.4 3.6-8 8-8h11c4.4 0 8 3.6 8 8v2c0 4.4-3.6 8-8 8zM419 293.1h-11c-4.4 0-8-3.6-8-8v-2c0-4.4 3.6-8 8-8h11c4.4 0 8 3.6 8 8v2c0 4.4-3.6 8-8 8zm35.5 0h-11c-4.4 0-8-3.6-8-8v-2c0-4.4 3.6-8 8-8h11c4.4 0 8 3.6 8 8v2c0 4.4-3.6 8-8 8zM419 328.3h-11c-4.4 0-8-3.6-8-8v-2c0-4.4 3.6-8 8-8h11c4.4 0 8 3.6 8 8v2c0 4.4-3.6 8-8 8zm35.5 0h-11c-4.4 0-8-3.6-8-8v-2c0-4.4 3.6-8 8-8h11c4.4 0 8 3.6 8 8v2c0 4.4-3.6 8-8 8zM419 363.5h-11c-4.4 0-8-3.6-8-8v-2c0-4.4 3.6-8 8-8h11c4.4 0 8 3.6 8 8v2c0 4.4-3.6 8-8 8zm35.5 0h-11c-4.4 0-8-3.6-8-8v-2c0-4.4 3.6-8 8-8h11c4.4 0 8 3.6 8 8v2c0 4.4-3.6 8-8 8zm-92.4-194.4h26v81h-26zm-.2 112h26v81h-26zM153.6 68.3v11c0 4.4-3.6 8-8 8h-2c-4.4 0-8-3.6-8-8v-11c0-4.4 3.6-8 8-8h2c4.5 0 8 3.6 8 8zm0-35.5v11c0 4.4-3.6 8-8 8h-2c-4.4 0-8-3.6-8-8v-11c0-4.4 3.6-8 8-8h2c4.5.1 8 3.6 8 8zm32.3 35.5v11c0 4.4-3.6 8-8 8h-2c-4.4 0-8-3.6-8-8v-11c0-4.4 3.6-8 8-8h2c4.4 0 8 3.6 8 8zm0-35.5v11c0 4.4-3.6 8-8 8h-2c-4.4 0-8-3.6-8-8v-11c0-4.4 3.6-8 8-8h2c4.4.1 8 3.6 8 8zM396 37v26c0 4.4-3.6 8-8 8h-10c-4.4 0-8-3.6-8-8V37c0-4.4 3.6-8 8-8h10c4.4 0 8 3.6 8 8zM96 25h24v46H96zm-14 2.5c-11.1 3.8-20.3 11.6-26 21.6V74h26V27.5zm326-2.4V71h24V28.4c-5.4-2.1-11.2-3.2-17.3-3.2l-6.7-.1z"/><circle class="st4" cx="241.5" cy="117.5" r="8.5"/><circle class="st4" cx="261.5" cy="117.5" r="8.5"/><circle class="st4" cx="281.5" cy="117.5" r="8.5"/><circle class="st4" cx="318.5" cy="155.5" r="8.5"/><circle class="st4" cx="341.5" cy="155.5" r="8.5"/><circle class="st4" cx="314.5" cy="117.5" r="8.5"/><circle class="st4" cx="286.5" cy="167.5" r="8.5"/><circle class="st4" cx="310.5" cy="249.5" r="8.5"/><path class="st1" d="M248 467h-49.3c-2.8 0-5-2.3-5-5v-49.3c0-2.8 2.3-5 5-5H248c2.8 0 5 2.3 5 5V462c0 2.7-2.3 5-5 5z"/><path class="st2" d="M195.3 453.3v3.6c0 .4-.1.7-.2.7h-8.6c-.1 0-.2-.3-.2-.7v-3.6c0-.4.1-.7.2-.7h8.6c.1 0 .2.3.2.7zm0-7.1v3.6c0 .4-.1.7-.2.7h-8.6c-.1 0-.2-.3-.2-.7v-3.6c0-.4.1-.7.2-.7h8.6c.1 0 .2.3.2.7zm0-7.1v3.6c0 .4-.1.7-.2.7h-8.6c-.1 0-.2-.3-.2-.7v-3.6c0-.4.1-.7.2-.7h8.6c.1 0 .2.3.2.7zm0-7.1v3.6c0 .4-.1.7-.2.7h-8.6c-.1 0-.2-.3-.2-.7V432c0-.4.1-.7.2-.7h8.6c.1 0 .2.3.2.7zm0-7.1v3.6c0 .4-.1.7-.2.7h-8.6c-.1 0-.2-.3-.2-.7v-3.6c0-.4.1-.7.2-.7h8.6c.1 0 .2.3.2.7zm0-7.1v3.6c0 .4-.1.7-.2.7h-8.6c-.1 0-.2-.3-.2-.7v-3.6c0-.4.1-.7.2-.7h8.6c.1-.1.2.3.2.7zm65 35.5v3.6c0 .4-.1.7-.2.7h-8.6c-.1 0-.2-.3-.2-.7v-3.6c0-.4.1-.7.2-.7h8.6c.1 0 .2.3.2.7zm0-7.1v3.6c0 .4-.1.7-.2.7h-8.6c-.1 0-.2-.3-.2-.7v-3.6c0-.4.1-.7.2-.7h8.6c.1 0 .2.3.2.7zm0-7.1v3.6c0 .4-.1.7-.2.7h-8.6c-.1 0-.2-.3-.2-.7v-3.6c0-.4.1-.7.2-.7h8.6c.1 0 .2.3.2.7zm0-7.1v3.6c0 .4-.1.7-.2.7h-8.6c-.1 0-.2-.3-.2-.7V432c0-.4.1-.7.2-.7h8.6c.1 0 .2.3.2.7zm0-7.1v3.6c0 .4-.1.7-.2.7h-8.6c-.1 0-.2-.3-.2-.7v-3.6c0-.4.1-.7.2-.7h8.6c.1 0 .2.3.2.7zm0-7.1v3.6c0 .4-.1.7-.2.7h-8.6c-.1 0-.2-.3-.2-.7v-3.6c0-.4.1-.7.2-.7h8.6c.1-.1.2.3.2.7zm-21 47.5h3.6c.4 0 .7.1.7.2v8.6c0 .1-.3.2-.7.2h-3.6c-.4 0-.7-.1-.7-.2v-8.6c0-.1.3-.2.7-.2zm-7.1 0h3.6c.4 0 .7.1.7.2v8.6c0 .1-.3.2-.7.2h-3.6c-.4 0-.7-.1-.7-.2v-8.6c0-.1.3-.2.7-.2zm-7.1 0h3.6c.4 0 .7.1.7.2v8.6c0 .1-.3.2-.7.2h-3.6c-.4 0-.7-.1-.7-.2v-8.6c0-.1.3-.2.7-.2zm-7.1 0h3.6c.4 0 .7.1.7.2v8.6c0 .1-.3.2-.7.2H218c-.4 0-.7-.1-.7-.2v-8.6c0-.1.3-.2.7-.2zm-7.1 0h3.6c.4 0 .7.1.7.2v8.6c0 .1-.3.2-.7.2h-3.6c-.4 0-.7-.1-.7-.2v-8.6c0-.1.3-.2.7-.2zm-7.1 0h3.6c.4 0 .7.1.7.2v8.6c0 .1-.3.2-.7.2h-3.6c-.4 0-.7-.1-.7-.2v-8.6c-.1-.1.3-.2.7-.2zm35.5-65h3.6c.4 0 .7.1.7.2v8.6c0 .1-.3.2-.7.2h-3.6c-.4 0-.7-.1-.7-.2v-8.6c0-.1.3-.2.7-.2zm-7.1 0h3.6c.4 0 .7.1.7.2v8.6c0 .1-.3.2-.7.2h-3.6c-.4 0-.7-.1-.7-.2v-8.6c0-.1.3-.2.7-.2zm-7.1 0h3.6c.4 0 .7.1.7.2v8.6c0 .1-.3.2-.7.2h-3.6c-.4 0-.7-.1-.7-.2v-8.6c0-.1.3-.2.7-.2zm-7.1 0h3.6c.4 0 .7.1.7.2v8.6c0 .1-.3.2-.7.2H218c-.4 0-.7-.1-.7-.2v-8.6c0-.1.3-.2.7-.2zm-7.1 0h3.6c.4 0 .7.1.7.2v8.6c0 .1-.3.2-.7.2h-3.6c-.4 0-.7-.1-.7-.2v-8.6c0-.1.3-.2.7-.2zm-7.1 0h3.6c.4 0 .7.1.7.2v8.6c0 .1-.3.2-.7.2h-3.6c-.4 0-.7-.1-.7-.2v-8.6c-.1-.1.3-.2.7-.2z"/><path class="st5" d="M224 0h86v8h-86z"/><path class="st4" d="M322 82H214c-1.1 0-2-.9-2-2V8c0-1.1.9-2 2-2h108c1.1 0 2 .9 2 2v72c0 1.1-.9 2-2 2z"/><path class="st5" d="M236.5 46h-7c-1.7 0-3-1.3-3-3V21c0-1.7 1.3-3 3-3h7c1.7 0 3 1.3 3 3v22c0 1.7-1.3 3-3 3z"/><path class="st6" d="M226.5 37v6c0 1.7 1.3 3 3 3h7c1.7 0 3-1.3 3-3v-6h-13z"/><path class="st5" d="M306.5 46h-7c-1.7 0-3-1.3-3-3V21c0-1.7 1.3-3 3-3h7c1.7 0 3 1.3 3 3v22c0 1.7-1.3 3-3 3z"/><path class="st6" d="M296.5 37v6c0 1.7 1.3 3 3 3h7c1.7 0 3-1.3 3-3v-6h-13z"/><path class="st5" d="M258.5 82V67c0-1.1-.9-2-2-2H252c-1.1 0-2 .9-2 2s-.9 2-2 2h-9.6c-1.7 0-2.6 2-1.5 3.3l3.1 3.6c.6.7 1 1.7 1 2.6V82h17.5zm19 0V67c0-1.1.9-2 2-2h4.5c1.1 0 2 .9 2 2s.9 2 2 2h9.6c1.7 0 2.6 2 1.5 3.3l-3.1 3.6c-.6.7-1 1.7-1 2.6V82h-17.5z"/><path class="st2" d="M358 90h-23c-1.1 0-2-.9-2-2v-7c0-1.1.9-2 2-2h23c1.1 0 2 .9 2 2v7c0 1.1-.9 2-2 2z"/><path class="st1" d="M341.5 79h10v11h-10z"/><path class="st2" d="M358 104.7h-23c-1.1 0-2-.9-2-2v-7c0-1.1.9-2 2-2h23c1.1 0 2 .9 2 2v7c0 1.1-.9 2-2 2z"/><path class="st1" d="M341.5 93.7h10v11h-10z"/><path class="st2" d="M358 119.3h-23c-1.1 0-2-.9-2-2v-7c0-1.1.9-2 2-2h23c1.1 0 2 .9 2 2v7c0 1.1-.9 2-2 2z"/><path class="st1" d="M341.5 108.3h10v11h-10z"/><path class="st2" d="M358 134h-23c-1.1 0-2-.9-2-2v-7c0-1.1.9-2 2-2h23c1.1 0 2 .9 2 2v7c0 1.1-.9 2-2 2z"/><path class="st1" d="M341.5 123h10v11h-10z"/><path class="st2" d="M80 253.7H57c-1.1 0-2-.9-2-2v-7c0-1.1.9-2 2-2h23c1.1 0 2 .9 2 2v7c0 1.1-.9 2-2 2z"/><path class="st1" d="M63.5 242.7h10v11h-10z"/><path class="st2" d="M80 268.3H57c-1.1 0-2-.9-2-2v-7c0-1.1.9-2 2-2h23c1.1 0 2 .9 2 2v7c0 1.1-.9 2-2 2z"/><path class="st1" d="M63.5 257.3h10v11h-10z"/><path class="st2" d="M80 283H57c-1.1 0-2-.9-2-2v-7c0-1.1.9-2 2-2h23c1.1 0 2 .9 2 2v7c0 1.1-.9 2-2 2z"/><path class="st1" d="M63.5 272h10v11h-10z"/><path class="st2" d="M80 168.7H57c-1.1 0-2-.9-2-2v-7c0-1.1.9-2 2-2h23c1.1 0 2 .9 2 2v7c0 1.1-.9 2-2 2z"/><path class="st1" d="M63.5 157.7h10v11h-10z"/><path class="st2" d="M80 183.3H57c-1.1 0-2-.9-2-2v-7c0-1.1.9-2 2-2h23c1.1 0 2 .9 2 2v7c0 1.1-.9 2-2 2z"/><path class="st1" d="M63.5 172.3h10v11h-10z"/><path class="st2" d="M80 313H57c-1.1 0-2-.9-2-2v-7c0-1.1.9-2 2-2h23c1.1 0 2 .9 2 2v7c0 1.1-.9 2-2 2z"/><path class="st1" d="M63.5 302h10v11h-10z"/><path class="st2" d="M172 151.7h-23c-1.1 0-2-.9-2-2v-7c0-1.1.9-2 2-2h23c1.1 0 2 .9 2 2v7c0 1.1-.9 2-2 2z"/><path class="st1" d="M155.5 140.7h10v11h-10z"/><path class="st2" d="M172 166.3h-23c-1.1 0-2-.9-2-2v-7c0-1.1.9-2 2-2h23c1.1 0 2 .9 2 2v7c0 1.1-.9 2-2 2z"/><path class="st1" d="M155.5 155.3h10v11h-10z"/><path class="st2" d="M236 394h-23c-1.1 0-2-.9-2-2v-7c0-1.1.9-2 2-2h23c1.1 0 2 .9 2 2v7c0 1.1-.9 2-2 2z"/><path class="st1" d="M219.5 383h10v11h-10z"/><path class="st2" d="M266 394h-23c-1.1 0-2-.9-2-2v-7c0-1.1.9-2 2-2h23c1.1 0 2 .9 2 2v7c0 1.1-.9 2-2 2z"/><path class="st1" d="M249.5 383h10v11h-10z"/><path class="st2" d="M175 428v23c0 1.1-.9 2-2 2h-7c-1.1 0-2-.9-2-2v-23c0-1.1.9-2 2-2h7c1.1 0 2 .9 2 2z"/><path class="st1" d="M164 444.5v-10h11v10z"/><path class="st2" d="M175 397v23c0 1.1-.9 2-2 2h-7c-1.1 0-2-.9-2-2v-23c0-1.1.9-2 2-2h7c1.1 0 2 .9 2 2z"/><path class="st1" d="M164 413.5v-10h11v10z"/><path class="st2" d="m154.7 395.5-16.3-16.3c-.8-.8-.8-2 0-2.8l4.9-4.9c.8-.8 2-.8 2.8 0l16.3 16.3c.8.8.8 2 0 2.8l-4.9 4.9c-.7.8-2 .8-2.8 0z"/><path class="st1" d="m150.855 376.072 7.071 7.07-7.778 7.779-7.071-7.071z"/><path class="st2" d="M227 493h-23c-1.1 0-2-.9-2-2v-7c0-1.1.9-2 2-2h23c1.1 0 2 .9 2 2v7c0 1.1-.9 2-2 2z"/><path class="st1" d="M210.5 482h10v11h-10z"/><path class="st2" d="M257 493h-23c-1.1 0-2-.9-2-2v-7c0-1.1.9-2 2-2h23c1.1 0 2 .9 2 2v7c0 1.1-.9 2-2 2z"/><path class="st1" d="M240.5 482h10v11h-10z"/><path class="st2" d="M195 476v23c0 1.1-.9 2-2 2h-7c-1.1 0-2-.9-2-2v-23c0-1.1.9-2 2-2h7c1.1 0 2 .9 2 2z"/><path class="st1" d="M184 492.5v-10h11v10z"/><path class="st2" d="M375 464v23c0 1.1-.9 2-2 2h-7c-1.1 0-2-.9-2-2v-23c0-1.1.9-2 2-2h7c1.1 0 2 .9 2 2z"/><path class="st1" d="M364 480.5v-10h11v10z"/><path class="st2" d="M341 370h-23c-1.1 0-2-.9-2-2v-7c0-1.1.9-2 2-2h23c1.1 0 2 .9 2 2v7c0 1.1-.9 2-2 2z"/><path class="st1" d="M324.5 359h10v11h-10z"/><path class="st2" d="M354 353h-23c-1.1 0-2-.9-2-2v-7c0-1.1.9-2 2-2h23c1.1 0 2 .9 2 2v7c0 1.1-.9 2-2 2z"/><path class="st1" d="M337.5 342h10v11h-10z"/><path class="st2" d="M325 328v23c0 1.1-.9 2-2 2h-7c-1.1 0-2-.9-2-2v-23c0-1.1.9-2 2-2h7c1.1 0 2 .9 2 2z"/><path class="st1" d="M314 344.5v-10h11v10z"/><path class="st2" d="M456 449v23c0 1.1-.9 2-2 2h-7c-1.1 0-2-.9-2-2v-23c0-1.1.9-2 2-2h7c1.1 0 2 .9 2 2z"/><path class="st1" d="M445 465.5v-10h11v10z"/><path class="st2" d="M188.7 142v23c0 1.1-.9 2-2 2h-7c-1.1 0-2-.9-2-2v-23c0-1.1.9-2 2-2h7c1.1 0 2 .9 2 2z"/><path class="st1" d="M177.667 158.467v-10h11v10z"/><path class="st2" d="M203.3 142v23c0 1.1-.9 2-2 2h-7c-1.1 0-2-.9-2-2v-23c0-1.1.9-2 2-2h7c1.1 0 2 .9 2 2z"/><path class="st1" d="M192.333 158.533v-10h11v10z"/><path class="st2" d="M222.3 142v23c0 1.1-.9 2-2 2h-7c-1.1 0-2-.9-2-2v-23c0-1.1.9-2 2-2h7c1.1 0 2 .9 2 2z"/><path class="st1" d="M211.333 158.533v-10h11v10z"/><path class="st2" d="M183 128.7h-23c-1.1 0-2-.9-2-2v-7c0-1.1.9-2 2-2h23c1.1 0 2 .9 2 2v7c0 1.1-.9 2-2 2z"/><path class="st1" d="M166.5 117.7h10v11h-10z"/><path class="st2" d="M186 112.7h-23c-1.1 0-2-.9-2-2v-7c0-1.1.9-2 2-2h23c1.1 0 2 .9 2 2v7c0 1.1-.9 2-2 2z"/><path class="st1" d="M169.5 101.7h10v11h-10z"/><path class="st2" d="M219 111.7h-23c-1.1 0-2-.9-2-2v-7c0-1.1.9-2 2-2h23c1.1 0 2 .9 2 2v7c0 1.1-.9 2-2 2z"/><path class="st1" d="M202.5 100.7h10v11h-10z"/><path class="st2" d="M219 135.7h-23c-1.1 0-2-.9-2-2v-7c0-1.1.9-2 2-2h23c1.1 0 2 .9 2 2v7c0 1.1-.9 2-2 2z"/><path class="st1" d="M202.5 124.7h10v11h-10z"/><path class="st2" d="M306 155.7h-23c-1.1 0-2-.9-2-2v-7c0-1.1.9-2 2-2h23c1.1 0 2 .9 2 2v7c0 1.1-.9 2-2 2z"/><path class="st1" d="M289.5 144.7h10v11h-10z"/><path class="st2" d="M334 177h-23c-1.1 0-2-.9-2-2v-7c0-1.1.9-2 2-2h23c1.1 0 2 .9 2 2v7c0 1.1-.9 2-2 2z"/><path class="st1" d="M317.5 166h10v11h-10z"/><path class="st2" d="M334 192h-23c-1.1 0-2-.9-2-2v-7c0-1.1.9-2 2-2h23c1.1 0 2 .9 2 2v7c0 1.1-.9 2-2 2z"/><path class="st1" d="M317.5 181h10v11h-10z"/><path class="st2" d="M352 168v23c0 1.1-.9 2-2 2h-7c-1.1 0-2-.9-2-2v-23c0-1.1.9-2 2-2h7c1.1 0 2 .9 2 2z"/><path class="st1" d="M341 184.5v-10h11v10z"/><path class="st2" d="M251.5 82h-7v18c0 1.1.9 2 2 2h3c1.1 0 2-.9 2-2V82zm10 0h-7v18c0 1.1.9 2 2 2h3c1.1 0 2-.9 2-2V82zm10 0h-7v18c0 1.1.9 2 2 2h3c1.1 0 2-.9 2-2V82zm10 0h-7v18c0 1.1.9 2 2 2h3c1.1 0 2-.9 2-2V82zm10 0h-7v18c0 1.1.9 2 2 2h3c1.1 0 2-.9 2-2V82z"/><path class="st1" d="M349 223h-34c-1.7 0-3-1.3-3-3v-12c0-1.7 1.3-3 3-3h34c1.7 0 3 1.3 3 3v12c0 1.7-1.3 3-3 3z"/><path class="st2" d="M327.5 205h-12v-6c0-1.7 1.3-3 3-3h6c1.7 0 3 1.3 3 3v6zm21 0h-12v-6c0-1.7 1.3-3 3-3h6c1.7 0 3 1.3 3 3v6zM329 223h6v8h-6zm7 8h-8c-1.1 0-2 .9-2 2v7c0 1.1.9 2 2 2h8c1.1 0 2-.9 2-2v-7c0-1.1-.9-2-2-2z"/><path class="st1" d="M312 282h34c1.7 0 3 1.3 3 3v12c0 1.7-1.3 3-3 3h-34c-1.7 0-3-1.3-3-3v-12c0-1.7 1.3-3 3-3z"/><path class="st2" d="M335 282h-12v-6c0-1.7 1.3-3 3-3h6c1.7 0 3 1.3 3 3v6zm-21.5 18h6v8h-6zm7 8h-8c-1.1 0-2 .9-2 2v7c0 1.1.9 2 2 2h8c1.1 0 2-.9 2-2v-7c0-1.1-.9-2-2-2zm18-8h6v8h-6zm7 8h-8c-1.1 0-2 .9-2 2v7c0 1.1.9 2 2 2h8c1.1 0 2-.9 2-2v-7c0-1.1-.9-2-2-2z"/><path class="st1" d="M257 132v34c0 1.7-1.3 3-3 3h-12c-1.7 0-3-1.3-3-3v-34c0-1.7 1.3-3 3-3h12c1.7 0 3 1.3 3 3z"/><path class="st2" d="M239 153.5v12h-6c-1.7 0-3-1.3-3-3v-6c0-1.7 1.3-3 3-3h6zm0-21v12h-6c-1.7 0-3-1.3-3-3v-6c0-1.7 1.3-3 3-3h6zm18 19.5v-6h8v6zm8-7v8c0 1.1.9 2 2 2h7c1.1 0 2-.9 2-2v-8c0-1.1-.9-2-2-2h-7c-1.1 0-2 .9-2 2zM78 199H59c-1.1 0-2-.9-2-2v-1c0-1.1.9-2 2-2h19c1.1 0 2 .9 2 2v1c0 1.1-.9 2-2 2zm0 30H59c-1.1 0-2-.9-2-2v-1c0-1.1.9-2 2-2h19c1.1 0 2 .9 2 2v1c0 1.1-.9 2-2 2zm0-15H59c-1.1 0-2-.9-2-2v-1c0-1.1.9-2 2-2h19c1.1 0 2 .9 2 2v1c0 1.1-.9 2-2 2z"/><path class="st5" d="M74 232H63c-1.7 0-3-1.3-3-3v-35c0-1.7 1.3-3 3-3h11c1.7 0 3 1.3 3 3v35c0 1.7-1.3 3-3 3z"/><path class="st2" d="M141 465h-39c-1.1 0-2-.9-2-2v-1c0-1.1.9-2 2-2h39c1.1 0 2 .9 2 2v1c0 1.1-.9 2-2 2zm0 30h-39c-1.1 0-2-.9-2-2v-1c0-1.1.9-2 2-2h39c1.1 0 2 .9 2 2v1c0 1.1-.9 2-2 2zm-21-15h-18c-1.1 0-2-.9-2-2v-1c0-1.1.9-2 2-2h18c1.1 0 2 .9 2 2v1c0 1.1-.9 2-2 2z"/><path class="st1" d="M127 498h-11c-1.7 0-3-1.3-3-3v-35c0-1.7 1.3-3 3-3h11c1.7 0 3 1.3 3 3v35c0 1.7-1.3 3-3 3z"/><path class="st2" d="M71.5 489h14v7h-14z"/><path class="st5" d="M88 490H69c-1.1 0-2-.9-2-2v-29c0-1.1.9-2 2-2h19c1.1 0 2 .9 2 2v29c0 1.1-.9 2-2 2z"/><path class="st6" d="M67 478h23v6H67z"/><path class="st2" d="M162.5 489h14v7h-14z"/><path class="st5" d="M179 490h-19c-1.1 0-2-.9-2-2v-29c0-1.1.9-2 2-2h19c1.1 0 2 .9 2 2v29c0 1.1-.9 2-2 2z"/><path class="st6" d="M158 478h23v6h-23z"/><circle class="st4" cx="406" cy="479" r="15"/><circle class="st6" cx="406" cy="479" r="7"/><path class="st2" d="M386.5 468h-4c-1.1 0-2-.9-2-2v-4c0-1.1.9-2 2-2h4c1.1 0 2 .9 2 2v4c0 1.1-.9 2-2 2zm0 30h-4c-1.1 0-2-.9-2-2v-4c0-1.1.9-2 2-2h4c1.1 0 2 .9 2 2v4c0 1.1-.9 2-2 2zm43 0h-4c-1.1 0-2-.9-2-2v-4c0-1.1.9-2 2-2h4c1.1 0 2 .9 2 2v4c0 1.1-.9 2-2 2zm0-30h-4c-1.1 0-2-.9-2-2v-4c0-1.1.9-2 2-2h4c1.1 0 2 .9 2 2v4c0 1.1-.9 2-2 2zM348 263h-23c-1.1 0-2-.9-2-2v-7c0-1.1.9-2 2-2h23c1.1 0 2 .9 2 2v7c0 1.1-.9 2-2 2z"/><path class="st1" d="M331.5 252h10v11h-10z"/></svg>