<svg version="1.1" xmlns="http://www.w3.org/2000/svg" x="0" y="0" viewBox="0 0 512 512" xml:space="preserve"><style type="text/css">.st0{fill:#ccc}.st4{fill:#b2b2b2}</style><path class="st0" d="M451 355.3c0 2.8-2.3 5-5 5H66c-2.8 0-5-2.3-5-5V106.2c0-2.8 2.2-5 5-5.1l185-3.7c2.7-.1 7.2-.1 10 0l185 3.8c2.7.1 5 2.4 5 5.1v249z"/><path d="M434 317.8c0 2.8-2.3 5-5 5H83c-2.8 0-5-2.3-5-5v-190c0-2.8 2.3-5 5-5h345.9c2.8 0 5 2.3 5 5l.1 190z" fill="#f8f8f8"/><path d="M370.4 122.8l-242.1 200H262l142.9-200h-34.5z" fill="#f4f4f4"/><path d="M83 122.8c-2.7 0-5 2.2-5 5v190c0 2.7 2.2 5 5 5h45.3l242.2-200H83z" fill="#f0f0f0"/><path class="st0" d="M455.2 360.2c-2.6-1-6.9-1.9-9.6-1.9H66.4c-2.8 0-7.1.8-9.6 1.9l-52.1 21c-2.6 1-4.6 4.1-4.6 6.9v8.8c0 2.8 2.1 5.9 4.6 6.9l21.5 9c2.5 1.1 6.9 1.9 9.6 1.9h440.6c2.8 0 7.1-.9 9.6-1.9l21.5-9c2.5-1.1 4.6-4.2 4.6-6.9v-8.8c0-2.8-2.1-5.8-4.6-6.9l-52.3-21z"/><path class="st4" d="M110.9 395.9c0 1.1-.9 2-2 2h-98c-1.1 0-2-.9-2-2v-1c0-1.1.9-2 2-2h98c1.1 0 2 .9 2 2v1zm290.2 0c0 1.1.9 2 2 2h98c1.1 0 2-.9 2-2v-1c0-1.1-.9-2-2-2h-98c-1.1 0-2 .9-2 2v1zM248.6 106.8c-1.1 0-2 .9-2 2v2.9c0 1.1.9 2 2 2h14.8c1.1 0 2-.9 2-2v-2.9c0-1.1-.9-2-2-2h-14.8zm7.4 5.4c-1.1 0-2-.9-2-2s.9-2 2-2 2 .9 2 2-.9 2-2 2z"/><circle class="st4" cx="280.8" cy="110.2" r="1.5"/><circle class="st4" cx="231.2" cy="110.2" r="1.5"/><path class="st4" d="M420.1 362.3c-.9-.6-2.6-1-3.7-1H95.6c-1.1 0-2.8.5-3.7 1l-18.3 10.8c-.9.6-.8 1 .3 1h364.3c1.1 0 1.2-.5.3-1l-18.4-10.8z"/><path d="M4 385.8c0-.5.9-1 2-1h500c1.1 0 2 .5 2 1s-.9 1-2 1H6c-1.1 0-2-.5-2-1z" opacity=".2" fill="#b2b2b2"/></svg>