<svg version="1.1" xmlns="http://www.w3.org/2000/svg" x="0" y="0" viewBox="0 0 512 512" xml:space="preserve"><style type="text/css">.st1{fill:#36434f}.st2{fill:#999}.st3,.st4{opacity:.15;fill:#444;enable-background:new}.st4{opacity:.3;fill:#f4f4f4}</style><path fill="#ddd" d="M211 5h90v86h-90z"/><path class="st1" d="M214 0h84c1.7 0 3 1.3 3 3v2h-90V3c0-1.7 1.3-3 3-3z"/><path class="st2" d="M257 43c0-.6.4-1 1-1h3c1.7 0 3-1.3 3-3V23c0-1.7-1.3-3-3-3h-3c-.6 0-1-.4-1-1V5h-2v14c0 1.7 1.3 3 3 3h3c.6 0 1 .4 1 1v16c0 .6-.4 1-1 1h-3c-1.7 0-3 1.3-3 3v14c0 1.7 1.3 3 3 3h3c.6 0 1 .4 1 1v16c0 .6-.4 1-1 1h-3c-1.7 0-3 1.3-3 3v10h2V81c0-.6.4-1 1-1h3c1.7 0 3-1.3 3-3V61c0-1.7-1.3-3-3-3h-3c-.6 0-1-.4-1-1V43z"/><path class="st3" d="M211 5h9v86h-9z"/><path class="st4" d="M215 5h3v86h-3z"/><path class="st3" d="M292 5h9v86h-9z"/><path class="st4" d="M294 5h3v86h-3z"/><path class="st2" d="M306 102H206v-9c0-1.7 1.3-3 3-3h94c1.7 0 3 1.3 3 3v9z"/><path class="st1" d="M309 101H203c-6.6 0-12 5.4-12 12v367c0 17.7 14.3 32 32 32h66c17.7 0 32-14.3 32-32V113c0-6.6-5.4-12-12-12zm-4.5 380c0 8.8-7.2 16-16 16h-65c-8.8 0-16-7.2-16-16v-12c0-8.8 7.2-16 16-16h65c8.8 0 16 7.2 16 16v12z"/><path class="st3" d="M223.5 497c-8.8 0-16-7.2-16-16v-12c0-8.8 7.2-16 16-16H256V0h-42c-1.7 0-3 1.3-3 3v87h-2c-1.7 0-3 1.3-3 3v8h-3c-6.6 0-12 5.4-12 12v367c0 17.7 14.3 32 32 32h33v-15h-32.5z"/></svg>