<svg version="1.1" xmlns="http://www.w3.org/2000/svg" x="0" y="0" viewBox="0 0 512 512" xml:space="preserve"><path d="M512 378.3V80.7c0-18.2-14.7-32.9-32.9-32.9H32.9C14.7 47.7 0 62.5 0 80.7v350.7c0 18.2 14.7 32.9 32.9 32.9h392.2l86.9-86z" fill="#cc584c"/><path d="M400.5 351.5H73.6c-8.8 0-16-7.2-16-16v-238c0-8.8 7.2-16 16-16h326.9c8.8 0 16 7.2 16 16v238c0 8.8-7.1 16-16 16z" fill="#eec646"/><path d="M293.3 178.1h123.4v-7.3H296c-.3-2-.7-4-1.1-6-9.4-48.9-31.7-83.4-57.8-83.4s-48.4 34.4-57.8 83.4c-.4 2-.7 4-1.1 6H57.6v7.3H181c1.4 1.7 2.7 3.4 3.8 5.2 6.3 9.5 10 20.9 10 33.2 0 12.3-3.7 23.7-10 33.2-1.2 1.8-2.5 3.5-3.8 5.2H57.6v7.3h120.6c.3 2 .7 4 1.1 6 9.4 48.9 31.7 83.4 57.8 83.4s48.4-34.4 57.8-83.4c.4-2 .7-4 1.1-6h120.6v-7.3H293.2c-1.4-1.7-2.7-3.4-3.8-5.2-6.3-9.5-10-20.9-10-33.2 0-12.3 3.7-23.7 10-33.2 1.2-1.8 2.5-3.5 3.9-5.2zm-22.1 38.4c0 14.2 4.4 27.4 11.8 38.3 1.5 2.2 3.1 4.2 4.8 6.2-.1.4-.1.7-.2 1.1-3 17.3-7.6 33.1-13.8 46.4-10.2 22.1-23.6 34.8-36.8 34.8-13.1 0-26.5-12.7-36.8-34.8-6.2-13.3-10.8-29.1-13.8-46.4-.1-.4-.1-.7-.2-1.1 1.7-2 3.3-4 4.8-6.2 7.4-10.9 11.8-24.1 11.8-38.3 0-14.2-4.4-27.4-11.8-38.3-1.5-2.2-3.1-4.2-4.8-6.2.1-.4.1-.7.2-1.1 3-17.3 7.6-33.1 13.8-46.4 10.2-22.1 23.6-34.8 36.8-34.8 13.1 0 26.5 12.7 36.8 34.8 6.2 13.3 10.8 29.1 13.8 46.4.1.4.1.7.2 1.1-1.7 2-3.3 4-4.8 6.2-7.4 10.9-11.8 24.1-11.8 38.3z" fill="#36434f"/></svg>