<svg version="1.1" xmlns="http://www.w3.org/2000/svg" x="0" y="0" viewBox="0 0 512 512" xml:space="preserve"><style type="text/css">.st1{fill:#36434f}.st3,.st4{opacity:.15;fill:#444;enable-background:new}.st4{opacity:.3;fill:#f4f4f4}</style><path d="M211 5h90v86h-90V5z" fill="#ddd"/><path class="st1" d="M214 0h84c1.7 0 3 1.3 3 3v2h-90V3c0-1.7 1.3-3 3-3z"/><path d="M257 43c0-.6.4-1 1-1h3c1.7 0 3-1.3 3-3V23c0-1.7-1.3-3-3-3h-3c-.6 0-1-.4-1-1V5h-2v14c0 1.7 1.3 3 3 3h3c.6 0 1 .4 1 1v16c0 .6-.4 1-1 1h-3c-1.7 0-3 1.3-3 3v14c0 1.7 1.3 3 3 3h3c.6 0 1 .4 1 1v16c0 .6-.4 1-1 1h-3c-1.7 0-3 1.3-3 3v10h2V81c0-.6.4-1 1-1h3c1.7 0 3-1.3 3-3V61c0-1.7-1.3-3-3-3h-3c-.6 0-1-.4-1-1V43z" fill="#999"/><path class="st3" d="M211 5h9v86h-9V5z"/><path class="st4" d="M215 5h3v86h-3V5z"/><path class="st3" d="M301 91h-9V5h9v86z"/><path class="st4" d="M297 91h-3V5h3v86z"/><path class="st1" d="M313 512H199c-4.4 0-8-3.6-8-8V98c0-4.4 3.6-8 8-8h114c4.4 0 8 3.6 8 8v406c0 4.4-3.6 8-8 8z"/><path class="st3" d="M214 0c-1.7 0-3 1.3-3 3v87h-12c-4.4 0-8 3.6-8 8v406c0 4.4 3.6 8 8 8h57V0h-42z"/></svg>