<svg version="1.1" xmlns="http://www.w3.org/2000/svg" x="0" y="0" viewBox="0 0 512 512" xml:space="preserve"><path d="M160 134c0 2.8-2.3 5-5 5H5c-2.8 0-5-2.3-5-5v-6c0-2.8 2.3-5 5-5h150c2.8 0 5 2.3 5 5v6zM48 166c0 2.8-2.3 5-5 5H5c-2.8 0-5-2.3-5-5v-6c0-2.8 2.3-5 5-5h38c2.8 0 5 2.3 5 5v6zm112 0c0 2.8-2.3 5-5 5H69c-2.8 0-5-2.3-5-5v-6c0-2.8 2.3-5 5-5h86c2.8 0 5 2.3 5 5v6zm64-32c0 2.8-2.3 5-5 5h-38c-2.8 0-5-2.3-5-5v-6c0-2.8 2.3-5 5-5h38c2.8 0 5 2.3 5 5v6zm0 32c0 2.8-2.3 5-5 5h-38c-2.8 0-5-2.3-5-5v-6c0-2.8 2.3-5 5-5h38c2.8 0 5 2.3 5 5v6zm128-32c0 2.8-2.3 5-5 5H245c-2.8 0-5-2.3-5-5v-6c0-2.8 2.3-5 5-5h102c2.8 0 5 2.3 5 5v6zm-96 32c0 2.8-2.3 5-5 5h-6c-2.8 0-5-2.3-5-5v-6c0-2.8 2.3-5 5-5h6c2.8 0 5 2.3 5 5v6zm32 0c0 2.8-2.3 5-5 5h-6c-2.8 0-5-2.3-5-5v-6c0-2.8 2.3-5 5-5h6c2.8 0 5 2.3 5 5v6zm32 0c0 2.8-2.3 5-5 5h-6c-2.8 0-5-2.3-5-5v-6c0-2.8 2.3-5 5-5h6c2.8 0 5 2.3 5 5v6zm32 0c0 2.8-2.3 5-5 5h-6c-2.8 0-5-2.3-5-5v-6c0-2.8 2.3-5 5-5h6c2.8 0 5 2.3 5 5v6zm48-32c0 2.8-2.3 5-5 5h-22c-2.8 0-5-2.3-5-5v-6c0-2.8 2.3-5 5-5h22c2.8 0 5 2.3 5 5v6zm0 32c0 2.8-2.3 5-5 5h-22c-2.8 0-5-2.3-5-5v-6c0-2.8 2.3-5 5-5h22c2.8 0 5 2.3 5 5v6zm48-32c0 2.8-2.3 5-5 5h-22c-2.8 0-5-2.3-5-5v-6c0-2.8 2.3-5 5-5h22c2.8 0 5 2.3 5 5v6zm0 32c0 2.8-2.3 5-5 5h-22c-2.8 0-5-2.3-5-5v-6c0-2.8 2.3-5 5-5h22c2.8 0 5 2.3 5 5v6zm64-32c0 2.8-2.3 5-5 5h-38c-2.8 0-5-2.3-5-5v-6c0-2.8 2.3-5 5-5h38c2.8 0 5 2.3 5 5v6zm0 32c0 2.8-2.3 5-5 5h-38c-2.8 0-5-2.3-5-5v-6c0-2.8 2.3-5 5-5h38c2.8 0 5 2.3 5 5v6zm-384 32c0 2.8-2.3 5-5 5H5c-2.8 0-5-2.3-5-5v-6c0-2.8 2.3-5 5-5h118c2.8 0 5 2.3 5 5v6zm32 0c0 2.8-2.3 5-5 5h-6c-2.8 0-5-2.3-5-5v-6c0-2.8 2.3-5 5-5h6c2.8 0 5 2.3 5 5v6zm64 0c0 2.8-2.3 5-5 5h-38c-2.8 0-5-2.3-5-5v-6c0-2.8 2.3-5 5-5h38c2.8 0 5 2.3 5 5v6zm32 0c0 2.8-2.3 5-5 5h-6c-2.8 0-5-2.3-5-5v-6c0-2.8 2.3-5 5-5h6c2.8 0 5 2.3 5 5v6zm32 0c0 2.8-2.3 5-5 5h-6c-2.8 0-5-2.3-5-5v-6c0-2.8 2.3-5 5-5h6c2.8 0 5 2.3 5 5v6zm32 0c0 2.8-2.3 5-5 5h-6c-2.8 0-5-2.3-5-5v-6c0-2.8 2.3-5 5-5h6c2.8 0 5 2.3 5 5v6zm32 0c0 2.8-2.3 5-5 5h-6c-2.8 0-5-2.3-5-5v-6c0-2.8 2.3-5 5-5h6c2.8 0 5 2.3 5 5v6zm48 0c0 2.8-2.3 5-5 5h-22c-2.8 0-5-2.3-5-5v-6c0-2.8 2.3-5 5-5h22c2.8 0 5 2.3 5 5v6zm48 0c0 2.8-2.3 5-5 5h-22c-2.8 0-5-2.3-5-5v-6c0-2.8 2.3-5 5-5h22c2.8 0 5 2.3 5 5v6zm64 0c0 2.8-2.3 5-5 5h-38c-2.8 0-5-2.3-5-5v-6c0-2.8 2.3-5 5-5h38c2.8 0 5 2.3 5 5v6zM80 230c0 2.8-2.3 5-5 5H5c-2.8 0-5-2.3-5-5v-6c0-2.8 2.3-5 5-5h70c2.8 0 5 2.3 5 5v6zm80 0c0 2.8-2.3 5-5 5h-54c-2.8 0-5-2.3-5-5v-6c0-2.8 2.3-5 5-5h54c2.8 0 5 2.3 5 5v6zm64 0c0 2.8-2.3 5-5 5h-38c-2.8 0-5-2.3-5-5v-6c0-2.8 2.3-5 5-5h38c2.8 0 5 2.3 5 5v6zm32 0c0 2.8-2.3 5-5 5h-6c-2.8 0-5-2.3-5-5v-6c0-2.8 2.3-5 5-5h6c2.8 0 5 2.3 5 5v6zm32 0c0 2.8-2.3 5-5 5h-6c-2.8 0-5-2.3-5-5v-6c0-2.8 2.3-5 5-5h6c2.8 0 5 2.3 5 5v6zm32 0c0 2.8-2.3 5-5 5h-6c-2.8 0-5-2.3-5-5v-6c0-2.8 2.3-5 5-5h6c2.8 0 5 2.3 5 5v6zm32 0c0 2.8-2.3 5-5 5h-6c-2.8 0-5-2.3-5-5v-6c0-2.8 2.3-5 5-5h6c2.8 0 5 2.3 5 5v6zm48 0c0 2.8-2.3 5-5 5h-22c-2.8 0-5-2.3-5-5v-6c0-2.8 2.3-5 5-5h22c2.8 0 5 2.3 5 5v6zm48 0c0 2.8-2.3 5-5 5h-22c-2.8 0-5-2.3-5-5v-6c0-2.8 2.3-5 5-5h22c2.8 0 5 2.3 5 5v6zm64 0c0 2.8-2.3 5-5 5h-38c-2.8 0-5-2.3-5-5v-6c0-2.8 2.3-5 5-5h38c2.8 0 5 2.3 5 5v6zM16 262c0 2.8-2.3 5-5 5H5c-2.8 0-5-2.3-5-5v-6c0-2.8 2.3-5 5-5h6c2.8 0 5 2.3 5 5v6zm144 0c0 2.8-2.3 5-5 5h-22c-2.8 0-5-2.3-5-5v-6c0-2.8 2.3-5 5-5h22c2.8 0 5 2.3 5 5v6zm64 0c0 2.8-2.3 5-5 5h-38c-2.8 0-5-2.3-5-5v-6c0-2.8 2.3-5 5-5h38c2.8 0 5 2.3 5 5v6zm32 0c0 2.8-2.3 5-5 5h-6c-2.8 0-5-2.3-5-5v-6c0-2.8 2.3-5 5-5h6c2.8 0 5 2.3 5 5v6zm32 0c0 2.8-2.3 5-5 5h-6c-2.8 0-5-2.3-5-5v-6c0-2.8 2.3-5 5-5h6c2.8 0 5 2.3 5 5v6zm32 0c0 2.8-2.3 5-5 5h-6c-2.8 0-5-2.3-5-5v-6c0-2.8 2.3-5 5-5h6c2.8 0 5 2.3 5 5v6zm32 0c0 2.8-2.3 5-5 5h-6c-2.8 0-5-2.3-5-5v-6c0-2.8 2.3-5 5-5h6c2.8 0 5 2.3 5 5v6zm48 0c0 2.8-2.3 5-5 5h-22c-2.8 0-5-2.3-5-5v-6c0-2.8 2.3-5 5-5h22c2.8 0 5 2.3 5 5v6zm48 0c0 2.8-2.3 5-5 5h-22c-2.8 0-5-2.3-5-5v-6c0-2.8 2.3-5 5-5h22c2.8 0 5 2.3 5 5v6zm64 0c0 2.8-2.3 5-5 5h-38c-2.8 0-5-2.3-5-5v-6c0-2.8 2.3-5 5-5h38c2.8 0 5 2.3 5 5v6zM32 294c0 2.8-2.3 5-5 5H5c-2.8 0-5-2.3-5-5v-6c0-2.8 2.3-5 5-5h22c2.8 0 5 2.3 5 5v6zm128 0c0 2.8-2.3 5-5 5H53c-2.8 0-5-2.3-5-5v-6c0-2.8 2.3-5 5-5h102c2.8 0 5 2.3 5 5v6zm64 0c0 2.8-2.3 5-5 5h-38c-2.8 0-5-2.3-5-5v-6c0-2.8 2.3-5 5-5h38c2.8 0 5 2.3 5 5v6zm32 0c0 2.8-2.3 5-5 5h-6c-2.8 0-5-2.3-5-5v-6c0-2.8 2.3-5 5-5h6c2.8 0 5 2.3 5 5v6zm32 0c0 2.8-2.3 5-5 5h-6c-2.8 0-5-2.3-5-5v-6c0-2.8 2.3-5 5-5h6c2.8 0 5 2.3 5 5v6zm32 0c0 2.8-2.3 5-5 5h-6c-2.8 0-5-2.3-5-5v-6c0-2.8 2.3-5 5-5h6c2.8 0 5 2.3 5 5v6zm32 0c0 2.8-2.3 5-5 5h-6c-2.8 0-5-2.3-5-5v-6c0-2.8 2.3-5 5-5h6c2.8 0 5 2.3 5 5v6zm48 0c0 2.8-2.3 5-5 5h-22c-2.8 0-5-2.3-5-5v-6c0-2.8 2.3-5 5-5h22c2.8 0 5 2.3 5 5v6zm48 0c0 2.8-2.3 5-5 5h-22c-2.8 0-5-2.3-5-5v-6c0-2.8 2.3-5 5-5h22c2.8 0 5 2.3 5 5v6zm64 0c0 2.8-2.3 5-5 5h-38c-2.8 0-5-2.3-5-5v-6c0-2.8 2.3-5 5-5h38c2.8 0 5 2.3 5 5v6zM96 326c0 2.8-2.3 5-5 5H5c-2.8 0-5-2.3-5-5v-6c0-2.8 2.3-5 5-5h86c2.8 0 5 2.3 5 5v6zm64 0c0 2.8-2.3 5-5 5h-38c-2.8 0-5-2.3-5-5v-6c0-2.8 2.3-5 5-5h38c2.8 0 5 2.3 5 5v6zm64 0c0 2.8-2.3 5-5 5h-38c-2.8 0-5-2.3-5-5v-6c0-2.8 2.3-5 5-5h38c2.8 0 5 2.3 5 5v6zm32 0c0 2.8-2.3 5-5 5h-6c-2.8 0-5-2.3-5-5v-6c0-2.8 2.3-5 5-5h6c2.8 0 5 2.3 5 5v6zm32 0c0 2.8-2.3 5-5 5h-6c-2.8 0-5-2.3-5-5v-6c0-2.8 2.3-5 5-5h6c2.8 0 5 2.3 5 5v6zm32 0c0 2.8-2.3 5-5 5h-6c-2.8 0-5-2.3-5-5v-6c0-2.8 2.3-5 5-5h6c2.8 0 5 2.3 5 5v6zm32 0c0 2.8-2.3 5-5 5h-6c-2.8 0-5-2.3-5-5v-6c0-2.8 2.3-5 5-5h6c2.8 0 5 2.3 5 5v6zm48 0c0 2.8-2.3 5-5 5h-22c-2.8 0-5-2.3-5-5v-6c0-2.8 2.3-5 5-5h22c2.8 0 5 2.3 5 5v6zm48 0c0 2.8-2.3 5-5 5h-22c-2.8 0-5-2.3-5-5v-6c0-2.8 2.3-5 5-5h22c2.8 0 5 2.3 5 5v6zm64 0c0 2.8-2.3 5-5 5h-38c-2.8 0-5-2.3-5-5v-6c0-2.8 2.3-5 5-5h38c2.8 0 5 2.3 5 5v6zM64 358c0 2.8-2.3 5-5 5H5c-2.8 0-5-2.3-5-5v-6c0-2.8 2.3-5 5-5h54c2.8 0 5 2.3 5 5v6zm96 0c0 2.8-2.3 5-5 5H85c-2.8 0-5-2.3-5-5v-6c0-2.8 2.3-5 5-5h70c2.8 0 5 2.3 5 5v6zm64 0c0 2.8-2.3 5-5 5h-38c-2.8 0-5-2.3-5-5v-6c0-2.8 2.3-5 5-5h38c2.8 0 5 2.3 5 5v6zm32 0c0 2.8-2.3 5-5 5h-6c-2.8 0-5-2.3-5-5v-6c0-2.8 2.3-5 5-5h6c2.8 0 5 2.3 5 5v6zm32 0c0 2.8-2.3 5-5 5h-6c-2.8 0-5-2.3-5-5v-6c0-2.8 2.3-5 5-5h6c2.8 0 5 2.3 5 5v6zm32 0c0 2.8-2.3 5-5 5h-6c-2.8 0-5-2.3-5-5v-6c0-2.8 2.3-5 5-5h6c2.8 0 5 2.3 5 5v6zm32 0c0 2.8-2.3 5-5 5h-6c-2.8 0-5-2.3-5-5v-6c0-2.8 2.3-5 5-5h6c2.8 0 5 2.3 5 5v6zm48 0c0 2.8-2.3 5-5 5h-22c-2.8 0-5-2.3-5-5v-6c0-2.8 2.3-5 5-5h22c2.8 0 5 2.3 5 5v6zm48 0c0 2.8-2.3 5-5 5h-22c-2.8 0-5-2.3-5-5v-6c0-2.8 2.3-5 5-5h22c2.8 0 5 2.3 5 5v6zm64 0c0 2.8-2.3 5-5 5h-38c-2.8 0-5-2.3-5-5v-6c0-2.8 2.3-5 5-5h38c2.8 0 5 2.3 5 5v6zM48 390c0 2.8-2.3 5-5 5H5c-2.8 0-5-2.3-5-5v-6c0-2.8 2.3-5 5-5h38c2.8 0 5 2.3 5 5v6zm112 0c0 2.8-2.3 5-5 5H69c-2.8 0-5-2.3-5-5v-6c0-2.8 2.3-5 5-5h86c2.8 0 5 2.3 5 5v6zm64 0c0 2.8-2.3 5-5 5h-38c-2.8 0-5-2.3-5-5v-6c0-2.8 2.3-5 5-5h38c2.8 0 5 2.3 5 5v6zm32 0c0 2.8-2.3 5-5 5h-6c-2.8 0-5-2.3-5-5v-6c0-2.8 2.3-5 5-5h6c2.8 0 5 2.3 5 5v6zm32 0c0 2.8-2.3 5-5 5h-6c-2.8 0-5-2.3-5-5v-6c0-2.8 2.3-5 5-5h6c2.8 0 5 2.3 5 5v6zm32 0c0 2.8-2.3 5-5 5h-6c-2.8 0-5-2.3-5-5v-6c0-2.8 2.3-5 5-5h6c2.8 0 5 2.3 5 5v6zm32 0c0 2.8-2.3 5-5 5h-6c-2.8 0-5-2.3-5-5v-6c0-2.8 2.3-5 5-5h6c2.8 0 5 2.3 5 5v6zm48 0c0 2.8-2.3 5-5 5h-22c-2.8 0-5-2.3-5-5v-6c0-2.8 2.3-5 5-5h22c2.8 0 5 2.3 5 5v6zm48 0c0 2.8-2.3 5-5 5h-22c-2.8 0-5-2.3-5-5v-6c0-2.8 2.3-5 5-5h22c2.8 0 5 2.3 5 5v6zm64 0c0 2.8-2.3 5-5 5h-38c-2.8 0-5-2.3-5-5v-6c0-2.8 2.3-5 5-5h38c2.8 0 5 2.3 5 5v6zM112 262c0 2.8-2.3 5-5 5H37c-2.8 0-5-2.3-5-5v-6c0-2.8 2.3-5 5-5h70c2.8 0 5 2.3 5 5v6z" fill="#bfbebe"/><path d="M160 131c0 2.8-2.3 5-5 5H5c-2.8 0-5-2.3-5-5v-6c0-2.8 2.3-5 5-5h150c2.8 0 5 2.3 5 5v6zM48 163c0 2.8-2.3 5-5 5H5c-2.8 0-5-2.3-5-5v-6c0-2.8 2.3-5 5-5h38c2.8 0 5 2.3 5 5v6zm112 0c0 2.8-2.3 5-5 5H69c-2.8 0-5-2.3-5-5v-6c0-2.8 2.3-5 5-5h86c2.8 0 5 2.3 5 5v6zm64-32c0 2.8-2.3 5-5 5h-38c-2.8 0-5-2.3-5-5v-6c0-2.8 2.3-5 5-5h38c2.8 0 5 2.3 5 5v6zm0 32c0 2.8-2.3 5-5 5h-38c-2.8 0-5-2.3-5-5v-6c0-2.8 2.3-5 5-5h38c2.8 0 5 2.3 5 5v6zm128-32c0 2.8-2.3 5-5 5H245c-2.8 0-5-2.3-5-5v-6c0-2.8 2.3-5 5-5h102c2.8 0 5 2.3 5 5v6zm-96 32c0 2.8-2.3 5-5 5h-6c-2.8 0-5-2.3-5-5v-6c0-2.8 2.3-5 5-5h6c2.8 0 5 2.3 5 5v6zm32 0c0 2.8-2.3 5-5 5h-6c-2.8 0-5-2.3-5-5v-6c0-2.8 2.3-5 5-5h6c2.8 0 5 2.3 5 5v6zm32 0c0 2.8-2.3 5-5 5h-6c-2.8 0-5-2.3-5-5v-6c0-2.8 2.3-5 5-5h6c2.8 0 5 2.3 5 5v6zm32 0c0 2.8-2.3 5-5 5h-6c-2.8 0-5-2.3-5-5v-6c0-2.8 2.3-5 5-5h6c2.8 0 5 2.3 5 5v6zm48-32c0 2.8-2.3 5-5 5h-22c-2.8 0-5-2.3-5-5v-6c0-2.8 2.3-5 5-5h22c2.8 0 5 2.3 5 5v6zm0 32c0 2.8-2.3 5-5 5h-22c-2.8 0-5-2.3-5-5v-6c0-2.8 2.3-5 5-5h22c2.8 0 5 2.3 5 5v6zm48-32c0 2.8-2.3 5-5 5h-22c-2.8 0-5-2.3-5-5v-6c0-2.8 2.3-5 5-5h22c2.8 0 5 2.3 5 5v6zm0 32c0 2.8-2.3 5-5 5h-22c-2.8 0-5-2.3-5-5v-6c0-2.8 2.3-5 5-5h22c2.8 0 5 2.3 5 5v6zm64-32c0 2.8-2.3 5-5 5h-38c-2.8 0-5-2.3-5-5v-6c0-2.8 2.3-5 5-5h38c2.8 0 5 2.3 5 5v6zm0 32c0 2.8-2.3 5-5 5h-38c-2.8 0-5-2.3-5-5v-6c0-2.8 2.3-5 5-5h38c2.8 0 5 2.3 5 5v6zm-384 32c0 2.8-2.3 5-5 5H5c-2.8 0-5-2.3-5-5v-6c0-2.8 2.3-5 5-5h118c2.8 0 5 2.3 5 5v6zm32 0c0 2.8-2.3 5-5 5h-6c-2.8 0-5-2.3-5-5v-6c0-2.8 2.3-5 5-5h6c2.8 0 5 2.3 5 5v6zm64 0c0 2.8-2.3 5-5 5h-38c-2.8 0-5-2.3-5-5v-6c0-2.8 2.3-5 5-5h38c2.8 0 5 2.3 5 5v6zm32 0c0 2.8-2.3 5-5 5h-6c-2.8 0-5-2.3-5-5v-6c0-2.8 2.3-5 5-5h6c2.8 0 5 2.3 5 5v6zm32 0c0 2.8-2.3 5-5 5h-6c-2.8 0-5-2.3-5-5v-6c0-2.8 2.3-5 5-5h6c2.8 0 5 2.3 5 5v6zm32 0c0 2.8-2.3 5-5 5h-6c-2.8 0-5-2.3-5-5v-6c0-2.8 2.3-5 5-5h6c2.8 0 5 2.3 5 5v6zm32 0c0 2.8-2.3 5-5 5h-6c-2.8 0-5-2.3-5-5v-6c0-2.8 2.3-5 5-5h6c2.8 0 5 2.3 5 5v6zm48 0c0 2.8-2.3 5-5 5h-22c-2.8 0-5-2.3-5-5v-6c0-2.8 2.3-5 5-5h22c2.8 0 5 2.3 5 5v6zm48 0c0 2.8-2.3 5-5 5h-22c-2.8 0-5-2.3-5-5v-6c0-2.8 2.3-5 5-5h22c2.8 0 5 2.3 5 5v6zm64 0c0 2.8-2.3 5-5 5h-38c-2.8 0-5-2.3-5-5v-6c0-2.8 2.3-5 5-5h38c2.8 0 5 2.3 5 5v6zM80 227c0 2.8-2.3 5-5 5H5c-2.8 0-5-2.3-5-5v-6c0-2.8 2.3-5 5-5h70c2.8 0 5 2.3 5 5v6zm80 0c0 2.8-2.3 5-5 5h-54c-2.8 0-5-2.3-5-5v-6c0-2.8 2.3-5 5-5h54c2.8 0 5 2.3 5 5v6zm64 0c0 2.8-2.3 5-5 5h-38c-2.8 0-5-2.3-5-5v-6c0-2.8 2.3-5 5-5h38c2.8 0 5 2.3 5 5v6zm32 0c0 2.8-2.3 5-5 5h-6c-2.8 0-5-2.3-5-5v-6c0-2.8 2.3-5 5-5h6c2.8 0 5 2.3 5 5v6zm32 0c0 2.8-2.3 5-5 5h-6c-2.8 0-5-2.3-5-5v-6c0-2.8 2.3-5 5-5h6c2.8 0 5 2.3 5 5v6zm32 0c0 2.8-2.3 5-5 5h-6c-2.8 0-5-2.3-5-5v-6c0-2.8 2.3-5 5-5h6c2.8 0 5 2.3 5 5v6zm32 0c0 2.8-2.3 5-5 5h-6c-2.8 0-5-2.3-5-5v-6c0-2.8 2.3-5 5-5h6c2.8 0 5 2.3 5 5v6zm48 0c0 2.8-2.3 5-5 5h-22c-2.8 0-5-2.3-5-5v-6c0-2.8 2.3-5 5-5h22c2.8 0 5 2.3 5 5v6zm48 0c0 2.8-2.3 5-5 5h-22c-2.8 0-5-2.3-5-5v-6c0-2.8 2.3-5 5-5h22c2.8 0 5 2.3 5 5v6zm64 0c0 2.8-2.3 5-5 5h-38c-2.8 0-5-2.3-5-5v-6c0-2.8 2.3-5 5-5h38c2.8 0 5 2.3 5 5v6zM16 259c0 2.8-2.3 5-5 5H5c-2.8 0-5-2.3-5-5v-6c0-2.8 2.3-5 5-5h6c2.8 0 5 2.3 5 5v6zm144 0c0 2.8-2.3 5-5 5h-22c-2.8 0-5-2.3-5-5v-6c0-2.8 2.3-5 5-5h22c2.8 0 5 2.3 5 5v6zm64 0c0 2.8-2.3 5-5 5h-38c-2.8 0-5-2.3-5-5v-6c0-2.8 2.3-5 5-5h38c2.8 0 5 2.3 5 5v6zm32 0c0 2.8-2.3 5-5 5h-6c-2.8 0-5-2.3-5-5v-6c0-2.8 2.3-5 5-5h6c2.8 0 5 2.3 5 5v6zm32 0c0 2.8-2.3 5-5 5h-6c-2.8 0-5-2.3-5-5v-6c0-2.8 2.3-5 5-5h6c2.8 0 5 2.3 5 5v6zm32 0c0 2.8-2.3 5-5 5h-6c-2.8 0-5-2.3-5-5v-6c0-2.8 2.3-5 5-5h6c2.8 0 5 2.3 5 5v6zm32 0c0 2.8-2.3 5-5 5h-6c-2.8 0-5-2.3-5-5v-6c0-2.8 2.3-5 5-5h6c2.8 0 5 2.3 5 5v6zm48 0c0 2.8-2.3 5-5 5h-22c-2.8 0-5-2.3-5-5v-6c0-2.8 2.3-5 5-5h22c2.8 0 5 2.3 5 5v6zm48 0c0 2.8-2.3 5-5 5h-22c-2.8 0-5-2.3-5-5v-6c0-2.8 2.3-5 5-5h22c2.8 0 5 2.3 5 5v6zm64 0c0 2.8-2.3 5-5 5h-38c-2.8 0-5-2.3-5-5v-6c0-2.8 2.3-5 5-5h38c2.8 0 5 2.3 5 5v6zM32 291c0 2.8-2.3 5-5 5H5c-2.8 0-5-2.3-5-5v-6c0-2.8 2.3-5 5-5h22c2.8 0 5 2.3 5 5v6zm128 0c0 2.8-2.3 5-5 5H53c-2.8 0-5-2.3-5-5v-6c0-2.8 2.3-5 5-5h102c2.8 0 5 2.3 5 5v6zm64 0c0 2.8-2.3 5-5 5h-38c-2.8 0-5-2.3-5-5v-6c0-2.8 2.3-5 5-5h38c2.8 0 5 2.3 5 5v6zm32 0c0 2.8-2.3 5-5 5h-6c-2.8 0-5-2.3-5-5v-6c0-2.8 2.3-5 5-5h6c2.8 0 5 2.3 5 5v6zm32 0c0 2.8-2.3 5-5 5h-6c-2.8 0-5-2.3-5-5v-6c0-2.8 2.3-5 5-5h6c2.8 0 5 2.3 5 5v6zm32 0c0 2.8-2.3 5-5 5h-6c-2.8 0-5-2.3-5-5v-6c0-2.8 2.3-5 5-5h6c2.8 0 5 2.3 5 5v6zm32 0c0 2.8-2.3 5-5 5h-6c-2.8 0-5-2.3-5-5v-6c0-2.8 2.3-5 5-5h6c2.8 0 5 2.3 5 5v6zm48 0c0 2.8-2.3 5-5 5h-22c-2.8 0-5-2.3-5-5v-6c0-2.8 2.3-5 5-5h22c2.8 0 5 2.3 5 5v6zm48 0c0 2.8-2.3 5-5 5h-22c-2.8 0-5-2.3-5-5v-6c0-2.8 2.3-5 5-5h22c2.8 0 5 2.3 5 5v6zm64 0c0 2.8-2.3 5-5 5h-38c-2.8 0-5-2.3-5-5v-6c0-2.8 2.3-5 5-5h38c2.8 0 5 2.3 5 5v6zM96 323c0 2.8-2.3 5-5 5H5c-2.8 0-5-2.3-5-5v-6c0-2.8 2.3-5 5-5h86c2.8 0 5 2.3 5 5v6zm64 0c0 2.8-2.3 5-5 5h-38c-2.8 0-5-2.3-5-5v-6c0-2.8 2.3-5 5-5h38c2.8 0 5 2.3 5 5v6zm64 0c0 2.8-2.3 5-5 5h-38c-2.8 0-5-2.3-5-5v-6c0-2.8 2.3-5 5-5h38c2.8 0 5 2.3 5 5v6zm32 0c0 2.8-2.3 5-5 5h-6c-2.8 0-5-2.3-5-5v-6c0-2.8 2.3-5 5-5h6c2.8 0 5 2.3 5 5v6zm32 0c0 2.8-2.3 5-5 5h-6c-2.8 0-5-2.3-5-5v-6c0-2.8 2.3-5 5-5h6c2.8 0 5 2.3 5 5v6zm32 0c0 2.8-2.3 5-5 5h-6c-2.8 0-5-2.3-5-5v-6c0-2.8 2.3-5 5-5h6c2.8 0 5 2.3 5 5v6zm32 0c0 2.8-2.3 5-5 5h-6c-2.8 0-5-2.3-5-5v-6c0-2.8 2.3-5 5-5h6c2.8 0 5 2.3 5 5v6zm48 0c0 2.8-2.3 5-5 5h-22c-2.8 0-5-2.3-5-5v-6c0-2.8 2.3-5 5-5h22c2.8 0 5 2.3 5 5v6zm48 0c0 2.8-2.3 5-5 5h-22c-2.8 0-5-2.3-5-5v-6c0-2.8 2.3-5 5-5h22c2.8 0 5 2.3 5 5v6zm64 0c0 2.8-2.3 5-5 5h-38c-2.8 0-5-2.3-5-5v-6c0-2.8 2.3-5 5-5h38c2.8 0 5 2.3 5 5v6zM64 355c0 2.8-2.3 5-5 5H5c-2.8 0-5-2.3-5-5v-6c0-2.8 2.3-5 5-5h54c2.8 0 5 2.3 5 5v6zm96 0c0 2.8-2.3 5-5 5H85c-2.8 0-5-2.3-5-5v-6c0-2.8 2.3-5 5-5h70c2.8 0 5 2.3 5 5v6zm64 0c0 2.8-2.3 5-5 5h-38c-2.8 0-5-2.3-5-5v-6c0-2.8 2.3-5 5-5h38c2.8 0 5 2.3 5 5v6zm32 0c0 2.8-2.3 5-5 5h-6c-2.8 0-5-2.3-5-5v-6c0-2.8 2.3-5 5-5h6c2.8 0 5 2.3 5 5v6zm32 0c0 2.8-2.3 5-5 5h-6c-2.8 0-5-2.3-5-5v-6c0-2.8 2.3-5 5-5h6c2.8 0 5 2.3 5 5v6zm32 0c0 2.8-2.3 5-5 5h-6c-2.8 0-5-2.3-5-5v-6c0-2.8 2.3-5 5-5h6c2.8 0 5 2.3 5 5v6zm32 0c0 2.8-2.3 5-5 5h-6c-2.8 0-5-2.3-5-5v-6c0-2.8 2.3-5 5-5h6c2.8 0 5 2.3 5 5v6zm48 0c0 2.8-2.3 5-5 5h-22c-2.8 0-5-2.3-5-5v-6c0-2.8 2.3-5 5-5h22c2.8 0 5 2.3 5 5v6zm48 0c0 2.8-2.3 5-5 5h-22c-2.8 0-5-2.3-5-5v-6c0-2.8 2.3-5 5-5h22c2.8 0 5 2.3 5 5v6zm64 0c0 2.8-2.3 5-5 5h-38c-2.8 0-5-2.3-5-5v-6c0-2.8 2.3-5 5-5h38c2.8 0 5 2.3 5 5v6zM48 387c0 2.8-2.3 5-5 5H5c-2.8 0-5-2.3-5-5v-6c0-2.8 2.3-5 5-5h38c2.8 0 5 2.3 5 5v6zm112 0c0 2.8-2.3 5-5 5H69c-2.8 0-5-2.3-5-5v-6c0-2.8 2.3-5 5-5h86c2.8 0 5 2.3 5 5v6zm64 0c0 2.8-2.3 5-5 5h-38c-2.8 0-5-2.3-5-5v-6c0-2.8 2.3-5 5-5h38c2.8 0 5 2.3 5 5v6zm32 0c0 2.8-2.3 5-5 5h-6c-2.8 0-5-2.3-5-5v-6c0-2.8 2.3-5 5-5h6c2.8 0 5 2.3 5 5v6zm32 0c0 2.8-2.3 5-5 5h-6c-2.8 0-5-2.3-5-5v-6c0-2.8 2.3-5 5-5h6c2.8 0 5 2.3 5 5v6zm32 0c0 2.8-2.3 5-5 5h-6c-2.8 0-5-2.3-5-5v-6c0-2.8 2.3-5 5-5h6c2.8 0 5 2.3 5 5v6zm32 0c0 2.8-2.3 5-5 5h-6c-2.8 0-5-2.3-5-5v-6c0-2.8 2.3-5 5-5h6c2.8 0 5 2.3 5 5v6zm48 0c0 2.8-2.3 5-5 5h-22c-2.8 0-5-2.3-5-5v-6c0-2.8 2.3-5 5-5h22c2.8 0 5 2.3 5 5v6zm48 0c0 2.8-2.3 5-5 5h-22c-2.8 0-5-2.3-5-5v-6c0-2.8 2.3-5 5-5h22c2.8 0 5 2.3 5 5v6zm64 0c0 2.8-2.3 5-5 5h-38c-2.8 0-5-2.3-5-5v-6c0-2.8 2.3-5 5-5h38c2.8 0 5 2.3 5 5v6zM112 259c0 2.8-2.3 5-5 5H37c-2.8 0-5-2.3-5-5v-6c0-2.8 2.3-5 5-5h70c2.8 0 5 2.3 5 5v6z" fill="#f4efef"/></svg>