<svg version="1.1" xmlns="http://www.w3.org/2000/svg" x="0" y="0" viewBox="0 0 512 512" xml:space="preserve"><path d="M256 6C117.9 6 6 117.9 6 256s111.9 250 250 250 250-111.9 250-250S394.1 6 256 6zm0 305c-30.4 0-55-24.6-55-55s24.6-55 55-55 55 24.6 55 55-24.6 55-55 55z" fill="#667e8e"/><path d="M512 118V6c0-3.3-2.7-6-6-6H6C2.7 0 0 2.7 0 6v500c0 3.3 2.7 6 6 6h189c0-4.1 3.4-7.5 7.5-7.5s7.5 3.4 7.5 7.5h92c0-4.1 3.4-7.5 7.5-7.5s7.5 3.4 7.5 7.5h189c3.3 0 6-2.7 6-6V145h-13v-27h13zM280 474c0 13.2-10.8 24-24 24s-24-10.8-24-24v-84c0-13.2 10.8-24 24-24s24 10.8 24 24v84zm-24-140.5c-42.8 0-77.5-34.7-77.5-77.5s34.7-77.5 77.5-77.5 77.5 34.7 77.5 77.5-34.7 77.5-77.5 77.5zm93-39.5c-7.2 0-13-5.8-13-13s5.8-13 13-13 13 5.8 13 13-5.8 13-13 13z" fill="#36434f"/><path d="M204 68H10V21c0-6.6 5.4-12 12-12h170c6.6 0 12 5.4 12 12v47z" fill="#cc584c"/><path d="M192 127H22c-6.6 0-12-5.4-12-12V68h194v47c0 6.6-5.4 12-12 12z" fill="#f4f4f4"/><path d="M201 256c0-30.4 24.6-55 55-55V0H6C2.7 0 0 2.7 0 6v500c0 3.3 2.7 6 6 6h189c0-4.1 3.4-7.5 7.5-7.5s7.5 3.4 7.5 7.5h46V311c-30.4 0-55-24.6-55-55z" opacity=".15" fill="#444"/></svg>