<svg version="1.1" xmlns="http://www.w3.org/2000/svg" x="0" y="0" viewBox="0 0 512 512" xml:space="preserve"><style type="text/css">.st1{fill:#038387}.st2{fill:#36434f}</style><path d="M54 136c-3.3 0-6 2.7-6 6v228c0 3.3 2.7 6 6 6h404c3.3 0 6-2.7 6-6V142c0-3.3-2.7-6-6-6H54z" fill="#f4f4f4"/><path class="st1" d="M153 316c0 6.6-5.4 12-12 12H92c-6.6 0-12-5.4-12-12v-24c0-6.6 5.4-12 12-12h49c6.6 0 12 5.4 12 12v24z"/><path class="st2" d="M331 317c0 6.6-5.4 12-12 12H193c-6.6 0-12-5.4-12-12v-24c0-6.6 5.4-12 12-12h126c6.6 0 12 5.4 12 12v24z"/><path class="st1" d="M432 317c0 6.6-5.4 12-12 12h-49c-6.6 0-12-5.4-12-12v-24c0-6.6 5.4-12 12-12h49c6.6 0 12 5.4 12 12v24z"/><path class="st2" d="M128 220c0 6.6-5.4 12-12 12H92c-6.6 0-12-5.4-12-12v-24c0-6.6 5.4-12 12-12h24c6.6 0 12 5.4 12 12v24zm76 0c0 6.6-5.4 12-12 12h-24c-6.6 0-12-5.4-12-12v-24c0-6.6 5.4-12 12-12h24c6.6 0 12 5.4 12 12v24zm76 0c0 6.6-5.4 12-12 12h-24c-6.6 0-12-5.4-12-12v-24c0-6.6 5.4-12 12-12h24c6.6 0 12 5.4 12 12v24zm76 0c0 6.6-5.4 12-12 12h-24c-6.6 0-12-5.4-12-12v-24c0-6.6 5.4-12 12-12h24c6.6 0 12 5.4 12 12v24zm76 0c0 6.6-5.4 12-12 12h-24c-6.6 0-12-5.4-12-12v-24c0-6.6 5.4-12 12-12h24c6.6 0 12 5.4 12 12v24z"/><path class="st1" d="M464 88H48c-26.4 0-48 21.6-48 48v240c0 26.4 21.6 48 48 48h416c26.4 0 48-21.6 48-48V136c0-26.4-21.6-48-48-48zm0 282c0 3.3-2.7 6-6 6H54c-3.3 0-6-2.7-6-6V142c0-3.3 2.7-6 6-6h404c3.3 0 6 2.7 6 6v228z"/></svg>