<svg version="1.1" xmlns="http://www.w3.org/2000/svg" x="0" y="0" viewBox="0 0 512 512" xml:space="preserve"><style type="text/css">.st3{fill:#4db7ad}.st4{fill:#262626}</style><path fill="#ddd" d="M58 0h396v512H58z"/><path d="M58 50.5h396v396H58v-396z" fill="#b2dfdc"/><path d="M73.7 446.5H250l184.5-396h-48.1l-312.7 396z" fill="#80cbc4"/><path class="st3" d="M386.5 50.5H58v396h15.7l312.8-396z"/><circle class="st4" cx="431" cy="19" r="1.5"/><circle class="st4" cx="431" cy="25" r="1.5"/><circle class="st4" cx="431" cy="31" r="1.5"/><circle class="st3" cx="85.5" cy="24.5" r="14.5"/><path class="st4" d="M116.2 28.8c-.1-.2-.1-.4-.2-.6-.4.5-1 .7-1.7.7s-1.2-.2-1.7-.6c-.4-.4-.7-.9-.7-1.5 0-.7.3-1.3.8-1.7.5-.4 1.3-.6 2.3-.6h.8v-.4c0-.3-.1-.6-.2-.8-.2-.2-.4-.3-.8-.3-.3 0-.6.1-.7.2-.2.1-.3.4-.3.6H112c0-.4.1-.8.4-1.1s.6-.6 1-.8c.4-.2 1-.3 1.5-.3.8 0 1.5.2 2 .6s.7 1 .7 1.8v3c0 .7.1 1.1.3 1.5v.1h-1.7v.2zm-1.5-1.3c.3 0 .5-.1.7-.2s.4-.3.5-.5v-1.2h-.7c-.9 0-1.4.3-1.5 1v.1c0 .2.1.4.2.6s.5.2.8.2zm7.3-.1c.3 0 .6-.1.8-.3s.3-.4.3-.7h1.7c0 .5-.1.9-.4 1.3-.2.4-.6.7-1 .9-.4.2-.9.3-1.4.3-1 0-1.8-.3-2.3-.9-.6-.6-.9-1.5-.9-2.6v-.1c0-1.1.3-1.9.8-2.5s1.3-.9 2.3-.9c.9 0 1.5.2 2.1.7.5.5.8 1.1.8 2h-1.7c0-.4-.1-.6-.3-.9-.2-.2-.5-.3-.8-.3-.4 0-.8.2-1 .5s-.3.8-.3 1.5v.2c0 .7.1 1.2.3 1.5.3.1.6.3 1 .3zm6.8 0c.3 0 .6-.1.8-.3s.3-.4.3-.7h1.7c0 .5-.1.9-.4 1.3-.2.4-.6.7-1 .9-.4.2-.9.3-1.4.3-1 0-1.8-.3-2.3-.9-.6-.6-.9-1.5-.9-2.6v-.1c0-1.1.3-1.9.8-2.5s1.3-.9 2.3-.9c.9 0 1.5.2 2.1.7.5.5.8 1.1.8 2H130c0-.4-.1-.6-.3-.9-.2-.2-.5-.3-.8-.3-.4 0-.8.2-1 .5s-.3.8-.3 1.5v.2c0 .7.1 1.2.3 1.5.1.1.5.3.9.3zm3.6-2.1c0-.7.1-1.3.4-1.8s.6-.9 1.1-1.2c.5-.3 1.1-.4 1.7-.4.9 0 1.7.3 2.3.9s.9 1.3 1 2.3v.5c0 1.1-.3 1.9-.9 2.5-.6.6-1.4 1-2.4 1s-1.8-.3-2.4-1c-.5-.8-.8-1.7-.8-2.8zm1.9.1c0 .7.1 1.2.4 1.5s.6.5 1.1.5c.4 0 .8-.2 1-.5s.4-.9.4-1.6c0-.6-.1-1.1-.4-1.5-.2-.4-.6-.5-1.1-.5-.4 0-.8.2-1 .5s-.4.8-.4 1.6zm9.9 2.7c-.5.6-1.1.8-1.9.8-.7 0-1.3-.2-1.7-.6s-.6-1-.6-1.9v-4.5h1.8v4.4c0 .7.3 1.1 1 1.1.6 0 1-.2 1.3-.6v-4.9h1.8v6.9h-1.7v-.7zm4.8-6.2l.1.8c.5-.6 1.1-.9 2-.9.7 0 1.3.2 1.6.6s.5 1.1.5 1.9v4.4h-1.8v-4.4c0-.4-.1-.7-.3-.8-.2-.2-.5-.3-.8-.3-.5 0-.9.2-1.2.7v4.8h-1.8v-6.9l1.7.1zm7.8-1.7v1.7h1.2v1.3h-1.2v3.4c0 .3 0 .4.1.5s.3.2.6.2h.5v1.4c-.4.1-.7.2-1.1.2-1.3 0-1.9-.6-2-1.9v-3.7h-1V22h1v-1.7h1.9v-.1zM130.4 480c-.1 0-.2 0-.3-.1l-3.9-1.3c-1.6.9-3.4 1.4-5.3 1.4-6.1 0-11-4.9-11-11s4.9-11 11-11 11 4.9 11 11c0 2.1-.6 4.2-1.8 6l1.2 3.7c.1.4 0 .8-.2 1-.1.2-.4.3-.7.3zm-9.5-20c-5 0-9 4-9 9s4 9 9 9c1.6 0 3.2-.5 4.6-1.3.3-.2.6-.2.8-.1l2.4.8-.8-2.3c-.1-.3-.1-.6.1-.9 1.1-1.5 1.7-3.4 1.7-5.2.2-5-3.8-9-8.8-9zm50-.7v-.4c0-.1-.1-.2-.1-.3-.1-.1-.1-.2-.2-.3l-.1-.1c-.2-.1-.4-.2-.6-.2h-22c-.4 0-.8.2-.9.6s-.1.8.2 1.1l7.8 7.8 1.9 11.7c.1.4.4.7.8.8h.2c.3 0 .7-.2.9-.5l12-20c0-.1.1-.1.1-.2zm-4.7.7l-10.1 5.8-5.8-5.8h15.9zm-7.7 16.2l-1.4-8.6 10.1-5.8-8.7 14.4z"/><path d="M94.7 463c-.6-2.3-2.5-4.2-4.8-4.8-2.4-.6-5 .1-7.3 2-2.2-1.9-4.8-2.6-7.3-2-2.3.6-4.2 2.5-4.8 4.8-.7 2.7.2 5.6 2.6 8l8.7 8.7c.2.2.4.3.7.3s.5-.1.7-.3l8.7-8.7c2.6-2.4 3.5-5.3 2.8-8z" fill="#ee4957"/><path class="st4" d="M438 480c-.3 0-.5-.1-.7-.3l-8.3-8.3-8.3 8.3c-.3.3-.7.4-1.1.2-.4-.2-.6-.5-.6-.9v-20c0-.6.4-1 1-1h18c.6 0 1 .4 1 1v20c0 .4-.2.8-.6.9-.1.1-.3.1-.4.1zm-9-11c.3 0 .5.1.7.3l7.3 7.3V460h-16v16.6l7.3-7.3c.2-.2.4-.3.7-.3zM73.9 498.3h1c.5 0 .8-.1 1-.3.2-.2.3-.5.3-.9s-.1-.7-.3-.9c-.2-.2-.5-.3-.9-.3s-.6.1-.9.3c-.2.2-.4.4-.4.8h-1.8c0-.5.1-.9.4-1.3s.6-.7 1.1-.9c.5-.2 1-.3 1.5-.3 1 0 1.7.2 2.3.7.6.5.8 1.1.8 1.9 0 .4-.1.8-.4 1.2s-.6.6-1 .8c.5.2.9.5 1.2.8.3.4.4.8.4 1.3 0 .8-.3 1.5-.9 2s-1.4.7-2.4.7c-.9 0-1.7-.2-2.3-.7-.6-.5-.9-1.1-.9-1.9h1.8c0 .3.1.6.4.9.3.2.6.3 1 .3s.8-.1 1-.3c.2-.2.4-.5.4-.9 0-.9-.5-1.4-1.5-1.4h-1v-1.6h.1zm6.1 7.8l-1-.5.2-.4c.3-.5.4-1 .4-1.5v-1.4h1.5v1.3c0 .5-.1.9-.4 1.4s-.3.8-.7 1.1zm7.1-2.3h-1.8v-7.1l-2.2.7v-1.5l3.8-1.4h.2v9.3zm8.4-3.5h1v1.5h-1v2h-1.8v-2h-3.8l-.1-1.2 3.9-6.1h1.9l-.1 5.8zm-3.8 0h2V497l-.1.2-1.9 3.1zm10.3 3.5h-1.8v-7.1l-2.2.7v-1.5l3.8-1.4h.2v9.3zm8.3 0h-1.8V494h1.8v9.8zm1.5-8.7c0-.3.1-.5.3-.7.2-.2.4-.3.8-.3.3 0 .6.1.7.3s.3.4.3.7c0 .3-.1.5-.3.7-.2.2-.4.3-.7.3s-.6-.1-.7-.3c-.3-.2-.4-.4-.4-.7zm1.9 8.7h-1.8v-6.9h1.8v6.9zm4-2.8l-.7.7v2.1h-1.8V494h1.8v5.4l.4-.5 1.8-2.1h2.2l-2.5 2.9 2.7 4h-2.1l-1.8-2.7zm7.5 2.9c-1 0-1.8-.3-2.5-.9-.6-.6-.9-1.4-.9-2.5v-.2c0-.7.1-1.3.4-1.8s.6-1 1.1-1.3 1-.4 1.7-.4c.9 0 1.7.3 2.2.9s.8 1.4.8 2.5v.7h-4.4c.1.4.2.8.5 1.1.3.3.7.4 1.1.4.7 0 1.3-.3 1.7-.8l.9 1c-.3.4-.6.7-1.1.9s-.9.4-1.5.4zm-.2-5.7c-.4 0-.7.1-.9.4-.2.2-.4.6-.4 1.1h2.6v-.1c0-.4-.1-.7-.3-.9-.3-.4-.6-.5-1-.5zm7.8 3.7c0-.2-.1-.4-.3-.5s-.6-.2-1.1-.3c-1.6-.3-2.5-1-2.5-2.1 0-.6.3-1.1.8-1.5s1.2-.6 2-.6c.9 0 1.6.2 2.1.6s.8.9.8 1.6h-1.8c0-.3-.1-.5-.3-.7s-.4-.3-.8-.3c-.3 0-.5.1-.7.2s-.3.3-.3.5.1.4.3.5.5.2 1 .3c.5.1.8.2 1.2.3 1 .4 1.5 1 1.5 1.8 0 .6-.3 1.1-.8 1.5s-1.2.6-2.1.6c-.6 0-1.1-.1-1.5-.3-.4-.2-.8-.5-1.1-.8s-.4-.7-.4-1.2h1.7c0 .3.1.6.4.7s.5.3.9.3.6-.1.8-.2c.1-.1.2-.2.2-.4z"/></svg>