<svg version="1.1" xmlns="http://www.w3.org/2000/svg" x="0" y="0" viewBox="0 0 512 512" xml:space="preserve"><style type="text/css">.st0{fill:#ddd}.st1{fill:#bbb}.st2{fill:#999}</style><path class="st0" d="M484.9 295.1l-17.7-2.5c-1.4 9.8-3.8 19.4-7.4 28.5l16.6 4.8c3.9-9.8 6.7-20.1 8.5-30.8z"/><ellipse transform="rotate(-66.909 443.3 433.597)" class="st1" cx="443.3" cy="433.6" rx="85" ry="14"/><path class="st1" d="M470.7 313.1l-14.8 1.5-10.6 32.9c-2.5-1.1-5.5.1-6.6 2.6l-58 136.1v5.1c0 4.6 3.1 8.7 7.6 9.8l8.2 2c1.2.3 2.4.8 3.4 1.5l10.1 7.2L477 356s4-9 7-19 5.6-19.9 5.6-19.9l-18.9-4z"/><ellipse transform="rotate(-66.909 409.329 419.063)" class="st0" cx="409.3" cy="419.1" rx="76" ry="7"/><path class="st0" d="M385.9 410.2l-11 25.8-24.3 57 28.9-4 18-42.3 11.8-27.6 29.8-69.9-17.1-23.6z"/><path class="st1" d="M420.3 319.4l-16.8-1.6-71.3 167.3 12.7 10.9c10.2 4.4 35.3-31.7 56.1-80.4 20.8-48.8 29.4-91.8 19.3-96.2z"/><ellipse transform="rotate(-66.909 368.394 401.669)" class="st2" cx="368.4" cy="401.7" rx="91" ry="13.5"/><circle class="st2" cx="408.9" cy="476.7" r="2.9"/><circle class="st2" cx="401.1" cy="495.1" r="2.9"/><path class="st0" d="M27.1 295.1l17.7-2.5c1.4 9.8 3.8 19.4 7.4 28.5L35.6 326c-3.9-9.9-6.7-20.2-8.5-30.9z"/><ellipse transform="rotate(-23.089 68.722 433.602)" class="st1" cx="68.7" cy="433.6" rx="14" ry="85"/><path class="st1" d="M41.3 313.1l14.8 1.5 10.6 32.9c2.5-1.1 5.5.1 6.6 2.6l58 136.1v5.1c0 4.6-3.1 8.7-7.6 9.8l-8.2 2c-1.2.3-2.4.8-3.4 1.5l-10.1 7.2L35 356s-4-9-7-19-5.6-19.9-5.6-19.9l18.9-4z"/><ellipse transform="rotate(-23.089 102.717 419.103)" class="st0" cx="102.7" cy="419.1" rx="7" ry="76"/><path class="st0" d="M126.1 410.2l11 25.8 24.3 57-28.9-4-18-42.3-11.8-27.6-29.8-69.9L90 325.6z"/><path class="st1" d="M108.5 317.8l-16.8 1.6c-10.1 4.4-1.5 47.4 19.3 96.2 20.8 48.7 45.9 84.8 56.1 80.4l12.7-10.9-71.3-167.3z"/><ellipse transform="rotate(-23.089 143.73 401.705)" class="st2" cx="143.7" cy="401.7" rx="13.5" ry="91"/><circle class="st2" cx="103.1" cy="476.7" r="2.9"/><circle class="st2" cx="110.9" cy="495.1" r="2.9"/><path class="st1" d="M256 0C59.7 0-9.3 166.3 18.9 305.6l21.8-4.7 13.3 1.3C31.1 184.1 91.1 44.6 256 44.6s224.9 139.5 202.1 257.7l13.3-1.3 21.8 4.7C521.3 166.3 452.3 0 256 0z"/><path d="M18.9 305.6l9.8-2.1c.9 3.9 1.9 7.8 3 11.6l-9.4 2s2.6 9.9 5.6 19.9c2.7 9 6.2 17.2 6.9 18.7-6.2 4.6 3 41.3 20.9 83.4 18.4 43.2 39.1 75.7 46.2 72.7.3-.1.5-.3.8-.5l9.4-6.6c1-.7 2.2-1.2 3.4-1.5l8.2-2c4.5-1.1 7.7-5.2 7.6-9.8v-2.6c.5.3.9.4 1.2.3l24.7 3.4c4 3.3 7.3 4.7 9.8 3.6l12.8-11c5.9-4.6-4.5-43.6-23.7-88.7s-40.2-79.6-47.6-78.5l-16.7 1.6c-2.5 1.1-3.8 4.4-4.2 9.5l-14.7 20.2s-.1 0-.1.1c-1.3-1.9-3.9-2.7-6.1-1.8l-10.6-32.9-6.5-.7c-1.3-4.1-2.4-8.2-3.3-12.4l7.6.8C31.1 184.1 91.1 44.6 256 44.6V0C59.7 0-9.3 166.3 18.9 305.6z" opacity=".15" fill="#444"/></svg>