<svg version="1.1" xmlns="http://www.w3.org/2000/svg" x="0" y="0" viewBox="0 0 512 512" xml:space="preserve"><style type="text/css">.st0{fill:#f4efef}.st1{fill:#bfbebe}</style><path class="st0" d="M80 68c0 6.6-5.4 12-12 12H12C5.4 80 0 74.6 0 68V12C0 5.4 5.4 0 12 0h56c6.6 0 12 5.4 12 12v56z"/><path class="st1" d="M68 3c5 0 9 4 9 9v56c0 5-4 9-9 9H12c-5 0-9-4-9-9V12c0-5 4-9 9-9h56m0-3H12C5.4 0 0 5.4 0 12v56c0 6.6 5.4 12 12 12h56c6.6 0 12-5.4 12-12V12c0-6.6-5.4-12-12-12z"/><path class="st0" d="M188 68c0 6.6-5.4 12-12 12h-56c-6.6 0-12-5.4-12-12V12c0-6.6 5.4-12 12-12h56c6.6 0 12 5.4 12 12v56z"/><path class="st1" d="M176 3c5 0 9 4 9 9v56c0 5-4 9-9 9h-56c-5 0-9-4-9-9V12c0-5 4-9 9-9h56m0-3h-56c-6.6 0-12 5.4-12 12v56c0 6.6 5.4 12 12 12h56c6.6 0 12-5.4 12-12V12c0-6.6-5.4-12-12-12z"/><path class="st0" d="M296 68c0 6.6-5.4 12-12 12h-56c-6.6 0-12-5.4-12-12V12c0-6.6 5.4-12 12-12h56c6.6 0 12 5.4 12 12v56z"/><path class="st1" d="M284 3c5 0 9 4 9 9v56c0 5-4 9-9 9h-56c-5 0-9-4-9-9V12c0-5 4-9 9-9h56m0-3h-56c-6.6 0-12 5.4-12 12v56c0 6.6 5.4 12 12 12h56c6.6 0 12-5.4 12-12V12c0-6.6-5.4-12-12-12z"/><path class="st0" d="M404 68c0 6.6-5.4 12-12 12h-56c-6.6 0-12-5.4-12-12V12c0-6.6 5.4-12 12-12h56c6.6 0 12 5.4 12 12v56z"/><path class="st1" d="M392 3c5 0 9 4 9 9v56c0 5-4 9-9 9h-56c-5 0-9-4-9-9V12c0-5 4-9 9-9h56m0-3h-56c-6.6 0-12 5.4-12 12v56c0 6.6 5.4 12 12 12h56c6.6 0 12-5.4 12-12V12c0-6.6-5.4-12-12-12z"/><path class="st0" d="M512 68c0 6.6-5.4 12-12 12h-56c-6.6 0-12-5.4-12-12V12c0-6.6 5.4-12 12-12h56c6.6 0 12 5.4 12 12v56z"/><path class="st1" d="M500 3c5 0 9 4 9 9v56c0 5-4 9-9 9h-56c-5 0-9-4-9-9V12c0-5 4-9 9-9h56m0-3h-56c-6.6 0-12 5.4-12 12v56c0 6.6 5.4 12 12 12h56c6.6 0 12-5.4 12-12V12c0-6.6-5.4-12-12-12z"/><path class="st0" d="M80 176c0 6.6-5.4 12-12 12H12c-6.6 0-12-5.4-12-12v-56c0-6.6 5.4-12 12-12h56c6.6 0 12 5.4 12 12v56z"/><path class="st1" d="M68 111c5 0 9 4 9 9v56c0 5-4 9-9 9H12c-5 0-9-4-9-9v-56c0-5 4-9 9-9h56m0-3H12c-6.6 0-12 5.4-12 12v56c0 6.6 5.4 12 12 12h56c6.6 0 12-5.4 12-12v-56c0-6.6-5.4-12-12-12z"/><path class="st0" d="M188 176c0 6.6-5.4 12-12 12h-56c-6.6 0-12-5.4-12-12v-56c0-6.6 5.4-12 12-12h56c6.6 0 12 5.4 12 12v56z"/><path class="st1" d="M176 111c5 0 9 4 9 9v56c0 5-4 9-9 9h-56c-5 0-9-4-9-9v-56c0-5 4-9 9-9h56m0-3h-56c-6.6 0-12 5.4-12 12v56c0 6.6 5.4 12 12 12h56c6.6 0 12-5.4 12-12v-56c0-6.6-5.4-12-12-12z"/><path class="st0" d="M296 176c0 6.6-5.4 12-12 12h-56c-6.6 0-12-5.4-12-12v-56c0-6.6 5.4-12 12-12h56c6.6 0 12 5.4 12 12v56z"/><path class="st1" d="M284 111c5 0 9 4 9 9v56c0 5-4 9-9 9h-56c-5 0-9-4-9-9v-56c0-5 4-9 9-9h56m0-3h-56c-6.6 0-12 5.4-12 12v56c0 6.6 5.4 12 12 12h56c6.6 0 12-5.4 12-12v-56c0-6.6-5.4-12-12-12z"/><path class="st0" d="M404 176c0 6.6-5.4 12-12 12h-56c-6.6 0-12-5.4-12-12v-56c0-6.6 5.4-12 12-12h56c6.6 0 12 5.4 12 12v56z"/><path class="st1" d="M392 111c5 0 9 4 9 9v56c0 5-4 9-9 9h-56c-5 0-9-4-9-9v-56c0-5 4-9 9-9h56m0-3h-56c-6.6 0-12 5.4-12 12v56c0 6.6 5.4 12 12 12h56c6.6 0 12-5.4 12-12v-56c0-6.6-5.4-12-12-12z"/><path class="st0" d="M512 176c0 6.6-5.4 12-12 12h-56c-6.6 0-12-5.4-12-12v-56c0-6.6 5.4-12 12-12h56c6.6 0 12 5.4 12 12v56z"/><path class="st1" d="M500 111c5 0 9 4 9 9v56c0 5-4 9-9 9h-56c-5 0-9-4-9-9v-56c0-5 4-9 9-9h56m0-3h-56c-6.6 0-12 5.4-12 12v56c0 6.6 5.4 12 12 12h56c6.6 0 12-5.4 12-12v-56c0-6.6-5.4-12-12-12z"/><path class="st0" d="M80 284c0 6.6-5.4 12-12 12H12c-6.6 0-12-5.4-12-12v-56c0-6.6 5.4-12 12-12h56c6.6 0 12 5.4 12 12v56z"/><path class="st1" d="M68 219c5 0 9 4 9 9v56c0 5-4 9-9 9H12c-5 0-9-4-9-9v-56c0-5 4-9 9-9h56m0-3H12c-6.6 0-12 5.4-12 12v56c0 6.6 5.4 12 12 12h56c6.6 0 12-5.4 12-12v-56c0-6.6-5.4-12-12-12z"/><path class="st0" d="M188 284c0 6.6-5.4 12-12 12h-56c-6.6 0-12-5.4-12-12v-56c0-6.6 5.4-12 12-12h56c6.6 0 12 5.4 12 12v56z"/><path class="st1" d="M176 219c5 0 9 4 9 9v56c0 5-4 9-9 9h-56c-5 0-9-4-9-9v-56c0-5 4-9 9-9h56m0-3h-56c-6.6 0-12 5.4-12 12v56c0 6.6 5.4 12 12 12h56c6.6 0 12-5.4 12-12v-56c0-6.6-5.4-12-12-12z"/><path class="st0" d="M296 284c0 6.6-5.4 12-12 12h-56c-6.6 0-12-5.4-12-12v-56c0-6.6 5.4-12 12-12h56c6.6 0 12 5.4 12 12v56z"/><path class="st1" d="M284 219c5 0 9 4 9 9v56c0 5-4 9-9 9h-56c-5 0-9-4-9-9v-56c0-5 4-9 9-9h56m0-3h-56c-6.6 0-12 5.4-12 12v56c0 6.6 5.4 12 12 12h56c6.6 0 12-5.4 12-12v-56c0-6.6-5.4-12-12-12z"/><path class="st0" d="M404 284c0 6.6-5.4 12-12 12h-56c-6.6 0-12-5.4-12-12v-56c0-6.6 5.4-12 12-12h56c6.6 0 12 5.4 12 12v56z"/><path class="st1" d="M392 219c5 0 9 4 9 9v56c0 5-4 9-9 9h-56c-5 0-9-4-9-9v-56c0-5 4-9 9-9h56m0-3h-56c-6.6 0-12 5.4-12 12v56c0 6.6 5.4 12 12 12h56c6.6 0 12-5.4 12-12v-56c0-6.6-5.4-12-12-12z"/><path class="st0" d="M512 284c0 6.6-5.4 12-12 12h-56c-6.6 0-12-5.4-12-12v-56c0-6.6 5.4-12 12-12h56c6.6 0 12 5.4 12 12v56z"/><path class="st1" d="M500 219c5 0 9 4 9 9v56c0 5-4 9-9 9h-56c-5 0-9-4-9-9v-56c0-5 4-9 9-9h56m0-3h-56c-6.6 0-12 5.4-12 12v56c0 6.6 5.4 12 12 12h56c6.6 0 12-5.4 12-12v-56c0-6.6-5.4-12-12-12z"/><path class="st0" d="M80 392c0 6.6-5.4 12-12 12H12c-6.6 0-12-5.4-12-12v-56c0-6.6 5.4-12 12-12h56c6.6 0 12 5.4 12 12v56z"/><path class="st1" d="M68 327c5 0 9 4 9 9v56c0 5-4 9-9 9H12c-5 0-9-4-9-9v-56c0-5 4-9 9-9h56m0-3H12c-6.6 0-12 5.4-12 12v56c0 6.6 5.4 12 12 12h56c6.6 0 12-5.4 12-12v-56c0-6.6-5.4-12-12-12z"/><path class="st0" d="M188 392c0 6.6-5.4 12-12 12h-56c-6.6 0-12-5.4-12-12v-56c0-6.6 5.4-12 12-12h56c6.6 0 12 5.4 12 12v56z"/><path class="st1" d="M176 327c5 0 9 4 9 9v56c0 5-4 9-9 9h-56c-5 0-9-4-9-9v-56c0-5 4-9 9-9h56m0-3h-56c-6.6 0-12 5.4-12 12v56c0 6.6 5.4 12 12 12h56c6.6 0 12-5.4 12-12v-56c0-6.6-5.4-12-12-12z"/><path class="st0" d="M296 392c0 6.6-5.4 12-12 12h-56c-6.6 0-12-5.4-12-12v-56c0-6.6 5.4-12 12-12h56c6.6 0 12 5.4 12 12v56z"/><path class="st1" d="M284 327c5 0 9 4 9 9v56c0 5-4 9-9 9h-56c-5 0-9-4-9-9v-56c0-5 4-9 9-9h56m0-3h-56c-6.6 0-12 5.4-12 12v56c0 6.6 5.4 12 12 12h56c6.6 0 12-5.4 12-12v-56c0-6.6-5.4-12-12-12z"/><path class="st0" d="M404 392c0 6.6-5.4 12-12 12h-56c-6.6 0-12-5.4-12-12v-56c0-6.6 5.4-12 12-12h56c6.6 0 12 5.4 12 12v56z"/><path class="st1" d="M392 327c5 0 9 4 9 9v56c0 5-4 9-9 9h-56c-5 0-9-4-9-9v-56c0-5 4-9 9-9h56m0-3h-56c-6.6 0-12 5.4-12 12v56c0 6.6 5.4 12 12 12h56c6.6 0 12-5.4 12-12v-56c0-6.6-5.4-12-12-12z"/><path class="st0" d="M512 392c0 6.6-5.4 12-12 12h-56c-6.6 0-12-5.4-12-12v-56c0-6.6 5.4-12 12-12h56c6.6 0 12 5.4 12 12v56z"/><path class="st1" d="M500 327c5 0 9 4 9 9v56c0 5-4 9-9 9h-56c-5 0-9-4-9-9v-56c0-5 4-9 9-9h56m0-3h-56c-6.6 0-12 5.4-12 12v56c0 6.6 5.4 12 12 12h56c6.6 0 12-5.4 12-12v-56c0-6.6-5.4-12-12-12z"/><path class="st0" d="M80 500c0 6.6-5.4 12-12 12H12c-6.6 0-12-5.4-12-12v-56c0-6.6 5.4-12 12-12h56c6.6 0 12 5.4 12 12v56z"/><path class="st1" d="M68 435c5 0 9 4 9 9v56c0 5-4 9-9 9H12c-5 0-9-4-9-9v-56c0-5 4-9 9-9h56m0-3H12c-6.6 0-12 5.4-12 12v56c0 6.6 5.4 12 12 12h56c6.6 0 12-5.4 12-12v-56c0-6.6-5.4-12-12-12z"/><path class="st0" d="M188 500c0 6.6-5.4 12-12 12h-56c-6.6 0-12-5.4-12-12v-56c0-6.6 5.4-12 12-12h56c6.6 0 12 5.4 12 12v56z"/><path class="st1" d="M176 435c5 0 9 4 9 9v56c0 5-4 9-9 9h-56c-5 0-9-4-9-9v-56c0-5 4-9 9-9h56m0-3h-56c-6.6 0-12 5.4-12 12v56c0 6.6 5.4 12 12 12h56c6.6 0 12-5.4 12-12v-56c0-6.6-5.4-12-12-12z"/><path class="st0" d="M296 500c0 6.6-5.4 12-12 12h-56c-6.6 0-12-5.4-12-12v-56c0-6.6 5.4-12 12-12h56c6.6 0 12 5.4 12 12v56z"/><path class="st1" d="M284 435c5 0 9 4 9 9v56c0 5-4 9-9 9h-56c-5 0-9-4-9-9v-56c0-5 4-9 9-9h56m0-3h-56c-6.6 0-12 5.4-12 12v56c0 6.6 5.4 12 12 12h56c6.6 0 12-5.4 12-12v-56c0-6.6-5.4-12-12-12z"/><path class="st0" d="M404 500c0 6.6-5.4 12-12 12h-56c-6.6 0-12-5.4-12-12v-56c0-6.6 5.4-12 12-12h56c6.6 0 12 5.4 12 12v56z"/><path class="st1" d="M392 435c5 0 9 4 9 9v56c0 5-4 9-9 9h-56c-5 0-9-4-9-9v-56c0-5 4-9 9-9h56m0-3h-56c-6.6 0-12 5.4-12 12v56c0 6.6 5.4 12 12 12h56c6.6 0 12-5.4 12-12v-56c0-6.6-5.4-12-12-12z"/><path class="st0" d="M512 500c0 6.6-5.4 12-12 12h-56c-6.6 0-12-5.4-12-12v-56c0-6.6 5.4-12 12-12h56c6.6 0 12 5.4 12 12v56z"/><path class="st1" d="M500 435c5 0 9 4 9 9v56c0 5-4 9-9 9h-56c-5 0-9-4-9-9v-56c0-5 4-9 9-9h56m0-3h-56c-6.6 0-12 5.4-12 12v56c0 6.6 5.4 12 12 12h56c6.6 0 12-5.4 12-12v-56c0-6.6-5.4-12-12-12z"/></svg>