<svg version="1.1" xmlns="http://www.w3.org/2000/svg" x="0" y="0" viewBox="0 0 512 512" xml:space="preserve"><path d="M77 173H66c-1.7 0-3-1.3-3-3v-40c0-1.7 1.3-3 3-3h11v46z" fill="#ddd"/><path d="M449 157V64L385 0H75c-6.6 0-12 5.4-12 12v112h13v106H63v270c0 6.6 5.4 12 12 12h362c6.6 0 12-5.4 12-12V186h-12v-29h12z" fill="#444"/><path d="M401.5 72h-291c-6.6 0-12 5.4-12 12v84h315V84c0-6.6-5.4-12-12-12z" fill="#cc584c"/><path d="M98.5 168v296c0 6.6 5.4 12 12 12h291c6.6 0 12-5.4 12-12V168h-315z" fill="#f4f4f4"/></svg>