<svg version="1.1" xmlns="http://www.w3.org/2000/svg" x="0" y="0" viewBox="0 0 500 500" xml:space="preserve"><style type="text/css">.st0{fill:#36434f}.st1{fill:#1c2933}.st6{fill:#43535e}.st7{fill:#597e5b}</style><path class="st0" d="M493.6 201.6c2.7 8.2 6.4 35.6 6.4 67s-2.9 155.7-3.2 157.3c-.3 1.7-.5 4.8-3.2 7.4s-10.9 4.3-17.5 4.8-420.4.5-432.1.5-24.7-5-31.9-11.2C4.9 421.3.4 410.7.4 404.5V216.9c0-9.3 18.6-36.9 32.4-48.4 13.8-11.4 38.5-15.9 51.6-30.3 13-14.4 29-62.5 40.9-68s43.6-9 61.7-9 53.7 1.6 63.3 7.4c9.6 5.8 28.2 53.4 37.2 60.1 9 6.6 83.8 16.7 108.4 21.3 24.6 4.5 51.3 7.4 63.3 11.7s14.4 9.8 20.2 15.4c5.7 5.7 11.6 16.3 14.2 24.5z"/><path class="st0" d="M342.7 114.5c21.8 0 43.1 5.8 43.1 5.8V147h-90.9v-26.7c-.1 0 26-5.8 47.8-5.8z"/><path class="st1" d="M334.7 433.6H46.1c-4.5 0-8.2-3.7-8.2-8.2V225.5c0-4.5 3.7-8.2 8.2-8.2h288.6c4.5 0 8.2 3.7 8.2 8.2v199.9c0 4.5-3.7 8.2-8.2 8.2zM46.1 217.8c-4.3 0-7.8 3.5-7.8 7.8v199.9c0 4.3 3.5 7.8 7.8 7.8h288.6c4.3 0 7.8-3.5 7.8-7.8v-200c0-4.3-3.5-7.8-7.8-7.8H46.1v.1z"/><path d="M330.2 426.5h-269c-1 0-1.9-.8-1.9-1.9V226.4c0-1 .8-1.9 1.9-1.9h268.9c1 0 1.9.8 1.9 1.9v198.2c0 1-.8 1.9-1.8 1.9z" fill="#579ec5"/><path d="M90.6 237.3c1.5-.3 3.6-.5 5.7-.5 3.2 0 5.2.6 6.6 1.9 1.2 1 1.8 2.6 1.8 4.4 0 3-1.9 5-4.3 5.8v.1c1.8.6 2.8 2.2 3.4 4.6.7 3.2 1.3 5.4 1.8 6.3h-3.1c-.4-.6-.9-2.6-1.5-5.5-.7-3.2-1.9-4.4-4.6-4.5h-2.8v9.9h-3v-22.5zm3 10.5h3c3.2 0 5.2-1.7 5.2-4.4 0-3-2.1-4.3-5.3-4.3-1.4 0-2.4.1-2.9.3v8.4zm27.2 1.4h-8.9v8.3h9.9v2.5h-12.9v-23h12.4v2.5h-9.4v7.2h8.9v2.5zm20.9 10c-1.1.5-3.3 1.1-6.1 1.1-6.5 0-11.3-4.1-11.3-11.6 0-7.2 4.9-12 12-12 2.9 0 4.7.6 5.4 1l-.7 2.4c-1.1-.5-2.7-1-4.6-1-5.4 0-8.9 3.4-8.9 9.5 0 5.6 3.2 9.2 8.8 9.2 1.8 0 3.6-.4 4.8-1l.6 2.4z" fill="#f4f4f4"/><circle class="st1" cx="256.6" cy="135.7" r="15.6"/><circle cx="78" cy="250" r="7.4" fill="#b24b53"/><path class="st0" d="M269.2 170.3c-1.9-14.4-6.1-30.8-6.1-30.8s-4.3-10.8-8.7-14.4c-4.4-3.5-9.2-5.7-11.8-6.4-2.6-.7-37.4-2-53.2-2.7h-3.8c-15.7.7-50.6 1.9-53.2 2.7-2.6.7-7.3 2.8-11.8 6.4-4.4 3.5-8.7 14.4-8.7 14.4s-4.3 16.5-6.1 30.8c-1.9 14.4-3.2 22.5-3.6 25.5-.3 3 1.7 7.6 3.6 10.1s7.3 3.5 12.8 4.3c5.1.7 61.9-1.3 68.8-1.6 6.9.2 63.7 2.2 68.8 1.6 5.5-.7 10.9-1.8 12.8-4.3s3.9-7.1 3.6-10.1c-.1-3-1.5-11.2-3.4-25.5z"/><path class="st1" d="M251.4 210.5c-15.4 0-58.2-1.5-63.8-1.7-6.5.2-63.7 2.3-68.9 1.6-5.3-.7-11-1.7-12.9-4.3-1.7-2.3-4-7-3.6-10.3.1-1.2.4-3.2.9-6 .6-4.3 1.6-10.8 2.7-19.5 1.9-14.2 6.1-30.7 6.1-30.9.2-.5 4.3-10.9 8.8-14.5 4.1-3.3 8.9-5.6 11.8-6.4 2.1-.6 25.5-1.5 42.6-2.2 4-.2 7.7-.3 10.7-.4h3.7c3 .1 6.7.3 10.7.4 17.1.7 40.5 1.6 42.6 2.2 2.9.8 7.7 3.1 11.8 6.4 4.4 3.5 8.6 14 8.8 14.4 0 .2 4.3 16.7 6.1 30.9 1.1 8.7 2.1 15.1 2.7 19.4.4 2.8.7 4.9.9 6.1.4 3.3-1.9 8-3.6 10.3-2 2.6-7.6 3.6-12.9 4.3-.9.1-2.6.2-5.2.2zm-63.8-2.1c6.5.2 63.6 2.2 68.8 1.6 5.2-.7 10.8-1.7 12.6-4.2 2-2.6 3.9-7.1 3.5-9.9-.1-1.2-.4-3.2-.9-6.1-.6-4.3-1.6-10.8-2.7-19.4-1.8-14.2-6.1-30.6-6.1-30.8 0-.1-4.3-10.8-8.6-14.2-4.1-3.3-8.8-5.5-11.7-6.3-2-.6-25.4-1.5-42.5-2.2-4-.2-7.7-.3-10.6-.4h-3.7c-3 .1-6.6.3-10.6.4-17.1.7-40.4 1.6-42.5 2.2-2.9.8-7.6 3.1-11.7 6.3-4.3 3.5-8.6 14.2-8.6 14.3s-4.3 16.6-6.1 30.8c-1.1 8.7-2.1 15.2-2.7 19.5-.4 2.8-.7 4.8-.8 6-.3 2.8 1.6 7.4 3.5 9.9s7.4 3.5 12.6 4.2c5.2.5 62.3-1.5 68.8-1.7z"/><path class="st1" d="M220.9 197.1h-64.3c-6.9 0-12.4-5.6-12.4-12.4V157c0-6.9 5.6-12.4 12.4-12.4h64.3c6.9 0 12.4 5.6 12.4 12.4v27.6c.1 6.9-5.5 12.5-12.4 12.5zM156.6 145c-6.6 0-12 5.4-12 12v27.6c0 6.6 5.4 12 12 12h64.3c6.6 0 12-5.4 12-12V157c0-6.6-5.4-12-12-12h-64.3z"/><path d="M169.4 151.1h42.5v30.3h-42.5v-30.3z" fill="#667e8e"/><circle class="st6" cx="373" cy="370.7" r="11.7"/><path class="st1" d="M373 382.6c-6.6 0-11.9-5.3-11.9-11.9s5.3-11.9 11.9-11.9 11.9 5.3 11.9 11.9-5.4 11.9-11.9 11.9zm0-23.4c-6.3 0-11.5 5.1-11.5 11.5s5.1 11.5 11.5 11.5 11.5-5.1 11.5-11.5-5.2-11.5-11.5-11.5z"/><circle class="st6" cx="420.3" cy="394" r="11.7"/><path class="st1" d="M420.3 406c-6.6 0-11.9-5.3-11.9-11.9s5.3-11.9 11.9-11.9 11.9 5.3 11.9 11.9-5.4 11.9-11.9 11.9zm0-23.4c-6.3 0-11.5 5.1-11.5 11.5s5.1 11.5 11.5 11.5c6.3 0 11.5-5.1 11.5-11.5s-5.2-11.5-11.5-11.5z"/><circle class="st6" cx="373" cy="411.1" r="11.7"/><path class="st1" d="M373 423c-6.6 0-11.9-5.3-11.9-11.9s5.3-11.9 11.9-11.9 11.9 5.3 11.9 11.9c0 6.5-5.4 11.9-11.9 11.9zm0-23.4c-6.3 0-11.5 5.1-11.5 11.5s5.1 11.5 11.5 11.5 11.5-5.1 11.5-11.5-5.2-11.5-11.5-11.5z"/><circle class="st6" cx="373.5" cy="252.7" r="11.7"/><path class="st1" d="M373.5 264.6c-6.6 0-11.9-5.3-11.9-11.9s5.3-11.9 11.9-11.9 11.9 5.3 11.9 11.9c0 6.6-5.3 11.9-11.9 11.9zm0-23.4c-6.3 0-11.5 5.2-11.5 11.5s5.1 11.5 11.5 11.5S385 259 385 252.7c0-6.4-5.2-11.5-11.5-11.5z"/><circle class="st6" cx="307.6" cy="170.3" r="11.7"/><path class="st1" d="M307.6 182.2c-6.6 0-11.9-5.3-11.9-11.9 0-6.6 5.3-11.9 11.9-11.9s11.9 5.3 11.9 11.9c0 6.5-5.4 11.9-11.9 11.9zm0-23.4c-6.3 0-11.5 5.2-11.5 11.5s5.1 11.5 11.5 11.5c6.3 0 11.5-5.2 11.5-11.5s-5.2-11.5-11.5-11.5z"/><circle class="st6" cx="357.5" cy="177.2" r="11.7"/><path class="st1" d="M357.5 189.1c-6.6 0-11.9-5.3-11.9-11.9 0-6.6 5.3-11.9 11.9-11.9s11.9 5.3 11.9 11.9c.1 6.5-5.3 11.9-11.9 11.9zm0-23.4c-6.3 0-11.5 5.2-11.5 11.5s5.1 11.5 11.5 11.5 11.5-5.2 11.5-11.5c0-6.4-5.1-11.5-11.5-11.5z"/><circle class="st6" cx="72.6" cy="175.6" r="11.7"/><path class="st1" d="M72.6 187.5c-6.6 0-11.9-5.3-11.9-11.9 0-6.6 5.3-11.9 11.9-11.9s11.9 5.3 11.9 11.9-5.3 11.9-11.9 11.9zm0-23.4c-6.3 0-11.5 5.2-11.5 11.5s5.2 11.5 11.5 11.5 11.5-5.2 11.5-11.5-5.1-11.5-11.5-11.5z"/><circle class="st1" cx="43.1" cy="192.9" r="7.2"/><circle class="st1" cx="424.8" cy="360.8" r="5"/><circle class="st7" cx="54" cy="171.3" r="4.3"/><circle class="st7" cx="294.6" cy="157.8" r="4.3"/><path class="st0" d="M389.4 129.1h20.2v26.8l-34.8-3.4 14.6-23.4z"/><path class="st1" d="M0 263.8h38.3v.4H0v-.4zm.4 120.8h37.9v.4H.4v-.4zm497.5 3.3h-27.5c-.2 0-3.8-.7-6-2.9s-2.9-6-2.9-6.1v-96.4c0-.2.2-4.4 2.5-7.2 2.4-2.9 6-3.2 6.2-3.3H500v.4h-29.8s-3.6.4-5.9 3.1-2.4 6.9-2.4 7v96.4s.6 3.8 2.8 5.9c2.1 2.1 5.7 2.8 5.7 2.8h27.4l.1.3zm-78-124.7c-1.5 0-5-.1-6.8-1.1-2.4-1.2-5.3-5.6-5.4-5.7v-.1c-.3-1.2-7.5-29.8-7.8-32.6s.9-7.3 3.2-9.7c2.1-2.2 5.1-3.5 7.9-3.6 2.5-.1 21.4.7 34.1 3.2 12.3 2.4 20.1 5 26 12.1 5.8 7 5.4 24.2 5.4 24.9 0 .2.2 5.3-2.9 8.3-3.1 3-9.8 4.3-10 4.3h-43.7zm-11.8-7.1c.3.4 3 4.4 5.2 5.6 2.3 1.2 7.3 1 7.3 1h42.9s6.8-1.3 9.8-4.2c3-2.9 2.8-7.9 2.8-8 0-.2.4-17.8-5.3-24.7-5.8-7-13.5-9.6-25.8-12-12.6-2.5-31.5-3.3-34-3.2-2.7.1-5.6 1.4-7.6 3.5-2.3 2.3-3.4 6.7-3.1 9.4.2 2.8 7.5 31.4 7.8 32.6zm-177.6-156h-78.7v-36h.4v35.6h77.9V63.4h.4v36.7z"/><circle class="st6" cx="401.3" cy="313.6" r="11.7"/><path class="st1" d="M401.3 325.5c-6.6 0-11.9-5.3-11.9-11.9s5.3-11.9 11.9-11.9 11.9 5.3 11.9 11.9-5.3 11.9-11.9 11.9zm0-23.4c-6.3 0-11.5 5.1-11.5 11.5s5.1 11.5 11.5 11.5 11.5-5.1 11.5-11.5-5.2-11.5-11.5-11.5z"/><path class="st1" d="M401.3 336.9c-12.8 0-23.2-10.4-23.2-23.2 0-12.8 10.4-23.2 23.2-23.2 12.8 0 23.2 10.4 23.2 23.2.1 12.7-10.4 23.2-23.2 23.2zm0-46.1c-12.6 0-22.8 10.2-22.8 22.8s10.2 22.8 22.8 22.8 22.8-10.2 22.8-22.8-10.2-22.8-22.8-22.8z"/><path class="st1" d="M401.3 347.1c-18.5 0-33.5-15-33.5-33.5s15-33.5 33.5-33.5 33.5 15 33.5 33.5-15 33.5-33.5 33.5zm0-66.6c-18.3 0-33.1 14.8-33.1 33.1s14.8 33.1 33.1 33.1 33.1-14.8 33.1-33.1-14.8-33.1-33.1-33.1z"/><path class="st6" d="M396.5 338.8h9.9l-4.9 6.5-5-6.5zm0-51.1h9.9l-4.9-6.5-5 6.5zm30.5 30.5v-9.9l6.6 5-6.6 4.9zm-51 0v-9.9l-6.6 5 6.6 4.9zm17-140.7h67.3v12.4H393v-12.4z"/><path class="st1" d="M460.5 190.1h-67.8v-12.8h67.8v12.8zm-67.3-.4h66.9v-12h-66.9v12z"/></svg>