<svg version="1.1" xmlns="http://www.w3.org/2000/svg" x="0" y="0" viewBox="0 0 512 512" xml:space="preserve"><style type="text/css">.st6{fill:#122a3a}</style><path d="M137 154h-2c-1.1 0-2-.9-2-2V95c0-1.1.9-2 2-2h2v61zm0 63h-2c-1.1 0-2-.9-2-2v-29c0-1.1.9-2 2-2h2v33z" fill="#999"/><path d="M369 512H143c-4.4 0-8-3.6-8-8V8c0-4.4 3.6-8 8-8h226c4.4 0 8 3.6 8 8v496c0 4.4-3.6 8-8 8z" fill="#36434f"/><path d="M366 500H146c-4.4 0-8-3.6-8-8V15c0-4.4 3.6-8 8-8h220c4.4 0 8 3.6 8 8v477c0 4.4-3.6 8-8 8z" fill="#b2dfdc"/><path d="M369.2 7.7L138 482.3v9.7c0 4.4 3.6 8 8 8h118l110-382.3V15c0-3.3-2-6.1-4.8-7.3z" fill="#80cbc4"/><path d="M369.2 7.7c-1-.4-2.1-.7-3.2-.7H146c-4.4 0-8 3.6-8 8v467.3L369.2 7.7z" fill="#4db7ad"/><circle cx="256" cy="19" r="5.9" opacity=".5" fill="#122a3a"/><path class="st6" d="M256 25.5c-3.6 0-6.5-2.9-6.5-6.5s2.9-6.5 6.5-6.5 6.5 2.9 6.5 6.5-2.9 6.5-6.5 6.5zm0-11.8c-2.9 0-5.3 2.4-5.3 5.3s2.4 5.3 5.3 5.3 5.3-2.4 5.3-5.3-2.4-5.3-5.3-5.3z"/><circle class="st6" cx="256" cy="19" r="3.5"/></svg>