<svg version="1.1" xmlns="http://www.w3.org/2000/svg" x="0" y="0" viewBox="0 0 512 512" xml:space="preserve"><style type="text/css">.st0{fill:#ccc}</style><path class="st0" d="M138 180h-1c-1.1 0-2-.9-2-2v-59c0-1.1.9-2 2-2h1v63zm236-20h1c1.1 0 2-.9 2-2v-23c0-1.1-.9-2-2-2h-1v27zm0 65h1c1.1 0 2-.9 2-2v-34c0-1.1-.9-2-2-2h-1v38z"/><path class="st0" d="M345 512H167c-16.6 0-30-13.4-30-30V30c0-16.6 13.4-30 30-30h178c16.6 0 30 13.4 30 30v452c0 16.6-13.4 30-30 30z"/><path d="M349 10H163c-9.9 0-18 8.1-18 18v453c0 9.9 8.1 18 18 18h186c9.9 0 18-8.1 18-18V28c0-9.9-8.1-18-18-18z" fill="#f8f8f8"/><path d="M360.9 14.6L145 480.7v.3c0 9.9 8.1 18 18 18h98.5L367 113.4V28c0-5.4-2.4-10.1-6.1-13.4z" fill="#f4f4f4"/><path d="M349 10H163c-9.9 0-18 8.1-18 18v452.6l215.9-466c-3.1-2.9-7.3-4.6-11.9-4.6z" fill="#f0f0f0"/></svg>