<svg version="1.1" xmlns="http://www.w3.org/2000/svg" x="0" y="0" viewBox="0 0 512 512" xml:space="preserve"><style type="text/css">.st1{fill:#36434f}.st5{opacity:.5;enable-background:new}.st5,.st6{fill:#122a3a}</style><path d="M138 154h-2c-1.1 0-2-.9-2-2V91c0-1.1.9-2 2-2h2v65zm0 62h-2c-1.1 0-2-.9-2-2v-29c0-1.1.9-2 2-2h2v33zm236-98h2c1.1 0 2-.9 2-2V87c0-1.1-.9-2-2-2h-2v33z" fill="#999"/><path class="st1" d="M354 512H158c-12.2 0-22-9.8-22-22V22c0-12.2 9.8-22 22-22h196c12.2 0 22 9.8 22 22v468c0 12.2-9.8 22-22 22z"/><path d="M354 11H158c-9.9 0-18 8.1-18 18v450c0 9.9 8.1 18 18 18h196c9.9 0 18-8.1 18-18V29c0-9.9-8.1-18-18-18z" fill="#667e8e"/><path d="M365.7 15.4L140 478.8v.2c0 9.9 8.1 18 18 18h103.8L372 113.8V29c0-5.5-2.4-10.3-6.3-13.6z" fill="#647b8b"/><path d="M354 11H158c-9.9 0-18 8.1-18 18v449.7L365.7 15.4c-3.1-2.7-7.2-4.4-11.7-4.4z" fill="#607786"/><path class="st1" d="M350 18h-22c-4.4 0-8 3.6-8 8s3.6 8 8 8h22c4.4 0 8-3.6 8-8s-3.6-8-8-8z"/><circle class="st5" cx="350" cy="26" r="5"/><circle class="st5" cx="328" cy="26" r="5"/><path class="st6" d="M328 31.5c-3 0-5.5-2.5-5.5-5.5s2.5-5.5 5.5-5.5 5.5 2.5 5.5 5.5-2.5 5.5-5.5 5.5zm0-10c-2.5 0-4.5 2-4.5 4.5s2 4.5 4.5 4.5 4.5-2 4.5-4.5-2-4.5-4.5-4.5zm22 10c-3 0-5.5-2.5-5.5-5.5s2.5-5.5 5.5-5.5 5.5 2.5 5.5 5.5-2.5 5.5-5.5 5.5zm0-10c-2.5 0-4.5 2-4.5 4.5s2 4.5 4.5 4.5 4.5-2 4.5-4.5-2-4.5-4.5-4.5z"/><circle class="st6" cx="328" cy="26" r="3"/><circle class="st6" cx="350" cy="26" r="3"/><path d="M273 8h-33c-2.8 0-5-2.2-5-5h43c0 2.8-2.2 5-5 5z" opacity=".1" fill="#999"/><path class="st6" d="M276 5V4h1v1h-1zm1 1h-1v1c.4-.3.7-.6 1-1zm-34-1v1h1V5h-1zm23-2h-1v1h1V3zm10 4h-1v.6c.3-.2.7-.4 1-.6zm-8-4h-1v1h1V3zm6 4h1V6h-1v1zm-35-2v1h1V5h-1zm31-2h-1v1h1V3zm8 0h-1v1h.9c.1-.3.1-.7.1-1zm-2 0h-1v1h1V3zm-2 0h-1v1h1V3zm3.6 2h-.6v1c.2-.3.4-.7.6-1zM241 5v1h1V5h-1zm31-2h-1v1h1V3zm-19 5h1V7h-1v1zm-6 0h1V7h-1v1zm2 0h1V7h-1v1zm-4 0h1V7h-1v1zm6 0h1V7h-1v1zm4 0h1V7h-1v1zm-16-.1c.3.1.7.1 1 .1V7h-1v.9zm4 .1h1V7h-1v1zm-2 0h1V7h-1v1zm22 0h1V7h-1v1zm2 0h1V7h-1v1zm4 0h1V7h-1v1zm-2 0h1V7h-1v1zm4 0h1V7h-1v1zm-14 0h1V7h-1v1zm2 0h1V7h-1v1zm-21-.4V7h-1c.3.2.7.4 1 .6zm23 .4h1V7h-1v1zm-13-5h-1v1h1V3zm4 0h-1v1h1V3zm2 0h-1v1h1V3zm-4 0h-1v1h1V3zm6 0h-1v1h1V3zm2 0h-1v1h1V3zm-21 4V6h-1c.3.4.6.7 1 1zm27-4h-1v1h1V3zm-4 0h-1v1h1V3zm2 0h-1v1h1V3zm-26 1v1h1V4h-1zm-1-1c0 .3 0 .7.1 1h.9V3h-1zm1 3V5h-.6c.2.3.4.7.6 1zm2-3h-1v1h1V3zm8 0h-1v1h1V3zm-2 0h-1v1h1V3zm-4 0h-1v1h1V3zm2 0h-1v1h1V3zm5 2V4h-1v1h1zm-5 1v1h1V6h-1zm6 0v1h1V6h-1zm-10 0v1h1V6h-1zm-1-1v1h1V5h-1zm9 1v1h1V6h-1zm-2 0v1h1V6h-1zm-4 0v1h1V6h-1zm9-1V4h-1v1h1zm2 0V4h-1v1h1zm-6 0V4h-1v1h1zm-2 0V4h-1v1h1zm-4 0V4h-1v1h1zm2 0V4h-1v1h1zm17 1v1h1V6h-1zm10 0v1h1V6h-1zm2 0v1h1V6h-1zm-4 0v1h1V6h-1zm6 0v1h1V6h-1zm-27-1v1h1V5h-1zm29 2.9V7h-1v1c.3 0 .7 0 1-.1zM252 6v1h1V6h-1zm2 0v1h1V6h-1zm2 0v1h1V6h-1zm-6 0v1h1V6h-1zm10 0v1h1V6h-1zm-7-1V4h-1v1h1zm9 1v1h1V6h-1zm2 0v1h1V6h-1zm-9-1V4h-1v1h1zm4 0v1h1V5h-1zm2 0v1h1V5h-1zm4 0v1h1V5h-1zm2 0v1h1V5h-1zm2 0v1h1V5h-1zm-20 0v1h1V5h-1zm22 0v1h1V5h-1zm-20 0v1h1V5h-1zm-4 0v1h1V5h-1zm6 0v1h1V5h-1zm4 0v1h1V5h-1zm-2 0v1h1V5h-1zm8 0v1h1V5h-1zm4 0V4h-1v1h1zm-4 0V4h-1v1h1zm2 0V4h-1v1h1zm-4 0V4h-1v1h1zm12 0v1h1V5h-1zm-14 0V4h-1v1h1zm-2 0V4h-1v1h1zm18 1h1V5h-1v1zm0-1V4h-1v1h1zm-6 0V4h-1v1h1zm2 0V4h-1v1h1zm2 0V4h-1v1h1z"/></svg>