<svg version="1.1" xmlns="http://www.w3.org/2000/svg" x="0" y="0" viewBox="0 0 512 512" xml:space="preserve"><style type="text/css">.st0{fill:#3a6582}.st1{fill:#2e86b7}</style><path class="st0" d="M378 163h-1v-35h1c1.7 0 3 1.3 3 3v29c0 1.7-1.3 3-3 3zm0 99h-1v-67h1c1.7 0 3 1.3 3 3v61c0 1.7-1.3 3-3 3z"/><path class="st0" d="M348 512H164c-16.6 0-30-13.4-30-30V30c0-16.6 13.4-30 30-30h184c16.6 0 30 13.4 30 30v452c0 16.6-13.4 30-30 30z"/><path class="st1" d="M280 22h-48c-1.7 0-3-1.3-3-3s1.3-3 3-3h48c1.7 0 3 1.3 3 3s-1.3 3-3 3z"/><circle class="st1" cx="185.5" cy="19.5" r="4.5"/><circle class="st0" cx="185.5" cy="19.5" r="2.5"/><path d="M354 35H158c-6.6 0-12 5.4-12 12v410c0 6.6 5.4 12 12 12h196c6.6 0 12-5.4 12-12V47c0-6.6-5.4-12-12-12z" fill="#b2dfdc"/><path d="M360.9 37.2L146 452.7v4.3c0 6.6 5.4 12 12 12h103.5L366 126.8V47c0-4-2-7.6-5.1-9.8z" fill="#80cbc4"/><path d="M354 35H158c-6.6 0-12 5.4-12 12v405.7L360.9 37.2c-1.9-1.4-4.3-2.2-6.9-2.2z" fill="#4db7ad"/></svg>