<svg xmlns="http://www.w3.org/2000/svg" viewBox="0 0 512 512" xml:space="preserve"><style>.st0{fill:#79b1d1}.st1{fill:#2e86b7}</style><path class="st0" d="M91 193c-50.3 0-91 28.2-91 63s40.7 63 91 63 91-28.2 91-63-40.7-63-91-63zm59.8 101c-15.9 11-37.1 17-59.8 17s-43.9-6-59.8-17C16.2 283.6 8 270.1 8 256c0-14.1 8.2-27.6 23.2-38 15.9-11 37.1-17 59.8-17s43.9 6 59.8 17c15 10.4 23.2 23.8 23.2 38 0 14.1-8.2 27.6-23.2 38zM421 193c-50.3 0-91 28.2-91 63s40.7 63 91 63 91-28.2 91-63-40.7-63-91-63zm59.8 101c-15.9 11-37.1 17-59.8 17-22.7 0-43.9-6-59.8-17-15-10.4-23.2-23.8-23.2-38 0-14.1 8.2-27.6 23.2-38 15.9-11 37.1-17 59.8-17 22.7 0 43.9 6 59.8 17 15 10.4 23.2 23.8 23.2 38 0 14.1-8.2 27.6-23.2 38z"/><path class="st0" d="M91 193c-50.3 0-91 28.2-91 63s40.7 63 91 63 91-28.2 91-63-40.7-63-91-63zm59.8 101c-15.9 11-37.1 17-59.8 17s-43.9-6-59.8-17C16.2 283.6 8 270.1 8 256c0-14.1 8.2-27.6 23.2-38 15.9-11 37.1-17 59.8-17s43.9 6 59.8 17c15 10.4 23.2 23.8 23.2 38 0 14.1-8.2 27.6-23.2 38zM421 193c-50.3 0-91 28.2-91 63s40.7 63 91 63 91-28.2 91-63-40.7-63-91-63zm59.8 101c-15.9 11-37.1 17-59.8 17-22.7 0-43.9-6-59.8-17-15-10.4-23.2-23.8-23.2-38 0-14.1 8.2-27.6 23.2-38 15.9-11 37.1-17 59.8-17 22.7 0 43.9 6 59.8 17 15 10.4 23.2 23.8 23.2 38 0 14.1-8.2 27.6-23.2 38z"/><path class="st0" d="M91 165h330v182H91z"/><path class="st1" d="M91 252h330v8H91zm0 30h330v8H91zm0-60h330v8H91z"/><path d="M421 201c2.7 0 5.4.1 8 .3v-8c-2.6-.2-5.3-.2-8-.2v7.9zm-338 .3c2.6-.2 5.3-.3 8-.3v-8c-2.7 0-5.4.1-8 .2v8.1zM91 311c-2.7 0-5.4-.1-8-.3v8c2.6.2 5.3.2 8 .2V311zm338-.3c-2.6.2-5.3.3-8 .3v8c2.7 0 5.4-.1 8-.2v-8.1z" fill="#444" opacity=".15"/><circle class="st1" cx="103" cy="176" r="2"/><circle class="st1" cx="109" cy="176" r="2"/><circle class="st1" cx="115" cy="176" r="2"/><circle class="st1" cx="103" cy="186" r="2"/><circle class="st1" cx="109" cy="186" r="2"/><circle class="st1" cx="115" cy="186" r="2"/><circle class="st1" cx="103" cy="196" r="2"/><circle class="st1" cx="109" cy="196" r="2"/><circle class="st1" cx="115" cy="196" r="2"/><circle class="st1" cx="103" cy="206" r="2"/><circle class="st1" cx="109" cy="206" r="2"/><circle class="st1" cx="115" cy="206" r="2"/><circle class="st1" cx="103" cy="216" r="2"/><circle class="st1" cx="109" cy="216" r="2"/><circle class="st1" cx="115" cy="216" r="2"/><circle class="st1" cx="103" cy="226" r="2"/><circle class="st1" cx="109" cy="226" r="2"/><circle class="st1" cx="115" cy="226" r="2"/><circle class="st1" cx="103" cy="236" r="2"/><circle class="st1" cx="109" cy="236" r="2"/><circle class="st1" cx="115" cy="236" r="2"/><circle class="st1" cx="103" cy="246" r="2"/><circle class="st1" cx="109" cy="246" r="2"/><circle class="st1" cx="115" cy="246" r="2"/><circle class="st1" cx="103" cy="256" r="2"/><circle class="st1" cx="109" cy="256" r="2"/><circle class="st1" cx="115" cy="256" r="2"/><circle class="st1" cx="103" cy="266" r="2"/><circle class="st1" cx="109" cy="266" r="2"/><circle class="st1" cx="115" cy="266" r="2"/><circle class="st1" cx="103" cy="276" r="2"/><circle class="st1" cx="109" cy="276" r="2"/><circle class="st1" cx="115" cy="276" r="2"/><circle class="st1" cx="103" cy="286" r="2"/><circle class="st1" cx="109" cy="286" r="2"/><circle class="st1" cx="115" cy="286" r="2"/><circle class="st1" cx="103" cy="296" r="2"/><circle class="st1" cx="109" cy="296" r="2"/><circle class="st1" cx="115" cy="296" r="2"/><circle class="st1" cx="103" cy="306" r="2"/><circle class="st1" cx="109" cy="306" r="2"/><circle class="st1" cx="115" cy="306" r="2"/><circle class="st1" cx="103" cy="316" r="2"/><circle class="st1" cx="109" cy="316" r="2"/><circle class="st1" cx="115" cy="316" r="2"/><circle class="st1" cx="103" cy="326" r="2"/><circle class="st1" cx="109" cy="326" r="2"/><circle class="st1" cx="115" cy="326" r="2"/><circle class="st1" cx="103" cy="326" r="2"/><circle class="st1" cx="109" cy="326" r="2"/><circle class="st1" cx="115" cy="326" r="2"/><circle class="st1" cx="103" cy="336" r="2"/><circle class="st1" cx="109" cy="336" r="2"/><circle class="st1" cx="115" cy="336" r="2"/><circle class="st1" cx="397" cy="176" r="2"/><circle class="st1" cx="403" cy="176" r="2"/><circle class="st1" cx="409" cy="176" r="2"/><circle class="st1" cx="397" cy="176" r="2"/><circle class="st1" cx="403" cy="176" r="2"/><circle class="st1" cx="409" cy="176" r="2"/><circle class="st1" cx="397" cy="186" r="2"/><circle class="st1" cx="403" cy="186" r="2"/><circle class="st1" cx="409" cy="186" r="2"/><circle class="st1" cx="397" cy="196" r="2"/><circle class="st1" cx="403" cy="196" r="2"/><circle class="st1" cx="409" cy="196" r="2"/><circle class="st1" cx="397" cy="206" r="2"/><circle class="st1" cx="403" cy="206" r="2"/><circle class="st1" cx="409" cy="206" r="2"/><circle class="st1" cx="397" cy="216" r="2"/><circle class="st1" cx="403" cy="216" r="2"/><circle class="st1" cx="409" cy="216" r="2"/><circle class="st1" cx="397" cy="226" r="2"/><circle class="st1" cx="403" cy="226" r="2"/><circle class="st1" cx="409" cy="226" r="2"/><circle class="st1" cx="397" cy="236" r="2"/><circle class="st1" cx="403" cy="236" r="2"/><circle class="st1" cx="409" cy="236" r="2"/><circle class="st1" cx="397" cy="246" r="2"/><circle class="st1" cx="403" cy="246" r="2"/><circle class="st1" cx="409" cy="246" r="2"/><circle class="st1" cx="397" cy="256" r="2"/><circle class="st1" cx="403" cy="256" r="2"/><circle class="st1" cx="409" cy="256" r="2"/><circle class="st1" cx="397" cy="266" r="2"/><circle class="st1" cx="403" cy="266" r="2"/><circle class="st1" cx="409" cy="266" r="2"/><circle class="st1" cx="397" cy="276" r="2"/><circle class="st1" cx="403" cy="276" r="2"/><circle class="st1" cx="409" cy="276" r="2"/><circle class="st1" cx="397" cy="286" r="2"/><circle class="st1" cx="403" cy="286" r="2"/><circle class="st1" cx="409" cy="286" r="2"/><circle class="st1" cx="397" cy="296" r="2"/><circle class="st1" cx="403" cy="296" r="2"/><circle class="st1" cx="409" cy="296" r="2"/><circle class="st1" cx="397" cy="306" r="2"/><circle class="st1" cx="403" cy="306" r="2"/><circle class="st1" cx="409" cy="306" r="2"/><circle class="st1" cx="397" cy="316" r="2"/><circle class="st1" cx="403" cy="316" r="2"/><circle class="st1" cx="409" cy="316" r="2"/><circle class="st1" cx="397" cy="326" r="2"/><circle class="st1" cx="403" cy="326" r="2"/><circle class="st1" cx="409" cy="326" r="2"/><circle class="st1" cx="397" cy="336" r="2"/><circle class="st1" cx="403" cy="336" r="2"/><circle class="st1" cx="409" cy="336" r="2"/><circle class="st1" cx="121" cy="176" r="2"/><circle class="st1" cx="127" cy="176" r="2"/><circle class="st1" cx="133" cy="176" r="2"/><circle class="st1" cx="139" cy="176" r="2"/><circle class="st1" cx="145" cy="176" r="2"/><circle class="st1" cx="151" cy="176" r="2"/><circle class="st1" cx="157" cy="176" r="2"/><circle class="st1" cx="163" cy="176" r="2"/><circle class="st1" cx="169" cy="176" r="2"/><circle class="st1" cx="175" cy="176" r="2"/><circle class="st1" cx="181" cy="176" r="2"/><circle class="st1" cx="187" cy="176" r="2"/><circle class="st1" cx="193" cy="176" r="2"/><circle class="st1" cx="199" cy="176" r="2"/><circle class="st1" cx="205" cy="176" r="2"/><circle class="st1" cx="211" cy="176" r="2"/><circle class="st1" cx="217" cy="176" r="2"/><circle class="st1" cx="223" cy="176" r="2"/><circle class="st1" cx="229" cy="176" r="2"/><circle class="st1" cx="235" cy="176" r="2"/><circle class="st1" cx="241" cy="176" r="2"/><circle class="st1" cx="247" cy="176" r="2"/><circle class="st1" cx="253" cy="176" r="2"/><circle class="st1" cx="259" cy="176" r="2"/><circle class="st1" cx="265" cy="176" r="2"/><circle class="st1" cx="271" cy="176" r="2"/><circle class="st1" cx="277" cy="176" r="2"/><circle class="st1" cx="283" cy="176" r="2"/><circle class="st1" cx="289" cy="176" r="2"/><circle class="st1" cx="295" cy="176" r="2"/><circle class="st1" cx="301" cy="176" r="2"/><circle class="st1" cx="307" cy="176" r="2"/><circle class="st1" cx="313" cy="176" r="2"/><circle class="st1" cx="319" cy="176" r="2"/><circle class="st1" cx="325" cy="176" r="2"/><circle class="st1" cx="331" cy="176" r="2"/><circle class="st1" cx="337" cy="176" r="2"/><circle class="st1" cx="343" cy="176" r="2"/><circle class="st1" cx="349" cy="176" r="2"/><circle class="st1" cx="355" cy="176" r="2"/><circle class="st1" cx="361" cy="176" r="2"/><circle class="st1" cx="367" cy="176" r="2"/><circle class="st1" cx="373" cy="176" r="2"/><circle class="st1" cx="379" cy="176" r="2"/><circle class="st1" cx="385" cy="176" r="2"/><circle class="st1" cx="391" cy="176" r="2"/><circle class="st1" cx="121" cy="336" r="2"/><circle class="st1" cx="127" cy="336" r="2"/><circle class="st1" cx="133" cy="336" r="2"/><circle class="st1" cx="139" cy="336" r="2"/><circle class="st1" cx="145" cy="336" r="2"/><circle class="st1" cx="151" cy="336" r="2"/><circle class="st1" cx="157" cy="336" r="2"/><circle class="st1" cx="163" cy="336" r="2"/><circle class="st1" cx="169" cy="336" r="2"/><circle class="st1" cx="175" cy="336" r="2"/><circle class="st1" cx="181" cy="336" r="2"/><circle class="st1" cx="187" cy="336" r="2"/><circle class="st1" cx="193" cy="336" r="2"/><circle class="st1" cx="199" cy="336" r="2"/><circle class="st1" cx="205" cy="336" r="2"/><circle class="st1" cx="211" cy="336" r="2"/><circle class="st1" cx="217" cy="336" r="2"/><circle class="st1" cx="223" cy="336" r="2"/><circle class="st1" cx="229" cy="336" r="2"/><circle class="st1" cx="235" cy="336" r="2"/><circle class="st1" cx="241" cy="336" r="2"/><circle class="st1" cx="247" cy="336" r="2"/><circle class="st1" cx="253" cy="336" r="2"/><circle class="st1" cx="259" cy="336" r="2"/><circle class="st1" cx="265" cy="336" r="2"/><circle class="st1" cx="271" cy="336" r="2"/><circle class="st1" cx="277" cy="336" r="2"/><circle class="st1" cx="283" cy="336" r="2"/><circle class="st1" cx="289" cy="336" r="2"/><circle class="st1" cx="295" cy="336" r="2"/><circle class="st1" cx="301" cy="336" r="2"/><circle class="st1" cx="307" cy="336" r="2"/><circle class="st1" cx="313" cy="336" r="2"/><circle class="st1" cx="319" cy="336" r="2"/><circle class="st1" cx="325" cy="336" r="2"/><circle class="st1" cx="331" cy="336" r="2"/><circle class="st1" cx="337" cy="336" r="2"/><circle class="st1" cx="343" cy="336" r="2"/><circle class="st1" cx="349" cy="336" r="2"/><circle class="st1" cx="355" cy="336" r="2"/><circle class="st1" cx="361" cy="336" r="2"/><circle class="st1" cx="367" cy="336" r="2"/><circle class="st1" cx="373" cy="336" r="2"/><circle class="st1" cx="379" cy="336" r="2"/><circle class="st1" cx="385" cy="336" r="2"/><circle class="st1" cx="391" cy="336" r="2"/></svg>