<svg version="1.1" xmlns="http://www.w3.org/2000/svg" x="0" y="0" viewBox="0 0 512 512" xml:space="preserve"><style type="text/css">.st1{fill:#3aaf9d}.st2{fill:#038387}</style><circle cx="256" cy="256" r="173" fill="#3b9f90"/><circle class="st1" cx="256" cy="256" r="148"/><path class="st1" d="M266 49.8c2-14.6 11-29.5 11-33.8 0-2.9-.5-5.6-1.5-8.2-2.2-5.9-8.4-9.1-14.3-7.4-1.6.5-3.4.7-5.3.7s-3.7-.3-5.3-.7c-5.8-1.7-12 1.4-14.3 7.4-1 2.5-1.5 5.3-1.5 8.2 0 4.3 9 19.2 11 33.8 1.6 11.5 2.3 23.9 3.1 34.2.5 6.3 1.1 11.8 2 15.9h.1c-1.7 0-3 1.3-3 3v2c0 1.7 1.3 3 3 3h10c1.7 0 3-1.3 3-3v-2c0-1.7-1.3-3-3-3h-.1c.9-4.2 1.5-9.7 2-15.9.8-10.3 1.5-22.6 3.1-34.2zm0 412.4c2 14.6 11 29.5 11 33.8 0 2.9-.5 5.6-1.5 8.2-2.2 5.9-8.4 9.1-14.3 7.4-1.6-.5-3.4-.7-5.3-.7s-3.7.3-5.3.7c-5.8 1.7-12-1.4-14.3-7.4-1-2.5-1.5-5.3-1.5-8.2 0-4.3 9-19.2 11-33.8 1.6-11.5 2.3-23.9 3.1-34.2.5-6.3 1.1-11.8 2-15.9h.1c-1.7 0-3-1.3-3-3v-2c0-1.7 1.3-3 3-3h10c1.7 0 3 1.3 3 3v2c0 1.7-1.3 3-3 3h-.1c.9 4.2 1.5 9.7 2 15.9.8 10.3 1.5 22.6 3.1 34.2zM201.8 56.8c-2.6-14.5 1.3-31.5 0-35.6-.9-2.7-2.2-5.2-3.9-7.3-4-5-10.8-6-15.8-2.6-1.4.9-3 1.7-4.8 2.3-1.8.6-3.6.9-5.2.9-6.1.2-11 5.1-11.3 11.4-.1 2.7.2 5.5 1.1 8.2 1.3 4.1 14.5 15.5 20.9 28.8 5.1 10.5 9.5 22 13.6 31.6 2.4 5.8 4.7 10.9 6.8 14.5h-.1c-1.6.5-2.4 2.2-1.9 3.8l.6 1.9c.5 1.6 2.2 2.4 3.8 1.9l9.5-3.1c1.6-.5 2.4-2.2 1.9-3.8l-.6-1.9c-.5-1.6-2.2-2.4-3.8-1.9h-.1c-.4-4.2-1.6-9.7-3-15.8-2.5-9.8-5.6-21.8-7.7-33.3zM329.2 449c6.4 13.3 19.6 24.7 20.9 28.8.9 2.7 1.2 5.5 1.1 8.2-.3 6.3-5.2 11.2-11.3 11.4-1.7 0-3.4.3-5.2.9-1.8.6-3.4 1.4-4.8 2.3-5 3.4-11.9 2.4-15.8-2.6-1.7-2.1-3-4.6-3.9-7.3-1.3-4.1 2.6-21 0-35.6-2.1-11.5-5.2-23.4-7.6-33.5-1.4-6.1-2.6-11.5-3-15.8h-.1c-1.6.5-3.3-.4-3.8-1.9l-.6-1.9c-.5-1.6.4-3.3 1.9-3.8l9.5-3.1c1.6-.5 3.3.4 3.8 1.9l.6 1.9c.5 1.6-.4 3.3-1.9 3.8h-.1c2.1 3.7 4.4 8.7 6.8 14.5 4 9.8 8.4 21.3 13.5 31.8zM142.9 83.3c-7-13-8.4-30.3-11-33.8-1.7-2.3-3.7-4.3-6-5.7-5.3-3.5-12.2-2.4-15.9 2.4-1 1.3-2.3 2.6-3.8 3.7s-3.1 1.9-4.7 2.5c-5.7 2-8.9 8.2-7.2 14.3.7 2.6 1.9 5.1 3.6 7.5 2.5 3.5 18.6 10.3 28.8 20.9 8.1 8.4 15.9 18 22.6 25.8 4.1 4.8 7.8 8.9 11 11.7l-.1.1c-1.3 1-1.6 2.8-.7 4.2l1.2 1.6c1 1.3 2.8 1.6 4.2.7l8.1-5.9c1.3-1 1.6-2.8.7-4.2l-1.2-1.6c-1-1.3-2.8-1.6-4.2-.7l-.1.1c-1.7-3.9-4.5-8.7-7.8-14.1-5.3-8.8-12-19.2-17.5-29.5zm242.4 333.6c10.2 10.7 26.2 17.4 28.8 20.9 1.7 2.3 2.9 4.9 3.6 7.5 1.7 6.1-1.5 12.3-7.2 14.3-1.6.6-3.2 1.4-4.7 2.5s-2.8 2.4-3.8 3.7c-3.7 4.8-10.6 5.9-15.9 2.4-2.3-1.5-4.3-3.4-6-5.7-2.5-3.5-4-20.8-11-33.8-5.5-10.3-12.2-20.7-17.6-29.5-3.3-5.4-6-10.2-7.8-14.1l-.1.1c-1.3 1-3.2.7-4.2-.7l-1.2-1.6c-1-1.3-.7-3.2.7-4.2l8.1-5.9c1.3-1 3.2-.7 4.2.7l1.2 1.6c1 1.3.7 3.2-.7 4.2l-.1.1c3.2 2.8 6.9 7 11 11.7 6.8 7.8 14.6 17.4 22.7 25.8zM95.1 126.7c-10.7-10.2-17.4-26.2-20.9-28.8-2.3-1.7-4.9-2.9-7.5-3.6-6.1-1.7-12.3 1.5-14.3 7.2-.6 1.6-1.4 3.2-2.5 4.7s-2.4 2.8-3.7 3.8c-4.8 3.7-5.9 10.6-2.4 15.9 1.5 2.3 3.4 4.3 5.7 6 3.5 2.5 20.8 4 33.8 11 10.3 5.5 20.7 12.2 29.5 17.6 5.4 3.3 10.2 6 14.1 7.8l-.1.1c-1 1.3-.7 3.2.7 4.2l1.6 1.2c1.3 1 3.2.7 4.2-.7l5.9-8.1c1-1.3.7-3.2-.7-4.2l-1.6-1.2c-1.3-1-3.2-.7-4.2.7l-.1.1c-2.8-3.2-7-6.9-11.7-11-7.8-6.8-17.4-14.6-25.8-22.7zm333.6 242.4c13 7 30.3 8.4 33.8 11 2.3 1.7 4.3 3.7 5.7 6 3.5 5.3 2.4 12.2-2.4 15.9-1.3 1-2.6 2.3-3.7 3.8s-1.9 3.1-2.5 4.7c-2 5.7-8.2 8.9-14.3 7.2-2.6-.7-5.1-1.9-7.5-3.6-3.5-2.5-10.3-18.6-20.9-28.8-8.4-8.1-18-15.9-25.8-22.6-4.8-4.1-8.9-7.8-11.7-11l-.1.1c-1 1.3-2.8 1.6-4.2.7l-1.6-1.2c-1.3-1-1.6-2.8-.7-4.2l5.9-8.1c1-1.3 2.8-1.6 4.2-.7l1.6 1.2c1.3 1 1.6 2.8.7 4.2l-.1.1c3.9 1.7 8.7 4.5 14.1 7.8 8.8 5.3 19.2 12 29.5 17.5zM63 182.8c-13.3-6.4-24.7-19.6-28.8-20.9-2.7-.9-5.5-1.2-8.2-1.1-6.3.2-11.2 5.2-11.4 11.2 0 1.7-.3 3.4-.9 5.2-.6 1.8-1.4 3.4-2.3 4.8C8 187 9 193.9 14 197.8c2.1 1.7 4.6 3 7.3 3.9 4.1 1.3 21-2.6 35.6 0 11.5 2.1 23.4 5.2 33.5 7.6 6.1 1.4 11.5 2.6 15.8 3v.1c-.5 1.6.4 3.3 1.9 3.8l1.9.6c1.6.5 3.3-.4 3.8-1.9l3.1-9.5c.5-1.6-.4-3.3-1.9-3.8l-1.9-.6c-1.6-.5-3.3.4-3.8 1.9v.1c-3.7-2.1-8.7-4.4-14.5-6.8-9.8-3.9-21.3-8.3-31.8-13.4zm392.2 127.4c14.5 2.6 31.5-1.3 35.6 0 2.7.9 5.2 2.2 7.3 3.9 5 4 6 10.8 2.6 15.8-.9 1.4-1.7 3-2.3 4.8s-.9 3.6-.9 5.2c-.2 6.1-5.1 11-11.4 11.3-2.7.1-5.5-.2-8.2-1.1-4.1-1.3-15.5-14.5-28.8-20.9-10.5-5.1-22-9.5-31.6-13.6-5.8-2.4-10.9-4.7-14.5-6.8v.1c-.5 1.6-2.2 2.4-3.8 1.9l-1.9-.6c-1.6-.5-2.4-2.2-1.9-3.8l3.1-9.5c.5-1.6 2.2-2.4 3.8-1.9l1.9.6c1.6.5 2.4 2.2 1.9 3.8v.1c4.2.4 9.7 1.6 15.8 3 9.8 2.5 21.8 5.6 33.3 7.7zM49.8 246c-14.6-2-29.5-11-33.8-11-2.9 0-5.6.5-8.2 1.5-5.9 2.2-9.1 8.4-7.4 14.3.5 1.6.7 3.4.7 5.3s-.3 3.7-.7 5.3c-1.7 5.8 1.4 12 7.4 14.3 2.5 1 5.3 1.5 8.2 1.5 4.3 0 19.2-9 33.8-11 11.5-1.6 23.9-2.3 34.2-3.1 6.3-.5 11.8-1.1 15.9-2v.1c0 1.7 1.3 3 3 3h2c1.7 0 3-1.3 3-3v-10c0-1.7-1.3-3-3-3h-2c-1.7 0-3 1.3-3 3v.1c-4.2-.9-9.7-1.5-15.9-2-10.3-1-22.6-1.7-34.2-3.3zm412.4 0c14.6-2 29.5-11 33.8-11 2.9 0 5.6.5 8.2 1.5 5.9 2.2 9.1 8.4 7.4 14.3-.5 1.6-.7 3.4-.7 5.3s.3 3.7.7 5.3c1.7 5.8-1.4 12-7.4 14.3-2.5 1-5.3 1.5-8.2 1.5-4.3 0-19.2-9-33.8-11-11.5-1.6-23.9-2.3-34.2-3.1-6.3-.5-11.8-1.1-15.9-2v.1c0 1.7-1.3 3-3 3h-2c-1.7 0-3-1.3-3-3v-10c0-1.7 1.3-3 3-3h2c1.7 0 3 1.3 3 3v.1c4.2-.9 9.7-1.5 15.9-2 10.3-1 22.6-1.7 34.2-3.3zM56.8 310.2c-14.5 2.6-31.5-1.3-35.6 0-2.7.9-5.2 2.2-7.3 3.9-5 4-6 10.8-2.6 15.8.9 1.4 1.7 3 2.3 4.8.6 1.8.9 3.6.9 5.2.2 6.1 5.1 11 11.4 11.3 2.7.1 5.5-.2 8.2-1.1 4.1-1.3 15.5-14.5 28.8-20.9 10.5-5.1 22-9.5 31.6-13.6 5.8-2.4 10.9-4.7 14.5-6.8v.1c.5 1.6 2.2 2.4 3.8 1.9l1.9-.6c1.6-.5 2.4-2.2 1.9-3.8l-3.1-9.5c-.5-1.6-2.2-2.4-3.8-1.9l-1.9.6c-1.6.5-2.4 2.2-1.9 3.8v.1c-4.2.4-9.7 1.6-15.8 3-9.8 2.5-21.8 5.6-33.3 7.7zM449 182.8c13.3-6.4 24.7-19.6 28.8-20.9 2.7-.9 5.5-1.2 8.2-1.1 6.3.3 11.2 5.2 11.4 11.3 0 1.7.3 3.4.9 5.2.6 1.8 1.4 3.4 2.3 4.8 3.4 5 2.4 11.9-2.6 15.8-2.1 1.7-4.6 3-7.3 3.9-4.1 1.3-21-2.6-35.6 0-11.5 2.1-23.4 5.2-33.5 7.6-6.1 1.4-11.5 2.6-15.8 3v.1c.5 1.6-.4 3.3-1.9 3.8l-1.9.6c-1.6.5-3.3-.4-3.8-1.9l-3.1-9.5c-.5-1.6.4-3.3 1.9-3.8l1.9-.6c1.6-.5 3.3.4 3.8 1.9v.1c3.7-2.1 8.7-4.4 14.5-6.8 9.8-4 21.3-8.4 31.8-13.5zM83.3 369.1c-13 7-30.3 8.4-33.8 11-2.3 1.7-4.3 3.7-5.7 6-3.5 5.3-2.4 12.2 2.4 15.9 1.3 1 2.6 2.3 3.7 3.8s1.9 3.1 2.5 4.7c2 5.7 8.2 8.9 14.3 7.2 2.6-.7 5.1-1.9 7.5-3.6 3.5-2.5 10.3-18.6 20.9-28.8 8.4-8.1 18-15.9 25.8-22.6 4.8-4.1 8.9-7.8 11.7-11l.1.1c1 1.3 2.8 1.6 4.2.7l1.6-1.2c1.3-1 1.6-2.8.7-4.2l-5.9-8.1c-1-1.3-2.8-1.6-4.2-.7l-1.6 1.2c-1.3 1-1.6 2.8-.7 4.2l.1.1c-3.9 1.7-8.7 4.5-14.1 7.8-8.8 5.3-19.2 12-29.5 17.5zm333.6-242.4c10.7-10.2 17.4-26.2 20.9-28.8 2.3-1.7 4.9-2.9 7.5-3.6 6.1-1.7 12.3 1.5 14.3 7.2.6 1.6 1.4 3.2 2.5 4.7s2.4 2.8 3.7 3.8c4.8 3.7 5.9 10.6 2.4 15.9-1.5 2.3-3.4 4.3-5.7 6-3.5 2.5-20.8 4-33.8 11-10.3 5.5-20.7 12.2-29.5 17.6-5.4 3.3-10.2 6-14.1 7.8l.1.1c1 1.3.7 3.2-.7 4.2l-1.6 1.2c-1.3 1-3.2.7-4.2-.7l-5.9-8.1c-1-1.3-.7-3.2.7-4.2l1.6-1.2c1.3-1 3.2-.7 4.2.7l.1.1c2.8-3.2 7-6.9 11.7-11 7.8-6.8 17.4-14.6 25.8-22.7zM126.7 416.9c-10.2 10.7-26.2 17.4-28.8 20.9-1.7 2.3-2.9 4.9-3.6 7.5-1.7 6.1 1.5 12.3 7.2 14.3 1.6.6 3.2 1.4 4.7 2.5s2.8 2.4 3.8 3.7c3.7 4.8 10.6 5.9 15.9 2.4 2.3-1.5 4.3-3.4 6-5.7 2.5-3.5 4-20.8 11-33.8 5.5-10.3 12.2-20.7 17.6-29.5 3.3-5.4 6-10.2 7.8-14.1l.1.1c1.3 1 3.2.7 4.2-.7l1.2-1.6c1-1.3.7-3.2-.7-4.2l-8.1-5.9c-1.3-1-3.2-.7-4.2.7l-1.2 1.6c-1 1.3-.7 3.2.7 4.2l.1.1c-3.2 2.8-6.9 7-11 11.7-6.8 7.8-14.6 17.4-22.7 25.8zM369.1 83.3c7-13 8.5-30.3 11-33.8 1.7-2.3 3.7-4.3 6-5.7 5.3-3.5 12.2-2.4 15.9 2.4 1 1.3 2.3 2.6 3.8 3.7s3.1 1.9 4.7 2.5c5.7 2 8.9 8.2 7.2 14.3-.7 2.6-1.9 5.1-3.6 7.5-2.5 3.5-18.6 10.3-28.8 20.9-8.1 8.4-15.9 18-22.6 25.8-4.1 4.8-7.8 8.9-11 11.7l.1.1c1.3 1 1.6 2.8.7 4.2l-1.2 1.6c-1 1.3-2.8 1.6-4.2.7l-8.1-5.9c-1.3-1-1.6-2.8-.7-4.2l1.2-1.6c1-1.3 2.8-1.6 4.2-.7l.1.1c1.7-3.9 4.5-8.7 7.8-14.1 5.3-8.8 12-19.2 17.5-29.5zM182.8 449c-6.4 13.3-19.6 24.7-20.9 28.8-.9 2.7-1.2 5.5-1.1 8.2.3 6.3 5.2 11.2 11.3 11.4 1.7 0 3.4.3 5.2.9 1.8.6 3.4 1.4 4.8 2.3 5 3.4 11.9 2.4 15.8-2.6 1.7-2.1 3-4.6 3.9-7.3 1.3-4.1-2.6-21 0-35.6 2.1-11.5 5.2-23.4 7.6-33.5 1.4-6.1 2.6-11.5 3-15.8h.1c1.6.5 3.3-.4 3.8-1.9l.6-1.9c.5-1.6-.4-3.3-1.9-3.8l-9.5-3.1c-1.6-.5-3.3.4-3.8 1.9l-.6 1.9c-.5 1.6.4 3.3 1.9 3.8h.1c-2.1 3.7-4.4 8.7-6.8 14.5-4 9.8-8.4 21.3-13.5 31.8zM310.2 56.8c2.6-14.5-1.3-31.5 0-35.6.9-2.7 2.2-5.2 3.9-7.3 4-5 10.8-6 15.8-2.6 1.4.9 3 1.7 4.8 2.3 1.8.6 3.6.9 5.2.9 6.1.2 11 5.1 11.3 11.4.1 2.7-.2 5.5-1.1 8.2-1.3 4.1-14.5 15.5-20.9 28.8-5.1 10.5-9.5 22-13.6 31.6-2.4 5.8-4.7 10.9-6.8 14.5h.1c1.6.5 2.4 2.2 1.9 3.8l-.6 1.9c-.5 1.6-2.2 2.4-3.8 1.9l-9.5-3.1c-1.6-.5-2.4-2.2-1.9-3.8l.6-1.9c.5-1.6 2.2-2.4 3.8-1.9h.1c.4-4.2 1.6-9.7 3-15.8 2.5-9.8 5.6-21.8 7.7-33.3z"/><path class="st2" d="m222.565 73.993 8.89-1.408 4.379 27.656-8.89 1.407z"/><circle class="st2" cx="226.6" cy="70.3" r="7"/><circle class="st2" cx="231.8" cy="102.9" r="7"/><path class="st2" d="m276.257 412.792 8.89-1.408 4.379 27.656-8.89 1.407z"/><circle class="st2" cx="280.2" cy="409.1" r="7"/><circle class="st2" cx="285.4" cy="441.7" r="7"/><path class="st2" d="m168.014 93.156 8.019-4.086 12.712 24.948-8.02 4.086z"/><circle class="st2" cx="170.6" cy="88.5" r="7"/><circle class="st2" cx="185.6" cy="117.9" r="7"/><path class="st2" d="m323.756 398.852 8.019-4.086 12.712 24.948-8.019 4.086z"/><circle class="st2" cx="326.4" cy="394.1" r="7"/><circle class="st2" cx="341.4" cy="423.5" r="7"/><path class="st2" d="m122.023 128.367 6.364-6.364 19.799 19.8-6.364 6.363z"/><circle class="st2" cx="123.1" cy="123.1" r="7"/><circle class="st2" cx="146.4" cy="146.4" r="7"/><path class="st2" d="m364.504 370.905 6.364-6.364 19.799 19.799-6.364 6.364z"/><circle class="st2" cx="365.6" cy="365.6" r="7"/><circle class="st2" cx="388.9" cy="388.9" r="7"/><path class="st2" d="m89.132 176.072 4.086-8.02 24.948 12.713-4.086 8.019z"/><circle class="st2" cx="88.5" cy="170.6" r="7"/><circle class="st2" cx="117.9" cy="185.6" r="7"/><path class="st2" d="m394.771 331.71 4.086-8.019 24.948 12.712-4.086 8.02z"/><circle class="st2" cx="394.1" cy="326.4" r="7"/><circle class="st2" cx="423.5" cy="341.4" r="7"/><path class="st2" d="m72.523 231.493 1.408-8.89 27.656 4.38-1.408 8.89z"/><circle class="st2" cx="70.3" cy="226.6" r="7"/><circle class="st2" cx="102.9" cy="231.8" r="7"/><path class="st2" d="m411.335 285.129 1.408-8.89 27.655 4.38-1.407 8.889z"/><circle class="st2" cx="409.1" cy="280.2" r="7"/><circle class="st2" cx="441.7" cy="285.4" r="7"/><path class="st2" d="m74.038 289.39-1.408-8.889 27.656-4.379 1.407 8.89z"/><circle class="st2" cx="70.3" cy="285.4" r="7"/><circle class="st2" cx="102.9" cy="280.2" r="7"/><path class="st2" d="m412.78 235.712-1.408-8.89 27.655-4.379 1.408 8.89z"/><circle class="st2" cx="409.1" cy="231.8" r="7"/><circle class="st2" cx="441.7" cy="226.6" r="7"/><path class="st2" d="m93.192 344.044-4.086-8.02 24.948-12.711 4.086 8.019z"/><circle class="st2" cx="88.5" cy="341.4" r="7"/><circle class="st2" cx="117.9" cy="326.4" r="7"/><path class="st2" d="m398.784 188.245-4.086-8.02 24.948-12.711 4.086 8.019z"/><circle class="st2" cx="394.1" cy="185.6" r="7"/><circle class="st2" cx="423.5" cy="170.6" r="7"/><path class="st2" d="m128.344 390-6.364-6.364 19.799-19.799 6.364 6.364z"/><circle class="st2" cx="123.1" cy="388.9" r="7"/><circle class="st2" cx="146.4" cy="365.6" r="7"/><path class="st2" d="m370.938 147.463-6.364-6.364 19.799-19.799 6.364 6.364z"/><circle class="st2" cx="365.6" cy="146.4" r="7"/><circle class="st2" cx="388.9" cy="123.1" r="7"/><path class="st2" d="m176.014 422.832-8.019-4.086 12.712-24.948 8.02 4.086z"/><circle class="st2" cx="170.6" cy="423.5" r="7"/><circle class="st2" cx="185.6" cy="394.1" r="7"/><path class="st2" d="m331.71 117.297-8.02-4.086 12.713-24.948 8.019 4.086z"/><circle class="st2" cx="326.4" cy="117.9" r="7"/><circle class="st2" cx="341.4" cy="88.5" r="7"/><path class="st2" d="m231.537 439.432-8.89-1.408 4.38-27.655 8.89 1.407z"/><circle class="st2" cx="226.6" cy="441.7" r="7"/><circle class="st2" cx="231.8" cy="409.1" r="7"/><path class="st2" d="m285.16 100.677-8.89-1.408 4.38-27.656 8.889 1.408z"/><circle class="st2" cx="280.2" cy="102.9" r="7"/><circle class="st2" cx="285.4" cy="70.3" r="7"/><path d="M377 229.4c.7 3.1 1.2 6.3 1.7 9.5l-59.4 18.3c.1-3.3-.1-6.5-.5-9.8l58.2-18zm-58.2 34c-.4 3.3-1.1 6.5-1.9 9.6l62.1-2.9c.4-3.2.6-6.4.8-9.6l-61 2.9zM349 174l-42.2 43.9c1.9 2.6 3.7 5.4 5.2 8.3l43.1-44.8c-2-2.5-4-5-6.1-7.4zm-34.4 57.9c1.3 3.1 2.3 6.2 3 9.4l52.9-32.6c-1.2-2.9-2.5-5.9-4-8.7l-51.9 31.9zm59.9 59.6L314.9 279c-1.2 3.1-2.6 6-4.3 8.9l60.8 12.8c1.2-3.1 2.2-6.1 3.1-9.2zm-67.3 1.5c-1.9 2.6-4 5.2-6.4 7.5l55.7 27.6c1.9-2.6 3.6-5.3 5.3-8L307.2 293zm-83.5 17.6c-2.8-1.6-5.5-3.5-8.1-5.6l-22.1 58c2.8 1.6 5.6 3.1 8.5 4.5l21.7-56.9zm72.6-5.9c-2.5 2.1-5.2 4-8 5.7l47 40.7c2.5-2.1 4.9-4.2 7.1-6.4l-46.1-40zM168.6 344c2.3 2.3 4.7 4.4 7.1 6.5l35.3-49.7c-2.3-2.3-4.4-4.8-6.4-7.5l-36 50.7zm127.1-137.6c2.5 2 4.9 4.3 7.2 6.7l30.5-54.2c-2.5-2-5.1-3.9-7.7-5.7l-30 53.2zm21.7 157-34.6-50.1c-3 1.4-6.1 2.6-9.2 3.5l35.3 51.1c1.5-.7 3-1.4 4.4-2.2 1.3-.8 2.7-1.5 4.1-2.3zM282 198c3 1.4 5.9 2.9 8.6 4.7l15.9-60c-2.9-1.3-5.9-2.5-8.9-3.6L282 198zm-148.9 40 60.8 3.6c.7-3.2 1.7-6.3 2.9-9.4l-62-3.6c-.7 3.1-1.3 6.3-1.7 9.4zm68 50.1c-.6-.9-1.1-1.9-1.6-2.9-1-1.9-1.9-3.9-2.7-5.9l-47.5 40c1.7 2.8 3.4 5.5 5.2 8.1l46.6-39.3zm-1.7-61.5c1.5-2.9 3.2-5.7 5.2-8.4l-59.1-19.1c-1.5 2.9-2.8 5.8-4.1 8.7l58 18.8zm-4.6 46.8c-.9-3.2-1.6-6.4-2-9.6l-56 26.9c.9 3.1 1.9 6.1 3.1 9.1l54.9-26.4zm-2.5-15.8c-.1-3.3.1-6.6.5-9.8l-61 12c.1 3.2.3 6.4.7 9.6l59.8-11.8zm58.4-65.1c3.3-.3 6.6-.3 9.8 0l-15.2-60.3c-3.2.3-6.4.7-9.5 1.2l14.9 59.1zm-42.2 20.9c2.2-2.4 4.5-4.7 7.1-6.8l-52.5-33.3c-2.1 2.4-4.2 4.9-6.1 7.4l51.5 32.7zm58.6-81.1-.4 61c3.2.6 6.4 1.4 9.5 2.4l.4-62.1c-3.1-.6-6.3-1-9.5-1.3zM235 195.8c3.1-1.1 6.3-1.9 9.5-2.5l-29.8-54.5c-3 1.1-6 2.2-8.9 3.5l29.2 53.5zm-56-37.4 41.7 44.5c1.8-1.2 3.7-2.3 5.7-3.4 1-.5 1.9-1 2.9-1.4l-42.5-45.3c-2.7 1.8-5.3 3.6-7.8 5.6z" fill="#afafaf"/><path d="M376.9 229.2c.7 3.1 1.3 6.3 1.7 9.5l-60.9 3.3c-.7-3.2-1.7-6.3-2.9-9.4l62.1-3.4zm-2.3 62L318.7 264c-.4 3.3-1.1 6.5-2 9.6l54.8 26.6c1.2-2.9 2.2-5.9 3.1-9zM318.8 248c.4 3.3.5 6.6.4 9.8l59.7 12.1c.4-3.2.6-6.4.7-9.6L318.8 248zm30-74.2-52.6 33c2.5 2.1 4.9 4.4 7.1 6.8l51.6-32.4c-1.9-2.5-4-5-6.1-7.4zm-41.6 44.7c1.8 2.5 3.4 5.1 4.9 7.9.1.2.2.3.2.5l58.1-18.4c-1.2-2.9-2.6-5.9-4-8.7l-59.2 18.7zm-24.6-20.2c3 1.4 5.8 3 8.6 4.8l41.9-44.3c-2.5-2-5.1-3.9-7.7-5.7l-42.8 45.2zM168.8 344.2c2.3 2.3 4.7 4.4 7.1 6.5l47.2-40.4c-2.8-1.7-5.5-3.6-8-5.7l-46.3 39.6zm145.9-64.6c-1.2 3-2.7 6-4.4 8.8l46.4 39.5c1.9-2.6 3.6-5.3 5.3-8l-47.3-40.3zm-76.9 37.1c-3.1-.9-6.2-2.1-9.2-3.5l-34.9 50c2.8 1.6 5.6 3.1 8.5 4.5l35.6-51zm71.3 51c1.4-.7 2.8-1.3 4.2-2.1 1.5-.8 2.9-1.6 4.3-2.4l-21.8-58.1c-2.5 2-5.2 3.9-8.1 5.6l21.4 57zm-2.3-74.1c-1.9 2.6-4.1 5.1-6.4 7.4l35 49.9c2.5-2.1 4.9-4.2 7.1-6.5l-35.7-50.8zm-71.2-98c3.1-1.1 6.3-1.8 9.5-2.4l-.1-61c-3.2.3-6.4.7-9.5 1.2l.1 62.2zm-41 77.2c-.9-3.2-1.5-6.4-1.9-9.7l-60.9-3.1c.1 3.2.3 6.4.7 9.6l62.1 3.2zm-.5-31.8c.8-3.2 1.8-6.3 3-9.4l-51.7-32.2c-1.5 2.9-2.8 5.8-4 8.7l52.7 32.9zm-61.1-2.7 59.3 18.6c-.1-3.3.1-6.6.6-9.8l-58.1-18.2c-.7 3.1-1.3 6.2-1.8 9.4zm134.4-44.9c3.2.6 6.4 1.4 9.5 2.5l29.5-53.3c-2.9-1.3-5.9-2.5-8.9-3.6l-30.1 54.4zm-66.6 94.2c-.4-.8-.9-1.5-1.3-2.3-1.1-2.1-2.1-4.3-3-6.5L136.8 291c.9 3.1 1.9 6.1 3.1 9.1l60.9-12.5zm9.7 12.7c-2.3-2.3-4.4-4.8-6.3-7.5l-54.7 26.8c1.7 2.8 3.4 5.5 5.3 8.1l55.7-27.4zM199.7 226c1.5-2.9 3.3-5.7 5.3-8.3l-42-44.1c-2.1 2.4-4.2 4.9-6.1 7.4l42.8 45zm67.1-93.7-15.5 60.2c3.3-.2 6.6-.2 9.8.1l15.2-59c-3.1-.6-6.3-1-9.5-1.3zm-45.6 70.2c1.7-1.1 3.4-2.1 5.1-3 1.2-.6 2.3-1.2 3.5-1.7l-15.3-59c-3 1.1-6 2.3-8.9 3.6l15.6 60.1zM209 212.9c2.2-2.4 4.6-4.6 7.2-6.7l-29.6-53.3c-2.7 1.8-5.3 3.7-7.8 5.7l30.2 54.3z" fill="#ddd"/></svg>