<svg version="1.1" xmlns="http://www.w3.org/2000/svg" x="0" y="0" viewBox="0 0 512 512" xml:space="preserve"><style type="text/css">.st0{fill:#3aaf9d}.st1{fill:#038387}.st2{fill:#ddd}</style><path class="st0" d="M338.1 90l-2-3.5c.6-.3 14.3-8.1 21.4-10.2 7.1-2 23.7-3 24.4-3.1l.2 4c-.2 0-16.9 1-23.6 2.9-6.5 2-20.3 9.8-20.4 9.9z"/><path class="st0" d="M348.5 92.9l-1.8-3.6c.6-.3 14.8-7.3 22.1-9 7.3-1.7 24.7-1.3 25.4-1.3l-.1 4c-.2 0-17.6-.4-24.4 1.2-6.9 1.6-21.1 8.7-21.2 8.7z"/><path class="st0" d="M358.9 97.4l-1.6-3.7c.6-.3 15.3-6.5 22.7-7.8 7.5-1.3 25.6.4 26.4.5l-.4 4c-.2 0-18.3-1.8-25.3-.6-6.9 1.3-21.7 7.5-21.8 7.6z"/><path class="st0" d="M369.2 103l-1.4-3.8c.6-.2 15.8-5.7 23.4-6.6 7.7-1 26.6 2.2 27.4 2.3l-.7 3.9c-.2 0-19.1-3.2-26.2-2.3-7.1 1-22.3 6.4-22.5 6.5zm10.2 6.6l-1.1-3.8c.7-.2 16.3-4.8 24-5.5 7.8-.6 27.5 3.9 28.3 4.1l-.9 3.9c-.2 0-19.9-4.6-27.1-4-7.4.5-23.1 5.2-23.2 5.3z"/><path class="st0" d="M441 117.7c-.2-.1-20.6-6-28-5.8-7.5.3-23.7 4.1-23.9 4.2l-.9-3.9c.7-.2 16.8-4 24.7-4.3 8-.3 28.4 5.7 29.2 5.9l-1.1 3.9z"/><path class="st0" d="M452 127.3c-.2-.1-21.4-7.4-28.9-7.5-7.7-.1-24.4 3-24.5 3l-.7-3.9c.7-.1 17.3-3.2 25.3-3.1 8.2.1 29.3 7.4 30.2 7.7l-1.4 3.8z"/><path class="st0" d="M462.4 137.6c-.2-.1-22.2-8.8-29.8-9.2-7.8-.4-25 1.9-25.2 1.9l-.5-4c.7-.1 17.8-2.4 25.9-1.9 8.3.4 30.2 9.2 31.1 9.5l-1.5 3.7z"/><path class="st0" d="M472.1 148.5c-.2-.1-22.9-10.3-30.8-11-8-.7-25.7.8-25.9.8l-.3-4c.7-.1 18.3-1.5 26.6-.8 8.5.8 31.1 10.9 32 11.3l-1.6 3.7z"/><path class="st0" d="M481 160.1c-.2-.1-23.7-11.7-31.7-12.7-8.1-1.1-26.4-.4-26.5-.4l-.2-4c.8 0 18.8-.7 27.2.4 8.6 1.1 31.9 12.6 32.9 13.1l-1.7 3.6z"/><path class="st0" d="M489 172.5c-.2-.1-24.5-13.1-32.6-14.5-8.3-1.4-27-1.5-27.2-1.5v-4c.8 0 19.3.1 27.9 1.6 8.8 1.5 32.8 14.4 33.8 14.9l-1.9 3.5z"/><path class="st0" d="M496 185.3c-.3-.1-25.3-14.5-33.6-16.2-8.4-1.8-27.7-2.6-27.9-2.7l.2-4c.8 0 19.8.9 28.5 2.7 8.9 1.9 33.7 16.1 34.7 16.7l-1.9 3.5z"/><path class="st0" d="M501.7 198.6c-.3-.2-26.1-15.9-34.5-18-8.6-2.1-28.3-3.8-28.5-3.8l.3-4c.8.1 20.3 1.7 29.2 3.9 9 2.2 34.6 17.8 35.6 18.5l-2.1 3.4z"/><path class="st0" d="M506.2 212.1c-.3-.2-26.8-17.4-35.4-19.8-8.8-2.4-29-4.9-29.2-4.9l.5-4c.8.1 20.8 2.5 29.8 5.1 9.2 2.6 35.4 19.5 36.6 20.2l-2.3 3.4zm3 13.7c-.3-.2-27.6-18.8-36.4-21.5-8.9-2.8-29.7-6.1-29.9-6.1l.6-4c.9.1 21.2 3.4 30.4 6.2 9.3 2.9 36.3 21.2 37.5 22l-2.2 3.4zm1.5 13.9c-.3-.2-28.4-20.2-37.3-23.3-9.1-3.1-30.3-7.2-30.5-7.2l.8-3.9c.9.2 21.7 4.2 31.1 7.4 9.5 3.2 37.2 23 38.4 23.8l-2.5 3.2zm.1 14.6c-.3-.2-29.2-21.6-38.3-25-9.2-3.5-31-8.3-31.2-8.4l.9-3.9c.9.2 22.2 5 31.7 8.5 9.6 3.6 38.1 24.7 39.3 25.6l-2.4 3.2zm-1 14.2c-.3-.2-30-23.1-39.2-26.8-9.4-3.8-31.6-9.5-31.9-9.5l1-3.9c.9.2 22.7 5.8 32.4 9.7 9.8 3.9 38.9 26.4 40.2 27.3l-2.5 3.2zm-2 14.7c-.3-.2-30.7-24.5-40.2-28.6-9.5-4.1-32.3-10.6-32.5-10.7l1.1-3.8c.9.3 23.2 6.6 33 10.9 9.9 4.3 39.8 28.1 41.1 29.1l-2.5 3.1zm-1.6 15.5c-.3-.3-31.5-25.9-41.1-30.3-9.7-4.5-32.9-11.8-33.2-11.8l1.2-3.8c1 .3 23.7 7.4 33.7 12 10 4.6 40.7 29.8 42 30.9l-2.6 3zm-1.2 15.1c-.3-.3-32.3-27.4-42-32.1-9.8-4.8-33.6-12.9-33.8-13l1.3-3.8c1 .3 24.2 8.3 34.3 13.2 10.2 5 41.5 31.5 42.9 32.7l-2.7 3zm-1.3 14.4c-.3-.3-33.1-28.8-43-33.9-10-5.2-34.3-14-34.5-14.1l1.4-3.8c1 .4 24.7 9.1 35 14.3 10.3 5.3 42.4 33.2 43.8 34.4l-2.7 3.1zm-1.9 13.3c-.3-.3-33.9-30.2-43.9-35.7-10.2-5.5-34.9-15.2-35.2-15.3l1.5-3.7c1 .4 25.2 9.9 35.6 15.5 10.5 5.7 43.3 34.9 44.7 36.2l-2.7 3zm-3 12.1c-.3-.3-34.6-31.6-44.9-37.4-10.3-5.8-35.6-16.3-35.8-16.4l1.5-3.7c1 .4 25.7 10.7 36.3 16.6 10.6 6 44.2 36.7 45.6 38l-2.7 2.9zm-7.2 15.5c-.4-.3-35.4-33.1-45.8-39.2-10.5-6.2-36.2-17.5-36.5-17.6l1.6-3.7c1.1.5 26.2 11.5 36.9 17.8 10.8 6.3 45 38.4 46.5 39.7l-2.7 3zm-6.1 11c-.4-.3-36.2-34.5-46.7-41-10.6-6.5-36.9-18.6-37.1-18.7l1.7-3.6c1.1.5 26.7 12.3 37.6 19 10.9 6.7 45.9 40.1 47.4 41.5l-2.9 2.8z"/><path class="st0" d="M482 391.1c-.4-.4-37-35.9-47.7-42.7-10.8-6.9-37.5-19.8-37.8-19.9l1.7-3.6c1.1.5 27.2 13.1 38.2 20.1 11 7 46.8 41.8 48.3 43.3l-2.7 2.8zM164.358 129.173l2.157-3.369 47.753 30.573-2.157 3.369zm24.316-31.658l2.818-2.839 40.245 39.94-2.817 2.839zm15.065-13.755l3.135-2.486 35.222 44.436-3.135 2.485zm16.483-11.926l3.408-2.094 29.683 48.309-3.408 2.094zm17.91-9.829l3.634-1.671 23.69 51.517-3.635 1.671zm18.908-7.54l3.809-1.222 17.322 53.99-3.81 1.221zm19.642-5.265l3.928-.755 10.705 55.68-3.928.755zm20.223-2.892l3.99-.282 3.988 56.559-3.99.28zm17.566 56.144l2.685-56.638 3.996.19-2.685 56.637zm13.539 1.206l9.412-55.912 3.944.664-9.412 55.912zm-152.621 9.235l2.46-3.153 44.703 34.881-2.461 3.154z"/><path class="st0" d="M442 321.8c-.5-28 1.3-45.8 7.1-72.6 2.5-10.6 3.9-21.7 3.9-33.1 0-78.4-63.6-142-142-142-50.8 0-95.4 26.7-120.5 66.9-42.3 66.3-50.9 70.6-110.1 90C33.8 245.2 0 288.4 0 339.6c0 62.7 50.8 113.5 113.5 113.5 8 0 15.8-.8 23.4-2.4 51.2-9.8 56.3-10.9 118.4 8.2 14.1 4.7 29.1 7.2 44.7 7.2 78.4 0 142-63.6 142-142v-2.3z"/><circle class="st1" cx="364.5" cy="414.6" r="23"/><circle class="st1" cx="188" cy="195.1" r="16"/><circle class="st1" cx="360" cy="233.1" r="23"/><circle class="st1" cx="371" cy="292.6" r="16"/><circle class="st2" cx="48.5" cy="324.1" r="20"/><circle class="st2" cx="110.5" cy="287.1" r="22.5"/><circle class="st2" cx="121" cy="404.6" r="33.5"/><circle class="st2" cx="217" cy="353.6" r="18"/><circle class="st2" cx="279" cy="323.1" r="18"/><circle class="st2" cx="328" cy="362.6" r="14"/><circle class="st2" cx="258" cy="365.6" r="14"/><circle class="st2" cx="166" cy="324.1" r="22.5"/><circle class="st2" cx="195" cy="402.2" r="22.5"/><circle class="st2" cx="287.5" cy="419.6" r="27.5"/><circle class="st2" cx="295" cy="371.6" r="14"/><circle class="st1" cx="60.5" cy="375.6" r="16.5"/><ellipse class="st1" cx="279.5" cy="191.6" rx="44.5" ry="45"/><path class="st2" d="M288.1 237.3c-2.8.5-5.6.8-8.5.8-12.5 0-24.3-4.9-33.1-13.8-8.7-8.8-13.4-20.4-13.4-32.7 0-12.3 4.8-24 13.4-32.7 8.8-8.9 20.5-13.8 33.1-13.8 12.5 0 24.3 4.9 33.1 13.8 8.7 8.8 13.4 20.4 13.4 32.7h-2 2c0 12.3-4.8 24-13.4 32.7-6.9 6.8-15.4 11.3-24.6 13zm-16.2-88.5c-8.4 1.5-16.1 5.6-22.3 11.9-8.1 8.2-12.6 19.2-12.6 30.9s4.5 22.7 12.6 30.9c8 8.1 18.6 12.6 29.9 12.6 11.2 0 21.8-4.5 29.9-12.6 8.1-8.2 12.6-19.2 12.6-30.9s-4.5-22.7-12.6-30.9c-8-8.1-18.6-12.6-29.9-12.6-2.6 0-5.1.2-7.6.7z"/><circle class="st2" cx="409.9" cy="263.1" r="23"/><circle class="st1" cx="361.5" cy="173.1" r="23"/><circle class="st2" cx="183" cy="254" r="18"/></svg>