<svg version="1.1" xmlns="http://www.w3.org/2000/svg" x="0" y="0" viewBox="0 0 512 512" xml:space="preserve"><style type="text/css">.st0{fill:#3aaf9d}.st1{fill:#038387}.st2{fill:#ddd}</style><path class="st0" d="M335.3 166.4C326.6 76.9 260.6 9 240.6 12s-72.1 80.2-63.4 169.6c3.3 34.3 11.6 65.6 23 90.9 9.6 21.3 13.2 44.8 10.8 68l-5 49.5c-5.9 57.5 14.2 106.7 44.7 109.8 30.6 3.1 60.1-41 66-98.6l7.8-103.2c1.7-22.6 4.2-45.2 7.3-67.7 2.6-19.2 5.3-45.4 3.5-63.9z"/><path class="st0" d="M323.857 173.699l23.793-.593.1 3.999-23.793.593zm.066 12.521l.087-4 23.795.517-.087 4zm-.449 8.68l.221-3.994 23.765 1.319-.222 3.994zm-.614 8.652l.326-3.987 23.722 1.937-.326 3.987zm-.902 8.778l.41-3.978 23.673 2.437-.41 3.978zm-1.016 8.79l.481-3.971 23.626 2.86-.48 3.971zm-1.176 8.889l.544-3.963 23.578 3.232-.543 3.963zm-1.275 8.921l.522-3.965 23.597 3.1-.52 3.967zm-1.084 9.083l.49-3.97 23.621 2.91-.49 3.97zm-1.135 9.17l.457-3.973 23.643 2.72-.457 3.974zm-.912 8.983l.425-3.978 23.666 2.525-.424 3.978zm-.958 9.18l.392-3.981 23.685 2.328-.39 3.981zm-.816 9.1l.358-3.984 23.704 2.128-.357 3.984zm-.778 9.171l.323-3.987 23.721 1.924-.323 3.987zm-.677 9.177l.302-3.989 23.73 1.796-.301 3.989zm-.752 8.934l.301-3.988 23.731 1.795-.302 3.989zm-.569 9.04l.302-3.988 23.73 1.796-.301 3.988zm-.76 9.026l.3-3.989 23.732 1.796-.302 3.989zm-.763 9.026l.302-3.989 23.731 1.796-.302 3.988zm-.577 9.14l.303-3.989 23.73 1.796-.301 3.988zm-.758 9.025l.302-3.988 23.73 1.795-.301 3.989zm-.655 8.941l.302-3.989 23.73 1.796-.301 3.989zm-.761 9.026l.302-3.988 23.731 1.796-.302 3.988zm-.567 9.041l.301-3.989 23.731 1.796-.301 3.989zm-.761 9.025l.302-3.988 23.731 1.796-.302 3.988zm-.661 9.033l.302-3.988 23.73 1.796-.3 3.988zm-1.188 8.134l.577-3.958 23.55 3.437-.577 3.958zm-1.332 8.347l.762-3.927 23.364 4.534-.762 3.927zm-1.956 8.251l.952-3.885 23.117 5.662-.952 3.885zm-2.377 8.099l1.15-3.832 22.797 6.836-1.149 3.831zm-2.666 7.918l1.356-3.764 22.391 8.07-1.356 3.764zm-3.206 7.823l1.578-3.675 21.87 9.389-1.578 3.676zm-3.529 7.407l1.818-3.563 21.201 10.817-1.818 3.563zm-4.217 7.064l2.082-3.415 20.32 12.388-2.082 3.415zm-4.564 6.441l2.378-3.216 19.138 14.149-2.378 3.216zm-5.093 5.967l2.713-2.938 17.486 16.146-2.714 2.938zm-5.639 4.876l3.092-2.538 15.097 18.4-3.093 2.537zm-5.8 3.576l3.497-1.941 11.548 20.81-3.498 1.941zm-5.977 2.03l3.854-1.068 6.357 22.936-3.854 1.068zm-5.988 23.937l.384-23.797 4 .064-.384 23.798zm-12.279-2.63l7.38-22.626 3.803 1.24-7.38 22.627zm-10.744-5.896l13.1-19.87 3.339 2.201-13.1 19.87zm-8.672-7.676l16.977-16.682 2.803 2.853-16.976 16.682zm-6.813-8.59l19.418-13.76 2.312 3.264-19.418 13.76zm-5.233-9.055l20.975-11.248 1.89 3.525-20.974 11.248zm-4.247-9.384l21.984-9.115 1.532 3.694-21.984 9.116zm-3.27-9.457l22.664-7.264 1.221 3.809-22.664 7.264zm-2.481-9.537l23.124-5.636.948 3.886-23.124 5.636zm-1.932-9.659l23.434-4.167.7 3.938-23.434 4.168zm-1.29-9.699l23.634-2.818.473 3.972-23.633 2.818zm-.867-9.671l23.748-1.562.262 3.99-23.747 1.564zm-.212-9.567l23.797-.378.064 4-23.798.377zm.037-5.67l.128-3.998 23.788.759-.128 3.998zm.453-9.654l.312-3.988 23.729 1.853-.312 3.988zm.818-9.159l.405-3.98 23.677 2.414-.406 3.979zm.837-9.073l.406-3.98 23.676 2.414-.405 3.98zm.92-9.055l.406-3.98 23.676 2.414-.405 3.98zm.917-8.965l.406-3.98 23.676 2.414-.405 3.98zm.927-9.064l.406-3.978 23.676 2.413-.406 3.979zm.914-8.964l.405-3.98 23.677 2.414-.406 3.979zm.745-8.156l.145-3.996 23.784.865-.146 3.997zm.094-12.392l23.788-.721.121 3.998-23.788.72zm-.682-8.193l23.685-2.319.39 3.98-23.686 2.32zm-1.227-8.175l23.474-3.922.66 3.945-23.475 3.923zm-1.768-8.068l23.15-5.522.929 3.89-23.15 5.522zm-2.31-7.859l22.713-7.114 1.195 3.817-22.712 7.114zm-2.87-7.683l22.158-8.684 1.46 3.724-22.158 8.684zm-3.505-7.962l21.815-9.513 1.6 3.666-21.816 9.513zm-3.483-8.741l22.172-8.651 1.454 3.726-22.172 8.652zm-3.287-8.926l22.468-7.852 1.32 3.776-22.468 7.852zm-2.862-9.008l22.724-7.076 1.19 3.82-22.725 7.075zm-2.649-9.087l22.939-6.345 1.066 3.855-22.938 6.345zm-2.223-9.164l23.124-5.636.948 3.886-23.124 5.636zm-2.135-9.169l23.279-4.95.832 3.912-23.28 4.95zm-1.701-9.238l23.412-4.281.72 3.935-23.412 4.281zm-1.498-9.232l23.521-3.632.61 3.953-23.52 3.632zm-1.293-9.332l23.612-2.987.502 3.969-23.612 2.986zm-.984-9.325l23.684-2.353.395 3.98-23.683 2.354zm-.651-9.502l23.761-1.354.228 3.993-23.762 1.354zm-.236-9.622l23.797-.326.055 4-23.798.325zm.053-5.598l.115-3.998 23.79.686-.115 3.998zm.314-9.497l.282-3.99 23.74 1.675-.28 3.99zm.795-9.441l.444-3.975 23.652 2.642-.444 3.975zm1.163-9.535l.602-3.954 23.529 3.584-.603 3.954zm1.657-9.444l.757-3.928 23.37 4.508-.758 3.927zm1.845-9.242l.91-3.895 23.178 5.407-.909 3.896zm2.345-9.242l1.057-3.858 22.953 6.29-1.057 3.858zm2.523-9.097l1.203-3.815 22.698 7.157-1.203 3.815zm2.97-9.084l1.347-3.767 22.41 8.016-1.347 3.767zm3.232-8.941l1.491-3.711 22.084 8.872-1.491 3.712zm3.773-8.814l1.636-3.65 21.718 9.734-1.636 3.65zm3.887-8.611l1.784-3.58 21.3 10.615-1.783 3.58zm4.37-8.476l1.939-3.498 20.818 11.533-1.939 3.499zm4.856-8.364l2.104-3.402 20.244 12.516-2.104 3.403zm5.247-8.236l2.287-3.283 19.526 13.61-2.288 3.28zm5.748-8.052l2.504-3.12 18.564 14.894-2.504 3.12zm6.624-7.758l2.783-2.873 17.098 16.557-2.783 2.874zm7.912-7.462l3.205-2.395 14.247 19.066-3.205 2.395z"/><path class="st0" d="M236.246.731l3.939-.696 4.141 23.436-3.939.696z"/><path class="st0" d="M242.527 23.83l9.43-21.853 3.672 1.584-9.43 21.854zm6.179 3.136l13.316-19.725 3.316 2.238-13.317 19.725zm6.322 4.469l15.27-18.257 3.068 2.566-15.27 18.257zm6.138 5.451l16.549-17.105 2.874 2.782-16.548 17.105zm6.042 5.9l17.5-16.13 2.71 2.942-17.5 16.13zm5.552 6.324l18.267-15.255 2.564 3.07-18.267 15.256zm5.463 6.619l18.923-14.432 2.426 3.18-18.923 14.432zm5.097 6.862l19.501-13.644 2.294 3.277-19.502 13.645zm4.895 7.055l20.016-12.876 2.164 3.364-20.016 12.876zm4.505 7.281l20.49-12.107 2.034 3.444-20.49 12.107zm4.375 7.477l20.93-11.332 1.904 3.518L299 87.921zm3.932 7.566l21.339-10.538 1.771 3.587-21.339 10.538zm3.8 7.766l21.722-9.727 1.635 3.651-21.723 9.727zm3.377 7.964l22.072-8.902 1.496 3.71-22.072 8.9zm3.209 7.935l22.396-8.051 1.353 3.764-22.396 8.051zm2.848 8.145l22.696-7.168 1.205 3.814-22.696 7.169zm2.437 8.22l22.965-6.253 1.05 3.86-22.964 6.252zm2.154 8.307l23.2-5.31.893 3.9-23.2 5.309zm1.788 8.398l23.402-4.334.728 3.933-23.402 4.334zm1.492 8.375l23.567-3.323.559 3.96-23.567 3.323zm1.143 8.64l23.729-1.836.308 3.988-23.728 1.836z"/><circle class="st1" cx="206.4" cy="164.1" r="9"/><path class="st2" d="M206.4 155.1c5 0 9 4 9 9s-4 9-9 9-9-4-9-9 4-9 9-9m0-2c-6.1 0-11 4.9-11 11s4.9 11 11 11 11-4.9 11-11-4.9-11-11-11z"/><circle class="st1" cx="240.3" cy="174" r="9"/><path class="st2" d="M240.3 165c5 0 9 4 9 9s-4 9-9 9-9-4-9-9 4.1-9 9-9m0-2c-6.1 0-11 4.9-11 11s4.9 11 11 11 11-4.9 11-11-4.9-11-11-11z"/><circle class="st1" cx="302" cy="227.8" r="9"/><path class="st2" d="M302 218.8c5 0 9 4 9 9s-4 9-9 9-9-4-9-9 4-9 9-9m0-2c-6.1 0-11 4.9-11 11s4.9 11 11 11 11-4.9 11-11-4.9-11-11-11z"/><circle class="st1" cx="298.4" cy="331.1" r="9"/><path class="st2" d="M298.4 322.1c5 0 9 4 9 9s-4 9-9 9-9-4-9-9c0-4.9 4-9 9-9m0-2c-6.1 0-11 4.9-11 11s4.9 11 11 11 11-4.9 11-11-4.9-11-11-11z"/><circle class="st1" cx="237.7" cy="207.2" r="9"/><path class="st2" d="M237.7 198.1c5 0 9 4 9 9s-4 9-9 9-9-4-9-9 4-9 9-9m0-2c-6.1 0-11 4.9-11 11s4.9 11 11 11 11-4.9 11-11-4.9-11-11-11z"/><circle class="st2" cx="276.3" cy="138.3" r="7.7"/><ellipse class="st1" cx="241.3" cy="275.5" rx="9" ry="11.4"/><path class="st1" d="M298.4 272c0 23.5-11 42.6-24.6 42.6-7.1 0-13.4-5.1-17.9-13.4-4.2-7.6 3.3-17.9 3.3-29.2 0-11.5-7.4-21.9-3.1-29.6 4.5-8.1 10.8-13.1 17.7-13.1 13.6.1 24.6 19.2 24.6 42.7z"/><path class="st2" d="M283.2 112.4c0-7.7-3.1-44-6.9-44s-6.9 36.3-6.9 44 3.1 14 6.9 14 6.9-6.3 6.9-14zm12 16c3.3-3.3 16.9-20.9 14.3-23.4s-20.1 11-23.4 14.3-4 8-1.5 10.5c2.6 2.6 7.3 1.9 10.6-1.4zm-.1 16.2c3.8 0 21.9-2.8 21.9-6.3s-18-6.3-21.9-6.3c-3.8 0-6.9 2.8-6.9 6.3s3.1 6.3 6.9 6.3zm-5.5 16.9c5.5 5.5 33.3 28.9 36 26.2s-20.7-30.6-26.2-36-12.1-7.7-14.8-4.9c-2.6 2.7-.4 9.3 5 14.7zm-20.2 2.7c0 7.7 3.1 44 6.9 44s6.9-36.3 6.9-44-3.1-14-6.9-14-6.9 6.3-6.9 14zm-6.5-49.1c-5.5-5.5-33.3-28.9-36-26.2s20.7 30.6 26.2 36c5.5 5.4 12.1 7.7 14.8 4.9 2.7-2.7.5-9.3-5-14.7zM250.4 131c-7.7 0-44 3.3-44 7.3s36.3 7.3 44 7.3c7.7 0 14-3.3 14-7.3s-6.3-7.3-14-7.3z"/><circle class="st2" cx="262.1" cy="424.8" r="4.8"/><path class="st2" d="M268.3 409.3c.6-4.8 1.3-27.5-1-27.8-2.4-.3-7 22-7.5 26.8s.9 8.9 3.3 9.2c2.3.2 4.7-3.4 5.2-8.2zm9.8 9.3c3.9-3 20.6-19.1 18.9-21.2s-21.2 10.4-25.1 13.4-5.6 7.2-3.9 9.4 6.2 1.5 10.1-1.6zm-.4 12.7c4.8.6 27.6 1.2 27.8-1.3s-22-7.2-26.8-7.8-8.9 1-9.2 3.5c-.2 2.5 3.4 5 8.2 5.6zm-9 9c3 3.8 18.6 20.4 20.4 18.9 1.9-1.5-10.6-20.5-13.6-24.3s-6.9-5.7-8.8-4.2c-1.8 1.5-1 5.8 2 9.6zm-12.8.1c-.6 4.8-1.3 27.5 1 27.8 2.4.3 7-22 7.5-26.8.6-4.8-.9-8.9-3.3-9.2-2.2-.2-4.6 3.4-5.2 8.2zm-9.2-8.9c-3.8 3-20.4 18.5-18.9 20.4s20.5-10.6 24.3-13.6 5.7-6.9 4.2-8.8-5.8-1-9.6 2zm8.9-22.1c-3-3.8-18.6-20.4-20.4-18.9-1.9 1.5 10.6 20.5 13.6 24.3s6.9 5.7 8.8 4.2c1.8-1.5.9-5.8-2-9.6zm-9 9c-4.8-.6-27.6-1.2-27.8 1.3-.3 2.5 22 7.2 26.8 7.8s8.9-1 9.2-3.5c.2-2.5-3.4-5-8.2-5.6z"/><circle class="st2" cx="229.6" cy="54.2" r="4.5"/><circle class="st2" cx="222.5" cy="358.5" r="4.5"/><circle class="st2" cx="285.5" cy="367.5" r="4.5"/><circle class="st2" cx="250.5" cy="331.5" r="4.5"/><circle class="st2" cx="252.5" cy="72.5" r="4.5"/><circle class="st2" cx="209.5" cy="239.5" r="4.5"/><circle class="st2" cx="242.5" cy="372.5" r="4.5"/><circle class="st2" cx="206.5" cy="107.5" r="4.5"/><circle class="st2" cx="298.5" cy="193.5" r="4.5"/><circle class="st2" cx="226.5" cy="306.5" r="4.5"/><circle class="st2" cx="250.5" cy="477.5" r="4.5"/><circle class="st2" cx="316.5" cy="264.5" r="4.5"/><path d="M256 500V16.1l-.7 1c-1.5-1-3-1.8-4.4-2.5l4.7-11L252 2l-4.7 11c-1.8-.6-3.4-1-4.9-1l-2.1-12-3.9.7 2.1 11.9c-1.4.5-2.9 1.3-4.5 2.3l-7.2-9.6-3.2 2.4 7.2 9.6c-1.2 1-2.5 2.1-3.8 3.4l-8.6-8.3-2.8 2.9 8.6 8.3c-1.1 1.2-2.2 2.5-3.3 3.8l-9.3-7.5-2.5 3.1 9.3 7.5c-1 1.3-2 2.6-3 4.1l-9.8-6.8-2.3 3.3 9.8 6.8c-.9 1.4-1.8 2.8-2.8 4.2l-10.1-6.3-2.1 3.4 10.1 6.3c-.9 1.4-1.7 2.9-2.6 4.4l-10.4-5.8-1.9 3.5 10.4 5.8c-.8 1.5-1.6 3-2.3 4.5l-10.7-5.3-1.8 3.6 10.7 5.3c-.7 1.5-1.4 3-2.2 4.6l-10.9-4.9-1.6 3.6 10.9 4.9c-.7 1.5-1.3 3.1-2 4.7L182.7 70l-1.5 3.7 11.1 4.4c-.6 1.6-1.2 3.1-1.8 4.7l-11.2-4-1.3 3.8 11.2 4c-.6 1.6-1.1 3.2-1.6 4.8l-11.4-3.6-1.2 3.8 11.4 3.6c-.5 1.6-1 3.2-1.4 4.9L173.5 97l-1.1 3.9 11.5 3.1c-.4 1.6-.8 3.3-1.2 4.9L171 106l-.9 3.9 11.6 2.7c-.4 1.6-.7 3.3-1.1 4.9l-11.7-2.3-.8 3.9 11.7 2.3c-.3 1.7-.6 3.3-.9 5l-11.8-1.8-.6 4 11.8 1.8c-.2 1.7-.5 3.3-.7 5l-11.8-1.3-.4 4 11.8 1.3c-.2 1.7-.3 3.3-.5 5l-11.9-.8-.3 4 11.9.8c-.1 1.7-.2 3.4-.2 5.1l-11.9-.3-.1 4 11.9.3v5.1l-11.9.2.1 4 11.9-.2c0 1.7.1 3.4.2 5.1l-11.9.7.2 4 11.9-.7c.1 1.7.2 3.4.4 5l-11.9 1.2.4 4 11.9-1.2c.2 1.7.4 3.4.6 5l-11.8 1.5.5 4 11.8-1.5c.2 1.7.5 3.3.7 5l-11.8 1.8.6 4 11.8-1.8c.3 1.7.5 3.3.8 5l-11.7 2.1.7 3.9 11.7-2.1c.3 1.7.6 3.3 1 5l-11.7 2.5.8 3.9 11.7-2.5c.4 1.7.7 3.3 1.1 4.9l-11.6 2.8.9 3.9 11.6-2.8c.4 1.6.8 3.3 1.3 4.9l-11.5 3.2 1.1 3.9 11.5-3.2c.5 1.6.9 3.3 1.4 4.9l-11.4 3.5 1.2 3.8 11.4-3.5c.5 1.6 1 3.2 1.6 4.8l-11.3 3.9 1.3 3.8 11.3-3.9c.6 1.6 1.2 3.2 1.8 4.7l-11.1 4.3 1.5 3.7 11.1-4.3c.6 1.6 1.3 3.1 1.9 4.7l-10.9 4.8 1.6 3.7 10.9-4.8.3.6c.6 1.3 1.2 2.7 1.7 4l-11.1 4.3 1.5 3.7 11.1-4.3c.6 1.6 1.2 3.2 1.7 4.8l-11.3 3.6 1.2 3.8 11.3-3.6c.5 1.6.9 3.2 1.3 4.9l-11.6 2.8.9 3.9 11.6-2.8c.4 1.6.7 3.3 1 5l-11.7 2 .7 3.9 11.7-2c.3 1.7.5 3.3.7 5L199 313l.4 4 11.8-1.2c.1 1.7.2 3.4.3 5l-11.9.4.1 4 11.9-.4v5.1l-11.9-.4-.1 4 11.9.4c-.1 1.7-.2 3.4-.4 5l-11.8-1.2-.4 4 11.8 1.2-.5 5-11.8-1.2-.4 4 11.8 1.2-.5 5-11.8-1.2-.4 4 11.8 1.2-.5 5-11.8-1.2-.4 4 11.8 1.2-.5 5-11.8-1.2-.4 4 11.8 1.2-.5 5-11.8-1.2-.4 4 11.8 1.2-.2 2.3-.3 2.7-11.9-.9-.3 4 11.9.9-.3 5.1-11.9-.4-.1 4 11.9.4v5.1l-11.9.2.1 4 11.9-.2c0 1.7.1 3.4.2 5.1l-11.9.8.3 4 11.9-.8c.1 1.7.3 3.4.5 5l-11.8 1.4.5 4 11.8-1.4c.2 1.7.5 3.4.7 5l-11.7 2.1.7 3.9 11.7-2.1c.3 1.7.7 3.3 1 5l-11.6 2.8.9 3.9 11.6-2.8c.4 1.7.9 3.3 1.4 4.9l-11.4 3.6 1.2 3.8 11.4-3.6c.6 1.6 1.1 3.2 1.7 4.8l-11 4.6 1.5 3.7 11-4.6c.7 1.6 1.4 3.1 2.2 4.6l-10.5 5.6 1.9 3.5 10.5-5.6c.9 1.5 1.7 2.9 2.7 4.3l-9.7 6.9 2.3 3.3 9.7-6.9c1 1.4 2.1 2.7 3.2 3.9l-8.5 8.4 2.8 2.9 8.5-8.4c1.3 1.2 2.6 2.3 3.9 3.2l-6.6 10 3.3 2.2 6.6-10c1.5.9 3 1.6 4.5 2.2l-3.7 11.4 3.8 1.2 3.7-11.4c1.4.4 2.9.6 4.4.8h.6l-.2 12 4 .1.2-12c.2-.4.4-.4.7-.4z" opacity=".15" fill="#444"/></svg>