<svg xmlns="http://www.w3.org/2000/svg" viewBox="0 0 512 512" xml:space="preserve"><style>.st0{fill:#038387}.st1{fill:#3aaf9d}.st2{fill:#ddd}</style><ellipse class="st0" cx="256" cy="487.8" rx="29" ry="20.5"/><path class="st0" d="M245.5 423.8c0-17.9 4.3-14.5 9.5-14.5s9.5-3.4 9.5 14.5-4.3 50.5-9.5 50.5-9.5-32.6-9.5-50.5z"/><ellipse transform="rotate(-72.002 472.869 330.182)" class="st0" cx="472.9" cy="330.2" rx="29" ry="20.5"/><path class="st0" d="M408.8 320.4c-17.1-5.5-12.5-8.5-10.9-13.5 1.6-5-.3-10.1 16.7-4.6 17.1 5.5 46.7 19.7 45.1 24.6-1.6 5.1-33.8-1-50.9-6.5z"/><ellipse transform="rotate(-53.999 390.062 75.212)" class="st0" cx="390.1" cy="75.2" rx="20.5" ry="29"/><path class="st0" d="M360.9 133.2c-10.6 14.5-12 9.2-16.2 6.1-4.2-3.1-9.7-2.8.8-17.3s33.1-38.4 37.4-35.3c4.3 3.1-11.4 31.9-22 46.5z"/><ellipse transform="rotate(-36.002 121.943 75.212)" class="st0" cx="121.9" cy="75.2" rx="29" ry="20.5"/><path class="st0" d="M168.1 120.8c10.6 14.5 5.1 14.2.8 17.3s-5.7 8.4-16.2-6.1c-10.6-14.5-26.2-43.4-22-46.4 4.2-3.1 26.8 20.7 37.4 35.2z"/><ellipse transform="rotate(-17.998 39.107 330.212)" class="st0" cx="39.1" cy="330.2" rx="20.5" ry="29"/><path class="st0" d="M96.7 300.4c17.1-5.5 15.1-.4 16.7 4.6 1.6 5 6.2 8-10.9 13.5s-49.3 11.6-51 6.6c-1.5-5 28.2-19.1 45.2-24.7z"/><circle class="st1" cx="256" cy="259.7" r="187"/><path class="st1" d="M277 31.2c0 26.2-9.4 67.5-21 67.5s-21-41.3-21-67.5 9.4-27.5 21-27.5 21 1.3 21 27.5zm69.6 17.7c-8.1 24.9-29.8 61.3-40.8 57.7-11-3.6-7.2-45.7.9-70.7 8.1-24.9 17.4-23.2 28.5-19.7s19.5 7.7 11.4 32.7zm106.6 93.5c-21.2 15.4-60.1 32.1-67 22.7-6.8-9.4 21-41.2 42.3-56.7 21.2-15.4 27.8-8.6 34.6.8 6.8 9.4 11.3 17.8-9.9 33.2zm26.6 66.7c-24.9 8.1-67.1 11.9-70.7.9-3.6-11 32.8-32.7 57.7-40.8 24.9-8.1 29.1.4 32.6 11.5 3.7 10.9 5.4 20.3-19.6 28.4zm4.7 71.6c-26.2 0-67.5-9.4-67.5-21s41.3-21 67.5-21 27.5 9.4 27.5 21-1.3 21-27.5 21zm-56 130.3c-21.2-15.4-49.1-47.3-42.3-56.7 6.8-9.4 45.7 7.3 67 22.7 21.2 15.4 16.7 23.8 9.9 33.2-6.8 9.4-13.4 16.2-34.6.8zm-55.2 45.9c-15.4-21.2-32.1-60.1-22.7-67 9.4-6.8 41.2 21 56.7 42.3s8.6 27.8-.8 34.6-17.8 11.3-33.2-9.9zm-66.7 26.6c-8.1-24.9-11.9-67.1-.9-70.7s32.7 32.8 40.8 57.7c8.1 24.9-.4 29.1-11.5 32.6-10.9 3.7-20.3 5.4-28.4-19.6zm-141.2-13c8.1-24.9 29.8-61.3 40.8-57.7s7.2 45.7-.9 70.7c-8.1 24.9-17.4 23.2-28.5 19.7-10.9-3.6-19.5-7.7-11.4-32.7zm-60.7-38.3c15.4-21.2 47.3-49.1 56.7-42.3 9.4 6.8-7.3 45.7-22.7 67-15.4 21.2-23.8 16.7-33.2 9.9s-16.2-13.3-.8-34.6zM58.8 377c21.2-15.4 60.1-32.1 67-22.7 6.8 9.4-21 41.2-42.3 56.7s-27.8 8.6-34.6-.8-11.3-17.7 9.9-33.2zM27.5 238.7c26.2 0 67.5 9.4 67.5 21s-41.3 21-67.5 21S0 271.3 0 259.7s1.3-21 27.5-21zm17.7-69.6c24.9 8.1 61.3 29.8 57.7 40.8-3.6 11-45.7 7.2-70.7-.9-25-8-23.3-17.4-19.7-28.4s7.7-19.6 32.7-11.5zm38.3-60.7c21.2 15.4 49.1 47.3 42.3 56.7-6.8 9.4-45.7-7.3-67-22.7s-16.7-23.8-9.9-33.2 13.4-16.2 34.6-.8zm121.9-72.5c8.1 24.9 11.9 67.1.9 70.7-11 3.6-32.7-32.8-40.8-57.7-8.1-24.9.4-29.1 11.5-32.6s20.3-5.3 28.4 19.6z"/><circle class="st0" cx="256" cy="97.7" r="10"/><circle class="st0" cx="256" cy="97.7" r="10"/><circle class="st0" cx="235.7" cy="99" r="10"/><circle class="st0" cx="215.7" cy="102.8" r="10"/><circle class="st0" cx="196.4" cy="109.1" r="10"/><circle class="st0" cx="178" cy="117.8" r="10"/><circle class="st0" cx="160.8" cy="128.7" r="10"/><circle class="st0" cx="145.1" cy="141.6" r="10"/><circle class="st0" cx="131.2" cy="156.5" r="10"/><circle class="st0" cx="119.2" cy="172.9" r="10"/><circle class="st0" cx="109.4" cy="190.7" r="10"/><circle class="st0" cx="101.9" cy="209.7" r="10"/><circle class="st0" cx="96.9" cy="229.4" r="10"/><circle class="st0" cx="94.3" cy="249.5" r="10"/><circle class="st0" cx="94.3" cy="269.9" r="10"/><circle class="st0" cx="96.9" cy="290.1" r="10"/><circle class="st0" cx="101.9" cy="309.8" r="10"/><circle class="st0" cx="109.4" cy="328.7" r="10"/><circle class="st0" cx="119.2" cy="346.5" r="10"/><circle class="st0" cx="131.2" cy="363" r="10"/><circle class="st0" cx="145.1" cy="377.8" r="10"/><circle class="st0" cx="160.8" cy="390.8" r="10"/><circle class="st0" cx="178" cy="401.7" r="10"/><circle class="st0" cx="196.4" cy="410.3" r="10"/><circle class="st0" cx="215.7" cy="416.6" r="10"/><circle class="st0" cx="235.7" cy="420.4" r="10"/><circle class="st0" cx="256" cy="421.7" r="10"/><circle class="st0" cx="276.3" cy="420.4" r="10"/><circle class="st0" cx="296.3" cy="416.6" r="10"/><circle class="st0" cx="315.6" cy="410.3" r="10"/><circle class="st0" cx="334" cy="401.7" r="10"/><circle class="st0" cx="351.2" cy="390.8" r="10"/><circle class="st0" cx="366.9" cy="377.8" r="10"/><circle class="st0" cx="380.8" cy="363" r="10"/><circle class="st0" cx="392.8" cy="346.5" r="10"/><circle class="st0" cx="402.6" cy="328.7" r="10"/><circle class="st0" cx="410.1" cy="309.8" r="10"/><circle class="st0" cx="415.1" cy="290.1" r="10"/><circle class="st0" cx="417.7" cy="269.9" r="10"/><circle class="st0" cx="417.7" cy="249.5" r="10"/><circle class="st0" cx="415.1" cy="229.4" r="10"/><circle class="st0" cx="410.1" cy="209.7" r="10"/><circle class="st0" cx="402.6" cy="190.7" r="10"/><circle class="st0" cx="392.8" cy="172.9" r="10"/><circle class="st0" cx="380.8" cy="156.5" r="10"/><circle class="st0" cx="366.9" cy="141.6" r="10"/><circle class="st0" cx="351.2" cy="128.7" r="10"/><circle class="st0" cx="334" cy="117.8" r="10"/><circle class="st0" cx="315.6" cy="109.1" r="10"/><circle class="st0" cx="296.3" cy="102.8" r="10"/><circle class="st0" cx="276.3" cy="99" r="10"/><circle class="st2" cx="256" cy="139.2" r="7.4"/><circle class="st2" cx="256" cy="139.2" r="7.4"/><circle class="st2" cx="240.9" cy="140.1" r="7.4"/><circle class="st2" cx="226" cy="142.9" r="7.4"/><circle class="st2" cx="211.6" cy="147.6" r="7.4"/><circle class="st2" cx="197.9" cy="154.1" r="7.4"/><circle class="st2" cx="185.1" cy="162.2" r="7.4"/><circle class="st2" cx="173.5" cy="171.8" r="7.4"/><circle class="st2" cx="163.1" cy="182.9" r="7.4"/><circle class="st2" cx="154.2" cy="195.1" r="7.4"/><circle class="st2" cx="146.9" cy="208.4" r="7.4"/><circle class="st2" cx="141.3" cy="222.5" r="7.4"/><circle class="st2" cx="137.6" cy="237.1" r="7.4"/><circle class="st2" cx="135.7" cy="252.1" r="7.4"/><circle class="st2" cx="135.7" cy="267.3" r="7.4"/><circle class="st2" cx="137.6" cy="282.3" r="7.4"/><circle class="st2" cx="141.3" cy="297" r="7.4"/><circle class="st2" cx="146.9" cy="311" r="7.4"/><circle class="st2" cx="154.2" cy="324.3" r="7.4"/><circle class="st2" cx="163.1" cy="336.6" r="7.4"/><circle class="st2" cx="173.5" cy="347.6" r="7.4"/><circle class="st2" cx="185.1" cy="357.3" r="7.4"/><circle class="st2" cx="197.9" cy="365.4" r="7.4"/><circle class="st2" cx="211.6" cy="371.8" r="7.4"/><circle class="st2" cx="226" cy="376.5" r="7.4"/><circle class="st2" cx="240.9" cy="379.3" r="7.4"/><circle class="st2" cx="256" cy="380.3" r="7.4"/><circle class="st2" cx="271.1" cy="379.3" r="7.4"/><circle class="st2" cx="286" cy="376.5" r="7.4"/><circle class="st2" cx="300.4" cy="371.8" r="7.4"/><circle class="st2" cx="314.1" cy="365.4" r="7.4"/><circle class="st2" cx="326.9" cy="357.3" r="7.4"/><circle class="st2" cx="338.5" cy="347.6" r="7.4"/><circle class="st2" cx="348.9" cy="336.6" r="7.4"/><circle class="st2" cx="357.8" cy="324.3" r="7.4"/><circle class="st2" cx="365.1" cy="311" r="7.4"/><circle class="st2" cx="370.7" cy="297" r="7.4"/><circle class="st2" cx="374.4" cy="282.3" r="7.4"/><circle class="st2" cx="376.3" cy="267.3" r="7.4"/><circle class="st2" cx="376.3" cy="252.1" r="7.4"/><circle class="st2" cx="374.4" cy="237.1" r="7.4"/><circle class="st2" cx="370.7" cy="222.5" r="7.4"/><circle class="st2" cx="365.1" cy="208.4" r="7.4"/><circle class="st2" cx="357.8" cy="195.1" r="7.4"/><circle class="st2" cx="348.9" cy="182.9" r="7.4"/><circle class="st2" cx="338.5" cy="171.8" r="7.4"/><circle class="st2" cx="326.9" cy="162.2" r="7.4"/><circle class="st2" cx="314.1" cy="154.1" r="7.4"/><circle class="st2" cx="300.4" cy="147.6" r="7.4"/><circle class="st2" cx="286" cy="142.9" r="7.4"/><circle class="st2" cx="271.1" cy="140.1" r="7.4"/><path class="st2" d="M197.2 238.1c-1.4-1.4-1.9-3.7-1-5.6 3.3-7.2 7.8-13.7 13.4-19.4 22.9-22.9 58.7-25.9 85.1-7 2.3 1.6 2.8 4.7 1.2 7-1.6 2.2-4.7 2.8-7 1.2-22.3-16-52.7-13.5-72.2 6-4.8 4.8-8.6 10.3-11.4 16.4-1.1 2.5-4.1 3.6-6.6 2.5-.6-.3-1.1-.6-1.5-1.1zm80.8 80.8c-.4-.4-.8-.9-1-1.5-1.1-2.5 0-5.5 2.5-6.6 6.1-2.8 11.7-6.6 16.4-11.4 19.5-19.5 22-49.8 6-72.2-1.6-2.2-1.1-5.4 1.2-7 2.2-1.6 5.4-1.1 7 1.2 18.9 26.3 15.9 62.1-7 85.1a65.36 65.36 0 0 1-19.4 13.4c-2.1.9-4.3.4-5.7-1zm-68.4-12.4c-14-14-20.9-33.3-19-53.1.3-2.7 2.7-4.8 5.5-4.5 2.7.3 4.8 2.7 4.5 5.5-1.6 16.7 4.3 33.2 16.1 45 11.9 11.9 28.3 17.8 45 16.1 2.7-.3 5.2 1.7 5.5 4.5.3 2.7-1.7 5.2-4.5 5.5-19.7 1.9-39.1-5-53.1-19z"/><path class="st2" d="M339.3 231.6c-.5.5-1 .9-1.7 1.1-2.6 1-5.5-.2-6.5-2.8-4.1-10.3-10.1-19.5-18-27.4-29.1-29.1-75.3-31.8-107.5-6.3-2.2 1.7-5.3 1.4-7-.8-1.7-2.2-1.4-5.3.8-7 36.2-28.7 88.1-25.6 120.8 7 8.8 8.8 15.6 19.2 20.2 30.7.7 2 .2 4.1-1.1 5.5zM227.6 343.3c-1.4 1.4-3.5 1.9-5.4 1.1-11.6-4.6-21.9-11.4-30.7-20.2-32.7-32.7-35.7-84.6-7-120.8 1.7-2.2 4.9-2.5 7-.8 2.2 1.7 2.5 4.9.8 7-25.5 32.2-22.8 78.4 6.3 107.5 7.9 7.9 17.1 13.9 27.4 18 2.6 1 3.8 3.9 2.8 6.5-.4.6-.8 1.2-1.2 1.7zm92.5-19.1c-20.5 20.5-48.8 29.9-77.5 25.7-2.7-.4-4.6-2.9-4.2-5.7.4-2.7 2.9-4.6 5.7-4.2 25.6 3.7 50.7-4.6 69-22.9 18.3-18.3 26.6-43.4 22.9-69-.4-2.7 1.5-5.3 4.2-5.7 2.7-.4 5.3 1.5 5.7 4.2 4.1 28.8-5.3 57-25.8 77.6zm-43.2-29.4c-.3.3-.7.6-1.1.8-15.9 8.8-36 5.9-48.8-6.9-12.8-12.8-15.7-32.9-6.9-48.8 1.3-2.4 4.4-3.3 6.8-2 2.4 1.3 3.3 4.4 2 6.8-6.6 12-4.5 27.2 5.2 36.9s24.9 11.9 36.9 5.2c2.4-1.3 5.5-.5 6.8 2 1.1 2 .7 4.4-.9 6zm14.2-14.2c-1.5 1.5-4 1.9-6 .8-2.4-1.3-3.3-4.4-2-6.8 6.6-12 4.5-27.2-5.2-36.9s-24.9-11.9-36.9-5.2c-2.4 1.3-5.5.5-6.8-2-1.3-2.4-.5-5.5 2-6.8 15.9-8.8 36-5.9 48.8 6.9 12.8 12.8 15.7 32.9 6.9 48.8-.2.5-.5.9-.8 1.2z"/></svg>