<svg xmlns="http://www.w3.org/2000/svg" viewBox="0 0 512 512" xml:space="preserve"><style>.st0{fill:#cc584c}.st2{fill:#ddd}</style><path class="st0" d="M268.1 373.5h240.7c1.7 0 3.2-1.4 3.2-3.2 0-2.1-1.7-3.9-3.8-4l-226.7-8.9-13.4 16.1z"/><circle cx="98.2" cy="193.8" r="43.2" fill="#999"/><path class="st2" d="M81.4 239.7c-4.4 9.1-6.9 19.2-6.9 30 0 37.9 30.6 68.5 68.5 68.5 28.6 0 53.1-17.5 63.3-42.4L81.4 239.7z"/><path class="st2" d="M312.5 247.3c1.7 6 2.8 12.4 3.3 18.8v.7c.2 2.3.2 4.6.2 7 0 51.8-39.6 94.4-90.2 99.3-3.1.3-6.2.4-9.5.4-55.1 0-99.7-44.6-99.7-99.7s44.6-99.7 99.7-99.7c45.9.1 84.6 31 96.2 73.2z"/><path class="st2" d="M216.4 373.5h54.9l55.8-73.4-14.6-52.8zM110 287.7c-31.3 27.1-84 47.5-99.3 29.8-15.3-17.7 12.6-66.8 43.9-93.8s54.3-21.8 69.6-4.1 17.2 41-14.2 68.1z"/><circle cx="63.9" cy="263.3" r="16.6" fill="#36434f"/><circle class="st0" cx="10.1" cy="311.1" r="10.1"/><path class="st2" d="M327.1 300.1c1 3.5 1.6 7.1 1.9 11v.4c.1 1.3.1 2.7.1 4.1 0 30.1-23 54.9-52.3 57.6-1.8.2-3.6.3-5.5.3-32 0-57.9-25.9-57.9-57.9s25.9-57.9 57.9-57.9c26.6.1 49 18 55.8 42.4z"/><circle cx="120.3" cy="185.8" r="47.3" fill="#bbb"/><path class="st2" d="M142.4 359.4H236v14.1h-93.6c-3.9 0-7-3.1-7-7s3.2-7.1 7-7.1zm-59-20.3 86.7-35.3 5.3 13.1-86.7 35.3c-3.6 1.5-7.8-.3-9.2-3.8-1.5-3.7.2-7.8 3.9-9.3zM55.2 329l86.7-35.3 5.3 13.1-86.7 35.3c-3.6 1.5-7.8-.3-9.2-3.8-1.5-3.6.2-7.8 3.9-9.3z"/><circle cx="53.9" cy="263.3" r="3.5" fill="#f4f4f4"/></svg>