<svg xmlns="http://www.w3.org/2000/svg" viewBox="0 0 512 512" xml:space="preserve"><style>.st0{fill:#35965f}.st1{fill:#e3c672}.st3{fill:#f4f4f4}</style><path class="st0" d="M512 195.6c-22-14-59.3-27.4-102.7-35.8-24.9-4.8-48.6-7.2-69.1-7.5-4.4-13.3-17-22.9-31.8-22.9-8.5 0-16.3 3.2-22.3 8.5-16.7 1.7-32.8 6.6-47.5 14.6l-17 9.2c-9.4 5.1-19.8 7.7-30.5 7.7h-70.5c-15.7 0-30.8-5.7-42.5-16.1-8.8-7.8-20.6-12.4-33.5-11.8-24.3 1.1-43.9 21-44.7 45.3-.6 17.6 8.5 33.2 22.4 41.7 7.1 4.6 14.6 8.5 22.5 11.5l333.4 126c28.9 10.9 59.6 16.5 90.5 16.5H512V195.6z"/><path class="st1" d="m143 221.5 4.8 23c.4 2.1 3.4 2.3 4.1.2l7.1-22.2-16-1zm-22-8 4.8 23c.4 2.1 3.4 2.3 4.1.2l7.1-22.2-16-1zm-77-14 4.8 27.7c.4 2.6 3.4 2.8 4.1.3l7.1-26.6-16-1.4zm-24.4-15.3v31.3c0 2.9 2.8 3.5 3.8.8l10.9-28.5-14.7-3.6zm142.2 27.2 7.1 22.4c.7 2.1 3.7 1.9 4.1-.2l4.8-22.8-16 .6zm18-3 7.1 22.4c.7 2.1 3.7 1.9 4.1-.2l4.8-22.8-16 .6zm33.2 13.1 4.8 23c.4 2.1 3.4 2.3 4.1.2l7.1-22.2-16-1zm-13.3-8.9 1.7 23.4c.2 2.2 3.1 2.7 4.1.8l9.9-21-15.7-3.2z"/><path class="st1" d="m228 223.5 4.8 23c.4 2.1 3.4 2.3 4.1.2l7.1-22.2-16-1zm16 0 4.8 23c.4 2.1 3.4 2.3 4.1.2l7.1-22.2-16-1z"/><path class="st1" d="m258 223.5 4.8 23c.4 2.1 3.4 2.3 4.1.2l7.1-22.2-16-1z"/><path class="st1" d="m271 223.5 4.8 23c.4 2.1 3.4 2.3 4.1.2l7.1-22.2-16-1z"/><path class="st1" d="m283 223.5 4.8 23c.4 2.1 3.4 2.3 4.1.2l7.1-22.2-16-1z"/><path class="st1" d="m296 219.5 4.8 23c.4 2.1 3.4 2.3 4.1.2l7.1-22.2-16-1z"/><path class="st1" d="m306 218.5 4.8 23c.4 2.1 3.4 2.3 4.1.2l7.1-22.2-16-1zm-196.5-20.7-1.5 23.4c-.1 2.2 2.7 3.1 3.9 1.3l12.7-19.5-15.1-5.2zM97 186.7l-4.4 23c-.4 2.1 2.2 3.4 3.5 1.7l14.6-18-13.7-6.7zm-30.5 2.2 7.9 22.1c.7 2.1 3.6 1.8 3.9-.4l3.4-22.9-15.2 1.2z"/><path class="st0" d="M427 205.5c-2-1-72-9-72-9l-84-4-102-3-109-16-32-28c-9.8 4.4-17.9 12-22.8 21.5 6.3 9.6 24.7 36 37.8 38.5 16 3 29-12 46-10s36 26 54 30 31-6 62-4 52 20 74 20 77-18 104-19 44.5 8.3 70 13c0 0-24-29-26-30z"/><path d="M453.4 233.5c-8.7-1.6-16.4-3.8-24-5.8-14.6-4-28.4-7.9-46.5-7.2-13.8.5-34.6 5.4-54.7 10-19.8 4.6-38.5 9-49.2 9-10.2 0-20.5-4.1-31.4-8.5-12.2-4.9-26-10.4-42.5-11.5-16-1-27 1-36.8 2.9-9.2 1.7-16.5 3.1-24.9 1.2-8.3-1.8-17.2-8.4-25.8-14.8-9.4-7-19.2-14.2-28.4-15.3-8.9-1-16.6 2.2-24.1 5.4-7.3 3.1-14.3 6.1-21.8 4.6C31.8 201.3 14 177 6.3 165c-.8 1.3-1.5 2.7-2.1 4.1 7 10.6 25 35.8 38.4 38.4 8.7 1.6 16.5-1.7 24.1-4.9 7-3 14.2-6 22-5.1 8.2 1 17.5 7.9 26.5 14.5 8.9 6.6 18.1 13.4 27.3 15.5 9.3 2.1 17.3.6 26.5-1.2 9.5-1.8 20.3-3.8 35.8-2.8 15.8 1 29.3 6.4 41.2 11.2 11.3 4.5 22 8.8 32.9 8.8 11.1 0 30.1-4.4 50.1-9.1 19.9-4.6 40.6-9.4 54-9.9 17.4-.6 31 3.1 45.3 7.1 7.6 2.1 15.5 4.3 24.3 5.9 1.1.2 2.1-.5 2.3-1.6.3-1.1-.4-2.2-1.5-2.4z" fill="#227a46"/><circle class="st3" cx="308.3" cy="162.5" r="21.3"/><circle cx="308.3" cy="162.5" r="9.3" fill="#36434f"/><circle class="st3" cx="304.9" cy="159.6" r="3"/><path d="M0 186.8c-.6 17.6 8.5 33.2 22.4 41.7 7.1 4.6 14.6 8.5 22.5 11.5l333.4 126c28.9 10.9 59.6 16.5 90.5 16.5H512V195.6c-11.7-7.4-27.7-14.7-46.7-21.1H2.2c-1.3 3.9-2 8.1-2.2 12.3z" opacity=".15" fill="#444"/></svg>