<svg xmlns="http://www.w3.org/2000/svg" viewBox="0 0 512 512" style="enable-background:new 0 0 512 512" xml:space="preserve"><style>.st0{fill:#36434f}.st1{fill:#f4f4f4}.st2{fill:#eec646}</style><path class="st0" d="M256 0C135 0 37 114.6 37 256c0 16.9 1.4 33.4 4.1 49.3l3.7 1h101.7c16.8 44.1 59.5 75.5 109.6 75.5s92.7-31.3 109.6-75.5h101.7l3.7-1c2.7-16 4.1-32.4 4.1-49.3C475 114.6 377 0 256 0z"/><path class="st1" d="m482 360.8-11-55.5c1.4-24.4-3.6-54.5-15.3-85.2-24.6-64.5-69.6-107.3-100.6-95.5s-36.2 73.7-11.7 138.2c4.7 12.4 10.2 24 16.2 34.6 2.7 4.7 2.7 10.4.2 15.2C340.5 350.2 301.1 377 256 377s-84.5-26.8-103.9-64.4c-2.5-4.8-2.4-10.5.2-15.2 6-10.6 11.5-22.2 16.2-34.6 24.6-64.5 19.3-126.4-11.7-138.2s-76 30.9-100.6 95.5c-11.7 30.7-16.6 60.8-15.3 85.2l-11 55.5c-1.5 7.5-.3 15.3 3.5 22C77.6 460 160.7 512 256 512s178.4-52 222.4-129.2c3.8-6.7 5.1-14.5 3.6-22z"/><path class="st2" d="M193.7 279.7c8 26.8 32.9 46.3 62.3 46.3s54.2-19.5 62.3-46.3H193.7z"/><path d="M311.4 295c1.6-2.6 3-5.2 4.2-8H196.4c1.2 2.8 2.6 5.4 4.2 8h110.8z" style="opacity:.15;fill:#444"/><path class="st2" d="M326 288.7c2.9 0 4.9-3 3.6-5.7-12.9-27.8-41-47.1-73.6-47.1s-60.8 19.3-73.6 47.1c-1.2 2.7.7 5.7 3.6 5.7h140z"/><circle class="st0" cx="112.4" cy="241.4" r="24"/><circle class="st1" cx="103.7" cy="233.8" r="7.6"/><circle class="st0" cx="399.6" cy="241.4" r="24"/><circle class="st1" cx="390.8" cy="233.8" r="7.6"/></svg>