<svg version="1.1" xmlns="http://www.w3.org/2000/svg" x="0" y="0" viewBox="0 0 512 512" xml:space="preserve"><style type="text/css">.st0{fill:#cc584c}.st2{fill:#ddd}</style><path class="st0" d="M371.5 352.2a435.955 435.955 0 0 1 32.6 3c10.8 1.4 21.5 3.1 32.2 5.4 10.7 2.3 21.3 5.2 31.8 9.1 5.2 2 10.4 4.2 15.5 6.9 5 2.7 10 5.9 14.5 9.9s8.7 9 11.3 15.2c1.3 3.1 2.1 6.3 2.5 9.7.4 3.3.2 6.6-.3 9.8-.5 3.1-1.5 6.4-2.8 9.4-1.4 3-3.2 5.8-5.2 8.3-4.2 4.9-9.2 8.7-14.5 11.5-10.6 5.7-21.8 8.5-32.8 10.2-11.1 1.7-22.2 2.2-33.3 2-11-.2-22-1.2-32.9-2.7-10.9-1.6-21.6-3.9-32.2-6.5-10.6-2.7-21-5.7-31.3-9s-20.5-6.8-30.6-10.2c-5-1.7-10.1-3.5-15.1-5.1-5-1.6-10-3.1-14.8-4.2-1.2-.2-2.3-.5-3.6-.7l-3.8-.6c-2.5-.4-5.1-.8-7.6-1.1-5.1-.7-10.2-1-15.4-1.3-10.3-.5-20.8-.3-31.2.4l-3.9.3-3.9.4c-2.6.2-5.3.6-7.9.9-5.2.7-10.5 1.5-15.8 2.6-.4.1-.7-.2-.8-.5-.1-.3.1-.6.3-.7 4.8-2.7 9.8-4.9 14.9-6.8 5.1-1.8 10.4-3.6 15.7-4.8 10.6-2.7 21.6-4.3 32.7-4.7 2.8-.1 5.5-.1 8.3-.1h2.1l2.1.1 4.2.2c2.8.1 5.5.4 8.3.8l4.2.5c1.4.2 2.9.5 4.3.8 5.6 1.2 11 2.6 16.2 4.1 5.3 1.5 10.4 3.1 15.5 4.7 10.2 3.3 20.3 6.6 30.5 9.7 10.1 3.2 20.2 6.2 30.4 8.8 10.2 2.7 20.4 4.9 30.6 6.7 10.3 1.7 20.6 2.8 31 3.2 10.3.4 20.7.1 30.8-1.2 10-1.4 20-3.8 28.3-8.2 4.2-2.2 7.8-5 10.6-8.2 2.7-3.3 4.5-6.9 5.2-11.1.7-4.2.3-8.2-1.3-12-1.6-3.8-4.4-7.2-7.8-10.3-3.5-3.1-7.6-5.8-11.9-8.1-4.4-2.4-9-4.4-13.8-6.2-9.6-3.6-19.7-6.3-29.9-8.5s-20.6-3.9-31.1-5.2c-5.2-.7-10.5-1.2-15.7-1.7-5.2-.5-10.6-.9-15.7-1.1h-.1c-3.7-.2-6.6-3.3-6.5-7.1-.1-4 3.1-6.9 6.9-6.7z"/><circle cx="132.3" cy="124" r="58.2" fill="#999"/><path class="st2" d="M109.8 185.8c-6 12.2-9.4 25.9-9.4 40.4 0 51 41.2 92.3 92.3 92.3 38.5 0 71.5-23.6 85.3-57.1l-168.2-75.6z"/><path class="st2" d="M421.1 196c2.3 8.1 3.8 16.7 4.5 25.4v.9c.3 3.1.3 6.2.3 9.5 0 69.9-53.3 127.3-121.6 133.8-4.2.4-8.4.5-12.8.5-74.2 0-134.3-60.1-134.3-134.3S217.3 97.5 291.5 97.5c61.9 0 114 41.7 129.6 98.5z"/><path class="st2" d="M291.7 366.1h73.9l75.2-98.9-19.7-71.2-129.4 170.1zM148.3 250.4c-42.2 36.5-113.1 64-133.8 40.2s17-90.1 59.2-126.4 73.1-29.4 93.7-5.6 23.2 55.3-19.1 91.8z"/><circle cx="86.1" cy="217.6" r="22.4" fill="#36434f"/><circle class="st0" cx="13.6" cy="282" r="13.6"/><path class="st2" d="M440.8 267.2c1.4 4.7 2.2 9.6 2.6 14.8v.5c.1 1.8.1 3.7.1 5.6 0 40.6-30.9 73.9-70.5 77.6-2.4.3-4.9.4-7.5.4-43.1 0-78-34.9-78-78s34.9-78 78-78c35.9 0 66.2 24.2 75.3 57.1z"/><circle cx="162.1" cy="113.1" r="63.8" fill="#bbb"/><path class="st2" d="M192 347.1h126.2v19H192c-5.3 0-9.5-4.2-9.5-9.5 0-5.2 4.3-9.5 9.5-9.5zm-79.7-27.4l116.8-47.6 7.2 17.6-116.8 47.6c-4.9 2-10.4-.4-12.3-5.2-2.1-4.8.2-10.3 5.1-12.4zm-38-13.5l116.8-47.6 7.2 17.6-116.8 47.6c-4.9 2-10.4-.4-12.3-5.2-2-4.8.3-10.4 5.1-12.4z"/><circle cx="72.6" cy="217.6" r="4.7" fill="#f4f4f4"/></svg>