<svg xmlns="http://www.w3.org/2000/svg" viewBox="0 0 512 512" xml:space="preserve"><style>.st0{fill:#36434f}</style><path class="st0" d="M169 110.1s-44 4-76-19c-19.4-14-37-32-47.9-44-2.6-2.9-7.3-.1-6 3.5 6.3 18.2 18.3 47.3 35.9 65.5 27 28 85 40 85 40l9-46zm174 0s44 4 76-19c19.4-14 37-32 47.9-44 2.6-2.9 7.3-.1 6 3.5-6.3 18.2-18.3 47.3-35.9 65.5-27 28-85 40-85 40l-9-46z"/><path d="m167.9 234.1-12.9-50-37.5-17.2c-6.9-3.2-13.5-7.1-19.7-11.4-2.7-1.9-5.6-3.7-8.6-5.5-34.5-19.9-72.7-18.5-85.2 3.2s5.3 55.4 39.8 75.4c19.6 11.3 40.4 15.8 57 13.5 5.9-.8 11.9-.7 17.8.2 7.6 1.1 15.3.7 22.7-1.2l26.6-7zm176.2 0 12.9-50 37.5-17.2c6.9-3.2 13.5-7.1 19.7-11.4 2.7-1.9 5.6-3.7 8.6-5.5 34.5-19.9 72.7-18.5 85.2 3.2s-5.3 55.4-39.8 75.4c-19.6 11.3-40.4 15.8-57 13.5-5.9-.8-11.9-.7-17.8.2-7.6 1.1-15.3.7-22.7-1.2l-26.6-7z" fill="#a18267"/><path d="m362.2 168.7-5.2-39.5c-1.9-14.3-11.2-26.5-24.5-32.1l-7.3-3c-12.7-5.3-26.3-8-40.1-8h-58.3c-13.7 0-27.4 2.7-40.1 8l-7.3 3c-13.3 5.5-22.7 17.8-24.5 32.1l-5.2 39.5c-2.5 19.5-2.4 39.3.5 58.7l7.1 47.6c3 20 7.3 39.8 13 59.2l28.5 97.9h114l28.5-97.9c5.7-19.4 10-39.2 13-59.2l7.1-47.6c3.1-19.4 3.3-39.2.8-58.7z" fill="#e0ac7e"/><ellipse cx="256" cy="432.1" rx="47.5" ry="34" fill="#d0a297"/><path d="M314.2 440.1c6.2 0 11.4-4.7 11.9-10.8.2-2.4.3-4.8.3-7.2 0-41.4-31.6-75-70.5-75s-70.5 33.6-70.5 75c0 2.4.1 4.8.3 7.2.6 6.1 5.8 10.8 11.9 10.8h116.6z" fill="#e9b3a6"/><path class="st0" d="M302.1 400.5c.6-1.6.9-3.2.9-4.9.1-3.9 0-8-.4-10.5-.6-3.4-3.1-6.2-5.1-7.9-1-.8-2.5 0-2.3 1.3.4 3.1.7 7.6-.6 10.7-.2.5-.4 1-.7 1.5-1.1 2.1-3 3.6-5.2 4.6-.6.3-1.3.6-1.9 1-6.2 3.6-9.4 9.7-7.1 13.7 2.3 4.1 9.5 4.3 15.8.5.1 0 .1-.1.2-.1 2.7-2.7 4.9-6 6.4-9.9zm-92.2 0c-.6-1.6-.9-3.2-.9-4.9-.1-3.9 0-8 .4-10.5.6-3.4 3.1-6.2 5.1-7.9 1-.8 2.5 0 2.3 1.3-.4 3.1-.7 7.6.6 10.7.2.5.4 1 .7 1.5 1.1 2.1 3 3.6 5.2 4.6.6.3 1.3.6 1.9 1 6.2 3.6 9.4 9.7 7.1 13.7-2.3 4.1-9.5 4.3-15.8.5-.1 0-.1-.1-.2-.1-2.7-2.7-4.9-6-6.4-9.9zM353.8 243c2 3.6-.9 9-6.5 12.2-5.6 3.1-13.8-.9-13.8-.9s.9-9 6.5-12.2c5.7-3.1 11.8-2.7 13.8.9zm-195.6 0c-2 3.6.9 9 6.5 12.2 5.6 3.1 13.8-.9 13.8-.9s-.9-9-6.5-12.2c-5.7-3.1-11.8-2.7-13.8.9z"/></svg>