<svg version="1.1" xmlns="http://www.w3.org/2000/svg" x="0" y="0" viewBox="0 0 512 512" xml:space="preserve"><style type="text/css">.st0{fill:#cc584c}.st1{fill:#bbb}.st3{fill:#ddd}</style><path class="st0" d="M269.7 372.8h239.1c1.7 0 3.2-1.4 3.2-3.2 0-2.1-1.7-3.9-3.8-4L283 356.8l-13.3 16z"/><path class="st1" d="M18.4 297.3v-.7l-17.9-.3c-.2 0-.5.2-.5.5s.2.5.5.5l17.9.3v-.3zm-18-7.1l18.2 4.5c.1-.3.2-.7.2-1L.6 289.2c-.3-.1-.5.1-.6.4s.1.5.4.6zm1-7.1l18.1 9c.1-.3.3-.6.4-.9l-18.1-9c-.2-.1-.5 0-.7.2-.1.2 0 .5.3.7zm22.7 3.6c.3-.2.6-.4.9-.5l-13.3-22.8c-.1-.2-.4-.3-.7-.2-.2.1-.3.4-.2.7l13.3 22.8zm-1.7 1.4c.2-.2.5-.4.8-.7L7.4 269.1c-.2-.2-.5-.2-.7-.1-.2.2-.2.5-.1.7l15.8 18.4zm-1.6 1.8c.2-.3.4-.5.6-.8L4.1 275.4c-.2-.2-.5-.1-.7.1-.2.2-.1.5.1.7l17.3 13.7z"/><circle cx="100.9" cy="194.3" r="42.9" fill="#999"/><path class="st3" d="M84.3 239.9c-4.4 9-6.9 19.1-6.9 29.8 0 37.6 30.4 68 68 68 28.4 0 52.7-17.4 62.9-42.1l-124-55.7z"/><path class="st3" d="M313.8 247.4c1.7 6 2.8 12.3 3.3 18.7v.7c.2 2.3.2 4.6.2 7 0 51.5-39.3 93.8-89.6 98.6-3.1.3-6.2.4-9.4.4-54.7 0-99-44.3-99-99s44.3-99 99-99c45.6 0 84 30.7 95.5 72.6z"/><path class="st3" d="M218.4 372.8h54.5l55.4-72.9-14.5-52.5zm-105.7-85.3c-31.1 26.9-83.4 47.2-98.6 29.6-15.2-17.6 12.5-66.4 43.6-93.2s53.9-21.7 69.1-4.1 17.1 40.8-14.1 67.7z"/><circle cx="66.9" cy="263.3" r="16.5" fill="#36434f"/><circle class="st0" cx="13.4" cy="310.8" r="10"/><path class="st3" d="M328.3 299.9c1 3.5 1.6 7.1 1.9 10.9v.4c.1 1.3.1 2.7.1 4.1 0 29.9-22.8 54.5-52 57.2-1.8.2-3.6.3-5.5.3-31.8 0-57.5-25.7-57.5-57.5s25.7-57.5 57.5-57.5c26.5 0 48.8 17.8 55.5 42.1z"/><circle class="st1" cx="122.9" cy="186.3" r="47"/><path class="st3" d="M144.9 358.8h93v14h-93c-3.9 0-7-3.1-7-7s3.2-7 7-7zm-58.7-20.2l86.1-35.1 5.3 13-86.1 35.1c-3.6 1.5-7.7-.3-9.1-3.8-1.5-3.6.2-7.7 3.8-9.2zm-28-10l86.1-35.1 5.3 13-86.1 35.1c-3.6 1.5-7.7-.3-9.1-3.8-1.5-3.6.2-7.7 3.8-9.2z"/><circle cx="56.9" cy="263.3" r="3.5" fill="#f4f4f4"/><path class="st1" d="M35.7 309.1c-.3.2-.6.3-.9.5L45.4 339c.1.2.3.3.5.3h.2c.3-.1.4-.4.3-.6l-10.7-29.6zm1.6-1c-.3.2-.6.3-.9.5l16.1 29.8c.1.2.3.3.4.3.1 0 .2 0 .2-.1.2-.1.3-.4.2-.7l-16-29.8zm-4.4 2.4l5.3 27.8c0 .2.3.4.5.4h.1c.3-.1.4-.3.4-.6L33.8 310c-.3.2-.6.4-.9.5zm5.9-3.3c-.3.2-.6.4-.9.5l21.5 29.1c.1.1.2.2.4.2.1 0 .2 0 .3-.1.2-.2.3-.5.1-.7l-21.4-29zM28 312.4l-3.3 21.3c0 .3.1.5.4.6h.1c.2 0 .5-.2.5-.4l3.4-21.8c-.4.1-.7.2-1.1.3zm2.7-.9l.6 25.1c0 .3.2.5.5.5s.5-.2.5-.5l-.6-25.5c-.3.1-.7.2-1 .4zm55.9 1.9l-39.9-12c-.3.3-.6.5-.9.8l40.6 12.2h.1c.2 0 .4-.1.5-.4 0-.2-.2-.5-.4-.6zM78.3 325l-35-20.9-.9.6 35.3 21.1c.1 0 .2.1.3.1.2 0 .3-.1.4-.2.2-.3.1-.6-.1-.7zm4.6-5.5l-38-16.7c-.3.2-.6.5-.9.7l38.5 16.9h.2c.2 0 .4-.1.5-.3 0-.2-.1-.5-.3-.6zm-41.1-14.3l-.9.6 31.4 24.6c.1.1.2.1.3.1.1 0 .3-.1.4-.2.2-.2.1-.5-.1-.7l-31.1-24.4zm-1.5 1l-.9.6 26.7 27.4c.1.1.2.2.4.2.1 0 .3 0 .3-.1.2-.2.2-.5 0-.7l-26.5-27.4z"/></svg>