<svg xmlns="http://www.w3.org/2000/svg" viewBox="0 0 512 512" xml:space="preserve"><style>.st0{fill:#a18267}.st1{opacity:.3}.st2{fill:#444}</style><ellipse class="st0" cx="255.5" cy="351.5" rx="44.5" ry="48.5"/><path class="st0" d="M456.2 333c-1.1 0-2.2-.2-3.3-.7l-78-35c-.8-.4-1.5-.8-2.2-1.4l-36.1-33.4-44.2 19.8c-3 1.3-6.4.7-8.8-1.5l-28.5-27c-3.2-3-3.3-8.1-.3-11.3 3-3.2 8.1-3.3 11.3-.3l24.6 23.3 44.1-19.8c2.9-1.3 6.4-.8 8.7 1.4l39 36.1 76.8 34.5c4 1.8 5.8 6.5 4 10.6-1.1 2.9-4 4.7-7.1 4.7z"/><path class="st0" d="M269.2 240.2c-2 0-3.9-.7-5.5-2.1-3.2-3-3.4-8.1-.4-11.3l48.6-52.1 35.4-39c.4-.4.8-.8 1.3-1.1l63-45c3.6-2.6 8.6-1.7 11.2 1.9 2.6 3.6 1.7 8.6-1.9 11.2L358.6 147l-34.8 38.4s0 .1-.1.1l-48.6 52.2c-1.6 1.6-3.7 2.5-5.9 2.5zM55.8 333c-3.1 0-6-1.8-7.3-4.7-1.8-4 0-8.8 4-10.6l76.8-34.5 39-36.1c2.4-2.2 5.8-2.7 8.7-1.4l44.1 19.8 24.6-23.3c3.2-3 8.3-2.9 11.3.3 3 3.2 2.9 8.3-.3 11.3l-28.5 27c-2.4 2.2-5.8 2.8-8.8 1.5l-44.2-19.8-36.1 33.4c-.6.6-1.4 1.1-2.2 1.4l-78 35c-.9.5-2 .7-3.1.7zm306.4 179c-3.3 0-6.3-2-7.5-5.2l-36-98c-.5-1.4-.6-3-.3-4.5l14.9-66.9-54.8-39.9c-.6-.4-1-.9-1.5-1.4l-18-22c-2.8-3.4-2.3-8.5 1.1-11.3 3.4-2.8 8.5-2.3 11.3 1.1l17.3 21.2 58.2 42.4c2.6 1.9 3.8 5.1 3.1 8.2l-15.5 69.7 35.2 95.8c1.5 4.1-.6 8.7-4.8 10.3-.8.3-1.7.5-2.7.5z"/><path class="st0" d="M149.8 512c-.9 0-1.8-.2-2.8-.5-4.1-1.5-6.3-6.1-4.8-10.3l35.2-95.8-15.4-69.7c-.7-3.1.5-6.3 3.1-8.2l58.2-42.4 17.4-21.2c2.8-3.4 7.8-3.9 11.3-1.1 3.4 2.8 3.9 7.8 1.1 11.3l-18 22c-.4.5-.9 1-1.5 1.4l-54.8 39.9 14.9 66.9c.3 1.5.2 3.1-.3 4.5l-36 98c-1.3 3.2-4.4 5.2-7.6 5.2zm119.4-375c-1.9 0-3.8-.7-5.3-2-3.3-2.9-3.6-8-.6-11.3l40.3-45.2 36.5-74c2-4 6.8-5.6 10.7-3.6 4 2 5.6 6.8 3.6 10.7l-37 75c-.3.6-.7 1.2-1.2 1.8l-41 46c-1.6 1.7-3.8 2.6-6 2.6zm-26.4 0c-2.2 0-4.4-.9-6-2.7l-41-46c-.5-.5-.9-1.1-1.2-1.8l-37-75c-2-4-.3-8.8 3.6-10.7 4-2 8.8-.3 10.7 3.6l36.5 74 40.3 45.2c2.9 3.3 2.6 8.4-.6 11.3-1.5 1.4-3.4 2.1-5.3 2.1zm0 103.2c-2.1 0-4.3-.9-5.9-2.5l-48.6-52.2s0-.1-.1-.1L153.4 147l-62.3-44.5c-3.6-2.6-4.4-7.6-1.9-11.2 2.6-3.6 7.6-4.4 11.2-1.9l63 45c.5.3.9.7 1.3 1.1l35.4 39 48.6 52.1c3 3.2 2.8 8.3-.4 11.3-1.6 1.6-3.6 2.3-5.5 2.3z"/><g class="st1"><path class="st2" d="M263.9 135c1.5 1.4 3.4 2 5.3 2 2.2 0 4.4-.9 6-2.7l11.3-12.7-10.8-11.9-12.4 13.9c-3 3.4-2.7 8.4.6 11.4zm-38.4-13.3 11.3 12.7c1.6 1.8 3.8 2.7 6 2.7 1.9 0 3.8-.7 5.3-2 3.3-2.9 3.6-8 .6-11.3l-12.4-13.9-10.8 11.8z"/></g><g class="st1"><path class="st2" d="M271.9 287.6c4.5-5.7 7.1-13.7 7.1-22.6 0-4.4-.7-8.6-1.9-12.6l-10.8-10.2c-2.9-2.7-7.2-2.9-10.3-.6-3.1-2.3-7.4-2.1-10.3.6l-10.8 10.2c-1.3 3.9-1.9 8.2-1.9 12.6 0 8.9 2.6 16.9 7.1 22.6l-6.3 9.6c.4-.3.8-.7 1.2-1.2l18-22c2.8-3.4 2.3-8.5-1.1-11.3-.9-.7-1.9-1.2-3-1.5l7.1-6.8 7.1 6.8c-1.1.3-2.1.8-3 1.5-3.4 2.8-3.9 7.8-1.1 11.3l18 22 1.2 1.2-6.3-9.6zm15.1-81.4v-4.8l-23.6 25.3c-3 3.2-2.8 8.3.4 11.3 1.5 1.4 3.5 2.1 5.5 2.1 2.1 0 4.3-.9 5.9-2.5l10.2-11c1.1-4.9 1.6-10.2 1.6-15.7v-4.7zm-44.2 34c2 0 3.9-.7 5.5-2.1 3.2-3 3.4-8.1.4-11.3L225 201.4v9.6c0 5.4.6 10.7 1.6 15.6l10.2 11c1.7 1.7 3.8 2.6 6 2.6z"/></g><path class="st0" d="m289.8 137.1-21.6-23.7c-6.5-7.2-17.8-7.2-24.4 0l-21.6 23.7c-4 4.4-6.2 10.2-6.2 16.1V168c0 6.6 5.4 12 12 12h56c6.6 0 12-5.4 12-12v-14.7c0-6-2.2-11.7-6.2-16.2z"/><path d="M219.5 380c8.1 12.1 21.2 20 36 20s27.9-7.9 36-20h-72z" opacity=".75" fill="#444"/><path d="M222 158h-2c-2.8 0-5-2.2-5-5v-8c0-2.8 2.2-5 5-5h2c2.8 0 5 2.2 5 5v8c0 2.8-2.2 5-5 5zm70 0h-2c-2.8 0-5-2.2-5-5v-8c0-2.8 2.2-5 5-5h2c2.8 0 5 2.2 5 5v8c0 2.8-2.2 5-5 5z" fill="#36434f"/><path d="M213.6 335c-1.7 5-2.6 10.4-2.6 16h89c-.1-5.6-1-11-2.6-16h-83.8zm75.7 48c3.7-4.7 6.5-10.1 8.3-16h-84.3c1.8 5.9 4.7 11.3 8.3 16h67.7z" fill="#736356"/><ellipse class="st0" cx="256" cy="265" rx="15" ry="23"/><path class="st0" d="M279 211c0 22.1-10.3 40-23 40s-23-17.9-23-40-2.2-32 23-32 23 9.9 23 32zm-19 73h-8l-19 29h46z"/><path d="M149.8 512c-.9 0-1.8-.2-2.8-.5-4.1-1.5-6.3-6.1-4.8-10.3l35.2-95.8-15.4-69.7c-.7-3.1.5-6.3 3.1-8.2l58.2-42.4 2.1-2.6c-1.9.6-4 .6-5.8-.3l-44.2-19.8-36.1 33.4c-.6.6-1.4 1.1-2.2 1.4l-78 35c-1.1.5-2.2.7-3.3.7-3.1 0-6-1.8-7.3-4.7-1.8-4 0-8.8 4-10.6l76.8-34.5 39-36.1c2.4-2.2 5.8-2.7 8.7-1.4l44.1 19.8 13.8-13.1 8.5-8c-1.2-1.4-2.3-3-3.4-4.7-1.1-.4-2.2-1.1-3.1-2l-48.6-52.2s0-.1-.1-.1L153.4 147l-62.3-44.5c-3.6-2.6-4.4-7.6-1.9-11.2 2.6-3.6 7.6-4.4 11.2-1.9l63 45c.5.3.9.7 1.3 1.1l35.4 39 24.9 26.8 8 8.6c0-17.4-1.2-27 11.7-30H228c-6.6 0-12-5.4-12-12V156c-.6-.8-1-1.9-1-3v-8c0-2.8 2.2-5 5-5 .7-1 1.4-2 2.2-2.9l8.6-9.5-35.1-39.3c-.5-.5-.9-1.1-1.2-1.8l-37-75c-2-4-.3-8.8 3.6-10.7 4-2 8.8-.3 10.7 3.6l36.5 74 33.2 37.3 2.1-2.4c3.3-3.6 7.7-5.4 12.2-5.4v292h-.5c-.9 0-1.7 0-2.6-.1-.3 0-.5 0-.8-.1-.6 0-1.2-.1-1.7-.2-.3 0-.6-.1-.9-.1-.6-.1-1.1-.2-1.6-.3-.3-.1-.6-.1-.8-.2-.6-.1-1.2-.3-1.8-.4-.2-.1-.4-.1-.6-.2-1.6-.4-3.2-1-4.7-1.6-.2-.1-.3-.1-.5-.2-.6-.3-1.2-.5-1.8-.8l-.6-.3c-.6-.3-1.2-.6-1.7-.9-.2-.1-.3-.2-.5-.3-.7-.4-1.3-.8-2-1.2l-.1-.1c-1.5-.9-2.9-2-4.2-3.1l-.1-.1c-.6-.5-1.2-1-1.8-1.6l-.2-.2c-.6-.5-1.1-1.1-1.7-1.7l-.1-.1c-1-1-1.9-2.1-2.8-3.3-.5-.6-.9-1.2-1.3-1.8-.3-.4-.6-.8-.8-1.2-.1-.2-.3-.4-.4-.6-.4-.6-.8-1.3-1.2-1.9-.4-.6-.7-1.3-1.1-2-.3-.7-.7-1.3-1-2-1-2.1-1.8-4.2-2.5-6.4-1.5-4.9-2.3-10.1-2.3-15.5v-.5c0-2 .1-3.9.4-5.8 0-.2 0-.3.1-.5.1-.5.1-1 .2-1.5 0-.2.1-.5.1-.7.1-.5.2-.9.3-1.4.1-.3.1-.6.2-.8.1-.4.2-.9.3-1.3.1-.3.2-.6.2-.9.2-.9.5-1.9.8-2.8 0-.1.1-.2.1-.3 4-12.1 12.3-21.9 22.8-27.4l14-21.3c-1.6-1-3-2.3-4.3-4L235 296.1l-.6.6c-.3.3-.6.5-.9.8l-54.8 39.9 14.9 66.9c.3 1.5.2 3.1-.3 4.5l-36 98c-1.2 3.2-4.3 5.2-7.5 5.2z" opacity=".15" fill="#444"/></svg>