<svg version="1.1" xmlns="http://www.w3.org/2000/svg" x="0" y="0" viewBox="0 0 512 512" xml:space="preserve"><style type="text/css">.st3{fill:#36434f}.st4{fill:#f4f4f4}.st5{fill:#e0ac7e}</style><path d="M256 0C160.2 0 82.5 77.7 82.5 173.5l62.7 272.6c3.6 15.6 12.8 29.3 26 38.3 18.4 12.7 48 27.5 84.8 27.5s66.4-14.9 84.8-27.5c13.2-9 22.4-22.7 26-38.3l62.7-272.6C429.5 77.7 351.8 0 256 0z" fill="#ddd"/><path d="m370.6 429.5 29.8-129.3L329 244zm-229.2 0L183 244l-71.4 56.2z" fill="#444" opacity=".15"/><path class="st3" d="m82.5 173.5 38.1 165.4c64.9-47.8 106.9-124.7 106.9-211.4 0-42.5-10.1-82.6-28-118.1-68.1 23.5-117 88.1-117 164.1zm230-164.1c-17.9 35.5-28 75.6-28 118.1 0 86.7 42.1 163.7 106.9 211.4l38.1-165.4c0-76-48.9-140.6-117-164.1zm8 401.6c0-24.3-28.9-44-64.5-44s-64.5 19.7-64.5 44c0 13.5 8.9 25.6 22.9 33.6 3 12.1 20.4 21.4 41.6 21.4s38.6-9.3 41.6-21.4c14-8 22.9-20.1 22.9-33.6zM256 486c6.6 0 13-.6 19.2-1.9-5.2-4.4-11.9-7.1-19.2-7.1s-14.1 2.7-19.2 7.1c6.2 1.3 12.6 1.9 19.2 1.9z"/><path class="st4" d="M319.5 196.7c0 6.3 1.1 12.4 3.1 18.1 8.9 6.4 19.9 10.2 31.7 10.2 30 0 54.3-24.3 54.3-54.3 0-6.3-1.1-12.4-3.1-18.1-8.9-6.4-19.9-10.2-31.7-10.2-30 .1-54.3 24.4-54.3 54.3z"/><ellipse class="st3" cx="363" cy="184" rx="29" ry="43"/><path class="st4" d="M352.2 184.1h-.5c-2.2-.3-3.8-2.3-3.5-4.4.6-5.2 2.5-10.3 5.5-14.6 1.3-1.8 3.7-2.3 5.6-1 1.8 1.3 2.3 3.8 1 5.6-2.3 3.3-3.7 7.1-4.2 11-.2 1.9-1.9 3.4-3.9 3.4zm-159.7 12.6c0 6.3-1.1 12.4-3.1 18.1-8.9 6.4-19.9 10.2-31.7 10.2-30 0-54.3-24.3-54.3-54.3 0-6.3 1.1-12.4 3.1-18.1 8.9-6.4 19.9-10.2 31.7-10.2 30 .1 54.3 24.4 54.3 54.3z"/><ellipse class="st3" cx="149" cy="184" rx="29" ry="43"/><path class="st4" d="M159.8 184.1c-2 0-3.7-1.5-4-3.5-.5-3.9-1.9-7.7-4.2-11-1.3-1.8-.8-4.3 1-5.6 1.8-1.3 4.3-.8 5.6 1 3 4.3 4.9 9.4 5.5 14.6.3 2.2-1.3 4.2-3.5 4.4-.1.1-.2.1-.4.1z"/><path class="st3" d="M462.4 101.6c-14.8-27.3-40.6-46.9-71-53.3-.2 0-.3-.1-.5-.1C377.7 45.4 364 44 350 44c-6.7 0-13.4.3-20 1v1.5c0 22.1 9.4 42 24.3 55.9 18.4 2.9 35.6 10 50.8 20.5h1.4c4 0 7.9-.3 11.8-.9 1.3 4.8 2.5 9.7 3.6 14.6C449.5 163.5 467 203 467 247c0 51.4-23.9 96.7-59.9 122.7-4.7 12.8-9.9 25.2-15.8 37.4-5.4 11.2-7.5 23.7-5.9 35.8.5 3.9 1.4 7.7 2.6 11.5 8.6 25.7 27.3 43.6 49 43.6h1.5c14.4-.6 27.3-9.4 33.5-22.4 7.2-15.1 13.5-30.6 18.8-46.6 6.1-18.2 10.9-37 14.4-56.2 4.4-24.2 6.7-49.2 6.7-74.7.1-71.2-17.9-138.1-49.5-196.5z"/><path class="st5" d="M467 247c0-44-17.5-83.5-45.1-110.3 6.6 29.4 10.1 59.9 10.1 91.3 0 45-7.2 88.3-20.5 128.9-1.4 4.3-2.9 8.6-4.4 12.8 36-26 59.9-71.3 59.9-122.7z"/><path class="st3" d="M49.6 101.6c14.8-27.3 40.6-46.9 71-53.3.2 0 .3-.1.5-.1C134.3 45.4 148 44 162 44c6.7 0 13.4.3 20 1v1.5c0 22.1-9.4 42-24.3 55.9-18.4 2.9-35.6 10-50.8 20.5h-1.4c-4 0-7.9-.3-11.8-.9-1.3 4.8-2.5 9.7-3.6 14.6C62.5 163.5 45 203 45 247c0 51.4 23.9 96.7 59.9 122.7 4.7 12.8 9.9 25.2 15.8 37.4 5.4 11.2 7.5 23.7 5.9 35.8-.5 3.9-1.4 7.7-2.6 11.5-8.6 25.7-27.3 43.6-49 43.6h-1.5c-14.4-.6-27.3-9.4-33.5-22.4-7.2-15.1-13.5-30.6-18.8-46.6-6.1-18.2-10.9-37-14.4-56.2C2.3 348.4 0 323.5 0 298c0-71.1 18-138 49.6-196.4z"/><path class="st5" d="M45 247c0-44 17.5-83.5 45.1-110.3C83.5 166.1 80 196.6 80 228c0 45 7.2 88.3 20.5 128.9 1.4 4.3 2.9 8.6 4.4 12.8-36-26-59.9-71.3-59.9-122.7zm341.9-119.1c-6.1 3.5-14.1 2.7-19.3-2.6-4.8-4.8-10.1-9.2-15.7-12.9-7.3-4.9-9.3-14.9-4.3-22.2 4.9-7.3 14.9-9.3 22.2-4.3 7.4 5 14.3 10.7 20.5 16.9 6.2 6.3 6.2 16.4-.1 22.6-1 1-2.1 1.9-3.3 2.5zm-251.8 0c-1.2-.7-2.3-1.5-3.3-2.5-6.3-6.2-6.3-16.4-.1-22.6 6.3-6.3 13.2-12 20.5-16.9 7.3-4.9 17.3-3 22.2 4.3 4.9 7.3 3 17.3-4.3 22.2-5.6 3.8-10.9 8.1-15.7 12.9-5.2 5.3-13.2 6.2-19.3 2.6z"/></svg>