<svg xmlns="http://www.w3.org/2000/svg" viewBox="0 0 512 512" xml:space="preserve"><style>.st0{fill:#cc584c}.st2{fill:#ddd}.st4{fill:#f4f4f4}</style><path class="st0" d="M372.7 351.3c5.5.3 10.8.7 16.2 1.2 5.4.5 10.7 1.1 16.1 1.8 10.7 1.4 21.3 3.1 31.9 5.4s21.1 5.1 31.5 9c5.2 2 10.3 4.2 15.3 6.9s9.9 5.8 14.4 9.8 8.6 8.9 11.2 15c1.3 3 2.1 6.3 2.5 9.6.4 3.3.2 6.6-.3 9.7-.5 3.1-1.5 6.4-2.8 9.3-1.3 3-3.2 5.7-5.2 8.2-4.2 4.9-9.2 8.6-14.4 11.4-10.5 5.6-21.6 8.4-32.5 10.1-11 1.6-22 2.2-33 2-10.9-.2-21.8-1.2-32.6-2.7-10.8-1.6-21.4-3.8-31.9-6.4s-20.8-5.7-31-8.9c-10.2-3.3-20.3-6.7-30.3-10.1-5-1.7-10-3.4-14.9-5-5-1.6-9.9-3.1-14.7-4.2-1.2-.2-2.3-.5-3.5-.7l-3.8-.6c-2.5-.4-5-.8-7.6-1.1-5.1-.7-10.1-1-15.3-1.3-10.2-.5-20.6-.3-31 .4l-3.9.3-3.9.4c-2.6.2-5.2.6-7.8.9-5.2.7-10.4 1.5-15.6 2.5-.4.1-.7-.2-.8-.5s.1-.6.3-.7c4.7-2.7 9.7-4.8 14.8-6.7 5.1-1.8 10.3-3.5 15.6-4.8 10.6-2.6 21.4-4.2 32.4-4.7 2.7-.1 5.5-.1 8.2-.1h2.1l2.1.1 4.1.2c2.8.1 5.5.4 8.2.7l4.1.5c1.4.2 2.8.5 4.3.8 5.6 1.1 10.9 2.6 16.1 4.1s10.3 3.1 15.4 4.7c10.1 3.3 20.2 6.6 30.2 9.7s20.1 6.2 30.1 8.7c10.1 2.6 20.2 4.9 30.3 6.6 10.2 1.7 20.4 2.8 30.7 3.2 10.3.4 20.5.1 30.5-1.2 9.9-1.4 19.8-3.8 28.1-8.2 4.2-2.2 7.7-4.9 10.5-8.1 2.7-3.3 4.5-6.9 5.1-11 .7-4.2.3-8.2-1.3-11.9-1.5-3.7-4.3-7.2-7.7-10.2-3.4-3-7.5-5.7-11.8-8s-9-4.3-13.7-6.1c-9.5-3.6-19.5-6.3-29.6-8.5s-20.4-3.9-30.8-5.2c-5.2-.7-10.4-1.2-15.6-1.7s-10.5-.9-15.5-1.1h-.1c-3.7-.2-6.6-3.3-6.4-7 .2-3.8 3.3-6.7 7-6.5z"/><circle cx="135.7" cy="125.2" r="57.7" fill="#999"/><path class="st2" d="M113.4 186.5c-5.9 12.1-9.3 25.7-9.3 40.1 0 50.6 40.9 91.4 91.4 91.4 38.2 0 70.9-23.4 84.6-56.6l-166.7-74.9z"/><path class="st2" d="M421.9 196.6c2.3 8.1 3.8 16.5 4.4 25.1v.9c.3 3.1.3 6.2.3 9.4 0 69.2-52.8 126.1-120.5 132.6-4.2.4-8.3.5-12.6.5-73.5 0-133.1-59.6-133.1-133.1S220 98.9 293.5 98.9c61.3 0 113 41.3 128.4 97.7z"/><path class="st2" d="M293.7 365.2H367l74.5-98-19.5-70.6-128.3 168.6zM151.6 250.5C109.7 286.6 39.4 313.9 19 290.3-1.4 266.6 35.8 201 77.6 165s72.5-29.2 92.9-5.5 23 54.8-18.9 91z"/><circle class="st0" cx="18.1" cy="281.8" r="13.4"/><path class="st2" d="M441.4 267.1c1.3 4.7 2.2 9.5 2.6 14.7v.5c.1 1.7.1 3.6.1 5.5 0 40.2-30.7 73.3-69.9 76.9-2.4.3-4.8.4-7.4.4-42.8 0-77.3-34.6-77.3-77.3 0-42.8 34.6-77.3 77.3-77.3 35.6 0 65.6 24 74.6 56.6z"/><circle cx="165.3" cy="114.4" r="63.2" fill="#bbb"/><path class="st2" d="M194.8 346.3h125v18.8h-125c-5.2 0-9.4-4.2-9.4-9.4s4.3-9.4 9.4-9.4zm-78.9-27.1L231.7 272l7.1 17.5L123 336.7c-4.8 2-10.4-.4-12.2-5.1-2-4.9.3-10.4 5.1-12.4zm-37.6-13.5L194 258.5l7.1 17.5-115.7 47.2c-4.8 2-10.4-.4-12.2-5.1-2-4.8.2-10.4 5.1-12.4z"/><circle class="st4" cx="94" cy="213.3" r="27.3"/><circle cx="94" cy="213.3" r="11.9" fill="#36434f"/><circle class="st4" cx="89.7" cy="209.5" r="3.8"/></svg>