<svg version="1.1" xmlns="http://www.w3.org/2000/svg" x="0" y="0" viewBox="0 0 512 512" xml:space="preserve"><style type="text/css">.st3{fill:#f4f4f4}.st4{fill:#36434f}</style><ellipse cx="256" cy="256" rx="256" ry="213" fill="#ddd"/><path d="M88 12.7C54.5 31.3 36.5 64.3 43.8 90.6c1.4 4.9 4 9.3 7.5 12.9l25.3 26.7c5 5.3 13 6.5 19.4 3l45-24.9 45-24.9c6.4-3.5 9.6-10.9 7.7-18l-9.2-35.6c-1.3-4.9-3.6-9.4-7-13.2-18.4-20.2-56-22.5-89.5-3.9zm336 0c33.5 18.6 51.5 51.7 44.1 77.9-1.4 4.9-4 9.3-7.5 12.9l-25.3 26.7c-5 5.3-13 6.5-19.4 3l-45-24.9-45-24.9c-6.4-3.5-9.6-10.9-7.7-18l9.2-35.6c1.3-4.9 3.6-9.4 7-13.2 18.5-20.2 56.1-22.5 89.6-3.9z" fill="#bbb"/><circle class="st3" cx="173" cy="278.5" r="33"/><circle class="st4" cx="173" cy="278.5" r="14.4"/><circle class="st3" cx="167.8" cy="273.9" r="4.6"/><circle class="st3" cx="339" cy="278.5" r="33"/><circle class="st4" cx="339" cy="278.5" r="14.4"/><circle class="st3" cx="333.7" cy="273.9" r="4.6"/><path class="st3" d="m334.5 369-61.4-105.7c-3.1-5.4-8.9-8.7-15.2-8.7h-4c-6.2 0-12 3.3-15.2 8.7L177.5 369c-12.4 21.4-12.7 47.8-.6 69.4l15.8 28.3c2.6 7.8 6.7 14.9 11.8 21.1 2.3 2.8 4.8 5.4 7.6 7.7 11.7 10.2 27.1 16.4 43.9 16.4s32.1-6.2 43.9-16.4c2.7-2.4 5.3-5 7.6-7.7 5.1-6.2 9.2-13.4 11.8-21.1l15.8-28.3c12.1-21.6 11.9-48-.6-69.4z"/><path class="st4" d="M205.8 423.5c-7.3 0-12 7.7-8.7 14.1 11.1 21.3 33.3 35.8 58.9 35.8s47.9-14.5 58.9-35.8c3.3-6.4-1.5-14.1-8.7-14.1H205.8z"/></svg>