<svg version="1.1" xmlns="http://www.w3.org/2000/svg" x="0" y="0" viewBox="0 0 512 512" xml:space="preserve"><path d="M398.5.1S358-3.8 305.2 34.7L302 63.9l-1.5-25.7C278 55.5 253.4 80.6 229 116.9c-12.8 19.1-24 38.9-33.7 58.9l4.7 32.1-8.6-23.8c-17.4 37.4-29.8 75-38.7 108.4l13.3 27.3-15.6-18.6c-2.5 9.9-4.7 19.4-6.6 28.4l14.2 14.2-14.5-12.6c-3.9 18.5-6.6 34.6-8.4 47.3 7.2 7.8 20.9 25.2 20.9 25.2l-22.1-16.6c-.6 4.5-1 8.4-1.4 11.6-.7 6.3 2.4 12.4 7.9 15.6l24.5 14.1 61.5-34.8c1.9-1.1 3.3-3 3.9-5.1.3-1.4.8-3.3 1.3-5.5L180 396.9l53.1-19.7c1.1-4.5 2.5-9.9 4.2-16.2L199 376.9l39.2-19.2c2-7.2 4.3-15.4 6.9-24.4L202 346.9l46.6-25.3c2.9-9.5 6.1-19.8 9.7-30.7l-34.3 10 35.6-14.1c4.5-13.6 9.5-28.2 15.1-43.5l-24.7 5.6 25.6-7.9c.3-.8.6-1.6.9-2.3l-26.4 8.3 27.2-10.4c1.4-3.8 2.8-7.5 4.3-11.4 6.5-17.1 14.5-35.5 23.3-54L254 188.9l53.9-24.3c24-50 52.7-100.6 71.2-132.2L366 29.9l15.5-1.5c10.3-17.6 17-28.3 17-28.3z" fill="#a18267"/><path d="M388.2 6.5c-5.4 2.7-10.7 5.7-15.8 8.9-5.2 3.2-10.2 6.5-15.2 10-10 6.9-19.5 14.4-28.7 22.2-18.4 15.7-35.2 33.3-50.4 52.1-7.5 9.4-14.6 19.2-21.3 29.3-6.6 10.1-12.8 20.5-18.5 31.1-11.3 21.3-20.5 43.7-28.3 66.5-7.8 22.9-14.3 46.2-19.6 69.8l-2 8.8-1.9 8.9c-.6 3-1.2 5.9-1.8 8.9l-1.7 8.9c-2.2 11.9-4.2 23.8-6 35.8s-3.4 24-4.7 36c-1.4 12-2.6 24.1-3.6 36.1-1.1 12-2.1 24.1-2.9 36.2-.8 11.1-1.6 22.3-2.1 33.3-.1 1.6-1.4 2.8-3 2.8h-1.2c-1.6 0-3-1.3-3-2.9-.4-23.5.8-46.9 2.8-70.2 1.1-12.1 2.4-24.3 4-36.4 1.5-12.1 3.3-24.2 5.2-36.2s4.1-24 6.5-36l1.9-9c.6-3 1.2-6 1.9-8.9l2-8.9 2.1-8.9c5.7-23.7 12.6-47.2 20.7-70.2s18-45.5 29.8-67c6-10.7 12.4-21.1 19.3-31.2 7-10.1 14.3-19.8 22.1-29.2 15.6-18.8 33.1-36 51.9-51.4 9.4-7.7 19.2-15 29.4-21.7 5.1-3.4 10.3-6.6 15.5-9.6 5.3-3 10.6-6 16.2-8.5l.4.6z" fill="#bbb"/></svg>