<svg xmlns="http://www.w3.org/2000/svg" viewBox="0 0 512 512" style="enable-background:new 0 0 512 512" xml:space="preserve"><style>.st0{fill:#ddd}.st1{fill:#dbbdbd}.st2{fill:#e9e9e9}.st3{fill:#36434f}.st4{fill:#f4f4f4}</style><path class="st0" d="m180.2 158.4-38.7-76.8C128.1 53.7 97.9 38 67.3 43.1l-16.2 2.7C26.8 49.9 7.6 68.7 3 92.9c-4.3 22.6-4 45.9.9 68.4L9 184.6c5.8 26.8 29.6 46 57.1 46h101.2l12.9-72.2z"/><path class="st1" d="M78.8 61.4c19.2 0 37 11.2 45.4 28.6l.1.2.1.2 35.8 71-9 50H66.1c-8.9 0-17.6-3.1-24.6-8.7-6.9-5.6-11.8-13.5-13.7-22.2l-5.1-23.4c-4.4-20.1-4.7-40.5-.8-60.7C25 80.2 38 67.5 54.2 64.8l16.2-2.7c2.8-.4 5.6-.7 8.4-.7"/><path class="st0" d="m331.8 158.4 38.7-76.8c13.4-27.9 43.6-43.6 74.2-38.5l16.2 2.7c24.3 4.1 43.5 22.8 48.1 47 4.3 22.6 4 45.9-.9 68.4l-5.1 23.4c-5.8 26.8-29.6 46-57.1 46H344.7l-12.9-72.2z"/><path class="st1" d="M433.2 61.4c2.8 0 5.6.2 8.3.7l16.2 2.7C474 67.5 487 80.2 490 96.4c3.8 20.2 3.5 40.6-.8 60.7l-5.1 23.4c-1.9 8.7-6.8 16.6-13.7 22.2-6.9 5.6-15.7 8.7-24.6 8.7h-85.1l-9-50 35.8-71 .1-.2.1-.2c8.5-17.4 26.3-28.6 45.5-28.6"/><path class="st0" d="M388.9 154.1c308.4 429.3-568.2 413.6-269.5-3.6 79.8-74.7 190-71 269.5 3.6z"/><path class="st2" d="M120 428.9c75.1 52.4 199.2 54.8 273.7 5.3-17.1-59.9-72.3-103.7-137.6-103.7-63.6-.1-117.3 41.2-136.1 98.4z"/><circle class="st2" cx="165.2" cy="275.7" r="29.5"/><circle class="st3" cx="165.2" cy="275.7" r="16.2"/><circle class="st4" cx="159.2" cy="270.5" r="5.2"/><circle class="st2" cx="346.8" cy="275.7" r="29.5"/><circle class="st3" cx="346.8" cy="275.7" r="16.2"/><circle class="st4" cx="340.8" cy="270.5" r="5.2"/><path class="st1" d="M276.3 326.7c-7.3 0-14.2 1.8-20.3 5-6-3.2-12.9-5-20.3-5-23.8 0-43.2 19.3-43.2 43.2 0 23.8 19.3 43.2 43.2 43.2 7.3 0 14.2-1.8 20.3-5 6 3.2 12.9 5 20.3 5 23.8 0 43.2-19.3 43.2-43.2-.1-23.9-19.4-43.2-43.2-43.2z"/><path class="st3" d="M238.4 415.9c-1.6 0-3.1-.8-4-2.2-1.4-2.2-.8-5.2 1.4-6.7 6-3.9 13-6 20.2-6 7.2 0 14.2 2.1 20.2 6 2.2 1.4 2.9 4.4 1.4 6.7-1.4 2.2-4.4 2.9-6.7 1.4-4.5-2.9-9.6-4.4-15-4.4-5.3 0-10.5 1.5-15 4.4-.7.5-1.6.8-2.5.8z"/><path class="st3" d="m308.4 338.5-14-54.1c-4.4-17.1-19.9-29.7-38.4-29.7s-34 12.6-38.4 29.7l-14 54.1c-1.1 4.3-1.7 8.9-1.7 13.6 0 29.9 24.2 54.1 54.1 54.1s54.1-24.2 54.1-54.1c0-4.7-.6-9.3-1.7-13.6z"/><path d="M256 96.4c-32.5-.9-65 6.8-95.1 23.6l-19.4-38.4C128.1 53.7 97.9 38 67.3 43.1l-16.2 2.7C26.8 49.9 7.6 68.7 3 92.9c-4.3 22.6-4 45.9.9 68.4L9 184.6c5.8 26.8 29.6 46 57.1 46h7.7c-40.7 99-5.6 167.7 57.1 205.3 6.2 3.7 12.7 7.1 19.4 10.3 10.7 5 22 9.2 33.7 12.6 7.3 2.1 14.7 3.9 22.2 5.5h.1c7.5 1.5 15.1 2.7 22.8 3.6h.2c4.6.5 9.2 1 13.8 1.3h.1c3.1.2 6.1.4 9.2.5h.2c1.2 0 2.3.1 3.5.1V96.4z" style="opacity:.15;fill:#444"/></svg>