<svg xmlns="http://www.w3.org/2000/svg" viewBox="0 0 512 512" xml:space="preserve"><path d="M256 0C171 0 54 165.9 54 296.5c0 70.2 26.1 116 67.7 143.2 17.9 11.7 39 17 60.4 16.2 26.4-1 49.8 10.7 58.6 31.8 3.2 7.8 4.9 16 5 24.3h20.6c.1-8.2 1.7-16.5 5-24.3 8.8-21.1 32.2-32.8 58.6-31.8 21.4.8 42.5-4.5 60.4-16.2 41.5-27.3 67.7-73 67.7-143.2C458 165.9 341 0 256 0z" fill="#35965f"/><path d="M434.2 191.4c-.1-2.9-.3-5.8-.5-8.7-.8-2-1.6-3.9-2.4-5.8.6 13.3-.1 26.6-1.4 39.8-1.7 16.8-4.9 33.4-9.1 49.6-2.1 8.1-4.6 16.2-7.3 24.1-2.7 7.9-5.8 15.8-9.1 23.5-6.5 15.1-16.1 28.8-27.2 41.2-11.1 12.4-23.7 23.6-36.5 34.5-12.9 10.9-26.1 21.6-38.9 33.1-6.4 5.7-12.6 11.7-18.6 18.1-.8.9-1.6 1.7-2.4 2.6 9.1-15.2 20.4-29.2 31.8-43.4 6.8-8.4 13.6-16.9 20.2-25.6 6.5-8.7 12.8-17.8 18.4-27.2 5.7-9.4 10.8-19.2 15.2-29.3 2.2-5.1 4.2-10.2 6-15.4 1.8-5.2 3.5-10.5 4.9-15.8 2.9-10.6 5.1-21.4 6.5-32.3 1.5-10.8 2.4-21.7 2.9-32.6.9-21.8-.3-43.7-3.4-65.3-3.3-21.5-8.6-42.7-15.8-63.3-3.6-10.3-7.7-20.3-12.4-30.1-2-4.3-4.2-8.6-6.4-12.8-1.3-1.4-2.7-2.7-4-4 .5 1 1 2.1 1.6 3.1 2.4 4.8 4.6 9.7 6.7 14.7 4.2 9.9 7.8 20 11.1 30.3 6.5 20.5 11 41.6 13.6 62.9 2.6 21.3 3.3 42.8 1.9 64.1-.7 10.7-1.8 21.3-3.5 31.9-1.6 10.5-3.8 20.9-6.8 31.1-5.8 20.4-14.7 39.8-25.9 57.9S318.7 377 305 393.7c-6.8 8.4-13.7 16.8-20.2 25.6-4.6 6.2-9 12.6-13 19.4 2.2-6.6 4.6-13.2 7.3-19.7 4.1-9.9 8.5-19.8 12.6-29.9 4.2-10.1 8-20.4 11.4-30.8 3.4-10.4 6.2-21.1 8.6-31.7 4.9-21.4 7.9-43 10-64.7.3-2.7.6-5.4.8-8.1l.6-8.1c.5-5.4.7-10.9 1.1-16.3.1-2.7.3-5.4.4-8.1l.3-8.1.5-16.3c.1-2.7.2-5.4.2-8.1l.1-8.1.1-16.3v-4.1l-.1-4.1-.2-8.1c-.1-5.4-.1-10.9-.4-16.3-.6-10.9-1-21.7-2.1-32.5l-.7-8.1-.9-8.1c-.7-5.4-1.2-10.8-2.2-16.2l-1.3-8.1c-.2-1.3-.5-2.7-.8-4l-.8-4-.8-4c-.3-1.3-.5-2.7-.9-4l-2.1-7.9c-1.5-5.2-3.2-10.4-5.3-15.5-.4-1.1-.9-2.2-1.4-3.3l-3.6-2.1c.4.9.7 1.8 1.1 2.7.5 1.2 1.1 2.4 1.5 3.7 1.8 5 3.3 10.2 4.6 15.4l1.8 7.9c.3 1.3.5 2.6.8 4l.7 4 .7 4c.2 1.3.5 2.6.6 4l1.1 8c.8 5.3 1.2 10.7 1.7 16.1.2 2.7.5 5.4.7 8l.5 8.1c.8 10.7.8 21.5 1.2 32.3.1 5.4 0 10.8 0 16.2v12.1l-.1 4-.4 16.2-.2 8.1c-.1 2.7-.3 5.4-.4 8.1l-.8 16.2-.4 8.1c-.1 2.7-.4 5.4-.5 8.1-.4 5.4-.7 10.7-1.2 16.1l-.7 8c-.2 2.7-.6 5.3-.9 8-2.4 21.4-5.6 42.6-10.6 63.4-2.5 10.4-5.4 20.7-8.7 30.8-3.4 10.1-7.2 20.1-11.3 30-4.2 9.9-8.6 19.7-12.8 29.8-3.5 8.3-6.7 16.9-9.3 25.7v-56.9c.1-21.3-.1-42.7-.2-64l-.2-64-.5-64c-.2-21.3-.3-42.7-.6-64l-.8-64c-.4-21.3-.6-42.7-1.1-64h-2c-.5 21.3-.7 42.7-1.1 64l-.8 64c-.3 21.3-.4 42.7-.6 64l-.5 64-.2 64c-.1 21.3-.2 42.7-.2 64v56.9c-2.6-8.8-5.8-17.4-9.3-25.7-4.2-10.1-8.7-19.9-12.8-29.8-4.2-9.9-8-19.9-11.3-30-3.3-10.1-6.2-20.4-8.7-30.8-5-20.8-8.3-42.1-10.6-63.4-.3-2.7-.6-5.3-.9-8l-.7-8c-.5-5.4-.9-10.7-1.2-16.1-.2-2.7-.4-5.4-.5-8.1l-.4-8.1-.8-16.2c-.1-2.7-.3-5.4-.4-8.1l-.2-8.1-.4-16.2-.1-4v-12.1c0-5.4-.1-10.8 0-16.2.3-10.8.4-21.6 1.2-32.3l.5-8.1c.2-2.7.5-5.4.7-8 .5-5.4.9-10.7 1.7-16.1l1.1-8c.2-1.3.4-2.7.6-4l.7-4 .7-4c.2-1.3.4-2.7.8-4l1.8-7.9c1.3-5.2 2.8-10.4 4.6-15.4.4-1.3 1-2.5 1.5-3.7.4-.9.7-1.8 1.1-2.7l-3.6 2.1c-.5 1.1-1 2.2-1.4 3.3-2.1 5.1-3.7 10.3-5.3 15.5l-2.1 7.9c-.4 1.3-.6 2.7-.9 4l-.8 4-.8 4c-.3 1.3-.6 2.7-.8 4l-1.3 8.1c-1 5.4-1.5 10.8-2.2 16.2-.3 2.7-.7 5.4-.9 8.1l-.7 8.1c-1.1 10.8-1.5 21.7-2.1 32.5-.2 5.4-.2 10.9-.4 16.3l-.2 8.1-.1 4.1v4.1l.1 16.3.1 8.1c0 2.7.2 5.4.2 8.1l.5 16.3.3 8.1c.1 2.7.3 5.4.4 8.1.3 5.4.6 10.9 1.1 16.3l.6 8.1c.2 2.7.5 5.4.8 8.1 2.1 21.7 5.2 43.3 10 64.7 2.4 10.7 5.2 21.3 8.6 31.7 3.4 10.4 7.2 20.7 11.4 30.8 4.2 10.1 8.6 20 12.6 29.9 2.7 6.5 5.1 13.1 7.3 19.7-4-6.7-8.4-13.1-13-19.4-6.5-8.8-13.4-17.3-20.2-25.6-13.7-16.7-27.1-33.4-38.4-51.4-11.2-18-20.1-37.4-25.9-57.9-2.9-10.2-5.2-20.6-6.8-31.1-1.7-10.6-2.8-21.2-3.5-31.9-1.4-21.3-.7-42.8 1.9-64.1 2.6-21.3 7.1-42.4 13.6-62.9 3.2-10.2 6.9-20.4 11.1-30.3 2.1-5 4.3-9.9 6.7-14.7.5-1 1-2.1 1.6-3.1-1.3 1.3-2.7 2.6-4 4-2.3 4.2-4.4 8.5-6.4 12.8-4.6 9.8-8.8 19.9-12.4 30.1-7.2 20.5-12.5 41.7-15.8 63.3-3.2 21.6-4.3 43.4-3.4 65.3.5 10.9 1.4 21.8 2.9 32.6 1.4 10.9 3.7 21.7 6.5 32.3 1.5 5.3 3.1 10.6 4.9 15.8 1.8 5.2 3.9 10.3 6 15.4 4.4 10.1 9.5 19.9 15.2 29.3 5.7 9.4 11.9 18.5 18.4 27.2 6.6 8.7 13.4 17.2 20.2 25.6 11.4 14.1 22.7 28.2 31.8 43.4-.8-.9-1.6-1.7-2.4-2.6-5.9-6.4-12.2-12.3-18.6-18.1-12.8-11.5-26-22.1-38.9-33.1-12.9-10.9-25.4-22.1-36.5-34.5-11.1-12.4-20.7-26.1-27.2-41.2-3.3-7.7-6.3-15.5-9.1-23.5-2.7-8-5.2-16-7.3-24.1-4.2-16.3-7.4-32.9-9.1-49.6-1.3-13.2-2-26.5-1.4-39.8-.8 1.9-1.6 3.9-2.4 5.8-.2 2.9-.4 5.8-.5 8.7-.2 4.3-.3 8.5-.3 12.8.1 4.3.2 8.5.4 12.8.9 17.1 3.2 34.1 7 50.8 1.9 8.4 4.1 16.7 6.6 24.9 2.6 8.2 5.4 16.3 8.6 24.3 6.6 16.3 16.6 30.9 27.9 43.9 11.4 13.1 24 24.8 36.9 36 12.9 11.2 26.1 21.9 38.5 33.2 12.4 11.3 24.1 23.2 33.1 36.8 4.4 6.8 8.1 14 10.6 21.6 2.5 7.6 3.7 15.5 3.8 23.5h10c.1-8 1.4-15.9 3.8-23.5 2.5-7.6 6.1-14.8 10.6-21.6 9-13.6 20.7-25.5 33.1-36.8 12.4-11.3 25.6-22 38.5-33.2 12.9-11.2 25.5-22.9 36.9-36 11.3-13.1 21.3-27.7 27.9-43.9 3.2-8 6-16.1 8.6-24.3 2.5-8.2 4.8-16.5 6.6-24.9 3.8-16.7 6.1-33.8 7-50.8.2-4.3.4-8.5.4-12.8-.8-4.3-.9-8.6-1.1-12.8z" fill="#378a5b"/><path d="M54 296.5c0 70.2 26.1 116 67.7 143.2 17.9 11.7 39 17 60.4 16.2 26.4-1 49.8 10.7 58.6 31.8 3.2 7.8 4.9 16 5 24.3H256V0C171 0 54 165.9 54 296.5z" opacity=".15" fill="#444"/></svg>