<svg version="1.1" xmlns="http://www.w3.org/2000/svg" x="0" y="0" viewBox="0 0 512 512" xml:space="preserve"><style type="text/css">.st0{fill:#35965f}.st1{fill:#378a5b}.st2{fill:#397f57}</style><path class="st0" d="M180.5 317.5c-.5 0-1-.3-1.3-.8-1.9-3.5-46.2-85.6-53.2-120.4-8.4-42-12.9-75.4-12-89.4.6-9.4 4.2-20.5 7.1-29.4 2.1-6.3 3.9-11.8 3.9-14.5 0-6.6-4.8-17.3-4.9-17.4-.3-.8 0-1.6.7-2 .8-.3 1.6 0 2 .7.2.5 5.1 11.4 5.1 18.6 0 3.2-1.8 8.6-4 15.5-2.9 8.7-6.4 19.6-7 28.6-.9 13.7 3.6 46.8 12 88.6 6.9 34.4 52.4 118.7 52.8 119.6.4.7.1 1.6-.6 2-.1.2-.4.3-.6.3zm140 11c-.7 0-1.4-.6-1.5-1.3 0-.4-4.5-35.9-3.5-55.8.4-7.7 1.5-13.5 2.5-18.5 1.5-8 2.6-13.3-.4-20.9-2.3-6-7.2-10.3-12-14.4-5.1-4.5-10-8.7-11.1-14.8-2-11-3-50.6-3-52.2 0-.5-1-53.3 0-72.1.6-11.8-2.3-19.1-5.6-27.5-1.9-4.8-3.9-9.8-5.4-16.1-4.1-17.4 1.9-27.7 2.2-28.1.4-.7 1.3-.9 2.1-.5.7.4.9 1.3.5 2.1-.1.1-5.6 9.8-1.8 25.9 1.4 6 3.4 10.9 5.2 15.6 3.3 8.4 6.5 16.3 5.8 28.8-1 18.7 0 71.4 0 71.9 0 .4 1 41 3 51.8.9 5.1 5.4 9 10.1 13.1 4.8 4.2 10.2 8.9 12.8 15.6 3.2 8.4 2 14.7.5 22.5-1 4.9-2 10.5-2.4 18.1-1 19.6 3.4 54.9 3.5 55.2.1.8-.5 1.6-1.3 1.7-.1-.1-.1-.1-.2-.1zm23.8-11c-.7 0-1.3-.5-1.5-1.2-.2-.8.3-1.6 1.1-1.8.6-.1 61.9-14.8 78.9-24 17.2-9.3 38.1-21.2 38.4-21.4.7-.4 1.6-.2 2 .6.4.7.2 1.6-.6 2-.2.1-21.2 12.1-38.4 21.4-17.4 9.4-77.1 23.7-79.6 24.3 0 .1-.2.1-.3.1zM143 317c-.4 0-.9-.2-1.1-.5l-37-44c-.5-.6-.5-1.6.2-2.1.6-.5 1.6-.5 2.1.2l37 44c.5.6.5 1.6-.2 2.1-.3.2-.7.3-1 .3zm12 7c-.5 0-1-.3-1.3-.7l-41-67c-.4-.6-34.1-59.1-42.9-70.9-8.6-11.4-25.1-16.4-25.2-16.5-.8-.2-1.2-1.1-1-1.9.2-.8 1.1-1.3 1.9-1 .7.2 17.6 5.3 26.8 17.5 9 11.9 41.7 68.7 43.1 71.2l41 67c.4.7.2 1.6-.5 2.1-.4.1-.6.2-.9.2z"/><path class="st0" d="M71 186c-.7 0-1.3-.4-1.4-1.1l-9-32c-.2-.8.2-1.6 1-1.9.8-.2 1.6.2 1.9 1l9 32c.2.8-.2 1.6-1 1.9-.2.1-.4.1-.5.1zm56.5 11.5h-.2L88.8 193c-.8-.1-1.4-.8-1.3-1.7.1-.8.8-1.4 1.7-1.3l38.5 4.5c.8.1 1.4.8 1.3 1.7-.1.7-.7 1.3-1.5 1.3z"/><path class="st0" d="M128 198c-.5 0-1-.2-1.3-.7l-22-35c-.4-.7-.2-1.6.5-2.1.7-.4 1.6-.2 2.1.5l22 35c.4.7.2 1.6-.5 2.1-.2.1-.5.2-.8.2zM293 80c-.2 0-.4 0-.6-.1-.8-.3-1.1-1.2-.7-2 .1-.1 5.7-12.6 3.9-19-1.5-5.2-12.2-11.2-16.2-13.1-.8-.4-1.1-1.2-.7-2 .4-.8 1.2-1.1 2-.7 1.6.7 15.7 7.5 17.8 14.9 2.1 7.4-3.8 20.5-4.1 21-.3.7-.8 1-1.4 1zm24.5 197.4c-.2 0-.4 0-.7-.2-.7-.4-1.1-1.3-.7-2 .9-1.8 8.9-17.9 15.2-21.1 4-2 19-2.7 38.1-3.4 7.1-.3 13.3-.5 16.5-.8 9.8-1 42.4-9.9 42.8-10 .8-.2 1.6.3 1.8 1.1.2.8-.3 1.6-1.1 1.8-1.4.4-33.2 9-43.2 10-3.3.3-9.5.5-16.7.8-14 .5-33.1 1.2-36.8 3-4.5 2.3-11.5 15-13.8 19.7-.3.8-.8 1.1-1.4 1.1z"/><path class="st1" d="M163.5 227s-9 19-5 38 57 41 57 41 7-35 0-56-52-23-52-23z"/><path class="st2" d="M342.5 199s9-4 23 2 26 33 26 33-43-8-47-13-2-22-2-22zm-80 91c-5 0-13 2-21 9s-11 23-11 23 34 1 42-6 12-24 12-24-17-2-22-2z"/><path class="st1" d="M370.5 307c-3-2-25-3-32 9-11 16-6 40-1 42s26-11 32-21 4-28 1-30z"/><path class="st1" d="M329.5 270s0 20 2 28 37 21 37 19 7-34-1-41-38-6-38-6zm-45 35s-13-28-24-30-37 15-37 15 12 9 26 11 35 4 35 4z"/><path class="st2" d="M311.5 282c-5 0-13 2-21 9s-11 23-11 23 34 1 42-6 12-24 12-24-17-2-22-2z"/><path class="st1" d="M147.5 264c1 2-15 21-13 37s51 21 51 21 2-43-6-53-32-5-32-5z"/><path d="M405 309H107c-2.2 0-4 1.8-4 4v10c0 2.2 1.8 4 4 4h4.5s2 32.5 19 86c14.6 46 40.3 70.9 49.8 90 2.7 5.5 8.3 9 14.4 9h122.8c6.1 0 11.7-3.5 14.4-9 9.5-19.1 35.2-44 49.8-90 17-53.5 19-86 19-86h4.5c2.2 0 4-1.8 4-4v-10c-.2-2.2-2-4-4.2-4z" fill="#a18267"/><path d="M405 327H107c-2.2 0-4-1.8-4-4v-10c0-2.2 1.8-4 4-4h298c2.2 0 4 1.8 4 4v10c0 2.2-1.8 4-4 4zM161.3 474c7.9 11.5 14.9 20.8 19 29 2.7 5.5 8.3 9 14.4 9h122.8c6.1 0 11.7-3.5 14.4-9 4.1-8.2 11.1-17.5 19-29H161.3zm235.9-123c-.6 3.1-1.2 6.4-1.9 10H116.8c-.7-3.6-1.4-6.9-1.9-10h282.3zm-5.6 26c.9-3.5 1.6-6.8 2.3-10H118c.7 3.2 1.5 6.5 2.3 10h271.3z" fill="#87715d"/><path class="st0" d="M403.5 296s-9-2-10 0-3 4-2 10 20.4 22.8 20.4 22.8 10.6-19.8 11.6-24.8-5-11-8-12-12 4-12 4zm-79-55s8-9 13-11 12-2 19 4 8 38 8 38-29-2-37-10-10-13-10-16 7-5 7-5zm-4 1s-2-11-17-18c-22-6-40 30-40 30s8-3 28-14 29 2 29 2zm-19 29s-10 1-13 4-6 17-11 26-9 11-11 14-4 12-4 12-16-17-9-35 20-25 25-26 16-2 19-1 4 6 4 6zm-185-169s7-8 11-13 7-8 11-8 10 5 13 8 5 14 3 16-9 3-20 2-18-5-18-5zm9-48s2-4 3-8 1-11 1-11-3 2-4 8 0 11 0 11zm-10 88c0-1 0-4-10-7-8.3-2.5-21.4 21.2-25.7 29.3-.4.9.5 1.8 1.3 1.4 5.1-2.5 16-8.2 21.3-12.7 7.1-6 13.1-10 13.1-11z"/><path class="st0" d="M125.5 55s4 0 7-2 3-12 3-12-6 4-7 6-3 8-3 8zm-5 18s-1-2-2-3-4-1-8 0-13 9-13 9 4-6 6-10 4-7 7-8 8 2 9 5 3 7 3 7v3l-2-3zm2 67s7-14 14-14 22 4 27 14 8 32 8 32-23 5-36 3-20-14-21-18 1-12 2-14 6-3 6-3z"/><path class="st0" d="M132.5 185c-7 9-5 20-5 20s2 9 12 17 67 20 67 20 4-25 4-32-10-23-15-28-27-12-36-11-20 5-27 14zm158-25s-15-11-37-8-41 25-41 25 6-20 12-29 14-15 21-17 19-2 25 2 9 17 12 19 10 5 10 5v5l-2-2zm29 129s7-12 12-13 14 4 15 13-3.8 38-3.8 38-28.2-9-31.2-12-4-9-4-15 12-11 12-11zm93.2 3.1s6.8-2.1 17.8-.1 25 19 24 27-7 17-7 17-18-3-25-10-14-22-14-26 4.2-7.9 4.2-7.9zM295.5 152s11-13 19-19 51-20 58-21 14-3 14-3-12-2-17-4-10-4-15-4-9 5-18 7-18 1-22 3-10 21-13 27-8 13-8 13v2l2-1zm-11-112s3-6 9-10 12-6 18-6 27 6 27 6-12-15-15-17-8-2-14-2-18 9-20 13-5 16-5 16zm33 238l-20-20c-9-9-11-19-32-25s-47 26-47 26 4 7 20 5 33-11 41-9 38 26 38 26v-3zm28-41c4-3 15-14 32-16s41 11 41 11-26 13-32 14-9 0-17 0-20-2-20-2l-12-2s4-2 8-5z"/><path class="st0" d="M301.5 175c-3 3-7 19 8 34s51 24 51 24 2-24-5-46-19-21-28-21-23 6-26 9zm-8 20s-21 6-28 11-16.2 17-23.1 36c-6.9 19-9.9 45-9.9 45s-14-44-8-55 30-24 38-29 21-8 21-8l11-3-1 3zm-179 6s3 20-4 26-39 15-39 15 6-41 15-45 28 4 28 4zm7-136c-9-3-16-13-19-16s-8-13-8-13-3 10-2 14 7 5 10 7 21 13 21 13l1-2-3-3zm167 11c-4-2-18 5-29 11s-14 30-14 30-3-14 0-28 15-17 20-17 23 1 23 1 4 5 0 3zm-7 28c-10 6-15 8-19 13s-2 15 3 21 36 13 36 13-11-33-7-41 6-2 8-3-1-12-4-12-7 3-17 9zm55 168s5 19 19 22 43 0 43 0-2-22-18-27-44 5-44 5zm103 13s14-1 18 0 11 5 12 7 2 11 6 14 8 6 9 8 2 3 2 4-2 5-2 5 6-5 6-8-7-18-11-21-5-11-11-12-7 0-12 1-16 0-16 0l-1 2zm-320 14c-2 2-2 10-5 14s-7 9-9 15-2 16-2 16-13-19-8-30 9-13 13-15 15.2-3.3 15.6-3.7c.4-.3-2.6 1.7-4.6 3.7zm-9.7-20.6s-9.3 4.6-12.3 6.6-10 10-12 14-5 14-5 14 0-13 2-18 4-7 8-10 19.3-6.6 19.3-6.6z"/><path class="st0" d="M127.5 209s15 7 19 25-12 64-12 64-22-22-26-39 4-37 10-42 9-8 9-8zm166-38s9-6 19-13 10-13 24-14 29 14 28 26-17 27-17 27-15-19-24-22-30-4-30-4zM282.2 25.5s3.3-5.5 6.3-9.5 9-10 9-12-3-4-3-4-7 6-10 7-4 9-4 13 1.7 5.5 1.7 5.5zM280.5 43c1 2-7-11-9-12s-5-3-12 0-8 12-8 17 11 21 11 21 5-10 9-14 10-9 10-9-2-5-1-3zm11 31.5s-9 2.5-11 4.5-7 4-4 13 38 27 38 27 2-17 3-24 6-17 5-23-10-9-13-9-10 4-13 7-5 4.5-5 4.5z"/><path class="st0" d="M284.5 11s0-5-1-7-5-4-5-4-2 5 0 8 6 3 6 3zm-2 5s-2-3-8-3-20 5-20 5 12 2 16 2 5-1 7-2 5-2 5-2zm9 49s6-13 9-16 10-4 13-3 9 9 9 9-8-2-14-1-17 11-17 11zM412 247.5s10.5-.5 14.5-.5 10 4 14 6 10 6 10 6-3-13-11-14-6 0-12 0h-13l-2.5 2.5zm14.1-3.7s6.4-1.8 10.4-2.8 14-18 12-14 5-6 4-8-28-1-29 2 3 8 4 13-1.4 9.8-1.4 9.8zm34.7 29.1s4.7-2.9 9.7-4.9 6-5 6-6 0-2-2-3-10-2-14-1-2 14-2 14l2.3.9zm-56.3-4.9s3-3 11-4 12 2 14 5 3.2 10.8 5.6 14.9 4.4 9.1 4.4 9.1-30-10-33-14-2-11-2-11zm-338-86s-5 0-9 3-5 19-5 24-3 15-3 15-11-10-10-19 7-21 13-24 14-3 14-3v4z"/><path class="st0" d="M84 207.6S67.5 203 62.5 202s-9-14-9-14l-5 20s7-4 11-4 28 8.5 28 8.5l-3.5-4.9zm74.5-58.6s25 3 31 9 15 20 15 20-27 2-35-1-11-28-11-28zm142 91s-13 3-16 13 16 35 16 35 16.2-18.8 16.6-30.4-16.6-17.6-16.6-17.6zm150 37s-8-10-10-16-6-11-5-13 11 0 16 1 9 5 10 6-7 20-7 20l-4 2zm-327-227s-12-5-14-8l-4-6s5-2 8 0 10 14 10 14z"/><path class="st0" d="M123.5 28s-6 8-6 11 2 6 3 7l4 4V39c0-5-1-11-1-11z"/><path class="st0" d="M117.5 28s-2 7-2 11 6.8 10.5 6.8 10.5.2-11.5-.8-15.5-4-6-4-6zm7 23s-7-2-11-1-10 5-13 9-4 10-4 10 12-10 15-12 6-3 9-3 6 6 6 6l-2-9z"/><path class="st0" d="M105.5 32c-1 1-4 7-4 11s0 7 2 10 8 7 8 6-6-9-6-14V32zm21 34s7-11 12-12 15 2 17 6 4 9 1 12-8 0-17-1-14-3-14-3l1-2zm160 143s-10-2-13-1-14 7-16 13-2 15-2 15 17-20 20-23 11-4 11-4zm8-34c-1-1-6-8-11-8s-13 9-13 15 9 10 9 10-6-10-1-15 8-5 10-4 6 2 6 2z"/><path class="st0" d="M295.5 192s-8.5-6.3-23.8-6.2c-15.2.2-18.2 24.2-18.2 24.2s12-11 19-14 23-4 23-4zm2 15c-1 1-21 5-30 12s-18 26-18 26 34-8 41-13 7-25 7-25zm107.8 90.5s-6.8-7.5-5.8-15.5 8.6-13.5 10.3-16.8c1.7-3.2 4.7-7.2 4.7-7.2s-1 4 0 8 5 11 4 16-13.2 15.5-13.2 15.5zM63.5 153s-2-7-2-9 2-11 2-11-1 2-3 4-8 1-10 3-1 4-3 6-9 8-9 8 9-4 13-4 10 6.3 10 6.3l2-3.3zm-19.6 15.5s-9.4.5-12.4 2.5-10 8-10 8 5-8 8-10 6-4 8-4 8 1 8 1l-1.6 2.5z"/><path class="st0" d="M47.5 168v-7c0-4-2.8-8.9-2.8-8.9s-4.2 6.9-2.2 10.9 5 5 5 5z"/><path class="st0" d="M29.5 153c-2 1 0 6 1 8s16 8 16 8-4-8-6-10-9-7-11-6z"/><path class="st0" d="M22.5 167s2-3 5-5 5-2 8-2 13 9 13 9-14-3-17-3-9 1-9 1zm85-4c-1 2-15-1-15-1 1 13-5 24-5 24s-15-2-16-8 6-24 15-27 21 11 21 11v1z"/><path class="st0" d="M108.5 194s-10-13-18-12-18 14-18 14 19 7 25 6 11-8 11-8zm-1.6 79.5s-9.4.5-12.4 2.5-10 8-10 8 5-8 8-10 6-4 8-4 8 1 8 1l-1.6 2.5z"/><path class="st0" d="M108.5 274v-7c0-4-2.8-8.9-2.8-8.9s-4.2 6.9-2.2 10.9 5 5 5 5z"/><path d="M256 74.5v15.2c-8.1 8.5-10.5 27.3-10.5 27.3s-3-14 0-28c1.7-7.7 6.1-12.1 10.5-14.5zm0-15.8V33.4c-3.8 4-4.5 10.6-4.5 14.6 0 2.2 2.1 6.5 4.5 10.7zM254.5 18s.6.1 1.5.2v-.8c-.9.4-1.5.6-1.5.6zm-172 277c-2 5-2 18-2 18s3-10 5-14 9-12 12-14 12.3-6.6 12.3-6.6-15.3 3.6-19.3 6.6-6 5-8 10zm142-147c-6 9-12 29-12 29s19-22 41-25c.8-.1 1.7-.2 2.5-.3v-22c-3.8 0-7.6.5-10.5 1.3-7 2-15 8-21 17zm29.3 60.2c.3-1.8 1-4.8 2.2-8v15.6c-4 5.3-8 12.3-11.6 21.1 3.6-2 7.4-3.5 11.2-4.2.1-1.3.2-2.8.4-4.4v31.6c-5.6 1.7-11.6 3.4-17.5 4.1-.8.1-1.5.2-2.2.2-1.8 8.7-3 16.4-3.5 20.2 6.9-3.8 16.3-8.4 23.2-9.4v237h-61.4c-6.1 0-11.7-3.5-14.4-9-.3-.6-.6-1.1-.9-1.7l-.3-.6c-.2-.4-.4-.8-.7-1.2-.1-.2-.3-.4-.4-.7-.2-.4-.4-.7-.7-1.1-.1-.2-.3-.5-.4-.7-.2-.4-.5-.8-.7-1.2-.1-.2-.3-.4-.4-.6-.3-.5-.6-.9-.9-1.4-.1-.1-.2-.3-.3-.4-.8-1.3-1.7-2.6-2.7-4-11.9-17.5-30.1-40.6-41.5-76.5-4.3-13.4-7.6-25.5-10.2-36.1-.3-1.1-.5-2.2-.8-3.2-.1-.5-.2-.9-.3-1.4l-.3-1.5c-.3-1.3-.6-2.6-.9-3.8-1.3-5.9-2.4-11.3-3.2-16-2.8-15.5-3.3-24-3.3-24H107c-.4 0-.7-.1-1.1-.2-.1.4-.3.8-.4 1.2-2 6-2 16-2 16s-13-19-8-30 9-13 13-15c3.9-1.9 14.4-3.2 15.5-3.6-.6.4-2.9 2-4.5 3.6-1.5 1.5-1.9 6.1-3.1 10h19.2l-11.5-13.7h-.1s.1 0 .1-.1l-14.3-17-4-4.8c-2.6.2-8.9.8-11.3 2.4-3 2-10 8-10 8s5-8 8-10 6-4 8-4c.8 0 2.3.2 3.8.4-.3-.4-.5-.9-.8-1.4-2-4 2.2-10.9 2.2-10.9s2.8 4.9 2.8 8.9v5.1l27.4 32.6c-.7-1.2-1.2-2.4-1.4-3.7-.1-1-.2-2.1-.2-3.2-2-2-22-22.7-25.8-38.8-.9-3.8-1.2-7.8-1-11.8-2.3-4-5.2-8.9-8.4-14.4-11.8 4.7-27.6 9.1-27.6 9.1s2.8-19.1 7.4-32.5c-7.3-2.5-17-5.5-19.4-5.5-2 0-4.7 1-6.9 2-.1 1.2-.1 2.3-.1 3 0 5-3 15-3 15s-11-10-10-19 7-21 13-24c3.3-1.7 7.2-2.4 10.1-2.7-8.3-6.4-17.9-9.3-18-9.3-.3-.1-.5-.2-.7-.4 0 0-9.4.5-12.4 2.5s-10 8-10 8 5-8 8-10c1.5-1 3-2 4.4-2.8-1-.1-1.9-.2-2.4-.2-3 0-9 1-9 1s2-3 5-5c1-.7 1.9-1.1 2.8-1.4-1-2.2-2.7-6.6-.8-7.6 2-1 9 4 11 6 .4.4.9 1.1 1.5 2-.3-3.9 2.7-8.9 2.7-8.9s2.8 4.9 2.8 8.9v5.8c4 1.4 13.1 5.2 20.3 12l-6.3-22.4s-6-6.3-10-6.3-13 4-13 4 7-6 9-8 1-4 3-6 8-1 10-3 3-4 3-4-2 9-2 11c0 1.4 1 5.3 1.6 7.5.2.2.3.4.4.6l8.9 31.7c1.2 1.6 2.8 4 4.7 7 1.8-1.9 4-3.9 6.3-5.6-4.5-1.1-11.3-3.3-11.9-7.2-1-6 6-24 15-27l1.2-.3c5.6-8.7 12.6-17.3 17.8-15.7 10 3 10 6 10 7s-6 5-13 11c-.8.7-1.6 1.3-2.6 2 2.4 1.7 4.4 3.6 5.8 5 .6-.1 1.3.1 1.6.7l17.1 27.2c-1.4-7.4-2.7-14.5-3.9-21.2-3.5-3.8-5.5-7.8-6-9.8-1-4 1-12 2-14 .1-.1.2-.3.2-.4-2.2-16.1-3.2-28.5-2.7-35.7.6-9.4 4.2-20.5 7.1-29.4.3-.8.5-1.6.8-2.4l-1.4-2.1s-1-2-2-3-4-1-8 0-13 9-13 9 4-6 6-10c1.8-3.6 3.6-6.3 6-7.6-.7-.5-1.4-.9-2.1-1.3-4.6 3.7-10.9 8.9-10.9 8.9s1-6 4-10c.5-.7 1.2-1.4 1.8-2.1-3-1.9-8.9-3-9.8-6.9-1-4 2-14 2-14s4.2 8.4 7.2 12.1c-.2-1.6-.2-3.2-.2-5.1 0-4 3-10 4-11v13c0 2.2 1.2 5 2.5 7.5 1.9-1.2 3.9-2.1 5.5-2.5 2.5-.6 6.2-.1 8.6.4-.2-.4-.3-.9-.5-1.2-3.5-1.5-10.6-4.9-12.1-7.2l-4-6s5-2 8 0c.6.4 1.3 1.1 2 2 .3-4.1 2-10 2-10s2 1.3 3.3 4c1.4-2.2 2.7-4 2.7-4s1 6 1 11V48c.2.5.4 1 .6 1.6-.1-1.9 0-4.3.4-6.9 1-6 4-8 4-8s0 7-1 11c-.7 2.7-1.8 5.3-2.4 6.8 0 .1.1.2.1.3.7-1.9 1.7-4.8 2.4-6.1 1-2 7-6 7-6s0 10-3 12c-2 1.3-4.4 1.8-5.8 1.9.8 2.7 1.3 5.6 1.3 8.1 0 .3 0 .6-.1.9 2.3-3.2 7-9.2 10.6-9.9 5-1 15 2 17 6s4 9 1 12-8 0-17-1c-6.1-.7-10.3-1.8-12.4-2.5-.7 2.8-1.8 6.1-3.1 9.9-2.2 6.7-4.8 14.6-6.1 22 2.2-2.6 6.7-7.8 9.6-11.4 4-5 7-8 11-8s10 5 13 8 5 14 3 16-9 3-20 2c-8.6-.8-14.7-3.4-17-4.5-.2 1.6-.4 3.1-.5 4.6-.4 6.9.5 18.6 2.5 33.8 1.5-.6 3-.9 3-.9s7-14 14-14 22 4 27 14c1.4 2.8 2.6 6.5 3.7 10.3 7.8 1.4 18.6 4 22.3 7.7 6 6 15 20 15 20s-6.6.5-14.2.6c2.3 1.2 4.2 2.3 5.2 3.4 5 5 15 21 15 28 0 5.6-2.5 22.5-3.6 29.2 4 2.9 7.1 6.4 8.6 10.8 7 21 0 56 0 56s-15.6-6.5-30.6-15.5c.6 6.3.7 12.9.8 18.5h48.9c1.7-3.7 3.9-7.4 6.7-9.9-10.2-3.3-17.9-9.1-17.9-9.1s3.5-2.3 8.4-5c-1.1-3.7-3.6-12.2-5.6-21.4-6-1.5-7.7-4.6-7.7-4.6s2.1-2.6 5.7-6.2c-1.4-8.8-1.8-16.9.3-20.8 4.4-7.9 18.8-17.2 29.2-23.5zM121.5 65l2.7 2.7c.5-1.9.8-3.5.8-4.7 0-2.1-.5-4.5-1.1-6.9-1-1.1-2.2-2.1-3.4-2.1-3 0-6 1-9 3-.2.1-.4.3-.7.5l.5 1c1.3 1.2 2.6 2.3 4 3.3.6.3 1.2.7 1.7 1.1 1.5.9 3 1.6 4.5 2.1zm1 8v.3c.4-1.2.8-2.4 1.1-3.5l-.1.1s-1.3-.8-3.3-2c1.1 2.6 2.3 5.1 2.3 5.1zM81.4 203.4c-1.2-1.9-2.3-3.7-3.4-5.5-3.2-1.1-5.5-1.9-5.5-1.9s.9-1.2 2.5-2.9c-2.1-3.3-3.9-6-5.2-7.7-1-1.3-2.1-2.6-3.3-3.7v.3s-5 0-9 3c-1.3.9-2.2 3.2-3 6 1.5 3.9 4.5 10.3 8 11 3.4.7 12.3 3.1 17.5 4.5.5-1.1.9-2.2 1.4-3.1zm2.2-3.8l-1.2-.3c.2.4.4.7.7 1.1.2-.3.3-.5.5-.8zm23.3-7.5l17.9 2.1-19.2-30.5c-4.1.3-13.1-1.7-13.1-1.7.6 8.4-1.6 16-3.3 20.3.4-.1.9-.2 1.3-.3 6.1-.8 13.3 6.5 16.4 10.1zm22.7 18.1c-1.6-3.1-2.1-5.2-2.1-5.2s-.2-1.4-.3-3.5c-.4-1.4-.7-2.8-1-4.1l-18.7-2.2c-.6.7-1.5 1.7-2.5 2.6 5.3 1.5 9.5 3.2 9.5 3.2s3 20-4 26c-1.7 1.4-4.8 3.1-8.6 4.7 2.2 3.7 4.3 7.2 6.1 10.4 1.6-11.5 6.5-21.7 10.6-25.1 6-5 9-8 9-8s.7.4 2 1.2zm14.8-34.7c-3.2.1-6.2 0-8.9-.5-4.5-.7-8.3-2.6-11.4-4.9 1.3 7.3 2.7 14.9 4.3 22.9.8-2.6 2.1-5.4 4.1-8 3.3-4.2 7.4-7.3 11.9-9.5zM140.1 309c-.7-.5-1.4-1.1-2.1-1.7l1.4 1.7h.7zm7.4-45s1.8-.4 4.6-.7l-5.7-12.3c-1.1 8.3-3.2 17.5-5.4 25.5 3.5-6.6 7-11.5 6.5-12.5zm14.4-33.1c-7.8-2.3-14.8-4.7-19.2-7 1.6 2.9 3 6.2 3.8 10 .7 3 .8 6.7.5 10.9 2.7 6 5.5 12.1 8.3 18.1.9-.1 1.8-.1 2.7-.2-2-12.9 1.7-25.6 3.9-31.8z" opacity=".15" fill="#444"/></svg>