<svg version="1.1" xmlns="http://www.w3.org/2000/svg" x="0" y="0" viewBox="0 0 512 512" xml:space="preserve"><style type="text/css">.st0{fill:#36434f}.st5{fill:#f4f4f4}</style><path class="st0" d="M161.1 113.1s-47.9 6-82.8-28.6C57.2 63.4 38 36.2 26.1 18.1c-2.8-4.4-8-.2-6.5 5.3 6.9 27.4 19.9 71.3 39.1 98.7 29.4 42.2 92.6 60.3 92.6 60.3l9.8-69.3zm189.6 0s47.9 6 82.8-28.6c21.1-21.1 40.3-48.2 52.2-66.3 2.8-4.4 8-.2 6.5 5.3-6.9 27.4-19.9 71.3-39.1 98.7-29.4 42.2-92.6 60.3-92.6 60.3l-9.8-69.4z"/><path d="M167.9 245.4l-12.9-50-37.5-17.2c-6.9-3.2-13.5-7.1-19.7-11.4-2.7-1.9-5.6-3.7-8.6-5.5-34.5-19.9-72.7-18.5-85.2 3.2s5.3 55.4 39.8 75.4c19.6 11.3 40.4 15.8 57 13.5 5.9-.8 11.9-.7 17.8.2 7.6 1.1 15.3.7 22.7-1.2l26.6-7zm176.2 0l12.9-50 37.5-17.2c6.9-3.2 13.5-7.1 19.7-11.4 2.7-1.9 5.6-3.7 8.6-5.5 34.5-19.9 72.7-18.5 85.2 3.2s-5.3 55.4-39.8 75.4c-19.6 11.3-40.4 15.8-57 13.5-5.9-.8-11.9-.7-17.8.2-7.6 1.1-15.3.7-22.7-1.2l-26.6-7z" fill="#a18267"/><path d="M386 180l-6.4-39.5c-2.3-14.3-13.7-26.5-30-32.1l-8.9-3c-15.5-5.3-32.2-8-49.1-8h-71.4c-16.8 0-33.5 2.7-49.1 8l-8.9 3c-16.3 5.5-27.8 17.8-30 32.1l-6.4 39.5c-3.1 19.5-2.9 39.3.6 58.7l8.7 47.6c3.7 20 8.9 39.8 15.9 59.2l34.9 97.9h139.5l34.9-97.9c7-19.4 12.2-39.2 15.9-59.2l8.7-47.6c3.9-19.4 4.2-39.2 1.1-58.7z" fill="#ce956b"/><ellipse cx="256" cy="457" rx="54.1" ry="38.7" fill="#d0a297"/><path d="M322.3 456.1c7.1 0 13-5.4 13.5-12.3.2-2.7.3-5.5.3-8.2 0-47.1-36-85.4-80.3-85.4s-80.3 38.2-80.3 85.4c0 2.7.1 5.5.3 8.2.7 6.9 6.6 12.3 13.5 12.3h133z" fill="#e9b3a6"/><path class="st0" d="M302.1 411.8c.6-1.6.9-3.2.9-4.9.1-3.9 0-8-.4-10.5-.6-3.4-3.1-6.2-5.1-7.9-1-.8-2.5 0-2.3 1.3.4 3.1.7 7.6-.6 10.7-.2.5-.4 1-.7 1.5-1.1 2.1-3 3.6-5.2 4.6-.6.3-1.3.6-1.9 1-6.2 3.6-9.4 9.7-7.1 13.7 2.3 4.1 9.5 4.3 15.8.5.1 0 .1-.1.2-.1 2.7-2.7 4.9-6 6.4-9.9zm-92.2 0c-.6-1.6-.9-3.2-.9-4.9-.1-3.9 0-8 .4-10.5.6-3.4 3.1-6.2 5.1-7.9 1-.8 2.5 0 2.3 1.3-.4 3.1-.7 7.6.6 10.7.2.5.4 1 .7 1.5 1.1 2.1 3 3.6 5.2 4.6.6.3 1.3.6 1.9 1 6.2 3.6 9.4 9.7 7.1 13.7-2.3 4.1-9.5 4.3-15.8.5-.1 0-.1-.1-.2-.1-2.7-2.7-4.9-6-6.4-9.9z"/><circle class="st5" cx="186.9" cy="261" r="26.7"/><circle class="st0" cx="186.9" cy="261" r="11.6"/><circle class="st5" cx="182.8" cy="257.3" r="3.7"/><circle class="st5" cx="324.9" cy="261" r="26.7"/><circle class="st0" cx="324.9" cy="261" r="11.6"/><circle class="st5" cx="320.6" cy="257.3" r="3.7"/><path class="st0" d="M204.9 216.3c-1.8 0-3.6-.6-5.1-1.8l-28-23c-3.4-2.8-3.9-7.8-1.1-11.3 2.8-3.4 7.8-3.9 11.3-1.1l28 23c3.4 2.8 3.9 7.8 1.1 11.3-1.6 1.9-3.9 2.9-6.2 2.9zm102 0c1.8 0 3.6-.6 5.1-1.8l28-23c3.4-2.8 3.9-7.8 1.1-11.3-2.8-3.4-7.8-3.9-11.3-1.1l-28 23c-3.4 2.8-3.9 7.8-1.1 11.3 1.6 1.9 3.9 2.9 6.2 2.9z"/><path d="M256 97.4h-35.7c-16.8 0-33.5 2.7-49.1 8l-8.9 3c-3.9 1.3-7.5 3-10.8 5.1-15.8-.2-47.9-3.9-73.1-29C57.2 63.4 38 36.2 26.1 18.1c-2.8-4.4-8-.2-6.5 5.3 6.9 27.4 19.9 71.3 39.1 98.7C76.3 147.4 106 164 127 173.3l-1.1 6.8c-.1.6-.2 1.3-.3 1.9l-8.1-3.7c-6.9-3.2-13.5-7.1-19.7-11.4-2.7-1.9-5.6-3.7-8.6-5.5-34.5-19.9-72.7-18.5-85.2 3.2S9.3 220 43.8 240c19.6 11.3 40.4 15.8 57 13.5 5.9-.8 11.9-.7 17.8.2 3.6.5 7.2.7 10.7.5l5.9 32.2c3.7 20 8.9 39.8 15.9 59.2l26.1 73.2c-1 5.4-1.6 11.1-1.6 16.8 0 2.7.1 5.5.3 8.2.7 6.9 6.6 12.3 13.5 12.3H202v.9c0 21.4 24.2 38.7 54.1 38.7V97.4z" opacity=".15" fill="#444"/></svg>