<svg version="1.1" xmlns="http://www.w3.org/2000/svg" x="0" y="0" viewBox="0 0 512 512" xml:space="preserve"><path fill="#0f2438" d="M0 0h512v512H0z"/><circle cx="256" cy="256" r="256" fill="#e3ca29"/><path d="M381.4 101.4c-1.2.5-2.7 1.2-3.7 1.9-.1.2-.1.4-.2.6l-.6 1.5c-2.2 5.5-6 10.4-11 13.9-.5-1-1.3-1.7-2.3-2.2l-1.1-2.4-1.1 1.8c-.9-.1-1.8.1-2.6.5-.9.4-1.6 1-2.1 1.7l-2.1-.4 1.1 2.4c-.3 1-.2 2.1.2 3.2-6 1.4-12.1.9-17.7-1-.5-.2-.9-.3-1.4-.5-.2-.1-.5-.2-.7-.3-1.2.3-2.7 1-3.9 1.5-7.4 3.3-12.3 10.6-13.1 18.2 2.5-.8 5.1-.4 7.2 1 1.4-1.2 2.9-2.5 4.7-3.3 5-2.2 10.1-1.7 14.7.4.9-1.8 2.7-3.6 4.7-4.5 4.2-1.9 8.8-.4 11.3 3.3l.1.1s.1.1.1.2c.1.1.1.1.1.2.1.1.1.2.2.3.1 0 .2-.1.4-.1 2.5-.8 3.8-.2 6.4.2 1.4-2.3 1.8-3.6 4.1-5 .1-.1.2-.1.3-.2 0-.1-.1-.2-.1-.3 0-.1-.1-.2-.1-.2s0-.1-.1-.2c0 0 0-.1-.1-.2-1.1-4.3.9-8.7 5.1-10.6 2-.9 4.6-1 6.5-.5 1.5-4.8 4.5-9 9.5-11.2 1.8-.8 3.8-1.1 5.6-1.3.4-2.4 1.8-4.7 4.1-6-6.3-4.7-15-5.9-22.4-2.5zm-17.9 260.5c-.8-.1-1.7-.2-2.5-.1l-.3.3c-.2.2-.5.4-.8.6-2.8 2.1-6.2 3.6-9.8 3.9 0-.7-.2-1.3-.5-1.8l.2-1.6-1.1.6c-.4-.3-.9-.5-1.5-.5-.6-.1-1.1 0-1.6.2l-1-.8-.2 1.6c-.4.5-.7 1-.9 1.7-3.5-1.1-6.5-3.1-8.8-5.8-.2-.2-.4-.5-.6-.7-.1-.1-.2-.2-.3-.4-.7-.2-1.7-.3-2.5-.4-4.8-.5-9.5 1.8-12.1 5.5 1.5.3 2.7 1.3 3.4 2.6 1.1-.2 2.2-.4 3.4-.3 3.2.3 5.7 2.1 7.4 4.6 1-.7 2.5-1 3.8-.9 2.7.3 4.6 2.4 4.8 5v.6h.2c1.5.3 2 1 3.2 2 1.4-.7 2-1.3 3.6-1.3h.2v-.5c.7-2.5 3.1-4.2 5.8-3.9 1.3.1 2.7.8 3.5 1.7 2.2-2 5-3.3 8.2-2.9 1.1.1 2.3.5 3.3 1 .9-1.1 2.3-1.9 3.9-1.9-1.5-4.4-5.6-7.6-10.4-8.1zM112 288.5c-1.4-.6-3.1-1.3-4.6-1.6-.2.1-.4.2-.7.3-.6.3-1.1.5-1.7.7-6.3 2.5-13.4 3.4-20.4 2 .4-1.2.4-2.5 0-3.7l1.1-2.9-2.4.5c-.7-.8-1.5-1.4-2.5-1.8-1-.4-2.1-.5-3.1-.4l-1.4-2-1.1 2.9c-1.1.6-1.9 1.5-2.5 2.7-6-3.8-10.5-9.4-13.4-15.6-.3-.5-.5-1.1-.7-1.6-.1-.3-.2-.5-.3-.8-1.2-.8-3-1.4-4.4-2-8.8-3.5-18.7-1.7-25.7 3.7 2.7 1.4 4.4 4 5 6.7 2.1.1 4.4.4 6.5 1.3 5.8 2.3 9.6 7 11.5 12.5 2.2-.7 5.2-.6 7.6.3 4.9 2 7.4 7 6.3 12 0 .1 0 .1-.1.2 0 .1 0 .1-.1.2 0 .1-.1.2-.1.3 0 .1-.1.2-.1.4.1.1.3.1.4.2 2.7 1.4 3.2 3 5 5.6 3-.6 4.5-1.4 7.4-.6.1 0 .3.1.4.1 0-.1.1-.2.2-.3 0-.1.1-.2.1-.3 0-.1.1-.1.1-.2s.1-.1.1-.2c2.7-4.3 8-6.3 12.9-4.3 2.3.9 4.5 2.9 5.7 5 5.2-2.6 11.1-3.5 16.9-1.1 2.1.8 3.9 2.2 5.6 3.6 2.3-1.6 5.4-2.3 8.3-1.4-1-8.7-7-16.9-15.8-20.4zm24.9-184.3c-.6.5-1.3 1.1-1.8 1.7v.4c0 .3 0 .6-.1 1-.3 3.5-1.6 6.9-3.9 9.8-.5-.5-1.1-.8-1.7-.9l-1-1.2-.3 1.2c-.5.1-1 .4-1.4.7-.4.4-.7.8-.9 1.3l-1.2.1 1 1.2c0 .6.2 1.2.6 1.8-3.2 1.8-6.7 2.6-10.3 2.4-.3 0-.6 0-.9-.1h-.5c-.6.4-1.4 1-1.9 1.5-3.7 3.2-5.2 8.2-4.3 12.6 1.3-.9 2.8-1.1 4.2-.7.6-.9 1.2-1.9 2.1-2.7 2.4-2.1 5.4-2.7 8.4-2.3.2-1.2.9-2.5 1.9-3.4 2-1.8 5-1.7 7-.1 0 0 .1 0 .1.1 0 0 .1 0 .1.1l.1.1c.1 0 .1.1.1.1.1 0 .1-.1.2-.1 1.3-.9 2.1-.8 3.7-1 .4-1.5.4-2.4 1.5-3.5 0-.1.1-.1.2-.2 0 0-.1-.1-.1-.2l-.1-.1s0-.1-.1-.1c0 0 0-.1-.1-.1-1.4-2.2-1-5.1 1.1-6.9 1-.8 2.4-1.4 3.6-1.4 0-3 1-5.9 3.5-8 .9-.8 1.9-1.3 2.9-1.7-.2-1.4.2-3 1.3-4.1-4.2-1.3-9.3-.5-13 2.7zm120.7 78.6c-1.7.1-3.7.2-5.3.6-.2.2-.3.4-.5.6-.5.5-.9 1-1.4 1.5-5.1 5.5-11.8 9.7-19.3 11.7-.2-1.4-.8-2.7-1.7-3.7l-.2-3.4-2.1 1.7c-1-.5-2.2-.7-3.4-.6-1.2.1-2.3.4-3.3 1l-2.3-1.4.2 3.4c-.8 1.1-1.2 2.4-1.2 3.9-7.8-1-14.9-4.3-20.7-9.2-.5-.4-1-.8-1.4-1.3-.2-.2-.5-.4-.7-.7-1.6-.2-3.7 0-5.3.1-10.4.7-19.4 7.2-23.8 15.8 3.3.1 6.2 1.9 8.1 4.3 2.2-.9 4.6-1.7 7.1-1.8 6.9-.4 12.8 2.5 17.3 7 1.9-1.7 4.9-3.1 7.7-3.3 5.8-.4 10.7 3.5 12 8.9v.4c0 .1 0 .2.1.3 0 .1 0 .3.1.4h.5c3.4.1 4.6 1.5 7.6 3.2 2.7-2.1 3.8-3.5 7.1-4.1.2 0 .3 0 .5-.1v-1.1c.6-5.6 5-10 10.8-10.4 2.8-.2 5.9.8 8 2.3 3.9-5.1 9.4-8.7 16.3-9.1 2.5-.2 5 .4 7.2.9 1.6-2.7 4.3-4.8 7.5-5.3-5.4-7.8-15.2-13.2-25.5-12.5zm-98.9 233c-.3-.5-.6-1.1-.9-1.5-.1 0-.2 0-.3-.1-.2-.1-.4-.1-.7-.2-2.4-.8-4.7-2.2-6.3-4.2.4-.3.7-.6.9-1.1l1-.6-.8-.4c0-.4-.1-.8-.3-1.1-.2-.4-.5-.6-.8-.8l.1-.9-1 .6c-.4-.1-.9 0-1.4.2-.8-2.5-.8-5.1-.2-7.6 0-.2.1-.4.2-.6 0-.1.1-.2.1-.3-.2-.5-.5-1.1-.8-1.6-1.7-3.1-5-4.9-8.3-4.9.4 1 .3 2.2-.1 3.1.6.5 1.2 1.2 1.6 1.9 1.1 2 1.1 4.2.4 6.3.8.3 1.6 1 2.1 1.9.9 1.7.5 3.8-1 4.9h-.2s-.1 0-.1.1l-.1.1c0 .1 0 .1.1.1.5 1 .2 1.6.1 2.8 1 .5 1.6.6 2.3 1.6l.1.1s.1 0 .1-.1h.3c1.8-.6 3.8.1 4.7 1.8.5.8.6 1.9.5 2.8 2.1.5 4 1.6 5.1 3.6.4.7.6 1.6.8 2.3 1 .1 2.1.6 2.7 1.5 1.6-3 1.8-6.7.1-9.7zm73.5-49.6c-.5-.1-1.2-.3-1.8-.3-.1.1-.2.1-.2.2-.2.1-.4.2-.6.4-2.2 1.3-4.7 2-7.4 1.9.1-.5 0-.9-.2-1.4l.3-1.1-.8.3c-.3-.2-.6-.4-1-.5-.4-.1-.8-.1-1.2 0l-.6-.7-.3 1.1c-.4.3-.6.7-.8 1.1-2.4-1.1-4.4-2.8-5.8-4.9-.1-.2-.2-.4-.3-.5-.1-.1-.1-.2-.2-.3-.5-.2-1.2-.4-1.7-.5-3.4-.8-6.9.4-9.2 2.8 1 .4 1.8 1.2 2.2 2.2.8-.1 1.6-.1 2.5.1 2.3.5 3.9 2 4.9 3.9.8-.4 1.9-.5 2.8-.3 1.9.4 3.1 2.2 3 4v.4c.1 0 .1 0 .2.1 1.1.4 1.4.9 2.1 1.8 1.1-.4 1.6-.8 2.7-.6h.2v-.4c.7-1.7 2.6-2.7 4.5-2.3.9.2 1.8.8 2.4 1.5 1.8-1.3 3.9-1.9 6.1-1.4.8.2 1.6.6 2.2 1 .8-.7 1.8-1.1 2.9-1-.9-3.2-3.5-5.8-6.9-6.6zm60-59.3c-.5.6-1.1 1.4-1.4 2 0 .1 0 .2.1.4.1.3.1.6.1 1 .4 3.5-.1 7.1-1.7 10.4-.6-.4-1.2-.5-1.8-.5l-1.3-.9v1.3c-.5.2-.9.6-1.2 1-.3.4-.5 1-.6 1.5l-1.2.4 1.3.9c.2.6.5 1.2 1 1.6-2.7 2.5-6 4-9.5 4.6-.3.1-.6.1-.9.1-.2 0-.3 0-.5.1-.5.5-1.1 1.3-1.6 1.9-2.9 3.9-3.3 9.1-1.5 13.2 1-1.1 2.5-1.7 4-1.6.4-1 .8-2.1 1.5-3.1 1.9-2.6 4.7-3.8 7.7-4 0-1.2.4-2.7 1.2-3.7 1.6-2.2 4.5-2.7 6.8-1.6h.1s.1 0 .1.1c0 0 .1 0 .1.1.1 0 .1.1.2.1l.2-.2c1.1-1.2 1.9-1.2 3.4-1.7.1-1.6-.1-2.4.7-3.8 0-.1.1-.1.1-.2-.1 0-.1-.1-.1-.1l-.1-.1-.1-.1-.1-.1c-1.8-1.9-2.1-4.8-.4-7 .8-1 2.1-1.9 3.2-2.2-.6-2.9-.2-6 1.7-8.5.7-.9 1.6-1.7 2.5-2.3-.5-1.4-.4-3 .4-4.3-4.6-.5-9.5 1.4-12.4 5.3zm-57.6-35.6c-.6-.2-1.4-.4-2-.5-.1.1-.2.1-.3.2-.2.1-.5.3-.7.4-2.6 1.3-5.6 2-8.6 1.7.1-.5.1-1.1-.1-1.6l.4-1.3-1 .3c-.3-.3-.7-.5-1.1-.7-.4-.1-.9-.1-1.3 0l-.7-.8-.4 1.3c-.4.3-.8.7-1 1.2-2.7-1.4-4.9-3.5-6.3-6-.1-.2-.2-.4-.4-.6-.1-.1-.1-.2-.2-.3-.6-.3-1.3-.5-2-.7-3.9-1.1-8 .1-10.7 2.7 1.2.5 2 1.5 2.4 2.6.9 0 1.9 0 2.8.3 2.6.7 4.3 2.6 5.4 4.8.9-.4 2.2-.5 3.2-.2 2.2.6 3.4 2.7 3.2 4.8v.5c.1 0 .1 0 .2.1 1.2.5 1.5 1.1 2.3 2.1 1.3-.4 1.8-.8 3.1-.6h.2c0-.1 0-.1.1-.1 0 0 0-.1.1-.1v-.2c.9-2 3.1-3 5.3-2.4 1 .3 2 1.1 2.6 1.9 2.1-1.3 4.6-1.9 7.1-1.2.9.3 1.8.8 2.5 1.3.9-.8 2.2-1.2 3.4-1-.7-3.6-3.6-6.8-7.5-7.9z" fill="#111"/></svg>