<svg xmlns="http://www.w3.org/2000/svg" viewBox="0 0 512 512" xml:space="preserve"><path d="M125.4 243.8c5.6 37.8-10.4 67.5-35.8 71.2s-50.5-19.8-56.1-57.6 10.4-75.6 35.8-79.3c25.3-3.7 50.4 27.9 56.1 65.7zm95.1-71.2c2.6 38.1-15.9 64.4-41.5 66.2-25.6 1.8-48.5-21.6-51.1-59.8s15.9-76.6 41.5-78.3 48.5 33.8 51.1 71.9zm98-3.3c-3.8 37.5-26.3 59.8-51.4 57.3s-43.4-29.1-39.6-66.6c3.8-37.5 28.3-71.6 53.5-69 25.1 2.5 41.3 40.9 37.5 78.3zm85.6 27.7c-9 34.8-32.7 52.8-55.1 47-22.4-5.8-35-33.3-26-68.1s36.3-63.7 58.7-57.8c22.4 5.8 31.4 44.1 22.4 78.9zm35 140.6c-23.9-23.6-59.4-45.2-101.6-59.7-6.3-2.2-12.5-4.1-18.7-5.8-66.9-18.7-128.8-12.8-157 13.3-.7.6-1.4 1.3-2 2-4.6 4.4-16 15.2-24.5 21.2-10.9 7.6-40.8 19.9-40.8 19.9-28.1 11.3-47.2 34-47.2 60.1 0 17.1 8.2 38.7 21.7 57.3L98.1 486c11.4 15.7 31.1 26 53.5 26 16.8 0 32-5.8 43.4-15.3 4-3.3 7-7.7 9-12.5 6.9-16 21.1-30.7 40.5-39.8 24.6-11.6 37.8-3.4 69.3-.4s97-13.7 122.5-35.1c21.7-18.3 23-51.5 2.8-71.3zM192.4 35.7c0 13.9-7 18.1-15.7 18.1S161 49.6 161 35.7s10.5-32.2 15.7-32.2c5.3 0 15.7 18.3 15.7 32.2zM83.1 119c0 13.9-7 18.1-15.7 18.1s-15.7-4.2-15.7-18.1c0-13.9 10.5-32.2 15.7-32.2s15.7 18.3 15.7 32.2zm326-22.8c-3.5 8.9-9 9.8-14.6 7.6-5.5-2.2-9-6.6-5.5-15.5s14.8-18 18.2-16.7 5.4 15.7 1.9 24.6zm-95.4-61.5C311 48.3 303.3 51 294.8 49.4s-14.6-7.1-11.9-20.8S299.5-1 304.6 0s11.9 21.1 9.1 34.7zM473.9 177c-2.6 5.4-6.1 5.7-9.4 4.1-3.4-1.6-5.3-4.5-2.7-9.9 2.6-5.4 10-10.5 12.1-9.5s2.6 9.9 0 15.3zm1.4 70c-6.4 24.6-26 36.6-45.4 31.6s-31.3-25.3-24.9-49.9c6.4-24.6 28.6-44.3 48-39.2 19.5 5 28.7 32.9 22.3 57.5z" fill="#a18267"/><path d="M278.3 115.8h.1c1.3.1 5.6 3.3 9.5 11.7 5 10.9 7.1 25.5 5.7 39.3-1.2 11.8-4.9 21.9-10.4 28.3-2.6 3-6.8 6.7-12.2 6.7-.4 0-.9 0-1.4-.1-5.9-.6-9.7-5-11.9-8.5-4.7-7.5-6.5-18.4-5.3-30.6 1.4-13.2 6.1-26.4 13.1-36.1 5.6-7.8 10.8-10.7 12.8-10.7m-107.1 9.8c1.9 0 6.9 3 12.2 10.9 6.8 10.1 11.2 23.9 12.2 37.8 1.5 21.7-6.4 38.7-18.3 39.5h-1c-6 0-10.5-3.9-13.3-7.2-5.7-6.8-9.3-17.2-10.2-29.4-1-13.9 1.8-28.7 7.5-39.6 4.6-8.8 9.3-11.9 10.8-12h.1m204.2 16.8c1.2 1.1 4.1 5.1 5.9 13.8 2.1 10.4 1.6 23-1.4 34.5-5 19.1-15.3 29.4-22.6 29.4-.7 0-1.4-.1-2.1-.3-4.2-1.1-6.6-5.1-7.9-8.4-1.8-4.4-4.1-14-.2-29.3 3-11.5 8.8-22.7 15.9-30.7 6.1-6.7 10.8-8.7 12.4-9m-302 60.4c2.6 0 7.9 3.1 13.2 9.9 7 9 12.1 21.6 14 34.8 1.9 13 .6 24.8-3.8 33.3-2 3.9-5.5 8.7-10.9 9.5-.5.1-1.1.1-1.6.1-4.4 0-9.3-2.7-13.7-7.5-6.2-6.9-10.6-17.2-12.4-29.1-2-13.7-.4-27.7 4.4-38.7 3.5-7.9 7.8-11.9 10.3-12.3h.5m373.4 10.9c2.6 1.4 8 12.9 4.3 27-2.2 8.5-7.1 14-12.4 14-.8 0-1.6-.1-2.4-.3-2.8-.7-4.9-2.4-6.3-5-1.9-3.7-2.2-8.7-.7-14.4 3.4-13.2 13.8-21.3 17.5-21.3m-203.1 72.5c21.3 0 44.9 3.5 68.3 10 5.8 1.6 11.6 3.4 17.3 5.4 37.2 12.8 69.9 31.9 92.2 53.8 4.7 4.6 7.1 10.8 6.9 17.5-.3 6.6-3.2 12.6-8.2 16.9-17.1 14.4-67.7 29.6-98.4 29.6-2.1 0-4-.1-5.6-.2-7.8-.7-14.4-1.8-20.8-2.9-8.6-1.4-16.8-2.8-25.6-2.8-12.3 0-23.7 2.7-35.8 8.4-24 11.3-43.2 30.4-52.8 52.5-.9 2.1-1.8 2.9-2.1 3.2-7.4 6.1-17.1 9.5-27.4 9.5-13.7 0-26.1-5.9-33.3-15.8l-29.2-40.2c-10.3-14.1-16.9-30.8-16.9-42.6 0-14.9 12.1-29 31.6-36.9h.2c5.4-2.2 33.2-13.8 45.7-22.5 9.6-6.7 21.4-17.7 27.6-23.7l.3-.3.3-.3 1.1-1.1c11.7-11.1 35.4-17.5 64.6-17.5M304.1 0c-5.5 0-18.6 15.4-21.2 28.6-2.7 13.6 3.4 19.1 11.9 20.8 1.4.3 2.9.4 4.2.4 6.7 0 12.4-3.8 14.7-15.1 2.7-13.6-4-33.6-9.1-34.7h-.5zM176.8 3.5c-5.2 0-15.7 18.3-15.7 32.2 0 13.9 7 18.1 15.7 18.1s15.7-4.2 15.7-18.1c-.1-13.9-10.5-32.2-15.7-32.2zm229.6 68c-4 0-14.1 8.5-17.4 16.8-3.5 8.9-.1 13.3 5.5 15.5 1.6.6 3.2 1 4.7 1 3.8 0 7.4-2.3 9.8-8.6 3.5-8.9 1.4-23.3-1.9-24.6-.2-.1-.4-.1-.7-.1zm-339 15.3c-5.2 0-15.7 18.3-15.7 32.2 0 13.9 7 18.1 15.7 18.1s15.7-4.2 15.7-18.1c0-13.9-10.4-32.2-15.7-32.2zm210.9 4c-24.2 0-47.1 33.1-50.8 69.2-3.8 37.5 14.4 64 39.6 66.6 1.3.1 2.6.2 3.9.2 23.5 0 43.9-22 47.5-57.5 3.8-37.5-12.4-75.8-37.5-78.4-.9 0-1.8-.1-2.7-.1zm-107.1 9.8c-.6 0-1.2 0-1.8.1-25.6 1.8-44.2 40.2-41.5 78.3 2.6 36.8 23.9 59.9 48.4 59.9.9 0 1.8 0 2.7-.1 25.6-1.8 44.2-28.1 41.5-66.2-2.6-37.2-24.4-72-49.3-72zm204.6 16.7c-21.1 0-44.5 26.8-52.8 58.6-9 34.8 3.6 62.3 26 68.1 2.8.7 5.6 1.1 8.4 1.1 19.7 0 38.8-17.6 46.8-48.1 9-34.8 0-73.1-22.4-78.9-2-.5-4-.8-6-.8zm97.4 44.2c-2.6 0-9.1 4.7-11.5 9.7-2.6 5.4-.6 8.3 2.7 9.9 1.1.5 2.2.9 3.3.9 2.2 0 4.4-1.3 6.1-4.9 2.6-5.4 1.9-14.4-.1-15.4 0-.2-.2-.2-.5-.2zM73.4 177.8c-1.4 0-2.8.1-4.1.3-25.4 3.8-41.4 41.5-35.8 79.3 5.2 35.2 27.3 58 50.8 58 1.8 0 3.5-.1 5.3-.4 25.4-3.8 41.4-33.4 35.8-71.2-5.3-35.7-28.1-66-52-66zm373.4 10.9c-17.7 0-36 18-41.8 40-6.4 24.6 5.5 44.8 24.9 49.9 2.9.8 5.9 1.1 8.7 1.1 16.3 0 31.2-11.8 36.6-32.7 6.4-24.6-2.8-52.4-22.2-57.5-2-.5-4.1-.8-6.2-.8zm-203.1 72.5c-35.4 0-64.9 8.4-81.9 24.2-.7.6-1.4 1.3-2 2-4.6 4.4-16 15.2-24.5 21.2-10.9 7.6-40.8 19.9-40.8 19.9-28.1 11.3-47.2 34-47.2 60.1 0 17.1 8.2 38.7 21.7 57.3L98.1 486c11.4 15.7 31.1 26 53.5 26 16.8 0 32-5.8 43.4-15.3 4-3.3 7-7.7 9-12.5 6.9-16 21.1-30.7 40.5-39.8 9.5-4.5 17.4-6 25.2-6 12.4 0 24.8 3.8 44.1 5.6 2.5.2 5.1.3 8 .3 33.5 0 91-15.7 114.5-35.5 21.7-18.2 23-51.4 2.8-71.3-23.9-23.6-59.4-45.2-101.6-59.7-6.3-2.2-12.5-4.1-18.7-5.8-26.4-7.3-52-10.8-75.1-10.8z" opacity=".15" fill="#444"/></svg>