<svg xmlns="http://www.w3.org/2000/svg" viewBox="0 0 512 512" xml:space="preserve"><path d="M370.5 399.8C370.5 519.1 319.2 512 256 512s-114.5 7-114.5-112.2S192.8 80 256 80s114.5 200.5 114.5 319.8z" fill="#ddd"/><path d="M256 0C132.3 0 32 62 32 138.5V149c0 17.7 14.3 32 32 32h384c17.7 0 32-14.3 32-32v-10.5C480 62 379.7 0 256 0z" fill="#a18267"/><path d="M157.2 482c15.1 25.2 40 29.4 69.6 30h58.3c29.6-.6 54.5-4.8 69.6-30H157.2zM32.1 151c1 16.7 14.9 30 31.9 30h115.8c-3.4 9.6-6.5 19.7-9.5 30h171.5c-3-10.3-6.2-20.4-9.5-30H448c17 0 30.9-13.3 31.9-30H32.1z" fill="#444" opacity=".15"/><path d="M32 138.5V149c0 .7 0 1.3.1 2 .4 5.7 2.2 11 5.2 15.5l.1.1c.2.3.5.7.7 1l.2.2c.2.3.5.6.7.9.1.1.1.2.2.3.2.3.5.6.7.8l.3.3c.2.3.5.5.7.8l.3.3.7.7c.1.1.3.2.4.4.2.2.5.4.7.6.1.1.3.2.4.4.2.2.5.4.7.6.2.1.3.2.5.4s.5.4.7.5c.2.1.3.2.5.4s.5.3.7.5c.2.1.4.2.6.4.2.1.5.3.7.4l.6.3c.2.1.5.3.7.4l.6.3c.2.1.5.2.7.4.2.1.4.2.7.3.2.1.5.2.7.3.2.1.5.2.7.3.2.1.5.2.7.3.2.1.5.2.7.3.2.1.5.2.7.2.3.1.5.1.8.2.2.1.5.1.7.2.3.1.5.1.8.2.2.1.5.1.7.2.3.1.6.1.9.2.2 0 .5.1.7.1.3 0 .6.1.9.1.2 0 .4.1.6.1.3 0 .7.1 1 .1h118c-23.5 67.3-38.3 154.7-38.3 218.8 0 60.6 13.2 88.6 34.6 101.5.7.4 1.3.8 2 1.2.7.4 1.4.7 2 1.1.7.3 1.4.7 2.1 1l2.1.9h.1c.7.3 1.4.6 2.1.8h.1c.7.3 1.4.5 2.1.7h.1c.7.2 1.4.5 2.2.7h.1c.7.2 1.4.4 2.2.6h.1c.7.2 1.5.4 2.2.5h.2c.7.2 1.5.3 2.2.5h.2c.7.1 1.5.3 2.2.4h.2c.7.1 1.5.2 2.2.4h.3c.7.1 1.5.2 2.2.3h.3c.7.1 1.5.2 2.2.3h.3c.7.1 1.5.2 2.2.2h.4c.7.1 1.5.1 2.2.2h.4c.8.1 1.5.1 2.3.2h.4c.8 0 1.5.1 2.3.1h.3c.8 0 1.6.1 2.4.1h.3c.8 0 1.7.1 2.5.1h.2c1.3 0 2.5 0 3.8.1H256V0C132.3 0 32 62 32 138.5z" opacity=".15" fill="#444"/><path d="M428.1 124.7c-4.8 0-9.5-2.1-12.7-6.2-10.3-13.3-24.3-25.3-41.8-35.7-7.6-4.5-10-14.4-5.5-21.9 4.5-7.6 14.4-10 21.9-5.5 21 12.4 38 27.1 50.7 43.5 5.4 7 4.1 17-2.8 22.4-2.9 2.3-6.4 3.4-9.8 3.4z" opacity=".5" fill="#fff"/></svg>