<svg xmlns="http://www.w3.org/2000/svg" viewBox="0 0 512 512" xml:space="preserve"><style>.st0{fill:#ddc4b0}.st1{fill:#826049}.st2{fill:#e0ac7e}.st3{fill:#36434f}.st4{fill:#f4f4f4}</style><path class="st0" d="M418.3 164.4c3.5-2.8 13.7-8.5 22.7-12.6s25.5-4.2 36.6 0 24.5 15 29.7 24c5.2 9 6.2 27.3 2.2 40.6L495.1 264c-4 13.3-17 30.1-28.8 37.4l-16.4 10.1c-11.8 7.3-32.6 10.9-46.2 8.1l-4.9-1c-13.6-2.8-21.8-16.2-18.3-29.6l25-95.1c3.6-13.4 9.3-26.7 12.8-29.5zm-324.6 0C90.2 161.6 80 156 71 151.8s-25.5-4.2-36.6 0-24.5 15-29.7 24-6.2 27.3-2.2 40.6L16.9 264c4 13.3 17 30.1 28.8 37.4l16.4 10.1c11.8 7.3 32.6 10.9 46.2 8.1l4.9-1c13.6-2.8 21.8-16.2 18.3-29.6l-25-95.1c-3.6-13.4-9.3-26.7-12.8-29.5z"/><ellipse class="st1" cx="256" cy="210.5" rx="177.9" ry="167.4"/><ellipse class="st2" cx="256" cy="360.2" rx="90.9" ry="108.6"/><ellipse class="st2" cx="317.3" cy="221.3" rx="70.1" ry="65.7"/><ellipse class="st2" cx="194.7" cy="221.3" rx="70.1" ry="65.7"/><path class="st3" d="M269.9 300.2c-3.5 1-6.3 5.3-6.3 9.5s4 6.7 8.8 5.7c4.9-1 10.3-4.5 12-7.6s2.3-9.7 1.3-14.5c-1-4.9-3.6-5.7-5.7-1.9-2.1 3.8-6.6 7.8-10.1 8.8zm-27.8 0c3.5 1 6.3 5.3 6.3 9.5s-4 6.7-8.8 5.7c-4.9-1-10.3-4.5-12-7.6s-2.3-9.7-1.3-14.5c1-4.9 3.6-5.7 5.7-1.9 2.1 3.8 6.6 7.8 10.1 8.8zm77.7 75.2c-8 4.2-25.6 8.4-39.2 9.5-13.5 1-35.7 1-49.3 0-13.5-1-31.2-5.3-39.2-9.5s-10.5-2.2-5.7 4.4c4.9 6.6 17.9 14.6 29.1 17.7 11.1 3.1 24.8 6.3 30.3 6.9 5.6.7 14.7.7 20.2 0 5.6-.7 19.2-3.8 30.3-6.9 11.1-3.1 24.2-11.1 29.1-17.7s2.4-8.6-5.6-4.4z"/><circle class="st3" cx="194.7" cy="221.3" r="19.6"/><circle class="st4" cx="187.8" cy="211.8" r="5.1"/><circle class="st3" cx="317.3" cy="221.3" r="19.6"/><circle class="st4" cx="310.3" cy="211.8" r="5.1"/><path class="st0" d="M164.6 512c1.4-1.3 2.2-2 2.2-2 12.2-11.2 32-21.3 44.2-22.5s28.6-5.5 36.6-9.5 25.4-10.5 38.7-14.3 24.2-9.6 24.2-13-2.1-7.6-4.8-9.5c-2.6-1.9-17.8-.1-33.8 4l-5.9 1.5c-16 4.1-20.3 2.7-9.6-3.2 10.7-5.9 31.4-11.9 46.1-13.5s26.6-5.9 26.6-9.7-1.8-8.4-3.9-10.2-14.4-2.6-27.3-1.7-30.9 4-40 7c-9.2 3-9.3 1.2-.2-4.1 9-5.2 24-12.1 33.3-15.4 9.3-3.2 18.6-8.5 20.8-11.7 2.1-3.2 1.6-8.7-1.3-12.1-2.9-3.5-14.1-4.8-24.9-3s-29.5 8.3-41.5 14.5-15.7 6-8.2-.4 18.1-14.2 23.6-17.3c5.5-3.1 12.1-7.3 14.7-9.3s4-6.2 3-9.3c-1-3.1-6.2-5.6-11.7-5.6s-17 2.9-25.5 6.5c-8.6 3.6-26.5 14.5-39.8 24.3l-.5.4c-13.3 9.8-22.3 14-20.1 9.3 2.3-4.6 3.9-10.8 3.7-13.6-.2-2.9-3.3-5.6-6.7-6.1-3.5-.5-9.8 1.8-14.1 5s-12.6 14.4-18.4 24.9-12.6 22.6-15.1 27-15.3 16.2-28.4 26.2l-76 58c-3.1 2.4-5.7 5.3-7.7 8.5l147.7-.1z"/><path class="st1" d="M166.8 510c6.9-6.4 16.3-12.4 25.4-16.6-7.3-15.6-19-33-37.6-45.4-12.4-8.3-25.2-13.5-36.9-16.8-5 4.5-11.1 9.6-17.2 14.3l-76 58c-3.1 2.4-5.7 5.3-7.7 8.5h147.7c1.5-1.3 2.3-2 2.3-2z"/><path d="M484.3 512c-.9-.9-1.8-1.7-2.8-2.5l-76-58c-13.1-10-25.9-21.8-28.4-26.2-2.5-4.4-9.3-16.6-15.1-27s-14.1-21.7-18.4-24.9c-4.3-3.2-10.6-5.5-14.1-5s-6.5 3.2-6.7 6.1 1.4 9 3.7 13.6c2.3 4.6-6.8.4-20.1-9.3l-.5-.4c-13.3-9.8-31.2-20.7-39.8-24.3-8.6-3.6-20.1-6.5-25.5-6.5s-10.7 2.5-11.7 5.6.4 7.3 3 9.3 9.2 6.2 14.7 9.3c5.5 3.1 16.1 10.9 23.6 17.3s3.8 6.6-8.2.4-30.7-12.7-41.5-14.5-22-.4-24.9 3c-2.9 3.5-3.4 8.9-1.3 12.1 2.1 3.2 11.5 8.5 20.8 11.7s24.3 10.1 33.3 15.4c9 5.2 8.9 7.1-.2 4.1-9.2-3-27.2-6.1-40-7s-25.1-.1-27.3 1.7-3.9 6.4-3.9 10.2 12 8.2 26.6 9.7 35.4 7.6 46.1 13.5c10.7 5.9 6.4 7.3-9.6 3.2l-5.9-1.5c-16-4.1-31.2-5.9-33.8-4s-4.8 6.2-4.8 9.5 10.9 9.2 24.2 13 30.8 10.2 38.7 14.3 24.4 8.3 36.6 9.5c10.7 1 27.3 9 39.5 18.5l149.7.1z" opacity=".15" fill="#444"/><path class="st0" d="M347.4 512c-1.4-1.3-2.2-2-2.2-2-12.2-11.2-32-21.3-44.2-22.5s-28.6-5.5-36.6-9.5-25.4-10.5-38.7-14.3-24.2-9.6-24.2-13 2.1-7.6 4.8-9.5c2.6-1.9 17.8-.1 33.8 4l5.9 1.5c16 4.1 20.3 2.7 9.6-3.2-10.7-5.9-31.4-11.9-46.1-13.5s-26.6-5.9-26.6-9.7 1.8-8.4 3.9-10.2 14.4-2.6 27.3-1.7 30.9 4 40 7c9.2 3 9.3 1.2.2-4.1-9-5.2-24-12.1-33.3-15.4-9.3-3.2-18.6-8.5-20.8-11.7-2.1-3.2-1.6-8.7 1.3-12.1 2.9-3.5 14.1-4.8 24.9-3s29.5 8.3 41.5 14.5c12 6.2 15.7 6 8.2-.4S258 369 252.5 365.9s-12.1-7.3-14.7-9.3c-2.6-2-4-6.2-3-9.3 1-3.1 6.2-5.6 11.7-5.6s17 2.9 25.5 6.5c8.6 3.6 26.5 14.5 39.8 24.3l.5.4c13.3 9.8 22.3 14 20.1 9.3-2.3-4.6-3.9-10.8-3.7-13.6.2-2.9 3.3-5.6 6.7-6.1 3.5-.5 9.8 1.8 14.1 5 4.3 3.2 12.6 14.4 18.4 24.9s12.6 22.6 15.1 27 15.3 16.2 28.4 26.2l76 58c3.1 2.4 5.7 5.3 7.7 8.5l-147.7-.1z"/><path class="st1" d="M345.2 510c-6.9-6.4-16.3-12.4-25.4-16.6 7.3-15.6 19-33 37.6-45.4 12.4-8.3 25.2-13.5 36.9-16.8 5 4.5 11.1 9.6 17.2 14.3l76 58c3.1 2.4 5.7 5.3 7.7 8.5H347.4c-1.4-1.3-2.2-2-2.2-2z"/></svg>