<svg version="1.1" xmlns="http://www.w3.org/2000/svg" x="0" y="0" viewBox="0 0 512 512" xml:space="preserve"><style type="text/css">.st0{fill:#6f6296}</style><path class="st0" d="m317.4 35.7 11.6 2.8c8.8 2.1 18-1.2 23.4-8.5l17.4-23.5c7-9.5 21.6-8.2 26.9 2.3l2.4 4.7c7.8 15.6 4.1 34.4-8.9 45.9l-9.1 8.1c-3.5 3.1-7.4 5.6-11.7 7.4l-22.7 9.7-29.3-48.9zm-122.8 0L183 38.5c-8.8 2.1-18-1.2-23.4-8.5L142.3 6.4c-7-9.5-21.6-8.2-26.9 2.3l-2.4 4.7c-7.8 15.6-4.1 34.4 8.9 45.9l9.1 8.1c3.5 3.1 7.4 5.6 11.7 7.4l22.7 9.7 29.2-48.8z"/><path d="M369.3 74.9c-8.9-14.1-17.9-25.8-26.1-33.8-1-1-2-1.9-3-2.9-3.6 1-7.5 1.1-11.3.2l-11.6-2.8 29.2 49 22.8-9.7zm-226.6 0 22.8 9.8 29.2-49-11.6 2.8c-3.8.9-7.7.8-11.3-.2-1 .9-2 1.9-3 2.9-8.3 8-17.2 19.6-26.1 33.7z" fill="#444" opacity=".15"/><path d="M337.4 47.1C408 116.2 539.3 469.3 256 469.3S103.9 116.2 174.6 47.1c25.8-25.3 57-36.4 81.4-36.4s55.6 11.1 81.4 36.4z" fill="#827ea3"/><ellipse class="st0" cx="256" cy="385.9" rx="165.7" ry="126.1"/><path d="M185.3 455.9c-2.1.4-2.3 3.4-.2 4 20.1 6 43.6 9.3 70.9 9.3s50.9-3.3 70.9-9.3c2.1-.6 1.9-3.6-.2-4-21.9-4.2-45.7-6.4-70.7-6.4s-48.9 2.3-70.7 6.4z" fill="#d0a297"/><path d="M325.7 325c-1.6-4.1-2.4-8.5-2.4-13.1 0-7.1 2-13.8 5.6-19.4 1.3-2 3.9-2.5 5.9-1.2 6 4.2 10.7 10.1 13.3 17.1.4 1.2.3 2.5-.3 3.6-3.7 6.6-9.5 12-16.4 15.2-2.3 1.1-4.9 0-5.7-2.2zm-139.4 0c1.6-4.1 2.4-8.5 2.4-13.1 0-7.1-2-13.8-5.6-19.4-1.3-2-3.9-2.5-5.9-1.2-6 4.2-10.7 10.1-13.3 17.1-.4 1.2-.3 2.5.3 3.6 3.7 6.6 9.5 12 16.4 15.2 2.3 1.1 4.9 0 5.7-2.2zm165.3-185.3c0 2.8.4 5.5 1.2 8.1 7.6-4.9 12.6-13.5 12.6-23.2 0-2.8-.4-5.5-1.2-8.1-7.5 4.9-12.6 13.5-12.6 23.2zm-191.2 0c0 2.8-.4 5.5-1.2 8.1-7.6-4.9-12.6-13.5-12.6-23.2 0-2.8.4-5.5 1.2-8.1 7.5 4.9 12.6 13.5 12.6 23.2z" fill="#36434f"/><path d="m184.7 38.1-1.7.4-1.5.3c-.2 0-.4 0-.5.1-.3 0-.7.1-1 .1h-3.7c-.3 0-.5 0-.8-.1-.3 0-.5-.1-.8-.1-.2 0-.5-.1-.7-.1-.7-.1-1.5-.3-2.2-.5-4.7-1.3-9-4.2-12.1-8.3L142.3 6.4c-7-9.5-21.6-8.2-26.9 2.3l-2.4 4.7c-7.8 15.6-4.1 34.4 8.9 45.9l9.1 8.1c3.5 3.1 7.4 5.6 11.7 7.4l7.7 3.3C107.4 145.5 61.5 278 91.5 370c-.8 5.2-1.3 10.4-1.3 15.8C90.3 455.5 164.5 512 256 512V10.7c-21.3 0-47.7 8.4-71.3 27.4z" opacity=".15" fill="#444"/></svg>