<svg xmlns="http://www.w3.org/2000/svg" viewBox="0 0 512 512" xml:space="preserve"><path d="M370.5 399.8C370.5 519.1 319.2 512 256 512s-114.5 7-114.5-112.2S192.8 80 256 80s114.5 200.5 114.5 319.8z" fill="#ddd"/><path d="M256 0C132.3 0 32 62 32 138.5V149c0 17.7 14.3 32 32 32h384c17.7 0 32-14.3 32-32v-10.5C480 62 379.7 0 256 0z" fill="#a18267"/><path d="M157.2 482c15.1 25.2 40 29.4 69.6 30h58.3c29.6-.6 54.5-4.8 69.6-30H157.2zM32.1 151c1 16.7 14.9 30 31.9 30h115.8c-3.4 9.6-6.5 19.7-9.5 30h171.5c-3-10.3-6.2-20.4-9.5-30H448c17 0 30.9-13.3 31.9-30H32.1z" fill="#444" opacity=".15"/><path d="M428.1 124.7c-4.8 0-9.5-2.1-12.7-6.2-10.3-13.3-24.3-25.3-41.8-35.7-7.6-4.5-10-14.4-5.5-21.9 4.5-7.6 14.4-10 21.9-5.5 21 12.4 38 27.1 50.7 43.5 5.4 7 4.1 17-2.8 22.4-2.9 2.3-6.4 3.4-9.8 3.4z" opacity=".5" fill="#fff"/></svg>