<svg version="1.1" xmlns="http://www.w3.org/2000/svg" x="0" y="0" viewBox="0 0 512 512" xml:space="preserve"><style type="text/css">.st0{fill:#ddd}.st1{fill:#999}.st5{fill:#e0ac7e}.st6{fill:#36434f}.st7{fill:#f4f4f4}</style><path class="st0" d="M181 174s-53-45-72-59S20 76 8 90s46 104 68 120 80 33 80 33l25-69z"/><path class="st1" d="M172 183.8s-30.7-27.5-41.6-36-51.5-23.8-58.5-15.3 26.6 63.5 39.3 73.3 46.3 20.2 46.3 20.2l14.5-42.2z"/><path class="st0" d="M331 174s53-45 72-59 89-39 101-25-46 104-68 120-80 33-80 33l-25-69z"/><path class="st1" d="M340 183.8s30.7-27.5 41.6-36c11-8.6 51.5-23.8 58.4-15.3 6.9 8.6-26.6 63.5-39.3 73.3S354.5 226 354.5 226L340 183.8z"/><path d="m379.4 199.3-32-39.1c-9.6 8-16.4 13.8-16.4 13.8l25 69s15.2-4.4 32.9-10.9c1.5-11.7-1.9-23.5-9.5-32.8zm-246.8 0c-7.6 9.3-10.9 21.1-9.5 32.8C140.8 238.6 156 243 156 243l25-69s-6.8-5.8-16.4-13.9l-32 39.2z" opacity=".15" fill="#444"/><path d="m367 209.4-34-41.7c-3.5-4.3-5.5-9.8-5.5-15.3v-12.8c0-3 .5-6.1 1.4-8.9l1.2-3.5c2.2-6.5 1.7-13.7-1.2-19.9l-4.4-9.3 9.3-64.1c1.1-7.7-.4-15.5-4.4-22.2C325.1 4.4 317.4 0 309 0h-6.5c-7.2 0-13 5.8-13 13v35.3c0 9.3-4.1 18.1-11.3 24l-8.8 8.1c-3.8 3.5-8.6 5.3-13.5 5.3s-9.7-1.8-13.5-5.3l-8.8-8.1c-7.1-5.9-11.3-14.8-11.3-24V13c0-7.2-5.8-13-13-13H203c-8.4 0-16.2 4.4-20.4 11.7-4 6.7-5.5 14.5-4.4 22.2l9.3 64.1-4.4 9.3c-3 6.2-3.4 13.4-1.2 19.9l1.2 3.5c1 2.9 1.4 5.9 1.4 8.9v12.8c0 5.6-1.9 11-5.5 15.3l-34 41.7c-5.9 7.2-7.8 17-4.9 25.9l5.3 16.4v.1l11.1 34.8.1.4 47.9 150 47.5 1h8l47.5-1 47.9-150 .1-.4 11.1-34.9 5.3-16.4c2.9-8.9 1-18.7-4.9-25.9z" fill="#e3b877"/><path d="M222.5 13v12h-44.4c.6-4.7 2.1-9.2 4.5-13.3C186.9 4.4 194.6 0 203 0h6.5c7.2 0 13 5.8 13 13zm106.9-1.3C325.1 4.4 317.4 0 309 0h-6.5c-7.2 0-13 5.8-13 13v12h44.4c-.6-4.7-2.1-9.2-4.5-13.3z" opacity=".5" fill="#444"/><path class="st5" d="M208.4 383c-9.6 13.7-15.4 31.5-15.4 51 0 43.1 28.2 78 63 78s63-34.9 63-78c0-19.5-5.8-37.3-15.4-51h-95.2z"/><ellipse class="st5" cx="256" cy="408" rx="32" ry="28"/><path class="st5" d="M224 370c-12.7 0-22 13-22 31s9.3 31 22 31 22-13 22-31-9.3-31-22-31zm64 0c-12.7 0-22 13-22 31s9.3 31 22 31 22-13 22-31-9.3-31-22-31z"/><ellipse class="st6" cx="288" cy="401" rx="10" ry="19"/><ellipse class="st6" cx="224" cy="401" rx="10" ry="19"/><circle class="st7" cx="190" cy="258.8" r="26.3"/><circle class="st6" cx="190" cy="258.8" r="11.5"/><circle class="st7" cx="185.8" cy="255.1" r="3.7"/><circle class="st7" cx="322" cy="258.8" r="26.3"/><circle class="st6" cx="322" cy="258.8" r="11.5"/><circle class="st7" cx="317.8" cy="255.1" r="3.7"/><path d="M255.9 85.7c-4.9 0-9.7-1.8-13.5-5.3l-8.8-8.1c-7.1-5.9-11.3-14.8-11.3-24V25h.2V13c0-7.2-5.8-13-13-13H203c-8.4 0-16.2 4.4-20.4 11.7-4 6.7-5.5 14.5-4.4 22.2l9.3 64.1-4.4 9.3c-3 6.2-3.4 13.4-1.2 19.9l1.2 3.5c1 2.9 1.4 5.9 1.4 8.9v12.8c0 5.6-1.9 11-5.5 15.3l-2.2 2.7c-2.9-2.5-7.2-6.1-12.2-10.3-17.2-14.4-43.4-36.1-55.6-45.1C90 101 20 76 8 90s46 104 68 120c10.8 7.8 30.1 15.9 47.1 22.1 6.6 2.4 12.8 4.5 18 6.2l4.3 13.4v.1l11.1 34.8.1.4L196 410.3c-1.9 7.5-3 15.4-3 23.7 0 43.1 28.2 78 63 78l-.1-426.3c.1 0 0 0 0 0z" opacity=".15" fill="#444"/></svg>