<svg version="1.1" xmlns="http://www.w3.org/2000/svg" x="0" y="0" viewBox="0 0 512 512" xml:space="preserve"><style type="text/css">.st0{fill:#ddd}.st1{fill:#bbb}.st2{opacity:.15;fill:#444}</style><path class="st0" d="M302.3 90.2c16.2 45.5 63.5 178.4 63.5 178.4.8 2.4 2.2 4.5 4 6.2l5.4 5.2-7.5 8.3c-1.5 1.6-2 4-1.2 6.1l14.3 40.2 34.6-16.7 12.1-23.2-10.5-29.6S365.5 93.3 348.2 56.8C330.9 20.3 294.8 0 294.8 0s-8.6 44.7 7.5 90.2z"/><path class="st1" d="M342.2 76.1c4.6 12.9 11.5 24.3 20.1 34-1.5-7.1-3.5-14.3-6-21.3-5-14-11.6-26.9-19.7-38.5.7 8.5 2.5 17.2 5.6 25.8z"/><path class="st2" d="M427.4 294.8l-10.5-29.6s-3.1-10.4-8.1-26.7c-4.8 6.3-8.6 14.5-11.3 24.9-5.6 21.4-4.2 42.7 2.7 61.9l15.2-7.3 12-23.2z"/><path class="st0" d="M498.5 179.5c-1.4 1.1-3.8 2.7-8.1 5-8.9 4.8-27.7-.5-40.1 26.3l22.1 10.2c3.1 1.4 4.4 5 3 8.1l-17 36.9c-.1.2-.1.3-.2.5-3.7 8.1-13.5 11.5-21.5 7.4-7.2-3.7-10.4-12.5-7.4-19.9.8-2.1 2.1-3.8 3.6-5.3 1.4-1.4 3-2.5 4.8-3.2 3.4-1.4 3.7-6.2.4-7.8 0 0-.1 0-.1-.1-1.1-.5-2.3-.4-3.4.2-1.7.9-3.3 2-4.8 3.1-6.7 5.1-12.6 12.8-17.7 23.8-11.5 25-12.2 52.2-4.1 76.4l34.3 15.8 56.9-123.6c9.7-21.2 12.2-40.1 12.8-47.1.1-1.7-.8-3.3-2.3-4l-7-3.2c-1.4-.6-3-.5-4.2.5z"/><path class="st1" d="M484 234.7c-5.3 11.5-8.1 23.5-8.6 35.4 5.7-9.1 11-18.7 15.6-28.8 5.3-11.5 9.6-23.1 13.1-34.9-8.1 7.9-15 17.4-20.1 28.3z"/><path class="st0" d="M107.2 178.1c5-21-1.7-59.5-1.7-59.5S71 144.1 65.3 168.1 26.6 330.8 26.6 330.8l41.9 10s33.7-141.8 38.7-162.7z"/><path class="st2" d="M76.7 288c3.1-3.5 5.2-6.2 5.3-7.5.4-5.1-1.2-1.7-.5-9.4s3.2-7.1 3.6-10.9c.3-3.8 1.3-15.3 1.6-17.9.2-2.3-4.7-7.2-9.4-8.4-.8-.2-1.5.4-1.6 1.1l-.7 9s-14.4 0-26.1-7.2c-7.1 29.6-14.6 61.1-18.8 79.1l16.6 1.5s10.8-9.8 20.4-19.3c1 2.7 3.5 4.7 6.5 5 1.4.1 2.8-.2 4-.7.9-3.7 1.8-7.6 2.8-11.6-.9-1.3-2.2-2.3-3.7-2.8z"/><path class="st0" d="M71.8 299.3c1.2 1.9 3.4 3.1 5.8 2.8 3.3-.4 5.7-3.3 5.3-6.6-.3-2.8-2.5-5-5.3-5.3 1.9-3.1 3-5.6 2.9-6.5-.4-4-10.2-.9-10.8-6.9-.7-6 10.4-6.2 10.1-9.2-.3-3-1.3-11.9-1.6-13.9-.2-1.8-4.7-4.8-8.5-5-.6 0-1.1.5-1 1.1l.8 6.9s-33.5 6.8-36.8-23.1 8-37.2 6.3-52.1c-1.1-10.3-4.4-21.9-6.2-28-.8-2.6-3.2-4.3-6-4.2l-19.5.7c-1.8.1-3.3 1.3-3.8 3.1-1.5 6.3-4.6 21.7-3.1 34.7l14.3 128.4c.4 3.3 3.3 5.7 6.6 5.3l37.8-4.2c0-.1 6.8-9.2 12.7-18z"/><path class="st1" d="M8.4 214.6c1.3 11.5 3.1 22.7 5.4 33.8 2.8-12 3.6-24.7 2.2-37.7-1.4-12.5-4.8-24.2-9.8-35 0 12.9.8 25.8 2.2 38.9z"/><path d="M411.9 399.3H62.6c-23.2 0-42-18.8-42-42v-12.5c0-23.2 18.8-42 42-42h349.2c23.2 0 42 18.8 42 42v12.5c.1 23.2-18.7 42-41.9 42z" fill="#cc584c"/><path fill="#f4f4f4" d="M367.7 344.2h-17.2v-17.3h-13.8v17.3h-17.3V358h17.3v17.2h13.8V358h17.2z"/></svg>