<svg version="1.1" xmlns="http://www.w3.org/2000/svg" x="0" y="0" viewBox="0 0 512 512" xml:space="preserve"><style type="text/css">.st0{fill:#4b5d6b}.st1{fill:#36434f}</style><path class="st0" d="M231.3 125.6c1.6-7.8 8.4-13.6 16.7-13.6h9L269 0h7s12 80 12 90-6 28-6 35v30.5c0 10.8-8.7 19.5-19.5 19.5H249l-8 22-18-10s8.2-60.9 8.3-61.4z"/><path class="st1" d="M260.2 82H272v30h-15zM269 0h7s12 80 12 90v1.3c-3.3-10.1-10.4-28.4-19-31.3-2.5-.8-4.5-1.4-6.2-1.7L269 0z"/><path class="st0" d="M280.7 125.6c-1.6-7.8-8.4-13.6-16.7-13.6h-9L243 0h-7s-12 80-12 90 6 28 6 35v30.5c0 10.8 8.7 19.5 19.5 19.5H263l8 22 18-10s-8.2-60.9-8.3-61.4z"/><path class="st1" d="M249.5 175h-.5l-1.4 3.9c-10.4-.8-18.8-8.4-21-18.3 1.2-9 2.5-18.5 3.4-25.4v20.3c0 10.8 8.7 19.5 19.5 19.5zm14.5-67h-5.4l-.6-5.4-1 9.4h7c8.2 0 15.1 5.8 16.7 13.6 0 .1.6 3.9 1.3 9.6V125c0-1.4.3-3.4.7-5.6-3.6-6.8-10.7-11.4-18.7-11.4zm-12.2-26H240v30h15zM243 0h-7s-12 80-12 90v1.3c3.3-10.1 10.4-28.4 19-31.3 2.5-.8 4.5-1.4 6.2-1.7L243 0z"/><path class="st0" d="M224.6 238c-.6 0-1.3-.3-1.7-.9-.6-.9-.4-2.2.5-2.8l35-24c.9-.6 2.2-.4 2.8.5s.4 2.2-.5 2.8l-35 24c-.3.3-.7.4-1.1.4z"/><path class="st0" d="M287.4 238c.6 0 1.3-.3 1.7-.9.6-.9.4-2.2-.5-2.8l-35-24c-.9-.6-2.2-.4-2.8.5s-.4 2.2.5 2.8l35 24c.3.3.7.4 1.1.4z"/><path d="M242.6 192.1l-25.9-37.6c-1.7-2.7-5.2-3.5-7.9-1.9l-31.1 17.9c-2.4 1.4-3.5 4.1-2.8 6.7 2.5 9.5 7.6 32.6 3.7 52.6-6 34.2-61 108.2-65 160.2s3.3 87.9 5.4 107.3c.4 3.5 2.2 6.6 5.1 8.6l5.7 4c3.5 2.4 8.1 2.8 12 .9l13.4-6.4c3.4-1.6 5.8-4.7 6.5-8.3l2.2-10.4c.4-1.8.3-3.7-.1-5.5-3-11.4-13.8-59.6-4.3-101.3 5.2-22.7 27.1-63.7 46-102l5.7-11.7 23-23.7c1.3-1.3 1.1-3.4-.4-4.5l-6.7-4.9c7.6-16 13.4-28.5 16-34.1.9-1.9.7-4.2-.5-5.9zM398.4 390c-4-52-59-126-65-160.2-3.9-20 1.2-43.1 3.7-52.6.7-2.6-.4-5.3-2.8-6.7l-31.1-17.9c-2.7-1.6-6.2-.8-7.9 1.9l-25.9 37.6c-1.2 1.7-1.4 4-.5 5.9 2.6 5.5 8.4 18 16 34.1l-6.7 4.9c-1.5 1.1-1.7 3.2-.4 4.5l23 23.7c1.9 3.8 3.8 7.7 5.7 11.7 18.9 38.3 40.8 79.3 46 102 9.5 41.7-1.3 89.9-4.3 101.3-.4 1.8-.5 3.7-.1 5.5l2.2 10.4c.7 3.6 3.1 6.7 6.5 8.3l13.4 6.4c3.9 1.9 8.5 1.5 12-.9l5.7-4c2.9-2 4.7-5.1 5.1-8.6 2.1-19.4 9.4-55.3 5.4-107.3z" fill="#038387"/><path class="st1" d="M118.4 446.1l-5 1.7c1.5 21.9 4.4 38.4 5.6 49.6.4 3.5 2.2 6.6 5.1 8.6l5.7 4c3.5 2.4 8.1 2.8 12 .9l13.4-6.4c3.4-1.6 5.8-4.7 6.5-8.3l2.2-10.4c.3-1.6.3-3.3 0-4.9l-39.8-33.6c-1.5-1.5-3.7-1.9-5.7-1.2zm99.7-252.5l-21.3-34.2-19.2 11c-2.4 1.4-3.5 4.1-2.8 6.7 2.5 9.5 7.6 32.6 3.7 52.6-6 34.2-61 108.2-65 160.2-.8 10.5-1.1 20.4-1.2 29.6l9.2-12.2c.7-1 1.1-2.1 1.2-3.4.2-4.5.5-9.2.8-14 2.7-35 28.4-79.9 46.8-115.9.4-.8 1-1.5 1.7-2l28.9-21.9c1-.7 1.7-1.8 2.1-3l15.6-48.5c.7-1.6.5-3.5-.5-5zm175.5 252.5l5 1.7c-1.5 21.9-4.4 38.4-5.6 49.6-.4 3.5-2.2 6.6-5.1 8.6l-5.7 4c-3.5 2.4-8.1 2.8-12 .9l-13.4-6.4c-3.4-1.6-5.8-4.7-6.5-8.3l-2.2-10.4c-.3-1.6-.3-3.3 0-4.9l39.8-33.6c1.5-1.5 3.7-1.9 5.7-1.2zm-99.7-252.5l21.3-34.2 19.2 11c2.4 1.4 3.5 4.1 2.8 6.7-2.5 9.5-7.6 32.6-3.7 52.6 6 34.2 61 108.2 65 160.2.8 10.5 1.1 20.4 1.2 29.6l-9.2-12.2c-.7-1-1.1-2.1-1.2-3.4-.2-4.5-.5-9.2-.8-14-2.7-35-28.4-79.9-46.8-115.9-.4-.8-1-1.5-1.7-2l-28.9-21.9c-1-.7-1.7-1.8-2.1-3l-15.6-48.5c-.7-1.6-.5-3.5.5-5z"/><path d="M253.5 210.4c-.9-.6-2.2-.4-2.8.5s-.4 2.2.5 2.8l1.2.8-25.1 17.2c7.5-15.9 13.3-28.3 15.8-33.7.9-1.9.7-4-.4-5.7l4.8-13.3 1.4-3.9h7v-63h-1l-5.8-53.7L243 0h-7s-12 80-12 90v1.3c.4 10.2 6 27 6 33.7v10.2c0 .3-.1.7-.1 1-.2 1.2-.3 2.4-.5 3.7v.3c0 .2-.1.5-.1.7-.2 1.4-.4 2.9-.6 4.4v.2c-.9 7-2 14.8-2.9 21.8l-8.9-13c-1.8-2.6-5.2-3.4-7.9-1.8l-11.9 6.9-19.2 11c-.3.2-.6.4-.8.6-1.3 1.1-2.1 2.6-2.2 4.2 0 .7 0 1.3.2 2 .5 1.8 1 4 1.6 6.7.1.4.2.9.3 1.3.2.9.4 1.9.6 2.9.9 4.5 1.7 9.6 2.2 15.1.1 1.2.2 2.5.3 3.7.5 7.5.3 15.4-1.2 22.9-6 34.2-61 108.2-65 160.2-.1 1.5-.2 2.9-.3 4.4 0 .5-.1 1-.1 1.6-.1.9-.1 1.8-.2 2.7 0 .7-.1 1.3-.1 2s-.1 1.4-.1 2.1c0 .8-.1 1.5-.1 2.3v1.3c-.1 3.3-.2 6.6-.2 9.7-.1 11.6.3 22.1.9 31.7 1.2 16.9 3.2 30.6 4.6 41.1 0 .2.1.5.1.7.1.5.1.9.2 1.4.1.4.1.8.1 1.1 0 .4.1.7.1 1.1.1.5.1.9.2 1.3 0 .3.1.5.1.8.1.7.2 1.3.2 2v.1c.4 3.5 2.2 6.6 5.1 8.6l5.7 4c3.5 2.4 8.1 2.8 12 .9l13.4-6.4c3.4-1.6 5.8-4.7 6.5-8.3l2.2-10.4c.1-.4.2-.8.2-1.3v-1.2c0-.4 0-.8-.1-1.2l-.3-1.8c-3-11.4-13.8-59.6-4.3-101.3 5.2-22.7 27.1-63.7 46-102 1.9-3.9 3.9-7.9 5.7-11.7l22.9-23.6c1.3-1.3 1.1-3.4-.4-4.5l-3.4-2.5 25.6-17.6V212l-2.6-1.6z" opacity=".15" fill="#444"/></svg>