<svg version="1.1" xmlns="http://www.w3.org/2000/svg" x="0" y="0" viewBox="0 0 512 512" xml:space="preserve"><path d="M322.9 478L304 107l-20-11h-56l-20 11-18.9 371c-.1 1.3-.5 2.5-1.3 3.5l-6.4 7.8c-.9 1.1-1.4 2.4-1.4 3.8V512h152v-18.9c0-1.4-.5-2.7-1.4-3.8l-6.4-7.8c-.8-1-1.2-2.2-1.3-3.5z" fill="#bbb"/><path d="M256 0c-20.2 0-36.5 3.1-36.5 7v89h73V7c0-3.9-16.3-7-36.5-7z" fill="#4b5d6b"/><path d="M256 105c43.3 0 47.7 1.9 48 2l-20-11h-56l-20 11c.3-.1 4.7-2 48-2z" fill="#ddd"/><path d="M228 2.5V96h-4V3.6c1.1-.4 2.5-.7 4-1.1zm7-1.2V96h4V.8c-1.4.1-2.7.3-4 .5zm49 1.2V96h4V3.6c-1.1-.4-2.5-.7-4-1.1zM256 0h-2v96h4V0h-2zm17 .8V96h4V1.3c-1.3-.2-2.6-.4-4-.5z" fill="#36434f"/><path d="M254 0c-5.4.1-10.5.3-15 .8-5.3.5-9.8 1.3-13.1 2.2-.3.1-.7.2-1 .3-3.4 1.1-5.4 2.3-5.4 3.7v89h8.5l-20 11-16.5 324.5-2.4 46.5c-.1 1.3-.5 2.5-1.3 3.5l-5.3 6.5-1.1 1.3c-.9 1.1-1.4 2.4-1.4 3.8V512h76V0h-2z" opacity=".15" fill="#444"/></svg>