<svg version="1.1" xmlns="http://www.w3.org/2000/svg" x="0" y="0" viewBox="0 0 512 512" xml:space="preserve"><style type="text/css">.st0{fill:#ff8b00}.st1{fill:#ffb000}.st2{fill:#a53}</style><path class="st0" d="M429.8 182.6c-5.5 6.5-7.9 30.4-11.8 36.5s-8.5 9.5-15.1 9.5-12.3-3.8-15-9.3c-.4 1.9-.7 3.9-.7 5.9 0 3.5.7 6.8 1.9 9.9-8.3 1.1-16.4 2.5-16.4 3.6 0 2.2 9 43.7 9 43.7s10.1-14.6 19-21.3c6.1-4.5 14.8-8 19.8-9.7 1.4-.3 2.7-.8 3.9-1.3 9.7-4 16.6-13.6 16.6-24.8 0-2-.2-3.9-.6-5.7 0 0-2.7-11.1-2.7-17.8 0-3.2 1.5-5.8 3.1-7.8 2 1.4 4.4 2.2 7 2.2 6.8 0 12.3-5.5 12.3-12.3 0-6.8-6.7-12.3-12.3-12.3s-11.3 2.1-18 11zm-402.4-6.7c-10.2 0-18.5 8.3-18.5 18.5s8.3 18.5 18.5 18.5 18.5-8.3 18.5-18.5c-.1-10.3-8.3-18.5-18.5-18.5zm0 28.5c-5.6 0-10.1-4.5-10.1-10.1s4.5-10.1 10.1-10.1 10.1 4.5 10.1 10.1c-.1 5.6-4.6 10.1-10.1 10.1z"/><path class="st0" d="M40.6 150.7s-4.9-7.3-13.3-7.3-13.3 7.3-13.3 7.3c-1 1.5-1.9 3.5-1.9 4.5s.5 1.7 1.1 1.7c.6 0 1.9 1.3 2.8 2.9l1.1 2c.9 1.6 1.7 4.4 1.7 6.3v11.2h16.8V168c0-1.8.8-4.7 1.7-6.3l1.1-2c.9-1.6 2.2-2.9 2.8-2.9s1.1-.8 1.1-1.7-.7-2.9-1.7-4.4zm19.2 25.2c-10.2 0-18.5 8.3-18.5 18.5s8.3 18.5 18.5 18.5 18.5-8.3 18.5-18.5c0-10.3-8.2-18.5-18.5-18.5zm0 28.5c-5.6 0-10.1-4.5-10.1-10.1s4.5-10.1 10.1-10.1 10.1 4.5 10.1 10.1-4.5 10.1-10.1 10.1z"/><path class="st0" d="M72.7 185.9h15.7v13.4H72.7zm15.7-23.5h13.4v40.3H88.4zm-4.5 40.4h22.4v62.7H83.9z"/><path class="st0" d="M75 231.9h72.8v16.8H75zm0 16.8v-16.8c-20.4 0-37 16.6-37 37h16.8c0-11.2 9.1-20.2 20.2-20.2zM338.9 66.1c-8.4 0-13.3 7.3-13.3 7.3-1 1.5-1.9 3.5-1.9 4.5 0 .9.5 1.7 1.1 1.7.6 0 1.9 1.3 2.8 2.9l1.1 2c.9 1.6 1.7 4.4 1.7 6.3v15.7c0 1.8 1.5 3.4 3.4 3.4h10c1.8 0 3.4-1.5 3.4-3.4V90.7c0-1.8.8-4.7 1.7-6.3l1.1-2c.9-1.6 2.2-2.9 2.8-2.9.6 0 1.1-.8 1.1-1.7 0-.9-.8-2.9-1.9-4.5.2.1-4.7-7.2-13.1-7.2zm-164.7 0c8.4 0 13.3 7.3 13.3 7.3 1 1.5 1.9 3.5 1.9 4.5 0 .9-.5 1.7-1.1 1.7-.6 0-1.9 1.3-2.8 2.9l-1.1 2c-.9 1.6-1.7 4.4-1.7 6.3v15.7c0 1.8-1.5 3.4-3.4 3.4h-10c-1.8 0-3.4-1.5-3.4-3.4V90.7c0-1.8-.8-4.7-1.7-6.3l-1.1-2c-.9-1.6-2.2-2.9-2.8-2.9s-1.1-.8-1.1-1.7c0-.9.8-2.9 1.9-4.5-.1.1 4.8-7.2 13.1-7.2z"/><path class="st1" d="M392.7 119.9h-11.2c-1.8 0-4.2-1.2-5.3-2.8l-8.5-12.4c-1-1.5-3.4-2.8-5.3-2.8H358c-1.8 0-4.5-1-5.9-2.2l-1.6-1.3c-1.4-1.2-4.1-2.2-5.9-2.2H330c-1.8 0-4.5-1-5.9-2.2l-27.5-24.6c-1.4-1.2-2.5-3.8-2.5-5.6v-6.7c0-1.8 1.1-4.4 2.4-5.7l9.8-9.8c1.3-1.3 2.4-3.9 2.4-5.7V20.2c0-1.8 1.4-3.9 3.1-4.6l8.3-3.2c1.7-.7 3.1-2.7 3.1-4.6V3.4c0-1.8-1.5-3.4-3.4-3.4H192.1c-1.8 0-3.4 1.5-3.4 3.4v4.5c0 1.8 1.4 3.9 3.1 4.6l8.3 3.2c1.7.7 3.1 2.7 3.1 4.6V36c0 1.8 1.1 4.4 2.4 5.7l9.8 9.8c1.3 1.3 2.4 3.9 2.4 5.7v6.7c0 1.8-1.1 4.4-2.5 5.6l-27.5 24.6c-1.4 1.2-4 2.2-5.9 2.2h-14.6c-1.8 0-4.5 1-5.9 2.2l-1.6 1.3c-1.4 1.2-4.1 2.2-5.9 2.2h-4.5c-1.8 0-4.2 1.2-5.3 2.8l-8.5 12.4c-1 1.5-3.4 2.8-5.3 2.8h-11.2c-1.8 0-3.4 1.5-3.4 3.4v1.1c0 1.8 1.5 3.7 3.3 4.2l23.7 6.2c1.8.5 3.3 2.4 3.3 4.2v25.3c-16.6 21.2-26.3 47.3-26.3 75.5 0 53.4 35 99.2 84.6 118.2v29.6c0 1.8 1.1 4.4 2.4 5.7l6.5 6.5c1.3 1.3 2.4 3.9 2.4 5.7v7.8c0 1.8-1.1 4.4-2.4 5.7L184.4 448c-1.3 1.3-2.4 3.9-2.4 5.7V485c0 1.8-1 4.4-2.3 5.8l-10.5 10.8c-1.3 1.3-2.3 3.9-2.3 5.8v1.1c0 1.8 1.5 3.4 3.4 3.4h19c1.8 0 4.7-.7 6.4-1.5l.7-.4c1.7-.8 3.8-2.8 4.9-4.3l14-21.1c4.5-1.9 10.1-3 16-3 10.6 0 19.9 3.6 24.6 8.8 4.7-5.3 14-8.8 24.6-8.8 6 0 11.5 1.1 16 3l14 21.1c1 1.5 3.2 3.5 4.9 4.3l.7.4c1.7.8 4.5 1.5 6.4 1.5h19c1.8 0 3.4-1.5 3.4-3.4v-1.1c0-1.8-1-4.4-2.3-5.8l-10.5-10.8c-1.3-1.3-2.3-3.9-2.3-5.8v-31.3c0-1.8-1.1-4.4-2.4-5.7l-28.9-28.9c-1.3-1.3-2.4-3.9-2.4-5.7v-7.8c0-1.8 1.1-4.4 2.4-5.7l6.5-6.5c1.3-1.3 2.4-3.9 2.4-5.7V358C357 338.9 392 293.2 392 239.8c0-28.3-9.8-54.4-26.3-75.5V139c0-1.8 1.5-3.7 3.3-4.2l23.7-6.2c1.8-.5 3.3-2.4 3.3-4.2v-1.1c0-1.9-1.5-3.4-3.3-3.4zm-161.4 331l.4.4c1.3 1.3 1.7 3.1.8 4-.9.9-2.2.9-3 .1-.8-.8-1.5-.5-1.5.6s-1 2.1-2.2 2.1c-1.2 0-2.2-.9-2.2-2.1 0-1.1-.7-1.4-1.5-.6s-2.2.7-3-.1c-.9-.9-.5-2.7.8-4l.4-.4c1.3-1.3 1.3-3.4 0-4.8l-.4-.4c-1.3-1.3-1.7-3.1-.8-4 .9-.9 2.2-.9 3-.1.8.8 1.5.5 1.5-.6s1-2.1 2.2-2.1c1.2 0 2.2.9 2.2 2.1 0 1.1.7 1.4 1.5.6.8-.8 2.2-.7 3 .1.9.9.5 2.7-.8 4l-.4.4c-1.3 1.4-1.3 3.5 0 4.8zm0-420l.4.4c1.3 1.3 1.7 3.1.8 4-.9.9-2.2.9-3 .1-.8-.8-1.5-.5-1.5.6s-1 2.1-2.2 2.1c-1.2 0-2.2-.9-2.2-2.1 0-1.1-.7-1.4-1.5-.6s-2.2.7-3-.1c-.9-.9-.5-2.7.8-4l.4-.4c1.3-1.3 1.3-3.4 0-4.8l-.4-.4c-1.3-1.3-1.7-3.1-.8-4 .9-.9 2.2-.9 3-.1.8.8 1.5.5 1.5-.6s1-2.1 2.2-2.1c1.2 0 2.2.9 2.2 2.1 0 1.1.7 1.4 1.5.6.8-.8 2.2-.7 3 .1.9.9.5 2.7-.8 4l-.4.4c-1.3 1.4-1.3 3.5 0 4.8zm30.2 420l.4.4c1.3 1.3 1.7 3.1.8 4-.9.9-2.2.9-3 .1-.8-.8-1.5-.5-1.5.6s-1 2.1-2.2 2.1c-1.2 0-2.2-.9-2.2-2.1 0-1.1-.7-1.4-1.5-.6-.8.8-2.2.7-3-.1-.9-.9-.5-2.7.8-4l.4-.4c1.3-1.3 1.3-3.4 0-4.8l-.4-.4c-1.3-1.3-1.7-3.1-.8-4 .9-.9 2.2-.9 3-.1.8.8 1.5.5 1.5-.6s1-2.1 2.2-2.1c1.2 0 2.2.9 2.2 2.1 0 1.1.7 1.4 1.5.6.8-.8 2.2-.7 3 .1.9.9.5 2.7-.8 4l-.4.4c-1.3 1.4-1.3 3.5 0 4.8zm0-420l.4.4c1.3 1.3 1.7 3.1.8 4-.9.9-2.2.9-3 .1-.8-.8-1.5-.5-1.5.6s-1 2.1-2.2 2.1c-1.2 0-2.2-.9-2.2-2.1 0-1.1-.7-1.4-1.5-.6-.8.8-2.2.7-3-.1-.9-.9-.5-2.7.8-4l.4-.4c1.3-1.3 1.3-3.4 0-4.8l-.4-.4c-1.3-1.3-1.7-3.1-.8-4 .9-.9 2.2-.9 3-.1.8.8 1.5.5 1.5-.6s1-2.1 2.2-2.1c1.2 0 2.2.9 2.2 2.1 0 1.1.7 1.4 1.5.6.8-.8 2.2-.7 3 .1.9.9.5 2.7-.8 4l-.4.4c-1.3 1.4-1.3 3.5 0 4.8zm30.3 420l.4.4c1.3 1.3 1.7 3.1.8 4-.9.9-2.2.9-3 .1s-1.5-.5-1.5.6-1 2.1-2.2 2.1c-1.2 0-2.2-.9-2.2-2.1 0-1.1-.7-1.4-1.5-.6-.8.8-2.2.7-3-.1-.9-.9-.5-2.7.8-4l.4-.4c1.3-1.3 1.3-3.4 0-4.8l-.4-.4c-1.3-1.3-1.7-3.1-.8-4 .9-.9 2.2-.9 3-.1.8.8 1.5.5 1.5-.6s1-2.1 2.2-2.1c1.2 0 2.2.9 2.2 2.1 0 1.1.7 1.4 1.5.6.8-.8 2.2-.7 3 .1.9.9.5 2.7-.8 4l-.4.4c-1.3 1.4-1.3 3.5 0 4.8zm0-420l.4.4c1.3 1.3 1.7 3.1.8 4-.9.9-2.2.9-3 .1s-1.5-.5-1.5.6-1 2.1-2.2 2.1c-1.2 0-2.2-.9-2.2-2.1 0-1.1-.7-1.4-1.5-.6-.8.8-2.2.7-3-.1-.9-.9-.5-2.7.8-4l.4-.4c1.3-1.3 1.3-3.4 0-4.8l-.4-.4c-1.3-1.3-1.7-3.1-.8-4 .9-.9 2.2-.9 3-.1.8.8 1.5.5 1.5-.6s1-2.1 2.2-2.1c1.2 0 2.2.9 2.2 2.1 0 1.1.7 1.4 1.5.6.8-.8 2.2-.7 3 .1.9.9.5 2.7-.8 4l-.4.4c-1.3 1.4-1.3 3.5 0 4.8z"/><path class="st0" d="M214.6 417.3h82.9c-.7-1.3-1.1-2.7-1.1-3.9v-7.8c0-1.8 1.1-4.4 2.4-5.7l6.5-6.5c.1-.1.2-.2.3-.4h-99c.1.1.2.3.3.4l6.5 6.5c1.3 1.3 2.4 3.9 2.4 5.7v7.8c-.1 1.2-.6 2.7-1.2 3.9z"/><path class="st2" d="M201 352v4.6c1.1.5 2.3 1 3.5 1.4v29.6c0 1.8 1.1 4.4 2.4 5.7l6.5 6.5c.8.8 1.6 2.2 2 3.5h81.5c.4-1.3 1.2-2.7 2-3.5l6.5-6.5c1.3-1.3 2.4-3.9 2.4-5.7V358c.8-.3 1.6-.7 2.5-1v-5H201z"/><ellipse class="st1" cx="257.7" cy="240.1" rx="135.4" ry="129.9"/><path class="st2" d="M216.8 67.7h78.4c-.7-1.2-1.1-2.6-1.1-3.8v-6.7c0-.8.2-1.8.6-2.8h-77.4c.4 1 .6 2 .6 2.8v6.7c0 1.1-.4 2.6-1.1 3.8z"/><path class="st0" d="M130.5 119.9h-11.2c-1.8 0-3.4 1.5-3.4 3.4v1.1c0 1.8 1.5 3.7 3.3 4.2l23.7 6.2c1.8.5 3.3 2.4 3.3 4.2v4.5h219.6V139c0-1.8 1.5-3.7 3.3-4.2l23.7-6.2c1.8-.5 3.3-2.4 3.3-4.2v-1.1c0-1.8-1.5-3.4-3.4-3.4h-11.2c-.6 0-1.3-.1-1.9-.4H132.4c-.6.2-1.3.4-1.9.4z"/><path class="st2" d="M145.5 136.8c.4.7.7 1.4.7 2.2v17.7h219.6V139c0-.8.3-1.5.7-2.2h-221z"/><path d="M341 232.9c-3.1 3.1-3.1 8.2 0 11.3l.9.9c3.1 3.1 4 7.3 1.9 9.4-2.1 2.1-5.3 2.2-7.2.3s-3.5-1.3-3.5 1.4-2.4 4.9-5.3 4.9-5.3-2.2-5.3-4.9-1.6-3.3-3.5-1.4-5.1 1.8-7.2-.3c-2.1-2.1-1.2-6.3 1.9-9.4l.9-.9c3.1-3.1 3.1-8.2 0-11.3l-.9-.9c-3.1-3.1-4-7.3-1.9-9.4 2.1-2.1 5.3-2.2 7.2-.3 1.9 1.9 3.5 1.3 3.5-1.4s2.4-4.9 5.3-4.9 5.3 2.2 5.3 4.9 1.6 3.3 3.5 1.4 5.1-1.8 7.2.3c2.1 2.1 1.2 6.3-1.9 9.4l-.9.9zm-70.9-.9c3.1-3.1 4-7.3 1.9-9.4-2.1-2.1-5.3-2.2-7.2-.3-1.9 1.9-3.5 1.3-3.5-1.4s-2.4-4.9-5.3-4.9-5.3 2.2-5.3 4.9-1.6 3.3-3.5 1.4-5.1-1.8-7.2.3c-2.1 2.1-1.2 6.3 1.9 9.4l.9.9c3.1 3.1 3.1 8.2 0 11.3l-.9.9c-3.1 3.1-4 7.3-1.9 9.4 2.1 2.1 5.3 2.2 7.2.3 1.9-1.9 3.5-1.3 3.5 1.4s2.4 4.9 5.3 4.9 5.3-2.2 5.3-4.9 1.6-3.3 3.5-1.4 5.1 1.8 7.2-.3c2.1-2.1 1.2-6.3-1.9-9.4l-.9-.9c-3.1-3.1-3.1-8.2 0-11.3l.9-.9zm-71.9 0c3.1-3.1 4-7.3 1.9-9.4-2.1-2.1-5.3-2.2-7.2-.3-1.9 1.9-3.5 1.3-3.5-1.4s-2.4-4.9-5.3-4.9-5.3 2.2-5.3 4.9-1.6 3.3-3.5 1.4-5.1-1.8-7.2.3c-2.1 2.1-1.2 6.3 1.9 9.4l.9.9c3.1 3.1 3.1 8.2 0 11.3l-.9.9c-3.1 3.1-4 7.3-1.9 9.4 2.1 2.1 5.3 2.2 7.2.3s3.5-1.3 3.5 1.4 2.4 4.9 5.3 4.9 5.3-2.2 5.3-4.9 1.6-3.3 3.5-1.4 5.1 1.8 7.2-.3c2.1-2.1 1.2-6.3-1.9-9.4l-.9-.9c-3.1-3.1-3.1-8.2 0-11.3l.9-.9z" fill="#cc584c"/><path d="M54.5 296.9l-8.4-20.3-8.1 20c-.1.1-.1.3-.2.4-1.9 4.6.3 9.9 5 11.7 4.6 1.9 9.9-.3 11.7-5 1-2.2.9-4.7 0-6.8z" fill="#0289b2"/></svg>