<svg version="1.1" xmlns="http://www.w3.org/2000/svg" x="0" y="0" viewBox="0 0 512 512" xml:space="preserve"><path d="M429.5 0h-347c-4.4 0-8 3.6-8 8v496c0 4.4 3.6 8 8 8h347c4.4 0 8-3.6 8-8V8c0-4.4-3.6-8-8-8zM90 474c-4.4 0-8-3.6-8-8s3.6-8 8-8 8 3.6 8 8-3.6 8-8 8zm0-30c-4.4 0-8-3.6-8-8s3.6-8 8-8 8 3.6 8 8-3.6 8-8 8zm0-30c-4.4 0-8-3.6-8-8s3.6-8 8-8 8 3.6 8 8-3.6 8-8 8zm0-30c-4.4 0-8-3.6-8-8s3.6-8 8-8 8 3.6 8 8-3.6 8-8 8zm0-30c-4.4 0-8-3.6-8-8s3.6-8 8-8 8 3.6 8 8-3.6 8-8 8zm0-30c-4.4 0-8-3.6-8-8s3.6-8 8-8 8 3.6 8 8-3.6 8-8 8zm0-30c-4.4 0-8-3.6-8-8s3.6-8 8-8 8 3.6 8 8-3.6 8-8 8zm0-30c-4.4 0-8-3.6-8-8s3.6-8 8-8 8 3.6 8 8-3.6 8-8 8zm0-30c-4.4 0-8-3.6-8-8s3.6-8 8-8 8 3.6 8 8-3.6 8-8 8zm0-30c-4.4 0-8-3.6-8-8s3.6-8 8-8 8 3.6 8 8-3.6 8-8 8zm0-30c-4.4 0-8-3.6-8-8s3.6-8 8-8 8 3.6 8 8-3.6 8-8 8zm0-30c-4.4 0-8-3.6-8-8s3.6-8 8-8 8 3.6 8 8-3.6 8-8 8zm0-30c-4.4 0-8-3.6-8-8s3.6-8 8-8 8 3.6 8 8-3.6 8-8 8zm0-30c-4.4 0-8-3.6-8-8s3.6-8 8-8 8 3.6 8 8-3.6 8-8 8zm0-30c-4.4 0-8-3.6-8-8s3.6-8 8-8 8 3.6 8 8-3.6 8-8 8z" fill="#36434f"/><path d="M94 75H50c-1.1 0-2-.9-2-2s.9-2 2-2h44c1.1 0 2 .9 2 2s-.9 2-2 2zm0 6H50c-1.1 0-2-.9-2-2s.9-2 2-2h44c1.1 0 2 .9 2 2s-.9 2-2 2zm0-36H50c-1.1 0-2-.9-2-2s.9-2 2-2h44c1.1 0 2 .9 2 2s-.9 2-2 2zm0 6H50c-1.1 0-2-.9-2-2s.9-2 2-2h44c1.1 0 2 .9 2 2s-.9 2-2 2zm0 54H50c-1.1 0-2-.9-2-2s.9-2 2-2h44c1.1 0 2 .9 2 2s-.9 2-2 2zm0 6H50c-1.1 0-2-.9-2-2s.9-2 2-2h44c1.1 0 2 .9 2 2s-.9 2-2 2zm0 24H50c-1.1 0-2-.9-2-2s.9-2 2-2h44c1.1 0 2 .9 2 2s-.9 2-2 2zm0 6H50c-1.1 0-2-.9-2-2s.9-2 2-2h44c1.1 0 2 .9 2 2s-.9 2-2 2zm0 24H50c-1.1 0-2-.9-2-2s.9-2 2-2h44c1.1 0 2 .9 2 2s-.9 2-2 2zm0 6H50c-1.1 0-2-.9-2-2s.9-2 2-2h44c1.1 0 2 .9 2 2s-.9 2-2 2zm0 24H50c-1.1 0-2-.9-2-2s.9-2 2-2h44c1.1 0 2 .9 2 2s-.9 2-2 2zm0 6H50c-1.1 0-2-.9-2-2s.9-2 2-2h44c1.1 0 2 .9 2 2s-.9 2-2 2zm0 24H50c-1.1 0-2-.9-2-2s.9-2 2-2h44c1.1 0 2 .9 2 2s-.9 2-2 2zm0 6H50c-1.1 0-2-.9-2-2s.9-2 2-2h44c1.1 0 2 .9 2 2s-.9 2-2 2zm0 24H50c-1.1 0-2-.9-2-2s.9-2 2-2h44c1.1 0 2 .9 2 2s-.9 2-2 2zm0 6H50c-1.1 0-2-.9-2-2s.9-2 2-2h44c1.1 0 2 .9 2 2s-.9 2-2 2zm0 24H50c-1.1 0-2-.9-2-2s.9-2 2-2h44c1.1 0 2 .9 2 2s-.9 2-2 2zm0 6H50c-1.1 0-2-.9-2-2s.9-2 2-2h44c1.1 0 2 .9 2 2s-.9 2-2 2zm0 24H50c-1.1 0-2-.9-2-2s.9-2 2-2h44c1.1 0 2 .9 2 2s-.9 2-2 2zm0 6H50c-1.1 0-2-.9-2-2s.9-2 2-2h44c1.1 0 2 .9 2 2s-.9 2-2 2zm0 24H50c-1.1 0-2-.9-2-2s.9-2 2-2h44c1.1 0 2 .9 2 2s-.9 2-2 2zm0 6H50c-1.1 0-2-.9-2-2s.9-2 2-2h44c1.1 0 2 .9 2 2s-.9 2-2 2zm0 24H50c-1.1 0-2-.9-2-2s.9-2 2-2h44c1.1 0 2 .9 2 2s-.9 2-2 2zm0 6H50c-1.1 0-2-.9-2-2s.9-2 2-2h44c1.1 0 2 .9 2 2s-.9 2-2 2zm0 24H50c-1.1 0-2-.9-2-2s.9-2 2-2h44c1.1 0 2 .9 2 2s-.9 2-2 2zm0 6H50c-1.1 0-2-.9-2-2s.9-2 2-2h44c1.1 0 2 .9 2 2s-.9 2-2 2zm0 24H50c-1.1 0-2-.9-2-2s.9-2 2-2h44c1.1 0 2 .9 2 2s-.9 2-2 2zm0 6H50c-1.1 0-2-.9-2-2s.9-2 2-2h44c1.1 0 2 .9 2 2s-.9 2-2 2zm0 24H50c-1.1 0-2-.9-2-2s.9-2 2-2h44c1.1 0 2 .9 2 2s-.9 2-2 2zm0 6H50c-1.1 0-2-.9-2-2s.9-2 2-2h44c1.1 0 2 .9 2 2s-.9 2-2 2z" fill="#ddd"/></svg>