<svg version="1.1" xmlns="http://www.w3.org/2000/svg" x="0" y="0" viewBox="0 0 512 512" xml:space="preserve"><style type="text/css">.st0{fill:#eee}.st1{fill:#ddc4b0}.st2{fill:#ddd}.st3{fill:#00aca1}</style><path class="st0" d="M256 490.1c-3.3 0-6-2.7-6-6v-163h12v163c0 3.4-2.7 6-6 6z"/><path class="st1" d="m121.7 386.9-9.4 102.9-4.1-.2c-33.5-1.6-64.4-17.8-84.8-44.3l-2.6-3.4 90.1-69 10.8 14zm-17.2 93.9 8.4-91.3-3.5-4.6L33 443.4c17.8 21.5 43.5 34.9 71.5 37.4z"/><path class="st1" d="m105.3 365.6 10.8 14.1-90.1 69-2.6-3.4C3 418.7-4.5 384.6 2.7 351.9l.9-4 101.7 17.7zm-1.2 12.5-3.5-4.6-90.3-15.7c-5 27.6 1.3 55.9 17.4 78.9l76.4-58.6z"/><circle class="st0" cx="26.8" cy="442.6" r="2.7"/><circle class="st0" cx="108.3" cy="485.3" r="2.7"/><circle class="st0" cx="6.8" cy="352.8" r="2.7"/><path class="st0" d="M146.8 369.6c-6.4 4.9-11.2 11.3-14.6 18.6-1.7 3.6-4.3 6.8-7.8 9.3-6.7 4.7-15.3 5.4-22.6 2.5-2.9-1.2-6-1.6-9-1.1-4.7.7-8.4-4.1-6.5-8.5 1.2-2.8 1.7-5.9 1.2-9-1.1-8.1 2.1-16.5 9-21.8 3.2-2.5 6.9-4 10.6-4.6 8.1-1.3 15.7-4.8 22.2-9.8l110.1-84.3 18.2 23.8-110.8 84.9z"/><circle class="st2" cx="111.2" cy="378" r="19.3"/><path class="st3" d="M117.6 386.3c-2.4 1.8-5.4 2.5-8.2 2 5.1 9.5 19.6 35.9 27.4 46.1 7.1 9.2 21.6 21.7 28.7 27.6 2.3 1.9 5.6 1.5 7.4-.9l2.5-3.3c3.1-4.1 3.4-9.8.6-14.2-5.4-8.7-14.6-23-20.5-30.7-8-10.5-30-33.2-34.2-37.5 1.1 4-.2 8.3-3.7 10.9zm-12.8-16.7c2.4-1.8 5.4-2.5 8.2-2-5.1-9.5-19.6-35.9-27.4-46.1-7.1-9.2-21.6-21.7-28.7-27.6-2.3-1.9-5.6-1.5-7.4.9l-2.5 3.3c-3.1 4.1-3.4 9.8-.6 14.2 5.4 8.7 14.6 23 20.5 30.7 8 10.5 30 33.2 34.2 37.5-1.1-4 .3-8.3 3.7-10.9z"/><path class="st3" d="M118.3 387.1c5.1-3.9 6-11.1 2.1-16.2s-11.1-6-16.2-2.1-6 11.1-2.1 16.2c3.8 5 11.1 6 16.2 2.1zm-11.5-14.9c3.2-2.4 7.8-1.8 10.2 1.4 2.4 3.2 1.8 7.8-1.4 10.2-3.2 2.4-7.8 1.8-10.2-1.4-2.4-3.2-1.8-7.8 1.4-10.2z"/><circle class="st0" cx="111.2" cy="378" r="8"/><path class="st2" d="m203.5 328.2-20.2-26.3-45 34.5 20.2 26.3 45-34.5zm-38.6 17.5c.4.5.3 1.1-.2 1.5l-.8.7c-.5.4-1.1.3-1.5-.2l-8.5-11c-.4-.5-.3-1.1.2-1.5l.8-.7c.5-.4 1.1-.3 1.5.2l8.5 11zm5.9-4.6c.4.5.3 1.1-.2 1.5l-.8.7c-.5.4-1.1.3-1.5-.2l-8.5-11c-.4-.5-.3-1.1.2-1.5l.8-.7c.5-.4 1.1-.3 1.5.2l8.5 11zm11.1-8.5c.4.5.3 1.1-.2 1.5l-.8.7c-.5.4-1.1.3-1.5-.2l-8.5-11c-.4-.5-.3-1.1.2-1.5l.8-.7c.5-.4 1.1-.3 1.5.2l8.5 11zm5.9-4.5c.4.5.3 1.1-.2 1.5l-.8.7c-.5.4-1.1.3-1.5-.2l-8.5-11c-.4-.5-.3-1.1.2-1.5l.8-.7c.5-.4 1.1-.3 1.5.2l8.5 11z"/><path class="st1" d="m491.2 441.8-2.6 3.4c-20.4 26.6-51.3 42.8-84.8 44.3l-4.1.2-9.4-102.9 10.8-14.1 90.1 69.1zm-83.7 39c28-2.4 53.7-15.8 71.6-37.4l-76.4-58.5-3.5 4.6 8.3 91.3z"/><path class="st1" d="M509.3 351.9c7.2 32.8-.4 66.8-20.7 93.4l-2.6 3.4-90.1-69 10.8-14.1 101.8-17.7.8 4zm-101.4 26.2 76.4 58.5c16.1-22.9 22.4-51.2 17.4-78.9l-90.3 15.7-3.5 4.7z"/><circle class="st0" cx="485.2" cy="442.6" r="2.7"/><circle class="st0" cx="403.7" cy="485.3" r="2.7"/><circle class="st0" cx="505.2" cy="352.8" r="2.7"/><path class="st0" d="M365.2 369.6c6.4 4.9 11.2 11.3 14.6 18.6 1.7 3.6 4.3 6.8 7.8 9.3 6.7 4.7 15.3 5.4 22.6 2.5 2.9-1.2 6-1.6 9-1.1 4.7.7 8.4-4.1 6.5-8.5-1.2-2.8-1.7-5.9-1.2-9 1.1-8.1-2.1-16.5-9-21.8-3.2-2.5-6.9-4-10.6-4.6-8.1-1.3-15.7-4.8-22.2-9.8l-110.1-84.3-18.2 23.8 110.8 84.9z"/><circle class="st2" cx="400.8" cy="378" r="19.3"/><path class="st3" d="M394.4 386.3c2.4 1.8 5.4 2.5 8.2 2-5.1 9.5-19.6 35.9-27.4 46.1-7.1 9.2-21.6 21.7-28.7 27.6-2.3 1.9-5.6 1.5-7.4-.9l-2.5-3.3c-3.1-4.1-3.4-9.8-.6-14.2 5.4-8.7 14.6-23 20.5-30.7 8-10.5 30-33.2 34.2-37.5-1.1 4 .2 8.3 3.7 10.9zm12.8-16.7c-2.4-1.8-5.4-2.5-8.2-2 5.1-9.5 19.6-35.9 27.4-46.1 7.1-9.2 21.6-21.7 28.7-27.6 2.3-1.9 5.6-1.5 7.4.9l2.5 3.3c3.1 4.1 3.4 9.8.6 14.2-5.4 8.7-14.6 23-20.5 30.7-8 10.5-30 33.2-34.2 37.5 1.1-4-.3-8.3-3.7-10.9z"/><path class="st3" d="M409.9 385c3.9-5.1 2.9-12.3-2.1-16.2-5.1-3.9-12.3-2.9-16.2 2.1s-2.9 12.3 2.1 16.2c5.1 3.9 12.4 2.9 16.2-2.1zm-3.3-2.6c-2.4 3.2-7 3.8-10.2 1.4-3.2-2.4-3.8-7-1.4-10.2 2.4-3.2 7-3.8 10.2-1.4s3.8 7 1.4 10.2z"/><circle class="st0" cx="400.8" cy="378" r="8"/><path class="st2" d="m353.6 362.7 20.2-26.3-45-34.5-20.2 26.3 45 34.5zm2-28.1c.4-.5 1-.6 1.5-.2l.8.7c.5.4.6 1 .2 1.5l-8.5 11c-.4.5-1 .6-1.5.2l-.8-.7c-.5-.4-.6-1-.2-1.5l8.5-11zm-6-4.6c.4-.5 1-.6 1.5-.2l.8.7c.5.4.6 1 .2 1.5l-8.5 11c-.4.5-1 .6-1.5.2l-.8-.7c-.5-.4-.6-1-.2-1.5l8.5-11zm-11-8.4c.4-.5 1-.6 1.5-.2l.8.7c.5.4.6 1 .2 1.5l-8.5 11c-.4.5-1 .6-1.5.2l-.8-.7c-.5-.4-.6-1-.2-1.5l8.5-11zm-6-4.6c.4-.5 1-.6 1.5-.2l.8.7c.5.4.6 1 .2 1.5l-8.5 11c-.4.5-1 .6-1.5.2l-.8-.7c-.5-.4-.6-1-.2-1.5l8.5-11z"/><path class="st1" d="m110.9 138.8-90.1-69 2.6-3.4c20.4-26.6 51.3-42.8 84.8-44.3l4.1-.2 9.4 102.9-10.8 14zm-78-70.5 76.4 58.5 3.5-4.6-8.4-91.3c-27.9 2.4-53.6 15.8-71.5 37.4z"/><path class="st1" d="m3.5 163.8-.9-4C-4.5 127 3 93 23.4 66.4L26 63l90.1 69-10.8 14.1L3.5 163.8zm24.2-88.7C11.5 98 5.3 126.3 10.2 153.9l90.3-15.7 3.5-4.6-76.3-58.5z"/><circle class="st0" cx="26.8" cy="69" r="2.7"/><circle class="st0" cx="108.3" cy="26.3" r="2.7"/><circle class="st0" cx="6.8" cy="158.9" r="2.7"/><path class="st0" d="M146.8 142.1c-6.4-4.9-11.2-11.3-14.6-18.6-1.7-3.6-4.3-6.8-7.8-9.3-6.7-4.7-15.3-5.4-22.6-2.5-2.9 1.2-6 1.6-9 1.1-4.7-.7-8.4 4.1-6.5 8.5 1.2 2.8 1.7 5.9 1.2 9-1.1 8.1 2.1 16.5 9 21.8 3.2 2.5 6.9 4 10.6 4.6 8.1 1.3 15.7 4.8 22.2 9.8l110.1 84.3 18.2-23.8-110.8-84.9z"/><circle class="st2" cx="111.2" cy="133.7" r="19.3"/><path class="st3" d="M117.6 125.3c-2.4-1.8-5.4-2.5-8.2-2 5.1-9.5 19.6-35.9 27.4-46.1 7.1-9.2 21.6-21.7 28.7-27.6 2.3-1.9 5.6-1.5 7.4.9l2.5 3.3c3.1 4.1 3.4 9.8.6 14.2-5.4 8.7-14.6 23-20.5 30.7-8 10.5-30 33.2-34.2 37.5 1.1-3.9-.2-8.3-3.7-10.9zm-12.8 16.8c2.4 1.8 5.4 2.5 8.2 2-5.1 9.5-19.6 35.9-27.4 46.1-7.1 9.2-21.6 21.7-28.7 27.6-2.3 1.9-5.6 1.5-7.4-.9l-2.5-3.3c-3.1-4.1-3.4-9.8-.6-14.2 5.4-8.7 14.6-23 20.5-30.7 8-10.5 30-33.2 34.2-37.5-1.1 3.9.3 8.2 3.7 10.9z"/><path class="st3" d="M102.1 126.7c-3.9 5.1-2.9 12.3 2.1 16.2 5.1 3.9 12.3 2.9 16.2-2.1 3.9-5.1 2.9-12.3-2.1-16.2s-12.4-3-16.2 2.1zm3.3 2.5c2.4-3.2 7-3.8 10.2-1.4 3.2 2.4 3.8 7 1.4 10.2-2.4 3.2-7 3.8-10.2 1.4-3.2-2.4-3.8-7-1.4-10.2z"/><circle class="st0" cx="111.2" cy="133.7" r="8"/><path class="st2" d="m158.4 148.9-20.2 26.3 45 34.5 20.2-26.3-45-34.5zm-2 28.1c-.4.5-1 .6-1.5.2l-.8-.7c-.5-.4-.6-1-.2-1.5l8.5-11c.4-.5 1-.6 1.5-.2l.8.7c.5.4.6 1 .2 1.5l-8.5 11zm6 4.6c-.4.5-1 .6-1.5.2l-.8-.7c-.5-.4-.6-1-.2-1.5l8.5-11c.4-.5 1-.6 1.5-.2l.8.7c.5.4.6 1 .2 1.5l-8.5 11zm11 8.5c-.4.5-1 .6-1.5.2l-.8-.7c-.5-.4-.6-1-.2-1.5l8.5-11c.4-.5 1-.6 1.5-.2l.8.7c.5.4.6 1 .2 1.5l-8.5 11zm6 4.5c-.4.5-1 .6-1.5.2l-.8-.7c-.5-.4-.6-1-.2-1.5l8.5-11c.4-.5 1-.6 1.5-.2l.8.7c.5.4.6 1 .2 1.5l-8.5 11z"/><path class="st1" d="m401.1 138.8-10.8-14.1 9.4-102.9 4.1.2c33.5 1.6 64.4 17.8 84.8 44.3l2.6 3.4-90.1 69.1zm-1.9-16.6 3.5 4.6 76.4-58.5c-17.9-21.5-43.6-35-71.6-37.4l-8.3 91.3z"/><path class="st1" d="m508.5 163.8-101.8-17.7-10.8-14.1L486 63l2.6 3.4C509 93 516.5 127 509.3 159.8l-.8 4zm-97-25.6 90.3 15.7c5-27.6-1.3-55.9-17.4-78.9L408 133.5l3.5 4.7z"/><circle class="st0" cx="485.2" cy="69" r="2.7"/><circle class="st0" cx="403.7" cy="26.3" r="2.7"/><circle class="st0" cx="505.2" cy="158.9" r="2.7"/><path class="st0" d="M365.2 142.1c6.4-4.9 11.2-11.3 14.6-18.6 1.7-3.6 4.3-6.8 7.8-9.3 6.7-4.7 15.3-5.4 22.6-2.5 2.9 1.2 6 1.6 9 1.1 4.7-.7 8.4 4.1 6.5 8.5-1.2 2.8-1.7 5.9-1.2 9 1.1 8.1-2.1 16.5-9 21.8-3.2 2.5-6.9 4-10.6 4.6-8.1 1.3-15.7 4.8-22.2 9.8l-110.1 84.3-18.3-23.8 110.9-84.9z"/><circle class="st2" cx="400.8" cy="133.7" r="19.3"/><path class="st3" d="M394.4 125.3c2.4-1.8 5.4-2.5 8.2-2-5.1-9.5-19.6-35.9-27.4-46.1-7.1-9.2-21.6-21.7-28.7-27.6-2.3-1.9-5.6-1.5-7.4.9l-2.5 3.3c-3.1 4.1-3.4 9.8-.6 14.2 5.4 8.7 14.6 23 20.5 30.7 8 10.5 30 33.2 34.2 37.5-1.1-3.9.2-8.3 3.7-10.9zm12.8 16.8c-2.4 1.8-5.4 2.5-8.2 2 5.1 9.5 19.6 35.9 27.4 46.1 7.1 9.2 21.6 21.7 28.7 27.6 2.3 1.9 5.6 1.5 7.4-.9l2.5-3.3c3.1-4.1 3.4-9.8.6-14.2-5.4-8.7-14.6-23-20.5-30.7-8-10.5-30-33.2-34.2-37.5 1.1 3.9-.3 8.2-3.7 10.9z"/><path class="st3" d="M393.7 124.5c-5.1 3.9-6 11.1-2.1 16.2s11.1 6 16.2 2.1 6-11.1 2.1-16.2-11.1-6-16.2-2.1zm11.5 15c-3.2 2.4-7.8 1.8-10.2-1.4-2.4-3.2-1.8-7.8 1.4-10.2 3.2-2.4 7.8-1.8 10.2 1.4 2.4 3.1 1.8 7.7-1.4 10.2z"/><circle class="st0" cx="400.8" cy="133.7" r="8"/><path class="st2" d="m308.5 183.4 20.2 26.3 45-34.5-20.2-26.3-45 34.5zm38.6-17.4c-.4-.5-.3-1.1.2-1.5l.8-.7c.5-.4 1.1-.3 1.5.2l8.5 11c.4.5.3 1.1-.2 1.5l-.8.7c-.5.4-1.1.3-1.5-.2l-8.5-11zm-5.9 4.6c-.4-.5-.3-1.1.2-1.5l.8-.7c.5-.4 1.1-.3 1.5.2l8.5 11c.4.5.3 1.1-.2 1.5l-.8.7c-.5.4-1.1.3-1.5-.2l-8.5-11zm-11.1 8.4c-.4-.5-.3-1.1.2-1.5l.8-.7c.5-.4 1.1-.3 1.5.2l8.5 11c.4.5.3 1.1-.2 1.5l-.8.7c-.5.4-1.1.3-1.5-.2l-8.5-11zm-5.9 4.6c-.4-.5-.3-1.1.2-1.5l.8-.7c.5-.4 1.1-.3 1.5.2l8.5 11c.4.5.3 1.1-.2 1.5l-.8.7c-.5.4-1.1.3-1.5-.2l-8.5-11zm-27.3 96.9v-.9l-24.4-18.7-16.5 21.5-16.5-21.5-24.4 18.7v.9c0 3.8.9 7.4 2.7 10.5 3 5.2 5.2 11.9 6.4 19.4L256 286l31.8 24.4c1.2-7.5 3.4-14.2 6.4-19.4 1.8-3.1 2.7-6.8 2.7-10.5zM256 225.7l-35-26.8v12.4c0 2.3-.3 4.6-.8 6.9l-3.2 13.6c-.1.5-.2 1.1-.3 1.6l22.9 17.5 16.5-21.5 16.5 21.5 22.9-17.5c-.1-.5-.2-1.1-.3-1.6l-3.2-13.6c-.5-2.3-.8-4.6-.8-6.9v-12.4L256 225.7z"/><path class="st2" d="m289.2 233.1-3.2-13.6c-.6-2.7-1-5.5-1-8.3v-28.7c0-1.8-1.5-3.4-3.4-3.4h-1.1c-1.8 0-3.4 1.5-3.4 3.4v3.7c0 .8-.1 1.7-.1 2.5-4.3-6.3-12.1-10.6-21.1-10.6s-16.9 4.3-21.1 10.6c-.1-.8-.1-1.7-.1-2.5v-3.7c0-1.8-1.5-3.4-3.4-3.4h-1.1c-1.8 0-3.4 1.5-3.4 3.4v28.7c0 2.8-.3 5.6-1 8.3l-3.2 13.6c-1.2 5-1.8 10.1-1.8 15.2v32.3c0 2.7.7 5.3 1.9 7.5 5.2 9.1 8.2 22.1 8.2 35.8v.9c0 .6.2 1.2.7 1.6.4.4 1 .7 1.6.7.2 0 .4 0 .6-.1 2.2-.6 4.5-.9 7-.9 5.7 0 10.9 1.6 14 4.3h1.9c3.1-2.7 8.4-4.3 14-4.3 2.4 0 4.8.3 7 .9.2 0 .4.1.6.1.6 0 1.2-.2 1.6-.7.4-.4.7-1 .7-1.6v-.9c0-13.7 3-26.8 8.2-35.8 1.3-2.2 1.9-4.8 1.9-7.5v-32.3c.2-5.2-.4-10.3-1.5-15.2z"/><path class="st0" d="M265.5 174.1h-19c-2.2 0-4 1.8-4 4v4c0 2.2 1.8 4 4 4h3.5v4h-1.5c-2.2 0-4 1.8-4 4v14h23v-14c0-2.2-1.8-4-4-4H262v-4h3.5c2.2 0 4-1.8 4-4v-4c0-2.2-1.8-4-4-4z"/><path class="st2" d="M249.8 208.1h12.4c1.9-.6 3.7-1.4 5.3-2.4v-7.6c-2.9 3-7 4.9-11.5 4.9s-8.6-1.9-11.5-4.9v7.6c1.6 1.1 3.4 1.9 5.3 2.4zM262 326.5c-2.1.7-4 1.7-5.4 2.9h-1.2c-1.5-1.2-3.3-2.1-5.4-2.9v6.5c.9.5 1.6 1 2.1 1.5l.9.9h6l.9-.9c.5-.5 1.2-1 2.1-1.5v-6.5z"/><path class="st0" d="m291.1 232.6-3.2-13.6c-.6-2.6-.9-5.2-.9-7.8v-28.7c0-3-2.4-5.4-5.4-5.4h-1.1c-3 0-5.4 2.4-5.4 5.4v3.7c0 10.9-8.6 19.8-19.3 19.8-10.6 0-19.3-8.9-19.3-19.8v-3.7c0-3-2.4-5.4-5.4-5.4H230c-3 0-5.4 2.4-5.4 5.4v28.7c0 2.6-.3 5.2-.9 7.8l-3.2 13.6c-1.2 5.1-1.8 10.4-1.8 15.6v32.3c0 3 .7 5.9 2.2 8.5 4.9 8.4 8 20.9 8 34.8v.9c0 2.8 2.6 4.9 5.3 4.2 2-.5 4.1-.8 6.5-.8 5.7 0 10.7 1.7 13.3 4.3h3.5c2.5-2.5 7.5-4.3 13.3-4.3 2.3 0 4.5.3 6.5.8 2.7.7 5.3-1.4 5.3-4.2v-.9c0-13.9 3.1-26.4 8-34.8 1.5-2.6 2.2-5.5 2.2-8.5v-32.3c.1-5.2-.5-10.5-1.7-15.6zm-63.2 43c0 1.2-1 2.1-2.1 2.1s-2.1-1-2.1-2.1v-26.8c0-1.2 1-2.1 2.1-2.1s2.1 1 2.1 2.1v26.8zm12.4-63.7c.6-1 1.9-1.4 2.9-.8 3.9 2.3 8.3 3.5 12.8 3.5s8.9-1.2 12.8-3.5c1-.6 2.3-.3 2.9.8.6 1 .3 2.3-.8 2.9-4.5 2.7-9.7 4.1-14.9 4.1-5.3 0-10.4-1.4-14.9-4.1-1.1-.6-1.4-1.9-.8-2.9zm-11.1-14.4c0-1.3 1.2-2.3 2.5-2.1 1.1.2 1.8 1.2 1.8 2.2v11.7c0 1.2-1 2.1-2.1 2.1s-2.1-1-2.1-2.1v-11.8zm0 35.3v-6.4c0-1.3 1.2-2.3 2.5-2.1 1.1.2 1.8 1.2 1.8 2.2v6.3c0 1.2-1 2.1-2.1 2.1s-2.2-.9-2.2-2.1zm7.5 81.4c0 1.3-1.2 2.3-2.5 2.1-1.1-.2-1.8-1.2-1.8-2.2v-6.3c0-1.2 1-2.1 2.1-2.1s2.1 1 2.1 2.1v6.4zM240 296c0 1.3-1.2 2.3-2.5 2.1-1.1-.2-1.8-1.2-1.8-2.2v-6.3c0-1.2 1-2.1 2.1-2.1 1.2 0 2.1 1 2.1 2.1v6.4zm0-20.4c0 1.3-1.2 2.3-2.5 2.1-1.1-.2-1.8-1.2-1.8-2.2v-6.3c0-1.2 1-2.1 2.1-2.1 1.2 0 2.1 1 2.1 2.1v6.4zm0-20.3c0 1.2-1 2.1-2.1 2.1-1.2 0-2.1-1-2.1-2.1v-6.4c0-1.3 1.2-2.3 2.5-2.1 1.1.2 1.8 1.2 1.8 2.2v6.3zm7.4 58.9c0 1.3-1.2 2.3-2.5 2.1-1.1-.2-1.8-1.2-1.8-2.2v-6.3c0-1.2 1-2.1 2.1-2.1 1.2 0 2.1 1 2.1 2.1v6.4zm4.7-18.2c0 1.3-1.2 2.3-2.5 2.1-1.1-.2-1.8-1.2-1.8-2.2v-6.3c0-1.2 1-2.1 2.1-2.1s2.1 1 2.1 2.1v6.4zm0-20.4c0 1.3-1.2 2.3-2.5 2.1-1.1-.2-1.8-1.2-1.8-2.2v-6.3c0-1.2 1-2.1 2.1-2.1s2.1 1 2.1 2.1v6.4zm0-20.3c0 1.2-1 2.1-2.1 2.1s-2.1-1-2.1-2.1v-6.4c0-1.3 1.2-2.3 2.5-2.1 1.1.2 1.8 1.2 1.8 2.2v6.3zm12.1 40.7c0 1.3-1.2 2.3-2.5 2.1-1.1-.2-1.8-1.2-1.8-2.2v-6.3c0-1.2 1-2.1 2.1-2.1s2.1 1 2.1 2.1v6.4zm0-20.4c0 1.3-1.2 2.3-2.5 2.1-1.1-.2-1.8-1.2-1.8-2.2v-6.3c0-1.2 1-2.1 2.1-2.1s2.1 1 2.1 2.1v6.4zm0-20.3c0 1.2-1 2.1-2.1 2.1s-2.1-1-2.1-2.1v-6.4c0-1.3 1.2-2.3 2.5-2.1 1.1.2 1.8 1.2 1.8 2.2v6.3zm4.6 58.9c0 1.3-1.2 2.3-2.5 2.1-1.1-.2-1.8-1.2-1.8-2.2v-6.3c0-1.2 1-2.1 2.1-2.1s2.1 1 2.1 2.1v6.4zM256 230.1c-7.3 0-14.4-2.7-19.9-7.6-.9-.8-1-2.1-.2-3 .8-.9 2.1-1 3-.2a25.6 25.6 0 0 0 17 6.5c6.3 0 12.3-2.3 17-6.5.9-.8 2.2-.7 3 .2.8.9.7 2.2-.2 3-5.3 5-12.4 7.6-19.7 7.6zm18.1 27.3c-1.2 0-2.1-1-2.1-2.1v-6.4c0-1.3 1.2-2.3 2.5-2.1 1.1.2 1.8 1.2 1.8 2.2v6.3c0 1.2-1 2.1-2.2 2.1zm2.2 11.8v6.4c0 1.3-1.2 2.3-2.5 2.1-1.1-.2-1.8-1.2-1.8-2.2v-6.3c0-1.2 1-2.1 2.1-2.1s2.2.9 2.2 2.1zm-2.5 28.9c-1.1-.2-1.8-1.2-1.8-2.2v-6.3c0-1.2 1-2.1 2.1-2.1s2.1 1 2.1 2.1v6.4c.1 1.3-1.1 2.3-2.4 2.1zm5.8 16.1c0 1.3-1.2 2.3-2.5 2.1-1.1-.2-1.8-1.2-1.8-2.2v-6.3c0-1.2 1-2.1 2.1-2.1s2.1 1 2.1 2.1v6.4zm3.2-81.4c0 1.2-1 2.1-2.1 2.1s-2.1-1-2.1-2.1v-6.4c0-1.3 1.2-2.3 2.5-2.1 1.1.2 1.8 1.2 1.8 2.2v6.3zm0-23.5c0 1.2-1 2.1-2.1 2.1s-2.1-1-2.1-2.1v-11.8c0-1.3 1.2-2.3 2.5-2.1 1.1.2 1.8 1.2 1.8 2.2v11.7zm5.6 66.3c0 1.2-1 2.1-2.1 2.1-1.2 0-2.1-1-2.1-2.1v-26.8c0-1.2 1-2.1 2.1-2.1 1.2 0 2.1 1 2.1 2.1v26.8z"/><path d="M256 174.1h-9.5c-2.2 0-4 1.8-4 4v3.6c-2.2 1.3-4.1 2.9-5.8 4.7v-3.8c0-3-2.4-5.4-5.4-5.4h-1.1c-3 0-5.4 2.4-5.4 5.4V202l-4-3.1-18.5-14.1 1-1.3-45-34.5-1 1.3-10.6-8.1c-6.1-4.6-10.7-10.8-14.1-17.6 8-8.5 18.1-19.4 22.9-25.7 5.9-7.7 15-22 20.5-30.7 2.8-4.4 2.5-10.1-.6-14.2l-2.5-3.3c-1.8-2.3-5.1-2.8-7.4-.9-7.1 5.9-21.7 18.3-28.7 27.6-4.5 5.9-11.2 17.1-17.1 27.4l-7.6-82.7-4.1.2c-32.1 1.5-61.7 16.4-82.1 41l.1-.3-2.6 3.4-2.6 3.4.1.1c-18.4 26-25.1 58.6-18.2 89.9l.9 4 79.7-13.9c-6.4 6.9-12.8 14-16.4 18.8-5.9 7.7-15 22-20.5 30.7-2.8 4.4-2.5 10.1.6 14.2l2.5 3.3c1.8 2.3 5.1 2.8 7.4.9 7.1-5.9 21.7-18.3 28.7-27.6 5.4-7.1 14.1-22 20.6-33.7.4.1.7.1 1.1.2 8.1 1.3 15.7 4.8 22.2 9.8l9.8 7.5-1 1.3 45 34.5 1-1.3 35.9 27.5c-.7 4-1.1 8.1-1.1 12.2v28.3l-4 3.1-30.8 23.6-1-1.3-45 34.5 1 1.3-9.8 7.5c-6.5 5-14.1 8.5-22.2 9.8-.4.1-.7.1-1.1.2-6.5-11.6-15.2-26.6-20.6-33.7-7.1-9.2-21.6-21.7-28.7-27.6-2.3-1.9-5.6-1.5-7.4.9l-2.5 3.3c-3.1 4.1-3.4 9.8-.6 14.2 5.4 8.7 14.6 23 20.5 30.7 3.6 4.7 10 11.9 16.4 18.8L3.5 347.9l-.9 4c-6.9 31.4-.2 63.9 18.2 89.9l-.1.1 2.6 3.4 2.6 3.4.1-.1c20.3 24.6 50 39.5 82.1 41l4.1.2 7.6-82.7c5.9 10.3 12.6 21.5 17.1 27.4 7.1 9.2 21.6 21.7 28.7 27.6 2.3 1.9 5.6 1.5 7.4-.9l2.5-3.3c3.1-4.1 3.4-9.8.6-14.2-5.4-8.7-14.6-23-20.5-30.7-4.9-6.4-14.9-17.2-22.9-25.7 3.4-6.9 8-13 14.1-17.6l10.6-8.1 1 1.3 45-34.5-1-1.3 21.7-16.6 3.6-2.7c.9 5 1.5 10.5 1.5 16.2v.9c0 2.8 2.6 4.9 5.3 4.2 2-.5 4.1-.8 6.5-.8 3.4 0 6.5.6 9 1.6v154.4c0 3.3 2.7 6 6 6V174.1zM10.2 153.9C5.2 126.3 11.5 98 27.6 75l58.2 44.6c.1.6.2 1.1.5 1.7 1.2 2.8 1.7 5.9 1.2 9-.4 3.4-.2 6.8.8 10l-78.1 13.6zm91.7-42.2c-2.9 1.2-6 1.6-9 1.1-.6-.1-1.2-.1-1.7 0L32.9 68.3c17.9-21.5 43.6-35 71.6-37.4l7.2 79.1c-3.3-.2-6.7.4-9.8 1.7zm-91.7 246 78.2 13.6c-1 3.2-1.3 6.7-.8 10 .4 3.1 0 6.2-1.2 9-.2.6-.4 1.1-.5 1.7l-36.2 27.7-22 16.9c-16.2-22.9-22.4-51.3-17.5-78.9zm94.3 123.1c-28-2.4-53.7-15.8-71.6-37.4l58.2-44.6c.6.1 1.1.1 1.7 0 3.1-.4 6.2 0 9 1.1 3.1 1.3 6.5 1.9 9.8 1.8l-7.1 79.1z" opacity=".15" fill="#444"/></svg>