<svg xmlns="http://www.w3.org/2000/svg" viewBox="0 0 512 512" xml:space="preserve"><style>.st1{fill:#36434f}.st2{fill:#ddd}</style><path d="M429.5 512h-347c-4.4 0-8-3.6-8-8V8c0-4.4 3.6-8 8-8h347c4.4 0 8 3.6 8 8v496c0 4.4-3.6 8-8 8z" fill="#7193ad"/><circle class="st1" cx="90" cy="76" r="8"/><path class="st2" d="M94 75H50c-1.1 0-2-.9-2-2s.9-2 2-2h44c1.1 0 2 .9 2 2s-.9 2-2 2zm0 6H50c-1.1 0-2-.9-2-2s.9-2 2-2h44c1.1 0 2 .9 2 2s-.9 2-2 2z"/><circle class="st1" cx="90" cy="46" r="8"/><path class="st2" d="M94 45H50c-1.1 0-2-.9-2-2s.9-2 2-2h44c1.1 0 2 .9 2 2s-.9 2-2 2zm0 6H50c-1.1 0-2-.9-2-2s.9-2 2-2h44c1.1 0 2 .9 2 2s-.9 2-2 2z"/><circle class="st1" cx="90" cy="106" r="8"/><path class="st2" d="M94 105H50c-1.1 0-2-.9-2-2s.9-2 2-2h44c1.1 0 2 .9 2 2s-.9 2-2 2zm0 6H50c-1.1 0-2-.9-2-2s.9-2 2-2h44c1.1 0 2 .9 2 2s-.9 2-2 2z"/><circle class="st1" cx="90" cy="136" r="8"/><path class="st2" d="M94 135H50c-1.1 0-2-.9-2-2s.9-2 2-2h44c1.1 0 2 .9 2 2s-.9 2-2 2zm0 6H50c-1.1 0-2-.9-2-2s.9-2 2-2h44c1.1 0 2 .9 2 2s-.9 2-2 2z"/><circle class="st1" cx="90" cy="166" r="8"/><path class="st2" d="M94 165H50c-1.1 0-2-.9-2-2s.9-2 2-2h44c1.1 0 2 .9 2 2s-.9 2-2 2zm0 6H50c-1.1 0-2-.9-2-2s.9-2 2-2h44c1.1 0 2 .9 2 2s-.9 2-2 2z"/><circle class="st1" cx="90" cy="196" r="8"/><path class="st2" d="M94 195H50c-1.1 0-2-.9-2-2s.9-2 2-2h44c1.1 0 2 .9 2 2s-.9 2-2 2zm0 6H50c-1.1 0-2-.9-2-2s.9-2 2-2h44c1.1 0 2 .9 2 2s-.9 2-2 2z"/><circle class="st1" cx="90" cy="226" r="8"/><path class="st2" d="M94 225H50c-1.1 0-2-.9-2-2s.9-2 2-2h44c1.1 0 2 .9 2 2s-.9 2-2 2zm0 6H50c-1.1 0-2-.9-2-2s.9-2 2-2h44c1.1 0 2 .9 2 2s-.9 2-2 2z"/><circle class="st1" cx="90" cy="256" r="8"/><path class="st2" d="M94 255H50c-1.1 0-2-.9-2-2s.9-2 2-2h44c1.1 0 2 .9 2 2s-.9 2-2 2zm0 6H50c-1.1 0-2-.9-2-2s.9-2 2-2h44c1.1 0 2 .9 2 2s-.9 2-2 2z"/><circle class="st1" cx="90" cy="286" r="8"/><path class="st2" d="M94 285H50c-1.1 0-2-.9-2-2s.9-2 2-2h44c1.1 0 2 .9 2 2s-.9 2-2 2zm0 6H50c-1.1 0-2-.9-2-2s.9-2 2-2h44c1.1 0 2 .9 2 2s-.9 2-2 2z"/><circle class="st1" cx="90" cy="316" r="8"/><path class="st2" d="M94 315H50c-1.1 0-2-.9-2-2s.9-2 2-2h44c1.1 0 2 .9 2 2s-.9 2-2 2zm0 6H50c-1.1 0-2-.9-2-2s.9-2 2-2h44c1.1 0 2 .9 2 2s-.9 2-2 2z"/><circle class="st1" cx="90" cy="346" r="8"/><path class="st2" d="M94 345H50c-1.1 0-2-.9-2-2s.9-2 2-2h44c1.1 0 2 .9 2 2s-.9 2-2 2zm0 6H50c-1.1 0-2-.9-2-2s.9-2 2-2h44c1.1 0 2 .9 2 2s-.9 2-2 2z"/><circle class="st1" cx="90" cy="376" r="8"/><path class="st2" d="M94 375H50c-1.1 0-2-.9-2-2s.9-2 2-2h44c1.1 0 2 .9 2 2s-.9 2-2 2zm0 6H50c-1.1 0-2-.9-2-2s.9-2 2-2h44c1.1 0 2 .9 2 2s-.9 2-2 2z"/><circle class="st1" cx="90" cy="406" r="8"/><path class="st2" d="M94 405H50c-1.1 0-2-.9-2-2s.9-2 2-2h44c1.1 0 2 .9 2 2s-.9 2-2 2zm0 6H50c-1.1 0-2-.9-2-2s.9-2 2-2h44c1.1 0 2 .9 2 2s-.9 2-2 2z"/><circle class="st1" cx="90" cy="436" r="8"/><path class="st2" d="M94 435H50c-1.1 0-2-.9-2-2s.9-2 2-2h44c1.1 0 2 .9 2 2s-.9 2-2 2zm0 6H50c-1.1 0-2-.9-2-2s.9-2 2-2h44c1.1 0 2 .9 2 2s-.9 2-2 2z"/><circle class="st1" cx="90" cy="466" r="8"/><path class="st2" d="M94 465H50c-1.1 0-2-.9-2-2s.9-2 2-2h44c1.1 0 2 .9 2 2s-.9 2-2 2zm0 6H50c-1.1 0-2-.9-2-2s.9-2 2-2h44c1.1 0 2 .9 2 2s-.9 2-2 2z"/><path d="M82.5 0c-4.4 0-8 3.6-8 8v33H50c-1.1 0-2 .9-2 2s.9 2 2 2h24.5v2H50c-1.1 0-2 .9-2 2s.9 2 2 2h24.5v20H50c-1.1 0-2 .9-2 2s.9 2 2 2h24.5v2H50c-1.1 0-2 .9-2 2s.9 2 2 2h24.5v20H50c-1.1 0-2 .9-2 2s.9 2 2 2h24.5v2H50c-1.1 0-2 .9-2 2s.9 2 2 2h24.5v20H50c-1.1 0-2 .9-2 2s.9 2 2 2h24.5v2H50c-1.1 0-2 .9-2 2s.9 2 2 2h24.5v20H50c-1.1 0-2 .9-2 2s.9 2 2 2h24.5v2H50c-1.1 0-2 .9-2 2s.9 2 2 2h24.5v20H50c-1.1 0-2 .9-2 2s.9 2 2 2h24.5v2H50c-1.1 0-2 .9-2 2s.9 2 2 2h24.5v20H50c-1.1 0-2 .9-2 2s.9 2 2 2h24.5v2H50c-1.1 0-2 .9-2 2s.9 2 2 2h24.5v20H50c-1.1 0-2 .9-2 2s.9 2 2 2h24.5v2H50c-1.1 0-2 .9-2 2s.9 2 2 2h24.5v20H50c-1.1 0-2 .9-2 2s.9 2 2 2h24.5v2H50c-1.1 0-2 .9-2 2s.9 2 2 2h24.5v20H50c-1.1 0-2 .9-2 2s.9 2 2 2h24.5v2H50c-1.1 0-2 .9-2 2s.9 2 2 2h24.5v20H50c-1.1 0-2 .9-2 2s.9 2 2 2h24.5v2H50c-1.1 0-2 .9-2 2s.9 2 2 2h24.5v20H50c-1.1 0-2 .9-2 2s.9 2 2 2h24.5v2H50c-1.1 0-2 .9-2 2s.9 2 2 2h24.5v20H50c-1.1 0-2 .9-2 2s.9 2 2 2h24.5v2H50c-1.1 0-2 .9-2 2s.9 2 2 2h24.5v20H50c-1.1 0-2 .9-2 2s.9 2 2 2h24.5v2H50c-1.1 0-2 .9-2 2s.9 2 2 2h24.5v20H50c-1.1 0-2 .9-2 2s.9 2 2 2h24.5v2H50c-1.1 0-2 .9-2 2s.9 2 2 2h24.5v33c0 4.4 3.6 8 8 8H256V0H82.5z" opacity=".15" fill="#444"/></svg>