<svg version="1.1" xmlns="http://www.w3.org/2000/svg" x="0" y="0" viewBox="0 0 512 512" xml:space="preserve"><style type="text/css">.st0{fill:#e0ac7e}</style><path class="st0" d="M256 66C151.1 66 66 151.1 66 256s85.1 190 190 190 190-85.1 190-190S360.9 66 256 66zm0 230c-22.1 0-40-17.9-40-40s17.9-40 40-40 40 17.9 40 40-17.9 40-40 40z"/><path d="M256 156c-55.2 0-100 44.8-100 100s44.8 100 100 100 100-44.8 100-100-44.8-100-100-100zm0 140c-22.1 0-40-17.9-40-40s17.9-40 40-40 40 17.9 40 40-17.9 40-40 40z" fill="#a18267"/><path class="st0" d="m328.7 99-24.4-87.3C302.3 4.8 296 0 288.9 0h-65.7c-7.2 0-13.5 4.8-15.4 11.7L183.3 99h145.4zm0 314-24.4 87.3c-1.9 6.9-8.2 11.7-15.4 11.7h-65.7c-7.2 0-13.5-4.8-15.4-11.7L183.3 413h145.4zM156.4 114.5 68.6 92c-7-1.8-14.2 1.3-17.8 7.5l-32.9 56.9c-3.6 6.2-2.6 14.1 2.4 19.2l63.4 64.8 72.7-125.9zm271.9 157 63.4 64.8c5 5.1 6 13 2.4 19.2l-32.9 56.9c-3.6 6.2-10.9 9.3-17.8 7.5l-87.8-22.5 72.7-125.9zm0-31 63.4-64.8c5-5.1 6-13 2.4-19.2l-32.9-56.9c-3.6-6.2-10.9-9.3-17.8-7.5l-87.8 22.5 72.7 125.9zm-271.9 157L68.6 420c-7 1.8-14.2-1.3-17.8-7.5l-32.9-56.9c-3.6-6.2-2.6-14.1 2.4-19.2l63.4-64.8 72.7 125.9z"/></svg>