<svg version="1.1" xmlns="http://www.w3.org/2000/svg" x="0" y="0" viewBox="0 0 512 512" xml:space="preserve"><style type="text/css">.st0{fill:#2c3a44}.st3{opacity:.15;fill:#444;enable-background:new}</style><path class="st0" d="M256 0C114.6 0 0 114.6 0 256s114.6 256 256 256 256-114.6 256-256S397.4 0 256 0zm0 262.5c-3.6 0-6.5-2.9-6.5-6.5s2.9-6.5 6.5-6.5 6.5 2.9 6.5 6.5-2.9 6.5-6.5 6.5z"/><path d="M256 6C117.9 6 6 117.9 6 256s111.9 250 250 250 250-111.9 250-250S394.1 6 256 6zm0 256.5c-3.6 0-6.5-2.9-6.5-6.5s2.9-6.5 6.5-6.5 6.5 2.9 6.5 6.5-2.9 6.5-6.5 6.5z" fill="#36434f"/><path class="st0" d="M256 141c-63.5 0-115 51.5-115 115s51.5 115 115 115 115-51.5 115-115-51.5-115-115-115zm0 121.5c-3.6 0-6.5-2.9-6.5-6.5s2.9-6.5 6.5-6.5 6.5 2.9 6.5 6.5-2.9 6.5-6.5 6.5z"/><path class="st0" d="M433.1 78.9C385.8 31.6 322.9 5.5 256 5.5S126.2 31.6 78.9 78.9 5.5 189.1 5.5 256s26.1 129.8 73.4 177.1 110.2 73.4 177.1 73.4 129.8-26.1 177.1-73.4 73.4-110.2 73.4-177.1-26.1-129.8-73.4-177.1zM256 505.5C118.4 505.5 6.5 393.6 6.5 256S118.4 6.5 256 6.5 505.5 118.4 505.5 256 393.6 505.5 256 505.5zM428.1 83.9c-46-46-107.1-71.3-172.1-71.3S129.9 37.9 83.9 83.9 12.6 191 12.6 256s25.3 126.1 71.3 172.1S191 499.4 256 499.4s126.1-25.3 172.1-71.3S499.4 321 499.4 256s-25.3-126.1-71.3-172.1zM256 498.4C122.3 498.4 13.6 389.7 13.6 256S122.3 13.6 256 13.6 498.4 122.3 498.4 256 389.7 498.4 256 498.4zM423.1 88.9c-44.6-44.6-104-69.2-167.1-69.2S133.5 44.3 88.9 88.9 19.7 192.9 19.7 256s24.6 122.5 69.2 167.1 104 69.2 167.1 69.2 122.5-24.6 167.1-69.2 69.2-104 69.2-167.1-24.6-122.5-69.2-167.1zM256 491.3C126.3 491.3 20.7 385.7 20.7 256S126.3 20.7 256 20.7 491.3 126.3 491.3 256 385.7 491.3 256 491.3zM418.1 93.9C374.8 50.7 317.2 26.8 256 26.8S137.2 50.6 93.9 93.9 26.8 194.8 26.8 256s23.8 118.8 67.1 162.1 100.8 67.1 162.1 67.1c61.2 0 118.8-23.8 162.1-67.1s67.1-100.8 67.1-162.1c0-61.2-23.9-118.8-67.1-162.1zM256 484.2C130.2 484.2 27.8 381.8 27.8 256S130.2 27.8 256 27.8 484.2 130.2 484.2 256 381.8 484.2 256 484.2zM413 99c-41.9-41.9-97.7-65-157-65S140.9 57 99 99s-65 97.7-65 157 23 115.1 65 157c41.9 41.9 97.7 65 157 65s115.1-23.1 157-65 65-97.7 65-157-23-115.1-65-157zM256 477.1c-121.9 0-221.1-99.2-221.1-221.1S134.1 34.9 256 34.9 477.1 134.1 477.1 256 377.9 477.1 256 477.1zM408 104c-40.6-40.6-94.6-63-152-63s-111.4 22.4-152 63-63 94.6-63 152 22.4 111.4 63 152 94.6 63 152 63 111.4-22.4 152-63 63-94.6 63-152-22.4-111.4-63-152zM256 470c-118 0-214-96-214-214S138 42 256 42s214 96 214 214-96 214-214 214zm0-421.9C141.4 48.1 48.1 141.4 48.1 256S141.4 463.9 256 463.9 463.9 370.6 463.9 256 370.6 48.1 256 48.1zm0 414.8c-114.1 0-206.9-92.8-206.9-206.9S141.9 49.1 256 49.1 462.9 141.9 462.9 256 370.1 462.9 256 462.9zm0-407.7C145.3 55.2 55.2 145.3 55.2 256S145.3 456.8 256 456.8 456.8 366.7 456.8 256 366.7 55.2 256 55.2zm0 400.6c-110.1 0-199.8-89.6-199.8-199.8 0-110.1 89.6-199.8 199.8-199.8 110.1 0 199.8 89.6 199.8 199.8 0 110.1-89.7 199.8-199.8 199.8zm0-393.5C149.2 62.3 62.3 149.2 62.3 256S149.2 449.7 256 449.7 449.7 362.8 449.7 256 362.8 62.3 256 62.3zm0 386.4c-106.2 0-192.7-86.4-192.7-192.7 0-106.2 86.4-192.7 192.7-192.7 106.2 0 192.7 86.4 192.7 192.7 0 106.2-86.5 192.7-192.7 192.7zm0-379.3C153.1 69.4 69.4 153.1 69.4 256S153.1 442.6 256 442.6 442.6 358.9 442.6 256 358.9 69.4 256 69.4zm0 372.2c-102.3 0-185.6-83.2-185.6-185.6 0-102.3 83.2-185.6 185.6-185.6 102.3 0 185.6 83.2 185.6 185.6 0 102.3-83.3 185.6-185.6 185.6zm0-365c-98.9 0-179.4 80.5-179.4 179.4S157.1 435.4 256 435.4 435.4 354.9 435.4 256 354.9 76.6 256 76.6zm0 357.8c-98.4 0-178.4-80.1-178.4-178.4 0-98.4 80.1-178.4 178.4-178.4 98.4 0 178.4 80.1 178.4 178.4 0 98.4-80 178.4-178.4 178.4zm0-350.7C161 83.7 83.7 161 83.7 256S161 428.3 256 428.3 428.3 351 428.3 256 351 83.7 256 83.7zm0 343.6c-94.5 0-171.3-76.9-171.3-171.3S161.5 84.7 256 84.7 427.3 161.5 427.3 256 350.5 427.3 256 427.3zm0-336.5c-91.1 0-165.2 74.1-165.2 165.2S164.9 421.2 256 421.2 421.2 347.1 421.2 256 347.1 90.8 256 90.8zm0 329.4c-90.6 0-164.2-73.7-164.2-164.2S165.4 91.8 256 91.8 420.2 165.4 420.2 256 346.6 420.2 256 420.2zm0-322.3c-87.2 0-158.1 70.9-158.1 158.1S168.8 414.1 256 414.1 414.1 343.2 414.1 256 343.2 97.9 256 97.9zm0 315.2c-86.6 0-157.1-70.5-157.1-157.1S169.4 98.9 256 98.9 413.1 169.4 413.1 256 342.6 413.1 256 413.1zm0-308.1c-83.3 0-151 67.8-151 151s67.8 151 151 151 151-67.8 151-151-67.7-151-151-151zm0 301c-82.7 0-150-67.3-150-150s67.3-150 150-150 150 67.3 150 150-67.3 150-150 150zm0-293.9c-79.4 0-143.9 64.6-143.9 143.9S176.6 399.9 256 399.9 399.9 335.4 399.9 256 335.4 112.1 256 112.1zm0 286.8c-78.8 0-142.9-64.1-142.9-142.9S177.2 113.1 256 113.1 398.9 177.2 398.9 256 334.8 398.9 256 398.9zm0-279.7c-75.4 0-136.8 61.4-136.8 136.8S180.6 392.8 256 392.8 392.8 331.4 392.8 256 331.4 119.2 256 119.2zm0 272.6c-74.9 0-135.8-60.9-135.8-135.8S181.1 120.2 256 120.2 391.8 181.1 391.8 256 330.9 391.8 256 391.8zm0-265.5c-71.5 0-129.7 58.2-129.7 129.7S184.5 385.7 256 385.7 385.7 327.5 385.7 256 327.5 126.3 256 126.3zm0 258.4c-71 0-128.7-57.7-128.7-128.7S185 127.3 256 127.3 384.7 185 384.7 256 327 384.7 256 384.7zm0-251.3c-67.6 0-122.6 55-122.6 122.6s55 122.6 122.6 122.6 122.6-55 122.6-122.6-55-122.6-122.6-122.6zm0 244.2c-67.1 0-121.6-54.6-121.6-121.6S188.9 134.4 256 134.4 377.6 188.9 377.6 256 323.1 377.6 256 377.6zm0-237.1c-63.7 0-115.5 51.8-115.5 115.5S192.3 371.5 256 371.5 371.5 319.7 371.5 256 319.7 140.5 256 140.5zm0 230c-63.1 0-114.5-51.4-114.5-114.5S192.9 141.5 256 141.5 370.5 192.9 370.5 256 319.1 370.5 256 370.5z"/><path d="M256 170c-47.5 0-86 38.5-86 86s38.5 86 86 86 86-38.5 86-86-38.5-86-86-86zm0 92.5c-3.6 0-6.5-2.9-6.5-6.5s2.9-6.5 6.5-6.5 6.5 2.9 6.5 6.5-2.9 6.5-6.5 6.5z" fill="#cc584c"/><path class="st3" d="M175.5 241h161v3h-161zm80.5-60c-23.1 0-43.7 10.4-57.5 26.9l13.8 11.6c10.5-12.5 26.1-20.4 43.7-20.4s33.2 7.9 43.7 20.4l13.8-11.6C299.7 191.4 279.1 181 256 181z"/><path class="st3" d="M249.5 256c0-3.6 2.9-6.5 6.5-6.5V0C114.6 0 0 114.6 0 256s114.6 256 256 256V262.5c-3.6 0-6.5-2.9-6.5-6.5z"/></svg>