<svg version="1.1" xmlns="http://www.w3.org/2000/svg" x="0" y="0" viewBox="0 0 512 512" xml:space="preserve"><path d="M263 313c0 2.8-2.3 5-5 5h-4c-2.8 0-5-2.3-5-5V5c0-2.8 2.3-5 5-5h4c2.8 0 5 2.3 5 5v308z" fill="#826049"/><path d="M247 512l3-87 6 66 6-66 3 87 6-63 1-54 3 24-2 76 9-44 4-51 3 51 4-57-10.7-48.2L267 314v-5l7-15-9 6 1-13-10 13-10-13 1 13-9-6 7 15v5l-15.3 31.8L219 394l4 57 3-51 4 51 9 44-2-76 3-24 1 54 6 63z" fill="#e0ac7e"/><path d="M245 309h22v5h-22v-5z" fill="#724729"/><path d="M247 512l3-87 6 66V0h-2c-2.8 0-5 2.3-5 5v285.9l-3-3.9 1 13-9-6 7 15v5l-15.3 31.8L219 394l4 57 3-51 4 51 9 44-2-76 3-24 1 54 6 63z" opacity=".15" fill="#444"/></svg>