<svg version="1.1" id="icon" xmlns="http://www.w3.org/2000/svg" x="0" y="0" viewBox="0 0 512 512" style="enable-background:new 0 0 512 512" xml:space="preserve"><style type="text/css">.st4{fill:#cc584c}</style><path d="M277.9 0h-44c-13.3 0-24 5.4-24 12v371.5c0 10.9 3 21.8 8.9 32.4l10.2 18.3c5.9 10.5 8.9 21.4 8.9 32.4V504c0 4.4 7.2 8 16 8h4c8.8 0 16-3.6 16-8v-37.5c0-10.9 3-21.8 8.9-32.4l10.2-18.3c5.9-10.5 8.9-21.4 8.9-32.4V12c0-6.6-10.7-12-24-12z" style="fill:#ddd"/><path d="M274 387h-36.2c-4.4 0-8-3.6-8-8V44c0-4.4 3.6-8 8-8H274c4.4 0 8 3.6 8 8v335c0 4.4-3.6 8-8 8z" style="fill:#f4f4f4"/><path d="M275.9 358h-40c-1.1 0-2-.9-2-2s.9-2 2-2h40c1.1 0 2 .9 2 2s-.9 2-2 2zm-6.5-19h-29.7c-1.1 0-2-.9-2-2s.9-2 2-2h29.7c1.1 0 2 .9 2 2s-.8 2-2 2zm6.5-19h-40c-1.1 0-2-.9-2-2s.9-2 2-2h40c1.1 0 2 .9 2 2s-.9 2-2 2zm-6.5-19h-29.7c-1.1 0-2-.9-2-2s.9-2 2-2h29.7c1.1 0 2 .9 2 2s-.8 2-2 2zm6.5-19h-40c-1.1 0-2-.9-2-2s.9-2 2-2h40c1.1 0 2 .9 2 2s-.9 2-2 2zm-6.5-19h-29.7c-1.1 0-2-.9-2-2s.9-2 2-2h29.7c1.1 0 2 .9 2 2s-.8 2-2 2zm6.5-19h-40c-1.1 0-2-.9-2-2s.9-2 2-2h40c1.1 0 2 .9 2 2s-.9 2-2 2zm-6.5-19h-29.7c-1.1 0-2-.9-2-2s.9-2 2-2h29.7c1.1 0 2 .9 2 2s-.8 2-2 2zm6.5-19h-40c-1.1 0-2-.9-2-2s.9-2 2-2h40c1.1 0 2 .9 2 2s-.9 2-2 2zm-6.5-19h-29.7c-1.1 0-2-.9-2-2s.9-2 2-2h29.7c1.1 0 2 .9 2 2s-.8 2-2 2zm6.5-19h-40c-1.1 0-2-.9-2-2s.9-2 2-2h40c1.1 0 2 .9 2 2s-.9 2-2 2zm-6.5-19h-29.7c-1.1 0-2-.9-2-2s.9-2 2-2h29.7c1.1 0 2 .9 2 2s-.8 2-2 2zm6.5-19h-40c-1.1 0-2-.9-2-2s.9-2 2-2h40c1.1 0 2 .9 2 2s-.9 2-2 2zm-6.5-19h-29.7c-1.1 0-2-.9-2-2s.9-2 2-2h29.7c1.1 0 2 .9 2 2s-.8 2-2 2zm6.5-19h-40c-1.1 0-2-.9-2-2s.9-2 2-2h40c1.1 0 2 .9 2 2s-.9 2-2 2z" style="fill:#999"/><path d="M263 212h-14V79c0-2.2 1.8-4 4-4h6c2.2 0 4 1.8 4 4v133z" style="fill:#eec646"/><path class="st4" d="M249 211h14v244h-14z"/><path class="st4" d="M265.5 449.2c-1.7-.6-4.2-1.2-7.5-1.2h-4c-3.3 0-5.7.6-7.5 1.2-1.5.6-2.5 2.1-2.5 3.7v48.2c0 1.6 1 3.1 2.5 3.7 1.7.6 4.2 1.2 7.5 1.2h4c3.3 0 5.7-.6 7.5-1.2 1.5-.6 2.5-2.1 2.5-3.7v-48.2c0-1.6-1-3.1-2.5-3.7z"/></svg>