<svg version="1.1" id="icon" xmlns="http://www.w3.org/2000/svg" x="0" y="0" viewBox="0 0 512 512" style="enable-background:new 0 0 512 512" xml:space="preserve"><style type="text/css">.st0{fill:#2e86b7}.st3{fill:#ddd}</style><path class="st0" d="M275.5 178v-72.8L228.8 0l-78.2.1 33.6 90.1c6.9 18.5 16.4 35.8 28.4 51.4l37 48.4 25.9-12z"/><path d="M239 70c-9.6 21.7-14.5 44.7-14.5 68.5v18.9l24.9 32.6 26-12v-72.8l-26-58.6L239 70z" style="opacity:.3;fill:#444"/><path class="st0" d="M236.5 178v-39.6c0-21.9 4.6-43.6 13.5-63.6L283.2 0l78.2.1-33.6 90.1c-6.9 18.5-16.4 35.8-28.4 51.4l-37 48.4-25.9-12z"/><circle cx="256" cy="341.5" r="168.5" style="fill:#999"/><path class="st3" d="M256 187c41.3 0 80.1 16.1 109.2 45.3 29.2 29.2 45.3 68 45.3 109.2s-16.1 80.1-45.3 109.2C336 479.9 297.2 496 256 496s-80.1-16.1-109.2-45.3c-29.2-29.2-45.3-68-45.3-109.2s16.1-80.1 45.3-109.2S214.7 187 256 187m0-16c-94.2 0-170.5 76.3-170.5 170.5S161.8 512 256 512s170.5-76.3 170.5-170.5S350.2 171 256 171z"/><path class="st3" d="M322.7 434.4H193.1v-28.1l59.7-62.8c14.7-16.8 22.1-30.1 22.1-39.9 0-8-1.7-14.1-5.2-18.2-3.5-4.2-8.5-6.3-15.2-6.3-6.6 0-11.9 2.8-16 8.4-4.1 5.6-6.1 12.5-6.1 20.9h-43.1c0-11.4 2.8-21.9 8.6-31.6 5.7-9.7 13.6-17.2 23.7-22.7 10.1-5.4 21.4-8.2 33.9-8.2 20.1 0 35.5 4.6 46.4 13.9 10.8 9.3 16.3 22.6 16.3 39.9 0 7.3-1.4 14.4-4.1 21.4-2.7 6.9-7 14.2-12.7 21.8-5.7 7.6-15 17.8-27.8 30.6l-24 27.7h73.1v33.2z"/></svg>