<svg xmlns="http://www.w3.org/2000/svg" viewBox="0 0 512 512" xml:space="preserve"><style>.st2{fill:#36434f}</style><path fill="#f4f4f4" d="M76 73h360v439H76z"/><path fill="#667e8e" d="M76 0h360v75H76z"/><circle class="st2" cx="211" cy="44" r="17"/><circle class="st2" cx="301" cy="44" r="17"/><path d="M296.5 50h-81c-3.3 0-6-2.7-6-6s2.7-6 6-6h81c3.3 0 6 2.7 6 6s-2.7 6-6 6z" fill="#7193ad"/><path d="M172 368h168v36H172zm9 107h12v14h-12zm153 0h-56v14h56zm-134 0h71v14h-71zm141 0v14h42v-14h-39zm-167 0h-45v14h45zm-16-48h56v14h-56zm63 0h8v14h-8zm81 0h81v14h-81zm-66 0h59v14h-59zm-107 0h22v14h-22zm173 24h-5v14h40v-14zm-12 14v-14H171v14zm54-14h39v14h-39zm-180 0h-35v14h35zm29-355h126v23H193z" fill="#ddd"/><path class="st2" d="M132.5 141h247v3h-247zm116.8 192.8H147v-20.3l48.3-51.5c6.6-7.2 11.5-13.6 14.7-19 3.2-5.4 4.8-10.5 4.8-15.4 0-6.6-1.7-11.8-5-15.6-3.4-3.8-8.1-5.7-14.4-5.7-6.7 0-12 2.3-15.8 6.9-3.9 4.6-5.8 10.7-5.8 18.2H144c0-9.1 2.2-17.4 6.5-24.9s10.5-13.4 18.4-17.7c7.9-4.3 16.9-6.4 27-6.4 15.4 0 27.3 3.7 35.8 11.1s12.8 17.8 12.8 31.3c0 7.4-1.9 14.9-5.7 22.6-3.8 7.7-10.4 16.6-19.7 26.8L185.2 310h64.2v23.8zm115.5-109.6c0 7.2-1.8 13.7-5.4 19.3-3.6 5.6-8.6 10.1-15 13.4 7.2 3.5 13 8.3 17.2 14.4 4.2 6.1 6.4 13.3 6.4 21.6 0 13.3-4.5 23.7-13.5 31.4-9 7.7-21.3 11.5-36.8 11.5-15.5 0-27.8-3.9-36.9-11.6-9.1-7.7-13.6-18.2-13.6-31.4 0-8.3 2.1-15.5 6.4-21.6 4.2-6.2 9.9-10.9 17.1-14.4-6.4-3.3-11.3-7.8-14.9-13.4-3.6-5.6-5.4-12-5.4-19.3 0-12.7 4.2-22.8 12.7-30.4 8.5-7.6 20-11.3 34.6-11.3 14.5 0 26 3.7 34.5 11.2 8.3 7.6 12.6 17.8 12.6 30.6zm-26.6 66.6c0-6.5-1.9-11.7-5.6-15.6-3.8-3.9-8.8-5.8-15.2-5.8-6.3 0-11.3 1.9-15.1 5.8-3.8 3.9-5.6 9.1-5.6 15.6 0 6.4 1.8 11.5 5.5 15.4s8.8 5.8 15.4 5.8c6.4 0 11.5-1.9 15.1-5.6 3.7-3.8 5.5-9 5.5-15.6zm-3-65.2c0-5.8-1.5-10.5-4.6-14-3.1-3.5-7.4-5.3-13-5.3-5.5 0-9.8 1.7-12.9 5.1-3.1 3.4-4.6 8.1-4.6 14.2 0 5.9 1.5 10.7 4.6 14.4 3.1 3.6 7.4 5.4 13 5.4s9.9-1.8 13-5.4c2.9-3.6 4.5-8.4 4.5-14.4z"/></svg>