<svg version="1.1" xmlns="http://www.w3.org/2000/svg" x="0" y="0" viewBox="0 0 512 512" xml:space="preserve"><style type="text/css">.st1{opacity:.15;fill:#444}</style><path d="M256 0C142.2 0 50 192.2 50 306s92.2 206 206 206 206-92.2 206-206S369.8 0 256 0zm63.7 90.2c-4.1 7.4-11.8 11.6-19.7 11.6-3.7 0-7.4-.9-10.9-2.8-10.1-5.6-21.5-8.5-33.1-8.5s-23 2.9-33.1 8.5c-10.9 6-24.6 2.1-30.6-8.8s-2.1-24.6 8.8-30.6c16.7-9.3 35.7-14.1 54.9-14.1 19.2 0 38.2 4.9 54.9 14.1 10.9 6.1 14.8 19.8 8.8 30.6z" fill="#2e86b7"/><circle class="st1" cx="256" cy="306" r="129"/><path class="st1" d="M222.9 99c-10.9 6-24.6 2.1-30.6-8.8s-2.1-24.6 8.8-30.6c16.7-9.3 35.7-14.1 54.9-14.1V0C142.2 0 50 192.2 50 306s92.2 206 206 206V90.5c-11.6 0-23 2.9-33.1 8.5z"/></svg>