<svg version="1.1" xmlns="http://www.w3.org/2000/svg" x="0" y="0" viewBox="0 0 512 512" xml:space="preserve"><style type="text/css">.st2{fill:#36434f}</style><path d="M502.3 81.4L61 61.8l67 245.5 375-41.6c5.1-.6 9-4.9 9-10.1v-164c0-5.5-4.3-10-9.7-10.2zM204.4 275.8c-.5.1-1.1.2-1.6.2-3.2 0-6-2.2-6.8-5.4L153.5 90.8c-.9-3.8 1.4-7.5 5.2-8.4 3.8-.9 7.5 1.4 8.4 5.2l42.5 179.8c.9 3.8-1.4 7.5-5.2 8.4zm61.6-4.9c-.5.1-.9.1-1.4.1-3.3 0-6.2-2.3-6.9-5.6l-34-172.7c-.7-3.8 1.7-7.5 5.5-8.2 3.8-.7 7.5 1.7 8.2 5.5l34 172.7c.9 3.7-1.6 7.4-5.4 8.2zm61.6-5c-.4.1-.7.1-1.1.1-3.4 0-6.4-2.5-6.9-5.9L294.1 94.6c-.6-3.8 2-7.4 5.9-8 3.8-.6 7.4 2 8 5.9L333.5 258c.5 3.8-2.1 7.3-5.9 7.9zm61.5-4.9h-.8c-3.5 0-6.6-2.7-7-6.3l-17-158.3c-.4-3.8 2.4-7.3 6.2-7.7 3.8-.4 7.3 2.4 7.7 6.2l17 158.3c.5 3.9-2.3 7.3-6.1 7.8zm61.5-5h-.4c-3.7 0-6.8-2.9-7-6.6l-8.5-151.2c-.2-3.9 2.7-7.2 6.6-7.4 3.8-.2 7.2 2.7 7.4 6.6l8.5 151.2c.2 3.9-2.8 7.2-6.6 7.4z" fill="#ffa000"/><path d="M456.3 234l.8 14.6c.2 3.9-2.7 7.2-6.6 7.4h-.4c-3.7 0-6.8-2.9-7-6.6l-.9-15.4h-49.1l2.1 19.3c.4 3.8-2.4 7.3-6.2 7.7h-.8c-3.5 0-6.6-2.7-7-6.3L379 234h-49.4l3.7 23.9c.6 3.8-2 7.4-5.9 8-.4.1-.7.1-1.1.1-3.4 0-6.4-2.5-6.9-5.9l-4-26.1h-49.7l5.6 28.6c.7 3.8-1.7 7.5-5.5 8.2-.5.1-.9.1-1.4.1-3.3 0-6.2-2.3-6.9-5.6l-6.2-31.4h-49.9l7.9 33.4c.9 3.8-1.4 7.5-5.2 8.4-.5.1-1.1.2-1.6.2-3.2 0-6-2.2-6.8-5.4l-8.7-36.6h-79l20 73.3 375-41.5c5.1-.6 9-4.9 9-10.1V234h-55.7z" opacity=".15" fill="#444"/><path class="st2" d="M512 438H67.8c-16 0-30-9.1-36.5-23.7s-3.9-31.1 6.7-43l63.2-70.5c2.3-2.5 3.1-6 2.2-9.3L34.7 40H0V0h34.7c18 0 33.9 12.1 38.6 29.5L142 281c4.5 16.4.4 33.9-11 46.5L67.8 398H512v40z"/><circle class="st2" cx="140" cy="475" r="37"/><circle class="st2" cx="440" cy="475" r="37"/></svg>