<svg version="1.1" xmlns="http://www.w3.org/2000/svg" x="0" y="0" viewBox="0 0 512 512" xml:space="preserve"><style type="text/css">.st0{fill:#2e86b7}</style><path class="st0" d="M336 258H176V80c0-44.2 35.8-80 80-80s80 35.8 80 80v178z"/><path class="st0" d="M256 512c-46.9 0-85-38.1-85-85V253c0-2.8 2.2-5 5-5h160c2.8 0 5 2.2 5 5v174c0 46.9-38.1 85-85 85z"/><path d="M256 512c-46.9 0-85-38.1-85-85V253c0-2.8 2.2-5 5-5h160c2.8 0 5 2.2 5 5v174c0 46.9-38.1 85-85 85z" opacity=".15" fill="#444"/><path d="M311 74.5v279c0 4.4-3.6 8-8 8s-8-3.6-8-8v-279c0-4.4 3.6-8 8-8s8 3.6 8 8zm-8 315c-4.4 0-8 3.6-8 8v40c0 4.4 3.6 8 8 8s8-3.6 8-8v-40c0-4.4-3.6-8-8-8z" opacity=".5" fill="#fff"/></svg>