<svg version="1.1" xmlns="http://www.w3.org/2000/svg" x="0" y="0" viewBox="0 0 512 512" xml:space="preserve"><path fill="#36434f" d="M0 0h512v512H0z"/><path d="M486.4 475.6c0 5.9-4.9 10.8-10.8 10.8H36.4c-5.9 0-10.8-4.9-10.8-10.8V36.4c0-5.9 4.9-10.8 10.8-10.8h439.2c5.9 0 10.8 4.9 10.8 10.8v439.2z" fill="#f4f4f4"/><path d="M414.9 401.4H97.2c-3.2 0-5.8-2.6-5.8-5.9v-279c0-3.2 2.6-5.8 5.8-5.8h317.7c3.2 0 5.9 2.6 5.9 5.8v279c-.1 3.2-2.7 5.9-5.9 5.9zM97.2 111.6c-2.7 0-5 2.3-5 4.9v279c0 2.7 2.3 5 5 5h317.7c2.7 0 4.9-2.3 4.9-5v-279c0-2.7-2.3-4.9-4.9-4.9H97.2z" fill="#999"/><circle cx="256" cy="256" r="110.3" fill="#bbb"/><path d="M221.4 256c0 8.2-6.7 14.9-14.9 14.9s-14.9-6.7-14.9-14.9 6.7-14.9 14.9-14.9 14.9 6.7 14.9 14.9zm84.1-14.9c-8.2 0-14.9 6.7-14.9 14.9s6.7 14.9 14.9 14.9 14.9-6.7 14.9-14.9-6.7-14.9-14.9-14.9z" fill="#122a3a"/><path d="M36.4 25.6c-5.9 0-10.8 4.9-10.8 10.8v439.2c0 5.9 4.9 10.8 10.8 10.8H256V25.6H36.4z" opacity=".15" fill="#444"/></svg>