<svg version="1.1" xmlns="http://www.w3.org/2000/svg" x="0" y="0" viewBox="0 0 512 512" xml:space="preserve"><path d="M256 0C114.6 0 0 114.6 0 256s114.6 256 256 256 256-114.6 256-256S397.4 0 256 0zm32 192.6l-22.3 38.6c-3-1.2-6.3-1.8-9.7-1.8s-6.7.7-9.7 1.8L224 192.6c9.6-4.9 20.5-7.6 32-7.6s22.4 2.8 32 7.6zM267.2 256c0 5.5-4 10-9.2 11v8.8c0 1.1-.9 2-2 2s-2-.9-2-2V267c-5.2-.9-9.2-5.5-9.2-11 0-1.3.2-2.6.7-3.8l-7.6-4.4c-1-.6-1.3-1.8-.7-2.7.6-1 1.8-1.3 2.7-.7l7.6 4.4c2-2.4 5.1-3.9 8.5-3.9s6.5 1.5 8.5 3.9l7.6-4.4c1-.6 2.2-.2 2.7.7.6 1 .2 2.2-.7 2.7l-7.6 4.4c.4 1.2.7 2.5.7 3.8zm-37.5-4h-44.6c.6-10.8 3.6-21.5 9.4-31.5 5.8-10 13.6-18 22.6-23.9l22.3 38.6c-5.1 4.1-8.7 10-9.7 16.8zm0 8c1 6.8 4.6 12.7 9.7 16.8l-22.3 38.6c-9-5.9-16.8-13.9-22.6-23.9-5.8-10-8.8-20.7-9.4-31.5h44.6zm16.6 20.8c3 1.2 6.3 1.8 9.7 1.8s6.7-.7 9.7-1.8l22.3 38.6c-9.6 4.9-20.5 7.6-32 7.6s-22.4-2.8-32-7.6l22.3-38.6zm26.3-4c5.1-4.1 8.7-10 9.7-16.8h44.6c-.6 10.8-3.6 21.5-9.4 31.5-5.8 10-13.6 18-22.6 23.9l-22.3-38.6zm9.7-24.8c-1-6.8-4.6-12.7-9.7-16.8l22.3-38.6c9 5.9 16.8 13.9 22.6 23.9 5.8 10 8.8 20.7 9.4 31.5h-44.6zM55.8 308.7c-13.4-50.9-7.5-107 20.9-156.2 28.4-49.2 74-82.4 124.9-96.2 13.4-3.7 26.4 7.1 25.3 20.9l-8.4 101.4c-15 7.2-28 18.9-36.9 34.4s-12.5 32.6-11.3 49.2l-83.6 58c-11.5 7.9-27.3 2-30.9-11.5zm346 94.3c-37.4 37.1-88.9 60-145.8 60s-108.3-22.9-145.8-60c-9.9-9.8-7.1-26.4 5.5-32.4l92-43.4c13.8 9.3 30.4 14.8 48.2 14.8s34.5-5.5 48.2-14.8l92 43.4c12.8 5.9 15.5 22.6 5.7 32.4zm23.6-82.8l-83.6-58c1.2-16.6-2.4-33.7-11.3-49.2s-22-27.1-36.9-34.4l-8.4-101.4C284 63.4 297 52.6 310.4 56.3c50.8 13.8 96.4 47 124.9 96.2 28.4 49.2 34.3 105.3 20.9 156.2-3.6 13.5-19.4 19.4-30.8 11.5z" fill="#ddd"/><path d="M256 27C129.5 27 27 129.5 27 256s102.5 229 229 229 229-102.5 229-229S382.5 27 256 27zm0 315c-47.5 0-86-38.5-86-86s38.5-86 86-86 86 38.5 86 86-38.5 86-86 86z" fill="#36434f"/><path d="M256 352.5c-53.2 0-96.5-43.3-96.5-96.5s43.3-96.5 96.5-96.5 96.5 43.3 96.5 96.5-43.3 96.5-96.5 96.5zm0-192c-52.7 0-95.5 42.8-95.5 95.5s42.8 95.5 95.5 95.5 95.5-42.8 95.5-95.5-42.8-95.5-95.5-95.5zm0 202c-58.7 0-106.5-47.8-106.5-106.5S197.3 149.5 256 149.5 362.5 197.3 362.5 256 314.7 362.5 256 362.5zm0-212c-58.2 0-105.5 47.3-105.5 105.5S197.8 361.5 256 361.5 361.5 314.2 361.5 256 314.2 150.5 256 150.5zm0 222c-64.2 0-116.5-52.3-116.5-116.5S191.8 139.5 256 139.5 372.5 191.8 372.5 256 320.2 372.5 256 372.5zm0-232c-63.7 0-115.5 51.8-115.5 115.5S192.3 371.5 256 371.5 371.5 319.7 371.5 256 319.7 140.5 256 140.5zm0 242c-69.8 0-126.5-56.7-126.5-126.5S186.2 129.5 256 129.5 382.5 186.2 382.5 256 325.8 382.5 256 382.5zm0-252c-69.2 0-125.5 56.3-125.5 125.5S186.8 381.5 256 381.5 381.5 325.2 381.5 256 325.2 130.5 256 130.5zm0 262c-75.3 0-136.5-61.2-136.5-136.5S180.7 119.5 256 119.5 392.5 180.7 392.5 256 331.3 392.5 256 392.5zm0-272c-74.7 0-135.5 60.8-135.5 135.5S181.3 391.5 256 391.5 391.5 330.7 391.5 256 330.7 120.5 256 120.5zm0 282c-80.8 0-146.5-65.7-146.5-146.5S175.2 109.5 256 109.5 402.5 175.2 402.5 256 336.8 402.5 256 402.5zm0-292c-80.2 0-145.5 65.3-145.5 145.5S175.8 401.5 256 401.5 401.5 336.2 401.5 256 336.2 110.5 256 110.5zm0 302c-86.3 0-156.5-70.2-156.5-156.5S169.7 99.5 256 99.5 412.5 169.7 412.5 256 342.3 412.5 256 412.5zm0-312c-85.7 0-155.5 69.8-155.5 155.5S170.3 411.5 256 411.5 411.5 341.7 411.5 256 341.7 100.5 256 100.5zm0 322c-91.8 0-166.5-74.7-166.5-166.5S164.2 89.5 256 89.5 422.5 164.2 422.5 256 347.8 422.5 256 422.5zm0-332c-91.3 0-165.5 74.2-165.5 165.5S164.7 421.5 256 421.5 421.5 347.3 421.5 256 347.3 90.5 256 90.5zm0 342c-97.3 0-176.5-79.2-176.5-176.5S158.7 79.5 256 79.5 432.5 158.7 432.5 256 353.3 432.5 256 432.5zm0-352c-96.8 0-175.5 78.7-175.5 175.5S159.2 431.5 256 431.5 431.5 352.8 431.5 256 352.8 80.5 256 80.5zm0 362c-102.8 0-186.5-83.7-186.5-186.5S153.2 69.5 256 69.5 442.5 153.2 442.5 256 358.8 442.5 256 442.5zm0-372C153.7 70.5 70.5 153.7 70.5 256S153.7 441.5 256 441.5 441.5 358.3 441.5 256 358.3 70.5 256 70.5zm0 382c-108.4 0-196.5-88.1-196.5-196.5S147.6 59.5 256 59.5 452.5 147.6 452.5 256 364.4 452.5 256 452.5zm0-392C148.2 60.5 60.5 148.2 60.5 256S148.2 451.5 256 451.5 451.5 363.8 451.5 256 363.8 60.5 256 60.5zm0 402c-113.9 0-206.5-92.6-206.5-206.5S142.1 49.5 256 49.5 462.5 142.1 462.5 256 369.9 462.5 256 462.5zm0-412C142.7 50.5 50.5 142.7 50.5 256S142.7 461.5 256 461.5 461.5 369.3 461.5 256 369.3 50.5 256 50.5zm0 422c-57.8 0-112.2-22.5-153.1-63.4C62 368.2 39.5 313.8 39.5 256S62 143.8 102.9 102.9C143.8 62 198.2 39.5 256 39.5S368.2 62 409.1 102.9c40.9 40.9 63.4 95.3 63.4 153.1S450 368.2 409.1 409.1s-95.3 63.4-153.1 63.4zm0-432C137.2 40.5 40.5 137.2 40.5 256S137.2 471.5 256 471.5 471.5 374.8 471.5 256 374.8 40.5 256 40.5z" fill="#2c3a44"/><path d="M256 0C114.6 0 0 114.6 0 256s114.6 256 256 256 256-114.6 256-256S397.4 0 256 0zm32 192.6l-22.3 38.6c-3-1.2-6.3-1.8-9.7-1.8s-6.7.7-9.7 1.8L224 192.6c9.6-4.9 20.5-7.6 32-7.6s22.4 2.8 32 7.6zM267.2 256c0 5.5-4 10-9.2 11v8.8c0 1.1-.9 2-2 2s-2-.9-2-2V267c-5.2-.9-9.2-5.5-9.2-11 0-1.3.2-2.6.7-3.8l-7.6-4.4c-1-.6-1.3-1.8-.7-2.7.6-1 1.8-1.3 2.7-.7l7.6 4.4c2-2.4 5.1-3.9 8.5-3.9s6.5 1.5 8.5 3.9l7.6-4.4c1-.6 2.2-.2 2.7.7.6 1 .2 2.2-.7 2.7l-7.6 4.4c.4 1.2.7 2.5.7 3.8zm-37.5-4h-44.6c.6-10.8 3.6-21.5 9.4-31.5 5.8-10 13.6-18 22.6-23.9l22.3 38.6c-5.1 4.1-8.7 10-9.7 16.8zm0 8c1 6.8 4.6 12.7 9.7 16.8l-22.3 38.6c-9-5.9-16.8-13.9-22.6-23.9-5.8-10-8.8-20.7-9.4-31.5h44.6zm16.6 20.8c3 1.2 6.3 1.8 9.7 1.8s6.7-.7 9.7-1.8l22.3 38.6c-9.6 4.9-20.5 7.6-32 7.6s-22.4-2.8-32-7.6l22.3-38.6zm26.3-4c5.1-4.1 8.7-10 9.7-16.8h44.6c-.6 10.8-3.6 21.5-9.4 31.5-5.8 10-13.6 18-22.6 23.9l-22.3-38.6zm9.7-24.8c-1-6.8-4.6-12.7-9.7-16.8l22.3-38.6c9 5.9 16.8 13.9 22.6 23.9 5.8 10 8.8 20.7 9.4 31.5h-44.6zM55.8 308.7c-13.4-50.9-7.5-107 20.9-156.2 28.4-49.2 74-82.4 124.9-96.2 13.4-3.7 26.4 7.1 25.3 20.9l-8.4 101.4c-15 7.2-28 18.9-36.9 34.4s-12.5 32.6-11.3 49.2l-83.6 58c-11.5 7.9-27.3 2-30.9-11.5zm346 94.3c-37.4 37.1-88.9 60-145.8 60s-108.3-22.9-145.8-60c-9.9-9.8-7.1-26.4 5.5-32.4l92-43.4c13.8 9.3 30.4 14.8 48.2 14.8s34.5-5.5 48.2-14.8l92 43.4c12.8 5.9 15.5 22.6 5.7 32.4zm23.6-82.8l-83.6-58c1.2-16.6-2.4-33.7-11.3-49.2s-22-27.1-36.9-34.4l-8.4-101.4C284 63.4 297 52.6 310.4 56.3c50.8 13.8 96.4 47 124.9 96.2 28.4 49.2 34.3 105.3 20.9 156.2-3.6 13.5-19.4 19.4-30.8 11.5z" opacity=".7" fill="#ddd"/><path d="M110.2 403c-9.9-9.8-7.1-26.4 5.5-32.4l92-43.4c13.8 9.3 30.4 14.8 48.2 14.8v-15c-11.5 0-22.4-2.8-32-7.6l22.3-38.6c3 1.2 6.3 1.8 9.7 1.8v-4.9c-1.1 0-2-.9-2-2V267c-5.2-.9-9.2-5.5-9.2-11 0-1.3.2-2.6.7-3.8l-7.6-4.4c-1-.6-1.3-1.8-.7-2.7.6-1 1.8-1.3 2.7-.7l7.6 4.4c2-2.4 5.1-3.9 8.5-3.9v-15.5c-3.4 0-6.7.7-9.7 1.8L224 192.6c9.6-4.9 20.5-7.6 32-7.6V0C114.6 0 0 114.6 0 256s114.6 256 256 256v-49c-56.9 0-108.3-22.9-145.8-60zm129.2-126.2l-22.3 38.6c-9-5.9-16.8-13.9-22.6-23.9-5.8-10-8.8-20.7-9.4-31.5h44.6c1 6.8 4.6 12.7 9.7 16.8zm0-41.6c-5.1 4.1-8.7 10-9.7 16.8h-44.6c.6-10.8 3.6-21.5 9.4-31.5 5.8-10 13.6-18 22.6-23.9l22.3 38.6zM55.8 308.7c-13.4-50.9-7.5-107 20.9-156.2 28.4-49.2 74-82.4 124.9-96.2 13.4-3.7 26.4 7.1 25.3 20.9l-8.4 101.4c-15 7.2-28 18.9-36.9 34.4s-12.5 32.6-11.3 49.2l-83.6 58c-11.5 7.9-27.3 2-30.9-11.5z" opacity=".15" fill="#444"/></svg>