<svg version="1.1" xmlns="http://www.w3.org/2000/svg" x="0" y="0" viewBox="0 0 512 512" xml:space="preserve"><style type="text/css">.st0{fill:#4b5d6b}.st1{fill:#36434f}</style><path class="st0" d="M229.5 77c0-5.2 2.2-9.8 5.7-13.1 3.2-3 7.6-4.9 12.3-4.9h18v-6.8h-3.4L272.3 0c9 6.8 14.7 17.5 14.7 29.6l-.5 6.1-6.3 75c0 10-8.1 18-18 18H243l-5.6 27-13.5-16.7 5.6-62z"/><path class="st1" d="M263.4 45.9L272.3 0c9 6.8 14.7 17.5 14.7 29.6l-.5 6.1-1.5 17.4c-4.5-4.6-10.8-7.5-17.7-7.5-1.3 0-2.6.1-3.9.3z"/><path class="st0" d="M282.5 77c0-5.2-2.2-9.8-5.7-13.1-3.2-3-7.6-4.9-12.3-4.9h-18v-6.8h3.4L239.7 0c-9 6.8-14.7 17.5-14.7 29.6l.5 6.1 6.3 75c0 10 8.1 18 18 18H269l5.6 27 13.5-16.9-5.6-61.8z"/><path class="st1" d="M284 65.7l-1.2 14.5-.3-3.2c0-5.2-2.2-9.8-5.7-13.1-3.2-3-7.6-4.9-12.3-4.9h1.1v-4.4c5.3.3 10.4 2.4 14.3 6.1 1.6 1.4 3 3.2 4.1 5zm-52.2 45.1l-2.5-30.6-2.4 26 .4 4.8c.1 9.7 6.4 18 15.1 21.1l.7-3.2h6.8c-10.1-.1-18.1-8.1-18.1-18.1z"/><path class="st0" d="M291.4 203.2c.7 0 1.4-.3 1.9-1 .7-1 .4-2.4-.6-3.1l-39.4-27c-1-.7-2.4-.4-3.1.6-.7 1-.4 2.4.6 3.1l39.4 27c.3.3.8.4 1.2.4z"/><path class="st0" d="M220.6 203.2c-.7 0-1.4-.3-1.9-1-.7-1-.4-2.4.6-3.1l39.4-27c1-.7 2.4-.4 3.1.6s.4 2.4-.6 3.1l-39.4 27c-.3.3-.8.4-1.2.4z"/><path d="M416.6 374.5c-4.6-58.6-66.5-142-73.3-180.5-4.4-22.5 1.4-48.6 4.2-59.3.7-3-.5-6.1-3.2-7.6l-35.1-20.2c-3.1-1.7-6.9-.8-8.8 2l-29.2 42.4c-1.4 2-1.6 4.5-.6 6.7 2.9 6.2 9.4 20.3 18 38.5L281 202c-1.6 1.2-1.8 3.6-.4 5.1l26 26.9c2.1 4.2 4.2 8.6 6.3 12.9 21.2 43.3 45.9 89.4 51.8 115 10.8 47-1.4 101.3-4.8 114.2-.6 2-.6 4.1-.2 6.2l2.5 11.7c.9 4.1 3.6 7.6 7.4 9.4l15.1 7.3c4.4 2.1 9.5 1.7 13.5-1l6.5-4.5c3.3-2.2 5.4-5.8 5.8-9.7 2.4-22 10.6-62.4 6.1-121zM240.9 151.3L211.7 109c-2-2.9-5.8-3.8-8.9-2.1l-35.1 20.2c-2.7 1.5-3.9 4.6-3.2 7.6 2.8 10.7 8.6 36.8 4.2 59.3-6.7 38.5-68.7 121.9-73.2 180.5s3.7 99 6.1 121c.4 3.9 2.5 7.5 5.8 9.7l6.5 4.5c4 2.7 9.1 3.1 13.5 1l15.1-7.3c3.8-1.8 6.5-5.3 7.4-9.4l2.5-11.7c.4-2.1.4-4.2-.2-6.2-3.4-12.9-15.6-67.2-4.8-114.2 5.9-25.6 30.6-71.7 51.8-115 2.2-4.4 4.3-8.8 6.4-13.1l25.8-26.7c1.4-1.5 1.2-3.9-.4-5.1l-7.5-5.5c8.6-18.2 15.1-32.3 18-38.5 1-2.2.8-4.7-.6-6.7z" fill="#ffa000"/><path class="st1" d="M248.6 45.9L239.7 0c-9 6.8-14.7 17.5-14.7 29.6l.5 6.1 1.4 17.3c4.5-4.6 10.8-7.5 17.7-7.5 1.4.1 2.7.2 4 .4zM100.9 437.7l-5.7 1.9c1.7 24.7 5 43.3 6.3 55.9.4 3.9 2.5 7.5 5.8 9.7l6.5 4.5c4 2.7 9.1 3.1 13.5 1l15.1-7.3c3.8-1.8 6.5-5.3 7.4-9.4l2.5-11.7c.4-1.8.4-3.7 0-5.6l-44.9-37.8c-1.8-1.5-4.2-2-6.5-1.2zm112.4-284.5l-24-38.5-21.6 12.4c-2.7 1.5-3.9 4.6-3.2 7.6 2.8 10.7 8.6 36.8 4.2 59.3-6.7 38.5-68.7 121.9-73.2 180.5-.9 11.9-1.3 23-1.3 33.3l10.3-13.8c.8-1.1 1.3-2.4 1.3-3.8.2-5.1.5-10.4.9-15.8 3-39.4 32-90 52.8-130.7.5-.9 1.1-1.7 1.9-2.3l32.6-24.6c1.1-.8 1.9-2 2.4-3.3l17.5-54.7c.7-1.8.5-3.9-.6-5.6zm197.8 284.5l5.7 1.9c-1.7 24.7-5 43.3-6.3 55.9-.4 3.9-2.5 7.5-5.8 9.7l-6.5 4.5c-4 2.7-9.1 3.1-13.5 1l-15.1-7.3c-3.8-1.8-6.5-5.3-7.4-9.4l-2.5-11.7c-.4-1.8-.4-3.7 0-5.6l44.9-37.8c1.8-1.5 4.2-2 6.5-1.2zM298.7 153.2l24-38.5 21.6 12.4c2.7 1.5 3.9 4.6 3.2 7.6-2.8 10.7-8.6 36.8-4.2 59.3 6.8 38.5 68.7 121.9 73.3 180.5.9 11.9 1.3 23 1.3 33.3L407.6 394c-.8-1.1-1.3-2.4-1.3-3.8-.2-5.1-.5-10.4-.9-15.8-3-39.4-32-90-52.8-130.7-.5-.9-1.1-1.7-1.9-2.3l-32.6-24.6c-1.1-.8-1.9-2-2.4-3.3L298 158.9c-.6-1.9-.4-4 .7-5.7z"/><path d="M253.2 172c-1-.7-2.4-.4-3.1.6-.7 1-.4 2.4.6 3.1l1.3.9-28.3 19.4c8.5-17.9 14.9-31.8 17.8-38 1-2.2.8-4.7-.6-6.7l-2-2.9 4.1-19.6h13V59h-9.6v-6.8h3.4l-1.2-6.3L239.7 0c-9 6.8-14.7 17.5-14.7 29.6l.5 6.1 1.4 17.3 2.3 27.2-4.3 47.8-13.2-19c-2-2.9-5.9-3.8-8.9-2l-13.5 7.7-21.6 12.4c-2.7 1.5-3.9 4.6-3.2 7.6 2.8 10.7 8.6 36.8 4.2 59.3-6.7 38.5-68.7 121.9-73.2 180.5-.1 1.7-.2 3.3-.4 5 0 .6-.1 1.2-.1 1.8-.1 1-.1 2-.2 3 0 .7-.1 1.5-.1 2.2 0 .8-.1 1.6-.1 2.4s-.1 1.7-.1 2.5c0 .5 0 1-.1 1.5-.6 17.4-.2 33 .8 46.7 1.3 19.1 3.6 34.6 5.2 46.4 0 .2.1.5.1.7.1.5.1 1.1.2 1.6.1.4.1.8.2 1.2.1.4.1.8.2 1.2.1.5.1 1 .2 1.5 0 .3.1.6.1.9.1.8.2 1.5.2 2.2v.1c.4 3.9 2.5 7.5 5.8 9.7l6.5 4.5c.2.2.5.3.8.5.5.3 1 .6 1.6.8s1.1.4 1.7.6c.8.2 1.7.4 2.6.5h.9c.6 0 1.2 0 1.8-.1 1.5-.2 2.9-.6 4.3-1.2l15.1-7.3c1.2-.6 2.2-1.3 3.2-2.1 1.3-1.2 2.5-2.7 3.2-4.3.4-.9.8-1.9 1-2.9l2.5-11.7c.1-.5.2-1 .2-1.4v-1.4c0-.4 0-.9-.1-1.3-.1-.7-.2-1.4-.4-2-3.4-12.9-15.6-67.2-4.8-114.2 5.9-25.6 30.6-71.7 51.8-115 2.2-4.4 4.3-8.9 6.5-13.2l25.8-26.6c1.4-1.5 1.2-3.9-.4-5.1l-3.9-2.8 28.9-19.8v-5.5l-3-2.1z" opacity=".15" fill="#444"/></svg>