<svg version="1.1" xmlns="http://www.w3.org/2000/svg" x="0" y="0" viewBox="0 0 512 512" xml:space="preserve"><style type="text/css">.st1{fill:#a18267}.st2{fill:#36434f}.st3{fill:#e0ac7e}</style><path d="M313 459h-6v-6c0-1.1.9-2 2-2h2c1.1 0 2 .9 2 2v6z" fill="#ddd"/><path class="st1" d="M248 219h-13.3c-4.7 0-8.8-3.4-9.8-8-2.3-11.1-8.2-31-22-39.3-8.6-5.2-22.8-7.8-35.4-10-17.1-3.1-31.9-5.8-32.6-14.5l4-.3c.4 5.7 15.1 8.3 29.3 10.9 12.9 2.3 27.5 5 36.7 10.5 15.1 9.1 21.4 30.1 23.8 41.9.6 2.8 3 4.8 5.9 4.8H248v4zm39-8c2.3-11.1 8.2-31 22-39.3 8.6-5.2 22.8-7.8 35.4-10 17.1-3.1 31.9-5.8 32.6-14.5l-4-.3c-.4 5.7-15.1 8.3-29.3 10.9-12.9 2.3-27.5 5-36.7 10.5-15.1 9.1-21.4 30.1-23.8 41.9-.6 2.8-3 4.8-5.9 4.8H264v4h13.3c4.7 0 8.8-3.4 9.7-8z"/><path class="st2" d="M317 467h-14v-6c0-1.7 1.3-3 3-3h8c1.7 0 3 1.3 3 6v3z"/><path class="st3" d="M256 212h-19s6 8 9 16 4 15 4 15h12s1-7 4-15 9-16 9-16h-19zm-19-61h38v61h-38z"/><path class="st2" d="M382 154H130c-4.4 0-8-3.6-8-8v-19h268v19c0 4.4-3.6 8-8 8z"/><path d="M402.7 105c-27.5-43.9-68.1-78.7-116.4-98.9C267-2 245-2 225.6 6.1c-48.3 20.2-88.9 55-116.4 98.9-8.3 13.3 1.3 30.6 17 30.6h259.5c15.7 0 25.3-17.3 17-30.6z" fill="#4caf50"/><path class="st1" d="M174 485h164v27H174z"/><path class="st3" d="M338 485v-.3c0-15.8-36.7-28.7-82-28.7s-82 12.8-82 28.7v.3h164z"/><path class="st1" d="M276.5 446H275c-6.6 0-12-5.4-12-12v-22h-14v22c0 6.6-5.4 12-12 12h-1.5c-3.3 0-6 2.7-6 6v6h53v-6c0-3.3-2.7-6-6-6z"/><path class="st3" d="M231 275h50v106h-50zm32-16h-14c-4.4 0-8-3.6-8-8s3.6-8 8-8h14c4.4 0 8 3.6 8 8s-3.6 8-8 8z"/><path class="st3" d="M280.9 276c0-.3.1-.7.1-1 0-8.8-7.4-16-16.5-16h-17c-9.1 0-16.5 7.2-16.5 16 0 .3 0 .7.1 1h49.8zM263 397h-14c-4.4 0-8 3.6-8 8s3.6 8 8 8h14c4.4 0 8-3.6 8-8s-3.6-8-8-8zm17.9-17c0 .3.1.7.1 1 0 8.8-7.4 16-16.5 16h-17c-9.1 0-16.5-7.2-16.5-16 0-.3 0-.7.1-1h49.8z"/><path d="M225.6 6.1c-48.3 20.2-88.9 55-116.4 98.9-7.5 12-.4 27.3 12.7 30.1V146c0 4.4 3.6 8 8 8h9.8c5.8 3.7 16.3 5.6 27.8 7.7 12.5 2.3 26.8 4.9 35.4 10 13.8 8.3 19.7 28.2 22 39.3 1 4.6 5.1 8 9.8 8h6.8c1.6 2.7 3.2 5.8 4.4 9 3 8 4 15 4 15h-1c-4.4 0-8 3.6-8 8s3.6 8 8 8h-1.5c-9.1 0-16.5 7.2-16.5 16v106c0 8.8 7.4 16 16.5 16h1.5c-4.4 0-8 3.6-8 8s3.6 8 8 8v21c0 6.6-5.4 12-12 12h-1.5c-3.3 0-6 2.7-6 6v5.5c-32.3 3.9-55.5 14.5-55.5 27.1v27.3h82V0c-10.2 0-20.6 2-30.3 6.1zm9.2 208.9c-2.8 0-5.3-2-5.9-4.8-2.4-11.8-8.7-32.8-23.8-41.9-9.3-5.6-23.8-8.2-36.7-10.5-6.3-1.1-12.7-2.3-17.9-3.7H237v58s.9 1.1 2.1 3h-4.3z" opacity=".15" fill="#444"/><path d="M369.6 105c-21.3-43.9-52.7-78.7-90.1-98.9C272 2 264 0 256 0c6.2 0 12.4 2 18.2 6.1 29 20.2 53.4 55 69.9 98.9 5 13.3-.8 30.6-10.2 30.6h22.5c12.2 0 19.7-17.3 13.2-30.6z" opacity=".5" fill="#fff"/></svg>