<svg version="1.1" xmlns="http://www.w3.org/2000/svg" x="0" y="0" viewBox="0 0 512 512" xml:space="preserve"><style type="text/css">.st0{fill:#ddd}.st1{fill:#bbb}.st2{opacity:.15;fill:#444}</style><path class="st0" d="M310.1 78.5c14.1 39.6 55.2 155.3 55.2 155.3.7 2 1.9 3.9 3.5 5.4l4.7 4.5-6.6 7.3c-1.3 1.4-1.7 3.5-1.1 5.3l12.4 35 30.1-14.5 10.5-20.2-9.2-25.7S364.8 81.4 349.8 49.6 303.6 0 303.6 0s-7.6 38.9 6.5 78.5z"/><path class="st1" d="M344.8 66.2c4 11.2 10 21.2 17.5 29.5-1.3-6.2-3-12.4-5.2-18.6-4.3-12.2-10.1-23.4-17.1-33.5.5 7.6 2.1 15.1 4.8 22.6z"/><path class="st2" d="M419 256.5l-9.2-25.7s-2.7-9.1-7.1-23.2c-4.2 5.5-7.5 12.6-9.9 21.7-4.9 18.6-3.7 37.2 2.4 53.8l13.2-6.4 10.6-20.2z"/><path class="st0" d="M480.8 156.2c-1.2.9-3.3 2.4-7 4.4-7.8 4.2-24.1-.4-34.9 22.9l19.3 8.9c2.7 1.2 3.8 4.4 2.6 7l-14.8 32c-.1.1-.1.3-.2.4-3.2 7.1-11.7 10-18.7 6.4-6.2-3.2-9.1-10.8-6.4-17.3.7-1.8 1.8-3.3 3.1-4.6 1.2-1.2 2.6-2.1 4.2-2.8 2.9-1.3 3.2-5.4.4-6.8 0 0-.1 0-.1-.1-.9-.4-2-.3-2.9.2-1.4.8-2.8 1.7-4.2 2.7-5.8 4.4-11 11.1-15.4 20.7-10 21.8-10.6 45.4-3.6 66.5l29.8 13.7L481.5 203c8.5-18.4 10.6-34.9 11.1-41 .1-1.5-.7-2.9-2-3.5l-6-2.8c-1.3-.5-2.7-.3-3.8.5z"/><path class="st1" d="M468.2 204.2c-4.6 10-7 20.4-7.4 30.8 5-7.9 9.5-16.3 13.6-25 4.6-10 8.4-20.1 11.4-30.4-7.2 6.9-13.2 15.1-17.6 24.6z"/><path class="st0" d="M387.1 436.7c.5.5.9 1 1.3 1.6 5.4 7.1 5.1 17.3-.7 24.1-3.6 4.2-8.8 6.7-14.2 6.8-5.5.1-10.8-2.1-14.5-6.1-1.7-1.8-1.6-4.6.2-6.3 1.8-1.7 4.6-1.6 6.3.2 2 2.1 4.8 3.3 7.8 3.3 3-.1 5.7-1.4 7.6-3.7 3.1-3.6 3.3-9 .4-12.8-1.3-1.7-3-3-5-3.6-9.4-3-18.3-8.9-25.9-17l-79.9-85.1c-1.7-1.8-1.6-4.6.2-6.3 1.8-1.7 4.6-1.6 6.3.2l79.9 85.1c6.5 7 14.2 12 22.1 14.6 3.1.9 5.9 2.7 8.1 5z"/><path class="st0" d="M388.4 439.8c.4.4 2.6 2.9 4.6 7.2 2.2 4.7 2.5 13.2 2.5 14.2 0 2-1.5 3.6-3.5 3.7-2 0-3.6-1.5-3.7-3.5-.1-3-.6-8.8-1.8-11.3-1.6-3.5-3.3-5.3-3.3-5.3-1.3-1.4-1.3-3.7.1-5.1 1.4-1.4 3.6-1.4 5.1.1-.1 0-.1 0 0 0z"/><path class="st1" d="M293.3 55.1L219 126.5c-2.8 2.7-6.2 4.8-9.8 6.1l-1.1.4c-4.1 1.5-7.8 3.9-10.8 7.1l-58.2 61.6c-7.5 8-27 22.4-36.8 29.4-3.2 2.3-3.9 6.7-1.6 9.8l.1.2c2.3 3.1 6.7 3.8 9.8 1.5 9-6.6 26-19.2 30.8-24.2 6.6-7 13.9-14.7 29-28.2s30-13.9 42.5-11.8c0 0 55.2-69.9 69-84.6 13.9-14.6 11.4-38.7 11.4-38.7z"/><path class="st0" d="M223.1 21.8l1.7 103.1c.1 3.9.9 7.8 2.6 11.3l.5 1.1c1.8 4 2.7 8.3 2.6 12.7l-2.7 84.6c-.3 11 3.2 35 5.1 46.8.6 3.8-2 7.4-5.9 8h-.2c-3.8.6-7.4-2-8-5.9-1.7-11-4.7-31.9-4.5-38.9.3-9.7.6-20.2-.5-40.4s-11.3-31.1-21.6-38.5c0 0 10.7-88.4 11.3-108.6.6-20.1 19.6-35.3 19.6-35.3z"/><circle class="st1" cx="212.5" cy="149.3" r="6.6"/><path class="st0" d="M140.3 154.9c4.3-18.2-1.5-51.8-1.5-51.8s-30.1 22.2-35 43.1-33.7 141.7-33.7 141.7l36.5 8.7s29.4-123.4 33.7-141.7z"/><path class="st2" d="M113.8 250.7c2.7-3 4.5-5.4 4.6-6.5.4-4.4-1-1.5-.4-8.2.6-6.7 2.8-6.2 3.1-9.5.3-3.3 1.2-13.3 1.4-15.5.2-2-4.1-6.3-8.2-7.3-.7-.2-1.3.3-1.4 1l-.7 7.7s-12.5 0-22.7-6.3c-6.1 25.8-12.7 53.2-16.4 68.9l14.5 1.3s9.4-8.5 17.8-16.8c.9 2.3 3 4.1 5.7 4.3 1.2.1 2.4-.1 3.5-.6.8-3.2 1.6-6.6 2.4-10.1-.8-1.2-1.9-2-3.2-2.4z"/><path class="st0" d="M109.5 260.4c1 1.7 3 2.7 5 2.5 2.9-.3 4.9-2.9 4.6-5.8-.3-2.5-2.2-4.3-4.6-4.6 1.6-2.7 2.6-4.9 2.6-5.7-.4-3.5-8.9-.8-9.4-6-.6-5.2 9-5.4 8.8-8-.3-2.6-1.2-10.4-1.3-12.1-.2-1.6-4.1-4.2-7.4-4.4-.5 0-.9.4-.9 1l.7 6s-29.2 5.9-32.1-20.1c-2.9-26 6.9-32.3 5.5-45.3-1-9-3.8-19-5.4-24.4-.7-2.3-2.8-3.8-5.2-3.7l-17 .6c-1.6.1-2.9 1.2-3.3 2.7-1.3 5.5-4 18.9-2.7 30.2L59.8 275c.3 2.9 2.9 4.9 5.8 4.6l32.9-3.7c0 .2 5.9-7.8 11-15.5z"/><path class="st1" d="M54.3 186.7c1.1 10 2.7 19.8 4.7 29.4 2.4-10.5 3.2-21.5 1.9-32.8-1.2-10.8-4.2-21.1-8.5-30.4.1 11.2.7 22.5 1.9 33.8z"/><path class="st0" d="M281.8 469.8c-.6-1-1.4-1.8-2.3-2.5l-15.6-11.5 15.6-11.5c.9-.7 1.7-1.5 2.3-2.5 2.2-3.8 1-8.2-2.1-10.6L264.5 420l12.6-7.4c2.5-1.5 3.9-4 3.9-6.9 0-2.9-1.7-5.6-4.3-7.1l-11.8-6.8v-5c0-2 .7-3.8 2-5.3l1-1.2c1.5-1.7 3.7-2.7 6-2.7h5v-32h-24v49c0 1.8 1 3.4 2.5 4.3l11.6 6.7-12.1 7.1c-1.9 1.1-3.3 2.8-3.9 4.9-.9 3.3.4 6.6 3 8.5l15.4 11.4-15.4 11.8c-.9.7-1.7 1.5-2.3 2.5-2.2 3.8-1 8.2 2.1 10.6l15.8 11.7-11.7 8.7c-1.8 1.3-3 3.2-3.3 5.4-.5 3.3 1.1 6.5 3.9 8.1l12 6.1c.6.3.7 1.2.2 1.6l-5.7 5c-1.1 1.6.5 3.6 2.3 3l8.6-2.8c2.1-.7 4-2.3 4.7-4.5.1-.2.1-.4.2-.6.8-3.5-.8-7.1-3.8-8.8l-10.7-6.2 11.6-8.6c2.9-2.4 4.1-6.9 1.9-10.7z"/><path class="st2" d="M255 377.8v16.1c7.7-16.9 15.8-34.7 21.9-48.1H255v32z"/><path class="st0" d="M232.6 373.3c-27.6 47.1-51.5 98.4-51.5 98.4s32.5-18.3 50.2-48.4c17.7-30.1 55.2-94.1 55.2-94.1l-19.3-11.3s-7 8.3-34.6 55.4zm-1.9 40.4l-1.4 2.3c-1.3 2.1-4 2.8-6.1 1.6s-2.8-4-1.6-6.1l1.4-2.3c1.3-2.1 4-2.8 6.1-1.6 2.1 1.2 2.8 3.9 1.6 6.1z"/><path class="st1" d="M229.2 387.9c2.1-5.2 3.2-10.6 3.7-15.1-.1.2-.2.3-.3.5-27.6 47.1-51.5 98.4-51.5 98.4s43.3-72.1 48.1-83.8z"/><path class="st0" d="M93 337H70c-5 .2-9 4.4-9 9.5 0 5.2 4.3 9.5 9.5 9.5 4.1 0 7.6-2.6 8.9-6.3L93 337zm-22.5 15c-3 0-5.5-2.5-5.5-5.5s2.5-5.5 5.5-5.5 5.5 2.5 5.5 5.5-2.5 5.5-5.5 5.5z"/><path class="st1" d="M69 350H27c-1.7 0-3-1.3-3-3v-1c0-1.7 1.3-3 3-3h42c1.7 0 3 1.3 3 3v1c0 1.7-1.3 3-3 3zm31.8-81.4l-1.6-1.2c6.9-9.5 27.9-26.5 40.5-36.6 2.2-1.7 4.1-3.3 5.7-4.6 10.7-8.8 17.7-23.5 17.7-23.6.1-.4 4-11 5-13s2.4-3.5 3.9-4.3c1.5-.7 3.1-.8 4.4-.1 2.3 1.1 2.8 4.2 1.5 8.2-.1.3-.3.8-.5 1.3-1.8 4.7-6.8 17.2-1.5 33 5.8 17.5 29.5 37.3 29.7 37.5l-1.3 1.5c-1-.8-24.3-20.4-30.3-38.5-5.5-16.5-.4-29.5 1.5-34.4.2-.5.4-.9.5-1.2.7-2.2 1-5-.5-5.8-.8-.4-1.7-.3-2.6.1-.8.4-2 1.3-3.1 3.4-1 1.9-4.9 12.8-5 12.9-.3.7-7.3 15.4-18.3 24.4-1.6 1.3-3.5 2.9-5.7 4.6-12.3 10.2-33.2 27.1-40 36.4z"/><path d="M400 347.5H107c-23.2 0-42-18.8-42-42s18.8-42 42-42h293c23.2 0 42 18.8 42 42s-18.8 42-42 42z" fill="#cc584c"/><path fill="#f4f4f4" d="M367 299.5h-15v-15h-12v15h-15v12h15v15h12v-15h15z"/><path class="st0" d="M69.3 326H87v-14H64.5c.8 5 2.5 9.7 4.8 14z"/><path class="st2" d="M84 312h3v14h-3z"/></svg>