<svg version="1.1" xmlns="http://www.w3.org/2000/svg" x="0" y="0" viewBox="0 0 512 512" xml:space="preserve"><style type="text/css">.st0{fill:#999}.st1{opacity:.15;fill:#444;enable-background:new}</style><path class="st0" d="M283 36h-54c-2.2 0-4-1.8-4-4V8c0-4.4 3.6-8 8-8h46c4.4 0 8 3.6 8 8v24c0 2.2-1.8 4-4 4z"/><path class="st1" d="M225 24h62v5h-62z"/><path d="M333 206.5c0-3.2-1.1-6.2-3-8.5v-3c1.9-2.3 3-5.3 3-8.5 0-2.2-.5-4.2-1.5-6.1L286.1 62.6C284.7 58.9 284 55 284 51v-8c0-1.1.9-2 2-2s2-.9 2-2v-1c0-1.1-.9-2-2-2h-60c-1.1 0-2 .9-2 2v1c0 1.1.9 2 2 2s2 .9 2 2v8c0 3.9-.7 7.8-2.1 11.5l-45.4 117.9c-.9 1.8-1.5 3.9-1.5 6.1 0 3.2 1.1 6.2 3 8.5v3c-1.9 2.3-3 5.3-3 8.5s1.1 6.2 3 8.5v3c-1.9 2.3-3 5.3-3 8.5s1.1 6.2 3 8.5v217c0 8.7 1.7 17.2 5.2 25.2 6.2 14.3 17.5 34.9 31.8 34.9 22 0 26-18 37-18s15 18 37 18c14.3 0 25.7-20.5 31.8-34.9 3.4-8 5.2-16.5 5.2-25.2V235c1.9-2.3 3-5.3 3-8.5s-1.1-6.2-3-8.5v-3c1.9-2.3 3-5.3 3-8.5z" fill="#f4f4f4"/><path class="st0" d="M280.8 40c-.5.9-.8 1.9-.8 3v8c0 4.5.8 8.9 2.4 13l45.4 117.8.1.2.1.2c.7 1.3 1 2.7 1 4.2 0 2.2-.7 4.3-2.1 6l-.9 1.1v5.8l.9 1.1c1.3 1.6 2.1 3.7 2.1 6 0 2.2-.7 4.3-2.1 6l-.9 1.1v5.8l.9 1.1c1.3 1.6 2.1 3.7 2.1 6 0 2.2-.7 4.3-2.1 6l-.9 1.1v218.4c0 8.1-1.6 16-4.9 23.6-8.7 20.6-19 32.5-28.1 32.5-11.3 0-17-5.2-22.4-10.2-4.1-3.8-8.4-7.8-14.6-7.8s-10.4 3.9-14.6 7.8c-5.5 5-11.1 10.2-22.4 10.2-9.1 0-19-11.5-28.1-32.5-3.2-7.4-4.9-15.3-4.9-23.6V233.6l-.9-1.1c-1.3-1.6-2.1-3.7-2.1-6 0-2.2.7-4.3 2.1-6l.9-1.1v-5.8l-.9-1.1c-1.3-1.6-2.1-3.7-2.1-6 0-2.2.7-4.3 2.1-6l.9-1.1v-5.8l-.9-1.1c-1.3-1.6-2.1-3.7-2.1-6 0-1.4.4-2.9 1.1-4.3l.1-.2.1-.2 45.4-117.9c1.6-4.1 2.4-8.5 2.4-12.9v-8c0-1.1-.3-2.1-.8-3h49.5m5.2-4h-60c-1.1 0-2 .9-2 2v1c0 1.1.9 2 2 2s2 .9 2 2v8c0 3.9-.7 7.8-2.1 11.5l-45.4 117.9c-.9 1.8-1.5 3.9-1.5 6.1 0 3.2 1.1 6.2 3 8.5v3c-1.9 2.3-3 5.3-3 8.5s1.1 6.2 3 8.5v3c-1.9 2.3-3 5.3-3 8.5s1.1 6.2 3 8.5v217c0 8.7 1.7 17.2 5.2 25.2 6.2 14.3 17.5 34.9 31.8 34.9 22 0 26-18 37-18s15 18 37 18c14.3 0 25.7-20.5 31.8-34.9 3.4-8 5.2-16.5 5.2-25.2V235c1.9-2.3 3-5.3 3-8.5s-1.1-6.2-3-8.5v-3c1.9-2.3 3-5.3 3-8.5s-1.1-6.2-3-8.5v-3c1.9-2.3 3-5.3 3-8.5 0-2.2-.5-4.2-1.5-6.1L286.1 62.6C284.7 58.9 284 55 284 51v-8c0-1.1.9-2 2-2s2-.9 2-2v-1c0-1.1-.9-2-2-2z"/><path class="st1" d="M233 0c-4.4 0-8 3.6-8 8v24c0 2.2 1.8 4 4 4h-3c-1.1 0-2 .9-2 2v1c0 1.1.9 2 2 2s2 .9 2 2v8c0 3.9-.7 7.8-2.1 11.5l-45.4 117.9c-.9 1.8-1.5 3.9-1.5 6.1 0 3.2 1.1 6.2 3 8.5v3c-1.9 2.3-3 5.3-3 8.5s1.1 6.2 3 8.5v3c-1.9 2.3-3 5.3-3 8.5s1.1 6.2 3 8.5v217c0 8.7 1.7 17.2 5.2 25.2 6.2 14.3 17.5 34.9 31.8 34.9 22 0 26-18 37-18V0h-23z"/></svg>