<svg version="1.1" xmlns="http://www.w3.org/2000/svg" x="0" y="0" viewBox="0 0 512 512" xml:space="preserve"><style type="text/css">.st1{fill:#36434f}.st3{fill:#999}.st6{opacity:.5;fill:#444}</style><path d="M353.9 435.4c-1.4-36.9-31.9-62-31.9-76.4 0-14.7 11-33.9 11-60 0-1.4-.1-2.7-.3-4.1C329.2 272 296.2 254 256 254s-73.2 18-76.7 40.9c-.2 1.3-.3 2.7-.3 4.1 0 26.1 11 45.3 11 60 0 14.3-30.5 39.5-31.9 76.4 0 .9-.1 1.8-.1 2.6 0 40.9 43.9 74 98 74s98-33.1 98-74c0-.9 0-1.8-.1-2.6z" fill="#e0ac7e"/><path class="st1" d="M303.5 442h-95c-1.1 0-2-.9-2-2v-13c0-1.1.9-2 2-2h95c1.1 0 2 .9 2 2v13c0 1.1-.9 2-2 2z"/><circle cx="256" cy="334.5" r="33.5" fill="#c99c75"/><path class="st3" d="M269.9 80H242c.6 2.5.9 5.1.8 7.7L238 334h36l-4.9-246.3c0-2.6.3-5.2.8-7.7z"/><circle class="st1" cx="256" cy="334.5" r="22.5"/><path fill="#ddd" d="M234.5 429h43v2h-43z"/><path class="st3" d="M236 40h40v5h-40z"/><path class="st3" d="M236 47h-1c-1.1 0-2-.9-2-2v-5c0-1.1.9-2 2-2h1c1.1 0 2 .9 2 2v5c0 1.1-.9 2-2 2zm41 0h-1c-1.1 0-2-.9-2-2v-5c0-1.1.9-2 2-2h1c1.1 0 2 .9 2 2v5c0 1.1-.9 2-2 2zm-41-20h40v5h-40z"/><path class="st3" d="M236 34h-1c-1.1 0-2-.9-2-2v-5c0-1.1.9-2 2-2h1c1.1 0 2 .9 2 2v5c0 1.1-.9 2-2 2zm41 0h-1c-1.1 0-2-.9-2-2v-5c0-1.1.9-2 2-2h1c1.1 0 2 .9 2 2v5c0 1.1-.9 2-2 2zm-41 19h40v5h-40z"/><path class="st3" d="M236 60h-1c-1.1 0-2-.9-2-2v-5c0-1.1.9-2 2-2h1c1.1 0 2 .9 2 2v5c0 1.1-.9 2-2 2zm41 0h-1c-1.1 0-2-.9-2-2v-5c0-1.1.9-2 2-2h1c1.1 0 2 .9 2 2v5c0 1.1-.9 2-2 2z"/><path class="st1" d="M270.6 7.6L261 .7c-.7-.5-1.5-.7-2.3-.7h-5.4c-.8 0-1.6.3-2.3.7l-9.6 6.9c-2.1 1.5-3.4 3.9-3.4 6.5v51.7c0 2.1.4 4.2 1.2 6.2l1.2 2.8c.8 2 1.5 4.1 1.9 6.2h27.4c.4-2.1 1-4.2 1.9-6.2l1.2-2.8c.8-1.9 1.2-4 1.2-6.2V14.1c0-2.6-1.2-5-3.4-6.5zM251 62c0 2.2-1.8 4-4 4s-4-1.8-4-4V23c0-2.2 1.8-4 4-4s4 1.8 4 4v39zm18 0c0 2.2-1.8 4-4 4s-4-1.8-4-4V23c0-2.2 1.8-4 4-4s4 1.8 4 4v39z"/><path d="M273.4 305h-34.8l-.1 2h35zM239 281v2h34v-2zm.4-17l-.1 2h33.4l-.1-2zm-.7 33v2h34.6v-2zm1.5-74h31.6v-2h-31.6zm31.8 9h-32v2h32zm-32.8 42h33.6v-2h-33.6zm33.1-28l-.1-2h-32.4l-.1 2zm-33.5 46h34.4l-.1-2h-34.2zm.8-38l-.1 2h33l-.1-2zm31.2-84l-.1-2h-29.4l-.1 2zm.2 14v-2h-30v2zm.3 13v-2h-30.6v2zm-.8-42l-.1-2h-28.8l-.1 2zm-30 54l-.1 2h31.2l-.1-2zm29-105l-.1-2h-26.8l-.1 2zm.3 18v-2h-27.6v2zm.3 17v-2h-28.2v2z" fill="#f4f4f4"/><path class="st6" d="M241.5 442h-1L244 80V53h1v27zm6 0h-1l2.3-362-2.8-40h1l2.8 40z"/><path class="st6" d="M253.5 442h-1l.8-362-5.3-53h1l5.2 53zm17 0L267 80V53h1v27l3.5 362zm-6 0l-2.3-362 2.8-40h1l-2.8 40 2.3 362z"/><path class="st6" d="M258.5 442l-.7-362 5.2-53h1l-5.3 53 .8 362z"/></svg>