<svg xmlns="http://www.w3.org/2000/svg" viewBox="0 0 512 512" xml:space="preserve"><style>.st0{fill:#36434f}</style><path class="st0" d="M340 350H172l-7.2-8.4c-46.6-54.8-77.1-121.2-88.1-192-1.3-8.1-2.3-21.7-3.1-40.4-1.6-37.9 21.2-72.4 56.6-86C170.4 7.8 212.7 0 256 0s85.6 7.8 125.8 23.2c35.5 13.6 58.2 48.1 56.6 86-.8 18.7-1.8 32.3-3.1 40.4-11 70.8-41.5 137.2-88.1 192L340 350zm-145.6-48h123.2c37-46.4 61.2-101.4 70.3-159.8.9-6.1 1.9-18.8 2.6-35 .7-17.2-9.7-33-25.8-39.1C330 54.7 293.4 48 256 48s-74 6.7-108.6 20c-16.2 6.2-26.6 21.9-25.8 39.1.7 16.2 1.6 29 2.6 35 9 58.5 33.3 113.5 70.2 159.9z"/><path d="M99.5 254.2c-3.1 4.7-3.5 10.8-.9 15.9 14.6 29.2 32.7 56.7 54.1 81.9l12 14.1h182.8l12-14.1c21.4-25.1 39.4-52.5 54-81.7 2.5-5.1 2.2-11.2-.9-15.9-6.8-10.3-14.6-19.9-23.4-28.8-4.7-4.7-9.6-9.2-14.7-13.4-8.2-6.7-20.6-3.8-24.8 5.9-10.4 24-23.7 46.8-39.7 67.9H202.2c-16-21.1-29.3-43.9-39.7-68.1-4.2-9.7-16.6-12.6-24.8-5.9-5 4-9.7 8.3-14.3 12.9-9 9-17 18.8-23.9 29.3z" fill="#122a3a"/><path class="st0" d="M348.6 501.9c47.2-30.3 78.5-83.1 78.9-143.3.6-94.7-76.5-172.4-171.2-172.6-94.9-.2-171.8 76.7-171.8 171.5 0 60.9 31.7 114.3 79.5 144.7 10.1 6.5 22 9.8 34 9.8h116c12.3 0 24.3-3.5 34.6-10.1z"/><circle cx="256" cy="357.5" r="71.5" fill="#4b5d6b"/><path class="st0" d="M237.5 389.4h-12.7v-49l-15.2 4.7v-10.3l26.5-9.5h1.4v64.1zm55.2-64.7v10.5h-1.2c-5.7.1-10.4 1.6-13.9 4.5s-5.6 6.9-6.3 12.1c3.4-3.5 7.7-5.2 12.9-5.2 5.6 0 10 2 13.3 6s4.9 9.2 4.9 15.7c0 4.2-.9 7.9-2.7 11.3-1.8 3.4-4.4 6-7.6 7.9-3.3 1.9-7 2.8-11.2 2.8-6.7 0-12.2-2.3-16.3-7-4.1-4.7-6.2-10.9-6.2-18.8v-4.6c0-6.9 1.3-13.1 3.9-18.4 2.6-5.3 6.4-9.4 11.3-12.3s10.6-4.4 17.1-4.4h2zm-12.4 32.1c-2.1 0-3.9.5-5.6 1.6-1.7 1.1-2.9 2.5-3.7 4.2v3.9c0 4.2.8 7.6 2.5 9.9s4 3.6 7 3.6c2.7 0 4.9-1.1 6.6-3.2 1.7-2.1 2.5-4.9 2.5-8.4s-.8-6.3-2.5-8.4-3.9-3.2-6.8-3.2z"/></svg>