<svg version="1.1" xmlns="http://www.w3.org/2000/svg" x="0" y="0" viewBox="0 0 512 512" xml:space="preserve"><style type="text/css">.st1{fill:#999}.st4{fill:#bbb}</style><path d="M496 402H16c-8.8 0-16-7.2-16-16V126c0-8.8 7.2-16 16-16h480c8.8 0 16 7.2 16 16v260c0 8.8-7.2 16-16 16z" fill="#ddd"/><path class="st1" d="M418 110h2v292h-2z"/><path d="M411 140h-2v232h2c4.4 0 8-3.6 8-8V148c0-4.4-3.6-8-8-8zm-396 0c-4.4 0-8 3.6-8 8v216c0 4.4 3.6 8 8 8h361V140H15z" fill="#36434f"/><path d="M329 320H97c-4.4 0-8-3.6-8-8V200c0-4.4 3.6-8 8-8h232c4.4 0 8 3.6 8 8v112c0 4.4-3.6 8-8 8z" fill="#d7be72"/><path class="st4" d="M376 140h33v232h-33z"/><circle class="st4" cx="464.5" cy="209.5" r="24.5"/><ellipse class="st1" cx="464.5" cy="209.5" rx="24.5" ry="7.5"/><circle class="st1" cx="464.5" cy="180" r="1"/><circle class="st1" cx="443.6" cy="188.6" r="1"/><circle class="st1" cx="435" cy="209.5" r="1"/><circle class="st1" cx="485.4" cy="188.6" r="1"/><circle class="st1" cx="494" cy="209.5" r="1"/><circle class="st4" cx="464.5" cy="301.5" r="24.5"/><ellipse transform="rotate(-45.001 464.499 301.507)" class="st1" cx="464.5" cy="301.5" rx="24.5" ry="7.5"/><path class="st1" d="M464.5 270h-.5v2h.5c16.3 0 29.5 13.2 29.5 29.5S480.8 331 464.5 331 435 317.8 435 301.5c0-5.7 1.6-11.1 4.5-15.6l-1.7-1c-3 4.8-4.8 10.5-4.8 16.6 0 17.4 14.1 31.5 31.5 31.5s31.5-14.1 31.5-31.5-14.1-31.5-31.5-31.5z"/><path d="M93 264v4h-4v-4h4zm40 12v4h4v-4h-4zm16-40v-4h-4v4h4zm-48-44h-4v4h4v-4zm116 56v-4h-4v4h4zm-20 28v4h4v-4h-4zm-56 0v4h4v-4h-4zm40-84h-4v4h4v-4zm-48 80h-4v4h4v-4zm148-20h4v-4h-4v4zm-68 24v4h4v-4h-4zm-24-84h-4v4h4v-4zM89 296v4h4v-4h-4zm44-64h-4v4h4v-4zm-44 48v4h4v-4h-4zm108-88h-4v4h4v-4zm76 72v4h4v-4h-4zm-24 0v4h4v-4h-4zm-16-16v-4h-4v4h4zm-116-56h-4v4h4v-4zm88 84v4h4v-4h-4zm-96-84h-4v4h4v-4zm-20 96v4h4v-4h-4zm116-96h-4v4h4v-4zM89 272v4h4v-4h-4zm52-36v-4h-4v4h4zm-52 4v4h4v-4h-4zm0-32v4h4v-4h-4zm112 40v-4h-4v4h4zM89 224v4h4v-4h-4zm44 24h-4v4h4v-4zm148 20h4v-4h-4v4zm-116 8v4h4v-4h-4zm-8-84h-4v4h4v-4zm108 72v4h4v-4h-4zm-116-72h-4v4h4v-4zm-16 64h-4v4h4v-4zm40 20v4h4v-4h-4zm-84-60v4h4v-4h-4zm68 60v4h4v-4h-4zm52-28v-4h-4v4h4zm-68-56h-4v4h4v-4zm-52 40v4h4v-4h-4zm84-40h-4v4h4v-4zm-48 0h-4v4h4v-4zm-36 56v4h4v-4h-4zm0 8v4h4v-4h-4zm100 20v4h4v-4h-4zm-8 0v4h4v-4h-4zm-90.9-80H93v-2.9c-1.2.7-2.2 1.7-2.9 2.9zM257 264v4h4v-4h-4zm-92-72h-4v4h4v-4zm-16 84v4h4v-4h-4zm-60-76v4h4v-4h-4zm44 40h-4v4h4v-4zm0 24h-4v4h4v-4zm148-4h4v-4h-4v4zm-148-68h-4v4h4v-4zm92 56v-4h-4v4h4zm-80-4h-4v4h4v-4zm180 76h4v-4h-4v4zm-76-88v-4h-4v4h4zm8 0v-4h-4v4h4zm-80 32v4h4v-4h-4zm140 56h4v-4h-4v4zm-84-88v-4h-4v4h4zm76 88h4v-4h-4v4zm-116-72v-4h-4v4h4zm144 56v-4h-4v4h4zm0 8v-4h-4v4h4zm-76 8h4v-4h-4v4zm8 0h4v-4h-4v4zm8 0h4v-4h-4v4zm4-88v-4h-4v4h4zm56 64v-4h-4v4h4zm-144-32v4h4v-4h-4zm96-32v-4h-4v4h4zm-24 0v-4h-4v4h4zm-112 16v-4h-4v4h4zm148 72h4v-4h-4v4zm-116-56v4h4v-4h-4zm88-32v-4h-4v4h4zm20 88h4v-4h-4v4zm-8 0h4v-4h-4v4zm-44-88v-4h-4v4h4zm96 0v-4h-4v4h4zm-152 0v-4h-4v4h4zm152 8v-4h-4v4h4zm-184 24v4h4v-4h-4zm40-32v-4h-4v4h4zm-48 28h-4v4h4v-4zm192-12v-4h-4v4h4zm-4-40h4v-4h-4v4zm-164 24v-4h-4v4h4zm0 32v4h4v-4h-4zm8-32v-4h-4v4h4zm160-8v-4h-4v4h4zm0-8v-4h-4v4h4zm-192 36h-4v4h4v-4zm192 28v-4h-4v4h4zm-120-48v-4h-4v4h4zm120 56v-4h-4v4h4zm-112-56v-4h-4v4h4zm-24 0v-4h-4v4h4zm136 24v-4h-4v4h4zm-176 8v4h4v-4h-4zm48-32v-4h-4v4h4zm128 32v-4h-4v4h4zm0 8v-4h-4v4h4zm-164-20v-4h-4v4h4zm-40 68h4v-4h-4v4zm92-56v4h4v-4h-4zm28 12v4h4v-4h-4zm44-44v-4h-4v4h4zm-172 88h4v-4h-4v4zm-8 0h4v-4h-4v4zm68-72v-4h-4v4h4zm-28 72h4v-4h-4v4zm120-44v4h4v-4h-4zm-128 44h4v-4h-4v4zm120-44v4h4v-4h-4zm-128 44h4v-4h-4v4zm36-72v-4h-4v4h4zm52 28v4h4v-4h-4zm16 0v4h4v-4h-4zm-4-12v4h4v-4h-4zM89 304v4h4v-4h-4zm132-28v4h4v-4h-4zM89 312c0 1.5.4 2.8 1.1 4H93v-4h-4zm144-48v4h4v-4h-4zm-124 56h4v-4h-4v4zm-16-1.1c1.2.7 2.5 1.1 4 1.1v-4h-4v2.9zm8 1.1h4v-4h-4v4zm136-44v4h4v-4h-4zm24 0v4h4v-4h-4zm-40 44h4v-4h-4v4zm8 0h4v-4h-4v4zm-28-56v4h4v-4h-4zm92 0h4v-4h-4v4zm-80 56h4v-4h-4v4zm80-64h4v-4h-4v4zm0-8h4v-4h-4v4zm-48 72h4v-4h-4v4zm8 0h4v-4h-4v4zm-16 0h4v-4h-4v4zm56-80h4v-4h-4v4zm-132 8v-4h-4v4h4zm124 28v4h4v-4h-4zm-112 44h4v-4h-4v4zm120-40h4v-4h-4v4zm-112 40h4v-4h-4v4zm-16 0h4v-4h-4v4zm52-56v4h4v-4h-4zm76 8h4v-4h-4v4zm-84-8v4h4v-4h-4zm-12 56h4v-4h-4v4zm8 0h4v-4h-4v4zm-36-72v-4h-4v4h4zm20 72h4v-4h-4v4zm146.9-4H333v2.9c1.2-.7 2.2-1.7 2.9-2.9zM145 240v-4h-4v4h4zm12 28v4h4v-4h-4zm-4-28v-4h-4v4h4zm80 16v4h4v-4h-4zm8 0v4h4v-4h-4zm-52 4v4h4v-4h-4zm-52-24h-4v4h4v-4zm88 20v4h4v-4h-4zm-88-4h-4v4h4v-4zm0-8h-4v4h4v-4zm12 24v4h4v-4h-4zm48-8v4h4v-4h-4zm-28-20v-4h-4v4h4zm16 0v-4h-4v4h4zm80 16v4h4v-4h-4zm-88-16v-4h-4v4h4zm-4 20v4h4v-4h-4zm0 8v4h4v-4h-4zm76-12v4h4v-4h-4zm-68 12v4h4v-4h-4zm-16 0v4h4v-4h-4zm108-8h4v-4h-4v4zm-132 8v4h4v-4h-4zm116-12v4h4v-4h-4zm-76 4v4h4v-4h-4zm-20-20v-4h-4v4h4zm60 20v4h4v-4h-4zm-60 12v4h4v-4h-4zm8 0v4h4v-4h-4zm-16 0v4h4v-4h-4zm-12-24h-4v4h4v-4zm36 8v4h4v-4h-4zm8 0v4h4v-4h-4zm0 16v4h4v-4h-4zm-16-16v4h4v-4h-4zm8 16v4h4v-4h-4zm52-12v4h4v-4h-4zm-88-20h-4v4h4v-4zm60 16v4h4v-4h-4zm-60 8h-4v4h4v-4zm-4 4h-4v4h4v-4zm72-12v4h4v-4h-4zm-72 4h-4v4h4v-4zm68 0v4h4v-4h-4zm-68 12v4h4v-4h-4zm4-16h-4v4h4v-4zm4 16v4h4v-4h-4zm68-12v4h4v-4h-4zm4-4v4h4v-4h-4zm-24 0v4h4v-4h-4zm12-4v-4h-4v4h4zm-12-12v-4h-4v4h4zm44 28v4h4v-4h-4zm-8-16v-4h-4v4h4zm16 16v4h4v-4h-4zm-32-16v-4h-4v4h4zm-64-8v-4h-4v4h4zm8 8v-4h-4v4h4zm-8-4h-4v4h4v-4zm124-8v-4h-4v4h4zm-44 28v4h4v-4h-4zm52-28v-4h-4v4h4zm-60 12v-4h-4v4h4zm68-12v-4h-4v4h4zm-124 12v-4h-4v4h4zm16 0v-4h-4v4h4zm96 16v4h4v-4h-4zm-8 0v4h4v-4h-4zm-8 0v4h4v-4h-4zm-72-16v-4h-4v4h4zm8 0v-4h-4v4h4zm88 12h4v-4h-4v4zm0 8h4v-4h-4v4zm0-16h4v-4h-4v4zm-32 12v4h4v-4h-4zm32-20h4v-4h-4v4zm-88 20v4h4v-4h-4zm20-28v-4h-4v4h4zm44 12v-4h-4v4h4zm8 0v-4h-4v4h4zm-44-12v-4h-4v4h4zm-20 28v4h4v-4h-4zm-48-8v4h4v-4h-4zm120-8v-4h-4v4h4zm-76-12v-4h-4v4h4zm-12 28v4h4v-4h-4zm-24-8v4h4v-4h-4zm44-20v-4h-4v4h4zm-60 16h-4v4h4v-4zm100-16v-4h-4v4h4zm-12 12v-4h-4v4h4zm20-12v-4h-4v4h4zm-24 0v-4h-4v4h4zm32 0v-4h-4v4h4zm-44 28v4h4v-4h-4zm20-28v-4h-4v4h4zm-28 28v4h4v-4h-4zm40-16v-4h-4v4h4zm-104 8v4h4v-4h-4zm96-8v-4h-4v4h4zm-80-16v-4h-4v4h4zm72 0v-4h-4v4h4zm100-36c0-1.5-.4-2.8-1.1-4H333v4h4zm-4-6.9c-1.2-.7-2.5-1.1-4-1.1v4h4v-2.9zM281 248v-4h-4v4h4zm-20-4v-4h-4v4h4zm-8 0v-4h-4v4h4zm4 4v-4h-4v4h4zm60-56h-4v4h4v-4zm-96 44v-4h-4v4h4zm8 0v-4h-4v4h4zm80-44h-4v4h4v-4zm-36 64v-4h-4v4h4zm52-64h-4v4h4v-4zm-88 52v-4h-4v4h4zm28 4v-4h-4v4h4zm-8 8v-4h-4v4h4zm28-20v-4h-4v4h4zm-36 20v-4h-4v4h4zm20-20v-4h-4v4h4zm8 0v-4h-4v4h4zm-12 20v-4h-4v4h4zm8-8v-4h-4v4h4zm-20-12v-4h-4v4h4zm8 0v-4h-4v4h4zm-16 8v-4h-4v4h4zm0-8v-4h-4v4h4zm-72 0v-4h-4v4h4zm40 0v-4h-4v4h4zm32-44h-4v4h4v-4zm-4 56v-4h-4v4h4zm-60-12v-4h-4v4h4zm72-44h-4v4h4v-4zm32 52v-4h-4v4h4zm-128-8v-4h-4v4h4zm64-44h-4v4h4v-4zm-8 0h-4v4h4v-4zm48 0h-4v4h4v-4zm-32 0h-4v4h4v-4zm8 0h-4v4h4v-4zm56 0h-4v4h4v-4zm-88 44v-4h-4v4h4zm64 8v-4h-4v4h4zm16-52h-4v4h4v-4zm16 0h-4v4h4v-4zm-24 52v-4h-4v4h4zm-88-8v-4h-4v4h4zm80-44h-4v4h4v-4zm8 0h-4v4h4v-4zm-80 44v-4h-4v4h4zm52 12v-4h-4v4h4zm-32 24v4h4v-4h-4zm-28-28v-4h-4v4h4zm52 28v4h4v-4h-4zm-72-16v-4h-4v4h4zm56 16v4h4v-4h-4zm-44-28v-4h-4v4h4zm-8 0v-4h-4v4h4zm60 28v4h4v-4h-4zm24 0v4h4v-4h-4zm-72-16v-4h-4v4h4zm76 4v4h4v-4h-4zm-12 12v4h4v-4h-4zm-72-16v-4h-4v4h4zm76 4v4h4v-4h-4zm-96-16v-4h-4v4h4zm4 12v-4h-4v4h4zm32 16v4h4v-4h-4zm44-12v4h4v-4h-4zm-84-4v4h4v-4h-4zm48 16v4h4v-4h-4zm8 0v4h4v-4h-4zm36-12v4h4v-4h-4zm-84-4v4h4v-4h-4zm4-12v-4h-4v4h4zm-12 8h-4v4h4v-4zm124 12h4v-4h-4v4zm0-8h4v-4h-4v4zm-52 0v-4h-4v4h4zm64 12h4v-4h-4v4zm-24 4v4h4v-4h-4zm-52-28v-4h-4v4h4zm4 12v-4h-4v4h4zm72-4h4v-4h-4v4zm-48 4v-4h-4v4h4zm52-20v-4h-4v4h4zm-60 20v-4h-4v4h4zm56-12h4v-4h-4v4zm-68 0v-4h-4v4h4zm68 16h4v-4h-4v4zm-16 12v4h4v-4h-4zm-4-12v4h4v-4h-4zm-72-16v-4h-4v4h4zm-4 12v-4h-4v4h4zm8 0v-4h-4v4h4zm-56 8v4h4v-4h-4zm144 12h4v-4h-4v4zm-84-32v-4h-4v4h4zm24 0v-4h-4v4h4zm52 28v4h4v-4h-4zm-72-16v-4h-4v4h4zm-88 56v4h4v-4h-4zm0-8v4h4v-4h-4zm-8 0v4h4v-4h-4zm16 0v4h4v-4h-4zm-24 0v4h4v-4h-4zm32 0v4h4v-4h-4zm-32-4h-4v4h4v-4zm0-24h-4v4h4v-4zm0 8h-4v4h4v-4zm0-16h-4v4h4v-4zm0 24h-4v4h4v-4zm88 12v4h4v-4h-4zm8 0v4h4v-4h-4zm-16 0v4h4v-4h-4zm-40 0v4h4v-4h-4zm64 0v4h4v-4h-4zm-48 0v4h4v-4h-4zm-8 0v4h4v-4h-4zm16 0v4h4v-4h-4zm48 0v4h4v-4h-4zm-40 0v4h4v-4h-4zm-24-96v-4h-4v4h4zm-24 0v-4h-4v4h4zm16 0v-4h-4v4h4zm-8 0v-4h-4v4h4zm24 0v-4h-4v4h4zm8 0v-4h-4v4h4zm24 0v-4h-4v4h4zm-8 0v-4h-4v4h4zm-8 0v-4h-4v4h4zm-56 0v-4h-4v4h4zm-16 28h-4v4h4v-4zm0-8h-4v4h4v-4zm0 16h-4v4h4v-4zm0 8h-4v4h4v-4zm0-40h-4v4h4v-4zm0-8h-4v4h4v-4zm8 4v-4h-4v4h4zm-8 52h-4v4h4v-4zm0-40h-4v4h4v-4zm200 84v4h4v-4h-4zm16-92h4v-4h-4v4zm-4-8v-4h-4v4h4zm-16 0v-4h-4v4h4zm8 0v-4h-4v4h4zm16 0v-4h-4v4h4zm-4 32h4v-4h-4v4zm-160-4v-4h-4v4h4zm160-12h4v-4h-4v4zm0 8h4v-4h-4v4zm-36-24v-4h-4v4h4zm-40 0v-4h-4v4h4zm-20 100v4h4v-4h-4zm12-100v-4h-4v4h4zm-8 0v-4h-4v4h4zm40 0v-4h-4v4h4zm52 48h4v-4h-4v4zm-60-48v-4h-4v4h4zm16 0v-4h-4v4h4zm16 0v-4h-4v4h4zm-40 0v-4h-4v4h4zm28 100v4h4v-4h-4zm-8 0v4h4v-4h-4zm24 0v4h4v-4h-4zm-32 0v4h4v-4h-4zm24 0v4h4v-4h-4zm-32 0v4h4v-4h-4zm-24 0v4h4v-4h-4zm8 0v4h4v-4h-4zm8 0v4h4v-4h-4zm72-44h4v-4h-4v4zm0 24h4v-4h-4v4zm0-8h4v-4h-4v4zm0 16h4v-4h-4v4zm0-24h4v-4h-4v4zm0 40h4v-4h-4v4zm-8-4v4h4v-4h-4zm-112-96v-4h-4v4h4zm120 92h4v-4h-4v4zm-16-92v-4h-4v4h4zm-196 92v4h4v-4h-4zm0-4h-4v4h4v-4zm8 4v4h4v-4h-4zm8 0v4h4v-4h-4zm8 0v4h4v-4h-4zm-24-44h-4v4h4v-4zm0 16h-4v4h4v-4zm0 8h-4v4h4v-4zm0 8h-4v4h4v-4zm0-24h-4v4h4v-4zm72 36v4h4v-4h-4zm8 0v4h4v-4h-4zm8 0v4h4v-4h-4zm16 0v4h4v-4h-4zm-8 0v4h4v-4h-4zm-48 0v4h4v-4h-4zm16 0v4h4v-4h-4zm-24 0v4h4v-4h-4zm16 0v4h4v-4h-4zm-24 0v4h4v-4h-4zm40-88v-4h-4v4h4zm-16 0v-4h-4v4h4zm8 0v-4h-4v4h4zm-16 0v-4h-4v4h4zm56 0v-4h-4v4h4zm-104 36h-4v4h4v-4zm80-36v-4h-4v4h4zm16 0v-4h-4v4h4zm-8 0v-4h-4v4h4zm-48 0v-4h-4v4h4zm-40 12h-4v4h4v-4zm0-8h-4v4h4v-4zm0 16h-4v4h4v-4zm0 8h-4v4h4v-4zm32-28v-4h-4v4h4zm-32-4h-4v4h4v-4zm24 4v-4h-4v4h4zm-8 0v-4h-4v4h4zm-8 0v-4h-4v4h4zm184 88v4h4v-4h-4zm12-92v-4h-4v4h4zm-92-4v-4h-4v4h4zm76 4v-4h-4v4h4zm24 0v-4h-4v4h4zm-4 32h4v-4h-4v4zm-96 60v4h4v-4h-4zm96-84h4v-4h-4v4zm0 16h4v-4h-4v4zm0-8h4v-4h-4v4zm-36-16v-4h-4v4h4zm-56 0v-4h-4v4h4zm8 0v-4h-4v4h4zm-16 0v-4h-4v4h4zm24 0v-4h-4v4h4zm8 0v-4h-4v4h4zm24 0v-4h-4v4h4zm-8 0v-4h-4v4h4zm52 40h4v-4h-4v4zm-60-40v-4h-4v4h4zm32 0v-4h-4v4h4zm-28 92v4h4v-4h-4zm32 0v4h4v-4h-4zm-16 0v4h4v-4h-4zm8 0v4h4v-4h-4zm-16 0v4h4v-4h-4zm-16 0v4h4v-4h-4zm-24 0v4h4v-4h-4zm8 0v4h4v-4h-4zm8 0v4h4v-4h-4zm72-12h4v-4h-4v4zm0-16h4v-4h-4v4zm-108-64v-4h-4v4h4zm108 72h4v-4h-4v4zm0-16h4v-4h-4v4zm0-8h4v-4h-4v4zm-8 44v4h4v-4h-4zm8-4h4v-4h-4v4zm0 8h4v-4h-4v4zm-128 4v4h4v-4h-4zm-92-64h-4v4h4v-4zm0-8h-4v4h4v-4zm0 16h-4v4h4v-4zm0 8h-4v4h4v-4zm0-48h-4v4h4v-4zm0 56h-4v4h4v-4zm0-40h-4v4h4v-4zm0-24h-4v4h4v-4zm0 16h-4v4h4v-4zm0 88h-4v4h4v-4zm16 4v4h4v-4h-4zm-8 0v4h4v-4h-4zm-8-36h-4v4h4v-4zm0 36v4h4v-4h-4zm32 0v4h4v-4h-4zM97 196h-4v4h4v-4zm40 116v4h4v-4h-4zm-40-28h-4v4h4v-4zm0 16h-4v4h4v-4zm0-8h-4v4h4v-4zm112-92v-4h-4v4h4zm8 0v-4h-4v4h4zm-32 0v-4h-4v4h4zm8 0v-4h-4v4h4zm8 0v-4h-4v4h4zm24 0v-4h-4v4h4zm24 0v-4h-4v4h4zm-8 0v-4h-4v4h4zm-136 0v-4h-4v4h4zm128 0v-4h-4v4h4zm-96 0v-4h-4v4h4zm-16 0v-4h-4v4h4zm8 0v-4h-4v4h4zm48 0v-4h-4v4h4zm-64 0v-4h-4v4h4zm48 0v-4h-4v4h4zm-16 0v-4h-4v4h4zm24 0v-4h-4v4h4zm-16 0v-4h-4v4h4zm144 112v4h4v-4h-4zm32-20h4v-4h-4v4zm0 8h4v-4h-4v4zm0 8h4v-4h-4v4zm0-24h4v-4h-4v4zm0-8h4v-4h-4v4zm-72-76v-4h-4v4h4zm48 112v4h4v-4h-4zm8 0v4h4v-4h-4zm8 0v4h4v-4h-4zm8 4h4v-4h-4v4zm0-104h4v-4h-4v4zm0 16h4v-4h-4v4zm0 40h4v-4h-4v4zm0-64h4v-4h-4v4zm0 16h4v-4h-4v4zm0 32h4v-4h-4v4zm0-16h4v-4h-4v4zm0 24h4v-4h-4v4zm0-16h4v-4h-4v4zm-64 68v4h4v-4h-4zm-80 0v4h4v-4h-4zm104 0v4h4v-4h-4zm-96 0v4h4v-4h-4zm16 0v4h4v-4h-4zm-40 0v4h4v-4h-4zm-16 0v4h4v-4h-4zm24 0v4h4v-4h-4zm-16 0v4h4v-4h-4zm56 0v4h4v-4h-4zm-16 0v4h4v-4h-4zm-56 0v4h4v-4h-4zm128 0v4h4v-4h-4zm-16 0v4h4v-4h-4zm24 0v4h4v-4h-4zm-32 0v4h4v-4h-4zm-24 0v4h4v-4h-4zm-12-108v-4h-4v4h4zm28 108v4h4v-4h-4zm-8 0v4h4v-4h-4zm-132-24h-4v4h4v-4zm0-40h-4v4h4v-4zm0 56h-4v4h4v-4zm0 4v4h4v-4h-4zm0-36h-4v4h4v-4zm120-60v-4h-4v4h4zm-120 68h-4v4h4v-4zm0-24h-4v4h4v-4zm8 52v4h4v-4h-4zm-8-12h-4v4h4v-4zm64 12v4h4v-4h-4zm-8 0v4h4v-4h-4zm16 0v4h4v-4h-4zm8 0v4h4v-4h-4zm-32 0v4h4v-4h-4zm-16 0v4h4v-4h-4zm-16 0v4h4v-4h-4zm8 0v4h4v-4h-4zm16 0v4h4v-4h-4zm124-108v-4h-4v4h4zm-100 4v-4h-4v4h4zm-8 0v-4h-4v4h4zm-8 0v-4h-4v4h4zm24 0v-4h-4v4h4zm8 0v-4h-4v4h4zm24 0v-4h-4v4h4zm-8 0v-4h-4v4h4zm-56 0v-4h-4v4h4zm48 0v-4h-4v4h4zm-88 28h-4v4h4v-4zm0-8h-4v4h4v-4zm0-16h-4v4h4v-4zm0 8h-4v4h4v-4zm0 24h-4v4h4v-4zm8-36v-4h-4v4h4zm8 0v-4h-4v4h4zm8 0v-4h-4v4h4zm-24-4h-4v4h4v-4zm32 4v-4h-4v4h4zm-32 60h-4v4h4v-4zm224-32h4v-4h-4v4zm0 16h4v-4h-4v4zm0-8h4v-4h-4v4zm0-16h4v-4h-4v4zm0 48h4v-4h-4v4zm0-56h4v-4h-4v4zm0 64h4v-4h-4v4zm0-16h4v-4h-4v4zm0-8h4v-4h-4v4zm-28-56v-4h-4v4h4zm-8 0v-4h-4v4h4zm-8 0v-4h-4v4h4zm44 88h4v-4h-4v4zm-52-88v-4h-4v4h4zm48 0v-4h-4v4h4zm-16 0v-4h-4v4h4zm20 8h4v-4h-4v4zm4-8v-4h-4v4h4zm-16 0v-4h-4v4h4zm-84 108v4h4v-4h-4zm24 0v4h4v-4h-4zm-8 0v4h4v-4h-4zm-8 0v4h4v-4h-4zm32 0v4h4v-4h-4zm-8 0v4h4v-4h-4zm-48 0v4h4v-4h-4zm-16 0v4h4v-4h-4zm8 0v4h4v-4h-4zm16 0v4h4v-4h-4zm104-12h4v-4h-4v4zm-16 12v4h4v-4h-4zm8 0v4h4v-4h-4zm8 4h4v-4h-4v4zm0-8h4v-4h-4v4zm-48 4v4h4v-4h-4zm8 0v4h4v-4h-4zm8 0v4h4v-4h-4zm8 0v4h4v-4h-4zm20-64h4v-4h-4v4zm-72-20v-4h-4v4h4zm8 0v-4h-4v4h4zm8 0v-4h-4v4h4zm-24 0v-4h-4v4h4zm-8 0v-4h-4v4h4zm40 0v-4h-4v4h4zm24 0v-4h-4v4h4zm-8 0v-4h-4v4h4zm-8 0v-4h-4v4h4zm-56 0v-4h-4v4h4zm-56 0v-4h-4v4h4zm16 0v-4h-4v4h4zm-8 0v-4h-4v4h4zm-16 0v-4h-4v4h4zm48 0v-4h-4v4h4zm8 0v-4h-4v4h4zm88 0v-4h-4v4h4zm-104 0v-4h-4v4h4zm-48 0v-4h-4v4h4zm40 0v-4h-4v4h4zm52 60v4h4v-4h-4zm16 0v4h4v-4h-4zm-8 0v4h4v-4h-4zm16 0v4h4v-4h-4zm-32 0v4h4v-4h-4zm-24 0v4h4v-4h-4zm8 0v4h4v-4h-4zm56 0v4h4v-4h-4zm-48 0v4h4v-4h-4zm72-4h4v-4h-4v4zm0-24h4v-4h-4v4zm0-8h4v-4h-4v4zm0 16h4v-4h-4v4zm-72-52v-4h-4v4h4zm56 72v4h4v-4h-4zm16-12h4v-4h-4v4zm-8 12v4h4v-4h-4zm8 4h4v-4h-4v4zm0-56h4v-4h-4v4zm-96 52v4h4v-4h-4zm44 4v4h4v-4h-4zm-16 0v4h4v-4h-4zm-16 0v4h4v-4h-4zm24 0v4h4v-4h-4zm-16 0v4h4v-4h-4zm-32 0v4h4v-4h-4zm-8 0v4h4v-4h-4zm24 0v4h4v-4h-4zm-8 0v4h4v-4h-4zm96 0v4h4v-4h-4zm-120 0v4h4v-4h-4zm128 4h4v-4h-4v4zm0-8h4v-4h-4v4zm0-8h4v-4h-4v4zm-16 12v4h4v-4h-4zm-16 0v4h4v-4h-4zm-128-64v-4h-4v4h4zm120 64v4h4v-4h-4zm16 0v4h4v-4h-4zm-24 0v4h4v-4h-4zm-136-44h-4v4h4v-4zm0 8h-4v4h4v-4zm0 8h-4v4h4v-4zm0-24h-4v4h4v-4zm0 32h-4v4h4v-4zm8-44v-4h-4v4h4zm8 0v-4h-4v4h4zm-16 4h-4v4h4v-4zm0-8h-4v4h4v-4zm16 68v4h4v-4h-4zm16 0v4h4v-4h-4zm-8 0v4h4v-4h-4zm16 0v4h4v-4h-4zm8 0v4h4v-4h-4zm-40 0v4h4v-4h-4zm-8-4h-4v4h4v-4zm0-8h-4v4h4v-4zm0 12v4h4v-4h-4zm176-4h4v-4h-4v4zm-40-4v4h4v-4h-4zm16 0v4h4v-4h-4zm-24 0v4h4v-4h-4zm16 0v4h4v-4h-4zm-24 0v4h4v-4h-4zm-8 0v4h4v-4h-4zm-32 0v4h4v-4h-4zm16 0v4h4v-4h-4zm8 0v4h4v-4h-4zm-16 0v4h4v-4h-4zm88-28h4v-4h-4v4zm4-24v-4h-4v4h4zm-4 16h4v-4h-4v4zm0-8h4v-4h-4v4zm0 24h4v-4h-4v4zm0 8h4v-4h-4v4zm-8 12v4h4v-4h-4zm16-12h4v-4h-4v4zm-8 8h4v-4h-4v4zm-16 4v4h4v-4h-4zm-152-44h-4v4h4v-4zm0 16h-4v4h4v-4zm0-8h-4v4h4v-4zm0 16h-4v4h4v-4zm16-28v-4h-4v4h4zm48 48v4h4v-4h-4zm-64-12h-4v4h4v-4zm0-40h-4v4h4v-4zm8 4v-4h-4v4h4zm16 0v-4h-4v4h4zm24 48v4h4v-4h-4zm-8 0v4h4v-4h-4zm16 0v4h4v-4h-4zm-24 0v4h4v-4h-4zm-16 0v4h4v-4h-4zm-16 0v4h4v-4h-4zm8 0v4h4v-4h-4zm-8-4h-4v4h4v-4zm24 4v4h4v-4h-4zm20 4v4h4v-4h-4zm-48-20h-4v4h4v-4zm0-8h-4v4h4v-4zm0 24h-4v4h4v-4zm0-8h-4v4h4v-4zm0-24h-4v4h4v-4zm8-20v-4h-4v4h4zm-8-4h-4v4h4v-4zm0 16h-4v4h4v-4zm0-8h-4v4h4v-4zm16-4v-4h-4v4h4zm-16 56v4h4v-4h-4zm72 0v4h4v-4h-4zm-32 0v4h4v-4h-4zm24 0v4h4v-4h-4zm-8 0v4h4v-4h-4zm-40 0v4h4v-4h-4zm-8 0v4h4v-4h-4zm16 0v4h4v-4h-4zm8 0v4h4v-4h-4zm48-56v-4h-4v4h4zm40 0v-4h-4v4h4zm-8 0v-4h-4v4h4zm16 0v-4h-4v4h4zm-24 0v-4h-4v4h4zm32 0v-4h-4v4h4zm16 0v-4h-4v4h4zm-56 0v-4h-4v4h4zm64 0v-4h-4v4h4zm-136 0v-4h-4v4h4zm120 0v-4h-4v4h4zm-88 0v-4h-4v4h4zm-8 0v-4h-4v4h4zm-8 0v-4h-4v4h4zm-8 0v-4h-4v4h4zm136 0v-4h-4v4h4zm-104 0v-4h-4v4h4zm24 0v-4h-4v4h4zm-16 0v-4h-4v4h4zm104 12h4v-4h-4v4zm-28-24v-4h-4v4h4zm-160 44h-4v4h4v-4zm0 8h-4v4h4v-4zm0 8h-4v4h4v-4zm0-64h-4v4h4v-4zm0 16h-4v4h4v-4zm0 16h-4v4h4v-4zm0-24h-4v4h4v-4zm0 16h-4v4h4v-4zm0 48h-4v4h4v-4zm0 8h-4v4h4v-4zm48 4v4h4v-4h-4zm8 0v4h4v-4h-4zm-24 0v4h4v-4h-4zm8 0v4h4v-4h-4zm-16 0v4h4v-4h-4zm-24 0v4h4v-4h-4zm8 0v4h4v-4h-4zm8 0v4h4v-4h-4zm96-80v-4h-4v4h4zm-48 80v4h4v-4h-4zm40-80v-4h-4v4h4zm-8 0v-4h-4v4h4zm-8 0v-4h-4v4h4zm32 0v-4h-4v4h4zm32 0v-4h-4v4h4zm-8 0v-4h-4v4h4zm-16 0v-4h-4v4h4zm8 0v-4h-4v4h4zm-56 0v-4h-4v4h4zm-48 0v-4h-4v4h4zm-8 0v-4h-4v4h4zm-16 0v-4h-4v4h4zm8 0v-4h-4v4h4zm24 0v-4h-4v4h4zm32 0v-4h-4v4h4zm-24 0v-4h-4v4h4zm16 0v-4h-4v4h4zm-8 0v-4h-4v4h4zm-56 36h-4v4h4v-4zm200-16h4v-4h-4v4zm0-8h4v-4h-4v4zm0-8h4v-4h-4v4zm4-8v-4h-4v4h4zm-8 0v-4h-4v4h4zm4 48h4v-4h-4v4zm0 8h4v-4h-4v4zm0-24h4v-4h-4v4zm0 8h4v-4h-4v4zm-52-40v-4h-4v4h4zm40 0v-4h-4v4h4zm-48 0v-4h-4v4h4zm-16 0v-4h-4v4h4zm76 64h4v-4h-4v4zm-128 20v4h4v-4h-4zm120-36h4v-4h-4v4zm-12-48v-4h-4v4h4zm-16 0v-4h-4v4h4zm-8 0v-4h-4v4h4zm-24 0v-4h-4v4h4zm-4 84v4h4v-4h-4zm-16 0v4h4v-4h-4zm32 0v4h4v-4h-4zm56-12h4v-4h-4v4zm-80 12v4h4v-4h-4zm-16 0v4h4v-4h-4zm-24 0v4h4v-4h-4zm8 0v4h4v-4h-4zm8 0v4h4v-4h-4zm40 0v4h4v-4h-4zm48 0v4h4v-4h-4zm8 0v4h4v-4h-4zm8 4h4v-4h-4v4zm0-8h4v-4h-4v4zm-40 4v4h4v-4h-4zm-8 0v4h4v-4h-4zm16 0v4h4v-4h-4zm8 0v4h4v-4h-4zm-4-84v-4h-4v4h4zm-144 8v-4h-4v4h4zm16 0v-4h-4v4h4zm-8 0v-4h-4v4h4zm-16 0v-4h-4v4h4zm48 0v-4h-4v4h4zm16 0v-4h-4v4h4zm-72 0v-4h-4v4h4zm40 0v-4h-4v4h4zm8 0v-4h-4v4h4zm16 0v-4h-4v4h4zm-72 44h-4v4h4v-4zm0 8h-4v4h4v-4zm0 8h-4v4h4v-4zm0-24h-4v4h4v-4zm0-24h-4v4h4v-4zm0 16h-4v4h4v-4zm0-32h-4v4h4v-4zm0 8h-4v4h4v-4zm0 16h-4v4h4v-4zm188 4h4v-4h-4v4zm-12-24v-4h-4v4h4zm8 0v-4h-4v4h4zm8 0v-4h-4v4h4zm-24 0v-4h-4v4h4zm-8 0v-4h-4v4h4zm-160 68h-4v4h4v-4zm188-36h4v-4h-4v4zm0-24h4v-4h-4v4zm0 8h4v-4h-4v4zm-44-16v-4h-4v4h4zm8 0v-4h-4v4h4zm-48 0v-4h-4v4h4zm-8 0v-4h-4v4h4zm24 0v-4h-4v4h4zm-8 0v-4h-4v4h4zm-24 0v-4h-4v4h4zm40 0v-4h-4v4h4zm8 0v-4h-4v4h4zm56 68h4v-4h-4v4zm-28-72v-4h-4v4h4zm28 64h4v-4h-4v4zm0 16h4v-4h-4v4zm0-24h4v-4h-4v4zm0-8h4v-4h-4v4zm-32 28v4h4v-4h-4zm8 0v4h4v-4h-4zm16 0v4h4v-4h-4zm-8 0v4h4v-4h-4zm-4-76v-4h-4v4h4zm8 0v-4h-4v4h4zm8 0v-4h-4v4h4zm-36 76v4h4v-4h-4zm44-76v-4h-4v4h4zm-4 32h4v-4h-4v4zm0-8h4v-4h-4v4zm0 16h4v-4h-4v4zm0-24h4v-4h-4v4zm0-8h4v-4h-4v4zm-144 68v4h4v-4h-4zm24 0v4h4v-4h-4zm-72 0v4h4v-4h-4zm56 0v4h4v-4h-4zm8 0v4h4v-4h-4zm-24 0v4h4v-4h-4zm-24 0v4h4v-4h-4zm-8 0v4h4v-4h-4zm16 0v4h4v-4h-4zm8 0v4h4v-4h-4zm88 0v4h4v-4h-4zm24 0v4h4v-4h-4zm-16 0v4h4v-4h-4zm8 0v4h4v-4h-4zm-24 0v4h4v-4h-4zm-24 0v4h4v-4h-4zm-8 0v4h4v-4h-4zm16 0v4h4v-4h-4zm8 0v4h4v-4h-4z" opacity=".15" fill="#36434f"/></svg>