<svg version="1.1" xmlns="http://www.w3.org/2000/svg" x="0" y="0" viewBox="0 0 512 512" xml:space="preserve"><style type="text/css">.st0{fill:#cc584c}.st1{opacity:.15;fill:#444}</style><path class="st0" d="M264 512h-16c-2.2 0-4-1.8-4-4V45h24v463c0 2.2-1.8 4-4 4z"/><path class="st1" d="M251 45v467h-3c-2.2 0-4-1.8-4-4V45h7zm10 0v467h3c2.2 0 4-1.8 4-4V45h-7z"/><path d="M259.5 22.7c-3.3 0-6.4-1.2-8.7-3.2L244 45c0 1.7 5.4 3 12 3s12-1.3 12-3l-6-22.5c-.8.1-1.6.2-2.5.2z" fill="#ddd"/><path class="st0" d="M259.5 23c.9 0 1.7-.1 2.6-.3L256 0l-5.3 19.8c2.4 2 5.5 3.2 8.8 3.2z"/><path class="st1" d="M250.8 19.5v.2L244 45v463c0 2.2 1.8 4 4 4h8V0l-5.2 19.5z"/></svg>