<svg version="1.1" xmlns="http://www.w3.org/2000/svg" x="0" y="0" viewBox="0 0 512 512" xml:space="preserve"><style type="text/css">.st0{fill:#ffa000}.st6{fill:#bb9f45}</style><path class="st0" d="M276 405h-40c-5.5 0-10-4.5-10-10V112.5h60V395c0 5.5-4.5 10-10 10z"/><path d="M243.5 112.5V405H236c-5.5 0-10-4.5-10-10V112.5h17.5zm25 0V405h7.5c5.5 0 10-4.5 10-10V112.5h-17.5z" opacity=".15" fill="#444"/><path class="st0" d="M264.8 57.5c2.3 0 4.3-.3 6.5-.7L256 0l-13.3 49.5c6 5 13.8 8 22.1 8z"/><path d="M267.3 512h-22.5c-8.8 0-16-7.2-16-16v-22.5h54.5V496c0 8.8-7.2 16-16 16z" fill="#cc584c"/><path d="M286 364.5h-60v110c0 1.1.9 2 2 2h56c1.1 0 2-.9 2-2v-110z" fill="#eec646"/><path d="M226 384.5h60v3h-60zm0 6h60v3h-60zm0 6h60v3h-60zm0 47h60v3h-60zm0 6h60v3h-60zm0 6h60v3h-60zm0-44.5h3v23h-3zm6.3 0h3v23h-3zm6.4 0h3v23h-3zm6.3 0h3v23h-3zm6.3 0h3v23h-3zm6.4 0h3v23h-3zm6.3 0h3v23h-3zm6.3 0h3v23h-3zm6.4 0h3v23h-3zm6.3 0h3v23h-3z" opacity=".15" fill="#444"/><path d="M285.9 113c0-.2.1-.3.1-.5l-15-56.3c-2 .3-4 .5-6.3.5-8.2 0-16-3-21.8-8l-17 63.8c0 .2 0 .3.1.5h59.9z" fill="#ddd"/><circle class="st6" cx="239.5" cy="454" r="3.5"/><circle class="st6" cx="269.5" cy="454" r="3.5"/></svg>