<svg xmlns="http://www.w3.org/2000/svg" viewBox="0 0 512 512" style="enable-background:new 0 0 512 512" xml:space="preserve"><style>.st1{fill:#ddd}.st2{fill:#bbb}.st3{opacity:.15;fill:#444;enable-background:new}</style><path d="M342 512H170c-17.7 0-32-14.3-32-32V32c0-17.7 14.3-32 32-32h172c17.7 0 32 14.3 32 32v448c0 17.7-14.3 32-32 32z" style="fill:#f4f4f4"/><circle class="st1" cx="197.5" cy="70" r="32.5"/><path class="st2" d="M197.5 40c4 0 8 .8 11.7 2.3 3.6 1.5 6.8 3.7 9.5 6.4s4.9 6 6.4 9.5c1.6 3.7 2.3 7.6 2.3 11.7s-.8 8-2.3 11.7c-1.5 3.6-3.7 6.8-6.4 9.5s-6 4.9-9.5 6.4c-3.7 1.6-7.6 2.3-11.7 2.3s-8-.8-11.7-2.3c-3.6-1.5-6.8-3.7-9.5-6.4s-4.9-6-6.4-9.5c-1.6-3.7-2.3-7.6-2.3-11.7s.8-8 2.3-11.7c1.5-3.6 3.7-6.8 6.4-9.5s6-4.9 9.5-6.4c3.7-1.5 7.7-2.3 11.7-2.3m0-2.5C179.5 37.5 165 52 165 70s14.5 32.5 32.5 32.5S230 88 230 70s-14.5-32.5-32.5-32.5z"/><path class="st3" d="M165 70c0 18 14.5 32.5 32.5 32.5v-65C179.5 37.5 165 52 165 70z"/><circle class="st1" cx="197.5" cy="163" r="32.5"/><path class="st2" d="M197.5 133c4 0 8 .8 11.7 2.3 3.6 1.5 6.8 3.7 9.5 6.4s4.9 6 6.4 9.5c1.6 3.7 2.3 7.6 2.3 11.7s-.8 8-2.3 11.7c-1.5 3.6-3.7 6.8-6.4 9.5s-6 4.9-9.5 6.4c-3.7 1.6-7.6 2.3-11.7 2.3s-8-.8-11.7-2.3c-3.6-1.5-6.8-3.7-9.5-6.4s-4.9-6-6.4-9.5c-1.6-3.7-2.3-7.6-2.3-11.7s.8-8 2.3-11.7c1.5-3.6 3.7-6.8 6.4-9.5s6-4.9 9.5-6.4c3.7-1.5 7.7-2.3 11.7-2.3m0-2.5c-18 0-32.5 14.5-32.5 32.5s14.5 32.5 32.5 32.5S230 181 230 163s-14.5-32.5-32.5-32.5z"/><path class="st3" d="M165 163c0 18 14.5 32.5 32.5 32.5v-65c-18 0-32.5 14.5-32.5 32.5z"/><circle class="st1" cx="197.5" cy="256" r="32.5"/><path class="st2" d="M197.5 226c4 0 8 .8 11.7 2.3 3.6 1.5 6.8 3.7 9.5 6.4s4.9 6 6.4 9.5c1.6 3.7 2.3 7.6 2.3 11.7s-.8 8-2.3 11.7c-1.5 3.6-3.7 6.8-6.4 9.5s-6 4.9-9.5 6.4c-3.7 1.6-7.6 2.3-11.7 2.3s-8-.8-11.7-2.3c-3.6-1.5-6.8-3.7-9.5-6.4s-4.9-6-6.4-9.5c-1.6-3.7-2.3-7.6-2.3-11.7s.8-8 2.3-11.7c1.5-3.6 3.7-6.8 6.4-9.5s6-4.9 9.5-6.4c3.7-1.5 7.7-2.3 11.7-2.3m0-2.5c-18 0-32.5 14.5-32.5 32.5s14.5 32.5 32.5 32.5S230 274 230 256s-14.5-32.5-32.5-32.5z"/><path class="st3" d="M165 256c0 18 14.5 32.5 32.5 32.5v-65c-18 0-32.5 14.5-32.5 32.5z"/><circle class="st1" cx="197.5" cy="349" r="32.5"/><path class="st2" d="M197.5 319c4 0 8 .8 11.7 2.3 3.6 1.5 6.8 3.7 9.5 6.4s4.9 6 6.4 9.5c1.6 3.7 2.3 7.6 2.3 11.7s-.8 8-2.3 11.7c-1.5 3.6-3.7 6.8-6.4 9.5s-6 4.9-9.5 6.4c-3.7 1.6-7.6 2.3-11.7 2.3s-8-.8-11.7-2.3c-3.6-1.5-6.8-3.7-9.5-6.4s-4.9-6-6.4-9.5c-1.6-3.7-2.3-7.6-2.3-11.7s.8-8 2.3-11.7c1.5-3.6 3.7-6.8 6.4-9.5s6-4.9 9.5-6.4c3.7-1.5 7.7-2.3 11.7-2.3m0-2.5c-18 0-32.5 14.5-32.5 32.5s14.5 32.5 32.5 32.5S230 367 230 349s-14.5-32.5-32.5-32.5z"/><path class="st3" d="M165 349c0 18 14.5 32.5 32.5 32.5v-65c-18 0-32.5 14.5-32.5 32.5z"/><circle class="st1" cx="197.5" cy="442" r="32.5"/><path class="st2" d="M197.5 412c4 0 8 .8 11.7 2.3 3.6 1.5 6.8 3.7 9.5 6.4s4.9 6 6.4 9.5c1.6 3.7 2.3 7.6 2.3 11.7s-.8 8-2.3 11.7c-1.5 3.6-3.7 6.8-6.4 9.5s-6 4.9-9.5 6.4c-3.7 1.6-7.6 2.3-11.7 2.3s-8-.8-11.7-2.3c-3.6-1.5-6.8-3.7-9.5-6.4s-4.9-6-6.4-9.5c-1.6-3.7-2.3-7.6-2.3-11.7s.8-8 2.3-11.7c1.5-3.6 3.7-6.8 6.4-9.5s6-4.9 9.5-6.4c3.7-1.5 7.7-2.3 11.7-2.3m0-2.5c-18 0-32.5 14.5-32.5 32.5s14.5 32.5 32.5 32.5S230 460 230 442s-14.5-32.5-32.5-32.5z"/><path class="st3" d="M165 442c0 18 14.5 32.5 32.5 32.5v-65c-18 0-32.5 14.5-32.5 32.5z"/><circle class="st1" cx="314.5" cy="70" r="32.5"/><path class="st2" d="M314.5 40c4 0 8 .8 11.7 2.3 3.6 1.5 6.8 3.7 9.5 6.4s4.9 6 6.4 9.5c1.6 3.7 2.3 7.6 2.3 11.7s-.8 8-2.3 11.7c-1.5 3.6-3.7 6.8-6.4 9.5s-6 4.9-9.5 6.4c-3.7 1.6-7.6 2.3-11.7 2.3s-8-.8-11.7-2.3c-3.6-1.5-6.8-3.7-9.5-6.4s-4.9-6-6.4-9.5c-1.6-3.7-2.3-7.6-2.3-11.7s.8-8 2.3-11.7c1.5-3.6 3.7-6.8 6.4-9.5s6-4.9 9.5-6.4c3.7-1.5 7.7-2.3 11.7-2.3m0-2.5C296.5 37.5 282 52 282 70s14.5 32.5 32.5 32.5S347 88 347 70s-14.5-32.5-32.5-32.5z"/><path class="st3" d="M282 70c0 18 14.5 32.5 32.5 32.5v-65C296.5 37.5 282 52 282 70z"/><circle class="st1" cx="314.5" cy="163" r="32.5"/><path class="st2" d="M314.5 133c4 0 8 .8 11.7 2.3 3.6 1.5 6.8 3.7 9.5 6.4s4.9 6 6.4 9.5c1.6 3.7 2.3 7.6 2.3 11.7s-.8 8-2.3 11.7c-1.5 3.6-3.7 6.8-6.4 9.5s-6 4.9-9.5 6.4c-3.7 1.6-7.6 2.3-11.7 2.3s-8-.8-11.7-2.3c-3.6-1.5-6.8-3.7-9.5-6.4s-4.9-6-6.4-9.5c-1.6-3.7-2.3-7.6-2.3-11.7s.8-8 2.3-11.7c1.5-3.6 3.7-6.8 6.4-9.5s6-4.9 9.5-6.4c3.7-1.5 7.7-2.3 11.7-2.3m0-2.5c-18 0-32.5 14.5-32.5 32.5s14.5 32.5 32.5 32.5S347 181 347 163s-14.5-32.5-32.5-32.5z"/><path class="st3" d="M282 163c0 18 14.5 32.5 32.5 32.5v-65c-18 0-32.5 14.5-32.5 32.5z"/><circle class="st1" cx="314.5" cy="256" r="32.5"/><path class="st2" d="M314.5 226c4 0 8 .8 11.7 2.3 3.6 1.5 6.8 3.7 9.5 6.4s4.9 6 6.4 9.5c1.6 3.7 2.3 7.6 2.3 11.7s-.8 8-2.3 11.7c-1.5 3.6-3.7 6.8-6.4 9.5s-6 4.9-9.5 6.4c-3.7 1.6-7.6 2.3-11.7 2.3s-8-.8-11.7-2.3c-3.6-1.5-6.8-3.7-9.5-6.4s-4.9-6-6.4-9.5c-1.6-3.7-2.3-7.6-2.3-11.7s.8-8 2.3-11.7c1.5-3.6 3.7-6.8 6.4-9.5s6-4.9 9.5-6.4c3.7-1.5 7.7-2.3 11.7-2.3m0-2.5c-18 0-32.5 14.5-32.5 32.5s14.5 32.5 32.5 32.5S347 274 347 256s-14.5-32.5-32.5-32.5z"/><path class="st3" d="M282 256c0 18 14.5 32.5 32.5 32.5v-65c-18 0-32.5 14.5-32.5 32.5z"/><circle class="st1" cx="314.5" cy="349" r="32.5"/><path class="st2" d="M314.5 319c4 0 8 .8 11.7 2.3 3.6 1.5 6.8 3.7 9.5 6.4s4.9 6 6.4 9.5c1.6 3.7 2.3 7.6 2.3 11.7s-.8 8-2.3 11.7c-1.5 3.6-3.7 6.8-6.4 9.5s-6 4.9-9.5 6.4c-3.7 1.6-7.6 2.3-11.7 2.3s-8-.8-11.7-2.3c-3.6-1.5-6.8-3.7-9.5-6.4s-4.9-6-6.4-9.5c-1.6-3.7-2.3-7.6-2.3-11.7s.8-8 2.3-11.7c1.5-3.6 3.7-6.8 6.4-9.5s6-4.9 9.5-6.4c3.7-1.5 7.7-2.3 11.7-2.3m0-2.5c-18 0-32.5 14.5-32.5 32.5s14.5 32.5 32.5 32.5S347 367 347 349s-14.5-32.5-32.5-32.5z"/><path class="st3" d="M282 349c0 18 14.5 32.5 32.5 32.5v-65c-18 0-32.5 14.5-32.5 32.5z"/><circle class="st1" cx="314.5" cy="442" r="32.5"/><path class="st2" d="M314.5 412c4 0 8 .8 11.7 2.3 3.6 1.5 6.8 3.7 9.5 6.4s4.9 6 6.4 9.5c1.6 3.7 2.3 7.6 2.3 11.7s-.8 8-2.3 11.7c-1.5 3.6-3.7 6.8-6.4 9.5s-6 4.9-9.5 6.4c-3.7 1.6-7.6 2.3-11.7 2.3s-8-.8-11.7-2.3c-3.6-1.5-6.8-3.7-9.5-6.4s-4.9-6-6.4-9.5c-1.6-3.7-2.3-7.6-2.3-11.7s.8-8 2.3-11.7c1.5-3.6 3.7-6.8 6.4-9.5s6-4.9 9.5-6.4c3.7-1.5 7.7-2.3 11.7-2.3m0-2.5c-18 0-32.5 14.5-32.5 32.5s14.5 32.5 32.5 32.5S347 460 347 442s-14.5-32.5-32.5-32.5z"/><path class="st3" d="M282 442c0 18 14.5 32.5 32.5 32.5v-65c-18 0-32.5 14.5-32.5 32.5zm-22 35h-8c-3.3 0-6-2.7-6-6V47c0-3.3 2.7-6 6-6h8c3.3 0 6 2.7 6 6v424c0 3.3-2.7 6-6 6z"/></svg>