<svg version="1.1" xmlns="http://www.w3.org/2000/svg" x="0" y="0" viewBox="0 0 512 512" xml:space="preserve"><style type="text/css">.st0{fill:#ddd}</style><path class="st0" d="M256 0c-58 0-105 47-105 105s47 105 105 105 105-47 105-105S314 0 256 0zm0 89c-17.9 0-32.5-14.6-32.5-32.5S238.1 24 256 24s32.5 14.6 32.5 32.5S273.9 89 256 89z"/><path class="st0" d="M211 182v315l29 15 45-45v-33l-13-13v-42l-11.5-11.5V340l13.3-13.2-14.3-14.3L287 285h14V182z"/><path d="M265.5 306.5l20-20V220c0-5.5-4.5-10-10-10s-10 4.5-10 10v86.5zM272 379l-6.5-6.5v114L285 467v-33l-13-13zm-6.5-60.5V335l8.3-8.2zm-29-108.5c-5.5 0-10 4.5-10 10v285l13.5 7 6.5-6.5V220c0-5.5-4.5-10-10-10zM256 11c-51.9 0-94 42.1-94 94s42.1 94 94 94 94-42.1 94-94-42.1-94-94-94zm0 13c17.9 0 32.5 14.6 32.5 32.5S273.9 89 256 89s-32.5-14.6-32.5-32.5S238.1 24 256 24zm64 124c0 5.5-4.5 10-10 10H202c-5.5 0-10-4.5-10-10v-33c0-5.5 4.5-10 10-10h108c5.5 0 10 4.5 10 10v33z" fill="#bbb"/></svg>