<svg version="1.1" xmlns="http://www.w3.org/2000/svg" x="0" y="0" viewBox="0 0 512 512" xml:space="preserve"><style type="text/css">.st1{fill:#ffa000}.st2{fill:#36434f}.st3{fill:#122a3a}</style><path d="M465.4 170.8c-.9-.6-2-.8-3.1-.8H49.7c-1.1 0-2.1.3-3.1.8l-19.2 11.4c-1.8 1.1-2.9 3-2.9 5.2V210h463v-22.6c0-2.1-1.1-4.1-2.9-5.2l-19.2-11.4z" fill="#eec646"/><path class="st1" d="M506 210H346.5l-5.9-23.5c-.7-2.7-3.1-4.5-5.8-4.5h-29.3c-3.3 0-6 2.7-6 6v22h-87v-22c0-3.3-2.7-6-6-6h-29.3c-2.8 0-5.2 1.9-5.8 4.5l-5.9 23.5H6c-3.3 0-6 2.7-6 6v27h512v-27c0-3.3-2.7-6-6-6z"/><path class="st2" d="M191.5 136v34H204v-18c0-3.3 2.7-6 6-6h92c3.3 0 6 2.7 6 6v18h12.5v-34c0-6.6-5.4-12-12-12h-105c-6.6 0-12 5.4-12 12zM277 243H3.7l4.9 27.5c.3 1.4 1.5 2.5 3 2.5H18l10 104.1c.6 6.2 5.8 10.9 11.9 10.9h432.2c6.2 0 11.4-4.7 11.9-10.9L494 273h6.5c1.5 0 2.7-1 3-2.5l4.9-27.5H277z"/><path class="st2" d="M293.5 295h-75c-3.3 0-6-2.7-6-6v-88c0-3.3 2.7-6 6-6h75c3.3 0 6 2.7 6 6v88c0 3.3-2.7 6-6 6z"/><path class="st3" d="M232.5 252h47v10h-47z"/><path class="st3" d="M230.5 255h51v4h-51zm-8 10h67v6h-67zm0 9h67v6h-67zm0 9h67v6h-67z"/><path class="st3" d="M222.5 251h8v38h-8zm59 0h8v38h-8z"/><path class="st3" d="M299.5 243v46c0 3.3-2.7 6-6 6h-75c-3.3 0-6-2.7-6-6v-46h-4v46c0 5.5 4.5 10 10 10h75c5.5 0 10-4.5 10-10v-46h-4z"/><path class="st1" d="M77 193H56c-1.7 0-3-1.3-3-3v-20h27v20c0 1.7-1.3 3-3 3zm358 0h21c1.7 0 3-1.3 3-3v-20h-27v20c0 1.7 1.3 3 3 3z"/><path class="st3" d="M176.3 284l-1-4c-.9-3.5-4.1-6-7.7-6H18.1l.4 4h149c1.8 0 3.4 1.2 3.9 3l1 4c.9 3.5 4.1 6 7.7 6H211v-4h-30.8c-1.9 0-3.5-1.2-3.9-3zm159.4 0l1-4c.9-3.5 4.1-6 7.7-6h149.4l-.4 4h-149c-1.8 0-3.4 1.2-3.9 3l-1 4c-.9 3.5-4.1 6-7.7 6H301v-4h30.8c1.9 0 3.5-1.2 3.9-3z"/><path class="st3" d="M196.3 289h4v99h-4zm115.4 0h4v99h-4z"/></svg>