<svg xmlns="http://www.w3.org/2000/svg" viewBox="0 0 512 512" xml:space="preserve"><style>.st6{fill:#444;opacity:.15}</style><path fill="#e0ac7e" d="M256 268h-27l9 33h36l9-33z"/><ellipse cx="256" cy="403" rx="117" ry="109" fill="#a18267"/><path fill="#cc584c" d="M365 0H147L88 276h336z"/><path d="M159.8 341c-5.5 7.4-10 15.4-13.5 24h219.4c-3.4-8.6-8-16.6-13.5-24H159.8zM139 403c0 4.1.2 8.1.7 12h232.6c.5-3.9.7-7.9.7-12s-.2-8.1-.7-12H139.7c-.5 3.9-.7 7.9-.7 12zm213.2 62c5.5-7.4 10-15.4 13.5-24H146.3c3.4 8.6 8 16.6 13.5 24h192.4z" fill="#444" opacity=".5"/><path opacity=".5" fill="#fff" d="m312.6 0 31.7 276h48L327.9 0z"/><path class="st6" d="M373 403H139c0 60.2 52.4 109 117 109s117-48.8 117-109z"/><path class="st6" d="M152 453c19.5 35 58.7 59 104 59s84.5-24 104-59H152z"/><path class="st6" d="M175.4 482c21 18.6 49.4 30 80.6 30s59.6-11.4 80.6-30H175.4z"/><path class="st6" d="M147 0 88 276h143.2l5.3 19.5c-35.4 5.5-65.5 25.9-82.5 54.1-.6 1-1.1 1.9-1.7 2.9v.1c-1.7 2.9-3.2 6-4.5 9.1 0 .1-.1.2-.1.3-.4 1-.9 2-1.3 3-3.6 9.1-6 18.9-6.9 29-.1.9-.2 1.9-.2 2.8v.2c-.1.9-.1 1.7-.1 2.6v6.8c0 .9.1 1.7.1 2.6v.2c.1.9.1 1.9.2 2.8.9 10.1 3.3 19.8 6.9 29 .4 1 .8 2 1.3 3 0 .1.1.2.1.3 1.3 3 2.7 5.8 4.3 8.7.1.1.2.3.2.4v.1c.5.9 1 1.7 1.5 2.6.1.1.1.2.2.4 1.2 2 2.5 4 3.9 6 .1.1.1.2.2.3.7.9 1.3 1.8 2 2.7 0 .1.1.1.1.2.7 1 1.5 1.9 2.3 2.9.7.9 1.5 1.8 2.2 2.7.1.1.2.2.3.4 1.6 1.8 3.2 3.5 4.9 5.2l.3.3c.8.8 1.6 1.5 2.4 2.3l.2.2c.9.8 1.8 1.7 2.7 2.5.1 0 .1.1.2.1.8.7 1.7 1.5 2.5 2.2.1.1.3.2.4.4 1.5 1.2 3 2.4 4.5 3.5.1.1.3.2.4.3.3.2.5.4.8.6.2.1.3.2.5.4.1.1.2.1.3.2.2.2.4.3.6.5.5.3 1 .7 1.5 1 .1.1.2.1.3.2.1 0 .1.1.2.1.1.1.2.1.2.2.5.3.9.6 1.4.9l.9.6c.2.1.4.3.6.4.1.1.2.1.3.2.2.1.3.2.5.3l.9.6c.4.3.9.5 1.3.8.2.1.3.2.5.3.2.1.3.2.5.3.5.3.9.5 1.4.8.3.2.7.4 1 .6.5.2.9.5 1.4.7.4.2.7.4 1.1.6.4.2.7.4 1.1.6.2.1.4.2.5.3.3.1.5.3.8.4.4.2.9.4 1.4.6.3.2.6.3 1 .5.1 0 .2.1.3.1.4.2.8.4 1.2.5.4.2.8.3 1.2.5.3.1.6.3.9.4.2.1.3.1.5.2.4.2.8.3 1.2.5.5.2.9.4 1.4.5.2.1.5.2.7.3.1 0 .2.1.3.1.1 0 .1 0 .2.1.5.2.9.3 1.4.5.4.2.8.3 1.3.4.5.2.9.3 1.4.5.4.1.9.3 1.3.4.5.1.9.3 1.4.4.1 0 .2.1.3.1.1 0 .1 0 .2.1.3.1.6.2.8.2.5.1.9.3 1.4.4l1.2.3c.2.1.4.1.6.2.3.1.6.2.9.2.5.1.9.2 1.4.3l1.2.3c.1 0 .2.1.4.1l1.2.3c.5.1.9.2 1.4.3.3.1.6.1.9.2.2 0 .5.1.7.1.4.1.7.1 1.1.2l1.5.3c.3.1.7.1 1 .2.1 0 .2 0 .4.1.5.1 1 .2 1.5.2.4.1.9.1 1.3.2.2 0 .4.1.6.1.3 0 .5.1.8.1h.1c.4.1.9.1 1.3.2.5.1 1 .1 1.5.2.3 0 .5.1.8.1.2 0 .4 0 .6.1.5.1 1.1.1 1.6.1.4 0 .9.1 1.3.1h.8c.3 0 .6 0 .9.1.4 0 .8 0 1.2.1h6V0H147z"/></svg>