<svg version="1.1" xmlns="http://www.w3.org/2000/svg" x="0" y="0" viewBox="0 0 512 512" xml:space="preserve"><style type="text/css">.st2{opacity:.15;fill:#444;enable-background:new}</style><path d="M450.6 422.3c-8.7 10.1-18.1 19.6-28.3 28.3l-78.2-78.2c10.7-8.1 20.2-17.6 28.3-28.3l78.2 78.2zm-311-78.2l-78.2 78.2c8.7 10.1 18.1 19.6 28.3 28.3l78.2-78.2c-10.7-8.1-20.2-17.6-28.3-28.3zm232.8-176.2l78.2-78.2c-8.7-10.1-18.1-19.6-28.3-28.3l-78.2 78.2c10.7 8.1 20.2 17.6 28.3 28.3zm-232.8 0c8.1-10.7 17.6-20.2 28.3-28.3L89.7 61.4c-10.1 8.7-19.6 18.1-28.3 28.3l78.2 78.2z" fill="#ddd"/><path d="M450.6 89.7l-78.2 78.2c18.6 24.5 29.6 55 29.6 88.1s-11 63.6-29.6 88.1l78.2 78.2C488.9 377.6 512 319.5 512 256s-23.1-121.6-61.4-166.3zM494.5 232c3 0 5.5 2.5 5.5 5.5s-2.5 5.5-5.5 5.5-5.5-2.5-5.5-5.5 2.5-5.5 5.5-5.5zm0 48c-3 0-5.5-2.5-5.5-5.5s2.5-5.5 5.5-5.5 5.5 2.5 5.5 5.5-2.5 5.5-5.5 5.5zM167.9 139.6c24.5-18.6 55-29.6 88.1-29.6s63.6 11 88.1 29.6l78.2-78.2C377.6 23.1 319.5 0 256 0S134.4 23.1 89.7 61.4l78.2 78.2zM274.5 12c3 0 5.5 2.5 5.5 5.5s-2.5 5.5-5.5 5.5-5.5-2.5-5.5-5.5 2.5-5.5 5.5-5.5zm-37 0c3 0 5.5 2.5 5.5 5.5s-2.5 5.5-5.5 5.5-5.5-2.5-5.5-5.5 2.5-5.5 5.5-5.5zm106.6 360.4C319.6 391 289.1 402 256 402s-63.6-11-88.1-29.6l-78.2 78.2C134.4 488.9 192.5 512 256 512s121.6-23.1 166.3-61.4l-78.2-78.2zM237.5 500c-3 0-5.5-2.5-5.5-5.5s2.5-5.5 5.5-5.5 5.5 2.5 5.5 5.5-2.5 5.5-5.5 5.5zm37 0c-3 0-5.5-2.5-5.5-5.5s2.5-5.5 5.5-5.5 5.5 2.5 5.5 5.5-2.5 5.5-5.5 5.5zM139.6 344.1C121 319.6 110 289.1 110 256s11-63.6 29.6-88.1L61.4 89.7C23.1 134.4 0 192.5 0 256s23.1 121.6 61.4 166.3l78.2-78.2zM17.5 232c3 0 5.5 2.5 5.5 5.5s-2.5 5.5-5.5 5.5-5.5-2.5-5.5-5.5 2.5-5.5 5.5-5.5zm0 48c-3 0-5.5-2.5-5.5-5.5s2.5-5.5 5.5-5.5 5.5 2.5 5.5 5.5-2.5 5.5-5.5 5.5z" fill="#cc584c"/><path class="st2" d="M25 218H2.8C1 230.4 0 243.1 0 256s1 25.6 2.8 38H25c1.7 0 3-1.3 3-3v-70c0-1.7-1.3-3-3-3zm-7.5 62c-3 0-5.5-2.5-5.5-5.5s2.5-5.5 5.5-5.5 5.5 2.5 5.5 5.5-2.5 5.5-5.5 5.5zm0-37c-3 0-5.5-2.5-5.5-5.5s2.5-5.5 5.5-5.5 5.5 2.5 5.5 5.5-2.5 5.5-5.5 5.5zM218 2.8V25c0 1.7 1.3 3 3 3h70c1.7 0 3-1.3 3-3V2.8C281.6 1 268.9 0 256 0s-25.6 1-38 2.8zM237.5 23c-3 0-5.5-2.5-5.5-5.5s2.5-5.5 5.5-5.5 5.5 2.5 5.5 5.5-2.5 5.5-5.5 5.5zm37-11c3 0 5.5 2.5 5.5 5.5s-2.5 5.5-5.5 5.5-5.5-2.5-5.5-5.5 2.5-5.5 5.5-5.5zM291 484h-70c-1.7 0-3 1.3-3 3v22.2c12.4 1.8 25.1 2.8 38 2.8s25.6-1 38-2.8V487c0-1.7-1.3-3-3-3zm-53.5 16c-3 0-5.5-2.5-5.5-5.5s2.5-5.5 5.5-5.5 5.5 2.5 5.5 5.5-2.5 5.5-5.5 5.5zm37 0c-3 0-5.5-2.5-5.5-5.5s2.5-5.5 5.5-5.5 5.5 2.5 5.5 5.5-2.5 5.5-5.5 5.5zm234.7-282H487c-1.7 0-3 1.3-3 3v70c0 1.7 1.3 3 3 3h22.2c1.8-12.4 2.8-25.1 2.8-38s-1-25.6-2.8-38zm-14.7 62c-3 0-5.5-2.5-5.5-5.5s2.5-5.5 5.5-5.5 5.5 2.5 5.5 5.5-2.5 5.5-5.5 5.5zm0-37c-3 0-5.5-2.5-5.5-5.5s2.5-5.5 5.5-5.5 5.5 2.5 5.5 5.5-2.5 5.5-5.5 5.5zM256 76c-99.4 0-180 80.6-180 180s80.6 180 180 180 180-80.6 180-180S355.4 76 256 76zm0 326c-80.6 0-146-65.4-146-146s65.4-146 146-146 146 65.4 146 146-65.4 146-146 146z"/><path class="st2" d="M256 0C114.6 0 0 114.6 0 256s114.6 256 256 256 256-114.6 256-256S397.4 0 256 0zm238.5 232c3 0 5.5 2.5 5.5 5.5s-2.5 5.5-5.5 5.5-5.5-2.5-5.5-5.5 2.5-5.5 5.5-5.5zm-220-220c3 0 5.5 2.5 5.5 5.5s-2.5 5.5-5.5 5.5-5.5-2.5-5.5-5.5 2.5-5.5 5.5-5.5zm-37 0c3 0 5.5 2.5 5.5 5.5s-2.5 5.5-5.5 5.5-5.5-2.5-5.5-5.5 2.5-5.5 5.5-5.5zm-220 268c-3 0-5.5-2.5-5.5-5.5s2.5-5.5 5.5-5.5 5.5 2.5 5.5 5.5-2.5 5.5-5.5 5.5zm0-37c-3 0-5.5-2.5-5.5-5.5s2.5-5.5 5.5-5.5 5.5 2.5 5.5 5.5-2.5 5.5-5.5 5.5zm220 257c-3 0-5.5-2.5-5.5-5.5s2.5-5.5 5.5-5.5 5.5 2.5 5.5 5.5-2.5 5.5-5.5 5.5zm37 0c-3 0-5.5-2.5-5.5-5.5s2.5-5.5 5.5-5.5 5.5 2.5 5.5 5.5-2.5 5.5-5.5 5.5zM256 479c-123.2 0-223-99.8-223-223S132.8 33 256 33s223 99.8 223 223-99.8 223-223 223zm238.5-199c-3 0-5.5-2.5-5.5-5.5s2.5-5.5 5.5-5.5 5.5 2.5 5.5 5.5-2.5 5.5-5.5 5.5z"/></svg>