<svg xmlns="http://www.w3.org/2000/svg" viewBox="0 0 512 512" xml:space="preserve"><style>.st2{fill:#2e86b7}</style><path d="M358.5 260.5h-16v-70c0-50.2-41-91-91.5-91v-16c59.3 0 107.5 48 107.5 107v70z" fill="#bbb"/><path d="M265 488h-19v-8c0-1.1.9-2 2-2h15c1.1 0 2 .9 2 2v8zm72-235h27v235h-27z" fill="#36434f"/><path class="st2" d="M436 512H208v-20c0-4.4 3.6-8 8-8h212c4.4 0 8 3.6 8 8v20z"/><circle cx="148.5" cy="164" r="34.5" fill="#ffdd7a"/><path class="st2" d="m213 236.5 53.1-66.5c1.3-1.6 1.1-3.9-.3-5.3l-5.2-5.2c-16.4-16.4-16.4-43 0-59.4l51.9-51.9c-6-9.3-13.2-18.2-21.5-26.6C282.7 13.2 273.7 6 264.4 0l-51.9 51.9c-16.4 16.4-43 16.4-59.4 0l-5.2-5.2c-1.4-1.4-3.7-1.6-5.3-.3L76 99.5c14.9 26.5 34.9 53 59.4 77.6s51.1 44.6 77.6 59.4z"/><path d="m264.4 0-51.9 51.9c-16.4 16.4-43 16.4-59.4 0l-5.2-5.2c-1.4-1.4-3.7-1.6-5.3-.3L76 99.5c14.9 26.5 34.9 53 59.4 77.6L291 21.5C282.7 13.2 273.7 6 264.4 0zm5.6 484h18v28h-18z" opacity=".15" fill="#444"/></svg>