<svg version="1.1" xmlns="http://www.w3.org/2000/svg" x="0" y="0" viewBox="0 0 512 512" xml:space="preserve"><linearGradient id="a" gradientUnits="userSpaceOnUse" x1="44.687" y1="255.957" x2="467.5" y2="255.957"><stop offset="0" stop-color="#fdb05d"/><stop offset=".994" stop-color="#ee4c8e"/></linearGradient><path d="M200.3 63v350.2c-17.4-15.7-47.8-23.1-80.4-17.4-46.8 8.2-80.2 40.5-74.6 72s48 50.4 94.8 42.2c42.8-7.5 74.4-35.2 75.2-64h.1V236.5l237-55.9v169.6c-17.4-15.7-47.8-23.1-80.4-17.4-46.8 8.2-80.2 40.5-74.6 72 5.6 31.5 48 50.4 94.8 42.2 42.8-7.5 74.4-35.2 75.2-64h.1V0L200.3 63zm252 45.6l-237 55.9v-33l237-55.9v33z" fill="url(#a)"/></svg>