<svg version="1.1" xmlns="http://www.w3.org/2000/svg" x="0" y="0" viewBox="0 0 512 512" xml:space="preserve"><style type="text/css">.st0{fill:#ddd}.st2{fill:#bbb}.st3{fill:#36434f}</style><path class="st0" d="M512 500c0 6.6-5.4 12-12 12H12c-6.6 0-12-5.4-12-12V12C0 5.4 5.4 0 12 0h488c6.6 0 12 5.4 12 12v488z"/><path d="M432.5 417.5h-353c-3.6 0-6.5-2.9-6.5-6.5V101c0-3.6 2.9-6.5 6.5-6.5h353c3.6 0 6.5 2.9 6.5 6.5v310c0 3.6-2.9 6.5-6.5 6.5zm-353-322c-3 0-5.5 2.5-5.5 5.5v310c0 3 2.5 5.5 5.5 5.5h353c3 0 5.5-2.5 5.5-5.5V101c0-3-2.5-5.5-5.5-5.5h-353z" fill="#999"/><circle class="st2" cx="256" cy="256" r="122.5"/><path class="st2" d="M256 133.5c67.7 0 122.5 54.8 122.5 122.5S323.7 378.5 256 378.5 133.5 323.7 133.5 256 188.3 133.5 256 133.5m0-4c-33.8 0-65.6 13.2-89.4 37.1s-37.1 55.7-37.1 89.4 13.2 65.6 37.1 89.4 55.7 37.1 89.4 37.1 65.6-13.2 89.4-37.1 37.1-55.7 37.1-89.4-13.2-65.6-37.1-89.4-55.6-37.1-89.4-37.1z"/><path class="st3" d="M217.5 256c0 9.1-7.4 16.5-16.5 16.5s-16.5-7.4-16.5-16.5 7.4-16.5 16.5-16.5 16.5 7.4 16.5 16.5zm93.5-16.5c-9.1 0-16.5 7.4-16.5 16.5s7.4 16.5 16.5 16.5 16.5-7.4 16.5-16.5-7.4-16.5-16.5-16.5z"/><circle class="st0" cx="256" cy="256" r="16.5"/><path class="st0" d="M359 274h18.2c-2.6 17.6-8.9 34-18.2 48.3V274zm0-36h18.2c-2.6-17.6-8.9-34-18.2-48.3V238zm-206 84.3V274h-18.2c2.6 17.6 8.9 34 18.2 48.3zM134.8 238H153v-48.3c-9.3 14.3-15.6 30.7-18.2 48.3z"/><path class="st3" d="M236.5 349h39v27.9c-6.4 1-12.9 1.6-19.5 1.6s-13.1-.5-19.5-1.6V349zM256 133.5c-6.6 0-13.1.5-19.5 1.6V163h39v-27.9c-6.4-1.1-12.9-1.6-19.5-1.6z"/><path class="st0" d="M264 170h-16v-25h16v25zm-16 197h16v-25h-16v25z"/><path d="M12 0C5.4 0 0 5.4 0 12v488c0 6.6 5.4 12 12 12h244V0H12z" opacity=".15" fill="#444"/></svg>