<svg version="1.1" xmlns="http://www.w3.org/2000/svg" x="0" y="0" viewBox="0 0 512 512" style="enable-background:new 0 0 512 512" xml:space="preserve"><path d="M239.7 266.9c0 128.1 7.5 205.2 12.3 241.6.6 4.7 7.4 4.7 8 0 4.8-36.5 12.3-113.6 12.3-241.6 0-34.8-.6-64.6-1.5-89.9h-29.7c-.8 25.3-1.4 55-1.4 89.9z" style="fill:#ffcc80"/><path d="M254.6 0s-13.2 13.6-14.9 36.3c-1.3 18 5.9 33.7 9 39.4.8 1.5 1.3 2.3 1.3 2.3h12.4s.4-.8.9-2.3C265.5 69.8 271 54 271 42c0-15-16.4-42-16.4-42z" style="fill:#a18267"/><path d="M246.8 72c.7 1.5 1.3 2.8 1.9 3.8.8 1.5 1.3 2.3 1.3 2.3h12.4s.4-.8.9-2.3c.4-1 .8-2.3 1.4-3.8h-17.9z" style="opacity:.3;fill:#444"/><path d="M263.3 75.7h-14.6c-2.8 21-5.8 53.2-7.5 101.3v1h29.7v-1c-1.8-48.1-4.8-80.3-7.6-101.3z" style="fill:#36434f"/><g style="opacity:.3"><path d="M270.8 174.9c-.1-1.4-.1-2.8-.2-4.2h-29.2c-.1 1.4-.1 2.8-.2 4.2h29.6zm-29.1-11.1c-.1 1.4-.1 2.8-.2 4.2h29c-.1-1.4-.1-2.8-.2-4.2h-28.6z" style="fill:#fff"/></g></svg>