<svg xmlns="http://www.w3.org/2000/svg" viewBox="0 0 512 512" style="enable-background:new 0 0 512 512" xml:space="preserve"><path d="M217.2 47.8c-2.9-13.5 1.2-27.7 11.3-37.1C235.7 4.1 245.4 0 256 0s20.3 4.1 27.5 10.8c10.1 9.4 14.2 23.6 11.3 37.1-2 9.1-5.3 26.1-7.9 46.2l-3.5 1.7h-54.9L225 94c-2.5-20.1-5.9-37-7.8-46.2zm102.6 231.9c-.6-1.8-1.2-3.6-1.8-5.3-1.9-5.3-4.1-10.4-6.4-15.2-8.9-19.9-22.1-50.5-26.5-85.2l-4.9-1.8h-48L227 174c-4.3 34.7-17.6 65.3-26.5 85.2-1.6 3.2-3.1 6.6-4.5 10-1.4 3.4-2.6 6.9-3.8 10.5-6.5 19.9-10.2 43-10.2 67.8 0 54.9 22.8 129.9 48 164.5h52c25.3-34.6 48-109.6 48-164.5 0-24.7-3.7-47.9-10.2-67.8zm-40-155.3h-47.6L228 126c.5 8.6.7 17.4.5 26l4.4 1.5h46l4.4-1.5c-.2-8.6 0-17.4.5-26l-4-1.6z" style="fill:#ddd"/><path d="M284 126h-56c-.6-11.1-1.7-21.9-3-32h62c-1.3 10.1-2.4 20.9-3 32zm0 38c-.3-4-.5-8-.5-12h-54.9c-.1 4-.3 8-.5 12-.2 3.4-.6 6.7-1 10h58c-.5-3.3-.9-6.6-1.1-10z" style="fill:#cc584c"/><path d="M199.9 448c8.4 25.7 19 48.8 30.2 64h52c11.1-15.2 21.7-38.3 30.2-64H199.9z" style="opacity:.15;fill:#444"/></svg>