<svg version="1.1" xmlns="http://www.w3.org/2000/svg" x="0" y="0" viewBox="0 0 512 512" xml:space="preserve"><style type="text/css">.st2{fill:#444}</style><path fill="#4caf50" d="M33.5 0h445v512h-445z"/><path class="st2" d="M206 169h100v14H206zm-65.5 105h231v5h-231zm0 17h231v5h-231zm0-68h231v5h-231zm0-19h16v9h-16zm0 34H167v9h-26.5zm125 0H293v9h-27.5zm-2.5 17h30v9h-30zm-96.5-49h205v5h-205zm89 39H177v-5h78.5v5zm47.5-5v5h68.5v-5H303zm-50 22H140.5v-5H253v5zm50-5v5h68.5v-5H303z" opacity=".7"/><path class="st2" d="M33.5 115h4v31h-4zm0 251h4v31h-4z" opacity=".5"/></svg>