<svg version="1.1" xmlns="http://www.w3.org/2000/svg" x="0" y="0" viewBox="0 0 512 512" xml:space="preserve"><style type="text/css">.st0{fill:#36434f}</style><path class="st0" d="M215 295h19v2h-19z"/><path class="st0" d="M214 304c-1.1 0-2-.9-2-2v-12c0-1.1.9-2 2-2s2 .9 2 2v12c0 1.1-.9 2-2 2z"/><path d="M278 133c-4-19-8-72-8-91V0h-28v42c0 19-4 72-8 91s-17 45-17 66 18 38 18 38h42s18-17 18-38-13-47-17-66z" fill="#79b1d1"/><path class="st0" d="M244.5 218h23v20h-23z"/><path d="M244.5 213s1.5-71 7.5-70 13.3 70 13.3 70h-20.8z" fill="#f4f4f4"/><path class="st0" d="M235 236h42v27h-42z"/><path d="M324 368h-2v-20c0-13.3-10.7-24-24-24 0 0-19-23-19-28s5.5-20.5 5.5-20.5h1.5c3.3 0 6-2.7 6-6s-2.7-6-6-6h-2.5v-8l-2.5-5.8c1.3-.6 2.2-2.3 2.2-4.2 0-2.5-1.5-4.5-3.4-4.5s-3.4 2-3.4 4.5c0 1.9.8 3.4 2 4.1l-2.5 5.9h-.1l-4.7-5.9c1.6-.7 2.7-2.3 2.7-4.1 0-2.5-2-4.5-4.5-4.5s-4.5 2-4.5 4.5c0 1.8 1 3.3 2.6 4l-4.8 6-4.7-5.9c1.6-.7 2.7-2.3 2.7-4.1 0-2.5-2-4.5-4.5-4.5s-4.5 2-4.5 4.5c0 1.8 1 3.3 2.6 4l-4.8 6-4.7-5.9c1.6-.7 2.7-2.3 2.7-4.1 0-2.5-2-4.5-4.5-4.5s-4.5 2-4.5 4.5c0 1.8 1 3.3 2.6 4l-4.8 6h-.1l-2.5-5.8c1.2-.7 2.1-2.3 2.1-4.2 0-2.5-1.5-4.5-3.4-4.5s-3.4 2-3.4 4.5c0 1.9.9 3.5 2.1 4.2l-2.5 5.8v8H226c-3.3 0-6 2.7-6 6s2.7 6 6 6h1.5S233 291 233 296s-19 28-19 28c-13.3 0-24 10.7-24 24v20h-2c-2.2 0-4 1.8-4 4v1c0 2.2 1.8 4 4 4h20.5v19c0 8.8 7.2 16 16 16h4v8c0 4.4 3.6 8 8 8h2.8l3.7 13c-1.7 0-3 1.3-3 3s1.3 3 3 3l-12 22h-4.5c-3.3 0-6 2.7-6 6v4H211c-4.4 0-8 3.6-8 8v9h-5.5c-4.4 0-8 3.6-8 8v8h133v-8c0-4.4-3.6-8-8-8H309v-9c0-4.4-3.6-8-8-8h-9.5v-4c0-3.3-2.7-6-6-6H281l-12-22c1.7 0 3-1.3 3-3s-1.3-3-3-3l3.7-13h2.8c4.4 0 8-3.6 8-8v-8h4c8.8 0 16-7.2 16-16v-19H324c2.2 0 4-1.8 4-4v-1c0-2.2-1.8-4-4-4zm-45.6-122.5c0-1.4.7-2.5 1.4-2.5.6 0 1.4 1.1 1.4 2.5s-.7 2.5-1.4 2.5-1.4-1.1-1.4-2.5zm-11.6 0c0-1.4 1.1-2.5 2.5-2.5 1.3 0 2.5 1.1 2.5 2.5s-1.1 2.5-2.5 2.5-2.5-1.1-2.5-2.5zm-13.2 0c0-1.4 1.1-2.5 2.5-2.5s2.5 1.1 2.5 2.5-1.1 2.5-2.5 2.5-2.5-1.1-2.5-2.5zm-13.2 0c0-1.4 1.1-2.5 2.5-2.5s2.5 1.1 2.5 2.5-1.1 2.5-2.5 2.5-2.5-1.1-2.5-2.5zm-9.5 0c0-1.4.8-2.5 1.4-2.5.7 0 1.4 1.1 1.4 2.5s-.7 2.5-1.4 2.5-1.4-1.1-1.4-2.5zM252 200c-6-.2-7.5 13-7.5 13h20.8s-7.3-12.8-13.3-13z" fill="#eec646"/><path d="M244.5 213s1.5-10.1 7.5-10 13.3 10 13.3 10h-20.8z" fill="#cc584c"/><path d="M244.5 213s1.5-6.1 7.5-6 13.3 6 13.3 6h-20.8z" fill="#ad403b"/><path d="M269 447h-26c-1.7 0-3-1.3-3-3s1.3-3 3-3h26c1.7 0 3 1.3 3 3s-1.3 3-3 3zm17-171.5h-60c-3.3 0-6-2.7-6-6s2.7-6 6-6h60c3.3 0 6 2.7 6 6s-2.7 6-6 6zM324 377H188c-2.2 0-4-1.8-4-4v-1c0-2.2 1.8-4 4-4h136c2.2 0 4 1.8 4 4v1c0 2.2-1.8 4-4 4z" fill="#bfa146"/><path class="st0" d="M267.5 219h-23c-1.7 0-3-1.3-3-3s1.3-3 3-3h23c1.7 0 3 1.3 3 3s-1.3 3-3 3z"/><path d="M203 492h106v4H203zm17.5-17h71v4h-71zm-31 33h133v4h-133zm43.7-43-2.2 4h50l-2.2-4zm38.3-33 1.2-4h-33.4l1.2 4zm-43-20h55v4h-55zm-20-35h95v4h-95zm74.6-97.5c.8-2.4 1.4-4 1.4-4h-57s.6 1.6 1.4 4h54.2zM217.2 320c-1.9 2.4-3.2 4-3.2 4h84s-1.3-1.6-3.2-4h-77.6z" fill="#444" opacity=".15"/><path class="st0" d="M256 329.1c1.9 0 3.4 1.5 3.5 3.4v1.6l1.5-.7c.4-.2.8-.2 1.2-.2.3 0 .7.1 1 .2.7.3 1.3.8 1.6 1.5.3.7.4 1.5.1 2.2-.2.5-1.2 2.5-1.9 3.7-.5.9-.9 1.6-1.2 2.1-.1.1-.2.4-.5.8-.5.9-1.4 2.5-2.3 3.9-1.4 2-2 2.4-2.1 2.5h-1.8c-.1-.1-.8-.5-2.1-2.5-.9-1.4-1.8-2.9-2.3-3.9-.2-.4-.4-.6-.5-.8-.3-.5-.7-1.3-1.2-2.1-.6-1.2-1.7-3.1-1.9-3.7-.5-1.5.2-3.2 1.7-3.7.3-.1.6-.2 1-.2s.8.1 1.2.2l1.5.7v-1.6c.1-1.9 1.6-3.4 3.5-3.4m0-1.1c-2.5 0-4.5 2-4.6 4.5-.5-.2-1-.3-1.6-.3-.5 0-.9.1-1.4.2-2.1.8-3.1 3.1-2.4 5.1.3.7 1.5 3.1 1.9 3.8.5.9.9 1.6 1.3 2.2.5.9 4.1 7.6 5.8 7.6h1.9c1.7 0 5.2-6.8 5.8-7.6.3-.6.8-1.3 1.3-2.2.4-.8 1.7-3.1 1.9-3.8.4-1 .3-2.1-.1-3-.4-1-1.3-1.7-2.3-2.1-.4-.2-.9-.2-1.4-.2-.6 0-1.1.1-1.6.3 0-2.5-2-4.5-4.5-4.5zm1.8 4.6c0 1-1.3 10.4-1.8 10.4s-1.8-9.4-1.8-10.4.8-1.8 1.8-1.8c1-.1 1.8.8 1.8 1.8zm-8.4 2.3c-.7.2-1 1-.8 1.6.2.7 3.3 6.5 3.7 6.4s-1.1-6.6-1.3-7.3c-.2-.6-.9-.9-1.6-.7zm11.6.8c-.2.7-1.6 7.2-1.3 7.3.4.1 3.4-5.8 3.7-6.4s-.1-1.4-.8-1.6-1.4 0-1.6.7zm-5 23.1c1.1 0 2 .9 2 2s-.9 2-2 2-2-.9-2-2 .9-2 2-2m0-1.1c-1.7 0-3.1 1.4-3.1 3.1s1.4 3.1 3.1 3.1 3.1-1.4 3.1-3.1-1.4-3.1-3.1-3.1zm0 2.2c-.5 0-1 .4-1 1 0 .5.4 1 1 1 .5 0 1-.4 1-1s-.5-1-1-1zm-21.1-26.7c.3 0 .6.1.8.3.4.4.4 1.1 0 1.5-.2.2-.5.3-.8.3s-.6-.1-.8-.3c-.4-.4-.4-1.1 0-1.5.3-.2.5-.3.8-.3m0-1.1c-.6 0-1.1.2-1.5.6-.9.9-.9 2.2 0 3.1.4.4 1 .6 1.5.6s1.1-.2 1.5-.6c.9-.9.9-2.2 0-3.1-.4-.4-.9-.6-1.5-.6zm7.6 2.1c-1.3 1.7-1.9 3.9-1.7 6-.3 0-.6-.1-1-.1-1.9 0-3.6.6-5.1 1.7.2-.8.6-1.5 1.2-2.1.6-.6 1.4-1.1 2.3-1.2l.7-.1.1-.7c.2-.9.6-1.7 1.2-2.3.8-.6 1.6-1 2.3-1.2m1.2-1.3c-1.4 0-2.9.6-4 1.7-.8.8-1.3 1.8-1.5 2.9-1.1.2-2.1.7-2.9 1.5-1.5 1.5-2 3.6-1.5 5.5.3-.4.6-.8.9-1.1 1.4-1.4 3.3-2.2 5.2-2.2.8 0 1.6.1 2.4.4-.9-2.6-.3-5.5 1.8-7.6.4-.4.7-.7 1.1-.9-.5-.1-1-.2-1.5-.2zm1.7 27c2.3-.6 4-2.6 4.3-4.9.3-3.4-2.5-6.7-6.1-7.2-2-.2-4 .3-5.6 1.6-1.3 1-2.3 2.3-2.9 3.9l-.3.6c-.6 1.4-1.5 2.6-2.6 3.5-1.4 1.1-3.1 1.6-4.8 1.4-2.7-.4-5.4-2.9-5.1-6 .2-1.9 1.6-3.5 3.4-4 1.7-.3 3.2.5 3.8 1.8.3.6.3 1.3 0 1.9-.3.5-.9 1.1-1.5 1.1-.3 0-.5.2-.5.5s.2.5.5.5c1.1 0 2-.9 2.5-1.7v-.1c.4-.9.4-1.9 0-2.8-.8-1.8-2.9-2.8-5-2.4-2.3.6-4 2.6-4.2 4.9-.3 3.4 2.5 6.7 6.1 7.2 2 .2 4-.3 5.6-1.6 1.3-1 2.3-2.3 2.9-3.9l.3-.6c.6-1.4 1.5-2.6 2.6-3.5 1.4-1.1 3.1-1.6 4.8-1.4 2.7.4 5.4 2.9 5.1 6-.2 1.9-1.6 3.5-3.4 4-1.7.3-3.2-.5-3.8-1.8-.3-.6-.3-1.3 0-1.9.3-.5.9-1.1 1.5-1.1.3 0 .5-.2.5-.5s-.2-.5-.5-.5c-1.1 0-2 .9-2.5 1.7v.1c-.4.9-.4 1.9 0 2.8.7 1.6 2.3 2.5 4.1 2.5.2 0 .5 0 .8-.1zm-.7-4.9c-.5 0-1 .4-1 1 0 .5.4 1 1 1 .5 0 1-.4 1-1-.1-.6-.5-1-1-1zm-18.7-4.2c-.5 0-1 .4-1 1 0 .5.4 1 1 1 .5 0 1-.4 1-1s-.5-1-1-1zm28.4 5.4v-3.4c0-.3-.2-.5-.5-.5s-.5.2-.5.5v3.4c0 .3.2.5.5.5s.5-.2.5-.5zm2.1 0v-3.4c0-.3-.2-.5-.5-.5s-.5.2-.5.5v3.4c0 .3.2.5.5.5s.5-.2.5-.5zm2.2 0v-3.4c0-.3-.2-.5-.5-.5s-.5.2-.5.5v3.4c0 .3.2.5.5.5s.5-.2.5-.5zm18.4-23c.3 0 .6.1.8.3.4.4.4 1.1 0 1.5-.2.2-.5.3-.8.3s-.6-.1-.8-.3-.3-.5-.3-.8.1-.6.3-.8.5-.2.8-.2m0-1.1c-.6 0-1.1.2-1.5.6-.9.9-.9 2.2 0 3.1.4.4 1 .6 1.5.6s1.1-.2 1.5-.6c.9-.9.9-2.2 0-3.1-.4-.4-1-.6-1.5-.6zm-7.6 2.1c.8.2 1.5.6 2.1 1.2s1.1 1.4 1.2 2.3l.1.7.7.1c.9.2 1.7.6 2.3 1.2.6.6 1 1.3 1.2 2.1-1.5-1.1-3.2-1.7-5.1-1.7-.3 0-.6 0-1 .1.4-2.1-.2-4.3-1.5-6m-1.2-1.3c-.5 0-1 .1-1.5.2.4.3.8.6 1.1.9 2.1 2.1 2.6 5 1.8 7.6.8-.3 1.6-.4 2.4-.4 1.9 0 3.8.7 5.2 2.2.4.4.7.7.9 1.1.5-1.9 0-4-1.5-5.5-.8-.8-1.8-1.3-2.9-1.5-.2-1.1-.7-2.1-1.5-2.9-1.1-1.1-2.5-1.7-4-1.7zm3.3 24.6c.4-.9.4-1.9 0-2.8v-.1c-.5-.8-1.3-1.7-2.5-1.7-.3 0-.5.2-.5.5s.2.5.5.5c.7 0 1.2.6 1.5 1.1.2.6.2 1.3 0 1.9-.6 1.4-2.2 2.1-3.8 1.8-1.8-.5-3.2-2.1-3.4-4-.3-3.1 2.4-5.6 5.1-6 1.7-.2 3.4.3 4.8 1.4 1.1.9 2 2.1 2.6 3.5l.3.6c.7 1.6 1.7 2.9 2.9 3.9 1.7 1.3 3.6 1.9 5.6 1.6 3.6-.5 6.4-3.8 6.1-7.2-.2-2.4-1.9-4.4-4.2-4.9-2.2-.4-4.2.6-5 2.4-.4.9-.4 1.9 0 2.8v.1c.5.8 1.3 1.7 2.5 1.7.3 0 .5-.2.5-.5s-.2-.5-.5-.5c-.7 0-1.2-.6-1.5-1.1-.2-.6-.2-1.3 0-1.9.6-1.4 2.2-2.1 3.8-1.8 1.8.5 3.2 2.1 3.4 4 .3 3.1-2.4 5.6-5.1 6-1.7.2-3.4-.3-4.8-1.4-1.1-.9-2-2.1-2.6-3.5l-.3-.6c-.7-1.6-1.7-2.9-2.9-3.9-1.7-1.3-3.6-1.9-5.6-1.6-3.6.5-6.4 3.8-6.1 7.2.2 2.4 1.9 4.4 4.2 4.9.3.1.6.1.9.1 1.8 0 3.4-1 4.1-2.5zm-5.2-1.5c0 .5.4 1 1 1s1-.4 1-1c0-.5-.4-1-1-1s-1 .4-1 1zm18.6-4.3c0 .5.4 1 1 1 .5 0 1-.4 1-1 0-.5-.4-1-1-1-.5.1-1 .5-1 1zm27.5-19c-.4-.4-1-.6-1.5-.6-.6 0-1.1.2-1.5.6-.9.9-.9 2.2 0 3.1.4.4 1 .6 1.5.6.6 0 1.1-.2 1.5-.6.8-.9.8-2.2 0-3.1zm-.8 2.3c-.2.2-.5.3-.8.3s-.6-.1-.8-.3c-.4-.4-.4-1.1 0-1.5.2-.2.5-.3.8-.3s.6.1.8.3.3.5.3.8-.1.5-.3.7zm-8.5 24.9c2 .2 4-.3 5.6-1.6 1.3-1 2.3-2.3 2.9-3.9l.3-.6c.6-1.4 1.5-2.6 2.6-3.5 1.4-1.1 3.1-1.6 4.8-1.4.9.1 1.7.5 2.5 1v-1.3c-.7-.4-1.5-.7-2.4-.8-2-.2-4 .3-5.6 1.6-1.3 1-2.3 2.3-2.9 3.9l-.3.6c-.6 1.4-1.5 2.6-2.6 3.5-1.4 1.1-3.1 1.6-4.8 1.4-2.7-.4-5.4-2.9-5.1-6 .2-1.9 1.6-3.5 3.4-4 1.7-.3 3.2.5 3.8 1.8.3.6.3 1.3 0 1.9-.3.5-.9 1.1-1.5 1.1-.3 0-.5.2-.5.5s.2.5.5.5c1.1 0 2-.9 2.5-1.7v-.1c.4-.9.4-1.9 0-2.8-.8-1.8-2.9-2.8-5-2.4-2.3.6-4 2.6-4.2 4.9-.4 3.7 2.4 7 6 7.4zm8.1-20.9c-1.5 1.5-2 3.6-1.5 5.5.3-.4.6-.8.9-1.1 1.4-1.4 3.3-2.2 5.2-2.2.8 0 1.6.1 2.4.4-.6-1.9-.5-4 .4-5.7-.2-.4-.4-.7-.7-1.1-1 1.6-1.4 3.5-1.2 5.4-.3 0-.6-.1-1-.1-1.9 0-3.6.6-5.1 1.7.2-.8.6-1.5 1.2-2.1s1.4-1.1 2.3-1.2l.7-.1.1-.7c.2-.9.6-1.7 1.2-2.3.4-.4.9-.7 1.3-.9l-.6-.9c-.5.3-1 .6-1.5 1-.8.8-1.3 1.8-1.5 2.9-.8.2-1.8.7-2.6 1.5zm-117.6 2.7c.8-.3 1.6-.4 2.4-.4 1.9 0 3.8.7 5.2 2.2.4.4.7.7.9 1.1.5-1.9 0-4-1.5-5.5-.8-.8-1.8-1.3-2.9-1.5-.2-1.1-.7-2.1-1.5-2.9-.4-.4-.9-.8-1.5-1l-.6.9c.5.2.9.5 1.3.9.6.6 1.1 1.4 1.2 2.3l.1.7.7.1c.9.2 1.7.6 2.3 1.2s1 1.3 1.2 2.1c-1.5-1.1-3.2-1.7-5.1-1.7-.3 0-.6 0-1 .1.2-1.9-.2-3.8-1.2-5.4-.2.4-.5.7-.7 1.1 1.2 1.7 1.3 3.8.7 5.7z"/><path class="st0" d="M301 351.7c0 .5.4 1 1 1 .5 0 1-.4 1-1 0-.5-.4-1-1-1-.5.1-1 .5-1 1zm-98.4-19c-.4-.4-1-.6-1.5-.6-.6 0-1.1.2-1.5.6-.9.9-.9 2.2 0 3.1.4.4 1 .6 1.5.6.6 0 1.1-.2 1.5-.6.9-.9.9-2.2 0-3.1zm-.7 2.3c-.2.2-.5.3-.8.3s-.6-.1-.8-.3-.3-.5-.3-.8.1-.6.3-.8.5-.3.8-.3.6.1.8.3c.4.5.4 1.2 0 1.6zm-11.3 24.9c.3.1.6.1.9.1 1.8 0 3.4-1 4.1-2.5.4-.9.4-1.9 0-2.8v-.1c-.5-.8-1.3-1.7-2.5-1.7-.3 0-.5.2-.5.5s.2.5.5.5c.7 0 1.2.6 1.5 1.1.2.6.2 1.3 0 1.9-.6 1.4-2.2 2.1-3.8 1.8-.3-.1-.5-.2-.8-.3v1.2c.2.2.3.3.6.3z"/><circle class="st0" cx="320.7" cy="356" r="1"/><path class="st0" d="M211 351.7c0-.5-.4-1-1-1-.5 0-1 .4-1 1 0 .5.4 1 1 1 .5 0 1-.4 1-1zm111 6.9c-.2.1-.5.2-.8.3-1.7.3-3.2-.5-3.8-1.8-.3-.6-.3-1.3 0-1.9.3-.5.9-1.1 1.5-1.1.3 0 .5-.2.5-.5s-.2-.5-.5-.5c-1.1 0-2 .9-2.5 1.7v.1c-.4.9-.4 1.9 0 2.8.7 1.6 2.3 2.5 4.1 2.5.3 0 .6 0 .9-.1.2 0 .3-.1.5-.2l.1-1.3z"/><path class="st0" d="M210.7 347.9c-2.2-.4-4.3.6-5.1 2.4-.4.9-.4 1.9 0 2.8v.1c.5.8 1.3 1.7 2.5 1.7.3 0 .5-.2.5-.5s-.2-.5-.5-.5c-.7 0-1.2-.6-1.5-1.1-.2-.6-.2-1.3 0-1.9.6-1.4 2.2-2.1 3.8-1.8 1.8.5 3.2 2.1 3.4 4 .3 3.1-2.4 5.6-5.1 6-1.7.2-3.4-.3-4.8-1.4-1.1-.9-2-2.1-2.6-3.5l-.3-.6c-.7-1.6-1.7-2.9-2.9-3.9-1.7-1.3-3.6-1.9-5.6-1.6-.8.1-1.6.4-2.4.8v1.3c.8-.5 1.6-.8 2.5-1 1.7-.2 3.4.3 4.8 1.4 1.1.9 2 2.1 2.6 3.5l.3.6c.7 1.6 1.7 2.9 2.9 3.9 1.7 1.3 3.6 1.9 5.6 1.6 3.6-.5 6.4-3.8 6.1-7.2-.3-2.6-2-4.6-4.2-5.1z"/><circle class="st0" cx="191.3" cy="356" r="1"/></svg>