<svg version="1.1" xmlns="http://www.w3.org/2000/svg" x="0" y="0" viewBox="0 0 512 512" xml:space="preserve"><path fill="#eec646" d="M0 224h512v64H0z"/><path d="M282.5 238.5h4V249h-4zm19-10.5h4v21h-4zm95 0h4v21h-4zm-76 10.5h4V249h-4zm-76 0h4V249h-4zm171 0h4V249h-4zm-76 0h4V249h-4zm95 0h4V249h-4zm-209 0h4V249h-4zm152 0h4V249h-4zm-19 0h4V249h-4zm-95 0h4V249h-4zm-209 0h4V249h-4zm38 0h4V249h-4zm-19 0h4V249h-4zm-38 0h4V249h-4zm-19-10.5h4v21h-4zm190 0h4v21h-4zm-38 10.5h4V249h-4zm19 0h4V249h-4zm-76-10.5h4v21h-4zm38 10.5h4V249h-4zm-19 0h4V249h-4zm361-10.5h4v21h-4zm-19 10.5h4V249h-4zm-19 0h4V249h-4z" fill="#f4f4f4"/></svg>