<svg version="1.1" xmlns="http://www.w3.org/2000/svg" x="0" y="0" viewBox="0 0 512 512" xml:space="preserve"><style type="text/css">.st0{fill:#36434f}.st1{fill:#a18267}.st2{opacity:.15;fill:#444}.st3{fill:#f4f4f4}</style><path class="st0" d="M266 10c12.1 0 22 9.9 22 22v43h-65V32c0-12.1 9.9-22 22-22h21m0-10h-21c-17.7 0-32 14.3-32 32v53h85V32c0-17.7-14.3-32-32-32z"/><path class="st1" d="M405 300H107V126c0-53 43-96 96-96h106c53 0 96 43 96 96v174z"/><path class="st0" d="M309 30H203c-45.1 0-82.9 31.1-93.2 73-.4 1.5.8 3 2.4 3 9.2-41.7 46.4-73 90.8-73h106c44.4 0 81.7 31.3 90.8 73 1.6 0 2.8-1.5 2.4-3-10.3-41.9-48.1-73-93.2-73z"/><path class="st2" d="M107 277h298v71H107z"/><path class="st1" d="M348 512H164c-35.3 0-64-28.7-64-64V296h312v152c0 35.3-28.7 64-64 64z"/><path class="st0" d="M239.8 23.3 236 30h18l-3.8-6.7c-2.3-4.1-8.1-4.1-10.4 0z"/><path class="st3" d="M242 35.5c-.1 0-.3 0-.4-.1-.8-.2-1.2-1.1-1-1.9l3-10c.2-.8 1.1-1.2 1.9-1 .8.2 1.2 1.1 1 1.9l-3 10c-.3.7-.9 1.1-1.5 1.1z"/><path class="st0" d="M242 57c-2.2 0-4-1.8-4-4V38c0-2.2 1.8-4 4-4s4 1.8 4 4v15c0 2.2-1.8 4-4 4zm30.2-33.7L276 30h-18l3.8-6.7c2.3-4.1 8.1-4.1 10.4 0z"/><path class="st3" d="M270 35.5c.1 0 .3 0 .4-.1.8-.2 1.2-1.1 1-1.9l-3-10c-.2-.8-1.1-1.2-1.9-1-.8.2-1.2 1.1-1 1.9l3 10c.3.7.9 1.1 1.5 1.1z"/><path class="st0" d="M270 57c2.2 0 4-1.8 4-4V38c0-2.2-1.8-4-4-4s-4 1.8-4 4v15c0 2.2 1.8 4 4 4zM163 364h-24c-4.4 0-8-3.6-8-8v-13c0-4.4 3.6-8 8-8h24c4.4 0 8 3.6 8 8v13c0 4.4-3.6 8-8 8zm210 0h-24c-4.4 0-8-3.6-8-8v-13c0-4.4 3.6-8 8-8h24c4.4 0 8 3.6 8 8v13c0 4.4-3.6 8-8 8z"/><path class="st2" d="m254 30-3.8-6.7c-2.3-4.1-8.2-4.1-10.5 0L236 30h-12.9c1-11.2 10.4-20 21.9-20h11V0h-11c-17 0-30.9 13.3-31.9 30H203c-1.3 0-2.5 0-3.8.1h-.6c-1.2.1-2.4.1-3.6.2-.2 0-.5 0-.7.1-1.2.1-2.4.2-3.6.4h-.3c-1.2.2-2.3.3-3.5.5-.2 0-.3.1-.5.1-1.2.2-2.3.4-3.5.7-.2 0-.4.1-.7.1-1.2.3-2.3.5-3.5.8-.2 0-.3.1-.5.1-1.1.3-2.3.6-3.4 1-.1 0-.2.1-.3.1-1.1.4-2.3.7-3.4 1.1-.2.1-.4.1-.6.2l-3.3 1.2c-.2.1-.3.1-.5.2-2.3.9-4.5 1.9-6.7 3-.1.1-.3.1-.4.2-1.1.5-2.1 1.1-3.1 1.7-.2.1-.3.2-.5.3-1.1.6-2.1 1.2-3.1 1.8 0 0-.1 0-.1.1-1 .6-2.1 1.3-3.1 2-.1 0-.1.1-.2.1l-3 2.1c-.1.1-.2.2-.4.3-1 .7-1.9 1.4-2.9 2.2-.1 0-.1.1-.2.1-2 1.6-3.9 3.2-5.7 4.9l-.2.2c-.9.8-1.8 1.7-2.6 2.6l-.2.2c-1.8 1.8-3.5 3.7-5.1 5.6l-.1.1c-.8 1-1.6 1.9-2.4 2.9 0 .1-.1.1-.1.2-2.3 3.1-4.5 6.3-6.5 9.6 0 .1-.1.1-.1.2-2 3.4-3.8 6.8-5.3 10.4v.1l-1.5 3.6c-1 2.5-1.8 5-2.6 7.6-.4 1.3-.7 2.6-1 3.8-1.8 7.4-2.8 15.1-2.8 23v170h-7v152c0 35.3 28.7 64 64 64h92V30H254z"/></svg>