<svg version="1.1" xmlns="http://www.w3.org/2000/svg" x="0" y="0" viewBox="0 0 512 512" xml:space="preserve"><path d="M256 0v60c33.4 0 64.8 13 88.4 36.6s36.6 55 36.6 88.4v327h60V185C441 82.8 358.2 0 256 0z" fill="#cc584c"/><path d="M71 185v327h60V185c0-33.4 13-64.8 36.6-88.4S222.6 60 256 60V0C153.8 0 71 82.8 71 185z" fill="#2e86b7"/><path d="M71 185v256l60-60V185c0-33.4 13-64.8 36.6-88.4S222.6 60 256 60s64.8 13 88.4 36.6c12.4 12.4 21.9 27 28.1 42.9l44.9-44.9C385.7 38.1 325.3 0 256 0 153.8 0 71 82.8 71 185z" opacity=".15" fill="#444"/></svg>