<svg version="1.1" xmlns="http://www.w3.org/2000/svg" x="0" y="0" viewBox="0 0 512 512" xml:space="preserve"><style type="text/css">.st0{opacity:.2;fill:#f4f4f4;enable-background:new}.st2{fill:#059dd2}.st3{opacity:.2}.st4{fill:#f4f4f4}.st6{fill:#ee3a24}.st7{fill:#0074ae}.st8{fill:#ff8327}</style><path class="st0" d="M124.5 443.1h50v6h-50v-6z"/><circle class="st0" cx="94" cy="439" r="9"/><path d="M400 105c0-5.5-4.5-10-10-10H171c-5.5 0-10 4.5-10 10v5c0 5.5 4.5 10 10 10h219c5.5 0 10-4.5 10-10v-5z" fill="#4a396d"/><path class="st2" d="M188 455c0 5.5-4.5 10-10 10h-57c-5.5 0-10-4.5-10-10V196c0-5.5 4.5-10 10-10h57c5.5 0 10 4.5 10 10v259z"/><g class="st3"><path class="st4" d="M174.5 386.7c0 1.1-.9 2-2 2h-46c-1.1 0-2-.9-2-2v-2c0-1.1.9-2 2-2h46c1.1 0 2 .9 2 2v2z"/></g><g class="st3"><path class="st4" d="M159.5 426.1c0 1.1-.9 2-2 2h-16c-1.1 0-2-.9-2-2v-21c0-1.1.9-2 2-2h16c1.1 0 2 .9 2 2v21z"/></g><g class="st3"><path class="st4" d="M152.6 220.1c-1.1 0-2 .9-2 2v22.8c0 1.1-.9 2-2 2H131c-1.1 0-2 .9-2 2V357c0 1.1.9 2 2 2h37c1.1 0 2-.9 2-2V222.1c0-1.1-.9-2-2-2h-15.4z"/></g><path d="M211 455c0 5.5-4.5 10-10 10h-3c-5.5 0-10-4.5-10-10V225c0-5.5 4.5-10 10-10h3c5.5 0 10 4.5 10 10v230z" fill="#aaa"/><path class="st0" d="M188 285.2h23v65h-23v-65z"/><path class="st6" d="M0 455c0 5.5 4.5 10 10 10h57c5.5 0 10-4.5 10-10V163c0-5.5-4.5-10-10-10H10c-5.5 0-10 4.5-10 10v292z"/><g class="st3"><path class="st4" d="M62 426.3c0 1.1-.9 2-2 2H17c-1.1 0-2-.9-2-2v-126c0-1.1.9-2 2-2h43c1.1 0 2 .9 2 2v126z"/></g><g class="st3"><path class="st4" d="M15 274.1c0-1.1.9-2 2-2h43c1.1 0 2 .9 2 2v6c0 1.1-.9 2-2 2H17c-1.1 0-2-.9-2-2v-6z"/></g><path class="st2" d="M482 455c0 5.5-3.8 10-8.5 10s-8.5-4.5-8.5-10V240c0-5.5 3.8-10 8.5-10s8.5 4.5 8.5 10v215z"/><path class="st0" d="M465 297.4h17v110h-17v-110z"/><path class="st7" d="M412 85c0 5.5-4.5 10-10 10H164c-5.5 0-10-4.5-10-10V57c0-5.5 4.5-10 10-10h238c5.5 0 10 4.5 10 10v28z"/><g class="st3"><path class="st4" d="M225.1 78c0 1.1-.9 2-2 2h-54c-1.1 0-2-.9-2-2V64c0-1.1.9-2 2-2h54c1.1 0 2 .9 2 2v14z"/></g><g class="st3"><path class="st4" d="M373.9 78c0 1.1-.9 2-2 2h-124c-1.1 0-2-.9-2-2V64c0-1.1.9-2 2-2h124c1.1 0 2 .9 2 2v14z"/></g><g class="st3"><path class="st4" d="M391.5 78c0 1.1.9 2 2 2h4c1.1 0 2-.9 2-2V64c0-1.1-.9-2-2-2h-4c-1.1 0-2 .9-2 2v14z"/></g><path class="st8" d="M385 455c0 5.5 4.5 10 10 10h17c5.5 0 10-4.5 10-10V220c0-5.5-4.5-10-10-10h-17c-5.5 0-10 4.5-10 10v235z"/><g class="st3"><path class="st4" d="M413.5 312c0 1.1-.9 2-2 2h-16c-1.1 0-2-.9-2-2v-54c0-1.1.9-2 2-2h16c1.1 0 2 .9 2 2v54z"/></g><g class="st3"><path class="st4" d="M413.5 414.6c0 1.1-.9 2-2 2h-16c-1.1 0-2-.9-2-2v-66c0-1.1.9-2 2-2h16c1.1 0 2 .9 2 2v66z"/></g><path d="M422 455c0 5.5 4.5 10 10 10h23c5.5 0 10-4.5 10-10V196c0-5.5-4.5-10-10-10h-23c-5.5 0-10 4.5-10 10v259z" fill="#914a21"/><path class="st0" d="M422 414.8h43v18h-43v-18z"/><g class="st3"><path class="st4" d="M456 393.1c0 1.1-.9 2-2 2h-21c-1.1 0-2-.9-2-2v-176c0-1.1.9-2 2-2h21c1.1 0 2 .9 2 2v176z"/></g><path class="st8" d="M482 455c0 5.5 4.5 10 10 10h10c5.5 0 10-4.5 10-10V244c0-5.5-4.5-10-10-10h-10c-5.5 0-10 4.5-10 10v211z"/><g class="st3"><path class="st4" d="M487 452.6c0 1.1.9 2 2 2h16c1.1 0 2-.9 2-2v-78c0-1.1-.9-2-2-2h-16c-1.1 0-2 .9-2 2v78z"/></g><g class="st3"><path class="st4" d="M487 310.6c0 1.1.9 2 2 2h16c1.1 0 2-.9 2-2v-62c0-1.1-.9-2-2-2h-16c-1.1 0-2 .9-2 2v62z"/></g><path d="M279 455c0 5.5-4.5 10-10 10h-48c-5.5 0-10-4.5-10-10V214c0-5.5 4.5-10 10-10h48c5.5 0 10 4.5 10 10v241z" fill="#c64757"/><g class="st3"><path class="st4" d="M265 300.2c0 1.1-.9 2-2 2h-36c-1.1 0-2-.9-2-2v-69c0-1.1.9-2 2-2h36c1.1 0 2 .9 2 2v69z"/></g><g class="st3"><path class="st4" d="M225 412c0 1.1.9 2 2 2h36c1.1 0 2-.9 2-2v-86c0-1.1-.9-2-2-2h-36c-1.1 0-2 .9-2 2v86z"/></g><path d="M322 455c0 5.5-4.5 10-10 10h-23c-5.5 0-10-4.5-10-10V228c0-5.5 4.5-10 10-10h23c5.5 0 10 4.5 10 10v227z" fill="#006278"/><g class="st3"><path class="st4" d="M314 307.6c0 1.1-.9 2-2 2h-23c-1.1 0-2-.9-2-2v-68c0-1.1.9-2 2-2h23c1.1 0 2 .9 2 2v68z"/></g><g class="st3"><path class="st4" d="M287 358.4c0 1.1.9 2 2 2h23c1.1 0 2-.9 2-2v-26c0-1.1-.9-2-2-2h-23c-1.1 0-2 .9-2 2v26z"/></g><g class="st3"><path class="st4" d="M287 383.9c0-1.1.9-2 2-2h23c1.1 0 2 .9 2 2v60c0 1.1-.9 2-2 2h-23c-1.1 0-2-.9-2-2v-60z"/></g><path class="st6" d="M385 455c0 5.5-4.5 10-10 10h-43c-5.5 0-10-4.5-10-10V205c0-5.5 4.5-10 10-10h43c5.5 0 10 4.5 10 10v250z"/><g class="st3"><path class="st4" d="M336 322.4c0 1.1.9 2 2 2h31c1.1 0 2-.9 2-2v-102c0-1.1-.9-2-2-2h-31c-1.1 0-2 .9-2 2v102z"/></g><g class="st3"><path class="st4" d="M336 442.2c0 1.1.9 2 2 2h31c1.1 0 2-.9 2-2v-96c0-1.1-.9-2-2-2h-31c-1.1 0-2 .9-2 2v96z"/></g><path d="M111 455c0 5.5-4.5 10-10 10H87c-5.5 0-10-4.5-10-10V225c0-5.5 4.5-10 10-10h14c5.5 0 10 4.5 10 10v230z" fill="#2c9b47"/><g class="st3"><path class="st4" d="M94.3 234.5c-1.1 0-2 .9-2 2v84.8c0 1.1-.9 2-2 2h-4c-1.1 0-2 .9-2 2v89.9c0 1.1.9 2 2 2H103c1.1 0 2-.9 2-2V236.5c0-1.1-.9-2-2-2h-8.7z"/></g><path class="st7" d="M151.2 151c0-5.5 4.5-10 10-10h270c5.5 0 10 4.5 10 10v25c0 5.5-4.5 10-10 10h-270c-5.5 0-10-4.5-10-10v-25z"/><g class="st3"><path class="st4" d="M303.2 175.5c0 1.1-.9 2-2 2h-2c-1.1 0-2-.9-2-2v-24c0-1.1.9-2 2-2h2c1.1 0 2 .9 2 2v24z"/></g><g class="st3"><path class="st4" d="M281.4 170.5c0 1.1-.9 2-2 2h-44c-1.1 0-2-.9-2-2v-14c0-1.1.9-2 2-2h44c1.1 0 2 .9 2 2v14z"/></g><g class="st3"><path class="st4" d="M377.6 170.5c0 1.1-.9 2-2 2h-50c-1.1 0-2-.9-2-2v-14c0-1.1.9-2 2-2h50c1.1 0 2 .9 2 2v14z"/></g><g class="st3"><path class="st4" d="M398.5 175.5c0 1.1-.9 2-2 2h-2c-1.1 0-2-.9-2-2v-24c0-1.1.9-2 2-2h2c1.1 0 2 .9 2 2v24z"/></g><circle class="st0" cx="189.2" cy="163.5" r="14"/><path class="st2" d="M455 130c0-5.5-4.5-10-10-10H154c-5.5 0-10 4.5-10 10v1c0 5.5 4.5 10 10 10h291c5.5 0 10-4.5 10-10v-1z"/><g class="st3"><path class="st4" d="M318.2 132c0 1.1-.9 2-2 2h-149c-1.1 0-2-.9-2-2v-3c0-1.1.9-2 2-2h149c1.1 0 2 .9 2 2v3z"/></g><circle class="st0" cx="341.5" cy="130.5" r="6.9"/></svg>