<svg xmlns="http://www.w3.org/2000/svg" viewBox="0 0 512 512" xml:space="preserve"><style>.st0{fill:#e0ac7e}.st3{fill:#444}</style><path class="st0" d="M256 26C129 26 26 129 26 256s103 230 230 230 230-103 230-230S383 26 256 26zm148.6 145.4c18.1-5.9 37.6 4 43.5 22.2s-4 37.6-22.2 43.5c-18.1 5.9-37.6-4-43.5-22.2-5.8-18.1 4.1-37.6 22.2-43.5zm-78.1-71.2c11.2-15.4 32.8-18.8 48.2-7.6s18.8 32.8 7.6 48.2c-11.2 15.4-32.8 18.8-48.2 7.6-15.3-11.2-18.8-32.8-7.6-48.2zM63.9 193.6c5.9-18.1 25.4-28 43.5-22.2 18.1 5.9 28 25.4 22.2 43.5-5.9 18.1-25.4 28-43.5 22.2-18.2-5.9-28.1-25.4-22.2-43.5zm43.5 147c-18.1 5.9-37.6-4-43.5-22.2-5.9-18.1 4-37.6 22.2-43.5 18.1-5.9 37.6 4 43.5 22.2 5.8 18.1-4.1 37.6-22.2 43.5zm78.1 71.2c-11.2 15.4-32.8 18.8-48.2 7.6-15.4-11.2-18.8-32.8-7.6-48.2 11.2-15.4 32.8-18.8 48.2-7.6 15.3 11.2 18.8 32.8 7.6 48.2zm-7.7-263.4c-15.4 11.2-37 7.8-48.2-7.6-11.2-15.4-7.8-37 7.6-48.2s37-7.8 48.2 7.6c11.3 15.4 7.8 37-7.6 48.2zM256 458c-19.1 0-34.5-15.4-34.5-34.5S236.9 389 256 389s34.5 15.4 34.5 34.5S275.1 458 256 458zm-33-202c0-18.2 14.8-33 33-33s33 14.8 33 33-14.8 33-33 33-33-14.8-33-33zm33-133c-19.1 0-34.5-15.4-34.5-34.5S236.9 54 256 54s34.5 15.4 34.5 34.5S275.1 123 256 123zm118.7 296.4c-15.4 11.2-37 7.8-48.2-7.6-11.2-15.4-7.8-37 7.6-48.2 15.4-11.2 37-7.8 48.2 7.6 11.3 15.4 7.8 37-7.6 48.2zm73.4-101c-5.9 18.1-25.4 28-43.5 22.2s-28-25.4-22.2-43.5c5.9-18.1 25.4-28 43.5-22.2 18.2 5.9 28.1 25.4 22.2 43.5z"/><path d="M256 149c-59.1 0-107 47.9-107 107s47.9 107 107 107 107-47.9 107-107-47.9-107-107-107zm0 140c-18.2 0-33-14.8-33-33s14.8-33 33-33 33 14.8 33 33-14.8 33-33 33z" fill="#a18267"/><g opacity=".15"><circle class="st3" cx="217.1" cy="217.1" r="11.5"/><circle class="st3" cx="178.2" cy="256" r="11.5"/><circle class="st3" cx="256" cy="178.2" r="11.5"/><circle class="st3" cx="217.1" cy="294.9" r="11.5"/><circle class="st3" cx="256" cy="333.8" r="11.5"/><circle class="st3" cx="294.9" cy="294.9" r="11.5"/><circle class="st3" cx="294.9" cy="217.1" r="11.5"/><circle class="st3" cx="330.6" cy="252.8" r="11.5"/></g><path class="st0" d="M265 14c-1.2-4.9-2.8-9.1-3.9-11.6C260.5 1 259 0 257.4 0h-2.8c-1.6 0-3.1 1-3.7 2.4-1.1 2.5-2.7 6.6-3.9 11.6-2 8-2 15-2 15h22s0-7-2-15zm-35.3 1.3c-1.9-4.7-4.1-8.6-5.5-10.9-.8-1.4-2.4-2.1-4-1.9l-1.4.2-1.4.2c-1.6.2-2.9 1.4-3.3 2.9-.7 2.6-1.7 7-2.2 12-.9 8.3.1 15.2.1 15.2l10.9-1.6 10.9-1.6s-1-6.9-4.1-14.5zm-34.8 6.4c-2.6-4.4-5.3-7.9-7.1-10-1-1.2-2.7-1.7-4.2-1.3l-1.4.4-1.4.4c-1.5.5-2.6 1.8-2.8 3.4-.3 2.7-.6 7.1-.4 12.2.4 8.2 2.4 14.9 2.4 14.9l10.5-3.2 10.5-3.2c.1.2-1.9-6.5-6.1-13.6zm-33.5 11.4c-3.2-3.9-6.4-7-8.4-8.8-1.2-1.1-2.9-1.3-4.4-.6l-1.3.6-1.3.6c-1.5.7-2.4 2.2-2.3 3.8.1 2.7.4 7.1 1.4 12.1 1.6 8.1 4.6 14.4 4.6 14.4l10-4.7 10-4.7c-.1 0-3.1-6.3-8.3-12.7zm-31.5 16.1c-3.7-3.4-7.4-6-9.6-7.5-1.3-.9-3.1-.9-4.4 0l-1.2.8-1.2.8c-1.3.9-2 2.5-1.7 4.1.5 2.6 1.4 7 3.1 11.8 2.7 7.8 6.6 13.6 6.6 13.6l9.2-6.1 9.2-6.1s-3.9-5.8-10-11.4zm-28.8 20.6c-4.2-2.8-8.2-4.9-10.6-6-1.5-.7-3.2-.4-4.4.6l-1.1.9-1 1c-1.2 1.1-1.6 2.8-1.1 4.3.9 2.5 2.4 6.7 4.8 11.2 3.9 7.3 8.5 12.5 8.5 12.5l8.2-7.3 8.2-7.3c0-.1-4.6-5.3-11.5-9.9zM75.7 94.3c-4.6-2.2-8.8-3.6-11.4-4.4-1.5-.5-3.2 0-4.2 1.3l-.9 1.1-.9 1.1c-1 1.2-1.2 3-.5 4.4 1.2 2.4 3.4 6.3 6.4 10.4 4.9 6.7 10.3 11.1 10.3 11.1l7-8.5 7-8.5c0 .1-5.4-4.4-12.8-8zm-21.7 28c-4.8-1.5-9.2-2.3-11.9-2.7-1.6-.2-3.2.5-4 1.9l-.7 1.2-.7 1.2c-.8 1.4-.8 3.1.2 4.4 1.6 2.2 4.3 5.7 7.8 9.4 5.8 5.9 11.8 9.5 11.8 9.5l5.7-9.4 5.7-9.4s-6-3.6-13.9-6.1zm-17.3 30.8c-5-.8-9.5-.9-12.2-.9-1.6 0-3.1 1-3.7 2.4l-.6 1.3-.6 1.3c-.6 1.5-.3 3.2.8 4.3 1.9 1.9 5.1 5.1 9.1 8.1 6.6 5 13 7.7 13 7.7l4.3-10.1 4.3-10.1c.2.1-6.3-2.7-14.4-4zM24 186.2c-5.1-.1-9.5.4-12.2.8-1.6.2-2.9 1.4-3.3 2.9l-.4 1.4-.4 1.4c-.4 1.6.2 3.2 1.4 4.2 2.1 1.6 5.8 4.3 10.2 6.7 7.2 4 14 5.7 14 5.7l2.8-10.6 2.8-10.6c.2-.1-6.6-1.8-14.9-1.9zm-7.7 34.5c-5 .7-9.3 1.8-11.9 2.6-1.5.5-2.6 1.8-2.8 3.4l-.2 1.4-.2 1.4c-.2 1.6.6 3.1 2 3.9 2.3 1.3 6.3 3.4 11.1 5.1 7.7 2.9 14.7 3.6 14.7 3.6l1.2-10.9 1.2-10.9c.1 0-6.9-.7-15.1.4zM13.7 256c-4.9 1.4-9 3.2-11.4 4.3-1.5.7-2.4 2.1-2.3 3.7l.1 1.4.1 1.4c.1 1.6 1.1 3 2.6 3.6 2.5 1 6.7 2.4 11.7 3.5 8.1 1.7 15.1 1.5 15.1 1.5l-.4-11-.4-11c-.2 0-7.2.3-15.1 2.6zm2.6 35.2c-4.6 2.1-8.4 4.4-10.7 5.9-1.3.9-2 2.5-1.7 4.1l.3 1.4.3 1.4c.3 1.6 1.5 2.8 3.1 3.2 2.6.6 7 1.4 12.1 1.7 8.2.5 15.1-.8 15.1-.8l-2-10.8-2-10.8c-.1 0-7 1.3-14.5 4.7zm7.6 34.6c-4.3 2.8-7.7 5.6-9.7 7.4-1.2 1.1-1.6 2.8-1.1 4.3l.5 1.3.5 1.3c.5 1.5 1.9 2.6 3.5 2.7 2.7.2 7.2.4 12.2 0 8.2-.7 14.8-3 14.8-3L41 329.4 37.5 319s-6.6 2.3-13.6 6.8zm12.7 33c-3.8 3.3-6.8 6.7-8.5 8.8-1 1.2-1.2 3-.5 4.4l.7 1.3.7 1.3c.7 1.4 2.2 2.3 3.9 2.2 2.7-.2 7.1-.7 12.1-1.8 8-1.9 14.3-5.1 14.3-5.1l-5-9.8-5-9.8c-.3-.1-6.5 3.1-12.7 8.5zm17.3 30.9c-3.3 3.9-5.7 7.6-7.1 9.9-.8 1.4-.8 3.1.2 4.4l.8 1.2.8 1.2c.9 1.3 2.6 1.9 4.1 1.6 2.6-.6 7-1.7 11.7-3.6 7.7-3 13.4-7.1 13.4-7.1l-6.4-9-6.4-9c-.1 0-5.8 4.1-11.1 10.4zm21.6 28c-2.7 4.3-4.6 8.4-5.6 10.8-.6 1.5-.3 3.2.8 4.3l1 1 1 1c1.1 1.2 2.8 1.5 4.3 1 2.5-1 6.6-2.7 11-5.2 7.2-4.1 12.2-9 12.2-9l-7.6-7.9-7.6-7.9c-.1 0-5.2 4.9-9.5 11.9zm25.4 24.5c-2 4.7-3.3 8.9-4 11.5-.4 1.6.2 3.2 1.4 4.2l1.1.9 1.1.9c1.3 1 3 1.1 4.4.3 2.4-1.3 6.2-3.6 10.2-6.8 6.5-5.1 10.8-10.7 10.8-10.7l-8.7-6.7-8.7-6.7s-4.3 5.6-7.6 13.1zm28.7 20.6c-1.3 4.9-2 9.3-2.3 12-.2 1.6.6 3.1 2 3.9l1.2.7 1.2.7c1.4.8 3.1.7 4.4-.3 2.1-1.6 5.6-4.5 9.1-8.2 5.7-6 9.1-12.1 9.1-12.1l-9.6-5.4-9.6-5.4c.1.1-3.3 6.2-5.5 14.1zm31.5 16.2c-.6 5-.6 9.5-.5 12.2.1 1.6 1.1 3 2.6 3.6l1.3.5 1.3.5c1.5.6 3.2.2 4.3-1 1.9-1.9 4.9-5.3 7.8-9.4 4.7-6.8 7.2-13.3 7.2-13.3l-10.3-3.9-10.3-3.9c.1 0-2.4 6.5-3.4 14.7zm33.5 11.5c.1 5.1.8 9.5 1.3 12.1.3 1.6 1.5 2.8 3.1 3.2l1.4.3 1.4.3c1.6.3 3.2-.3 4.1-1.6 1.6-2.2 4-5.9 6.3-10.4 3.7-7.4 5.2-14.2 5.2-14.2l-10.7-2.4-10.7-2.4c-.1 0-1.7 6.8-1.4 15.1zm34.7 6.4c.9 5 2.2 9.3 3 11.8.5 1.5 1.9 2.6 3.5 2.7l1.4.1 1.4.1c1.6.1 3.1-.7 3.9-2.2 1.2-2.4 3.1-6.4 4.7-11.3 2.6-7.8 3.1-14.8 3.1-14.8l-11-.8-11-.8c.1.1-.4 7.1 1 15.2zm35.4 1.3c1.6 4.8 3.5 8.9 4.7 11.3.7 1.4 2.2 2.3 3.9 2.2l1.4-.1 1.4-.1c1.6-.1 3-1.2 3.5-2.7.9-2.5 2.2-6.8 3-11.8 1.4-8.1.9-15.1.9-15.1l-11 .8-11 .8c.1-.1.6 6.9 3.2 14.7zm35.1-3.8c2.3 4.5 4.8 8.3 6.3 10.4.9 1.3 2.6 1.9 4.1 1.6l1.4-.3 1.4-.3c1.6-.3 2.8-1.6 3.1-3.2.5-2.6 1.2-7.1 1.3-12.1.2-8.2-1.3-15.1-1.3-15.1l-10.7 2.4-10.7 2.4c-.1 0 1.5 6.8 5.1 14.2zm34.3-8.9c2.9 4.2 5.9 7.5 7.8 9.4 1.1 1.2 2.8 1.5 4.3 1l1.3-.5 1.3-.5c1.5-.6 2.5-2 2.6-3.6.1-2.7.1-7.2-.5-12.2-1-8.2-3.5-14.7-3.5-14.7l-10.3 3.9-10.3 3.9s2.5 6.5 7.3 13.3zm32.5-13.8c3.5 3.7 6.9 6.5 9.1 8.2 1.3 1 3 1.1 4.4.3l1.2-.7 1.2-.7c1.4-.8 2.2-2.3 2-3.9-.3-2.7-.9-7.1-2.3-12-2.2-8-5.6-14.1-5.6-14.1l-9.6 5.4-9.6 5.4c.1 0 3.6 6.1 9.2 12.1zm30.2-18.4c4 3.1 7.8 5.5 10.2 6.8 1.4.8 3.1.7 4.4-.3l1.1-.9 1.1-.9c1.3-1 1.8-2.6 1.4-4.2-.7-2.6-2-6.9-4-11.5-3.3-7.6-7.6-13.1-7.6-13.1l-8.7 6.7-8.7 6.7c.1 0 4.4 5.5 10.8 10.7zm27.2-22.7c4.4 2.5 8.5 4.3 11 5.2 1.5.6 3.2.2 4.3-1l1-1 1-1c1.1-1.2 1.4-2.9.8-4.3-1-2.5-2.9-6.5-5.6-10.8-4.4-7-9.4-11.9-9.4-11.9l-7.6 7.9-7.6 7.9c-.1.1 5 4.9 12.1 9zm23.7-26.3c4.7 1.9 9 3 11.7 3.6 1.6.3 3.2-.3 4.1-1.6l.8-1.2.8-1.2c.9-1.3 1-3 .2-4.4-1.4-2.3-3.9-6-7.1-9.9-5.3-6.3-11-10.4-11-10.4l-6.4 8.9-6.4 8.9c-.1.2 5.6 4.3 13.3 7.3zm19.5-29.5c4.9 1.2 9.4 1.6 12.1 1.8 1.6.1 3.1-.7 3.9-2.2l.7-1.3.7-1.3c.7-1.4.5-3.2-.5-4.4-1.7-2.1-4.7-5.4-8.5-8.8-6.2-5.4-12.4-8.6-12.4-8.6l-5 9.8-5 9.8c-.3.2 6 3.4 14 5.2zm15-32c5.1.4 9.5.2 12.2 0 1.6-.1 3-1.2 3.5-2.7l.5-1.3.5-1.3c.5-1.5.1-3.2-1.1-4.3-2-1.8-5.4-4.7-9.7-7.4-6.9-4.5-13.6-6.7-13.6-6.7l-3.6 10.4-3.6 10.4c.1 0 6.7 2.2 14.9 2.9zm10.2-33.8c5.1-.3 9.5-1.1 12.1-1.7 1.6-.4 2.8-1.6 3.1-3.2l.3-1.4.3-1.4c.3-1.6-.4-3.2-1.7-4.1-2.2-1.5-6-3.8-10.7-5.9-7.5-3.4-14.4-4.7-14.4-4.7l-2 10.8-2 10.8c-.1 0 6.8 1.3 15 .8zm5.2-35c5-1.1 9.2-2.5 11.7-3.5 1.5-.6 2.5-2 2.6-3.6l.1-1.4.1-1.4c.1-1.6-.8-3.1-2.3-3.8-2.4-1.1-6.5-2.9-11.4-4.3-7.9-2.3-14.9-2.5-14.9-2.5l-.4 11-.4 11c-.2-.1 6.8.2 14.9-1.5zm0-35.4c4.8-1.8 8.7-3.8 11.1-5.1 1.4-.8 2.2-2.3 2-3.9l-.2-1.4-.2-1.4c-.2-1.6-1.3-2.9-2.8-3.4-2.6-.8-6.9-1.9-11.9-2.6-8.2-1.1-15.1-.3-15.1-.3l1.2 10.9 1.2 10.9c0-.1 7-.8 14.7-3.7zm-5.1-35c4.5-2.4 8.1-5 10.2-6.7 1.3-1 1.8-2.6 1.4-4.2l-.4-1.4-.4-1.4c-.4-1.6-1.7-2.7-3.3-2.9-2.7-.4-7.1-.9-12.2-.8-8.2.1-15 1.9-15 1.9l2.8 10.6 2.8 10.6c.1 0 6.9-1.7 14.1-5.7zm-10.1-33.9c4.1-3.1 7.3-6.2 9.1-8.1 1.1-1.2 1.4-2.9.8-4.3l-.6-1.3-.6-1.3c-.6-1.5-2.1-2.4-3.7-2.4-2.7 0-7.2.1-12.2.9-8.1 1.3-14.6 4-14.6 4l4.3 10.1 4.3 10.1c.1 0 6.6-2.7 13.2-7.7zm-15-32c3.6-3.6 6.3-7.2 7.8-9.4.9-1.3 1-3 .2-4.4l-.7-1.2-.7-1.2c-.8-1.4-2.4-2.1-4-1.9-2.7.4-7.1 1.2-11.9 2.7-7.9 2.5-13.9 6.1-13.9 6.1l5.7 9.4 5.7 9.4s6-3.6 11.8-9.5zm-19.5-29.5c3-4.1 5.2-8 6.4-10.4.7-1.4.5-3.2-.5-4.4l-.9-1.1-.9-1.1c-1-1.2-2.7-1.7-4.2-1.3-2.6.8-6.8 2.2-11.4 4.4-7.4 3.6-12.8 8.1-12.8 8.1l7 8.5 7 8.5c0-.1 5.4-4.6 10.3-11.2zm-23.6-26.4c2.4-4.5 4-8.7 4.8-11.2.5-1.5.1-3.2-1.1-4.3l-1.1-.9-1.1-.9c-1.2-1.1-2.9-1.3-4.4-.6-2.4 1.1-6.4 3.2-10.6 6-6.8 4.6-11.5 9.8-11.5 9.8l8.2 7.3 8.2 7.3c.1 0 4.7-5.2 8.6-12.5zm-27.2-22.6c1.7-4.8 2.6-9.2 3.1-11.8.3-1.6-.4-3.2-1.7-4.1l-1.2-.8-1.2-.8c-1.3-.9-3.1-.9-4.4 0-2.2 1.5-5.9 4.1-9.6 7.5-6.1 5.6-9.9 11.4-9.9 11.4l9.2 6.1 9.2 6.1c-.1 0 3.8-5.8 6.5-13.6zm-30.2-18.5c1-5 1.3-9.4 1.4-12.1.1-1.6-.8-3.1-2.3-3.8l-1.3-.6-1.3-.6c-1.5-.7-3.2-.4-4.4.6-2 1.8-5.2 4.9-8.4 8.8-5.2 6.4-8.2 12.7-8.2 12.7l10 4.7 10 4.7c0 .1 2.9-6.3 4.5-14.4zm-32.5-13.8c.2-5.1-.1-9.5-.4-12.2-.2-1.6-1.3-2.9-2.8-3.4l-1.4-.4-1.4-.4c-1.5-.5-3.2 0-4.2 1.3-1.7 2.1-4.5 5.6-7.1 10-4.2 7.1-6.2 13.8-6.2 13.8l10.5 3.2 10.5 3.2c.1-.2 2.1-6.9 2.5-15.1zm-34.2-9c-.5-5.1-1.5-9.4-2.2-12-.4-1.6-1.7-2.7-3.3-2.9l-1.4-.2-1.4-.2c-1.6-.2-3.2.5-4 1.9-1.4 2.3-3.6 6.2-5.5 10.9-3.1 7.6-4.2 14.6-4.2 14.6l10.9 1.6L300 33s1-6.9.2-15.1z"/></svg>