<svg version="1.1" xmlns="http://www.w3.org/2000/svg" x="0" y="0" viewBox="0 0 512 512" xml:space="preserve"><style type="text/css">.st1{opacity:.15;fill:#444;enable-background:new}</style><path d="M283 36h-54c-2.2 0-4-1.8-4-4V8c0-4.4 3.6-8 8-8h46c4.4 0 8 3.6 8 8v24c0 2.2-1.8 4-4 4z" fill="#347497"/><path class="st1" d="M225 24h62v5h-62z"/><path d="M333 206.5c0-3.2-1.1-6.2-3-8.5v-3c1.9-2.3 3-5.3 3-8.5 0-2.2-.5-4.2-1.5-6.1L286.1 62.6C284.7 58.9 284 55 284 51v-8c0-1.1.9-2 2-2s2-.9 2-2v-1c0-1.1-.9-2-2-2h-60c-1.1 0-2 .9-2 2v1c0 1.1.9 2 2 2s2 .9 2 2v8c0 3.9-.7 7.8-2.1 11.5l-45.4 117.9c-.9 1.8-1.5 3.9-1.5 6.1 0 3.2 1.1 6.2 3 8.5v3c-1.9 2.3-3 5.3-3 8.5s1.1 6.2 3 8.5v3c-1.9 2.3-3 5.3-3 8.5s1.1 6.2 3 8.5v217c0 8.7 1.7 17.2 5.2 25.2 6.2 14.3 17.5 34.9 31.8 34.9 22 0 26-18 37-18s15 18 37 18c14.3 0 25.7-20.5 31.8-34.9 3.4-8 5.2-16.5 5.2-25.2V235c1.9-2.3 3-5.3 3-8.5s-1.1-6.2-3-8.5v-3c1.9-2.3 3-5.3 3-8.5z" fill="#79b1d1"/><path d="M314 195v-5.7c1.5-1.9 1.8-4.5.7-6.7l-2.8-5.6H200.1l-2.8 5.6c-1.1 2.2-.8 4.8.7 6.7v14.4c-1.3 1.6-1.3 4 0 5.6v14.4c-1.3 1.6-1.3 4 0 5.6V452c0 6.6 1.3 12.9 3.9 18.8 2.8 6.6 5.5 11.5 7.9 15.2 5.2 8 16.3 9.5 23.4 3 .1 0 .1-.1.2-.1 5-4.6 11.9-10.9 22.7-10.9 10.8 0 17.7 6.3 22.7 10.9.1 0 .1.1.2.1 7 6.5 18.2 5 23.4-3 2.4-3.7 5.1-8.7 7.9-15.2 2.6-5.9 3.9-12.3 3.9-18.8V229.3c1.3-1.6 1.3-4 0-5.6v-14.4c1.3-1.6 1.3-4 0-5.6V195h-.2z" fill="#2e86b7"/><path class="st1" d="M233 0c-4.4 0-8 3.6-8 8v24c0 2.2 1.8 4 4 4h-3c-1.1 0-2 .9-2 2v1c0 1.1.9 2 2 2s2 .9 2 2v8c0 3.9-.7 7.8-2.1 11.5l-45.4 117.9c-.9 1.8-1.5 3.9-1.5 6.1 0 3.2 1.1 6.2 3 8.5v3c-1.9 2.3-3 5.3-3 8.5s1.1 6.2 3 8.5v3c-1.9 2.3-3 5.3-3 8.5s1.1 6.2 3 8.5v217c0 8.7 1.7 17.2 5.2 25.2 6.2 14.3 17.5 34.9 31.8 34.9 22 0 26-18 37-18V0h-23z"/></svg>