<svg version="1.1" xmlns="http://www.w3.org/2000/svg" x="0" y="0" viewBox="0 0 512 512" xml:space="preserve"><style type="text/css">.st0{fill:#eec646}.st1{fill:#36434f}.st2{opacity:.15;fill:#444}</style><path class="st0" d="M275.1 454.5v-9.4h-38.2v9.4c0 7.1-.9 14.1-2.8 21l-1.8 6.7c12.5 7.8 21.1 18.2 23.6 29.7 2.5-11.6 11.1-21.9 23.6-29.7l-1.8-6.7c-1.7-6.9-2.6-13.9-2.6-21z"/><path class="st1" d="M254.4 444h3.2v32h-3.2z"/><circle class="st1" cx="256" cy="477" r="5"/><path class="st0" d="M230.5 442h50.9v4h-50.9zm54.1-100h-57.2v7l1.6 1h54l1.6-1z"/><path class="st1" d="M281.5 443h-51l-3.1-94h57.2zm-54.1-231h57.3v131h-57.3z"/><path class="st0" d="M289 213h-66c-1.1 0-2-.9-2-2v-22h70v22c0 1.1-.9 2-2 2z"/><path class="st2" d="M236.9 446h38.2v5h-38.2z"/><path class="st0" d="M271.3 0h-30.5c-6.7 0-12.2 3.5-12.7 8l-.6 5h57l-.6-5c-.5-4.5-6-8-12.6-8z"/><path class="st1" d="M223.4 45.4c-1.6 13.1-2.4 26.2-2.4 39.3V190h70V84.7c0-13.1-.8-26.2-2.4-39.3L284.5 12h-57l-4.1 33.4z"/><path class="st0" d="M264.4 62.1c3.1-4.1 4.4-8.7 4.4-13.2V10h-25.5v38.9c0 4.5 1.3 9.1 4.4 13.2 2.4 3.2 3.6 6.6 3.6 10.1v53.3c0 1.7-.4 3.4-1.3 5.1l-2.1 3.9c-1.9 3.6-1.7 7.6.6 11.2l3.1 4.8c1.6 2.5 7.2 2.5 8.8 0l3.1-4.8c2.3-3.6 2.5-7.5.6-11.2l-2.1-3.9c-.9-1.6-1.3-3.3-1.3-5.1V72.2c.1-3.5 1.3-7 3.7-10.1z"/><path class="st2" d="M240.7 0C234 0 228.5 3.5 228 8l-.5 4h-.1l-4.1 33.4c-1.6 13.1-2.4 26.2-2.4 39.3V211c0 1.1 1.4 2 3.2 2h3.2v136l3.2 94v3h6.4v8.5c0 7.1-.9 14.1-2.8 21l-1.8 6.7c12.5 7.8 21.1 18.2 23.6 29.7V0h-15.2z"/></svg>