<svg xmlns="http://www.w3.org/2000/svg" viewBox="0 0 512 512" xml:space="preserve"><style>.st0{fill:#e0ac7e}</style><path class="st0" d="M408 283.5c-33.4 0-46.8-23.1-47.3-24.1l15.7-8.8c.3.5 9.1 14.9 31.7 14.9 25.1 0 60.8-19.6 73.8-48.7 7-15.6 7.7-30.5 2.1-40.9-4.6-8.4-13.1-13.6-25.2-15.5-27.5-4.3-41.4 37-41.6 37.4l-17.1-5.6c.8-2.3 18.9-56.2 61.4-49.6 22.4 3.5 33.2 15.3 38.3 24.7 8.4 15.3 7.8 36.1-1.5 56.9-16.4 36.6-59.6 59.3-90.3 59.3z"/><ellipse cx="256" cy="307.5" rx="256" ry="20" fill="#c7b4a4"/><path class="st0" d="M111 246.5c26 52 66 72 75 95h140c9-23 49-43 75-95 17.4-34.8 27.2-76.3 31.8-100 1.9-9.9-5.6-19-15.7-19H95c-10.1 0-17.6 9.2-15.7 19 4.5 23.7 14.3 65.2 31.7 100z"/><path d="M512 307.5c0 11-114.6 20-256 20s-256-9-256-20c0 21.3 43.1 40.2 108.9 51.6l10.1 13.4c0 6.6 61.3 12 137 12s137-5.4 137-12l10.1-13.4c65.8-11.4 108.9-30.3 108.9-51.6zm-171-96.6c-3.1 3.1-3.1 8.2 0 11.3l.9.9c3.1 3.1 4 7.3 1.9 9.4-2.1 2.1-5.3 2.2-7.2.3s-3.5-1.3-3.5 1.4-2.4 4.9-5.3 4.9-5.3-2.2-5.3-4.9-1.6-3.3-3.5-1.4-5.1 1.8-7.2-.3-1.2-6.3 1.9-9.4l.9-.9c3.1-3.1 3.1-8.2 0-11.3l-.9-.9c-3.1-3.1-4-7.3-1.9-9.4 2.1-2.1 5.3-2.2 7.2-.3s3.5 1.3 3.5-1.4 2.4-4.9 5.3-4.9 5.3 2.2 5.3 4.9 1.6 3.3 3.5 1.4 5.1-1.8 7.2.3 1.2 6.3-1.9 9.4l-.9.9zm-70.8-.9c3.1-3.1 4-7.3 1.9-9.4-2.1-2.1-5.3-2.2-7.2-.3-1.9 1.9-3.5 1.3-3.5-1.4s-2.4-4.9-5.3-4.9-5.3 2.2-5.3 4.9-1.6 3.3-3.5 1.4-5.1-1.8-7.2.3c-2.1 2.1-1.2 6.3 1.9 9.4l.9.9c3.1 3.1 3.1 8.2 0 11.3l-.9.9c-3.1 3.1-4 7.3-1.9 9.4 2.1 2.1 5.3 2.2 7.2.3s3.5-1.3 3.5 1.4 2.4 4.9 5.3 4.9 5.3-2.2 5.3-4.9 1.6-3.3 3.5-1.4 5.1 1.8 7.2-.3 1.2-6.3-1.9-9.4l-.9-.9c-3.1-3.1-3.1-8.2 0-11.3l.9-.9zm-71.9 0c3.1-3.1 4-7.3 1.9-9.4-2.1-2.1-5.3-2.2-7.2-.3s-3.5 1.3-3.5-1.4-2.4-4.9-5.3-4.9-5.3 2.2-5.3 4.9-1.6 3.3-3.5 1.4-5.1-1.8-7.2.3c-2.1 2.1-1.2 6.3 1.9 9.4l.9.9c3.1 3.1 3.1 8.2 0 11.3l-.9.9c-3.1 3.1-4 7.3-1.9 9.4 2.1 2.1 5.3 2.2 7.2.3s3.5-1.3 3.5 1.4 2.4 4.9 5.3 4.9 5.3-2.2 5.3-4.9 1.6-3.3 3.5-1.4 5.1 1.8 7.2-.3c2.1-2.1 1.2-6.3-1.9-9.4l-.9-.9c-3.1-3.1-3.1-8.2 0-11.3l.9-.9z" fill="#a18267"/></svg>