<svg version="1.1" xmlns="http://www.w3.org/2000/svg" x="0" y="0" viewBox="0 0 512 512" xml:space="preserve"><style type="text/css">.st3{fill:#4b5d6b}</style><path d="M299 109.9v-44h-63v18s-5 21-5 49 15 101 17 187-35 164-35 164 7 20 27 26 40-3 40-3 4-12 7-23 5-74 7-108-8-167-8-188 4-38 6-45 7-22 7-33zM248 499c-4.4 0-8-3.6-8-8s3.6-8 8-8 8 3.6 8 8-3.6 8-8 8z" fill="#ffa000"/><path d="M299 69h-63v10h63V69z" opacity=".15" fill="#444"/><path d="M294 375.9c1.7-28.9-5.3-129.2-7.4-171.6C280 205 274 228 263 227s-15.3-20-24.1-21.5c4 32.3 8.2 71.8 9.1 114.4 1.3 54.4-13.1 105.6-23.8 135.9 0 0 8.8 6.2 18.8 2.2s12-10 13-14 7-39 7-62 1-63 1-63 3-3 8-3 8 2 8 2 0 49-5 78-8 48-9 53-1 10 1 14 8 9 8 9l12.9 7.2c2.5-18.5 4.3-72.6 6.1-103.3zM274 489c-6-3-14-16-22-18s-16 4-24 2c-2.9-.7-6-2.3-8.7-3.9-3.7 9.5-6.3 14.9-6.3 14.9s7 20 27 26 40-3 40-3 2.2-6.6 4.5-14.4c-4.4-1.3-8.4-2.6-10.5-3.6zm-26 10c-4.4 0-8-3.6-8-8s3.6-8 8-8 8 3.6 8 8-3.6 8-8 8zm64-488h-73s-23 2-42 2-55-13-55-13-12 16-12 57 15 61 15 61 72-55 78-55 10 6 10 6h79V11z" fill="#36434f"/><path class="st3" d="M137 57c0-32.9 7.7-49.6 10.8-55-3.6-1.2-5.8-2-5.8-2s-12 16-12 57 15 61 15 61 1.8-1.3 4.7-3.6C145.6 107 137 88 137 57z"/><circle class="st3" cx="267.5" cy="40" r="14"/></svg>