<svg version="1.1" xmlns="http://www.w3.org/2000/svg" x="0" y="0" viewBox="0 0 512 512" xml:space="preserve"><style type="text/css">.st0{fill:#eec646}.st4{fill:#36434f}</style><path class="st0" d="M365 308H151V96c0-53 43-96 96-96h22c53 0 96 43 96 96v212z"/><path d="M224.8 235h5c1.5 0 3-.6 4-1.8l6.6-7.2c2.3-2.5 1.7-6.6-1.3-8.3l-20.3-12c-.8-.5-1.8-.8-2.8-.8h-24c-3 0-5.4 2.4-5.4 5.4v114.2c0 3 2.4 5.4 5.4 5.4h22c3 0 5.4-2.4 5.4-5.4v-84.1c0-3 2.4-5.4 5.4-5.4zm35.6-19.9l3.4 2c2.6 1.5 3.4 4.8 1.9 7.4l-8.5 14.5c-.5.8-.7 1.8-.7 2.8v55c0 1.4.6 2.8 1.6 3.8l27.8 27.8c1 1 2.4 1.6 3.8 1.6H320c3 0 5.4-2.4 5.4-5.4V210.4c0-3-2.4-5.4-5.4-5.4h-56.9c-5.5 0-7.5 7.3-2.7 10.1z" fill="#444" opacity=".3"/><path fill="#998545" d="M151 307h214v23H151z"/><path class="st0" d="M367 380H149c-8.8 0-16-7.2-16-16v-25c0-8.8 7.2-16 16-16h218c8.8 0 16 7.2 16 16v25c0 8.8-7.2 16-16 16z"/><path class="st4" d="M192.5 377h20v135h-20z"/><path class="st0" d="M202.5 373h-28.8l17.9 10.8c6.7 4 15.1 4 21.8 0l17.9-10.8h-28.8z"/><path class="st4" d="M299.5 377h20v135h-20z"/><path class="st0" d="M309.5 373h-28.8l17.9 10.8c6.7 4 15.1 4 21.8 0l17.9-10.8h-28.8z"/><path d="M352.5 89.3v119c0 4.4-3.6 8-8 8s-8-3.6-8-8v-119c0-4.4 3.6-8 8-8s8 3.6 8 8zm-8 155c-4.4 0-8 3.6-8 8v40c0 4.4 3.6 8 8 8s8-3.6 8-8v-40c0-4.4-3.6-8-8-8z" opacity=".5" fill="#fff"/></svg>