<svg version="1.1" xmlns="http://www.w3.org/2000/svg" x="0" y="0" viewBox="0 0 512 512" xml:space="preserve"><style type="text/css">.st2{opacity:.15;fill:#444}.st5{fill:#a18267}</style><circle cx="256" cy="256" r="256" fill="#cc584c"/><circle cx="256" cy="256" r="244" fill="#ad403b"/><path class="st2" d="M353.4 383.1C376.7 341.8 391 292.3 391 256c0-74.6-60.4-135-135-135s-135 60.4-135 135 60.4 205 135 205c30.9 0 59.4-22.5 82.2-54.1l14.8 27.8c2.1 3.9 6.9 5.4 10.8 3.3l7.5-4c3.9-2.1 5.4-6.9 3.3-10.8l-21.2-40.1z"/><path d="M379.3 399.5l-54.9-54.9 20.2-20.2 54.9 54.9c3.1 3.1 3.1 8.2 0 11.3l-8.9 8.9c-3.1 3.1-8.1 3.1-11.3 0z" fill="#ddd"/><path class="st2" d="M343.7 322.5l-21.2 21.2 24.9 24.9c3.9-3.1 7.6-6.5 11.1-10.1s6.9-7.3 10.1-11.1l-24.9-24.9z"/><circle cx="256" cy="256" r="137" fill="#f4f4f4"/><circle class="st5" cx="256" cy="256" r="126"/><path class="st2" d="M256 130c-69.6 0-126 56.4-126 126s56.4 126 126 126 126-56.4 126-126-56.4-126-126-126zm0 247c-66.8 0-121-54.2-121-121s54.2-121 121-121 121 54.2 121 121-54.2 121-121 121z"/><circle cx="256" cy="256" r="109" fill="#66442b"/><path class="st5" d="M197.3 216.5c-8.3 0-15-6.7-15-15s6.7-15 15-15 15 6.7 15 15-6.8 15-15 15zm0-26c-6.1 0-11 4.9-11 11s4.9 11 11 11 11-4.9 11-11-5-11-11-11z"/><path class="st5" d="M217.3 201.5c-5.5 0-10-4.5-10-10s4.5-10 10-10 10 4.5 10 10-4.5 10-10 10zm0-16c-3.3 0-6 2.7-6 6s2.7 6 6 6 6-2.7 6-6-2.7-6-6-6z"/><path class="st5" d="M219.3 217.5c-5.5 0-10-4.5-10-10s4.5-10 10-10 10 4.5 10 10-4.5 10-10 10zm0-16c-3.3 0-6 2.7-6 6s2.7 6 6 6 6-2.7 6-6-2.7-6-6-6zM347 313c-5.5 0-10-4.5-10-10s4.5-10 10-10 10 4.5 10 10-4.5 10-10 10zm0-16c-3.3 0-6 2.7-6 6s2.7 6 6 6 6-2.7 6-6-2.7-6-6-6z"/><path class="st5" d="M339 327c-5.5 0-10-4.5-10-10s4.5-10 10-10 10 4.5 10 10-4.5 10-10 10zm0-16c-3.3 0-6 2.7-6 6s2.7 6 6 6 6-2.7 6-6-2.7-6-6-6z"/><circle class="st5" cx="349" cy="315" r="2"/></svg>