<svg version="1.1" xmlns="http://www.w3.org/2000/svg" x="0" y="0" viewBox="0 0 512 512" xml:space="preserve"><style type="text/css">.st2{fill:#36434f}</style><circle cx="256" cy="256" r="240.1" fill="#f4f4f4"/><path d="M256 512C114.8 512 0 397.2 0 256S114.8 0 256 0s256 114.8 256 256-114.8 256-256 256zm0-480.2C132.4 31.8 31.8 132.4 31.8 256S132.4 480.2 256 480.2 480.2 379.6 480.2 256 379.6 31.8 256 31.8z" fill="#ad403b"/><path class="st2" d="M251.6 44.6h8.7V62h-8.7V44.6zm0 405.4h8.7v17.4h-8.7V450zM44.5 260.3v-8.7h17.4v8.7H44.5zm405.6.1v-8.7h17.4v8.7h-17.4zM70.6 154.1l4.4-7.5 15 8.7-4.4 7.5-15-8.7zm351.2 202.7l4.4-7.5 15.1 8.7-4.4 7.5-15.1-8.7zM154 441.3l-7.5-4.4 8.8-15.1 7.5 4.4-8.8 15.1zM356.7 90.1l-7.5-4.4 8.8-15.1 7.5 4.4-8.8 15.1zM146.4 75l7.5-4.4 8.8 15.2-7.5 4.4-8.8-15.2zm202.8 351.2l7.5-4.4 8.7 15.1-7.5 4.4-8.7-15.1zM75 365.4l-4.4-7.5 15.1-8.7 4.4 7.5-15.1 8.7zm351.2-202.6l-4.4-7.5 15.1-8.7 4.4 7.5-15.1 8.7zM340.9 62.3l2.3 1.1-3.6 7.9-2.3-1.1 3.6-7.9zM172.4 440.5l2.3 1.1-3.6 8.1-2.3-1.1 3.6-8.1zM320.1 54.6l2.4.8-2.6 8.3-2.4-.8 2.6-8.3zm-128 393.7l2.4.8-2.7 8.4-2.4-.8 2.7-8.4zM298.7 48.9l2.5.5-1.8 8.5-2.5-.5 1.8-8.5zm-86 405l2.5.5-1.8 8.7-2.5-.5 1.8-8.7zm64.2-408.3l2.6.2-1 8.6-2.6-.2 1-8.6zm-43.3 411.8l2.6.2-.9 8.8-2.6-.2.9-8.8zm192.7-326.7l1.5 2.1-7 5.1-1.5-2.1 7-5.1zm-335 243.4l1.5 2.1-7.2 5.2-1.5-2.1 7.2-5.2zm320.9-260.5l1.7 1.9-6.4 5.8-1.7-1.9 6.4-5.8zm-307.6 277l1.7 1.9-6.6 5.9-1.7-1.9 6.6-5.9zM396.4 98l1.9 1.7-5.8 6.4-1.9-1.7 5.8-6.4zM119.5 405.7l1.9 1.7-5.9 6.6-1.9-1.7 5.9-6.6zM379.3 84.2l2.1 1.5-5.1 7-2.1-1.5 5.1-7zM135.9 419.1l2.1 1.5-5.2 7.2-2.1-1.5 5.2-7.2zm330.3-186.5l.2 2.6-8.6.9-.2-2.6 8.6-.9zM54.4 275.9l.2 2.6-8.8.9-.2-2.6 8.8-.9zm408.1-65.2l.5 2.5-8.5 1.8-.5-2.5 8.5-1.8zm-405 86.2l.5 2.5-8.7 1.8-.5-2.5 8.7-1.8zm399.1-107.5l.8 2.4-8.3 2.6-.8-2.4 8.3-2.6zm-393.7 128l.8 2.4-8.4 2.8-.8-2.4 8.4-2.8zm385.7-148.5l1.1 2.3-7.9 3.6-1.1-2.3 7.9-3.6zM70.4 337.3l1.1 2.3-8.1 3.6-1.1-2.3 8.1-3.6zm379.3 3.5l-1.1 2.3-7.9-3.6 1.1-2.3 7.9 3.6zM71.4 172.5l-1.1 2.3-8.1-3.6 1.1-2.3 8.1 3.6zm386.1 147.6l-.8 2.4-8.3-2.6.8-2.4 8.3 2.6zM63.7 192.2l-.8 2.4-8.4-2.6.8-2.4 8.4 2.6zM463 298.7l-.5 2.5-8.5-1.8.5-2.5 8.5 1.8zM58.1 212.6l-.5 2.5-8.7-1.8.5-2.5 8.7 1.8zm408.3 64.2l-.2 2.6-8.6-.9.2-2.6 8.6.9zM54.7 233.5l-.2 2.6-8.8-.9.2-2.6 8.8.9zm326.6 192.8l-2.1 1.5-5.1-7 2.1-1.5 5.1 7zm-243.4-335l-2.1 1.5-5.2-7.2 2.1-1.5 5.2 7.2zm260.5 321l-1.9 1.7-5.8-6.4 1.9-1.7 5.8 6.4zM121.3 104.6l-1.9 1.7-5.9-6.6 1.9-1.7 5.9 6.6zm292.7 292l-1.7 1.9-6.4-5.8 1.7-1.9 6.4 5.8zm-307.7-277l-1.7 1.9-6.6-5.9 1.7-1.9 6.6 5.9zm321.5 259.6l-1.5 2.1-7-5.1 1.5-2.1 7 5.1zm-335-243.3l-1.5 2.1-7.2-5.2 1.5-2.1 7.2 5.2zm186.5 330.2l-2.6.2-.9-8.6 2.6-.2.9 8.6zM236.1 54.4l-2.6.2-.9-8.8 2.6-.2.9 8.8zm65.1 408.2l-2.5.5-1.8-8.5 2.5-.5 1.8 8.5zM215.1 57.5l-2.5.5-1.8-8.7 2.5-.5 1.8 8.7zm107.3 399.2l-2.4.8-2.6-8.3 2.4-.8 2.6 8.3zM194.5 62.9l-2.4.8-2.7-8.4 2.4-.8 2.7 8.4zm148.6 385.8l-2.3 1.1-3.6-7.9 2.3-1.1 3.6 7.9zM174.8 70.4l-2.3 1.1-3.6-8.1 2.3-1.1 3.6 8.1zm262.3 178.7c0 1.6-.5 2.9-1.4 4s-2.2 1.8-4 2.2v.1c2 .2 3.6.8 4.5 1.8s1.6 2.2 1.6 3.9c0 2.4-.8 4.2-2.6 5.5-1.7 1.3-4.2 2-7.4 2-2.7 0-5-.4-7.2-1.3v-4.5c1 .5 2 .9 3.1 1.2s2.3.5 3.4.5c1.7 0 3-.3 3.8-.9s1.2-1.6 1.2-2.8c0-1.2-.5-2-1.4-2.5s-2.5-.7-4.5-.7h-1.9v-4h1.9c1.9 0 3.3-.2 4.2-.7.9-.5 1.3-1.4 1.3-2.6 0-1.9-1.2-2.8-3.6-2.8-.8 0-1.7.2-2.5.4s-1.8.7-2.8 1.4l-2.4-3.6c2.2-1.7 5-2.5 8.1-2.5 2.6 0 4.6.5 6.1 1.6 1.7 1 2.5 2.5 2.5 4.3zm-90.5-125.7h-5.2V109l.1-2.4.1-2.6c-.9.9-1.5 1.4-1.8 1.7L337 108l-2.6-3.1 8-6.4h4.3l-.1 24.9zM167.2 414.7l9.3-20.3h-12.2V390H182v3.3l-9.4 21.5-5.4-.1zm245.9-231.5h-17.3v-3.6l6.2-6.3c1.8-1.9 3.1-3.2 3.6-4 .6-.7 1-1.4 1.2-2.1.2-.7.4-1.2.4-1.9 0-1-.2-1.7-.8-2.2-.6-.5-1.3-.7-2.2-.7-1 0-1.9.2-2.8.7-.9.4-1.8 1.1-2.8 1.9l-2.8-3.4c1.2-1.1 2.2-1.7 3.1-2.2.8-.5 1.7-.7 2.6-1s2-.3 3.2-.3c1.6 0 2.9.2 4.1.8s2.1 1.3 2.7 2.4c.7 1 1 2.1 1 3.5 0 1.2-.2 2.2-.6 3.2s-1 2.1-1.9 3.1-2.3 2.6-4.5 4.5l-3.2 3v.2h10.8v4.4zM108.6 326c2.4 0 4.3.6 5.8 1.7s2.1 2.6 2.1 4.4c0 1.2-.3 2.4-1.1 3.4-.7 1-1.8 1.9-3.4 2.6 1.8 1 3.2 2.1 4 3.1.7 1.1 1.2 2.2 1.2 3.6 0 2.1-.8 3.6-2.4 4.9s-3.7 1.8-6.3 1.8c-2.7 0-4.9-.6-6.4-1.7-1.6-1.2-2.3-2.8-2.3-4.9 0-1.4.4-2.6 1.2-3.8.7-1.1 2-2.1 3.6-2.9-1.4-.9-2.4-1.8-3.1-2.9-.7-1-.9-2.1-.9-3.3 0-1.7.7-3.2 2.2-4.3 1.7-1.2 3.5-1.7 5.8-1.7zm-3.9 18.5c0 1 .3 1.7 1 2.3.7.6 1.6.8 2.8.8 1.3 0 2.3-.2 2.9-.8.7-.6 1-1.3 1-2.2 0-.7-.3-1.5-1-2.1-.7-.7-1.7-1.4-3.1-2.1-2.3 1-3.6 2.4-3.6 4.1zm3.9-14.7c-.9 0-1.7.2-2.1.7-.6.5-.8 1.1-.8 1.8s.2 1.3.7 1.8c.4.6 1.2 1.1 2.4 1.7 1.1-.5 1.9-1.1 2.3-1.6.4-.6.7-1.2.7-1.9s-.2-1.4-.8-1.8c-.8-.5-1.6-.7-2.4-.7zm-17-75.6c0 4.9-1 8.5-3.1 10.9s-5.2 3.6-9.3 3.6c-1.5 0-2.6-.1-3.3-.2v-4.2c.9.2 2 .3 3 .3 1.7 0 3.2-.2 4.3-.7 1.2-.5 2-1.3 2.6-2.4s.9-2.6 1.1-4.5h-.2c-.7 1.1-1.4 1.8-2.3 2.2-.8.4-1.9.7-3.2.7-2.1 0-3.9-.7-5.1-2.1s-1.9-3.3-1.9-5.8c0-2.6.7-4.8 2.2-6.3 1.5-1.6 3.6-2.3 6.2-2.3 1.8 0 3.5.4 4.8 1.3 1.4.8 2.4 2.1 3.1 3.7.7 1.6 1.1 3.5 1.1 5.8zm-9-6.7c-1.1 0-1.9.4-2.6 1.2-.6.7-.9 1.8-.9 3.2 0 1.2.2 2.1.8 2.8.6.7 1.4 1.1 2.6 1.1 1.1 0 2-.3 2.7-1.1.7-.7 1.2-1.5 1.2-2.4 0-1.3-.3-2.5-1.1-3.4-.7-.9-1.6-1.4-2.7-1.4zm331.2 98.8h-3v5.1h-5.1v-5.1h-10.6v-3.6l10.9-16h4.9v15.6h3l-.1 4zm-8.1-4.1V338c0-.7 0-1.7.1-3.1.1-1.3.1-2.1.2-2.3h-.2c-.4.9-.9 1.8-1.5 2.7l-4.5 6.9h5.9zM111.4 182.7h-5.2v-14.3l.1-2.4.1-2.6c-.9.9-1.5 1.4-1.8 1.7l-2.8 2.3-2.6-3.1 8-6.4h4.2v24.8zm24.1-12.3c0 4.3-.7 7.5-2.1 9.6s-3.6 3.1-6.5 3.1-5-1.1-6.4-3.2c-1.5-2.1-2.1-5.3-2.1-9.5 0-4.4.7-7.6 2.1-9.7 1.4-2.1 3.6-3.1 6.5-3.1s5 1.1 6.5 3.2c1.2 2.2 2 5.4 2 9.6zm-12.2 0c0 3.1.2 5.2.8 6.5.5 1.3 1.4 2 2.6 2s2.1-.7 2.6-2c.6-1.3.8-3.5.8-6.5 0-3.1-.2-5.2-.8-6.5s-1.4-2-2.6-2-2.1.7-2.6 2c-.5 1.2-.8 3.4-.8 6.5zm217.6 228.2c2.4 0 4.3.7 5.7 2 1.4 1.3 2.1 3.2 2.1 5.5 0 2.8-.8 4.9-2.6 6.4-1.7 1.5-4.1 2.2-7.4 2.2-2.7 0-5-.4-6.7-1.3v-4.5c.9.5 1.9.8 3.1 1.2 1.2.3 2.3.4 3.4.4 3.2 0 4.8-1.3 4.8-4 0-2.5-1.7-3.7-5-3.7-.6 0-1.2.1-2 .2-.7.1-1.3.2-1.7.4l-2.1-1.2.9-12.6h13.5v4.5h-8.8l-.5 4.9.6-.1c.8-.3 1.7-.3 2.7-.3zM168.8 123.4h-5.2V109l.1-2.4.1-2.6c-.9.9-1.5 1.4-1.8 1.7l-2.8 2.3-2.6-3.1 8-6.4h4.3l-.1 24.9zm19.8 0h-5.2V109l.1-2.4.1-2.6c-.9.9-1.5 1.4-1.8 1.7L179 108l-2.6-3.1 8-6.4h4.3l-.1 24.9zM247.2 427c0-4.9 1.1-8.6 3.1-11 2.1-2.4 5.2-3.6 9.3-3.6 1.4 0 2.6.1 3.3.2v4.2c-1-.2-2-.3-3-.3-1.8 0-3.3.2-4.4.8-1.2.6-2 1.3-2.6 2.4s-.9 2.6-1 4.5h.2c1.2-1.9 2.9-2.9 5.4-2.9 2.2 0 4 .7 5.2 2.1s1.9 3.3 1.9 5.8c0 2.6-.7 4.7-2.2 6.3-1.5 1.6-3.6 2.3-6.2 2.3-1.8 0-3.5-.4-4.8-1.2s-2.4-2.1-3.1-3.7c-.7-1.6-1.1-3.6-1.1-5.9zm8.9 6.7c1.2 0 2-.4 2.6-1.2.6-.7.9-1.8.9-3.2 0-1.2-.2-2.1-.8-2.9-.6-.7-1.4-1.1-2.6-1.1-1.1 0-2 .3-2.7 1.1-.7.7-1.2 1.5-1.2 2.4 0 1.3.3 2.5 1.1 3.4.7 1 1.7 1.5 2.7 1.5zM250 99.2h-5.2V85l.1-2.4.1-2.6c-.9.9-1.5 1.4-1.8 1.7l-2.8 2.3-2.6-3.1 8-6.4h4.3l-.1 24.7zm24.2 0h-17.3v-3.6l6.2-6.3c1.8-1.9 3.1-3.2 3.6-4 .6-.7 1-1.4 1.2-2.1s.4-1.2.4-1.9c0-1-.2-1.7-.8-2.2-.6-.5-1.3-.7-2.2-.7-1 0-1.9.2-2.8.7-.9.4-1.8 1.1-2.8 1.9l-2.8-3.4c1.2-1.1 2.2-1.7 3.1-2.2.8-.5 1.7-.7 2.6-1 .9-.2 2-.3 3.2-.3 1.6 0 2.9.2 4.1.8 1.2.6 2.1 1.3 2.7 2.4.7 1 1 2.1 1 3.5 0 1.2-.2 2.2-.6 3.2s-1 2.1-1.9 3.1c-.8 1.1-2.3 2.6-4.5 4.5l-3.2 3v.2h10.8v4.4z"/><path d="M230.7 278.4c-.6 0-1.1-.2-1.5-.7-.7-.9-.6-2.1.3-2.8l165.3-136.8c.9-.7 2.1-.6 2.8.3.7.9.6 2.1-.3 2.8L232 277.9c-.4.4-.8.5-1.3.5z" fill="#cc584c"/><circle class="st2" cx="256" cy="256" r="18"/><path class="st2" d="M331.6 349.5l-20.4-36.6c-2.1-3.8-4.7-7.4-7.7-10.7L258.7 253l-3.7 3-3.7 3 38.1 54.7c2.5 3.6 5.4 6.9 8.7 9.9l31.1 28c1.3 1.1 3.3-.5 2.4-2.1z"/><path class="st2" d="M82.5 250.2l59.5 9.9c5.4.9 10.9 1.4 16.4 1.4l96.2.3.2-4.8.2-4.8-95.8-9.1c-5.5-.5-11-.6-16.5-.2L82.5 247c-1.8.2-1.9 2.9 0 3.2z"/><path d="M0 256c0 141.4 114.6 256 256 256V0C114.6 0 0 114.6 0 256z" opacity=".15" fill="#444"/></svg>