<svg xmlns="http://www.w3.org/2000/svg" viewBox="0 0 512 512" xml:space="preserve"><style>.st1{fill:#36434f}</style><path d="M398.4 0H113.6c-10.5 0-19 8.5-19 19v474c0 10.5 8.5 19 19 19h284.8c10.5 0 19-8.5 19-19V19c0-10.5-8.5-19-19-19z" fill="#f4f4f4"/><path class="st1" d="M387.8 446.3h9.2v35.4l10.9-3.4v7.5l-19.1 6.9h-1v-46.4zm-39.6 19.2c0-6.4 1.4-11.3 4-14.7s6.5-5.1 11.6-5.1 8.9 1.7 11.6 5 4 8.1 4.1 14.3v8.6c0 6.5-1.3 11.4-4 14.7s-6.6 5-11.6 5c-5.1 0-8.9-1.7-11.6-5s-4-8.1-4.1-14.3v-8.5zm9.2 9.3c0 3.9.6 6.7 1.6 8.4s2.7 2.6 4.9 2.6 3.8-.8 4.8-2.5 1.5-4.3 1.6-7.8v-11.2c0-3.8-.5-6.6-1.5-8.4-1-1.8-2.6-2.7-4.9-2.7s-3.9.8-4.9 2.6c-1 1.8-1.6 4.5-1.6 8.1v10.9zM124.3 65.6h-9.2V30.2l-10.9 3.4v-7.5l19.1-6.9h1v46.4zm39.6-19.1c0 6.4-1.3 11.3-4 14.7-2.6 3.4-6.5 5.1-11.6 5.1-5 0-8.9-1.7-11.6-5-2.7-3.3-4-8.1-4.1-14.3v-8.5c0-6.5 1.3-11.4 4-14.7s6.5-5 11.6-5c5 0 8.9 1.7 11.6 5 2.7 3.3 4 8.1 4.1 14.3v8.4zm-9.2-9.4c0-3.8-.5-6.6-1.6-8.4-1-1.7-2.7-2.6-4.9-2.6s-3.8.8-4.8 2.5-1.6 4.3-1.6 7.8v11.2c0 3.8.5 6.6 1.5 8.4 1 1.8 2.7 2.7 4.9 2.7s3.9-.9 4.9-2.6c1-1.8 1.5-4.4 1.6-8.1V37.1zm-20.3 59.1h-.8c-.3 5.7-3.6 10.5-8.6 12.8h18c-4.9-2.2-8.3-7.1-8.6-12.8zm-.8-6.3h.9v6.3h-.9z"/><path class="st1" d="M140.2 80.5c0 3.4-5.1 10.3-6.2 10.3s-6.2-6.9-6.2-10.3 2.8-6.2 6.2-6.2 6.2 2.7 6.2 6.2zM120.3 89c3.4 0 10.3 5.1 10.3 6.2s-6.9 6.2-10.3 6.2-6.2-2.8-6.2-6.2c0-3.4 2.8-6.2 6.2-6.2zm27.4 0c-3.4 0-10.3 5.1-10.3 6.2s6.9 6.2 10.3 6.2c3.4 0 6.2-2.8 6.2-6.2s-2.7-6.2-6.2-6.2z"/><path class="st1" d="M135.4 94.8h-6.3v.9h9.8v-.9zm243 321h-.8c-.3-5.7-3.6-10.5-8.6-12.8h18c-4.9 2.2-8.3 7.1-8.6 12.8zm-.8 0h.9v6.3h-.9z"/><path class="st1" d="M384.2 431.5c0-3.4-5.1-10.3-6.2-10.3s-6.2 6.9-6.2 10.3 2.8 6.2 6.2 6.2 6.2-2.7 6.2-6.2zm-19.9-8.5c3.4 0 10.3-5.1 10.3-6.2s-6.9-6.2-10.3-6.2-6.2 2.8-6.2 6.2 2.7 6.2 6.2 6.2zm27.4 0c-3.4 0-10.3-5.1-10.3-6.2s6.9-6.2 10.3-6.2 6.2 2.8 6.2 6.2-2.8 6.2-6.2 6.2z"/><path class="st1" d="M379.4 417.2h-6.3v-.9h9.8v.9zM223 80.7c-6.1 0-17.8 8.1-20 11.4h-6.2v-8.2c3.2-2.2 11.4-13.9 11.4-20 0-6.8-5.5-12.2-12.2-12.2-6.8 0-12.2 5.5-12.2 12.2 0 6.1 8.1 17.8 11.4 20V92H189c-2.2-3.2-13.9-11.4-20-11.4-6.8 0-12.2 5.5-12.2 12.2 0 6.8 5.5 12.2 12.2 12.2 6.1 0 17.8-8.1 20-11.4h6.2v1.1c-.6 11.2-7.2 20.7-16.9 25.1h35.4c-9.7-4.4-16.3-13.9-16.9-25.1v-1.1h6.2c2.2 3.2 13.9 11.4 20 11.4 6.8 0 12.2-5.5 12.2-12.2s-5.4-12.1-12.2-12.1zm120 0c-6.1 0-17.8 8.1-20 11.4h-6.2v-8.2c3.2-2.2 11.4-13.9 11.4-20 0-6.8-5.5-12.2-12.2-12.2s-12.2 5.5-12.2 12.2c0 6.1 8.1 17.8 11.4 20V92H309c-2.2-3.2-13.9-11.4-20-11.4-6.8 0-12.2 5.5-12.2 12.2 0 6.8 5.5 12.2 12.2 12.2 6.1 0 17.8-8.1 20-11.4h6.2v1.1c-.6 11.2-7.2 20.7-16.9 25.1h35.4c-9.7-4.4-16.3-13.9-16.9-25.1v-1.1h6.2c2.2 3.2 13.9 11.4 20 11.4 6.8 0 12.2-5.5 12.2-12.2 0-6.7-5.4-12.1-12.2-12.1zm-60 56.7c-6.1 0-17.8 8.1-20 11.4h-6.2v-8.2c3.2-2.2 11.4-13.9 11.4-20 0-6.8-5.5-12.2-12.2-12.2s-12.2 5.5-12.2 12.2c0 6.1 8.1 17.8 11.4 20v8.2H249c-2.2-3.2-13.9-11.4-20-11.4-6.8 0-12.2 5.5-12.2 12.2 0 6.8 5.5 12.2 12.2 12.2 6.1 0 17.8-8.1 20-11.4h6.2v1.1c-.6 11.2-7.2 20.7-16.9 25.1h35.4c-9.7-4.4-16.3-13.9-16.9-25.1v-1.1h6.2c2.2 3.2 13.9 11.4 20 11.4 6.8 0 12.2-5.5 12.2-12.2 0-6.7-5.4-12.2-12.2-12.2zm-60 56.7c-6.1 0-17.8 8.1-20 11.4h-6.2v-8.2c3.2-2.2 11.4-13.9 11.4-20 0-6.8-5.5-12.2-12.2-12.2-6.8 0-12.2 5.5-12.2 12.2 0 6.1 8.1 17.8 11.4 20v8.2H189c-2.2-3.2-13.9-11.4-20-11.4-6.8 0-12.2 5.5-12.2 12.2 0 6.8 5.5 12.2 12.2 12.2 6.1 0 17.8-8.1 20-11.4h6.2v1.1c-.6 11.2-7.2 20.7-16.9 25.1h35.4c-9.7-4.4-16.3-13.9-16.9-25.1v-1.1h6.2c2.2 3.2 13.9 11.4 20 11.4 6.8 0 12.2-5.5 12.2-12.2s-5.4-12.2-12.2-12.2zm120 0c-6.1 0-17.8 8.1-20 11.4h-6.2v-8.2c3.2-2.2 11.4-13.9 11.4-20 0-6.8-5.5-12.2-12.2-12.2s-12.2 5.5-12.2 12.2c0 6.1 8.1 17.8 11.4 20v8.2H309c-2.2-3.2-13.9-11.4-20-11.4-6.8 0-12.2 5.5-12.2 12.2 0 6.8 5.5 12.2 12.2 12.2 6.1 0 17.8-8.1 20-11.4h6.2v1.1c-.6 11.2-7.2 20.7-16.9 25.1h35.4c-9.7-4.4-16.3-13.9-16.9-25.1v-1.1h6.2c2.2 3.2 13.9 11.4 20 11.4 6.8 0 12.2-5.5 12.2-12.2 0-6.7-5.4-12.2-12.2-12.2zM223 431.3c-6.1 0-17.8-8.1-20-11.4h-6.2v8.2c3.2 2.2 11.4 13.9 11.4 20 0 6.8-5.5 12.2-12.2 12.2-6.8 0-12.2-5.5-12.2-12.2 0-6.1 8.1-17.8 11.4-20V420H189c-2.2 3.2-13.9 11.4-20 11.4-6.8 0-12.2-5.5-12.2-12.2 0-6.8 5.5-12.2 12.2-12.2 6.1 0 17.8 8.1 20 11.4h6.2v-1.1c-.6-11.2-7.2-20.7-16.9-25.1h35.4c-9.7 4.4-16.3 13.9-16.9 25.1v1.1h6.2c2.2-3.2 13.9-11.4 20-11.4 6.8 0 12.2 5.5 12.2 12.2s-5.4 12.1-12.2 12.1zm120 0c-6.1 0-17.8-8.1-20-11.4h-6.2v8.2c3.2 2.2 11.4 13.9 11.4 20 0 6.8-5.5 12.2-12.2 12.2s-12.2-5.5-12.2-12.2c0-6.1 8.1-17.8 11.4-20V420H309c-2.2 3.2-13.9 11.4-20 11.4-6.8 0-12.2-5.5-12.2-12.2 0-6.8 5.5-12.2 12.2-12.2 6.1 0 17.8 8.1 20 11.4h6.2v-1.1c-.6-11.2-7.2-20.7-16.9-25.1h35.4c-9.7 4.4-16.3 13.9-16.9 25.1v1.1h6.2c2.2-3.2 13.9-11.4 20-11.4 6.8 0 12.2 5.5 12.2 12.2 0 6.7-5.4 12.1-12.2 12.1zm-60-56.7c-6.1 0-17.8-8.1-20-11.4h-6.2v8.2c3.2 2.2 11.4 13.9 11.4 20 0 6.8-5.5 12.2-12.2 12.2s-12.2-5.5-12.2-12.2c0-6.1 8.1-17.8 11.4-20v-8.2H249c-2.2 3.2-13.9 11.4-20 11.4-6.8 0-12.2-5.5-12.2-12.2 0-6.8 5.5-12.2 12.2-12.2 6.1 0 17.8 8.1 20 11.4h6.2v-1.1c-.6-11.2-7.2-20.7-16.9-25.1h35.4c-9.7 4.4-16.3 13.9-16.9 25.1v1.1h6.2c2.2-3.2 13.9-11.4 20-11.4 6.8 0 12.2 5.5 12.2 12.2 0 6.7-5.4 12.2-12.2 12.2zm-60-56.7c-6.1 0-17.8-8.1-20-11.4h-6.2v8.2c3.2 2.2 11.4 13.9 11.4 20 0 6.8-5.5 12.2-12.2 12.2-6.8 0-12.2-5.5-12.2-12.2 0-6.1 8.1-17.8 11.4-20v-8.2H189c-2.2 3.2-13.9 11.4-20 11.4-6.8 0-12.2-5.5-12.2-12.2 0-6.8 5.5-12.2 12.2-12.2 6.1 0 17.8 8.1 20 11.4h6.2v-1.1c-.6-11.2-7.2-20.7-16.9-25.1h35.4c-9.7 4.4-16.3 13.9-16.9 25.1v1.1h6.2c2.2-3.2 13.9-11.4 20-11.4 6.8 0 12.2 5.5 12.2 12.2s-5.4 12.2-12.2 12.2zm120 0c-6.1 0-17.8-8.1-20-11.4h-6.2v8.2c3.2 2.2 11.4 13.9 11.4 20 0 6.8-5.5 12.2-12.2 12.2s-12.2-5.5-12.2-12.2c0-6.1 8.1-17.8 11.4-20v-8.2H309c-2.2 3.2-13.9 11.4-20 11.4-6.8 0-12.2-5.5-12.2-12.2 0-6.8 5.5-12.2 12.2-12.2 6.1 0 17.8 8.1 20 11.4h6.2v-1.1c-.6-11.2-7.2-20.7-16.9-25.1h35.4c-9.7 4.4-16.3 13.9-16.9 25.1v1.1h6.2c2.2-3.2 13.9-11.4 20-11.4 6.8 0 12.2 5.5 12.2 12.2 0 6.7-5.4 12.2-12.2 12.2z"/></svg>