<svg version="1.1" xmlns="http://www.w3.org/2000/svg" x="0" y="0" viewBox="0 0 512 512" xml:space="preserve"><style type="text/css">.st0{fill:#eec646}.st1{fill:#36434f}</style><path class="st0" d="M243 469v41c0 1.4 1.5 2.4 2.8 1.8l18.3-7.8c3-1.3 4.9-4.2 4.9-7.4V469h-26z"/><path class="st1" d="M256 371h-59v5.3c0 2.7 1.5 5.3 3.8 6.7 21.1 13 35.2 36.4 35.2 63v23c0 2.2 1.8 4 4 4h32c2.2 0 4-1.8 4-4v-23c0-26.6 14.1-50 35.2-63 2.3-1.4 3.8-3.9 3.8-6.7V371h-59z"/><path fill="#122a3a" d="M315 376v-5H197v5z"/><path class="st1" d="M322.5 362h-133v7c0 2.2 1.8 4 4 4h125c2.2 0 4-1.8 4-4v-7z"/><path class="st0" d="M319 128c-2.1-47.3-6.2-91.7-8.5-113.6-.8-8.2-7.7-14.4-15.9-14.4h-77.2c-8.2 0-15.1 6.2-15.9 14.4-2.2 21.9-6.3 66.3-8.5 113.6-2.7 60.9-6.3 208.5-6.9 234.9-.1 2.2 1.8 4.1 4 4.1h131.8c2.2 0 4.1-1.8 4-4.1-.6-26.4-4.2-174-6.9-234.9z"/></svg>