<svg version="1.1" xmlns="http://www.w3.org/2000/svg" x="0" y="0" viewBox="0 0 512 512" xml:space="preserve"><path d="M256 27C129.5 27 27 129.5 27 256s102.5 229 229 229 229-102.5 229-229S382.5 27 256 27zm0 315c-47.5 0-86-38.5-86-86s38.5-86 86-86 86 38.5 86 86-38.5 86-86 86z" fill="#36434f"/><path d="M256 0C114.6 0 0 114.6 0 256s114.6 256 256 256 256-114.6 256-256S397.4 0 256 0zm32 192.6l-22.3 38.6c-3-1.2-6.3-1.8-9.7-1.8s-6.7.7-9.7 1.8L224 192.6c9.6-4.9 20.5-7.6 32-7.6s22.4 2.8 32 7.6zM267.2 256c0 5.5-4 10-9.2 11v8.8c0 1.1-.9 2-2 2s-2-.9-2-2V267c-5.2-.9-9.2-5.5-9.2-11 0-1.3.2-2.6.7-3.8l-7.6-4.4c-1-.6-1.3-1.8-.7-2.7.6-1 1.8-1.3 2.7-.7l7.6 4.4c2-2.4 5.1-3.9 8.5-3.9s6.5 1.5 8.5 3.9l7.6-4.4c1-.6 2.2-.2 2.7.7.6 1 .2 2.2-.7 2.7l-7.6 4.4c.4 1.2.7 2.5.7 3.8zm-37.5-4h-44.6c.6-10.8 3.6-21.5 9.4-31.5 5.8-10 13.6-18 22.6-23.9l22.3 38.6c-5.1 4.1-8.7 10-9.7 16.8zm0 8c1 6.8 4.6 12.7 9.7 16.8l-22.3 38.6c-9-5.9-16.8-13.9-22.6-23.9s-8.8-20.7-9.4-31.5h44.6zm16.6 20.8c3 1.2 6.3 1.8 9.7 1.8s6.7-.7 9.7-1.8l22.3 38.6c-9.6 4.9-20.5 7.6-32 7.6s-22.4-2.8-32-7.6l22.3-38.6zm26.3-4c5.1-4.1 8.7-10 9.7-16.8h44.6c-.6 10.8-3.6 21.5-9.4 31.5s-13.6 18-22.6 23.9l-22.3-38.6zm9.7-24.8c-1-6.8-4.6-12.7-9.7-16.8l22.3-38.6c9 5.9 16.8 13.9 22.6 23.9 5.8 10 8.8 20.7 9.4 31.5h-44.6zM55.8 308.7c-13.4-50.9-7.5-107 20.9-156.2s74-82.4 124.9-96.2c13.4-3.7 26.4 7.1 25.3 20.9l-8.4 101.4c-15 7.2-28 18.9-36.9 34.4s-12.5 32.6-11.3 49.2l-83.6 58c-11.5 7.9-27.3 2-30.9-11.5zm346 94.3c-37.4 37.1-88.9 60-145.8 60s-108.3-22.9-145.8-60c-9.9-9.8-7.1-26.4 5.5-32.4l92-43.4c13.8 9.3 30.4 14.8 48.2 14.8s34.5-5.5 48.2-14.8l92 43.4c12.8 5.9 15.5 22.6 5.7 32.4zm23.6-82.8l-83.6-58c1.2-16.6-2.4-33.7-11.3-49.2s-22-27.1-36.9-34.4l-8.4-101.4C284 63.4 297 52.6 310.4 56.3c50.8 13.8 96.4 47 124.9 96.2 28.4 49.2 34.3 105.3 20.9 156.2-3.6 13.5-19.4 19.4-30.8 11.5z" fill="#ddd"/></svg>