<svg version="1.1" xmlns="http://www.w3.org/2000/svg" x="0" y="0" viewBox="0 0 512 512" xml:space="preserve"><style type="text/css">.st0{fill:#bbb}</style><path class="st0" d="M130 0h252v512H130z"/><path fill="#ddd" d="M145 15h222v497H145z"/><path class="st0" d="M337.5 488.5h-163v-139h163v139zm-153-10h143v-119h-143v119zm153-155h-163v-272h5c9.9 0 20.7-2.8 32.2-5.7 13.3-3.4 28.3-7.3 44.3-7.3 16.1 0 31.1 3.9 44.3 7.3 11.4 2.9 22.3 5.7 32.2 5.7h5v272zm-153-10h143V61.3c-9.6-.7-19.4-3.2-29.7-5.9-13.3-3.4-27.1-7-41.8-7s-28.5 3.5-41.8 7c-10.3 2.6-20.1 5.2-29.7 5.9v252.2z"/><path d="M162 298h-4c-1.7 0-3-1.3-3-3v-29c0-1.7 1.3-3 3-3h4c1.7 0 3 1.3 3 3v29c0 1.7-1.3 3-3 3z" fill="#36434f"/></svg>