<svg version="1.1" xmlns="http://www.w3.org/2000/svg" x="0" y="0" viewBox="0 0 512 512" xml:space="preserve"><style type="text/css">.st0{fill:#bbb}.st2{fill:#79b1d1}.st3{opacity:.15;fill:#fff}</style><path class="st0" d="M86 0h340v512H86z"/><path fill="#ddd" d="M104 18h304v494H104z"/><path class="st0" d="M253.5 18h5v494h-5zm-27 31h-96v408h96V49z"/><path class="st2" d="M135.5 54h86v398h-86z"/><path class="st3" d="M221.5 221.9V54h-86v242.2z"/><path class="st0" d="M133 250.5h91v5h-91zm0 100.8h91v5h-91zm0-201.5h91v5h-91zM381.3 49h-96v408h96V49z"/><path class="st2" d="M290.3 54h86v398h-86z"/><path class="st3" d="M376.3 88.1V54h-86v108.5z"/><path class="st0" d="M287.5 250.5H379v5h-91.5zm0 100.8H379v5h-91.5zm0-201.5H379v5h-91.5z"/><path opacity=".15" fill="#444" d="M86 0h170v512H86z"/></svg>