<svg version="1.1" xmlns="http://www.w3.org/2000/svg" x="0" y="0" viewBox="0 0 512 512" xml:space="preserve"><style type="text/css">.st0{fill:#cc584c}</style><path class="st0" d="M198.5 56.7c2.6 75.9 11.3 150.2 25.6 222.4 10.3 1.9 21 2.8 31.9 2.8 10.9 0 21.5-1 31.9-2.8 14.4-72.3 23.1-146.5 25.6-222.4.4-13.2-9.7-24.2-22.8-25.1-11.5-.8-23-1.1-34.7-1.1-11.7 0-23.2.4-34.7 1.1-13.1.9-23.3 12-22.8 25.1zM70.4 477.9c64.4-40.1 124.4-84.8 179.8-133.4-3.6-9.9-8-19.6-13.5-29-5.4-9.4-11.6-18.2-18.4-26.2-69.8 23.7-138.5 53.3-205.4 89-11.6 6.2-16.1 20.5-10.3 32.3 5.1 10.3 10.5 20.5 16.3 30.6 5.8 10.1 11.9 19.9 18.3 29.5 7.3 10.9 22 14.1 33.2 7.2zm428.7-99.7c-67-35.7-135.7-65.3-205.4-89-6.8 8-13 16.8-18.4 26.2-5.4 9.4-9.9 19.1-13.5 29 55.4 48.6 115.4 93.3 179.8 133.4 11.2 7 25.8 3.7 33.2-7.2 6.4-9.5 12.5-19.4 18.3-29.5 5.8-10.1 11.3-20.3 16.3-30.6 5.9-11.7 1.4-26.1-10.3-32.3z"/><path class="st0" d="M256 259.7c-24.6 0-44.6 20-44.6 44.6s20 44.6 44.6 44.6 44.6-20 44.6-44.6c0-24.7-20-44.6-44.6-44.6zm0 63.8c-10.6 0-19.3-8.6-19.3-19.3 0-10.6 8.6-19.3 19.3-19.3 10.6 0 19.3 8.6 19.3 19.3 0 10.7-8.7 19.3-19.3 19.3z"/><path d="M256 259.7c-24.6 0-44.6 20-44.6 44.6s20 44.6 44.6 44.6 44.6-20 44.6-44.6c0-24.7-20-44.6-44.6-44.6zm0 63.8c-10.6 0-19.3-8.6-19.3-19.3 0-10.6 8.6-19.3 19.3-19.3 10.6 0 19.3 8.6 19.3 19.3 0 10.7-8.7 19.3-19.3 19.3z" opacity=".5" fill="#444"/><path d="M256 323.5c-10.6 0-19.3-8.6-19.3-19.3S245.4 285 256 285V30.5c-11.7 0-23.2.4-34.7 1.1-13.1.9-23.3 11.9-22.8 25.1 2.5 74.1 10.9 146.7 24.7 217.4-4.4 4.8-7.8 10.5-9.7 16.9-68.1 23.4-135.1 52.4-200.6 87.3-11.6 6.2-16.1 20.5-10.3 32.3 5.1 10.3 10.5 20.5 16.3 30.6 5.8 10.1 11.9 19.9 18.3 29.5 7.3 11 22 14.2 33.2 7.2 62.9-39.2 121.6-82.8 175.9-130 3.1.7 6.4 1.1 9.7 1.1v-25.5z" opacity=".15" fill="#444"/></svg>