<svg version="1.1" xmlns="http://www.w3.org/2000/svg" x="0" y="0" viewBox="0 0 512 512" xml:space="preserve"><style type="text/css">.st0{fill:#a18267}.st1{fill:#e0ac7e}</style><path class="st0" d="M298.3 409.5v-10H315v-10h-16.7v-10h8.4v-10H290v-10h16.7v-10H222v10h-16.7v10H197v10h25v20h-16.7v10H197v10h8.3v10H197v10h25v20h-16.7v10h8.4v10H290v-10h8.3v-10H315v-10h-8.3v-10h-8.4v-20H290v-10z"/><path class="st1" d="M311.3 8.8c-9.5-3.1-19.4-5.5-29.6-6.9L256 0l-25.7 1.9c-10.2 1.5-20.1 3.8-29.6 6.9-8.2 2.7-13.7 10.4-13.7 19V73c0 11 9 20 20 20 19.3 0 35 15.7 35 35v376c0 4.4 3.6 8 8 8h12c4.4 0 8-3.6 8-8V128c0-19.3 15.7-35 35-35 11 0 20-9 20-20V27.8c0-8.6-5.5-16.3-13.7-19zM289 33c0 6.6-5.4 12-12 12h-42c-6.6 0-12-5.4-12-12v-3c0-6.6 5.4-12 12-12h42c6.6 0 12 5.4 12 12v3z"/><path class="st0" d="M307.5 68h-103c-1.1 0-2-.9-2-2v-7c0-1.1.9-2 2-2h103c1.1 0 2 .9 2 2v7c0 1.1-.9 2-2 2z"/><path class="st1" d="M226 349.5h8v130h-8z"/></svg>