<svg version="1.1" xmlns="http://www.w3.org/2000/svg" x="0" y="0" viewBox="0 0 512 512" xml:space="preserve"><path d="M460.1 101.4L101.4 460.1c-2.7-2-5.3-4.1-7.9-6.2L453.8 93.5c2.2 2.6 4.3 5.3 6.3 7.9zM115.5 470c99.3 65.4 234.2 54.3 321.5-33s98.4-222.2 33-321.5L115.5 470z" fill="#cc584c"/><path d="M42 396.5C-23.4 297.2-12.4 162.4 75 75s222.2-98.4 321.5-33L42 396.5zm9.9 14.1c2 2.7 4.1 5.3 6.2 7.9L418.5 58.2c-2.6-2.1-5.2-4.2-7.9-6.2L51.9 410.6z" fill="#2e86b7"/><path d="M58.2 418.5L418.5 58.2C424.9 63.4 431.1 69 437 75c6 6 11.6 12.2 16.8 18.5L93.5 453.8C87.1 448.6 80.9 443 75 437c-6-5.9-11.6-12.1-16.8-18.5zm-16.2-22c3.1 4.8 6.5 9.5 10 14.1L410.6 51.9c-4.6-3.5-9.3-6.8-14.1-10L42 396.5zm418.1-295.1L101.4 460.1c4.6 3.5 9.3 6.8 14.1 10L470 115.5c-3.1-4.8-6.4-9.5-9.9-14.1z" fill="#f4f4f4"/><path d="M256 0c103.8 0 188 114.6 188 256s-84.2 256-188 256c141.4 0 256-114.6 256-256S397.4 0 256 0zM68 256C68 114.6 152.2 0 256 0 114.6 0 0 114.6 0 256s114.6 256 256 256C152.2 512 68 397.4 68 256z" fill="#444" opacity=".15"/></svg>