<svg version="1.1" xmlns="http://www.w3.org/2000/svg" x="0" y="0" viewBox="0 0 512 512" xml:space="preserve"><style type="text/css">.st0{fill:#36434f}</style><path class="st0" d="M273.5 152.6h-32c-.1-.9-1-3.9-7.5-12.1-2.2-2.8-7.2-5.8-12.5-9-14.7-8.8-36.9-22.2-38.3-56.5-.8-19.2 6.2-37.6 19.8-51.8C217.2 8.5 237 0 257.5 0c32.1 0 60.4 20.4 70.5 50.8l-30.4 10.1C291.9 43.6 275.8 32 257.5 32c-11.8 0-23.2 4.9-31.4 13.4-7.5 7.8-11.4 17.9-11 28.3.7 16.3 8.7 21.9 22.9 30.5 7.4 4.5 15.1 9.1 20.9 16.4 7.6 9.3 14.6 19.8 14.6 32z"/><path class="st0" d="M480 512H32c-17.7 0-32-14.3-32-32V148c0-17.7 14.3-32 32-32h448c17.7 0 32 14.3 32 32v332c0 17.7-14.3 32-32 32z"/><circle cx="256" cy="314" r="103.5" fill="#4b5d6b"/><path class="st0" d="M216.9 342.6h-11.3v-43.7L192 303v-9.2l23.7-8.5h1.2v57.3zm57-23.7c0 7.9-1.6 13.9-4.9 18.1s-8.1 6.3-14.4 6.3c-6.2 0-11-2.1-14.3-6.2s-5-10-5.1-17.7V309c0-8 1.7-14 5-18.2 3.3-4.1 8.1-6.2 14.3-6.2 6.2 0 11 2 14.3 6.1s5 10 5.1 17.6v10.6zm-11.3-11.5c0-4.7-.6-8.2-1.9-10.4-1.3-2.2-3.3-3.2-6.1-3.2-2.7 0-4.6 1-5.9 3.1-1.3 2.1-1.9 5.3-2 9.6v13.9c0 4.7.6 8.1 1.9 10.4s3.3 3.4 6.1 3.4 4.8-1.1 6-3.3c1.2-2.2 1.9-5.5 1.9-10v-13.5zm57.4 11.5c0 7.9-1.6 13.9-4.9 18.1s-8.1 6.3-14.4 6.3c-6.2 0-11-2.1-14.3-6.2s-5-10-5.1-17.7V309c0-8 1.7-14 5-18.2s8.1-6.2 14.3-6.2c6.2 0 11 2 14.3 6.1s5 10 5.1 17.6v10.6zm-11.3-11.5c0-4.7-.6-8.2-1.9-10.4-1.3-2.2-3.3-3.2-6.1-3.2-2.7 0-4.6 1-5.9 3.1s-1.9 5.3-2 9.6v13.9c0 4.7.6 8.1 1.9 10.4s3.3 3.4 6.1 3.4 4.8-1.1 6-3.3c1.2-2.2 1.9-5.5 1.9-10v-13.5z"/></svg>