<svg version="1.1" xmlns="http://www.w3.org/2000/svg" x="0" y="0" viewBox="0 0 512 512" xml:space="preserve"><style type="text/css">.st0{fill:#eec646}.st1{fill:#cc584c}.st5{fill:#36434f}</style><path class="st0" d="M245 64h19v38h-19z"/><path class="st0" d="M251 89h-16c-1.1 0-2-.9-2-2V76c0-1.1.9-2 2-2h16v15z"/><path class="st0" d="M231 77.5h6v8h-6zm-2 10h-1c-1.1 0-2-.9-2-2v-8c0-1.1.9-2 2-2h1c1.1 0 2 .9 2 2v8c0 1.1-.9 2-2 2zM261 64h16v19h-16z"/><path class="st1" d="M274 118V98h-36v20l-22.4 14.4c-10.3 6.6-16.6 18-16.6 30.3V476c0 19.9 16.1 36 36 36h42c19.9 0 36-16.1 36-36V162.7c0-12.3-6.2-23.7-16.6-30.3L274 118z"/><path d="M289.5 356h-67c-4.4 0-8-3.6-8-8V225c0-4.4 3.6-8 8-8h67c4.4 0 8 3.6 8 8v123c0 4.4-3.6 8-8 8z" fill="#f4f4f4"/><path d="M275.7 291.6v2c0 1.9-1.5 3.5-3.5 3.5-1.9 0-3.5-1.5-3.5-3.5V289c0-4.1-1.1-8.2-3-11.9-.2-.3-.3-.6-.5-.9-5.3-10.3-10.1-25.9-9.4-27.3h-.1c-3.9 2.8-6.1 7.3-6.1 12v17.4c0 2.8-2.3 5.1-5.1 5.1s-5.1-2.3-5.1-5.1v-3.8c-4.3 11.2-6.9 23-6.9 29.6 0 8.4 4.5 15.8 11.1 20h24.8c6.7-4.2 11.1-11.6 11.1-20 0-5.5-1.5-9.1-3.8-12.5z" fill="#df7148"/><path d="M248.7 324.1h14.6c2.8-2.2 4.6-5.6 4.6-9.4 0-3.6-1.9-11-5.6-17.5-3.1-5.5-8.1-10.6-8.1-10.6s-1.5 5.6-4.1 11.9c-2.5 6.1-6 12.9-6 16.2 0 3.8 1.8 7.2 4.6 9.4z" fill="#e79c47"/><path class="st0" d="M260.4 324.1h-8.9c-1.7-1.3-2.8-3.4-2.8-5.7 0-2.2 1.2-6.7 3.4-10.6 1.9-3.4 4.9-6.4 4.9-6.4s.9 3.4 2.5 7.2c1.5 3.7 3.7 7.9 3.7 9.8 0 2.3-1 4.3-2.8 5.7z"/><path class="st5" d="M298 87h-20c-1.1 0-2-.9-2-2V62c0-1.1.9-2 2-2h20v27z"/><path class="st5" d="M302.7 48.3c-3.4 1-5.7 4.1-5.7 7.7v35c0 3.5 2.3 6.7 5.7 7.7l94.1 27.8c2.6.8 5.1-1.2 5.1-3.8V24.4c0-2.7-2.6-4.6-5.1-3.8l-94.1 27.7z"/><path class="st1" d="M271.3 47.6l-63.4-33.2L164.5.2c-2.8-.9-5.8.8-6.4 3.7-.6 2.5 1.1 5.1 3.5 5.9L204 23.6l27.2 14.3c1.7.9 3.1 2.4 3.8 4.3l3 7.8-4.4 5.6c-1.4 1.7-3.4 2.8-5.6 3l-59 5.5-23.5 7.1c-2.6.8-4.1 3.6-3.3 6.2.7 2.2 2.6 3.5 4.8 3.5.5 0 1-.1 1.5-.2l22.5-6.9 96.5-9c2.2-.2 3.9-1.8 4.4-3.7l2-8c.5-2-.5-4.4-2.6-5.5z"/><circle class="st5" cx="247.4" cy="45.8" r="2.4"/><circle cx="265.2" cy="59.2" r="2.8" fill="#ddd"/></svg>