<svg version="1.1" xmlns="http://www.w3.org/2000/svg" x="0" y="0" viewBox="0 0 512 512" xml:space="preserve"><style type="text/css">.st1{fill:#038387}.st2{fill:#36434f}</style><path d="M15.2 194.5c-4.2 0-7.8 3-8.5 7.1L0 230.5 4.7 242l7.8-8.2 4.2 10.5 7.8-8.2 4.2 10.5 7.8-8.2 4.2 10.5 7.8-8.2 4.2 10.5 7.8-8.2 4.2 10.5 7.8-8.2 4.2 10.5 7.8-8.2 4.2 10.5 7.8-8.2 4.2 10.5 7.8-8.2 4.2 10.5 7.8-8.2 4.2 10.5 7.8-8.2 4.2 10.5 7.8-8.2 4.2 10.5 7.8-8.2 4.2 10.5 7.8-8.2 4.2 10.5 7.8-8.2 4.2 10.5 7.8-8.2 4.2 10.5 7.8-8.2 4.2 10.5 7.8-8.2 4.2 10.5 7.8-8.2 4.2 10.5 7.8-8.2 4.2 10.5 7.8-8.2 4.2 10.5 7.8-8.2 4.2 10.5 7.8-8.2 4.2 10.5 7.8-8.2 4.2 10.5 7.8-8.2 4.2 10.5 7.8-8.2 4.2 10.5 7.8-8.2 4.2 10.5 7.8-8.2 4.2 10.5 7.8-8.2 4.2 10.5 7.8-8.2 4.2 10.5 7.8-8.2 4.2 10.5 7.8-8.2 4.2 10.5 7.8-8.2 2.4-1.4v-50l-21.7-20.3v-30.8l45.7-10.3H15.2zm34.3 18c4.7 0 8.5 3.8 8.5 8.5s-3.8 8.5-8.5 8.5-8.5-3.8-8.5-8.5 3.8-8.5 8.5-8.5z" fill="#bbb"/><path class="st1" d="M483 197.5l-.9 2c-2.5 5.5-2.1 11.9 1.2 17 6 9.4 15.4 25.5 18.7 38 5 19 7 64 7 64l-66-8 26.2-7.8c5.3-1.6 7.7-7.8 4.7-12.5-6.9-10.9-17.6-28.8-20.9-40.7-3.4-12.3-4-26.1-4.1-33.5 0-3.5-1.9-6.7-4.8-8.4L427 197.5h56z"/><path class="st1" d="M356 211.6v52.7c0 3.3 1.4 6.5 3.8 8.8l40.6 38.1c3 2.8 6.8 4.5 10.9 4.8l98.9 7.4c1 .1 1.8-.7 1.8-1.7v-3.2c0-1.1-.8-2.1-2-2.3l-64.6-8.7c-4.7-.6-8.7-3.5-10.9-7.7l-29.1-56.6c-1.6-3.1-4.2-5.4-7.4-6.7l-14.8-5.9c-2.8-1.1-4.1-4.5-2.6-7.2l8.4-15.9 96-8.7c1.2-.1 1.8-1.6 1-2.5l-5.5-6.1c-.9-1-2.3-1.6-3.7-1.5l-107.3 6.6c-2.3.1-4.4 1.2-5.8 2.9l-5.1 6.1c-1.7 2.1-2.6 4.6-2.6 7.3z"/><circle class="st2" cx="368" cy="218.5" r="6"/><circle class="st2" cx="368" cy="250.5" r="6"/><circle class="st2" cx="401" cy="296.5" r="6"/></svg>