<svg xmlns="http://www.w3.org/2000/svg" viewBox="0 0 512 512" xml:space="preserve"><path d="M398.4 0H113.6c-10.5 0-19 8.5-19 19v474c0 10.5 8.5 19 19 19h284.8c10.5 0 19-8.5 19-19V19c0-10.5-8.5-19-19-19z" fill="#f4f4f4"/><path d="M152.8 26.5h-14.2V65h-9.5V26.5h-14v-7.7h37.6v7.7zm206.4 459h14.2V447h9.5v38.5h14v7.7h-37.6v-7.7zM256 229.7c-29-31.8-54.2-1.8-37.4 18.3 1.3 1.5 2.8 2.9 4.4 4.1 7.2 5.5 10.5 8.8 18.3 17.7 8.4 9.4 14.7 26.5 14.7 26.5s6.3-17 14.7-26.5c7.8-8.8 11.1-12.1 18.3-17.7 1.6-1.2 3.1-2.6 4.4-4.1 16.8-20.1-8.4-50.1-37.4-18.3zM134 80.3c-12.5-13.7-23.4-.8-16.1 7.9.6.7 1.2 1.2 1.9 1.8 3.1 2.4 4.5 3.8 7.9 7.6 3.6 4.1 6.3 11.4 6.3 11.4s2.7-7.4 6.3-11.4c3.4-3.8 4.8-5.2 7.9-7.6.7-.5 1.3-1.1 1.9-1.8 7.3-8.7-3.6-21.7-16.1-7.9zm244 351.4c-12.5 13.7-23.4.8-16.1-7.9.6-.7 1.2-1.2 1.9-1.8 3.1-2.4 4.5-3.8 7.9-7.6 3.6-4.1 6.3-11.4 6.3-11.4s2.7 7.4 6.3 11.4c3.4 3.8 4.8 5.2 7.9 7.6.7.5 1.3 1.1 1.9 1.8 7.3 8.7-3.6 21.7-16.1 7.9z" fill="#cc584c"/><path d="M113.6 0c-10.5 0-19 8.5-19 19v474c0 10.5 8.5 19 19 19H256V0H113.6z" opacity=".15" fill="#444"/></svg>