<svg xmlns="http://www.w3.org/2000/svg" viewBox="0 0 512 512" xml:space="preserve"><style>.st0{fill:#ddd}</style><path class="st0" d="m0 261 192 164 260-141 60-202-274 141z"/><path fill="#d5d5d5" d="m238 223-46 202 260-141z"/><path class="st0" d="m321.3 296.8 1.4-1.6-82.4-71.6-2.3-.6-.3 1.1z"/><path fill="#c7c7c7" d="m282 176 132 80-186 80z"/><path class="st0" d="m321 296 1.8-.8-39.5-118.4-1.3-.8-.5 1.6z"/><path d="m0 261 414-5-222 169zM512 82l-98 174 38 28z" fill="#bbb"/><path fill="#999" d="M414 256 192 425l260-141z"/></svg>