<svg xmlns="http://www.w3.org/2000/svg" viewBox="0 0 512 512" xml:space="preserve"><style>.st0{fill:#ddd}</style><path class="st0" d="M408 404.3c-33.4 0-46.8-23.1-47.3-24.1l15.7-8.8c.3.5 9.1 14.9 31.7 14.9 25.1 0 60.8-19.6 73.8-48.7 7-15.6 7.7-30.5 2.1-40.9-4.6-8.4-13.1-13.6-25.2-15.5-27.5-4.3-41.4 37-41.6 37.4l-17.1-5.6c.8-2.3 18.9-56.2 61.4-49.6 22.4 3.5 33.2 15.3 38.3 24.7 8.4 15.3 7.8 36.1-1.5 56.9-16.4 36.5-59.6 59.2-90.3 59.3z"/><ellipse cx="256" cy="428.3" rx="256" ry="20" fill="#bbb"/><path class="st0" d="M111 367.3c26 52 66 72 75 95h140c9-23 49-43 75-95 17.4-34.8 27.2-76.3 31.8-100 1.9-9.9-5.6-19-15.7-19H95c-10.1 0-17.6 9.2-15.7 19 4.5 23.7 14.3 65.2 31.7 100z"/><path d="M512 428.3c0 11-114.6 20-256 20s-256-9-256-20c0 21.3 43.1 40.2 108.9 51.6l10.1 13.4c0 6.6 61.3 12 137 12s137-5.4 137-12l10.1-13.4c65.8-11.4 108.9-30.3 108.9-51.6z" fill="#999"/><path d="M237.8 238.7c-7.2-8.1-13.5-16.9-19.3-26.2-5.7-9.3-10.8-19.2-14.5-29.8-1.9-5.3-3.4-10.8-4.4-16.6-.3-1.4-.4-2.9-.6-4.4-.2-1.5-.3-2.9-.4-4.4-.2-3.2-.1-6.4.3-9.5.8-6.4 2.8-12.4 5.4-17.9 2.6-5.5 5.7-10.6 9-15.3 6.5-9.4 13.5-17.8 19.2-25.9 2.9-4 5.4-7.9 7.5-11.7 2-3.7 3.5-7.2 4.3-10.6.4-1.8.6-3.2.9-5.8l.6-7.2c.2-4.9.3-9.8 0-14.8-.5-10-2-20.3-4.9-31-.1-.3.1-.6.4-.7.2 0 .4 0 .5.1 2.4 1.7 4.5 3.6 6.5 5.7s3.8 4.3 5.5 6.7c3.4 4.7 6.3 9.8 8.6 15.2s4.2 11 5.4 16.8c.3 1.4.6 2.9.9 4.4.2 1.5.5 2.9.6 4.4.4 2.7.5 6.7.1 10.2-.8 7.2-3.3 13.8-6.4 19.5s-6.9 10.4-10.7 14.8c-3.8 4.3-7.7 8.2-11.5 12s-7.4 7.4-10.8 11.1c-6.7 7.4-12.1 15-14.5 23.4-.6 2.1-1 4.2-1.2 6.4-.1 1.2-.1 2.4-.2 3.6v3.6c.1 4.9.7 9.9 1.7 14.9s2.3 10 3.8 15 3.4 9.9 5.3 14.8c3.9 9.8 8.6 19.4 13.8 28.7.2.3.1.6-.2.8-.3 0-.6-.1-.7-.3zm24.2-.8c7.3-3.6 14.4-7.5 20.7-11.9 3.2-2.2 6.1-4.7 8.8-7.2 2.6-2.6 4.8-5.4 6.3-8.3.3-.7.8-1.4 1-2.2.1-.4.3-.7.4-1.1l.3-1.1c.1-.4.2-.7.2-1.1l.2-1.1c0-.7.2-1.4.2-2.2 0-.7 0-1.4-.1-2.2 0-.8-.2-1.5-.3-2.2-.3-1.4-.7-2.7-1.4-4-2.4-4.9-8.2-9-14.9-13.7-1.7-1.2-3.4-2.4-5.2-3.8-1.7-1.3-3.5-2.9-5.2-4.5-1.7-1.7-3.3-3.6-4.8-5.8-1.4-2.2-2.7-4.6-3.5-7.2-.9-2.6-1.2-5.2-1.4-7.8 0-1.3-.1-2.5.1-3.8.1-.6.1-1.3.2-1.9l.3-1.9c.2-1.3.6-2.4.9-3.6.4-1.2.8-2.3 1.3-3.4s1-2.2 1.6-3.2l.9-1.5.9-1.5c2.5-3.9 5.5-7.2 8.7-10.2s6.6-5.6 10.1-7.9c3.6-2.3 7.2-4.4 11-6.1 3.8-1.8 7.6-3.4 11.6-4.5.3-.1.6.1.7.4.1.2 0 .5-.2.6-6.4 5.1-12.5 10.3-18 15.9-2.8 2.8-5.3 5.7-7.6 8.7-1.1 1.5-2.2 3-3.2 4.5-.9 1.6-1.9 3.1-2.6 4.7l-.6 1.2-.5 1.2c-.4.8-.5 1.6-.8 2.4-.2.8-.4 1.6-.6 2.3-.1.8-.3 1.5-.3 2.3-.2 3 0 6.1 1.1 8.6.2.6.6 1.2.9 1.9.4.6.7 1.2 1.1 1.8.8 1.2 1.9 2.3 3.1 3.4 2.4 2.3 5.4 4.4 8.7 6.7 1.6 1.2 3.3 2.4 5.1 3.7 1.7 1.3 3.5 2.7 5.2 4.3s3.4 3.4 5 5.4 2.9 4.3 4 6.7 1.7 5.1 2.1 7.6c.2 1.3.3 2.6.2 3.8 0 1.2-.1 2.6-.2 3.8-.5 5.2-2.7 10.1-5.5 14-1.4 2-3 3.8-4.7 5.3-1.7 1.6-3.4 3-5.3 4.3-3.6 2.6-7.5 4.6-11.4 6.3s-7.9 3-12 4c-4 1-8.1 1.8-12.3 2.1-.3 0-.6-.2-.6-.5-.1-.2.1-.4.3-.5z" fill="#7193ad"/><path d="M256 22.6v77.3c-1.2 1.6-2.5 3.1-3.8 4.5-3.8 4.3-7.7 8.2-11.5 12s-7.4 7.4-10.8 11.1c-6.7 7.4-12.1 15-14.5 23.4-.6 2.1-1 4.2-1.2 6.4-.1 1.2-.1 2.4-.2 3.6v3.6c.1 4.9.7 9.9 1.7 14.9s2.3 10 3.8 15 3.4 9.9 5.3 14.8c3.9 9.8 8.6 19.4 13.8 28.7.2.3.1.6-.2.8-.2.1-.5.1-.7-.1-7.2-8.1-13.5-16.9-19.3-26.2-5.7-9.3-10.8-19.2-14.5-29.8-1.9-5.3-3.4-10.8-4.4-16.6-.3-1.4-.4-2.9-.6-4.4-.2-1.5-.3-2.9-.4-4.4-.2-3.2-.1-6.4.3-9.5.8-6.4 2.8-12.4 5.4-17.9 2.6-5.5 5.7-10.6 9-15.3 6.5-9.4 13.5-17.8 19.2-25.9 2.9-4 5.4-7.9 7.5-11.7 2-3.7 3.5-7.2 4.3-10.6.4-1.8.6-3.2.9-5.8l.6-7.2c.2-4.9.3-9.8 0-14.8-.5-10-2-20.3-4.9-31-.1-.3.1-.6.4-.7.2 0 .4 0 .5.1 2.4 1.7 4.5 3.6 6.5 5.7s3.8 4.3 5.5 6.7c.8 1.1 1.6 2.2 2.3 3.3zM79.3 267.3c4.5 23.7 14.3 65.2 31.7 100 8.8 17.6 19.2 31.5 29.5 43.1C57.1 413.7 0 420.5 0 428.3c0 21.3 43.1 40.2 108.9 51.6l10.1 13.4c0 6.6 61.3 12 137 12v-257H95c-10.1 0-17.6 9.2-15.7 19z" opacity=".15" fill="#444"/></svg>