<svg version="1.1" xmlns="http://www.w3.org/2000/svg" x="0" y="0" viewBox="0 0 512 512" xml:space="preserve"><style type="text/css">.st1{fill:#f4f4f4}.st3{fill:#bbb}.st4{fill:#122a3a}</style><path fill="#36434f" d="M0 0h512v512H0z"/><path class="st1" d="M486.4 475.6c0 5.9-4.9 10.8-10.8 10.8H36.4c-5.9 0-10.8-4.9-10.8-10.8V36.4c0-5.9 4.9-10.8 10.8-10.8h439.2c5.9 0 10.8 4.9 10.8 10.8v439.2z"/><path d="M414.9 401.4H97.2c-3.2 0-5.8-2.6-5.8-5.9v-279c0-3.2 2.6-5.8 5.8-5.8h317.7c3.2 0 5.9 2.6 5.9 5.8v279c-.1 3.2-2.7 5.9-5.9 5.9zM97.2 111.6c-2.7 0-5 2.3-5 4.9v279c0 2.7 2.3 5 5 5h317.7c2.7 0 4.9-2.3 4.9-5v-279c0-2.7-2.3-4.9-4.9-4.9H97.2z" fill="#999"/><circle class="st3" cx="256" cy="256" r="110.3"/><path class="st3" d="M256 145.8c60.9 0 110.3 49.3 110.3 110.3S316.9 366.3 256 366.3 145.8 316.9 145.8 256 195.1 145.8 256 145.8m0-3.7c-30.4 0-59 11.9-80.5 33.4s-33.4 50.1-33.4 80.5 11.9 59 33.4 80.5 50.1 33.4 80.5 33.4 59-11.9 80.5-33.4c21.4-21.5 33.4-50.1 33.4-80.5s-11.9-59-33.4-80.5c-21.5-21.4-50.1-33.4-80.5-33.4z"/><path class="st4" d="M221.4 256c0 8.2-6.7 14.9-14.9 14.9s-14.9-6.7-14.9-14.9 6.7-14.9 14.9-14.9 14.9 6.7 14.9 14.9zm84.1-14.9c-8.2 0-14.9 6.7-14.9 14.9s6.7 14.9 14.9 14.9 14.9-6.7 14.9-14.9-6.7-14.9-14.9-14.9z"/><circle class="st1" cx="256" cy="256" r="14.9"/><path class="st1" d="M348.7 272.2h16.4c-2.3 15.8-8 30.6-16.4 43.5v-43.5zm0-32.4h16.4c-2.3-15.8-8-30.6-16.4-43.5v43.5zm-185.4 75.9v-43.5h-16.4c2.4 15.8 8 30.6 16.4 43.5zm-16.4-75.9h16.4v-43.5c-8.4 12.9-14 27.7-16.4 43.5z"/><path class="st4" d="M238.4 339.7h35.1v25.1c-5.8.9-11.6 1.4-17.5 1.4s-11.8-.5-17.6-1.4v-25.1zM256 145.8c-5.9 0-11.8.4-17.6 1.4v25.1h35.1v-25.1c-5.7-1-11.6-1.4-17.5-1.4z"/><path class="st1" d="M263.2 178.6h-14.4v-22.5h14.4v22.5zm-14.4 177.3h14.4v-22.5h-14.4v22.5z"/><path d="M36.4 25.6c-5.9 0-10.8 4.9-10.8 10.8v439.2c0 5.9 4.9 10.8 10.8 10.8H256V25.6H36.4z" opacity=".15" fill="#444"/></svg>