<svg version="1.1" xmlns="http://www.w3.org/2000/svg" x="0" y="0" viewBox="0 0 512 512" xml:space="preserve"><style type="text/css">.st2{fill:#36434f}</style><path d="M512 500c0 6.6-5.4 12-12 12H12c-6.6 0-12-5.4-12-12V12C0 5.4 5.4 0 12 0h488c6.6 0 12 5.4 12 12v488z" fill="#ddd"/><path d="M218.5 131.5c-2.2 0-4 1.8-4 4v241.1c0 2.2 1.8 4 4 4h75c2.2 0 4-1.8 4-4V135.5c0-2.2-1.8-4-4-4h-75z" fill="#bbb"/><path class="st2" d="M220.5 222h71v152.5h-71z"/><path fill="#5e6972" d="M220.5 137.5h71V207h-71z"/><path fill="#868e95" d="M220.5 206.5h71v16h-71z"/><circle class="st2" cx="256" cy="81" r="15"/><circle class="st2" cx="256" cy="431" r="15"/><path d="M12 0C5.4 0 0 5.4 0 12v488c0 6.6 5.4 12 12 12h244V0H12z" opacity=".15" fill="#444"/><path d="m221 374-58.1-169.9c-4.1-11.9.1-25.1 10.3-32.5L221 137v237z" opacity=".1" fill="#444"/></svg>