<svg version="1.1" xmlns="http://www.w3.org/2000/svg" x="0" y="0" viewBox="0 0 512 512" xml:space="preserve"><style type="text/css">.st1{fill:#cc584c}</style><path d="M459.8 479.2l-11.5-18.7c-10.7-17.4-17.5-37-19.7-57.4L413 263.5c-5.1-45.3-30.2-85.9-68.4-110.6L292 108l-36-2-36 2-52.6 44.9C129.1 177.6 104 218.2 99 263.5L83.4 403.1c-2.3 20.3-9 39.9-19.7 57.4l-11.5 18.7c-8.8 14.3 1.5 32.8 18.3 32.8h371c16.8 0 27.1-18.5 18.3-32.8zM327.7 1.5L301.1 0c-5.4-.3-10.4 2.9-12.4 7.9l-3.1 7.7c-.9 2.2-3.2 3.5-5.6 3L267.6 16c-7.6-1.6-15.5-1.6-23.1 0L232 18.7c-2.3.5-4.7-.8-5.6-3l-3-7.7c-2-5-7-8.2-12.4-7.9l-26.6 1.4c-15.9.9-24.1 19.4-14 31.7L220 94l1 1.5h70l1-1.5 49.6-60.8c10.1-12.3 2-30.9-13.9-31.7z" fill="#e0ac7e"/><path class="st1" d="M220 94h72v14h-72z"/><path d="M329 368.5H183c-3.3 0-6-2.7-6-6v-73c0-3.3 2.7-6 6-6h146c3.3 0 6 2.7 6 6v73c0 3.3-2.7 6-6 6z" fill="#ffcc80"/><path d="M341.9 17.6c-7 7-17.3 11.4-28.9 11.4-10.5 0-20-3.6-26.9-9.5-1-.9-1.3-2.3-.7-3.5 0-.1.1-.2.1-.3l3.1-7.7c2-5 7-8.2 12.4-7.9l26.6 1.4c6.6.4 11.8 3.7 15 8.4 1.7 2.4 1.4 5.6-.7 7.7zm-115.4-1.9L223.4 8c-2-5-7-8.2-12.4-7.9l-26.6 1.4c-6.6.4-11.8 3.7-15 8.4-1.6 2.4-1.3 5.6.8 7.7 7 7 17.3 11.4 28.9 11.4 10.5 0 20-3.6 26.9-9.5 1-.9 1.3-2.3.7-3.5-.2-.1-.2-.2-.2-.3z" opacity=".3" fill="#fff"/><path class="st1" d="M206.8 114c-8.7 0-19-2.2-29-6.1-21.6-8.5-40.4-24.9-34.5-39.7 1.6-4.1 6.5-11 21.6-11.5 9.1-.3 20 1.9 30.8 6.1s20.2 10.1 26.6 16.6c10.6 10.6 9.5 19 7.9 23.1-1.6 4.1-6.5 11-21.6 11.5-.7-.1-1.3 0-1.8 0zm-40.3-43.4h-1.2c-6.1.2-8.7 1.9-9 2.6-1 2.4 6.7 13.6 26.6 21.5 8.9 3.5 18 5.4 25.1 5.1 6.1-.2 8.7-1.9 9-2.6.3-.8-.5-3.8-4.8-8.1-5-5-13-9.9-21.9-13.4-8.3-3.2-16.9-5.1-23.8-5.1z"/><path class="st1" d="M183.2 124.5c-22.9 0-45.9-8.1-46-23.8-.2-16 23.2-24.5 46.4-24.7 11.6-.1 22.5 1.8 30.9 5.3 13.8 5.9 16 14.1 16 18.5s-1.9 12.6-15.7 18.7c-8.3 3.7-19.3 5.8-30.8 5.9-.2.1-.5.1-.8.1zm1.3-34.5h-.8c-21.4.2-32.6 7.9-32.6 10.5 0 2.6 11.4 10.1 32.8 9.9 9.5-.1 18.7-1.8 25.2-4.7 5.6-2.5 7.4-5 7.4-5.8 0-.8-1.8-3.3-7.5-5.7-6.3-2.7-15.2-4.2-24.5-4.2z"/></svg>