<svg version="1.1" xmlns="http://www.w3.org/2000/svg" x="0" y="0" viewBox="0 0 512 512" xml:space="preserve"><style type="text/css">.st0{fill:#36434f}.st1{fill:#ddd}</style><path class="st0" d="M364.9 478.3H126V512h238.9c9.5 0 17.1-7.6 17.1-16.9.1-9.3-7.6-16.8-17.1-16.8z"/><path class="st0" d="m128.905 460.968 3.815-33.484 250.586 28.549-3.815 33.484z"/><path class="st0" d="m384.8 455.5-260.5 22.8c-9.3.8-16.1 9-15.3 18.3.8 9.3 9 16.1 18.3 15.3l260.5-22.8c9.3-.8 16.1-9 15.3-18.3-.9-9.2-9-16.1-18.3-15.3z"/><path class="st1" d="m384.8 455.5-260.5 22.8c-9.3.8-16.1 9-15.3 18.3.8 9.3 9 16.1 18.3 15.3l260.5-22.8c9.3-.8 16.1-9 15.3-18.3-.9-9.2-9-16.1-18.3-15.3z"/><path class="st0" d="m128.828 410.359 3.815-33.484 250.586 28.549-3.815 33.484z"/><path class="st1" d="m384.8 404.9-260.5 22.8c-9.3.8-16.1 9-15.3 18.3.8 9.3 9 16.1 18.3 15.3l260.5-22.8c9.3-.8 16.1-9 15.3-18.3-.9-9.2-9-16.1-18.3-15.3z"/><path class="st0" d="m128.839 359.76 3.815-33.485 250.585 28.549-3.814 33.484z"/><path class="st1" d="m384.8 354.3-260.5 22.8c-9.3.8-16.1 9-15.3 18.3.8 9.3 9 16.1 18.3 15.3l260.5-22.8c9.3-.8 16.1-9 15.3-18.3-.9-9.2-9-16.1-18.3-15.3z"/><path class="st0" d="m128.75 309.148 3.815-33.484 250.586 28.549-3.815 33.484z"/><path class="st1" d="m384.8 303.7-260.5 22.8c-9.3.8-16.1 9-15.3 18.3.8 9.3 9 16.1 18.3 15.3l260.5-22.8c9.3-.8 16.1-9 15.3-18.3-.9-9.2-9-16.1-18.3-15.3z"/><path class="st0" d="m128.761 258.548 3.815-33.484 250.586 28.549-3.815 33.484z"/><path class="st1" d="m384.8 253.1-260.5 22.8c-9.3.8-16.1 9-15.3 18.3.8 9.3 9 16.1 18.3 15.3l260.5-22.8c9.3-.8 16.1-9 15.3-18.3-.9-9.2-9-16.1-18.3-15.3z"/><path class="st0" d="m128.783 207.849 3.815-33.484 250.586 28.549-3.815 33.484z"/><path class="st1" d="m384.8 202.5-260.5 22.8c-9.3.8-16.1 9-15.3 18.3.8 9.3 9 16.1 18.3 15.3l260.5-22.8c9.3-.8 16.1-9 15.3-18.3-.9-9.2-9-16.1-18.3-15.3z"/><path class="st0" d="m128.794 157.25 3.815-33.485 250.586 28.549-3.815 33.484z"/><path class="st1" d="m384.8 151.9-260.5 22.8c-9.3.8-16.1 9-15.3 18.3.8 9.3 9 16.1 18.3 15.3l260.5-22.8c9.3-.8 16.1-9 15.3-18.3-.9-9.3-9-16.1-18.3-15.3z"/><path class="st0" d="m128.805 106.65 3.815-33.485 250.586 28.549-3.815 33.484z"/><path class="st1" d="m384.8 101.3-260.5 22.8c-9.3.8-16.1 9-15.3 18.3.8 9.3 9 16.1 18.3 15.3l260.5-22.8c9.3-.8 16.1-9 15.3-18.3-.9-9.3-9-16.1-18.3-15.3z"/><path class="st0" d="m128.816 56.05 3.815-33.485 250.586 28.55-3.815 33.484z"/><path class="st1" d="M384.8 50.7 124.3 73.5c-9.3.8-16.1 9-15.3 18.3s9 16.1 18.3 15.3l260.5-22.8c9.3-.8 16.1-9 15.3-18.3-.9-9.3-9-16.1-18.3-15.3z"/><path class="st0" d="M147.1 0C137.6 0 130 7.6 130 16.9c0 9.3 7.7 16.9 17.1 16.9H386V0H147.1z"/><path class="st1" d="M384.8.1 124.3 22.9c-9.3.8-16.1 9-15.3 18.3s9 16.1 18.3 15.3l260.5-22.8c9.3-.8 16.1-9 15.3-18.3-.9-9.3-9-16.1-18.3-15.3z"/></svg>