<svg xmlns="http://www.w3.org/2000/svg" viewBox="0 0 512 512" xml:space="preserve"><path d="M294.6 155 64 303.6V155h230.6M512 91H0v330L512 91z" fill="#eec646"/><path d="M77.5 105.5V116h-4v-10.5h4zm228 10.5V95h-4v21h4zm19 0v-10.5h-4V116h4zm-213-21v21h4V95h-4zm-19 10.5V116h4v-10.5h-4zm251 10.5v-10.5h-4V116h4zm95 0v-10.5h-4V116h4zm-76 0v-10.5h-4V116h4zm95 0v-10.5h-4V116h4zm-327-10.5V116h4v-10.5h-4zm289 10.5v-10.5h-4V116h4zm-19 0V95h-4v21h4zm-19 0v-10.5h-4V116h4zm-342 0v-10.5h-4V116h4zm19 0v-10.5h-4V116h4zm224-10.5V116h4v-10.5h-4zm-19 0V116h4v-10.5h-4zm-114 0V116h4v-10.5h-4zM20.5 95h-4v21h4V95zm148 10.5V116h4v-10.5h-4zm19 0V116h4v-10.5h-4zm57 0V116h4v-10.5h-4zm-19 0V116h4v-10.5h-4zm-19-10.5v21h4V95h-4z" fill="#f4f4f4"/></svg>