<svg version="1.1" xmlns="http://www.w3.org/2000/svg" x="0" y="0" viewBox="0 0 512 512" xml:space="preserve"><style type="text/css">.st0{fill:#ffa000}.st3{fill:#bbb}</style><path class="st0" d="M278.5 215v-3h-45v3c0 6.6 5.4 12 12 12h5c-1.7 0-3 1.3-3 3v.5c0 1.4 1.1 2.5 2.5 2.5 1.1 0 2 .9 2 2s-.9 2-2 2h-.5c-1.1 0-2 .9-2 2v1c0 1.7-1.3 3-3 3h-5.8c-2.1 0-4 1.5-4.2 3.6-.2 2.4 1.6 4.4 4 4.4h34.8c2.1 0 4-1.5 4.2-3.6.2-2.4-1.6-4.4-4-4.4h-6c-1.7 0-3-1.3-3-3v-1c0-1.1-.9-2-2-2h-.5c-1.1 0-2-.9-2-2s.9-2 2-2c1.4 0 2.5-1.1 2.5-2.5v-.5c0-1.7-1.3-3-3-3h5c6.6 0 12-5.4 12-12z"/><path fill="#eec646" d="M341 0H171L68 213h376z"/><path class="st0" d="M439.2 203l-2-4H74.8l-2 4zm-273-193l-2 4h183.6l-2-4z"/><path d="M324 320c-12-27-40-28-40-35s10-14 10-14h-76s10 7 10 14-28 8-40 35c-19 49 51 151 40 156s-26 11-26 11h108s-15-6-26-11 59-107 40-156zm-1 179h-1c-3.3 0-6-2.7-6-6s-2.7-6-6-6H202c-3.3 0-6 2.7-6 6s-2.7 6-6 6h-1c-3.3 0-6 2.7-6 6v7h146v-7c0-3.3-2.7-6-6-6zm-27.8-240h-2.7c-2.2 0-4-1.8-4-4s-1.8-4-4-4h-57c-2.2 0-4 1.8-4 4s-1.8 4-4 4h-2.7c-3.3 0-6.2 2.5-6.2 5.8-.1 3.4 2.6 6.2 6 6.2h79c3.4 0 6.1-2.8 6-6.2-.2-3.3-3.1-5.8-6.4-5.8z" fill="#ddd"/><path class="st3" d="M295.5 271h-79c-3.3 0-6-2.7-6-6s2.7-6 6-6h79c3.3 0 6 2.7 6 6s-2.7 6-6 6z"/><path d="M329 512H183v-7c0-3.3 2.7-6 6-6h134c3.3 0 6 2.7 6 6v7z" fill="#36434f"/><path opacity=".5" fill="#fff" d="M389 213h-61.8l-33-213h13.2z"/><path class="st3" d="M228.4 469c1.1 3.9 1.1 6.3-.4 7-2.2 1-4.5 2-6.8 3h69.6c-2.3-1-4.6-2-6.8-3-1.5-.7-1.5-3.1-.4-7h-55.2z"/></svg>