<svg version="1.1" xmlns="http://www.w3.org/2000/svg" x="0" y="0" viewBox="0 0 512 512" xml:space="preserve"><path fill="#4caf50" d="M129 0h254v512H129z"/><path d="M320.5 496c-25.6 0-46.5-20.9-46.5-46.5s20.9-46.5 46.5-46.5 46.5 20.9 46.5 46.5-20.9 46.5-46.5 46.5zm0-77c-16.8 0-30.5 13.7-30.5 30.5s13.7 30.5 30.5 30.5 30.5-13.7 30.5-30.5-13.7-30.5-30.5-30.5zm-129 77c-25.6 0-46.5-20.9-46.5-46.5s20.9-46.5 46.5-46.5 46.5 20.9 46.5 46.5-20.9 46.5-46.5 46.5zm0-77c-16.8 0-30.5 13.7-30.5 30.5s13.7 30.5 30.5 30.5 30.5-13.7 30.5-30.5-13.7-30.5-30.5-30.5zm129-52c-25.6 0-46.5-20.9-46.5-46.5s20.9-46.5 46.5-46.5 46.5 20.9 46.5 46.5-20.9 46.5-46.5 46.5zm0-77c-16.8 0-30.5 13.7-30.5 30.5s13.7 30.5 30.5 30.5 30.5-13.7 30.5-30.5-13.7-30.5-30.5-30.5zm-129 77c-25.6 0-46.5-20.9-46.5-46.5s20.9-46.5 46.5-46.5 46.5 20.9 46.5 46.5-20.9 46.5-46.5 46.5zm0-77c-16.8 0-30.5 13.7-30.5 30.5s13.7 30.5 30.5 30.5 30.5-13.7 30.5-30.5-13.7-30.5-30.5-30.5zm129-52c-25.6 0-46.5-20.9-46.5-46.5s20.9-46.5 46.5-46.5 46.5 20.9 46.5 46.5-20.9 46.5-46.5 46.5zm0-77c-16.8 0-30.5 13.7-30.5 30.5s13.7 30.5 30.5 30.5 30.5-13.7 30.5-30.5-13.7-30.5-30.5-30.5zm-129 77c-25.6 0-46.5-20.9-46.5-46.5s20.9-46.5 46.5-46.5 46.5 20.9 46.5 46.5-20.9 46.5-46.5 46.5zm0-77c-16.8 0-30.5 13.7-30.5 30.5s13.7 30.5 30.5 30.5 30.5-13.7 30.5-30.5-13.7-30.5-30.5-30.5zm129-52c-25.6 0-46.5-20.9-46.5-46.5S294.9 16 320.5 16 367 36.9 367 62.5 346.1 109 320.5 109zm0-77C303.7 32 290 45.7 290 62.5S303.7 93 320.5 93 351 79.3 351 62.5 337.3 32 320.5 32zm-129 77c-25.6 0-46.5-20.9-46.5-46.5S165.9 16 191.5 16 238 36.9 238 62.5 217.1 109 191.5 109zm0-77C174.7 32 161 45.7 161 62.5S174.7 93 191.5 93 222 79.3 222 62.5 208.3 32 191.5 32z" opacity=".5" fill="#338738"/><path d="M191.5 32c16.8 0 30.5 13.7 30.5 30.5S208.3 93 191.5 93 161 79.3 161 62.5 174.7 32 191.5 32m0-8C170.2 24 153 41.2 153 62.5s17.2 38.5 38.5 38.5S230 83.8 230 62.5 212.8 24 191.5 24zm129 8c16.8 0 30.5 13.7 30.5 30.5S337.3 93 320.5 93 290 79.3 290 62.5 303.7 32 320.5 32m0-8C299.2 24 282 41.2 282 62.5s17.2 38.5 38.5 38.5S359 83.8 359 62.5 341.8 24 320.5 24zm-129 137c16.8 0 30.5 13.7 30.5 30.5S208.3 222 191.5 222 161 208.3 161 191.5s13.7-30.5 30.5-30.5m0-8c-21.3 0-38.5 17.2-38.5 38.5s17.2 38.5 38.5 38.5 38.5-17.2 38.5-38.5-17.2-38.5-38.5-38.5zm129 8c16.8 0 30.5 13.7 30.5 30.5S337.3 222 320.5 222 290 208.3 290 191.5s13.7-30.5 30.5-30.5m0-8c-21.3 0-38.5 17.2-38.5 38.5s17.2 38.5 38.5 38.5 38.5-17.2 38.5-38.5-17.2-38.5-38.5-38.5zm-129 137c16.8 0 30.5 13.7 30.5 30.5S208.3 351 191.5 351 161 337.3 161 320.5s13.7-30.5 30.5-30.5m0-8c-21.3 0-38.5 17.2-38.5 38.5s17.2 38.5 38.5 38.5 38.5-17.2 38.5-38.5-17.2-38.5-38.5-38.5zm129 8c16.8 0 30.5 13.7 30.5 30.5S337.3 351 320.5 351 290 337.3 290 320.5s13.7-30.5 30.5-30.5m0-8c-21.3 0-38.5 17.2-38.5 38.5s17.2 38.5 38.5 38.5 38.5-17.2 38.5-38.5-17.2-38.5-38.5-38.5zm-129 137c16.8 0 30.5 13.7 30.5 30.5S208.3 480 191.5 480 161 466.3 161 449.5s13.7-30.5 30.5-30.5m0-8c-21.3 0-38.5 17.2-38.5 38.5s17.2 38.5 38.5 38.5 38.5-17.2 38.5-38.5-17.2-38.5-38.5-38.5zm129 8c16.8 0 30.5 13.7 30.5 30.5S337.3 480 320.5 480 290 466.3 290 449.5s13.7-30.5 30.5-30.5m0-8c-21.3 0-38.5 17.2-38.5 38.5s17.2 38.5 38.5 38.5 38.5-17.2 38.5-38.5-17.2-38.5-38.5-38.5z" fill="#338738"/></svg>