<svg version="1.1" xmlns="http://www.w3.org/2000/svg" x="0" y="0" viewBox="0 0 512 512" xml:space="preserve"><path d="M398.4 0H113.6c-10.5 0-19 8.5-19 19v474c0 10.5 8.5 19 19 19h284.8c10.5 0 19-8.5 19-19V19c0-10.5-8.5-19-19-19z" fill="#f4f4f4"/><path d="M387.7 446.4h9.2v35.4l10.9-3.4v7.5l-19.1 6.9h-1v-46.4zm-39.6 19.1c0-6.4 1.3-11.3 4-14.7 2.6-3.4 6.5-5.1 11.6-5.1 5 0 8.9 1.7 11.6 5 2.7 3.3 4 8.1 4.1 14.3v8.5c0 6.5-1.3 11.4-4 14.7-2.7 3.3-6.5 5-11.6 5-5 0-8.9-1.7-11.6-5-2.7-3.3-4-8.1-4.1-14.3v-8.4zm9.2 9.4c0 3.8.5 6.6 1.6 8.4 1 1.7 2.7 2.6 4.9 2.6s3.8-.8 4.8-2.5 1.6-4.3 1.6-7.8v-11.2c0-3.8-.5-6.6-1.5-8.4-1-1.8-2.7-2.7-4.9-2.7s-3.9.9-4.9 2.6c-1 1.8-1.5 4.4-1.6 8.1v10.9zm-233-409.3h-9.2V30.2l-10.9 3.4v-7.5l19.1-6.9h1v46.4zm39.6-19.1c0 6.4-1.3 11.3-4 14.7-2.6 3.4-6.5 5.1-11.6 5.1-5 0-8.9-1.7-11.6-5-2.7-3.3-4-8.1-4.1-14.3v-8.5c0-6.5 1.3-11.4 4-14.7 2.7-3.3 6.5-5 11.6-5 5 0 8.9 1.7 11.6 5 2.7 3.3 4 8.1 4.1 14.3v8.4zm-9.2-9.4c0-3.8-.5-6.6-1.6-8.4-1-1.7-2.7-2.6-4.9-2.6s-3.8.8-4.8 2.5-1.6 4.3-1.6 7.8v11.2c0 3.8.5 6.6 1.5 8.4 1 1.8 2.7 2.7 4.9 2.7s3.9-.9 4.9-2.6c1-1.8 1.5-4.4 1.6-8.1V37.1zm-38.1 54.5c7.2 4.1 13.3 10.1 17.4 17.4 4.1-7.2 10.1-13.3 17.4-17.4-3.5-2-6.7-4.4-9.6-7.2-3-3-5.7-6.4-7.8-10.2a45.45 45.45 0 01-17.4 17.4zm278.8 328.8c-3.5-2-6.7-4.4-9.6-7.2-3-3-5.7-6.4-7.8-10.2-4.1 7.2-10.1 13.3-17.4 17.4 7.2 4.1 13.3 10.1 17.4 17.4 4.1-7.3 10.1-13.3 17.4-17.4zM216.8 142.5c16.4 9.3 29.9 22.9 39.2 39.2 9.3-16.4 22.9-29.9 39.2-39.2-7.5-4.3-14.5-9.5-20.7-15.4-7.3-7-13.5-15-18.6-23.8-9.2 16.4-22.8 30-39.1 39.2zm0 227c16.4 9.3 29.9 22.9 39.2 39.2 9.3-16.4 22.9-29.9 39.2-39.2-8.1-4.6-15.5-10.2-22.1-16.8-6.7-6.7-12.5-14.2-17.2-22.5-9.2 16.4-22.8 30-39.1 39.3zm-60-283.7c16.4 9.3 29.9 22.9 39.2 39.2 9.3-16.4 22.9-29.9 39.2-39.2-7.8-4.4-14.9-9.8-21.3-16-7-6.8-13.1-14.7-17.9-23.2-9.3 16.3-22.9 29.9-39.2 39.2zm120 0c16.4 9.3 29.9 22.9 39.2 39.2 9.3-16.4 22.9-29.9 39.2-39.2-7.8-4.4-14.9-9.8-21.2-15.9-7-6.8-13.1-14.7-18-23.3-9.3 16.3-22.9 29.9-39.2 39.2zm-120 113.5c16.4 9.3 29.9 22.9 39.2 39.2 9.3-16.4 22.9-29.9 39.2-39.2-8-4.5-15.3-10.1-21.8-16.5-6.8-6.7-12.7-14.4-17.4-22.7-9.3 16.3-22.9 29.9-39.2 39.2zm120 0c16.4 9.3 29.9 22.9 39.2 39.2 9.3-16.4 22.9-29.9 39.2-39.2-7.7-4.4-14.8-9.7-21.2-15.9-7.1-6.9-13.2-14.7-18.1-23.4-9.2 16.4-22.8 30-39.1 39.3zm-120 113.4c16.4 9.3 29.9 22.9 39.2 39.2 9.3-16.4 22.9-29.9 39.2-39.2-8.5-4.8-16.2-10.7-22.9-17.6-6.3-6.4-11.8-13.7-16.3-21.6-9.3 16.4-22.9 29.9-39.2 39.2zm120 0c16.4 9.3 29.9 22.9 39.2 39.2 9.3-16.4 22.9-29.9 39.2-39.2-8.4-4.8-16.1-10.7-22.9-17.6-6.3-6.5-11.9-13.7-16.3-21.6-9.3 16.4-22.9 29.9-39.2 39.2zm-120 113.5c16.4 9.3 29.9 22.9 39.2 39.2 9.3-16.4 22.9-29.9 39.2-39.2-8.8-5-16.8-11.2-23.7-18.5-6-6.2-11.2-13.2-15.5-20.8-9.3 16.4-22.9 30-39.2 39.3zm120 0c16.4 9.3 29.9 22.9 39.2 39.2 9.3-16.4 22.9-29.9 39.2-39.2-7.2-4.1-13.9-9-19.9-14.7-7.6-7.1-14.1-15.4-19.3-24.5-9.3 16.3-22.9 29.9-39.2 39.2z" fill="#cc584c"/></svg>