<svg xmlns="http://www.w3.org/2000/svg" viewBox="0 0 512 512" xml:space="preserve"><style>.st0{fill:#2e86b7}.st1{fill:#79b1d1}</style><path class="st0" d="m222.837 218.896 2.296-11.778 159.003 30.99-2.296 11.779zM44.6 365.7c-4.8-9-29.1-56.6-39.7-111.4-5.3-27.4-6.3-52.1-2.8-73.4 4.2-26.1 15.1-47.3 32.3-63 25.3-23.2 55.9-31.7 88.3-24.6 48 10.5 89.3 52.2 103.7 86.2l-11 4.7c-13.4-31.6-52.7-69.9-95.2-79.2-28.9-6.3-55 1-77.7 21.7-73.9 67.5 9.2 226.5 12.8 233.3l-10.7 5.7zm179.2-67.3 79.5 12.5-79.5 70.9z"/><path class="st1" d="m449.3 149.6-3.2-.4-232.2 227.4 8.8 56.3 240.2-268.4-.6-3.6z"/><path class="st1" d="M230.4 474.4h-173c-8.8 0-16-7.2-16-16v-270c0-8.8 7.2-16 16-16h173c8.8 0 16 7.2 16 16v270c0 8.8-7.2 16-16 16z"/><path class="st0" d="M41.4 241.9h205v8h-205zm0 16h205v8h-205zm0 160h205v8h-205zm0 16h205v8h-205zM503.6 40l-52.3 104.2-5.1 5 16.7 15.3 4.1-4.5 31.3-8.1c8.1-2.1 13.7-9 13.7-17V41.8c0-4.4-6.4-5.8-8.4-1.8z"/></svg>