<svg version="1.1" xmlns="http://www.w3.org/2000/svg" x="0" y="0" viewBox="0 0 512 512" xml:space="preserve"><style type="text/css">.st1{fill:#667e8e}.st2{fill:#ddd}.st3{fill:#999}</style><path d="M435 280H77c-3.3 0-6-2.7-6-6v-69c0-3.3 2.7-6 6-6h358c3.3 0 6 2.7 6 6v69c0 3.3-2.7 6-6 6z" opacity=".1" fill="#f4f4f4"/><path class="st1" d="M147.5 130C85.4 130 35 180.4 35 242.5S85.4 355 147.5 355 260 304.6 260 242.5 209.6 130 147.5 130zm0 166C118 296 94 272 94 242.5s24-53.5 53.5-53.5 53.5 24 53.5 53.5-24 53.5-53.5 53.5z"/><path class="st2" d="M147.5 187c-30.7 0-55.5 24.8-55.5 55.5s24.8 55.5 55.5 55.5 55.5-24.8 55.5-55.5-24.8-55.5-55.5-55.5zm0 79c-13 0-23.5-10.5-23.5-23.5s10.5-23.5 23.5-23.5 23.5 10.5 23.5 23.5-10.5 23.5-23.5 23.5z"/><path class="st2" d="M144.5 224.3v-19.8h6v19.8c-1-.2-2-.3-3-.3s-2 .1-3 .3zm20.3 11.7l17.1-9.9-3-5.2-17.1 9.9c1.3 1.5 2.3 3.3 3 5.2zm-31.6-5.2l-17.1-9.9-3 5.2 17.1 9.9c.7-1.9 1.7-3.7 3-5.2zm28.6 23.4l17.1 9.9 3-5.2-17.1-9.9c-.7 1.9-1.7 3.7-3 5.2zm-14.3 6.8c-1 0-2-.1-3-.3v19.8h6v-19.8c-1 .2-2 .3-3 .3zm-17.3-12l-17.1 9.9 3 5.2 17.1-9.9c-1.3-1.5-2.3-3.3-3-5.2z"/><path class="st3" d="M147.5 275.5c-18.2 0-33-14.8-33-33s14.8-33 33-33 33 14.8 33 33-14.8 33-33 33zm0-65c-17.6 0-32 14.4-32 32s14.4 32 32 32 32-14.4 32-32-14.4-32-32-32z"/><path class="st1" d="M364.5 156c-47.8 0-86.5 38.7-86.5 86.5s38.7 86.5 86.5 86.5 86.5-38.7 86.5-86.5-38.7-86.5-86.5-86.5zm0 127.6c-22.7 0-41.1-18.4-41.1-41.1s18.4-41.1 41.1-41.1 41.1 18.4 41.1 41.1-18.4 41.1-41.1 41.1z"/><path class="st2" d="M364.5 187c-30.7 0-55.5 24.8-55.5 55.5s24.8 55.5 55.5 55.5 55.5-24.8 55.5-55.5-24.8-55.5-55.5-55.5zm0 79c-13 0-23.5-10.5-23.5-23.5s10.5-23.5 23.5-23.5 23.5 10.5 23.5 23.5-10.5 23.5-23.5 23.5z"/><path class="st2" d="M361.5 224.3v-19.8h6v19.8c-1-.2-2-.3-3-.3s-2 .1-3 .3zm20.3 11.7l17.1-9.9-3-5.2-17.1 9.9c1.3 1.5 2.3 3.3 3 5.2zm-31.6-5.2l-17.1-9.9-3 5.2 17.1 9.9c.7-1.9 1.7-3.7 3-5.2zm28.6 23.4l17.1 9.9 3-5.2-17.1-9.9c-.7 1.9-1.7 3.7-3 5.2zm-14.3 6.8c-1 0-2-.1-3-.3v19.8h6v-19.8c-1 .2-2 .3-3 .3zm-17.3-12l-17.1 9.9 3 5.2 17.1-9.9c-1.3-1.5-2.3-3.3-3-5.2z"/><path class="st3" d="M364.5 275.5c-18.2 0-33-14.8-33-33s14.8-33 33-33 33 14.8 33 33-14.8 33-33 33zm0-65c-17.6 0-32 14.4-32 32s14.4 32 32 32 32-14.4 32-32-14.4-32-32-32z"/><path d="M509 306h-1.5V107c0-6.6-5.4-12-12-12h-479c-6.6 0-12 5.4-12 12v199H3c-1.7 0-3 1.3-3 3v78c0 1.7 1.3 3 3 3h1.5v15c0 6.6 5.4 12 12 12h479c6.6 0 12-5.4 12-12v-15h1.5c1.7 0 3-1.3 3-3v-78c0-1.7-1.3-3-3-3zM134.5 411c-6.4 0-11.5-5.1-11.5-11.5s5.1-11.5 11.5-11.5 11.5 5.1 11.5 11.5-5.1 11.5-11.5 11.5zm60.5-15c0 3.3-2.7 6-6 6h-9c-3.3 0-6-2.7-6-6v-7c0-3.3 2.7-6 6-6h9c3.3 0 6 2.7 6 6v7zm143 0c0 3.3-2.7 6-6 6h-9c-3.3 0-6-2.7-6-6v-7c0-3.3 2.7-6 6-6h9c3.3 0 6 2.7 6 6v7zm39.5 15c-6.4 0-11.5-5.1-11.5-11.5s5.1-11.5 11.5-11.5 11.5 5.1 11.5 11.5-5.1 11.5-11.5 11.5zM441 274c0 3.3-2.7 6-6 6H77c-3.3 0-6-2.7-6-6v-69c0-3.3 2.7-6 6-6h358c3.3 0 6 2.7 6 6v69z" fill="#36434f"/><path d="M471 187H41c-3.3 0-6-2.7-6-6v-55c0-3.3 2.7-6 6-6h430c3.3 0 6 2.7 6 6v55c0 3.3-2.7 6-6 6z" fill="#f4f4f4"/><path d="M471 327H41c-3.3 0-6-2.7-6-6v-26c0-3.3 2.7-6 6-6h430c3.3 0 6 2.7 6 6v26c0 3.3-2.7 6-6 6zM71 142.5h370v2H71zm0 20h370v2H71z" fill="#cc584c"/><path d="M422 343.5c-1.2-5.5-6.1-9.5-11.7-9.5H101.7c-5.7 0-10.5 4-11.7 9.5L74.2 417h363.6L422 343.5zM134.5 411c-6.4 0-11.5-5.1-11.5-11.5s5.1-11.5 11.5-11.5 11.5 5.1 11.5 11.5-5.1 11.5-11.5 11.5zm60.5-15c0 3.3-2.7 6-6 6h-9c-3.3 0-6-2.7-6-6v-7c0-3.3 2.7-6 6-6h9c3.3 0 6 2.7 6 6v7zm35 9v-22l55 11-55 11zm108-9c0 3.3-2.7 6-6 6h-9c-3.3 0-6-2.7-6-6v-7c0-3.3 2.7-6 6-6h9c3.3 0 6 2.7 6 6v7zm39.5 15c-6.4 0-11.5-5.1-11.5-11.5s5.1-11.5 11.5-11.5 11.5 5.1 11.5 11.5-5.1 11.5-11.5 11.5z" opacity=".5" fill="#122a3a"/><path d="M18 98c-6.1 0-11 4.9-11 11s4.9 11 11 11 11-4.9 11-11-4.9-11-11-11zm0 20c-5 0-9-4-9-9s4-9 9-9 9 4 9 9-4 9-9 9zm6-9c0 .6-.4 1-1 1h-1.8l-2.2 2.2v1.8c0 .6-.4 1-1 1s-1-.4-1-1v-1.8l-2.2-2.2H13c-.6 0-1-.4-1-1s.4-1 1-1h1.8l2.2-2.2V104c0-.6.4-1 1-1s1 .4 1 1v1.8l2.2 2.2H23c.6 0 1 .4 1 1zm-6 283c-6.1 0-11 4.9-11 11s4.9 11 11 11 11-4.9 11-11-4.9-11-11-11zm0 20c-5 0-9-4-9-9s4-9 9-9 9 4 9 9-4 9-9 9zm6-9c0 .6-.4 1-1 1h-1.8l-2.2 2.2v1.8c0 .6-.4 1-1 1s-1-.4-1-1v-1.8l-2.2-2.2H13c-.6 0-1-.4-1-1s.4-1 1-1h1.8l2.2-2.2V398c0-.6.4-1 1-1s1 .4 1 1v1.8l2.2 2.2H23c.6 0 1 .4 1 1zM493.5 98c-6.1 0-11 4.9-11 11s4.9 11 11 11 11-4.9 11-11-4.9-11-11-11zm0 20c-5 0-9-4-9-9s4-9 9-9 9 4 9 9-4 9-9 9zm6-9c0 .6-.4 1-1 1h-1.8l-2.2 2.2v1.8c0 .6-.4 1-1 1s-1-.4-1-1v-1.8l-2.2-2.2h-1.8c-.6 0-1-.4-1-1s.4-1 1-1h1.8l2.2-2.2V104c0-.6.4-1 1-1s1 .4 1 1v1.8l2.2 2.2h1.8c.6 0 1 .4 1 1zm-6 283c-6.1 0-11 4.9-11 11s4.9 11 11 11 11-4.9 11-11-4.9-11-11-11zm0 20c-5 0-9-4-9-9s4-9 9-9 9 4 9 9-4 9-9 9zm6-9c0 .6-.4 1-1 1h-1.8l-2.2 2.2v1.8c0 .6-.4 1-1 1s-1-.4-1-1v-1.8l-2.2-2.2h-1.8c-.6 0-1-.4-1-1s.4-1 1-1h1.8l2.2-2.2V398c0-.6.4-1 1-1s1 .4 1 1v1.8l2.2 2.2h1.8c.6 0 1 .4 1 1zM256 352c-6.1 0-11 4.9-11 11s4.9 11 11 11 11-4.9 11-11-4.9-11-11-11zm0 20c-5 0-9-4-9-9s4-9 9-9 9 4 9 9-4 9-9 9zm6-9c0 .6-.4 1-1 1h-1.8l-2.2 2.2v1.8c0 .6-.4 1-1 1s-1-.4-1-1v-1.8l-2.2-2.2H251c-.6 0-1-.4-1-1s.4-1 1-1h1.8l2.2-2.2V358c0-.6.4-1 1-1s1 .4 1 1v1.8l2.2 2.2h1.8c.6 0 1 .4 1 1z" fill="#122a3a"/></svg>