<svg version="1.1" xmlns="http://www.w3.org/2000/svg" x="0" y="0" viewBox="0 0 512 512" xml:space="preserve"><style type="text/css">.st0{fill:#826049}.st2{fill:#36434f}.st3{fill:#ff7f00}.st4{fill:#ffa000}</style><path class="st0" d="M250.5 449h11v37h-11zm26 52c-8.3 0-15-6.7-15-15h-11c0 14.4 11.6 26 26 26s26-11.6 26-26h-11c0 8.3-6.7 15-15 15z"/><circle class="st0" cx="297" cy="486" r="5.5"/><path d="M261.5 449h-11c-1.1 0-2-.9-2-2v-2c0-1.1.9-2 2-2h11c1.1 0 2 .9 2 2v2c0 1.1-.9 2-2 2z" fill="#e0ac7e"/><path class="st2" d="M257.5 3V1c0-.6-.4-1-1-1h-1c-.6 0-1 .4-1 1v2c-1.1 0-2 .9-2 2v20h7V5c0-1.1-.9-2-2-2z"/><path class="st2" d="M262 29h-12v-3c0-1.1.9-2 2-2h8c1.1 0 2 .9 2 2v3z"/><path class="st3" d="M377 170c18.4 0 35.3 6.3 48.6 16.9C419.9 98.2 346.2 28 256 28S92.1 98.2 86.4 186.9C99.7 176.3 116.6 170 135 170c19.4 0 37.1 7 50.7 18.6 20.5-12.4 44.5-19.6 70.3-19.6s49.8 7.2 70.3 19.6C339.9 177 357.6 170 377 170z"/><path class="st2" d="M252.5 139h7v304h-7z"/><path class="st4" d="M381 157c19.4 0 37.2 6.8 51.2 18.2C417.2 91.5 344 28 256 28S94.8 91.5 79.8 175.2c14-11.4 31.8-18.2 51.2-18.2 18.4 0 35.4 6.2 49.1 16.6C201.9 159.3 228 151 256 151s54.1 8.3 75.9 22.6c13.7-10.4 30.7-16.6 49.1-16.6z"/><path d="M232.9 29.5c-29.4 19.6-51.2 75.8-53.7 143.5.3.2.6.4.8.6 21.9-14.3 48-22.6 76-22.6s54.1 8.3 75.9 22.6c.3-.2.6-.4.8-.6-2.5-67.7-24.3-123.9-53.7-143.5-7.5-1-15.2-1.5-23.1-1.5s-15.4.5-23 1.5z" opacity=".15" fill="#444"/><circle class="st3" cx="185.7" cy="191.1" r="2.5"/><circle class="st4" cx="180.1" cy="176.1" r="2.5"/><circle class="st3" cx="326.3" cy="191.1" r="2.5"/><circle class="st4" cx="331.9" cy="176.1" r="2.5"/><circle class="st3" cx="425.6" cy="189.4" r="2.5"/><circle class="st4" cx="432.2" cy="177.7" r="2.5"/><circle class="st4" cx="79.8" cy="177.7" r="2.5"/><circle class="st3" cx="86.4" cy="189.4" r="2.5"/></svg>