<svg xmlns="http://www.w3.org/2000/svg" viewBox="0 0 512 512" xml:space="preserve"><style>.st3{fill:#a18267}</style><path d="M394 512h30V168C424 75.2 348.8 0 256 0S88 75.2 88 168v344h306z" fill="#ddc4b0"/><path d="M256 60c28.8 0 56 11.2 76.4 31.6C352.8 112 364 139.2 364 168v284H148V168c0-28.8 11.2-56 31.6-76.4C200 71.2 227.2 60 256 60" fill="#79b1d1"/><path d="M360.8 141.9c-1.9-7.6-4.5-14.9-8-21.8l-203.4 30.2c-.9 5.8-1.4 11.7-1.4 17.6v32.6l212.8-58.6zM148 350.6l216-59.5v-22.6l-216 32.1z" opacity=".2" fill="#fff"/><path class="st3" d="M256 65c27.5 0 53.4 10.7 72.8 30.2S359 140.5 359 168v279H153V168c0-27.5 10.7-53.4 30.2-72.8S228.5 65 256 65m0-20c-32.9 0-63.7 12.8-87 36s-36 54.1-36 87v299h246V168c0-32.9-12.8-63.7-36-87s-54.1-36-87-36z"/><path class="st3" d="M142.5 190h227v35h-227z"/><path class="st3" d="M243 219h26v237h-26z"/><path class="st3" d="M144 334h224v10H144zM249 60h14v155h-14z"/><path class="st3" d="m252.422 203.953 93.55-93.549 7.07 7.071-93.55 93.55z"/><path class="st3" d="m158.912 117.523 7.07-7.071L259.533 204l-7.07 7.07z"/><path class="st3" d="M191.4 204.3c-.3-2.4-.4-4.9-.4-7.3 0-35.8 29.2-65 65-65s65 29.2 65 65c0 2.5-.2 4.9-.4 7.3h10.1c.2-2.4.4-4.9.4-7.3 0-41.4-33.6-75-75-75s-75 33.6-75 75c0 2.5.1 4.9.4 7.3h9.9zm37.8-171.7c7.4-1.5 15.1-2.3 22.8-2.5V.1c-9.5.2-18.9 1.3-28 3l5.2 29.5zM200 41.8c6.9-3.1 14.1-5.6 21.5-7.5l-5.2-29.6c-9.2 2.2-18 5.2-26.5 8.8L200 41.8zm60-11.7c7.7.2 15.3 1.1 22.8 2.5L288 3.1c-9.1-1.8-18.4-2.8-28-3v30zm-135.8 96.7c2-6.4 4.4-12.5 7.3-18.5L108 88.5c-4 7.4-7.4 15-10.2 23l26.4 15.3zm166.4-92.4c7.4 1.9 14.5 4.4 21.5 7.5l10.3-28.2C313.8 10 305 7 295.8 4.8l-5.2 29.6zM173.8 57.1c6-4.5 12.3-8.4 18.9-11.8L182.4 17c-8.3 4-16.2 8.8-23.7 14.1l15.1 26zm-55 96.2c.7-6.3 1.7-12.5 3.2-18.5l-26.8-15.5c-2.3 7.6-4.1 15.5-5.3 23.5l28.9 10.5zm16.5-52.3c3.4-6.1 7.2-11.9 11.5-17.4l-19.6-23.4c-5.6 6.7-10.7 13.8-15.2 21.3l23.3 19.5zM390 134.8c1.5 6.1 2.6 12.3 3.2 18.5l28.9-10.5c-1.2-8-3-15.9-5.3-23.5L390 134.8zm-36.4-64.4c2.2 2.2 4.4 4.5 6.4 6.9l19.5-23.2c-6.1-6.6-12.7-12.7-19.8-18.3l-15.2 26.3c3.2 2.7 6.2 5.4 9.1 8.3zm-34.3-25.1c6.6 3.4 12.9 7.3 18.9 11.8L353.3 31c-7.5-5.3-15.4-10-23.7-14.1l-10.3 28.4zM152 77.3c2.1-2.4 4.2-4.7 6.4-6.9 2.9-2.9 5.9-5.7 9-8.3l-15.2-26.3c-7.1 5.6-13.7 11.7-19.8 18.3L152 77.3zm-34 101.8V168c0-2.1.1-4.3.2-6.4l-29.3-10.7c-.6 5.6-.9 11.3-.9 17.1v5.8l30 5.3zM394 168v11.1l30-5.3V168c0-5.8-.3-11.5-.9-17.1l-29.3 10.7c.1 2.1.2 4.3.2 6.4zm-28.8-84.4c4.3 5.5 8.1 11.4 11.5 17.4L400 81.4c-4.5-7.5-9.6-14.6-15.2-21.3l-19.6 23.5zM118 203.5v-16.3l-30-5.3v21.6zm262.5-95.2c2.9 6 5.3 12.2 7.3 18.5l26.5-15.3c-2.8-8-6.3-15.6-10.2-23l-23.6 19.8zM88 451.5h30v32H88zm306-160h30v32h-30zm0-40h30v32h-30zm0 80h30v32h-30zm0-120h30v32h-30zm0 160h30v32h-30zm0 120h30V512h-30zm0-304.3v16.3h30v-21.6zM88 491.5h30V512H88zm0-80h30v32H88zm0-80h30v32H88zm0-40h30v32H88zm0-40h30v32H88zm0-40h30v32H88zm306 240h30v32h-30zm0-40h30v32h-30zm-306-40h30v32H88z"/></svg>