<svg xmlns="http://www.w3.org/2000/svg" viewBox="0 0 512 512" xml:space="preserve"><style>.st3{opacity:.15;fill:#444}</style><circle cx="256" cy="256" r="256" fill="#cc584c"/><circle cx="256" cy="256" r="244" fill="#ad403b"/><path d="m379.3 399.5-54.9-54.9 20.2-20.2 54.9 54.9c3.1 3.1 3.1 8.2 0 11.3l-8.9 8.9c-3.1 3.1-8.1 3.1-11.3 0z" fill="#ddd"/><path class="st3" d="m343.7 322.5-21.2 21.2 24.9 24.9c3.9-3.1 7.6-6.5 11.1-10.1s6.9-7.3 10.1-11.1l-24.9-24.9z"/><circle cx="256" cy="256" r="137" fill="#f4f4f4"/><circle cx="256" cy="256" r="126" fill="#a18267"/><path class="st3" d="M256 130c-69.6 0-126 56.4-126 126s56.4 126 126 126 126-56.4 126-126-56.4-126-126-126zm0 247c-66.8 0-121-54.2-121-121s54.2-121 121-121 121 54.2 121 121-54.2 121-121 121z"/><circle cx="256" cy="256" r="109" fill="#66442b"/></svg>