<svg version="1.1" xmlns="http://www.w3.org/2000/svg" x="0" y="0" viewBox="0 0 512 512" xml:space="preserve"><style type="text/css">.st2{fill:#e0ac7e}</style><path d="M278.2 269.5c-4-8.5-4-18.4 0-26.9l55.3-119.4c9.7-17.7 10.5-39 2.1-57.4l-4.1-9.1C326.3 45.3 315 38 302.4 38h-92.8c-12.5 0-23.9 7.3-29.1 18.7l-4.1 9.1c-8.4 18.4-7.6 39.6 2.1 57.4l55.3 119.4c4 8.5 4 18.4 0 26.9l-55.3 119.4c-9.7 17.7-10.5 39-2.1 57.4l4.1 9.1c5.2 11.4 16.6 18.7 29.1 18.7h92.8c12.5 0 23.9-7.3 29.1-18.7l4.1-9.1c8.4-18.4 7.6-39.6-2.1-57.4l-55.3-119.4z" fill="#ddd"/><path d="M131.5 0h22v512h-22zm227 0h22v512h-22z" fill="#a18267"/><path class="st2" d="M114 0h284v12H114z"/><path class="st2" d="M163.5 3.5h185v51h-185zM114 500h284v12H114z"/><path class="st2" d="M163.5 457.5h185v51h-185z"/><path d="M289.8 392.6l-16.3-11c-8.8-5.9-14.1-15.9-14.1-26.6v-96.4c-.4-7.8 1-15.6 4.4-22.8L309 138H203l45.3 97.8c3.4 7.2 4.8 15.1 4.4 22.8V355c0 10.7-5.3 20.6-14.1 26.6l-16.3 11c-5.3 3.6-11.5 5.4-17.9 5.4h-12.6c-6.5 12.9-6.9 28.3-.9 41.6l4.1 9.1c2.6 5.7 8.3 9.4 14.6 9.4h92.8c6.3 0 12-3.7 14.6-9.4l4.1-9.1c6-13.2 5.7-28.6-.9-41.6h-12.6c-6.3 0-12.5-1.9-17.8-5.4z" fill="#eec646"/><path d="M153.5 0H114v12h17.5v488H114v12h142V0H153.5zm80.3 269.5l-55.3 119.4c-9.7 17.7-10.5 39-2.1 57.4l4.1 9.1c.3.8.7 1.5 1.1 2.2h-18.1V500h-10V12h10v42.5h18.1c-.4.7-.8 1.5-1.1 2.2l-4.1 9.1c-8.4 18.4-7.6 39.6 2.1 57.4l55.3 119.4c3.9 8.5 3.9 18.3 0 26.9z" opacity=".15" fill="#444"/><path d="M301 390c-4.4 0-8 3.6-8 8v40c0 4.4 3.6 8 8 8s8-3.6 8-8v-40c0-4.4-3.6-8-8-8zm0-324c-4.4 0-8 3.6-8 8v40c0 4.4 3.6 8 8 8s8-3.6 8-8V74c0-4.4-3.6-8-8-8z" opacity=".5" fill="#f4f4f4"/></svg>