<svg version="1.1" id="icon" xmlns="http://www.w3.org/2000/svg" x="0" y="0" viewBox="0 0 512 512" style="enable-background:new 0 0 512 512" xml:space="preserve"><style type="text/css">.st0{fill:#2e86b7}.st3{fill:#bb9f46}</style><path class="st0" d="M275.5 178v-72.8L228.8 0l-78.2.1 33.6 90.1c6.9 18.5 16.4 35.8 28.4 51.4l37 48.4 25.9-12z"/><path d="M239 70c-9.6 21.7-14.5 44.7-14.5 68.5v18.9l24.9 32.6 26-12v-72.8l-26-58.6L239 70z" style="opacity:.3;fill:#444"/><path class="st0" d="M236.5 178v-39.6c0-21.9 4.6-43.6 13.5-63.6L283.2 0l78.2.1-33.6 90.1c-6.9 18.5-16.4 35.8-28.4 51.4l-37 48.4-25.9-12z"/><circle cx="256" cy="341.5" r="168.5" style="fill:#eec646"/><path class="st3" d="M256 187c41.3 0 80.1 16.1 109.2 45.3 29.2 29.2 45.3 68 45.3 109.2s-16.1 80.1-45.3 109.2C336 479.9 297.2 496 256 496s-80.1-16.1-109.2-45.3c-29.2-29.2-45.3-68-45.3-109.2s16.1-80.1 45.3-109.2S214.7 187 256 187m0-16c-94.2 0-170.5 76.3-170.5 170.5S161.8 512 256 512s170.5-76.3 170.5-170.5S350.2 171 256 171z"/><path class="st3" d="M277.7 434.4h-43.1V297.1l-42.4 12.4v-32.7l81.5-28.2h4v185.8z"/><path d="M249.4 46.6 228.8 0l-78.2.1 33.6 90.1c6.9 18.5 16.4 35.8 28.4 51.4l12 15.8 11.3 14.8c-84.7 10-150.4 82-150.4 169.3C85.5 435.7 161.8 512 256 512V61.3l-6.6-14.7z" style="opacity:.15;fill:#444"/></svg>