<svg version="1.1" xmlns="http://www.w3.org/2000/svg" x="0" y="0" viewBox="0 0 512 512" xml:space="preserve"><style type="text/css">.st1{fill:#36434f}.st2{fill:#ddd}</style><path d="M256 163.4c-20 0-38.5-6.8-53.1-18.3-2.7-2.1-6.6-1.9-9 .6l-48.2 48.2c-2.4 2.4-2.7 6.3-.6 9 11.5 14.7 18.3 33.1 18.3 53.1s-6.8 38.5-18.3 53.1c-2.1 2.7-1.9 6.6.6 9l48.2 48.2c2.4 2.4 6.3 2.7 9 .6 14.7-11.5 33.1-18.3 53.1-18.3s38.5 6.8 53.1 18.3c2.7 2.1 6.6 1.9 9-.6l48.2-48.2c2.4-2.4 2.7-6.3.6-9-11.5-14.7-18.3-33.1-18.3-53.1s6.8-38.5 18.3-53.1c2.1-2.7 1.9-6.6-.6-9l-48.2-48.2c-2.4-2.4-6.3-2.7-9-.6-14.6 11.5-33.1 18.3-53.1 18.3z" fill="#122a3a"/><path class="st1" d="M362.5 103.9c-10.3 5.1-18 14.4-21.2 25.5l-2.4 8.5c-14.6 31.2-46.2 52.8-82.9 52.8s-68.3-21.6-82.9-52.8l-2.4-8.5c-3.2-11.1-10.9-20.4-21.2-25.5l-31-15.4-15 15-15 15 15.4 31c5.1 10.3 14.4 18 25.5 21.2l8.5 2.4c31.2 14.6 52.8 46.2 52.8 82.9s-21.6 68.3-52.8 82.9l-8.5 2.4c-11.1 3.2-20.4 10.9-25.5 21.2l-15.4 31 15 15 15 15 31-15.4c10.3-5.1 18-14.4 21.2-25.5l2.4-8.5c14.6-31.2 46.2-52.8 82.9-52.8s68.3 21.6 82.9 52.8l2.4 8.5c3.2 11.1 10.9 20.4 21.2 25.5l31 15.4 15-15 15-15-15.4-31c-5.1-10.3-14.4-18-25.5-21.2l-8.5-2.4c-31.2-14.6-52.8-46.2-52.8-82.9s21.6-68.3 52.8-82.9l8.5-2.4c11.1-3.2 20.4-10.9 25.5-21.2l15.4-31-15-15-15-15-31 15.4z"/><circle class="st1" cx="103.4" cy="103.4" r="38"/><path class="st2" d="M204.6 2.2c-8-8-35.3 6.4-61 32.1-17.8 17.8-32.6 41.8-39.9 54.9-3.7-.1-7.4 1.3-10.3 4.1s-4.2 6.6-4.1 10.3c-13 7.4-37 22.1-54.9 39.9-25.7 25.7-40.2 53-32.1 61s35.3-6.4 61-32.1c17.8-17.8 32.6-41.8 39.9-54.9 3.7.1 7.4-1.3 10.3-4.1s4.2-6.6 4.1-10.3c13-7.4 37-22.1 54.9-39.9 25.7-25.6 40.1-52.9 32.1-61z"/><circle class="st1" cx="103.4" cy="103.4" r="3.4"/><circle class="st1" cx="408.6" cy="408.6" r="38"/><path class="st2" d="M509.8 307.4c-8-8-35.3 6.4-61 32.1-17.8 17.8-32.6 41.8-39.9 54.9-3.7-.1-7.4 1.3-10.3 4.1s-4.2 6.6-4.1 10.3c-13 7.4-37 22.1-54.9 39.9-25.7 25.7-40.2 53-32.1 61 8 8 35.3-6.4 61-32.1 17.8-17.8 32.6-41.8 39.9-54.9 3.7.1 7.4-1.3 10.3-4.1s4.2-6.6 4.1-10.3c13-7.4 37-22.1 54.9-39.9 25.7-25.7 40.1-53 32.1-61z"/><circle class="st1" cx="408.6" cy="408.6" r="3.4"/><circle class="st1" cx="408.6" cy="103.4" r="38"/><path class="st2" d="M477.7 143.6c-17.8-17.8-41.8-32.6-54.9-39.9.1-3.7-1.3-7.4-4.1-10.3s-6.6-4.2-10.3-4.1c-7.4-13-22.1-37-39.9-54.9-25.7-25.7-53-40.2-61-32.1-8 8 6.4 35.3 32.1 61 17.8 17.8 41.8 32.6 54.9 39.9-.1 3.7 1.3 7.4 4.1 10.3s6.6 4.2 10.3 4.1c7.4 13 22.1 37 39.9 54.9 25.7 25.7 53 40.2 61 32.1s-6.4-35.3-32.1-61z"/><circle class="st1" cx="408.6" cy="103.4" r="3.4"/><circle class="st1" cx="103.4" cy="408.6" r="38"/><path class="st2" d="M172.5 448.7c-17.8-17.8-41.8-32.6-54.9-39.9.1-3.7-1.3-7.4-4.1-10.3-2.8-2.8-6.6-4.2-10.3-4.1-7.4-13-22.1-37-39.9-54.9-25.7-25.7-53-40.2-61-32.1s6.4 35.3 32.1 61c17.8 17.8 41.8 32.6 54.9 39.9-.1 3.7 1.3 7.4 4.1 10.3s6.6 4.2 10.3 4.1c7.4 13 22.1 37 39.9 54.9 25.7 25.7 53 40.2 61 32.1 8-8-6.4-35.3-32.1-61z"/><circle class="st1" cx="103.4" cy="408.6" r="3.4"/></svg>