<svg version="1.1" xmlns="http://www.w3.org/2000/svg" x="0" y="0" viewBox="0 0 512 512" xml:space="preserve"><style type="text/css">.st0{fill:#667e8e}.st1{fill:#647b8b}.st2{fill:#607786}.st3{fill:#36434f}</style><path class="st0" d="M139.2 76.9c-2 0-3.6 1.7-3.6 3.6v350.9c0 2 1.7 3.6 3.6 3.6h233.5c2 0 3.6-1.7 3.6-3.6V80.5c0-2-1.7-3.6-3.6-3.6H139.2z"/><path class="st1" d="M135.6 421.7V435h126.5l114.3-282.3V77h-4.3z"/><path class="st2" d="M135.6 421.7L372.1 77H135.6z"/><path class="st3" d="M86.5 70v372h339V70h-339zm44.7 353.5c0 3.2-2.6 5.8-5.8 5.8h-16.7c-3.2 0-5.8-2.6-5.8-5.8V414c0-3.2 2.6-5.8 5.8-5.8h16.7c3.2 0 5.8 2.6 5.8 5.8v9.5zm0-46.5c0 3.2-2.6 5.8-5.8 5.8h-16.7c-3.2 0-5.8-2.6-5.8-5.8v-9.4c0-3.2 2.6-5.8 5.8-5.8h16.7c3.2 0 5.8 2.6 5.8 5.8v9.4zm0-46.5c0 3.2-2.6 5.8-5.8 5.8h-16.7c-3.2 0-5.8-2.6-5.8-5.8V321c0-3.2 2.6-5.8 5.8-5.8h16.7c3.2 0 5.8 2.6 5.8 5.8v9.5zm0-46.5c0 3.2-2.6 5.8-5.8 5.8h-16.7c-3.2 0-5.8-2.6-5.8-5.8v-9.4c0-3.2 2.6-5.8 5.8-5.8h16.7c3.2 0 5.8 2.6 5.8 5.8v9.4zm0-46.5c0 3.2-2.6 5.8-5.8 5.8h-16.7c-3.2 0-5.8-2.6-5.8-5.8V228c0-3.2 2.6-5.8 5.8-5.8h16.7c3.2 0 5.8 2.6 5.8 5.8v9.5zm0-46.5c0 3.2-2.6 5.8-5.8 5.8h-16.7c-3.2 0-5.8-2.6-5.8-5.8v-9.4c0-3.2 2.6-5.8 5.8-5.8h16.7c3.2 0 5.8 2.6 5.8 5.8v9.4zm0-46.5c0 3.2-2.6 5.8-5.8 5.8h-16.7c-3.2 0-5.8-2.6-5.8-5.8V135c0-3.2 2.6-5.8 5.8-5.8h16.7c3.2 0 5.8 2.6 5.8 5.8v9.5zm0-46.5c0 3.2-2.6 5.8-5.8 5.8h-16.7c-3.2 0-5.8-2.6-5.8-5.8v-9.4c0-3.2 2.6-5.8 5.8-5.8h16.7c3.2 0 5.8 2.6 5.8 5.8V98zm243.4 335.3H137.4V78.7h237.2v354.6zm34.5-9.8c0 3.2-2.6 5.8-5.8 5.8h-16.7c-3.2 0-5.8-2.6-5.8-5.8V414c0-3.2 2.6-5.8 5.8-5.8h16.7c3.2 0 5.8 2.6 5.8 5.8v9.5zm0-46.5c0 3.2-2.6 5.8-5.8 5.8h-16.7c-3.2 0-5.8-2.6-5.8-5.8v-9.4c0-3.2 2.6-5.8 5.8-5.8h16.7c3.2 0 5.8 2.6 5.8 5.8v9.4zm0-46.5c0 3.2-2.6 5.8-5.8 5.8h-16.7c-3.2 0-5.8-2.6-5.8-5.8V321c0-3.2 2.6-5.8 5.8-5.8h16.7c3.2 0 5.8 2.6 5.8 5.8v9.5zm0-46.5c0 3.2-2.6 5.8-5.8 5.8h-16.7c-3.2 0-5.8-2.6-5.8-5.8v-9.4c0-3.2 2.6-5.8 5.8-5.8h16.7c3.2 0 5.8 2.6 5.8 5.8v9.4zm0-46.5c0 3.2-2.6 5.8-5.8 5.8h-16.7c-3.2 0-5.8-2.6-5.8-5.8V228c0-3.2 2.6-5.8 5.8-5.8h16.7c3.2 0 5.8 2.6 5.8 5.8v9.5zm0-46.5c0 3.2-2.6 5.8-5.8 5.8h-16.7c-3.2 0-5.8-2.6-5.8-5.8v-9.4c0-3.2 2.6-5.8 5.8-5.8h16.7c3.2 0 5.8 2.6 5.8 5.8v9.4zm0-46.5c0 3.2-2.6 5.8-5.8 5.8h-16.7c-3.2 0-5.8-2.6-5.8-5.8V135c0-3.2 2.6-5.8 5.8-5.8h16.7c3.2 0 5.8 2.6 5.8 5.8v9.5zm0-46.5c0 3.2-2.6 5.8-5.8 5.8h-16.7c-3.2 0-5.8-2.6-5.8-5.8v-9.4c0-3.2 2.6-5.8 5.8-5.8h16.7c3.2 0 5.8 2.6 5.8 5.8V98zm0-98v5c0 3.2-2.6 5.8-5.8 5.8h-16.7c-3.2 0-5.8-2.6-5.8-5.8V0h-6.2v61.3H137.4V0h-6.2v5c0 3.2-2.6 5.8-5.8 5.8h-16.7c-3.2 0-5.8-2.6-5.8-5.8V0H86.5v70h339V0h-16.4zM131.2 51.5c0 3.2-2.6 5.8-5.8 5.8h-16.7c-3.2 0-5.8-2.6-5.8-5.8V42c0-3.2 2.6-5.8 5.8-5.8h16.7c3.2 0 5.8 2.6 5.8 5.8v9.5zm277.9 0c0 3.2-2.6 5.8-5.8 5.8h-16.7c-3.2 0-5.8-2.6-5.8-5.8V42c0-3.2 2.6-5.8 5.8-5.8h16.7c3.2 0 5.8 2.6 5.8 5.8v9.5z"/><path class="st0" d="M135.6 0v59.5c0 2 1.7 3.6 3.6 3.6h233.5c2 0 3.6-1.7 3.6-3.6V0H135.6z"/><path class="st2" d="M135.6 0v49.7L169.7 0z"/><path class="st1" d="M169.7 0l-34.1 49.7V63h126.5l25.5-63z"/><path class="st3" d="M102.9 512v-5c0-3.2 2.6-5.8 5.8-5.8h16.7c3.2 0 5.8 2.6 5.8 5.8v5h6.2v-61.3h237.2V512h6.2v-5c0-3.2 2.6-5.8 5.8-5.8h16.7c3.2 0 5.8 2.6 5.8 5.8v5h16.4v-70h-339v70h16.4zm277.9-51.5c0-3.2 2.6-5.8 5.8-5.8h16.7c3.2 0 5.8 2.6 5.8 5.8v9.4c0 3.2-2.6 5.8-5.8 5.8h-16.7c-3.2 0-5.8-2.6-5.8-5.8v-9.4zm-277.9 0c0-3.2 2.6-5.8 5.8-5.8h16.7c3.2 0 5.8 2.6 5.8 5.8v9.4c0 3.2-2.6 5.8-5.8 5.8h-16.7c-3.2 0-5.8-2.6-5.8-5.8v-9.4z"/><path class="st0" d="M376.4 512v-59.5c0-2-1.7-3.6-3.6-3.6H139.2c-2 0-3.6 1.7-3.6 3.6V512h240.8z"/><path class="st2" d="M328.9 512l43.2-63H135.6v63z"/><path class="st1" d="M376.4 512v-63h-4.3l-43.2 63z"/></svg>