<svg version="1.1" xmlns="http://www.w3.org/2000/svg" x="0" y="0" viewBox="0 0 512 512" xml:space="preserve"><style type="text/css">.st1{fill:#36434f}.st3{fill:#cc584c}.st4,.st5{opacity:.15;fill:#444;enable-background:new}.st5{opacity:.3}.st6{fill:#ddd}.st7{fill:#444}.st8{fill:#4b5d6b}.st9{opacity:.15;fill:#f4f4f4;enable-background:new}</style><path d="M293.5 351h-4v-56c0-1.1.9-2 2-2s2 .9 2 2v56z" fill="#bbb"/><path class="st1" d="M295 350v-4c0-1.1-.9-2-2-2h-3c-1.1 0-2 .9-2 2v4l-1 8h9l-1-8z"/><path d="M315 374h53v39h-53v-39zM84 385h40v28H84v-28z" fill="#6e4b47"/><path class="st1" d="M78.5 478h6v15h-6v-15z"/><path class="st1" d="M89.5 499h-16c-1.1 0-2-.9-2-2v-3c0-1.1.9-2 2-2h16c1.1 0 2 .9 2 2v3c0 1.1-.9 2-2 2z"/><path class="st1" d="M88.5 498h-14l-5 6v6c0 1.1.9 2 2 2h20c1.1 0 2-.9 2-2v-6l-5-6zm293-20h6v15h-6v-15z"/><path class="st1" d="M392.5 499h-16c-1.1 0-2-.9-2-2v-3c0-1.1.9-2 2-2h16c1.1 0 2 .9 2 2v3c0 1.1-.9 2-2 2z"/><path class="st1" d="M391.5 498h-14l-5 6v6c0 1.1.9 2 2 2h20c1.1 0 2-.9 2-2v-6l-5-6z"/><path class="st3" d="M390 479H76c-4.4 0-8-3.6-8-8v-52h330v52c0 4.4-3.6 8-8 8z"/><path class="st4" d="M68 419h330v8H68v-8z"/><path class="st3" d="M401 422H65v-4c0-4.4 3.6-8 8-8h320c4.4 0 8 3.6 8 8v4z"/><path class="st5" d="M353 470H115c-2.2 0-4-1.8-4-4s1.8-4 4-4h238c2.2 0 4 1.8 4 4s-1.8 4-4 4zm0-26H115c-2.2 0-4-1.8-4-4s1.8-4 4-4h238c2.2 0 4 1.8 4 4s-1.8 4-4 4z"/><path class="st6" d="M463 377H274c-2.2 0-4-1.8-4-4v-12c0-2.2 1.8-4 4-4h189c2.2 0 4 1.8 4 4v12c0 2.2-1.8 4-4 4zm-319 15H49c-2.2 0-4-1.8-4-4v-12c0-2.2 1.8-4 4-4h95c2.2 0 4 1.8 4 4v12c0 2.2-1.8 4-4 4z"/><path class="st3" d="M143.3 228.3c7.2 14.1 9.7 30.1 7.2 45.7-1.1 6.7-1.7 13.7-1.7 20.8 0 26.2 7.7 49.8 19.9 65.9 6.2 8.1 9.8 17.9 10.1 28.1l.1 3.2v19h46.3v-19l.1-3.2c.3-10.2 4-20 10.1-28.1 12.2-16.2 19.9-39.7 19.9-65.9 0-7.2-.6-14.2-1.7-20.8-2.5-15.6 0-31.6 7.2-45.7L342.4 68c5.7-11.3 1.7-25-9.1-31.5C295 13.3 250.1 0 202 0S109.1 13.3 70.8 36.4C60 43 56 56.7 61.7 67.9l81.6 160.4z"/><path class="st6" d="M202 99c28.3 0 54.9 7.6 77.8 20.8 2 1.1 4.5.4 5.6-1.6L314 62c1-1.9.2-4.3-1.6-5.3C278.8 37.9 240.8 28 202 28s-76.7 9.9-110.3 28.7c-1.9 1.1-2.6 3.4-1.6 5.3l28.6 56.2c1 2 3.6 2.8 5.6 1.6C147.1 106.6 173.7 99 202 99z"/><path class="st5" d="M203.5 179c-17.7 0-31.5-8.8-31.5-20s13.8-20 31.5-20 31.5 8.8 31.5 20-13.8 20-31.5 20zm0-36c-14.9 0-27.5 7.3-27.5 16s12.6 16 27.5 16 27.5-7.3 27.5-16-12.6-16-27.5-16z"/><path class="st1" d="M111.2 82.5l-3.5-6.6-1.8.9 3.5 6.6 1.8-.9zm8.5-4.3l-3.2-6.8c-.6.3-1.2.6-1.8.8l3.2 6.8c.6-.2 1.2-.5 1.8-.8zm8.8-3.8l-2.9-6.9c-.6.3-1.2.5-1.9.8l2.9 6.9c.6-.3 1.3-.5 1.9-.8zM202 60h1v-7.5h-2V60h1zm-18.1.8l-.7-7.5c-.7.1-1.3.1-2 .2l.7 7.5c.7 0 1.4-.1 2-.2zM137.4 71l-2.5-7.1c-.6.2-1.3.4-1.9.7l2.5 7.1c.6-.3 1.3-.5 1.9-.7zm56.1-10.8l-.4-7.5c-.7 0-1.3.1-2 .1l.4 7.5c.6 0 1.3-.1 2-.1zM174.4 62l-1.1-7.4c-.7.1-1.3.2-2 .3l1.1 7.4c.7-.2 1.4-.2 2-.3zm-27.9 6.1l-2.2-7.2c-.6.2-1.3.4-1.9.6l2.2 7.2c.6-.3 1.3-.4 1.9-.6zm9.2-2.5l-1.8-7.3c-.6.2-1.3.3-1.9.5l1.8 7.3c.6-.2 1.3-.4 1.9-.5zm9.3-2.1l-1.5-7.4c-.7.1-1.3.2-2 .4l1.5 7.4c.7-.1 1.4-.2 2-.4zm47.5-3.2l.4-7.5c-.7 0-1.3-.1-2-.1l-.4 7.5c.7 0 1.4 0 2 .1zm64.9 14.8l2.9-6.9c-.6-.3-1.2-.5-1.9-.8l-2.9 6.9c.6.3 1.3.6 1.9.8zM250.2 66l1.8-7.3c-.6-.2-1.3-.3-1.9-.5l-1.8 7.3c.6.2 1.3.4 1.9.5zm18.3 5.7l2.5-7.1c-.6-.2-1.3-.4-1.9-.7l-2.5 7.1c.6.2 1.3.4 1.9.7zm-9.1-3.1l2.2-7.2c-.6-.2-1.3-.4-1.9-.6l-2.2 7.2c.7.2 1.3.4 1.9.6zm-18.5-4.7l1.5-7.4c-.7-.1-1.3-.3-2-.4l-1.5 7.4c.7.1 1.4.3 2 .4zM222.1 61l.7-7.5c-.7-.1-1.3-.1-2-.2l-.7 7.5c.6.1 1.3.2 2 .2zm9.4 1.2l1.1-7.4c-.7-.1-1.3-.2-2-.3l-1.1 7.4c.7.1 1.4.2 2 .3zm63.1 21.2l3.5-6.6-1.8-.9-3.5 6.6 1.8.9zm-8.5-4.3l3.2-6.8c-.6-.3-1.2-.6-1.8-.8l-3.2 6.8c.6.2 1.2.5 1.8.8zm-170.7 1.2l-1.6-3.1-1.8.9 1.6 3.1 1.8-.9zm8.7-4l-1.4-3.2c-.6.3-1.2.5-1.8.8l1.4 3.2c.6-.3 1.2-.6 1.8-.8zm55.1-15l-.4-3.5c-.7.1-1.3.1-2 .2l.4 3.5c.7 0 1.3-.1 2-.2zm-9.5 1.4l-.6-3.4c-.7.1-1.3.2-2 .3l.6 3.4c.7-.1 1.4-.2 2-.3zm19-2.2l-.3-3.5c-.7 0-1.3.1-2 .1l.3 3.5c.7-.1 1.3-.1 2-.1zm9.5-.5l-.1-3.5h-2l.1 3.5c.7.1 1.4.1 2 0zm-56.3 9.5l-1.1-3.3c-.6.2-1.3.4-1.9.6l1.1 3.3c.7-.2 1.3-.4 1.9-.6zm18.5-5l-.8-3.4c-.7.1-1.3.3-2 .4l.8 3.4c.7-.1 1.3-.3 2-.4zm-9.3 2.3l-.9-3.4c-.6.2-1.3.3-1.9.5l.9 3.4c.6-.2 1.2-.4 1.9-.5zm-18.2 5.9l-1.3-3.3c-.6.2-1.2.5-1.9.7l1.3 3.3c.7-.3 1.3-.5 1.9-.7zm74.9-12.6l.1-3.5h-2l-.1 3.5h2zm56.2 10l1.1-3.3c-.6-.2-1.3-.4-1.9-.6l-1.1 3.3c.6.2 1.2.4 1.9.6zm-9.1-2.8l.9-3.4c-.6-.2-1.3-.3-1.9-.5l-.9 3.4c.6.1 1.2.3 1.9.5zm18.1 6l1.3-3.3c-.6-.2-1.2-.5-1.9-.7l-1.3 3.3c.6.3 1.2.5 1.9.7zm-27.4-8.4l.8-3.4c-.6-.1-1.3-.3-2-.4l-.8 3.4c.7.1 1.4.3 2 .4zM281.8 77l1.4-3.2c-.6-.3-1.2-.5-1.8-.8l-1.4 3.2c.5.3 1.1.6 1.8.8zm-45.6-14l.6-3.4c-.7-.1-1.3-.2-2-.3l-.6 3.4c.7.1 1.4.2 2 .3zm-9.4-1.4l.4-3.5c-.7-.1-1.3-.1-2-.2l-.4 3.5c.7 0 1.3.1 2 .2zm63.6 19.6l1.6-3.1-1.8-.9-1.6 3.1 1.8.9zm-73.1-20.6l.3-3.5c-.7-.1-1.3-.1-2-.1l-.3 3.5c.7 0 1.3 0 2 .1z"/><path class="st1" d="M202 60c33.2 0 64.5 8.3 91.9 23l1-1.8c-5.3-2.8-10.8-5.5-16.4-7.8C254.3 63.2 228.6 58 202 58s-52.3 5.2-76.5 15.4c-5.6 2.4-11 5-16.4 7.8l1 1.8c27.4-14.7 58.7-23 91.9-23zm-31.5 27l-3.9.7 2.8 14.8c1.3-.3 2.6-.5 3.9-.8L170.5 87z"/><path class="st3" d="M164.4 65.7l-2.3 17.2c-.1 1.1.1 2.1.8 3l4.4 5.8 2-.4 2-.4 2-7c.3-1 .2-2.1-.4-3l-8.5-15.2z"/><ellipse class="st4" cx="202" cy="295" rx="35.5" ry="62"/><circle class="st7" cx="202" cy="17" r="4"/><circle class="st7" cx="80.5" cy="58" r="4"/><circle class="st7" cx="323.5" cy="58" r="4"/><circle class="st7" cx="124.5" cy="154" r="4"/><circle class="st7" cx="282.5" cy="154" r="4"/><circle class="st7" cx="164.5" cy="240" r="4"/><circle class="st7" cx="242.5" cy="240" r="4"/><circle class="st7" cx="202" cy="385" r="4"/><path class="st8" d="M370.4 282.3v-.2h-45.8v.2s5.4 3.4 5.7 8.1c.3 4.7-5.1 8.7-5.1 8.7v.2h44.5v-.3s-5.4-3.9-5.1-8.7c.4-4.7 5.8-8 5.8-8z"/><path class="st1" d="M369.8 357h-44.5c-2.9 0-5.2-2.3-5.2-5.2v-47.5c0-2.9 2.3-5.2 5.2-5.2h44.5c2.9 0 5.2 2.3 5.2 5.2v47.5c0 2.9-2.3 5.2-5.2 5.2zm.7-74.7h-45.9c-2.5 0-4.6-2-4.6-4.6 0-2.5 2.1-4.6 4.6-4.6l45.8.1c2.5 0 4.6 2.1 4.6 4.6s-2 4.5-4.5 4.5zm-40.6 10.8c.3-.9.5-1.8.4-2.8 0-.8-.2-1.5-.5-2.2h35.4c-.3.7-.5 1.4-.5 2.2-.1.9.1 1.9.4 2.8h-35.2zm-.5-5.7h36.1c.2-.4.4-.8.7-1.1h-37.5c.3.3.5.7.7 1.1zm36.7 7.7h-37.2c.2-.4.4-.8.6-1.1h35.9c.2.3.4.7.7 1.1z"/><path class="st9" d="M362.6 303.8c-.8 0-1.4.6-1.4 1.4v30.9c0 .8.6 1.4 1.4 1.4s1.4-.6 1.4-1.4v-30.9c0-.8-.6-1.4-1.4-1.4zm0 38.6c-.8 0-1.4.6-1.4 1.4v7c0 .8.6 1.4 1.4 1.4s1.4-.6 1.4-1.4v-7c0-.7-.6-1.4-1.4-1.4zm0-67.2c-.8 0-1.4.6-1.4 1.4v2.1c0 .8.6 1.4 1.4 1.4s1.4-.6 1.4-1.4v-2.1c0-.7-.6-1.4-1.4-1.4z"/><path class="st8" d="M121.9 313.6v-.1H86.1v.1s4.2 2.6 4.5 6.3c.3 3.7-4 6.8-4 6.8v.1h34.8v-.1s-4.2-3.1-4-6.8c.3-3.7 4.5-6.3 4.5-6.3z"/><path class="st1" d="M121.4 372H86.6c-2.3 0-4.1-1.8-4.1-4.1v-37.1c0-2.3 1.8-4.1 4.1-4.1h34.8c2.3 0 4.1 1.8 4.1 4.1v37.1c0 2.3-1.8 4.1-4.1 4.1zm.6-58.4H86.1c-2 0-3.6-1.6-3.6-3.6s1.6-3.6 3.6-3.6l35.8.1c2 0 3.6 1.6 3.6 3.6 0 1.9-1.6 3.5-3.5 3.5zm-31.8 8.5c.2-.7.4-1.4.3-2.2 0-.6-.2-1.2-.4-1.7h27.7c-.2.5-.4 1.1-.4 1.7-.1.7.1 1.5.3 2.2H90.2zm-.3-4.5h28.2c.2-.3.3-.6.5-.9H89.3l.6.9zm28.6 6h-29c.2-.3.3-.6.5-.9h28c.2.3.3.6.5.9z"/><path class="st9" d="M115.8 330.4c-.6 0-1.1.5-1.1 1.1v24.2c0 .6.5 1.1 1.1 1.1s1.1-.5 1.1-1.1v-24.2c0-.6-.5-1.1-1.1-1.1zm0 30.2c-.6 0-1.1.5-1.1 1.1v5.5c0 .6.5 1.1 1.1 1.1s1.1-.5 1.1-1.1v-5.5c0-.6-.5-1.1-1.1-1.1zm0-52.5c-.6 0-1.1.5-1.1 1.1v1.6c0 .6.5 1.1 1.1 1.1s1.1-.5 1.1-1.1v-1.6c0-.6-.5-1.1-1.1-1.1z"/><path class="st4" d="M202 479V0c-48 0-92.9 13.3-131.2 36.4C60 43 56 56.7 61.7 67.9l81.6 160.3c7.2 14.1 9.7 30.1 7.2 45.7-1.1 6.7-1.7 13.7-1.7 20.8 0 26.2 7.7 49.8 19.9 65.9 6.2 8.1 9.8 17.9 10.1 28.1l.1 3.2v18H124v-18h20c2.2 0 4-1.8 4-4v-12c0-2.2-1.8-4-4-4h-22.6c2.3 0 4.1-1.8 4.1-4.1v-37.1c0-2.3-1.8-4.1-4.1-4.1 0 0-1.7-1.2-2.9-3.1-.2-.3-.3-.5-.5-.8-.1-.3-.2-.5-.3-.8v-.1c0-.1-.1-.3-.1-.5v-.2c0-.1 0-.3-.1-.4v-.8c0-.3.1-.5.1-.8 0-.1.1-.2.1-.3 0-.2.1-.3.1-.5.1-.3.3-.6.4-.9.1-.2.2-.4.4-.6 1.3-2 3.4-3.3 3.4-3.3h.1c1.9 0 3.5-1.6 3.5-3.5 0-2-1.6-3.6-3.6-3.6l-35.8-.1c-2 0-3.6 1.6-3.6 3.6s1.6 3.6 3.6 3.6c0 0 1.9 1.2 3.3 3.1.1.1.2.3.3.4.1.1.2.3.2.4.1.3.3.5.4.8.1.1.1.3.1.5 0 .1.1.2.1.3.1.3.1.5.1.8v.8c0 .2 0 .3-.1.5v.2c0 .2-.1.3-.1.5v.1c-.1.3-.2.6-.3.8-.1.3-.3.6-.5.8-1.2 1.9-2.9 3.1-2.9 3.1-2.3 0-4.1 1.8-4.1 4.1v37.1c0 2.3 1.8 4.1 4.1 4.1H49c-2.2 0-4 1.8-4 4v12c0 2.2 1.8 4 4 4h35v18H73c-4.4 0-8 3.6-8 8v4h3v49c0 4.4 3.6 8 8 8h2.5v13h-5c-1.1 0-2 .9-2 2v3c0 1.1.9 2 2 2h.2l-4.2 5v6c0 1.1.9 2 2 2h20c1.1 0 2-.9 2-2v-6l-4.2-5h.2c1.1 0 2-.9 2-2v-3c0-1.1-.9-2-2-2h-5v-13l117.5.1z"/></svg>