<svg version="1.1" xmlns="http://www.w3.org/2000/svg" x="0" y="0" viewBox="0 0 512 512" xml:space="preserve"><style type="text/css">.st0{fill:#cc584c}</style><path class="st0" d="M266 251l14.8-39c2.8-7.3 4.2-15 4.2-22.7V8c0-4.4-3.6-8-8-8h-10.5c-3.8 0-7.1 2.7-7.8 6.4l-36.6 179.4c-1.4 6.6-.6 13.5 2.2 19.6L245 251h21zm-20 10l-14.8 39c-2.8 7.3-4.2 15-4.2 22.7V504c0 4.4 3.6 8 8 8h10.5c3.8 0 7.1-2.7 7.8-6.4l36.6-179.4c1.4-6.6.6-13.5-2.2-19.6L267 261h-21z"/><circle class="st0" cx="256" cy="256" r="17"/><circle cx="256" cy="256" r="17" opacity=".5" fill="#444"/></svg>