<svg version="1.1" xmlns="http://www.w3.org/2000/svg" x="0" y="0" viewBox="0 0 512 512" xml:space="preserve"><style type="text/css">.st0{fill:#36434f}.st1{fill:#79b1d1}</style><path class="st0" d="M353.52 499.85a21.437 21.437 0 0 0-14.39-14.07L299.09 474a20.195 20.195 0 0 1-12.63-10.88l-18.01-38.76h-24.91l-18.01 38.76A20.224 20.224 0 0 1 212.9 474l-40.04 11.78a21.476 21.476 0 0 0-14.39 14.07L154.61 512h202.78l-3.87-12.15zm-185.56-74.48-7.34-3.19a3.994 3.994 0 0 1-2.07-5.26L338.78 2.41a3.994 3.994 0 0 1 5.26-2.07l7.34 3.19c2.03.88 2.95 3.24 2.07 5.26L173.22 423.3a4.002 4.002 0 0 1-5.26 2.07z"/><circle class="st1" cx="256" cy="212.85" r="188.65"/><path d="M426.69 293.17c5.29-13.62 7.84-27.95 6.75-42.62-1.88-2.14 3.85-9.6 4.63-11.42-5.15 1.12 5.05-19.05 4.41-20.2l-10.19 9.15c1.49-8.35-1.56-15.47.02-23.63 6.07-7.5 8.9-16.38 9.18-26.05a189.707 189.707 0 0 0-29.25-71.3c-15.78-21.2-35.68-40.38-53.84-52.7-5.21-3.36-10.64-6.49-16.26-9.37l3.52 6.19c-4.51-3.42-10.22-5.21-15.48-2.63.55-8.3-5.97-.02-9.29.55-3.96-6.36-11.69-7.55-16.15-11.91l-3.76 2.89c-20.49 9.78-13.16 6.45-27.91-9.29-5.24 3.88-4.7-.52-6.92-4.05-5.07 2.66-7.58 5.39-12.18.46-.96 2.62-6.25-2.56-7.42-2.85-26.39 1.34-52.12 8.23-75.5 20-63.9 33.37-108.88 103.22-99.44 169.37-2.36 23.46.8 46.21 8.6 67.52A189.029 189.029 0 0 0 111.37 334c.32.38.63.76.96 1.13 4.57-1.3 14.94-2.84 16.8-8.67 1.22-.18 5.11 1.04 4.98-1.18.3 12.05 14 21.92 27.41 21.44 6.56-8.66 11.22-19.25 20.1-26.02-.02-9.2-1.08-19.52-5.27-28.59-2.08.03-10.29.74-12.32.82-8.57-5.66-7.24-4.11-11.37-13.16 4.56-3.22 3.96-3.75 1.48-8.28 10.6-7.05 21.92-5.75 33.7-13.52 7.39-4.33 10.78-11.99 18.8-13.98 4.07-.87 11.62-2.48 15.74-3.4.09-.44.72-9.55.74-9.77-.39-1.18 1.17-3.34 2.21-3.44 3.45-.94 8.58-6.22 11.24-1.59 4.83-7.04 13.47-11.34 18.49-18.82 2.07.71 5.59 1.08 4.41 4.31 5.97 4.18 6.17 13.22 9.94 18.49 6.74 2.65.6 24.94 5.35 33.43-2.65 18.61 11.02 16.63 11.03 31.13 10.17 3.67 26.85-.74 27.58-7.45 5.96-10.78-5.93-23.46 6.69-29.66 5.91-4.63 15.05-8.83 20.88-12.91 2.48 6.09-.36 14.93 1.04 21.59l8.19 1.39-1.25.56c3.71 12.08-7.47 12.34-12.88 19.96-6.07 11.18 6.57 17.89 4.14 28.22 3.62 2.06 1.05 3.19 2.71 6.7 1.33 4.98 5 7.44.02 10.83 4.09 2.65 8.68 3.86 6.76 9.89 4.97-.51 6.75 2.54 8.76 6.41-4.07 2.15-8.24 4.28-12.29 6.67-12.05 8.97-28.39 26.08-39.03 37.93.52-.14 1.04-.3 1.56-.44 2.52-.73 5.02-1.52 7.51-2.35.71-.24 1.43-.49 2.14-.74.05-.02.1-.03.15-.05 20.99-7.5 42.74-19.95 61.62-35.84 19.11-16.71 35.15-37.51 46.6-61.87zm-60.35 52.54c.02-.28.18-.34.45-.32-.15.11-.3.21-.45.32zm37.34-76.21c.26-1.04.52-2.21.69-3.5l.07 2.8c-.02-.16-.74.72-.76.7z" fill="#b7d3e3"/><path d="M228.42 35.62c3.82 1.66 6.79-.02 8.34-1.31l6.22-5.19-6.26-3.95c-1.35.14-2.69.3-4.04.46l-1.44 2.05-1.4-1.68c-2.14.3-4.27.65-6.4 1.02l-3.76 2.71 6.78 4.76c.67.49 1.33.86 1.96 1.13zm3.13-3.57 1.74 2.41c-.85.59-2.47.72-3.45.3l1.71-2.71zm-55.98 286.09-4.87 4.2c-.82 2.09-2.12 3.7-3.16 4.97-.63.77-1.28 1.57-1.46 2.06l-.13.31c-.46 1.05-1.14 2-2.05 2.86a6.62 6.62 0 0 1-2.05 2.99l-.15.27c-.24.41-.53.93-.91 1.49l-2.08 3.07-3.66-.54c-2.29-.34-4.21-.88-5.82-1.58-6.87-2.98-8.17-8.9-9.45-14.65l-.29-1.33.32-1.32c.57-2.4 1.78-4.18 3.6-5.32l-.03-.12c-1.44-4.38.86-7.63 1.88-9.06.22-.31.45-.63.55-.82l2.01-3.87 4.29.78c.92.17 1.77.37 2.6.56.49.12.95.22 1.37.31l-2.15-10.29 8.47 5.85 3.51-.25c.61-.04 1.16-.08 1.67-.11l4.73-.31 1.5 4.19c1.37 3.84 1.46 7.17 1.56 10.39.02.77.04 1.56.09 2.38l.11 2.89zm243.96-25.97c-2.7.83-4.35 2.41-5.39 4.14l-1.98-.21.02-1.22-1.42 1.07-1.4-.15c.1-.2.21-.4.29-.55.79-.82 2.34-2.51 2.62-5.17l.32 1.51 6.14-1.84c2.8-.84 4.65-2.54 5.52-5.09l1.75-.8.49-3.13c.07-.44.24-1.02.42-1.64.63-2.14 1.58-5.36.22-9.13v-.01c.05-.13.21-.48.33-.74.83-1.76 3.35-7.11-.98-11.26l-1.93-1.85c0-.14-.01-.28-.01-.4 0-.16-.01-.36-.01-.55.95-1.19 1.43-2.39 1.74-3.15.06-.15.11-.29.18-.43l.81-1.75-.38-1.89-.09-.45.51-1.55 2.3-3.97-.86-.37 1.14-3.44-2.97 2.66-3.45-1.47c-.66-.28-1.19-.51-1.78-.77l2.73-5.2c2.17-4.14 3.07-10.47 2.13-15.05l-1.31-6.43c.9-1.46 1.23-3.25.84-4.92.02-.13.05-.29.07-.41.23-1.32.64-3.72-.44-6.37l.15-.34 5.79-1.31a6.822 6.822 0 0 0 4.41-3.22c1.12-1.88 1.33-4.04.98-6.62l1.76-2.97c1.29-2.16 1.4-4.24 1.31-5.68.46-1.28.77-2.52.96-3.74a189.742 189.742 0 0 0-11.67-37.73c-.3-.14-.6-.28-.93-.41l-1.33-.5c-.51-1.73-.98-3.15-1.26-3.98-.27-1.33-.66-2.59-1.1-3.77.09-.29.16-.59.21-.88a189.39 189.39 0 0 0-11.12-19.47l-.69.49-2.5-3.16-.26 2.1c-.69-2.37-1.68-4.51-2.6-6.45l1.49.34c-2.02-2.82-4.12-5.59-6.3-8.3-.14-.17-.27-.34-.41-.51-.63-.78-1.27-1.55-1.91-2.32-.21-.25-.42-.51-.64-.76-.63-.75-1.27-1.5-1.91-2.24l-.51-.57c-1.31-1.49-2.64-2.96-4-4.41-.18-.19-.35-.38-.53-.57-.56-.59-1.13-1.18-1.7-1.77-.4-.42-.81-.83-1.21-1.24-.53-.54-1.06-1.07-1.6-1.6l-1.44-1.41c-.5-.48-.99-.96-1.49-1.44-.65-.62-1.32-1.23-1.98-1.84-.5-.46-1-.92-1.51-1.38-.84-.75-1.68-1.5-2.54-2.24-.4-.35-.8-.69-1.2-1.03-.69-.59-1.39-1.17-2.09-1.75a194.994 194.994 0 0 0-3.49-2.81l-1.11-.87c-1.11-.86-2.24-1.72-3.37-2.56l-13.5-5.78 3.82 6.72-6.32-2.75-.62.83-9.24-4.02c-1.3-1.09-2.96-2.14-5.22-2.75l-1.61-.43-1.6.48c-1.24.37-2.47.74-3.61 1.07l-4.74 1.41-.34-.04-.38-2.41-3.64 1.97-1.18-.13.02.7c-.54-.4-1.14-.76-1.79-1.09l-6.33-6.57c-1.86-1.93-4.26-2.8-6.51-2.47-.4-.1-.88-.18-1.41-.21l-.37-.45-.6.46c-.03 0-.05 0-.08.01l-2.01.18-2.06 1.93c-2.43.56-4.52 1.54-5.32 1.95l-4.78 2.43.82 2.08c-.39-.04-.79-.07-1.2-.1-.92-1.41-2.49-2.67-5.1-3.36l-3.75-1.01c-.38-.59-.79-1.16-1.26-1.71l.76-.67-3.61-4.4c-.25-.31-.47-.57-.68-.81l-3.4-4.11-1.75.89c-.64-.28-1.37-.5-2.21-.55-.58-.26-1.45-.63-2.57-.8l-1.48-3-3.71 1.91c-.82-.18-1.87-.28-3.05-.05l-2.65-1.96-2.67 2.12c-.59-.03-1.35-.05-2.2.05-4.16.41-8.37.69-11.64.89-1.13-.05-2.18-.12-3.15-.18-6-.37-10.57-.65-17.33 2.5l3.28-4.64-10.85-.43c-3.76-.15-6.92.97-9.65 2.47-1.72-.79-3.36-.92-4.88-.38-.07-.01-.15-.01-.22-.02-.62-.04-1.48-.1-2.44.01l-2.18.25-1.21 1.32c-.2.07-.5.16-.73.23-1.38.42-3.47 1.07-5.24 2.86l-6.03 6.12 1.49.65c-.53.02-1.06.03-1.63.05l-3.67.1-1.53 3.34c-.15.32-.29.65-.42.98-.03.08-.07.17-.11.26l-1.16.32-1.22 1.81c-.48.71-1.41 1.38-2.52 2.01l-3.34-5.33-4.78 2.38c-5.94 2.96-11.72 6.71-18.74 12.18l-3.96 3.08 1.11 2.03c-.11.16-.21.33-.31.51-1.14.52-2.08 1.13-2.87 1.63-.47.3-1.1.7-1.36.8l-.39.01-.45.08c-3.4.61-5.89 2.33-7.81 3.97-.97.96-1.93 1.93-2.88 2.91l-.27.27c-.89.92-1.76 1.85-2.63 2.79l-.45.48c-.82.89-1.63 1.79-2.43 2.7-.19.22-.39.44-.58.66-.76.87-1.51 1.75-2.26 2.63-.23.27-.46.55-.69.82-.71.85-1.41 1.7-2.1 2.57-.26.32-.52.65-.78.97-.66.83-1.31 1.67-1.96 2.51-.28.37-.57.74-.85 1.11-.61.81-1.22 1.63-1.82 2.46-.3.42-.61.84-.91 1.26-.57.8-1.14 1.6-1.7 2.4-.32.46-.64.93-.96 1.4-.53.78-1.05 1.56-1.57 2.34-.34.51-.67 1.03-1 1.55-.49.76-.97 1.52-1.45 2.28-.35.56-.7 1.14-1.04 1.7-.45.74-.9 1.47-1.34 2.21-.37.62-.72 1.25-1.08 1.87-.41.71-.82 1.41-1.21 2.13-.38.68-.75 1.38-1.12 2.07-.36.67-.73 1.34-1.09 2.02-.4.76-.79 1.54-1.18 2.31-.31.62-.64 1.23-.94 1.86-.45.9-.88 1.81-1.31 2.73-.24.51-.49 1.01-.73 1.52-.66 1.43-1.32 2.87-1.95 4.33-.58 1.34-1.15 2.69-1.7 4.04-.17.41-.33.81-.49 1.22-.39.99-.78 1.97-1.16 2.96l-.48 1.26c-.47 1.25-.92 2.51-1.36 3.77-.04.11-.08.21-.11.32-.46 1.34-.91 2.68-1.34 4.02l-.42 1.34c-.3.95-.59 1.9-.87 2.85-.14.47-.28.93-.41 1.4-.34 1.17-.66 2.33-.97 3.5-.05.2-.11.41-.17.61.19 1.02.44 2.24.97 3.53l1.55 3.75 3.78-.11c-.05 1.07-.27 2.57-.43 3.59-.17 1.1-.34 2.24-.43 3.36l-.02.63c.02.95.35 3.84 3.34 5.59.43 1.3.16 3.55-.64 4.46-.66.61-1.17 1.31-1.53 2.09l-3.57.79 1.57 4.28-1.23 1.13.02 2.61c.03 4.29.32 8.59.6 12.74.5 7.33.96 14.25.07 20.96-.23 1.58-.09 3.11.06 4.59.04.37.08.87.11 1.32l-.34.19-.76 2.02c-3.84 10.25-1.03 20.35 1.45 29.26.98 3.53 1.91 6.87 2.44 10.1l.06.32c.03.13.07.26.1.39.67 1.68 1.37 3.35 2.08 5.01.12.27.24.54.36.82.66 1.5 1.33 2.99 2.02 4.48.09.18.17.37.26.55 1.62 3.43 3.34 6.82 5.16 10.15.03.05.05.09.08.14.89 1.62 1.8 3.23 2.74 4.83.05.09.11.18.16.27 2.94 4.98 6.11 9.84 9.5 14.55.22.2.49.47.72.69.28.28.59.59.94.91l-.02.65c.24.32.48.63.72.95.02.02.04.05.06.07l6.13 2.66 1.91-.45c.36-.09.71-.15 1.03-.22 1.64-.32 4.33-.85 6.52-3.17l2.11-.3 1.41-2.67c.34-.65.62-1.31.84-1.97l4.03.09 1.37-4.15c1.17-3.55.59-6.89-.09-9.44.36-.15.73-.33 1.09-.55.18.04.37.08.54.13 2.08.5 6.2 1.48 9.81-1.3.06-.02.13-.05.19-.07l2.27-.89 2.79-6.41-.43-1.88c-.41-1.8.06-4.91 1.15-7.73l.96-2.48-1.22-2.36c-.37-.72-.76-1.47-1.16-2.22.1-1.35-.14-2.48-.28-3.15-.01-.03-.01-.06-.02-.09.06-.35.11-.67.15-.95l2.62-2.15-2.04-4.19c-.16-.32-.28-.59-.38-.81l.03-.03c1.32-.77 2.3-1.8 3.05-2.73l.12.05 2.57-1.75c.11-.03.36-.09.55-.13.25-.06.51-.11.77-.18l1.43-.35 1.09-.98c.18-.16.75-.46 1.22-.7.54-.28 1.15-.6 1.8-1 2.7-1.58 6.04-2.27 9.58-3.01 4.97-1.03 10.57-2.2 15.58-6.05 2.24-1.22 3.78-2.85 5.03-4.19.65-.69 1.26-1.34 1.73-1.66l.41-.28.36-.34c.68-.65 1.56-1.29 2.49-1.97 1.91-1.39 4.16-3.03 5.91-5.57l3.97-.81-.64-4.2 4.35 3.63 3.13-.67c.35-.07.79-.17 1.23-.26l4.27-.94.34-4.36c.02-.27.03-.53.04-.79l.14-4.21-3.83-1.53c-.09-.04-.18-.09-.27-.13-2.94-1.48-5.65-1.48-8.08 0l-3.58-1.56-.21-.09c-.65-.29-1.94-.88-3.6-.94.1-.04.2-.08.31-.12 2.55.57 5.1.6 7.16.51 2.13.54 3.84.06 4.77-.34.7-.3 1.5-.79 2.26-1.56l.55.33 2.35-.55c.64-.15 1.14-.06 1.71.3l3.94 2.49 2.98-2.92 1.42.62 2.2-1.03c.65-.21 2.04-.66 3.24-1.84 1.56.14 3.43-.1 5.13-1.45.03-.02.06-.05.08-.07l.56.59 4.26-4.74c.42-.47 1.27-.99 2.17-1.53 1.76-1.07 3.95-2.41 5.66-4.84l2.09-2.99-1.75-3.21c-.23-.42-.44-.83-.64-1.24.09.06.18.13.26.19.93.68 2.21 1.61 3.96 2.11l.96.27.99-.06c1.71-.1 3.24.45 5.79 1.44 1.25.49 2.59 1.01 4.08 1.45l.25.72.94.04c.15.38.23.6.22.73l-.17 3.08 3.4 2.64c.1.26.21.51.32.75v1.21c0 3.74 1.62 6.44 2.79 8.4.36.61.71 1.19.91 1.64l.93 2.11 4.74 2.06c-.26 1.85-.24 3.67-.22 5.2.01.86.02 1.84-.03 2.38-.77 4.69-.55 9.28.66 13.64.24.87.17 2.19.11 3.57-.12 2.41-.26 5.41.97 8.55l.22.5c.42.84.37 2.44.31 4.14-.12 3.55-.3 8.91 4.29 13.07l1.95 1.77 3.3-.34 1 9.29 4.58.62c8.04 1.09 11.34-3.52 12.39-5.55 2.55-4.95 1.07-11.27-1.9-15.81.25-.79.49-1.79.48-2.93.12-.13.25-.28.36-.4 1.09-1.2 2.89-3.16 3.33-6.14.23-1.04.34-2.12.45-3.17.02-.17.04-.36.06-.57l.65.16 2.02-2.28c.97-.08 2.28-.33 3.81-1.1l1.63-.82.88-1.6.06-.12c3.5-1.44 6.84-3.53 9.85-6.16 4.53-.43 7.12-3.04 8.74-5.13l.19-.24c1.59.08 2.91-.2 3.86-.39.26-.05.59-.12.79-.15l1.36.4c.35 1.06.74 2.06 1.12 2.99l1.48 3.78.09.02c.01.35.05.72.11 1.09l.79 4.88c-.65 1.39-1.07 3.14-.95 5.64l.23 4.73 5.63.96c.82.14 1.62.27 2.39.41l1.4.24c.05 1.27.21 2.61.59 4l.13.42c-.01.14-.09.64-.74 1.92l-1.2 2.39-.76.34.27 3.97c-.09.32-.46 1.04-.71 1.53-1.01 1.97-2.53 4.96-1.81 8.76l.49 2.58c-.3-.01-.6-.01-.89-.02h-.32l-1.06-1.74-3.36.05c-2.78.04-5.19 1.48-6.44 3.86-1.85 3.52-.47 7.79 1.27 10.38.56.83 1.19 1.54 1.87 2.12-.07 1.61.41 3.51 2.26 5.29l-.37 4.97 2.03 1.58c.27.78.41 2.38.24 3.07l-.44 1.58.45 1.58c1.03 3.65 2.81 6.32 4.37 8.68.2.31.41.62.62.94l-1.51 1.63 4.19 2.66.03.06-.25 3.11 2.33.26 2.72 4.42 1.23-3.9c.03.01.06.01.09.02 1.04.28 2.6.69 4.52.46.56-.05 1.07-.13 1.49-.2.03-.01.07-.01.11-.02l1.01.73 2.18-.19c.82-.07 1.69-.12 2.57-.17 1.94-.11 3.94-.23 5.9-.54l3.19-.51 1.52-3.49.49-.1-.15-.68 3.4-7.82.08-.04 2.22.73-2.22 7.18c-3.66 2.6-6.85 5.59-9.95 8.5-3.28 3.08-6.38 5.99-9.8 8.23-6.46 3.29-12.79 6.55-19.1 10.08l-.41.25c-.27.18-.55.36-.84.55-1.93 1.25-4.57 2.95-6.21 5.8l-.03.06c-.19.16-.57.41-.85.61-1.08.74-2.57 1.75-3.8 3.42l-.36.55c-.65 1.12-1.94 2.01-3.58 3.15-1.58 1.1-3.38 2.34-5.02 4.11l-10.32 11.21c4.41-1.55 8.77-3.26 13.05-5.13.03-.01.06-.03.09-.04 5.35-2.34 10.6-4.92 15.71-7.75.03-.02.06-.03.08-.05a187.549 187.549 0 0 0 12.14-7.32c3.89-2.55 7.69-5.24 11.39-8.08.03-.02.06-.05.09-.07.9-.69 1.8-1.39 2.69-2.1.06-.05.13-.1.19-.15 3.61-2.88 7.12-5.91 10.53-9.06a192.404 192.404 0 0 0 10.15-10.16c.05-.06.1-.11.16-.17.77-.83 1.52-1.67 2.28-2.51l.23-.26c3.09-3.48 6.05-7.09 8.89-10.83l.28-.37c.69-.91 1.37-1.82 2.04-2.74-.49-.51-1.07-.96-1.72-1.3l6.37-5.36v-.01c.77-1.16 1.53-2.34 2.28-3.52.34-.54.68-1.09 1.01-1.64.41-.67.83-1.34 1.23-2.01.4-.67.8-1.34 1.19-2.02l.93-1.62c.44-.77.88-1.55 1.31-2.33.22-.39.43-.79.64-1.18 2.4-4.43 4.65-8.98 6.73-13.66l-8.81 2.87zm-251.41-177-.09-.29-.81-2.56-7.59-3.3-4.66 1.39.51-1.18-2.33-7.14c.58-.33 1.11-.69 1.59-1.07l.68 6.47 8.01-5.05c.87-.55 1.55-1.15 2.1-1.66.52 0 1.02-.03 1.5-.1l-4.33 6.78 2.63 1.45-.27 1.25 5.01 1.59.39.26-2.34 3.16zm10.89 11.54c-1.66-.45-3.32-.67-4.95-.66-.08-.11-.15-.21-.19-.28l-.63-2.52-1.61-.83c-.16-.22-.37-.47-.62-.75l.06-1.91c1.01.43 2.15.66 3.41.68l4.79.08 1.92.84-5.34 3.69 3.2 1.69-.04-.03zm5.72 3.27.04-.26c.06.03.13.07.19.1-.08.05-.16.1-.23.16zm20.64-30.85h-.02c.03-.03.06-.06.09-.08l-.07.08zm12.05 9.33c-.08-.1-.16-.2-.25-.3l.07-.29.39-.19c.1.29.19.57.29.85-.16-.03-.33-.05-.5-.07zm-5.98 126.29c-.69.47-1.46.66-2.14.69l.96-2.4 1.18 1.71zm32.21-96.97c-.26-.04-.52-.09-.73-.13l-.19-.36c-.09-.3-.19-.59-.31-.85l.48.21.75 1.12v.01zm126.59 146.41a7.83 7.83 0 0 0-.25-1.61l1.21-.04-.47 2.54-.49-.89zm40.22.61c-.32-.85-.87-1.99-1.9-3.09l-4.22-4.45-4.28 4.39c-1.81 1.85-3.38 3.88-4.96 6.4-2.61 1.36-4.31 3.46-5.64 5.1-.75.92-1.68 2.07-2.06 2.09l-4.06.14-.57 1.64-.66-.56-3.82 3.56c-1.86 1.74-3.31 4-4.27 6.63.14-1.38.16-3.01-.26-4.68l2.3-7.42-2.53-4.52 4.81-1.04c2.51-.54 3.98-2.02 4.71-2.83 2.32-1.13 3.93-2.79 5.18-4.51 3.56-1.56 7.25-4.56 8.52-8.54l.17-.53.07-.55c.09-.7.33-1.59.59-2.53.53-1.94 1.19-4.32 1.1-7.11.29-3.63-.77-6.4-1.96-8.47.86-.17 1.62-.42 2.29-.73l1.67 2.6 1.14-4.71c1.12-1.28 1.69-2.67 2.04-3.53.11-.27.21-.53.31-.72.93-1.22 1.84-3.26 1.02-6.07a6.91 6.91 0 0 0 1.89-.87l2.69 2.31 2.71-6.24 2.37-.88 1.24 2.53-1.96 2.79c-1.97 2.79-2.25 5.7-2.44 7.62-.06.61-.15 1.53-.25 1.75l-1.76 2.21.57 2.54c0 .14-.01.35-.02.52-.03.62-.08 1.47.01 2.43l-.14.04.34 13.9-2.75 6.54-1.27.99 4.32 4.36.04 1.66-.32-.16z" opacity=".5" fill="#fff"/><path d="M161.3 309.18c.49-.54.97-1.09 1.6-1.8-.03-.12-.09-.45-.21-1.02l1.26.86c.52-.1 1.23-.25 2.06-.42.24-.54.88-1.14.3-2.19.71-.05 1.34-.09 1.92-.13 1.35 3.79 1.1 7.12 1.31 11.09-.14.12-.51.44-1.03.88-.16-.81-.3-1.55-.45-2.3-.59.23-.83.33-1.17.46.18 1.6-.13 2.88-1.3 4.03-.32 3.44-3.84 5.45-5.04 8.7-.3.69-1.05 1.28-1.74 1.69-.84.5.04 1.48-.87 2.08-.84.56-1.26 1.73-2.04 2.89-8.05-1.19-8.85-4.78-10.38-11.67.2-.82.48-1.54 1.44-1.92.91-.36 1.27-1.51 2.36-1.83 1.27-.8-.12-3.29-.23-4.58-1.02-2.42.88-3.65 1.93-5.67 3.38.63 6.72 2 10.28.85zm50.02-78.81c-1.12-.45-2.02-1.3-3.22-.48.61.51 1.09.91 1.68 1.4.37-.08.95-.2 1.52-.33.01-.2.02-.39.02-.59zm57.46-31.42c-.01.01-.01.01 0 0zM160.13 91.67c-.16 1.89-.04 3.75.17 5.79 1.66-1.05 2.53-2.95 4.71-3.12-1.43-.81-1.43-.81-2.36-.75-.72-.81-1.02-2.02-2.52-1.92zM269.6 198.29c-.43.35-.77.63-.82.66-5.61-.82-9.33-4.09-14.73-3.76-1.15-.32-2.17-1.36-3.23-1.97-.83-.56-1.98-.51-2.61-1.58-1.18-1.09-3.46-1-4.34-2.59-.68-.06-1.47.43-1.85-.76-.19-.59-1.09-.95-1.65-1.39-.36-1.67.9-3.28 0-5.05-.59-.26-1.3-.56-2.08-.91-.22.09-.55.22-.9.36.08.24.16.47.24.71-1.24.19-2.24-.98-3.65-.8-.82.03-1.56-.83-2.31-1.41-3.02-1.59-2.91-4.97-5.62-7.1-2.61-2.24.09-6.14-1.63-8.97-.2-.4-.08-.97-.12-1.58-1.03.01-2.1.13-2.21-1.13-1.11.03-2.15-.22-2.87.15-.73.37-1.27 1.05-2.22.74.32 3.78-.92 7.47.91 11 .21 1.3 1.32 3.52-.65 3.82.15 1.94.3 3.72.46 5.68 1-1.6 1.17-3.8 3.42-4.33.25.57.51 1.17.81 1.85-.37.25-.64.44-1.08.73.35 1.37-.41 2.34-1.71 2.98-.45 1.37.78 2.15 1.06 3.07 5.56 2.26 8.3 2.93 13.51-.74.11-.11.35-.23.48-.18 1.39.4 2.05-1 3.36-1.3-1.46 3.33-2.44 5.9-.88 9.44 4.53 2.05 4.84 4.75 6.98 8.7-1.85 2.64-5.2 3.39-7.38 5.81-.29-.3-.51-.54-.9-.94-1.25.24-2.92 1.75-2.99 3.37.16 1.38-.72 1.63-2.77.9-.99.49-2.37.46-3.02 1.92-.19.42-1.06.55-1.5.75-.99-.43-1.79-.78-2.62-1.14l-2.47 2.44c-2-1.26-4.13-1.54-6.21-1.05-1.74-1.05-3.32-.26-5.04.44-.37 1.28-1.04 2.3-2.71 1.46-2.72.2-5.77.18-8.28-.77-1.18.47-2.34.92-3.48 1.38-.81-.35-1.62-.71-2.43-1.06-3.5.49-5.53.14-6.77-1.28-2.74.49-4.85 1.16-7.85-.01-.34-.56-.91-1.48-1.43-2.33.42-.96.77-1.77 1.12-2.58-.87-2.07.38-4.71.72-6.92.28-1.48 1.87-2.81 1.33-4.36 1.09-.07.31-.9.5-1.34.65-3.02-1.93-5.86-.67-9.06 1.62-3.98-2.89-7.19-1.5-10.99 1.18-3.38 4.55-9.42.95-12.13-.81-2.48.29-4.52.82-7.01-.1-.26-.26-.67-.48-1.22.81-1.25.66-2.64.03-4.01.24-.11.48-.21.94-.41-.25-1.58-.51-3.22-.77-4.85l2.97-3.26c-.07-.1-.15-.22-.22-.32-1.85 1.19-2.97 3.06-4.72 4.31-1.47-1.86-1.54-3.12-.32-5.51-.31-1.27.72-2.18.96-3.88-2.82 2.29-2.4 5.44-2.85 8.81-.52 5.03-3.11 10.01-2.15 15.12-1.34.67-1.24 2.2-2.08 3.36.46 1.41.93 2.88 1.47 4.57-.21.49-.52 1.19-.79 1.82.98 3.64-2.29 6.89-3.21 10.26 2.92 4.64 1.44 9.42.72 14.24-.24.68-.07 1.29.51 1.55 1.05.5-.17 2.23 1.38 2.37 1.37 2.97 2.33 6.07 3.03 9.26.29 1.79 1.9 3.49.88 5.46-.96.3-1.54.39-2.69.48 1.11 1.17 2.92 1.84 2 3.79.59 3.7 3.71 4.62 6.87 3.89 1.45 2.31 4.02 1.33 6.16 2.07 3.27.63 6.6 2.9 9.97 2.25.97-.49 1.67-.04 2.53.33-.05 1.72-1.73 3.01-1.43 4.95-.33.07-.74.16-1.15.25-1.65 4.15-5.64 5.66-8.61 8.49-2.37 1.61-3.86 4.42-6.66 5.75-7.35 5.97-17.17 4.35-25.03 9-1.27.81-2.72 1.31-3.87 2.34-1.1.27-2.05.35-3.21 1.14-2.38-.95-3.55 3.65-5.85 4.43-3.38 3.12-3.56 4.17-1.55 8.3-.92.76-.74.79-1.33 4.21-.26 1.53.93 2.99-.1 4.42.75 1.44 1.51 2.89 2.21 4.25-1.33 3.43-2.17 7.83-1.41 11.17-.34.78-.69 1.59-1.04 2.4-.42.16-.98.21-1.21.51-1.98 2.03-4.77.52-7.09.25-.92-.05-1.92-.32-2.77.63-1.09 1.18-3.5.31-4.92 1.19-1.41 2.58 2.59 7.5 1.01 12.28-1.97-.05-3.59-.5-5.17-1.46-.21.49-.38.87-.6 1.39.86 1.6.87 3.38-.09 5.19-.53.07-1.02.13-1.66.23-1.2 2.67-2.98 2.52-5.56 3.14-.49-.21-.97-.42-1.46-.63 0-.16.06-.45 0-.47-2.11-.92-3.22-3.1-5.24-4.14-6.28-4.21-8.65-11.59-11.68-18.33-3.02-5.98-5.96-12.05-7.41-18.64-1.95-11.99-8.7-24.34-4.19-36.34 2.71-1.52.83-6.7 1.24-9.36 1.52-11.37-.54-23.06-.61-34.57.96-.88 2.14-2.24 1.61-3.69 1.78-.39.32-2.11 1.33-2.93 3.15-3.13 3.63-9.82.65-13.25-.43-.48-1.52-.31-1.54-1.2.44-5.33 3.43-13.57-4.91-13.33-1.05-2.53-.46-5.82-3.32-7.27.68-1.88.7-3.93.5-6.03 1.75-5.14 3.69-10.23 5.89-15.27 6.56-15.1 14.87-28.89 24.57-41.27 3.73-3.18 7.53-6.06 10.49-8.15.25.11.64.28.84.36 5.78-1.01 7.71-7.01 13.24-8.01 2.76-.07 4.43-2.19 7.01-3.18-1.59 2.68-.45 2.62.04 4.83-.01.09.85.51 1.1.37.84-.44 1.66-.08 2.47-.15 2.56-.72 3.36 1.65 5.83 2.2.09.55.2 1.19.31 1.87 1.27.58 2.66.97 3.42 2.44.6.68 2.26.77 3.23.96-.2.92-.38 1.72-.58 2.63-.44.17-1.1.43-1.74.68-.98 3-3.31 4.39-6.41 4.81.13 2.28-.62 4.17-.11 6.49.2.33 1.1.51 1.24.63.43 1.32.8 2.45 1.23 3.78-.44 1.01-.95 2.2-1.45 3.32 1.98 2.52 2.75 4.74 2.8 8 2.53-.16 4.29-1.36 5.32-3.96 1.07-.32 2.28-.69 3.39-1.02 1.12.48 2.08.91 3.15 1.37.16.49.34 1.08.57 1.79-.15.4-.35.96-.57 1.56.43.24.79.45 1.2.68-.02.3-.04.63-.07 1.05.51.22 1.05.46 1.57.68-.03 1-.76 2.12.53 2.5 1.28.39 1.5 1.79 2.54 2.34.51 2.06 2.17 3.33 3.38 4.98 1.98-.47 3.93-.38 5.93.16.54.95 1.08 1.9 1.82 3.22.35.35 1.34.34 2.01 1.21.73.95 2.15 1 3.3.4 5.33-3.71 11.05-7.24 14.22-13.17.87.29 1.3-.59 1.96-.94-.69-.97-1.5-.52-2.41-.14-.23-.5-.46-.99-.8-1.7-2.42.4-4.4.4-6.94-1.07.15-.39.29-.78.41-1.1-1.69-3.09-1.49-4-4.62-1.93-.61-.27-1.32-.57-2.06-.9.82-2-.86-3.25-1.45-5.21.35-.53 1.33-1.34 1.32-2.12.23-2.2 2.19-3.07 2.93-5.1-.18-.18-.41-.4-.73-.69.59-1.3 1.85-1.54 3.01-2.04 1.21 1.75 2.85 3.27 5.33 2.73.12-.28.26-.59.42-.96-.36-1.43-2.49-2.1-3.89-1.72-2.78-.33-1.98-3.21-5.95-3.99-.61.37-1.16.71-1.9 1.16-.31-.71-.55-1.23-.65-1.47-.67.14-1.34.29-2.03.45-.08.87-.15 1.61-.23 2.41-.56.27-1.09.52-1.77.85-.03.74-.06 1.53-.09 2.17.57.09 1 .16 1.87.29-1.14.77-1.88 1.27-2.62 1.78-.09-.65-1.08-.86-.84-1.86.2-.67-.83-1.48-1.6-1.16.27.65.54 1.3.82 1.97-.24.55-.48 1.1-.81 1.87-.19-.31-.29-.48-.5-.83-.87.66-1.55 1.83-3 1.37.08-.37.19-.9.35-1.62-.46.41-.76.67-1.04.92-.07-.05-.14-.09-.22-.13.7-1.1 1.41-2.2 2.22-3.47.27-.11.75-.32 1.34-.57-.64-1.97 1.54-3.35 1.06-5.33.54-.67 1.7-1.06 1-2.27 1.37-1.53 2.67-2.59 4.56-3.63.01-2.88.74-5.95-.39-8.74.46-1.5 1.96-2.93 2.56-4.37-.28-.32-.55-.62-.87-.99.44-.4.85-.77 1.39-1.27-.55-.24-.93-.4-1.41-.61-3.7 1.41-4.79 2.58-4.99 5.53-1.89.8-2.21 2.76-3.07 4.5.27.44.58.93.99 1.58-.22.51-.53 1.21-.73 1.67l.76 3.53c-.21.48-.44 1.02-.67 1.55-.39-.75-.76-1.47-1.1-2.13-.96.46-1.81.86-2.93 1.39-.02.15-.1.88-.18 1.61-1.84.41-3.31 1.67-5.16 1.59.94-.37 1.87-.74 2.79-1.1 2.15-3.23 2.92-6.89 2.71-10.64.95-2.1.73-5.03 2.67-6.47 1.03-.55 1.42-1.63 1.73-2.71-1.06-2.47-4.83-.69-7.25-1.37 1.06-1.92-.3-3.77-2.54-2.57-2.2 2-4.37 3.32-7.8 2.1-1.18.67-2.88.72-3.98 1.98-3.75.43-6.77 6.26-10.38 2.73-.6-.46-1.43-.61-2.31-.96-.04-1.65 3.05-2.35 1.83-4.57 5.66-4.41 11.33-8.36 17.74-11.55l1.41 2.26c-.06.17-.44.96-.22 1.25 1.01.3.57 2.09 1.84 1.93 3.43-1.66 7.72-3.28 9.88-6.49 2.16-.6 2.62-2.54 3.38-4.2.72-.02 1.36-.04 2.03-.06.02.51.04.91.07 1.53.9-.28 1.71-.53 2.39-.75 1.08 1.3 2.94.84 4.32.61 3.45-1.62 7.14.83 10.53-1.27.08.2.15.37.15.38.92-.37 1.85-.74 2.66-1.05 1.14.92 2.54.73 2.98 1.91 5.18-.19 7.89-5.83 13.62-4.26-1.91.64-3.19 2.64-5.56 2.2.11.38.16.6.23.83-1.45.91-1.98-.68-3.79 1.16-.01.46-.02.92-.03 1.6.86.27 1.77.56 2.85.9-.18.42-.44 1.01-.73 1.69 2.55.37 4.76 1.48 7.46 1.12-.32.98-.52 1.61-.73 2.23 1.42 1.22 3.12-.88 4.73.51 2.74-1.57 5.68-4.64 9.05-3.54-.06.82-.7 1.68.28 2.41 1.74.12 2.59-1.86 4.07-1.78.13-.75.23-1.31.32-1.8 2.35-.9 4.15.08 5.79 1.36 1.62 1.58 3.82.23 5.79 1.28-.18-.18-.37-.36-.67-.66.07-.33.18-.81.33-1.49-1.8-.39-3.18-1.86-5.28-1.75-.94.05-1.93-.76-2.86-1.16-.03-.64-.04-1.21-.08-1.97 2.63-.48 4.89-3.79 7.65-3.28 1.93.17 3.5-.25 5.43-.07.9.05 1.78-.82 2.69-.04.88-.46 1.75-.92 3.01-1.58-2.27-.84-4.13-1.99-6.39-1.1-5.37 2.12-12.11-.81-16.81 3.45-.02.47-.04.95-.06 1.22-.97.38-1.77.69-3.01 1.17-3.28-1.15-7.25 2.09-10.66 2.95-1.58-.87-3.34-1.41-5.46-.26.01-.93.03-1.14-.18-1.9 4.14-.14 5.93-4.56 9.91-5.61-1.78-2.11-6.12 1.24-6.53-2.55 8.51-4.92 11.96-3.82 21.15-3.4 4.09-.25 8.18-.53 12.25-.93 1.46-.19 3.03.45 4.35-.61 1.14.84 2.36.7 3.47.37 1.17-.35 2.08.87 3.19.29.69 1.4 1.96.74 3.01.82 1.11.08 1.92.95 3.18.88.95-.06 1.52 1.88 2.92 1.17.32.39.64.76 1.05 1.26-.29.25-.58.51-.9.8-.05 1.18 1.15 1.22 1.77 1.58.12.54.07 1.11.3 1.25 2.1 1.35 3.13 3.42 4.02 5.55-2.11 3.24-6.27 1.01-8.12-1.3.05-.15.1-.31.2-.58-.53-.23-1.07-.46-1.61-.7-.01-.5-.03-.9-.04-1.31-.62.24-1.04 1.49-1.02 3.14-1.45.55-2.43 1.06-3.23 2.4-.12 1.39 1.43 1.83 2.23 2.92.44-.2.89-.4 1.58-.72-.44-.46-.71-.72-1.18-1.21.51-.07.91-.13 1.07-.15 1.33.74 2.57 1.42 3.95 2.19.39-2.75 6.72-2.69 7.25-.16.65-.39 1.18-.71 1.94-1.17-.09-1.45 2.23-1.23 2.53-2.81 1.02.28 1.98.46 2.09 1.84-.41-.14-.8-.26-1.21-.4-.6.37-1.23.76-1.98 1.23.15 1.28 1.85 1.5 2.68 1.94 3.19-1.83 6.35-.73 9.52-.51.24.51.49 1.04.81 1.73.63-.22 1.18-.42 1.47-.52 1.76.51 3.3.96 4.84 1.4 0 .39 0 .77.02 1.42 1.16-.42 2.1-.77 3.14-1.15-.08-.43-.13-.75-.22-1.2 3.61.82 6.06 3.29 8.75 6.06.28-.13.73-.32 1.5-.66-.86-.85-1.13-1-.95-2.04-.35-.2-.72-.42-1.09-.63.38-2.24 1.84-3.74 3.43-5.27 1.64.58 2.47 1.18 3.25 2.23-.57.32-.85.48-1.18.67 1.76 2.41-.87 5.31 1.59 7.6a706.7 706.7 0 0 0-3.38 3.05c.32.41.63.78.96 1.2 1.27-1.02 3.36-.77 4.37-2.91-.11-.3-.31-.92-.62-1.81 1.01-.01 1.79-.02 2.76-.02.33 1.05.63 2.04 1.04 3.33.42-.6.69-.98.94-1.33-.26-.64-.49-1.21-.73-1.81-1.43-.62-2.88-1.25-4.02-1.75-.39-.56-.64-.92-.88-1.27l1.26-.98c-.26-.76-.54-1.57-.87-2.53.42-.23.84-.46 1.38-.75.1.66.19 1.24.29 1.84.69.3 1.45.63 2.73 1.19-.67-.61-.91-.84-1.4-1.28.55.01.87.02 1.21.02.27-.4.55-.81.81-1.21 1.44.8 2.45 2.6 4.04 2.56-.07-.49-.14-.97-.21-1.43-.6-.29-1.13-.56-1.61-.8-.01-.56-.03-1.03-.05-1.59 1.46.16 2.91.33 4.5.5.09-.68.16-1.23.25-1.92 1.44-.43 3.08-.91 4.74-1.41 4.42 1.18 4.99 5.53 10.22 6.66 1.81-.36 2.99 1.04 4.69 1.32-.14-.41-.21-.64-.38-1.12 1.24.54 2.34 1.02 3.41 1.48.26-.35.41-.55.62-.83 1.49.65 3 1.3 4.41 1.92 4.95-2.34 6.44 3.61 10.85 4.39-.44-.68-.78-1.21-1.09-1.69.58-.09 1.21-.2 1.9-.32.18-1.38-1-1.95-1.73-3.23 2.32.99 4.96.61 6.88 2.74.42-.28.94-.63 1.56-1.05l1.49.65c-.54-.61-.78-.89-1.06-1.21.18.01.37.02.56.06 6.24 5.29 12.09 10.95 17.53 16.93-.13 2.89 5.06 6.44 5.96 9.14-.59-.14-1.07-.25-1.85-.43.55.91.98 1.64 1.44 2.4l-.69.33c.07.22.15.46.22.66-.29.17-.57.34-.81.48 1.22 4.68 4.29 8.83 5.26 13.64.16 1.22.64 2.6 1.78 3.3 1.27.81 1.49 2.31 3.26 2.26-.3-.41-.58-.82-.96-1.33 1.74-.4 2.12 2.25 3.85 1.01 1.11 2.72 7.11 8.84 6 11-1.28-2.31-2.51-4.56-4.26-6.77-.22 1.78.89 2.94 1.6 4.38 1.53 3 3.15 5.85 3.77 9.24 1.08 3.08 5.53 16.74 1.9 18.05-.1-.22-.21-.45-.31-.68-1.87 3.85 1.64 9.38-.64 12.88-.24 2.5 1.81 3.61 2.25 5.48 2.43 2.99 3.26 6.53 3.55 10.08-.86 1.34-1.66 2.56-2.54 3.91-.17-.2-.62-.5-.6-.78.08-1.08-.85-2.06-.23-3.21-.81-2.54-1.11-5.26-2.12-7.88-.49.07-.9.12-1.44.2-1.49-1.83-.18-8.56-4.54-5.64.05.48.09.88.17 1.69-.4.09-.88.19-1.6.34-.8-2 .67-3.7-.63-5.58-.51.03-1.05.07-1.39.09-.64 2.11-1.25 4.1-1.95 6.38-.3.26-1.36.09-1.49 1.14.65 2.25.65 2.25 2.33 2.15.31 1.04.63 2.09.99 3.27.18.08.56.24 1.03.45.33-.77.64-1.47 1.04-2.4 1.1.76 2.64.58 3.09 2.25-.45 1.06-1.84 1.47-1.96 2.99-.1 1.24-.97 2.42-1.49 3.63.23 1.01.46 1.99.67 2.89.63.27 1.11.48 1.47.64 1.05 2.99 1.53 5.79 3.7 8.22-.08.22-.2.53-.37.99.3.59.65 1.29.92 1.8-.47 1.08-.82 1.89-1.23 2.84.57.33 1.14.66 1.41.81 1.03 2.15-.48 4.08.17 6.06.06.19-.08.58-.27.7-1.48 1.04-.71 3.06-1.83 4.22-.53.54.65 1.33-.41 1.84-.36.17-.41 1.08-.5 1.67.25 5.26-3.88 8.75-5.85 13.33-1.12.41-2.27.84-3.42 1.26-.15.34-.29.67-.53 1.22-.4-.34-.73-.63-1.21-1.04-.17.53-.35 1.1-.59 1.84-1.21-.23-1.21 2.34-2.98 1.73-1.12.61-2.23 1.22-3.61 1.96-.27 1.11-.61 2.5-.97 4-1.14-1.78-1.2-2.05-.76-4.32-.42 0-.8-.01-1.25-.02-.11-.16-.28-.42-.38-.59-.92.41-1.79.8-2.65 1.19 0-.07-.01-.15-.01-.23-.87.74-1.75 1.48-2.61 2.22-.06-.07-.13-.13-.19-.19-.4 1.74-2.27 3.26-3.02 4.48.03 1.05-.49 1.78-.79 2.89.48.98 1.58 2.26 1.87 3.42-.75 4.28 5.1 6.1 4.38 12.41.23 3.29-1.26 6.11-1.63 9.05-.82 2.56-4.09 4.76-6.75 5.47-1.14 1.86-2.35 3.5-4.46 4.31-1.15.55-1.36 1.82-2.85 2.14.38-2.05 1.42-3.5 1.9-5.13-2.15-1.62-2.15-1.62-3.25-1.59.3-.68.56-1.29.82-1.89-.09-.1-.18-.21-.27-.31-.39.3-.79.61-1.18.92-.85-1.59.46-3.4-.97-4.69-1.11-.65-1.88-2.02-3.5-1.58-.97-.88.06-1.71.14-2.55-.98-1.17-1.89-.25-2.81.04.04 3.04-4.75 9.18-5.67 13.01.15.51.25.84.39 1.3.42-.05.81-.09 1.06-.12 1.14.94-.52 2.11.05 2.59 1.16 1.3.37 2.65-.23 3.93 1.16.46.77 2.83 2.77 2.09 1.14 2.03 2.28 4.08 3.35 5.98-.73 2.37-1.42 4.57-2.15 6.95.85 1.36.79 3.03.51 4.76-.53.11-1.22.26-1.91.41-1.44-1.54-2.92-3.13-4.5-4.82.2-.45.43-.99.64-1.48-1.37-2.25-.83-4.17-.61-6.2l-.25-.03c1.39-2.15 1.04-4.77-.32-6.81-.62-.63.33-1.5-.63-2.09-.54-.33-.66-1.34-1-2.1-.24.26-.47.5-.84.9-.66-3.46 2.84-6.04 2.61-9.45 1.09-.48 1.17-1.6 1.63-2.37-.21-.54-.37-.95-.56-1.41 1.04-2.07 1.85-4.28 1.03-6.54-1.21-4.46.91-9.21-1.43-13.5-.43.84-.88 1.72-1.33 2.61-1.07.14-2.46.97-3.92 2.39-1.08-.19-2.22-.38-3.37-.58-.27-5.62 3.51-2.27 1.39-11.3-.54.06-.92.09-1.31.13-.3-1.82 1.35-4.64-1.69-5.28-.84-2.15-1.82-4.3-1.99-6.64.09-2.34.09-2.34-.91-3.78-.54.04-1.03.07-1.65.11.02.47.04.96.05 1.24-.86.34-1.66.65-2.46.97.04.11.09.22.13.32-2.32-.68-4.13.7-6.44.3-.22-.3-.46-.62-.78-1.05-1.31.43-2.62.85-3.9 1.27.06.94.11 1.65.16 2.36-1.73 2.22-3.38 3.17-6.42 2.86-3.18 3.17-7.13 5.84-11.68 7.3-.63.5-.64 1.26-1.07 2.03-2.5 1.27-2.81-.65-5.21 2.05-4.93-1.24-4.13 5.95-4.93 9.11-.27 2.87-4.28 4.09-3.79 7.46.08.92-.47 1.9-.75 2.87-1.43-.24-1.43-.24-4.22 1.93.06.28.14.59.24 1.05-.92.08-1.82.16-3.02.25-.49.6-1.16 1.43-1.94 2.39-.66.07-1.47.15-2.25.23-4.53-4.11-.75-10.45-3.3-15.5-1.44-3.67.17-7.7-.87-11.52-1.03-3.7-1.15-7.44-.51-11.25.43-3.31-.85-9.36 2.2-11.38-.39-2.23-.11-4.51.5-7.05-.61.28-.97.44-1.3.59-.06 1.96-.06 1.96-1.46 3.33-1.24.18-2.31.33-3.62.52-.55-.24-1.36-.59-2.18-.95-1.1-2.51-3.2-4.58-3.2-7.68l.7.91c1.4-.19 2.87-.4 4.98-.69-4.48-1.67-5.31-.71-6.91-5.77-.9-.69-1.62-1.26-2.32-1.8.18-3-1.65-4.49-1.95-7.59zm108.68-83.58c1.04 4.68-.05 7.64-2.21 11.91-.3 0-.85-.01-1.67-.02.52.96.79 1.44.89 1.63 1.07-.42 1.95-.77 2.95-1.16-.12-.38-.28-.93-.45-1.52.34.02.67.04.98.06 3.09-2.81 1.85-7.11.46-10.48-.1-.19-.54-.24-.95-.42zm-24.58 13.15c.25.46.17 1.02.06 1.5.43.19.74.32 1.05.46.78-1.22.78-1.22-.12-2.38-.3.14-.61.27-.99.42zm-38.4 19.36c1.23.53 2.47 1.07 3.67 1.6.5-.49.95-.92 1.44-1.41-1.71-1.33-3.38-1.14-5.11-.19zm4.92-14.49c-.09.5-.13.74-.17.96 1.09.48 2.13.93 3.14 1.37.42-.22.79-.41 1.65-.85-.89-.39-1.28-.56-1.93-.84-.2.12-.63.37-.72.43-.81-.43-1.33-.72-1.97-1.07zm-10.33 1.73c.47.41.97.87 1.83 1.62-.25-.73-.46-1.13-.4-1.17 1.27-.9 1.97-2.56 3.78-2.64.96-.02 1.81 1.43 2.9.17-2.61-2.07-7.55-2.27-8.11 2.02zm-84.4-83.19c-1.51-.49-3.05-.37-3.42.48.39.22.81.46.88.5 1.08-.43 1.87-.73 2.54-.98zM124.83 229.99c-.11.5-.2.95-.32 1.47 1.35.22 2-.96 3.05-1 .15-.01.27-.72.4-1.09-1-.35-2.04.48-3.13.62zm-11.53 30.8c.14-.46.26-.85.52-1.67-1.08.36-1.8.61-2.34.79-.01.69-.01 1.1-.02 1.57.64-.24 1.25-.47 1.84-.69zm5 3.18c.17-.66.52-1.25.36-1.56-1.25-3.04-.2-6.44-2.16-9.12 1.96-1.25.45-3.52 1.01-5.18.36-1.31-.11-2.86-.22-4.36-.21 0-.45 0-.83-.01.15 1.92-.04 3.74-1.01 5.3.21.53.37.94.59 1.5-1.23 1.56-.83 3.27-.06 4.99 1.39 2.78.35 5.69 2.32 8.44zm22.73-31.01c.3 1.46.59 2.88.87 4.28.3-.01.46-.02 1.06-.06-1.37-2.9-.53-5.42.73-7.89-.42-.14-.64-.22-.93-.32-.59 1.38-1.17 2.72-1.73 3.99zm-16.64 38.18c1.39 2.36.07 4.39.66 6.48-1.58 2.55-1.27 8.62 1.26 9.7-1.03-3.02-.86-5.79.51-8.51-1.07-1.52-.67-3.18-.33-4.9-.56-.73-.38-1.99-2.1-2.77zm6.9-32.06c-.42-.66-1.23-.14-1.26-.22-.35-1.23-1.8-1.05-2.66-.86-.87.89-2 1.53-1.51 3.02.12.36-.28 1.07-.65 1.35-.84.79-.22 2.33-.65 3.47 1.73-.54 2.79 1.59 4.31 2.37.22-.08.54-.2 1.07-.38-.32-.33-.55-.56-.95-.97 1.26-1.36 2.9-2.03 3.72-3.77.47.12.94.24 1.46.37.07-.38.11-.62.15-.87-.59-.29-1.13-.55-1.51-.74.03-1.44-.63-1.94-1.52-2.77zm90.62-122.55c.81-.34 1.62-.67 2.35-.96.54-1.24 1.06-2.43 1.39-3.2-1.39-3.45-2.39-6.3-3.42-9.64-.49-.21-.8-.35-1.11-.48.09-.68.17-1.31.26-2.1.28.11.67.25 1.05.39 1.26-.42 2.52-.83 3.8-1.26-.01-.45-.03-.93-.05-1.41 1.28-.06 2.43-.12 3.77-.18-1.9-1.44-3.9-1.7-5.94-1.68-2.04-1.02-4.08-.57-5.95-.15.05.96.1 1.86.15 2.8.82.2 1.84-.1 2.35.93-.57.28-1 .5-1.68.84-.81-3.09-3.88-.05-5.76-1.78.41-.54.78-1.03 1.24-1.61-.25-.54-.54-1.17-.85-1.82 1.11-.05 1.84.08 2.78-.59-2.22-1.29-2.22-1.29-1.83-3.26-.7-.3-1.4-.61-2.18-.95-1.37 1.04-3.26.82-4.57 1.54-1 .72-1.81 1.48-3.21.87-1.47-.14-2.93 1.85-3.93 2.67-.78.01-1.43.02-1.8.03-1.14.79-2.09 1.45-3.13 2.16.63 1.16-.13 1.82-1.06 2.37.39 2.8 2.94 3.31 4.83 4.92 2.5-.22 5.06-.23 7.53.38.52 1.32 2.03 1.17 2.9 1.94-.02.34-.04.67-.06.98.42.22.78.42 1.15.62-.13.56-.25 1.03-.31 1.31 2.54 1.21 2.95 4.5 6.1 4.08 1.62.16 2.25 2.62 4.21 1.83.28-.05.65.27.98.41zm.86 9.09c-1.24 0-2.41-.99-3.97-.17.63.77 1.18 1.45 1.67 2.06.81-.67 1.5-1.24 2.3-1.89zm28.85-63.45c-.07-1.03.72-2.52-1.13-3.14-.85.34-1.67.66-2.45.97-.37.85-.75 1.72-1.08 2.49.53 1.01 1.78.03 2.09.71.82-.34 1.62-.65 2.57-1.03zm-25.64 67.66c-.42.16-.74.29-1.02.4-.25 1.17-.49 2.3-.73 3.41l1.24.54c.8-1.43.92-2.84.51-4.35zm28.86-60.09-1.95.33c.04.63.07 1.12.11 1.71 1.57.22 2.03-.98 1.84-2.04zm4.53-8.49c-.15-.33-.3-.63-.65-1.34-2.24 1.35-3.47 1.75-3.18 4.61.99-.34 1.67-.58 2.17-.75-.32-1.59 1.06-1.51 1.66-2.52zm-4.06 66.38c-3.02-1.39-2.36-1.27-3.96 1.07-.74-.97-.39-1.99.37-2.51.94-.64.83-1.62 1.41-2.27-1.35-.77-2.19-1.56-2.74-2.87.54-1.73.51-3.11-.53-4.6 1.4-.7 1.5.98 2.63 1.1.02-.51.04-.95.05-1.21.81-.37 1.6-.74 2.39-1.11 3.52 2.05 3.26.11 5.25-2.2-.79-1.48-2.42-1.27-3.34-2.64-1.73-1.23-4.33.28-6.36-.3-3.4 1.53-5.24.01-8.83 2.92.18.99.35 1.97.52 2.96-3.25 2.15-.78 6.43-.72 9.35-.73 1.43.19 2.32.94 3.35-2.91-.53-3.41 3.44-6.13 3.58-.65 1.5-1.21 2.78-1.83 4.21.73.67 1.35 1.52 2.19 1.93 1.13.55-.1 2.18 1.31 2.43 1.81 3.48 5.83 2.32 9.06 3.77.71-2.85 4.17-6.22 2.25-9.08.46-.57.91-1.12 1.53-1.87-.86-.38-1.47-.64-2.14-.93.66-.77 1.19-1.39 1.8-2.1 1.4 1.37 3.15 1.99 5.05 2.14 1.63-1.79-1.27-2.24-.17-5.12zm20.36-.84c.09-.62.37-1.32.22-1.92-.19-.79 1.12-.66.72-1.57-.14-.33.56-1.01.95-1.64-.88-.28-1.46-.71-2.17-1.43-.24.55-.41.93-.53 1.21-.56-.39-1.05-.74-1.57-1.1-1.32 1.33-2.53 2.54-3.8 3.82.4.59.71 1.03 1.2 1.75.61-1.4 1.08-2.49 1.56-3.59.61-.03 1.06-.04 1.63-.06-.33 1.7-1.49 2.53-2.44 3.5.23 1.33 1.48 1.29 2.26 1.72.69-.24 1.27-.44 1.97-.69zm4.17-5.73c-1-.54-1.34-2.38-3.04-1.11.79.58 1.62 1.19 2.5 1.84.16-.21.3-.4.54-.73zm136.23 140.82c.03 1.08.05 2.16.09 3.65.48-1.09.8-1.84 1.18-2.7-.2-.31-.46-.71-.73-1.11-.19.05-.37.11-.54.16zm2.85-18.09c-2.18 3.1-.59 6.74-2.9 9.65.32 1.4-.31 3.14.35 4.77.26-.24.53-.48.95-.86-.75 2.26-.75 2.26-.2 3.46 2.9-1.38.53-7.03 2.19-8.75 1.08-.77 1.33-1.95 1.81-2.99-.29-1.47-.75-2.92.06-4.31-.84-.35-1.48-.63-2.26-.97zm11.44-50.99c1.96-.44.32-5.97-.17-7.7-.35.14-.68.27-.8.32-.2.9-.38 1.68-.58 2.59 1.51 1.2 1.23 3.14 1.55 4.79zm-7.95 69.4c-.25.58-.49 1.13-.71 1.63.19.48.35.88.56 1.42-.34.78-.72 1.66-1.1 2.52.14.08.28.14.41.22.62-1.75 2.48-4.21.84-5.79zm-44.13 68.17c-.03-.13-.06-.28-.09-.41-1.17-.13-2.33-.26-3.47-.39-.09-.19-.16-.34-.29-.63-.8.63-1.58 1.23-2.3 1.8-1.05-.01-2.55.43-3.39-.18-1.35-2.31-3.66-.95-5.46-1.46-.91.21-1.43 1.37-2.11 2.1.44.28.85.55 1.25.8-.03.36-.05.69-.07.98 1.39.15 2.58.81 3.93.62 1.63-.12 3.31-.83 4.89.32 2.56-.22 5.51-.26 8.06-.67.26-.59.52-1.19.77-1.76-.97 0-2.12.77-2.83.17.17-.63.39-1.15 1.11-1.29zm40.93-99.73c1.59-3.04 2.22-8 1.58-11.13-2.18 3.96-3.39 7.43-1.58 11.13zm-.9 36.34c-1.36 1.16-.73 2.58-1.25 3.81.43-.11.64-.17.87-.23.18 1.5-1.88 2.61-.46 4.51.57-2.02 1.08-3.78 1.6-5.59-.24-.84-.45-1.6-.76-2.5zM166.88 79.08c1.42.01 2.35-.69 3.16-1.97-2.06-.48-2.17 1.36-3.16 1.97zm236.75 248.79c-3.19 4.05-6.5 8.19-10.43 11.83-.16-.42-.23-.58-.41-1.04-7.52 5.12-13.28 12.6-20.92 17.53-6.44 3.28-12.86 6.58-19.17 10.12-1.81 1.22-4.12 2.47-5.23 4.4-1.06 2.13-3.64 2.73-5.05 4.64-2.23 3.85-6.47 5.16-9.36 8.3 1.86-.73 3.56-.95 4.56-1.91.66-.6 1.74-.51 2.91-.25 24.53-12.28 46.47-29.91 63.9-52.14.1-.75-.12-1.28-.8-1.48zM296.52 283.9c9.47 1.29 7.97-9.17 3.42-14.01.09 1 .14 1.92-.48 2.47-2.47 1.76-1.95 5.45-3.34 7.75.13 1.29.25 2.43.4 3.79zm102.62-42.41c-1.29.51-2.4.94-3.64 1.43.51 1.4-2.77.62-.78 5.32 3.51-.18 3.13-2.53 4.58-4.81.65-.54.03-1.43-.16-1.94zm30.35-91.57c-.32-2.37-.06-5.06-3.1-6.22.42 2.53.97 4.77 3.1 6.22zm-24.61 153.81c.97-.35 1.91-.7 2.83-1.03.13-.49.24-.86.3-1.12-.71-.08-1.27-.14-2.06-.22-.29.79-1.79.93-1.07 2.37zm-45.59 25.08c.42-1.34 1.1-.52 1.7-.47.65.06 1.3.01 2.07.01.7-3.02 2.95-5.31 4.1-8.18.54.16.94.29 1.47.45.81-1.46-.32-2.93.27-4.5-.91.28-1.49.46-1.9.59-.23.53-.39.91-.61 1.41.39-.13.63-.2.89-.28.03.53.06 1.05.08 1.73-.93-.09-1.06-1.86-2.23-.92-.13-1.44-.54-2.74.36-4.13-.88.02-1.43.03-1.94.03l-.37-.94c.72-.94 1.33-1.66 2.09-2.51.08-1.27-1.28-2-1.25-3.24-.21.05-.43.11-.63.17l-.5-1.27c-.4.04-.8.09-1.23.13-.02-.54-.03-.94-.04-1.15-.55-.45-.98-.81-1.87-1.54-.07.08-.4.49-.73.91-.98-4.45-5.43-6.15-5.78-10.8-2.23-.08-4.31.19-5.47-1.71-3.3.04-.44 6.66 1.55 6.47.73 1.11.53 2.37 1.26 3.31-1.24 1.9 1.55 2.23 2.16 3.45-.14 1.87-.26 3.42-.36 4.79 1.99 1.55 2.51 6.45 1.83 8.92 1.04 3.64 3.11 6.07 5.08 9.27zM207.63 43.28c.64-.91 1.06-1.5 1.69-2.38-4.88-.19-8.67 3.04-12.32 5.69-1.34.49-2.57 1.04-4.15.97-1.45-.06-2.67 1.59-4.33 1.63-.72 1.01-2 .93-2.94 1.56.33 1.58 1.55 2.44 2.85 3.3 1.89-.89 3.78-1.51 5.85-1.83.08-.74.14-1.27.2-1.81 4.48-1.93 8.03-6.79 13.15-7.13zm22.21-13.6c.96.67 1.83 1.2 3.14.11-1.38-.88-2.04-.9-3.14-.11zm-38.23 95.98c.16-.37.32-.74.49-1.12-1.46-1.12-3.34-1.23-4.86-.18 2.45 1.29 2.45 1.29 4.37 1.3zm111.28-72.07c1.61-.32 3.28-.65 4.96-.99-.52-.54-1.17-.87-1.55-.68-1.02.62-1.72-.28-2.63-.2-.36.34-.69.65-.95.89.05.31.09.54.15.86-1.56-.17-4.2.54-6.46 1.69.29.74.58 1.47.91 2.32.52.04 1.33.67 1.82.35-.26-3.17 1.73-2.75 3.73-4.29.02.02.02.04.02.05zm-128.3 60.95c-1.11-1.6-2.17-2.36-3.28-3.07 1.03.87.67 3.03 3.28 3.07zm-16.1-29.86c2.69.27 4.04-1.72 6.31-2.52.27-.61.5-1.15.81-1.85-.82.01-1.46.02-2.01.03-1.62 1.37-3.19 2.7-5.11 4.34zm263.08 187.23c-.66 2.45-1.89 3.23-2.93 5.2-.46.06-1.04.14-1.72.23-.24.94-.84 1.52-1.69 2.18 1.26 1.27 1.52-1.04 2.42-.32.52 1.82-1.03 3.04-.64 4.9 1.95-.58 1.92-1.99 1.9-3.48.49-.23 1.02-.48 1.73-.81.44-2.66 1.97-5.06.93-7.9zM196.65 44.69c.56-.51.97-.87 1.59-1.44-.59-.26-1.12-.66-1.32-.54-1.23.6-2.68.12-3.9.26-1.58 1.71-4.33 1.41-5.84 2.94.67.29 1.3.56 1.92.83 3-.08 4.85-2.38 7.55-2.05zm203.62 272.08c-.19.62-.39 1.24-.66 2.14.54-.46.82-.71 1.31-1.13-.19.72-.32 1.2-.45 1.67.14.06.27.12.4.18.66-2.08 1.32-4.18 2.03-6.42-1.48-3.59 3.15-3.48 3.2-6.39-1.28.96-2.45 1.84-3.73 2.81-.32-.69-.56-1.19-.73-1.57-1.97.53-1.56 2.94-3.17 3.77-.29 1.8-2.38 2.71-2.4 4.59.29.21.49.34.86.6-.94 1.7-1.85 3.34-2.77 5.01.37.12.53.18.7.23 2.87-2.42 2.51-7.19 5.8-8.95l-.92 2.11c.22.53.38.94.53 1.35zm.99-12.7c.16-.37.3-.7.44-1.01-.37-.54-.73-1.08-.96-1.42.26-.99.36-1.78.68-2.46.41-.87-.5-1.89.55-2.75 1.41-1.25 1.96-3.44 3.07-4.92.64-.68 1.35-1.25 1.36-2.25-1.5-.87-1.03-2.34-2.13-3.5-2.11 2.17-3.69 4.5-5.14 7.01-4.93 1.27-5.9 8.16-11.55 8.35-1.03 3.01-2.7 5.38-5.28 3.21-2.62 2.44-3.64 6.28-3.79 9.8.47-.13.68-.19 1.03-.28-.42 1.83-1.81 3.29-1.32 5.21l3.16-.46-.07 1.16h1.39l1.71-1.55c.34.4.65.77.96 1.13.48-.02.96-.03 1.59-.05-.17.64-.29 1.12-.43 1.62.98-.47 1.95-.73 2.61-1.32.66-.61 2.63-.33 1.73-2.19-.05-.11.06-.42.17-.46 1.3-.58 1.32-1.97 1.84-3.02 1.3-2.82 4.33-4.29 5.02-7.48.79-1.04 1.6-2.85 3.36-2.37zm28.11-119.92c1.55-.06 1.36-1.61 2.12-2.45 1.6 1.67-1.41 2.93.01 4.5 1.89-1.99 1.07-4.15.43-6.34.46.01.7.01 1.19.01-.31 1.04.12 1.85.64 2.86.96-1.61.27-2.99.33-4.39.15-.06.39-.17.49-.21 1.1-3.02 1.17-5.66-.05-8.62-1.63-4.33-1.23-9.51-3.99-13.29-.04 4.35 2.64 8.19 2.4 12.73.18 1.83-.67 3.55-.18 5.38.39 1.43-.21 2.72-1.44 3.41-2.11 1.45-1.14 4.33-1.95 6.41zm-11.82 121.78c1-.84 1.79-1.51 2.46-2.08a108 108 0 0 1-.65-1.66c.63-1.45 1.22-2.8 1.91-4.39-3.47 1.07-2.72 5.07-3.72 8.13z" fill="#4caf50"/><path class="st1" d="M330.05 42.55c22.99 10 43.34 24.2 60.47 42.2 16.55 17.39 29.42 37.59 38.26 60.03s13.2 45.99 12.96 70c-.25 24.85-5.44 49.11-15.44 72.11s-24.2 43.34-42.2 60.47c-17.39 16.55-37.59 29.42-60.03 38.26s-45.99 13.2-70 12.96c-24.85-.25-49.11-5.44-72.11-15.44s-43.34-24.2-60.47-42.2c-16.55-17.39-29.42-37.59-38.26-60.03s-13.2-45.99-12.96-70c.25-24.85 5.44-49.11 15.44-72.11s24.2-43.34 42.2-60.47c17.39-16.55 37.59-29.42 60.03-38.26s45.99-13.2 70-12.96c24.86.25 49.12 5.45 72.11 15.44m1.17-2.7C235.68-1.69 124.54 42.08 83 137.63s2.23 206.68 97.78 248.22 206.68-2.23 248.22-97.78-2.23-206.67-97.78-248.22z"/><path class="st0" d="M476.39 221.28c1.97-28.14-1.23-55.48-9.53-81.27-18.5-57.52-60.72-102.69-122.09-130.63l-.25-.11-6.38 14.68c246.48 112.22 85.84 481.58-164.29 377.83l-6.38 14.68.24.1c62.28 25.83 124.1 25.91 178.79.22 24.52-11.52 46.7-27.82 65.94-48.45 18.46-19.8 33.41-42.7 44.45-68.09 11.05-25.4 17.61-51.96 19.5-78.96z"/><path d="m181.3 404.71 6.88-15.83c22.24 8.59 45.19 12.66 67.81 12.66V24.16c-59.93 0-118.59 30.16-153.47 78.91-31.82 44.48-42.87 103.18-29.41 156.18 9.34 36.78 30.37 70.34 58.78 95.42 7.2 6.36 14.89 12.18 22.98 17.36 6.83 4.38 17.03 6.82 16.91 14.33-.14 8.79-9.67 22.24-13.27 30.5-.88 2.03.05 4.38 2.07 5.26l7.34 3.19c2.03.88 4.38-.05 5.26-2.07l1.69-3.9c21.42 8.21 42.76 13.37 63.74 15.47l-13.13 28.26a20.224 20.224 0 0 1-12.63 10.88l-40.04 11.78a21.476 21.476 0 0 0-14.39 14.07l-3.81 12.2H256v-92.13c-23.64-.5-48.66-5.26-74.7-15.16z" opacity=".15" fill="#444"/></svg>