<svg xmlns="http://www.w3.org/2000/svg" viewBox="0 0 512 512" xml:space="preserve"><style>.st6{fill:#444;opacity:.15}</style><path fill="#e0ac7e" d="M256 268h-27l9 33h36l9-33z"/><ellipse cx="256" cy="403" rx="117" ry="109" fill="#a18267"/><path fill="#cc584c" d="M365 0H147L88 276h336z"/><path d="M159.8 341c-5.5 7.4-10 15.4-13.5 24h219.4c-3.4-8.6-8-16.6-13.5-24H159.8zM139 403c0 4.1.2 8.1.7 12h232.6c.5-3.9.7-7.9.7-12s-.2-8.1-.7-12H139.7c-.5 3.9-.7 7.9-.7 12zm213.2 62c5.5-7.4 10-15.4 13.5-24H146.3c3.4 8.6 8 16.6 13.5 24h192.4z" fill="#444" opacity=".5"/><path opacity=".5" fill="#fff" d="m312.6 0 31.7 276h48L327.9 0z"/><path class="st6" d="M373 403H139c0 60.2 52.4 109 117 109s117-48.8 117-109z"/><path class="st6" d="M152 453c19.5 35 58.7 59 104 59s84.5-24 104-59H152z"/><path class="st6" d="M175.4 482c21 18.6 49.4 30 80.6 30s59.6-11.4 80.6-30H175.4z"/></svg>