<svg version="1.1" xmlns="http://www.w3.org/2000/svg" x="0" y="0" viewBox="0 0 512 512" xml:space="preserve"><style type="text/css">.st1{fill:#f1dd9d}</style><circle cx="256" cy="256" r="256" fill="#eec646"/><path class="st1" d="M256 38c29.4 0 58 5.8 84.9 17.1 26 11 49.3 26.7 69.3 46.7 20 20 35.7 43.3 46.7 69.3C468.2 198 474 226.6 474 256s-5.8 58-17.1 84.9c-11 26-26.7 49.3-46.7 69.3-20 20-43.3 35.7-69.3 46.7C314 468.2 285.4 474 256 474s-58-5.8-84.9-17.1c-26-11-49.3-26.7-69.3-46.7s-35.7-43.3-46.7-69.3C43.8 314 38 285.4 38 256s5.8-58 17.1-84.9c11-26 26.7-49.3 46.7-69.3s43.3-35.7 69.3-46.7C198 43.8 226.6 38 256 38m0-16C126.8 22 22 126.8 22 256s104.8 234 234 234 234-104.8 234-234S385.2 22 256 22z"/><circle transform="rotate(-75.807 125.399 125.596)" class="st1" cx="125.4" cy="125.6" r="8"/><circle class="st1" cx="102.4" cy="153.6" r="8"/><circle class="st1" cx="185.3" cy="426.9" r="8"/><circle class="st1" cx="102.3" cy="358.8" r="8"/><path class="st1" d="M188.3 92.6c4.1-1.7 6.1-6.4 4.4-10.5s-6.4-6.1-10.5-4.4-6.1 6.4-4.4 10.5 6.4 6 10.5 4.4zm-30.4 310.5c-3.7-2.5-8.7-1.5-11.1 2.2-2.5 3.7-1.5 8.7 2.2 11.1 3.7 2.5 8.7 1.5 11.1-2.2 2.4-3.6 1.4-8.6-2.2-11.1z"/><circle class="st1" cx="153.2" cy="102.2" r="8"/><circle class="st1" cx="125.4" cy="386.8" r="8"/><circle class="st1" cx="74.8" cy="220.2" r="8"/><path class="st1" d="M290.5 82.9c4.4.9 8.6-2 9.4-6.3.9-4.4-2-8.6-6.3-9.4-4.4-.9-8.6 2-9.4 6.3-.9 4.3 2 8.5 6.3 9.4z"/><circle class="st1" cx="426.9" cy="185.2" r="8"/><circle class="st1" cx="437.4" cy="219.9" r="8"/><circle class="st1" cx="85.1" cy="326.8" r="8"/><circle class="st1" cx="71" cy="256" r="8"/><circle class="st1" cx="85.3" cy="185.5" r="8"/><circle class="st1" cx="74.6" cy="292.1" r="8"/><path class="st1" d="M221.6 429.5c-4.4-.9-8.6 2-9.4 6.3-.9 4.4 2 8.6 6.3 9.4 4.4.9 8.6-2 9.4-6.3s-2-8.5-6.3-9.4z"/><circle class="st1" cx="409.7" cy="358.8" r="8"/><circle class="st1" cx="409.8" cy="153.2" r="8"/><circle class="st1" cx="386.6" cy="125.6" r="8"/><circle class="st1" cx="386.6" cy="386.9" r="8"/><circle class="st1" cx="441" cy="256" r="8"/><circle class="st1" cx="437.2" cy="292.2" r="8"/><circle class="st1" cx="219.9" cy="74.6" r="8"/><circle class="st1" cx="426.7" cy="326.9" r="8"/><circle class="st1" cx="292.1" cy="437.4" r="8"/><circle class="st1" cx="256" cy="71" r="8"/><circle class="st1" cx="256" cy="441" r="8"/><circle class="st1" cx="358.7" cy="102.6" r="8"/><circle class="st1" cx="358.8" cy="409.8" r="8"/><circle class="st1" cx="326.8" cy="426.8" r="8"/><circle class="st1" cx="326.7" cy="85.5" r="8"/><path d="M280.5 299.3c0-6.6-1.9-12-5.7-16.2-3.8-4.2-10.3-8-19.5-11.6-18.1-6.6-31.5-14-40.3-22.1-8.7-8.1-13.1-19.6-13.1-34.3 0-13.7 4.4-24.9 13.2-33.7s20.6-13.9 35.4-15.5v-26.3H270v26.7c14.3 2.1 25.5 8.1 33.7 17.9 8.2 9.8 12.2 22.6 12.1 38.4l-.4.6h-34.8c0-9.6-2-17.1-6-22.3s-9.4-7.8-16.2-7.8c-7 0-12.3 2-15.7 6.1-3.5 4-5.2 9.4-5.2 16.1 0 6.4 1.8 11.5 5.4 15.5 3.6 4 10.3 7.9 20 11.7 18 7.1 31.4 14.7 40.1 22.8s13.1 19.4 13.1 33.9c0 14.1-4.4 25.4-13.2 34-8.8 8.5-20.6 13.6-35.6 15.1v24.2h-19.5v-24.1c-15.3-1.6-27.9-7-37.8-16.2-10-9.3-14.8-22.9-14.4-40.8l.2-.6h34.8c0 10.9 2.5 18.8 7.6 23.5s11.4 7.1 19.1 7.1c7.4 0 13.1-2 17.1-5.9s6.1-9.5 6.1-16.2z" opacity=".3" fill="#444"/><path d="M0 256c0 141.4 114.6 256 256 256V0C114.6 0 0 114.6 0 256z" opacity=".15" fill="#444"/></svg>