<svg version="1.1" xmlns="http://www.w3.org/2000/svg" x="0" y="0" viewBox="0 0 512 512" xml:space="preserve"><style type="text/css">.st2{opacity:.5;fill:#f4f4f4}</style><path fill="#eec646" d="M0 261l192 164 260-141 60-202-274 141z"/><path fill="#e3a00a" d="M238 223l-46 202 260-141z"/><path class="st2" d="M321.3 296.8l1.4-1.6-82.4-71.6-2.3-.6-.3 1.1z"/><path fill="#ff7f00" d="M282 176l132 80-186 80z"/><path class="st2" d="M321 296l1.8-.8-39.5-118.4-1.3-.8-.5 1.6z"/><path d="M0 261l414-5-222 169zM512 82l-98 174 38 28z" fill="#ffa000"/><path fill="#e49003" d="M414 256L192 425l260-141z"/></svg>