<svg version="1.1" id="Layer_1" xmlns="http://www.w3.org/2000/svg" x="0" y="0" viewBox="0 0 512 512" style="enable-background:new 0 0 512 512" xml:space="preserve"><style type="text/css">.st1{fill:#ddd}.st2{opacity:.15;fill:#444;enable-background:new}</style><path d="M342 512H170c-17.7 0-32-14.3-32-32V32c0-17.7 14.3-32 32-32h172c17.7 0 32 14.3 32 32v448c0 17.7-14.3 32-32 32z" style="fill:#f4f4f4"/><circle class="st1" cx="197.5" cy="70" r="32.5"/><circle class="st1" cx="197.5" cy="163" r="32.5"/><circle class="st1" cx="197.5" cy="256" r="32.5"/><circle class="st1" cx="197.5" cy="349" r="32.5"/><circle class="st1" cx="197.5" cy="442" r="32.5"/><circle class="st1" cx="314.5" cy="70" r="32.5"/><circle class="st1" cx="314.5" cy="163" r="32.5"/><circle class="st1" cx="314.5" cy="256" r="32.5"/><circle class="st1" cx="314.5" cy="349" r="32.5"/><circle class="st1" cx="314.5" cy="442" r="32.5"/><path class="st2" d="M260 477h-8c-3.3 0-6-2.7-6-6V47c0-3.3 2.7-6 6-6h8c3.3 0 6 2.7 6 6v424c0 3.3-2.7 6-6 6z"/><path class="st2" d="M170 0c-17.7 0-32 14.3-32 32v448c0 17.7 14.3 32 32 32h86V0h-86z"/></svg>