<svg version="1.1" xmlns="http://www.w3.org/2000/svg" x="0" y="0" viewBox="0 0 512 512" xml:space="preserve"><style type="text/css">.st0{fill:#2e86b7}.st1{opacity:.15;fill:#444}.st2{fill:#bbb}</style><path class="st0" d="M266 81.8h-97.6V99c0 4.2.8 8.3 2.4 12.1l5.6 13.5c2.1 5.2 4.1 10.5 5.9 15.8l4.2 12.6c1.1 3.3 1.6 6.7 1.6 10.1V444c0 37.6 30.4 68 68 68s68-30.4 68-68V163.2c0-3.4.6-6.9 1.6-10.1l4.2-12.6c1.8-5.3 3.7-10.6 5.9-15.8l5.6-13.5c1.6-3.9 2.4-8 2.4-12.1V81.8H266zm-10 393.7c-17.4 0-31.5-14.1-31.5-31.5s14.1-31.5 31.5-31.5 31.5 14.1 31.5 31.5-14.1 31.5-31.5 31.5z"/><path class="st1" d="M280 363.7h-48c-6.6 0-12-5.4-12-12V202.3c0-6.6 5.4-12 12-12h48c6.6 0 12 5.4 12 12v149.3c0 6.7-5.4 12.1-12 12.1z"/><ellipse class="st0" cx="256" cy="81.8" rx="87.6" ry="59.5"/><ellipse class="st2" cx="256" cy="81.8" rx="74.8" ry="50.8"/><path class="st2" d="M181.3 50.8h149.5v31H181.3z"/><ellipse cx="256" cy="50.8" rx="74.8" ry="50.8" fill="#36434f"/><ellipse cx="256" cy="48.4" rx="70.7" ry="46.4" fill="#ddd"/><path class="st1" d="M256 475.5c-17.4 0-31.5-14.1-31.5-31.5s14.1-31.5 31.5-31.5V0c-41.2 0-74.7 22.7-74.7 50.7-8.2 9-12.9 19.7-12.9 31.1V99c0 4.2.8 8.3 2.4 12.1l5.6 13.5c2.1 5.2 4.1 10.5 5.9 15.8l4.2 12.6c1.1 3.3 1.6 6.7 1.6 10.1V444c0 37.6 30.4 68 68 68l-.1-36.5z"/></svg>