<svg xmlns="http://www.w3.org/2000/svg" viewBox="0 0 512 512" xml:space="preserve"><style>.st0{fill:#cc584c}.st1{fill:#ddd}</style><circle class="st0" cx="256" cy="256" r="58"/><circle class="st1" cx="256" cy="256" r="30"/><path class="st0" d="M256 4C116.8 4 4 116.8 4 256s112.8 252 252 252 252-112.8 252-252S395.2 4 256 4zm0 444c-106 0-192-86-192-192S150 64 256 64s192 86 192 192-86 192-192 192z"/><circle cx="256" cy="256" r="8" fill="#36434f"/><path class="st0" d="M246 17h20v201.7h-20zm0 276.3h20V495h-20zM127.81 54.015l17.32-10 100.85 174.672-17.32 10zM266.01 293.3l17.32-10 100.85 174.673-17.32 10zM43.965 145.235l10-17.32 174.672 100.85-10 17.32z"/><path class="st0" d="m283.33 283.334 10-17.32 174.672 100.85-10 17.32zM17 246h201.7v20H17zm276.3 0H495v20H293.3zM44.016 366.86l174.672-100.85 10 17.32L54.016 384.18zm239.286-138.202 174.672-100.85 10 17.32-174.672 100.85z"/><path class="st0" d="m127.9 458.018 100.85-174.672 17.32 10-100.85 174.672zm138.098-239.365 100.85-174.672 17.32 10-100.85 174.672z"/><path class="st1" d="M256 0C114.6 0 0 114.6 0 256s114.6 256 256 256 256-114.6 256-256S397.4 0 256 0zm0 490C126.8 490 22 385.2 22 256S126.8 22 256 22s234 104.8 234 234-104.8 234-234 234z"/><path d="M0 256c0 141.4 114.6 256 256 256V0C114.6 0 0 114.6 0 256zM151.5 95l67.3 116.5c-2.6 2.2-5 4.6-7.2 7.2L95 151.5c14.7-22.6 33.9-41.8 56.5-56.5zM85 168.8l116.6 67.3c-1.2 3.2-2 6.5-2.6 9.9H64.3c1.4-27.7 8.7-53.8 20.7-77.2zM64.3 266h134.6c.6 3.4 1.5 6.7 2.6 9.9L85 343.2c-12-23.4-19.3-49.5-20.7-77.2zM95 360.5l116.5-67.3c2.2 2.6 4.6 5 7.2 7.2L151.5 417c-22.6-14.7-41.8-33.9-56.5-56.5zm151 87.2c-27.7-1.4-53.8-8.7-77.2-20.7l67.3-116.6c3.2 1.2 6.5 2 9.9 2.6v134.7zm0-248.8c-3.4.6-6.7 1.5-9.9 2.6L168.8 85c23.4-12 49.5-19.3 77.2-20.7v134.6z" opacity=".15" fill="#444"/></svg>