<svg version="1.1" xmlns="http://www.w3.org/2000/svg" x="0" y="0" viewBox="0 0 512 512" xml:space="preserve"><style type="text/css">.st0{fill:#122a3a}.st1{fill:#36434f}</style><path class="st0" d="M364.9 478.3H126V512h238.9c9.5 0 17.1-7.6 17.1-16.9.1-9.3-7.6-16.8-17.1-16.8z"/><path class="st0" d="M128.874 460.947l3.815-33.484 250.586 28.549-3.815 33.484z"/><path class="st1" d="M384.8 455.5l-260.5 22.8c-9.3.8-16.1 9-15.3 18.3.8 9.3 9 16.1 18.3 15.3l260.5-22.8c9.3-.8 16.1-9 15.3-18.3-.9-9.2-9-16.1-18.3-15.3z"/><path class="st1" d="M384.8 455.5l-260.5 22.8c-9.3.8-16.1 9-15.3 18.3.8 9.3 9 16.1 18.3 15.3l260.5-22.8c9.3-.8 16.1-9 15.3-18.3-.9-9.2-9-16.1-18.3-15.3z"/><path class="st0" d="M128.781 410.33l3.815-33.485 250.586 28.549-3.815 33.484z"/><path class="st1" d="M384.8 404.9l-260.5 22.8c-9.3.8-16.1 9-15.3 18.3.8 9.3 9 16.1 18.3 15.3l260.5-22.8c9.3-.8 16.1-9 15.3-18.3-.9-9.2-9-16.1-18.3-15.3z"/><path class="st0" d="M128.787 359.722l3.815-33.484 250.586 28.55-3.815 33.483z"/><path class="st1" d="M384.8 354.3l-260.5 22.8c-9.3.8-16.1 9-15.3 18.3.8 9.3 9 16.1 18.3 15.3l260.5-22.8c9.3-.8 16.1-9 15.3-18.3-.9-9.2-9-16.1-18.3-15.3z"/><path class="st0" d="M128.794 309.116l3.815-33.485 250.585 28.55-3.814 33.484z"/><path class="st1" d="M384.8 303.7l-260.5 22.8c-9.3.8-16.1 9-15.3 18.3.8 9.3 9 16.1 18.3 15.3l260.5-22.8c9.3-.8 16.1-9 15.3-18.3-.9-9.2-9-16.1-18.3-15.3z"/><path class="st0" d="M128.8 258.509l3.815-33.484L383.2 253.574l-3.815 33.484z"/><path class="st1" d="M384.8 253.1l-260.5 22.8c-9.3.8-16.1 9-15.3 18.3.8 9.3 9 16.1 18.3 15.3l260.5-22.8c9.3-.8 16.1-9 15.3-18.3-.9-9.2-9-16.1-18.3-15.3z"/><path class="st0" d="M128.806 207.902l3.815-33.484 250.586 28.549-3.815 33.484z"/><path class="st1" d="M384.8 202.5l-260.5 22.8c-9.3.8-16.1 9-15.3 18.3.8 9.3 9 16.1 18.3 15.3l260.5-22.8c9.3-.8 16.1-9 15.3-18.3-.9-9.2-9-16.1-18.3-15.3z"/><path class="st0" d="M128.813 157.295l3.815-33.484 250.585 28.55-3.814 33.484z"/><path class="st1" d="M384.8 151.9l-260.5 22.8c-9.3.8-16.1 9-15.3 18.3.8 9.3 9 16.1 18.3 15.3l260.5-22.8c9.3-.8 16.1-9 15.3-18.3-.9-9.3-9-16.1-18.3-15.3z"/><path class="st0" d="M128.82 106.689l3.814-33.485 250.586 28.55-3.815 33.484z"/><path class="st1" d="M384.8 101.3l-260.5 22.8c-9.3.8-16.1 9-15.3 18.3.8 9.3 9 16.1 18.3 15.3l260.5-22.8c9.3-.8 16.1-9 15.3-18.3-.9-9.3-9-16.1-18.3-15.3z"/><path class="st0" d="M128.825 56.082l3.815-33.484 250.586 28.549-3.815 33.484z"/><path class="st1" d="M384.8 50.7L124.3 73.5c-9.3.8-16.1 9-15.3 18.3s9 16.1 18.3 15.3l260.5-22.8c9.3-.8 16.1-9 15.3-18.3-.9-9.3-9-16.1-18.3-15.3z"/><path class="st0" d="M147.1 0C137.6 0 130 7.6 130 16.9c0 9.3 7.7 16.9 17.1 16.9H386V0H147.1z"/><path class="st1" d="M384.8.1L124.3 22.9c-9.3.8-16.1 9-15.3 18.3s9 16.1 18.3 15.3l260.5-22.8c9.3-.8 16.1-9 15.3-18.3-.9-9.3-9-16.1-18.3-15.3z"/><path d="M147.1 0C137.6 0 130 7.6 130 16.9c0 1.9.3 3.7.9 5.4l-6.6.6c-9.3.8-16.1 9-15.3 18.3.8 9.3 9 16.1 18.3 15.3l2.9-.3 83.1 9.5-89 7.8c-9.3.8-16.1 9-15.3 18.3.8 9.3 9 16.1 18.3 15.3l2.9-.3 83.1 9.5-89 7.8c-9.3.8-16.1 9-15.3 18.3.8 9.3 9 16.1 18.3 15.3l2.9-.3 83.1 9.5-89 7.8c-9.3.8-16.1 9-15.3 18.3.8 9.3 9 16.1 18.3 15.3l2.9-.3 83.1 9.5-89 7.8c-9.3.8-16.1 9-15.3 18.3.8 9.3 9 16.1 18.3 15.3l2.9-.3 83.1 9.5-89 7.8c-9.3.8-16.1 9-15.3 18.3.8 9.3 9 16.1 18.3 15.3l2.9-.3 83.1 9.5-89 7.8c-9.3.8-16.1 9-15.3 18.3.8 9.3 9 16.1 18.3 15.3l2.9-.3 83.1 9.5-89 7.8c-9.3.8-16.1 9-15.3 18.3.8 9.3 9 16.1 18.3 15.3l2.9-.3 83.1 9.5-89 7.8c-9.3.8-16.1 9-15.3 18.3.8 9.3 9 16.1 18.3 15.3l2.9-.3 83.1 9.5-89 7.8c-9.3.8-16.1 9-15.3 18.3.8 8.9 8.3 15.5 17 15.4h130V0H147.1z" opacity=".15" fill="#444"/></svg>