<svg version="1.1" xmlns="http://www.w3.org/2000/svg" x="0" y="0" viewBox="0 0 512 512" xml:space="preserve"><style type="text/css">.st0{fill:#038387}</style><path class="st0" d="M256 240.8c5.2 0 9.8 2.6 12.6 6.6 8.5-38.1 12.9-77.7 12.9-118.4 0-35-3.3-69.3-9.6-102.4-.9-5-3-9.7-6.1-13.7-3.5-4.5-7.8-8.5-12.5-11.8-3.3-2.3-7.9-.8-9.2 3.1-12.7 39.3-19.5 81.3-19.5 124.8 0 41.8 6.3 82 18 119.9 2.5-4.8 7.5-8.1 13.4-8.1zm13.5 22.3c-2.6 4.8-7.6 8.2-13.5 8.2-5.2 0-9.8-2.6-12.6-6.6-8.5 38.1-12.9 77.7-12.9 118.4 0 35 3.3 69.3 9.6 102.4.9 5 3 9.7 6.1 13.7 3.5 4.5 7.8 8.5 12.5 11.8 3.3 2.3 7.9.8 9.2-3.1 12.7-39.3 19.5-81.3 19.5-124.8.1-41.8-6.2-82.1-17.9-120z"/><path class="st0" d="M256 233c-12.7 0-23 10.3-23 23s10.3 23 23 23 23-10.3 23-23-10.3-23-23-23zm0 38.3c-8.4 0-15.3-6.8-15.3-15.3 0-8.4 6.8-15.3 15.3-15.3s15.3 6.8 15.3 15.3c0 8.4-6.9 15.3-15.3 15.3z"/><path d="M256 233c-12.7 0-23 10.3-23 23s10.3 23 23 23 23-10.3 23-23-10.3-23-23-23zm0 38.3c-8.4 0-15.3-6.8-15.3-15.3 0-8.4 6.8-15.3 15.3-15.3s15.3 6.8 15.3 15.3c0 8.4-6.9 15.3-15.3 15.3z" opacity=".5" fill="#444"/></svg>