<svg version="1.1" xmlns="http://www.w3.org/2000/svg" x="0" y="0" viewBox="0 0 512 512" xml:space="preserve"><path d="M0 0h512v512H0V0z" fill="#2e86b7"/><path d="M280.3 58h-48.6c-2 0-3.6-1.6-3.6-3.6V32.8c0-4 3.2-7.2 7.2-7.2h41.4c4 0 7.2 3.2 7.2 7.2v21.6c0 2-1.6 3.6-3.6 3.6z" fill="#bbb"/><path opacity=".15" fill="#444" d="M228.1 47.2h55.8v4.5h-55.8z"/><path d="M325.3 211.5c0-2.9-1-5.6-2.7-7.6v-2.7c1.7-2.1 2.7-4.8 2.7-7.6 0-2-.4-3.8-1.3-5.5l-40.9-106c-1.3-3.3-1.9-6.8-1.9-10.4v-7.2c0-1 .8-1.8 1.8-1.8s1.8-.8 1.8-1.8V60c0-1-.8-1.8-1.8-1.8h-54c-1 0-1.8.8-1.8 1.8v.9c0 1 .8 1.8 1.8 1.8s1.8.8 1.8 1.8v7.2c0 3.5-.6 7-1.9 10.3l-40.8 106c-.8 1.6-1.4 3.5-1.4 5.5 0 2.9 1 5.6 2.7 7.6v2.7c-1.7 2.1-2.7 4.8-2.7 7.6s1 5.6 2.7 7.6v2.7c-1.7 2.1-2.7 4.8-2.7 7.6s1 5.6 2.7 7.6v195.3c0 7.8 1.5 15.5 4.7 22.7 5.6 12.9 15.8 31.4 28.6 31.4 19.8 0 23.4-16.2 33.3-16.2s13.5 16.2 33.3 16.2c12.9 0 23.1-18.4 28.6-31.4 3.1-7.2 4.7-14.9 4.7-22.7V237.1c1.7-2.1 2.7-4.8 2.7-7.6s-1-5.6-2.7-7.6v-2.7c1.7-2.2 2.7-4.9 2.7-7.7z" fill="#f4f4f4"/><path d="M308.2 201.1V196c1.3-1.7 1.6-4.1.6-6l-2.5-5H205.7l-2.5 5c-1 2-.7 4.3.6 6v12.9c-1.2 1.4-1.2 3.6 0 5v12.9c-1.2 1.4-1.2 3.6 0 5v200.4c0 5.9 1.2 11.6 3.5 16.9 2.5 5.9 4.9 10.4 7.1 13.7 4.7 7.2 14.7 8.5 21.1 2.7.1 0 .1-.1.2-.1 4.5-4.1 10.7-9.8 20.4-9.8s15.9 5.7 20.4 9.8c.1 0 .1.1.2.1 6.3 5.8 16.4 4.5 21.1-2.7 2.2-3.3 4.6-7.8 7.1-13.7 2.3-5.3 3.5-11.1 3.5-16.9V232c1.2-1.4 1.2-3.6 0-5v-13c1.2-1.4 1.2-3.6 0-5v-7.8h-.2z" fill="#79b1d1"/></svg>