<svg version="1.1" xmlns="http://www.w3.org/2000/svg" x="0" y="0" viewBox="0 0 512 512" xml:space="preserve"><style type="text/css">.st2{fill:#357693}</style><path fill="#ddd" d="M205 0h98v512h-98z"/><path d="M325 440.5H187c-6.6 0-12-5.4-12-12v-345c0-6.6 5.4-12 12-12h138c6.6 0 12 5.4 12 12v345c0 6.6-5.4 12-12 12z" fill="#4292be"/><path class="st2" d="M175 337l162 59v4.3l-162-59V337zm0-16.2l162 59v-4.3l-162-59v4.3zm0 40.9l162 59v-4.3l-162-59v4.3zm0-61.4l162 59V355l-162-59v4.3zm0-102.4l162 59v-4.3l-162-59v4.3zm0-40.9l162 59v-4.3l-162-59v4.3zm0-24.8v4.3l162 59v-4.3l-162-59zm0 45.3l162 59v-4.3l-162-59v4.3z"/><path class="st2" d="M175 400.2V396l50-18.2 5.8 2.1-55.8 20.3zm27.8-30.6l-5.8-2.1-22 8v4.3l27.8-10.2zm56 20.6l-5.8-2.1-78 28.4v4.3l83.8-30.6zM175 273.1v4.3l111.7-40.7-5.8-2.1L175 273.1zm6.1 165.9l105.7-38.5-5.8-2.1L177.6 436c1 1.2 2.2 2.2 3.5 3zM231 318.4l106-38.6v-4.3l-111.8 40.7 5.8 2.2zm-56-24.8v4.3L314.8 247l-5.8-2.1-134 48.7zm55.6-77.4l-5.8-2.1-49.8 18.1v4.3l55.6-20.3zm-33.9-12.4l-21.7 7.9v4.3l27.5-10-5.8-2.2zm6.2 104.4L337 259.4v-4.3L197.1 306l5.8 2.2zm55.8-81.8l-5.8-2.1-77.9 28.3v4.3l83.7-30.5zm56.2 184.3l-5.8-2.1-87.6 31.9h11.7l81.7-29.8zm16-337.7L175 129.8v4.3l159.4-58c-1-1.3-2.2-2.3-3.5-3.1zM253 162.8l5.8 2.1 78.2-28.4v-4.3l-84 30.6zm-28.1-10.2l5.8 2.1L337 116v-4.3l-112.1 40.9zm-28.1-10.3l5.8 2.1L337 95.6v-4.3l-140.2 51zM175 88.8v4.3l59.3-21.6h-11.7L175 88.8zm0 20.5v4.3l115.6-42.1h-11.7L175 109.3zm78.2 217.3l5.8 2.1 77.9-28.4V296l-83.7 30.6zm27.9-153.5l5.8 2.1 50-18.2v-4.3l-55.8 20.4zm.2 163.7l5.8 2.1 49.9-18.2v-4.3l-55.7 20.4zm28 10.3l5.8 2.1 21.8-7.9V337l-27.6 10.1zm-.1-163.8l5.8 2.1 21.9-8v-4.3l-27.7 10.2zM337 423.2v-4.3l-59.3 21.6h11.7l47.6-17.3z"/></svg>