<svg version="1.1" xmlns="http://www.w3.org/2000/svg" x="0" y="0" viewBox="0 0 512 512" xml:space="preserve"><path d="M512 500c0 6.6-5.4 12-12 12H12c-6.6 0-12-5.4-12-12V12C0 5.4 5.4 0 12 0h488c6.6 0 12 5.4 12 12v488z" fill="#ddd"/><path d="M432.5 417.5h-353c-3.6 0-6.5-2.9-6.5-6.5V101c0-3.6 2.9-6.5 6.5-6.5h353c3.6 0 6.5 2.9 6.5 6.5v310c0 3.6-2.9 6.5-6.5 6.5zm-353-322c-3 0-5.5 2.5-5.5 5.5v310c0 3 2.5 5.5 5.5 5.5h353c3 0 5.5-2.5 5.5-5.5V101c0-3-2.5-5.5-5.5-5.5h-353z" fill="#999"/><circle cx="256" cy="256" r="122.5" fill="#bbb"/><path d="M217.5 256c0 9.1-7.4 16.5-16.5 16.5s-16.5-7.4-16.5-16.5 7.4-16.5 16.5-16.5 16.5 7.4 16.5 16.5zm93.5-16.5c-9.1 0-16.5 7.4-16.5 16.5s7.4 16.5 16.5 16.5 16.5-7.4 16.5-16.5-7.4-16.5-16.5-16.5z" fill="#36434f"/></svg>