<svg xmlns="http://www.w3.org/2000/svg" viewBox="0 0 512 512" xml:space="preserve"><style>.st1{fill:#999}.st2{opacity:.15;fill:#444}.st3{fill:#36434f}.st4{fill:#122a3a}</style><path d="M504 274H8c-4.4 0-8-3.6-8-8v-20c0-4.4 3.6-8 8-8h496c4.4 0 8 3.6 8 8v20c0 4.4-3.6 8-8 8z" fill="#bbb"/><path class="st1" d="M190 231.5h8v49h-8zm-162-4h12v57H28z"/><path class="st2" d="M4 239.1v33.8c1.2.7 2.5 1.1 4 1.1v-36c-1.5 0-2.8.4-4 1.1zm16-1.1h4v36h-4zm-8 0h4v36h-4z"/><path class="st1" d="M322 280.5h-8v-49h8zm162 4h-12v-57h12z"/><path class="st2" d="M508 239.1v33.8c-1.2.7-2.5 1.1-4 1.1v-36c1.5 0 2.8.4 4 1.1zm-20-1.1h4v36h-4zm8 0h4v36h-4z"/><path class="st3" d="M182 354.5h-14c-4.4 0-8-3.6-8-8v-184c0-4.4 3.6-8 8-8h14c4.4 0 8 3.6 8 8v184c0 4.4-3.6 8-8 8zm-30 0h-14c-4.4 0-8-3.6-8-8v-184c0-4.4 3.6-8 8-8h14c4.4 0 8 3.6 8 8v184c0 4.4-3.6 8-8 8zm-30-20h-14c-4.4 0-8-3.6-8-8v-144c0-4.4 3.6-8 8-8h14c4.4 0 8 3.6 8 8v144c0 4.4-3.6 8-8 8zm-30-20H78c-4.4 0-8-3.6-8-8v-104c0-4.4 3.6-8 8-8h14c4.4 0 8 3.6 8 8v104c0 4.4-3.6 8-8 8zm-30-20H48c-4.4 0-8-3.6-8-8v-64c0-4.4 3.6-8 8-8h14c4.4 0 8 3.6 8 8v64c0 4.4-3.6 8-8 8z"/><path class="st4" d="M182 154.5v200c4.4 0 8-2.9 8-6.4V160.9c0-3.5-3.6-6.4-8-6.4zm-30 0v200c4.4 0 8-2.9 8-6.4V160.9c0-3.5-3.6-6.4-8-6.4zm-30 20v160c4.4 0 8-2.9 8-6.4V180.9c0-3.5-3.6-6.4-8-6.4zm-30 20v120c4.4 0 8-2.9 8-6.4V200.9c0-3.5-3.6-6.4-8-6.4zm-30 20v80c4.4 0 8-2.9 8-6.4v-67.2c0-3.5-3.6-6.4-8-6.4z"/><path class="st3" d="M330 354.5h14c4.4 0 8-3.6 8-8v-184c0-4.4-3.6-8-8-8h-14c-4.4 0-8 3.6-8 8v184c0 4.4 3.6 8 8 8zm30 0h14c4.4 0 8-3.6 8-8v-184c0-4.4-3.6-8-8-8h-14c-4.4 0-8 3.6-8 8v184c0 4.4 3.6 8 8 8zm30-20h14c4.4 0 8-3.6 8-8v-144c0-4.4-3.6-8-8-8h-14c-4.4 0-8 3.6-8 8v144c0 4.4 3.6 8 8 8zm30-20h14c4.4 0 8-3.6 8-8v-104c0-4.4-3.6-8-8-8h-14c-4.4 0-8 3.6-8 8v104c0 4.4 3.6 8 8 8zm30-20h14c4.4 0 8-3.6 8-8v-64c0-4.4-3.6-8-8-8h-14c-4.4 0-8 3.6-8 8v64c0 4.4 3.6 8 8 8z"/><path class="st4" d="M330 154.5v200c-4.4 0-8-2.9-8-6.4V160.9c0-3.5 3.6-6.4 8-6.4zm30 0v200c-4.4 0-8-2.9-8-6.4V160.9c0-3.5 3.6-6.4 8-6.4zm30 20v160c-4.4 0-8-2.9-8-6.4V180.9c0-3.5 3.6-6.4 8-6.4zm30 20v120c-4.4 0-8-2.9-8-6.4V200.9c0-3.5 3.6-6.4 8-6.4zm30 20v80c-4.4 0-8-2.9-8-6.4v-67.2c0-3.5 3.6-6.4 8-6.4z"/></svg>