<svg version="1.1" xmlns="http://www.w3.org/2000/svg" x="0" y="0" viewBox="0 0 512 512" xml:space="preserve"><style type="text/css">.st2{opacity:.15;fill:#444;enable-background:new}</style><path d="M450.6 422.3c-8.7 10.1-18.1 19.6-28.3 28.3l-78.2-78.2c10.7-8.1 20.2-17.6 28.3-28.3l78.2 78.2zm-311-78.2l-78.2 78.2c8.7 10.1 18.1 19.6 28.3 28.3l78.2-78.2c-10.7-8.1-20.2-17.6-28.3-28.3zm232.8-176.2l78.2-78.2c-8.7-10.1-18.1-19.6-28.3-28.3l-78.2 78.2c10.7 8.1 20.2 17.6 28.3 28.3zm-232.8 0c8.1-10.7 17.6-20.2 28.3-28.3L89.7 61.4c-10.1 8.7-19.6 18.1-28.3 28.3l78.2 78.2z" fill="#ddd"/><path d="M450.6 89.7l-78.2 78.2c18.6 24.5 29.6 55 29.6 88.1s-11 63.6-29.6 88.1l78.2 78.2C488.9 377.6 512 319.5 512 256s-23.1-121.6-61.4-166.3zM494.5 232c3 0 5.5 2.5 5.5 5.5s-2.5 5.5-5.5 5.5-5.5-2.5-5.5-5.5 2.5-5.5 5.5-5.5zm0 48c-3 0-5.5-2.5-5.5-5.5s2.5-5.5 5.5-5.5 5.5 2.5 5.5 5.5-2.5 5.5-5.5 5.5zM167.9 139.6c24.5-18.6 55-29.6 88.1-29.6s63.6 11 88.1 29.6l78.2-78.2C377.6 23.1 319.5 0 256 0S134.4 23.1 89.7 61.4l78.2 78.2zM274.5 12c3 0 5.5 2.5 5.5 5.5s-2.5 5.5-5.5 5.5-5.5-2.5-5.5-5.5 2.5-5.5 5.5-5.5zm-37 0c3 0 5.5 2.5 5.5 5.5s-2.5 5.5-5.5 5.5-5.5-2.5-5.5-5.5 2.5-5.5 5.5-5.5zm106.6 360.4C319.6 391 289.1 402 256 402s-63.6-11-88.1-29.6l-78.2 78.2C134.4 488.9 192.5 512 256 512s121.6-23.1 166.3-61.4l-78.2-78.2zM237.5 500c-3 0-5.5-2.5-5.5-5.5s2.5-5.5 5.5-5.5 5.5 2.5 5.5 5.5-2.5 5.5-5.5 5.5zm37 0c-3 0-5.5-2.5-5.5-5.5s2.5-5.5 5.5-5.5 5.5 2.5 5.5 5.5-2.5 5.5-5.5 5.5zM139.6 344.1C121 319.6 110 289.1 110 256s11-63.6 29.6-88.1L61.4 89.7C23.1 134.4 0 192.5 0 256s23.1 121.6 61.4 166.3l78.2-78.2zM17.5 232c3 0 5.5 2.5 5.5 5.5s-2.5 5.5-5.5 5.5-5.5-2.5-5.5-5.5 2.5-5.5 5.5-5.5zm0 48c-3 0-5.5-2.5-5.5-5.5s2.5-5.5 5.5-5.5 5.5 2.5 5.5 5.5-2.5 5.5-5.5 5.5z" fill="#cc584c"/><path class="st2" d="M25 218H2.8C1 230.4 0 243.1 0 256s1 25.6 2.8 38H25c1.7 0 3-1.3 3-3v-70c0-1.7-1.3-3-3-3zm-7.5 62c-3 0-5.5-2.5-5.5-5.5s2.5-5.5 5.5-5.5 5.5 2.5 5.5 5.5-2.5 5.5-5.5 5.5zm0-37c-3 0-5.5-2.5-5.5-5.5s2.5-5.5 5.5-5.5 5.5 2.5 5.5 5.5-2.5 5.5-5.5 5.5zM218 2.8V25c0 1.7 1.3 3 3 3h70c1.7 0 3-1.3 3-3V2.8C281.6 1 268.9 0 256 0s-25.6 1-38 2.8zM237.5 23c-3 0-5.5-2.5-5.5-5.5s2.5-5.5 5.5-5.5 5.5 2.5 5.5 5.5-2.5 5.5-5.5 5.5zm37-11c3 0 5.5 2.5 5.5 5.5s-2.5 5.5-5.5 5.5-5.5-2.5-5.5-5.5 2.5-5.5 5.5-5.5zM291 484h-70c-1.7 0-3 1.3-3 3v22.2c12.4 1.8 25.1 2.8 38 2.8s25.6-1 38-2.8V487c0-1.7-1.3-3-3-3zm-53.5 16c-3 0-5.5-2.5-5.5-5.5s2.5-5.5 5.5-5.5 5.5 2.5 5.5 5.5-2.5 5.5-5.5 5.5zm37 0c-3 0-5.5-2.5-5.5-5.5s2.5-5.5 5.5-5.5 5.5 2.5 5.5 5.5-2.5 5.5-5.5 5.5zm234.7-282H487c-1.7 0-3 1.3-3 3v70c0 1.7 1.3 3 3 3h22.2c1.8-12.4 2.8-25.1 2.8-38s-1-25.6-2.8-38zm-14.7 62c-3 0-5.5-2.5-5.5-5.5s2.5-5.5 5.5-5.5 5.5 2.5 5.5 5.5-2.5 5.5-5.5 5.5zm0-37c-3 0-5.5-2.5-5.5-5.5s2.5-5.5 5.5-5.5 5.5 2.5 5.5 5.5-2.5 5.5-5.5 5.5zM256 76c-99.4 0-180 80.6-180 180s80.6 180 180 180 180-80.6 180-180S355.4 76 256 76zm0 326c-80.6 0-146-65.4-146-146s65.4-146 146-146 146 65.4 146 146-65.4 146-146 146z"/><path class="st2" d="M256 0C114.6 0 0 114.6 0 256s114.6 256 256 256 256-114.6 256-256S397.4 0 256 0zm238.5 232c3 0 5.5 2.5 5.5 5.5s-2.5 5.5-5.5 5.5-5.5-2.5-5.5-5.5 2.5-5.5 5.5-5.5zm-220-220c3 0 5.5 2.5 5.5 5.5s-2.5 5.5-5.5 5.5-5.5-2.5-5.5-5.5 2.5-5.5 5.5-5.5zm-37 0c3 0 5.5 2.5 5.5 5.5s-2.5 5.5-5.5 5.5-5.5-2.5-5.5-5.5 2.5-5.5 5.5-5.5zm-220 268c-3 0-5.5-2.5-5.5-5.5s2.5-5.5 5.5-5.5 5.5 2.5 5.5 5.5-2.5 5.5-5.5 5.5zm0-37c-3 0-5.5-2.5-5.5-5.5s2.5-5.5 5.5-5.5 5.5 2.5 5.5 5.5-2.5 5.5-5.5 5.5zm220 257c-3 0-5.5-2.5-5.5-5.5s2.5-5.5 5.5-5.5 5.5 2.5 5.5 5.5-2.5 5.5-5.5 5.5zm37 0c-3 0-5.5-2.5-5.5-5.5s2.5-5.5 5.5-5.5 5.5 2.5 5.5 5.5-2.5 5.5-5.5 5.5zM256 479c-123.2 0-223-99.8-223-223S132.8 33 256 33s223 99.8 223 223-99.8 223-223 223zm238.5-199c-3 0-5.5-2.5-5.5-5.5s2.5-5.5 5.5-5.5 5.5 2.5 5.5 5.5-2.5 5.5-5.5 5.5z"/><path class="st2" d="M252.5 402h-1.1c-.8 0-1.6-.1-2.4-.1-.4 0-.8 0-1.3-.1-.7 0-1.5-.1-2.2-.1-.4 0-.8-.1-1.2-.1-.8-.1-1.6-.1-2.4-.2-.3 0-.7-.1-1-.1-1.1-.1-2.2-.2-3.3-.4-.3 0-.6-.1-.9-.1l-2.4-.3c-.4-.1-.9-.1-1.3-.2-.7-.1-1.3-.2-2-.3-.5-.1-.9-.2-1.4-.3-.6-.1-1.3-.2-1.9-.4-.5-.1-.9-.2-1.4-.3-.7-.1-1.4-.3-2.1-.5-.5-.1-1.1-.2-1.6-.4-.9-.2-1.7-.4-2.6-.6-.5-.1-1-.3-1.5-.4-.6-.1-1.1-.3-1.7-.4-.5-.2-1.1-.3-1.6-.5-.5-.1-1-.3-1.5-.4-.6-.2-1.1-.3-1.7-.5-.5-.1-.9-.3-1.4-.5-.6-.2-1.1-.4-1.7-.6-.3-.1-.7-.2-1-.4-1.2-.4-2.5-.9-3.7-1.4-.3-.1-.7-.3-1-.4-.6-.2-1.3-.5-1.9-.8-.4-.1-.7-.3-1.1-.4-.6-.3-1.3-.5-1.9-.8-.3-.1-.6-.3-1-.4-.7-.3-1.3-.6-2-.9l-.6-.3c-2.4-1.1-4.7-2.2-7-3.5-.2-.1-.3-.2-.5-.2l-2.1-1.2-.6-.3-2.1-1.2c-.1-.1-.3-.2-.4-.3-3.2-1.9-6.2-3.8-9.3-5.9-.1-.1-.2-.1-.3-.2l-2.1-1.5-.3-.3c-.7-.5-1.4-1-2.1-1.6-1.3-1-2.6-2-3.9-3.1-2.6-2.1-5-4.2-7.5-6.5l-.2-.2c-2.4-2.2-4.7-4.6-6.9-6.9l-.2-.2c-2.2-2.4-4.4-4.9-6.5-7.5-1-1.3-2.1-2.6-3.1-3.9-.5-.7-1.1-1.4-1.6-2.1l-.3-.3-1.5-2.1c-.1-.1-.1-.2-.2-.3-2.1-3-4.1-6.1-5.9-9.3-.1-.1-.2-.3-.3-.4l-1.2-2.1-.3-.6-1.2-2.1c-.1-.2-.2-.3-.2-.5-1.2-2.3-2.4-4.6-3.5-7l-.3-.6c-.3-.7-.6-1.3-.9-2-.1-.3-.3-.6-.4-1-.3-.6-.5-1.3-.8-1.9-.1-.4-.3-.7-.4-1.1-.3-.6-.5-1.3-.8-1.9-.1-.3-.3-.7-.4-1-.5-1.2-.9-2.5-1.4-3.7-.1-.3-.2-.7-.4-1-.2-.6-.4-1.1-.6-1.7-.2-.5-.3-.9-.5-1.4-.2-.6-.3-1.1-.5-1.7-.2-.5-.3-1-.4-1.5-.2-.5-.3-1.1-.5-1.6s-.3-1.1-.4-1.7c-.1-.5-.3-1-.4-1.5-.2-.9-.4-1.7-.6-2.6-.1-.5-.2-1.1-.4-1.6-.2-.7-.3-1.4-.5-2.1-.1-.5-.2-.9-.3-1.4-.1-.6-.3-1.3-.4-1.9-.1-.5-.2-.9-.3-1.4-.1-.7-.2-1.3-.3-2-.1-.4-.1-.9-.2-1.3l-.3-2.4c0-.3-.1-.6-.1-.9-.1-1.1-.3-2.2-.4-3.3 0-.3-.1-.7-.1-1-.1-.8-.2-1.6-.2-2.4 0-.4-.1-.8-.1-1.2-.1-.7-.1-1.5-.1-2.2 0-.4 0-.8-.1-1.3 0-.8-.1-1.6-.1-2.4v-9.2c0-.8.1-1.6.1-2.4 0-.4 0-.8.1-1.3 0-.7.1-1.5.1-2.2 0-.4.1-.8.1-1.2.1-.8.1-1.6.2-2.4 0-.3.1-.7.1-1 .1-1.1.2-2.2.4-3.3 0-.3.1-.6.1-.9l.3-2.4c.1-.4.1-.9.2-1.3.1-.7.2-1.3.3-2 .1-.5.2-.9.3-1.4.1-.6.2-1.3.4-1.9.1-.5.2-.9.3-1.4.1-.7.3-1.4.5-2.1.1-.5.2-1 .4-1.6.2-.9.4-1.7.6-2.6.1-.5.3-1 .4-1.5.1-.6.3-1.1.4-1.6.2-.5.3-1.1.5-1.6.1-.5.3-1 .4-1.5.2-.6.3-1.1.5-1.7.1-.5.3-.9.5-1.4.2-.6.4-1.2.6-1.7.1-.3.2-.6.3-1 .4-1.3.9-2.5 1.4-3.8.1-.3.2-.7.4-1 .2-.6.5-1.3.8-1.9.1-.4.3-.7.4-1 .3-.6.5-1.3.8-1.9.1-.3.3-.6.4-.9.3-.7.6-1.3.9-2l.3-.6c1.1-2.4 2.3-4.7 3.5-7 .1-.2.2-.3.2-.5l1.2-2.1.3-.6 1.2-2.1c.1-.1.2-.3.2-.4 1.9-3.2 3.8-6.3 5.9-9.3.1-.1.1-.2.2-.3l1.5-2.1c.1-.1.2-.2.2-.3.5-.7 1-1.4 1.6-2.1 1-1.3 2-2.6 3.1-3.9 2.1-2.6 4.3-5 6.5-7.5 0-.1.1-.1.1-.2 2.2-2.4 4.6-4.7 6.9-6.9l.2-.2c2.4-2.2 4.9-4.4 7.5-6.5 1.3-1 2.6-2.1 3.9-3.1.7-.5 1.4-1.1 2.1-1.6l.3-.3 2.1-1.5c.1-.1.2-.1.3-.2 3-2.1 6.1-4.1 9.2-5.9.1-.1.3-.2.4-.3l2.1-1.2.6-.3 2.1-1.2c.2-.1.3-.2.5-.2 2.3-1.2 4.6-2.4 7-3.5l.6-.3c.7-.3 1.3-.6 2-.9.3-.1.6-.3 1-.4.6-.3 1.3-.5 1.9-.8.4-.1.7-.3 1.1-.4.6-.3 1.3-.5 1.9-.8.3-.1.7-.3 1-.4 1.2-.5 2.5-.9 3.7-1.4.3-.1.7-.2 1-.4.6-.2 1.1-.4 1.7-.6.5-.2.9-.3 1.4-.5.6-.2 1.1-.3 1.7-.5.5-.2 1-.3 1.5-.4.5-.2 1.1-.3 1.6-.5s1.1-.3 1.6-.4 1-.3 1.5-.4c.8-.2 1.7-.4 2.5-.6.5-.1 1.1-.2 1.6-.4.7-.2 1.4-.3 2.1-.5.5-.1.9-.2 1.4-.3.6-.1 1.3-.3 1.9-.4.5-.1.9-.2 1.4-.3.7-.1 1.3-.2 2-.3.4-.1.9-.1 1.3-.2l2.4-.3c.3 0 .6-.1.9-.1 1.1-.1 2.2-.3 3.3-.4.3 0 .7-.1 1-.1.8-.1 1.6-.2 2.4-.2.4 0 .8-.1 1.3-.1.7-.1 1.5-.1 2.2-.1.4 0 .8 0 1.3-.1.8 0 1.6-.1 2.4-.1h4.6V0c-1.8 0-3.6 0-5.4.1h-2.3c-1 0-2 .1-3 .1-.6 0-1.2 0-1.8.1-.4 0-.9 0-1.3.1-.7 0-1.5.1-2.2.1-.9.1-1.8.1-2.6.2h-.6c-.7.1-1.4.1-2.2.2l-3.6.3-2.7.3c-1.1.1-2.3.3-3.4.4l-2.7.3c-1.1.1-2.3.3-3.4.5-.9.1-1.8.3-2.7.4-1.1.2-2.3.4-3.4.6-.9.2-1.8.3-2.7.5-1.1.2-2.3.4-3.4.7-.9.2-1.7.3-2.6.5l-4.2.9c-1.4.3-2.8.6-4.2 1-1.1.3-2.1.5-3.2.8-1 .3-2 .5-3 .8-.9.2-1.8.5-2.7.7-1 .3-2.1.6-3.1.9-.9.3-1.7.5-2.6.8-1.1.3-2.1.7-3.2 1-.8.3-1.6.5-2.4.8-1.1.4-2.2.7-3.3 1.1-.8.3-1.5.5-2.3.8l-3.3 1.2c-.7.3-1.4.5-2.1.8-1.2.4-2.3.9-3.5 1.3-.6.2-1.2.5-1.8.7-1.2.5-2.5 1-3.7 1.5-.3.1-.6.3-.9.4-6.4 2.7-12.6 5.7-18.7 9-.3.1-.5.3-.8.4-1.3.7-2.7 1.5-4 2.2-.4.2-.7.4-1.1.6-1.3.7-2.6 1.5-3.8 2.2-.4.2-.7.4-1.1.6-1.3.8-2.6 1.5-3.8 2.3-.3.2-.7.4-1 .6-1.3.8-2.6 1.6-3.9 2.5-.2.2-.5.3-.7.5-1.4.9-2.7 1.8-4.1 2.7-.1 0-.1.1-.2.1-8.8 6-17.2 12.6-25.2 19.7l-.6.6-3.3 3-.5.5c-4.7 4.3-9.2 8.8-13.5 13.5l-.5.5-3 3.3-.6.6c-7.1 8-13.6 16.4-19.7 25.2 0 .1-.1.1-.1.2-.9 1.3-1.8 2.7-2.7 4.1-.2.2-.3.5-.5.7-.8 1.3-1.7 2.6-2.5 3.9-.2.3-.4.7-.6 1-.8 1.3-1.6 2.5-2.3 3.8-.2.4-.4.7-.6 1.1-.8 1.3-1.5 2.6-2.2 3.9-.2.3-.4.7-.6 1.1-.7 1.3-1.5 2.7-2.2 4-.1.3-.3.5-.4.8-3.2 6.1-6.2 12.3-9 18.7-.1.3-.3.6-.4.9-.5 1.2-1 2.5-1.6 3.7-.2.6-.5 1.2-.7 1.7-.5 1.2-.9 2.3-1.4 3.5-.3.7-.5 1.4-.8 2.1L14 170c-.3.8-.5 1.5-.8 2.3-.4 1.1-.7 2.2-1.1 3.3-.3.8-.5 1.6-.8 2.4-.3 1.1-.7 2.1-1 3.2-.3.9-.5 1.7-.8 2.6-.3 1-.6 2.1-.9 3.1-.3.9-.5 1.8-.7 2.7-.3 1-.5 2-.8 3s-.5 2.1-.8 3.2c-.3 1.4-.7 2.8-1 4.2l-.9 4.2c-.2.8-.3 1.7-.5 2.6-.2 1.1-.4 2.3-.7 3.4-.2.9-.3 1.8-.5 2.7-.2 1.1-.4 2.2-.6 3.4-.1.9-.3 1.8-.4 2.7-.2 1.1-.3 2.3-.5 3.4l-.3 2.7c-.1 1.1-.3 2.3-.4 3.4l-.3 2.7c-.1 1.2-.2 2.4-.3 3.5-.1.7-.1 1.4-.2 2.2v.6c-.1.9-.1 1.7-.2 2.6 0 .7-.1 1.5-.1 2.2 0 .4 0 .9-.1 1.3 0 .6-.1 1.2-.1 1.8 0 1-.1 2-.1 3v2.3c0 1.8-.1 3.6-.1 5.4 0 1.8 0 3.6.1 5.4v2.3c0 1 .1 2 .1 3 0 .6 0 1.2.1 1.8 0 .4 0 .9.1 1.3 0 .7.1 1.5.1 2.2.1.9.1 1.8.2 2.6v.6c.1.7.1 1.4.2 2.2.1 1.2.2 2.4.3 3.5l.3 2.7c.1 1.1.3 2.3.4 3.4l.3 2.7c.1 1.1.3 2.3.5 3.4.1.9.3 1.8.4 2.7.2 1.1.4 2.3.6 3.4.2.9.3 1.8.5 2.7.2 1.1.4 2.3.7 3.4.2.9.3 1.7.5 2.6l.9 4.2c.3 1.4.6 2.8 1 4.2.3 1.1.5 2.1.8 3.2.3 1 .5 2 .8 3 .2.9.5 1.8.7 2.7.3 1 .6 2.1.9 3.1.3.9.5 1.7.8 2.6.3 1.1.7 2.1 1 3.2.3.8.5 1.6.8 2.4.4 1.1.7 2.2 1.1 3.3.3.8.5 1.5.8 2.3l1.2 3.3c.3.7.5 1.4.8 2.1.4 1.2.9 2.3 1.3 3.5.2.6.5 1.2.7 1.8.5 1.2 1 2.5 1.5 3.7.1.3.3.6.4.9 2.7 6.4 5.7 12.6 9 18.7.1.3.3.5.4.8.7 1.3 1.5 2.7 2.2 4 .2.4.4.7.6 1.1.7 1.3 1.5 2.6 2.2 3.8.2.4.4.7.6 1.1.8 1.3 1.5 2.6 2.3 3.8.2.3.4.7.6 1 .8 1.3 1.6 2.6 2.5 3.9.2.2.3.5.5.7.9 1.4 1.8 2.7 2.7 4.1 0 .1.1.1.1.2 5.2 7.6 10.8 14.8 16.7 21.8 1 1.1 2 2.3 3 3.4l.6.6 3 3.3.5.5c4.3 4.7 8.8 9.2 13.5 13.5l.5.5 3.3 3 .6.6c1.1 1 2.3 2 3.4 3 6.9 5.9 14.2 11.5 21.8 16.7.1 0 .1.1.2.1 1.3.9 2.7 1.8 4.1 2.7.2.2.5.3.7.5 1.3.8 2.6 1.7 3.9 2.5.3.2.7.4 1 .6 1.3.8 2.5 1.6 3.8 2.3.4.2.7.4 1.1.6 1.3.8 2.6 1.5 3.8 2.2.4.2.7.4 1.1.6 1.3.7 2.6 1.5 4 2.2.3.1.5.3.8.4 6.1 3.2 12.3 6.2 18.7 9 .3.1.6.3.9.4 1.2.5 2.5 1 3.7 1.5.6.2 1.2.5 1.8.7 1.2.5 2.3.9 3.5 1.3.7.3 1.4.5 2.1.8l3.3 1.2c.8.3 1.5.5 2.3.8 1.1.4 2.2.7 3.3 1.1.8.3 1.6.5 2.4.8 1.1.3 2.1.7 3.2 1 .9.3 1.7.5 2.6.8 1 .3 2.1.6 3.1.9.9.3 1.8.5 2.7.7 1 .3 2 .5 3 .8s2.1.5 3.2.8c1.4.3 2.8.7 4.2 1l4.2.9c.9.2 1.7.3 2.6.5 1.1.2 2.3.4 3.4.7.9.2 1.8.3 2.7.5 1.1.2 2.2.4 3.4.6.9.1 1.8.3 2.7.4 1.1.2 2.3.3 3.4.5l2.7.3c1.1.1 2.3.3 3.4.4l2.7.3c1.2.1 2.4.2 3.5.3.7.1 1.4.1 2.2.2h.6c.9.1 1.7.1 2.6.2.7 0 1.5.1 2.2.1.4 0 .9 0 1.3.1.6 0 1.2.1 1.8.1 1 0 2 .1 3 .1h2.3c1.8 0 3.6.1 5.4.1V402h-2.6zm-15-390c3 0 5.5 2.5 5.5 5.5s-2.5 5.5-5.5 5.5-5.5-2.5-5.5-5.5 2.5-5.5 5.5-5.5zm-220 268c-3 0-5.5-2.5-5.5-5.5s2.5-5.5 5.5-5.5 5.5 2.5 5.5 5.5-2.5 5.5-5.5 5.5zm0-37c-3 0-5.5-2.5-5.5-5.5s2.5-5.5 5.5-5.5 5.5 2.5 5.5 5.5-2.5 5.5-5.5 5.5zm220 257c-3 0-5.5-2.5-5.5-5.5s2.5-5.5 5.5-5.5 5.5 2.5 5.5 5.5-2.5 5.5-5.5 5.5z"/></svg>