<svg xmlns="http://www.w3.org/2000/svg" viewBox="0 0 512 512" xml:space="preserve"><path fill="#a18267" d="M195.5 0h121v512h-121z"/><circle cx="256" cy="368" r="25" fill="#36434f"/><path d="M256 395c-14.9 0-27-12.1-27-27s12.1-27 27-27 27 12.1 27 27-12.1 27-27 27zm0-50c-12.7 0-23 10.3-23 23s10.3 23 23 23 23-10.3 23-23-10.3-23-23-23zm-36-54h72c4.4 0 8-3.6 8-8V72h-88v211c0 4.4 3.6 8 8 8z" fill="#ddd"/><path d="M300 74h-88V53c0-4.4 3.6-8 8-8h72c4.4 0 8 3.6 8 8v21zm-88 152.5h88v16h-88zm0-123.5h88v4h-88zm0 30h88v4h-88zm0 30h88v4h-88zm0 30h88v4h-88z" fill="#bbb"/><path opacity=".15" fill="#444" d="M195.5 0H256v512h-60.5z"/></svg>