<svg version="1.1" xmlns="http://www.w3.org/2000/svg" x="0" y="0" viewBox="0 0 512 512" xml:space="preserve"><style type="text/css">.st1{fill:#ddd}.st2{fill:#36434f}</style><path d="M6 418c-1.1 0-2-.9-2-2V96c0-1.1.9-2 2-2h500c1.1 0 2 .9 2 2v320c0 1.1-.9 2-2 2H6z" fill="#195647"/><path class="st1" d="M504 98v316H8V98h496m2-8H6c-3.3 0-6 2.7-6 6v320c0 3.3 2.7 6 6 6h500c3.3 0 6-2.7 6-6V96c0-3.3-2.7-6-6-6z"/><path class="st1" d="M37 90H6c-3.3 0-6 2.7-6 6v31l37-37z"/><path class="st2" d="M20.9 101c-.8.8-2 .8-2.8 0-.8-.8-.8-2 0-2.8.8-.8 2-.8 2.8 0 .7.7.7 2 0 2.8zm-9.9 7c-.8-.8-2-.8-2.8 0-.8.8-.8 2 0 2.8.8.8 2 .8 2.8 0 .7-.7.7-2 0-2.8z"/><path class="st1" d="M37 422H6c-3.3 0-6-2.7-6-6v-31l37 37z"/><path class="st2" d="M20.9 413.9c-.8.8-2 .8-2.8 0-.8-.8-.8-2 0-2.8.8-.8 2-.8 2.8 0 .7.7.7 2 0 2.8zM11 401.1c-.8-.8-2-.8-2.8 0-.8.8-.8 2 0 2.8.8.8 2 .8 2.8 0 .7-.7.7-2 0-2.8z"/><path class="st1" d="M475 90h31c3.3 0 6 2.7 6 6v31l-37-37z"/><path class="st2" d="M491.1 98.1c.8-.8 2-.8 2.8 0 .8.8.8 2 0 2.8-.8.8-2 .8-2.8 0-.7-.7-.7-2 0-2.8zm9.9 12.8c.8.8 2 .8 2.8 0 .8-.8.8-2 0-2.8-.8-.8-2-.8-2.8 0-.7.7-.7 2 0 2.8z"/><path class="st1" d="M475 422h31c3.3 0 6-2.7 6-6v-31l-37 37z"/><path class="st2" d="M491.1 411c.8-.8 2-.8 2.8 0 .8.8.8 2 0 2.8-.8.8-2 .8-2.8 0-.7-.7-.7-2 0-2.8zm9.9-7c.8.8 2 .8 2.8 0 .8-.8.8-2 0-2.8-.8-.8-2-.8-2.8 0-.7.7-.7 2 0 2.8z"/></svg>