<svg xmlns="http://www.w3.org/2000/svg" viewBox="0 0 512 512" xml:space="preserve"><path d="M288 4c0-2.2-1.8-4-4-4h-56c-2.2 0-4 1.8-4 4v6l15 7.5v456.1c0 5.5 1.4 11 4.2 15.8L256 512l12.8-22.7c2.7-4.8 4.2-10.2 4.2-15.8v-456l15-7.5V4z" fill="#bbb"/><path d="M273 60h-34c-1.1 0-2-.9-2-2s.9-2 2-2h34c1.1 0 2 .9 2 2s-.9 2-2 2zm0 14h-34c-1.1 0-2-.9-2-2s.9-2 2-2h34c1.1 0 2 .9 2 2s-.9 2-2 2zm0 14h-34c-1.1 0-2-.9-2-2s.9-2 2-2h34c1.1 0 2 .9 2 2s-.9 2-2 2zm0 14h-34c-1.1 0-2-.9-2-2s.9-2 2-2h34c1.1 0 2 .9 2 2s-.9 2-2 2zm0 14h-34c-1.1 0-2-.9-2-2s.9-2 2-2h34c1.1 0 2 .9 2 2s-.9 2-2 2zm0 14h-34c-1.1 0-2-.9-2-2s.9-2 2-2h34c1.1 0 2 .9 2 2s-.9 2-2 2zm0 14h-34c-1.1 0-2-.9-2-2s.9-2 2-2h34c1.1 0 2 .9 2 2s-.9 2-2 2zm0 14h-34c-1.1 0-2-.9-2-2s.9-2 2-2h34c1.1 0 2 .9 2 2s-.9 2-2 2zM230 13l9 4.5V22h34v-4.5l9-4.5z" fill="#999"/></svg>