<svg version="1.1" xmlns="http://www.w3.org/2000/svg" x="0" y="0" viewBox="0 0 512 512" xml:space="preserve"><style type="text/css">.st0{fill:#36434f}.st1{fill:#eec646}.st3{fill:#ffa000}</style><path class="st0" d="M413 384.5h-10c-.6 0-1-.4-1-1v-3h12v3c0 .6-.4 1-1 1zm35 0h-10c-.6 0-1-.4-1-1v-3h12v3c0 .6-.4 1-1 1zm35 0h-10c-.6 0-1-.4-1-1v-3h12v3c0 .6-.4 1-1 1zm-194 43h-19c-3.3 0-6-2.7-6-6v-14h31v14c0 3.3-2.7 6-6 6z"/><path class="st1" d="M324 373.5h178v8H324z"/><path class="st0" d="M505 439.5h-6c-1.1 0-2-.9-2-2v-64h10v64c0 1.1-.9 2-2 2z"/><path d="M320.5 409.5h-281c-6.6 0-12-5.4-12-12v-90h305v90c0 6.6-5.4 12-12 12z" fill="#e3920a"/><circle class="st3" cx="180" cy="247.5" r="167.5"/><circle class="st3" cx="12.5" cy="247.5" r="7.5"/><circle class="st3" cx="115.9" cy="92.8" r="7.5"/><circle class="st3" cx="180" cy="80" r="7.5"/><circle class="st3" cx="61.6" cy="129.1" r="7.5"/><circle class="st3" cx="25.3" cy="183.4" r="7.5"/><path class="st1" d="M180 376.5c-71.1 0-129-57.9-129-129s57.9-129 129-129 129 57.9 129 129-57.9 129-129 129zm0-254c-68.9 0-125 56.1-125 125s56.1 125 125 125 125-56.1 125-125-56.1-125-125-125z"/></svg>