<svg version="1.1" xmlns="http://www.w3.org/2000/svg" x="0" y="0" viewBox="0 0 512 512" xml:space="preserve"><path d="M264.5 0h-17c-2.2 0-4 1.8-4 4v500c0 4.4 3.6 8 8 8h9c4.4 0 8-3.6 8-8V4c0-2.2-1.8-4-4-4zM256 497.2c-3.1 0-5.6-2.5-5.6-5.6 0-3.1 2.5-5.6 5.6-5.6s5.6 2.5 5.6 5.6c0 3.1-2.5 5.6-5.6 5.6z" fill="#a18267"/><path d="M334.1 11.2C305 8 280.4 7.3 270.3 6.6c-1-.1-1.8-.9-1.8-1.9h-25c0 1-.8 1.8-1.8 1.8H233S221.5.1 200 .1s-96 8-96 8c0 5 4 43 4 43s109-19.3 113.4-20.3S230 27 230 27h11.8c1 0 1.7.8 1.7 1.7h25s3.6-1.7 6-1.7 37.8-1.5 58-1.5c16.1 0 54.2-.9 69.3-1.2 1.1 0 1.4-1.6.3-2-10.7-3.1-38.8-7.9-68-11.1z" fill="#36434f"/><path d="M109 7.5c-3.2.3-5 .5-5 .5 0 5 4 43 4 43s1.8-.3 4.9-.9L109 7.5z" fill="#122a3a"/></svg>