<svg version="1.1" xmlns="http://www.w3.org/2000/svg" x="0" y="0" viewBox="0 0 512 512" xml:space="preserve"><style type="text/css">.st0{fill:#f4f4f4}.st1{opacity:.15;fill:#444}</style><path class="st0" d="M480 436H32c-17.7 0-32-14.3-32-32V108c0-17.7 14.3-32 32-32h448c17.7 0 32 14.3 32 32v296c0 17.7-14.3 32-32 32z"/><path class="st1" d="M1.8 97.3c.4.6.8 1.1 1.3 1.7l220.2 251.9c17.7 20.2 47.6 20.2 65.3 0L508.9 99c.5-.5.9-1.1 1.3-1.7C505.8 84.9 493.9 76 480 76H32C18.1 76 6.2 84.9 1.8 97.3z"/><path class="st0" d="M4.2 92.1c1.5 4.9 4.2 9.4 7.9 13.1l221.2 221.2c12.5 12.5 32.8 12.5 45.3 0l221.2-221.2c3.7-3.7 6.4-8.1 7.9-13.1C502.2 82.5 491.9 76 480 76H32C20.1 76 9.8 82.5 4.2 92.1z"/><path class="st1" d="M160.2 253.2l5.7 5.7L15 409.7c-3.5 3.5-6 7.9-7.3 12.7l-.5 1.8c-2.3-2.8-4.1-5.9-5.3-9.4 1.8-4 4.3-7.7 7.4-10.8l150.9-150.8zM502.7 404L351.8 253.2l-5.7 5.7L497 409.7c3.5 3.5 6 7.9 7.3 12.7l.5 1.8c2.3-2.8 4.1-5.9 5.3-9.4-1.8-4-4.3-7.6-7.4-10.8z"/><path class="st1" d="M32 436h224V76H32C14.3 76 0 90.3 0 108v296c0 17.7 14.3 32 32 32z"/></svg>