<svg version="1.1" xmlns="http://www.w3.org/2000/svg" x="0" y="0" viewBox="0 0 512 512" xml:space="preserve"><style type="text/css">.st0{fill:#038387}</style><path class="st0" d="M256 240.8c5.2 0 9.8 2.6 12.6 6.6 8.5-38.1 12.9-77.7 12.9-118.4 0-35-3.3-69.3-9.6-102.4-.9-5-3-9.7-6.1-13.7-3.5-4.5-7.8-8.5-12.5-11.8-3.3-2.3-7.9-.8-9.2 3.1-12.7 39.3-19.5 81.3-19.5 124.8 0 41.8 6.3 82 18 119.9 2.5-4.8 7.5-8.1 13.4-8.1zm13.5 22.3c-2.6 4.8-7.6 8.2-13.5 8.2-5.2 0-9.8-2.6-12.6-6.6-8.5 38.1-12.9 77.7-12.9 118.4 0 35 3.3 69.3 9.6 102.4.9 5 3 9.7 6.1 13.7 3.5 4.5 7.8 8.5 12.5 11.8 3.3 2.3 7.9.8 9.2-3.1 12.7-39.3 19.5-81.3 19.5-124.8.1-41.8-6.2-82.1-17.9-120z"/><path class="st0" d="M256 233c-12.7 0-23 10.3-23 23s10.3 23 23 23 23-10.3 23-23-10.3-23-23-23zm0 38.3c-8.4 0-15.3-6.8-15.3-15.3 0-8.4 6.8-15.3 15.3-15.3s15.3 6.8 15.3 15.3c0 8.4-6.9 15.3-15.3 15.3z"/><path d="M256 233c-12.7 0-23 10.3-23 23s10.3 23 23 23 23-10.3 23-23-10.3-23-23-23zm0 38.3c-8.4 0-15.3-6.8-15.3-15.3 0-8.4 6.8-15.3 15.3-15.3s15.3 6.8 15.3 15.3c0 8.4-6.9 15.3-15.3 15.3z" opacity=".5" fill="#444"/><path d="M256 271.3c-.5 0-.9 0-1.4-.1h-.3c-.4 0-.9-.1-1.3-.2-.1 0-.2 0-.2-.1-.4-.1-.8-.2-1.1-.3-.1 0-.1 0-.2-.1-.4-.1-.8-.3-1.2-.4-.1 0-.2-.1-.3-.1-.4-.2-.7-.3-1.1-.5-.1 0-.1-.1-.2-.1-.3-.2-.6-.3-.9-.5-.1-.1-.2-.1-.3-.2-.3-.2-.6-.4-.9-.7l-.3-.3-.6-.6-.4-.4-.7-.7c-.1-.1-.2-.3-.3-.4-.2-.3-.4-.6-.7-.9-1.7-2.5-2.7-5.4-2.7-8.6 0-2.6.6-5 1.8-7.1l.3-.6c.1-.2.2-.3.3-.5.1-.2.2-.4.4-.6.1-.2.3-.4.4-.5.2-.3.4-.5.6-.8.1-.2.3-.3.4-.5l.4-.4c.2-.2.4-.3.6-.5.2-.1.3-.3.5-.4.3-.2.5-.4.8-.6.1-.1.3-.2.4-.3.2-.2.5-.3.7-.4.1-.1.2-.1.4-.2.4-.2.7-.4 1.1-.5.1-.1.2-.1.4-.1l.9-.3c.1 0 .2-.1.4-.1.4-.1.8-.2 1.3-.3h.2c.4-.1.7-.1 1.1-.2h.4c.5 0 .9-.1 1.4-.1V3.1c-.9-.7-1.8-1.4-2.8-2.1-3.3-2.3-7.9-.8-9.2 3.1-12.7 39.3-19.5 81.3-19.5 124.8 0 38.4 5.3 75.5 15.3 110.7-4.2 4.2-6.8 9.9-6.8 16.3 0 7.2 3.3 13.6 8.5 17.8-7.2 35.3-11 71.8-11 109.2 0 35 3.3 69.3 9.6 102.4.9 5 3 9.7 6.1 13.7 2.8 3.6 6.1 6.9 9.7 9.7V271.3z" opacity=".15" fill="#444"/></svg>