<svg version="1.1" xmlns="http://www.w3.org/2000/svg" x="0" y="0" viewBox="0 0 512 512" xml:space="preserve"><style type="text/css">.st1{opacity:.3;fill:#444}</style><path d="M256 0C114.6 0 0 114.6 0 256s114.6 256 256 256 256-114.6 256-256S397.4 0 256 0zm-50 334.5c-15.7 0-28.5-12.8-28.5-28.5s12.8-28.5 28.5-28.5 28.5 12.8 28.5 28.5-12.8 28.5-28.5 28.5zm0-100c-15.7 0-28.5-12.8-28.5-28.5s12.8-28.5 28.5-28.5 28.5 12.8 28.5 28.5-12.8 28.5-28.5 28.5zm100 100c-15.7 0-28.5-12.8-28.5-28.5s12.8-28.5 28.5-28.5 28.5 12.8 28.5 28.5-12.8 28.5-28.5 28.5zm0-100c-15.7 0-28.5-12.8-28.5-28.5s12.8-28.5 28.5-28.5 28.5 12.8 28.5 28.5-12.8 28.5-28.5 28.5z" fill="#eec646"/><path class="st1" d="M256 10c33.2 0 65.4 6.5 95.8 19.3C381.1 41.7 407.4 59.4 430 82s40.3 48.9 52.7 78.2c12.8 30.3 19.3 62.5 19.3 95.8s-6.5 65.4-19.3 95.8c-12.4 29.3-30.1 55.6-52.7 78.2s-48.9 40.3-78.2 52.7C321.4 495.5 289.2 502 256 502s-65.4-6.5-95.8-19.3c-29.3-12.4-55.6-30.1-78.2-52.7s-40.3-49-52.7-78.2C16.5 321.4 10 289.2 10 256s6.5-65.4 19.3-95.8C41.7 130.9 59.4 104.6 82 82s48.9-40.3 78.2-52.7C190.6 16.5 222.8 10 256 10m50 234.5c21.2 0 38.5-17.3 38.5-38.5s-17.3-38.5-38.5-38.5-38.5 17.3-38.5 38.5 17.3 38.5 38.5 38.5m-100 0c21.2 0 38.5-17.3 38.5-38.5s-17.3-38.5-38.5-38.5-38.5 17.3-38.5 38.5 17.3 38.5 38.5 38.5m100 100c21.2 0 38.5-17.3 38.5-38.5s-17.3-38.5-38.5-38.5-38.5 17.3-38.5 38.5 17.3 38.5 38.5 38.5m-100 0c21.2 0 38.5-17.3 38.5-38.5s-17.3-38.5-38.5-38.5-38.5 17.3-38.5 38.5 17.3 38.5 38.5 38.5M256 0C114.6 0 0 114.6 0 256s114.6 256 256 256 256-114.6 256-256S397.4 0 256 0zm50 234.5c-15.7 0-28.5-12.8-28.5-28.5s12.8-28.5 28.5-28.5 28.5 12.8 28.5 28.5-12.8 28.5-28.5 28.5zm-100 0c-15.7 0-28.5-12.8-28.5-28.5s12.8-28.5 28.5-28.5 28.5 12.8 28.5 28.5-12.8 28.5-28.5 28.5zm100 100c-15.7 0-28.5-12.8-28.5-28.5s12.8-28.5 28.5-28.5 28.5 12.8 28.5 28.5-12.8 28.5-28.5 28.5zm-100 0c-15.7 0-28.5-12.8-28.5-28.5s12.8-28.5 28.5-28.5 28.5 12.8 28.5 28.5-12.8 28.5-28.5 28.5z"/><path class="st1" d="M256 0C114.6 0 0 114.6 0 256s114.6 256 256 256 256-114.6 256-256S397.4 0 256 0zm0 465c-115.4 0-209-93.6-209-209S140.6 47 256 47s209 93.6 209 209-93.6 209-209 209z"/></svg>