<svg version="1.1" xmlns="http://www.w3.org/2000/svg" x="0" y="0" viewBox="0 0 512 512" xml:space="preserve"><linearGradient id="a" gradientUnits="userSpaceOnUse" x1="66.528" y1="12.44" x2="516.794" y2="462.706" gradientTransform="matrix(1 0 0 -1 0 512)"><stop offset="0" stop-color="#975556"/><stop offset=".132" stop-color="#c05d60"/><stop offset=".354" stop-color="#b72e4d"/><stop offset=".538" stop-color="#752d63"/><stop offset=".716" stop-color="#5a3564"/><stop offset=".994" stop-color="#a17abc"/></linearGradient><path d="M200.3 63v350.2c-17.4-15.7-47.8-23.1-80.4-17.4-46.8 8.2-80.2 40.5-74.6 72s48 50.4 94.8 42.2c42.8-7.5 74.4-35.2 75.2-64h.1V236.5l237-55.9v169.6c-17.4-15.7-47.8-23.1-80.4-17.4-46.8 8.2-80.2 40.5-74.6 72 5.6 31.5 48 50.4 94.8 42.2 42.8-7.5 74.4-35.2 75.2-64h.1V0L200.3 63zm252 45.6l-237 55.9v-33l237-55.9v33z" fill="url(#a)"/></svg>