<svg xmlns="http://www.w3.org/2000/svg" viewBox="0 0 512 512" style="enable-background:new 0 0 512 512" xml:space="preserve"><path d="M395.2 274c59-11.7 100.2-38.2 100.2-68.9 0-36-78.9-86.4-160.4-99.3V104c0-57.4-35.4-104-79-104s-79 46.6-79 104v1.8C95.5 118.7 16.6 169 16.6 205c0 30.8 41.2 57.2 100.2 68.9l-105.9 157C3.8 441.5 0 454 0 466.7V480c0 17.7 14.3 32 32 32h119.4c21.3 0 41.2-10.6 53.1-28.2l51.5-76.4 51.5 76.4a64.13 64.13 0 0 0 53.1 28.2H480c17.7 0 32-14.3 32-32v-13.3c0-12.8-3.8-25.2-10.9-35.8L395.2 274z" style="fill:#2e86b7"/></svg>