<svg version="1.1" xmlns="http://www.w3.org/2000/svg" x="0" y="0" viewBox="0 0 512 512" xml:space="preserve"><style type="text/css">.st2{fill:#36434f}</style><path fill="#ddd" d="M256 65H83l53 447h240l53-447z"/><path fill="#e0ac7e" d="M114.4 398h283.2l30.1-254H84.3z"/><path class="st2" d="M426 6.9c-.6-4-4-6.9-8-6.9H94c-4 0-7.4 2.9-7.9 6.9L78 65h356l-8-58.1z"/><path fill="#122a3a" d="M78 65h356l-4.4-32H82.4z"/><path class="st2" d="m448.8 81.2-6.7-16 2.5-17c.2-1.2-.8-2.3-2-2.3H69.3c-1.2 0-2.2 1.1-2 2.3l2.5 17-6.7 16c-.5 1.3.5 2.8 1.9 2.8h382c1.4 0 2.4-1.5 1.8-2.8z"/><path opacity=".5" fill="#122a3a" d="m69.9 65.3-2.6 6.2h377.4l-2.6-6.2 1-6.8H68.9z"/><path d="M94 0c-4 0-7.4 2.9-7.9 6.9L80.6 46H69.3c-1.2 0-2.2 1.1-2 2.3l2.5 17-6.7 16c-.5 1.2.5 2.7 1.9 2.7h20.2l7.1 60h-8.1l30.1 254h8.1L136 512h120V0H94z" opacity=".15" fill="#444"/></svg>