<svg xmlns="http://www.w3.org/2000/svg" viewBox="0 0 512 512" xml:space="preserve"><style>.st0{fill:#2e86b7}</style><path class="st0" d="M256 16c32.4 0 63.8 6.3 93.4 18.9C378 47 403.6 64.3 425.7 86.3c22 22 39.4 47.7 51.4 76.3 12.5 29.6 18.9 61 18.9 93.4s-6.3 63.8-18.9 93.4c-12.1 28.6-29.4 54.2-51.4 76.3-22 22-47.7 39.4-76.3 51.4-29.6 12.5-61 18.9-93.4 18.9s-63.8-6.3-93.4-18.9c-28.6-12.1-54.2-29.4-76.3-51.4-22-22-39.4-47.7-51.4-76.3C22.3 319.8 16 288.4 16 256s6.3-63.8 18.9-93.4C47 134 64.3 108.4 86.3 86.3c22-22 47.7-39.4 76.3-51.4C192.2 22.3 223.6 16 256 16m0-16C114.6 0 0 114.6 0 256s114.6 256 256 256 256-114.6 256-256S397.4 0 256 0z"/><path class="st0" d="M256 95c43 0 83.4 16.7 113.8 47.2S417 213 417 256s-16.7 83.4-47.2 113.8S299 417 256 417s-83.4-16.7-113.8-47.2S95 299 95 256s16.7-83.4 47.2-113.8S213 95 256 95m0-8c-93.3 0-169 75.7-169 169s75.7 169 169 169 169-75.7 169-169S349.3 87 256 87z"/><path class="st0" d="M256 95c43 0 83.4 16.7 113.8 47.2S417 213 417 256s-16.7 83.4-47.2 113.8S299 417 256 417s-83.4-16.7-113.8-47.2S95 299 95 256s16.7-83.4 47.2-113.8S213 95 256 95m0-8c-93.3 0-169 75.7-169 169s75.7 169 169 169 169-75.7 169-169S349.3 87 256 87z"/><path class="st0" d="M256 40c29.2 0 57.5 5.7 84.1 17 25.7 10.9 48.8 26.5 68.7 46.3 19.8 19.8 35.4 42.9 46.3 68.7 11.3 26.6 17 54.9 17 84.1s-5.7 57.5-17 84.1c-10.9 25.7-26.5 48.8-46.3 68.7-19.8 19.8-42.9 35.4-68.7 46.3-26.6 11.3-54.9 17-84.1 17s-57.5-5.7-84.1-17c-25.7-10.9-48.8-26.5-68.7-46.3-19.8-19.8-35.4-42.9-46.3-68.7-11.3-26.6-17-54.9-17-84.1s5.7-57.5 17-84.1c10.9-25.7 26.5-48.8 46.3-68.7C123 83.5 146.1 67.9 171.9 57c26.6-11.3 54.9-17 84.1-17m0-8C132.3 32 32 132.3 32 256s100.3 224 224 224 224-100.3 224-224S379.7 32 256 32z"/><path class="st0" d="M137.8 89.9c3.3-2.3 6.6-4.5 10-6.7l12 19.6c-2.9 1.8-5.7 3.7-8.5 5.7l-13.5-18.6zm25.4 10.8c2.9-1.7 5.9-3.4 8.9-5l-10.4-20.5c-3.6 1.9-7 3.8-10.5 5.9l12 19.6zM140 117.1c2.6-2.2 5.3-4.3 8-6.3l-13.5-18.6c-3.2 2.4-6.4 4.9-9.4 7.5l14.9 17.4zm-10.5 9.6c2.4-2.4 4.9-4.7 7.5-6.9l-14.9-17.5c-3 2.6-6 5.4-8.8 8.2l16.2 16.2zm46.1-32.8c3-1.5 6.1-2.9 9.3-4.3l-8.8-21.3a216 216 0 0 0-10.9 5.1l10.4 20.5zm54.1-17c3.4-.5 6.7-.9 10.1-1.2L238 52.8c-4 .4-8 .8-11.9 1.4l3.6 22.7zM75.4 268.2c-.2-3.4-.4-6.8-.4-10.2H52c0 4 .2 8 .5 12l22.9-1.8zM188.6 88c3.2-1.3 6.3-2.5 9.6-3.6l-7.1-21.9c-3.8 1.3-7.6 2.7-11.3 4.2l8.8 21.3zm-68.9 49c2.2-2.6 4.6-5.1 6.9-7.5l-16.3-16.3c-2.8 2.9-5.5 5.8-8.2 8.8l17.6 15zM75 254c0-3.4.2-6.8.4-10.2L52.5 242c-.3 4-.4 8-.5 12h23zm5.5-42.2c.8-3.3 1.8-6.6 2.8-9.8l-21.9-7.1c-1.2 3.8-2.3 7.7-3.3 11.6l22.4 5.3zm-4.8 28c.3-3.4.7-6.8 1.2-10.1l-22.7-3.6c-.6 3.9-1 7.9-1.4 11.9l22.9 1.8zm1.8-14.1c.6-3.4 1.2-6.7 2-10l-22.4-5.4c-.9 3.9-1.7 7.8-2.3 11.8l22.7 3.6zM243.8 75.4c3.4-.2 6.8-.4 10.2-.4V52c-4 0-8 .2-12 .5l1.8 22.9zM84.5 198.2c1.1-3.2 2.3-6.4 3.6-9.6l-21.2-8.8c-1.5 3.7-2.9 7.5-4.2 11.3l21.8 7.1zm26.3-50.2c2-2.7 4.2-5.4 6.3-8l-17.5-14.9c-2.6 3.1-5.1 6.2-7.5 9.4l18.7 13.5zm-15.1 24.1c1.6-3 3.3-6 5-8.9l-19.6-12c-2.1 3.4-4 6.9-5.9 10.5l20.5 10.4zm7.1-12.3c1.8-2.9 3.7-5.7 5.7-8.5l-18.6-13.5c-2.3 3.3-4.5 6.6-6.7 10l19.6 12zm-13.2 25.1c1.3-3.1 2.8-6.2 4.3-9.3l-20.5-10.4a216 216 0 0 0-5.1 10.9l21.3 8.8zM202 83.2c3.2-1 6.5-1.9 9.8-2.8L206.4 58c-3.9 1-7.8 2.1-11.6 3.3l7.2 21.9zm209.3 80c1.7 2.9 3.4 5.9 5 8.9l20.5-10.4c-1.9-3.6-3.8-7-5.9-10.5l-19.6 12zm-7.8-11.9c2 2.8 3.9 5.6 5.7 8.5l19.6-12c-2.1-3.4-4.4-6.7-6.7-10l-18.6 13.5zm14.6 24.3c1.5 3 2.9 6.1 4.3 9.3l21.3-8.8a216 216 0 0 0-5.1-10.9l-20.5 10.4zM394.9 140c2.2 2.6 4.3 5.3 6.3 8l18.6-13.5c-2.4-3.2-4.9-6.4-7.5-9.4L394.9 140zm33.9 62c1 3.2 1.9 6.5 2.8 9.8l22.4-5.4c-1-3.9-2.1-7.8-3.3-11.6l-21.9 7.2zm3.7 13.7c.8 3.3 1.4 6.6 2 10l22.7-3.6c-.7-4-1.4-7.9-2.3-11.8l-22.4 5.4zm-8.5-27.1c1.3 3.2 2.5 6.3 3.6 9.6l21.9-7.1c-1.3-3.8-2.7-7.6-4.2-11.3l-21.3 8.8zm33.8 37.5-22.7 3.6c.5 3.4.9 6.7 1.2 10.1l22.9-1.8c-.4-4-.8-8-1.4-11.9zm-72.5-96.6c2.4 2.4 4.7 4.9 6.9 7.5l17.5-14.9c-2.6-3-5.4-6-8.2-8.8l-16.2 16.2zm-58.2-39.9c3.1 1.3 6.2 2.8 9.3 4.3l10.4-20.5a216 216 0 0 0-10.9-5.1l-8.8 21.3zm-13.3-5.1c3.2 1.1 6.4 2.3 9.6 3.6l8.8-21.2c-3.7-1.5-7.5-2.9-11.3-4.2l-7.1 21.8zm-13.6-4c3.3.8 6.6 1.8 9.8 2.8l7.1-21.9c-3.8-1.2-7.7-2.3-11.6-3.3l-5.3 22.4zm-13.9-3c3.4.6 6.7 1.2 10 2l5.4-22.4c-3.9-.9-7.8-1.7-11.8-2.3l-3.6 22.7zm-14.1-1.8c3.4.3 6.8.7 10.1 1.2l3.6-22.7c-3.9-.6-7.9-1-11.9-1.4l-1.8 22.9zm102.8 44c2.6 2.2 5.1 4.6 7.5 6.9l16.3-16.3c-2.9-2.8-5.8-5.5-8.8-8.2l-15 17.6zm-11-8.9c2.7 2 5.4 4.2 8 6.3l14.9-17.5c-3.1-2.6-6.2-5.1-9.4-7.5L364 110.8zm-11.8-8c2.9 1.8 5.7 3.7 8.5 5.7l13.5-18.6c-3.3-2.3-6.6-4.5-10-6.7l-12 19.6zm-12.3-7.1c3 1.6 6 3.3 8.9 5l12-19.6c-3.4-2.1-6.9-4-10.5-5.9l-10.4 20.5zM258 75c3.4 0 6.8.2 10.2.4l1.8-22.9c-4-.3-8-.4-12-.5v23zm-42.3 4.5c3.3-.8 6.6-1.4 10-2l-3.6-22.7c-4 .7-7.9 1.4-11.8 2.3l5.4 22.4zM372 394.9c-2.6 2.2-5.3 4.3-8 6.3l13.5 18.6c3.2-2.4 6.4-4.9 9.4-7.5L372 394.9zm-11.3 8.6c-2.8 2-5.6 3.9-8.5 5.7l12 19.6c3.4-2.1 6.7-4.4 10-6.7l-13.5-18.6zm-78.4 31.6c-3.4.5-6.7.9-10.1 1.2l1.8 22.9c4-.4 8-.8 11.9-1.4l-3.6-22.7zm14-2.6c-3.3.8-6.6 1.4-10 2l3.6 22.7c4-.7 7.9-1.4 11.8-2.3l-5.4-22.4zm13.7-3.7c-3.2 1-6.5 1.9-9.8 2.8l5.4 22.4c3.9-1 7.8-2.1 11.6-3.3l-7.2-21.9zm26.4-10.7c-3 1.5-6.1 2.9-9.3 4.3l8.8 21.3a216 216 0 0 0 10.9-5.1l-10.4-20.5zm-13 5.9c-3.2 1.3-6.3 2.5-9.6 3.6l7.1 21.9c3.8-1.3 7.6-2.7 11.3-4.2l-8.8-21.3zm25.4-12.7c-2.9 1.7-5.9 3.4-8.9 5l10.4 20.5c3.6-1.9 7-3.8 10.5-5.9l-12-19.6zM437 258c0 3.4-.2 6.8-.4 10.2l22.9 1.8c.3-4 .4-8 .5-12h-23zm-.7 14.2c-.3 3.4-.7 6.8-1.2 10.1l22.7 3.6c.6-3.9 1-7.9 1.4-11.9l-22.9-1.8zm.3-28.4c.2 3.4.4 6.8.4 10.2h23c0-4-.2-8-.5-12l-22.9 1.8zM76.9 282.3c-.5-3.4-.9-6.7-1.2-10.1L52.8 274c.4 4 .8 8 1.4 11.9l22.7-3.6zM148 401.2c-2.7-2-5.4-4.2-8-6.3l-14.9 17.5c3.1 2.6 6.2 5.1 9.4 7.5l13.5-18.7zm63.8 30.3c-3.3-.8-6.6-1.8-9.8-2.8l-7.1 21.9c3.8 1.2 7.7 2.3 11.6 3.3l5.3-22.4zm13.9 3c-3.4-.6-6.7-1.2-10-2l-5.4 22.4c3.9.9 7.8 1.7 11.8 2.3l3.6-22.7zm14.1 1.8c-3.4-.3-6.8-.7-10.1-1.2l-3.6 22.7c3.9.6 7.9 1 11.9 1.4l1.8-22.9zm14.2.7c-3.4 0-6.8-.2-10.2-.4l-1.8 22.9c4 .3 8 .4 12 .5v-23zm-94.2-27.8c-2.9-1.8-5.7-3.7-8.5-5.7l-13.5 18.6c3.3 2.3 6.6 4.5 10 6.7l12-19.6zm108.4 27.4c-3.4.2-6.8.4-10.2.4v23c4 0 8-.2 12-.5l-1.8-22.9zm-70-9.1c-3.2-1.1-6.4-2.3-9.6-3.6l-8.8 21.2c3.7 1.5 7.5 2.9 11.3 4.2l7.1-21.8zm-26.1-11.2c-3-1.6-6-3.3-8.9-5l-12 19.6c3.4 2.1 6.9 4 10.5 5.9l10.4-20.5zm12.8 6.1c-3.1-1.3-6.2-2.8-9.3-4.3l-10.4 20.5a216 216 0 0 0 10.9 5.1l8.8-21.3z"/><circle class="st0" cx="89" cy="351" r="10"/><circle class="st0" cx="423" cy="351" r="10"/><path class="st0" d="M150.9 196c-5.1-7.7-5.6-11.9-4.6-13.3.7-1.1 3-1.7 6.2-1.7 2.9 0 6.3.5 10.2 1.4 2 4.2 4.5 8.8 7.5 13.7h4.7c-3-4.7-5.3-8.8-7.1-12.4 5.9 1.7 12.6 4.1 19.9 7.2.7 1.7 1.5 3.5 2.3 5.2h4.4c-.4-1-.9-2-1.3-2.9 2.1.9 4.2 1.9 6.4 2.9H210c-1.3-4.8-2.4-9.5-3.4-13.9 3.9 2.7 8 5.7 12.2 9 .1 1.6.2 3.3.4 5h4c0-.5-.1-1.1-.1-1.6.7.5 1.4 1.1 2.1 1.6h9.8c.2-2.3.5-4.6.8-6.9 1.9 2.2 3.8 4.5 5.8 6.9h5.2c-.1-.1-.2-.3-.3-.4.9-3.1 1.9-6.2 2.9-9.2 1.5 2.7 3.1 5.6 4.6 8.4-.2.4-.4.8-.6 1.1h5.7c-.2-.4-.4-.8-.6-1.1 1.5-2.9 3.1-5.7 4.6-8.4 1 3 1.9 6 2.9 9.2-.1.1-.2.3-.3.4h5.2c1.9-2.4 3.8-4.7 5.8-6.9.3 2.3.5 4.6.8 6.9h9.8c.7-.6 1.4-1.1 2.1-1.6 0 .5-.1 1.1-.1 1.6h4c.1-1.7.3-3.3.4-5 4.2-3.3 8.3-6.3 12.2-9-1 4.5-2.2 9.1-3.4 13.9H313c2.2-1 4.3-2 6.4-2.9-.4 1-.9 1.9-1.3 2.9h4.4c.8-1.8 1.6-3.5 2.3-5.2 7.3-3.1 14-5.5 19.9-7.2-1.8 3.6-4.2 7.7-7.1 12.4h4.7c3-5 5.6-9.6 7.5-13.7 3.9-.9 7.4-1.4 10.2-1.4 3.2 0 5.5.6 6.2 1.7 1 1.4.4 5.7-4.6 13.3h4.7c4.1-6.9 5.4-12.3 3.2-15.6-1.6-2.4-4.9-3.5-9.5-3.5-2.4 0-5.2.3-8.3.9 3.5-8.6 4-14.9.9-18-1.4-1.4-3.4-2-6-2-3.2 0-7.3 1-12 2.9 1.7-9.2 1-15.4-2.6-17.8-1.1-.7-2.4-1.1-3.9-1.1-3.5 0-8.1 1.9-13.6 5.5-.1-9.3-2.1-15.3-6.1-17-.7-.3-1.5-.5-2.4-.5-3.7 0-8.5 2.9-13.9 8.2-1.9-9.1-5-14.6-9.2-15.5-.4-.1-.8-.1-1.2-.1-4 0-8.5 3.9-13.3 10.8-3.7-8.6-7.8-13.3-12.1-13.3s-8.4 4.8-12.1 13.3c-4.8-7-9.3-10.9-13.3-10.9-.4 0-.8 0-1.2.1-4.2.8-7.3 6.3-9.2 15.5-5.4-5.3-10.1-8.2-13.9-8.2-.9 0-1.7.2-2.4.5-4 1.7-5.9 7.7-6.1 17-5.5-3.6-10.1-5.5-13.6-5.5-1.5 0-2.8.4-3.9 1.1-3.6 2.4-4.3 8.7-2.6 17.8-4.8-1.9-8.8-2.9-12-2.9-2.6 0-4.6.7-6 2-3.1 3.1-2.6 9.4.9 18-3.1-.6-5.9-.9-8.3-.9-4.7 0-7.9 1.1-9.5 3.5-2.2 3.3-.9 8.7 3.2 15.6h4.6zm142.7-10.3c.3-5.7.5-11.1.6-16.1 6.2-6.2 11.4-10.8 15.7-14.2-.4 5.1-1.2 11.2-2.7 18.6-.1.8-.3 1.6-.5 2.4-4.2 2.8-8.6 5.9-13.1 9.3zm39.5-20.1c5.5-2.5 10-3.8 13.1-3.8 1 0 2.4.1 3.1.9 1.3 1.3 1.6 6.2-2.9 16.2-5.8 1.5-12.6 3.7-20 6.7 3-7.5 5.3-14.2 6.7-20zM314 152.2c8.1-5.7 12.2-6.4 13.7-6.4.7 0 1.3.1 1.7.4 1.6 1 2.8 5.8.3 16.5-5.4 2.6-11.6 6.1-18.3 10.5 1.4-7.9 2.3-15 2.6-21zm14.4 15.7c-1.4 4.9-3.4 10.7-6.2 17.6-.3.7-.6 1.5-.9 2.2-4.7 2-9.6 4.2-14.7 6.7 1.4-5.5 2.7-10.7 3.7-15.7 6.7-4.5 12.8-8.1 18.1-10.8zm-22.8-34c.3 0 .6.1.9.2 1.7.7 3.8 5.1 3.5 16.1-4.8 3.6-10.2 8.2-15.9 13.9-.1-8.1-.6-15.2-1.5-21.1 6.1-6.5 10.5-9.1 13-9.1zM231 195.6c-2.8-2.3-5.6-4.5-8.3-6.6-.3-5.3-.6-10.3-.7-15.2 3.3 3.5 6.7 7.2 10.2 11.2-.5 3.4-.9 7-1.2 10.6zm12.2-3.7c-2.3-2.8-4.6-5.5-6.9-8.1.7-5.2 1.4-10.2 2.3-15 2.6 4.1 5.2 8.4 7.8 13-1 3.2-2.1 6.6-3.2 10.1zm12.8-1.3c-1.7-3.2-3.4-6.3-5.2-9.3 1.7-5 3.4-9.7 5.2-14.3 1.7 4.5 3.5 9.3 5.2 14.3-1.8 3-3.5 6.1-5.2 9.3zm12.8 1.3c-1.1-3.5-2.1-6.9-3.2-10.1 2.6-4.6 5.2-8.9 7.8-13 .8 4.8 1.6 9.8 2.3 15-2.3 2.5-4.6 5.3-6.9 8.1zm20.5-2.9c-2.7 2.1-5.5 4.3-8.3 6.6-.4-3.6-.8-7.1-1.2-10.6 3.5-4 6.9-7.7 10.2-11.2-.1 4.8-.3 9.9-.7 15.2zm.8-23.4v2.4c-3.5 3.6-7.2 7.6-11 11.8-.8-5.6-1.7-10.9-2.6-15.9 4.7-7 8.9-12.7 12.6-17 .6 5 1 11.1 1 18.7zm-8.7-39.1h.4c1.8.4 4.8 4.3 6.6 15.1-4 4.5-8.4 10.1-12.9 16.7-1.7-7.9-3.5-14.7-5.6-20.4 5.4-8.6 9.5-11.4 11.5-11.4zm-9.6 34.1c.2.8.3 1.6.5 2.4-2.8 4.2-5.6 8.8-8.5 13.7-1.9-5.4-3.8-10.4-5.6-15.1.1-.2.1-.3.2-.5 3.2-7.7 6.1-13.8 8.8-18.6 1.5 4.8 3.1 10.8 4.6 18.1zM256 124c1.9 0 5.5 3.2 9.4 13.5-3.1 5.2-6.3 11.5-9.4 18.9-3.2-7.4-6.3-13.8-9.4-18.9 3.9-10.3 7.5-13.5 9.4-13.5zm-11.2 18.5c2.7 4.8 5.6 10.9 8.8 18.6.1.2.1.3.2.5-1.9 4.7-3.8 9.8-5.6 15.1-2.9-4.9-5.7-9.5-8.5-13.7.2-.8.3-1.6.5-2.4 1.5-7.3 3.1-13.3 4.6-18.1zm-14.6-16h.4c2 0 6 2.8 11.5 11.4-2 5.7-3.9 12.5-5.6 20.4-4.5-6.6-8.9-12.2-12.9-16.7 1.9-10.8 4.8-14.7 6.6-15.1zm-7.3 20.3c3.7 4.4 7.9 10 12.6 17-.9 5-1.8 10.3-2.6 15.9-3.8-4.2-7.4-8.2-11-11.8v-2.4c0-7.5.4-13.6 1-18.7zm-17.5 29.5c-.2-.8-.3-1.6-.5-2.4-1.4-7.4-2.2-13.5-2.7-18.6 4.3 3.4 9.5 8 15.7 14.2 0 5.1.2 10.5.6 16.1-4.6-3.3-9-6.4-13.1-9.3zm.1-42.3c.3-.1.5-.2.9-.2 2.6 0 7 2.6 13 9-.9 6-1.4 13.1-1.5 21.1-5.8-5.6-11.1-10.3-15.9-13.9-.3-10.9 1.8-15.2 3.5-16zm0 60.4c-5.1-2.5-10-4.7-14.7-6.7-.3-.7-.6-1.5-.9-2.2-2.8-6.9-4.8-12.8-6.2-17.6 5.3 2.7 11.4 6.4 18.1 10.9 1 4.9 2.2 10.1 3.7 15.6zm-22.8-48.2c.4-.3.9-.4 1.7-.4 1.5 0 5.6.7 13.7 6.4.3 6 1.2 13.1 2.7 21-6.7-4.4-12.9-7.9-18.3-10.5-2.6-10.7-1.4-15.4.2-16.5zm-20 16.5c.7-.7 2.1-.9 3.1-.9 3.1 0 7.6 1.3 13.1 3.8 1.5 5.8 3.7 12.6 6.7 20-7.5-3-14.2-5.2-20-6.7-4.5-10.1-4.3-14.9-2.9-16.2zM361.1 316c5.1 7.7 5.6 11.9 4.6 13.3-.7 1.1-3 1.7-6.2 1.7-2.9 0-6.3-.5-10.2-1.4-2-4.2-4.5-8.8-7.5-13.7H337c3 4.7 5.3 8.8 7.1 12.4-5.9-1.7-12.6-4.1-19.9-7.2-.7-1.7-1.5-3.5-2.3-5.2h-4.4c.4 1 .9 2 1.3 2.9-2.1-.9-4.2-1.9-6.4-2.9H302c1.3 4.8 2.4 9.5 3.4 13.9-3.9-2.7-8-5.7-12.2-9-.1-1.6-.2-3.3-.4-5h-4c0 .5.1 1.1.1 1.6-.7-.5-1.4-1.1-2.1-1.6H277c-.2 2.3-.5 4.6-.8 6.9-1.9-2.2-3.8-4.5-5.8-6.9h-5.2c.1.1.2.3.3.4-.9 3.1-1.9 6.2-2.9 9.2-1.5-2.7-3.1-5.6-4.6-8.4.2-.4.4-.8.6-1.1h-5.7c.2.4.4.8.6 1.1-1.5 2.9-3.1 5.7-4.6 8.4-1-3-1.9-6-2.9-9.2.1-.1.2-.3.3-.4h-5.2c-1.9 2.4-3.8 4.7-5.8 6.9-.3-2.3-.5-4.6-.8-6.9h-9.8c-.7.6-1.4 1.1-2.1 1.6 0-.5.1-1.1.1-1.6h-4c-.1 1.7-.3 3.3-.4 5-4.2 3.3-8.3 6.3-12.2 9 1-4.5 2.2-9.1 3.4-13.9H199c-2.2 1-4.3 2-6.4 2.9.4-1 .9-1.9 1.3-2.9H190c-.8 1.8-1.6 3.5-2.3 5.2-7.3 3.1-14 5.5-19.9 7.2 1.8-3.6 4.2-7.7 7.1-12.4h-4.7c-3 5-5.6 9.6-7.5 13.7-3.9.9-7.4 1.4-10.2 1.4-3.2 0-5.5-.6-6.2-1.7-1-1.4-.4-5.7 4.6-13.3h-4.7c-4.1 6.9-5.4 12.3-3.2 15.6 1.6 2.4 4.9 3.5 9.5 3.5 2.4 0 5.2-.3 8.3-.9-3.5 8.6-4 14.9-.9 18 1.4 1.4 3.4 2 6 2 3.2 0 7.3-1 12-2.9-1.7 9.2-1 15.4 2.6 17.8 1.1.7 2.4 1.1 3.9 1.1 3.5 0 8.1-1.9 13.6-5.5.1 9.3 2.1 15.3 6.1 17 .7.3 1.5.5 2.4.5 3.7 0 8.5-2.9 13.9-8.2 1.9 9.1 5 14.6 9.2 15.5.4.1.8.1 1.2.1 4 0 8.5-3.9 13.3-10.9 3.7 8.6 7.8 13.3 12.1 13.3s8.4-4.8 12.1-13.3c4.8 7 9.3 10.8 13.3 10.8.4 0 .8 0 1.2-.1 4.2-.8 7.3-6.3 9.2-15.5 5.4 5.3 10.1 8.2 13.9 8.2.9 0 1.7-.2 2.4-.5 4-1.7 5.9-7.7 6.1-17 5.5 3.6 10.1 5.5 13.6 5.5 1.5 0 2.8-.4 3.9-1.1 3.6-2.4 4.3-8.7 2.6-17.8 4.8 1.9 8.8 2.9 12 2.9 2.6 0 4.6-.7 6-2 3.1-3.1 2.6-9.4-.9-18 3.1.6 5.9.9 8.3.9 4.7 0 7.9-1.1 9.5-3.5 2.2-3.3.9-8.7-3.2-15.6h-5.1zm-142.7 10.3c-.3 5.7-.5 11.1-.6 16.1-6.2 6.2-11.4 10.8-15.7 14.2.4-5.1 1.2-11.2 2.7-18.6.1-.8.3-1.6.5-2.4 4.2-2.8 8.6-5.9 13.1-9.3zm-39.5 20.1c-5.5 2.5-10 3.8-13.1 3.8-1 0-2.4-.1-3.1-.9-1.3-1.3-1.6-6.2 2.9-16.2 5.8-1.5 12.6-3.7 20-6.7-3 7.5-5.3 14.2-6.7 20zm19.1 13.4c-8.1 5.7-12.2 6.4-13.7 6.4-.7 0-1.3-.1-1.7-.4-1.6-1-2.8-5.8-.3-16.5 5.4-2.6 11.6-6.1 18.3-10.5-1.4 7.9-2.3 15-2.6 21zm-14.4-15.7c1.4-4.9 3.4-10.7 6.2-17.6.3-.7.6-1.5.9-2.2 4.7-2 9.6-4.2 14.7-6.7-1.4 5.5-2.7 10.7-3.7 15.7-6.7 4.5-12.8 8.1-18.1 10.8zm22.8 34c-.3 0-.6-.1-.9-.2-1.7-.7-3.8-5.1-3.5-16.1 4.8-3.6 10.2-8.2 15.9-13.9.1 8.1.6 15.2 1.5 21.1-6.1 6.5-10.5 9.1-13 9.1zm74.6-61.7c2.8 2.3 5.6 4.5 8.3 6.6.3 5.3.6 10.3.7 15.2-3.3-3.5-6.7-7.2-10.2-11.2.5-3.4.9-7 1.2-10.6zm-12.2 3.7c2.3 2.8 4.6 5.5 6.9 8.1-.7 5.2-1.4 10.2-2.3 15-2.6-4.1-5.2-8.4-7.8-13 1-3.2 2.1-6.6 3.2-10.1zm-12.8 1.3c1.7 3.2 3.4 6.3 5.2 9.3-1.7 5-3.4 9.7-5.2 14.3-1.7-4.5-3.5-9.3-5.2-14.3 1.8-3 3.5-6.1 5.2-9.3zm-12.8-1.3c1.1 3.5 2.1 6.9 3.2 10.1-2.6 4.6-5.2 8.9-7.8 13-.8-4.8-1.6-9.8-2.3-15 2.3-2.5 4.6-5.3 6.9-8.1zm-20.5 2.9c2.7-2.1 5.5-4.3 8.3-6.6.4 3.6.8 7.1 1.2 10.6-3.5 4-6.9 7.7-10.2 11.2.1-4.8.3-9.9.7-15.2zm-.8 23.4V344c3.5-3.6 7.2-7.6 11-11.8.8 5.6 1.7 10.9 2.6 15.9-4.7 7-8.9 12.7-12.6 17-.6-5-1-11.1-1-18.7zm8.7 39.1h-.4c-1.8-.4-4.8-4.3-6.6-15.1 4-4.5 8.4-10.1 12.9-16.7 1.7 7.9 3.5 14.7 5.6 20.4-5.4 8.6-9.5 11.4-11.5 11.4zm9.6-34.1c-.2-.8-.3-1.6-.5-2.4 2.8-4.2 5.6-8.8 8.5-13.7 1.9 5.4 3.8 10.4 5.6 15.1-.1.2-.1.3-.2.5-3.2 7.7-6.1 13.8-8.8 18.6-1.5-4.8-3.1-10.8-4.6-18.1zM256 388c-1.9 0-5.5-3.2-9.4-13.5 3.1-5.2 6.3-11.5 9.4-18.9 3.2 7.4 6.3 13.8 9.4 18.9-3.9 10.3-7.5 13.5-9.4 13.5zm11.2-18.5c-2.7-4.8-5.6-10.9-8.8-18.6-.1-.2-.1-.3-.2-.5 1.9-4.7 3.8-9.8 5.6-15.1 2.9 4.9 5.7 9.5 8.5 13.7-.2.8-.3 1.6-.5 2.4-1.5 7.3-3.1 13.3-4.6 18.1zm14.6 16h-.4c-2 0-6-2.8-11.5-11.4 2-5.7 3.9-12.5 5.6-20.4 4.5 6.6 8.9 12.2 12.9 16.7-1.9 10.8-4.8 14.7-6.6 15.1zm7.3-20.3c-3.7-4.4-7.9-10-12.6-17 .9-5 1.8-10.3 2.6-15.9 3.8 4.2 7.4 8.2 11 11.8v2.4c0 7.5-.4 13.6-1 18.7zm17.5-29.5c.2.8.3 1.6.5 2.4 1.4 7.4 2.2 13.5 2.7 18.6-4.3-3.4-9.5-8-15.7-14.2 0-5.1-.2-10.5-.6-16.1 4.6 3.3 9 6.4 13.1 9.3zm-.1 42.3c-.3.1-.5.2-.9.2-2.6 0-7-2.6-13-9 .9-6 1.4-13.1 1.5-21.1 5.8 5.6 11.1 10.3 15.9 13.9.3 10.9-1.8 15.2-3.5 16zm0-60.4c5.1 2.5 10 4.7 14.7 6.7.3.7.6 1.5.9 2.2 2.8 6.9 4.8 12.8 6.2 17.6-5.3-2.7-11.4-6.4-18.1-10.9-1-4.9-2.2-10.1-3.7-15.6zm22.8 48.2c-.4.3-.9.4-1.7.4-1.5 0-5.6-.7-13.7-6.4-.3-6-1.2-13.1-2.7-21 6.7 4.4 12.9 7.9 18.3 10.5 2.6 10.7 1.4 15.4-.2 16.5zm20-16.5c-.7.7-2.1.9-3.1.9-3.1 0-7.6-1.3-13.1-3.8-1.5-5.8-3.7-12.6-6.7-20 7.5 3 14.2 5.2 20 6.7 4.5 10.1 4.3 14.9 2.9 16.2z"/><path class="st0" d="M406.6 199c6.9 18.2 10.4 37.3 10.4 57s-3.5 38.8-10.4 57H105.4C98.5 294.8 95 275.7 95 256s3.5-38.8 10.4-57h301.2m5.4-8H100c-8.3 20-13 42-13 65s4.6 45 13 65h312c8.3-20 13-42 13-65s-4.6-45-13-65z"/><path class="st0" d="M171.5 281.5h-31v-51h31v51zm40-51h-31v51h31v-51zm40 0h-31v51h31v-51zm40 0h-31v51h31v-51zm40 0h-31v51h31v-51zm40 0h-31v51h31v-51z"/></svg>