<svg version="1.1" xmlns="http://www.w3.org/2000/svg" x="0" y="0" viewBox="0 0 512 512" xml:space="preserve"><style type="text/css">.st2{fill:#36434f}</style><path d="M465.4 170.8c-.9-.6-2-.8-3.1-.8H49.7c-1.1 0-2.1.3-3.1.8l-19.2 11.4c-1.8 1.1-2.9 3-2.9 5.2V210h463v-22.6c0-2.1-1.1-4.1-2.9-5.2l-19.2-11.4z" fill="#eec646"/><path d="M506 210H346.5l-5.9-23.5c-.7-2.7-3.1-4.5-5.8-4.5h-29.3c-3.3 0-6 2.7-6 6v22h-87v-22c0-3.3-2.7-6-6-6h-29.3c-2.8 0-5.2 1.9-5.8 4.5l-5.9 23.5H6c-3.3 0-6 2.7-6 6v27h512v-27c0-3.3-2.7-6-6-6z" fill="#ffa000"/><path class="st2" d="M191.5 136v34H204v-18c0-3.3 2.7-6 6-6h92c3.3 0 6 2.7 6 6v18h12.5v-34c0-6.6-5.4-12-12-12h-105c-6.6 0-12 5.4-12 12zM277 243H3.7l4.9 27.5c.3 1.4 1.5 2.5 3 2.5H18l10 104.1c.6 6.2 5.8 10.9 11.9 10.9h432.2c6.2 0 11.4-4.7 11.9-10.9L494 273h6.5c1.5 0 2.7-1 3-2.5l4.9-27.5H277z"/><path class="st2" d="M293.5 295h-75c-3.3 0-6-2.7-6-6v-88c0-3.3 2.7-6 6-6h75c3.3 0 6 2.7 6 6v88c0 3.3-2.7 6-6 6z"/></svg>