<svg xmlns="http://www.w3.org/2000/svg" viewBox="0 0 512 512" xml:space="preserve"><path d="M390 290.8v13.4c0 13-10.5 23.5-23.5 23.5S343 317.2 343 304.2v-31.1c0-28.2-7.2-55.9-20.6-80.8-1.1-2.1-2.3-4.3-3.4-6.4C282.8 115.7 250.3 9.3 255.1.3c-.1.1-.3.2-.4.3C228.4 19.4 213 50 213 82.4v118.5c0 19.4-15.7 35-35 35s-35-15.7-35-35v-26.1C113.6 251 96 331.1 96 376.1c0 57.5 30.3 107.9 75.7 136.2h168.6C385.7 484 416 433.6 416 376.1c0-37.3-10.4-61.7-26-85.3z" fill="#cc584c"/><path d="M206.4 512h99.2c19.1-14.8 31.4-38 31.4-64 0-24.2-13-74.6-38-119-21.2-37.7-55-72-55-72s-10.5 38.2-28 81c-17 41.8-41 87.9-41 110 0 26 12.3 49.2 31.4 64z" fill="#dd8f49"/></svg>