<svg version="1.1" xmlns="http://www.w3.org/2000/svg" x="0" y="0" viewBox="0 0 512 512" xml:space="preserve"><path d="M398.4 0H113.6c-10.5 0-19 8.5-19 19v474c0 10.5 8.5 19 19 19h284.8c10.5 0 19-8.5 19-19V19c0-10.5-8.5-19-19-19z" fill="#f4f4f4"/><path d="M245.6 512h-2.3L94.6 254.4v-4l151 261.6zm-151-387.6v8L313.7 512h4.6L94.6 124.4zm0 44v4l196 339.6h2.3L94.6 168.4zm0 56v8L256 512h4.6l-166-287.6zm0-114v8L321.8 512h4.6L94.6 110.4zm0 128v6L249.1 512h3.5l-158-273.6zm0-28v8L264.1 512h4.6L94.6 210.4zm0-32v2L286 512h1.2L94.6 178.4zm0-18v2L296.4 512h1.2l-203-351.6zm0-62v6L329.9 512h3.5L94.6 98.4zm0-67v4L369.7 512h2.3L94.6 31.4zm0-12v6L375.5 512h3.5L94.6 19.4zm0 31v2L359.9 512h1.2L94.6 50.4zm0-9v3l270 467.6h1.7L94.6 41.4zm0 47v4L336.8 512h2.3L94.6 88.4zm0-9v3l248 429.6h1.7L94.6 79.4zm0-8v2L347.8 512h1.2L94.6 71.4zm0 316v4L164.2 512h2.3L94.6 387.4zm0 70v6l28.1 48.6h3.5l-31.6-54.6zm0 12v4l22.3 38.6h2.3l-24.6-42.6zm0-26v8l35 60.6h4.6l-39.6-68.6zm0-46v2l65 112.6h1.2L94.6 397.4zm312-395.5 10.8 18.7V19c0-7.5-4.4-14-10.8-17.1zM97 9.7c-.8 1.5-1.5 3.1-1.9 4.7L382.4 512h4.6L97 9.7zm-2.4 469.7v3l17 29.5c.6.1 1.2.1 1.8.1l-18.8-32.6zm0-219v3L238.1 512h1.7L94.6 260.4zm0 228v2l11.6 20.1c.5.2 1 .4 1.5.5l-13.1-22.6zm0-198v2L221.4 512h1.2l-128-221.6zm0 89v2L170 512h1.2L94.6 379.4zm0-110v2L233.5 512h1.2L94.6 269.4zm0 38v4L210.4 512h2.3L94.6 307.4zm0-9v3L216.2 512h1.7L94.6 298.4zm0 45v8L187.3 512h4.6L94.6 343.4zm0-26v6L203.5 512h3.5L94.6 317.4zm0 12v8L195.4 512h4.6L94.6 329.4zm0 100v8l43.1 74.6h4.6l-47.7-82.6zM254.8 0h-1.2l163.7 283.6v-2L254.8 0zm41.6 0h-2.3l123.3 213.6v-4L296.4 0zm27.1 0h-1.7l95.6 165.6v-3L323.5 0zm-5.1 0h-1.2l100.2 173.6v-2L318.4 0zm-12.2 0H305l112.4 194.6v-2L306.2 0zm-30.6 0H271l146.4 253.6v-8L275.6 0zm8.1 0h-4.6l138.3 239.6v-8L283.7 0zm6.9 0h-3.5l130.3 225.6v-6L290.6 0zm11 0h-1.7l117.6 203.6v-3L301.6 0zm75.1 0h-2.3l43.1 74.6v-4L376.7 0zm4.6 0h-1.2l37.3 64.6v-2L381.3 0zm-52 0H327l90.4 156.6v-4L329.3 0zm73 .4c-1.3-.3-2.6-.4-3.9-.4h-1l20 34.6v-8L402.3.4zM370.9 0h-1.2l47.7 82.6v-2L370.9 0zm-34.6 0h-3.5l84.6 146.6v-6L336.3 0zm8 0h-4.6l77.7 134.6v-8L344.3 0zm8.1 0h-4.6l69.6 120.6v-8L352.4 0zM202.9 0h-2.3l216.9 375.6v-4L202.9 0zm-27.7 0h-1.7l244 422.6v-3L175.2 0zm75 0h-2.3l169.5 293.6v-4L250.2 0zm-92.9 0h-4.6l264.8 458.6v-8L157.3 0zM170 0h-2.3l249.8 432.6v-4L170 0zm-20.8 0h-4.6l272.9 472.6v-8L149.2 0zM118 0h-1.2l293.3 507.9c.3-.2.5-.4.8-.6L118 0zm10.4 0h-1.2L416 500.2c.2-.4.3-.8.4-1.2L128.4 0zm-4.6 0h-2.3l291.6 505.1c.5-.6.9-1.2 1.3-1.8L123.8 0zm40.4 0h-3.5l256.7 444.6v-6L164.2 0zM226 0h-4.6l196.1 339.6v-8L226 0zm-8.1 0h-4.6l204.2 353.6v-8L217.9 0zm26.6 0h-1.2l174.1 301.6v-2L244.5 0zm-34.7 0h-3.5l211.1 365.6v-6L209.8 0zM101.9 4.1c-1.1.9-2.1 1.8-3 2.9l291.6 505h4.6L101.9 4.1zm90-4.1h-1.2l226.7 392.6v-2L191.9 0zm-12.1 0h-1.2l238.8 413.6v-2L179.8 0zm17.3 0h-1.7l222.1 384.6v-3L197.1 0z" opacity=".7" fill="#cc584c"/><path d="M94.6 384.6v-3L314.9 0h1.7l-222 384.6zM258.3 0h-1.2L94.6 281.6v2L258.3 0zm53.1 0h-2.3L94.6 371.6v4L311.4 0zm9.8 0H320L94.6 390.6v2L321.2 0zm-57.1 0h-2.3L94.6 289.6v4L264.1 0zm4.6 0h-1.2l-173 299.6v2L268.7 0zm64.7 0h-1.2L94.6 411.6v2L333.4 0zm-42.8 0H286L94.6 331.6v8L290.6 0zm15.1 0h-3.5L94.6 359.6v6L305.7 0zm84.8 0h-2.3L97.6 503.3c.4.6.8 1.2 1.3 1.8L390.5 0zm-5.8 0h-1.2l-288 498.9c.1.4.3.8.4 1.2L384.7 0zm-17.3 0h-4.6L94.6 464.6v8L367.4 0zm27.7 0H394L101.1 507.3c.3.2.5.4.8.6L395.1 0zm-56.5 0h-1.7L94.6 419.6v3L338.6 0zm74.5 6.9c-.9-1.1-1.9-2-3-2.9L116.9 512h4.6L413.1 6.9zM344.3 0H342L94.6 428.6v4L344.3 0zm7 0h-3.5L94.6 438.6v6L351.3 0zm8 0h-4.6L94.6 450.6v8L359.3 0zM164.2 0h-4.6l-65 112.6v8L164.2 0zm-21.9 0h-1.2L94.6 80.6v2L142.3 0zm-4.7 0h-2.3L94.6 70.6v4l43-74.6zm34.7 0h-4.6L94.6 126.6v8L172.3 0zm6.9 0h-3.5L94.6 140.6v6L179.2 0zm-73.8 1.9C99 5 94.6 11.5 94.6 19v1.6l10.8-18.7zm9.1-1.9h-1c-1.3 0-2.6.1-3.9.4l-15 26.2v8L114.5 0zm17.4 0h-1.2L94.6 62.6v2L131.9 0zm92.9 0h-3.5L94.6 219.6v6L224.8 0zm-6.9 0h-2.3l-121 209.6v4L217.9 0zM241 0h-4.6L94.6 245.6v8L241 0zm-28.9 0h-1.7L94.6 200.6v3L212.1 0zm20.8 0h-4.6L94.6 231.6v8L232.9 0zm-26 0h-1.2L94.6 192.6v2L206.9 0zM185 0h-2.3L94.6 152.6v4L185 0zm5.2 0h-1.7L94.6 162.6v3L190.2 0zm4.6 0h-1.2l-99 171.6v2L194.8 0zm103.9 0h-4.6L94.6 345.6v8L298.7 0zm118.7 337.4v-8L312 512h4.6l100.8-174.6zm0-14v-6L305.1 512h3.5l108.8-188.6zm0-12v-4L299.3 512h2.3l115.8-200.6zm0 40v-8L320.1 512h4.6l92.7-160.6zm0-80v-2L277.4 512h1.2l138.8-240.6zm0 30v-3L294.1 512h1.7l121.6-210.6zm0 80v-2L340.9 512h1.2l75.3-130.6zm0-118v-3L272.2 512h1.7l143.5-248.6zm0 29v-2L289.5 512h1.2l126.7-219.6zm0 171v-6L385.9 512h3.5l28-48.6zm0 10v-4L392.8 512h2.3l22.3-38.6zm0 9v-3L398.6 512c.6 0 1.2 0 1.8-.1l17-29.5zm0 8v-2l-13 22.6c.5-.2 1-.3 1.5-.5l11.5-20.1zm0-53v-8L369.7 512h4.6l43.1-74.6zm0-38v-2L351.3 512h1.2l64.9-112.6zm0-8v-4L345.5 512h2.3l69.6-120.6zm0 60v-8L377.8 512h4.6l35-60.6zm0-319v-8L193.6 512h4.6l219.2-379.6zm0-59v-2L163 512h1.2L417.4 73.4zm0-21v-2L150.9 512h1.2L417.4 52.4zm0 30v-3L167.7 512h1.7l248-429.6zm0 10v-4L172.9 512h2.3L417.4 92.4zm0-48v-3L145.7 512h1.7l270-467.6zm0-19v-6L133 512h3.5L417.4 25.4zm0 79v-6L178.6 512h3.5l235.3-407.6zm0 150v-4L266.4 512h2.3l148.7-257.6zm0-219v-4L140 512h2.3L417.4 35.4zm0 197v-8L251.4 512h4.6l161.4-279.6zm0-14v-8L243.3 512h4.6l169.5-293.6zm0 26v-6L259.5 512h3.5l154.4-267.6zm0-64v-2L224.8 512h1.2l191.4-331.6zm0-18v-2L214.4 512h1.2l201.8-349.6zm-.6-148c-.4-1.7-1.1-3.3-1.9-4.7L124.9 512h4.6L416.8 14.4zm.6 104v-8L185.6 512h4.6l227.2-393.6zm0 54v-4L219 512h2.3l196.1-339.6z" opacity=".7" fill="#35965f"/></svg>