<svg version="1.1" xmlns="http://www.w3.org/2000/svg" x="0" y="0" viewBox="0 0 512 512" xml:space="preserve"><style type="text/css">.st1{opacity:.15;fill:#444;enable-background:new}.st2{fill:#a18267}.st3{opacity:.6;fill:#36434f}</style><circle cx="256" cy="256" r="256" fill="#ad403b"/><path class="st1" d="M256 0c-15.2 0-30 1.3-44.4 3.9L59.9 420.5c14.9 17.7 32.1 33.4 51.2 46.5L280.6 1.2C272.5.4 264.3 0 256 0zM17.3 163.4L13.4 174C4.7 199.7 0 227.3 0 256c0 33 6.3 64.6 17.6 93.5L133.5 31.2C80.7 60 39.2 106.8 17.3 163.4zm477.1-.9c-10.2-26-24.6-49.9-42.3-71L300.4 508.1c27.8-4.9 54.1-14.2 78-27.3l116-318.3zM400.9 45c-17.6-12.1-36.9-22.1-57.3-29.6L168.4 496.6c19.9 7.3 41 12.1 62.9 14.2L400.9 45z"/><circle class="st2" cx="256" cy="256" r="66"/><circle class="st1" cx="256" cy="256" r="40.5"/><circle class="st3" cx="256" cy="256" r="19.5"/><circle class="st3" cx="256" cy="203.5" r="5"/><ellipse class="st3" cx="282.3" cy="210.5" rx="5" ry="5"/><path class="st3" d="M304 234.1c2.4-1.4 3.2-4.4 1.8-6.8-1.4-2.4-4.4-3.2-6.8-1.8s-3.2 4.4-1.8 6.8c1.3 2.3 4.4 3.2 6.8 1.8z"/><circle class="st3" cx="308.5" cy="256" r="5"/><path class="st3" d="M304 277.9c-2.4-1.4-5.4-.6-6.8 1.8s-.6 5.4 1.8 6.8 5.4.6 6.8-1.8c1.4-2.3.6-5.4-1.8-6.8zm-24.2 19.2c-2.4 1.4-3.2 4.4-1.8 6.8 1.4 2.4 4.4 3.2 6.8 1.8 2.4-1.4 3.2-4.4 1.8-6.8-1.4-2.3-4.5-3.1-6.8-1.8z"/><circle class="st3" cx="256" cy="308.5" r="5"/><path class="st3" d="M232.2 297.1c-2.4-1.4-5.4-.6-6.8 1.8-1.4 2.4-.6 5.4 1.8 6.8 2.4 1.4 5.4.6 6.8-1.8 1.5-2.3.6-5.4-1.8-6.8zM208 277.9c-2.4 1.4-3.2 4.4-1.8 6.8s4.4 3.2 6.8 1.8c2.4-1.4 3.2-4.4 1.8-6.8-1.3-2.3-4.4-3.2-6.8-1.8z"/><circle class="st3" cx="203.5" cy="256" r="5"/><path class="st3" d="M213 225.4c-2.4-1.4-5.4-.6-6.8 1.8-1.4 2.4-.6 5.4 1.8 6.8 2.4 1.4 5.4.6 6.8-1.8 1.4-2.3.6-5.4-1.8-6.8z"/><ellipse class="st3" cx="229.7" cy="210.5" rx="5" ry="5"/><path class="st2" d="M256 20c31.9 0 62.8 6.2 91.9 18.5 28.1 11.9 53.3 28.9 75 50.6s38.7 46.9 50.6 75c12.3 29.1 18.5 60 18.5 91.9s-6.2 62.8-18.5 91.9c-11.9 28.1-28.9 53.3-50.6 75s-46.9 38.7-75 50.6c-29.1 12.3-60 18.5-91.9 18.5s-62.8-6.2-91.9-18.5c-28.1-11.9-53.3-28.9-75-50.6s-38.7-46.9-50.6-75C26.2 318.8 20 287.9 20 256s6.2-62.8 18.5-91.9c11.9-28.1 28.9-53.3 50.6-75s46.9-38.7 75-50.6C193.2 26.2 224.1 20 256 20m0-20C114.6 0 0 114.6 0 256s114.6 256 256 256 256-114.6 256-256S397.4 0 256 0z"/><path class="st1" d="M0 256c0 141.4 114.6 256 256 256V0C114.6 0 0 114.6 0 256z"/></svg>