<svg version="1.1" xmlns="http://www.w3.org/2000/svg" x="0" y="0" viewBox="0 0 512 512" xml:space="preserve"><style type="text/css">.st0{fill:#a18267}.st1{opacity:.15;fill:#444}.st2{fill:#36434f}</style><path class="st0" d="M404 67H108c-2.2 0-4-1.8-4-4V47c0-2.2 1.8-4 4-4h296c2.2 0 4 1.8 4 4v16c0 2.2-1.8 4-4 4z"/><path class="st1" d="M326 43h40v24h-40z"/><circle class="st2" cx="331.5" cy="55" r="3"/><circle class="st2" cx="360.5" cy="55" r="3"/><path class="st1" d="M146 43h40v24h-40z"/><circle class="st2" cx="151.5" cy="55" r="3"/><circle class="st2" cx="180.5" cy="55" r="3"/><path class="st0" d="M404 134H108c-2.2 0-4-1.8-4-4v-16c0-2.2 1.8-4 4-4h296c2.2 0 4 1.8 4 4v16c0 2.2-1.8 4-4 4z"/><path class="st1" d="M326 110h40v24h-40z"/><circle class="st2" cx="331.5" cy="122" r="3"/><circle class="st2" cx="360.5" cy="122" r="3"/><path class="st1" d="M146 110h40v24h-40z"/><circle class="st2" cx="151.5" cy="122" r="3"/><circle class="st2" cx="180.5" cy="122" r="3"/><path class="st0" d="M404 201H108c-2.2 0-4-1.8-4-4v-16c0-2.2 1.8-4 4-4h296c2.2 0 4 1.8 4 4v16c0 2.2-1.8 4-4 4z"/><path class="st1" d="M326 177h40v24h-40z"/><circle class="st2" cx="331.5" cy="189" r="3"/><circle class="st2" cx="360.5" cy="189" r="3"/><path class="st1" d="M146 177h40v24h-40z"/><circle class="st2" cx="151.5" cy="189" r="3"/><circle class="st2" cx="180.5" cy="189" r="3"/><path class="st0" d="M404 268H108c-2.2 0-4-1.8-4-4v-16c0-2.2 1.8-4 4-4h296c2.2 0 4 1.8 4 4v16c0 2.2-1.8 4-4 4z"/><path class="st1" d="M326 244h40v24h-40z"/><circle class="st2" cx="331.5" cy="256" r="3"/><circle class="st2" cx="360.5" cy="256" r="3"/><path class="st1" d="M146 244h40v24h-40z"/><circle class="st2" cx="151.5" cy="256" r="3"/><circle class="st2" cx="180.5" cy="256" r="3"/><path class="st0" d="M404 335H108c-2.2 0-4-1.8-4-4v-16c0-2.2 1.8-4 4-4h296c2.2 0 4 1.8 4 4v16c0 2.2-1.8 4-4 4z"/><path class="st1" d="M326 311h40v24h-40z"/><circle class="st2" cx="331.5" cy="323" r="3"/><circle class="st2" cx="360.5" cy="323" r="3"/><path class="st1" d="M146 311h40v24h-40z"/><circle class="st2" cx="151.5" cy="323" r="3"/><circle class="st2" cx="180.5" cy="323" r="3"/><path class="st0" d="M404 402H108c-2.2 0-4-1.8-4-4v-16c0-2.2 1.8-4 4-4h296c2.2 0 4 1.8 4 4v16c0 2.2-1.8 4-4 4z"/><path class="st1" d="M326 378h40v24h-40z"/><circle class="st2" cx="331.5" cy="390" r="3"/><circle class="st2" cx="360.5" cy="390" r="3"/><path class="st1" d="M146 378h40v24h-40z"/><circle class="st2" cx="151.5" cy="390" r="3"/><circle class="st2" cx="180.5" cy="390" r="3"/><path class="st0" d="M404 469H108c-2.2 0-4-1.8-4-4v-16c0-2.2 1.8-4 4-4h296c2.2 0 4 1.8 4 4v16c0 2.2-1.8 4-4 4z"/><path class="st1" d="M326 445h40v24h-40z"/><circle class="st2" cx="331.5" cy="457" r="3"/><circle class="st2" cx="360.5" cy="457" r="3"/><path class="st1" d="M146 445h40v24h-40z"/><circle class="st2" cx="151.5" cy="457" r="3"/><circle class="st2" cx="180.5" cy="457" r="3"/><path d="M157 0h18v512h-18zm180 0h18v512h-18z" fill="#bbb"/></svg>