<svg version="1.1" xmlns="http://www.w3.org/2000/svg" x="0" y="0" viewBox="0 0 512 512" xml:space="preserve"><path fill="#038387" d="M263 246.1c-16.1-4.3-26.8 15.5-30.2 24.2-3.4 8.8-4.1 35.5-12.4 46.3s-27.7 27.1-44 47.5c-4.9 6.1-10.4 14.3-15.7 22.7-9.2 11.8-17.7 26.7-23.7 40.6-.9 2.1-1.7 4.2-2.5 6.2-14.7 39.2-5.3 69.9 21.4 77 26.7 7.1 50.1-14.8 57-56 .4-2.1.7-4.3 1-6.6.7-5.4 1.1-11.2 1.3-16.9 2-19.8 6.6-51.6 16.9-66.1 15.5-21.7 23.4-27.1 29.2-36.4 5.7-9.3 13.6-26.5 17.2-43.9 2.8-13.6.6-34.3-15.5-38.6zM203.3 444c-3.5 34.5-21.5 56.3-43 50.6-21.5-5.8-26.1-33.7-11.9-65.3 10.2-22.7 29.6-47.5 41.3-44.4 11.7 3.2 16.1 34.3 13.6 59.1z"/><path fill="#4B5D6B" d="M245.9 277.8c-5.5-1.5-8.8-7.2-7.4-12.8L308.1 5.5c1.5-5.5 3.6-6.9 4.6-3.1s1.8 11.7 1.7 17.4c0 0-1 46.4-13.4 120.7s-24 134.8-24 134.8c-1.1 5.6-6.5 9-12 7.5l-19.1-5z"/><path fill="#4B5D6B" d="M231.4 314.2l7.1 25.6s24.2-25.9 28.3-33.4c4.2-7.5 10.4-30.6 10.4-30.6L239 265.5s-.8 31.1-2.4 37.1c-1.6 6.1-5.2 11.6-5.2 11.6z"/><path fill="#36434F" d="M266.1 277.5c5.5-1.5 8.8-7.2 7.4-12.8L203.9 5.3c-1.5-5.5-3.6-6.9-4.6-3.1s-1.8 11.7-1.7 17.4c0 0 1 46.4 13.4 120.7s24 134.8 24 134.8c1.1 5.6 6.5 9 12 7.5l19.1-5.1z"/><path fill="#4DB7AD" d="M377.4 433.4c-.8-2-1.6-4.1-2.5-6.2-5.9-14-14.4-28.8-23.7-40.6-5.3-8.4-10.8-16.6-15.7-22.7-16.3-20.4-35.7-36.8-44-47.5s-9-37.5-12.4-46.3-14.1-28.6-30.2-24.2c-16.1 4.3-18.3 25-15.5 38.7 3.6 17.4 11.4 34.7 17.2 43.9 5.7 9.3 13.6 14.7 29.2 36.4 10.3 14.4 15 46.3 16.9 66.1.2 5.8.6 11.5 1.3 16.9.3 2.3.6 4.5 1 6.6 6.9 41.3 30.4 63.2 57 56 26.7-7.2 36-38 21.4-77.1zm-25.7 60.9c-21.5 5.8-39.5-16.1-43-50.6-2.5-24.8 1.9-55.9 13.6-59.1 11.7-3.1 31.1 21.6 41.3 44.4 14.2 31.6 9.6 59.5-11.9 65.3z"/><circle fill="#038387" cx="255.5" cy="276.4" r="16.1"/><path opacity=".15" fill="#444" d="M256 199.6L203.9 5.3c-1.5-5.5-3.6-6.9-4.6-3.1s-1.8 11.7-1.7 17.4c0 0 1 46.4 13.4 120.7 9.5 56.8 18.5 105.6 22.2 125.4-.3 1.8-.5 3.5-.6 5.3-3.2 9.4-4.1 35.1-12.2 45.6-8.3 10.7-27.7 27.1-44 47.5-4.9 6.1-10.4 14.3-15.7 22.7-9.2 11.8-17.7 26.7-23.7 40.6-.9 2.1-1.7 4.2-2.5 6.2-14.7 39.2-5.3 69.9 21.4 77 26.7 7.1 50.1-14.8 57-56 .4-2.1.7-4.3 1-6.6.7-5.4 1.1-11.2 1.3-16.9 2-19.8 6.6-51.6 16.9-66.1 11.2-15.7 18.5-22.9 23.8-29.2V199.6h.1zM203.3 444c-3.5 34.5-21.5 56.3-43 50.6-21.5-5.8-26.1-33.7-11.9-65.3 10.2-22.7 29.6-47.5 41.3-44.4 11.7 3.2 16.1 34.3 13.6 59.1z"/></svg>