<svg version="1.1" xmlns="http://www.w3.org/2000/svg" x="0" y="0" viewBox="0 0 512 512" xml:space="preserve"><path d="M396 55.5v-1H116v1S149 76 151 105s-31 53-31 53v1h272v-1s-33-24-31-53 35-49.5 35-49.5z" fill="#4b5d6b"/><path d="M392 512H120c-17.7 0-32-14.3-32-32V190c0-17.7 14.3-32 32-32h272c17.7 0 32 14.3 32 32v290c0 17.7-14.3 32-32 32zm4.5-456.5H116c-15.4 0-28-12.5-28-28s12.6-28 28-28L396 0c15.4 0 28 12.6 28 28 0 15.2-12.3 27.5-27.5 27.5zm-248 66.3c1.9-5.3 2.9-10.9 2.5-16.8-.3-4.7-1.4-9.1-3.1-13.3h216.2c-1.7 4.2-2.8 8.6-3.1 13.3-.4 5.8.6 11.5 2.5 16.8h-215zM145.7 87h220.5c1.3-2.4 2.7-4.8 4.2-7h-229c1.6 2.2 3.1 4.6 4.3 7zm223.8 46.8h-227c1.4-2.2 2.7-4.6 3.9-7h219.2c1.1 2.4 2.4 4.7 3.9 7z" fill="#36434f"/><path d="M348.1 187c-4.7 0-8.6 3.9-8.6 8.6v188.8c0 4.7 3.9 8.6 8.6 8.6s8.6-3.9 8.6-8.6V195.6c0-4.7-3.8-8.6-8.6-8.6zm0 236c-4.7 0-8.6 3.9-8.6 8.6v42.8c0 4.7 3.9 8.6 8.6 8.6s8.6-3.9 8.6-8.6v-42.8c0-4.7-3.8-8.6-8.6-8.6zm0-410.5c-4.7 0-8.6 3.9-8.6 8.6v12.8c0 4.7 3.9 8.6 8.6 8.6s8.6-3.9 8.6-8.6V21.1c0-4.7-3.8-8.6-8.6-8.6z" opacity=".15" fill="#f4f4f4"/><path d="M111 0C97.9 2.4 88 13.8 88 27.5c0 15.4 12.5 28 28 28 0 0 23.3 14.5 31.9 36.3.1.3.3.7.4 1 .1.4.3.8.4 1.1.1.3.2.6.3 1 .2.6.4 1.3.6 1.9.1.3.1.5.2.8.1.6.3 1.1.4 1.7 0 .2.1.3.1.5.1.7.3 1.5.4 2.2 0 .2.1.4.1.6.1.8.2 1.6.2 2.4.1.8.1 1.6.1 2.5v.9c0 .5 0 1-.1 1.5 0 .4-.1.7-.1 1.1s-.1.8-.1 1.2c-.1.4-.1.8-.2 1.2 0 .3-.1.5-.1.8-.3 1.8-.8 3.7-1.3 5.4v.1c-.2.7-.4 1.3-.7 2C141 142.7 120 158 120 158c-17.7 0-32 14.3-32 32v290c0 17.7 14.3 32 32 32h136V0H111z" opacity=".15" fill="#444"/></svg>