<svg version="1.1" xmlns="http://www.w3.org/2000/svg" x="0" y="0" viewBox="0 0 512 512" xml:space="preserve"><style type="text/css">.st0{fill:#bbb}.st2{fill:#4c3734}</style><path class="st0" d="M256 496h-4l3 15.1c.2 1.1 1.7 1.1 2 0l3-15.1h-4z"/><path d="M256 449h-12v11.6c0 2.9.4 5.9 1.1 8.7L252 497h8l6.9-27.7c.7-2.9 1.1-5.8 1.1-8.7V449h-12z" fill="#7193ad"/><path class="st2" d="M256 512c-.6 0-1-.5-1-1s.4-1 1-1c.5 0 1 .5 1 1s-.5 1-1 1z"/><path d="M267 450h-22c-2.2 0-4-1.8-4-4V62h30v384c0 2.2-1.8 4-4 4z" fill="#ddd"/><path class="st0" d="M251.5 13h9v105h-9z"/><path class="st2" d="M251.5 117h9v333h-9z"/><path d="M240 336h32v96h-32zm31-273h-30V8c0-4.4 3.6-8 8-8h14c4.4 0 8 3.6 8 8v55z" fill="#cc584c"/><path d="M249 0c-4.4 0-8 3.6-8 8v328h-1v96h1v14c0 1.9 1.3 3.4 3 3.9v10.7c0 2.9.4 5.9 1.1 8.7L252 497h.2l2.8 14.1c.1.5.5.9 1 .9V0h-7z" opacity=".15" fill="#444"/></svg>