<svg version="1.1" xmlns="http://www.w3.org/2000/svg" x="0" y="0" viewBox="0 0 512 512" xml:space="preserve"><style type="text/css">.st0{fill:#bbb}.st3{fill:#4c3734}.st4{fill:#cc584c}</style><path class="st0" d="M256 482.5h-7.4l4.6 27.8c.4 2 5.2 2 5.6 0l4.6-27.8H256z"/><path d="M256 395.8h-22.1v21.3c0 5.4.7 10.8 2 16.1l12.8 51.1h14.8l12.8-51.1c1.3-5.3 2-10.7 2-16.1v-21.3H256z" fill="#7193ad"/><path d="M279.7 397.7h-47.3c-2.2 0-4-1.8-4-4V58h55.3v335.7c0 2.2-1.8 4-4 4z" fill="#ddd"/><path class="st3" d="M247.7 113h16.6v284.7h-16.6z"/><path class="st4" d="M226.5 217.5h59v147h-59z"/><path class="st0" d="M247.7 12.6h16.6V114h-16.6z"/><path class="st4" d="M283.7 60.9h-55.3V8c0-4.4 3.6-8 8-8h39.3c4.4 0 8 3.6 8 8v52.9z"/><circle class="st3" cx="256" cy="508" r="4"/><path d="M236.3 0c-4.4 0-8 3.6-8 8v209.5h-1.8v147h1.8v29.2c0 2.2 1.8 4 4 4h1.5v19.5c0 5.4.7 10.8 2 16.1l12.8 51.1h.3l3.6 21.8c-.3.6-.5 1.2-.5 1.9 0 2.2 1.8 4 4 4V0h-19.7z" opacity=".15" fill="#444"/></svg>