<svg version="1.1" xmlns="http://www.w3.org/2000/svg" x="0" y="0" viewBox="0 0 512 512" xml:space="preserve"><style type="text/css">.st0{fill:#36434f}</style><path class="st0" d="M420.2 84h13.2L362.8 1.7c-1.8-2.1-5-2.3-7.1-.5-2.1 1.8-2.3 5-.5 7.1l65 75.7zM91.8 84l65-75.7c1.8-2.1 1.6-5.3-.5-7.1-2.1-1.8-5.3-1.6-7.1.5L78.6 84h13.2zM442 512H63c-8.8 0-16-7.2-16-16V214.9h411V496c0 8.8-7.2 16-16 16z"/><path d="M458 215.8H47V92c0-8.8 7.2-16 16-16h379c8.8 0 16 7.2 16 16v123.8z" fill="#ffa000"/><path fill="#ddd" d="M47 229.8h411v27.3H47z"/><path class="st0" d="M70 111h28v4H70z"/><path class="st0" d="M82 127V99h4v28zm325-16h28v4h-28z"/></svg>