<svg xmlns="http://www.w3.org/2000/svg" viewBox="0 0 512 512" xml:space="preserve"><path d="M450.5 52.2c-68-9.4-133.4-27.2-195-52.2C234 8.7 212 16.5 189.7 23.4c-19.4 6-39.2 11.3-59.2 15.9-23 5.3-46.4 9.6-70 12.8-.3 9.9-.5 19.7-.5 29.6 0 14.5.3 29 .9 43.3.9 21.3 2.5 42.5 4.8 63.5 2.2 20 4.9 39.8 8.3 59.3 3.2 18.5 6.8 36.8 11 54.9.5 2.4 1.1 4.8 1.7 7.1 5.3 20.4 13.1 39.9 23.2 58.2 9.8 17.9 21.9 34.6 35.8 49.8 2.1 2.3 4.2 4.5 6.4 6.7 31.8 32 66.4 61.3 103.3 87.4 36.9-26.1 71.5-55.4 103.3-87.4 33.3-33.5 56.6-75.8 67.2-121.8 16.4-71 25-145 25-221.1.1-9.8-.1-19.6-.4-29.4z" fill="#bbb"/><path d="M255.5 27.7c55.3 21.7 112.8 37.4 171.5 47v8.8c0 72.8-8.2 145.4-24.4 215.7-9.6 41.8-30.7 79.9-60.8 110.3-26.8 27-55.7 52-86.3 74.7-30.5-22.7-59.5-47.7-86.3-74.7-30.1-30.4-51.2-68.5-60.8-110.3C92.2 229 84 156.4 84 83.6v-8.8c58.7-9.6 116.2-25.4 171.5-47.1" fill="#e0ac7e"/><path d="M85.1 74.6 84 75.7v7.9c0 32 1.6 63.9 4.7 95.6L130 65.9c-14.9 3.3-29.8 6.2-44.9 8.7zm192-38.7c-7.2-2.6-14.5-5.3-21.6-8.1-16.4 6.4-33.1 12.3-49.9 17.7L110.4 307c7.7 29 21 56 39.1 79.8L277.1 35.9zm125.5 263.4c7-30.3 12.5-60.9 16.5-91.9l-71.4 196c27-29.3 45.9-65.1 54.9-104.1zM198.9 437.9c3.5 3.2 7.1 6.3 10.7 9.5 13.5 11.7 27.4 23 41.7 33.7l149.6-411c-21.1-4.1-42-9.1-62.7-14.8L198.9 437.9z" opacity=".15" fill="#444"/><path d="M262 13.9c0 3.3-2.7 6-6 6s-6-2.7-6-6 2.7-6 6-6 6 2.7 6 6zm-6 478.2c-3.3 0-6 2.7-6 6s2.7 6 6 6 6-2.7 6-6-2.7-6-6-6zM199 35.8c0-3.3-2.7-6-6-6s-6 2.7-6 6 2.7 6 6 6 6-2.7 6-6zm-66 10.1c-3.3 0-6 2.7-6 6s2.7 6 6 6 6-2.7 6-6-2.7-6-6-6zM73.2 70.5c3.3 0 6-2.7 6-6s-2.7-6-6-6-6 2.7-6 6 2.7 6 6 6zm5.7 54c0-3.3-2.7-6-6-6s-6 2.7-6 6 2.7 6 6 6 6-2.7 6-6zm4.5 62.8c0-3.3-2.7-6-6-6s-6 2.7-6 6 2.7 6 6 6 6-2.7 6-6zm2.3 52.6c-3.3 0-6 2.7-6 6s2.7 6 6 6 6-2.7 6-6-2.7-6-6-6zm12.5 61c-3.3 0-6 2.7-6 6s2.7 6 6 6 6-2.7 6-6-2.7-6-6-6zm21.8 55.6c-3.3 0-6 2.7-6 6s2.7 6 6 6 6-2.7 6-6-2.6-6-6-6zm34.1 47.6c-3.3 0-6 2.7-6 6s2.7 6 6 6 6-2.7 6-6-2.7-6-6-6zm48.1 45.7c-3.3 0-6 2.7-6 6s2.7 6 6 6 6-2.7 6-6-2.7-6-6-6zM319 29.8c-3.3 0-6 2.7-6 6s2.7 6 6 6 6-2.7 6-6-2.7-6-6-6zm60 16.1c-3.3 0-6 2.7-6 6s2.7 6 6 6 6-2.7 6-6-2.7-6-6-6zm59.8 24.6c3.3 0 6-2.7 6-6s-2.7-6-6-6-6 2.7-6 6 2.6 6 6 6zm.3 48c-3.3 0-6 2.7-6 6s2.7 6 6 6 6-2.7 6-6-2.7-6-6-6zm-4.5 62.8c-3.3 0-6 2.7-6 6s2.7 6 6 6 6-2.7 6-6-2.7-6-6-6zm-8.3 58.6c-3.3 0-6 2.7-6 6s2.7 6 6 6 6-2.7 6-6-2.7-6-6-6zm-12.5 61c-3.3 0-6 2.7-6 6s2.7 6 6 6 6-2.7 6-6-2.7-6-6-6zM392 356.5c-3.3 0-6 2.7-6 6s2.7 6 6 6 6-2.7 6-6-2.7-6-6-6zm-34.1 47.6c-3.3 0-6 2.7-6 6s2.7 6 6 6 6-2.7 6-6-2.7-6-6-6zm-48.1 45.7c-3.3 0-6 2.7-6 6s2.7 6 6 6 6-2.7 6-6-2.7-6-6-6z" fill="#999"/></svg>