<svg version="1.1" xmlns="http://www.w3.org/2000/svg" x="0" y="0" viewBox="0 0 512 512" xml:space="preserve"><path d="M313 0H199c-24.9 0-45 20.1-45 45v137c0 24.9 20.1 45 45 45h1c3.9 0 7 3.1 7 7v66c0 3.9 3.1 7 7 7 3.3 0 6 2.7 6 6v11l8 8v11l-8 8v34.5l8 8v13.2l-8 8v13l8.2 8.2-8.2 8.1v25.9c0 6.6 2.7 12.9 7.5 17.4l24.4 23c2.3 2.2 5.9 2.2 8.2 0l24.4-23c4.8-4.5 7.5-10.8 7.5-17.4v-20.7l-8.5-8.5v-9l8.5-8.5v-9.8l-7.5-7.5 7.5-7.5v-7.6l-7.9-7.9v-7.4l7.9-7.9v-8.2l-8-8v-21.8l8-8V313c0-3.3 2.7-6 6-6 3.9 0 7-3.1 7-7v-66c0-3.9 3.1-7 7-7h1c24.9 0 45-20.1 45-45V45c0-24.9-20.1-45-45-45zm-57 95.5c-16.6 0-30-13.4-30-30s13.4-30 30-30 30 13.4 30 30-13.4 30-30 30z" fill="#ddd"/><path d="M256 100.5c-19.3 0-35-15.7-35-35s15.7-35 35-35 35 15.7 35 35-15.7 35-35 35zm0-60c-13.8 0-25 11.2-25 25s11.2 25 25 25 25-11.2 25-25-11.2-25-25-25zM277.3 269H294v39.5c-1.2 1.1-2 2.7-2 4.5v8.5l-8 8v21.8l8 8v8.2l-7.9 7.9v7.4l7.9 7.9v7.6l-7.5 7.5 7.5 7.5v9.8l-8.5 8.5v9l8.5 8.5v20.7c0 6.6-2.7 12.9-7.5 17.4l-7.1 6.7V269zM263 287h-16.7v218.1l5.5 5.2c2.3 2.2 5.9 2.2 8.2 0l2.9-2.7V287z" fill="#36434f"/><path d="M231 65.5c0-13.8 11.2-25 25-25V0h-57c-24.9 0-45 20.1-45 45v137c0 24.9 20.1 45 45 45h1c3.9 0 7 3.1 7 7v66c0 3.9 3.1 7 7 7 3.3 0 6 2.7 6 6v11l8 8v11l-8 8v34.5l8 8v13.2l-8 8v13l8.2 8.2-8.2 8.1v25.9c0 6.6 2.7 12.9 7.5 17.4l18.8 17.8 5.5 5.2c1.2 1.1 2.6 1.6 4.1 1.6V90.5c-13.7 0-24.9-11.2-24.9-25z" opacity=".15" fill="#444"/></svg>