<svg xmlns="http://www.w3.org/2000/svg" viewBox="0 0 512 512" xml:space="preserve"><style>.st2{opacity:.5;fill:#f4f4f4;enable-background:new}.st3{fill:#2e86b7}</style><path d="m0 261 192 164 260-141 60-202-274 141L0 261z" fill="#4fc3f7"/><path d="m238 223-46 202 260-141-214-61z" fill="#2f9fd1"/><path class="st2" d="m321.3 296.8 1.4-1.6-82.4-71.6-2.3-.6-.3 1.1 83.6 72.7z"/><path class="st3" d="m282 176 132 80-186 80 54-160z"/><path class="st2" d="m321 296 1.8-.8-39.5-118.4-1.3-.8-.5 1.6L321 296z"/><path d="m0 261 414-5-222 169L0 261zM512 82l-98 174 38 28 60-202z" fill="#29b6f6"/><path class="st3" d="M414 256 192 425l260-141-38-28z"/></svg>