<svg version="1.1" xmlns="http://www.w3.org/2000/svg" x="0" y="0" viewBox="0 0 512 512" xml:space="preserve"><path d="m459.8 479.2-11.5-18.7c-10.7-17.4-17.5-37-19.7-57.4L413 263.5c-5.1-45.3-30.2-85.9-68.4-110.6L292 108l-36-2-36 2-52.6 44.9C129.1 177.6 104 218.2 99 263.5L83.4 403.1c-2.3 20.3-9 39.9-19.7 57.4l-11.5 18.7c-8.8 14.3 1.5 32.8 18.3 32.8h371c16.8 0 27.1-18.5 18.3-32.8zM327.7 1.5 301.1 0c-5.4-.3-10.4 2.9-12.4 7.9l-3.1 7.7c-.9 2.2-3.2 3.5-5.6 3L267.6 16c-7.6-1.6-15.5-1.6-23.1 0L232 18.7c-2.3.5-4.7-.8-5.6-3l-3-7.7c-2-5-7-8.2-12.4-7.9l-26.6 1.4c-15.9.9-24.1 19.4-14 31.7L220 94l1 1.5h70l1-1.5 49.6-60.8c10.1-12.3 2-30.9-13.9-31.7z" fill="#e0ac7e"/><path d="M329 368.5H183c-3.3 0-6-2.7-6-6v-73c0-3.3 2.7-6 6-6h146c3.3 0 6 2.7 6 6v73c0 3.3-2.7 6-6 6z" fill="#ffcc80"/><path d="M341.9 17.6c-7 7-17.3 11.4-28.9 11.4-10.5 0-20-3.6-26.9-9.5-1-.9-1.3-2.3-.7-3.5 0-.1.1-.2.1-.3l3.1-7.7c2-5 7-8.2 12.4-7.9l26.6 1.4c6.6.4 11.8 3.7 15 8.4 1.7 2.4 1.4 5.6-.7 7.7zm-115.4-1.9L223.4 8c-2-5-7-8.2-12.4-7.9l-26.6 1.4c-6.6.4-11.8 3.7-15 8.4-1.6 2.4-1.3 5.6.8 7.7 7 7 17.3 11.4 28.9 11.4 10.5 0 20-3.6 26.9-9.5 1-.9 1.3-2.3.7-3.5-.2-.1-.2-.2-.2-.3z" opacity=".3" fill="#fff"/><path d="m455.5 259.2-22.2-58.8c-13.2-35-42.1-63.7-81.5-80.9L291.3 93h-70.6l-60.5 26.5c-39.4 17.2-68.3 45.9-81.5 80.9l-22.2 58.8c-1.6 4.1.5 8.7 4.7 10.3.9.3 1.9.5 2.8.5 3.2 0 6.3-2 7.5-5.2L93.7 206c11.6-30.9 37.5-56.4 72.9-71.9L224 109h64l57.5 25.1c35.4 15.5 61.3 41 72.9 71.9l22.2 58.8c1.2 3.2 4.3 5.2 7.5 5.2.9 0 1.9-.2 2.8-.5 4.1-1.6 6.1-6.2 4.6-10.3z" fill="#cc584c"/><path d="M244.4 16 232 18.7c-2.3.5-4.7-.8-5.6-3l-3-7.7c-2-5-7-8.2-12.4-7.9l-26.6 1.4c-.5 0-.9.1-1.4.1-.1 0-.3 0-.4.1-.3 0-.6.1-.9.1-.2 0-.3.1-.5.1-.3.1-.6.1-.8.2-.2 0-.3.1-.5.1l-.9.3c-.1 0-.2.1-.4.1-.4.1-.8.3-1.2.5-.1 0-.1.1-.2.1-.3.1-.6.3-.9.4-.1.1-.3.1-.4.2-.2.1-.5.3-.7.4-.1.1-.3.2-.4.2-.2.1-.4.3-.6.4-.1.1-.2.2-.4.3-.2.2-.5.4-.7.5-.1.1-.2.1-.3.2-.3.3-.6.5-.9.8l-.2.2-.6.6-.3.3c-.2.2-.3.4-.5.6-.1.1-.2.3-.3.4-.2.2-.3.4-.4.6-.1.1-.2.2-.3.4l-.1.1v.1c-4.5 6.7-4.8 16 1.1 23.2l49.2 60.3-59.4 26c-39.4 17.2-68.3 45.9-81.5 80.9l-22.2 58.8c-1.6 4.1.5 8.7 4.7 10.3.9.3 1.9.5 2.8.5 3.2 0 6.3-2 7.5-5.2L93.7 206c11.6-30.9 37.5-56.4 72.9-71.9l46.8-20.5-45.9 39.3c-38.3 24.7-63.4 65.3-68.4 110.6L83.4 403.1c-2.3 20.3-9 39.9-19.7 57.4l-11.5 18.7c-8.8 14.3 1.5 32.8 18.3 32.8H257V14.8c-4.2-.1-8.4.3-12.6 1.2z" opacity=".15" fill="#444"/></svg>