<svg version="1.1" xmlns="http://www.w3.org/2000/svg" x="0" y="0" viewBox="0 0 512 512" xml:space="preserve"><style type="text/css">.st0{fill:#36434f}.st2{fill:#f4f4f4}</style><path class="st0" d="M467 507c0 2.8-2.3 5-5 5H50c-2.8 0-5-2.3-5-5V177c0-2.8 2.3-5 5-5h412c2.8 0 5 2.3 5 5v330z"/><path d="M436 482c0 2.8-2.3 5-5 5H81c-2.8 0-5-2.3-5-5V202c0-2.8 2.3-5 5-5h350c2.8 0 5 2.3 5 5v280z" fill="#eec646"/><path class="st2" d="M207.5 214h-58c2.8 0 6.3-1.9 7.8-4.1l25.4-37.7c1.5-2.3.5-4.1-2.2-4.1h58c-2.8 0-6.3 1.9-7.8 4.1l-25.4 37.7c-1.5 2.2-.5 4.1 2.2 4.1zm69.8-4.1l25.4-37.7c1.5-2.3 5-4.1 7.8-4.1h-58c2.8 0 3.7 1.9 2.2 4.1l-25.4 37.7c-1.5 2.3-5 4.1-7.8 4.1h58c-2.7 0-3.7-1.9-2.2-4.1zm144 0l25.4-37.7c1.5-2.3 5-4.1 7.8-4.1h-58c2.8 0 3.7 1.9 2.2 4.1l-25.4 37.7c-1.5 2.3-5 4.1-7.8 4.1h58c-2.7 0-3.7-1.9-2.2-4.1zm-72 0l25.4-37.7c1.5-2.3 5-4.1 7.8-4.1h-58c2.8 0 3.7 1.9 2.2 4.1l-25.4 37.7c-1.5 2.3-5 4.1-7.8 4.1h58c-2.7 0-3.7-1.9-2.2-4.1z"/><path class="st0" d="M180.5 168c2.8 0 3.7 1.9 2.2 4.1l-25.4 37.7c-1.5 2.3-5 4.1-7.8 4.1h-106c-2.8 0-5-2.3-5-5v-36c0-2.8 2.3-5 5-5h137zm130 0c-2.8 0-6.3 1.9-7.8 4.1l-25.4 37.7c-1.5 2.3-.5 4.1 2.2 4.1h14c2.8 0 6.3-1.9 7.8-4.1l25.4-37.7c1.5-2.3.5-4.1-2.2-4.1h-14zm-72 0c-2.8 0-6.3 1.9-7.8 4.1l-25.4 37.7c-1.5 2.3-.5 4.1 2.2 4.1h14c2.8 0 6.3-1.9 7.8-4.1l25.4-37.7c1.5-2.3.5-4.1-2.2-4.1h-14zm144 0c-2.8 0-6.3 1.9-7.8 4.1l-25.4 37.7c-1.5 2.3-.5 4.1 2.2 4.1h14c2.8 0 6.3-1.9 7.8-4.1l25.4-37.7c1.5-2.3.5-4.1-2.2-4.1h-14zm72 0c-2.8 0-6.3 1.9-7.8 4.1l-25.4 37.7c-1.5 2.3-.5 4.1 2.2 4.1h45c2.8 0 5-2.3 5-5v-36c0-2.8-2.3-5-5-5h-14z"/><path class="st2" d="M201.8 119.7l-55.5 16.8c2.6-.8 5.5-3.6 6.3-6.2L166 86.8c.8-2.6-.7-4.1-3.3-3.3l55.5-16.8c-2.6.8-5.5 3.6-6.3 6.2l-13.4 43.4c-.8 2.7.7 4.2 3.3 3.4zm65.6-24.2l13.4-43.4c.8-2.6 3.6-5.4 6.3-6.2l-55.5 16.8c2.6-.8 4.1.7 3.3 3.3l-13.4 43.4c-.8 2.6-3.6 5.4-6.3 6.2l55.5-16.8c-2.6.9-4.1-.6-3.3-3.3zm137.9-41.6l13.4-43.4c.8-2.6 3.6-5.4 6.3-6.2L369.5 21c2.6-.8 4.1.7 3.3 3.3l-13.4 43.4c-.8 2.6-3.6 5.4-6.3 6.2l55.5-16.8c-2.6 1-4.1-.5-3.3-3.2zm-68.9 20.8l13.4-43.4c.8-2.6 3.6-5.4 6.3-6.2l-55.5 16.8c2.6-.8 4.1.7 3.3 3.3l-13.4 43.4c-.8 2.6-3.6 5.4-6.3 6.2L339.7 78c-2.7.9-4.1-.6-3.3-3.3z"/><path class="st0" d="M162.7 83.5c2.6-.8 4.1.7 3.3 3.3l-13.4 43.4c-.8 2.6-3.6 5.4-6.3 6.2L44.8 167.1c-2.6.8-5.4-.7-6.2-3.3l-10.4-34.5c-.8-2.6.7-5.4 3.3-6.2l131.2-39.6zm124.4-37.6c-2.6.8-5.5 3.6-6.3 6.2l-13.4 43.4c-.8 2.6.7 4.1 3.3 3.3l13.4-4c2.6-.8 5.5-3.6 6.3-6.2l13.4-43.4c.8-2.6-.7-4.1-3.3-3.3l-13.4 4zm-68.9 20.8c-2.6.8-5.5 3.6-6.3 6.2l-13.4 43.4c-.8 2.6.7 4.1 3.3 3.3l13.4-4c2.6-.8 5.5-3.6 6.3-6.2L234.9 66c.8-2.6-.7-4.1-3.3-3.3l-13.4 4zm137.9-41.6c-2.6.8-5.5 3.6-6.3 6.2l-13.4 43.4c-.8 2.6.7 4.1 3.3 3.3l13.4-4c2.6-.8 5.5-3.6 6.3-6.2l13.4-43.4c.8-2.6-.7-4.1-3.3-3.3l-13.4 4zM425 4.3c-2.6.8-5.5 3.6-6.3 6.2l-13.4 43.4c-.8 2.6.7 4.1 3.3 3.3l43.1-13c2.6-.8 4.1-3.6 3.3-6.2L444.6 3.6C443.8 1 441-.5 438.4.3l-13.4 4z"/><path opacity=".15" fill="#444" d="M45 214h422v22H45z"/><path d="M53.5 119.6c-2.7 0-5 2.2-4.9 4.9l.9 79c0 2.7 2.3 5 5.1 5h76.9c2.8 0 6.8-1.3 9.1-2.9l1.9-1.3c2.3-1.6 4.1-5.1 4.1-7.9v-7.2c0-2.8-1.5-6.7-3.3-8.8l-48.5-56.6c-1.8-2.1-5.5-3.8-8.3-3.9l-33-.3z" fill="#263642"/><circle class="st2" cx="65.5" cy="191" r="5.5"/><circle class="st2" cx="127.5" cy="191" r="5.5"/><circle class="st2" cx="65.5" cy="135.1" r="5.5"/></svg>