<svg xmlns="http://www.w3.org/2000/svg" viewBox="0 0 512 512" xml:space="preserve"><path d="M398.4 0H113.6c-10.5 0-19 8.5-19 19v474c0 10.5 8.5 19 19 19h284.8c10.5 0 19-8.5 19-19V19c0-10.5-8.5-19-19-19z" fill="#f4f4f4"/><path d="M142.3 55.4h-16.7l-3.2 9.5h-10.1l17.2-46.2h8.8L155.7 65h-10.1l-3.3-9.6zm-14.1-7.7h11.6L134 30.4l-5.8 17.3zm241.5 408.9h16.7l3.2-9.5h10.1l-17.2 46.2h-8.8L356.3 447h10.1l3.3 9.6zm14.1 7.7h-11.6l5.8 17.3 5.8-17.3zm-128.3-249c-9.3 16.4-23.9 30.9-40.2 40.2 16.4 9.3 30.9 23.9 40.2 40.2 9.3-16.4 23.9-30.9 40.2-40.2-8-4.6-15.7-10.4-22.4-17.1-7-7-13.1-14.8-17.8-23.1zM378 403c-4.1 7.2-10.1 13.3-17.4 17.4 7.2 4.1 13.3 10.1 17.4 17.4 4.1-7.2 10.1-13.3 17.4-17.4-3.5-2-6.7-4.4-9.5-7.2-3.1-3-5.8-6.4-7.9-10.2zM134 74.3c-4.1 7.2-10.1 13.3-17.4 17.4 7.2 4.1 13.3 10.1 17.4 17.4 4.1-7.2 10.1-13.3 17.4-17.4-3.6-2.1-6.9-4.6-9.9-7.5-2.9-3-5.4-6.3-7.5-9.9z" fill="#cc584c"/></svg>