<svg version="1.1" xmlns="http://www.w3.org/2000/svg" x="0" y="0" viewBox="0 0 512 512" xml:space="preserve"><style type="text/css">.st0{fill:#eec646}</style><path class="st0" d="M256 58C120.1 58 9 45.6.5 29.9L128 484h256L511.5 29.9C503 45.6 391.9 58 256 58z"/><path d="M256 109c188 0 256-81 256-81L384 484s-110-36-228-179S0 28 0 28s68 81 256 81z" fill="#ffa000"/><path d="M506.8 34c-19 20.4-92.2 85.7-250.8 85.7-77.3 0-134.3-15.5-174.7-33.8C62.5 94.1 61 102.3 61 102.3L128 484s111.6-30.6 236.4-167.8c42.6-46.9 79.4-100.9 109.3-151.8l37.8-134.5c-.8 1.4-2.4 2.8-4.7 4.1z" opacity=".15" fill="#444"/><path d="M17 57.7s47 54 206 61.2h65.8c138.5-7.5 201.7-66.3 218.5-85.1C484.3 47.6 380.6 58 256 58 120.1 58 9 45.6.5 29.9l25 88.9H36L17 57.7z" fill="#e49003"/><path class="st0" d="M256 109C68 109 0 28 0 28l128 456s110-36 228-179S512 28 512 28s-68 81-256 81z"/></svg>