<svg xmlns="http://www.w3.org/2000/svg" viewBox="0 0 512 512" xml:space="preserve"><style>.st1{fill:#36434f}</style><path d="m241.4 169.5-47.3 8.3-26.3-149.6c-2.3-13.1 6.4-25.5 19.5-27.8 13.1-2.3 25.5 6.4 27.8 19.5l26.3 149.6zm69.5 8.4-47.3-8.3L290 19.8C292.3 6.7 304.7-2 317.8.3c13.1 2.3 21.8 14.7 19.5 27.8l-26.4 149.8z" fill="#bbb"/><path class="st1" d="M445.5 221.5c0-48.9-84.8-88.5-189.5-88.5S66.5 172.6 66.5 221.5s84.8-7.8 189.5-7.8 189.5 56.6 189.5 7.8z"/><path d="M385 206.3c-1.5 5.9-20.1 23.6-22.4 35.5-33.1-8.2-59.6-28.1-106.6-28.1s-73.5 20-106.6 28.1c-2.3-11.9-20.9-29.6-22.4-35.5-1.6-6.3-.3-12.8 3.7-17.9 4-5.1 9.9-8 16.4-8H365c6.5 0 12.4 2.9 16.4 8 3.9 5.1 5.2 11.6 3.6 17.9z" fill="#122a3a"/><path d="m358 311.4-2 2.6H156.2l-2.2-2.6c-.6-13.5-1.7-26.1-2.9-37.8l1.5-1.5h207l1.5 1.5c-1.4 11.7-2.4 24.3-3.1 37.8z" fill="#ddd"/><path class="st1" d="M138.5 203.3c-1.5-5.6 2.8-11.1 8.6-11.1H365c5.8 0 10.1 5.5 8.6 11.1-3.4 13.2-8.9 37.8-12.5 70.3H151c-3.6-32.5-9.1-57-12.5-70.3zm247 285.1c4 11.5-4.6 23.6-16.8 23.6H143.3c-12.2 0-20.8-12.1-16.8-23.6 11-31.5 28.1-90.2 28.1-149.6 0-9.5-.2-18.6-.6-27.4h204c-.4 8.8-.6 17.9-.6 27.4 0 59.4 17.1 118.1 28.1 149.6z"/></svg>