<svg version="1.1" xmlns="http://www.w3.org/2000/svg" x="0" y="0" viewBox="0 0 512 512" xml:space="preserve"><style type="text/css">.st1{fill:#a18267}.st2{fill:#66442b}.st4{fill:#ad403b}</style><path fill="#ddc4b0" d="M0 0h512v512H0z"/><path class="st1" d="M502 502H10V10h492v492zm-484-8h476V18H18v476z"/><path class="st1" d="M256 372c-2.2 0-4-1.8-4-4V256c0-2.2 1.8-4 4-4s4 1.8 4 4v112c0 2.2-1.8 4-4 4zm214 59h-44c-2.2 0-4-1.8-4-4v-32c0-2.2 1.8-4 4-4h44c2.2 0 4 1.8 4 4v32c0 2.2-1.8 4-4 4z"/><path class="st1" d="M283 407h172v8H283z"/><path class="st1" d="M360.7 419.5h-41.5c-2.2 0-4-1.8-4-4v-8c0-2.2 1.8-4 4-4h41.5c2.2 0 4 1.8 4 4v8c0 2.2-1.8 4-4 4z"/><ellipse class="st2" cx="428.5" cy="398.2" rx="3.5" ry="3.6"/><ellipse class="st2" cx="467.5" cy="398.2" rx="3.5" ry="3.6"/><ellipse class="st2" cx="428.5" cy="423.8" rx="3.5" ry="3.6"/><ellipse class="st2" cx="467.5" cy="423.8" rx="3.5" ry="3.6"/><path class="st1" d="M41.9 430.7h44c2.2 0 4-1.8 4-4v-32c0-2.2-1.8-4-4-4h-44c-2.2 0-4 1.8-4 4v32c0 2.3 1.8 4 4 4z"/><path class="st1" d="M56.9 406.7h172v8h-172z"/><path class="st1" d="M151.2 419.2h41.5c2.2 0 4-1.8 4-4v-8c0-2.2-1.8-4-4-4h-41.5c-2.2 0-4 1.8-4 4v8c0 2.3 1.8 4 4 4z"/><ellipse class="st2" cx="83.4" cy="397.9" rx="3.5" ry="3.6"/><ellipse class="st2" cx="44.4" cy="397.9" rx="3.5" ry="3.6"/><ellipse class="st2" cx="83.4" cy="423.6" rx="3.5" ry="3.6"/><ellipse class="st2" cx="44.4" cy="423.6" rx="3.5" ry="3.6"/><path class="st1" d="M256 460.6c-1.4 0-2.7-.7-3.4-2l-27.1-45.9c-.7-1.3-.7-2.8 0-4.1l27.1-45.9c.7-1.2 2-2 3.4-2s2.7.7 3.4 2l27.1 45.9c.7 1.3.7 2.8 0 4.1l-27.1 45.9c-.7 1.3-2 2-3.4 2zm-22.4-49.9 22.4 38 22.4-38-22.4-38-22.4 38z"/><ellipse class="st2" cx="229.5" cy="410.7" rx="3.5" ry="3.6"/><ellipse class="st2" cx="282.5" cy="410.7" rx="3.5" ry="3.6"/><ellipse class="st2" cx="256" cy="367.7" rx="3.5" ry="3.6"/><ellipse class="st2" cx="256" cy="453.7" rx="3.5" ry="3.6"/><path class="st1" d="M256 260c-2.2 0-4-1.8-4-4V144c0-2.2 1.8-4 4-4s4 1.8 4 4v112c0 2.2-1.8 4-4 4zM470 81h-44c-2.2 0-4 1.8-4 4v32c0 2.2 1.8 4 4 4h44c2.2 0 4-1.8 4-4V85c0-2.2-1.8-4-4-4z"/><path class="st1" d="M283 97h172v8H283z"/><path class="st1" d="M360.7 92.5h-41.5c-2.2 0-4 1.8-4 4v8c0 2.2 1.8 4 4 4h41.5c2.2 0 4-1.8 4-4v-8c0-2.2-1.8-4-4-4z"/><ellipse class="st2" cx="428.5" cy="113.8" rx="3.5" ry="3.6"/><ellipse class="st2" cx="467.5" cy="113.8" rx="3.5" ry="3.6"/><ellipse class="st2" cx="428.5" cy="88.2" rx="3.5" ry="3.6"/><ellipse class="st2" cx="467.5" cy="88.2" rx="3.5" ry="3.6"/><path class="st1" d="M41.9 81.3h44c2.2 0 4 1.8 4 4v32c0 2.2-1.8 4-4 4h-44c-2.2 0-4-1.8-4-4v-32c0-2.3 1.8-4 4-4z"/><path class="st1" d="M56.9 97.3h172v8h-172z"/><path class="st1" d="M151.2 92.8h41.5c2.2 0 4 1.8 4 4v8c0 2.2-1.8 4-4 4h-41.5c-2.2 0-4-1.8-4-4v-8c0-2.3 1.8-4 4-4z"/><ellipse class="st2" cx="83.4" cy="114.1" rx="3.5" ry="3.6"/><ellipse class="st2" cx="44.4" cy="114.1" rx="3.5" ry="3.6"/><ellipse class="st2" cx="83.4" cy="88.4" rx="3.5" ry="3.6"/><ellipse class="st2" cx="44.4" cy="88.4" rx="3.5" ry="3.6"/><path class="st1" d="M256 151.1c-1.4 0-2.7-.7-3.4-2l-27.1-45.9c-.7-1.3-.7-2.8 0-4.1l27.1-45.9c.7-1.2 2-2 3.4-2s2.7.7 3.4 2l27.1 45.9c.7 1.3.7 2.8 0 4.1l-27.1 45.9c-.7 1.3-2 2-3.4 2zm-22.4-49.8 22.4 38 22.4-38-22.4-38-22.4 38z"/><ellipse class="st2" cx="229.5" cy="101.3" rx="3.5" ry="3.6"/><ellipse class="st2" cx="282.5" cy="101.3" rx="3.5" ry="3.6"/><ellipse class="st2" cx="256" cy="144.3" rx="3.5" ry="3.6"/><ellipse class="st2" cx="256" cy="58.3" rx="3.5" ry="3.6"/><circle cx="256" cy="256" r="27" opacity=".15" fill="#444"/><path class="st4" d="M353.6 158.4c3.2 3.2 3.2 8.4 0 11.7L267.7 256l85.9 85.9c3.2 3.2 3.2 8.4 0 11.7-3.2 3.2-8.4 3.2-11.7 0L256 267.7l-85.9 85.9c-3.2 3.2-8.4 3.2-11.7 0-3.2-3.2-3.2-8.4 0-11.7l85.9-85.9-85.9-85.9c-3.2-3.2-3.2-8.4 0-11.7 3.2-3.2 8.4-3.2 11.7 0l85.9 85.9 85.9-85.9c3.3-3.2 8.5-3.2 11.7 0z"/><path class="st4" d="M256 347.7c-50.5 0-91.7-41.1-91.7-91.7 0-50.5 41.1-91.7 91.7-91.7s91.7 41.1 91.7 91.7c0 50.5-41.2 91.7-91.7 91.7zm0-166.9c-41.5 0-75.2 33.7-75.2 75.2s33.7 75.2 75.2 75.2 75.2-33.7 75.2-75.2-33.7-75.2-75.2-75.2z"/><path class="st1" d="M474 260h-52c-2.2 0-4-1.8-4-4s1.8-4 4-4h52c2.2 0 4 1.8 4 4s-1.8 4-4 4zm-384 0H38c-2.2 0-4-1.8-4-4s1.8-4 4-4h52c2.2 0 4 1.8 4 4s-1.8 4-4 4z"/><ellipse class="st2" cx="34" cy="34" rx="3.5" ry="3.6"/><ellipse class="st2" cx="34" cy="478" rx="3.5" ry="3.6"/><ellipse class="st2" cx="478" cy="478" rx="3.5" ry="3.6"/><ellipse class="st2" cx="478" cy="34" rx="3.5" ry="3.6"/></svg>