<svg version="1.1" xmlns="http://www.w3.org/2000/svg" x="0" y="0" viewBox="0 0 512 512" xml:space="preserve"><style type="text/css">.st0{fill:#f4f4f4}.st1{fill:#bbb}.st3{fill:#36434f}.st4{opacity:.15}.st5{fill:#444}</style><circle class="st0" cx="256" cy="325" r="159"/><path class="st1" d="M256 169c86.2 0 156 69.8 156 156s-69.8 156-156 156-156-69.8-156-156 69.8-156 156-156m0-31c-25.2 0-49.7 4.9-72.8 14.7-22.3 9.4-42.3 22.9-59.4 40.1-17.2 17.2-30.6 37.2-40.1 59.4C73.9 275.3 69 299.8 69 325s4.9 49.7 14.7 72.8c9.4 22.3 22.9 42.3 40.1 59.4 17.2 17.2 37.2 30.6 59.4 40.1 23.1 9.8 47.6 14.7 72.8 14.7s49.7-4.9 72.8-14.7c22.3-9.4 42.3-22.9 59.4-40.1 17.2-17.2 30.6-37.2 40.1-59.4 9.8-23.1 14.7-47.6 14.7-72.8s-4.9-49.7-14.7-72.8c-9.4-22.3-22.9-42.3-40.1-59.4-17.2-17.2-37.2-30.6-59.4-40.1-23.1-9.8-47.6-14.7-72.8-14.7z"/><path d="M256 489c-90.4 0-164-73.6-164-164s73.6-164 164-164 164 73.6 164 164-73.6 164-164 164zm0-318c-84.9 0-154 69.1-154 154s69.1 154 154 154 154-69.1 154-154-69.1-154-154-154z" fill="#999"/><path class="st3" d="M108.5 324h20v2h-20zm275 0h20v2h-20zM255 452.5h2v20h-2zm0-275h2v20h-2zm-73.684 20.237l1.732-1 10 17.32-1.732 1zm137.626 238.191l1.732-1 10 17.32-1.732 1zM127.74 397.94l17.32-10 1 1.731-17.32 10zm238.19-137.627l17.32-10 1 1.732-17.32 10zm-47.07-46.167l10-17.32 1.732 1-10 17.32zM181.457 452.219l10-17.32 1.732 1-10 17.32zM127.76 252.206l1-1.732 17.32 10-1 1.732zm238.072 137.402l1-1.732 17.32 10-1 1.732zM115.18 339.273l12.928-1.359.104.995-12.928 1.358zm268.593-28.199l12.929-1.359.104.995-12.928 1.358zm-266.239 42.871l12.716-2.703.207.979-12.715 2.702zm263.982-56.199l12.715-2.702.208.978-12.715 2.702zm-260.251 70.497l12.364-4.017.31.952-12.365 4.017zm256.811-83.399l12.364-4.017.31.951-12.365 4.017zm-251.513 97.251l11.877-5.287.407.914-11.877 5.287zm246.601-109.794l11.876-5.287.407.914-11.877 5.287zM141.268 407.827l10.517-7.642.588.81-10.517 7.64zm218.366-158.825l10.517-7.642.588.81-10.517 7.64zM150.517 419.229l9.66-8.698.669.743-9.66 8.698zm200.591-180.542l9.66-8.699.67.743-9.66 8.699zm-190.22 191.127l8.699-9.66.743.67-8.699 9.66zm180.654-200.598l8.699-9.66.743.668-8.698 9.66zM172.409 439.247l7.641-10.517.81.588-7.642 10.517zm158.793-218.501l7.641-10.517.809.587-7.641 10.517zM197.94 454.053l5.287-11.877.914.407-5.288 11.876zm109.87-246.628l5.287-11.877.914.406-5.287 11.877zM211.878 459.41l4.017-12.365.951.309-4.017 12.364zm83.349-256.779l4.017-12.364.95.309-4.016 12.364zM226.02 463.294l2.704-12.715.978.207-2.703 12.716zm56.197-264.086l2.702-12.715.978.208-2.702 12.715zm-41.54 266.462l1.359-12.93.994.105-1.358 12.929zm28.157-268.55l1.359-12.929.994.104-1.358 12.929zm.082 255.756l.994-.105 1.359 12.929-.995.104zm-28.199-268.594l.994-.104 1.359 12.928-.995.105zm41.529 266.438l.978-.207 2.703 12.715-.979.208zm-56.199-263.981l.978-.208 2.703 12.715-.978.208zm69.176 260.65l.95-.31 4.018 12.365-.951.309zm-83.4-256.811l.952-.309 4.017 12.364-.952.31zm95.979 251.999l.914-.407 5.287 11.877-.914.407zM198.008 195.976l.913-.406 5.287 11.876-.913.407zm133.182 233.24l.81-.588 7.641 10.517-.809.588zM172.366 210.85l.809-.587 7.641 10.517-.809.587zm169.162 209.93l.743-.669 8.698 9.66-.743.67zM160.985 220.189l.743-.67 8.699 9.66-.743.67zm190.082 191.109l.67-.743 9.66 8.698-.67.744zM150.542 230.711l.67-.743 9.66 8.698-.67.743zm209.117 170.312l.588-.809 10.517 7.641-.588.81zM141.216 242.15l.588-.81 10.517 7.642-.588.809zm231.906 135.536l.407-.914 11.877 5.288-.407.913zm-246.536-109.83l.406-.913 11.877 5.287-.407.913zm251.503 97.278l.309-.951 12.364 4.017-.309.95zm-256.778-83.349l.31-.95 12.363 4.016-.309.951zM381.52 352.33l.207-.978 12.716 2.703-.208.978zm-264.065-56.293l.208-.978 12.715 2.703-.208.978zm266.28 42.897l.105-.995 12.928 1.359-.104.994zm-268.55-28.157l.105-.995 12.928 1.359-.104.994zm-.692 16.713l7.998-.167.02 1-7.998.167zm275.005-5.8l7.998-.167.021 1-7.998.167zm-274.918 8.77l7.993-.335.042 1-7.993.334zm274.794-11.6l7.993-.335.042 1-7.993.334zm-274.6 14.483l7.984-.502.063.998-7.984.502zm274.393-17.2l7.984-.502.062.998-7.984.502zm-274.194 20.196l7.972-.67.084.997-7.972.67zm274.002-23l7.972-.67.083.997-7.972.67zm-273.409 28.858l7.937-1.003.125.993-7.937 1.002zm272.794-34.398l7.936-1.002.126.992-7.937 1.002zm-272.386 37.402l7.915-1.169.146.99-7.915 1.168zM387.982 305l7.914-1.17.147.99-7.915 1.169zm-271.608 43.078l7.888-1.334.167.986-7.888 1.334zm271.206-45.799l7.887-1.335.167.986-7.888 1.335zm-270.701 48.788l7.858-1.5.188.983-7.859 1.499zm270.207-51.605l7.858-1.499.188.983-7.859 1.499zm-268.99 57.38l7.789-1.827.228.973-7.788 1.828zm267.814-62.805l7.79-1.827.228.974-7.789 1.827zm-267.107 65.682l7.749-1.99.249.969-7.75 1.99zm266.407-68.403l7.75-1.99.248.969-7.748 1.99zm-265.592 71.289l7.706-2.152.268.964-7.705 2.15zm264.801-74.004l7.706-2.15.269.962-7.706 2.152zM120.422 365.36l7.658-2.312.29.958-7.66 2.312zm263.188-79.387l7.658-2.312.289.957-7.659 2.312zm-261.45 85.086l7.555-2.632.329.945-7.556 2.631zm259.822-90.405l7.555-2.631.33.944-7.556 2.631zm-258.803 93.182l7.498-2.789.349.938-7.499 2.788zm257.817-95.8l7.498-2.789.349.938-7.499 2.788zM124.3 376.605l7.438-2.944.369.93-7.439 2.944zm255.592-101.19l7.438-2.944.369.93-7.439 2.944zM125.314 379.403l7.376-3.1.387.922-7.375 3.1zm253.617-106.611l7.376-3.1.387.922-7.375 3.1zM127.768 384.738l7.239-3.406.425.904-7.238 3.407zm248.8-116.983l7.238-3.407.426.905-7.238 3.407zM128.975 387.413l7.165-3.557.445.896-7.166 3.557zm246.413-122.186l7.165-3.557.445.896-7.166 3.557zM130.314 390.114l7.09-3.706.463.886-7.09 3.707zm243.82-127.409l7.09-3.706.463.886-7.09 3.706zM131.759 392.693l7.01-3.854.482.876-7.01 3.854zM372.778 260.3l7.01-3.855.483.877-7.01 3.854zM134.713 397.84l6.844-4.145.518.856-6.844 4.144zm235.206-142.38l6.843-4.144.518.855-6.843 4.144zM136.247 400.41l6.754-4.287.536.844-6.754 4.287zm232.184-147.405l6.754-4.287.536.845-6.754 4.286zM137.902 402.89l6.663-4.427.553.833-6.663 4.427zM366.88 250.695l6.664-4.427.553.833-6.663 4.427zM139.53 405.356l6.568-4.565.57.82-6.568 4.566zm225.771-157.003l6.57-4.566.57.821-6.569 4.566zM143.01 410.094l6.371-4.837.605.796-6.372 4.837zm218.994-166.165l6.372-4.837.605.797-6.372 4.836zM144.719 412.486l6.27-4.969.62.784-6.269 4.969zm215.628-170.803l6.27-4.969.62.784-6.27 4.969zM146.614 414.785l6.164-5.1.637.771-6.164 5.1zM358.48 239.59l6.164-5.1.637.77-6.164 5.1zM148.517 417.017l6.056-5.228.654.757-6.056 5.228zm208.237-179.569l6.056-5.227.653.757-6.056 5.227zm-204.23 183.997l5.832-5.476.684.729-5.832 5.476zm200.394-188.142l5.832-5.476.684.73-5.832 5.475zM154.627 423.648l5.716-5.598.7.715-5.716 5.598zm196.379-192.382l5.716-5.598.7.715-5.716 5.597zM156.644 425.714l5.598-5.716.715.7-5.598 5.715zm192.441-196.378l5.597-5.716.715.7-5.598 5.715zM158.81 427.742l5.475-5.832.73.685-5.477 5.832zm188.201-200.355l5.476-5.832.729.684-5.476 5.832zM163.238 431.778l5.227-6.056.757.653-5.227 6.056zM342.78 223.614l5.227-6.056.757.653-5.228 6.056zM165.389 433.68l5.099-6.164.77.637-5.099 6.164zm175.267-211.776l5.1-6.164.77.638-5.1 6.164zm-172.899 213.72l4.968-6.27.784.621-4.969 6.27zM338.49 219.996l4.969-6.27.783.621-4.968 6.27zM170.065 437.341l4.836-6.372.797.605-4.837 6.372zm166.198-218.924l4.837-6.372.796.605-4.837 6.372zM174.753 440.89l4.566-6.568.82.57-4.565 6.57zM331.79 215.085l4.566-6.569.821.57-4.566 6.57zM177.23 442.544l4.427-6.663.833.553-4.427 6.663zm152.251-228.978l4.428-6.663.832.554-4.427 6.663zM179.707 444.21l4.286-6.755.844.536-4.286 6.754zM327.12 211.984l4.286-6.755.844.536-4.286 6.755zm-144.787 233.75l4.144-6.843.856.518-4.144 6.843zM324.716 210.58l4.144-6.843.856.518-4.144 6.843zM187.454 448.748l3.854-7.01.877.482-3.855 7.01zM319.897 207.86l3.854-7.01.877.482-3.855 7.01zm-129.85 242.374l3.706-7.09.886.464-3.706 7.09zm127.309-243.839l3.706-7.09.886.463-3.706 7.09zM192.635 451.48l3.556-7.166.896.444-3.557 7.166zm122.258-246.266l3.556-7.166.896.445-3.557 7.165zm-119.566 247.54l3.406-7.238.905.425-3.407 7.239zM312.321 204.07l3.406-7.238.905.426-3.406 7.238zM200.805 455.244l3.1-7.375.922.388-3.1 7.375zM307.27 201.642l3.1-7.375.923.387-3.1 7.375zM203.443 456.29l2.945-7.44.93.369-2.945 7.438zM304.72 200.763l2.945-7.439.93.369-2.945 7.438zm-98.427 256.706l2.789-7.499.937.349-2.789 7.498zm95.717-257.764l2.79-7.499.937.349-2.79 7.498zm-92.876 258.733l2.631-7.556.944.33-2.63 7.554zm90.229-259.716l2.63-7.555.945.329-2.631 7.555zM214.596 460.29l2.312-7.658.957.289-2.312 7.658zm79.478-263.142l2.312-7.658.958.289-2.312 7.658zm-76.648 263.987l2.151-7.706.963.269-2.151 7.706zm74.002-264.88l2.151-7.705.964.269-2.152 7.705zm-71.064 265.718l1.99-7.749.968.25-1.99 7.748zm68.342-266.439l1.99-7.748.969.248-1.99 7.75zm-65.42 267.093l1.827-7.789.974.229-1.827 7.789zm62.684-267.748l1.827-7.79.973.23-1.827 7.788zm-56.935 269.037l1.499-7.858.982.187-1.5 7.859zm51.47-270.146l1.499-7.858.982.188-1.5 7.858zM231.99 464.436l1.334-7.888.986.167-1.335 7.888zm45.803-271.104l1.335-7.888.986.166-1.335 7.888zm-42.99 271.582l1.169-7.915.99.146-1.17 7.915zm40.283-272.048l1.169-7.914.99.146-1.17 7.914zM237.76 465.322l1.002-7.937.992.125-1.002 7.937zm34.45-272.764l1.003-7.937.992.125-1.002 7.937zm-28.567 273.373l.67-7.972.996.084-.67 7.972zm23.06-273.976l.67-7.972.996.084-.67 7.972zm-20.14 274.24l.503-7.984.998.062-.503 7.984zm17.326-274.459l.502-7.984.998.063-.502 7.984zm-14.342 274.622l.335-7.992.999.041-.335 7.993zM261.078 191.6l.335-7.992 1 .042-.336 7.993zM252.6 466.43l.167-8 1 .022-.168 7.998zm5.67-274.989l.168-7.998 1 .02-.168 8zm.051 267.079l1-.02.167 7.998-1 .02zm-5.8-275.005l1-.021.167 7.998-1 .021zm8.606 274.899l1-.042.335 7.993-1 .042zm-11.6-274.794l1-.042.334 7.993-.999.042zm14.316 274.607l.998-.063.503 7.984-.998.063zm-17.199-274.393l.998-.063.502 7.984-.998.063zm20.025 274.226l.996-.085.67 7.972-.997.084zm-23-274.003l.996-.083.67 7.972-.997.083zm28.527 273.427l.992-.126 1.002 7.937-.992.126zM237.798 184.69l.992-.125 1.002 7.937-.992.125zm37.232 272.44l.99-.146 1.168 7.914-.989.146zm-40.202-272.008l.99-.146 1.169 7.915-.99.146zm42.916 271.624l.986-.166 1.334 7.888-.986.166zm-45.8-271.206l.986-.166 1.335 7.888-.986.167zm48.623 270.734l.982-.187 1.5 7.858-.983.188zm-51.605-270.207l.983-.187 1.499 7.858-.982.187zm57.052 269.073l.974-.228 1.827 7.788-.974.229zM223.21 187.325l.973-.228 1.827 7.789-.973.228zm65.518 267.135l.969-.248 1.99 7.749-.97.248zm-68.403-266.407l.969-.249 1.99 7.749-.97.249zm71.125 265.638l.963-.269 2.152 7.706-.964.269zM217.447 188.89l.963-.269 2.151 7.706-.963.269zm76.602 264.008l.957-.289 2.312 7.659-.957.289zM214.66 189.71l.958-.288 2.312 7.658-.957.289zm84.767 261.601l.945-.329 2.631 7.555-.944.33zm-90.404-259.822l.944-.33 2.631 7.556-.944.329zm93.025 258.855l.937-.349 2.789 7.499-.938.348zm-95.8-257.817l.937-.349 2.789 7.499-.938.348zm98.409 256.737l.93-.368 2.945 7.438-.93.368zm-101.19-255.592l.93-.368 2.945 7.438-.93.368zm103.832 254.651l.922-.387 3.1 7.375-.922.387zM200.688 194.706l.922-.387 3.1 7.375-.922.387zM312.336 445.99l.905-.427 3.406 7.239-.904.426zm-116.983-248.8l.905-.426 3.406 7.238-.905.426zm119.5 247.645l.896-.444 3.557 7.165-.896.445zM192.667 198.422l.896-.444 3.557 7.165-.896.445zm124.742 245.174l.886-.463 3.706 7.09-.886.463zM190 199.777l.886-.464 3.706 7.09-.886.463zm129.846 242.476l.876-.482 3.855 7.01-.877.482zm-132.393-241.02l.876-.482 3.855 7.01-.877.483zm137.234 238.213l.855-.518 4.144 6.843-.855.518zM182.307 204.24l.856-.518 4.144 6.843-.856.518zM327.12 437.969l.845-.536 4.287 6.754-.845.536zM179.716 205.785l.845-.536 4.286 6.754-.844.536zM329.467 436.43l.833-.554 4.427 6.664-.833.553zM177.272 207.451l.833-.553 4.427 6.663-.833.553zM331.793 434.87l.822-.572 4.565 6.57-.821.57zM174.79 209.097l.821-.57 4.566 6.568-.821.571zm161.47 222.508l.797-.605 4.837 6.372-.796.605zM170.096 212.61l.797-.605 4.837 6.372-.797.605zm168.407 217.372l.784-.621 4.969 6.27-.784.62zM167.7 214.354l.784-.621 4.97 6.27-.785.62zm172.917 213.768l.77-.637 5.1 6.164-.77.637zM165.485 216.333l.77-.637 5.1 6.164-.77.637zm177.297 210.082l.757-.654 5.228 6.056-.757.654zM163.214 218.178l.757-.654 5.227 6.056-.757.654zm183.802 204.519l.729-.685 5.476 5.832-.73.685zM158.806 222.23l.729-.685 5.476 5.832-.73.685zM349.06 420.697l.714-.7 5.597 5.716-.714.7zM156.677 224.318l.715-.7 5.597 5.716-.714.7zm194.325 194.477l.7-.714 5.716 5.597-.7.715zm-196.378-192.44l.7-.715 5.715 5.598-.7.714zm198.308 190.363l.685-.729 5.832 5.476-.685.73zM152.577 228.517l.684-.73 5.832 5.477-.684.729zM356.728 412.53l.654-.757 6.056 5.227-.654.757zM148.564 232.989l.653-.757 6.056 5.227-.653.757zm209.873 177.439l.638-.771 6.164 5.1-.638.77zM146.662 235.16l.638-.77 6.164 5.099-.638.77zM360.29 408.197l.62-.783 6.27 4.969-.62.783zM144.74 237.526l.621-.783 6.27 4.968-.621.784zm217.214 168.549l.605-.797 6.372 4.837-.605.797zM143.03 239.876l.605-.796 6.372 4.837-.605.796zm222.268 161.759l.57-.821 6.57 4.566-.571.82zM139.492 244.598l.571-.821 6.569 4.565-.57.821zm227.374 154.731l.554-.833 6.663 4.427-.554.833zM137.889 247.077l.553-.833 6.663 4.428-.553.833zm230.557 149.896l.536-.845 6.754 4.287-.535.844zM136.22 249.56l.536-.844 6.755 4.286-.536.844zm233.701 144.982l.518-.856 6.843 4.144-.518.856zM134.767 252.159l.518-.856 6.843 4.144-.518.856zm237.952 137.546l.481-.877 7.01 3.855-.48.876zM131.783 257.35l.482-.877 7.01 3.854-.481.877zM374.14 387.245l.464-.886 7.09 3.707-.464.886zM130.301 259.937l.464-.887 7.09 3.707-.464.886zm245.017 124.847l.444-.895 7.166 3.556-.445.896zM129.007 262.616l.445-.896 7.166 3.557-.445.896zM376.58 382.295l.425-.905 7.239 3.407-.426.905zM127.806 265.258l.425-.905 7.239 3.407-.426.904zM378.903 377.12l.388-.922 7.375 3.1-.388.922zM125.3 270.654l.388-.922 7.375 3.1-.387.922zm254.579 103.968l.368-.93 7.438 2.945-.368.93zM124.26 273.308l.368-.93 7.438 2.945-.368.93zm256.713 98.637l.349-.938 7.498 2.79-.348.937zm-257.729-95.811l.349-.938 7.498 2.789-.348.937zm258.738 93.167l.33-.944 7.554 2.631-.329.945zm-259.777-90.356l.33-.944 7.554 2.631-.328.945zm261.425 85.118l.288-.957 7.659 2.312-.29.957zm-263.239-79.508l.29-.957 7.658 2.312-.29.957zm264.107 76.795l.27-.964 7.705 2.151-.27.963zm-264.879-74.003l.269-.963 7.705 2.15-.268.964zm265.616 71.318l.249-.969 7.748 1.99-.248.968zm-266.439-68.343l.249-.969 7.748 1.99-.248.969zm267.135 65.626l.228-.974 7.79 1.828-.23.973zm-267.846-62.707l.229-.973 7.788 1.827-.228.973zm268.975 57.244l.188-.983 7.858 1.5-.187.982zm-270.145-51.47l.187-.983 7.858 1.5-.187.982zm270.62 48.679l.167-.986 7.888 1.334-.167.986zM116.43 301.89l.168-.987 7.888 1.335-.167.986zm271.602 43.068l.146-.989 7.914 1.169-.146.99zM115.97 304.774l.146-.989 7.914 1.169-.146.99zm272.32 37.424l.125-.992 7.937 1.003-.125.992zm-272.764-34.45l.125-.992 7.937 1.002-.125.992zm273.44 28.944l.084-.996 7.972.67-.084.996zM114.99 313.633l.084-.997 7.972.67-.084.996zm274.192 20.282l.063-.998 7.984.503-.063.998zM114.724 316.59l.063-.998 7.984.502-.063.998zm274.617 14.512l.042-1 7.993.336-.042.999zM114.583 319.57l.042-.999 7.993.335-.042 1zm274.869 8.677l.02-1 7.999.168-.02 1zm-274.988-5.671l.02-1 8 .168-.022 1z"/><path class="st3" d="M256 467c-78.3 0-142-63.7-142-142s63.7-142 142-142 142 63.7 142 142-63.7 142-142 142zm0-283c-77.7 0-141 63.3-141 141s63.3 141 141 141 141-63.3 141-141-63.3-141-141-141z"/><path class="st3" d="M313 228.4l1.2-10.8h11.5v3.1h-8.5l-.6 5.1c1-.6 2.1-.8 3.3-.8 2 0 3.6.6 4.7 1.9 1.1 1.3 1.7 3 1.7 5.2s-.6 3.9-1.9 5.2-3 1.9-5.1 1.9c-2 0-3.6-.6-4.9-1.7s-2-2.6-2.1-4.4h3.4c.1 1 .5 1.8 1.1 2.4s1.4.8 2.4.8c1.1 0 1.9-.4 2.6-1.2.6-.8.9-1.8.9-3.2 0-1.3-.3-2.3-1-3.1s-1.6-1.1-2.8-1.1c-.6 0-1.2.1-1.6.3s-.9.5-1.5 1l-2.8-.6zm-130 0l1.2-10.8h11.5v3.1h-8.5l-.6 5.1c1-.6 2.1-.8 3.3-.8 2 0 3.6.6 4.7 1.9 1.1 1.3 1.7 3 1.7 5.2s-.6 3.9-1.9 5.2-3 1.9-5.1 1.9c-2 0-3.6-.6-4.9-1.7s-2-2.6-2.1-4.4h3.4c.1 1 .5 1.8 1.1 2.4s1.4.8 2.4.8c1.1 0 1.9-.4 2.6-1.2.6-.8.9-1.8.9-3.2 0-1.3-.3-2.3-1-3.1s-1.6-1.1-2.8-1.1c-.6 0-1.2.1-1.6.3s-.9.5-1.5 1l-2.8-.6zm17.1 0l1.2-10.8h11.5v3.1h-8.5l-.6 5.1c1-.6 2.1-.8 3.3-.8 2 0 3.6.6 4.7 1.9 1.1 1.3 1.7 3 1.7 5.2s-.6 3.9-1.9 5.2-3 1.9-5.1 1.9c-2 0-3.6-.6-4.9-1.7s-2-2.6-2.1-4.4h3.4c.1 1 .5 1.8 1.1 2.4s1.4.8 2.4.8c1.1 0 1.9-.4 2.6-1.2.6-.8.9-1.8.9-3.2 0-1.3-.3-2.3-1-3.1s-1.6-1.1-2.8-1.1c-.6 0-1.2.1-1.6.3s-.9.5-1.5 1l-2.8-.6zM343.7 282h-3.5v-17.1l-5.2 1.8v-3l8.3-3.1h.5l-.1 21.4zm21.3-9c0 3.1-.6 5.4-1.7 6.9-1.1 1.6-2.9 2.3-5.2 2.3-2.3 0-4-.8-5.2-2.3s-1.8-3.8-1.8-6.7v-3.7c0-3.1.6-5.4 1.7-6.9s2.9-2.3 5.3-2.3c2.3 0 4.1.7 5.2 2.2s1.7 3.7 1.8 6.7l-.1 3.8zm-3.5-4c0-2-.3-3.5-.8-4.4s-1.4-1.4-2.6-1.4-2 .4-2.6 1.3c-.5.9-.8 2.3-.9 4.1v4.8c0 2 .3 3.5.8 4.5s1.4 1.5 2.6 1.5c1.1 0 2-.5 2.5-1.4s.8-2.3.9-4.2V269h.1zM151 271.4l1.2-10.8h11.5v3.1h-8.5l-.6 5.1c1-.6 2.1-.8 3.3-.8 2 0 3.6.6 4.7 1.9 1.1 1.3 1.7 3 1.7 5.2s-.6 3.9-1.9 5.2c-1.3 1.3-3 1.9-5.1 1.9-2 0-3.6-.6-4.9-1.7-1.3-1.1-2-2.6-2.1-4.4h3.4c.1 1 .5 1.8 1.1 2.4s1.4.8 2.4.8c1.1 0 1.9-.4 2.6-1.2.6-.8.9-1.8.9-3.2 0-1.3-.3-2.3-1-3.1-.7-.8-1.6-1.1-2.8-1.1-.6 0-1.2.1-1.6.3-.4.2-.9.5-1.5 1l-2.8-.6zm30 1.6c0 3.1-.6 5.4-1.7 6.9-1.1 1.6-2.9 2.3-5.2 2.3s-4-.8-5.2-2.3-1.8-3.8-1.8-6.7v-3.7c0-3.1.6-5.4 1.7-6.9s2.9-2.3 5.3-2.3c2.3 0 4.1.7 5.2 2.2s1.7 3.7 1.8 6.7v3.8h-.1zm-3.5-4c0-2-.3-3.5-.8-4.4s-1.4-1.4-2.6-1.4c-1.2 0-2 .4-2.6 1.3-.5.9-.8 2.3-.9 4.1v4.8c0 2 .3 3.5.8 4.5s1.4 1.5 2.6 1.5c1.1 0 2-.5 2.5-1.4s.8-2.3.9-4.2V269h.1zm182.2 67h-3.5v-17.1l-5.2 1.8v-3l8.3-3.1h.5l-.1 21.4zm8.4-10.6l1.2-10.8h11.5v3.1h-8.5l-.6 5.1c1-.6 2.1-.8 3.3-.8 2 0 3.6.6 4.7 1.9s1.7 3 1.7 5.2-.6 3.9-1.9 5.2c-1.3 1.3-3 1.9-5.1 1.9-2 0-3.6-.6-4.9-1.7s-2-2.6-2.1-4.4h3.4c.1 1 .5 1.8 1.1 2.4s1.4.8 2.4.8c1.1 0 1.9-.4 2.6-1.2.6-.8.9-1.8.9-3.2 0-1.3-.3-2.3-1-3.1-.7-.8-1.6-1.1-2.8-1.1-.6 0-1.2.1-1.6.3-.4.2-.9.5-1.5 1l-2.8-.6zm-222 3h2.7v2.9h-2.7v4.7h-3.6v-4.7h-9.2l-.1-2.2 9.2-14.4h3.7v13.7zm-9.1 0h5.6v-8.9l-.3.5-5.3 8.4zm15.1-3l1.2-10.8h11.5v3.1h-8.5l-.6 5.1c1-.6 2.1-.8 3.3-.8 2 0 3.6.6 4.7 1.9 1.1 1.3 1.7 3 1.7 5.2s-.6 3.9-1.9 5.2c-1.3 1.3-3 1.9-5.1 1.9-2 0-3.6-.6-4.9-1.7-1.3-1.1-2-2.6-2.1-4.4h3.4c.1 1 .5 1.8 1.1 2.4s1.4.8 2.4.8c1.1 0 1.9-.4 2.6-1.2.6-.8.9-1.8.9-3.2 0-1.3-.3-2.3-1-3.1-.7-.8-1.6-1.1-2.8-1.1-.6 0-1.2.1-1.6.3-.4.2-.9.5-1.5 1l-2.8-.6zM346.4 388h-14.3v-2.4l7.1-7.7c1-1.1 1.8-2.1 2.2-2.9.4-.8.7-1.5.7-2.3 0-1-.3-1.8-.9-2.5-.6-.6-1.3-.9-2.3-.9-1.2 0-2 .4-2.7 1.1s-1 1.7-1 2.9h-3.6c0-1.3.3-2.5.9-3.5s1.4-1.8 2.5-2.4 2.4-.9 3.8-.9c2.1 0 3.7.5 4.9 1.6 1.2 1 1.8 2.5 1.8 4.3 0 1.1-.3 2.2-.9 3.3-.6 1.2-1.6 2.5-3 4l-5.2 5.6h9.9v2.7h.1zm16.6-9c0 3.1-.6 5.4-1.7 6.9-1.1 1.6-2.9 2.3-5.2 2.3-2.3 0-4-.8-5.2-2.3s-1.8-3.8-1.8-6.7v-3.7c0-3.1.6-5.4 1.7-6.9s2.9-2.3 5.3-2.3c2.3 0 4.1.7 5.2 2.2s1.7 3.7 1.8 6.7l-.1 3.8zm-3.5-4c0-2-.3-3.5-.8-4.4s-1.4-1.4-2.6-1.4-2 .4-2.6 1.3c-.5.9-.8 2.3-.9 4.1v4.8c0 2 .3 3.5.8 4.5s1.4 1.5 2.6 1.5c1.1 0 2-.5 2.5-1.4s.8-2.3.9-4.2V375h.1zm-195.4 5.4h2.7v2.9h-2.7v4.7h-3.6v-4.7h-9.2l-.1-2.2 9.2-14.4h3.7v13.7zm-9.1 0h5.6v-8.9l-.3.5-5.3 8.4zm28-1.4c0 3.1-.6 5.4-1.7 6.9-1.1 1.6-2.9 2.3-5.2 2.3s-4-.8-5.2-2.3-1.8-3.8-1.8-6.7v-3.7c0-3.1.6-5.4 1.7-6.9s2.9-2.3 5.3-2.3c2.3 0 4.1.7 5.2 2.2s1.7 3.7 1.8 6.7v3.8h-.1zm-3.5-4c0-2-.3-3.5-.8-4.4s-1.4-1.4-2.6-1.4c-1.2 0-2 .4-2.6 1.3-.5.9-.8 2.3-.9 4.1v4.8c0 2 .3 3.5.8 4.5s1.4 1.5 2.6 1.5c1.1 0 2-.5 2.5-1.4s.8-2.3.9-4.2V375h.1zm131.9 54h-14.3v-2.4l7.1-7.7c1-1.1 1.8-2.1 2.2-2.9.4-.8.7-1.5.7-2.3 0-1-.3-1.8-.9-2.5-.6-.6-1.3-.9-2.3-.9-1.2 0-2 .4-2.7 1.1s-1 1.7-1 2.9h-3.6c0-1.3.3-2.5.9-3.5s1.4-1.8 2.5-2.4 2.4-.9 3.8-.9c2.1 0 3.7.5 4.9 1.6 1.2 1 1.8 2.5 1.8 4.3 0 1.1-.3 2.2-.9 3.3-.6 1.2-1.6 2.5-3 4l-5.2 5.6h9.9v2.7h.1zm3.7-10.6l1.2-10.8h11.5v3.1h-8.5l-.6 5.1c1-.6 2.1-.8 3.3-.8 2 0 3.6.6 4.7 1.9s1.7 3 1.7 5.2-.6 3.9-1.9 5.2c-1.3 1.3-3 1.9-5.1 1.9-2 0-3.6-.6-4.9-1.7s-2-2.6-2.1-4.4h3.4c.1 1 .5 1.8 1.1 2.4s1.4.8 2.4.8c1.1 0 1.9-.4 2.6-1.2.6-.8.9-1.8.9-3.2 0-1.3-.3-2.3-1-3.1-.7-.8-1.6-1.1-2.8-1.1-.6 0-1.2.1-1.6.3-.4.2-.9.5-1.5 1l-2.8-.6zm-122.9-1.7h2.2c1.1 0 2-.3 2.6-.8s1-1.4 1-2.4-.3-1.8-.8-2.4-1.3-.8-2.4-.8c-1 0-1.7.3-2.4.8-.6.6-.9 1.3-.9 2.2h-3.6c0-1.1.3-2.1.9-3 .6-.9 1.4-1.6 2.4-2.1s2.2-.8 3.5-.8c2.1 0 3.8.5 5 1.6s1.8 2.6 1.8 4.5c0 1-.3 1.9-.9 2.7-.6.8-1.4 1.5-2.4 1.9 1.2.4 2.1 1 2.7 1.9.6.9.9 1.9.9 3.1 0 1.9-.7 3.4-2 4.6-1.3 1.1-3 1.7-5.2 1.7-2.1 0-3.7-.5-5-1.6s-2-2.5-2-4.4h3.6c0 .9.3 1.7.9 2.3.6.6 1.5.9 2.5.9 1.1 0 2-.3 2.6-.9s1-1.4 1-2.5-.3-2-1-2.6-1.7-.9-3-.9h-2.1l.1-3zm13.9 1.7l1.2-10.8h11.5v3.1h-8.5l-.6 5.1c1-.6 2.1-.8 3.3-.8 2 0 3.6.6 4.7 1.9 1.1 1.3 1.7 3 1.7 5.2s-.6 3.9-1.9 5.2c-1.3 1.3-3 1.9-5.1 1.9-2 0-3.6-.6-4.9-1.7-1.3-1.1-2-2.6-2.1-4.4h3.4c.1 1 .5 1.8 1.1 2.4s1.4.8 2.4.8c1.1 0 1.9-.4 2.6-1.2.6-.8.9-1.8.9-3.2 0-1.3-.3-2.3-1-3.1-.7-.8-1.6-1.1-2.8-1.1-.6 0-1.2.1-1.6.3-.4.2-.9.5-1.5 1l-2.8-.6zm38.6 13.3h2.2c1.1 0 2-.3 2.6-.8s1-1.4 1-2.4-.3-1.8-.8-2.4-1.3-.8-2.4-.8c-1 0-1.7.3-2.4.8-.6.6-.9 1.3-.9 2.2h-3.6c0-1.1.3-2.1.9-3 .6-.9 1.4-1.6 2.4-2.1s2.2-.8 3.5-.8c2.1 0 3.8.5 5 1.6s1.8 2.6 1.8 4.5c0 1-.3 1.9-.9 2.7-.6.8-1.4 1.5-2.4 1.9 1.2.4 2.1 1 2.7 1.9.6.9.9 1.9.9 3.1 0 1.9-.7 3.4-2 4.6-1.3 1.1-3 1.7-5.2 1.7-2.1 0-3.7-.5-5-1.6s-2-2.5-2-4.4h3.6c0 .9.3 1.7.9 2.3.6.6 1.5.9 2.5.9 1.1 0 2-.3 2.6-.9s1-1.4 1-2.5-.3-2-1-2.6-1.7-.9-3-.9h-2.1l.1-3zm26.8 3.3c0 3.1-.6 5.4-1.7 6.9-1.1 1.6-2.9 2.3-5.2 2.3-2.3 0-4-.8-5.2-2.3s-1.8-3.8-1.8-6.7v-3.7c0-3.1.6-5.4 1.7-6.9s2.9-2.3 5.3-2.3c2.3 0 4.1.7 5.2 2.2s1.7 3.7 1.8 6.7l-.1 3.8zm-3.6-4c0-2-.3-3.5-.8-4.4s-1.4-1.4-2.6-1.4-2 .4-2.6 1.3c-.5.9-.8 2.3-.9 4.1v4.8c0 2 .3 3.5.8 4.5s1.4 1.5 2.6 1.5c1.1 0 2-.5 2.5-1.4s.8-2.3.9-4.2V431h.1z"/><circle class="st0" cx="256" cy="251" r="57"/><path class="st3" d="M256 308.5c-31.7 0-57.5-25.8-57.5-57.5s25.8-57.5 57.5-57.5 57.5 25.8 57.5 57.5-25.8 57.5-57.5 57.5zm0-114c-31.2 0-56.5 25.3-56.5 56.5s25.3 56.5 56.5 56.5 56.5-25.3 56.5-56.5-25.3-56.5-56.5-56.5z"/><path class="st3" d="M198.5 250h15v2h-15zm100 0h15v2h-15zm-72.116-48.292l1.733-1 7.498 12.992-1.732 1zm49.988 86.594l1.731-1 7.51 12.983-1.73 1.001zm.002-74.61l7.5-12.99 1.732 1-7.5 12.99zm-49.997 86.591l7.5-12.99 1.732 1-7.5 12.99zM255 300.5h2v8h-2zm0-107h2v8h-2zm-55.739 62.962l6.962-.732.104.995-6.961.731zm106.397-11.2l6.962-.732.104.995-6.961.731zm-44.928 55.501l.994-.104.732 6.961-.995.105zm-11.2-106.397l.994-.104.732 6.961-.995.105zm-49.367 67.958l6.847-1.455.208.978-6.847 1.455zm104.593-22.196l6.846-1.456.208.979-6.846 1.455zm-38.888 59.836l.978-.208 1.455 6.847-.978.208zm-22.196-104.592l.978-.208 1.455 6.846-.978.208zm-42.052 72.74l6.657-2.163.31.952-6.659 2.163zm101.808-32.995l6.658-2.163.309.95-6.658 2.164zm-32.48 63.622l.951-.31 2.163 6.658-.951.31zM237.952 196.93l.951-.309 2.163 6.658-.95.309zm-34.25 76.854l6.395-2.847.407.914-6.395 2.847zm97.806-43.616l6.395-2.847.406.913-6.395 2.847zm-25.574 66.75l.913-.407 2.847 6.395-.913.407zm-43.617-97.806l.914-.406 2.847 6.395-.914.406zm-26.577 79.822l6.929-4 1 1.732-6.928 4zm92.57-53.612l6.928-4 1 1.732-6.928 4zm-88.748 58.718l5.663-4.114.588.809-5.663 4.115zm86.631-62.78l5.663-4.114.588.81-5.663 4.114zm-11.262 70.516l.809-.588 4.115 5.663-.81.588zm-62.78-86.631l.809-.588 4.115 5.663-.81.588zm-8.921 83.623l5.201-4.684.67.743-5.202 4.684zm79.626-71.624l5.201-4.684.67.743-5.202 4.684zm-3.78 71.388l.743-.669 4.684 5.202-.743.669zm-71.623-79.626l.743-.669 4.684 5.202-.743.669zm.027 84.164l4.683-5.202.744.669-4.684 5.202zm71.557-79.63l4.684-5.202.743.669-4.684 5.202zm3.814 71.357l.67-.744 5.2 4.684-.668.743zm-79.63-71.557l.67-.744 5.201 4.684-.669.743zm8.942 83.577l4.115-5.663.809.588-4.115 5.663zm62.814-86.494l4.115-5.663.809.588-4.115 5.663zm11.165 70.394l.588-.81 5.663 4.116-.588.809zm-86.552-62.733l.587-.809 5.663 4.115-.587.809zm88.811 58.643l1.002-1.732 6.925 4.006-1.002 1.731zm-92.728-53.531l1-1.732 6.929 3.999-1 1.732zm26.651 79.814l2.847-6.394.914.406-2.847 6.395zm43.534-97.812l2.847-6.395.913.406-2.847 6.396zm25.685 66.687l.406-.914 6.396 2.847-.407.914zm-97.904-43.575l.406-.913 6.396 2.847-.407.914zm34.281 76.792l2.163-6.658.951.309-2.163 6.658zm33.012-101.707l2.163-6.657.951.309-2.163 6.657zm32.484 63.547l.309-.951 6.658 2.163-.31.951zM201.71 233.83l.308-.951 6.658 2.163-.309.951zm41.874 72.84l1.455-6.847.978.207-1.455 6.847zm22.307-104.598l1.455-6.846.979.208-1.456 6.846zm38.893 59.856l.208-.978 6.847 1.455-.208.978zM200.188 239.62l.208-.978 6.846 1.456-.208.978zm49.318 68.01l.731-6.962.995.105-.732 6.961zm11.229-106.42l.731-6.961.995.104-.732 6.962zm44.925 55.527l.104-.994 6.962.731-.104.995zm-106.42-11.228l.105-.995 6.962.732-.105.994zm87.16-6.009h-1.7v-8l-2.4.8v-1.4l3.9-1.4h.2v10zm10-4.2c0 1.4-.3 2.5-.8 3.2s-1.4 1.1-2.4 1.1c-1.1 0-1.9-.4-2.4-1.1-.5-.7-.8-1.8-.8-3.1v-1.7c0-1.4.3-2.5.8-3.2s1.4-1.1 2.5-1.1 1.9.3 2.4 1 .8 1.7.8 3.1v1.8h-.1zm-1.7-1.8c0-.9-.1-1.6-.4-2.1s-.7-.7-1.2-.7-.9.2-1.2.6-.4 1.1-.4 1.9v2.3c0 .9.1 1.6.4 2.1s.7.7 1.2.7.9-.2 1.2-.6.4-1.1.4-2v-2.2zm-76.3 1.1l.5-5h5.3v1.4h-4l-.3 2.4c.5-.3 1-.4 1.6-.4.9 0 1.7.3 2.2.9.5.6.8 1.4.8 2.4s-.3 1.8-.9 2.4-1.4.9-2.4.9c-.9 0-1.7-.3-2.3-.8s-.9-1.2-1-2h1.6c.1.5.2.9.5 1.1s.7.4 1.1.4c.5 0 .9-.2 1.2-.5.3-.4.4-.9.4-1.5s-.2-1.1-.5-1.4-.7-.5-1.3-.5c-.3 0-.6 0-.8.1s-.4.2-.7.5l-1-.4zm14 .7c0 1.4-.3 2.5-.8 3.2s-1.4 1.1-2.4 1.1c-1.1 0-1.9-.4-2.4-1.1-.5-.7-.8-1.8-.8-3.1v-1.7c0-1.4.3-2.5.8-3.2s1.4-1.1 2.5-1.1 1.9.3 2.4 1 .8 1.7.8 3.1v1.8h-.1zm-1.7-1.8c0-.9-.1-1.6-.4-2.1s-.7-.7-1.2-.7-.9.2-1.2.6-.4 1.1-.4 1.9v2.3c0 .9.1 1.6.4 2.1s.7.7 1.2.7.9-.2 1.2-.6.4-1.1.4-2v-2.2zm57.9 41h-6.7v-1.1l3.3-3.6c.5-.5.8-1 1-1.3.2-.4.3-.7.3-1.1 0-.5-.1-.9-.4-1.1-.3-.3-.6-.4-1.1-.4s-1 .2-1.3.5-.4.8-.4 1.3h-1.7c0-.6.1-1.2.4-1.6.3-.5.7-.9 1.2-1.1.5-.3 1.1-.4 1.8-.4 1 0 1.7.2 2.3.7.6.5.8 1.2.8 2 0 .5-.1 1-.4 1.6-.3.5-.7 1.2-1.4 1.9l-2.4 2.6h4.6v1.1h.1zm7.8-4.2c0 1.4-.3 2.5-.8 3.2s-1.4 1.1-2.4 1.1c-1.1 0-1.9-.4-2.4-1.1s-.8-1.8-.8-3.1v-1.7c0-1.4.3-2.5.8-3.2s1.4-1.1 2.5-1.1 1.9.3 2.4 1 .8 1.7.8 3.1v1.8h-.1zm-1.7-1.8c0-.9-.1-1.6-.4-2.1-.3-.4-.7-.7-1.2-.7s-.9.2-1.2.6c-.3.4-.4 1.1-.4 1.9v2.3c0 .9.1 1.6.4 2.1s.7.7 1.2.7.9-.2 1.2-.6c.3-.4.4-1.1.4-2v-2.2zm-71.2 2.5h1.2v1.3h-1.2v2.2h-1.7v-2.2h-4.3v-1l4.3-6.7h1.7v6.4zm-4.2 0h2.6v-4.2l-.1.2-2.5 4zm13.1-.7c0 1.4-.3 2.5-.8 3.2s-1.4 1.1-2.4 1.1c-1.1 0-1.9-.4-2.4-1.1s-.8-1.8-.8-3.1v-1.7c0-1.4.3-2.5.8-3.2s1.4-1.1 2.5-1.1 1.9.3 2.4 1 .8 1.7.8 3.1v1.8h-.1zm-1.7-1.8c0-.9-.1-1.6-.4-2.1-.3-.4-.7-.7-1.2-.7s-.9.2-1.2.6-.4 1.1-.4 1.9v2.3c0 .9.1 1.6.4 2.1s.7.7 1.2.7.9-.2 1.2-.6.4-1.1.4-2v-2.2zm23.3-59v1.4h-.2c-.9 0-1.7.3-2.2.8s-.9 1.2-1 2.1c.5-.6 1.2-.8 2-.8.9 0 1.6.3 2.1.9.5.6.8 1.4.8 2.4s-.3 1.8-.9 2.5c-.6.6-1.4.9-2.3.9-1 0-1.8-.4-2.4-1.1-.6-.7-.9-1.7-.9-2.9v-.6c0-1.7.4-3.1 1.3-4.1.9-1 2.1-1.5 3.7-1.5zm-1.8 4.8c-.4 0-.7.1-1 .3s-.5.5-.7.8v.5c0 .7.2 1.3.5 1.8s.7.7 1.2.7.9-.2 1.2-.6.4-.9.4-1.5-.1-1.1-.4-1.5-.7-.5-1.2-.5zm11 1c0 1.4-.3 2.5-.8 3.2s-1.4 1.1-2.4 1.1c-1.1 0-1.9-.4-2.4-1.1-.5-.7-.8-1.8-.8-3.1v-1.7c0-1.4.3-2.5.8-3.2s1.4-1.1 2.5-1.1 1.9.3 2.4 1 .8 1.7.8 3.1v1.8h-.1zm-1.6-1.8c0-.9-.1-1.6-.4-2.1s-.7-.7-1.2-.7-.9.2-1.2.6-.4 1.1-.4 1.9v2.3c0 .9.1 1.6.4 2.1s.7.7 1.2.7.9-.2 1.2-.6.4-1.1.4-2v-2.2zm-10.9 74.3h1c.5 0 .9-.1 1.2-.4s.4-.6.4-1.1-.1-.8-.4-1.1c-.2-.3-.6-.4-1.1-.4-.4 0-.8.1-1.1.4s-.4.6-.4 1h-1.7c0-.5.1-1 .4-1.4.3-.4.6-.7 1.1-1 .5-.2 1-.4 1.6-.4 1 0 1.8.3 2.3.7.6.5.9 1.2.9 2.1 0 .4-.1.9-.4 1.3-.3.4-.7.7-1.1.9.5.2 1 .5 1.2.9.3.4.4.9.4 1.4 0 .9-.3 1.6-.9 2.1-.6.5-1.4.8-2.4.8s-1.7-.3-2.4-.8-.9-1.2-.9-2h1.7c0 .4.1.8.4 1.1.3.3.7.4 1.2.4s.9-.1 1.2-.4.4-.7.4-1.2-.2-.9-.5-1.2-.8-.4-1.4-.4h-1v-1.3h.3zm12.5 1.5c0 1.4-.3 2.5-.8 3.2s-1.4 1.1-2.4 1.1c-1.1 0-1.9-.4-2.4-1.1s-.8-1.8-.8-3.1v-1.7c0-1.4.3-2.5.8-3.2s1.4-1.1 2.5-1.1 1.9.3 2.4 1 .8 1.7.8 3.1v1.8h-.1zm-1.6-1.8c0-.9-.1-1.6-.4-2.1-.3-.4-.7-.7-1.2-.7s-.9.2-1.2.6c-.3.4-.4 1.1-.4 1.9v2.3c0 .9.1 1.6.4 2.1s.7.7 1.2.7.9-.2 1.2-.6c.3-.4.4-1.1.4-2v-2.2z"/><circle class="st3" cx="256" cy="251" r="8.5"/><path class="st3" d="M255.7 191l-2.7 75h6l-2.7-75z"/><circle class="st3" cx="256" cy="325" r="8.5"/><path class="st3" d="M255.7 175L253 381h6l-2.7-206z"/><path class="st1" d="M239.5 92.5h33v65h-33z"/><path class="st1" d="M277.5 93.6h-43c-2.2 0-4-1.8-4-4V57c0-2.2 1.8-4 4-4h43c2.2 0 4 1.8 4 4v32.6c0 2.3-1.8 4-4 4z"/><g class="st4"><path class="st5" d="M250.5 53h4v40.6h-4zm-7 0h4v40.6h-4zm-7 0h4v40.6h-4zm42 .2v40.3c1.7-.4 3-2 3-3.9V57c0-1.8-1.3-3.4-3-3.8zm-45 0c-1.7.4-3 2-3 3.9v32.6c0 1.9 1.3 3.4 3 3.9V53.2zm24-.2h4v40.6h-4zm14 0h4v40.6h-4zm-7 0h4v40.6h-4z"/></g><path class="st1" d="M256 10c29.5 0 53.5 24 53.5 53.5S285.5 117 256 117s-53.5-24-53.5-53.5S226.5 10 256 10m0-10c-35.1 0-63.5 28.4-63.5 63.5S220.9 127 256 127s63.5-28.4 63.5-63.5S291.1 0 256 0zm57.445 161.764l16.752-37.64 25.398 11.303-16.752 37.64z"/><path class="st1" d="M358.5 137.8l-32-14.2c-2-.9-2.9-3.3-2-5.3l10.7-24c.9-2 3.3-2.9 5.3-2l32 14.2c2 .9 2.9 3.3 2 5.3l-10.7 24c-.9 2-3.3 2.9-5.3 2z"/><g class="st4"><path class="st5" d="M338.232 128.82l13.905-31.244 3.107 1.382-13.906 31.245zm-5.347-2.54l13.905-31.245 3.106 1.383-13.905 31.245zm-5.405-2.39l13.906-31.246 3.107 1.383-13.906 31.245zm46.22-16.69l-13.8 31.1c1.5.2 3-.5 3.6-1.9l11.2-25.1c.6-1.5.2-3.2-1-4.1zM339 91.8c-1.5-.2-3 .5-3.6 1.9l-11.2 25.1c-.6 1.4-.2 3.1 1 4l13.8-31zm4.636 39.412l13.905-31.245 3.107 1.382-13.906 31.245zm10.716 4.742l13.906-31.246 3.106 1.383-13.906 31.245zm-5.404-2.392l13.906-31.245 3.106 1.383-13.906 31.245z"/></g></svg>