<svg version="1.1" xmlns="http://www.w3.org/2000/svg" x="0" y="0" viewBox="0 0 512 512" xml:space="preserve"><style type="text/css">.st2{fill:#826049}.st3{fill:#ddd}</style><path fill="#999" d="M144 152h223v285H144z"/><path d="M367 147v-16c0-61.3-49.7-111-111-111S145 69.7 145 131v16h-12v365h45v-8h-21v-34h198v34h-21v8h45V147h-12zm-17.5 44h-187v-29.5h187V191zm-187 16h187v203h-187V207zm0 248.5V426h187v29.5h-187zM153 131c0-56.8 46.2-103 103-103s103 46.2 103 103H153z" fill="#36434f"/><path class="st2" d="M213 460h-45c-3.3 0-6-2.7-6-6V163c0-3.3 2.7-6 6-6h45c3.3 0 6 2.7 6 6v291c0 3.3-2.7 6-6 6z"/><path class="st3" d="M190.5 204c-2.8 0-5-2.3-5-5 0-2.8 2.3-5 5-5 2.8 0 5 2.3 5 5 0 2.8-2.2 5-5 5zm0 219c-2.8 0-5-2.3-5-5 0-2.8 2.3-5 5-5 2.8 0 5 2.3 5 5 0 2.8-2.2 5-5 5z"/><path class="st2" d="M278.5 460h-45c-3.3 0-6-2.7-6-6V163c0-3.3 2.7-6 6-6h45c3.3 0 6 2.7 6 6v291c0 3.3-2.7 6-6 6z"/><path class="st3" d="M256 204c-2.8 0-5-2.3-5-5 0-2.8 2.3-5 5-5 2.8 0 5 2.3 5 5 0 2.8-2.2 5-5 5zm0 219c-2.8 0-5-2.3-5-5 0-2.8 2.3-5 5-5 2.8 0 5 2.3 5 5 0 2.8-2.2 5-5 5z"/><path class="st2" d="M344.5 460h-45c-3.3 0-6-2.7-6-6V163c0-3.3 2.7-6 6-6h45c3.3 0 6 2.7 6 6v291c0 3.3-2.7 6-6 6z"/><path class="st3" d="M322 204c-2.8 0-5-2.3-5-5 0-2.8 2.3-5 5-5 2.8 0 5 2.3 5 5 0 2.8-2.2 5-5 5zm0 219c-2.8 0-5-2.3-5-5 0-2.8 2.3-5 5-5 2.8 0 5 2.3 5 5 0 2.8-2.2 5-5 5z"/></svg>