<svg xmlns="http://www.w3.org/2000/svg" viewBox="0 0 512 512" xml:space="preserve"><style>.st1{fill:#7193ad}.st2{fill:#038387}.st3{opacity:.15;enable-background:new;fill:#444}</style><path d="M108.5 60.5h-5v41.1L25.6 318.2l4.8 1.6L104 115v202h4V115l73.6 204.8 4.8-1.6-77.9-216.6zm377.9 257.7-77.9-216.6V60.5h-5v41.1l-77.9 216.6 4.8 1.6L404 115v202h4V115l73.6 204.8z" fill="#36434f"/><path class="st1" d="M252.5 28h7v15h-7z"/><path class="st1" d="M268 469h-24V45c0-4.4 3.6-8 8-8h8c4.4 0 8 3.6 8 8v424z"/><circle class="st1" cx="256" cy="18.5" r="18.5"/><path class="st1" d="M293.7 443h-9.5l-6.3-14h-44l-6.3 14h-9.5c-9.4 26.5-29.6 47.9-55.3 58.9V512h186v-10.1c-25.5-11-45.7-32.4-55.1-58.9zM256 33l-38.5 22L256 77l38.5-22z"/><path class="st1" d="M193 49.5h36v11h-36zM141 51h31v8h-31zm-35 0c2.2 0 4 1.8 4 4s-1.8 4-4 4-4-1.8-4-4 1.8-4 4-4m0-4c-4.4 0-8 3.6-8 8s3.6 8 8 8 8-3.6 8-8-3.6-8-8-8z"/><path class="st1" d="M133.5 49.5c3 0 5.5 2.5 5.5 5.5s-2.5 5.5-5.5 5.5S128 58 128 55s2.5-5.5 5.5-5.5m0-4c-5.2 0-9.5 4.3-9.5 9.5s4.3 9.5 9.5 9.5 9.5-4.3 9.5-9.5-4.3-9.5-9.5-9.5z"/><path class="st1" d="M113 52.5h12v5h-12z"/><path class="st2" d="M184.5 321c2.8 0 5 2.2 5 5s-2.2 5-5 5-5-2.2-5-5 2.2-5 5-5m0-4c-5 0-9 4-9 9s4 9 9 9 9-4 9-9-4-9-9-9zm-157 4c2.8 0 5 2.2 5 5s-2.2 5-5 5-5-2.2-5-5 2.2-5 5-5m0-4c-5 0-9 4-9 9s4 9 9 9 9-4 9-9-4-9-9-9zm78.5 4c2.8 0 5 2.2 5 5s-2.2 5-5 5-5-2.2-5-5 2.2-5 5-5m0-4c-5 0-9 4-9 9s4 9 9 9 9-4 9-9-4-9-9-9z"/><path class="st1" d="M182 46.5c4.7 0 8.5 3.8 8.5 8.5s-3.8 8.5-8.5 8.5-8.5-3.8-8.5-8.5 3.8-8.5 8.5-8.5m0-4c-6.9 0-12.5 5.6-12.5 12.5s5.6 12.5 12.5 12.5 12.5-5.6 12.5-12.5-5.6-12.5-12.5-12.5z"/><path class="st2" d="M106 335h81l-2.3 7.9c-4 13.7-16.5 23.1-30.7 23.1H58c-14.2 0-26.8-9.4-30.7-23.1L25 335h81zm300 0h-81l2.3 7.9c4 13.7 16.5 23.1 30.7 23.1h96c14.2 0 26.8-9.4 30.7-23.1l2.3-7.9h-81z"/><path class="st1" d="M283 49.5h36v11h-36zm57 1.5h31v8h-31zm66 0c2.2 0 4 1.8 4 4s-1.8 4-4 4-4-1.8-4-4 1.8-4 4-4m0-4c-4.4 0-8 3.6-8 8s3.6 8 8 8 8-3.6 8-8-3.6-8-8-8z"/><path class="st1" d="M378.5 49.5c3 0 5.5 2.5 5.5 5.5s-2.5 5.5-5.5 5.5S373 58 373 55s2.5-5.5 5.5-5.5m0-4c-5.2 0-9.5 4.3-9.5 9.5s4.3 9.5 9.5 9.5 9.5-4.3 9.5-9.5-4.3-9.5-9.5-9.5z"/><path class="st1" d="M387 52.5h12v5h-12z"/><path class="st2" d="M327.5 321c2.8 0 5 2.2 5 5s-2.2 5-5 5-5-2.2-5-5 2.2-5 5-5m0-4c-5 0-9 4-9 9s4 9 9 9 9-4 9-9-4-9-9-9zm157 4c2.8 0 5 2.2 5 5s-2.2 5-5 5-5-2.2-5-5 2.2-5 5-5m0-4c-5 0-9 4-9 9s4 9 9 9 9-4 9-9-4-9-9-9zm-78.5 4c2.8 0 5 2.2 5 5s-2.2 5-5 5-5-2.2-5-5 2.2-5 5-5m0-4c-5 0-9 4-9 9s4 9 9 9 9-4 9-9-4-9-9-9z"/><path class="st1" d="M330 46.5c4.7 0 8.5 3.8 8.5 8.5s-3.8 8.5-8.5 8.5-8.5-3.8-8.5-8.5 3.8-8.5 8.5-8.5m0-4c-6.9 0-12.5 5.6-12.5 12.5s5.6 12.5 12.5 12.5 12.5-5.6 12.5-12.5-5.6-12.5-12.5-12.5z"/><path class="st3" d="M163 501.9h186V512H163z"/><path class="st3" d="M293.7 443h-75.5c-9.4 26.5-29.6 47.9-55.3 58.9V512h186v-10.1c-25.6-11-45.8-32.4-55.2-58.9z"/><path d="M176.5 356.7h-141c5.9 5.8 13.9 9.3 22.6 9.3h96c8.5 0 16.6-3.5 22.4-9.3zm159 0c5.9 5.8 13.9 9.3 22.6 9.3h96c8.7 0 16.7-3.5 22.6-9.3H335.5z" fill="#444" opacity=".15"/><path class="st3" d="M237.5 18.5c0 8.3 5.5 15.3 13 17.7l-23.3 13.3h-33.9c-2-4.1-6.3-7-11.2-7-5.5 0-10.2 3.6-11.8 8.5h-28.1c-1.5-3.2-4.8-5.5-8.6-5.5-4.4 0-8.1 3-9.2 7h-10.7c-1.1-3.2-4.1-5.5-7.6-5.5-4.4 0-8 3.6-8 8 0 3.5 2.3 6.5 5.5 7.6v39L26 317.1c-4.3.7-7.5 4.4-7.5 8.9 0 5 4 9 9 9s9-4 9-9c0-3.7-2.2-6.9-5.4-8.2L104 115v202h4V115l72.9 202.8c-3.2 1.4-5.4 4.6-5.4 8.2 0 5 4 9 9 9s9-4 9-9c0-4.5-3.3-8.2-7.5-8.9l-77.5-215.6v-39c2.4-.8 4.3-2.7 5.1-5.1h10.7c1.1 4 4.8 7 9.2 7 3.8 0 7.1-2.3 8.6-5.5h28.1c1.7 4.9 6.3 8.5 11.8 8.5 4.9 0 9.2-2.9 11.2-7h33.9L244 70v359h-10l-6.3 14h-9.5c-9.4 26.5-29.6 47.9-55.3 58.9V512h93V0c-10.1 0-18.4 8.3-18.4 18.5zM32.5 326c0 2.8-2.2 5-5 5s-5-2.2-5-5 2.2-5 5-5 5 2.2 5 5zm152-5c2.8 0 5 2.2 5 5s-2.2 5-5 5-5-2.2-5-5 2.2-5 5-5zM106 59c-2.2 0-4-1.8-4-4s1.8-4 4-4 4 1.8 4 4-1.8 4-4 4zm27.5 1.5c-3 0-5.5-2.5-5.5-5.5s2.5-5.5 5.5-5.5S139 52 139 55s-2.5 5.5-5.5 5.5zm48.5 3c-4.7 0-8.5-3.8-8.5-8.5s3.8-8.5 8.5-8.5 8.5 3.8 8.5 8.5-3.8 8.5-8.5 8.5zM97 326c0 5 4 9 9 9s9-4 9-9-4-9-9-9-9 4-9 9zm9-5c2.8 0 5 2.2 5 5s-2.2 5-5 5-5-2.2-5-5 2.2-5 5-5zm0 14h81l-2.3 7.9c-1.5 5.3-4.4 10-8.2 13.7-.7.7-1.4 1.3-2.1 1.9-.2.1-.3.3-.5.4-.6.5-1.1.9-1.7 1.3-.2.1-.4.3-.6.4-.3.2-.7.4-1 .7-.3.2-.7.4-1 .6-.4.2-.9.5-1.3.7-.4.2-.7.4-1.1.5-.3.1-.5.3-.8.4-.6.2-1.2.5-1.8.7-.2.1-.5.2-.7.2-.6.2-1.3.4-2 .6-.1 0-.3.1-.4.1-.6.2-1.3.3-1.9.4-.2 0-.3.1-.5.1-.7.1-1.5.2-2.2.3h-.5c-.8.1-1.6.1-2.4.1H58c-.8 0-1.6 0-2.4-.1h-.5c-.7-.1-1.5-.2-2.2-.3-.2 0-.3-.1-.5-.1-.6-.1-1.3-.2-1.9-.4-.1 0-.3-.1-.4-.1-.7-.2-1.3-.4-2-.6-.2-.1-.5-.2-.7-.2-.6-.2-1.2-.4-1.8-.7-.3-.1-.6-.2-.8-.4-.4-.2-.7-.3-1.1-.5-.4-.2-.9-.5-1.3-.7-.3-.2-.7-.4-1-.6s-.7-.4-1-.7c-.2-.1-.4-.3-.6-.4-.6-.4-1.2-.8-1.7-1.3-.2-.1-.3-.3-.5-.4-.7-.6-1.4-1.2-2.1-1.9-3.8-3.7-6.6-8.4-8.2-13.7L25 335h81z"/></svg>