<svg xmlns="http://www.w3.org/2000/svg" viewBox="0 0 512 512" style="enable-background:new 0 0 512 512" xml:space="preserve"><path d="M266.9 0h-22c-6.6 0-12 5.4-12 12v371.5c0 10.9 1.5 21.8 4.4 32.4l5.1 18.3c2.9 10.5 4.4 21.4 4.4 32.4V504c0 4.4 3.6 8 8 8h2c4.4 0 8-3.6 8-8v-37.5c0-10.9 1.5-21.8 4.4-32.4l5.1-18.3c2.9-10.5 4.4-21.4 4.4-32.4V12c.2-6.6-5.2-12-11.8-12z" style="fill:#79b1d1"/><path d="M272.9 387h-34c-1.1 0-2-.9-2-2V72c0-1.1.9-2 2-2h34c1.1 0 2 .9 2 2v313c0 1.1-.9 2-2 2z" style="opacity:.8;fill:#fff"/><path d="M271.4 307h-31c-.6 0-1-.4-1-1s.4-1 1-1h31c.6 0 1 .4 1 1s-.4 1-1 1zm-5-14h-23c-.6 0-1-.4-1-1s.4-1 1-1h23c.6 0 1 .4 1 1s-.4 1-1 1zm5-14h-31c-.6 0-1-.4-1-1s.4-1 1-1h31c.6 0 1 .4 1 1s-.4 1-1 1zm-5-14h-23c-.6 0-1-.4-1-1s.4-1 1-1h23c.6 0 1 .4 1 1s-.4 1-1 1zm5-14h-31c-.6 0-1-.4-1-1s.4-1 1-1h31c.6 0 1 .4 1 1s-.4 1-1 1zm-5-14h-23c-.6 0-1-.4-1-1s.4-1 1-1h23c.6 0 1 .4 1 1s-.4 1-1 1zm5-14h-31c-.6 0-1-.4-1-1s.4-1 1-1h31c.6 0 1 .4 1 1s-.4 1-1 1zm-5-14h-23c-.6 0-1-.4-1-1s.4-1 1-1h23c.6 0 1 .4 1 1s-.4 1-1 1zm5-14h-31c-.6 0-1-.4-1-1s.4-1 1-1h31c.6 0 1 .4 1 1s-.4 1-1 1zm-5-14h-23c-.6 0-1-.4-1-1s.4-1 1-1h23c.6 0 1 .4 1 1s-.4 1-1 1zm5-14h-31c-.6 0-1-.4-1-1s.4-1 1-1h31c.6 0 1 .4 1 1s-.4 1-1 1zm-5-14h-23c-.6 0-1-.4-1-1s.4-1 1-1h23c.6 0 1 .4 1 1s-.4 1-1 1zm5-14h-31c-.6 0-1-.4-1-1s.4-1 1-1h31c.6 0 1 .4 1 1s-.4 1-1 1zm-5-14h-23c-.6 0-1-.4-1-1s.4-1 1-1h23c.6 0 1 .4 1 1s-.4 1-1 1zm5-14h-31c-.6 0-1-.4-1-1s.4-1 1-1h31c.6 0 1 .4 1 1s-.4 1-1 1z" style="fill:#999"/><path d="M258.9 212h-6V77c0-1.1.9-2 2-2h2c1.1 0 2 .9 2 2v135z" style="fill:#eec646"/><path d="M258.9 461.3V211h-6v250.3c-1.5.6-2.5 2-2.5 3.7v39c0 2.2 1.8 4 4 4h3c2.2 0 4-1.8 4-4v-39c0-1.7-1-3.1-2.5-3.7z" style="fill:#7193ad"/><path style="fill:#cc584c" d="M239 246.4v7.2l6.9-3.6z"/><path d="M244.9 0c-6.6 0-12 5.4-12 12v371.5c0 10.9 1.5 21.8 4.4 32.4l5.1 18.3c2.9 10.5 4.4 21.4 4.4 32.4V504c0 4.4 3.6 8 8 8h.1V0h-10z" style="opacity:.15;fill:#444"/></svg>