<svg version="1.1" xmlns="http://www.w3.org/2000/svg" x="0" y="0" viewBox="0 0 512 512" xml:space="preserve"><style type="text/css">.st0{fill:#ddd}.st1{fill:#bbb}</style><path class="st0" d="M293.5 0h-75c-11 0-20 9-20 20v46.6c0 6 2.7 11.6 7.3 15.4l27.2 22.4c3.6 3 8.1 4.6 12.7 4.6h20.6c4.6 0 9.1-1.6 12.7-4.6L306.2 82c4.6-3.8 7.3-9.5 7.3-15.4V20c0-11-9-20-20-20zM256 44c-8 0-14.5-6.5-14.5-14.5S248 15 256 15s14.5 6.5 14.5 14.5S264 44 256 44z"/><path class="st1" d="M293.5 10h-75c-5.5 0-10 4.5-10 10v46.6c0 3 1.3 5.8 3.6 7.7l27.2 22.4c1.8 1.5 4 2.3 6.4 2.3h20.6c2.3 0 4.6-.8 6.4-2.3l27.2-22.4c2.3-1.9 3.6-4.7 3.6-7.7V20c0-5.5-4.5-10-10-10zM256 44c-8 0-14.5-6.5-14.5-14.5S248 15 256 15s14.5 6.5 14.5 14.5S264 44 256 44z"/><circle class="st0" cx="226" cy="66" r="6"/><circle class="st0" cx="246" cy="66" r="6"/><circle class="st0" cx="266" cy="66" r="6"/><circle class="st0" cx="286" cy="66" r="6"/><path class="st1" d="M255.5 426h-30v11h4v8h-14v10h-9v8h11v10h-7v9h8v10h87v-12h-10v-10h-7v-9h13v-10h-18v-8h6v-8h-8v-9z"/><path class="st0" d="M258 512h-4c-4.4 0-8-3.6-8-8V103c0-4.4 3.6-8 8-8h4c4.4 0 8 3.6 8 8v401c0 4.4-3.6 8-8 8z"/><path d="M241.5 29.5c0-8 6.5-14.5 14.5-14.5V0h-37.5c-11 0-20 9-20 20v46.6c0 6 2.7 11.6 7.3 15.4l27.2 22.4c3.6 3 8.1 4.6 12.7 4.6h.3v317h-20.5v11h4v8h-14v10h-9v8h11v10h-7v9h8v10H246v12c0 4.4 3.6 8 8 8h2V44c-8 0-14.5-6.5-14.5-14.5z" opacity=".15" fill="#444"/></svg>