<svg xmlns="http://www.w3.org/2000/svg" viewBox="0 0 512 512" xml:space="preserve"><path fill="#2e86b7" d="M341 227v-82H171v41H0v181h512V227z"/><path d="M272.4 247.9h-16.5v-52.5l-16.2 4.7v-12.5l31.2-10.8h1.5v71.1zm145.4 40.7h7.8c6.2 0 9.2-3 9.2-9 0-2.3-.7-4.3-2.2-5.7-1.5-1.5-3.5-2.2-6.2-2.2-2.2 0-4.1.6-5.7 1.9s-2.4 2.8-2.4 4.7h-16.5c0-3.7 1-7.1 3.1-10 2.1-2.9 5-5.2 8.7-6.9 3.7-1.6 7.8-2.5 12.2-2.5 7.9 0 14.1 1.8 18.7 5.4 4.5 3.6 6.8 8.6 6.8 14.9 0 3.1-.9 5.9-2.8 8.7-1.9 2.7-4.6 4.9-8.2 6.6 3.8 1.4 6.7 3.4 8.9 6.2s3.2 6.2 3.2 10.3c0 6.3-2.4 11.4-7.3 15.2s-11.3 5.7-19.2 5.7c-4.7 0-9-.9-13-2.7s-7-4.2-9.1-7.4c-2.1-3.1-3.1-6.7-3.1-10.7h16.6c0 2.2.9 4.1 2.6 5.7 1.8 1.6 3.9 2.4 6.5 2.4 2.9 0 5.2-.8 6.9-2.4 1.7-1.6 2.6-3.7 2.6-6.2 0-3.6-.9-6.1-2.7-7.6-1.8-1.5-4.3-2.2-7.4-2.2h-8v-12.2zM111 290.1H61.4v-10.7l22.9-24c5.6-6.4 8.4-11.5 8.4-15.3 0-3.1-.7-5.4-2-7-1.3-1.6-3.3-2.4-5.8-2.4s-4.5 1.1-6.1 3.2c-1.6 2.1-2.3 4.8-2.3 8H60c0-4.4 1.1-8.4 3.3-12.1 2.2-3.7 5.2-6.6 9.1-8.7 3.9-2.1 8.2-3.1 13-3.1 7.7 0 13.6 1.8 17.7 5.3 4.2 3.5 6.2 8.6 6.2 15.3 0 2.8-.5 5.5-1.6 8.2-1 2.7-2.7 5.4-4.9 8.3-2.2 2.9-5.7 6.8-10.6 11.7L83 277.4h28v12.7z" fill="#f4f4f4"/><path d="M341 161H171v-16h170v16zM0 202h171v-16H0v16zm341 25v16h170v-16H341z" fill="#36434f"/><path d="M155 186h16v181h-16zm186 41h16v140h-16z" opacity=".15" fill="#444"/></svg>