<svg version="1.1" xmlns="http://www.w3.org/2000/svg" x="0" y="0" viewBox="0 0 512 512" xml:space="preserve"><style type="text/css">.st0{fill:#f4f4f4}.st1{fill:#36434f}.st2{fill:#122a3a}.st3{opacity:.15}</style><circle class="st0" cx="256" cy="325" r="159"/><path class="st1" d="M256 169c86.2 0 156 69.8 156 156s-69.8 156-156 156-156-69.8-156-156 69.8-156 156-156m0-31c-25.2 0-49.7 4.9-72.8 14.7-22.3 9.4-42.3 22.9-59.4 40.1-17.2 17.2-30.6 37.2-40.1 59.4C73.9 275.3 69 299.8 69 325s4.9 49.7 14.7 72.8c9.4 22.3 22.9 42.3 40.1 59.4 17.2 17.2 37.2 30.6 59.4 40.1 23.1 9.8 47.6 14.7 72.8 14.7s49.7-4.9 72.8-14.7c22.3-9.4 42.3-22.9 59.4-40.1 17.2-17.2 30.6-37.2 40.1-59.4 9.8-23.1 14.7-47.6 14.7-72.8s-4.9-49.7-14.7-72.8c-9.4-22.3-22.9-42.3-40.1-59.4-17.2-17.2-37.2-30.6-59.4-40.1-23.1-9.8-47.6-14.7-72.8-14.7z"/><path class="st2" d="M256 489c-90.4 0-164-73.6-164-164s73.6-164 164-164 164 73.6 164 164-73.6 164-164 164zm0-318c-84.9 0-154 69.1-154 154s69.1 154 154 154 154-69.1 154-154-69.1-154-154-154z"/><path class="st1" d="M108.5 324h20v2h-20zm275 0h20v2h-20zM255 452.5h2v20h-2zm0-275h2v20h-2zm-73.675 20.263l1.732-1 10 17.32-1.732 1zM318.93 435.901l1.732-1 10 17.32-1.732 1zm-191.166-37.973l17.32-10 1 1.732-17.32 10zm238.139-137.604l17.32-10 1 1.732-17.32 10zm-47.068-46.202l10-17.32 1.732 1-10 17.32zM181.416 452.21l10-17.32 1.732 1-10 17.32zm-53.628-200.047l1-1.732 17.32 10-1 1.732zm238.088 137.419l1-1.732 17.32 10-1 1.732zm-250.706-50.3l12.929-1.358.104.994-12.928 1.359zm268.597-28.2l12.929-1.358.104.994-12.928 1.359zm-266.233 42.854l12.715-2.703.208.978-12.715 2.703zm263.976-56.172l12.716-2.703.208.978-12.715 2.703zm-260.252 70.49l12.364-4.017.31.951-12.365 4.017zm256.822-83.406l12.365-4.017.309.951-12.365 4.017zm-251.547 97.215l11.875-5.287.407.914-11.876 5.287zm246.605-109.764l11.876-5.287.406.913-11.875 5.288zM141.277 407.788l10.517-7.642.587.81-10.517 7.64zM359.62 249.026l10.516-7.641.588.809-10.517 7.641zm-209.132 170.23l9.66-8.699.669.743-9.66 8.699zm200.652-180.57l9.66-8.698.67.743-9.66 8.698zM160.926 429.773l8.699-9.66.743.67-8.699 9.66zM341.588 229.22l8.698-9.66.743.669-8.698 9.66zm-169.212 210l7.642-10.517.809.588-7.642 10.517zM331.17 220.727l7.641-10.517.81.587-7.642 10.517zM197.94 454.035l5.287-11.875.914.407-5.287 11.875zm109.87-246.602l5.288-11.876.913.407-5.287 11.875zm-95.983 251.956l4.017-12.364.951.309-4.017 12.364zm83.397-256.756l4.017-12.364.951.309-4.017 12.364zM226.012 463.33l2.702-12.716.978.208-2.702 12.715zm56.258-264.136l2.703-12.715.978.208-2.702 12.715zm-41.534 266.463l1.358-12.928.995.104-1.359 12.929zm28.146-268.497l1.359-12.93.994.105-1.358 12.929zm.027 255.727l.994-.105 1.359 12.929-.995.104zm-28.2-268.597l.994-.105 1.359 12.929-.995.104zm41.521 266.432l.978-.208 2.703 12.716-.979.208zm-56.172-263.977l.978-.208 2.702 12.716-.978.208zm69.167 260.657l.95-.31 4.018 12.365-.951.31zM211.819 190.58l.951-.31 4.017 12.365-.951.309zm95.939 251.983l.914-.407 5.287 11.876-.913.406zM197.994 195.957l.914-.406 5.287 11.875-.914.407zm133.162 233.241l.809-.588 7.641 10.517-.809.588zM172.395 210.855l.809-.588 7.64 10.517-.808.588zm169.148 209.969l.743-.67 8.698 9.661-.743.67zm-180.57-200.653l.743-.669 8.698 9.66-.743.67zM351.09 411.354l.669-.743 9.66 8.699-.67.743zM150.536 230.693l.67-.743 9.66 8.698-.67.743zM359.693 400.99l.588-.81 10.517 7.642-.588.809zM141.199 242.196l.588-.809 10.517 7.641-.588.81zm231.937 135.552l.407-.913 11.875 5.287-.406.913zm-246.603-109.87l.407-.914 11.876 5.287-.407.914zm251.518 97.271l.31-.951 12.363 4.017-.309.95zm-256.756-83.397l.31-.951 12.363 4.017-.309.95zm260.293 70.523l.207-.978L394.511 354l-.208.978zm-264.136-56.259l.208-.978 12.715 2.703-.208.978zm266.266 42.872l.105-.995 12.928 1.359-.104.994zM115.22 310.74l.104-.994 12.929 1.359-.104.994zm-.727 16.75l7.998-.167.021 1-7.998.168zm275.004-5.8l7.999-.168.02 1-7.998.167zm-274.915 8.771l7.993-.335.041 1-7.992.334zm274.79-11.601l7.993-.335.042.999-7.993.335zm-274.601 14.481l7.984-.502.063.998-7.984.502zm274.397-17.196l7.984-.502.063.998-7.984.502zm-274.196 20.192l7.972-.669.084.996-7.972.67zm274.003-22.997l7.972-.67.084.997-7.972.67zm-273.424 28.862l7.937-1.002.126.992-7.937 1.002zm272.806-34.387l7.937-1.002.125.992-7.936 1.003zM115.98 345.193l7.915-1.168.146.989-7.914 1.169zm272.004-40.198l7.914-1.168.147.989-7.915 1.169zM116.38 348.076l7.887-1.334.167.986-7.888 1.334zm271.208-45.818l7.888-1.334.167.986-7.888 1.334zm-270.696 48.809l7.859-1.5.187.983-7.858 1.499zm270.188-51.618l7.859-1.5.187.983-7.858 1.5zm-268.967 57.387l7.789-1.827.228.973-7.789 1.827zm267.8-62.83l7.789-1.827.228.974-7.789 1.827zM118.809 359.72l7.749-1.99.248.97-7.748 1.989zm266.4-68.413l7.749-1.99.248.969-7.748 1.99zM119.615 362.6l7.706-2.151.269.963-7.706 2.151zm264.802-73.977l7.705-2.152.269.964-7.706 2.15zm-264.018 76.744l7.658-2.312.29.957-7.66 2.312zm263.224-79.376l7.659-2.312.289.958-7.659 2.312zM122.17 371.065l7.555-2.631.329.944-7.555 2.631zm259.81-90.445l7.555-2.631.33.944-7.556 2.632zm-258.8 93.219l7.5-2.789.348.937-7.499 2.79zM381 278.01l7.498-2.789.349.937-7.499 2.79zm-256.719 98.594l7.439-2.944.368.93-7.439 2.944zm255.627-101.166l7.439-2.944.368.93-7.438 2.944zM125.327 379.42l7.376-3.1.387.923-7.375 3.1zm253.592-106.63l7.375-3.1.387.921-7.375 3.1zM127.752 384.736l7.238-3.406.426.905-7.238 3.406zm248.831-116.999l7.239-3.406.426.905-7.239 3.406zM128.967 387.452l7.166-3.557.445.896-7.166 3.557zM375.394 265.22l7.165-3.558.445.896-7.166 3.557zM130.328 390.13l7.09-3.706.463.886-7.09 3.707zM374.12 262.685l7.089-3.706.463.886-7.09 3.707zM131.752 392.689l7.01-3.854.483.876-7.01 3.854zm241.03-132.429l7.01-3.854.482.877-7.01 3.854zm-238.085 137.6l6.843-4.144.518.855-6.843 4.144zm235.246-142.394l6.843-4.144.518.855-6.843 4.144zM136.254 400.413l6.754-4.287.536.844-6.754 4.287zm232.17-147.388l6.755-4.286.535.844-6.754 4.286zM137.892 402.871l6.664-4.427.553.833-6.663 4.427zm228.994-152.166l6.663-4.427.553.833-6.663 4.427zm-227.354 154.64l6.569-4.566.57.821-6.569 4.566zm225.763-156.971l6.569-4.565.57.82-6.569 4.566zM142.983 410.1l6.372-4.836.605.796-6.372 4.837zm219.042-166.18l6.372-4.837.605.796-6.372 4.837zM144.74 412.53l6.27-4.969.621.784-6.27 4.969zm215.601-170.846l6.27-4.97.621.784-6.27 4.97zm-213.693 173.06l6.164-5.1.637.771-6.164 5.1zm211.88-175.156l6.164-5.099.638.77-6.164 5.1zM148.511 417.06l6.056-5.227.654.757-6.056 5.227zm208.258-179.636l6.056-5.227.653.757-6.056 5.227zM152.5 421.478l5.833-5.476.684.73-5.832 5.475zm200.468-188.165l5.832-5.476.685.73-5.832 5.475zM154.598 423.62l5.716-5.597.7.714-5.716 5.598zm196.426-192.358l5.716-5.598.7.715-5.716 5.597zM156.632 425.729l5.597-5.716.715.7-5.598 5.715zm192.461-196.432l5.597-5.716.715.7-5.598 5.716zM158.771 427.74l5.476-5.831.73.684-5.477 5.832zM347.02 227.36l5.476-5.832.73.684-5.477 5.832zM163.2 431.753l5.228-6.056.757.653-5.227 6.056zm179.608-208.119l5.227-6.056.757.653-5.227 6.056zM165.404 433.636l5.099-6.164.77.638-5.099 6.164zm175.302-211.755l5.099-6.164.77.638-5.099 6.164zM167.749 435.58l4.968-6.27.784.622-4.969 6.27zm170.73-215.546l4.969-6.27.783.621-4.969 6.27zM170.04 437.372l4.836-6.372.797.605-4.837 6.372zM336.308 218.41l4.837-6.371.796.604-4.836 6.372zm-161.52 222.517l4.565-6.568.821.57-4.565 6.569zm156.999-225.84l4.565-6.569.821.571-4.565 6.569zM177.244 442.582l4.427-6.664.833.554-4.427 6.663zm152.243-229.037l4.427-6.664.833.554-4.427 6.663zM179.733 444.22l4.286-6.754.844.536-4.286 6.754zm147.372-232.225l4.286-6.754.844.535-4.286 6.755zm-144.818 233.73l4.144-6.843.855.518-4.144 6.843zm142.436-235.161l4.144-6.843.856.518-4.144 6.843zM187.426 448.746l3.854-7.01.877.482-3.855 7.01zm132.437-240.93l3.854-7.01.876.481-3.854 7.01zm-129.82 242.372l3.706-7.09.886.463-3.706 7.09zm127.321-243.745l3.707-7.09.886.464-3.706 7.09zM192.676 451.491l3.557-7.165.896.444-3.557 7.166zm122.169-246.278l3.557-7.166.896.445-3.557 7.165zM195.298 452.788l3.407-7.238.904.426-3.406 7.238zm117.085-248.737l3.407-7.238.905.426-3.407 7.238zm-111.63 251.217l3.1-7.375.922.387-3.1 7.375zM307.241 201.69l3.1-7.374.922.387-3.1 7.375zM203.416 456.331l2.945-7.438.93.368-2.945 7.438zm101.296-255.62l2.945-7.438.93.368-2.945 7.438zm-98.458 256.73l2.79-7.498.937.349-2.79 7.498zm95.791-257.724l2.79-7.498.937.348-2.79 7.499zm-92.982 258.756l2.63-7.556.945.33-2.63 7.555zm90.331-259.71l2.631-7.555.945.329-2.631 7.555zM214.59 460.257l2.312-7.659.957.29-2.312 7.658zm79.522-263.155l2.312-7.658.957.289-2.312 7.658zM217.44 461.15l2.15-7.706.964.269-2.152 7.705zm74.02-264.895l2.152-7.705.963.269-2.151 7.705zM220.354 461.94l1.99-7.748.968.249-1.99 7.749zm68.35-266.383l1.99-7.749.968.249-1.99 7.749zm-65.45 267.117l1.827-7.789.973.229-1.827 7.789zm62.73-267.767l1.828-7.789.973.229-1.827 7.789zm-56.951 269.04l1.499-7.859.982.188-1.499 7.858zm51.471-270.217l1.499-7.859.982.188-1.5 7.858zm-48.556 270.692l1.335-7.888.986.167-1.335 7.888zm45.802-271.105l1.334-7.888.986.167-1.334 7.888zM234.825 464.92l1.168-7.914.99.146-1.17 7.914zm40.219-272.075l1.169-7.914.99.146-1.17 7.914zm-37.301 272.429l1.003-7.936.992.125-1.003 7.937zm34.493-272.751l1.002-7.937.992.125-1.002 7.937zm-28.589 273.43l.67-7.972.996.084-.67 7.972zm23.044-274.021l.67-7.972.996.083-.67 7.972zM246.577 466.16l.503-7.983.998.062-.503 7.984zm17.328-274.386l.502-7.984.998.063-.502 7.984zm-14.322 274.629l.335-7.992 1 .041-.336 7.993zm11.485-274.843l.335-7.994.999.042-.335 7.993zm-8.493 274.915l.168-7.999 1 .021-.168 7.999zm5.695-274.982l.167-7.999 1 .021-.167 7.999zm.052 267.027l1-.021.167 7.998-1 .021zm-5.802-275.005l1-.02.168 7.998-1 .02zm8.608 274.897l.999-.042.335 7.993-1 .042zm-11.602-274.79l1-.042.335 7.993-1 .042zm14.315 274.608l.998-.064.502 7.984-.998.063zm-17.196-274.398l.998-.063.502 7.984-.998.063zm20.023 274.228l.996-.084.67 7.972-.997.084zM243.67 184.057l.997-.084.67 7.972-.997.084zM272.182 457.5l.992-.124 1.002 7.936-.992.126zm-34.387-272.805l.992-.125 1.002 7.937-.992.125zm37.238 272.427l.989-.146 1.169 7.914-.99.147zm-40.198-272.003l.989-.146 1.169 7.914-.99.146zm42.925 271.618l.986-.167 1.334 7.888-.986.167zm-45.818-271.209l.986-.167 1.334 7.888-.986.167zm48.636 270.73l.982-.188 1.5 7.859-.983.187zM228.96 186.07l.982-.188 1.5 7.859-.983.187zm57.076 269.044l.973-.228 1.827 7.788-.973.229zm-62.83-267.8l.974-.228 1.827 7.788-.973.229zm65.529 267.139l.969-.249 1.99 7.749-.97.249zm-68.413-266.4l.968-.249 1.99 7.749-.969.249zM291.435 453.7l.963-.27 2.151 7.706-.963.269zm-73.978-264.802l.964-.269 2.15 7.706-.962.269zm76.581 264.032l.957-.29 2.312 7.658-.957.29zm-79.376-263.225l.958-.29 2.312 7.66-.958.288zm84.789 261.586l.945-.329 2.631 7.555-.944.33zM209.007 191.48l.944-.328 2.631 7.555-.944.329zm93.058 258.853l.937-.348 2.79 7.498-.938.349zm-95.829-257.819l.937-.348 2.79 7.498-.938.349zm98.408 256.778l.93-.368 2.944 7.439-.93.368zM203.478 193.665l.93-.368 2.944 7.438-.93.368zM307.31 448.318l.921-.388 3.1 7.375-.922.388zM200.678 194.726l.922-.387 3.1 7.375-.922.388zm111.666 251.269l.904-.425 3.407 7.238-.905.426zM195.345 197.164l.905-.426 3.406 7.238-.905.426zm119.531 247.694l.895-.445 3.557 7.166-.895.444zM192.643 198.432l.896-.445 3.556 7.166-.895.444zM317.427 443.58l.886-.463 3.706 7.09-.886.463zM189.982 199.79l.886-.464 3.706 7.09-.886.463zm129.88 242.446l.876-.481 3.855 7.01-.877.482zM187.434 201.207l.876-.482 3.855 7.01-.877.482zm137.264 238.272l.855-.518 4.144 6.843-.855.518zM182.304 204.233l.855-.518 4.144 6.843-.855.518zm144.809 233.741l.844-.536 4.286 6.754-.844.536zM179.725 205.803l.844-.536 4.287 6.755-.845.536zm149.725 230.63l.833-.554 4.428 6.663-.833.554zM177.284 207.44l.833-.554 4.427 6.663-.833.554zm154.491 227.43l.821-.57 4.566 6.568-.821.57zM174.804 209.107l.822-.57 4.565 6.568-.82.57zm161.462 222.52l.797-.604 4.837 6.372-.797.604zm-166.18-219.041l.796-.605 4.837 6.372-.797.605zM338.533 429.99l.784-.62 4.969 6.27-.784.62zm-170.846-215.6l.783-.622 4.97 6.27-.785.621zm172.945 213.789l.77-.638 5.1 6.164-.771.638zM165.476 216.298l.77-.637 5.1 6.164-.77.637zM342.82 426.434l.757-.653 5.228 6.056-.757.653zM163.185 218.177l.757-.654 5.227 6.056-.757.654zm183.788 204.505l.729-.684 5.476 5.832-.73.684zM158.808 222.215l.729-.685 5.476 5.832-.73.685zm190.234 198.49l.715-.7 5.597 5.716-.714.7zM156.684 224.278l.714-.7 5.598 5.716-.715.7zm194.342 194.516l.7-.715 5.716 5.598-.7.714zM154.595 226.333l.7-.715 5.716 5.598-.7.714zM352.93 416.728l.685-.73 5.832 5.477-.685.729zM152.55 228.479l.684-.73 5.832 5.477-.684.729zM356.701 412.56l.653-.757 6.056 5.228-.653.757zM148.582 232.954l.654-.757 6.056 5.227-.654.757zm209.884 177.528l.638-.77 6.164 5.099-.638.77zM146.711 235.18l.638-.77 6.164 5.099-.638.77zm213.607 173.075l.62-.783 6.27 4.968-.62.784zm-215.547-170.73l.621-.784 6.27 4.97-.621.783zm217.212 168.597l.605-.797 6.372 4.837-.605.797zM143.021 239.853l.605-.796 6.372 4.837-.605.796zM365.33 401.636l.572-.822 6.568 4.566-.57.821zm-225.84-157l.571-.82 6.57 4.565-.572.821zm227.415 154.696l.554-.832 6.663 4.427-.553.833zM137.869 247.09l.553-.833 6.663 4.427-.553.833zm230.583 149.873l.535-.844 6.755 4.286-.536.845zM136.226 249.591l.536-.844 6.755 4.286-.536.845zm233.679 144.965l.518-.855 6.843 4.144-.518.855zM134.743 252.12l.518-.856 6.844 4.144-.518.855zm237.986 137.626l.481-.876 7.01 3.854-.48.876zM131.799 257.31l.481-.877 7.01 3.854-.481.877zm242.297 129.943l.463-.886 7.09 3.706-.464.886zM130.351 259.931l.464-.886 7.09 3.707-.464.886zm244.97 124.814l.445-.895 7.166 3.557-.445.895zM129.043 262.576l.444-.895 7.166 3.557-.445.895zm247.49 119.729l.426-.904 7.238 3.406-.426.905zM127.796 265.22l.426-.905 7.238 3.407-.426.905zm251.119 111.92l.388-.922 7.375 3.1-.388.922zM125.338 270.653l.388-.922 7.375 3.1-.388.922zm254.57 103.973l.368-.93 7.439 2.945-.368.93zM124.288 273.33l.368-.929 7.438 2.945-.368.93zm256.664 98.644l.348-.937 7.499 2.789-.349.937zm-257.725-95.791l.349-.937 7.498 2.789-.348.937zm258.702 93.144l.329-.944 7.555 2.63-.329.945zM122.22 278.996l.328-.945 7.555 2.631-.329.945zm261.37 85.082l.288-.957 7.659 2.312-.29.957zm-263.156-79.522l.29-.957 7.658 2.312-.29.957zM384.467 361.4l.269-.963 7.705 2.152-.269.963zm-264.894-74.02l.269-.964 7.705 2.151-.268.963zm265.628 71.284l.249-.97 7.749 1.99-.249.97zm-266.384-68.351l.249-.968 7.749 1.99-.249.968zm267.077 65.636l.229-.974 7.789 1.828-.229.973zm-267.767-62.731l.229-.973 7.789 1.827-.229.973zm268.967 57.262l.188-.983 7.858 1.5-.187.982zm-270.216-51.471l.187-.982 7.858 1.499-.187.982zm270.657 48.727l.166-.986 7.888 1.334-.166.986zM116.43 301.934l.166-.986 7.888 1.335-.167.986zm271.59 43.084l.147-.989 7.914 1.169-.146.99zm-272.074-40.219l.146-.99 7.914 1.17-.146.989zm272.385 37.435l.126-.992 7.937 1.002-.126.992zM115.58 307.741l.125-.992 7.937 1.003-.125.992zm273.405 28.943l.084-.997 7.972.67-.084.996zM114.964 313.64l.083-.997 7.972.67-.083.996zm274.197 20.279l.063-.998 7.984.502-.063.998zM114.775 316.59l.063-.997 7.984.502-.063.998zm274.622 14.49l.042-.999 7.993.335-.042 1zm-274.844-11.484l.042-1 7.993.336-.042.999zm274.935 8.662l.02-1 7.999.168-.021 1zm-274.982-5.694l.02-1 8 .168-.022 1z"/><path class="st1" d="M256 467c-78.3 0-142-63.7-142-142s63.7-142 142-142 142 63.7 142 142-63.7 142-142 142zm0-283c-77.7 0-141 63.3-141 141s63.3 141 141 141 141-63.3 141-141-63.3-141-141-141z"/><path class="st1" d="M313 228.4l1.2-10.8h11.5v3.1h-8.5l-.6 5.1c1-.6 2.1-.8 3.3-.8 2 0 3.6.6 4.7 1.9 1.1 1.3 1.7 3 1.7 5.2s-.6 3.9-1.9 5.2-3 1.9-5.1 1.9c-2 0-3.6-.6-4.9-1.7s-2-2.6-2.1-4.4h3.4c.1 1 .5 1.8 1.1 2.4s1.4.8 2.4.8c1.1 0 1.9-.4 2.6-1.2.6-.8.9-1.8.9-3.2 0-1.3-.3-2.3-1-3.1s-1.6-1.1-2.8-1.1c-.6 0-1.2.1-1.6.3s-.9.5-1.5 1l-2.8-.6zm-130 0l1.2-10.8h11.5v3.1h-8.5l-.6 5.1c1-.6 2.1-.8 3.3-.8 2 0 3.6.6 4.7 1.9 1.1 1.3 1.7 3 1.7 5.2s-.6 3.9-1.9 5.2-3 1.9-5.1 1.9c-2 0-3.6-.6-4.9-1.7s-2-2.6-2.1-4.4h3.4c.1 1 .5 1.8 1.1 2.4s1.4.8 2.4.8c1.1 0 1.9-.4 2.6-1.2.6-.8.9-1.8.9-3.2 0-1.3-.3-2.3-1-3.1s-1.6-1.1-2.8-1.1c-.6 0-1.2.1-1.6.3s-.9.5-1.5 1l-2.8-.6zm17.1 0l1.2-10.8h11.5v3.1h-8.5l-.6 5.1c1-.6 2.1-.8 3.3-.8 2 0 3.6.6 4.7 1.9 1.1 1.3 1.7 3 1.7 5.2s-.6 3.9-1.9 5.2-3 1.9-5.1 1.9c-2 0-3.6-.6-4.9-1.7s-2-2.6-2.1-4.4h3.4c.1 1 .5 1.8 1.1 2.4s1.4.8 2.4.8c1.1 0 1.9-.4 2.6-1.2.6-.8.9-1.8.9-3.2 0-1.3-.3-2.3-1-3.1s-1.6-1.1-2.8-1.1c-.6 0-1.2.1-1.6.3s-.9.5-1.5 1l-2.8-.6zM343.7 282h-3.5v-17.1l-5.2 1.8v-3l8.3-3.1h.5V282zm21.3-9c0 3.1-.6 5.4-1.7 6.9-1.1 1.6-2.9 2.3-5.2 2.3-2.3 0-4-.8-5.2-2.3-1.2-1.5-1.8-3.8-1.8-6.7v-3.7c0-3.1.6-5.4 1.7-6.9s2.9-2.3 5.3-2.3c2.3 0 4.1.7 5.2 2.2s1.7 3.7 1.8 6.7v3.8zm-3.5-4c0-2-.3-3.5-.8-4.4-.5-.9-1.4-1.4-2.6-1.4-1.2 0-2 .4-2.6 1.3-.5.9-.8 2.3-.9 4.1v4.8c0 2 .3 3.5.8 4.5s1.4 1.5 2.6 1.5c1.1 0 2-.5 2.5-1.4.5-.9.8-2.3.9-4.2V269zM151 271.4l1.2-10.8h11.5v3.1h-8.5l-.6 5.1c1-.6 2.1-.8 3.3-.8 2 0 3.6.6 4.7 1.9 1.1 1.3 1.7 3 1.7 5.2s-.6 3.9-1.9 5.2c-1.3 1.3-3 1.9-5.1 1.9-2 0-3.6-.6-4.9-1.7-1.3-1.1-2-2.6-2.1-4.4h3.4c.1 1 .5 1.8 1.1 2.4.6.6 1.4.8 2.4.8 1.1 0 1.9-.4 2.6-1.2.6-.8.9-1.8.9-3.2 0-1.3-.3-2.3-1-3.1-.7-.8-1.6-1.1-2.8-1.1-.6 0-1.2.1-1.6.3-.4.2-.9.5-1.5 1l-2.8-.6zm30 1.6c0 3.1-.6 5.4-1.7 6.9-1.1 1.6-2.9 2.3-5.2 2.3-2.3 0-4-.8-5.2-2.3-1.2-1.5-1.8-3.8-1.8-6.7v-3.7c0-3.1.6-5.4 1.7-6.9s2.9-2.3 5.3-2.3c2.3 0 4.1.7 5.2 2.2s1.7 3.7 1.8 6.7v3.8zm-3.5-4c0-2-.3-3.5-.8-4.4-.5-.9-1.4-1.4-2.6-1.4-1.2 0-2 .4-2.6 1.3-.5.9-.8 2.3-.9 4.1v4.8c0 2 .3 3.5.8 4.5s1.4 1.5 2.6 1.5c1.1 0 2-.5 2.5-1.4.5-.9.8-2.3.9-4.2V269zm182.2 67h-3.5v-17.1l-5.2 1.8v-3l8.3-3.1h.5V336zm8.4-10.6l1.2-10.8h11.5v3.1h-8.5l-.6 5.1c1-.6 2.1-.8 3.3-.8 2 0 3.6.6 4.7 1.9 1.1 1.3 1.7 3 1.7 5.2s-.6 3.9-1.9 5.2c-1.3 1.3-3 1.9-5.1 1.9-2 0-3.6-.6-4.9-1.7-1.3-1.1-2-2.6-2.1-4.4h3.4c.1 1 .5 1.8 1.1 2.4.6.6 1.4.8 2.4.8 1.1 0 1.9-.4 2.6-1.2.6-.8.9-1.8.9-3.2 0-1.3-.3-2.3-1-3.1-.7-.8-1.6-1.1-2.8-1.1-.6 0-1.2.1-1.6.3-.4.2-.9.5-1.5 1l-2.8-.6zm-222 3h2.7v2.9h-2.7v4.7h-3.6v-4.7h-9.2l-.1-2.2 9.2-14.4h3.7v13.7zm-9.1 0h5.6v-8.9l-.3.5-5.3 8.4zm15.1-3l1.2-10.8h11.5v3.1h-8.5l-.6 5.1c1-.6 2.1-.8 3.3-.8 2 0 3.6.6 4.7 1.9 1.1 1.3 1.7 3 1.7 5.2s-.6 3.9-1.9 5.2c-1.3 1.3-3 1.9-5.1 1.9-2 0-3.6-.6-4.9-1.7-1.3-1.1-2-2.6-2.1-4.4h3.4c.1 1 .5 1.8 1.1 2.4.6.6 1.4.8 2.4.8 1.1 0 1.9-.4 2.6-1.2.6-.8.9-1.8.9-3.2 0-1.3-.3-2.3-1-3.1-.7-.8-1.6-1.1-2.8-1.1-.6 0-1.2.1-1.6.3-.4.2-.9.5-1.5 1l-2.8-.6zM346.4 388h-14.3v-2.4l7.1-7.7c1-1.1 1.8-2.1 2.2-2.9.4-.8.7-1.5.7-2.3 0-1-.3-1.8-.9-2.5-.6-.6-1.3-.9-2.3-.9-1.2 0-2 .4-2.7 1.1s-1 1.7-1 2.9h-3.6c0-1.3.3-2.5.9-3.5.6-1 1.4-1.8 2.5-2.4 1.1-.6 2.4-.9 3.8-.9 2.1 0 3.7.5 4.9 1.6 1.2 1 1.8 2.5 1.8 4.3 0 1.1-.3 2.2-.9 3.3-.6 1.2-1.6 2.5-3 4l-5.2 5.6h9.9v2.7zm16.6-9c0 3.1-.6 5.4-1.7 6.9-1.1 1.6-2.9 2.3-5.2 2.3-2.3 0-4-.8-5.2-2.3-1.2-1.5-1.8-3.8-1.8-6.7v-3.7c0-3.1.6-5.4 1.7-6.9s2.9-2.3 5.3-2.3c2.3 0 4.1.7 5.2 2.2s1.7 3.7 1.8 6.7v3.8zm-3.5-4c0-2-.3-3.5-.8-4.4-.5-.9-1.4-1.4-2.6-1.4-1.2 0-2 .4-2.6 1.3-.5.9-.8 2.3-.9 4.1v4.8c0 2 .3 3.5.8 4.5s1.4 1.5 2.6 1.5c1.1 0 2-.5 2.5-1.4.5-.9.8-2.3.9-4.2V375zm-195.4 5.4h2.7v2.9h-2.7v4.7h-3.6v-4.7h-9.2l-.1-2.2 9.2-14.4h3.7v13.7zm-9.1 0h5.6v-8.9l-.3.5-5.3 8.4zm28-1.4c0 3.1-.6 5.4-1.7 6.9-1.1 1.6-2.9 2.3-5.2 2.3-2.3 0-4-.8-5.2-2.3-1.2-1.5-1.8-3.8-1.8-6.7v-3.7c0-3.1.6-5.4 1.7-6.9s2.9-2.3 5.3-2.3c2.3 0 4.1.7 5.2 2.2s1.7 3.7 1.8 6.7v3.8zm-3.5-4c0-2-.3-3.5-.8-4.4-.5-.9-1.4-1.4-2.6-1.4-1.2 0-2 .4-2.6 1.3-.5.9-.8 2.3-.9 4.1v4.8c0 2 .3 3.5.8 4.5s1.4 1.5 2.6 1.5c1.1 0 2-.5 2.5-1.4.5-.9.8-2.3.9-4.2V375zm131.9 54h-14.3v-2.4l7.1-7.7c1-1.1 1.8-2.1 2.2-2.9.4-.8.7-1.5.7-2.3 0-1-.3-1.8-.9-2.5-.6-.6-1.3-.9-2.3-.9-1.2 0-2 .4-2.7 1.1s-1 1.7-1 2.9h-3.6c0-1.3.3-2.5.9-3.5.6-1 1.4-1.8 2.5-2.4 1.1-.6 2.4-.9 3.8-.9 2.1 0 3.7.5 4.9 1.6 1.2 1 1.8 2.5 1.8 4.3 0 1.1-.3 2.2-.9 3.3-.6 1.2-1.6 2.5-3 4l-5.2 5.6h9.9v2.7zm3.7-10.6l1.2-10.8h11.5v3.1h-8.5l-.6 5.1c1-.6 2.1-.8 3.3-.8 2 0 3.6.6 4.7 1.9 1.1 1.3 1.7 3 1.7 5.2s-.6 3.9-1.9 5.2c-1.3 1.3-3 1.9-5.1 1.9-2 0-3.6-.6-4.9-1.7-1.3-1.1-2-2.6-2.1-4.4h3.4c.1 1 .5 1.8 1.1 2.4.6.6 1.4.8 2.4.8 1.1 0 1.9-.4 2.6-1.2.6-.8.9-1.8.9-3.2 0-1.3-.3-2.3-1-3.1-.7-.8-1.6-1.1-2.8-1.1-.6 0-1.2.1-1.6.3-.4.2-.9.5-1.5 1l-2.8-.6zm-122.9-1.7h2.2c1.1 0 2-.3 2.6-.8s1-1.4 1-2.4-.3-1.8-.8-2.4c-.5-.6-1.3-.8-2.4-.8-1 0-1.7.3-2.4.8-.6.6-.9 1.3-.9 2.2h-3.6c0-1.1.3-2.1.9-3 .6-.9 1.4-1.6 2.4-2.1s2.2-.8 3.5-.8c2.1 0 3.8.5 5 1.6 1.2 1.1 1.8 2.6 1.8 4.5 0 1-.3 1.9-.9 2.7-.6.8-1.4 1.5-2.4 1.9 1.2.4 2.1 1 2.7 1.9.6.9.9 1.9.9 3.1 0 1.9-.7 3.4-2 4.6-1.3 1.1-3 1.7-5.2 1.7-2.1 0-3.7-.5-5-1.6s-2-2.5-2-4.4h3.6c0 .9.3 1.7.9 2.3.6.6 1.5.9 2.5.9 1.1 0 2-.3 2.6-.9s1-1.4 1-2.5-.3-2-1-2.6-1.7-.9-3-.9h-2.1v-3zm13.9 1.7l1.2-10.8h11.5v3.1h-8.5l-.6 5.1c1-.6 2.1-.8 3.3-.8 2 0 3.6.6 4.7 1.9 1.1 1.3 1.7 3 1.7 5.2s-.6 3.9-1.9 5.2c-1.3 1.3-3 1.9-5.1 1.9-2 0-3.6-.6-4.9-1.7-1.3-1.1-2-2.6-2.1-4.4h3.4c.1 1 .5 1.8 1.1 2.4.6.6 1.4.8 2.4.8 1.1 0 1.9-.4 2.6-1.2.6-.8.9-1.8.9-3.2 0-1.3-.3-2.3-1-3.1-.7-.8-1.6-1.1-2.8-1.1-.6 0-1.2.1-1.6.3-.4.2-.9.5-1.5 1l-2.8-.6zm38.6 13.3h2.2c1.1 0 2-.3 2.6-.8s1-1.4 1-2.4-.3-1.8-.8-2.4c-.5-.6-1.3-.8-2.4-.8-1 0-1.7.3-2.4.8-.6.6-.9 1.3-.9 2.2h-3.6c0-1.1.3-2.1.9-3 .6-.9 1.4-1.6 2.4-2.1s2.2-.8 3.5-.8c2.1 0 3.8.5 5 1.6 1.2 1.1 1.8 2.6 1.8 4.5 0 1-.3 1.9-.9 2.7-.6.8-1.4 1.5-2.4 1.9 1.2.4 2.1 1 2.7 1.9.6.9.9 1.9.9 3.1 0 1.9-.7 3.4-2 4.6-1.3 1.1-3 1.7-5.2 1.7-2.1 0-3.7-.5-5-1.6s-2-2.5-2-4.4h3.6c0 .9.3 1.7.9 2.3.6.6 1.5.9 2.5.9 1.1 0 2-.3 2.6-.9s1-1.4 1-2.5-.3-2-1-2.6-1.7-.9-3-.9h-2.1v-3zm26.8 3.3c0 3.1-.6 5.4-1.7 6.9-1.1 1.6-2.9 2.3-5.2 2.3-2.3 0-4-.8-5.2-2.3-1.2-1.5-1.8-3.8-1.8-6.7v-3.7c0-3.1.6-5.4 1.7-6.9s2.9-2.3 5.3-2.3c2.3 0 4.1.7 5.2 2.2s1.7 3.7 1.8 6.7v3.8zm-3.6-4c0-2-.3-3.5-.8-4.4-.5-.9-1.4-1.4-2.6-1.4-1.2 0-2 .4-2.6 1.3-.5.9-.8 2.3-.9 4.1v4.8c0 2 .3 3.5.8 4.5s1.4 1.5 2.6 1.5c1.1 0 2-.5 2.5-1.4.5-.9.8-2.3.9-4.2V431z"/><circle class="st0" cx="256" cy="251" r="57"/><path class="st1" d="M256 308.5c-31.7 0-57.5-25.8-57.5-57.5s25.8-57.5 57.5-57.5 57.5 25.8 57.5 57.5-25.8 57.5-57.5 57.5zm0-114c-31.2 0-56.5 25.3-56.5 56.5s25.3 56.5 56.5 56.5 56.5-25.3 56.5-56.5-25.3-56.5-56.5-56.5z"/><path class="st1" d="M198.5 250h15v2h-15zm100 0h15v2h-15zm-72.112-48.286l1.732-1 7.498 12.992-1.732 1zm49.983 86.593l1.732-1.002 7.51 12.984-1.731 1.002zm.006-74.612l7.5-12.99 1.732 1-7.5 12.99zm-50.004 86.593l7.5-12.99 1.732 1-7.5 12.99zM255 300.5h2v8h-2zm0-107h2v8h-2zm-55.744 62.968l6.961-.731.105.994-6.962.731zm106.396-11.195l6.962-.732.104.995-6.961.731zm-44.93 55.499l.994-.105.732 6.962-.995.104zm-11.195-106.397l.994-.104.732 6.961-.995.105zm-49.373 67.948l6.847-1.456.208.978-6.847 1.456zm104.606-22.186l6.847-1.456.208.979-6.846 1.455zm-38.899 59.838l.978-.208 1.455 6.847-.978.208zm-22.186-104.607l.978-.207 1.456 6.846-.978.208zm-42.063 72.76l6.658-2.163.309.952-6.658 2.163zm101.823-33.014l6.658-2.163.309.951-6.658 2.163zm-32.478 63.639l.951-.31 2.163 6.658-.951.31zM237.943 196.93l.95-.31 2.164 6.658-.951.31zm-34.245 76.839l6.395-2.847.407.913-6.395 2.847zm97.761-43.609l6.394-2.846.407.913-6.394 2.847zm-25.556 66.724l.914-.406 2.846 6.394-.913.407zm-43.608-97.76l.913-.407 2.847 6.395-.913.406zm-26.548 79.789l6.928-4 1 1.732-6.928 4zm92.559-53.551l6.928-4 1 1.732-6.928 4zm-88.755 58.702l5.663-4.115.588.81-5.663 4.114zm86.646-62.839l5.663-4.114.588.809-5.663 4.114zm-11.24 70.552l.809-.588 4.114 5.663-.809.588zm-62.839-86.645l.81-.588 4.114 5.663-.81.588zm-8.86 83.66l5.201-4.684.67.743-5.202 4.684zm79.575-71.65l5.202-4.683.669.743-5.202 4.683zm-3.741 71.376l.743-.67 4.684 5.203-.743.669zm-71.649-79.575l.743-.67 4.684 5.202-.744.67zm.055 84.112l4.684-5.202.743.669-4.683 5.202zm71.539-79.569l4.683-5.202.744.669-4.684 5.202zm3.793 71.317l.67-.743 5.2 4.683-.668.743zm-79.569-71.539l.67-.743 5.2 4.684-.668.743zm8.871 83.537l4.114-5.663.81.588-4.115 5.663zm62.812-86.511l4.115-5.662.809.587-4.115 5.663zm11.186 70.472l.587-.81 5.663 4.115-.588.81zm-86.511-62.812l.588-.81 5.663 4.115-.588.809zm88.771 58.718l1-1.73 6.926 4.005-1.002 1.73zm-92.712-53.615l1-1.732 6.929 4-1 1.731zm26.666 79.862l2.847-6.395.914.407-2.847 6.395zm43.51-97.837l2.847-6.394.913.406-2.847 6.395zm25.643 66.712l.407-.913 6.394 2.847-.406.914zm-97.837-43.509l.407-.914 6.394 2.847-.406.914zm34.287 76.734l2.163-6.657.951.309-2.163 6.657zm33.005-101.712l2.163-6.658.951.309-2.163 6.658zm32.428 63.578l.308-.951 6.658 2.163-.309.951zm-101.713-33.005l.309-.95 6.658 2.162-.31.951zm41.95 72.754l1.456-6.847.978.208-1.455 6.846zm22.303-104.602l1.455-6.847.978.208-1.455 6.847zm38.838 59.894l.208-.978 6.847 1.455-.208.978zM200.157 239.62l.208-.978 6.847 1.455-.208.978zm49.366 68.02l.732-6.962.994.104-.731 6.962zm11.202-106.425l.732-6.962.994.105-.731 6.961zm44.942 55.515l.104-.994 6.962.732-.105.994zm-106.425-11.201l.105-.995 6.961.732-.104.995zM286.4 239.5h-1.7v-8l-2.4.8v-1.4l3.9-1.4h.2v10zm10-4.2c0 1.4-.3 2.5-.8 3.2-.5.7-1.4 1.1-2.4 1.1-1.1 0-1.9-.4-2.4-1.1-.5-.7-.8-1.8-.8-3.1v-1.7c0-1.4.3-2.5.8-3.2.5-.7 1.4-1.1 2.5-1.1s1.9.3 2.4 1 .8 1.7.8 3.1v1.8zm-1.7-1.8c0-.9-.1-1.6-.4-2.1s-.7-.7-1.2-.7-.9.2-1.2.6-.4 1.1-.4 1.9v2.3c0 .9.1 1.6.4 2.1s.7.7 1.2.7.9-.2 1.2-.6.4-1.1.4-2v-2.2zm-76.3 1.1l.5-5h5.3v1.4h-4l-.3 2.4c.5-.3 1-.4 1.6-.4.9 0 1.7.3 2.2.9.5.6.8 1.4.8 2.4s-.3 1.8-.9 2.4-1.4.9-2.4.9c-.9 0-1.7-.3-2.3-.8-.6-.5-.9-1.2-1-2h1.6c.1.5.2.9.5 1.1s.7.4 1.1.4c.5 0 .9-.2 1.2-.5.3-.4.4-.9.4-1.5s-.2-1.1-.5-1.4-.7-.5-1.3-.5c-.3 0-.6 0-.8.1s-.4.2-.7.5l-1-.4zm14 .7c0 1.4-.3 2.5-.8 3.2-.5.7-1.4 1.1-2.4 1.1-1.1 0-1.9-.4-2.4-1.1-.5-.7-.8-1.8-.8-3.1v-1.7c0-1.4.3-2.5.8-3.2.5-.7 1.4-1.1 2.5-1.1s1.9.3 2.4 1 .8 1.7.8 3.1v1.8zm-1.7-1.8c0-.9-.1-1.6-.4-2.1s-.7-.7-1.2-.7-.9.2-1.2.6-.4 1.1-.4 1.9v2.3c0 .9.1 1.6.4 2.1s.7.7 1.2.7.9-.2 1.2-.6.4-1.1.4-2v-2.2zm57.9 41h-6.7v-1.1l3.3-3.6c.5-.5.8-1 1-1.3.2-.4.3-.7.3-1.1 0-.5-.1-.9-.4-1.1-.3-.3-.6-.4-1.1-.4-.5 0-1 .2-1.3.5s-.4.8-.4 1.3h-1.7c0-.6.1-1.2.4-1.6.3-.5.7-.9 1.2-1.1.5-.3 1.1-.4 1.8-.4 1 0 1.7.2 2.3.7.6.5.8 1.2.8 2 0 .5-.1 1-.4 1.6-.3.5-.7 1.2-1.4 1.9l-2.4 2.6h4.6v1.1zm7.8-4.2c0 1.4-.3 2.5-.8 3.2-.5.7-1.4 1.1-2.4 1.1-1.1 0-1.9-.4-2.4-1.1-.5-.7-.8-1.8-.8-3.1v-1.7c0-1.4.3-2.5.8-3.2.5-.7 1.4-1.1 2.5-1.1s1.9.3 2.4 1 .8 1.7.8 3.1v1.8zm-1.7-1.8c0-.9-.1-1.6-.4-2.1-.3-.4-.7-.7-1.2-.7s-.9.2-1.2.6c-.3.4-.4 1.1-.4 1.9v2.3c0 .9.1 1.6.4 2.1s.7.7 1.2.7.9-.2 1.2-.6c.3-.4.4-1.1.4-2v-2.2zm-71.2 2.5h1.2v1.3h-1.2v2.2h-1.7v-2.2h-4.3v-1l4.3-6.7h1.7v6.4zm-4.2 0h2.6v-4.2l-.1.2-2.5 4zm13.1-.7c0 1.4-.3 2.5-.8 3.2-.5.7-1.4 1.1-2.4 1.1-1.1 0-1.9-.4-2.4-1.1-.5-.7-.8-1.8-.8-3.1v-1.7c0-1.4.3-2.5.8-3.2.5-.7 1.4-1.1 2.5-1.1s1.9.3 2.4 1 .8 1.7.8 3.1v1.8zm-1.7-1.8c0-.9-.1-1.6-.4-2.1-.3-.4-.7-.7-1.2-.7s-.9.2-1.2.6c-.3.4-.4 1.1-.4 1.9v2.3c0 .9.1 1.6.4 2.1s.7.7 1.2.7.9-.2 1.2-.6c.3-.4.4-1.1.4-2v-2.2zm23.3-59v1.4h-.2c-.9 0-1.7.3-2.2.8s-.9 1.2-1 2.1c.5-.6 1.2-.8 2-.8.9 0 1.6.3 2.1.9.5.6.8 1.4.8 2.4s-.3 1.8-.9 2.5c-.6.6-1.4.9-2.3.9-1 0-1.8-.4-2.4-1.1-.6-.7-.9-1.7-.9-2.9v-.6c0-1.7.4-3.1 1.3-4.1.9-1 2.1-1.5 3.7-1.5zm-1.8 4.8c-.4 0-.7.1-1 .3-.3.2-.5.5-.7.8v.5c0 .7.2 1.3.5 1.8s.7.7 1.2.7.9-.2 1.2-.6.4-.9.4-1.5-.1-1.1-.4-1.5-.7-.5-1.2-.5zm11 1c0 1.4-.3 2.5-.8 3.2-.5.7-1.4 1.1-2.4 1.1-1.1 0-1.9-.4-2.4-1.1-.5-.7-.8-1.8-.8-3.1v-1.7c0-1.4.3-2.5.8-3.2.5-.7 1.4-1.1 2.5-1.1s1.9.3 2.4 1 .8 1.7.8 3.1v1.8zm-1.6-1.8c0-.9-.1-1.6-.4-2.1s-.7-.7-1.2-.7-.9.2-1.2.6-.4 1.1-.4 1.9v2.3c0 .9.1 1.6.4 2.1s.7.7 1.2.7.9-.2 1.2-.6.4-1.1.4-2v-2.2zm-10.9 74.3h1c.5 0 .9-.1 1.2-.4.3-.3.4-.6.4-1.1 0-.5-.1-.8-.4-1.1-.2-.3-.6-.4-1.1-.4-.4 0-.8.1-1.1.4-.3.3-.4.6-.4 1h-1.7c0-.5.1-1 .4-1.4.3-.4.6-.7 1.1-1 .5-.2 1-.4 1.6-.4 1 0 1.8.3 2.3.7.6.5.9 1.2.9 2.1 0 .4-.1.9-.4 1.3-.3.4-.7.7-1.1.9.5.2 1 .5 1.2.9.3.4.4.9.4 1.4 0 .9-.3 1.6-.9 2.1-.6.5-1.4.8-2.4.8s-1.7-.3-2.4-.8-.9-1.2-.9-2h1.7c0 .4.1.8.4 1.1.3.3.7.4 1.2.4s.9-.1 1.2-.4.4-.7.4-1.2-.2-.9-.5-1.2-.8-.4-1.4-.4h-1v-1.3zm12.5 1.5c0 1.4-.3 2.5-.8 3.2-.5.7-1.4 1.1-2.4 1.1-1.1 0-1.9-.4-2.4-1.1-.5-.7-.8-1.8-.8-3.1v-1.7c0-1.4.3-2.5.8-3.2.5-.7 1.4-1.1 2.5-1.1s1.9.3 2.4 1 .8 1.7.8 3.1v1.8zm-1.6-1.8c0-.9-.1-1.6-.4-2.1-.3-.4-.7-.7-1.2-.7s-.9.2-1.2.6c-.3.4-.4 1.1-.4 1.9v2.3c0 .9.1 1.6.4 2.1s.7.7 1.2.7.9-.2 1.2-.6c.3-.4.4-1.1.4-2v-2.2z"/><circle class="st1" cx="256" cy="251" r="8.5"/><path class="st1" d="M255.7 191l-2.7 75h6l-2.7-75z"/><circle class="st1" cx="256" cy="325" r="8.5"/><path class="st1" d="M255.7 175L253 381h6l-2.7-206zm-16.2-82.5h33v65h-33z"/><path class="st1" d="M277.5 93.6h-43c-2.2 0-4-1.8-4-4V57c0-2.2 1.8-4 4-4h43c2.2 0 4 1.8 4 4v32.6c0 2.3-1.8 4-4 4z"/><g class="st3"><path class="st2" d="M250.5 53h4v40.6h-4zm-7 0h4v40.6h-4zm-7 0h4v40.6h-4zm42 .2v40.3c1.7-.4 3-2 3-3.9V57c0-1.8-1.3-3.4-3-3.8zm-45 0c-1.7.4-3 2-3 3.9v32.6c0 1.9 1.3 3.4 3 3.9V53.2zm24-.2h4v40.6h-4zm14 0h4v40.6h-4zm-7 0h4v40.6h-4z"/></g><path class="st1" d="M256 10c29.5 0 53.5 24 53.5 53.5S285.5 117 256 117s-53.5-24-53.5-53.5S226.5 10 256 10m0-10c-35.1 0-63.5 28.4-63.5 63.5S220.9 127 256 127s63.5-28.4 63.5-63.5S291.1 0 256 0zm74.183 124.109l25.398 11.303-16.752 37.64-25.398-11.303z"/><path class="st1" d="M358.5 137.8l-32-14.2c-2-.9-2.9-3.3-2-5.3l10.7-24c.9-2 3.3-2.9 5.3-2l32 14.2c2 .9 2.9 3.3 2 5.3l-10.7 24c-.9 2-3.3 2.9-5.3 2z"/><g class="st3"><path class="st2" d="M338.204 128.795L352.11 97.55l3.106 1.383-13.906 31.245zm-5.354-2.484l13.905-31.245 3.107 1.383-13.906 31.245zm-5.395-2.392l13.905-31.245 3.107 1.382-13.906 31.245zM373.7 107.2l-13.8 31.1c1.5.2 3-.5 3.6-1.9l11.2-25.1c.6-1.5.2-3.2-1-4.1zM339 91.8c-1.5-.2-3 .5-3.6 1.9l-11.2 25.1c-.6 1.4-.2 3.1 1 4l13.8-31zm4.6 39.388l13.905-31.245 3.106 1.382-13.905 31.245zm10.79 4.785l13.905-31.245 3.107 1.382-13.906 31.245zm-5.396-2.393l13.906-31.245 3.106 1.383-13.905 31.245z"/></g><path d="M254.5 53h-20c-1 0-1.9.4-2.6 1 0 0-.1 0-.1.1l-.3.3-.2.2c-.1.1-.1.2-.2.3-.1.1-.1.2-.2.3 0 .1-.1.2-.1.3-.1.1-.1.3-.1.4 0 .1 0 .2-.1.3 0 .2-.1.5-.1.7v32.6c0 .3 0 .5.1.7 0 .1 0 .2.1.3 0 .1.1.3.1.4 0 .1.1.2.1.3.1.1.1.2.2.3.1.1.1.2.2.3l.2.2.3.3s.1 0 .1.1c.7.6 1.6 1 2.6 1h5v20.7c-21.4-7-37-27.1-37-50.9 0-29.5 24-53.5 53.5-53.5V0c-35.1 0-63.5 28.4-63.5 63.5 0 29.4 19.9 54.1 47 61.3v13.9c-19.4 1.7-38.3 6.4-56.3 14-22.3 9.4-42.3 22.9-59.4 40.1-17.2 17.2-30.6 37.2-40.1 59.4C73.9 275.3 69 299.8 69 325c0 25.2 4.9 49.7 14.7 72.8 9.4 22.3 22.9 42.3 40.1 59.4 17.2 17.2 37.2 30.6 59.4 40.1 23.1 9.8 47.6 14.7 72.8 14.7V53h-1.5z" opacity=".15" fill="#444"/></svg>