<svg version="1.1" xmlns="http://www.w3.org/2000/svg" x="0" y="0" viewBox="0 0 512 512" xml:space="preserve"><circle cx="256" cy="469" r="43" fill="#ffa000"/><path d="m475.5 391.3-46.2-53a238.37 238.37 0 0 1-54-109.5L354 123.1c-2.1-10.5-9.7-19-19.8-22.4l-33.9-11.3-9.5-76.4c-1-7.4-7.4-13-14.9-13h-39.8c-7.5 0-13.9 5.6-14.8 13.1l-9.5 76.4-33.9 11.3c-10.1 3.4-17.7 11.9-19.8 22.4l-21.3 105.6c-8.2 40.6-26.8 78.3-54 109.5l-46.2 53c-4.7 5.4-7.3 12.4-7.3 19.6v51.2c0 8.2 6.7 14.9 14.9 14.9H468c8.2 0 14.9-6.7 14.9-14.9v-51.2c0-7.3-2.7-14.2-7.4-19.6zM256 63.4c-10.5 0-19.1-8.6-19.1-19.1s8.6-19.1 19.1-19.1 19.1 8.6 19.1 19.1-8.6 19.1-19.1 19.1z" fill="#eec646"/><path d="M36.5 391.3c-1.5 1.8-2.9 3.7-3.9 5.7h446.9c-1.1-2-2.4-4-3.9-5.7l-8.9-10.3H45.4l-8.9 10.3zm72.8-90.3c-3.2 5.5-6.5 10.8-10.1 16h313.6c-3.6-5.2-7-10.5-10.1-16H109.3zm-29 40-14 16h379.4l-14-16z" fill="#444" opacity=".15"/><path d="m334 154.9 9.6 51.1c.8 4.3-2.1 8.5-6.4 9.3-4.3.8-8.5-2.1-9.3-6.4l-9.6-51.1c-.8-4.3 2.1-8.5 6.4-9.3 4.3-.8 8.5 2.1 9.3 6.4zm8.5 88c-4.3.8-7.2 5-6.4 9.3l1.9 9.8c.8 4.3 5 7.2 9.3 6.4 4.3-.8 7.2-5 6.4-9.3l-1.9-9.8c-.8-4.4-5-7.2-9.3-6.4z" opacity=".5" fill="#f4f4f4"/><path d="M236.9 44.3c0-10.5 8.6-19.1 19.1-19.1V0h-19.9c-7.5 0-13.9 5.6-14.8 13.1l-9.5 76.4-33.9 11.3c-10.1 3.4-17.7 11.9-19.8 22.4l-21.3 105.6c-5.2 25.5-14.4 49.9-27.4 72.2-.7 1.3-1.5 2.5-2.2 3.8-.2.3-.3.5-.5.8-.6 1-1.2 2-1.9 3l-.6.9c-.6 1-1.3 2-1.9 3-.2.3-.3.5-.5.8-.8 1.2-1.7 2.5-2.5 3.7-5.1 7.4-10.6 14.5-16.5 21.3L45.4 381l-8.9 10.3c-.4.4-.7.8-1 1.2l-.3.3c-.3.3-.5.7-.8 1-.1.1-.1.2-.2.3-3.3 4.9-5.1 10.7-5.1 16.7V462c0 8.2 6.7 14.9 14.9 14.9h169.7c3.8 19.9 21.2 35 42.2 35V63.4c-10.4 0-19-8.6-19-19.1z" opacity=".15" fill="#444"/></svg>