<svg version="1.1" xmlns="http://www.w3.org/2000/svg" x="0" y="0" viewBox="0 0 512 512" xml:space="preserve"><style type="text/css">.st2{opacity:.15;fill:#444}.st3{fill:#ddd}.st4{fill:#a18267}.st5{fill:#bbb}</style><path d="M429.5 474h-15V269h15c4.4 0 8 3.6 8 8v189c0 4.4-3.6 8-8 8zm-347 0h15V269h-15c-4.4 0-8 3.6-8 8v189c0 4.4 3.6 8 8 8z" fill="#b58f6e"/><path d="M363 512H149c-35.3 0-64-28.7-64-64V64c0-35.3 28.7-64 64-64h214c35.3 0 64 28.7 64 64v384c0 35.3-28.7 64-64 64z" fill="#e0ac7e"/><path class="st2" d="M376 458H136c-17.7 0-32-14.3-32-32V246c0-35.3 28.7-64 64-64h176c35.3 0 64 28.7 64 64v180c0 17.7-14.3 32-32 32z"/><path class="st2" d="M344 182H168c-19.9 0-37.8 9.1-49.5 23.4V272c0 26.5 21.5 48 48 48h179c26.5 0 48-21.5 48-48v-66.6A63.873 63.873 0 0 0 344 182zM363 0H149c-12.9 0-24.9 3.8-35 10.4V52c0 26.5 21.5 48 48 48h188c26.5 0 48-21.5 48-48V10.4C387.9 3.8 375.9 0 363 0z"/><path class="st3" d="M194.5 369h-37c-1.1 0-2-.9-2-2v-2c0-1.1.9-2 2-2h37c1.1 0 2 .9 2 2v2c0 1.1-.9 2-2 2z"/><path class="st4" d="M199.5 286.5c0-13.5-11.3-24.3-25-23.5-11.8.7-21.4 10.4-22 22.2-.2 4.7.9 9 3 12.8 5.3 9.4 8.5 19.8 8.5 30.6V412c0 4.4 3.6 8 8 8h8c4.4 0 8-3.6 8-8v-81.1c0-11.4 2.6-22.7 8.3-32.6 2-3.5 3.2-7.5 3.2-11.8z"/><circle class="st3" cx="176" cy="286.5" r="8.5"/><path class="st3" d="M188 346v40h-24v-40h24m0-6h-24c-3.3 0-6 2.7-6 6v40c0 3.3 2.7 6 6 6h24c3.3 0 6-2.7 6-6v-40c0-3.3-2.7-6-6-6z"/><path class="st3" d="M179 351v-10.5c0-1.1-.9-2-2-2h-2c-1.1 0-2 .9-2 2V351h6zm175.5 18h-37c-1.1 0-2-.9-2-2v-2c0-1.1.9-2 2-2h37c1.1 0 2 .9 2 2v2c0 1.1-.9 2-2 2z"/><path class="st4" d="M359.5 286.5c0-13.5-11.3-24.3-25-23.5-11.8.7-21.4 10.4-22 22.2-.2 4.7.9 9 3 12.8 5.3 9.4 8.5 19.8 8.5 30.6V412c0 4.4 3.6 8 8 8h8c4.4 0 8-3.6 8-8v-81.1c0-11.4 2.6-22.7 8.3-32.6 2-3.5 3.2-7.5 3.2-11.8z"/><circle class="st3" cx="336" cy="286.5" r="8.5"/><path class="st3" d="M348 346v40h-24v-40h24m0-6h-24c-3.3 0-6 2.7-6 6v40c0 3.3 2.7 6 6 6h24c3.3 0 6-2.7 6-6v-40c0-3.3-2.7-6-6-6z"/><path class="st3" d="M339 351v-10.5c0-1.1-.9-2-2-2h-2c-1.1 0-2 .9-2 2V351h6zM200.5 136.2h-32.8c-1.1 0-2-.9-2-2v-1.4c0-1.1.9-2 2-2h32.8c1.1 0 2 .9 2 2v1.4c0 1.1-.9 2-2 2z"/><path class="st4" d="M205.2 62.1c0-12.1-10.2-21.8-22.5-21.1-10.6.7-19.2 9.3-19.7 19.9-.2 4.2.8 8.1 2.7 11.5 4.8 8.4 7.6 17.8 7.6 27.5v64.8c0 4 3.2 7.2 7.2 7.2h7.2c4 0 7.2-3.2 7.2-7.2v-62.9c0-10.2 2.3-20.4 7.5-29.2 1.8-3 2.8-6.6 2.8-10.5z"/><circle class="st3" cx="184.1" cy="62.1" r="7.6"/><path class="st3" d="M194.9 115.5v35.9h-21.6v-35.9h21.6m0-5.3h-21.6c-3 0-5.4 2.4-5.4 5.4v35.9c0 3 2.4 5.4 5.4 5.4h21.6c3 0 5.4-2.4 5.4-5.4v-35.9c0-3-2.4-5.4-5.4-5.4z"/><path class="st3" d="M186.8 120v-9.4c0-1-.8-1.8-1.8-1.8h-1.8c-1 0-1.8.8-1.8 1.8v9.4h5.4zm157.5 16.2h-32.8c-1.1 0-2-.9-2-2v-1.4c0-1.1.9-2 2-2h32.8c1.1 0 2 .9 2 2v1.4c0 1.1-.9 2-2 2z"/><path class="st4" d="M349 62.1c0-12.1-10.2-21.8-22.5-21.1-10.6.7-19.2 9.3-19.7 19.9-.2 4.2.8 8.1 2.7 11.5 4.8 8.4 7.6 17.8 7.6 27.5v64.8c0 4 3.2 7.2 7.2 7.2h7.2c4 0 7.2-3.2 7.2-7.2v-62.9c0-10.2 2.3-20.4 7.5-29.2 1.8-3 2.8-6.6 2.8-10.5z"/><circle class="st3" cx="327.9" cy="62.1" r="7.6"/><path class="st3" d="M338.7 115.5v35.9h-21.6v-35.9h21.6m0-5.3h-21.6c-3 0-5.4 2.4-5.4 5.4v35.9c0 3 2.4 5.4 5.4 5.4h21.6c3 0 5.4-2.4 5.4-5.4v-35.9c0-3-2.5-5.4-5.4-5.4z"/><path class="st3" d="M330.6 120v-9.4c0-1-.8-1.8-1.8-1.8H327c-1 0-1.8.8-1.8 1.8v9.4h5.4z"/><path class="st4" d="m264.5 124-8.5 8-8.5-8v-24h17z"/><path class="st5" d="M344 185h-9c-1.1 0-2-.9-2-2v-2c0-1.1.9-2 2-2h9c1.1 0 2 .9 2 2v2c0 1.1-.9 2-2 2z"/><path class="st3" d="m348.5 199.6-3.2-15c-.2-.9-1-1.6-2-1.6h-2.8c-.9 0-1.8.7-2 1.6l-3.2 15c-.3 1.2.7 2.4 2 2.4h9.1c1.4 0 2.4-1.2 2.1-2.4zm-11 .4 1.7-8h5.7l1.7 8h-9.1z"/><path class="st5" d="M88 115.5v9c0 1.1-.9 2-2 2h-2c-1.1 0-2-.9-2-2v-9c0-1.1.9-2 2-2h2c1.1 0 2 .9 2 2z"/><path class="st3" d="m91.5 137.6-3.2-15c-.2-.9-1-1.6-2-1.6h-2.8c-.9 0-1.8.7-2 1.6l-3.2 15c-.3 1.2.7 2.4 2 2.4h9.1c1.4 0 2.4-1.2 2.1-2.4zm-11 .4 1.7-8h5.7l1.7 8h-9.1z"/><path class="st2" d="M149 0c-1 0-2 0-2.9.1h-.9c-.7 0-1.4.1-2.2.2-.3 0-.6 0-.9.1-.9.1-1.8.2-2.8.4-.3 0-.5.1-.8.1-.7.1-1.3.2-2 .4-.4.1-.8.2-1.1.2-.6.1-1.1.2-1.6.4-.4.1-.8.2-1.1.3-.8.2-1.6.4-2.3.7-.5.1-.9.3-1.4.5-.4.1-.7.2-1.1.4l-1.5.6c-.3.1-.5.2-.8.3-1.2.5-2.4 1-3.5 1.5h-.1l-1.8.9c-.2.1-.3.2-.5.2C99.1 17.8 85 39.2 85 64v49.5h-1c-1.1 0-2 .9-2 2v6.3c-.2.2-.3.5-.3.7l-3.2 15c-.3 1.2.7 2.4 2 2.4H85v129h-2.5c-4.4 0-8 3.6-8 8v189c0 4.4 3.6 8 8 8h8c10 22.4 32.4 38 58.5 38h107V0H149zM85 138h-4.5l1.7-8H85v8z"/></svg>