<svg version="1.1" xmlns="http://www.w3.org/2000/svg" x="0" y="0" viewBox="0 0 512 512" xml:space="preserve"><style type="text/css">.st0{fill:#ddd}.st1{fill:#bbb}</style><path class="st0" d="M256 472c119.3 0 216-96.7 216-216S375.3 40 256 40 40 136.7 40 256s96.7 216 216 216zm0-366c82.8 0 150 67.2 150 150s-67.2 150-150 150-150-67.2-150-150 67.2-150 150-150z"/><path class="st0" d="M256 52h25l-9.5-45.9c-.9-3.6-4.1-6.1-7.8-6.1h-15.5c-3.7 0-6.9 2.5-7.8 6.1L231 52h25zm-66.2 11.1l23.6-8.1-23.9-40.4c-2-3.1-5.8-4.4-9.3-3.2l-7.3 2.5-7.3 2.5c-3.5 1.2-5.7 4.6-5.4 8.3l5.9 46.5 23.7-8.1zM130.7 95l19.7-15.4-35.7-30.4c-2.9-2.3-6.9-2.3-9.8 0L98.8 54l-6.1 4.8c-2.9 2.3-3.9 6.2-2.4 9.5l20.7 42.1L130.7 95zm-45.5 49.4l13.7-20.9-43.6-17.2c-3.5-1.2-7.3.1-9.3 3.2l-4.2 6.5-4.2 6.5c-2 3.1-1.7 7.1.8 9.8l33.3 33.1 13.5-21zm-27 61.5l6.1-24.2-46.9-2.1c-3.7 0-6.9 2.5-7.8 6l-1.9 7.5-1.9 7.5c-.9 3.6.7 7.3 4 9L52 230.1l6.2-24.2zm-5.5 66.9l-2.1-24.9-45 13.2c-3.5 1.2-5.7 4.6-5.4 8.2l.6 7.7.6 7.7c.3 3.7 3.1 6.6 6.7 7.2l46.6 5.7-2-24.8zm16.5 65.1l-10-22.9-38.3 27.1c-2.9 2.2-3.9 6.2-2.4 9.5l3.1 7.1 3.1 7.1c1.5 3.4 5 5.3 8.7 4.7l45.9-9.8-10.1-22.8zm36.7 56.3L89 375.8l-27.4 38.1c-2 3.1-1.7 7.1.8 9.8l5.3 5.7 5.3 5.7c2.5 2.7 6.5 3.4 9.7 1.6l40.2-24.1-17-18.4zm53 41.2l-22-11.9-13.5 44.9c-.9 3.6.7 7.3 3.9 9l6.8 3.7 6.8 3.7c3.2 1.7 7.2 1.1 9.7-1.6l30.2-35.9-21.9-11.9zm63.5 21.8l-24.7-4.1 1.8 46.9c.3 3.7 3 6.7 6.7 7.3l7.6 1.3 7.6 1.3c3.6.6 7.2-1.3 8.7-4.7l16.9-43.8-24.6-4.2zm67.2 0l-24.7 4.1 16.9 43.8c1.5 3.4 5 5.3 8.7 4.7l7.6-1.3 7.6-1.3c3.6-.6 6.4-3.6 6.7-7.3l1.8-46.9-24.6 4.2zm63.5-21.8l-22 11.9 30.2 35.9c2.5 2.7 6.5 3.4 9.7 1.6l6.8-3.7 6.8-3.7c3.2-1.7 4.9-5.5 3.9-9L375 423.5l-21.9 11.9zm53-41.2l-16.9 18.4 40.2 24.1c3.2 1.8 7.2 1.1 9.7-1.6l5.3-5.7 5.3-5.7c2.5-2.7 2.8-6.7.8-9.8L423 375.8l-16.9 18.4zm36.7-56.3l-10 22.9 45.9 9.8c3.6.6 7.2-1.3 8.7-4.7l3.1-7.1 3.1-7.1c1.5-3.4.5-7.3-2.4-9.5l-38.3-27.1-10.1 22.8zm16.5-65.1l-2.1 24.9 46.6-5.7c3.6-.6 6.4-3.6 6.7-7.2l.6-7.7.6-7.7c.3-3.7-1.9-7.1-5.4-8.2l-45-13.2-2 24.8zm-5.5-66.9l6.1 24.2 42.2-20.5c3.2-1.7 4.9-5.5 4-9l-1.9-7.5-1.9-7.5c-.9-3.6-4.1-6-7.8-6l-46.9 2.1 6.2 24.2zm-27-61.5l13.7 20.9 33.3-33.1c2.5-2.7 2.8-6.7.8-9.8l-4.2-6.5-4.2-6.5c-2-3.1-5.8-4.4-9.3-3.2l-43.6 17.2 13.5 21zM381.3 95l19.7 15.4 20.7-42.1c1.5-3.4.5-7.3-2.4-9.5l-6.1-4.8-6.1-4.8c-2.9-2.3-7-2.2-9.8 0l-35.7 30.4L381.3 95zm-59.1-31.9l23.6 8.1 5.9-46.5c.3-3.7-1.9-7.1-5.4-8.3l-7.3-2.5-7.3-2.5c-3.5-1.2-7.3.1-9.3 3.2L298.5 55l23.7 8.1zM256 338c45.3 0 82-36.7 82-82s-36.7-82-82-82-82 36.7-82 82 36.7 82 82 82zm0-126c24.3 0 44 19.7 44 44s-19.7 44-44 44-44-19.7-44-44 19.7-44 44-44z"/><path class="st0" d="M278.5 433.5h-45v-355h45z"/><path class="st0" d="M420.972 325.258l-22.5 38.97-307.43-177.5 22.5-38.97z"/><path class="st0" d="M113.529 364.242l-22.5-38.97 307.43-177.5 22.5 38.97z"/><circle class="st1" cx="256" cy="73.5" r="9.5"/><circle class="st1" cx="196.9" cy="84.4" r="9.5"/><circle class="st1" cx="144.5" cy="113.8" r="9.5"/><circle class="st1" cx="104.6" cy="158.7" r="9.5"/><circle class="st1" cx="81.3" cy="214.1" r="9.5"/><circle class="st1" cx="77.4" cy="274.1" r="9.5"/><circle class="st1" cx="93.1" cy="332.1" r="9.5"/><circle class="st1" cx="126.8" cy="381.9" r="9.5"/><circle class="st1" cx="174.8" cy="418" r="9.5"/><circle class="st1" cx="232" cy="436.5" r="9.5"/><circle class="st1" cx="292.1" cy="435.5" r="9.5"/><circle class="st1" cx="348.6" cy="415" r="9.5"/><circle class="st1" cx="395.4" cy="377.3" r="9.5"/><circle class="st1" cx="427.4" cy="326.5" r="9.5"/><circle class="st1" cx="441.1" cy="268" r="9.5"/><circle class="st1" cx="435.1" cy="208.2" r="9.5"/><circle class="st1" cx="410.1" cy="153.6" r="9.5"/><circle class="st1" cx="368.6" cy="110.1" r="9.5"/><circle class="st1" cx="315.3" cy="82.4" r="9.5"/></svg>