<svg version="1.1" xmlns="http://www.w3.org/2000/svg" x="0" y="0" viewBox="0 0 512 512" xml:space="preserve"><style type="text/css">.st1{opacity:.15;fill:#444;enable-background:new}.st3{fill:#4b5d6b}</style><path d="M299 109.9v-44h-63v18s-5 21-5 49 15 101 17 187-35 164-35 164 7 20 27 26 40-3 40-3 4-12 7-23 5-74 7-108-8-167-8-188 4-38 6-45 7-22 7-33z" fill="#ffa000"/><path class="st1" d="M299 69h-63v10h63V69z"/><path d="M312 11h-73s-23 2-42 2-55-13-55-13-12 16-12 57 15 61 15 61 72-55 78-55 10 6 10 6h79V11z" fill="#36434f"/><path class="st3" d="M137 57c0-32.9 7.7-49.6 10.8-55-3.6-1.2-5.8-2-5.8-2s-12 16-12 57 15 61 15 61 1.8-1.3 4.7-3.6C145.6 107 137 88 137 57z"/><circle class="st3" cx="267.5" cy="40" r="14"/><path class="st1" d="M267 11h-28s-23 2-42 2c-14.3 0-38.3-7.4-49.2-11-3.6-1.2-5.8-2-5.8-2s-12 16-12 57 15 61 15 61h.1c.1-.1.2-.2.4-.3.1-.1.2-.1.3-.2s.3-.2.5-.3h.1c.4-.3.8-.6 1.4-1l.2-.2c.2-.2.5-.4.7-.5.1 0 .1-.1.2-.1.3-.2.7-.5 1-.8 16-12.4 68-51.6 73.1-51.6 6 0 10 6 10 6h3v14.9s-5 21-5 49c0 14.1 3.8 39.7 7.9 72.6.2 2 .5 4 .7 6.1v.1c.2 2 .5 4.1.7 6.2v.2c.2 2.1.5 4.1.7 6.3v.3c.2 2.1.5 4.2.7 6.3v.4c.2 2.1.5 4.2.7 6.4v.3c.2 2.2.4 4.3.7 6.5v.4l.6 6.6v.4c.2 2.2.4 4.5.6 6.7v.4l.6 6.9v.4c.2 2.3.4 4.7.5 7v.4c.2 2.4.3 4.7.5 7.1v.3c.2 2.4.3 4.8.5 7.3v.3c.1 2.5.3 4.9.4 7.4v.2c.1 2.5.2 5 .3 7.6v.2c.1 2.6.2 5.1.3 7.7v.1c.1 2.6.2 5.3.2 7.9 0 1.6.1 3.1.1 4.6v6.3c0 1.1 0 2.2-.1 3.3v1.3c0 1.5-.1 3-.2 4.6v.7c-.1 1.3-.1 2.6-.2 3.8 0 .5-.1 1-.1 1.5-.1 1-.1 2.1-.2 3.1 0 .5-.1 1-.1 1.5-.1 1.1-.2 2.3-.3 3.4 0 .4-.1.7-.1 1.1-.1 1.5-.3 2.9-.4 4.4 0 .4-.1.7-.1 1.1-.1 1.1-.2 2.2-.4 3.4-.1.5-.1 1-.2 1.5-.1 1-.2 2-.4 3-.1.5-.1 1-.2 1.5-.2 1.2-.3 2.3-.5 3.5 0 .3-.1.5-.1.8l-.6 4.2c-.1.4-.1.8-.2 1.2-.2 1-.3 2-.5 3.1-.1.5-.2 1-.2 1.4-.2 1-.3 1.9-.5 2.9-.1.4-.2.9-.2 1.3-.2 1.3-.5 2.6-.7 3.9v.2c-.3 1.4-.5 2.7-.8 4.1-.1.4-.2.8-.2 1.2-.2 1-.4 1.9-.6 2.9-.1.4-.2.8-.3 1.3-.2 1-.4 2-.6 2.9-.1.3-.1.7-.2 1l-.9 3.9v.2l-.9 3.6c-.1.3-.2.7-.2 1-.2 1-.5 1.9-.7 2.8-.1.3-.2.7-.3 1-.3 1-.5 2.1-.8 3.1 0 .2-.1.4-.1.6-.3 1.2-.7 2.5-1 3.7 0 .1 0 .1-.1.2l-.9 3.3c-.1.2-.1.5-.2.7-.3 1-.5 1.9-.8 2.8-.1.2-.1.4-.2.7-.7 2.3-1.4 4.6-2.1 6.8-.3 1.1-.7 2.1-1 3.2 0 .1-.1.3-.1.4-.3 1-.6 2-1 2.9 0 .1 0 .1-.1.2-1 3.2-2.1 6.2-3.1 9-1.8 5-3.4 9.4-4.9 13.2-.7 1.8-1.4 3.4-2 4.9-.2.5-.4.9-.6 1.4-.2.5-.4.9-.5 1.3-.2.4-.3.8-.5 1.2-.2.4-.3.7-.5 1.1-.5 1-.8 1.9-1.2 2.7-.4 1-.7 1.6-.9 1.9 0 .1 0 .1-.1.1 0 .1-.1.1-.1.1s7 20 27 26c9.8 2.9 19.6 2.3 27 .8V11h.3z"/></svg>