<svg version="1.1" xmlns="http://www.w3.org/2000/svg" x="0" y="0" viewBox="0 0 512 512" xml:space="preserve"><style type="text/css">.st0{fill:#36434f}.st2{fill:#e0ac7e}</style><path class="st0" d="M174.6 512h-20.2c-1.5 0-2.7-1.1-3-2.6l-2.9-20.4h32l-2.9 20.4c-.3 1.5-1.5 2.6-3 2.6zm186-2.6l2.9-20.4h-32l2.9 20.4c.2 1.5 1.5 2.6 3 2.6h20.2c1.5 0 2.7-1.1 3-2.6z"/><path fill="#826049" d="M136 338h240v152H136z"/><path class="st2" d="M362 352v124H150V352h212m14-14H136v152h240V338z"/><path class="st0" d="M274 0v196c0 9.9-8.1 18-18 18s-18-8.1-18-18V0h-14v196c0 17.6 14.4 32 32 32s32-14.4 32-32V0h-14z"/><path class="st0" d="M249 223h14v57h-14z"/><path class="st2" d="M293 328.4c-2.6-3.3-8.6-11.3-11.7-17.4-2.9-5.9-7.5-19.8-9.7-26.8-.8-2.5-3.1-4.2-5.7-4.2h-19.7c-2.6 0-4.9 1.7-5.7 4.2-2.2 7-6.8 20.9-9.7 26.8-3.1 6.1-9.1 14.1-11.7 17.4-.8 1.1-1.3 2.4-1.3 3.7v5.9h76.5v-5.9c0-1.3-.5-2.6-1.3-3.7z"/><path d="M217.8 332.1v5.9h76.5v-5.9c0-.4 0-.7-.1-1.1h-76.3c-.1.4-.1.7-.1 1.1z" opacity=".15" fill="#444"/></svg>