<svg version="1.1" xmlns="http://www.w3.org/2000/svg" x="0" y="0" viewBox="0 0 512 512" xml:space="preserve"><style type="text/css">.st0{fill:#f4f4f4}.st2{fill:#4b9f4e}.st3{fill:#4caf50}</style><path class="st0" d="M221.4 194.5h69.2v123h-69.2z"/><path d="M305.5 159.7V61h-99v98.7c0 8.8 1.8 17.5 5.3 25.5l30.7 70.8-30.7 70.8c-3.5 8-5.3 16.7-5.3 25.5V451h99v-98.7c0-8.8-1.8-17.4-5.3-25.5L269.5 256l30.7-70.8c3.5-8.1 5.3-16.7 5.3-25.5z" fill="#ddd"/><path class="st0" d="M295.5 451v-35.1l-31.1-19.2c-5.2-3.2-11.7-3.2-16.8 0l-31.1 19.2V451h79zm-79-291.3c0 7.4 1.5 14.7 4.5 21.5l30.7 70.8 1.7 4h5.2l1.7-4 30.7-70.8c3-6.8 4.5-14.1 4.5-21.5V142h-79v17.7z"/><path class="st0" d="M253.4 252h5.2v144h-5.2z"/><path class="st2" d="M195 56V29h122v27c0 3.3-2.7 6-6 6H201c-3.3 0-6-2.7-6-6z"/><path class="st3" d="M183.5 25.5V6c0-3.3 2.7-6 6-6h133c3.3 0 6 2.7 6 6v19.5c0 3.3-2.7 6-6 6h-133c-3.3 0-6-2.7-6-6z"/><path class="st2" d="M201 450h110c3.3 0 6 2.7 6 6v27H195v-27c0-3.3 2.7-6 6-6z"/><path class="st3" d="M189.5 480.5h133c3.3 0 6 2.7 6 6V506c0 3.3-2.7 6-6 6h-133c-3.3 0-6-2.7-6-6v-19.5c0-3.3 2.7-6 6-6z"/></svg>