<?xml version="1.0" encoding="utf-8"?>
<!-- Generator: Adobe Illustrator 22.1.0, SVG Export Plug-In . SVG Version: 6.00 Build 0)  -->
<svg version="1.1" id="Layer_1" xmlns="http://www.w3.org/2000/svg" xmlns:xlink="http://www.w3.org/1999/xlink" x="0px" y="0px"
	 viewBox="0 0 512 512" style="enable-background:new 0 0 512 512;" xml:space="preserve">
<style type="text/css">
	.st0{fill:#F4F4F4;}
	.st1{fill:#DDDDDD;}
	.st2{opacity:0.15;fill:#444444;enable-background:new    ;}
</style>
<path class="st0" d="M342,512H170c-17.7,0-32-14.3-32-32V32c0-17.7,14.3-32,32-32h172c17.7,0,32,14.3,32,32v448
	C374,497.7,359.7,512,342,512z"/>
<circle class="st1" cx="197.5" cy="70" r="32.5"/>
<circle class="st1" cx="197.5" cy="163" r="32.5"/>
<circle class="st1" cx="197.5" cy="256" r="32.5"/>
<circle class="st1" cx="197.5" cy="349" r="32.5"/>
<circle class="st1" cx="197.5" cy="442" r="32.5"/>
<circle class="st1" cx="314.5" cy="70" r="32.5"/>
<circle class="st1" cx="314.5" cy="163" r="32.5"/>
<circle class="st1" cx="314.5" cy="256" r="32.5"/>
<circle class="st1" cx="314.5" cy="349" r="32.5"/>
<circle class="st1" cx="314.5" cy="442" r="32.5"/>
<path class="st2" d="M260,477h-8c-3.3,0-6-2.7-6-6V47c0-3.3,2.7-6,6-6h8c3.3,0,6,2.7,6,6v424C266,474.3,263.3,477,260,477z"/>
<path class="st2" d="M170,0c-17.7,0-32,14.3-32,32v448c0,17.7,14.3,32,32,32h86V0H170z"/>
</svg>
