<svg version="1.1" xmlns="http://www.w3.org/2000/svg" x="0" y="0" viewBox="0 0 512 512" xml:space="preserve"><path fill="#36434F" d="M261 0h-24l-3 24 7 24v215h16V48l7-24z"/><path fill="#cc584c" d="M270 318v-21c0-7 8-26 8-26 0-5.5-13-10-29-10s-29 4.5-29 10c0 0 8 19 8 26v21c0 8-11 43-11 58v119c0 9.4 14.3 17 32 17s32-7.6 32-17V376c0-15-11-50-11-58z"/><path opacity=".15" fill="#444" d="M237 0l-3 24 7 24v213.4c-12.1 1.2-21 5-21 9.6 0 0 8 19 8 26v21c0 8-11 43-11 58v119c0 9.4 14.3 17 32 17V0h-12z"/></svg>