<?xml version="1.0" encoding="utf-8"?>
<!-- Generator: Adobe Illustrator 22.1.0, SVG Export Plug-In . SVG Version: 6.00 Build 0)  -->
<svg version="1.1" id="Layer_1" xmlns="http://www.w3.org/2000/svg" xmlns:xlink="http://www.w3.org/1999/xlink" x="0px" y="0px"
	 viewBox="0 0 512 512" style="enable-background:new 0 0 512 512;" xml:space="preserve">
<style type="text/css">
	.st0{fill:#F4F4F4;}
	.st1{fill:#DDDDDD;}
	.st2{fill:#BBBBBB;}
	.st3{opacity:0.15;fill:#444444;enable-background:new    ;}
</style>
<path class="st0" d="M342,512H170c-17.7,0-32-14.3-32-32V32c0-17.7,14.3-32,32-32h172c17.7,0,32,14.3,32,32v448
	C374,497.7,359.7,512,342,512z"/>
<circle class="st1" cx="197.5" cy="70" r="32.5"/>
<path class="st2" d="M197.5,40c4,0,8,0.8,11.7,2.3c3.6,1.5,6.8,3.7,9.5,6.4s4.9,6,6.4,9.5c1.6,3.7,2.3,7.6,2.3,11.7s-0.8,8-2.3,11.7
	c-1.5,3.6-3.7,6.8-6.4,9.5s-6,4.9-9.5,6.4c-3.7,1.6-7.6,2.3-11.7,2.3s-8-0.8-11.7-2.3c-3.6-1.5-6.8-3.7-9.5-6.4s-4.9-6-6.4-9.5
	c-1.6-3.7-2.3-7.6-2.3-11.7s0.8-8,2.3-11.7c1.5-3.6,3.7-6.8,6.4-9.5s6-4.9,9.5-6.4C189.5,40.8,193.5,40,197.5,40 M197.5,37.5
	C179.5,37.5,165,52,165,70s14.5,32.5,32.5,32.5S230,88,230,70S215.5,37.5,197.5,37.5z"/>
<path class="st3" d="M165,70c0,18,14.5,32.5,32.5,32.5v-65C179.5,37.5,165,52,165,70z"/>
<circle class="st1" cx="197.5" cy="163" r="32.5"/>
<path class="st2" d="M197.5,133c4,0,8,0.8,11.7,2.3c3.6,1.5,6.8,3.7,9.5,6.4s4.9,6,6.4,9.5c1.6,3.7,2.3,7.6,2.3,11.7
	s-0.8,8-2.3,11.7c-1.5,3.6-3.7,6.8-6.4,9.5s-6,4.9-9.5,6.4c-3.7,1.6-7.6,2.3-11.7,2.3s-8-0.8-11.7-2.3c-3.6-1.5-6.8-3.7-9.5-6.4
	s-4.9-6-6.4-9.5c-1.6-3.7-2.3-7.6-2.3-11.7s0.8-8,2.3-11.7c1.5-3.6,3.7-6.8,6.4-9.5s6-4.9,9.5-6.4C189.5,133.8,193.5,133,197.5,133
	 M197.5,130.5c-18,0-32.5,14.5-32.5,32.5s14.5,32.5,32.5,32.5S230,181,230,163S215.5,130.5,197.5,130.5z"/>
<path class="st3" d="M165,163c0,18,14.5,32.5,32.5,32.5v-65C179.5,130.5,165,145,165,163z"/>
<circle class="st1" cx="197.5" cy="256" r="32.5"/>
<path class="st2" d="M197.5,226c4,0,8,0.8,11.7,2.3c3.6,1.5,6.8,3.7,9.5,6.4s4.9,6,6.4,9.5c1.6,3.7,2.3,7.6,2.3,11.7
	c0,4.1-0.8,8-2.3,11.7c-1.5,3.6-3.7,6.8-6.4,9.5s-6,4.9-9.5,6.4c-3.7,1.6-7.6,2.3-11.7,2.3s-8-0.8-11.7-2.3
	c-3.6-1.5-6.8-3.7-9.5-6.4s-4.9-6-6.4-9.5c-1.6-3.7-2.3-7.6-2.3-11.7s0.8-8,2.3-11.7c1.5-3.6,3.7-6.8,6.4-9.5s6-4.9,9.5-6.4
	C189.5,226.8,193.5,226,197.5,226 M197.5,223.5c-18,0-32.5,14.5-32.5,32.5s14.5,32.5,32.5,32.5S230,274,230,256
	S215.5,223.5,197.5,223.5L197.5,223.5z"/>
<path class="st3" d="M165,256c0,18,14.5,32.5,32.5,32.5v-65C179.5,223.5,165,238,165,256z"/>
<circle class="st1" cx="197.5" cy="349" r="32.5"/>
<path class="st2" d="M197.5,319c4,0,8,0.8,11.7,2.3c3.6,1.5,6.8,3.7,9.5,6.4s4.9,6,6.4,9.5c1.6,3.7,2.3,7.6,2.3,11.7
	s-0.8,8-2.3,11.7c-1.5,3.6-3.7,6.8-6.4,9.5s-6,4.9-9.5,6.4c-3.7,1.6-7.6,2.3-11.7,2.3s-8-0.8-11.7-2.3c-3.6-1.5-6.8-3.7-9.5-6.4
	s-4.9-6-6.4-9.5c-1.6-3.7-2.3-7.6-2.3-11.7s0.8-8,2.3-11.7c1.5-3.6,3.7-6.8,6.4-9.5s6-4.9,9.5-6.4C189.5,319.8,193.5,319,197.5,319
	 M197.5,316.5c-18,0-32.5,14.5-32.5,32.5s14.5,32.5,32.5,32.5S230,367,230,349S215.5,316.5,197.5,316.5z"/>
<path class="st3" d="M165,349c0,18,14.5,32.5,32.5,32.5v-65C179.5,316.5,165,331,165,349z"/>
<circle class="st1" cx="197.5" cy="442" r="32.5"/>
<path class="st2" d="M197.5,412c4,0,8,0.8,11.7,2.3c3.6,1.5,6.8,3.7,9.5,6.4s4.9,6,6.4,9.5c1.6,3.7,2.3,7.6,2.3,11.7
	s-0.8,8-2.3,11.7c-1.5,3.6-3.7,6.8-6.4,9.5s-6,4.9-9.5,6.4c-3.7,1.6-7.6,2.3-11.7,2.3s-8-0.8-11.7-2.3c-3.6-1.5-6.8-3.7-9.5-6.4
	s-4.9-6-6.4-9.5c-1.6-3.7-2.3-7.6-2.3-11.7s0.8-8,2.3-11.7c1.5-3.6,3.7-6.8,6.4-9.5s6-4.9,9.5-6.4C189.5,412.8,193.5,412,197.5,412
	 M197.5,409.5c-18,0-32.5,14.5-32.5,32.5s14.5,32.5,32.5,32.5S230,460,230,442S215.5,409.5,197.5,409.5z"/>
<path class="st3" d="M165,442c0,18,14.5,32.5,32.5,32.5v-65C179.5,409.5,165,424,165,442z"/>
<circle class="st1" cx="314.5" cy="70" r="32.5"/>
<path class="st2" d="M314.5,40c4,0,8,0.8,11.7,2.3c3.6,1.5,6.8,3.7,9.5,6.4s4.9,6,6.4,9.5c1.6,3.7,2.3,7.6,2.3,11.7s-0.8,8-2.3,11.7
	c-1.5,3.6-3.7,6.8-6.4,9.5s-6,4.9-9.5,6.4c-3.7,1.6-7.6,2.3-11.7,2.3s-8-0.8-11.7-2.3c-3.6-1.5-6.8-3.7-9.5-6.4s-4.9-6-6.4-9.5
	c-1.6-3.7-2.3-7.6-2.3-11.7s0.8-8,2.3-11.7c1.5-3.6,3.7-6.8,6.4-9.5s6-4.9,9.5-6.4C306.5,40.8,310.5,40,314.5,40 M314.5,37.5
	C296.5,37.5,282,52,282,70s14.5,32.5,32.5,32.5S347,88,347,70S332.5,37.5,314.5,37.5z"/>
<path class="st3" d="M282,70c0,18,14.5,32.5,32.5,32.5v-65C296.5,37.5,282,52,282,70z"/>
<circle class="st1" cx="314.5" cy="163" r="32.5"/>
<path class="st2" d="M314.5,133c4,0,8,0.8,11.7,2.3c3.6,1.5,6.8,3.7,9.5,6.4s4.9,6,6.4,9.5c1.6,3.7,2.3,7.6,2.3,11.7
	s-0.8,8-2.3,11.7c-1.5,3.6-3.7,6.8-6.4,9.5s-6,4.9-9.5,6.4c-3.7,1.6-7.6,2.3-11.7,2.3s-8-0.8-11.7-2.3c-3.6-1.5-6.8-3.7-9.5-6.4
	s-4.9-6-6.4-9.5c-1.6-3.7-2.3-7.6-2.3-11.7s0.8-8,2.3-11.7c1.5-3.6,3.7-6.8,6.4-9.5s6-4.9,9.5-6.4C306.5,133.8,310.5,133,314.5,133
	 M314.5,130.5c-18,0-32.5,14.5-32.5,32.5s14.5,32.5,32.5,32.5S347,181,347,163S332.5,130.5,314.5,130.5z"/>
<path class="st3" d="M282,163c0,18,14.5,32.5,32.5,32.5v-65C296.5,130.5,282,145,282,163z"/>
<circle class="st1" cx="314.5" cy="256" r="32.5"/>
<path class="st2" d="M314.5,226c4,0,8,0.8,11.7,2.3c3.6,1.5,6.8,3.7,9.5,6.4s4.9,6,6.4,9.5c1.6,3.7,2.3,7.6,2.3,11.7
	c0,4.1-0.8,8-2.3,11.7c-1.5,3.6-3.7,6.8-6.4,9.5s-6,4.9-9.5,6.4c-3.7,1.6-7.6,2.3-11.7,2.3s-8-0.8-11.7-2.3
	c-3.6-1.5-6.8-3.7-9.5-6.4s-4.9-6-6.4-9.5c-1.6-3.7-2.3-7.6-2.3-11.7s0.8-8,2.3-11.7c1.5-3.6,3.7-6.8,6.4-9.5s6-4.9,9.5-6.4
	C306.5,226.8,310.5,226,314.5,226 M314.5,223.5c-18,0-32.5,14.5-32.5,32.5s14.5,32.5,32.5,32.5S347,274,347,256
	S332.5,223.5,314.5,223.5L314.5,223.5z"/>
<path class="st3" d="M282,256c0,18,14.5,32.5,32.5,32.5v-65C296.5,223.5,282,238,282,256z"/>
<circle class="st1" cx="314.5" cy="349" r="32.5"/>
<path class="st2" d="M314.5,319c4,0,8,0.8,11.7,2.3c3.6,1.5,6.8,3.7,9.5,6.4s4.9,6,6.4,9.5c1.6,3.7,2.3,7.6,2.3,11.7
	s-0.8,8-2.3,11.7c-1.5,3.6-3.7,6.8-6.4,9.5s-6,4.9-9.5,6.4c-3.7,1.6-7.6,2.3-11.7,2.3s-8-0.8-11.7-2.3c-3.6-1.5-6.8-3.7-9.5-6.4
	s-4.9-6-6.4-9.5c-1.6-3.7-2.3-7.6-2.3-11.7s0.8-8,2.3-11.7c1.5-3.6,3.7-6.8,6.4-9.5s6-4.9,9.5-6.4C306.5,319.8,310.5,319,314.5,319
	 M314.5,316.5c-18,0-32.5,14.5-32.5,32.5s14.5,32.5,32.5,32.5S347,367,347,349S332.5,316.5,314.5,316.5z"/>
<path class="st3" d="M282,349c0,18,14.5,32.5,32.5,32.5v-65C296.5,316.5,282,331,282,349z"/>
<circle class="st1" cx="314.5" cy="442" r="32.5"/>
<path class="st2" d="M314.5,412c4,0,8,0.8,11.7,2.3c3.6,1.5,6.8,3.7,9.5,6.4s4.9,6,6.4,9.5c1.6,3.7,2.3,7.6,2.3,11.7
	s-0.8,8-2.3,11.7c-1.5,3.6-3.7,6.8-6.4,9.5s-6,4.9-9.5,6.4c-3.7,1.6-7.6,2.3-11.7,2.3s-8-0.8-11.7-2.3c-3.6-1.5-6.8-3.7-9.5-6.4
	s-4.9-6-6.4-9.5c-1.6-3.7-2.3-7.6-2.3-11.7s0.8-8,2.3-11.7c1.5-3.6,3.7-6.8,6.4-9.5s6-4.9,9.5-6.4C306.5,412.8,310.5,412,314.5,412
	 M314.5,409.5c-18,0-32.5,14.5-32.5,32.5s14.5,32.5,32.5,32.5S347,460,347,442S332.5,409.5,314.5,409.5z"/>
<path class="st3" d="M282,442c0,18,14.5,32.5,32.5,32.5v-65C296.5,409.5,282,424,282,442z M260,477h-8c-3.3,0-6-2.7-6-6V47
	c0-3.3,2.7-6,6-6h8c3.3,0,6,2.7,6,6v424C266,474.3,263.3,477,260,477z"/>
</svg>
