<svg version="1.1" xmlns="http://www.w3.org/2000/svg" x="0" y="0" viewBox="0 0 512 512" xml:space="preserve"><style type="text/css">.st2{fill:#f4f4f4}.st3{fill:#36434f}</style><path d="M0 0h512v512H0V0z" fill="#2e86b7"/><path d="M256 172.7c-18 0-34.7-6.1-47.8-16.5-2.4-1.9-5.9-1.7-8.1.5l-43.4 43.4c-2.2 2.2-2.4 5.7-.5 8.1 10.4 13.2 16.5 29.8 16.5 47.8s-6.1 34.6-16.5 47.8c-1.9 2.4-1.7 5.9.5 8.1l43.4 43.4c2.2 2.2 5.7 2.4 8.1.5 13.2-10.4 29.8-16.5 47.8-16.5 18 0 34.6 6.1 47.8 16.5 2.4 1.9 5.9 1.7 8.1-.5l43.4-43.4c2.2-2.2 2.4-5.7.5-8.1-10.4-13.2-16.5-29.8-16.5-47.8s6.1-34.6 16.5-47.8c1.9-2.4 1.7-5.9-.5-8.1l-43.4-43.4c-2.2-2.2-5.7-2.4-8.1-.5a77.297 77.297 0 0 1-47.8 16.5z" fill="#ddd"/><path class="st2" d="M351.9 119.1c-9.3 4.6-16.2 13-19.1 22.9l-2.2 7.6c-13.1 28.1-41.6 47.5-74.6 47.5s-61.5-19.4-74.6-47.5l-2.2-7.6c-2.9-10-9.8-18.4-19.1-22.9l-27.9-13.9-13.5 13.5-13.5 13.5 13.9 27.9c4.6 9.3 13 16.2 23 19.1l7.7 2.2c28.1 13.1 47.5 41.6 47.5 74.6s-19.4 61.5-47.5 74.6l-7.7 2.2c-10 2.9-18.4 9.8-23 19.1l-13.9 27.9 13.5 13.5 13.5 13.5 27.9-13.9c9.3-4.6 16.2-13 19.1-22.9l2.2-7.6c13.1-28.1 41.6-47.5 74.6-47.5s61.5 19.4 74.6 47.5l2.2 7.6c2.9 10 9.8 18.4 19.1 22.9l27.9 13.9 13.5-13.5 13.5-13.5-13.9-27.9c-4.6-9.3-13-16.2-23-19.1l-7.7-2.2c-28.1-13.1-47.5-41.6-47.5-74.6s19.4-61.5 47.5-74.6l7.7-2.2c10-2.9 18.4-9.8 23-19.1l13.9-27.9-13.5-13.5-13.5-13.5-27.9 13.9z"/><ellipse transform="rotate(-.98 118.635 118.617)" class="st2" cx="118.7" cy="118.7" rx="34.2" ry="34.2"/><path class="st3" d="M209.7 27.6c-7.2-7.2-31.8 5.8-54.9 28.9-16 16-29.3 37.6-35.9 49.4-3.3-.1-6.7 1.2-9.3 3.7-2.6 2.5-3.8 5.9-3.7 9.3-11.7 6.7-33.3 19.9-49.4 35.9-23.1 23.1-36.2 47.7-28.9 54.9s31.8-5.8 54.9-28.9c16-16 29.3-37.6 35.9-49.4 3.3.1 6.7-1.2 9.3-3.7 2.6-2.5 3.8-5.9 3.7-9.3 11.7-6.7 33.3-19.9 49.4-35.9 23.2-23.1 36.1-47.6 28.9-54.9z"/><circle class="st2" cx="118.7" cy="118.7" r="3.1"/><circle class="st2" cx="393.3" cy="393.3" r="34.2"/><path class="st3" d="M484.4 302.3c-7.2-7.2-31.8 5.8-54.9 28.9-16 16-29.3 37.6-35.9 49.4-3.3-.1-6.7 1.2-9.3 3.7-2.6 2.5-3.8 5.9-3.7 9.3-11.7 6.7-33.3 19.9-49.4 35.9-23.1 23.1-36.2 47.7-28.9 54.9 7.2 7.2 31.8-5.8 54.9-28.9 16-16 29.3-37.6 35.9-49.4 3.3.1 6.7-1.2 9.3-3.7s3.8-5.9 3.7-9.3c11.7-6.7 33.3-19.9 49.4-35.9 23.2-23.2 36.1-47.7 28.9-54.9z"/><circle class="st2" cx="393.3" cy="393.3" r="3.1"/><circle class="st2" cx="393.3" cy="118.7" r="34.2"/><path class="st3" d="M455.5 154.8c-16-16-37.6-29.3-49.4-35.9.1-3.3-1.2-6.7-3.7-9.3-2.5-2.6-5.9-3.8-9.3-3.7-6.7-11.7-19.9-33.3-35.9-49.4-23.1-23.1-47.7-36.2-54.9-28.9-7.2 7.2 5.8 31.8 28.9 54.9 16 16 37.6 29.3 49.4 35.9-.1 3.3 1.2 6.7 3.7 9.3s5.9 3.8 9.3 3.7c6.7 11.7 19.9 33.3 35.9 49.4 23.1 23.1 47.7 36.2 54.9 28.9 7.2-7.2-5.7-31.7-28.9-54.9z"/><circle class="st2" cx="393.3" cy="118.7" r="3.1"/><ellipse transform="rotate(-1.087 118.69 393.322) scale(.99998)" class="st2" cx="118.7" cy="393.3" rx="34.2" ry="34.2"/><path class="st3" d="M180.9 429.4c-16-16-37.6-29.3-49.4-35.9.1-3.3-1.2-6.7-3.7-9.3-2.5-2.5-5.9-3.8-9.3-3.7-6.7-11.7-19.9-33.3-35.9-49.4C59.4 308 34.9 295 27.7 302.3s5.8 31.8 28.9 54.9c16 16 37.6 29.3 49.4 35.9-.1 3.3 1.2 6.7 3.7 9.3s5.9 3.8 9.3 3.7c6.7 11.7 19.9 33.3 35.9 49.4 23.1 23.1 47.7 36.2 54.9 28.9 7.1-7.3-5.8-31.8-28.9-55z"/><circle class="st2" cx="118.7" cy="393.3" r="3.1"/><path d="M208.3 156.2c-2.4-1.9-5.9-1.7-8.1.5l-8.9 8.9c-3.9-4.9-7.1-10.3-9.8-15.9l-2.2-7.6c-2.9-10-9.8-18.4-19.1-22.9l-7.4-3.7c-.3-3-1-5.9-2.1-8.8 9.9-6.7 21-14.9 30.2-24.1 23.1-23.1 36.2-47.7 28.9-54.9s-31.8 5.8-54.9 28.9c-9.2 9.2-17.5 20.2-24.1 30.1-12.2-4.6-26.5-2-36.3 7.8s-12.4 24.1-7.8 36.3c-9.9 6.7-21 14.9-30.2 24.1-23.1 23.1-36.2 47.7-28.9 54.9s31.8-5.8 54.9-28.9c9.3-9.2 17.5-20.2 24.1-30.1 2.9 1.1 5.9 1.8 8.8 2.1l3.7 7.4c4.6 9.3 13 16.2 23 19.1l7.7 2.2c5.7 2.7 11 5.9 15.9 9.8l-8.9 8.9c-2.2 2.2-2.4 5.7-.5 8.1 10.4 13.2 16.5 29.8 16.5 47.8s-6.1 34.6-16.5 47.8c-1.9 2.4-1.7 5.9.5 8.1l8.9 8.9c-4.9 3.9-10.3 7.1-15.9 9.8l-7.7 2.2c-10 2.9-18.4 9.8-23 19.1l-3.7 7.4c-3 .3-5.9 1-8.8 2.1-6.7-9.9-14.9-21-24.1-30.1C59.4 308 34.8 295 27.6 302.2s5.8 31.8 28.9 54.9c9.2 9.2 20.2 17.5 30.2 24.1-4.6 12.1-2 26.5 7.8 36.3 9.8 9.8 24.1 12.4 36.3 7.8 6.7 9.9 14.9 21 24.1 30.1 23.1 23.1 47.7 36.2 54.9 28.9 7.2-7.2-5.8-31.8-28.9-54.9-9.2-9.2-20.2-17.5-30.2-24.1 1.1-2.9 1.8-5.9 2.1-8.8l7.4-3.7c9.3-4.6 16.2-13 19.1-22.9l2.2-7.6c2.7-5.7 5.9-11 9.8-15.9l8.9 8.9c2.2 2.2 5.7 2.4 8.1.5 13.2-10.4 29.8-16.5 47.8-16.5V172.6c-18.1 0-34.7-6.1-47.8-16.4z" opacity=".15" fill="#444"/></svg>