<svg version="1.1" xmlns="http://www.w3.org/2000/svg" x="0" y="0" viewBox="0 0 512 512" xml:space="preserve"><style type="text/css">.st0{fill:#4caf50}.st1{fill:#ddd}</style><path class="st0" d="M245.2 464.6c-.5 4.1-.7 8.3-.7 12.5 0 10 1.3 19.8 3.8 29 2.1 7.8 13.3 7.8 15.4 0 2.5-9.3 3.8-19 3.8-29 0-4.2-.2-8.4-.7-12.5h-21.6zM289.5 21h-67V8c0-4.4 3.6-8 8-8h51c4.4 0 8 3.6 8 8v13z"/><path class="st1" d="M256 383h-31v50.2c0 3 1.6 5.7 4.3 7.1L242 447v34h28v-34l12.7-6.7c2.6-1.4 4.3-4.1 4.3-7.1V383h-31z"/><path opacity=".15" fill="#444" d="M287 397v-14h-62v14z"/><path class="st1" d="M291 388h-70c-2.2 0-4-1.8-4-4V22c0-2.2 1.8-4 4-4h70c2.2 0 4 1.8 4 4v362c0 2.2-1.8 4-4 4z"/><path class="st0" d="M217 369h78v8h-78zm65-261V33c0-2.2-1.8-4-4-4h-44c-2.2 0-4 1.8-4 4v75c0 2.2 1.8 4 4 4h2c2.2 0 4 1.8 4 4v14c0 2.2-1.8 4-4 4h-2c-2.2 0-4 1.8-4 4v210c0 2.2 1.8 4 4 4h44c2.2 0 4-1.8 4-4V138c0-2.2-1.8-4-4-4h-2c-2.2 0-4-1.8-4-4v-14c0-2.2 1.8-4 4-4h2c2.2 0 4-1.8 4-4z"/></svg>