<svg version="1.1" xmlns="http://www.w3.org/2000/svg" x="0" y="0" viewBox="0 0 512 512" xml:space="preserve"><path fill="#4b5d6b" d="M256 0l-5 10v202h10V10z"/><path d="M276 293c0-25.7 7.7-54 10.8-64.1.6-1.9-.9-3.9-2.9-3.9H268v-14h-24v14h-15.9c-2 0-3.4 1.9-2.9 3.9 3 10.1 10.8 38.4 10.8 64.1 0 32-18 96-18 128s5 91 38 91 38-59 38-91-18-96-18-128z" fill="#038387"/><path d="M251 10v201h-7v14h-15.9c-2 0-3.4 1.9-2.9 3.9 3 10.1 10.8 38.4 10.8 64.1 0 32-18 96-18 128s5 91 38 91V0l-5 10z" opacity=".15" fill="#444"/></svg>