<svg version="1.1" xmlns="http://www.w3.org/2000/svg" x="0" y="0" viewBox="0 0 512 512" xml:space="preserve"><path d="M261 123h-10V91c0-6.2 3.9-11.9 8.1-17.1 3.2-4 7.7-6.6 12.1-9.2 8.3-4.8 16.2-9.4 16.8-22.9.3-8-2.6-15.7-8.4-21.7C273.5 13.7 264.9 10 256 10c-17.6 0-32 14.4-32 32 0 3.1 1.8 11.3 2.9 15.8l-9.7 2.4c-.3-1.3-3.1-12.9-3.1-18.2 0-23.2 18.8-42 42-42 11.6 0 22.8 4.8 30.8 13.1 7.6 8 11.6 18.3 11.2 29.1-.8 19-12.9 26-21.8 31.2-3.8 2.2-7.3 4.3-9.3 6.8-1.8 2.2-5.9 7.4-5.9 10.9V123z" fill="#36434f"/><path d="M343 512H169c-17.7 0-32-14.3-32-32V154c0-17.7 14.3-32 32-32h174c17.7 0 32 14.3 32 32v326c0 17.7-14.3 32-32 32z" fill="#e0ac7e"/><path d="M328.1 154c-4.7 0-8.6 3.9-8.6 8.6v218.8c0 4.7 3.9 8.6 8.6 8.6s8.6-3.9 8.6-8.6V162.6c0-4.7-3.8-8.6-8.6-8.6zm0 266c-4.7 0-8.6 3.9-8.6 8.6v42.8c0 4.7 3.9 8.6 8.6 8.6s8.6-3.9 8.6-8.6v-42.8c0-4.7-3.8-8.6-8.6-8.6z" opacity=".5" fill="#f4f4f4"/></svg>