<svg version="1.1" xmlns="http://www.w3.org/2000/svg" x="0" y="0" viewBox="0 0 512 512" xml:space="preserve"><style type="text/css">.st2{opacity:.5;fill:#f4f4f4;enable-background:new}.st3{fill:#2e86b7}</style><path d="M0 261l192 164 260-141 60-202-274 141L0 261z" fill="#4fc3f7"/><path d="M238 223l-46 202 260-141-214-61z" fill="#2f9fd1"/><path class="st2" d="M321.3 296.8l1.4-1.6-82.4-71.6-2.3-.6-.3 1.1 83.6 72.7z"/><path class="st3" d="M282 176l132 80-186 80 54-160z"/><path class="st2" d="M321 296l1.8-.8-39.5-118.4-1.3-.8-.5 1.6L321 296z"/><path d="M0 261l414-5-222 169L0 261zM512 82l-98 174 38 28 60-202z" fill="#29b6f6"/><path class="st3" d="M414 256L192 425l260-141-38-28z"/></svg>