<svg version="1.1" xmlns="http://www.w3.org/2000/svg" x="0" y="0" viewBox="0 0 512 512" xml:space="preserve"><style type="text/css">.st0{fill:#36434f}.st1{fill:#4292be}.st2,.st3{opacity:.25;fill:#36434f}.st3{opacity:.15}</style><path class="st0" d="M224.8 131l-4 26 27 21 2-29zM277 0l17 57-6 59-29-22 4-43h9l-3-4 4-2-3-4 4-3-4-3 4-4-4-3 3-3-6.8-3.4c-.6-.3-.7-1.1-.3-1.6l2.5-2.5c2-2 2.3-5.2.7-7.6L268 8V0h9zm10 131l4 26-27 21-2-29zM235 0l-17 57 6 59 29-22-4-43h-9l3-4-4-2 3-4-4-3 4-3-4-4 4-3-3-3 6.8-3.4c.6-.3.7-1.1.3-1.6l-2.5-2.5c-2-2-2.3-5.2-.7-7.6L244 8V0h-9z"/><path class="st1" d="M201.8 165.9s10 10 8 34-46 128-46 193 7 77 8 88c.5 5.7-.3 10.3-1.2 13.4-.8 2.8.5 5.8 3.1 7l20 10c2.9 1.4 6.4.4 7.9-2.5l1.4-2.6c.5-.9.6-1.9.4-2.9-2.3-9.4-13.9-62.8-6.6-113.5 8-56 49-190 49-190l-44-33.9zm47.1 20c.4-4 .4-7.3.3-9.8l-28.7-21.6c-1.8-1.3-4.3-1-5.6.8l-4.9 6.5 38.2 28.8c.3-1.8.5-3.4.7-4.7z"/><path class="st2" d="M248.9 185.9c.4-4 .4-7.3.3-9.8l-28.7-21.6c-1.8-1.3-4.3-1-5.6.8l-4.9 6.5 38.2 28.8c.3-1.8.5-3.4.7-4.7z"/><path class="st1" d="M245.7 200.3c1-3.7 2-7.4 2.6-10.5l-52.6-39.6c-1.8-1.3-4.3-1-5.6.8l-1.3 1.7c-1.3 1.8-1 4.3.8 5.6l56 42.2.1-.2z"/><path class="st3" d="M245.7 200.3c1-3.7 2-7.4 2.6-10.5l-52.6-39.6c-1.8-1.3-4.3-1-5.6.8l-1.3 1.7c-1.3 1.8-1 4.3.8 5.6l56 42.2.1-.2z"/><path class="st1" d="M310.2 165.9s-10 10-8 34 46 128 46 193-7 77-8 88c-.5 5.7.3 10.3 1.2 13.4.8 2.8-.5 5.8-3.1 7l-20 10c-2.9 1.4-6.4.4-7.9-2.5l-1.4-2.6c-.5-.9-.6-1.9-.4-2.9 2.3-9.4 13.9-62.8 6.6-113.5-8-56-49-190-49-190l44-33.9zm-47.1 20c-.4-4-.4-7.3-.3-9.8l28.7-21.6c1.8-1.3 4.3-1 5.6.8l4.9 6.5-38.2 28.8c-.3-1.8-.5-3.4-.7-4.7z"/><path class="st2" d="M263.1 185.9c-.4-4-.4-7.3-.3-9.8l28.7-21.6c1.8-1.3 4.3-1 5.6.8l4.9 6.5-38.2 28.8c-.3-1.8-.5-3.4-.7-4.7z"/><path class="st1" d="M266.3 200.3c-1-3.7-2-7.4-2.6-10.5l52.6-39.6c1.8-1.3 4.3-1 5.6.8l1.3 1.7c1.3 1.8 1 4.3-.8 5.6l-56 42.2-.1-.2z"/><path class="st3" d="M266.3 200.3c-1-3.7-2-7.4-2.6-10.5l52.6-39.6c1.8-1.3 4.3-1 5.6.8l1.3 1.7c1.3 1.8 1 4.3-.8 5.6l-56 42.2-.1-.2z"/><path class="st0" d="M286.5 126.3c-2.4 0-4.4-2-4.4-4.4 0-2.4 2-4.4 4.4-4.4.8 0 1.5.2 2.1.6-2.3-15.9-16-28.1-32.6-28.1s-30.3 12.2-32.6 28.1c.6-.4 1.4-.6 2.1-.6 2.4 0 4.4 2 4.4 4.4 0 2.4-2 4.4-4.4 4.4-.9 0-1.7-.3-2.4-.7 1.3 17 15.5 30.4 32.9 30.4s31.5-13.4 32.9-30.4c-.7.5-1.5.7-2.4.7z"/><path d="M249.1 158.3c-6.5-1.3-12.6-4.3-17.6-9-3.3-3.1-6-6.7-7.9-10.7l.9-5.9c3.5 11.4 13 20.1 24.8 22.6l-.2 3zm30.5-62.5c-5.6-4.9-12.6-7.9-20-8.6l-.3 3c14 1.4 25.5 11.6 28.7 25.1l.7-7.1c-2-4.7-5.2-9-9.1-12.4z" fill="#122a3a"/><circle cx="256" cy="123" r="14" fill="#4b5d6b"/></svg>