<svg version="1.1" xmlns="http://www.w3.org/2000/svg" x="0" y="0" viewBox="0 0 512 512" xml:space="preserve"><style type="text/css">.st0{fill:#f4f4f4}.st1{fill:#4caf50}.st2{fill:#4b9f4e}</style><path class="st0" d="M221.4 194.5h69.2v123h-69.2z"/><ellipse class="st1" cx="256" cy="488.5" rx="72.5" ry="23.5"/><ellipse class="st1" cx="256" cy="480.5" rx="72.5" ry="19.5"/><path class="st1" d="M183.5 480.5h145v8h-145z"/><ellipse class="st2" cx="256" cy="450" rx="61" ry="13.8"/><ellipse class="st2" cx="256" cy="471" rx="61" ry="13.8"/><path class="st2" d="M195 450h122v21H195z"/><ellipse class="st1" cx="256" cy="23.5" rx="72.5" ry="23.5"/><ellipse class="st1" cx="256" cy="31.5" rx="72.5" ry="19.5"/><path class="st1" d="M183.5 23.5h145v8h-145z"/><ellipse class="st2" cx="256" cy="62" rx="61" ry="13.8"/><ellipse class="st2" cx="256" cy="41" rx="61" ry="13.8"/><path class="st2" d="M195 41h122v21H195z"/><path d="M305.5 159.7V69c0-8.8-22.2-16-49.5-16s-49.5 7.2-49.5 16v90.7c0 8.8 1.8 17.4 5.3 25.5l30.7 70.8-30.7 70.8c-3.5 8-5.3 16.7-5.3 25.5V443c0 8.8 22.2 16 49.5 16s49.5-7.2 49.5-16v-90.7c0-8.8-1.8-17.4-5.3-25.5L269.5 256l30.7-70.8c3.5-8.1 5.3-16.7 5.3-25.5z" fill="#ddd"/><path class="st0" d="M264.4 396.7c-5.2-3.2-11.7-3.2-16.8 0l-31.1 19.2v25.5c1.4 1 4.8 2.9 11.5 4.6 7.9 2 17.8 3.1 28 3.1s20.1-1.1 28-3.1c6.7-1.7 10.1-3.6 11.5-4.6v-25.5l-31.1-19.2zm-47.9-237c0 7.4 1.5 14.7 4.5 21.5l30.7 70.8 1.7 4h5.2l1.7-4 30.7-70.8c3-6.8 4.5-14.1 4.5-21.5V142h-79v17.7z"/><path class="st0" d="M253.4 252h5.2v144h-5.2z"/><ellipse class="st0" cx="256" cy="142" rx="39.5" ry="4.8"/><path d="M183.5 23.5v8c0 3.9 4.2 7.5 11.5 10.5v20c0 3 4.3 5.8 11.5 8.1v89.6c0 8.8 1.8 17.4 5.3 25.5l9.6 22.1v97.4l-9.6 22.1c-3.5 8-5.3 16.7-5.3 25.5v89.6c-7.2 2.3-11.5 5.1-11.5 8.1v20c-7.3 3-11.5 6.7-11.5 10.5v8c0 13 32.5 23.5 72.5 23.5V0c-40 0-72.5 10.5-72.5 23.5z" opacity=".15" fill="#444"/></svg>