<svg version="1.1" xmlns="http://www.w3.org/2000/svg" x="0" y="0" viewBox="0 0 512 512" xml:space="preserve"><style type="text/css">.st1{opacity:.15;fill:#444;enable-background:new}.st2{fill:#36434f}.st3{fill:#fff}.st6{fill:#cc584c}</style><path d="M225.5 490h-32v-67.5L11.1 198.6c-3.3-4-4.4-9.3-3-14.3 1.3-5 5-9 9.8-10.8L356.4 47l11.2 30L50 195.7l171.9 211c2.3 2.9 3.6 6.4 3.6 10.1V490z" fill="#ddd"/><path class="st1" d="M193.5 472h32v18h-32z"/><path class="st2" d="M282 512H134v-24c0-4.4 3.6-8 8-8h132c4.4 0 8 3.6 8 8v24z"/><circle class="st2" cx="29.5" cy="189.5" r="7.5"/><path class="st3" d="M29.5 182c4.1 0 7.5 3.4 7.5 7.5s-3.4 7.5-7.5 7.5-7.5-3.4-7.5-7.5 3.4-7.5 7.5-7.5m0-4c-6.3 0-11.5 5.2-11.5 11.5S23.2 201 29.5 201 41 195.8 41 189.5 35.8 178 29.5 178z"/><circle class="st2" cx="208" cy="416.5" r="7.5"/><path class="st3" d="M208 409c4.1 0 7.5 3.4 7.5 7.5s-3.4 7.5-7.5 7.5-7.5-3.4-7.5-7.5 3.4-7.5 7.5-7.5m0-4c-6.3 0-11.5 5.2-11.5 11.5S201.7 428 208 428s11.5-5.2 11.5-11.5S214.3 405 208 405z"/><circle class="st2" cx="332.5" cy="72.5" r="7.5"/><path class="st3" d="M332.5 65c4.1 0 7.5 3.4 7.5 7.5s-3.4 7.5-7.5 7.5-7.5-3.4-7.5-7.5 3.4-7.5 7.5-7.5m0-4c-6.3 0-11.5 5.2-11.5 11.5S326.2 84 332.5 84 344 78.8 344 72.5 338.8 61 332.5 61z"/><path opacity=".3" fill="#444" d="m356.4 47-21.8 8.2L359.4 80l8.2-3z"/><circle cx="432.3" cy="103.4" r="26" fill="#ffdd7a"/><path class="st6" d="m349.1 4.7-15.6 15.6c-6.2 6.2-6.2 16.4 0 22.6l48.8 48.8 38.2-38.2-48.7-48.8c-6.3-6.3-16.4-6.3-22.7 0zm19.1 47.4c.8.8.8 2 0 2.8s-2 .8-2.8 0L352 41.5c-.8-.8-.8-2 0-2.8s2-.8 2.8 0l13.4 13.4zm7.8-7.8c.8.8.8 2 0 2.8s-2 .8-2.8 0l-13.4-13.4c-.8-.8-.8-2 0-2.8s2-.8 2.8 0L376 44.3zm7.8-7.8c.8.8.8 2 0 2.8s-2 .8-2.8 0l-13.4-13.4c-.8-.8-.8-2 0-2.8s2-.8 2.8 0l13.4 13.4z"/><path class="st1" d="M404.9 37.8c-7.8 4.3-15.2 9.7-21.8 16.4-6.6 6.6-12.1 14-16.4 21.8l15.6 15.6 38.2-38.2-15.6-15.6z"/><path class="st6" d="M493.9 55.1c-30.6-25.6-76.3-24.1-105.1 4.7S358.4 134.3 384 165L493.9 55.1z"/><path class="st1" d="M367.6 98.6c2.5 20.6 11 40.6 25.5 57.2l10.6-10.6c-1.7-1.5-3.4-3.1-5.1-4.8-13.8-13.8-23.6-30-29.6-47.2-.5 1.8-1 3.6-1.4 5.4z"/></svg>