<svg xmlns="http://www.w3.org/2000/svg" viewBox="0 0 512 512" xml:space="preserve"><style>.st3{fill:#ddd}</style><path fill="#f4f4f4" d="M0 0h512v512H0z"/><path d="M0 102.4h512M0 204.8h512M0 307.2h512M0 409.6h512" fill="none" stroke="#444" stroke-width="4" stroke-miterlimit="10" opacity=".2"/><path class="st3" d="M99 0h310v512H99z"/><path fill="#bbb" d="M149 93h214v419H149z"/><path opacity=".5" fill="#444" d="M254 93h4v419h-4z"/><path fill="#36434f" d="M200.5 37.8h111v31.5h-111z"/><g fill="#cc584c"><path d="m280.8 42.3-9 22.5 9-6 9 6z"/><path opacity=".5" d="m231.3 64.8-9-22.5 9 6 9-6z"/></g><path d="M472.4 283.6h-26.3c-1.7 0-3-1.3-3-3v-49.5c0-1.7 1.3-3 3-3h26.3c1.7 0 3 1.3 3 3v49.5c0 1.7-1.4 3-3 3z" fill="#999"/><circle class="st3" cx="459.3" cy="270.9" r="7.5"/><path fill="none" stroke="#cc584c" stroke-width="3" stroke-linecap="round" stroke-linejoin="round" stroke-miterlimit="10" d="m454.8 269.4 4.5 4.5 4.5-4.5"/><circle class="st3" cx="459.3" cy="240.9" r="7.5"/><path opacity=".5" fill="none" stroke="#cc584c" stroke-width="3" stroke-linecap="round" stroke-linejoin="round" stroke-miterlimit="10" d="m454.8 242.4 4.5-4.5 4.5 4.5"/></svg>