<svg version="1.1" xmlns="http://www.w3.org/2000/svg" x="0" y="0" viewBox="0 0 512 512" xml:space="preserve"><style type="text/css">.st0{opacity:.2;fill:#f4f4f4;enable-background:new}.st2{fill:#059dd2}.st4{fill:#ee3a24}.st5{fill:#0074ae}.st6{fill:#ff8327}</style><path class="st0" d="M124.5 443.1h50v6h-50v-6z"/><circle class="st0" cx="94" cy="439" r="9"/><path d="M161 95h239v25H161V95z" fill="#4a396d"/><path class="st2" d="M111 186h77v279h-77V186z"/><path class="st0" d="M124.5 382.7h50v6h-50v-6zm15 20.4h20v25h-20v-25zm11.1-183v26.8H129V359h41V220.1h-19.4z"/><path d="M188 215h23v250h-23V215z" fill="#aaa"/><path class="st0" d="M188 285.2h23v65h-23v-65z"/><path class="st4" d="M0 153h77v312H0V153z"/><path class="st0" d="M15 298.3h47v130H15v-130zm0-26.2h47v10H15v-10z"/><path class="st2" d="M465 230h17v235h-17V230z"/><path class="st0" d="M465 297.4h17v110h-17v-110z"/><path class="st5" d="M154 47h258v48H154V47z"/><path class="st0" d="M167.1 62h58v18h-58V62zm78.8 0h128v18h-128V62zm145.6 0h8v18h-8V62z"/><path class="st6" d="M385 210h37v255h-37V210z"/><path class="st0" d="M393.5 256h20v58h-20v-58zm0 90.6h20v70h-20v-70z"/><path d="M422 186h43v279h-43V186z" fill="#914a21"/><path class="st0" d="M422 414.8h43v18h-43v-18zm9-199.7h25v180h-25v-180z"/><path class="st6" d="M482 234h30v231h-30V234z"/><path class="st0" d="M487 372.6h20v82h-20v-82zm0-126h20v66h-20v-66z"/><path d="M211 204h68v261h-68V204z" fill="#c64757"/><path class="st0" d="M225 229.2h40v73h-40v-73zm0 94.8h40v90h-40v-90z"/><path d="M279 218h43v247h-43V218z" fill="#006278"/><path class="st0" d="M287 237.6h27v72h-27v-72zm0 92.8h27v30h-27v-30zm0 51.5h27v64h-27v-64z"/><path class="st4" d="M322 195h63v270h-63V195z"/><path class="st0" d="M336 218.4h35v106h-35v-106zm0 125.8h35v100h-35v-100z"/><path d="M77 215h34v250H77V215z" fill="#2c9b47"/><path class="st0" d="M92.3 234.5v88.8h-8v93.9H105V234.5H92.3z"/><path class="st5" d="M151.2 141h290v45h-290v-45z"/><path class="st0" d="M297.2 149.5h6v28h-6v-28zm-63.8 5h48v18h-48v-18zm90.2 0h54v18h-54v-18zm68.9-5h6v28h-6v-28z"/><circle class="st0" cx="189.2" cy="163.5" r="14"/><path class="st2" d="M144 120h311v21H144v-21z"/><path class="st0" d="M165.2 127h153v7h-153v-7z"/><circle class="st0" cx="341.5" cy="130.5" r="6.9"/></svg>