<svg version="1.1" xmlns="http://www.w3.org/2000/svg" x="0" y="0" viewBox="0 0 512 512" xml:space="preserve"><path d="M512 472.1l-.9-12.4c-.8-10.8-6.8-20.5-16.2-25.9L279.3 309.3l25.1-46.9c7.1-13.5 9.2-29.1 6-44L271.1 37.6c-1.2-5.6-7.7-8.2-12.5-5l-10.3 7c-9 6.1-14.3 16.2-14.3 27v249l-53.2 1.7c-15.3.6-29.8 6.6-41.1 16.9L2.7 458.4c-4.3 3.9-3.3 10.8 1.9 13.3l11.2 5.4c9.7 4.7 21.2 4.3 30.5-1.1l215.6-124.5 28 45.2c8.2 12.9 20.6 22.5 35.2 27.2l176.3 56.5c5.5 1.8 11-2.5 10.6-8.3zM258.4 330.7c-2.9 0-5.2-2.3-5.2-5.2s2.3-5.2 5.2-5.2 5.2 2.3 5.2 5.2-2.3 5.2-5.2 5.2z" fill="#2e86b7"/><path d="M258.4 311.7c-7.6 0-13.7 6.2-13.7 13.7s6.2 13.7 13.7 13.7c7.6 0 13.7-6.2 13.7-13.7s-6.1-13.7-13.7-13.7zm0 19c-2.9 0-5.2-2.3-5.2-5.2s2.3-5.2 5.2-5.2 5.2 2.3 5.2 5.2-2.3 5.2-5.2 5.2z" opacity=".5" fill="#444"/></svg>