<svg version="1.1" xmlns="http://www.w3.org/2000/svg" x="0" y="0" viewBox="0 0 512 512" xml:space="preserve"><path d="M12 256c0 134.8 109.2 244 244 244s244-109.2 244-244S390.8 12 256 12 12 121.2 12 256zm64 45v-90c0-11 9-20 20-20s20 9 20 20v90c0 11-9 20-20 20s-20-9-20-20zm80 75V136c0-11 9-20 20-20s20 9 20 20v240c0 11-9 20-20 20s-20-9-20-20zm280-165v90c0 11-9 20-20 20s-20-9-20-20v-90c0-11 9-20 20-20s20 9 20 20zm-80-75v240c0 11-9 20-20 20s-20-9-20-20V136c0-11 9-20 20-20s20 9 20 20zm-80-60v360c0 11-9 20-20 20s-20-9-20-20V76c0-11 9-20 20-20s20 9 20 20z" fill="#a18267"/><path d="M256 0C114.6 0 0 114.6 0 256s114.6 256 256 256 256-114.6 256-256S397.4 0 256 0zm-45 76h90c11 0 20 9 20 20s-9 20-20 20h-90c-11 0-20-9-20-20s9-20 20-20zm-75 80h240c11 0 20 9 20 20s-9 20-20 20H136c-11 0-20-9-20-20s9-20 20-20zm165 280h-90c-11 0-20-9-20-20s9-20 20-20h90c11 0 20 9 20 20s-9 20-20 20zm75-80H136c-11 0-20-9-20-20s9-20 20-20h240c11 0 20 9 20 20s-9 20-20 20zm60-80H76c-11 0-20-9-20-20s9-20 20-20h360c11 0 20 9 20 20s-9 20-20 20z" fill="#e0ac7e"/><path d="M305.1 356l-40 40H301c4.6 0 8.8 1.6 12.2 4.2l44.2-44.2h-52.3zm-73.3-160h-58l-40 40h58zm162.4-28.1c1.1 2.5 1.8 5.2 1.8 8.1 0 11-9 20-20 20h-9.9l-40 40h49.5l104.2-104.2c-5.8-10.5-12.3-20.5-19.5-30l-66.1 66.1zM436 276h-50.9l-40 40H376c5.9 0 11.1 2.6 14.8 6.6l46.7-46.7c-.5.1-1 .1-1.5.1zm-189.9 40h49.5l40-40h-49.5zm261.1-109.7c-2.8-14-6.7-27.6-11.6-40.7L425.1 236H436c11 0 20 9 20 20 0 .5 0 1-.1 1.5l51.3-51.2zM293.8 76h7.2c11 0 20 9 20 20s-9 20-20 20h-47.2l-40 40h58L390 37.8c-12.2-7.5-25.1-14-38.5-19.4L293.8 76zM191.4 420.2c-.3-1.3-.4-2.7-.4-4.2 0-11 9-20 20-20h4.6l40-40h-49.5L101.8 460.3c9.5 7.2 19.5 13.7 30 19.5l59.6-59.6zm309.8-90.6L329.6 501.2c82.2-24.6 147-89.4 171.6-171.6zM277.4 436h-52.3l-59.6 59.6c13.1 4.9 26.7 8.8 40.7 11.6l71.2-71.2zM151.8 276h-58l-75.4 75.4c5.4 13.5 11.9 26.3 19.4 38.5l114-113.9zM3 216.9l214-214C106.8 19.8 19.8 106.8 3 216.9z" fill="#444" opacity=".15"/><path d="M236 436v-40h20v-40h-20v-40h20v-40h-20v-40h20v-40h-20v-40h20v-40h-20V76h20V0c-13.3 0-26.3 1-39.1 3l-5.7.9c-.7.1-1.3.2-2 .4-1.3.2-2.5.5-3.8.7-.7.1-1.5.3-2.2.5-1.2.3-2.4.5-3.6.8-.7.2-1.4.3-2.1.5-1.4.3-2.8.7-4.1 1-.5.1-1 .2-1.5.4-1.8.5-3.7 1-5.5 1.5-.6.2-1.1.3-1.7.5-1.3.4-2.6.8-3.8 1.1-.7.2-1.4.4-2.1.7-1.2.4-2.3.7-3.5 1.1-.7.2-1.4.5-2.1.7-1.2.4-2.5.9-3.7 1.3l-1.8.6c-1.8.6-3.5 1.3-5.3 2-.4.2-.8.3-1.3.5-1.4.5-2.7 1.1-4 1.7-.7.3-1.3.6-2 .8l-3.3 1.5c-.7.3-1.4.6-2 .9-1.1.5-2.2 1-3.4 1.6l-1.8.9c-1.5.7-3 1.5-4.5 2.2-.3.1-.5.3-.8.4-1.6.8-3.2 1.7-4.7 2.5-.6.3-1.2.6-1.7 1-1.1.6-2.2 1.2-3.2 1.8-.6.4-1.3.7-1.9 1.1-1 .6-2.1 1.2-3.1 1.8-.6.4-1.2.7-1.8 1.1-1.2.7-2.4 1.5-3.6 2.2-.4.3-.8.5-1.2.8-1.6 1-3.1 2-4.6 3.1-.5.3-1 .7-1.5 1-1.1.7-2.1 1.5-3.2 2.2-.6.4-1.2.8-1.8 1.3-1 .7-1.9 1.4-2.9 2.1-.6.4-1.2.9-1.7 1.3-1 .8-2 1.6-3.1 2.4-.5.4-1 .7-1.4 1.1-1.4 1.1-2.9 2.3-4.3 3.5-.4.3-.7.6-1.1.9-1.3.7-2.4 1.6-3.5 2.6-.5.5-1.1.9-1.6 1.4l-2.7 2.4c-.5.5-1.1 1-1.6 1.5-.9.8-1.8 1.7-2.7 2.5-.5.5-1 .9-1.4 1.4-1.2 1.2-2.5 2.4-3.7 3.6l-.7.7c-1.2 1.2-2.4 2.4-3.6 3.7-.5.5-.9 1-1.4 1.4-.8.9-1.7 1.8-2.5 2.7-.5.5-1 1.1-1.5 1.6l-2.4 2.7c-.5.5-.9 1-1.4 1.6-.9 1.1-1.8 2.2-2.7 3.2-.3.4-.6.7-.9 1.1-1.2 1.4-2.3 2.9-3.5 4.3-.4.5-.7 1-1.1 1.4-.8 1-1.6 2-2.3 3.1-.4.6-.9 1.2-1.3 1.7-.7 1-1.4 1.9-2.1 2.9-.4.6-.8 1.2-1.3 1.8-.7 1.1-1.5 2.1-2.2 3.2-.3.5-.7 1-1 1.5-1 1.5-2 3.1-3 4.6-.3.4-.5.8-.8 1.2-.8 1.2-1.5 2.4-2.2 3.6-.4.6-.7 1.2-1.1 1.8-.6 1-1.2 2.1-1.8 3.1-.4.6-.7 1.3-1.1 1.9l-1.8 3.3c-.3.6-.6 1.2-1 1.7-.8 1.6-1.7 3.1-2.5 4.7-.1.3-.3.5-.4.8-.8 1.5-1.5 3-2.2 4.5l-.9 1.8c-.5 1.1-1.1 2.2-1.6 3.4-.3.7-.6 1.4-.9 2l-1.5 3.3c-.3.7-.6 1.3-.8 2-.6 1.3-1.1 2.7-1.7 4-.2.4-.3.8-.5 1.3-.7 1.7-1.4 3.5-2 5.3l-.6 1.8c-.4 1.2-.9 2.4-1.3 3.7-.2.7-.5 1.4-.7 2.1-.4 1.2-.8 2.3-1.1 3.5-.2.7-.4 1.4-.7 2.1-.4 1.3-.8 2.6-1.1 3.8-.2.6-.3 1.1-.5 1.7-.5 1.8-1 3.7-1.5 5.5-.1.5-.2 1-.4 1.5-.3 1.4-.7 2.8-1 4.1-.2.7-.3 1.4-.5 2.1-.3 1.2-.5 2.4-.8 3.6-.2.7-.3 1.5-.5 2.2-.3 1.3-.5 2.5-.7 3.8-.1.7-.3 1.3-.4 2-.3 1.9-.7 3.8-.9 5.7-2 12.7-3 25.8-3 39.1 0 41.4 9.8 80.5 27.3 115.1.7 1.5 1.5 2.9 2.2 4.3.1.2.3.5.4.7.7 1.4 1.5 2.7 2.2 4 .2.3.3.6.5.9.8 1.3 1.5 2.7 2.3 4 .1.2.3.5.4.7.8 1.4 1.6 2.8 2.5 4.1 16.8 27.3 38.5 51.1 64 70.4 1 .8 2 1.5 3 2.2.4.3.7.5 1.1.8 1 .7 2.1 1.5 3.1 2.2 2.4 1.7 4.8 3.3 7.2 4.9.1 0 .1.1.2.1 1.2.8 2.4 1.5 3.6 2.3.1.1.2.1.4.2 15.6 9.8 32.4 17.9 50.1 24.2h.1c8.2 2.9 16.6 5.4 25.1 7.5.1 0 .2 0 .3.1 1.6.4 3.2.8 4.9 1.1.2 0 .4.1.5.1C219 510 237.2 512 256 512v-76h-20zM116 276H76v-40h40v40zm80 80h-40v-40h40v40zm0-80h-40v-40h40v40zm0-80h-40v-40h40v40z" opacity=".15" fill="#444"/></svg>