<svg xmlns="http://www.w3.org/2000/svg" viewBox="0 0 512 512" style="enable-background:new 0 0 512 512" xml:space="preserve"><style>.st0{fill:#a18267}.st1{fill:#444}.st1,.st2{opacity:.5}.st3,.st4{fill:#444}.st4{opacity:.15}</style><ellipse class="st0" cx="354.5" cy="256.5" rx="24.5" ry="10"/><path class="st0" d="M501.5 245.5c-.9 0-1.7.1-2.5.3-6.3 1.5-12.8 2.7-19.3 2.7h-33.3v15h33.3c6.5 0 12.9 1.2 19.3 2.7.8.2 1.6.3 2.5.3 5.8 0 10.5-4.7 10.5-10.5s-4.7-10.5-10.5-10.5z"/><path class="st1" d="M446.4 249.5h.6v13h-.6v1h8.5c0-.3.1-.7.1-1v-13c0-.3 0-.7-.1-1h-8.5v1z"/><g class="st2"><path class="st3" d="M335 251.3v10.4l-2-.4c2.1 1.6 5.3 2.9 9.2 3.8.5-1.1.8-2.2.8-3.5v-10.4c0-1.2-.3-2.4-.8-3.5-3.8.9-7 2.2-9.2 3.8l2-.2zm39 10.4v-10.4l2 .4c-2.1-1.6-5.3-2.9-9.2-3.8-.5 1.1-.8 2.2-.8 3.5v10.4c0 1.2.3 2.4.8 3.5 3.8-.9 7-2.2 9.2-3.8l-2 .2z"/></g><path class="st0" d="m374.8 247.4 11.2 2.1v14l-11.2 2.1c-2.5.5-4.7-1.4-4.7-3.9v-10.4c-.1-2.5 2.2-4.4 4.7-3.9z"/><path class="st1" d="M379 249.5v13c0 .8.1 1.5.3 2.3l6.6-1.3v-14l-6.9-1.3v1.3z"/><path class="st0" d="M447 266.5h-60c-2.2 0-4-1.8-4-4v-13c0-2.2 1.8-4 4-4h60c2.2 0 4 1.8 4 4v13c0 2.2-1.8 4-4 4zm-112.8-19.1-11.2 2.1v14l11.2 2.1c2.5.5 4.7-1.4 4.7-3.9v-10.4c.1-2.5-2.2-4.4-4.7-3.9z"/><path class="st1" d="M323 256.5v7l6.6 1.3c.2-.7.3-1.5.3-2.3v-13c0-.4 0-.9-.1-1.3l-6.9 1.3v7z"/><path class="st0" d="M322 266.5h-44v-21h44c2.2 0 4 1.8 4 4v13c0 2.2-1.8 4-4 4z"/><path class="st4" d="M278 256.5v10h44c1.7 0 3.1-1 3.7-2.5l8.5 1.6c1.6.3 3.1-.4 4-1.6.4.1.8.3 1.2.4.9.3 1.8.5 2.7.8 3.6.9 7.8 1.4 12.3 1.4s8.7-.5 12.3-1.4c1-.2 1.9-.5 2.7-.8.4-.1.8-.3 1.2-.4.9 1.2 2.4 1.9 4 1.6l8.5-1.6c.6 1.5 2 2.5 3.7 2.5h60c1.9 0 3.4-1.3 3.9-3h28.9c6.5 0 12.9 1.2 19.3 2.7.8.2 1.6.3 2.5.3 5.6 0 10.2-4.4 10.5-10H278z"/><ellipse class="st0" cx="157.5" cy="255.5" rx="24.5" ry="10"/><path class="st0" d="M10.5 266.5c.9 0 1.7-.1 2.5-.3 6.3-1.5 12.8-2.7 19.3-2.7h33.3v-15H32.3c-6.5 0-12.9-1.2-19.3-2.7-.8-.2-1.6-.3-2.5-.3C4.7 245.5 0 250.2 0 256s4.7 10.5 10.5 10.5z"/><path class="st1" d="M65.6 262.5H65v-13h.6v-1h-8.5c0 .3-.1.7-.1 1v13c0 .3 0 .7.1 1h8.5v-1z"/><g class="st2"><path class="st3" d="M177 260.7v-10.4l2 .4c-2.1-1.6-5.3-2.9-9.2-3.8-.5 1.1-.8 2.2-.8 3.5v10.4c0 1.2.3 2.4.8 3.5 3.8-.9 7-2.2 9.2-3.8l-2 .2zm-39-10.4v10.4l-2-.4c2.1 1.6 5.3 2.9 9.2 3.8.5-1.1.8-2.2.8-3.5v-10.4c0-1.2-.3-2.4-.8-3.5-3.8.9-7 2.2-9.2 3.8l2-.2z"/></g><path class="st0" d="m137.2 264.6-11.2-2.1v-14l11.2-2.1c2.5-.5 4.7 1.4 4.7 3.9v10.4c.1 2.5-2.2 4.4-4.7 3.9z"/><path class="st1" d="M133 262.5v-13c0-.8-.1-1.5-.3-2.3l-6.6 1.3v14l6.9 1.3v-1.3z"/><path class="st0" d="M65 245.5h60c2.2 0 4 1.8 4 4v13c0 2.2-1.8 4-4 4H65c-2.2 0-4-1.8-4-4v-13c0-2.2 1.8-4 4-4zm112.8 19.1 11.2-2.1v-14l-11.2-2.1c-2.5-.5-4.7 1.4-4.7 3.9v10.4c-.1 2.5 2.2 4.4 4.7 3.9z"/><path class="st1" d="M189 255.5v-7l-6.6-1.3c-.2.7-.3 1.5-.3 2.3v13c0 .4 0 .9.1 1.3l6.9-1.3v-7z"/><path class="st0" d="M190 245.5h44v21h-44c-2.2 0-4-1.8-4-4v-13c0-2.2 1.8-4 4-4z"/><path class="st4" d="M234 255.5v-10h-44c-1.7 0-3.1 1-3.7 2.5l-8.5-1.6c-1.6-.3-3.1.4-4 1.6-.4-.1-.8-.3-1.2-.4-.9-.3-1.8-.5-2.7-.8-3.6-.9-7.8-1.4-12.3-1.4s-8.7.5-12.3 1.4c-1 .2-1.9.5-2.7.8-.4.1-.8.3-1.2.4-.9-1.2-2.4-1.9-4-1.6l-8.5 1.6c-.6-1.5-2-2.5-3.7-2.5H65c-1.9 0-3.4 1.3-3.9 3H32.3c-6.5 0-12.9-1.2-19.3-2.7-.8-.2-1.6-.3-2.5-.3-5.6 0-10.2 4.4-10.5 10h234z"/><ellipse class="st0" cx="256.5" cy="157.5" rx="10" ry="24.5"/><path class="st0" d="M245.5 10.5c0 .9.1 1.7.3 2.5 1.5 6.3 2.7 12.8 2.7 19.3v33.3h15V32.3c0-6.5 1.2-12.9 2.7-19.3.2-.8.3-1.6.3-2.5C266.5 4.7 261.8 0 256 0s-10.5 4.7-10.5 10.5z"/><path class="st1" d="M249.5 65.6V65h13v.6h1v-8.5c-.3 0-.7-.1-1-.1h-13c-.3 0-.7 0-1 .1v8.5h1z"/><g class="st2"><path class="st3" d="M251.3 177h10.4l-.4 2c1.6-2.1 2.9-5.3 3.8-9.2-1.1-.5-2.2-.8-3.5-.8h-10.4c-1.2 0-2.4.3-3.5.8.9 3.8 2.2 7 3.8 9.2l-.2-2zm10.4-39h-10.4l.4-2c-1.6 2.1-2.9 5.3-3.8 9.2 1.1.5 2.2.8 3.5.8h10.4c1.2 0 2.4-.3 3.5-.8-.9-3.8-2.2-7-3.8-9.2l.2 2z"/></g><path class="st0" d="m247.4 137.2 2.1-11.2h14l2.1 11.2c.5 2.5-1.4 4.7-3.9 4.7h-10.4c-2.5.1-4.4-2.2-3.9-4.7z"/><path class="st1" d="M249.5 133h13c.8 0 1.5-.1 2.3-.3l-1.3-6.6h-14l-1.3 6.9h1.3z"/><path class="st0" d="M266.5 65v60c0 2.2-1.8 4-4 4h-13c-2.2 0-4-1.8-4-4V65c0-2.2 1.8-4 4-4h13c2.2 0 4 1.8 4 4zm-19.1 112.8 2.1 11.2h14l2.1-11.2c.5-2.5-1.4-4.7-3.9-4.7h-10.4c-2.5-.1-4.4 2.2-3.9 4.7z"/><path class="st1" d="M256.5 189h7l1.3-6.6c-.7-.2-1.5-.3-2.3-.3h-13c-.4 0-.9 0-1.3.1l1.3 6.9h7z"/><path class="st0" d="M266.5 190v44h-21v-44c0-2.2 1.8-4 4-4h13c2.2 0 4 1.8 4 4z"/><path class="st4" d="M256.5 234h10v-44c0-1.7-1-3.1-2.5-3.7l1.6-8.5c.3-1.6-.4-3.1-1.6-4 .1-.4.3-.8.4-1.2.3-.9.5-1.8.8-2.7.9-3.6 1.4-7.8 1.4-12.3s-.5-8.7-1.4-12.3c-.2-1-.5-1.9-.8-2.7-.1-.4-.3-.8-.4-1.2 1.2-.9 1.9-2.4 1.6-4l-1.6-8.5c1.5-.6 2.5-2 2.5-3.7V65c0-1.9-1.3-3.4-3-3.9V32.3c0-6.5 1.2-12.9 2.7-19.3.2-.8.3-1.6.3-2.5 0-5.6-4.4-10.2-10-10.5v234z"/><ellipse class="st0" cx="255.5" cy="354.5" rx="10" ry="24.5"/><path class="st0" d="M266.5 501.5c0-.9-.1-1.7-.3-2.5-1.5-6.3-2.7-12.8-2.7-19.3v-33.3h-15v33.3c0 6.5-1.2 12.9-2.7 19.3-.2.8-.3 1.6-.3 2.5 0 5.8 4.7 10.5 10.5 10.5s10.5-4.7 10.5-10.5z"/><path class="st1" d="M262.5 446.4v.6h-13v-.6h-1v8.5c.3 0 .7.1 1 .1h13c.3 0 .7 0 1-.1v-8.5h-1z"/><g class="st2"><path class="st3" d="M260.7 335h-10.4l.4-2c-1.6 2.1-2.9 5.3-3.8 9.2 1.1.5 2.2.8 3.5.8h10.4c1.2 0 2.4-.3 3.5-.8-.9-3.8-2.2-7-3.8-9.2l.2 2zm-10.4 39h10.4l-.4 2c1.6-2.1 2.9-5.3 3.8-9.2-1.1-.5-2.2-.8-3.5-.8h-10.4c-1.2 0-2.4.3-3.5.8.9 3.8 2.2 7 3.8 9.2l-.2-2z"/></g><path class="st0" d="m264.6 374.8-2.1 11.2h-14l-2.1-11.2c-.5-2.5 1.4-4.7 3.9-4.7h10.4c2.5-.1 4.4 2.2 3.9 4.7z"/><path class="st1" d="M262.5 379h-13c-.8 0-1.5.1-2.3.3l1.3 6.6h14l1.3-6.9h-1.3z"/><path class="st0" d="M245.5 447v-60c0-2.2 1.8-4 4-4h13c2.2 0 4 1.8 4 4v60c0 2.2-1.8 4-4 4h-13c-2.2 0-4-1.8-4-4zm19.1-112.8-2.1-11.2h-14l-2.1 11.2c-.5 2.5 1.4 4.7 3.9 4.7h10.4c2.5.1 4.4-2.2 3.9-4.7z"/><path class="st1" d="M255.5 323h-7l-1.3 6.6c.7.2 1.5.3 2.3.3h13c.4 0 .9 0 1.3-.1l-1.3-6.9h-7z"/><path class="st0" d="M245.5 322v-44h21v44c0 2.2-1.8 4-4 4h-13c-2.2 0-4-1.8-4-4z"/><path class="st4" d="M255.5 278h-10v44c0 1.7 1 3.1 2.5 3.7l-1.6 8.5c-.3 1.6.4 3.1 1.6 4-.1.4-.3.8-.4 1.2-.3.9-.5 1.8-.8 2.7-.9 3.6-1.4 7.8-1.4 12.3s.5 8.7 1.4 12.3c.2 1 .5 1.9.8 2.7.1.4.3.8.4 1.2-1.2.9-1.9 2.4-1.6 4l1.6 8.5c-1.5.6-2.5 2-2.5 3.7v60c0 1.9 1.3 3.4 3 3.9v28.9c0 6.5-1.2 12.9-2.7 19.3-.2.8-.3 1.6-.3 2.5 0 5.6 4.4 10.2 10 10.5V278z"/><ellipse transform="rotate(-45.001 326.003 186.708)" class="st0" cx="326" cy="186.7" rx="24.5" ry="10"/><path class="st0" d="M422.2 75c-.6.6-1.1 1.3-1.5 2-3.4 5.6-7.1 10.9-11.7 15.5l-23.6 23.6 5.3 5.3 5.3 5.3 23.6-23.6c4.6-4.6 10-8.3 15.5-11.7.7-.4 1.4-.9 2-1.5 4.1-4.1 4.1-10.7 0-14.8-4.2-4.2-10.8-4.2-14.9-.1z"/><path class="st1" d="m386 116.8.4-.4 9.2 9.2-.4.4.7.7 6-6c-.2-.3-.4-.5-.7-.8l-9.2-9.2c-.2-.2-.5-.5-.8-.7l-6 6 .8.8z"/><g class="st2"><path class="st3" d="m308.5 196.9 7.3 7.3-1.6 1.1c2.6-.4 5.8-1.7 9.2-3.8-.4-1.1-1-2.1-1.9-3l-7.3-7.3c-.9-.9-1.9-1.5-3-1.9-2.1 3.4-3.4 6.5-3.8 9.2l1.1-1.6zm35-20.3-7.3-7.3 1.6-1.1c-2.6.4-5.8 1.7-9.2 3.8.4 1.1 1 2.1 1.9 3l7.3 7.3c.9.9 1.9 1.5 3 1.9 2.1-3.4 3.4-6.5 3.8-9.2l-1.1 1.6z"/></g><path class="st0" d="m333.9 165.9 9.4-6.4 4.9 4.9 4.9 4.9-6.4 9.4c-1.4 2.1-4.4 2.3-6.1.6l-3.7-3.7-3.7-3.7c-1.6-1.6-1.4-4.6.7-6z"/><path class="st1" d="m338.4 164.4 9.2 9.2c.6.6 1.2 1 1.8 1.4l3.8-5.6-4.9-4.9-4.9-4.9-5.8 3.9c.2.3.5.6.8.9z"/><path class="st0" d="m398.5 128.4-42.4 42.4c-1.6 1.6-4.1 1.6-5.7 0l-9.2-9.2c-1.6-1.6-1.6-4.1 0-5.7l42.4-42.4c1.6-1.6 4.1-1.6 5.7 0l9.2 9.2c1.5 1.6 1.5 4.1 0 5.7zm-93.3 66.2-6.4 9.4 4.9 4.9 4.9 4.9 9.4-6.4c2.1-1.4 2.3-4.4.6-6.1l-3.7-3.7-3.7-3.7c-1.6-1.6-4.6-1.4-6 .7z"/><path class="st1" d="m303.7 209 4.9 4.9 5.6-3.8c-.4-.7-.8-1.3-1.4-1.8l-9.2-9.2c-.3-.3-.6-.6-1-.8l-3.9 5.8 5 4.9z"/><path class="st0" d="M310.1 216.8 279 247.9 264.1 233l31.1-31.1c1.6-1.6 4.1-1.6 5.7 0l9.2 9.2c1.6 1.6 1.6 4.1 0 5.7z"/><path class="st4" d="m271.9 240.8 7.1 7.1 31.1-31.1c1.2-1.2 1.5-2.9.9-4.4l7.2-4.9c1.4-.9 1.9-2.5 1.7-4 .4-.2.7-.4 1.1-.6.8-.4 1.6-.9 2.5-1.4 3.2-2 6.5-4.6 9.7-7.8 3.2-3.2 5.8-6.5 7.8-9.7.5-.8 1-1.7 1.4-2.5.2-.4.4-.7.6-1.1 1.5.3 3.1-.3 4-1.7l4.9-7.2c1.5.6 3.2.3 4.4-.9l42.4-42.4c1.3-1.3 1.5-3.3.6-4.8l2.9-2.9 17.5-17.5c4.6-4.6 10-8.3 15.5-11.7.7-.4 1.4-.9 2-1.5 4-4 4.1-10.4.3-14.5L271.9 240.8z"/><ellipse transform="rotate(-45.001 185.994 325.3)" class="st0" cx="186" cy="325.3" rx="24.5" ry="10"/><path class="st0" d="M89.8 437c.6-.6 1.1-1.3 1.5-2 3.4-5.6 7.1-10.9 11.7-15.5l23.6-23.6-5.3-5.3-5.3-5.3-23.6 23.6c-4.6 4.6-10 8.3-15.5 11.7-.7.4-1.4.9-2 1.5-4.1 4.1-4.1 10.7 0 14.8 4.2 4.2 10.8 4.2 14.9.1z"/><path class="st1" d="m126 395.2-.4.4-9.2-9.2.4-.4-.7-.7-6 6c.2.3.4.5.7.8l9.2 9.2c.2.2.5.5.8.7l6-6-.8-.8z"/><g class="st2"><path class="st3" d="m203.5 315.1-7.3-7.3 1.6-1.1c-2.6.4-5.8 1.7-9.2 3.8.4 1.1 1 2.1 1.9 3l7.3 7.3c.9.9 1.9 1.5 3 1.9 2.1-3.4 3.4-6.5 3.8-9.2l-1.1 1.6zm-35 20.3 7.3 7.3-1.6 1.1c2.6-.4 5.8-1.7 9.2-3.8-.4-1.1-1-2.1-1.9-3l-7.3-7.3c-.9-.9-1.9-1.5-3-1.9-2.1 3.4-3.4 6.5-3.8 9.2l1.1-1.6z"/></g><path class="st0" d="m178.1 346.1-9.4 6.4-4.9-4.9-4.9-4.9 6.4-9.4c1.4-2.1 4.4-2.3 6.1-.6l3.7 3.7 3.7 3.7c1.6 1.6 1.4 4.6-.7 6z"/><path class="st1" d="m173.6 347.6-9.2-9.2c-.6-.6-1.2-1-1.8-1.4l-3.8 5.6 4.9 4.9 4.9 4.9 5.8-3.9c-.2-.3-.5-.6-.8-.9z"/><path class="st0" d="m113.5 383.6 42.4-42.4c1.6-1.6 4.1-1.6 5.7 0l9.2 9.2c1.6 1.6 1.6 4.1 0 5.7l-42.4 42.4c-1.6 1.6-4.1 1.6-5.7 0l-9.2-9.2c-1.5-1.6-1.5-4.1 0-5.7zm93.3-66.2 6.4-9.4-4.9-4.9-4.9-4.9-9.4 6.4c-2.1 1.4-2.3 4.4-.6 6.1l3.7 3.7 3.7 3.7c1.6 1.6 4.6 1.4 6-.7z"/><path class="st1" d="m208.3 303-4.9-4.9-5.6 3.8c.4.7.8 1.3 1.4 1.8l9.2 9.2c.3.3.6.6 1 .8l3.9-5.8-5-4.9z"/><path class="st0" d="m201.9 295.2 31.1-31.1 14.8 14.8-31.1 31.1c-1.6 1.6-4.1 1.6-5.7 0l-9.2-9.2c-1.5-1.5-1.5-4 .1-5.6z"/><path class="st4" d="m240.1 271.2-7.1-7.1-31.1 31.1c-1.2 1.2-1.5 2.9-.9 4.4l-7.2 4.9c-1.4.9-1.9 2.5-1.7 4-.4.2-.7.4-1.1.6-.8.4-1.6.9-2.5 1.4-3.2 2-6.5 4.6-9.7 7.8-3.2 3.2-5.8 6.5-7.8 9.7-.5.8-1 1.7-1.4 2.5-.2.4-.4.7-.6 1.1-1.5-.3-3.1.3-4 1.7l-4.9 7.2c-1.5-.6-3.2-.3-4.4.9l-42.4 42.4c-1.3 1.3-1.5 3.3-.6 4.8l-2.9 2.9L92.3 409c-4.6 4.6-10 8.3-15.5 11.7-.7.4-1.4.9-2 1.5-4 4-4.1 10.4-.3 14.5l165.6-165.5z"/><ellipse transform="rotate(-45.001 186.702 186)" class="st0" cx="186.7" cy="186" rx="10" ry="24.5"/><path class="st0" d="M75 89.8c.6.6 1.3 1.1 2 1.5 5.6 3.4 10.9 7.1 15.5 11.7l23.6 23.6 5.3-5.3 5.3-5.3-23.6-23.6c-4.6-4.6-8.3-10-11.7-15.5-.4-.7-.9-1.4-1.5-2-4.1-4.1-10.7-4.1-14.8 0-4.2 4.2-4.2 10.8-.1 14.9z"/><path class="st1" d="m116.8 126-.4-.4 9.2-9.2.4.4.7-.7-6-6c-.3.2-.5.4-.8.7l-9.2 9.2c-.2.2-.5.5-.7.8l6 6 .8-.8z"/><g class="st2"><path class="st3" d="m196.9 203.5 7.3-7.3 1.1 1.6c-.4-2.6-1.7-5.8-3.8-9.2-1.1.4-2.1 1-3 1.9l-7.3 7.3c-.9.9-1.5 1.9-1.9 3 3.4 2.1 6.5 3.4 9.2 3.8l-1.6-1.1zm-20.3-35-7.3 7.3-1.1-1.6c.4 2.6 1.7 5.8 3.8 9.2 1.1-.4 2.1-1 3-1.9l7.3-7.3c.9-.9 1.5-1.9 1.9-3-3.4-2.1-6.5-3.4-9.2-3.8l1.6 1.1z"/></g><path class="st0" d="m165.9 178.1-6.4-9.4 4.9-4.9 4.9-4.9 9.4 6.4c2.1 1.4 2.3 4.4.6 6.1l-3.7 3.7-3.7 3.7c-1.6 1.6-4.6 1.4-6-.7z"/><path class="st1" d="m164.4 173.6 9.2-9.2c.6-.6 1-1.2 1.4-1.8l-5.6-3.8-4.9 4.9-4.9 4.9 3.9 5.8c.3-.2.6-.5.9-.8z"/><path class="st0" d="m128.4 113.5 42.4 42.4c1.6 1.6 1.6 4.1 0 5.7l-9.2 9.2c-1.6 1.6-4.1 1.6-5.7 0l-42.4-42.4c-1.6-1.6-1.6-4.1 0-5.7l9.2-9.2c1.6-1.5 4.1-1.5 5.7 0zm66.2 93.3 9.4 6.4 4.9-4.9 4.9-4.9-6.4-9.4c-1.4-2.1-4.4-2.3-6.1-.6l-3.7 3.7-3.7 3.7c-1.6 1.6-1.4 4.6.7 6z"/><path class="st1" d="m209 208.3 4.9-4.9-3.8-5.6c-.7.4-1.3.8-1.8 1.4l-9.2 9.2c-.3.3-.6.6-.8 1l5.8 3.9 4.9-5z"/><path class="st0" d="m216.8 201.9 31.1 31.1-14.9 14.9-31.1-31.1c-1.6-1.6-1.6-4.1 0-5.7l9.2-9.2c1.6-1.6 4.1-1.6 5.7 0z"/><path class="st4" d="m240.8 240.1 7.1-7.1-31.1-31.1c-1.2-1.2-2.9-1.5-4.4-.9l-4.9-7.2c-.9-1.4-2.5-1.9-4-1.7-.2-.4-.4-.7-.6-1.1-.4-.8-.9-1.6-1.4-2.5-2-3.2-4.6-6.5-7.8-9.7-3.2-3.2-6.5-5.8-9.7-7.8-.8-.5-1.7-1-2.5-1.4-.4-.2-.7-.4-1.1-.6.3-1.5-.3-3.1-1.7-4l-7.2-4.9c.6-1.5.3-3.2-.9-4.4l-42.4-42.4c-1.3-1.3-3.3-1.5-4.8-.6l-2.9-2.9L103 92.3c-4.6-4.6-8.3-10-11.7-15.5-.4-.7-.9-1.4-1.5-2-4-4-10.4-4.1-14.5-.3l165.5 165.6z"/><ellipse transform="rotate(-45.001 325.294 326.009)" class="st0" cx="325.3" cy="326" rx="10" ry="24.5"/><path class="st0" d="M437 422.2c-.6-.6-1.3-1.1-2-1.5-5.6-3.4-10.9-7.1-15.5-11.7l-23.6-23.6-5.3 5.3-5.3 5.3 23.6 23.6c4.6 4.6 8.3 10 11.7 15.5.4.7.9 1.4 1.5 2 4.1 4.1 10.7 4.1 14.8 0 4.2-4.2 4.2-10.8.1-14.9z"/><path class="st1" d="m395.2 386 .4.4-9.2 9.2-.4-.4-.7.7 6 6c.3-.2.5-.4.8-.7l9.2-9.2c.2-.2.5-.5.7-.8l-6-6-.8.8z"/><g class="st2"><path class="st3" d="m315.1 308.5-7.3 7.3-1.1-1.6c.4 2.6 1.7 5.8 3.8 9.2 1.1-.4 2.1-1 3-1.9l7.3-7.3c.9-.9 1.5-1.9 1.9-3-3.4-2.1-6.5-3.4-9.2-3.8l1.6 1.1zm20.3 35 7.3-7.3 1.1 1.6c-.4-2.6-1.7-5.8-3.8-9.2-1.1.4-2.1 1-3 1.9l-7.3 7.3c-.9.9-1.5 1.9-1.9 3 3.4 2.1 6.5 3.4 9.2 3.8l-1.6-1.1z"/></g><path class="st0" d="m346.1 333.9 6.4 9.4-4.9 4.9-4.9 4.9-9.4-6.4c-2.1-1.4-2.3-4.4-.6-6.1l3.7-3.7 3.7-3.7c1.6-1.6 4.6-1.4 6 .7z"/><path class="st1" d="m347.6 338.4-9.2 9.2c-.6.6-1 1.2-1.4 1.8l5.6 3.8 4.9-4.9 4.9-4.9-3.9-5.8c-.3.2-.6.5-.9.8z"/><path class="st0" d="m383.6 398.5-42.4-42.4c-1.6-1.6-1.6-4.1 0-5.7l9.2-9.2c1.6-1.6 4.1-1.6 5.7 0l42.4 42.4c1.6 1.6 1.6 4.1 0 5.7l-9.2 9.2c-1.6 1.5-4.1 1.5-5.7 0zm-66.2-93.3-9.4-6.4-4.9 4.9-4.9 4.9 6.4 9.4c1.4 2.1 4.4 2.3 6.1.6l3.7-3.7 3.7-3.7c1.6-1.6 1.4-4.6-.7-6z"/><path class="st1" d="m303 303.7-4.9 4.9 3.8 5.6c.7-.4 1.3-.8 1.8-1.4l9.2-9.2c.3-.3.6-.6.8-1l-5.8-3.9-4.9 5z"/><path class="st0" d="M295.2 310.1 264.1 279l14.8-14.8 31.1 31.1c1.6 1.6 1.6 4.1 0 5.7l-9.2 9.2c-1.5 1.5-4 1.5-5.6-.1z"/><path class="st4" d="m271.2 271.9-7.1 7.1 31.1 31.1c1.2 1.2 2.9 1.5 4.4.9l4.9 7.2c.9 1.4 2.5 1.9 4 1.7.2.4.4.7.6 1.1.4.8.9 1.6 1.4 2.5 2 3.2 4.6 6.5 7.8 9.7 3.2 3.2 6.5 5.8 9.7 7.8.8.5 1.7 1 2.5 1.4.4.2.7.4 1.1.6-.3 1.5.3 3.1 1.7 4l7.2 4.9c-.6 1.5-.3 3.2.9 4.4l42.4 42.4c1.3 1.3 3.3 1.5 4.8.6l2.9 2.9 17.5 17.5c4.6 4.6 8.3 10 11.7 15.5.4.7.9 1.4 1.5 2 4 4 10.4 4.1 14.5.3L271.2 271.9z"/><circle cx="256" cy="256" r="43" style="fill:#ddd"/><path class="st0" d="M256 110c37.7 0 73.1 14.7 99.7 41.3 26.6 26.6 41.3 62 41.3 99.7s-14.7 73.1-41.3 99.7c-26.6 26.6-62 41.3-99.7 41.3s-73.1-14.7-99.7-41.3c-26.6-26.6-41.3-62-41.3-99.7s14.7-73.1 41.3-99.7c26.6-26.6 62-41.3 99.7-41.3m0-42C154.9 68 73 149.9 73 251s81.9 183 183 183 183-81.9 183-183S357.1 68 256 68z"/><path d="M256 417c-44.3 0-86-17.3-117.4-48.6C107.3 337 90 295.3 90 251c0-44.3 17.3-86 48.6-117.4C170 102.3 211.7 85 256 85c44.3 0 86 17.3 117.4 48.6C404.7 165 422 206.7 422 251c0 44.3-17.3 86-48.6 117.4C342 399.7 300.3 417 256 417zm0-324c-42.2 0-81.9 16.4-111.7 46.3S98 208.8 98 251s16.4 81.9 46.3 111.7C174.1 392.6 213.8 409 256 409s81.9-16.4 111.7-46.3C397.6 332.9 414 293.2 414 251s-16.4-81.9-46.3-111.7C337.9 109.4 298.2 93 256 93z" style="fill:#736356"/><circle cx="256" cy="256" r="13.6" style="fill:#999"/></svg>