<svg version="1.1" xmlns="http://www.w3.org/2000/svg" x="0" y="0" viewBox="0 0 512 512" xml:space="preserve"><style type="text/css">.st0{fill:#36434f}.st1{fill:#eec646}</style><path class="st0" d="M427 259h30.4c9.9 0 19.2-4.5 25.2-12.3l26-33.3c2.2-2.8 3.4-6.3 3.4-9.8V202c0-5.7-5.8-9.6-11.1-7.4l-23.2 9.6c-7.7 3.2-16 4.8-24.4 4.8H427v50z"/><path class="st1" d="M427 209h25v50h-25z"/><path class="st0" d="M85 259H54.6c-9.9 0-19.2-4.5-25.2-12.3l-26-33.3c-2.2-2.8-3.4-6.3-3.4-9.8v-1.5c0-5.7 5.8-9.6 11.1-7.4l23.2 9.6c7.7 3.2 16 4.8 24.4 4.8H85V259z"/><path class="st1" d="M85 259H60v-50h25z"/><path d="M427 209h14v50h-14zm-356 0h14v50H71z" opacity=".15" fill="#444"/><path class="st1" d="M368 444H144c-35.3 0-64-28.7-64-64V197h352v183c0 35.3-28.7 64-64 64z"/><path d="M434 181H78c-2.2 0-4 1.8-4 4v11c0 2.2 1.8 4 4 4h356c2.2 0 4-1.8 4-4v-11c0-2.2-1.8-4-4-4z" fill="#999"/><path class="st0" d="M309.1 119.4c-15.5-6.2-20.4-25.1-11.1-37.9 1.7-2.4 2-5.6.7-8.2l-.4-.8c-1.4-2.7-4.1-4.4-7.2-4.4h-70.2c-3 0-5.8 1.7-7.2 4.4l-.4.8c-1.3 2.7-1.1 5.8.7 8.2 9.3 12.9 4.3 31.8-11.1 37.9-2.3.9-3.9 3.2-3.9 5.7v7.8h114v-7.8c0-2.4-1.5-4.7-3.9-5.7z"/><path d="M256 126c-99.4 0-180 24.6-180 55h360c0-30.4-80.6-55-180-55z" fill="#ddd"/><ellipse transform="rotate(-74.086 370.997 156.494)" class="st0" cx="371" cy="156.5" rx="3.5" ry="6"/><path d="M379 235.5v89c0 4.4-3.6 8-8 8s-8-3.6-8-8v-89c0-4.4 3.6-8 8-8s8 3.6 8 8zm-8 125c-4.4 0-8 3.6-8 8v40c0 4.4 3.6 8 8 8s8-3.6 8-8v-40c0-4.4-3.6-8-8-8z" opacity=".5" fill="#fff"/></svg>