<svg version="1.1" xmlns="http://www.w3.org/2000/svg" x="0" y="0" viewBox="0 0 512 512" xml:space="preserve"><style type="text/css">.st3{fill:#4b5d6b}</style><path d="M299 109.9v-44h-63v18s-5 21-5 49 15 101 17 187-35 164-35 164 7 20 27 26 40-3 40-3 4-12 7-23 5-74 7-108-8-167-8-188 4-38 6-45 7-22 7-33z" fill="#ffa000"/><path d="M299 69h-63v10h63V69z" opacity=".15" fill="#444"/><path d="M312 11h-73s-23 2-42 2-55-13-55-13-12 16-12 57 15 61 15 61 72-55 78-55 10 6 10 6h79V11z" fill="#36434f"/><path class="st3" d="M137 57c0-32.9 7.7-49.6 10.8-55-3.6-1.2-5.8-2-5.8-2s-12 16-12 57 15 61 15 61 1.8-1.3 4.7-3.6C145.6 107 137 88 137 57z"/><circle class="st3" cx="267.5" cy="40" r="14"/></svg>