<svg version="1.1" xmlns="http://www.w3.org/2000/svg" x="0" y="0" viewBox="0 0 512 512" xml:space="preserve"><style type="text/css">.st1{fill:#999}.st3{fill:#bbb}</style><path d="M496 402H16c-8.8 0-16-7.2-16-16V126c0-8.8 7.2-16 16-16h480c8.8 0 16 7.2 16 16v260c0 8.8-7.2 16-16 16z" fill="#ddd"/><path class="st1" d="M418 110h2v292h-2z"/><path d="M411 140h-2v232h2c4.4 0 8-3.6 8-8V148c0-4.4-3.6-8-8-8zm-396 0c-4.4 0-8 3.6-8 8v216c0 4.4 3.6 8 8 8h361V140H15z" fill="#36434f"/><path class="st1" d="M329 320H97c-4.4 0-8-3.6-8-8V200c0-4.4 3.6-8 8-8h232c4.4 0 8 3.6 8 8v112c0 4.4-3.6 8-8 8z"/><path class="st3" d="M376 140h33v232h-33z"/><circle class="st3" cx="464.5" cy="209.5" r="24.5"/><ellipse class="st1" cx="464.5" cy="209.5" rx="24.5" ry="7.5"/><circle class="st1" cx="464.5" cy="180" r="1"/><circle class="st1" cx="443.6" cy="188.6" r="1"/><circle class="st1" cx="435" cy="209.5" r="1"/><circle class="st1" cx="485.4" cy="188.6" r="1"/><circle class="st1" cx="494" cy="209.5" r="1"/><circle class="st3" cx="464.5" cy="301.5" r="24.5"/><ellipse class="st1" cx="464.5" cy="301.5" rx="7.5" ry="24.5"/><path class="st1" d="M464.5 270h-.5v2h.5c16.3 0 29.5 13.2 29.5 29.5S480.8 331 464.5 331 435 317.8 435 301.5c0-5.7 1.6-11.1 4.5-15.6l-1.7-1c-3 4.8-4.8 10.5-4.8 16.6 0 17.4 14.1 31.5 31.5 31.5s31.5-14.1 31.5-31.5-14.1-31.5-31.5-31.5z"/></svg>