<svg version="1.1" xmlns="http://www.w3.org/2000/svg" x="0" y="0" viewBox="0 0 512 512" xml:space="preserve"><style type="text/css">.st2{fill:#4b5d6b}</style><path d="M284 506l-5-473h-46l-5 473c0 3.3 12.5 6 28 6s28-2.7 28-6z" fill="#eec646"/><path d="M242 0c-1.6 0-4.3.3-5.9.7l-94.2 22.6c-1.6.4-2.9 2.1-2.9 3.7v4c0 1.7 1.3 3.3 2.9 3.7l94.2 22.6c1.6.4 4.3.7 5.9.7h106c1.6 0 3-1.3 3-3V3c0-1.6-1.4-3-3-3H242z" fill="#36434f"/><circle class="st2" cx="256" cy="29" r="14"/><path class="st2" d="M348 0h-7v58h7c1.7 0 3-1.4 3-3V3c0-1.7-1.3-3-3-3z"/><path opacity=".15" fill="#444" d="M232.6 73h46.8l-.2-20h-46.4z"/></svg>