<svg xmlns="http://www.w3.org/2000/svg" viewBox="0 0 512 512" xml:space="preserve"><style>.st0{fill:#bbb}.st1{fill:#ddd}.st2{opacity:.15;fill:#444}.st3{fill:#36434f}.st4{fill:#cc584c}</style><path class="st0" d="m389.5 204 14.3-9.7c2.7-1.8 5.8-2.8 9-2.8h25.7c2.2 0 4 1.8 4 4v22.2l-53-13.7z"/><path class="st1" d="m424.9 297.5-125.5-39.1-19.3 62.1 39.7 12.4c4.8 1.5 7 6.9 4.7 11.3l-9.6 18.3c-2.3 4.4-2.4 9.7-.3 14.2l1.4 3c1.7 3.6 2 7.8.8 11.6l-21.7 69.6c-1.8 5.9-.1 12.4 4.5 16.6l25.6 23.3c8.7 7.9 22.6 4.1 26.1-7.1l40.5-130.1c1.3-4.2 5.8-6.6 10-5.3 2 .6 4.2-.5 4.8-2.5l18.3-58.3z"/><path class="st2" d="m280.1 320.6 39.7 12.4c4.7 1.5 7 6.8 4.8 11.2l92.2-20.7 8.1-25.9-87-27.1-43.4 3.7-14.4 46.4z"/><path class="st1" d="M196 174c-87-19-143.5-59.5-143.5-59.5v283S109 357 196 338c58.8-12.8 169.4-25.5 235-32.3v-99.4c-65.6-6.8-176.2-19.5-235-32.3z"/><ellipse class="st1" cx="47" cy="256" rx="46" ry="162.5"/><path class="st0" d="M47 231.3h37v49.4H47z"/><path class="st3" d="M47 106.2c3.2 2.1 11.8 12.7 19.4 42.4C73.9 177.9 78 216.1 78 256s-4.1 78.1-11.6 107.4c-7.6 29.7-16.2 40.3-19.4 42.4-3.2-2.1-11.8-12.7-19.4-42.4C20.1 334.1 16 295.9 16 256s4.1-78.1 11.6-107.4c7.6-29.7 16.2-40.3 19.4-42.4M47 90C21 90 0 164.3 0 256s21 166 47 166 47-74.3 47-166S73 90 47 90z"/><ellipse class="st4" cx="47" cy="256" rx="7" ry="24.7"/><path class="st4" d="M512 256c0-24.4-12.8-44.5-28.5-44.5 0 0-21.1-1.9-52.5-5.2v99.4c31.4-3.3 52.5-5.2 52.5-5.2 15.7 0 28.5-20.1 28.5-44.5z"/><path class="st3" d="M423 306.6c2.7-.3 5.4-.6 8-.8 2.8-.3 5.4-.6 8-.8v-97.8c-2.6-.3-5.2-.5-8-.8-2.6-.3-5.3-.6-8-.8v101z"/><path class="st2" d="M47 422c11.6 0 22.3-15 30.5-39.7 24.6-13.5 66-32.8 118.5-44.3 24-5.2 56.5-10.4 91.2-15.2l32.7 10.2.9.3c.1 0 .2.1.3.2.2.1.3.2.5.3.1.1.2.2.3.2.1.1.3.2.4.3.1.1.2.2.4.3.1.1.2.2.3.2l.4.4.2.2c.1.2.3.3.4.5 0 .1.1.1.1.2.1.2.3.4.4.6l.1.1c.1.2.2.4.3.7v.1c.1.3.2.5.3.8.6 1.9.5 4-.5 5.9 0 .1 0 .1-.1.2l-9.6 18.3c-2.3 4.4-2.4 9.7-.3 14.2l1.4 3c1.7 3.6 2 7.8.8 11.6l-21.7 69.6c-1.8 5.9-.1 12.4 4.5 16.6l25.6 23.3c8.7 7.9 22.6 4.1 26.1-7.1l40.5-130.1c1.3-4.2 5.8-6.6 10-5.3 2 .6 4.2-.5 4.8-2.5l15.4-49.3c.3 0 .7-.1 1-.1 1.2-.1 2.5-.3 3.7-.4h.5c1.3-.1 2.5-.3 3.8-.4 1.3-.1 2.6-.3 3.9-.4h.4c1.2-.1 2.5-.3 3.7-.4 27-2.8 44.5-4.4 44.5-4.4 15.7 0 28.5-20.1 28.5-44.5H0C0 347.7 21 422 47 422z"/></svg>