<svg xmlns="http://www.w3.org/2000/svg" viewBox="0 0 512 512" xml:space="preserve"><style>.st0{fill:#999}.st2{fill:#ddd}</style><path class="st0" d="M364.9 478.3H126V512h238.9c9.5 0 17.1-7.6 17.1-16.9.1-9.3-7.6-16.8-17.1-16.8z"/><path class="st0" d="m128.874 460.947 3.815-33.484 250.586 28.549-3.815 33.484z"/><path d="m384.8 455.5-260.5 22.8c-9.3.8-16.1 9-15.3 18.3.8 9.3 9 16.1 18.3 15.3l260.5-22.8c9.3-.8 16.1-9 15.3-18.3-.9-9.2-9-16.1-18.3-15.3z" fill="#36434f"/><path class="st2" d="m384.8 455.5-260.5 22.8c-9.3.8-16.1 9-15.3 18.3.8 9.3 9 16.1 18.3 15.3l260.5-22.8c9.3-.8 16.1-9 15.3-18.3-.9-9.2-9-16.1-18.3-15.3z"/><path class="st0" d="m128.781 410.33 3.815-33.485 250.586 28.549-3.815 33.484z"/><path class="st2" d="m384.8 404.9-260.5 22.8c-9.3.8-16.1 9-15.3 18.3.8 9.3 9 16.1 18.3 15.3l260.5-22.8c9.3-.8 16.1-9 15.3-18.3-.9-9.2-9-16.1-18.3-15.3z"/><path class="st0" d="m128.787 359.722 3.815-33.484 250.586 28.55-3.815 33.483z"/><path class="st2" d="m384.8 354.3-260.5 22.8c-9.3.8-16.1 9-15.3 18.3.8 9.3 9 16.1 18.3 15.3l260.5-22.8c9.3-.8 16.1-9 15.3-18.3-.9-9.2-9-16.1-18.3-15.3z"/><path class="st0" d="m128.794 309.116 3.815-33.485 250.585 28.55-3.814 33.484z"/><path class="st2" d="m384.8 303.7-260.5 22.8c-9.3.8-16.1 9-15.3 18.3.8 9.3 9 16.1 18.3 15.3l260.5-22.8c9.3-.8 16.1-9 15.3-18.3-.9-9.2-9-16.1-18.3-15.3z"/><path class="st0" d="m128.8 258.509 3.815-33.484L383.2 253.574l-3.815 33.484z"/><path class="st2" d="m384.8 253.1-260.5 22.8c-9.3.8-16.1 9-15.3 18.3.8 9.3 9 16.1 18.3 15.3l260.5-22.8c9.3-.8 16.1-9 15.3-18.3-.9-9.2-9-16.1-18.3-15.3z"/><path class="st0" d="m128.806 207.902 3.815-33.484 250.586 28.549-3.815 33.484z"/><path class="st2" d="m384.8 202.5-260.5 22.8c-9.3.8-16.1 9-15.3 18.3.8 9.3 9 16.1 18.3 15.3l260.5-22.8c9.3-.8 16.1-9 15.3-18.3-.9-9.2-9-16.1-18.3-15.3z"/><path class="st0" d="m128.813 157.295 3.815-33.484 250.585 28.55-3.814 33.484z"/><path class="st2" d="m384.8 151.9-260.5 22.8c-9.3.8-16.1 9-15.3 18.3.8 9.3 9 16.1 18.3 15.3l260.5-22.8c9.3-.8 16.1-9 15.3-18.3-.9-9.3-9-16.1-18.3-15.3z"/><path class="st0" d="m128.82 106.689 3.814-33.485 250.586 28.55-3.815 33.484z"/><path class="st2" d="m384.8 101.3-260.5 22.8c-9.3.8-16.1 9-15.3 18.3.8 9.3 9 16.1 18.3 15.3l260.5-22.8c9.3-.8 16.1-9 15.3-18.3-.9-9.3-9-16.1-18.3-15.3z"/><path class="st0" d="m128.825 56.082 3.815-33.484 250.586 28.549-3.815 33.484z"/><path class="st2" d="M384.8 50.7 124.3 73.5c-9.3.8-16.1 9-15.3 18.3s9 16.1 18.3 15.3l260.5-22.8c9.3-.8 16.1-9 15.3-18.3-.9-9.3-9-16.1-18.3-15.3z"/><path class="st0" d="M147.1 0C137.6 0 130 7.6 130 16.9c0 9.3 7.7 16.9 17.1 16.9H386V0H147.1z"/><path class="st2" d="M384.8.1 124.3 22.9c-9.3.8-16.1 9-15.3 18.3s9 16.1 18.3 15.3l260.5-22.8c9.3-.8 16.1-9 15.3-18.3-.9-9.3-9-16.1-18.3-15.3z"/><path d="M147.1 0C137.6 0 130 7.6 130 16.9c0 1.9.3 3.7.9 5.4l-6.6.6c-9.3.8-16.1 9-15.3 18.3.8 9.3 9 16.1 18.3 15.3l2.9-.3 83.1 9.5-89 7.8c-9.3.8-16.1 9-15.3 18.3.8 9.3 9 16.1 18.3 15.3l2.9-.3 83.1 9.5-89 7.8c-9.3.8-16.1 9-15.3 18.3.8 9.3 9 16.1 18.3 15.3l2.9-.3 83.1 9.5-89 7.8c-9.3.8-16.1 9-15.3 18.3.8 9.3 9 16.1 18.3 15.3l2.9-.3 83.1 9.5-89 7.8c-9.3.8-16.1 9-15.3 18.3.8 9.3 9 16.1 18.3 15.3l2.9-.3 83.1 9.5-89 7.8c-9.3.8-16.1 9-15.3 18.3.8 9.3 9 16.1 18.3 15.3l2.9-.3 83.1 9.5-89 7.8c-9.3.8-16.1 9-15.3 18.3.8 9.3 9 16.1 18.3 15.3l2.9-.3 83.1 9.5-89 7.8c-9.3.8-16.1 9-15.3 18.3.8 9.3 9 16.1 18.3 15.3l2.9-.3 83.1 9.5-89 7.8c-9.3.8-16.1 9-15.3 18.3.8 9.3 9 16.1 18.3 15.3l2.9-.3 83.1 9.5-89 7.8c-9.3.8-16.1 9-15.3 18.3.8 8.9 8.3 15.5 17 15.4h130V0H147.1z" opacity=".15" fill="#444"/></svg>