<svg xmlns="http://www.w3.org/2000/svg" viewBox="0 0 512 512" xml:space="preserve"><style>.st0{fill:#eec646}.st1{fill:#36434f}</style><path class="st0" d="M268 454.5v-9.4h-24v9.4c0 7.1-.6 14.1-1.7 21l-1.1 6.7c7.9 7.8 13.3 18.2 14.9 29.7 1.6-11.6 7-21.9 14.9-29.7l-1.1-6.7c-1.3-6.9-1.9-13.9-1.9-21z"/><path class="st1" d="M255 444h2v32h-2z"/><circle class="st1" cx="256" cy="477" r="3"/><path class="st0" d="M240 442h32v4h-32zm34-96h-36v3l1 1h34l1-1z"/><path class="st1" d="M272 443h-32l-2-94h36zm-34-231h36v134h-36z"/><path class="st0" d="M276 213h-40c-1.1 0-2-.9-2-2v-22h44v22c0 1.1-.9 2-2 2z"/><path opacity=".15" fill="#444" d="M244 446h24v5h-24z"/><path class="st0" d="M265.6 0h-19.2c-4.2 0-7.7 3.5-8 8l-.4 5h35.8l-.4-5c-.2-4.5-3.6-8-7.8-8z"/><path class="st1" d="M235.5 45.4c-1 13.1-1.5 26.2-1.5 39.3V190h44V84.7c0-13.1-.5-26.2-1.5-39.3L273.9 12h-35.8l-2.6 33.4z"/><path class="st0" d="M261.2 62.1c1.9-4.1 2.8-8.7 2.8-13.2V10h-16v38.9c0 4.5.8 9.1 2.8 13.2 1.5 3.2 2.2 6.6 2.2 10.1v53.3c0 1.7-.3 3.4-.8 5.1l-1.3 3.9c-1.2 3.6-1.1 7.6.4 11.2l2 4.8c1 2.5 4.5 2.5 5.5 0l2-4.8c1.5-3.6 1.6-7.5.4-11.2l-1.3-3.9c-.5-1.6-.8-3.3-.8-5.1V72.2c-.1-3.5.7-7 2.1-10.1z"/></svg>