<svg xmlns="http://www.w3.org/2000/svg" viewBox="0 0 512 512" xml:space="preserve"><path d="M398.4 0H113.6c-10.5 0-19 8.5-19 19v474c0 10.5 8.5 19 19 19h284.8c10.5 0 19-8.5 19-19V19c0-10.5-8.5-19-19-19z" fill="#f4f4f4"/><path d="M142.3 55.4h-16.7l-3.2 9.5h-10.1l17.2-46.2h8.8L155.7 65h-10.1l-3.3-9.6zm-14.1-7.7h11.6L134 30.4l-5.8 17.3zm241.5 408.9h16.7l3.2-9.5h10.1l-17.2 46.2h-8.8L356.3 447h10.1l3.3 9.6zm14.1 7.7h-11.6l5.8 17.3 5.8-17.3zm-89.8-210c-1.3-1.2-2.8-2.3-4.5-3.3-7.3-4.4-10.6-7.1-18.6-14.1-8.5-7.5-14.9-21.1-14.9-21.1s-6.4 13.6-14.9 21.1c-8 7-11.3 9.7-18.6 14.1-1.6 1-3.2 2.1-4.5 3.3-16.9 15.9 8 39.5 37.1 15.3-1.7 11.9-9.4 21.9-20 26.6h41.7c-10.6-4.8-18.3-14.7-20-26.6 29.1 24.2 54 .6 37.2-15.3zM150.4 90.9c-.6-.5-1.2-1-1.9-1.4-3.2-1.9-4.6-3-8-6.1-3.7-3.3-6.4-9.1-6.4-9.1s-2.8 5.9-6.4 9.1c-3.4 3-4.9 4.2-8 6.1-.7.4-1.4.9-1.9 1.4-7.3 6.9 3.5 17 16 6.6-.7 5.1-4.1 9.4-8.6 11.5h18c-4.6-2.1-7.9-6.4-8.6-11.5 12.3 10.4 23.1.3 15.8-6.6zm228.2 323.6c.7-5.1 4-9.4 8.6-11.5h-18c4.5 2.1 7.9 6.4 8.6 11.5-12.5-10.4-23.3-.3-16 6.6.5.5 1.2 1 1.9 1.4 3.1 1.9 4.6 3.1 8 6.1 3.6 3.2 6.4 9.1 6.4 9.1s2.7-5.8 6.4-9.1c3.4-3.1 4.8-4.2 8-6.1.7-.4 1.3-.9 1.9-1.4 7.3-6.9-3.5-17.1-15.8-6.6z" fill="#36434f"/><path d="M113.6 0c-10.5 0-19 8.5-19 19v474c0 10.5 8.5 19 19 19H256V0H113.6z" opacity=".15" fill="#444"/></svg>