<svg version="1.1" xmlns="http://www.w3.org/2000/svg" x="0" y="0" viewBox="0 0 512 512" xml:space="preserve"><path d="M398.4 0H113.6c-10.5 0-19 8.5-19 19v474c0 10.5 8.5 19 19 19h284.8c10.5 0 19-8.5 19-19V19c0-10.5-8.5-19-19-19z" fill="#f4f4f4"/><path d="M140.3 47.1c-2.4 2.3-5.2 3.5-8.4 3.5-4.1 0-7.4-1.4-9.8-4.2-2.5-2.8-3.7-6.6-3.7-11.3 0-3 .7-5.8 2-8.3 1.3-2.5 3.2-4.5 5.5-5.9 2.4-1.4 5-2.1 8-2.1s5.8.8 8.1 2.3c2.4 1.5 4.2 3.7 5.5 6.6 1.3 2.9 2 6.1 2 9.8v3.4c0 7.7-1.9 13.8-5.7 18.2-3.8 4.4-9.3 6.7-16.3 7h-2.3v-7.6h2c8.1-.5 12.4-4.2 13.1-11.4zm-6.1-3.5c1.5 0 2.8-.4 3.8-1.1s1.9-1.7 2.4-2.8V36c0-3.1-.6-5.5-1.8-7.2-1.2-1.7-2.8-2.6-4.8-2.6-1.8 0-3.4.8-4.5 2.5-1.2 1.7-1.8 3.8-1.8 6.3s.6 4.6 1.7 6.2c1.2 1.6 2.9 2.4 5 2.4zm237.5 421.3c2.4-2.3 5.2-3.5 8.4-3.5 4.1 0 7.4 1.4 9.8 4.2 2.5 2.8 3.7 6.6 3.7 11.3 0 3-.7 5.8-2 8.3-1.3 2.5-3.2 4.5-5.5 5.9-2.4 1.4-5 2.1-8 2.1s-5.8-.8-8.1-2.3c-2.4-1.5-4.2-3.7-5.5-6.6-1.3-2.9-2-6.1-2-9.8v-3.4c0-7.7 1.9-13.8 5.7-18.2 3.8-4.4 9.3-6.7 16.3-7h2.3v7.6h-2c-8.1.5-12.4 4.2-13.1 11.4zm6.1 3.5c-1.5 0-2.8.4-3.8 1.1s-1.9 1.7-2.4 2.8v3.8c0 3.1.6 5.5 1.8 7.2 1.2 1.7 2.8 2.6 4.8 2.6 1.8 0 3.4-.8 4.5-2.5 1.2-1.7 1.8-3.8 1.8-6.3s-.6-4.6-1.7-6.2c-1.2-1.7-2.9-2.5-5-2.5zM116.6 91.6c7.2 4.1 13.3 10.1 17.4 17.4 4.1-7.2 10.1-13.3 17.4-17.4-3.5-2-6.7-4.4-9.6-7.2-3-3-5.7-6.4-7.8-10.2a45.45 45.45 0 01-17.4 17.4zm278.8 328.8c-3.5-2-6.7-4.4-9.6-7.2-3-3-5.7-6.4-7.8-10.2-4.1 7.2-10.1 13.3-17.4 17.4 7.2 4.1 13.3 10.1 17.4 17.4 4.1-7.3 10.1-13.3 17.4-17.4zM216.3 256c16.4 9.3 29.9 22.9 39.2 39.2 9.3-16.4 22.9-29.9 39.2-39.2-7.5-4.3-14.5-9.5-20.7-15.4-7.3-7-13.5-15-18.6-23.8-9.2 16.3-22.8 29.9-39.1 39.2zM156.8 86c16.4 9.3 29.9 22.9 39.2 39.2 9.3-16.4 22.9-29.9 39.2-39.2-7.8-4.4-14.9-9.8-21.3-16-7-6.8-13.1-14.7-17.9-23.2-9.3 16.3-22.9 29.9-39.2 39.2zm120 0c16.4 9.3 29.9 22.9 39.2 39.2 9.3-16.4 22.9-29.9 39.2-39.2-7.8-4.4-14.9-9.8-21.2-15.9-7-6.8-13.1-14.7-18-23.3-9.3 16.3-22.9 29.9-39.2 39.2zm-120 120c16.4 9.3 29.9 22.9 39.2 39.2 9.3-16.4 22.9-29.9 39.2-39.2-8-4.5-15.3-10.1-21.8-16.5-6.8-6.7-12.7-14.4-17.4-22.7-9.3 16.3-22.9 29.9-39.2 39.2zm120 0c16.4 9.3 29.9 22.9 39.2 39.2 9.3-16.4 22.9-29.9 39.2-39.2-7.7-4.4-14.8-9.7-21.2-15.9-7.1-6.9-13.2-14.7-18.1-23.4-9.2 16.4-22.8 30-39.1 39.3zm-120 100c16.4 9.3 29.9 22.9 39.2 39.2 9.3-16.4 22.9-29.9 39.2-39.2-8.5-4.8-16.2-10.7-22.9-17.6-6.3-6.4-11.8-13.7-16.3-21.6-9.3 16.3-22.9 29.9-39.2 39.2zm120 0c16.4 9.3 29.9 22.9 39.2 39.2 9.3-16.4 22.9-29.9 39.2-39.2-8.4-4.8-16.1-10.7-22.9-17.6-6.3-6.5-11.9-13.7-16.3-21.6-9.3 16.3-22.9 29.9-39.2 39.2zm-120 120c16.4 9.3 29.9 22.9 39.2 39.2 9.3-16.4 22.9-29.9 39.2-39.2-8.8-5-16.8-11.2-23.7-18.5-6-6.2-11.2-13.2-15.5-20.8-9.3 16.4-22.9 30-39.2 39.3zm120 0c16.4 9.3 29.9 22.9 39.2 39.2 9.3-16.4 22.9-29.9 39.2-39.2-7.2-4.1-13.9-9-19.9-14.7-7.6-7.1-14.1-15.4-19.3-24.5-9.3 16.3-22.9 29.9-39.2 39.2z" fill="#cc584c"/></svg>