<svg xmlns="http://www.w3.org/2000/svg" viewBox="0 0 512 512" xml:space="preserve"><path d="M398.4 0H113.6c-10.5 0-19 8.5-19 19v474c0 10.5 8.5 19 19 19h284.8c10.5 0 19-8.5 19-19V19c0-10.5-8.5-19-19-19z" fill="#f4f4f4"/><path d="M152.8 26.5h-14.2V65h-9.5V26.5h-14v-7.7h37.6v7.7zm206.4 459h14.2V447h9.5v38.5h14v7.7h-37.6v-7.7zM255.5 215.3c-9.3 16.4-23.9 30.9-40.2 40.2 16.4 9.3 30.9 23.9 40.2 40.2 9.3-16.4 23.9-30.9 40.2-40.2-8-4.6-15.7-10.4-22.4-17.1-7-7-13.1-14.8-17.8-23.1zM378 403c-4.1 7.2-10.1 13.3-17.4 17.4 7.2 4.1 13.3 10.1 17.4 17.4 4.1-7.2 10.1-13.3 17.4-17.4-3.5-2-6.7-4.4-9.5-7.2-3.1-3-5.8-6.4-7.9-10.2zM134 74.3c-4.1 7.2-10.1 13.3-17.4 17.4 7.2 4.1 13.3 10.1 17.4 17.4 4.1-7.2 10.1-13.3 17.4-17.4-3.6-2.1-6.9-4.6-9.9-7.5-2.9-3-5.4-6.3-7.5-9.9z" fill="#cc584c"/><path d="M113.6 0c-10.5 0-19 8.5-19 19v474c0 10.5 8.5 19 19 19H256V0H113.6z" opacity=".15" fill="#444"/></svg>