<svg version="1.1" xmlns="http://www.w3.org/2000/svg" x="0" y="0" viewBox="0 0 512 512" xml:space="preserve"><path d="M398.4 0H113.6c-10.5 0-19 8.5-19 19v474c0 10.5 8.5 19 19 19h284.8c10.5 0 19-8.5 19-19V19c0-10.5-8.5-19-19-19z" fill="#f4f4f4"/><path d="M222.5 429.3c-5.8-4.4-8.4-7-14.7-14.1C201 407.6 196 394 196 394s-5 13.6-11.7 21.3c-6.3 7-8.9 9.7-14.7 14.1-1.3 1-2.5 2.1-3.5 3.3-13.5 16.1 6.7 40.1 29.9 14.6 23.2 25.4 43.4 1.4 30-14.7-1-1.2-2.2-2.3-3.5-3.3zM134 80.3c-12.5-13.7-23.4-.8-16.1 7.9.6.7 1.2 1.2 1.9 1.8 3.1 2.4 4.5 3.8 7.9 7.6 3.6 4.1 6.3 11.4 6.3 11.4s2.7-7.4 6.3-11.4c3.4-3.8 4.8-5.2 7.9-7.6.7-.5 1.3-1.1 1.9-1.8 7.3-8.7-3.6-21.7-16.1-7.9zm-13.6-34c-1.3 1.9-2 4.1-2 6.7 0 4.1 1.4 7.3 4.2 9.7 2.8 2.4 6.6 3.6 11.4 3.6s8.6-1.2 11.4-3.6c2.8-2.4 4.2-5.6 4.2-9.7 0-2.6-.7-4.8-2-6.7-1.3-1.9-3.1-3.4-5.3-4.5 1.9-1.1 3.5-2.5 4.6-4.2 1.1-1.8 1.7-3.8 1.7-6 0-4-1.3-7.1-3.9-9.3-2.7-2.3-6.2-3.5-10.7-3.5s-8.1 1.2-10.7 3.5c-2.6 2.3-3.9 5.5-3.9 9.4 0 2.3.6 4.3 1.7 6 1.1 1.8 2.6 3.2 4.6 4.2-2.2 1-4 2.5-5.3 4.4zm9.7-18.6c1-1.1 2.3-1.6 4-1.6s3 .5 4 1.6c.9 1.1 1.4 2.5 1.4 4.3 0 1.9-.5 3.3-1.4 4.5-.9 1.1-2.3 1.7-4 1.7s-3-.6-4-1.7c-.9-1.1-1.4-2.6-1.4-4.4 0-1.9.4-3.3 1.4-4.4zm-.8 19.7c1.2-1.2 2.8-1.8 4.7-1.8 2 0 3.5.6 4.7 1.8 1.1 1.2 1.7 2.8 1.7 4.8s-.6 3.6-1.6 4.9c-1.2 1.1-2.7 1.7-4.7 1.7-2.1 0-3.7-.6-4.8-1.8-1.1-1.2-1.7-2.8-1.7-4.8s.5-3.6 1.7-4.8zm160.3 35.2c5.8 4.4 8.4 7.1 14.7 14.1C311 104.4 316 118 316 118s5-13.6 11.8-21.2c6.3-7.1 8.9-9.7 14.7-14.1 1.3-1 2.5-2.1 3.5-3.3 13.4-16.1-6.8-40.1-30-14.7-23.2-25.5-43.4-1.5-29.9 14.6 1 1.2 2.2 2.3 3.5 3.3zm-120 0c5.8 4.4 8.4 7.1 14.7 14.1C191 104.4 196 118 196 118s5-13.6 11.8-21.2c6.3-7.1 8.9-9.7 14.7-14.1 1.3-1 2.5-2.1 3.5-3.3 13.4-16.1-6.8-40.1-30-14.7-23.2-25.5-43.4-1.5-29.9 14.6 1 1.2 2.2 2.3 3.5 3.3zm222 383.4c1.3-1.9 2-4.1 2-6.7 0-4.1-1.4-7.3-4.2-9.7-2.8-2.4-6.6-3.6-11.4-3.6s-8.6 1.2-11.4 3.6c-2.8 2.4-4.2 5.6-4.2 9.7 0 2.6.7 4.8 2 6.7s3.1 3.4 5.3 4.4c-2 1-3.5 2.4-4.6 4.2-1.1 1.7-1.7 3.7-1.7 6 0 3.9 1.3 7.1 3.9 9.4 2.6 2.3 6.2 3.5 10.7 3.5s8-1.2 10.7-3.5c2.6-2.2 3.9-5.3 3.9-9.3 0-2.2-.6-4.2-1.7-6-1.1-1.7-2.7-3.1-4.6-4.2 2.2-1.1 4-2.6 5.3-4.5zm-18.9 14.2c0-1.8.5-3.3 1.4-4.4 1-1.1 2.3-1.7 4-1.7s3.1.6 4 1.7c.9 1.2 1.4 2.6 1.4 4.5 0 1.8-.5 3.2-1.4 4.3-1 1.1-2.3 1.6-4 1.6s-3-.5-4-1.6-1.4-2.5-1.4-4.4zm11.7-20.1c0 2-.6 3.6-1.7 4.8-1.2 1.2-2.7 1.8-4.7 1.8-1.9 0-3.5-.6-4.7-1.8-1.2-1.2-1.7-2.8-1.7-4.8s.6-3.6 1.7-4.8c1.1-1.2 2.7-1.8 4.8-1.8 2 0 3.5.6 4.7 1.7 1 1.3 1.6 2.9 1.6 4.9zm9.7-36.3c-.6-.7-1.2-1.3-1.9-1.8-3.1-2.4-4.5-3.8-7.9-7.6-3.6-4-6.3-11.4-6.3-11.4s-2.7 7.3-6.3 11.4c-3.4 3.8-4.8 5.2-7.9 7.6-.7.6-1.3 1.1-1.9 1.8-7.3 8.7 3.6 21.6 16.1 7.9 12.5 13.8 23.4.8 16.1-7.9zM316 178.2c-23.2-25.5-43.4-1.5-29.9 14.6 1 1.2 2.2 2.3 3.5 3.3 5.8 4.4 8.4 7.1 14.7 14.1 6.7 7.6 11.8 21.2 11.8 21.2s5-13.6 11.8-21.2c6.3-7.1 8.9-9.7 14.7-14.1 1.3-1 2.5-2.1 3.5-3.3 13.3-16.1-6.9-40.1-30.1-14.6zm26.6 137.7c-5.8-4.4-8.4-7-14.7-14.1-6.8-7.6-11.8-21.2-11.8-21.2s-5.1 13.6-11.8 21.2c-6.3 7-8.9 9.7-14.7 14.1-1.3 1-2.5 2.1-3.5 3.3-13.5 16.1 6.7 40.1 29.9 14.6 23.2 25.5 43.4 1.5 30.1-14.6-1-1.2-2.2-2.3-3.5-3.3zM196 178.2c-23.2-25.5-43.4-1.5-29.9 14.6 1 1.2 2.2 2.3 3.5 3.3 5.8 4.4 8.4 7.1 14.7 14.1 6.7 7.6 11.8 21.2 11.8 21.2s5-13.6 11.8-21.2c6.3-7.1 8.9-9.7 14.7-14.1 1.3-1 2.5-2.1 3.5-3.3 13.3-16.1-6.9-40.1-30.1-14.6zm26.6 137.7c-5.8-4.4-8.4-7-14.7-14.1-6.8-7.6-11.8-21.2-11.8-21.2s-5.1 13.6-11.8 21.2c-6.3 7-8.9 9.7-14.7 14.1-1.3 1-2.5 2.1-3.5 3.3-13.5 16.1 6.7 40.1 29.9 14.6 23.2 25.5 43.4 1.5 30.1-14.6-1-1.2-2.2-2.3-3.5-3.3zm119.9 113.4c-5.8-4.4-8.4-7-14.7-14.1C321 407.6 316 394 316 394s-5 13.6-11.7 21.3c-6.3 7-8.9 9.7-14.7 14.1-1.3 1-2.5 2.1-3.5 3.3-13.5 16.1 6.7 40.1 29.9 14.6 23.2 25.4 43.4 1.4 30-14.7-1-1.2-2.2-2.3-3.5-3.3z" fill="#cc584c"/><path d="M113.6 0c-10.5 0-19 8.5-19 19v474c0 10.5 8.5 19 19 19H256V0H113.6z" opacity=".15" fill="#444"/></svg>