<svg version="1.1" xmlns="http://www.w3.org/2000/svg" x="0" y="0" viewBox="0 0 512 512" xml:space="preserve"><path d="M398.4 0H113.6c-10.5 0-19 8.5-19 19v474c0 10.5 8.5 19 19 19h284.8c10.5 0 19-8.5 19-19V19c0-10.5-8.5-19-19-19z" fill="#f4f4f4"/><path d="M387.7 446.4h9.2v35.4l10.9-3.4v7.5l-19.1 6.9h-1v-46.4zm-39.6 19.1c0-6.4 1.3-11.3 4-14.7 2.6-3.4 6.5-5.1 11.6-5.1 5 0 8.9 1.7 11.6 5 2.7 3.3 4 8.1 4.1 14.3v8.5c0 6.5-1.3 11.4-4 14.7-2.7 3.3-6.5 5-11.6 5-5 0-8.9-1.7-11.6-5-2.7-3.3-4-8.1-4.1-14.3v-8.4zm9.2 9.4c0 3.8.5 6.6 1.6 8.4 1 1.7 2.7 2.6 4.9 2.6s3.8-.8 4.8-2.5 1.6-4.3 1.6-7.8v-11.2c0-3.8-.5-6.6-1.5-8.4-1-1.8-2.7-2.7-4.9-2.7s-3.9.9-4.9 2.6c-1 1.8-1.5 4.4-1.6 8.1v10.9zm-233-409.3h-9.2V30.2l-10.9 3.4v-7.5l19.1-6.9h1v46.4zm39.6-19.1c0 6.4-1.3 11.3-4 14.7-2.6 3.4-6.5 5.1-11.6 5.1-5 0-8.9-1.7-11.6-5-2.7-3.3-4-8.1-4.1-14.3v-8.5c0-6.5 1.3-11.4 4-14.7 2.7-3.3 6.5-5 11.6-5 5 0 8.9 1.7 11.6 5 2.7 3.3 4 8.1 4.1 14.3v8.4zm-9.2-9.4c0-3.8-.5-6.6-1.6-8.4-1-1.7-2.7-2.6-4.9-2.6s-3.8.8-4.8 2.5-1.6 4.3-1.6 7.8v11.2c0 3.8.5 6.6 1.5 8.4 1 1.8 2.7 2.7 4.9 2.7s3.9-.9 4.9-2.6c1-1.8 1.5-4.4 1.6-8.1V37.1zm-6.2 52.4c-3.2-1.9-4.6-3-8-6.1-3.7-3.3-6.4-9.1-6.4-9.1s-2.8 5.9-6.4 9.1c-3.4 3-4.9 4.2-8 6.1-.7.4-1.4.9-1.9 1.4-7.3 6.9 3.5 17 16 6.6-.7 5.1-4.1 9.4-8.6 11.5h18c-4.6-2.1-7.9-6.4-8.6-11.5 12.6 10.4 23.3.3 16-6.6-.8-.5-1.4-1-2.1-1.4zm229.9 325c.7-5.1 4.1-9.4 8.6-11.5h-18c4.6 2.1 7.9 6.4 8.6 11.5-12.6-10.4-23.3-.3-16 6.6.6.5 1.2 1 1.9 1.4 3.2 1.9 4.6 3 8 6.1 3.7 3.3 6.4 9.1 6.4 9.1s2.8-5.9 6.4-9.1c3.4-3 4.9-4.2 8-6.1.7-.4 1.4-.9 1.9-1.4 7.5-6.9-3.3-17-15.8-6.6zM228.3 84.3c-1.1-1-2.4-2-3.8-2.8-6.2-3.7-9-6-15.8-12-7.2-6.4-12.7-18-12.7-18s-5.4 11.5-12.7 18c-6.8 6-9.6 8.2-15.8 12-1.4.8-2.7 1.7-3.8 2.8-14.3 13.5 6.8 33.6 31.5 13-1.4 10.1-8 18.6-17 22.6h35.5c-9-4.1-15.6-12.5-17-22.6 24.7 20.6 45.9.6 31.6-13zm120 0c-1.1-1-2.4-2-3.8-2.8-6.2-3.7-9-6-15.8-12-7.2-6.4-12.7-18-12.7-18s-5.4 11.5-12.7 18c-6.8 6-9.6 8.2-15.8 12-1.4.8-2.7 1.7-3.8 2.8-14.3 13.5 6.8 33.6 31.5 13-1.4 10.1-8 18.6-17 22.6h35.5c-9-4.1-15.6-12.5-17-22.6 24.7 20.6 45.9.6 31.6-13zm-60 56.8c-1.1-1-2.4-2-3.8-2.8-6.2-3.7-9-6-15.8-12-7.2-6.4-12.7-18-12.7-18s-5.4 11.5-12.7 18c-6.8 6-9.6 8.2-15.8 12-1.4.8-2.7 1.7-3.8 2.8-14.3 13.5 6.8 33.6 31.5 13-1.4 10.1-8 18.6-17 22.6h35.5c-9-4.1-15.6-12.5-17-22.6 24.7 20.5 45.9.5 31.6-13zm-60 56.7c-1.1-1-2.4-2-3.8-2.8-6.2-3.7-9-6-15.8-12-7.2-6.4-12.7-18-12.7-18s-5.4 11.5-12.7 18c-6.8 6-9.6 8.2-15.8 12-1.4.8-2.7 1.7-3.8 2.8-14.3 13.5 6.8 33.6 31.5 13-1.4 10.1-8 18.6-17 22.6h35.5c-9-4.1-15.6-12.5-17-22.6 24.7 20.6 45.9.5 31.6-13zm120 0c-1.1-1-2.4-2-3.8-2.8-6.2-3.7-9-6-15.8-12-7.2-6.4-12.7-18-12.7-18s-5.4 11.5-12.7 18c-6.8 6-9.6 8.2-15.8 12-1.4.8-2.7 1.7-3.8 2.8-14.3 13.5 6.8 33.6 31.5 13-1.4 10.1-8 18.6-17 22.6h35.5c-9-4.1-15.6-12.5-17-22.6 24.7 20.6 45.9.5 31.6-13zm-64.6 229.9c1.1 1 2.4 2 3.8 2.8 6.2 3.7 9 6 15.8 12 7.2 6.4 12.7 18 12.7 18s5.4-11.5 12.7-18c6.8-6 9.6-8.2 15.8-12 1.4-.8 2.7-1.7 3.8-2.8 14.3-13.5-6.8-33.6-31.5-13 1.4-10.1 8-18.6 17-22.6h-35.5c9 4.1 15.6 12.5 17 22.6-24.7-20.6-45.9-.6-31.6 13zm-120 0c1.1 1 2.4 2 3.8 2.8 6.2 3.7 9 6 15.8 12 7.2 6.4 12.7 18 12.7 18s5.4-11.5 12.7-18c6.8-6 9.6-8.2 15.8-12 1.4-.8 2.7-1.7 3.8-2.8 14.3-13.5-6.8-33.6-31.5-13 1.4-10.1 8-18.6 17-22.6h-35.5c9 4.1 15.6 12.5 17 22.6-24.7-20.6-45.9-.6-31.6 13zm60-56.8c1.1 1 2.4 2 3.8 2.8 6.2 3.7 9 6 15.8 12 7.2 6.4 12.7 18 12.7 18s5.4-11.5 12.7-18c6.8-6 9.6-8.2 15.8-12 1.4-.8 2.7-1.7 3.8-2.8 14.3-13.5-6.8-33.6-31.5-13 1.4-10.1 8-18.6 17-22.6h-35.5c9 4.1 15.6 12.5 17 22.6-24.7-20.5-45.9-.5-31.6 13zm60-56.7c1.1 1 2.4 2 3.8 2.8 6.2 3.7 9 6 15.8 12 7.2 6.4 12.7 18 12.7 18s5.4-11.5 12.7-18c6.8-6 9.6-8.2 15.8-12 1.4-.8 2.7-1.7 3.8-2.8 14.3-13.5-6.8-33.6-31.5-13 1.4-10.1 8-18.6 17-22.6h-35.5c9 4.1 15.6 12.5 17 22.6-24.7-20.6-45.9-.5-31.6 13zm-120 0c1.1 1 2.4 2 3.8 2.8 6.2 3.7 9 6 15.8 12 7.2 6.4 12.7 18 12.7 18s5.4-11.5 12.7-18c6.8-6 9.6-8.2 15.8-12 1.4-.8 2.7-1.7 3.8-2.8 14.3-13.5-6.8-33.6-31.5-13 1.4-10.1 8-18.6 17-22.6h-35.5c9 4.1 15.6 12.5 17 22.6-24.7-20.6-45.9-.5-31.6 13z" fill="#36434f"/></svg>