<svg version="1.1" xmlns="http://www.w3.org/2000/svg" x="0" y="0" viewBox="0 0 512 512" xml:space="preserve"><path d="M398.4 0H113.6c-10.5 0-19 8.5-19 19v474c0 10.5 8.5 19 19 19h284.8c10.5 0 19-8.5 19-19V19c0-10.5-8.5-19-19-19z" fill="#f4f4f4"/><path d="M134 80.3c-12.5-13.7-23.4-.8-16.1 7.9.6.7 1.2 1.2 1.9 1.8 3.1 2.4 4.5 3.8 7.9 7.6 3.6 4.1 6.3 11.4 6.3 11.4s2.7-7.4 6.3-11.4c3.4-3.8 4.8-5.2 7.9-7.6.7-.5 1.3-1.1 1.9-1.8 7.3-8.7-3.6-21.7-16.1-7.9zm244 351.4c-12.5 13.7-23.4.8-16.1-7.9.6-.7 1.2-1.2 1.9-1.8 3.1-2.4 4.5-3.8 7.9-7.6 3.6-4.1 6.3-11.4 6.3-11.4s2.7 7.4 6.3 11.4c3.4 3.8 4.8 5.2 7.9 7.6.7.5 1.3 1.1 1.9 1.8 7.3 8.7-3.6 21.7-16.1 7.9zm-182-367c-23.2-25.5-43.4-1.5-29.9 14.6 1 1.2 2.2 2.3 3.5 3.3 5.8 4.4 8.4 7.1 14.7 14.1C191 104.4 196 118 196 118s5-13.6 11.8-21.2c6.3-7.1 8.9-9.7 14.7-14.1 1.3-1 2.5-2.1 3.5-3.3 13.4-16.1-6.8-40.1-30-14.7zm120 0c-23.2-25.5-43.4-1.5-29.9 14.6 1 1.2 2.2 2.3 3.5 3.3 5.8 4.4 8.4 7.1 14.7 14.1C311 104.4 316 118 316 118s5-13.6 11.8-21.2c6.3-7.1 8.9-9.7 14.7-14.1 1.3-1 2.5-2.1 3.5-3.3 13.4-16.1-6.8-40.1-30-14.7zm-60 170.2c-23.2-25.5-43.4-1.5-29.9 14.6 1 1.2 2.2 2.3 3.5 3.3 5.8 4.4 8.4 7.1 14.7 14.1 6.7 7.6 11.8 21.2 11.8 21.2s5-13.6 11.8-21.2c6.3-7.1 8.9-9.7 14.7-14.1 1.3-1 2.5-2.1 3.5-3.3 13.3-16-6.9-40-30.1-14.6zm-60-56.7c-23.2-25.5-43.4-1.5-29.9 14.6 1 1.2 2.2 2.3 3.5 3.3 5.8 4.4 8.4 7.1 14.7 14.1 6.7 7.6 11.8 21.2 11.8 21.2s5-13.6 11.8-21.2c6.3-7.1 8.9-9.7 14.7-14.1 1.3-1 2.5-2.1 3.5-3.3 13.3-16.1-6.9-40.1-30.1-14.6zm120 0c-23.2-25.5-43.4-1.5-29.9 14.6 1 1.2 2.2 2.3 3.5 3.3 5.8 4.4 8.4 7.1 14.7 14.1 6.7 7.6 11.8 21.2 11.8 21.2s5-13.6 11.8-21.2c6.3-7.1 8.9-9.7 14.7-14.1 1.3-1 2.5-2.1 3.5-3.3 13.3-16.1-6.9-40.1-30.1-14.6zM196 447.3c-23.2 25.5-43.4 1.5-29.9-14.6 1-1.2 2.2-2.3 3.5-3.3 5.8-4.4 8.4-7.1 14.7-14.1C191 407.6 196 394 196 394s5 13.6 11.8 21.2c6.3 7.1 8.9 9.7 14.7 14.1 1.3 1 2.5 2.1 3.5 3.3 13.4 16.1-6.8 40.1-30 14.7zm120 0c-23.2 25.5-43.4 1.5-29.9-14.6 1-1.2 2.2-2.3 3.5-3.3 5.8-4.4 8.4-7.1 14.7-14.1C311 407.6 316 394 316 394s5 13.6 11.8 21.2c6.3 7.1 8.9 9.7 14.7 14.1 1.3 1 2.5 2.1 3.5 3.3 13.4 16.1-6.8 40.1-30 14.7zM196 333.8c-23.2 25.5-43.4 1.5-29.9-14.6 1-1.2 2.2-2.3 3.5-3.3 5.8-4.4 8.4-7.1 14.7-14.1 6.7-7.6 11.8-21.2 11.8-21.2s5 13.6 11.8 21.2c6.3 7.1 8.9 9.7 14.7 14.1 1.3 1 2.5 2.1 3.5 3.3 13.3 16.1-6.9 40.1-30.1 14.6zm120 0c-23.2 25.5-43.4 1.5-29.9-14.6 1-1.2 2.2-2.3 3.5-3.3 5.8-4.4 8.4-7.1 14.7-14.1 6.7-7.6 11.8-21.2 11.8-21.2s5 13.6 11.8 21.2c6.3 7.1 8.9 9.7 14.7 14.1 1.3 1 2.5 2.1 3.5 3.3 13.3 16.1-6.9 40.1-30.1 14.6zM140.3 47.1c-2.4 2.3-5.2 3.5-8.4 3.5-4.1 0-7.4-1.4-9.8-4.2-2.5-2.8-3.7-6.6-3.7-11.3 0-3 .7-5.8 2-8.3 1.3-2.5 3.2-4.5 5.5-5.9 2.4-1.4 5-2.1 8-2.1s5.8.8 8.1 2.3c2.4 1.5 4.2 3.7 5.5 6.6 1.3 2.9 2 6.1 2 9.8v3.4c0 7.7-1.9 13.8-5.7 18.2-3.8 4.4-9.3 6.7-16.3 7h-2.3v-7.6h2c8.1-.5 12.4-4.2 13.1-11.4zm-6.1-3.5c1.5 0 2.8-.4 3.8-1.1s1.9-1.7 2.4-2.8V36c0-3.1-.6-5.5-1.8-7.2-1.2-1.7-2.8-2.6-4.8-2.6-1.8 0-3.4.8-4.5 2.5-1.2 1.7-1.8 3.8-1.8 6.3s.6 4.6 1.7 6.2c1.2 1.6 2.9 2.4 5 2.4zm237.5 421.3c2.4-2.3 5.2-3.5 8.4-3.5 4.1 0 7.4 1.4 9.8 4.2 2.5 2.8 3.7 6.6 3.7 11.3 0 3-.7 5.8-2 8.3-1.3 2.5-3.2 4.5-5.5 5.9-2.4 1.4-5 2.1-8 2.1s-5.8-.8-8.1-2.3c-2.4-1.5-4.2-3.7-5.5-6.6-1.3-2.9-2-6.1-2-9.8v-3.4c0-7.7 1.9-13.8 5.7-18.2 3.8-4.4 9.3-6.7 16.3-7h2.3v7.6h-2c-8.1.5-12.4 4.2-13.1 11.4zm6.1 3.5c-1.5 0-2.8.4-3.8 1.1s-1.9 1.7-2.4 2.8v3.8c0 3.1.6 5.5 1.8 7.2 1.2 1.7 2.8 2.6 4.8 2.6 1.8 0 3.4-.8 4.5-2.5 1.2-1.7 1.8-3.8 1.8-6.3s-.6-4.6-1.7-6.2c-1.2-1.7-2.9-2.5-5-2.5z" fill="#cc584c"/><path d="M113.6 0c-10.5 0-19 8.5-19 19v474c0 10.5 8.5 19 19 19H256V0H113.6z" opacity=".15" fill="#444"/></svg>