<svg xmlns="http://www.w3.org/2000/svg" viewBox="0 0 512 512" style="enable-background:new 0 0 512 512" xml:space="preserve"><path d="M398.4 0H113.6c-10.5 0-19 8.5-19 19v474c0 10.5 8.5 19 19 19h284.8c10.5 0 19-8.5 19-19V19c0-10.5-8.5-19-19-19z" style="fill:#f4f4f4"/><path d="M387.7 446.4h9.2v35.4l10.9-3.4v7.5l-19.1 6.9h-1v-46.4zm-39.6 19.1c0-6.4 1.3-11.3 4-14.7 2.6-3.4 6.5-5.1 11.6-5.1 5 0 8.9 1.7 11.6 5 2.7 3.3 4 8.1 4.1 14.3v8.5c0 6.5-1.3 11.4-4 14.7-2.7 3.3-6.5 5-11.6 5-5 0-8.9-1.7-11.6-5-2.7-3.3-4-8.1-4.1-14.3v-8.4zm9.2 9.4c0 3.8.5 6.6 1.6 8.4 1 1.7 2.7 2.6 4.9 2.6s3.8-.8 4.8-2.5 1.6-4.3 1.6-7.8v-11.2c0-3.8-.5-6.6-1.5-8.4-1-1.8-2.7-2.7-4.9-2.7s-3.9.9-4.9 2.6c-1 1.8-1.5 4.4-1.6 8.1v10.9zm-233-409.3h-9.2V30.2l-10.9 3.4v-7.5l19.1-6.9h1v46.4zm39.6-19.1c0 6.4-1.3 11.3-4 14.7-2.6 3.4-6.5 5.1-11.6 5.1-5 0-8.9-1.7-11.6-5-2.7-3.3-4-8.1-4.1-14.3v-8.5c0-6.5 1.3-11.4 4-14.7 2.7-3.3 6.5-5 11.6-5 5 0 8.9 1.7 11.6 5 2.7 3.3 4 8.1 4.1 14.3v8.4zm-9.2-9.4c0-3.8-.5-6.6-1.6-8.4-1-1.7-2.7-2.6-4.9-2.6s-3.8.8-4.8 2.5-1.6 4.3-1.6 7.8v11.2c0 3.8.5 6.6 1.5 8.4 1 1.8 2.7 2.7 4.9 2.7s3.9-.9 4.9-2.6c1-1.8 1.5-4.4 1.6-8.1V37.1zM134 80.3c-12.5-13.7-23.4-.8-16.1 7.9.6.7 1.2 1.2 1.9 1.8 3.1 2.4 4.5 3.8 7.9 7.6 3.6 4.1 6.3 11.4 6.3 11.4s2.7-7.4 6.3-11.4c3.4-3.8 4.8-5.2 7.9-7.6.7-.5 1.3-1.1 1.9-1.8 7.3-8.7-3.6-21.7-16.1-7.9zm244 351.4c-12.5 13.7-23.4.8-16.1-7.9.6-.7 1.2-1.2 1.9-1.8 3.1-2.4 4.5-3.8 7.9-7.6 3.6-4.1 6.3-11.4 6.3-11.4s2.7 7.4 6.3 11.4c3.4 3.8 4.8 5.2 7.9 7.6.7.5 1.3 1.1 1.9 1.8 7.3 8.7-3.6 21.7-16.1 7.9zM196 68.9c-18.6-20.4-34.7-1.2-24 11.7.8 1 1.8 1.9 2.8 2.6 4.6 3.5 6.7 5.7 11.7 11.3 5.4 6 9.4 17 9.4 17s4-10.9 9.4-17c5-5.6 7.1-7.8 11.7-11.3 1-.8 2-1.6 2.8-2.6 10.9-12.8-5.2-32-23.8-11.7zm120 0c-18.6-20.4-34.7-1.2-24 11.7.8 1 1.8 1.9 2.8 2.6 4.6 3.5 6.7 5.7 11.7 11.3 5.4 6 9.4 17 9.4 17s4-10.9 9.4-17c5-5.6 7.1-7.8 11.7-11.3 1-.8 2-1.6 2.8-2.6 10.9-12.8-5.2-32-23.8-11.7zm-60 56.8c-18.6-20.4-34.7-1.2-24 11.7.8 1 1.8 1.9 2.8 2.6 4.6 3.5 6.7 5.7 11.7 11.3 5.4 6 9.4 17 9.4 17s4-10.9 9.4-17c5-5.6 7.1-7.8 11.7-11.3 1-.8 2-1.6 2.8-2.6 10.9-12.9-5.2-32.1-23.8-11.7zm-60 56.7c-18.6-20.4-34.7-1.2-24 11.7.8 1 1.8 1.9 2.8 2.6 4.6 3.5 6.7 5.7 11.7 11.3 5.4 6 9.4 17 9.4 17s4-10.9 9.4-17c5-5.6 7.1-7.8 11.7-11.3 1-.8 2-1.6 2.8-2.6 10.9-12.9-5.2-32-23.8-11.7zm120 0c-18.6-20.4-34.7-1.2-24 11.7.8 1 1.8 1.9 2.8 2.6 4.6 3.5 6.7 5.7 11.7 11.3 5.4 6 9.4 17 9.4 17s4-10.9 9.4-17c5-5.6 7.1-7.8 11.7-11.3 1-.8 2-1.6 2.8-2.6 10.9-12.9-5.2-32-23.8-11.7zM196 443.1c-18.6 20.4-34.7 1.2-24-11.7.8-1 1.8-1.9 2.8-2.6 4.6-3.5 6.7-5.7 11.7-11.3 5.4-6 9.4-17 9.4-17s4 10.9 9.4 17c5 5.6 7.1 7.8 11.7 11.3 1 .8 2 1.6 2.8 2.6 10.9 12.8-5.2 32-23.8 11.7zm120 0c-18.6 20.4-34.7 1.2-24-11.7.8-1 1.8-1.9 2.8-2.6 4.6-3.5 6.7-5.7 11.7-11.3 5.4-6 9.4-17 9.4-17s4 10.9 9.4 17c5 5.6 7.1 7.8 11.7 11.3 1 .8 2 1.6 2.8 2.6 10.9 12.8-5.2 32-23.8 11.7zM196 329.6c-18.6 20.4-34.7 1.2-24-11.7.8-1 1.8-1.9 2.8-2.6 4.6-3.5 6.7-5.7 11.7-11.3 5.4-6 9.4-17 9.4-17s4 10.9 9.4 17c5 5.6 7.1 7.8 11.7 11.3 1 .8 2 1.6 2.8 2.6 10.9 12.9-5.2 32-23.8 11.7zm120 0c-18.6 20.4-34.7 1.2-24-11.7.8-1 1.8-1.9 2.8-2.6 4.6-3.5 6.7-5.7 11.7-11.3 5.4-6 9.4-17 9.4-17s4 10.9 9.4 17c5 5.6 7.1 7.8 11.7 11.3 1 .8 2 1.6 2.8 2.6 10.9 12.9-5.2 32-23.8 11.7zm-60 56.7c-18.6 20.4-34.7 1.2-24-11.7.8-1 1.8-1.9 2.8-2.6 4.6-3.5 6.7-5.7 11.7-11.3 5.4-6 9.4-17 9.4-17s4 10.9 9.4 17c5 5.6 7.1 7.8 11.7 11.3 1 .8 2 1.6 2.8 2.6 10.9 12.9-5.2 32.1-23.8 11.7z" style="fill:#cc584c"/><path d="M113.6 0c-10.5 0-19 8.5-19 19v474c0 10.5 8.5 19 19 19H256V0H113.6z" style="opacity:.15;fill:#444"/></svg>