<svg version="1.1" xmlns="http://www.w3.org/2000/svg" x="0" y="0" viewBox="0 0 512 512" xml:space="preserve"><path d="M398.4 0H113.6c-10.5 0-19 8.5-19 19v474c0 10.5 8.5 19 19 19h284.8c10.5 0 19-8.5 19-19V19c0-10.5-8.5-19-19-19z" fill="#f4f4f4"/><path d="M120.4 46.3c-1.3 1.9-2 4.1-2 6.7 0 4.1 1.4 7.3 4.2 9.7 2.8 2.4 6.6 3.6 11.4 3.6s8.6-1.2 11.4-3.6c2.8-2.4 4.2-5.6 4.2-9.7 0-2.6-.7-4.8-2-6.7-1.3-1.9-3.1-3.4-5.3-4.5 1.9-1.1 3.5-2.5 4.6-4.2 1.1-1.8 1.7-3.8 1.7-6 0-4-1.3-7.1-3.9-9.3-2.7-2.3-6.2-3.5-10.7-3.5s-8.1 1.2-10.7 3.5c-2.6 2.3-3.9 5.5-3.9 9.4 0 2.3.6 4.3 1.7 6 1.1 1.8 2.6 3.2 4.6 4.2-2.2 1-4 2.5-5.3 4.4zm9.7-18.6c1-1.1 2.3-1.6 4-1.6s3 .5 4 1.6c.9 1.1 1.4 2.5 1.4 4.3 0 1.9-.5 3.3-1.4 4.5-.9 1.1-2.3 1.7-4 1.7s-3-.6-4-1.7c-.9-1.1-1.4-2.6-1.4-4.4 0-1.9.4-3.3 1.4-4.4zm-.8 19.7c1.2-1.2 2.8-1.8 4.7-1.8 2 0 3.5.6 4.7 1.8 1.1 1.2 1.7 2.8 1.7 4.8s-.6 3.6-1.6 4.9c-1.2 1.1-2.7 1.7-4.7 1.7-2.1 0-3.7-.6-4.8-1.8-1.1-1.2-1.7-2.8-1.7-4.8s.5-3.6 1.7-4.8zm19.2 42.1c-3.2-1.9-4.6-3-8-6.1-3.7-3.3-6.4-9.1-6.4-9.1s-2.8 5.9-6.4 9.1c-3.4 3-4.9 4.2-8 6.1-.7.4-1.4.9-1.9 1.4-7.3 6.9 3.5 17 16 6.6-.7 5.1-4.1 9.4-8.6 11.5h18c-4.6-2.1-7.9-6.4-8.6-11.5 12.6 10.4 23.3.3 16-6.6-.8-.5-1.4-1-2.1-1.4zm46.7 121.3c-1.4 10.1-8 18.6-17 22.6h35.5c-9-4.1-15.6-12.5-17-22.6 24.7 20.6 45.9.5 31.6-13-1.1-1-2.4-2-3.8-2.8-6.2-3.7-9-6-15.8-12-7.2-6.4-12.7-18-12.7-18s-5.4 11.5-12.7 18c-6.8 6-9.6 8.2-15.8 12-1.4.8-2.7 1.7-3.8 2.8-14.3 13.5 6.8 33.6 31.5 13zm120-113.5c-1.4 10.1-8 18.6-17 22.6h35.5c-9-4.1-15.6-12.5-17-22.6 24.7 20.6 45.9.6 31.6-13-1.1-1-2.4-2-3.8-2.8-6.2-3.7-9-6-15.8-12-7.2-6.4-12.7-18-12.7-18s-5.4 11.5-12.7 18c-6.8 6-9.6 8.2-15.8 12-1.4.8-2.7 1.7-3.8 2.8-14.3 13.5 6.8 33.6 31.5 13zm-120 0c-1.4 10.1-8 18.6-17 22.6h35.5c-9-4.1-15.6-12.5-17-22.6 24.7 20.6 45.9.6 31.6-13-1.1-1-2.4-2-3.8-2.8-6.2-3.7-9-6-15.8-12-7.2-6.4-12.7-18-12.7-18s-5.4 11.5-12.7 18c-6.8 6-9.6 8.2-15.8 12-1.4.8-2.7 1.7-3.8 2.8-14.3 13.5 6.8 33.6 31.5 13zm121.6 317.4c1.4-10.1 8-18.6 17-22.6h-35.5c9 4.1 15.6 12.5 17 22.6-24.7-20.6-45.9-.6-31.6 13 1.1 1 2.4 2 3.8 2.8 6.2 3.7 9 6 15.8 12 7.2 6.4 12.7 18 12.7 18s5.4-11.5 12.7-18c6.8-6 9.6-8.2 15.8-12 1.4-.8 2.7-1.7 3.8-2.8 14.3-13.5-6.8-33.6-31.5-13zm-120 0c1.4-10.1 8-18.6 17-22.6h-35.5c9 4.1 15.6 12.5 17 22.6-24.7-20.6-45.9-.6-31.6 13 1.1 1 2.4 2 3.8 2.8 6.2 3.7 9 6 15.8 12 7.2 6.4 12.7 18 12.7 18s5.4-11.5 12.7-18c6.8-6 9.6-8.2 15.8-12 1.4-.8 2.7-1.7 3.8-2.8 14.3-13.5-6.8-33.6-31.5-13zM391.6 466c1.3-1.9 2-4.1 2-6.7 0-4.1-1.4-7.3-4.2-9.7-2.8-2.4-6.6-3.6-11.4-3.6s-8.6 1.2-11.4 3.6c-2.8 2.4-4.2 5.6-4.2 9.7 0 2.6.7 4.8 2 6.7s3.1 3.4 5.3 4.4c-2 1-3.5 2.4-4.6 4.2-1.1 1.7-1.7 3.7-1.7 6 0 3.9 1.3 7.1 3.9 9.4 2.6 2.3 6.2 3.5 10.7 3.5s8-1.2 10.7-3.5c2.6-2.2 3.9-5.3 3.9-9.3 0-2.2-.6-4.2-1.7-6-1.1-1.7-2.7-3.1-4.6-4.2 2.2-1.1 4-2.6 5.3-4.5zm-18.9 14.2c0-1.8.5-3.3 1.4-4.4 1-1.1 2.3-1.7 4-1.7s3.1.6 4 1.7c.9 1.2 1.4 2.6 1.4 4.5 0 1.8-.5 3.2-1.4 4.3-1 1.1-2.3 1.6-4 1.6s-3-.5-4-1.6-1.4-2.5-1.4-4.4zm11.7-20.1c0 2-.6 3.6-1.7 4.8-1.2 1.2-2.7 1.8-4.7 1.8-1.9 0-3.5-.6-4.7-1.8-1.2-1.2-1.7-2.8-1.7-4.8s.6-3.6 1.7-4.8c1.1-1.2 2.7-1.8 4.8-1.8 2 0 3.5.6 4.7 1.7 1 1.3 1.6 2.9 1.6 4.9zm-6-45.6c.7-5.1 4.1-9.4 8.6-11.5h-18c4.6 2.1 7.9 6.4 8.6 11.5-12.6-10.4-23.3-.3-16 6.6.6.5 1.2 1 1.9 1.4 3.2 1.9 4.6 3 8 6.1 3.7 3.3 6.4 9.1 6.4 9.1s2.8-5.9 6.4-9.1c3.4-3 4.9-4.2 8-6.1.7-.4 1.4-.9 1.9-1.4 7.5-6.9-3.3-17-15.8-6.6zm-61.6-113.3c1.4-10.1 8-18.6 17-22.6h-35.5c9 4.1 15.6 12.5 17 22.6-24.7-20.6-45.9-.5-31.6 13 1.1 1 2.4 2 3.8 2.8 6.2 3.7 9 6 15.8 12 7.2 6.4 12.7 18 12.7 18s5.4-11.5 12.7-18c6.8-6 9.6-8.2 15.8-12 1.4-.8 2.7-1.7 3.8-2.8 14.3-13.5-6.8-33.6-31.5-13zm-1.6-90.4c-1.4 10.1-8 18.6-17 22.6h35.5c-9-4.1-15.6-12.5-17-22.6 24.7 20.6 45.9.5 31.6-13-1.1-1-2.4-2-3.8-2.8-6.2-3.7-9-6-15.8-12-7.2-6.4-12.7-18-12.7-18s-5.4 11.5-12.7 18c-6.8 6-9.6 8.2-15.8 12-1.4.8-2.7 1.7-3.8 2.8-14.3 13.5 6.8 33.6 31.5 13zm-118.4 90.4c1.4-10.1 8-18.6 17-22.6h-35.5c9 4.1 15.6 12.5 17 22.6-24.7-20.6-45.9-.5-31.6 13 1.1 1 2.4 2 3.8 2.8 6.2 3.7 9 6 15.8 12 7.2 6.4 12.7 18 12.7 18s5.4-11.5 12.7-18c6.8-6 9.6-8.2 15.8-12 1.4-.8 2.7-1.7 3.8-2.8 14.3-13.5-6.8-33.6-31.5-13z" fill="#36434f"/></svg>