<svg version="1.1" xmlns="http://www.w3.org/2000/svg" x="0" y="0" viewBox="0 0 512 512" xml:space="preserve"><path d="M398.4 0H113.6c-10.5 0-19 8.5-19 19v474c0 10.5 8.5 19 19 19h284.8c10.5 0 19-8.5 19-19V19c0-10.5-8.5-19-19-19z" fill="#f4f4f4"/><path d="M134 80.3c-12.5-13.7-23.4-.8-16.1 7.9.6.7 1.2 1.2 1.9 1.8 3.1 2.4 4.5 3.8 7.9 7.6 3.6 4.1 6.3 11.4 6.3 11.4s2.7-7.4 6.3-11.4c3.4-3.8 4.8-5.2 7.9-7.6.7-.5 1.3-1.1 1.9-1.8 7.3-8.7-3.6-21.7-16.1-7.9zm244 351.4c-12.5 13.7-23.4.8-16.1-7.9.6-.7 1.2-1.2 1.9-1.8 3.1-2.4 4.5-3.8 7.9-7.6 3.6-4.1 6.3-11.4 6.3-11.4s2.7 7.4 6.3 11.4c3.4 3.8 4.8 5.2 7.9 7.6.7.5 1.3 1.1 1.9 1.8 7.3 8.7-3.6 21.7-16.1 7.9zm-182-367c-23.2-25.5-43.4-1.5-29.9 14.6 1 1.2 2.2 2.3 3.5 3.3 5.8 4.4 8.4 7.1 14.7 14.1C191 104.4 196 118 196 118s5-13.6 11.8-21.2c6.3-7.1 8.9-9.7 14.7-14.1 1.3-1 2.5-2.1 3.5-3.3 13.4-16.1-6.8-40.1-30-14.7zm120 0c-23.2-25.5-43.4-1.5-29.9 14.6 1 1.2 2.2 2.3 3.5 3.3 5.8 4.4 8.4 7.1 14.7 14.1C311 104.4 316 118 316 118s5-13.6 11.8-21.2c6.3-7.1 8.9-9.7 14.7-14.1 1.3-1 2.5-2.1 3.5-3.3 13.4-16.1-6.8-40.1-30-14.7zM196 178.2c-23.2-25.5-43.4-1.5-29.9 14.6 1 1.2 2.2 2.3 3.5 3.3 5.8 4.4 8.4 7.1 14.7 14.1 6.7 7.6 11.8 21.2 11.8 21.2s5-13.6 11.8-21.2c6.3-7.1 8.9-9.7 14.7-14.1 1.3-1 2.5-2.1 3.5-3.3 13.3-16.1-6.9-40.1-30.1-14.6zm120 0c-23.2-25.5-43.4-1.5-29.9 14.6 1 1.2 2.2 2.3 3.5 3.3 5.8 4.4 8.4 7.1 14.7 14.1 6.7 7.6 11.8 21.2 11.8 21.2s5-13.6 11.8-21.2c6.3-7.1 8.9-9.7 14.7-14.1 1.3-1 2.5-2.1 3.5-3.3 13.3-16.1-6.9-40.1-30.1-14.6zM196 447.3c-23.2 25.5-43.4 1.5-29.9-14.6 1-1.2 2.2-2.3 3.5-3.3 5.8-4.4 8.4-7.1 14.7-14.1C191 407.6 196 394 196 394s5 13.6 11.8 21.2c6.3 7.1 8.9 9.7 14.7 14.1 1.3 1 2.5 2.1 3.5 3.3 13.4 16.1-6.8 40.1-30 14.7zm120 0c-23.2 25.5-43.4 1.5-29.9-14.6 1-1.2 2.2-2.3 3.5-3.3 5.8-4.4 8.4-7.1 14.7-14.1C311 407.6 316 394 316 394s5 13.6 11.8 21.2c6.3 7.1 8.9 9.7 14.7 14.1 1.3 1 2.5 2.1 3.5 3.3 13.4 16.1-6.8 40.1-30 14.7zM196 333.8c-23.2 25.5-43.4 1.5-29.9-14.6 1-1.2 2.2-2.3 3.5-3.3 5.8-4.4 8.4-7.1 14.7-14.1 6.7-7.6 11.8-21.2 11.8-21.2s5 13.6 11.8 21.2c6.3 7.1 8.9 9.7 14.7 14.1 1.3 1 2.5 2.1 3.5 3.3 13.3 16.1-6.9 40.1-30.1 14.6zm120 0c-23.2 25.5-43.4 1.5-29.9-14.6 1-1.2 2.2-2.3 3.5-3.3 5.8-4.4 8.4-7.1 14.7-14.1 6.7-7.6 11.8-21.2 11.8-21.2s5 13.6 11.8 21.2c6.3 7.1 8.9 9.7 14.7 14.1 1.3 1 2.5 2.1 3.5 3.3 13.3 16.1-6.9 40.1-30.1 14.6zM148.6 31.6c0 2.2-.6 4.2-1.7 6-1.1 1.7-2.7 3.1-4.6 4.2 2.2 1.1 4 2.6 5.3 4.5 1.3 1.9 2 4.1 2 6.7 0 4.1-1.4 7.3-4.2 9.7-2.8 2.4-6.6 3.6-11.4 3.6-4.8 0-8.6-1.2-11.4-3.6-2.8-2.4-4.2-5.6-4.2-9.7 0-2.6.7-4.8 2-6.7 1.3-1.9 3.1-3.4 5.3-4.4-2-1-3.5-2.4-4.6-4.2-1.1-1.7-1.7-3.7-1.7-6 0-3.9 1.3-7.1 3.9-9.4 2.6-2.3 6.2-3.5 10.7-3.5 4.5 0 8 1.2 10.7 3.5 2.6 2.2 3.9 5.3 3.9 9.3zm-8.2 20.6c0-2-.6-3.6-1.7-4.8-1.2-1.2-2.7-1.8-4.7-1.8-1.9 0-3.5.6-4.7 1.8-1.2 1.2-1.7 2.8-1.7 4.8s.6 3.6 1.7 4.8 2.7 1.8 4.8 1.8c2 0 3.5-.6 4.7-1.7 1-1.3 1.6-2.9 1.6-4.9zm-.9-20.2c0-1.8-.5-3.2-1.4-4.3-1-1.1-2.3-1.6-4-1.6-1.7 0-3 .5-4 1.6s-1.4 2.5-1.4 4.4c0 1.8.5 3.3 1.4 4.4 1 1.1 2.3 1.7 4 1.7 1.7 0 3.1-.6 4-1.7.9-1.2 1.4-2.6 1.4-4.5zm253.1 426.8c0 2.2-.6 4.2-1.7 6-1.1 1.7-2.7 3.1-4.6 4.2 2.2 1.1 4 2.6 5.3 4.5 1.3 1.9 2 4.1 2 6.7 0 4.1-1.4 7.3-4.2 9.7-2.8 2.4-6.6 3.6-11.4 3.6-4.8 0-8.6-1.2-11.4-3.6-2.8-2.4-4.2-5.6-4.2-9.7 0-2.6.7-4.8 2-6.7 1.3-1.9 3.1-3.4 5.3-4.4-2-1-3.5-2.4-4.6-4.2-1.1-1.7-1.7-3.7-1.7-6 0-3.9 1.3-7.1 3.9-9.4 2.6-2.3 6.2-3.5 10.7-3.5 4.5 0 8 1.2 10.7 3.5 2.6 2.2 3.9 5.3 3.9 9.3zm-8.2 20.6c0-2-.6-3.6-1.7-4.8-1.2-1.2-2.7-1.8-4.7-1.8-1.9 0-3.5.6-4.7 1.8-1.2 1.2-1.7 2.8-1.7 4.8s.6 3.6 1.7 4.8 2.7 1.8 4.8 1.8c2 0 3.5-.6 4.7-1.7 1-1.3 1.6-2.9 1.6-4.9zm-.9-20.2c0-1.8-.5-3.2-1.4-4.3-1-1.1-2.3-1.6-4-1.6-1.7 0-3 .5-4 1.6s-1.4 2.5-1.4 4.4c0 1.8.5 3.3 1.4 4.4 1 1.1 2.3 1.7 4 1.7 1.7 0 3.1-.6 4-1.7.9-1.2 1.4-2.6 1.4-4.5z" fill="#cc584c"/></svg>