<svg xmlns="http://www.w3.org/2000/svg" viewBox="0 0 512 512" style="enable-background:new 0 0 512 512" xml:space="preserve"><path d="M398.4 0H113.6c-10.5 0-19 8.5-19 19v474c0 10.5 8.5 19 19 19h284.8c10.5 0 19-8.5 19-19V19c0-10.5-8.5-19-19-19z" style="fill:#f4f4f4"/><path d="M387.7 446.4h9.2v35.4l10.9-3.4v7.5l-19.1 6.9h-1v-46.4zm-39.6 19.1c0-6.4 1.3-11.3 4-14.7 2.6-3.4 6.5-5.1 11.6-5.1 5 0 8.9 1.7 11.6 5 2.7 3.3 4 8.1 4.1 14.3v8.5c0 6.5-1.3 11.4-4 14.7-2.7 3.3-6.5 5-11.6 5-5 0-8.9-1.7-11.6-5-2.7-3.3-4-8.1-4.1-14.3v-8.4zm9.2 9.4c0 3.8.5 6.6 1.6 8.4 1 1.7 2.7 2.6 4.9 2.6s3.8-.8 4.8-2.5 1.6-4.3 1.6-7.8v-11.2c0-3.8-.5-6.6-1.5-8.4-1-1.8-2.7-2.7-4.9-2.7s-3.9.9-4.9 2.6c-1 1.8-1.5 4.4-1.6 8.1v10.9zm-233-409.3h-9.2V30.2l-10.9 3.4v-7.5l19.1-6.9h1v46.4zm39.6-19.1c0 6.4-1.3 11.3-4 14.7-2.6 3.4-6.5 5.1-11.6 5.1-5 0-8.9-1.7-11.6-5-2.7-3.3-4-8.1-4.1-14.3v-8.5c0-6.5 1.3-11.4 4-14.7 2.7-3.3 6.5-5 11.6-5 5 0 8.9 1.7 11.6 5 2.7 3.3 4 8.1 4.1 14.3v8.4zm-9.2-9.4c0-3.8-.5-6.6-1.6-8.4-1-1.7-2.7-2.6-4.9-2.6s-3.8.8-4.8 2.5-1.6 4.3-1.6 7.8v11.2c0 3.8.5 6.6 1.5 8.4 1 1.8 2.7 2.7 4.9 2.7s3.9-.9 4.9-2.6c1-1.8 1.5-4.4 1.6-8.1V37.1zm-38.1 54.5c7.2 4.1 13.3 10.1 17.4 17.4 4.1-7.2 10.1-13.3 17.4-17.4-3.5-2-6.7-4.4-9.6-7.2-3-3-5.7-6.4-7.8-10.2a45.45 45.45 0 0 1-17.4 17.4zm278.8 328.8c-3.5-2-6.7-4.4-9.6-7.2-3-3-5.7-6.4-7.8-10.2-4.1 7.2-10.1 13.3-17.4 17.4 7.2 4.1 13.3 10.1 17.4 17.4 4.1-7.3 10.1-13.3 17.4-17.4zM220.7 142.5c14.7 8.4 27 20.6 35.3 35.3 8.4-14.7 20.6-27 35.3-35.3-6.8-3.8-13-8.5-18.6-13.9-6.6-6.3-12.2-13.5-16.7-21.4-8.4 14.7-20.6 27-35.3 35.3zm0 227c14.7 8.4 27 20.6 35.3 35.3 8.4-14.7 20.6-27 35.3-35.3-7.3-4.1-14-9.2-19.9-15.1-6-6-11.2-12.8-15.4-20.2a94.91 94.91 0 0 1-35.3 35.3zm-60-283.7c14.7 8.4 27 20.6 35.3 35.3 8.4-14.7 20.6-27 35.3-35.3-7-4-13.4-8.8-19.2-14.4-6.3-6.2-11.8-13.2-16.1-20.9a94.91 94.91 0 0 1-35.3 35.3zm120 0c14.7 8.4 27 20.6 35.3 35.3 8.4-14.7 20.6-27 35.3-35.3-7-4-13.4-8.8-19.1-14.3-6.3-6.2-11.8-13.2-16.2-21a94.91 94.91 0 0 1-35.3 35.3zm-120 113.5c14.7 8.4 27 20.6 35.3 35.3 8.4-14.7 20.6-27 35.3-35.3-7.2-4.1-13.8-9.1-19.6-14.9-6.1-6-11.4-12.9-15.7-20.5-8.4 14.8-20.6 27-35.3 35.4zm120 0c14.7 8.4 27 20.6 35.3 35.3 8.4-14.7 20.6-27 35.3-35.3-7-3.9-13.4-8.8-19.1-14.3-6.4-6.2-11.8-13.2-16.3-21-8.3 14.7-20.5 26.9-35.2 35.3zm-120 113.4c14.7 8.4 27 20.6 35.3 35.3 8.4-14.7 20.6-27 35.3-35.3-7.6-4.3-14.6-9.7-20.6-15.9-5.7-5.8-10.6-12.3-14.7-19.4-8.4 14.7-20.6 27-35.3 35.3zm120 0c14.7 8.4 27 20.6 35.3 35.3 8.4-14.7 20.6-27 35.3-35.3-7.6-4.3-14.5-9.6-20.6-15.8-5.7-5.8-10.7-12.4-14.7-19.5-8.4 14.7-20.6 27-35.3 35.3zm-120 113.5c14.7 8.4 27 20.6 35.3 35.3 8.4-14.7 20.6-27 35.3-35.3-7.9-4.5-15.1-10.1-21.4-16.6a90.86 90.86 0 0 1-13.9-18.7 94.91 94.91 0 0 1-35.3 35.3zm120 0c14.7 8.4 27 20.6 35.3 35.3 8.4-14.7 20.6-27 35.3-35.3-6.5-3.7-12.5-8.1-17.9-13.2-6.8-6.4-12.7-13.9-17.4-22.1a94.91 94.91 0 0 1-35.3 35.3z" style="fill:#cc584c"/></svg>