<svg xmlns="http://www.w3.org/2000/svg" viewBox="0 0 512 512" style="enable-background:new 0 0 512 512" xml:space="preserve"><style>.st6{fill:#36434f}</style><path d="M398.4 0H113.6c-10.5 0-19 8.5-19 19v474c0 10.5 8.5 19 19 19h284.8c10.5 0 19-8.5 19-19V19c0-10.5-8.5-19-19-19z" style="fill:#f4f4f4"/><path class="st6" d="M387.7 446.4h9.2v35.4l10.9-3.4v7.5l-19.1 6.9h-1v-46.4zm-39.6 19.1c0-6.4 1.3-11.3 4-14.7 2.6-3.4 6.5-5.1 11.6-5.1 5 0 8.9 1.7 11.6 5 2.7 3.3 4 8.1 4.1 14.3v8.5c0 6.5-1.3 11.4-4 14.7-2.7 3.3-6.5 5-11.6 5-5 0-8.9-1.7-11.6-5-2.7-3.3-4-8.1-4.1-14.3v-8.4zm9.2 9.4c0 3.8.5 6.6 1.6 8.4 1 1.7 2.7 2.6 4.9 2.6s3.8-.8 4.8-2.5 1.6-4.3 1.6-7.8v-11.2c0-3.8-.5-6.6-1.5-8.4-1-1.8-2.7-2.7-4.9-2.7s-3.9.9-4.9 2.6c-1 1.8-1.5 4.4-1.6 8.1v10.9zm-233-409.3h-9.2V30.2l-10.9 3.4v-7.5l19.1-6.9h1v46.4zm39.6-19.1c0 6.4-1.3 11.3-4 14.7-2.6 3.4-6.5 5.1-11.6 5.1-5 0-8.9-1.7-11.6-5-2.7-3.3-4-8.1-4.1-14.3v-8.5c0-6.5 1.3-11.4 4-14.7 2.7-3.3 6.5-5 11.6-5 5 0 8.9 1.7 11.6 5 2.7 3.3 4 8.1 4.1 14.3v8.4zm-9.2-9.4c0-3.8-.5-6.6-1.6-8.4-1-1.7-2.7-2.6-4.9-2.6s-3.8.8-4.8 2.5-1.6 4.3-1.6 7.8v11.2c0 3.8.5 6.6 1.5 8.4 1 1.8 2.7 2.7 4.9 2.7s3.9-.9 4.9-2.6c1-1.8 1.5-4.4 1.6-8.1V37.1zm-20.3 59.1h-.8c-.3 5.7-3.6 10.5-8.6 12.8h18c-4.9-2.2-8.3-7.1-8.6-12.8zm-.8-6.3h.9v6.3h-.9z"/><path class="st6" d="M140.2 80.5c0 3.4-5.1 10.3-6.2 10.3s-6.2-6.9-6.2-10.3c0-3.4 2.8-6.2 6.2-6.2s6.2 2.7 6.2 6.2zM120.3 89c3.4 0 10.3 5.1 10.3 6.2s-6.9 6.2-10.3 6.2c-3.4 0-6.2-2.8-6.2-6.2 0-3.4 2.8-6.2 6.2-6.2zm27.4 0c-3.4 0-10.3 5.1-10.3 6.2s6.9 6.2 10.3 6.2c3.4 0 6.2-2.8 6.2-6.2 0-3.4-2.7-6.2-6.2-6.2z"/><path class="st6" d="M135.4 94.8h-6.3v.9h9.8v-.9zm243 321h-.8c-.3-5.7-3.6-10.5-8.6-12.8h18c-4.9 2.2-8.3 7.1-8.6 12.8zm-.8 0h.9v6.3h-.9z"/><path class="st6" d="M384.2 431.5c0-3.4-5.1-10.3-6.2-10.3s-6.2 6.9-6.2 10.3c0 3.4 2.8 6.2 6.2 6.2s6.2-2.7 6.2-6.2zm-19.9-8.5c3.4 0 10.3-5.1 10.3-6.2 0-1.1-6.9-6.2-10.3-6.2-3.4 0-6.2 2.8-6.2 6.2s2.7 6.2 6.2 6.2zm27.4 0c-3.4 0-10.3-5.1-10.3-6.2 0-1.1 6.9-6.2 10.3-6.2 3.4 0 6.2 2.8 6.2 6.2s-2.8 6.2-6.2 6.2z"/><path class="st6" d="M379.4 417.2h-6.3v-.9h9.8v.9zM217.6 81.7c-4.9 0-14.3 6.5-16 9.1h-4.9v-6.6c2.6-1.8 9.1-11.1 9.1-16 0-5.4-4.4-9.8-9.8-9.8s-9.8 4.4-9.8 9.8c0 4.9 6.5 14.3 9.1 16v6.6h-4.9c-1.8-2.6-11.1-9.1-16-9.1-5.4 0-9.8 4.4-9.8 9.8s4.4 9.8 9.8 9.8c4.9 0 14.3-6.5 16-9.1h4.9v.9c-.5 9-5.7 16.6-13.5 20.1h28.4c-7.8-3.5-13-11.1-13.5-20.1v-.9h4.9c1.8 2.6 11.1 9.1 16 9.1 5.4 0 9.8-4.4 9.8-9.8s-4.4-9.8-9.8-9.8zm120 0c-4.9 0-14.3 6.5-16 9.1h-4.9v-6.6c2.6-1.8 9.1-11.1 9.1-16 0-5.4-4.4-9.8-9.8-9.8s-9.8 4.4-9.8 9.8c0 4.9 6.5 14.3 9.1 16v6.6h-4.9c-1.8-2.6-11.1-9.1-16-9.1-5.4 0-9.8 4.4-9.8 9.8s4.4 9.8 9.8 9.8c4.9 0 14.3-6.5 16-9.1h4.9v.9c-.5 9-5.7 16.6-13.5 20.1h28.4c-7.8-3.5-13-11.1-13.5-20.1v-.9h4.9c1.8 2.6 11.1 9.1 16 9.1 5.4 0 9.8-4.4 9.8-9.8s-4.4-9.8-9.8-9.8zm-60 56.7c-4.9 0-14.3 6.5-16 9.1h-4.9V141c2.6-1.8 9.1-11.1 9.1-16 0-5.4-4.4-9.8-9.8-9.8s-9.8 4.4-9.8 9.8c0 4.9 6.5 14.3 9.1 16v6.6h-4.9c-1.8-2.6-11.1-9.1-16-9.1-5.4 0-9.8 4.4-9.8 9.8s4.4 9.8 9.8 9.8c4.9 0 14.3-6.5 16-9.1h4.9v.9c-.5 9-5.7 16.6-13.5 20.1h28.4c-7.8-3.5-13-11.1-13.5-20.1v-.9h4.9c1.8 2.6 11.1 9.1 16 9.1 5.4 0 9.8-4.4 9.8-9.8 0-5.5-4.4-9.9-9.8-9.9zm-60 56.8c-4.9 0-14.3 6.5-16 9.1h-4.9v-6.6c2.6-1.8 9.1-11.1 9.1-16 0-5.4-4.4-9.8-9.8-9.8s-9.8 4.4-9.8 9.8c0 4.9 6.5 14.3 9.1 16v6.6h-4.9c-1.8-2.6-11.1-9.1-16-9.1-5.4 0-9.8 4.4-9.8 9.8s4.4 9.8 9.8 9.8c4.9 0 14.3-6.5 16-9.1h4.9v.9c-.5 9-5.7 16.6-13.5 20.1h28.4c-7.8-3.5-13-11.1-13.5-20.1v-.9h4.9c1.8 2.6 11.1 9.1 16 9.1 5.4 0 9.8-4.4 9.8-9.8 0-5.5-4.4-9.8-9.8-9.8zm120 0c-4.9 0-14.3 6.5-16 9.1h-4.9v-6.6c2.6-1.8 9.1-11.1 9.1-16 0-5.4-4.4-9.8-9.8-9.8s-9.8 4.4-9.8 9.8c0 4.9 6.5 14.3 9.1 16v6.6h-4.9c-1.8-2.6-11.1-9.1-16-9.1-5.4 0-9.8 4.4-9.8 9.8s4.4 9.8 9.8 9.8c4.9 0 14.3-6.5 16-9.1h4.9v.9c-.5 9-5.7 16.6-13.5 20.1h28.4c-7.8-3.5-13-11.1-13.5-20.1v-.9h4.9c1.8 2.6 11.1 9.1 16 9.1 5.4 0 9.8-4.4 9.8-9.8 0-5.5-4.4-9.8-9.8-9.8zm-120 235.1c-4.9 0-14.3-6.5-16-9.1h-4.9v6.6c2.6 1.8 9.1 11.1 9.1 16 0 5.4-4.4 9.8-9.8 9.8s-9.8-4.4-9.8-9.8c0-4.9 6.5-14.3 9.1-16v-6.6h-4.9c-1.8 2.6-11.1 9.1-16 9.1-5.4 0-9.8-4.4-9.8-9.8s4.4-9.8 9.8-9.8c4.9 0 14.3 6.5 16 9.1h4.9v-.9c-.5-9-5.7-16.6-13.5-20.1h28.4c-7.8 3.5-13 11.1-13.5 20.1v.9h4.9c1.8-2.6 11.1-9.1 16-9.1 5.4 0 9.8 4.4 9.8 9.8s-4.4 9.8-9.8 9.8zm120 0c-4.9 0-14.3-6.5-16-9.1h-4.9v6.6c2.6 1.8 9.1 11.1 9.1 16 0 5.4-4.4 9.8-9.8 9.8s-9.8-4.4-9.8-9.8c0-4.9 6.5-14.3 9.1-16v-6.6h-4.9c-1.8 2.6-11.1 9.1-16 9.1-5.4 0-9.8-4.4-9.8-9.8s4.4-9.8 9.8-9.8c4.9 0 14.3 6.5 16 9.1h4.9v-.9c-.5-9-5.7-16.6-13.5-20.1h28.4c-7.8 3.5-13 11.1-13.5 20.1v.9h4.9c1.8-2.6 11.1-9.1 16-9.1 5.4 0 9.8 4.4 9.8 9.8s-4.4 9.8-9.8 9.8zm-60-56.7c-4.9 0-14.3-6.5-16-9.1h-4.9v6.6c2.6 1.8 9.1 11.1 9.1 16 0 5.4-4.4 9.8-9.8 9.8s-9.8-4.4-9.8-9.8c0-4.9 6.5-14.3 9.1-16v-6.6h-4.9c-1.8 2.6-11.1 9.1-16 9.1-5.4 0-9.8-4.4-9.8-9.8s4.4-9.8 9.8-9.8c4.9 0 14.3 6.5 16 9.1h4.9v-.9c-.5-9-5.7-16.6-13.5-20.1h28.4c-7.8 3.5-13 11.1-13.5 20.1v.9h4.9c1.8-2.6 11.1-9.1 16-9.1 5.4 0 9.8 4.4 9.8 9.8s-4.4 9.8-9.8 9.8zm-60-56.8c-4.9 0-14.3-6.5-16-9.1h-4.9v6.6c2.6 1.8 9.1 11.1 9.1 16 0 5.4-4.4 9.8-9.8 9.8s-9.8-4.4-9.8-9.8c0-4.9 6.5-14.3 9.1-16v-6.6h-4.9c-1.8 2.6-11.1 9.1-16 9.1-5.4 0-9.8-4.4-9.8-9.8s4.4-9.8 9.8-9.8c4.9 0 14.3 6.5 16 9.1h4.9v-.9c-.5-9-5.7-16.6-13.5-20.1h28.4c-7.8 3.5-13 11.1-13.5 20.1v.9h4.9c1.8-2.6 11.1-9.1 16-9.1 5.4 0 9.8 4.4 9.8 9.8 0 5.5-4.4 9.8-9.8 9.8zm120 0c-4.9 0-14.3-6.5-16-9.1h-4.9v6.6c2.6 1.8 9.1 11.1 9.1 16 0 5.4-4.4 9.8-9.8 9.8s-9.8-4.4-9.8-9.8c0-4.9 6.5-14.3 9.1-16v-6.6h-4.9c-1.8 2.6-11.1 9.1-16 9.1-5.4 0-9.8-4.4-9.8-9.8s4.4-9.8 9.8-9.8c4.9 0 14.3 6.5 16 9.1h4.9v-.9c-.5-9-5.7-16.6-13.5-20.1h28.4c-7.8 3.5-13 11.1-13.5 20.1v.9h4.9c1.8-2.6 11.1-9.1 16-9.1 5.4 0 9.8 4.4 9.8 9.8 0 5.5-4.4 9.8-9.8 9.8z"/><path d="M113.6 0c-10.5 0-19 8.5-19 19v474c0 10.5 8.5 19 19 19H256V0H113.6z" style="opacity:.15;fill:#444"/></svg>