<svg xmlns="http://www.w3.org/2000/svg" viewBox="0 0 512 512" xml:space="preserve"><path d="M398.4 0H113.6c-10.5 0-19 8.5-19 19v474c0 10.5 8.5 19 19 19h284.8c10.5 0 19-8.5 19-19V19c0-10.5-8.5-19-19-19z" fill="#f4f4f4"/><path d="M152.8 26.5h-14.2V65h-9.5V26.5h-14v-7.7h37.6v7.7zm206.4 459h14.2V447h9.5v38.5h14v7.7h-37.6v-7.7zM287.8 250c-7.2 0-21 9.6-23.5 13.4H257v-9.6c3.8-2.6 13.4-16.4 13.4-23.5 0-7.9-6.4-14.4-14.4-14.4s-14.4 6.4-14.4 14.4c0 7.2 9.6 21 13.4 23.5v9.6h-7.2c-2.6-3.8-16.4-13.4-23.5-13.4-7.9 0-14.4 6.4-14.4 14.4 0 7.9 6.4 14.4 14.4 14.4 7.2 0 21-9.6 23.5-13.4h7.2v1.3c-.7 13.2-8.4 24.4-19.9 29.6h41.8c-11.4-5.2-19.1-16.4-19.9-29.6v-1.3h7.2c2.6 3.8 16.4 13.4 23.5 13.4 7.9 0 14.4-6.4 14.4-14.4.1-8-6.4-14.4-14.3-14.4zM147.7 89c-3.1 0-9.1 4.1-10.2 5.8h-3.1v-4.2c1.6-1.1 5.8-7 5.8-10.2 0-3.4-2.8-6.2-6.2-6.2s-6.2 2.8-6.2 6.2c0 3.1 4.1 9.1 5.8 10.2v4.2h-3.1c-1.1-1.6-7-5.8-10.2-5.8-3.4 0-6.2 2.8-6.2 6.2s2.8 6.2 6.2 6.2c3.1 0 9.1-4.1 10.2-5.8h3.1v.6c-.3 5.7-3.6 10.5-8.6 12.8h18c-4.9-2.2-8.3-7.1-8.6-12.8v-.6h3.1c1.1 1.6 7 5.8 10.2 5.8 3.4 0 6.2-2.8 6.2-6.2s-2.7-6.2-6.2-6.2zm244 321.6c-3.1 0-9.1 4.1-10.2 5.8h-3.1v-.6c.3-5.7 3.6-10.5 8.6-12.8h-18c4.9 2.2 8.3 7.1 8.6 12.8v.6h-3.1c-1.1-1.6-7-5.8-10.2-5.8-3.4 0-6.2 2.8-6.2 6.2s2.8 6.2 6.2 6.2c3.1 0 9.1-4.1 10.2-5.8h3.1v4.2c-1.6 1.1-5.8 7-5.8 10.2 0 3.4 2.8 6.2 6.2 6.2s6.2-2.8 6.2-6.2c0-3.1-4.1-9.1-5.8-10.2v-4.2h3.1c1.1 1.6 7 5.8 10.2 5.8 3.4 0 6.2-2.8 6.2-6.2s-2.8-6.2-6.2-6.2z" fill="#36434f"/></svg>