<svg xmlns="http://www.w3.org/2000/svg" viewBox="0 0 512 512" xml:space="preserve"><path d="M398.4 0H113.6c-10.5 0-19 8.5-19 19v474c0 10.5 8.5 19 19 19h284.8c10.5 0 19-8.5 19-19V19c0-10.5-8.5-19-19-19z" fill="#f4f4f4"/><path d="M140.3 47.1c-2.4 2.3-5.2 3.5-8.4 3.5-4.1 0-7.4-1.4-9.8-4.2-2.5-2.8-3.7-6.6-3.7-11.3 0-3 .7-5.8 2-8.3 1.3-2.5 3.2-4.5 5.5-5.9 2.4-1.4 5-2.1 8-2.1s5.8.8 8.1 2.3c2.4 1.5 4.2 3.7 5.5 6.6 1.3 2.9 2 6.1 2 9.8v3.4c0 7.7-1.9 13.8-5.7 18.2-3.8 4.4-9.3 6.7-16.3 7h-2.3v-7.6h2c8.1-.5 12.4-4.2 13.1-11.4zm-6.1-3.5c1.5 0 2.8-.4 3.8-1.1s1.9-1.7 2.4-2.8V36c0-3.1-.6-5.5-1.8-7.2-1.2-1.7-2.8-2.6-4.8-2.6-1.8 0-3.4.8-4.5 2.5-1.2 1.7-1.8 3.8-1.8 6.3s.6 4.6 1.7 6.2c1.2 1.6 2.9 2.4 5 2.4zm237.5 421.3c2.4-2.3 5.2-3.5 8.4-3.5 4.1 0 7.4 1.4 9.8 4.2 2.5 2.8 3.7 6.6 3.7 11.3 0 3-.7 5.8-2 8.3-1.3 2.5-3.2 4.5-5.5 5.9-2.4 1.4-5 2.1-8 2.1s-5.8-.8-8.1-2.3c-2.4-1.5-4.2-3.7-5.5-6.6-1.3-2.9-2-6.1-2-9.8v-3.4c0-7.7 1.9-13.8 5.7-18.2 3.8-4.4 9.3-6.7 16.3-7h2.3v7.6h-2c-8.1.5-12.4 4.2-13.1 11.4zm6.1 3.5c-1.5 0-2.8.4-3.8 1.1s-1.9 1.7-2.4 2.8v3.8c0 3.1.6 5.5 1.8 7.2 1.2 1.7 2.8 2.6 4.8 2.6 1.8 0 3.4-.8 4.5-2.5 1.2-1.7 1.8-3.8 1.8-6.3s-.6-4.6-1.7-6.2c-1.2-1.7-2.9-2.5-5-2.5zM148.5 89.5c-3.2-1.9-4.6-3-8-6.1-3.7-3.3-6.4-9.1-6.4-9.1s-2.8 5.9-6.4 9.1c-3.4 3-4.9 4.2-8 6.1-.7.4-1.4.9-1.9 1.4-7.3 6.9 3.5 17 16 6.6-.7 5.1-4.1 9.4-8.6 11.5h18c-4.6-2.1-7.9-6.4-8.6-11.5 12.6 10.4 23.3.3 16-6.6-.8-.5-1.4-1-2.1-1.4zm229.9 325c.7-5.1 4.1-9.4 8.6-11.5h-18c4.6 2.1 7.9 6.4 8.6 11.5-12.6-10.4-23.3-.3-16 6.6.6.5 1.2 1 1.9 1.4 3.2 1.9 4.6 3 8 6.1 3.7 3.3 6.4 9.1 6.4 9.1s2.8-5.9 6.4-9.1c3.4-3 4.9-4.2 8-6.1.7-.4 1.4-.9 1.9-1.4 7.5-6.9-3.3-17-15.8-6.6zM228.3 84.3c-1.1-1-2.4-2-3.8-2.8-6.2-3.7-9-6-15.8-12-7.2-6.4-12.7-18-12.7-18s-5.4 11.5-12.7 18c-6.8 6-9.6 8.2-15.8 12-1.4.8-2.7 1.7-3.8 2.8-14.3 13.5 6.8 33.6 31.5 13-1.4 10.1-8 18.6-17 22.6h35.5c-9-4.1-15.6-12.5-17-22.6 24.7 20.6 45.9.6 31.6-13zm120 0c-1.1-1-2.4-2-3.8-2.8-6.2-3.7-9-6-15.8-12-7.2-6.4-12.7-18-12.7-18s-5.4 11.5-12.7 18c-6.8 6-9.6 8.2-15.8 12-1.4.8-2.7 1.7-3.8 2.8-14.3 13.5 6.8 33.6 31.5 13-1.4 10.1-8 18.6-17 22.6h35.5c-9-4.1-15.6-12.5-17-22.6 24.7 20.6 45.9.6 31.6-13zm-60 170.2c-1.1-1-2.4-2-3.8-2.8-6.2-3.7-9-6-15.8-12-7.2-6.4-12.7-18-12.7-18s-5.4 11.5-12.7 18c-6.8 6-9.6 8.2-15.8 12-1.4.8-2.7 1.7-3.8 2.8-14.3 13.5 6.8 33.6 31.5 13-1.4 10.1-8 18.6-17 22.6h35.5c-9-4.1-15.6-12.5-17-22.6 24.7 20.6 45.9.6 31.6-13zm-60-56.7c-1.1-1-2.4-2-3.8-2.8-6.2-3.7-9-6-15.8-12-7.2-6.4-12.7-18-12.7-18s-5.4 11.5-12.7 18c-6.8 6-9.6 8.2-15.8 12-1.4.8-2.7 1.7-3.8 2.8-14.3 13.5 6.8 33.6 31.5 13-1.4 10.1-8 18.6-17 22.6h35.5c-9-4.1-15.6-12.5-17-22.6 24.7 20.6 45.9.5 31.6-13zm120 0c-1.1-1-2.4-2-3.8-2.8-6.2-3.7-9-6-15.8-12-7.2-6.4-12.7-18-12.7-18s-5.4 11.5-12.7 18c-6.8 6-9.6 8.2-15.8 12-1.4.8-2.7 1.7-3.8 2.8-14.3 13.5 6.8 33.6 31.5 13-1.4 10.1-8 18.6-17 22.6h35.5c-9-4.1-15.6-12.5-17-22.6 24.7 20.6 45.9.5 31.6-13zm-64.6 229.9c1.1 1 2.4 2 3.8 2.8 6.2 3.7 9 6 15.8 12 7.2 6.4 12.7 18 12.7 18s5.4-11.5 12.7-18c6.8-6 9.6-8.2 15.8-12 1.4-.8 2.7-1.7 3.8-2.8 14.3-13.5-6.8-33.6-31.5-13 1.4-10.1 8-18.6 17-22.6h-35.5c9 4.1 15.6 12.5 17 22.6-24.7-20.6-45.9-.6-31.6 13zm-120 0c1.1 1 2.4 2 3.8 2.8 6.2 3.7 9 6 15.8 12 7.2 6.4 12.7 18 12.7 18s5.4-11.5 12.7-18c6.8-6 9.6-8.2 15.8-12 1.4-.8 2.7-1.7 3.8-2.8 14.3-13.5-6.8-33.6-31.5-13 1.4-10.1 8-18.6 17-22.6h-35.5c9 4.1 15.6 12.5 17 22.6-24.7-20.6-45.9-.6-31.6 13zm120-113.5c1.1 1 2.4 2 3.8 2.8 6.2 3.7 9 6 15.8 12 7.2 6.4 12.7 18 12.7 18s5.4-11.5 12.7-18c6.8-6 9.6-8.2 15.8-12 1.4-.8 2.7-1.7 3.8-2.8 14.3-13.5-6.8-33.6-31.5-13 1.4-10.1 8-18.6 17-22.6h-35.5c9 4.1 15.6 12.5 17 22.6-24.7-20.6-45.9-.5-31.6 13zm-120 0c1.1 1 2.4 2 3.8 2.8 6.2 3.7 9 6 15.8 12 7.2 6.4 12.7 18 12.7 18s5.4-11.5 12.7-18c6.8-6 9.6-8.2 15.8-12 1.4-.8 2.7-1.7 3.8-2.8 14.3-13.5-6.8-33.6-31.5-13 1.4-10.1 8-18.6 17-22.6h-35.5c9 4.1 15.6 12.5 17 22.6-24.7-20.6-45.9-.5-31.6 13z" fill="#36434f"/></svg>