<svg xmlns="http://www.w3.org/2000/svg" viewBox="0 0 512 512" xml:space="preserve"><style>.st1{fill:#36434f}</style><path d="M398.4 0H113.6c-10.5 0-19 8.5-19 19v474c0 10.5 8.5 19 19 19h284.8c10.5 0 19-8.5 19-19V19c0-10.5-8.5-19-19-19z" fill="#f4f4f4"/><path class="st1" d="M134.4 96.2h-.8c-.3 5.7-3.6 10.5-8.6 12.8h18c-4.9-2.2-8.3-7.1-8.6-12.8zm-.8-6.3h.9v6.3h-.9z"/><path class="st1" d="M140.2 80.5c0 3.4-5.1 10.3-6.2 10.3s-6.2-6.9-6.2-10.3c0-3.4 2.8-6.2 6.2-6.2s6.2 2.7 6.2 6.2zM120.3 89c3.4 0 10.3 5.1 10.3 6.2s-6.9 6.2-10.3 6.2c-3.4 0-6.2-2.8-6.2-6.2 0-3.4 2.8-6.2 6.2-6.2zm27.4 0c-3.4 0-10.3 5.1-10.3 6.2s6.9 6.2 10.3 6.2c3.4 0 6.2-2.8 6.2-6.2 0-3.4-2.7-6.2-6.2-6.2z"/><path class="st1" d="M135.4 94.8h-6.3v.9h9.8v-.9zm243 321h-.8c-.3-5.7-3.6-10.5-8.6-12.8h18c-4.9 2.2-8.3 7.1-8.6 12.8zm-.8 0h.9v6.3h-.9z"/><path class="st1" d="M384.2 431.5c0-3.4-5.1-10.3-6.2-10.3s-6.2 6.9-6.2 10.3c0 3.4 2.8 6.2 6.2 6.2s6.2-2.7 6.2-6.2zm-19.9-8.5c3.4 0 10.3-5.1 10.3-6.2 0-1.1-6.9-6.2-10.3-6.2-3.4 0-6.2 2.8-6.2 6.2s2.7 6.2 6.2 6.2zm27.4 0c-3.4 0-10.3-5.1-10.3-6.2 0-1.1 6.9-6.2 10.3-6.2 3.4 0 6.2 2.8 6.2 6.2s-2.8 6.2-6.2 6.2z"/><path class="st1" d="M379.4 417.2h-6.3v-.9h9.8v.9zM223 80.7c-6.1 0-17.8 8.1-20 11.4h-6.2v-8.2c3.2-2.2 11.4-13.9 11.4-20 0-6.8-5.5-12.2-12.2-12.2-6.8 0-12.2 5.5-12.2 12.2 0 6.1 8.1 17.8 11.4 20V92H189c-2.2-3.2-13.9-11.4-20-11.4-6.8 0-12.2 5.5-12.2 12.2 0 6.8 5.5 12.2 12.2 12.2 6.1 0 17.8-8.1 20-11.4h6.2v1.1c-.6 11.2-7.2 20.7-16.9 25.1h35.4c-9.7-4.4-16.3-13.9-16.9-25.1v-1.1h6.2c2.2 3.2 13.9 11.4 20 11.4 6.8 0 12.2-5.5 12.2-12.2 0-6.7-5.4-12.1-12.2-12.1zm120 0c-6.1 0-17.8 8.1-20 11.4h-6.2v-8.2c3.2-2.2 11.4-13.9 11.4-20 0-6.8-5.5-12.2-12.2-12.2s-12.2 5.5-12.2 12.2c0 6.1 8.1 17.8 11.4 20V92H309c-2.2-3.2-13.9-11.4-20-11.4-6.8 0-12.2 5.5-12.2 12.2 0 6.8 5.5 12.2 12.2 12.2 6.1 0 17.8-8.1 20-11.4h6.2v1.1c-.6 11.2-7.2 20.7-16.9 25.1h35.4c-9.7-4.4-16.3-13.9-16.9-25.1v-1.1h6.2c2.2 3.2 13.9 11.4 20 11.4 6.8 0 12.2-5.5 12.2-12.2 0-6.7-5.4-12.1-12.2-12.1zm-60 170.2c-6.1 0-17.8 8.1-20 11.4h-6.2V254c3.2-2.2 11.4-13.9 11.4-20 0-6.8-5.5-12.2-12.2-12.2s-12.2 5.5-12.2 12.2c0 6.1 8.1 17.8 11.4 20v8.2H249c-2.2-3.2-13.9-11.4-20-11.4-6.8 0-12.2 5.5-12.2 12.2 0 6.8 5.5 12.2 12.2 12.2 6.1 0 17.8-8.1 20-11.4h6.2v1.1c-.6 11.2-7.2 20.7-16.9 25.1h35.4c-9.7-4.4-16.3-13.9-16.9-25.1v-1.1h6.2c2.2 3.2 13.9 11.4 20 11.4 6.8 0 12.2-5.5 12.2-12.2 0-6.7-5.4-12.1-12.2-12.1zm-60-56.8c-6.1 0-17.8 8.1-20 11.4h-6.2v-8.2c3.2-2.2 11.4-13.9 11.4-20 0-6.8-5.5-12.2-12.2-12.2-6.8 0-12.2 5.5-12.2 12.2 0 6.1 8.1 17.8 11.4 20v8.2H189c-2.2-3.2-13.9-11.4-20-11.4-6.8 0-12.2 5.5-12.2 12.2 0 6.8 5.5 12.2 12.2 12.2 6.1 0 17.8-8.1 20-11.4h6.2v1.1c-.6 11.2-7.2 20.7-16.9 25.1h35.4c-9.7-4.4-16.3-13.9-16.9-25.1v-1.1h6.2c2.2 3.2 13.9 11.4 20 11.4 6.8 0 12.2-5.5 12.2-12.2 0-6.7-5.4-12.2-12.2-12.2zm120 0c-6.1 0-17.8 8.1-20 11.4h-6.2v-8.2c3.2-2.2 11.4-13.9 11.4-20 0-6.8-5.5-12.2-12.2-12.2s-12.2 5.5-12.2 12.2c0 6.1 8.1 17.8 11.4 20v8.2H309c-2.2-3.2-13.9-11.4-20-11.4-6.8 0-12.2 5.5-12.2 12.2 0 6.8 5.5 12.2 12.2 12.2 6.1 0 17.8-8.1 20-11.4h6.2v1.1c-.6 11.2-7.2 20.7-16.9 25.1h35.4c-9.7-4.4-16.3-13.9-16.9-25.1v-1.1h6.2c2.2 3.2 13.9 11.4 20 11.4 6.8 0 12.2-5.5 12.2-12.2 0-6.7-5.4-12.2-12.2-12.2zM223 431.3c-6.1 0-17.8-8.1-20-11.4h-6.2v8.2c3.2 2.2 11.4 13.9 11.4 20 0 6.8-5.5 12.2-12.2 12.2-6.8 0-12.2-5.5-12.2-12.2 0-6.1 8.1-17.8 11.4-20V420H189c-2.2 3.2-13.9 11.4-20 11.4-6.8 0-12.2-5.5-12.2-12.2 0-6.8 5.5-12.2 12.2-12.2 6.1 0 17.8 8.1 20 11.4h6.2v-1.1c-.6-11.2-7.2-20.7-16.9-25.1h35.4c-9.7 4.4-16.3 13.9-16.9 25.1v1.1h6.2c2.2-3.2 13.9-11.4 20-11.4 6.8 0 12.2 5.5 12.2 12.2 0 6.7-5.4 12.1-12.2 12.1zm120 0c-6.1 0-17.8-8.1-20-11.4h-6.2v8.2c3.2 2.2 11.4 13.9 11.4 20 0 6.8-5.5 12.2-12.2 12.2s-12.2-5.5-12.2-12.2c0-6.1 8.1-17.8 11.4-20V420H309c-2.2 3.2-13.9 11.4-20 11.4-6.8 0-12.2-5.5-12.2-12.2 0-6.8 5.5-12.2 12.2-12.2 6.1 0 17.8 8.1 20 11.4h6.2v-1.1c-.6-11.2-7.2-20.7-16.9-25.1h35.4c-9.7 4.4-16.3 13.9-16.9 25.1v1.1h6.2c2.2-3.2 13.9-11.4 20-11.4 6.8 0 12.2 5.5 12.2 12.2 0 6.7-5.4 12.1-12.2 12.1zM223 317.9c-6.1 0-17.8-8.1-20-11.4h-6.2v8.2c3.2 2.2 11.4 13.9 11.4 20 0 6.8-5.5 12.2-12.2 12.2-6.8 0-12.2-5.5-12.2-12.2 0-6.1 8.1-17.8 11.4-20v-8.2H189c-2.2 3.2-13.9 11.4-20 11.4-6.8 0-12.2-5.5-12.2-12.2 0-6.8 5.5-12.2 12.2-12.2 6.1 0 17.8 8.1 20 11.4h6.2v-1.1c-.6-11.2-7.2-20.7-16.9-25.1h35.4c-9.7 4.4-16.3 13.9-16.9 25.1v1.1h6.2c2.2-3.2 13.9-11.4 20-11.4 6.8 0 12.2 5.5 12.2 12.2 0 6.7-5.4 12.2-12.2 12.2zm120 0c-6.1 0-17.8-8.1-20-11.4h-6.2v8.2c3.2 2.2 11.4 13.9 11.4 20 0 6.8-5.5 12.2-12.2 12.2s-12.2-5.5-12.2-12.2c0-6.1 8.1-17.8 11.4-20v-8.2H309c-2.2 3.2-13.9 11.4-20 11.4-6.8 0-12.2-5.5-12.2-12.2 0-6.8 5.5-12.2 12.2-12.2 6.1 0 17.8 8.1 20 11.4h6.2v-1.1c-.6-11.2-7.2-20.7-16.9-25.1h35.4c-9.7 4.4-16.3 13.9-16.9 25.1v1.1h6.2c2.2-3.2 13.9-11.4 20-11.4 6.8 0 12.2 5.5 12.2 12.2 0 6.7-5.4 12.2-12.2 12.2zM140.3 47.1c-2.4 2.3-5.2 3.5-8.4 3.5-4.1 0-7.4-1.4-9.8-4.2-2.5-2.8-3.7-6.6-3.7-11.3 0-3 .7-5.8 2-8.3 1.3-2.5 3.2-4.5 5.5-5.9 2.4-1.4 5-2.1 8-2.1s5.8.8 8.1 2.3c2.4 1.5 4.2 3.7 5.5 6.6 1.3 2.9 2 6.1 2 9.8v3.4c0 7.7-1.9 13.8-5.7 18.2-3.8 4.4-9.3 6.7-16.3 7h-2.3v-7.6h2c8.1-.5 12.4-4.2 13.1-11.4zm-6.1-3.5c1.5 0 2.8-.4 3.8-1.1s1.9-1.7 2.4-2.8V36c0-3.1-.6-5.5-1.8-7.2-1.2-1.7-2.8-2.6-4.8-2.6-1.8 0-3.4.8-4.5 2.5-1.2 1.7-1.8 3.8-1.8 6.3s.6 4.6 1.7 6.2c1.2 1.6 2.9 2.4 5 2.4zm237.5 421.3c2.4-2.3 5.2-3.5 8.4-3.5 4.1 0 7.4 1.4 9.8 4.2 2.5 2.8 3.7 6.6 3.7 11.3 0 3-.7 5.8-2 8.3-1.3 2.5-3.2 4.5-5.5 5.9-2.4 1.4-5 2.1-8 2.1s-5.8-.8-8.1-2.3c-2.4-1.5-4.2-3.7-5.5-6.6-1.3-2.9-2-6.1-2-9.8v-3.4c0-7.7 1.9-13.8 5.7-18.2 3.8-4.4 9.3-6.7 16.3-7h2.3v7.6h-2c-8.1.5-12.4 4.2-13.1 11.4zm6.1 3.5c-1.5 0-2.8.4-3.8 1.1s-1.9 1.7-2.4 2.8v3.8c0 3.1.6 5.5 1.8 7.2 1.2 1.7 2.8 2.6 4.8 2.6 1.8 0 3.4-.8 4.5-2.5 1.2-1.7 1.8-3.8 1.8-6.3s-.6-4.6-1.7-6.2c-1.2-1.7-2.9-2.5-5-2.5z"/></svg>