<svg version="1.1" xmlns="http://www.w3.org/2000/svg" x="0" y="0" viewBox="0 0 512 512" xml:space="preserve"><ellipse cx="256" cy="8.6" rx="46.1" ry="8.6" fill="#a7e1fb"/><path d="M256 17.1c-25.4 0-46.1-3.9-46.1-8.6v469.2c0 19 20.7 34.3 46.1 34.3s46.1-15.3 46.1-34.3V8.6c0 4.7-20.7 8.5-46.1 8.5z" fill="#79b1d1"/><path d="M256 118.9c-19 0-34.3 2.9-34.3 6.4v349.4c0 14.1 15.3 25.5 34.3 25.5s34.3-11.5 34.3-25.5V125.3c0-3.5-15.3-6.4-34.3-6.4z" fill="#4caf50"/><path d="M273.1 72.8c-4.7 0-8.6 3.9-8.6 8.6v298.8c0 4.7 3.9 8.6 8.6 8.6s8.6-3.9 8.6-8.6V81.4c0-4.7-3.8-8.6-8.6-8.6zm0 346c-4.7 0-8.6 3.9-8.6 8.6v42.8c0 4.7 3.9 8.6 8.6 8.6s8.6-3.9 8.6-8.6v-42.8c0-4.7-3.8-8.6-8.6-8.6z" opacity=".5" fill="#f4f4f4"/><path d="M209.9 8.5v469.2c0 19 20.7 34.3 46.1 34.3V0c-25.4 0-45.9 3.8-46.1 8.5z" opacity=".15" fill="#444"/></svg>