<svg version="1.1" xmlns="http://www.w3.org/2000/svg" x="0" y="0" viewBox="0 0 512 512" xml:space="preserve"><style type="text/css">.st1{fill:#36434f}.st2{fill:#122a3a}</style><path d="M274 0h-36c-3.2 0-6.4 1.3-8.6 3.6l-23 23.8c-2.2 2.2-3.4 5.2-3.4 8.4V467c0 1.7 1.3 3 3 3h100c1.7 0 3-1.3 3-3V35.8c0-3.1-1.2-6.1-3.4-8.4l-23-23.8C280.3 1.3 277.2 0 274 0z" fill="#e0ac7e"/><path class="st1" d="M244 168h-41v-2h41v2zm-20 5h-21v2h21v-2zm0 7h-21v2h21v-2zm0 7h-21v2h21v-2zm0 7h-21v2h21v-2zm7 7h-28v2h28v-2zm-7 7h-21v2h21v-2zm0 7h-21v2h21v-2zm0 7h-21v2h21v-2zm0 7h-21v2h21v-2zm20 7h-41v2h41v-2zm-20 7h-21v2h21v-2zm0 7h-21v2h21v-2zm0 7h-21v2h21v-2zm0 7h-21v2h21v-2zm7 7h-28v2h28v-2zm-7 7h-21v2h21v-2zm0 7h-21v2h21v-2zm0 7h-21v2h21v-2zm0 7h-21v2h21v-2zm20 7h-41v2h41v-2zm-20 7h-21v2h21v-2zm0 7h-21v2h21v-2zm0 7h-21v2h21v-2zm0 7h-21v2h21v-2zm7 7h-28v2h28v-2zm-7 7h-21v2h21v-2zm0 7h-21v2h21v-2zm0 7h-21v2h21v-2zm0 7h-21v2h21v-2zm20 7h-41v2h41v-2zm-20 7h-21v2h21v-2zm0 7h-21v2h21v-2zm0 7h-21v2h21v-2zm0 7h-21v2h21v-2zm7 7h-28v2h28v-2zm-7 7h-21v2h21v-2zm0 7h-21v2h21v-2zm0 7h-21v2h21v-2zm0 7h-21v2h21v-2zm20 7h-41v2h41v-2zm2-296.3c-.7-.9-1.8-1.4-3.2-1.4-1.5 0-2.5.5-3.2 1.4s-1 2.4-1 4.4v2.3c0 1.9.4 3.3 1.1 4.3.7 1 1.8 1.4 3.2 1.4 1.5 0 2.5-.5 3.2-1.5s1-2.5 1-4.5V154c-.1-2-.4-3.4-1.1-4.3zm-.7 7c0 1.4-.2 2.4-.6 3.1-.4.7-1 1-1.9 1-.9 0-1.5-.3-1.9-1-.4-.7-.6-1.8-.6-3.2v-2.7c0-1.4.2-2.4.6-3.1.4-.7 1-1 1.9-1 .9 0 1.5.3 1.9 1 .4.7.6 1.7.6 3.2v2.7zm-1.3 61.7l-5 1.8v1.6l3.5-1.3v11.4h1.7v-13.5zm-3.3 82.1l3.6-3.9c1.7-1.8 2.5-3.4 2.5-4.8 0-1.1-.4-2-1.1-2.6-.7-.7-1.7-1-3-1s-2.4.4-3.2 1.2c-.8.8-1.2 1.8-1.2 3h1.7c0-.9.2-1.5.7-2 .5-.5 1.1-.7 2-.7.7 0 1.3.2 1.7.7.4.5.6 1 .6 1.7 0 .5-.1 1-.4 1.5-.3.5-.7 1.1-1.4 1.9l-4.7 5.2v1.2h8.9v-1.4h-6.7zm5.6 65.7c-.4-.5-1-.9-1.7-1.2.7-.3 1.2-.7 1.6-1.2.4-.6.6-1.1.6-1.7 0-1.2-.4-2.1-1.1-2.8-.7-.7-1.7-1-3-1-1.2 0-2.2.4-3 1.1-.8.7-1.2 1.6-1.2 2.7h1.7c0-.7.2-1.3.7-1.7.4-.4 1-.6 1.8-.6 1.6 0 2.4.8 2.4 2.4 0 .7-.2 1.3-.7 1.7-.5.4-1.1.6-1.9.6h-1.3v1.4h1.3c.9 0 1.6.2 2.1.6.5.4.7 1 .7 1.8s-.2 1.4-.7 1.9c-.4.4-1.1.7-1.9.7-.8 0-1.4-.2-1.9-.6s-.7-1-.7-1.7h-1.7c0 1.1.4 2 1.2 2.7.8.7 1.8 1 3.1 1s2.3-.4 3.1-1.1c.8-.7 1.2-1.7 1.2-2.9-.1-.9-.3-1.6-.7-2.1zm-.5 71.2v-9H244l-6 9.4v1h6.2v3.1h1.7v-3.1h1.9v-1.4h-2zm-1.7 0h-4.2l4-6.3.2-.4v6.7zm-18.6-319.7v16.5l-10.7-16.5H212v21.4h2.8v-16.5l10.7 16.5h2.8v-21.4z"/><path class="st1" d="M224 165h64v4h-64z"/><path class="st2" d="M241.43 130.33l29.708 3.384-.453 3.974-29.708-3.384zm0-6.001l29.708 3.385-.453 3.974-29.709-3.385z"/><path class="st1" d="M271.6 131.6l-30.9 2.7c-1.1.1-2.1-.7-2.2-1.8-.1-1.1.7-2.1 1.8-2.2l30.9-2.7c1.1-.1 2.1.7 2.2 1.8.1 1.2-.7 2.1-1.8 2.2z"/><path class="st2" d="M241.43 118.329l29.708 3.385-.453 3.974-29.709-3.385z"/><path class="st1" d="M271.6 125.6l-30.9 2.7c-1.1.1-2.1-.7-2.2-1.8-.1-1.1.7-2.1 1.8-2.2l30.9-2.7c1.1-.1 2.1.7 2.2 1.8.1 1.2-.7 2.1-1.8 2.2z"/><path class="st2" d="M241.43 112.329l29.708 3.384-.453 3.975-29.709-3.385z"/><path class="st1" d="M271.6 119.6l-30.9 2.7c-1.1.1-2.1-.7-2.2-1.8-.1-1.1.7-2.1 1.8-2.2l30.9-2.7c1.1-.1 2.1.7 2.2 1.8.1 1.2-.7 2.1-1.8 2.2z"/><path class="st2" d="M241.43 106.329l29.708 3.384-.453 3.975-29.709-3.385z"/><path class="st1" d="M271.6 113.6l-30.9 2.7c-1.1.1-2.1-.7-2.2-1.8-.1-1.1.7-2.1 1.8-2.2l30.9-2.7c1.1-.1 2.1.7 2.2 1.8.1 1.2-.7 2.1-1.8 2.2z"/><path class="st2" d="M241.43 100.328l29.708 3.385-.453 3.974-29.709-3.384z"/><path class="st1" d="M271.6 107.6l-30.9 2.7c-1.1.1-2.1-.7-2.2-1.8-.1-1.1.7-2.1 1.8-2.2l30.9-2.7c1.1-.1 2.1.7 2.2 1.8.1 1.2-.7 2.1-1.8 2.2z"/><path class="st2" d="M241.43 94.328l29.708 3.385-.453 3.974-29.709-3.384z"/><path class="st1" d="M271.6 101.6l-30.9 2.7c-1.1.1-2.1-.7-2.2-1.8-.1-1.1.7-2.1 1.8-2.2l30.9-2.7c1.1-.1 2.1.7 2.2 1.8.1 1.2-.7 2.1-1.8 2.2z"/><path class="st2" d="M241.43 88.328l29.708 3.385-.453 3.974-29.709-3.385z"/><path class="st1" d="M271.6 95.6l-30.9 2.7c-1.1.1-2.1-.7-2.2-1.8-.1-1.1.7-2.1 1.8-2.2l30.9-2.7c1.1-.1 2.1.7 2.2 1.8.1 1.2-.7 2.1-1.8 2.2z"/><path class="st2" d="M241.43 82.328l29.708 3.385-.453 3.974-29.709-3.385z"/><path class="st1" d="M271.6 89.6l-30.9 2.7c-1.1.1-2.1-.7-2.2-1.8-.1-1.1.7-2.1 1.8-2.2l30.9-2.7c1.1-.1 2.1.7 2.2 1.8.1 1.2-.7 2.1-1.8 2.2z"/><path class="st2" d="M241.43 76.328l29.708 3.384-.453 3.975-29.709-3.385z"/><path class="st1" d="M271.6 83.6l-30.9 2.7c-1.1.1-2.1-.7-2.2-1.8-.1-1.1.7-2.1 1.8-2.2l30.9-2.7c1.1-.1 2.1.7 2.2 1.8.1 1.2-.7 2.1-1.8 2.2z"/><path class="st2" d="M241.43 70.328l29.708 3.384-.453 3.975-29.709-3.385z"/><path class="st1" d="M271.6 77.6l-30.9 2.7c-1.1.1-2.1-.7-2.2-1.8-.1-1.1.7-2.1 1.8-2.2l30.9-2.7c1.1-.1 2.1.7 2.2 1.8.1 1.2-.7 2.1-1.8 2.2z"/><path class="st2" d="M241.43 64.327l29.708 3.385-.453 3.974-29.709-3.384z"/><path class="st1" d="M271.6 71.6l-30.9 2.7c-1.1.1-2.1-.7-2.2-1.8-.1-1.1.7-2.1 1.8-2.2l30.9-2.7c1.1-.1 2.1.7 2.2 1.8.1 1.2-.7 2.1-1.8 2.2z"/><path class="st2" d="M241.43 58.327l29.708 3.385-.453 3.974-29.709-3.384z"/><path class="st1" d="M271.6 65.6l-30.9 2.7c-1.1.1-2.1-.7-2.2-1.8-.1-1.1.7-2.1 1.8-2.2l30.9-2.7c1.1-.1 2.1.7 2.2 1.8.1 1.2-.7 2.1-1.8 2.2z"/><path class="st2" d="M241.43 52.327l29.708 3.385-.453 3.974-29.709-3.385z"/><path class="st1" d="M271.6 59.6l-30.9 2.7c-1.1.1-2.1-.7-2.2-1.8-.1-1.1.7-2.1 1.8-2.2l30.9-2.7c1.1-.1 2.1.7 2.2 1.8.1 1.2-.7 2.1-1.8 2.2z"/><path class="st2" d="M241.43 46.327l29.708 3.385-.453 3.974-29.709-3.385z"/><path class="st1" d="M271.6 53.6l-30.9 2.7c-1.1.1-2.1-.7-2.2-1.8-.1-1.1.7-2.1 1.8-2.2l30.9-2.7c1.1-.1 2.1.7 2.2 1.8.1 1.2-.7 2.1-1.8 2.2zm1.8 81.5c-.2-1-1.2-1.6-2.2-1.5l-15.3 1.3c-1 .1-1.8 1-1.8 2v348.6c0 1.9 1.2 3.6 2.4 5.2 1 1.2 2.3 2 3.6 2.7 2.4 1.4 4.3 2.5 4.5 6 .1 2.1-.7 4.2-2.2 5.7-1.6 1.7-3.9 2.7-6.3 2.7-4.7 0-8.5-3.8-8.5-8.5 0-.8.5-3 .8-4.3l-3.9-1c-.2.6-.9 3.8-.9 5.3 0 6.9 5.6 12.5 12.5 12.5 3.4 0 6.8-1.4 9.2-3.9 2.3-2.4 3.5-5.5 3.3-8.7-.2-5.7-3.8-7.8-6.5-9.3-1-.6-2-1.2-2.5-1.8-.4-.5-1.5-1.9-1.5-2.7V139.7c0-.5.4-1 .9-1l12.7-1.1c1.1-.1 2-1.2 1.7-2.5zM254 33v11.3c0 .5-.4 1-.9 1l-12.6 1.1c-1 .1-1.9.9-1.9 2 0 1.2 1 2.1 2.2 2l15.4-1.4c1-.1 1.8-1 1.8-2V33h-4z"/><path d="M269.5 22h-27c-1.7 0-3 1.3-3 3v7c0 1.7 1.3 3 3 3h27c1.7 0 3-1.3 3-3v-7c0-1.7-1.3-3-3-3zm0 456h-27c-1.7 0-3-1.3-3-3v-5h33v5c0 1.7-1.3 3-3 3z" fill="#826049"/></svg>