<svg version="1.1" xmlns="http://www.w3.org/2000/svg" x="0" y="0" viewBox="0 0 512 512" xml:space="preserve"><path d="M420 103.5c9 6.6 20 10.5 32 10.5v284c-12 0-23 3.9-32 10.5v-305zM398 60H114c0 12-3.9 23-10.5 32h305c-6.6-9-10.5-20-10.5-32zM60 398c12 0 23 3.9 32 10.5v-305c-9 6.6-20 10.5-32 10.5v284zm54 54h284c0-12 3.9-23 10.5-32h-305c6.6 9 10.5 20 10.5 32z" fill="#36434f"/><path d="M60 32c15.4 0 28 12.6 28 28S75.4 88 60 88 32 75.4 32 60s12.6-28 28-28m0-32C26.9 0 0 26.9 0 60s26.9 60 60 60 60-26.9 60-60S93.1 0 60 0zm392 424c15.4 0 28 12.6 28 28s-12.6 28-28 28-28-12.6-28-28 12.6-28 28-28m0-32c-33.1 0-60 26.9-60 60s26.9 60 60 60 60-26.9 60-60-26.9-60-60-60zM60 424c15.4 0 28 12.6 28 28s-12.6 28-28 28-28-12.6-28-28 12.6-28 28-28m0-32c-33.1 0-60 26.9-60 60s26.9 60 60 60 60-26.9 60-60-26.9-60-60-60zM452 32c15.4 0 28 12.6 28 28s-12.6 28-28 28-28-12.6-28-28 12.6-28 28-28m0-32c-33.1 0-60 26.9-60 60s26.9 60 60 60 60-26.9 60-60-26.9-60-60-60z" fill="#cc584c"/></svg>