<svg version="1.1" xmlns="http://www.w3.org/2000/svg" x="0" y="0" viewBox="0 0 512 512" xml:space="preserve"><path d="M304.7 88.3l59.9 28.8c-2.3 4.8-3.9 10-4.7 15.5l-64.3-30.9c3.6-3.9 6.7-8.4 9.1-13.4zm104.4 106.1l15.9 69.5c4.6-2.7 9.7-4.7 15.1-5.9l-14.8-64.8c-3.9.9-7.9 1.4-12 1.4-1.5 0-2.9-.1-4.2-.2zM407.3 341l-44.5 55.7c5.1 2 9.8 4.7 14 8.1l41.4-52c-4.1-3.3-7.8-7.3-10.9-11.8zM152.2 132.6l64.3-30.9c-3.7-3.9-6.8-8.4-9.1-13.4l-59.9 28.8c2.3 4.9 3.9 10.1 4.7 15.5zm68.2 298.5c1.6 5.1 2.4 10.4 2.4 16h66.5c0-5.6.8-10.9 2.4-16h-71.3zm-71.3-34.3L104.7 341c-3.1 4.5-6.8 8.5-11 11.9l41.4 52c4.2-3.4 8.9-6.1 14-8.1zM87.1 264l15.9-69.5c-1.4.1-2.7.2-4.1.2-4.1 0-8.1-.5-12-1.4L72 258c5.4 1.3 10.4 3.3 15.1 6z" fill="#36434f"/><path d="M343.2 403.1c24.3 0 44 19.7 44 44s-19.7 44-44 44-44-19.7-44-44 19.8-44 44-44m0-16c-33.1 0-60 26.9-60 60s26.9 60 60 60 60-26.9 60-60-26.8-60-60-60zM452 266.7c24.3 0 44 19.7 44 44s-19.7 44-44 44-44-19.7-44-44 19.7-44 44-44m0-16c-33.1 0-60 26.9-60 60s26.9 60 60 60 60-26.9 60-60-26.9-60-60-60zm-392 16c24.3 0 44 19.7 44 44s-19.7 44-44 44-44-19.7-44-44 19.7-44 44-44m0-16c-33.1 0-60 26.9-60 60s26.9 60 60 60 60-26.9 60-60-26.9-60-60-60zM413.2 96.6c24.3 0 44 19.7 44 44s-19.7 44-44 44-44-19.7-44-44 19.7-44 44-44m0-16c-33.1 0-60 26.9-60 60s26.9 60 60 60 60-26.9 60-60-26.9-60-60-60zM256 20.9c24.3 0 44 19.7 44 44s-19.7 44-44 44-44-19.7-44-44 19.7-44 44-44m0-16c-33.1 0-60 26.9-60 60s26.9 60 60 60 60-26.9 60-60-26.9-60-60-60zm-87.2 398.2c24.3 0 44 19.7 44 44s-19.7 44-44 44-44-19.7-44-44 19.7-44 44-44m0-16c-33.1 0-60 26.9-60 60s26.9 60 60 60 60-26.9 60-60-26.9-60-60-60zm-70-290.5c24.3 0 44 19.7 44 44s-19.7 44-44 44-44-19.7-44-44 19.8-44 44-44m0-16c-33.1 0-60 26.9-60 60s26.9 60 60 60 60-26.9 60-60-26.8-60-60-60z" fill="#4caf50"/></svg>