<svg version="1.1" xmlns="http://www.w3.org/2000/svg" x="0" y="0" viewBox="0 0 512 512" xml:space="preserve"><path d="M0 0h512v512H0V0z" fill="#2e86b7"/><path d="M320.1 471l-54.9-28.1h-18.4L191.9 471c-2.6 1.3-4.3 4-4.3 7v4.4c0 2.2 1.8 4 4 4h8.6c2.2 0 4.2-.4 6.2-1.3l40.1-17.2c2-.8 4.1-1.3 6.2-1.3h6.6c2.2 0 4.2.5 6.2 1.3l40.1 17.2c2 .8 4 1.3 6.2 1.3h8.6c2.2 0 4-1.8 4-4V478c0-2.9-1.6-5.6-4.3-7z" fill="#36434f"/><path fill="#ddd" d="M215 50.8h81.9v387H215z"/><path d="M294.3 28.3V393c0 21.4-17.5 39.3-38.9 38.9-20.8-.4-37.6-17.4-37.6-38.3V28.3c0-1.5-1.2-2.7-2.7-2.7h-21.6c-1.5 0-2.7 1.2-2.7 2.7v364.6c0 36 28.8 65.8 64.8 66.1 36.3.3 65.7-29.1 65.7-65.3V28.3c0-1.5-1.2-2.7-2.7-2.7H297c-1.6 0-2.7 1.2-2.7 2.7z" fill="#f4f4f4"/><path d="M301.5 288.4V393c0 25.5-20.4 46.2-45.5 46.2h-.8c-24.7-.4-44.6-20.8-44.6-45.4V288.4H198v104.5c0 32.2 25.8 58.6 57.6 58.9h.4c32 0 58.1-26 58.1-58V288.4h-12.6z" fill="#cc584c"/><path d="M245.6 388.3h20.7v3.6h-20.7v-3.6zm0-13.5h20.7v-3.6h-20.7v3.6zm0-17.1h20.7v-3.6h-20.7v3.6zm0-51.3h20.7v-3.6h-20.7v3.6zm0-17.1h20.7v-3.6h-20.7v3.6zm0-17.1h20.7v-3.6h-20.7v3.6zm0-51.3h20.7v-3.6h-20.7v3.6zm0-17.1h20.7v-3.6h-20.7v3.6zm0-17.1h20.7v-3.6h-20.7v3.6zm0-51.3h20.7v-3.6h-20.7v3.6zm0-17.1h20.7v-3.6h-20.7v3.6zm0-17.1h20.7v-3.6h-20.7v3.6zm20.8-37.8h-37.8V67h54.9v-3.6h-17.1zm-20.8 342h-17.1v3.6h54.9v-3.6h-37.8zm0-85.5h-17.1v3.6h54.9v-3.6h-37.8zm0-85.5h-17.1v3.6h54.9v-3.6h-37.8zm0-85.5h-17.1v3.6h54.9v-3.6h-37.8zm18.9 191.7h1.8V337h-20.7v3.6h18.9zm0-85.5h1.8v-3.6h-20.7v3.6h18.9zm0-85.5h1.8V166h-20.7v3.6h18.9zm0-85.5h1.8v-3.6h-20.7v3.6h18.9z" fill="#999"/><path d="M217.7 50.8V28.3c0-1.5-1.2-2.7-2.7-2.7h-21.6c-1.5 0-2.7 1.2-2.7 2.7v364.6c0 26.1 15.2 49 37.4 59.7L191.9 471c-2.6 1.4-4.3 4.1-4.3 7v4.4c0 2.2 1.8 4 4 4h8.6c2.2 0 4.2-.4 6.2-1.3l40.1-17.2c2-.8 4.1-1.3 6.2-1.3h3.3V50.8h-38.3z" opacity=".15" fill="#444"/></svg>