<svg version="1.1" xmlns="http://www.w3.org/2000/svg" x="0" y="0" viewBox="0 0 512 512" xml:space="preserve"><path fill="#2e86b7" d="M0 0h512.1v512.1H0z"/><path d="M216.7 56.6V457c0 16.2 17.6 29.3 39.3 29.3s39.3-13 39.3-29.3V56.7l-78.6-.1z" fill="#f4f4f4"/><path fill="#e0ac7e" d="M287 84.1l10.1-58.5h-82.2l10 58.5z"/><path d="M216.7 56.6V457c0 16.2 17.6 29.3 39.3 29.3s39.3-13 39.3-29.3V56.7l-78.6-.1z" opacity=".5" fill="#f4f4f4"/><path d="M226.8 454.5c0 12.1 13.1 21.8 29.3 21.8s29.3-9.8 29.3-21.8V156.4h-58.5v298.1z" fill="#2e86b7"/><path d="M270.6 111.5c-4.1 0-7.3 3.3-7.3 7.3v255.1c0 4.1 3.3 7.3 7.3 7.3s7.3-3.3 7.3-7.3V118.8c.1-4-3.3-7.3-7.3-7.3zm0 295.3c-4.1 0-7.3 3.3-7.3 7.3v36.5c0 4.1 3.3 7.3 7.3 7.3s7.3-3.3 7.3-7.3v-36.5c.1-3.9-3.3-7.3-7.3-7.3z" opacity=".5" fill="#f4f4f4"/><path d="M214.9 25.6l5.3 31h-3.5V457c0 16.2 17.6 29.3 39.3 29.3V25.6h-41.1z" opacity=".15" fill="#444"/></svg>