<svg version="1.1" xmlns="http://www.w3.org/2000/svg" x="0" y="0" viewBox="0 0 512 512" xml:space="preserve"><path d="M0 0h512v512H0V0z" fill="#2e86b7"/><path d="M372.6 25.6H126.8c-9.6 0-18.2 6.1-21.3 15.2L99 60c-1 2.9.5 5.9 3.4 6.8l14.5 4.1c11.9 4 19.9 14.9 19.9 27.5v344.8c0 23.8 19.3 43.2 43.2 43.2h149.4c23.9 0 43.2-19.4 43.2-43.2V61.4c0-6.8 2.4-13.5 6.9-18.7l7-8.2c3-3.5.5-8.9-4-8.9h-9.9z" fill="#f4f4f4"/><path d="M151.2 166.9v276.3c0 15.8 13 28.8 28.8 28.8h149.4c15.8 0 28.8-13 28.8-28.8V166.9h-207z" fill="#cc584c"/><path d="M333.9 92.7v251.1c0 4-3.2 7.2-7.2 7.2s-7.2-3.2-7.2-7.2V92.7c0-4 3.2-7.2 7.2-7.2s7.2 3.2 7.2 7.2zm-7.2 283.4c-4 0-7.2 3.2-7.2 7.2v36c0 4 3.2 7.2 7.2 7.2s7.2-3.2 7.2-7.2v-36c0-3.9-3.2-7.2-7.2-7.2z" opacity=".5" fill="#f4f4f4"/><path d="M235.8 163.3h18.9v3.6h-18.9v-3.6zm0-17.1h18.9v3.6h-18.9v-3.6zm0-17.1h18.9v3.6h-18.9v-3.6zm0-17.1h37.8v3.6h-37.8V112z" fill="#999"/><path d="M235.8 454h37.8v3.6h-37.8V454zm0-85.5h37.8v3.6h-37.8v-3.6zm0-85.5h37.8v3.6h-37.8V283zm0-85.5h37.8v3.6h-37.8v-3.6zm0 239.4h18.9v3.6h-18.9v-3.6zm0-17.1h18.9v3.6h-18.9v-3.6zm0-17.1h18.9v3.6h-18.9v-3.6zm0-17.1h18.9v3.6h-18.9v-3.6zm0-34.2h18.9v3.6h-18.9v-3.6zm0-17.1h18.9v3.6h-18.9v-3.6zm0-17.1h18.9v3.6h-18.9v-3.6zm0-17.1h18.9v3.6h-18.9v-3.6zm0-34.2h18.9v3.6h-18.9v-3.6zm0-17.1h18.9v3.6h-18.9v-3.6zm0-17.1h18.9v3.6h-18.9v-3.6zm0-17.1h18.9v3.6h-18.9v-3.6zm0-34.2h18.9v3.6h-18.9v-3.6z" fill="#f4f4f4"/><path d="M136.8 25.6h-10c-9.6 0-18.2 6.1-21.3 15.2L99 60c-1 2.9.5 5.9 3.4 6.8l14.5 4.1c11.9 4 19.9 14.9 19.9 27.5v344.8c0 23.8 19.3 43.2 43.2 43.2h74.7V25.6H136.8z" opacity=".15" fill="#444"/></svg>