<svg version="1.1" xmlns="http://www.w3.org/2000/svg" x="0" y="0" viewBox="0 0 512 512" xml:space="preserve"><style type="text/css">.st1{fill:#f4f4f4}</style><path fill="#2e86b7" d="M0 0h512.1v512.1H0z"/><ellipse class="st1" cx="256" cy="63.4" rx="38.7" ry="7.2"/><path class="st1" d="M256 70.6c-21.3 0-38.7-3.2-38.7-7.2v394.2c0 15.9 17.4 28.8 38.7 28.8s38.7-12.9 38.7-28.8V63.4c0 3.9-17.4 7.2-38.7 7.2z"/><path d="M256 32.8h-40.5l9.9 57.6c0 2.5 13.7 4.5 30.6 4.5s30.6-2 30.6-4.5l9.9-57.6H256z" fill="#e0ac7e"/><path d="M256 70.6c-21.3 0-38.7-3.2-38.7-7.2v394.2c0 15.9 17.4 28.8 38.7 28.8s38.7-12.9 38.7-28.8V63.4c0 3.9-17.4 7.2-38.7 7.2z" opacity=".5" fill="#f4f4f4"/><path d="M256 156.1c-15.9 0-28.8 2.4-28.8 5.4V455c0 11.9 12.9 21.4 28.8 21.4s28.8-9.6 28.8-21.4V161.5c0-3-12.9-5.4-28.8-5.4z" fill="#cc584c"/><ellipse cx="256" cy="32.8" rx="40.5" ry="7.2" fill="#c19472"/><path d="M270.4 117.4c-4 0-7.2 3.2-7.2 7.2v251.1c0 4 3.2 7.2 7.2 7.2s7.2-3.2 7.2-7.2V124.6c0-4-3.2-7.2-7.2-7.2zm0 290.7c-4 0-7.2 3.2-7.2 7.2v36c0 4 3.2 7.2 7.2 7.2s7.2-3.2 7.2-7.2v-36c0-4-3.2-7.2-7.2-7.2z" opacity=".5" fill="#f4f4f4"/><path d="M215.5 32.8c0 .2 0 .3.1.5l4.7 27.5c-1.9.8-3 1.8-3 2.8v394.2c0 15.9 17.4 28.8 38.7 28.8v-461c-22.4 0-40.5 3.2-40.5 7.2z" opacity=".15" fill="#444"/></svg>