<svg version="1.1" xmlns="http://www.w3.org/2000/svg" x="0" y="0" viewBox="0 0 512 512" xml:space="preserve"><style type="text/css">.st1{fill:#36434f}.st2{fill:#4292be}</style><circle cx="256" cy="256" r="50" fill="#cc584c"/><path class="st1" d="M256 16c32.4 0 63.8 6.3 93.4 18.9C378 47 403.6 64.3 425.7 86.3c22 22 39.4 47.7 51.4 76.3 12.5 29.6 18.9 61 18.9 93.4s-6.3 63.8-18.9 93.4c-12.1 28.6-29.4 54.2-51.4 76.3-22 22-47.7 39.4-76.3 51.4-29.6 12.5-61 18.9-93.4 18.9s-63.8-6.3-93.4-18.9c-28.6-12.1-54.2-29.4-76.3-51.4-22-22-39.4-47.7-51.4-76.3C22.3 319.8 16 288.4 16 256s6.3-63.8 18.9-93.4C47 134 64.3 108.4 86.3 86.3c22-22 47.7-39.4 76.3-51.4C192.2 22.3 223.6 16 256 16m0-16C114.6 0 0 114.6 0 256s114.6 256 256 256 256-114.6 256-256S397.4 0 256 0z"/><circle class="st2" cx="83" cy="75" r="40"/><path class="st1" d="M256 116c37.4 0 72.6 14.6 99 41 26.4 26.4 41 61.6 41 99s-14.6 72.6-41 99c-26.4 26.4-61.6 41-99 41s-72.6-14.6-99-41c-26.4-26.4-41-61.6-41-99s14.6-72.6 41-99 61.6-41 99-41m0-16c-86.2 0-156 69.8-156 156s69.8 156 156 156 156-69.8 156-156-69.8-156-156-156z"/><circle class="st2" cx="151.3" cy="360.7" r="40"/><circle class="st2" cx="360.7" cy="151.3" r="40"/></svg>