<svg version="1.1" id="icon" xmlns="http://www.w3.org/2000/svg" x="0" y="0" viewBox="0 0 512 512" style="enable-background:new 0 0 512 512" xml:space="preserve"><style type="text/css">.st6{fill:#f8f8f8}.st7{fill:#999}</style><path d="M0 0h512v512H0V0z" style="fill:#2e86b7"/><path d="m392.59 409.71-99.9-278.04a163.756 163.756 0 0 1-9.65-55.41V46.3h-54.08v29.96c0 18.89-3.27 37.63-9.65 55.41l-99.9 278.04c-13.42 37.34 14.26 76.69 53.94 76.69h165.32c39.67 0 67.34-39.35 53.92-76.69z" style="fill:#f4f4f4"/><path style="fill:#c4c4c4" d="M228.96 37.3h54.08v9.9h-54.08z"/><path d="M285.75 40h-59.5c-2.21 0-4-1.79-4-4v-6.4c0-2.21 1.79-4 4-4h59.5c2.21 0 4 1.79 4 4V36c0 2.21-1.79 4-4 4z" style="fill:#dadada"/><path d="M316.5 227.2h-121l-66.78 185.85c-5.29 14.72-3.16 30.51 5.84 43.31s23.14 20.14 38.78 20.14h165.32c15.65 0 29.78-7.34 38.78-20.14s11.13-28.58 5.84-43.31L316.5 227.2z" style="fill:#cc584c"/><path d="M350.8 404.07c-2.95 0-5.72-1.83-6.78-4.77l-10.77-29.98c-1.34-3.74.6-7.87 4.34-9.21 3.74-1.35 7.87.6 9.21 4.34l10.77 29.98c1.34 3.74-.6 7.87-4.34 9.21-.8.29-1.63.43-2.43.43zm-24.04-66.89c-2.95 0-5.72-1.83-6.78-4.77l-48.14-133.98c-1.34-3.74.6-7.87 4.34-9.21 3.74-1.34 7.86.6 9.21 4.34l48.14 133.98c1.34 3.74-.6 7.87-4.34 9.21-.8.29-1.62.43-2.43.43z" style="opacity:.5;fill:#fff;enable-background:new"/><path class="st6" d="M237.1 435.55h37.8v3.6h-37.8zm0-85.5h37.8v3.6h-37.8zm0-85.5h37.8v3.6h-37.8z"/><path class="st7" d="M237.1 179.05h37.8v3.6h-37.8z"/><path class="st6" d="M237.1 418.45H256v3.6h-18.9zm0-17.1H256v3.6h-18.9zm0-17.1H256v3.6h-18.9zm0-17.1H256v3.6h-18.9zm0-34.2H256v3.6h-18.9zm0-17.1H256v3.6h-18.9zm0-17.1H256v3.6h-18.9zm0-17.1H256v3.6h-18.9zm0-34.2H256v3.6h-18.9zm0-17.1H256v3.6h-18.9z"/><path class="st7" d="M237.1 213.25H256v3.6h-18.9zm0-17.1H256v3.6h-18.9z"/><path d="M222.25 29.2v7.2c0 1.99 1.61 3.6 3.6 3.6h3.11v36.26c0 18.89-3.27 37.63-9.65 55.41l-99.9 278.04c-13.42 37.34 14.26 76.69 53.94 76.69h82.66V25.6h-30.15a3.6 3.6 0 0 0-3.61 3.6z" style="opacity:.15;fill:#444"/></svg>