<svg version="1.1" xmlns="http://www.w3.org/2000/svg" x="0" y="0" viewBox="0 0 512 512" xml:space="preserve"><style type="text/css">.st5{opacity:.15;fill:#444;enable-background:new}</style><path d="M0 0h512v512H0V0z" fill="#2e86b7"/><path d="M323.8 467.5h-5.4c-2.2 0-4.1-1.4-5-3.3l-7.7-18.3V25.6h-130c-5.2 0-7.4 6.7-3.1 9.8l20.5 14.9c7.5 5.4 11.9 14.1 11.9 23.3v372.2l-7.7 18.3c-.8 2-2.8 3.3-5 3.3H187c-3 0-5.4 2.4-5.4 5.4v8.1c0 3 2.4 5.4 5.4 5.4h136.8c3 0 5.4-2.4 5.4-5.4v-8.1c0-2.9-2.5-5.3-5.4-5.3z" fill="#f4f4f4"/><path d="M219.4 166.9v250.2c0 7.9 6.5 14.4 14.4 14.4H277c7.9 0 14.4-6.5 14.4-14.4V166.9h-72z" fill="#cc584c"/><path d="M236.5 413.5h37.8v3.6h-37.8v-3.6zm0-85.5h37.8v3.6h-37.8V328zm0-85.5h37.8v3.6h-37.8v-3.6zm0 153.9h18.9v3.6h-18.9v-3.6zm0-17.1h18.9v3.6h-18.9v-3.6zm0-17.1h18.9v3.6h-18.9v-3.6zm0-17.1h18.9v3.6h-18.9v-3.6zm0-34.2h18.9v3.6h-18.9v-3.6zm0-17.1h18.9v3.6h-18.9v-3.6zm0-17.1h18.9v3.6h-18.9v-3.6zm0-17.1h18.9v3.6h-18.9v-3.6zm0-34.2h18.9v3.6h-18.9v-3.6zm0-17.1h18.9v3.6h-18.9v-3.6zm0-17.1h18.9v3.6h-18.9v-3.6zm0-17.1h18.9v3.6h-18.9v-3.6z" fill="#f4f4f4"/><path d="M236.5 157h37.8v3.6h-37.8V157zm0-17.1h18.9v3.6h-18.9v-3.6zm0-17.1h18.9v3.6h-18.9v-3.6zm0-17.1h18.9v3.6h-18.9v-3.6zm0-17.1h18.9v3.6h-18.9v-3.6zm0-17.1h37.8v3.6h-37.8v-3.6z" fill="#999"/><path class="st5" d="M329.2 481v-8.1c0-3-2.4-5.4-5.4-5.4h-5.4c-2.2 0-4.1-1.4-5-3.3l-7.2-17.4H204.6l-7.2 17.4c-.8 2-2.8 3.3-5 3.3H187c-3 0-5.4 2.4-5.4 5.4v8.1c0 3 2.4 5.4 5.4 5.4h136.8c2.9 0 5.4-2.4 5.4-5.4z"/><path class="st5" d="M329.2 481v-8.1c0-3-2.4-5.4-5.4-5.4H187c-3 0-5.4 2.4-5.4 5.4v8.1c0 3 2.4 5.4 5.4 5.4h136.8c2.9 0 5.4-2.4 5.4-5.4z"/><path class="st5" d="M205 25.6h-29.3c-5.2 0-7.4 6.7-3.1 9.8l20.5 14.9c7.5 5.4 11.9 14.1 11.9 23.3v372.2l-7.7 18.3c-.8 2-2.8 3.3-5 3.3H187c-3 0-5.4 2.4-5.4 5.4v8.1c0 3 2.4 5.4 5.4 5.4h68.4V25.6H205z"/></svg>