<svg version="1.1" xmlns="http://www.w3.org/2000/svg" x="0" y="0" viewBox="0 0 512 512" xml:space="preserve"><style type="text/css">.st0{fill:#2e86b7}.st1{fill:#cc584c}</style><path class="st0" d="M362 106v16c35.8 0 69.4 13.9 94.8 39.2 25.3 25.3 39.2 59 39.2 94.8s-13.9 69.4-39.2 94.8c-25.3 25.3-59 39.2-94.8 39.2v16c82.8 0 150-67.2 150-150s-67.2-150-150-150z"/><path class="st1" d="M246 106h16v16h-16v-16zm0 284h16v16h-16v-16zm-56-142h80v16h-80v-16zm96 0h16v16h-16v-16zm-116-70h80v16h-80v-16zm96 0h16v16h-16v-16zm-96 140h80v16h-80v-16zm96 0h16v16h-16v-16z"/><path class="st1" d="M150 178v-56h80v-16h-80C67.2 106 0 173.2 0 256s67.2 150 150 150h80v-16h-80v-56H85v-16h65v-54h-40v-16h40v-54H85v-16h65z"/><path class="st0" d="M330 390h16v16h-16v-16zm30-142h80v16h-80v-16zm96 0h16v16h-16v-16zm-116-70h80v16h-80v-16zm96 0h16v16h-16v-16zm-96 140h80v16h-80v-16zm96 0h16v16h-16v-16zM330 106h16v16h-16v-16z"/></svg>