<svg version="1.1" xmlns="http://www.w3.org/2000/svg" x="0" y="0" viewBox="0 0 512 512" xml:space="preserve"><path d="M133 131l76.2-44c5.7 9.9 14.5 17.8 25.1 22.5L139.9 164c.2-2 .3-3.9.3-6 .1-9.8-2.6-19.1-7.2-27zm-14.7 179.5v-109c-9 6.6-20 10.5-32 10.5v88c11.9 0 23 3.9 32 10.5zM302.8 87c-5.7 9.9-14.5 17.8-25.1 22.5l94.4 54.5c-.2-2-.3-3.9-.3-6 0-9.8 2.6-19.1 7.2-27l-76.2-44zm90.9 114.5v109c9-6.6 20-10.5 32-10.5v-88c-11.9 0-23-3.9-32-10.5zM209.2 425c5.7-9.9 14.5-17.8 25.1-22.5L139.9 348c.2 2 .3 3.9.3 6 0 9.8-2.6 19.1-7.2 27l76.2 44zm162.5-71c0-2 .1-4 .3-6l-94.4 54.5c10.6 4.6 19.4 12.6 25.1 22.5l76.2-44c-4.5-7.9-7.2-17.2-7.2-27z" fill="#36434f"/><path d="M86.3 130c15.4 0 28 12.6 28 28s-12.6 28-28 28-28-12.6-28-28 12.5-28 28-28m0-32c-33.1 0-60 26.9-60 60s26.9 60 60 60 60-26.9 60-60-26.9-60-60-60zm339.4 228c15.4 0 28 12.6 28 28s-12.6 28-28 28-28-12.6-28-28 12.6-28 28-28m0-32c-33.1 0-60 26.9-60 60s26.9 60 60 60 60-26.9 60-60-26.8-60-60-60zM86.3 326c15.4 0 28 12.6 28 28s-12.6 28-28 28-28-12.6-28-28 12.5-28 28-28m0-32c-33.1 0-60 26.9-60 60s26.9 60 60 60 60-26.9 60-60-26.9-60-60-60zm339.4-164c15.4 0 28 12.6 28 28s-12.6 28-28 28-28-12.6-28-28 12.6-28 28-28m0-32c-33.1 0-60 26.9-60 60s26.9 60 60 60 60-26.9 60-60-26.8-60-60-60zM256 32c15.4 0 28 12.6 28 28s-12.6 28-28 28-28-12.6-28-28 12.6-28 28-28m0-32c-33.1 0-60 26.9-60 60s26.9 60 60 60 60-26.9 60-60-26.9-60-60-60zm0 424c15.4 0 28 12.6 28 28s-12.6 28-28 28-28-12.6-28-28 12.6-28 28-28m0-32c-33.1 0-60 26.9-60 60s26.9 60 60 60 60-26.9 60-60-26.9-60-60-60z" fill="#2e86b7"/></svg>