<svg version="1.1" xmlns="http://www.w3.org/2000/svg" x="0" y="0" viewBox="0 0 512 512" xml:space="preserve"><path d="M306.8 81.5l26.4 9.6c-1.8 5-2.9 10.3-3.2 15.9l-31-11.3c3.2-4.3 5.9-9.1 7.8-14.2zm105.6 109.3c3.7-4 7.9-7.4 12.6-10.1l-14.1-24.4c-4.6 2.7-9.7 4.7-15.1 5.9l16.6 28.6zM90.4 308l-5.7-32.5c-4.7 2.4-9.9 4.2-15.3 5.2l4.9 27.7c3-.5 6.2-.8 9.4-.8 2.2-.1 4.5.1 6.7.4zm9.2-117.2l16.5-28.6c-5.4-1.2-10.4-3.2-15.1-5.9l-14 24.4c4.7 2.7 9 6.1 12.6 10.1zm82.4-83.9l31-11.3c-3.3-4.3-5.9-9.1-7.8-14.2L178.8 91c1.8 5.1 2.9 10.4 3.2 15.9zm-23.3 296.7l-25.3-21.2c-2.1 5-5 9.7-8.4 13.8l21.6 18.1c3.5-4.1 7.5-7.7 12.1-10.7zm268.6-128.2l-5.7 32.5c2.2-.3 4.5-.4 6.8-.4 3.2 0 6.3.3 9.4.8l4.9-27.7c-5.5-.9-10.7-2.7-15.4-5.2zm-48.7 107l-25.3 21.2c4.6 2.9 8.7 6.6 12.1 10.7l21.6-18.1c-3.5-4.1-6.3-8.7-8.4-13.8zM270.1 449c0-5.6.8-10.9 2.4-16h-33c1.6 5.1 2.4 10.4 2.4 16h28.2z" fill="#36434f"/><path d="M324.1 405c24.3 0 44 19.7 44 44s-19.7 44-44 44-44-19.7-44-44 19.7-44 44-44m0-16c-33.1 0-60 26.9-60 60s26.9 60 60 60 60-26.9 60-60-26.9-60-60-60zm104.3-71.5c24.3 0 44 19.7 44 44s-19.7 44-44 44-44-19.7-44-44 19.7-44 44-44m0-16c-33.1 0-60 26.9-60 60s26.9 60 60 60 60-26.9 60-60-26.9-60-60-60zm-300.3-236c24.3 0 44 19.7 44 44s-19.7 44-44 44-44-19.7-44-44 19.7-44 44-44m0-16c-33.1 0-60 26.9-60 60s26.9 60 60 60 60-26.9 60-60-26.9-60-60-60zM452 183.4c24.3 0 44 19.7 44 44s-19.7 44-44 44-44-19.7-44-44 19.7-44 44-44m0-16c-33.1 0-60 26.9-60 60s26.9 60 60 60 60-26.9 60-60-26.9-60-60-60zM383.9 65.5c24.3 0 44 19.7 44 44s-19.7 44-44 44-44-19.7-44-44 19.8-44 44-44m0-16c-33.1 0-60 26.9-60 60s26.9 60 60 60 60-26.9 60-60-26.8-60-60-60zM187.9 405c24.3 0 44 19.7 44 44s-19.7 44-44 44-44-19.7-44-44 19.8-44 44-44m0-16c-33.1 0-60 26.9-60 60s26.9 60 60 60 60-26.9 60-60-26.8-60-60-60zM256 19c24.3 0 44 19.7 44 44s-19.7 44-44 44-44-19.7-44-44 19.7-44 44-44m0-16c-33.1 0-60 26.9-60 60s26.9 60 60 60 60-26.9 60-60c0-33.2-26.9-60-60-60zM60 183.4c24.3 0 44 19.7 44 44s-19.7 44-44 44-44-19.7-44-44 19.7-44 44-44m0-16c-33.1 0-60 26.9-60 60s26.9 60 60 60 60-26.9 60-60-26.9-60-60-60zm23.6 150.1c24.3 0 44 19.7 44 44s-19.7 44-44 44-44-19.7-44-44 19.8-44 44-44m0-16c-33.1 0-60 26.9-60 60s26.9 60 60 60 60-26.9 60-60-26.8-60-60-60z" fill="#4caf50"/></svg>