<svg version="1.1" xmlns="http://www.w3.org/2000/svg" x="0" y="0" viewBox="0 0 512 512" xml:space="preserve"><path d="M87 371.2l142-246c4.6 2.7 9.7 4.7 15.1 5.9L99.6 381.3c-3.6-3.9-7.9-7.3-12.6-10.1zm196-245.9c-4.6 2.7-9.7 4.7-15.1 5.9l144.4 250.2c3.7-4 7.9-7.4 12.6-10.1L283 125.3zM114 418h284c0-5.6.8-10.9 2.4-16H111.6c1.6 5.1 2.4 10.4 2.4 16z" fill="#ddd"/><path d="M256 34.5c24.3 0 44 19.7 44 44s-19.7 44-44 44-44-19.7-44-44 19.7-44 44-44m0-16c-33.1 0-60 26.9-60 60s26.9 60 60 60 60-26.9 60-60-26.9-60-60-60zM452 374c24.3 0 44 19.7 44 44s-19.7 44-44 44-44-19.7-44-44 19.7-44 44-44m0-16c-33.1 0-60 26.9-60 60s26.9 60 60 60 60-26.9 60-60-26.9-60-60-60zM60 374c24.3 0 44 19.7 44 44s-19.7 44-44 44-44-19.7-44-44 19.7-44 44-44m0-16c-33.1 0-60 26.9-60 60s26.9 60 60 60 60-26.9 60-60-26.9-60-60-60z" fill="#2e86b7"/></svg>