<svg version="1.1" xmlns="http://www.w3.org/2000/svg" x="0" y="0" viewBox="0 0 512 512" xml:space="preserve"><path fill="#2e86b7" d="M0 0h512.1v512.1H0z"/><ellipse cx="255" cy="32.3" rx="41.5" ry="7.7" fill="#e5e5e5"/><path d="M255 40c-22.9 0-41.5-3.5-41.5-7.7v422.3c0 17.1 18.6 30.9 41.5 30.9s41.5-13.8 41.5-30.9V32.3c0 4.3-18.6 7.7-41.5 7.7z" fill="#f4f4f4"/><path d="M255 131.6c-17.1 0-30.9 2.6-30.9 5.8v314.5c0 12.7 13.8 22.9 30.9 22.9s30.9-10.3 30.9-22.9V137.4c0-3.2-13.8-5.8-30.9-5.8z" fill="#4caf50"/><path d="M270.4 90.1c-4.2 0-7.7 3.5-7.7 7.7v268.9c0 4.2 3.5 7.7 7.7 7.7s7.7-3.5 7.7-7.7V97.9c0-4.3-3.4-7.8-7.7-7.8zm0 311.4c-4.2 0-7.7 3.5-7.7 7.7v38.5c0 4.2 3.5 7.7 7.7 7.7s7.7-3.5 7.7-7.7v-38.5c0-4.2-3.4-7.7-7.7-7.7z" opacity=".5" fill="#f4f4f4"/><path d="M213.5 32.3v422.3c0 17.1 18.6 30.9 41.5 30.9V24.6c-22.9 0-41.3 3.4-41.5 7.7z" opacity=".15" fill="#444"/></svg>