<svg version="1.1" xmlns="http://www.w3.org/2000/svg" x="0" y="0" viewBox="0 0 512 512" xml:space="preserve"><style type="text/css">.st0{fill:#79b1d1}.st1{opacity:.15;fill:#444;enable-background:new}</style><path class="st0" d="M388 370c-7.3 0-14.4-4.1-17.9-11.1-1.2-2.5-12.1-25.1-12.1-55.9 0-18.3 16.2-36 47.3-68.4 15.7-16.4 33.5-34.9 46.7-52.7 16.5-22.1 19.9-35 19.9-41.9 0-29.8-24.2-54-54-54-29.7 0-53.9 24.1-54 53.8 0 11-9 20.1-19.9 20.2-11.1 0-20.1-8.9-20.1-20 0-51.8 42.2-94 94-94s94 42.2 94 94c0 41.1-41.3 84.2-77.8 122.2-9.1 9.5-20.3 21.1-27.9 30.3-5.9 7.1-8.5 16.5-7.1 25.6 2.2 13.7 6.6 22.8 6.7 22.9 4.9 9.9.9 21.9-8.9 26.8-2.8 1.5-5.9 2.2-8.9 2.2zm9.8-65z"/><path class="st0" d="M423.9 470.3L344 417 415 0H54.2c-5.7 0-8.2 7.2-3.7 10.7L72.2 28c5.7 4.5 9.7 10.8 11.3 17.9L168 417l-79.9 53.3c-4.5 3-7.1 8-7.1 13.3V512h350v-28.4c0-5.4-2.7-10.4-7.1-13.3z"/><path class="st1" d="M428.5 475h-345c-1.6 2.5-2.5 5.5-2.5 8.6V512h350v-28.4c0-3.1-.9-6.1-2.5-8.6z"/><path class="st1" d="M344 417H168l-79.9 53.3c-4.5 3-7.1 8-7.1 13.3V512h350v-28.4c0-5.3-2.7-10.3-7.1-13.3L344 417z"/><path d="M126.8 164l48.3 212.1c3.3 14.6 16.3 24.9 31.2 24.9h97.2c15.6 0 28.9-11.2 31.5-26.6L370.8 164h-244z" fill="#4caf50"/><path d="M235 381h42v4h-42zm0-95h42v4h-42zm0-95h42v4h-42zm0-95h42v4h-42zm0 266h21v4h-21zm0-19h21v4h-21zm0-19h21v4h-21zm0-19h21v4h-21zm0-38h21v4h-21zm0-19h21v4h-21zm0-19h21v4h-21zm0-19h21v4h-21zm0-38h21v4h-21zm0-19h21v4h-21zm0-19h21v4h-21zm0-19h21v4h-21z" fill="#f4f4f4"/><path d="M359.9 57.6c-4.5-.6-8.5 2.5-9.2 6.9l-29.1 201.3c-.6 4.5 2.5 8.5 6.9 9.2 4.5.6 8.5-2.5 9.2-6.9l29.1-201.3c.7-4.4-2.5-8.5-6.9-9.2zm-35.6 245.6c-4.5-.6-8.5 2.5-9.2 6.9l-5.8 40.2c-.6 4.5 2.5 8.5 6.9 9.2 4.5.6 8.5-2.5 9.2-6.9l5.8-40.2c.7-4.4-2.4-8.6-6.9-9.2z" opacity=".5" fill="#f4f4f4"/></svg>