<svg version="1.1" xmlns="http://www.w3.org/2000/svg" x="0" y="0" viewBox="0 0 512 512" xml:space="preserve"><style type="text/css">.st1{fill:#ddd}.st2{fill:#4292be}</style><path d="M266.4 301c-1.2 1.3-3.1 1.4-4.8 1.6-1.9.1-3.8.2-5.6.2-27.6 0-50-22.4-50-50s22.4-50 50-50v-.1c.9 0 1.7.1 2.6.1 3 .2 7.8 0 8.3 4 .2 1.4-.5 2.9-1.6 3.7-1.6 1.2-3.2.7-4.9.4-1.5-.1-2.9-.2-4.4-.2v84.1c2.3 0 4.5-.1 6.8-.5 3.7-.6 6.1 4 3.6 6.7zm19.4-18.6c-2.8 2.8-5.9 5.2-9.4 7.1-1.5.8-2.8 1.5-3.3 3.2-.4 1.5.2 3.2 1.5 4.2 1.5 1.2 3.3.9 4.9 0 1.7-.9 3.4-2 5.1-3.1 1.6-1.1 3.1-2.3 4.5-3.5 1.3-1.1 3-2.3 3.4-4.1 1.1-3.8-3.8-6.7-6.7-3.8zm-10.9-67.1c3.5 1.8 6.8 4 9.7 6.7 1.4 1.3 2.6 2.4 4.6 2 1.6-.3 2.9-1.7 3.1-3.3.2-1.8-.7-3.1-2-4.2-1.4-1.4-3-2.6-4.5-3.8-1.6-1.2-3.3-2.3-5.1-3.3-1.4-.8-3-1.9-4.7-1.6-3.7.6-4.5 5.8-1.1 7.5zm20.8 23.7c.8 2.2 1.4 4.6 1.8 6.9.6 3.3 4.9 4.5 7 1.9 1.1-1.4.9-3 .6-4.6-.4-2-.9-4-1.6-6-.6-2-1.4-3.9-2.3-5.8-.7-1.5-1.4-3.1-3.2-3.6-3-1-6 2-5 5 .3 1 .9 2 1.4 2.9.5 1.1.9 2.2 1.3 3.3zm9.8 20.1c-.2-1.7-1.6-3.1-3.4-3.4-1.5-.2-3.1.5-3.9 1.7-.9 1.4-.9 3.4-1.3 4.9-.5 2-1.1 3.9-1.8 5.8-.6 1.6-2 3.4-2 5.2-.1 3.5 4.2 5.4 6.7 3.1 1.4-1.3 2-3.6 2.7-5.3.8-2 1.4-4 2-6.1.5-1.8 1.2-4 1-5.9z" fill="#ffa000"/><path class="st1" d="M287.2 64.6c.4 2-.7 3.3-2.1 4.5-3.3 2.6-6.5 5.4-9.7 8.2-1.5 1.3-2.8 2.7-4.9 2.4-1.6-.2-3-1.5-3.3-3.2-.3-1.5.4-2.9 1.5-3.9 1.6-1.4 3.2-2.9 4.9-4.3 1.5-1.3 3-2.6 4.6-3.9 1.5-1.2 3.1-3 5.1-3 1.8 0 3.5 1.3 3.9 3.2zm-4.6 317.8c-1.5 0-2.5.8-3.4 1.9-1.1 1.4-2.3 2.7-3.4 4-2.2 2.6-4.6 5-6.7 7.7-1.6 2.1-1 5.2 1.5 6.2 3.3 1.4 5.4-1.9 7.2-4 2.2-2.5 4.3-4.9 6.4-7.4.6-.7 1.3-1.4 1.8-2.2 1.6-2.6-.3-6.2-3.4-6.2zm-21.5 24c-2.2 0-3.7 1.9-5.1 3.4-5.5 5.6-11 10.9-16.5 15.9-33.3 30.1-64.6 46.7-88.2 46.7-7.3 0-13.8-1.6-19.3-4.8-10-5.8-16.9-16.6-20.7-32.3-3.9-16.3-4.1-36.7-.6-60.8 7.3-50.6 29.9-110.5 63.5-168.9 24.1-41.8 52.7-80.1 81.8-109.8 1.6-1.6 3.1-3.3 4.7-4.9 1.4-1.3 2.7-2.6 2.4-4.7-.1-2-1.8-3.4-3.8-3.4-1.4 0-2.4.7-3.3 1.6-30.6 30.1-61.6 70.2-88.7 117.2C96.6 324 79 446.2 128 474.5c6.9 4 14.7 5.9 23.3 5.9 29.1 0 66.6-21.9 104.7-59.2l.8-.8 6.3-6.3c1-1 2-2 2.1-3.6 0-2.2-1.9-4.1-4.1-4.1zm34.7-346.8c2 .1 3.5-1.4 5-2.4 3.5-2.4 7.1-4.6 10.6-6.9 3.2-2.1 2-7.4-2.1-7.4-2 0-3.9 1.7-5.5 2.7-1.8 1.1-3.5 2.3-5.2 3.4-1.7 1.2-3.7 2.3-5.3 3.7-1.1 1-1.6 2.6-1.1 4 .5 1.6 1.9 2.8 3.6 2.9zm26.9-16.4c2 .3 4-1.2 5.8-2 1.9-.9 3.9-1.7 5.9-2.4.9-.3 1.8-.7 2.7-1s1.9-.5 2.7-1c3.4-2 2-7.5-2-7.5-1.8 0-3.9 1.1-5.6 1.7-2 .8-4 1.6-6 2.5-2.8 1.2-7.9 2.6-6.8 6.7.4 1.6 1.7 2.8 3.3 3zm76.9 19.9c-.6 1.7.1 3.3.6 4.9.6 2.1 1 4.2 1.4 6.3v.2c2.1-.4 4.2-.7 6.4-.7.6 0 1.1 0 1.7.1-.2-1.1-.4-2.2-.7-3.3-.5-2.3-1.1-4.7-1.8-7-.6-1.7-2-3.1-3.9-3.1-1.6 0-3.1 1-3.7 2.6zm-13.2-20.4c1.5 1.4 2.9 2.9 4.1 4.6 1.3 1.7 2.3 3.6 3.6 5.4 2.3 3.3 7.6 1.4 7.3-2.6-.2-1.9-1.8-3.8-2.9-5.4-.2-.3-.4-.5-.6-.8-1-1.3-2-2.6-3-3.8-.3-.3-.6-.6-.9-1-1.6-1.7-3.5-4.2-6-4.2-1.9 0-3.6 1.4-3.9 3.3-.3 2.1.9 3.3 2.3 4.5zm-33.9-9c1.4.1 2.9-.3 4.3-.4 1.5-.1 2.9-.2 4.4-.1 3.1 0 6.2.4 9.2 1.1 2.5.6 5.4 2.3 7.7.2 1.7-1.6 1.7-4.5-.1-6-.5-.5-1.2-.7-1.8-.9-4.8-1.6-9.9-2.3-14.9-2.3-.3-.1-.5-.1-.6-.1-1.1 0-2.2 0-3.3.1-1.3.1-2.6.2-4 .3-2 .2-4 1-4.5 3.3s1.3 4.6 3.6 4.8zm28.2 182.6c-1.9 0-3.2 1.2-3.9 2.9-.9 2.2-1.8 4.5-2.7 6.7-.9 2.2-1.8 4.4-2.7 6.5-.7 1.7-1.3 3.2-.3 4.9.9 1.5 2.8 2.3 4.5 1.8 2-.6 2.6-2.3 3.4-4.1l3.9-9.6c.7-1.7 1.9-3.7 1.7-5.5-.1-2-1.8-3.6-3.9-3.6zm19.4-61.4c-1.6 0-3.1 1-3.7 2.6-.8 2-1.1 4.4-1.6 6.5-.6 2.2-1.1 4.4-1.7 6.6-.5 1.8-1.4 3.8-.5 5.6.7 1.5 2.4 2.5 4.2 2.2 1.8-.3 2.9-1.6 3.4-3.3 1.3-4.5 2.4-8.9 3.5-13.4.3-1.1.7-2.3.5-3.4-.5-1.9-2.2-3.4-4.1-3.4zm-8.6 31c-1.6 0-3.1 1-3.7 2.5-.9 2.1-1.4 4.4-2.1 6.5-.7 2.2-1.5 4.5-2.3 6.7-.6 1.7-1.5 3.5-.6 5.3.7 1.6 2.4 2.5 4.2 2.2 1.9-.3 2.9-1.7 3.5-3.4 1.6-4.4 3.1-8.9 4.5-13.3.3-1 .7-2.1.6-3.2-.5-1.8-2.2-3.3-4.1-3.3zM401 133c-.3 1.7-.6 3.5-.8 5.2l-.6 3.3c-.2.9-.4 1.8-.1 2.7.8 3.3 5.3 4.1 7.2 1.2.5-.8.6-1.6.8-2.5.2-1.2.4-2.3.6-3.5.3-1.8.6-3.8.9-5.6h-1c-2.4 0-4.8-.3-7-.8zm-79.9 197.6c-2.1 0-3.1 1.5-4.2 3.1-1.3 1.9-2.5 3.8-3.8 5.7-1.3 1.9-2.6 3.8-3.9 5.6-1 1.4-1.6 2.9-.8 4.6.7 1.6 2.5 2.5 4.2 2.3 1.6-.2 2.5-1.4 3.4-2.6 2.2-3.2 4.4-6.4 6.5-9.6 1.1-1.7 2.9-3.5 2.6-5.7-.3-1.9-2.1-3.4-4-3.4zm17.1-27.4c-1.8 0-3 1.2-3.8 2.6-1.1 1.8-2.1 3.6-3.2 5.4s-2.2 3.6-3.3 5.3c-.9 1.4-2.1 2.8-2 4.6.1 3.2 4 5 6.5 3 1.2-1 1.9-2.6 2.7-4 1.7-2.7 3.3-5.5 5-8.2.5-.8 1-1.6 1.4-2.4 1.5-2.6.1-6.3-3.3-6.3zm29.9-57.2c-1.8 0-3.1 1.1-3.8 2.7-.9 2-1.9 4-2.8 6-.9 2-1.9 3.9-2.8 5.8-.8 1.6-1.9 3.2-1.4 5 .8 3.4 5.5 4.1 7.3 1.1 1.1-1.9 1.9-3.9 2.9-5.9.9-2 1.9-4 2.8-5.9.8-1.7 2.1-3.6 1.7-5.6-.3-1.8-2-3.2-3.9-3.2zm-65.5 111c-2 0-3.1 1.4-4.2 2.9-1.3 1.7-2.5 3.3-3.8 5-1.3 1.8-2.7 3.5-4.1 5.2-1 1.3-2 2.5-1.8 4.3.3 1.7 1.6 3.1 3.3 3.3 1.9.3 3.3-.8 4.4-2.2 2.6-3.4 5.2-6.7 7.8-10.1 1.2-1.5 2.6-3 2.2-5.1-.3-1.8-1.9-3.3-3.8-3.3zm51.3-82c-2.6 0-3.6 2.2-4.6 4.2-1.2 2.3-2.5 4.6-3.7 6.9-.6 1.1-1.3 2.3-1.9 3.4-.5.9-1.2 1.9-1.4 3-.3 1.9.8 3.8 2.6 4.5 2.1.7 4-.4 5-2.2 1.1-1.9 2.1-3.8 3.1-5.7.9-1.6 1.7-3.2 2.6-4.8.8-1.6 2.2-3.4 2.3-5.2 0-2.2-1.8-4.1-4-4.1z"/><path class="st1" d="M288.7 120.2c.8 1.2.9 2.9.2 4.2-.8 1.4-2.5 2.2-4.1 2-2-.3-3.1-2.1-4.3-3.5-2.8-3.3-5.6-6.6-8.4-9.8-1-1.2-1.6-2.6-1.1-4.1.5-1.6 2.1-2.8 3.8-2.8 2.3 0 3.6 2 5.1 3.6 1.6 1.8 3.2 3.7 4.7 5.5 1.4 1.6 2.9 3.2 4.1 4.9zm15.8 20.1c-1.4-1.9-2.9-3.8-4.3-5.7-1.4-1.6-2.5-3.6-4.9-3.6-1.7 0-3.3 1.2-3.8 2.8-.5 1.6.2 3 1.1 4.2 2.6 3.4 5.2 6.8 7.8 10.3 1.1 1.5 2.1 3.2 4.1 3.5 1.6.2 3.3-.6 4.1-2.1.7-1.4.6-2.9-.3-4.2-1.2-1.8-2.6-3.5-3.8-5.2zm55.2 107c.6 1.2 1.2 2.5 1.8 3.7 1.1 2.4 2.3 4.8 3.4 7.3.9 2 1.6 4.6 4.1 5.1 2 .4 4-.7 4.6-2.6.7-2.1-.7-4.2-1.5-6-1-2.3-2.1-4.5-3.2-6.8-.4-.8-.7-1.5-1.1-2.3-1-2.3-1.9-4.9-4.8-4.9-2.1 0-3.8 1.6-4 3.7-.1 1 .3 1.9.7 2.8zm-85.5 181.3c-3.5 0-5.3 4.3-2.8 6.8 1.5 1.5 3.2 2.8 4.8 4.2 1.1 1 2.3 1.9 3.4 2.9 1.3-2.3 2.9-4.5 4.7-6.4l-4.6-3.9c-1.5-1.4-3.2-3.6-5.5-3.6zM263 91.5l-5.1-5.1c-.6-.7-1.2-1.4-1.9-2-38.1-37.4-75.6-59.2-104.7-59.2-8.6 0-16.4 1.9-23.3 5.9C79 59.4 96.6 181.6 167.3 304c27.1 46.9 58 87.1 88.7 117.2l1.2 1.2c1.5 1.5 3 3.5 5.3 3.3 1.9-.1 3.5-1.7 3.7-3.7.2-2.2-1.6-3.5-3-4.9-2-2-4.1-4-6.1-6-.4-.4-.7-.8-1.1-1.1v-.2c-29.1-29.8-57.6-68-81.8-109.8-33.7-58.4-56.3-118.3-63.5-168.9-3.5-24.1-3.3-44.5.6-60.8C115.1 54.6 122 43.8 132 38c5.5-3.2 12-4.8 19.3-4.8 23.6 0 54.9 16.6 88.2 46.7 5.5 5 11 10.3 16.5 15.9 1 .9 1.9 2 2.9 3 1.3 1.3 2.5 3.2 4.5 3.5 1.6.2 3.3-.6 4.1-2 .7-1.3.6-3-.2-4.2-1.1-1.7-2.9-3.1-4.3-4.6zm120.8 212c-.2.9 0 1.8.3 2.6.4 1.3.9 2.6 1.3 3.9l2.4 7.2c.6 1.9.9 4.4 2.7 5.6 1.5 1 3.7.9 5-.4 1.5-1.5 1.3-3.3.7-5.2-.9-2.9-1.9-5.9-2.8-8.8-.6-1.7-1.1-3.4-1.7-5.1-.6-1.6-1.9-3-4-3-1.9 0-3.6 1.4-3.9 3.2zm16.4 62.1c-.2.9 0 1.8.1 2.8l.6 3.9c.4 2.5.7 5.1 1.1 7.6.2 2 .1 4.2 1.8 5.6 1.3 1.1 3.3 1.2 4.7.3 1.7-1.1 1.9-2.9 1.7-4.7-.3-2.8-.7-5.7-1.1-8.5-.3-2-.6-4-1-6.1-.3-2.2-1.7-4-4-4-1.8 0-3.5 1.3-3.9 3.1zm-7-31c-.1 1 .2 2 .5 3 .4 1.4.7 2.8 1.1 4.2l1.8 7.5c.5 2 .7 4.1 2.8 5 1.8.8 3.9.1 4.9-1.5 1.2-1.9.3-4.2-.2-6.3-.5-2.3-1.1-4.6-1.7-6.9-.4-1.7-.9-3.4-1.3-5.2-.4-1.7-1.8-3.3-3.9-3.3-2 0-3.7 1.5-4 3.5zm2.1 119.9c-2.7 0-3.9 2.7-5.4 4.5-1.6 2-3.4 3.8-5.4 5.4-1.6 1.3-3.5 2.3-3.5 4.7.1 2.3 2.1 4.1 4.3 3.9 1.2-.1 2.2-.8 3.1-1.5 1.1-.8 2.1-1.7 3.1-2.6 1.9-1.7 3.6-3.6 5.2-5.6.3-.4.7-.9 1-1.3.5-.8 1.2-1.5 1.4-2.4.7-2.6-1.2-5.1-3.8-5.1zm10.6-28.7c-2.2 0-3.6 1.7-4 3.7-.5 2.7-1 5.4-1.8 8-.3 1.3-.7 2.5-1.1 3.7-.3 1.1-.9 2.2-1 3.3-.1 2 1.3 3.9 3.3 4.2 2.4.4 4-1.2 4.7-3.3l.6-1.8c1.2-3.7 2.1-7.5 2.8-11.3.1-.7.3-1.5.4-2.2.3-2.2-1.6-4.3-3.9-4.3zm-20.2-134.5c1-1.6.5-3.1-.2-4.8-.8-2-1.6-4.1-2.4-6.1-.9-2.3-1.8-4.6-2.8-6.8-.7-1.9-1.9-3.4-4-3.4-1.6 0-3.1 1-3.7 2.5-.7 1.7.1 3.3.8 4.9 1.7 4.1 3.3 8.2 4.9 12.3.6 1.6 1.5 2.9 3.2 3.2 1.6.3 3.3-.4 4.2-1.8zm26 111.1c0-1.5 0-3-.1-4.4-.3-2.1-1.9-3.7-4-3.7-1.7 0-3.3 1.2-3.8 2.8-.3.9-.1 1.9-.1 2.9 0 1.3.1 2.6.1 3.9 0 2.5 0 5-.1 7.5-.1 1.9-.5 4 1 5.5 1.2 1.2 3.1 1.6 4.7.8 1.8-.9 2.2-2.7 2.2-4.5.2-3.6.2-7.2.1-10.8zm-40 68.7c-.9 0-1.8.3-2.6.5-.9.2-1.9.3-2.8.4-2 .2-3.9.3-5.9.3-1.6 0-3.6-.5-5.1.2-1.3.5-2.2 1.7-2.4 3-.2 1.4.3 2.8 1.3 3.7 1.3 1.2 3.1 1.1 4.7 1.1h3.2c2.3-.1 4.5-.2 6.8-.6 2.4-.4 5.6-.6 6.7-3.2.8-2.5-1.1-5.4-3.9-5.4zm-48.5-304.2c-1.4-2-2.7-4.1-4.1-6.1-1.3-1.8-2.4-3.7-4.7-3.7-1.7 0-3.3 1.1-3.8 2.8-.5 1.6.2 3 1.1 4.3 2.5 3.6 4.9 7.2 7.3 10.9 1 1.5 1.9 3.1 3.9 3.4 1.6.2 3.3-.6 4.1-2 .7-1.3.6-2.8-.1-4.1-1.1-1.9-2.4-3.7-3.7-5.5zm17.1 39c1.7 0 3.3-1.1 3.8-2.7s-.1-2.9-.9-4.2c-.9-1.6-1.8-3.1-2.7-4.6-1.3-2.1-2.5-4.3-3.8-6.4-1.2-1.8-2.2-3.9-4.7-3.9-1.7 0-3.2 1.1-3.8 2.7-.6 1.8.3 3.2 1.2 4.7 2.4 3.8 4.7 7.7 6.9 11.6.9 1.6 2 2.8 4 2.8zm13.5 27.9c2.3 1.3 5.3-.1 5.8-2.7.3-1.3-.2-2.4-.8-3.5-.8-1.5-1.5-2.9-2.3-4.4-.5-.9-.9-1.7-1.4-2.6-.5-1-1-2-1.6-2.9-1.1-2.3-2.2-5.6-5.3-5.6-2.6 0-4.5 2.6-3.9 5 .4 1.5 1.4 2.8 2.1 4.1l2.4 4.5c.8 1.6 1.6 3.1 2.5 4.7.7 1.3 1.2 2.7 2.5 3.4zm-13.6 235.1c-2-.6-4-1.4-5.9-2.1-.9 2.5-2.1 4.9-3.7 7.1 1.6.6 3.1 1.2 4.7 1.8 3 1 7.8 3.5 9.8-.3.7-1.4.6-3.1-.4-4.4-1.1-1.4-3-1.6-4.5-2.1z"/><path class="st1" d="M378.7 171.1c-1.8-.4-3.9-.5-5.2-1.9-2.2-2.5-.4-6.7 3-6.7 1.1 0 2.4.4 3.6.7 1.2.2 2.4.5 3.6.8 2.4.5 4.7 1.1 7.1 1.7 1.7.4 3.6.6 4.7 2.2.9 1.3.9 3.2 0 4.5-.9 1.3-2.5 1.9-4 1.7-2.1-.3-4.2-1-6.3-1.5-2.2-.5-4.3-1-6.5-1.5zm-14.5 166.5c-1.1 0-2.3.4-3.4.6-1.2.2-2.4.4-3.6.7l-7.2 1.2c-1.8.3-3.8.3-4.9 2-1 1.4-1 3.2-.1 4.6 1.1 1.6 2.9 1.9 4.7 1.6 2.3-.4 4.7-.8 7-1.2 1.4-.2 2.8-.5 4.1-.7 1.6-.3 3.5-.4 5-1 3.9-1.9 2.6-7.8-1.6-7.8zm31.4-7.1c-1 0-1.9.4-2.9.6-1.1.3-2.2.6-3.4.9-2.1.5-4.3 1.1-6.5 1.6-1.8.4-4.1.5-5.6 1.7-1.2 1-1.7 2.7-1.2 4.2.4 1.5 1.8 2.6 3.3 2.8.9.1 1.7-.1 2.6-.3 1.1-.3 2.3-.5 3.4-.8 2.1-.5 4.1-1 6.2-1.5 1.1-.3 2.1-.5 3.2-.8.9-.2 1.9-.4 2.8-.8 3.6-2 2.2-7.6-1.9-7.6zM350 165.6c2.6.4 5.1.8 7.7 1.3 2 .4 4.1.9 5.7-.6 1.3-1.2 1.6-3.2.8-4.7-1-2-3.1-2.1-5.1-2.5-.9-.2-1.9-.3-2.8-.5-1.5-.2-2.9-.5-4.4-.7-1.4-.2-2.8-.5-4.3-.7-.9-.2-1.9-.4-2.8-.4-4.1 0-5.5 5.7-1.9 7.5.9.5 2 .5 3 .7 1.4.2 2.7.4 4.1.6zm-28.5-3.7c2.3.2 4.5.6 6.8.8 1.5.1 2.9-.5 3.8-1.8.9-1.3.9-3.1 0-4.4-1-1.6-2.7-1.8-4.4-2-2.4-.3-4.9-.6-7.3-.8-2.5-.3-5.1-.8-7.7-.8-3.4 0-5.3 4.3-2.9 6.8 1.3 1.4 3.1 1.3 4.9 1.5 2.3.2 4.6.4 6.8.7zm10.9 180.6c-2.3 0-4.8.6-7.1.8-2.5.3-4.9.5-7.4.8-1.9.2-3.8.2-5 2-.9 1.5-.8 3.4.3 4.7 1.7 2 4.4 1.3 6.7 1.1 2.2-.2 4.5-.5 6.7-.7 1.2-.1 2.3-.3 3.5-.4 1.1-.1 2.4-.1 3.5-.5 4.2-1.4 3.2-7.8-1.2-7.8zm-42.3-183.2c2.2.1 4.6.5 6.8.4 1.5-.1 2.9-1.1 3.5-2.6.6-1.5.2-3.2-1-4.3-1.4-1.4-3.6-1.1-5.4-1.3-4.5-.2-9-.6-13.5-.6-3.5 0-5.3 4.5-2.8 6.9 1.4 1.4 3.5 1.1 5.3 1.2 2.4.1 4.7.2 7.1.3zm121.6 20.5c2.3.7 4.5 1.5 6.8 2.2 1.9.6 4.1 1.9 6.1 1 1.6-.7 2.6-2.4 2.4-4.2-.2-1.9-1.6-2.9-3.3-3.5-1.5-.5-2.9-1-4.4-1.5-1.3-.4-2.6-.9-3.9-1.3l-3.9-1.2c-1.3-.2-2.6-.8-3.8-.8-3.8 0-5.4 5-2.3 7.2.8.6 1.8.8 2.7 1 1.2.4 2.4.7 3.6 1.1zM300.2 345.7c-2.4 0-4.7.3-7.1.4-2.3.1-4.7.3-7 .4-1.9.1-3.8 0-5.1 1.6-1 1.3-1.2 3.1-.4 4.5.9 1.5 2.4 2.1 4 2 2.4-.1 4.9-.2 7.3-.4 1.2-.1 2.5-.1 3.7-.2 1.1-.1 2.2-.1 3.3-.2 1-.1 2.1 0 3.1-.5 3.7-1.9 2.3-7.6-1.8-7.6zm191-121.9c1.1 1.3 2.2 2.6 3.3 4 1 1.3 2 2.7 2.9 4.1.8 1.2 1.7 2.1 3.2 2.3 2.8.3 5.1-2.4 4.3-5.1-.5-1.7-2.1-3.5-3.1-5-.7-1-1.4-1.9-2.2-2.8-.8-1-1.6-1.9-2.4-2.9-.9-1-1.8-2-2.7-2.9-.8-.8-1.8-1.3-3-1.3-2.9 0-4.9 3.2-3.6 5.8.7 1.5 2.3 2.6 3.3 3.8zM426.3 321c-1.3 0-2.6.7-3.9 1.1-1.4.5-2.9 1-4.4 1.5-2.8.9-5.7 1.6-8.5 2.7-1.9.8-3 2.9-2.4 4.9.6 2.1 2.8 3.2 4.8 2.7 3.9-1 7.7-2.4 11.5-3.8l2.7-.9c1.8-.7 3.6-1.4 4-3.5.6-2.4-1.3-4.7-3.8-4.7zm85.5-72.4c-.1-1.4-.4-2.9-.6-4.3-.5-2.2-1.6-4.4-4.3-4.4-1.9 0-3.6 1.4-3.9 3.3-.2 1 .1 1.9.3 2.8.3 1.3.4 2.5.6 3.8.2 2.6.1 5.2-.2 7.7-.2 1.7.2 3.4 1.8 4.4 2.6 1.6 5.6-.2 6.1-3.1.3-1.6.4-3.2.4-4.8v-1.7c0-1.2-.1-2.5-.2-3.7zm-29.3 42.9c-1.4 0-2.3.7-3.3 1.5-1.1.9-2.3 1.8-3.5 2.6-2.3 1.6-4.6 3.2-6.9 4.7-1.8 1.2-3.5 2.4-3.2 4.9.4 2.2 2.5 3.7 4.7 3.3 1-.2 1.8-.8 2.6-1.3 1.7-1.1 3.3-2.1 4.9-3.3 2.3-1.6 4.6-3.3 6.8-5 .8-.6 1.5-1.4 1.7-2.4.7-2.5-1.2-5-3.8-5zm20.3-23c-2.9 0-3.8 2.7-5 4.7-1.5 2.4-3.2 4.8-5.1 7-1.6 1.9-3.6 3.7-2.4 6.3 1.1 2.4 4.2 3.1 6.2 1.5.7-.6 1.3-1.3 1.9-2 1.2-1.4 2.3-2.7 3.3-4.2 1-1.3 1.9-2.6 2.7-4 .8-1.3 1.9-2.7 2.3-4.2.7-2.5-1.3-5.1-3.9-5.1zm-56.4-75.3c1.2.6 2.4 1.1 3.6 1.7 1.2.6 2.4 1 3.8.5 2-.7 3.1-3 2.4-5.1-.6-1.8-2.2-2.4-3.8-3.1-1.9-.9-3.8-1.8-5.7-2.6l-4.8-2.1c-1.1-.6-2.5-1.4-4-1.4-2.3 0-4.2 2-4 4.3.2 2.7 2.5 3.4 4.6 4.3 2.7 1.1 5.3 2.3 7.9 3.5zm22.5 12.1c1.8 1.1 3.6 2.3 5.3 3.5 1.5 1 3.1 2.8 5 3.1 1.6.3 3.3-.6 4.1-2 2.1-3.7-2.2-6-4.7-7.8-1.9-1.3-3.9-2.6-5.8-3.9-1-.6-2-1.3-3.1-1.9-1.1-.6-2-1.1-3.1-1.1-3.5 0-5.3 4.3-2.9 6.8.7.7 1.6 1.1 2.4 1.6.9.6 1.9 1.1 2.8 1.7zm-13.2 103.1c-1.9 0-3.9 1.5-5.6 2.3-1.9.9-3.8 1.8-5.8 2.7-2.8 1.3-7.9 2.4-7.1 6.6.3 1.6 1.6 2.8 3.1 3.1 2 .4 4-.9 5.8-1.7 2-.9 4.1-1.8 6.1-2.8 1.8-.9 3.8-1.7 5.6-2.8 3.4-2.1 1.9-7.4-2.1-7.4zm-187.8 38.8c-2.7 0-5.4.1-8.1.1h-3.9c-67.3-.1-130.5-10.6-177.9-29.5-22.6-9-40.2-19.4-52.3-30.9C13.9 275.8 8 264.3 8 252.8s5.9-23 17.6-34c12.2-11.5 29.8-21.9 52.3-30.9 47.4-19 110.7-29.4 178-29.4h5.7c1.4 0 3.1.3 4.4-.4 2.3-1.2 2.9-4.3 1.2-6.3-1.8-1.9-4.9-1.3-7.2-1.3h-4.1c-141.4 0-256 45.8-256 102.4 0 56.6 114.6 102.4 256 102.4h1.6c3.4 0 6.8 0 10.2-.1 2.2-.1 4.2-1.4 4.3-3.8 0-2.3-1.9-4.2-4.1-4.2z"/><path class="st2" d="M282.9 468.8c.5 1 1.1 1.9 1.7 2.9.6.9 1.4 1.7 2 2.6 2.1 3.3-1.6 7.5-5.1 5.7-1.7-.8-2.9-2.9-3.9-4.4-1.1-1.7-2.1-3.4-2.8-5.3-.8-1.8-1.4-3.8-1.9-5.7-.4-1.7-.7-3.4.6-4.8 1-1.2 2.8-1.7 4.3-1.2 1.8.6 2.5 2 2.8 3.7.5 2.2 1.3 4.4 2.3 6.5zm48.5-17.4c.7 3.5 5.3 4.7 7.3 1.6 1-1.5.6-3 .2-4.6-.5-2-1.2-4-2.1-5.9s-1.9-3.7-3.2-5.4c-1-1.4-2.2-3.3-3.9-3.9-3.7-1.4-6.9 3.1-4.6 6.2 1.4 1.8 2.7 3.4 3.8 5.5 1.2 1.9 2 4.2 2.5 6.5zm-47.3-20.6c-3.1 2.6-5.7 5.7-7.6 9.2-1.5 2.7-4.3 7.1-1.3 9.7 1.4 1.2 3.6 1.3 5.1.1 1.4-1.1 1.8-3.2 2.6-4.8.9-1.7 2-3.4 3.2-4.9.6-.8 1.3-1.5 2-2.1.7-.7 1.5-1.2 2-2 2.3-3.8-2.7-8-6-5.2zm51.6 31.8c-1.6-.5-3.3 0-4.4 1.2-.5.6-.8 1.4-1 2.2-.4 1-.8 2-1.3 3-.9 1.7-2 3.3-3.3 4.8-1.2 1.3-3.1 2.5-3.7 4.2s0 3.6 1.5 4.6c1.7 1.2 3.7.8 5.2-.5 3-2.6 5.4-5.8 7.3-9.3 1.5-2.8 4.5-8.6-.3-10.2zM311 482.3c-4.3.8-8.8.6-13-.8-1.6-.5-3.1-.6-4.4.6-1.2 1-1.7 2.7-1.2 4.2.5 1.7 1.9 2.5 3.6 3 2.1.7 4.2 1.1 6.4 1.3 2.1.2 4.3.3 6.4.1 1.7-.1 3.9-.2 5.4-1.2 3.3-2.4.9-8-3.2-7.2zm5.6-57.8c-4.1-1.3-8.4-1.9-12.7-1.6-3.1.2-8.5.5-8.2 4.9.1 1.6 1.2 3 2.7 3.5 1.7.6 3.7-.2 5.5-.3 2.1-.2 4.2-.1 6.3.2 1 .2 1.9.4 2.9.6 1.1.3 2 .7 3.1.4 3.9-.8 4.2-6.5.4-7.7zM392 83c-.5.8-1.3 1.4-2 2-.7.7-1.4 1.4-2 2.1-1.2 1.5-2.3 3.1-3.2 4.9-.8 1.6-1.1 3.6-2.6 4.8-1.5 1.2-3.7 1.1-5.1-.1-3-2.6-.2-7 1.3-9.7 2-3.5 4.6-6.6 7.6-9.2 3.4-2.8 8.4 1.4 6 5.2zm41.4 15.4c.7 3.5 5.3 4.7 7.3 1.6 1-1.5.6-3 .2-4.6-.5-2-1.2-4-2.1-5.9s-1.9-3.7-3.2-5.4c-1-1.4-2.2-3.3-3.9-3.9-3.7-1.4-6.9 3.1-4.6 6.2 1.4 1.8 2.7 3.4 3.8 5.5 1.2 2 2 4.2 2.5 6.5zm-50.8 10.8c-.4-1.7-1.1-3.2-2.8-3.7-1.5-.5-3.3 0-4.3 1.2-1.2 1.4-.9 3.1-.5 4.8.5 2 1.1 3.9 1.9 5.7.8 1.8 1.7 3.6 2.8 5.3 1 1.5 2.2 3.6 3.9 4.4 3.5 1.7 7.3-2.4 5.1-5.7-.6-.9-1.4-1.7-2-2.6s-1.2-1.9-1.7-2.9c-1.1-2-1.9-4.2-2.4-6.5zm55.1.4c-1.6-.5-3.3 0-4.4 1.2-.5.6-.8 1.4-1 2.2-.4 1-.8 2-1.3 3-.9 1.7-2 3.3-3.3 4.8-1.2 1.3-3.1 2.5-3.7 4.2s0 3.6 1.5 4.6c1.7 1.2 3.7.8 5.2-.5 3-2.6 5.4-5.8 7.3-9.3 1.5-2.8 4.5-8.6-.3-10.2zM413 129.3c-4.3.8-8.8.6-13-.8-1.6-.5-3.1-.6-4.4.6-1.2 1-1.7 2.7-1.2 4.2.5 1.7 1.9 2.5 3.6 3 2.1.7 4.2 1.1 6.4 1.3 2.1.2 4.3.3 6.4.1 1.7-.1 3.9-.2 5.4-1.2 3.3-2.4.9-8-3.2-7.2zm5.6-57.8c-4.1-1.3-8.4-1.9-12.7-1.6-3.1.2-8.5.5-8.2 4.9.1 1.6 1.2 3 2.7 3.5 1.7.6 3.7-.2 5.5-.3 2.1-.2 4.2-.1 6.3.2 1 .2 1.9.4 2.9.6 1.1.3 2 .7 3.1.4 3.9-.8 4.2-6.5.4-7.7z"/><circle class="st2" cx="60" cy="191.8" r="30"/></svg>