<svg version="1.1" xmlns="http://www.w3.org/2000/svg" x="0" y="0" viewBox="0 0 512 512" xml:space="preserve"><style type="text/css">.st2{fill:#4292be}</style><circle cx="256" cy="256" r="50" fill="#ffa000"/><path d="M95.8 445.4c-1.9 2.1-4.8 3.1-7.6 2.5-2.2-.5-3.7-1.9-5.3-3.4-1.7-1.5-3.3-3.1-4.9-4.7-4.6-4.4-9-9-13.2-13.8-1.1-1.2-2.1-2.4-3.2-3.7-1.8-2.1-3.9-4.1-5.2-6.4-2.7-4.7.2-11 5.6-11.9 2.7-.4 5.5.6 7.3 2.6 2.2 2.5 4.2 5.1 6.4 7.6 4.4 5 9 9.9 13.9 14.5 1.2 1.2 2.4 2.3 3.6 3.4 1.1 1 2.2 1.9 3.1 3 1.5 2 2 4.5 1.3 6.9-.4 1.4-1 2.5-1.8 3.4zM51.5 115.5c-3.8-2.4-8.7-1.2-11.1 2.5-.6.9-1.2 1.9-1.8 2.8-5 8-9.5 16.3-13.6 24.8l-3.3 7.2c-.8 1.8-1.1 3.6-.6 5.5 1 4 5 6.7 9.1 6 1.8-.3 3.5-1.3 4.8-2.7 1.5-1.8 2.3-4.3 3.2-6.4 2.2-4.6 4.5-9.2 6.9-13.7 2.8-5.1 5.8-9.9 8.8-14.8 2.3-3.8 1.3-8.8-2.4-11.2zM157.7 475c-8.6-3.8-16.9-8.2-24.9-13-2-1.2-4-2.4-5.9-3.7-1.9-1.2-3.6-2.5-5.9-2.6-3.8-.2-7.3 2.3-8.2 6-.9 3.3.5 6.8 3.4 8.7 3.8 2.6 7.8 4.9 11.8 7.2 4 2.3 8.2 4.6 12.3 6.7 2.1 1 4.1 2.1 6.2 3.1 2.1 1 4.2 2.3 6.5 2.8 4.1.8 8.3-1.8 9.3-5.9.8-3.7-1.1-7.7-4.6-9.3zm6.6-457.7c-2.3.1-4.5 1.4-6.6 2.2-2.2.9-4.4 1.9-6.6 2.8-4.2 1.9-8.4 3.9-12.5 6-4.2 2.2-8.3 4.4-12.4 6.8-2.9 1.7-4.7 4.9-4.1 8.3.6 3.7 3.8 6.6 7.5 6.7 2.3.1 4.1-.9 6-2 2-1.2 4-2.3 6-3.4 8.2-4.5 16.7-8.4 25.5-11.9 3.6-1.4 6.1-4.8 5.5-8.9-.5-3.9-4.2-6.9-8.3-6.6zm327.2 192.3c1.2 6.3 2.2 12.6 2.9 19 .4 3.1.7 6.3.9 9.4.2 3.1.2 6.3.5 9.4.5 4.4 4.6 7.6 9 7.1 2.1-.3 4.1-1.4 5.4-3.2 1.6-2.1 1.6-4.5 1.5-7-.5-10.5-1.6-20.9-3.4-31.3-.3-1.7-.6-3.3-.9-4.9-.3-1.4-.5-2.8-1.3-4.1-1.2-2.1-3.4-3.5-5.7-3.8-5.3-.9-9.9 4.1-8.9 9.4zm-10.1-36.1c1.8 4.9 8 6.8 12.2 3.7 1.9-1.3 3.1-3.5 3.3-5.8.3-2.8-1.2-5.6-2.2-8.2-1.4-3.5-2.8-7.1-4.4-10.5-2.7-6.2-5.7-12.3-8.9-18.2-1.3-2.5-2.6-5.1-5.3-6.3-4.9-2.2-10.7 1.2-11.2 6.5-.3 2.8 1.2 5 2.4 7.3 1.6 2.9 3.1 5.8 4.5 8.8 2.9 5.9 5.5 11.9 7.9 18 .6 1.6 1.2 3.2 1.7 4.7zM32 342.3c-2.4-6.3-11.4-6.8-14.5-.8-1.3 2.4-1.1 4.9-.1 7.3l.9 2.4c1.8 4.5 3.7 9 5.8 13.3 1.4 3 2.9 6 4.4 9 .8 1.5 1.5 2.9 2.3 4.4.8 1.5 1.7 3 2.5 4.5.9 1.6 1.7 3.1 3.2 4.2 2.7 1.9 6.3 2 9 .2 2.4-1.6 3.8-4.4 3.6-7.2-.1-1.7-.8-3-1.6-4.5-1-1.8-2-3.5-2.9-5.3-3.8-7.1-7.3-14.4-10.4-21.9-.7-1.8-1.5-3.7-2.2-5.6zM8.4 239c3 .3 5.9-1.1 7.5-3.6.8-1.3 1.2-2.7 1.3-4.1.2-2 .4-4.1.7-6.1 1-8.1 2.5-16.2 4.4-24.2.5-1.9 1-3.9 1.4-5.8.4-1.5.4-2.9 0-4.4-.8-2.8-3.2-5-6-5.6-3.1-.7-6.4.6-8.2 3.2-1 1.4-1.3 3-1.7 4.6-.4 1.4-.7 2.9-1.1 4.3-.8 3.3-1.5 6.6-2.1 9.9-.6 3.2-1.2 6.5-1.7 9.8-.3 1.7-.5 3.5-.7 5.2-.4 2.6-.7 5.3-.9 7.9-.3 2.9.8 5.7 3.2 7.4 1.1.8 2.5 1.3 3.9 1.5zm12.9 67.4c-1.4-6.5-2.5-13.1-3.4-19.8-.4-3.4-.8-6.7-1.1-10.1-.1-1.7-.3-3.4-.4-5.1-.1-1.3-.1-2.6-.4-3.9-1.2-4.6-6.5-7.2-10.9-5.3-2.1.9-3.7 2.6-4.4 4.7-.6 1.7-.4 3.4-.3 5.2.2 3.2.5 6.3.8 9.4.8 7.6 1.9 15.2 3.3 22.7.8 4.2 1.2 9 5.6 11 4.5 2.1 9.9-.6 11.1-5.4.4-1 .4-2.2.1-3.4zm208.5 188.2c-6.3-.7-12.5-1.6-18.7-2.8-3-.6-6.1-1.2-9.1-1.9-3.1-.7-6.2-1.7-9.4-2.3-4.8-1-9.4 2.5-9.7 7.4-.1 2.3.7 4.5 2.3 6.1 1.9 1.9 4.4 2.3 6.9 2.9 9.8 2.5 19.8 4.5 29.8 5.8 1.7.2 3.3.4 5 .6 1.5.2 2.9.3 4.4-.2 2.3-.7 4.2-2.4 5.1-4.7 1.9-4.8-1.4-10.3-6.6-10.9zM248.4.1c-4.1.1-8.1.3-12.2.7-3.6.3-7.2.6-10.8 1.1-2.1.3-4.3.5-6.4.8-3.2.5-6.4 1-9.6 1.6-2.2.4-4.4.8-6.6 1.3-1.8.4-3.6.6-5.2 1.6-5.8 3.7-4.3 12.9 2.4 14.5 1.8.4 3.4.1 5.2-.3 2.2-.5 4.4-.9 6.7-1.3 4.4-.8 8.9-1.5 13.3-2.1 4.5-.6 9-1 13.4-1.4 2.3-.2 4.5-.3 6.8-.4 1.9-.1 3.8.1 5.6-.5 6.4-2 7.5-11 1.7-14.5-1.3-.7-2.8-1.1-4.3-1.1zm209.3 98.3c-3.8-4.9-7.9-9.7-12-14.3-3.6-4-7.3-7.8-11.1-11.5-1.7-1.7-3.7-4-5.9-5.1-4-1.9-9 0-10.7 4.1-.8 1.8-.8 3.8-.2 5.6.7 2.2 2.4 3.6 4 5.1 7.6 7.2 14.7 14.9 21.2 23.1 1.6 2 3 4.3 5.6 5.3 2.4.9 5.1.7 7.3-.7 3.8-2.5 4.7-8 1.8-11.6zm45.6 178.8c-3.6-.4-7 1.7-8.4 5-.8 1.9-.8 4.2-1 6.2-.3 2.4-.7 4.8-1.1 7.3-.8 4.7-1.7 9.4-2.8 14-.5 2.4-1.1 4.8-1.7 7.1-.5 2-1.4 4.1-1.4 6.2 0 3.5 2.3 6.6 5.6 7.7 3.5 1.1 7.3-.3 9.2-3.4 1.1-1.8 1.5-4.1 2-6.1.6-2.3 1.2-4.6 1.7-6.9 1.1-4.7 2.1-9.4 2.9-14.1.5-2.7.9-5.3 1.3-8 .3-2.4 1-5.1.8-7.5-.3-3.8-3.3-7-7.1-7.5zm-65.1 138.6c-2.6.2-4.4 1.6-6.1 3.4-1.9 2.1-3.9 4.1-5.9 6.2-3.9 4-8 7.8-12.2 11.4-2.1 1.9-4.3 3.7-6.5 5.5-1.9 1.5-3.7 2.8-4.6 5.2-1.5 4.2.8 9 5.1 10.3 2.3.7 4.9.4 6.9-1 .6-.4 1.2-.9 1.8-1.4 3.3-2.7 6.6-5.4 9.8-8.3 3-2.7 6-5.5 8.9-8.3 2.2-2.2 4.3-4.3 6.5-6.6 1.9-2 4.1-3.9 4.8-6.7.9-5.1-3.3-10.1-8.5-9.7zm46.6-63.6c-2.2-1-4.9-1-7.1.2-2.1 1.1-3.2 3-4.2 5.1-2.4 5.1-4.9 10.1-7.7 15-2.7 4.9-5.6 9.7-8.7 14.5-1.2 1.9-2.5 3.6-2.6 5.9-.1 1.9.5 3.9 1.7 5.4 2.9 3.7 8.6 4 11.9.6.9-.9 1.5-2.1 2.2-3.1.8-1.2 1.6-2.5 2.4-3.7 1.5-2.5 3-4.9 4.5-7.4 1.4-2.4 2.7-4.8 4-7.2 2.3-4.3 4.6-8.8 6.7-13.2 1.1-2.3 1.8-4.5 1-7-.5-2.3-2-4.1-4.1-5.1zM305.5 490.9c-1.8.1-3.5.6-5.3 1-1.7.3-3.4.6-5.2.9-3.5.6-7.1 1.1-10.6 1.5-3.5.4-7 .8-10.5 1-1.8.1-3.5.2-5.3.3-1.3.1-2.6.1-3.9.6-4.8 1.8-6.7 7.7-3.9 11.9 1.4 2 3.6 3.4 6.1 3.5 1.7.1 3.5-.1 5.2-.2 2.6-.2 5.2-.4 7.7-.6 4.8-.5 9.7-1 14.5-1.8 3.4-.5 6.9-1.1 10.3-1.8 2.8-.5 5.6-1 7.5-3.3 3.4-4.1 1.9-10.5-3-12.5-1.1-.3-2.3-.5-3.6-.5zm21.9-480.8c-12.6-3.7-25.5-6.3-38.5-8-4.1-.5-8.2 1.5-9.3 5.8-1.1 4 1.2 8.3 5.1 9.7 1.1.4 2.3.5 3.5.6 1.5.2 3.1.4 4.6.7 2.9.5 5.9 1 8.8 1.5 5.7 1.1 11.3 2.4 16.9 3.9 2.8.7 5.7 2 8.6 1.3 2.4-.6 4.4-2.2 5.4-4.4 1.9-4.5-.5-9.8-5.1-11.1zm50.4 453.7c-2.8.2-5.3 2.1-7.7 3.4-2.6 1.4-5.1 2.7-7.7 4-5.1 2.5-10.3 4.9-15.5 7-4.2 1.7-9.6 2.7-11.1 7.5-1.3 4 .9 8.5 4.9 10 3.6 1.3 7.4-.7 10.8-2.1 7.9-3.1 15.6-6.7 23.1-10.6 2.8-1.4 5.6-2.8 8.3-4.5 1.9-1.2 3.2-3.2 3.6-5.5.5-4.9-3.7-9.5-8.7-9.2zM399.5 44c-10.8-7.3-22.2-13.9-34.1-19.5-2.3-1.1-4.6-1.5-7-.5-2 .8-3.6 2.3-4.4 4.3-1.6 3.8 0 8.2 3.6 10.2 2.4 1.3 5 2.4 7.4 3.7 2.4 1.3 4.9 2.5 7.3 3.9 4.8 2.7 9.5 5.5 14.2 8.5 2.4 1.6 4.8 3.7 7.8 4 2.6.2 5.1-.8 6.8-2.7 3.1-3.6 2.3-9.3-1.6-11.9zM125.6 192.7c1.4 1.5 2.2 3.6 2.2 5.7-.1 2.4-1.3 4.6-2.2 6.7-1.8 4.6-3.4 9.4-4.7 14.2-1.3 4.8-2.3 9.7-3.1 14.6-.3 2.1-.6 4-1.9 5.7-1.1 1.4-2.7 2.4-4.5 2.8-4.1 1-8.3-1.5-9.5-5.5-.7-2.2-.1-4.4.2-6.6 1.3-7.9 3.2-15.6 5.7-23.2.9-2.8 1.9-5.5 3-8.2.9-2.2 1.6-4.7 3.2-6.4 3.1-3.1 8.5-3.1 11.6.2zm45.9-59.4c-2.4-2.6-6.4-3.2-9.5-1.6-2.2 1.1-4.1 3-5.9 4.6-.7.6-1.3 1.1-2 1.7-1.5 1.3-2.9 2.5-4.3 3.9-3.5 3.3-6.9 6.7-10.1 10.3-1.9 2.2-3.8 4.4-5.6 6.6-1.3 1.6-2.6 3.1-3 5.1-.4 1.7-.2 3.5.6 5.1 1.5 3.3 5.2 5.1 8.8 4.4 4-.8 6.1-4.7 8.5-7.5 3-3.5 6.1-6.9 9.4-10.1 3.3-3.3 6.9-6.4 10.5-9.3 1.5-1.2 3-2.2 3.9-3.9.8-1.5 1.1-3.2.9-4.9-.4-1.7-1.1-3.2-2.2-4.4zm29.9-6.3c9.9-4.2 20.3-7.2 31-9 2.2-.4 4.6-.4 6.6-1.7 1.6-1 2.9-2.6 3.5-4.5 1.3-4.2-1.2-8.8-5.4-10-2.4-.7-4.9 0-7.2.3l-4.8.9c-.5.1-1.1.2-1.6.3-8.7 1.8-17.2 4.4-25.4 7.7-2.3.9-4.6 1.7-6.1 3.8-1.2 1.7-1.8 3.9-1.4 6 .6 5.2 6.1 8.2 10.8 6.2zm193.7 113.4c.5 4.7 5.1 7.9 9.7 6.9 3.9-.8 6.5-4.5 6.3-8.4-.3-4.9-1.3-9.8-2.3-14.6-.6-3.1-1.4-6.1-2.2-9.2-1.4-5.2-3-10.6-5.1-15.6-1.8-4.2-6.9-6-11-4-3.5 1.8-5.2 6-3.9 9.7 1.9 5.7 3.9 11.2 5.4 17 1.4 6.1 2.5 12.1 3.1 18.2zm-278.2 31.2c-.5-4.7-5.1-7.9-9.7-6.9-3.9.8-6.5 4.5-6.3 8.4.3 4.9 1.3 9.8 2.3 14.6.6 3.1 1.4 6.1 2.2 9.2 1.4 5.2 3 10.6 5.1 15.6 1.8 4.2 6.9 6 11 4 3.5-1.8 5.2-6 3.9-9.7-1.9-5.7-3.9-11.2-5.4-17-1.4-6.1-2.5-12.1-3.1-18.2zm286.7-2.1c-3.7-.5-7.4 1.7-8.7 5.2-.8 2.1-.8 4.6-1.3 6.8-.5 2.5-1 4.9-1.5 7.3-1.2 4.8-2.6 9.6-4.2 14.3-.9 2.4-1.8 4.8-2.8 7.1-.9 2-1.2 4.1-.4 6.3 1.3 3.8 5.5 6.1 9.4 5.1 4.5-1.1 5.8-5.2 7.3-9.1 3.7-9.5 6.4-19.3 8.2-29.3.2-1 .3-1.9.5-2.9.4-2.5.6-4.8-.7-7-1.2-2-3.4-3.5-5.8-3.8zm-25.5 70.7c-2.7-2.1-6.6-2.2-9.4-.3-1.7 1.2-2.8 3-4.1 4.6-1.4 1.7-2.9 3.4-4.3 5.1-3.1 3.4-6.3 6.7-9.7 9.8-1.8 1.6-3.6 3.2-5.5 4.7-1.6 1.3-3.5 2.4-4.8 4-2.2 2.6-2.5 6.4-.7 9.4s5.5 4.4 8.9 3.5c2.8-.8 5.2-3.2 7.4-5.1.3-.3.7-.6 1-.8 1.5-1.3 3-2.6 4.4-3.9 1.6-1.4 3.1-2.9 4.6-4.4 3.6-3.5 7-7.3 10.2-11.1 2.7-3.2 6.1-6.6 4.9-11.2-.5-1.7-1.5-3.3-2.9-4.3zm-137.8 54.9c-9.2-1-18.4-3-27.2-5.8-2.2-.7-4.4-1.5-6.5-2.3-1.8-.7-3.4-1.1-5.3-.8-3.4.6-6.1 3.4-6.6 6.9-.2 1.9.2 3.8 1.3 5.4 1.2 1.8 2.9 2.7 4.9 3.5 3.3 1.3 6.7 2.4 10.2 3.4 1 .3 2.1.6 3.1.9 4 1.1 8 2.1 12.1 2.9 2.5.5 5 .9 7.5 1.3l4.2.6c3.1.4 6-.6 7.9-3.1 2.3-3.1 2-7.4-.6-10.2-1.4-1.6-3.1-2.5-5-2.7zm79.2-8.2c-1.5-1.6-3.6-2.5-5.7-2.5-2.4 0-4.7 1.2-6.9 2.1-5 1.9-10.1 3.6-15.3 5-5.2 1.4-10.5 2.2-15.9 3.2-3.9.7-6.7 4.2-6.6 8.2.2 4.6 4.3 8.1 8.8 7.6 3.1-.3 6.2-1 9.3-1.6 5-1 10-2.3 14.9-3.8 2.9-.9 5.8-1.9 8.6-2.9 1.4-.5 2.8-1.1 4.2-1.7 1.2-.5 2.4-.9 3.4-1.7 4-2.9 4.4-8.5 1.2-11.9zm-13-261.5c3.2 1.2 6.9.3 9-2.4 2.4-2.9 2.4-7.3 0-10.2-1.4-1.7-3.4-2.4-5.4-3.1-2.3-.9-4.7-1.7-7-2.4-1-.3-2.1-.6-3.1-1-2.6-.7-5.1-1.4-7.7-2-3.9-.9-7.8-1.7-11.8-2.3-3.4-.5-7.9-1.7-11.1-.3-3.2 1.4-5.1 4.9-4.6 8.3.3 2 1.3 3.8 2.8 5.1 1.6 1.3 3.4 1.7 5.4 2 9.3 1.1 18.5 3.2 27.3 6.1 2 .6 4.1 1.4 6.2 2.2z" fill="#ddd"/><circle class="st2" cx="83" cy="75" r="40"/><circle class="st2" cx="151.3" cy="360.7" r="40"/><circle class="st2" cx="360.7" cy="151.3" r="40"/></svg>