<svg version="1.1" xmlns="http://www.w3.org/2000/svg" x="0" y="0" viewBox="0 0 512 512" xml:space="preserve"><style type="text/css">.st1{opacity:.15;fill:#444;enable-background:new}</style><path d="M423.9 470.3L344 417 415 0H54.2c-5.7 0-8.2 7.2-3.7 10.7L72.2 28c5.7 4.5 9.7 10.8 11.3 17.9L168 417l-79.9 53.3c-4.5 3-7.1 8-7.1 13.3V512h350v-28.4c0-5.4-2.7-10.4-7.1-13.3z" fill="#79b1d1"/><path class="st1" d="M428.5 475h-345c-1.6 2.5-2.5 5.5-2.5 8.6V512h350v-28.4c0-3.1-.9-6.1-2.5-8.6z"/><path class="st1" d="M344 417H168l-79.9 53.3c-4.5 3-7.1 8-7.1 13.3V512h350v-28.4c0-5.3-2.7-10.3-7.1-13.3L344 417z"/><path d="M126.8 164l48.3 212.1c3.3 14.6 16.3 24.9 31.2 24.9h97.2c15.6 0 28.9-11.2 31.5-26.6L370.8 164h-244z" fill="#ffa000"/><path d="M235 381h42v4h-42zm0-95h42v4h-42zm0-95h42v4h-42zm0-95h42v4h-42zm0 266h21v4h-21zm0-19h21v4h-21zm0-19h21v4h-21zm0-19h21v4h-21zm0-38h21v4h-21zm0-19h21v4h-21zm0-19h21v4h-21zm0-19h21v4h-21zm0-38h21v4h-21zm0-19h21v4h-21zm0-19h21v4h-21zm0-19h21v4h-21z" fill="#f4f4f4"/><path d="M359.9 57.6c-4.5-.6-8.5 2.5-9.2 6.9l-29.1 201.3c-.6 4.5 2.5 8.5 6.9 9.2 4.5.6 8.5-2.5 9.2-6.9l29.1-201.3c.7-4.4-2.5-8.5-6.9-9.2zm-35.6 245.6c-4.5-.6-8.5 2.5-9.2 6.9l-5.8 40.2c-.6 4.5 2.5 8.5 6.9 9.2 4.5.6 8.5-2.5 9.2-6.9l5.8-40.2c.7-4.4-2.4-8.6-6.9-9.2z" opacity=".5" fill="#f4f4f4"/></svg>