<svg version="1.1" xmlns="http://www.w3.org/2000/svg" x="0" y="0" viewBox="0 0 512 512" xml:space="preserve"><style type="text/css">.st0{fill:#f4f4f4}</style><ellipse class="st0" cx="256" cy="8.6" rx="46.1" ry="8.6"/><path class="st0" d="M256 17.1c-25.4 0-46.1-3.9-46.1-8.6v469.2c0 19 20.7 34.3 46.1 34.3s46.1-15.3 46.1-34.3V8.6c0 4.7-20.7 8.5-46.1 8.5z"/><path d="M209.9 8.6v469.1c0 19 20.7 34.3 46.1 34.3s46.1-15.3 46.1-34.3V8.6m0 0c0-4.7-20.6-8.6-46.1-8.6s-46.1 3.9-46.1 8.6M256 4c21.1 0 34.8 2.6 40.2 4.6-5.4 2-19.1 4.6-40.2 4.6s-34.8-2.6-40.2-4.6c5.4-2 19.1-4.6 40.2-4.6zm42.1 473.7c0 16.7-18.9 30.3-42.1 30.3s-42.1-13.6-42.1-30.3V12.3c1.3.5 2.8.9 4.4 1.3 8.3 2.2 22.1 3.6 37.7 3.6 13 0 24.8-1 33.2-2.6h.1c3.5-.6 6.4-1.4 8.8-2.2v465.3zm-3.5-464.4zm-1.3.3zm-1.3.4z" fill="#999"/><path d="M256 118.9c-19 0-34.3 2.9-34.3 6.4v349.4c0 14.1 15.3 25.5 34.3 25.5s34.3-11.5 34.3-25.5V125.3c0-3.5-15.3-6.4-34.3-6.4z" fill="#4caf50"/><path d="M273.1 72.8c-4.7 0-8.6 3.9-8.6 8.6v298.8c0 4.7 3.9 8.6 8.6 8.6s8.6-3.9 8.6-8.6V81.4c0-4.7-3.8-8.6-8.6-8.6zm0 346c-4.7 0-8.6 3.9-8.6 8.6v42.8c0 4.7 3.9 8.6 8.6 8.6s8.6-3.9 8.6-8.6v-42.8c0-4.7-3.8-8.6-8.6-8.6z" opacity=".5" fill="#f4f4f4"/></svg>