<svg version="1.1" xmlns="http://www.w3.org/2000/svg" x="0" y="0" viewBox="0 0 512 512" xml:space="preserve"><path d="M256 114c-5.6 0-10.9-.8-16-2.4v288.8c5.1-1.6 10.4-2.4 16-2.4s10.9.8 16 2.4V111.6c-5.1 1.6-10.4 2.4-16 2.4z" fill="#36434f"/><path d="M256 32c15.4 0 28 12.6 28 28s-12.6 28-28 28-28-12.6-28-28 12.6-28 28-28m0-32c-33.1 0-60 26.9-60 60s26.9 60 60 60 60-26.9 60-60-26.9-60-60-60zm0 424c15.4 0 28 12.6 28 28s-12.6 28-28 28-28-12.6-28-28 12.6-28 28-28m0-32c-33.1 0-60 26.9-60 60s26.9 60 60 60 60-26.9 60-60-26.9-60-60-60z" fill="#ffa000"/></svg>