<svg version="1.1" xmlns="http://www.w3.org/2000/svg" x="0" y="0" viewBox="0 0 512 512" xml:space="preserve"><style type="text/css">.st2{opacity:.15;fill:#444;enable-background:new}</style><path d="M0 0h512v512H0V0z" fill="#2e86b7"/><path d="M405.5 448.9l-71.9-48 63.9-375.3H72.7c-5.1 0-7.4 6.5-3.3 9.6l19.5 15.6c5.1 4 8.7 9.7 10.2 16.1l76.1 334-71.9 48c-4 2.7-6.4 7.2-6.4 12v25.6h315v-25.6c0-4.9-2.5-9.4-6.4-12z" fill="#f4f4f4"/><path class="st2" d="M409.6 453.1H99.1c-1.4 2.3-2.3 4.9-2.3 7.7v25.6h315v-25.6c.1-2.8-.8-5.4-2.2-7.7z"/><path class="st2" d="M333.6 400.9H175.2l-71.9 48c-4 2.7-6.4 7.2-6.4 12v25.6h315v-25.6c0-4.8-2.4-9.3-6.4-12l-71.9-48z"/><path d="M138.1 173.2l43.5 190.9c3 13.1 14.7 22.4 28.1 22.4h87.5c14 0 26-10.1 28.4-23.9l32.2-189.4H138.1z" fill="#cc584c"/><path d="M235.5 368.5h37.8v3.6h-37.8v-3.6zm0-85.5h37.8v3.6h-37.8V283zm0-85.5h37.8v3.6h-37.8v-3.6zm0 153.9h18.9v3.6h-18.9v-3.6zm0-17.1h18.9v3.6h-18.9v-3.6zm0-17.1h18.9v3.6h-18.9v-3.6zm0-17.1h18.9v3.6h-18.9v-3.6zm0-34.2h18.9v3.6h-18.9v-3.6zm0-17.1h18.9v3.6h-18.9v-3.6zm0-17.1h18.9v3.6h-18.9v-3.6zm0-17.1h18.9v3.6h-18.9v-3.6zm0-34.2h18.9v3.6h-18.9v-3.6z" fill="#f4f4f4"/><path d="M235.5 112h37.8v3.6h-37.8V112zm0 51.3h18.9v3.6h-18.9v-3.6zm0-17.1h18.9v3.6h-18.9v-3.6zm0-17.1h18.9v3.6h-18.9v-3.6z" fill="#999"/><path d="M347.9 77.4c-4-.5-7.6 2.3-8.3 6.2l-26.2 181.2c-.5 4.1 2.3 7.7 6.2 8.3 4.1.5 7.7-2.3 8.3-6.2l26.2-181.2c.6-3.9-2.3-7.6-6.2-8.3zm-32.1 221.1c-4-.5-7.6 2.3-8.3 6.2l-5.2 36.2c-.5 4 2.3 7.6 6.2 8.3 4 .5 7.6-2.3 8.3-6.2l5.2-36.2c.7-4-2.1-7.8-6.2-8.3z" opacity=".5" fill="#f4f4f4"/></svg>