<svg version="1.1" xmlns="http://www.w3.org/2000/svg" x="0" y="0" viewBox="0 0 512 512" xml:space="preserve"><style type="text/css">.st1{opacity:.15;fill:#444;enable-background:new}.st4{fill:#999}</style><path d="M434.1 262.2c36.5-38 77.8-81.1 77.8-122.2 0-51.8-42.2-94-94-94-3.7 0-7.3.2-10.8.6L415 0H54.2c-5.7 0-8.2 7.2-3.7 10.7L72.2 28c5.7 4.5 9.7 10.8 11.3 17.9L168 417l-79.9 53.3c-4.5 3-7.1 8-7.1 13.3V512h350v-28.4c0-5.4-2.7-10.4-7.1-13.3L344 417l15.7-92.5c3.1 19.4 9.5 32.5 10.4 34.4 3.5 7 10.6 11.1 17.9 11.1 3 0 6.1-.7 8.9-2.2 9.8-4.9 13.8-16.9 8.9-26.8-.1-.1-4.5-9.2-6.7-22.9-1.4-9.1 1.2-18.5 7.1-25.6 7.6-9.2 18.8-20.8 27.9-30.3zm-66.3 14.9l32-188c5.7-2 11.7-3.1 18.1-3.1 29.8 0 54 24.2 54 54 0 6.9-3.4 19.8-19.9 41.9-13.2 17.8-31 36.3-46.7 52.7-17 17.8-29.6 31.1-37.5 42.5z" fill="#f4f4f4"/><path class="st1" d="M428.5 475h-345c-1.6 2.5-2.5 5.5-2.5 8.6V512h350v-28.4c0-3.1-.9-6.1-2.5-8.6z"/><path class="st1" d="M344 417H168l-79.9 53.3c-4.5 3-7.1 8-7.1 13.3V512h350v-28.4c0-5.3-2.7-10.3-7.1-13.3L344 417z"/><path d="M126.8 164l48.3 212.1c3.3 14.6 16.3 24.9 31.2 24.9h97.2c15.6 0 28.9-11.2 31.5-26.6L370.8 164h-244z" fill="#cc584c"/><path d="M235 381h42v4h-42v-4zm0-95h42v4h-42v-4zm0-95h42v4h-42v-4zm0 171h21v4h-21v-4zm0-19h21v4h-21v-4zm0-19h21v4h-21v-4zm0-19h21v4h-21v-4zm0-38h21v4h-21v-4zm0-19h21v4h-21v-4zm0-19h21v4h-21v-4zm0-19h21v4h-21v-4zm0-38h21v4h-21v-4z" fill="#f4f4f4"/><path class="st4" d="M235 96h42v4h-42v-4zm0 57h21v4h-21v-4zm0-19h21v4h-21v-4zm0-19h21v4h-21v-4z"/><path d="M359.9 57.6c-4.5-.6-8.5 2.5-9.2 6.9l-29.1 201.3c-.6 4.5 2.5 8.5 6.9 9.2 4.5.6 8.5-2.5 9.2-6.9l29.1-201.3c.7-4.4-2.5-8.5-6.9-9.2zm-35.6 245.6c-4.5-.6-8.5 2.5-9.2 6.9l-5.8 40.2c-.6 4.5 2.5 8.5 6.9 9.2 4.5.6 8.5-2.5 9.2-6.9l5.8-40.2c.7-4.4-2.4-8.6-6.9-9.2z" opacity=".5" fill="#f4f4f4"/><path class="st4" d="M410.3 4l-7.1 42-.9 5.3 5.3-.6c3.5-.4 7-.6 10.4-.6 49.6 0 90 40.4 90 90 0 39.6-40.7 82-76.7 119.4l-1.7 1.8c-9 9.4-19.1 20-26.3 28.7-6.7 8-9.6 18.5-8 28.8 1.2 7.4 3 13.5 4.3 17.2 1.1 3.2 2 5.5 2.8 6.8 3.9 7.9.7 17.5-7.1 21.4h-.1c-2.1 1.1-4.5 1.7-7 1.7-6 0-11.6-3.5-14.3-8.9-2.1-4.4-7.3-16.4-10-33.3l-3.8-23.8-4 23.8-15.7 92.5-.4 2.6 2.2 1.4 79.9 53.3c3.3 2.2 5.3 5.9 5.3 10V508H85v-24.4c0-4 2-7.8 5.3-10l79.9-53.3 2.3-1.5-.6-2.7L87.4 45c-1.8-7.9-6.3-15.1-12.7-20.1L53 7.5c-1-.8-.8-1.7-.7-2.2.1-.4.6-1.3 1.9-1.3h356.1m-49.5 290.4l10.3-14.9c7.7-11.2 20.2-24.5 37.1-42.1l1.1-1.1c15.4-16.1 32.9-34.4 46-52C469 165.9 476 151 476 140c0-32-26-58-58-58-6.6 0-13.2 1.1-19.4 3.4l-2.2.8-.4 2.3-32 188-3.2 17.9M415 0H54.2c-5.7 0-8.2 7.2-3.7 10.7L72.2 28c5.7 4.5 9.7 10.8 11.3 17.9L168 417l-79.9 53.3c-4.5 3-7.1 8-7.1 13.3V512h350v-28.4c0-5.4-2.7-10.4-7.1-13.3L344 417l15.7-92.5c3.1 19.4 9.5 32.5 10.4 34.4 3.5 7 10.6 11.1 17.9 11.1 3 0 6.1-.7 8.9-2.2 9.8-4.9 13.8-16.9 8.9-26.8-.1-.1-4.5-9.2-6.7-22.9-1.4-9.1 1.2-18.5 7.1-25.6 7.6-9.2 18.8-20.8 27.9-30.3 36.5-38 77.8-81.1 77.8-122.2 0-51.8-42.2-94-94-94-3.7 0-7.3.2-10.8.6L415 0zm-47.2 277.1l32-188c5.7-2 11.7-3.1 18.1-3.1 29.8 0 54 24.2 54 54 0 6.9-3.4 19.8-19.9 41.9-13.2 17.8-31 36.3-46.7 52.7-17 17.8-29.6 31.1-37.5 42.5z"/></svg>