<svg version="1.1" xmlns="http://www.w3.org/2000/svg" x="0" y="0" viewBox="0 0 512 512" xml:space="preserve"><style type="text/css">.st0{fill:#35965f}.st1{opacity:.15;fill:#444}</style><path class="st0" d="M283.6 215.6l-.7-3.2c-1.1-4.7 0-9.6 2.9-13.4l15.4-20-45.2 1.8-45.2-1.8 15.4 20c2.9 3.8 4 8.7 2.9 13.4l-.7 3.2c-.4 1.6-.6 3.3-.7 4.9L210.5 463h91l-17.2-242.5c-.1-1.7-.3-3.3-.7-4.9z"/><path class="st1" d="M210.5 463h91l-.9-12.5h-89.2z"/><path class="st0" d="M364.5 512h-217c-8.8 0-16-7.2-16-16v-26c0-4.4 3.6-8 8-8h233c4.4 0 8 3.6 8 8v26c0 8.8-7.2 16-16 16z"/><circle cx="256" cy="98" r="64.7" fill="#79b1d1"/><path class="st0" d="M256 0c-54.1 0-98 43.9-98 98s43.9 98 98 98 98-43.9 98-98-43.9-98-98-98zm0 159.4c-33.9 0-61.4-27.5-61.4-61.4s27.5-61.4 61.4-61.4 61.4 27.5 61.4 61.4-27.5 61.4-61.4 61.4z"/><path class="st1" d="M256 21.5c-42.2 0-76.5 34.3-76.5 76.5s34.3 76.5 76.5 76.5 76.5-34.3 76.5-76.5-34.3-76.5-76.5-76.5zm0 137.9c-33.9 0-61.4-27.5-61.4-61.4s27.5-61.4 61.4-61.4 61.4 27.5 61.4 61.4-27.5 61.4-61.4 61.4z"/><path class="st1" d="M183.1 131.8c0 17.8 6.4 34.1 17 46.7 5.6 3.9 11.6 7.2 18 9.9l7.3 9.5c9.3 4.3 19.7 6.8 30.7 6.8s21.3-2.4 30.7-6.8l7.3-9.5c6.4-2.7 12.4-6 18-9.9 10.6-12.7 17-28.9 17-46.7 0-14.6-4.3-28.2-11.7-39.7.2 1.9.3 3.9.3 5.9 0 33.9-27.5 61.4-61.4 61.4s-61.4-27.5-61.4-61.4c0-2 .1-4 .3-5.9-7.7 11.4-12.1 25-12.1 39.7z"/><path d="M297.1 71.5c-3.4-3.1-8.5 1.1-6.1 5.1 3.8 6.3 6 13.6 6 21.4s-2.2 15.2-6 21.4c-2.4 4 2.7 8.2 6.1 5.1 7.1-6.6 11.5-16 11.5-26.5s-4.4-19.9-11.5-26.5z" opacity=".5" fill="#fff"/><path class="st1" d="M158 98c0 40.7 24.8 75.5 60 90.4l7.3 9.5.9 1.1c2.9 3.8 4 8.7 2.9 13.4l-.7 3.2c-.4 1.6-.6 3.3-.7 4.9L210.6 462h-71.1c-4.4 0-8 3.6-8 8v26c0 8.8 7.2 16 16 16H256V0c-54.1 0-98 43.9-98 98z"/></svg>