<svg version="1.1" xmlns="http://www.w3.org/2000/svg" x="0" y="0" viewBox="0 0 512 512" xml:space="preserve"><style type="text/css">.st0{fill:#79b1d1}</style><ellipse class="st0" cx="256" cy="42" rx="43" ry="8"/><path class="st0" d="M256 50c-23.7 0-43-3.6-43-8v438c0 17.7 19.3 32 43 32s43-14.3 43-32V42c0 4.4-19.3 8-43 8z"/><path d="M256 8h-45l11 64c0 2.8 15.2 5 34 5s34-2.2 34-5l11-64h-45z" fill="#e0ac7e"/><path d="M256 50c-23.7 0-43-3.6-43-8v438c0 17.7 19.3 32 43 32s43-14.3 43-32V42c0 4.4-19.3 8-43 8z" opacity=".5" fill="#79b1d1"/><ellipse cx="256" cy="8" rx="45" ry="8" fill="#c19472"/><path d="M272 102c-4.4 0-8 3.6-8 8v279c0 4.4 3.6 8 8 8s8-3.6 8-8V110c0-4.4-3.6-8-8-8zm0 323c-4.4 0-8 3.6-8 8v40c0 4.4 3.6 8 8 8s8-3.6 8-8v-40c0-4.4-3.6-8-8-8z" opacity=".5" fill="#f4f4f4"/><path d="M211 8c0 .2 0 .3.1.5l5.2 30.5c-2.1.9-3.3 2-3.3 3.1v438c0 17.7 19.3 32 43 32V0c-24.9 0-45 3.6-45 8z" opacity=".15" fill="#444"/></svg>