<svg version="1.1" xmlns="http://www.w3.org/2000/svg" x="0" y="0" viewBox="0 0 512 512" xml:space="preserve"><style type="text/css">.st1{fill:#2e86b7}</style><path d="M360.2 101.3l10.6 7.7c-3.2 4.3-5.7 9.2-7.4 14.4l-14.5-10.6c4.3-3.2 8.2-7.1 11.3-11.5zM249.4 69.6c0 5.6-.8 10.9-2.4 16h18c-1.6-5.1-2.4-10.4-2.4-16h-13.2zm-100.8 53.8l14.5-10.6c-4.3-3.2-8.2-7.1-11.4-11.5l-10.6 7.7c3.2 4.4 5.7 9.2 7.5 14.4zM80.7 319.8c5-1.6 10.4-2.5 16-2.6l-5.6-17.1c-4.4 3.1-9.2 5.6-14.5 7.3l4.1 12.4zm350.6-127.6c-5 1.6-10.4 2.5-16 2.6l5.6 17.1c4.4-3.1 9.2-5.6 14.5-7.3l-4.1-12.4zm-10.5 107.9l-5.6 17.1c5.6.1 10.9 1 16 2.6l4.1-12.5c-5.2-1.6-10.1-4.1-14.5-7.2zM91.2 211.9l5.6-17.1c-5.6-.1-10.9-1-16-2.6l-4.1 12.5c5.2 1.6 10.1 4.1 14.5 7.2zm272.2 176.7l-14.5 10.6c4.3 3.2 8.2 7.1 11.4 11.5l10.6-7.7c-3.2-4.4-5.7-9.2-7.5-14.4zm-100.8 53.8c0-5.6.8-10.9 2.4-16h-18c1.6 5.1 2.4 10.4 2.4 16h13.2zm-99.5-43.3l-14.5-10.6c-1.8 5.2-4.3 10-7.4 14.4l10.6 7.7c3.1-4.3 7-8.2 11.3-11.5z" fill="#ddd"/><path class="st1" d="M316.6 398.4c24.3 0 44 19.7 44 44s-19.7 44-44 44-44-19.7-44-44 19.7-44 44-44m0-16c-33.1 0-60 26.9-60 60s26.9 60 60 60 60-26.9 60-60-26.9-60-60-60z"/><path class="st1" d="M414.6 327.2c24.3 0 44 19.7 44 44s-19.7 44-44 44-44-19.7-44-44 19.7-44 44-44m0-16c-33.1 0-60 26.9-60 60s26.9 60 60 60 60-26.9 60-60-26.9-60-60-60zM97.4 96.8c24.3 0 44 19.7 44 44s-19.7 44-44 44-44-19.7-44-44 19.8-44 44-44m0-16c-33.1 0-60 26.9-60 60s26.9 60 60 60 60-26.9 60-60-26.8-60-60-60z"/><path class="st1" d="M452 212c24.3 0 44 19.7 44 44s-19.7 44-44 44-44-19.7-44-44 19.7-44 44-44m0-16c-33.1 0-60 26.9-60 60s26.9 60 60 60 60-26.9 60-60-26.9-60-60-60z"/><path class="st1" d="M414.6 96.8c24.3 0 44 19.7 44 44s-19.7 44-44 44-44-19.7-44-44 19.7-44 44-44m0-16c-33.1 0-60 26.9-60 60s26.9 60 60 60 60-26.9 60-60-26.9-60-60-60zM195.4 398.4c24.3 0 44 19.7 44 44s-19.7 44-44 44-44-19.7-44-44 19.8-44 44-44m0-16c-33.1 0-60 26.9-60 60s26.9 60 60 60 60-26.9 60-60-26.8-60-60-60zm0-356.8c24.3 0 44 19.7 44 44s-19.7 44-44 44-44-19.7-44-44 19.8-44 44-44m0-16c-33.1 0-60 26.9-60 60s26.9 60 60 60 60-26.9 60-60-26.8-60-60-60zM60 212c24.3 0 44 19.7 44 44s-19.7 44-44 44-44-19.7-44-44 19.7-44 44-44m0-16c-33.1 0-60 26.9-60 60s26.9 60 60 60 60-26.9 60-60-26.9-60-60-60z"/><path class="st1" d="M97.4 327.2c24.3 0 44 19.7 44 44s-19.7 44-44 44-44-19.7-44-44 19.8-44 44-44m0-16c-33.1 0-60 26.9-60 60s26.9 60 60 60 60-26.9 60-60-26.8-60-60-60zM316.6 25.6c24.3 0 44 19.7 44 44s-19.7 44-44 44-44-19.7-44-44 19.7-44 44-44m0-16c-33.1 0-60 26.9-60 60s26.9 60 60 60 60-26.9 60-60-26.9-60-60-60z"/></svg>