<svg version="1.1" xmlns="http://www.w3.org/2000/svg" x="0" y="0" viewBox="0 0 512 512" xml:space="preserve"><path fill="#2e86b7" d="M0 0h512.1v512.1H0z"/><path d="M213.8 25.6V455c0 17.4 18.9 31.3 42.2 31.3s42.2-14 42.2-31.3V25.7l-84.4-.1z" fill="#79b1d1"/><path d="M213.8 25.6V455c0 17.4 18.9 31.3 42.2 31.3s42.2-14 42.2-31.3V25.7l-84.4-.1z" opacity=".5" fill="#79b1d1"/><path d="M224.7 452.2c0 13 13.9 23.3 31.3 23.3s31.3-10.5 31.3-23.3V132.5h-62.7l.1 319.7z" fill="#ffa000"/><path d="M271.7 84.5c-4.3 0-7.8 3.6-7.8 7.8v273.5c0 4.3 3.6 7.8 7.8 7.8 4.3 0 7.8-3.6 7.8-7.8V92.3c.1-4.3-3.5-7.8-7.8-7.8zm0 316.6c-4.3 0-7.8 3.6-7.8 7.8V448c0 4.3 3.6 7.8 7.8 7.8 4.3 0 7.8-3.6 7.8-7.8v-39.1c.1-4.2-3.5-7.8-7.8-7.8z" opacity=".5" fill="#f4f4f4"/><path d="M213.8 25.6V455c0 17.4 18.9 31.3 42.2 31.3V25.7l-42.2-.1z" opacity=".15" fill="#444"/></svg>