<svg version="1.1" xmlns="http://www.w3.org/2000/svg" x="0" y="0" viewBox="0 0 512 512" xml:space="preserve"><path d="M435.3 263.4L393.8 391c-5-1.6-10.4-2.5-16-2.6l43-132.3c4.4 3.1 9.3 5.6 14.5 7.3zm-344.1-7.3c-4.4 3.1-9.2 5.6-14.5 7.3L118.2 391c5-1.6 10.4-2.5 16-2.6l-43-132.3zm197.1-143.2l112.5 81.8c1.8-5.2 4.3-10 7.4-14.4l-108.6-78.9c-3.1 4.3-6.9 8.2-11.3 11.5zm34.8 329.5c0-5.6.8-10.9 2.4-16h-139c1.6 5.1 2.4 10.4 2.4 16h134.2zm-212-247.8l112.5-81.8c-4.3-3.2-8.2-7.1-11.4-11.5l-108.6 78.9c3.2 4.4 5.8 9.2 7.5 14.4z" fill="#36434f"/><path d="M60 168c24.3 0 44 19.7 44 44s-19.7 44-44 44-44-19.7-44-44 19.7-44 44-44m0-16c-33.1 0-60 26.9-60 60s26.9 60 60 60 60-26.9 60-60-26.9-60-60-60zm317.1 246.4c24.3 0 44 19.7 44 44s-19.7 44-44 44-44-19.7-44-44 19.8-44 44-44m0-16c-33.1 0-60 26.9-60 60s26.9 60 60 60 60-26.9 60-60-26.8-60-60-60zm-242.2 16c24.3 0 44 19.7 44 44s-19.7 44-44 44-44-19.7-44-44 19.7-44 44-44m0-16c-33.1 0-60 26.9-60 60s26.9 60 60 60 60-26.9 60-60-26.9-60-60-60zM452 168c24.3 0 44 19.7 44 44s-19.7 44-44 44-44-19.7-44-44 19.7-44 44-44m0-16c-33.1 0-60 26.9-60 60s26.9 60 60 60 60-26.9 60-60-26.9-60-60-60zM256 25.6c24.3 0 44 19.7 44 44s-19.7 44-44 44-44-19.7-44-44 19.7-44 44-44m0-16c-33.1 0-60 26.9-60 60s26.9 60 60 60 60-26.9 60-60-26.9-60-60-60z" fill="#4caf50"/></svg>