<svg xmlns="http://www.w3.org/2000/svg" viewBox="0 0 512 512" style="enable-background:new 0 0 512 512" xml:space="preserve"><path d="m407.77 426.79-111-308.94a181.973 181.973 0 0 1-10.72-61.56V23h-60.09v33.28c0 20.99-3.63 41.81-10.72 61.56l-111 308.94C89.32 468.28 120.07 512 164.16 512h183.68c44.09 0 74.84-43.72 59.93-85.21z" style="fill:#79b1d1"/><path style="fill:#6a93aa" d="M225.95 13h60.09v11h-60.09z"/><path d="M289.5 16h-67c-2.21 0-4-1.79-4-4V4c0-2.21 1.79-4 4-4h67c2.21 0 4 1.79 4 4v8c0 2.21-1.79 4-4 4z" style="fill:#71a1bc"/><path d="M323.22 224H188.78l-74.2 206.5c-5.88 16.36-3.51 33.9 6.49 48.12 10 14.22 25.71 22.38 43.09 22.38h183.68c17.38 0 33.09-8.16 43.09-22.38 10-14.22 12.37-31.76 6.49-48.12L323.22 224z" style="fill:#4caf50"/><path d="M361.33 420.52c-3.28 0-6.36-2.03-7.53-5.3l-11.97-33.31c-1.49-4.16.67-8.74 4.82-10.23 4.16-1.5 8.74.66 10.23 4.82l11.97 33.31c1.49 4.16-.67 8.74-4.82 10.23-.89.33-1.8.48-2.7.48zm-26.71-74.32c-3.28 0-6.36-2.03-7.53-5.3L273.6 192.03c-1.49-4.16.67-8.74 4.82-10.23 4.15-1.49 8.74.66 10.23 4.82l53.49 148.87c1.49 4.16-.67 8.74-4.82 10.23-.88.32-1.8.48-2.7.48z" style="opacity:.5;fill:#fff;enable-background:new"/><path d="M235 455.5h42v4h-42zm0-95h42v4h-42zm0-95h42v4h-42zm0-95h42v4h-42zm0 266h21v4h-21zm0-19h21v4h-21zm0-19h21v4h-21zm0-19h21v4h-21zm0-38h21v4h-21zm0-19h21v4h-21zm0-19h21v4h-21zm0-19h21v4h-21zm0-38h21v4h-21zm0-19h21v4h-21zm0-19h21v4h-21zm0-19h21v4h-21z" style="fill:#f8f8f8"/></svg>