<svg version="1.1" xmlns="http://www.w3.org/2000/svg" x="0" y="0" viewBox="0 0 512 512" xml:space="preserve"><path d="M256 228c15.4 0 28 12.6 28 28s-12.6 28-28 28-28-12.6-28-28 12.6-28 28-28m0-32c-33.1 0-60 26.9-60 60s26.9 60 60 60 60-26.9 60-60-26.9-60-60-60z" fill="#2e86b7"/><path d="M256 32c30.3 0 59.6 5.9 87.2 17.6 26.7 11.3 50.6 27.4 71.2 48s36.7 44.5 48 71.2c11.7 27.6 17.6 56.9 17.6 87.2s-5.9 59.6-17.6 87.2c-11.3 26.7-27.4 50.6-48 71.2s-44.5 36.7-71.2 48C315.6 474.1 286.3 480 256 480s-59.6-5.9-87.2-17.6c-26.7-11.3-50.6-27.4-71.2-48s-36.7-44.5-48-71.2C37.9 315.6 32 286.3 32 256s5.9-59.6 17.6-87.2c11.3-26.7 27.4-50.6 48-71.2s44.5-36.7 71.2-48C196.4 37.9 225.7 32 256 32m0-32C114.6 0 0 114.6 0 256s114.6 256 256 256 256-114.6 256-256S397.4 0 256 0z" fill="#ddd"/></svg>