<svg version="1.1" xmlns="http://www.w3.org/2000/svg" x="0" y="0" viewBox="0 0 512 512" xml:space="preserve"><path d="M452 114v284c-5.6 0-10.9.8-16 2.4V111.6c5.1 1.6 10.4 2.4 16 2.4zm-51.6-38c-1.6-5.1-2.4-10.4-2.4-16H114c0 5.6-.8 10.9-2.4 16h288.8zM111.6 436c1.6 5.1 2.4 10.4 2.4 16h284c0-5.6.8-10.9 2.4-16H111.6zM76 111.6c-5.1 1.6-10.4 2.4-16 2.4v284c5.6 0 10.9.8 16 2.4V111.6z" fill="#ddd"/><path d="M60 16c24.3 0 44 19.7 44 44s-19.7 44-44 44-44-19.7-44-44 19.7-44 44-44m0-16C26.9 0 0 26.9 0 60s26.9 60 60 60 60-26.9 60-60S93.1 0 60 0zm392 408c24.3 0 44 19.7 44 44s-19.7 44-44 44-44-19.7-44-44 19.7-44 44-44m0-16c-33.1 0-60 26.9-60 60s26.9 60 60 60 60-26.9 60-60-26.9-60-60-60zM60 408c24.3 0 44 19.7 44 44s-19.7 44-44 44-44-19.7-44-44 19.7-44 44-44m0-16c-33.1 0-60 26.9-60 60s26.9 60 60 60 60-26.9 60-60-26.9-60-60-60zM452 16c24.3 0 44 19.7 44 44s-19.7 44-44 44-44-19.7-44-44 19.7-44 44-44m0-16c-33.1 0-60 26.9-60 60s26.9 60 60 60 60-26.9 60-60-26.9-60-60-60z" fill="#2e86b7"/></svg>