<svg version="1.1" xmlns="http://www.w3.org/2000/svg" x="0" y="0" viewBox="0 0 512 512" xml:space="preserve"><style type="text/css">.st1{fill:#f4f4f4}.st5{fill:#826049}</style><path d="M0 0h512v512H0V0z" fill="#2e86b7"/><path class="st1" d="M319.6 76.4l10.9-33.7H193.7l10.9 33.7c3.2 10.2.6 21.4-6.9 29.1L154 149.8c-8 8.1-12.4 19-12.4 30.3v277.5c0 15.9 12.9 28.8 28.8 28.8H354c15.9 0 28.8-12.9 28.8-28.8V180.1c0-11.3-4.5-22.2-12.4-30.3l-43.6-44.3c-7.7-7.6-10.4-18.8-7.2-29.1z"/><path d="M155.9 258.7v198.9c0 7.9 6.5 14.4 14.4 14.4h183.6c7.9 0 14.4-6.5 14.4-14.4V258.7H155.9z" fill="#cc584c"/><path d="M245.9 197.5h37.8v3.6h-37.8v-3.6zm0 51.3h18.9v3.6h-18.9v-3.6zm0-17.1h18.9v3.6h-18.9v-3.6zm0-17.1h18.9v3.6h-18.9v-3.6zm0-34.2h18.9v3.6h-18.9v-3.6zm0-17.1h18.9v3.6h-18.9v-3.6zm0-17.1h18.9v3.6h-18.9v-3.6zm0-17.1h18.9v3.6h-18.9v-3.6zm0-17.1h37.8v3.6h-37.8V112z" fill="#999"/><path d="M245.9 454h37.8v3.6h-37.8V454zm0-85.5h37.8v3.6h-37.8v-3.6zm0-85.5h37.8v3.6h-37.8V283zm0 153.9h18.9v3.6h-18.9v-3.6zm0-17.1h18.9v3.6h-18.9v-3.6zm0-17.1h18.9v3.6h-18.9v-3.6zm0-17.1h18.9v3.6h-18.9v-3.6zm0-34.2h18.9v3.6h-18.9v-3.6zm0-17.1h18.9v3.6h-18.9v-3.6zm0-17.1h18.9v3.6h-18.9v-3.6zm0-17.1h18.9v3.6h-18.9v-3.6zm0-34.2h18.9v3.6h-18.9v-3.6z" fill="#f4f4f4fff"/><path class="st5" d="M338.6 25.6h-153c-1.5 0-2.7 1.2-2.7 2.7V40c0 1.5 1.2 2.7 2.7 2.7h14.8c4.5 0 8.5 2.8 10.1 7l14.9 39.2c1.6 4.2 5.6 7 10.1 7h53.4c4.5 0 8.5-2.8 10.1-7l14.8-39.2c1.6-4.2 5.6-7 10.1-7h14.8c1.5 0 2.7-1.2 2.7-2.7V28.3c-.1-1.5-1.3-2.7-2.8-2.7z"/><path class="st5" d="M338.6 42.7h-153c-1.5 0-2.7-1.2-2.7-2.7V28.3c0-1.5 1.2-2.7 2.7-2.7h153c1.5 0 2.7 1.2 2.7 2.7V40c0 1.5-1.2 2.7-2.7 2.7z"/><path d="M330.5 42.7H193.7l10.9 33.7c3 9.2 1.1 19.1-4.7 26.6h124.6c-5.9-7.5-7.7-17.4-4.7-26.6l10.7-33.7z" opacity=".5" fill="#f4f4f4"/><path class="st1" d="M487.1 188.5h-38.7c-3 0-5.4-2.4-5.4-5.4s-2.4-5.4-5.4-5.4H313.4v49.5h124.2c3 0 5.4-2.4 5.4-5.4s2.4-5.4 5.4-5.4h38.7c3 0 5.4-2.4 5.4-5.4v-17.1c0-3-2.4-5.4-5.4-5.4z"/><circle cx="439.9" cy="202.4" r="32" fill="#e0ac7e"/><circle class="st5" cx="439.9" cy="202.4" r="8.1"/><path class="st5" d="M419.9 185l-3.9-3.9c.8-.9 1.6-1.7 2.5-2.5l3.9 3.9c-.9.8-1.7 1.6-2.5 2.5zm51.8 15.6h-5.4c0 .6.1 1.2.1 1.8s0 1.2-.1 1.8h5.4c0-.6.1-1.2.1-1.8s0-1.1-.1-1.8zM459.8 185l3.9-3.9c-.8-.9-1.6-1.7-2.5-2.5l-3.9 3.9c.9.8 1.7 1.6 2.5 2.5zm-46.5 17.4c0-.6 0-1.2.1-1.8H408c0 .6-.1 1.2-.1 1.8s0 1.2.1 1.8h5.4c-.1-.6-.1-1.1-.1-1.8zm26.6-26.5c.6 0 1.2 0 1.8.1v-5.4c-.6 0-1.2-.1-1.8-.1s-1.2 0-1.8.1v5.4c.6-.1 1.1-.1 1.8-.1zm17.4 46.5l3.9 3.9c.9-.8 1.7-1.6 2.5-2.5l-3.9-3.9c-.8.9-1.6 1.7-2.5 2.5zm-37.4-2.5l-3.9 3.9c.8.9 1.6 1.7 2.5 2.5l3.9-3.9c-.9-.8-1.7-1.6-2.5-2.5zm20 9.1c-.6 0-1.2 0-1.8-.1v5.4c.6 0 1.2.1 1.8.1s1.2 0 1.8-.1v-5.4c-.7.1-1.2.1-1.8.1zm-25.2-35l-5-2.1c.4-1.2.9-2.3 1.3-3.3l5 2.1c-.5 1-.9 2.1-1.3 3.3zm53.9-5.4l-5 2.1c.3.5.5 1.1.7 1.6.3.5.4 1.1.6 1.7l5-2.1c-.2-.5-.5-1.2-.6-1.7-.2-.5-.4-1.1-.7-1.6zm-17-9.9l2.1-5c-1.1-.5-2.2-1-3.3-1.3l-2.1 5c1.2.3 2.3.7 3.3 1.3zm-36.3 33.9c-.3-.5-.4-1.1-.6-1.7l-5 2.1c.2.5.5 1.2.6 1.7.3.5.5 1.1.7 1.6l5-2.1c-.2-.5-.5-1-.7-1.6zm14.4-34.7c.5-.3 1.1-.5 1.7-.6l-2.1-5c-.5.2-1.2.4-1.7.6-.5.3-1.1.4-1.6.7l2.1 5c.5-.2 1-.5 1.6-.7zm33.9 36.3l5 2.1c.5-1.1 1-2.2 1.4-3.3l-5-2.1c-.4 1.2-.9 2.3-1.4 3.3zm-35.5 12l-2.1 5c1.1.5 2.2 1 3.3 1.4l2.1-5c-1.2-.4-2.3-.8-3.3-1.4zm21.9.8c-.5.3-1.1.4-1.7.6l2.1 5c.5-.2 1.2-.4 1.7-.6.5-.3 1.1-.4 1.6-.7l-2.1-5c-.5.2-1 .5-1.6.7z"/><path d="M185.6 25.6c-1.5 0-2.7 1.2-2.7 2.7V40c0 1.5 1.2 2.7 2.7 2.7h8.1l10.9 33.7c.2.6.4 1.3.5 1.8.1.2.1.4.2.6l.3 1.2c.1.3.1.5.1.8.1.4.1.7.2 1.1 0 .3.1.5.1.9s.1.6.1 1v2.8c0 .3 0 .5-.1.8 0 .4-.1.7-.1 1.1 0 .2-.1.4-.1.6-.1.4-.1.8-.2 1.2 0 .1 0 .2-.1.3-.4 2.2-1.1 4.3-2 6.4-.2.5-.4 1-.7 1.5 0 0 0 .1-.1.1-.3.5-.5 1-.8 1.4l-.1.1c-.3.4-.5.9-.9 1.3 0 0 0 .1-.1.1-.4.4-.6.9-1 1.3-.7.9-1.4 1.7-2.2 2.5l-43.7 44.4c-8 8.1-12.4 19-12.4 30.3v277.5c0 15.9 12.9 28.8 28.8 28.8h91.8V25.6h-76.5z" opacity=".15" fill="#444"/></svg>