<svg version="1.1" xmlns="http://www.w3.org/2000/svg" x="0" y="0" viewBox="0 0 512 512" xml:space="preserve"><path d="M135.1 404.9l-41.4-52c8.9-7.1 15.4-16.9 18.5-28.2l54.5 68.4c-11.9.5-22.9 4.8-31.6 11.8zm-34.2-129.5l19.5-85.3c-6.6 2.9-13.9 4.5-21.5 4.5-4.1 0-8.1-.5-12-1.4L72 258c11.4 2.6 21.5 8.9 28.9 17.4zm299 49.3l-54.5 68.4c11.9.5 22.8 4.8 31.6 11.7l41.4-52c-8.9-7-15.5-16.8-18.5-28.1zm-187.6 90.4c6.6 9 10.5 20 10.5 32h66.5c0-12 3.9-23 10.5-32h-87.5zm179.4-225l19.5 85.3c7.4-8.6 17.4-14.8 28.9-17.4l-14.8-64.8c-3.9.9-7.9 1.4-12 1.4-7.8 0-15-1.6-21.6-4.5zM207.3 88.3l-59.9 28.8c3.4 7.1 5.3 15 5.3 23.4 0 3.4-.3 6.7-.9 10l78.8-38c-10-5.3-18.3-13.8-23.3-24.2zm151.9 52.3c0-8.4 1.9-16.3 5.3-23.4l-59.9-28.8c-5 10.4-13.2 18.9-23.4 24.3l78.8 38c-.5-3.4-.8-6.7-.8-10.1z" fill="#ddd"/><path d="M343.2 419.1c15.4 0 28 12.6 28 28s-12.6 28-28 28-28-12.6-28-28 12.6-28 28-28m0-32c-33.1 0-60 26.9-60 60s26.9 60 60 60 60-26.9 60-60-26.8-60-60-60zM452 282.7c15.4 0 28 12.6 28 28s-12.6 28-28 28-28-12.6-28-28 12.6-28 28-28m0-32c-33.1 0-60 26.9-60 60s26.9 60 60 60 60-26.9 60-60-26.9-60-60-60zm-392 32c15.4 0 28 12.6 28 28s-12.6 28-28 28-28-12.6-28-28 12.6-28 28-28m0-32c-33.1 0-60 26.9-60 60s26.9 60 60 60 60-26.9 60-60-26.9-60-60-60zm353.2-138.1c15.4 0 28 12.6 28 28s-12.6 28-28 28-28-12.6-28-28 12.5-28 28-28m0-32c-33.1 0-60 26.9-60 60s26.9 60 60 60 60-26.9 60-60-26.9-60-60-60zM256 36.9c15.4 0 28 12.6 28 28s-12.6 28-28 28-28-12.6-28-28 12.6-28 28-28m0-32c-33.1 0-60 26.9-60 60s26.9 60 60 60 60-26.9 60-60-26.9-60-60-60zm-87.2 414.2c15.4 0 28 12.6 28 28s-12.6 28-28 28-28-12.6-28-28 12.5-28 28-28m0-32c-33.1 0-60 26.9-60 60s26.9 60 60 60 60-26.9 60-60-26.9-60-60-60zm-70-274.5c15.4 0 28 12.6 28 28s-12.6 28-28 28-28-12.6-28-28 12.6-28 28-28m0-32c-33.1 0-60 26.9-60 60s26.9 60 60 60 60-26.9 60-60-26.8-60-60-60z" fill="#2e86b7"/></svg>