<svg version="1.1" xmlns="http://www.w3.org/2000/svg" x="0" y="0" viewBox="0 0 512 512" xml:space="preserve"><style type="text/css">.st0{fill:#999}.st1{fill:#36434f}.st2{fill:#2e86b7}</style><path class="st0" d="M183.3 28.8l.8 1.8C275.3-9 381.7 33 421.4 124.1c39.7 91.2-2.3 197.6-93.5 237.3l.8 1.8c92.2-40.1 134.6-147.7 94.5-239.9S275.5-11.2 183.3 28.8z"/><path class="st1" d="M254.191 196.82l3.669-1.594 78.145 179.751-3.669 1.595z"/><path class="st1" d="M321.7 347.2c-.9-.1-7.7-2.3-29.3-40.9-15.3-27.3-33.3-64.3-50.6-104.1s-32.1-78.1-41.6-108c-13.4-42.1-10.4-48.6-9.9-49.3l-1.4-3.2c-3.3 1.4-4 6.5-2.3 16.8 1.4 8.6 4.5 20.4 9.2 35.2 9.5 30.2 24.6 69.4 42.3 110.2s36.1 78.5 51.7 106.1c7.6 13.4 14.2 23.8 19.5 30.7 6.4 8.3 10.5 11.2 13.8 9.8l-1.4-3.3z"/><path class="st2" d="M183.4 293.9c24.8-14.9 58.4-31.7 94.6-47.5s71.4-28.8 99.2-36.8c35.7-10.3 44.4-8 46-7.3l3.8-1.7c-4.7-10.9-72.2 7.9-150.6 42.1-78.5 34.1-138.2 70.6-133.5 81.5l3.8-1.7c.5-1.5 4.8-9.4 36.7-28.6z"/><path class="st1" d="M158.8 265c15.4-27 39.7-59.1 68.8-90.5l-1.7-4C164 237.2 126.7 303 142.6 317.7l2.7-2.9c-4.7-4.3-3.6-19.7 13.5-49.8z"/><path class="st2" d="M242.2 164.4c-86.6 37.7-150.7 82.4-143.1 99.8l3.7-1.6c-1.1-2.6 1.2-7.5 6.3-13.5 6-6.9 15.8-15.2 28.5-24 26.8-18.7 64.5-39 106.2-57.1S326 136.2 358 129.4c15.1-3.2 27.9-4.8 37-4.5 7.9.3 13 1.9 14.1 4.6l3.7-1.6c-7.6-17.5-83.9-1.1-170.6 36.5zm-23.7-54.6C140.1 144 80.3 180.4 85 191.3l3.8-1.7c.6-1.7 4.8-9.6 36.7-28.7 24.8-14.9 58.4-31.7 94.6-47.5s71.4-28.8 99.2-36.8c35.7-10.3 44.4-8 46-7.3l3.8-1.7c-4.7-10.7-72.1 8.1-150.6 42.2z"/><path class="st1" d="M344.2 373.9c1.6 1.3 1.5 3.8-.2 4.9l-5 3.2c-1.1.7-2.3 1.3-3.6 1.6l-5.7 1.4c-2 .5-3.9-1.1-3.7-3.2l.6-6 6.4-2.8 6.4-2.8 4.8 3.7zM186 10.3c.2-2.1-1.7-3.7-3.7-3.2l-5.7 1.4c-1.3.3-2.5.9-3.6 1.6l-5 3.2c-1.7 1.1-1.8 3.6-.2 4.9l4.8 3.7 6.4-2.8 6.4-2.8.6-6zm139.8 346.2C237.3 395 134 354.3 95.5 265.8S97.7 74 186.2 35.6s191.8 2.2 230.3 90.7-2.2 191.8-90.7 230.2zM189.4 42.9C105 79.6 66.1 178.2 102.9 262.6c36.7 84.4 135.3 123.3 219.7 86.6s123.3-135.3 86.6-219.7C372.4 45 273.9 6.2 189.4 42.9z"/><path class="st1" d="M181 23.6C204.3 13.5 228.9 8.3 254 8c24.3-.2 48.1 4.2 70.9 13.1s43.2 22 60.8 38.7c18.2 17.3 32.6 37.9 42.7 61.2s15.4 47.8 15.6 73c.2 24.3-4.2 48.1-13.1 70.9s-22 43.2-38.7 60.8c-17.3 18.2-37.9 32.6-61.2 42.7-23.3 10.1-47.8 15.4-73 15.6-24.3.2-48.1-4.2-70.9-13.1s-43.2-22-60.8-38.7c-18.2-17.3-32.6-37.9-42.7-61.2S68.2 223.2 68 198c-.2-24.3 4.2-48.1 13.1-70.9s22-43.2 38.7-60.8c17.4-18.2 38-32.5 61.2-42.7m-3.2-7.3C78.6 59.5 33.1 174.9 76.3 274.2S234.9 419 334.2 375.8 479 217.2 435.8 117.9 277.1-26.9 177.8 16.3z"/><ellipse class="st0" cx="256" cy="196" rx="147" ry="39.5"/><path class="st1" d="M109 195v2h294v-2H109z"/><path class="st1" d="M221.6 234.5l71.5-76.6c-.9-.1-1.7-.1-2.6-.2L219 234.3c.8 0 1.7.1 2.6.2z"/><path class="st2" d="M328.6 98.2c-24.8 14.9-58.4 31.7-94.6 47.5s-71.4 28.8-99.2 36.8c-35.7 10.3-44.4 8-46 7.3l-3.8 1.7c4.7 10.9 72.2-7.9 150.6-42.1s138.2-70.6 133.5-81.5l-3.8 1.7c-.5 1.5-4.8 9.4-36.7 28.6zm74.2 44.7c-6 6.9-15.8 15.2-28.5 24-26.8 18.7-64.5 39-106.2 57.1S186 255.9 154 262.7c-15.1 3.2-27.9 4.8-37 4.5-7.9-.3-13-1.9-14.1-4.6l-3.7 1.6c7.6 17.5 84 1.1 170.6-36.5s150.7-82.4 143.1-99.8l-3.7 1.6c1.1 2.6-1.2 7.5-6.4 13.4zM293.5 282.3c78.5-34.1 138.2-70.6 133.5-81.5l-3.8 1.7c-.6 1.7-4.8 9.6-36.7 28.7-24.8 14.9-58.4 31.7-94.6 47.5-36.2 15.7-71.4 28.8-99.2 36.8-35.7 10.3-44.4 8-46 7.3l-3.8 1.7c4.7 10.7 72.1-8.1 150.6-42.2z"/><path class="st1" d="M219.6 85.8c15.3 27.3 33.3 64.3 50.6 104.1s32.1 78.1 41.6 108c13.4 42.1 10.4 48.6 9.9 49.3l1.4 3.2c3.3-1.4 4-6.5 2.3-16.8-1.4-8.6-4.5-20.4-9.2-35.2-9.5-30.2-24.6-69.4-42.3-110.2s-36.1-78.5-51.7-106.1c-7.6-13.4-14.2-23.8-19.5-30.7-6.3-8.3-10.5-11.2-13.8-9.8l1.4 3.2c.9.2 7.7 2.4 29.3 41z"/><path class="st1" d="M175.99 17.13l3.668-1.596 78.145 179.752-3.668 1.595zM168.5 312.2c-11.3 4.9-19.8 5.9-23.3 2.7l-2.7 2.9c5 4.7 14.7 3.7 27.6-1.9 28.2-12.3 71.7-46.7 114.8-92.9.3-.3.6-.7.9-1l-1.7-4c-.7.8-1.4 1.5-2.1 2.3-41.2 44.2-84.7 79.4-113.5 91.9zM127 351v-16h-8v19.8c0 1.8.8 3.5 2.2 4.6C157.8 389.8 204.8 408 256 408v-8c-47.9 0-91.9-16.6-126.8-44.3-1.4-1.1-2.2-2.9-2.2-4.7z"/><path class="st1" d="M266.6 397.9c-.1-1.6-1.4-2.9-3-2.9h-15.2c-1.6 0-2.9 1.3-3 2.9l-2.9 75.1h27l-2.9-75.1z"/><path class="st1" d="M247 449l-91.7 27.7c-2.5.8-4.3 3.1-4.3 5.7v3.5c0 3.3 2.7 6 6 6h7.2c2.5 0 5-.3 7.5-.9l75.3-18v-24zm19-2l57 50.2c1.3 1.1 2 2.8 2 4.5v4.3c0 3.3-2.7 6-6 6h-4.2c-1.2 0-2.4-.4-3.4-1L251 470l15-23z"/><path class="st1" d="M266 444l35.5.9c3.1.1 5.6 2.5 5.8 5.6l.3 4.2c.2 3.1-1.9 5.8-4.9 6.3l-39.7 7 3-24z"/></svg>