<svg version="1.1" xmlns="http://www.w3.org/2000/svg" x="0" y="0" viewBox="0 0 512 512" xml:space="preserve"><path d="M413.8 375.4l-38.4 38.4c-8-8-18.4-13.4-30-15.2l53.3-53.3c1.7 11.7 7.2 22.1 15.1 30.1zm6.2-157.1v75.4c9-6.6 20-10.5 32-10.5v-54.4c-12 0-23-3.9-32-10.5zM293.7 92c-6.6-9-10.5-20-10.5-32h-54.4c0 12-3.9 23-10.5 32h75.4zm104.9 74.7c1.8-11.7 7.2-22.1 15.2-30l-38.4-38.4c-8 8-18.4 13.4-30 15.2l53.2 53.2zM113.4 345.3c-1.8 11.7-7.2 22.1-15.2 30l38.4 38.4c8-8 18.4-13.4 30-15.2l-53.2-53.2zM218.3 420c6.6 9 10.5 20 10.5 32h54.4c0-12 3.9-23 10.5-32h-75.4zM92 218.3c-9 6.6-20 10.5-32 10.5v54.4c12 0 23 3.9 32 10.5v-75.4zm21.4-51.6l53.3-53.3c-11.7-1.8-22.1-7.2-30-15.2l-38.4 38.4c7.8 8 13.3 18.4 15.1 30.1z" fill="#ddd"/><path d="M337.2 424c15.4 0 28 12.6 28 28s-12.6 28-28 28-28-12.6-28-28 12.5-28 28-28m0-32c-33.1 0-60 26.9-60 60s26.9 60 60 60 60-26.9 60-60-26.9-60-60-60zM452 309.2c15.4 0 28 12.6 28 28s-12.6 28-28 28-28-12.6-28-28 12.6-28 28-28m0-32c-33.1 0-60 26.9-60 60s26.9 60 60 60 60-26.9 60-60-26.9-60-60-60zM60 146.8c15.4 0 28 12.6 28 28s-12.6 28-28 28-28-12.6-28-28 12.6-28 28-28m0-32c-33.1 0-60 26.9-60 60s26.9 60 60 60 60-26.9 60-60-26.9-60-60-60zm392 32c15.4 0 28 12.6 28 28s-12.6 28-28 28-28-12.6-28-28 12.6-28 28-28m0-32c-33.1 0-60 26.9-60 60s26.9 60 60 60 60-26.9 60-60-26.9-60-60-60zM337.2 32c15.4 0 28 12.6 28 28s-12.6 28-28 28-28-12.6-28-28 12.5-28 28-28m0-32c-33.1 0-60 26.9-60 60s26.9 60 60 60 60-26.9 60-60-26.9-60-60-60zM174.8 424c15.4 0 28 12.6 28 28s-12.6 28-28 28-28-12.6-28-28 12.6-28 28-28m0-32c-33.1 0-60 26.9-60 60s26.9 60 60 60 60-26.9 60-60-26.8-60-60-60zm0-360c15.4 0 28 12.6 28 28s-12.6 28-28 28-28-12.6-28-28 12.6-28 28-28m0-32c-33.1 0-60 26.9-60 60s26.9 60 60 60 60-26.9 60-60-26.8-60-60-60zM60 309.2c15.4 0 28 12.6 28 28s-12.6 28-28 28-28-12.6-28-28 12.6-28 28-28m0-32c-33.1 0-60 26.9-60 60s26.9 60 60 60 60-26.9 60-60-26.9-60-60-60z" fill="#2e86b7"/></svg>