<svg version="1.1" xmlns="http://www.w3.org/2000/svg" x="0" y="0" viewBox="0 0 512 512" xml:space="preserve"><style type="text/css">.st1{fill:#ddd}.st2{fill:#4292be}</style><circle cx="256" cy="256" r="50" fill="#ffa000"/><path class="st1" d="M256 169.6c66.4 0 128.6 10.2 175.1 28.8 21.3 8.5 38.5 18.7 49.8 29.3 10 9.5 15.1 19 15.1 28.2 0 9.3-5.1 18.8-15.1 28.2-11.3 10.6-28.5 20.8-49.8 29.3-46.5 18.6-108.7 28.8-175.1 28.8S127.4 332 80.9 313.4c-21.3-8.5-38.5-18.7-49.8-29.3-10-9.5-15.1-19-15.1-28.2 0-9.3 5.1-18.8 15.1-28.2 11.3-10.6 28.5-20.8 49.8-29.3 46.5-18.6 108.7-28.8 175.1-28.8m0-16C114.6 153.6 0 199.4 0 256s114.6 102.4 256 102.4S512 312.6 512 256 397.4 153.6 256 153.6z"/><path class="st1" d="M360.7 28.4v16c5.9 0 11 1.2 15.3 3.7 8 4.6 13.7 13.8 16.9 27.2 3.6 15.1 3.8 35.1.5 57.8-7.1 49.6-29.4 108.5-62.6 166-28.3 49-62.6 93-96.7 123.8-31.3 28.3-61.5 44.6-82.8 44.6-5.9 0-11-1.2-15.3-3.7-8-4.6-13.7-13.8-16.9-27.2-3.6-15.1-3.8-35.1-.5-57.8 7.1-49.6 29.4-108.5 62.6-166 28.3-49 62.6-93 96.7-123.8 31.3-28.3 61.5-44.6 82.8-44.6v-16m0 0c-52.4 0-132.6 71.2-193.4 176.4C96.6 327.2 79 449.4 128 477.7c6.9 4 14.7 5.9 23.3 5.9 52.4 0 132.6-71.2 193.4-176.4C415.4 184.8 433 62.6 384 34.3c-6.9-4-14.7-5.9-23.3-5.9z"/><path class="st1" d="M151.3 44.4c21.3 0 51.5 16.3 82.8 44.6 34 30.8 68.4 74.8 96.7 123.8 33.2 57.5 55.4 116.5 62.6 166 3.3 22.7 3.1 42.7-.5 57.8-3.2 13.4-8.9 22.6-16.9 27.2-4.4 2.5-9.4 3.7-15.3 3.7-21.3 0-51.5-16.3-82.8-44.6-34-30.8-68.4-74.8-96.7-123.8-33.2-57.5-55.4-116.5-62.6-166-3.3-22.7-3.1-42.7.5-57.8 3.2-13.4 8.9-22.6 16.9-27.2 4.4-2.5 9.4-3.7 15.3-3.7m0-16c-8.6 0-16.4 1.9-23.3 5.9-49 28.3-31.4 150.5 39.3 272.9 60.8 105.2 140.9 176.4 193.4 176.4 8.6 0 16.4-1.9 23.3-5.9 49-28.3 31.4-150.5-39.3-272.9C283.9 99.6 203.8 28.4 151.3 28.4z"/><circle class="st2" cx="61" cy="198" r="30"/><circle class="st2" cx="403" cy="98" r="30"/><circle class="st2" cx="306" cy="454" r="30"/></svg>