<svg version="1.1" xmlns="http://www.w3.org/2000/svg" x="0" y="0" viewBox="0 0 512 512" xml:space="preserve"><path d="M0 0h512v512H0V0z" fill="#2e86b7"/><path d="M287.1 389.5l14.1-11.6c10.1-8.2 15.8-20.5 15.8-33.5V165.9c0-11.4-4.6-22.5-12.7-30.6l-17.8-17.8c-8.1-8.1-12.7-19.1-12.7-30.6V25.6h-36V87c0 11.5-4.6 22.5-12.7 30.6l-17.8 17.8c-8.1 8.1-12.7 19.1-12.7 30.5v178.6c0 13 5.9 25.3 15.8 33.5l14.1 11.6c10.1 8.2 15.8 20.5 15.8 33.5V437c0 27.4 22.1 49.5 49.5 49.5h27v-30.6h-27c-10.4 0-18.9-8.5-18.9-18.9v-14c.4-13.1 6.2-25.3 16.2-33.5z" fill="#f4f4f4"/><path d="M237.1 382.5h37.8v3.6h-37.8v-3.6zm0-85.5h37.8v3.6h-37.8V297zm0-85.6h37.8v3.6h-37.8v-3.6zm0-85.5h37.8v3.6h-37.8v-3.6zm0 239.5H256v3.6h-18.9v-3.6zm0-17.1H256v3.6h-18.9v-3.6zm0-17.2H256v3.6h-18.9v-3.6zm0-17.1H256v3.6h-18.9V314zm0-34.1H256v3.6h-18.9v-3.6zm0-17.1H256v3.6h-18.9v-3.6zm0-17.2H256v3.6h-18.9v-3.6zm0-17H256v3.6h-18.9v-3.6zm0-34.2H256v3.6h-18.9v-3.6zm0-17.1H256v3.6h-18.9v-3.6zm0-17.2H256v3.6h-18.9v-3.6zm0-17H256v3.6h-18.9v-3.6z" fill="#999"/><path d="M302.8 151.1v134.1c0 4-3.2 7.2-7.2 7.2s-7.2-3.2-7.2-7.2V151.1c0-4 3.2-7.2 7.2-7.2s7.2 3.3 7.2 7.2zm-7.2 166.5c-4 0-7.2 3.2-7.2 7.2v36c0 4 3.2 7.2 7.2 7.2s7.2-3.2 7.2-7.2v-36c0-3.9-3.3-7.2-7.2-7.2z" opacity=".5" fill="#f4f4f4"/><path d="M225.3 117.5l-17.8 17.8c-8.1 8.1-12.7 19.1-12.7 30.5v178.6c0 13 5.9 25.3 15.8 33.5l14.1 11.6c10.1 8.2 15.8 20.5 15.8 33.5v13.9c0 14 5.9 26.7 15.3 35.7v-447h-18V87c.2 11.4-4.4 22.4-12.5 30.5z" opacity=".15" fill="#444"/></svg>