<svg version="1.1" xmlns="http://www.w3.org/2000/svg" x="0" y="0" viewBox="0 0 512 512" xml:space="preserve"><style type="text/css">.st0{fill:#f4f4f4}</style><path class="st0" d="M244.3 46.8h.4-.4zm43.2 1.9c-8.5 1.6-19.7 2.4-31.5 2.4s-23-.9-31.5-2.4c-3.2-.6-5.8-1.2-8-2v435.8c0 15.6 17.7 28.4 39.5 28.4s39.5-12.7 39.5-28.4V46.7c-2.2.8-4.8 1.4-8 2zm-49-2.3h-.2.5-.3zm35 0h-.3.5-.2zm-6.2.4c-.1 0-.1 0 0 0h.4-.4z"/><ellipse class="st0" cx="256" cy="46" rx="39.6" ry="7.4"/><path d="M256 145c-17.7 0-32 2.7-32 6v326.2c0 13.2 14.3 23.8 32 23.8s32-10.7 32-23.8V151c0-3.3-14.3-6-32-6z" fill="#cc584c"/><path d="M256 8h-43l10.5 64c0 2.8 14.5 5 32.5 5s32.5-2.2 32.5-5L299 8h-43z" fill="#e0ac7e"/><ellipse cx="256" cy="8" rx="43" ry="8" fill="#c19472"/><path d="M293.4 42.1l-.6 3.9h-.1c-3.3 1.1-9.2 2.4-17.7 3.2-3.2.3-6.7.5-10.3.7 1 0 1.9-.1 2.8-.1-3.5.1-7.3.2-11.5.2s-8-.1-11.5-.3c.9 0 1.8.1 2.8.1-3.6-.1-7-.4-10.3-.7-8.5-.8-14.4-2-17.7-3.2h-.1l-.6-3.9c-3.6 1.2-5.6 2.5-5.6 3.9v434c0 17.7 19.3 32 43 32s43-14.3 43-32V46c0-1.4-2-2.8-5.6-3.9zM275 49.2c-.7.1-1.3.1-2 .2.6-.1 1.3-.2 2-.2zm-36 .1c-.7-.1-1.3-.1-2-.2.7.1 1.4.2 2 .2zM295 480c0 15.4-17.5 28-39 28s-39-12.6-39-28V49.6c2.2.7 4.8 1.4 7.9 1.9 8.4 1.6 19.4 2.4 31.1 2.4s22.7-.9 31.1-2.4c3.1-.6 5.7-1.2 7.9-1.9V480z" fill="#999"/><path d="M272 102c-4.4 0-8 3.6-8 8v279c0 4.4 3.6 8 8 8s8-3.6 8-8V110c0-4.4-3.6-8-8-8zm0 323c-4.4 0-8 3.6-8 8v40c0 4.4 3.6 8 8 8s8-3.6 8-8v-40c0-4.4-3.6-8-8-8z" opacity=".5" fill="#f4f4f4"/><path d="M213 8c0 .2 0 .3.1.5l5.5 33.5c-3.6 1.2-5.6 2.5-5.6 3.9v434c0 17.7 19.3 32 43 32V0c-23.7 0-43 3.6-43 8z" opacity=".15" fill="#444"/></svg>