<svg version="1.1" xmlns="http://www.w3.org/2000/svg" x="0" y="0" viewBox="0 0 512 512" xml:space="preserve"><path d="M226.4 76c1.6-5.1 2.4-10.4 2.4-16h54.4c0 5.6.8 10.9 2.4 16h-59.2zM436 226.4v59.2c5.1-1.6 10.4-2.4 16-2.4v-54.4c-5.6 0-10.9-.8-16-2.4zM226.4 436c1.6 5.1 2.4 10.4 2.4 16h54.4c0-5.6.8-10.9 2.4-16h-59.2zm177.8-73.7l-41.9 41.9c4.8 2.5 9.2 5.8 13 9.6l38.4-38.4c-3.7-3.8-6.9-8.2-9.5-13.1zm0-212.6c2.5-4.8 5.8-9.2 9.6-13l-38.4-38.4c-3.8 3.8-8.2 7.1-13 9.6l41.8 41.8zm-296.4 0l41.9-41.9c-4.8-2.5-9.2-5.8-13-9.6l-38.4 38.4c3.7 3.8 6.9 8.2 9.5 13.1zm0 212.6c-2.5 4.8-5.8 9.2-9.6 13l38.4 38.4c3.8-3.8 8.2-7.1 13-9.6l-41.8-41.8zM76 226.4c-5.1 1.6-10.4 2.4-16 2.4v54.4c5.6 0 10.9.8 16 2.4v-59.2z" fill="#ddd"/><path d="M337.2 408c24.3 0 44 19.7 44 44s-19.7 44-44 44-44-19.7-44-44 19.7-44 44-44m0-16c-33.1 0-60 26.9-60 60s26.9 60 60 60 60-26.9 60-60-26.9-60-60-60zM452 293.2c24.3 0 44 19.7 44 44s-19.7 44-44 44-44-19.7-44-44 19.7-44 44-44m0-16c-33.1 0-60 26.9-60 60s26.9 60 60 60 60-26.9 60-60-26.9-60-60-60zM60 130.8c24.3 0 44 19.7 44 44s-19.7 44-44 44-44-19.7-44-44 19.7-44 44-44m0-16c-33.1 0-60 26.9-60 60s26.9 60 60 60 60-26.9 60-60-26.9-60-60-60zm392 16c24.3 0 44 19.7 44 44s-19.7 44-44 44-44-19.7-44-44 19.7-44 44-44m0-16c-33.1 0-60 26.9-60 60s26.9 60 60 60 60-26.9 60-60-26.9-60-60-60zM337.2 16c24.3 0 44 19.7 44 44s-19.7 44-44 44-44-19.7-44-44 19.7-44 44-44m0-16c-33.1 0-60 26.9-60 60s26.9 60 60 60 60-26.9 60-60-26.9-60-60-60zM174.8 408c24.3 0 44 19.7 44 44s-19.7 44-44 44-44-19.7-44-44 19.8-44 44-44m0-16c-33.1 0-60 26.9-60 60s26.9 60 60 60 60-26.9 60-60-26.8-60-60-60zm0-376c24.3 0 44 19.7 44 44s-19.7 44-44 44-44-19.7-44-44 19.8-44 44-44m0-16c-33.1 0-60 26.9-60 60s26.9 60 60 60 60-26.9 60-60-26.8-60-60-60zM60 293.2c24.3 0 44 19.7 44 44s-19.7 44-44 44-44-19.7-44-44 19.7-44 44-44m0-16c-33.1 0-60 26.9-60 60s26.9 60 60 60 60-26.9 60-60-26.9-60-60-60z" fill="#2e86b7"/></svg>