<svg version="1.1" xmlns="http://www.w3.org/2000/svg" x="0" y="0" viewBox="0 0 512 512" xml:space="preserve"><path d="M209.1 0v477.1c0 19.3 21 34.8 46.9 34.8s46.9-15.5 46.9-34.8V.1L209.1 0z" fill="#79b1d1"/><path d="M209.1 0v477.1c0 19.3 21 34.8 46.9 34.8s46.9-15.5 46.9-34.8V.1L209.1 0z" opacity=".5" fill="#79b1d1"/><path d="M221.2 474c0 14.4 15.5 25.9 34.8 25.9s34.8-11.7 34.8-25.9V118.8h-69.7V474h.1z" fill="#ffa000"/><path d="M273.4 65.4c-4.8 0-8.7 4-8.7 8.7V378c0 4.8 4 8.7 8.7 8.7 4.8 0 8.7-4 8.7-8.7V74.1c.1-4.8-3.9-8.7-8.7-8.7zm0 351.8c-4.8 0-8.7 4-8.7 8.7v43.5c0 4.8 4 8.7 8.7 8.7 4.8 0 8.7-4 8.7-8.7v-43.5c.1-4.7-3.9-8.7-8.7-8.7z" opacity=".5" fill="#f4f4f4"/><path d="M209.1 0v477.1c0 19.3 21 34.8 46.9 34.8V.1L209.1 0z" opacity=".15" fill="#444"/></svg>