<svg version="1.1" xmlns="http://www.w3.org/2000/svg" x="0" y="0" viewBox="0 0 512 512" xml:space="preserve"><ellipse fill="#79b1d1" cx="256" cy="42" rx="43" ry="8"/><path fill="#79b1d1" d="M256 50c-23.7 0-43-3.6-43-8v438c0 17.7 19.3 32 43 32s43-14.3 43-32V42c0 4.4-19.3 8-43 8z"/><path fill="#E0AC7E" d="M256 8h-45l11 64c0 2.8 15.2 5 34 5s34-2.2 34-5l11-64h-45z"/><path opacity=".5" fill="#79b1d1" d="M256 50c-23.7 0-43-3.6-43-8v438c0 17.7 19.3 32 43 32s43-14.3 43-32V42c0 4.4-19.3 8-43 8z"/><path fill="#FFA000" d="M256 145c-17.7 0-32 2.7-32 6v326.2c0 13.2 14.3 23.8 32 23.8s32-10.7 32-23.8V151c0-3.3-14.3-6-32-6z"/><ellipse fill="#C19472" cx="256" cy="8" rx="45" ry="8"/><path opacity=".5" fill="#f4f4f4" d="M272 102c-4.4 0-8 3.6-8 8v279c0 4.4 3.6 8 8 8s8-3.6 8-8V110c0-4.4-3.6-8-8-8zm0 323c-4.4 0-8 3.6-8 8v40c0 4.4 3.6 8 8 8s8-3.6 8-8v-40c0-4.4-3.6-8-8-8z"/><path opacity=".15" fill="#444" d="M211 8c0 .2 0 .3.1.5l5.2 30.5c-2.1.9-3.3 2-3.3 3.1v438c0 17.7 19.3 32 43 32V0c-24.9 0-45 3.6-45 8z"/></svg>