<svg version="1.1" xmlns="http://www.w3.org/2000/svg" x="0" y="0" viewBox="0 0 512 512" xml:space="preserve"><style type="text/css">.st1{fill:#2e86b7}</style><path d="M76.7 307.4c11.1-3.6 20.5-10.6 27.2-19.9l10.6 32.5c-5.3-1.8-11.1-2.7-17-2.7-5.8 0-11.4.9-16.7 2.6l-4.1-12.5zM249.4 69.6c0 12-3.9 23-10.5 32h34.2c-6.6-9-10.5-20-10.5-32h-13.2zm110.8 31.7c-6.7 9.2-16.2 16.2-27.3 19.7l27.6 20.1v-.3c0-11.9 3.8-22.8 10.3-31.7l-10.6-7.8zm71.1 90.9c-5.3 1.7-10.9 2.6-16.7 2.6-5.9 0-11.6-1-17-2.7l10.6 32.5c6.6-9.2 16.1-16.3 27.2-19.9l-4.1-12.5zm-279.9-51.4v.3L179 121c-11.1-3.5-20.6-10.5-27.3-19.7l-10.6 7.7c6.5 9 10.3 19.9 10.3 31.8zm209.2 230.4v-.3l-27.6 20c11.1 3.5 20.6 10.5 27.3 19.7l10.6-7.7c-6.5-8.9-10.3-19.8-10.3-31.7zm47.5-83.7L397.5 320c5.3-1.8 11.1-2.7 17-2.7 5.8 0 11.4.9 16.7 2.6l4.1-12.5c-11-3.6-20.5-10.7-27.2-19.9zM262.6 442.4c0-12 3.9-23 10.5-32h-34.2c6.6 9 10.5 20 10.5 32h13.2zm-110.8-31.7c6.7-9.2 16.2-16.2 27.3-19.7l-27.6-20.1v.3c0 11.9-3.8 22.8-10.3 31.7l10.6 7.8zm-47.9-186.2l10.6-32.5c-5.3 1.8-11.1 2.7-17 2.7-5.8 0-11.4-.9-16.7-2.6l-4.1 12.5c11 3.6 20.5 10.7 27.2 19.9z" fill="#36434f"/><path class="st1" d="M316.6 414.4c15.4 0 28 12.6 28 28s-12.6 28-28 28-28-12.6-28-28 12.5-28 28-28m0-32c-33.1 0-60 26.9-60 60s26.9 60 60 60 60-26.9 60-60-26.9-60-60-60z"/><path class="st1" d="M414.6 343.2c15.4 0 28 12.6 28 28s-12.6 28-28 28-28-12.6-28-28 12.5-28 28-28m0-32c-33.1 0-60 26.9-60 60s26.9 60 60 60 60-26.9 60-60-26.9-60-60-60zM97.7 113.1c15.4 0 28 12.6 28 28s-12.6 28-28 28-28-12.6-28-28 12.6-28 28-28m0-32c-33.1 0-60 26.9-60 60s26.9 60 60 60 60-26.9 60-60-26.8-60-60-60z"/><path class="st1" d="M452 228c15.4 0 28 12.6 28 28s-12.6 28-28 28-28-12.6-28-28 12.6-28 28-28m0-32c-33.1 0-60 26.9-60 60s26.9 60 60 60 60-26.9 60-60-26.9-60-60-60z"/><path class="st1" d="M414.6 112.8c15.4 0 28 12.6 28 28s-12.6 28-28 28-28-12.6-28-28 12.5-28 28-28m0-32c-33.1 0-60 26.9-60 60s26.9 60 60 60 60-26.9 60-60-26.9-60-60-60zM195.4 414.4c15.4 0 28 12.6 28 28s-12.6 28-28 28-28-12.6-28-28 12.6-28 28-28m0-32c-33.1 0-60 26.9-60 60s26.9 60 60 60 60-26.9 60-60-26.8-60-60-60zm.3-340.5c15.4 0 28 12.6 28 28s-12.6 28-28 28-28-12.6-28-28 12.6-28 28-28m0-32c-33.1 0-60 26.9-60 60s26.9 60 60 60 60-26.9 60-60-26.8-60-60-60zM60 228c15.4 0 28 12.6 28 28s-12.6 28-28 28-28-12.6-28-28 12.6-28 28-28m0-32c-33.1 0-60 26.9-60 60s26.9 60 60 60 60-26.9 60-60-26.9-60-60-60z"/><path class="st1" d="M97.4 343.2c15.4 0 28 12.6 28 28s-12.6 28-28 28-28-12.6-28-28 12.6-28 28-28m0-32c-33.1 0-60 26.9-60 60s26.9 60 60 60 60-26.9 60-60-26.8-60-60-60zM316.9 41.9c15.4 0 28 12.6 28 28s-12.6 28-28 28-28-12.6-28-28 12.5-28 28-28m0-32c-33.1 0-60 26.9-60 60s26.9 60 60 60 60-26.9 60-60-26.9-60-60-60z"/></svg>