<svg version="1.1" xmlns="http://www.w3.org/2000/svg" x="0" y="0" viewBox="0 0 512 512" xml:space="preserve"><style type="text/css">.st1{fill:#4caf50}</style><path d="M29.1 137.5L256 256V0C157.4 0 71.8 55.8 29.1 137.5z" fill="#eec646"/><path class="st1" d="M386.5 35.7L256 256l170 191h.5C479 400.1 512 331.9 512 256c0-93.7-50.4-175.7-125.5-220.3z"/><path class="st1" d="M401.3 45.2C360 16.7 310 0 256 0v256s82.5-120.1 145.3-210.8z"/><path d="M401.5 45.4L256 256l170.3 191.1C478.9 400.2 512 332 512 256c0-87.3-43.7-164.4-110.5-210.6z" fill="#79b1d1"/><path d="M426 447L256 256 29.2 137.1C10.6 172.6 0 213.1 0 256c0 141.4 114.6 256 256 256 65.3 0 125-24.5 170.2-64.8l-.2-.2z" fill="#cc584c"/></svg>