<svg version="1.1" xmlns="http://www.w3.org/2000/svg" x="0" y="0" viewBox="0 0 512 512" xml:space="preserve"><style type="text/css">.st1{fill:#f4f4f4}.st2{opacity:.15;fill:#444;enable-background:new}</style><path d="M0 0h512v512H0V0z" fill="#2e86b7"/><path class="st1" d="M377.2 358.6c-6.6 0-13-3.7-16.1-10-1.1-2.3-10.9-22.6-10.9-50.3 0-16.5 14.6-32.4 42.6-61.6 14.1-14.8 30.1-31.4 42-47.4 14.9-19.9 17.9-31.5 17.9-37.7 0-26.8-21.8-48.6-48.6-48.6-26.7 0-48.5 21.7-48.6 48.4 0 9.9-8.1 18.1-17.9 18.2-10 0-18.1-8-18.1-18 0-46.6 38-84.6 84.6-84.6s84.6 38 84.6 84.6c0 37-37.2 75.8-70 110-8.2 8.5-18.3 19-25.1 27.3-5.3 6.4-7.7 14.9-6.4 23 2 12.3 5.9 20.5 6 20.6 4.4 8.9.8 19.7-8 24.1-2.5 1.4-5.3 2-8 2z"/><path class="st1" d="M409.5 448.9l-71.9-48 63.9-375.3H76.8c-5.1 0-7.4 6.5-3.3 9.6L93 50.8c5.1 4 8.7 9.7 10.2 16.1l76.1 334-71.9 48c-4 2.7-6.4 7.2-6.4 12v25.6h315v-25.6c-.1-4.9-2.5-9.4-6.5-12z"/><path class="st2" d="M413.7 453.1H103.2c-1.4 2.3-2.3 4.9-2.3 7.7v25.6h315v-25.6c0-2.8-.8-5.4-2.2-7.7z"/><path class="st2" d="M337.6 400.9H179.2l-71.9 48c-4 2.7-6.4 7.2-6.4 12v25.6h315v-25.6c0-4.8-2.4-9.3-6.4-12l-71.9-48z"/><path d="M142.1 173.2l43.5 190.9c3 13.1 14.7 22.4 28.1 22.4h87.5c14 0 26-10.1 28.4-23.9l32.2-189.4H142.1z" fill="#cc584c"/><path d="M239.5 368.5h37.8v3.6h-37.8v-3.6zm0-85.5h37.8v3.6h-37.8V283zm0-85.5h37.8v3.6h-37.8v-3.6zm0 153.9h18.9v3.6h-18.9v-3.6zm0-17.1h18.9v3.6h-18.9v-3.6zm0-17.1h18.9v3.6h-18.9v-3.6zm0-17.1h18.9v3.6h-18.9v-3.6zm0-34.2h18.9v3.6h-18.9v-3.6zm0-17.1h18.9v3.6h-18.9v-3.6zm0-17.1h18.9v3.6h-18.9v-3.6zm0-17.1h18.9v3.6h-18.9v-3.6zm0-34.2h18.9v3.6h-18.9v-3.6z" fill="#f4f4f4"/><path d="M239.5 112h37.8v3.6h-37.8V112zm0 51.3h18.9v3.6h-18.9v-3.6zm0-17.1h18.9v3.6h-18.9v-3.6zm0-17.1h18.9v3.6h-18.9v-3.6z" fill="#999"/><path d="M351.9 77.4c-4-.5-7.6 2.3-8.3 6.2l-26.2 181.2c-.5 4.1 2.3 7.7 6.2 8.3 4 .5 7.6-2.3 8.3-6.2l26.2-181.2c.7-3.9-2.2-7.6-6.2-8.3zm-32 221.1c-4-.5-7.6 2.3-8.3 6.2l-5.2 36.2c-.5 4 2.3 7.6 6.2 8.3 4.1.5 7.7-2.3 8.3-6.2l5.2-36.2c.6-4-2.2-7.8-6.2-8.3z" opacity=".5" fill="#f4f4f4"/></svg>