<svg version="1.1" xmlns="http://www.w3.org/2000/svg" x="0" y="0" viewBox="0 0 512 512" xml:space="preserve"><path d="M138.2 128L204 90c2.7 4.7 6 9 9.9 12.8L144.3 143c-1.3-5.4-3.4-10.4-6.1-15zm-35.9 87.8c-5.1 1.4-10.5 2.2-16 2.2v76c5.5 0 10.9.8 16 2.2v-80.4zm195.8-113l69.6 40.2c1.4-5.3 3.5-10.3 6.1-14.9L308 90c-2.8 4.7-6.1 9-9.9 12.8zm111.6 113v80.3c5.1-1.4 10.5-2.2 16-2.2v-76c-5.5.1-10.9-.7-16-2.1zm-42.1 153.3L298 409.3c3.8 3.8 7.2 8.1 9.9 12.8l65.8-38c-2.6-4.7-4.7-9.7-6.1-15zm-153.7 40.1L144.3 369c-1.4 5.3-3.5 10.3-6.1 14.9l65.8 38c2.8-4.6 6.1-8.9 9.9-12.7z" fill="#ddd"/><path d="M86.3 114c24.3 0 44 19.7 44 44s-19.7 44-44 44-44-19.7-44-44 19.7-44 44-44m0-16c-33.1 0-60 26.9-60 60s26.9 60 60 60 60-26.9 60-60-26.9-60-60-60zm339.4 212c24.3 0 44 19.7 44 44s-19.7 44-44 44-44-19.7-44-44 19.8-44 44-44m0-16c-33.1 0-60 26.9-60 60s26.9 60 60 60 60-26.9 60-60-26.8-60-60-60zM86.3 310c24.3 0 44 19.7 44 44s-19.7 44-44 44-44-19.7-44-44 19.7-44 44-44m0-16c-33.1 0-60 26.9-60 60s26.9 60 60 60 60-26.9 60-60-26.9-60-60-60zm339.4-180c24.3 0 44 19.7 44 44s-19.7 44-44 44-44-19.7-44-44 19.8-44 44-44m0-16c-33.1 0-60 26.9-60 60s26.9 60 60 60 60-26.9 60-60-26.8-60-60-60zM256 16c24.3 0 44 19.7 44 44s-19.7 44-44 44-44-19.7-44-44 19.7-44 44-44m0-16c-33.1 0-60 26.9-60 60s26.9 60 60 60 60-26.9 60-60-26.9-60-60-60zm0 408c24.3 0 44 19.7 44 44s-19.7 44-44 44-44-19.7-44-44 19.7-44 44-44m0-16c-33.1 0-60 26.9-60 60s26.9 60 60 60 60-26.9 60-60-26.9-60-60-60z" fill="#2e86b7"/></svg>