<svg version="1.1" xmlns="http://www.w3.org/2000/svg" x="0" y="0" viewBox="0 0 512 512" xml:space="preserve"><style type="text/css">.st1{fill:#36434f}</style><path d="M219.3 218.5c0-2.1 1.6-3.4 3-4.6 3-2.7 6.3-5 9.8-7 1.4-.8 2.9-1.3 4.5-.6 1.4.6 2.3 2.1 2.3 3.6s-.8 2.9-2.2 3.6c-1.7 1-3.4 1.9-5 3.1-1.6 1.1-3.1 2.4-4.6 3.7-1.3 1.2-2.5 2.4-4.5 2.1-1.9-.3-3.3-2-3.3-3.9zm17.8 69.8c-3.5-1.8-6.8-4-9.7-6.7-1.3-1.2-2.4-2.3-4.2-2.1-1.6.2-2.9 1.3-3.4 2.8-.5 1.6.1 3.1 1.3 4.3 1.4 1.4 2.9 2.7 4.5 3.9 1.6 1.2 3.3 2.4 5 3.4 1.5.9 3.2 2.2 5.1 2 3.9-.4 4.9-5.8 1.4-7.6zm10.8-78.9c.9.1 1.9-.1 2.8-.2 1.2-.1 2.3-.2 3.5-.3 2.1-.1 4.1 0 6.2.2 1.7.2 3.4.6 4.9-.5 1.1-.8 1.8-2.3 1.6-3.7-.5-4-5.3-3.8-8.3-4-2.2-.1-4.3-.1-6.5.1-1.8.1-4.1.1-5.6 1-3.2 1.8-2.2 6.8 1.4 7.4zm-33.4 48.2c-.5-3.2-4.5-4.4-6.8-2.2-1.2 1.2-1.3 2.8-1 4.4.4 2 .8 3.9 1.4 5.8.6 2 1.4 3.9 2.2 5.8.7 1.6 1.4 3.4 3.1 4.2 3.1 1.3 6.5-1.8 5.3-5-.4-1-1-2-1.4-3-.5-1.1-.9-2.1-1.3-3.2-.5-2.3-1.1-4.5-1.5-6.8zm-4.6-9.8c1.5.2 3.1-.5 3.9-1.8 1-1.5 1-3.7 1.4-5.4.5-2.1 1.2-4.1 2-6 .7-1.6 1.8-3.2 1.6-4.9-.4-3.3-4.6-4.6-6.8-2.3-1.3 1.3-1.9 3.6-2.6 5.3-.7 1.9-1.4 3.9-1.9 5.9-.4 1.8-1.2 4-1 5.8.3 1.7 1.7 3.1 3.4 3.4zm75.9 32.6c-2.8 2.8-5.9 5.2-9.4 7.1-1.5.8-2.8 1.5-3.3 3.2-.4 1.5.2 3.2 1.5 4.2 1.5 1.2 3.3.9 4.9 0 1.7-.9 3.4-2 5.1-3.1 1.6-1.1 3.1-2.3 4.5-3.5 1.3-1.1 3-2.3 3.4-4.1 1.1-3.8-3.8-6.7-6.7-3.8zm-23 11.9c-4.3.7-8.6.6-12.9.1-3.1-.4-5.9 2.6-4.4 5.6.6 1.3 1.8 2 3.2 2.3 2.1.4 4.3.5 6.5.5s4.3-.1 6.4-.3c1.7-.2 3.6-.2 4.8-1.6 2.5-2.7 0-7.2-3.6-6.6zm39.3-38.6c-1.5-.2-3.1.5-3.9 1.7-.9 1.4-.9 3.4-1.3 4.9-.5 2-1.1 3.9-1.8 5.8-.6 1.6-2 3.4-2 5.2-.1 3.5 4.2 5.4 6.7 3.1 1.4-1.3 2-3.6 2.7-5.3.8-2 1.4-4 2-6.1.5-1.8 1.2-4 1-5.9-.2-1.7-1.6-3.1-3.4-3.4zm-4.7-9.8c.6 3.3 4.9 4.5 7 1.9 1.1-1.4.9-3 .6-4.6-.4-2-.9-4-1.6-6-.6-2-1.4-3.9-2.3-5.8-.7-1.5-1.4-3.1-3.2-3.6-3-1-6 2-5 5 .3 1 .9 2 1.4 2.9.5 1.1.9 2.1 1.3 3.2.9 2.3 1.5 4.7 1.8 7zm-22.6-30.7c3.5 1.8 6.8 4 9.7 6.7 1.4 1.3 2.6 2.4 4.6 2 1.6-.3 2.9-1.7 3.1-3.3.3-1.8-.7-3.1-1.9-4.2-1.4-1.4-3-2.6-4.5-3.8-1.6-1.2-3.3-2.3-5.1-3.3-1.4-.8-3-1.9-4.7-1.6-3.8.6-4.6 5.8-1.2 7.5z" fill="#cc584c"/><path class="st1" d="M197.6 155.1zm-91.3 260.6c1.8-.9 2.2-2.6 2.1-4.5-.1-2.5-.2-5-.2-7.4 0-1.4 0-2.8.1-4.2 0-1.2.2-2.6.1-3.8-.3-2-2-3.5-4-3.5-1.8 0-3.4 1.3-3.9 3-.2 1-.2 2.1-.2 3.1-.1 4.2-.1 8.3.1 12.5.1 1.5.1 2.9 1.2 4.1 1.2 1.2 3.2 1.5 4.7.7zm7.3 25.4c-.4-1.3-.8-2.5-1.2-3.8-.8-2.9-1.5-5.8-2.1-8.8-.2-1.2-.3-2.5-1.2-3.4-.7-.7-1.8-1.3-3-1.3-2 0-3.8 1.6-4 3.6-.1.9.2 1.9.3 2.8.7 3.8 1.6 7.6 2.8 11.2.7 2.2 1.3 4.8 3.9 5.3 2.1.4 4.2-.9 4.7-2.9.2-.9.1-1.8-.2-2.7zm-6.5-57c2-.8 2.4-2.5 2.7-4.4.3-2.5.6-5 1-7.6l.6-4.2c.2-1.2.6-2.5.5-3.7-.1-2-1.9-3.7-4-3.7-1.8 0-3.4 1.3-3.9 3.1-.5 2.1-.7 4.4-1.1 6.5-.3 2.3-.7 4.6-.9 7-.2 2-.8 4.1.5 5.8 1.1 1.3 3 1.9 4.6 1.2zm78 78c-1 0-1.9.5-2.9.9s-2 .9-3 1.3c-1.9.8-3.9 1.5-5.9 2.2-2.8 1-7.5 1.6-6.9 5.7.2 1.6 1.4 2.9 2.9 3.3 1.8.5 3.9-.5 5.6-1.1 2.1-.7 4.1-1.4 6.2-2.2 2-.8 4.1-1.5 6-2.5 3.4-2.2 2-7.6-2-7.6zm-28.3 8.5c-1.5-.6-3.5-.2-5.1-.2-2 0-3.9-.1-5.9-.3-.9-.1-1.9-.3-2.8-.4-.9-.3-1.8-.6-2.7-.6-2.4 0-4.3 2.2-4 4.6.4 2.9 3.2 3.4 5.7 3.9 2.8.5 5.7.8 8.6.8h2.6c1.6-.1 3.4 0 4.7-1.1 1-.9 1.5-2.3 1.3-3.7-.2-1.3-1.1-2.5-2.4-3zm7-260.5c-3 0-4.1 3.1-5.3 5.3-.5 1-1.1 2-1.6 3-.3.6-.6 1.1-.9 1.7-.6 1.2-1.2 2.3-1.8 3.5-.7 1.3-1.6 2.7-1.9 4.1-.5 2.4 1.4 4.8 3.9 4.8 3.3 0 4.4-3.7 5.6-6.1 1.8-3.4 3.7-6.8 5.5-10.2 1.3-2.8-.4-6.1-3.5-6.1zm-24.2 61.2c-.4-1.8-2-3.1-3.9-3.1-1.6 0-3 1-3.7 2.5-.9 2-1.7 4.1-2.5 6.1s-1.6 4.1-2.4 6.1c-.6 1.6-1.7 3.4-1.3 5.2.8 3.4 5.4 4.2 7.3 1.3.5-.8.8-1.8 1.1-2.7.4-1.1.8-2.2 1.3-3.3.8-2.1 1.6-4.1 2.5-6.2.7-1.8 2.1-3.9 1.6-5.9zm-28.2 81.4c2-.1 3.3-1.6 3.7-3.5.6-2.5 1.1-5 1.7-7.5.4-1.5.7-2.9 1.1-4.4.3-1.3.9-2.7 1-4.1 0-2.1-1.8-4.1-4.1-4.1-3.7 0-4.1 4-4.8 6.7-.6 2.3-1.2 4.6-1.7 7-.3 1.2-.6 2.4-.8 3.6-.2 1.1-.6 2.1-.3 3.2.5 1.9 2.2 3.2 4.2 3.1zm17.3 110.8c-2.2-1.6-4.2-3.6-6-5.6-1-1.1-1.8-2.4-2.7-3.6-.8-1.1-1.9-1.8-3.3-1.8-2.3 0-4.1 2-4 4.3.1 1.2.8 2.1 1.4 3l.9 1.2c1.3 1.7 2.7 3.3 4.2 4.8 1.7 1.7 3.6 3.6 5.7 4.8 2 1.2 4.7.4 5.7-1.8.9-2.1-.2-4-1.9-5.3zM386.4 40.7c1.5 1.4 2.9 2.9 4.1 4.6 1.3 1.7 2.3 3.6 3.6 5.4 2.3 3.3 7.6 1.4 7.3-2.6-.2-1.9-1.8-3.8-2.9-5.4-.2-.3-.4-.5-.6-.8-1-1.3-2-2.6-3-3.8-.3-.3-.6-.6-.9-1-1.6-1.7-3.5-4.2-6-4.2-1.9 0-3.6 1.4-3.9 3.3-.3 2.1.9 3.3 2.3 4.5zm-33.9-9c1.4.1 2.9-.3 4.3-.4 1.5-.1 2.9-.2 4.4-.1 3.1 0 6.2.4 9.2 1.1 2.5.6 5.4 2.3 7.7.2 1.7-1.6 1.7-4.5-.1-6-.5-.5-1.2-.7-1.8-.9-4.8-1.6-9.9-2.3-14.9-2.3-.3-.1-.5-.1-.6-.1-1.1 0-2.2 0-3.3.1-1.3.1-2.6.2-4 .3-2 .2-4 1-4.5 3.3s1.3 4.6 3.6 4.8zM120.3 321.5c2.1-.6 2.7-2.4 3.3-4.3.8-2.4 1.5-4.8 2.3-7.2.5-1.4.9-2.7 1.4-4.1.4-1.1 1-2.3 1-3.5 0-2.2-1.9-4.1-4-4.1-3.5 0-4.2 3.8-5.1 6.4-1 2.9-1.9 5.9-2.9 8.8-.6 1.9-1.7 4-.6 6 .9 1.6 2.8 2.5 4.6 2zM295.8 57.6c2 .1 3.5-1.4 5-2.4 3.5-2.4 7.1-4.6 10.6-6.9 3.2-2.1 2-7.4-2.1-7.4-2 0-3.9 1.7-5.5 2.7-1.8 1.1-3.5 2.3-5.2 3.4-1.7 1.2-3.7 2.3-5.3 3.7-1.1 1-1.6 2.6-1.1 4 .5 1.6 1.9 2.8 3.6 2.9zm103.8 3.5c-.6 1.7.1 3.3.6 4.9.6 2.1 1 4.2 1.4 6.3v.2c2.1-.4 4.2-.7 6.4-.7.6 0 1.1 0 1.7.1-.2-1.1-.4-2.2-.7-3.3-.5-2.3-1.1-4.7-1.8-7-.6-1.7-2-3.1-3.9-3.1-1.6 0-3.1 1-3.7 2.6zM226 124.4c1.9.3 3.2-.8 4.3-2.2 2.7-3.3 5.5-6.6 8.4-9.8 1.3-1.4 2.7-2.8 2.3-4.9-.2-1.9-1.9-3.3-3.8-3.3-2.1 0-3.2 1.6-4.5 3-1.4 1.6-2.7 3.1-4.1 4.7-1.4 1.7-2.9 3.4-4.3 5.1-1 1.3-1.9 2.5-1.6 4.2.3 1.6 1.7 2.9 3.3 3.2zm-84.6 137c2.5.4 3.9-1.3 4.8-3.4 1.1-2.4 2.2-4.7 3.3-7.1.7-1.4 1.3-2.8 2-4.3.5-1.1 1.3-2.2 1.4-3.4.3-2.3-1.6-4.4-3.9-4.4-3.2 0-4.1 3.4-5.3 5.8-1 2.1-2 4.3-3 6.4-.5 1.1-1.1 2.3-1.6 3.4-.4 1-1 1.9-1 3.1 0 1.9 1.4 3.6 3.3 3.9zm33.5-58.8c1.3-1.7 2.3-3.9 3.4-5.7 1.2-2 2.3-3.9 3.5-5.9 1-1.6 2.5-3.4 2.2-5.4-.4-2-2.1-3.5-4-3.5-2.1 0-3.1 1.4-4.1 3.1-1.2 1.9-2.4 3.9-3.5 5.9-1.1 1.9-2.3 3.8-3.4 5.8-.6 1.1-1.3 2-1.2 3.3.1 3.6 4.9 5.2 7.1 2.4zM322.7 41.2c2 .3 4-1.2 5.8-2 1.9-.9 3.9-1.7 5.9-2.4.9-.3 1.8-.7 2.7-1s1.9-.5 2.7-1c3.4-2 2-7.5-2-7.5-1.8 0-3.9 1.1-5.6 1.7-2 .8-4 1.6-6 2.5-2.8 1.2-7.9 2.6-6.8 6.7.4 1.6 1.7 2.8 3.3 3zM368.1 244c-1.8 0-3.1 1.1-3.8 2.7-.9 2-1.9 4-2.8 6-.9 2-1.9 3.9-2.8 5.8-.8 1.6-1.9 3.2-1.4 5 .8 3.4 5.5 4.1 7.3 1.1 1.1-1.9 1.9-3.9 2.9-5.9.9-2 1.9-4 2.8-5.9.8-1.7 2.1-3.6 1.7-5.6-.3-1.8-2-3.2-3.9-3.2zm-29.9 57.2c-1.8 0-3 1.2-3.8 2.6-1.1 1.8-2.1 3.6-3.2 5.4-1.1 1.8-2.2 3.6-3.3 5.3-.9 1.4-2.1 2.8-2 4.6.1 3.2 4 5 6.5 3 1.2-1 1.9-2.6 2.7-4 1.7-2.7 3.3-5.5 5-8.2.5-.8 1-1.6 1.4-2.4 1.5-2.6.1-6.3-3.3-6.3zm15.7-28.2c-2.6 0-3.6 2.2-4.6 4.2-1.2 2.3-2.5 4.6-3.7 6.9-.6 1.1-1.3 2.3-1.9 3.4-.5.9-1.2 1.9-1.4 3-.3 1.9.8 3.8 2.6 4.5 2.1.7 4-.4 5-2.2 1.1-1.9 2.1-3.8 3.1-5.7.9-1.6 1.7-3.2 2.6-4.8.8-1.6 2.2-3.4 2.3-5.2 0-2.2-1.8-4.1-4-4.1zm-51.3 82c-2 0-3.1 1.4-4.2 2.9-1.3 1.7-2.5 3.3-3.8 5-1.3 1.8-2.7 3.5-4.1 5.2-1 1.3-2 2.5-1.8 4.3.3 1.7 1.6 3.1 3.3 3.3 1.9.3 3.3-.8 4.4-2.2 2.6-3.4 5.2-6.7 7.8-10.1 1.2-1.5 2.6-3 2.2-5.1-.3-1.8-1.9-3.3-3.8-3.3zm-101-196.5c-.4-2-2.1-3.4-4-3.4-2.1 0-3.1 1.4-4.1 3-1.2 1.8-2.4 3.5-3.6 5.3-1.2 1.8-2.5 3.7-3.7 5.5-.9 1.4-1.9 2.7-1.5 4.5.8 3.6 5.4 4.1 7.4 1.2 2.4-3.6 4.8-7.3 7.3-10.9 1.1-1.6 2.6-3.2 2.2-5.2zM408 131.8c-2.4 0-4.8-.3-7-.8-.3 1.7-.6 3.5-.8 5.2l-.6 3.3c-.2.9-.4 1.8-.1 2.7.8 3.3 5.3 4.1 7.2 1.2.5-.8.6-1.6.8-2.5.2-1.2.4-2.3.6-3.5.3-1.8.6-3.8.9-5.6h-1zm-7.9 21.1c-1.6 0-3.1 1-3.7 2.6-.8 2-1.1 4.4-1.6 6.5-.6 2.2-1.1 4.4-1.7 6.6-.5 1.8-1.4 3.8-.5 5.6.7 1.5 2.4 2.5 4.2 2.2 1.8-.3 2.9-1.6 3.4-3.3 1.3-4.5 2.4-8.9 3.5-13.4.3-1.1.7-2.3.5-3.4-.5-1.9-2.2-3.4-4.1-3.4zm-19.4 61.4c-1.9 0-3.2 1.2-3.9 2.9-.9 2.2-1.8 4.5-2.7 6.7-.9 2.2-1.8 4.4-2.7 6.5-.7 1.7-1.3 3.2-.3 4.9.9 1.5 2.8 2.3 4.5 1.8 2-.6 2.6-2.3 3.4-4.1l3.9-9.6c.7-1.7 1.9-3.7 1.7-5.5-.1-2-1.8-3.6-3.9-3.6zm10.8-30.4c-1.6 0-3.1 1-3.7 2.5-.9 2.1-1.4 4.4-2.1 6.5-.7 2.2-1.5 4.5-2.3 6.7-.6 1.7-1.5 3.5-.6 5.3.7 1.6 2.4 2.5 4.2 2.2 1.9-.3 2.9-1.7 3.5-3.4 1.6-4.4 3.1-8.9 4.5-13.3.3-1 .7-2.1.6-3.2-.5-1.8-2.2-3.3-4.1-3.3zm-70.4 144.7c-2.1 0-3.1 1.5-4.2 3.1-1.3 1.9-2.5 3.8-3.8 5.7-1.3 1.9-2.6 3.8-3.9 5.6-1 1.4-1.6 2.9-.8 4.6.7 1.6 2.5 2.5 4.2 2.3 1.6-.2 2.5-1.4 3.4-2.6 2.2-3.2 4.4-6.4 6.5-9.6 1.1-1.7 2.9-3.5 2.6-5.7-.3-1.9-2.1-3.4-4-3.4zm-83.3 98c-2 0-3.4 1.7-4.9 2.9-1.6 1.4-3.3 2.8-4.9 4.1-1.6 1.3-3.3 2.6-4.9 3.9-1.2 1-1.9 2.4-1.6 4 .3 1.6 1.6 2.9 3.2 3.2 2.1.4 3.5-1 5-2.2 3.3-2.7 6.6-5.4 9.8-8.2 1.4-1.2 2.5-2.5 2.2-4.5-.2-1.8-1.9-3.2-3.9-3.2zM216.7 129c-2.1 0-3.2 1.5-4.3 3-1.3 1.6-2.5 3.3-3.8 4.9-1.3 1.8-2.7 3.5-4 5.3-1 1.3-1.9 2.6-1.6 4.4.3 1.6 1.7 2.9 3.3 3.2 1.8.3 3.2-.7 4.2-2.1 2.5-3.5 5.1-6.9 7.7-10.3 1.2-1.5 2.7-3 2.3-5.1-.2-1.8-1.9-3.3-3.8-3.3zm35-30.9c3-3.1 6-6.2 9-9.2 1.4-1.3 2.7-2.6 2.4-4.7-.1-2-1.8-3.4-3.8-3.4-2.1 0-3.3 1.6-4.7 3l-4.4 4.4c-1.6 1.6-3.1 3.2-4.7 4.8-1.1 1.2-1.8 2.4-1.5 4.1.3 1.6 1.7 2.9 3.3 3.2 2 .3 3.2-.9 4.4-2.2zm31.6-38.7c-2 0-3.6 1.8-5.1 3-1.6 1.3-3.1 2.6-4.6 3.9-1.7 1.4-3.3 2.9-4.9 4.3-1.1 1-1.8 2.4-1.5 3.9.3 1.7 1.7 3 3.3 3.2 2.1.3 3.4-1.1 4.9-2.4 3.2-2.8 6.4-5.6 9.7-8.2 1.4-1.2 2.5-2.5 2.1-4.5-.4-1.9-2.1-3.2-3.9-3.2zm-70.7 386.9c-2.1 0-4 1.9-5.7 3-1.9 1.2-3.7 2.4-5.6 3.6-2.6 1.6-7.4 3.3-5.9 7.3.6 1.6 2.1 2.6 3.8 2.6 2 0 4-1.7 5.7-2.7 3.2-1.9 6.3-4 9.4-6.1 1.5-1 2.6-2.4 2.3-4.3-.3-1.9-2-3.4-4-3.4zm70-65.9c-1.5 0-2.5.8-3.4 1.9-1.1 1.4-2.3 2.7-3.4 4-2.2 2.6-4.6 5-6.7 7.7-1.6 2.1-1 5.2 1.5 6.2 3.3 1.4 5.4-1.9 7.2-4 2.2-2.5 4.3-4.9 6.4-7.4.6-.7 1.3-1.4 1.8-2.2 1.6-2.6-.3-6.2-3.4-6.2zm-21.5 24zm0 0c-2.5 0-4.1 2.5-5.6 4l-5.4 5.4c-.9.8-1.7 1.7-2.6 2.5-.7.7-1.4 1.4-1.7 2.4-.5 1.9.5 3.8 2.2 4.6 2.2 1 3.9-.2 5.4-1.6 1.1-1.1 2.3-2.2 3.4-3.3l6.3-6.3c1-1 2-2 2.1-3.6 0-2.2-1.9-4.1-4.1-4.1z"/><path class="st1" d="M104.9 142.3c-.7-2.1-.8-4.4-1.2-6.6-.4-2.2-.7-4.3-1-6.5-.2-1.8-.9-3.9-.1-5.6.6-1.4 2.1-2.3 3.6-2.3 1.7 0 3.4 1.3 3.9 3 .6 2.2.7 4.6 1 6.9.3 2.2.7 4.5 1.1 6.7.4 1.8 1 3.6 0 5.3-1.8 3-6.3 2.4-7.3-.9zm3.5-32.1c.2-1.2 0-2.5-.1-3.6-.1-1.4-.1-2.8-.2-4.3-.1-3 .1-5.9 0-8.9.1-2.1-1.6-3.9-3.8-3.9-2 0-3.8 1.6-4 3.6-.1.7 0 1.5-.1 2.2 0 3.1 0 6.3.1 9.4.1 3.2-.4 8.7 4.2 8.7 1.9 0 3.5-1.3 3.9-3.2zm26.5-77c1.2.6 2.3.4 3.5 0 1.3-.4 2.6-.8 4-1.1 2.9-.6 5.9-.9 8.9-.9 1.7 0 3.4.1 5.1.2 1.5.1 3.1.6 4.5-.1 2.5-1.2 3-4.7.9-6.6-1.1-1-2.6-1-4-1.2-1.4-.1-2.9-.3-4.3-.3h-2.2c-2.7 0-5.5.2-8.2.6-2.6.4-5.2 1-7.6 1.9-3.3 1.2-4 5.8-.6 7.5zm-18.9 19c2.1-.7 2.9-3.2 4.1-4.9 1.3-2 2.8-3.8 4.5-5.5 1.4-1.5 3.4-2.6 3.4-4.9 0-2.2-1.8-4-4-4-2.5 0-4.3 2.5-5.9 4.1-.3.3-.5.6-.8.9l-1.5 1.8c-.5.6-1 1.3-1.5 2-.9 1.2-1.7 2.5-2.5 3.8-.9 1.6-1.6 3.2-.6 4.9.9 1.7 3 2.4 4.8 1.8zm-7.1 27.6c.5-.8.5-1.7.7-2.7.2-1.1.3-2.3.5-3.4.4-2 .8-4.1 1.3-6.1.3-1.1.6-2.3.9-3.4.3-.9.5-1.8.2-2.7-.3-1.7-1.9-3-3.8-3-1.7 0-3.1 1-3.7 2.6-.7 1.8-1.1 3.9-1.6 5.8-.5 2.2-.9 4.4-1.3 6.6-.3 1.7-1 3.9-.4 5.6 1.1 3.2 5.5 3.6 7.2.7zm20.4 121.6c-.8-2.2-1.6-4.4-2.3-6.7-.8-2.4-1.6-4.9-2.4-7.4-.7-1.8-1.9-3.4-4.1-3.4-1.7 0-3.2 1.1-3.8 2.6-.4 1.1-.2 2.2.2 3.3 1.3 4 2.6 8.1 4 12.1.6 1.8 1 3.9 2.9 4.8 1.6.8 3.5.5 4.7-.8 1.2-1.3 1.3-2.9.8-4.5zm11.9 30.5c-.7-2.2-1.8-4.3-2.7-6.4-1-2.4-2-4.8-2.9-7.2-.8-2-1.8-4-4.3-4-1.8 0-3.3 1.2-3.8 2.9-.6 1.9.6 3.9 1.3 5.6 1.1 2.9 2.3 5.7 3.5 8.6.7 1.8 1.3 4.2 3 5.3 1.5.9 3.5.7 4.8-.5 1.2-1.1 1.6-2.8 1.1-4.3zm34.9-195.7c2 .7 4 1.5 6 2.4 3 1.3 7.8 4.7 10.1.6.8-1.3.7-3-.1-4.2-1-1.5-3.1-2.1-4.7-2.9-2.2-1-4.3-1.9-6.6-2.8-1.1-.4-2.3-.9-3.4-1.3-1-.2-2.1-.7-3.2-.7-3.4 0-5.3 4.2-2.9 6.7 1.2 1.3 3.2 1.6 4.8 2.2zm-56.7 134.1l-1.8-6.6-1.8-7.5c-.4-1.9-1.9-3.3-3.9-3.3-1.7 0-3.3 1.1-3.8 2.7-.3.9-.2 1.8 0 2.8 1 4.4 2.1 8.7 3.3 13 .5 1.8.8 3.7 2.6 4.6 1.6.8 3.6.5 4.8-.8 1.4-1.5 1.1-3.2.6-4.9zm216.9 30.8c.9 1.6 2 2.8 4 2.8 1.7 0 3.3-1.1 3.8-2.7s-.1-2.9-.9-4.2c-.9-1.6-1.8-3.1-2.7-4.6-1.3-2.1-2.5-4.3-3.8-6.4-1.2-1.8-2.2-3.9-4.7-3.9-1.7 0-3.2 1.1-3.8 2.7-.6 1.8.3 3.2 1.2 4.7 2.4 3.8 4.7 7.7 6.9 11.6zm23.4 44.2c.6 1.2 1.2 2.5 1.8 3.7 1.1 2.4 2.3 4.8 3.4 7.3.9 2 1.6 4.6 4.1 5.1 2 .4 4-.7 4.6-2.6.7-2.1-.7-4.2-1.5-6-1-2.3-2.1-4.5-3.2-6.8-.4-.8-.7-1.5-1.1-2.3-1-2.3-1.9-4.9-4.8-4.9-2.1 0-3.8 1.6-4 3.7-.1 1 .3 1.9.7 2.8zm33.5 87.3c-.1 1 .2 2 .5 3 .4 1.4.7 2.8 1.1 4.2l1.8 7.5c.5 2 .7 4.1 2.8 5 1.8.8 3.9.1 4.9-1.5 1.2-1.9.3-4.2-.2-6.3-.5-2.3-1.1-4.6-1.7-6.9-.4-1.7-.9-3.4-1.3-5.2-.4-1.7-1.8-3.3-3.9-3.3-2 0-3.7 1.5-4 3.5zm10.9 27.9c-1.8 0-3.5 1.3-3.9 3.1-.2.9 0 1.8.1 2.8l.6 3.9c.4 2.5.7 5.1 1.1 7.6.2 2 .1 4.2 1.8 5.6 1.3 1.1 3.3 1.2 4.7.3 1.7-1.1 1.9-2.9 1.7-4.7-.3-2.8-.7-5.7-1.1-8.5-.3-2-.6-4-1-6.1-.3-2.2-1.7-4-4-4zM154.2 260.1c-1-2-1.9-4-2.9-6-1-2.2-2.1-4.4-3.1-6.5-1-1.9-2-3.6-4.3-3.6-1.7 0-3.2 1.1-3.7 2.6-.7 1.7.2 3.2.9 4.8 1.8 3.9 3.7 7.8 5.6 11.7.8 1.6 1.5 3 3.4 3.4 1.7.3 3.4-.4 4.3-1.9.9-1.5.5-3-.2-4.5zm126.3-139.2c1.2 1.4 2.3 3.2 4.3 3.5 1.6.2 3.3-.6 4.1-2 .7-1.3.6-3-.2-4.2-1.2-1.7-2.7-3.3-4.1-4.9-1.5-1.8-3.1-3.7-4.7-5.5-1.5-1.6-2.8-3.6-5.1-3.6-1.7 0-3.3 1.2-3.8 2.8-.5 1.5.1 2.9 1.1 4.1 2.8 3.2 5.6 6.5 8.4 9.8zm19.9 25.4c1.1 1.5 2.1 3.2 4.1 3.5 1.6.2 3.3-.6 4.1-2.1.7-1.4.6-2.9-.3-4.2-1.2-1.8-2.6-3.5-3.8-5.2-1.4-1.9-2.9-3.8-4.3-5.7-1.4-1.6-2.5-3.6-4.9-3.6-1.7 0-3.3 1.2-3.8 2.8-.5 1.6.2 3 1.1 4.2 2.6 3.4 5.2 6.8 7.8 10.3zm14 8.8zm4.6 18c1 1.5 1.9 3.1 3.9 3.4 1.6.2 3.3-.6 4.1-2 .7-1.3.6-2.8-.1-4.1-1.1-1.9-2.4-3.7-3.7-5.5-1.4-2-2.7-4.1-4.1-6.1-1.3-1.8-2.4-3.7-4.7-3.7-1.7 0-3.3 1.1-3.8 2.8-.5 1.6.2 3 1.1 4.3 2.5 3.6 4.9 7.2 7.3 10.9zm64.8 128.4c-.2.9 0 1.8.3 2.6.4 1.3.9 2.6 1.3 3.9l2.4 7.2c.6 1.9.9 4.4 2.7 5.6 1.5 1 3.7.9 5-.4 1.5-1.5 1.3-3.3.7-5.2-.9-2.9-1.9-5.9-2.8-8.8-.6-1.7-1.1-3.4-1.7-5.1-.6-1.6-1.9-3-4-3-1.9 0-3.6 1.4-3.9 3.2zm-43.6 165.4c-2-.6-4-1.4-5.9-2.1-.9 2.5-2.1 4.9-3.7 7.1 1.6.6 3.1 1.2 4.7 1.8 3 1 7.8 3.5 9.8-.3.7-1.4.6-3.1-.4-4.4-1.1-1.4-3-1.6-4.5-2.1zm13.6-235.1c2.3 1.3 5.3-.1 5.8-2.7.3-1.3-.2-2.4-.8-3.5-.8-1.5-1.5-2.9-2.3-4.4-.5-.9-.9-1.7-1.4-2.6-.5-1-1-2-1.6-2.9-1.1-2.3-2.2-5.6-5.3-5.6-2.6 0-4.5 2.6-3.9 5 .4 1.5 1.4 2.8 2.1 4.1l2.4 4.5c.8 1.6 1.6 3.1 2.5 4.7.7 1.3 1.2 2.7 2.5 3.4zm17.9 237.3c-.9 0-1.8.3-2.6.5-.9.2-1.9.3-2.8.4-2 .2-3.9.3-5.9.3-1.6 0-3.6-.5-5.1.2-1.3.5-2.2 1.7-2.4 3-.2 1.4.3 2.8 1.3 3.7 1.3 1.2 3.1 1.1 4.7 1.1h3.2c2.3-.1 4.5-.2 6.8-.6 2.4-.4 5.6-.6 6.7-3.2.8-2.5-1.1-5.4-3.9-5.4zm-92.1-28.6c1.3-2.3 2.9-4.5 4.7-6.4l-4.6-3.9c-1.5-1.4-3.2-3.6-5.5-3.6-3.5 0-5.3 4.3-2.8 6.8 1.5 1.5 3.2 2.8 4.8 4.2 1.1 1 2.3 1.9 3.4 2.9zm126.3-16.7c-2.2 0-3.6 1.7-4 3.7-.5 2.7-1 5.4-1.8 8-.3 1.3-.7 2.5-1.1 3.7-.3 1.1-.9 2.2-1 3.3-.1 2 1.3 3.9 3.3 4.2 2.4.4 4-1.2 4.7-3.3l.6-1.8c1.2-3.7 2.1-7.5 2.8-11.3.1-.7.3-1.5.4-2.2.3-2.2-1.6-4.3-3.9-4.3zm-20.2-134.5c1-1.6.5-3.1-.2-4.8-.8-2-1.6-4.1-2.4-6.1-.9-2.3-1.8-4.6-2.8-6.8-.7-1.9-1.9-3.4-4-3.4-1.6 0-3.1 1-3.7 2.5-.7 1.7.1 3.3.8 4.9 1.7 4.1 3.3 8.2 4.9 12.3.6 1.6 1.5 2.9 3.2 3.2 1.6.3 3.3-.4 4.2-1.8zm26 111.1c0-1.5 0-3-.1-4.4-.3-2.1-1.9-3.7-4-3.7-1.7 0-3.3 1.2-3.8 2.8-.3.9-.1 1.9-.1 2.9 0 1.3.1 2.6.1 3.9 0 2.5 0 5-.1 7.5-.1 1.9-.5 4 1 5.5 1.2 1.2 3.1 1.6 4.7.8 1.8-.9 2.2-2.7 2.2-4.5.2-3.6.2-7.2.1-10.8zM263 89.5l-5.1-5.1c-1.5-1.6-3-3.6-5.2-3.6-3.6 0-5.2 4.4-2.8 6.9 2.9 3.1 6 6 9 9.1 1.3 1.3 2.5 3.2 4.5 3.5 1.6.2 3.3-.6 4.1-2 .7-1.3.6-3-.2-4.2-1.1-1.7-2.9-3.1-4.3-4.6zm132.3 363c-2.7 0-3.9 2.7-5.4 4.5-1.6 2-3.4 3.8-5.4 5.4-1.6 1.3-3.5 2.3-3.5 4.7.1 2.3 2.1 4.1 4.3 3.9 1.2-.1 2.2-.8 3.1-1.5 1.1-.8 2.1-1.7 3.1-2.6 1.9-1.7 3.6-3.6 5.2-5.6.3-.4.7-.9 1-1.3.5-.8 1.2-1.5 1.4-2.4.7-2.6-1.2-5.1-3.8-5.1zM162.9 278c-.9-2.3-1.9-5-4.8-5-2 0-3.7 1.6-4 3.6-.2 2 1.2 3.8 2.1 5.5.9 1.6 1.7 3.3 2.6 4.9.8 1.4 1.5 2.8 2.3 4.2 1 1.9 1.9 3.9 4.3 4.1 2.1.1 3.9-1.4 4.2-3.4.3-2.2-1.4-4.2-2.4-6-1.4-2.6-2.9-5.3-4.3-7.9zm39.1 63.8c-.7-1-1.4-2-2.1-3.1-1.5-2.2-2.9-4.3-4.4-6.5-1.1-1.6-2.2-3.6-4.6-3.6-1.8 0-3.4 1.2-3.9 2.9-.5 1.9.5 3.2 1.5 4.7 2.4 3.6 4.8 7.2 7.3 10.8.7 1 1.3 2 2.4 2.5 1.6.7 3.5.3 4.7-1 1-1.2 1.3-2.8.7-4.2-.4-.9-1.1-1.7-1.6-2.5zm-11.1-13.2zm72.3 86.5c-2-2-4.1-4-6.1-6-1-1-2-2.1-3-3.1-.8-.9-1.8-1.6-3.2-1.6-2 0-3.7 1.5-4 3.5-.2 1.7.7 2.9 1.8 4 2.1 2.1 4.2 4.3 6.3 6.3l2.2 2.2c1.5 1.5 3 3.5 5.3 3.3 1.9-.1 3.5-1.7 3.7-3.7.2-2.2-1.6-3.5-3-4.9zM212.4 56c.9.6 1.7 1.3 2.7 1.6 1.6.4 3.3-.3 4.2-1.7.8-1.2.9-2.9.1-4.2-.9-1.6-3.1-2.7-4.6-3.7-2-1.4-4-2.7-6-4-.9-.6-1.9-1.2-2.8-1.8-1.1-.7-2-1.3-3.3-1.3-3.4 0-5.2 4.1-3 6.6.6.6 1.3 1 2 1.4 1 .6 1.9 1.2 2.8 1.8 1.8 1.1 3.5 2.3 5.3 3.5.9.6 1.7 1.2 2.6 1.8zm-30.9 254.6c-1.2-2-2.4-4-3.6-6.1-.8-1.7-1.9-3.3-4.1-3.3-3.2 0-4.9 3.5-3.4 6.1.4.6.7 1.2 1.1 1.9.8 1.3 1.5 2.6 2.3 3.9.9 1.6 1.9 3.1 2.8 4.7.5.8 1 1.6 1.4 2.3.9 1.5 1.8 2.7 3.6 2.9 1.6.2 3.1-.6 3.9-2 .8-1.5.6-3-.3-4.4-1.2-2-2.5-4-3.7-6zm36.9 53.7c-1.5-1.9-2.9-3.8-4.4-5.8-1.2-1.6-2.3-3.5-4.6-3.5-1.7 0-3.3 1.1-3.8 2.8-.5 1.6.1 3 1 4.2 2.5 3.4 5.1 6.8 7.8 10.2 1.2 1.5 2.2 3.3 4.2 3.6 1.7.3 3.4-.7 4.2-2.2.7-1.4.4-3-.5-4.2l-3.9-5.1zm21.4-297c-1.8-1.5-3.6-3.1-5.4-4.6-1.6-1.2-3.4-3.3-5.7-3.3-3.4 0-5.3 4.2-2.9 6.7 1.4 1.5 3.2 2.7 4.8 4 1.6 1.3 3.2 2.7 4.7 4 1.4 1.3 3 3.3 5 3.6 1.7.3 3.4-.6 4.2-2.1 1.9-3.6-2.4-6.3-4.7-8.3zm1.2 324.4c-1.3-1.5-2.6-2.9-3.8-4.4-1.3-1.5-2.6-3-3.8-4.5-1.1-1.2-2.2-2.4-4-2.4-2.7 0-4.7 2.8-3.8 5.4.4 1 1.2 1.9 1.9 2.7 1.3 1.6 2.6 3.1 4 4.6.8.9 1.5 1.8 2.3 2.6.7.8 1.4 1.5 2 2.3 1 1.1 1.9 2.3 3.5 2.5 2.7.4 5.1-2.1 4.5-4.8-.3-1.6-1.8-2.8-2.8-4z"/><path class="st1" d="M187.4 341.5zm16.6 1.7c-2.7-.4-5.5-.5-8.3-.8-1.4-.1-2.9-.3-4.3-.4-1.3-.3-2.7-.5-4-.5-3.9 0-5.4 5.2-2.2 7.4.9.6 1.9.6 2.9.8 1.2.1 2.4.3 3.5.4.7.1 1.5.2 2.2.2 1.7.2 3.5.3 5.2.5 1.8.2 4.1.8 5.9.1 3.7-1.5 3-7-.9-7.7zm-14-183.3c1-.1 2.2-.1 3.1-.5 3.9-1.7 2.7-7.7-1.6-7.7-2.3 0-4.6.5-6.8.7-2.4.3-4.7.6-7.1.9-1 .1-2.1.2-3.2.5-1.6.4-2.7 1.8-2.9 3.4-.2 1.6.7 3.3 2.2 4 1.7.9 3.9.2 5.8-.1 2.3-.3 4.7-.6 7-.8 1.2-.1 2.3-.3 3.5-.4zm-17 179.8c-1.2-.5-2.7-.5-3.9-.7-1.5-.2-3-.4-4.5-.7-1.5-.2-3.1-.5-4.6-.7s-3.1-.7-4.6-.7c-4.3 0-5.5 6.2-1.5 7.7 1.8.7 4 .8 5.9 1.1.5.1 1 .2 1.5.2 3.2.5 6.5 1.3 9.8 1.5 4.3.2 5.9-5.9 1.9-7.7zm-17.6-2.8zm134.7-179.6c2.2.1 4.6.5 6.8.4 1.5-.1 2.9-1.1 3.5-2.6.6-1.5.2-3.2-1-4.3-1.4-1.4-3.6-1.1-5.4-1.3-4.5-.2-9-.6-13.5-.6-3.5 0-5.3 4.5-2.8 6.9 1.4 1.4 3.5 1.1 5.3 1.2 2.4.1 4.7.2 7.1.3zm-131 6.8c.9-.2 1.8-.2 2.6-.8 3.3-2 1.8-7.3-2.1-7.3-2.1 0-4.4.7-6.4 1l-6.6 1.2c-1.7.3-4 .4-5.4 1.6-1.2 1.1-1.7 2.8-1.2 4.3 1.4 4.2 6.4 2.2 9.5 1.7 2.2-.4 4.4-.8 6.5-1.2 1-.2 2.1-.4 3.1-.5zm102.6-7.6c1.4 0 3.1.3 4.4-.4 2.3-1.2 2.9-4.3 1.2-6.3-1.8-1.9-4.9-1.3-7.2-1.3h-1.9c-.7-.1-1.5-.1-2.2-.1-3.8 0-7.6 0-11.5.1-1 0-2 0-3 .1-1.8 0-3.5 0-4.8 1.5-2.2 2.7-.1 6.5 3.2 6.6 5.3.1 10.7-.2 16.1-.2h5.7zm-39.5.7c1-.1 2 0 2.9-.4 4.1-1.5 2.9-7.6-1.4-7.6-3.4 0-6.9.4-10.3.6-1.2.1-2.3.2-3.5.2-1.1.1-2.3 0-3.4.3-1.6.4-2.8 1.8-3 3.4-.2 1.6.6 3.2 2 4 1.7 1 4.1.4 6 .2 2.4-.2 4.8-.3 7.2-.5 1.2-.1 2.4-.1 3.5-.2zM268 345.1c-2.7 0-5.4.1-8.1.1s-5.4-.1-8 0c-4.4.2-5.5 6.4-1.2 7.8 1.5.5 3.4.2 4.9.2h2c3.4 0 6.8 0 10.2-.1 2.2-.1 4.2-1.4 4.3-3.8 0-2.3-1.9-4.2-4.1-4.2zm-31.6-.1c-1.3-.2-2.7-.1-4.1-.2-1.4-.1-2.9-.1-4.3-.2-2.8-.1-5.7-.4-8.5-.4-3.9 0-5.4 5.2-2.2 7.3 1.6 1.1 4.1.8 6 .9 1.5.1 2.9.1 4.4.2 1.5.1 2.9.1 4.4.2 1.6.1 3.6.5 5.2-.2 3.6-1.5 2.9-7-.9-7.6zm-212-61.2l-2.3-2.3c-1.6-1.7-3.1-3.4-4.5-5.2-1.2-1.8-2.2-3.6-4.5-3.6-1.6 0-3.2 1.1-3.7 2.6-.6 1.6-.1 3 .9 4.3 2.4 3.3 5.1 6.3 7.9 9.2 1.3 1.3 2.7 3.1 4.6 3.4 1.7.2 3.4-.6 4.2-2.1.7-1.3.5-3-.4-4.2-.6-.8-1.4-1.4-2.2-2.1zm114.8 50c-2.6-.5-5.1-1.1-7.7-1.7-1.3-.3-2.6-.6-4-.9-1.1-.3-2.4-.8-3.6-.8-3.6 0-5.3 4.6-2.7 7 1.1 1 2.7 1.1 4.1 1.5 1.5.4 3.1.7 4.7 1.1l6.9 1.5c1.8.4 3.6.9 5.2-.4 1.3-1.1 1.8-2.9 1.2-4.5-.7-1.9-2.3-2.4-4.1-2.8zM32.2 201c-.1 0-.1.1-.2.1-.7.5-1.5 1.1-2.2 1.6-.9.7-1.9 1.4-2.8 2.1-1.7 1.3-4.2 2.8-4.6 5.1-.4 2.1 1 4.1 3 4.6 2.6.6 4.3-1.6 6.1-3 1.5-1.2 3.1-2.4 4.6-3.5-1.6-2.2-2.9-4.5-3.9-7zm56.7-19.3c1.4-.5 2.9-1 4.3-1.5 1.7-.6 3.5-1 5.1-1.7 1.1-.4 1.9-1.3 2.3-2.4 1-2.5-.9-5.3-3.7-5.3-1.6 0-3.3.9-4.8 1.4-.5.2-1 .3-1.4.5-1 .3-2.1.7-3.1 1.1l-1.8.6c1.3 2.3 2.4 4.7 3.1 7.3zm-78 54.9c1-1.6 1.7-3.5 2.6-5.1 1-1.8 2.2-3.5 3.4-5.2 1.2-1.6 2.8-3 2.5-5.2-.2-1.9-1.9-3.4-3.9-3.4-1.8 0-2.8 1.1-3.9 2.4-1.3 1.7-2.6 3.4-3.7 5.3-1.1 1.7-2.1 3.4-3 5.2-.8 1.5-1.8 3.1-1.3 4.9.8 3.3 5.5 4.1 7.3 1.1zM132 166c-.2-2.1-2-3.8-4.1-3.8-1.2 0-2.5.5-3.6.7-.9.2-1.9.5-2.8.7-.9.2-1.8.4-2.7.7-1.3.3-2.7.7-4 1-1.6.4-3.7.6-5 1.7-3.4 2.7-.4 7.9 3.6 7 5-1.1 9.9-2.6 14.9-3.8 2.1-.5 3.8-1.9 3.7-4.2zm-25 159.7c-2.4-.7-4.7-1.4-7.1-2.2-1.2-.4-2.3-.7-3.5-1.1-1.1-.3-2.3-.9-3.4-.9-3.4 0-5.2 4.1-3 6.6 1.2 1.4 3.3 1.7 5 2.2 2.1.7 4.2 1.3 6.3 2 2.1.6 4.2 1.5 6.4 1.9 1.6.3 3.3-.4 4.1-1.8.8-1.3.8-3.1-.1-4.4-1.1-1.5-3-1.8-4.7-2.3zm-56.1-22.8c-1.8-1.1-3.6-2.1-5.3-3.2-1.7-1-3.4-2.1-5-3.2-1.6-1-3.1-2.4-5-2.4-2.8 0-4.8 3-3.7 5.5.5 1.1 1.4 1.8 2.4 2.4.7.5 1.5 1 2.2 1.5.6.4 1.3.9 2 1.3 1.4.9 2.8 1.8 4.2 2.6 1.6.9 3.2 2.1 4.9 2.8 2.7 1.1 5.7-1.1 5.5-4-.1-1.4-1-2.5-2.2-3.3zm26.7 12.8l-7.2-3c-1.2-.5-2.4-1.1-3.6-1.6-1.2-.6-2.3-1.3-3.6-1.3-3.6 0-5.4 4.7-2.6 7 .7.6 1.7 1 2.6 1.4 1 .5 2 .9 3.1 1.4l6.3 2.7c2.4 1 5.5 2.9 7.9.9 1.3-1.1 1.8-2.9 1.2-4.4-.7-1.9-2.4-2.4-4.1-3.1zM10 262.4c-.6-2.5-1.4-4.8-1.7-7.4-.2-1.3-.2-2.6-.3-3.8 0-1 .2-2.1 0-3.1-.4-1.9-2.1-3.2-4-3.2-1.6 0-3.2 1.1-3.7 2.6-.4 1-.3 2.1-.3 3.1v1c0 .9.1 1.7.1 2.6.2 3 .8 5.9 1.7 8.8.1.5.3.9.4 1.4.8 2.4 3.4 3.8 5.8 2.5 1.6-.9 2.4-2.8 2-4.5zm472.5 27.1c-1.4 0-2.3.7-3.3 1.5-1.1.9-2.3 1.8-3.5 2.6-2.3 1.6-4.6 3.2-6.9 4.7-1.8 1.2-3.5 2.4-3.2 4.9.4 2.2 2.5 3.7 4.7 3.3 1-.2 1.8-.8 2.6-1.3 1.7-1.1 3.3-2.1 4.9-3.3 2.3-1.6 4.6-3.3 6.8-5 .8-.6 1.5-1.4 1.7-2.4.7-2.5-1.2-5-3.8-5zm-13.6-86.2c1.8 1.1 3.6 2.3 5.3 3.5 1.5 1 3.1 2.8 5 3.1 1.6.3 3.3-.6 4.1-2 2.1-3.7-2.2-6-4.7-7.8-1.9-1.3-3.9-2.6-5.8-3.9-1-.6-2-1.3-3.1-1.9-1.1-.6-2-1.1-3.1-1.1-3.5 0-5.3 4.3-2.9 6.8.7.7 1.6 1.1 2.4 1.6.9.6 1.9 1.1 2.8 1.7zm22.6 8.9zm-45.1-21c1.2.6 2.4 1.1 3.6 1.7 1.2.6 2.4 1 3.8.5 2-.7 3.1-3 2.4-5.1-.6-1.8-2.2-2.4-3.8-3.1-1.9-.9-3.8-1.8-5.7-2.6l-4.8-2.1c-1.1-.6-2.5-1.4-4-1.4-2.3 0-4.2 2-4 4.3.2 2.7 2.5 3.4 4.6 4.3 2.7 1.1 5.3 2.3 7.9 3.5zm9.3 115.2c-1.9 0-3.9 1.5-5.6 2.3-1.9.9-3.8 1.8-5.8 2.7-2.8 1.3-7.9 2.4-7.1 6.6.3 1.6 1.6 2.8 3.1 3.1 2 .4 4-.9 5.8-1.7 2-.9 4.1-1.8 6.1-2.8 1.8-.9 3.8-1.7 5.6-2.8 3.4-2.1 1.9-7.4-2.1-7.4zm10.9-113.2zm24.6 28.6c1.1 1.3 2.2 2.6 3.3 4 1 1.3 2 2.7 2.9 4.1.8 1.2 1.7 2.1 3.2 2.3 2.8.3 5.1-2.4 4.3-5.1-.5-1.7-2.1-3.5-3.1-5-.7-1-1.4-1.9-2.2-2.8-.8-1-1.6-1.9-2.4-2.9-.9-1-1.8-2-2.7-2.9-.8-.8-1.8-1.3-3-1.3-2.9 0-4.9 3.2-3.6 5.8.7 1.5 2.3 2.6 3.3 3.8zm20.6 24.8c-.1-1.4-.4-2.9-.6-4.3-.5-2.2-1.6-4.4-4.3-4.4-1.9 0-3.6 1.4-3.9 3.3-.2 1 .1 1.9.3 2.8.3 1.3.4 2.5.6 3.8.2 2.6.1 5.2-.2 7.7-.2 1.7.2 3.4 1.8 4.4 2.6 1.6 5.6-.2 6.1-3.1.3-1.7.4-3.4.4-5.1 0-1.7 0-3.4-.2-5.1zm-4.9-8.7zm-4.1 28.6c-2.9 0-3.8 2.7-5 4.7-1.5 2.4-3.2 4.8-5.1 7-1.6 1.9-3.6 3.7-2.4 6.3 1.1 2.4 4.2 3.1 6.2 1.5.7-.6 1.3-1.3 1.9-2 1.2-1.4 2.3-2.7 3.3-4.2 1-1.3 1.9-2.6 2.7-4 .8-1.3 1.9-2.7 2.3-4.2.7-2.5-1.3-5.1-3.9-5.1zm-202.6 77.2c-2.4 0-4.7.3-7.1.4-2.3.1-4.7.3-7 .4-1.9.1-3.8 0-5.1 1.6-1 1.3-1.2 3.1-.4 4.5.9 1.5 2.4 2.1 4 2 2.4-.1 4.9-.2 7.3-.4 1.2-.1 2.5-.1 3.7-.2 1.1-.1 2.2-.1 3.3-.2 1-.1 2.1 0 3.1-.5 3.7-1.9 2.3-7.6-1.8-7.6zM350 163.6c2.6.4 5.1.8 7.7 1.3 2 .4 4.1.9 5.7-.6 1.3-1.2 1.6-3.2.8-4.7-1-2-3.1-2.1-5.1-2.5-.9-.2-1.9-.3-2.8-.5-1.5-.2-2.9-.5-4.4-.7-1.4-.2-2.8-.5-4.3-.7-.9-.2-1.9-.4-2.8-.4-4.1 0-5.5 5.7-1.9 7.5.9.5 2 .5 3 .7 1.4.2 2.7.4 4.1.6zm14.2 172c-1.1 0-2.3.4-3.4.6-1.2.2-2.4.4-3.6.7l-7.2 1.2c-1.8.3-3.8.3-4.9 2-1 1.4-1 3.2-.1 4.6 1.1 1.6 2.9 1.9 4.7 1.6 2.3-.4 4.7-.8 7-1.2 1.4-.2 2.8-.5 4.1-.7 1.6-.3 3.5-.4 5-1 3.9-1.9 2.6-7.8-1.6-7.8zm-31.8 4.9c-2.3 0-4.8.6-7.1.8-2.5.3-4.9.5-7.4.8-1.9.2-3.8.2-5 2-.9 1.5-.8 3.4.3 4.7 1.7 2 4.4 1.3 6.7 1.1 2.2-.2 4.5-.5 6.7-.7 1.2-.1 2.3-.3 3.5-.4 1.1-.1 2.4-.1 3.5-.5 4.2-1.4 3.2-7.8-1.2-7.8zm93.9-21.5c-1.3 0-2.6.7-3.9 1.1-1.4.5-2.9 1-4.4 1.5-2.8.9-5.7 1.6-8.5 2.7-1.9.8-3 2.9-2.4 4.9.6 2.1 2.8 3.2 4.8 2.7 3.9-1 7.7-2.4 11.5-3.8l2.7-.9c1.8-.7 3.6-1.4 4-3.5.6-2.4-1.3-4.7-3.8-4.7zM321.5 159.9c2.3.2 4.5.6 6.8.8 1.5.1 2.9-.5 3.8-1.8.9-1.3.9-3.1 0-4.4-1-1.6-2.7-1.8-4.4-2-2.4-.3-4.9-.6-7.3-.8-2.5-.3-5.1-.8-7.7-.8-3.4 0-5.3 4.3-2.9 6.8 1.3 1.4 3.1 1.3 4.9 1.5 2.3.2 4.6.4 6.8.7zm55 .6zm19.1 168c-1 0-1.9.4-2.9.6-1.1.3-2.2.6-3.4.9-2.1.5-4.3 1.1-6.5 1.6-1.8.4-4.1.5-5.6 1.7-1.2 1-1.7 2.7-1.2 4.2.4 1.5 1.8 2.6 3.3 2.8.9.1 1.7-.1 2.6-.3 1.1-.3 2.3-.5 3.4-.8 2.1-.5 4.1-1 6.2-1.5 1.1-.3 2.1-.5 3.2-.8.9-.2 1.9-.4 2.8-.8 3.6-2 2.2-7.6-1.9-7.6zm16.1-150.7c2.3.7 4.5 1.5 6.8 2.2 1.9.6 4.1 1.9 6.1 1 1.6-.7 2.6-2.4 2.4-4.2-.2-1.9-1.6-2.9-3.3-3.5-1.5-.5-2.9-1-4.4-1.5-1.3-.4-2.6-.9-3.9-1.3l-3.9-1.2c-1.3-.2-2.6-.8-3.8-.8-3.8 0-5.4 5-2.3 7.2.8.6 1.8.8 2.7 1 1.2.4 2.4.7 3.6 1.1zm-26.5-7.2c2.1.5 4.2 1.2 6.3 1.5 1.5.2 3.1-.4 4-1.7.9-1.3.9-3.2 0-4.5-1.1-1.6-3-1.8-4.7-2.2-2.4-.6-4.7-1.2-7.1-1.7-1.2-.3-2.4-.6-3.6-.8-1.2-.3-2.5-.7-3.6-.7-3.4 0-5.2 4.2-3 6.7 1.3 1.4 3.4 1.5 5.2 1.9 2.2.5 4.3 1 6.5 1.5z"/><path d="M282.9 466.8c.5 1 1.1 1.9 1.7 2.9.6.9 1.4 1.7 2 2.6 2.1 3.3-1.6 7.5-5.1 5.7-1.7-.8-2.9-2.9-3.9-4.4-1.1-1.7-2.1-3.4-2.8-5.3-.8-1.8-1.4-3.8-1.9-5.7-.4-1.7-.7-3.4.6-4.8 1-1.2 2.8-1.7 4.3-1.2 1.8.6 2.5 2 2.8 3.7.5 2.2 1.3 4.4 2.3 6.5zm48.5-17.4c.7 3.5 5.3 4.7 7.3 1.6 1-1.5.6-3 .2-4.6-.5-2-1.2-4-2.1-5.9-.9-1.9-1.9-3.7-3.2-5.4-1-1.4-2.2-3.3-3.9-3.9-3.7-1.4-6.9 3.1-4.6 6.2 1.4 1.8 2.7 3.4 3.8 5.5 1.2 1.9 2 4.2 2.5 6.5zm-47.3-20.6c-3.1 2.6-5.7 5.7-7.6 9.2-1.5 2.7-4.3 7.1-1.3 9.7 1.4 1.2 3.6 1.3 5.1.1 1.4-1.1 1.8-3.2 2.6-4.8.9-1.7 2-3.4 3.2-4.9.6-.8 1.3-1.5 2-2.1.7-.7 1.5-1.2 2-2 2.3-3.8-2.7-8-6-5.2zm51.6 31.8c-1.6-.5-3.3 0-4.4 1.2-.5.6-.8 1.4-1 2.2-.4 1-.8 2-1.3 3-.9 1.7-2 3.3-3.3 4.8-1.2 1.3-3.1 2.5-3.7 4.2-.6 1.7 0 3.6 1.5 4.6 1.7 1.2 3.7.8 5.2-.5 3-2.6 5.4-5.8 7.3-9.3 1.5-2.8 4.5-8.6-.3-10.2zM311 480.3c-4.3.8-8.8.6-13-.8-1.6-.5-3.1-.6-4.4.6-1.2 1-1.7 2.7-1.2 4.2.5 1.7 1.9 2.5 3.6 3 2.1.7 4.2 1.1 6.4 1.3 2.1.2 4.3.3 6.4.1 1.7-.1 3.9-.2 5.4-1.2 3.3-2.4.9-8-3.2-7.2zm5.6-57.8c-4.1-1.3-8.4-1.9-12.7-1.6-3.1.2-8.5.5-8.2 4.9.1 1.6 1.2 3 2.7 3.5 1.7.6 3.7-.2 5.5-.3 2.1-.2 4.2-.1 6.3.2 1 .2 1.9.4 2.9.6 1.1.3 2 .7 3.1.4 3.9-.8 4.2-6.5.4-7.7zM392 81c-.5.8-1.3 1.4-2 2-.7.7-1.4 1.4-2 2.1-1.2 1.5-2.3 3.1-3.2 4.9-.8 1.6-1.1 3.6-2.6 4.8-1.5 1.2-3.7 1.1-5.1-.1-3-2.6-.2-7 1.3-9.7 2-3.5 4.6-6.6 7.6-9.2 3.4-2.8 8.4 1.4 6 5.2zm41.4 15.4c.7 3.5 5.3 4.7 7.3 1.6 1-1.5.6-3 .2-4.6-.5-2-1.2-4-2.1-5.9-.9-1.9-1.9-3.7-3.2-5.4-1-1.4-2.2-3.3-3.9-3.9-3.7-1.4-6.9 3.1-4.6 6.2 1.4 1.8 2.7 3.4 3.8 5.5 1.2 2 2 4.2 2.5 6.5zm-50.8 10.8c-.4-1.7-1.1-3.2-2.8-3.7-1.5-.5-3.3 0-4.3 1.2-1.2 1.4-.9 3.1-.5 4.8.5 2 1.1 3.9 1.9 5.7.8 1.8 1.7 3.6 2.8 5.3 1 1.5 2.2 3.6 3.9 4.4 3.5 1.7 7.3-2.4 5.1-5.7-.6-.9-1.4-1.7-2-2.6-.6-.9-1.2-1.9-1.7-2.9-1.1-2-1.9-4.2-2.4-6.5zm55.1.4c-1.6-.5-3.3 0-4.4 1.2-.5.6-.8 1.4-1 2.2-.4 1-.8 2-1.3 3-.9 1.7-2 3.3-3.3 4.8-1.2 1.3-3.1 2.5-3.7 4.2-.6 1.7 0 3.6 1.5 4.6 1.7 1.2 3.7.8 5.2-.5 3-2.6 5.4-5.8 7.3-9.3 1.5-2.8 4.5-8.6-.3-10.2zM413 127.3c-4.3.8-8.8.6-13-.8-1.6-.5-3.1-.6-4.4.6-1.2 1-1.7 2.7-1.2 4.2.5 1.7 1.9 2.5 3.6 3 2.1.7 4.2 1.1 6.4 1.3 2.1.2 4.3.3 6.4.1 1.7-.1 3.9-.2 5.4-1.2 3.3-2.4.9-8-3.2-7.2zm5.6-57.8c-4.1-1.3-8.4-1.9-12.7-1.6-3.1.2-8.5.5-8.2 4.9.1 1.6 1.2 3 2.7 3.5 1.7.6 3.7-.2 5.5-.3 2.1-.2 4.2-.1 6.3.2 1 .2 1.9.4 2.9.6 1.1.3 2 .7 3.1.4 3.9-.8 4.2-6.5.4-7.7zM40.3 206.8c2.6 3-.5 7.7-4.3 6.4-1.8-.6-2.9-2.5-3.9-4-1.1-1.6-2.1-3.4-3-5.2a31 31 0 0 1-2.1-5.8c-.4-1.7-.9-3.5.1-5 2-3.1 6.5-2 7.3 1.4 1.1 4.5 2.8 8.6 5.9 12.2zm45.1-22.4c.7 3.5 5.3 4.7 7.3 1.6 1-1.5.6-3 .2-4.6-.5-2-1.2-4-2.1-5.9-.9-1.9-1.9-3.7-3.2-5.4-1-1.4-2.2-3.3-3.9-3.9-3.7-1.4-6.9 3.1-4.6 6.2 1.4 1.8 2.7 3.4 3.8 5.5 1.2 2 2 4.2 2.5 6.5zm-47.3-20.6c-3.1 2.6-5.7 5.7-7.6 9.2-1.5 2.7-4.3 7.1-1.3 9.7 1.4 1.2 3.6 1.3 5.1.1 1.4-1.1 1.8-3.2 2.6-4.8.9-1.7 2-3.4 3.2-4.9.6-.8 1.3-1.5 2-2.1.7-.7 1.5-1.2 2-2 2.3-3.8-2.7-8-6-5.2zm51.6 31.8c-1.6-.5-3.3 0-4.4 1.2-.5.6-.8 1.4-1 2.2-.4 1-.8 2-1.4 3-.9 1.7-2 3.3-3.3 4.8-1.2 1.3-3.1 2.5-3.7 4.2-.6 1.7 0 3.6 1.5 4.6 1.7 1.2 3.7.8 5.2-.5 3-2.6 5.4-5.8 7.3-9.3 1.6-2.8 4.6-8.6-.2-10.2zM65 215.3c-4.3.8-8.8.6-13-.8-1.6-.5-3.1-.6-4.4.6-1.2 1-1.7 2.7-1.2 4.2.5 1.7 1.9 2.5 3.6 3 2.1.7 4.2 1.1 6.4 1.3 2.1.2 4.3.3 6.4.1 1.7-.1 3.9-.2 5.4-1.2 3.3-2.4.9-8-3.2-7.2zm5.6-57.8c-4.1-1.3-8.4-1.9-12.7-1.6-3.1.2-8.5.5-8.2 4.9.1 1.6 1.2 3 2.7 3.5 1.7.6 3.7-.2 5.5-.3 2.1-.2 4.2-.1 6.3.2 1 .2 1.9.4 2.9.6 1.1.3 2 .7 3.1.4 3.9-.8 4.2-6.5.4-7.7z" fill="#4292be"/></svg>