<svg version="1.1" xmlns="http://www.w3.org/2000/svg" x="0" y="0" viewBox="0 0 512 512" xml:space="preserve"><path d="M0 0h512v512H0V0z" fill="#2e86b7"/><path d="M256.1 25.6h-81.2c-3.2 0-5.8 2.9-5.4 6l53.6 428c.8 6.5 3.9 12.4 8.5 16.9 13.5 13.1 35.1 13.1 48.6 0 4.7-4.5 7.6-10.5 8.5-16.9l54-428c.5-3.2-2.1-6-5.4-6h-81.2z" fill="#f4f4f4"/><path d="M196.4 130l41 327.8c.5 3.2 1.9 6.2 4.2 8.5 3.9 3.7 8.9 5.8 14.2 5.8 5.3 0 10.4-2.1 14.2-5.8 2.3-2.3 3.8-5.2 4.2-8.5L315.8 130H196.4z" fill="#cc584c"/><path d="M274.9 428.8h-37.8v-3.6h37.8v3.6zm0-89.1h-37.8v3.6h37.8v-3.6zm0-85.5h-37.8v3.6h37.8v-3.6zm0-85.5h-37.8v3.6h37.8v-3.6zM256 408.1h-18.9v3.6H256v-3.6zm0-17.1h-18.9v3.6H256V391zm0-17.1h-18.9v3.6H256v-3.6zm0-17.1h-18.9v3.6H256v-3.6zm0-34.2h-18.9v3.6H256v-3.6zm0-17.1h-18.9v3.6H256v-3.6zm0-17.1h-18.9v3.6H256v-3.6zm0-17.1h-18.9v3.6H256v-3.6zm0-34.2h-18.9v3.6H256v-3.6zm0-17.1h-18.9v3.6H256V220zm0-17.1h-18.9v3.6H256v-3.6zm0-17.1h-18.9v3.6H256v-3.6z" fill="#f4f4f4"/></svg>