<svg version="1.1" xmlns="http://www.w3.org/2000/svg" x="0" y="0" viewBox="0 0 512 512" xml:space="preserve"><path d="M0 0h512v512H0V0z" fill="#2e86b7"/><path d="M324.4 467.5H319c-2.2 0-4.1-1.4-5-3.3l-7.6-18.3V169.1c0-7.1-2.5-14-7.2-19.3-3.6-4.1-7.2-9.9-7.2-17.1 0-14.4 16.2-32.4 16.2-32.4H203.8s16.2 18 16.2 32.4c0 7.2-3.6 13.1-7.2 17.1-4.7 5.3-7.2 12.2-7.2 19.3v276.8l-7.7 18.3c-.8 2-2.8 3.3-4.9 3.3h-5.4c-3 0-5.4 2.4-5.4 5.4v8.1c0 3 2.4 5.4 5.4 5.4h136.8c3 0 5.4-2.4 5.4-5.4v-8.1c0-3-2.4-5.4-5.4-5.4z" fill="#f4f4f4"/><path d="M220 182.2v250.2c0 7.9 6.5 14.4 14.4 14.4h43.2c7.9 0 14.4-6.5 14.4-14.4V182.2h-72z" fill="#cc584c"/><path d="M329.8 481v-8.1c0-3-2.4-5.4-5.4-5.4H187.6c-3 0-5.4 2.4-5.4 5.4v8.1c0 3 2.4 5.4 5.4 5.4h136.8c3 0 5.4-2.4 5.4-5.4z" opacity=".15" fill="#444"/><path d="M313.1 100.3H198.9c-1.5 0-2.7-1.2-2.7-2.7v-9c0-1.5 1.2-2.7 2.7-2.7h114.3c1.5 0 2.7 1.2 2.7 2.7v9c0 1.5-1.2 2.7-2.8 2.7z" fill="#36434f"/><path d="M247 43.6h18v24.3h-18V43.6z" fill="#e0ac7e"/><path d="M289.3 85.9h-66.6V69.7c0-1.5 1.2-2.7 2.7-2.7h61.2c1.5 0 2.7 1.2 2.7 2.7v16.2zm-33 14.4h-33.7l6.7 25.3c1.6 6.3 7.4 10.7 14 10.7h26c6.6 0 12.2-4.4 13.9-10.7l6.7-25.3h-33.6zm54.6-55.8H201.1c-1.5 0-2.7-1.2-2.7-2.7V28.3c0-1.5 1.2-2.7 2.7-2.7h109.8c1.5 0 2.7 1.2 2.7 2.7v13.5c0 1.5-1.2 2.7-2.7 2.7z" fill="#826049"/><path d="M212.8 149.8c-4.7 5.3-7.2 12.2-7.2 19.3v2.3h100.8v-2.3c0-7.1-2.5-14-7.2-19.3-3.6-4.1-7.2-9.9-7.2-17.1 0-14.4 16.2-32.4 16.2-32.4H203.8s16.2 18 16.2 32.4c0 7.2-3.6 13.1-7.2 17.1z" opacity=".5" fill="#f4f4f4"/><path d="M237.1 428.8h37.8v3.6h-37.8v-3.6zm0-85.5h37.8v3.6h-37.8v-3.6zm0-85.5h37.8v3.6h-37.8v-3.6zm0 153.9H256v3.6h-18.9v-3.6zm0-17.1H256v3.6h-18.9v-3.6zm0-17.1H256v3.6h-18.9v-3.6zm0-17.1H256v3.6h-18.9v-3.6zm0-34.2H256v3.6h-18.9v-3.6zm0-17.1H256v3.6h-18.9v-3.6zm0-17.1H256v3.6h-18.9V292zm0-17.1H256v3.6h-18.9v-3.6zm0-34.2H256v3.6h-18.9v-3.6zm0-17.1H256v3.6h-18.9v-3.6zm0-17.1H256v3.6h-18.9v-3.6zm0-17.1H256v3.6h-18.9v-3.6z" fill="#f4f4f4"/><path d="M237.1 172.3h37.8v3.6h-37.8v-3.6z" fill="#999"/></svg>