<svg version="1.1" xmlns="http://www.w3.org/2000/svg" x="0" y="0" viewBox="0 0 512 512" xml:space="preserve"><style type="text/css">.st1{fill:#f4f4f4}</style><path d="M0 0h512v512H0V0z" fill="#2e86b7"/><path class="st1" d="M377.9 371.2c-6.6 0-13-3.7-16.1-10-1.1-2.3-10.9-22.6-10.9-50.3 0-16.5 14.6-32.4 42.6-61.6 14.1-14.8 30.2-31.4 42-47.4 14.9-19.9 17.9-31.5 17.9-37.7 0-26.8-21.8-48.6-48.6-48.6-26.7 0-48.5 21.7-48.6 48.4 0 9.9-8.1 18.1-17.9 18.2-10 0-18.1-8-18.1-18 0-46.6 38-84.6 84.6-84.6s84.6 38 84.6 84.6c0 37-37.2 75.8-70 110-8.2 8.5-18.3 19-25.1 27.3-5.3 6.4-7.6 14.8-6.4 23 2 12.3 5.9 20.5 6 20.6 4.4 8.9.8 19.7-8 24.1-2.5 1.4-5.3 2-8 2z"/><path class="st1" d="M359 25.6H113.2c-9.6 0-18.2 6.1-21.3 15.2L85.4 60c-1 2.9.5 5.9 3.4 6.8l14.5 4.1c11.9 4 19.9 14.9 19.9 27.5v344.8c0 23.8 19.4 43.2 43.2 43.2h149.4c23.9 0 43.2-19.4 43.2-43.2V61.4c0-6.8 2.4-13.5 6.9-18.7l7-8.2c3-3.5.5-8.9-4.1-8.9H359z"/><path d="M137.6 166.9v276.3c0 15.8 13 28.8 28.8 28.8h149.4c15.8 0 28.8-13 28.8-28.8V166.9h-207z" fill="#cc584c"/><path d="M320.3 92.7v251.1c0 4-3.2 7.2-7.2 7.2s-7.2-3.2-7.2-7.2V92.7c0-4 3.2-7.2 7.2-7.2 4-.1 7.2 3.2 7.2 7.2zm-7.2 283.4c-4 0-7.2 3.2-7.2 7.2v36c0 4 3.2 7.2 7.2 7.2s7.2-3.2 7.2-7.2v-36c0-3.9-3.2-7.2-7.2-7.2z" opacity=".5" fill="#f4f4f4"/><path d="M222.2 454H260v3.6h-37.8V454zm0-85.5H260v3.6h-37.8v-3.6zm0-85.5H260v3.6h-37.8V283zm0-85.5H260v3.6h-37.8v-3.6zm0 239.4h18.9v3.6h-18.9v-3.6zm0-17.1h18.9v3.6h-18.9v-3.6zm0-17.1h18.9v3.6h-18.9v-3.6zm0-17.1h18.9v3.6h-18.9v-3.6zm0-34.2h18.9v3.6h-18.9v-3.6zm0-17.1h18.9v3.6h-18.9v-3.6zm0-17.1h18.9v3.6h-18.9v-3.6zm0-17.1h18.9v3.6h-18.9v-3.6zm0-34.2h18.9v3.6h-18.9v-3.6zm0-17.1h18.9v3.6h-18.9v-3.6zm0-17.1h18.9v3.6h-18.9v-3.6zm0-17.1h18.9v3.6h-18.9v-3.6zm0-34.2h18.9v3.6h-18.9v-3.6z" fill="#f4f4f4"/><path d="M222.2 163.3h18.9v3.6h-18.9v-3.6zm0-17.1h18.9v3.6h-18.9v-3.6zm0-17.1h18.9v3.6h-18.9v-3.6zm0-17.1H260v3.6h-37.8V112z" fill="#999"/></svg>