<svg version="1.1" xmlns="http://www.w3.org/2000/svg" x="0" y="0" viewBox="0 0 512 512" xml:space="preserve"><path d="M408.1 243.5l-48 147.7c5.3-1.8 11.1-2.7 17-2.7 5.8 0 11.4.9 16.7 2.6l41.5-127.7c-11-3.6-20.5-10.7-27.2-19.9zM299.7 101.3c-6.7 9.2-16.2 16.2-27.3 19.7L398 212.3v-.3c0-11.9 3.8-22.8 10.3-31.7l-108.6-79zM151.9 391.2l-48-147.7c-6.6 9.2-16.1 16.3-27.2 19.9L118.2 391c5.3-1.7 10.9-2.6 16.7-2.6 5.9 0 11.6 1 17 2.8zm171.2 51.2c0-12 3.9-23 10.5-32H178.4c6.6 9 10.5 20 10.5 32h134.2zM114 212v.3L239.6 121c-11.1-3.5-20.6-10.5-27.3-19.7l-108.6 78.9c6.5 9 10.3 19.9 10.3 31.8z" fill="#ddd"/><path d="M60 184c15.4 0 28 12.6 28 28s-12.6 28-28 28-28-12.6-28-28 12.6-28 28-28m0-32c-33.1 0-60 26.9-60 60s26.9 60 60 60 60-26.9 60-60-26.9-60-60-60zm317.1 262.4c15.4 0 28 12.6 28 28s-12.6 28-28 28-28-12.6-28-28 12.6-28 28-28m0-32c-33.1 0-60 26.9-60 60s26.9 60 60 60 60-26.9 60-60-26.8-60-60-60zm-242.2 32c15.4 0 28 12.6 28 28s-12.6 28-28 28-28-12.6-28-28 12.5-28 28-28m0-32c-33.1 0-60 26.9-60 60s26.9 60 60 60 60-26.9 60-60-26.9-60-60-60zM452 184c15.4 0 28 12.6 28 28s-12.6 28-28 28-28-12.6-28-28 12.6-28 28-28m0-32c-33.1 0-60 26.9-60 60s26.9 60 60 60 60-26.9 60-60-26.9-60-60-60zM256 41.6c15.4 0 28 12.6 28 28s-12.6 28-28 28-28-12.6-28-28 12.6-28 28-28m0-32c-33.1 0-60 26.9-60 60s26.9 60 60 60 60-26.9 60-60-26.9-60-60-60z" fill="#2e86b7"/></svg>