<svg xmlns="http://www.w3.org/2000/svg" viewBox="0 0 512 512" xml:space="preserve"><style>.st1{fill:#36434f}</style><path fill="#bbb" d="M265 227h-18l-3 44h24z"/><path class="st1" d="M256 512c-9.9 0-18-8.1-18-18V274c0-4.4 3.6-8 8-8h20c4.4 0 8 3.6 8 8v220c0 9.9-8.1 18-18 18z"/><circle cx="256" cy="117" r="105" fill="#79b1d1"/><path d="M256 22c52.4 0 95 42.6 95 95s-42.6 95-95 95-95-42.6-95-95 42.6-95 95-95m0-10c-58 0-105 47-105 105s47 105 105 105 105-47 105-105S314 12 256 12z" fill="#2e86b7"/><path class="st1" d="M256 16c55.7 0 101 45.3 101 101s-45.3 101-101 101-101-45.3-101-101S200.3 16 256 16m0-16c-64.6 0-117 52.4-117 117s52.4 117 117 117 117-52.4 117-117S320.6 0 256 0z"/><path d="M326 125c-4.4 0-8-3.6-8-8 0-16.7-6.6-32.4-18.5-44.1-3.1-3.1-3.2-8.2-.1-11.3 3.1-3.1 8.2-3.2 11.3-.1C325.8 76.3 334 96 334 117c0 4.4-3.6 8-8 8z" fill="#fff"/></svg>