<svg xmlns="http://www.w3.org/2000/svg" viewBox="0 0 512 512" xml:space="preserve"><style>.st0{fill:#36434f}.st1{fill:#e0ac7e}</style><path class="st0" d="M112.5 212h287v4h-287z"/><path class="st1" d="M170 229.5c-4.4 0-8-3.6-8-8v-15c0-4.4 3.6-8 8-8s8 3.6 8 8v15c0 4.4-3.6 8-8 8zm-19 0c-4.4 0-8-3.6-8-8v-15c0-4.4 3.6-8 8-8s8 3.6 8 8v15c0 4.4-3.6 8-8 8zm-19 0c-4.4 0-8-3.6-8-8v-15c0-4.4 3.6-8 8-8s8 3.6 8 8v15c0 4.4-3.6 8-8 8zm57 0c-4.4 0-8-3.6-8-8v-15c0-4.4 3.6-8 8-8s8 3.6 8 8v15c0 4.4-3.6 8-8 8z"/><path class="st0" d="M208 229.5c-4.4 0-8-3.6-8-8v-15c0-4.4 3.6-8 8-8s8 3.6 8 8v15c0 4.4-3.6 8-8 8zm19 0c-4.4 0-8-3.6-8-8v-15c0-4.4 3.6-8 8-8s8 3.6 8 8v15c0 4.4-3.6 8-8 8z"/><path class="st1" d="M246 229.5c-4.4 0-8-3.6-8-8v-15c0-4.4 3.6-8 8-8s8 3.6 8 8v15c0 4.4-3.6 8-8 8zm19 0c-4.4 0-8-3.6-8-8v-15c0-4.4 3.6-8 8-8s8 3.6 8 8v15c0 4.4-3.6 8-8 8zm19 0c-4.4 0-8-3.6-8-8v-15c0-4.4 3.6-8 8-8s8 3.6 8 8v15c0 4.4-3.6 8-8 8zm19 0c-4.4 0-8-3.6-8-8v-15c0-4.4 3.6-8 8-8s8 3.6 8 8v15c0 4.4-3.6 8-8 8z"/><path class="st0" d="M112.5 170h287v4h-287z"/><path class="st1" d="M170 187.5c-4.4 0-8-3.6-8-8v-15c0-4.4 3.6-8 8-8s8 3.6 8 8v15c0 4.4-3.6 8-8 8zm-19 0c-4.4 0-8-3.6-8-8v-15c0-4.4 3.6-8 8-8s8 3.6 8 8v15c0 4.4-3.6 8-8 8z"/><path class="st0" d="M132 187.5c-4.4 0-8-3.6-8-8v-15c0-4.4 3.6-8 8-8s8 3.6 8 8v15c0 4.4-3.6 8-8 8z"/><path class="st1" d="M189 187.5c-4.4 0-8-3.6-8-8v-15c0-4.4 3.6-8 8-8s8 3.6 8 8v15c0 4.4-3.6 8-8 8z"/><path class="st0" d="M208 187.5c-4.4 0-8-3.6-8-8v-15c0-4.4 3.6-8 8-8s8 3.6 8 8v15c0 4.4-3.6 8-8 8zm19 0c-4.4 0-8-3.6-8-8v-15c0-4.4 3.6-8 8-8s8 3.6 8 8v15c0 4.4-3.6 8-8 8z"/><path class="st1" d="M246 187.5c-4.4 0-8-3.6-8-8v-15c0-4.4 3.6-8 8-8s8 3.6 8 8v15c0 4.4-3.6 8-8 8zm19 0c-4.4 0-8-3.6-8-8v-15c0-4.4 3.6-8 8-8s8 3.6 8 8v15c0 4.4-3.6 8-8 8zm19 0c-4.4 0-8-3.6-8-8v-15c0-4.4 3.6-8 8-8s8 3.6 8 8v15c0 4.4-3.6 8-8 8zm19 0c-4.4 0-8-3.6-8-8v-15c0-4.4 3.6-8 8-8s8 3.6 8 8v15c0 4.4-3.6 8-8 8z"/><path class="st0" d="M112.5 128h287v4h-287z"/><path class="st1" d="M170 145.5c-4.4 0-8-3.6-8-8v-15c0-4.4 3.6-8 8-8s8 3.6 8 8v15c0 4.4-3.6 8-8 8zm-19 0c-4.4 0-8-3.6-8-8v-15c0-4.4 3.6-8 8-8s8 3.6 8 8v15c0 4.4-3.6 8-8 8zm-19 0c-4.4 0-8-3.6-8-8v-15c0-4.4 3.6-8 8-8s8 3.6 8 8v15c0 4.4-3.6 8-8 8zm57 0c-4.4 0-8-3.6-8-8v-15c0-4.4 3.6-8 8-8s8 3.6 8 8v15c0 4.4-3.6 8-8 8z"/><path class="st0" d="M208 145.5c-4.4 0-8-3.6-8-8v-15c0-4.4 3.6-8 8-8s8 3.6 8 8v15c0 4.4-3.6 8-8 8zm19 0c-4.4 0-8-3.6-8-8v-15c0-4.4 3.6-8 8-8s8 3.6 8 8v15c0 4.4-3.6 8-8 8z"/><path class="st1" d="M246 145.5c-4.4 0-8-3.6-8-8v-15c0-4.4 3.6-8 8-8s8 3.6 8 8v15c0 4.4-3.6 8-8 8zm19 0c-4.4 0-8-3.6-8-8v-15c0-4.4 3.6-8 8-8s8 3.6 8 8v15c0 4.4-3.6 8-8 8zm19 0c-4.4 0-8-3.6-8-8v-15c0-4.4 3.6-8 8-8s8 3.6 8 8v15c0 4.4-3.6 8-8 8zm19 0c-4.4 0-8-3.6-8-8v-15c0-4.4 3.6-8 8-8s8 3.6 8 8v15c0 4.4-3.6 8-8 8z"/><path class="st0" d="M112.5 86h287v4h-287z"/><path class="st1" d="M170 103.5c-4.4 0-8-3.6-8-8v-15c0-4.4 3.6-8 8-8s8 3.6 8 8v15c0 4.4-3.6 8-8 8zm-19 0c-4.4 0-8-3.6-8-8v-15c0-4.4 3.6-8 8-8s8 3.6 8 8v15c0 4.4-3.6 8-8 8zm-19 0c-4.4 0-8-3.6-8-8v-15c0-4.4 3.6-8 8-8s8 3.6 8 8v15c0 4.4-3.6 8-8 8zm57 0c-4.4 0-8-3.6-8-8v-15c0-4.4 3.6-8 8-8s8 3.6 8 8v15c0 4.4-3.6 8-8 8z"/><path class="st0" d="M208 103.5c-4.4 0-8-3.6-8-8v-15c0-4.4 3.6-8 8-8s8 3.6 8 8v15c0 4.4-3.6 8-8 8zm19 0c-4.4 0-8-3.6-8-8v-15c0-4.4 3.6-8 8-8s8 3.6 8 8v15c0 4.4-3.6 8-8 8z"/><path class="st1" d="M246 103.5c-4.4 0-8-3.6-8-8v-15c0-4.4 3.6-8 8-8s8 3.6 8 8v15c0 4.4-3.6 8-8 8zm19 0c-4.4 0-8-3.6-8-8v-15c0-4.4 3.6-8 8-8s8 3.6 8 8v15c0 4.4-3.6 8-8 8zm19 0c-4.4 0-8-3.6-8-8v-15c0-4.4 3.6-8 8-8s8 3.6 8 8v15c0 4.4-3.6 8-8 8zm19 0c-4.4 0-8-3.6-8-8v-15c0-4.4 3.6-8 8-8s8 3.6 8 8v15c0 4.4-3.6 8-8 8z"/><path class="st0" d="M112.5 44h287v4h-287z"/><path class="st1" d="M170 61.5c-4.4 0-8-3.6-8-8v-15c0-4.4 3.6-8 8-8s8 3.6 8 8v15c0 4.4-3.6 8-8 8zm-19 0c-4.4 0-8-3.6-8-8v-15c0-4.4 3.6-8 8-8s8 3.6 8 8v15c0 4.4-3.6 8-8 8zm-19 0c-4.4 0-8-3.6-8-8v-15c0-4.4 3.6-8 8-8s8 3.6 8 8v15c0 4.4-3.6 8-8 8zm57 0c-4.4 0-8-3.6-8-8v-15c0-4.4 3.6-8 8-8s8 3.6 8 8v15c0 4.4-3.6 8-8 8z"/><path class="st0" d="M208 61.5c-4.4 0-8-3.6-8-8v-15c0-4.4 3.6-8 8-8s8 3.6 8 8v15c0 4.4-3.6 8-8 8zm19 0c-4.4 0-8-3.6-8-8v-15c0-4.4 3.6-8 8-8s8 3.6 8 8v15c0 4.4-3.6 8-8 8z"/><path class="st1" d="M246 61.5c-4.4 0-8-3.6-8-8v-15c0-4.4 3.6-8 8-8s8 3.6 8 8v15c0 4.4-3.6 8-8 8zm19 0c-4.4 0-8-3.6-8-8v-15c0-4.4 3.6-8 8-8s8 3.6 8 8v15c0 4.4-3.6 8-8 8zm19 0c-4.4 0-8-3.6-8-8v-15c0-4.4 3.6-8 8-8s8 3.6 8 8v15c0 4.4-3.6 8-8 8zm19 0c-4.4 0-8-3.6-8-8v-15c0-4.4 3.6-8 8-8s8 3.6 8 8v15c0 4.4-3.6 8-8 8z"/><path class="st0" d="M112.5 422h287v4h-287z"/><path class="st1" d="M170 439.5c-4.4 0-8-3.6-8-8v-15c0-4.4 3.6-8 8-8s8 3.6 8 8v15c0 4.4-3.6 8-8 8zm-19 0c-4.4 0-8-3.6-8-8v-15c0-4.4 3.6-8 8-8s8 3.6 8 8v15c0 4.4-3.6 8-8 8zm-19 0c-4.4 0-8-3.6-8-8v-15c0-4.4 3.6-8 8-8s8 3.6 8 8v15c0 4.4-3.6 8-8 8zm57 0c-4.4 0-8-3.6-8-8v-15c0-4.4 3.6-8 8-8s8 3.6 8 8v15c0 4.4-3.6 8-8 8z"/><path class="st0" d="M208 439.5c-4.4 0-8-3.6-8-8v-15c0-4.4 3.6-8 8-8s8 3.6 8 8v15c0 4.4-3.6 8-8 8zm19 0c-4.4 0-8-3.6-8-8v-15c0-4.4 3.6-8 8-8s8 3.6 8 8v15c0 4.4-3.6 8-8 8z"/><path class="st1" d="M246 439.5c-4.4 0-8-3.6-8-8v-15c0-4.4 3.6-8 8-8s8 3.6 8 8v15c0 4.4-3.6 8-8 8zm19 0c-4.4 0-8-3.6-8-8v-15c0-4.4 3.6-8 8-8s8 3.6 8 8v15c0 4.4-3.6 8-8 8zm19 0c-4.4 0-8-3.6-8-8v-15c0-4.4 3.6-8 8-8s8 3.6 8 8v15c0 4.4-3.6 8-8 8zm19 0c-4.4 0-8-3.6-8-8v-15c0-4.4 3.6-8 8-8s8 3.6 8 8v15c0 4.4-3.6 8-8 8z"/><path class="st0" d="M112.5 380h287v4h-287z"/><path class="st1" d="M170 397.5c-4.4 0-8-3.6-8-8v-15c0-4.4 3.6-8 8-8s8 3.6 8 8v15c0 4.4-3.6 8-8 8zm-19 0c-4.4 0-8-3.6-8-8v-15c0-4.4 3.6-8 8-8s8 3.6 8 8v15c0 4.4-3.6 8-8 8zm-19 0c-4.4 0-8-3.6-8-8v-15c0-4.4 3.6-8 8-8s8 3.6 8 8v15c0 4.4-3.6 8-8 8zm57 0c-4.4 0-8-3.6-8-8v-15c0-4.4 3.6-8 8-8s8 3.6 8 8v15c0 4.4-3.6 8-8 8z"/><path class="st0" d="M208 397.5c-4.4 0-8-3.6-8-8v-15c0-4.4 3.6-8 8-8s8 3.6 8 8v15c0 4.4-3.6 8-8 8zm19 0c-4.4 0-8-3.6-8-8v-15c0-4.4 3.6-8 8-8s8 3.6 8 8v15c0 4.4-3.6 8-8 8z"/><path class="st1" d="M246 397.5c-4.4 0-8-3.6-8-8v-15c0-4.4 3.6-8 8-8s8 3.6 8 8v15c0 4.4-3.6 8-8 8zm19 0c-4.4 0-8-3.6-8-8v-15c0-4.4 3.6-8 8-8s8 3.6 8 8v15c0 4.4-3.6 8-8 8zm19 0c-4.4 0-8-3.6-8-8v-15c0-4.4 3.6-8 8-8s8 3.6 8 8v15c0 4.4-3.6 8-8 8zm19 0c-4.4 0-8-3.6-8-8v-15c0-4.4 3.6-8 8-8s8 3.6 8 8v15c0 4.4-3.6 8-8 8z"/><path class="st0" d="M112.5 338h287v4h-287z"/><path class="st0" d="M170 355.5c-4.4 0-8-3.6-8-8v-15c0-4.4 3.6-8 8-8s8 3.6 8 8v15c0 4.4-3.6 8-8 8zm-19 0c-4.4 0-8-3.6-8-8v-15c0-4.4 3.6-8 8-8s8 3.6 8 8v15c0 4.4-3.6 8-8 8z"/><path class="st1" d="M132 355.5c-4.4 0-8-3.6-8-8v-15c0-4.4 3.6-8 8-8s8 3.6 8 8v15c0 4.4-3.6 8-8 8zm57 0c-4.4 0-8-3.6-8-8v-15c0-4.4 3.6-8 8-8s8 3.6 8 8v15c0 4.4-3.6 8-8 8z"/><path class="st0" d="M112.5 296h287v4h-287z"/><path class="st1" d="M170 313.5c-4.4 0-8-3.6-8-8v-15c0-4.4 3.6-8 8-8s8 3.6 8 8v15c0 4.4-3.6 8-8 8zm-19 0c-4.4 0-8-3.6-8-8v-15c0-4.4 3.6-8 8-8s8 3.6 8 8v15c0 4.4-3.6 8-8 8zm-19 0c-4.4 0-8-3.6-8-8v-15c0-4.4 3.6-8 8-8s8 3.6 8 8v15c0 4.4-3.6 8-8 8zm57 0c-4.4 0-8-3.6-8-8v-15c0-4.4 3.6-8 8-8s8 3.6 8 8v15c0 4.4-3.6 8-8 8z"/><path class="st0" d="M208 313.5c-4.4 0-8-3.6-8-8v-15c0-4.4 3.6-8 8-8s8 3.6 8 8v15c0 4.4-3.6 8-8 8zm19 0c-4.4 0-8-3.6-8-8v-15c0-4.4 3.6-8 8-8s8 3.6 8 8v15c0 4.4-3.6 8-8 8z"/><path class="st1" d="M246 313.5c-4.4 0-8-3.6-8-8v-15c0-4.4 3.6-8 8-8s8 3.6 8 8v15c0 4.4-3.6 8-8 8zm19 0c-4.4 0-8-3.6-8-8v-15c0-4.4 3.6-8 8-8s8 3.6 8 8v15c0 4.4-3.6 8-8 8zm19 0c-4.4 0-8-3.6-8-8v-15c0-4.4 3.6-8 8-8s8 3.6 8 8v15c0 4.4-3.6 8-8 8zm19 0c-4.4 0-8-3.6-8-8v-15c0-4.4 3.6-8 8-8s8 3.6 8 8v15c0 4.4-3.6 8-8 8z"/><path class="st0" d="M112.5 254h287v4h-287z"/><path class="st1" d="M170 271.5c-4.4 0-8-3.6-8-8v-15c0-4.4 3.6-8 8-8s8 3.6 8 8v15c0 4.4-3.6 8-8 8zm-19 0c-4.4 0-8-3.6-8-8v-15c0-4.4 3.6-8 8-8s8 3.6 8 8v15c0 4.4-3.6 8-8 8zm-19 0c-4.4 0-8-3.6-8-8v-15c0-4.4 3.6-8 8-8s8 3.6 8 8v15c0 4.4-3.6 8-8 8zm57 0c-4.4 0-8-3.6-8-8v-15c0-4.4 3.6-8 8-8s8 3.6 8 8v15c0 4.4-3.6 8-8 8z"/><path class="st0" d="M208 271.5c-4.4 0-8-3.6-8-8v-15c0-4.4 3.6-8 8-8s8 3.6 8 8v15c0 4.4-3.6 8-8 8zm19 0c-4.4 0-8-3.6-8-8v-15c0-4.4 3.6-8 8-8s8 3.6 8 8v15c0 4.4-3.6 8-8 8z"/><path class="st1" d="M246 271.5c-4.4 0-8-3.6-8-8v-15c0-4.4 3.6-8 8-8s8 3.6 8 8v15c0 4.4-3.6 8-8 8zm19 0c-4.4 0-8-3.6-8-8v-15c0-4.4 3.6-8 8-8s8 3.6 8 8v15c0 4.4-3.6 8-8 8zm19 0c-4.4 0-8-3.6-8-8v-15c0-4.4 3.6-8 8-8s8 3.6 8 8v15c0 4.4-3.6 8-8 8zm19 0c-4.4 0-8-3.6-8-8v-15c0-4.4 3.6-8 8-8s8 3.6 8 8v15c0 4.4-3.6 8-8 8z"/><path class="st0" d="M112.5 464h287v4h-287z"/><path class="st1" d="M170 481.5c-4.4 0-8-3.6-8-8v-15c0-4.4 3.6-8 8-8s8 3.6 8 8v15c0 4.4-3.6 8-8 8zm-19 0c-4.4 0-8-3.6-8-8v-15c0-4.4 3.6-8 8-8s8 3.6 8 8v15c0 4.4-3.6 8-8 8zm-19 0c-4.4 0-8-3.6-8-8v-15c0-4.4 3.6-8 8-8s8 3.6 8 8v15c0 4.4-3.6 8-8 8zm57 0c-4.4 0-8-3.6-8-8v-15c0-4.4 3.6-8 8-8s8 3.6 8 8v15c0 4.4-3.6 8-8 8z"/><path class="st0" d="M208 481.5c-4.4 0-8-3.6-8-8v-15c0-4.4 3.6-8 8-8s8 3.6 8 8v15c0 4.4-3.6 8-8 8zm19 0c-4.4 0-8-3.6-8-8v-15c0-4.4 3.6-8 8-8s8 3.6 8 8v15c0 4.4-3.6 8-8 8z"/><path class="st1" d="M246 481.5c-4.4 0-8-3.6-8-8v-15c0-4.4 3.6-8 8-8s8 3.6 8 8v15c0 4.4-3.6 8-8 8zm19 0c-4.4 0-8-3.6-8-8v-15c0-4.4 3.6-8 8-8s8 3.6 8 8v15c0 4.4-3.6 8-8 8zm19 0c-4.4 0-8-3.6-8-8v-15c0-4.4 3.6-8 8-8s8 3.6 8 8v15c0 4.4-3.6 8-8 8zm19 0c-4.4 0-8-3.6-8-8v-15c0-4.4 3.6-8 8-8s8 3.6 8 8v15c0 4.4-3.6 8-8 8z"/><path class="st1" d="M391 20v472H121V20h270m20-20H101v512h310V0z"/><path d="m101 2.8 18.6 18.6c.4.4.9.6 1.4.6v-2h2c0-.5-.2-1-.6-1.4L103.8 0H101v2.8zm288.6 15.8c-.4.4-.6.9-.6 1.4h2v2c.5 0 1-.2 1.4-.6L411 2.8V0h-2.8l-18.6 18.6zM411 509.2l-18.6-18.6c-.4-.4-.9-.6-1.4-.6v2h-2c0 .5.2 1 .6 1.4l18.6 18.6h2.8v-2.8zm-288.6-15.8c.4-.4.6-.9.6-1.4h-2v-2c-.5 0-1 .2-1.4.6L101 509.2v2.8h2.8l18.6-18.6z" fill="#444" opacity=".15"/></svg>