<svg version="1.1" xmlns="http://www.w3.org/2000/svg" x="0" y="0" viewBox="0 0 512 512" xml:space="preserve"><linearGradient id="a" gradientUnits="userSpaceOnUse" x1="0" y1="256" x2="512" y2="256" gradientTransform="matrix(1 0 0 -1 0 512)"><stop offset="0" stop-color="#fdb05d"/><stop offset=".994" stop-color="#ee4c8e"/></linearGradient><path d="M512 256c0 82.8-67.2 150-150 150v-16c35.8 0 69.5-13.9 94.8-39.2 25.3-25.4 39.2-59 39.2-94.8s-13.9-69.5-39.2-94.8c-25.4-25.3-59-39.2-94.8-39.2v-16c82.8 0 150 67.2 150 150zM262 106h-16v16h16v-16zm-16 300h16v-16h-16v16zm24-158h-80v16h80v-16zm16 16h16v-16h-16v16zm-36-86h-80v16h80v-16zm16 16h16v-16h-16v16zm-96 140h80v-16h-80v16zm96 0h16v-16h-16v16zm-116 0H85v-16h65v-54h-40v-16h40v-54H85v-16h65v-56h80v-16h-80C67.2 106 0 173.2 0 256s67.2 150 150 150h80v-16h-80v-56zm180 72h16v-16h-16v16zm30-142h80v-16h-80v16zm112-16h-16v16h16v-16zm-132-54h80v-16h-80v16zm112-16h-16v16h16v-16zM340 334h80v-16h-80v16zm96 0h16v-16h-16v16zm-90-228h-16v16h16v-16z" fill="url(#a)"/></svg>