<svg version="1.1" xmlns="http://www.w3.org/2000/svg" x="0" y="0" viewBox="0 0 512 512" xml:space="preserve"><style type="text/css">.st2{opacity:.15;fill:#444}</style><path d="M332 491h-6c-2.4 0-4.6-1.5-5.5-3.7L312 467V159.5c0-7.9-2.8-15.6-8-21.5-4-4.5-8-11-8-19 0-16 18-36 18-36H198s18 20 18 36c0 8-4 14.5-8 19-5.2 5.9-8 13.6-8 21.5V467l-8.5 20.3c-.9 2.2-3.1 3.7-5.5 3.7h-6c-3.3 0-6 2.7-6 6v9c0 3.3 2.7 6 6 6h152c3.3 0 6-2.7 6-6v-9c0-3.3-2.7-6-6-6z" fill="#79b1d1"/><path d="M216 174v278c0 8.8 7.2 16 16 16h48c8.8 0 16-7.2 16-16V174h-80z" fill="#2e86b7"/><path class="st2" d="M338 506v-9c0-3.3-2.7-6-6-6H180c-3.3 0-6 2.7-6 6v9c0 3.3 2.7 6 6 6h152c3.3 0 6-2.7 6-6z"/><path d="M319.5 83h-127c-1.7 0-3-1.3-3-3V70c0-1.7 1.3-3 3-3h127c1.7 0 3 1.3 3 3v10c0 1.7-1.3 3-3 3z" fill="#36434f"/><path fill="#e0ac7e" d="M246 20h20v27h-20z"/><path d="M293 67h-74V49c0-1.7 1.3-3 3-3h68c1.7 0 3 1.3 3 3v18zm-36.7 16h-37.5l7.4 28.1c1.8 7 8.2 11.9 15.5 11.9h28.9c7.3 0 13.6-4.9 15.5-11.9l7.4-28.1h-37.2zM317 21H195c-1.7 0-3-1.3-3-3V3c0-1.7 1.3-3 3-3h122c1.7 0 3 1.3 3 3v15c0 1.7-1.3 3-3 3z" fill="#826049"/><path d="M208 138c-5.2 5.9-8 13.6-8 21.5v2.5h112v-2.5c0-7.9-2.8-15.6-8-21.5-4-4.5-8-11-8-19 0-16 18-36 18-36H198s18 20 18 36c0 8-4 14.5-8 19z" opacity=".5" fill="#79b1d1"/><path d="M235 448h42v4h-42zm0-95h42v4h-42zm0-95h42v4h-42zm0-95h42v4h-42zm0 266h21v4h-21zm0-19h21v4h-21zm0-19h21v4h-21zm0-19h21v4h-21zm0-38h21v4h-21zm0-19h21v4h-21zm0-19h21v4h-21zm0-19h21v4h-21zm0-38h21v4h-21zm0-19h21v4h-21zm0-19h21v4h-21zm0-19h21v4h-21z" fill="#f4f4f4"/><path class="st2" d="M192.2 2c-.1.3-.2.6-.2 1v15c0 1.7 1.3 3 3 3h51v25h-24c-1.7 0-3 1.3-3 3v18h-26.5c-1.7 0-3 1.3-3 3v10c0 1.7 1.3 3 3 3h5.5s18 20 18 36c0 8-4 14.5-8 19-5.2 5.9-8 13.6-8 21.5V467l-8.5 20.3c-.9 2.2-3.1 3.7-5.5 3.7h-6c-3.3 0-6 2.7-6 6v9c0 3.3 2.7 6 6 6h76V2h-63.8z"/></svg>