<svg version="1.1" xmlns="http://www.w3.org/2000/svg" x="0" y="0" viewBox="0 0 512 512" xml:space="preserve"><path d="M212.3 34.5v444.9c0 18 19.6 32.5 43.7 32.5s43.7-14.5 43.7-32.5V34.6l-87.4-.1z" fill="#f4f4f4"/><path fill="#e0ac7e" d="M290.5 65l11.2-65h-91.4l11.2 65z"/><path d="M212.3 34.5v444.9c0 18 19.6 32.5 43.7 32.5s43.7-14.5 43.7-32.5V34.6l-87.4-.1z" opacity=".5" fill="#f4f4f4"/><path d="M216.3 38.5l79.4.1v440.8c0 15.7-17.8 28.5-39.7 28.5s-39.7-12.8-39.7-28.5V38.5m-4-4v444.9c0 18 19.6 32.5 43.7 32.5s43.7-14.5 43.7-32.5V34.6l-87.4-.1z" fill="#999"/><path d="M223.5 476.6c0 13.4 14.5 24.2 32.5 24.2s32.5-10.9 32.5-24.2V145.3h-65v331.3z" fill="#2e86b7"/><path d="M272.2 95.5c-4.5 0-8.1 3.7-8.1 8.1V387c0 4.5 3.7 8.1 8.1 8.1 4.5 0 8.1-3.7 8.1-8.1V103.6c.1-4.5-3.6-8.1-8.1-8.1zm0 328.1c-4.5 0-8.1 3.7-8.1 8.1v40.6c0 4.5 3.7 8.1 8.1 8.1 4.5 0 8.1-3.7 8.1-8.1v-40.6c.1-4.4-3.6-8.1-8.1-8.1z" opacity=".5" fill="#f4f4f4"/><path d="M210.3 0l5.9 34.5h-3.9v444.9c0 18 19.6 32.5 43.7 32.5V0h-45.7z" opacity=".15" fill="#444"/></svg>