<svg xmlns="http://www.w3.org/2000/svg" viewBox="0 0 512 512" xml:space="preserve"><style>.st0{fill:#79b1d1}</style><circle class="st0" cx="256" cy="256" r="256"/><path d="M256 0c-7 0-13.93.29-20.79.84l-.2 1.39-12.71 1-.29-.98c-6.63.88-13.18 2.02-19.64 3.39l-14.63 6.27h-1.77c-.74-.57-1.54-1.07-2.38-1.51-31.19 9.19-59.89 24.13-84.89 43.62L70.29 94.31l45.68-23.69 1.78 1.22.46 3c-2.91 4.58-3.43 10.18-1.47 15.71-.54 1.2-1.39 2.69-2.3 4.25-.51.89-1.03 1.78-1.52 2.67-.32.58-1.22 1.71-2.02 2.71-2.43 3.05-6.01 7.55-7.74 13.87-3.85 5.92-5.62 12.76-5.41 20.84.05 1.76.32 3.22.55 4.22.03 1.32.03 2.66.04 4.05.01 1.7.02 3.39.06 5.1.04 1.62.19 3.06.32 4.25.04.36.08.73.11 1.11l.77 8.66 6.48 3.43c.04 2.95.13 6.23.62 9.68l-19.51 4.63 24.51 20.48c.75.63 1.46 1.21 2.14 1.77.1.08.19.16.28.23.19 6.83 3.93 11.63 5.35 13.45.94 1.2 1.93 2.68 3 4.28.55.82 1.1 1.65 1.67 2.47l8.28 12.01 5.2-2.92c.14 5.46 2.5 10.35 8.83 15.61.37.31.78.65 1.23 1.04.02.02.04.03.06.05 4.23 5.19 9.31 7.92 13.08 9.93 1.33.71 2.71 1.45 3.39 1.97 4.8 3.72 10.07 5.89 14.29 7.63l.3.12c.49.21.99.41 1.49.62.25.1.51.22.77.33l.1.04c3.72 1.62 10.43 4.56 17.89 2.35 3.32 3.98 9.37 10.41 19.15 11.56.06.03.13.05.19.07.55.21 1.09.44 1.63.67l.17.07c1.98.84 4.49 1.91 7.47 2.6 1.02 1.13 2 2.07 2.84 2.87l.09.33c1.15 6.03 4.13 10.39 8.85 12.95 1.74.95 3.61 1.61 5.64 1.99l6.87 6.64 5.3.66c1.29.16 1.97.3 2.32.39l7.21 9.71c-3.36 3.2-4.99 6.93-5.76 8.94-2.63 3.16-4.4 7.2-4.93 11.36-.22 1.75-.67 5.22.11 9.15-2.18 4.47-2.53 9.64-1.04 15.43.01.61.03 1.26.08 1.94l.8 11.58 9.95 2.5c.61.9 1.49 2.39 1.83 2.96.63 1.07 1.34 2.28 2.15 3.54 3.24 5.03 6.34 10.05 9.24 14.76.15.43.32.9.51 1.38l.05.16c.62 2.04 2.08 6.83 6.73 10.47 3.1 2.43 6.61 4.53 10.43 6.25 2.21.99 4.32 1.76 6.19 2.43.4.14.79.29 1.17.42 0 .01-.01.03-.01.04-.51 1.72-1.08 3.67-1.56 5.79-.88 3.92-2.25 7.92-4.44 12.95-.14.32-.56 1.08-.87 1.64-1.47 2.65-3.77 6.79-4.42 12.2-.97 1.2-1.99 2.55-2.96 4.09-2.22 1.77-7.2 6.05-8.53 13.19-.48.66-.95 1.32-1.42 1.98l-5.24 7.28-13.56 7.04 14.05 19.77c18.6-1.39 36.64-4.77 53.92-9.92l13.44-9.66-.28-.17c.07-.04.14-.07.21-.11 1.32-.67 2.41-1.41 3.32-2.12l.27-.06c1.95-.43 4.39-.98 7.02-2 .51-.2 1.04-.38 1.59-.58 3.91-1.39 11.48-4.07 16.19-11.35 3.87-1.23 7.38-3.08 10.47-5.52 3.1-2.45 5.91-4.97 8.65-7.43 1.55-1.39 3.03-2.72 4.5-3.98 1.57-.8 4.2-2.14 6.72-4.69.71-.72 1.6-1.52 2.55-2.39 3.86-3.5 9.03-8.2 12.01-15.66 4.21-3.9 9.28-7.38 15.45-10.59 5.29-2.75 9.93-6.66 13.06-11 6.96-9.65 15.34-22.73 18.92-38.79 1.16-1.75 2.36-3.52 3.54-5.25 2.7-3.97 5.5-8.08 8.12-12.49 2.48-4.18 4.39-9 5.82-14.74 1.89-7.59 1.27-14.66-1.87-21.04l-8.25-16.53-8.47 5.84c-3.73-2.13-7.59-3.08-11.52-2.82-2.52.17-4.9.56-7.15 1.03-3.56-1.91-6.95-2.46-8.48-2.7-.14-.02-.29-.05-.44-.07-.97-.3-1.93-.54-2.88-.72a20.64 20.64 0 0 0-2.65-3.9c-1.69-6.85-5.82-12.22-12.32-15.99-5.68-3.29-14.1-7.15-24.46-5.12-2.71-3.14-6.06-5.61-10.03-7.38-2.17-2.72-5.05-4.8-8.47-6.11l-6.08-11.58-14.12 7.27c-.76.39-1.57.82-2.41 1.27-.65.35-1.3.7-1.96 1.04-2.97-.83-5.75-.93-8.16-.75-.51-.36-1.03-.69-1.57-1l1.45-4.65-13.34-.54.23-.38h5.66c2.1.58 4.33.73 6.6.41.82-.12 1.62-.26 2.37-.41h2.43l-.35-.47c.64-.16 1.25-.31 1.82-.46.4-.1.8-.21 1.2-.31l15.23-3.75-6.5-28.85h-16.64l-10.17-7.35 1.15 4.68c-2.37-1.06-5.06-2.03-8.1-2.6-4.67-.86-8.96-.47-12.29-.05l-2.46-.91c-.7-.26-1.41-.5-2.11-.75-.92-.32-1.87-.65-2.4-.89-2.37-1.1-4.72-2.23-7.08-3.36-2.42-1.16-5.14-2.47-7.84-3.72.8-3.33.81-6.88-.06-10.16-1.57-5.91-3.17-11.06-4.9-15.75l-.18-.49c-.11-.3-.21-.57-.3-.82 1.59-1.54 3.39-3.05 5.14-4.5 2.26-1.87 4.82-3.75 7.54-5.76l.08-.06c1.32-.97 2.68-1.97 4.08-3.02l19.49-14.66-13.19-7.49v-.02c.14-.23.28-.46.41-.7l41.82-12.46-14.15-5.35c.32-.28.6-.55.86-.78l.33-.3c.4-.37.8-.76 1.17-1.17 1.9-1.11 3.82-2.21 5.84-3.36l10.36-5.93 8.98 1.63 15.36-16.6L364.2 83l41.69 26.54-39-54.92 2.33.39 22.27 8.27c.03.03.06.06.08.09.98 1.01 2.1 2.15 3.29 3.29 2.38 2.28 4.85 4.56 7.03 6.57l14.5 13.47 3.36-3.54c1.73 2.02 3.65 3.75 5.79 5.19.86.58 1.85 1.5 2.86 2.53.21 3.45 1.47 7.6 5 12l.18.23c1.15 1.45 2.3 2.89 3.46 4.33l.33.41c1.96 2.44 3.91 4.88 5.83 7.34 2.62 3.36 6.21 6.33 10.36 8.61.07.22.14.44.22.66 1.3 3.71 2.74 7.19 4.14 10.55l.13.3c.37.88.73 1.76 1.09 2.64.76 1.86 1.55 3.7 2.33 5.55l.07.16c1.67 3.91 3.25 7.6 4.48 11.23.54 1.58.92 3.81 1.33 6.21.22 1.31.5 2.93.84 4.59.21 1 .41 2 .62 3.06.59 2.96 1.21 6.02 1.97 9.18 1.17 4.87 2.39 9.9 4.04 15.05.8 2.5 1.74 4.74 2.56 6.72.77 1.85 1.49 3.59 1.84 4.91.33 1.27.55 3.06.79 4.97.32 2.63.69 5.62 1.5 8.83 1.32 5.22 3.07 9.95 4.76 14.51l.72 1.94c.98 2.66 2.04 5.03 3.09 7.35l.08.19c.35.78.7 1.56 1.04 2.34.89 2.06 2.87 6.57 4.83 11.06l13.98 31.94c1.29-10.4 1.96-20.99 1.96-31.74C512 114.62 397.38 0 256 0zm-8.55 207.99a17.412 17.412 0 0 0-5.45 4.24c-1.24-.2-2.5-.25-3.79-.16-5.09.37-10.25.96-15.31 1.74-7.56 1.17-12.78 7.13-14.56 13.38l-.51.12c-.11-.09-.22-.17-.32-.25-.18-.4-.38-.89-.53-1.23-.34-.8-.7-1.6-1.06-2.4-.21-.46-.58-1.28-.82-1.87.23-1.5.42-2.93.6-4.33l.01-.1c.1-.77.2-1.54.31-2.31 1.86-2.62 3.42-6.27 3.45-11.14 1.36-.7 2.53-1.49 3.5-2.23.66 0 1.62.01 2.22.04 4.58 1.93 14.47 5.49 24.05-2.98h.3c2.02 1.28 4.18 2.15 6.44 2.62.71 2.28 1.68 4.37 2.75 6.26-.42.18-.85.38-1.28.6zm9.87 34.66c-.25-.06-.5-.12-.75-.17-.75-.16-1.5-.29-2.23-.39l5.38-1.98-2.4 2.54zm42.02 16.33c3.01.8 5.81.85 8.1.67l.64.82a18.6 18.6 0 0 0-3.24 2.56c-1.33.84-2.71 1.67-4.02 2.39-.12.04-.24.09-.38.14-2.5.25-4.98 1.01-7.24 2.24a20.346 20.346 0 0 0-7.43 6.93c-3.57-.87-7.94-1.14-12.67.45.53-3.16.74-6.15.94-8.87.09-1.34.18-2.61.31-3.81l.55-5.34a19.75 19.75 0 0 0 6.93 3.96c7.66 2.48 14.03-.36 17.51-2.14z" fill="#b7d3e3"/><path d="M512 256c0 5.11-.17 10.17-.46 15.21l-7.74-17.68c-2.09-4.77-4.28-9.78-5.23-11.97-.38-.88-.77-1.75-1.17-2.63-.98-2.17-1.99-4.42-2.88-6.83l-.72-1.95c-1.62-4.38-3.3-8.91-4.51-13.7-.69-2.73-1.01-5.33-1.32-7.85-.27-2.17-.52-4.22-.98-6-.48-1.86-1.31-3.86-2.19-5.97-.8-1.93-1.63-3.92-2.33-6.09-1.56-4.87-2.74-9.76-3.88-14.49-.72-2.99-1.32-5.98-1.91-8.88l-.63-3.1c-.3-1.47-.55-2.92-.79-4.32-.46-2.7-.9-5.25-1.64-7.43-1.33-3.9-2.96-7.74-4.7-11.8-.79-1.86-1.59-3.72-2.35-5.59-.41-1-.82-1.99-1.24-2.99-1.36-3.26-2.76-6.63-3.98-10.12a9.963 9.963 0 0 1-.56-3.44c-4.55-1.84-8.62-4.73-11.26-8.11-1.95-2.49-3.92-4.96-5.9-7.43-1.26-1.57-2.51-3.14-3.76-4.71l-.21-.27c-3.07-3.82-3.65-7.21-3.08-10.01-2.23-2.4-4.34-4.65-6.54-6.13-4.12-2.79-6.55-6.65-8.18-10.06-.14-.02-.28-.04-.43-.05-.43-.06-.94-.12-1.5-.23l-3.87 4.07-5.8-5.39c-.97-.9-1.95-1.8-2.92-2.71-2.28-2.1-4.63-4.28-6.94-6.48-1.09-1.04-2.11-2.08-3.09-3.09-1.14-1.17-2.22-2.28-3.31-3.28-.8-.74-1.83-1.49-2.91-2.29-.59-.43-1.17-.87-1.75-1.32l-5.91-4.56 2.11-3.16-5.91-5.83 8.22 2.36 1.51-2.27C462.91 82.43 512 163.48 512 256zm-40.25 69.29c2.3 4.67 2.71 9.75 1.27 15.54-1.24 4.98-2.85 9.09-4.93 12.59-2.5 4.2-5.22 8.2-7.86 12.08-1.37 2.01-2.79 4.1-4.13 6.14-.25.38-.35.68-.37.76-3.13 15.17-11.17 27.72-17.83 36.96-2.42 3.35-6.06 6.4-10.26 8.59-7.52 3.91-13.62 8.23-18.64 13.21-2.13 6.62-6.74 10.81-10.5 14.22-1.03.93-2 1.82-2.86 2.69-1.62 1.64-3.39 2.54-4.68 3.2-.3.15-.7.36-.88.47-1.77 1.49-3.5 3.04-5.32 4.68-2.63 2.36-5.35 4.8-8.26 7.11-3.47 2.74-7.25 4.2-10.91 4.94-2.86 6.91-9.54 9.27-13.46 10.67-.61.21-1.21.43-1.8.66-2.08.81-4.1 1.26-5.88 1.65-.81.18-1.58.35-2.28.54-.71.67-1.73 1.58-3.18 2.31-2.38 1.21-5.03 2.54-8.03 3.42-.88 1.65-2.13 2.95-3.52 4.01l.81.5-9.64 6.93c-.41.33-1.2.95-2.34 1.43-1.03.43-2.05.85-3.07 1.26-.71.29-1.41.57-2.09.85l1.53 3.02a256.35 256.35 0 0 1-27.22 4.61h-1l-11.33-15.94 7.62-3.96-.22-.15 6.05-8.4c.86-1.21 1.73-2.41 2.61-3.61.27-5.61 4.54-8.97 6.19-10.26.25-.2.57-.45.77-.62 1.38-2.42 3.05-4.42 4.54-6.19.05-.05.09-.11.13-.16-.04-4.86 2.09-8.7 3.59-11.42.48-.86.92-1.67 1.21-2.34 2.39-5.51 3.91-9.95 4.91-14.38.42-1.86.93-3.6 1.43-5.29.66-2.23 1.28-4.33 1.57-6.35.02-.15.03-.27.04-.36-.27-.23-.88-.64-2.27-1.35-1.59-.81-3.47-1.49-5.45-2.21-1.82-.66-3.69-1.33-5.62-2.2-3.23-1.46-6.19-3.22-8.78-5.25-2.66-2.08-3.54-4.96-4.01-6.5-.06-.19-.11-.39-.18-.57-.2-.48-.38-1-.56-1.52-.06-.18-.12-.37-.19-.55-3.05-4.98-6.34-10.31-9.79-15.66-.71-1.11-1.36-2.2-1.98-3.26-2.38-4.05-3.62-5.88-5.46-6.34l-5.63-1.42-.4-5.79c-.05-.68-.06-1.31-.07-1.91 0-.22 0-.43-.01-.63-1.61-5.48-1.12-9.6 1.77-13.13-1.63-3.54-1.14-7.34-.89-9.29.4-3.08 1.85-6.06 3.94-8.13.09-.23.21-.54.3-.79.75-2.02 2.49-6.73 7.49-8.89.49-1.95 1.77-5.47 5.86-7.38-.47-3.44-.44-6.67.07-9.62.06-.34.05-.5.05-.53-.01 0-.12-.24-.54-.71-.19-.21-.37-.43-.53-.65l-10.73 6.22-4.26-5.73c-1.53-2.06-3.7-2.67-7.44-3.13l-2.65-.33-6.88-6.64c-1.44-.07-3.44-.3-5.45-1.4-3.8-2.06-4.52-5.84-4.82-7.45-.02-.11-.04-.22-.06-.32-.23-.78-.38-1.51-.5-2.1-.03-.13-.06-.28-.09-.42-.45-.49-1.03-1.05-1.65-1.63-.89-.84-1.9-1.8-2.88-2.93-.47-.54-.89-1.1-1.28-1.65-3.35-.32-6.29-1.57-8.68-2.58-.69-.29-1.38-.59-2.08-.85-.37-.14-.71-.3-1.01-.44-8.2-.47-12.95-6.29-15.88-9.87l-.18-.22c-2.01-2.46-3.04-2.94-6.46-1.6-4.98 1.95-9.8-.16-13.33-1.7-.34-.15-.67-.29-.98-.42-.6-.25-1.21-.51-1.83-.76-3.99-1.64-8.5-3.51-12.45-6.56-1.21-.94-2.81-1.8-4.52-2.71-3.52-1.88-7.84-4.2-11.13-8.55-.2-.15-.4-.3-.58-.46-.5-.43-.95-.8-1.36-1.14-6.5-5.41-6.89-8.92-4.78-16.7.24-.89.37-2.18-.82-4.31-.45-.8-.93-1.6-1.43-2.39-.87 1.12-1.97 2.06-3.25 2.78l-6.36 3.57-4.14-6.01c-.55-.8-1.09-1.61-1.63-2.41-1.13-1.69-2.2-3.29-3.32-4.72-1.47-1.89-4.73-6.06-3.31-11.94-.02-.02-.05-.04-.07-.07-1.04-.93-2.17-1.86-3.48-2.94-.66-.54-1.35-1.11-2.09-1.73l-12.25-10.24 11.78-2.79c-2.2-5.96-2.25-11.87-2.29-17.21-.01-.86-.01-1.71-.03-2.57 0-.14-.02-.21-.02-.23-.07-.14-.53-.74-2.99-2.04l-3.84-2.03-.38-4.33c-.04-.42-.08-.84-.13-1.26-.11-1.07-.24-2.29-.27-3.58-.04-1.66-.05-3.31-.06-4.96-.01-1.68-.02-3.35-.06-5.03-.01-.06-.03-.11-.04-.17-.18-.74-.45-1.85-.49-3.22-.18-6.9 1.41-12.56 4.84-17.32 1.13-5.35 4.13-9.12 6.57-12.2 1.08-1.36 2.11-2.65 2.76-3.82.47-.85.96-1.7 1.45-2.54 1.19-2.06 2.32-4.01 3.04-5.86.28-.72.59-1.38.92-2-.08-.25-.15-.49-.21-.71-.16-.54-.32-1.09-.45-1.38-2.24-5.14-.53-8.67.7-10.32.35-.47.77-.95 1.29-1.4l-1.51-9.93-.14-.11.1-.12-.22-1.45.82.71 4.78-5.86c.41-.51.81-1.02 1.21-1.54.73-.95 1.53-1.98 2.44-3.01-.1-.52-.17-1.04-.2-1.56l-16.82 6.71L95.74 72.1l18.92-26.82c.38-.53.75-1.07 1.12-1.6.8-1.15 1.62-2.32 2.48-3.5a254.867 254.867 0 0 1 54.97-26.5c2.16.8 3.86 1.98 5.02 2.79.51.36 1.09.76 1.39.91 1.37.67 2.35 1.57 3.06 2.54h10.27l-.52-1.32 23.13-9.91 3.23 10.85 9.97-.67 1.75 4.5 11.31-7.19-6.98-5.9 7.03-.55c.09-.44.19-.8.26-1.08l.05-.2 1.15-8.13c1.91-.09 3.82-.17 5.74-.22l12.76 6.95c.88.22 1.69.54 2.42.92l1.82-.14c-.12-1.34-.08-2.85.09-4.58l.29-3c21.17.85 41.67 4.27 61.21 9.96 2.1.98 4.15 1.94 6.11 2.88 2.43 1.15 4.33 2.76 5.86 4.05.52.44 1.04.88 1.58 1.29l8.01 6.08-5.2 4.34.81 1.05 4.17-3.57c1.58-1.35 5.46-4.67 10.44-4.51 2.64 1.17 5.26 2.36 7.84 3.62 2.45 2.51 3.86 5.72 4.7 7.64l7.59 17.29-26.58-9.87 3.29 4.27-6.98-1.17c.86 1.28 1.74 2.6 2.68 3.92l23.68 33.34-41.45-26.39c-2.8 1.19-5.2.59-6.9-.3-2.72-1.43-5.33-2.98-7.86-4.47l-1.36-.81c-.67-.4-1.34-.79-2.02-1.18-2.07-1.21-4.21-2.45-6.34-3.85-1.59-1.05-3.01-2.17-4.5-3.36-.31-.25-.63-.5-.97-.77-.1.63-.23 1.16-.32 1.53l-.03.25 3.96 2.69-1.86 2.85.97.57-.53.74.13.12c1.7 1.55 3.29 3.05 4.82 4.49 3.26 3.07 6.07 5.73 9.04 7.96.68.51 2.07 1.06 3.42 1.59 2 .79 4.26 1.68 6.48 3.19.58.4 1.61.82 2.7 1.26 3.19 1.3 8.01 3.26 11.02 8.64.08.14.16.28.23.42l2.43.19.59 6.23c.41.09.82.18 1.23.29l1.52-5.95 16.67 23.91-8 8.65-9.69-1.76 1 1.05-11.73 6.72c-2.45 1.4-4.79 2.73-7.1 4.09-.33.44-.77.95-1.33 1.46l-.36.33c-1.14 1.05-2.69 2.49-4.89 3.49-1.41.65-5.14 1.79-9.31-1.51-.4-.31-.76-.63-1.08-.95-.41.27-.83.55-1.26.82l5.3 7.4 4.95 1.87-22.6 6.73c-.49 1.48-1.2 2.98-2.25 4.28-.16 1.97-.84 4.18-2.29 6.63l8.56 4.86-9.75 7.33c-1.4 1.05-2.77 2.06-4.1 3.04-2.81 2.07-5.47 4.02-7.91 6.04-2.92 2.42-5.97 5.02-8.37 7.85-.62.74-.69 1.48 1.13 6.41l.18.49c1.63 4.45 3.16 9.36 4.67 15.03 1 3.76.05 8.24-2.37 11.16-.34.41-.71.78-1.1 1.11 1.09.46 2.16 1 3.21 1.61.16.04.32.07.49.11.97.21 2.3.5 3.74 1.16 2.77 1.27 5.53 2.6 8.2 3.88 2.39 1.15 4.78 2.29 7.18 3.41.89.41 1.99.79 3.15 1.19.65.23 1.31.45 1.95.69l4.31 1.59c.25-.03.5-.06.75-.1 3.12-.4 7.01-.91 11.03-.17 4 .74 7.4 2.5 10.39 4.06.93.48 1.82.94 2.66 1.34h15.75l3.37 14.96-7.61 1.88c-.45.11-.9.23-1.34.34-1.58.41-3.38.88-5.32 1.15-1.85.26-4.21.03-6.35-1.85-1.57.38-3.05.53-4.42.61l.56.74h-5.43l-5.86 9.58-6.54-8.38c-.4.05-.85.12-1.2.17-2.73.42-6.79 1.05-10.95-1.06l-2.37 1.23c-2.64 1.37-7.05 3.66-12.12 2.02-2.21-.72-5.3-2.49-7.5-6.88l-1.04-2.09-10.09.9 6.88-7.31-2.2-4.39c-1.73-.44-3.41-.94-5.06-1.43-.65-.19-1.31-.39-1.96-.58-.71-.21-1.33-.48-1.89-.8l-15.5 5.7c-.06.05-.1.09-.14.12-.28.4-.52 2.03-.66 3-.28 1.91-.63 4.29-1.65 6.72a8.78 8.78 0 0 1-1.58 2.47c-.01.19-.03.38-.05.56l2.54.03 1.34.02c2.78.03 5.94.06 9.18.74 1.71.36 3.12 1.1 4.25 1.9l8.47-2.72-1.26 12.18c-.14 1.31-.23 2.65-.33 4.07-.25 3.49-.51 7.1-1.4 10.84-.89 3.73-.35 5.25 2.6 7.4 1.41 1.03 2.22 1.55 2.7 1.81.33-.16.85-.46 1.64-.99 8-5.39 15.22-1.5 18.3.16.08.04.16.09.24.13.09-.08.18-.16.28-.24.02-.08.03-.16.04-.23.06-.31.12-.63.18-.95.78-3.85 3.1-7.08 6.38-8.86 1.59-.86 3.32-1.32 5.02-1.36.15-.05.29-.1.43-.15.8-.28 1.55-.54 1.88-.71 1.84-.99 3.7-2.14 5.6-3.34.74-.84 2.14-2.22 4.36-2.92 2.19-.7 4.16-.48 5.21-.36.11.01.21.03.32.03l10.36.42-.72 2.31c3.44.11 6.58 1.53 9.16 4.18 2.92-.58 6.87-1.01 11 1.04 1.79-.81 3.57-1.76 5.29-2.68.81-.43 1.58-.84 2.31-1.22l7.06-3.63 3.69 7.03c.1.18.19.36.28.54 4.04.76 7.07 2.87 8.75 5.91 4.08 1.42 8.46 4.04 11.47 9.29.5.27 1.49.45 1.94.34 9.21-3.23 16.76.04 22.3 3.26 5.17 3 8.11 7.25 8.95 12.94 1.87 1.67 3.76 4.19 4.2 7.79 2.08-.32 4.3-.09 6.67.69.2.06.79.16 1.22.23 1.61.26 5.23.84 8.19 3.37 2.94-.72 5.98-1.39 9.23-1.61 3.59-.24 7.16 1.28 10.87 4.63l5.54-3.82 4.18 8.33zm-129.29-89.28.14.58.35-.2c-.16-.13-.32-.25-.49-.38zM260.13 24.33c.23.1.46.2.69.32 2.08 1.05 3.34 2.57 4.14 3.97l9.61.55 4.99-5.48 3.4 5.3c1.51-.56 3.45-.94 5.54-1.07-1.35-.8-2.61-1.65-3.82-2.46a94.06 94.06 0 0 0-2.35-1.54c-1.85-1.16-3.5-2.39-5.09-3.58-.65-.48-1.28-.95-1.89-1.4l3.53 3.91-18.75 1.48zM249.21 6.51l2.35 2.45 1.56-.12c.97-.64 1.91-1.11 2.82-1.44-.67-.67-1.78-1.37-3.23-1.58-.28-.04-.56-.06-.81-.06-1.42 0-2.42.53-2.69.75zm-11.13 52.65c.06.11.13.22.19.33 4.8.69 8.49 3.07 10.6 4.44 1.25.81 3.53 1.39 5.72 1.95.57.15 1.14.29 1.71.44.26.05 1.18.06 1.86.07.8.01 1.66.02 2.57.07l3.39.18-4.87-5.75 3.29-3.21c-1.85-3.89-1.65-8.1.55-11.32.7-1.03 1.57-1.9 2.57-2.61l-.68-.34-.19.1c-.65.34-1.24.67-1.74.94-.53.29-.97.53-1.29.69-2.11 1.08-4.12 1.26-5.87.87-.14.18-.26.33-.35.44-.08.11-.19.28-.3.45-2.2 3.3-4.66 4.94-7.06 5.59l.14 1.72-6.75 1.54-.42.09a83.243 83.243 0 0 0-3.07 3.32zm-6.49-32.57c.1.52.17 1.01.2 1.49 1.66-.31 3.19-.92 4.67-1.87l-4.87.38zm-11.85-3.93.29.99.58-1.33c-.28.09-.57.2-.87.34zm25.25 199.59.53-.81c.2-.31.38-.65.6-1.05.77-1.43 2.05-3.83 4.9-5.24 3.52-1.75 6.96-2.93 10.31-3.54a83.43 83.43 0 0 0-1.77-2.45c-2.83-3.84-6.36-8.63-6.68-14.5-.03-.59-.1-.97-.42-1.47-4.63 1.03-8.09-.73-10.43-2.83-2.18.25-4.15.07-5.78-.07-.05 0-.09-.01-.14-.01-6.58 7.73-12.74 5.99-18.49 3.52-.87-.37-3.07-.38-4.84-.38-.87 0-1.76 0-2.69-.04-1.66 1.51-3.91 3.45-7.11 4.22-1.65.4-1.97 1.83-1.89 2.28l.07.38c.84 4.72-.08 8.47-2.74 11.19-.03.28-.07.55-.11.81-.21 1.3-.38 2.61-.55 3.91-.22 1.69-.45 3.44-.76 5.22-.21 1.22.48 2.82 1.63 5.33.33.73.67 1.46.98 2.2.55 1.3 1.14 2.69 1.63 3.31.16.18.75.65 1.17.98.92.72 2.05 1.62 3.14 2.83.62-.08 1.67-.35 2.41-.54 1.11-.29 2.37-.61 3.75-.83.97-.15 1.88-.18 2.72-.14.81-1.12 1.2-1.98 1.22-2.92.11-4.17 3.53-9.15 8.45-9.91 4.86-.75 9.79-1.31 14.67-1.67 1.58-.1 4.01.16 6.22 2.22z" opacity=".5" fill="#fff"/><path d="M339.98 89.42c2.46.41 5.34.47 7.87 1.45 1.72.66 3.2 2.44 4.24 4.07.37.58-.77 2.27-1.44 3.31-.49.74-1.04.69-2.23.46-3.1-.6-6.44.03-9.69.16-.69.03-1.39 0-2.68 0 2.13-5.09-.79-10.72 2.24-15.3l1.13.09c.18 1.69.34 3.38.56 5.76zm14.25-57.04c3.63 1.35 7.05 2.62 10.46 3.89-3.25-7.42-5.52-8.13-10.46-3.89zm2.29 67.59c-.85-1.22-1.7-2.43-2.99-4.29-.51 1.99-.78 3.06-1.12 4.37 1.35.24 2.4.44 3.46.63l.65-.71zm71.89-33.2c1.5 3.47 3.21 6.38 6.1 8.33 3.85 2.6 6.95 6.36 10.21 9.77.61.64.95 2.45.51 3.01-1.77 2.26-.35 3.72.9 5.29 3.23 4.07 6.51 8.09 9.7 12.19 2.45 3.15 7.14 5.87 11.96 6.82a256.57 256.57 0 0 0-39.38-45.41zm36.16 262.06c1.7 3.46 1.47 6.9.68 10.07-.9 3.6-2.16 7.26-4.04 10.43-3.65 6.14-7.88 11.94-11.8 17.93-.69 1.06-1.26 2.29-1.51 3.53-2.62 12.7-9.05 23.59-16.49 33.9-1.84 2.55-4.65 4.7-7.47 6.17-7.68 4-14.73 8.76-20.85 14.88-.57.58-1.25 1.24-1.44 1.98-1.68 6.69-7.3 10.25-11.72 14.72-1.33 1.34-3.46 1.86-4.93 3.1-4.55 3.83-8.81 8.01-13.47 11.69-4.35 3.43-9.62 4.04-15.18 3.95.81.36 1.63.72 2.54 1.13-.61 7.05-6.52 8.09-11.46 10-2.81 1.09-5.92 1.39-8.78 2.36-1.23.42-2.08 1.86-3.28 2.47-2.32 1.18-4.7 2.38-7.2 3.02-1.98.51-3.39-.1-4.06 3.17-.45 2.23-4.82 3.81-7.6 5.38-1.55.88-3.45 1.15-6.01 1.95 1.58.97 2.39 1.47 3.32 2.05-.24.17-.44.38-.68.48-3.32 1.4-6.71 2.65-9.92 4.26-.99.5-1.48 1.97-2.2 3 .2.4.4.8.61 1.2-1.81-.19-3.62-.46-5.44-.52-.4-.01-.82.75-1.23 1.16h-6.4c-1.12-1.57-2.24-3.15-3.6-5.07 1.16-.6 2.45-1.27 3.82-1.98-1.35-2.64 1.13-3.82 2.49-3.8 4.5.05 4.96-3.62 6.99-5.83-.3-.36-.6-.71-.91-1.07-1.62 1.34-3.24 2.68-4.86 4.03l-.62-.41c1.42-1.97 2.81-3.95 4.27-5.89.41-.55 1.52-1.16 1.43-1.42-1.91-5.21 3.66-6.13 5.35-9.24 1.53-2.81 3.9-5.16 5.87-7.74.19-.25.32-.68.25-.98-1.16-4.91 2.19-8.5 3.91-12.45 2.24-5.16 4.11-10.24 5.37-15.8.91-4.04 2.49-7.96 3.11-12.25.82-5.66-2.62-8-6.52-9.98-3.64-1.85-7.68-2.89-11.41-4.57-2.52-1.13-4.97-2.56-7.14-4.26-.97-.76-1.18-2.49-1.71-3.79-.42-1.02-.67-2.14-1.24-3.07-3.28-5.35-6.58-10.69-9.98-15.97-3.36-5.22-5.72-11.4-12.22-13.03-.11-1.6.03-2.87-.31-3.99-1.38-4.51-.88-5.94 3.3-8.61 1.1-.7 2.15-1.46 3.43-2.32-2.15-1.22-4.32-1.77-5.23-3.16-.86-1.32-.66-3.54-.43-5.3.16-1.27.84-2.78 1.79-3.6 2.75-2.38 1.66-7.84 7-8.3 1.03-.09 2.27-2.75 2.63-4.39.38-1.75.76-2.58 2.67-3.01 2.57-.58 4.03-4.59 3.6-7.22-.42-2.59-.54-5.36-.09-7.93.56-3.21-.27-5.53-2.37-7.92-1.22-1.39-1.45-3.62-2.51-5.21-.9-1.35-2.2-2.7-3.64-3.33-.99-.43-2.68.08-3.77.68-1.29.71-2.29 1.96-3.62 3.17.47.84 1 1.8 1.74 3.14-1.17.68-2.23 1.29-3.29 1.91-3.7-4.98-9.11-5.83-12.88-6.3-3.35-3.24-5.68-5.49-8.02-7.75-.08.27-.16.54-.23.8-1.32-.13-2.82.06-3.89-.52-.67-.36-.71-1.9-1.01-2.92-.46-1.55-.53-3.38-1.43-4.6-1.51-2.04-3.65-3.61-5.32-5.55-1.15-1.33-1.97-2.95-3.16-4.78-4.1 1.43-8.01-1-12.09-2.55-.77-.29-1.51-.98-2.24-.95-5.51.27-8.52-3.57-11.47-7.17-4.31-5.28-9.05-6.54-15.58-3.99-2.18.85-5.64-.93-8.29-2.05-4.3-1.81-8.86-3.47-12.48-6.27-4.73-3.66-11.03-5.09-14.59-10.34-.32-.47-.9-.76-1.35-1.14-5.01-4.27-5.25-3.6-3.6-9.66 1.06-3.9.08-7.38-1.57-10.32-2.97-5.3-6.87-10.08-10.38-15.09-.2-.28-.53-.7-.44-.9 1.64-3.66-1.08-5.8-2.73-8.41-1.7-2.71-2.99-5.68-4.55-8.48-.2-.36-.98-.39-.91-.36-.19-4.1-.04-8.09-.76-11.92-.22-1.17-2.87-1.88-5.05-3.19-.61 4.06-2.14 7.12-.38 10.81 1.88 3.94 2.82 8.32 4.6 12.32 2.05 4.63 2.45 9.45 2.72 14.37.03.61.93 1.29 1.57 1.73 2.76 1.9 2.91 5.23.74 6.45-1.76-2.55-3.37-5.13-5.23-7.52-1.42-1.83-2.61-3.34-1.57-5.97 1.16-2.91-.68-5.18-2.76-7.05-1.73-1.55-3.55-2.99-5.79-4.86 4.55-1.08 5.59-2.77 3.64-6.02-3.92-6.55-3.43-13.68-3.57-20.81-.09-4.83-3.58-7.23-7.27-9.18-.13-1.48-.34-2.9-.37-4.32-.08-3.46-.04-6.92-.13-10.38-.03-1.01-.5-2.01-.52-3.02-.11-4.47.65-8.73 3.35-12.47.48-.66 1.06-1.4 1.17-2.17.87-6.09 5.91-9.67 8.65-14.63 1.71-3.09 3.66-6.1 4.94-9.36 1.21-3.1 2.53-3.29 4.91-1.2 2.63-2.89 2.7-5.86-.69-8.81.18 1.21.51 2.42.51 3.64 0 .92-.4 1.84-.62 2.76-.76-.53-1.85-.89-2.21-1.61-.77-1.56-1.04-3.37-1.75-4.98-1.14-2.62.13-3.09 2.44-2.81 1.29-6.61 2.67-13.13 6.06-19.07-.29-.13-.58-.25-.87-.38-.7.88-1.41 1.76-2.11 2.63-.27-.19-.55-.38-.82-.57 1.5-1.84 2.87-3.83 4.56-5.49 1.59-1.56 3.46-2.64 1.03-5.08-.57-.57-.4-2.46.09-3.38 1.14-2.11.08-3.26-1.22-4.63-.81-.86-1.3-2.01-2.07-3.25-2.1.84-4.57 1.82-7.64 3.05.61-1.17.9-1.72 1.51-2.9-4.26 2.21-8.01 4.15-11.75 6.1 3.93-5.57 7.42-11.31 13.82-13.95 1.85-.76 3.94-.98 5.68-1.92 2.02-1.09 3.77-2.68 5.63-4.07.55-.41.99-1.06 1.59-1.31 5.97-2.41 12.06-4.55 17.91-7.21 4.57-2.08 7.08 1.54 10.31 3.12.5.24.31 1.88.5 3.35h14.52c-.42.28-.83.56-1.25.84 1.05.4 2.44 1.44 3.1 1.09 4.01-2.1 6.42 2.81 10.08 1.73.15.28.31.56.46.84-.95.35-1.9.7-2.87 1.05 3.47 3.41 8.67-1.14 10.83 4.18 2.92-4.1 6.22-4.47 10.54-1.61 1.59 1.06 4.42.27 6.69.29 5.27.05 10.01-1.51 14.42-5.13.34 1.17.6 2.1.9 3.13.24-.08.56-.13.82-.29 2.27-1.39 2.23-1.39 2.54 1.36.06.52.4 1.08.77 1.47 1.22 1.26 2.96 2.37 1.24 4.4-1.48 1.74-2.14 4.52-5.7 3.2-2.59-.96-4.16.9-3.95 3.48-1.02.23-2.3.13-2.86.72-2.79 2.92-5.59 5.87-7.99 9.11-1.08 1.45-2.68 3.72 1.36 4.58 1.2.25 1.77 3.44 2.64 5.3 4.39-1.09 7.9.63 11.6 3.02 2.81 1.81 6.39 2.51 9.71 3.4 1.74.46 3.66.26 6.05.39-2.1 6.86 2.13 10.35 6.33 13.66.71.56 2.9.1 3.78-.64.82-.68 1.33-2.51 1.04-3.57-.74-2.66-2.02-5.18-2.94-7.43 2.78-2 5.5-3.95 8.96-6.44-2.51-2.96-4.79-5.66-7.29-8.62 2.07-2.02.99-4.38-.35-7.05-1.41-2.81.02-4.91 3.09-4.62 3.94.37 8.11.29 11.32 3.34.41.39 1.01.82 1.52.83 4.66.05 5 3.66 5.76 6.7 4.34.39 10.96 5.3 9.74-6.22 5.4 4.91 9.62 9.31 14.42 12.93 2.97 2.24 7.11 2.89 10.22 5 3.67 2.5 8.72 2.69 11.24 7.19 1.52 2.71.11 3.53-1.81 4.5-1.01.51-2.51.82-2.91 1.65-1.88 3.8-5.36 3.8-8.73 4.05-3.18.23-6.39.17-9.56.44-2.25.19-4.91.04-5.14 3.46-.03.38-.87.66-1.26 1.06-2 2.05-3.97 4.13-5.49 6.65 3.63-3.38 7.52-6.11 12.5-6.52 1.42-.12 2.95 1.12 4.43 1.73-1.13 1.08-2.27 2.17-3.5 3.35.64.14 1.86.42 3.1.7.53 4.76 6.07 8.74 13.29 7.09.31-1.64.61-3.29 1-5.39 1.4 1.48 2.53 2.66 4.25 4.48-3.86 2.22-7.59 4.31-11.26 6.5-.62.37-.92 1.23-1.48 1.74-1 .91-2 1.92-3.19 2.46-.36.16-2.02-1.2-1.94-1.63.27-1.36 1.01-2.66 1.73-3.89.32-.54 1.04-.86 2.18-1.74-3.37-1.55-5.31.88-7.3 1.7-2.8 1.15-5.22 3.22-7.87 4.79-4.99 2.96-5.6 5.55-2 10.57-3.45 1.01-6.75 1.97-10.75 3.13 1.25.47 1.88.71 2.85 1.08-1.66.5-3.03.9-4.4 1.31-.86 5.84-1.49 6.67-5.34 6.43 3.76 3.13 1.24 5.73-.09 8.05-.48-1.21-1.08-2.71-1.69-4.21-.39.15-.78.3-1.18.46.73 2.27-.87 5.01 1.95 6.98.56.39.08 2.26.08 3.88.11.06.86.49 2.53 1.43-4.45 3.35-8.51 6.17-12.3 9.32-3.3 2.74-6.6 5.58-9.36 8.83-4.01 4.73-1.95 9.8-.1 14.84 1.73 4.69 3.16 9.5 4.45 14.33.32 1.22-.02 3.06-.8 4-.65.79-3.27 1.24-3.51.87-2.88-4.46-7.38-9.01-7.64-13.73-.3-5.46-3.59-7.38-6.22-10.75-2.87 1.99-5.5 3.4-8.27-.15-.76-.98-3.13-1.28-4.6-1.01-4.03.74-8.22-1.31-12.19.91-.83.46-2.37-.37-3.58-.61-.07.5-.15.99-.22 1.49 1.5.19 3 .37 4.58.57-3.34 4.15-4.91 3.79-9.59 1.78-3.33-1.43-7.52-.86-11.33-1.1-1.08-.07-2.18.15-2.47.18-2.21 1.69-3.83 3.82-5.85 4.3-5.77 1.39-8.68 6.83-7.91 11.39.34 2.03.94 4.06-1.7 5.51-.89.49-.86 2.78-1.1 4.28-.48 3.01-.77 6.04-1.29 9.04-.77 4.49 1.5 8.16 3.12 11.99.77 1.81 1.56 3.7 2.77 5.21 1.29 1.6 3.26 2.65 4.65 4.19 4.15 4.65 8.76 1.85 13.31 1.13 1.45-.23 3.03.31 4.73.52 2.73-3.11 5.83-6.34 5.96-11.26.02-.78.99-2.11 1.68-2.22 4.65-.72 9.34-1.25 14.03-1.59.42-.03 1.54 2.41 1.38 2.54-4.15 3.37-2.87 8.64-4.63 12.81-.08.2-.3.34-.57.62-.5-.41-1.01-.82-1.53-1.24-.12 5.02.76 10.25-4.57 14.76 5.71 0 10.27-.06 14.82.02 3.02.05 6.1-.02 9.02.59 1.48.31 2.68 2.01 4 3.08.38-.12.76-.24 1.14-.37-.48 4.64-.48 9.39-1.56 13.89-1.6 6.71-.03 11.57 5.67 15.72 5.53 4.03 7.78 4.85 13.51.99 3.8-2.56 6.94-1.1 10.04.57 2.11 1.14 3.75 3.14 5.35 4.55 1.39-1.91 2.51-4.43 4.44-5.83 2.11-1.53 2.18-3.45 2.58-5.46.58-2.85 3.01-4.28 4.57-3.66 2.23-.84 3.74-1.23 5.07-1.95 2.33-1.25 4.58-2.66 6.82-4.08.67-.43 1.09-1.38 1.79-1.6.83-.26 1.82 0 2.74.04-.24.8-.3 1.75-.78 2.36-.55.69-1.49 1.08-2.64 1.86.63 1.01 1.26 2.03 1.89 3.05 2.72-1.32 5.19-2.6 7.73-3.73 3.9-1.73 6.55-.71 8.73 2.9.4.67 1.92 1.13 2.78.97 3.52-.66 6.89-2.1 10.36.63.88.7 3.15.19 4.52-.4 3.24-1.39 6.32-3.17 8.86-4.47.99 1.88 1.29 3.11 2.07 3.75.74.6 1.96.72 3 .82 2.86.28 4.71 1.49 4.5 4.73 4.76.87 8.76 2.44 11.24 6.99 1.83 3.36 7.55 4.96 11.32 3.63 5.78-2.03 10.57-.35 15.68 2.61 3.56 2.06 4.87 4.51 5.16 8.19.08 1 .45 2.45 1.16 2.86 3.51 1.99 3.48 4.82 2.01 8.38l6.52 2.3c-.49 1.51-1.09 3.32-1.68 5.12 1.77-3.21 3.63-6.25 8.14-4.75 3.13 1.04 7.36.11 8.27 5.12 4.65-1.03 9.01-2.45 13.44-2.74 1.88-.13 4.22 1.8 5.79 3.36 2.03 2.04 3.89 3.41 7 1.27zm-193.8-207.28c3.51-.19 6.78-.21 10-.58 2.68-.31 3.09-1.61 1.81-3.45-2.42.25-4.56.41-6.67.71-2.13.3-4.3.67-5.14 3.32zm-13.8 6.42c4.16 2.92 11.35.88 16.72-4.55-6.38-.95-11.12 2.77-16.72 4.55zm-6.69-18.31c-3.58.01-6.9.83-8.67 4.14-.77 1.44-.34 3.51-.57 5.27-.22 1.73-.85 3.45-.79 5.15.06 1.53.75 3.06 1.38 4.5.06.15 2.06-.08 2.4-.62 1.02-1.59 1.82-3.36 2.37-5.17.23-.75-.74-1.82-.59-2.64.42-2.31-.31-5.45 3.53-5.78.36-.03.77-.79.96-1.28 1.5-3.83 4.1-1.68 5.58-.5.92.73.71 3.15.63 4.79-.04.82-.92 1.6-1.42 2.4.23.17.46.33.69.5.89-.71 1.78-1.43 3.13-2.5.6 1.62 1.12 3.05 2.11 5.72 1.7-3.47 3.01-6.13 4.26-8.68 1.36.48 2.44.85 4.56 1.6-.66-1.84-.8-3.05-1.44-3.87-3.48-4.41-8.42-3.63-13.15-3.43-1.66.06-3.31.4-4.97.4zm-23.64-3.22c4.55.4 8.68 1.37 12.31-1.51.15-.12.73.08.92.3 2.13 2.4 4.49 3.58 7.84 2.37 1.4-.5 3.13-.08 5.18-.08-.71-2.08.31-5.49-3.93-5.88-.53-.05-1.16-.85-1.45-1.44-1.67-3.37-4.86-2.36-6.99-1.65-3.5 1.17-6.66 3.41-9.93 5.26-1.26.72-2.43 1.61-3.95 2.63zm-22.18-25.11c.32.05.64.11.95.16.22 1.37.44 2.74.73 4.61.8-1.43 1.3-2.45 1.92-3.4.38-.58.93-1.04 1.4-1.56.42.49.84.97 1.26 1.47 1.38 1.65 2.75 3.3 4.22 5.06-.35.83-.82 1.95-1.45 3.45 3.32-1.58 3.18-7.52-.03-13.42-1.63.98-3.24 1.94-5.11 3.06V76.8c-1.51 1.75-2.7 3.14-3.89 4.53zm-22.22-42.42c.16.42.31.83.47 1.25 2.58-.27 5.17-.46 7.74-.84 3.25-.48 4.93-3.18 3.53-5.86-3.91 1.81-7.82 3.63-11.74 5.45zm17.26 8.87c-3.59-.23-6.98 3.24-10.55.06-.1-.09-.48.04-.66.16a976.47 976.47 0 0 0-6.39 4.55c7.09.89 12.02-3.13 17.6-4.77zm52.32 234.29c-2.28-2.03-3.98-3.55-6.26-5.57-.11 4.89 1.2 6.02 6.26 5.57zm66.54 1.09c-2.29 2.11-3.07 4.2-.77 6.36.48.46 2.37.35 2.74-.15 2.12-2.85-.75-4.17-1.97-6.21zm10.78 124.77c-.83-1.08-1.49-2.39-2.56-3.14-.6-.43-1.86.07-2.82.15.05.55.09 1.09.14 1.64 1.75.46 3.5.91 5.24 1.35zM405.93 55.1c3.22 3.08 6.52 6.08 9.78 9.12l1.23-1.29c-3.12-3.07-6.23-6.15-9.35-9.22 1.4.4 2.52 1.14 3.54 2.01 2.79 2.37 5.41 4.95 8.35 7.11 1.15.84 2.97.77 4.48 1.11.11-.28.21-.56.32-.84-1.44-1.26-2.9-2.5-4.37-3.72-8.37-5.21-16.74-10.43-25.11-15.64-.19.28-.38.57-.57.85 1.73 1.34 3.57 2.57 5.17 4.04 2.26 2.05 4.31 4.35 6.53 6.47zM277.1 10.5c3.29 1.99 6.2 4.6 9.47 6.64 3.74 2.33 7.48 5.45 11.58 6.18 4.77.86 8.01 3.56 11.66 5.94.61.4.7 1.62 1.03 2.46-.6.16-1.2.31-2.82.73 2.48 1.9 4.23 3.42 6.15 4.69 2.61 1.71 5.34 3.24 8.03 4.83 2.94 1.74 5.86 3.51 8.87 5.09.29.15 1.22-.89 1.85-1.38l.12-1.49c3.87 2.47 7.75 4.93 12.45 7.92-3.28-4.62-5.64-8.8-8.86-12.17-2.13-2.24-3.03-4.17-2.29-7.02.82.14 1.57.26 3.18.53-1.82-2.36-3.13-4.06-4.51-5.86 1.26-1.05 2.41-2.01 3.39-2.83-2.06-1.57-3.85-3.45-6.04-4.49-9.67-4.6-19.35-9.03-29.52-12.62-8.93-3.14-17.74-2.95-26.7-3.65-.43 4.51-.14 4.63 2.96 6.5zm25.12 222.37c-1.9-.7-3.85-1.28-5.68-2.13-5.14-2.38-10.21-4.91-15.36-7.27-1.45-.67-3.26-.64-4.6-1.44-7.43-4.44-14.75-3.32-22 .29-.88.44-1.27 1.83-2.36 3.5 4.93-1.81 8.75-3.22 12.38-4.55.51 1.55.59 2.68.97 2.79 3.77 1.09 7.55 2.35 11.41 2.86 2.4.31 4.25.41 5.14 3.08.22.66 1.68.99 2.63 1.29 1.23.39 2.52.6 4.3 1.01-1.22 1.3-1.94 2.06-3.12 3.31 5.87-.52 11.02-.98 16.17-1.44l.12-1.3zM210.97 21.21c-.16-.54-.32-1.09-.49-1.63-2.58 1.11-5.16 2.21-7.74 3.32.17.42.33.84.5 1.26 2.57-.99 5.15-1.97 7.73-2.95zm10.34 8.73c2.26.48 3.01-.51 2.16-2.7-2.13.14-4.15.28-6.18.42.21.28.42.57.62.85 1.13.49 2.22 1.19 3.4 1.43zm95.38 215.55c3.44-5.62 9.35-3.5 14.12-4.7.16-.4.32-.79.48-1.19-3.88-1.75-7.61-4.29-11.67-5.04-3.97-.73-8.27.36-12.09.62 1.55 2.04 2.99 3.94 5.12 6.75h-10.5c-.01.35-.01.69-.02 1.04 4.57 2.6 10.56-2.73 14.56 2.52zm-23.96-1.1c-2.92-.45-5.85-.89-8.77-1.34 2.29 4.57 5.51 3.03 8.77 1.34zm176.8-129.63c-.32 1.93-.99 3.36-.62 4.43 1.5 4.3 3.34 8.49 5.06 12.71 2.43 5.94 5.16 11.78 7.22 17.85 1.38 4.07 1.82 8.46 2.7 12.71.81 3.91 1.54 7.84 2.47 11.72 1.13 4.67 2.26 9.35 3.73 13.92 1.35 4.23 3.54 8.21 4.64 12.49 1.17 4.53 1.17 9.36 2.31 13.9 1.28 5.05 3.18 9.95 4.98 14.85 1.13 3.07 2.57 6.03 3.87 9.03 1.08 2.48 3.74 8.56 6.04 13.83-.72-50.76-16.23-97.94-42.4-137.44zM254.75 12.28c-1.7-.93-3.17-1.73-4.65-2.53-.13.93-.7 2.16-.31 2.72 1.19 1.69 2.82 1.82 4.96-.19zm83.11 230.23c1.98-.28 3.92-.86 5.87-1.34l-.24-1.07h-7.04c.62 1.1 1.11 2.45 1.41 2.41zM296.28 37.37c-1.01-1.47-8.44-2.08-10.71-.8 3.64 1.19 6.87 2.24 10.5 3.42.07-.67.64-1.99.21-2.62zm-1.37 13.46.52-.73c-3.39-1.98-6.78-3.96-10.16-5.93-.24.44-.48.88-.72 1.31 3.45 1.78 6.9 3.56 10.36 5.35zm2.01-4.45c-3.73-2.53-7.46-5.07-11.41-7.76-.55.42-1.29.97-2.31 1.73 4.63 2.51 8.83 4.79 13.04 7.07.22-.34.45-.69.68-1.04zm-40.89-29.75c1.43-.11 3.51-.28 6.01-.48-2.74-3.03-4.63-.39-6.01.48zm0 0c-.44.03-.82.07-1.14.09.34.29.72.18 1.14-.09zm-2.12 15.39c1.32 2.27 2.45 4.27 3.73 6.17.06.08 1.55-.8 3.41-1.78-4.12-.23-.77-6.57-7.14-4.39zm27.16 8.86c-.83-1.29-1.6-2.5-2.62-4.09-1.04 1.14-1.89 2.08-2.77 3.05 4.41 2.23 4.41 2.23 5.39 1.04z" fill="#4caf50"/><path class="st0" d="M256 4c34.02 0 67.02 6.66 98.09 19.8 30.01 12.69 56.96 30.86 80.1 54.01 23.14 23.14 41.32 50.09 54.01 80.1C501.34 188.98 508 221.98 508 256s-6.66 67.02-19.8 98.09c-12.69 30.01-30.86 56.96-54.01 80.1-23.14 23.14-50.09 41.32-80.1 54.01C323.02 501.34 290.02 508 256 508s-67.02-6.66-98.09-19.8c-30.01-12.69-56.96-30.86-80.1-54.01-23.14-23.14-41.32-50.09-54.01-80.1C10.66 323.02 4 290.02 4 256s6.66-67.02 19.8-98.09c12.69-30.01 30.86-56.96 54.01-80.1 23.14-23.14 50.09-41.32 80.1-54.01C188.98 10.66 221.98 4 256 4m0-4C114.62 0 0 114.62 0 256s114.62 256 256 256 256-114.62 256-256S397.38 0 256 0z"/></svg>