<svg version="1.1" xmlns="http://www.w3.org/2000/svg" x="0" y="0" viewBox="0 0 512 512" xml:space="preserve"><style type="text/css">.st0{fill:#7193ad}.st1{fill:#36434f}.st2{fill:#35965f}.st3{fill:#ddd}.st5{fill:#e0ac7e}.st6{opacity:.3;fill:#444}</style><path class="st0" d="m199 482.2-12.1 8.2c-.8.6-.4 1.8.6 1.8h13.2l-1.7-10z"/><path class="st1" d="M236.8 499.3h4v12.8h-4zm-33.8 11h-4V500l4-1zm12-11.3h-7s-3 3-3 9h13c0-6-3-9-3-9zm15 1v-1h-7v1s-3 3-3 9h13c0-6-3-9-3-9zm24 0v-1h-7v1s-3 3-3 9h13c0-6-3-9-3-9z"/><path class="st0" d="m313 482.2 12.1 8.2c.8.6.4 1.8-.6 1.8h-13.2l1.7-10z"/><path class="st1" d="M275.2 511.95h-4v-12.8h4zm33.8-1.65h4V500l-4-1zM297 499h7s3 3 3 9h-13c0-6 3-9 3-9zm-15 1v-1h7v1s3 3 3 9h-13c0-6 3-9 3-9zm-24 0v-1h7v1s3 3 3 9h-13c0-6 3-9 3-9z"/><path class="st1" d="M254 499.3h4v12.8h-4z"/><path class="st2" d="M239 123v42h34v-42zm34.5-19h-35V39S252 0 256 0s17.5 39 17.5 39v65z"/><path class="st2" d="M273.5 109h-35c-1.1 0-2-.9-2-2v-7c0-1.1.9-2 2-2h35c1.1 0 2 .9 2 2v7c0 1.1-.9 2-2 2z"/><path class="st3" d="M239 109h34v15h-34zm34 55h-34l-3 79 1 1h38l1-1z"/><path fill="#bbb" d="M235 466h42V270l-1-27h-40l-1 27z"/><path class="st3" d="M240 301s-1-50-4-50c-2 0-9.9 40.5-9.9 40.5-1.4 5.6-2.6 11.3-3.6 17L208.2 388v1h36.2v-1l-4.4-87z"/><path class="st5" d="M199 460v40h46V400l-.6-12h-36.2l-5.5 30.3c-2.5 13.8-3.7 27.7-3.7 41.7z"/><path class="st3" d="M289.5 308.6c-1-5.7-2.2-11.4-3.6-17 0 0-7.9-40.5-9.9-40.5-3 0-4 50-4 50l-4.4 87v1h36.2v-1l-14.3-79.5z"/><path class="st5" d="M267 500h46v-40c0-14-1.2-27.9-3.7-41.7l-5.5-30.3h-36.2l-.6 12v100z"/><path class="st0" d="M238 474.1h-7.4L207 493.6h-8v6.4h46v-6.4h-3.6zm36 0h7.4l23.6 19.5h8v6.4h-46v-6.4h3.6z"/><path class="st6" d="m281.6 436.5-3.5-49-5.8-82.5c-.1-1.4-.2-2.7-.4-4.1v.2l-3.3 65.6h-25.4L240 301v-.2c-.1 1.4-.3 2.8-.4 4.1l-5.8 82.5-3.5 49c-.2 3.5-.4 7-.4 10.5v53h52v-53c.1-3.4 0-6.9-.3-10.4z"/><path class="st3" d="M264.4 305.5c-.3-3.7-.7-7.3-1.3-11 0 0-5.1-43.5-7.1-43.5s-7.1 43.5-7.1 43.5c-.6 3.6-1 7.3-1.3 11l-5.8 82.5v1h28.4v-1l-5.8-82.5z"/><path class="st5" d="M238 447v53h36v-53c0-3.3-.1-6.6-.3-9.9l-3.5-49h-28.4l-3.5 49c-.2 3.2-.3 6.6-.3 9.9z"/><path class="st6" d="M238.5 94h35v4h-35z"/><path class="st0" d="M256 492.2c-1.1 0-2-.9-2-2V484c0-1.1.9-2 2-2s2 .9 2 2v6.2c0 1.1-.9 2-2 2zm-14.6 1.4-3.4-19.5V500h7v-6.4zm29.2 0 3.4-19.5V500h-7v-6.4z"/><path d="M238.5 39v59c-1.1 0-2 .9-2 2v7c0 1.1.9 2 2 2h.5v55l-3 79-.3 8.2c-2.4 3.2-9.6 40.3-9.6 40.3-1.4 5.6-2.6 11.3-3.6 17L208.2 388l-5.5 30.3c-2.5 13.8-3.7 27.7-3.7 41.7v22.2l-12.1 8.2c-.8.6-.4 1.8.6 1.8H199v18.2h4V500h4.2c-.9 1.3-2.2 4-2.2 8h13c0-4-1.3-6.7-2.2-8h7.2s-3 3-3 9h13c0-6-3-9-3-9h6.8v12h4v-12h6.3s-3 3-3 9h10v3h2V0c-4.1 0-17.6 39-17.6 39z" opacity=".15" fill="#444"/></svg>