<svg version="1.1" xmlns="http://www.w3.org/2000/svg" x="0" y="0" viewBox="0 0 512 512" xml:space="preserve"><style type="text/css">.st1{fill:#82a0ab}.st2{fill:#f4f4f4}.st3{fill:#6783a0}.st5{fill:#8da2b8}</style><path fill="#4a507f" d="M0 0h512v512H0z"/><path class="st1" d="M168 398.9h179.2v36.3H168z"/><path class="st2" d="M147.8 393.6h220.9v11.7H147.8z"/><path class="st2" d="M257.7 313.6H119l38.4 85.3h200.5l38.5-85.3z"/><path class="st1" d="M372.9 405.3h58.7v9.6h-58.7z"/><circle class="st3" cx="431" cy="411.2" r="17.6"/><circle cx="431" cy="411.2" r="6.1" fill="#f4f4f4"/><path class="st1" d="M388.9 400H406v35.2h-17.1z"/><path class="st3" d="M151.5 421.3h43.7v21.3h-43.7zm5.9-16h32v16h-32z"/><circle class="st2" cx="130.1" cy="453.8" r="32.6"/><circle class="st5" cx="130.1" cy="453.8" r="11.3"/><circle class="st2" cx="216.6" cy="453.8" r="32.6"/><circle class="st5" cx="216.6" cy="453.8" r="11.3"/><path class="st3" d="M321.1 421.3h43.7v21.3h-43.7zm5.9-16h32v16h-32z"/><circle class="st2" cx="299.8" cy="453.8" r="32.6"/><circle class="st5" cx="299.8" cy="453.8" r="11.3"/><circle class="st2" cx="386.2" cy="453.8" r="32.6"/><circle class="st5" cx="386.2" cy="453.8" r="11.3"/><circle class="st3" cx="257.7" cy="340.2" r="7.5"/><path class="st1" d="M140.3 293.4h-47v8.4l40.6 8.6zm229.3 0h47v8.4l-40.5 8.6z"/><path class="st3" d="M257.7 269.9c76.6 0 138.7 19.6 138.7 43.7H119c0-24.2 62.1-43.7 138.7-43.7zM226.079 31.19l6.821-5.238 194.866 253.826-6.822 5.237z"/><path class="st3" d="M343.7 142.6C289.9 72.5 240.2 20.3 232.7 26l194.9 253.8c7.6-5.6-30.1-67.2-83.9-137.2z"/><circle class="st1" cx="420" cy="290.1" r="5.3"/><path d="M249.1 453.8c0-6.9-2.2-13.4-5.9-18.6h14.3V269.9c-53.4 0-99.6 9.5-122.8 23.5H93.3v8.6l26.9 5.7c-.9 2-1.4 4.1-1.4 6l36 80h-7.2v11.7h9.6v16h-5.9v8c-5.7-5-13.1-8-21.3-8-18 0-32.6 14.6-32.6 32.6s14.7 32.5 32.6 32.5 32.6-14.6 32.6-32.6c0-4-.7-7.7-2-11.2H186c-1.3 3.5-2 7.3-2 11.2 0 18 14.6 32.6 32.6 32.6s32.5-14.7 32.5-32.7z" opacity=".15" fill="#444"/></svg>