<svg version="1.1" xmlns="http://www.w3.org/2000/svg" x="0" y="0" viewBox="0 0 512 512" xml:space="preserve"><style type="text/css">.st1{fill:#6783a0}.st2{fill:#7f97ad}.st3{fill:#8da2b8}.st4{fill:#f4f4f4}</style><path fill="#4a507f" d="M0 0h511.9v511.9H0z"/><path class="st1" d="M272.9 450.9h-31.7l-6.1 21.6h43.8z"/><path class="st2" d="M275.1 458.4l-2.2-7.5h-31.7l-2.1 7.5z"/><path class="st3" d="M297.8 311.4L279.5 295l.6-.7 18.3 16.3z"/><path class="st1" d="M255.2 25.6c-19.1 0-34.5 4.6-34.5 10.3 0 0 5.6 23.3 12.2 40.1s13 27 13 27h18.7s6.6-10.3 13-27.1 12.1-40.1 12.1-40.1c0-5.6-15.4-10.2-34.5-10.2z"/><path class="st1" d="M306.8 105.8c-.5-.5-1-1.8-1-2.8v-2.8c0-1-.6-2.4-1.3-3.2l-.3-.3c-.7-.7-2.3-1.2-3.2-1l-3.5.4c-1 .1-2.6.6-3.5 1.1l-3.9 2.1c-.9.4-2.5.9-3.5.9h-59c-1 0-2.6-.4-3.5-.9l-3.9-2c-.9-.5-2.5-1-3.5-1.1l-3.5-.4c-1-.1-2.4.4-3.2 1l-.3.3c-.7.7-1.4 2.1-1.4 3.2v2.7c0 1-.4 2.3-1 2.8s-1 1.8-1 2.8v3.7h101.6v-3.7c0-1-.4-2.3-1.1-2.8z"/><path class="st4" d="M202 113.6h110.1v130.2H202z"/><ellipse class="st4" cx="257.1" cy="113.6" rx="55" ry="12.4"/><path class="st1" d="M257.1 231.8c-30.4 0-55 5.4-55 12.2l38.3 61.6H274l38.3-61.6c-.2-6.8-24.8-12.2-55.2-12.2z"/><path class="st3" d="M281.271 397.207l5.318-.934 14.924 84.898-5.318.935z"/><path class="st4" d="M195.5 448.2l-14.9-35.5 3.6-7.3 24.4 35.3z"/><path class="st3" d="M146.197 482.125l34.265-78.77 4.952 2.154-34.265 78.77z"/><path class="st3" d="M157.4 479.8h-25.3v2.4c0 .9.6 2.1 1.4 2.6l.6.5c.7.5 2.1 1 3 1h17c.9 0 2.3-.5 3-1l.6-.5c.7-.5 1.4-1.7 1.4-2.6v-2.4h-1.7zm153.9 0H286v2.4c0 .9.6 2.1 1.4 2.6l.6.5c.7.5 2.1 1 3 1h17c.9 0 2.3-.5 3-1l.6-.5c.7-.5 1.4-1.7 1.4-2.6v-2.4h-1.7zm-84.9 0h-25.2v2.4c0 .9.6 2.1 1.3 2.6l.6.5c.7.5 2.1 1 3 1h17c.9 0 2.3-.5 3-1l.6-.5c.7-.5 1.3-1.7 1.3-2.6v-2.4h-1.6zm167.9 0H369v2.4c0 .9.6 2.1 1.4 2.6l.6.5c.7.5 2.1 1 3 1h17c.9 0 2.3-.5 3-1l.6-.5c.7-.5 1.3-1.7 1.3-2.6v-2.4h-1.6z"/><path class="st4" d="M202 450.9l-40.5 9.2 4.4-10.1 33.3-7.4zm139.9-43.8l-20.5 43.8-14.9-12.1 30.8-38.3z"/><path class="st4" d="M363.4 449.1l-18.7-2.8-19.5-14-3.8 18.6 44.8 4.7z"/><path class="st3" d="M336.118 400.785l5.142-2.683 42.83 82.1-5.141 2.682z"/><path class="st4" d="M192.7 393.2h128.7v57.9H192.7z"/><path class="st3" d="M212.267 481.325l15.795-89.923 5.318.934-15.794 89.923z"/><path class="st3" d="M268.7 451.1l-36.9-54.5-4.5 3 34.9 51.5zm-49.9-59.8l-26.1 1.9-12.1 10.2 4.2 3.2 7.9.5 22.7-11.6z"/><path class="st3" d="M186.2 394.1h8.4l4.6-34.6h-4.6z"/><path class="st3" d="M302.8 337.2v-18.7l-9.7-4.4-.6-7.7 3.7-1.9 1-2.8-3.8-4.7-5.5 2.8-.9 4.7-11.4 1.7-1.8-.8h-35.4l-8-7.9 3.4-4.1-1-6.6-10.3 2.8-.9 1.9 4.7 4.6 3.6 10.8-4.6 3.1-17.6 1-2.4 5.5-2.3-1.7 1.9-.9-4.7-3.8-6.6 4.7 3.8 3.7 2.8-1.8 3.2 4v.1l-1.4 3.3 1.9 5.6 4.7 1.9h4.6v.9l-3.7 2.8-1.8 7.5v1.4l-7.5-3.3-2.8 2.8h-4.7v10.2h4.7l10.3 6.3v5l-2.8 7.4 9.2 23.4h98l18.7-17.8v-18.7z"/><path class="st3" d="M318.6 401.5l11.2.9 12.4-2.3-1.2-4.1-12.1-3.8-13.1-2.8-7.4 3.8z"/><path class="st2" d="M231 357.7h22.4v13.1H231z"/><circle class="st4" cx="235.7" cy="334.4" r="4.7"/><circle class="st2" cx="235.7" cy="334.4" r="2.8"/><circle class="st4" cx="202" cy="179.5" r="4.7"/><path class="st3" d="M321.4 353v-5.6h-8.3l7.4 6.5z"/><path class="st3" d="M316.7 341.9l1.9 6.4h.9l1.9-6.4z"/><path class="st1" d="M211.4 189.3l-6.6-.9s-.9.9-.9 1.9.9 1.9.9 1.9l6.6-.9v-2z"/><path class="st2" d="M216 181.1l-4.6 2.8v12.6l4.6 2.8 5.6-1.8V183z"/><path class="st1" d="M213.2 184.2l-.9-6.6s.9-.9 1.9-.9 1.9.9 1.9.9l-.9 6.6h-2zm0 12.1l-.9 6.6s.9.9 1.9.9 1.9-.9 1.9-.9l-.9-6.6h-2zm1.9-10.8v9.4l6.5 2.3v-13.9zm91.4 3.8l6.6-.9s.9.9.9 1.9-.9 1.9-.9 1.9l-6.6-.9v-2z"/><path class="st2" d="M301.8 181.1l4.7 2.8v12.6l-4.7 2.8-5.6-1.8V183z"/><path class="st1" d="M304.6 184.2l.9-6.6s-.9-.9-1.9-.9-1.9.9-1.9.9l.9 6.6h2zm0 12.1l.9 6.6s-.9.9-1.9.9-1.9-.9-1.9-.9l.9-6.6h2zm-1.8-10.8v9.4l-6.6 2.3v-13.9z"/><path class="st3" d="M232.8 112.4c-18.3 2.2-30.8 6.8-30.8 12.2v28.9c0-5.3 12.5-9.9 30.8-12.2v-28.9zm51.3.3v28.9c16.7 2.3 28 6.8 28 11.8v-28.9c0-5.1-11.3-9.4-28-11.8zm-51.3 102.5c-18.3 2-30.8 6.1-30.8 10.9V240c0-4.8 12.5-8.9 30.8-10.9v-13.9zm51.3.4v13.9c16.7 2.1 28 6 28 10.5v-13.9c0-4.5-11.3-8.4-28-10.5z"/><ellipse class="st4" cx="281.8" cy="268.6" rx="2.3" ry="3.2"/><path class="st4" d="M252.4 358.6c.4 0 .6 0 .9.1v-.1c0-2.6-2.1-4.7-4.7-4.7h-13c-2.3 0-4.1 1.6-4.6 3.8h.4c2.3 0 4.2 1.9 4.2 4.2 0 2.3-1.9 4.2-4.2 4.2-.2 0-.3 0-.4-.1v4.7c0 2.6 2.1 4.7 4.7 4.7h13.1c2.6 0 4.7-2.1 4.7-4.7v-1c-.3.1-.6.1-.9.1-3.1 0-5.6-2.5-5.6-5.6-.2-3.1 2.3-5.6 5.4-5.6z"/><path class="st3" d="M192.7 337.2l2.1 6.5h.8l1.8-6.5zm0 23.3l2.1-6.6h.8l1.8 6.6zm-3.8-14h4.7v4.7h-4.7z"/><path fill="none" d="M198.1 359.8l8.6 15.5"/><path class="st3" d="M197.682 360.035l.877-.481 8.558 15.607-.877.481zM314.9 346.9l-24.3 2.3 16.9 14.1 20.7-5.9zm-29.8-12.5v2.8l-4.7 2.8v2.8l2.8 3.7 6.5-2.8v-31.1l-9.2-4.2-4.8 16.6 2.8 4.7zm-8.4 91.3h17.7v12.2h-17.7z"/><path d="M226.7 485c.7-.5 1.4-1.7 1.4-2.6V480h-10l5-28.9h18.1l-2.1 7.5-4 14h21.6v-447h-1.6c-19.1 0-34.5 4.6-34.5 10.3 0 0 5.6 23.3 12.2 40.1 4.5 11.6 9.1 20.2 11.4 24.2h-16.6c-1 0-2.6-.4-3.5-.9l-3.9-2c-.9-.5-2.5-1-3.5-1.1l-3.5-.4c-1-.1-2.4.4-3.2 1l-.3.3c-.7.7-1.3 2.1-1.3 3.1v2.8c0 1-.4 2.3-1 2.8s-1 1.8-1 2.8v.2c-2.7 1.4-4.2 3.1-4.2 4.8v61.3c-2.6 0-4.7 2.1-4.7 4.7s2.1 4.7 4.7 4.7v59.5l27.3 43.8-6.7 1.8-.9 1.9 4.7 4.7 3.6 10.7-4.8 3.3-17.6 1-2.3 5.5-2.3-1.7 1.9-.9-4.7-3.7-6.6 4.7 3.7 3.7 2.8-1.9 3.3 4.1-1.4 3.3 1.9 5.6 4.7 1.9h4.7v.9l-3.7 2.8-1.9 7.5v1.4l-7.5-3.3-2.8 2.8h-1.8l1.8-6.6h-4.7l2.1 6.6h-2.1v2.8H189v4.7h3.7v2.8h2.1l-2.1 6.6h1.6l-8.2 33.6h5.4l-11 9.4.1.1-.3-.2-33.3 76.6h-14.9v2.4c0 .9.6 2.1 1.3 2.6l.6.5c.7.5 2.1 1 3 1h17c.9 0 2.3-.4 3-1l.6-.5c.7-.5 1.4-1.7 1.4-2.6v-2.4h-6l28.4-65.3 11.3 27v2.5l-26.8 6-4.4 10.2 40.5-9.2h15.7l-5 28.9h-11.5v2.4c0 .9.6 2.1 1.3 2.6l.6.4c.7.5 2.1 1 3 1h17c.9 0 2.3-.5 3-1l.6-.6zm6.5-191l7.1 11.4h-1.9l-8-8 2.8-3.4zm-40.5 123.7l-7.7-11.2 7.7.5v10.7zm4.7-63.8l10.3 6.3v4.9l-2.4 6.5-6.1-11.1.1-1H197l-1.5-5.6h1.9zm-2.7 39.1l4.1-30.8 6.7 12.1 6.9 17.3-17.7 1.4z" opacity=".15" fill="#444"/></svg>