<svg version="1.1" xmlns="http://www.w3.org/2000/svg" x="0" y="0" viewBox="0 0 512 512" xml:space="preserve"><style type="text/css">.st0{fill:#36434f}.st2{fill:#ddd}.st3{fill:#999}.st4{fill:#eee}.st5{opacity:.15;fill:#444}.st6{opacity:.3;fill:#fff}.st8{fill:#f4f4f4}</style><path class="st0" d="M512 256c0 37.5-8.1 73.2-22.6 105.3 0 .1-10.1.1-10.1.2C439.1 450.3 359.8 452 256 452s-183.1-1.7-223.3-90.5c0-.1-10.1-.1-10.1-.2C8.1 329.2 0 293.5 0 256 0 114.6 114.6 0 256 0s256 114.6 256 256z"/><path d="M256 129.3c-93.3 0-168.9 23.1-168.9 51.5v257.6c26.3 23.1 57.3 40.9 91.4 51.7h154.9c34.1-10.8 65.2-28.6 91.4-51.7V180.8c.1-28.4-75.5-51.5-168.8-51.5z" fill="#df7148"/><path class="st2" d="M182.6 325.1c-47.2-27.3-110.7-10.7-160 36.2 35.8 79.1 110.6 136.8 199.9 148.5 29-75.7 14-153.6-39.9-184.7zm306.8 36.2c-49.3-46.9-112.8-63.5-160-36.2-53.9 31.1-68.9 109-39.9 184.7 89.3-11.7 164.2-69.4 199.9-148.5z"/><path class="st2" d="M424.9 188c0-28.5-75.6-51.5-168.9-51.5S87.1 159.5 87.1 188v260.4C132.2 488 191.3 512 256 512s123.8-24 168.9-63.6V188z"/><path class="st3" d="M127.4 256.6H112c-1.1 0-2-.9-2-2v-31.2c0-1.1.9-2 2-2h15.4c1.1 0 2 .9 2 2v31.2c0 1.1-.9 2-2 2z"/><circle class="st4" cx="119.7" cy="246.8" r="6.6"/><circle class="st5" cx="119.7" cy="246.8" r="4.6"/><circle class="st0" cx="119.7" cy="246.8" r="1.5"/><circle class="st4" cx="119.7" cy="231.2" r="6.6"/><circle class="st5" cx="119.7" cy="231.2" r="4.6"/><circle class="st0" cx="119.7" cy="231.2" r="1.5"/><path class="st5" d="M129.4 225h8.8v27.9h-8.8z"/><path class="st3" d="M384.6 256.6H400c1.1 0 2-.9 2-2v-31.2c0-1.1-.9-2-2-2h-15.4c-1.1 0-2 .9-2 2v31.2c0 1.1.9 2 2 2z"/><circle class="st4" cx="392.3" cy="246.8" r="6.6"/><circle class="st5" cx="392.3" cy="246.8" r="4.6"/><circle class="st0" cx="392.3" cy="246.8" r="1.5"/><circle class="st4" cx="392.3" cy="231.2" r="6.6"/><circle class="st5" cx="392.3" cy="231.2" r="4.6"/><circle class="st0" cx="392.3" cy="231.2" r="1.5"/><path class="st5" d="M382.564 252.986h-8.8v-27.9h8.8z"/><path class="st4" d="M377.7 208.9c0-60.6-54.5-109.8-121.7-109.8s-121.7 49.2-121.7 109.8v41.8h9.1c18.2 39.9 61.8 68 112.6 68s94.4-28.1 112.6-68h9.1v-41.8zM265.6 349.5H207l16.2 17.4c1.4 1.5 3.3 2.3 5.2 2.3h55.3c2 0 3.9-.8 5.2-2.3l16.2-17.4h-39.5z"/><ellipse class="st0" cx="256" cy="237.5" rx="121.7" ry="109.8"/><ellipse class="st4" cx="256" cy="245.9" rx="121.7" ry="109.8"/><ellipse class="st0" cx="256" cy="250.6" rx="121.7" ry="109.8"/><circle class="st6" cx="319.5" cy="199.1" r="20.1"/><circle class="st6" cx="341.3" cy="237.7" r="10.9"/><path class="st4" d="M174.2 146.2h-15.5v-25.3c0-1.1.9-2 2-2h11.5c1.1 0 2 .9 2 2v25.3zm179.1 0h-15.5v-25.3c0-1.1.9-2 2-2h11.5c1.1 0 2 .9 2 2v25.3z"/><path d="M213.2 470.8h-82.9c-2.2 0-4-1.8-4-4V416c0-2.2 1.8-4 4-4h82.9c2.2 0 4 1.8 4 4v50.9c0 2.1-1.8 3.9-4 3.9z" fill="#2e86b7"/><path class="st0" d="M83.4 321.6c20.6 41.5 32.1 88.3 32.1 137.6 0 3.6-.1 7.1-.2 10.6 1.5 1 3.1 2 4.7 3 .2-4.5.3-9.1.3-13.6 0-49.1-11.2-96.6-32.2-139.4-1.6.7-3.1 1.2-4.7 1.8zm340.5-1.7c-21.1 42.8-32.2 90.3-32.2 139.4 0 4.6.1 9.1.3 13.6 1.6-1 3.1-2 4.7-3-.1-3.5-.2-7.1-.2-10.6 0-49.4 11.6-96.1 32.1-137.6-1.6-.7-3.1-1.2-4.7-1.8z"/><path class="st8" d="M143.1 406.1h-21.6c-1.3 0-2.4-1.1-2.4-2.4v-23.6c0-1.3 1.1-2.4 2.4-2.4h21.6c1.3 0 2.4 1.1 2.4 2.4v23.6c0 1.3-1.1 2.4-2.4 2.4zm-21.6-2.4h21.6v-23.6h-21.6v23.6z"/><path class="st8" d="M138.7 386.7h-12.9c-1.1 0-2-.9-2-2v-7.2c0-1.1.9-2 2-2h12.9c1.1 0 2 .9 2 2v7.2c0 1.1-.9 2-2 2zm-17.2 9.1h21.6v2.2h-21.6z"/><path class="st8" d="M127.4 386.7h9.8v17h-9.8zm39.5 19.4h-21.6c-1.3 0-2.4-1.1-2.4-2.4v-23.6c0-1.3 1.1-2.4 2.4-2.4h21.6c1.3 0 2.4 1.1 2.4 2.4v23.6c0 1.3-1 2.4-2.4 2.4zm-21.5-2.4H167v-23.6h-21.6v23.6z"/><path class="st8" d="M162.6 386.7h-12.9c-1.1 0-2-.9-2-2v-7.2c0-1.1.9-2 2-2h12.9c1.1 0 2 .9 2 2v7.2c0 1.1-.9 2-2 2zm-17.2 9.1H167v2.2h-21.6z"/><path class="st8" d="M151.2 386.7h9.8v17h-9.8zm39.6 19.4h-21.6c-1.3 0-2.4-1.1-2.4-2.4v-23.6c0-1.3 1.1-2.4 2.4-2.4h21.6c1.3 0 2.4 1.1 2.4 2.4v23.6c0 1.3-1.1 2.4-2.4 2.4zm-21.6-2.4h21.6v-23.6h-21.6v23.6z"/><path class="st8" d="M186.5 386.7h-12.9c-1.1 0-2-.9-2-2v-7.2c0-1.1.9-2 2-2h12.9c1.1 0 2 .9 2 2v7.2c0 1.1-.9 2-2 2zm-17.3 9.1h21.6v2.2h-21.6z"/><path class="st8" d="M175.1 386.7h9.8v17h-9.8zm39.6 19.4h-21.6c-1.3 0-2.4-1.1-2.4-2.4v-23.6c0-1.3 1.1-2.4 2.4-2.4h21.6c1.3 0 2.4 1.1 2.4 2.4v23.6c0 1.3-1.1 2.4-2.4 2.4zm-21.6-2.4h21.6v-23.6h-21.6v23.6z"/><path class="st8" d="M210.3 386.7h-12.9c-1.1 0-2-.9-2-2v-7.2c0-1.1.9-2 2-2h12.9c1.1 0 2 .9 2 2v7.2c0 1.1-.9 2-2 2zm-17.2 9.1h21.6v2.2h-21.6z"/><path class="st8" d="M199 386.7h9.8v17H199zm39.5 19.4H217c-1.3 0-2.4-1.1-2.4-2.4v-23.6c0-1.3 1.1-2.4 2.4-2.4h21.6c1.3 0 2.4 1.1 2.4 2.4v23.6c-.1 1.3-1.1 2.4-2.5 2.4zm-21.5-2.4h21.6v-23.6H217v23.6z"/><path class="st8" d="M234.2 386.7h-12.9c-1.1 0-2-.9-2-2v-7.2c0-1.1.9-2 2-2h12.9c1.1 0 2 .9 2 2v7.2c0 1.1-.9 2-2 2zm-17.2 9.1h21.6v2.2H217z"/><path class="st8" d="M222.8 386.7h9.8v17h-9.8zm39.6 19.4h-21.6c-1.3 0-2.4-1.1-2.4-2.4v-23.6c0-1.3 1.1-2.4 2.4-2.4h21.6c1.3 0 2.4 1.1 2.4 2.4v23.6c0 1.3-1.1 2.4-2.4 2.4zm-21.5-2.4h21.6v-23.6h-21.6v23.6z"/><path class="st8" d="M258.1 386.7h-12.9c-1.1 0-2-.9-2-2v-7.2c0-1.1.9-2 2-2h12.9c1.1 0 2 .9 2 2v7.2c0 1.1-.9 2-2 2zm-17.2 9.1h21.6v2.2h-21.6z"/><path class="st8" d="M246.7 386.7h9.8v17h-9.8zM192 474.2c-10.3 0-18.7 8.4-18.7 18.7 0 2 .3 3.9.9 5.7 4 1.3 8 2.6 12.1 3.8-3.2-1.9-5.4-5.5-5.4-9.5 0-6.1 5-11.1 11.1-11.1s11.1 5 11.1 11.1c0 6-4.9 11-10.9 11.1 4.1 1 8.2 2 12.3 2.8 3.8-3.4 6.2-8.4 6.2-13.9-.1-10.3-8.4-18.7-18.7-18.7z"/><path class="st8" d="M192 484.2c-4.8 0-8.7 3.9-8.7 8.7s3.9 8.7 8.7 8.7c4.8 0 8.7-3.9 8.7-8.7s-4-8.7-8.7-8.7z"/><path class="st0" d="M362.5 470l-60-36.3c-7.3-4.4-16.8-2.1-21.2 5.2-4.4 7.3-2.1 16.8 5.2 21.2l59.1 35.7c1.7-.6 3.3-1.2 4.9-1.9l3.4-5.6 4.1 2.5c3.5-1.5 6.9-3.1 10.3-4.8l-9.6-5.8 4.5-7.4c.6-.9.3-2.2-.7-2.8zm-50.1-20.2l1.1-1.8c.3-.5.9-.7 1.4-.4l16.1 9.7c.5.3.7.9.4 1.4l-1.1 1.8c-.3.5-.9.7-1.4.4l-16.1-9.7c-.6-.2-.7-.9-.4-1.4zm-24.8 8.6c-6.3-3.8-8.3-12-4.5-18.3s12-8.3 18.3-4.5 8.3 12 4.5 18.3c-3.8 6.3-12 8.3-18.3 4.5zm36.2 13l-1.1 1.8c-.3.5-.9.7-1.4.4l-16.1-9.7c-.5-.3-.7-.9-.4-1.4l1.1-1.8c.3-.5.9-.7 1.4-.4l16.1 9.7c.5.3.7.9.4 1.4zm2-7.4l-1.1 1.8c-.3.5-.9.7-1.4.4l-14.3-8.7c-.5-.3-.7-.9-.4-1.4l1.1-1.8c.3-.5.9-.7 1.4-.4l14.3 8.7c.5.3.7 1 .4 1.4zm26.6 10.6l-6.5 10.8c-.6 1-1.9 1.3-2.9.7l-10.5-6.3c-3.8-2.3-5.4-7.2-3.4-11.2 2.3-4.3 7.7-5.8 11.8-3.3l10.8 6.5c1 .5 1.3 1.8.7 2.8z"/><circle class="st0" cx="336.6" cy="472.4" r="6.9"/><path class="st8" d="M277.9 491.5h-9.5c-.7 0-1.2.5-1.2 1.2v18.1c0 .4.2.7.5.9 3.8-.2 7.6-.4 11.4-.8v-18.3c0-.6-.6-1.1-1.2-1.1zm1.2-17.9c0 .7-.5 1.2-1.2 1.2h-9.5c-.7 0-1.2-.5-1.2-1.2v-18.1c0-.7.5-1.2 1.2-1.2h9.5c.7 0 1.2.5 1.2 1.2v18.1zm0-37.2c0 .7-.5 1.2-1.2 1.2h-9.5c-.7 0-1.2-.5-1.2-1.2v-18.1c0-.7.5-1.2 1.2-1.2h9.5c.7 0 1.2.5 1.2 1.2v18.1zm83.3-20.4H314c-2.2 0-4-1.8-4-4v-18.3c0-2.2 1.8-4 4-4h48.4c2.2 0 4 1.8 4 4V412c0 2.2-1.8 4-4 4z"/><path class="st3" d="M317.1 393.8h26.4v7.3h-26.4zm29.8 0h12.4v7.3h-12.4zM332 404.5h12.4v7.3H332z"/></svg>