<svg version="1.1" xmlns="http://www.w3.org/2000/svg" x="0" y="0" viewBox="0 0 512 512" xml:space="preserve"><style type="text/css">.st0{fill:#ddd}.st1{fill:#bbb}.st3{fill:#999}.st4{fill:#cc584c}</style><path class="st0" d="M210 477h92v21h-92z"/><path class="st0" d="M292 60v-.7c-.8-4.9-2.7-9.8-4.8-14.7-2.2-4.9-4.8-9.8-7.7-14.7-2.9-4.9-6.1-9.8-9.8-14.7C266 10.1 262 5.2 257 .3c-.1-.1-.3-.2-.5-.2-.6-.1-1.2 0-1.5.2-5 4.9-9 9.8-12.6 14.7-3.7 4.9-6.9 9.8-9.8 14.7-2.9 4.9-5.5 9.8-7.7 14.7-2.1 4.9-4 9.8-4.8 14.7 0 .2 0 .5-.1.7v438h72V60z"/><path class="st1" d="M210 493.8h92v4.3h-92zm85-307.3h-78c-.6 0-1-.4-1-1v-10c0-.6.4-1 1-1h78c.6 0 1 .4 1 1v10c0 .6-.4 1-1 1z"/><path opacity=".15" fill="#444" d="M220 60.5h72v16h-72z"/><circle class="st3" cx="256" cy="68.5" r="2"/><circle class="st3" cx="276" cy="68.5" r="2"/><circle class="st3" cx="236" cy="68.5" r="2"/><circle class="st3" cx="207.8" cy="297.9" r="1.5"/><circle class="st3" cx="220.2" cy="297.9" r="1.5"/><circle class="st3" cx="195.3" cy="297.9" r="1.5"/><circle class="st3" cx="207.8" cy="289.9" r="1.5"/><circle class="st3" cx="220.2" cy="289.9" r="1.5"/><circle class="st3" cx="195.3" cy="289.9" r="1.5"/><circle class="st3" cx="304.3" cy="297.9" r="1.5"/><circle class="st3" cx="291.8" cy="297.9" r="1.5"/><circle class="st3" cx="316.7" cy="297.9" r="1.5"/><circle class="st3" cx="304.3" cy="289.9" r="1.5"/><circle class="st3" cx="291.8" cy="289.9" r="1.5"/><circle class="st3" cx="316.7" cy="289.9" r="1.5"/><path class="st1" d="M222.7 288.9l-2.2-38.9-28.3 36.6c-1.5 2.1-2.2 4.5-2.2 6.8V478c0 .7.2 1.3.7 1.9.8 1 1.2 2.2 1.2 3.3v3.7l22 4V487c0-3.1 2.6-5.9 6.8-7.3 1.3-.4 2.1-1.3 2.1-2.3V290.3c0-.5 0-1-.1-1.4z"/><path class="st4" d="M192 486.4v4l-8.9 15.7c-.7 1.2.4 2.5 2.3 2.7l29.1 3.2c1.9.2 3.6-.9 3.4-2.2l-3.9-19.3-22-4.1z"/><path class="st3" d="M190 471.6h32.8v6H190z"/><path class="st1" d="M289.3 288.9l2.2-38.9 28.3 36.6c1.5 2.1 2.2 4.5 2.2 6.8V478c0 .7-.2 1.3-.7 1.9-.8 1-1.2 2.2-1.2 3.3v3.7l-22 4V487c0-3.1-2.6-5.9-6.8-7.3-1.3-.4-2.1-1.3-2.1-2.3V290.3c0-.5 0-1 .1-1.4z"/><path class="st4" d="M320 486.4v4l8.9 15.7c.7 1.2-.4 2.5-2.3 2.7l-29.1 3.2c-1.9.2-3.6-.9-3.4-2.2l3.9-19.3 22-4.1z"/><path class="st3" d="M289.2 471.6H322v6h-32.8z"/><circle cx="256" cy="126" r="25" fill="#79b1d1"/><path d="M256 153.5c-15.2 0-27.5-12.3-27.5-27.5s12.3-27.5 27.5-27.5 27.5 12.3 27.5 27.5-12.3 27.5-27.5 27.5zm0-50c-12.4 0-22.5 10.1-22.5 22.5s10.1 22.5 22.5 22.5 22.5-10.1 22.5-22.5-10.1-22.5-22.5-22.5z" fill="#c6c6c6"/><circle class="st3" cx="256" cy="101" r="1.5"/><circle class="st3" cx="243.5" cy="104.3" r="1.5"/><circle class="st3" cx="234.3" cy="113.5" r="1.5"/><circle class="st3" cx="231" cy="126" r="1.5"/><circle class="st3" cx="234.3" cy="138.5" r="1.5"/><circle class="st3" cx="243.5" cy="147.7" r="1.5"/><circle class="st3" cx="256" cy="151" r="1.5"/><circle class="st3" cx="268.5" cy="147.7" r="1.5"/><circle class="st3" cx="277.7" cy="138.5" r="1.5"/><circle class="st3" cx="281" cy="126" r="1.5"/><circle class="st3" cx="277.7" cy="113.5" r="1.5"/><circle class="st3" cx="268.5" cy="104.3" r="1.5"/><path d="M217.9 509.8l-2.4-11.7H256V.1c-.4 0-.8.1-1 .2-5 4.9-9 9.8-12.6 14.7-3.7 4.9-6.9 9.8-9.8 14.7-2.9 4.9-5.5 9.8-7.7 14.7-2.1 4.9-4 9.8-4.8 14.7 0 .2 0 .5-.1.7v114.7h-3c-.6 0-1 .4-1 1v10c0 .6.4 1 1 1h3v64.1l-27.8 36c-1.5 2.1-2.2 4.5-2.2 6.8V478c0 .7.2 1.3.7 1.9.8 1 1.2 2.2 1.2 3.3v3.7h.1v3.5l-8.9 15.7c-.7 1.2.4 2.5 2.3 2.7l29.1 3.2h.8c1.6-.1 2.8-1.1 2.6-2.2z" opacity=".15" fill="#444"/></svg>