<svg xmlns="http://www.w3.org/2000/svg" viewBox="0 0 512 512" xml:space="preserve"><circle cx="256" cy="256" r="256" fill="#79b1d1"/><path d="M190.27 427.12c.31-.94.62-1.88 1.02-3.1l-.82-1.16c.76.15 1.32.25 2.04.39.59-.41 1.4-.98 2.33-1.64 0-.8.48-1.9-.82-2.89.86-.45 1.62-.84 2.32-1.2 3.73 3.98 5.22 8.27 7.63 13.1-.11.23-.4.82-.8 1.65-.63-.92-1.22-1.77-1.81-2.62l-1.21 1.21c1.09 1.89 1.4 3.66.57 5.72 1.46 4.46-1.83 8.86-1.56 13.55 0 1.02-.62 2.16-1.25 3.04-.78 1.08.85 1.82.05 3.06-.74 1.15-.63 2.83-.98 4.7-10.66 2.88-13.6-1.16-19.23-8.91-.2-1.13-.24-2.17.75-3.16.94-.94.76-2.56 1.95-3.55 1.15-1.69-1.93-4.03-2.76-5.57-2.58-2.46-.88-5.02-.67-8.1 4.54-1.06 9.44-1.16 13.25-4.52zm19.61-125.14c-1.63.05-3.22-.53-4.27 1.15l2.84.83c.42-.3 1.07-.76 1.72-1.23-.09-.26-.19-.5-.29-.75zm54.5-70.2c0 .02-.01.02 0 0zM71.12 157.07c.82 2.44 1.98 4.69 3.35 7.11 1.5-2.2 1.55-5.04 4.17-6.43-2.22-.23-2.22-.23-3.34.34-1.34-.61-2.37-1.95-4.18-1.02zm193.92 73.45c-.35.67-.62 1.2-.66 1.27-7.43 2.01-13.82-.04-20.36 3.29-1.6.22-3.44-.52-5.08-.7-1.34-.25-2.74.43-4.1-.56-2.06-.71-4.85.63-6.8-.87-.88.3-1.59 1.33-2.71.06-.56-.63-1.87-.59-2.8-.84-1.35-1.88-.66-4.57-2.73-6.29h-3.08l-.93.93c.23.25.45.5.68.75-1.44.9-3.32 0-4.97.98-1.01.48-2.39-.19-3.64-.51-4.62-.35-6.31-4.61-10.84-5.8-4.46-1.37-3.21-7.69-6.88-10.28-.47-.39-.63-1.16-1-1.9-1.28.57-2.54 1.29-3.36-.21-1.37.64-2.79.89-3.49 1.74-.71.86-1.01 2-2.36 2.12 2.44 4.53 2.9 9.79 7.09 13.2.96 1.5 3.55 3.67 1.26 5.11 1.24 2.33 2.39 4.47 3.64 6.82.38-2.53-.6-5.36 1.91-7.24.62.57 1.27 1.18 2.01 1.87-.32.51-.56.89-.95 1.5 1.18 1.52.76 3.13-.51 4.63.18 1.95 2.13 2.26 2.98 3.24 8.14-.2 11.92-.84 16.41-8.23.08-.2.31-.47.5-.49 1.95-.25 2.01-2.35 3.48-3.44-.01 4.93.15 8.66 4.01 12.23 6.74.1 8.59 3.3 13.4 7.05-.87 4.28-4.64 7.04-6.04 11.23-.52-.22-.93-.39-1.63-.68-1.43.97-2.69 3.76-1.9 5.82.94 1.63-.02 2.42-2.96 2.62-.97 1.15-2.7 1.85-2.72 4.02-.01.63-1.02 1.25-1.46 1.75h-3.88c-.58 1.45-1.16 2.89-1.76 4.37-3.17-.49-5.97.31-8.3 2.05-2.73-.37-4.27 1.47-6.03 3.28.23 1.79-.05 3.43-2.58 3.28-3.27 1.72-7.08 3.35-10.72 3.52-1.22 1.22-2.41 2.41-3.59 3.6h-3.6c-4.09 2.51-6.81 3.17-9.12 2.07-3.14 2.09-5.4 4.07-9.77 4.23-.73-.51-1.94-1.35-3.04-2.12v-3.82c-2.2-2.11-2.08-6.06-2.85-9-.45-2 .8-4.51-.7-6.15 1.32-.68-.1-1.29-.11-1.94-.83-4.11-5.58-6.25-5.74-10.91-.14-5.83-7.49-7.39-7.81-12.86-.36-4.84.57-14.19-5.38-15.61-2.35-2.65-2.09-5.78-2.77-9.17l-1.26-1.26c.33-2-.6-3.64-2.13-5.01.24-.26.48-.52.95-1.02-1.17-1.83-2.37-3.73-3.58-5.62.59-1.74 1.26-3.7 1.93-5.66-.15-.09-.3-.19-.45-.28-1.66 2.49-2.04 5.41-3.54 7.91-2.84-1.52-3.61-3.05-3.38-6.69-1.07-1.41-.28-3.11-.9-5.35-2.27 4.38-.04 8.07 1.22 12.5 2.07 6.54 1.54 14.14 5.51 19.98-1.3 1.56-.35 3.41-.77 5.3 1.33 1.51 2.71 3.08 4.3 4.89v2.7c3.19 4 .88 9.82 1.56 14.51 6.14 4.2 6.89 10.95 8.6 17.33.07.98.61 1.64 1.47 1.66 1.58.05 1 2.87 3 2.2 3.31 2.95 6.18 6.3 8.78 9.89 1.33 2.07 4.25 3.32 4.05 6.32-1.03.89-1.71 1.32-3.09 2.05 2.01.85 4.63.71 4.54 3.64 2.74 4.29 7.11 3.74 10.65 1.12 3.05 2.09 5.72-.52 8.79-.76 4.41-.98 9.79.04 13.62-2.59.94-1.13 2.06-.96 3.33-.96.87 2.16-.52 4.68.9 6.94-.37.26-.84.6-1.3.93.19 6.06-3.96 10.09-6.12 15.23-2.08 3.28-2.41 7.59-5.18 10.76-5.91 11.41-19.01 14.7-26.28 24.75-1.14 1.69-2.67 3.1-3.55 5.01-1.22.93-2.36 1.54-3.38 3.16-3.48.1-2.45 6.46-4.88 8.68-2.52 5.72-2.17 7.11 2.57 11.17-.74 1.44-.5 1.38.62 5.96.5 2.04 2.77 3.22 2.27 5.55 1.72 1.39 3.44 2.78 5.05 4.09.2 4.99 1.54 10.91 4.29 14.66v3.55c-.43.43-1.11.79-1.23 1.29-1.37 3.6-5.65 3.23-8.68 4.15-1.17.44-2.56.64-3.11 2.29-.71 2.06-4.19 2.28-5.48 4.14-.36 3.98 7.28 7.94 7.9 14.74-2.48 1.01-4.74 1.32-7.22.98v2.05c1.94 1.53 2.91 3.73 2.7 6.51-.62.38-1.2.72-1.94 1.18-.05 3.98-2.34 4.75-5.22 6.91h-2.16c-.08-.2-.17-.59-.25-.59-3.12-.01-5.69-2.12-8.76-2.31-10.1-1.84-17.03-9.74-24.46-16.49-7-5.81-13.94-11.77-19.31-19.18-8.92-13.87-23.99-25.58-24.88-42.95 2.55-3.36-2.6-8.79-3.52-12.32-4.26-14.98-13.15-28.4-19.47-42.69.72-1.62 1.45-3.95.01-5.46 2-1.45-.75-2.8.07-4.36 2.22-5.6-.8-14.19-6.36-16.84-.79-.36-2.06.44-2.57-.66-2.33-6.87-3.08-18.74-13.32-13.94-2.67-2.58-3.72-7-8.07-7.25-.17-2.71-1.26-5.27-2.64-7.78C.34 270.84 0 263.46 0 256c0-22.34 2.87-44 8.24-64.66 2.92-5.97 6.09-11.61 8.65-15.82h1.24c6.65-4.39 5.8-12.9 12.14-17.13 3.4-1.58 4.33-5.13 7-7.75-.53 4.2.86 3.5 2.67 5.99.04.12 1.33.17 1.57-.13.81-1.01 2.02-.99 3-1.52 2.8-2.28 5.07.23 8.45-.42.41.64.89 1.38 1.4 2.16 1.89.03 3.84-.23 5.58 1.18 1.12.52 3.23-.27 4.54-.55.25 1.26.46 2.34.71 3.59l-1.79 1.79c.4 4.27-1.74 7.26-5.38 9.45 1.39 2.77 1.48 5.53 3.37 8.14.43.3 1.64.04 1.88.12 1.25 1.41 2.32 2.62 3.58 4.04v4.92c3.83 2.06 5.98 4.41 7.82 8.44 3.06-1.56 4.61-4.01 4.47-7.81 1.16-.98 2.47-2.09 3.67-3.1h4.66c.46.53 1.01 1.16 1.68 1.92.03.58.08 1.39.13 2.25.66.07 1.22.13 1.86.2.14.39.29.8.48 1.35h2.32c.5 1.26.2 3.05 2.01 2.83 1.8-.2 2.83 1.42 4.43 1.53 1.75 2.28 4.5 2.97 6.9 4.37 2.21-1.65 4.69-2.6 7.46-3.01 1.18.89 2.37 1.78 4.01 3.02.62.25 1.85-.3 3.15.42 1.42.79 3.21.08 4.32-1.28 4.63-7.5 9.83-14.99 10.57-24.08 1.24-.11 1.3-1.44 1.93-2.23-1.38-.83-2.15.16-3.08 1.13-.56-.49-1.11-.98-1.92-1.68-2.79 1.81-5.26 2.88-9.22 2.43-.03-.57-.06-1.13-.09-1.59-3.77-2.93-4.02-4.17-6.79.09h-3.05c-.06-2.94-2.83-3.58-4.63-5.7.15-.85.93-2.38.49-3.35-.9-2.86 1.06-5 .89-7.93-.32-.12-.73-.27-1.28-.47.03-1.93 1.47-2.92 2.64-4.17 2.45 1.53 5.32 2.53 8.11.52v-1.42c-1.22-1.58-4.24-1.27-5.77-.03-3.64 1.1-4.2-2.92-9.57-1.75-.56.79-1.06 1.51-1.74 2.47-.77-.71-1.35-1.24-1.61-1.48-.75.54-1.51 1.09-2.28 1.65.37 1.13.68 2.08 1.02 3.13-.55.64-1.08 1.24-1.74 2.01.36.94.75 1.94 1.06 2.75.76-.2 1.33-.34 2.49-.65-1 1.58-1.65 2.6-2.3 3.63-.47-.76-1.81-.49-2.05-1.86-.11-.95-1.83-1.39-2.62-.58.69.66 1.37 1.33 2.08 2.01v2.76c-.4-.29-.62-.44-1.07-.76-.73 1.29-.94 3.11-2.99 3.32-.1-.51-.25-1.22-.44-2.21-.35.76-.58 1.24-.8 1.71a3.98 3.98 0 0 0-.34-.05c.28-1.75.56-3.5.88-5.52.28-.29.76-.8 1.36-1.43-1.86-2.1.1-5-1.56-7.21.31-1.12 1.54-2.24.02-3.37.88-2.65 1.92-4.67 3.71-6.98-1.55-3.59-2.3-7.8-5.22-10.67-.24-2.11.85-4.71.82-6.83-.53-.25-1.02-.48-1.62-.76.33-.73.64-1.42 1.04-2.33h-2.09c-3.84 3.75-4.57 5.8-3.22 9.58-1.92 2.02-1.26 4.63-1.38 7.26.58.4 1.23.84 2.09 1.43v2.47c1.09 1.52 1.96 2.73 2.85 3.98v2.29c-.89-.73-1.74-1.42-2.52-2.06-.95 1.09-1.79 2.05-2.89 3.32.06.19.35 1.15.65 2.1-2.07 1.5-3.21 3.87-5.56 4.77l2.88-2.88c.93-5.19-.09-10.16-2.39-14.71.05-3.13-1.81-6.66-.18-9.5.98-1.24.89-2.8.69-4.31-2.66-2.5-6.38 1.75-9.76 2.21.28-2.96-2.42-4.53-4.55-1.83-1.66 3.68-3.64 6.49-8.57 6.83-1.1 1.47-3.19 2.45-3.88 4.61-4.44 2.56-5.04 11.45-11.44 9.01-.99-.25-2.11.02-3.39.05-.94-2.04 2.52-4.57-.2-6.68 4.66-8.55 9.58-16.54 15.83-23.98.95.65 1.86 1.28 2.98 2.05.02.24-.03 1.44.4 1.67 1.42-.18 1.84 2.3 3.33 1.41 3.37-3.92 7.83-8.26 8.78-13.42 2.36-1.91 1.88-4.58 1.93-7.06.88-.41 1.67-.78 2.49-1.17.3.63.54 1.11.91 1.87.97-.84 1.84-1.59 2.57-2.23 2.05 1.03 4.11-.54 5.7-1.58 3.42-3.88 9.34-2.83 12.42-7.28l.39.39c.95-.96 1.91-1.92 2.74-2.75 1.91.53 3.55-.47 4.74.77 6.34-3.04 6.67-11.52 14.65-12.67-2.03 1.83-2.54 5.01-5.72 5.75.34.42.53.66.74.91-1.31 1.92-2.83.23-4.09 3.49l.83 2.01c1.22-.13 2.51-.26 4.04-.42v2.5c3.38-.92 6.73-.73 9.89-2.65.13 1.39.22 2.29.3 3.17 2.42.75 3.41-2.79 6.16-1.92 2.56-3.43 4.55-8.85 9.35-9.31.37 1.05.04 2.47 1.66 2.85 2.23-.79 2.21-3.72 4.1-4.42-.24-1.01-.42-1.75-.58-2.41 2.44-2.4 5.21-2.14 7.94-1.44 2.87 1.09 4.88-1.78 7.9-1.54-.33-.13-.65-.25-1.19-.46-.09-.45-.21-1.11-.39-2.03-2.45.49-4.96-.59-7.52.68-1.15.57-2.81.1-4.19.1-.38-.78-.71-1.48-1.16-2.41 3.02-2.02 4.04-7.36 7.74-8.22 2.5-.83 4.22-2.21 6.72-3.02 1.15-.42 1.78-1.98 3.33-1.51.84-1.05 1.68-2.09 2.89-3.6-3.28.18-6.21-.24-8.54 2.09-5.54 5.55-15.51 5.55-19.06 13.39.23.6.46 1.21.59 1.55-1 .99-1.83 1.82-3.11 3.09-4.71.34-7.89 6.53-11.67 9.44-2.44-.23-4.92.06-6.93 2.63-.49-1.17-.58-1.44-1.25-2.27 5.08-2.41 4.91-8.88 9.3-12.34-3.35-1.66-6.95 4.86-9.51.36 7.93-10.73 12.82-11.23 24.48-15.68 4.96-2.52 9.89-5.08 14.74-7.79 1.72-1.03 4.01-1.08 5.09-3.11 1.87.43 3.32-.41 4.51-1.42 1.26-1.07 3.06-.05 4.13-1.36 1.62 1.37 2.84-.14 4.19-.61 1.42-.5 2.9.15 4.43-.62 1.15-.59 2.91 1.52 4.27-.13.61.31 1.21.6 1.99 1-.22.47-.44.95-.69 1.48.58 1.5 2.09.89 3.06 1.01.44.61.69 1.34 1.05 1.4 3.34.55 5.74 2.56 8.01 4.73-.87 5.18-7.26 4.65-10.81 2.77-.02-.21-.04-.44-.07-.83h-2.38c-.29-.62-.52-1.11-.76-1.61-.64.63-.49 2.42.43 4.46-1.5 1.47-2.45 2.64-2.72 4.73.6 1.79 2.77 1.5 4.36 2.43.44-.49.89-.98 1.58-1.75-.8-.33-1.27-.52-2.12-.87.6-.37 1.06-.65 1.25-.77 2.05.2 3.97.38 6.1.59-1-3.63 6.91-6.99 8.93-4.12.59-.84 1.08-1.52 1.78-2.51-.9-1.75 2.11-2.74 1.63-4.87 1.42-.21 2.71-.5 3.6 1.16-.58.05-1.14.11-1.72.16-.55.79-1.12 1.61-1.8 2.6.88 1.51 3.12.87 4.39.96 2.98-4 7.51-4.34 11.57-5.78.57.5 1.17 1.03 1.94 1.71.66-.61 1.24-1.16 1.55-1.44 2.47-.32 4.63-.59 6.78-.87.21.48.42.95.79 1.76 1.21-1.15 2.2-2.09 3.29-3.13-.33-.49-.57-.86-.92-1.38 4.94-.94 9.32.81 14.17 2.81.28-.31.73-.79 1.51-1.64-1.53-.59-1.95-.63-2.29-2.03-.55-.06-1.12-.13-1.7-.19-.74-2.99.27-5.65 1.42-8.41 2.35-.16 3.71.13 5.25 1.01-.54.71-.8 1.06-1.11 1.47 3.49 2.05 1.79 7.08 6.09 8.6-.89 1.96-1.72 3.77-2.56 5.62.62.33 1.2.63 1.84.97 1.03-1.95 3.77-2.78 3.86-5.98-.3-.32-.89-.98-1.75-1.92 1.25-.56 2.22-.99 3.43-1.52.98 1.13 1.89 2.19 3.1 3.58.2-.98.33-1.59.45-2.17-.67-.65-1.27-1.24-1.89-1.85h-5.95c-.79-.49-1.29-.8-1.78-1.11.4-.74.67-1.22 1.04-1.9-.74-.81-1.52-1.66-2.45-2.68.4-.51.8-1.03 1.31-1.68.49.77.91 1.44 1.35 2.13h4.04c-1.17-.4-1.59-.55-2.43-.84.69-.29 1.09-.45 1.51-.63.12-.65.24-1.31.35-1.94 2.23.22 4.46 1.91 6.42 1-.35-.57-.7-1.13-1.04-1.67-.9-.04-1.71-.08-2.44-.12-.32-.69-.6-1.27-.92-1.95 1.9-.59 3.8-1.17 5.87-1.81-.26-.89-.47-1.62-.73-2.52 1.56-1.31 3.34-2.8 5.14-4.32 6.14-.92 9.2 4.19 16.32 2.76 2.06-1.43 4.28-.32 6.55-.89-.39-.43-.61-.68-1.08-1.19h5.04c.13-.57.21-.9.32-1.37h6.53c4.9-5.59 9.97 1 15.87-.41-.92-.61-1.62-1.08-2.27-1.52.67-.43 1.4-.91 2.19-1.42-.52-1.82-2.3-1.88-3.9-3.08 3.42-.02 6.5-1.92 10.04-.31.37-.58.83-1.29 1.38-2.15h2.2c-1.01-.47-1.45-.68-1.98-.93.23-.09.47-.17.73-.23 10.63 3.21 20.97 7.08 30.97 11.58 1.41 3.67 9.79 5.28 12.36 8.15-.81.15-1.47.27-2.54.47 1.18.84 2.11 1.51 3.09 2.21-.25.29-.47.54-.68.79.21.24.44.49.63.71-.27.37-.53.73-.75 1.03 4.05 5.17 10.12 8.66 13.93 14.12.86 1.43 2.2 2.89 4 3.14 2.02.32 3.11 2.07 5.28 1.05-.59-.35-1.17-.7-1.91-1.14 1.95-1.44 3.85 1.65 5.34-.82 2.85 2.79 13.63 7.15 13.42 10.44-2.84-2.19-5.59-4.32-8.96-6.12.69 2.33 2.7 3.18 4.36 4.59 3.53 2.9 7.09 5.58 9.69 9.46 3.01 3.25 15.94 17.84 12.13 21.43-.25-.22-.51-.45-.76-.68-.25 5.8 7.12 10.78 6.17 16.37 1.06 3.24 4.21 3.51 5.77 5.6 4.64 2.4 7.59 6.37 9.87 10.62-.35 2.13-.68 4.08-1.04 6.24-.32-.16-1.05-.29-1.17-.64-.48-1.39-2.17-2.11-2.02-3.87-2.38-2.73-4.23-5.94-6.9-8.66-.58.35-1.05.64-1.69 1.03-2.85-1.47-4.86-10.56-8.7-4.57.32.57.59 1.05 1.12 2.01-.45.33-1 .71-1.81 1.29-2.08-2.05-1.17-4.97-3.8-6.61-.62.32-1.27.65-1.68.87.34 2.97.66 5.78 1.03 8.99-.23.49-1.65.85-1.24 2.23 2.03 2.45 2.03 2.45 4.06 1.41.95 1.12 1.92 2.26 3 3.53h1.52v-3.55c1.78.35 3.6-.71 5.06 1.13.01 1.56-1.49 2.83-.82 4.78.55 1.6.11 3.54.11 5.32.83 1.13 1.65 2.23 2.4 3.24h2.17c2.92 3.15 5.04 6.38 9.05 8.23.02.31.04.77.08 1.43.69.57 1.51 1.25 2.12 1.74v4.2c.88.1 1.77.2 2.19.25 2.44 2.12 1.61 5.34 3.49 7.45.18.2.21.77.05 1.02-1.28 2.1.77 4.19 0 6.24-.36.96 1.52 1.3.48 2.51-.35.41.07 1.57.28 2.35 3.16 6.41-.1 12.99-.07 19.75-1.17 1.12-2.37 2.28-3.57 3.42v1.8c-.68-.21-1.25-.39-2.07-.64.08.75.16 1.56.26 2.61-1.63.37-.24 3.56-2.77 3.76-1.06 1.36-2.12 2.72-3.43 4.39.27 1.53.6 3.44.96 5.5-2.39-1.6-2.6-1.91-3.28-4.96-.52.22-1 .42-1.57.65-.22-.14-.57-.37-.8-.53-.92 1.01-1.79 1.96-2.65 2.91-.04-.09-.09-.19-.13-.28-.68 1.39-1.37 2.79-2.05 4.18-.11-.05-.23-.09-.34-.14.44 2.39-1.06 5.29-1.33 7.21.61 1.29.36 2.48.58 4.03 1.13.96 3.19 1.95 4.18 3.24 1.38 5.74 9.65 4.83 12.16 13.07 2.06 3.97 1.74 8.29 2.87 12.14.36 3.63-2.52 8.14-5.44 10.46-.41 2.93-1.03 5.63-3.21 7.78-1.13 1.3-.71 3-2.39 4.21-.64-2.76-.12-5.12-.41-7.41-3.55-.86-3.55-.86-4.91-.22v-2.8l-.51-.24c-.32.59-.65 1.19-.97 1.79-1.92-1.52-1.26-4.48-3.75-5.31-1.74-.21-3.44-1.5-5.21-.07-1.68-.57-.85-2.16-1.21-3.25-1.85-.93-2.49.71-3.48 1.57 1.69 3.76-.94 14-.01 19.26.46.55.77.91 1.19 1.4.5-.29.96-.55 1.26-.72 1.93.55.5 2.91 1.47 3.2 2.14.99 1.9 3.1 1.84 5.01 1.69-.06 2.49 3.1 4.57 1.1 2.52 1.91 5.05 3.84 7.41 5.63.37 3.34.71 6.45 1.08 9.81 1.79 1.23 2.62 3.35 3.21 5.65-.6.43-1.38.99-2.16 1.54-2.62-1.14-5.33-2.31-8.2-3.56v-2.19c-2.93-2.06-3.29-4.74-4.12-7.39-.11.03-.22.07-.33.1.57-3.43-1.29-6.5-4.08-8.3-1.12-.45-.4-2.05-1.91-2.26-.85-.12-1.55-1.31-2.38-2.07-.16.46-.31.88-.56 1.57-2.69-3.95.27-9.06-1.86-13.17 1.09-1.19.59-2.62.74-3.83-.56-.56-.98-.98-1.46-1.45.18-3.14-.01-6.33-2.26-8.7-3.92-4.89-3.85-11.95-9.09-16.03-.08 1.28-.16 2.62-.24 3.96-1.26.76-2.53 2.54-3.58 5.1-1.44.35-2.97.73-4.51 1.11-3.38-6.84 3.14-4.72-4.38-14.82-.64.36-1.1.61-1.56.87-1.35-2.1-.83-6.51-4.96-5.66-2.21-2.22-4.59-4.37-6.07-7.19-1.16-2.96-1.15-2.96-3.17-4.21-.65.34-1.25.64-2 1.03.28.58.57 1.17.74 1.52-.89.89-1.72 1.71-2.54 2.54.11.11.23.22.34.33-3.26.41-4.76 3.1-7.85 3.86-.43-.25-.9-.52-1.54-.89-1.4 1.24-2.8 2.48-4.17 3.69.59 1.14 1.03 1.99 1.48 2.85-.95 3.7-2.49 5.77-6.44 7.03-2.24 5.67-5.71 11.12-10.59 15.41-.51.96-.12 1.91-.23 3.1-2.43 2.93-3.85.71-5.37 5.37-6.81 1.13-1.92 9.64-1.21 14.01 1.22 3.72-3.11 7.4-.68 11.33.6 1.1.44 2.62.62 3.97-1.91.47-1.91.47-4.21 4.68l.87 1.17c-1.1.6-2.18 1.18-3.62 1.95-.28 1.01-.67 2.4-1.12 4.03-.78.44-1.75.98-2.67 1.5-7.86-2.66-6.59-12.6-12.49-17.51-3.78-3.79-3.96-9.67-7.32-13.86-3.28-4.05-5.46-8.63-6.72-13.73-1.26-4.35-6.13-11.19-3.42-15.36-1.69-2.57-2.57-5.55-3.19-9.05-.61.68-.97 1.08-1.3 1.44.99 2.47.99 2.47-.02 4.93-1.45.9-2.7 1.66-4.22 2.6h-3.23c-2.73-2.52-6.46-3.97-8.14-7.82.39.22.78.43 1.36.75l5.82-3.55c-6.48.35-6.99 1.99-11.72-3.44-1.49-.38-2.69-.69-3.86-.99-1.37-3.7-4.45-4.57-6.51-8.26zM355.07 67.7c3.83 5.26 4.07 9.54 3.69 16.02-.38.16-1.06.45-2.09.88 1.17.91 1.76 1.36 1.99 1.54 1.11-1.1 2.01-2.01 3.04-3.04-.35-.41-.85-1-1.39-1.65.44-.16.86-.31 1.25-.45 2.32-5.17-1.54-9.85-5.1-13.29-.21-.19-.78-.01-1.39-.01zM331.6 97.36c.56.44.76 1.18.89 1.83h1.56c.31-1.94.31-1.94-1.44-2.89-.31.34-.63.67-1.01 1.06zm-37.32 44.87h5.43c.36-.88.68-1.66 1.03-2.54-2.84-.72-4.81.43-6.46 2.54zm-1.71-20.69c.16.67.24.99.31 1.29h4.65c.4-.5.76-.93 1.59-1.95h-2.86c-.18.25-.58.8-.66.92-1.24-.09-2.05-.17-3.03-.26zm-11.92 7.74c.81.26 1.68.55 3.16 1.03-.71-.77-1.18-1.16-1.13-1.24 1.09-1.8 1.07-4.26 3.27-5.33 1.18-.55 3.02.8 3.7-1.36-4.37-1.16-10.63 1.26-9 6.9zM130.59 71.42c-2.14.21-4 1.19-4 2.45.61.06 1.25.13 1.37.14 1.12-1.11 1.94-1.91 2.63-2.59zm-28.55 276.89c.14.68.26 1.29.4 2 1.8-.45 1.97-2.27 3.26-2.89.18-.09-.05-1.04-.09-1.58-1.45.11-2.3 1.7-3.57 2.47zm2.31 44.57c-.07-.65-.13-1.2-.25-2.36-1.15 1.04-1.91 1.73-2.49 2.25.36.86.58 1.37.83 1.96l1.91-1.85zm7.95 1.25c-.15-.91-.03-1.83-.4-2.13-3.2-3.11-3.74-7.91-7.63-10.18 1.76-2.61-1.34-4.62-1.54-6.99-.26-1.83-1.68-3.5-2.63-5.31l-1.03.44c1.22 2.31 1.98 4.68 1.61 7.14l1.55 1.55c-.68 2.61.73 4.52 2.63 6.24 3.22 2.7 3.49 6.88 7.44 9.24zm11.51-50.89c1.16 1.66 2.29 3.27 3.4 4.85.37-.18.56-.28 1.29-.65-3.28-2.87-3.6-6.46-3.36-10.22-.6.05-.92.07-1.33.11v5.91zm-.06 56.51c3.01 2.19 2.46 5.42 4.33 7.7-.59 4.03 3.08 11.42 6.82 11.39-2.92-3.2-4.21-6.74-3.97-10.86-2.15-1.31-2.55-3.59-3.06-5.92-1.1-.6-1.55-2.27-4.12-2.31zm-8.76-43.63c-.88-.6-1.61.5-1.69.41-1.1-1.34-2.81-.33-3.78.37-.6 1.58-1.66 2.98-.24 4.57.34.38.23 1.48-.08 2.03-.62 1.44.99 3.02 1.07 4.67 1.86-1.61 4.33.47 6.64.62.23-.22.57-.54 1.12-1.05-.58-.24-.99-.4-1.7-.69.83-2.38 2.51-4.1 2.59-6.71.65-.11 1.3-.21 2.01-.33-.12-.51-.2-.83-.28-1.16-.89-.04-1.7-.08-2.28-.11-.73-1.8-1.82-2.06-3.38-2.62zm46.47-201.54c.83-.86 1.66-1.71 2.4-2.47v-4.73c-3.59-3.54-6.39-6.55-9.47-10.14h-1.64c-.26-.89-.5-1.72-.81-2.76.41-.02.97-.05 1.52-.08 1.34-1.2 2.69-2.4 4.05-3.62l-.82-1.73c1.56-.77 2.96-1.46 4.6-2.26-3.14-.76-5.77 0-8.3 1.13-3.09-.17-5.38 1.5-7.49 3.04.59 1.17 1.13 2.26 1.7 3.4 1.13-.19 2.23-1.12 3.43-.11-.55.66-.98 1.16-1.64 1.95-2.68-3.4-4.85 2.04-8.13.9.22-.9.42-1.7.67-2.68-.61-.54-1.31-1.16-2.04-1.8 1.36-.66 2.33-.9 3.14-2.24-3.46-.41-3.46-.41-4.04-3.07h-3.23c-1.14 2.03-3.61 2.78-4.86 4.39-.85 1.44-1.45 2.82-3.52 2.82-1.91.62-2.64 3.89-3.44 5.45-.97.44-1.77.8-2.22 1.01-.99 1.6-1.82 2.93-2.72 4.38 1.41 1.1.82 2.34-.04 3.53 2 3.28 5.45 2.53 8.67 3.51 2.99-1.63 6.17-3.02 9.58-3.6 1.36 1.36 3.16.35 4.66.85.16.44.31.86.45 1.25.64.05 1.2.1 1.76.15.14.77.25 1.42.32 1.8 3.82.13 6.11 4 9.8 1.77 2.1-.68 4.21 2.04 6.23 0 .3-.23.93-.04 1.43-.04zm5.98 10.84c-1.54.67-3.53.07-5.03 1.94 1.2.62 2.26 1.17 3.2 1.66.64-1.27 1.19-2.35 1.83-3.6zm1.58-94.57c-.65-1.24-.47-3.53-3.11-3.3l-2.53 2.53v3.68c1.21.97 2.23-.92 2.98-.25l2.66-2.66zm4.7 98.07-1.05 1.05c.32 1.59.64 3.13.94 4.64h1.83c.22-2.21-.4-4.03-1.72-5.69zm3.4-90.39c-1.03.67-1.71 1.12-2.25 1.47.39.77.69 1.35 1.06 2.07 2.08-.58 2-2.33 1.19-3.54zm1.04-13.02c-.37-.33-.72-.62-1.53-1.32-2.06 2.89-3.37 4.06-1.46 7.46 1.05-.96 1.76-1.62 2.3-2.11-1.27-1.8.49-2.45.69-4.03zm30.87 84.81c-4.51-.09-3.62-.3-4.35 3.48-1.44-.81-1.56-2.26-.9-3.32.82-1.31.16-2.47.52-3.59-2.1-.23-3.57-.75-4.97-2.09-.26-2.45-1.05-4.15-3.15-5.44 1.36-1.63 2.4.41 3.87-.06l-.59-1.54 2.37-2.67c5.49.64 4.12-1.63 5.34-5.58-1.78-1.41-3.7-.27-5.58-1.48-2.82-.6-5.24 2.69-8.08 3.07-3.4 3.74-6.52 2.85-9.41 8.41.76 1.14 1.5 2.26 2.25 3.4-2.88 4.44 2.51 8.43 4.16 12.02-.14 2.17 1.49 2.78 2.98 3.66-3.91.92-2.38 6.13-5.69 7.77v6.23c1.27.44 2.5 1.16 3.77 1.22 1.7.08 1.06 2.77 2.95 2.32 4.13 3.35 8.51-.27 13.32-.21-.66-3.93 1.82-9.99-2.11-12.52.27-.96.53-1.89.89-3.16h-3.17c.41-1.32.73-2.37 1.1-3.59 2.49.95 4.99.77 7.44-.07 1.08-3.09-2.77-2.08-2.96-6.26zm24.88-12.07c-.23-.82-.25-1.85-.76-2.51-.67-.88 1.04-1.43.05-2.35-.35-.33.15-1.56.29-2.55-1.24.13-2.2-.09-3.47-.61v1.79c-.9-.18-1.71-.35-2.55-.52-.93 2.37-1.77 4.53-2.66 6.81.82.51 1.44.9 2.44 1.53v-5.31c.74-.36 1.3-.63 2-.96.51 2.29-.49 3.95-1.14 5.67 1.01 1.53 2.54.8 3.75.92.7-.65 1.31-1.22 2.05-1.91zm2.09-9.39c-1.54-.13-2.96-2.24-4.38.26 1.3.29 2.66.6 4.11.93.07-.33.15-.65.27-1.19zM481.73 230.4c.62 1.33 1.23 2.66 2.08 4.49v-4c-.42-.27-.96-.63-1.51-.98-.19.16-.38.33-.57.49zm-6.24-24.05c-1.04 5.04 2.92 8.71 1.61 13.58 1.15 1.57 1.31 4.08 3.02 5.75l.72-1.58c.29 3.22.29 3.22 1.62 4.41 2.86-3.28-3.14-9.04-2.01-12.08.93-1.55.6-3.14.64-4.7-1.16-1.67-2.51-3.23-2.26-5.39-1.23.01-2.18.01-3.34.01zm-13.35-69.65c2.2-1.61-2.83-7.6-4.38-9.49l-.83.83c.24 1.23.44 2.29.68 3.53 2.53.68 3.24 3.25 4.53 5.13zm27.66 90.67v2.41l1.46 1.46v3.73c.21.02.42.03.63.05-.18-2.51.8-6.58-2.09-7.65zm-18.04 108.71-.34-.46c-1.52.47-3.04.93-4.53 1.39-.21-.19-.38-.34-.7-.63-.66 1.22-1.3 2.39-1.89 3.49-1.31.56-2.94 1.92-4.32 1.61-2.93-2.14-5.07.8-7.59 1.14-1.02.75-1.04 2.48-1.49 3.76.7.11 1.36.22 1.99.32.16.47.31.88.44 1.26 1.81-.56 3.65-.39 5.23-1.36 1.96-1.03 3.67-2.82 6.26-2.25 3.07-1.66 6.72-3.31 9.67-5.19v-2.61c-1.21.53-2.22 2.1-3.43 1.74-.11-.87-.11-1.65.7-2.21zm-3.02-146.26c.34-4.64-1.57-11.15-4.06-14.7-.57 6.11-.19 11.08 4.06 14.7zm18.54 45.71c-1.07 2.18.49 3.6.51 5.41.47-.37.71-.56.95-.76 1.03 1.77-.93 4.26 1.86 5.86-.38-2.82-.7-5.29-1.04-7.82-.74-.9-1.41-1.73-2.28-2.69zM72.71 137.75c1.77-.76 2.55-2.13 2.86-4.16-2.82.51-1.97 2.86-2.86 4.16zm429.25 181.5c-1.78 6.77-3.66 13.71-6.58 20.37l-1.07-1.07c-6.59 10.44-9.7 22.87-16.55 33.13-6.24 7.57-12.44 15.14-18.38 22.96-1.59 2.49-3.79 5.3-4.13 8.31-.17 3.22-3.05 5.37-3.77 8.51-.69 6-5.26 9.93-7.16 15.4 1.92-1.92 3.91-3.11 4.64-4.84.5-1.1 1.89-1.58 3.49-1.89 23.88-28.55 41.65-62.37 51.31-99.47-.28-.99-.85-1.53-1.8-1.41zm-157.09 3.25c12.48-3.52 4.96-15.73-3.33-19.29.66 1.2 1.21 2.32.74 3.34-2.12 3.52.52 7.84.03 11.45.87 1.53 1.64 2.88 2.56 4.5zm104.76-108.32c-1.33 1.33-2.48 2.47-3.76 3.75 1.39 1.47-3.11 2.27 1.91 7.04 4.27-2.12 2.52-4.84 3.1-8.46.52-1.02-.73-1.79-1.25-2.33zM437.85 83.81c-1.68-2.78-2.81-6.27-7.22-6.06 1.89 2.92 3.79 5.4 7.22 6.06zm52.6 204.73c1.02-.96 2-1.9 2.96-2.81-.1-.68-.17-1.2-.23-1.56-.93.29-1.66.52-2.69.84.08 1.13-1.71 2.12-.04 3.53zm-43.16 55.87c-.2-1.89 1.09-1.24 1.86-1.5.84-.28 1.63-.69 2.58-1.1-.76-4.14.8-8.21.68-12.4.76-.09 1.33-.15 2.07-.24.22-2.26-1.98-3.48-2.1-5.74-.98.84-1.61 1.38-2.05 1.76v2.08c.42-.37.67-.59.95-.83.32.64.64 1.28 1.04 2.11-1.21.39-2.32-1.74-3.27.06-.94-1.72-2.16-3.12-1.79-5.34-1.09.5-1.77.81-2.4 1.09l-.97-.97c.38-1.56.76-2.79 1.24-4.26-.58-1.62-2.67-1.8-3.31-3.36-.23.18-.47.37-.69.55l-1.31-1.31c-.48.27-.95.54-1.46.82-.31-.66-.54-1.15-.67-1.41-.93-.26-1.66-.47-3.16-.9-.04.13-.23.83-.42 1.53-3.63-5-10.09-4.71-13.03-10.31-2.81 1.11-5.26 2.57-7.74.83-4.08 1.84 3.06 8.52 5.43 7.21 1.51.99 1.94 2.67 3.36 3.43-.51 3.04 3.14 1.93 4.56 3.12.84 2.4 1.53 4.39 2.15 6.16 3.31.85 6.62 6.67 7.11 10.11 3.27 4 7.16 5.9 11.34 8.81zM104.05 71.15c.31-1.48.51-2.44.81-3.88-6.18 2.4-9.14 8.48-12.25 13.74-1.4 1.33-2.64 2.68-4.64 3.46-1.83.71-2.46 3.42-4.51 4.38-.35 1.65-1.99 2.24-2.81 3.53 1.26 1.79 3.25 2.2 5.33 2.57 1.87-2.13 3.89-3.93 6.29-5.45-.3-.96-.51-1.66-.73-2.36 4.53-4.83 6.32-12.8 12.51-15.99zm20.28-28.95c1.56.32 2.93.5 3.97-1.57-2.2-.34-3.03-.01-3.97 1.57zm4.35 140.13v-1.66c-2.42-.6-4.82.27-6.15 2.41 3.76.28 3.76.28 6.15-.75zm99.5-149.9c1.83-1.27 3.73-2.59 5.64-3.91-.94-.39-1.93-.45-2.3 0-.94 1.32-2.3.58-3.38 1.17-.27.62-.51 1.18-.7 1.62.23.36.41.62.65.99-2.03.63-4.93 2.95-7.12 5.6l2.39 2.39c.67-.23 2.02.12 2.46-.55-2.04-3.8.66-4.36 2.32-7.36.02.01.03.03.04.05zM101.49 177.71c-2.24-1.39-3.97-1.76-5.74-2.05 1.75.52 2.47 3.41 5.74 2.05zm-36.2-28.45c3.49-1.12 4.1-4.33 6.49-6.55v-2.74c-1.02.46-1.81.82-2.48 1.13-1.27 2.58-2.5 5.08-4.01 8.16zm428.72 90.65c.51 3.41-.61 5.04-.83 8.05-.54.33-1.21.74-2.01 1.22.21 1.3-.22 2.34-.92 3.62 2.25.9 1.33-2.11 2.84-1.71 1.63 1.98.37 4.34 1.86 6.44 2.11-1.78 1.31-3.51.48-5.36.48-.55 1.01-1.15 1.72-1.94-.92-3.54-.31-7.35-3.14-10.32zM91.14 78.84c.42-.94.73-1.61 1.2-2.66-.88 0-1.75-.22-1.94.04-1.21 1.42-3.27 1.6-4.71 2.43-1.04 2.99-4.62 4.1-5.67 6.82h2.84c3.69-1.72 4.74-5.58 8.28-6.63zm400.64 228.42c.1.88.19 1.75.33 3.02.42-.87.64-1.33 1.02-2.12l.35 2.32c.2 0 .4.01.6.01-.31-2.95-.62-5.91-.95-9.08-3.78-3.67 2.04-6.04.52-9.68l-3.12 5.51c-.77-.68-1.34-1.18-1.76-1.56-2.16 1.73-.35 4.51-1.9 6.41.62 2.4-1.49 4.66-.5 7.01.48.1.8.16 1.39.28-.25 2.62-.49 5.16-.74 7.74.53-.05.76-.07 1-.09 2.26-4.56-.77-10.3 2.38-14.28v3.12c.54.54.96.96 1.38 1.39zm-5.64-16.34v-1.49c-.75-.48-1.5-.95-1.96-1.25-.21-1.38-.51-2.41-.48-3.43.04-1.31-1.64-2.08-.81-3.72 1.08-2.32.58-5.34 1.16-7.78.43-1.2 1-2.28.48-3.54-2.33-.27-2.55-2.35-4.55-3.2-1.46 3.84-2.16 7.6-2.6 11.5-5.45 4.25-2.93 13.35-9.85 16.64.34 4.3-.45 8.16-4.84 6.85-1.94 4.46-1.13 9.79.59 14.25.51-.41.75-.6 1.13-.91.47 2.5-.47 5.08 1.18 7.2 1.2-.74 2.4-1.49 3.69-2.28.24.65.39 1.06.54 1.48.57-.25 1.15-.5 1.73-.75.4-.89.81-1.8 1.29-2.86.64.31 1.23.6 1.81.89.59-.28 1.18-.56 1.95-.92.14.89.24 1.55.34 2.25.97-1.12 2.04-1.96 2.53-3.05.49-1.11 3.09-1.83.97-3.66-.12-.11-.15-.55-.04-.67 1.3-1.43.58-3.16.66-4.75.1-4.21 3.07-7.68 2.2-12.03.39-1.72.42-4.41 2.88-4.77zm-29.92-164.45c1.9-.91.82-2.74 1.31-4.19 2.9 1.21-.17 4.41 2.45 5.6 1.28-3.5-.91-5.75-2.9-8.12.57-.24.87-.37 1.48-.63.18 1.46 1.15 2.24 2.34 3.21.32-2.52-1.29-3.87-1.97-5.64.15-.16.39-.42.49-.53-.27-4.35-1.61-7.68-4.72-10.7-4.38-4.51-6.67-11.17-12.16-14.38 2.3 5.43 7.72 8.76 9.88 14.54 1.21 2.18 1.08 4.78 2.69 6.79 1.26 1.57 1.21 3.5.05 5.03-1.82 2.94.95 5.99 1.06 9.02zm51.19 157.95c.79-1.59 1.41-2.85 1.94-3.92l-1.71-1.71v-6.49c-3.73 3.2-.64 7.77-.23 12.12z" fill="#2e86b7"/></svg>