<svg version="1.1" xmlns="http://www.w3.org/2000/svg" x="0" y="0" viewBox="0 0 512 512" xml:space="preserve"><circle cx="256" cy="256" r="256" fill="#79b1d1"/><path d="M339.98 89.42c2.46.41 5.34.47 7.87 1.45 1.72.66 3.2 2.44 4.24 4.07.37.58-.77 2.27-1.44 3.31-.49.74-1.04.69-2.23.46-3.1-.6-6.44.03-9.69.16-.69.03-1.39 0-2.68 0 2.13-5.09-.79-10.72 2.24-15.3l1.13.09c.18 1.69.34 3.38.56 5.76zm14.25-57.04c3.63 1.35 7.05 2.62 10.46 3.89-3.25-7.42-5.52-8.13-10.46-3.89zm2.29 67.59c-.85-1.22-1.7-2.43-2.99-4.29-.51 1.99-.78 3.06-1.12 4.37 1.35.24 2.4.44 3.46.63l.65-.71zm71.89-33.2c1.5 3.47 3.21 6.38 6.1 8.33 3.85 2.6 6.95 6.36 10.21 9.77.61.64.95 2.45.51 3.01-1.77 2.26-.35 3.72.9 5.29 3.23 4.07 6.51 8.09 9.7 12.19 2.45 3.15 7.14 5.87 11.96 6.82a256.57 256.57 0 0 0-39.38-45.41zm36.16 262.06c1.7 3.46 1.47 6.9.68 10.07-.9 3.6-2.16 7.26-4.04 10.43-3.65 6.14-7.88 11.94-11.8 17.93-.69 1.06-1.26 2.29-1.51 3.53-2.62 12.7-9.05 23.59-16.49 33.9-1.84 2.55-4.65 4.7-7.47 6.17-7.68 4-14.73 8.76-20.85 14.88-.57.58-1.25 1.24-1.44 1.98-1.68 6.69-7.3 10.25-11.72 14.72-1.33 1.34-3.46 1.86-4.93 3.1-4.55 3.83-8.81 8.01-13.47 11.69-4.35 3.43-9.62 4.04-15.18 3.95.81.36 1.63.72 2.54 1.13-.61 7.05-6.52 8.09-11.46 10-2.81 1.09-5.92 1.39-8.78 2.36-1.23.42-2.08 1.86-3.28 2.47-2.32 1.18-4.7 2.38-7.2 3.02-1.98.51-3.39-.1-4.06 3.17-.45 2.23-4.82 3.81-7.6 5.38-1.55.88-3.45 1.15-6.01 1.95 1.58.97 2.39 1.47 3.32 2.05-.24.17-.44.38-.68.48-3.32 1.4-6.71 2.65-9.92 4.26-.99.5-1.48 1.97-2.2 3 .2.4.4.8.61 1.2-1.81-.19-3.62-.46-5.44-.52-.4-.01-.82.75-1.23 1.16h-6.4c-1.12-1.57-2.24-3.15-3.6-5.07 1.16-.6 2.45-1.27 3.82-1.98-1.35-2.64 1.13-3.82 2.49-3.8 4.5.05 4.96-3.62 6.99-5.83-.3-.36-.6-.71-.91-1.07-1.62 1.34-3.24 2.68-4.86 4.03l-.62-.41c1.42-1.97 2.81-3.95 4.27-5.89.41-.55 1.52-1.16 1.43-1.42-1.91-5.21 3.66-6.13 5.35-9.24 1.53-2.81 3.9-5.16 5.87-7.74.19-.25.32-.68.25-.98-1.16-4.91 2.19-8.5 3.91-12.45 2.24-5.16 4.11-10.24 5.37-15.8.91-4.04 2.49-7.96 3.11-12.25.82-5.66-2.62-8-6.52-9.98-3.64-1.85-7.68-2.89-11.41-4.57-2.52-1.13-4.97-2.56-7.14-4.26-.97-.76-1.18-2.49-1.71-3.79-.42-1.02-.67-2.14-1.24-3.07-3.28-5.35-6.58-10.69-9.98-15.97-3.36-5.22-5.72-11.4-12.22-13.03-.11-1.6.03-2.87-.31-3.99-1.38-4.51-.88-5.94 3.3-8.61 1.1-.7 2.15-1.46 3.43-2.32-2.15-1.22-4.32-1.77-5.23-3.16-.86-1.32-.66-3.54-.43-5.3.16-1.27.84-2.78 1.79-3.6 2.75-2.38 1.66-7.84 7-8.3 1.03-.09 2.27-2.75 2.63-4.39.38-1.75.76-2.58 2.67-3.01 2.57-.58 4.03-4.59 3.6-7.22-.42-2.59-.54-5.36-.09-7.93.56-3.21-.27-5.53-2.37-7.92-1.22-1.39-1.45-3.62-2.51-5.21-.9-1.35-2.2-2.7-3.64-3.33-.99-.43-2.68.08-3.77.68-1.29.71-2.29 1.96-3.62 3.17.47.84 1 1.8 1.74 3.14-1.17.68-2.23 1.29-3.29 1.91-3.7-4.98-9.11-5.83-12.88-6.3-3.35-3.24-5.68-5.49-8.02-7.75-.08.27-.16.54-.23.8-1.32-.13-2.82.06-3.89-.52-.67-.36-.71-1.9-1.01-2.92-.46-1.55-.53-3.38-1.43-4.6-1.51-2.04-3.65-3.61-5.32-5.55-1.15-1.33-1.97-2.95-3.16-4.78-4.1 1.43-8.01-1-12.09-2.55-.77-.29-1.51-.98-2.24-.95-5.51.27-8.52-3.57-11.47-7.17-4.31-5.28-9.05-6.54-15.58-3.99-2.18.85-5.64-.93-8.29-2.05-4.3-1.81-8.86-3.47-12.48-6.27-4.73-3.66-11.03-5.09-14.59-10.34-.32-.47-.9-.76-1.35-1.14-5.01-4.27-5.25-3.6-3.6-9.66 1.06-3.9.08-7.38-1.57-10.32-2.97-5.3-6.87-10.08-10.38-15.09-.2-.28-.53-.7-.44-.9 1.64-3.66-1.08-5.8-2.73-8.41-1.7-2.71-2.99-5.68-4.55-8.48-.2-.36-.98-.39-.91-.36-.19-4.1-.04-8.09-.76-11.92-.22-1.17-2.87-1.88-5.05-3.19-.61 4.06-2.14 7.12-.38 10.81 1.88 3.94 2.82 8.32 4.6 12.32 2.05 4.63 2.45 9.45 2.72 14.37.03.61.93 1.29 1.57 1.73 2.76 1.9 2.91 5.23.74 6.45-1.76-2.55-3.37-5.13-5.23-7.52-1.42-1.83-2.61-3.34-1.57-5.97 1.16-2.91-.68-5.18-2.76-7.05-1.73-1.55-3.55-2.99-5.79-4.86 4.55-1.08 5.59-2.77 3.64-6.02-3.92-6.55-3.43-13.68-3.57-20.81-.09-4.83-3.58-7.23-7.27-9.18-.13-1.48-.34-2.9-.37-4.32-.08-3.46-.04-6.92-.13-10.38-.03-1.01-.5-2.01-.52-3.02-.11-4.47.65-8.73 3.35-12.47.48-.66 1.06-1.4 1.17-2.17.87-6.09 5.91-9.67 8.65-14.63 1.71-3.09 3.66-6.1 4.94-9.36 1.21-3.1 2.53-3.29 4.91-1.2 2.63-2.89 2.7-5.86-.69-8.81.18 1.21.51 2.42.51 3.64 0 .92-.4 1.84-.62 2.76-.76-.53-1.85-.89-2.21-1.61-.77-1.56-1.04-3.37-1.75-4.98-1.14-2.62.13-3.09 2.44-2.81 1.29-6.61 2.67-13.13 6.06-19.07-.29-.13-.58-.25-.87-.38-.7.88-1.41 1.76-2.11 2.63-.27-.19-.55-.38-.82-.57 1.5-1.84 2.87-3.83 4.56-5.49 1.59-1.56 3.46-2.64 1.03-5.08-.57-.57-.4-2.46.09-3.38 1.14-2.11.08-3.26-1.22-4.63-.81-.86-1.3-2.01-2.07-3.25-2.1.84-4.57 1.82-7.64 3.05.61-1.17.9-1.72 1.51-2.9-4.26 2.21-8.01 4.15-11.75 6.1 3.93-5.57 7.42-11.31 13.82-13.95 1.85-.76 3.94-.98 5.68-1.92 2.02-1.09 3.77-2.68 5.63-4.07.55-.41.99-1.06 1.59-1.31 5.97-2.41 12.06-4.55 17.91-7.21 4.57-2.08 7.08 1.54 10.31 3.12.5.24.31 1.88.5 3.35h14.52c-.42.28-.83.56-1.25.84 1.05.4 2.44 1.44 3.1 1.09 4.01-2.1 6.42 2.81 10.08 1.73.15.28.31.56.46.84-.95.35-1.9.7-2.87 1.05 3.47 3.41 8.67-1.14 10.83 4.18 2.92-4.1 6.22-4.47 10.54-1.61 1.59 1.06 4.42.27 6.69.29 5.27.05 10.01-1.51 14.42-5.13.34 1.17.6 2.1.9 3.13.24-.08.56-.13.82-.29 2.27-1.39 2.23-1.39 2.54 1.36.06.52.4 1.08.77 1.47 1.22 1.26 2.96 2.37 1.24 4.4-1.48 1.74-2.14 4.52-5.7 3.2-2.59-.96-4.16.9-3.95 3.48-1.02.23-2.3.13-2.86.72-2.79 2.92-5.59 5.87-7.99 9.11-1.08 1.45-2.68 3.72 1.36 4.58 1.2.25 1.77 3.44 2.64 5.3 4.39-1.09 7.9.63 11.6 3.02 2.81 1.81 6.39 2.51 9.71 3.4 1.74.46 3.66.26 6.05.39-2.1 6.86 2.13 10.35 6.33 13.66.71.56 2.9.1 3.78-.64.82-.68 1.33-2.51 1.04-3.57-.74-2.66-2.02-5.18-2.94-7.43 2.78-2 5.5-3.95 8.96-6.44-2.51-2.96-4.79-5.66-7.29-8.62 2.07-2.02.99-4.38-.35-7.05-1.41-2.81.02-4.91 3.09-4.62 3.94.37 8.11.29 11.32 3.34.41.39 1.01.82 1.52.83 4.66.05 5 3.66 5.76 6.7 4.34.39 10.96 5.3 9.74-6.22 5.4 4.91 9.62 9.31 14.42 12.93 2.97 2.24 7.11 2.89 10.22 5 3.67 2.5 8.72 2.69 11.24 7.19 1.52 2.71.11 3.53-1.81 4.5-1.01.51-2.51.82-2.91 1.65-1.88 3.8-5.36 3.8-8.73 4.05-3.18.23-6.39.17-9.56.44-2.25.19-4.91.04-5.14 3.46-.03.38-.87.66-1.26 1.06-2 2.05-3.97 4.13-5.49 6.65 3.63-3.38 7.52-6.11 12.5-6.52 1.42-.12 2.95 1.12 4.43 1.73-1.13 1.08-2.27 2.17-3.5 3.35.64.14 1.86.42 3.1.7.53 4.76 6.07 8.74 13.29 7.09.31-1.64.61-3.29 1-5.39 1.4 1.48 2.53 2.66 4.25 4.48-3.86 2.22-7.59 4.31-11.26 6.5-.62.37-.92 1.23-1.48 1.74-1 .91-2 1.92-3.19 2.46-.36.16-2.02-1.2-1.94-1.63.27-1.36 1.01-2.66 1.73-3.89.32-.54 1.04-.86 2.18-1.74-3.37-1.55-5.31.88-7.3 1.7-2.8 1.15-5.22 3.22-7.87 4.79-4.99 2.96-5.6 5.55-2 10.57-3.45 1.01-6.75 1.97-10.75 3.13 1.25.47 1.88.71 2.85 1.08-1.66.5-3.03.9-4.4 1.31-.86 5.84-1.49 6.67-5.34 6.43 3.76 3.13 1.24 5.73-.09 8.05-.48-1.21-1.08-2.71-1.69-4.21-.39.15-.78.3-1.18.46.73 2.27-.87 5.01 1.95 6.98.56.39.08 2.26.08 3.88.11.06.86.49 2.53 1.43-4.45 3.35-8.51 6.17-12.3 9.32-3.3 2.74-6.6 5.58-9.36 8.83-4.01 4.73-1.95 9.8-.1 14.84 1.73 4.69 3.16 9.5 4.45 14.33.32 1.22-.02 3.06-.8 4-.65.79-3.27 1.24-3.51.87-2.88-4.46-7.38-9.01-7.64-13.73-.3-5.46-3.59-7.38-6.22-10.75-2.87 1.99-5.5 3.4-8.27-.15-.76-.98-3.13-1.28-4.6-1.01-4.03.74-8.22-1.31-12.19.91-.83.46-2.37-.37-3.58-.61-.07.5-.15.99-.22 1.49 1.5.19 3 .37 4.58.57-3.34 4.15-4.91 3.79-9.59 1.78-3.33-1.43-7.52-.86-11.33-1.1-1.08-.07-2.18.15-2.47.18-2.21 1.69-3.83 3.82-5.85 4.3-5.77 1.39-8.68 6.83-7.91 11.39.34 2.03.94 4.06-1.7 5.51-.89.49-.86 2.78-1.1 4.28-.48 3.01-.77 6.04-1.29 9.04-.77 4.49 1.5 8.16 3.12 11.99.77 1.81 1.56 3.7 2.77 5.21 1.29 1.6 3.26 2.65 4.65 4.19 4.15 4.65 8.76 1.85 13.31 1.13 1.45-.23 3.03.31 4.73.52 2.73-3.11 5.83-6.34 5.96-11.26.02-.78.99-2.11 1.68-2.22 4.65-.72 9.34-1.25 14.03-1.59.42-.03 1.54 2.41 1.38 2.54-4.15 3.37-2.87 8.64-4.63 12.81-.08.2-.3.34-.57.62-.5-.41-1.01-.82-1.53-1.24-.12 5.02.76 10.25-4.57 14.76 5.71 0 10.27-.06 14.82.02 3.02.05 6.1-.02 9.02.59 1.48.31 2.68 2.01 4 3.08.38-.12.76-.24 1.14-.37-.48 4.64-.48 9.39-1.56 13.89-1.6 6.71-.03 11.57 5.67 15.72 5.53 4.03 7.78 4.85 13.51.99 3.8-2.56 6.94-1.1 10.04.57 2.11 1.14 3.75 3.14 5.35 4.55 1.39-1.91 2.51-4.43 4.44-5.83 2.11-1.53 2.18-3.45 2.58-5.46.58-2.85 3.01-4.28 4.57-3.66 2.23-.84 3.74-1.23 5.07-1.95 2.33-1.25 4.58-2.66 6.82-4.08.67-.43 1.09-1.38 1.79-1.6.83-.26 1.82 0 2.74.04-.24.8-.3 1.75-.78 2.36-.55.69-1.49 1.08-2.64 1.86.63 1.01 1.26 2.03 1.89 3.05 2.72-1.32 5.19-2.6 7.73-3.73 3.9-1.73 6.55-.71 8.73 2.9.4.67 1.92 1.13 2.78.97 3.52-.66 6.89-2.1 10.36.63.88.7 3.15.19 4.52-.4 3.24-1.39 6.32-3.17 8.86-4.47.99 1.88 1.29 3.11 2.07 3.75.74.6 1.96.72 3 .82 2.86.28 4.71 1.49 4.5 4.73 4.76.87 8.76 2.44 11.24 6.99 1.83 3.36 7.55 4.96 11.32 3.63 5.78-2.03 10.57-.35 15.68 2.61 3.56 2.06 4.87 4.51 5.16 8.19.08 1 .45 2.45 1.16 2.86 3.51 1.99 3.48 4.82 2.01 8.38l6.52 2.3c-.49 1.51-1.09 3.32-1.68 5.12 1.77-3.21 3.63-6.25 8.14-4.75 3.13 1.04 7.36.11 8.27 5.12 4.65-1.03 9.01-2.45 13.44-2.74 1.88-.13 4.22 1.8 5.79 3.36 2.03 2.04 3.89 3.41 7 1.27zm-193.8-207.28c3.51-.19 6.78-.21 10-.58 2.68-.31 3.09-1.61 1.81-3.45-2.42.25-4.56.41-6.67.71-2.13.3-4.3.67-5.14 3.32zm-13.8 6.42c4.16 2.92 11.35.88 16.72-4.55-6.38-.95-11.12 2.77-16.72 4.55zm-6.69-18.31c-3.58.01-6.9.83-8.67 4.14-.77 1.44-.34 3.51-.57 5.27-.22 1.73-.85 3.45-.79 5.15.06 1.53.75 3.06 1.38 4.5.06.15 2.06-.08 2.4-.62 1.02-1.59 1.82-3.36 2.37-5.17.23-.75-.74-1.82-.59-2.64.42-2.31-.31-5.45 3.53-5.78.36-.03.77-.79.96-1.28 1.5-3.83 4.1-1.68 5.58-.5.92.73.71 3.15.63 4.79-.04.82-.92 1.6-1.42 2.4.23.17.46.33.69.5.89-.71 1.78-1.43 3.13-2.5.6 1.62 1.12 3.05 2.11 5.72 1.7-3.47 3.01-6.13 4.26-8.68 1.36.48 2.44.85 4.56 1.6-.66-1.84-.8-3.05-1.44-3.87-3.48-4.41-8.42-3.63-13.15-3.43-1.66.06-3.31.4-4.97.4zm-23.64-3.22c4.55.4 8.68 1.37 12.31-1.51.15-.12.73.08.92.3 2.13 2.4 4.49 3.58 7.84 2.37 1.4-.5 3.13-.08 5.18-.08-.71-2.08.31-5.49-3.93-5.88-.53-.05-1.16-.85-1.45-1.44-1.67-3.37-4.86-2.36-6.99-1.65-3.5 1.17-6.66 3.41-9.93 5.26-1.26.72-2.43 1.61-3.95 2.63zm-22.18-25.11c.32.05.64.11.95.16.22 1.37.44 2.74.73 4.61.8-1.43 1.3-2.45 1.92-3.4.38-.58.93-1.04 1.4-1.56.42.49.84.97 1.26 1.47 1.38 1.65 2.75 3.3 4.22 5.06-.35.83-.82 1.95-1.45 3.45 3.32-1.58 3.18-7.52-.03-13.42-1.63.98-3.24 1.94-5.11 3.06V76.8c-1.51 1.75-2.7 3.14-3.89 4.53zm-22.22-42.42c.16.42.31.83.47 1.25 2.58-.27 5.17-.46 7.74-.84 3.25-.48 4.93-3.18 3.53-5.86-3.91 1.81-7.82 3.63-11.74 5.45zm17.26 8.87c-3.59-.23-6.98 3.24-10.55.06-.1-.09-.48.04-.66.16a976.47 976.47 0 0 0-6.39 4.55c7.09.89 12.02-3.13 17.6-4.77zm52.32 234.29c-2.28-2.03-3.98-3.55-6.26-5.57-.11 4.89 1.2 6.02 6.26 5.57zm66.54 1.09c-2.29 2.11-3.07 4.2-.77 6.36.48.46 2.37.35 2.74-.15 2.12-2.85-.75-4.17-1.97-6.21zm10.78 124.77c-.83-1.08-1.49-2.39-2.56-3.14-.6-.43-1.86.07-2.82.15.05.55.09 1.09.14 1.64 1.75.46 3.5.91 5.24 1.35zM405.93 55.1c3.22 3.08 6.52 6.08 9.78 9.12l1.23-1.29c-3.12-3.07-6.23-6.15-9.35-9.22 1.4.4 2.52 1.14 3.54 2.01 2.79 2.37 5.41 4.95 8.35 7.11 1.15.84 2.97.77 4.48 1.11.11-.28.21-.56.32-.84-1.44-1.26-2.9-2.5-4.37-3.72-8.37-5.21-16.74-10.43-25.11-15.64-.19.28-.38.57-.57.85 1.73 1.34 3.57 2.57 5.17 4.04 2.26 2.05 4.31 4.35 6.53 6.47zM277.1 10.5c3.29 1.99 6.2 4.6 9.47 6.64 3.74 2.33 7.48 5.45 11.58 6.18 4.77.86 8.01 3.56 11.66 5.94.61.4.7 1.62 1.03 2.46-.6.16-1.2.31-2.82.73 2.48 1.9 4.23 3.42 6.15 4.69 2.61 1.71 5.34 3.24 8.03 4.83 2.94 1.74 5.86 3.51 8.87 5.09.29.15 1.22-.89 1.85-1.38l.12-1.49c3.87 2.47 7.75 4.93 12.45 7.92-3.28-4.62-5.64-8.8-8.86-12.17-2.13-2.24-3.03-4.17-2.29-7.02.82.14 1.57.26 3.18.53-1.82-2.36-3.13-4.06-4.51-5.86 1.26-1.05 2.41-2.01 3.39-2.83-2.06-1.57-3.85-3.45-6.04-4.49-9.67-4.6-19.35-9.03-29.52-12.62-8.93-3.14-17.74-2.95-26.7-3.65-.43 4.51-.14 4.63 2.96 6.5zm25.12 222.37c-1.9-.7-3.85-1.28-5.68-2.13-5.14-2.38-10.21-4.91-15.36-7.27-1.45-.67-3.26-.64-4.6-1.44-7.43-4.44-14.75-3.32-22 .29-.88.44-1.27 1.83-2.36 3.5 4.93-1.81 8.75-3.22 12.38-4.55.51 1.55.59 2.68.97 2.79 3.77 1.09 7.55 2.35 11.41 2.86 2.4.31 4.25.41 5.14 3.08.22.66 1.68.99 2.63 1.29 1.23.39 2.52.6 4.3 1.01-1.22 1.3-1.94 2.06-3.12 3.31 5.87-.52 11.02-.98 16.17-1.44l.12-1.3zM210.97 21.21c-.16-.54-.32-1.09-.49-1.63-2.58 1.11-5.16 2.21-7.74 3.32.17.42.33.84.5 1.26 2.57-.99 5.15-1.97 7.73-2.95zm10.34 8.73c2.26.48 3.01-.51 2.16-2.7-2.13.14-4.15.28-6.18.42.21.28.42.57.62.85 1.13.49 2.22 1.19 3.4 1.43zm95.38 215.55c3.44-5.62 9.35-3.5 14.12-4.7.16-.4.32-.79.48-1.19-3.88-1.75-7.61-4.29-11.67-5.04-3.97-.73-8.27.36-12.09.62 1.55 2.04 2.99 3.94 5.12 6.75h-10.5c-.01.35-.01.69-.02 1.04 4.57 2.6 10.56-2.73 14.56 2.52zm-23.96-1.1c-2.92-.45-5.85-.89-8.77-1.34 2.29 4.57 5.51 3.03 8.77 1.34zm176.8-129.63c-.32 1.93-.99 3.36-.62 4.43 1.5 4.3 3.34 8.49 5.06 12.71 2.43 5.94 5.16 11.78 7.22 17.85 1.38 4.07 1.82 8.46 2.7 12.71.81 3.91 1.54 7.84 2.47 11.72 1.13 4.67 2.26 9.35 3.73 13.92 1.35 4.23 3.54 8.21 4.64 12.49 1.17 4.53 1.17 9.36 2.31 13.9 1.28 5.05 3.18 9.95 4.98 14.85 1.13 3.07 2.57 6.03 3.87 9.03 1.08 2.48 3.74 8.56 6.04 13.83-.72-50.76-16.23-97.94-42.4-137.44zM254.75 12.28c-1.7-.93-3.17-1.73-4.65-2.53-.13.93-.7 2.16-.31 2.72 1.19 1.69 2.82 1.82 4.96-.19zm83.11 230.23c1.98-.28 3.92-.86 5.87-1.34l-.24-1.07h-7.04c.62 1.1 1.11 2.45 1.41 2.41zM296.28 37.37c-1.01-1.47-8.44-2.08-10.71-.8 3.64 1.19 6.87 2.24 10.5 3.42.07-.67.64-1.99.21-2.62zm-1.37 13.46.52-.73c-3.39-1.98-6.78-3.96-10.16-5.93-.24.44-.48.88-.72 1.31 3.45 1.78 6.9 3.56 10.36 5.35zm2.01-4.45c-3.73-2.53-7.46-5.07-11.41-7.76-.55.42-1.29.97-2.31 1.73 4.63 2.51 8.83 4.79 13.04 7.07.22-.34.45-.69.68-1.04zm-40.89-29.75c1.43-.11 3.51-.28 6.01-.48-2.74-3.03-4.63-.39-6.01.48zm0 0c-.44.03-.82.07-1.14.09.34.29.72.18 1.14-.09zm-2.12 15.39c1.32 2.27 2.45 4.27 3.73 6.17.06.08 1.55-.8 3.41-1.78-4.12-.23-.77-6.57-7.14-4.39zm27.16 8.86c-.83-1.29-1.6-2.5-2.62-4.09-1.04 1.14-1.89 2.08-2.77 3.05 4.41 2.23 4.41 2.23 5.39 1.04z" fill="#2e86b7"/></svg>