<svg version="1.1" xmlns="http://www.w3.org/2000/svg" x="0" y="0" viewBox="0 0 512 512" xml:space="preserve"><style type="text/css">.st1{fill:#bbb}.st2{fill:#ddd}.st3{opacity:.15;fill:#444}.st4{fill:#36434f}.st5{fill:#df7148}</style><path d="M242 131h-1c-1.1 0-2-.9-2-2v-16c0-1.1.9-2 2-2h1v20zm28 0h1c1.1 0 2-.9 2-2v-16c0-1.1-.9-2-2-2h-1v20z" fill="#e9e9e9"/><path class="st1" d="M241.5 352h29v160h-29z"/><path class="st2" d="M241.5 251h29v102h-29zM268 79.5l-10.3-18.7c-.8-1.4-2.6-1.4-3.4 0L244 79.5c-1.6 2.9-2.5 6.3-2.5 9.7V159h29V89.2a20 20 0 00-2.5-9.7zM241.5 198h29v21h-29z"/><path class="st3" d="M241 310h29v43h-29z"/><path class="st4" d="M241.5 158h29v41h-29z"/><path class="st5" d="M241.5 218h29v21h-29z"/><path class="st2" d="M244 318.4l-2.5-7.1-19 112.2c-.8 4.5-1.4 9-1.9 13.5l.4 1h31v-89.6c0-10.2-4.7-20.3-8-30z"/><path class="st4" d="M220.6 437c-.6 5.2-1 10.5-1.2 15.7l-1.3 31.3.9 1h33v-48h-31.4z"/><path class="st5" d="M218.1 484l-1.1 28h35v-28z"/><path class="st2" d="M268 318.4l2.5-7.1 19 112.2c.8 4.5 1.4 9 1.9 13.5l-.4 1h-31v-89.6c0-10.2 4.7-20.3 8-30z"/><path class="st4" d="M291.4 437c.6 5.2 1 10.5 1.2 15.7l1.3 31.3-.9 1h-33v-48h31.4z"/><path class="st5" d="M293.9 484l1.1 28h-35v-28z"/><path class="st4" d="M241.5 238h29v14h-29z"/><path class="st2" d="M258 63h-4V2c0-1.1.9-2 2-2s2 .9 2 2v61z"/><path class="st2" d="M260 43h-8c-1.1 0-2-.9-2-2s.9-2 2-2h8c1.1 0 2 .9 2 2s-.9 2-2 2z"/><path fill="#d52b1e" d="M251 94h10v3h-10z"/><path fill="#0039a6" d="M251 92h10v3h-10z"/><path fill="#f4f4f4" d="M251 91h10v2h-10z"/><path class="st1" d="M260 127h-8c-1.1 0-2-.9-2-2v-9c0-1.1.9-2 2-2h8c1.1 0 2 .9 2 2v9c0 1.1-.9 2-2 2z"/><path class="st3" d="M254 2v37h-2c-1.1 0-2 .9-2 2s.9 2 2 2h2v18.4l-10 18.1c-1.6 2.9-2.5 6.3-2.5 9.7V111h-.5c-1.1 0-2 .9-2 2v16c0 1.1.9 2 2 2h.5v179h-.5v4.3l-18.5 109.2c-.8 4.5-1.4 9-1.9 13.5-.6 5.2-1 10.5-1.2 15.7l-1.3 31.3-1.1 28h39V0c-1.1 0-2 .9-2 2z"/></svg>