<svg version="1.1" xmlns="http://www.w3.org/2000/svg" x="0" y="0" viewBox="0 0 512 512" xml:space="preserve"><style type="text/css">.st0{fill:#df7148}.st1{fill:#ddd}.st2{fill:#999}.st3{fill:#eee}.st4{opacity:.15;fill:#444;enable-background:new}.st5{fill:#36434f}.st6{opacity:.3;fill:#fff;enable-background:new}.st8{fill:#f4f4f4}</style><path class="st0" d="M256 108.3c-78.1 0-141.5 19.3-141.5 43.2V419h283V151.5c0-23.8-63.4-43.2-141.5-43.2z"/><path class="st1" d="M227.2 429c25.3-64 12.9-130.3-32.7-156.6-52.1-30.1-127.7 3.4-168.9 74.8C10.1 374 1.7 402.4 0 429h227.2zm57.6 0c-25.3-64-12.9-130.3 32.7-156.6 52.1-30.1 127.7 3.4 168.9 74.8 15.5 26.9 23.9 55.2 25.6 81.8H284.8z"/><path class="st1" d="M256 114.3c-78.1 0-141.5 19.3-141.5 43.2V429h283V157.5c0-23.8-63.4-43.2-141.5-43.2z"/><path class="st2" d="M147.9 215h-12.3c-1.1 0-2-.9-2-2v-25.5c0-1.1.9-2 2-2h12.3c1.1 0 2 .9 2 2V213c0 1.1-.9 2-2 2z"/><circle class="st3" cx="141.8" cy="206.8" r="5.5"/><circle class="st4" cx="141.8" cy="206.8" r="3.9"/><circle class="st5" cx="141.8" cy="206.8" r="1.3"/><circle class="st3" cx="141.8" cy="193.8" r="5.5"/><circle class="st4" cx="141.8" cy="193.8" r="3.9"/><circle class="st5" cx="141.8" cy="193.8" r="1.3"/><path class="st4" d="M149.9 188.6h7.4V212h-7.4z"/><path class="st2" d="M364.1 215h12.3c1.1 0 2-.9 2-2v-25.5c0-1.1-.9-2-2-2h-12.3c-1.1 0-2 .9-2 2V213c0 1.1.9 2 2 2z"/><circle class="st3" cx="370.2" cy="206.8" r="5.5"/><circle class="st4" cx="370.2" cy="206.8" r="3.9"/><circle class="st5" cx="370.2" cy="206.8" r="1.3"/><circle class="st3" cx="370.2" cy="193.8" r="5.5"/><circle class="st4" cx="370.2" cy="193.8" r="3.9"/><circle class="st5" cx="370.2" cy="193.8" r="1.3"/><path class="st4" d="M354.6 188.5h7.4v23.4h-7.4z"/><path class="st3" d="M358 175c0-50.8-45.7-92-102-92s-102 41.2-102 92v35h7.6c15.3 33.4 51.8 57 94.4 57s79.1-23.6 94.4-57h7.6v-35zm-93.9 117.8h-49.2l13.6 14.6c1.1 1.2 2.7 1.9 4.4 1.9h46.4c1.7 0 3.3-.7 4.4-1.9l13.6-14.6h-33.2z"/><ellipse class="st5" cx="256" cy="199" rx="102" ry="92"/><ellipse class="st3" cx="256" cy="206" rx="102" ry="92"/><ellipse class="st5" cx="256" cy="210" rx="100" ry="90"/><path class="st3" d="M256 122c54 0 98 39.5 98 88s-44 88-98 88-98-39.5-98-88 44-88 98-88m0-4c-56.3 0-102 41.2-102 92s45.7 92 102 92 102-41.2 102-92-45.7-92-102-92z"/><circle class="st6" cx="309.2" cy="166.8" r="16.8"/><circle class="st6" cx="327.5" cy="199.2" r="9.2"/><path class="st3" d="M187.5 122.5h-13v-20.8c0-1.1.9-2 2-2h9c1.1 0 2 .9 2 2v20.8zm150 0h-13v-20.8c0-1.1.9-2 2-2h9c1.1 0 2 .9 2 2v20.8z"/><path d="M219.5 394.5h-68.2c-2.2 0-4-1.8-4-4v-41.3c0-2.2 1.8-4 4-4h68.2c2.2 0 4 1.8 4 4v41.3c0 2.2-1.8 4-4 4z" fill="#2e86b7"/><path class="st5" d="M138.7 429c2.4-14.5 3.7-29.2 3.7-44.2 0-41.2-9.3-80.9-27-116.8-1.3.5-2.6.9-3.9 1.5 17.2 34.8 26.9 74 26.9 115.3 0 15-1.3 29.8-3.8 44.2h4.1zm234.6 0c-2.4-14.5-3.7-29.2-3.7-44.2 0-41.2 9.3-80.9 27-116.8 1.3.5 2.6.9 3.9 1.5-17.2 34.8-26.9 74-26.9 115.3 0 15 1.3 29.8 3.8 44.2h-4.1z"/><path class="st0" d="M430 429l74.7-39.6c-1.3-4.5-2.9-8.9-4.6-13.4l-100 53H430zM7.3 389.4L82 429h29.9l-100-53c-1.7 4.5-3.3 9-4.6 13.4z"/><path class="st8" d="M161.4 340.3h-18.1c-1.1 0-2-.9-2-2v-19.8c0-1.1.9-2 2-2h18.1c1.1 0 2 .9 2 2v19.8c0 1.1-.9 2-2 2zm-18.1-2h18.1v-19.8h-18.1v19.8z"/><path class="st8" d="M157.4 324h-10.1c-1.1 0-2-.9-2-2v-5.4c0-1.1.9-2 2-2h10.1c1.1 0 2 .9 2 2v5.4c0 1.1-.9 2-2 2zm-14.1 7.6h18.1v1.9h-18.1z"/><path class="st8" d="M148.2 324h8.3v14.3h-8.3zm33.2 16.3h-18.1c-1.1 0-2-.9-2-2v-19.8c0-1.1.9-2 2-2h18.1c1.1 0 2 .9 2 2v19.8c0 1.1-.9 2-2 2zm-18.1-2h18.1v-19.8h-18.1v19.8z"/><path class="st8" d="M177.4 324h-10.1c-1.1 0-2-.9-2-2v-5.4c0-1.1.9-2 2-2h10.1c1.1 0 2 .9 2 2v5.4c0 1.1-.9 2-2 2zm-14.1 7.6h18.1v1.9h-18.1z"/><path class="st8" d="M168.2 324h8.3v14.3h-8.3zm33.2 16.3h-18.1c-1.1 0-2-.9-2-2v-19.8c0-1.1.9-2 2-2h18.1c1.1 0 2 .9 2 2v19.8c0 1.1-.9 2-2 2zm-18.1-2h18.1v-19.8h-18.1v19.8z"/><path class="st8" d="M197.4 324h-10.1c-1.1 0-2-.9-2-2v-5.4c0-1.1.9-2 2-2h10.1c1.1 0 2 .9 2 2v5.4c0 1.1-.9 2-2 2zm-14.1 7.6h18.1v1.9h-18.1z"/><path class="st8" d="M188.2 324h8.3v14.3h-8.3zm33.2 16.3h-18.1c-1.1 0-2-.9-2-2v-19.8c0-1.1.9-2 2-2h18.1c1.1 0 2 .9 2 2v19.8c0 1.1-.9 2-2 2zm-18.1-2h18.1v-19.8h-18.1v19.8z"/><path class="st8" d="M217.4 324h-10.1c-1.1 0-2-.9-2-2v-5.4c0-1.1.9-2 2-2h10.1c1.1 0 2 .9 2 2v5.4c0 1.1-.9 2-2 2zm-14.1 7.6h18.1v1.9h-18.1z"/><path class="st8" d="M208.2 324h8.3v14.3h-8.3zm33.2 16.3h-18.1c-1.1 0-2-.9-2-2v-19.8c0-1.1.9-2 2-2h18.1c1.1 0 2 .9 2 2v19.8c0 1.1-.9 2-2 2zm-18.1-2h18.1v-19.8h-18.1v19.8z"/><path class="st8" d="M237.4 324h-10.1c-1.1 0-2-.9-2-2v-5.4c0-1.1.9-2 2-2h10.1c1.1 0 2 .9 2 2v5.4c0 1.1-.9 2-2 2zm-14.1 7.6h18.1v1.9h-18.1z"/><path class="st8" d="M228.2 324h8.3v14.3h-8.3zm33.2 16.3h-18.1c-1.1 0-2-.9-2-2v-19.8c0-1.1.9-2 2-2h18.1c1.1 0 2 .9 2 2v19.8c0 1.1-.9 2-2 2zm-18.1-2h18.1v-19.8h-18.1v19.8z"/><path class="st8" d="M257.4 324h-10.1c-1.1 0-2-.9-2-2v-5.4c0-1.1.9-2 2-2h10.1c1.1 0 2 .9 2 2v5.4c0 1.1-.9 2-2 2zm-14.1 7.6h18.1v1.9h-18.1z"/><path class="st8" d="M248.2 324h8.3v14.3h-8.3z"/><circle class="st8" cx="202.3" cy="413" r="15.7"/><path class="st1" d="M202.3 422.3c-5.1 0-9.3-4.2-9.3-9.3s4.2-9.3 9.3-9.3 9.3 4.2 9.3 9.3-4.2 9.3-9.3 9.3zm0-16.6c-4 0-7.3 3.3-7.3 7.3s3.3 7.3 7.3 7.3 7.3-3.3 7.3-7.3-3.3-7.3-7.3-7.3z"/><path class="st5" d="M277.2 367.8c-3.7 6.1-1.7 14.1 4.4 17.8l50.3 30.4c.8.5 1.9.2 2.4-.6l3.7-6.2 25.5 15.4c.8.5 1.9.2 2.4-.6l2.3-3.8c.5-.8.2-1.9-.6-2.4l-25.5-15.4 3.7-6.2c.5-.8.2-1.9-.6-2.4l-50.3-30.4c-6.1-3.6-14-1.7-17.7 4.4zm33.5 29l-13.5-8.2c-.4-.2-.5-.8-.3-1.2l.9-1.5c.2-.4.8-.5 1.2-.3l13.5 8.2c.4.2.5.8.3 1.2l-.9 1.5c-.3.4-.8.5-1.2.3zm25.5-1.5c.8.5 1.1 1.6.6 2.4l-5.4 9c-.5.8-1.6 1.1-2.4.6l-8.8-5.3c-3.2-1.9-4.5-6-2.8-9.4 1.9-3.6 6.4-4.9 9.9-2.8l8.9 5.5zm-23.8-4.7l-12-7.3c-.4-.2-.5-.8-.3-1.2l.9-1.5c.2-.4.8-.5 1.2-.3l12 7.3c.4.2.5.8.3 1.2l-.9 1.5c-.3.4-.8.6-1.2.3zm6.4-7.3c.4.2.5.8.3 1.2l-.9 1.5c-.2.4-.8.5-1.2.3l-13.5-8.2c-.4-.2-.5-.8-.3-1.2l.9-1.5c.2-.4.8-.5 1.2-.3l13.5 8.2zm-21-3c-3.2 5.3-10.1 7-15.4 3.8s-7-10.1-3.8-15.4 10.1-7 15.4-3.8 7 10.1 3.8 15.4zm28.8 10.6c2.7 1.7 3.6 5.2 2 8a5.94 5.94 0 0 1-8 2c-2.7-1.7-3.6-5.2-2-8s5.2-3.7 8-2z"/><path class="st8" d="M275.3 428c0 .5-.5 1-1 1h-8c-.6 0-1-.5-1-1v-15.2c0-.6.4-1 1-1h8c.5 0 1 .4 1 1V428zm0-31.2c0 .5-.5 1-1 1h-8c-.6 0-1-.5-1-1v-15.2c0-.5.4-1 1-1h8c.5 0 1 .5 1 1v15.2zm0-31.1c0 .6-.5 1-1 1h-8c-.6 0-1-.4-1-1v-15.2c0-.5.4-1 1-1h8c.5 0 1 .5 1 1v15.2zm69.2-17.2h-39.3c-2.2 0-4-1.8-4-4v-14c0-2.2 1.8-4 4-4h39.3c2.2 0 4 1.8 4 4v14c0 2.2-1.8 4-4 4z"/><path class="st2" d="M307.2 329.9h22.1v6.1h-22.1zm25 0h10.4v6.1h-10.4zm-12.5 9h10.4v6.1h-10.4z"/></svg>