<svg version="1.1" xmlns="http://www.w3.org/2000/svg" x="0" y="0" viewBox="0 0 512 512" xml:space="preserve"><style type="text/css">.st0{fill:#dbdddf}.st1{fill:#bbb}.st2{fill:#122a3a}.st3{fill:#a5a5a5}</style><path class="st0" d="M470.9 432.5c-6.3-34.8-27.9-109-27.9-109s-43.7-159.6-76.4-220.7S298.1 0 256 0s-78 41.7-110.6 102.8S69 323.5 69 323.5s-21.6 74.3-27.9 109c-3 16.5-6.5 31.3-7 43.4 0 .1 32.4 4.3 34.8 4.4 15 .5 30 1 45 1.4 17.8.5 35.7.8 53.5 1 19.9.3 39.7.4 59.6.4h61.6c20 0 40-.1 60-.4 17.9-.2 35.8-.6 53.8-1.1 15-.4 30-.9 44.9-1.4 10.5-.4 20.1-3.8 30.6-4.3-.5-12.1-4-26.9-7-43.4z"/><path class="st1" d="M477.9 475.9c-11.3.5-22.6.9-33.9 1.4-15 .5-30 1-45.1 1.4-17.9.5-35.7.8-53.6 1-19.9.3-39.8.4-59.7.3h-61.3c-19.7 0-39.4-.1-59.2-.4-17.7-.2-35.4-.6-53.1-1-14.9-.4-29.8-.8-44.6-1.4-11.1-.4-22.3-.8-33.4-1.3 0 0-.1 2.5-.1 2.7 0 9.6 2.1 19.4 11.2 24.4.1 0 .1.1.2.1 6.1 3.4 13.2 4.2 20.2 4.8 41.3 3.8 82.7 3.3 124.1 4 22.1.4 44.2-.1 66.3-.2 22.1.2 44.2.6 66.3.2 41.4-.7 82.8-.1 124.1-4 6.9-.6 14.1-1.5 20.2-4.8.1 0 .1-.1.2-.1 9.1-5.1 11.2-14.8 11.2-24.4.1-.1 0-2.7 0-2.7z"/><ellipse class="st2" cx="280.2" cy="133.8" rx="8.6" ry="12.1"/><ellipse class="st2" cx="231.8" cy="133.8" rx="8.6" ry="12.1"/><circle class="st2" cx="256.4" cy="132.8" r="2.6"/><path class="st2" d="M362.2 94.7c-.6-1-1.1-2-1.7-3-26.9 2.9-67.5 7.9-112.2 15.9-50.5 9-93.6 21.1-118.3 28.7-.5 1.2-1 2.5-1.5 3.8 24.1-7.5 68.3-20.1 120.4-29.4 45.3-8.2 86.5-13.2 113.3-16z"/><ellipse transform="rotate(-15.225 407.144 258.108)" class="st1" cx="407.2" cy="258.2" rx="7.9" ry="30"/><path class="st1" d="M158 311.5h-4.2s-19 0-22.1 1.1c-3.2 1.1-10.5 5.3-13.7 8.4-3.2 3.2-9.5 12.6-11.6 19S80.5 465.3 80.5 465.3c-.2 1.1.5 2.1 1.7 2.2 0 0 40 2 70.6 3.1s81.1 2.1 81.1 2.1c1.2 0 1.9-.9 1.6-2 0 0-35.3-130.7-37.4-137-2.1-6.3-11.6-15.8-17.9-19-6.4-3.2-22.2-3.2-22.2-3.2z"/><circle class="st0" cx="96.4" cy="463.9" r="2.1"/><circle class="st0" cx="85.4" cy="463.5" r="2.1"/><circle class="st0" cx="107.5" cy="464.4" r="2.1"/><circle class="st0" cx="118.5" cy="464.8" r="2.1"/><circle class="st0" cx="129.6" cy="465.3" r="2.1"/><circle class="st0" cx="140.6" cy="465.7" r="2.1"/><circle class="st0" cx="151.7" cy="466.1" r="2.1"/><circle class="st0" cx="162.8" cy="466.6" r="2.1"/><circle class="st0" cx="173.8" cy="467" r="2.1"/><circle class="st0" cx="184.9" cy="467.5" r="2.1"/><circle class="st0" cx="195.9" cy="467.9" r="2.1"/><circle class="st0" cx="207" cy="468.3" r="2.1"/><circle class="st0" cx="218" cy="468.8" r="2.1"/><circle class="st0" cx="229.1" cy="469.2" r="2.1"/><path class="st3" d="M93.8 433.7s20-84.3 21.1-87.4c1.1-3.2 5.3-10.5 7.4-12.6 2.1-2.1 8.4-6.3 12.6-6.3h39c5.3 0 12.6 5.3 14.7 9.5 2.1 4.2 15.8 44.2 15.8 44.2l-13.9-30.3s-1.9-3.4-3-4.4c-1.1-1.1-3-1.1-7.4-1.1h-34.7c-2.1 0-6.3 3.2-8.4 6.3-2.2 3.1-43.2 82.1-43.2 82.1z"/><path class="st3" d="M182.1 348.4h-35.5c-4.2 0-7.5 5.2-7.5 11.6s3.4 11.6 7.5 11.6h35.5c4.2 0 7.5-5.2 7.5-11.6s-3.3-11.6-7.5-11.6z"/><path class="st1" d="M354 311.5h4.2s19 0 22.1 1.1c3.2 1.1 10.5 5.3 13.7 8.4s9.5 12.6 11.6 19 25.9 125.4 25.9 125.4c.2 1.1-.5 2.1-1.7 2.2 0 0-40 2-70.6 3.1s-81.1 2.1-81.1 2.1c-1.2 0-1.9-.9-1.6-2 0 0 35.3-130.7 37.4-137 2.1-6.3 11.6-15.8 17.9-19s22.2-3.3 22.2-3.3z"/><circle class="st0" cx="415.6" cy="463.9" r="2.1"/><circle class="st0" cx="426.6" cy="463.5" r="2.1"/><circle class="st0" cx="404.5" cy="464.4" r="2.1"/><circle class="st0" cx="393.5" cy="464.8" r="2.1"/><circle class="st0" cx="382.4" cy="465.3" r="2.1"/><circle class="st0" cx="371.4" cy="465.7" r="2.1"/><circle class="st0" cx="360.3" cy="466.1" r="2.1"/><circle class="st0" cx="349.2" cy="466.6" r="2.1"/><circle class="st0" cx="338.2" cy="467" r="2.1"/><circle class="st0" cx="327.1" cy="467.5" r="2.1"/><circle class="st0" cx="316.1" cy="467.9" r="2.1"/><circle class="st0" cx="305" cy="468.3" r="2.1"/><circle class="st0" cx="294" cy="468.8" r="2.1"/><circle class="st0" cx="282.9" cy="469.2" r="2.1"/><path class="st3" d="M418.2 433.7s-20-84.3-21.1-87.4c-1.1-3.2-5.3-10.5-7.4-12.6-2.1-2.1-8.4-6.3-12.6-6.3h-39c-5.3 0-12.6 5.3-14.7 9.5-2.1 4.2-15.8 44.2-15.8 44.2l13.9-30.3s1.9-3.4 3-4.4c1.1-1.1 3-1.1 7.4-1.1h34.7c2.1 0 6.3 3.2 8.4 6.3s43.2 82.1 43.2 82.1z"/><path class="st3" d="M329.9 348.4h35.5c4.2 0 7.5 5.2 7.5 11.6s-3.4 11.6-7.5 11.6h-35.5c-4.2 0-7.5-5.2-7.5-11.6s3.3-11.6 7.5-11.6z"/><path d="M216 134l-12 198 28 106zm-44 1l-59 165-14 52 6-56zm124-1l12 198-28 106zm44 1l59 165 14 52-6-56z" opacity=".5" fill="#efefef"/></svg>