<svg version="1.1" xmlns="http://www.w3.org/2000/svg" x="0" y="0" viewBox="0 0 512 512" xml:space="preserve"><style type="text/css">.st0{fill:#999}.st1{fill:#ddd}.st2{fill:#bbb}.st4{fill:#35965f}.st5{opacity:.5;fill:#f4f4f4}</style><path class="st0" d="M245.4 496.2c-.3-1.2-.4-2.5-.4-3.8V485h-4v7.4c0 1.3-.1 2.6-.4 3.8l-.6 2.8h6l-.6-2.8zm26 0c-.3-1.2-.4-2.5-.4-3.8V485h-4v7.4c0 1.3-.1 2.6-.4 3.8l-.6 2.8h6l-.6-2.8zM502 453c-.5 0-.9-.2-1.3-.5l-134-115c-.8-.7-.9-2-.2-2.8.7-.8 2-.9 2.8-.2l134 115c.8.7.9 2 .2 2.8-.4.5-.9.7-1.5.7zm8-122H358c-1.1 0-2-.9-2-2s.9-2 2-2h152c1.1 0 2 .9 2 2s-.9 2-2 2zm-155-5c-.5 0-1.1-.2-1.5-.6-.7-.8-.7-2.1.1-2.8l137-126c.8-.7 2.1-.7 2.8.1.7.8.7 2.1-.1 2.8l-137 126c-.3.3-.8.5-1.3.5zM256 85c-1.1 0-2-.9-2-2V2c0-1.1.9-2 2-2s2 .9 2 2v81c0 1.1-.9 2-2 2z"/><path class="st1" d="M205.5 417.2V401c0-1.1-.9-2-2-2s-2 .9-2 2v16.2c-4 .9-7 4.5-7 8.8v71c0 5 4 9 9 9h1c4.4 0 8-3.6 8-8v-72c0-4.3-3-7.9-7-8.8zm3 80.8c0 2.2-1.8 4-4 4h-1c-2.8 0-5-2.2-5-5v-71c0-2.8 2.2-5 5-5s5 2.2 5 5v72zm91-72v72c0 4.4 3.6 8 8 8h1c5 0 9-4 9-9v-71c0-4.3-3-7.9-7-8.8V401c0-1.1-.9-2-2-2s-2 .9-2 2v16.2c-4 .9-7 4.5-7 8.8zm4 0c0-2.8 2.2-5 5-5s5 2.2 5 5v71c0 2.8-2.2 5-5 5h-1c-2.2 0-4-1.8-4-4v-72z"/><path class="st0" d="M205 122c-1.1 0-2-.9-2-2V31c0-2.2-1.8-4-4-4s-4 1.8-4 4v50c0 1.1-.9 2-2 2s-2-.9-2-2V31c0-4.4 3.6-8 8-8s8 3.6 8 8v89c0 1.1-.9 2-2 2zm102 0c1.1 0 2-.9 2-2V31c0-2.2 1.8-4 4-4s4 1.8 4 4v50c0 1.1.9 2 2 2s2-.9 2-2V31c0-4.4-3.6-8-8-8s-8 3.6-8 8v89c0 1.1.9 2 2 2zm-65-60h8v19h-8z"/><path class="st0" d="M251.5 65h-11c-1.1 0-2-.9-2-2v-3c0-1.1.9-2 2-2h11c1.1 0 2 .9 2 2v3c0 1.1-.9 2-2 2z"/><path class="st0" d="M266.5 63h-41c-.6 0-1-.4-1-1v-1c0-.6.4-1 1-1h41c.6 0 1 .4 1 1v1c0 .6-.4 1-1 1z"/><path class="st2" d="M154 356h-8c0-1.1-.9-2-2-2h-4c-1.1 0-2 .9-2 2v2h-7c-1.1 0-2 .9-2 2v4c0 1.1.9 2 2 2h13c1.1 0 2-.9 2-2h8v-8zm214 20h-8v-19h8c1.1 0 2 .9 2 2v15c0 1.1-.9 2-2 2zm-3-43v-7c0-1.1-.9-2-2-2h-1c0-1.1-.9-2-2-2h-16v26h24c1.1 0 2-.9 2-2v-11c0-1.1-.9-2-2-2h-3zM185 192h-39c-1.1 0-2-.9-2-2v-24c0-1.1.9-2 2-2h39v28zm88-114h-34l-4 17h42z"/><path class="st1" d="M180.9 276h150.2c20.9-19.9 33.9-47.9 33.9-79 0-60.2-48.8-109-109-109s-109 48.8-109 109c0 31.1 13 59.1 33.9 79z"/><path class="st0" d="M263 486h-14v6c0 1.1.9 2 2 2h10c1.1 0 2-.9 2-2v-6z"/><path class="st1" d="m345 314-89 .3-89-.3-1 1 1 6v1h178v-1l1-6z"/><path class="st2" d="M256 457h-26v9l9.9 18.9c.7 1.3 2.1 2.1 3.5 2.1h25.2c1.5 0 2.9-.8 3.5-2.1L282 466v-9h-26z"/><path class="st0" d="M334 278H178l-12 37h180z"/><path class="st2" d="M334.5 278h-157c-1.1 0-2-.9-2-2v-4c0-1.1.9-2 2-2h157c1.1 0 2 .9 2 2v4c0 1.1-.9 2-2 2z"/><path class="st1" d="M256 382H147v2l77 75h64l77-75v-2z"/><path d="M345 321H167l-23.3 53.3c-.5 1.1-.4 2.3.1 3.4l3.2 6.3h218l3.2-6.3c.5-1.1.6-2.3.1-3.4L345 321z" fill="#67987c"/><circle class="st4" cx="158.5" cy="296.5" r="16.5"/><path class="st5" d="M145.5 296c10.1 0 19.8 2.1 28.6 5.9.2-.6.4-1.3.6-1.9-9-3.8-18.8-5.9-29.1-5.9-1.1 0-2.2 0-3.3.1-.1.7-.2 1.3-.2 2 1.1-.2 2.2-.2 3.4-.2z"/><circle class="st4" cx="166.5" cy="296.5" r="16.5"/><path class="st5" d="M154.1 295.2c0 .6-.1 1.2-.1 1.8 0 5 1.5 9.7 4.1 13.7 1.2.7 2.4 1.3 3.8 1.7-3.6-4.1-5.9-9.4-5.9-15.3 0-.6 0-1.3.1-1.9 1.1-.1 2.3-.1 3.4-.1 8.2 0 16 1.4 23.3 3.9.1-.7.2-1.4.2-2-7.4-2.5-15.3-3.8-23.5-3.8-1.1 0-2.1 0-3.2.1.9-5 3.3-9.4 6.9-12.7-1.4.3-2.7.7-3.9 1.4-2.6 3.3-4.3 7.2-5 11.5-1.4.1-2.7.2-4 .4-.1.7-.2 1.4-.2 2 1.3-.4 2.6-.6 4-.7z"/><circle class="st4" cx="184.5" cy="296.5" r="16.5"/><path class="st5" d="M171.5 294h1.5v1.5c0 6 1.9 11.6 5.1 16.2 1 .4 2.1.8 3.3 1-4-4.6-6.4-10.6-6.4-17.2v-1.4c9.1.4 17.7 2.6 25.6 6 .1-.7.3-1.4.3-2-7.9-3.4-16.6-5.5-25.7-6 .5-4.1 2-8 4.3-11.3-1.1.4-2.2.8-3.2 1.4-1.6 3-2.7 6.3-3.1 9.9h-1.7c-1 0-1.9 0-2.9.1-.2.7-.3 1.3-.4 2 1.1-.2 2.2-.2 3.3-.2z"/><circle class="st4" cx="209.5" cy="296.5" r="16.5"/><path class="st5" d="M193 295.6c3.1-.4 6.2-.6 9.5-.6h.5v1.5c0 5.8 1.3 11.3 3.6 16.2.8.1 1.5.2 2.3.2-2.5-5-3.9-10.5-3.9-16.5V295c7.2.3 14.2 1.6 20.8 3.8.1-.7.2-1.4.2-2-6.6-2.2-13.6-3.5-20.8-3.8.4-4.7 1.8-9.1 3.8-13-.8 0-1.6.1-2.3.2-1.8 3.9-3 8.2-3.4 12.7h-.7c-3.1 0-6.2.2-9.2.6-.2.8-.3 1.4-.4 2.1z"/><circle class="st4" cx="239.5" cy="296.5" r="16.5"/><path class="st5" d="M223 296.5v.7c4.6-.7 9.3-1.1 14-1.2.1 5.8.7 11.4 1.6 16.9h.8c.4 0 .8 0 1.2-.1-1-5.5-1.5-11.2-1.7-16.9h.5c5.6 0 11.1.4 16.5 1.2v-.7c0-.4 0-.9-.1-1.3-5.4-.8-10.9-1.2-16.4-1.2h-.5v-.5c0-4.6.3-9.1.8-13.5h-.3c-.6 0-1.1 0-1.7.1-.5 4.4-.8 8.9-.8 13.4v.5c-4.7.1-9.4.5-13.9 1.2v1.4z"/><circle class="st4" cx="353.5" cy="296.5" r="16.5"/><path class="st5" d="M366.5 296c-10.1 0-19.8 2.1-28.6 5.9-.2-.6-.4-1.3-.6-1.9 9-3.8 18.8-5.9 29.1-5.9 1.1 0 2.2 0 3.3.1.1.7.2 1.3.2 2-1.1-.2-2.2-.2-3.4-.2z"/><circle class="st4" cx="345.5" cy="296.5" r="16.5"/><path class="st5" d="M357.9 295.2c0 .6.1 1.2.1 1.8 0 5-1.5 9.7-4.1 13.7-1.2.7-2.4 1.3-3.8 1.7 3.6-4.1 5.9-9.4 5.9-15.3 0-.6 0-1.3-.1-1.9-1.1-.1-2.3-.1-3.4-.1-8.2 0-16 1.4-23.3 3.9-.1-.7-.2-1.4-.2-2 7.4-2.5 15.3-3.8 23.5-3.8 1.1 0 2.1 0 3.2.1-.9-5-3.3-9.4-6.9-12.7 1.4.3 2.7.7 3.9 1.4 2.6 3.3 4.3 7.2 5 11.5 1.4.1 2.7.2 4 .4.1.7.2 1.4.2 2-1.3-.4-2.6-.6-4-.7z"/><circle class="st4" cx="327.5" cy="296.5" r="16.5"/><path class="st5" d="M340.5 294H339v1.5c0 6-1.9 11.6-5.1 16.2-1 .4-2.1.8-3.3 1 4-4.6 6.4-10.6 6.4-17.2v-1.4c-9.1.4-17.7 2.6-25.6 6-.1-.7-.3-1.4-.3-2 7.9-3.4 16.6-5.5 25.7-6-.5-4.1-2-8-4.3-11.3 1.1.4 2.2.8 3.2 1.4 1.6 3 2.7 6.3 3.1 9.9h1.7c1 0 1.9 0 2.9.1.2.7.3 1.3.4 2-1.1-.2-2.2-.2-3.3-.2z"/><circle class="st4" cx="302.5" cy="296.5" r="16.5"/><path class="st5" d="M319 295.6c-3.1-.4-6.2-.6-9.5-.6h-.5v1.5c0 5.8-1.3 11.3-3.6 16.2-.8.1-1.5.2-2.3.2 2.5-5 3.9-10.5 3.9-16.5V295c-7.2.3-14.2 1.6-20.8 3.8-.1-.7-.2-1.4-.2-2 6.6-2.2 13.6-3.5 20.8-3.8-.4-4.7-1.8-9.1-3.8-13 .8 0 1.6.1 2.3.2 1.8 3.9 3 8.2 3.4 12.7h.7c3.1 0 6.2.2 9.2.6.2.8.3 1.4.4 2.1z"/><circle class="st4" cx="272.5" cy="296.5" r="16.5"/><path class="st5" d="M289 296.5v.7c-4.6-.7-9.3-1.1-14-1.2-.1 5.8-.7 11.4-1.6 16.9h-.8c-.4 0-.8 0-1.2-.1 1-5.5 1.5-11.2 1.7-16.9h-.5c-5.6 0-11.1.4-16.5 1.2v-.7c0-.4 0-.9.1-1.3 5.4-.8 10.9-1.2 16.4-1.2h.5v-.5c0-4.6-.3-9.1-.8-13.5h.3c.6 0 1.1 0 1.7.1.5 4.4.8 8.9.8 13.4v.5c4.7.1 9.4.5 13.9 1.2v1.4z"/><path class="st0" d="M198.5 423.2V407c0-1.1-.9-2-2-2s-2 .9-2 2v16.2c-4 .9-7 4.5-7 8.8v71c0 5 4 9 9 9h1c4.4 0 8-3.6 8-8v-72c0-4.3-3-7.9-7-8.8zm3 80.8c0 2.2-1.8 4-4 4h-1c-2.8 0-5-2.2-5-5v-71c0-2.8 2.2-5 5-5s5 2.2 5 5v72zm105-72v72c0 4.4 3.6 8 8 8h1c5 0 9-4 9-9v-71c0-4.3-3-7.9-7-8.8V407c0-1.1-.9-2-2-2s-2 .9-2 2v16.2c-4 .9-7 4.5-7 8.8zm4 0c0-2.8 2.2-5 5-5s5 2.2 5 5v71c0 2.8-2.2 5-5 5h-1c-2.2 0-4-1.8-4-4v-72z"/><path d="M205.2 506c4.1-.4 7.3-3.8 7.3-8v-50.2L224 459h6v7l9.9 18.9c.3.5.7 1 1.1 1.3v6.2c0 1.3-.1 2.6-.4 3.8l-.6 2.8h6l-.6-2.8c-.3-1.2-.4-2.5-.4-3.8V487h4v5c0 1.1.9 2 2 2h5V0c-1.1 0-2 .9-2 2v58h-.5c0-1.1-.9-2-2-2h-11c-1.1 0-2 .9-2 2h-13c-.6 0-1 .4-1 1v1c0 .6.4 1 1 1h13c0 1.1.9 2 2 2h1.5v13h-3l-2.8 11.8c-10.3 1.9-20.1 5.2-29.2 9.8V31c0-4.4-3.6-8-8-8s-8 3.6-8 8v50c0 1.1.9 2 2 2s2-.9 2-2V31c0-2.2 1.8-4 4-4s4 1.8 4 4v70.7c-24 13.4-42.5 35.6-50.9 62.3H146c-1.1 0-2 .9-2 2v24c0 1.1.9 2 2 2h1.1c-.1 1.7-.1 3.3-.1 5 0 28.5 10.9 54.4 28.9 73.9-.2.3-.4.7-.4 1.1v4c0 1.1.9 2 2 2h.5l-1.3 4c-.1.1-.3.2-.4.2-.3.2-.5.3-.8.5-2.6-1.7-5.7-2.7-9-2.7-1.1 0-2.2.1-3.3.3h-.2c-.2 0-.4.1-.6.1-1.3-.3-2.6-.5-4-.5-8.3 0-15.1 6.1-16.3 14.1-.1.8-.2 1.6-.2 2.4 0 9.1 7.4 16.5 16.5 16.5 1.4 0 2.7-.2 4-.5 1.3.3 2.6.5 4 .5h.2l-.7 2 1 6-15.3 35H146c0-1.1-.9-2-2-2h-4c-1.1 0-2 .9-2 2v2h-7c-1.1 0-2 .9-2 2v4c0 1.1.9 2 2 2h13c1.1 0 2-.9 2-2h2.2l-4.5 10.3c-.5 1.1-.4 2.3.1 3.4l3.2 6.3 43 41.8c-1.5 1.6-2.5 3.8-2.5 6.2v71c0 5 4 9 9 9h1c3.7.1 6.9-2.5 7.7-5.9zM250 65h1.5c1.1 0 2-.9 2-2h.5v15h-4V65zm-44.5 376 3 2.9V498c0 1.9-1.3 3.4-3 3.9V441zm-8 67h-1c-2.8 0-5-2.2-5-5v-71c0-1.3.5-2.5 1.3-3.4l1.7 1.6V497c0 4.1 2.8 7.6 6.6 8.7-.6 1.3-2 2.3-3.6 2.3zm4-6.4c-1.8-.8-3-2.5-3-4.6v-62.8l3 2.9v64.5z" opacity=".15" fill="#444"/></svg>