<svg xmlns="http://www.w3.org/2000/svg" viewBox="0 0 512 512" xml:space="preserve"><style>.st1{fill:#ddd}.st2{fill:#36434f}.st3{fill:#df7148}.st4{fill:#bbb}</style><path d="M228 140h-4c-1.1 0-2-.9-2-2v-34c0-1.1.9-2 2-2h4v38zm56 0h4c1.1 0 2-.9 2-2v-34c0-1.1-.9-2-2-2h-4v38z" fill="#e9e9e9"/><path class="st1" d="M227 251h58v102h-58zm53.1-171.5-20.7-18.7c-1.6-1.4-5.2-1.4-6.8 0l-20.7 18.7c-3.2 2.9-4.9 6.3-4.9 9.7V159h58V89.2c0-3.5-1.7-6.8-4.9-9.7zM227 198h58v21h-58z"/><path class="st2" d="M227 158h58v41h-58z"/><path class="st3" d="M227 218h58v21h-58z"/><path class="st4" d="M227 311h58v201h-58z"/><path opacity=".15" fill="#444" d="M227 259h58v52h-58z"/><path class="st1" d="m231.9 269.5-4.9-8.9-38.1 140.5c-1.5 5.6-2.8 11.3-3.8 16.9l.8 1.3h62V307.1c.1-12.8-9.3-25.5-16-37.6z"/><path class="st2" d="M185.2 418.1c-1.1 6.5-1.9 13.1-2.4 19.7l-2.5 39.2 1.7 1.3h66v-60.2h-62.8z"/><path class="st3" d="M180.3 476.9 178 512h70v-35.1z"/><path class="st1" d="m280.1 269.5 4.9-8.9 38.1 140.5c1.5 5.6 2.8 11.3 3.8 16.9l-.8 1.3h-62V307.1c-.1-12.8 9.3-25.5 16-37.6z"/><path class="st2" d="M326.8 418.1c1.1 6.5 1.9 13.1 2.4 19.7l2.5 39.2-1.7 1.3h-66v-60.2h62.8z"/><path class="st3" d="M331.7 476.9 334 512h-70v-35.1z"/><path class="st2" d="M227 238h58v21h-58z"/><path class="st1" d="M260 63h-8V2c0-1.1.9-2 2-2h4c1.1 0 2 .9 2 2v61z"/><path class="st4" d="M266 132.4h-20c-1.1 0-2-.9-2-2v-20.7c0-1.1.9-2 2-2h20c1.1 0 2 .9 2 2v20.7c0 1.1-.9 2-2 2z"/></svg>