<svg xmlns="http://www.w3.org/2000/svg" viewBox="0 0 512 512" xml:space="preserve"><style>.st0{fill:#36434f}</style><path class="st0" d="M251.8 156.9c-.6-2.1-2.8-3.3-5-2.7l-178 52c-2.1.6-3.3 2.8-2.7 5 .5 1.7 2.1 2.9 3.8 2.9.4 0 .7-.1 1.1-.2l178-52c2.2-.7 3.5-2.9 2.8-5zM396 486.5 52.2 293.8l-7.3-6.9c-.6-.6-1.3-1-2.1-1.2-2.1-.6-7-2.2-12.9-4.8-7.8-3.6-16-9.8-16-9.8l5.1 14.6c1.2 3.4 3.9 6.1 7.3 7.3l20.7 7 345 193.5c.6.3 1.3.5 2 .5 1.4 0 2.8-.7 3.5-2 1.1-2 .4-4.4-1.5-5.5z"/><circle cx="48" cy="244" r="48" fill="#bbb"/><path d="M70.3 278.8H70c-.5-.1-.8-.7-.7-1.2 2.7-9.7 4.1-19.9 4.1-30.1 0-7-.7-14-2-20.9-.1-.5.3-1.1.8-1.2.5-.1 1.1.3 1.2.8 1.3 7 2 14.2 2 21.3 0 10.4-1.4 20.7-4.2 30.6-.1.5-.5.7-.9.7zm-8.2 1.6h-.3c-.5-.2-.8-.7-.6-1.3 3.2-10.2 4.9-20.8 4.9-31.6 0-6.5-.6-13.1-1.8-19.5-.1-.5.3-1.1.8-1.2.5-.1 1.1.3 1.2.8 1.2 6.5 1.9 13.2 1.9 19.9 0 11-1.7 21.8-5 32.2-.3.4-.7.7-1.1.7z" fill="#122a3a"/><path class="st0" d="M403.6 20.3c-.9-2-3.3-2.8-5.3-1.9l-352 167c-.3.2-.6.3-.9.6l-6.4 6-17 18s8-4 12-5 9-1 9-1l9.9-12.9L401.7 25.6c2-.9 2.9-3.3 1.9-5.3zM508.4 292 57.3 251.4c0-.1-.1-.1-.1-.2-.8-.9-1.9-1.5-3.1-1.6l-22.6-2c-3-.3-5.7 1.8-6.1 4.7-.2 1.5.2 3 1.1 4.2.9 1.2 2.3 1.9 3.8 2l22.8 2.1h.4c1.2 0 2.2-.5 3-1.2L507.7 300h.4c2 0 3.8-1.6 3.9-3.6.2-2.2-1.4-4.2-3.6-4.4z"/></svg>