<svg version="1.1" xmlns="http://www.w3.org/2000/svg" x="0" y="0" viewBox="0 0 512 512" xml:space="preserve"><style type="text/css">.st1{fill:#ddd}.st2{fill:#999}.st3{fill:#eee}.st4{opacity:.15;fill:#444;enable-background:new}.st5{fill:#36434f}.st6{opacity:.3;fill:#fff;enable-background:new}.st8{fill:#f4f4f4}</style><path d="M256 62.7C153.7 62.7 70.8 88 70.8 119.2v282.5c28.8 25.3 62.8 44.8 100.3 56.7H341c37.4-11.9 71.5-31.4 100.3-56.7V119.1c-.1-31.2-83-56.4-185.3-56.4z" fill="#df7148"/><path class="st1" d="M175.5 277.5c-51.8-30-121.4-11.8-175.5 39.7C39.2 404 121.3 467.3 219.3 480.1c31.8-83.1 15.3-168.5-43.8-202.6zM512 317.2c-54.1-51.5-123.7-69.6-175.5-39.7-59.1 34.1-75.6 119.6-43.8 202.6 98-12.8 180.1-76.1 219.3-162.9z"/><path class="st1" d="M441.2 127.1c0-31.2-82.9-56.5-185.2-56.5S70.8 95.9 70.8 127.1v285.6c49.4 43.4 114.2 69.8 185.2 69.8s135.8-26.3 185.2-69.8V127.1z"/><path class="st2" d="M115.2 202.3H97.9c-1.1 0-2-.9-2-2v-34.6c0-1.1.9-2 2-2h17.3c1.1 0 2 .9 2 2v34.6c0 1-.9 2-2 2z"/><circle class="st3" cx="106.5" cy="191.4" r="7.2"/><circle class="st4" cx="106.5" cy="191.4" r="5.1"/><circle class="st5" cx="106.5" cy="191.4" r="1.6"/><circle class="st3" cx="106.5" cy="174.4" r="7.2"/><circle class="st4" cx="106.5" cy="174.4" r="5.1"/><circle class="st5" cx="106.5" cy="174.4" r="1.6"/><path class="st4" d="M117.2 167.6h9.7v30.6h-9.7z"/><path class="st2" d="M396.8 202.3h17.3c1.1 0 2-.9 2-2v-34.6c0-1.1-.9-2-2-2h-17.3c-1.1 0-2 .9-2 2v34.6c0 1 .9 2 2 2z"/><circle class="st3" cx="405.5" cy="191.4" r="7.2"/><circle class="st4" cx="405.5" cy="191.4" r="5.1"/><circle class="st5" cx="405.5" cy="191.4" r="1.6"/><circle class="st3" cx="405.5" cy="174.4" r="7.2"/><circle class="st4" cx="405.5" cy="174.4" r="5.1"/><circle class="st5" cx="405.5" cy="174.4" r="1.6"/><path class="st4" d="M385.1 167.7h9.7v30.6h-9.7z"/><path class="st3" d="M389.5 149.9c0-66.5-59.8-120.4-133.5-120.4S122.5 83.4 122.5 149.9v45.8h10c20 43.8 67.7 74.6 123.5 74.6s103.5-30.8 123.5-74.6h10v-45.8zM266.6 304.2h-64.4l17.7 19.1c1.5 1.6 3.6 2.5 5.8 2.5h60.6c2.2 0 4.3-.9 5.8-2.5l17.7-19.1h-43.2z"/><ellipse class="st5" cx="256" cy="181.3" rx="133.5" ry="120.4"/><ellipse class="st3" cx="256" cy="190.6" rx="133.5" ry="120.4"/><ellipse class="st5" cx="256" cy="195.8" rx="133.5" ry="120.4"/><circle class="st6" cx="325.6" cy="139.3" r="22"/><circle class="st6" cx="349.6" cy="181.6" r="12"/><path class="st3" d="M166.3 81.3h-17V53.4c0-1.1.9-2 2-2h13c1.1 0 2 .9 2 2v27.9zm196.4 0h-17V53.4c0-1.1.9-2 2-2h13c1.1 0 2 .9 2 2v27.9z"/><path d="M209.5 437.3h-91.7c-2.2 0-4-1.8-4-4v-56.6c0-2.2 1.8-4 4-4h91.7c2.2 0 4 1.8 4 4v56.6c0 2.2-1.8 4-4 4z" fill="#2e86b7"/><path class="st5" d="M66.7 273.7c22.5 45.5 35.2 96.8 35.2 151 0 3.9-.1 7.8-.2 11.6l5.1 3.3c.2-5 .3-9.9.3-14.9 0-53.9-12.2-105.9-35.4-152.9-1.6.6-3.3 1.2-5 1.9zm373.5-1.9c-23.1 47-35.4 99-35.4 152.9 0 5 .1 10 .3 14.9l5.1-3.3c-.1-3.9-.2-7.7-.2-11.6 0-54.2 12.7-105.4 35.2-151-1.6-.7-3.3-1.3-5-1.9z"/><path class="st8" d="M132.1 366.3h-23.6c-1.4 0-2.6-1.2-2.6-2.6v-25.9c0-1.4 1.2-2.6 2.6-2.6h23.6c1.4 0 2.6 1.2 2.6 2.6v25.9c.1 1.4-1.1 2.6-2.6 2.6zm-23.6-2.6h23.6v-25.9h-23.6v25.9z"/><path class="st8" d="M127.6 345h-14.5c-1.1 0-2-.9-2-2v-8.3c0-1.1.9-2 2-2h14.5c1.1 0 2 .9 2 2v8.3c0 1.1-.9 2-2 2zm-19.1 10h23.6v2.5h-23.6z"/><path class="st8" d="M114.9 345h10.8v18.7h-10.8zm43.4 21.3h-23.6c-1.4 0-2.6-1.2-2.6-2.6v-25.9c0-1.4 1.2-2.6 2.6-2.6h23.6c1.4 0 2.6 1.2 2.6 2.6v25.9c0 1.4-1.1 2.6-2.6 2.6zm-23.6-2.6h23.6v-25.9h-23.6v25.9z"/><path class="st8" d="M153.7 345h-14.5c-1.1 0-2-.9-2-2v-8.3c0-1.1.9-2 2-2h14.5c1.1 0 2 .9 2 2v8.3c0 1.1-.9 2-2 2zm-19 10h23.6v2.5h-23.6z"/><path class="st8" d="M141.1 345h10.8v18.7h-10.8zm43.4 21.3h-23.6c-1.4 0-2.6-1.2-2.6-2.6v-25.9c0-1.4 1.2-2.6 2.6-2.6h23.6c1.4 0 2.6 1.2 2.6 2.6v25.9c0 1.4-1.2 2.6-2.6 2.6zm-23.6-2.6h23.6v-25.9h-23.6v25.9z"/><path class="st8" d="M179.9 345h-14.5c-1.1 0-2-.9-2-2v-8.3c0-1.1.9-2 2-2h14.5c1.1 0 2 .9 2 2v8.3c0 1.1-.9 2-2 2zm-19 10h23.6v2.5h-23.6z"/><path class="st8" d="M167.3 345h10.8v18.7h-10.8zm43.4 21.3H187c-1.4 0-2.6-1.2-2.6-2.6v-25.9c0-1.4 1.2-2.6 2.6-2.6h23.6c1.4 0 2.6 1.2 2.6 2.6v25.9c.1 1.4-1.1 2.6-2.5 2.6zm-23.7-2.6h23.6v-25.9H187v25.9z"/><path class="st8" d="M206.1 345h-14.5c-1.1 0-2-.9-2-2v-8.3c0-1.1.9-2 2-2h14.5c1.1 0 2 .9 2 2v8.3c0 1.1-.9 2-2 2zM187 355h23.6v2.5H187z"/><path class="st8" d="M193.5 345h10.8v18.7h-10.8zm43.4 21.3h-23.6c-1.4 0-2.6-1.2-2.6-2.6v-25.9c0-1.4 1.2-2.6 2.6-2.6h23.6c1.4 0 2.6 1.2 2.6 2.6v25.9c0 1.4-1.2 2.6-2.6 2.6zm-23.7-2.6h23.6v-25.9h-23.6v25.9z"/><path class="st8" d="M232.3 345h-14.5c-1.1 0-2-.9-2-2v-8.3c0-1.1.9-2 2-2h14.5c1.1 0 2 .9 2 2v8.3c0 1.1-.9 2-2 2zm-19.1 10h23.6v2.5h-23.6z"/><path class="st8" d="M219.6 345h10.8v18.7h-10.8zm43.4 21.3h-23.6c-1.4 0-2.6-1.2-2.6-2.6v-25.9c0-1.4 1.2-2.6 2.6-2.6H263c1.4 0 2.6 1.2 2.6 2.6v25.9c.1 1.4-1.1 2.6-2.6 2.6zm-23.6-2.6H263v-25.9h-23.6v25.9z"/><path class="st8" d="M258.5 345H244c-1.1 0-2-.9-2-2v-8.3c0-1.1.9-2 2-2h14.5c1.1 0 2 .9 2 2v8.3c0 1.1-.9 2-2 2zm-19.1 10H263v2.5h-23.6z"/><path class="st8" d="M245.8 345h10.8v18.7h-10.8zm-60 96c-11.3 0-20.5 9.2-20.5 20.5 0 2.2.4 4.3 1 6.3 4.4 1.5 8.8 2.9 13.3 4.1-3.5-2.1-5.9-6-5.9-10.4 0-6.7 5.4-12.1 12.1-12.1 6.7 0 12.1 5.4 12.1 12.1 0 6.6-5.4 12-12 12.1 4.5 1.1 9 2.2 13.5 3.1 4.2-3.8 6.8-9.2 6.8-15.2.1-11.3-9.1-20.5-20.4-20.5z"/><path class="st8" d="M185.8 452c-5.2 0-9.5 4.3-9.5 9.5s4.3 9.5 9.5 9.5 9.5-4.3 9.5-9.5-4.3-9.5-9.5-9.5z"/><path class="st5" d="M372.8 436.4L307 396.7c-8-4.8-18.4-2.3-23.3 5.7-4.8 8-2.3 18.4 5.7 23.3l64.8 39.1 5.4-2.1 3.7-6.2 4.5 2.7c3.8-1.7 7.6-3.4 11.3-5.2l-10.5-6.3 4.9-8.1c.8-1.1.4-2.5-.7-3.2zm-55-22.1l1.2-2c.3-.5 1-.7 1.6-.4l17.7 10.7c.5.3.7 1 .4 1.6l-1.2 2c-.3.5-1 .7-1.6.4l-17.7-10.7c-.5-.4-.7-1.1-.4-1.6zm-27.1 9.4c-6.9-4.2-9.1-13.2-5-20.1s13.2-9.1 20.1-5 9.1 13.2 5 20.1c-4.2 6.9-13.2 9.2-20.1 5zm39.6 14.2l-1.2 2c-.3.5-1 .7-1.6.4l-17.7-10.7c-.5-.3-.7-1-.4-1.6l1.2-2c.3-.5 1-.7 1.6-.4l17.7 10.7c.6.4.8 1.1.4 1.6zm2.2-8l-1.2 2c-.3.5-1 .7-1.6.4l-15.7-9.5c-.5-.3-.7-1-.4-1.6l1.2-2c.3-.5 1-.7 1.6-.4l15.7 9.5c.6.3.8 1 .4 1.6zm29.2 11.6l-7.1 11.8c-.7 1.1-2.1 1.4-3.2.8l-11.5-7c-4.2-2.5-5.9-7.9-3.7-12.2 2.5-4.8 8.4-6.4 12.9-3.6l11.8 7.1c1.1.6 1.5 2 .8 3.1z"/><circle class="st5" cx="344.4" cy="439" r="7.6"/><path class="st8" d="M280 460h-10.5c-.7 0-1.3.6-1.3 1.3v19.9c0 .4.2.8.5 1 4.2-.2 8.4-.5 12.5-.8v-20.1c.1-.7-.5-1.3-1.2-1.3zm1.3-19.7c0 .7-.6 1.3-1.3 1.3h-10.5c-.7 0-1.3-.6-1.3-1.3v-19.9c0-.7.6-1.3 1.3-1.3H280c.7 0 1.3.6 1.3 1.3v19.9zm0-40.7c0 .7-.6 1.3-1.3 1.3h-10.5c-.7 0-1.3-.6-1.3-1.3v-19.9c0-.7.6-1.3 1.3-1.3H280c.7 0 1.3.6 1.3 1.3v19.9zm91.8-22.5h-53.8c-2.2 0-4-1.8-4-4v-20.8c0-2.2 1.8-4 4-4h53.8c2.2 0 4 1.8 4 4v20.8c0 2.2-1.8 4-4 4z"/><path class="st2" d="M323 352.8h28.9v8H323zm32.7 0h13.6v8h-13.6zm-16.3 11.8H353v8h-13.6z"/><path class="st4" d="M166.3 60.7v-7.4c0-1.1-.9-2-2-2h-13c-1.1 0-2 .9-2 2V73c-47.5 10.2-78.5 27.1-78.5 46.2v153c-1.2.4-2.3.9-3.5 1.3-.2.1-.4.1-.6.2-23.3 9.1-46.1 23.9-66.7 43.5 21.7 48.1 56.7 89 100.1 118.1 3.4 2.3 6.9 4.5 10.4 6.6h.1l5.1 3c.1.1.2.1.3.2 3.4 2 6.9 3.9 10.4 5.7.3.1.6.3.8.4 1.6.8 3.2 1.7 4.9 2.5.1.1.2.1.3.2 1.7.8 3.5 1.7 5.2 2.5.3.2.7.3 1 .5 1.4.6 2.8 1.3 4.2 1.9.4.2.9.4 1.3.6 1.7.7 3.4 1.5 5.1 2.2.3.1.6.2.8.3 1.4.6 2.9 1.1 4.3 1.7.6.2 1.2.5 1.8.7 1.2.5 2.5.9 3.8 1.4.5.2 1 .4 1.6.6 1.5.6 3.1 1.1 4.6 1.6.2.1.4.1.6.2l1.8.6c1 .3 2 .7 3 1 .5.2 1 .3 1.5.5.3.1.7.2 1 .3l3.9 1.2c.5.1.9.3 1.4.4h.1c.5.1 1 .3 1.5.4 1 .3 2 .6 3.1.8.6.2 1.2.3 1.8.5.4.1.9.2 1.3.3.8.2 1.6.4 2.3.6.8.2 1.6.4 2.5.6s1.9.4 2.8.6c.7.1 1.3.3 2 .4.6.1 1.1.2 1.7.4.3.1.6.1.9.2.1 0 .2 0 .3.1.8.2 1.6.3 2.4.5l3 .6c.8.1 1.6.3 2.4.4 1.8.3 3.6.6 5.3.9.7.1 1.5.2 2.2.3 1.1.2 2.2.3 3.3.5.2 0 .5.1.7.1 12 1.6 24.3 2.4 36.7 2.4V29.5c-34.1 0-65.6 11.9-89.3 31.2z"/></svg>