<svg version="1.1" xmlns="http://www.w3.org/2000/svg" x="0" y="0" viewBox="0 0 512 512" xml:space="preserve"><style type="text/css">.st1{fill:#f4f4f4}.st3{fill:#7a7a7a}.st4{fill:#9abecc}.st5{fill:#82a0ab}</style><path fill="#31556d" d="M0 0h512v512H0z"/><path class="st1" d="M449.4 414.9c-5.7-31.3-25.1-98.1-25.1-98.1S385 173.1 355.5 118.1c-29.4-55-61.6-92.5-99.5-92.5s-70.2 37.5-99.5 92.5-68.8 198.7-68.8 198.7-19.4 66.9-25.1 98.1c-2.7 14.9-5.8 28.2-6.3 39.1 0 .1 29.2 3.9 31.3 4 13.5.4 27 .9 40.5 1.3 16 .5 32.1.7 48.1.9 17.9.3 35.7.4 53.6.4h55.4c18 0 36-.1 54-.4 16.1-.2 32.2-.5 48.4-1 13.5-.4 27-.8 40.4-1.3 9.5-.4 18.1-3.4 27.5-3.9-.2-11-3.4-24.3-6.1-39.1z"/><path d="M455.7 453.9c-10.2.5-20.3.8-30.5 1.3-13.5.5-27 .9-40.6 1.3-16.1.5-32.1.7-48.2.9-17.9.3-35.8.4-53.7.3h-55.2c-17.7 0-35.5-.1-53.3-.4-15.9-.2-31.9-.5-47.8-.9-13.4-.4-26.8-.7-40.1-1.3-10-.4-20.1-.7-30.1-1.2 0 0-.1 2.3-.1 2.4 0 8.6 1.9 17.5 10.1 22 .1 0 .1.1.2.1 5.5 3.1 11.9 3.8 18.2 4.3 37.2 3.4 74.4 3 111.7 3.6 19.9.4 39.8-.1 59.7-.2 19.9.2 39.8.5 59.7.2 37.3-.6 74.5-.1 111.7-3.6 6.2-.5 12.7-1.4 18.2-4.3.1 0 .1-.1.2-.1 8.2-4.6 10.1-13.3 10.1-22-.1 0-.2-2.4-.2-2.4z" fill="#5e838b"/><ellipse class="st3" cx="277.8" cy="146" rx="7.7" ry="10.9"/><ellipse class="st3" cx="234.2" cy="146" rx="7.7" ry="10.9"/><ellipse transform="rotate(-80.781 256.403 145.096)" class="st3" cx="256.4" cy="145.1" rx="2.3" ry="2.3"/><path class="st3" d="M351.6 110.8l-1.5-2.7c-24.2 2.6-60.7 7.1-101 14.3-45.4 8.1-84.2 19-106.5 25.8-.4 1.1-.9 2.3-1.4 3.4 21.7-6.8 61.5-18.1 108.4-26.5 40.8-7.2 77.9-11.7 102-14.3z"/><ellipse transform="rotate(-15.225 392.134 257.965)" class="st3" cx="392.1" cy="258" rx="7.1" ry="27"/><path class="st4" d="M167.8 306H164s-17.1 0-19.9 1c-2.9 1-9.4 4.8-12.3 7.6-2.9 2.9-8.5 11.3-10.4 17.1-1.9 5.7-23.4 112.7-23.4 112.7-.2 1 .4 1.9 1.5 2 0 0 36 1.8 63.5 2.8s73 1.9 73 1.9c1.1 0 1.7-.8 1.4-1.8 0 0-31.8-117.6-33.7-123.3-1.9-5.7-10.4-14.2-16.1-17.1-5.6-2.9-19.8-2.9-19.8-2.9z"/><circle class="st1" cx="112.4" cy="443.1" r="1.9"/><circle class="st1" cx="102.5" cy="442.8" r="1.9"/><circle class="st1" cx="122.3" cy="443.6" r="1.9"/><circle class="st1" cx="132.2" cy="443.9" r="1.9"/><circle class="st1" cx="142.2" cy="444.4" r="1.9"/><circle class="st1" cx="152.1" cy="444.7" r="1.9"/><circle class="st1" cx="162.1" cy="445.1" r="1.9"/><circle class="st1" cx="172.1" cy="445.5" r="1.9"/><circle class="st1" cx="182" cy="445.9" r="1.9"/><circle class="st1" cx="192" cy="446.4" r="1.9"/><circle class="st1" cx="201.9" cy="446.7" r="1.9"/><circle class="st1" cx="211.9" cy="447.1" r="1.9"/><circle class="st1" cx="221.8" cy="447.5" r="1.9"/><circle class="st1" cx="231.8" cy="447.9" r="1.9"/><path class="st5" d="M110 415.9s18-75.9 19-78.7c1-2.9 4.8-9.5 6.7-11.3 1.9-1.9 7.6-5.7 11.3-5.7h35.1c4.8 0 11.3 4.8 13.2 8.6 1.9 3.8 14.2 39.8 14.2 39.8L197 341.3s-1.7-3.1-2.7-4c-1-1-2.7-1-6.7-1h-31.2c-1.9 0-5.7 2.9-7.6 5.7-1.9 2.8-38.8 73.9-38.8 73.9z"/><path class="st5" d="M189.5 339.2h-31.9c-3.8 0-6.8 4.7-6.8 10.4 0 5.8 3.1 10.4 6.8 10.4h31.9c3.8 0 6.7-4.7 6.7-10.4 0-5.8-2.9-10.4-6.7-10.4z"/><path class="st4" d="M344.2 306h3.8s17.1 0 19.9 1c2.9 1 9.4 4.8 12.3 7.6s8.5 11.3 10.4 17.1c1.9 5.8 23.3 112.9 23.3 112.9.2 1-.4 1.9-1.5 2 0 0-36 1.8-63.5 2.8s-73 1.9-73 1.9c-1.1 0-1.7-.8-1.4-1.8 0 0 31.8-117.6 33.7-123.3 1.9-5.7 10.4-14.2 16.1-17.1s19.9-3.1 19.9-3.1z"/><circle class="st1" cx="399.6" cy="443.1" r="1.9"/><circle class="st1" cx="409.5" cy="442.8" r="1.9"/><circle class="st1" cx="389.6" cy="443.6" r="1.9"/><circle class="st1" cx="379.7" cy="443.9" r="1.9"/><circle class="st1" cx="369.8" cy="444.4" r="1.9"/><circle class="st1" cx="359.9" cy="444.7" r="1.9"/><circle class="st1" cx="349.9" cy="445.1" r="1.9"/><circle class="st1" cx="339.9" cy="445.5" r="1.9"/><circle class="st1" cx="330" cy="445.9" r="1.9"/><circle class="st1" cx="320" cy="446.4" r="1.9"/><circle class="st1" cx="310.1" cy="446.7" r="1.9"/><circle class="st1" cx="300.1" cy="447.1" r="1.9"/><circle class="st1" cx="290.2" cy="447.5" r="1.9"/><circle class="st1" cx="280.2" cy="447.9" r="1.9"/><path class="st5" d="M402 415.9s-18-75.9-19-78.7c-1-2.9-4.8-9.5-6.7-11.3-1.9-1.9-7.6-5.7-11.3-5.7h-35.1c-4.8 0-11.3 4.8-13.2 8.6-1.9 3.8-14.2 39.8-14.2 39.8l12.5-27.3s1.7-3.1 2.7-4c1-1 2.7-1 6.7-1h31.2c1.9 0 5.7 2.9 7.6 5.7 1.8 2.8 38.8 73.9 38.8 73.9z"/><path class="st5" d="M322.5 339.2h31.9c3.8 0 6.8 4.7 6.8 10.4 0 5.8-3.1 10.4-6.8 10.4h-31.9c-3.8 0-6.7-4.7-6.7-10.4 0-5.8 2.9-10.4 6.7-10.4z"/><path d="M220 146.2l-10.8 178.2 25.2 95.4zm-39.6.9l-53.1 148.5-12.6 46.8 5.4-50.4zm111.6-.9l10.8 178.2-25.2 95.4zm39.6.9l53.1 148.5 12.6 46.8-5.4-50.4z" opacity=".15" fill="#9abecc"/><path d="M156.5 118.1c-29.4 55-68.8 198.6-68.8 198.6s-19.4 66.9-25.1 98.1c-2.7 14.9-5.8 28.2-6.3 39.1 0 0-.1 2.3-.1 2.4 0 8.6 1.9 17.5 10.1 22 .1 0 .1.1.2.1 5.5 3.1 11.9 3.8 18.2 4.3 37.2 3.4 74.4 3 111.7 3.6h38.2c7.1-.1 14.3-.2 21.4-.2V25.6c-37.9 0-70.2 37.5-99.5 92.5z" opacity=".15" fill="#444"/></svg>