<svg version="1.1" xmlns="http://www.w3.org/2000/svg" x="0" y="0" viewBox="0 0 512 512" xml:space="preserve"><style type="text/css">.st0{fill:#122a3a}.st1{fill:#555f6f}.st2{fill:#bbb}.st3{fill:#dbdddf}</style><path class="st0" d="M273.9 472.6h-35.2l-6.8 23.9h48.7z"/><path class="st1" d="M276.3 480.9l-2.4-8.3h-35.2l-2.4 8.3z"/><path class="st2" d="M301.5 317.5l-20.3-18.2.7-.8 20.3 18.2z"/><path class="st0" d="M254.2 0c-21.2 0-38.3 5.1-38.3 11.4 0 0 6.2 25.9 13.5 44.6s14.5 30 14.5 30h20.7s7.3-11.4 14.5-30.1 13.5-44.6 13.5-44.6c0-6.2-17.2-11.3-38.4-11.3z"/><path class="st0" d="M311.6 89.1c-.6-.6-1.1-2-1.1-3.1v-3.1c0-1.1-.7-2.7-1.5-3.5l-.3-.3c-.8-.8-2.5-1.3-3.6-1.1l-3.9.5c-1.1.1-2.9.7-3.9 1.2L293 82c-1 .5-2.8 1-3.9 1h-65.6c-1.1 0-2.9-.4-3.9-1l-4.3-2.2c-1-.5-2.8-1.1-3.9-1.2l-3.9-.5c-1.1-.1-2.7.4-3.6 1.1l-.3.3c-.8.8-1.5 2.3-1.5 3.5v3c0 1.1-.5 2.5-1.1 3.1s-1.1 2-1.1 3.1v4.1h112.9v-4.1c0-1.1-.5-2.5-1.2-3.1z"/><path class="st3" d="M195.1 97.8h122.3v144.7H195.1z"/><ellipse class="st3" cx="256.3" cy="97.8" rx="61.1" ry="13.8"/><path class="st0" d="M256.3 229.1c-33.8 0-61.1 6-61.1 13.5l42.5 68.4h37.4l42.5-68.4c-.2-7.5-27.5-13.5-61.3-13.5z"/><path class="st2" d="M283.244 412.93l5.91-1.039 16.585 94.354-5.91 1.038z"/><path class="st3" d="M187.9 469.5l-16.6-39.4 4-8.1 27.1 39.2z"/><path class="st2" d="M133.026 507.17l38.054-87.481 5.502 2.393-38.054 87.482z"/><path class="st2" d="M145.5 504.7h-28.1v2.7c0 1 .7 2.3 1.5 2.9l.7.5c.8.6 2.3 1.1 3.3 1.1h19c1 0 2.5-.5 3.3-1.1l.7-.5c.8-.6 1.5-1.9 1.5-2.9v-2.7h-1.9zm171 0h-28.1v2.7c0 1 .7 2.3 1.5 2.9l.7.5c.8.6 2.3 1.1 3.3 1.1h19c1 0 2.5-.5 3.3-1.1l.7-.5c.8-.6 1.5-1.9 1.5-2.9v-2.7h-1.9zm-94.3 0h-28v2.7c0 1 .7 2.3 1.5 2.9l.7.5c.8.6 2.3 1.1 3.3 1.1h19c1 0 2.5-.5 3.3-1.1l.7-.5c.8-.6 1.5-1.9 1.5-2.9v-2.7h-2zm186.6 0h-28.1v2.7c0 1 .7 2.3 1.5 2.9l.7.5c.8.6 2.3 1.1 3.3 1.1h19c1 0 2.5-.5 3.3-1.1l.7-.5c.8-.6 1.5-1.9 1.5-2.9v-2.7h-1.9z"/><path class="st3" d="M195.1 472.6l-45 10.2 4.9-11.2 37-8.3zm155.5-48.7l-22.8 48.7-16.6-13.5 34.2-42.5z"/><path class="st3" d="M374.4 470.5l-20.7-3.1-21.7-15.5-4.2 20.7 49.8 5.2z"/><path class="st2" d="M344.054 416.822l5.675-2.96 47.595 91.231-5.674 2.96z"/><path class="st3" d="M184.8 408.4h143v64.3h-143z"/><path class="st2" d="M206.578 506.301l17.542-99.87 5.91 1.037-17.542 99.871z"/><path class="st2" d="M269.1 472.7l-40.9-60.5-5 3.4 38.7 57.1zm-55.3-66.4l-29 2.1-13.5 11.4 4.7 3.5 8.8.6L210 411z"/><path class="st2" d="M177.5 409.4h9.4L192 371h-5.1z"/><path class="st2" d="M307.1 346.2v-20.8l-10.8-4.8-.6-8.6 4.1-2.1 1.1-3.1-4.2-5.2-6.2 3.1-1 5.2-12.6 1.9-2-.9h-39.3l-8.9-8.8 3.7-4.6-1.1-7.3-11.4 3.1-1 2.1 5.2 5.2 4 11.9-5.1 3.5-19.6 1.1-2.6 6.1-2.6-1.9 2.1-1-5.2-4.2-7.3 5.2 4.2 4.1 3.1-2 3.6 4.5v.1l-1.6 3.7 2.1 6.2 5.2 2.1h5.2v1l-4.2 3.1-2 8.3v1.6l-8.3-3.7-3.1 3.1h-5.2v11.4h5.2l11.4 7v5.5l-3.1 8.3 10.3 25.9h108.8l20.8-19.7V371z"/><path class="st2" d="M324.7 417.7l12.4 1 13.8-2.6-1.3-4.6-13.5-4.2-14.5-3.1-8.3 4.2z"/><path class="st1" d="M227.3 369h24.9v14.5h-24.9z"/><circle class="st3" cx="232.5" cy="343.1" r="5.2"/><circle class="st1" cx="232.5" cy="343.1" r="3.1"/><circle class="st3" cx="195.1" cy="171" r="5.2"/><path class="st2" d="M327.8 363.8v-6.2h-9.2l8.2 7.2z"/><path class="st2" d="M322.6 351.4l2.1 7.2h1l2.1-7.2z"/><path class="st0" d="M205.5 181.9l-7.3-1s-1 1-1 2.1 1 2.1 1 2.1l7.3-1v-2.2z"/><path class="st1" d="M210.7 172.8l-5.2 3.1v14l5.2 3.1 6.2-2v-16.1z"/><path class="st0" d="M207.6 176.2l-1-7.3s1-1 2.1-1 2.1 1 2.1 1l-1 7.3h-2.2zm0 13.5l-1 7.3s1 1 2.1 1 2.1-1 2.1-1l-1-7.3h-2.2zm2.1-12v10.4l7.2 2.6v-15.5zm101.5 4.2l7.3-1s1 1 1 2.1-1 2.1-1 2.1l-7.3-1v-2.2z"/><path class="st1" d="M306 172.8l5.2 3.1v14L306 193l-6.2-2v-16.1z"/><path class="st0" d="M309.1 176.2l1-7.3s-1-1-2.1-1-2.1 1-2.1 1l1 7.3h2.2zm0 13.5l1 7.3s-1 1-2.1 1-2.1-1-2.1-1l1-7.3h2.2zm-2-12v10.4l-7.3 2.6v-15.5z"/><path class="st2" d="M229.3 96.4c-20.3 2.4-34.2 7.6-34.2 13.5V142c0-5.9 13.9-11 34.2-13.5V96.4zm57 .4v32.1c18.6 2.6 31.1 7.5 31.1 13.1v-32.1c0-5.7-12.5-10.5-31.1-13.1zm-57 113.9c-20.3 2.2-34.2 6.8-34.2 12.1v15.5c0-5.3 13.9-9.9 34.2-12.1v-15.5zm57 .4v15.5c18.6 2.3 31.1 6.7 31.1 11.7v-15.5c0-5-12.5-9.4-31.1-11.7z"/><ellipse class="st3" cx="283.8" cy="270" rx="2.6" ry="3.6"/><path class="st3" d="M251.1 370c.4 0 .7 0 1 .1v-.1c0-2.9-2.3-5.2-5.2-5.2h-14.5c-2.5 0-4.6 1.8-5.1 4.2h.4c2.6 0 4.7 2.1 4.7 4.7s-2.1 4.7-4.7 4.7c-.2 0-.3 0-.5-.1v5.2c0 2.9 2.3 5.2 5.2 5.2H247c2.9 0 5.2-2.3 5.2-5.2v-1.1c-.3.1-.7.1-1 .1-3.4 0-6.2-2.8-6.2-6.2-.1-3.5 2.7-6.3 6.1-6.3z"/><path class="st2" d="M184.8 346.2l2.3 7.2h.9l2-7.2zm0 25.9l2.3-7.3h.9l2 7.3zm-4.2-15.6h5.2v5.2h-5.2z"/><path fill="none" d="M190.8 371.3l9.5 17.3"/><path class="st2" d="M190.307 371.584l.964-.53 9.52 17.362-.964.529zM320.6 357l-27 2.6 18.7 15.6 23-6.5zm-33.2-13.9v3.1l-5.2 3.1v3.1l3.1 4.1 7.3-3.1v-34.5l-10.3-4.7-5.3 18.5 3.1 5.2zm-9.3 101.5h19.7v13.5h-19.7z"/><path d="M222.6 510.4c.8-.6 1.5-1.9 1.5-2.9v-2.7H213l5.6-32.1h20.1l-2.3 8.3-4.4 15.5h24V0h-1.8c-21.2 0-38.3 5.1-38.3 11.4 0 0 6.2 25.9 13.5 44.6 5 12.9 10.1 22.4 12.7 26.9h-18.5c-1.1 0-2.9-.4-3.9-1l-4.3-2.2c-1-.5-2.8-1.1-3.9-1.2l-3.9-.5c-1.1-.1-2.7.4-3.6 1.1l-.3.3c-.8.8-1.5 2.3-1.5 3.5V86c0 1.1-.5 2.5-1.1 3.1s-1.1 2-1.1 3.1v.2c-3 1.6-4.7 3.4-4.7 5.3v68.1c-2.9 0-5.2 2.3-5.2 5.2s2.3 5.2 5.2 5.2v66.2l30.3 48.7-7.5 2-1 2.1 5.2 5.2 4 11.9-5.3 3.7-19.6 1.1-2.6 6.1-2.6-1.9 2.1-1-5.2-4.1-7.3 5.2 4.1 4.1 3.1-2.1 3.7 4.6-1.6 3.7 2.1 6.2 5.2 2.1h5.2v1l-4.1 3.1-2.1 8.3v1.6l-8.3-3.7-3.1 3.1h-2l2-7.3h-5.2l2.3 7.3h-2.3v3.1h-4.1v5.2h4.1v3.1h2.3l-2.3 7.3h1.8l-9.1 37.3h6l-12.2 10.4.1.1-.3-.2-37 85.1h-16.6v2.7c0 1 .7 2.3 1.5 2.9l.7.5c.8.6 2.3 1.1 3.3 1.1h19c1 0 2.5-.5 3.3-1.1l.7-.5c.8-.6 1.5-1.9 1.5-2.9v-2.7h-6.7l31.6-72.6 12.6 30v2.8l-29.8 6.7-4.9 11.3 45-10.2h17.4l-5.6 32.1h-12.8v2.7c0 1 .7 2.3 1.5 2.9l.7.5c.8.6 2.3 1.1 3.3 1.1h19c1 0 2.5-.5 3.3-1.1l.5-.6zm7.2-212.2l7.9 12.7h-2.1l-8.9-8.9 3.1-3.8zm-45 137.5l-8.6-12.4 8.6.6v11.8zm5.2-70.9l11.4 7v5.4l-2.7 7.2-6.8-12.3.1-1.1h-2.4l-1.7-6.2h2.1zm-3 43.4l4.6-34.2 7.4 13.5 7.7 19.2-19.7 1.5z" opacity=".15" fill="#444"/></svg>