<svg version="1.1" xmlns="http://www.w3.org/2000/svg" x="0" y="0" viewBox="0 0 512 512" xml:space="preserve"><style type="text/css">.st0{fill:#999}.st1{fill:#ddd}.st2{fill:#bbb}.st3{opacity:.15;fill:#444}.st4{fill:#cc584c}</style><path class="st0" d="m271.5 187 52 230.5-52 13zm-31 0-52 230.5 52 13z"/><path class="st1" d="M233 477h46v21h-46z"/><path class="st1" d="M274 60v-.7c-.4-4.9-1.3-9.8-2.4-14.7-1.1-4.9-2.4-9.8-3.8-14.7-1.5-4.9-3.1-9.8-4.9-14.7-1.8-4.9-3.8-9.8-6.3-14.7-.1-.1-.1-.2-.2-.2-.3-.1-.6 0-.8.2-2.5 4.9-4.5 9.8-6.3 14.7-1.9 4.9-3.5 9.8-4.9 14.7-1.5 4.9-2.7 9.8-3.8 14.7-1.1 4.9-2 9.8-2.4 14.7V498h36L274 60z"/><path class="st2" d="M233 493.8h46v4.3h-46z"/><path class="st3" d="M238 116.5h36v4h-36z"/><circle class="st0" cx="256" cy="118.5" r="1"/><circle class="st0" cx="266" cy="118.5" r="1"/><circle class="st0" cx="246" cy="118.5" r="1"/><path class="st2" d="M275 187h-38c-.6 0-1-.4-1-1v-1c0-.6.4-1 1-1h38c.6 0 1 .4 1 1v1c0 .6-.4 1-1 1zm0-3h-38c-.6 0-1-.4-1-1v-1c0-.6.4-1 1-1h38c.6 0 1 .4 1 1v1c0 .6-.4 1-1 1z"/><path class="st3" d="M238 66.5h36v4h-36z"/><circle class="st0" cx="256" cy="68.5" r="1"/><circle class="st0" cx="266" cy="68.5" r="1"/><circle class="st0" cx="246" cy="68.5" r="1"/><path class="st0" d="m222 449-24 5v16l24 5z"/><path class="st3" d="M243 293h9v5h-9zm-7 191h13v5h-13zm40 5h-13v-5h13z"/><path class="st2" d="m243 288.9-3.5-38.9-17.3 36.6c-1 2.1-1.5 4.5-1.5 6.8V478c0 .7.2 1.3.5 1.9.6 1 .8 2.2.8 3.3v3.7l15 4V487c0-3.1 1.8-5.9 4.6-7.3.9-.4 1.5-1.3 1.5-2.3V290.3c0-.5 0-1-.1-1.4z"/><path class="st4" d="M222 486.4v4l-6.1 15.7c-.5 1.2.3 2.5 1.5 2.7l19.9 3.2c1.3.2 2.5-.9 2.3-2.2l-2.6-19.3-15-4.1z"/><circle class="st0" cx="231.9" cy="297.9" r="1"/><circle class="st0" cx="238.1" cy="297.9" r="1"/><circle class="st0" cx="225.6" cy="297.9" r="1"/><circle class="st0" cx="231.9" cy="289.9" r="1"/><circle class="st0" cx="238.1" cy="289.9" r="1"/><circle class="st0" cx="225.6" cy="289.9" r="1"/><path class="st0" d="m198.4 444.2-1 2c-.1.3-.2.6-.2.9v5c0 .3.1.7.3 1l.5.9h1.6l.5-.9c.2-.3.3-.6.3-1v-5c0-.3-.1-.6-.2-.9l-1-2c-.1-.4-.7-.4-.8 0zM290 449l24 5v16l-24 5z"/><path class="st3" d="M269 298h-9v-5h9z"/><path class="st2" d="m269 288.9 3.5-38.9 17.3 36.6c1 2.1 1.5 4.5 1.5 6.8V478c0 .7-.2 1.3-.5 1.9-.6 1-.8 2.2-.8 3.3v3.7l-15 4V487c0-3.1-1.8-5.9-4.6-7.3-.9-.4-1.5-1.3-1.5-2.3V290.3c0-.5 0-1 .1-1.4z"/><path class="st4" d="M290 486.4v4l6.1 15.7c.5 1.2-.3 2.5-1.5 2.7l-19.9 3.2c-1.3.2-2.5-.9-2.3-2.2l2.6-19.3 15-4.1z"/><circle class="st0" cx="280.1" cy="297.9" r="1"/><circle class="st0" cx="273.9" cy="297.9" r="1"/><circle class="st0" cx="286.4" cy="297.9" r="1"/><circle class="st0" cx="280.1" cy="289.9" r="1"/><circle class="st0" cx="273.9" cy="289.9" r="1"/><circle class="st0" cx="286.4" cy="289.9" r="1"/><path class="st0" d="m313.6 444.2 1 2c.1.3.2.6.2.9v5c0 .3-.1.7-.3 1l-.5.9h-1.6l-.5-.9c-.2-.3-.3-.6-.3-1v-5c0-.3.1-.6.2-.9l1-2c.1-.4.7-.4.8 0zm-92.9 31.4h22.4v2h-22.4zm48.2 0h22.4v2h-22.4zm-12.4-31.4 1 2c.1.3.2.6.2.9v5c0 .3-.1.7-.3 1l-.5.9h-1.7l-.5-.9c-.2-.3-.3-.6-.3-1v-5c0-.3.1-.6.2-.9l1-2c.1-.4.7-.4.9 0z"/><path class="st0" d="M255 450.4h2V475h-2zm1-263.4-2.3 108.5v99.4c0 4.7.3 9.4.8 14.1l1.6 14 1.6-14c.5-4.7.8-9.4.8-14.1v-99.4L256 187z"/><path class="st3" d="M256 0c-.2 0-.4.1-.5.3-2.5 4.9-4.5 9.8-6.3 14.7-1.9 4.9-3.5 9.8-4.9 14.7-1.5 4.9-2.7 9.8-3.8 14.7-1.1 4.9-2 9.8-2.4 14.7V181h-1c-.6 0-1 .4-1 1v1c0 .6.4 1 1 1-.6 0-1 .4-1 1v1c0 .6.4 1 1 1h1v11.1l-49.5 219.4 32.2 8v23.7l-20.8 4.3.3-.5c.2-.3.3-.6.3-1v-5c0-.3-.1-.6-.2-.9l-1-2c-.2-.4-.7-.4-.9 0l-1 2c-.1.3-.2.6-.2.9v5c0 .3.1.7.3 1l.5.9v16l22.7 4.7v3.3c0 .7.2 1.3.5 1.9.6 1 .8 2.2.8 3.3v7.1l-6.1 15.7c-.5 1.2.3 2.5 1.5 2.7l19.9 3.2c1.3.2 2.5-.9 2.3-2.2L238 498h18V0z"/></svg>