<svg version="1.1" xmlns="http://www.w3.org/2000/svg" x="0" y="0" viewBox="0 0 512 512" xml:space="preserve"><style type="text/css">.st1{fill:#f4f4f4}</style><circle cx="256" cy="256" r="256" fill="#cc584c"/><path class="st1" d="M339.4 410.1L101.9 172.6c-12.5-12.5-12.5-32.8 0-45.3l25.5-25.5c12.5-12.5 32.8-12.5 45.3 0l237.6 237.6c12.5 12.5 12.5 32.8 0 45.3l-25.5 25.5c-12.6 12.4-32.9 12.4-45.4-.1z"/><path class="st1" d="M410.1 172.6L172.6 410.1c-12.5 12.5-32.8 12.5-45.3 0l-25.5-25.5c-12.5-12.5-12.5-32.8 0-45.3l237.6-237.6c12.5-12.5 32.8-12.5 45.3 0l25.5 25.5c12.4 12.6 12.4 32.9-.1 45.4z"/><path d="M0 256c0 141.4 114.6 256 256 256V0C114.6 0 0 114.6 0 256z" opacity=".15" fill="#444"/></svg>