<svg version="1.1" xmlns="http://www.w3.org/2000/svg" x="0" y="0" viewBox="0 0 512 512" xml:space="preserve"><style type="text/css">.st0{fill:#36434f}</style><path class="st0" d="M173.3 512h-16c-4.4 0-8-3.6-8-8V8c0-4.4 3.6-8 8-8h16c4.4 0 8 3.6 8 8v496c0 4.4-3.5 8-8 8zm181.4 0h-16c-4.4 0-8-3.6-8-8V8c0-4.4 3.6-8 8-8h16c4.4 0 8 3.6 8 8v496c0 4.4-3.6 8-8 8z"/><path class="st0" d="M512 338.7v16c0 4.4-3.6 8-8 8H8c-4.4 0-8-3.6-8-8v-16c0-4.4 3.6-8 8-8h496c4.4 0 8 3.5 8 8zm0-181.4v16c0 4.4-3.6 8-8 8H8c-4.4 0-8-3.6-8-8v-16c0-4.4 3.6-8 8-8h496c4.4 0 8 3.6 8 8z"/><path d="M74.7 47.1c15.2 0 27.6 12.4 27.6 27.6s-12.4 27.6-27.6 27.6-27.6-12.4-27.6-27.6 12.3-27.6 27.6-27.6m0-32c-32.9 0-59.6 26.7-59.6 59.6s26.7 59.6 59.6 59.6 59.6-26.7 59.6-59.6-26.7-59.6-59.6-59.6zM256 228.4c15.2 0 27.6 12.4 27.6 27.6s-12.4 27.6-27.6 27.6c-15.2 0-27.6-12.4-27.6-27.6 0-15.2 12.4-27.6 27.6-27.6m0-32c-32.9 0-59.6 26.7-59.6 59.6s26.7 59.6 59.6 59.6 59.6-26.7 59.6-59.6-26.7-59.6-59.6-59.6z" fill="#cc584c"/><path d="M493.5 29.8l-11.3-11.3c-3.1-3.1-8.2-3.1-11.3 0L437.3 52l-33.6-33.6c-3.1-3.1-8.2-3.1-11.3 0l-11.3 11.3c-3.1 3.1-3.1 8.2 0 11.3l33.6 33.6-33.6 33.6c-3.1 3.1-3.1 8.2 0 11.3l11.3 11.3c3.1 3.1 8.2 3.1 11.3 0l33.6-33.6 33.6 33.6c3.1 3.1 8.2 3.1 11.3 0l11.3-11.3c3.1-3.1 3.1-8.2 0-11.3L460 74.7l33.6-33.6c3.1-3.1 3.1-8.2-.1-11.3zm0 181.3l-11.3-11.3c-3.1-3.1-8.2-3.1-11.3 0l-33.6 33.6-33.6-33.6c-3.1-3.1-8.2-3.1-11.3 0l-11.3 11.3c-3.1 3.1-3.1 8.2 0 11.3l33.6 33.6-33.6 33.6c-3.1 3.1-3.1 8.2 0 11.3l11.3 11.3c3.1 3.1 8.2 3.1 11.3 0l33.6-33.6 33.6 33.6c3.1 3.1 8.2 3.1 11.3 0l11.3-11.3c3.1-3.1 3.1-8.2 0-11.3L460 256l33.6-33.6c3.1-3.1 3.1-8.2-.1-11.3zM130.9 392.4l-11.3-11.3c-3.1-3.1-8.2-3.1-11.3 0l-33.6 33.6-33.6-33.6c-3.1-3.1-8.2-3.1-11.3 0l-11.3 11.3c-3.1 3.1-3.1 8.2 0 11.3L52 437.3l-33.6 33.6c-3.1 3.1-3.1 8.2 0 11.3l11.3 11.3c3.1 3.1 8.2 3.1 11.3 0L74.7 460l33.6 33.6c3.1 3.1 8.2 3.1 11.3 0l11.3-11.3c3.1-3.1 3.1-8.2 0-11.3l-33.6-33.6 33.6-33.6c3.1-3.2 3.1-8.2 0-11.4z" fill="#2e86b7"/><path d="M256 196.4v32c-15.2 0-27.6 12.4-27.6 27.6s12.4 27.6 27.6 27.6v32c-32.9 0-59.6-26.7-59.6-59.6s26.7-59.6 59.6-59.6zM15.1 74.7c0-32.9 26.7-59.6 59.6-59.6s59.6 26.7 59.6 59.6-26.7 59.6-59.6 59.6-59.6-26.7-59.6-59.6zm32 0c0 15.2 12.4 27.6 27.6 27.6s27.6-12.4 27.6-27.6-12.4-27.6-27.6-27.6c-15.3 0-27.6 12.3-27.6 27.6zm83.8 317.7l-11.3-11.3c-3.1-3.1-8.2-3.1-11.3 0l-33.6 33.6-33.6-33.6c-3.1-3.1-8.2-3.1-11.3 0l-11.3 11.3c-3.1 3.1-3.1 8.2 0 11.3L52 437.3l-33.6 33.6c-3.1 3.1-3.1 8.2 0 11.3l11.3 11.3c3.1 3.1 8.2 3.1 11.3 0L74.7 460l33.6 33.6c3.1 3.1 8.2 3.1 11.3 0l11.3-11.3c3.1-3.1 3.1-8.2 0-11.3l-33.6-33.6 33.6-33.6c3.1-3.2 3.1-8.2 0-11.4zm50.4-243.1V8c0-4.4-3.6-8-8-8h-16c-4.4 0-8 3.6-8 8v141.3H8c-4.4 0-8 3.6-8 8v16c0 4.4 3.6 8 8 8h141.3v149.3H8c-4.4 0-8 3.6-8 8v16c0 4.4 3.6 8 8 8h141.3V504c0 4.4 3.6 8 8 8h16c4.4 0 8-3.6 8-8V362.7H256v-32h-74.7V181.3H256v-32h-74.7z" opacity=".15" fill="#444"/></svg>