<svg version="1.1" xmlns="http://www.w3.org/2000/svg" x="0" y="0" viewBox="0 0 512 512" xml:space="preserve"><path d="M502.6 99.8l-45.3-45.3C444.8 42 424.5 42 412 54.5L167.8 298.9 99.9 231c-12.5-12.5-32.8-12.5-45.3 0L9.4 276.3c-12.5 12.5-12.5 32.8 0 45.3l67.9 67.9-.1.1 67.9 67.9c12.5 12.5 32.8 12.5 45.3 0l312.3-312.3c12.4-12.6 12.4-32.9-.1-45.4z" fill="#2e86b7"/><path d="M167.8 298.9L99.9 231c-12.5-12.5-32.8-12.5-45.3 0L9.4 276.3C3.1 282.5 0 290.7 0 298.9v.1c0 8.2 3.1 16.3 9.4 22.6l67.9 67.9-.1.1 67.9 67.9c6.3 6.3 14.5 9.4 22.7 9.4v-168z" opacity=".15" fill="#444"/></svg>