<svg version="1.1" xmlns="http://www.w3.org/2000/svg" x="0" y="0" viewBox="0 0 512 512" xml:space="preserve"><style type="text/css">.st6{fill:#2e86b7}.st7{fill:#f4f4f4}</style><path fill="#999" d="M288.1 439.3l-18.4 28.2h-13.2V439h-1v28.5h-13.2l-18.4-28.2-.9.6 18.5 28.2V484h1v-15.5h27V484h1v-15.9l18.5-28.2z"/><path d="M272 512h-32c-2.2 0-4-1.8-4-4v-21c0-2.2 1.8-4 4-4h32c2.2 0 4 1.8 4 4v21c0 2.2-1.8 4-4 4z" fill="#ffa000"/><path d="M272 483h-32c-2.2 0-4 1.8-4 4v1h40v-1c0-2.2-1.8-4-4-4zm0 29h-32c-2.2 0-4-1.8-4-4v-1h40v1c0 2.2-1.8 4-4 4z" opacity=".15" fill="#444"/><path d="M259.5 464.5c.1-.8.2-1.6.2-2.5 0-4.1-3.7-7.4-3.7-7.4s-3.7 3.3-3.7 7.4c0 .9.1 1.7.2 2.5h7z" fill="#eec646"/><path d="M257.9 460.1c0 2-.8 3.7-1.9 3.7-1 0-1.9-1.7-1.9-3.7s1.9-3.7 1.9-3.7 1.9 1.7 1.9 3.7z" fill="#cc584c"/><path d="M260.5 468h-9c-1.1 0-2-.9-2-2v-3c0-1.1.9-2 2-2h9c1.1 0 2 .9 2 2v3c0 1.1-.9 2-2 2z" fill="#36434f"/><path class="st6" d="M256 0C110.1 0 63 79 63.5 144.5 64.1 227.6 91 278 211 407l12 32.9h66l12-32.9c120-129 146.9-179.4 147.5-262.5C449 79 401.9 0 256 0z"/><path class="st6" d="M256 407h-45l12 32.9h66l12-32.9z"/><path class="st7" d="M83.5 144.5c.6 83.1 24.6 133.5 132.2 262.5h5.8c-91.9-129-112.5-179.4-113-262.5C108.1 79 144.2 0 256 0 125.3 0 83.1 79 83.5 144.5zM256 0c111.8 0 147.9 79 147.5 144.5-.5 83.1-21.1 133.5-113 262.5h5.8c107.5-129 131.6-179.4 132.2-262.5C428.9 79 386.7 0 256 0z"/><path class="st7" d="M256 0c54.9 0 72.7 79 72.5 144.5-.2 83.1-10.4 133.5-55.6 262.5h10.5c73.2-129 89.6-179.4 90-262.5C373.8 79 345.1 0 256 0zM138.5 144.5c.4 83.1 16.8 133.5 90 262.5H239c-45.2-129-55.3-179.4-55.6-262.5C183.3 79 201.1 0 256 0c-89.1 0-117.8 79-117.5 144.5z"/><path class="st7" d="M256 0c-20.8 0-27.6 79-27.5 144.5.1 83.1 3.9 133.5 21.1 262.5h12.8c17.1-129 21-179.4 21.1-262.5C283.6 79 276.8 0 256 0z"/></svg>