<svg xmlns="http://www.w3.org/2000/svg" viewBox="0 0 512 512" xml:space="preserve"><style>.st0{fill:#bbb}.st1{fill:#36434f}.st2{fill:#ddd}.st3{fill:#999}</style><path class="st0" d="M51.5 280h3v7h-3z"/><circle class="st1" cx="53" cy="289" r="4"/><path class="st0" d="M253 280h3v7h-3z"/><circle class="st1" cx="254.5" cy="288.5" r="4.5"/><path class="st2" d="m368 234 59-24 52.2-72.4c3-4.2 7.8-6.6 13-6.6h6.6c.6 0 1.1.6 1 1.2L478 234H368z"/><path class="st2" d="M334 231H105c-50.8.1-77.4 7.6-88.5 18.4-10 4-16.5 9.9-16.5 13.6 0 6 24 18 39 18h295c54.5 0 106.8-11.3 155.6-32.1 1.5-.6 2.4-2.1 2.4-3.7V231H334z"/><path class="st1" d="m15.8 249.7 8.9 2.2c2.1.7 4.4.5 6.3-.5l5.8-3.1c1.6-.8 1.3-3.1-.4-3.7l-12.7-.5c-2.9 1.7-5.3 3.4-7.3 5.3-.1.1-.4.2-.6.3zM84 256h-4c-.6 0-1-.4-1-1v-7c0-1.1.9-2 2-2h2c1.1 0 2 .9 2 2v7c0 .6-.4 1-1 1zm8.3 0h-4c-.6 0-1-.4-1-1v-7c0-1.1.9-2 2-2h2c1.1 0 2 .9 2 2v7c0 .6-.4 1-1 1zm8.3 0h-4c-.6 0-1-.4-1-1v-7c0-1.1.9-2 2-2h2c1.1 0 2 .9 2 2v7c0 .6-.4 1-1 1zm8.3 0h-4c-.6 0-1-.4-1-1v-7c0-1.1.9-2 2-2h2c1.1 0 2 .9 2 2v7c0 .6-.4 1-1 1zm8.3 0h-4c-.6 0-1-.4-1-1v-7c0-1.1.9-2 2-2h2c1.1 0 2 .9 2 2v7c0 .6-.4 1-1 1zm8.3 0h-4c-.6 0-1-.4-1-1v-7c0-1.1.9-2 2-2h2c1.1 0 2 .9 2 2v7c0 .6-.4 1-1 1zm8.3 0h-4c-.6 0-1-.4-1-1v-7c0-1.1.9-2 2-2h2c1.1 0 2 .9 2 2v7c0 .6-.4 1-1 1zm8.3 0h-4c-.6 0-1-.4-1-1v-7c0-1.1.9-2 2-2h2c1.1 0 2 .9 2 2v7c0 .6-.4 1-1 1zm8.3 0h-4c-.6 0-1-.4-1-1v-7c0-1.1.9-2 2-2h2c1.1 0 2 .9 2 2v7c0 .6-.4 1-1 1zm8.3 0h-4c-.6 0-1-.4-1-1v-7c0-1.1.9-2 2-2h2c1.1 0 2 .9 2 2v7c0 .6-.4 1-1 1zm8.3 0h-4c-.6 0-1-.4-1-1v-7c0-1.1.9-2 2-2h2c1.1 0 2 .9 2 2v7c0 .6-.4 1-1 1zm16 0h-4c-.6 0-1-.4-1-1v-7c0-1.1.9-2 2-2h2c1.1 0 2 .9 2 2v7c0 .6-.4 1-1 1zm16 0h-4c-.6 0-1-.4-1-1v-7c0-1.1.9-2 2-2h2c1.1 0 2 .9 2 2v7c0 .6-.4 1-1 1zm8 0h-4c-.6 0-1-.4-1-1v-7c0-1.1.9-2 2-2h2c1.1 0 2 .9 2 2v7c0 .6-.4 1-1 1zm8 0h-4c-.6 0-1-.4-1-1v-7c0-1.1.9-2 2-2h2c1.1 0 2 .9 2 2v7c0 .6-.4 1-1 1zm25 0h-4c-.6 0-1-.4-1-1v-7c0-1.1.9-2 2-2h2c1.1 0 2 .9 2 2v7c0 .6-.4 1-1 1zm8.2 0h-4c-.6 0-1-.4-1-1v-7c0-1.1.9-2 2-2h2c1.1 0 2 .9 2 2v7c0 .6-.5 1-1 1zm8.1 0h-4c-.6 0-1-.4-1-1v-7c0-1.1.9-2 2-2h2c1.1 0 2 .9 2 2v7c0 .6-.4 1-1 1zm8.2 0h-4c-.6 0-1-.4-1-1v-7c0-1.1.9-2 2-2h2c1.1 0 2 .9 2 2v7c0 .6-.4 1-1 1zm8.2 0h-4c-.6 0-1-.4-1-1v-7c0-1.1.9-2 2-2h2c1.1 0 2 .9 2 2v7c0 .6-.5 1-1 1zm8.1 0h-4c-.6 0-1-.4-1-1v-7c0-1.1.9-2 2-2h2c1.1 0 2 .9 2 2v7c0 .6-.4 1-1 1zm8.2 0h-4c-.6 0-1-.4-1-1v-7c0-1.1.9-2 2-2h2c1.1 0 2 .9 2 2v7c0 .6-.4 1-1 1zm33 0h-4c-.6 0-1-.4-1-1v-7c0-1.1.9-2 2-2h2c1.1 0 2 .9 2 2v7c0 .6-.4 1-1 1zm8.3 0h-4c-.6 0-1-.4-1-1v-7c0-1.1.9-2 2-2h2c1.1 0 2 .9 2 2v7c0 .6-.5 1-1 1zm8.3 0h-4c-.6 0-1-.4-1-1v-7c0-1.1.9-2 2-2h2c1.1 0 2 .9 2 2v7c0 .6-.5 1-1 1zm8.3 0h-4c-.6 0-1-.4-1-1v-7c0-1.1.9-2 2-2h2c1.1 0 2 .9 2 2v7c0 .6-.5 1-1 1zm8.2 0h-4c-.6 0-1-.4-1-1v-7c0-1.1.9-2 2-2h2c1.1 0 2 .9 2 2v7c0 .6-.4 1-1 1zm8.3 0h-4c-.6 0-1-.4-1-1v-7c0-1.1.9-2 2-2h2c1.1 0 2 .9 2 2v7c0 .6-.4 1-1 1zm8.3 0h-4c-.6 0-1-.4-1-1v-7c0-1.1.9-2 2-2h2c1.1 0 2 .9 2 2v7c0 .6-.4 1-1 1zm8.3 0h-4c-.6 0-1-.4-1-1v-7c0-1.1.9-2 2-2h2c1.1 0 2 .9 2 2v7c0 .6-.4 1-1 1z"/><path class="st0" d="m447.3 236.5 41.9-9.1c1.1-.2 2.3-.4 3.4-.4h18.9c.5 0 .7.7.2 1l-27.6 11.1c-1.4.6-2.9 1-4.5 1.2-4.7.6-15.3 1.7-20.6 1.7-4.6 0-9.3-2.2-11.9-3.7-.9-.4-.7-1.6.2-1.8zm-114-24.5h-3.4c-1.2 0-2.3.5-3.1 1.5l-16.2 20c-10.7 13.2-26.1 21.6-43 23.4l-84.4 9-.2 10.1h61.5c1 0 1.9-.4 2.7-1l2.8-2.5 12.3 1.1c3.8.3 7.7.2 11.5-.4l5-.8c1.4-.2 2.6-1.2 3.1-2.5l1.2-2.9h7.6c.5 0 .7-.6.3-.9l-3.2-2.7c12.8-3 23.9-11.1 30.5-22.6l15.8-27.3c.4-.7-.1-1.5-.8-1.5z"/><path class="st3" d="m219.1 273-.1 4-.1 4 12.4-3.2c.5-.1.5-.8 0-1l-12.2-3.8z"/><path d="m208.2 268.7-.2 8-.2 8 11.3-1.5c1-.1 1.7-.9 1.7-1.9l.1-4.3.1-4.3c0-1-.7-1.8-1.6-2l-11.2-2z" fill="#adadad"/><path class="st3" d="M190.3 264.8c-7.6-.2-15.9.8-19.4 1.2-1 .1-1.7 1-1.7 1.9l-.2 6.3-.1 3-.2 6.3c0 1 .7 1.8 1.6 2 3.4.6 11.6 2 19.3 2.2 7.5.2 15.1-.8 18.4-1.3 1-.1 1.7-1 1.7-1.9l.2-6.3.1-3 .2-6.3c0-1-.7-1.8-1.6-2-3.3-.6-10.8-2-18.3-2.1z"/><path d="M172.3 265.8c-.5.1-.9.1-1.3.2-1 .1-1.7 1-1.7 1.9l-.2 6.3-.1 3-.2 6.3c0 1 .7 1.8 1.6 2 .4.1.8.2 1.3.2l.6-19.9z" opacity=".2" fill="#fff"/><path class="st0" d="M69 262.5h-7c-1.4 0-2.5-1.1-2.5-2.5v-19c0-1.4 1.1-2.5 2.5-2.5h7c1.4 0 2.5 1.1 2.5 2.5v19c0 1.4-1.1 2.5-2.5 2.5zm-7-23c-.8 0-1.5.7-1.5 1.5v19c0 .8.7 1.5 1.5 1.5h7c.8 0 1.5-.7 1.5-1.5v-19c0-.8-.7-1.5-1.5-1.5h-7zm336 23h-7c-1.4 0-2.5-1.1-2.5-2.5v-19c0-1.4 1.1-2.5 2.5-2.5h7c1.4 0 2.5 1.1 2.5 2.5v19c0 1.4-1.1 2.5-2.5 2.5zm-7-23c-.8 0-1.5.7-1.5 1.5v19c0 .8.7 1.5 1.5 1.5h7c.8 0 1.5-.7 1.5-1.5v-19c0-.8-.7-1.5-1.5-1.5h-7z"/></svg>