<svg xmlns="http://www.w3.org/2000/svg" viewBox="0 0 512 512" xml:space="preserve"><style>.st0{fill:#eec646}.st1{fill:#ffa000}.st2{fill:#df7148}.st4{fill:#36434f}.st5{fill:#bbb}</style><path class="st0" d="M495 257v-65c0-3.3 2.7-6 6-6h11v-1c0-6.6-5.4-12-12-12H12c-6.6 0-12 5.4-12 12v111h512v-33h-11c-3.3 0-6-2.6-6-6z"/><path class="st1" d="M302.5 262h117v8h-117zM0 312c0 6.6 5.4 12 12 12h488c6.6 0 12-5.4 12-12v-17H0v17z"/><path class="st2" d="M296.5 324h-63V201c0-2.2 1.8-4 4-4h55c2.2 0 4 1.8 4 4v123z"/><path class="st0" d="M261 319h-23c-1.1 0-2-.9-2-2V204c0-1.1.9-2 2-2h23c1.1 0 2 .9 2 2v113c0 1.1-.9 2-2 2zm31 0h-23c-1.1 0-2-.9-2-2V204c0-1.1.9-2 2-2h23c1.1 0 2 .9 2 2v113c0 1.1-.9 2-2 2z"/><path class="st2" d="M111.5 324h-63V201c0-2.2 1.8-4 4-4h55c2.2 0 4 1.8 4 4v123z"/><path class="st0" d="M76 319H53c-1.1 0-2-.9-2-2V204c0-1.1.9-2 2-2h23c1.1 0 2 .9 2 2v113c0 1.1-.9 2-2 2zm31 0H84c-1.1 0-2-.9-2-2V204c0-1.1.9-2 2-2h23c1.1 0 2 .9 2 2v113c0 1.1-.9 2-2 2z"/><path class="st2" d="M488.5 324h-63V201c0-2.2 1.8-4 4-4h55c2.2 0 4 1.8 4 4v123z"/><path class="st0" d="M453 319h-23c-1.1 0-2-.9-2-2V204c0-1.1.9-2 2-2h23c1.1 0 2 .9 2 2v113c0 1.1-.9 2-2 2zm31 0h-23c-1.1 0-2-.9-2-2V204c0-1.1.9-2 2-2h23c1.1 0 2 .9 2 2v113c0 1.1-.9 2-2 2z"/><path d="M512 186v77h-11c-3.3 0-6-2.7-6-6v-65c0-3.3 2.7-6 6-6h11zM42.5 233v-37c0-3.3-2.7-6-6-6H23c-3.3 0-6 2.7-6 6v37c0 3.3 2.7 6 6 6h13.5c3.3 0 6-2.6 6-6zM259 290v-80c0-1.1-.9-2-2-2h-15c-1.1 0-2 .9-2 2v80c0 1.1.9 2 2 2h15c1.1 0 2-.9 2-2zm31 0v-80c0-1.1-.9-2-2-2h-15c-1.1 0-2 .9-2 2v80c0 1.1.9 2 2 2h15c1.1 0 2-.9 2-2zm-216 0v-80c0-1.1-.9-2-2-2H57c-1.1 0-2 .9-2 2v80c0 1.1.9 2 2 2h15c1.1 0 2-.9 2-2zm31 0v-80c0-1.1-.9-2-2-2H88c-1.1 0-2 .9-2 2v80c0 1.1.9 2 2 2h15c1.1 0 2-.9 2-2zm346 0v-80c0-1.1-.9-2-2-2h-15c-1.1 0-2 .9-2 2v80c0 1.1.9 2 2 2h15c1.1 0 2-.9 2-2zm31 0v-80c0-1.1-.9-2-2-2h-15c-1.1 0-2 .9-2 2v80c0 1.1.9 2 2 2h15c1.1 0 2-.9 2-2zm-254.5-40v-54c0-3.3-2.7-6-6-6h-98c-3.3 0-6 2.7-6 6v54c0 3.3 2.7 6 6 6h98c3.3 0 6-2.6 6-6zm192 0v-54c0-3.3-2.7-6-6-6h-105c-3.3 0-6 2.7-6 6v54c0 3.3 2.7 6 6 6h105c3.3 0 6-2.6 6-6z" fill="#79b1d1"/><path class="st1" d="M117.5 262h110v8h-110zM0 262h42.5v8H0z"/><path class="st2" d="M393.3 288.1c-14.8 0-26.7 12-26.7 26.7 0 3.2.6 6.3 1.6 9.2h50.2c1.1-2.9 1.6-6 1.6-9.2 0-14.7-12-26.7-26.7-26.7z"/><circle class="st4" cx="393.3" cy="314.8" r="24.1"/><circle class="st5" cx="393.3" cy="314.8" r="16.5"/><circle class="st4" cx="393.3" cy="314.8" r="8"/><path class="st2" d="M143.7 288.1c14.8 0 26.7 12 26.7 26.7 0 3.2-.6 6.3-1.6 9.2h-50.2c-1.1-2.9-1.6-6-1.6-9.2 0-14.7 12-26.7 26.7-26.7z"/><circle class="st4" cx="143.7" cy="314.8" r="24.1"/><circle class="st5" cx="143.7" cy="314.8" r="16.5"/><circle class="st4" cx="143.7" cy="314.8" r="8"/><path d="M290 210v12.6l-19 4.5V210c0-1.1.9-2 2-2h15c1.1 0 2 .9 2 2zm-50 24.5 19-4.5v-20c0-.3-.1-.5-.1-.7l-18.9 3v22.2zM117.5 250c0 3.3 2.7 6 6 6h25.2l78.8-18.6v-23l-110 17.7V250zM434 208c-1.1 0-2 .9-2 2v5.2l18.6-6.4c-.4-.5-.9-.8-1.6-.8h-15zm-206.8 43.8-16.5 4.3h10.8c2.7-.1 5-1.9 5.7-4.3zm75.3-1.8c0 3.3 2.7 6 6 6h4.7l106.3-36.5v-17.7l-117 30.4V250zM495 192v1.5l17-5.8V186h-11c-3.3 0-6 2.7-6 6zm-205 43.5-19 4.9v30.2l19-6.5v-28.6zM413.5 190h-34.9l-76.1 12.3v17.4l115.7-27.4c-1.1-1.4-2.8-2.3-4.7-2.3zM259 243.5l-19 4.9v32.8l19-6.5v-31.2zM55 278.2l19-4.5v-34.6l-19 3.1v36zM88 292h15c1.1 0 2-.9 2-2v-6.6l-19 4.9v1.6c0 1.2.9 2.1 2 2.1zm-2-21.1 19-4.5v-32.3l-19 3.1v33.7zM72.1 292c.3 0 .5-.1.8-.2l-.8.2z" opacity=".2" fill="#fff"/></svg>