<svg version="1.1" xmlns="http://www.w3.org/2000/svg" x="0" y="0" viewBox="0 0 512 512" xml:space="preserve"><style type="text/css">.st0{fill:#cc584c}.st1{fill:#e0ac7e}.st3{fill:#36434f}.st4{fill:#ddd}</style><path class="st0" d="M84 221H53v-37c0-2.2 1.8-4 4-4h23c2.2 0 4 1.8 4 4v37zm193.7-7.3l-.8-.8c-1.5-1.5-2.3-3.5-2.3-5.7v-11.3c0-1.2.3-2.5.8-3.6l1.9-3.9c.3-.7-.2-1.4-.9-1.4h-31.8c-.7 0-1.2.8-.9 1.4l1.9 3.9c.6 1.1.8 2.3.8 3.6v11.3c0 2.1-.8 4.2-2.3 5.7l-.8.8c-1.5 1.5-2.3 3.5-2.3 5.7v2.7h39v-2.7c0-2.2-.8-4.2-2.3-5.7z"/><ellipse class="st0" cx="260.5" cy="187.5" rx="14" ry="12.5"/><path class="st0" d="M260.5 173c-1.1 0-2-.9-2-2v-3c0-1.1.9-2 2-2s2 .9 2 2v3c0 1.1-.9 2-2 2z"/><path class="st0" d="M259.5 172h2v4h-2z"/><path class="st1" d="M383.8 203.8l-1-1c-1.8-1.8-2.9-4.3-2.9-6.9v-13.8c0-1.5.4-3 1-4.4l2.4-4.7c.4-.8-.2-1.8-1.1-1.8h-38.8c-.9 0-1.5 1-1.1 1.8l2.4 4.7c.7 1.4 1 2.9 1 4.4v13.8c0 2.6-1 5.1-2.9 6.9l-1 1c-1.8 1.8-2.9 4.3-2.9 6.9v3.3h47.7v-3.3c.1-2.6-1-5.1-2.8-6.9z"/><ellipse class="st1" cx="362.8" cy="171.8" rx="17.1" ry="15.3"/><path d="M394 180v140h111V180H394zm46.5 65h-36v-47c0-5 8.1-9 18-9s18 4 18 9v47zm54 0h-36v-47c0-5 8.1-9 18-9s18 4 18 9v47z" fill="#a18267"/><ellipse class="st3" cx="50" cy="256" rx="20" ry="36"/><path class="st3" d="M340 292h57v23h-57z"/><path class="st3" d="M179 310h326v21H179z"/><path class="st3" d="M203 286h10v29h-10zm30 0h10v29h-10zm-60 0h10v29h-10zm-30 0h10v29h-10zm-30 0h10v29h-10zm-30 0h10v29H83zm-30 0h10v29H53z"/><path class="st3" d="M315.3 214.6l-4.5 1.9c-5.8 2.4-11.9 3.6-18.2 3.6H50v72h242.6c6.2 0 12.4 1.2 18.2 3.6l4.5 1.9c5.8 2.4 11.9 3.6 18.2 3.6H394v-90h-60.6c-6.2-.2-12.4 1-18.1 3.4z"/><path class="st3" d="M123.8 206.8L121 204v-78.8c0-1.1.4-2.1 1.2-2.8l.2-.2c.8-.8 1.2-1.8 1.2-2.8v-2.7c0-1.1-.4-2.1-1.2-2.8l-.2-.2c-.8-.8-1.2-1.8-1.2-2.8V109c0-2.2-1.8-4-4-4h-15c-2.2 0-4 1.8-4 4v1.8c0 1.1-.4 2.1-1.2 2.8l-.2.2c-.8.8-1.2 1.8-1.2 2.8v2.7c0 1.1.4 2.1 1.2 2.8l.2.2c.8.8 1.2 1.8 1.2 2.8V204l-2.8 2.8c-.8.8-1.2 1.8-1.2 2.8V222h4v2h23v-2h4v-12.3c0-1.1-.4-2.1-1.2-2.9zM394 267h111v53H394z"/><path class="st1" d="M125 220h6v72h-6zm40 0h6v72h-6zm40 0h6v72h-6zm40 0h6v72h-6zm40 0h6v72h-6z"/><path class="st3" d="M171 344H16c-8.8 0-16-7.2-16-16v-14c0-8.8 7.2-16 16-16h155c8.8 0 16 7.2 16 16v14c0 8.8-7.2 16-16 16z"/><circle class="st0" cx="297.9" cy="321" r="9.6"/><circle class="st4" cx="297.9" cy="321" r="5"/><path class="st0" d="M297.9 279.2c-23.1 0-41.8 18.7-41.8 41.8s18.7 41.8 41.8 41.8 41.8-18.7 41.8-41.8-18.6-41.8-41.8-41.8zm0 73.7c-17.6 0-31.9-14.3-31.9-31.9s14.3-31.9 31.9-31.9 31.9 14.3 31.9 31.9-14.3 31.9-31.9 31.9z"/><circle class="st3" cx="297.9" cy="321" r="1.5"/><path class="st0" d="M296.3 281.3h3.3v33.5h-3.3v-33.5zm0 45.9h3.3v33.5h-3.3v-33.5zm-19.6-39.7l2.9-1.7 16.7 29-2.9 1.7-16.7-29zm22.9 39.7l2.9-1.7 16.7 29-2.9 1.7-16.7-29zm-36.9-24.6l1.7-2.9 29 16.7-1.7 2.9-29-16.7zm39.8 22.9l1.7-2.9 29 16.7-1.7 2.9-29-16.7zm-44.2-6.2h33.5v3.3h-33.5v-3.3zm45.8 0h33.5v3.3h-33.5v-3.3zm-41.4 20.1l29-16.7 1.7 2.9-29 16.7-1.7-2.9zm39.8-22.9l29-16.7 1.7 2.9-29 16.7-1.7-2.9z"/><path class="st0" d="M276.7 354.5l16.7-29 2.9 1.7-16.7 29-2.9-1.7zm22.9-39.7l16.7-29 2.9 1.7-16.7 29-2.9-1.7z"/><path class="st4" d="M297.9 278.5c-23.5 0-42.5 19-42.5 42.5s19 42.5 42.5 42.5 42.5-19 42.5-42.5-19-42.5-42.5-42.5zm0 81.4c-21.4 0-38.8-17.4-38.8-38.8s17.4-38.8 38.8-38.8 38.8 17.4 38.8 38.8-17.3 38.8-38.8 38.8z"/><path class="st4" d="M252.4 321c0-25.1 20.4-45.6 45.6-45.6 25.1 0 45.6 20.4 45.6 45.6h5c0-27.9-22.7-50.6-50.6-50.6s-50.6 22.7-50.6 50.6h5z"/><circle class="st0" cx="439.9" cy="321" r="9.6"/><circle class="st4" cx="439.9" cy="321" r="5"/><path class="st0" d="M439.9 279.2c-23.1 0-41.8 18.7-41.8 41.8s18.7 41.8 41.8 41.8 41.8-18.7 41.8-41.8-18.6-41.8-41.8-41.8zm0 73.7c-17.6 0-31.9-14.3-31.9-31.9s14.3-31.9 31.9-31.9 31.9 14.3 31.9 31.9-14.3 31.9-31.9 31.9z"/><circle class="st3" cx="439.9" cy="321" r="1.3"/><path class="st0" d="M438.3 281.3h3.3v33.5h-3.3v-33.5zm0 45.9h3.3v33.5h-3.3v-33.5zm-19.6-39.7l2.9-1.7 16.7 29-2.9 1.7-16.7-29zm22.9 39.7l2.9-1.7 16.7 29-2.9 1.7-16.7-29zm-36.9-24.6l1.7-2.9 29 16.7-1.7 2.9-29-16.7zm39.8 22.9l1.7-2.9 29 16.7-1.7 2.9-29-16.7zm-44.2-6.2h33.5v3.3h-33.5v-3.3zm45.8 0h33.5v3.3h-33.5v-3.3zm-41.4 20.1l29-16.7 1.7 2.9-29 16.7-1.7-2.9zm39.8-22.9l29-16.7 1.7 2.9-29 16.7-1.7-2.9z"/><path class="st0" d="M418.7 354.5l16.7-29 2.9 1.7-16.7 29-2.9-1.7zm22.9-39.7l16.7-29 2.9 1.7-16.7 29-2.9-1.7z"/><path class="st4" d="M439.9 278.5c-23.5 0-42.5 19-42.5 42.5s19 42.5 42.5 42.5 42.5-19 42.5-42.5-19-42.5-42.5-42.5zm0 81.4c-21.4 0-38.8-17.4-38.8-38.8s17.4-38.8 38.8-38.8 38.8 17.4 38.8 38.8-17.3 38.8-38.8 38.8z"/><path class="st4" d="M394.4 321c0-25.1 20.4-45.6 45.6-45.6 25.1 0 45.6 20.4 45.6 45.6h5c0-27.9-22.7-50.6-50.6-50.6s-50.6 22.7-50.6 50.6h5z"/><path class="st0" d="M146.6 322.7c-11.2 0-20.2 9.1-20.2 20.2 0 11.2 9.1 20.2 20.2 20.2s20.2-9.1 20.2-20.2-9.1-20.2-20.2-20.2z"/><circle class="st4" cx="146.6" cy="343" r="4"/><circle class="st3" cx="146.6" cy="343" r="1.5"/><path class="st4" d="M146.6 322.4c-11.4 0-20.6 9.2-20.6 20.6s9.2 20.6 20.6 20.6 20.6-9.2 20.6-20.6c-.1-11.4-9.3-20.6-20.6-20.6zm0 39.3c-10.4 0-18.8-8.4-18.8-18.8s8.4-18.8 18.8-18.8 18.8 8.4 18.8 18.8-8.5 18.8-18.8 18.8z"/><path class="st4" d="M124.5 343c0-12.1 9.9-22 22-22s22 9.9 22 22h2.4c0-13.5-11-24.4-24.4-24.4-13.5 0-24.4 11-24.4 24.4h2.4z"/><path class="st0" d="M27.4 322.7c-11.2 0-20.2 9.1-20.2 20.2 0 11.2 9.1 20.2 20.2 20.2s20.2-9.1 20.2-20.2c.1-11.1-9-20.2-20.2-20.2z"/><circle class="st4" cx="27.4" cy="343" r="4"/><circle class="st3" cx="27.4" cy="343" r="1.5"/><path class="st4" d="M27.4 322.4c-11.4 0-20.6 9.2-20.6 20.6s9.2 20.6 20.6 20.6S48 354.3 48 343c0-11.4-9.2-20.6-20.6-20.6zm0 39.3c-10.4 0-18.8-8.4-18.8-18.8s8.4-18.8 18.8-18.8 18.8 8.4 18.8 18.8-8.4 18.8-18.8 18.8z"/><path class="st4" d="M5.4 343c0-12.1 9.9-22 22-22s22 9.9 22 22h2.4c0-13.5-11-24.4-24.4-24.4C14 318.5 3 329.5 3 343h2.4z"/><path class="st0" d="M387 171h125v9H387z"/><path class="st1" d="M368 145v-15c0-1.1-.9-2-2-2h-6c-1.1 0-2 .9-2 2v15h3.6v2.5h-3.8v2c0 2.3 1.6 4.3 3.8 4.8v3.4h2.4v-3.4c2.2-.5 3.8-2.5 3.8-4.8v-2H364V145h4z"/><circle class="st1" cx="173.1" cy="214.6" r="2.4"/><path class="st1" d="M185.1 210.4l-2.5-2.9c-1.5-1.7-2.5-3.8-3-6l-1.2-5.8c-.1-.6-.5-1-1.1-1.2l-1.9-.6-.5-4.2c-.1-.4-.4-.7-.8-.7H172c-.4 0-.8.3-.8.7l-.5 4.2-1.9.6c-.6.2-1 .7-1.1 1.2l-1.2 5.8c-.4 2.2-1.5 4.3-3 6l-2.5 2.9c-.3.3-.4.7-.4 1.1v2.8c0 .4.4.8.8.8h23.2c.4 0 .8-.4.8-.8v-2.8c.1-.4 0-.8-.3-1.1zm-12-17.9c-.6 0-1-.5-1-1s.5-1 1-1 1 .5 1 1-.4 1-1 1z"/><path d="M161.1 210.4c-.1.1-.2.2-.2.3h24.4c-.1-.1-.1-.2-.2-.3l-.5-.6h-23l-.5.6zm4-4.9l-.6.9h17.2l-.6-.9h-16zm-1.6 2.1l-.8.9h20.7l-.8-.9h-19.1z" opacity=".15" fill="#444"/><path class="st3" d="M164 222c-3.1 0-9-1.5-9-7 0-3.8 3.6-6.4 6.7-8.7 2.1-1.5 4.3-3.1 4.3-4.3 0-1.7-.4-2.2-.8-2.9-.5-.8-1.2-1.8-1.2-4.1 0-4.9 8.6-5 9-5 .6 0 1 .4 1 1s-.4 1-1 1c-1.8 0-7 .6-7 3 0 1.7.4 2.2.8 2.9.5.8 1.2 1.8 1.2 4.1s-2.5 4.1-5.1 6c-2.8 2-5.9 4.2-5.9 7 0 4.9 6.7 5 7 5 .6 0 1 .4 1 1s-.4 1-1 1z"/></svg>