<svg version="1.1" xmlns="http://www.w3.org/2000/svg" x="0" y="0" viewBox="0 0 512 512" xml:space="preserve"><style type="text/css">.st2{opacity:.15;fill:#444;enable-background:new}.st4{fill:#cc584c}.st7{fill:#ddd}</style><path fill="#999" d="M288.1 439.3l-18.4 28.2h-13.2V439h-1v28.5h-13.2l-18.4-28.2-.9.6 18.5 28.2V484h1v-15.5h27V484h1v-15.9l18.5-28.2z"/><path d="M272 512h-32c-2.2 0-4-1.8-4-4v-21c0-2.2 1.8-4 4-4h32c2.2 0 4 1.8 4 4v21c0 2.2-1.8 4-4 4z" fill="#ffa000"/><path class="st2" d="M272 483h-32c-2.2 0-4 1.8-4 4v1h40v-1c0-2.2-1.8-4-4-4zm0 29h-32c-2.2 0-4-1.8-4-4v-1h40v1c0 2.2-1.8 4-4 4z"/><path d="M259.5 464.5c.1-.8.2-1.6.2-2.5 0-4.1-3.7-7.4-3.7-7.4s-3.7 3.3-3.7 7.4c0 .9.1 1.7.2 2.5h7z" fill="#eec646"/><path class="st4" d="M257.9 460.1c0 2-.8 3.7-1.9 3.7-1 0-1.9-1.7-1.9-3.7s1.9-3.7 1.9-3.7 1.9 1.7 1.9 3.7z"/><path d="M260.5 468h-9c-1.1 0-2-.9-2-2v-3c0-1.1.9-2 2-2h9c1.1 0 2 .9 2 2v3c0 1.1-.9 2-2 2z" fill="#36434f"/><path class="st4" d="M256 0C110.1 0 63 79 63.5 144.5 64.1 227.6 91 278 211 407l12 32.9h66l12-32.9c120-129 146.9-179.4 147.5-262.5C449 79 401.9 0 256 0z"/><path fill="#ad403b" d="M256 407h-45l12 32.9h66l12-32.9z"/><path class="st7" d="M83.5 144.5c.6 83.1 24.6 133.5 132.2 262.5h5.8c-91.9-129-112.5-179.4-113-262.5C108.1 79 144.2 0 256 0 125.3 0 83.1 79 83.5 144.5zM256 0c111.8 0 147.9 79 147.5 144.5-.5 83.1-21.1 133.5-113 262.5h5.8c107.5-129 131.6-179.4 132.2-262.5C428.9 79 386.7 0 256 0z"/><path class="st7" d="M256 0c54.9 0 72.7 79 72.5 144.5-.2 83.1-10.4 133.5-55.6 262.5h10.5c73.2-129 89.6-179.4 90-262.5C373.8 79 345.1 0 256 0zM138.5 144.5c.4 83.1 16.8 133.5 90 262.5H239c-45.2-129-55.3-179.4-55.6-262.5C183.3 79 201.1 0 256 0c-89.1 0-117.8 79-117.5 144.5z"/><path class="st7" d="M256 0c-20.8 0-27.6 79-27.5 144.5.1 83.1 3.9 133.5 21.1 262.5h12.8c17.1-129 21-179.4 21.1-262.5C283.6 79 276.8 0 256 0z"/><path class="st2" d="M79.7 220.7c-.6 2.5-1.2 5-1.6 7.5-1.3-3.4-2.5-6.8-3.6-10.1-1.1-3.4-2.1-6.7-3-10.1v-.1c-.9-3.3-1.7-6.7-2.5-10v-.1c-.7-3.3-1.4-6.7-1.9-10.1v-.2c-.3-1.6-.5-3.2-.7-4.8 0-.1 0-.2-.1-.4-.2-1.7-.5-3.3-.7-5v-.3c-.2-1.5-.3-3-.5-4.6 0-.2 0-.5-.1-.7-.2-1.6-.3-3.3-.4-4.9v-.4l-.3-4.5c0-.3 0-.7-.1-1-.1-1.6-.2-3.3-.2-4.9v-.4c-.1-1.5-.1-3.1-.1-4.6v-1.3c0-1.7-.1-3.3-.1-5C63 79 110.1 0 256 0c2.4 0 4.7 0 7 .1h.9c2 0 4.1.1 6.1.2h.3c4.5.2 8.8.4 13.1.7C182.7 43.5 88.9 184.3 79.7 220.7zM336 368.6c-3.8 4.3-7.7 8.6-11.7 13-.3.3-.6.7-.9 1-1 1.1-2 2.2-3.1 3.4-.6.7-1.2 1.3-1.8 2l-2.7 3c-.8.9-1.6 1.7-2.4 2.6s-1.6 1.7-2.4 2.6l-3 3.3c-.6.7-1.3 1.4-1.9 2.1-1.7 1.8-3.4 3.7-5.1 5.5L289 440l-18.5 28.3V483h1.5c2.2 0 4 1.8 4 4v21c0 .3 0 .5-.1.8-.1.5-.3 1-.6 1.4-.1.2-.3.4-.5.6-.4.4-.8.7-1.3.9s-1 .3-1.6.3h-32c-.6 0-1.1-.1-1.6-.3-.5-.2-.9-.5-1.3-.9-.2-.2-.3-.4-.5-.6-.3-.4-.5-.9-.6-1.4-.1-.3-.1-.5-.1-.8v-21c0-2.2 1.8-4 4-4h1.5v-14.9L223 439.9 211 407c-1.8-1.9-3.5-3.8-5.2-5.6-.6-.6-1.2-1.2-1.7-1.9-1.1-1.2-2.3-2.4-3.4-3.6-.7-.7-1.3-1.5-2-2.2-1-1.1-2-2.2-3-3.2-.7-.8-1.4-1.5-2.1-2.3-.9-1-1.9-2-2.8-3.1-.7-.8-1.4-1.6-2.1-2.3l-2.7-3c-.7-.8-1.4-1.5-2.1-2.3l-2.7-3c-.6-.7-1.3-1.4-1.9-2.1-1.3-1.5-2.6-2.9-3.9-4.4l-2.4-2.7c-.8-.9-1.6-1.8-2.3-2.6-.7-.8-1.5-1.7-2.2-2.5s-1.3-1.5-2-2.3c-.8-.9-1.5-1.7-2.2-2.6-.6-.7-1.2-1.4-1.9-2.1-.8-.9-1.5-1.7-2.2-2.6-.6-.7-1.2-1.4-1.8-2-.7-.9-1.5-1.7-2.2-2.6-.6-.6-1.1-1.3-1.6-1.9-.7-.9-1.5-1.8-2.2-2.6-.5-.6-.9-1.1-1.4-1.7-1.9-2.3-3.8-4.5-5.6-6.8v-.1c43.4 16.9 119.7 36.1 190.6 35.7zm-93.7 98.9h7.9c-.4-.4-.7-.9-.7-1.5v-3c0-1.1.9-2 2-2h.9c.4-2.7 2.2-5 3.1-5.9v-15.2h-31.3l18.1 27.6zm27.2 1h-27V483h27v-14.5zm18.3-28.6h-31.3v15.2c.9 1 2.7 3.2 3.1 5.9h.9c1.1 0 2 .9 2 2v3c0 .6-.3 1.1-.7 1.5h7.9l18.1-27.6z"/><path class="st2" d="M242.5 483v-14.5H256V0C110.1 0 63 79 63.5 144.5 64.1 227.6 91 278 211 407l12 32.9 18.5 28.3V483H240c-2.2 0-4 1.8-4 4v21c0 .3 0 .5.1.8.1.5.3 1 .6 1.4.1.2.3.4.5.6.4.4.8.7 1.3.9.5.2 1 .3 1.6.3h16v-29h-13.6zm-18.3-43.1h31.3v15.2c-.9 1-2.7 3.2-3.1 5.9h-.9c-1.1 0-2 .9-2 2v3c0 .6.3 1.1.7 1.5h-7.9l-18.1-27.6z"/></svg>