<svg version="1.1" xmlns="http://www.w3.org/2000/svg" x="0" y="0" viewBox="0 0 512 512" xml:space="preserve"><style type="text/css">.st0{fill:#36434f}.st1{fill:#ddd}.st2{fill:#2e86b7}.st3{fill:#cc584c}.st4{fill:#fff}</style><path class="st0" d="M256 278.3 78.4 320.8l-1 160.5h357.2l-1-160.5z"/><path class="st1" d="m427 468.2-4.3-41.5c-.9-8.9-8.5-15.7-17.5-15.7H106.8c-9 0-16.5 6.8-17.5 15.7L85 468.2c-.5 5.2 3.6 9.8 8.8 9.8h324.4c5.2 0 9.3-4.6 8.8-9.8z"/><path class="st2" d="M75 457.6c-.5.4-1.2.6-1.8.6-1.3 0-2.4-.7-2.9-1.9l-21.6-50.8c.6 9.6 2.5 19.1 5.7 28.2l15.8 44.8c2 5.6 10.3 4.3 10.5-1.7l.6-23.7-6.3 4.5zm.9-108.1c1.7 0 3.2-.6 4.5-1.8l3-2.8.7-.5.3-10.9L53 292l-4.5 10v11.1l21.9 33.5c1.2 1.8 3.2 2.9 5.5 2.9z"/><path class="st1" d="m76.2 459.3 5.1-3.6 2.8-112.1-5.1 4.7c-2.1 1.9-5.4 1.5-7-.9l-23.5-36v87.7c0 4.3.3 8.6.8 12.9l19.2 45.1c1.3 3 5 4.1 7.7 2.2z"/><path class="st3" d="m99 12-6.2-5.7c-3.4-3.1-8.9-2.1-10.9 2.1L66.6 40.2c-4.4 9.1-6.9 19.1-7.4 29.2L48.5 302l23.2 37.5c2.4 4.7 8.1 6.5 12.7 4L91 340l8-328z"/><path class="st2" d="M437 457.6c.5.4 1.2.6 1.8.6 1.3 0 2.4-.7 2.9-1.9l21.6-50.8c-.6 9.6-2.5 19.1-5.7 28.2l-15.8 44.8c-2 5.6-10.3 4.3-10.5-1.7l-.6-23.7 6.3 4.5zm-.9-108.1c-1.7 0-3.2-.6-4.5-1.8l-3-2.8-.7-.5-.3-10.9L459 292l4.5 10v11.1l-21.9 33.5c-1.2 1.8-3.2 2.9-5.5 2.9z"/><path class="st1" d="m435.8 459.3-5.1-3.6-2.8-112.1 5.1 4.7c2.1 1.9 5.4 1.5 7-.9l23.5-36v87.7c0 4.3-.3 8.6-.8 12.9l-19.2 45.1c-1.3 3-5 4.1-7.7 2.2z"/><path class="st3" d="m413 12 6.2-5.7c3.4-3.1 8.9-2.1 10.9 2.1l15.2 31.8c4.4 9.1 6.9 19.1 7.4 29.2L463.5 302l-23.2 37.5c-2.4 4.7-8.1 6.5-12.7 4L421 340l-8-328z"/><path class="st1" d="m431.6 149.3-5.2-131.8c-.1-1.3-.3-2.5-.7-3.7-1.4-4.4-6.1-6.9-10.6-6.2L256 34.8 97 7.6c-4.6-.8-9.2 1.8-10.6 6.2-.4 1.2-.6 2.4-.7 3.7l-5.2 131.8c-.3 7.1-.3 14.3-.2 21.4l4.1 165.1c.2 6.8 5.7 12.3 12.6 12.3h318.1c6.8 0 12.4-5.4 12.6-12.3l4.1-165.1c.1-7.1.1-14.3-.2-21.4z"/><path class="st0" d="m427.6 149.4-5.2-131.8c-.2-4.9-4.1-8.8-9-9.1C413.4 8.5 346 0 256 0S98.6 8.5 98.6 8.5c-4.9.3-8.8 4.2-9 9.1l-5.2 131.8c-.3 7-.3 14.1-.2 21.1l4.1 165.1c.1 4.7 3.9 8.4 8.6 8.4h318.2c4.7 0 8.5-3.7 8.6-8.4l4.1-165.1c.1-7 .1-14-.2-21.1z"/><path class="st4" d="M98.4 426.5c-1.6-.2-3.1 1-3.3 2.7l-3.6 34.4c-.2 1.6 1 3.1 2.7 3.3h.3c1.5 0 2.8-1.1 3-2.7l3.6-34.4c.1-1.7-1.1-3.2-2.7-3.3zm315.2 0c1.6-.2 3.1 1 3.3 2.7l3.6 34.4c.2 1.6-1 3.1-2.7 3.3h-.3c-1.5 0-2.8-1.1-3-2.7l-3.6-34.4c-.1-1.7 1.1-3.2 2.7-3.3z"/><path class="st0" d="m406.5 469.9-2.7-37.9c-.4-5.6-5.1-10-10.8-10h-4.3c-1.8 0-3.7-.4-5.4-1.2l-10.6-4.9c-2.5-1.2-5.2-1.8-8-1.8H147.2c-2.8 0-5.5.6-8 1.8l-10.6 4.9c-1.7.8-3.5 1.2-5.4 1.2h-4.3c-5.7 0-10.4 4.4-10.8 10l-2.7 37.9c-1.4 19.4 13.1 36.4 32.5 38.1l39.8 3.4c4.1.4 8.3.5 12.4.5h131.7c4.1 0 8.3-.2 12.4-.5L374 508c19.4-1.7 33.9-18.6 32.5-38.1z"/><path class="st4" d="M116.8 430.7c-.8 6.7-4 31.3-4.7 36.4-.1.5.3.9.8.9h.7c.5 0 .9-.4 1-.8l6.1-31.2c.1-.6 0-1.3-.4-1.8l-2.5-3.7c-.2-.6-.9-.4-1 .2zm278.4 0c.8 6.7 4 31.3 4.7 36.4.1.5-.3.9-.8.9h-.7c-.5 0-.9-.4-1-.8l-6.1-31.2c-.1-.6 0-1.3.4-1.8l2.5-3.7c.2-.6.9-.4 1 .2z"/><path d="M256 235c50.3 0 99.1-4.5 145.8-13 4-.7 6.8-4.4 6.5-8.5L396.3 58c-.5-6-5.5-10.6-11.5-10.6H127.2c-6 0-11 4.6-11.5 10.6l-11.9 155.5c-.3 4.1 2.5 7.7 6.5 8.5 46.6 8.5 95.4 13 145.7 13z" fill="#7193ad"/><circle class="st4" cx="161" cy="328.1" r="4"/><circle class="st4" cx="152" cy="327.6" r="4"/><circle class="st4" cx="143" cy="327" r="4"/><circle class="st4" cx="134" cy="326.4" r="4"/><circle class="st4" cx="125" cy="325.9" r="4"/><path class="st4" d="m145 314 10.9 1.4c1.6.2 2.6-1.6 1.7-2.9l-4.1-5.5c-4.8-6.4-11.9-10.8-19.8-12.2h-.3c-1.8-.3-3.2 1.7-2.2 3.3l7.4 11.8c1.4 2.2 3.8 3.8 6.4 4.1zm-22.6-2.9 10.9 1.4c1.5.2 2.5-1.4 1.7-2.7l-8-12.7c-1.5-2.4-4-4.1-6.8-4.6l-7.4-1.3c-2.3-.4-4 2.1-2.8 4.1l7.2 12.3c1.1 1.9 3 3.2 5.2 3.5z"/><path class="st4" d="M122 314c-3.1-.4-5.9-2.2-7.4-4.9l-9.6-16.5c-.9-1.6-2.7-2.6-4.6-2.6h-2.3c-1.4 0-2.3 1.5-1.6 2.8l8.9 15.8c2.3 4.1 6.4 6.8 11 7.4l43.4 5.7c.9.1 1.8-.6 1.8-1.6 0-.5-.4-.9-.9-1L122 314z"/><circle class="st4" cx="351" cy="328.1" r="4"/><circle class="st4" cx="360" cy="327.6" r="4"/><circle class="st4" cx="369" cy="327" r="4"/><circle class="st4" cx="378" cy="326.4" r="4"/><circle class="st4" cx="387" cy="325.9" r="4"/><path class="st4" d="m367 314-10.9 1.4c-1.6.2-2.6-1.6-1.7-2.9l4.1-5.5c4.8-6.4 11.9-10.8 19.8-12.2h.3c1.8-.3 3.2 1.7 2.2 3.3l-7.4 11.8c-1.4 2.2-3.8 3.8-6.4 4.1zm22.6-2.9-10.9 1.4c-1.5.2-2.5-1.4-1.7-2.7l8-12.7c1.5-2.4 4-4.1 6.8-4.6l7.4-1.3c2.3-.4 4 2.1 2.8 4.1l-7.2 12.3c-1.1 1.9-3 3.2-5.2 3.5z"/><path class="st4" d="M390 314c3.1-.4 5.9-2.2 7.4-4.9l9.6-16.5c.9-1.6 2.7-2.6 4.6-2.6h2.3c1.4 0 2.3 1.5 1.6 2.8l-8.9 15.8c-2.3 4.1-6.4 6.8-11 7.4l-43.4 5.7c-.9.1-1.8-.6-1.8-1.6 0-.5.4-.9.9-1L390 314z"/><path d="M256 0c-80.5 0-143 6.8-155.2 8.3L97 7.6c-.9-.2-1.9-.2-2.8-.1l-1.4-1.3c-3.4-3.1-8.9-2.1-10.9 2.1L66.6 40.2c-4.4 9.1-6.9 19.1-7.4 29.2L48.5 302v97.1c0 4.3.3 8.6.8 12.9v.1c.9 7.4 2.6 14.6 5.1 21.6l15.8 44.8c1.3 3.6 5.1 4.4 7.8 2.9h28.4c3.7 14.3 16 25.3 31.5 26.7l39.8 3.4c4.1.4 8.3.5 12.4.5H264V0h-8z" opacity=".15" fill="#444"/></svg>