<svg version="1.1" xmlns="http://www.w3.org/2000/svg" x="0" y="0" viewBox="0 0 512 512" xml:space="preserve"><path d="M247 313l9.7 22c.8 1.8 2.6 3 4.6 3h68.1c2.2 0 4.1-1.4 4.8-3.5L341 313h-94z" fill="#999"/><path d="M0 256c0 20 62.9 44.4 158.9 56.7 170 21.8 353.1-.3 353.1-56.7s-183.1-78.6-353.1-56.7C62.9 211.6 0 236 0 256z" fill="#ddd"/><path d="M65 279l-11.2 27.1c-1.4 3.3 1.1 6.9 4.6 6.9h33.4c3.3 0 6.6-1 9.3-3l26.8-19L65 279zm0-46l-11.2-27.1c-1.4-3.3 1.1-6.9 4.6-6.9h33.4c3.3 0 6.6 1 9.3 3l26.8 19L65 233z" fill="#f4f4f4"/><path d="M297 332h-6c-1.1 0-2-.9-2-2v-3c0-1.1.9-2 2-2h6c1.1 0 2 .9 2 2v3c0 1.1-.9 2-2 2zm13 0h-6c-1.1 0-2-.9-2-2v-3c0-1.1.9-2 2-2h6c1.1 0 2 .9 2 2v3c0 1.1-.9 2-2 2zm13 0h-6c-1.1 0-2-.9-2-2v-3c0-1.1.9-2 2-2h6c1.1 0 2 .9 2 2v3c0 1.1-.9 2-2 2zm11.9 0l2.1-6.7c-.3-.2-.7-.3-1.1-.3h-6c-1.1 0-2 .9-2 2v3c0 1.1.9 2 2 2h5z" fill="#36434f"/><path d="M59.4 292.6l-5.6 13.5c-1.4 3.3 1.1 6.9 4.6 6.9h33.4c3.3 0 6.6-1 9.3-3l7.6-5.4c15.4 3 32.2 5.8 50.1 8.1 30.4 3.9 61.2 6.4 91.3 7.6l6.5 14.7c.8 1.8 2.6 3 4.6 3h68.1c2.2 0 4.1-1.4 4.8-3.5l4.8-14.9C437.2 314.1 512 292 512 256H0c0 11.8 21.8 25.1 59.4 36.6z" opacity=".15" fill="#444"/></svg>