<svg version="1.1" xmlns="http://www.w3.org/2000/svg" x="0" y="0" viewBox="0 0 512 512" xml:space="preserve"><style type="text/css">.st0{fill:#ffa000}</style><path class="st0" d="M247 313l9.7 22c.8 1.8 2.6 3 4.6 3h68.1c2.2 0 4.1-1.4 4.8-3.5L341 313h-94z"/><path d="M0 256c0 20 62.9 44.4 158.9 56.7 170 21.8 353.1-.3 353.1-56.7s-183.1-78.6-353.1-56.7C62.9 211.6 0 236 0 256z" fill="#eec646"/><path class="st0" d="M65 279l-11.2 27.1c-1.4 3.3 1.1 6.9 4.6 6.9h33.4c3.3 0 6.6-1 9.3-3l26.8-19L65 279zm0-46l-11.2-27.1c-1.4-3.3 1.1-6.9 4.6-6.9h33.4c3.3 0 6.6 1 9.3 3l26.8 19L65 233z"/><path d="M297 332h-6c-1.1 0-2-.9-2-2v-3c0-1.1.9-2 2-2h6c1.1 0 2 .9 2 2v3c0 1.1-.9 2-2 2zm13 0h-6c-1.1 0-2-.9-2-2v-3c0-1.1.9-2 2-2h6c1.1 0 2 .9 2 2v3c0 1.1-.9 2-2 2zm13 0h-6c-1.1 0-2-.9-2-2v-3c0-1.1.9-2 2-2h6c1.1 0 2 .9 2 2v3c0 1.1-.9 2-2 2zm11.9 0l2.1-6.7c-.3-.2-.7-.3-1.1-.3h-6c-1.1 0-2 .9-2 2v3c0 1.1.9 2 2 2h5z" fill="#36434f"/><path d="M158.9 284.4c170 10.9 353.1-.2 353.1-28.4H0c0 10 62.9 22.2 158.9 28.4z" fill="#e49003"/><path class="st0" d="M158.9 227.6C62.9 233.8 0 246 0 256h512c0-28.2-183.1-39.3-353.1-28.4z"/></svg>