<svg version="1.1" xmlns="http://www.w3.org/2000/svg" x="0" y="0" viewBox="0 0 512 512" xml:space="preserve"><style type="text/css">.st0{fill:#ffa000}</style><path class="st0" d="M247 313l9.7 22c.8 1.8 2.6 3 4.6 3h68.1c2.2 0 4.1-1.4 4.8-3.5L341 313h-94z"/><path d="M0 256c0 20 62.9 44.4 158.9 56.7 170 21.8 353.1-.3 353.1-56.7s-183.1-78.6-353.1-56.7C62.9 211.6 0 236 0 256z" fill="#eec646"/><path class="st0" d="M65 279l-11.2 27.1c-1.4 3.3 1.1 6.9 4.6 6.9h33.4c3.3 0 6.6-1 9.3-3l26.8-19L65 279zm0-46l-11.2-27.1c-1.4-3.3 1.1-6.9 4.6-6.9h33.4c3.3 0 6.6 1 9.3 3l26.8 19L65 233z"/><path d="M297 332h-6c-1.1 0-2-.9-2-2v-3c0-1.1.9-2 2-2h6c1.1 0 2 .9 2 2v3c0 1.1-.9 2-2 2zm13 0h-6c-1.1 0-2-.9-2-2v-3c0-1.1.9-2 2-2h6c1.1 0 2 .9 2 2v3c0 1.1-.9 2-2 2zm13 0h-6c-1.1 0-2-.9-2-2v-3c0-1.1.9-2 2-2h6c1.1 0 2 .9 2 2v3c0 1.1-.9 2-2 2zm11.9 0l2.1-6.7c-.3-.2-.7-.3-1.1-.3h-6c-1.1 0-2 .9-2 2v3c0 1.1.9 2 2 2h5z" fill="#36434f"/><path d="M0 256c0 13.8 62.9 30.7 158.9 39.3 170 15 353.1-.3 353.1-39.3s-183.1-54.4-353.1-39.3C62.9 225.3 0 242.1 0 256z" fill="#f4ba2f"/><path d="M0 256c0 7.7 62.9 17.1 158.9 21.8 170 8.4 353.1-.1 353.1-21.8s-183.1-30.2-353.1-21.8C62.9 238.9 0 248.3 0 256z" fill="#f9ae19"/><path class="st0" d="M0 256c0 1.5 62.9 3.4 158.9 4.4 170 1.7 353.1 0 353.1-4.4s-183.1-6-353.1-4.4C62.9 252.6 0 254.4 0 256z"/></svg>