<svg xmlns="http://www.w3.org/2000/svg" viewBox="0 0 512 512" xml:space="preserve"><style>.st0{fill:#bbb}.st1{fill:#36434f}.st2{fill:#999}.st3{fill:#ddd}</style><path class="st0" d="m258.4 171.3-1.4-3.4c-.3-.8-1.5-.8-1.8 0l-1.4 3.4c-.4 1-.6 2-.6 3.1l-1 103.4h8l-1-103.4c-.2-1.1-.4-2.2-.8-3.1zm4.6 109.4 93.8-10.9c2.4-.3 3.1 3.1.9 3.9l-3.9 1.3c-3.2 1.1-6.5 2-9.9 2.6L269 290.7l-6-10zm-14 0-93.8-10.9c-2.4-.3-3.1 3.1-.9 3.9l3.9 1.3c3.2 1.1 6.5 2 9.9 2.6l74.9 13.1 6-10zm7 29v20.5h20.1c1 0 2-.4 2.7-1.1l3.9-3.6c1.3-1.2 2.9-1.9 4.6-2.1l201.9-22.6c6.4-.7 11.7-5.1 13.6-11.2l9.2-30.3c.2-.6-.7-.9-.9-.3l-10.6 28.7c-2.3 5.5-7.5 9.3-13.5 9.8l-136.7 11.2c-16.3 1.3-32.8 1.9-49.2 1.7l-45.1-.7z"/><path class="st0" d="M259 326.7h2v9h-2z"/><path class="st1" d="M260.3 333.9h-.5c-1.1 0-2 .9-2 2v6.8c0 1.1.9 2 2 2h.5c1.1 0 2-.9 2-2v-6.8c0-1.1-.9-2-2-2z"/><path class="st0" d="M290 321.7h2v14h-2z"/><path class="st1" d="M291.5 332.7h-1c-1.1 0-2 .9-2 2v8c0 1.1.9 2 2 2h1c1.1 0 2-.9 2-2v-8c0-1.1-.9-2-2-2z"/><path class="st0" d="M301 319.7h2v16h-2z"/><path class="st1" d="M302.5 332.7h-1c-1.1 0-2 .9-2 2v8c0 1.1.9 2 2 2h1c1.1 0 2-.9 2-2v-8c0-1.1-.9-2-2-2z"/><ellipse class="st0" cx="349" cy="317.2" rx="4" ry="2.5"/><ellipse class="st0" cx="386" cy="313.2" rx="4" ry="2.5"/><path class="st2" d="M324.5 307.7h-1c-10.2 0-18.5 11-18.5 16.5 0 12.5 8.3 16.5 18.5 16.5h1c10.2 0 18.5-4 18.5-16.5 0-5.5-8.3-16.5-18.5-16.5z"/><ellipse class="st1" cx="324" cy="326.7" rx="10" ry="9"/><path class="st3" d="M324 336.7c-6.1 0-11-4.5-11-10s4.9-10 11-10 11 4.5 11 10-4.9 10-11 10zm0-18c-5 0-9 3.6-9 8s4 8 9 8 9-3.6 9-8-4-8-9-8z"/><circle class="st2" cx="324" cy="326.7" r="3"/><path class="st0" d="M256 309.7v20.5h-20.1c-1 0-2-.4-2.7-1.1l-3.9-3.6c-1.3-1.2-2.9-1.9-4.6-2.1L22.8 300.9c-6.4-.7-11.7-5.1-13.6-11.2L0 259.4c-.2-.6.7-.9.9-.3l10.6 28.7c2.3 5.5 7.5 9.3 13.5 9.8l136.7 11.2c16.3 1.3 32.8 1.9 49.2 1.7l45.1-.8z"/><path class="st0" d="M251 326.8h2v9h-2z"/><path class="st1" d="M251.8 333.9h.5c1.1 0 2 .9 2 2v6.8c0 1.1-.9 2-2 2h-.5c-1.1 0-2-.9-2-2v-6.8c0-1.1.8-2 2-2z"/><path class="st0" d="M220 321.8h2v14h-2z"/><path class="st1" d="M220.5 332.7h1c1.1 0 2 .9 2 2v8c0 1.1-.9 2-2 2h-1c-1.1 0-2-.9-2-2v-8c0-1.1.9-2 2-2z"/><path class="st0" d="M209 319.8h2v16h-2z"/><path class="st1" d="M209.5 332.7h1c1.1 0 2 .9 2 2v8c0 1.1-.9 2-2 2h-1c-1.1 0-2-.9-2-2v-8c0-1.1.9-2 2-2z"/><ellipse class="st0" cx="163" cy="317.2" rx="4" ry="2.5"/><ellipse class="st0" cx="126" cy="313.2" rx="4" ry="2.5"/><path class="st2" d="M187.5 307.7h1c10.2 0 18.5 11 18.5 16.5 0 12.5-8.3 16.5-18.5 16.5h-1c-10.2 0-18.5-4-18.5-16.5 0-5.5 8.3-16.5 18.5-16.5z"/><ellipse class="st1" cx="188" cy="326.7" rx="10" ry="9"/><path class="st3" d="M177 326.7c0-5.5 4.9-10 11-10s11 4.5 11 10-4.9 10-11 10-11-4.5-11-10zm2 0c0 4.4 4 8 9 8s9-3.6 9-8-4-8-9-8-9 3.6-9 8z"/><circle class="st2" cx="188" cy="326.7" r="3"/><ellipse class="st3" cx="256" cy="302" rx="25" ry="28.3"/><path class="st1" d="M256.6 290.7h7v5h-7zm-8.1 0h7v5h-7zm-5.8 1.6-1.6 2c-.6.8-.6 1.9.1 2.7l.3.3c.8.8 2 .8 2.8 0l.5-.5-2.1-4.5zm4.8-1.6H245c-.6 0-1.2.3-1.5.7l2.3 4.6c.3-.2.7-.3 1.1-.3h.7v-5h-.1zm23.4 3.6-1.6-2-2.2 4.5.5.5c.8.8 2 .8 2.8 0l.3-.3c.8-.7.8-1.9.2-2.7zm-2.3-2.8c-.4-.5-1-.8-1.6-.8h-2.5v5h.6c.4 0 .8.1 1.1.4l2.4-4.6z"/><path class="st0" d="M265.5 306.7c0 6.6-4.3 15-9.5 15s-9.5-8.4-9.5-15 4.3-9 9.5-9 9.5 2.4 9.5 9z"/></svg>