<svg version="1.1" xmlns="http://www.w3.org/2000/svg" x="0" y="0" viewBox="0 0 512 512" xml:space="preserve"><style type="text/css">.st0{fill:#bbb}.st1{opacity:.5;fill:#fff}.st2{fill:#ddd}.st3{opacity:.15;fill:#444;enable-background:new}.st4{fill:#36434f}</style><path class="st0" d="m157.4 166.2-.9.3c-1.5.6-2.6 2.1-2.6 3.7v15.5c0 1.6 1 3.1 2.6 3.7l.9.3c3.7 1.4 7.6 2.2 11.6 2.2h20.2c2.5 0 4.9-.6 7.2-1.7l1.4-.7c1.4-.7 2.2-2.1 2.2-3.6V170c0-1.5-.9-2.9-2.2-3.6l-1.4-.7c-2.2-1.1-4.7-1.7-7.2-1.7H169c-4 0-7.9.7-11.6 2.2z"/><path class="st0" d="M194.3 169.2h19.9v17.6h-19.9z"/><path class="st1" d="M157.6 166.1c-.1 0-.1.1-.2.1l-.9.3c-1.5.6-2.6 2.1-2.6 3.7v15.5c0 1.6 1 3.1 2.6 3.7l.9.3c.1 0 .1.1.2.1v-23.7z"/><path class="st0" d="M274.5 141H266v4h8.5c1 0 2-.2 3-.6l2.4-1c.4-.2.4-.8 0-.9l-2.4-1c-1-.3-2-.5-3-.5zm-12 33H254v4h8.5c1 0 2-.2 3-.6l2.4-1c.4-.2.4-.8 0-.9l-2.4-1c-1-.3-2-.5-3-.5zm3 13H257v4h8.5c1 0 2-.2 3-.6l2.4-1c.4-.2.4-.8 0-.9l-2.4-1c-1-.3-2-.5-3-.5zm26-96H283v4h8.5c1 0 2-.2 3-.6l2.4-1c.4-.2.4-.8 0-.9l-2.4-1c-1-.3-2-.5-3-.5z"/><path class="st2" d="M304.3 23h-9.1c-6 0-11.4 3.3-14.2 8.6L180.4 224.2c-1.4 2.6-4.1 4.3-7.1 4.3h-4v7H259V168l48.1-141c.7-2-.7-4-2.8-4z"/><path class="st3" d="M179.7 225.3c-1.5 2-3.8 3.2-6.4 3.2h-4v7H259v-17.8l-79.3 7.6z"/><path class="st2" d="M318 25h-23c-.6 0-1-.4-1-1s.4-1 1-1h23c.6 0 1 .4 1 1s-.4 1-1 1z"/><path class="st0" d="m157.4 345.8-.9-.3c-1.5-.6-2.6-2.1-2.6-3.7v-15.5c0-1.6 1-3.1 2.6-3.7l.9-.3c3.7-1.4 7.6-2.2 11.6-2.2h20.2c2.5 0 4.9.6 7.2 1.7l1.4.7c1.4.7 2.2 2.1 2.2 3.6V342c0 1.5-.9 2.9-2.2 3.6l-1.4.7c-2.2 1.1-4.7 1.7-7.2 1.7H169c-4 0-7.9-.7-11.6-2.2z"/><path class="st0" d="M194.3 325.2h19.9v17.6h-19.9z"/><path class="st1" d="M157.6 345.9c-.1 0-.1-.1-.2-.1l-.9-.3c-1.5-.6-2.6-2.1-2.6-3.7v-15.5c0-1.6 1-3.1 2.6-3.7l.9-.3c.1 0 .1-.1.2-.1v23.7z"/><path class="st0" d="M274.5 371H266v-4h8.5c1 0 2 .2 3 .6l2.4 1c.4.2.4.8 0 .9l-2.4 1c-1 .3-2 .5-3 .5zm-12-33H254v-4h8.5c1 0 2 .2 3 .6l2.4 1c.4.2.4.8 0 .9l-2.4 1c-1 .3-2 .5-3 .5zm3-13H257v-4h8.5c1 0 2 .2 3 .6l2.4 1c.4.2.4.8 0 .9l-2.4 1c-1 .3-2 .5-3 .5zm26 96H283v-4h8.5c1 0 2 .2 3 .6l2.4 1c.4.2.4.8 0 .9l-2.4 1c-1 .3-2 .5-3 .5z"/><path class="st2" d="M304.3 489h-9.1c-6 0-11.4-3.3-14.2-8.6L180.4 287.8c-1.4-2.6-4.1-4.3-7.1-4.3h-4v-7H259V344l48.1 141c.7 2-.7 4-2.8 4z"/><path class="st3" d="M179.7 286.7c-1.5-2-3.8-3.2-6.4-3.2h-4v-7H259v17.8l-79.3-7.6z"/><path class="st2" d="M318 487h-23c-.6 0-1 .4-1 1s.4 1 1 1h23c.6 0 1-.4 1-1s-.4-1-1-1zm194-231c0-4.5-9.7-8.4-24.3-10.6l18.2-74.9c.3-1.3-.6-2.5-1.9-2.5h-6.6c-5.3 0-10.2 2.6-13.2 6.9L445.5 231c-3.7 5.4-10.4 8-16.7 6.5-21.8-5-46.9-9-68.2-9h-292C30.7 228.5 0 249.1 0 256s30.7 27.5 68.5 27.5h292c21.3 0 46.4-4 68.2-9 6.4-1.5 13 1.1 16.7 6.5l38.8 56.1c3 4.3 7.9 6.9 13.2 6.9h6.6c1.3 0 2.2-1.2 1.9-2.5l-18.2-74.9c14.6-2.2 24.3-6.1 24.3-10.6z"/><path class="st0" d="M450.3 251.8c-18.8 0-48.9 2-66 3.3-1.2.1-1.2 1.9 0 2 17.1 1.3 47.3 3.3 66 3.3 18.8 0 41.8-2 54.4-3.3 1.2-.1 1.2-1.9 0-2-12.7-1.4-35.7-3.3-54.4-3.3z"/><path class="st4" d="M19 255c.4-4.5 3.3-8.7 8.1-12.5l4 4c-3.5 2.6-5.7 5.4-6.1 8.5h-6zm18 13.9c-1.5-.7-2.9-1.5-4.2-2.3l-4.1 4.1c2.4 1.6 5.1 3.2 8.2 4.6v-6.4zM25.1 257h-6c.4 4.5 3.3 8.7 8.1 12.5l4-4c-3.6-2.6-5.7-5.5-6.1-8.5zM39 235.9v6.3c2.5-1.1 5.3-2.1 8.3-3V233c-2.9.8-5.7 1.8-8.3 2.9zm0 40.2c2.6 1.1 5.4 2.1 8.3 3v-6.2c-3-.9-5.8-2-8.3-3v6.2zm-10.2-34.8 4.1 4.1c1.3-.8 2.7-1.6 4.2-2.3v-6.4c-3.2 1.5-6 3-8.3 4.6z"/><ellipse class="st4" cx="86" cy="231" rx="2" ry="1"/><ellipse class="st4" cx="93" cy="231" rx="2" ry="1"/><ellipse class="st4" cx="100" cy="231" rx="2" ry="1"/><ellipse class="st4" cx="107" cy="231" rx="2" ry="1"/><ellipse class="st4" cx="114" cy="231" rx="2" ry="1"/><ellipse class="st4" cx="121" cy="231" rx="2" ry="1"/><ellipse class="st4" cx="132" cy="231" rx="2" ry="1"/><ellipse class="st4" cx="138.9" cy="231" rx="2" ry="1"/><ellipse class="st4" cx="145.8" cy="231" rx="2" ry="1"/><ellipse class="st4" cx="152.6" cy="231" rx="2" ry="1"/><ellipse class="st4" cx="159.5" cy="231" rx="2" ry="1"/><ellipse class="st4" cx="166.4" cy="231" rx="2" ry="1"/><ellipse class="st4" cx="173.3" cy="231" rx="2" ry="1"/><ellipse class="st4" cx="180.1" cy="231" rx="2" ry="1"/><ellipse class="st4" cx="187" cy="231" rx="2" ry="1"/><ellipse class="st4" cx="197.1" cy="231" rx="2" ry="1"/><ellipse class="st4" cx="208" cy="231" rx="2" ry="1"/><ellipse class="st4" cx="217" cy="231" rx="2" ry="1"/><ellipse class="st4" cx="224" cy="231" rx="2" ry="1"/><ellipse class="st4" cx="231" cy="231" rx="2" ry="1"/><ellipse class="st4" cx="238" cy="231" rx="2" ry="1"/><ellipse class="st4" cx="245" cy="231" rx="2" ry="1"/><ellipse class="st4" cx="252" cy="231" rx="2" ry="1"/><ellipse class="st4" cx="259" cy="231" rx="2" ry="1"/><ellipse class="st4" cx="266" cy="231" rx="2" ry="1"/><ellipse class="st4" cx="273" cy="231" rx="2" ry="1"/><ellipse class="st4" cx="280" cy="231" rx="2" ry="1"/><ellipse class="st4" cx="287" cy="231" rx="2" ry="1"/><ellipse class="st4" cx="294" cy="231" rx="2" ry="1"/><ellipse class="st4" cx="301" cy="231" rx="2" ry="1"/><ellipse class="st4" cx="308" cy="231" rx="2" ry="1"/><ellipse class="st4" cx="315" cy="231" rx="2" ry="1"/><ellipse class="st4" cx="322" cy="231" rx="2" ry="1"/><ellipse class="st4" cx="329" cy="231" rx="2" ry="1"/><ellipse class="st4" cx="336" cy="231" rx="2" ry="1"/><ellipse class="st4" cx="343" cy="231" rx="2" ry="1"/><ellipse class="st4" cx="350" cy="231" rx="2" ry="1"/><ellipse class="st4" cx="86" cy="281" rx="2" ry="1"/><ellipse class="st4" cx="93" cy="281" rx="2" ry="1"/><ellipse class="st4" cx="100" cy="281" rx="2" ry="1"/><ellipse class="st4" cx="107" cy="281" rx="2" ry="1"/><ellipse class="st4" cx="114" cy="281" rx="2" ry="1"/><ellipse class="st4" cx="121" cy="281" rx="2" ry="1"/><ellipse class="st4" cx="132" cy="281" rx="2" ry="1"/><ellipse class="st4" cx="138.9" cy="281" rx="2" ry="1"/><ellipse class="st4" cx="145.8" cy="281" rx="2" ry="1"/><ellipse class="st4" cx="152.6" cy="281" rx="2" ry="1"/><ellipse class="st4" cx="159.5" cy="281" rx="2" ry="1"/><ellipse class="st4" cx="166.4" cy="281" rx="2" ry="1"/><ellipse class="st4" cx="173.3" cy="281" rx="2" ry="1"/><ellipse class="st4" cx="180.1" cy="281" rx="2" ry="1"/><ellipse class="st4" cx="187" cy="281" rx="2" ry="1"/><ellipse class="st4" cx="197.1" cy="281" rx="2" ry="1"/><ellipse class="st4" cx="208" cy="281" rx="2" ry="1"/><ellipse class="st4" cx="217" cy="281" rx="2" ry="1"/><ellipse class="st4" cx="224" cy="281" rx="2" ry="1"/><ellipse class="st4" cx="231" cy="281" rx="2" ry="1"/><ellipse class="st4" cx="238" cy="281" rx="2" ry="1"/><ellipse class="st4" cx="245" cy="281" rx="2" ry="1"/><ellipse class="st4" cx="252" cy="281" rx="2" ry="1"/><ellipse class="st4" cx="259" cy="281" rx="2" ry="1"/><ellipse class="st4" cx="266" cy="281" rx="2" ry="1"/><ellipse class="st4" cx="273" cy="281" rx="2" ry="1"/><ellipse class="st4" cx="280" cy="281" rx="2" ry="1"/><ellipse class="st4" cx="287" cy="281" rx="2" ry="1"/><ellipse class="st4" cx="294" cy="281" rx="2" ry="1"/><ellipse class="st4" cx="301" cy="281" rx="2" ry="1"/><ellipse class="st4" cx="308" cy="281" rx="2" ry="1"/><ellipse class="st4" cx="315" cy="281" rx="2" ry="1"/><ellipse class="st4" cx="322" cy="281" rx="2" ry="1"/><ellipse class="st4" cx="329" cy="281" rx="2" ry="1"/><ellipse class="st4" cx="336" cy="281" rx="2" ry="1"/><ellipse class="st4" cx="343" cy="281" rx="2" ry="1"/><ellipse class="st4" cx="350" cy="281" rx="2" ry="1"/></svg>