<svg xmlns="http://www.w3.org/2000/svg" viewBox="0 0 512 512" xml:space="preserve"><style>.st0{fill:#ddd}.st1{fill:#bbb}.st2{opacity:.15;fill:#444;enable-background:new}.st3{opacity:.5;fill:#fff}.st5{fill:#36434f}</style><path class="st0" d="m437 242 49.8-69c4.5-6.3 11.8-10 19.5-10h5.7l-29 92-46-13zm0 28 49.8 69c4.5 6.3 11.8 10 19.5 10h5.7l-29-92-46 13z"/><path class="st1" d="M195 179c-7.3 0-14.1 1.3-17.9 2.2-1.8.4-3.1 2-3.1 3.9v15.8c0 1.9 1.3 3.5 3.1 3.9 3.8.9 10.6 2.2 17.9 2.2 8.8 0 32.3-1.9 41.3-2.7 2.1-.2 3.7-1.9 3.7-4v-14.6c0-2.1-1.6-3.8-3.7-4-9-.8-32.5-2.7-41.3-2.7z"/><path class="st0" d="M278 236v-51l43.1-147.8c.6-2 2-3.7 3.8-4.8L340 24h-9.5c-12 0-23 6.7-28.4 17.3l-58.9 114.2c-9.4 18.3-20 36-31.5 53L193 236h85z"/><path class="st2" d="M199.7 226.1 193 236h85v-18z"/><path class="st3" d="M177 181.2c-1.8.5-3 2-3 3.9v15.8c0 1.8 1.2 3.4 3 3.9v-23.6z"/><path class="st1" d="M195 333c-7.3 0-14.1-1.3-17.9-2.2-1.8-.4-3.1-2-3.1-3.9v-15.8c0-1.9 1.3-3.5 3.1-3.9 3.8-.9 10.6-2.2 17.9-2.2 8.8 0 32.3 1.9 41.3 2.7 2.1.2 3.7 1.9 3.7 4v14.6c0 2.1-1.6 3.8-3.7 4-9 .8-32.5 2.7-41.3 2.7z"/><path class="st0" d="M278 276v51l43.1 147.8c.6 2 2 3.7 3.8 4.8L340 488h-9.5c-12 0-23-6.7-28.4-17.3l-58.9-114.2c-9.4-18.3-20-36-31.5-53L193 276h85z"/><path class="st2" d="M199.7 285.9 193 276h85v18z"/><path class="st3" d="M177 330.8c-1.8-.5-3-2-3-3.9v-15.8c0-1.8 1.2-3.4 3-3.9v23.6z"/><path class="st0" d="M491.9 255c-15.1-4.6-80.1-24-96.4-24h-300C42.8 231 0 249.5 0 256s42.8 25 95.5 25h300c16.3 0 81.3-19.5 96.4-24 .9-.3.9-1.7 0-2z"/><path d="M410 251c-11.4 1.3-15.6 3.1-17.1 4.2-.6.4-.6 1.3 0 1.7 1.5 1 5.7 2.8 17.1 4.2 12.9 1.5 54.6-2.2 74-4 1.2-.1 1.2-1.9 0-2-19.4-1.9-61.1-5.6-74-4.1z" fill="#999"/><ellipse class="st5" cx="100.5" cy="234.5" rx="2.5" ry="1.5"/><ellipse class="st5" cx="106.8" cy="234.5" rx="2.5" ry="1.5"/><ellipse class="st5" cx="113" cy="234.5" rx="2.5" ry="1.5"/><ellipse class="st5" cx="119.3" cy="234.5" rx="2.5" ry="1.5"/><ellipse class="st5" cx="125.6" cy="234.5" rx="2.5" ry="1.5"/><ellipse class="st5" cx="131.9" cy="234.5" rx="2.5" ry="1.5"/><ellipse class="st5" cx="138.1" cy="234.5" rx="2.5" ry="1.5"/><ellipse class="st5" cx="144.4" cy="234.5" rx="2.5" ry="1.5"/><ellipse class="st5" cx="150.7" cy="234.5" rx="2.5" ry="1.5"/><ellipse class="st5" cx="157" cy="234.5" rx="2.5" ry="1.5"/><ellipse class="st5" cx="163.2" cy="234.5" rx="2.5" ry="1.5"/><ellipse class="st5" cx="169.5" cy="234.5" rx="2.5" ry="1.5"/><ellipse class="st5" cx="182.5" cy="234.5" rx="2.5" ry="1.5"/><ellipse class="st5" cx="189.3" cy="234.5" rx="2.5" ry="1.5"/><ellipse class="st5" cx="196" cy="234.5" rx="2.5" ry="1.5"/><ellipse class="st5" cx="209.5" cy="234.5" rx="2.5" ry="1.5"/><ellipse class="st5" cx="216.1" cy="234.5" rx="2.5" ry="1.5"/><ellipse class="st5" cx="222.8" cy="234.5" rx="2.5" ry="1.5"/><ellipse class="st5" cx="229.4" cy="234.5" rx="2.5" ry="1.5"/><ellipse class="st5" cx="236" cy="234.5" rx="2.5" ry="1.5"/><ellipse class="st5" cx="242.7" cy="234.5" rx="2.5" ry="1.5"/><ellipse class="st5" cx="249.3" cy="234.5" rx="2.5" ry="1.5"/><ellipse class="st5" cx="256" cy="234.5" rx="2.5" ry="1.5"/><ellipse class="st5" cx="262.6" cy="234.5" rx="2.5" ry="1.5"/><ellipse class="st5" cx="269.2" cy="234.5" rx="2.5" ry="1.5"/><ellipse class="st5" cx="275.9" cy="234.5" rx="2.5" ry="1.5"/><ellipse class="st5" cx="282.5" cy="234.5" rx="2.5" ry="1.5"/><ellipse class="st5" cx="301.5" cy="234.5" rx="2.5" ry="1.5"/><ellipse class="st5" cx="308.1" cy="234.5" rx="2.5" ry="1.5"/><ellipse class="st5" cx="314.8" cy="234.5" rx="2.5" ry="1.5"/><ellipse class="st5" cx="321.4" cy="234.5" rx="2.5" ry="1.5"/><ellipse class="st5" cx="328" cy="234.5" rx="2.5" ry="1.5"/><ellipse class="st5" cx="334.7" cy="234.5" rx="2.5" ry="1.5"/><ellipse class="st5" cx="341.3" cy="234.5" rx="2.5" ry="1.5"/><ellipse class="st5" cx="348" cy="234.5" rx="2.5" ry="1.5"/><ellipse class="st5" cx="354.6" cy="234.5" rx="2.5" ry="1.5"/><ellipse class="st5" cx="361.2" cy="234.5" rx="2.5" ry="1.5"/><ellipse class="st5" cx="367.9" cy="234.5" rx="2.5" ry="1.5"/><ellipse class="st5" cx="374.5" cy="234.5" rx="2.5" ry="1.5"/><ellipse class="st5" cx="100.5" cy="277.5" rx="2.5" ry="1.5"/><ellipse class="st5" cx="106.8" cy="277.5" rx="2.5" ry="1.5"/><ellipse class="st5" cx="113" cy="277.5" rx="2.5" ry="1.5"/><ellipse class="st5" cx="119.3" cy="277.5" rx="2.5" ry="1.5"/><ellipse class="st5" cx="125.6" cy="277.5" rx="2.5" ry="1.5"/><ellipse class="st5" cx="131.9" cy="277.5" rx="2.5" ry="1.5"/><ellipse class="st5" cx="138.1" cy="277.5" rx="2.5" ry="1.5"/><ellipse class="st5" cx="144.4" cy="277.5" rx="2.5" ry="1.5"/><ellipse class="st5" cx="150.7" cy="277.5" rx="2.5" ry="1.5"/><ellipse class="st5" cx="157" cy="277.5" rx="2.5" ry="1.5"/><ellipse class="st5" cx="163.2" cy="277.5" rx="2.5" ry="1.5"/><ellipse class="st5" cx="169.5" cy="277.5" rx="2.5" ry="1.5"/><ellipse class="st5" cx="182.5" cy="277.5" rx="2.5" ry="1.5"/><ellipse class="st5" cx="189.3" cy="277.5" rx="2.5" ry="1.5"/><ellipse class="st5" cx="196" cy="277.5" rx="2.5" ry="1.5"/><ellipse class="st5" cx="209.5" cy="277.5" rx="2.5" ry="1.5"/><ellipse class="st5" cx="216.1" cy="277.5" rx="2.5" ry="1.5"/><ellipse class="st5" cx="222.8" cy="277.5" rx="2.5" ry="1.5"/><ellipse class="st5" cx="229.4" cy="277.5" rx="2.5" ry="1.5"/><ellipse class="st5" cx="236" cy="277.5" rx="2.5" ry="1.5"/><ellipse class="st5" cx="242.7" cy="277.5" rx="2.5" ry="1.5"/><ellipse class="st5" cx="249.3" cy="277.5" rx="2.5" ry="1.5"/><ellipse class="st5" cx="256" cy="277.5" rx="2.5" ry="1.5"/><ellipse class="st5" cx="262.6" cy="277.5" rx="2.5" ry="1.5"/><ellipse class="st5" cx="269.2" cy="277.5" rx="2.5" ry="1.5"/><ellipse class="st5" cx="275.9" cy="277.5" rx="2.5" ry="1.5"/><ellipse class="st5" cx="282.5" cy="277.5" rx="2.5" ry="1.5"/><ellipse class="st5" cx="301.5" cy="277.5" rx="2.5" ry="1.5"/><ellipse class="st5" cx="308.1" cy="277.5" rx="2.5" ry="1.5"/><ellipse class="st5" cx="314.8" cy="277.5" rx="2.5" ry="1.5"/><ellipse class="st5" cx="321.4" cy="277.5" rx="2.5" ry="1.5"/><ellipse class="st5" cx="328" cy="277.5" rx="2.5" ry="1.5"/><ellipse class="st5" cx="334.7" cy="277.5" rx="2.5" ry="1.5"/><ellipse class="st5" cx="341.3" cy="277.5" rx="2.5" ry="1.5"/><ellipse class="st5" cx="348" cy="277.5" rx="2.5" ry="1.5"/><ellipse class="st5" cx="354.6" cy="277.5" rx="2.5" ry="1.5"/><ellipse class="st5" cx="361.2" cy="277.5" rx="2.5" ry="1.5"/><ellipse class="st5" cx="367.9" cy="277.5" rx="2.5" ry="1.5"/><ellipse class="st5" cx="374.5" cy="277.5" rx="2.5" ry="1.5"/><path class="st5" d="m38.3 245.2 5.1-2.7c.6-.3.2-1.1-.4-.9l-5.9 2.2 1.2 1.4zM29.5 264c.2.2.3.4.5.6l2.3-2c-.8-1.7-2-4.5-2.3-6.1h-5c.6 1.7 2.9 5.2 4.5 7.5zm.6-8.5c.2-1.6 1.5-4.4 2.3-6.1l-2.3-2c-.2.2-.4.4-.5.6-1.6 2.3-4 5.8-4.4 7.5h4.9zm13.3 14-5.1-2.7-1.2 1.4 5.9 2.2c.6.2 1-.6.4-.9zm-6-3.2-3.2-1.7c-.5-.3-1-.7-1.3-1.1l-2.1 1.8c.7.7 1.6 1.2 2.5 1.5l2.8 1 1.3-1.5zm-4.5-17.8c.3-.5.8-.8 1.3-1.1l3.2-1.7-1.3-1.6-2.8 1c-.9.3-1.8.9-2.5 1.5l2.1 1.9z"/></svg>