<svg version="1.1" xmlns="http://www.w3.org/2000/svg" x="0" y="0" viewBox="0 0 512 512" xml:space="preserve"><style type="text/css">.st0{fill:#adadad}.st1{fill:#ddd}.st2{fill:#bbb}.st3{fill:#36434f}.st4{fill:#999}</style><path class="st0" d="M59 282v5c0 .6.4 1 1 1h1.2c.5 0 1 .2 1.4.6l3.8 3.8c.4.4.6.9.6 1.4v5.2h5v-17H59zm186 9h-9c-.6 0-1-.4-1-1v-3h11v3c0 .6-.4 1-1 1z"/><path class="st0" d="M238 290h6v5h-6z"/><path class="st1" d="m510.2 236.8-29.4-2.7 21.1-86.6c.3-1.3-.6-2.5-1.9-2.5h-19.1c-2.3 0-4.4 1-5.9 2.6L411.4 218c-6.1 6.8-14.9 10.7-24.1 10.6l-62.5-.6H71c-25.6 0-46.7 8.7-49.8 20C8.1 251.9 0 257.1 0 263c0 11.6 31.8 21 71 21h103.3c.8 2.3 3 4 5.7 4h93.6c3.6 0 7.1-.4 10.6-1.2l12.5-2.8h28c23.5 0 58.5-4.3 94-12 35.5-7.8 86-22.9 86-22.9 2.5-.7 4.6-2.5 5.5-5l1.7-4.6c.4-1.3-.4-2.6-1.7-2.7z"/><path class="st2" d="m438.5 245.5 50.7-12.1c.8-.2 1.6-.3 2.4-.2l15.5 1.1c.5 0 .6.7.2.9l-18 10.6c-.6.4-1.3.6-2 .6h-48.6c-.7.1-.8-.7-.2-.9zm24.4-18 18.5 4.3.2-1-18.4-4.3c-.9-.3-1.7-1-2.1-1.9-.4-.9-.4-1.9 0-2.8l32.7-76.9h-1.1l-32.5 76.5c-.5 1.2-.5 2.5 0 3.6.4 1.2 1.4 2.1 2.7 2.5z"/><circle class="st3" cx="69" cy="303" r="7"/><circle class="st1" cx="69" cy="303" r="4"/><circle class="st3" cx="242" cy="301" r="9"/><circle class="st1" cx="242" cy="301" r="5"/><ellipse class="st3" cx="86.5" cy="249" rx="2.5" ry="3"/><ellipse class="st3" cx="93.7" cy="249" rx="2.5" ry="3"/><ellipse class="st3" cx="100.9" cy="249" rx="2.5" ry="3"/><ellipse class="st3" cx="108.1" cy="249" rx="2.5" ry="3"/><ellipse class="st3" cx="115.4" cy="249" rx="2.5" ry="3"/><ellipse class="st3" cx="122.6" cy="249" rx="2.5" ry="3"/><ellipse class="st3" cx="129.8" cy="249" rx="2.5" ry="3"/><ellipse class="st3" cx="137" cy="249" rx="2.5" ry="3"/><ellipse class="st3" cx="144.2" cy="249" rx="2.5" ry="3"/><ellipse class="st3" cx="151.4" cy="249" rx="2.5" ry="3"/><ellipse class="st3" cx="158.6" cy="249" rx="2.5" ry="3"/><ellipse class="st3" cx="165.9" cy="249" rx="2.5" ry="3"/><ellipse class="st3" cx="173.1" cy="249" rx="2.5" ry="3"/><ellipse class="st3" cx="180.3" cy="249" rx="2.5" ry="3"/><ellipse class="st3" cx="187.5" cy="249" rx="2.5" ry="3"/><ellipse class="st3" cx="197.5" cy="249" rx="2.5" ry="3"/><ellipse class="st3" cx="197.5" cy="249" rx="2.5" ry="3"/><ellipse class="st3" cx="209.5" cy="249" rx="2.5" ry="3"/><ellipse class="st3" cx="217.5" cy="249" rx="2.5" ry="3"/><ellipse class="st3" cx="224.6" cy="249" rx="2.5" ry="3"/><ellipse class="st3" cx="231.8" cy="249" rx="2.5" ry="3"/><ellipse class="st3" cx="238.9" cy="249" rx="2.5" ry="3"/><ellipse class="st3" cx="246" cy="249" rx="2.5" ry="3"/><ellipse class="st3" cx="253.2" cy="249" rx="2.5" ry="3"/><ellipse class="st3" cx="260.3" cy="249" rx="2.5" ry="3"/><ellipse class="st3" cx="267.4" cy="249" rx="2.5" ry="3"/><ellipse class="st3" cx="274.5" cy="249" rx="2.5" ry="3"/><ellipse class="st3" cx="281.7" cy="249" rx="2.5" ry="3"/><ellipse class="st3" cx="288.8" cy="249" rx="2.5" ry="3"/><ellipse class="st3" cx="295.9" cy="249" rx="2.5" ry="3"/><ellipse class="st3" cx="303.1" cy="249" rx="2.5" ry="3"/><ellipse class="st3" cx="310.2" cy="249" rx="2.5" ry="3"/><ellipse class="st3" cx="317.3" cy="249" rx="2.5" ry="3"/><ellipse class="st3" cx="324.5" cy="249" rx="2.5" ry="3"/><ellipse class="st3" cx="331.6" cy="249" rx="2.5" ry="3"/><ellipse class="st3" cx="338.7" cy="249" rx="2.5" ry="3"/><ellipse class="st3" cx="345.8" cy="249" rx="2.5" ry="3"/><ellipse class="st3" cx="353" cy="249" rx="2.5" ry="3"/><ellipse class="st3" cx="360.1" cy="249" rx="2.5" ry="3"/><ellipse class="st3" cx="367.2" cy="249" rx="2.5" ry="3"/><ellipse class="st3" cx="374.4" cy="249" rx="2.5" ry="3"/><ellipse class="st3" cx="381.5" cy="249" rx="2.5" ry="3"/><path class="st3" d="m35.4 241.4-5.2 6.1c-.5.6-.2 1.5.6 1.6 2 .4 4.1.6 6.2.7.6 0 1.1-.4 1.1-1v-6.7c0-.5-.4-.9-.8-1-.3 0-.5-.1-.8-.2-.5.1-.9.2-1.1.5zm-13.6 5c1.2.5 2.5 1 3.9 1.4.8.2 1.6 0 2.1-.6l4.8-5.6c.5-.5.2-1.4-.5-1.6-1.3-.4-2.5-.8-3.6-1.3-3.2 2.4-5.5 5-6.7 7.7zm18.2-3.6v6.2c0 .6.5 1 1 1 1.7 0 3.4-.2 5.1-.4.5-.1.9-.5.9-1v-2.8c0-2.1-1.7-3.9-3.8-4-.8 0-1.5-.1-2.1-.1-.6 0-1.1.5-1.1 1.1z"/><path class="st2" d="M71 262.5h-6c-1.9 0-3.5-1.6-3.5-3.5v-20c0-1.9 1.6-3.5 3.5-3.5h6c1.9 0 3.5 1.6 3.5 3.5v20c0 1.9-1.6 3.5-3.5 3.5zm-6-26c-1.4 0-2.5 1.1-2.5 2.5v20c0 1.4 1.1 2.5 2.5 2.5h6c1.4 0 2.5-1.1 2.5-2.5v-20c0-1.4-1.1-2.5-2.5-2.5h-6zm346 26h-6c-1.9 0-3.5-1.6-3.5-3.5v-20c0-1.9 1.6-3.5 3.5-3.5h6c1.9 0 3.5 1.6 3.5 3.5v20c0 1.9-1.6 3.5-3.5 3.5zm-6-26c-1.4 0-2.5 1.1-2.5 2.5v20c0 1.4 1.1 2.5 2.5 2.5h6c1.4 0 2.5-1.1 2.5-2.5v-20c0-1.4-1.1-2.5-2.5-2.5h-6zM163 271v-4c0-1.1.9-2 2-2h19.2c7.2 0 14.4-.6 21.5-1.8l60.9-10.4c6.9-1.2 13.9-2.1 20.9-2.7l10.8-.9c1.1-.1 2.2-.5 3.1-1.2l9.8-7.4c.5-.4 1.2-.6 1.8-.6h4c.4 0 .7.5.4.8l-5.7 7.4c-.4.5-.6 1.2-.6 1.8v8c0 .6-.4 1-1 1h-1.9c-.7 0-1.4-.3-2-.7l-6-5.3c-.7-.6-1.7-.7-2.4-.2L265.5 274c-1 .6-2.1 1-3.3 1h-27.9c-.8 0-1.7.2-2.4.5l-4.7 2.1c-2 .9-4.3 1.4-6.5 1.4H163v-8z"/><path class="st2" d="M295 263h-37v-4h37c.6 0 1 .4 1 1v2c0 .6-.4 1-1 1zm-15 5h-40v-3h40c.6 0 1 .4 1 1v1c0 .6-.4 1-1 1zm-32 0h26v1c0 1.7-1.3 3-3 3h-23v-4z"/><path class="st4" d="M213 287.5h-1v-6h1c1.1 0 2 .9 2 2v2c0 1.1-.9 2-2 2z"/><path class="st0" d="M192 273.5v22l19.4-3.7c.9-.2 1.6-1 1.6-2v-10.6c0-1-.7-1.8-1.6-2l-19.4-3.7z"/><path class="st4" d="M159 270h-1c-2.2 0-4 1.8-4 4v21c0 2.2 1.8 4 4 4h1c0 1.1.9 1.9 2 1.8l35.4-3.5c2-.2 3.6-1.9 3.6-4v-17.7c0-2.1-1.6-3.8-3.6-4l-35.4-3.5c-1.1 0-2 .8-2 1.9z"/><path class="st0" d="M158 270c-2.2 0-4 1.8-4 4v21c0 2.2 1.8 4 4 4h1v-29h-1z"/></svg>