<svg version="1.1" xmlns="http://www.w3.org/2000/svg" x="0" y="0" viewBox="0 0 512 512" xml:space="preserve"><style type="text/css">.st0{fill:#36434f}.st2{fill:#cc584c}.st3{fill:#2e86b7}</style><path class="st0" d="M13 275.5h456v15H13z"/><path d="m509.7 270.6-13.2-10.8-6.8-3.2c-2.8-1.3-5.5-2.9-8.1-4.6l-14.4-9.6c-10.8-.6-20-6.6-24.8-15.2-16.2-5.7-33.3-8.7-50.8-8.7H12c-6.6 0-12 5.4-12 12v45h511.1l.8-1c-.2-1.5-.9-2.8-2.2-3.9z" fill="#ddd"/><path class="st0" d="M321 255.5H87c-1.1 0-2-.9-2-2v-14c0-1.1.9-2 2-2h234c1.1 0 2 .9 2 2v14c0 1.1-.9 2-2 2zm25 0h5c1.1 0 2-.9 2-2v-14c0-1.1-.9-2-2-2h-5c-1.1 0-2 .9-2 2v14c0 1.1.9 2 2 2zm123 4.7c0 .6-.6 1.1-1.2 1-5.1-1.2-24.6-5.7-36.3-5.7H371c-1.1 0-2-.9-2-2v-14c0-1.1.9-2 2-2h35c16.1 0 53.8 11.2 61.6 13.6.8.3 1.4 1 1.4 1.9v7.2z"/><path class="st2" d="M0 259.5h427v2H0z"/><path class="st3" d="M0 261.5h427v2H0z"/><path class="st2" d="m465.1 242.3 15.9 10.6c2.6 1.7 5.4 3.3 8.2 4.7l10.5 5-11.8-9.6c-.3-.2-.6-.5-.9-.7-.2-.2-.4-.4-.7-.5-4.3-3.4-8.7-6.5-13.2-9.4-1.4.2-2.8.3-4.2.3-1.2-.2-2.5-.3-3.8-.4z"/><path class="st0" d="M469 243.5c1.9 0 3.7-.2 5.5-.5-9.4-6.1-19.4-11.1-29.9-15h-.1c-.6-.2-1.2-.4-1.8-.7-.6-.2-1.2-.4-1.7-.6 5 10 15.7 16.8 28 16.8z"/><path class="st2" d="M465 290.5h16.2c6.4 0 12.7-1.4 18.5-4H467c-1.1 0-2 .9-2 2v2z"/><path class="st3" d="M511.9 274.5H0v4c0 6.6 5.4 12 12 12h34v-9c0-1.1.9-2 2-2h69c1.1 0 2 .9 2 2v9h10v-9c0-1.1.9-2 2-2h25c1.1 0 2 .9 2 2v9h219v-9c0-1.1.9-2 2-2h83c1.1 0 2 .9 2 2v9h2v-2c0-.6.4-1 1-1h30.3c3.7-1.4 7.3-3.4 10.5-5.8l1.6-1.2c2-1.4 2.9-3.8 2.5-6z"/><circle class="st0" cx="57.5" cy="287" r="6.5"/><circle class="st0" cx="107.5" cy="287" r="6.5"/><circle class="st0" cx="388.5" cy="287" r="6.5"/><circle class="st0" cx="452.5" cy="287" r="6.5"/></svg>