<svg version="1.1" xmlns="http://www.w3.org/2000/svg" x="0" y="0" viewBox="0 0 512 512" xml:space="preserve"><style type="text/css">.st0{fill:#ddd}.st1{fill:#36434f}.st2{fill:#bbb}.st4{opacity:.15;fill:#444}</style><path class="st0" d="M470.5 230.3l22.9-91.5c.3-1.2-.6-2.4-1.8-2.5l-7.1-.4c-7.4-.4-14.6 2.6-19.5 8.2l-65.4 75.2c-3.1 3.6-7.7 5.6-12.5 5.5-10.4-.3-21.1-.4-32.2-.4H102.5c-30.2 0-61.5 8-76.5 25-12 10-26 12-26 21.5 0 13.5 45.9 16.5 102.5 16.5H355c29.1 0 79.3-16.2 101.8-22.8S512 251.5 512 242c0-4.4-15.7-8.5-41.5-11.7z"/><path class="st1" d="M26.4 249.1c1.3.2 2.5.4 3.9.6.3 0 .7-.1.9-.3l6.5-7.2c.3-.3.1-.8-.3-.8-.6 0-1.2-.1-1.8-.1-3.5 2.3-6.6 4.9-9.2 7.8zm21.2-6.6c0-.6-.5-1-1-1h-5.1c-.3 0-.6.1-.8.3l-6.8 7.4c-.3.3-.1.8.3.8 3.2.3 6.6.4 10.1.4h2.3c.5 0 1-.5 1-1v-6.9zm7.4.1c-.8-.9-2-1.4-3.2-1.3-.4 0-.8 0-1.2.1-.5 0-1 .5-1 1v7c0 .6.5 1 1.1 1 3-.2 5.8-.4 8.5-.8.8-.1 1.2-1.1.6-1.7l-4.8-5.3z"/><ellipse class="st1" cx="107.5" cy="248.5" rx="2.8" ry="3.3"/><ellipse class="st1" cx="116.1" cy="248.5" rx="2.8" ry="3.3"/><ellipse class="st1" cx="124.6" cy="248.5" rx="2.8" ry="3.3"/><ellipse class="st1" cx="133.1" cy="248.5" rx="2.8" ry="3.3"/><ellipse class="st1" cx="141.6" cy="248.5" rx="2.8" ry="3.3"/><ellipse class="st1" cx="150.2" cy="248.5" rx="2.8" ry="3.3"/><ellipse class="st1" cx="158.7" cy="248.5" rx="2.8" ry="3.3"/><ellipse class="st1" cx="167.2" cy="248.5" rx="2.8" ry="3.3"/><ellipse class="st1" cx="175.7" cy="248.5" rx="2.8" ry="3.3"/><ellipse class="st1" cx="184.2" cy="248.5" rx="2.8" ry="3.3"/><ellipse class="st1" cx="192.8" cy="248.5" rx="2.8" ry="3.3"/><ellipse class="st1" cx="201.3" cy="248.5" rx="2.8" ry="3.3"/><ellipse class="st1" cx="209.8" cy="248.5" rx="2.8" ry="3.3"/><ellipse class="st1" cx="218.3" cy="248.5" rx="2.8" ry="3.3"/><ellipse class="st1" cx="226.9" cy="248.5" rx="2.8" ry="3.3"/><ellipse class="st1" cx="235.4" cy="248.5" rx="2.8" ry="3.3"/><ellipse class="st1" cx="243.9" cy="248.5" rx="2.8" ry="3.3"/><ellipse class="st1" cx="252.4" cy="248.5" rx="2.8" ry="3.3"/><ellipse class="st1" cx="261" cy="248.5" rx="2.8" ry="3.3"/><ellipse class="st1" cx="269.5" cy="248.5" rx="2.8" ry="3.3"/><ellipse class="st1" cx="278" cy="248.5" rx="2.8" ry="3.3"/><ellipse class="st1" cx="286.5" cy="248.5" rx="2.8" ry="3.3"/><ellipse class="st1" cx="295.1" cy="248.5" rx="2.8" ry="3.3"/><ellipse class="st1" cx="303.6" cy="248.5" rx="2.8" ry="3.3"/><ellipse class="st1" cx="312.1" cy="248.5" rx="2.8" ry="3.3"/><ellipse class="st1" cx="320.6" cy="248.5" rx="2.8" ry="3.3"/><ellipse class="st1" cx="329.2" cy="248.5" rx="2.8" ry="3.3"/><ellipse class="st1" cx="337.7" cy="248.5" rx="2.8" ry="3.3"/><ellipse class="st1" cx="346.2" cy="248.5" rx="2.8" ry="3.3"/><ellipse class="st1" cx="354.7" cy="248.5" rx="2.8" ry="3.3"/><ellipse class="st1" cx="363.3" cy="248.5" rx="2.8" ry="3.3"/><path class="st2" d="M177 268l26.8-.8c3.5-.1 7-.5 10.4-1.2l62.8-12.4c2-.4 4.1-.6 6.2-.6H304c.5 0 .7.7.2.9L256 278h-11l-3.5 3.5H177V268zm-85-3.5H81c-1.4 0-2.5-1.1-2.5-2.5v-27c0-1.4 1.1-2.5 2.5-2.5h11c1.4 0 2.5 1.1 2.5 2.5v27c0 1.4-1.1 2.5-2.5 2.5zm-11-31c-.8 0-1.5.7-1.5 1.5v27c0 .8.7 1.5 1.5 1.5h11c.8 0 1.5-.7 1.5-1.5v-27c0-.8-.7-1.5-1.5-1.5H81z"/><circle class="st1" cx="86.5" cy="250.5" r="2.5"/><path class="st2" d="M389 264.5h-11c-1.4 0-2.5-1.1-2.5-2.5v-27c0-1.4 1.1-2.5 2.5-2.5h11c1.4 0 2.5 1.1 2.5 2.5v27c0 1.4-1.1 2.5-2.5 2.5zm-11-31c-.8 0-1.5.7-1.5 1.5v27c0 .8.7 1.5 1.5 1.5h11c.8 0 1.5-.7 1.5-1.5v-27c0-.8-.7-1.5-1.5-1.5h-11z"/><circle class="st1" cx="383.5" cy="250.5" r="2.5"/><path d="M162 279l15-11 59.9 3.9c.4 0 .6.5.3.9L224 286l-62-7z" fill="#999"/><path class="st2" d="M225.3 281.7l-29.1-4.9c-3.5-.6-7-.9-10.5-.9h-9.3c-6.9 0-13.7 1.1-20.2 3.3l-.8.3c-.8.3-1.4 1-1.4 1.9v19.2c0 .9.6 1.6 1.4 1.9l.8.3c6.5 2.2 13.4 3.3 20.2 3.3h9.3c3.5 0 7-.3 10.5-.9l29.1-4.9c1-.2 1.7-1 1.7-2v-14.6c0-1-.7-1.8-1.7-2z"/><path class="st4" d="M158 278.7c-.6.2-1.2.4-1.9.6l-.8.3c-.8.3-1.4 1-1.4 1.9v19.2c0 .9.6 1.6 1.4 1.9l.8.3c.6.2 1.2.4 1.9.6v-24.8z"/><path class="st2" d="M259.4 262.8l1.1.4c1.6.5 3.3.8 5.1.8h32.6c.6 0 .7-.8.1-1l-6.2-1.7c-3.4-.9-6.9-1.2-10.4-1l-22.2 1.5c-.5.1-.6.8-.1 1zm-22 5.1c2.4.7 6 1.4 8.1 1.8 1 .2 2 .3 3 .3h38.9c.6 0 .7-.8.1-1l-5.9-1.7c-3.1-.9-6.3-1.3-9.6-1.2l-34.6.8c-.4.1-.5.9 0 1zm5.8 6c1.9.7 3.8 1.1 5.8 1.1h23.9c.6 0 .7-.8.2-1l-.5-.2c-3.7-1.2-7.5-1.8-11.3-1.6l-17.8.7c-.7 0-.8.8-.3 1zm200.1-31.7l33.9.7c3.8.1 7.6-.5 11.2-1.8l10.3-3.2c1.1-.4.8-2.1-.4-2l-55.1 5.3c-.5 0-.5 1 .1 1zM49 290l7 14h4v-15z"/><path class="st2" d="M62.9 299.9l-11-.8c-.6 0-1-.5-.9-1.1 0-.6.5-1 1.1-.9l11 .8c.6 0 1 .5.9 1.1 0 .6-.5 1-1.1.9z"/><path class="st0" d="M60 291H48c-1.1 0-2-.9-2-2v-4h16v4c0 1.1-.9 2-2 2z"/><circle class="st1" cx="57" cy="307" r="6"/><circle class="st0" cx="57" cy="307" r="3"/><path class="st0" d="M231 280l5.5 13.7c.3.8 1 1.3 1.9 1.3h10.3c.7 0 1.1-.6 1-1.3l-2.8-9.7c-.5-1.9-.1-3.9 1.1-5.4l2.1-2.6-19.1 4z"/><circle class="st1" cx="242.5" cy="303.5" r="9.5"/><circle class="st0" cx="242.5" cy="303.5" r="5.5"/><path class="st2" d="M471.7 225.5h-23.2c-.2 0-.3-.1-.4-.2s-.1-.3 0-.5l33.1-74.6c.7-1.6 2.3-2.7 4.1-2.7h6l.3-1h-6.2c-2.2 0-4.1 1.3-5 3.3l-33.1 74.6c-.2.5-.2 1 .1 1.4.3.4.7.7 1.3.7h22.9l.1-1z"/><path class="st4" d="M46 285.9v3.1c0 1.1.9 2 2 2h1.5l3.1 6.1h-.5c-.6 0-1 .4-1.1.9 0 .6.4 1 .9 1.1l1.7.1 1.1 2.2c-2.2.9-3.7 3-3.7 5.6 0 3.3 2.7 6 6 6s6-2.7 6-6c0-2.2-1.2-4.2-3-5.2v-2.1l2.9.2c.6 0 1-.4 1.1-.9 0-.6-.4-1-.9-1.1l-3.1-.2V291c1.1 0 2-.9 2-2v-2.2c12.4.5 26.1.7 40.5.7H154v13.1c0 .9.6 1.6 1.4 1.9l.8.3c6.5 2.2 13.4 3.3 20.2 3.3h9.3c3.5 0 7-.3 10.5-.9l29.1-4.9c1-.2 1.7-1 1.7-2v-10.8h7l2.5 6.2c.3.7 1 1.2 1.8 1.2-3.1 1.6-5.3 4.8-5.3 8.5 0 5.2 4.3 9.5 9.5 9.5s9.5-4.3 9.5-9.5c0-3.7-2.2-6.9-5.3-8.5h2c.7 0 1.1-.6 1-1.3l-1.8-6.2H355c29.1 0 79.3-16.2 101.8-22.8 9.6-2.8 21.2-5.7 31.2-8.8H16.4C7.6 261.1 0 264 0 271c0 8.5 18.3 12.9 46 14.9z"/></svg>