<svg xmlns="http://www.w3.org/2000/svg" viewBox="0 0 512 512" xml:space="preserve"><style>.st0{fill:#bbb}.st1{fill:#36434f}.st2{fill:#ddd}.st3{fill:#999}.st4{fill:#c6c6c6}</style><path class="st0" d="m257.8 129.3-.3-2.4c-.2-1.8-2.8-1.8-3 0l-.3 2.4c-.1 1.1-.2 2.2-.2 3.3l-2 96.3h8l-2-96.3c0-1-.1-2.2-.2-3.3zM234 236l-69.3-2.7c-.9 0-1.1 1.3-.2 1.5l3.7.8c1.2.3 2.4.5 3.7.6l60.1 5.7 2-5.9zm44 0 69.3-2.7c.9 0 1.1 1.3.2 1.5l-3.7.8c-1.2.3-2.4.5-3.7.6l-60.1 5.7-2-5.9zm-19.4 57.6c1.4-1.3 3.2-3.1 3.7-3.9h-12.6c.5.8 2.3 2.6 3.7 3.9 1 .9 1.6 2.3 1.6 3.6v2.2h-1c-.6 0-1 .4-1 1v.8c0 .6.4 1 1 1h1v9.1h2v-9.1h1c.6 0 1-.4 1-1v-.8c0-.6-.4-1-1-1h-1v-2.2c0-1.4.6-2.7 1.6-3.6z"/><path class="st1" d="M253 316c-1.1 0-2-.9-2-2v-7c0-1.1.9-2 2-2s2 .9 2 2v7c0 1.1-.9 2-2 2zm6 0c-1.1 0-2-.9-2-2v-7c0-1.1.9-2 2-2s2 .9 2 2v7c0 1.1-.9 2-2 2z"/><ellipse class="st0" cx="173.7" cy="291.2" rx="19.8" ry="16.5"/><path class="st0" d="M169.7 269.5h8v8h-8z"/><circle class="st2" cx="173.7" cy="291.2" r="13.6"/><circle class="st1" cx="173.7" cy="291.2" r="11"/><circle class="st3" cx="173.7" cy="291.2" r="3.8"/><ellipse class="st4" cx="133.6" cy="268.4" rx="3.9" ry="3.1"/><ellipse class="st4" cx="81.6" cy="261.4" rx="3.9" ry="3.1"/><path class="st3" d="m207.5 303.4-2.1-28.7-6.4.7 2 28h-2.1v5.3h10.9v-5.3z"/><path class="st3" d="m203.702 294.07 17.687-15.012 1.942 2.287-17.688 15.013z"/><path class="st2" d="m231.9 266-56.5-2.5L.9 248c-1.2-.1-1.2 1.7 0 2l12 2.7c2.1.5 4.3.8 6.4 1.1l161.2 19c1.4.2 2.8.4 4.2.7l49.5 11.8-2.3-19.3z"/><path class="st4" d="M180.5 272.8c1.4.2 2.8.4 4.2.7l49.5 11.8-1.6-14.2-207.2-18.7c-3.2-.3-6.4-.1-9.5.6l-.6.1 3.9.6 161.3 19.1z"/><path class="st1" d="M201.7 299.8v14.3c0 1.1-.9 2-2 2h-2.5c-1.1 0-2-.9-2-2v-14.3c0-1.1.9-2 2-2h2.5c1.1 0 2 .9 2 2zm10-2h-2.5c-1.1 0-2 .9-2 2v14.3c0 1.1.9 2 2 2h2.5c1.1 0 2-.9 2-2v-14.3c0-1.1-.9-2-2-2z"/><ellipse class="st0" cx="338.3" cy="291.2" rx="19.8" ry="16.5"/><path class="st0" d="M342.367 277.5h-8v-8h8z"/><circle class="st2" cx="338.3" cy="291.2" r="13.6"/><circle class="st1" cx="338.3" cy="291.2" r="11"/><circle class="st3" cx="338.3" cy="291.2" r="3.8"/><ellipse class="st4" cx="378.4" cy="268.4" rx="3.9" ry="3.1"/><ellipse class="st4" cx="430.4" cy="261.4" rx="3.9" ry="3.1"/><path class="st3" d="m304.5 303.4 2.1-28.7 6.4.7-2 28h2.1v5.3h-10.8v-5.3z"/><path class="st3" d="m288.707 281.307 1.941-2.288 17.688 15.013-1.941 2.287z"/><path class="st2" d="m280.1 266 56.5-2.5L511.1 248c1.2-.1 1.2 1.7 0 2l-12 2.7c-2.1.5-4.3.8-6.4 1.1l-161.2 19c-1.4.2-2.8.4-4.2.7l-49.5 11.8 2.3-19.3z"/><path class="st4" d="M331.5 272.8c-1.4.2-2.8.4-4.2.7l-49.5 11.8 1.6-14.2 207.1-18.7c3.2-.3 6.4-.1 9.5.6l.6.1-3.9.6-161.2 19.1z"/><path class="st1" d="M312.3 297.8h2.5c1.1 0 2 .9 2 2v14.3c0 1.1-.9 2-2 2h-2.5c-1.1 0-2-.9-2-2v-14.3c0-1.1.9-2 2-2zm-14 2v14.3c0 1.1.9 2 2 2h2.5c1.1 0 2-.9 2-2v-14.3c0-1.1-.9-2-2-2h-2.5c-1.1 0-2 .9-2 2z"/><path class="st0" d="m286.5 282.5-1.7-26.5h-57.6l-1.7 26.5c-.3 4.6 3.4 8.5 8 8.5h45c4.6 0 8.2-3.9 8-8.5z"/><ellipse class="st2" cx="256" cy="256" rx="31" ry="35"/><path class="st1" d="M255 240v11c0 .6-.4 1-1 1h-1.1c-.8 0-1.6-.2-2.2-.7-2.3-1.6-5.1-2.8-8.2-3.6-.6-.1-.9-.9-.6-1.4l3.6-6.5c.4-.7 1.1-1.1 1.8-1 2.2.1 4.5.2 6.8.2.5 0 .9.4.9 1zm-19.7-2.1c-.4 0-.7.1-.9.4l-6 8.8c-.3.4.1.9.5.8.7-.2 1.4-.3 2.2-.5.3 0 .5-.2.6-.4l6.5-8.9c-1 0-2-.1-2.9-.2zm31.3 1.9c-.4-.7-1.1-1.1-1.8-1-2.2.1-4.5.2-6.8.2-.5 0-1 .4-1 1v11c0 .6.4 1 1 1h1.1c.8 0 1.6-.2 2.2-.7 2.3-1.6 5.1-2.8 8.2-3.6.6-.1.9-.9.6-1.4l-3.5-6.5zm17.1 7.3-6-8.8c-.2-.3-.6-.5-.9-.4-.9.1-1.9.2-2.9.3l6.5 8.9c.2.2.4.3.6.4.7.1 1.5.3 2.2.5.4 0 .7-.5.5-.9zm-40.7-8.5c-.7 0-1.3-.1-2-.1-.3 0-.7.1-.9.4l-5.6 7.6c0 .1-.1.1-.1.2 0 .2.2.3.3.3h1.2c.8 0 1.6 0 2.4.1.4 0 .8-.2 1-.5l4-7.3c.3-.3 0-.7-.3-.7zm34.5 7.9-5.6-7.6c-.2-.3-.5-.4-.9-.4-.6 0-1.3.1-2 .1-.4 0-.6.4-.4.7l4 7.3c.2.3.6.5 1 .5.8-.1 1.6-.1 2.4-.1h1.2c.2 0 .3-.2.3-.3v-.2z"/><ellipse class="st0" cx="256" cy="268.8" rx="14.8" ry="12.8"/></svg>