<svg version="1.1" xmlns="http://www.w3.org/2000/svg" x="0" y="0" viewBox="0 0 512 512" xml:space="preserve"><style type="text/css">.st0{fill:#36434f}.st1{opacity:.5;fill:#999}.st2{fill:#122a3a}</style><circle class="st0" cx="102.3" cy="300.2" r="39"/><path class="st1" d="m102.3 273.8-20.9 10.1-5.2 22.7 14.5 18.1h23.2l14.5-18.1-5.2-22.7z"/><path class="st0" d="m127.4 316.4-15.8-13.7 20.6-3.5-1.9-8.1-20.6 3.6 9.5-18.6-7.4-3.6-9.5 18.6-9.6-18.5-7.4 3.5 9.6 18.6-20.6-3.5-1.9 8 20.7 3.5-15.8 13.8 5.1 6.4 15.8-13.7v20.9h8.2v-20.9l15.8 13.7z"/><path class="st2" d="m102.3 291.2-7.4 3.5-1.8 8 5.1 6.5h8.2l5.1-6.5-1.8-8z"/><path class="st0" d="m493.2 269.1-20.4-28.3-64.5-1.1-30.3 38.5-47.5 14.8-103-1.5-52.3-3.2-22.9-32.8-19.5-19.4-40.4-1.8-19.8 1.8-30.8 26.7-22 6.8-1.2 9.2-11.4-.8 1.2 10.5 46 15.7 4.2.2c-.1-1.4-.2-2.8-.2-4.2 0-24.3 19.7-44 44-44s44 19.7 44 44c0 3-.3 6-.9 8.9l9.2.5h244.7c-.7-3-1-6.1-1-9.4 0-24.3 19.7-44 44-44 23.9 0 43.3 19 44 42.7l19.1-4 3.8-8 .8-9.4-16.9-8.4z"/><circle class="st0" cx="442.3" cy="300.2" r="39"/><path class="st1" d="m442.3 273.8-20.9 10.1-5.2 22.7 14.5 18.1h23.2l14.5-18.1-5.2-22.7z"/><path class="st0" d="m467.4 316.4-15.8-13.7 20.6-3.5-1.9-8.1-20.6 3.6 9.5-18.6-7.4-3.6-9.5 18.6-9.6-18.5-7.4 3.5 9.6 18.6-20.6-3.5-1.9 8 20.7 3.5-15.8 13.8 5.1 6.4 15.8-13.7v20.9h8.2v-20.9l15.8 13.7z"/><path class="st2" d="m442.3 291.2-7.4 3.5-1.8 8 5.1 6.5h8.2l5.1-6.5-1.8-8z"/><path fill="#ddd" d="m496 239.5-198-66.7-158 20-140 22 1 1 495.9 25z"/><path fill="#bbb" d="m49 274.8 23-34 62 1 27 40 3 16 218 5 2-17 27-44 61 2 20 32 16 2 3.2-26.3-1.2-5.7-13.8-6.3h-.2L0 214.8l10 57z"/><path class="st0" d="M444.5 228.5 297.4 179l-110.3 13.9-2.2 19.3z"/><path d="M495 246.8s11.6 3.4 16.2 4.6l.8-6.6-15.8-5.3-1.2 7.3z" fill="#ffdd7a"/></svg>