<svg xmlns="http://www.w3.org/2000/svg" viewBox="0 0 512 512" xml:space="preserve"><style>.st0{fill:#999}.st1{fill:#bbb}.st2{fill:#ddd}.st3{opacity:.15;fill:#444}.st4{fill:#36434f}</style><path class="st0" d="M269 138v8s20-2 20-4-20-4-20-4zm-13 37v8s20-2 20-4-20-4-20-4zm23-86v8s20-2 20-4-20-4-20-4z"/><path class="st1" d="M223.5 173.7c-17.7-5.1-41.2-11.2-50-11.2-10.1 0-16.5 2.5-19.7 4.1-1.4.7-2.3 2.3-2.3 4v19.2c0 1.7.9 3.3 2.3 4 3.2 1.6 9.6 4.1 19.7 4.1 8.8 0 32.3-6.2 50-11.2v-13z"/><path class="st2" d="m169.5 229.5 24.8-37.8c10.1-15.5 19.4-31.5 27.8-47.9l55-107.8c5.1-10.1 15.7-16.2 26.9-15.7 2.3-.7 4.5 1.4 3.8 3.7L265 162.6c-1 3.2-1.5 6.6-1.4 10l.9 56.9h-95z"/><path class="st3" d="M169.5 229.5h95l-.2-14.9-91.2 9.4z"/><path class="st2" d="M440.5 239.5c.8-.8 30.6-44.5 42.8-62.4 3.2-4.7 8.6-7.3 14.3-6.9l3.4.2c1.3.1 2.1 1.3 1.8 2.5l-20.4 76.7-41.9-10.1z"/><path class="st3" d="M159 164.5c-2.2.7-4 1.5-5.2 2.1-1.4.7-2.3 2.3-2.3 4v19.2c0 1.7.9 3.3 2.3 4 1.2.6 3 1.4 5.2 2.1v-31.4z"/><path class="st0" d="M269 374v-8s20 2 20 4-20 4-20 4zm-13-37v-8s20 2 20 4-20 4-20 4zm23 86v-8s20 2 20 4-20 4-20 4z"/><path class="st1" d="M223.5 338.3c-17.7 5.1-41.2 11.2-50 11.2-10.1 0-16.5-2.5-19.7-4.1-1.4-.7-2.3-2.3-2.3-4v-19.2c0-1.7.9-3.3 2.3-4 3.2-1.6 9.6-4.1 19.7-4.1 8.8 0 32.3 6.2 50 11.2v13z"/><path class="st2" d="m169.5 282.5 24.8 37.8c10.1 15.5 19.4 31.5 27.8 47.9l55 107.8c5.1 10.1 15.7 16.2 26.9 15.7 2.3.7 4.5-1.4 3.8-3.7L265 349.4c-1-3.2-1.5-6.6-1.4-10l.9-56.9h-95z"/><path class="st3" d="M169.5 282.5h95l-.2 14.9-91.2-9.4z"/><path class="st2" d="M440.5 272.5c.8.8 30.6 44.5 42.8 62.4 3.2 4.7 8.6 7.3 14.3 6.9l3.4-.2c1.3-.1 2.1-1.3 1.8-2.5l-20.4-76.7-41.9 10.1z"/><path class="st3" d="M159 347.5c-2.2-.7-4-1.5-5.2-2.1-1.4-.7-2.3-2.3-2.3-4v-19.2c0-1.7.9-3.3 2.3-4 1.2-.6 3-1.4 5.2-2.1v31.4z"/><path class="st2" d="M370 226.5H89.2C40 226.5 0 239.7 0 256s40 29.5 89.3 29.5H370c26.8 0 142-22 142-29.5s-115.2-29.5-142-29.5z"/><path class="st4" d="M48 239.6v-7c-5.8 2-10.9 4.4-15 7.1l7 5.1c2.2-1.9 4.9-3.6 8-5.2zM22 255h12c.3-3.1 1.8-6.1 4.4-8.8l-7.2-5.3c-5.5 4.2-8.8 9-9.2 14.1zm28-16.3c1.2-.5 2.4-1 3.7-1.5l4.4-5.5c.6-.7-.1-1.8-1-1.6-2.5.6-4.9 1.2-7.1 1.9v6.7zm-2 33.7v7c-5.8-2-10.9-4.4-15-7.1l7-5.1c2.2 1.9 4.9 3.6 8 5.2zM22 257h12c.3 3.1 1.8 6.1 4.4 8.8l-7.2 5.3c-5.5-4.2-8.8-9-9.2-14.1zm28 16.3c1.2.5 2.4 1 3.7 1.5l4.4 5.5c.6.7-.1 1.8-1 1.6-2.5-.6-4.9-1.2-7.1-1.9v-6.7z"/><path class="st0" d="M422 253c-15 0-24 2-24 3s9 3 24 3 68-2 68-3-53-3-68-3z"/><ellipse class="st4" cx="106" cy="228" rx="2" ry="1"/><ellipse class="st4" cx="114.6" cy="228" rx="2" ry="1"/><ellipse class="st4" cx="123.2" cy="228" rx="2" ry="1"/><ellipse class="st4" cx="131.8" cy="228" rx="2" ry="1"/><ellipse class="st4" cx="140.4" cy="228" rx="2" ry="1"/><ellipse class="st4" cx="149" cy="228" rx="2" ry="1"/><ellipse class="st4" cx="157.6" cy="228" rx="2" ry="1"/><ellipse class="st4" cx="166.2" cy="228" rx="2" ry="1"/><ellipse class="st4" cx="174.8" cy="228" rx="2" ry="1"/><ellipse class="st4" cx="183.4" cy="228" rx="2" ry="1"/><ellipse class="st4" cx="192" cy="228" rx="2" ry="1"/><ellipse class="st4" cx="200.6" cy="228" rx="2" ry="1"/><ellipse class="st4" cx="209.2" cy="228" rx="2" ry="1"/><ellipse class="st4" cx="217.8" cy="228" rx="2" ry="1"/><ellipse class="st4" cx="226.4" cy="228" rx="2" ry="1"/><ellipse class="st4" cx="235" cy="228" rx="2" ry="1"/><ellipse class="st4" cx="243.6" cy="228" rx="2" ry="1"/><ellipse class="st4" cx="252.2" cy="228" rx="2" ry="1"/><ellipse class="st4" cx="260.8" cy="228" rx="2" ry="1"/><ellipse class="st4" cx="269.4" cy="228" rx="2" ry="1"/><ellipse class="st4" cx="278" cy="228" rx="2" ry="1"/><ellipse class="st4" cx="286.6" cy="228" rx="2" ry="1"/><ellipse class="st4" cx="295.2" cy="228" rx="2" ry="1"/><ellipse class="st4" cx="303.8" cy="228" rx="2" ry="1"/><ellipse class="st4" cx="312.4" cy="228" rx="2" ry="1"/><ellipse class="st4" cx="321" cy="228" rx="2" ry="1"/><ellipse class="st4" cx="329.6" cy="228" rx="2" ry="1"/><ellipse class="st4" cx="338.2" cy="228" rx="2" ry="1"/><ellipse class="st4" cx="346.8" cy="228" rx="2" ry="1"/><ellipse class="st4" cx="355.4" cy="228" rx="2" ry="1"/><ellipse class="st4" cx="364" cy="228" rx="2" ry="1"/><ellipse class="st4" cx="106" cy="284" rx="2" ry="1"/><ellipse class="st4" cx="114.6" cy="284" rx="2" ry="1"/><ellipse class="st4" cx="123.2" cy="284" rx="2" ry="1"/><ellipse class="st4" cx="131.8" cy="284" rx="2" ry="1"/><ellipse class="st4" cx="140.4" cy="284" rx="2" ry="1"/><ellipse class="st4" cx="149" cy="284" rx="2" ry="1"/><ellipse class="st4" cx="157.6" cy="284" rx="2" ry="1"/><ellipse class="st4" cx="166.2" cy="284" rx="2" ry="1"/><ellipse class="st4" cx="174.8" cy="284" rx="2" ry="1"/><ellipse class="st4" cx="183.4" cy="284" rx="2" ry="1"/><ellipse class="st4" cx="192" cy="284" rx="2" ry="1"/><ellipse class="st4" cx="200.6" cy="284" rx="2" ry="1"/><ellipse class="st4" cx="209.2" cy="284" rx="2" ry="1"/><ellipse class="st4" cx="217.8" cy="284" rx="2" ry="1"/><ellipse class="st4" cx="226.4" cy="284" rx="2" ry="1"/><ellipse class="st4" cx="235" cy="284" rx="2" ry="1"/><ellipse class="st4" cx="243.6" cy="284" rx="2" ry="1"/><ellipse class="st4" cx="252.2" cy="284" rx="2" ry="1"/><ellipse class="st4" cx="260.8" cy="284" rx="2" ry="1"/><ellipse class="st4" cx="269.4" cy="284" rx="2" ry="1"/><ellipse class="st4" cx="278" cy="284" rx="2" ry="1"/><ellipse class="st4" cx="286.6" cy="284" rx="2" ry="1"/><ellipse class="st4" cx="295.2" cy="284" rx="2" ry="1"/><ellipse class="st4" cx="303.8" cy="284" rx="2" ry="1"/><ellipse class="st4" cx="312.4" cy="284" rx="2" ry="1"/><ellipse class="st4" cx="321" cy="284" rx="2" ry="1"/><ellipse class="st4" cx="329.6" cy="284" rx="2" ry="1"/><ellipse class="st4" cx="338.2" cy="284" rx="2" ry="1"/><ellipse class="st4" cx="346.8" cy="284" rx="2" ry="1"/><ellipse class="st4" cx="355.4" cy="284" rx="2" ry="1"/><ellipse class="st4" cx="364" cy="284" rx="2" ry="1"/></svg>