<svg xmlns="http://www.w3.org/2000/svg" viewBox="0 0 512 512" xml:space="preserve"><style>.st1{fill:#36434f}</style><path d="M276 384.1h-40V46.3c0-7.7 1.6-15.4 4.7-22.9C245 13.1 251.4 0 256 0s11 13.1 15.3 23.5c3.1 7.5 4.7 15.2 4.7 22.9v337.7z" fill="#bbb"/><path class="st1" d="m345.9 388.2-7.5-25.8c-26.5 6-54.1 9.1-82.4 9.1s-55.9-3.2-82.4-9.1l-7.5 25.8c28.9 6.7 59 10.3 89.9 10.3s61-3.5 89.9-10.3z"/><path class="st1" d="M281.1 357.4h-50.2l-8.9 15.9h68l-8.9-15.9z"/><path d="M268.5 241.1V74.3c0-4.8-1-9.6-2.9-14.3-2.7-6.4-6.7-14.7-9.6-14.7s-6.9 8.2-9.6 14.7c-2 4.7-2.9 9.5-2.9 14.3V241l12.5-7.2 12.5 7.3z" opacity=".15" fill="#444"/><circle class="st1" cx="256" cy="482.5" r="29.5"/><path class="st1" d="M236 366.6h40v125h-40v-125z"/><circle cx="256" cy="380" r="17" opacity=".15" fill="#f4f4f4"/><circle cx="256" cy="380" r="12" fill="#cc584c"/></svg>