<svg version="1.1" xmlns="http://www.w3.org/2000/svg" x="0" y="0" viewBox="0 0 512 512" xml:space="preserve"><style type="text/css">.st1{fill:#36434f}</style><path d="M264 401h-16V25.7c0-4.3.6-8.5 1.9-12.7 1.7-5.7 4.3-13 6.1-13 1.8 0 4.4 7.3 6.1 13 1.3 4.2 1.9 8.4 1.9 12.7V401z" fill="#bbb"/><path class="st1" d="m305.9 403.3-4.1-10.3c-14.7 3.3-30 5.1-45.8 5.1s-31-1.8-45.8-5.1l-4.1 10.3c32.8 7.6 67 7.6 99.8 0z"/><path class="st1" d="M270 392h-28l-5 7h38l-5-7z"/><path d="M261 199V41.3c0-2.7-.4-5.3-1.2-7.9-1.1-3.6-2.7-8.1-3.8-8.1s-2.7 4.6-3.8 8.1c-.8 2.6-1.2 5.3-1.2 7.9V199l5-4 5 4z" opacity=".15" fill="#444"/><path class="st1" d="M248 401h16v90h-16v-90z"/><path class="st1" d="M267.5 488c-.9-.5-1.9-.8-3-.8h-17c-1 0-2.1.3-3 .8-.7.4-1.4.9-2.1 1.3-2.9 2-3.4 6.1-1.1 8.8l10.1 11.8c2.4 2.8 6.7 2.8 9.1 0l10.1-11.8c2.3-2.7 1.8-6.8-1.1-8.8-.6-.5-1.3-.9-2-1.3z"/><circle cx="256" cy="402" r="7" opacity=".15" fill="#f4f4f4"/><circle cx="256" cy="402" r="5" fill="#cc584c"/></svg>