<svg version="1.1" xmlns="http://www.w3.org/2000/svg" x="0" y="0" viewBox="0 0 512 512" xml:space="preserve"><style type="text/css">.st0{fill:#122a3a}.st1{fill:#36434f}.st2{fill:#a18267}</style><path class="st0" d="M223.4 232.8c3.9 1.7 6.8 5.3 7.4 9.6.4 2.9-.1 5.6-1.4 7.9-.5.9.7 1.7 1.4 1 2.8-2.6 4.4-6.3 4.1-10.4 1.6-3.6 5-6.1 9.1-6.1.3 0 .7 0 1 .1v-2.1h-21.6z"/><path class="st1" d="M365 223.8H204v-25c0-1.1.9-2 2-2h155c2.2 0 4 1.8 4 4v23z"/><path class="st1" d="M356 197.8h-45l3.4-8.5c1-2.1 3.1-3.5 5.5-3.5h27.3c2.4 0 4.5 1.4 5.5 3.5l3.3 8.5z"/><circle class="st1" cx="365.5" cy="207.3" r="3.5"/><path class="st1" d="M216 204.8h-43v-6c0-1.1-.9-2-2-2h-21v26h30c2.2 0 4 1.8 4 4v83c0 1.1.9 2 2 2h24c1.1 0 2-.9 2-2v-87h4v-18zm-66-8l-143 3v9h143z"/><path class="st1" d="M7 212.8H2c-1.1 0-2-.9-2-2v-13c0-1.1.9-2 2-2h5c1.1 0 2 .9 2 2v13c0 1.1-.9 2-2 2zm255-20h-6c-1.1 0-2-.9-2-2v-2c0-1.1.9-2 2-2h6c1.1 0 2 .9 2 2v2c0 1.1-.9 2-2 2zm-6 0h6v2h-6zm6 2h-6c-1.1 0-2 .9-2 2v1h10v-1c0-1.1-.9-2-2-2z"/><path class="st1" d="M5 199.8v-4.9c0-.7.2-1.5.6-2.1l2.7-4.3c.8-1.3 2.6-1.3 3.4 0l2.7 4.3c.4.6.6 1.4.6 2.1v5.9H5v-1z"/><path class="st0" d="M59.5 198.7h-2l-1.4 10.1h2.1zm4.1-.1l-2.1.1-1.3 10.1h2zm8.1-.2l-2.1.1-1.3 10.3h2zm4 0h-2l-1.4 10.4h2zm-8.1.1l-2 .1-1.4 10.2h2zm12.2-.2h-2.1l-1.4 10.5h2zm48.5-1.1l-2 .1-1.5 11.5h2zm4.1 0h-2l-1.6 11.6h2zm-8.1.1l-2 .1-1.6 11.4h2zm12.1-.2h-2l-1.6 11.7h2zm-52.6 1.1h-2l-1.4 10.6h2zm56.7-1.2h-2l-1.6 11.8h2zm8.1-.2l-2.1.1-1.6 11.9h2.1zm-28.4.6l-2 .1-1.5 11.3h2zm24.3-.5h-2l-1.6 11.9h2zm-44.5.9l-2 .1-1.5 10.9h2zm-4.1.1l-2 .1-1.4 10.8h2zm-4 .1l-2 .1-1.5 10.7h2.1zm-4 .1h-2.1l-1.4 10.7h2zm24.2-.5h-2l-1.5 11.2h2zm4.1-.1h-2l-1.6 11.3h2.1zm-8.1.2h-2l-1.5 11.1h2zm-4.1.1h-2l-1.5 11h2.1z"/><path class="st2" d="M28 206.8h120c1.1 0 2 .9 2 2v15c0 4.9-4.1 8.8-8.9 8.5l-107.4-5.2c-4.3-.2-7.6-3.7-7.6-8v-10.4c-.1-1 .8-1.9 1.9-1.9z"/><circle class="st0" cx="199" cy="285.8" r="2"/><circle class="st0" cx="199" cy="266.8" r="2"/><circle class="st0" cx="199" cy="247.8" r="2"/><circle class="st0" cx="199" cy="228.8" r="2"/><path class="st2" d="M243 247.9v8.8h4.4c2.3 0 4.6 2 6.1 3.8 2.7 3.2 6.9 8.2 7.6 10.2.7 2.1.4 7.1.2 10-.1 1.3.4 2.6 1.4 3.4 1.7 1.5 4.4 3.7 5.4 4.7s1.1 6.8 1.1 10.3c0 1.3 1.3 2.3 2.6 1.9 4.8-1.4 14.9-4.8 19.4-9.3 6-6 7-12 7-16s-1-6-5-12c-2.1-3.1-5.5-6.7-8.3-9.5-3-3-4.7-7.1-4.7-11.3v-6.1c0-.7.2-1.4.5-2v-.1l-.7-1h-23.7c-7.4.1-13.3 7-13.3 14.2z"/><path class="st1" d="M206 216.8v40h38V248c0-7.3 5.9-13.2 13.2-13.2h23.4l3.4-6h25v-12H206zm35 30c0 4.4-3.6 8-8 8h-16c-2.2 0-4-1.8-4-4v-9c0-4.4 3.6-8 8-8h12c4.4 0 8 3.6 8 8v5z"/><path d="M117 220.8H52c-2.2 0-4-1.8-4-4s1.8-4 4-4h65c2.2 0 4 1.8 4 4s-1.8 4-4 4z" opacity=".5" fill="#444"/><ellipse class="st0" cx="249" cy="242.8" rx="6" ry="4"/><circle class="st0" cx="258" cy="226.8" r="2"/><circle class="st0" cx="247" cy="228.8" r="3"/><circle class="st0" cx="265" cy="226.8" r="2"/><path class="st2" d="M308.3 222.8c-1.1 0-2 .9-2 2v11.7c0 5.9 4.3 10.9 10.1 11.9l49.8 7.3c4.7.7 9.1 2.3 13.2 4.7l112.8 64.8c4.3 2.4 9.7.6 11.5-4l2.8-7c2.5-6.2 3.9-12.8 4.1-19.4l1.3-36.8c.2-4.7-3.1-8.9-7.7-9.8L406.6 228c-3.5-.7-7.2-.8-10.8-.1l-5.7 1.1c-3.2.6-6.5.4-9.6-.7l-15.3-5.3h-56.9z"/><path class="st0" d="M345 194.8h-23c-1.7 0-3-1.3-3-3s1.3-3 3-3h23c1.7 0 3 1.3 3 3 0 1.6-1.3 3-3 3z"/></svg>