<svg xmlns="http://www.w3.org/2000/svg" viewBox="0 0 512 512" xml:space="preserve"><style>.st0{fill:#eec646}.st3{opacity:.15;fill:#444}</style><path class="st0" d="M277.7 479c.1-1 .2-2 .2-3H272l-2-1.2c-.5 17.3-7.6 29.2-14 29.2s-13.5-11.9-14-29.2l-2 1.2h-5.9c0 1 .1 2 .2 3 1 .2 1.7 1.4 1.7 3 0 1.1-.4 2.1-1 2.6 2.7 16 11 27.4 21 27.4s18.3-11.4 21-27.4c-.6-.5-1-1.5-1-2.6 0-1.5.8-2.8 1.7-3z"/><path d="M279.4 86.9c-.9-23.8-6.2-47.1-15.6-69L256 0l-7.8 18c-9.4 21.8-14.7 45.2-15.6 69L222 367l34 20 34-20-10.6-280.1z" fill="#ddd"/><path d="M264 451.5c0-9.3 2.9-17.5 7.2-22.5-4.4-5-7.2-13.2-7.2-22.5V399h-16v7.5c0 9.3-2.9 17.5-7.2 22.5 4.4 5 7.2 13.2 7.2 22.5 0 11.1-4.2 20.2-10 24.5.9 17.7 8.7 32 18 32s17.1-14.3 18-32c-5.8-4.3-10-13.4-10-24.5z" fill="#a18267"/><circle class="st0" cx="256" cy="464" r="3"/><circle class="st0" cx="256" cy="415" r="3"/><circle class="st0" cx="256" cy="430" r="7"/><circle class="st3" cx="256" cy="430" r="5"/><circle class="st3" cx="256" cy="430" r="2"/><circle class="st0" cx="256" cy="490" r="7"/><circle class="st3" cx="256" cy="490" r="5"/><circle class="st3" cx="256" cy="490" r="2"/><path class="st3" d="M254.9 83.7V261c0 2.3-1.8 4.1-4.1 4.1H242c-2.3 0-4.1-1.9-4-4.2l5.6-173.1c.1-3.8 3.2-6.8 7-6.8h1.6c1.5 0 2.7 1.2 2.7 2.7zm2.2 0V261c0 2.3 1.8 4.1 4.1 4.1h8.8c2.3 0 4.1-1.9 4-4.2l-5.6-173.1c-.1-3.8-3.2-6.8-7-6.8h-1.6c-1.5 0-2.7 1.2-2.7 2.7zm-10.2 189.5c-1.2-.4-2.5-.8-3.7-.8-1.3 0-2.8.4-4 .9-1.5.6-2.5 2-2.6 3.6l-4.4 101.5 3.7 2.7h11.6v-1l2-103c0-1.8-1-3.4-2.6-3.9zm28.6 3.6c-.1-1.6-1.1-3-2.6-3.6-1.2-.5-2.8-.9-4-.9-1.2 0-2.6.4-3.7.8-1.6.6-2.6 2.1-2.6 3.8l2 103v1h11.6l3.7-2.7-4.4-101.4zm-15.7-2.5c-.7-.6-2-1.3-3.8-1.3s-3 .7-3.8 1.3c-.5.4-.7.9-.8 1.5l-2 104.2 6.5.1 6.5-.1-2-104.2c.1-.6-.2-1.1-.6-1.5z"/><path d="M311.9 343.4c-1.7-1.1-4-.6-5.1 1.2-10.6 17.8-25.9 29.3-41.8 32.5-1.8.4-3.7.1-5.4-.6L256 375l-3.5 1.5c-1.7.7-3.6 1-5.4.6-16-3.2-31.3-14.7-41.8-32.5-1-1.8-3.4-2.3-5.1-1.2-2.6 1.7-3.6 5.1-2.2 8 10.9 23.1 30.6 38.1 50.1 41.7v6.8h16v-6.8c19.5-3.6 39.2-18.7 50.1-41.7 1.2-2.8.3-6.2-2.3-8z" fill="#66442b"/><path class="st3" d="M248.2 18c-9.4 21.8-14.7 45.2-15.6 69l-10.5 277.7c-6.3-5.3-12.1-12-16.9-20.1-1-1.8-3.4-2.3-5.1-1.2-2.6 1.7-3.6 5.1-2.2 8 10.9 23.1 30.6 38.1 50.1 41.7v13.3c0 9.3-2.9 17.5-7.2 22.5 4.4 5 7.2 13.2 7.2 22.5 0 11.1-4.2 20.2-10 24.5h-3.9c0 1 .1 2 .2 3 1 .2 1.7 1.4 1.7 3 0 1.1-.4 2.1-1 2.6 2.7 16 11 27.4 21 27.4V0l-7.8 18z"/></svg>