<svg xmlns="http://www.w3.org/2000/svg" viewBox="0 0 512 512" xml:space="preserve"><style>.st2{fill:#7193ad}</style><path d="m238.5 378.7-8.9-320.8c-.7-23.9 13.8-45.7 36.1-54.3l7.9-3.1c4.2-1.6 8.8 1.5 8.7 6.1l-7.8 372.1c0 .7-.6 1.3-1.4 1.3h-33.3c-.7 0-1.3-.6-1.3-1.3z" fill="#ddd"/><path fill="#2e86b7" d="M248.6 467h14.8l4.6-75h-24z"/><path class="st2" d="m267.9 393.7.6-9.7h-25l.6 9.7zm-19.4 71.6 1 16.7h13l1-16.7z"/><path class="st2" d="M313.4 359.8c-9.7 8.2-22.2 13.2-35.9 13.2-7.6 0-14.9-1.5-21.5-4.3-6.6 2.8-13.9 4.3-21.5 4.3-13.7 0-26.2-5-35.9-13.2-1.4-1.2-3.5-.1-3.3 1.7l1.6 14.6c.2 1.6 1.2 2.9 2.7 3.4 17.4 5.6 36.4 8.9 56.4 9.4 20-.6 39-3.9 56.4-9.4 1.5-.5 2.6-1.8 2.7-3.4l1.6-14.6c.2-1.8-1.9-2.9-3.3-1.7z"/><circle class="st2" cx="256" cy="492" r="20"/></svg>