<svg xmlns="http://www.w3.org/2000/svg" viewBox="0 0 512 512" xml:space="preserve"><style>.st1{fill:#a18267}</style><path d="m239 280-2-1V106.9c0-27.2 3-54.2 9.1-80.7L252 0c13.8 23.6 21.1 50.4 21.3 77.7L275 279l-2 1h-34z" fill="#bbb"/><path class="st1" d="M256 279h-19l1.4 48 3.6 2h29l2.6-2 1.4-48z"/><path d="M273.6 327h-35.1l3.8 126.9c.3 8.9-1.5 17.9-5.7 25.8-1.7 3.2-2.6 6.9-2.6 10.8.2 11.3 9.3 20.8 20.6 21.5 12.8.8 23.4-9.3 23.4-22 0-3.6-.9-7-2.4-10-3.9-7.7-6.2-16.1-5.9-24.7l3.9-128.3z" fill="#66442b"/><path class="st1" d="M270 445h-28l.3 8.9c.1 4.4-.2 8.8-1.1 13.1h29.7c-.9-3.8-1.3-7.8-1.2-11.7l.3-10.3z"/></svg>